<?xml version="1.0" encoding="utf-8"?>
<!-- Generator: Adobe Illustrator 18.0.0, SVG Export Plug-In . SVG Version: 6.00 Build 0)  -->
<!DOCTYPE svg PUBLIC "-//W3C//DTD SVG 1.1//EN" "http://www.w3.org/Graphics/SVG/1.1/DTD/svg11.dtd">
<svg version="1.1" id="Layer_1" xmlns="http://www.w3.org/2000/svg" xmlns:xlink="http://www.w3.org/1999/xlink" x="0px" y="0px"
	 viewBox="0 0 36 36" enable-background="new 0 0 36 36" xml:space="preserve">
<g>
	<g>
		<g>
			<g>
				<g>
					<g>
						<g>
							<path fill="#FFDC97" d="M20.7,16.9h-5.5v0.9c0,2.3-0.7,4.5-2,6.3v3.6h9.5v-3.6c-1.3-1.8-2-4-2-6.3V16.9z"/>
						</g>
					</g>
					<g>
						<g>
							<path fill="#E9EFF4" d="M29.9,27.6v3.6c0,1.6-1.3,2.8-2.8,2.8H9c-1.6,0-2.8-1.3-2.8-2.8v-3.6c0-1.1,0.6-2,1.5-2.5l6.9-3.5
								c0,0,0.8,2.9,3.4,2.9c2.5,0,3.4-2.9,3.4-2.9l6.9,3.5C29.3,25.5,29.9,26.5,29.9,27.6z"/>
						</g>
					</g>
					<g>
						<g>
							<g>
								<polygon fill="#3E4347" points="18.9,26.7 19.8,32.2 18,34 16.2,32.2 17.1,26.7 16.2,25.8 17.6,24.4 18.4,24.4 19.8,25.8 
																	"/>
							</g>
						</g>
					</g>
					<g>
						<g>
							<g>
								<polygon fill="#FFFFFF" points="21.1,20.6 18,24.4 20.1,26.3 21.9,22.8 								"/>
							</g>
						</g>
						<g>
							<g>
								<polygon fill="#FFFFFF" points="14.9,20.6 18,24.4 15.9,26.3 14.1,22.8 								"/>
							</g>
						</g>
					</g>
					<g>
						<g>
							<path fill="#3E4347" d="M12.9,22.8l-1.6,0.5L7.7,25c-0.9,0.5-1.5,1.5-1.5,2.5v3.6C6.1,32.7,7.4,34,9,34h9L12.9,22.8z"/>
						</g>
						<g>
							<path fill="#3E4347" d="M29.9,31.2v-3.6c0-1.1-0.6-2-1.5-2.5l-5.2-2.7L18,34h9C28.6,34,29.9,32.7,29.9,31.2z"/>
						</g>
					</g>
					<g>
						<g>
							<g>
								<path fill="#FFE9AB" d="M24.1,13.3c0,5-3.3,6.8-5,7.4c-0.7,0.2-1.5,0.2-2.2,0c-1.8-0.6-5-2.4-5-7.4c0-4.2,2.7-7.7,6.1-7.7
									C21.3,5.6,24.1,9.1,24.1,13.3z"/>
							</g>
						</g>
						<g>
							<g>
								<g>
									
										<ellipse transform="matrix(0.9947 0.1024 -0.1024 0.9947 1.5677 -2.3614)" fill="#FFE9AB" cx="23.8" cy="14.1" rx="1.2" ry="1.8"/>
								</g>
							</g>
							<g>
								<g>
									
										<ellipse transform="matrix(-0.9947 0.1024 -0.1024 -0.9947 25.6693 26.8657)" fill="#FFE9AB" cx="12.1" cy="14.1" rx="1.2" ry="1.8"/>
								</g>
							</g>
						</g>
						<g>
							<g>
								<path fill="#A5856D" d="M23.3,14.3l-0.9-4.7c0,0-3.8,1.9-6.7-0.9c0,0-0.4,1.5-2.1,1.5l-0.9,4.1c-1-1.1-2.9-10.5,1.4-8.7
									C16.3,0.6,28.5,5.3,23.3,14.3z"/>
							</g>
						</g>
					</g>
				</g>
				<g>
					<g>
						<g>
							<path fill="#5A5F63" d="M25,23.7l-1.5,0.5l0.9,0.9c0.1,0.1,0.2,0.4,0,0.5L18,34l3.1-13.4l3.9,2.3
								C25.4,23.1,25.3,23.6,25,23.7z"/>
						</g>
					</g>
					<g>
						<g>
							<path fill="#5A5F63" d="M11,23.7l1.5,0.5l-0.9,0.9c-0.1,0.1-0.2,0.4,0,0.5L18,34l-3.1-13.4L10.9,23
								C10.6,23.1,10.7,23.6,11,23.7z"/>
						</g>
					</g>
				</g>
			</g>
		</g>
		<g>
			<g>
				<path fill="#5A5F63" d="M18,2c-3.4,0-6.3,0.7-8,1.8C9.5,4.1,9.4,4.7,9.6,5.3l1.4,3.4c0.1,0.4,0.3,0.7,0.6,0.8
					c1.7,0.7,4,1.2,6.5,1.2c2.5,0,4.8-0.5,6.5-1.2c0.3-0.1,0.5-0.4,0.6-0.8l1.4-3.4c0.2-0.6,0-1.3-0.4-1.5C24.3,2.7,21.4,2,18,2z"/>
			</g>
		</g>
		<g>
			<g>
				<ellipse fill="#3E4347" cx="18" cy="9.1" rx="7" ry="2.8"/>
			</g>
		</g>
		<g>
			<path fill="#FFD93B" d="M18,7.6c3.8,0,6.3,0.8,7,1.4c0,0,0,0,0-0.1c0,0,0-0.1,0-0.1c0.2-0.7-0.2-1.4-0.9-1.6
				c-1.9-0.6-4.4-0.8-6.2-0.8c-1.7,0-4.3,0.2-6.2,0.8c-0.7,0.2-1.1,1-0.8,1.7c0,0,0,0,0,0c0,0,0,0.1,0,0.1C11.7,8.4,14.2,7.6,18,7.6
				z"/>
		</g>
	</g>
	<g>
		<g>
			<g>
				<path fill="#F4C534" d="M20.4,4.4C20.2,4.7,20,5,19.8,5.4c0,0.1-0.1,0.1-0.2,0.1c-1.1-0.1-2.2-0.1-3.3,0c-0.1,0-0.1,0-0.2-0.1
					C16,5,15.8,4.7,15.6,4.4c-0.1-0.1,0-0.3,0.2-0.3c0.4,0,0.8-0.1,1.2-0.1c0-0.5,0.4-1,1.1-1c0.6,0,1.1,0.5,1.1,1
					c0.4,0,0.8,0.1,1.2,0.1C20.4,4.1,20.5,4.3,20.4,4.4z"/>
			</g>
		</g>
		<g>
			<g>
				<path fill="#FFD93B" d="M18.7,4c0,0.4-0.3,0.6-0.7,0.6c-0.4,0-0.7-0.3-0.7-0.6c0-0.4,0.3-0.7,0.7-0.7C18.4,3.3,18.7,3.7,18.7,4z
					"/>
			</g>
		</g>
	</g>
</g>
</svg>
