<?xml version="1.0" encoding="utf-8"?>
<!-- Generator: Adobe Illustrator 18.0.0, SVG Export Plug-In . SVG Version: 6.00 Build 0)  -->
<!DOCTYPE svg PUBLIC "-//W3C//DTD SVG 1.1//EN" "http://www.w3.org/Graphics/SVG/1.1/DTD/svg11.dtd">
<svg version="1.1" id="Layer_1" xmlns="http://www.w3.org/2000/svg" xmlns:xlink="http://www.w3.org/1999/xlink" x="0px" y="0px"
	 viewBox="0 0 36 36" enable-background="new 0 0 36 36" xml:space="preserve">
<g>
	<g>
		<g>
			<g>
				<g>
					<polygon fill="#FFE9AB" points="21.6,16.4 14.3,16.4 14.3,21.7 18,33.9 21.6,21.7 					"/>
				</g>
			</g>
			<g>
				<g>
					<g>
						<g>
							<path fill="#FFE9AB" d="M12.1,14.2c0.1,1.3-0.5,2.3-1.3,2.3s-1.6-1-1.7-2.3S9.6,12,10.4,12S12,13,12.1,14.2z"/>
						</g>
					</g>
					<g>
						<g>
							<path fill="#FFDC97" d="M23.9,14.2c-0.1,1.3,0.5,2.3,1.3,2.3c0.8,0,1.6-1,1.7-2.3C27,13,26.4,12,25.5,12
								C24.7,12,24,13,23.9,14.2z"/>
						</g>
					</g>
				</g>
				<g>
					<g>
						<g>
							<g>
								<g>
									<g>
										<g>
											<g>
												<g>
													<g>
														<g>
															<g>
																<g>
																	<g>
																		<g>
																			<g>
																				<g>
																					<g>
																						<g>
																							<g>
																								<g>
																									<path fill="#FFE9AB" d="M25.4,13.9c0,4.5-3.3,8.1-7.4,8.1c-4.1,0-7.4-3.6-7.4-8.1c0-4.5,3.3-8.1,7.4-8.1
																										C22.1,5.8,25.4,9.4,25.4,13.9z"/>
																								</g>
																							</g>
																						</g>
																					</g>
																				</g>
																			</g>
																		</g>
																	</g>
																</g>
															</g>
														</g>
													</g>
												</g>
											</g>
										</g>
									</g>
									<g>
										<g>
											<g>
												<g>
													<g>
														<g>
															<g>
																<g>
																	<g>
																		<g>
																			<path fill="#FFDC97" d="M25.4,13.9c0,4.5-3.3,8.1-7.4,8.1c-2.3,0-4.4-1.2-5.8-3c1.3,1.1,2.9,1.8,4.6,1.8
																				c4.1,0,7.4-3.6,7.4-8.1c0-1.9-0.6-3.7-1.6-5.1C24.3,9,25.4,11.3,25.4,13.9z"/>
																		</g>
																	</g>
																</g>
															</g>
														</g>
													</g>
												</g>
											</g>
										</g>
									</g>
									<g>
										<g>
											<g>
												<g>
													<path fill="#3E4347" d="M18,19.4c-0.9,0-1.7-0.4-2.3-1.2c-0.1-0.2-0.1-0.4,0.1-0.5c0.2-0.1,0.4-0.1,0.5,0.1
														c0.4,0.5,1,0.9,1.7,0.9s1.3-0.3,1.7-0.9c0.1-0.2,0.4-0.2,0.5-0.1c0.2,0.1,0.2,0.4,0.1,0.5C19.7,19,18.9,19.4,18,19.4z"
														/>
												</g>
											</g>
										</g>
									</g>
								</g>
							</g>
						</g>
					</g>
				</g>
				<g>
					<g>
						<g>
							<g>
								<g>
									<g>
										<g>
											<g>
												<g>
													<ellipse fill="#3E4347" cx="15.1" cy="14.4" rx="1.2" ry="1.3"/>
												</g>
											</g>
										</g>
									</g>
								</g>
							</g>
						</g>
						<g>
							<g>
								<path fill="#5A5F63" d="M15.8,14.3c-0.1,0.1-0.3,0-0.4-0.1c-0.1-0.2-0.1-0.3,0-0.4c0.1-0.1,0.3,0,0.4,0.1
									C15.9,14,15.9,14.2,15.8,14.3z"/>
							</g>
						</g>
					</g>
					<g>
						<g>
							<g>
								<g>
									<g>
										<g>
											<g>
												<g>
													<ellipse fill="#3E4347" cx="20.8" cy="14.4" rx="1.2" ry="1.3"/>
												</g>
											</g>
										</g>
									</g>
								</g>
							</g>
						</g>
						<g>
							<g>
								<path fill="#5A5F63" d="M21.5,14.3c-0.1,0.1-0.3,0-0.4-0.1c-0.1-0.2-0.1-0.3,0-0.4c0.1-0.1,0.3,0,0.4,0.1
									C21.6,14,21.6,14.2,21.5,14.3z"/>
							</g>
						</g>
					</g>
				</g>
			</g>
			<g>
				<g>
					<path fill="#89664C" d="M25.4,14.4L25.4,14.4L24.9,12c-7.8,0.3-10-3.1-10-3.1c-0.8,2.9-3.7,2.8-3.7,2.8l-0.6,2.8l0,0V8.3
						c0.2-6.2,6.5-6.8,10.1-5.4c1.4,0.6,2.3,1.4,2.3,2.4C27.8,3.3,24.9,14.4,25.4,14.4z"/>
				</g>
			</g>
			<g>
				<g>
					<g>
						<g>
							<polygon fill="#E9EFF4" points="18,34 18,34 17.9,34 17.9,34 18,33.9 							"/>
						</g>
					</g>
				</g>
				<g>
					<g>
						<g>
							<path fill="#3E4347" d="M29.4,31.1c0,1.6-1.3,2.9-3,2.9H9.5c-1.6,0-2.9-1.3-3-2.9c0-2.5,0.2-6,1.3-7.6c1-1.3,6.5-1.8,6.5-1.8
								c0.8,3.1,3.7,5.5,3.7,5.5s2.8-2.4,3.7-5.5c0,0,5.5,0.5,6.5,1.8C29.2,25,29.4,28.5,29.4,31.1z"/>
						</g>
					</g>
					<g>
						<g>
							<polygon fill="#E9EFF4" points="18,34 18,34 17.9,34 18,33.9 18,34 							"/>
						</g>
					</g>
				</g>
			</g>
		</g>
	</g>
	<g>
		<g>
			<path fill="#3E4347" d="M26,2.6H10.6c-0.3,2.8-0.2,5.9,0,9.3c4.8-2.8,9.7-2.7,15.3,0C26,8.9,26.1,5.8,26,2.6z"/>
		</g>
	</g>
	<g>
		<g>
			<path fill="#5A5F63" d="M28.4,2H7.7C7.2,2,6.8,2.4,6.8,2.9v0c0,0.5,0.4,0.9,0.9,0.9h20.7c0.5,0,0.9-0.4,0.9-0.9v0
				C29.3,2.4,28.9,2,28.4,2z"/>
		</g>
	</g>
	<g>
		<g>
			<g>
				<g>
					<rect x="27.8" y="3.3" fill="#5A5F63" width="0.8" height="5"/>
				</g>
			</g>
		</g>
		<g>
			<g>
				<path fill="#E24B4B" d="M29.5,8.9c-0.6,0.9-2,0.9-2.6,0c0.2-0.3,0.4-0.6,0.6-0.9c0.2-0.3,0.4-0.5,0.7-0.5l0,0
					c0.3,0,0.5,0.2,0.7,0.5C29,8.3,29.2,8.6,29.5,8.9z"/>
			</g>
		</g>
	</g>
</g>
</svg>
