<?xml version="1.0" encoding="utf-8"?>
<!-- Generator: Adobe Illustrator 18.0.0, SVG Export Plug-In . SVG Version: 6.00 Build 0)  -->
<!DOCTYPE svg PUBLIC "-//W3C//DTD SVG 1.1//EN" "http://www.w3.org/Graphics/SVG/1.1/DTD/svg11.dtd">
<svg version="1.1" id="Layer_1" xmlns="http://www.w3.org/2000/svg" xmlns:xlink="http://www.w3.org/1999/xlink" x="0px" y="0px"
	 viewBox="0 0 36 36" enable-background="new 0 0 36 36" xml:space="preserve">
<g>
	<g>
		<g>
			<path fill="#E84D88" d="M9.3,34h17.5c0.9-0.8,1.6-1.8,2-3c1.7-8.7-3.6-12.4-10.7-12.4c-7.1,0-12.4,3.7-10.7,12.4
				C7.7,32.2,8.4,33.2,9.3,34z"/>
		</g>
	</g>
	<g>
		<g>
			<circle fill="#BB3166" cx="18" cy="24.7" r="0.6"/>
		</g>
	</g>
	<g>
		<g>
			<path fill="#F4C534" d="M21,13.7v6.1c0,2.1-3,3.2-3,3.2s-3-1.1-3-3.2v-6.1H21z"/>
		</g>
	</g>
	<g>
		<g>
			<path fill="#DAE5EF" d="M26.7,34l1-8.1c0.1-0.6-0.4-1.2-1-1.2H9.3c-0.6,0-1.1,0.6-1.1,1.2L9.3,34H26.7z"/>
		</g>
	</g>
	<g>
		<g>
			<path fill="#3E4347" d="M15.2,24.9c0.4,1.9-1.7,3.7-1.7,3.7s0.6-1.9-0.8-3.7c-1.2-1.6-1.2-3.3-1.2-3.7c0,0,0-0.1,0-0.1
				c0-1.5,1.1-3.6,2.6-5c0.3,0.3,0.6,0.5,0.8,0.8v0c0,0,0.1,5.6,2.6,7.8c0,0-1.1,0-2.6-0.6C15,24.4,15.1,24.6,15.2,24.9z"/>
		</g>
	</g>
	<g>
		<g>
			<path fill="#FFD93B" d="M24.3,11.4c-0.3,3.4-2.6,5.8-4.3,7.1c-1.2,0.9-2.8,1-4,0c-1.9-1.4-4.3-4.1-4.3-7.9c0-4.1,3.1-7.2,6.8-6.9
				C22.1,3.9,24.7,7.3,24.3,11.4z"/>
		</g>
	</g>
	<g>
		<g>
			<g>
				<g>
					<path fill="#FFD93B" d="M13.7,12.3c0.1,1.1-0.4,2-1.1,2.1c-0.7,0.1-1.2-0.8-1.5-1.8c-0.4-1.2,0.1-2.1,1.1-2.1
						C12.8,10.5,13.5,11.2,13.7,12.3z"/>
				</g>
			</g>
			<g>
				<g>
					<path fill="#FFD93B" d="M22.3,12.3c-0.1,1.1,0.4,2,1.1,2.1c0.7,0.1,1.2-0.8,1.5-1.8c0.4-1.2-0.1-2.1-1.1-2.1
						C23.2,10.5,22.5,11.2,22.3,12.3z"/>
				</g>
			</g>
		</g>
		<g>
			<g>
				<path fill="#3E4347" d="M12.2,13.4c0,0,4-2,4-5.5l-0.9,0.6c0,0,4.7,4.4,9,3.4l-0.3-0.4c0,0-0.4,0.2-0.3,2.2
					c0,0,3.7-7.7-1.8-10.9c-4-2.3-8-0.3-8.3,1.7C12.9,4.2,9.6,7.2,12.2,13.4z"/>
			</g>
		</g>
	</g>
	<g>
		<g>
			<ellipse fill="#CBD6E0" cx="18" cy="30.6" rx="1.7" ry="1.3"/>
		</g>
	</g>
</g>
<g>
	<g>
		<g>
			<path fill="#E84D88" d="M9.3,34h17.5c0.9-0.8,1.6-1.8,2-3c1.7-8.7-3.6-12.4-10.7-12.4c-7.1,0-12.4,3.7-10.7,12.4
				C7.7,32.2,8.4,33.2,9.3,34z"/>
		</g>
	</g>
	<g>
		<g>
			<circle fill="#BB3166" cx="18" cy="24.7" r="0.6"/>
		</g>
	</g>
	<g>
		<g>
			<path fill="#F4C534" d="M21,13.7v6.1c0,2.1-3,3.2-3,3.2s-3-1.1-3-3.2v-6.1H21z"/>
		</g>
	</g>
	<g>
		<g>
			<path fill="#DAE5EF" d="M26.7,34l1-8.1c0.1-0.6-0.4-1.2-1-1.2H9.3c-0.6,0-1.1,0.6-1.1,1.2L9.3,34H26.7z"/>
		</g>
	</g>
	<g>
		<g>
			<path fill="#3E4347" d="M15.2,24.9c0.4,1.9-1.7,3.7-1.7,3.7s0.6-1.9-0.8-3.7c-1.2-1.6-1.2-3.3-1.2-3.7c0,0,0-0.1,0-0.1
				c0-1.5,1.1-3.6,2.6-5c0.3,0.3,0.6,0.5,0.8,0.8v0c0,0,0.1,5.6,2.6,7.8c0,0-1.1,0-2.6-0.6C15,24.4,15.1,24.6,15.2,24.9z"/>
		</g>
	</g>
	<g>
		<g>
			<path fill="#FFD93B" d="M24.3,11.4c-0.3,3.4-2.6,5.8-4.3,7.1c-1.2,0.9-2.8,1-4,0c-1.9-1.4-4.3-4.1-4.3-7.9c0-4.1,3.1-7.2,6.8-6.9
				C22.1,3.9,24.7,7.3,24.3,11.4z"/>
		</g>
	</g>
	<g>
		<g>
			<g>
				<g>
					<path fill="#FFD93B" d="M13.7,12.3c0.1,1.1-0.4,2-1.1,2.1c-0.7,0.1-1.2-0.8-1.5-1.8c-0.4-1.2,0.1-2.1,1.1-2.1
						C12.8,10.5,13.5,11.2,13.7,12.3z"/>
				</g>
			</g>
			<g>
				<g>
					<path fill="#FFD93B" d="M22.3,12.3c-0.1,1.1,0.4,2,1.1,2.1c0.7,0.1,1.2-0.8,1.5-1.8c0.4-1.2-0.1-2.1-1.1-2.1
						C23.2,10.5,22.5,11.2,22.3,12.3z"/>
				</g>
			</g>
		</g>
		<g>
			<g>
				<path fill="#3E4347" d="M23.6,13.9c0-0.9,0-1.4,0.1-1.8c-3.1,0.4-6.3-1.8-7.7-2.9c-0.8,2.7-3.8,4.2-3.8,4.2
					c-2.7-6.3,0.7-9.2,1.3-8.7c0.2-2,4.3-4,8.3-1.7C27.2,6.2,23.6,13.9,23.6,13.9z"/>
			</g>
		</g>
	</g>
	<g>
		<g>
			<ellipse fill="#CBD6E0" cx="18" cy="30.6" rx="1.7" ry="1.3"/>
		</g>
	</g>
</g>
</svg>
