<?xml version="1.0" encoding="utf-8"?>
<!-- Generator: Adobe Illustrator 18.0.0, SVG Export Plug-In . SVG Version: 6.00 Build 0)  -->
<!DOCTYPE svg PUBLIC "-//W3C//DTD SVG 1.1//EN" "http://www.w3.org/Graphics/SVG/1.1/DTD/svg11.dtd">
<svg version="1.1" id="Layer_1" xmlns="http://www.w3.org/2000/svg" xmlns:xlink="http://www.w3.org/1999/xlink" x="0px" y="0px"
	 viewBox="0 0 36 36" enable-background="new 0 0 36 36" xml:space="preserve">
<g>
	<g>
		<g>
			<g>
				<g>
					<path fill="#F4C534" d="M21.3,22.2v-5.6h-6.6v5.6C14.7,27.3,21.3,27.3,21.3,22.2z"/>
				</g>
			</g>
		</g>
		<g>
			<g>
				<g>
					<g>
						<g>
							<path fill="#FFD93B" d="M13.8,13.5c0,1.2-0.7,2.2-1.5,2.2c-0.8,0-1.4-1-1.5-2.2c-0.2-1.6,0.5-2.7,1.5-2.2
								C13.1,11.7,13.8,12.3,13.8,13.5z"/>
						</g>
					</g>
				</g>
				<g>
					<g>
						<g>
							<path fill="#FFD93B" d="M22.2,13.5c0,1.2,0.7,2.2,1.5,2.2c0.8,0,1.4-1,1.5-2.2c0.2-1.6-0.5-2.7-1.5-2.2
								C22.9,11.7,22.2,12.3,22.2,13.5z"/>
						</g>
					</g>
				</g>
			</g>
			<g>
				<g>
					<g>
						<path fill="#FFD93B" d="M24,13.6c0,3.4-2.9,5.7-4.6,6.7c-0.8,0.5-1.9,0.5-2.7,0c-1.8-1-4.6-3.3-4.6-6.7c0-1,0.3-2,0.7-2.8
							c-0.4-1.8,0.6-3.9,3-3.9c0.9,0,1.6,0.3,2.1,0.8c0.1,0,0.1,0,0.2,0c0.4,0,0.7,0,1,0.1c0.5-0.4,1.1-0.6,1.9-0.6
							c2.7,0,3.6,2.7,2.8,4.6C23.9,12.3,24,12.9,24,13.6z"/>
					</g>
				</g>
			</g>
			<g>
				<g>
					<g>
						<path fill="#5A5F63" d="M12,13.6l0.6,0c0.1-0.7,0.4-2.2,0.4-3.5c0,0,3.6,2.2,9.3-1.2c0,0,0.2,1.8,1,2.6c0,0,0.1,1.1,0.2,2.2
							l0.5,0c0.3-2.6,2.9-5.7,0.1-6.8c0,0-0.4-6.4-9-4.4c-0.2,0-0.3,0.1-0.5,0.1C9.6,4,12.1,12.4,12,13.6z"/>
					</g>
				</g>
			</g>
		</g>
		<g>
			<g>
				<g>
					<g>
						<g>
							<path fill="#DAE5EF" d="M30.9,34l-0.7-7.4c-0.1-1.4-1-2.7-2.4-3.2L22.3,21L18,22.9L13.7,21l-5.6,2.3
								c-1.3,0.6-2.2,1.8-2.4,3.2L5.1,34H30.9z"/>
						</g>
					</g>
				</g>
				<g>
					<g>
						<g>
							<g>
								<path fill="#E24B4B" d="M19.1,26l0.8,8h-3.6l0.8-8h0l-1-1c0.5-1,1.1-1.7,2.1-2.1c0.9,0.5,1.6,1.2,2.1,2.1L19.1,26L19.1,26z"
									/>
							</g>
						</g>
					</g>
				</g>
			</g>
		</g>
		<g>
			<g>
				<g>
					<g>
						<circle fill="#FFFFFF" cx="23.5" cy="27.1" r="1.8"/>
					</g>
				</g>
			</g>
			<g>
				<g>
					<g>
						<circle fill="#E9EFF4" cx="23.5" cy="27.1" r="1.4"/>
					</g>
				</g>
			</g>
			<g>
				<g>
					<g>
						<path fill="#65B1EF" d="M24.4,25.1c-0.1,0.6-0.1,1.2,0.1,1.7c0,0.1,0,0.2,0,0.3c0,0.6-0.6,1.1-1.2,0.9
							c-0.3-0.1-0.6-0.3-0.7-0.7c-0.1-0.3,0-0.7,0.2-0.9c0.6-0.7,1-1.5,1.1-2.4c0.1-0.9,0-1.8-0.4-2.5c-0.4-0.7-1.1-1.1-2-1.2
							c-0.2,0-0.3-0.2-0.3-0.4c0-0.2,0.2-0.3,0.4-0.3c1.1,0.1,2,0.6,2.5,1.5C24.6,22.4,24.6,23.9,24.4,25.1z"/>
					</g>
				</g>
			</g>
		</g>
		<g>
			<g>
				<g>
					<path fill="#65B1EF" d="M10.2,26.3C10.1,26.3,10.1,26.3,10.2,26.3c-0.2,0-0.3-0.2-0.3-0.4c0-0.2,0.9-5.6,4.7-6.1
						c0.2,0,0.3,0.1,0.4,0.3c0,0.2-0.1,0.3-0.3,0.4c-3.3,0.4-4.1,5.6-4.1,5.6C10.4,26.2,10.3,26.3,10.2,26.3z"/>
				</g>
			</g>
		</g>
		<g>
			<g>
				<g>
					<path fill="#E9EFF4" d="M14.7,19.3l3.3,3.6c0,0-1.8,1.1-2.6,3.1l-1.6-5L14.7,19.3z"/>
				</g>
			</g>
		</g>
		<g>
			<g>
				<g>
					<g>
						<path fill="#E9EFF4" d="M21.3,19.3L18,22.9c0,0,1.8,1.1,2.6,3.1l1.6-5L21.3,19.3z"/>
					</g>
				</g>
			</g>
		</g>
	</g>
	<g>
		<g>
			<g>
				<path fill="#5A5F63" d="M10.8,30c-0.1-0.3,0-0.5,0.3-0.6c0.1,0,0.1-0.1,0.1-0.2c-0.1-1.7-0.7-2.7-1.1-2.7c-0.4,0-1,1-1.1,2.7
					c0,0.1,0.1,0.1,0.1,0.2c0.3,0.1,0.4,0.4,0.3,0.6s-0.4,0.4-0.6,0.3c-0.5-0.2-0.8-0.6-0.8-1.1c0.1-2.1,1-3.6,2.1-3.6
					c1.1,0,1.9,1.5,2.1,3.6c0,0.5-0.3,1-0.8,1.1C11.2,30.4,10.9,30.2,10.8,30z"/>
			</g>
		</g>
	</g>
</g>
</svg>
