<?xml version="1.0" encoding="utf-8"?>
<!-- Generator: Adobe Illustrator 18.0.0, SVG Export Plug-In . SVG Version: 6.00 Build 0)  -->
<!DOCTYPE svg PUBLIC "-//W3C//DTD SVG 1.1//EN" "http://www.w3.org/Graphics/SVG/1.1/DTD/svg11.dtd">
<svg version="1.1" id="Layer_1" xmlns="http://www.w3.org/2000/svg" xmlns:xlink="http://www.w3.org/1999/xlink" x="0px" y="0px"
	 viewBox="0 0 36 36" enable-background="new 0 0 36 36" xml:space="preserve">
<g>
	<g>
		<g>
			<g>
				<g>
					<path fill="#F4C534" d="M21.3,17.7h-6.6c-0.2,3.4-2,6.5-4.8,8.5c0,5.1,16.3,5.1,16.3,0C23.3,24.3,21.5,21.1,21.3,17.7z"/>
				</g>
				<g>
					<g>
						<path fill="#E24B4B" d="M31.5,34H4.5c0,0,0.8-6.5,1.5-8.6c0.3-1,1.1-1.8,2.1-2.2l5.7-1.7h0c0,0.8,0.4,1.5,0.9,2
							c1.7,1.8,4.8,1.8,6.5,0c0.5-0.6,0.9-1.2,0.9-2l5.7,1.7c1,0.4,1.8,1.1,2.1,2.2C30.7,27.5,31.5,34,31.5,34z"/>
					</g>
				</g>
				<g>
					<g>
						
							<ellipse transform="matrix(0.975 0.2222 -0.2222 0.975 3.7443 -4.8959)" fill="#FFD93B" cx="23.6" cy="14.2" rx="1.4" ry="2.2"/>
					</g>
					<g>
						
							<ellipse transform="matrix(-0.975 0.2222 -0.2222 -0.975 27.8057 25.2622)" fill="#FFD93B" cx="12.5" cy="14.2" rx="1.4" ry="2.2"/>
					</g>
					<g>
						<g>
							<path fill="#FFD93B" d="M23.7,16.4c0,1-2.7,5.1-5.7,5.1c-3.1,0-5.5-4.1-5.5-5.1c-0.7-10.6,3-10.2,5.6-7.9
								C21.3,3.4,23.8,6.6,23.7,16.4z"/>
						</g>
						<g>
							<path fill="none" stroke="#3E4347" stroke-miterlimit="10" d="M18.1,8.4"/>
						</g>
					</g>
					<g>
						<path fill="#3E4347" d="M12.3,15.4h0.2c0.5-2.7-0.4-6.7,1.6-6.4c1.2,0.1,3.6,0.9,6.5-0.2c2.9-1.1,2.2,1.9,2.5,3.1
							c0.2,0.8,0.2,2.5,0.2,3.6h0.2c0.7-2.6,2.3-10.1-0.4-9.5c0,0-0.3-3-6.1-2.6c-5.8,0.4-6.3,4.6-6.2,6.3C11,11,12,14.1,12.3,15.4z
							"/>
					</g>
				</g>
			</g>
		</g>
	</g>
	<g>
		<g>
			<path fill="#E24B4B" d="M24.9,9.8c-0.1,1.2-0.2,2.4-0.4,3.6c-0.2,1.2-0.6,2.4-1.1,3.5s-1.1,2.2-2,3.1c-0.8,0.9-2,1.6-3.4,1.6
				c-1.3,0-2.5-0.7-3.4-1.7c-0.9-0.9-1.5-2-2-3.1c-0.5-1.1-0.8-2.3-1.1-3.5c-0.2-1.2-0.4-2.4-0.4-3.6l0.1,0c0.2,2.4,0.7,4.8,1.7,7
				c0.5,1.1,1.1,2.1,1.9,2.9c0.8,0.9,1.9,1.4,3,1.5c1.1,0,2.2-0.6,3-1.5c0.8-0.8,1.4-1.9,1.9-3c1-2.2,1.5-4.6,1.7-7L24.9,9.8z"/>
		</g>
	</g>
	<g>
		<ellipse fill="#FFFFFF" cx="15.2" cy="7.6" rx="0.4" ry="1.5"/>
	</g>
	<g>
		<path fill="#8CC63E" d="M10.5,9.8c0,0.5,0.5,0.9,1,0.7c4.4-2.1,8.8-2.1,13.2,0c0.5,0.2,1-0.2,1-0.7C24.7-0.6,11.5-0.6,10.5,9.8z
			 M12.5,9.1c-0.2,0-0.5-0.5-0.6-1.2c-0.1-0.7-0.1-1.3,0.2-1.4c0.2,0,0.5,0.5,0.6,1.2C12.8,8.4,12.7,9.1,12.5,9.1z M14.4,8.1
			c-0.3,0.1-0.7-0.6-1.1-1.6s-0.4-1.8-0.1-1.9c0.3-0.1,0.7,0.6,1.1,1.6S14.6,8,14.4,8.1z M16.1,7.8c-0.3,0-0.5-1-0.6-2.2
			c-0.1-1.2,0-2.2,0.3-2.3c0.3,0,0.5,1,0.6,2.2C16.5,6.8,16.4,7.8,16.1,7.8z M18.1,7.1c-0.3,0-0.5-1-0.5-2.2s0.2-2.2,0.5-2.2
			c0.3,0,0.5,1,0.5,2.2S18.3,7.1,18.1,7.1z M20,7.8c-0.3,0-0.4-1-0.3-2.3c0.1-1.2,0.4-2.2,0.7-2.2c0.3,0,0.4,1,0.3,2.3
			C20.5,6.9,20.2,7.8,20,7.8z M22.8,6.5c-0.3,1-0.8,1.7-1.1,1.6c-0.3-0.1-0.2-0.9,0.1-1.9c0.3-1,0.8-1.7,1.1-1.6
			C23.2,4.7,23.1,5.5,22.8,6.5z M24.3,7.9c-0.1,0.7-0.4,1.3-0.6,1.2s-0.3-0.7-0.2-1.4c0.1-0.7,0.4-1.3,0.6-1.2
			C24.3,6.6,24.4,7.2,24.3,7.9z"/>
	</g>
	<g>
		<g>
			<path fill="#3E4347" d="M18.7,31.4c0,0.4-0.3,0.7-0.7,0.7c-0.4,0-0.7-0.3-0.7-0.7c0-0.4,0.3-0.7,0.7-0.7
				C18.4,30.7,18.7,31,18.7,31.4z"/>
		</g>
		<g>
			<path fill="#3E4347" d="M17.3,28c0-0.4,0.3-0.7,0.7-0.7c0.4,0,0.7,0.3,0.7,0.7c0,0.4-0.3,0.7-0.7,0.7
				C17.6,28.7,17.3,28.4,17.3,28z"/>
		</g>
	</g>
</g>
</svg>
