<?xml version="1.0" encoding="utf-8"?>
<!-- Generator: Adobe Illustrator 18.0.0, SVG Export Plug-In . SVG Version: 6.00 Build 0)  -->
<!DOCTYPE svg PUBLIC "-//W3C//DTD SVG 1.1//EN" "http://www.w3.org/Graphics/SVG/1.1/DTD/svg11.dtd">
<svg version="1.1" id="Layer_1" xmlns="http://www.w3.org/2000/svg" xmlns:xlink="http://www.w3.org/1999/xlink" x="0px" y="0px"
	 viewBox="0 0 36 36" enable-background="new 0 0 36 36" xml:space="preserve">
<g>
	<g>
		<g>
			<path fill="#8F6D52" d="M9.4,24.8h16.5c-2.3-4-2.3-8.3-2.1-10.7H11.5C11.7,16.5,11.7,20.8,9.4,24.8z"/>
		</g>
	</g>
	<g>
		<g>
			<g>
				<g>
					<path fill="#59A5E0" d="M29.8,34c1.6-12.6-5-12.2-11.8-12.2c-6.8,0-13.4-0.4-11.8,12.2H29.8z"/>
				</g>
			</g>
			<g>
				<g>
					<g>
						<polygon fill="#DAE5EF" points="19.1,34 24.2,28.5 22.6,26.3 24.9,25.5 21.3,22.1 18.3,34 						"/>
					</g>
				</g>
				<g>
					<g>
						<polygon fill="#DAE5EF" points="11.8,28.5 16.9,34 17.7,34 14.7,22.1 11.1,25.5 13.4,26.3 						"/>
					</g>
				</g>
			</g>
			<g>
				<g>
					<path fill="#F4C534" d="M18.4,34c0.9-2.7,2.9-9.1,2.9-10.9v-6.6h-6.6v6.6c0,1.8,2,8.2,2.9,10.9H18.4z"/>
				</g>
			</g>
			<g>
				<g>
					<path fill="#5A5F63" d="M18.4,34c0.5-1.4,1.2-3.9,1.9-6.2c-0.7,0.4-1.4,0.6-2.3,0.6c-0.8,0-1.6-0.2-2.3-0.6
						c0.6,2.3,1.4,4.7,1.9,6.2H18.4z"/>
				</g>
			</g>
			<g>
				<g>
					<path fill="#FFD93B" d="M24.8,14c-0.3,3.7-2.8,6.3-4.7,7.7c-1.3,1-3,1-4.3,0c-2-1.6-4.7-4.4-4.7-8.6c0-4.4,3.3-7.8,7.4-7.5
						C22.4,5.9,25.2,9.6,24.8,14z"/>
				</g>
			</g>
			<g>
				<g>
					<g>
						<g>
							<path fill="#FFD93B" d="M13.3,15c0.1,1.2-0.4,2.2-1.2,2.3c-0.8,0.1-1.3-0.9-1.7-2C10,14,10.6,13,11.6,13
								C12.4,13.1,13.2,13.8,13.3,15z"/>
						</g>
					</g>
					<g>
						<g>
							<path fill="#FFD93B" d="M22.7,15c-0.1,1.2,0.4,2.2,1.2,2.3c0.8,0.1,1.3-0.9,1.7-2C26,14,25.4,13,24.4,13
								C23.6,13.1,22.8,13.8,22.7,15z"/>
						</g>
					</g>
				</g>
				<g>
					<g>
						<path fill="#8F6D52" d="M24,16.7c0-1,0-1.5,0.1-1.9c-3.3,0.4-6.8-1.9-8.3-3.1c-0.9,2.9-4.1,4.6-4.1,4.6
							c-2.9-6.8,0.7-10,1.4-9.4c0.2-2.2,4.6-4.4,9-1.9C28,8.3,24,16.7,24,16.7z"/>
					</g>
				</g>
			</g>
		</g>
		<g>
			<g>
				<path fill="#DAE5EF" d="M25.3,11.4c-4.7-1.7-9.9-1.7-14.6,0L9.1,3.9c5.7-2.6,12.2-2.6,17.9,0L25.3,11.4z"/>
			</g>
		</g>
		<g>
			<g>
				<path fill="#BBC7D1" d="M9.3,5.1l0.1,0.5c5.5-2.4,11.7-2.4,17.1,0l0.1-0.5C21.1,2.7,14.9,2.7,9.3,5.1z"/>
			</g>
			<g>
				<path fill="#BBC7D1" d="M10.4,9.9l0.1,0.5c4.8-2,10.2-2,15,0l0.1-0.5C20.7,7.9,15.3,7.9,10.4,9.9z"/>
			</g>
		</g>
		<g>
			<g>
				<g>
					<path fill="#65B1EF" d="M19.5,6.1c0,0.2-0.2,0.4-0.4,0.4h-0.7v0.7c0,0.2-0.2,0.4-0.4,0.4c-0.2,0-0.4-0.2-0.4-0.4V6.5h-0.7
						c-0.2,0-0.4-0.2-0.4-0.4c0-0.2,0.2-0.4,0.4-0.4h0.7V5c0-0.2,0.2-0.4,0.4-0.4c0.2,0,0.4,0.2,0.4,0.4v0.7h0.7
						C19.3,5.7,19.5,5.9,19.5,6.1z"/>
				</g>
			</g>
		</g>
	</g>
</g>
</svg>
