<?xml version="1.0" encoding="utf-8"?>
<!-- Generator: Adobe Illustrator 18.0.0, SVG Export Plug-In . SVG Version: 6.00 Build 0)  -->
<!DOCTYPE svg PUBLIC "-//W3C//DTD SVG 1.1//EN" "http://www.w3.org/Graphics/SVG/1.1/DTD/svg11.dtd">
<svg version="1.1" id="Layer_1" xmlns="http://www.w3.org/2000/svg" xmlns:xlink="http://www.w3.org/1999/xlink" x="0px" y="0px"
	 viewBox="0 0 36 36" enable-background="new 0 0 36 36" xml:space="preserve">
<g>
	<g>
		<g>
			<path fill="#5C4533" d="M20.9,5.4c0,1.6-1.3,2.9-2.9,2.9S15.1,7,15.1,5.4C15.1,2.7,16.4,2,18,2S20.9,2.7,20.9,5.4z"/>
		</g>
	</g>
	<g>
		<g>
			<g>
				<path fill="#6B503B" d="M26.5,22.8c-5.6,3.6-11.3,3.7-17,0c0.7-4.1,0.5-10.2,0.5-10.2l7.9-1.7l0.1,0l0.1,0l7.9,1.7
					C26,12.6,25.8,18.6,26.5,22.8z"/>
			</g>
		</g>
		<g>
			<g>
				<g>
					<path fill="#6B503B" d="M26,12.7c0,2.2-0.7,4.2-1.8,5.7c-0.8,1.2-2.6,0.2-2.2-1.2c0.2-0.8,0.3-1.7,0.4-2.7
						c0.1-0.9-0.7-1.6-1.4-1.4c-1.9,0.6-3.8,0.6-5.7,0c-0.8-0.3-1.5,0.5-1.4,1.4c0.1,1,0.2,1.9,0.4,2.7c0.3,1.5-1.4,2.4-2.2,1.2
						c-1.4-1.9-2.2-4.5-1.7-7.3c0.6-3.6,3.1-6.4,6.3-7.1C21.5,2.9,26,7.2,26,12.7z"/>
				</g>
			</g>
			<g>
				<g>
					<g>
						<g>
							<g>
								<path fill="#DAE5EF" d="M30.4,34l-1.8-9.6c-0.2-0.9-0.9-1.5-1.8-1.7L18,20.8l-8.8,1.9c-0.9,0.2-1.6,0.8-1.8,1.7L5.6,34H30.4
									z"/>
							</g>
						</g>
						<g>
							<g>
								<path fill="#F4C534" d="M21.2,21.5l0-4.6l-6.3-0.2l0,4.8c-0.3,2.1,3.2,3.4,3.2,3.4S21.2,23.7,21.2,21.5z"/>
							</g>
						</g>
					</g>
					<g>
						<g>
							<g>
								<path fill="#FFD93B" d="M23.3,13.5c-0.6,5.9-2.6,8.6-5.3,8.6c-2.7,0-4.8-2.7-5.3-8.6c-0.1-1,0.8-1.8,1.8-1.6
									c2.4,0.7,4.7,0.7,7.1,0C22.5,11.6,23.4,12.4,23.3,13.5z"/>
							</g>
						</g>
					</g>
				</g>
			</g>
		</g>
		<g>
			<g>
				<g>
					<polygon fill="#5C4533" points="18,10.8 17.9,10.8 17.9,10.8 					"/>
				</g>
			</g>
			<g>
				<g>
					<polygon fill="#5C4533" points="18.1,10.8 18.1,10.8 18,10.8 					"/>
				</g>
			</g>
		</g>
		<g>
			<g>
				<g>
					<path fill="#FFFFFF" d="M21.1,20.8c0.1,0.1-1.4,3-3.2,4.1c0,0,2.4,1.4,2.8,2.2c0.9-1.6,2-2.6,2-4.8L21.1,20.8z"/>
				</g>
			</g>
			<g>
				<g>
					<path fill="#FFFFFF" d="M14.8,20.8c-0.1,0.1,1.4,3,3.2,4.1c0,0-2.4,1.4-2.8,2.2c-0.9-1.6-2-2.6-2-4.8L14.8,20.8z"/>
				</g>
			</g>
		</g>
		<g>
			<g>
				<path fill="#3E4347" d="M10.7,32.4c0,0.5,0,1.1-0.1,1.6h14.7c0-0.5-0.1-1-0.1-1.6c0-3.9,1.3-7.2,3.1-8.7
					c-0.3-0.5-0.9-0.9-1.5-1.1l-2-0.4c-0.6,5-6.9,8.9-6.9,8.9s-6.3-3.9-6.9-8.9l-1.8,0.4c-0.6,0.1-1.2,0.5-1.5,1.1
					C9.5,25.2,10.7,28.5,10.7,32.4z"/>
			</g>
		</g>
		<g>
			<g>
				<g>
					<path fill="#3E4347" d="M17.9,25.5c0,0.7-1.3,1.3-2,1.3s-0.6-0.6-0.6-1.3c0-0.7-0.1-1.3,0.6-1.3S17.9,24.8,17.9,25.5z"/>
				</g>
			</g>
			<g>
				<g>
					<path fill="#3E4347" d="M18.1,25.5c0-0.7,1.3-1.3,2-1.3c0.7,0,0.6,0.6,0.6,1.3c0,0.7,0.1,1.3-0.6,1.3
						C19.3,26.9,18.1,26.3,18.1,25.5z"/>
				</g>
			</g>
			<g>
				<g>
					<path fill="#5A5F63" d="M18.4,24.8c0,0.5,0,0.9,0,1.4c-0.2,0.2-0.6,0.2-0.9,0c0-0.5,0-0.9,0-1.4C17.8,24.6,18.2,24.6,18.4,24.8
						z"/>
				</g>
			</g>
		</g>
	</g>
</g>
</svg>
