<?xml version="1.0" encoding="utf-8"?>
<!-- Generator: Adobe Illustrator 18.0.0, SVG Export Plug-In . SVG Version: 6.00 Build 0)  -->
<!DOCTYPE svg PUBLIC "-//W3C//DTD SVG 1.1//EN" "http://www.w3.org/Graphics/SVG/1.1/DTD/svg11.dtd">
<svg version="1.1" id="Layer_1" xmlns="http://www.w3.org/2000/svg" xmlns:xlink="http://www.w3.org/1999/xlink" x="0px" y="0px"
	 viewBox="0 0 36 36" enable-background="new 0 0 36 36" xml:space="preserve">
<g>
	<g>
		<g>
			<g>
				<g>
					<g>
						<g>
							<ellipse fill="#3E4347" cx="13.4" cy="18.3" rx="3.3" ry="5.8"/>
						</g>
					</g>
					<g>
						<g>
							<ellipse fill="#3E4347" cx="21.7" cy="18.3" rx="3.3" ry="5.8"/>
						</g>
					</g>
					<g>
						<g>
							<g>
								<polygon fill="#FFDC97" points="21,16.8 21.1,19.2 20,23.4 15.1,20.1 14.9,19.2 15.8,16.3 								"/>
							</g>
						</g>
					</g>
					<g>
						<g>
							<g>
								<g>
									<g>
										<path fill="#FFD93B" d="M24.4,12.3c0,5.3-3.5,7.2-5.3,7.8c-0.8,0.3-1.6,0.3-2.3,0c-1.9-0.6-5.3-2.6-5.3-7.8
											c0-4.5,2.9-8.1,6.5-8.1C21.5,4.2,24.4,7.8,24.4,12.3z"/>
									</g>
								</g>
							</g>
							<g>
								<g>
									<g>
										<path fill="#3E4347" d="M22.7,7.7c-0.5,0.8-0.4,1.7-0.2,2.6s0.6,1.6,0.7,2.5c0.2,1.2,0.3,3.7-0.3,4.7
											c-0.4,0.7-0.2,4.6,0.2,5.6c0.3,0.7,1,1.1,1.7,1.1c0.7,0,1.4-0.6,1.6-1.3c0.2-0.8-0.1-1.6,0-2.4c0.1-0.8,0.7-1.5,1.1-2.2
											c1-1.7,1.2-3.9,0.4-5.7c-0.3-0.7-0.8-1.4-1-2.1c-0.6-1.7-0.4-3.6-1.4-5.2c-0.6-0.9-1.5-1.5-2.4-1.9c-1-0.4-2-0.6-3-0.8
											c-0.7-0.1-1.5-0.2-2,0.2c-0.5,0.4-0.7,1.1-0.5,1.7s0.7,1.1,1.2,1.4s1.2,0.5,1.8,0.7"/>
									</g>
								</g>
							</g>
							<g>
								<g>
									<path fill="#3E4347" d="M14.1,8.1c-0.9,1.5-0.3,3.4-1,5.1c-0.3,0.8-0.9,1.5-1.1,2.4c-0.2,0.8,0,1.6,0.3,2.4
										c0.3,0.8,0.7,1.5,0.9,2.2c0.3,0.8,0.4,1.6,0.2,2.4c-0.2,0.8-0.9,1.5-1.7,1.5c-0.2,0-0.4,0-0.5,0c-0.2,0-0.4,0-0.7-0.1
										c-0.3,0-0.6-0.1-0.8-0.2c-0.7-0.4-0.8-1.3-0.6-2c0.2-0.7,0.6-1.4,0.6-2.1c0.3-2.1-1.8-3.8-1.9-5.9c0-1.8,1.5-3.3,2-5
										c0.2-0.7,0.3-1.4,0.5-2.2s0.4-1.4,0.9-2c0.5-0.6,1.3-0.9,2-0.7c0.6,0.2,1,0.6,1.5,1c0.5,0.4,1.1,0.7,1.6,0.4"/>
								</g>
							</g>
							<g>
								<g>
									<g>
										<path fill="#FFD93B" d="M30.6,34v-6.3c0-1.1-0.6-2.2-1.6-2.7l-5.7-2.9c-1.1-0.6-2-1.6-2.2-2.9c0,0,0,0,0-0.1
											c-0.7,0.5-1.4,0.8-1.9,1c-0.8,0.2-1.6,0.2-2.3,0c-0.5-0.2-1.2-0.5-1.9-1v0c-0.2,1.3-1.1,2.3-2.2,2.9L7,25
											c-1,0.5-1.6,1.5-1.6,2.7V34H30.6z"/>
									</g>
								</g>
							</g>
							<g>
								<g>
									<path fill="#F4C534" d="M22.8,21.9C22.8,21.9,22.8,21.9,22.8,21.9c-0.9-0.6-1.6-1.5-1.8-2.6c0,0,0,0,0-0.1
										c-0.7,0.5-1.4,0.8-1.9,1c-0.8,0.2-1.6,0.2-2.3,0c-0.5-0.2-1.2-0.5-1.9-1C14.9,19.2,16,21.6,22.8,21.9z"/>
								</g>
							</g>
							<g>
								<g>
									<g>
										<path fill="#3E4347" d="M23.7,13.4l-1-5c0,0-3.8,2.1-7-0.5c0,0-0.1,1-2,1.1l-1.4,4.4c-1-1.1-3.1-11.1,1.5-9.3
											C16.2-1.1,29.2,3.8,23.7,13.4z"/>
									</g>
								</g>
							</g>
						</g>
					</g>
				</g>
			</g>
		</g>
		<g>
			<g>
				<g>
					<path fill="#8CC63E" d="M26.6,34c0.1-1.4,0.1-4.2-1.4-5.5l-1-0.7c0.5-1.8,0.6-3,0.7-4.8c0-0.5-1.1-0.9-1-0.5
						c0.1,2-0.1,3.8-0.8,5.1c0,0-3.4-0.8-5,3.3c-1.6-4.1-5-3.3-5-3.3c-0.7-1.3-0.9-3.1-0.8-5.1c0-0.4-1.1,0.1-1,0.5
						c0.1,1.8,0.2,3.1,0.7,4.8c-1,0.8-2.7,1.5-2.4,6.2H26.6z"/>
				</g>
			</g>
		</g>
	</g>
	<g>
		<g>
			<g>
				<path fill="#A5856D" d="M26.7,10.1c-5.5-2-11.3-2-17.1,0c-0.1,0-0.3,0-0.3-0.2c0-0.1,0-0.3,0.2-0.3c6-2.1,11.9-2.1,17.5,0
					c0.1,0,0.2,0.2,0.2,0.3C27,10.1,26.8,10.2,26.7,10.1z"/>
			</g>
		</g>
	</g>
	<g>
		<g>
			<g>
				<path fill="#A5856D" d="M26.5,8.7c-6.2-2-11.7-2-16.4,0c-0.1,0.1-0.3,0-0.3-0.1c-0.1-0.1,0-0.3,0.1-0.3c4.8-2.1,10.5-2.1,16.8,0
					c0.1,0,0.2,0.2,0.2,0.3C26.8,8.7,26.6,8.8,26.5,8.7z"/>
			</g>
		</g>
	</g>
</g>
</svg>
