<?xml version="1.0" encoding="utf-8"?>
<!-- Generator: Adobe Illustrator 18.0.0, SVG Export Plug-In . SVG Version: 6.00 Build 0)  -->
<!DOCTYPE svg PUBLIC "-//W3C//DTD SVG 1.1//EN" "http://www.w3.org/Graphics/SVG/1.1/DTD/svg11.dtd">
<svg version="1.1" id="Layer_1" xmlns="http://www.w3.org/2000/svg" xmlns:xlink="http://www.w3.org/1999/xlink" x="0px" y="0px"
	 viewBox="0 0 36 36" enable-background="new 0 0 36 36" xml:space="preserve">
<g>
	<g>
		<g>
			<g>
				<path fill="#6B503B" d="M24.3,14.2v-2.3l-4.1-2.6h-4.6l-4.1,2.6v2.3c0,4.2-1.6,8.3-4.4,11.4c7.2,3.7,14.4,3.7,21.6,0
					C25.9,22.5,24.3,18.5,24.3,14.2z"/>
			</g>
		</g>
	</g>
	<g>
		<g>
			<g>
				<g>
					<g>
						<g>
							<g>
								<g>
									<path fill="#1DA9BF" d="M28.1,24c-6.7-2.3-13.5-2.3-20.2,0c-1.2,0.4-2,1.4-2.1,2.6l-1,7.4h26.4l-1-7.4
										C30.1,25.4,29.3,24.4,28.1,24z"/>
								</g>
							</g>
						</g>
						<g>
							<g>
								<g>
									<g>
										<g>
											<g>
												<g>
													<g>
														<g>
															<g>
																<g>
																	<g>
																		<g>
																			<g>
																				<g>
																					<path fill="#FFD93B" d="M12.9,15c-0.3-0.5-0.7-0.8-1.1-0.9c-1.1-0.3-1.7,0.7-1.2,2.3c0.4,1.2,0.8,2.2,1.5,2.2
																						c0,0,0.4,0.1,1-0.1L12.9,15z"/>
																				</g>
																			</g>
																		</g>
																		<g>
																			<g>
																				<g>
																					<path fill="#FFD93B" d="M23,15c0.3-0.5,0.7-0.8,1.1-0.9c1.1-0.3,1.7,0.7,1.2,2.3c-0.4,1.2-0.8,2.2-1.5,2.2
																						c0,0-0.4,0.1-1-0.1L23,15z"/>
																				</g>
																			</g>
																		</g>
																	</g>
																	<g>
																		<g>
																			<g>
																				<g>
																					<path fill="#F4C534" d="M20.2,29.6c1.3-2.6,1.7-5.7,1.7-7.1l0-3.8H14l0,3.8c-0.1,1.3,0.5,4.5,1.8,7.1H20.2z"/>
																				</g>
																			</g>
																		</g>
																		<g>
																			<g>
																				<path fill="#E9EFF4" d="M18,27c-1.7,0-3.2-1-3.9-2.6c0.9,2.8,2.5,8.2,3.9,9.6c2.6-3.6,3.1-6.7,3.9-9.6l0-0.2
																					C21.3,25.8,19.7,27,18,27z"/>
																			</g>
																		</g>
																		<g>
																			<g>
																				<g>
																					<g>
																						<path fill="#FFD93B" d="M24.2,15.4c0,4.8-3.4,6.7-5.1,7.3c-0.7,0.2-1.4,0.3-2.1,0c-1.5-0.5-4.2-1.9-5-6H12
																							v-1.6h-0.2c0.2-3.3,2.9-5.9,6.2-5.9C21.6,7.8,24.4,10.5,24.2,15.4z"/>
																					</g>
																				</g>
																			</g>
																		</g>
																	</g>
																</g>
															</g>
														</g>
													</g>
													<g>
														<g>
															<path fill="#6B503B" d="M12.4,17.6c-0.5-6.2,2.1-5.2,1.7-7.3c1.9,1.6,4,2.6,6.3,2.5c1.4,0,2.6,0.9,3,2.3
																c0.2,0.7,0.3,1.5,0.3,2.5c0,0,2-4.2,1-9.3c-1-5.1-9.9-5.5-10.6-1.7C14.1,6.7,9,5.6,12.4,17.6z"/>
														</g>
													</g>
												</g>
											</g>
										</g>
									</g>
								</g>
							</g>
						</g>
					</g>
				</g>
			</g>
			<g>
				<g>
					<path fill="#2AB4CD" d="M21.9,21.2c0,0-0.2,6.4-3.9,12.8c2.4-1.2,4.3-3,5.7-5.4l-0.6-1.8l2.4-0.1
						C25.5,26.7,25.2,22.4,21.9,21.2z"/>
				</g>
			</g>
			<g>
				<g>
					<path fill="#2AB4CD" d="M14,21.2c0,0,0.2,6.4,4,12.8c-2.8-1.6-4.9-3.3-5.7-5.4l0.6-1.8l-2.4-0.1C10.4,26.7,10.8,22.4,14,21.2z"
						/>
				</g>
			</g>
		</g>
		<g>
			<g>
				<g>
					<g>
						<path fill="#3E4347" d="M18,2c-3.7,0-6.9,0.8-8.9,2.1C8.7,4.4,8.5,5.2,8.7,5.9l1.5,4c0.1,0.4,0.3,0.8,0.6,0.9
							c1.9,0.9,4.4,1.4,7.2,1.4c2.7,0,5.3-0.5,7.2-1.4c0.3-0.1,0.5-0.5,0.6-0.9l1.5-4c0.2-0.7,0-1.5-0.4-1.8C24.9,2.8,21.7,2,18,2z"
							/>
					</g>
				</g>
				<g>
					<g>
						<ellipse fill="#3E4347" cx="18" cy="10.3" rx="7.7" ry="3.2"/>
					</g>
				</g>
				<g>
					<path fill="#E9EFF4" d="M18,8.6c4.2,0,6.9,0.9,7.7,1.6c0,0,0,0,0-0.1c0,0,0-0.1,0-0.1C26,9.2,25.5,8.3,24.8,8
						c-2.1-0.7-4.9-1-6.8-1c-1.9,0-4.8,0.2-6.8,1c-0.8,0.3-1.2,1.2-0.9,2c0,0,0,0,0,0c0,0,0,0.1,0,0.1C11.1,9.5,13.8,8.6,18,8.6z"/>
				</g>
			</g>
		</g>
		<g>
			<g>
				<path fill="#FFD93B" d="M19,4.7c-0.1,0.1-0.1,0.1-0.1,0.2l0.1,0.6c0,0.2-0.2,0.4-0.4,0.3l-0.6-0.3c-0.1,0-0.2,0-0.2,0l-0.6,0.3
					c-0.2,0.1-0.4-0.1-0.4-0.3l0.1-0.6c0-0.1,0-0.2-0.1-0.2l-0.5-0.4c-0.1-0.1-0.1-0.4,0.1-0.4l0.6-0.1c0.1,0,0.2-0.1,0.2-0.1
					L17.8,3c0.1-0.2,0.4-0.2,0.5,0l0.3,0.6c0,0.1,0.1,0.1,0.2,0.1l0.6,0.1c0.2,0,0.3,0.3,0.1,0.4L19,4.7z"/>
			</g>
		</g>
	</g>
</g>
</svg>
