<?xml version="1.0" encoding="utf-8"?>
<!-- Generator: Adobe Illustrator 18.0.0, SVG Export Plug-In . SVG Version: 6.00 Build 0)  -->
<!DOCTYPE svg PUBLIC "-//W3C//DTD SVG 1.1//EN" "http://www.w3.org/Graphics/SVG/1.1/DTD/svg11.dtd">
<svg version="1.1" id="Layer_1" xmlns="http://www.w3.org/2000/svg" xmlns:xlink="http://www.w3.org/1999/xlink" x="0px" y="0px"
	 viewBox="0 0 36 36" enable-background="new 0 0 36 36" xml:space="preserve">
<g>
	<g>
		<g>
			<g>
				<g>
					<path fill="#3E4347" d="M27.9,28.8H8.1C13,20.7,11.8,13,11.8,13c2.1-2.3,4.1-1.9,6.2,0c2.1-1.9,4.1-2.3,6.2,0
						C24.2,13,23,20.7,27.9,28.8z"/>
				</g>
				<g>
					<g>
						<path fill="#E24B4B" d="M30.1,34l-1-5.6c-0.3-0.9-1-1.6-1.9-1.8l-9.2-2l-9.2,2c-0.9,0.2-1.6,0.9-1.9,1.8l-1,5.6H30.1z"/>
					</g>
				</g>
				<g>
					<g>
						<path fill="#F4C534" d="M21.3,25.3v-4.8l-6.6-0.2v5c0.6,1.8,1.5,2.4,3.3,3.3l0,0C19.7,27.7,20.4,26.9,21.3,25.3z"/>
					</g>
				</g>
			</g>
			<g>
				<g>
					<g>
						<g>
							<path fill="#FFD93B" d="M14.7,17.5c0.1,1.2-0.6,2.1-1.6,2.2s-1.7-0.9-2-2c-0.4-1.5,0.3-2.4,1.6-2.2
								C13.6,15.6,14.5,16.3,14.7,17.5z"/>
						</g>
					</g>
					<g>
						<g>
							<path fill="#FFD93B" d="M21.3,17.5c-0.1,1.2,0.6,2.1,1.6,2.2c1,0,1.7-0.9,2-2c0.4-1.5-0.3-2.4-1.6-2.2
								C22.4,15.6,21.4,16.3,21.3,17.5z"/>
						</g>
					</g>
				</g>
				<g>
					<g>
						<path fill="#3E4347" d="M25,13.2c0,4.5-3.1,8.2-7,8.2s-7-3.6-7-8.2C11,6.8,14.1,5,18,5S25,6.8,25,13.2z"/>
					</g>
				</g>
				<g>
					<g>
						<path fill="#FFD93B" d="M23.6,14.7c-0.6,6.2-2.8,9-5.6,9c-2.8,0-5-2.8-5.6-9c-0.1-1.1,0.9-1.9,1.9-1.6c2.5,0.7,4.9,0.7,7.4,0
							C22.7,12.8,23.7,13.7,23.6,14.7z"/>
					</g>
				</g>
			</g>
			<g>
				<g>
					<g>
						<path fill="#E9EFF4" d="M21.3,24.4c-0.6,1.8-1.8,3.2-3.3,4.3l2.4,2.9c1-1.8,1.7-3.8,2.1-6L21.3,24.4z"/>
					</g>
				</g>
				<g>
					<g>
						<path fill="#E9EFF4" d="M14.7,24.4c0.6,1.8,1.8,3.2,3.3,4.3l-2.4,2.9c-1-1.8-1.7-3.8-2.1-6L14.7,24.4z"/>
					</g>
				</g>
			</g>
		</g>
	</g>
	<g>
		<g>
			<g>
				<path fill="#D03F3F" d="M22.1,5.7l-4.2,4.2l-4.2-4.2L17,2.3c0.5-0.5,1.2-0.5,1.7,0L22.1,5.7z"/>
			</g>
		</g>
		<g>
			<g>
				<g>
					<path fill="#E24B4B" d="M24.3,8.8c-1.4,0.1-6.4,2.3-6.4,2.3s-4.7-2.4-6.1-2.5c0,0,0.6-1.4,1.8-3.6c0.1-0.1,0.2-0.2,0.3-0.3
						c0.1,0,0.3,0,0.5,0.2c0.4,0.4,3.5,3.4,3.5,3.4s3.1-3,3.5-3.4c0.2-0.2,0.3-0.2,0.5-0.2c0.1,0,0.2,0.2,0.3,0.3
						C23.9,7.1,24.3,8.8,24.3,8.8z"/>
				</g>
			</g>
		</g>
	</g>
</g>
</svg>
