<?xml version="1.0" encoding="utf-8"?>
<!-- Generator: Adobe Illustrator 18.0.0, SVG Export Plug-In . SVG Version: 6.00 Build 0)  -->
<!DOCTYPE svg PUBLIC "-//W3C//DTD SVG 1.1//EN" "http://www.w3.org/Graphics/SVG/1.1/DTD/svg11.dtd">
<svg version="1.1" id="Layer_1" xmlns="http://www.w3.org/2000/svg" xmlns:xlink="http://www.w3.org/1999/xlink" x="0px" y="0px"
	 viewBox="0 0 36 36" enable-background="new 0 0 36 36" xml:space="preserve">
<g>
	<g>
		<g>
			<g>
				<circle fill="#BBC7D1" cx="18" cy="19.6" r="7.3"/>
			</g>
		</g>
		<g>
			<g>
				<g>
					<g>
						<g>
							<g>
								<g>
									<g>
										<g>
											<g>
												<g>
													<path fill="#DAE5EF" d="M31.3,34l-0.9-7.3c-0.2-1.2-1-2.2-2.2-2.6c-6.8-2.4-13.6-2.4-20.4,0c-1.2,0.4-2,1.4-2.2,2.6
														L4.7,34H31.3z"/>
												</g>
											</g>
											<g>
												<g>
													<path fill="#F4C534" d="M21.5,16.6v5.8c0,0.9-0.3,1.6-0.7,2.1c-1.4,1.9-4.3,1.9-5.7,0c-0.4-0.5-0.7-1.2-0.7-2.1v-5.8
														H21.5z"/>
												</g>
											</g>
											<g>
												<g>
													<path fill="#FFD93B" d="M24.2,13.6c0,4.6-2.6,7-4.4,8.1c-1.1,0.7-2.5,0.7-3.6,0c-1.8-1.1-4.4-3.5-4.4-8.1
														c0-3.8,2.8-6.9,6.2-6.9C21.4,6.8,24.2,9.8,24.2,13.6z"/>
												</g>
											</g>
											<g>
												<g>
													<g>
														<g>
															<path fill="#FFD93B" d="M13.1,13.9c-0.3-0.4-0.7-0.7-1.1-0.8c-1.1-0.3-1.6,0.7-1.1,2.3c0.4,1.2,0.8,2.1,1.5,2.1
																c0,0,0.4,0.1,0.9-0.1L13.1,13.9z"/>
														</g>
													</g>
												</g>
												<g>
													<g>
														<g>
															<path fill="#FFD93B" d="M22.9,13.9c0.3-0.4,0.7-0.7,1.1-0.8c1.1-0.3,1.6,0.7,1.1,2.3c-0.4,1.2-0.8,2.1-1.5,2.1
																c0,0-0.4,0.1-0.9-0.1L22.9,13.9z"/>
														</g>
														<g>
															<g>
																<g>
																	<path fill="#3E4347" d="M24.2,13.6c0,4.6-2.6,7-4.4,8.1c-1.1,0.7-2.5,0.7-3.6,0c-1.8-1.1-4.4-3.5-4.4-8.1
																		c0-0.1,0-0.1,0-0.2c0.1,2.3,1.9,3.6,3.6,4.4v-0.2c0-0.3,0.2-0.5,0.5-0.5h4.2c0.3,0,0.5,0.2,0.5,0.5v0.2
																		c1.7-0.8,3.5-2.1,3.6-4.4C24.2,13.5,24.2,13.5,24.2,13.6z"/>
																</g>
															</g>
														</g>
													</g>
												</g>
											</g>
										</g>
									</g>
								</g>
							</g>
						</g>
					</g>
				</g>
			</g>
		</g>
		<g>
			<g>
				<path fill="#E9EFF4" d="M27.6,26c-1.3,1-2.5,1.8-3.8,2.3l-1.2-17.5c0-1-9.3-1-9.3,0l-1.2,17.5c-1.3-0.6-2.5-1.4-3.8-2.3
					c-0.1-6.2,1.1-12.6,2.7-18.9c0.5-1.8,1.6-3.4,3.3-4.2c2.3-1.1,4.7-1.1,7,0c1.7,0.8,2.8,2.4,3.3,4.2C26.5,13.3,27.7,19.7,27.6,26
					z"/>
			</g>
		</g>
		<g>
			<g>
				<path fill="#3E4347" d="M25.9,6.2c-0.1,0.5-0.7,0.8-1.2,0.6c-4.4-1.1-9.1-1.1-13.5,0c-0.5,0.1-1-0.2-1.2-0.6
					c-0.1-0.5,0.2-1,0.7-1.1c4.7-1.2,9.7-1.2,14.4,0C25.7,5.2,26,5.7,25.9,6.2z"/>
			</g>
		</g>
		<g>
			<g>
				<path fill="#FFD93B" d="M19.7,18.2c-0.1,0.8-0.9,1.2-1.7,1.2c-0.9,0-1.6-0.4-1.7-1.2c0-0.1,0.1-0.2,0.2-0.2c1,0.1,2,0.1,3.1,0
					C19.7,17.9,19.8,18.1,19.7,18.2z"/>
			</g>
		</g>
	</g>
	<g>
		<g>
			<path fill="#5A5F63" d="M26.1,7.9c-0.2,0.5-0.7,0.8-1.2,0.7c-4.5-1.1-9.4-1.1-13.9,0c-0.5,0.1-1-0.2-1.2-0.7
				c-0.2-0.5,0.2-1,0.7-1.2c4.8-1.2,10-1.2,14.8,0C26,6.9,26.3,7.4,26.1,7.9z"/>
		</g>
	</g>
</g>
</svg>
