<?xml version="1.0" encoding="utf-8"?>
<!-- Generator: Adobe Illustrator 18.0.0, SVG Export Plug-In . SVG Version: 6.00 Build 0)  -->
<!DOCTYPE svg PUBLIC "-//W3C//DTD SVG 1.1//EN" "http://www.w3.org/Graphics/SVG/1.1/DTD/svg11.dtd">
<svg version="1.1" id="Layer_1" xmlns="http://www.w3.org/2000/svg" xmlns:xlink="http://www.w3.org/1999/xlink" x="0px" y="0px"
	 viewBox="0 0 36 36" enable-background="new 0 0 36 36" xml:space="preserve">
<g>
	<g>
		<g>
			<path fill="#6B503B" d="M14,16.9c-0.3,5.8,2.1,10.5,5.4,10.5s6.3-4.7,6.5-10.5c0.3-12-2.1-13.6-5.4-10.5
				C18,8.7,14.3,11.1,14,16.9z"/>
		</g>
	</g>
	<g>
		<g>
			<g>
				<path fill="#FFD93B" d="M23.1,14.8C23,16.1,23.5,17,24.2,17c0.7,0,1-1.1,1.5-2.3c0.6-1.5,0-2.4-1.2-2.2
					C23.8,12.7,23.1,13.6,23.1,14.8z"/>
			</g>
		</g>
		<g>
			<g>
				<g>
					<rect x="12.4" y="17.8" fill="#6B503B" width="3.8" height="5"/>
				</g>
			</g>
			<g>
				<g>
					<path fill="#F4C534" d="M11.7,26.8h12.6c-0.9-1.2-1.6-2.6-2.1-4.1c-0.5-1.4-0.7-3-0.7-4.5v-2.1h-6.9v2.1
						C14.5,21.3,13.6,24.3,11.7,26.8z"/>
				</g>
			</g>
			<g>
				<g>
					<g>
						<path fill="#DAE5EF" d="M32.5,34l-1.2-5.4c-0.4-1.8-1.7-3.3-3.4-3.9l-5.8-2.1c-0.5,1.8-2.2,3.2-4.1,3.2s-3.6-1.3-4.1-3.2
							l-5.8,2.1c-1.7,0.6-3,2.1-3.4,3.9L3.5,34H32.5z"/>
					</g>
				</g>
			</g>
			<g>
				<g>
					<g>
						<path fill="#E24B4B" d="M9.8,31.7c0,0.8-0.1,1.6-0.2,2.3h16.8c-0.1-0.7-0.2-1.5-0.2-2.3c-0.1-2.9,0.3-5.5,1-7.2l-1.7-0.6
							l-0.7,4.8c-0.2,1.2-1,2.1-2.2,2.4c-3.1,0.7-6.1,0.7-9.3,0c-1.1-0.3-2-1.2-2.2-2.4l-0.7-4.7l-1.7,0.6
							C9.5,26.2,9.8,28.8,9.8,31.7z"/>
					</g>
				</g>
			</g>
			<g>
				<g>
					<g>
						<g>
							<path fill="#E24B4B" d="M13.9,25.9c0,0.8-0.1,1.4,0.7,1.4c0.8,0,3.3-0.6,3.3-1.4c0-0.8-2.5-1.4-3.3-1.4
								C13.8,24.5,13.9,25.1,13.9,25.9z"/>
						</g>
						<g>
							<path fill="#E24B4B" d="M18.1,25.9c0,0.8,2.5,1.4,3.3,1.4c0.8,0,0.7-0.6,0.7-1.4c0-0.8,0.1-1.4-0.7-1.4
								C20.6,24.5,18.1,25.1,18.1,25.9z"/>
						</g>
					</g>
				</g>
				<g>
					<g>
						<path fill="#D03F3F" d="M17.4,25.3c0.1,0.4,0.1,0.8,0,1.2c0.3,0.3,0.8,0.3,1.1,0c-0.1-0.4-0.1-0.8,0-1.2
							C18.3,25,17.7,25,17.4,25.3z"/>
					</g>
				</g>
			</g>
			<g>
				<g>
					<path fill="#FFD93B" d="M11.5,14.2c0,4.2,2.5,6.6,4.4,7.8c1.3,0.8,2.9,0.8,4.2,0c1.9-1.2,4.4-3.6,4.4-7.8
						c0-4.9-2.9-8.9-6.5-8.9C14.4,5.3,11.5,9.3,11.5,14.2z"/>
				</g>
			</g>
			<g>
				<g>
					<path fill="#6B503B" d="M24.3,16.1c3.8-12.7-2.4-11.7-2.4-11.7C17.2-1.7,8,4.3,9.3,16.2c1.2,10.5,8,12.4,8,12.4
						c-3.5-3.8-3.7-5.2-3.7-5.2c0.7,0.7,1.7,1.7,2.8,2.1c-5.2-6-5.7-15.5-1.3-16S20.7,7,20.7,7s0.3,2.2,2.3,2.9L24.3,16.1z"/>
				</g>
			</g>
		</g>
	</g>
</g>
</svg>
