<?xml version="1.0" encoding="utf-8"?>
<!-- Generator: Adobe Illustrator 18.0.0, SVG Export Plug-In . SVG Version: 6.00 Build 0)  -->
<!DOCTYPE svg PUBLIC "-//W3C//DTD SVG 1.1//EN" "http://www.w3.org/Graphics/SVG/1.1/DTD/svg11.dtd">
<svg version="1.1" id="Layer_1" xmlns="http://www.w3.org/2000/svg" xmlns:xlink="http://www.w3.org/1999/xlink" x="0px" y="0px"
	 viewBox="0 0 36 36" enable-background="new 0 0 36 36" xml:space="preserve">
<g>
	<g>
		<g>
			<path fill="#DAE5EF" d="M33,34c-2.9-11.3-7.6-14.3-15-14.3S5.9,22.7,3,34H33z"/>
		</g>
	</g>
	<g>
		<g>
			<path fill="#3E4347" d="M26.6,31.4c0,0.9,0.1,1.7,0.2,2.6H9.1c0.2-0.8,0.2-1.7,0.2-2.6c0-2.9-0.9-5.4-2.2-7.1
				c1-1.3,2.1-2.3,3.4-3c0.3,1.9,7.5,10.1,7.5,10.1s7.2-8.2,7.5-10.1c1.2,0.7,2.4,1.7,3.4,3C27.5,26,26.6,28.6,26.6,31.4z"/>
		</g>
	</g>
	<g>
		<g>
			<path fill="#F4C534" d="M22.1,16.1v4.1c-1.2,2-2.1,2.9-4.1,4.1c-2-1.3-2.9-2.2-4.1-4.1v-4.1H22.1z"/>
		</g>
	</g>
	<g>
		<g>
			<g>
				<g>
					<g>
						<g>
							<g>
								<g>
									<g>
										<g>
											<g>
												<g>
													<g>
														<path fill="#FFD93B" d="M12.9,12c-0.3-0.5-0.7-0.8-1.1-0.9c-1.2-0.3-1.8,0.7-1.2,2.4c0.4,1.2,0.8,2.3,1.6,2.3
															c0,0,0.4,0.1,1-0.1L12.9,12z"/>
													</g>
												</g>
											</g>
										</g>
										<g>
											<g>
												<g>
													<g>
														<path fill="#FFD93B" d="M23.1,12c0.3-0.5,0.7-0.8,1.1-0.9c1.2-0.3,1.8,0.7,1.2,2.4c-0.4,1.2-0.8,2.3-1.6,2.3
															c0,0-0.4,0.1-1-0.1L23.1,12z"/>
													</g>
												</g>
											</g>
										</g>
									</g>
								</g>
							</g>
						</g>
					</g>
				</g>
			</g>
			<g>
				<g>
					<g>
						<g>
							<path fill="#3E4347" d="M23.7,4.8c0,0-1.6-4.1-8.2-2.4c-4.9,1.3-4.7,7.3-4.1,10.8c0.1,0.9,0.9,1.6,1.8,1.7l0.5,0.1
								c-0.1-1-1.3-1.7-1.3-2c0,0-0.2-4,2.6-3.3c2.1,0.6,4.2,0.1,6.2-0.8c1.2-0.5,2.5,0.3,2.5,1.6c0,0,0,0,0,0
								c-0.1,0.9-3.6,3.6-3.5,4.9l2.6-0.5c1-0.2,1.8-0.9,2.1-1.9C25.5,10.2,26.6,4.7,23.7,4.8z"/>
						</g>
					</g>
				</g>
			</g>
		</g>
		<g>
			<g>
				<path fill="#FFD93B" d="M14.7,7.7c-1-0.4-2.1,0.3-2.5,1.4c-0.3,0.9-0.5,2-0.5,3.1c0,4.5,2.5,7,4.3,8.2c1.2,0.8,2.7,0.8,3.9,0
					c1.8-1.2,4.3-3.7,4.3-8.2c0-1.2-0.2-2.3-0.5-3.2c-0.4-1.1-1.5-1.7-2.5-1.3C18.7,8.4,16.6,8.4,14.7,7.7z"/>
			</g>
		</g>
	</g>
	<g>
		<g>
			<g>
				<path fill="#E9EFF4" d="M22.1,19.4c0,0-1.7,3.3-4.1,4.9c0,0,2.1,0.9,3,2.7c1.4-2,2.4-4.1,3-6.2L22.1,19.4z"/>
			</g>
		</g>
		<g>
			<g>
				<path fill="#E9EFF4" d="M13.9,19.4c0,0,1.7,3.3,4.1,4.9c0,0-2.1,0.9-3,2.7c-1.4-2-2.4-4.1-3-6.2L13.9,19.4z"/>
			</g>
		</g>
	</g>
	<g>
		<g>
			<g>
				<g>
					<g>
						<path fill="#3E4347" d="M14.5,25.1c0,0.9-0.1,1.6,0.6,1.6c0.7,0,2.8-0.7,2.8-1.6c0-0.9-2.1-1.6-2.8-1.6
							C14.3,23.5,14.5,24.2,14.5,25.1z"/>
					</g>
					<g>
						<path fill="#3E4347" d="M18.2,25.1c0,0.9,2.1,1.6,2.8,1.6c0.7,0,0.6-0.7,0.6-1.6c0-0.9,0.1-1.6-0.6-1.6
							C20.3,23.5,18.2,24.2,18.2,25.1z"/>
					</g>
				</g>
			</g>
		</g>
		<g>
			<g>
				<path fill="#5A5F63" d="M18.8,25.9c0,0.3-1.7,0.3-1.7,0v-1.7c0-0.3,1.7-0.3,1.7,0V25.9z"/>
			</g>
		</g>
	</g>
</g>
</svg>
