<?xml version="1.0" encoding="utf-8"?>
<!-- Generator: Adobe Illustrator 18.0.0, SVG Export Plug-In . SVG Version: 6.00 Build 0)  -->
<!DOCTYPE svg PUBLIC "-//W3C//DTD SVG 1.1//EN" "http://www.w3.org/Graphics/SVG/1.1/DTD/svg11.dtd">
<svg version="1.1" id="Layer_1" xmlns="http://www.w3.org/2000/svg" xmlns:xlink="http://www.w3.org/1999/xlink" x="0px" y="0px"
	 viewBox="0 0 36 36" enable-background="new 0 0 36 36" xml:space="preserve">
<g>
	<g>
		<g>
			<g>
				<g>
					<g>
						<g>
							<g>
								<g>
									<g>
										<g>
											<path fill="#DAE5EF" d="M31.3,34l-0.9-7.3c-0.2-1.2-1-2.2-2.2-2.6c-6.8-2.4-13.6-2.4-20.4,0c-1.2,0.4-2,1.4-2.2,2.6
												L4.7,34H31.3z"/>
										</g>
									</g>
									<g>
										<g>
											<g>
												<polygon fill="#E24B4B" points="16,34 20,34 19,28.5 19.9,27.6 18,25.6 16.1,27.6 17,28.5 												"/>
											</g>
										</g>
									</g>
									<g>
										<g>
											<path fill="#F4C534" d="M14.5,22.4v-5.8h7v5.8c0,3.2-3.5,3.9-3.5,3.9S14.5,25.6,14.5,22.4z"/>
										</g>
									</g>
									<g>
										<g>
											<path fill="#FFD93B" d="M24.2,13.6c0,4.6-2.6,7-4.4,8.1c-1.1,0.7-2.5,0.7-3.6,0c-1.8-1.1-4.4-3.5-4.4-8.1
												c0-3.8,2.8-6.9,6.2-6.9C21.4,6.8,24.2,9.8,24.2,13.6z"/>
										</g>
									</g>
									<g>
										<g>
											<g>
												<g>
													<path fill="#FFD93B" d="M13.1,13.9c-0.3-0.4-0.7-0.7-1.1-0.8c-1.1-0.3-1.6,0.7-1.1,2.3c0.4,1.2,0.8,2.1,1.5,2.1
														c0,0,0.4,0.1,0.9-0.1L13.1,13.9z"/>
												</g>
											</g>
										</g>
										<g>
											<g>
												<g>
													<path fill="#FFD93B" d="M22.9,13.9c0.3-0.4,0.7-0.7,1.1-0.8c1.1-0.3,1.6,0.7,1.1,2.3c-0.4,1.2-0.8,2.1-1.5,2.1
														c0,0-0.4,0.1-0.9-0.1L22.9,13.9z"/>
												</g>
											</g>
										</g>
									</g>
								</g>
								<g>
									<g>
										<g>
											<path fill="#6B503B" d="M12.5,16.4L12.5,16.4c0,0,0.4-1.3,0.4-3.1s-0.2-3.3,1-3.5c1.2-0.3,4.8,1.2,7.9-0.4
												c1.3-0.6,1.6,1.9,1.3,3.4s0.3,1.9,0.3,3.9c0,0,1.3-4.1,1.1-7.3s-2.3-4.9-6.1-4.9c-3.9-0.1-6.9,2-6.9,5
												S12.5,16.4,12.5,16.4z"/>
										</g>
									</g>
								</g>
							</g>
						</g>
					</g>
				</g>
			</g>
		</g>
		<g>
			<g>
				<g>
					<g>
						<g>
							<path fill="#3E4347" d="M18,2c-3.7,0-6.9,0.8-8.9,2.1C8.6,4.4,8.5,5.2,8.7,5.9l1.5,4c0.1,0.4,0.3,0.8,0.6,0.9
								c1.9,0.9,4.4,1.4,7.2,1.4c2.8,0,5.3-0.5,7.2-1.4c0.3-0.1,0.5-0.5,0.6-0.9l1.5-4c0.2-0.7,0-1.5-0.4-1.8C24.9,2.8,21.7,2,18,2z
								"/>
						</g>
					</g>
					<g>
						<g>
							<ellipse fill="#3E4347" cx="18" cy="10.4" rx="7.8" ry="3.3"/>
						</g>
					</g>
					<g>
						<g>
							<path fill="#E9EFF4" d="M18,8.6c4.2,0,6.9,0.9,7.7,1.6c0,0,0,0,0-0.1c0,0,0-0.1,0-0.1c0.2-0.8-0.2-1.2-1-1.4
								c-2.1-0.7-4.9-1-6.8-1c-1.9,0-4.8,0.2-6.8,1c-0.8,0.3-1.2,0.7-0.9,1.5c0,0,0,0,0,0c0,0,0,0.1,0,0.1C11,9.5,13.8,8.6,18,8.6z"
								/>
						</g>
					</g>
				</g>
			</g>
		</g>
		<g>
			<g>
				<g>
					<path fill="#E9EFF4" d="M21.5,21.2c0,0-0.8,3.5-3.5,5.1c0,0,2.4,1.3,2.9,2.8c1.1-2.2,1.8-4.4,1.8-6.6L21.5,21.2z"/>
				</g>
			</g>
			<g>
				<g>
					<path fill="#E9EFF4" d="M14.5,21.2c0,0,0.8,3.5,3.5,5.1c0,0-2.4,1.3-2.9,2.8c-1.1-2.2-1.8-4.4-1.8-6.6L14.5,21.2z"/>
				</g>
			</g>
		</g>
		<g>
			<g>
				<g>
					<g>
						<path fill="#3E4347" d="M10.9,22.6c-2,0.5-5.6,1.6-5.6,3.5c0,1.9,1.4,1.3,2-0.3c0.4-0.9,2.4-1.7,4.1-2.3
							C12.5,23.1,12.2,22.4,10.9,22.6z"/>
					</g>
				</g>
				<g>
					<path fill="#FFD93B" d="M8.5,23.4c0.8,0.2,0.8,1,0.8,1l0,0c-0.2,0.1-0.3,0.2-0.5,0.2c-0.2-0.6-0.5-0.9-0.8-1
						C8.1,23.5,8.3,23.4,8.5,23.4z"/>
				</g>
				<g>
					<path fill="#FFD93B" d="M7.4,25.6c-0.3-0.6-0.7-0.9-1.2-1c0.2-0.1,0.3-0.3,0.5-0.4c0.8,0.1,1.1,0.6,1.2,0.9
						C7.6,25.3,7.5,25.5,7.4,25.6z"/>
				</g>
			</g>
			<g>
				<g>
					<g>
						<path fill="#3E4347" d="M25.1,22.6c2,0.5,5.6,1.6,5.6,3.5c0,1.9-1.4,1.3-2-0.3c-0.4-0.9-2.4-1.7-4.1-2.3
							C23.5,23.1,23.8,22.4,25.1,22.6z"/>
					</g>
				</g>
				<g>
					<path fill="#FFD93B" d="M27.5,23.4c-0.8,0.2-0.8,1-0.8,1l0,0c0.2,0.1,0.3,0.2,0.5,0.2c0.2-0.6,0.5-0.9,0.8-1
						C27.9,23.5,27.7,23.4,27.5,23.4z"/>
				</g>
				<g>
					<path fill="#FFD93B" d="M28.6,25.6c0.3-0.6,0.7-0.9,1.2-1c-0.2-0.1-0.3-0.3-0.5-0.4c-0.8,0.1-1.1,0.6-1.2,0.9
						C28.4,25.3,28.5,25.5,28.6,25.6z"/>
				</g>
			</g>
		</g>
	</g>
	<g>
		<g>
			<g>
				<g>
					<path fill="#FFD93B" d="M20.9,4.5c0,0-0.2,0.9-1.5,1.1c-0.4,0.1-0.7,0.1-0.9,0.1C18.4,5.9,18.2,6,18,6c-0.2,0-0.4-0.1-0.5-0.4
						c-0.2,0-0.5,0-1-0.1c-1.2-0.2-1.5-1.1-1.5-1.1c0.9,0.2,1.6,0.1,2,0v0c0-0.5,0.4-0.9,0.9-0.9c0.5,0,0.9,0.4,0.9,0.9
						C19.3,4.7,20,4.8,20.9,4.5z"/>
				</g>
			</g>
		</g>
	</g>
</g>
</svg>
