<?xml version="1.0" encoding="utf-8"?>
<!-- Generator: Adobe Illustrator 18.0.0, SVG Export Plug-In . SVG Version: 6.00 Build 0)  -->
<!DOCTYPE svg PUBLIC "-//W3C//DTD SVG 1.1//EN" "http://www.w3.org/Graphics/SVG/1.1/DTD/svg11.dtd">
<svg version="1.1" id="Layer_1" xmlns="http://www.w3.org/2000/svg" xmlns:xlink="http://www.w3.org/1999/xlink" x="0px" y="0px"
	 viewBox="0 0 36 36" enable-background="new 0 0 36 36" xml:space="preserve">
<g>
	<g>
		<g>
			<path fill="#E9EFF4" d="M30,34c-1.3-8.3-2.4-10.6-12-10.6S7.3,25.7,6,34H30z"/>
		</g>
	</g>
	<g>
		<g>
			<g>
				<g>
					<path fill="#FFD68D" d="M21.2,20.4v3.3c-0.1,0.1-0.1,0.2-0.2,0.3c-1.7,2.1-5.1,2-6.5-0.2l0,0v-3.3H21.2z"/>
				</g>
			</g>
		</g>
		<g>
			<g>
				<g>
					<g>
						<g>
							<g>
								<path fill="#FFDC97" d="M13.5,16.3c-0.2-0.4-0.6-0.7-0.9-0.8c-1-0.3-1.5,0.6-1,2c0.3,1,0.7,1.9,1.3,1.9c0,0,0.4,0.1,0.8-0.1
									L13.5,16.3z"/>
							</g>
						</g>
					</g>
				</g>
				<g>
					<g>
						<g>
							<g>
								<path fill="#FFDC97" d="M22.2,16.3c0.2-0.4,0.6-0.7,0.9-0.8c1-0.3,1.5,0.6,1,2c-0.3,1-0.7,1.9-1.3,1.9c0,0-0.4,0.1-0.8-0.1
									L22.2,16.3z"/>
							</g>
						</g>
					</g>
				</g>
			</g>
			<g>
				<g>
					<g>
						<g>
							<g>
								<path fill="#FFDC97" d="M23.1,16.7c0,4.1-2.9,5.7-4.4,6.3c-0.6,0.2-1.2,0.2-1.8,0c-1.3-0.4-3.6-1.6-4.3-5.1h0.1v-1.4h-0.2
									c0.1-2.8,2.5-5.1,5.3-5.1C20.9,10.1,23.3,12.4,23.1,16.7z"/>
							</g>
						</g>
					</g>
				</g>
				<g>
					<g>
						<g>
							<path fill="#3E4347" d="M23.4,16.6c-0.1,0.5-0.3,0.9-0.4,1.3h-0.4c-0.1-1.1-0.3-2.7-0.2-3.4l0,0c0.1-1.1-1-1.8-2-1.3
								c-2.2,1.2-4.2,1.2-6,0.6c-0.5-0.2-1,0.2-1,0.7c0,0.2,0,0.5,0,0.9c0,0.9-0.3,0.5-0.3,1.2c0,0.4,0,0.9,0,1.3h-0.5
								c0-0.3,0-0.7,0-0.9c0-0.6-2.3-7.7,3.2-9.2s6.6,3.1,6.6,3.1C24.8,10.1,23.8,15.2,23.4,16.6z"/>
						</g>
					</g>
				</g>
				<g>
					<g>
						<path fill="#E9EFF4" d="M26.6,7.4c0,4.9-3.8,5.3-8.6,5.3c-4.7,0-8.6-0.5-8.6-5.4C9.4,4.3,13.3,2,18,2S26.6,4.4,26.6,7.4z"/>
					</g>
				</g>
				<g>
					<g>
						<path fill="#DEE4E9" d="M26.6,7.4c0-0.1,0-0.2,0-0.3c0,1.3-0.6,2.4-1.5,3.4c-1.4,1.4-3.2,0.5-2.6-0.1C23.6,8.8,23,7,22.9,6.8
							c0.7,2.9-2.7,4.3-3.3,3.8c-0.2-0.2-0.4-0.4-0.2-0.7c0.6-0.6,1.2-1.5,1.7-2.8c-0.1,0.2-1,2.1-3.1,3.2c0,0-1.4,0.7-1.7-0.6
							c-0.3-1.2-0.6-3.5-0.6-3.5s-0.3,2.2-0.2,4c0.2,1.9-4,1.2-3.7-1.2c0,0-0.8,1.6,0.3,2.5c0,0-2.1-0.7-2.6-3.7
							c0.1,2.1,1,3.3,2.4,4c0.1,0,0.2,0.1,0.3,0.1c0,0,0.1,0,0.1,0.1c1.3,0.6,3.1,0.7,5,0.8c1.3-0.1,2.7-0.4,4.1-0.7
							c0.6,0,1.3,0.2,1.6,0.3C25.1,11.6,26.6,10.3,26.6,7.4z"/>
					</g>
				</g>
			</g>
		</g>
		<g>
			<g>
				<path fill="#E9EFF4" d="M12.1,11.8c3.9-1.1,7.9-1.1,11.8,0c0.1,0.8,0.1,1.6,0,2.4c-3.9-1.1-8-1.1-11.8,0
					C12,13.4,12,12.6,12.1,11.8z"/>
			</g>
		</g>
	</g>
</g>
</svg>
