<?xml version="1.0" encoding="utf-8"?>
<!-- Generator: Adobe Illustrator 18.0.0, SVG Export Plug-In . SVG Version: 6.00 Build 0)  -->
<!DOCTYPE svg PUBLIC "-//W3C//DTD SVG 1.1//EN" "http://www.w3.org/Graphics/SVG/1.1/DTD/svg11.dtd">
<svg version="1.1" id="Layer_1" xmlns="http://www.w3.org/2000/svg" xmlns:xlink="http://www.w3.org/1999/xlink" x="0px" y="0px"
	 viewBox="0 0 36 36" enable-background="new 0 0 36 36" xml:space="preserve">
<g>
	<g>
		<g>
			<g>
				<path fill="#E24B4B" d="M31.4,34l-1.4-7.9c-0.3-1.4-1.2-2.5-2.5-3.1L18,18.9l-9.5,4.2c-1.3,0.6-2.2,1.7-2.5,3L4.6,34H31.4z"/>
			</g>
		</g>
		<g>
			<g>
				<path fill="#3E4347" d="M31.4,34h-2.1c-0.2-1.1-1.7-6.4-2.6-8.7c-0.5-1.1-1.3-2-2.4-2.4l-3.5-1.7l0-1.1l6.8,3
					c1.3,0.6,2.2,1.7,2.5,3L31.4,34z"/>
			</g>
		</g>
		<g>
			<g>
				<path fill="#3E4347" d="M4.6,34h2.1c0.2-1.1,1.7-6.4,2.6-8.7c0.5-1.1,1.3-2,2.4-2.4l3.5-1.7l0-1.1l-6.8,3
					c-1.3,0.6-2.2,1.7-2.5,3L4.6,34z"/>
			</g>
		</g>
		<g>
			<path fill="#FFD93B" d="M14.8,17.1v3.1c0,1.8,3.5,4.1,3.5,4.1s2.9-2.3,2.9-4.1v-3.1H14.8z"/>
		</g>
	</g>
	<g>
		<g>
			<g>
				<g>
					<g>
						<g>
							<g>
								<g>
									<g>
										<path fill="#FFD93B" d="M24,11.6c0,4.6-3.2,6.4-4.9,7c-0.3,0.1-0.7,0.2-1,0.2c-0.4,0-0.7-0.1-1-0.2
											c-1.7-0.6-4.9-2.4-4.9-7c-0.2-4.8,2.5-7.3,6-5.9h0c0,0,0,0,0,0C21.5,4.3,24.2,6.8,24,11.6z"/>
									</g>
								</g>
							</g>
						</g>
					</g>
				</g>
			</g>
		</g>
	</g>
	<g>
		<g>
			<g>
				<g>
					<path fill="#E24B4B" d="M25.3,9.5c0,3.5-0.6,6.4-1.9,8.6c-0.2,0.3-0.5,0.6-0.9,0.6c-3,0.5-6,0.5-9.1,0
						c-0.4-0.1-0.7-0.3-0.9-0.6c-1.3-2.2-1.9-5.1-1.9-8.6c0-2.1,0.9-4.1,2.4-5.6C15.4,1.9,18,2,18,2s2.6-0.1,4.9,1.9
						C24.4,5.3,25.3,7.3,25.3,9.5z"/>
				</g>
			</g>
			<g>
				<g>
					<g>
						<path fill="#D03F3F" d="M23.4,4.2l-1.2,5.4c-1.9,2.7-3.6,5.1-2.8,0l1.1-7.1c0-0.2,0.2-0.3,0.4-0.2c0.7,0.3,1.4,0.7,2.2,1.4
							c0.1,0.1,0.2,0.1,0.2,0.2C23.4,3.9,23.4,4.1,23.4,4.2z"/>
					</g>
				</g>
				<g>
					<path fill="#D03F3F" d="M15.5,2.5l1.1,7.1c0.8,6.1-1,3.3-2.8,0l-1.2-5.4c0-0.1,0-0.3,0.1-0.4c0.1-0.1,0.1-0.1,0.2-0.2
						c0.7-0.6,1.5-1.1,2.2-1.4C15.3,2.2,15.4,2.3,15.5,2.5z"/>
				</g>
			</g>
			<g>
				<g>
					<path fill="#E24B4B" d="M11.7,14.8c-0.5-0.3-0.8-0.7-0.9-1.3c0-0.1,0-0.1,0-0.2c-0.3-1.8-0.4-4.4,0.2-5.9c0,0,0,0.1,0,0.2
						c0,0.7,0.5,1.2,1.1,1.4c3.8,1.2,7.8,1.2,11.9,0c0.7-0.2,1.1-0.8,1.1-1.5c0-0.1,0-0.2,0-0.2c0.6,1.5,0.5,4.1,0.2,5.9
						c0,0,0,0,0,0c-0.1,0.6-0.4,1.1-1,1.4C20.1,17.2,15.9,17.2,11.7,14.8z"/>
				</g>
			</g>
			<g>
				<g>
					<path fill="#3E4347" d="M23.9,9.2c-4,1.2-7.9,1.1-11.7,0C12,9.9,12,10.6,12,11.5c0,1.6,0.3,2.9,0.8,3.9c3.5,1.6,6.9,1.6,10.4,0
						c0.5-1,0.8-2.3,0.8-3.9C24,10.6,24,9.9,23.9,9.2z"/>
				</g>
			</g>
		</g>
		<g>
			<g>
				<path fill="#5A5F63" d="M18.4,10l-3.8,6.1c0.5,0.2,1,0.3,1.5,0.4l4.1-6.5C19.6,10,19,10,18.4,10z"/>
			</g>
		</g>
	</g>
	<g>
		<g>
			<path fill="#FFD93B" d="M23.3,9.3c-3.6,0.9-7.1,0.9-10.6,0c-0.1,0.7-0.2,1.4-0.1,2.3c0,1.7,0.4,3.1,1,4.1c2.9,1.2,5.9,1.2,8.8,0
				c0.6-1,1-2.4,1-4.1C23.4,10.8,23.4,10,23.3,9.3z"/>
		</g>
	</g>
	<g>
		<g>
			<path fill="#FFD93B" d="M23.3,9.3c-3.6,0.9-7.1,0.9-10.6,0c-0.1,0.7-0.2,1.4-0.1,2.3c0,1.7,0.4,3.1,1,4.1c2.9,1.2,5.9,1.2,8.8,0
				c0.6-1,1-2.4,1-4.1C23.4,10.8,23.4,10,23.3,9.3z"/>
		</g>
	</g>
	<g>
		<g>
			<g>
				<path fill="#3E4347" d="M17.3,32.5h-1v-3.7c-0.4,0.3-0.8,0.6-1.3,0.7v-0.9c0.3-0.1,0.5-0.2,0.8-0.5c0.3-0.2,0.5-0.5,0.6-0.8h0.8
					V32.5z"/>
			</g>
			<g>
				<path fill="#3E4347" d="M20.3,32.5h-1v-3.7c-0.4,0.3-0.8,0.6-1.3,0.7v-0.9c0.3-0.1,0.5-0.2,0.8-0.5c0.3-0.2,0.5-0.5,0.6-0.8h0.8
					V32.5z"/>
			</g>
		</g>
	</g>
</g>
</svg>
