<?xml version="1.0" encoding="utf-8"?>
<!-- Generator: Adobe Illustrator 18.0.0, SVG Export Plug-In . SVG Version: 6.00 Build 0)  -->
<!DOCTYPE svg PUBLIC "-//W3C//DTD SVG 1.1//EN" "http://www.w3.org/Graphics/SVG/1.1/DTD/svg11.dtd">
<svg version="1.1" id="Layer_1" xmlns="http://www.w3.org/2000/svg" xmlns:xlink="http://www.w3.org/1999/xlink" x="0px" y="0px"
	 viewBox="0 0 36 36" enable-background="new 0 0 36 36" xml:space="preserve">
<g>
	<g>
		<g>
			<g>
				<g>
					<g>
						<g>
							<g>
								<g>
									<g>
										<g>
											<g>
												<g>
													<g>
														<g>
															<path fill="#FFDC97" d="M20.7,17.1h-5.5v0.9c0,2.2-0.7,4.4-2,6.2v3.5h9.4v-3.5c-1.3-1.8-2-4-2-6.2V17.1z"/>
														</g>
													</g>
												</g>
												<g>
													<g>
														<g>
															<path fill="#E24B4B" d="M29.8,27.6v3.6c0,1.5-1.3,2.8-2.8,2.8H9c-1.5,0-2.8-1.3-2.8-2.8v-3.6c0-1,0.6-2,1.5-2.5
																l6.8-3.5c0,0,0.8,2.9,3.4,2.9c2.5,0,3.4-2.9,3.4-2.9l6.8,3.5C29.2,25.6,29.8,26.6,29.8,27.6z"/>
														</g>
													</g>
												</g>
												<g>
													<g>
														<g>
															<path fill="#D03F3F" d="M28.2,25.1l-6.8-3.5c0,0-0.9,2.8-3.4,2.9V34H27c1.5,0,2.8-1.3,2.8-2.8v-3.6
																C29.8,26.6,29.2,25.6,28.2,25.1z"/>
														</g>
													</g>
												</g>
												<g>
													<g>
														<g>
															<rect x="17.6" y="24.5" fill="#FFFFFF" width="1" height="9.5"/>
														</g>
													</g>
												</g>
												<g>
													<g>
														<g>
															<g>
																<path fill="#3E4347" d="M21.2,21.8c0,0,1.4,0.7,1.6,1.3s3.2,2.5,4.1,2.5c0.9,0.1,1.6-0.6,0.9-1.2
																	C27.1,23.9,20.7,20.8,21.2,21.8z"/>
															</g>
														</g>
													</g>
													<g>
														<g>
															<g>
																<path fill="#3E4347" d="M14.7,21.8c0,0-1.4,0.7-1.6,1.3s-3.2,2.5-4.1,2.5c-0.9,0.1-1.6-0.6-0.9-1.2
																	C8.8,23.9,15.2,20.8,14.7,21.8z"/>
															</g>
														</g>
													</g>
												</g>
												<g>
													<g>
														<g>
															<g>
																<path fill="#FFFFFF" d="M21.8,23l-1.5,2.9c-0.1,0.2-0.4,0.3-0.6,0.1L18,24.5l3.1-3.7l0.7,2
																	C21.9,22.8,21.9,22.9,21.8,23z"/>
															</g>
														</g>
														<g>
															<g>
																<path fill="#FFFFFF" d="M14.9,20.7l3.1,3.7L16.3,26c-0.2,0.2-0.5,0.1-0.6-0.1L14.2,23c0-0.1-0.1-0.2,0-0.3
																	L14.9,20.7z"/>
															</g>
														</g>
													</g>
												</g>
												<g>
													<g>
														<g>
															<g>
																<path fill="#FFE9AB" d="M24,14c0,4.9-3.2,6.7-5,7.3c-0.7,0.2-1.4,0.2-2.1,0c-1.7-0.6-5-2.4-5-7.3
																	c0-4.2,2.7-7.6,6-7.6C21.3,6.4,24,9.8,24,14z"/>
															</g>
														</g>
													</g>
													<g>
														<g>
															<g>
																<g>
																	
																		<ellipse transform="matrix(0.9947 0.1024 -0.1024 0.9947 1.6375 -2.3525)" fill="#FFE9AB" cx="23.7" cy="14.8" rx="1.2" ry="1.8"/>
																</g>
															</g>
														</g>
														<g>
															<g>
																<g>
																	
																		<ellipse transform="matrix(-0.9947 0.1024 -0.1024 -0.9947 25.8454 28.2257)" fill="#FFE9AB" cx="12.2" cy="14.8" rx="1.2" ry="1.8"/>
																</g>
															</g>
														</g>
													</g>
													<g>
														<g>
															<g>
																<path fill="#A5856D" d="M11.5,9c-0.1,2.4,0.7,5.4,1.3,6l0.9-4.1c1.7,0,2.1-1.5,2.1-1.5c2.8,2.7,6.6,0.9,6.6,0.9
																	l0.9,4.7c1.3-2.3,1.5-4.4,1-6C19.9,9.7,15.7,9.8,11.5,9z"/>
															</g>
														</g>
													</g>
												</g>
											</g>
										</g>
									</g>
								</g>
							</g>
						</g>
					</g>
					<g>
						<g>
							<g>
								<g>
									<g>
										<path fill="#5A5F63" d="M17.7,12.4c-4.5,0-8.9-2.3-8.7-3.4c0.3-1.2,4.4-0.4,8.7-0.2c4.2-0.2,8.3-1,8.7,0.2
											C26.6,10.2,22.2,12.4,17.7,12.4z"/>
									</g>
								</g>
							</g>
							<g>
								<g>
									<g>
										<g>
											<path fill="#3E4347" d="M23.7,9.4c0.3-0.1,0.4-0.4,0.3-0.7l-2.4-5.9c-0.3-0.6-0.9-0.9-1.4-0.8l-1.6,0.5
												c-0.4,0.1-0.8,0.1-1.2,0L15.8,2c-0.5-0.2-1.2,0.2-1.4,0.8l-2.4,5.9c-0.1,0.3,0,0.6,0.3,0.7C16.2,11.3,20.1,11.2,23.7,9.4
												z"/>
										</g>
									</g>
								</g>
							</g>
						</g>
						<g>
							<g>
								<g>
									<path fill="#E24B4B" d="M23.9,8.7c-0.1-0.2-0.1-0.2-0.2-0.6c-3.5,2.1-7.7,1.5-11.5,0l-0.2,0.6c-0.1,0.3,0,0.6,0.2,0.7
										c1.8,0.9,3.8,1.4,5.8,1.4c1.9,0,3.7-0.4,5.7-1.4C24,9.3,24.1,9,23.9,8.7z"/>
								</g>
							</g>
						</g>
					</g>
				</g>
			</g>
			<g>
				<g>
					<g>
						<path fill="#FFD93B" d="M19.2,6.6c-0.1,0.5-0.9,1.1-1.2,1.2c-0.1,0-0.1,0-0.2,0c-0.3-0.2-1.1-0.7-1.2-1.2
							c-0.1-0.4-0.1-1.1,0-1.4c0-0.1,0.1-0.2,0.2-0.2c0.4-0.1,0.8-0.2,1-0.4c0.1-0.1,0.3-0.1,0.5,0c0.2,0.1,0.5,0.3,1,0.4
							c0.1,0,0.2,0.1,0.2,0.2C19.3,5.5,19.3,6.2,19.2,6.6z"/>
					</g>
				</g>
			</g>
		</g>
		<g>
			<g>
				<g>
					<g>
						<g>
							<path fill="#3E4347" d="M23.6,12.5v0.7c0,0.1-0.1,0.1-0.1,0.1l-0.4,0c0,0,0.3,1.1-0.6,2.4c-0.5,0.7-2.3,0.4-3.3,0.2
								c-0.4-0.1-0.7-0.4-0.8-0.8L18.2,14c0-0.1-0.1-0.2-0.2-0.2c0,0-0.1,0-0.1,0c-0.1,0-0.2,0.1-0.2,0.2l-0.2,1.1
								c-0.1,0.4-0.4,0.7-0.8,0.8c-1,0.2-2.8,0.5-3.3-0.2c-0.9-1.3-0.6-2.4-0.6-2.4l-0.4,0c-0.1,0-0.1-0.1-0.1-0.1v-0.7
								c0-0.1,0-0.1,0.1-0.1c1-0.2,3.5-0.4,4.9,0.6c0.2,0.1,0.4,0.2,0.7,0.2h0c0.2,0,0.5-0.1,0.7-0.2c1.4-1,3.8-0.8,4.9-0.6
								C23.6,12.4,23.6,12.4,23.6,12.5z"/>
						</g>
					</g>
				</g>
			</g>
		</g>
	</g>
	<g>
		<g>
			<g>
				<path fill="#3E4347" d="M17,31c0,0.3-0.3,0.6-0.6,0.6c-0.3,0-0.6-0.3-0.6-0.6c0-0.3,0.3-0.6,0.6-0.6C16.7,30.4,17,30.6,17,31z"
					/>
			</g>
		</g>
		<g>
			<g>
				<path fill="#3E4347" d="M15.8,28.3c0-0.3,0.3-0.6,0.6-0.6c0.3,0,0.6,0.3,0.6,0.6c0,0.3-0.3,0.6-0.6,0.6
					C16.1,28.9,15.8,28.7,15.8,28.3z"/>
			</g>
		</g>
	</g>
</g>
</svg>
