<?xml version="1.0" encoding="utf-8"?>
<!-- Generator: Adobe Illustrator 18.0.0, SVG Export Plug-In . SVG Version: 6.00 Build 0)  -->
<!DOCTYPE svg PUBLIC "-//W3C//DTD SVG 1.1//EN" "http://www.w3.org/Graphics/SVG/1.1/DTD/svg11.dtd">
<svg version="1.1" id="Layer_1" xmlns="http://www.w3.org/2000/svg" xmlns:xlink="http://www.w3.org/1999/xlink" x="0px" y="0px"
	 viewBox="0 0 36 36" enable-background="new 0 0 36 36" xml:space="preserve">
<g>
	<g>
		<g>
			<path fill="#3E4347" d="M26.1,24c-5.4,2.1-10.9,2.1-16.3,0c1.1-1.1,1.5-2.5,1.5-3.8c0.1-1.7,0.7-9.6,0.7-9.6l5.9-0.2l5.9,0.2
				c0,0,0.6,7.9,0.7,9.6C24.7,21.5,25.1,22.9,26.1,24z"/>
		</g>
	</g>
	<g>
		<g>
			<g>
				<g>
					<g>
						<g>
							<path fill="#FFDC97" d="M13.3,13.9c-0.3-0.4-0.6-0.7-1-0.8c-1.1-0.3-1.6,0.7-1.1,2.2c0.4,1.1,0.7,2,1.4,2
								c0,0,0.4,0.1,0.9-0.1L13.3,13.9z"/>
						</g>
					</g>
				</g>
				<g>
					<g>
						<g>
							<path fill="#FFDC97" d="M22.7,13.9c0.3-0.4,0.6-0.7,1-0.8c1.1-0.3,1.6,0.7,1.1,2.2c-0.4,1.1-0.7,2-1.4,2c0,0-0.4,0.1-0.9-0.1
								L22.7,13.9z"/>
						</g>
					</g>
				</g>
			</g>
			<g>
				<g>
					<g>
						<g>
							<path fill="#DAE5EF" d="M32.5,34L30,25.9c-0.4-1.2-1.4-2.2-2.6-2.5L18,20.9l-9.4,2.5c-1.2,0.3-2.2,1.3-2.6,2.5L3.5,34H32.5z"
								/>
						</g>
					</g>
					<g>
						<g>
							<polygon fill="#FFD68D" points="18,24.1 14.4,21.9 14.4,18.4 21.6,18.4 21.6,21.9 							"/>
						</g>
					</g>
					<g>
						<g>
							<path fill="#E9EFF4" d="M21.6,20.4c0,0-1.1,2.2-3.6,3.8c0,0,2,1.4,2.6,2.3l2.2-4.3L21.6,20.4z"/>
						</g>
					</g>
					<g>
						<g>
							<path fill="#E9EFF4" d="M14.4,20.4c0,0,1.1,2.2,3.6,3.8c0,0-2,1.4-2.6,2.3l-2.2-4.3L14.4,20.4z"/>
						</g>
					</g>
					<g>
						<path fill="#E24B4B" d="M9.8,28.2c-0.1,1.5-0.6,2.9-1.2,4.2L7.8,34h20.4l-0.8-1.6c-0.6-1.3-1.1-2.8-1.2-4.2
							c-0.1-1.6,0.1-3.4,1.3-4.8c0,0-0.1,0-0.1,0L23,22.2c0,0,0.3,3-5,8.9c-5.3-5.8-5-8.9-5-8.9l-4.4,1.2c0,0-0.1,0-0.1,0
							C9.7,24.8,9.9,26.6,9.8,28.2z"/>
					</g>
				</g>
				<g>
					<g>
						<g>
							<g>
								<path fill="#FFDC97" d="M23.7,14.3c0,4.5-3.1,6.2-4.8,6.8c-0.6,0.2-1.3,0.2-1.9,0c-1.4-0.4-3.9-1.7-4.7-5.5h0.1V14h-0.2
									c0.1-3,2.6-5.5,5.7-5.5C21.4,7.3,24,9.7,23.7,14.3z"/>
							</g>
						</g>
					</g>
					<g>
						<g>
							<path fill="#3E4347" d="M24,14.3c-0.2,0.5-0.3,1-0.4,1.4h-0.4c-0.1-1.2-0.3-2.9-0.3-3.7c0.1-1.2-0.9-2.1-0.9-2.1l-8.5,1
								c-0.4,0.4-0.4,1-0.4,2c0,1-0.3,0.5-0.4,1.3c0,0.4,0,1,0,1.5h-0.5c0-0.3-0.1-0.7-0.1-1c0-0.7-2.5-7.5,3.5-9.1
								c6-1.6,7.1,2.5,7.1,2.5C25.5,7.9,24.5,12.8,24,14.3z"/>
						</g>
					</g>
					<g>
						<g>
							<path fill="#F4C534" d="M24.5,11.1c0.2-0.6,0.3-1.2,0.3-1.9c0-3.8-3-6.8-6.8-6.8s-6.8,3-6.8,6.8c0,0.7,0.1,1.3,0.3,1.9H24.5z
								"/>
						</g>
					</g>
					<g>
						<path fill="#E9B02C" d="M18,2.4c-0.8,0-1.6,0.1-2.3,0.4l0.4,7.1h3.8l0.4-7.1C19.5,2.6,18.8,2.4,18,2.4z"/>
					</g>
					<g>
						<g>
							<path fill="#F4C534" d="M19.9,2.7v7.2h-3.8V2.7C16.1,1.8,19.9,1.8,19.9,2.7z"/>
						</g>
					</g>
					<g>
						<g>
							<path fill="#FFD93B" d="M25.5,11.3c-0.1,0.5-0.6,0.8-1.2,0.7c-4.2-1-8.5-1-12.7,0c-0.5,0.1-1-0.2-1.2-0.7
								c-0.1-0.5,0.2-1,0.7-1.1c4.5-1.1,9.1-1.1,13.5,0C25.3,10.3,25.7,10.8,25.5,11.3z"/>
						</g>
					</g>
				</g>
			</g>
		</g>
		<g>
			<g>
				<g>
					<g>
						<path fill="#E9B02C" d="M11.7,6.7c-0.6-0.3-0.1-1.3,0.5-1c0,0,1.4,0.7,2.6,2.4C14.8,8.1,13.3,7,11.7,6.7z"/>
					</g>
				</g>
				<g>
					<g>
						<path fill="#E9B02C" d="M12.7,5c-0.7-0.4,0.1-1.4,0.8-0.9c0,0,1.1,0.5,2.2,2.3C15.8,6.4,14.3,5.3,12.7,5z"/>
					</g>
				</g>
			</g>
			<g>
				<g>
					<g>
						<path fill="#E9B02C" d="M24.3,6.7c0.6-0.3,0.1-1.3-0.5-1c0,0-1.4,0.7-2.6,2.4C21.2,8.1,22.7,7,24.3,6.7z"/>
					</g>
				</g>
				<g>
					<g>
						<path fill="#E9B02C" d="M23.3,5c0.7-0.4-0.1-1.4-0.8-0.9c0,0-1.1,0.5-2.2,2.3C20.2,6.4,21.7,5.3,23.3,5z"/>
					</g>
				</g>
			</g>
		</g>
	</g>
</g>
</svg>
