<?xml version="1.0" encoding="utf-8"?>
<!-- Generator: Adobe Illustrator 18.0.0, SVG Export Plug-In . SVG Version: 6.00 Build 0)  -->
<!DOCTYPE svg PUBLIC "-//W3C//DTD SVG 1.1//EN" "http://www.w3.org/Graphics/SVG/1.1/DTD/svg11.dtd">
<svg version="1.1" id="Layer_1" xmlns="http://www.w3.org/2000/svg" xmlns:xlink="http://www.w3.org/1999/xlink" x="0px" y="0px"
	 viewBox="0 0 36 36" enable-background="new 0 0 36 36" xml:space="preserve">
<g>
	<g>
		<g>
			<g>
				<g>
					<path fill="#3E4347" d="M28.6,33c-7,1.3-14.1,1.3-21.1,0c-0.9-0.2-1.5-1-1.4-1.9l0.6-4.9c0.1-1.2,0.9-2.2,2-2.7
						c6.2-2.6,12.5-2.6,18.7,0c1.1,0.5,1.9,1.5,2,2.7l0.5,4.9C30.1,32,29.4,32.9,28.6,33z"/>
				</g>
			</g>
			<g>
				<g>
					<path fill="#F4C534" d="M15,21.8V18h6v3.7c0,2-3,6.2-3,6.2S15,23.8,15,21.8z"/>
				</g>
			</g>
			<g>
				<g>
					<path fill="#FFD93B" d="M23.4,14c0,4-2.3,6.1-3.9,7.1c-1,0.6-2.2,0.6-3.1,0c-1.6-1-3.9-3-3.9-7.1c0-3.3,2.4-6,5.4-6
						C21,8,23.4,10.7,23.4,14z"/>
				</g>
			</g>
			<g>
				<g>
					<g>
						<g>
							<path fill="#FFD93B" d="M13.7,14.3c-0.2-0.4-0.6-0.6-0.9-0.7c-1-0.3-1.4,0.6-1,2c0.3,1,0.7,1.9,1.3,1.9c0,0,0.4,0.1,0.8-0.1
								L13.7,14.3z"/>
						</g>
					</g>
				</g>
				<g>
					<g>
						<g>
							<path fill="#FFD93B" d="M22.3,14.3c0.2-0.4,0.6-0.6,0.9-0.7c1-0.3,1.4,0.6,1,2c-0.3,1-0.7,1.9-1.3,1.9c0,0-0.4,0.1-0.8-0.1
								L22.3,14.3z"/>
						</g>
					</g>
				</g>
			</g>
		</g>
	</g>
	<g>
		<g>
			<path fill="#3E4347" d="M13.2,16.1c0,0,0.1-0.9,0.2-1.7c0.1-0.8-0.1-2.7,0.8-3.7c0.8-1,1.3-0.5,2.6-0.2c1.2,0.3,3.3,1,4,0.1
				c0.7-0.9,1.7,0.1,1.7,1.6c0.2,0.9,0.1,3.3,0,4.5c0,0,1.8-2.8,0.9-6l0.3,0.8c0,0,0.1-0.8-0.6-1.9c0,0,0.9-1.5,0.4-3.3
				c0,0,0,0.8-0.1,1.2c0,0-0.4-1.6-0.4-2.5c0-0.9,0.3-1.7,0.3-1.7s-0.5,0.4-0.7,0.9c0,0-0.1-1.3,0-1.7c0,0-1.1,1.3-1.2,2.2
				C21.1,5.6,21.2,6,21.2,6s-0.3-1.5-0.1-2.5c0,0-0.3,0.7-0.3,1.3c0,0-0.4-1.2,0.1-1.9c0,0-1,0.6-1.1,1.3c0,0-0.1-1,0.3-1.8
				c0,0-0.4,0.6-0.5,1.3c0,0,0-1.1,0.4-1.7c0,0-1,0.8-1.2,2.2c0,0,0.1-0.9,0.2-1.2c0,0-0.4,0.8-0.4,1.6c0,0-0.2-1-0.6-1.9
				c0,0,0.3,1.4,0,2.4c0,0-0.9-1.2-0.4-3c0,0-0.5,0.5-0.5,2.1c0,0-0.5-0.7-0.8-0.9c0,0,0.5,0.8,0.4,1.5c0,0-1-1.4-0.9-2
				c0,0-0.1,0.9,0.1,1.7c0,0-0.3-0.4-0.8-0.9c0,0,0.6,0.9,0.7,1.8c0,0-1-1.5-1.7-2.2c0,0,0.7,0.9,0.7,1.5c0,0-0.9-0.5-1.1-1.2
				c0,0,0.2,0.9,0.4,1.5c0.2,0.6-0.1,1.4-0.1,1.4s0-0.8-0.2-1.6c-0.3-0.8-0.5-1.1-0.5-1.1s0.3,0.8,0.4,1.6c0,0-0.4-0.6-0.5-1.2
				c0,0,0,1.2,0.1,1.7C13.2,6.2,13,7.5,13,7.5s0-1.4-0.4-2.4c0,0,0.3,1.3,0.3,2.1c0,0.7-0.1,1.5,0.3,2.4c0,0-0.7,1-0.7,2.3
				c0,0,0.1-0.3,0.2-0.6C12.7,11.2,12,13.6,13.2,16.1"/>
		</g>
	</g>
	<g>
		<g>
			<g>
				<path fill="#E24B4B" d="M21,20.5l2.2,2.5l-1.5,0.1l0.6,1.6L18,27.9C19.2,25.6,20.2,23.1,21,20.5z"/>
			</g>
		</g>
		<g>
			<g>
				<path fill="#E24B4B" d="M15,20.5L12.8,23l1.5,0.1l-0.6,1.6l4.3,3.3C16.8,25.6,15.8,23.1,15,20.5z"/>
			</g>
		</g>
	</g>
</g>
</svg>
