<?xml version="1.0" encoding="utf-8"?>
<!-- Generator: Adobe Illustrator 18.0.0, SVG Export Plug-In . SVG Version: 6.00 Build 0)  -->
<!DOCTYPE svg PUBLIC "-//W3C//DTD SVG 1.1//EN" "http://www.w3.org/Graphics/SVG/1.1/DTD/svg11.dtd">
<svg version="1.1" id="Layer_1" xmlns="http://www.w3.org/2000/svg" xmlns:xlink="http://www.w3.org/1999/xlink" x="0px" y="0px"
	 viewBox="0 0 36 36" enable-background="new 0 0 36 36" xml:space="preserve">
<g>
	<g>
		<g>
			<g>
				<path fill="#8CC63E" d="M30,32.9c-8,1.4-16,1.4-24,0c-1-0.2-1.7-1.1-1.6-2.2L5,25.1c0.2-1.4,1-2.5,2.3-3.1
					c7.1-2.9,14.2-2.9,21.3,0c1.3,0.5,2.2,1.7,2.3,3.1l0.6,5.6C31.7,31.8,31,32.7,30,32.9z"/>
			</g>
		</g>
		<g>
			<g>
				<path fill="#5A5F63" d="M17.8,24.4l0.2,0l0.2,0c1.7-0.3,4.5-1.4,4.6-4.1c-0.5-0.1-1.1-0.2-1.6-0.2h-1.4c0,0.7-1.3,1.2-1.9,1.3
					c-0.6-0.1-1.9-0.6-1.9-1.3h-1.4c-0.5,0.1-1.1,0.1-1.6,0.2C13.3,23,16.1,24.2,17.8,24.4z"/>
			</g>
		</g>
		<g>
			<g>
				<path fill="#F4C534" d="M14.6,20.1v-4.2h6.8v4.2c0,2.3-3.4,2.9-3.4,2.9S14.6,22.4,14.6,20.1z"/>
			</g>
		</g>
		<g>
			<g>
				<path fill="#FFD93B" d="M24.2,11.3c0,4.6-2.6,7-4.4,8.1c-1.1,0.7-2.5,0.7-3.5,0c-1.8-1.1-4.4-3.5-4.4-8.1c0-3.8,2.8-6.8,6.2-6.8
					C21.4,4.5,24.2,7.5,24.2,11.3z"/>
			</g>
		</g>
		<g>
			<g>
				<g>
					<g>
						<path fill="#FFD93B" d="M13.1,11.5c-0.3-0.4-0.7-0.7-1-0.8c-1.1-0.3-1.6,0.7-1.1,2.2c0.4,1.1,0.8,2.1,1.5,2.1
							c0,0,0.4,0.1,0.9-0.1L13.1,11.5z"/>
					</g>
				</g>
			</g>
			<g>
				<g>
					<g>
						<path fill="#FFD93B" d="M22.9,11.5c0.3-0.4,0.7-0.7,1-0.8c1.1-0.3,1.6,0.7,1.1,2.2c-0.4,1.1-0.8,2.1-1.5,2.1
							c0,0-0.4,0.1-0.9-0.1L22.9,11.5z"/>
					</g>
				</g>
			</g>
		</g>
	</g>
	<g>
		<g>
			<g>
				<path fill="#3E4347" d="M12.6,14L12.6,14c0,0,0.4-1.3,0.4-3.1s-0.2-3.2,0.9-3.5s4.7,1.2,7.9-0.4c1.2-0.6,1.6,1.9,1.3,3.4
					c-0.3,1.5,0.3,1.9,0.3,3.9c0,0,1.3-4.1,1.1-7.3c-0.2-3.2-2.3-4.8-6.1-4.9c-3.9-0.1-6.8,1.9-6.8,4.9S12.6,14,12.6,14z"/>
			</g>
		</g>
	</g>
	<g>
		<g>
			<path fill="#3E4347" d="M23.7,10.4h-0.6c0,0-0.1,0-0.1-0.1c-0.7-0.3-1.3-0.4-2.1-0.4c-0.8,0-1.4,0.2-2.1,0.5
				c-0.4,0.2-0.9,0.2-1.3,0C16.6,10.1,16,10,15.2,10c-0.9,0-1.7,0.2-2.3,0.4h-0.6c-0.1,0-0.2,0.1-0.2,0.2v0.6c0,0.1,0.1,0.2,0.2,0.2
				h0.3c0,0,0,0.1,0,0.1c0.2,1.2,1.3,2.2,2.5,2.2c1,0,2.1-0.7,2.4-1.9c0-0.5,0.8-0.5,0.8,0c0.3,1.2,1.4,1.9,2.4,1.9
				c1.2,0,2.3-0.9,2.5-2.2c0,0,0-0.1,0-0.1h0.3c0.1,0,0.2-0.1,0.2-0.2v-0.6C23.8,10.5,23.8,10.4,23.7,10.4z M17.3,11.7
				c-0.3,1-1.2,1.7-2.1,1.6c-1,0-2-0.8-2.1-2.1c0-0.1,0-0.1,0-0.2c0-0.2,0.1-0.2,0.1-0.2c0.7-0.2,1.2-0.3,2-0.3
				c0.6,0,1.3,0.1,1.9,0.2c0.2,0,0.3,0.2,0.3,0.4C17.4,11.3,17.4,11.5,17.3,11.7z M22.9,11.2c0,1.3-1,2.1-2.1,2.1
				c-0.9,0-1.8-0.6-2.1-1.6c-0.1-0.2-0.1-0.4-0.1-0.6c0-0.2,0.1-0.3,0.3-0.4c0.6-0.1,1.3-0.2,1.9-0.2c0.7,0,1.3,0.1,2,0.3
				c0,0,0.1,0,0.1,0.2C22.9,11.1,22.9,11.1,22.9,11.2z"/>
		</g>
	</g>
</g>
</svg>
