<?xml version="1.0" encoding="utf-8"?>
<!-- Generator: Adobe Illustrator 18.0.0, SVG Export Plug-In . SVG Version: 6.00 Build 0)  -->
<!DOCTYPE svg PUBLIC "-//W3C//DTD SVG 1.1//EN" "http://www.w3.org/Graphics/SVG/1.1/DTD/svg11.dtd">
<svg version="1.1" id="Layer_1" xmlns="http://www.w3.org/2000/svg" xmlns:xlink="http://www.w3.org/1999/xlink" x="0px" y="0px"
	 viewBox="0 0 36 36" enable-background="new 0 0 36 36" xml:space="preserve">
<g>
	<g>
		<g>
			<path fill="#F4C534" d="M14.7,18.8l0,4.7c2.2,1.1,4.4,1.1,6.6,0l0-4.7H14.7z"/>
		</g>
	</g>
	<g>
		<g>
			<g>
				<path fill="#DAE5EF" d="M29.9,34l-1-8.8c-0.3-1.4-1.4-2.4-2.7-2.7l-3.7-0.7L18,24.2l-4.4-2.4l-3.7,0.7c-1.4,0.3-2.4,1.3-2.7,2.7
					l-1,8.8H29.9z"/>
			</g>
		</g>
	</g>
	<g>
		<g>
			<g>
				<path fill="#5A5F63" d="M13.6,21.8c0,0-2.1,0.5-3.6,0.9S8.4,24,7.8,23.8s-0.3-0.4,0.7-1.2s5.3-1.3,5.3-1.3L13.6,21.8z"/>
			</g>
		</g>
		<g>
			<g>
				<g>
					<g>
						<path fill="#FFD93B" d="M11.4,21.7c0.2,0.2,0.3,0.4,0.4,0.6c-0.2,0-0.3,0.1-0.5,0.1c-0.1-0.2-0.3-0.4-0.6-0.6
							C10.9,21.8,11.1,21.7,11.4,21.7z"/>
					</g>
					<g>
						<path fill="#FFD93B" d="M10.2,21.9c0.2,0.2,0.4,0.4,0.5,0.6c-0.2,0-0.3,0.1-0.5,0.1c-0.1-0.2-0.3-0.4-0.6-0.6
							C9.8,22,10,22,10.2,21.9z"/>
					</g>
					<g>
						<path fill="#FFD93B" d="M9.1,23.1c-0.1-0.2-0.3-0.4-0.5-0.5c0.1-0.1,0.3-0.2,0.5-0.3c0.2,0.2,0.4,0.4,0.5,0.6
							C9.4,22.9,9.3,23,9.1,23.1z"/>
					</g>
				</g>
			</g>
		</g>
	</g>
	<g>
		<g>
			<g>
				<g>
					<path fill="#FFD93B" d="M14,14.7c0,1-0.6,1.7-1.3,1.7c-0.3,0-1.1-0.8-1.3-1.7c-0.3-1.6,0.2-2.4,1.3-1.7
						C13.3,13.4,14,13.8,14,14.7z"/>
				</g>
			</g>
			<g>
				<g>
					<path fill="#FFD93B" d="M22.1,14.7c0,1,0.6,1.7,1.3,1.7c0.3,0,1.1-0.8,1.3-1.7c0.3-1.6-0.2-2.4-1.3-1.7
						C22.7,13.4,22.1,13.8,22.1,14.7z"/>
				</g>
			</g>
		</g>
		<g>
			<g>
				<g>
					<path fill="#FFD93B" d="M23.5,14.8c0,2.5-2.2,4.5-3.9,5.7c-1,0.7-2.3,0.7-3.3,0c-1.6-1.1-3.9-3.2-3.9-5.7
						c0-3.1,2.5-5.5,5.5-5.5C21.1,9.3,23.5,11.8,23.5,14.8z"/>
				</g>
			</g>
			<g>
				<g>
					<g>
						<path fill="#8F6D52" d="M12.1,10c0,0-0.4,2.7,0.4,4.8h0.3c0,0,0-2,0.8-2.7s2.1-0.1,2.6-2H18V7.6C18,7.6,13.1,8.1,12.1,10z"/>
					</g>
				</g>
				<g>
					<g>
						<path fill="#8F6D52" d="M23.9,10c0,0,0.4,2.7-0.4,4.8h-0.3c0,0,0-2-0.8-2.7s-2.6-2-2.6-2H18V7.6C18,7.6,22.9,8.1,23.9,10z"/>
					</g>
				</g>
			</g>
			<g>
				<g>
					<g>
						<g>
							<path fill="#3E4347" d="M23.9,10c0,1.8-11.8,1.8-11.8,0c1.7-2.1,4.3-2.8,7.4-2.8L23.9,10z"/>
						</g>
					</g>
					<g>
						<g>
							<path fill="#DEE4E9" d="M23.9,10c-0.7-0.4-2.6-1.8-5.9-1.8s-5.2,1.4-5.9,1.8c0-0.3,0-0.7,0.4-1.8c0,0,1.8-1.7,5.5-1.7
								s5.5,1.7,5.5,1.7C23.9,9.3,23.9,9.7,23.9,10z"/>
						</g>
					</g>
				</g>
				<g>
					<g>
						<path fill="#3E4347" d="M25.2,6.5c0,2.1-1.7,1.8-1.7,1.8c0,0,0,0,0,0c-0.9-0.8-3-1.7-5.5-1.7c-2.5,0-4.6,0.9-5.5,1.7
							c0,0,0,0,0,0c0,0-1.7,0.3-1.7-1.8C10.8,4.4,14,2,18,2S25.2,4.4,25.2,6.5z"/>
					</g>
					<g>
						<path fill="#363C3F" d="M25.2,6.5c0,2.1-1.7,1.8-1.7,1.8c0,0,0,0,0,0c-0.9-0.8-3-1.7-5.5-1.7c-2.5,0-4.6,0.9-5.5,1.7
							c0,0,0,0,0,0c0,0-1,0.2-1.5-0.7c2.5-0.1,3.9-1.2,5.6-1.5c4.5-0.8,8.5,0.8,8-1.2C25,5.4,25.2,5.9,25.2,6.5z"/>
					</g>
				</g>
			</g>
		</g>
	</g>
	<g>
		<g>
			<g>
				<g>
					<path fill="#E9EFF4" d="M18,24.2c-0.2,0-0.5-0.3-1,0.3l-1.5,1.8c0,0-1.5-3-1.9-4.4l1.2-2.1C15.5,21.6,16.6,23,18,24.2z"/>
				</g>
				<g>
					<path fill="#E9EFF4" d="M22.4,21.8c-0.4,1.4-1.9,4.4-1.9,4.4L19,24.4c-0.6-0.6-0.9-0.3-1-0.3c1.4-1.2,2.5-2.6,3.3-4.5
						L22.4,21.8z"/>
				</g>
			</g>
		</g>
	</g>
	<g>
		<g>
			<g>
				<circle fill="#8D9BA3" cx="18" cy="26.8" r="0.5"/>
			</g>
		</g>
		<g>
			<g>
				<circle fill="#8D9BA3" cx="18" cy="29.2" r="0.5"/>
			</g>
		</g>
		<g>
			<g>
				<circle fill="#8D9BA3" cx="18" cy="31.7" r="0.5"/>
			</g>
		</g>
	</g>
	<g>
		<g>
			<g>
				<g>
					<g>
						<rect x="21.5" y="30.1" fill="#CBD6E0" width="5.1" height="3.9"/>
					</g>
				</g>
				<g>
					<g>
						<path fill="#E9EFF4" d="M26.9,28.4v1.9c0,0.1-0.1,0.2-0.2,0.2l-2.6,0.7c0,0-0.1,0-0.1,0l-2.6-0.7c-0.1,0-0.2-0.1-0.2-0.2v-1.9
							c0-0.1,0.1-0.2,0.2-0.2h5.2C26.8,28.2,26.9,28.3,26.9,28.4z"/>
					</g>
				</g>
			</g>
			<g>
				<g>
					<circle fill="#8D9BA3" cx="24" cy="30" r="0.5"/>
				</g>
			</g>
		</g>
		<g>
			<g>
				<g>
					<g>
						<rect x="9.4" y="30.1" fill="#CBD6E0" width="5.1" height="3.9"/>
					</g>
				</g>
				<g>
					<g>
						<path fill="#E9EFF4" d="M14.8,28.4v1.9c0,0.1-0.1,0.2-0.2,0.2L12,31.2c0,0-0.1,0-0.1,0l-2.6-0.7c-0.1,0-0.2-0.1-0.2-0.2v-1.9
							c0-0.1,0.1-0.2,0.2-0.2h5.2C14.7,28.2,14.8,28.3,14.8,28.4z"/>
					</g>
				</g>
			</g>
			<g>
				<g>
					<circle fill="#8D9BA3" cx="12" cy="30" r="0.5"/>
				</g>
			</g>
		</g>
	</g>
	<g>
		<g>
			<g>
				<path fill="#5A5F63" d="M22.4,21.8c0,0,2.1,0.5,3.6,0.9s1.6,1.3,2.2,1.1s0.3-0.4-0.7-1.2c-1.1-0.9-5.3-1.3-5.3-1.3L22.4,21.8z"
					/>
			</g>
		</g>
		<g>
			<g>
				<g>
					<g>
						<path fill="#FFD93B" d="M24.6,21.7c-0.2,0.2-0.3,0.4-0.4,0.6c0.2,0,0.3,0.1,0.5,0.1c0.1-0.2,0.3-0.4,0.6-0.6
							C25,21.8,24.8,21.7,24.6,21.7z"/>
					</g>
					<g>
						<path fill="#FFD93B" d="M25.7,21.9c-0.2,0.2-0.4,0.4-0.5,0.6c0.2,0,0.3,0.1,0.5,0.1c0.1-0.2,0.3-0.4,0.6-0.6
							C26.1,22,25.9,22,25.7,21.9z"/>
					</g>
					<g>
						<path fill="#FFD93B" d="M26.9,23.1c0.1-0.2,0.3-0.4,0.5-0.5c-0.1-0.1-0.3-0.2-0.5-0.3c-0.2,0.2-0.4,0.4-0.5,0.6
							C26.6,22.9,26.7,23,26.9,23.1z"/>
					</g>
				</g>
			</g>
		</g>
	</g>
</g>
</svg>
