<?xml version="1.0" encoding="utf-8"?>
<!-- Generator: Adobe Illustrator 18.0.0, SVG Export Plug-In . SVG Version: 6.00 Build 0)  -->
<!DOCTYPE svg PUBLIC "-//W3C//DTD SVG 1.1//EN" "http://www.w3.org/Graphics/SVG/1.1/DTD/svg11.dtd">
<svg version="1.1" id="Layer_1" xmlns="http://www.w3.org/2000/svg" xmlns:xlink="http://www.w3.org/1999/xlink" x="0px" y="0px"
	 viewBox="0 0 36 36" enable-background="new 0 0 36 36" xml:space="preserve">
<g>
	<g>
		<g>
			<g>
				<path fill="#E24B4B" d="M30.7,34l-1.1-7.8c-0.3-1.9-1.8-3.4-3.8-3.6c-5.2-0.5-10.4-0.5-15.6,0c-1.9,0.2-3.5,1.6-3.8,3.6L5.3,34
					H30.7z"/>
			</g>
		</g>
		<g>
			<g>
				<path fill="#3E4347" d="M9.3,34h17.4c-1.6-6.3-0.4-9.8,0.2-11.1c-0.4-0.1-0.7-0.2-1.1-0.3c-0.6-0.1-1.3-0.1-1.9-0.1
					c-1.4,3.3-1.3,6.2-1.3,6.2h-9.3c0,0,0.2-3-1.3-6.2c-0.6,0-1.3,0.1-1.9,0.1c-0.4,0-0.8,0.1-1.1,0.3C9.7,24.2,10.9,27.7,9.3,34z"
					/>
			</g>
		</g>
	</g>
	<g>
		<g>
			<g>
				<g>
					<g>
						<g>
							<g>
								<g>
									<g>
										<path fill="#F4C534" d="M14.6,22.4v-5.7h6.9v5.7c0,3.1-3.4,3.8-3.4,3.8S14.6,25.6,14.6,22.4z"/>
									</g>
								</g>
								<g>
									<g>
										<path fill="#FFD93B" d="M24.1,13.9c0,4.5-2.5,6.8-4.3,7.9c-1.1,0.6-2.4,0.6-3.5,0c-1.8-1.1-4.3-3.4-4.3-7.9
											c0-3.7,2.7-6.7,6.1-6.7C21.4,7.2,24.1,10.2,24.1,13.9z"/>
									</g>
								</g>
								<g>
									<g>
										<g>
											<g>
												<path fill="#FFD93B" d="M13.2,14.1c-0.3-0.4-0.6-0.7-1-0.8c-1.1-0.3-1.6,0.7-1.1,2.2c0.4,1.1,0.8,2.1,1.5,2.1
													c0,0,0.4,0.1,0.9-0.1L13.2,14.1z"/>
											</g>
										</g>
									</g>
									<g>
										<g>
											<g>
												<path fill="#FFD93B" d="M22.8,14.1c0.3-0.4,0.6-0.7,1-0.8c1.1-0.3,1.6,0.7,1.1,2.2c-0.4,1.1-0.8,2.1-1.5,2.1
													c0,0-0.4,0.1-0.9-0.1L22.8,14.1z"/>
											</g>
										</g>
									</g>
								</g>
							</g>
							<g>
								<g>
									<g>
										<path fill="#3E4347" d="M12.7,16.6L12.7,16.6c0,0,0.4-1.3,0.4-3.1S12.8,10.3,14,10s4.6,1.2,7.7-0.4
											c1.2-0.6,1.6,1.9,1.3,3.3s0.3,1.8,0.3,3.8c0,0,1.2-4,1.1-7.2c-0.2-3.1-2.2-4.8-6-4.8s-6.7,1.9-6.7,4.9
											S12.7,16.6,12.7,16.6z"/>
									</g>
								</g>
							</g>
						</g>
					</g>
				</g>
			</g>
		</g>
	</g>
	<g>
		<g>
			<g>
				<ellipse fill="#6B503B" cx="18" cy="10.1" rx="10.3" ry="1.5"/>
			</g>
		</g>
		<g>
			<g>
				<path fill="#8F6D52" d="M24.7,9.8c-0.3-2.2-0.8-4.4-1.4-6.6c-0.3-1-1.4-1.4-2.5-1c0,0,0,0,0,0c-1.8,0.7-3.7,0.7-5.5,0
					c-1.1-0.4-2.3,0.1-2.5,1c-0.6,2.2-1.1,4.4-1.4,6.6C15.6,10.4,20,10.4,24.7,9.8z"/>
			</g>
		</g>
		<g>
			<path fill="#E9EFF4" d="M24.7,9.8c-0.1-0.4-0.1-0.8-0.2-1.2c-4.5,0.6-8.9,0.6-13,0c-0.1,0.4-0.1,0.8-0.2,1.2
				C15.6,10.4,20,10.4,24.7,9.8z"/>
		</g>
	</g>
</g>
</svg>
