<?xml version="1.0" encoding="utf-8"?>
<!-- Generator: Adobe Illustrator 18.0.0, SVG Export Plug-In . SVG Version: 6.00 Build 0)  -->
<!DOCTYPE svg PUBLIC "-//W3C//DTD SVG 1.1//EN" "http://www.w3.org/Graphics/SVG/1.1/DTD/svg11.dtd">
<svg version="1.1" id="Layer_1" xmlns="http://www.w3.org/2000/svg" xmlns:xlink="http://www.w3.org/1999/xlink" x="0px" y="0px"
	 viewBox="0 0 36 36" enable-background="new 0 0 36 36" xml:space="preserve">
<g>
	<g>
		<g>
			<g>
				<g>
					<g>
						<g>
							<g>
								<path fill="#FFD93B" d="M12.9,12.1c-0.3-0.5-0.7-0.8-1.1-0.9c-1.2-0.3-1.7,0.7-1.2,2.4c0.4,1.2,0.8,2.2,1.6,2.2
									c0,0,0.4,0.1,1-0.1L12.9,12.1z"/>
							</g>
						</g>
					</g>
					<g>
						<g>
							<g>
								<path fill="#FFD93B" d="M23.1,12.1c0.3-0.5,0.7-0.8,1.1-0.9c1.2-0.3,1.7,0.7,1.2,2.4c-0.4,1.2-0.8,2.2-1.6,2.2
									c0,0-0.4,0.1-1-0.1L23.1,12.1z"/>
							</g>
						</g>
					</g>
				</g>
				<g>
					<g>
						<g>
							<g>
								<path fill="#DAE5EF" d="M32.6,34l-1.5-8.8c-0.4-1.3-1.5-2.4-2.8-2.7L18,19.7L7.8,22.4c-1.4,0.4-2.4,1.4-2.8,2.7L3.4,34H32.6
									z"/>
							</g>
						</g>
						<g>
							<g>
								<path fill="#DAE5EF" d="M32.6,34l-1.5-8.8c-0.4-1.3-1.5-2.4-2.8-2.7L18,19.7L7.8,22.4c-1.4,0.4-2.4,1.4-2.8,2.7L3.4,34H32.6
									z"/>
							</g>
						</g>
						<g>
							<g>
								<path fill="#E24B4B" d="M13.2,21.1c1.2,1.7,2.9,2.5,4.8,2.5c1.8,0,3.6-0.8,4.7-2.5l0.1-0.1l-2.2-0.6
									c-0.7,0.7-1.6,1.1-2.6,1.1c-0.9,0-1.9-0.4-2.6-1.1L13.2,21L13.2,21.1z"/>
							</g>
						</g>
						<g>
							<g>
								<path fill="#F4C534" d="M22,17v3.8c-1,1.2-2.5,1.8-4,1.8s-2.9-0.6-4-1.8V17H22z"/>
							</g>
						</g>
					</g>
					<g>
						<g>
							<g>
								<g>
									<path fill="#FFD93B" d="M24.3,12.6c0,4.9-3.4,6.7-5.2,7.4c-0.7,0.2-1.4,0.3-2.1,0c-1.5-0.5-4.2-1.9-5.1-6H12v-1.7h-0.2
										c0.2-3.3,2.9-5.9,6.2-5.9C21.7,4.9,24.5,7.5,24.3,12.6z"/>
								</g>
							</g>
						</g>
					</g>
				</g>
			</g>
			<g>
				<g>
					<path fill="#7A5B44" d="M23.3,14.6c0,0-0.1-3.2,0-4.6c0.1-1.4-0.9-2.6-2-1.8c-0.9,0.6-3.2,1.1-4.9,1.4c-0.5,0.1-1.1,0.1-1.6,0
						c-0.8,0-1.5,0.2-1.8,1c-0.6,1.7-0.5,4-0.5,4c-2.1-3.5-0.6-9.1-0.6-9.1c1.4-4.2,10.9-4.8,11.5-0.7C26.9,7.1,23.3,14.6,23.3,14.6
						z"/>
				</g>
			</g>
		</g>
		<g>
			<path fill="#3E4347" d="M9.7,29.9c0,0.9-0.7,2.7-1.4,4.1h19.4c-0.7-1.5-1.4-3.2-1.4-4.1c0-1.4,0.9-5.4,1.3-7.6l-4-1.1
				c-0.3,2-1.5,5.4-5.6,9.8c-4.1-4.5-5.2-7.9-5.6-9.8l-4.1,1.1C8.8,24.4,9.6,28.4,9.7,29.9z"/>
		</g>
	</g>
	<g>
		<g>
			<circle fill="#8D9BA3" cx="18" cy="25.5" r="0.6"/>
		</g>
		<g>
			<circle fill="#8D9BA3" cx="18" cy="28.1" r="0.6"/>
		</g>
	</g>
</g>
</svg>
