<?xml version="1.0" encoding="utf-8"?>
<!-- Generator: Adobe Illustrator 18.0.0, SVG Export Plug-In . SVG Version: 6.00 Build 0)  -->
<!DOCTYPE svg PUBLIC "-//W3C//DTD SVG 1.1//EN" "http://www.w3.org/Graphics/SVG/1.1/DTD/svg11.dtd">
<svg version="1.1" id="Layer_1" xmlns="http://www.w3.org/2000/svg" xmlns:xlink="http://www.w3.org/1999/xlink" x="0px" y="0px"
	 viewBox="0 0 36 36" enable-background="new 0 0 36 36" xml:space="preserve">
<g>
	<g>
		<g>
			<g>
				<path fill="#F4C534" d="M20.8,16.1h-5.7V17c0,2.3-0.7,4.6-2.1,6.6v3.7h9.9v-3.7c-1.3-1.9-2.1-4.2-2.1-6.6V16.1z"/>
			</g>
		</g>
		<g>
			<g>
				<path fill="#DAE5EF" d="M30.4,34v-6.8c0-1.1-0.6-2.1-1.6-2.6l-7.2-3.7c0,0-0.9,3-3.6,3c-2.7,0-3.6-3-3.6-3l-7.2,3.7
					c-1,0.5-1.6,1.5-1.6,2.6V34H30.4z"/>
			</g>
		</g>
		<g>
			<g>
				<path fill="#E24B4B" d="M20.2,34l-1.3-8.5l0.8-0.8l-0.9-0.9c-0.2,0.1-0.5,0.1-0.8,0.1c-0.3,0-0.6-0.1-0.8-0.1l-0.9,0.9l0.8,0.8
					h0L15.8,34H20.2z"/>
			</g>
		</g>
		<g>
			<g>
				<g>
					<path fill="#FFD93B" d="M24.3,12.1c0,5.2-3.4,7.1-5.2,7.7c-0.7,0.2-1.5,0.2-2.2,0c-1.8-0.6-5.2-2.5-5.2-7.7c0-4.4,2.8-8,6.4-8
						C21.5,4.1,24.3,7.7,24.3,12.1z"/>
				</g>
			</g>
			<g>
				<g>
					<g>
						
							<ellipse transform="matrix(0.9947 0.1024 -0.1024 0.9947 1.4517 -2.3918)" fill="#FFD93B" cx="24" cy="12.9" rx="1.2" ry="1.9"/>
					</g>
				</g>
				<g>
					<g>
						
							<ellipse transform="matrix(-0.9947 0.1024 -0.1024 -0.9947 25.0715 24.6062)" fill="#FFD93B" cx="11.9" cy="12.9" rx="1.2" ry="1.9"/>
					</g>
				</g>
			</g>
			<g>
				<g>
					<path fill="#6B503B" d="M23.5,14.2l-0.7-4.5c-0.1-0.7-0.9-1.1-1.6-0.9c-2.3,0.9-4.6,1.2-6.7,0.5c-0.7-0.2-1.4,0.2-1.6,0.9
						l-0.6,3.9c-1-1.1-3.1-11.9,1.5-10.1C15.7-0.2,25.1,2.5,24.9,9C24.8,10.3,24.4,12.7,23.5,14.2z"/>
				</g>
			</g>
		</g>
	</g>
	<g>
		<g>
			<g>
				<path fill="#E9EFF4" d="M21.2,20L18,23.9c0,0,2.1,0.8,2.6,2.1l1.8-4.7L21.2,20z"/>
			</g>
		</g>
		<g>
			<g>
				<path fill="#E9EFF4" d="M14.7,20l3.3,3.9c0,0-2.1,0.8-2.6,2.1l-1.8-4.7L14.7,20z"/>
			</g>
		</g>
	</g>
</g>
</svg>
