<?xml version="1.0" encoding="utf-8"?>
<!-- Generator: Adobe Illustrator 18.0.0, SVG Export Plug-In . SVG Version: 6.00 Build 0)  -->
<!DOCTYPE svg PUBLIC "-//W3C//DTD SVG 1.1//EN" "http://www.w3.org/Graphics/SVG/1.1/DTD/svg11.dtd">
<svg version="1.1" id="Layer_1" xmlns="http://www.w3.org/2000/svg" xmlns:xlink="http://www.w3.org/1999/xlink" x="0px" y="0px"
	 viewBox="0 0 36 36" enable-background="new 0 0 36 36" xml:space="preserve">
<g>
	<g>
		<g>
			<g>
				<g>
					<path fill="#6B503B" d="M11.7,13.5c-0.6,7.8,2.5,9.5,5.9,9.5h0.7c3.4,0,6.9-1.7,6.4-9.5H11.7z"/>
				</g>
			</g>
			<g>
				<g>
					<g>
						<g>
							<path fill="#FFE9AB" d="M28,24.1c-6.7-2.3-13.4-2.3-20.1,0c-1.1,0.4-2,1.4-2.1,2.6L4.9,34h26.2l-0.9-7.3
								C30,25.5,29.2,24.5,28,24.1z"/>
						</g>
					</g>
					<g>
						<g>
							<path fill="#E24B4B" d="M30.3,28c-0.8,1.2-4.7,0.2-4.7,4.5c0,0.5,0.1,1,0.2,1.5H10.2c0.1-0.5,0.2-1,0.2-1.5
								c0-4.3-3.9-3.3-4.7-4.5l0.2-1.4c0.2-1.2,1-2.2,2.1-2.6c6.7-2.3,13.4-2.3,20.1,0c1.1,0.4,2,1.4,2.1,2.6L30.3,28z"/>
						</g>
					</g>
					<g>
						<g>
							<path fill="#DAE5EF" d="M22,29c0,0,0.1,1-1.7,0.1c0,0-0.2,0.9-1.2,0.3c0.1,1.4-2.2,1.4-2.1,0c-1,0.6-1.2-0.3-1.2-0.3
								C13.8,29.9,14,29,14,29c1.1-0.8,2.4-2.8,2.4-2.8c0-0.4,3.2-0.4,3.2,0C19.6,26.2,20.9,28.2,22,29z"/>
						</g>
					</g>
					<g>
						<path fill="#E9EFF4" d="M21,27.1c1.5,0,2.9-1.6,3.6-4.1c-4.4-1-8.8-1-13.2,0c0.8,2.4,2.1,4.1,3.6,4.1c1.2,0,2.2-0.5,3-1.3
							C18.8,26.7,19.8,27.1,21,27.1z"/>
					</g>
				</g>
				<g>
					<g>
						<g>
							<g>
								<g>
									<g>
										<g>
											<g>
												<g>
													<g>
														<g>
															<g>
																<g>
																	<g>
																		<g>
																			<path fill="#FFE9AB" d="M12.9,14c-0.3-0.4-0.7-0.8-1.1-0.9c-1.1-0.3-1.7,0.7-1.2,2.3c0.4,1.2,0.8,2.2,1.5,2.2
																				c0,0,0.4,0.1,1-0.1L12.9,14z"/>
																		</g>
																	</g>
																</g>
																<g>
																	<g>
																		<g>
																			<path fill="#FFE9AB" d="M23,14c0.3-0.4,0.7-0.8,1.1-0.9c1.1-0.3,1.7,0.7,1.2,2.3c-0.4,1.2-0.8,2.2-1.5,2.2
																				c0,0-0.4,0.1-1-0.1L23,14z"/>
																		</g>
																	</g>
																</g>
															</g>
															<g>
																<g>
																	<g>
																		<g>
																			<path fill="#FFD68D" d="M21.9,18.8v3.8l-0.5,0.7c-1.7,2.3-5.1,2.3-6.8,0l-0.5-0.7v-3.8H21.9z"/>
																		</g>
																	</g>
																</g>
																<g>
																	<g>
																		<g>
																			<g>
																				<path fill="#FFE9AB" d="M24.1,14.5c0,4.8-3.3,6.6-5.1,7.2c-0.7,0.2-1.4,0.3-2.1,0c-1.5-0.5-4.2-1.8-5-5.9H12
																					v-1.6h-0.2C12,11,14.7,8.4,18,8.4C21.6,7,24.3,9.6,24.1,14.5z"/>
																			</g>
																		</g>
																	</g>
																</g>
															</g>
														</g>
													</g>
												</g>
											</g>
											<g>
												<g>
													<path fill="#6B503B" d="M12.4,16.7c-0.5-6.1,2.1-5.2,1.7-7.3c1.9,1.6,4,2.5,6.2,2.5c1.4,0,2.6,0.9,3,2.3
														c0.2,0.7,0.3,1.5,0.3,2.5c0,0,2-4.1,1-9.2c-1-5-9.8-5.4-10.5-1.7C14.1,5.8,9.1,4.8,12.4,16.7z"/>
												</g>
											</g>
										</g>
									</g>
								</g>
							</g>
						</g>
					</g>
				</g>
			</g>
		</g>
	</g>
	<g>
		<g>
			<path fill="#E9EFF4" d="M22.5,7.6C22.5,7.6,22.4,7.6,22.5,7.6c-2.8-1.1-5.9-1.1-8.8-0.2l0,0c-0.3-0.8-1-2.3-0.8-2.9
				c0.2-1.1,1.2-0.9,1.6-0.2c0,0,0.5-1.8,2.1-1.1c0-1.6,3.2-1.6,3.2,0.1c1.7-0.6,2.1,1.2,2.1,1.2c0.4-0.7,1.3-0.8,1.6,0.3
				C23.5,5.3,22.7,6.9,22.5,7.6z"/>
		</g>
	</g>
</g>
</svg>
