<?xml version="1.0" encoding="utf-8"?>
<!-- Generator: Adobe Illustrator 18.0.0, SVG Export Plug-In . SVG Version: 6.00 Build 0)  -->
<!DOCTYPE svg PUBLIC "-//W3C//DTD SVG 1.1//EN" "http://www.w3.org/Graphics/SVG/1.1/DTD/svg11.dtd">
<svg version="1.1" id="Layer_1" xmlns="http://www.w3.org/2000/svg" xmlns:xlink="http://www.w3.org/1999/xlink" x="0px" y="0px"
	 viewBox="0 0 36 36" enable-background="new 0 0 36 36" xml:space="preserve">
<g>
	<g>
		<g>
			<g>
				<g>
					<g>
						<g>
							<g>
								<g>
									<g>
										<g>
											<g>
												<g>
													<g>
														<g>
															<g>
																<g>
																	<path fill="#38C0DC" d="M32.3,34l-1.4-8.4c-0.4-1.3-1.5-2.4-2.8-2.7L18,20.2L7.9,22.9c-1.3,0.3-2.4,1.4-2.8,2.7
																		L3.7,34H32.3z"/>
																</g>
															</g>
														</g>
														<g>
															<g>
																<g>
																	<polygon fill="#E24B4B" points="17.1,27 16.4,34 19.6,34 18.9,27 19.8,26.1 18,24.4 16.2,26.1 17.1,27 
																																			"/>
																</g>
															</g>
														</g>
														<g>
															<g>
																<g>
																	<path fill="#FFD68D" d="M22.5,17.1v4.3c-0.1,0.1-0.2,0.3-0.3,0.4c-1.1,1.3-4.2,3.3-4.2,3.3s-3.4-2-4.4-3.6l0,0
																		v-4.3H22.5z"/>
																</g>
															</g>
														</g>
													</g>
												</g>
											</g>
										</g>
									</g>
								</g>
							</g>
						</g>
					</g>
				</g>
				<g>
					<g>
						<g>
							<g>
								<g>
									<g>
										<path fill="#FFE9AB" d="M12.3,12.8c-0.3-0.5-0.8-0.9-1.2-1c-1.3-0.4-1.9,0.8-1.3,2.6c0.5,1.7,1.1,3,2.8,2.4L12.3,12.8z"/>
									</g>
								</g>
							</g>
						</g>
						<g>
							<g>
								<g>
									<g>
										<path fill="#FFE9AB" d="M23.7,12.8c0.3-0.5,0.8-0.9,1.2-1c1.3-0.4,1.9,0.8,1.3,2.6c-0.4,1.4-0.9,2.5-1.7,2.5
											c-0.1,0-0.5,0.1-1.1-0.1L23.7,12.8z"/>
									</g>
								</g>
							</g>
						</g>
					</g>
					<g>
						<g>
							<g>
								<g>
									<g>
										<path fill="#FFE9AB" d="M25,13.4c0,5.5-3.8,7.5-5.8,8.3c-0.8,0.3-1.6,0.3-2.4,0c-1.7-0.5-4.7-2.1-5.7-6.8h0.1V13H11
											c0.2-3.7,3.2-6.7,7-6.7C22.1,4.7,25.3,7.7,25,13.4z"/>
									</g>
								</g>
							</g>
						</g>
						<g>
							<g>
								<g>
									<path fill="#6B503B" d="M24.9,15h-0.5c-0.2-1.4-0.4-3.5-0.3-4.5c0,0,0,0,0,0c0.1-1.4-1.4-2.3-2.7-1.7
										c-2.2,1-4.5,1.5-6.8,0.9c-3-0.8-2.8,3.6-2.8,3.6c0,0.5,0,1.2-0.1,1.8h-0.6c0-0.4-3.2-10.6,4.1-12.5C22.6,0.5,24,5.7,24,5.7
										C28.2,5.6,25,14.5,24.9,15z"/>
								</g>
							</g>
						</g>
					</g>
				</g>
			</g>
		</g>
		<g>
			<g>
				<path fill="#38C0DC" d="M26.4,12.4c-0.7,1-2.4,4.7-2.6,5.2c-0.5,1.7-1.8,3.9-4.6,4.8c-0.7,0.2-1.4,0.2-2.1,0
					c-2.8-0.9-4-3.1-4.6-4.8c-0.2-0.5-2.1-4.6-2.8-5.5c-0.2-0.2,0.5-0.4,0.6-0.3c0,0,0.2,0.5,0.6,1.2c0.9,1.5,3.2,3,4.7,1.7
					c0.5-0.4,1.5-0.7,2.5-0.7s2,0.3,2.5,0.7c1.6,1.3,3.8-0.2,4.7-1.7c0.4-0.6,0.5-1.1,0.5-1.1C26,11.7,26.5,12,26.4,12.4z"/>
			</g>
		</g>
		<g>
			<g>
				<g>
					<g>
						<g>
							<g>
								<g>
									<g>
										<g>
											<g>
												<g>
													<g>
														<g>
															<g>
																<g>
																	<polygon fill="#DAE5EF" points="18,25.1 22.7,25.1 20.4,34 15.1,34 13.7,25.1 																	"/>
																</g>
															</g>
															<g>
																<g>
																	<g>
																		<polygon fill="#3E4347" points="17.1,27 15.9,34 20.1,34 18.9,27 19.8,26.1 18,24.4 16.2,26.1 17.1,27 
																																					"/>
																	</g>
																</g>
															</g>
															<g>
																<g>
																	<g>
																		<path fill="#FFD68D" d="M22.5,17.1v4.3c-0.1,0.1-0.2,0.3-0.3,0.4c-1.1,1.3-4.2,3.3-4.2,3.3s-3.4-2-4.4-3.6l0,0
																			v-4.3H22.5z"/>
																	</g>
																</g>
															</g>
															<g>
																<g>
																	<path fill="#E9EFF4" d="M22.5,20.4c0,0-0.8,2.4-4.5,4.7c0,0,1.8,1.2,2.2,2.7l3.7-5.4L22.5,20.4z"/>
																</g>
															</g>
															<g>
																<g>
																	<path fill="#E9EFF4" d="M13.6,20.4c0,0,0.8,2.4,4.5,4.7c0,0-1.8,1.2-2.2,2.7l-3.7-5.4L13.6,20.4z"/>
																</g>
															</g>
														</g>
													</g>
												</g>
											</g>
										</g>
									</g>
								</g>
							</g>
						</g>
					</g>
					<g>
						<g>
							<g>
								<g>
									<g>
										<g>
											<path fill="#FFE9AB" d="M12.3,12.8c-0.3-0.5-0.8-0.9-1.2-1c-1.3-0.4-1.9,0.8-1.3,2.6c0.5,1.7,1.1,3,2.8,2.4L12.3,12.8z"
												/>
										</g>
									</g>
								</g>
							</g>
							<g>
								<g>
									<g>
										<g>
											<path fill="#FFE9AB" d="M23.7,12.8c0.3-0.5,0.8-0.9,1.2-1c1.3-0.4,1.9,0.8,1.3,2.6c-0.4,1.4-0.9,2.5-1.7,2.5
												c-0.1,0-0.5,0.1-1.1-0.1L23.7,12.8z"/>
										</g>
									</g>
								</g>
							</g>
						</g>
						<g>
							<g>
								<g>
									<g>
										<g>
											<path fill="#FFE9AB" d="M25,13.4c0,5.5-3.8,7.5-5.8,8.3c-0.8,0.3-1.6,0.3-2.4,0c-1.7-0.5-4.7-2.1-5.7-6.8h0.1V13H11
												c0.2-3.7,3.2-6.7,7-6.7C22.1,4.7,25.3,7.7,25,13.4z"/>
										</g>
									</g>
								</g>
							</g>
							<g>
								<g>
									<g>
										<path fill="#7A5B44" d="M24,5.7c0,0-1.5-5.2-8.8-3.3c-6.3,1.7-4.8,9.3-4.3,11.7l0.8,0.2c0-0.4,0-0.8,0-1.1
											c0,0-0.2-4.4,2.8-3.6c2.3,0.6,4.6,0.1,6.8-0.9c1.3-0.6,2.8,0.3,2.7,1.7c0,0,0,0,0,0c-0.1,0.9,0.2,3,0.3,4.5h0.5
											C25,14.5,28.2,5.6,24,5.7z"/>
									</g>
								</g>
							</g>
						</g>
					</g>
				</g>
			</g>
			<g>
				<g>
					<path fill="#38C0DC" d="M26.4,12.4c-0.7,1-2.4,4.7-2.6,5.2c-0.5,1.7-1.8,3.9-4.6,4.8c-0.7,0.2-1.4,0.2-2.1,0
						c-2.8-0.9-4-3.1-4.6-4.8c-0.2-0.5-2.1-4.6-2.8-5.5c-0.2-0.2,0.5-0.4,0.6-0.3c0,0,0.2,0.5,0.6,1.2c0.9,1.5,3.2,3,4.7,1.7
						c0.5-0.4,1.5-0.7,2.5-0.7s2,0.3,2.5,0.7c1.6,1.3,3.8-0.2,4.7-1.7c0.4-0.6,0.5-1.1,0.5-1.1C26,11.7,26.5,12,26.4,12.4z"/>
				</g>
			</g>
		</g>
	</g>
	<g>
		<g>
			<g>
				<path fill="#45CBEA" d="M23.2,34c0.7-1.2,1.3-2.5,1.8-3.9L23.5,28l3.6-0.5c-0.9-3-2.4-5.4-4.6-7.2L19.5,34H23.2z"/>
			</g>
		</g>
		<g>
			<g>
				<path fill="#45CBEA" d="M11,30.1c0.5,1.3,1.1,2.6,1.8,3.9h3.7l-2.9-13.6c-2.2,1.8-3.7,4.2-4.6,7.2l3.6,0.5L11,30.1z"/>
			</g>
		</g>
	</g>
</g>
</svg>
