<?xml version="1.0" encoding="utf-8"?>
<!-- Generator: Adobe Illustrator 18.0.0, SVG Export Plug-In . SVG Version: 6.00 Build 0)  -->
<!DOCTYPE svg PUBLIC "-//W3C//DTD SVG 1.1//EN" "http://www.w3.org/Graphics/SVG/1.1/DTD/svg11.dtd">
<svg version="1.1" id="Layer_1" xmlns="http://www.w3.org/2000/svg" xmlns:xlink="http://www.w3.org/1999/xlink" x="0px" y="0px"
	 viewBox="0 0 36 36" enable-background="new 0 0 36 36" xml:space="preserve">
<g>
	<g>
		<g>
			<g>
				<g>
					<g>
						<g>
							<g>
								<g>
									<g>
										<g>
											<g>
												<g>
													<g>
														<g>
															<path fill="#8CC63E" d="M31.5,34l-1.2-7.2c-0.4-1.3-1.4-2.2-2.7-2.6L18,21.7l-9.6,2.5c-1.3,0.3-2.3,1.3-2.7,2.6
																L4.5,34H31.5z"/>
														</g>
													</g>
													<g>
														<g>
															<path fill="#8CC63E" d="M31.5,34l-1.2-7.2c-0.4-1.3-1.4-2.2-2.7-2.6L18,21.7l-9.6,2.5c-1.3,0.3-2.3,1.3-2.7,2.6
																L4.5,34H31.5z"/>
														</g>
													</g>
													<g>
														<g>
															<path fill="#7FB239" d="M24.7,32.3c0,0.6,0.1,1.2,0.2,1.7H11.1c0.1-0.5,0.2-1.1,0.2-1.7c0-1.1-0.2-2.1-0.6-3
																c2,0.8,4.6,1.2,7.3,1.2c2.8,0,5.3-0.5,7.3-1.2C24.9,30.2,24.7,31.2,24.7,32.3z"/>
														</g>
													</g>
												</g>
												<g>
													<g>
														<path fill="#F4C534" d="M21.6,19.2v3.4c-0.9,1.1-2.3,1.6-3.6,1.6c-1.3,0-2.6-0.6-3.6-1.6v-3.4H21.6z"/>
													</g>
												</g>
											</g>
										</g>
									</g>
								</g>
							</g>
						</g>
					</g>
				</g>
			</g>
		</g>
	</g>
	<g>
		<g>
			<g>
				<path fill="#719D34" d="M18.8,2.8c0,0.6-1.6,0.6-1.6,0C17.2,2.3,17.6,2,18,2C18.4,2,18.8,2.3,18.8,2.8z"/>
			</g>
		</g>
		<g>
			<g>
				<g>
					<g>
						<g>
							<path fill="#FFD93B" d="M25.2,16.3c-0.4,1.1-1,2-1.8,1.8c-0.7-0.2-1.1-1.2-0.9-2.4c0.2-1.2,1-1.8,1.8-1.8
								C25.2,13.8,25.6,14.9,25.2,16.3z"/>
						</g>
					</g>
					<g>
						<g>
							<path fill="#FFD93B" d="M10.8,16.3c0.4,1.1,1,2,1.8,1.8c0.7-0.2,1.1-1.2,0.9-2.4s-1-1.8-1.8-1.8
								C10.8,13.8,10.4,14.9,10.8,16.3z"/>
						</g>
					</g>
				</g>
				<g>
					<path fill="#3E4347" d="M25.2,11.3c0,4-3.2,9.3-7.2,9.3c-4,0-7.2-5.3-7.2-9.3c0-4,3.2-7.1,7.2-7.1c1.5,0,2.9,0.4,4,1.2
						c0.6,0.4,0.7,1.2,0.2,1.7v0l0,0c1.1,0,2.2,0.7,2.6,1.8C25.1,9.6,25.2,10.4,25.2,11.3z"/>
				</g>
				<g>
					<g>
						<path fill="#FFD93B" d="M23.8,14.2c0,3.2-2.6,8.3-5.8,8.3c-3.2,0-5.8-5.1-5.8-8.3c0-1.2,0.4-2.3,1-3.2c0.4-0.5,1-0.8,1.7-0.6
							c0.5,0.1,1,0.2,1.6,0.2c1.3,0,2.7-0.2,3.5-0.8c0.5-0.4,0.9-0.7,1.5-0.3C22.9,10.6,23.8,12.3,23.8,14.2z"/>
					</g>
				</g>
			</g>
			<g>
				<g>
					<g>
						<path fill="#7FB239" d="M18,2.6c-3.9,0-7.2,1.7-7.2,8.8c1.8-0.6,4.4-0.8,7.2-0.8s5.4,0.2,7.2,0.8C25.2,4.4,22,2.6,18,2.6z
							 M16.8,9.8c0-1,0.6-1.4,1.2-1.4c0.7,0,1.2,0.4,1.2,1.4C18.4,9.6,17.6,9.6,16.8,9.8z"/>
					</g>
				</g>
				<g>
					<g>
						<path fill="#719D34" d="M18,2.6c-1.7,0-3.1,1.6-3.2,8.1c-1.5,0.1-2.9,0.3-4,0.7C10.8,4.4,14,2.6,18,2.6z"/>
					</g>
					<g>
						<path fill="#8CC63E" d="M25.2,11.4c-1.1-0.3-2.4-0.5-4-0.7c-0.1-6.5-1.5-8.1-3.2-8.1C22,2.6,25.2,4.4,25.2,11.4z"/>
					</g>
				</g>
			</g>
		</g>
	</g>
</g>
</svg>
