<?xml version="1.0" encoding="utf-8"?>
<!-- Generator: Adobe Illustrator 18.0.0, SVG Export Plug-In . SVG Version: 6.00 Build 0)  -->
<!DOCTYPE svg PUBLIC "-//W3C//DTD SVG 1.1//EN" "http://www.w3.org/Graphics/SVG/1.1/DTD/svg11.dtd">
<svg version="1.1" id="Layer_1" xmlns="http://www.w3.org/2000/svg" xmlns:xlink="http://www.w3.org/1999/xlink" x="0px" y="0px"
	 viewBox="0 0 36 36" enable-background="new 0 0 36 36" xml:space="preserve">
<g>
	<g>
		<g>
			<g>
				<g>
					<g>
						<g>
							<g>
								<g>
									<g>
										<g>
											<path fill="#FFE9AB" d="M13.2,13.5c-0.3-0.4-0.6-0.7-1-0.8c-1.1-0.3-1.6,0.7-1.1,2.2c0.4,1.1,0.8,2.1,1.5,2.1
												c0,0,0.4,0.1,0.9-0.1L13.2,13.5z"/>
										</g>
									</g>
								</g>
								<g>
									<g>
										<g>
											<path fill="#FFE9AB" d="M22.8,13.5c0.3-0.4,0.6-0.7,1-0.8c1.1-0.3,1.6,0.7,1.1,2.2C24.6,16,24.2,17,23.5,17
												c0,0-0.4,0.1-0.9-0.1L22.8,13.5z"/>
										</g>
									</g>
								</g>
							</g>
							<g>
								<g>
									<g>
										<g>
											<path fill="#E24B4B" d="M32.8,34l-2.5-8.3c-0.4-1.3-1.4-2.2-2.7-2.6L18,20.7l-9.6,2.5c-1.3,0.3-2.3,1.3-2.7,2.6L3.2,34
												H32.8z"/>
										</g>
									</g>
									<g>
										<g>
											<path fill="#FFD68D" d="M18,24.8c-1.6-1-3-2-3.7-3.2l0-3.6h7.4l0,3.6C20.7,23,19.4,24.1,18,24.8z"/>
										</g>
									</g>
								</g>
								<g>
									<g>
										<g>
											<g>
												<path fill="#FFE9AB" d="M23.8,14c0,4.5-3.2,6.3-4.8,6.9c-0.6,0.2-1.3,0.2-2,0c-1.4-0.5-3.9-1.8-4.7-5.6h0.1v-1.6h-0.2
													c0.1-3.1,2.7-5.6,5.8-5.6C21.4,6.8,24.1,9.3,23.8,14z"/>
											</g>
										</g>
									</g>
									<g>
										<g>
											<g>
												<path fill="#3E4347" d="M13.2,11.3h-1.5c0.1,1.5,0.5,2.7,0.5,2.9c0,0.3,0,0.7,0.1,1h0.5C12.8,14.8,13.2,11.7,13.2,11.3z
													"/>
											</g>
										</g>
										<g>
											<path fill="#3E4347" d="M23.1,11.3c0,0.1,0,0.1,0,0.2c-0.1,0.8,0.1,2.5,0.3,3.7h0.4c0.1-0.4,0.2-0.8,0.4-1.4
												c0.2-0.5,0.4-1.5,0.5-2.6H23.1z"/>
										</g>
									</g>
								</g>
							</g>
						</g>
					</g>
				</g>
				<g>
					<g>
						<g>
							<path fill="#E9EFF4" d="M21.7,19.5c0,0,0.3,2.1-3.7,5.4c0,0,2.9-1.6,4.3-1.8c1.4-0.2,2.5,0,2.5,0s0-2-0.9-2.9
								C23,19.2,21.7,19.5,21.7,19.5z"/>
						</g>
					</g>
					<g>
						<g>
							<path fill="#E9EFF4" d="M14.3,19.5c0,0-0.3,2.1,3.7,5.4c0,0-2.9-1.6-4.3-1.8c-1.4-0.2-2.5,0-2.5,0s0-2,0.9-2.9
								C13,19.2,14.3,19.5,14.3,19.5z"/>
						</g>
					</g>
				</g>
			</g>
			<g>
				<g>
					<g>
						<g>
							<path fill="#BF3333" d="M24.6,10.4c-0.1-5.6-3-8.1-6.6-8.1c-3.6,0-6.5,2.4-6.6,8.1C15.8,11.6,20.2,11.6,24.6,10.4z"/>
						</g>
					</g>
				</g>
				<g>
					<g>
						<path fill="#D03F3F" d="M19.8,2.6v8.7c-1.2,0.1-2.4,0.1-3.6,0V2.6C16.2,1.8,19.8,1.8,19.8,2.6z"/>
					</g>
				</g>
				<g>
					<g>
						<path fill="#E24B4B" d="M10,12c0.3-0.6,0.8-1.1,1.4-1.5c4.4,0.8,8.9,0.8,13.2,0c0.7,0.3,1.2,0.9,1.4,1.5
							C20.7,13.1,15.3,13.1,10,12"/>
					</g>
				</g>
			</g>
		</g>
		<g>
			<g>
				<g>
					<path fill="#D03F3F" d="M21.5,9.5c0,0-0.8-3.3,1.4-4.8c0.3-0.2,0.8,0.7,0.6,0.9C23.5,5.5,21.7,6.2,21.5,9.5z"/>
				</g>
			</g>
			<g>
				<g>
					<path fill="#D03F3F" d="M14.5,9.5c0,0,0.8-3.3-1.4-4.8c-0.3-0.2-0.8,0.7-0.6,0.9C12.5,5.5,14.2,6.2,14.5,9.5z"/>
				</g>
			</g>
		</g>
	</g>
	<g>
		<g>
			<g>
				<path fill="#FFD93B" d="M9.7,22.9l-1.2,0.3c-0.2,0-0.3,0.1-0.5,0.2c0,0,0,0,0,0c1,0.9,2.6,3.5,2.9,10.6H13
					C12.8,28.3,11.7,24.8,9.7,22.9z"/>
			</g>
			<g>
				<path fill="#FFFFFF" d="M9,23l-0.6,0.2c0,0,0,0,0,0c0,0,0,0,0,0c1.3,1.2,2.9,4,3.2,10.8h0.5C11.9,27.4,10.4,24.4,9,23z"/>
			</g>
		</g>
		<g>
			<g>
				<path fill="#FFD93B" d="M25.1,34c0.3-7.1,1.9-9.7,2.9-10.6c0,0,0,0,0,0c-0.2-0.1-0.3-0.1-0.5-0.2l-1.2-0.3
					c-2,2-3.1,5.4-3.4,11.1H25.1z"/>
			</g>
			<g>
				<path fill="#FFFFFF" d="M24.3,34c0.3-6.8,1.9-9.6,3.2-10.8c0,0,0,0,0,0c0,0,0,0,0,0L27,23c-1.4,1.3-2.9,4.3-3.2,11H24.3z"/>
			</g>
		</g>
	</g>
</g>
</svg>
