<?xml version="1.0" encoding="utf-8"?>
<!-- Generator: Adobe Illustrator 18.0.0, SVG Export Plug-In . SVG Version: 6.00 Build 0)  -->
<!DOCTYPE svg PUBLIC "-//W3C//DTD SVG 1.1//EN" "http://www.w3.org/Graphics/SVG/1.1/DTD/svg11.dtd">
<svg version="1.1" id="Layer_1" xmlns="http://www.w3.org/2000/svg" xmlns:xlink="http://www.w3.org/1999/xlink" x="0px" y="0px"
	 viewBox="0 0 36 36" enable-background="new 0 0 36 36" xml:space="preserve">
<g>
	<g>
		<g>
			<g>
				<g>
					<g>
						<g>
							<g>
								<g>
									<g>
										<g>
											<g>
												<path fill="#DAE5EF" d="M30.1,34l-1.3-7.3c-0.3-1.1-1.2-2-2.4-2.3L18,22.2l-8.5,2.2c-1.1,0.3-2,1.2-2.4,2.3L5.9,34H30.1
													z"/>
											</g>
										</g>
										<g>
											<g>
												<path fill="#59A5E0" d="M30.1,34l-1.3-7.3c-0.3-1.1-1.2-2-2.4-2.3L18,22.2l-8.5,2.2c-1.1,0.3-2,1.2-2.4,2.3L5.9,34H30.1
													z"/>
											</g>
										</g>
										<g>
											<g>
												<path fill="#F4C534" d="M21.3,19.8V23c-0.9,1-2.1,1.5-3.3,1.5c-1.2,0-2.4-0.5-3.3-1.5v-3.2H21.3z"/>
											</g>
										</g>
									</g>
								</g>
							</g>
						</g>
						<g>
							<g>
								<path fill="#3E4347" d="M9.9,34h16.1c-0.6-1.2-0.4-7.9-0.1-9.7l-3.4-0.9C22.4,25,21.3,33,18,33c-3.3,0-4.4-8-4.6-9.6
									L10,24.3C10.4,26.1,10.5,32.8,9.9,34z"/>
							</g>
						</g>
					</g>
				</g>
			</g>
		</g>
	</g>
	<g>
		<g>
			<g>
				<g>
					<g>
						<g>
							<g>
								<g>
									<g>
										<g>
											<path fill="#FFD93B" d="M23.8,15.7c0,4.5-3.2,6.3-4.8,6.9c-0.6,0.2-1.3,0.2-2,0c-1.4-0.5-3.9-1.7-4.7-5.6h0.1v-1.5h-0.2
												c0.1-3.1,2.7-5.5,5.8-5.5C21.4,8.5,24,11,23.8,15.7z"/>
										</g>
									</g>
								</g>
							</g>
							<g>
								<g>
									<g>
										<path fill="#FFD93B" d="M23.7,17h-0.4C23.2,15.8,23,14,23,13.3c0,0,0,0,0,0c0.1-1.2-1.2-1.9-2.2-1.4
											c-1.8,0.8-3.7,1.3-5.6,0.7c-2.5-0.7-2.3,3-2.3,3c0,0.4,0,1,0,1.5h-0.5c0-0.4-2.7-8.8,3.4-10.4C21.8,5,23,9.3,23,9.3
											C26.5,9.2,23.8,16.6,23.7,17z"/>
									</g>
								</g>
							</g>
						</g>
					</g>
				</g>
			</g>
			<g>
				<g>
					<g>
						<g>
							<g>
								<g>
									<g>
										<g>
											<g>
												<path fill="#FFD93B" d="M13.2,15.2c-0.3-0.4-0.6-0.7-1-0.8c-1.1-0.3-1.6,0.7-1.1,2.2c0.4,1.1,0.8,2.1,1.4,2.1
													c0,0,0.4,0.1,0.9-0.1L13.2,15.2z"/>
											</g>
										</g>
									</g>
								</g>
								<g>
									<g>
										<g>
											<g>
												<path fill="#FFD93B" d="M22.8,15.2c0.3-0.4,0.6-0.7,1-0.8c1.1-0.3,1.6,0.7,1.1,2.2c-0.4,1.1-0.8,2.1-1.4,2.1
													c0,0-0.4,0.1-0.9-0.1L22.8,15.2z"/>
											</g>
										</g>
									</g>
								</g>
							</g>
							<g>
								<g>
									<g>
										<g>
											<g>
												<path fill="#FFD93B" d="M23.8,15.7c0,4.5-3.2,6.3-4.8,6.9c-0.6,0.2-1.3,0.2-2,0c-1.4-0.5-3.9-1.7-4.7-5.6h0.1v-1.5h-0.2
													c0.1-3.1,2.7-5.5,5.8-5.5C21.4,8.5,24,11,23.8,15.7z"/>
											</g>
										</g>
									</g>
								</g>
								<g>
									<g>
										<g>
											<path fill="#7A5B44" d="M23,9.3c0,0-1.2-4.3-7.3-2.7c-5.2,1.4-4,7.7-3.4,10.3l0.7,0.1c-0.1-0.9-0.1-1.2-0.1-1.5
												c0,0-0.1-3.6,2.3-3c1.9,0.5,3.8,0.1,5.6-0.7c1.1-0.5,2.3,0.3,2.2,1.4c0,0,0,0,0,0C23,14,23.2,15.8,23.3,17h0.4
												C23.8,16.6,26.5,9.2,23,9.3z"/>
										</g>
									</g>
								</g>
							</g>
						</g>
					</g>
				</g>
			</g>
		</g>
	</g>
	<g>
		<g>
			<g>
				<path fill="#3E4347" d="M25.1,10.3l-7.1,1l-7.1-1h0.2l2.1-6.6c0.5-1.4,2.1-2.1,3.4-1.4c0.1,0,0.1,0.1,0.2,0.1
					c0.8,0.4,1.7,0.4,2.4,0c0.1,0,0.1-0.1,0.2-0.1c1.3-0.7,2.9,0,3.4,1.4l2.1,6.6H25.1z"/>
			</g>
		</g>
		<g>
			<g>
				<path fill="#3E4347" d="M27.9,9.6c0.3,1-4,3.8-9.9,3.8c-5.9,0-10.2-2.8-9.9-3.8c0.3-1,4.7,1.3,9.9,1.3
					C23.2,10.9,27.6,8.6,27.9,9.6z"/>
			</g>
		</g>
	</g>
	<g>
		<g>
			<g>
				<path fill="#E24B4B" d="M18.6,23.4c-0.3,0.1-0.7,0.1-1,0c-5.8-2.6-5.4-7.3-5.4-7.3c0.4,0.6,0.9,1,1.5,1.3c1,0.5,2.1,0.4,3.1,0
					c0.7-0.3,1.7-0.3,2.4,0c0.9,0.4,1.9,0.5,2.8,0.2c0.8-0.3,1.5-0.8,1.9-1.5C24,16.1,24.4,20.7,18.6,23.4z"/>
			</g>
		</g>
	</g>
</g>
</svg>
