<?xml version="1.0" encoding="utf-8"?>
<!-- Generator: Adobe Illustrator 18.0.0, SVG Export Plug-In . SVG Version: 6.00 Build 0)  -->
<!DOCTYPE svg PUBLIC "-//W3C//DTD SVG 1.1//EN" "http://www.w3.org/Graphics/SVG/1.1/DTD/svg11.dtd">
<svg version="1.1" id="Layer_1" xmlns="http://www.w3.org/2000/svg" xmlns:xlink="http://www.w3.org/1999/xlink" x="0px" y="0px"
	 viewBox="0 0 36 36" enable-background="new 0 0 36 36" xml:space="preserve">
<g>
	<g>
		<g>
			<g>
				<g>
					<path fill="#3E4347" d="M8.9,10.6l-0.9,1c0.9,0.3,4.2,1,7.9,1c3.7,0,6.3-0.5,7.2-0.9l-0.2-1.1C18.1,9.7,13.5,9.7,8.9,10.6z"/>
				</g>
			</g>
		</g>
		<g>
			<g>
				<path fill="#FFD93B" d="M15.8,13.6c-2,0-8.4-0.1-8.4-2C7.4,11.3,7.7,11,8,11c0.3,0,0.5,0.2,0.6,0.4c0.4,0.3,2.9,1,7.3,1
					s6.9-0.6,7.3-1c0.1-0.3,0.3-0.4,0.6-0.4c0.3,0,0.6,0.3,0.6,0.6C24.3,13.4,17.8,13.6,15.8,13.6z M23.1,11.6L23.1,11.6L23.1,11.6z
					 M7.6,12.1L7.6,12.1L7.6,12.1z"/>
			</g>
		</g>
		<g>
			<g>
				<g>
					<g>
						<g>
							<g>
								<g>
									<g>
										<g>
											<g>
												<g>
													<g>
														<g>
															<g>
																<g>
																	<g>
																		<g>
																			<g>
																				<g>
																					<path fill="#FFDC97" d="M18.6,17h-5.5v0.9c0,2.2-0.7,4.4-2,6.3v3.5h9.4v-3.5c-1.3-1.8-2-4-2-6.2V17z"/>
																				</g>
																			</g>
																		</g>
																	</g>
																</g>
															</g>
														</g>
													</g>
												</g>
											</g>
										</g>
									</g>
								</g>
							</g>
						</g>
					</g>
					<g>
						<g>
							<g>
								<g>
									<path fill="#E9EFF4" d="M27.7,27.6V33c0,0.6-0.4,1-1,1H5.1c-0.5,0-1-0.4-1-1v-5.4c0-1,0.6-2,1.5-2.5l6.8-3.5
										c0,0,0.8,2.9,3.4,2.9c2.5,0,3.4-2.9,3.4-2.9l6.8,3.5C27.1,25.6,27.7,26.6,27.7,27.6z"/>
								</g>
							</g>
						</g>
					</g>
					<g>
						<g>
							<g>
								<g>
									<path fill="#2AB4CD" d="M6.8,34H25c-0.6-3.3,0-7.3,0.4-9.3l-3.9-2c-0.3,3.2-1.4,7-1.4,7h-8.3c0,0-1.1-3.8-1.4-7l-3.9,2
										C6.8,26.7,7.4,30.7,6.8,34z"/>
								</g>
							</g>
						</g>
						<g>
							<g>
								<path fill="#45CBEA" d="M7.9,34h16c-0.6-3.7,0.1-8,0.4-9.8l-1.9-0.9c-0.3,3.1-1.3,6.6-1.4,6.8l-0.2,0.8h-9.9L10.7,30
									c-0.1-0.2-1.1-3.7-1.4-6.8l-1.9,1C7.8,26,8.5,30.3,7.9,34z"/>
							</g>
						</g>
					</g>
					<g>
						<g>
							<g>
								<g>
									<g>
										<path fill="#FFFFFF" d="M19.7,23l-1.5,2.9c-0.1,0.2-0.4,0.3-0.6,0.1l-1.7-1.5l3.1-3.7l0.7,2C19.8,22.8,19.8,22.9,19.7,23z
											"/>
									</g>
								</g>
							</g>
							<g>
								<g>
									<g>
										<path fill="#FFFFFF" d="M12.8,20.7l3.1,3.7L14.2,26c-0.2,0.2-0.5,0.1-0.6-0.1L12.1,23c-0.1-0.1-0.1-0.2,0-0.3L12.8,20.7z"
											/>
									</g>
								</g>
							</g>
						</g>
					</g>
					<g>
						<g>
							<g>
								<g>
									<path fill="#FFE9AB" d="M21.9,13.7c0,4.9-3.2,6.7-5,7.3c-0.7,0.2-1.4,0.2-2.1,0c-1.7-0.6-5-2.4-5-7.3c0-4.2,2.7-7.6,6-7.6
										C19.2,6.2,21.9,9.6,21.9,13.7z"/>
								</g>
							</g>
						</g>
						<g>
							<g>
								<g>
									<g>
										
											<ellipse transform="matrix(0.9947 0.1024 -0.1024 0.9947 1.6011 -2.1347)" fill="#FFE9AB" cx="21.6" cy="14.5" rx="1.2" ry="1.8"/>
									</g>
								</g>
							</g>
							<g>
								<g>
									<g>
										
											<ellipse transform="matrix(-0.9947 0.1024 -0.1024 -0.9947 21.6072 27.9506)" fill="#FFE9AB" cx="10.1" cy="14.5" rx="1.2" ry="1.8"/>
									</g>
								</g>
							</g>
						</g>
						<g>
							<g>
								<g>
									<path fill="#5A5F63" d="M21.2,14.7l-0.9-4.7c0,0-3.8,1.8-6.6-0.9c0,0-0.4,1.4-2.1,1.5l-0.9,4.1c-1-1-2.9-10.3,1.4-8.6
										C14.2,1.2,26.3,5.8,21.2,14.7z"/>
								</g>
							</g>
						</g>
						<g>
							<g>
								<g>
									<path fill="#F4C534" d="M22.8,10.7V9.8c0-3.8-3.1-6.9-6.9-6.9c0,0-0.1,0-0.1,0c0,0-0.1,0-0.1,0c-3.8,0-6.9,3.1-6.9,6.9v0.9
										C13.4,10.3,18.1,10.3,22.8,10.7z"/>
								</g>
							</g>
						</g>
						<g>
							<path fill="#E9B02C" d="M13.7,8.5H18l0.7-5c-0.8-0.4-1.8-0.6-2.7-0.6c0,0-0.1,0-0.1,0c0,0-0.1,0-0.1,0c-1,0-1.9,0.2-2.7,0.6
								L13.7,8.5z"/>
						</g>
					</g>
				</g>
			</g>
		</g>
		<g>
			<g>
				<g>
					<path fill="#FFD93B" d="M23.7,12.2c-0.3,0-0.5-0.2-0.6-0.4c-0.4-0.3-2.9-1-7.3-1s-6.9,0.6-7.3,1C8.5,12,8.2,12.2,8,12.2
						c-0.3,0-0.6-0.3-0.6-0.6c0-1.8,6.5-2,8.4-2s8.4,0.1,8.4,2C24.3,11.9,24,12.2,23.7,12.2z M23.1,11.6L23.1,11.6L23.1,11.6z
						 M7.6,12.1L7.6,12.1L7.6,12.1z"/>
				</g>
			</g>
		</g>
		<g>
			<g>
				<g>
					<path fill="#F4C534" d="M18,2.7V9h-4.2V2.7c0-0.2,0.1-0.4,0.3-0.5c1.1-0.3,2.3-0.3,3.6,0C17.8,2.3,18,2.5,18,2.7z"/>
				</g>
			</g>
		</g>
	</g>
	<g>
		<g>
			<g>
				<path fill="#E84D88" d="M25.8,26.1l-6.2,6.2c-0.3,0.3-0.3,0.9,0,1.3l0,0c0.3,0.3,0.9,0.3,1.3,0l6.2-6.2L25.8,26.1z"/>
			</g>
		</g>
		<g>
			<g>
				<g>
					
						<rect x="28.4" y="26" transform="matrix(0.7071 0.7071 -0.7071 0.7071 27.756 -12.9046)" fill="#3E4347" width="2.1" height="2.1"/>
				</g>
			</g>
			<g>
				<g>
					<path fill="#5A5F63" d="M31.7,27.6L30,29.3c-0.2,0.2-0.5,0.2-0.7,0l-0.3-0.3c-0.2-0.2-0.2-0.5,0-0.7l1.7-1.7
						c0.2-0.2,0.5-0.2,0.7,0l0.3,0.3C31.9,27.1,31.9,27.4,31.7,27.6z"/>
				</g>
				<g>
					<path fill="#5A5F63" d="M30,25.9l-2.2,2.2c-0.2,0.2-0.5,0.2-0.7,0l-2-2c-0.2-0.2-0.2-0.5,0-0.7l1.3-1.3c-0.4-1-2.6-2.1-2.6-2.1
						c1-0.4,2-0.2,2.7,0.1c0.6,0.2,1.1,0.6,1.6,1.1l2,2C30.2,25.4,30.2,25.7,30,25.9z"/>
				</g>
			</g>
		</g>
	</g>
</g>
</svg>
