<?xml version="1.0" encoding="utf-8"?>
<!-- Generator: Adobe Illustrator 18.0.0, SVG Export Plug-In . SVG Version: 6.00 Build 0)  -->
<!DOCTYPE svg PUBLIC "-//W3C//DTD SVG 1.1//EN" "http://www.w3.org/Graphics/SVG/1.1/DTD/svg11.dtd">
<svg version="1.1" id="Layer_1" xmlns="http://www.w3.org/2000/svg" xmlns:xlink="http://www.w3.org/1999/xlink" x="0px" y="0px"
	 viewBox="0 0 36 36" enable-background="new 0 0 36 36" xml:space="preserve">
<g>
	<g>
		<g>
			<path fill="#F4C534" d="M30.6,29.2c-0.5-1.7-1.9-3.1-3.7-3.4c-0.5-0.1-0.9-0.2-1.3-0.2c-2.2-0.2-4.1-1.9-4.4-4.1h-6.2
				c-0.4,2.2-2.2,3.9-4.4,4.1c-0.4,0-0.9,0.1-1.3,0.2c-1.8,0.4-3.2,1.7-3.7,3.4L4,34H32L30.6,29.2z"/>
		</g>
	</g>
	<g>
		<g>
			<path fill="#3E4347" d="M30.6,29.2c-0.5-1.7-1.9-3.1-3.7-3.4c-0.5-0.1-0.9-0.2-1.3-0.2c-1.5-0.2-2.8-1-3.6-2.2l0,0
				C20.8,25,19.5,26,18,26.7c-1.6-0.8-2.9-2-3.9-3.2l0,0c-0.8,1.2-2.1,2-3.6,2.2c-0.4,0-0.9,0.1-1.3,0.2c-1.8,0.4-3.2,1.7-3.7,3.4
				L4,34H32L30.6,29.2z"/>
		</g>
	</g>
	<g>
		<g>
			<g>
				<g>
					<path fill="#DEE4E9" d="M26.4,9.8c0,0.6-0.5,1.1-1.1,1.1s-1.1-0.5-1.1-1.1c0-0.2,0.1-0.5,0.2-0.6c-0.4-0.1-0.7-0.5-0.7-1
						c0-0.2,0-0.3,0.1-0.5c-0.6,0-1-0.5-1-1.1c0-0.1,0-0.3,0.1-0.4c0,0-0.1,0-0.1,0c-0.6,0-1.1-0.5-1.1-1.1c0,0,0,0,0-0.1
						c-0.1,0-0.2,0.1-0.4,0.1c-0.6,0-1-0.4-1.1-1c-0.2,0.1-0.3,0.1-0.5,0.1c-0.4,0-0.7-0.2-0.9-0.4c-0.2,0.3-0.6,0.5-1,0.5
						c-0.4,0-0.7-0.2-0.9-0.5c-0.2,0.2-0.5,0.4-0.8,0.4c-0.2,0-0.4,0-0.5-0.2c0,0.5-0.5,1-1.1,1c-0.1,0-0.3,0-0.4-0.1c0,0,0,0,0,0.1
						c0,0.6-0.5,1.1-1.1,1.1c0,0,0,0-0.1,0c0,0.1,0.1,0.2,0.1,0.4c0,0.6-0.5,1-1,1.1c0.1,0.1,0.1,0.3,0.1,0.5c0,0.5-0.3,0.9-0.7,1
						c0.1,0.2,0.2,0.4,0.2,0.6c0,0.6-0.5,1.1-1.1,1.1c-0.6,0-1.1-0.5-1.1-1.1c0-0.5,0.3-0.9,0.7-1c-0.1-0.2-0.2-0.4-0.2-0.6
						c0-0.6,0.5-1,1-1.1C11,6.9,11,6.7,11,6.5c0-0.6,0.5-1.1,1.1-1.1c0,0,0,0,0.1,0c0-0.1-0.1-0.2-0.1-0.4c0-0.6,0.5-1.1,1.1-1.1
						c0.1,0,0.3,0,0.4,0.1c0,0,0,0,0-0.1c0-0.6,0.5-1.1,1.1-1.1c0.2,0,0.4,0,0.5,0.2c0-0.5,0.5-1,1.1-1c0.3,0,0.6,0.1,0.8,0.4
						C17.2,2.2,17.6,2,17.9,2c0.4,0,0.8,0.2,1,0.5c0.2-0.3,0.5-0.4,0.9-0.4c0.6,0,1,0.4,1.1,1C21,3,21.2,2.9,21.4,2.9
						c0.6,0,1.1,0.5,1.1,1.1c0,0,0,0,0,0.1C22.6,4,22.7,4,22.8,4c0.6,0,1.1,0.5,1.1,1.1c0,0.1,0,0.3-0.1,0.4c0,0,0,0,0.1,0
						C24.5,5.5,25,6,25,6.5c0,0.2,0,0.3-0.1,0.5c0.6,0,1,0.5,1,1.1c0,0.2-0.1,0.5-0.2,0.6C26.1,8.9,26.4,9.3,26.4,9.8z"/>
				</g>
			</g>
		</g>
		<g>
			<g>
				<path fill="#3E4347" d="M26.4,17.5c0.1,1.2-0.8,2.3-2,2.5c-4.3,0.8-8.5,0.8-12.8,0c-1.2-0.2-2-1.3-2-2.5
					c0.1-2.6,0.4-4.7,0.9-6.5c1.4-4.7,4.2-6.3,7.5-6.3s6.1,1.6,7.5,6.3C26,12.7,26.3,14.9,26.4,17.5z"/>
			</g>
		</g>
		<g>
			<g>
				<path fill="#E9EFF4" d="M25.5,11c-1.4-4.7-4.2-6.3-7.5-6.3S12,6.3,10.6,11c1.4-5.6,4.2-7.5,7.5-7.5C21.4,3.4,24.2,5.4,25.5,11z"
					/>
			</g>
		</g>
		<g>
			<g>
				<g>
					<path fill="#FFD93B" d="M24,15.7c0,4.3-2.6,7.8-5.9,7.8s-5.9-3.5-5.9-7.8c0-1.2,0.2-2.3,0.5-3.2c0.3,0.1,0.7,0.1,1.1,0.1
						c2,0,3.9-0.9,5-2.4c1,0.7,2.2,1.1,3.6,1.1c0.2,0,0.3,0,0.5,0C23.6,12.4,24,14,24,15.7z"/>
				</g>
			</g>
		</g>
	</g>
	<g>
		<g>
			<g>
				<path fill="#E9EFF4" d="M21.9,23.4L18,26.7c0,0,0.9,2.8,2.9,1.1C23.5,23.9,21.9,23.4,21.9,23.4z"/>
			</g>
		</g>
		<g>
			<g>
				<path fill="#E9EFF4" d="M14.1,23.4l3.9,3.2c0,0-0.9,2.8-2.9,1.1C12.5,23.9,14.1,23.4,14.1,23.4z"/>
			</g>
		</g>
	</g>
	<g>
		<g>
			<path fill="#E9EFF4" d="M30.4,28.8c-1.5,1.1-2.6,3-3.2,5.2H8.8c-0.5-2.3-1.7-4.1-3.2-5.2c0.6-1.5,1.9-2.6,3.5-3
				c0.5-0.1,0.9-0.2,1.3-0.2c0.3,0,0.5-0.1,0.7-0.1c1,2.7,3.7,4.7,6.8,4.7s5.8-2,6.8-4.7c0.2,0.1,0.5,0.1,0.8,0.1
				c0.4,0,0.8,0.1,1.3,0.2C28.5,26.1,29.8,27.3,30.4,28.8z"/>
		</g>
	</g>
</g>
</svg>
