<?xml version="1.0" encoding="utf-8"?>
<!-- Generator: Adobe Illustrator 18.0.0, SVG Export Plug-In . SVG Version: 6.00 Build 0)  -->
<!DOCTYPE svg PUBLIC "-//W3C//DTD SVG 1.1//EN" "http://www.w3.org/Graphics/SVG/1.1/DTD/svg11.dtd">
<svg version="1.1" id="Layer_1" xmlns="http://www.w3.org/2000/svg" xmlns:xlink="http://www.w3.org/1999/xlink" x="0px" y="0px"
	 viewBox="0 0 36 36" enable-background="new 0 0 36 36" xml:space="preserve">
<g>
	<g>
		<g>
			<path fill="#F4C534" d="M21.5,14.8v5.7c0,1.6-1.2,2.9-2.8,3.1c0,1,0,1.9,0,2.7h-1.3c0-0.8,0-1.7,0-2.7c-1.6-0.1-2.8-1.5-2.8-3.1
				v-5.7H21.5z"/>
		</g>
	</g>
	<g>
		<g>
			<g>
				<g>
					<g>
						<path fill="#DAE5EF" d="M30.3,34l-1.2-6.6c-0.2-1.1-1-2-2.1-2.4l-5.6-1.9c-0.7,0.9-1.3,2.4-3.4,2.4c-2.2,0-2.7-1.5-3.4-2.4
							L9,25c-1.1,0.4-1.9,1.3-2.1,2.4L5.7,34H30.3z"/>
					</g>
				</g>
			</g>
			<g>
				<g>
					<g>
						<path fill="#E9EFF4" d="M17.6,23.9c0-0.2-0.1-0.3-0.3-0.3c-1.6-0.1-2.8-1.5-2.8-3.1v2c0,1.6,1.2,2.9,2.8,3.1
							c0.2,0,0.3-0.1,0.3-0.3V23.9z"/>
					</g>
				</g>
				<g>
					<g>
						<path fill="#E9EFF4" d="M18.4,23.9c0-0.2,0.1-0.3,0.3-0.3c1.6-0.1,2.8-1.5,2.8-3.1v2c0,1.6-1.2,2.9-2.8,3.1
							c-0.2,0-0.3-0.1-0.3-0.3V23.9z"/>
					</g>
				</g>
			</g>
		</g>
		<g>
			<g>
				<polygon fill="#CBD6E0" points="21.8,34 21.4,24.6 21.3,34 				"/>
			</g>
		</g>
		<g>
			<g>
				<g>
					<g>
						<g>
							<path fill="#BBC7D1" d="M19.8,28c0,0.3-0.2,0.5-0.5,0.5c-0.3,0-0.5-0.2-0.5-0.5c0-0.3,0.2-0.5,0.5-0.5
								C19.5,27.5,19.8,27.7,19.8,28z"/>
						</g>
						<g>
							<g>
								<path fill="#BBC7D1" d="M16.4,28c0,0.3-0.2,0.5-0.5,0.5s-0.5-0.2-0.5-0.5c0-0.3,0.2-0.5,0.5-0.5
									C16.2,27.5,16.4,27.7,16.4,28z"/>
							</g>
						</g>
					</g>
				</g>
			</g>
			<g>
				<g>
					<g>
						<g>
							<path fill="#BBC7D1" d="M19.8,30.9c0,0.3-0.2,0.5-0.5,0.5c-0.3,0-0.5-0.2-0.5-0.5c0-0.3,0.2-0.5,0.5-0.5
								C19.5,30.3,19.8,30.6,19.8,30.9z"/>
						</g>
						<g>
							<g>
								<path fill="#BBC7D1" d="M16.4,30.9c0,0.3-0.2,0.5-0.5,0.5s-0.5-0.2-0.5-0.5c0-0.3,0.2-0.5,0.5-0.5
									C16.2,30.3,16.4,30.6,16.4,30.9z"/>
							</g>
						</g>
					</g>
				</g>
			</g>
		</g>
	</g>
	<g>
		<g>
			<g>
				<g>
					<g>
						<g>
							<path fill="#FFD93B" d="M14.4,16.8c0,1.1-0.6,1.9-1.3,1.9s-1.2-0.9-1.3-1.9c-0.1-1.4,0.4-2.3,1.3-1.9
								C13.7,15.2,14.4,15.7,14.4,16.8z"/>
						</g>
					</g>
				</g>
				<g>
					<g>
						<g>
							<path fill="#FFD93B" d="M21.5,16.8c0,1.1,0.6,1.9,1.3,1.9s1.2-0.9,1.3-1.9c0.1-1.4-0.4-2.3-1.3-1.9
								C22.2,15.2,21.5,15.7,21.5,16.8z"/>
						</g>
					</g>
				</g>
			</g>
			<g>
				<g>
					<g>
						<path fill="#FFD93B" d="M23.1,16.8c0,3-2.5,4.9-4,5.8c-0.7,0.4-1.6,0.4-2.3,0c-1.5-0.9-4-2.8-4-5.8c0-0.9,0.2-1.7,0.6-2.4
							C13.1,12.8,13.9,11,16,11c0.8,0,1.4,0.3,1.8,0.7c0.1,0,0.1,0,0.2,0c0.3,0,0.6,0,0.9,0.1c0.4-0.3,0.9-0.5,1.6-0.5
							c2.3,0,3.1,2.3,2.4,3.9C23,15.7,23.1,16.2,23.1,16.8z"/>
					</g>
				</g>
			</g>
			<g>
				<g>
					<g>
						<path fill="#5A5F63" d="M12.8,16.8l0.5,0c0.1-0.6,0.3-1.9,0.3-3c0,0,3.1,1.9,8-1.1c0,0,0.2,1.5,0.9,2.2c0,0,0,0.9,0.2,1.9
							l0.4,0c0.3-2.3,1.2-5.4,0.1-5.8C23,8.2,20,5.8,15,7.3C10.7,8.6,12.8,15.8,12.8,16.8z"/>
					</g>
				</g>
			</g>
		</g>
		<g>
			<g>
				<path fill="#E9EFF4" d="M12.2,11.4c3.8-1.3,7.8-1.3,11.6,0c0,1-0.1,2.1-0.3,3.2c-3.6-1.2-7.4-1.2-11,0
					C12.2,13.7,12.1,12.6,12.2,11.4z"/>
			</g>
		</g>
	</g>
	<g>
		<g>
			<path fill="#E9EFF4" d="M24.8,10.3c0,1.5-1.2,2.7-2.7,2.7c-1.1,0-2-0.6-2.4-1.5c-0.5,0.5-1.1,0.7-1.9,0.7c-0.8,0-1.4-0.3-1.9-0.8
				c-0.5,0.5-1.2,0.8-1.9,0.8c-1.5,0-2.7-1.2-2.7-2.7c0-1.3,0.9-2.4,2.2-2.7C12.9,4.8,15,2.9,17,3.7c0.7-1,1.8-1.7,3.2-1.7
				c3,0,4.8,3.4,3.2,5.9C24.2,8.3,24.8,9.2,24.8,10.3z"/>
		</g>
	</g>
</g>
</svg>
