<?xml version="1.0" encoding="utf-8"?>
<!-- Generator: Adobe Illustrator 18.0.0, SVG Export Plug-In . SVG Version: 6.00 Build 0)  -->
<!DOCTYPE svg PUBLIC "-//W3C//DTD SVG 1.1//EN" "http://www.w3.org/Graphics/SVG/1.1/DTD/svg11.dtd">
<svg version="1.1" id="Layer_1" xmlns="http://www.w3.org/2000/svg" xmlns:xlink="http://www.w3.org/1999/xlink" x="0px" y="0px"
	 viewBox="0 0 36 36" enable-background="new 0 0 36 36" xml:space="preserve">
<g>
	<g>
		<g>
			<g>
				<g>
					<path fill="#6B503B" d="M25.8,21.2c-5.2,2-10.3,2-15.5,0c1-1,1.4-2.4,1.5-3.7c0.1-1.6,0.7-9.1,0.7-9.1L18,8.2l5.6,0.2
						c0,0,0.6,7.5,0.7,9.1C24.4,18.8,24.8,20.2,25.8,21.2z"/>
				</g>
			</g>
			<g>
				<g>
					<g>
						<g>
							<g>
								<g>
									<path fill="#FFE9AB" d="M13.5,11.6c-0.3-0.4-0.6-0.7-1-0.8c-1-0.3-1.5,0.6-1,2.1c0.3,1.1,0.7,1.9,1.4,1.9
										c0,0,0.4,0.1,0.9-0.1L13.5,11.6z"/>
								</g>
							</g>
						</g>
						<g>
							<g>
								<g>
									<path fill="#FFE9AB" d="M22.5,11.6c0.3-0.4,0.6-0.7,1-0.8c1-0.3,1.5,0.6,1,2.1c-0.3,1.1-0.7,1.9-1.4,1.9
										c0,0-0.4,0.1-0.9-0.1L22.5,11.6z"/>
								</g>
							</g>
						</g>
					</g>
					<g>
						<g>
							<g>
								<g>
									<path fill="#DAE5EF" d="M30.6,34l-2.2-10.1c-0.3-1.5-1.2-2.7-2.3-3.1L18,17.7l-8.2,3.1c-1.1,0.4-1.9,1.6-2.3,3.1L5.4,34
										H30.6z"/>
								</g>
							</g>
							<g>
								<g>
									<polygon fill="#FFD68D" points="18,26.4 14.5,19.2 14.5,15.8 21.5,15.8 21.5,19.2 									"/>
								</g>
							</g>
						</g>
						<g>
							<g>
								<g>
									<g>
										<path fill="#FFE9AB" d="M23.5,12c0,4.3-3,5.9-4.5,6.4c-0.6,0.2-1.2,0.2-1.8,0c-1.3-0.4-3.7-1.6-4.4-5.3h0.1v-1.5h-0.2
											c0.1-2.9,2.5-5.2,5.5-5.2C21.2,5.2,23.7,7.6,23.5,12z"/>
									</g>
								</g>
							</g>
						</g>
					</g>
				</g>
			</g>
		</g>
		<g>
			<g>
				<g>
					<polygon fill="#E9EFF4" points="21.5,17.7 23,20.4 21.5,21.5 22.5,22.2 18,26.4 					"/>
				</g>
			</g>
			<g>
				<g>
					<polygon fill="#E9EFF4" points="14.5,17.7 13,20.4 14.5,21.5 13.5,22.2 18,26.4 					"/>
				</g>
			</g>
		</g>
		<g>
			<g>
				<path fill="#3E4347" d="M9.8,32.1L9.2,34h17.6l-0.6-1.9c-0.6-1.7-0.9-3.4-1-5.3c0-0.6,0.1-1.4,0.2-2.2c0.2-1.3,0.7-2.5,1.2-3.5
					c-0.1-0.1-0.3-0.2-0.4-0.2l-1.9-0.7c-0.6,2.4-2.4,6.3-6.3,9.4c-3.9-3.1-5.6-7.1-6.3-9.4l-1.9,0.7c-0.1,0.1-0.3,0.1-0.4,0.2
					c0.6,1.1,1,2.2,1.2,3.6c0.1,0.8,0.2,1.6,0.2,2.2C10.8,28.6,10.4,30.4,9.8,32.1z"/>
			</g>
		</g>
	</g>
	<g>
		<g>
			<path fill="#6B503B" d="M23,13.9c0.5-5.4-1.8-4.6-1.5-6.5c0,0-2.4,1.4-3.8,0.5c-1.3-0.9-3.3,1.7-3.4,3.4c0,0-0.3-0.9,0.2-1.9
				c0,0-1.5,1.1-1.5,4.4c0,0-1.7-3.7-0.9-8.2c0.8-4.5,8.7-4.8,9.4-1.5C21.5,4.2,25.9,3.3,23,13.9z"/>
		</g>
	</g>
</g>
</svg>
