<?xml version="1.0" encoding="utf-8"?>
<!-- Generator: Adobe Illustrator 18.0.0, SVG Export Plug-In . SVG Version: 6.00 Build 0)  -->
<!DOCTYPE svg PUBLIC "-//W3C//DTD SVG 1.1//EN" "http://www.w3.org/Graphics/SVG/1.1/DTD/svg11.dtd">
<svg version="1.1" id="Layer_1" xmlns="http://www.w3.org/2000/svg" xmlns:xlink="http://www.w3.org/1999/xlink" x="0px" y="0px"
	 viewBox="0 0 36 36" enable-background="new 0 0 36 36" xml:space="preserve">
<g>
	<g>
		<g>
			<g>
				<g>
					<g>
						<g>
							<g>
								<path fill="#FFDC97" d="M13.5,14.8c-0.3-0.4-0.6-0.7-1-0.8c-1-0.3-1.5,0.6-1,2.1c0.3,1.1,0.7,1.9,1.4,1.9
									c0,0,0.4,0.1,0.9-0.1L13.5,14.8z"/>
							</g>
						</g>
					</g>
					<g>
						<g>
							<g>
								<path fill="#FFDC97" d="M22.5,14.8c0.3-0.4,0.6-0.7,1-0.8c1-0.3,1.5,0.6,1,2.1c-0.3,1.1-0.7,1.9-1.4,1.9
									c0,0-0.4,0.1-0.9-0.1L22.5,14.8z"/>
							</g>
						</g>
					</g>
				</g>
				<g>
					<g>
						<g>
							<g>
								<path fill="#3E4347" d="M31.8,34l-2.4-7.7c-0.4-1.2-1.3-2.1-2.5-2.4l-9-2.3l-9,2.3c-1.2,0.3-2.1,1.2-2.5,2.4L4.2,34H31.8z"
									/>
							</g>
						</g>
						<g>
							<g>
								<path fill="#373C3F" d="M24.3,23.7C24.3,23.7,24.3,23.7,24.3,23.7c-2.5,0.4-4.4,2.4-4.8,4.8L19,34h-2l-0.5-5.4
									c-0.4-2.5-2.3-4.4-4.8-4.8c0,0,0,0,0,0l2.8-0.9l3.5,2.5l3.5-2.5L24.3,23.7z"/>
							</g>
						</g>
						<g>
							<g>
								<path fill="#FFD68D" d="M18,25.4c-1.5-0.9-2.8-1.9-3.5-3l0-3.4h7l0,3.4C20.5,23.7,19.3,24.7,18,25.4z"/>
							</g>
						</g>
					</g>
					<g>
						<g>
							<g>
								<g>
									<path fill="#FFDC97" d="M23.5,15.2c0,4.3-3,5.9-4.5,6.4c-0.6,0.2-1.2,0.2-1.8,0c-1.3-0.4-3.7-1.6-4.4-5.3h0.1v-1.5h-0.2
										c0.1-2.9,2.5-5.2,5.5-5.2C21.2,8.5,23.7,10.8,23.5,15.2z"/>
								</g>
							</g>
						</g>
						<g>
							<g>
								<path fill="#3E4347" d="M23.8,15.2c-0.2,0.5-0.3,0.9-0.4,1.3H23c-0.1-1.1-0.3-2.8-0.3-3.5c0.1-1.1-0.8-2-0.8-2l-8.1,1
									c-0.4,0.4-0.3,1-0.3,1.9c0,0.9-0.3,0.5-0.3,1.3c0,0.4,0,0.9,0,1.4h-0.5c0-0.3-0.1-0.7-0.1-0.9c0-0.6-2.4-7.2,3.3-8.7
									c5.7-1.5,6.8,2.4,6.8,2.4C25.1,9.1,24.2,13.7,23.8,15.2z"/>
							</g>
						</g>
						<g>
							<g>
								<path fill="#F4C534" d="M24.2,12.1c0.2-0.6,0.3-1.2,0.3-1.8c0-3.6-2.9-6.5-6.5-6.5s-6.5,2.9-6.5,6.5c0,0.6,0.1,1.2,0.3,1.8
									H24.2z"/>
							</g>
						</g>
						<g>
							<g>
								<path fill="#E9B02C" d="M18,3.9c-1,0-1.9,0.2-2.8,0.6l0.4,6.6h4.7l0.4-6.6C19.9,4.1,19,3.9,18,3.9z"/>
							</g>
							<g>
								<g>
									<path fill="#F4C534" d="M20.3,4.3l0,6.8h-4.7l0-6.8C15.6,1.2,20.3,1.2,20.3,4.3z"/>
								</g>
							</g>
							<g>
								<g>
									<g>
										<path fill="#FFFFFF" d="M19.6,4.5c0,0.9-0.7,1.6-1.6,1.6c-0.9,0-1.6-0.7-1.6-1.6S17.1,3,18,3C18.9,3,19.6,3.7,19.6,4.5z"
											/>
									</g>
								</g>
								<g>
									<g>
										<path fill="#65B1EF" d="M19,4.5c0,0.5-0.4,1-1,1c-0.5,0-1-0.4-1-1s0.4-1,1-1C18.5,3.6,19,4,19,4.5z"/>
									</g>
								</g>
								<g>
									<circle fill="#FFFFFF" cx="18.6" cy="4.1" r="0.3"/>
								</g>
							</g>
						</g>
						<g>
							<g>
								<path fill="#FFD93B" d="M25.2,12.4c-0.1,0.5-0.6,0.7-1.1,0.6c-4-0.9-8.1-0.9-12.1,0c-0.5,0.1-1-0.2-1.1-0.6
									c-0.1-0.5,0.2-1,0.7-1.1c4.3-1,8.7-1,12.9,0C25,11.4,25.3,11.9,25.2,12.4z"/>
							</g>
						</g>
					</g>
				</g>
			</g>
		</g>
	</g>
	<g>
		<g>
			<g>
				<path fill="#5A5F63" d="M21.5,20.4c0,0,0.3,2-3.5,5c0,0,2.7-1.5,4-1.7c1.3-0.1,2.3,0,2.3,0s0-1.9-0.8-2.7S21.5,20.4,21.5,20.4z"
					/>
			</g>
		</g>
		<g>
			<g>
				<path fill="#5A5F63" d="M14.5,20.4c0,0-0.3,2,3.5,5c0,0-2.7-1.5-4-1.7s-2.3,0-2.3,0s0-1.9,0.8-2.7
					C13.4,20.2,14.5,20.4,14.5,20.4z"/>
			</g>
		</g>
	</g>
</g>
</svg>
