<?xml version="1.0" encoding="utf-8"?>
<!-- Generator: Adobe Illustrator 18.0.0, SVG Export Plug-In . SVG Version: 6.00 Build 0)  -->
<!DOCTYPE svg PUBLIC "-//W3C//DTD SVG 1.1//EN" "http://www.w3.org/Graphics/SVG/1.1/DTD/svg11.dtd">
<svg version="1.1" id="Layer_1" xmlns="http://www.w3.org/2000/svg" xmlns:xlink="http://www.w3.org/1999/xlink" x="0px" y="0px"
	 viewBox="0 0 36 36" enable-background="new 0 0 36 36" xml:space="preserve">
<g>
	<g>
		<g>
			<g>
				<g>
					<g>
						<g>
							<path fill="#8CC63E" d="M30,32.9c-8,1.4-16,1.4-24,0c-1-0.2-1.7-1.2-1.6-2.2L5,25.1c0.2-1.4,1-2.6,2.3-3.1
								c7.1-2.9,14.2-2.9,21.4,0c1.3,0.5,2.2,1.7,2.3,3.1l0.6,5.6C31.7,31.8,31.1,32.7,30,32.9z"/>
						</g>
					</g>
					<g>
						<g>
							<g>
								<path fill="#719D34" d="M7.7,31c0.5,0.1,0.5,0.9,0.9,0.5C9,31,9.2,30.2,9,29.7s0-1-0.5-1C7.1,28.8,6.2,30.6,7.7,31z"/>
							</g>
						</g>
						<g>
							<g>
								<path fill="#719D34" d="M22.3,24.5c0.5,0.1,0.5,0.9,0.9,0.5c0.4-0.4,0.6-1.2,0.5-1.8c-0.2-0.6,0-1-0.5-1
									C21.8,22.3,20.9,24.1,22.3,24.5z"/>
							</g>
						</g>
						<g>
							<g>
								<path fill="#7FB239" d="M6.9,25.5c0.5,0.8,0.3,1.7,0.7,1.7s0.9-0.7,0.9-1.6c0-0.9,0.2-1.6-0.2-1.8
									C7.3,23.4,5.8,23.7,6.9,25.5z"/>
							</g>
						</g>
						<g>
							<g>
								<path fill="#7FB239" d="M15.6,25.8c0.5,0.6,0.3,1.4,0.7,1.4s0.9-0.6,0.9-1.3c0-0.7,0.2-1.3-0.2-1.4
									C16,24.2,14.5,24.5,15.6,25.8z"/>
							</g>
						</g>
						<g>
							<g>
								<path fill="#7FB239" d="M6,31.3c0.2,0.3,0.1,0.6,0.3,0.6c0.2,0,0.3-0.3,0.3-0.6s0.1-0.6-0.1-0.6C6.1,30.5,5.6,30.7,6,31.3z"
									/>
							</g>
						</g>
						<g>
							<g>
								<path fill="#719D34" d="M6,28.1c0.2,0.1,0.3,0.4,0.5,0.2c0.2-0.2,0.3-0.6,0.2-0.9c-0.1-0.3,0-0.5-0.2-0.5
									C5.8,27,5.3,27.8,6,28.1z"/>
							</g>
						</g>
					</g>
					<g>
						<g>
							<path fill="#719D34" d="M28.5,31c-0.5,0.1-0.5,0.9-0.9,0.5c-0.4-0.4-0.6-1.2-0.5-1.8s0-1,0.5-1C29,28.8,29.9,30.6,28.5,31z"
								/>
						</g>
					</g>
					<g>
						<g>
							<path fill="#F4C534" d="M21.4,15.8V20c0,0.1,0,0.3,0,0.4c-0.5,3.7-6.2,3.7-6.7,0c0-0.1,0-0.3,0-0.4v-4.2H21.4z"/>
						</g>
					</g>
					<g>
						<g>
							<path fill="#FFD93B" d="M24.2,11.2c0,4.6-2.6,7-4.4,8.1c-1.1,0.7-2.5,0.7-3.6,0c-1.8-1.1-4.4-3.5-4.4-8.1
								c0-3.8,2.8-6.8,6.2-6.8C21.4,4.4,24.2,7.5,24.2,11.2z"/>
						</g>
					</g>
					<g>
						<g>
							<g>
								<g>
									<path fill="#FFD93B" d="M13.1,11.5c-0.3-0.4-0.7-0.7-1.1-0.8c-1.1-0.3-1.6,0.7-1.1,2.2c0.4,1.2,0.8,2.1,1.5,2.1
										c0,0,0.4,0.1,0.9-0.1L13.1,11.5z"/>
								</g>
							</g>
						</g>
						<g>
							<g>
								<g>
									<path fill="#FFD93B" d="M22.9,11.5c0.3-0.4,0.7-0.7,1.1-0.8c1.1-0.3,1.6,0.7,1.1,2.2C24.7,14,24.3,15,23.6,15
										c0,0-0.4,0.1-0.9-0.1L22.9,11.5z"/>
								</g>
							</g>
						</g>
					</g>
				</g>
			</g>
		</g>
		<g>
			<g>
				<path fill="#3E4347" d="M8.3,33.3c6.5,0.9,12.9,0.9,19.4,0c-0.1-1.3-0.3-2.9-0.7-4.5c-0.8-3.5,0-6.1,0.5-7.2
					c-1.4-0.5-2.7-0.9-4.1-1.2c-0.3,0.8-0.6,1.7-0.8,2.9c-0.4,2.6-3.2,3.3-4.6,3.3c-1.4,0-4.2-0.7-4.7-3.3c-0.2-1.1-0.5-2.1-0.8-2.9
					c-1.4,0.3-2.7,0.7-4.1,1.2C9,22.7,9.7,25.2,9,28.7C8.6,30.4,8.4,32,8.3,33.3z"/>
			</g>
		</g>
		<g>
			<g>
				<path fill="#3E4347" d="M24.3,10.7c0,1.7-0.4,3.4-1.3,4.9c-0.6,1-1.3,1.8-2.2,2.6c-0.4,0.3-0.9,0.7-1.3,0.9
					c-0.5,0.2-1,0.1-1.5,0.2c-0.5,0-1,0.1-1.5-0.1c-0.5-0.2-0.9-0.6-1.4-0.9c-0.8-0.7-1.6-1.6-2.1-2.6c-0.9-1.5-1.2-3.2-1.3-4.9h0
					c0,1.7,0.3,3.5,1.1,5c0.5,1,1.2,2,2.1,2.8c0.4,0.4,0.9,0.8,1.4,1.1c0.5,0.4,1.1,0.7,1.8,0.7c0.7,0,1.3-0.3,1.8-0.7
					c0.5-0.4,0.9-0.7,1.4-1.1c0.8-0.8,1.6-1.7,2.1-2.8C24.1,14.2,24.4,12.5,24.3,10.7L24.3,10.7z"/>
			</g>
		</g>
		<g>
			<g>
				<path fill="#7FB239" d="M29.2,25.5c-0.5,0.8-0.3,1.7-0.7,1.7c-0.5,0-0.9-0.7-0.9-1.6c0-0.9-0.2-1.6,0.2-1.8
					C28.8,23.4,30.3,23.7,29.2,25.5z"/>
			</g>
		</g>
		<g>
			<g>
				<path fill="#7FB239" d="M30.2,31.3c-0.2,0.3-0.1,0.6-0.3,0.6c-0.2,0-0.3-0.3-0.3-0.6s-0.1-0.6,0.1-0.6
					C30,30.5,30.5,30.7,30.2,31.3z"/>
			</g>
		</g>
		<g>
			<g>
				<path fill="#7FB239" d="M14.5,22.7c-0.2,0.3-0.1,0.6-0.3,0.6c-0.2,0-0.3-0.3-0.3-0.6s-0.1-0.6,0.1-0.6
					C14.3,21.9,14.9,22,14.5,22.7z"/>
			</g>
		</g>
		<g>
			<g>
				<path fill="#719D34" d="M30.1,28.1c-0.2,0.1-0.3,0.4-0.5,0.2c-0.2-0.2-0.3-0.6-0.2-0.9c0.1-0.3,0-0.5,0.2-0.5
					C30.4,27,30.8,27.8,30.1,28.1z"/>
			</g>
		</g>
		<g>
			<g>
				<path fill="#719D34" d="M19.9,25.1c-0.2,0.1-0.3,0.4-0.5,0.2c-0.2-0.2-0.3-0.6-0.2-0.9c0.1-0.3,0-0.5,0.2-0.5
					C20.2,24,20.7,24.9,19.9,25.1z"/>
			</g>
		</g>
	</g>
	<g>
		<g>
			<g>
				<path fill="#7FB239" d="M25.6,10.3C25.5,5.2,22.2,2,18,2c-4.2,0-7.5,3.2-7.6,8.3H25.6z"/>
			</g>
		</g>
		<g>
			<g>
				<g>
					<path fill="#8CC63E" d="M26.1,10.9c-0.1,0.5-0.5,0.8-1,0.8c-0.1,0-0.2,0-0.2,0c-4.6-1-9.3-1-13.9,0c-0.5,0.1-1.1-0.2-1.2-0.8
						c-0.1-0.5,0.2-1.1,0.8-1.2c4.9-1.1,9.9-1.1,14.8,0C25.9,9.8,26.3,10.3,26.1,10.9z"/>
				</g>
			</g>
		</g>
	</g>
</g>
</svg>
