<?xml version="1.0" encoding="utf-8"?>
<!-- Generator: Adobe Illustrator 18.0.0, SVG Export Plug-In . SVG Version: 6.00 Build 0)  -->
<!DOCTYPE svg PUBLIC "-//W3C//DTD SVG 1.1//EN" "http://www.w3.org/Graphics/SVG/1.1/DTD/svg11.dtd">
<svg version="1.1" id="Layer_1" xmlns="http://www.w3.org/2000/svg" xmlns:xlink="http://www.w3.org/1999/xlink" x="0px" y="0px"
	 viewBox="0 0 36 36" enable-background="new 0 0 36 36" xml:space="preserve">
<g>
	<g>
		<g>
			<rect x="14.5" y="17.5" fill="#F4C534" width="7" height="7"/>
		</g>
	</g>
	<g>
		<g>
			<g>
				<g>
					<path fill="#FFD93B" d="M25.8,15.1c-0.4,1.2-1.1,2.1-1.9,2c-0.8-0.2-1.2-1.3-1-2.6c0.3-1.3,1.1-1.9,1.9-2
						C25.8,12.4,26.2,13.6,25.8,15.1z"/>
				</g>
			</g>
			<g>
				<g>
					<path fill="#FFD93B" d="M10.2,15.1c0.4,1.2,1.1,2.1,1.9,2c0.8-0.2,1.2-1.3,1-2.6c-0.3-1.3-1.1-1.9-1.9-2
						C10.2,12.4,9.8,13.6,10.2,15.1z"/>
				</g>
			</g>
		</g>
		<g>
			<g>
				<path fill="#5A5F63" d="M25.8,9.7c0,4.3-3.5,10-7.8,10c-4.3,0-7.8-5.7-7.8-10C10.2,5.4,13.7,2,18,2c1.6,0,3.1,0.5,4.4,1.3
					c0.6,0.4,0.7,1.3,0.2,1.8l0,0h0c1.2,0,2.4,0.8,2.8,1.9C25.7,7.9,25.8,8.8,25.8,9.7z"/>
			</g>
			<g>
				<path fill="#5A5F63" d="M24.3,5.1"/>
			</g>
		</g>
		<g>
			<g>
				<path fill="#FFD93B" d="M24.3,12.9c0,3.5-2.8,9-6.3,9c-3.5,0-6.3-5.5-6.3-9c0-1.3,0.4-2.5,1.1-3.5c0.4-0.6,1.1-0.8,1.8-0.6
					C15.1,8.9,15.6,9,16.3,9c1.4,0,2.6-0.4,3.4-1.1c0.6-0.5,1.4-0.5,2-0.1C23.3,9,24.3,10.8,24.3,12.9z"/>
			</g>
		</g>
	</g>
	<g>
		<g>
			<g>
				<path fill="#DAE5EF" d="M31.3,34H4.7l2-6.3c0.4-1.1,1.1-2,2.2-2.5l4.4-2l4.8,1.3l4.8-1.3l4.4,2c1,0.5,1.8,1.4,2.2,2.4L31.3,34z"
					/>
			</g>
		</g>
	</g>
	<g>
		<g>
			<g>
				<g>
					<g>
						<g>
							<g>
								<path fill="#4E99D2" d="M20.1,34l-1.2-6.7c-0.6-0.5-1.3-0.5-1.9,0L15.9,34H20.1z"/>
							</g>
						</g>
					</g>
					<g>
						<g>
							<polygon fill="#4E99D2" points="18.9,27.3 19.8,26.4 18,24.6 16.2,26.4 17.1,27.3 							"/>
						</g>
					</g>
				</g>
			</g>
		</g>
	</g>
	<g>
		<g>
			<g>
				<g>
					<circle fill="#FFFFFF" cx="11.1" cy="31.4" r="1.9"/>
				</g>
			</g>
		</g>
		<g>
			<g>
				<g>
					<circle fill="#5A5F63" cx="11.1" cy="31.4" r="1.4"/>
				</g>
			</g>
		</g>
		<g>
			<g>
				<g>
					<g>
						<path fill="#E24B4B" d="M14.3,23.6c-0.1-0.2-0.1-0.4-0.2-0.5c-0.6,0.3-1.2,0.7-1.7,1.3c-1.3,1.5-1.6,3.7-1.7,5.2
							c0,0.5-0.1,1.1-0.4,1.6c-0.1,0.2-0.1,0.4,0,0.7c0.1,0.2,0.2,0.3,0.5,0.4c0.4,0.1,0.8-0.1,0.9-0.5c0.1-0.2,0-0.3,0-0.5
							c-0.3-0.8-0.4-1.6-0.3-2.4c0.2-1.3,0.6-2.9,1.5-4C13.3,24.2,13.8,23.8,14.3,23.6z"/>
					</g>
				</g>
			</g>
		</g>
		<g>
			<g>
				<g>
					<g>
						<path fill="#E24B4B" d="M21.7,22.8c0,0.2,0,0.4,0,0.6c1,0.4,2.1,1.4,2.5,3.8l0.6-0.1C24.3,24.3,22.9,23.2,21.7,22.8z"/>
					</g>
				</g>
			</g>
		</g>
		<g>
			<g>
				<g>
					<path fill="#5A5F63" d="M26.7,31.3c-0.1,0-0.1,0.1-0.2,0.1c-0.2,0-0.4-0.1-0.4-0.3c0-0.2,0.1-0.4,0.3-0.4
						c0.1,0,0.2-0.1,0.2-0.1c0-0.1,0.1-0.2,0-0.2c-0.4-1.6-1.3-2.8-2-2.6c-0.7,0.2-1.1,1.6-0.8,3.2c0,0.1,0.1,0.2,0.1,0.2
						c0.1,0,0.2,0.1,0.2,0c0.2,0,0.4,0.1,0.4,0.3s-0.1,0.4-0.3,0.4c-0.3,0.1-0.6,0-0.8-0.2c-0.2-0.2-0.4-0.4-0.4-0.7
						c-0.3-2.1,0.2-3.8,1.3-4.1c1.1-0.2,2.3,1.1,2.9,3.2c0.1,0.3,0,0.6-0.1,0.8C27.1,31,26.9,31.2,26.7,31.3z"/>
				</g>
			</g>
		</g>
	</g>
	<g>
		<g>
			<g>
				<polygon fill="#E9EFF4" points="21.5,21.9 18,24.6 19.8,27 22.8,23.2 				"/>
			</g>
		</g>
		<g>
			<g>
				<g>
					<polygon fill="#E9EFF4" points="14.5,21.9 18,24.6 16.2,27 13.2,23.2 					"/>
				</g>
			</g>
		</g>
	</g>
</g>
</svg>
