<?xml version="1.0" encoding="utf-8"?>
<!-- Generator: Adobe Illustrator 18.0.0, SVG Export Plug-In . SVG Version: 6.00 Build 0)  -->
<!DOCTYPE svg PUBLIC "-//W3C//DTD SVG 1.1//EN" "http://www.w3.org/Graphics/SVG/1.1/DTD/svg11.dtd">
<svg version="1.1" id="Layer_1" xmlns="http://www.w3.org/2000/svg" xmlns:xlink="http://www.w3.org/1999/xlink" x="0px" y="0px"
	 viewBox="0 0 36 36" enable-background="new 0 0 36 36" xml:space="preserve">
<g>
	<g>
		<g>
			<g>
				<g>
					<rect x="14.5" y="16.8" fill="#F4C534" width="6.9" height="7.4"/>
				</g>
			</g>
		</g>
		<g>
			<g>
				<g>
					<g>
						<g>
							<path fill="#D03F3F" d="M31.9,33.9c-1.3-10.6-7-12.3-13.9-12.3S5.4,23.3,4.1,33.9H31.9z"/>
						</g>
					</g>
				</g>
				<g>
					<g>
						<g>
							<path fill="#E24B4B" d="M22.4,20.3v3c0,0.8-0.5,1.5-1.3,1.8c-2.1,0.7-4.2,0.7-6.3,0c-0.8-0.2-1.3-1-1.3-1.8v-3
								C16.5,21.7,19.5,21.7,22.4,20.3z"/>
						</g>
					</g>
				</g>
			</g>
		</g>
		<g>
			<g>
				<g>
					<g>
						<g>
							<path fill="#FFD93B" d="M24.3,15.5c-0.3,1-0.9,1.7-1.6,1.6c-0.7-0.1-1-1.1-0.8-2.1s0.9-1.6,1.6-1.6
								C24.4,13.3,24.7,14.3,24.3,15.5z"/>
						</g>
					</g>
				</g>
				<g>
					<g>
						<g>
							<path fill="#FFD93B" d="M11.7,15.5c0.3,1,0.9,1.7,1.6,1.6c0.7-0.1,1-1.1,0.8-2.1c-0.2-1-0.9-1.6-1.6-1.6
								C11.6,13.3,11.3,14.3,11.7,15.5z"/>
						</g>
					</g>
				</g>
			</g>
			<g>
				<g>
					<path fill="#5A5F63" d="M24.4,11.1c0,3.5-2.9,8.2-6.4,8.2c-3.5,0-6.4-4.7-6.4-8.2c0-3.5,2.9-6.3,6.4-6.3c1.3,0,2.6,0.4,3.6,1.1
						c0.5,0.3,0.6,1,0.2,1.5l0,0h0c1,0,1.9,0.6,2.3,1.6C24.2,9.6,24.4,10.4,24.4,11.1z"/>
				</g>
			</g>
			<g>
				<g>
					<g>
						<path fill="#FFD93B" d="M23.1,13.7c0,2.8-2.3,7.3-5.1,7.3c-2.8,0-5.1-4.5-5.1-7.3c0-1,0.3-2,0.9-2.8c0.3-0.5,0.9-0.7,1.5-0.5
							c0.4,0.1,0.9,0.2,1.4,0.2c1.1,0,2.1-0.3,2.8-0.9c0.5-0.4,1.2-0.4,1.7-0.1C22.3,10.5,23.1,12,23.1,13.7z"/>
					</g>
				</g>
			</g>
			<g opacity="0.4">
				<g>
					<path fill="#FFFFFF" d="M24,10.8c0,0-1,3.4-1.6,5c-0.6,1.6-2.4-0.4-4.4-0.5c-2.1,0.2-3.8,2.1-4.4,0.5c-0.6-1.6-1.6-5-1.6-5
						l3.5-0.5c1.7-0.2,3.4-0.2,5.1,0L24,10.8z"/>
				</g>
			</g>
			<g opacity="0.15">
				<g>
					<g>
						<path fill="#FFFFFF" d="M22.9,10.6L22,10.5l-1.8,5.4c0.3,0.1,0.6,0.3,0.8,0.3L22.9,10.6z"/>
					</g>
					<g>
						<path fill="#FFFFFF" d="M21.3,10.4l-1.7,5.3c0.1,0.1,0.3,0.1,0.4,0.2l1.7-5.4L21.3,10.4z"/>
					</g>
				</g>
			</g>
		</g>
		<g>
			<g>
				<g>
					<g>
						<g>
							<path fill="#D03F3F" d="M11.1,9.9v0.7c4.6-1,9.1-1,13.7,0V9.9c0-3.8-3.1-6.8-6.8-6.8h0C14.2,3.1,11.1,6.1,11.1,9.9z"/>
						</g>
					</g>
				</g>
				<g>
					<g>
						<g>
							<path fill="#BF3333" d="M20.3,3v7.3h-4.6V3c0-0.5,0.4-0.9,0.9-0.9h2.8C19.9,2.1,20.3,2.5,20.3,3z"/>
						</g>
					</g>
				</g>
				<g>
					<g>
						<g>
							<path fill="#E24B4B" d="M24.9,11.9c-0.1,0-0.2,0-0.3,0c-4.3-1.4-8.9-1.4-13.2,0c-0.5,0.1-1-0.1-1.1-0.6
								c-0.2-0.5,0.1-1,0.6-1.1c4.7-1.5,9.6-1.5,14.3,0c0.5,0.2,0.7,0.6,0.6,1.1C25.6,11.7,25.3,11.9,24.9,11.9z"/>
						</g>
					</g>
				</g>
			</g>
			<g>
				<g>
					<g>
						<path fill="#FFD93B" d="M19.3,5.5c0,0.4-0.1,1.4-1.2,2.1c-0.1,0.1-0.2,0.1-0.3,0c-1.1-0.7-1.2-1.7-1.2-2.1
							c0-0.1,0.1-0.2,0.2-0.2c0.4-0.2,0.8-0.5,1-0.6c0.1-0.1,0.3-0.1,0.4,0c0.2,0.2,0.6,0.4,1,0.6C19.3,5.3,19.3,5.4,19.3,5.5z"/>
					</g>
				</g>
			</g>
		</g>
	</g>
	<g>
		<g>
			<g>
				<g>
					<g>
						<path fill="#FFD93B" d="M11.5,33.9V22.5c-1,0.3-1.9,0.8-2.7,1.4v10H11.5z"/>
					</g>
				</g>
				<g>
					<g>
						<path fill="#FFE9AB" d="M10.5,33.9v-11c-0.3,0.1-0.5,0.2-0.8,0.4v10.6H10.5z"/>
					</g>
				</g>
			</g>
		</g>
		<g>
			<g>
				<g>
					<g>
						<path fill="#FFD93B" d="M27.2,33.9v-10c-0.8-0.6-1.7-1.1-2.7-1.4v11.4H27.2z"/>
					</g>
				</g>
				<g>
					<g>
						<path fill="#FFE9AB" d="M26.2,33.9V23.2c-0.2-0.1-0.5-0.3-0.8-0.4v11H26.2z"/>
					</g>
				</g>
			</g>
		</g>
	</g>
</g>
</svg>
