<?xml version="1.0" encoding="utf-8"?>
<!-- Generator: Adobe Illustrator 18.0.0, SVG Export Plug-In . SVG Version: 6.00 Build 0)  -->
<!DOCTYPE svg PUBLIC "-//W3C//DTD SVG 1.1//EN" "http://www.w3.org/Graphics/SVG/1.1/DTD/svg11.dtd">
<svg version="1.1" id="Layer_1" xmlns="http://www.w3.org/2000/svg" xmlns:xlink="http://www.w3.org/1999/xlink" x="0px" y="0px"
	 viewBox="0 0 36 36" enable-background="new 0 0 36 36" xml:space="preserve">
<g>
	<g>
		<g>
			<g>
				<g>
					<path fill="#DAE5EF" d="M30.7,34H5.3l1-6.1c0.3-1.9,1.8-3.4,3.7-3.8l3.3-0.7l4.6,1.3l4.6-1.3l3.3,0.7c1.9,0.4,3.4,1.9,3.7,3.8
						L30.7,34z"/>
				</g>
			</g>
			<g>
				<g>
					<g>
						<rect x="14.6" y="17.9" fill="#FFD93B" width="6.9" height="6.9"/>
					</g>
				</g>
				<g>
					<g>
						<g>
							<g>
								<path fill="#FFD93B" d="M24.8,17c-0.3,1.1-1,1.9-1.7,1.7c-0.7-0.1-1.1-1.2-0.9-2.3s1-1.7,1.7-1.7
									C24.8,14.6,25.2,15.6,24.8,17z"/>
							</g>
						</g>
						<g>
							<g>
								<path fill="#FFD93B" d="M11.2,17c0.3,1.1,1,1.9,1.7,1.7c0.7-0.1,1.1-1.2,0.9-2.3s-1-1.7-1.7-1.7
									C11.2,14.6,10.8,15.6,11.2,17z"/>
							</g>
						</g>
					</g>
					<g>
						<g>
							<g>
								<path fill="#5A5F63" d="M14,19c-1.7-1.8-2.8-4.5-2.8-6.7c0-3.8,3.1-6.7,6.8-6.7c1.4,0,2.7,0.4,3.8,1.1
									C22.4,7,22.4,7.8,22,8.2c1.1,0,2,0.7,2.4,1.7c0.3,0.7,0.4,1.5,0.4,2.3c0,2.3-1.1,4.9-2.8,6.7l-0.2-5h-7.4L14,19z"/>
							</g>
						</g>
					</g>
					<g>
						<g>
							<path fill="#FFD93B" d="M23.5,15c0,3-2.5,7.8-5.5,7.8c-3,0-5.5-4.8-5.5-7.8c0-1.1,0.3-2.2,0.9-3c0.3-0.5,1-0.7,1.6-0.6
								c0.4,0.1,0.9,0.2,1.5,0.2c1.2,0,2.2-0.4,3-1c0.5-0.4,1.2-0.5,1.8-0.1C22.6,11.6,23.5,13.2,23.5,15z"/>
						</g>
					</g>
				</g>
				<g>
					<g>
						<g>
							<polygon fill="#E9EFF4" points="21.4,22.1 18,24.7 19.7,27.1 22.6,23.4 							"/>
						</g>
					</g>
					<g>
						<g>
							<g>
								<polygon fill="#E9EFF4" points="14.6,22.1 18,24.7 16.3,27.1 13.4,23.4 								"/>
							</g>
						</g>
					</g>
				</g>
			</g>
			<g>
				<g>
					<g>
						<path fill="#8D9BA3" d="M18.5,28.2c0,0.3-0.2,0.5-0.5,0.5c-0.3,0-0.5-0.2-0.5-0.5c0-0.3,0.2-0.5,0.5-0.5
							C18.3,27.7,18.5,27.9,18.5,28.2z"/>
					</g>
				</g>
				<g>
					<g>
						<path fill="#8D9BA3" d="M18.5,31c0,0.3-0.2,0.5-0.5,0.5c-0.3,0-0.5-0.2-0.5-0.5c0-0.3,0.2-0.5,0.5-0.5
							C18.3,30.5,18.5,30.7,18.5,31z"/>
					</g>
				</g>
			</g>
		</g>
	</g>
	<g>
		<g>
			<path fill="#5A5F63" d="M23.5,9.7"/>
		</g>
		<g>
			<g>
				<g>
					<path fill="#E9EFF4" d="M24.9,4.8v6.9c-4.4-1.8-9.4-1.8-13.8,0V4.8c0-0.9,0.6-1.6,1.4-1.9c3.6-1.1,7.4-1.1,11,0
						C24.3,3.1,24.9,3.9,24.9,4.8z"/>
				</g>
			</g>
			<g>
				<g>
					<path fill="#CBD6E0" d="M24.9,4.8v6.9c-4.4-1.8-9.4-1.8-13.8,0V9.1c1.5,0,3.6-0.4,6.5-1c4-0.9,6.8-2.3,6.8-4.5
						c0-0.1,0-0.2,0-0.2C24.7,3.7,24.9,4.2,24.9,4.8z"/>
				</g>
			</g>
			<g>
				<g>
					<path fill="#E9EFF4" d="M25.3,11.1c0,0.8,0,1.5,0,2.3c0,0.2-0.1,0.3-0.3,0.2c-4.4-1.8-9.4-1.8-13.9,0c-0.2,0.1-0.3,0-0.3-0.2
						c0-0.8,0-1.5,0-2.3c0-0.2,0.2-0.4,0.3-0.5c4.4-1.8,9.4-1.8,13.9,0C25.1,10.7,25.3,10.9,25.3,11.1z"/>
				</g>
			</g>
		</g>
	</g>
	<g>
		<g>
			<path fill="#38C0DC" d="M24.8,15.2c-0.9,1.1-1.6,2.5-2.1,3.9C22.2,20.5,21,22.5,18,23c-3-0.5-4.2-2.4-4.7-3.9
				c-0.5-1.4-1.1-2.8-2.1-3.9c-0.2-0.4,0.3-0.7,0.3-0.5c0,0,0.1,0.3,0.4,0.8c0.6,0.9,1.5,1.5,2.6,1.7c0.1,0,0.1,0,0.2,0
				c0.4,0.1,0.9-0.1,1.2-0.4c0.4-0.3,1.2-0.5,2.1-0.5c0.9,0,1.7,0.2,2.1,0.5c0.4,0.3,0.8,0.5,1.2,0.4c0.1,0,0.1,0,0.2,0
				c1-0.2,2-0.8,2.6-1.7c0.3-0.5,0.4-0.8,0.4-0.8C24.5,14.5,24.9,14.8,24.8,15.2z"/>
		</g>
	</g>
</g>
</svg>
