<?xml version="1.0" encoding="utf-8"?>
<!-- Generator: Adobe Illustrator 18.0.0, SVG Export Plug-In . SVG Version: 6.00 Build 0)  -->
<!DOCTYPE svg PUBLIC "-//W3C//DTD SVG 1.1//EN" "http://www.w3.org/Graphics/SVG/1.1/DTD/svg11.dtd">
<svg version="1.1" id="Layer_1" xmlns="http://www.w3.org/2000/svg" xmlns:xlink="http://www.w3.org/1999/xlink" x="0px" y="0px"
	 viewBox="0 0 36 36" enable-background="new 0 0 36 36" xml:space="preserve">
<g>
	<g>
		<g>
			<g>
				<g>
					<g>
						<g>
							<g>
								<g>
									<g>
										<g>
											<g>
												<g>
													<g>
														<path fill="#3E4347" d="M32.1,34.4l-1.5-9c-0.4-1.3-1.4-2.3-2.7-2.6L18,20.3l-9.9,2.6c-1.3,0.3-2.3,1.3-2.7,2.6
															l-1.5,9H32.1z"/>
													</g>
												</g>
											</g>
											<g>
												<g>
													<g>
														<path fill="#FFD68D" d="M22.4,17.2v4.2c-0.1,0.1-0.2,0.3-0.3,0.4c-2.2,2.7-6.5,2.6-8.4-0.3l0,0v-4.2H22.4z"/>
													</g>
												</g>
											</g>
										</g>
									</g>
								</g>
							</g>
						</g>
					</g>
				</g>
			</g>
		</g>
	</g>
	<g>
		<g>
			<g>
				<g>
					<g>
						<g>
							<path fill="#FFE9AB" d="M12.4,13c-0.3-0.5-0.8-0.8-1.2-1c-1.3-0.4-1.9,0.8-1.3,2.6c0.4,1.3,0.9,2.4,1.7,2.4
								c0.1,0,0.5,0.1,1.1-0.1L12.4,13z"/>
						</g>
					</g>
				</g>
			</g>
			<g>
				<g>
					<g>
						<g>
							<path fill="#FFE9AB" d="M23.6,13c0.3-0.5,0.8-0.8,1.2-1c1.3-0.4,1.9,0.8,1.3,2.6c-0.4,1.3-0.9,2.4-1.7,2.4
								c-0.1,0-0.5,0.1-1.1-0.1L23.6,13z"/>
						</g>
					</g>
				</g>
			</g>
		</g>
		<g>
			<g>
				<g>
					<g>
						<g>
							<path fill="#FFE9AB" d="M24.9,13.6c0,5.3-3.7,7.4-5.7,8.1c-0.7,0.3-1.5,0.3-2.3,0c-1.7-0.5-4.6-2.1-5.6-6.6h0.1v-1.8h-0.2
								c0.2-3.6,3.2-6.5,6.8-6.5C22,5.1,25.1,8.1,24.9,13.6z"/>
						</g>
					</g>
				</g>
			</g>
			<g>
				<g>
					<g>
						<path fill="#3E4347" d="M24.7,15.1h-0.5c-0.2-1.4-0.4-3.5-0.3-4.4c0,0,0,0,0,0c0.1-1.4-1.4-2.2-2.6-1.7
							c-2.1,0.9-4.4,1.5-6.6,0.9c-2.9-0.8-2.7,3.5-2.7,3.5c0,0.5,0,1.2-0.1,1.7h-0.6c0-0.4-3.2-11.3,4-13.2C23.1,0,23.9,6,23.9,6
							C28.3,5.5,24.8,14.7,24.7,15.1z"/>
					</g>
				</g>
			</g>
		</g>
	</g>
	<g>
		<g>
			<path fill="#E9EFF4" d="M18,28.8c3.3,0,5.9-3.1,6.1-7c0-0.1-0.4-0.2-0.4-0.1c-0.1,3.7-2.6,6.7-5.7,6.7s-5.6-3-5.7-6.7
				c0-0.1-0.4,0-0.4,0.1C12.1,25.7,14.7,28.8,18,28.8z"/>
		</g>
		<g>
			<g>
				<path fill="#FFD93B" d="M19.8,29.8c0,0.3-0.2,0.5-0.5,0.5h-0.9v2.6c0,0.3-0.2,0.5-0.5,0.5c-0.3,0-0.5-0.2-0.5-0.5v-2.6h-0.9
					c-0.3,0-0.5-0.2-0.5-0.5c0-0.3,0.2-0.5,0.5-0.5h0.9v-0.9c0-0.3,0.2-0.5,0.5-0.5c0.3,0,0.5,0.2,0.5,0.5v0.9h0.9
					C19.6,29.4,19.8,29.6,19.8,29.8z"/>
			</g>
		</g>
	</g>
</g>
</svg>
