<?xml version="1.0" encoding="utf-8"?>
<!-- Generator: Adobe Illustrator 18.0.0, SVG Export Plug-In . SVG Version: 6.00 Build 0)  -->
<!DOCTYPE svg PUBLIC "-//W3C//DTD SVG 1.1//EN" "http://www.w3.org/Graphics/SVG/1.1/DTD/svg11.dtd">
<svg version="1.1" id="Layer_1" xmlns="http://www.w3.org/2000/svg" xmlns:xlink="http://www.w3.org/1999/xlink" x="0px" y="0px"
	 viewBox="0 0 36 36" enable-background="new 0 0 36 36" xml:space="preserve">
<g>
	<g>
		<g>
			<g>
				<g>
					<g>
						<g>
							<path fill="#3E4347" d="M31.3,34c-0.8-12-6-11.8-13.3-11.8S5.5,22,4.7,34H31.3z"/>
						</g>
					</g>
					<g>
						<g>
							<path fill="#E9EFF4" d="M7.7,24.6h20.6c-0.6-0.6-1.2-1.1-1.9-1.4H9.6C8.9,23.5,8.3,24,7.7,24.6z"/>
						</g>
						<g>
							<path fill="#E9EFF4" d="M6,27.4h24c-0.2-0.5-0.4-1-0.7-1.4H6.6C6.4,26.4,6.2,26.9,6,27.4z"/>
						</g>
						<g>
							<path fill="#E9EFF4" d="M5.2,30.2h25.6c-0.1-0.5-0.2-1-0.3-1.4h-25C5.4,29.2,5.3,29.7,5.2,30.2z"/>
						</g>
						<g>
							<path fill="#E9EFF4" d="M4.8,33h26.4c0-0.5-0.1-0.9-0.2-1.4H5C4.9,32,4.8,32.5,4.8,33z"/>
						</g>
					</g>
					<g>
						<g>
							<path fill="#F4C534" d="M22,18.6v3.6c0,0.2-0.1,0.7-0.3,0.9c-0.2,0.4-0.6,0.7-1.1,1c-1.6,1-3.6,0.9-5.2,0
								c-0.4-0.2-0.7-0.5-1-0.8c-0.2-0.3-0.4-0.9-0.5-1.2v-3.6H22z"/>
						</g>
					</g>
				</g>
			</g>
		</g>
	</g>
	<g>
		<g>
			<g>
				<g>
					<g>
						<path fill="#FFD93B" d="M18,5.3c-3.9,0-7.1,1.7-7.1,8.1c0,4.2,2,6.7,3.9,8c1.9,1.4,4.6,1.4,6.5,0c1.9-1.4,3.9-3.8,3.9-8
							C25.1,6.9,21.9,5.3,18,5.3z"/>
					</g>
				</g>
				<g>
					<g>
						<g>
							<path fill="#FFD93B" d="M26.1,15.2c-0.2,1.2-0.9,2.1-1.6,2.1c-0.7,0-1.1-0.9-1.1-2.1c0.1-1.2,0.8-1.8,1.4-2.2
								C25.8,12.3,26.4,13.6,26.1,15.2z"/>
						</g>
					</g>
					<g>
						<g>
							<path fill="#FFD93B" d="M9.9,15.2c0.2,1.2,0.9,2.1,1.6,2.1c0.7,0,1.1-0.9,1.1-2.1c-0.1-1.2-0.8-1.8-1.4-2.2
								C10.2,12.3,9.6,13.6,9.9,15.2z"/>
						</g>
					</g>
				</g>
				<g>
					<g>
						<g>
							<g>
								<g>
									<g>
										<g>
											<path fill="#6B503B" d="M23.8,10.9c0,0.2,0.1,0.4,0.1,0.6l0,0c-0.1,0.9,0.2,2.9,0.3,4.3h0.5c0.1-0.4,0.3-1,0.5-1.6
												c0.2-0.7,0.5-2,0.6-3.3H23.8z"/>
										</g>
										<g>
											<path fill="#6B503B" d="M10.7,10.9c0.1,1.9,0.6,3.5,0.6,3.8c0,0.3,0,0.8,0.1,1.2h0.6c0-0.6,0-1.2,0-1.7
												c0-0.9,0.4-0.4,0.4-1.6c0-0.4,0-0.8,0-1.1c0-0.2,0.1-0.4,0.2-0.6H10.7z"/>
										</g>
										<g>
											<path fill="#6B503B" d="M15.1,10.9c1,0.2,2,0.2,3.1,0H15.1z"/>
										</g>
									</g>
								</g>
							</g>
						</g>
					</g>
				</g>
				<g>
					<g>
						<path fill="#3E4347" d="M25.8,10.2c0-0.2,0-0.3,0-0.5C25.8,5.5,22.3,2,18,2c-4.3,0-7.8,3.5-7.8,7.8c0,0.2,0,0.3,0,0.5H25.8z"
							/>
					</g>
				</g>
			</g>
		</g>
		<g>
			<g>
				<path fill="#5A5F63" d="M26.6,10.7c-0.1,0.6-0.7,1-1.3,0.9c-4.8-0.7-9.7-0.7-14.5,0c-0.6,0.1-1.2-0.3-1.3-0.9
					c-0.1-0.6,0.3-1.2,1-1.3c5-0.8,10.2-0.8,15.2,0C26.3,9.5,26.7,10.1,26.6,10.7z"/>
			</g>
		</g>
		<g>
			<g>
				<g>
					<path fill="#3E4347" d="M24.1,13.9c-1.3-1.4-2.9-1.8-4.4-1.3c-1.1,0.4-2.3,0.4-3.3,0c-1.5-0.6-3.1-0.1-4.4,1.3
						c-0.3,0.3-0.3,0.9,0,1.2c0.9,1,2,1.5,3.1,1.5c2.6,0,1.4-2,4.8-0.2c0.4,0.1,0.8,0.2,1.2,0.2c1.1,0,2.2-0.5,3.1-1.5
						C24.3,14.7,24.4,14.2,24.1,13.9z M16.8,14.9c-0.5,0.5-1.1,0.7-1.7,0.7c-0.6,0-1.2-0.2-1.7-0.7c-0.2-0.2-0.2-0.6,0-0.8
						c1-1,2.4-1,3.4,0C17,14.2,17,14.6,16.8,14.9z M22.7,14.9c-0.5,0.5-1.1,0.7-1.7,0.7c-0.6,0-1.2-0.2-1.7-0.7
						c-0.2-0.2-0.2-0.6,0-0.8c1-1,2.4-1,3.4,0C22.9,14.2,22.9,14.6,22.7,14.9z"/>
				</g>
			</g>
		</g>
	</g>
</g>
</svg>
