<?xml version="1.0" encoding="utf-8"?>
<!-- Generator: Adobe Illustrator 18.0.0, SVG Export Plug-In . SVG Version: 6.00 Build 0)  -->
<!DOCTYPE svg PUBLIC "-//W3C//DTD SVG 1.1//EN" "http://www.w3.org/Graphics/SVG/1.1/DTD/svg11.dtd">
<svg version="1.1" id="Layer_1" xmlns="http://www.w3.org/2000/svg" xmlns:xlink="http://www.w3.org/1999/xlink" x="0px" y="0px"
	 viewBox="0 0 36 36" enable-background="new 0 0 36 36" xml:space="preserve">
<g>
	<g>
		<g>
			<g>
				<path fill="#3E4347" d="M31.4,34c-0.8-12.3-6.2-12.1-13.6-12.1S5,21.7,4.2,34H31.4z"/>
			</g>
		</g>
		<g>
			<g>
				<g>
					<path fill="#F4C534" d="M13.7,18.2v4c0.1,0.3,0.3,0.6,0.5,0.9c1.9,2.5,5.9,2.5,7.5-0.2c0.1-0.3,0.2-0.5,0.3-0.7v-4H13.7z"/>
				</g>
			</g>
			<g>
				<g>
					<g>
						<g>
							<g>
								<g>
									<g>
										<g>
											<path fill="#FFD93B" d="M12.2,13.1c-0.3-0.5-0.8-0.8-1.2-1c-1.3-0.4-1.9,0.8-1.3,2.6c0.4,1.3,0.9,2.4,1.7,2.4
												c0.1,0,0.5,0.1,1.1-0.1L12.2,13.1z"/>
										</g>
									</g>
								</g>
							</g>
							<g>
								<g>
									<g>
										<g>
											<path fill="#FFD93B" d="M23.4,13.1c0.3-0.5,0.8-0.8,1.2-1c1.3-0.4,1.9,0.8,1.3,2.6c-0.4,1.3-0.9,2.4-1.7,2.4
												c-0.1,0-0.5,0.1-1.1-0.1L23.4,13.1z"/>
										</g>
									</g>
								</g>
							</g>
						</g>
						<g>
							<g>
								<g>
									<g>
										<g>
											<path fill="#FFD93B" d="M24.7,13.6c0,5.3-3.7,7.4-5.7,8.1c-0.7,0.3-1.5,0.3-2.3,0c-1.7-0.5-4.6-2.1-5.6-6.6h0.1v-1.8H11
												c0.2-3.6,3.2-6.5,6.8-6.5C21.8,5.2,24.9,8.1,24.7,13.6z"/>
										</g>
									</g>
								</g>
							</g>
							<g>
								<g>
									<g>
										<path fill="#3E4347" d="M25,14.8c-0.2,0.6-0.4,1.2-0.5,1.6h-0.5c-0.2-1.4-0.4-3.5-0.3-4.4l0,0c0.1-1.4-1.3-2.3-2.5-1.7
											c-2.9,1.5-5.5,1.5-7.7,0.8c-0.6-0.2-1.3,0.2-1.3,0.9c0,0.3,0,0.7,0,1.1c0,1.2-0.4,0.6-0.4,1.6c0,0.5,0,1.2-0.1,1.7h-0.6
											c0-0.4-0.1-0.9-0.1-1.2c0-0.8-3-9.9,4.1-11.8s8.5,3.9,8.5,3.9C26.8,6.4,25.6,13,25,14.8z"/>
									</g>
								</g>
							</g>
						</g>
					</g>
				</g>
			</g>
		</g>
		<g>
			<g>
				<g>
					<path fill="#E24B4B" d="M25.8,11.2C25.7,4.2,22.3,2,18.1,2c-4.3,0-7.7,2.2-7.7,9.2C15.5,10.1,20.6,10.1,25.8,11.2z"/>
				</g>
			</g>
			<g>
				<path fill="#D03F3F" d="M18.1,2L18.1,2c-1.7,0-3,2.1-3.1,8.5c1-0.1,2.1-0.1,3.1-0.1c0,0,0,0,0,0c1,0,2.1,0.1,3.1,0.1
					C21.1,4.1,19.7,2,18.1,2z"/>
			</g>
		</g>
		<g>
			<g>
				<path fill="#E24B4B" d="M23,8l8.8,2.6c0,0-0.6,1.3-2.4,1.4s-5.6-1.5-5.6-1.5L23,8z"/>
			</g>
		</g>
	</g>
	<g>
		<g>
			<path fill="#FFD93B" d="M17.8,27.4c2.9,0,5.3-2.4,5.4-5.3c0-0.2-0.6-0.3-0.6-0.1c0,2.6-2.2,4.7-4.8,4.7S13,24.6,13,22
				c0-0.2-0.6-0.1-0.6,0.1C12.5,25,14.9,27.4,17.8,27.4z"/>
		</g>
		<g>
			<g>
				<g>
					<g>
						<path fill="#FFFFFF" d="M17.6,31.3V30c-0.4-0.1-0.7-0.3-0.9-0.5c-0.2-0.2-0.3-0.5-0.3-0.8c0-0.3,0.1-0.6,0.3-0.8
							s0.5-0.3,0.8-0.4v-0.3H18v0.3c0.3,0,0.6,0.1,0.8,0.3s0.3,0.4,0.4,0.7l-0.8,0.1c0-0.2-0.2-0.4-0.4-0.5v1.2
							c0.5,0.1,0.8,0.3,1,0.5c0.2,0.2,0.3,0.5,0.3,0.8c0,0.4-0.1,0.7-0.3,0.9c-0.2,0.2-0.5,0.4-0.9,0.5v0.6h-0.4V32
							c-0.3,0-0.6-0.2-0.8-0.4c-0.2-0.2-0.4-0.5-0.4-0.9l0.8-0.1c0,0.2,0.1,0.3,0.2,0.4S17.5,31.2,17.6,31.3z M17.6,28.1
							c-0.1,0-0.2,0.1-0.3,0.2c-0.1,0.1-0.1,0.2-0.1,0.3c0,0.1,0,0.2,0.1,0.3c0.1,0.1,0.2,0.2,0.3,0.2V28.1z M18,31.3
							c0.1,0,0.3-0.1,0.4-0.2c0.1-0.1,0.1-0.2,0.1-0.4c0-0.1,0-0.2-0.1-0.3c-0.1-0.1-0.2-0.2-0.4-0.2V31.3z"/>
					</g>
				</g>
			</g>
			<g>
				<g>
					<path fill="#FFFFFF" d="M18.1,27.6h-0.7l0-0.9c0-0.2,0.7-0.2,0.7,0L18.1,27.6z"/>
				</g>
			</g>
		</g>
	</g>
</g>
</svg>
