<?xml version="1.0" encoding="utf-8"?>
<!-- Generator: Adobe Illustrator 18.0.0, SVG Export Plug-In . SVG Version: 6.00 Build 0)  -->
<!DOCTYPE svg PUBLIC "-//W3C//DTD SVG 1.1//EN" "http://www.w3.org/Graphics/SVG/1.1/DTD/svg11.dtd">
<svg version="1.1" id="Layer_1" xmlns="http://www.w3.org/2000/svg" xmlns:xlink="http://www.w3.org/1999/xlink" x="0px" y="0px"
	 viewBox="0 0 36 36" enable-background="new 0 0 36 36" xml:space="preserve">
<g>
	<g>
		<g>
			<g>
				<g>
					<g>
						<g>
							<g>
								<g>
									<g>
										<path fill="#DAE5EF" d="M5.9,34l1.3-7.3c0.3-1.1,1.2-2,2.3-2.3l8.5-2.2l8.5,2.2c1.1,0.3,2,1.1,2.3,2.3l1.3,7.3H5.9z"/>
									</g>
								</g>
								<g>
									<g>
										<path fill="#F4C534" d="M5.9,34l1.3-7.3c0.3-1.1,1.2-2,2.3-2.3l8.5-2.2l8.5,2.2c1.1,0.3,2,1.1,2.3,2.3l1.3,7.3H5.9z"/>
									</g>
								</g>
							</g>
						</g>
					</g>
				</g>
			</g>
		</g>
	</g>
	<g>
		<g>
			<path fill="#6B503B" d="M10,24.3c0.4,1.8,0.5,8.5-0.1,9.7h16c-0.6-1.2-0.4-7.9-0.1-9.7c0,0,0,0,0,0l-8-2.1L10,24.3z"/>
		</g>
	</g>
	<g>
		<g>
			<path fill="#F4C534" d="M14.7,19.9v3.2c0.1,0.2,0.2,0.5,0.4,0.7c1.5,2,4.7,2,5.9-0.2c0.1-0.2,0.2-0.4,0.2-0.6v-3.2H14.7z"/>
		</g>
	</g>
	<g>
		<g>
			<g>
				<g>
					<g>
						<g>
							<g>
								<g>
									<path fill="#FFD93B" d="M13.6,16.5c-0.3-0.4-0.6-0.7-1-0.8c-1-0.3-1.5,0.6-1,2c0.3,1,0.7,1.9,1.3,1.9c0,0,0.4,0.1,0.8-0.1
										L13.6,16.5z"/>
								</g>
							</g>
						</g>
					</g>
					<g>
						<g>
							<g>
								<g>
									<path fill="#FFD93B" d="M22.4,16.5c0.3-0.4,0.6-0.7,1-0.8c1-0.3,1.5,0.6,1,2c-0.3,1-0.7,1.9-1.3,1.9c0,0-0.4,0.1-0.8-0.1
										L22.4,16.5z"/>
								</g>
							</g>
						</g>
					</g>
				</g>
				<g>
					<g>
						<g>
							<g>
								<g>
									<path fill="#FFD93B" d="M23.4,16.9c0,4.2-2.9,5.8-4.5,6.4c-0.6,0.2-1.2,0.2-1.8,0c-1.3-0.4-3.7-1.6-4.4-5.2h0.1v-1.4h-0.2
										c0.1-2.9,2.5-5.2,5.4-5.2C21.2,10.2,23.6,12.6,23.4,16.9z"/>
								</g>
							</g>
						</g>
					</g>
					<g>
						<g>
							<g>
								<path fill="#6B503B" d="M23.7,16.9c-0.1,0.5-0.3,0.9-0.4,1.3H23c-0.1-1.1-0.3-2.7-0.2-3.5l0,0c0.1-1.1-1-1.8-2-1.3
									c-2.3,1.2-4.3,1.2-6.1,0.6c-0.5-0.2-1,0.2-1,0.7c0,0.2,0,0.5,0,0.9c0,0.9-0.3,0.5-0.3,1.2c0,0.4,0,0.9,0,1.4h-0.5
									c0-0.3,0-0.7,0-0.9c0-0.6-2.4-7.8,3.3-9.3s6.7,3.1,6.7,3.1C25.1,10.2,24.1,15.4,23.7,16.9z"/>
							</g>
						</g>
					</g>
				</g>
			</g>
		</g>
	</g>
	<g>
		<g>
			<g>
				<g>
					<g>
						<path fill="#E9EFF4" d="M25,6.9c-0.2,1-0.6,1.9-1.3,2.6c-0.5-0.8-1.1-1.6-1.9-2.1c0.8-0.9,1.2-2.1,1.2-3.3
							c0-0.6-0.1-1.1-0.3-1.6c-0.1-0.3,0.2-0.5,0.4-0.3C24.6,3.2,25.3,4.9,25,6.9z"/>
					</g>
				</g>
				<g>
					<g>
						<path fill="#5A5F63" d="M24.1,9.3c-0.1,0.2-0.3,0.4-0.4,0.6c-0.5-1-1.3-1.8-2.2-2.4c0.1-0.2,0.3-0.4,0.4-0.5
							c0.1-0.1,0.2-0.1,0.2,0c0.8,0.6,1.5,1.4,2,2.3C24.2,9.1,24.2,9.2,24.1,9.3z"/>
					</g>
				</g>
			</g>
			<g>
				<g>
					<g>
						<path fill="#E9EFF4" d="M11,6.9c0.2,1,0.6,1.9,1.3,2.6c0.5-0.8,1.1-1.6,1.9-2.1c-0.8-0.9-1.2-2.1-1.2-3.3
							c0-0.6,0.1-1.1,0.3-1.6c0.1-0.3-0.2-0.5-0.4-0.3C11.4,3.2,10.7,4.9,11,6.9z"/>
					</g>
				</g>
				<g>
					<g>
						<path fill="#5A5F63" d="M11.9,9.3c0.1,0.2,0.3,0.4,0.4,0.6c0.5-1,1.3-1.8,2.2-2.4c-0.1-0.2-0.3-0.4-0.4-0.5
							c-0.1-0.1-0.2-0.1-0.2,0c-0.8,0.6-1.5,1.4-2,2.3C11.8,9.1,11.8,9.2,11.9,9.3z"/>
					</g>
				</g>
			</g>
		</g>
		<g>
			<g>
				<g>
					<path fill="#3E4347" d="M24.5,13.5c0-0.3,0.1-0.6,0.1-0.9c0-3.6-2.9-6.5-6.5-6.5s-6.5,2.9-6.5,6.5c0,0.3,0,0.6,0.1,0.9H24.5z"
						/>
				</g>
			</g>
			<g>
				<g>
					<path fill="#33393D" d="M19.8,6.3v6.4h-3.6V6.3C16.2,5.4,19.8,5.4,19.8,6.3z"/>
				</g>
			</g>
			<g>
				<g>
					<path fill="#5A5F63" d="M24.2,14.5c-4.1-0.8-8.3-0.8-12.4,0c-0.5,0.1-0.9-0.2-1-0.6l0,0c-0.1-0.4,0.2-0.9,0.7-1
						c4.3-0.8,8.7-0.8,13,0c0.5,0.1,0.8,0.5,0.7,1l0,0C25.1,14.4,24.6,14.6,24.2,14.5z"/>
				</g>
			</g>
		</g>
	</g>
</g>
</svg>
