<?xml version="1.0" encoding="utf-8"?>
<!-- Generator: Adobe Illustrator 18.0.0, SVG Export Plug-In . SVG Version: 6.00 Build 0)  -->
<!DOCTYPE svg PUBLIC "-//W3C//DTD SVG 1.1//EN" "http://www.w3.org/Graphics/SVG/1.1/DTD/svg11.dtd">
<svg version="1.1" id="Layer_1" xmlns="http://www.w3.org/2000/svg" xmlns:xlink="http://www.w3.org/1999/xlink" x="0px" y="0px"
	 viewBox="0 0 36 36" enable-background="new 0 0 36 36" xml:space="preserve">
<g>
	<g>
		<g>
			<g>
				<path fill="#6B503B" d="M28.3,26.1c-2.5-2.9-3.9-6.5-3.9-10.2v-5.1H11.7v5.1c0,3.7-1.4,7.3-3.9,10.2H28.3z"/>
			</g>
		</g>
		<g>
			<g>
				<g>
					<g>
						<path fill="#E24B4B" d="M27.5,24.6c-6.3-2.2-12.7-2.2-19,0c-1.1,0.4-1.9,1.3-2,2.5L5.6,34h24.8l-0.9-6.9
							C29.4,25.9,28.6,25,27.5,24.6z"/>
					</g>
				</g>
				<g>
					<path fill="#E9EFF4" d="M21.8,29.5c2,0,3.7-2.1,4.6-5.3c-5.6-1.7-11.2-1.7-16.8,0c1,3.2,2.7,5.3,4.6,5.3c1.5,0,2.8-0.6,3.8-1.6
						C19,28.9,20.3,29.5,21.8,29.5z"/>
				</g>
			</g>
			<g>
				<g>
					<g>
						<g>
							<g>
								<g>
									<g>
										<g>
											<g>
												<g>
													<g>
														<g>
															<g>
																<g>
																	<g>
																		<path fill="#FFE9AB" d="M13.2,15.1c-0.3-0.4-0.6-0.7-1-0.8c-1.1-0.3-1.6,0.7-1.1,2.2c0.4,1.1,0.8,2.1,1.4,2.1
																			c0,0,0.4,0.1,0.9-0.1L13.2,15.1z"/>
																	</g>
																</g>
															</g>
															<g>
																<g>
																	<g>
																		<path fill="#FFE9AB" d="M22.7,15.1c0.3-0.4,0.6-0.7,1-0.8c1.1-0.3,1.6,0.7,1.1,2.2c-0.4,1.1-0.8,2.1-1.4,2.1
																			c0,0-0.4,0.1-0.9-0.1L22.7,15.1z"/>
																	</g>
																</g>
															</g>
														</g>
														<g>
															<g>
																<g>
																	<g>
																		<path fill="#FFD68D" d="M21.7,19.6v3.6l-0.5,0.7c-1.6,2.2-4.9,2.2-6.4,0l-0.5-0.7v-3.6H21.7z"/>
																	</g>
																</g>
															</g>
															<g>
																<g>
																	<g>
																		<g>
																			<path fill="#FFE9AB" d="M23.8,15.5c0,4.5-3.2,6.3-4.8,6.9c-0.6,0.2-1.3,0.2-2,0c-1.4-0.5-3.9-1.7-4.7-5.6h0.1
																				v-1.5h-0.2c0.1-3.1,2.7-5.5,5.8-5.5C21.4,8.4,24,10.9,23.8,15.5z"/>
																		</g>
																	</g>
																</g>
															</g>
														</g>
													</g>
												</g>
											</g>
										</g>
										<g>
											<g>
												<path fill="#6B503B" d="M12.7,17.6c-0.5-5.8,2-4.9,1.6-6.9c1.8,1.5,3.8,2.4,5.9,2.4c1.3,0,2.5,0.9,2.8,2.1
													c0.2,0.6,0.3,1.4,0.3,2.4c0,0,1.9-3.9,0.9-8.7c-0.9-4.8-9.3-5.1-10-1.6C14.3,7.3,9.6,6.3,12.7,17.6z"/>
											</g>
										</g>
									</g>
								</g>
							</g>
						</g>
					</g>
				</g>
			</g>
		</g>
	</g>
	<g>
		<g>
			<g>
				<g>
					<g>
						<circle fill="#FFD93B" cx="18" cy="3" r="1"/>
					</g>
				</g>
				<g>
					<g>
						<g>
							<g>
								<g>
									<circle fill="#FFD93B" cx="22.4" cy="4.9" r="0.8"/>
								</g>
							</g>
							<g>
								<g>
									<circle fill="#FFD93B" cx="24.5" cy="6.6" r="0.8"/>
								</g>
							</g>
						</g>
					</g>
					<g>
						<g>
							<g>
								<g>
									<circle fill="#FFD93B" cx="13.6" cy="4.9" r="0.8"/>
								</g>
							</g>
							<g>
								<g>
									<circle fill="#FFD93B" cx="11.5" cy="6.6" r="0.8"/>
								</g>
							</g>
						</g>
					</g>
				</g>
			</g>
			<g>
				<g>
					<g>
						<g>
							<g>
								<path fill="#FFD93B" d="M25,9.4C25,9.4,25,9.4,25,9.4c-0.4-0.3-0.6-0.7-0.6-1.1c0.1-0.5,0.2-1.1,0.2-1.6
									c-0.2,0-0.3-0.1-0.4-0.2c-0.5,0.8-1.3,1.9-1.7,2c-0.3,0.1-0.7,0.1-0.8-0.2c-0.2-0.4,0.2-1.9,0.7-3.2c-0.1,0-0.2-0.1-0.3-0.1
									c-0.4,0.8-0.9,1.6-1.1,2.2c-0.4,1.1-1.6,1.2-1.9,0.5c-0.2-0.4-0.6-2.5-0.8-4.2c-0.1,0-0.1,0-0.2,0c-0.1,0-0.2,0-0.3,0
									c-0.2,1.7-0.6,3.9-0.8,4.2c-0.4,0.7-1.5,0.6-1.9-0.5c-0.2-0.5-0.7-1.4-1.1-2.2c-0.1,0.1-0.2,0.1-0.3,0.2
									c0.4,1.2,0.9,2.8,0.7,3.2c-0.1,0.3-0.5,0.3-0.8,0.2c-0.5-0.1-1.2-1.2-1.7-2.1c-0.1,0.1-0.2,0.1-0.4,0.1
									c0.1,0.6,0.2,1.1,0.2,1.7c0.1,0.4-0.2,0.8-0.5,1.1c0,0,0,0,0,0c-0.8,0.5-0.5,1.7,0.4,1.9c4.4,0.9,8.8,0.9,13.1,0
									C25.5,11.1,25.8,9.9,25,9.4z"/>
							</g>
						</g>
					</g>
				</g>
			</g>
		</g>
		<g>
			<g>
				<g>
					<circle fill="#E24B4B" cx="12.9" cy="10.1" r="0.6"/>
				</g>
			</g>
			<g>
				<g>
					<circle fill="#E24B4B" cx="15.2" cy="10.3" r="0.7"/>
				</g>
			</g>
			<g>
				<circle fill="#E24B4B" cx="18" cy="10.4" r="0.8"/>
			</g>
			<g>
				<g>
					<circle fill="#E24B4B" cx="23.1" cy="10.1" r="0.6"/>
				</g>
			</g>
			<g>
				<g>
					<circle fill="#E24B4B" cx="20.8" cy="10.3" r="0.7"/>
				</g>
			</g>
		</g>
	</g>
</g>
</svg>
