<?xml version="1.0" encoding="utf-8"?>
<!-- Generator: Adobe Illustrator 18.0.0, SVG Export Plug-In . SVG Version: 6.00 Build 0)  -->
<!DOCTYPE svg PUBLIC "-//W3C//DTD SVG 1.1//EN" "http://www.w3.org/Graphics/SVG/1.1/DTD/svg11.dtd">
<svg version="1.1" id="Layer_1" xmlns="http://www.w3.org/2000/svg" xmlns:xlink="http://www.w3.org/1999/xlink" x="0px" y="0px"
	 viewBox="0 0 36 36" enable-background="new 0 0 36 36" xml:space="preserve">
<g>
	<g>
		<g>
			<g>
				<g>
					<path fill="#FFD93B" d="M24.8,13.8L24.8,13.8L24.8,13.8z"/>
				</g>
			</g>
			<g>
				<g>
					<g>
						<g>
							<g>
								<g>
									<g>
										<g>
											<g>
												<g>
													<g>
														<g>
															<g>
																<g>
																	<g>
																		<g>
																			<g>
																				<g>
																					<g>
																						<path fill="#FFDC97" d="M20.5,18.9h-5.1v0.8c0,2.1-0.6,4.2-1.9,5.9v3.3h8.9v-3.3c-1.2-1.7-1.9-3.8-1.9-5.9
																							V18.9z"/>
																					</g>
																				</g>
																			</g>
																		</g>
																	</g>
																</g>
															</g>
														</g>
													</g>
												</g>
											</g>
										</g>
									</g>
								</g>
							</g>
						</g>
						<g>
							<g>
								<g>
									<g>
										<path fill="#E24B4B" d="M30.9,29.7v2.6c0,0.9-0.7,1.6-1.6,1.6H6.8c-0.9,0-1.6-0.7-1.6-1.6v-2.6c0-1.1,0.6-2.2,1.7-2.7
											l8.2-3.8l3,2.7l3-2.7l8.2,3.8C30.2,27.5,30.9,28.6,30.9,29.7z"/>
									</g>
								</g>
							</g>
						</g>
						<g>
							<g>
								<g>
									<g>
										<g>
											<path fill="#FFFFFF" d="M21.6,24.5l-1.4,2.7c-0.1,0.2-0.4,0.3-0.6,0.1L18,25.9l2.9-3.5l0.7,1.8
												C21.6,24.3,21.6,24.4,21.6,24.5z"/>
										</g>
									</g>
								</g>
								<g>
									<g>
										<g>
											<path fill="#FFFFFF" d="M15.1,22.4l2.9,3.5l-1.6,1.4c-0.2,0.2-0.5,0.1-0.6-0.1l-1.4-2.7c0-0.1-0.1-0.2,0-0.3L15.1,22.4z"
												/>
										</g>
									</g>
								</g>
							</g>
						</g>
						<g>
							<g>
								<g>
									<g>
										<path fill="#FFE9AB" d="M23.6,15.8c0,4.6-3,6.3-4.7,6.9c-0.7,0.2-1.4,0.2-2,0c-1.6-0.6-4.7-2.2-4.7-6.9
											c0-3.9,2.5-7.1,5.7-7.1C21.1,8.7,23.6,11.9,23.6,15.8z"/>
									</g>
								</g>
							</g>
							<g>
								<g>
									<g>
										<g>
											
												<ellipse transform="matrix(0.9947 0.1024 -0.1024 0.9947 1.8165 -2.3033)" fill="#FFE9AB" cx="23.3" cy="16.5" rx="1.1" ry="1.7"/>
										</g>
									</g>
								</g>
								<g>
									<g>
										<g>
											
												<ellipse transform="matrix(-0.9947 0.1024 -0.1024 -0.9947 26.6759 31.7192)" fill="#FFE9AB" cx="12.5" cy="16.5" rx="1.1" ry="1.7"/>
										</g>
									</g>
								</g>
							</g>
							<g>
								<g>
									<g>
										<path fill="#5A5F63" d="M12,10.2c-0.4,2.2,0.5,6,1.1,6.6l0.8-3.8c1.6,0,2-1.4,2-1.4c2.7,2.6,6.2,0.9,6.2,0.9l0.9,4.4
											c1.5-2.7,1.4-4.9,0.5-6.6H12z"/>
									</g>
								</g>
							</g>
						</g>
					</g>
				</g>
			</g>
		</g>
	</g>
	<g>
		<g>
			<g>
				<g>
					<g>
						<g>
							<path fill="#F4C534" d="M24.8,11.3c0,0.7-0.8,0.9-1.1,1c-0.3,0.1-0.8,0.2-1.5,0.2c-1.2,0.1-2.8,0.2-4.6,0.2
								c-1.7,0-3.3-0.1-4.6-0.2c-0.6-0.1-1.1-0.1-1.5-0.2c-0.3-0.1-1.1-0.3-1.1-1c0-0.7,0.8-0.9,1.1-1c0.3-0.1,0.8-0.2,1.5-0.2
								c1.2-0.1,2.8-0.2,4.6-0.2c1.7,0,3.3,0.1,4.6,0.2c0.6,0.1,1.1,0.1,1.5,0.2C24.1,10.3,24.8,10.5,24.8,11.3z"/>
						</g>
					</g>
				</g>
			</g>
			<g>
				<g>
					<g>
						<g>
							<path fill="#E9B02C" d="M24.1,6.9c-0.6,0.7-2.8,0.9-6.4,0.9s-5.6-0.2-6.4-0.9v4.4c0,0.4,2.8,0.6,6.4,0.6s6.4-0.3,6.4-0.6V6.9
								z"/>
						</g>
					</g>
				</g>
			</g>
			<g>
				<g>
					<g>
						<path fill="#F4C534" d="M24.5,7.9c-0.2,0.2-0.6,0.3-0.7,0.3c-0.3,0.1-0.8,0.2-1.5,0.2c-1.2,0.1-2.8,0.2-4.6,0.2
							c-1.7,0-3.3-0.1-4.6-0.2c-0.6-0.1-1.1-0.1-1.5-0.2c-0.2,0-0.5-0.1-0.7-0.3c-0.4-0.4-0.3-0.7,0.3-0.7c4.8,0.7,9.3,0.9,13,0
							C24.8,7.2,24.9,7.5,24.5,7.9z"/>
					</g>
				</g>
			</g>
			<g>
				<g>
					<g>
						<path fill="#FFD93B" d="M10.6,3.3l2.8,4.1c0,0,1.8,0.5,1.7-4.2l0.9-0.1c0,0,0.7,3.2,3.2,4.5c0,0,1.5-0.8,3.4-4.5l0.8,0.5
							c0,0-0.9,1.4,0.2,3.7c0,0,1-3,1.9-3.8l0.2,0.1c0,0-1,1.8-1.4,3.6c0,0.9-12.7,0.9-12.7,0c0,0,0-1.9-1.2-3.4L10.6,3.3z"/>
					</g>
				</g>
			</g>
			<g>
				<g>
					<g>
						<g>
							<ellipse fill="#FFD93B" cx="23.1" cy="2.9" rx="0.8" ry="0.9"/>
						</g>
					</g>
				</g>
				<g>
					<g>
						<g>
							<ellipse fill="#FFD93B" cx="15.5" cy="2.9" rx="0.8" ry="0.9"/>
						</g>
					</g>
				</g>
				<g>
					<g>
						<g>
							<ellipse fill="#FFD93B" cx="25.6" cy="3.3" rx="0.7" ry="0.7"/>
						</g>
					</g>
				</g>
				<g>
					<g>
						<g>
							<ellipse fill="#FFD93B" cx="10.3" cy="3.3" rx="0.7" ry="0.7"/>
						</g>
					</g>
				</g>
			</g>
		</g>
		<g>
			<g>
				<g>
					<g>
						<path fill="#BB3166" d="M23.8,9.5c0,0.3,0.1,0.6,0.4,0.6c0.1,0,0.2-0.3,0.2-0.6s-0.1-0.6-0.2-0.6C23.9,8.9,23.8,9.1,23.8,9.5z
							"/>
					</g>
				</g>
			</g>
			<g>
				<g>
					<g>
						<ellipse fill="#E84D88" cx="24.2" cy="9.5" rx="0.2" ry="0.6"/>
					</g>
				</g>
			</g>
		</g>
		<g>
			<g>
				<g>
					<g>
						<path fill="#BB3166" d="M22,10.1c0,0.4,0.2,0.7,0.5,0.7c0.2,0,0.4-0.3,0.4-0.7s-0.2-0.7-0.4-0.7C22.3,9.4,22,9.7,22,10.1z"/>
					</g>
				</g>
			</g>
			<g>
				<g>
					<g>
						<ellipse fill="#E84D88" cx="22.5" cy="10.1" rx="0.4" ry="0.7"/>
					</g>
				</g>
			</g>
		</g>
		<g>
			<g>
				<g>
					<g>
						<path fill="#BB3166" d="M19.7,10.5c0,0.3,0.2,0.6,0.6,0.6c0.3,0,0.5-0.3,0.5-0.6c0-0.3-0.2-0.6-0.5-0.6
							C19.9,9.8,19.7,10.1,19.7,10.5z"/>
					</g>
				</g>
			</g>
			<g>
				<g>
					<g>
						<ellipse fill="#E84D88" cx="20.3" cy="10.5" rx="0.5" ry="0.6"/>
					</g>
				</g>
			</g>
		</g>
		<g>
			<g>
				<g>
					<g>
						<ellipse fill="#BB3166" cx="17.8" cy="10.6" rx="0.8" ry="0.9"/>
					</g>
				</g>
			</g>
			<g>
				<g>
					<g>
						<g>
							<ellipse fill="#E84D88" cx="17.8" cy="10.6" rx="0.6" ry="0.7"/>
						</g>
					</g>
				</g>
			</g>
		</g>
		<g>
			<g>
				<g>
					<g>
						<path fill="#BB3166" d="M15.9,10.5c0,0.3-0.2,0.6-0.6,0.6c-0.3,0-0.5-0.3-0.5-0.6c0-0.3,0.2-0.6,0.5-0.6
							C15.7,9.8,15.9,10.1,15.9,10.5z"/>
					</g>
				</g>
			</g>
			<g>
				<g>
					<g>
						<ellipse fill="#E84D88" cx="15.2" cy="10.5" rx="0.5" ry="0.6"/>
					</g>
				</g>
			</g>
		</g>
		<g>
			<g>
				<g>
					<g>
						<path fill="#BB3166" d="M13.6,10.1c0,0.4-0.2,0.7-0.5,0.7c-0.2,0-0.4-0.3-0.4-0.7s0.2-0.7,0.4-0.7
							C13.3,9.4,13.6,9.7,13.6,10.1z"/>
					</g>
				</g>
			</g>
			<g>
				<g>
					<g>
						<ellipse fill="#E84D88" cx="13" cy="10.1" rx="0.4" ry="0.7"/>
					</g>
				</g>
			</g>
		</g>
		<g>
			<g>
				<g>
					<g>
						<g>
							<g>
								<path fill="#BB3166" d="M11.8,9.5c0,0.3-0.1,0.6-0.4,0.6c-0.1,0-0.2-0.3-0.2-0.6s0.1-0.6,0.2-0.6
									C11.6,8.9,11.8,9.1,11.8,9.5z"/>
							</g>
						</g>
					</g>
					<g>
						<g>
							<g>
								<ellipse fill="#E84D88" cx="11.4" cy="9.5" rx="0.2" ry="0.6"/>
							</g>
						</g>
					</g>
				</g>
			</g>
		</g>
		<g opacity="0.5">
			<g>
				<g>
					
						<ellipse transform="matrix(0.9982 -5.957613e-002 5.957613e-002 0.9982 -0.6227 1.0794)" fill="#FFFFFF" cx="17.8" cy="11" rx="0.3" ry="0.2"/>
				</g>
			</g>
		</g>
		<g opacity="0.5">
			<g>
				<g>
					<path fill="#FFFFFF" d="M15.1,10.8c-0.1,0-0.1,0-0.2-0.1c0-0.1,0-0.2,0-0.2c0.1,0,0.1,0,0.2,0.1C15.2,10.7,15.2,10.8,15.1,10.8
						z"/>
				</g>
			</g>
		</g>
		<g opacity="0.5">
			<g>
				<g>
					<path fill="#FFFFFF" d="M13,10.5c-0.1,0-0.1,0-0.2-0.2c0-0.1,0-0.2,0.1-0.2c0.1,0,0.1,0,0.2,0.2C13,10.4,13,10.5,13,10.5z"/>
				</g>
			</g>
		</g>
		<g opacity="0.5">
			<g>
				<g>
					<path fill="#FFFFFF" d="M11.4,9.9c0,0-0.1,0-0.1-0.1c0-0.1,0-0.2,0-0.2c0,0,0.1,0,0.1,0.1C11.4,9.8,11.4,9.9,11.4,9.9z"/>
				</g>
			</g>
		</g>
		<g opacity="0.5">
			<g>
				<g>
					<path fill="#FFFFFF" d="M20.5,10.8c0.1,0,0.1,0,0.2-0.1c0-0.1,0-0.2,0-0.2c-0.1,0-0.1,0-0.2,0.1C20.4,10.7,20.4,10.8,20.5,10.8
						z"/>
				</g>
			</g>
		</g>
		<g opacity="0.5">
			<g>
				<g>
					<path fill="#FFFFFF" d="M22.6,10.5c0.1,0,0.1,0,0.2-0.2c0-0.1,0-0.2-0.1-0.2c-0.1,0-0.1,0-0.2,0.2
						C22.5,10.4,22.6,10.5,22.6,10.5z"/>
				</g>
			</g>
		</g>
		<g opacity="0.5">
			<g>
				<g>
					<path fill="#FFFFFF" d="M24.2,9.9c0,0,0.1,0,0.1-0.1c0-0.1,0-0.2,0-0.2c0,0-0.1,0-0.1,0.1C24.2,9.8,24.2,9.9,24.2,9.9z"/>
				</g>
			</g>
		</g>
	</g>
</g>
</svg>
