<?xml version="1.0" encoding="utf-8"?>
<!-- Generator: Adobe Illustrator 18.0.0, SVG Export Plug-In . SVG Version: 6.00 Build 0)  -->
<!DOCTYPE svg PUBLIC "-//W3C//DTD SVG 1.1//EN" "http://www.w3.org/Graphics/SVG/1.1/DTD/svg11.dtd">
<svg version="1.1" id="Layer_1" xmlns="http://www.w3.org/2000/svg" xmlns:xlink="http://www.w3.org/1999/xlink" x="0px" y="0px"
	 viewBox="0 0 36 36" enable-background="new 0 0 36 36" xml:space="preserve">
<g>
	<g>
		<g>
			<path fill="#E24B4B" d="M27.9,24.2c-6.6-2.3-13.2-2.3-19.7,0C7,24.6,6.2,25.6,6,26.8L5.1,34h25.8L30,26.8
				C29.8,25.6,29,24.6,27.9,24.2z"/>
		</g>
	</g>
	<g>
		<g>
			<g>
				<g>
					<g>
						<g>
							<g>
								<g>
									<path fill="#E9EFF4" d="M21.9,29.3c2.1,0,3.9-2.2,4.9-5.4c-5.9-1.8-11.7-1.8-17.6,0c1,3.2,2.8,5.4,4.9,5.4
										c1.5,0,2.9-0.6,3.9-1.6C19,28.7,20.4,29.3,21.9,29.3z"/>
								</g>
								<g>
									<g>
										<path fill="#FFD68D" d="M14.2,21.7v1c0,3.5,3.8,4.3,3.8,4.3s3.8-0.8,3.8-4.3v-1H14.2z"/>
									</g>
								</g>
								<g>
									<g>
										<path fill="#FFE9AB" d="M24.7,14.6c0,5-2.8,7.6-4.8,8.8c-1.2,0.7-2.7,0.7-3.9,0c-2-1.2-4.8-3.8-4.8-8.8
											c0-4.1,3-7.5,6.7-7.5C21.7,7.2,24.7,10.5,24.7,14.6z"/>
									</g>
								</g>
								<g>
									<g>
										<g>
											<g>
												<path fill="#FFE9AB" d="M12.7,14.9c-0.3-0.5-0.7-0.8-1.1-0.9c-1.2-0.3-1.8,0.8-1.2,2.4c0.4,1.3,0.8,2.3,1.6,2.3
													c0,0,0.4,0.1,1-0.1L12.7,14.9z"/>
											</g>
										</g>
									</g>
									<g>
										<g>
											<g>
												<path fill="#FFE9AB" d="M23.3,14.9c0.3-0.5,0.7-0.8,1.1-0.9c1.2-0.3,1.8,0.8,1.2,2.4c-0.4,1.3-0.8,2.3-1.6,2.3
													c0,0-0.4,0.1-1-0.1L23.3,14.9z"/>
											</g>
										</g>
									</g>
								</g>
							</g>
							<g>
								<g>
									<g>
										<path fill="#3E4347" d="M12.1,17.6L12.1,17.6c0,0,0.5-1.4,0.4-3.4s-0.2-2.8,1-3c1.3-0.3,5.2,2.1,8.6,0.3
											c1.4-0.7,1.7,0.5,1.4,2.1s0.3,2,0.3,4.3c0,0,1.4-4.5,1.2-8c-0.2-3.5-2.5-5.3-6.7-5.4s-7.5,2.1-7.5,5.4
											S12.1,17.6,12.1,17.6z"/>
									</g>
								</g>
							</g>
						</g>
					</g>
				</g>
			</g>
		</g>
	</g>
	<g>
		<g>
			<g>
				<g>
					<g>
						<circle fill="#FFD93B" cx="18" cy="3.2" r="1.2"/>
					</g>
				</g>
				<g>
					<g>
						<g>
							<g>
								<g>
									<circle fill="#FFD93B" cx="23" cy="5.2" r="0.9"/>
								</g>
							</g>
							<g>
								<g>
									<circle fill="#FFD93B" cx="25.3" cy="7.1" r="0.9"/>
								</g>
							</g>
						</g>
					</g>
					<g>
						<g>
							<g>
								<g>
									<circle fill="#FFD93B" cx="13" cy="5.2" r="0.9"/>
								</g>
							</g>
							<g>
								<g>
									<circle fill="#FFD93B" cx="10.7" cy="7.1" r="0.9"/>
								</g>
							</g>
						</g>
					</g>
				</g>
			</g>
			<g>
				<g>
					<g>
						<g>
							<g>
								<path fill="#FFD93B" d="M25.8,10.2C25.8,10.2,25.8,10.2,25.8,10.2c-0.4-0.3-0.7-0.7-0.6-1.2c0.1-0.6,0.2-1.2,0.3-1.8
									C25.3,7.2,25.1,7.1,25,7c-0.6,0.9-1.4,2.1-1.9,2.3c-0.4,0.1-0.7,0.1-0.9-0.2c-0.3-0.4,0.3-2.1,0.8-3.5
									c-0.1,0-0.2-0.1-0.3-0.2c-0.5,0.9-1,1.8-1.2,2.4c-0.5,1.3-1.7,1.3-2.2,0.6C19,8,18.6,5.6,18.3,3.7c-0.1,0-0.2,0-0.3,0
									c-0.1,0-0.3,0-0.4,0C17.4,5.5,17,8,16.8,8.4c-0.4,0.7-1.7,0.7-2.2-0.6c-0.2-0.6-0.8-1.6-1.2-2.4c-0.1,0.1-0.2,0.1-0.3,0.2
									c0.5,1.4,1,3.1,0.8,3.6c-0.2,0.3-0.5,0.3-0.9,0.2c-0.5-0.1-1.4-1.4-1.9-2.3c-0.1,0.1-0.3,0.1-0.4,0.2
									c0.1,0.6,0.2,1.3,0.3,1.9c0.1,0.5-0.2,0.9-0.6,1.2c0,0,0,0,0,0c-0.9,0.6-0.5,1.9,0.5,2.1c4.9,1,9.8,1,14.7,0
									C26.3,12.1,26.7,10.8,25.8,10.2z"/>
							</g>
						</g>
					</g>
				</g>
			</g>
		</g>
		<g>
			<g>
				<g>
					<circle fill="#E24B4B" cx="12.3" cy="11" r="0.7"/>
				</g>
			</g>
			<g>
				<g>
					<circle fill="#E24B4B" cx="14.9" cy="11.2" r="0.8"/>
				</g>
			</g>
			<g>
				<circle fill="#E24B4B" cx="18" cy="11.4" r="0.9"/>
			</g>
			<g>
				<g>
					<circle fill="#E24B4B" cx="23.7" cy="11" r="0.7"/>
				</g>
			</g>
			<g>
				<g>
					<circle fill="#E24B4B" cx="21.1" cy="11.2" r="0.8"/>
				</g>
			</g>
		</g>
	</g>
</g>
</svg>
