<?xml version="1.0" encoding="utf-8"?>
<!-- Generator: Adobe Illustrator 18.0.0, SVG Export Plug-In . SVG Version: 6.00 Build 0)  -->
<!DOCTYPE svg PUBLIC "-//W3C//DTD SVG 1.1//EN" "http://www.w3.org/Graphics/SVG/1.1/DTD/svg11.dtd">
<svg version="1.1" id="Layer_1" xmlns="http://www.w3.org/2000/svg" xmlns:xlink="http://www.w3.org/1999/xlink" x="0px" y="0px"
	 viewBox="0 0 36 36" enable-background="new 0 0 36 36" xml:space="preserve">
<g>
	<g>
		<g>
			<g>
				<g>
					<path fill="#D03F3F" d="M14.5,5.7l-4.4-1.7C9.9,4,9.6,4.1,9.6,4.3c-0.1,0.2,0,0.4,0.2,0.5l4.7,1.8V5.7z"/>
				</g>
			</g>
			<g>
				<g>
					<path fill="#D03F3F" d="M14.5,5.9l-2.2-3.7C12.2,2,12,1.9,11.8,2.1c-0.2,0.1-0.2,0.3-0.1,0.5l2.9,4.8V5.9z"/>
				</g>
			</g>
		</g>
		<g>
			<g>
				<g>
					<path fill="#D03F3F" d="M21.5,6.7L25.9,5c0.2-0.1,0.4,0,0.5,0.2c0.1,0.2,0,0.4-0.2,0.5l-4.7,1.8V6.7z"/>
				</g>
			</g>
			<g>
				<g>
					<path fill="#D03F3F" d="M21.5,6.9l2.2-3.7C23.8,3,24,2.9,24.2,3c0.2,0.1,0.2,0.3,0.1,0.5l-2.9,4.8V6.9z"/>
				</g>
			</g>
		</g>
	</g>
	<g>
		<g>
			<path fill="#3E4347" d="M26.1,11.7c0,2.2-0.7,4.2-1.9,5.8c-0.9,1.2-2.6,0.2-2.3-1.3c0.2-0.8,0.3-1.7,0.4-2.7
				c0.1-0.9-0.7-1.7-1.5-1.4c-1.9,0.6-3.8,0.6-5.8,0c-0.8-0.3-1.5,0.5-1.5,1.4c0.1,1,0.2,1.9,0.4,2.8c0.3,1.5-1.4,2.4-2.3,1.3
				c-1.5-2-2.2-4.6-1.7-7.5c0.6-3.6,3.1-6.5,6.4-7.2C21.6,1.6,26.1,6.1,26.1,11.7z"/>
		</g>
	</g>
	<g>
		<g>
			<g>
				<g>
					<g>
						<path fill="#2AB4CD" d="M30.7,34l-1.9-10.5c-0.3-0.9-1-1.5-1.8-1.7L18,19.9l-8.9,1.9c-0.9,0.2-1.6,0.9-1.8,1.7L5.3,34H30.7z"
							/>
					</g>
				</g>
				<g>
					<g>
						<path fill="#F4C534" d="M21.2,20.5v-4.6l-6.4-0.2v4.9c0.6,1.8,1.5,5.5,3.2,6.4l0,0C19.6,26,20.3,22.1,21.2,20.5z"/>
					</g>
				</g>
			</g>
			<g>
				<g>
					<g>
						<path fill="#FFD93B" d="M23.4,12.4c-0.6,6-2.7,8.8-5.4,8.8c-2.7,0-4.9-2.7-5.4-8.8c-0.1-1,0.8-1.9,1.8-1.6
							c2.4,0.7,4.8,0.7,7.2,0C22.6,10.5,23.5,11.4,23.4,12.4z"/>
					</g>
				</g>
			</g>
		</g>
	</g>
	<g>
		<g>
			<g>
				<g>
					<path fill="#FFFFFF" d="M20.2,4c0,0.2-0.2,0.8-0.4,0.8S19.5,4.2,19.5,4s0.2-0.4,0.4-0.4S20.2,3.8,20.2,4z"/>
				</g>
			</g>
			<g>
				<g>
					<path fill="#FFFFFF" d="M19.2,4.2c0.2,0.1,0.6,0.5,0.5,0.7s-0.7,0-0.9-0.1c-0.2-0.1-0.2-0.3-0.1-0.5C18.8,4.1,19,4.1,19.2,4.2z
						"/>
				</g>
			</g>
			<g>
				<g>
					<path fill="#FFFFFF" d="M18.8,5.1C19,5,19.6,4.9,19.7,5s-0.3,0.6-0.5,0.7c-0.2,0.1-0.4,0-0.5-0.1C18.6,5.4,18.6,5.2,18.8,5.1z"
						/>
				</g>
			</g>
			<g>
				<g>
					<path fill="#FFFFFF" d="M19.5,5.9c0-0.2,0.2-0.8,0.4-0.8s0.4,0.6,0.4,0.8S20,6.3,19.8,6.3S19.5,6.1,19.5,5.9z"/>
				</g>
			</g>
			<g>
				<g>
					<path fill="#FFFFFF" d="M20.5,5.7C20.3,5.6,19.9,5.2,20,5s0.7,0,0.9,0.1C21,5.2,21,5.4,20.9,5.6C20.9,5.8,20.6,5.8,20.5,5.7z"
						/>
				</g>
			</g>
			<g>
				<g>
					<path fill="#FFFFFF" d="M20.8,4.8C20.6,4.9,20.1,5,20,4.9s0.3-0.6,0.5-0.7c0.2-0.1,0.4,0,0.5,0.1C21,4.5,21,4.7,20.8,4.8z"/>
				</g>
			</g>
		</g>
		<g>
			<g>
				<circle fill="#E24B4B" cx="19.8" cy="5" r="0.3"/>
			</g>
		</g>
	</g>
	<g>
		<g>
			<g>
				<g>
					<path fill="#FFFFFF" d="M24.3,7.5c-0.2,0.1-1,0.3-1.2,0.1c-0.2-0.3,0.1-1,0.2-1.2c0.2-0.2,0.6-0.1,0.9,0.2
						C24.4,6.9,24.5,7.3,24.3,7.5z"/>
				</g>
			</g>
			<g>
				<g>
					<path fill="#FFFFFF" d="M22.7,6.1c0.2,0.3,0.4,1.3,0.1,1.3c-0.3,0-0.9-0.8-1.1-1.1c-0.2-0.3-0.2-0.6,0.1-0.7
						C22.1,5.6,22.5,5.8,22.7,6.1z"/>
				</g>
			</g>
			<g>
				<g>
					<path fill="#FFFFFF" d="M21.4,6.7c0.3,0,1.2,0.6,1.2,0.9c-0.1,0.3-0.9,0.1-1.2,0.1c-0.3-0.1-0.5-0.3-0.5-0.6
						C20.9,6.8,21.1,6.6,21.4,6.7z"/>
				</g>
			</g>
			<g>
				<g>
					<path fill="#FFFFFF" d="M21.6,8.1c0.2-0.2,0.9-0.5,1.1-0.3c0.2,0.3-0.2,0.9-0.4,1C22,9,21.8,9,21.6,8.8
						C21.4,8.6,21.4,8.3,21.6,8.1z"/>
				</g>
			</g>
			<g>
				<g>
					<path fill="#FFFFFF" d="M22.7,9.1c0-0.3,0-1.1,0.3-1.2c0.3,0,0.7,1,0.7,1.3c0,0.3-0.2,0.5-0.5,0.4C22.9,9.6,22.7,9.4,22.7,9.1z
						"/>
				</g>
			</g>
			<g>
				<g>
					<path fill="#FFFFFF" d="M24,9.1c-0.2-0.3-0.9-1-0.9-1.3c0.1-0.3,1,0,1.3,0.3c0.3,0.2,0.4,0.7,0.3,1C24.6,9.3,24.3,9.3,24,9.1z"
						/>
				</g>
			</g>
		</g>
		<g>
			<g>
				<path fill="#E24B4B" d="M23.2,8.1c-0.2,0.1-0.5,0-0.7-0.2c-0.2-0.2-0.2-0.5-0.1-0.7c0.2-0.2,0.5-0.1,0.7,0.1
					C23.4,7.7,23.4,8,23.2,8.1z"/>
			</g>
		</g>
	</g>
	<g>
		<polygon fill="#E9EFF4" points="13.7,34 15.4,34 22.8,20.9 21.2,20.5 		"/>
	</g>
	<g>
		<path fill="#E9EFF4" d="M18.7,27.5l-3.9-6.9l-1.6,0.3l4.5,7.9C17.9,28.3,18.3,27.9,18.7,27.5z"/>
	</g>
</g>
</svg>
