<?xml version="1.0" encoding="utf-8"?>
<!-- Generator: Adobe Illustrator 18.0.0, SVG Export Plug-In . SVG Version: 6.00 Build 0)  -->
<!DOCTYPE svg PUBLIC "-//W3C//DTD SVG 1.1//EN" "http://www.w3.org/Graphics/SVG/1.1/DTD/svg11.dtd">
<svg version="1.1" id="Layer_1" xmlns="http://www.w3.org/2000/svg" xmlns:xlink="http://www.w3.org/1999/xlink" x="0px" y="0px"
	 viewBox="0 0 36 36" enable-background="new 0 0 36 36" xml:space="preserve">
<g>
	<g>
		<g>
			<g>
				<g>
					<path fill="#D03F3F" d="M27.7,23.6l2.1,1.6c0,0-0.4,1.6-1.3,2.8S27.7,23.6,27.7,23.6z"/>
				</g>
			</g>
			<g>
				<g>
					<path fill="#D03F3F" d="M7.6,23.6l-2.1,1.6c0,0,0.4,1.6,1.3,2.8S7.6,23.6,7.6,23.6z"/>
				</g>
			</g>
		</g>
		<g>
			<g>
				<g>
					<g>
						<g>
							<g>
								<g>
									<path fill="#F4C534" d="M31.6,34C31.4,23.8,25.5,20.7,18,20.7S4.6,23.8,4.4,34H31.6z"/>
								</g>
							</g>
							<g>
								<g>
									<path fill="#3E4347" d="M26.2,34H9.8c1.2-3-0.4-6.6-3.7-7.7c2.3-4.2,6.7-5.6,11.8-5.6s9.5,1.4,11.8,5.6
										C26.6,27.4,24.9,31,26.2,34z"/>
								</g>
							</g>
						</g>
					</g>
				</g>
			</g>
			<g>
				<g>
					<g>
						<path fill="#F4C534" d="M14.2,18.3v2.6c0,4.2,7.2,4.2,7.2,0v-2.6H14.2z"/>
					</g>
				</g>
				<g>
					<g>
						<g>
							<g>
								<path fill="#3E4347" d="M25.2,14.4c-0.4,1.2-1.1,2-1.8,1.9s-1.2-1.3-0.9-2.5c0.3-1.2,1.1-1.8,1.8-1.9
									C25.2,11.8,25.6,12.9,25.2,14.4z"/>
							</g>
						</g>
						<g>
							<g>
								<path fill="#3E4347" d="M10.4,14.4c0.4,1.2,1.1,2,1.8,1.9s1.2-1.3,0.9-2.5c-0.3-1.2-1.1-1.8-1.8-1.9
									C10.4,11.8,9.9,12.9,10.4,14.4z"/>
							</g>
						</g>
					</g>
					<g>
						<path fill="#3E4347" d="M25.2,10.1c0,4.1-3.3,9.6-7.5,9.6c-4.1,0-7.5-5.4-7.5-9.6c0-4.1,3.3-7.4,7.5-7.4c1.5,0,3,0.5,4.2,1.2
							c0.6,0.4,0.7,1.2,0.2,1.7v0h0c1.2,0,2.2,0.7,2.7,1.9C25.1,8.3,25.2,9.2,25.2,10.1z"/>
					</g>
					<g>
						<g>
							<path fill="#FFD93B" d="M23.8,13.1c0,3.3-2.7,8.6-6,8.6c-3.3,0-6-5.3-6-8.6c0-1.2,0.4-2.4,1-3.3c0.4-0.6,1.1-0.8,1.7-0.6
								c0.5,0.1,1,0.2,1.6,0.2c1.3,0,2.4-0.4,3.3-1.1c0.6-0.5,1.4-0.5,1.9-0.1C22.8,9.4,23.8,11.1,23.8,13.1z"/>
						</g>
					</g>
				</g>
				<g>
					<g>
						<path fill="#3E4347" d="M25.3,8.4C25.2,2,17.8,2,17.8,2s-7.5,0-7.6,6.4c-0.1,4.1,1.3,7.2,1.9,8.3c0.1,0.3,0.5,0.4,0.9,0.3
							c1-0.3,2.8-1.1,3.3-1.4c0.7-0.4,1.5-0.4,1.5-0.4s0.8,0,1.5,0.4c0.5,0.3,2.3,1.1,3.3,1.4c0.3,0.1,0.7-0.1,0.9-0.3
							C24,15.6,25.4,12.5,25.3,8.4z M13.8,15.5c-0.8,0-1-0.2-1.1-0.9c-0.1-0.8,0.5-2.2,1.3-2.3c1.5-0.1,2.7,1,2.7,1.7
							C16.7,14.7,14.6,15.5,13.8,15.5z M21.8,15.5c-0.8,0-3-0.7-3-1.5c0-0.8,1.2-1.9,2.7-1.7c0.9,0.1,1.4,1.5,1.3,2.3
							C22.8,15.3,22.6,15.5,21.8,15.5z"/>
					</g>
				</g>
			</g>
		</g>
		<g>
			<g>
				<g>
					<g>
						<path fill="#E24B4B" d="M17.7,27.2c1.9-2.4,3.7-4.8,3.7-6.5c0,0,5.3,0.5,8.5,4.5c0,0-1.9-0.7-7.3,1.2
							C17.3,28.4,17.7,27.2,17.7,27.2z"/>
					</g>
				</g>
			</g>
			<g>
				<g>
					<g>
						<path fill="#E24B4B" d="M17.7,27.2c-1.6-2.3-3.6-4.9-3.5-6.5c0,0-5.6,0.5-8.7,4.5c0,0,1.9-0.7,7.3,1.2
							C18,28.4,17.7,27.2,17.7,27.2z"/>
					</g>
				</g>
			</g>
		</g>
	</g>
	<g>
		<g>
			<path fill="#FFFFFF" d="M19.4,31.4c-0.1,0.1-0.1,0.2-0.1,0.3l0.1,0.8c0.1,0.3-0.3,0.5-0.5,0.4l-0.7-0.4c-0.1-0.1-0.2-0.1-0.4,0
				l-0.7,0.4c-0.3,0.1-0.6-0.1-0.5-0.4l0.1-0.8c0-0.1,0-0.2-0.1-0.3l-0.6-0.5c-0.2-0.2-0.1-0.6,0.2-0.6l0.8-0.1
				c0.1,0,0.2-0.1,0.3-0.2l0.3-0.7c0.1-0.3,0.5-0.3,0.7,0l0.3,0.7c0.1,0.1,0.2,0.2,0.3,0.2l0.8,0.1c0.3,0,0.4,0.4,0.2,0.6L19.4,31.4
				z"/>
		</g>
	</g>
</g>
</svg>
