<?xml version="1.0" encoding="utf-8"?>
<!-- Generator: Adobe Illustrator 18.0.0, SVG Export Plug-In . SVG Version: 6.00 Build 0)  -->
<!DOCTYPE svg PUBLIC "-//W3C//DTD SVG 1.1//EN" "http://www.w3.org/Graphics/SVG/1.1/DTD/svg11.dtd">
<svg version="1.1" id="Layer_1" xmlns="http://www.w3.org/2000/svg" xmlns:xlink="http://www.w3.org/1999/xlink" x="0px" y="0px"
	 viewBox="0 0 36 36" enable-background="new 0 0 36 36" xml:space="preserve">
<g>
	<g>
		<g>
			<g>
				<g>
					<path fill="#3E4347" d="M32.4,34l-1.3-6c-0.4-1.9-1.5-3.4-2.9-3.9L18,20.5L7.7,24c-1.4,0.5-2.4,2-2.9,3.9l-1.3,6H32.4z"/>
				</g>
			</g>
			<g>
				<g>
					<polygon fill="#CBD6E0" points="19.7,34 23,24.3 18,24.3 13.2,25.1 16.3,34 					"/>
				</g>
			</g>
			<g>
				<g>
					<g>
						<path fill="#E24B4B" d="M18.7,24.3H18l-0.5,0.1c-0.9,0.5-1.7,1.1-1.6,1.9l1,1h2.4l1-1L18.7,24.3z"/>
					</g>
				</g>
				<g>
					<g>
						<g>
							<polygon fill="#E24B4B" points="20.5,34 19.3,27.3 16.9,27.3 15.7,34 							"/>
						</g>
					</g>
				</g>
			</g>
			<g>
				<g>
					<path fill="#FFD68D" d="M22,18v3.8l-0.5,0.7c-1.7,2.3-5.2,2.3-6.9,0l-0.5-0.7V18H22z"/>
				</g>
			</g>
		</g>
	</g>
	<g>
		<g>
			<g>
				<path fill="#E9EFF4" d="M22,20.7c-1,1.6-2.3,2.8-3.9,3.6c1.3,0.7,2.2,1.6,2.7,2.9c1.2-1.3,1.9-3,2.3-5L22,20.7z"/>
			</g>
		</g>
		<g>
			<g>
				<path fill="#E9EFF4" d="M14.1,20.7c1,1.6,2.3,2.8,3.9,3.6c-1.3,0.7-2.2,1.6-2.7,2.9c-1.2-1.3-1.9-3-2.3-5L14.1,20.7z"/>
			</g>
		</g>
	</g>
	<g>
		<g>
			<g>
				<polygon fill="#5A5F63" points="23.1,34 26.5,27.9 24.2,26.1 26.5,24.8 22,20.7 19.6,34 				"/>
			</g>
		</g>
		<g>
			<g>
				<polygon fill="#5A5F63" points="12.9,34 16.4,34 14,20.7 9.5,24.8 11.8,26.1 9.5,27.9 				"/>
			</g>
		</g>
	</g>
	<g>
		<g>
			<g>
				<g>
					<g>
						<g>
							<g>
								<g>
									<g>
										<g>
											<g>
												<g>
													<path fill="#FFE9AB" d="M12.9,12.8c-0.3-0.5-0.7-0.8-1.1-0.9c-1.2-0.3-1.7,0.7-1.2,2.3c0.4,1.2,0.8,2.2,1.5,2.2
														c0,0,0.4,0.1,1-0.1L12.9,12.8z"/>
												</g>
											</g>
										</g>
										<g>
											<g>
												<g>
													<path fill="#FFE9AB" d="M23,12.8c0.3-0.5,0.7-0.8,1.1-0.9c1.2-0.3,1.7,0.7,1.2,2.3c-0.4,1.2-0.8,2.2-1.5,2.2
														c0,0-0.4,0.1-1-0.1L23,12.8z"/>
												</g>
											</g>
										</g>
									</g>
									<g>
										<g>
											<g>
												<g>
													<g>
														<path fill="#FFE9AB" d="M24.1,13.3c0,5.2-3.4,7.2-5.1,7.9c-0.7,0.3-1.4,0.3-2.1,0c-1.5-0.5-4.2-2-5-6.5H12V13h-0.2
															c0.2-3.5,2.9-6.4,6.2-6.4C21.6,5.1,24.4,7.9,24.1,13.3z"/>
													</g>
												</g>
											</g>
										</g>
									</g>
								</g>
							</g>
						</g>
					</g>
					<g>
						<g>
							<path fill="#6B503B" d="M12.1,15.5c-0.5-6.2,3.6-4.7,3.3-6.8c1.1,1.6,2.9,2.3,4.7,2.2c1.4-0.1,2.7,0.7,3.1,2
								c0.2,0.7,0.3,1.5,0.3,2.6c0,0,2-4.2,1-9.3c-1-5.1-9.9-5.5-10.6-1.7C13.9,4.6,8.8,3.5,12.1,15.5z"/>
						</g>
					</g>
				</g>
			</g>
		</g>
	</g>
</g>
</svg>
