<?xml version="1.0" encoding="utf-8"?>
<!-- Generator: Adobe Illustrator 18.0.0, SVG Export Plug-In . SVG Version: 6.00 Build 0)  -->
<!DOCTYPE svg PUBLIC "-//W3C//DTD SVG 1.1//EN" "http://www.w3.org/Graphics/SVG/1.1/DTD/svg11.dtd">
<svg version="1.1" id="Layer_1" xmlns="http://www.w3.org/2000/svg" xmlns:xlink="http://www.w3.org/1999/xlink" x="0px" y="0px"
	 viewBox="0 0 36 36" enable-background="new 0 0 36 36" xml:space="preserve">
<g>
	<g>
		<g>
			<g>
				<path fill="#8F6D52" d="M30,26.4H6.6c2.8-3.3,4.1-7,4.1-10.9c-0.1-0.6-0.1-1.2-0.1-1.8c0-0.3,0-0.6,0-0.9
					c-0.4-1.1-1-8.5,3.3-8.2c4.7-0.4,5.6,1.3,8.4-1.5c2.4,0.7,3.8,3.1,3.8,9.7c0,2-0.8,4.1,0.7,8.3C27.6,23.1,28.6,24.8,30,26.4z"/>
			</g>
		</g>
	</g>
	<g>
		<g>
			<g>
				<g>
					<path fill="#3E4347" d="M32.5,34l-1.4-6.7c-0.3-1.4-1.3-2.6-2.6-3.1l-5-1.8L18,22.7l-5.4-0.3l-5,1.8c-1.4,0.5-2.3,1.7-2.6,3.1
						L3.5,34H32.5z"/>
				</g>
			</g>
		</g>
		<g>
			<g>
				<g>
					<g>
						<g>
							<g>
								<g>
									<g>
										<g>
											<g>
												<g>
													<g>
														<g>
															<g>
																<path fill="#FFE9AB" d="M12.6,13.5c-0.3-0.5-0.7-0.8-1.2-0.9c-1.2-0.3-1.8,0.8-1.2,2.5c0.4,1.3,0.9,2.3,1.6,2.3
																	c0,0,0.5,0.1,1-0.1L12.6,13.5z"/>
															</g>
														</g>
													</g>
													<g>
														<g>
															<g>
																<path fill="#FFE9AB" d="M23.4,13.5c0.3-0.5,0.7-0.8,1.2-0.9c1.2-0.3,1.8,0.8,1.2,2.5c-0.4,1.3-0.9,2.3-1.6,2.3
																	c0,0-0.5,0.1-1-0.1L23.4,13.5z"/>
															</g>
														</g>
													</g>
												</g>
												<g>
													<g>
														<g>
															<g>
																<g>
																	<path fill="#FFD68D" d="M22.2,18.7v4l0.3,0.8c-1.2,3.9-2.6,7.2-4.5,9.5c-2-2.8-3.4-6-4.5-9.5l0.3-0.8v-4H22.2z"/>
																</g>
															</g>
														</g>
													</g>
													<g>
														<g>
															<g>
																<g>
																	<path fill="#FFD68D" d="M22.2,18.7v4l0.3,0.8c-1.2,3.9-2.6,7.2-4.5,9.5c-2-2.8-3.4-6-4.5-9.5l0.3-0.8v-4H22.2z"/>
																</g>
															</g>
														</g>
													</g>
													<g>
														<g>
															<g>
																<path fill="#E9EFF4" d="M22.3,34l-0.6-9.3c0.2,4-7.7,4-7.4,0L13.7,34H22.3z"/>
															</g>
														</g>
													</g>
													<g>
														<g>
															<g>
																<g>
																	<path fill="#FFE9AB" d="M24.6,14c0,5.1-3.6,7.1-5.5,7.8c-0.7,0.2-1.5,0.3-2.2,0c-1.6-0.5-4.5-2-5.3-6.4h0.1v-1.7
																		l-0.2,0c-0.1-4.2,2.5-7.8,6.6-6.3C21.9,5.9,24.8,8.7,24.6,14z"/>
																</g>
															</g>
														</g>
													</g>
												</g>
											</g>
										</g>
									</g>
								</g>
								<g>
									<g>
										<path fill="#8F6D52" d="M12.1,16.3c-0.5-6.6,2.2-5.6,1.8-7.8c2,1.7,4.2,2.7,6.7,2.7c1.5,0,2.8,1,3.2,2.4
											c0.2,0.7,0.3,1.6,0.3,2.7c0,0,2.1-4.4,1.1-9.9c-1-5.4-10.5-5.8-11.3-1.8C13.9,4.7,8.5,3.6,12.1,16.3z"/>
									</g>
								</g>
							</g>
						</g>
					</g>
				</g>
			</g>
		</g>
	</g>
	<g>
		<g>
			<g>
				<path fill="#5A5F63" d="M22.5,34l3.4-5l-1.1-1.2l2.6-1.7c-1-2.1-2.9-3.7-5.2-5.1l-2.7,13H22.5z"/>
			</g>
		</g>
		<g>
			<g>
				<path fill="#5A5F63" d="M10.1,29l3.4,5h3l-2.7-13c-2.3,1.5-4.2,3.1-5.2,5.1l2.6,1.7L10.1,29z"/>
			</g>
		</g>
	</g>
</g>
</svg>
