<?xml version="1.0" encoding="utf-8"?>
<!-- Generator: Adobe Illustrator 18.0.0, SVG Export Plug-In . SVG Version: 6.00 Build 0)  -->
<!DOCTYPE svg PUBLIC "-//W3C//DTD SVG 1.1//EN" "http://www.w3.org/Graphics/SVG/1.1/DTD/svg11.dtd">
<svg version="1.1" id="Layer_1" xmlns="http://www.w3.org/2000/svg" xmlns:xlink="http://www.w3.org/1999/xlink" x="0px" y="0px"
	 viewBox="0 0 36 36" enable-background="new 0 0 36 36" xml:space="preserve">
<g>
	<g>
		<g>
			<g>
				<g>
					<g>
						<g>
							<g>
								<g>
									<g>
										<g>
											<g>
												<g>
													<path fill="#E24B4B" d="M32.3,34l-2.5-8c-0.4-1.2-1.3-2.2-2.6-2.5L18,21.1l-9.3,2.4c-1.2,0.3-2.2,1.3-2.6,2.5l-2.5,8
														H32.3z"/>
												</g>
											</g>
										</g>
										<g>
											<g>
												<g>
													<path fill="#FFD68D" d="M18,25.1c-1.6-1-2.9-2-3.6-3.1l0-3.5h7.2l0,3.5C20.6,23.3,19.4,24.4,18,25.1z"/>
												</g>
											</g>
										</g>
									</g>
								</g>
							</g>
						</g>
					</g>
				</g>
				<g>
					<g>
						<g>
							<g>
								<path fill="#E9EFF4" d="M23.2,22.4l-2.7,5.1c-1-2.8-2.5-2.4-2.5-2.4c1.8-1.1,3.6-4.3,3.6-4.3L23.2,22.4z"/>
							</g>
						</g>
					</g>
					<g>
						<g>
							<g>
								<path fill="#E9EFF4" d="M12.8,22.4l2.7,5.1c1-2.8,2.5-2.4,2.5-2.4c-1.8-1.1-3.6-4.3-3.6-4.3L12.8,22.4z"/>
							</g>
						</g>
					</g>
				</g>
			</g>
		</g>
		<g>
			<g>
				<path fill="#3E4347" d="M26.9,34H9.1l0.2-3.7c0.1-2-0.2-4-1-5.9c-0.1-0.2-0.2-0.5-0.3-0.6c0.2-0.1,0.4-0.2,0.7-0.3l2.1-0.5
					c0.5,2.1,1.3,4.3,2.1,5.9c0.3,0.6,0.8,1,1.4,1.1c2.4,0.5,4.9,0.5,7.6,0c0.6-0.1,1.1-0.6,1.4-1.1c0.8-1.7,1.5-3.8,2-5.9l2.1,0.5
					c0.2,0.1,0.5,0.1,0.7,0.3c-0.1,0.2-0.2,0.4-0.3,0.6c-0.8,1.8-1.1,3.9-1,5.9L26.9,34z"/>
			</g>
		</g>
	</g>
	<g>
		<g>
			<g>
				<g>
					<g>
						<g>
							<path fill="#FFE9AB" d="M25.3,15.8c-0.4,1.2-1.1,2-1.8,1.8s-1.2-1.2-0.9-2.4s1-1.8,1.8-1.8C25.3,13.3,25.7,14.4,25.3,15.8z"
								/>
						</g>
					</g>
					<g>
						<g>
							<path fill="#FFE9AB" d="M10.7,15.8c0.4,1.2,1.1,2,1.8,1.8s1.2-1.2,0.9-2.4c-0.2-1.2-1-1.8-1.8-1.8
								C10.7,13.3,10.3,14.4,10.7,15.8z"/>
						</g>
					</g>
				</g>
				<g>
					<g>
						<path fill="#5A5F63" d="M25.3,10.7c0,4-3.3,9.4-7.3,9.4c-4,0-7.3-5.3-7.3-9.4c0-4,3.3-7.2,7.3-7.2c1.5,0,2.9,0.5,4.1,1.2
							c0.6,0.4,0.7,1.2,0.2,1.7l0,0h0c1.2,0,2.2,0.7,2.6,1.8C25.2,9,25.3,9.8,25.3,10.7z"/>
					</g>
					<g>
						<path fill="#5A5F63" d="M23.9,6.4"/>
					</g>
				</g>
				<g>
					<g>
						<path fill="#FFE9AB" d="M23.9,13.7c0,3.3-2.6,8.4-5.9,8.4c-3.2,0-5.9-5.2-5.9-8.4c0-1.2,0.4-2.3,1-3.3c0.4-0.5,1-0.8,1.7-0.6
							c0.5,0.1,1,0.2,1.6,0.2c1.3,0,2.4-0.4,3.2-1c0.6-0.4,1.3-0.5,1.9-0.1C23,10,23.9,11.7,23.9,13.7z"/>
					</g>
				</g>
			</g>
		</g>
		<g>
			<g>
				<g>
					<g>
						<g>
							<path fill="#F4C534" d="M25.6,11.2c0-0.3,0-0.6,0-0.8c0-4.3-3.5-7.8-7.8-7.8s-7.8,3.5-7.8,7.8c0,0.3,0,0.6,0,0.8H25.6z"/>
						</g>
					</g>
				</g>
				<g>
					<g>
						<g>
							<path fill="#F4C534" d="M21.8,3.6l-1.5,4.9h-4.8L14,3.6c-0.1-0.3,0-0.6,0.3-0.8C15.4,2.3,16.6,2,17.9,2s2.5,0.3,3.6,0.9
								C21.8,3,21.9,3.3,21.8,3.6z"/>
						</g>
					</g>
				</g>
			</g>
			<g>
				<g>
					<g>
						<path fill="#E9B02C" d="M23.7,5.3l-3.4,3.3l1.5-4.8C22.1,3.3,24.1,4.8,23.7,5.3z"/>
					</g>
				</g>
			</g>
			<g>
				<g>
					<g>
						<path fill="#E9B02C" d="M12.1,5.3l3.4,3.3L14,3.7C13.7,3.3,11.8,4.8,12.1,5.3z"/>
					</g>
				</g>
			</g>
			<g>
				<g>
					<g>
						<path fill="#FFD93B" d="M25.3,12.5c-0.1,0-0.1,0-0.2,0c-4.7-0.9-9.6-0.9-14.3,0c-0.5,0.1-1.1-0.2-1.2-0.8
							c-0.1-0.5,0.2-1.1,0.8-1.2c5-1,10.1-1,15.1,0c0.5,0.1,0.9,0.6,0.8,1.2C26.2,12.1,25.8,12.5,25.3,12.5z"/>
					</g>
				</g>
			</g>
		</g>
	</g>
</g>
</svg>
