<?xml version="1.0" encoding="utf-8"?>
<!-- Generator: Adobe Illustrator 18.0.0, SVG Export Plug-In . SVG Version: 6.00 Build 0)  -->
<!DOCTYPE svg PUBLIC "-//W3C//DTD SVG 1.1//EN" "http://www.w3.org/Graphics/SVG/1.1/DTD/svg11.dtd">
<svg version="1.1" id="Layer_1" xmlns="http://www.w3.org/2000/svg" xmlns:xlink="http://www.w3.org/1999/xlink" x="0px" y="0px"
	 viewBox="0 0 36 36" enable-background="new 0 0 36 36" xml:space="preserve">
<g>
	<g>
		<g>
			<path fill="#6B503B" d="M26.8,21.4c-1-2-1-6.8-0.8-10H10c0.2,3.2,0.2,7.9-0.8,10c-1.5,3.1-2.7,3.7-2.7,3.7h22.9
				C29.5,25.1,28.3,24.5,26.8,21.4z"/>
		</g>
	</g>
	<g>
		<g>
			<g>
				<g>
					<polygon fill="#F4C534" points="21.6,21.8 21.6,19.7 14.2,19.7 14.2,21.8 13.7,22.5 13.7,26.9 22.3,26.9 22.1,22.6 					"/>
				</g>
			</g>
			<g>
				<g>
					<path fill="#3E4347" d="M32.2,34l-1.3-7c-0.4-1.9-1.8-3.5-3.8-4l-5.5-1.3c0,0.1,0,0.2,0,0.3c0,2.5-1.6,4.5-3.7,4.5
						c-2,0-3.7-2-3.7-4.5c0-0.1,0-0.2,0-0.3l-5.4,1.3c-1.9,0.5-3.4,2-3.8,4l-1.3,7H32.2z"/>
				</g>
			</g>
			<g>
				<path fill="#DAE5EF" d="M24.3,34c-1.5-2.6-2.5-6.9-3.2-9.5c-0.7,1.3-1.8,2.1-3.1,2.1c-1.3,0-2.4-0.8-3-2
					c-0.7,2.7-1.7,6.8-3.2,9.4H24.3z"/>
			</g>
			<g>
				<g>
					<g>
						<g>
							<path fill="#FFD93B" d="M26.5,14.3c-0.1,1.6-1.1,3-2.2,3c-1.1,0-1.8-1.3-1.8-3s1-2.6,2-3C25.8,10.8,26.7,12.1,26.5,14.3z"/>
						</g>
					</g>
					<g>
						<g>
							<path fill="#FFD93B" d="M9.3,14.3c0.1,1.6,1.1,3,2.2,3s1.8-1.3,1.8-3s-1-2.6-2-3C10.1,10.8,9.2,12.1,9.3,14.3z"/>
						</g>
					</g>
				</g>
				<g>
					<g>
						<ellipse fill="#6B503B" cx="17.9" cy="10.7" rx="8.2" ry="8.7"/>
					</g>
				</g>
				<g>
					<g>
						<path fill="#FFD93B" d="M24.7,15.6L24.7,15.6c-0.6,2.7-2.4,4.8-4,6.2c-1.6,1.4-4,1.4-5.6,0c-1.6-1.4-3.3-3.4-4-6.2
							c0,0,0.5-1.1,0.5-2.6c0-1.5-0.1-2.6,1.6-2.8c1.8-0.2,5.8,0.4,8.1,0C23.7,9.8,24.7,12.3,24.7,15.6z"/>
					</g>
				</g>
			</g>
		</g>
	</g>
</g>
</svg>
