<?xml version="1.0" encoding="utf-8"?>
<!-- Generator: Adobe Illustrator 18.0.0, SVG Export Plug-In . SVG Version: 6.00 Build 0)  -->
<!DOCTYPE svg PUBLIC "-//W3C//DTD SVG 1.1//EN" "http://www.w3.org/Graphics/SVG/1.1/DTD/svg11.dtd">
<svg version="1.1" id="Layer_1" xmlns="http://www.w3.org/2000/svg" xmlns:xlink="http://www.w3.org/1999/xlink" x="0px" y="0px"
	 viewBox="0 0 36 36" enable-background="new 0 0 36 36" xml:space="preserve">
<g>
	<g>
		<g>
			<g>
				<path fill="#E24B4B" d="M30.2,33.9H5.8l1.3-6.1c0.3-1.2,1.1-2.2,2.2-2.6l3.8-1.5l5,0.2l5-0.2l3.8,1.5c1.1,0.4,1.9,1.4,2.2,2.6
					L30.2,33.9z"/>
			</g>
		</g>
	</g>
	<g>
		<g>
			<g>
				<g>
					<path fill="#D03F3F" d="M19.9,4.8h-3.5c-0.5,0-0.8-0.6-0.4-1l1-1.1c0.6-0.7,1.7-0.7,2.3,0l1,1.1C20.7,4.1,20.4,4.8,19.9,4.8z"
						/>
				</g>
			</g>
			<g>
				<g>
					<g>
						<g>
							<g>
								<g>
									<path fill="#3E4347" d="M15.3,24.9h5.4c1.9-1.7,4.1-4.6,4.1-9.2c0-5.5-1.2-7.5-3.2-8.1c-2.3,2.4-3.1,0.9-7,1.3
										c-3.6-0.3-3,5.9-2.7,6.9C11.5,20.2,13.5,23.2,15.3,24.9z"/>
								</g>
							</g>
						</g>
						<g>
							<g>
								<g>
									<g>
										<g>
											<g>
												<g>
													<g>
														<g>
															<path fill="#FFE9AB" d="M13.5,16.3c-0.3-0.4-0.6-0.7-1-0.8c-1-0.3-1.5,0.6-1,2.1c0.3,1.1,0.7,2,1.4,2
																c0,0,0.4,0.1,0.9-0.1L13.5,16.3z"/>
														</g>
													</g>
												</g>
												<g>
													<g>
														<g>
															<path fill="#FFE9AB" d="M22.5,16.3c0.3-0.4,0.6-0.7,1-0.8c1-0.3,1.5,0.6,1,2.1c-0.3,1.1-0.7,2-1.4,2
																c0,0-0.4,0.1-0.9-0.1L22.5,16.3z"/>
														</g>
													</g>
												</g>
											</g>
											<g>
												<g>
													<g>
														<g>
															<path fill="#FFD68D" d="M21.5,20.6v3.4L21,24.6c-1.5,2.1-4.6,2.1-6.1,0l-0.5-0.6v-3.4H21.5z"/>
														</g>
													</g>
												</g>
												<g>
													<g>
														<g>
															<g>
																<path fill="#FFE9AB" d="M23.5,16.7c0,4.3-3,5.9-4.6,6.5c-0.6,0.2-1.2,0.2-1.9,0c-1.3-0.4-3.7-1.7-4.5-5.3h0.1v-1.5
																	h-0.2c0.1-2.9,2.5-5.2,5.5-5.2C21.2,9.9,23.7,12.3,23.5,16.7z"/>
															</g>
														</g>
													</g>
												</g>
											</g>
										</g>
									</g>
								</g>
							</g>
							<g>
								<g>
									<path fill="#3E4347" d="M13,18.6c-0.5-5.5,1.9-4.7,1.5-6.5c1.7,1.5,3.6,2.3,5.6,2.2c1.2,0,2.3,0.8,2.7,2
										c0.2,0.6,0.3,1.3,0.3,2.3c0,0,1.8-3.7,0.9-8.2c-0.9-4.5-8.8-4.9-9.5-1.5C14.6,8.9,10.1,7.9,13,18.6z"/>
								</g>
							</g>
						</g>
					</g>
				</g>
			</g>
			<g>
				<g>
					<path fill="#E24B4B" d="M23.7,9.4c-3.8-0.8-5.9,1.7-5.9,1.7c-1.6-2.1-4.9-1.8-4.9-1.8c0.4-2.5,1.5-4.5,2.9-5.8
						c0.2-0.2,0.4-0.3,0.7-0.3h3.3c0.3,0,0.6,0.1,0.8,0.3C22.6,5.9,23.7,9.4,23.7,9.4z"/>
				</g>
			</g>
		</g>
		<g>
			<path fill="#D03F3F" d="M17.8,11.2c0,0,2.1-2.5,5.9-1.7c0,0-0.6-1.8-1.7-3.7c0.5,1.1-0.6,1.9-1.9,2.5C18.8,8.8,17.4,9,15.9,9
				c-1.6,0-3,0.4-3,0.4S16.2,9.1,17.8,11.2z"/>
		</g>
		<g>
			<g>
				
					<image overflow="visible" width="44" height="17" xlink:href="66A7E52D.png"  transform="matrix(0.24 0 0 0.24 12.7938 23.0066)">
				</image>
			</g>
			<g>
				<g>
					<g>
						<path fill="#E9EFF4" d="M12.5,29.6c1.5-0.6,3.4-1.6,4.3-3.1C14.6,26.2,12.3,27.7,12.5,29.6z"/>
					</g>
				</g>
				<g>
					<g>
						<path fill="#E9EFF4" d="M17.9,29.3c-0.7-0.7-1.4-1.8-1.4-2.9C17.8,26.8,18.6,28.3,17.9,29.3z"/>
					</g>
				</g>
			</g>
			<g>
				<g>
					<path fill="#DAE5EF" d="M17.6,25.7c0,0-0.9,0.9-1,1.5c-0.1,0-0.3,0-0.3-0.1c0,0-0.6-0.9-0.4-1.9C16.5,25.2,17.1,25.4,17.6,25.7
						z"/>
				</g>
			</g>
			<g>
				<path fill="#DAE5EF" d="M23.1,23.7c0,0-0.3-0.4-0.7-0.6c0.6,3-2.4,3.9-5.3,3.5C21,27.4,22.9,25.7,23.1,23.7z"/>
			</g>
			<g>
				<path fill="#DAE5EF" d="M13.3,23.6c0.2-0.3,0.3-0.4,0.4-0.4c-0.4,0-0.7,0-0.8,0.4c-0.3,0.6,1,2.4,1.4,2.6
					c0.4,0.2,0.8,0.3,1.3,0.4C13.4,26,13.2,23.9,13.3,23.6z"/>
			</g>
		</g>
	</g>
</g>
</svg>
