<?xml version="1.0" encoding="utf-8"?>
<!-- Generator: Adobe Illustrator 18.0.0, SVG Export Plug-In . SVG Version: 6.00 Build 0)  -->
<!DOCTYPE svg PUBLIC "-//W3C//DTD SVG 1.1//EN" "http://www.w3.org/Graphics/SVG/1.1/DTD/svg11.dtd">
<svg version="1.1" id="Layer_1" xmlns="http://www.w3.org/2000/svg" xmlns:xlink="http://www.w3.org/1999/xlink" x="0px" y="0px"
	 viewBox="0 0 36 36" enable-background="new 0 0 36 36" xml:space="preserve">
<g>
	<g>
		<g>
			<g>
				<g>
					<path fill="#F4C534" d="M14.6,18.7l0,4.7c2.2,1.1,4.5,1.1,6.7,0l0-4.7H14.6z"/>
				</g>
			</g>
			<g>
				<g>
					<g>
						<g>
							<g>
								<g>
									<path fill="#3E4347" d="M30,34l-1-8.7c-0.3-1.4-1.4-2.5-2.8-2.7l-3.7-0.7L18,24.3l-4.5-2.4l-3.7,0.7
										c-1.4,0.3-2.5,1.3-2.8,2.7L6,34H30z"/>
								</g>
							</g>
						</g>
						<g>
							<g>
								<path fill="#CBD6E0" d="M18.7,34l3.6-9.1c0,0-2.3-1.6-4.4-0.6c0,0-3-1.1-4.3-1.1L17.3,34H18.7z"/>
							</g>
						</g>
						<g>
							<g>
								<g>
									<g>
										<path fill="#E24B4B" d="M19.8,34l-1-7.7c-0.5-0.4-1-0.4-1.5,0l-1,7.7H19.8z"/>
									</g>
								</g>
							</g>
							<g>
								<g>
									<polygon fill="#E24B4B" points="18.8,26.3 19.4,25.7 18,24.3 16.6,25.7 17.3,26.3 									"/>
								</g>
							</g>
						</g>
						<g>
							<g>
								<g>
									<g>
										<g>
											<rect x="22" y="30.6" fill="#31373A" width="4.8" height="3.4"/>
										</g>
									</g>
									<g>
										<g>
											<path fill="#777B7E" d="M27,29v1.8c0,0.1-0.1,0.2-0.2,0.2l-2.4,0.7c0,0-0.1,0-0.1,0l-2.4-0.7c-0.1,0-0.2-0.1-0.2-0.2V29
												c0-0.1,0.1-0.2,0.2-0.2h4.9C27,28.8,27,28.9,27,29z"/>
										</g>
									</g>
								</g>
								<g>
									<g>
										<circle fill="#3E4347" cx="24.4" cy="30.5" r="0.5"/>
									</g>
								</g>
							</g>
						</g>
						<g>
							<g>
								<g>
									<g>
										<path fill="#FFD93B" d="M14.2,15.1c0,0.9-0.5,1.6-1.2,1.6c-0.2,0-1-0.7-1.2-1.6c-0.3-1.5,0.2-2.2,1.2-1.6
											C13.6,13.9,14.2,14.2,14.2,15.1z"/>
									</g>
								</g>
								<g>
									<g>
										<path fill="#FFD93B" d="M21.8,15.1c0,0.9,0.5,1.6,1.2,1.6c0.2,0,1-0.7,1.2-1.6c0.3-1.5-0.2-2.2-1.2-1.6
											C22.4,13.9,21.8,14.2,21.8,15.1z"/>
									</g>
								</g>
							</g>
							<g>
								<g>
									<g>
										<path fill="#FFD93B" d="M23.2,15.2c0,2.3-2.1,4.2-3.6,5.3c-0.9,0.7-2.2,0.7-3.1,0c-1.5-1.1-3.6-3-3.6-5.3
											c0-2.9,2.3-5.2,5.2-5.2C20.9,10,23.2,12.4,23.2,15.2z"/>
									</g>
								</g>
								<g>
									<g>
										<g>
											<path fill="#8F6D52" d="M12.5,10.7c0,0-0.3,2.5,0.4,4.5l0.2,0c0,0,0-1.8,0.7-2.5s1.9,0,2.4-1.8H18V8.4
												C18,8.4,13.5,8.9,12.5,10.7z"/>
										</g>
									</g>
									<g>
										<g>
											<path fill="#8F6D52" d="M23.5,10.7c0,0,0.3,2.5-0.4,4.5l-0.2,0c0,0,0-1.8-0.7-2.5s-2.4-1.8-2.4-1.8H18V8.4
												C18,8.4,22.5,8.9,23.5,10.7z"/>
										</g>
									</g>
								</g>
							</g>
						</g>
					</g>
				</g>
			</g>
			<g>
				<g>
					<g>
						<g>
							<path fill="#E9EFF4" d="M18,24.2c-0.2,0-0.5-0.3-1.1,0.3l-1.5,1.9c0,0-1.5-3.1-1.9-4.5l1.2-2.2C15.4,21.6,16.6,23.1,18,24.2z
								"/>
						</g>
						<g>
							<path fill="#E9EFF4" d="M22.5,21.9c-0.4,1.4-1.9,4.5-1.9,4.5L19,24.5c-0.6-0.6-0.9-0.3-1-0.3c1.4-1.2,2.5-2.6,3.3-4.5
								L22.5,21.9z"/>
						</g>
					</g>
				</g>
			</g>
		</g>
	</g>
	<g>
		<g>
			<g>
				<g>
					<path fill="#DAE5EF" d="M26.3,7.6c0,3.1-3.7,4.4-8.3,4.4s-8.3-1.3-8.3-4.4S13.4,2,18,2S26.3,4.5,26.3,7.6z"/>
				</g>
			</g>
			<g>
				<g>
					<g>
						<path fill="#3E4347" d="M11.8,11.4C11.8,11.4,11.8,11.4,11.8,11.4c0,1.5,2.8,1.6,6.2,1.6c3.4,0,6.2-0.1,6.2-1.6c0,0,0,0,0,0
							C20.1,9,15.9,9,11.8,11.4z"/>
					</g>
				</g>
				<g>
					<g>
						<g>
							<path fill="#3E4347" d="M24.3,9.4c-0.3,0.5-0.3,0.8-0.3,0.8C20,9,16,9,11.9,10.2c0,0,0-0.3-0.3-0.8c-0.3-0.4,0.2-1.1,1.2-1.7
								c3-1.6,8.1-1.2,10.3,0.1C24.2,8.3,24.6,8.9,24.3,9.4z"/>
						</g>
					</g>
				</g>
				<g>
					<g>
						<path fill="#D3D9DD" d="M24.2,11.4c0,0,0.2-0.6-0.2-1.2c-4-2.1-8.1-2.1-12.1,0c-0.4,0.6-0.2,1.2-0.2,1.2
							C16.1,9,20.2,9.1,24.2,11.4z"/>
					</g>
				</g>
			</g>
		</g>
	</g>
	<g>
		<g>
			<g>
				<path fill="#5A5F63" d="M21.4,34c1.1-3.1,1.9-6,2-9.2L23.1,24l1.7-0.4c-0.8-1.7-2-3.3-3.5-3.9C20.9,24.1,18.9,33,18.7,34H21.4z"
					/>
			</g>
			<g>
				<path fill="#5A5F63" d="M12.6,24.8c0.1,3.2,0.9,6.2,2,9.2h2.7c-0.2-1-2.2-9.9-2.6-14.3c-1.5,0.5-2.6,2.1-3.5,3.9l1.7,0.4
					L12.6,24.8z"/>
			</g>
		</g>
	</g>
</g>
</svg>
