<?xml version="1.0" encoding="utf-8"?>
<!-- Generator: Adobe Illustrator 18.0.0, SVG Export Plug-In . SVG Version: 6.00 Build 0)  -->
<!DOCTYPE svg PUBLIC "-//W3C//DTD SVG 1.1//EN" "http://www.w3.org/Graphics/SVG/1.1/DTD/svg11.dtd">
<svg version="1.1" id="Layer_1" xmlns="http://www.w3.org/2000/svg" xmlns:xlink="http://www.w3.org/1999/xlink" x="0px" y="0px"
	 viewBox="0 0 36 36" enable-background="new 0 0 36 36" xml:space="preserve">
<g>
	<g>
		<g>
			<g>
				<path fill="#3E4347" d="M14.7,22.7v-5.2h6.6v5.2c0,2.1,1.1,4,2.9,5l0,0c0.3,0.2,0.8-0.1,0.8-0.4V15.1c0-3.8-3-7.2-6.8-7.3
					c-4-0.1-7.2,3.1-7.2,7v12.4c0,0.4,0.4,0.6,0.8,0.4l0,0C13.5,26.7,14.7,24.8,14.7,22.7z"/>
			</g>
		</g>
		<g>
			<g>
				<g>
					<g>
						<g>
							<g>
								<g>
									<g>
										<path fill="#FFE9AB" d="M20.5,18.4h-5v0.8c0,2.1-0.6,4.1-1.8,5.8v3.2h8.7v-3.2c-1.2-1.7-1.8-3.7-1.8-5.7V18.4z"/>
									</g>
								</g>
								<g>
									<g>
										<path fill="#FFDC97" d="M22.3,24.9c-1.2-1.7-1.8-3.7-1.8-5.7v-0.8h-5v0.8c0,0.5,0,0.9-0.1,1.4l0,0c0,0,1.9,3.5,6.9,5.3
											V24.9z"/>
									</g>
								</g>
								<g>
									<g>
										<path fill="#D03F3F" d="M28.8,28.1v3.3c0,1.4-1.2,2.6-2.6,2.6H9.8c-1.4,0-2.6-1.2-2.6-2.6v-3.3c0-1,0.6-1.9,1.4-2.3
											l6.3-3.2c0.8,1.5,1.9,2.9,3.1,4.1c1.3-1.1,2.3-2.5,3.1-4.1l6.3,3.2C28.3,26.3,28.8,27.2,28.8,28.1z"/>
									</g>
								</g>
							</g>
						</g>
					</g>
				</g>
			</g>
		</g>
		<g>
			<g>
				<g>
					<g>
						<g>
							<g>
								<path fill="#FFE9AB" d="M24,16c0,0.9-0.4,1.6-0.9,1.6c-0.5,0-0.9-0.7-0.9-1.6c0-0.9,0.4-1.6,0.9-1.6
									C23.6,14.4,24,15.1,24,16z"/>
							</g>
						</g>
					</g>
				</g>
			</g>
			<g>
				<g>
					<g>
						<g>
							<g>
								<g>
									<g>
										<g>
											<g>
												<g>
													<g>
														<g>
															<g>
																<g>
																	<g>
																		<g>
																			<g>
																				<g>
																					<g>
																						<g>
																							<g>
																								<g>
																									<g>
																										<g>
																											<g>
																												<g>
																													<path fill="#FFE9AB" d="M23.1,16.2c0,3.6-2.7,5.7-4.2,6.5c-0.6,0.3-1.3,0.3-1.8,0
																														c-1.5-0.9-4.2-3-4.2-6.5c0-1.6,0.4-3.2,1.1-4.4h8C22.7,13.1,23.1,14.6,23.1,16.2z"/>
																												</g>
																											</g>
																										</g>
																									</g>
																								</g>
																							</g>
																						</g>
																					</g>
																				</g>
																			</g>
																		</g>
																	</g>
																</g>
															</g>
														</g>
													</g>
												</g>
											</g>
										</g>
									</g>
								</g>
							</g>
						</g>
					</g>
				</g>
			</g>
			<g>
				<g>
					<g>
						<g>
							<g>
								<g>
									<path fill="#FFE9AB" d="M13.8,16c0,0.9-0.4,1.6-0.9,1.6c-0.5,0-0.9-0.7-0.9-1.6c0-0.9,0.4-1.6,0.9-1.6
										C13.4,14.4,13.8,15.1,13.8,16z"/>
								</g>
							</g>
						</g>
					</g>
				</g>
			</g>
		</g>
		<g>
			<g>
				<path fill="#3E4347" d="M13.1,16.9c0,0,0.3-1,0.7-2.1c0.7-2.3,5.6,0.3,6.8-1.7c0,0,0.5,1.7,2,1.6l0.1,2.1l0,0
					c0,0,0.2-1.7,0.7-2.6c0.4-0.9,0.6-1,0.4-1.4c-0.2-0.4-1.5-2.6-2.4-3.1c-0.9-0.5-1.5-0.9-2.4-1s-1.4-0.4-2.3,0.2
					c-0.9,0.5-1.9,1.5-2.3,2.1c-0.5,0.6-1.7,1.9-1.8,2.2c-0.1,0.3,0.3,1.3,0.3,1.3C13.1,15,13.1,15.9,13.1,16.9L13.1,16.9z"/>
			</g>
		</g>
	</g>
	<g>
		<g>
			<g>
				<g>
					<path fill="#F4C534" d="M25.1,11.7c-4.6,0.5-9.7,0.5-14.4,0c-0.7-2.3-1.3-4.5-1.8-6.8c0.9,1.6,1.8,2.6,2.5,2.4
						c0.8-0.2,1.2-2.3,0.9-4.8C13,4,13.7,5,14.4,4.9c0.7-0.1,1.2-1.2,1.4-2.9c0.4,2.6,1.2,4.5,2.1,4.5c0.9,0,1.7-1.9,2.1-4.4
						c0.3,1.6,0.7,2.8,1.4,2.9C22.1,5,22.9,4,23.6,2.5c-0.3,2.6,0,4.6,0.9,4.8c0.7,0.2,1.6-0.8,2.5-2.4C26.4,7.2,25.8,9.5,25.1,11.7
						z"/>
				</g>
			</g>
			<g>
				<g>
					<path fill="#FFD93B" d="M25.8,12.7C25.8,12.7,25.8,12.7,25.8,12.7c-0.1,0.5-0.6,0.7-1,0.6c-4.4-1.1-9.1-1.1-13.5,0
						c-0.4,0.1-0.9-0.1-1-0.6l0,0c-0.1-0.5,0.1-0.9,0.6-1.1c4.7-1.2,9.7-1.2,14.4,0C25.7,11.7,25.9,12.2,25.8,12.7z"/>
				</g>
			</g>
		</g>
		<g>
			<g>
				<g>
					<g>
						<path fill="#45CBEA" d="M18.7,9.4c-0.4,0.4-1,0.4-1.4,0c-0.4-0.4-0.4-1,0-1.4c0.4-0.4,1-0.4,1.4,0C19.1,8.3,19.1,9,18.7,9.4z"
							/>
					</g>
				</g>
				<g>
					<g>
						<path fill="#38C0DC" d="M18.9,9.1c-0.2,0.3-0.5,0.6-0.9,0.6c-0.5,0-1-0.5-1-1c0-0.4,0.2-0.8,0.6-0.9c-0.1,0.1-0.1,0.3-0.1,0.4
							c0,0.5,0.4,1,1,1C18.6,9.2,18.8,9.1,18.9,9.1z"/>
					</g>
				</g>
				<g>
					
						<ellipse transform="matrix(0.7071 0.7071 -0.7071 0.7071 11.2198 -10.6172)" fill="#FFFFFF" cx="18.4" cy="8.2" rx="0.3" ry="0.2"/>
				</g>
			</g>
			<g>
				<g>
					<g>
						<g>
							<path fill="#E24B4B" d="M14.9,9.7c-0.3,0.3-0.8,0.3-1.1,0c-0.3-0.3-0.3-0.8,0-1.1c0.3-0.3,0.8-0.3,1.1,0
								C15.2,8.9,15.2,9.4,14.9,9.7z"/>
						</g>
					</g>
					<g>
						<g>
							<path fill="#D03F3F" d="M15,9.5c-0.1,0.3-0.4,0.5-0.7,0.5c-0.4,0-0.8-0.4-0.8-0.8c0-0.3,0.2-0.6,0.5-0.7
								c0,0.1-0.1,0.2-0.1,0.3c0,0.4,0.3,0.8,0.8,0.8C14.8,9.5,14.9,9.5,15,9.5z"/>
						</g>
					</g>
					<g>
						
							<ellipse transform="matrix(0.7071 0.7071 -0.7071 0.7071 10.5079 -7.7808)" fill="#FFFFFF" cx="14.6" cy="8.8" rx="0.2" ry="0.1"/>
					</g>
				</g>
				<g>
					<g>
						<g>
							<path fill="#E24B4B" d="M22.2,9.7c-0.3,0.3-0.8,0.3-1.1,0c-0.3-0.3-0.3-0.8,0-1.1c0.3-0.3,0.8-0.3,1.1,0
								C22.6,8.9,22.6,9.4,22.2,9.7z"/>
						</g>
					</g>
					<g>
						<g>
							<path fill="#D03F3F" d="M22.4,9.5c-0.1,0.3-0.4,0.5-0.7,0.5c-0.4,0-0.8-0.4-0.8-0.8c0-0.3,0.2-0.6,0.5-0.7
								c0,0.1-0.1,0.2-0.1,0.3c0,0.4,0.3,0.8,0.8,0.8C22.2,9.5,22.3,9.5,22.4,9.5z"/>
						</g>
					</g>
					<g>
						
							<ellipse transform="matrix(0.7071 0.7071 -0.7071 0.7071 12.6686 -12.997)" fill="#FFFFFF" cx="22" cy="8.8" rx="0.2" ry="0.1"/>
					</g>
				</g>
			</g>
		</g>
	</g>
	<g>
		<g>
			<g>
				<path fill="#FFFFFF" d="M21.9,24.1l-1.5,3.7c-0.1,0.2-0.4,0.3-0.6,0.2L18,26.7l3.1-4.1l0.7,1.1C21.9,23.9,22,24,21.9,24.1z"/>
			</g>
		</g>
		<g>
			<g>
				<path fill="#FFFFFF" d="M14.1,24.1l1.5,3.7c0.1,0.2,0.4,0.3,0.6,0.2l1.8-1.3l-3.1-4.1l-0.7,1.1C14.1,23.9,14,24,14.1,24.1z"/>
			</g>
		</g>
	</g>
</g>
</svg>
