<?xml version="1.0" encoding="utf-8"?>
<!-- Generator: Adobe Illustrator 18.0.0, SVG Export Plug-In . SVG Version: 6.00 Build 0)  -->
<!DOCTYPE svg PUBLIC "-//W3C//DTD SVG 1.1//EN" "http://www.w3.org/Graphics/SVG/1.1/DTD/svg11.dtd">
<svg version="1.1" id="Layer_1" xmlns="http://www.w3.org/2000/svg" xmlns:xlink="http://www.w3.org/1999/xlink" x="0px" y="0px"
	 viewBox="0 0 36 36" enable-background="new 0 0 36 36" xml:space="preserve">
<g>
	<g>
		<g>
			<g>
				<g>
					<path fill="#E24B4B" d="M30.3,34l-1-8.9c-0.3-1.4-1.4-2.5-2.8-2.8l-3.8-0.7C20.8,25,18,28.5,18,29.2c-0.1-0.5-2.9-4.1-4.6-7.6
						l-3.8,0.7c-1.4,0.3-2.5,1.4-2.8,2.8l-1,8.9H30.3z"/>
				</g>
			</g>
		</g>
		<g>
			<g>
				<g>
					<g>
						<g>
							<path fill="#D03F3F" d="M25.4,10.4c0-0.2,0-0.4,0-0.6c0-4.1-3.3-7.4-7.4-7.4s-7.4,3.3-7.4,7.4c0,0.2,0,0.4,0,0.6H25.4z"/>
						</g>
					</g>
					<g>
						<g>
							<path fill="#BF3333" d="M19.3,10.4V2.5c0-0.7-2.6-0.7-2.6,0v7.9H19.3z"/>
						</g>
					</g>
				</g>
				<g>
					<g>
						<g>
							<path fill="#BF3333" d="M14.7,7.8c-0.9-1-1.9-1.7-3.1-1.8C11.3,6,12,4.7,12.4,4.9C13.4,5.5,14.2,6.5,14.7,7.8z"/>
						</g>
					</g>
					<g>
						<g>
							<path fill="#BF3333" d="M21.3,7.8c0.9-1,1.9-1.7,3.1-1.8C24.7,6,24,4.7,23.6,4.9C22.6,5.5,21.9,6.5,21.3,7.8z"/>
						</g>
					</g>
				</g>
			</g>
			<g>
				<g>
					<g>
						<path fill="#E24B4B" d="M27.4,11.3L27.4,11.3c0,5.1-4.2,9.2-9.4,9.2c-5.2,0-9.4-4.1-9.4-9.2v0c0-0.8,0.6-1.4,1.4-1.6
							c5.3-1.3,10.6-1.3,15.9,0C26.8,9.9,27.4,10.6,27.4,11.3z"/>
					</g>
				</g>
				<g>
					<g>
						<path fill="#BF3333" d="M11.1,12c-0.5,4.1,2.5,8,6.9,8c4.3,0,7.4-3.8,6.9-8H11.1z"/>
					</g>
				</g>
			</g>
			<g>
				<g>
					<g>
						<path fill="#FFD93B" d="M12.5,16.1C12.5,16.1,12.5,16.1,12.5,16.1L12.5,16.1L12.5,16.1z"/>
					</g>
					<g>
						<path fill="#FFD93B" d="M23.5,16.1L23.5,16.1L23.5,16.1C23.5,16.1,23.5,16.1,23.5,16.1z"/>
					</g>
				</g>
			</g>
			<g>
				<g>
					<g>
						<g>
							<g>
								<path fill="#F4C534" d="M14.7,18.5l0,4.7c0.1,2.6,2.6,5.4,3.3,7.4c0.3-1.2,3.4-5.1,3.3-7.4l0-4.7H14.7z"/>
							</g>
						</g>
						<g>
							<g>
								<g>
									<g>
										<g>
											<g>
												<g>
													<path fill="#FFD93B" d="M14.3,15c0,0.9-0.5,1.6-1.2,1.6c-0.2,0-1-0.7-1.2-1.6c-0.3-1.4,0.2-2.2,1.2-1.6
														C13.6,13.7,14.3,14.1,14.3,15z"/>
												</g>
											</g>
											<g>
												<g>
													<path fill="#FFD93B" d="M21.7,15c0,0.9,0.5,1.6,1.2,1.6c0.2,0,1-0.7,1.2-1.6c0.3-1.4-0.2-2.2-1.2-1.6
														C22.4,13.7,21.7,14.1,21.7,15z"/>
												</g>
											</g>
										</g>
										<g>
											<g>
												<g>
													<path fill="#FFD93B" d="M23.1,15.1c0,2.3-2.1,4.2-3.6,5.2c-0.9,0.6-2.2,0.6-3.1,0c-1.5-1.1-3.6-2.9-3.6-5.2
														c0-1.1,0.4-2.2,1-3.1h8.1C22.7,12.8,23.1,13.9,23.1,15.1z"/>
												</g>
											</g>
											<g>
												<g>
													<g>
														<path fill="#8F6D52" d="M12.5,12h3c-0.5,0.3-1.1,0.2-1.6,0.6c-0.8,0.6-0.7,2.5-0.7,2.5h-0.2
															C12.5,14,12.5,12.9,12.5,12z"/>
													</g>
													<g>
														<path fill="#8F6D52" d="M23.5,12c0,0.9-0.1,2-0.4,3.1h-0.2c0,0,0-1.8-0.7-2.5c-0.2-0.2-0.5-0.4-0.8-0.6H23.5z"/>
													</g>
												</g>
											</g>
										</g>
									</g>
								</g>
							</g>
						</g>
					</g>
				</g>
				<g>
					<g>
						<g>
							<path fill="#E9EFF4" d="M18,30.6c1.1-3,5.2-2.9,5.4-6.1L23,23.7l1.7-0.4c-0.8-1.7-2-3.3-3.4-3.8C20.9,23.9,18.2,29.6,18,30.6
								L18,30.6z"/>
						</g>
						<g>
							<path fill="#E9EFF4" d="M12.6,24.5c0.1,3.2,4.2,3.1,5.4,6.1l0,0c-0.2-1-2.9-6.7-3.3-11.1c-1.4,0.5-2.6,2.1-3.4,3.8l1.7,0.4
								L12.6,24.5z"/>
						</g>
					</g>
				</g>
			</g>
		</g>
	</g>
	<g>
		<path fill="#D03F3F" d="M26.4,34c-0.4-1.5-1.1-4.2-1.9-3.9c0,0,0,0,0,0c-4.2,1.3-8.8,1.3-13,0c0,0,0,0,0,0
			c-0.8-0.2-1.5,2.4-1.9,3.9H26.4z"/>
	</g>
</g>
</svg>
