<?xml version="1.0" encoding="utf-8"?>
<!-- Generator: Adobe Illustrator 18.0.0, SVG Export Plug-In . SVG Version: 6.00 Build 0)  -->
<!DOCTYPE svg PUBLIC "-//W3C//DTD SVG 1.1//EN" "http://www.w3.org/Graphics/SVG/1.1/DTD/svg11.dtd">
<svg version="1.1" id="Layer_1" xmlns="http://www.w3.org/2000/svg" xmlns:xlink="http://www.w3.org/1999/xlink" x="0px" y="0px"
	 viewBox="0 0 36 36" enable-background="new 0 0 36 36" xml:space="preserve">
<g>
	<g>
		<g>
			<path fill="#E24B4B" d="M29.9,34c-0.3-8.3-5.4-10.9-12.1-10.9c-6.6,0-11.7,2.6-12.1,10.9H29.9z"/>
		</g>
	</g>
	<g>
		<path fill="#E9EFF4" d="M9.8,27.4l3.3-1.6c0,0-1.1,1.4-0.9,3.8c0,0,1.4-1.7,2.4-2.9c0,0-0.4,2.5-0.1,4.3c0,0,1.1-2.7,1.8-3.6
			c0,0,0.4,3.3,1.6,4.8c1.2-1.5,1.6-4.8,1.6-4.8c0.7,0.9,1.8,3.6,1.8,3.6c0.3-1.7-0.1-4.3-0.1-4.3c1,1.2,2.4,2.9,2.4,2.9
			c0.2-2.2-0.8-3.7-0.9-3.8l3.3,1.6c-0.7-1.7-2.1-2.7-2.1-2.7l1.8,0.3c-1.5-1-3.2-1.5-5.2-1.8l-2.6,0.2l-2.6-0.2
			c-2,0.2-3.8,0.8-5.3,1.8l1.9-0.4C11.9,24.7,10.4,25.7,9.8,27.4z"/>
	</g>
	<g>
		<g>
			<g>
				<g>
					<g>
						<g>
							<g>
								<g>
									<g>
										<g>
											<g>
												<g>
													<g>
														<path fill="#FFD68D" d="M17.9,26.2c-1.4-0.9-2.6-1.8-3.3-2.8l0-3.2h6.6l0,3.2C20.2,24.6,19.1,25.6,17.9,26.2z"/>
													</g>
												</g>
											</g>
										</g>
									</g>
								</g>
							</g>
						</g>
					</g>
				</g>
				<g>
					<g>
						<g>
							<g>
								<g>
									<g>
										<path fill="#FFDC97" d="M13.6,16.9c-0.2-0.4-0.6-0.6-0.9-0.7c-1-0.3-1.4,0.6-1,1.9c0.3,1,0.7,1.8,1.3,1.8
											c0,0,0.4,0.1,0.8-0.1L13.6,16.9z"/>
									</g>
								</g>
							</g>
						</g>
						<g>
							<g>
								<g>
									<g>
										<path fill="#FFDC97" d="M22.1,16.9c0.2-0.4,0.6-0.6,0.9-0.7c1-0.3,1.4,0.6,1,1.9c-0.3,1-0.7,1.8-1.3,1.8
											c0,0-0.4,0.1-0.8-0.1L22.1,16.9z"/>
									</g>
								</g>
							</g>
						</g>
					</g>
					<g>
						<g>
							<g>
								<g>
									<g>
										<path fill="#FFDC97" d="M23,17.3c0,4-2.8,5.5-4.3,6.1c-0.6,0.2-1.2,0.2-1.7,0c-1.2-0.4-3.5-1.5-4.2-5h0v-1.4h-0.2
											c0.1-2.7,2.4-4.9,5.2-4.9C20.9,11,23.2,13.2,23,17.3z"/>
									</g>
								</g>
							</g>
						</g>
						<g>
							<g>
								<g>
									<path fill="#3E4347" d="M23.1,14.3v-2.4c-0.2-0.1-0.5-0.2-0.8-0.2c0,0-1.1-3.8-6.5-2.4c-5.4,1.4-3,8.9-3,9.2h0.4
										c0-0.4,0-0.9,0-1.3c0,0-0.1-3.2,2.1-2.6c1.7,0.4,3.4,0,5-0.7c0.9-0.4,2.1,0.2,2,1.3c0,0,0,0,0,0c-0.1,0.7,0.1,2.2,0.2,3.3
										h0.4c0.1-0.2,0.8-2.4,0.9-4.2H23.1z"/>
								</g>
							</g>
						</g>
					</g>
				</g>
			</g>
		</g>
	</g>
	<g>
		<g>
			<g>
				<g>
					<path fill="#E24B4B" d="M30.4,9l-0.8,0.4c-1-1.4-2.1-2.7-3.3-3.5c-0.6-0.4-1.2-0.5-1.5-0.4c-0.1,0.1-0.2,0.1-0.3,0.3
						c-0.1,0.1-0.2,0.3-0.3,0.5c-0.4,0.9-0.7,2.4-0.7,3.9c0,1.5,0.1,3,0.4,4.5H12.1c0.3-1.5,0.4-3,0.4-4.5c0-1.5-0.3-3-0.7-3.9
						c-0.1-0.2-0.2-0.4-0.3-0.5c-0.1-0.1-0.1-0.2-0.3-0.3c-0.2-0.2-0.9,0-1.5,0.4C8.5,6.7,7.4,8.1,6.4,9.4L5.6,9
						C6.1,7.3,6.7,5.6,8,4c0.3-0.4,0.7-0.8,1.2-1.2c0.5-0.4,1.1-0.7,1.9-0.8c0.7-0.1,1.6,0,2.2,0.3C13.9,2.6,14.5,3,15,3.4
						c1,0.8,1.6,1.8,2.1,2.7c0.3,0.6,0.6,1.2,0.9,1.8c0.3-0.6,0.5-1.2,0.9-1.8c0.5-0.9,1.2-1.8,2.1-2.7c0.5-0.4,1-0.8,1.7-1.1
						C23.4,2,24.3,1.9,25,2.1c0.7,0.1,1.4,0.4,1.9,0.8C27.4,3.2,27.7,3.6,28,4C29.3,5.6,29.9,7.3,30.4,9z"/>
				</g>
			</g>
			<g>
				<g>
					<path fill="#F4C534" d="M20,14.7h3.9c-0.3-1.5-0.4-3-0.4-4.5c0-1.4,0.3-3,0.7-3.9c0.1-0.2,0.2-0.4,0.3-0.5
						c0.1-0.1,0.1-0.2,0.3-0.3c0.2-0.2,0.9,0,1.5,0.4c1.2,0.8,2.4,2.1,3.3,3.5L30,9.2C25-1.2,20,4.9,20,14.7z"/>
				</g>
			</g>
			<g>
				<g>
					<path fill="#F4C534" d="M16,14.7h-3.9c0.3-1.5,0.4-3,0.4-4.5c0-1.4-0.3-3-0.7-3.9c-0.1-0.2-0.2-0.4-0.3-0.5
						c-0.1-0.1-0.1-0.2-0.3-0.3c-0.2-0.2-0.9,0-1.5,0.4C8.5,6.7,7.4,8.1,6.4,9.4L6,9.2C11-1.2,16,4.9,16,14.7z"/>
				</g>
			</g>
			<g>
				<g>
					<g opacity="0.3">
						<g>
							<path fill="#FFFFFF" d="M31,8.9c-0.1,0.1-0.3,0-0.5-0.2c-0.2-0.2-0.3-0.4-0.2-0.5c0.1-0.1,0.3,0,0.5,0.2
								C31,8.6,31.1,8.8,31,8.9z"/>
						</g>
					</g>
				</g>
				<g>
					<g>
						<g>
							<circle fill="#65B1EF" cx="30" cy="9.2" r="1.4"/>
						</g>
					</g>
					<g>
						<g>
							<path fill="#4E99D2" d="M31,10.3c-0.6,0.6-1.5,0.6-2,0c-0.5-0.5-0.6-1.3-0.1-1.9c0,0.4,0.1,0.8,0.4,1.1c0.6,0.6,1.5,0.6,2,0
								c0,0,0.1-0.1,0.1-0.2C31.4,9.7,31.3,10,31,10.3z"/>
						</g>
					</g>
				</g>
			</g>
			<g>
				<g>
					<g opacity="0.3">
						<g>
							<path fill="#FFFFFF" d="M7,8.9C6.9,9,6.7,8.9,6.5,8.7C6.3,8.6,6.2,8.3,6.3,8.2c0.1-0.1,0.3,0,0.5,0.2C7,8.6,7.1,8.8,7,8.9z"
								/>
						</g>
					</g>
				</g>
				<g>
					<g>
						<g>
							<circle fill="#65B1EF" cx="6" cy="9.2" r="1.4"/>
						</g>
					</g>
					<g>
						<g>
							<path fill="#4E99D2" d="M7,10.3c-0.6,0.6-1.5,0.6-2,0C4.5,9.7,4.4,8.9,4.8,8.4c0,0.4,0.1,0.8,0.4,1.1c0.6,0.6,1.5,0.6,2,0
								c0,0,0.1-0.1,0.1-0.2C7.4,9.7,7.3,10,7,10.3z"/>
						</g>
					</g>
				</g>
			</g>
		</g>
		<g>
			<g>
				<path fill="#FFD93B" d="M24.6,14.6L24.6,14.6c0.1-0.5-0.2-0.9-0.7-1c-3.9-0.6-7.8-0.6-11.7,0c-0.5,0.1-0.8,0.5-0.7,1l0,0
					c0.1,0.5,0.5,0.8,1,0.7c3.7-0.6,7.5-0.6,11.2,0C24,15.4,24.5,15.1,24.6,14.6z"/>
			</g>
		</g>
	</g>
</g>
</svg>
