<?xml version="1.0" encoding="utf-8"?>
<!-- Generator: Adobe Illustrator 18.0.0, SVG Export Plug-In . SVG Version: 6.00 Build 0)  -->
<!DOCTYPE svg PUBLIC "-//W3C//DTD SVG 1.1//EN" "http://www.w3.org/Graphics/SVG/1.1/DTD/svg11.dtd">
<svg version="1.1" id="Layer_1" xmlns="http://www.w3.org/2000/svg" xmlns:xlink="http://www.w3.org/1999/xlink" x="0px" y="0px"
	 viewBox="0 0 36 36" enable-background="new 0 0 36 36" xml:space="preserve">
<g>
	<g>
		<g>
			<path fill="#5A5F63" d="M25.4,15.8c0,4.2-3.2,11.4-7.6,11.4s-7.6-7.3-7.6-11.4c0-2.5,3.7-7.6,7.6-7.6S25.4,13.3,25.4,15.8z"/>
		</g>
	</g>
	<g>
		<g>
			<g>
				<g>
					<g>
						<g>
							<g>
								<g>
									<g>
										<g>
											<g>
												<g>
													<g>
														<g>
															<g>
																<g>
																	<g>
																		<g>
																			<g>
																				<g>
																					<g>
																						<g>
																							<g>
																								<g>
																									<g>
																										<path fill="#FFDC97" d="M21.6,15.2h-7.4v1.2c0,3-0.9,6-2.7,8.4v4.8h12.7v-4.8c-1.7-2.5-2.7-5.4-2.7-8.4
																											V15.2z"/>
																									</g>
																								</g>
																							</g>
																						</g>
																					</g>
																				</g>
																			</g>
																		</g>
																	</g>
																</g>
															</g>
														</g>
													</g>
												</g>
											</g>
										</g>
										<g>
											<g>
												<g>
													<g>
														<path fill="#F29A2E" d="M30.9,27.3V32c0,1.1-1.1,2-2.4,2h-21c-1.3,0-2.4-0.9-2.4-2v-4.7c0-1.8,1.2-3.4,3.1-4.1
															l5.2-1.7v0c0,2.5,2,4.6,4.6,4.6s4.6-2,4.6-4.6v-0.1l5.3,1.8C29.7,23.9,30.9,25.5,30.9,27.3z"/>
													</g>
												</g>
											</g>
										</g>
									</g>
								</g>
							</g>
						</g>
					</g>
				</g>
			</g>
			<g>
				<g>
					<g>
						<g>
							<g>
								<path fill="#FFE9AB" d="M24.6,13.6c0,5.9-3.6,8.1-5.5,8.8c-0.8,0.3-1.6,0.3-2.4,0c-1.9-0.7-5.5-2.9-5.5-8.8
									c0-5.1,3-9.2,6.7-9.2C21.5,4.5,24.6,8.6,24.6,13.6z"/>
							</g>
						</g>
					</g>
					<g>
						<g>
							<g>
								<g>
									
										<ellipse transform="matrix(0.9947 0.1024 -0.1024 0.9947 1.6208 -2.4614)" fill="#FFE9AB" cx="24.8" cy="14.6" rx="1.4" ry="2.2"/>
								</g>
							</g>
						</g>
						<g>
							<g>
								<g>
									
										<ellipse transform="matrix(-0.9947 0.1024 -0.1024 -0.9947 23.2233 27.9246)" fill="#FFE9AB" cx="10.9" cy="14.6" rx="1.4" ry="2.2"/>
								</g>
							</g>
						</g>
					</g>
					<g>
						<g>
							<g>
								<path fill="#5A5F63" d="M14.9,7.2c-2.8,0-4.9,2.7-4.2,5.5c0.3,1,0.6,1.8,0.9,2.1l1-4.9C13.9,9.9,14.6,8.4,14.9,7.2L14.9,7.2
									z"/>
							</g>
							<g>
								<g>
									<path fill="#5A5F63" d="M16.9,7.2c3.8,0.4,6.7,1,6.2,2l1.1,5.6c0.4-0.6,0.7-1.3,0.9-1.9c1-2.8-1.1-5.7-4.1-5.7L16.9,7.2z"
										/>
								</g>
							</g>
						</g>
					</g>
					<g>
						<g>
							<g>
								<path fill="#D3D9DD" d="M12.5,10.6c3.5-2.2,7.1-2.9,10.7-1.4l0.3,1.4h2.3c0.2-1.6-0.1-3.1-0.8-4.3c-2.3-5.9-12.7-5.6-14.7,0
									c-0.2,1.2-0.1,2.8,0.1,4.3L12.5,10.6z"/>
							</g>
						</g>
					</g>
					<g>
						<g>
							<path fill="#DEE4E9" d="M11,4.9c0,0,5.8-0.3,14.4,7.5c0.5-1.3,0.7-2.7,0.3-4c0,0-3.1-4.8-11.6-5.7C12.6,3.1,11.6,3.9,11,4.9z
								"/>
						</g>
					</g>
					<g>
						<path fill="#D3D9DD" d="M25.6,8.4c0,0-3.1-4.8-11.6-5.7c-0.6,0.2-1.1,0.4-1.6,0.7c2.4,0.3,9.3,1.6,13.3,6.9
							C25.9,9.7,25.8,9,25.6,8.4z"/>
					</g>
				</g>
				<g>
					<g>
						<path fill="#E9EFF4" d="M10.7,12.4c0,0,5.4-7.3,13.6-7.2l-2.4-2.5c-0.9-0.7-2-0.9-3-0.6c-2.4,0.7-6.6,2.2-8.8,4.9
							C10.1,7.1,9.5,9.4,10.7,12.4z"/>
					</g>
				</g>
				<g>
					<g>
						<path fill="#E9EFF4" d="M24.3,5.2c-8.2-0.1-13.6,7.2-13.6,7.2C10.1,10.9,10,9.6,10,8.7V8.5c0-0.9,0.2-1.5,0.2-1.5
							c2.2-2.8,6.4-4.3,8.8-4.9c0.9-0.2,1.8-0.1,2.6,0.3c0,0,0,0,0,0c0.2,0.1,0.3,0.2,0.5,0.3l0.7,0.8C23.3,4,23.9,4.6,24.3,5.2z"/>
					</g>
				</g>
				<g>
					<path fill="#FFFFFF" d="M22.7,3.5C20,4.1,14.4,5.8,10.1,10C10,9.5,10,9.1,10,8.7V8.5c1.6-1.6,5.8-4.9,11.5-6.1c0,0,0,0,0,0
						c0.2,0.1,0.3,0.2,0.5,0.3L22.7,3.5z"/>
				</g>
			</g>
		</g>
		<g>
			<g>
				<path fill="#3E4347" d="M18.7,28.9c0,0.4-0.3,0.8-0.8,0.8c-0.4,0-0.7-0.3-0.7-0.8c0-0.4,0.3-0.7,0.7-0.7
					C18.4,28.1,18.7,28.5,18.7,28.9z"/>
			</g>
			<g>
				<path fill="#3E4347" d="M18.7,32c0,0.4-0.3,0.8-0.8,0.8c-0.4,0-0.7-0.3-0.7-0.8c0-0.4,0.3-0.7,0.7-0.7
					C18.4,31.2,18.7,31.6,18.7,32z"/>
			</g>
		</g>
	</g>
</g>
</svg>
