<?xml version="1.0" encoding="utf-8"?>
<!-- Generator: Adobe Illustrator 18.0.0, SVG Export Plug-In . SVG Version: 6.00 Build 0)  -->
<!DOCTYPE svg PUBLIC "-//W3C//DTD SVG 1.1//EN" "http://www.w3.org/Graphics/SVG/1.1/DTD/svg11.dtd">
<svg version="1.1" id="Layer_1" xmlns="http://www.w3.org/2000/svg" xmlns:xlink="http://www.w3.org/1999/xlink" x="0px" y="0px"
	 viewBox="0 0 36 36" enable-background="new 0 0 36 36" xml:space="preserve">
<g>
	<g>
		<g>
			<g>
				<path fill="#A5856D" d="M22.9,25.1c-3.3-2.3-6.6-2.4-9.8-0.1c-1.1,0.8-2.7,0-2.7-1.4l0-11.1C10.4,8.3,13.8,5,18,5h0
					c4.2,0,7.5,3.4,7.5,7.5l0,11.2C25.5,25.1,24,25.9,22.9,25.1z"/>
			</g>
		</g>
	</g>
	<g>
		<g>
			<g>
				<g>
					<g>
						<g>
							<g>
								<path fill="#FFDC97" d="M20.7,17.1h-5.5v0.9c0,2.2-0.7,4.4-2,6.2v3.5h9.4v-3.5c-1.3-1.8-2-4-2-6.2V17.1z"/>
							</g>
						</g>
						<g>
							<g>
								<path fill="#E9EFF4" d="M29.8,27.6v3.6c0,1.5-1.3,2.8-2.8,2.8H9.1c-1.5,0-2.8-1.3-2.8-2.8v-3.6c0-1,0.6-2,1.5-2.5l6.8-3.5
									c0,0,0.8,2.9,3.4,2.9c2.5,0,3.4-2.9,3.4-2.9l6.8,3.5C29.2,25.6,29.8,26.6,29.8,27.6z"/>
							</g>
						</g>
						<g>
							<g>
								<g>
									<polygon fill="#3E4347" points="18.9,26.8 19.8,32.2 18,34 16.2,32.2 17.1,26.8 16.2,25.9 17.6,24.5 18.4,24.5 19.8,25.9 
																			"/>
								</g>
							</g>
						</g>
						<g>
							<g>
								<g>
									<polygon fill="#FFFFFF" points="21.1,20.8 18,24.5 20.1,26.4 21.9,22.9 									"/>
								</g>
							</g>
							<g>
								<g>
									<polygon fill="#FFFFFF" points="14.9,20.8 18,24.5 15.9,26.4 14.1,22.9 									"/>
								</g>
							</g>
						</g>
						<g>
							<g>
								<path fill="#3E4347" d="M12.9,22.9l-1.6,0.5l-3.5,1.8c-0.9,0.5-1.5,1.4-1.5,2.5v3.6c0,1.5,1.3,2.8,2.8,2.8H18L12.9,22.9z"/>
							</g>
							<g>
								<path fill="#3E4347" d="M29.8,31.2v-3.6c0-1-0.6-2-1.5-2.5L23,22.5L18,34h9C28.5,34,29.8,32.7,29.8,31.2z"/>
							</g>
						</g>
						<g>
							<g>
								<g>
									<path fill="#FFE9AB" d="M24,13.5c0,4.9-3.2,6.7-5,7.3c-0.7,0.2-1.4,0.2-2.1,0c-1.7-0.6-5-2.4-5-7.3c0-4.2,2.7-7.6,6-7.6
										C21.3,5.9,24,9.3,24,13.5z"/>
								</g>
							</g>
							<g>
								<g>
									<g>
										
											<ellipse transform="matrix(0.9947 0.1024 -0.1024 0.9947 1.5872 -2.3547)" fill="#FFE9AB" cx="23.7" cy="14.3" rx="1.2" ry="1.8"/>
									</g>
								</g>
								<g>
									<g>
										
											<ellipse transform="matrix(-0.9947 0.1024 -0.1024 -0.9947 25.8024 27.2452)" fill="#FFE9AB" cx="12.2" cy="14.3" rx="1.2" ry="1.8"/>
									</g>
								</g>
							</g>
							<g>
								<g>
									<path fill="#A5856D" d="M23.3,14.5l-0.9-4.7c0,0-3.8,1.8-6.6-0.9c0,0-0.4,1.4-2.1,1.5l-0.9,4.1c-1-1-2.9-10.4,1.4-8.6
										C16.3,1,28.4,5.6,23.3,14.5z"/>
								</g>
							</g>
						</g>
					</g>
					<g>
						<g>
							<g>
								<path fill="#5A5F63" d="M25,23.8l-1.5,0.5l0.9,0.9c0.1,0.1,0.2,0.4,0,0.5L18,34l3.1-13.2l3.9,2.3
									C25.3,23.3,25.3,23.7,25,23.8z"/>
							</g>
						</g>
						<g>
							<g>
								<path fill="#5A5F63" d="M11,23.8l1.5,0.5l-0.9,0.9c-0.1,0.1-0.2,0.4,0,0.5L18,34l-3.1-13.2L11,23.1
									C10.7,23.3,10.7,23.7,11,23.8z"/>
							</g>
						</g>
					</g>
				</g>
			</g>
		</g>
	</g>
	<g>
		<g>
			<g>
				<path fill="#5A5F63" d="M18,2c-3.6,0-6.6,0.8-8.5,1.9c-0.5,0.3-0.6,1-0.4,1.6l1.4,3.6c0.1,0.4,0.3,0.7,0.6,0.8
					c1.8,0.8,4.2,1.3,6.8,1.3c2.6,0,5-0.5,6.8-1.3c0.3-0.1,0.5-0.4,0.6-0.8l1.4-3.6c0.2-0.6,0-1.3-0.4-1.6C24.6,2.8,21.6,2,18,2z"/>
			</g>
		</g>
		<g>
			<g>
				<ellipse fill="#3E4347" cx="18" cy="9.5" rx="7.4" ry="2.9"/>
			</g>
		</g>
		<g>
			<path fill="#FFD93B" d="M18,7.9c4,0,6.6,0.8,7.4,1.4c0,0,0,0,0-0.1c0,0,0-0.1,0-0.1c0.2-0.7-0.2-1.5-0.9-1.7
				c-2-0.7-4.7-0.9-6.5-0.9c-1.8,0-4.5,0.2-6.5,0.9c-0.7,0.2-1.1,1.1-0.9,1.8c0,0,0,0,0,0c0,0,0,0.1,0,0.1C11.4,8.7,14,7.9,18,7.9z"
				/>
		</g>
		<g>
			<g>
				<g>
					<path fill="#F4C534" d="M20.6,4.6c-0.2,0.3-0.4,0.7-0.6,1c0,0.1-0.1,0.1-0.2,0.1c-1.1-0.1-2.3-0.1-3.5,0c-0.1,0-0.2,0-0.2-0.1
						c-0.2-0.3-0.4-0.7-0.6-1c-0.1-0.1,0-0.3,0.2-0.3c0.4,0,0.8-0.1,1.3-0.1c0-0.6,0.5-1.1,1.1-1.1c0.7,0,1.2,0.5,1.1,1.1
						c0.4,0,0.9,0.1,1.3,0.1C20.6,4.3,20.6,4.4,20.6,4.6z"/>
				</g>
			</g>
			<g>
				<g>
					<path fill="#FFD93B" d="M18.7,4.1c0,0.4-0.3,0.7-0.7,0.7c-0.4,0-0.7-0.3-0.7-0.7c0-0.4,0.3-0.7,0.7-0.7
						C18.4,3.4,18.8,3.7,18.7,4.1z"/>
				</g>
			</g>
		</g>
	</g>
</g>
</svg>
