<?xml version="1.0" encoding="utf-8"?>
<!-- Generator: Adobe Illustrator 18.0.0, SVG Export Plug-In . SVG Version: 6.00 Build 0)  -->
<!DOCTYPE svg PUBLIC "-//W3C//DTD SVG 1.1//EN" "http://www.w3.org/Graphics/SVG/1.1/DTD/svg11.dtd">
<svg version="1.1" id="Layer_1" xmlns="http://www.w3.org/2000/svg" xmlns:xlink="http://www.w3.org/1999/xlink" x="0px" y="0px"
	 viewBox="0 0 36 36" enable-background="new 0 0 36 36" xml:space="preserve">
<g>
	<g>
		<g>
			<ellipse fill="#3E4347" cx="18.1" cy="16.9" rx="11.3" ry="2.9"/>
		</g>
	</g>
	<g>
		<g>
			<g>
				<g>
					<g>
						<g>
							<g>
								<g>
									<g>
										<g>
											<path fill="#FFD93B" d="M27.7,21.8c0,8-5.3,10.9-8.1,11.9c-1.1,0.4-2.4,0.4-3.5,0c-2.8-1-8.1-3.9-8.1-11.9
												C8,15,12.4,9.5,17.8,9.5C23.3,9.5,27.7,15,27.7,21.8z"/>
										</g>
									</g>
									<g>
										<g>
											<g>
												
													<ellipse transform="matrix(0.9947 0.1024 -0.1024 0.9947 2.5076 -2.6653)" fill="#FFD93B" cx="27.2" cy="23.1" rx="1.9" ry="2.9"/>
											</g>
										</g>
										<g>
											<g>
												
													<ellipse transform="matrix(-0.9947 0.1024 -0.1024 -0.9947 19.2542 45.2021)" fill="#FFD93B" cx="8.5" cy="23.1" rx="1.9" ry="2.9"/>
											</g>
										</g>
									</g>
								</g>
							</g>
						</g>
					</g>
				</g>
			</g>
			<g>
				<g>
					<g>
						<path fill="#89664C" d="M27.2,23.1L27.2,23.1c0.4-0.9,3-9.9,0.2-13.1c-0.6-0.7-1.7-0.7-2.5-0.3c-0.1,0-0.2,0.1-0.3,0.1
							C22.4,2.2,7.1,4,7.4,16.2c0,0.7-0.1,1.4,0,2.1c0.5,3.6,1.2,4.7,1.2,4.9c0.1-0.2,1.3-2.6,0.9-5.8C23,21.7,24.9,5.7,27.2,23.1z"
							/>
					</g>
				</g>
			</g>
		</g>
	</g>
	<g>
		<g>
			<g>
				<path fill="#3E4347" d="M19.7,3.6c0,0.9-0.7,1.6-1.6,1.6c-0.9,0-1.6-0.7-1.6-1.6c0-0.9,0.7-1.6,1.6-1.6C19,2,19.7,2.7,19.7,3.6z
					"/>
			</g>
		</g>
		<g>
			<g>
				<g>
					<g>
						<path fill="#D03F3F" d="M28.9,14.1c0.1-0.5,0.2-1.1,0.2-1.6c0-5-4.9-9-10.9-9c-6.1,0-10.9,4-10.9,9c0,0.6,0.1,1.1,0.2,1.6
							H28.9z"/>
					</g>
				</g>
				<g>
					<g>
						<path fill="#8CC63E" d="M22.9,14.1c0.1-0.5,0.1-1.1,0.1-1.6c0-5-2.2-9-4.9-9c-2.7,0-4.9,4-4.9,9c0,0.6,0,1.1,0.1,1.6
							C16.5,13.1,19.7,13.1,22.9,14.1z"/>
					</g>
				</g>
			</g>
			<g>
				<g>
					<path fill="#E9EFF4" d="M29.4,17.1c0-1.6-5.1-2.9-11.3-2.9S6.8,15.5,6.8,17.1v-2.9c0-1.6,5.1-2.9,11.3-2.9s11.3,1.3,11.3,2.9
						V17.1z"/>
				</g>
			</g>
		</g>
	</g>
	<g>
		<path fill="#FFD93B" d="M19.5,7.9c0,0.8-0.6,1.4-1.4,1.4s-1.4-0.6-1.4-1.4s0.6-1.4,1.4-1.4S19.5,7.1,19.5,7.9z"/>
	</g>
</g>
</svg>
