<?xml version="1.0" encoding="utf-8"?>
<!-- Generator: Adobe Illustrator 18.0.0, SVG Export Plug-In . SVG Version: 6.00 Build 0)  -->
<!DOCTYPE svg PUBLIC "-//W3C//DTD SVG 1.1//EN" "http://www.w3.org/Graphics/SVG/1.1/DTD/svg11.dtd">
<svg version="1.1" id="Layer_1" xmlns="http://www.w3.org/2000/svg" xmlns:xlink="http://www.w3.org/1999/xlink" x="0px" y="0px"
	 viewBox="0 0 36 36" enable-background="new 0 0 36 36" xml:space="preserve">
<g>
	<g>
		<g>
			<g>
				<path fill="#FFD93B" d="M26.9,11.8c-6.9-4.4-13.3-5.6-18.7,0c-0.1,1.4,0.4,2.9,1.3,4c-0.7,1.7-1.2,3.7-1.2,5.9
					c0,6.8,4.3,12.4,9.7,12.4c5.4,0,9.7-5.5,9.7-12.4c0-1.2-0.1-2.3-0.4-3.4C28.5,16.3,28.4,13.5,26.9,11.8z"/>
			</g>
		</g>
		<g>
			<g>
				<g>
					<path fill="#FFD93B" d="M30,23c-0.2,2-1.4,3.4-2.7,3.1c-1.3-0.3-2.1-2.1-1.9-4.1c0.2-2,1.4-3.4,2.7-3.1
						C29.3,19.2,30.2,21.1,30,23z"/>
				</g>
			</g>
			<g>
				<g>
					<path fill="#FFD93B" d="M11,23c-0.2,2-1.4,3.4-2.7,3.1C7.1,25.8,6.2,24,6.4,22c0.2-2,1.4-3.4,2.7-3.1
						C10.3,19.2,11.2,21.1,11,23z"/>
				</g>
			</g>
		</g>
		<g>
			<g>
				<path fill="#89664C" d="M11.5,6.6c0,0,4.1,3.7,0.4,8.9s-3.5,7.6-3.5,7.6S1.2,9.3,11.5,6.6z"/>
			</g>
			<g>
				<g>
					<path fill="#89664C" d="M12.2,9c0,0,4.4,6.8,13.4,4.4c0,0,2.5,4.5,1.9,9.6c1.8-3,3.8-17.5-0.2-14.9C27.5,4.1,14-3.4,8.4,8.1
						l1.5,4l1.7-0.1"/>
				</g>
			</g>
		</g>
	</g>
	<g>
		<g>
			<g>
				<g>
					<circle fill="#3E4347" cx="14.2" cy="21.8" r="1.6"/>
				</g>
			</g>
			<g>
				<g>
					<path fill="#5A5F63" d="M15.1,21.7c-0.1,0.1-0.4,0-0.5-0.2c-0.1-0.2-0.1-0.4,0-0.5c0.2-0.1,0.4,0,0.5,0.2
						C15.3,21.4,15.3,21.6,15.1,21.7z"/>
				</g>
			</g>
		</g>
		<g>
			<g>
				<g>
					<circle fill="#3E4347" cx="22.2" cy="21.8" r="1.6"/>
				</g>
			</g>
			<g>
				<g>
					<path fill="#5A5F63" d="M23.1,21.7c-0.1,0.1-0.4,0-0.5-0.2c-0.1-0.2-0.1-0.4,0-0.5c0.2-0.1,0.4,0,0.5,0.2
						C23.3,21.4,23.2,21.6,23.1,21.7z"/>
				</g>
			</g>
		</g>
	</g>
	<g>
		<g>
			<g>
				<path fill="#3E4347" d="M18.2,30.7c-1.5,0-2.9-0.7-3.7-2c-0.2-0.3-0.1-0.8,0.2-1c0.3-0.2,0.8-0.1,1,0.2c0.6,0.9,1.6,1.4,2.6,1.4
					c1,0,2-0.5,2.6-1.4c0.2-0.3,0.7-0.4,1-0.2s0.4,0.7,0.2,1C21.1,30,19.7,30.7,18.2,30.7z"/>
			</g>
		</g>
	</g>
	<g>
		<g>
			<path fill="#E9B02C" d="M16.5,24.7c0,0.1,0,0.3,0.1,0.4c0.4,0.6,1.1,1,1.4,1.2c0.1,0.1,0.2,0.1,0.3,0c0.3-0.2,1-0.7,1.4-1.2
				c0.1-0.1,0.1-0.2,0.1-0.4H16.5z"/>
		</g>
	</g>
</g>
</svg>
