<?xml version="1.0" encoding="utf-8"?>
<!-- Generator: Adobe Illustrator 18.0.0, SVG Export Plug-In . SVG Version: 6.00 Build 0)  -->
<!DOCTYPE svg PUBLIC "-//W3C//DTD SVG 1.1//EN" "http://www.w3.org/Graphics/SVG/1.1/DTD/svg11.dtd">
<svg version="1.1" id="Layer_1" xmlns="http://www.w3.org/2000/svg" xmlns:xlink="http://www.w3.org/1999/xlink" x="0px" y="0px"
	 viewBox="0 0 36 36" enable-background="new 0 0 36 36" xml:space="preserve">
<g>
	<g>
		<g>
			<path fill="#F4C534" d="M23.1,23.2c-1.6-1.8-2.4-4.2-2.4-6.6v-0.5h-5.4v0.5c0,2.5-0.9,4.8-2.4,6.6C12.9,25.9,23.1,25.9,23.1,23.2
				z"/>
		</g>
	</g>
	<g>
		<g>
			<polygon fill="#DEE4E9" points="19.4,34 22.2,25.3 18,25.3 14.2,25.8 16.6,34 			"/>
		</g>
	</g>
	<g>
		<g>
			<g>
				<path fill="#3E4347" d="M29.9,34c1,0,1.8-0.9,1.6-1.9l-0.7-5.4c-0.1-0.9-0.7-1.7-1.6-2.1l-7.1-3l-0.8,1.8L18,25.3l-3.4-1.9
					l-0.8-1.8l-7.1,3c-0.9,0.4-1.5,1.1-1.6,2.1l-0.7,5.4c-0.1,1,0.6,1.9,1.6,1.9H29.9z"/>
			</g>
		</g>
	</g>
	<g>
		<g>
			<polygon fill="#65B1EF" points="19.4,34 22.2,25.3 18,25.3 14.2,25.8 16.6,34 			"/>
		</g>
	</g>
	<g>
		<g>
			<g>
				<path fill="#FFD93B" d="M24.2,13.8c0,4.1-2.8,7.4-6.2,7.4c-3.4,0-6.1-3.3-6.1-7.4c0-4.1,2.8-7.4,6.1-7.4
					C21.4,6.3,24.2,9.7,24.2,13.8z"/>
			</g>
		</g>
		<g>
			<g>
				<g>
					<path fill="#FFD93B" d="M25.2,15.4c-0.2,1-1,1.8-1.7,1.6c-0.8-0.2-1.1-1.2-0.9-2.2c0.2-0.9,1-1.6,1.7-1.4
						C25,13.5,25.4,14.4,25.2,15.4z"/>
				</g>
			</g>
			<g>
				<g>
					<path fill="#FFD93B" d="M10.8,15.4c0.2,1,1,1.8,1.7,1.6c0.8-0.2,1.1-1.2,0.9-2.2c-0.2-0.9-1-1.6-1.7-1.4
						C11,13.5,10.6,14.4,10.8,15.4z"/>
				</g>
			</g>
		</g>
		<g>
			<g>
				<g>
					<path fill="#7A5B44" d="M24.3,4.3c-1.1,1.3-3,2-4.6,2.5C17.9,7.4,16,7.5,14,7.5c1.8,1,4.2,1.3,6.7,1.3c1.2,0,2.2,0.7,2.5,1.9
						c0.5,2.1-0.1,5.2-0.1,5.2C24.4,14.6,27.7,7.1,24.3,4.3z"/>
				</g>
			</g>
			<g>
				<g>
					<path fill="#89664C" d="M25.4,2.8c-0.7,5.3-4.9,5.9-10.7,5.9c-0.6,0-1.1,0.3-1.4,0.8c-1.2,2.3-0.3,6.3-0.3,6.3
						c-1.3-1.3-4.8-9.1-0.9-11.8C16,1.5,18.9,1.6,21.4,3C23.9,4.4,25.4,2.8,25.4,2.8z"/>
				</g>
			</g>
		</g>
	</g>
	<g>
		<g>
			<g>
				<path fill="#E9EFF4" d="M21.5,20.4c-0.6,1.9-1.8,3.6-3.5,4.8c0,0,2.3,0.7,2.7,2.4l2.1-5.3L21.5,20.4z"/>
			</g>
		</g>
		<g>
			<g>
				<path fill="#E9EFF4" d="M14.5,20.4c0.6,1.9,1.8,3.6,3.5,4.8c0,0-2.3,0.7-2.7,2.4l-2.1-5.3L14.5,20.4z"/>
			</g>
		</g>
	</g>
	<g>
		<g>
			<g>
				<path fill="#5A5F63" d="M26,25.9l-2.1,0.8l1.1,1.4c0.1,0.1,0.1,0.3,0,0.4L21.2,34h-2.1L22,21.3l4,4.1
					C26.2,25.5,26.2,25.8,26,25.9z"/>
			</g>
			<g>
				<path fill="#5A5F63" d="M14,21.3L16.9,34h-2.1L11,28.5c-0.1-0.1-0.1-0.3,0-0.4l1.1-1.4L10,25.9c-0.2-0.1-0.3-0.4-0.1-0.6
					L14,21.3z"/>
			</g>
		</g>
	</g>
	<g>
		<g>
			<path fill="#3E4347" d="M18.6,28.8c0,0.3-0.3,0.6-0.6,0.6c-0.3,0-0.6-0.3-0.6-0.6c0-0.3,0.3-0.6,0.6-0.6
				C18.3,28.2,18.6,28.5,18.6,28.8z"/>
		</g>
	</g>
	<g>
		<g>
			<path fill="#3E4347" d="M18.6,31.8c0,0.3-0.3,0.6-0.6,0.6c-0.3,0-0.6-0.3-0.6-0.6c0-0.3,0.3-0.6,0.6-0.6
				C18.3,31.2,18.6,31.5,18.6,31.8z"/>
		</g>
	</g>
	<g>
		<g>
			<g>
				<path fill="#D03F3F" d="M18,25.3c0,0.5-1.3,1.1-1.8,1.3c-0.5,0.2-0.4-0.3-0.6-0.9c-0.2-0.5-0.8-0.8-0.1-1.1
					C16.2,24.4,18,24.7,18,25.3z"/>
			</g>
			<g>
				<g>
					<path fill="#D03F3F" d="M18,25.3c0-0.6,1.7-0.9,2.5-0.6c0.7,0.3,0.1,0.5-0.1,1.1c-0.2,0.5,0,1.1-0.6,0.9
						C19.4,26.4,18.1,25.8,18,25.3z"/>
				</g>
			</g>
		</g>
		<g>
			<g>
				<path fill="#E24B4B" d="M18.6,25.3c0,0.3-0.3,0.5-0.6,0.5c-0.3,0-0.6-0.2-0.6-0.5c0-0.3,0.2-0.5,0.6-0.5
					C18.4,24.8,18.6,25.1,18.6,25.3z"/>
			</g>
		</g>
	</g>
</g>
</svg>
