<?xml version="1.0" encoding="utf-8"?>
<!-- Generator: Adobe Illustrator 18.0.0, SVG Export Plug-In . SVG Version: 6.00 Build 0)  -->
<!DOCTYPE svg PUBLIC "-//W3C//DTD SVG 1.1//EN" "http://www.w3.org/Graphics/SVG/1.1/DTD/svg11.dtd">
<svg version="1.1" id="Layer_1" xmlns="http://www.w3.org/2000/svg" xmlns:xlink="http://www.w3.org/1999/xlink" x="0px" y="0px"
	 viewBox="0 0 36 36" enable-background="new 0 0 36 36" xml:space="preserve">
<g>
	<g>
		<g>
			<g>
				<g>
					<path fill="#E9EFF4" d="M28.6,28.4l0-15.8c0-2.9-1.2-5.6-3.1-7.5C23.6,3.2,20.9,2,18,2C12.1,2,7.4,6.8,7.4,12.6l0,15.8
						C14.2,24.3,21.3,24.1,28.6,28.4z"/>
				</g>
			</g>
		</g>
		<g>
			<g>
				<g>
					<g>
						<ellipse fill="#89664C" cx="13.9" cy="19.3" rx="3" ry="5.3"/>
					</g>
				</g>
				<g>
					<g>
						<ellipse fill="#89664C" cx="21.3" cy="19.3" rx="3" ry="5.3"/>
					</g>
				</g>
				<g>
					<g>
						<g>
							<g>
								<path fill="#F4C534" d="M22.5,26.5l0-2c-1.2-1.8-1.9-3.9-1.9-6v-0.8h-5.3v0.8c0,2.2-0.7,4.3-1.9,6v2H22.5z"/>
							</g>
						</g>
					</g>
					<g>
						<g>
							<g>
								<g>
									<path fill="#FFD93B" d="M23.8,13.9c0,4.8-3.1,6.5-4.8,7.1c-0.7,0.2-1.4,0.2-2.1,0c-1.7-0.6-4.8-2.3-4.8-7.1
										c0-4.1,2.6-7.4,5.9-7.4C21.2,6.6,23.8,9.9,23.8,13.9z"/>
								</g>
							</g>
						</g>
						<g>
							<g>
								<g>
									<path fill="#89664C" d="M22.3,9.8c-0.4,0.7-0.4,1.6-0.2,2.3c0.2,0.8,0.5,1.5,0.7,2.3c0.2,1.1,0.3,3.3-0.2,4.3
										c-0.4,0.6-0.2,4.1,0.2,5c0.2,0.6,0.9,1,1.6,1c0.7,0,1.3-0.5,1.4-1.2c0.2-0.7-0.1-1.4,0-2.2c0.1-0.7,0.6-1.3,1-2
										c0.9-1.5,1.1-3.5,0.3-5.1c-0.3-0.7-0.7-1.3-0.9-1.9c-0.6-1.5-0.4-3.3-1.2-4.7c-0.5-0.8-1.3-1.4-2.2-1.7s-1.8-0.5-2.7-0.7
										c-0.6-0.1-1.3-0.2-1.8,0.2c-0.5,0.3-0.6,1-0.5,1.6s0.6,1,1.1,1.3c0.5,0.3,1.1,0.5,1.6,0.6"/>
								</g>
							</g>
						</g>
						<g>
							<g>
								<path fill="#89664C" d="M14.5,10.1c-0.8,1.3-0.3,3.1-0.9,4.6c-0.3,0.7-0.8,1.4-1,2.1c-0.2,0.7,0,1.5,0.2,2.2
									c0.3,0.7,0.6,1.3,0.9,2s0.4,1.5,0.2,2.2c-0.4,1.5-1.6,1.4-2.6,1.3c-0.3,0-0.5-0.1-0.8-0.2C10,24,9.9,23.1,10,22.5
									s0.5-1.3,0.6-1.9c0.2-1.9-1.7-3.4-1.7-5.3c0-1.6,1.3-3,1.8-4.5c0.2-0.6,0.3-1.3,0.4-1.9C11.3,8.1,11.6,7.5,12,7
									c0.4-0.5,1.2-0.8,1.8-0.6c0.5,0.2,0.9,0.6,1.3,0.9c0.4,0.3,1,0.6,1.5,0.4"/>
							</g>
						</g>
						<g>
							<g>
								<g>
									<path fill="#89664C" d="M23.1,14.9l-0.9-4.5c0,0-3.4,1.9-6.3-0.5c0,0-0.1,0.9-1.8,1l-1.2,4c-0.9-1-2.8-10,1.3-8.4
										C16.4,1.8,28.1,6.3,23.1,14.9z"/>
								</g>
							</g>
						</g>
					</g>
					<g>
						<g>
							<g>
								<g>
									<path fill="#E84D88" d="M29.4,26.3v5c0,1.5-1.2,2.7-2.7,2.7h-8.5c-0.1,0-0.2,0-0.2,0c-0.1,0-0.2,0-0.3,0H9.3
										c-1.5,0-2.7-1.2-2.7-2.7v-5c0-1,0.6-1.9,1.5-2.4l6.6-1.7c0,3.6,6.5,3.6,6.5,0l6.6,1.7C28.8,24.3,29.4,25.3,29.4,26.3z"/>
								</g>
							</g>
						</g>
						<g>
							<g>
								<path fill="#DEE4E9" d="M18,24.1"/>
							</g>
						</g>
					</g>
				</g>
			</g>
		</g>
		<g>
			<g>
				<g>
					<path fill="#E9EFF4" d="M24.9,7.5c-0.3,1-3.1,2-6.7,2c-3.6,0-6.3-1-6.7-2c-0.3,0.2-0.7,0.3-1.1,0.4c0.6,1.9,4.5,2.8,7.8,2.8
						c3.3,0,7.1-0.9,7.8-2.8C25.6,7.8,25.2,7.7,24.9,7.5z"/>
				</g>
			</g>
		</g>
	</g>
	<g>
		<g>
			<g>
				<path fill="#BB3166" d="M18.7,27.9c0,0.4-0.3,0.8-0.7,0.8c-0.4,0-0.8-0.3-0.8-0.8c0-0.4,0.3-0.8,0.8-0.8
					C18.4,27.2,18.7,27.5,18.7,27.9z"/>
			</g>
		</g>
		<g>
			<g>
				<path fill="#BB3166" d="M18.7,31.1c0,0.4-0.3,0.8-0.7,0.8c-0.4,0-0.8-0.3-0.8-0.8c0-0.4,0.3-0.8,0.8-0.8
					C18.4,30.4,18.7,30.7,18.7,31.1z"/>
			</g>
		</g>
	</g>
</g>
</svg>
