<?xml version="1.0" encoding="utf-8"?>
<!-- Generator: Adobe Illustrator 18.0.0, SVG Export Plug-In . SVG Version: 6.00 Build 0)  -->
<!DOCTYPE svg PUBLIC "-//W3C//DTD SVG 1.1//EN" "http://www.w3.org/Graphics/SVG/1.1/DTD/svg11.dtd">
<svg version="1.1" id="Layer_1" xmlns="http://www.w3.org/2000/svg" xmlns:xlink="http://www.w3.org/1999/xlink" x="0px" y="0px"
	 viewBox="0 0 36 36" enable-background="new 0 0 36 36" xml:space="preserve">
<g>
	<g>
		<g>
			<g>
				<g>
					<g>
						<g>
							<path fill="#FFE9AB" d="M24.2,25.9l0,2c0,8.1-12.5,8.1-12.5,0l0-2l2-1.8c0.9-0.9,1.4-2.1,1.4-3.3V18h5.7v2.7
								c0,1.3,0.5,2.5,1.4,3.3L24.2,25.9z"/>
						</g>
					</g>
					<g>
						<g>
							<g>
								<g>
									<g>
										<path fill="#3E4347" d="M28.4,31.3c0,1.5-1.2,2.7-2.7,2.7H10.3c-1.5,0-2.7-1.2-2.7-2.7c0-2.3,0.2-5.5,1.2-6.9
											c0.9-1.2,5.9-1.6,5.9-1.6c0.8,2.8,3.3,4,3.3,4s2.6-1.2,3.3-4c0,0,5,0.4,5.9,1.6C28.2,25.8,28.4,29,28.4,31.3z"/>
									</g>
								</g>
							</g>
						</g>
					</g>
					<g>
						<g>
							<path fill="#65B1EF" d="M24.4,30.4c0,0.9,0.7,1.6,1.1,2.5c0.1,0.3,0,1.2,0,1.2h-15c0,0-0.1-0.9,0-1.2
								c0.4-0.9,1.1-1.5,1.1-2.5v-0.5c0-1.6-0.2-3.1-0.7-4.6c-0.2-0.5-0.4-1.1-0.7-1.6c0,0,0,0,0,0c0.4-0.1,0.8-0.2,1.3-0.3
								c0.5,1.1,1.2,2.9,1.3,5.1c3.3,0.8,6.7,0.8,10.2,0c0.2-2.3,0.8-4,1.3-5.1c0.5,0.1,0.9,0.2,1.3,0.3c-0.3,0.5-0.5,1.1-0.7,1.6
								c-0.5,1.5-0.7,3.1-0.7,4.6V30.4z"/>
						</g>
					</g>
				</g>
			</g>
		</g>
		<g>
			<g>
				<g>
					<g>
						<g>
							<g>
								<g>
									<g>
										<g>
											<g>
												<g>
													<path fill="#FFE9AB" d="M12.7,16c0,1.1-0.5,2-1.2,2c-0.7,0-1.2-0.9-1.2-2s0.5-2,1.2-2C12.2,14,12.7,14.9,12.7,16z"/>
												</g>
											</g>
										</g>
									</g>
									<g>
										<g>
											<g>
												<g>
													<path fill="#FFDC97" d="M25.6,16c0,1.1-0.5,2-1.2,2c-0.7,0-1.2-0.9-1.2-2s0.5-2,1.2-2C25.1,14,25.6,14.9,25.6,16z"/>
												</g>
											</g>
										</g>
									</g>
								</g>
								<g>
									<g>
										<g>
											<g>
												<g>
													<g>
														<g>
															<g>
																<g>
																	<g>
																		<g>
																			<g>
																				<g>
																					<g>
																						<g>
																							<g>
																								<g>
																									<g>
																										<g>
																											<g>
																												<g>
																													<path fill="#FFE9AB" d="M24.6,15.7c0,4-3,7.2-6.6,7.2c-3.6,0-6.6-3.2-6.6-7.2c0-4,2.9-7.2,6.6-7.2
																														C21.6,8.5,24.6,11.7,24.6,15.7z"/>
																												</g>
																											</g>
																										</g>
																									</g>
																								</g>
																							</g>
																						</g>
																					</g>
																				</g>
																				<g>
																					<g>
																						<g>
																							<g>
																								<g>
																									<circle fill="#3E4347" cx="15.6" cy="15.6" r="1.1"/>
																								</g>
																							</g>
																						</g>
																					</g>
																					<g>
																						<g>
																							<g>
																								<g>
																									<circle fill="#3E4347" cx="20.4" cy="15.6" r="1.1"/>
																								</g>
																							</g>
																						</g>
																					</g>
																				</g>
																				<g>
																					<g>
																						<g>
																							<g>
																								<g>
																									<g>
																										<g>
																											<g>
																												<g>
																													<path fill="#FFDC97" d="M24.6,15.7c0,4-3,7.2-6.6,7.2c-2.1,0-3.9-1-5.1-2.7c1.1,1,2.6,1.6,4.1,1.6
																														c3.6,0,6.6-3.2,6.6-7.2c0-1.7-0.5-3.3-1.4-4.5C23.6,11.4,24.6,13.4,24.6,15.7z"/>
																												</g>
																											</g>
																										</g>
																									</g>
																								</g>
																							</g>
																						</g>
																					</g>
																				</g>
																			</g>
																		</g>
																	</g>
																</g>
															</g>
														</g>
													</g>
												</g>
											</g>
										</g>
									</g>
								</g>
							</g>
						</g>
					</g>
				</g>
				<g>
					<g>
						<g>
							<path fill="#3E4347" d="M11,11c0,0.4,0,0.7,0.1,1.1l0.6,4.3l0,0c0,0,1-1.8,1-3.3c0-1.3,1.1-1.9,1.5-2.1H11z"/>
						</g>
						<g>
							<path fill="#3E4347" d="M14.3,11c3,2.5,8,0.7,8,0.7c0.3,1.6,1.5,2,1.5,2l0.5,2.7l0,0l0.6-4.3c0-0.4,0.1-0.8,0.1-1.1H14.3z"/>
						</g>
					</g>
				</g>
				<g>
					<g>
						<path fill="#8F6D52" d="M24.8,11H10.9l1.8-7c0.4-1.7,2.3-2.5,3.8-1.6l0,0c0.8,0.5,1.8,0.5,2.6,0l0,0c1.5-0.9,3.4-0.1,3.8,1.6
							L24.8,11z"/>
					</g>
				</g>
				<g>
					<g>
						<g>
							<path fill="#9A795F" d="M26.2,11.9c-5.4,1-11,1-16.4,0c-0.6-0.1-1-0.7-0.9-1.3c0,0,0,0,0,0c0.1-0.6,0.7-1,1.3-0.9
								c5.1,0.9,10.4,0.9,15.5,0c0.6-0.1,1.2,0.3,1.3,0.9c0,0,0,0,0,0C27.2,11.2,26.8,11.8,26.2,11.9z"/>
						</g>
					</g>
				</g>
			</g>
			<g>
				<g>
					<g>
						<path fill="#3E4347" d="M15.3,19.3c-0.1-0.2-0.1-0.5,0.2-0.6c0.2-0.1,0.5-0.1,0.6,0.2c0.7,1.2,3.1,1.2,3.8,0
							c0.1-0.2,0.4-0.3,0.6-0.2c0.2,0.1,0.3,0.4,0.2,0.6C19.6,21.1,16.4,21.1,15.3,19.3z"/>
					</g>
				</g>
			</g>
		</g>
	</g>
</g>
</svg>
