<?xml version="1.0" encoding="utf-8"?>
<!-- Generator: Adobe Illustrator 18.0.0, SVG Export Plug-In . SVG Version: 6.00 Build 0)  -->
<!DOCTYPE svg PUBLIC "-//W3C//DTD SVG 1.1//EN" "http://www.w3.org/Graphics/SVG/1.1/DTD/svg11.dtd">
<svg version="1.1" id="Layer_1" xmlns="http://www.w3.org/2000/svg" xmlns:xlink="http://www.w3.org/1999/xlink" x="0px" y="0px"
	 viewBox="0 0 36 36" enable-background="new 0 0 36 36" xml:space="preserve">
<g>
	<g>
		<g>
			<g>
				<g>
					<g>
						<path fill="#3E4347" d="M25.3,18.6c0.5-1.1,1-3.4,0.9-5.8H9.8c-0.1,2.5,0.5,4.7,0.9,5.8c0.8,1.9,0.4,4.9-1.1,8.6h8.1
							c0,0,0.1-1.2,0.3-3c0.2,1.8,0.3,3,0.3,3h8.1C24.9,23.5,24.5,20.5,25.3,18.6z"/>
					</g>
				</g>
				<g>
					<g>
						<g>
							<path fill="#FFE9AB" d="M21.1,17.1h-6.2l-0.4,5.2c-1.6,2.5,0.6,5.1,3.5,7.8c2-2.9,3.7-5.8,3.5-7.8L21.1,17.1z"/>
						</g>
					</g>
					<g>
						<g>
							<g>
								<g>
									<path fill="#FFE9AB" d="M13,15.3c0.1,1.1-0.4,1.9-1.1,1.9s-1.3-0.9-1.4-1.9s0.4-1.9,1.1-1.9C12.3,13.4,13,14.2,13,15.3z"/>
								</g>
							</g>
							<g>
								<g>
									<path fill="#FFDC97" d="M23,15.3c-0.1,1.1,0.4,1.9,1.1,1.9s1.3-0.9,1.4-1.9s-0.4-1.9-1.1-1.9S23,14.2,23,15.3z"/>
								</g>
							</g>
						</g>
						<g>
							<g>
								<g>
									<g>
										<g>
											<g>
												<g>
													<g>
														<g>
															<g>
																<g>
																	<g>
																		<g>
																			<g>
																				<g>
																					<g>
																						<g>
																							<g>
																								<g>
																									<g>
																										<g>
																											<path fill="#FFE9AB" d="M24.2,15c0,3.8-2.8,6.8-6.2,6.8c-3.4,0-6.2-3-6.2-6.8c0-3.8,2.8-6.8,6.2-6.8
																												C21.4,8.2,24.2,11.2,24.2,15z"/>
																										</g>
																									</g>
																								</g>
																							</g>
																						</g>
																					</g>
																				</g>
																			</g>
																		</g>
																	</g>
																</g>
															</g>
														</g>
													</g>
												</g>
											</g>
											<g>
												<g>
													<g>
														<g>
															<g>
																<g>
																	<g>
																		<g>
																			<g>
																				<g>
																					<path fill="#FFDC97" d="M24.2,15c0,3.8-2.8,6.8-6.2,6.8c-2,0-3.7-1-4.9-2.5c1.1,0.9,2.4,1.5,3.9,1.5
																						c3.4,0,6.2-3,6.2-6.8c0-1.6-0.5-3.1-1.4-4.3C23.3,10.9,24.2,12.8,24.2,15z"/>
																				</g>
																			</g>
																		</g>
																	</g>
																</g>
															</g>
														</g>
													</g>
												</g>
											</g>
											<g>
												<g>
													<g>
														<g>
															<path fill="#3E4347" d="M16.1,18.7c-0.1-0.1-0.1-0.3,0.1-0.5c0.1-0.1,0.3-0.1,0.4,0.1c0.7,1,2.1,1,2.8,0
																c0.1-0.1,0.3-0.2,0.4-0.1c0.1,0.1,0.2,0.3,0.1,0.5C19,20,17,20,16.1,18.7z"/>
														</g>
													</g>
												</g>
											</g>
										</g>
									</g>
								</g>
							</g>
						</g>
						<g>
							<g>
								<g>
									<g>
										<g>
											<g>
												<g>
													<g>
														<g>
															<ellipse fill="#3E4347" cx="15.6" cy="15.5" rx="1.1" ry="1.1"/>
														</g>
													</g>
												</g>
											</g>
										</g>
									</g>
								</g>
								<g>
									<g>
										<path fill="#5A5F63" d="M16.2,15.3c-0.1,0.1-0.3,0-0.3-0.1c-0.1-0.1-0.1-0.3,0-0.4c0.1-0.1,0.3,0,0.3,0.1
											C16.3,15.1,16.3,15.3,16.2,15.3z"/>
									</g>
								</g>
							</g>
							<g>
								<g>
									<g>
										<g>
											<g>
												<g>
													<g>
														<g>
															<ellipse fill="#3E4347" cx="20.4" cy="15.5" rx="1.1" ry="1.1"/>
														</g>
													</g>
												</g>
											</g>
										</g>
									</g>
								</g>
								<g>
									<g>
										<path fill="#5A5F63" d="M21,15.3c-0.1,0.1-0.3,0-0.3-0.1c-0.1-0.1-0.1-0.3,0-0.4c0.1-0.1,0.3,0,0.3,0.1
											C21.1,15.1,21.1,15.3,21,15.3z"/>
									</g>
								</g>
							</g>
						</g>
					</g>
					<g>
						<g>
							<path fill="#3E4347" d="M11.8,10.4v5l0.5-2.3c0,0,2.5,0.1,3.1-2.4c0,0,1.9,2.8,8.4,2.6l0.4,2.1c0,0,0.7-2.8,0.6-5H11.8z"/>
						</g>
					</g>
					<g>
						<g>
							<g>
								<g>
									<path fill="#E9EFF4" d="M28.8,31.2c0,1.5-1.3,2.8-2.8,2.8H10c-1.5,0-2.8-1.2-2.8-2.8c0-2.4,0.2-5.7,1.2-7.2
										c0.9-1.3,6.1-1.7,6.1-1.7c0.8,2.9,3.5,5.4,3.5,5.4s2.7-2.5,3.5-5.4c0,0,5.2,0.4,6.1,1.7C28.7,25.5,28.9,28.8,28.8,31.2z"/>
								</g>
							</g>
						</g>
					</g>
				</g>
			</g>
		</g>
	</g>
	<g>
		<g>
			<g>
				<g>
					<g>
						<g>
							<path fill="#8F6D52" d="M25.6,12H10.1l2-7.8c0.5-1.9,2.6-2.7,4.3-1.8l0,0c0.9,0.5,2,0.5,2.9,0l0,0c1.7-1,3.8-0.1,4.3,1.8
								L25.6,12z"/>
						</g>
					</g>
					<g>
						<g>
							<g>
								<path fill="#9A795F" d="M27.1,13c-6,1.1-12.2,1.1-18.2,0c-0.7-0.1-1.1-0.8-1-1.5c0,0,0,0,0,0c0.1-0.7,0.8-1.1,1.4-1
									c5.7,1,11.6,1,17.3,0c0.7-0.1,1.3,0.3,1.4,1c0,0,0,0,0,0C28.2,12.2,27.8,12.9,27.1,13z"/>
							</g>
						</g>
					</g>
				</g>
			</g>
		</g>
	</g>
	<g>
		<path fill="#65B1EF" d="M26.1,33.1c-0.4-1-1.2-1.7-1.2-2.8v-0.5c0-1.8,0.2-3.5,0.7-5.2c0.1-0.5,0.3-1,0.5-1.4
			c-0.4-0.1-0.9-0.3-1.4-0.4c-0.5,1.3-1.1,3-1.2,5.3c-3.7,0.9-7.4,0.9-11,0c-0.2-2.3-0.7-4.1-1.2-5.3c-0.5,0.1-1,0.2-1.4,0.4
			c0.2,0.5,0.4,1,0.5,1.4c0.5,1.7,0.7,3.4,0.7,5.2v0.5c0,1.1-0.8,1.8-1.2,2.8c-0.1,0.2-0.1,0.6,0,0.9c0,0,0.1,0,0.1,0H26
			c0,0,0.1,0,0.1,0C26.2,33.7,26.2,33.3,26.1,33.1z"/>
	</g>
</g>
</svg>
