<?xml version="1.0" encoding="utf-8"?>
<!-- Generator: Adobe Illustrator 18.0.0, SVG Export Plug-In . SVG Version: 6.00 Build 0)  -->
<!DOCTYPE svg PUBLIC "-//W3C//DTD SVG 1.1//EN" "http://www.w3.org/Graphics/SVG/1.1/DTD/svg11.dtd">
<svg version="1.1" id="Layer_1" xmlns="http://www.w3.org/2000/svg" xmlns:xlink="http://www.w3.org/1999/xlink" x="0px" y="0px"
	 viewBox="0 0 36 36" enable-background="new 0 0 36 36" xml:space="preserve">
<g>
	<g>
		<g>
			<g>
				<g>
					<path fill="#ACB9C1" d="M26.7,3.8v3.6h0.5V3.8c0.4-0.1,0.7-0.4,0.7-0.9c0-0.5-0.4-0.9-0.9-0.9C26.4,2,26,2.4,26,2.9
						C26,3.3,26.3,3.7,26.7,3.8z"/>
				</g>
			</g>
		</g>
		<g>
			<g>
				<path fill="#DEE4E9" d="M27.9,7.8v4.9h-2V7.8c0-0.6,0.5-1,1-1C27.5,6.7,27.9,7.2,27.9,7.8z"/>
			</g>
		</g>
		<g>
			<g>
				<g>
					<g>
						<path fill="#BBC7D1" d="M27.9,15.1h-1.3v-3.3h1.3c0.3,0,0.5,0.2,0.5,0.5v2.2C28.5,14.8,28.2,15.1,27.9,15.1z"/>
					</g>
				</g>
				<g>
					<g>
						<path fill="#BBC7D1" d="M8.1,15.1h1.3v-3.3H8.1c-0.3,0-0.5,0.2-0.5,0.5v2.2C7.5,14.8,7.8,15.1,8.1,15.1z"/>
					</g>
				</g>
			</g>
			<g>
				<g>
					<path fill="#3E4347" d="M9.3,17.1c1,2.2,2.9,4,5.1,4.9c1.1,0.4,2.3,0.7,3.5,0.7c3,0,5.7-1.4,7.4-3.6c0.5-0.6,0.9-1.3,1.3-2
						c-0.1-5.6-3-8.4-8.7-8.6C12.2,9.1,9,11.7,9.3,17.1z"/>
				</g>
			</g>
			<g>
				<g>
					<g>
						<g>
							<g>
								<g>
									<g>
										<path fill="#E9EFF4" d="M29.5,29.2v3.4c0,0.8-0.6,1.4-1.4,1.4H7.9c-0.8,0-1.4-0.6-1.4-1.4v-3.4c0-1,0.6-2,1.5-2.4l6.7-3.4
											l3.3-0.2l3.4,0.2l6.7,3.4C28.9,27.2,29.5,28.2,29.5,29.2z"/>
									</g>
								</g>
								<g>
									<g>
										<polygon fill="#DEE4E9" points="23.5,24.5 21.3,23.3 18,23.1 14.7,23.3 12.5,24.5 										"/>
									</g>
								</g>
								<g>
									<g>
										<g>
											<path fill="#FFE9AB" d="M23.9,15.4c0,4.8-3.2,6.6-4.9,7.2c-0.7,0.2-1.4,0.2-2.1,0c-1.7-0.6-4.9-2.3-4.9-7.2
												c0-4.1,2.6-7.4,5.9-7.4C21.2,8,23.9,11.3,23.9,15.4z"/>
										</g>
									</g>
									<g>
										<g>
											<g>
												
													<ellipse transform="matrix(0.9947 0.1024 -0.1024 0.9947 1.7783 -2.3318)" fill="#FFE9AB" cx="23.6" cy="16.2" rx="1.1" ry="1.8"/>
											</g>
										</g>
										<g>
											<g>
												
													<ellipse transform="matrix(-0.9947 0.1024 -0.1024 -0.9947 26.2494 30.9679)" fill="#FFE9AB" cx="12.3" cy="16.2" rx="1.1" ry="1.8"/>
											</g>
										</g>
									</g>
									<g>
										<g>
											<path fill="#A5856D" d="M23.2,16.4l-0.9-4.6c0,0-3.7,1.8-6.5-0.9c0,0-0.4,1.4-2.1,1.5l-0.8,4c-1-1-2.8-10.1,1.4-8.4
												C16.3,3.1,28.2,7.7,23.2,16.4z"/>
										</g>
									</g>
								</g>
							</g>
						</g>
					</g>
				</g>
			</g>
			<g>
				<g>
					<path fill="#E9EFF4" d="M22.4,23.9h-8.7c-0.7,0-1.3-0.6-1.3-1.3v0c0-0.7,0.6-1.3,1.3-1.3h8.7c0.7,0,1.3,0.6,1.3,1.3v0
						C23.6,23.3,23,23.9,22.4,23.9z"/>
				</g>
			</g>
			<g>
				<g>
					<path fill="#DEE4E9" d="M24.5,34v-2.4c0-1.8,0.7-3.4,1.9-4.6l0.7-0.7L26.4,26l-0.5,0.5c-1.4,1.4-2.1,3.2-2.1,5.2V34H24.5z"/>
				</g>
				<g>
					<path fill="#DEE4E9" d="M11.5,31.6V34h0.7v-2.4c0-2-0.8-3.8-2.1-5.2L9.6,26l-0.7,0.4L9.6,27C10.8,28.2,11.5,29.9,11.5,31.6z"/>
				</g>
			</g>
			<g>
				<g>
					<path fill="#E9EFF4" d="M27.5,13.1c0,1.4-0.3,2.8-0.9,4C26.4,12.5,22.6,9,18,9c-4.6,0-8.4,3.6-8.7,8.1c-0.5-1.2-0.9-2.6-0.9-4
						c0-5.3,4.3-9.5,9.5-9.5C23.3,3.6,27.5,7.8,27.5,13.1z"/>
				</g>
			</g>
		</g>
	</g>
	<g>
		<g>
			<g>
				<path fill="#E24B4B" d="M20.7,30.5c0,0.3-0.3,0.6-0.6,0.6c-0.3,0-0.6-0.3-0.6-0.6c0-0.3,0.3-0.6,0.6-0.6
					C20.4,29.9,20.7,30.2,20.7,30.5z"/>
			</g>
		</g>
		<g>
			<g>
				<path fill="#3E4347" d="M22.6,30.5c0,0.3-0.3,0.6-0.6,0.6s-0.6-0.3-0.6-0.6c0-0.3,0.3-0.6,0.6-0.6S22.6,30.2,22.6,30.5z"/>
			</g>
		</g>
	</g>
</g>
</svg>
