<?xml version="1.0" encoding="utf-8"?>
<!-- Generator: Adobe Illustrator 18.0.0, SVG Export Plug-In . SVG Version: 6.00 Build 0)  -->
<!DOCTYPE svg PUBLIC "-//W3C//DTD SVG 1.1//EN" "http://www.w3.org/Graphics/SVG/1.1/DTD/svg11.dtd">
<svg version="1.1" id="Layer_1" xmlns="http://www.w3.org/2000/svg" xmlns:xlink="http://www.w3.org/1999/xlink" x="0px" y="0px"
	 viewBox="0 0 36 36" enable-background="new 0 0 36 36" xml:space="preserve">
<g>
	<g>
		<g>
			<g>
				<path fill="#89664C" d="M24,28.1h-5.8c0,0-0.1-0.8-0.2-2.1c-0.1,1.3-0.2,2.1-0.2,2.1H12c1-2.6,1.4-4.8,0.8-6.1
					c-0.6-1.4-1.3-5.2,0.3-8.2c1-1.9,3.4-1,3.4-1c0.8,0.5,1.2,1.9,1.5,3.6c0.2-1.7,0.7-3.1,1.5-3.6c0,0,2.4-0.9,3.4,1
					c1.6,2.9,0.9,6.8,0.3,8.2C22.6,23.3,22.9,25.5,24,28.1z"/>
			</g>
		</g>
		<g>
			<g>
				<g>
					<path fill="#FFE9AB" d="M20.7,27.3c0.3-1.3,0.2-2.5-0.4-2.7l-0.1-3.8h-4.4l-0.1,3.8c-0.5,0.2-0.5,1.3-0.2,2.7H20.7z"/>
				</g>
			</g>
			<g>
				<g>
					<g>
						<g>
							<g>
								<g>
									<g>
										<g>
											<g>
												<g>
													<g>
														<g>
															<g>
																<g>
																	<g>
																		<g>
																			<g>
																				<g>
																					<g>
																						<g>
																							<g>
																								<g>
																									<ellipse fill="#FFE9AB" cx="18" cy="19.4" rx="4.5" ry="4.9"/>
																								</g>
																							</g>
																						</g>
																					</g>
																				</g>
																			</g>
																		</g>
																	</g>
																</g>
															</g>
														</g>
													</g>
												</g>
											</g>
										</g>
									</g>
									<g>
										<g>
											<g>
												<g>
													<g>
														<g>
															<g>
																<g>
																	<g>
																		<g>
																			<path fill="#FFDC97" d="M22.5,19.4c0,2.7-2,4.9-4.5,4.9c-1.4,0-2.7-0.7-3.5-1.8c0.8,0.7,1.7,1.1,2.8,1.1
																				c2.5,0,4.5-2.2,4.5-4.9c0-1.2-0.4-2.2-1-3.1C21.8,16.5,22.5,17.8,22.5,19.4z"/>
																		</g>
																	</g>
																</g>
															</g>
														</g>
													</g>
												</g>
											</g>
										</g>
									</g>
									<g>
										<g>
											<g>
												<g>
													<path fill="#3E4347" d="M16.6,22c-0.1-0.1-0.1-0.2,0.1-0.3c0.1-0.1,0.2-0.1,0.3,0.1c0.5,0.7,1.5,0.7,2,0
														c0.1-0.1,0.2-0.1,0.3-0.1c0.1,0.1,0.1,0.2,0.1,0.3C18.7,23,17.3,23,16.6,22z"/>
												</g>
											</g>
										</g>
									</g>
								</g>
							</g>
						</g>
					</g>
				</g>
				<g>
					<g>
						<g>
							<g>
								<g>
									<g>
										<g>
											<g>
												<g>
													<ellipse fill="#3E4347" cx="16.3" cy="19.7" rx="0.8" ry="0.8"/>
												</g>
											</g>
										</g>
									</g>
								</g>
							</g>
						</g>
						<g>
							<g>
								<path fill="#5A5F63" d="M16.7,19.6c-0.1,0-0.2,0-0.2-0.1c-0.1-0.1-0.1-0.2,0-0.3c0.1,0,0.2,0,0.2,0.1
									C16.8,19.5,16.8,19.6,16.7,19.6z"/>
							</g>
						</g>
					</g>
					<g>
						<g>
							<g>
								<g>
									<g>
										<g>
											<g>
												<g>
													<ellipse fill="#3E4347" cx="19.7" cy="19.7" rx="0.8" ry="0.8"/>
												</g>
											</g>
										</g>
									</g>
								</g>
							</g>
						</g>
						<g>
							<g>
								<path fill="#5A5F63" d="M20.1,19.6c-0.1,0-0.2,0-0.2-0.1c-0.1-0.1-0.1-0.2,0-0.3c0.1,0,0.2,0,0.2,0.1
									C20.2,19.5,20.2,19.6,20.1,19.6z"/>
							</g>
						</g>
					</g>
				</g>
			</g>
			<g>
				<g>
					<path fill="#89664C" d="M22.5,19.7L22.5,19.7l-0.3-1.5c-4.7,0.2-6-1.9-6-1.9c-0.5,1.7-2.2,1.7-2.2,1.7l-0.4,1.7l0,0
						c-0.4-1.2-0.3-2.4,0-3.7c0.1-3.8,3.9-4.1,6.1-3.2c0.8,0.3,1.4,0.9,1.4,1.5C24.2,13,22.5,19.7,22.5,19.7z"/>
				</g>
			</g>
		</g>
	</g>
	<g>
		<g>
			<path fill="#E9EFF4" d="M26.7,31.8c0,1.2-1,2.2-2.2,2.2H18l0,0l0,0l0,0l0,0l0,0l0,0h-6.4c-1.2,0-2.2-1-2.2-2.2
				c0-1.9,0.1-4.6,1-5.7c0.4-0.5,1.6-0.8,2.7-1.1c0.9-0.2,1.8-0.3,2.7-0.3c0,0,0,0.1,0,0.1c0,1.3,2.3,2.3,2.3,2.3s2.3-1,2.3-2.3
				c0,0,0-0.1,0-0.1c1,0,2.1,0.1,3.1,0.4c1,0.2,2,0.5,2.3,1C26.5,27.2,26.7,29.9,26.7,31.8z"/>
		</g>
	</g>
	<g>
		<g>
			<g>
				<path fill="#E9EFF4" d="M23.8,8.3l0,7.8c0,0.2-0.2,0.4-0.4,0.3c-3.6-1.5-7.2-1.5-10.7,0c-0.2,0.1-0.5-0.1-0.5-0.3l0-7.8
					L23.8,8.3z"/>
			</g>
		</g>
		<g>
			<g>
				<g>
					<g>
						<path fill="#E9EFF4" d="M25.4,10.2c0,1.9-1.5,3.5-3.5,3.5l-7.7,0c-2,0-3.6-1.6-3.6-3.6c0-1.2,0.6-2.2,1.4-2.9
							c0-0.2,0-0.3,0-0.5c0-2,1.6-3.6,3.6-3.6c0.4,0,0.8,0.1,1.2,0.2C17.5,2.5,18.5,2,19.6,2c2,0,3.6,1.6,3.6,3.6
							c0,0.5-0.1,0.9-0.3,1.3C24.3,7.4,25.3,8.7,25.4,10.2z"/>
					</g>
				</g>
			</g>
			<g>
				<g>
					<g>
						<path fill="#DEE4E9" d="M12.8,8c-0.1-0.3-0.1-0.7-0.1-1.1c-1.2,0.6-2,1.8-2,3.2c0,1.1,0.5,2,1.2,2.7c-0.4-0.6-0.6-1.2-0.6-1.9
							C11.3,9.7,11.9,8.6,12.8,8z"/>
					</g>
				</g>
				<g>
					<g>
						<path fill="#DEE4E9" d="M16.3,3.9c0.1,0,0.2,0,0.3,0c0.1-0.2,0.2-0.3,0.3-0.5c-0.4-0.1-0.8-0.2-1.2-0.2c-2,0-3.6,1.6-3.6,3.6
							c0,1.1,0.5,2.2,1.4,2.8C13,9,12.8,8.3,12.8,7.5C12.8,5.5,14.4,3.9,16.3,3.9z"/>
					</g>
				</g>
				<g>
					<path fill="#DEE4E9" d="M23.2,5.6c0,1.4-0.8,2.7-2.1,3.3c0.6-0.6,1-1.4,1-2.4c0-1.9-1.5-3.3-3.4-3.3c-0.9,0-1.7,0.4-2.4,1
						C16.9,2.9,18.2,2,19.6,2C21.6,2,23.2,3.6,23.2,5.6z"/>
				</g>
				<g>
					<path fill="#DEE4E9" d="M25.4,10.2c0-1.8-1.3-3.2-3-3.4c0,0.4-0.1,0.7-0.3,1c1.5,0.4,2.6,1.7,2.6,3.4c0,0.6-0.1,1.1-0.4,1.6
						C24.9,12.1,25.4,11.2,25.4,10.2z"/>
				</g>
			</g>
		</g>
	</g>
	<g>
		<g>
			<g>
				<circle fill="#D3D9DD" cx="18" cy="28.9" r="0.6"/>
			</g>
		</g>
		<g>
			<g>
				<circle fill="#D3D9DD" cx="18" cy="31.1" r="0.6"/>
			</g>
		</g>
	</g>
</g>
</svg>
