<?xml version="1.0" encoding="utf-8"?>
<!-- Generator: Adobe Illustrator 18.0.0, SVG Export Plug-In . SVG Version: 6.00 Build 0)  -->
<!DOCTYPE svg PUBLIC "-//W3C//DTD SVG 1.1//EN" "http://www.w3.org/Graphics/SVG/1.1/DTD/svg11.dtd">
<svg version="1.1" id="Layer_1" xmlns="http://www.w3.org/2000/svg" xmlns:xlink="http://www.w3.org/1999/xlink" x="0px" y="0px"
	 viewBox="0 0 36 36" enable-background="new 0 0 36 36" xml:space="preserve">
<g>
	<g>
		<g>
			<g>
				<g>
					<path fill="#FFE9AB" d="M23.8,25.8l-1.4-1.3c-0.9-0.9-1.5-2.1-1.5-3.4v-2.8h-5.8v2.8c0,1.3-0.5,2.5-1.5,3.4l-1.4,1.3
						C12.2,33.8,23.8,33.8,23.8,25.8z"/>
				</g>
			</g>
		</g>
		<g>
			<g>
				<path fill="#E84D88" d="M28.1,34H7.9c-1.2,0-2.1-1.2-1.7-2.3l1.6-5c0.8-2.4,3-2.7,6.6-3.1c0.1,2.2,3.6,4,3.6,4s3.5-1.8,3.6-4
					c3.7,0.4,5.8,0.7,6.6,3.1l1.6,5C30.1,32.8,29.3,34,28.1,34z"/>
			</g>
		</g>
		<g>
			<g>
				<g>
					<g>
						<path fill="#8F6D52" d="M23.3,22.6c-3.5-1.2-7-1.3-10.5-0.1c-1.2,0.4-2.4-0.4-2.4-1.7l0-6.9c0-4.2,3.4-7.6,7.6-7.6h0
							c4.2,0,7.6,3.4,7.6,7.6l0,7C25.6,22.1,24.4,23,23.3,22.6z"/>
					</g>
				</g>
			</g>
			<g>
				<g>
					<g>
						<g>
							<g>
								<g>
									<g>
										<g>
											<g>
												<g>
													<g>
														<g>
															<g>
																<g>
																	<g>
																		<g>
																			<g>
																				<g>
																					<g>
																						<g>
																							<g>
																								<g>
																									<g>
																										<g>
																											<g>
																												<g>
																													<path fill="#FFE9AB" d="M24.3,15.9c0,3.8-2.8,6.9-6.3,6.9c-3.5,0-6.3-3.1-6.3-6.9
																														c0-3.8,2.8-6.9,6.3-6.9C21.5,9,24.3,12.1,24.3,15.9z"/>
																												</g>
																											</g>
																										</g>
																									</g>
																								</g>
																							</g>
																						</g>
																					</g>
																				</g>
																				<g>
																					<g>
																						<g>
																							<g>
																								<g>
																									<g>
																										<g>
																											<g>
																												<g>
																													<path fill="#FFDC97" d="M23.2,16.1c-0.5,3.2-3.1,5.7-6.2,5.7c-1.5,0-2.9-0.6-3.9-1.5
																														c1.2,1.6,2.9,2.6,4.9,2.6c3.4,0,6.2-3,6.3-6.7H23.2z"/>
																												</g>
																											</g>
																										</g>
																									</g>
																								</g>
																							</g>
																						</g>
																					</g>
																				</g>
																			</g>
																		</g>
																	</g>
																</g>
															</g>
														</g>
													</g>
												</g>
											</g>
										</g>
									</g>
								</g>
							</g>
						</g>
					</g>
				</g>
			</g>
			<g>
				<g>
					<g>
						<path fill="#3E4347" d="M15.8,19.8c-0.2-0.2-0.2-0.4,0-0.6c0.2-0.2,0.4-0.2,0.6,0c0.9,0.9,2.4,0.9,3.3,0
							c0.2-0.2,0.4-0.2,0.6,0c0.2,0.2,0.2,0.4,0,0.6C18.9,21.1,17,21.1,15.8,19.8z"/>
					</g>
				</g>
			</g>
			<g>
				<g>
					<g>
						<g>
							<g>
								<g>
									<path fill="#FFDC97" d="M25.1,16.2c0,1-0.5,1.9-1.1,1.9c-0.6,0-1.1-0.8-1.1-1.9s0.4-1.9,1.1-1.9
										C24.6,14.3,25.1,15.2,25.1,16.2z"/>
								</g>
							</g>
						</g>
					</g>
				</g>
				<g>
					<g>
						<g>
							<g>
								<g>
									<path fill="#FFE9AB" d="M13.1,16.2c0,1-0.5,1.9-1.1,1.9c-0.6,0-1.1-0.8-1.1-1.9s0.4-1.9,1.1-1.9
										C12.6,14.3,13.1,15.2,13.1,16.2z"/>
								</g>
							</g>
						</g>
					</g>
				</g>
			</g>
			<g>
				<g>
					<g>
						<path fill="#8F6D52" d="M12.2,17.2c0,0,0.6-1.9,0.8-3.1c0.2-1.3,3.5,0.3,4.9-2c0,0,1.2,2.3,5.4,2l0,3.2l0,0c0,0,0.3-2,0.8-3.1
							c0.5-1.1,0.7-1.1,0.5-1.7S23,9.4,21.9,8.8c-1-0.6-1.8-1-2.8-1.1c-1.1-0.1-1.6-0.4-2.7,0.2s-2.2,1.8-2.8,2.4
							c-0.6,0.7-2.1,2.2-2.1,2.6c-0.1,0.3,0.3,1.5,0.3,1.5C12.2,15,12.2,16.1,12.2,17.2L12.2,17.2z"/>
					</g>
				</g>
			</g>
		</g>
		<g>
			<g>
				<g>
					<g>
						<g>
							<circle fill="#3E4347" cx="15.7" cy="16.4" r="1.1"/>
						</g>
					</g>
				</g>
			</g>
			<g>
				<g>
					<g>
						<g>
							<circle fill="#3E4347" cx="20.3" cy="16.4" r="1.1"/>
						</g>
					</g>
				</g>
			</g>
		</g>
		<g>
			<path fill="#3E4347" d="M25.6,33.4c-0.6-1.3-1.2-1.2-1.2-3c0-2.1,0.4-4.3,1.3-6.2c-0.4-0.1-0.9-0.2-1.3-0.3
				c-0.5,1.1-1.1,2.8-1.2,5c-3.5,0.8-7,0.9-10.4,0c-0.2-2.2-0.7-3.8-1.2-5c-0.5,0.1-0.9,0.2-1.3,0.3c0.9,1.9,1.3,4,1.3,6.2
				c0,1.7-0.6,1.7-1.2,3c-0.1,0.1-0.1,0.4-0.1,0.6h15.4C25.7,33.8,25.7,33.5,25.6,33.4z"/>
		</g>
	</g>
	<g>
		<g>
			<g>
				<g>
					<path fill="#F4C534" d="M25.5,12.6c0.2-0.7,0.3-1.4,0.3-2.2c0-4.3-3.5-7.8-7.8-7.8s-7.8,3.5-7.8,7.8c0,0.8,0.1,1.5,0.3,2.2
						C15.5,14.6,20.5,14.6,25.5,12.6z"/>
				</g>
			</g>
			<g>
				<path fill="#E9B02C" d="M20.9,7.4l0.4-0.9c0.5-1,0.4-2.2-0.1-3.1c-1-0.4-2.1-0.7-3.2-0.7c-1.2,0-2.2,0.3-3.2,0.7
					c-0.5,0.9-0.6,2-0.1,3.1l0.4,0.9l0.4,6.3h4.9L20.9,7.4z"/>
			</g>
			<g>
				<g>
					<path fill="#F4C534" d="M20.8,6l-0.3,0.9v6.9h-4.9V6.8L15.2,6c-0.7-1.9,0.7-4,2.8-4h0C20.1,2,21.5,4.1,20.8,6z"/>
				</g>
			</g>
			<g>
				<g>
					<path fill="#FFD93B" d="M26.6,13.4c-5.5,2.1-11.7,2.1-17.2,0c-0.5-0.2-0.7-0.8-0.5-1.2c0,0,0,0,0,0c0.2-0.5,0.7-0.7,1.2-0.5
						c5.1,2,10.7,2,15.8,0c0.5-0.2,1,0,1.2,0.5c0,0,0,0,0,0C27.3,12.6,27.1,13.2,26.6,13.4z"/>
				</g>
			</g>
		</g>
		<g>
			<g>
				<path fill="#FFFFFF" d="M20.1,5c0,1.2-1,2.1-2.1,2.1c-1.2,0-2.1-1-2.1-2.1c0-1.2,1-2.1,2.1-2.1C19.2,2.8,20.1,3.8,20.1,5z"/>
			</g>
		</g>
		<g>
			<g>
				<circle fill="#45CBEA" cx="18" cy="5" r="1.3"/>
			</g>
		</g>
		<g>
			<g>
				<path fill="#FFFFFF" d="M19.4,4.2c0,0.4-0.3,0.7-0.7,0.7c-0.4,0-0.7-0.3-0.7-0.7c0-0.4,0.3-0.7,0.7-0.7
					C19.1,3.5,19.4,3.8,19.4,4.2z"/>
			</g>
		</g>
	</g>
</g>
</svg>
