<?xml version="1.0" encoding="utf-8"?>
<!-- Generator: Adobe Illustrator 18.0.0, SVG Export Plug-In . SVG Version: 6.00 Build 0)  -->
<!DOCTYPE svg PUBLIC "-//W3C//DTD SVG 1.1//EN" "http://www.w3.org/Graphics/SVG/1.1/DTD/svg11.dtd">
<svg version="1.1" id="Layer_1" xmlns="http://www.w3.org/2000/svg" xmlns:xlink="http://www.w3.org/1999/xlink" x="0px" y="0px"
	 viewBox="0 0 36 36" enable-background="new 0 0 36 36" xml:space="preserve">
<g>
	<g>
		<g>
			<g>
				<path fill="#89664C" d="M25.6,8.8v9.5c0,4.2-3.4,7.6-7.6,7.6s-7.6-3.4-7.6-7.6V8.8H25.6z"/>
			</g>
		</g>
	</g>
	<g>
		<g>
			<path fill="#F4C534" d="M23,22.9c-1.3-1.3-2-3.1-2-4.9v-0.6h-6.1V18c0,1.8-0.7,3.6-2,4.9l-4.2,4.4V30h18.6v-2.7L23,22.9z"/>
		</g>
	</g>
	<g>
		<g>
			<g>
				<g>
					<g>
						<path fill="#FFD93B" d="M23.3,7.6c-4.2-2.7-8.1-3.4-11.4,0c-0.1,0.9,0.2,1.8,0.8,2.4c-0.5,1.1-0.7,2.3-0.7,3.6
							c0,4.2,2.6,7.6,5.9,7.6c3.3,0,5.9-3.4,5.9-7.6c0-0.7-0.1-1.4-0.2-2.1C24.3,10.3,24.2,8.6,23.3,7.6z"/>
					</g>
				</g>
			</g>
			<g>
				<g>
					<g>
						<g>
							<circle fill="#3E4347" cx="15.6" cy="13.7" r="1"/>
						</g>
					</g>
					<g>
						<g>
							<path fill="#5A5F63" d="M16.1,13.6c-0.1,0.1-0.2,0-0.3-0.1c-0.1-0.1-0.1-0.3,0-0.3c0.1,0,0.2,0,0.3,0.1
								C16.2,13.4,16.2,13.6,16.1,13.6z"/>
						</g>
					</g>
				</g>
				<g>
					<g>
						<g>
							<circle fill="#3E4347" cx="20.4" cy="13.7" r="1"/>
						</g>
					</g>
					<g>
						<g>
							<path fill="#5A5F63" d="M21,13.6c-0.1,0.1-0.2,0-0.3-0.1c-0.1-0.1-0.1-0.3,0-0.3c0.1,0,0.2,0,0.3,0.1
								C21.1,13.4,21.1,13.6,21,13.6z"/>
						</g>
					</g>
				</g>
			</g>
			<g>
				<g>
					<path fill="#E9B02C" d="M17,15.5c0,0.1,0,0.2,0.1,0.2c0.3,0.4,0.7,0.6,0.9,0.8c0.1,0,0.1,0,0.2,0c0.2-0.1,0.6-0.4,0.9-0.8
						c0-0.1,0.1-0.1,0.1-0.2H17z"/>
				</g>
			</g>
		</g>
		<g>
			<g>
				<path fill="#3E4347" d="M19.2,18.7c0,0.7-0.6,1.2-1.2,1.2c-0.7,0-1.2-0.6-1.2-1.2c0-0.7,0.6-1.2,1.2-1.2
					C18.7,17.5,19.2,18.1,19.2,18.7z"/>
			</g>
		</g>
	</g>
	<g>
		<g>
			<path fill="#89664C" d="M11.6,14.9h0.3c0,0,0.4-1.7,0.4-3c0,0,2.3-0.1,3.1-2.1c0,0,1.2,2.8,8.2,2.3l0.2,2.8h0.1
				c0,0,4.5-7.5-1.3-11.3s-9.3,0.3-9.3,0.3S8.2,4.6,11.6,14.9z"/>
		</g>
	</g>
	<g>
		<g>
			<path fill="#E84D88" d="M30.5,34v-7.6c0-1.1-0.7-2.1-1.7-2.4c-2-0.7-4.1-1.3-6.2-1.6c-0.1,2.8-2.2,5-4.7,5
				c-2.5,0-4.5-2.2-4.7-4.9c-2,0.3-4.1,0.8-6.1,1.5c-1,0.3-1.7,1.3-1.7,2.4V34H30.5z"/>
		</g>
	</g>
</g>
</svg>
