<?xml version="1.0" encoding="utf-8"?>
<!-- Generator: Adobe Illustrator 18.0.0, SVG Export Plug-In . SVG Version: 6.00 Build 0)  -->
<!DOCTYPE svg PUBLIC "-//W3C//DTD SVG 1.1//EN" "http://www.w3.org/Graphics/SVG/1.1/DTD/svg11.dtd">
<svg version="1.1" id="Layer_1" xmlns="http://www.w3.org/2000/svg" xmlns:xlink="http://www.w3.org/1999/xlink" x="0px" y="0px"
	 viewBox="0 0 36 36" enable-background="new 0 0 36 36" xml:space="preserve">
<g>
	<g>
		<g>
			<g>
				<g>
					<path fill="#7A5B44" d="M25.5,9.4v9.5c0,4.1-3.3,7.4-7.4,7.4c-4.1,0-7.4-3.3-7.4-7.4V9.4C10.6,5.3,13.9,2,18,2
						c2.1,0,3.9,0.8,5.3,2.2C24.6,5.5,25.5,7.4,25.5,9.4z"/>
				</g>
			</g>
			<g>
				<g>
					<path fill="#F4C534" d="M20.8,17.2h-5.7c-0.4,2.8-1.6,5.4-3.5,7.4l-2.4,2.6v4.2h17.4v-4.2l-2.4-2.6
						C22.4,22.5,21.2,19.9,20.8,17.2z"/>
				</g>
			</g>
			<g>
				<g>
					<ellipse fill="#FFD93B" cx="18" cy="12.9" rx="6.2" ry="7.3"/>
				</g>
			</g>
			<g>
				<g>
					<path fill="#7A5B44" d="M22.4,9.4c0,0-2.2-0.3-3.1,0.7c0,0,0.2-0.9,0.9-1.4c0,0-1.5,1.8-3.7,1.6c0,0,0,0-0.1,0
						c-2.3-0.2-4.3,1.4-4.8,3.6l-0.1,0.2l0-5.7c0,0,0,1.3,0.5-0.6s4.9-4.1,5.7-4.1c0.7,0,2.8,0.1,3.5,0.4c0.7,0.3,3.7,3.1,3.7,3.3
						c0,0.2,0.2,1.3,0,1.9c-0.2,0.6-0.8,2.4-0.8,2.4s-0.7-2.1-2.6-1.6C21.6,10.3,21.9,9.7,22.4,9.4z"/>
				</g>
			</g>
			<g>
				<g>
					<path fill="#719D34" d="M27.8,34H8.1c-2.1,0-3.7-2-3.3-4.1c1.2-6.4,4.8-8.1,9.6-8.6c0,3.9,3.7,5.1,3.7,5.1s3.6-1.2,3.7-5.1
						c4.7,0.5,8.4,2.2,9.6,8.5C31.6,32,30,34,27.8,34z"/>
				</g>
			</g>
		</g>
		<g>
			<g>
				<g>
					<g>
						<g>
							<g>
								<g>
									<circle fill="#3E4347" cx="15.2" cy="13.1" r="0.9"/>
								</g>
							</g>
							<g>
								<g>
									<path fill="#5A5F63" d="M15.7,13c-0.1,0.1-0.2,0-0.3-0.1c-0.1-0.1-0.1-0.3,0-0.3c0.1,0,0.2,0,0.3,0.1
										C15.8,12.9,15.8,13,15.7,13z"/>
								</g>
							</g>
						</g>
						<g>
							<g>
								<g>
									<circle fill="#3E4347" cx="20.8" cy="13.1" r="0.9"/>
								</g>
							</g>
							<g>
								<g>
									<path fill="#5A5F63" d="M21.3,13c-0.1,0.1-0.2,0-0.3-0.1c-0.1-0.1-0.1-0.3,0-0.3c0.1,0,0.2,0,0.3,0.1
										C21.4,12.9,21.4,13,21.3,13z"/>
								</g>
							</g>
						</g>
					</g>
					<g>
						<g>
							<path fill="#E9B02C" d="M17,14.7c0,0.1,0,0.2,0.1,0.2c0.3,0.3,0.6,0.6,0.8,0.7c0.1,0,0.1,0,0.2,0c0.2-0.1,0.6-0.4,0.8-0.7
								c0-0.1,0.1-0.1,0.1-0.2H17z"/>
						</g>
					</g>
				</g>
				<g>
					<g>
						<path fill="#3E4347" d="M19.1,17.5c0,0.6-0.5,1.1-1.1,1.1c-0.6,0-1.1-0.5-1.1-1.1c0-0.6,0.5-1.1,1.1-1.1
							C18.6,16.5,19.1,16.9,19.1,17.5z"/>
					</g>
				</g>
			</g>
		</g>
	</g>
	<g>
		<g>
			<g>
				<g>
					<path fill="#FFD93B" d="M12.4,22.3l1.2-2.6l-2.1-1.4c0,0-1.3-0.8-3.6-1.3c-2.3-0.5-2.7-0.6-2.7-0.6s-0.7,0.5,1.4,1.4
						c1.6,0.7,2.2,1.3,2.2,1.3s-0.4,1,0.7,1.5C10.5,21.2,11.6,21.8,12.4,22.3z"/>
				</g>
			</g>
			<g>
				<g>
					<path fill="#7FB239" d="M10.6,21.9l15.6,11.5c1.6,1.2,3.9,0.8,4.8-1c0.9-1.6,0.3-3.5-1.3-4.4l-17.1-9.6c-0.1-0.1-0.3,0-0.4,0.1
						l-1.7,3.1C10.4,21.6,10.5,21.8,10.6,21.9z"/>
				</g>
			</g>
		</g>
		<g>
			<g>
				<g>
					<path fill="#FFD93B" d="M23.6,22.3l-1.2-2.6l2.1-1.4c0,0,1.3-0.8,3.6-1.3c2.3-0.5,2.7-0.6,2.7-0.6s0.7,0.5-1.4,1.4
						c-1.6,0.7-2.2,1.3-2.2,1.3s0.4,1-0.7,1.5C25.5,21.2,24.4,21.8,23.6,22.3z"/>
				</g>
			</g>
			<g>
				<g>
					<path fill="#8CC63E" d="M25.4,21.9L9.9,33.3c-1.6,1.2-3.9,0.8-4.8-1c-0.9-1.6-0.3-3.5,1.3-4.4l17.1-9.6c0.1-0.1,0.3,0,0.4,0.1
						l1.7,3.1C25.6,21.6,25.5,21.8,25.4,21.9z"/>
				</g>
			</g>
		</g>
	</g>
</g>
</svg>
