<?xml version="1.0" encoding="utf-8"?>
<!-- Generator: Adobe Illustrator 18.0.0, SVG Export Plug-In . SVG Version: 6.00 Build 0)  -->
<!DOCTYPE svg PUBLIC "-//W3C//DTD SVG 1.1//EN" "http://www.w3.org/Graphics/SVG/1.1/DTD/svg11.dtd">
<svg version="1.1" id="Layer_1" xmlns="http://www.w3.org/2000/svg" xmlns:xlink="http://www.w3.org/1999/xlink" x="0px" y="0px"
	 viewBox="0 0 36 36" enable-background="new 0 0 36 36" xml:space="preserve">
<g>
	<g>
		<g>
			<g>
				<g>
					<g>
						<path fill="#FFD93B" d="M24.3,13.1c-0.2,0.9-0.8,1.6-1.3,1.5c-0.5-0.1-0.8-1-0.6-2c0.2-0.9,0.8-1.6,1.3-1.5
							C24.2,11.2,24.5,12.1,24.3,13.1z"/>
					</g>
				</g>
				<g>
					<g>
						<path fill="#FFD93B" d="M11.7,13.1c0.2,0.9,0.8,1.6,1.3,1.5c0.5-0.1,0.8-1,0.6-2c-0.2-0.9-0.8-1.6-1.3-1.5
							C11.8,11.2,11.5,12.1,11.7,13.1z"/>
					</g>
				</g>
			</g>
			<g>
				<g>
					<g>
						<g>
							<path fill="#F4C534" d="M20.5,15.6h-5.1c-0.3,2.5-1.4,4.8-3.1,6.7l-2.1,2.3v3.8h15.6v-3.8l-2.1-2.3
								C22,20.4,20.9,18.1,20.5,15.6z"/>
						</g>
					</g>
					<g>
						<g>
							<ellipse fill="#FFD93B" cx="18" cy="11.8" rx="5.5" ry="6.5"/>
						</g>
					</g>
				</g>
				<g>
					<g>
						<g>
							<g>
								<g>
									<g>
										<g>
											<circle fill="#3E4347" cx="15.5" cy="11.9" r="0.8"/>
										</g>
									</g>
									<g>
										<g>
											<path fill="#5A5F63" d="M16,11.9c-0.1,0-0.2,0-0.3-0.1c-0.1-0.1-0.1-0.2,0-0.3c0.1,0,0.2,0,0.3,0.1
												C16.1,11.7,16.1,11.8,16,11.9z"/>
										</g>
									</g>
								</g>
								<g>
									<g>
										<g>
											<circle fill="#3E4347" cx="20.5" cy="11.9" r="0.8"/>
										</g>
									</g>
									<g>
										<g>
											<path fill="#5A5F63" d="M21,11.9c-0.1,0-0.2,0-0.3-0.1c-0.1-0.1-0.1-0.2,0-0.3c0.1,0,0.2,0,0.3,0.1
												C21.1,11.7,21,11.8,21,11.9z"/>
										</g>
									</g>
								</g>
							</g>
							<g>
								<g>
									<path fill="#E9B02C" d="M17.1,13.4c0,0.1,0,0.1,0.1,0.2c0.2,0.3,0.6,0.5,0.7,0.6c0.1,0,0.1,0,0.2,0
										c0.2-0.1,0.5-0.3,0.7-0.6c0-0.1,0.1-0.1,0.1-0.2H17.1z"/>
								</g>
							</g>
						</g>
						<g>
							<g>
								<path fill="#3E4347" d="M19,15.9c0,0.5-0.4,1-1,1c-0.5,0-1-0.4-1-1c0-0.5,0.4-1,1-1C18.5,14.9,19,15.4,19,15.9z"/>
							</g>
						</g>
					</g>
				</g>
			</g>
			<g>
				<g>
					<g>
						<g>
							<path fill="#89664C" d="M23.4,13.2h-0.3l-0.3-4c-3.3,1.1-6.6,1-9.7-0.2c0,1.1-0.3,4.2-0.3,4.2h-0.3C9.6,4.3,14,3.7,14,3.7
								s3-3.6,8-0.3C27,6.6,23.4,13.2,23.4,13.2z"/>
						</g>
					</g>
				</g>
			</g>
		</g>
	</g>
	<g>
		<g>
			<g>
				<g>
					<path fill="#FFD93B" d="M32.1,16.3c0.4-0.8,1.7-2.8,1.9-3.1c0.2-0.3-0.1-0.7-0.5-0.4c-0.4,0.3-1,1.4-1,1.4s0.9-2.3,1.1-2.7
						c0.1-0.5-0.4-0.8-0.7-0.1c-0.3,0.7-0.8,2.1-0.9,2.1c0-0.1,0.3-2.6,0.3-3c0-0.4-0.5-0.5-0.8,0.5c-0.3,1-0.4,2.7-0.4,2.7
						s-0.2-0.6-0.4-0.9c-0.2-0.2-1.4-0.1-2.1,0.7c0,0-0.2-0.2-0.4,0c-0.2,0.1-0.1,0.3-0.2,0.5c-0.1,0.2-0.3,0.2-0.3,0.5
						c0,0.3,0.3,0.7,0.5,1.4c0.5,1.8,1.3,2.1,1.3,3.4c-0.1,1.2,2.5-1.1,2.5-1.1S31.7,17.1,32.1,16.3z M29.5,15.2c-0.5,0.3-1,0-1-1
						c0.4,0.2,0.9-0.3,0.9-0.3c0.1,0.1,0.5,0.1,0.5,0.1c0,0.1,0.2,0.5,0.2,0.5C30,14.6,30,14.9,30,14.9S29.9,15,29.5,15.2z"/>
				</g>
			</g>
		</g>
		<g>
			<g>
				<g>
					<path fill="#65B1EF" d="M28.6,23.6h-2.5c0.6,2.5,1.3,8.1,1.1,10.2L8.8,34c-0.2-2.2,0.4-7.9,1-10.4H7.4l-0.2-1
						c1.6-3,3.7-3.3,7.1-3.3c0,2,1.6,3.7,3.7,3.7c2,0,3.6-1.6,3.6-3.7c3.4,0,5.5,0.3,7.1,3.3L28.6,23.6z"/>
				</g>
			</g>
		</g>
		<g>
			<g>
				<g>
					<path fill="#65B1EF" d="M32.2,26.2c0.9,0.6,1.1,1.8,0.5,2.6c-0.5,0.8-1.6,1.1-2.4,0.6l0,0c-2.1-1-4.6-5-6.3-5.7
						c-1.5-0.6,0.9,2-0.3,1.2l0,0c-1.1-0.8-1.4-2.3-0.7-3.4c0.8-1.1,2.9-1.5,4.2-1C28,20.9,30.7,25.2,32.2,26.2z"/>
				</g>
			</g>
		</g>
		<g>
			<g>
				<g>
					<path fill="#65B1EF" d="M31.6,29.6c-0.2,0-0.4,0-0.7,0c-0.7-0.1-1.3-0.7-1.5-1.5l-1-9.5l3.7-0.6l1,9.5
						C33.3,28.5,32.6,29.5,31.6,29.6z"/>
				</g>
			</g>
		</g>
		<g>
			<g>
				<path fill="#4E99D2" d="M28.9,22.5c0,0,0.2,2.8,1.6,4.4C30.5,26.9,28.6,26.5,28.9,22.5z"/>
			</g>
		</g>
	</g>
	<g>
		<g>
			<g>
				<g>
					<path fill="#FFD93B" d="M4.3,18.2c0,0,2.6,2.3,2.5,1.1c-0.1-1.2,0.8-1.5,1.3-3.4c0.2-0.7,0.5-1.1,0.5-1.4
						c0-0.3-0.2-0.3-0.3-0.5c-0.1-0.2,0-0.3-0.2-0.5c-0.2-0.1-0.4,0-0.4,0S7.3,13.1,7,13.1c-0.2-0.1-1.2-0.4-1.5-0.2
						c-0.3,0.3-0.4,0.9-0.4,0.9S4.9,12,4.6,11c-0.3-1-0.8-1-0.8-0.5c0,0.4,0.3,3,0.3,3c0-0.1-0.5-1.4-0.9-2.1
						c-0.3-0.7-0.8-0.4-0.7,0.1s1.1,2.7,1.1,2.7s-0.6-1.1-1-1.4c-0.4-0.3-0.7,0.1-0.5,0.4c0.2,0.3,1.5,2.3,1.9,3.1
						C4.3,17.1,4.3,18.2,4.3,18.2z M6,14.9c0,0,0-0.3-0.1-0.6c0,0,0.2-0.3,0.2-0.5c0,0,0.4,0,0.5-0.1c0,0,0.6,0.5,0.9,0.3
						c0,1.1-0.5,1.3-1,1C6.1,15,6,14.9,6,14.9z"/>
				</g>
			</g>
		</g>
		<g>
			<g>
				<g>
					<path fill="#65B1EF" d="M3.8,26.2c-0.9,0.6-1.1,1.8-0.5,2.6c0.5,0.8,1.6,1.1,2.4,0.6l0,0c2.1-1,4.6-5,6.3-5.7
						c1.5-0.6-0.9,2,0.3,1.2l0,0c1.1-0.8,1.4-2.3,0.7-3.4c-0.8-1.1-2.9-1.5-4.2-1C8,20.9,5.3,25.2,3.8,26.2z"/>
				</g>
			</g>
		</g>
		<g>
			<g>
				<g>
					<path fill="#65B1EF" d="M4.4,29.6c0.2,0,0.4,0,0.7,0c0.7-0.1,1.3-0.7,1.5-1.5l1-9.5L3.9,18l-1,9.5C2.7,28.5,3.4,29.5,4.4,29.6z
						"/>
				</g>
			</g>
		</g>
		<g>
			<g>
				<path fill="#4E99D2" d="M7.1,22.5c0,0-0.2,2.8-1.6,4.4C5.5,26.9,7.4,26.5,7.1,22.5z"/>
			</g>
		</g>
	</g>
</g>
</svg>
