<?xml version="1.0" encoding="utf-8"?>
<!-- Generator: Adobe Illustrator 18.0.0, SVG Export Plug-In . SVG Version: 6.00 Build 0)  -->
<!DOCTYPE svg PUBLIC "-//W3C//DTD SVG 1.1//EN" "http://www.w3.org/Graphics/SVG/1.1/DTD/svg11.dtd">
<svg version="1.1" id="Layer_1" xmlns="http://www.w3.org/2000/svg" xmlns:xlink="http://www.w3.org/1999/xlink" x="0px" y="0px"
	 viewBox="0 0 36 36" enable-background="new 0 0 36 36" xml:space="preserve">
<g>
	<g>
		<g>
			<g>
				<path fill="#89664C" d="M14.1,22.4L14.1,22.4c-3.9,0-7.1-3.2-7.1-7.1V9.1C7,5.2,10.2,2,14.1,2h0c3.9,0,7.1,3.2,7.1,7.1v6.2
					C21.2,19.2,18,22.4,14.1,22.4z"/>
			</g>
		</g>
		<g>
			<g>
				<g>
					<path fill="#FFD93B" d="M24.5,19.4c0,0-0.6-1.5,0.3-2.9c0.8-1.3,2-1.6,3.1-1.2c0,0,0.2,0.1,0.8-0.2s1.1-0.4,1.4,0.1
						c1.7-0.4,2.9-1.8,3.3-0.7l-0.5,0.2c0,0,0.3,0.1,0.3,0.4l-1.3,0.5c0,0,0.2,0.2,0.2,0.5l-1.1,0.2c0,0-1.8,0.5-2.4,0.6
						s-0.8,0.3-0.9,0.6c-0.1,0.3,0.1,1.7,0.1,1.7L24.5,19.4z"/>
				</g>
			</g>
			<g>
				<g>
					<g>
						<g>
							<g>
								<g>
									<path fill="#FFD93B" d="M20.2,13.7c-0.2,0.9-0.8,1.5-1.3,1.4c-0.5-0.1-0.8-1-0.6-1.9s0.8-1.5,1.3-1.4
										C20.1,11.9,20.4,12.8,20.2,13.7z"/>
								</g>
							</g>
							<g>
								<g>
									<path fill="#FFD93B" d="M8,13.7c0.2,0.9,0.8,1.5,1.3,1.4c0.5-0.1,0.8-1,0.6-1.9s-0.8-1.5-1.3-1.4C8.1,11.9,7.8,12.8,8,13.7
										z"/>
								</g>
							</g>
						</g>
						<g>
							<g>
								<g>
									<g>
										<path fill="#F4C534" d="M16.6,16.1h-4.9c-0.3,2.4-1.4,4.7-3,6.5l-2.1,2.3v3.7h15.1v-3.7l-2.1-2.3
											C17.9,20.8,16.9,18.5,16.6,16.1z"/>
									</g>
								</g>
								<g>
									<g>
										<ellipse fill="#FFD93B" cx="14.1" cy="12.4" rx="5.3" ry="6.3"/>
									</g>
								</g>
							</g>
							<g>
								<g>
									<g>
										<g>
											<g>
												<g>
													<g>
														<circle fill="#3E4347" cx="11.7" cy="12.6" r="0.8"/>
													</g>
												</g>
												<g>
													<g>
														<path fill="#5A5F63" d="M12.2,12.6c-0.1,0-0.2,0-0.2-0.1c-0.1-0.1-0.1-0.2,0-0.3c0.1,0,0.2,0,0.2,0.1
															C12.2,12.4,12.2,12.5,12.2,12.6z"/>
													</g>
												</g>
											</g>
											<g>
												<g>
													<g>
														<circle fill="#3E4347" cx="16.5" cy="12.6" r="0.8"/>
													</g>
												</g>
												<g>
													<g>
														<path fill="#5A5F63" d="M17,12.6c-0.1,0-0.2,0-0.2-0.1c-0.1-0.1-0.1-0.2,0-0.3c0.1,0,0.2,0,0.2,0.1
															C17.1,12.4,17.1,12.5,17,12.6z"/>
													</g>
												</g>
											</g>
										</g>
										<g>
											<g>
												<path fill="#E9B02C" d="M13.3,14.4c0,0.1,0,0.1,0.1,0.2c0.2,0.3,0.5,0.5,0.7,0.6c0.1,0,0.1,0,0.2,0
													c0.2-0.1,0.5-0.3,0.7-0.6c0-0.1,0.1-0.1,0.1-0.2H13.3z"/>
											</g>
										</g>
									</g>
									<g>
										<g>
											<path fill="#3E4347" d="M12.3,16.3c0.3,0.7,1,1.2,1.8,1.2c0.8,0,1.5-0.5,1.8-1.2H12.3z"/>
										</g>
									</g>
								</g>
							</g>
						</g>
					</g>
				</g>
				<g>
					<g>
						<g>
							<g>
								<path fill="#65B1EF" d="M24.4,23.9H22c0.6,2.5,1.2,7.9,1.1,9.9L8,34l-2.8,0H2.6c0.1-3.3,0.4-6.5,0.8-9.9
									C3.6,23,4.1,22,4.9,21.2c1.4-1.3,3.2-1.5,5.6-1.5c0,2,1.6,3.6,3.6,3.6c2,0,3.5-1.6,3.5-3.6c3.3,0,5.4,0.3,6.9,3.2L24.4,23.9
									z"/>
							</g>
						</g>
					</g>
					<g>
						<g>
							<g>
								<path fill="#65B1EF" d="M27.9,26.5c0.8,0.6,1.1,1.7,0.5,2.6c-0.5,0.8-1.5,1-2.3,0.6l0,0c-2-1-4.4-4.8-6.1-5.5
									c-1.4-0.6,0.9,1.9-0.3,1.1l0,0c-1.1-0.7-1.4-2.2-0.6-3.3c0.7-1.1,2.9-1.5,4.1-1C23.8,21.3,26.4,25.4,27.9,26.5z"/>
							</g>
						</g>
					</g>
					<g>
						<g>
							<g>
								<path fill="#65B1EF" d="M27.3,29.8c-0.2,0-0.4,0-0.6,0c-0.7-0.1-1.3-0.7-1.4-1.5l-1-9.3l3.6-0.6l1,9.3
									C29,28.7,28.3,29.6,27.3,29.8z"/>
							</g>
						</g>
					</g>
					<g>
						<g>
							<path fill="#4E99D2" d="M24.6,22.9c0,0,0.2,2.7,1.6,4.3C26.2,27.1,24.4,26.7,24.6,22.9z"/>
						</g>
					</g>
				</g>
			</g>
			<g>
				<g>
					<polygon fill="#65B1EF" points="8,34 8,34 5.2,34 					"/>
				</g>
			</g>
		</g>
	</g>
	<g>
		<g>
			<path fill="#89664C" d="M19.3,13.8h-0.3c0,0-0.4-1.8-0.6-3c-0.2-0.9-0.7-1.8-1.4-2.3c0.1,1.4-3.4,1.4-6.1,1.3
				c-0.9,0-1.6,0.6-1.7,1.5C9.2,12.4,9,13.7,9,13.7H8.7c-2.8-8.6,1.4-9.2,1.4-9.2s2.9-3.4,7.8-0.3C22.8,7.5,19.3,13.8,19.3,13.8z"/>
		</g>
	</g>
</g>
</svg>
