<?xml version="1.0" encoding="utf-8"?>
<!-- Generator: Adobe Illustrator 18.0.0, SVG Export Plug-In . SVG Version: 6.00 Build 0)  -->
<!DOCTYPE svg PUBLIC "-//W3C//DTD SVG 1.1//EN" "http://www.w3.org/Graphics/SVG/1.1/DTD/svg11.dtd">
<svg version="1.1" id="Layer_1" xmlns="http://www.w3.org/2000/svg" xmlns:xlink="http://www.w3.org/1999/xlink" x="0px" y="0px"
	 viewBox="0 0 36 36" enable-background="new 0 0 36 36" xml:space="preserve">
<g>
	<g>
		<g>
			<g>
				<path fill="#E9EFF4" d="M5.4,16.5c-0.4,1-0.7,2.2-0.7,3.3c0,5.5,5.1,9.9,11.4,9.9s11.4-4.4,11.4-9.9c0-1.2-0.2-2.3-0.7-3.3H5.4z
					"/>
			</g>
		</g>
	</g>
	<g>
		<g>
			<g>
				<g>
					<ellipse fill="#F4C534" cx="16.1" cy="22.3" rx="9.9" ry="11.7"/>
				</g>
			</g>
		</g>
		<g>
			<g>
				<path fill="#FFD93B" d="M17.9,26.1c-0.2,0.7-0.9,1.3-1.4,1.6c-0.3,0.2-0.6,0.2-0.8,0c-0.5-0.3-1.2-0.9-1.4-1.6
					c0-0.1,0.1-0.3,0.2-0.3c1.1-1.7,2.2-1.7,3.2,0C17.9,25.8,18,26,17.9,26.1z"/>
			</g>
		</g>
		<g>
			<g>
				<g>
					<g>
						<g>
							<path fill="#3E4347" d="M13.2,20.6c0,1-0.6,1.7-1.4,1.7c-0.8,0-1.4-0.8-1.4-1.7c0-1,0.6-1.7,1.4-1.7
								C12.6,18.8,13.2,19.6,13.2,20.6z"/>
						</g>
					</g>
				</g>
				<g>
					<g>
						<g>
							<path fill="#5A5F63" d="M12.6,19.8c0.1,0.2,0,0.4-0.1,0.5c-0.1,0.1-0.4,0-0.4-0.3c-0.1-0.2,0-0.4,0.1-0.5
								C12.3,19.5,12.5,19.6,12.6,19.8z"/>
						</g>
					</g>
				</g>
			</g>
			<g>
				<g>
					<g>
						<g>
							<path fill="#3E4347" d="M21.9,20.6c0,1-0.6,1.7-1.4,1.7c-0.8,0-1.4-0.8-1.4-1.7c0-1,0.6-1.7,1.4-1.7
								C21.3,18.8,21.9,19.6,21.9,20.6z"/>
						</g>
					</g>
				</g>
				<g>
					<g>
						<g>
							<path fill="#5A5F63" d="M21.3,19.8c0.1,0.2,0,0.4-0.1,0.5c-0.1,0.1-0.4,0-0.4-0.3c-0.1-0.2,0-0.4,0.1-0.5
								C21,19.5,21.2,19.6,21.3,19.8z"/>
						</g>
					</g>
				</g>
			</g>
		</g>
		<g>
			<g>
				<g>
					<path fill="#E24B4B" d="M6.9,16.4c0.3-2,0.6-4,1-5.9C9.1,3.7,16.6,0,22.7,3.1c2.4,1.2,4.8,2.8,7.1,4.6L29,8.8l-5.5-1
						c1.2,2,1.9,4.7,2.3,7.5L6.9,16.4z"/>
				</g>
			</g>
		</g>
		<g>
			<path fill="#E9EFF4" d="M26.5,15.1H5.8c-0.8,0-1.4,0.6-1.4,1.4c0,0.8,0.6,1.4,1.4,1.4h20.7c0.8,0,1.4-0.6,1.4-1.4
				C27.9,15.8,27.3,15.1,26.5,15.1z"/>
		</g>
		<g>
			<g>
				<g>
					<circle fill="#E9EFF4" cx="29.4" cy="8.3" r="2.2"/>
				</g>
			</g>
		</g>
		<g>
			<g>
				<g>
					<path fill="#DEE4E9" d="M31.6,8.3c0,1.2-1,2.2-2.2,2.2c-0.7,0-1.2-0.3-1.6-0.7c0.3,0.2,0.6,0.2,1,0.2c1.2,0,2.2-1,2.2-2.2
						c0-0.5-0.2-1.1-0.5-1.4C31.1,6.7,31.6,7.4,31.6,8.3z"/>
				</g>
			</g>
		</g>
	</g>
	<g>
		<g>
			<g>
				<path fill="#E24B4B" d="M19.7,29.3c-0.7,1.3-2,2.1-3.5,2.1s-2.8-0.9-3.5-2.1c-0.1-0.3,0.1-0.6,0.4-0.5c2.1,0.5,4.2,0.5,6.3,0
					C19.6,28.8,19.8,29.1,19.7,29.3z"/>
			</g>
		</g>
	</g>
	<g>
		<g>
			<g>
				<g>
					<g>
						<path fill="#3E4347" d="M22.9,25.2c0-0.2,0.1-0.3,0.2-0.3c0.6-0.1,1-0.5,1.2-1.1l1.5-5.8c0-0.1,0.2-0.2,0.3-0.2
							c0.1,0,0.2,0.2,0.2,0.3L24.8,24c-0.2,0.8-0.8,1.4-1.6,1.5C23,25.5,22.9,25.4,22.9,25.2z"/>
					</g>
				</g>
			</g>
			<g>
				<g>
					<g>
						<path fill="#3E4347" d="M9.1,25.5c-0.8-0.1-1.4-0.7-1.6-1.5L6,18.2c0-0.1,0.1-0.3,0.2-0.3c0.2,0,0.3,0.1,0.3,0.2L8,23.9
							c0.1,0.6,0.6,1,1.2,1.1c0.2,0,0.3,0.2,0.2,0.3C9.4,25.4,9.3,25.5,9.1,25.5z"/>
					</g>
				</g>
			</g>
		</g>
		<g>
			<g>
				<g>
					<g>
						<g>
							<ellipse fill="#FFFFFF" cx="12.2" cy="25.2" rx="3.1" ry="1.9"/>
						</g>
						<g>
							<path fill="#3E4347" d="M12.2,27.4c-1.9,0-3.4-1-3.4-2.2s1.5-2.2,3.4-2.2s3.4,1,3.4,2.2S14.1,27.4,12.2,27.4z M12.2,23.5
								c-1.5,0-2.8,0.8-2.8,1.7c0,0.9,1.3,1.7,2.8,1.7s2.8-0.8,2.8-1.7C15,24.3,13.8,23.5,12.2,23.5z"/>
						</g>
					</g>
				</g>
				<g>
					<g>
						<g>
							<ellipse fill="#FFFFFF" cx="20.1" cy="25.2" rx="3.1" ry="1.9"/>
						</g>
						<g>
							<path fill="#3E4347" d="M20.1,27.4c-1.9,0-3.4-1-3.4-2.2s1.5-2.2,3.4-2.2s3.4,1,3.4,2.2S21.9,27.4,20.1,27.4z M20.1,23.5
								c-1.5,0-2.8,0.8-2.8,1.7c0,0.9,1.3,1.7,2.8,1.7s2.8-0.8,2.8-1.7C22.9,24.3,21.6,23.5,20.1,23.5z"/>
						</g>
					</g>
				</g>
			</g>
			<g>
				<g>
					<g>
						<path fill="#3E4347" d="M17,25.5c-0.2,0-0.3-0.1-0.3-0.3c0-0.4-0.4-0.5-0.6-0.5c-0.2,0-0.6,0.1-0.6,0.5c0,0.2-0.1,0.3-0.3,0.3
							S15,25.3,15,25.2c0-1.3,2.2-1.3,2.2,0C17.3,25.3,17.1,25.5,17,25.5z"/>
					</g>
				</g>
			</g>
		</g>
	</g>
	<g>
		<g>
			<g>
				<path fill="#E9EFF4" d="M6.3,21.7c0.1-1.4,0.3-2.7,0.8-3.9H5c-0.2,0.7-0.3,1.4-0.3,2.1c0,0.6,0.1,1.2,0.2,1.8H6.3z"/>
			</g>
		</g>
		<g>
			<g>
				<path fill="#E9EFF4" d="M27.4,21.7c0.1-0.6,0.2-1.2,0.2-1.8c0-0.7-0.1-1.4-0.3-2.1h-2.1c0.4,1.2,0.7,2.5,0.8,3.9H27.4z"/>
			</g>
		</g>
	</g>
</g>
</svg>
