<?xml version="1.0" encoding="utf-8"?>
<!-- Generator: Adobe Illustrator 18.0.0, SVG Export Plug-In . SVG Version: 6.00 Build 0)  -->
<!DOCTYPE svg PUBLIC "-//W3C//DTD SVG 1.1//EN" "http://www.w3.org/Graphics/SVG/1.1/DTD/svg11.dtd">
<svg version="1.1" id="Layer_1" xmlns="http://www.w3.org/2000/svg" xmlns:xlink="http://www.w3.org/1999/xlink" x="0px" y="0px"
	 viewBox="0 0 36 36" enable-background="new 0 0 36 36" xml:space="preserve">
<g>
	<g>
		<g>
			<path fill="#5A5F63" d="M25.4,24.4H10.5V9.6c0-4.1,3.3-7.4,7.4-7.4h0c4.1,0,7.4,3.3,7.4,7.4V24.4z"/>
		</g>
	</g>
	<g>
		<g>
			<g>
				<path fill="#F4C534" d="M21,17.7h-6c-0.1,1.5-0.4,2.9-1,4.2c-0.7,1.6-1.7,3-3,4.2V31H25v-4.8C22.6,24,21.2,21,21,17.7z"/>
			</g>
		</g>
		<g>
			<g>
				<g>
					<path fill="#FFD93B" d="M24.3,11.9c0,5.2-3.1,7.3-4.9,8.2c-0.9,0.4-1.9,0.4-2.8,0c-1.9-0.8-4.9-3-4.9-8.2
						c0-4.8,2.8-8.6,6.3-8.6C21.5,3.2,24.3,7.1,24.3,11.9z"/>
				</g>
			</g>
		</g>
		<g>
			<g>
				<path fill="#E84D88" d="M30.4,32.4c0,0.7-0.6,1.3-1.3,1.3H6.9c-0.7,0-1.3-0.6-1.3-1.3c0.3-9.3,3.1-11.5,8.9-11.9
					c0,2.3,3.5,5.8,3.5,5.8s3.5-3.4,3.5-5.8C27.3,21,30.1,23.1,30.4,32.4z"/>
			</g>
		</g>
	</g>
	<g>
		<g>
			<path fill="#5A5F63" d="M14.7,8.1c2.3,0.4,4.7,0.4,7.1-0.1c0.5-0.1,1.1,0.1,1.4,0.5c0.2,0.2,0.4,0.6,0.4,1
				c0.3,1.2,1.1,4.4,1.1,4.4s-0.3-1.7-0.2-3.7c0.1-2.1-1.2-6.2-3.6-7S14,3.8,12.5,5s-1.6,8.8-1.6,8.8s2.1-3,2.1-4.3c0,0,0,0,0,0
				C13,8.6,13.8,7.9,14.7,8.1z"/>
		</g>
	</g>
	<g>
		<path fill="#FFFFFF" d="M14.5,20.5c-0.3,0-0.7,0.1-1,0.1c0.1,2.7,3.4,6,3.8,6.4l0.7,0.7l0.7-0.7c0.4-0.4,3.7-3.7,3.8-6.4
			c-0.3,0-0.7-0.1-1-0.1c0,2.3-3.5,5.8-3.5,5.8S14.6,22.9,14.5,20.5z"/>
	</g>
</g>
</svg>
