<?xml version="1.0" encoding="utf-8"?>
<!-- Generator: Adobe Illustrator 18.0.0, SVG Export Plug-In . SVG Version: 6.00 Build 0)  -->
<!DOCTYPE svg PUBLIC "-//W3C//DTD SVG 1.1//EN" "http://www.w3.org/Graphics/SVG/1.1/DTD/svg11.dtd">
<svg version="1.1" id="Layer_1" xmlns="http://www.w3.org/2000/svg" xmlns:xlink="http://www.w3.org/1999/xlink" x="0px" y="0px"
	 viewBox="0 0 36 36" enable-background="new 0 0 36 36" xml:space="preserve">
<g>
	<g>
		<g>
			<path fill="#F4C534" d="M21,18h-6c-0.1,1.5-0.4,2.9-1,4.2c-0.7,1.6-1.7,3-3,4.2v4.8H25v-4.8C22.6,24.2,21.2,21.2,21,18z"/>
		</g>
	</g>
	<g>
		<g>
			<g>
				<path fill="#FFD93B" d="M24.3,12.1c0,5.2-3.1,7.3-4.9,8.2c-0.9,0.4-1.9,0.4-2.8,0c-1.9-0.8-4.9-3-4.9-8.2c0-4.8,2.8-8.6,6.3-8.6
					C21.5,3.5,24.3,7.3,24.3,12.1z"/>
			</g>
		</g>
		<g>
			<g>
				<path fill="#FFD93B" d="M25.3,13.8c-0.2,1.1-1,1.8-1.7,1.7c-0.7-0.1-1.1-1.1-0.9-2.2c0.2-1.1,1-1.8,1.7-1.7
					C25.1,11.7,25.6,12.7,25.3,13.8z"/>
			</g>
			<g>
				<path fill="#FFD93B" d="M13.3,13.3c0.2,1.1-0.2,2-0.9,2.2c-0.7,0.1-1.5-0.6-1.7-1.7c-0.2-1.1,0.2-2,0.9-2.2
					C12.3,11.4,13.1,12.2,13.3,13.3z"/>
			</g>
		</g>
		<g>
			<g>
				<path fill="#8F6D52" d="M24,13.7h-0.4l0.1-3.3c-4.6,0.9-7.6-0.9-8.7-1.7c-0.8,1.2-2.7,1.5-2.7,1.5l0,3.6H12
					c-2.3-7.8,1.8-9.2,1.8-9.2S13.5,0.3,21,2.8C27.7,4.9,24,13.7,24,13.7z"/>
			</g>
		</g>
	</g>
	<g>
		<g>
			<path fill="#8CC63E" d="M30.4,32.7c0,0.7-0.6,1.3-1.3,1.3H6.9c-0.7,0-1.3-0.6-1.3-1.3c0.3-9.3,3.1-11.5,8.9-11.9
				c0.1,2.3,1.6,4.2,3.5,4.2c1.9,0,3.4-1.9,3.5-4.2C27.3,21.2,30.1,23.3,30.4,32.7z"/>
		</g>
	</g>
</g>
</svg>
