<?xml version="1.0" encoding="utf-8"?>
<!-- Generator: Adobe Illustrator 18.0.0, SVG Export Plug-In . SVG Version: 6.00 Build 0)  -->
<!DOCTYPE svg PUBLIC "-//W3C//DTD SVG 1.1//EN" "http://www.w3.org/Graphics/SVG/1.1/DTD/svg11.dtd">
<svg version="1.1" id="Layer_1" xmlns="http://www.w3.org/2000/svg" xmlns:xlink="http://www.w3.org/1999/xlink" x="0px" y="0px"
	 viewBox="0 0 36 36" enable-background="new 0 0 36 36" xml:space="preserve">
<g>
	<g>
		<g>
			<g>
				<path fill="#FFD93B" d="M12.3,29.7l-0.2,0.8c0,0-0.2,0.1-0.3,0.4c-0.1,0.3-1,1-1.3,1c-0.4,0-0.5-0.2-0.3-0.5c0,0,0-0.1-0.1-0.1
					c-0.3,0-0.4-0.4-0.2-0.6c0,0,0,0-0.1-0.1s-0.5-0.3-0.2-0.7c0,0,0-0.1-0.1-0.1c-0.1-0.1-0.4-0.3,0-0.8c0,0,0.2-0.2,0.1-0.4
					c-0.1-0.2,0.1-0.5,0.3-0.6c0.2-0.1,1.5,0.1,1.6,0.3L12.3,29.7z"/>
			</g>
		</g>
		<g>
			<g>
				<path fill="#59A5E0" d="M21.2,11.4v4.8L13.9,20C13.9,20,15.6,14.1,21.2,11.4z"/>
			</g>
		</g>
		<g>
			<g>
				<path fill="#FFD93B" d="M13.6,5.9c0,0,0.4,2.2,1.1,3c0,0-0.2,1.2,0.2,1.6l0.6,0.1c0,0,0.1,1.8,1.6,1.6s1.7,0,1.7,0
					s0.2,0.8-0.1,1.1s-1.2,2.4-1.1,4s1.3,1.5,2.3,0.7c1-0.8,3-2.4,3.1-2.6s0.4-3,0.4-3.1s-1.5-2.6-1.6-2.7S18.2,6,16.7,5.4"/>
			</g>
		</g>
		<g>
			<g>
				<path fill="#65B1EF" d="M22,34c-0.2-2.1-0.6-4.7-1.1-5.4l0-0.6c0,0,1.9-5.2,3.5-8c1.6-2.8,1.1-4.9,0.7-6.1
					c-0.5-1.2-1.5-2.1-1.5-2.1c-0.1-0.3-3.7,1.6-6.3,4.2c-2.4,2.5-3.6,3.5-3.6,5.4c0,1.9-1.2,2-2.6,4.7c-1.3,2.5-0.9,5.8,0.1,7.8H22
					z"/>
			</g>
		</g>
		<g>
			<g>
				<path fill="#FFD93B" d="M14,25.3l-0.7,0.5c0,0-0.2-0.1-0.5,0.1s-1.4,0.1-1.7-0.1c-0.3-0.2-0.2-0.5,0-0.6c0,0,0.1,0,0-0.1
					c-0.2-0.2-0.1-0.5,0.3-0.6c0,0,0,0,0-0.1s-0.2-0.5,0.4-0.7c0,0,0.1,0,0-0.1s-0.1-0.5,0.6-0.6c0.4,0,0.4-0.6,1-0.5
					c0.2,0,0.6,0.6,0.8,0.8s0.2,0.4,0.2,0.4L14,25.3z"/>
			</g>
		</g>
		<g>
			<g>
				<path fill="#89664C" d="M13.2,6.7c0.3,0.8,1.1,3.2,1.8,4.3c0,0-0.6-1.8-0.7-2.6c0,0,0.3,0.2,0.3,0.6c0,0-0.3-1.1-0.5-1.7
					S13.9,6,13.9,6s1.4,2.7,1.4,4.4s0.8,2.4,1.1,3s-0.3,2.2-0.3,2.2s0.8-0.4,0.8-1.5s-0.4-1.9-0.8-2.5C15.8,11,16,10.6,16,10.6
					s-0.2-0.1,0.5,0.7c0.7,0.8,2,1.2,2.2,1.5s0.3,0.4,0.3,0.4c0-1.2-0.6-2.2-1.2-2.7c0,0,1,0.5,1.7,0.7s4,1.6,4.8,2.5
					s0.8,3.9,0.5,4.6s-0.5,1.1-0.4,1.6s0.4,0.8,0.4,0.8s-0.4-0.6-0.2-1.3s0.8-1.1,0.8-1.4c0,0,0.1,0.7-0.2,0.9s-0.4,1.1-0.4,1.1
					s0.3-0.9,0.8-1.2s0.7-1,0.7-1.6s0.4-2-0.7-3c-1.1-1-0.6-2.1-1.3-3.3S23,8.6,22.2,6.7s-1.7-3.8-3.3-4.5s-3.8,0.7-4.3,1.4
					c-0.5,0.7-1.2,1.3-1.4,2.3C13.1,6.2,13.1,6.4,13.2,6.7z"/>
			</g>
		</g>
		<g>
			<g>
				<g>
					<path fill="#59A5E0" d="M23.9,15.8l-0.5,9.8c-0.1,1.3-1.2,2.4-2.5,2.4c-1.9,0-4.5-0.2-7.6-2.1c0,0-0.3-2,1-2.3
						c0,0,1.3,1.2,5.3,0.8l0.4-8.7c0.1-1.2,1.1-2,2.3-1.8c0,0,0,0,0,0C23.3,14,23.9,14.8,23.9,15.8z"/>
				</g>
			</g>
		</g>
	</g>
	<g>
		<g>
			<path fill="#89664C" d="M17.5,9.8c4.6,5.3-0.3,5.5-0.6,7.3c0.3-1.8,5-2.1,0.4-7.1L17.5,9.8z"/>
		</g>
	</g>
</g>
</svg>
