<?xml version="1.0" encoding="utf-8"?>
<!-- Generator: Adobe Illustrator 18.0.0, SVG Export Plug-In . SVG Version: 6.00 Build 0)  -->
<!DOCTYPE svg PUBLIC "-//W3C//DTD SVG 1.1//EN" "http://www.w3.org/Graphics/SVG/1.1/DTD/svg11.dtd">
<svg version="1.1" id="Layer_1" xmlns="http://www.w3.org/2000/svg" xmlns:xlink="http://www.w3.org/1999/xlink" x="0px" y="0px"
	 viewBox="0 0 36 36" enable-background="new 0 0 36 36" xml:space="preserve">
<g>
	<g>
		<g>
			<path fill="#59A5E0" d="M5.9,8.2c-0.4,0-0.7-0.3-0.7-0.7c0-2.7,8-3.4,12.8-3.4c4.8,0,12.8,0.7,12.8,3.4c0,0.4-0.3,0.7-0.7,0.7
				s-0.7-0.3-0.7-0.7C29.1,6.8,25,5.5,18,5.5S6.9,6.8,6.7,7.5C6.7,7.9,6.3,8.2,5.9,8.2z"/>
		</g>
	</g>
	<g>
		<g>
			<g>
				<g>
					<g>
						<g>
							<path fill="#F4C534" d="M32.9,20.2c0.1,0.3,0.2,0.7,0.2,1.1c-0.1,1.2-1.2,2.1-2.4,2c-1.2-0.1-2.1-1.2-2-2.4
								c0-0.4,0.2-0.7,0.4-1c-0.5-0.5-0.8-1.3-0.7-2.1c0.1-1.5,1.5-2.7,3-2.6c1.5,0.1,2.7,1.5,2.6,3C33.9,19,33.5,19.7,32.9,20.2z"
								/>
						</g>
					</g>
				</g>
				<g>
					<g>
						<g>
							<path fill="#FFD93B" d="M3.1,20.2c-0.1,0.3-0.2,0.7-0.2,1.1c0.1,1.2,1.2,2.1,2.4,2c1.2-0.1,2.1-1.2,2-2.4
								c0-0.4-0.2-0.7-0.4-1c0.5-0.5,0.8-1.3,0.7-2.1c-0.1-1.5-1.5-2.7-3-2.6c-1.5,0.1-2.7,1.5-2.6,3C2.1,19,2.5,19.7,3.1,20.2z"/>
						</g>
					</g>
				</g>
			</g>
			<g>
				<g>
					<g>
						<g>
							<g>
								<g>
									<g>
										<g>
											<g>
												<g>
													<g>
														<g>
															<g>
																<g>
																	<g>
																		<g>
																			<g>
																				<g>
																					<g>
																						<g>
																							<path fill="#FFD93B" d="M31.3,18.6c0,8.1-6,14.7-13.3,14.7c-7.4,0-13.3-6.6-13.3-14.7
																								c0-8.1,6-14.7,13.3-14.7C25.3,3.9,31.3,10.5,31.3,18.6z"/>
																						</g>
																					</g>
																				</g>
																			</g>
																		</g>
																	</g>
																</g>
															</g>
															<g>
																<g>
																	<g>
																		<path fill="#E18823" d="M19.2,8.2c0,0,0.2-0.3-0.1-0.8c-0.3-0.7-1.2-0.8-1.7-0.3c-0.8,0.6-0.6,1.9,0,2.2
																			C18,9.8,19.1,9.8,19.8,9c0.8-1,0.5-2.2-0.2-3.3c0.2,0.2,0,0.1,0.1,0.1c-0.1-0.1-0.1-0.1-0.2-0.2c0,0,0,0,0,0
																			c-1.3-0.9-2.3,0.2-2.3,0.2c-0.5,0.6-1.4,0.8-2,0.3c-0.6-0.5-0.8-1.4-0.3-2c0.7-1,2.7-1.7,4.5-1
																			c0.6,0.2,1.1,0.5,1.7,1.1c1.3,1.5,1.5,4.4-0.2,5.9c-3,2.7-6.2-1.7-3.5-3.3c0.8-0.5,1.8-0.1,2,0.7
																			C19.4,7.9,19.2,8.2,19.2,8.2z"/>
																	</g>
																</g>
															</g>
															<g>
																<g>
																	<g>
																		<g>
																			<g>
																				<g>
																					<g>
																						<g>
																							<path fill="#F4C534" d="M31.3,18.6c0,8.1-6,14.7-13.3,14.7c-4.2,0-7.9-2.1-10.4-5.5c2.3,2,5.2,3.2,8.3,3.2
																								c7.3,0,13.3-6.6,13.3-14.7c0-3.5-1.1-6.7-2.9-9.2C29.4,9.8,31.3,14,31.3,18.6z"/>
																						</g>
																					</g>
																				</g>
																			</g>
																		</g>
																	</g>
																</g>
															</g>
															<g opacity="0.3">
																<g>
																	<g>
																		<g>
																			<g>
																				<g>
																					<g>
																						<g>
																							<g>
																								<path fill="#FFFFFF" d="M14.2,7.6c0,0.2-0.1,0.4-0.3,0.5c-3.1,1.5-5.4,4.6-6.1,8.3c0,0.3-0.3,0.5-0.6,0.4
																									c-0.2-0.1-0.4-0.3-0.4-0.6c0.7-4,3.3-7.4,6.7-9C13.8,6.9,14.2,7.2,14.2,7.6z"/>
																							</g>
																						</g>
																					</g>
																				</g>
																			</g>
																		</g>
																	</g>
																</g>
															</g>
														</g>
													</g>
												</g>
											</g>
										</g>
									</g>
								</g>
							</g>
						</g>
					</g>
				</g>
			</g>
			<g>
				<g>
					<g>
						<g>
							<g>
								<path fill="#3E4347" d="M24.6,17.8c0,1.2-0.9,2.1-2.1,2.1c-1.2,0-2.1-0.9-2.1-2.1c0-1.2,0.9-2.1,2.1-2.1
									C23.7,15.7,24.6,16.6,24.6,17.8z"/>
							</g>
						</g>
					</g>
					<g>
						<g>
							<g>
								<path fill="#5A5F63" d="M23.7,17.4c-0.1,0.1-0.4,0.1-0.6-0.1c-0.2-0.2-0.2-0.4,0-0.6c0.1-0.1,0.4-0.1,0.6,0.1
									C23.8,17,23.9,17.3,23.7,17.4z"/>
							</g>
						</g>
					</g>
				</g>
				<g>
					<g>
						<g>
							<g>
								<path fill="#3E4347" d="M15.6,17.8c0,1.2-0.9,2.1-2.1,2.1c-1.2,0-2.1-0.9-2.1-2.1c0-1.2,0.9-2.1,2.1-2.1
									C14.7,15.7,15.6,16.6,15.6,17.8z"/>
							</g>
						</g>
					</g>
					<g>
						<g>
							<g>
								<path fill="#5A5F63" d="M14.7,17.4c-0.1,0.1-0.4,0.1-0.6-0.1c-0.2-0.2-0.2-0.4,0-0.6c0.1-0.1,0.4-0.1,0.6,0.1
									C14.8,17,14.8,17.3,14.7,17.4z"/>
							</g>
						</g>
					</g>
				</g>
			</g>
		</g>
	</g>
	<g>
		<g>
			<g>
				
					<path fill="none" stroke="#59A5E0" stroke-width="1.4565" stroke-linecap="round" stroke-linejoin="round" stroke-miterlimit="10" d="
					M30.1,7.4"/>
			</g>
		</g>
		<g>
			<g>
				
					<path fill="none" stroke="#59A5E0" stroke-width="1.5918" stroke-linecap="round" stroke-linejoin="round" stroke-miterlimit="10" d="
					M5.9,7.7"/>
			</g>
		</g>
		<g>
			<g>
				<g>
					<path fill="#59A5E0" d="M18,10.8c-4.8,0-12.8-0.7-12.8-3.4c0-0.4,0.3-0.7,0.7-0.7S6.7,7,6.7,7.4C6.9,8.1,11,9.3,18,9.3
						s11.1-1.2,11.4-1.9c0-0.4,0.3-0.7,0.7-0.7s0.7,0.3,0.7,0.7C30.8,10.1,22.8,10.8,18,10.8z"/>
				</g>
			</g>
		</g>
	</g>
	<g>
		<g>
			<g>
				<g>
					<g>
						<path fill="#E84D88" d="M22,24.2c-0.5-0.1-1.2-0.2-1.8,0c-1.4,0.2-2.8,0.2-4.3,0c-0.6-0.1-1.3-0.1-1.8,0
							c-2.8,0.8-2.7,2.3-2.1,3.6c0.7,1.3,1.5,2.1,3.4,1.6c0.4-0.1,0.8-0.3,1.2-0.5c0.9-0.6,2.1-0.6,3,0c0.4,0.3,0.8,0.4,1.2,0.5
							c1.8,0.5,2.7-0.2,3.4-1.6C24.7,26.5,24.8,25,22,24.2z M14.3,27.9c-0.4,0.1-0.9-0.2-1.1-0.7c-0.2-0.6,0-1.1,0.5-1.3
							C14.9,25.5,15.5,27.5,14.3,27.9z M23,27.1c-0.2,0.5-0.7,0.9-1.1,0.7c-1.2-0.4-0.6-2.4,0.6-2C23,26,23.2,26.6,23,27.1z"/>
					</g>
				</g>
			</g>
			<g>
				<g>
					<g>
						<path fill="#D23F77" d="M20.2,27.7c-0.4,0.7-1.4,1-2.2,1c-0.8,0-1.8-0.3-2.2-1c-0.4-0.7,0.5-2.1,2.2-2.1
							C19.8,25.6,20.7,27,20.2,27.7z"/>
					</g>
				</g>
			</g>
			<g>
				<g>
					<g>
						<g>
							<path fill="#FFFFFF" d="M18,31.6c-1.2,0-2.2-1-2.2-2.2c0-1.2,1-2.2,2.2-2.2c1.2,0,2.2,1,2.2,2.2C20.2,30.6,19.2,31.6,18,31.6
								z M18,27.8c-0.9,0-1.6,0.7-1.6,1.6c0,0.9,0.7,1.6,1.6,1.6c0.9,0,1.6-0.7,1.6-1.6C19.6,28.5,18.9,27.8,18,27.8z"/>
						</g>
					</g>
				</g>
			</g>
			<g>
				<g>
					<g>
						<path fill="#E84D88" d="M19.2,27.6C19,28,18.5,28.2,18,28.2c-0.5,0-1-0.2-1.2-0.6c-0.2-0.4,0.3-1.1,1.2-1.1
							C19,26.5,19.5,27.2,19.2,27.6z"/>
					</g>
				</g>
			</g>
		</g>
	</g>
</g>
</svg>
