<?xml version="1.0" encoding="utf-8"?>
<!-- Generator: Adobe Illustrator 18.0.0, SVG Export Plug-In . SVG Version: 6.00 Build 0)  -->
<!DOCTYPE svg PUBLIC "-//W3C//DTD SVG 1.1//EN" "http://www.w3.org/Graphics/SVG/1.1/DTD/svg11.dtd">
<svg version="1.1" id="Layer_1" xmlns="http://www.w3.org/2000/svg" xmlns:xlink="http://www.w3.org/1999/xlink" x="0px" y="0px"
	 viewBox="0 0 36 36" enable-background="new 0 0 36 36" xml:space="preserve">
<g>
	<g>
		<g>
			<ellipse fill="#F4C534" cx="16.3" cy="20.5" rx="9" ry="10.7"/>
		</g>
	</g>
	<g>
		<g>
			<path fill="#FFD93B" d="M17.8,23.4c0,0.2-0.1,0.4-0.3,0.5c-0.8,0.2-1.6,0.2-2.4,0c-0.2-0.1-0.3-0.3-0.3-0.5
				c0-0.8,0.1-1.4,0.4-1.9c0.1-0.1,0.2-0.2,0.3-0.2c0.5-0.1,1.1-0.1,1.6,0c0.1,0,0.3,0.1,0.3,0.2C17.7,22,17.8,22.6,17.8,23.4z"/>
		</g>
	</g>
	<g>
		<g>
			<g>
				<g>
					<g>
						<path fill="#E9EFF4" d="M25.1,26.1c1,1.6-0.1,3.7-2.1,3.7c0.4,2.4-2.4,3.9-4.2,2.5c-0.9,2.3-4.1,2.3-4.9,0
							c-1.8,1.5-4.6-0.1-4.2-2.5c-2,0-3.1-2.2-2.1-3.7c-1.4-0.7-1.5-2.6-0.2-3.5v-7.4H9v5.5c0,1.4,1.1,2.5,2.5,2.5h9.7
							c1.4,0,2.5-1.1,2.5-2.5v-5.5h1.7v7.4C26.6,23.5,26.5,25.4,25.1,26.1z"/>
					</g>
				</g>
			</g>
		</g>
	</g>
	<g>
		<g>
			<g>
				<g>
					<g>
						<rect x="23.6" y="16" fill="#D3D9DD" width="1.7" height="1.5"/>
					</g>
					<g>
						<rect x="7.3" y="16" fill="#D3D9DD" width="1.7" height="1.5"/>
					</g>
				</g>
			</g>
		</g>
	</g>
	<g>
		<g>
			<path fill="#F4C534" d="M18.5,25.9c-1.5,0.8-3.3,0.8-4.8,0c-0.4-0.2-0.5-0.6-0.2-1l0,0c0.2-0.3,0.5-0.4,0.8-0.2
				c1.1,0.6,2.5,0.6,3.6,0c0.3-0.1,0.6-0.1,0.8,0.2l0,0C18.9,25.2,18.8,25.7,18.5,25.9z"/>
		</g>
	</g>
	<g>
		<g>
			<g>
				<g>
					<path fill="#3E4347" d="M13.7,19.6c0,0.9-0.6,1.6-1.3,1.6c-0.7,0-1.3-0.7-1.3-1.6s0.6-1.6,1.3-1.6C13.1,18,13.7,18.7,13.7,19.6
						z"/>
				</g>
			</g>
			<g>
				<g>
					<path fill="#5A5F63" d="M13.1,18.9c0.1,0.2,0,0.4-0.1,0.5c-0.1,0.1-0.3,0-0.4-0.2c-0.1-0.2,0-0.4,0.1-0.4
						C12.8,18.6,13,18.7,13.1,18.9z"/>
				</g>
			</g>
		</g>
		<g>
			<g>
				<g>
					<path fill="#3E4347" d="M21.6,19.6c0,0.9-0.6,1.6-1.3,1.6c-0.7,0-1.3-0.7-1.3-1.6s0.6-1.6,1.3-1.6C21,18,21.6,18.7,21.6,19.6z"
						/>
				</g>
			</g>
			<g>
				<g>
					<path fill="#5A5F63" d="M21,18.9c0.1,0.2,0,0.4-0.1,0.5c-0.1,0.1-0.3,0-0.4-0.2c-0.1-0.2,0-0.4,0.1-0.4
						C20.7,18.6,20.9,18.7,21,18.9z"/>
				</g>
			</g>
		</g>
	</g>
	<g>
		<g>
			<path fill="#E24B4B" d="M7.9,15.1c0.3-1.9,0.5-3.7,0.9-5.4c1.1-6.2,8-9.6,13.5-6.7c2.2,1.1,4.3,2.6,6.5,4.2l-0.8,1l-5-0.9
				c1.1,1.8,1.7,4.2,2.1,6.9L7.9,15.1z"/>
		</g>
	</g>
	<g>
		<g>
			<path fill="#E9EFF4" d="M25.7,14H6.9c-0.7,0-1.3,0.6-1.3,1.3v0c0,0.7,0.6,1.3,1.3,1.3h18.9c0.7,0,1.3-0.6,1.3-1.3v0
				C27,14.5,26.4,14,25.7,14z"/>
		</g>
	</g>
	<g>
		<g>
			<circle fill="#E9EFF4" cx="28.4" cy="7.7" r="2"/>
		</g>
	</g>
	<g>
		<g>
			<path fill="#DEE4E9" d="M30.4,7.7c0,1.1-0.9,2-2,2c-0.6,0-1.1-0.3-1.5-0.7c0.3,0.1,0.6,0.2,0.9,0.2c1.1,0,2-0.9,2-2
				c0-0.5-0.2-1-0.5-1.3C29.9,6.2,30.4,6.9,30.4,7.7z"/>
		</g>
	</g>
</g>
</svg>
