<?xml version="1.0" encoding="utf-8"?>
<!-- Generator: Adobe Illustrator 18.0.0, SVG Export Plug-In . SVG Version: 6.00 Build 0)  -->
<!DOCTYPE svg PUBLIC "-//W3C//DTD SVG 1.1//EN" "http://www.w3.org/Graphics/SVG/1.1/DTD/svg11.dtd">
<svg version="1.1" id="Layer_1" xmlns="http://www.w3.org/2000/svg" xmlns:xlink="http://www.w3.org/1999/xlink" x="0px" y="0px"
	 viewBox="0 0 36 36" enable-background="new 0 0 36 36" xml:space="preserve">
<g>
	<g>
		<g>
			<g>
				<g>
					<g>
						<g>
							<g>
								<g>
									<g>
										<g>
											<g>
												<g>
													<path fill="#FFDC97" d="M20.7,16.7h-5.4v0.9c0,2.2-0.7,4.4-2,6.2v3.5h9.4v-3.5c-1.3-1.8-2-4-2-6.2V16.7z"/>
												</g>
											</g>
											<g>
												<g>
													<path fill="#E9EFF4" d="M29.7,27.2v3.6c0,1.5-1.2,2.8-2.8,2.8H9.1c-1.5,0-2.8-1.2-2.8-2.8v-3.6c0-1,0.6-2,1.5-2.5
														l6.8-3.5c0,0,0.8,2.8,3.4,2.8c2.5,0,3.4-2.8,3.4-2.8l6.8,3.5C29.1,25.2,29.7,26.2,29.7,27.2z"/>
												</g>
											</g>
											<g>
												<g>
													<g>
														<path fill="#FFE9AB" d="M24,13.6c0,4.9-3.2,6.7-5,7.3c-0.7,0.2-1.4,0.2-2.1,0c-1.7-0.6-5-2.4-5-7.3
															c0-4.2,2.7-7.6,6-7.6C21.3,6.1,24,9.4,24,13.6z"/>
													</g>
												</g>
												<g>
													<g>
														<g>
															
																<ellipse transform="matrix(0.9947 0.1024 -0.1024 0.9947 1.5999 -2.3524)" fill="#FFE9AB" cx="23.7" cy="14.4" rx="1.2" ry="1.8"/>
														</g>
													</g>
													<g>
														<g>
															
																<ellipse transform="matrix(-0.9947 0.1024 -0.1024 -0.9947 25.8476 27.4927)" fill="#FFE9AB" cx="12.2" cy="14.4" rx="1.2" ry="1.8"/>
														</g>
													</g>
												</g>
												<g>
													<g>
														<path fill="#A5856D" d="M23.3,14.6L22.4,10c0,0-3.8,1.8-6.6-0.9c0,0-0.4,1.4-2.1,1.5l-0.9,4.1c-1-1-2.9-10.3,1.4-8.6
															C16.3,1.1,28.4,5.7,23.3,14.6z"/>
													</g>
												</g>
											</g>
										</g>
									</g>
								</g>
							</g>
						</g>
					</g>
				</g>
			</g>
			<g>
				<g>
					<g>
						<path fill="#65B1EF" d="M12.8,21.7c0.1,0.2,0,0.5-0.2,0.6l-4,2.1c-0.2,0.1-0.5,0-0.6-0.2c-0.1-0.2,0-0.5,0.2-0.6l4-2.1
							C12.5,21.4,12.7,21.5,12.8,21.7z"/>
					</g>
					<g>
						<g>
							<path fill="#65B1EF" d="M18.9,26.4l0.8,5.2c0,0.1,0,0.3-0.1,0.4l-1.3,1.3c-0.2,0.2-0.5,0.2-0.6,0l-1.3-1.3
								c-0.1-0.1-0.2-0.2-0.1-0.4l0.9-5.2l-0.9-0.9l1.4-1.4h0.7l1.4,1.4L18.9,26.4z"/>
						</g>
					</g>
					<g>
						<path fill="#65B1EF" d="M28,24.2c-0.1,0.2-0.4,0.3-0.6,0.2l-4-2.1c-0.2-0.1-0.3-0.4-0.2-0.6c0.1-0.2,0.3-0.3,0.6-0.2l4,2.1
							C28,23.7,28.1,24,28,24.2z"/>
					</g>
				</g>
			</g>
		</g>
		<g>
			<g>
				<g>
					<g>
						<path fill="#5A5F63" d="M18,2.4c0,0-6.1,0.7-7.8,1.7C9.8,4.4,9.7,5.1,9.9,5.6l1.3,3.8c0.1,0.4,0.3,0.6,0.6,0.8
							c1.6,0.7,3.9,1.2,6.3,1.2c2.4,0,4.6-0.4,6.3-1.2c0.3-0.1,0.5-0.4,0.6-0.8l1.3-3.8c0.2-0.6,0-1.2-0.4-1.5
							C24.1,3.1,18,2.4,18,2.4z"/>
					</g>
				</g>
				<g>
					<g>
						<path fill="#3E4347" d="M24.8,9.9c0,1.5-3,2.5-6.8,2.5c-3.8,0-6.8-1-6.8-2.5s3-2.7,6.8-2.7C21.8,7.2,24.8,8.4,24.8,9.9z"/>
					</g>
				</g>
				<g>
					<path fill="#FFD93B" d="M18,8.4c3.7,0,6.1,0.7,6.8,1.3c0,0,0,0,0-0.1c0,0,0-0.1,0-0.1C25,8.9,24.6,8.2,24,8
						c-1.8-0.6-4.3-0.8-6-0.8c-1.7,0-4.2,0.2-6,0.8c-0.7,0.2-1.1,1-0.8,1.6c0,0,0,0,0,0c0,0,0,0.1,0,0.1C11.9,9.2,14.3,8.4,18,8.4z"
						/>
				</g>
			</g>
			<g>
				<g>
					<path fill="#FFD93B" d="M19.2,5.1C19.1,5.7,18,6.3,18,6.3s-1.1-0.6-1.2-1.2c-0.1-0.5,0-1.4,0-1.4C17.6,3.6,18,3.2,18,3.2
						s0.4,0.4,1.2,0.5C19.2,3.7,19.3,4.6,19.2,5.1z"/>
				</g>
			</g>
		</g>
	</g>
	<g>
		<g>
			<g>
				<polygon fill="#FFFFFF" points="21.1,20.4 18,24.1 20.1,25.9 21.9,22.5 				"/>
			</g>
		</g>
		<g>
			<g>
				<polygon fill="#FFFFFF" points="14.9,20.4 18,24.1 15.9,25.9 14.1,22.5 				"/>
			</g>
		</g>
	</g>
</g>
</svg>
