<?xml version="1.0" encoding="utf-8"?>
<!-- Generator: Adobe Illustrator 18.0.0, SVG Export Plug-In . SVG Version: 6.00 Build 0)  -->
<!DOCTYPE svg PUBLIC "-//W3C//DTD SVG 1.1//EN" "http://www.w3.org/Graphics/SVG/1.1/DTD/svg11.dtd">
<svg version="1.1" id="Layer_1" xmlns="http://www.w3.org/2000/svg" xmlns:xlink="http://www.w3.org/1999/xlink" x="0px" y="0px"
	 viewBox="0 0 36 36" enable-background="new 0 0 36 36" xml:space="preserve">
<g>
	<g>
		<g>
			<path fill="#FFDC97" d="M20.8,16.2h-5.8v0.9c0,2.4-0.7,4.7-2.1,6.6v3.7h9.9v-3.7c-1.3-1.9-2.1-4.2-2.1-6.6V16.2z"/>
		</g>
	</g>
	<g>
		<g>
			<path fill="#65B1EF" d="M30.4,27.3V31c0,1.6-1.3,3-3,3H8.6c-1.6,0-3-1.3-3-3v-3.8c0-1.1,0.6-2.1,1.6-2.6l7.2-3.7l0,0.1l1.9,2.6
				L18,24l1.7-0.3l1.9-2.6l0-0.1l7.2,3.7C29.8,25.2,30.4,26.2,30.4,27.3z"/>
		</g>
	</g>
	<g>
		<g>
			<g>
				<polygon fill="#3E4347" points="18.8,26.4 19.7,31 18,32.7 16.2,31 17.1,26.4 16.2,25.5 18,24 19.7,25.5 				"/>
			</g>
		</g>
	</g>
	<g>
		<g>
			<g>
				<path fill="#FFE9AB" d="M24.3,12.1c0,5.2-3.4,7.1-5.2,7.7c-0.7,0.2-1.5,0.2-2.3,0c-1.8-0.6-5.2-2.5-5.2-7.7c0-4.4,2.9-8,6.4-8
					C21.5,4.1,24.3,7.7,24.3,12.1z"/>
			</g>
		</g>
		<g>
			<g>
				<g>
					<ellipse transform="matrix(0.9947 0.1024 -0.1024 0.9947 1.4547 -2.3932)" fill="#FFE9AB" cx="24" cy="13" rx="1.2" ry="1.9"/>
				</g>
			</g>
			<g>
				<g>
					
						<ellipse transform="matrix(-0.9947 0.1024 -0.1024 -0.9947 25.04 24.6644)" fill="#FFE9AB" cx="11.9" cy="13" rx="1.2" ry="1.9"/>
				</g>
			</g>
		</g>
		<g>
			<g>
				<path fill="#3E4347" d="M23.6,13.2l-1-4.9c0,0-4,1.9-7-1c0,0-0.4,1.5-2.2,1.6l-0.9,4.3c-1-1.1-3.1-10.9,1.5-9.1
					C16.2-1.1,29,3.8,23.6,13.2z"/>
			</g>
		</g>
	</g>
	<g>
		<g>
			<g>
				<path fill="#FFFFFF" d="M22.3,22.1L20.9,26c-0.1,0.2-0.4,0.3-0.6,0.1L18,24l3.2-4.2l1,2C22.3,22,22.3,22.1,22.3,22.1z"/>
			</g>
			<g>
				<path fill="#FFFFFF" d="M14.7,19.8L18,24l-2.5,2.2c-0.2,0.2-0.5,0.1-0.6-0.1l-1.3-3.9c0-0.1,0-0.2,0-0.3L14.7,19.8z"/>
			</g>
		</g>
	</g>
</g>
</svg>
