<?xml version="1.0" encoding="utf-8"?>
<!-- Generator: Adobe Illustrator 18.0.0, SVG Export Plug-In . SVG Version: 6.00 Build 0)  -->
<!DOCTYPE svg PUBLIC "-//W3C//DTD SVG 1.1//EN" "http://www.w3.org/Graphics/SVG/1.1/DTD/svg11.dtd">
<svg version="1.1" id="Layer_1" xmlns="http://www.w3.org/2000/svg" xmlns:xlink="http://www.w3.org/1999/xlink" x="0px" y="0px"
	 viewBox="0 0 36 36" enable-background="new 0 0 36 36" xml:space="preserve">
<g>
	<g>
		<g>
			<g>
				<g>
					<path fill="#FFDC97" d="M17.2,16.2h-5.8v0.9c0,2.4-0.7,4.7-2.1,6.6v3.7h9.9v-3.7c-1.3-1.9-2.1-4.2-2.1-6.6V16.2z"/>
				</g>
			</g>
			<g>
				<g>
					<path fill="#65B1EF" d="M26.8,27.3v3.8c0,1.6-1.3,2.9-3,2.9H5c-1.6,0-3-1.3-3-2.9v-3.8c0-1.1,0.6-2.1,1.6-2.6l7.2-3.7
						c0,0,0.8,3,3.6,3c2.6,0,3.6-3,3.6-3l7.2,3.7C26.2,25.2,26.8,26.2,26.8,27.3z"/>
				</g>
			</g>
			<g>
				<g>
					<path fill="#CBD6E0" d="M9,22.3l-1.7,0.5l-3.7,1.9c-1,0.5-1.6,1.5-1.6,2.6v3.8C2,32.7,3.3,34,5,34h9.4L9,22.3z"/>
				</g>
				<g>
					<path fill="#CBD6E0" d="M26.8,31.1v-3.8c0-1.1-0.6-2.1-1.6-2.6l-5.5-2.8L14.4,34h9.4C25.5,34,26.8,32.7,26.8,31.1z"/>
				</g>
			</g>
			<g>
				<g>
					<g>
						<path fill="#FFE9AB" d="M20.7,12.1c0,5.2-3.4,7.1-5.2,7.7c-0.7,0.2-1.5,0.2-2.3,0C11.4,19.2,8,17.3,8,12.1c0-4.4,2.9-8,6.4-8
							C17.9,4.1,20.7,7.7,20.7,12.1z"/>
					</g>
				</g>
				<g>
					<g>
						<g>
							
								<ellipse transform="matrix(0.9947 0.1024 -0.1024 0.9947 1.4356 -2.0237)" fill="#FFE9AB" cx="20.4" cy="13" rx="1.2" ry="1.9"/>
						</g>
					</g>
					<g>
						<g>
							
								<ellipse transform="matrix(-0.9947 0.1024 -0.1024 -0.9947 17.8409 25.0301)" fill="#FFE9AB" cx="8.3" cy="13" rx="1.2" ry="1.9"/>
						</g>
					</g>
				</g>
				<g>
					<g>
						<path fill="#3E4347" d="M20,13.2l-1-4.9c0,0-4,1.9-7-1c0,0-0.4,1.5-2.2,1.6l-0.9,4.3c-1-1.1-3.1-10.9,1.5-9.1
							C12.6-1.1,25.4,3.8,20,13.2z"/>
					</g>
				</g>
			</g>
		</g>
		<g>
			<g>
				<g>
					<path fill="#DAE5EF" d="M21.7,23.2l-1.6,0.6l1,0.9c0.2,0.1,0.2,0.4,0,0.5L14.4,34l3.3-14l4.1,2.4C22.1,22.7,22,23.1,21.7,23.2z
						"/>
				</g>
			</g>
			<g>
				<g>
					<path fill="#DAE5EF" d="M7.1,23.2l1.6,0.6l-1,0.9c-0.2,0.1-0.2,0.4,0,0.5l6.8,8.8l-3.3-14L7,22.5C6.7,22.7,6.7,23.1,7.1,23.2z"
						/>
				</g>
			</g>
		</g>
	</g>
	<g>
		<g>
			<g>
				<g>
					<g>
						<path fill="#E9EFF4" d="M29.9,22.7v-4.4h-3.3v4.4c-2.4,0.7-4.1,2.9-4.1,5.5c0,3.2,2.6,5.7,5.8,5.7c3.2,0,5.8-2.6,5.8-5.7
							C34,25.6,32.3,23.4,29.9,22.7z"/>
					</g>
				</g>
				<g>
					<g>
						<rect x="26.6" y="18.3" fill="#DEE4E9" width="3.3" height="0.6"/>
					</g>
				</g>
			</g>
			<g>
				<g>
					<path fill="#E9EFF4" d="M30.5,18c0,0.3-0.2,0.5-0.5,0.5h-3.5c-0.1,0-0.3-0.1-0.4-0.2C26,18.3,26,18.2,26,18
						c0-0.3,0.2-0.5,0.5-0.5H30C30.3,17.5,30.5,17.7,30.5,18z"/>
				</g>
			</g>
		</g>
		<g>
			<g>
				<path fill="#FFD93B" d="M32.9,28.3c0,2.9-2.6,5.1-5.6,4.5c-1.7-0.3-3.1-1.7-3.6-3.4c-0.2-1-0.2-1.9,0.1-2.8
					c0-0.1,0.1-0.2,0.3-0.2h8.2c0.1,0,0.2,0.1,0.3,0.2C32.8,27.1,32.9,27.7,32.9,28.3z"/>
			</g>
		</g>
		<g>
			<g>
				<path fill="#F4C534" d="M27.9,30c0,0.4-0.3,0.7-0.6,0.7s-0.7-0.3-0.7-0.7s0.3-0.6,0.7-0.6S27.9,29.6,27.9,30z"/>
			</g>
		</g>
		<g>
			<g>
				<path fill="#F4C534" d="M27.3,27.3c0,0.3-0.2,0.5-0.5,0.5c-0.3,0-0.5-0.2-0.5-0.5s0.2-0.5,0.5-0.5C27,26.9,27.3,27.1,27.3,27.3z
					"/>
			</g>
		</g>
		<g>
			<g>
				<g>
					<circle fill="#F4C534" cx="29.5" cy="25.8" r="0.3"/>
				</g>
			</g>
			<g>
				<g>
					<path fill="#F4C534" d="M28.4,24.9c0,0.4-0.3,0.6-0.6,0.6s-0.6-0.3-0.6-0.6c0-0.4,0.3-0.6,0.6-0.6S28.4,24.6,28.4,24.9z"/>
				</g>
			</g>
		</g>
		<g>
			<g>
				<path fill="#F4C534" d="M30.8,30.9c0,0.2-0.2,0.4-0.4,0.4c-0.2,0-0.4-0.2-0.4-0.4s0.2-0.4,0.4-0.4
					C30.6,30.6,30.8,30.7,30.8,30.9z"/>
			</g>
		</g>
		<g>
			<g>
				<path fill="#F4C534" d="M29.9,28.4c0,0.4-0.3,0.7-0.7,0.7s-0.7-0.3-0.7-0.7c0-0.4,0.3-0.7,0.7-0.7S29.9,28,29.9,28.4z"/>
			</g>
		</g>
	</g>
</g>
</svg>
