<?xml version="1.0" encoding="utf-8"?>
<!-- Generator: Adobe Illustrator 18.0.0, SVG Export Plug-In . SVG Version: 6.00 Build 0)  -->
<!DOCTYPE svg PUBLIC "-//W3C//DTD SVG 1.1//EN" "http://www.w3.org/Graphics/SVG/1.1/DTD/svg11.dtd">
<svg version="1.1" id="Layer_1" xmlns="http://www.w3.org/2000/svg" xmlns:xlink="http://www.w3.org/1999/xlink" x="0px" y="0px"
	 viewBox="0 0 36 36" enable-background="new 0 0 36 36" xml:space="preserve">
<g>
	<g>
		<g>
			<ellipse fill="#3E4347" cx="9.9" cy="18" rx="3.3" ry="5.7"/>
		</g>
		<g>
			<ellipse fill="#3E4347" cx="18" cy="18" rx="3.3" ry="5.7"/>
		</g>
		<g>
			<g>
				<g>
					<path fill="#FFDC97" d="M17.2,16.2h-5.8v0.9c0,2.4-0.7,4.7-2.1,6.6l0,3.7c0,8.9,9.9,8.9,9.9,0l0-3.7c-1.3-1.9-2.1-4.2-2.1-6.6
						V16.2z"/>
				</g>
			</g>
			<g>
				<g>
					<path fill="#45CBEA" d="M23,26v3.6c-5.8,6-11.5,5.9-17.2,0V26l5.1-5.1h0.4c0.4,1.4,1.6,2.4,3.1,2.4c1.5,0,2.7-1,3.1-2.4h0.4
						L23,26z"/>
				</g>
			</g>
			<g>
				<g>
					<g>
						<path fill="#FFE9AB" d="M20.7,12.1c0,5.2-3.4,7.1-5.2,7.7c-0.7,0.2-1.5,0.2-2.3,0C11.4,19.2,8,17.3,8,12.1c0-4.4,2.9-8,6.4-8
							C17.9,4.1,20.7,7.7,20.7,12.1z"/>
					</g>
				</g>
				<g>
					<g>
						<path fill="#3E4347" d="M19,7.6c-0.5,0.7-0.4,1.7-0.2,2.6s0.5,1.6,0.7,2.5c0.2,1.2,0.3,3.6-0.3,4.6c-0.4,0.7-0.2,4.5,0.2,5.5
							c0.3,0.7,1,1.1,1.7,1.1s1.4-0.6,1.5-1.3c0.2-0.8-0.1-1.6,0-2.4c0.1-0.8,0.7-1.5,1.1-2.2c1-1.7,1.1-3.8,0.4-5.6
							c-0.3-0.7-0.7-1.4-1-2.1c-0.6-1.6-0.4-3.6-1.3-5.1c-0.5-0.9-1.4-1.5-2.4-1.9s-2-0.6-3-0.8c-0.7-0.1-1.4-0.2-2,0.2
							C14,3.1,13.8,3.8,14,4.4c0.2,0.6,0.7,1.1,1.2,1.4c0.5,0.3,1.2,0.5,1.8,0.7"/>
					</g>
				</g>
				<g>
					<path fill="#3E4347" d="M10.6,8c-0.9,1.5-0.3,3.4-0.9,5c-0.3,0.8-0.9,1.5-1.1,2.3c-0.2,0.8,0,1.6,0.3,2.3
						c0.3,0.7,0.7,1.5,0.9,2.2c0.3,0.8,0.4,1.6,0.2,2.3c-0.2,0.8-0.9,1.4-1.7,1.5c-0.2,0-0.4,0-0.5,0c-0.2,0-0.4,0-0.6-0.1
						c-0.3,0-0.6-0.1-0.8-0.2c-0.6-0.3-0.8-1.2-0.6-2c0.2-0.7,0.5-1.4,0.6-2.1c0.2-2-1.8-3.7-1.8-5.8c0-1.8,1.4-3.2,2-4.9
						C6.7,8,6.8,7.2,7,6.5c0.2-0.7,0.4-1.4,0.9-2s1.3-0.9,2-0.7c0.6,0.2,1,0.6,1.4,1c0.5,0.4,1.1,0.7,1.6,0.4"/>
				</g>
				<g>
					<g>
						<path fill="#3E4347" d="M20,13.2l-1-4.9c0,0-3.7,2-6.9-0.5c0,0-0.1,1-1.9,1.1l-1.3,4.4c-1-1.1-3.1-10.9,1.5-9.1
							C12.6-1.1,25.4,3.8,20,13.2z"/>
					</g>
				</g>
			</g>
			<g>
				<g>
					<path fill="#DEE4E9" d="M26.8,27.3V31c0,1.6-1.3,3-3,3H5c-1.6,0-3-1.3-3-3v-3.8c0-1.1,0.6-2.1,1.6-2.6l7.2-3.7l0,0.1L14.3,34
						L18,21.1l0-0.1l7.2,3.7C26.2,25.2,26.8,26.2,26.8,27.3z"/>
				</g>
			</g>
		</g>
	</g>
	<g>
		<g>
			<g>
				<g>
					<g>
						<path fill="#E9EFF4" d="M30.1,23.4v-4.1H27v4.1c-2.2,0.7-3.9,2.7-3.9,5.2c0,3,2.4,5.4,5.4,5.4c3,0,5.4-2.4,5.4-5.4
							C34,26.1,32.4,24.1,30.1,23.4z"/>
					</g>
				</g>
				<g>
					<g>
						<rect x="27" y="19.3" fill="#DEE4E9" width="3.1" height="0.5"/>
					</g>
				</g>
			</g>
			<g>
				<g>
					<path fill="#E9EFF4" d="M30.7,19c0,0.3-0.2,0.5-0.5,0.5h-3.3c-0.1,0-0.3-0.1-0.3-0.1s-0.1-0.2-0.1-0.3c0-0.3,0.2-0.5,0.5-0.5
						h3.3C30.5,18.5,30.7,18.7,30.7,19z"/>
				</g>
			</g>
		</g>
		<g>
			<g>
				<path fill="#FFD93B" d="M33,28.6c0,2.7-2.5,4.8-5.2,4.3c-1.6-0.3-2.9-1.6-3.3-3.2c-0.2-0.9-0.2-1.8,0.1-2.6
					c0-0.1,0.1-0.2,0.2-0.2h7.7c0.1,0,0.2,0.1,0.2,0.2C32.9,27.6,33,28.1,33,28.6z"/>
			</g>
		</g>
		<g>
			<g>
				<path fill="#F4C534" d="M28.2,30.2c0,0.3-0.3,0.6-0.6,0.6S27,30.5,27,30.2s0.3-0.6,0.6-0.6S28.2,29.9,28.2,30.2z"/>
			</g>
		</g>
		<g>
			<g>
				<path fill="#F4C534" d="M27.7,27.7c0,0.3-0.2,0.5-0.5,0.5s-0.5-0.2-0.5-0.5s0.2-0.5,0.5-0.5S27.7,27.5,27.7,27.7z"/>
			</g>
		</g>
		<g>
			<g>
				<g>
					<circle fill="#F4C534" cx="29.7" cy="26.3" r="0.3"/>
				</g>
			</g>
			<g>
				<g>
					<path fill="#F4C534" d="M28.7,25.5c0,0.3-0.3,0.6-0.6,0.6c-0.3,0-0.6-0.3-0.6-0.6c0-0.3,0.3-0.6,0.6-0.6
						C28.4,24.9,28.7,25.1,28.7,25.5z"/>
				</g>
			</g>
		</g>
		<g>
			<g>
				<circle fill="#F4C534" cx="30.6" cy="31.1" r="0.3"/>
			</g>
		</g>
		<g>
			<g>
				<path fill="#F4C534" d="M30.2,28.7c0,0.4-0.3,0.7-0.7,0.7s-0.7-0.3-0.7-0.7s0.3-0.7,0.7-0.7S30.2,28.3,30.2,28.7z"/>
			</g>
		</g>
	</g>
	<g>
		<g>
			<g>
				<path fill="#E9EFF4" d="M21.6,23.1l-2.1,1.5l1.2,1c0.1,0.1,0.1,0.3,0,0.4l-6.3,8l3.3-14l4,2.5C21.8,22.7,21.8,22.9,21.6,23.1z"
					/>
			</g>
		</g>
		<g>
			<g>
				<path fill="#E9EFF4" d="M7.1,23.1l2.1,1.5l-1.2,1c-0.1,0.1-0.1,0.3,0,0.4l6.3,8l-3.3-14l-4,2.5C6.9,22.7,6.9,22.9,7.1,23.1z"/>
			</g>
		</g>
	</g>
</g>
</svg>
