<?xml version="1.0" encoding="utf-8"?>
<!-- Generator: Adobe Illustrator 18.0.0, SVG Export Plug-In . SVG Version: 6.00 Build 0)  -->
<!DOCTYPE svg PUBLIC "-//W3C//DTD SVG 1.1//EN" "http://www.w3.org/Graphics/SVG/1.1/DTD/svg11.dtd">
<svg version="1.1" id="Layer_1" xmlns="http://www.w3.org/2000/svg" xmlns:xlink="http://www.w3.org/1999/xlink" x="0px" y="0px"
	 viewBox="0 0 36 36" enable-background="new 0 0 36 36" xml:space="preserve">
<g>
	<g>
		<g>
			<g>
				<g>
					<g>
						<g>
							<path fill="#FFDC97" d="M20.9,16.1h-5.7V17c0,2.3-0.7,4.6-2.1,6.6v3.7h9.9v-3.7c-1.3-1.9-2.1-4.2-2.1-6.6V16.1z"/>
						</g>
					</g>
					<g>
						<g>
							<path fill="#65B1EF" d="M30.4,27.2v5.6c0,0.6-0.5,1.1-1.1,1.1H6.8c-0.6,0-1.1-0.5-1.1-1.1v-5.6c0-1.1,0.6-2.1,1.6-2.6
								l7.2-3.7c0,0,0.8,3,3.6,3c2.6,0,3.6-3,3.6-3l7.2,3.7C29.8,25.1,30.4,26.1,30.4,27.2z"/>
						</g>
					</g>
					<g>
						<g>
							<path fill="#5A5F63" d="M12.7,22.2L11,22.7l-3.7,1.9c-1,0.5-1.6,1.5-1.6,2.6v5.6c0,0.6,0.5,1.1,1.1,1.1H18L12.7,22.2z"/>
						</g>
						<g>
							<path fill="#5A5F63" d="M30.4,32.8v-5.6c0-1.1-0.6-2.1-1.6-2.6l-5.4-2.8L18,33.9h11.3C29.9,33.9,30.4,33.4,30.4,32.8z"/>
						</g>
					</g>
					<g>
						<g>
							<g>
								<path fill="#FFE9AB" d="M24.4,12.1c0,5.2-3.4,7.1-5.2,7.7c-0.7,0.2-1.5,0.2-2.2,0c-1.8-0.6-5.2-2.5-5.2-7.7
									c0-4.4,2.8-8,6.4-8C21.5,4.1,24.4,7.7,24.4,12.1z"/>
							</g>
						</g>
						<g>
							<g>
								<g>
									
										<ellipse transform="matrix(0.9947 0.1024 -0.1024 0.9947 1.4509 -2.3955)" fill="#FFE9AB" cx="24.1" cy="12.9" rx="1.2" ry="1.9"/>
								</g>
							</g>
							<g>
								<g>
									
										<ellipse transform="matrix(-0.9947 0.1024 -0.1024 -0.9947 25.1411 24.5817)" fill="#FFE9AB" cx="11.9" cy="12.9" rx="1.2" ry="1.9"/>
								</g>
							</g>
						</g>
						<g>
							<g>
								<path fill="#3E4347" d="M23.6,13.2l-1-4.9c0,0-4,1.9-7-1c0,0-0.4,1.5-2.2,1.6l-0.9,4.3c-1-1.1-3-10.9,1.5-9.1
									C16.3-1.1,29,3.8,23.6,13.2z"/>
							</g>
						</g>
					</g>
				</g>
				<g>
					<g>
						<g>
							<path fill="#7B8B92" d="M25.3,23.1l-1.6,0.5l1,0.9c0.1,0.1,0.2,0.4,0,0.5L18,33.9L21.3,20l4.1,2.4
								C25.7,22.6,25.7,23,25.3,23.1z"/>
						</g>
					</g>
					<g>
						<g>
							<path fill="#7B8B92" d="M10.7,23.1l1.6,0.5l-1,0.9c-0.1,0.1-0.2,0.4,0,0.5l6.7,8.8L14.8,20l-4.1,2.4
								C10.4,22.6,10.4,23,10.7,23.1z"/>
						</g>
					</g>
				</g>
			</g>
		</g>
	</g>
	<g>
		<g>
			<path fill="#E9EFF4" d="M27.8,22.9l-1.8,9c-0.1,0.3-0.3,0.5-0.6,0.5H10.6c-0.3,0-0.5-0.2-0.6-0.5l-1.8-9
				c-0.1-0.3,0.2-0.7,0.6-0.7h18.5C27.6,22.2,27.9,22.6,27.8,22.9z"/>
		</g>
	</g>
	<g>
		<g>
			<path fill="#89664C" d="M30.1,34H5.9C5.4,34,5,33.6,5,33.1v0c0-0.5,0.4-0.9,0.9-0.9h24.2c0.5,0,0.9,0.4,0.9,0.9v0
				C31,33.6,30.6,34,30.1,34z"/>
		</g>
	</g>
</g>
</svg>
