<?xml version="1.0" encoding="utf-8"?>
<!-- Generator: Adobe Illustrator 18.0.0, SVG Export Plug-In . SVG Version: 6.00 Build 0)  -->
<!DOCTYPE svg PUBLIC "-//W3C//DTD SVG 1.1//EN" "http://www.w3.org/Graphics/SVG/1.1/DTD/svg11.dtd">
<svg version="1.1" id="Layer_1" xmlns="http://www.w3.org/2000/svg" xmlns:xlink="http://www.w3.org/1999/xlink" x="0px" y="0px"
	 viewBox="0 0 36 36" enable-background="new 0 0 36 36" xml:space="preserve">
<g>
	<g>
		<g>
			<g>
				<g>
					<g>
						<path fill="#A5856D" d="M24.8,10H11.1c-0.3,0.8-0.5,1.7-0.5,2.6v7.4c0,1.3,1.5,2.1,2.6,1.4c3.1-2.2,6.3-2.1,9.6,0.1
							c1.1,0.7,2.6-0.1,2.6-1.4v-7.5C25.3,11.7,25.2,10.8,24.8,10z"/>
					</g>
				</g>
			</g>
			<g>
				<g>
					<g>
						<g>
							<g>
								<g>
									<g>
										<path fill="#FFDC97" d="M20.5,18h-5.1v0.8c0,2.1-0.6,4.2-1.9,5.9v3.3h8.9v-3.3c-1.2-1.7-1.9-3.8-1.9-5.9V18z"/>
									</g>
								</g>
								<g>
									<g>
										<path fill="#E9EFF4" d="M29.1,28v3.4c0,1.5-1.2,2.6-2.6,2.6H9.6c-1.5,0-2.6-1.2-2.6-2.6V28c0-1,0.6-1.9,1.4-2.3l6.4-3.3
											c0,0,0.8,2.7,3.2,2.7c2.4,0,3.2-2.7,3.2-2.7l6.4,3.3C28.5,26.1,29.1,27,29.1,28z"/>
									</g>
								</g>
								<g>
									<g>
										<g>
											<polygon fill="#E24B4B" points="18.8,27.2 19.7,32.3 18,34 16.3,32.3 17.2,27.2 16.3,26.4 17.6,25 18.3,25 19.7,26.4 
																							"/>
										</g>
									</g>
								</g>
								<g>
									<g>
										<g>
											<polygon fill="#FFFFFF" points="20.9,21.5 18,25 20,26.8 21.7,23.5 											"/>
										</g>
									</g>
									<g>
										<g>
											<polygon fill="#FFFFFF" points="15.1,21.5 18,25 16,26.8 14.3,23.5 											"/>
										</g>
									</g>
								</g>
								<g>
									<g>
										<path fill="#3E4347" d="M13.2,23.5l-1.5,0.4l-3.3,1.7C7.5,26.1,6.9,27,6.9,28v3.4c0,1.5,1.2,2.6,2.6,2.6H18L13.2,23.5z"/>
									</g>
									<g>
										<path fill="#3E4347" d="M29.1,31.4V28c0-1-0.6-1.9-1.4-2.3l-4.9-2.5L18,34h8.4C27.9,34,29.1,32.8,29.1,31.4z"/>
									</g>
								</g>
								<g>
									<g>
										<g>
											<path fill="#FFE9AB" d="M23.7,14.7c0,4.6-3,6.3-4.7,6.9c-0.7,0.2-1.4,0.2-2,0c-1.6-0.6-4.7-2.3-4.7-6.9
												c0-4,2.6-7.2,5.7-7.2C21.1,7.5,23.7,10.7,23.7,14.7z"/>
										</g>
									</g>
									<g>
										<g>
											<g>
												
													<ellipse transform="matrix(0.9947 0.1024 -0.1024 0.9947 1.7013 -2.3151)" fill="#FFE9AB" cx="23.4" cy="15.4" rx="1.1" ry="1.7"/>
											</g>
										</g>
										<g>
											<g>
												
													<ellipse transform="matrix(-0.9947 0.1024 -0.1024 -0.9947 26.5819 29.468)" fill="#FFE9AB" cx="12.5" cy="15.4" rx="1.1" ry="1.7"/>
											</g>
										</g>
									</g>
									<g>
										<g>
											<path fill="#A5856D" d="M11.9,9.9c-0.1,2.2,0.7,5.1,1.2,5.7l0.8-3.9c1.6,0,2-1.4,2-1.4c2.7,2.6,6.2,0.9,6.2,0.9l0.9,4.4
												c1.3-2.2,1.4-4.1,0.9-5.7C19.8,10.7,15.8,10.7,11.9,9.9z"/>
										</g>
									</g>
								</g>
							</g>
							<g>
								<g>
									<g>
										<path fill="#5A5F63" d="M24.6,24.4l-1.4,0.5l0.9,0.8c0.1,0.1,0.2,0.3,0,0.5L18,34l2.9-12.5l3.7,2.2
											C24.9,23.9,24.8,24.3,24.6,24.4z"/>
									</g>
								</g>
								<g>
									<g>
										<path fill="#5A5F63" d="M11.4,24.4l1.4,0.5L12,25.7c-0.1,0.1-0.2,0.3,0,0.5l6,7.9l-2.9-12.5l-3.7,2.2
											C11.1,23.9,11.2,24.3,11.4,24.4z"/>
									</g>
								</g>
							</g>
						</g>
					</g>
				</g>
			</g>
		</g>
	</g>
	<g>
		<g>
			<path fill="#5A5F63" d="M17.7,14.2c-6.2,0-10.2-5-9.4-5.9c0.6-1,4.5,1.8,9.4,2c5-0.2,8.8-3,9.4-2C27.9,9.2,24,14.2,17.7,14.2z"/>
		</g>
	</g>
	<g>
		<g>
			<g>
				<path fill="#3E4347" d="M24.2,10.1c0.3-0.1,0.4-0.5,0.3-0.8l-2.6-6.4c-0.3-0.7-1-1-1.5-0.8l-1.7,0.6c-0.4,0.2-0.9,0.1-1.3,0
					l-1.7-0.6c-0.6-0.2-1.3,0.2-1.5,0.8l-2.6,6.4c-0.1,0.3,0,0.6,0.3,0.8C16.1,12.1,20.3,12,24.2,10.1z"/>
			</g>
		</g>
	</g>
	<g>
		<g>
			<path fill="#E24B4B" d="M24.5,9.3c-0.1-0.2-0.1-0.2-0.3-0.6c-3.8,2.3-8.4,1.7-12.6,0l-0.3,0.6c-0.1,0.3,0,0.6,0.3,0.8
				c2,0.9,4.2,1.5,6.4,1.5c2,0,4.1-0.5,6.2-1.5C24.5,9.9,24.6,9.6,24.5,9.3z"/>
		</g>
	</g>
</g>
</svg>
