<?xml version="1.0" encoding="utf-8"?>
<!-- Generator: Adobe Illustrator 18.0.0, SVG Export Plug-In . SVG Version: 6.00 Build 0)  -->
<!DOCTYPE svg PUBLIC "-//W3C//DTD SVG 1.1//EN" "http://www.w3.org/Graphics/SVG/1.1/DTD/svg11.dtd">
<svg version="1.1" id="Layer_1" xmlns="http://www.w3.org/2000/svg" xmlns:xlink="http://www.w3.org/1999/xlink" x="0px" y="0px"
	 viewBox="0 0 36 36" enable-background="new 0 0 36 36" xml:space="preserve">
<g>
	<g>
		<g>
			<g>
				<g>
					<g>
						<g>
							<g>
								<g>
									<path fill="#FFDC97" d="M22.4,16.5h-5.7c0,1.3,0.2,4.2-2,7.3v3.6h9.7v-3.6C22.7,21.4,22.4,19.1,22.4,16.5z"/>
								</g>
							</g>
							<g>
								<g>
									<path fill="#DAE5EF" d="M31.8,27.4v3.7c0,1.6-1.3,2.9-2.9,2.9H10.4c-1.6,0-2.9-1.3-2.9-2.9v-3.7c0-1.1,0.6-2.1,1.6-2.6
										l7.1-3.6c0,0,0.8,3,3.5,3c2.6,0,3.5-3,3.5-3l7.1,3.6C31.2,25.3,31.8,26.3,31.8,27.4z"/>
								</g>
							</g>
							<g>
								<g>
									<path fill="#65B1EF" d="M14.4,22.5l-1.7,0.5L9,24.8c-1,0.5-1.6,1.5-1.6,2.6v3.7c0,1.6,1.3,2.9,2.9,2.9h9.3L14.4,22.5z"/>
								</g>
								<g>
									<path fill="#65B1EF" d="M31.8,31.1v-3.7c0-1.1-0.6-2.1-1.6-2.6l-5.4-2.7L19.6,34h9.3C30.5,34,31.8,32.7,31.8,31.1z"/>
								</g>
							</g>
							<g>
								<g>
									<g>
										<path fill="#FFE9AB" d="M25.9,12.5c0,5.1-3.3,6.9-5.1,7.6c-0.7,0.2-1.5,0.2-2.2,0c-1.8-0.6-5.2-2.5-5.2-7.6
											c0-4.3,2.8-7.9,6.3-7.9C23.1,4.7,25.9,8.2,25.9,12.5z"/>
									</g>
								</g>
								<g>
									<g>
										<g>
											
												<ellipse transform="matrix(0.9947 0.1024 -0.1024 0.9947 1.5008 -2.5475)" fill="#FFE9AB" cx="25.6" cy="13.3" rx="1.2" ry="1.9"/>
										</g>
									</g>
									<g>
										<g>
											
												<ellipse transform="matrix(-0.9947 0.1024 -0.1024 -0.9947 28.5553 25.2276)" fill="#FFE9AB" cx="13.6" cy="13.3" rx="1.2" ry="1.9"/>
										</g>
									</g>
								</g>
							</g>
						</g>
						<g>
							<g>
								<g>
									<path fill="#4E99D2" d="M26.8,23.4l-1.6,0.5l1,0.9c0.1,0.1,0.2,0.4,0,0.5L19.6,34l3.2-13.7l4,2.4
										C27.2,22.9,27.1,23.3,26.8,23.4z"/>
								</g>
							</g>
							<g>
								<g>
									<path fill="#4E99D2" d="M12.4,23.4l1.6,0.5l-1,0.9c-0.1,0.1-0.2,0.4,0,0.5l6.6,8.6l-3.2-13.7l-4,2.4
										C12.1,22.9,12.1,23.3,12.4,23.4z"/>
								</g>
							</g>
						</g>
					</g>
				</g>
			</g>
		</g>
		<g>
			<g>
				<g>
					<path fill="#3E4347" d="M25.6,13.3L25.6,13.3c0.2-0.6,1.9-6.3,0.1-8.3c-0.4-0.4-1.1-0.4-1.6-0.2c-0.1,0-0.1,0.1-0.2,0.1
						c-1.4-4.8-11.2-3.7-11,4c0,0.4,0,0.9,0,1.3c0.3,2.3,0.7,3,0.8,3.1c0.1-0.1,0.8-1.6,0.6-3.7C22.9,12.4,24.1,2.3,25.6,13.3z"/>
				</g>
			</g>
		</g>
	</g>
	<g>
		<g>
			<g>
				<circle fill="#E9EFF4" cx="13.3" cy="22.6" r="2.7"/>
			</g>
		</g>
		<g>
			<g>
				<path fill="#3E4347" d="M12.7,25.7l-7,3.4c-0.3,0.1-0.6,0.1-0.8-0.2l-0.7-1.1c-0.2-0.2-0.1-0.6,0.1-0.8l5.8-5.1L12.7,25.7z"/>
			</g>
		</g>
		<g>
			<g>
				<path fill="#5A5F63" d="M13.3,26.2c-0.3,0.2-0.6,0.1-0.8-0.2l-2.7-4c-0.2-0.3-0.1-0.6,0.2-0.8c0.3-0.2,0.6-0.1,0.8,0.2l2.7,4
					C13.6,25.7,13.5,26,13.3,26.2z"/>
			</g>
			<g>
				<g>
					<g>
						<path fill="#5A5F63" d="M9.6,27.4l-1.9,0.9c-0.1,0-0.2,0-0.2-0.1l-1.7-2.6c-0.1-0.1,0-0.2,0-0.3l1.6-1.4
							c0.1-0.1,0.2-0.1,0.3,0l2,3C9.8,27.3,9.7,27.4,9.6,27.4z"/>
					</g>
				</g>
			</g>
		</g>
	</g>
	<g>
		<g>
			<path fill="#DEE4E9" d="M8.7,32.8v-6.5c0-0.5-0.4-1-1-1c-0.5,0-1,0.4-1,1v6.5H8.7z"/>
		</g>
	</g>
	<g>
		<g>
			<path fill="#5A5F63" d="M8.2,26.3c0,0.3-0.2,0.5-0.5,0.5s-0.5-0.2-0.5-0.5c0-0.2,0.2-0.5,0.5-0.5S8.2,26.1,8.2,26.3z"/>
		</g>
	</g>
	<g>
		<g>
			<path fill="#5A5F63" d="M13.3,33.8H4.4c0-0.8,0.6-1.4,1.4-1.4h6.1C12.6,32.4,13.3,33,13.3,33.8z"/>
		</g>
	</g>
</g>
</svg>
