<?xml version="1.0" encoding="utf-8"?>
<!-- Generator: Adobe Illustrator 18.0.0, SVG Export Plug-In . SVG Version: 6.00 Build 0)  -->
<!DOCTYPE svg PUBLIC "-//W3C//DTD SVG 1.1//EN" "http://www.w3.org/Graphics/SVG/1.1/DTD/svg11.dtd">
<svg version="1.1" id="Layer_1" xmlns="http://www.w3.org/2000/svg" xmlns:xlink="http://www.w3.org/1999/xlink" x="0px" y="0px"
	 viewBox="0 0 36 36" enable-background="new 0 0 36 36" xml:space="preserve">
<g>
	<g>
		<g>
			<g>
				<path fill="#FFD93B" d="M24.8,19.1c0,0-0.6-1.6,0.3-3s2.1-1.7,3.2-1.2c0,0,0.2,0.1,0.8-0.2c0.6-0.3,1.1-0.4,1.5,0.1
					c1.8-0.4,3.1-1.9,3.4-0.7l-0.6,0.3c0,0,0.3,0.1,0.3,0.4l-1.4,0.5c0,0,0.2,0.2,0.2,0.5l-1.2,0.2c0,0-1.9,0.6-2.5,0.7
					c-0.6,0.1-0.8,0.3-0.9,0.6C27.8,17.6,28,19,28,19L24.8,19.1z"/>
			</g>
		</g>
		<g>
			<g>
				<g>
					<g>
						<g>
							<g>
								<path fill="#FFD93B" d="M20.3,13.2c-0.2,1-0.8,1.6-1.4,1.5s-0.8-1-0.6-2s0.8-1.6,1.4-1.5S20.5,12.2,20.3,13.2z"/>
							</g>
						</g>
						<g>
							<g>
								<path fill="#FFD93B" d="M7.6,13.2c0.2,1,0.8,1.6,1.4,1.5s0.8-1,0.6-2s-0.8-1.6-1.4-1.5S7.4,12.2,7.6,13.2z"/>
							</g>
						</g>
					</g>
					<g>
						<g>
							<g>
								<g>
									<path fill="#F4C534" d="M16.5,15.7h-5.1c-0.6,4.4-2.9,6.4-5.3,9.1v3.8h15.8v-3.8C19.4,22.2,17.1,20.1,16.5,15.7z"/>
								</g>
							</g>
							<g>
								<g>
									<ellipse fill="#FFD93B" cx="13.9" cy="11.9" rx="5.6" ry="6.6"/>
								</g>
							</g>
						</g>
						<g>
							<g>
								<g>
									<g>
										<g>
											<g>
												<g>
													<circle fill="#3E4347" cx="11.4" cy="12" r="0.8"/>
												</g>
											</g>
											<g>
												<g>
													<path fill="#5A5F63" d="M11.9,12c-0.1,0-0.2,0-0.3-0.1c-0.1-0.1-0.1-0.2,0-0.3c0.1,0,0.2,0,0.3,0.1
														C12,11.8,12,12,11.9,12z"/>
												</g>
											</g>
										</g>
										<g>
											<g>
												<g>
													<circle fill="#3E4347" cx="16.5" cy="12" r="0.8"/>
												</g>
											</g>
											<g>
												<g>
													<path fill="#5A5F63" d="M16.9,12c-0.1,0-0.2,0-0.3-0.1c-0.1-0.1-0.1-0.2,0-0.3c0.1,0,0.2,0,0.3,0.1
														C17,11.8,17,12,16.9,12z"/>
												</g>
											</g>
										</g>
									</g>
									<g>
										<g>
											<path fill="#E9B02C" d="M13.1,14c0,0.1,0,0.1,0.1,0.2c0.2,0.3,0.6,0.5,0.7,0.6c0.1,0,0.1,0,0.2,0
												c0.2-0.1,0.5-0.3,0.7-0.6c0-0.1,0.1-0.1,0.1-0.2H13.1z"/>
										</g>
									</g>
								</g>
								<g>
									<g>
										<path fill="#3E4347" d="M12.1,15.9c0.3,0.7,1,1.3,1.9,1.3c0.8,0,1.6-0.5,1.9-1.3H12.1z"/>
									</g>
								</g>
							</g>
						</g>
					</g>
					<g>
						<g>
							<g>
								<g>
									<path fill="#89664C" d="M19.4,13.3h-0.3l-0.4-2.8c-0.3-2.4-3-3.7-5.1-2.5C12.2,8.8,10.8,9.8,9,9c0,1.1-0.4,4.2-0.4,4.2H8.3
										c-3-8.9,1.5-9.5,1.5-9.5s3-3.6,8.1-0.3C23,6.7,19.4,13.3,19.4,13.3z"/>
								</g>
							</g>
						</g>
					</g>
				</g>
			</g>
			<g>
				<g>
					<g>
						<g>
							<path fill="#8CC63E" d="M23.3,34c0-2.4-0.5-7.8-1.1-10.2h2.5l0.2-1c-1.6-3-3.8-3.3-7.2-3.3c0,2-3.7,3.7-3.7,3.7
								s-3.7-1.7-3.7-3.7c-2.4,0-6.7-0.1-7.4,4.6C2.4,27.3,2.1,30.8,2,34H23.3z"/>
						</g>
					</g>
				</g>
				<g>
					<g>
						<g>
							<path fill="#8CC63E" d="M28.3,26.5c0.9,0.6,1.1,1.8,0.5,2.7c-0.5,0.8-1.6,1.1-2.4,0.6l0,0c-2.1-1-4.6-5-6.4-5.7
								c-1.5-0.6,0.9,2-0.3,1.2l0,0c-1.1-0.8-1.4-2.3-0.7-3.5c0.8-1.1,3-1.5,4.3-1C24,21.1,26.7,25.4,28.3,26.5z"/>
						</g>
					</g>
				</g>
				<g>
					<g>
						<g>
							<path fill="#8CC63E" d="M25.5,28.4l-1-9.6l3.7-0.6l1,9.6C29.7,30.2,25.9,30.8,25.5,28.4z"/>
						</g>
					</g>
				</g>
				<g>
					<g>
						<path fill="#719D34" d="M24.9,22.8c0,0,0.2,2.8,1.6,4.4C26.5,27.2,24.7,26.7,24.9,22.8z"/>
					</g>
				</g>
			</g>
		</g>
	</g>
</g>
</svg>
