<?xml version="1.0" encoding="utf-8"?>
<!-- Generator: Adobe Illustrator 18.0.0, SVG Export Plug-In . SVG Version: 6.00 Build 0)  -->
<!DOCTYPE svg PUBLIC "-//W3C//DTD SVG 1.1//EN" "http://www.w3.org/Graphics/SVG/1.1/DTD/svg11.dtd">
<svg version="1.1" id="Layer_1" xmlns="http://www.w3.org/2000/svg" xmlns:xlink="http://www.w3.org/1999/xlink" x="0px" y="0px"
	 viewBox="0 0 36 36" enable-background="new 0 0 36 36" xml:space="preserve">
<g>
	<g>
		<g>
			<g>
				<g>
					<path fill="#FFD93B" d="M10.4,13.1c0,0-0.3,0.6-0.4,1.2c-0.1,0.6-0.1,1.5-0.4,2.3c-0.2,0.8-1.6,1.6-1.9,2
						c-0.4,0.4-0.5,1.1-0.5,1.1l-3.8-0.2c0.3-0.6,0.2-1.2,0-2.6s0.4-2.9,0.5-3.3c0.1-0.4,0.4-2.2,0.6-2.8c0.2-0.6,0.8-0.9,0.8-0.2
						c0.1,0.7-0.1,2.8-0.1,2.8l0.1-0.1c0-1,0.6-2.9,0.8-3.5c0.4-0.9,0.9-0.4,0.9-0.1c0-0.5,0.2-0.9,0.6-0.8c0.5,0.1,0.4,1.3,0.4,1.3
						c0.1-0.6,0.8-0.8,1,0.1c0.1,0.9-0.2,3.5-0.2,3.6C9.6,12.4,10.4,13.1,10.4,13.1z"/>
				</g>
			</g>
			<g>
				<g>
					<g>
						<g>
							<g>
								<g>
									<g>
										<path fill="#F4C534" d="M17.6,15.5h6.3c0.4,3.1,1.7,5.9,3.8,8.2l2.6,2.9v4.7H11.1v-4.7l2.6-2.9
											C15.8,21.5,17.2,18.6,17.6,15.5z"/>
									</g>
								</g>
							</g>
						</g>
					</g>
				</g>
				<g>
					<g>
						<g>
							<g>
								<path fill="#38C0DC" d="M10.6,25.4C10,27.9,9.4,30.8,9.3,34H34c-0.4-8.3-0.6-13.9-8.8-13.9c0,2.5-4.5,4.5-4.5,4.5
									s-4.5-2-4.5-4.5c-4.2,0-6.8,0.3-8.8,4l0.2,1.2H10.6z"/>
							</g>
						</g>
					</g>
					<g>
						<g>
							<g>
								<path fill="#38C0DC" d="M3.2,28.6c-1.1,0.7-1.4,2.2-0.6,3.3c0.7,1,2,1.3,3,0.8l0.1,0c2.5-1.3,5.6-6.1,7.8-7
									c1.8-0.8-1.1,2.5,0.4,1.5l0,0c1.4-0.9,1.8-2.8,0.8-4.2c-0.9-1.4-3.6-1.9-5.2-1.2C8.4,22.1,5.1,27.3,3.2,28.6z"/>
							</g>
						</g>
					</g>
					<g>
						<g>
							<g>
								<path fill="#38C0DC" d="M3.9,32.9c0.3,0,0.6,0,0.8,0c0.9-0.2,1.7-0.9,1.8-1.9l1.3-11.8l-4.5-0.8L2,30.2
									C1.8,31.5,2.7,32.6,3.9,32.9z"/>
							</g>
						</g>
					</g>
					<g>
						<g>
							<path fill="#2AB4CD" d="M7.3,24.1c0,0-0.3,3.4-2,5.4C5.3,29.5,7.6,29,7.3,24.1z"/>
						</g>
					</g>
				</g>
			</g>
		</g>
	</g>
	<g>
		<g>
			<g>
				<path fill="#FFD93B" d="M26.2,11.3c0-0.7-0.1-1.5-0.3-2.2c-0.3-0.7-0.7-1.4-1.3-1.8c-0.6-0.5-1.3-0.9-2-1.1
					c-0.7-0.1-1.5-0.2-2.2-0.3c-0.9-0.1-1.6-0.2-2.5,0.2c-1.4,0.6-1.9,2.1-2.2,3.5c-0.3,1.3-0.7,2.8-0.3,4.1c0,3.8,2.3,6.9,5.2,6.9
					c2.8,0,5-2.9,5.2-6.6c0.1-0.1,0.2-0.3,0.2-0.5C26.1,12.8,26.2,12,26.2,11.3z"/>
			</g>
			<g>
				<g>
					<g>
						
							<ellipse transform="matrix(0.9888 0.1495 -0.1495 0.9888 2.3359 -3.7075)" fill="#FFD93B" cx="25.8" cy="13.7" rx="1.3" ry="2.2"/>
					</g>
				</g>
				<g>
					<g>
						
							<ellipse transform="matrix(-0.9888 0.1495 -0.1495 -0.9888 32.1514 24.946)" fill="#FFD93B" cx="15.1" cy="13.7" rx="1.3" ry="2.2"/>
					</g>
				</g>
			</g>
			<g>
				<g>
					<path fill="#5A5F63" d="M15.5,14.8c0,0-0.5-2.3,0.1-3.6s1.2-1.9,0.7-3.4c0,0,5.3,1.2,7.9-0.2c1.4-0.8,1.8,5.6,1.2,7.3
						c0,0,2.7-3.9,1.4-8.8s-8.9-5.4-11-0.9C15.8,5.1,12,4.2,15.5,14.8z"/>
				</g>
			</g>
		</g>
	</g>
</g>
</svg>
