<?xml version="1.0" encoding="utf-8"?>
<!-- Generator: Adobe Illustrator 18.0.0, SVG Export Plug-In . SVG Version: 6.00 Build 0)  -->
<!DOCTYPE svg PUBLIC "-//W3C//DTD SVG 1.1//EN" "http://www.w3.org/Graphics/SVG/1.1/DTD/svg11.dtd">
<svg version="1.1" id="Layer_1" xmlns="http://www.w3.org/2000/svg" xmlns:xlink="http://www.w3.org/1999/xlink" x="0px" y="0px"
	 viewBox="0 0 36 36" enable-background="new 0 0 36 36" xml:space="preserve">
<g>
	<g>
		<g>
			<g>
				<path fill="#E24B4B" d="M30.8,34H5.2c-2,0-3.3-1.9-2.7-3.8L5,23c0.4-1.1,1.5-1.9,2.7-1.9h20.6c1.2,0,2.3,0.8,2.7,1.9l2.5,7.2
					C34.1,32.1,32.8,34,30.8,34z"/>
			</g>
		</g>
		<g>
			<g>
				<g>
					<g>
						<g>
							<path fill="#FFD93B" d="M24.3,11.2c-5.1-3.2-9.8-4.1-13.7,0c-0.1,1.1,0.3,2.1,1,2.9c-0.5,1.3-0.9,2.8-0.9,4.3
								c0,5,3.2,9.1,7.1,9.1c3.9,0,7.1-4.1,7.1-9.1c0-0.9-0.1-1.7-0.3-2.5C25.5,14.5,25.4,12.5,24.3,11.2z"/>
						</g>
					</g>
					<g>
						<g>
							<g>
								<path fill="#FFD93B" d="M26.6,19.5c-0.2,1.5-1,2.5-2,2.3c-0.9-0.2-1.6-1.6-1.4-3c0.1-1.5,1-2.5,2-2.3
									C26.1,16.6,26.8,18,26.6,19.5z"/>
							</g>
						</g>
						<g>
							<g>
								<path fill="#FFD93B" d="M12.6,19.5c-0.2,1.5-1,2.5-2,2.3c-0.9-0.2-1.6-1.6-1.4-3c0.1-1.5,1-2.5,2-2.3
									C12.1,16.6,12.8,18,12.6,19.5z"/>
							</g>
						</g>
					</g>
				</g>
			</g>
			<g>
				<g>
					<path fill="#89664C" d="M24.9,20.7h-0.4v-3.1c-10,0-7-4.2-11.9-3.4c1.2,3.2-1.4,1.7-1.4,6.6h-0.4c-3.8-11.6,2-12.4,2-12.4
						s3.9-4.7,10.5-0.4C30,12.2,24.9,20.7,24.9,20.7z"/>
				</g>
			</g>
		</g>
		<g>
			<g>
				<g>
					<g>
						<path fill="#FFD93B" d="M17.4,33.1c-0.1,1-1.1,0.9-1.1,0.9H9.2l1.5-4.5C15.7,32,14.5,31.3,17.4,33.1z"/>
					</g>
				</g>
				<g>
					<g>
						<path fill="#BF3333" d="M7.2,27.5l0.2-0.7l4.1,3.1C10.4,29.4,11.2,29.8,7.2,27.5z"/>
					</g>
				</g>
			</g>
			<g>
				<g>
					<g>
						<path fill="#FFD93B" d="M18.6,33.1c0.1,1,1.1,0.9,1.1,0.9h7.1l-1.5-4.5C20.3,32,21.5,31.3,18.6,33.1z"/>
					</g>
				</g>
				<g>
					<g>
						<path fill="#BF3333" d="M28.8,27.5l-0.2-0.7l-4.1,3.1C25.6,29.4,24.8,29.8,28.8,27.5z"/>
					</g>
				</g>
			</g>
		</g>
	</g>
	<g>
		<g>
			<g>
				<path fill="#FFD93B" d="M18.4,4.9c-0.2,0.3-0.7,0.3-0.9,0c-0.4-0.5-0.8-2.3-0.8-2.3C16.7,2.3,16.9,2,17.2,2h1.6
					c0.3,0,0.5,0.3,0.4,0.6C19.2,2.6,18.8,4.4,18.4,4.9z"/>
			</g>
		</g>
		<g>
			<g>
				<g>
					<path fill="#FFD93B" d="M22.6,6.6c-0.3,0-0.7-0.3-0.6-0.6C22,5.4,23,3.8,23,3.8c0.1-0.3,0.5-0.3,0.7-0.1l1.1,1.1
						C25.1,5,25,5.4,24.7,5.6C24.7,5.6,23.2,6.6,22.6,6.6z"/>
				</g>
			</g>
			<g>
				<g>
					<path fill="#FFD93B" d="M13.3,6.6c0.3,0,0.7-0.3,0.6-0.6c-0.1-0.6-1.1-2.2-1.1-2.2c-0.1-0.3-0.5-0.3-0.7-0.1L11,4.8
						c-0.2,0.2-0.2,0.6,0.1,0.7C11.1,5.6,12.7,6.6,13.3,6.6z"/>
				</g>
			</g>
		</g>
	</g>
</g>
</svg>
