<?xml version="1.0" encoding="utf-8"?>
<!-- Generator: Adobe Illustrator 18.0.0, SVG Export Plug-In . SVG Version: 6.00 Build 0)  -->
<!DOCTYPE svg PUBLIC "-//W3C//DTD SVG 1.1//EN" "http://www.w3.org/Graphics/SVG/1.1/DTD/svg11.dtd">
<svg version="1.1" id="Layer_1" xmlns="http://www.w3.org/2000/svg" xmlns:xlink="http://www.w3.org/1999/xlink" x="0px" y="0px"
	 viewBox="0 0 36 36" enable-background="new 0 0 36 36" xml:space="preserve">
<g>
	<g>
		<g>
			<g>
				<g>
					<g>
						<path fill="#F4C534" d="M20.7,17.4h-5.4v0.8c0,2.2-0.7,4.4-2,6.2V28h9.3v-3.5c-1.3-1.8-1.9-4-1.9-6.2V17.4z"/>
					</g>
				</g>
				<g>
					<g>
						<path fill="#DAE5EF" d="M30.7,34v-5.6c0-1.1-0.6-2.2-1.7-2.7L21.7,22c-0.7,2.3-1.9,4.1-3.7,5.4c-2.3-1.5-3.7-3.2-3.7-5.4
							l-7.4,3.8c-1,0.5-1.7,1.6-1.7,2.7V34H30.7z"/>
					</g>
				</g>
				<g>
					<g>
						<g>
							<path fill="#E24B4B" d="M18.6,27.5c0,1,1.3,0.6,0.9,2.6c0.6,0.1,0.9-0.4,1.2-0.9c1.1-2.1-1.2-1.9-2.2-2.5"/>
						</g>
					</g>
					<g>
						<g>
							<path fill="#E24B4B" d="M17.3,27.5c-0.1,0.2-0.3,0.4-0.5,0.5c-0.7,0.3-1.1,0.4-1.3,1.6c-0.6-0.1-0.7-0.8-0.7-1.3
								c-0.1-2.4,1.9-1.4,3-1.4"/>
						</g>
					</g>
				</g>
				<g>
					<g>
						<g>
							<path fill="#FFD93B" d="M24,13.7c0,4.9-3.2,6.7-4.9,7.3c-0.7,0.2-1.4,0.2-2.1,0c-1.7-0.6-4.9-2.4-4.9-7.3
								c0-4.2,2.7-7.5,6-7.5C21.3,6.1,24,9.5,24,13.7z"/>
						</g>
					</g>
					<g>
						<g>
							<g>
								
									<ellipse transform="matrix(0.9947 0.1024 -0.1024 0.9947 1.6029 -2.3491)" fill="#FFD93B" cx="23.7" cy="14.4" rx="1.2" ry="1.8"/>
							</g>
						</g>
						<g>
							<g>
								
									<ellipse transform="matrix(-0.9947 0.1024 -0.1024 -0.9947 25.9117 27.5503)" fill="#FFD93B" cx="12.2" cy="14.4" rx="1.2" ry="1.8"/>
							</g>
						</g>
					</g>
					<g>
						<g>
							<path fill="#3E4347" d="M23.2,15.6l-0.6-4.2c-0.1-0.7-0.8-0.8-1.5-0.8c-2.2,0.1-4.3-0.2-6.3,0.5c-0.6,0.2-1.3,0.2-1.5,0.8
								l-0.6,3.7c-1-1-2.9-11.2,1.4-9.5c1.8-4.1,10.7-1.5,10.4,4.6C24.4,11.9,24.1,14.2,23.2,15.6z"/>
						</g>
					</g>
				</g>
			</g>
		</g>
		<g>
			<g>
				<g>
					<path fill="#E24B4B" d="M24.1,23.4C21,27.5,18,26.9,18,26.9c3-3.7,3-5.9,3-5.9C21.4,20.7,24.5,22.9,24.1,23.4z"/>
				</g>
			</g>
			<g>
				<g>
					<path fill="#E24B4B" d="M12,23.3c3.1,4.2,6,3.6,6,3.6c-3-3.7-3-5.9-3-5.9C14.6,20.7,11.6,22.9,12,23.3z"/>
				</g>
			</g>
		</g>
		<g>
			<g>
				<path fill="#D03F3F" d="M18.9,25.8l-0.1,1.7c0,0.5-1.5,0.5-1.5,0l-0.1-1.7C17.1,25.4,18.9,25.4,18.9,25.8z"/>
			</g>
		</g>
	</g>
	<g>
		<g>
			<path fill="#CBD6E0" d="M24.9,8.9c-0.1-3.8-3.2-6.9-7-6.9c-3.8,0-6.9,3.1-7,6.9H24.9z"/>
		</g>
	</g>
	<g>
		<g>
			<path fill="#DAE5EF" d="M26.5,8.5c-0.6,1.2-1.3,2.3-1.9,3.5c-0.2,0.3-0.6,0.5-1,0.3c-3.6-1.7-7.7-1.7-11.3,0
				c-0.4,0.2-0.8,0-1-0.3c-0.6-1.2-1.3-2.3-1.9-3.5c-0.2-0.4-0.1-0.8,0.3-1c5.2-2.6,11.3-2.6,16.5,0C26.5,7.7,26.7,8.2,26.5,8.5z"/>
		</g>
	</g>
	<g>
		<g>
			<path fill="#428DC3" d="M19.2,8.3c0-0.1-0.1-0.2-0.3-0.2c-0.1,0-0.2,0.1-0.2,0.3c0,0.2-0.2,0.5-0.5,0.7V7.7
				c0.3-0.1,0.4-0.3,0.4-0.6c0-0.4-0.3-0.7-0.7-0.7s-0.7,0.3-0.7,0.7c0,0.3,0.2,0.5,0.4,0.6v1.4c-0.3-0.2-0.6-0.5-0.5-0.7
				c0-0.1-0.1-0.3-0.2-0.3c-0.1,0-0.3,0.1-0.3,0.2c-0.1,0.8,1,1.4,1.1,1.5c0,0,0.1,0,0.1,0c0,0,0.1,0,0.1,0
				C18.2,9.7,19.3,9,19.2,8.3z M17.9,6.9c0.1,0,0.2,0.1,0.2,0.2c0,0.1-0.1,0.2-0.2,0.2s-0.2-0.1-0.2-0.2C17.7,7,17.8,6.9,17.9,6.9z"
				/>
		</g>
	</g>
</g>
</svg>
