<?xml version="1.0" encoding="utf-8"?>
<!-- Generator: Adobe Illustrator 18.0.0, SVG Export Plug-In . SVG Version: 6.00 Build 0)  -->
<!DOCTYPE svg PUBLIC "-//W3C//DTD SVG 1.1//EN" "http://www.w3.org/Graphics/SVG/1.1/DTD/svg11.dtd">
<svg version="1.1" id="Layer_1" xmlns="http://www.w3.org/2000/svg" xmlns:xlink="http://www.w3.org/1999/xlink" x="0px" y="0px"
	 viewBox="0 0 36 36" enable-background="new 0 0 36 36" xml:space="preserve">
<g>
	<g>
		<g>
			<g>
				<path fill="#FFD93B" d="M18.5,25.1c0,0,0.3-0.4,0.3-0.4s1,0.8,1.2,1.2c0.2,0.5,0.2,0.8,0.2,0.8c0,0-0.5,0.3-0.7,0.1
					c-0.2-0.2-1.1-1.4-1.1-1.4"/>
			</g>
		</g>
		<g>
			<g>
				<path fill="#FFD93B" d="M20.3,34v-7c0,0-0.9-0.8-1.6-2.4c-0.7-1.6,1.3-3.9,1.8-4.1c0.5-0.2,2.4,0.1,3.3-0.6
					c0.9-0.7-0.1-1.8-0.1-2.2c0-0.3,0.3-0.4,0.5-0.5c0.1-0.1,0.2-0.2,0.2-0.3c0-0.1,0-0.3-0.2-0.4c-0.5-0.2-0.4-0.5-0.4-0.5
					s0-0.5,0.6-0.7c0.5-0.1-0.3-1-0.1-1.3c0.2-0.3,0.8-0.4,1-0.9c0.2-0.4-0.6-1.1-1.2-1.8c-0.6-0.7-0.7-1-0.7-1.9
					c-0.1-0.9-1.7-4.1-1.7-4.1s-5.8,1.2-7.3,3.6c-1.5,2.5-1,8.2-1,8.2s-0.4,2.9-0.4,3.3c-0.1,0.4-0.5,0.8-0.5,0.8
					c-0.2,1.1-1.8,3.4-1.8,3.4L9.4,34H20.3z"/>
			</g>
		</g>
		<g>
			<path fill="#F4C534" d="M16.2,16.3c0,0,0.6,1.3,1.9,2.6c1.2,1.1,2.8,1.7,4.5,1.4c0.4-0.1,0.7-0.1,1-0.3c0,0,0,0,0.1,0l0,0
				C23.7,20,20.8,19.9,16.2,16.3z"/>
		</g>
		<g>
			<g>
				<path fill="#3E4347" d="M18.8,15.4c0-0.3-0.1-0.6-0.3-0.8c-0.1-0.1-0.1-0.3,0-0.6c0.2-0.7,0.1-2.3,0.1-2.3s2.5-2.8,1.5-4.9
					c0,0,2.8,0.3,2.5-1.6c-0.2-2-1.6-2.5-1.6-2.5s0.4,0.3,0.5,0.6c0,0-0.6-0.7-1.6-1.1c-1-0.4-1.7,0-1.7,0s0.3,0,0.5,0.2
					c0,0-0.7,0.6-1.4,0.7c-0.7,0.1-4.6,0.3-6.5,1.8s-2.3,3.7-2.2,5.3c0,1.6,1.2,4.5,2.5,6.8s1.6,3.9,1.2,4.4c0,0,0.7-0.3,0.9-0.9
					c0,0,0.9,0.2,1.2,0c0.4-0.2,0.5-0.8,0.5-0.8s-0.4,0.1-0.8-0.1c-0.3-0.2,0-0.6,0-0.6s0.5,0.7,1.7,0.5c0,0-1.2,0.1-1.1-0.8
					c0,0,2.5-0.3,2.8-1.8c0,0-0.6,1-1.4,0.9c0,0,0.9-0.5,1.1-1.2c0.2-0.7,0.6-0.3,0.6-0.3s-0.2-0.4-0.9,0c-0.7,0.4-2.2-0.3-2.4-1.6
					c-0.2-1.3,0.5-1.8,0.5-1.8S14.9,13.4,15,14c0,0,0.2-1,0.8-1.4c0,0-0.1,0.3-0.1,0.7c0,0,0.7-0.7,1.3-0.8c0,0,0.5,1.6,1.1,2
					C18.7,14.8,18.8,15.4,18.8,15.4L18.8,15.4z"/>
			</g>
		</g>
		<g>
			<g>
				<path fill="#E84D88" d="M10.4,34c0-0.9,0.2-5.2,1.7-6.8c1.7-1.9,3.1-1.6,4-1.4c0.9,0.2,1.6,1.9,1.8,2.6c0.2,0.7,0.5,5.1,0.6,5.7
					h5.3c0-0.4,0.1-2-0.8-3.5c-1-1.7-2.3-3.5-2.9-4.7c-0.5-1.1-1.5-1.2-1.5-1.2s1.7,2.2,0.2,1.6c-1.4-0.7-2.9-2.5-5-2.9
					c-2.1-0.4-3.5,0.3-3.6,0.5c-2,5.8-2.4,8.8-2.6,10.1H10.4z"/>
			</g>
		</g>
	</g>
	<g>
		<g>
			<g>
				<g>
					<g>
						<path fill="#D3D9DD" d="M25.6,15.2c-0.1,0-0.2-0.1-0.2-0.1c0-0.1,0-0.2,0.1-0.2c0.8-0.2,1.3-0.5,1.6-1
							c0.1-0.1,0.2-0.1,0.2-0.1c0.1,0.1,0.1,0.2,0.1,0.2C27.1,14.6,26.5,14.9,25.6,15.2C25.6,15.2,25.6,15.2,25.6,15.2z"/>
					</g>
				</g>
			</g>
			<g>
				<g>
					<g>
						<path fill="#D3D9DD" d="M27.2,17.9c-0.3-0.5-0.8-0.8-1.6-1c-0.1,0-0.2-0.1-0.1-0.2c0-0.1,0.1-0.2,0.2-0.1
							c0.9,0.2,1.5,0.6,1.8,1.1c0.1,0.1,0,0.2-0.1,0.2C27.3,18,27.2,18,27.2,17.9z"/>
					</g>
				</g>
			</g>
		</g>
		<g>
			<g>
				<g>
					<path fill="#D3D9DD" d="M28,16.1h-2.3c-0.1,0-0.2-0.1-0.2-0.2s0.1-0.2,0.2-0.2H28c0.1,0,0.2,0.1,0.2,0.2S28.1,16.1,28,16.1z"/>
				</g>
			</g>
		</g>
	</g>
</g>
</svg>
