<?xml version="1.0" encoding="utf-8"?>
<!-- Generator: Adobe Illustrator 18.0.0, SVG Export Plug-In . SVG Version: 6.00 Build 0)  -->
<!DOCTYPE svg PUBLIC "-//W3C//DTD SVG 1.1//EN" "http://www.w3.org/Graphics/SVG/1.1/DTD/svg11.dtd">
<svg version="1.1" id="Layer_1" xmlns="http://www.w3.org/2000/svg" xmlns:xlink="http://www.w3.org/1999/xlink" x="0px" y="0px"
	 viewBox="0 0 36 36" enable-background="new 0 0 36 36" xml:space="preserve">
<g>
	<g>
		<g>
			<g>
				<g>
					<g>
						<g>
							<path fill="#F4C534" d="M28.5,24c-0.8-0.8-1.5-1.7-2-2.7c-0.5-0.9-0.8-2-0.9-3h-6.4c-0.3,2.2-1.3,4.2-2.9,5.8
								C16.3,29.6,28.5,29.6,28.5,24z"/>
						</g>
					</g>
					<g>
						<g>
							<g>
								<g>
									
										<ellipse transform="matrix(0.9814 0.1919 -0.1919 0.9814 3.113 -5.1377)" fill="#FFD93B" cx="28.1" cy="13.5" rx="1.2" ry="2"/>
								</g>
								<g>
									
										<ellipse transform="matrix(0.9814 -0.1919 0.1919 0.9814 -2.2797 3.4673)" fill="#FFD93B" cx="16.8" cy="13.5" rx="1.2" ry="2"/>
								</g>
							</g>
						</g>
						<g>
							<g>
								<ellipse fill="#FFD93B" cx="22.4" cy="12.5" rx="5.9" ry="7.6"/>
							</g>
						</g>
						<g>
							<g>
								<path fill="#3E4347" d="M17,13.3L17,13.3c-0.2-1.8,0-3.4,0.9-4.8c0.3-0.4,0.8-0.7,1.3-0.5c1.1,0.2,3.5,0.5,6.4-0.2
									c0.8-0.2,1.5,0.4,1.5,1.1c0.1,1.6,0.2,3.3,0.7,5.1c0,0,1.5-2.6,1.2-5.8C28.7,5,26.3,1.6,21,2S15.2,8.9,17,13.3z"/>
							</g>
						</g>
					</g>
					<g>
						<g>
							<path fill="#E24B4B" d="M34,34v-7.5c0-2-1.2-3.8-3.1-4.6c-2-0.8-4.2-1.6-4.8-1.6c-0.1,2.3-3.7,4.1-3.7,4.1s-3.6-1.8-3.7-4.1
								c-0.6,0.1-2.9,0.9-4.8,1.7c-1.9,0.7-3.1,2.5-3.1,4.5V34H34z"/>
						</g>
					</g>
				</g>
			</g>
		</g>
	</g>
	<g>
		<g>
			<g>
				<g>
					<g>
						<path fill="#89664C" d="M15.1,27.4v-7.9c0-2.8-2.3-5.1-5.1-5.1c-2.8,0-5.1,2.3-5.1,5.1v7.9H15.1z"/>
					</g>
				</g>
				<g>
					<g>
						<g>
							<g>
								<path fill="#F4C534" d="M14.2,28.3c-0.6-0.5-1.1-1.2-1.4-1.9c-0.3-0.7-0.5-1.4-0.6-2.1H7.8c-0.2,1.5-0.9,2.9-2,4
									C5.8,32.2,14.2,32.2,14.2,28.3z"/>
							</g>
						</g>
						<g>
							<g>
								<path fill="#8CC63E" d="M18,34v-3.9c0-1.4-0.9-2.6-2.1-3.1c-1.3-0.5-2.9-1.1-3.3-1.1c-0.1,1.6-2.5,2.8-2.5,2.8
									s-2.5-1.2-2.5-2.8c-0.4,0.1-2,0.6-3.3,1.1C2.9,27.4,2,28.7,2,30.1V34H18z"/>
							</g>
						</g>
					</g>
				</g>
				<g>
					<g>
						<g>
							<ellipse fill="#FFD93B" cx="10" cy="21.8" rx="3.8" ry="4.5"/>
						</g>
					</g>
					<g>
						<g>
							<path fill="#89664C" d="M13.7,22.8h0.2c0,0-0.7-1.3-0.8-2.1c-0.1-0.6-0.5-1.3-1-1.7c0,1-2.5,1-4.3,0.9
								c-0.6,0-1.2,0.5-1.2,1.1c-0.1,0.9-0.5,1.8-0.5,1.8h0.1c-2-6.1,1-6.5,1-6.5s2.1-2.5,5.5-0.2C16.2,18.3,13.7,22.8,13.7,22.8z"
								/>
						</g>
					</g>
				</g>
			</g>
		</g>
		<g>
			<g>
				<path fill="#D23F77" d="M14.5,20c0,0.2,0,0.3,0,0.5c-0.2-2.3-2.2-4.1-4.5-4.1s-4.2,1.8-4.5,4.1c0-0.2,0-0.3,0-0.5
					c0-2.5,2-4.5,4.5-4.5C12.5,15.5,14.5,17.5,14.5,20z"/>
			</g>
		</g>
		<g>
			<g>
				<g>
					<path fill="#FC97B2" d="M13.2,17.2c-0.2,0.4-1,0.3-1.3,0.2c-0.3-0.1-0.3-0.5-0.1-0.9c0.1-0.4,0.3-0.8,0.7-0.7
						C12.8,16,13.4,16.8,13.2,17.2z"/>
				</g>
			</g>
			<g>
				<g>
					<path fill="#FC97B2" d="M13.2,17.3c0.2-0.4,1.1-0.2,1.4,0.2c0.3,0.4,0.1,0.7-0.2,1c-0.3,0.3-0.6,0.5-0.8,0.2
						C13.4,18.5,13,17.7,13.2,17.3z"/>
				</g>
			</g>
			<g>
				<g>
					<path fill="#E84D88" d="M13.5,17.5c-0.1,0.2-0.4,0.3-0.5,0.2c-0.2-0.1-0.2-0.4-0.1-0.6c0.1-0.2,0.4-0.3,0.6-0.2
						C13.6,17,13.6,17.3,13.5,17.5z"/>
				</g>
			</g>
		</g>
	</g>
</g>
</svg>
