<?xml version="1.0" encoding="utf-8"?>
<!-- Generator: Adobe Illustrator 18.0.0, SVG Export Plug-In . SVG Version: 6.00 Build 0)  -->
<!DOCTYPE svg PUBLIC "-//W3C//DTD SVG 1.1//EN" "http://www.w3.org/Graphics/SVG/1.1/DTD/svg11.dtd">
<svg version="1.1" id="Layer_1" xmlns="http://www.w3.org/2000/svg" xmlns:xlink="http://www.w3.org/1999/xlink" x="0px" y="0px"
	 viewBox="0 0 36 36" enable-background="new 0 0 36 36" xml:space="preserve">
<g>
	<g>
		<g>
			<g>
				<g>
					<g>
						<g>
							<path fill="#A5856D" d="M22.8,19.3c-3.3-2.3-6.5-2.4-9.7-0.1c-1.1,0.8-2.6,0-2.6-1.4l0-4.7c0-4.1,3.4-7.5,7.5-7.5h0
								c4.1,0,7.5,3.4,7.5,7.5l0,4.8C25.5,19.2,24,20,22.8,19.3z"/>
						</g>
					</g>
				</g>
				<g>
					<g>
						<g>
							<g>
								<g>
									<g>
										<g>
											<path fill="#FFDC97" d="M20.7,17.1h-5.4V18c0,2.2-0.7,4.4-2,6.2v3.5h9.4v-3.5c-1.3-1.8-2-4-2-6.2V17.1z"/>
										</g>
									</g>
									<g>
										<g>
											<path fill="#E9EFF4" d="M29.7,27.6v3.6c0,1.5-1.2,2.8-2.8,2.8H9.1c-1.5,0-2.8-1.2-2.8-2.8v-3.6c0-1,0.6-2,1.5-2.5
												l6.8-3.5c0,0,0.8,2.8,3.4,2.8c2.5,0,3.4-2.8,3.4-2.8l6.8,3.5C29.1,25.6,29.7,26.6,29.7,27.6z"/>
										</g>
									</g>
									<g>
										<g>
											<g>
												<path fill="#E84D88" d="M18.9,26.8l0.8,5.2c0,0.1,0,0.3-0.1,0.4l-1.3,1.3c-0.2,0.2-0.5,0.2-0.6,0l-1.3-1.3
													c-0.1-0.1-0.2-0.2-0.1-0.4l0.9-5.2l-0.9-0.9l1.4-1.4h0.7l1.4,1.4L18.9,26.8z"/>
											</g>
										</g>
									</g>
									<g>
										<g>
											<g>
												<polygon fill="#FFFFFF" points="21.1,20.8 18,24.5 20.1,26.4 21.9,22.9 												"/>
											</g>
										</g>
										<g>
											<g>
												<polygon fill="#FFFFFF" points="14.9,20.8 18,24.5 15.9,26.4 14.1,22.9 												"/>
											</g>
										</g>
									</g>
									<g>
										<g>
											<g>
												<path fill="#FFE9AB" d="M24,14.1c0,4.9-3.2,6.7-5,7.3c-0.7,0.2-1.4,0.2-2.1,0c-1.7-0.6-5-2.4-5-7.3c0-4.2,2.7-7.6,6-7.6
													C21.3,6.5,24,9.9,24,14.1z"/>
											</g>
										</g>
										<g>
											<g>
												<g>
													
														<ellipse transform="matrix(0.9947 0.1024 -0.1024 0.9947 1.6439 -2.3501)" fill="#FFE9AB" cx="23.7" cy="14.8" rx="1.2" ry="1.8"/>
												</g>
											</g>
											<g>
												<g>
													
														<ellipse transform="matrix(-0.9947 0.1024 -0.1024 -0.9947 25.8915 28.3498)" fill="#FFE9AB" cx="12.2" cy="14.8" rx="1.2" ry="1.8"/>
												</g>
											</g>
										</g>
										<g>
											<g>
												<path fill="#A5856D" d="M23.3,15.1l-0.9-4.7c0,0-3.8,1.8-6.6-0.9c0,0-0.4,1.4-2.1,1.5l-0.9,4.1c-1-1-2.9-10.3,1.4-8.6
													C16.3,1.6,28.4,6.2,23.3,15.1z"/>
											</g>
										</g>
									</g>
								</g>
							</g>
						</g>
					</g>
				</g>
				<g>
					<g>
						<g>
							<path fill="#5A5F63" d="M18,2c0,0-6.6,0.8-8.4,1.9c-0.5,0.3-0.6,1-0.4,1.6l1.4,4.1c0.1,0.4,0.3,0.7,0.6,0.8
								c1.8,0.8,4.2,1.3,6.8,1.3c2.6,0,5-0.5,6.8-1.3c0.3-0.1,0.5-0.4,0.6-0.8l1.4-4.1c0.2-0.6,0-1.3-0.4-1.6C24.6,2.8,18,2,18,2z"
								/>
						</g>
					</g>
					<g>
						<g>
							<ellipse fill="#3E4347" cx="18" cy="10.1" rx="7.4" ry="2.9"/>
						</g>
					</g>
					<g>
						<path fill="#FFD93B" d="M18,8.5c4,0,6.6,0.8,7.4,1.4c0,0,0,0,0-0.1c0,0,0-0.1,0-0.1C25.6,9,25.2,8.3,24.5,8
							c-2-0.7-4.7-0.9-6.5-0.9c-1.8,0-4.5,0.2-6.5,0.9c-0.7,0.2-1.1,1.1-0.9,1.8c0,0,0,0,0,0c0,0,0,0.1,0,0.1
							C11.4,9.3,14,8.5,18,8.5z"/>
					</g>
				</g>
			</g>
		</g>
		<g>
			<g>
				<path fill="#FFD93B" d="M19.3,4.9C19.1,5.5,18,6.2,18,6.2s-1.2-0.7-1.3-1.3c-0.1-0.5,0-1.5,0-1.5C17.6,3.3,18,2.9,18,2.9
					s0.4,0.4,1.3,0.5C19.3,3.4,19.4,4.4,19.3,4.9z"/>
			</g>
		</g>
	</g>
	<g>
		<g>
			<g>
				<path fill="#45CBEA" d="M27.4,24.9l-4-2.1c-0.2-0.1-0.3-0.4-0.2-0.6l0,0c0.1-0.2,0.4-0.3,0.6-0.2l4,2.1c0.2,0.1,0.3,0.4,0.2,0.6
					l0,0C27.9,24.9,27.6,25,27.4,24.9z"/>
			</g>
		</g>
		<g>
			<g>
				<path fill="#45CBEA" d="M8.6,24.9l4-2.1c0.2-0.1,0.3-0.4,0.2-0.6l0,0c-0.1-0.2-0.4-0.3-0.6-0.2l-4,2.1c-0.2,0.1-0.3,0.4-0.2,0.6
					l0,0C8.1,24.9,8.3,25,8.6,24.9z"/>
			</g>
		</g>
	</g>
</g>
</svg>
