<?xml version="1.0" encoding="utf-8"?>
<!-- Generator: Adobe Illustrator 18.0.0, SVG Export Plug-In . SVG Version: 6.00 Build 0)  -->
<!DOCTYPE svg PUBLIC "-//W3C//DTD SVG 1.1//EN" "http://www.w3.org/Graphics/SVG/1.1/DTD/svg11.dtd">
<svg version="1.1" id="Layer_1" xmlns="http://www.w3.org/2000/svg" xmlns:xlink="http://www.w3.org/1999/xlink" x="0px" y="0px"
	 viewBox="0 0 36 36" enable-background="new 0 0 36 36" xml:space="preserve">
<g>
	<g>
		<g>
			<g>
				<g>
					<path fill="#3E4347" d="M12.3,28.5l1.2,3.9c0,0,0.2,1,0.4,1.3c0.1,0.3,0,0.4-0.2,0.3c-0.2-0.1-2-1.1-2.2-1.7
						c-0.2-0.6,0.3-1.7,0-2.3l-0.7,1.1L10.5,31c0,0,0.6-1,0.7-1.4S11.1,28.5,12.3,28.5z"/>
				</g>
			</g>
			<g>
				<g>
					<path fill="#FFD93B" d="M12.3,28.5c0,0-0.3,1.2-0.2,2.3c0,1.1,0.3,1.8,1.5,1.5c0,0,0.1-1,0.2-2.2c0.2-1.2,0.9-2.9,2-4.3
						c1.1-1.4,1.6-1.9,2-2.2c0.4-0.3,0.8-0.6,0.8-1.4c0-0.8-0.5-5.7-0.5-5.7l-3.3,0.2c0,0,0.9,2.9,1.1,3.6C16,21,16,22.2,16,22.2
						s-1.4,1.1-2.1,2.9C13.3,26.8,12.7,28.3,12.3,28.5z"/>
				</g>
			</g>
		</g>
		<g>
			<g>
				<g>
					<g>
						<path fill="#3E4347" d="M19.3,28.8c-0.1,0.2-0.1,0.4-0.1,0.6c0.1,0.5,0.2,1.6,0.2,2.1c0,0.7,0.2,0.9,0.3,1.3s0.7,1,0.9,1.1
							s0.4-0.6,0.6-1.2c0.2-0.5,0.2-0.7,0-1.4c-0.2-0.7-0.3-1.4-0.6-2.1C20.2,28.6,19.6,28.2,19.3,28.8z"/>
					</g>
				</g>
				<g>
					<g>
						<path fill="#FFD93B" d="M19.3,29.8c0,0,0,2.1,0.2,2.5c0.1,0.1,1.5,0.3,1.4-0.8c0-0.6-0.2-1.3-0.4-1.8s0.3-3.4,0.4-4.1
							c0-0.7-2,0.1-2,0.1s0.6,2.4,0.5,2.9C19.3,29.3,19.3,29.4,19.3,29.8z"/>
					</g>
				</g>
			</g>
			<g>
				<g>
					<path fill="#FFD93B" d="M20.4,26.3l0.5-0.5c0,0,0.2-1.4,0-2.2c-0.2-0.8-0.2-1.9,0-3.1c0.2-1.3,0.8-2.2,0.4-3.3
						c-0.4-1.1-0.3-1-0.4-1.1c-0.1-0.1-2.6,0.1-2.6,0.1s0.2,3.4,0.3,3.9s-0.2,2.2,0.1,3.2c0.3,1,0,0.1,0,0.1s0,1.9,0.2,2.4
						c0.2,0.5,0.9,2,0.9,2l0.2,0.7"/>
				</g>
			</g>
		</g>
	</g>
	<g>
		<g>
			<path fill="#3E4347" d="M14.5,4.3c0,0-0.5,0.6-0.7,1.2c-0.2,0.7-0.3,1.9-0.3,1.9s0.2-1.2,0.4-1.7c0,0-1,4.7,1.7,7
				c0,0-1.8-2.2-1.7-5.1c0,0,0.7,1.9,2,2.6c1.2,0.7,2.1,0.6,2.2,0.5S19,11,18.5,9.4c-0.5-1.7-1.5-3.6-1.7-4.1
				c-0.2-0.5-0.3-0.9-0.4-1.1c-0.1-0.2-1.2-0.7-1.2-0.7l-0.7,0.6"/>
		</g>
	</g>
	<g>
		<g>
			<path fill="#F4C534" d="M27.6,14.5c-0.3,0.1-0.4,0.1-0.4,0.1s0.1,0,0.2,0.1c0.1,0.1-0.1,0.3-0.2,0.3c-0.1,0.1-0.3,0.2-0.5,0.3
				c-0.2,0.2-0.3,0.5-0.8,0.5c-0.5,0.1-0.9,0-1.3-0.3c-0.4-0.3-1.1-1.3-1.7-2.1c-0.6-0.7-1.3-1.7-1.7-2c-0.4-0.3-0.5-0.4-0.5-0.4
				L15,11.6L14.7,12c-0.4,0.9-0.5,1.2-0.7,1.6c-0.2,0.4-0.2,0.5-0.5,0.9c-0.3,0.4-0.8,1-1.1,1.4c-0.2,0.5-0.7,1.1-1.2,1.2
				c-0.5,0.1-0.9-0.1-1.2-0.1c-0.2,0-0.9-0.1-0.9-0.1s0-0.3,0.4-0.3c0.4,0,0.6,0,0.6,0s-0.3-0.2-0.5-0.2c-0.2,0-0.6-0.2-0.9-0.2
				c-0.3,0-0.7,0.1-0.7-0.2c0,0-0.2-0.1,0-0.2l0.3,0c0,0,0,0,0-0.2c0,0,0.8,0.1,1.2,0.1c0.4,0,1,0.1,1.2,0.2c0.2,0,0.6,0.1,0.8-0.2
				l0.3-1.3c0.3-1.3,0.5-1.3,0.9-2.2c0.3-0.9,0.4-0.9,0.5-1.7c0.1-0.8,0.5-1.8,1.3-2c0.7-0.2,1.2-0.2,1.2-0.2s0.6,0,0.7-0.4
				c0.1-0.4,0.1-1,0.1-1s1.1-2.1,1.5-2.3c0.4-0.2,0.8,0.7,0.9,1.4c0.1,0.8,0.9,2,1.4,2.4c0,0,1.4,0,2,1.6l1.5,2.8
				c0.3,0.2,1.1,2.1,1.4,2.5c0,0,0.4-0.3,0.6-0.6c0.3-0.3,0.4-0.4,0.6-0.4c0.1,0-0.1,0.4-0.1,0.4s0.9-0.3,1.1-0.4
				c0.1-0.1,0.3,0,0.2,0.1l0.2,0C27.9,14.3,27.9,14.5,27.6,14.5z"/>
		</g>
	</g>
	<g>
		<g>
			<path fill="#E24B4B" d="M19.5,8.2c0,0,0.4,0.8,0.4,1.2c-0.1,0.5-1.6,0.4-2.4-0.4c-0.8-0.8-1-1.1-1-1.1s-0.7,0.2-1,0.3
				c0,0,1,2.4-0.5,3.3c0,0,1,2.3,0.9,3.5c0,0-3.8,1.7-5.2,7.2l2.3,1.4c0,0,0.2,0.1,0.3-0.2c0,0,1,0.6,2.2,0.7s2.3-0.1,2.3-0.1
				s0.8,0.4,1.3,0.1c0.5-0.2,0.4-0.2,0.6,0.2c0.3,0.4,0.6,0.7,2,0.5c1.4-0.3,2-0.4,2-0.4l0.1-0.2l1.9-0.9c-1.2-3.1-3-5.8-5.3-8
				c0,0,0.1-1.7,0.4-2.7c0.2-0.9,0.3-1,0.3-1.6c0-0.5,0.1-2.2-1-3C19.2,7.5,19.5,8.2,19.5,8.2z"/>
		</g>
	</g>
	<g>
		<g>
			<path fill="#D03F3F" d="M24.1,24.2l-0.2,0.1c0,0-1.9-5.6-3-7.6C21.1,17,22.9,20.6,24.1,24.2z"/>
		</g>
	</g>
	<g>
		<g>
			<path fill="#FFD93B" d="M18.6,5.3c-0.1,0.4-0.4,0.8-0.6,0.8s-0.4-0.3-0.3-0.8c0.1-0.4,0.4-0.8,0.6-0.8
				C18.5,4.6,18.7,4.9,18.6,5.3z"/>
		</g>
	</g>
	<g>
		<g>
			<path fill="#FFD93B" d="M17.8,3.7l0.2,1.8c0,0,0.2,0.7-0.3,1.5c-0.4,0.8-1.2,0.9-1.6,0.5c-0.4-0.4-0.8-0.9-1.1-2.1s0-1.7,0.2-2.2
				c0.3-0.5,0.9-0.5,0.9-0.5C16.3,2.7,17.8,3.7,17.8,3.7z"/>
		</g>
	</g>
	<g>
		<g>
			<path fill="#3E4347" d="M22.4,9.8c-0.1-0.2-0.6-1-0.9-1.1c-0.4-0.2-0.9-0.3-0.9-0.3c0.3,0.2,0.4,0.8,0.4,0.9
				c-0.2-0.5-0.8-0.8-1-0.9c0.3,0.3,0.6,1.2,0.6,1.5c-0.3-0.9-2.1-2.2-2.3-2.7c-0.2-0.5,0-1.4,0.1-1.7c0.1-0.3-0.2-1-0.4-0.7
				c0,0,0,0,0,0C18,5.1,18,5.3,18,5.4c0-0.3-0.3-1.2-1.1-1.5c-1-0.3-1.1-0.5-1.1-0.5c-0.3,0.1-0.8,0.5-0.8,0.5l-1.2,1.4
				c-0.2,0.1-0.5,0.4-0.7,0.6c0.5-1.3,1.1-2.5,2-3.2c-0.2-0.1-0.6,0.5-0.7,0.6c0.2-0.6,0.7-0.8,0.7-0.8s0.1-0.8,1.5-0.5
				c1.4,0.3,2.2,2,2.4,3.2c0.2,1.1,0.3,2.5,1.8,3C22.4,8.7,22.4,9.7,22.4,9.8z"/>
		</g>
	</g>
	<g>
		<path fill="#D03F3F" d="M13.3,23.5c0,0,1,0.6,2.2,0.7c0,0,0,0,0.1,0c-0.3-0.1-0.5-0.1-1.2-0.6c-0.6-0.4-1.5-0.4-1.5-0.4
			c0.7-2.6,1.7-5.3,3.1-7.9c0,0-0.6,0.9-1.7,3.4c-1.1,2.5-1.4,4.4-1.4,4.4s-0.6-0.6-1.1-0.9c-0.4-0.3-1-0.1-1-0.1l2.3,1.4
			C13.1,23.7,13.3,23.8,13.3,23.5z"/>
	</g>
	<g>
		<g>
			<path fill="#D03F3F" d="M20.5,23.2c0,0,0.1-2.7-0.4-4.5s-0.9-3.1-0.9-3.1s2,5.7,2.1,7.5s0.1,1.8,0.1,1.8s-0.5-3.1-0.9-4.4
				C20.6,20.4,20.6,22.5,20.5,23.2z"/>
		</g>
	</g>
</g>
</svg>
