<?xml version="1.0" encoding="utf-8"?>
<!-- Generator: Adobe Illustrator 18.0.0, SVG Export Plug-In . SVG Version: 6.00 Build 0)  -->
<!DOCTYPE svg PUBLIC "-//W3C//DTD SVG 1.1//EN" "http://www.w3.org/Graphics/SVG/1.1/DTD/svg11.dtd">
<svg version="1.1" id="Layer_1" xmlns="http://www.w3.org/2000/svg" xmlns:xlink="http://www.w3.org/1999/xlink" x="0px" y="0px"
	 viewBox="0 0 36 36" enable-background="new 0 0 36 36" xml:space="preserve">
<g>
	<path fill="#3E4347" d="M20.6,32.2c0,0,0.5-0.1,0.5,0.3C21,33,19.6,33,19.2,32.9c-0.4-0.1-0.7-0.1-1-0.9c-0.4-0.8-0.8-2-1-2.4
		s-0.1-1,0.4-1c0.5,0.1,0.7,0.8,0.8,1c0.1,0.2,0.8,1.1,0.9,1.4C19.3,31.5,19.8,32.3,20.6,32.2z"/>
	<path fill="#2AB4CD" d="M19.4,30.2c0,0,0.2,0.8,0.3,1.2c0,0.4,0.1,0.4,0.1,0.4s0.1,0,0.1,0.1c0,0,1.1,0.1,1.1,0.5
		c0,0-0.1,0.4-1.1,0.3c-1-0.1-1.1,0.1-1.4-0.6c-0.3-0.6-0.9-2.1-1.2-2.6c-0.3-0.5,0.2-0.9,0.2-0.9S19,28.7,19.4,30.2z"/>
	<path fill="#5A5F63" d="M20.1,32.8c0,0,0.3,0,0.5,0.3c0.3,0.6-0.7,1.2-1.9,0.7c-0.4-0.1-0.8-0.5-1.2-1.3c-0.4-0.8-0.8-2-1-2.5
		c-0.2-0.4-0.1-1.1,0.4-1s0.8,0.8,0.9,1c0.1,0.2,0.9,1.1,0.9,1.5C18.7,32,19.2,32.8,20.1,32.8z"/>
	<path fill="#45CBEA" d="M18.9,30.6c0,0,0.2,0.9,0.3,1.3c0,0.4,0.1,0.4,0.1,0.4s0.1,0,0.1,0.1c0,0,1.1,0.1,1.2,0.6c0,0,0,0.9-1,0.8
		c-1-0.1-1.3-0.4-1.6-1.1C17.6,32,17,30.5,16.7,30c-0.3-0.5,0.2-0.9,0.2-0.9S18.4,29.1,18.9,30.6z"/>
	<path fill="#FFD93B" d="M11,7.2c0,0-0.3-0.1-0.6-0.7C10.2,6.1,9,3.7,8.7,3.3C8.4,2.8,8.3,2.1,7.9,2C7.5,1.9,6.8,2.4,6.5,2.4
		c-0.3,0-0.2,0.7-0.1,0.8c0,0,0.1,0,0.1-0.1l0.2,0.4c0,0,0.1,0,0.1-0.1l0,0.1c0,0,0.3,0.1,0.2-0.2c0,0,0.2,0.1,0.3,0.1
		c0,0,0.1,0.4,0.5,0.5c0,0,0.9,3.3,1.2,3.7c0.4,0.5,1.4,1.5,1.4,1.4L11,7.2z"/>
	<path fill="#FFD93B" d="M11,7.2c0,0-0.3-0.1-0.6-0.7C10.2,6.1,9,3.7,8.7,3.3C8.4,2.8,8.3,2.1,7.9,2C7.5,1.9,6.8,2.4,6.5,2.4
		c-0.3,0-0.2,0.7-0.1,0.8c0,0,0.1,0,0.1-0.1l0.2,0.4c0,0,0.1,0,0.1-0.1l0,0.1c0,0,0.3,0.1,0.2-0.2c0,0,0.2,0.1,0.3,0.1
		c0,0,0.1,0.4,0.5,0.5c0,0,0.9,3.3,1.2,3.7c0.4,0.5,1.4,1.5,1.4,1.4L11,7.2z"/>
	<path fill="#F4C534" d="M7.1,3.3c0,0,0.1-0.2,0.2-0.3c0.1,0,0.2,0,0.4,0c0.1,0,0.3,0,0.4-0.1l0,0C7.9,3,7.9,3,7.9,3
		C7.8,3,7.8,3,7.8,2.9c0,0,0,0,0,0c0,0,0-0.1,0.1-0.1c0.2-0.1,0-0.2,0-0.2c0.1-0.1,0.1-0.2,0.1-0.2s0,0-0.1,0.2
		c0,0.1-0.1,0.1-0.1,0.1c-0.1,0-0.2,0.1-0.3,0.1c0,0,0,0,0,0c0,0-0.1,0.1-0.1,0.2c0,0,0,0,0,0C7.1,3.1,7.1,3.3,7.1,3.3z"/>
	<path fill="#F4C534" d="M7.4,3.5c0,0,0.2,0.2,0.7,0.1c0,0-0.2,0.2-0.4,0.1c0,0,0.2,0.2,0.7,0.1c0,0-0.2,0.1-0.5,0.1
		C7.5,3.9,7.4,3.5,7.4,3.5z"/>
	<path fill="#3E4347" d="M19.3,5.5c0,0,0.3,0.3,0.2,0.8c0,0,0.5-0.2,0.5-0.4C20,5.8,19.3,5.4,19.3,5.5"/>
	<path fill="#89664C" d="M17.8,5.1c-1.3,0-2.4,0.2-2.4,0.6c0,0.4,1.1,0.7,2.4,0.8c1.3,0,2.4-0.2,2.4-0.6C20.2,5.5,19.1,5.1,17.8,5.1
		z M17.8,6.5c-0.9,0-1.7-0.3-1.7-0.7c0-0.3,0.8-0.6,1.7-0.5c0.9,0,1.7,0.3,1.7,0.7C19.5,6.3,18.8,6.5,17.8,6.5z"/>
	<path fill="#F4C534" d="M17,6l-0.8,0.4c0,0,0.2,1.6-0.3,2l1.7,2.2l0.9-0.5l0-2.8L17,6z"/>
	<path fill="#8CC63E" d="M23.3,8.3l0.2,2.1c0,0-0.9,0.6-1.5,0.9c-0.7,0.3-0.9,0.6-0.9,0.6l-0.6,1c0,0-0.2,0.8-0.1,1.6
		c0.1,0.7,0.5,2.2,0.4,2.8L16.1,18c0,0-0.4-0.6-1.1-2.6s-1.3-2.1-1.4-3.1c-0.2-1-2.6-2.5-2.6-2.5l-0.8-0.9c0,0,1-1.1,0.9-1.6
		c0-0.5,0-0.1,0-0.1s0.6,0.5,1.9,0.9c1.3,0.3,1.6,0.6,1.6,0.6h1l1.5,0.5c0,0,0.4,0.5,0.7,0.6c0,0,0.3-0.6,0.6-1
		c0.3-0.4,1.5-0.4,2-0.3C20.4,8.6,22.6,8.5,23.3,8.3z"/>
	<path fill="#E9EFF4" d="M17.9,9.8c0,0,0.2-0.4,0.4-0.7c0.2-0.3,0.5-0.4,0.5-0.4s0.3,0.4,0.4,0.8c0.1,0.4,0.2,0.5,0.2,0.5
		s-0.3,0-0.4-0.3C19,9.4,19,9.4,19,9.4s-0.2,0.2-0.4,0.2C18.3,9.5,17.9,9.8,17.9,9.8z"/>
	<path fill="#CBD6E0" d="M15.6,7.9c0,0,0-0.2,0.1-0.3c0.1-0.1,0.5,0,0.5,0s0.1,0.5-0.2,0.7C15.8,8.5,15.6,7.9,15.6,7.9z"/>
	<path fill="#E9EFF4" d="M15.7,7.7c0,0-0.1,0.1,0.2,0.4c0.3,0.3,1.2,1,1.2,1s-0.5,0.3-0.7,0.9c0,0-1-1.2-1.1-1.4S15.4,7.8,15.7,7.7z
		"/>
	<ellipse transform="matrix(0.9625 -0.2714 0.2714 0.9625 -1.1414 4.6545)" fill="#FFD93B" cx="16.3" cy="6.5" rx="0.3" ry="0.6"/>
	<path fill="#6B503B" d="M16.3,5.4c0,0-0.1-0.8,0.4-1.6s1.6-0.4,2-0.4c0.4,0,0.8,0.1,0.8,0.3c0,0.2,0.2,1.3,0.2,1.9
		S16.3,5.4,16.3,5.4z"/>
	<path fill="#FFD93B" d="M17,5.2c-0.3,0.3-0.6,0.8-0.6,1.2l0,0c0,0.3,0,0.5,0.1,0.8c0,0.1,0,0.3,0.1,0.4c0.1,1.3,1.2,1.7,1.8,1.7
		c0.5-0.1,0.6-1.1,0.9-1.5c0.1-0.2,0.2-0.6,0.2-0.9c0-0.3,0-0.5,0.1-0.8c0-0.1,0-0.2,0.1-0.3c0-0.2,0-0.4-0.1-0.5
		C18.6,5.2,17.8,5.1,17,5.2z"/>
	<path fill="#3E4347" d="M16.4,5.2c-0.1,0.1-0.2,0.1-0.2,0.1l0,0.5c0,0,0.1,0.1,0.2,0.5c0.1,0.4,0,0.6,0,0.6h0.1
		c0,0-0.1-0.8,0.6-1.3c0.2-0.1,0.4-0.2,0.6-0.3H16.4z"/>
	<path fill="#89664C" d="M16.2,5.8c0-0.3,0.8-0.6,1.7-0.5c0.9,0,1.7,0.3,1.7,0.7l0.7-0.1c0-0.4-1.1-0.7-2.4-0.8
		c-1.3,0-2.4,0.2-2.4,0.6L16.2,5.8z"/>
	<path fill="#FFD93B" d="M23.8,8.2c0,0,0.3,0,0.7-0.4c0.4-0.4,2.3-2.2,2.8-2.6s0.7-1,1.1-1c0.4,0.1,0.9,0.7,1.2,0.8
		c0.3,0.1,0,0.8-0.1,0.8c0,0-0.1,0-0.1-0.1L29,6c0,0-0.1,0-0.1-0.1L28.9,6c0,0-0.3,0.1-0.2-0.2c0,0-0.2,0-0.3,0c0,0-0.2,0.4-0.6,0.3
		c0,0-1.8,2.8-2.3,3.1c-0.5,0.4-1.8,1-1.8,0.9L23.8,8.2z"/>
	<path fill="#FFD93B" d="M23.8,8.2c0,0,0.3,0,0.7-0.4c0.4-0.4,2.3-2.2,2.8-2.6s0.7-1,1.1-1c0.4,0.1,0.9,0.7,1.2,0.8
		c0.3,0.1,0,0.8-0.1,0.8c0,0-0.1,0-0.1-0.1L29,6c0,0-0.1,0-0.1-0.1L28.9,6c0,0-0.3,0.1-0.2-0.2c0,0-0.2,0-0.3,0c0,0-0.2,0.4-0.6,0.3
		c0,0-1.8,2.8-2.3,3.1c-0.5,0.4-1.8,1-1.8,0.9L23.8,8.2z"/>
	<path fill="#F4C534" d="M28.8,5.7c0,0,0-0.2-0.1-0.3c0,0-0.2-0.1-0.4-0.1c-0.1,0-0.3-0.1-0.4-0.2l0,0c0,0,0.1,0.1,0.1,0.1
		c0.1,0,0.1,0,0.1-0.1c0,0,0,0,0,0c0,0,0-0.1,0-0.1c-0.1-0.1,0.1-0.2,0.1-0.2c0-0.1,0-0.2,0-0.2s0,0,0,0.2c0,0.1,0.1,0.1,0.1,0.1
		c0.1,0,0.2,0.1,0.2,0.2c0,0,0,0,0,0c0,0.1,0,0.1,0.1,0.2c0,0,0,0,0,0C28.8,5.5,28.8,5.7,28.8,5.7z"/>
	<path fill="#F4C534" d="M28.4,5.7c0,0-0.3,0.2-0.7-0.1c0,0,0.1,0.2,0.4,0.2c0,0-0.3,0.1-0.7-0.1c0,0,0.2,0.2,0.5,0.3
		C28.2,6.1,28.4,5.7,28.4,5.7z"/>
	<path fill="#E9EFF4" d="M23,8.2c0,0-0.1,0.1-0.1,0.1c0.1,0.3,0.2,1.4,0.2,1.8c0,0.2-0.1,0.4-0.1,0.5c0,0.1,0.1,0.1,0.1,0.1
		c0.1,0,0.2,0,0.4,0c0.2,0,0.3-0.1,0.4-0.4c0.1-0.3,0.2-2.1-0.1-2.2C23.5,7.9,23.2,8.1,23,8.2z"/>
	<path fill="#E9EFF4" d="M10.1,9.3c0,0,0.1,0,0.1,0C10.4,9,11,8.1,11.4,7.8c0.2-0.1,0.3-0.2,0.4-0.3c0.1,0,0.1-0.1,0-0.2
		c-0.1-0.1-0.2-0.1-0.3-0.2c-0.2-0.2-0.3-0.2-0.6,0S9.3,8.5,9.4,8.8C9.5,9.1,9.9,9.1,10.1,9.3z"/>
	<path fill="#DEE4E9" d="M16,17.8c0,0,3.1-0.5,4.8-1c0,0,0.4,0.5,0.3,0.9c0,0,1.8,1.7,2.2,6.6c0,0,0.3,0.7,0,1.5
		c-0.3,0.7-2,4-2.9,4.2l-0.8,1.8c0,0-2-0.8-3-2.5c0,0,1.2-0.5,1.9-1.7c0.8-1.1,1.6-2.1,1.6-2.1s0.2-0.1,0.1-0.5
		c-0.1-0.4-4-2.5-4.2-4.8C15.8,17.8,16,17.8,16,17.8z"/>
	<path fill="#BBC7D1" d="M23.3,24.3c0-0.1-0.7-1-1.4-2.7c-0.2-0.7-0.6-1.2-1.2-1.7c-0.2-0.2-0.4-0.4-0.6-0.5
		c-0.3-0.3,1.2,0.6,1.3,0.9c0.2,0.4,0.6-0.7,0.6-0.7s0.1,0.2-0.1,0.5c-0.2,0.3,0.1,1.2,0.6,2.3C23,23.6,23.2,24.2,23.3,24.3z"/>
	<line fill="none" x1="23.3" y1="24.3" x2="23.3" y2="24.3"/>
</g>
</svg>
