<?xml version="1.0" encoding="utf-8"?>
<!-- Generator: Adobe Illustrator 18.0.0, SVG Export Plug-In . SVG Version: 6.00 Build 0)  -->
<!DOCTYPE svg PUBLIC "-//W3C//DTD SVG 1.1//EN" "http://www.w3.org/Graphics/SVG/1.1/DTD/svg11.dtd">
<svg version="1.1" id="Layer_1" xmlns="http://www.w3.org/2000/svg" xmlns:xlink="http://www.w3.org/1999/xlink" x="0px" y="0px"
	 viewBox="0 0 36 36" enable-background="new 0 0 36 36" xml:space="preserve">
<g>
	<g>
		<g>
			<g>
				<g>
					<path fill="#3E4347" d="M32.2,34c1,0,1.8-0.8,1.8-1.8v-7c0-1-0.6-2-1.5-2.5l-7.1-3c-0.1-0.4-0.2-0.7-0.2-1.1
						c1.1-0.7,2.3-1.9,2.8-3.8c0.6,0,1.1-0.7,1.2-1.6c0.1-0.9-0.2-1.6-0.7-1.8c0.4-1.9,0.8-5-0.4-6.3c-0.4-0.4-1-0.4-1.5-0.2
						c0,0-0.1,0-0.2,0.1c-1.4-4.7-10.8-3.6-10.6,3.9c0,0.4,0,0.9,0,1.3c0.1,0.5,0.1,0.9,0.2,1.3c-0.5,0.2-0.8,1-0.7,1.8
						c0.1,0.9,0.6,1.6,1.2,1.6c0.5,1.9,1.7,3.1,2.8,3.8c-0.1,0.4-0.1,0.7-0.2,1.1l-7.1,3c-0.9,0.5-1.5,1.4-1.5,2.5V34H32.2z"/>
				</g>
			</g>
		</g>
	</g>
	<g>
		<g>
			<g>
				<g>
					<path fill="#5A5F63" d="M25.4,34v-8.8c0-1-0.6-2-1.5-2.5l-7.1-3c-0.1-0.4-0.2-0.7-0.2-1.1c1.1-0.7,2.3-1.9,2.8-3.8
						c0.6,0,1.1-0.7,1.2-1.6c0.1-0.9-0.2-1.6-0.7-1.8c0.4-1.9,0.8-5-0.4-6.3c-0.4-0.4-1-0.4-1.5-0.2c0,0-0.1,0-0.2,0.1
						C16.5,0.1,7.1,1.2,7.3,8.7c0,0.4,0,0.9,0,1.3c0.1,0.5,0.1,0.9,0.2,1.3c-0.5,0.2-0.8,1-0.7,1.8C6.9,14,7.4,14.7,8,14.7
						c0.5,1.9,1.7,3.1,2.8,3.8c-0.1,0.4-0.1,0.7-0.2,1.1l-7.1,3C2.6,23.2,2,24.1,2,25.2v7c0,1,0.8,1.8,1.8,1.8H25.4z"/>
				</g>
			</g>
		</g>
	</g>
</g>
</svg>
