<?xml version="1.0" encoding="utf-8"?>
<!-- Generator: Adobe Illustrator 18.0.0, SVG Export Plug-In . SVG Version: 6.00 Build 0)  -->
<!DOCTYPE svg PUBLIC "-//W3C//DTD SVG 1.1//EN" "http://www.w3.org/Graphics/SVG/1.1/DTD/svg11.dtd">
<svg version="1.1" id="Layer_1" xmlns="http://www.w3.org/2000/svg" xmlns:xlink="http://www.w3.org/1999/xlink" x="0px" y="0px"
	 viewBox="0 0 36 36" enable-background="new 0 0 36 36" xml:space="preserve">
<g>
	<g>
		<g>
			<g>
				<g>
					<path fill="#F4C534" d="M23.1,20.4c-0.7-0.7-1.3-1.4-1.7-2.3c-0.4-0.8-0.6-1.6-0.7-2.5h-5.3c-0.2,1.8-1.1,3.5-2.4,4.8
						C12.9,25.1,23.1,25.1,23.1,20.4z"/>
				</g>
			</g>
			<g>
				<g>
					<g>
						<g>
							
								<ellipse transform="matrix(0.9814 0.1919 -0.1919 0.9814 2.6523 -4.1559)" fill="#FFD93B" cx="22.8" cy="11.6" rx="1" ry="1.7"/>
						</g>
						<g>
							
								<ellipse transform="matrix(0.9814 -0.1919 0.1919 0.9814 -1.9813 2.7721)" fill="#FFD93B" cx="13.3" cy="11.6" rx="1" ry="1.7"/>
						</g>
					</g>
				</g>
				<g>
					<g>
						<ellipse fill="#FFD93B" cx="18" cy="10.8" rx="5" ry="6.4"/>
					</g>
				</g>
				<g>
					<g>
						<path fill="#3E4347" d="M13.6,11.5L13.6,11.5c-0.2-1.8,0.1-3.4,1.2-4.6c0,0,3.6,3.3,7.8,2l0.1,3.2c0,0,1.3-2.2,1-4.9
							S21.3,1.7,16.9,2S12.1,7.8,13.6,11.5z"/>
					</g>
				</g>
			</g>
			<g>
				<g>
					<path fill="#8CC63E" d="M27.7,22.5V34H9.7c-0.8,0-1.4-0.6-1.4-1.4V22.5c0-1.7,1-3.2,2.6-3.8c1.6-0.6,3.5-1.3,4-1.4
						c0.1,1.9,1.4,3.4,3.1,3.4c1.7,0,3-1.5,3.1-3.4c0.5,0.1,2.4,0.7,4,1.4C26.7,19.3,27.7,20.8,27.7,22.5z"/>
				</g>
			</g>
		</g>
	</g>
	<g>
		<g>
			<g>
				<g>
					<g>
						<g>
							<path fill="#F4C534" d="M30.8,29.2c-0.5-0.5-0.9-1-1.2-1.6c-0.3-0.5-0.4-1.1-0.5-1.7h-3.7c-0.2,1.3-0.8,2.4-1.7,3.3
								C23.8,32.5,30.8,32.5,30.8,29.2z"/>
						</g>
					</g>
					<g>
						<g>
							<path fill="#E84D88" d="M34,34v-3.3c0-1.2-0.7-2.2-1.8-2.6c-1.1-0.4-2.4-0.9-2.8-1c0,1.3-1,2.4-2.1,2.4s-2.1-1-2.1-2.3
								c-0.4,0-1.7,0.5-2.8,1c-1.1,0.4-1.8,1.5-1.8,2.6V34H34z"/>
						</g>
					</g>
				</g>
			</g>
			<g>
				<g>
					<g>
						<g>
							<g>
								<path fill="#3E4347" d="M29.7,17.9c0,0,1.2,0.2,3,3c0.8,1.3,0.5,5.1-1.9,4.9c0,0-0.4-0.3,0-1.1s-0.2-2.9-1.3-3.6
									C28.5,20.5,29.7,17.9,29.7,17.9z"/>
							</g>
						</g>
						<g>
							<g>
								<path fill="#3E4347" d="M25.5,17.9c0,0-2.1,0.5-3.7,3c-0.9,1.5-0.4,5.1,1.9,4.9c0,0,0.4-0.3,0-1.1c-0.4-0.8,0.2-2.9,1.3-3.6
									C26.1,20.5,25.5,17.9,25.5,17.9z"/>
							</g>
						</g>
					</g>
					<g>
						<g>
							<ellipse fill="#FFD93B" cx="27.3" cy="23.4" rx="3.4" ry="4.2"/>
						</g>
					</g>
					<g>
						<g>
							<path fill="#3E4347" d="M24.9,21c0,0,0.4,0.5,1.5,0.7c0,0-0.6-0.4-0.6-0.9c0,0,1.1,0.9,2.2,0.9c1.1,0,1.1,0,1.1,0
								s-0.4-0.3-0.8-0.8c0,0,0.8,0.8,1.4,0.9c0.6,0.1,0.8,0.4,0.9,0.7c0,0.4,0,2.1,0,2.1s2.1-7.5-2.5-6.7c0,0-2.9-0.9-4.1,1.6
								c-1.3,2.5,0.1,5.1,0.1,5.1S23.6,22.4,24.9,21z"/>
						</g>
					</g>
				</g>
				<g>
					<g>
						<path fill="#E84D88" d="M31,22.1c0,0.1,0,0.2,0,0.3c0-2-1.7-3.7-3.8-3.7c-2.1,0-3.7,1.7-3.8,3.7c0-0.1,0-0.2,0-0.3
							c-0.1-2.2,1.6-4,3.8-4C29.4,18.1,31.1,20,31,22.1z"/>
					</g>
				</g>
				<g>
					<g>
						<g>
							<g>
								<path fill="#FC97B2" d="M30.1,19.7c-0.3,0.3-1.1,0-1.4-0.3s0-0.5,0.3-0.8c0.3-0.3,0.5-0.6,0.8-0.3S30.4,19.4,30.1,19.7z"/>
							</g>
						</g>
						<g>
							<g>
								<path fill="#FC97B2" d="M30.1,19.6c0.3-0.3,1.1,0,1.4,0.3c0.3,0.3-0.8,1.4-1.1,1.1C30.1,20.7,29.8,19.9,30.1,19.6z"/>
							</g>
						</g>
					</g>
					<g>
						<g>
							<circle fill="#D23F77" cx="30.1" cy="19.6" r="0.4"/>
						</g>
					</g>
				</g>
			</g>
		</g>
	</g>
	<g>
		<g>
			<g>
				<g>
					<g>
						<g>
							<g>
								<g>
									
										<ellipse transform="matrix(0.9814 0.1919 -0.1919 0.9814 4.8077 -1.9169)" fill="#FFD93B" cx="12.3" cy="23.9" rx="0.7" ry="1.2"/>
								</g>
							</g>
						</g>
					</g>
				</g>
			</g>
		</g>
		<g>
			<g>
				<path fill="#F4C534" d="M12.5,30.1c-0.5-0.5-0.9-1-1.2-1.6c-0.3-0.6-0.5-1.2-0.5-1.8H7c-0.2,1.3-0.8,2.5-1.7,3.4
					C5.3,33.4,12.5,33.4,12.5,30.1z"/>
			</g>
		</g>
		<g>
			
				<ellipse transform="matrix(0.9814 -0.1919 0.1919 0.9814 -4.4753 1.5147)" fill="#FFD93B" cx="5.6" cy="23.9" rx="0.7" ry="1.2"/>
		</g>
		<g>
			<g>
				<ellipse fill="#FFD93B" cx="8.9" cy="23.3" rx="3.5" ry="4.5"/>
			</g>
		</g>
		<g>
			<g>
				<path fill="#65B1EF" d="M15.8,34v-2.4c0-1.2-0.7-2.3-1.8-2.7c-1.2-0.4-2.5-0.9-2.9-1c-0.1,1.3-2.2,3-2.2,3s-2.1-1.7-2.2-3
					c-0.4,0-1.7,0.5-2.9,1C2.7,29.3,2,30.4,2,31.6V34H15.8z"/>
			</g>
		</g>
		<g>
			<g>
				<g>
					<path fill="#3E4347" d="M12.8,23.5c-0.3,0.9-0.8,1.3-0.8,1.4c0-0.1,0.4-1.4,0.4-2.1c0-1.3-0.7-2.1-0.7-2.1s-0.8,0.5-0.9,1.3
						c0,0-0.2-0.7,0-1.1c-0.2,0.2-1.8,1.8-4.5,1c-1,1.4-0.5,2.9-0.5,2.9c0-0.1-1.2-2.1-1.1-3.4c0.2-1.3,1-2.7,2.3-3.4
						c1.4-0.7,4.1-0.6,5.2,0.8C13.4,20.1,13.1,22.5,12.8,23.5z"/>
				</g>
			</g>
		</g>
	</g>
</g>
</svg>
