<?xml version="1.0" encoding="utf-8"?>
<!-- Generator: Adobe Illustrator 18.0.0, SVG Export Plug-In . SVG Version: 6.00 Build 0)  -->
<!DOCTYPE svg PUBLIC "-//W3C//DTD SVG 1.1//EN" "http://www.w3.org/Graphics/SVG/1.1/DTD/svg11.dtd">
<svg version="1.1" id="Layer_1" xmlns="http://www.w3.org/2000/svg" xmlns:xlink="http://www.w3.org/1999/xlink" x="0px" y="0px"
	 viewBox="0 0 36 36" enable-background="new 0 0 36 36" xml:space="preserve">
<g>
	<g>
		<g>
			<g>
				<path fill="#F4C534" d="M28.4,21.4l-0.5-1.2c0,0-0.7-1-1-2.4c-0.3-1.4-1.7-6.8-1.7-6.8l-5.5-1.5l-2.2,1.3c0,0-1,1.8-0.9,3.9
					c0,0,0.3,0.4,0.2,0.8c-0.1,0.4-0.5,1.2-0.5,1.8c0.1,0.6,0.6,0.8,0.9,0.7c0,0-0.2,0.7-0.1,0.9c0.1,0.2,0.3,0.2,0.3,0.2
					s-0.2,0.1-0.1,0.5c0,0,0.5,0.3,0.6,0.5s-0.1,1.2,0.8,1.4s2.2-0.1,2.6,0.1c0.4,0.2,1.2,1.6,1.2,1.6s-0.4,0.2-0.5,1
					C21.4,27.5,32.2,26.6,28.4,21.4z"/>
			</g>
		</g>
		<g>
			<g>
				<path fill="#65B1EF" d="M34,34c-0.6-9.4-6.2-13.9-6.2-13.9c-1.4,3-5.1,4-5.5,3.8C22,23.7,22.5,23,22.5,23c-2.2,1.8-3.7,8-4.3,11
					H34z"/>
			</g>
		</g>
		<g>
			<path fill="#59A5E0" d="M33.9,34c-0.1-1.4-0.2-3.4-0.5-4.3c-0.9-3-3.1-4.6-4.3-4.3c-1.2,0.3-2.7,1.3-3.3,3.4
				c-0.3,1-0.5,3.4-0.6,5.2H33.9z"/>
		</g>
		<g>
			<g>
				<path fill="#3E4347" d="M17,11.7c0,0,0.9,0,1.8-0.4c0.8-0.3,0.9,0,0.8,0.4s-0.7,1-0.2,1.7s1.4,1,1.5,1.9c0.1,0.8,0,1.1,0,1.1
					h0.7c0,0,0.2-1.4,0.9-1.7c0.7-0.3,1-0.4,1.4,0.5c0.2,0.4,0.3,0.8,0.5,1.2c0.3,0.9,1,1.6,1.9,2c0.3,0.1,0.5,0.2,0.8,0.2
					c0,0-0.1-1.9,0.1-2.7c0.2-0.9,1.1-4-0.8-6.5S21.8,7.7,20.1,8C18.3,8.4,14.7,10.9,17,11.7z"/>
			</g>
		</g>
		<g>
			<g>
				<path fill="#DE9C25" d="M17.8,19c0,0-0.3-0.1-0.5-0.2c-0.1-0.2-0.3-0.1-0.3-0.1l0,0c0,0,0,0.1,0,0.1c0.1,0.2,0.3,0.2,0.3,0.2
					s-0.2,0.1-0.1,0.5C17.3,19.5,17.4,19.1,17.8,19z"/>
			</g>
		</g>
		<g>
			<g>
				
					<ellipse transform="matrix(0.9705 0.2413 -0.2413 0.9705 4.5389 -5.0485)" fill="#F4C534" cx="22.9" cy="16" rx="1.1" ry="1.6"/>
			</g>
		</g>
		<g>
			<g>
				<path fill="#FFD93B" d="M12,13.9c0,0,1.5,0.3,2,1.2s0.5,1.2,0.9,1.5s1.1,0.4,1.4,0.9c0.2,0.5-0.3,0.7-0.3,0.9
					c-0.1,0.1,0.1,0.3,0.2,0.4c0.2,0.1,0.3,0.4,0.1,0.7c0,0,0.4,0.1,0.4,0.3c0,0-0.3,0.4-0.1,0.7s0.4,0.8,0.1,1.2s-1.8,0.3-2.3,0.9
					c-0.5,0.7-2.2,4.1-2.2,4.4c0,0.3,1.5,5.2,1.5,5.2H5.4v-7.7C5.4,24.5,9.3,14.3,12,13.9z"/>
			</g>
		</g>
		<g>
			<g>
				<path fill="#8CC63E" d="M15,34c-1-3.3-2-4.1-2-4.1s0.2,2-0.3,1.6c-0.5-0.4-1.4-2.6-2.6-3.6c-1.2-1-3.3-1.4-3.3-1.4
					c-2.6,0.7-3.4,5.1-3.6,7.5H15z"/>
			</g>
		</g>
		<g>
			<g>
				<path fill="#89664C" d="M12,13.9c0,0-0.1-0.7-0.9-0.9c0,0,0.3,0.2,0.5,0.4c0,0,0-0.3-1.3-0.2s-3,0.7-4.5,2.3s-1.5,4.8-1.2,5.8
					c0.3,0.9,0,1.9-0.6,2.5c-0.6,0.6-0.5,1.9-0.5,2.5c0,0.6-1.2,1.4-1.1,2.2S2.2,29.7,2,30c-0.2,0.2,0.3,1.3,0.2,1.8
					C2.2,32.3,2,32.5,2,32.5s0.6-0.3,1.1-0.8c0.5-0.4,1.4-1.7,1.6-2.3c0,0,0,0.8-0.2,1c0,0,0.9-1.8,0.9-2.4c0.1-0.5,2.1-0.7,2.9-1.3
					s1.9-1.4,2-2.7c0.1-1.3,0.3-1.7,0.3-1.7s-0.3,0.9-0.2,1.5c0.1,0.6,0.7,1.7-0.5,2.2c0,0,0.8-0.2,0.9-0.9c0.1-0.7-0.1-0.8-0.2-1.4
					c-0.1-0.6,0.1-1.2,0.1-1.2s0.4,0.7,0.4,1.6c0.1,0.9-0.1,1.2-0.1,1.2s0.5-1-0.2-2.8c0,0-0.8-1.1-0.9-1.9s0.4-1.1,0.9-1.2
					s0.9-0.4,1-0.7c0,0,0,0.3-0.1,0.4c0,0,0.2-0.1,0.2-0.5c0-0.4-0.4-0.7-0.3-1.3c0.1-0.7,0.5-1.2,0.2-1.7S11.3,14.2,12,13.9z"/>
			</g>
		</g>
		<g>
			<g>
				
					<ellipse transform="matrix(0.8287 0.5598 -0.5598 0.8287 13.2106 -2.3964)" fill="#FFD93B" cx="10.5" cy="20.4" rx="1.3" ry="0.9"/>
			</g>
		</g>
		<g>
			<g>
				<path fill="#E24B4B" d="M16.3,19.9c0.3,0,0.4,0,0.4,0c0-0.2-0.4-0.3-0.4-0.3c0.2-0.2,0.1-0.5,0-0.6c0,0-0.1,0.5-0.3,0.6
					c-0.2,0.1-0.4,0.4-0.4,0.4S16.1,19.9,16.3,19.9z"/>
			</g>
		</g>
	</g>
	<g>
		<g>
			<g>
				<g>
					<path fill="#E24B4B" d="M8.2,4.8c0,3,5.2,6.9,5.2,6.9s5.2-3.8,5.2-6.9c0-1.5-1.2-2.8-2.8-2.8c-1.1,0-2,0.6-2.5,1.5
						C13,2.6,12.1,2,11,2C9.5,2,8.2,3.2,8.2,4.8z"/>
				</g>
			</g>
		</g>
	</g>
</g>
</svg>
