<?xml version="1.0" encoding="utf-8"?>
<!-- Generator: Adobe Illustrator 18.0.0, SVG Export Plug-In . SVG Version: 6.00 Build 0)  -->
<!DOCTYPE svg PUBLIC "-//W3C//DTD SVG 1.1//EN" "http://www.w3.org/Graphics/SVG/1.1/DTD/svg11.dtd">
<svg version="1.1" id="Layer_1" xmlns="http://www.w3.org/2000/svg" xmlns:xlink="http://www.w3.org/1999/xlink" x="0px" y="0px"
	 viewBox="0 0 36 36" enable-background="new 0 0 36 36" xml:space="preserve">
<g>
	<g>
		<g>
			<g>
				<g>
					<g>
						<path fill="#F4C534" d="M16.8,20.4c-0.7-0.7-1.3-1.4-1.7-2.3c-0.4-0.8-0.6-1.6-0.7-2.5H9.1c-0.2,1.8-1.1,3.5-2.4,4.8
							C6.6,25.2,16.8,25.2,16.8,20.4z"/>
					</g>
				</g>
				<g>
					<g>
						<g>
							<g>
								
									<ellipse transform="matrix(0.9814 0.1919 -0.1919 0.9814 2.5483 -2.9501)" fill="#FFD93B" cx="16.5" cy="11.7" rx="1" ry="1.7"/>
							</g>
							<g>
								
									<ellipse transform="matrix(0.9814 -0.1919 0.1919 0.9814 -2.1107 1.5689)" fill="#FFD93B" cx="7" cy="11.7" rx="1" ry="1.7"/>
							</g>
						</g>
					</g>
					<g>
						<g>
							<ellipse fill="#FFD93B" cx="11.7" cy="10.9" rx="5" ry="6.4"/>
						</g>
					</g>
					<g>
						<g>
							<path fill="#89664C" d="M7.3,11.5L7.3,11.5C7.1,9.7,7.4,8.1,8.5,6.9c0,0,3.6,3.3,7.8,2l0.1,3.2c0,0,1.3-2.2,1-4.9
								S15,1.8,10.6,2.1S5.8,7.8,7.3,11.5z"/>
						</g>
					</g>
				</g>
				<g>
					<g>
						<path fill="#8D9BA3" d="M21.5,22.6v6.9H3.4C2.6,29.4,2,28.8,2,28v-5.4c0-1.7,1-3.2,2.6-3.8c1.6-0.6,3.5-1.3,4-1.4
							c0.1,1.9,1.4,3.4,3.1,3.4c1.7,0,3-1.5,3.1-3.4c0.5,0.1,2.4,0.7,4,1.4C20.4,19.4,21.5,20.9,21.5,22.6z"/>
					</g>
				</g>
			</g>
			<g>
				<g>
					<g>
						<path fill="#89664C" d="M29.7,6c0,0,1.8,2.5,0.4,12.5c-0.9,6.2-10.4,0.6-10.4,0.3c0.1-0.3,4-8.8,4-8.8"/>
					</g>
				</g>
				<g>
					<g>
						<g>
							<path fill="#89664C" d="M19.5,9.8c0,0-0.6,8.4,2.3,10.8s1.7-7.2,1.7-7.2"/>
						</g>
					</g>
					<g>
						<g>
							<g>
								<path fill="#F4C534" d="M29.4,20.4c-0.7-0.7-1.3-1.4-1.7-2.3c-0.4-0.8-0.6-1.6-0.7-2.5h-5.3c-0.2,1.8-1.1,3.5-2.4,4.8
									C19.2,25.2,29.4,25.2,29.4,20.4z"/>
							</g>
						</g>
					</g>
					<g>
						<g>
							<g>
								<ellipse fill="#FFD93B" cx="24.3" cy="11.2" rx="5.1" ry="6.4"/>
							</g>
						</g>
						<g>
							<g>
								<path fill="#89664C" d="M23.4,5.5c0,0,0.9-0.4,2.6,1s2.8,2.7,2.8,2.7s0.9,3.3-0.8,5.6c0.3-0.2,0.6-0.6,0.9-1
									c0,0-0.3,1.4-1.5,2.5c0,0,2.7-0.6,3.2-4.5c0.5-3.8-1.3-9.7-6-9.7c-4.7,0.1-5.2,5.5-5.5,7.7s-0.2,9.9,2,13.1
									c0,0-0.7-1.3-0.6-2.8c0,0,0.5,0.8,1.5,1.2c0,0-1.6-6.8-1.6-10.2S20.7,7,20.7,7s-0.2,1.4,0,2.3C20.7,9.3,20.4,5.7,23.4,5.5z"
									/>
							</g>
						</g>
					</g>
					<g>
						<g>
							<path fill="#E24B4B" d="M34,22.6V28c0,0.8-0.6,1.4-1.4,1.4h-18v-6.8c0-1.7,1-3.2,2.6-3.8c1.6-0.6,3.5-1.3,4-1.4
								c0.1,1.9,1.4,3.4,3.1,3.4c1.6,0,3-1.5,3.1-3.4c0.5,0.1,2.4,0.7,4,1.4C33,19.4,34,20.9,34,22.6z"/>
						</g>
					</g>
				</g>
			</g>
		</g>
	</g>
	<g>
		<g>
			<g>
				<g>
					<path fill="#F4C534" d="M19.6,29.2c-0.5-0.5-0.9-1-1.2-1.6c-0.3-0.5-0.4-1.1-0.5-1.7h-3.7c-0.2,1.3-0.8,2.4-1.7,3.3
						C12.5,32.4,19.6,32.4,19.6,29.2z"/>
				</g>
			</g>
			<g>
				<g>
					<g>
						<g>
							
								<ellipse transform="matrix(0.9814 0.1919 -0.1919 0.9814 4.7967 -3.2796)" fill="#FFD93B" cx="19.3" cy="23.1" rx="0.7" ry="1.2"/>
						</g>
						<g>
							
								<ellipse transform="matrix(0.9814 -0.1919 0.1919 0.9814 -4.1996 2.8869)" fill="#FFD93B" cx="12.8" cy="23.1" rx="0.7" ry="1.2"/>
						</g>
					</g>
				</g>
				<g>
					<g>
						<ellipse fill="#FFD93B" cx="16" cy="22.6" rx="3.4" ry="4.4"/>
					</g>
				</g>
			</g>
			<g>
				<g>
					<path fill="#65B1EF" d="M22.7,33.9v-3.3c0-1.2-0.7-2.2-1.8-2.6c-1.1-0.4-2.4-0.9-2.8-1c0,1.3-1,2.4-2.1,2.4s-2.1-1-2.1-2.3
						c-0.4,0-1.7,0.5-2.8,1c-1.1,0.4-1.8,1.5-1.8,2.6v3.3H22.7z"/>
				</g>
			</g>
		</g>
		<g>
			<g>
				<path fill="#3E4347" d="M20,22.8c-0.3,0.9-0.9,1.2-1,1.3c0-0.1,0.4-1.4,0.4-2c0-1.3-0.7-2-0.7-2c-0.6,0.3-1.6,0.3-1.8,0.2
					c1.2-0.1,1.5-0.4,1.5-0.4c-3.6,0.3-2.3,1.4-4.5,1.7c0.5-0.3,0.7-0.9,0.7-1.1c-0.3,0.7-1.3,1.1-1.3,1.1l0.1-0.3
					c-1,1.3-0.5,2.8-0.5,2.8c0-0.1-1.2-2-1-3.3c0.1-1.3,0.9-2.7,2.3-3.4c1.3-0.7,3.9-0.6,5.1,0.8C20.4,19.5,20.3,21.9,20,22.8z"/>
			</g>
		</g>
	</g>
</g>
</svg>
