<?xml version="1.0" encoding="utf-8"?>
<!-- Generator: Adobe Illustrator 18.0.0, SVG Export Plug-In . SVG Version: 6.00 Build 0)  -->
<!DOCTYPE svg PUBLIC "-//W3C//DTD SVG 1.1//EN" "http://www.w3.org/Graphics/SVG/1.1/DTD/svg11.dtd">
<svg version="1.1" id="Layer_1" xmlns="http://www.w3.org/2000/svg" xmlns:xlink="http://www.w3.org/1999/xlink" x="0px" y="0px"
	 viewBox="0 0 36 36" enable-background="new 0 0 36 36" xml:space="preserve">
<g>
	<g>
		<g>
			<g>
				<g>
					<g>
						<path fill="#89664C" d="M29.7,6c0,0,1.8,2.5,0.4,12.5c-0.9,6.2-10.4,0.6-10.4,0.3s4-8.8,4-8.8"/>
					</g>
				</g>
				<g>
					<g>
						<g>
							<path fill="#89664C" d="M19.5,9.8c0,0-0.6,8.4,2.3,10.8s1.7-7.2,1.7-7.2"/>
						</g>
					</g>
					<g>
						<g>
							<g>
								<path fill="#F4C534" d="M29.4,20.4c-0.7-0.7-1.3-1.4-1.7-2.3c-0.4-0.8-0.6-1.6-0.7-2.5h-5.3c-0.2,1.8-1.1,3.5-2.4,4.8
									C19.2,25.1,29.4,25.1,29.4,20.4z"/>
							</g>
						</g>
					</g>
					<g>
						<g>
							<g>
								<ellipse fill="#FFD93B" cx="24.3" cy="11.1" rx="5.1" ry="6.4"/>
							</g>
						</g>
						<g>
							<g>
								<path fill="#89664C" d="M23.4,5.5c0,0,0.9-0.4,2.6,1s2.8,2.7,2.8,2.7s0.9,3.3-0.8,5.6c0.3-0.2,0.6-0.6,0.9-1
									c0,0-0.3,1.4-1.5,2.5c0,0,2.7-0.6,3.2-4.5c0.5-3.8-1.3-9.7-6-9.7c-4.7,0.1-5.2,5.5-5.5,7.7s-0.2,9.9,2,13.1
									c0,0-0.7-1.3-0.6-2.8c0,0,0.5,0.8,1.5,1.2c0,0-1.6-6.8-1.6-10.2s0.4-4.3,0.4-4.3s-0.2,1.4,0,2.3C20.7,9.2,20.4,5.6,23.4,5.5
									z"/>
							</g>
						</g>
					</g>
					<g>
						<g>
							<path fill="#65B1EF" d="M34,22.5v10.1c0,0.8-0.6,1.4-1.4,1.4h-18V22.5c0-1.7,1-3.2,2.6-3.8c1.6-0.6,3.5-1.3,4-1.4
								c0.1,1.9,1.4,3.4,3.1,3.4c1.6,0,3-1.5,3.1-3.4c0.5,0.1,2.4,0.7,4,1.4C33,19.3,34,20.8,34,22.5z"/>
						</g>
					</g>
				</g>
			</g>
			<g>
				<g>
					<g>
						<path fill="#F4C534" d="M16.8,20.4c-0.7-0.7-1.3-1.4-1.7-2.3c-0.4-0.8-0.6-1.6-0.7-2.5H9.1c-0.2,1.8-1.1,3.5-2.4,4.8
							C6.6,25.1,16.8,25.1,16.8,20.4z"/>
					</g>
				</g>
				<g>
					<g>
						<g>
							<g>
								
									<ellipse transform="matrix(0.9814 0.1919 -0.1919 0.9814 2.5357 -2.9517)" fill="#FFD93B" cx="16.5" cy="11.6" rx="1" ry="1.7"/>
							</g>
							<g>
								
									<ellipse transform="matrix(0.9814 -0.1919 0.1919 0.9814 -2.098 1.5679)" fill="#FFD93B" cx="7" cy="11.6" rx="1" ry="1.7"/>
							</g>
						</g>
					</g>
					<g>
						<g>
							<ellipse fill="#FFD93B" cx="12.1" cy="10.8" rx="5" ry="6.4"/>
						</g>
					</g>
					<g>
						<g>
							<path fill="#3E4347" d="M16.6,11.5L16.6,11.5c0.2-1.8-0.1-3.4-1.2-4.6c0,0-3.6,3.3-7.8,2L7.5,12c0,0-1.3-2.2-1-4.9
								S8.8,1.7,13.2,2S18.1,7.8,16.6,11.5z"/>
						</g>
					</g>
				</g>
				<g>
					<g>
						<path fill="#E24B4B" d="M21.5,22.5V34H3.4C2.6,34,2,33.4,2,32.6V22.5c0-1.7,1-3.2,2.6-3.8c1.6-0.6,3.5-1.3,4-1.4
							c0.1,1.9,1.4,3.4,3.1,3.4c1.7,0,3-1.5,3.1-3.4c0.5,0.1,2.4,0.7,4,1.4C20.4,19.3,21.5,20.8,21.5,22.5z"/>
					</g>
				</g>
			</g>
		</g>
	</g>
	<g>
		<g>
			<g>
				<g>
					<g>
						<g>
							<path fill="#F4C534" d="M21.9,30.1c0.5-0.5,0.9-1,1.2-1.6c0.3-0.6,0.5-1.2,0.5-1.8h3.8c0.2,1.3,0.8,2.5,1.7,3.4
								C29.1,33.4,21.9,33.4,21.9,30.1z"/>
						</g>
					</g>
					<g>
						<g>
							<g>
								<g>
									
										<ellipse transform="matrix(-0.9814 0.1919 -0.1919 -0.9814 48.3515 43.0375)" fill="#FFD93B" cx="22.1" cy="23.9" rx="0.7" ry="1.2"/>
								</g>
								<g>
									
										<ellipse transform="matrix(-0.9814 -0.1919 0.1919 -0.9814 52.5045 52.806)" fill="#FFD93B" cx="28.8" cy="23.9" rx="0.7" ry="1.2"/>
								</g>
							</g>
						</g>
						<g>
							<g>
								<ellipse fill="#FFD93B" cx="25.5" cy="23.3" rx="3.5" ry="4.5"/>
							</g>
						</g>
					</g>
					<g>
						<g>
							<path fill="#5A5F63" d="M18.6,34v-2.4c0-1.2,0.7-2.3,1.8-2.7c1.2-0.4,2.5-0.9,2.9-1c0.1,1.3,2.2,3,2.2,3s2.1-1.7,2.2-3
								c0.4,0,1.7,0.5,2.9,1c1.1,0.4,1.8,1.5,1.8,2.7V34H18.6z"/>
						</g>
					</g>
				</g>
			</g>
		</g>
		<g>
			<g>
				<g>
					<g>
						<g>
							<path fill="#F4C534" d="M6.2,30.1c0.5-0.5,0.9-1,1.2-1.6c0.3-0.6,0.5-1.2,0.5-1.8h3.8c0.2,1.3,0.8,2.5,1.7,3.4
								C13.5,33.4,6.2,33.4,6.2,30.1z"/>
						</g>
					</g>
					<g>
						<g>
							<g>
								<g>
									
										<ellipse transform="matrix(-0.9814 0.1919 -0.1919 -0.9814 17.4101 46.0343)" fill="#FFD93B" cx="6.5" cy="23.9" rx="0.7" ry="1.2"/>
								</g>
								<g>
									
										<ellipse transform="matrix(-0.9814 -0.1919 0.1919 -0.9814 21.5631 49.8091)" fill="#FFD93B" cx="13.2" cy="23.9" rx="0.7" ry="1.2"/>
								</g>
							</g>
						</g>
						<g>
							<g>
								<ellipse fill="#FFD93B" cx="9.9" cy="23.3" rx="3.5" ry="4.5"/>
							</g>
						</g>
					</g>
					<g>
						<g>
							<path fill="#8CC63E" d="M3,34v-2.4c0-1.2,0.7-2.3,1.8-2.7c1.2-0.4,2.5-0.9,2.9-1c0.1,1.3,2.2,3,2.2,3s2.1-1.7,2.2-3
								c0.4,0,1.7,0.5,2.9,1c1.1,0.4,1.8,1.5,1.8,2.7V34H3z"/>
						</g>
					</g>
				</g>
				<g>
					<g>
						<g>
							<path fill="#3E4347" d="M6,23.5c0.3,0.9,0.8,1.3,0.8,1.4c0-0.1-0.4-1.4-0.4-2.1c0-1.3,0.7-2.1,0.7-2.1S8,21.3,8,22
								c0,0,0.2-0.7,0-1.1c0.2,0.2,1.8,1.8,4.5,1c1,1.4,0.5,2.9,0.5,2.9c0-0.1,1.2-2.1,1.1-3.4c-0.2-1.3-1-2.7-2.3-3.4
								c-1.4-0.7-4.1-0.6-5.2,0.8C5.4,20.1,5.6,22.5,6,23.5z"/>
						</g>
					</g>
				</g>
			</g>
		</g>
		<g>
			<g>
				<path fill="#3E4347" d="M29.7,23.5c0-0.4,0-0.8,0-1.2c-0.3,2.1-1.1,2.9-1.1,2.9c0.4-1.3,0.6-2.1,0.1-3c-0.2,0.3-0.7,0.9-1,1.1
					c0.4-0.4,0.8-1.3,0.8-1.4c-0.8,0.5-1.6,0.7-2.4,0.8c1-0.5,1.4-1.3,1.5-1.6c-0.6,1-1.9,1.5-2.1,1.6c0.5-0.4,1.2-2,1.3-2.2
					c-1.3,2.2-2,1.1-2.9,2.3c0.1-0.5,0.8-1.1,0.8-1.1c-1.1,0.3-1.7,1.6-1.7,1.6C22.9,23,23,22,23,22c-0.4,0.6-0.3,2.1-0.3,2.1
					c-0.2-0.3-0.4-1.2-0.4-1.2c-0.1,0.7,0.1,1.7,0.1,1.9c-0.5-1-0.8-2.8-0.8-2.8c-0.1,1,0.1,2.1,0.3,2.4c-0.4-1.1-1-3.1-0.7-4.4
					c0.4-1.4,1.9-3.6,4.4-3.6c2.5,0,3.2,1.8,3.2,1.8c0.8-0.2,1,1.6,1.1,2.5C30,21.7,29.9,22.6,29.7,23.5z"/>
			</g>
		</g>
		<g>
			<path fill="#FFD93B" d="M22.3,25.1c-0.4,0.1-0.8-0.4-0.9-1.1c-0.1-0.6,0-1.1,0.3-1.3L22.3,25.1z"/>
		</g>
		<g>
			<path fill="#FFD93B" d="M21.7,22.7"/>
		</g>
	</g>
</g>
</svg>
