<?xml version="1.0" encoding="utf-8"?>
<!-- Generator: Adobe Illustrator 18.0.0, SVG Export Plug-In . SVG Version: 6.00 Build 0)  -->
<!DOCTYPE svg PUBLIC "-//W3C//DTD SVG 1.1//EN" "http://www.w3.org/Graphics/SVG/1.1/DTD/svg11.dtd">
<svg version="1.1" id="Layer_1" xmlns="http://www.w3.org/2000/svg" xmlns:xlink="http://www.w3.org/1999/xlink" x="0px" y="0px"
	 viewBox="0 0 36 36" enable-background="new 0 0 36 36" xml:space="preserve">
<g>
	<g>
		<g>
			<path fill="#89664C" d="M9.6,18.1h4.3c2.4,0,4.4-2,4.4-4.4V8.5c0-3.6-2.9-6.5-6.5-6.5h0C8.1,2,5.2,4.9,5.2,8.5v5.3
				C5.2,16.2,7.1,18.1,9.6,18.1z"/>
		</g>
	</g>
	<g>
		<g>
			<g>
				<g>
					<g>
						<g>
							<g>
								<path fill="#F4C534" d="M6.6,20.4c0.7-0.7,1.3-1.4,1.7-2.3c0.4-0.8,0.6-1.6,0.7-2.5h5.3c0.2,1.8,1.1,3.5,2.4,4.8
									C16.8,25.1,6.6,25.1,6.6,20.4z"/>
							</g>
						</g>
					</g>
					<g>
						<g>
							<g>
								<ellipse fill="#FFD93B" cx="11.7" cy="11.1" rx="5.1" ry="6.4"/>
							</g>
						</g>
						<g>
							<g>
								<path fill="#89664C" d="M13.4,6.4c-1.7-1.3-2.6-1-2.6-1C7.8,5.6,8.1,9.2,8.1,9.2c-0.2-0.9,0-2.3,0-2.3s-0.4,1-0.4,4.3
									c0,0.7-0.6,2-0.5,2.9l-0.9-0.6c-0.1-1.6,0-3,0.1-3.7c0.3-2.3,0.8-7.7,5.5-7.7c4.7-0.1,6.6,5.9,6,9.7
									c-0.5,3.8-3.2,4.5-3.2,4.5c1.2-1.1,1.5-2.5,1.5-2.5c-0.3,0.4-0.6,0.7-0.9,1c1.7-2.3,0.8-5.6,0.8-5.6S15.1,7.8,13.4,6.4z"/>
							</g>
						</g>
					</g>
					<g>
						<g>
							<path fill="#65B1EF" d="M2,22.5v10.1C2,33.4,2.6,34,3.4,34h18V22.5c0-1.7-1-3.2-2.6-3.8c-1.6-0.6-3.5-1.3-4-1.4
								c-0.1,1.9-1.4,3.4-3.1,3.4c-1.6,0-3-1.5-3.1-3.4c-0.5,0.1-2.4,0.7-4,1.4C3,19.3,2,20.8,2,22.5z"/>
						</g>
					</g>
				</g>
			</g>
			<g>
				<g>
					<g>
						<path fill="#F4C534" d="M19.2,20.4c0.7-0.7,1.3-1.4,1.7-2.3c0.4-0.8,0.6-1.6,0.7-2.5h5.3c0.2,1.8,1.1,3.5,2.4,4.8
							C29.4,25.1,19.2,25.1,19.2,20.4z"/>
					</g>
				</g>
				<g>
					<g>
						<g>
							<g>
								
									<ellipse transform="matrix(-0.9814 0.1919 -0.1919 -0.9814 40.8558 19.2712)" fill="#FFD93B" cx="19.5" cy="11.6" rx="1" ry="1.7"/>
							</g>
							<g>
								
									<ellipse transform="matrix(-0.9814 -0.1919 0.1919 -0.9814 55.1433 28.5693)" fill="#FFD93B" cx="29" cy="11.6" rx="1" ry="1.7"/>
							</g>
						</g>
					</g>
					<g>
						<g>
							<ellipse fill="#FFD93B" cx="23.9" cy="10.8" rx="5" ry="6.4"/>
						</g>
					</g>
					<g>
						<g>
							<path fill="#3E4347" d="M19.4,11.5L19.4,11.5c-0.2-1.8,0.1-2.7,0.9-3.9c0,0,3.9,2.6,8,1.3l0.1,3.2c0,0,1.3-2.2,1-4.9
								c-0.8-6.2-7.8-5.7-8.9-2.3C18.6,3.6,17.9,7.8,19.4,11.5z"/>
						</g>
					</g>
				</g>
				<g>
					<g>
						<path fill="#7FB239" d="M14.5,22.5V34h18.1c0.8,0,1.4-0.6,1.4-1.4V22.5c0-1.7-1-3.2-2.6-3.8c-1.6-0.6-3.5-1.3-4-1.4
							c-0.1,1.9-1.4,3.4-3.1,3.4c-1.7,0-3-1.5-3.1-3.4c-0.5,0.1-2.4,0.7-4,1.4C15.6,19.3,14.5,20.8,14.5,22.5z"/>
					</g>
				</g>
			</g>
		</g>
	</g>
	<g>
		<g>
			<g>
				<g>
					<ellipse fill="#3E4347" cx="11.4" cy="23.1" rx="4.8" ry="4.7"/>
				</g>
			</g>
			<g>
				<g>
					<g>
						<g>
							<g>
								<path fill="#F4C534" d="M14.6,29.5c-0.5-0.4-0.8-0.9-1.1-1.5c-0.2-0.5-0.4-1.1-0.5-1.6H9.6c-0.1,1.2-0.7,2.3-1.6,3.1
									C8,32.6,14.6,32.6,14.6,29.5z"/>
							</g>
						</g>
						<g>
							<g>
								<path fill="#E24B4B" d="M17.5,34v-3.1c0-1.1-0.7-2-1.7-2.4c-1-0.4-2.3-0.8-2.6-0.9c0,1.2-2,2.2-2,2.2s-1.9-1-2-2.2
									c-0.3,0-1.6,0.5-2.6,0.9c-1,0.4-1.7,1.4-1.7,2.4V34H17.5z"/>
							</g>
						</g>
					</g>
				</g>
				<g>
					<g>
						<g>
							<g>
								<ellipse fill="#FFD93B" cx="11.3" cy="24.2" rx="3.2" ry="3.9"/>
							</g>
						</g>
						<g>
							<g>
								<path fill="#3E4347" d="M9.1,21.9c0,0,0.4,0.5,1.4,0.6c0,0-0.6-0.4-0.6-0.9c0,0,1.1,0.8,2.1,0.8s1,0,1,0s-0.4-0.3-0.7-0.8
									c0,0,0.7,0.8,1.3,0.9c0.6,0.1,0.8,0.3,0.8,0.7c0,0.3,0,2,0,2s2-7-2.4-6.3c0,0-2.7-0.8-3.8,1.5s0.1,4.7,0.1,4.7
									S7.8,23.2,9.1,21.9z"/>
							</g>
						</g>
					</g>
					<g>
						<g>
							<path fill="#E84D88" d="M14.8,23c0,0.1,0,0.2,0,0.2c0-1.9-1.6-3.4-3.5-3.4c-2,0-3.5,1.6-3.5,3.4c0-0.1,0-0.2,0-0.2
								c-0.1-2,1.5-3.7,3.5-3.7C13.3,19.2,14.9,21,14.8,23z"/>
						</g>
					</g>
					<g>
						<g>
							<g>
								<g>
									<path fill="#FC97B2" d="M13.9,20.7c-0.3,0.3-1.1,0-1.3-0.3c-0.3-0.3,0-0.4,0.3-0.7c0.3-0.3,0.4-0.6,0.7-0.3
										C13.9,19.6,14.2,20.4,13.9,20.7z"/>
								</g>
							</g>
							<g>
								<g>
									<path fill="#FC97B2" d="M13.9,20.6c0.3-0.3,1.1,0,1.3,0.3c0.3,0.3-0.7,1.3-1,1C13.9,21.7,13.6,20.9,13.9,20.6z"/>
								</g>
							</g>
						</g>
						<g>
							<g>
								<circle fill="#D23F77" cx="13.9" cy="20.6" r="0.4"/>
							</g>
						</g>
					</g>
				</g>
			</g>
		</g>
		<g>
			<g>
				<g>
					<g>
						<g>
							<path fill="#3E4347" d="M20.5,28.7v-6.3c0-2.2,1.8-4,4-4c2.2,0,4,1.8,4,4v6.3H20.5z"/>
						</g>
					</g>
					<g>
						<g>
							<g>
								<g>
									<path fill="#F4C534" d="M21.2,29.4c0.5-0.4,0.8-0.9,1.1-1.5c0.3-0.5,0.4-1.1,0.5-1.7h3.5c0.2,1.2,0.7,2.3,1.6,3.2
										C27.9,32.6,21.2,32.6,21.2,29.4z"/>
								</g>
							</g>
							<g>
								<g>
									<path fill="#E24B4B" d="M18.1,34v-3.1c0-1.1,0.7-2.1,1.7-2.5c1.1-0.4,2.3-0.9,2.7-0.9c0,1.3,2,2.2,2,2.2s2-1,2-2.2
										c0.4,0,1.6,0.5,2.7,0.9c1,0.4,1.7,1.4,1.7,2.5V34H18.1z"/>
								</g>
							</g>
						</g>
					</g>
					<g>
						<g>
							<g>
								<path fill="#FFD93B" d="M23,22.3c0.3,0,0.6,0,0.8-0.1c0.5,0.8,1.3,1.4,2.5,1.4c0.4,0,0.8-0.1,1.1-0.2c0.1,0.3,0.1,0.6,0.1,1
									c0,2-1.4,3.6-3,3.6c-1.7,0-3-1.6-3-3.6c0-0.8,0.2-1.5,0.6-2.1C22.4,22.3,22.6,22.3,23,22.3z"/>
							</g>
						</g>
					</g>
				</g>
			</g>
			<g>
				<g>
					<path fill="#45CBEA" d="M20.9,22.8c0,0.1,0,0.2,0,0.4c0.2-1.8,1.7-3.2,3.6-3.2s3.4,1.4,3.6,3.2c0-0.1,0-0.2,0-0.4
						c0-2-1.6-3.6-3.6-3.6C22.5,19.2,20.9,20.8,20.9,22.8z"/>
				</g>
			</g>
			<g>
				<path fill="#1DA9BF" d="M27.2,20.5c0,0,0.2-0.2,0-0.5c-0.1-0.3-1.2-0.6-1.2-0.3c0,0.3,0.7,0.8,0.7,0.8l0.1,0.1
					c0,0-0.4,0.5,0,0.6c0.3,0.2,0.6,0.1,0.6,0.1s0.6,0.3,0.5-0.1C27.8,21,27.2,20.5,27.2,20.5z"/>
			</g>
			<g>
				<path fill="#2AB4CD" d="M27.4,20.6c-0.3-0.1-0.5-0.1-0.7,0c-0.1-0.1-0.1-0.2-0.1-0.3c0.2,0,0.4,0,0.7-0.1
					C27.4,20.4,27.4,20.5,27.4,20.6z"/>
			</g>
			<g>
				<g>
					<path fill="#1DA9BF" d="M21.2,21.5c0,0-0.2,0-0.4,0.3c-0.1,0.3,0.4,1.3,0.6,1.1c0.2-0.2,0.1-1.1,0.1-1.1l0-0.1
						c0,0,0.6-0.1,0.5-0.4c-0.1-0.3-0.4-0.5-0.4-0.5s-0.2-0.6-0.4-0.3C21.1,20.7,21.2,21.5,21.2,21.5z"/>
				</g>
				<g>
					<path fill="#2AB4CD" d="M21.1,21.2c0.1,0.2,0.3,0.4,0.5,0.5c0,0.1,0,0.2-0.1,0.3c-0.1-0.2-0.3-0.3-0.5-0.4
						C21,21.4,21.1,21.3,21.1,21.2z"/>
				</g>
			</g>
		</g>
	</g>
</g>
</svg>
