<?xml version="1.0" encoding="utf-8"?>
<!-- Generator: Adobe Illustrator 18.0.0, SVG Export Plug-In . SVG Version: 6.00 Build 0)  -->
<!DOCTYPE svg PUBLIC "-//W3C//DTD SVG 1.1//EN" "http://www.w3.org/Graphics/SVG/1.1/DTD/svg11.dtd">
<svg version="1.1" id="Layer_1" xmlns="http://www.w3.org/2000/svg" xmlns:xlink="http://www.w3.org/1999/xlink" x="0px" y="0px"
	 viewBox="0 0 36 36" enable-background="new 0 0 36 36" xml:space="preserve">
<g>
	<g>
		<g>
			<g>
				<g>
					<g>
						<g>
							<g>
								<g>
									<g>
										<path fill="#FFDC97" d="M13.2,13.3c-0.3-0.4-0.7-0.7-1-0.8c-1.1-0.3-1.6,0.7-1.1,2.2c0.4,1.1,0.8,2.1,1.5,2.1
											c0,0,0.4,0.1,0.9-0.1L13.2,13.3z"/>
									</g>
								</g>
							</g>
							<g>
								<g>
									<g>
										<path fill="#FFDC97" d="M22.8,13.3c0.3-0.4,0.7-0.7,1-0.8c1.1-0.3,1.6,0.7,1.1,2.2c-0.4,1.1-0.8,2.1-1.5,2.1
											c0,0-0.4,0.1-0.9-0.1L22.8,13.3z"/>
									</g>
								</g>
							</g>
						</g>
						<g>
							<g>
								<g>
									<g>
										<path fill="#719D34" d="M32.9,34l-2.6-8.4c-0.4-1.3-1.4-2.2-2.7-2.6L18,20.5l-9.7,2.5C7,23.4,6,24.4,5.6,25.6L3.1,34H32.9
											z"/>
									</g>
								</g>
								<g>
									<g>
										<path fill="#FFD68D" d="M18,24.7c-1.6-1-3-2-3.8-3.2l0-3.6h7.5l0,3.6C20.7,22.9,19.4,24,18,24.7z"/>
									</g>
								</g>
							</g>
							<g>
								<g>
									<g>
										<g>
											<path fill="#FFDC97" d="M23.9,13.7c0,4.6-3.2,6.3-4.9,7c-0.6,0.2-1.3,0.2-2,0c-1.4-0.5-4-1.8-4.8-5.7h0.1v-1.6h-0.2
												c0.1-3.1,2.7-5.6,5.9-5.6C21.5,6.5,24.1,9,23.9,13.7z"/>
										</g>
									</g>
								</g>
								<g>
									<g>
										<g>
											<path fill="#3E4347" d="M13.2,11.1h-1.5c0.1,1.5,0.5,2.7,0.5,3c0,0.3,0,0.7,0.1,1h0.5C12.8,14.6,13.2,11.4,13.2,11.1z"/>
										</g>
									</g>
									<g>
										<path fill="#3E4347" d="M23.1,11.1c0,0.1,0,0.1,0,0.2c-0.1,0.8,0.1,2.6,0.3,3.8h0.4c0.1-0.4,0.3-0.8,0.4-1.4
											c0.2-0.6,0.4-1.5,0.5-2.6H23.1z"/>
									</g>
								</g>
							</g>
						</g>
					</g>
				</g>
			</g>
		</g>
		<g>
			<g>
				<g>
					<g>
						<path fill="#7FB239" d="M24.7,10.2C24.6,4.5,21.7,2,18,2c-3.7,0-6.6,2.5-6.7,8.2C15.8,11.4,20.2,11.4,24.7,10.2z"/>
					</g>
				</g>
			</g>
			<g>
				<g>
					<g>
						<path fill="#719D34" d="M24.7,10.2c-4.5,1.2-8.9,1.2-13.4,0c0-0.1,0-0.1,0-0.2c1.2,0.1,2.7,0.2,4.5,0.3c4,0.2,7.4-1.6,8.2-4.1
							C24.4,7.4,24.7,8.7,24.7,10.2z"/>
					</g>
				</g>
			</g>
			<g>
				<g>
					<path fill="#8CC63E" d="M9.9,11.7c0.3-0.6,0.8-1.1,1.4-1.5c4.4,0.8,9,0.8,13.4,0c0.7,0.3,1.2,0.9,1.4,1.5
						C20.8,12.9,15.2,12.9,9.9,11.7"/>
				</g>
			</g>
		</g>
	</g>
	<g>
		<g>
			<g>
				<path fill="#8CC63E" d="M21.8,20.5c0,0-1.6,2.9-3.8,4.2c0,0,2,0.3,2.7,1.9l2.4-4.7L21.8,20.5z"/>
			</g>
		</g>
		<g>
			<g>
				<path fill="#8CC63E" d="M14.3,20.5c0,0,1.6,2.9,3.8,4.2c0,0-2,0.3-2.7,1.9l-2.4-4.7L14.3,20.5z"/>
			</g>
		</g>
	</g>
	<g>
		<g>
			<path fill="#7FB239" d="M26.8,34v-3.6c0-0.5-0.4-0.9-0.9-0.9h-3.6c-0.5,0-0.9,0.4-0.9,0.9V34H26.8z"/>
		</g>
		<g>
			<path fill="#7FB239" d="M14.5,34v-3.6c0-0.5-0.4-0.9-0.9-0.9h-3.6c-0.5,0-0.9,0.4-0.9,0.9V34H14.5z"/>
		</g>
	</g>
	<g>
		<g>
			<g>
				<path fill="#7FB239" d="M23.4,22.4l-0.2,0.8c-0.1,0.4,0.1,0.8,0.5,0.8c0.9,0.1,2.5,0.5,3.7,1.4c1.9,1.4,2.8,1.7,3.2,1.3
					c0.4-0.4,0.1-1.7-1.2-2.8c-1.3-1.2-4.1-1.8-5.3-1.9C23.8,21.9,23.5,22.1,23.4,22.4z"/>
			</g>
		</g>
		<g>
			<g>
				<path fill="#7FB239" d="M12.6,22.4l0.2,0.8c0.1,0.4-0.1,0.8-0.5,0.8c-0.9,0.1-2.5,0.5-3.7,1.4c-1.9,1.4-2.8,1.7-3.2,1.3
					C5,26.3,5.3,25,6.5,23.9c1.3-1.2,4.1-1.8,5.3-1.9C12.2,21.9,12.5,22.1,12.6,22.4z"/>
			</g>
		</g>
	</g>
</g>
</svg>
