<?xml version="1.0" encoding="utf-8"?>
<!-- Generator: Adobe Illustrator 18.0.0, SVG Export Plug-In . SVG Version: 6.00 Build 0)  -->
<!DOCTYPE svg PUBLIC "-//W3C//DTD SVG 1.1//EN" "http://www.w3.org/Graphics/SVG/1.1/DTD/svg11.dtd">
<svg version="1.1" id="Layer_1" xmlns="http://www.w3.org/2000/svg" xmlns:xlink="http://www.w3.org/1999/xlink" x="0px" y="0px"
	 viewBox="0 0 36 36" enable-background="new 0 0 36 36" xml:space="preserve">
<g>
	<g>
		<g>
			<path fill="#3E4347" d="M26,21.3c-0.9-1.9-0.9-6.2-0.7-9.1H10.8c0.2,2.9,0.2,7.2-0.7,9.1c-1.4,2.8-2.5,3.3-2.5,3.3h20.9
				C28.4,24.6,27.4,24.1,26,21.3z"/>
		</g>
	</g>
	<g>
		<g>
			<g>
				<g>
					<polygon fill="#F4C534" points="21.3,21.6 21.3,19.7 14.6,19.7 14.6,21.6 14.1,22.3 14.1,26.2 21.9,26.2 21.7,22.3 					"/>
				</g>
			</g>
			<g>
				<g>
					<path fill="#45CBEA" d="M31.2,34l-1.4-7.7c-0.3-1.8-1.7-3.2-3.4-3.6l-5-1.2c0,0.1,0,0.2,0,0.3c0,2.3-1.5,4.1-3.4,4.1
						c-1.9,0-3.4-1.8-3.4-4.1c0-0.1,0-0.2,0-0.3l-4.9,1.2c-1.8,0.4-3.1,1.8-3.4,3.6L4.8,34H31.2z"/>
				</g>
			</g>
			<g>
				<path fill="#1DA9BF" d="M11.5,28.6c0,0-0.5,2.5-1.8,5.4h16.4c-1.3-2.9-1.8-5.4-1.8-5.4c-0.3-2.3,0.1-4.2,0.6-6.2L23.4,22
					c-0.6,2.3-0.9,4.6-0.8,6.8c-3.1,0.4-6.2,0.4-9.3,0c0.1-2.2-0.2-4.4-0.8-6.8l-1.5,0.4C11.4,24.4,11.8,26.3,11.5,28.6z"/>
			</g>
			<g>
				<g>
					<g>
						<g>
							<path fill="#FFD93B" d="M25.8,14.8c-0.1,1.5-1,2.7-2,2.7s-1.6-1.2-1.6-2.7s0.9-2.3,1.8-2.7C25.1,11.6,25.9,12.8,25.8,14.8z"
								/>
						</g>
					</g>
					<g>
						<g>
							<path fill="#FFD93B" d="M10.1,14.8c0.1,1.5,1,2.7,2,2.7s1.6-1.2,1.6-2.7s-0.9-2.3-1.8-2.7C10.8,11.6,9.9,12.8,10.1,14.8z"/>
						</g>
					</g>
				</g>
				<g>
					<g>
						<ellipse fill="#3E4347" cx="17.9" cy="11.5" rx="7.5" ry="7.9"/>
					</g>
				</g>
				<g>
					<g>
						<path fill="#FFD93B" d="M24.3,14c0,3.5-2.1,6-3.8,7.5c-1.5,1.3-3.6,1.3-5.1,0c-1.8-1.5-3.8-4.1-3.8-7.5c0-0.7,0-1.3,0.1-1.9
							c0.2-1,1.2-1.9,2.1-1.5c2.7,1,5.5,0.9,8.3,0c0.9-0.3,1.9,0.5,2.1,1.5C24.3,12.7,24.3,13.4,24.3,14z"/>
					</g>
				</g>
				<g>
					<g>
						<path fill="#38C0DC" d="M11.1,8.3c0,0,3.1-0.8,7.1,0.9c0.3,0,3.1-2.9,6.2-1.8c-0.4-2.1-1.1-3.9-2.4-5.4
							c-3.1,0-5.9,0.3-7.8,1.7C14.1,3.7,12,5,11.1,8.3z"/>
					</g>
				</g>
			</g>
		</g>
		<g>
			<path fill="#2AB4CD" d="M23.5,4.7c0,0,0-0.1,0-0.1c-2-0.4-4.2,0.9-5.7,2.1c-1.7-0.9-3.7-1-5.6-0.9c0,0.1-0.1,0.1-0.1,0.2
				c1.9,0.1,4,0.2,5.6,1.2l0.1,0.1l0.1-0.1C19.3,5.9,21.6,4.5,23.5,4.7z"/>
		</g>
	</g>
</g>
</svg>
