<?xml version="1.0" encoding="utf-8"?>
<!-- Generator: Adobe Illustrator 18.0.0, SVG Export Plug-In . SVG Version: 6.00 Build 0)  -->
<!DOCTYPE svg PUBLIC "-//W3C//DTD SVG 1.1//EN" "http://www.w3.org/Graphics/SVG/1.1/DTD/svg11.dtd">
<svg version="1.1" id="Layer_1" xmlns="http://www.w3.org/2000/svg" xmlns:xlink="http://www.w3.org/1999/xlink" x="0px" y="0px"
	 viewBox="0 0 36 36" enable-background="new 0 0 36 36" xml:space="preserve">
<g>
	<g>
		<g>
			<g>
				<path fill="#363B3F" d="M27.9,9.6c0.3,1-4,8.6-9.9,8.6c-5.9,0-10.2-7.6-9.9-8.6c0.3-1,4.7,1.3,9.9,1.3
					C23.2,10.9,27.6,8.6,27.9,9.6z"/>
			</g>
		</g>
		<g>
			<g>
				<g>
					<g>
						<g>
							<g>
								<g>
									<g>
										<g>
											<g>
												<g>
													<g>
														<path fill="#DAE5EF" d="M30.7,34l-1.3-7.7c-0.4-1.2-1.3-2.1-2.5-2.4L18,21.6l-8.9,2.3c-1.2,0.3-2.1,1.2-2.5,2.4
															L5.3,34H30.7z"/>
													</g>
												</g>
												<g>
													<g>
														<path fill="#2AB4CD" d="M30.7,34l-1.3-7.7c-0.4-1.2-1.3-2.1-2.5-2.4L18,21.6l-8.9,2.3c-1.2,0.3-2.1,1.2-2.5,2.4
															L5.3,34H30.7z"/>
													</g>
												</g>
												<g>
													<g>
														<path fill="#5A5F63" d="M18,32.1c3.3-1.8,5-4.2,5-6.5c0-0.6-0.1-1.3-0.4-1.9c-0.2-0.6-0.8-1.1-1.4-1.2L18,21.6
															l-3.2,0.8c-0.6,0.2-1.2,0.6-1.4,1.2C12.3,26.6,13.8,29.8,18,32.1z"/>
													</g>
												</g>
												<g>
													<g>
														<path fill="#F4C534" d="M21.2,19.3v3.1c-0.8,1-2,1.5-3.2,1.5s-2.4-0.5-3.2-1.5v-3.1H21.2z"/>
													</g>
												</g>
											</g>
										</g>
									</g>
								</g>
							</g>
						</g>
					</g>
				</g>
			</g>
			<g>
				<g>
					<g>
						<g>
							<g>
								<g>
									<g>
										<g>
											<g>
												<g>
													<path fill="#FFD93B" d="M23.8,15.7c0,4.5-3.2,6.3-4.8,6.8c-0.6,0.2-1.3,0.2-2,0c-1.4-0.5-3.9-1.7-4.7-5.6h0.1v-1.5
														h-0.2c0.1-3.1,2.7-5.5,5.8-5.5C21.4,8.5,24,11,23.8,15.7z"/>
												</g>
											</g>
										</g>
									</g>
								</g>
							</g>
						</g>
					</g>
					<g>
						<g>
							<g>
								<g>
									<g>
										<g>
											<g>
												<g>
													<g>
														<path fill="#FFD93B" d="M13.2,15.2c-0.3-0.4-0.6-0.7-1-0.8c-1.1-0.3-1.6,0.7-1.1,2.2c0.4,1.1,0.8,2.1,1.4,2.1
															c0,0,0.4,0.1,0.9-0.1L13.2,15.2z"/>
													</g>
												</g>
											</g>
										</g>
										<g>
											<g>
												<g>
													<g>
														<path fill="#FFD93B" d="M22.8,15.2c0.3-0.4,0.6-0.7,1-0.8c1.1-0.3,1.6,0.7,1.1,2.2c-0.4,1.1-0.8,2.1-1.4,2.1
															c0,0-0.4,0.1-0.9-0.1L22.8,15.2z"/>
													</g>
												</g>
											</g>
										</g>
									</g>
								</g>
							</g>
						</g>
					</g>
				</g>
			</g>
			<g>
				<g>
					<g>
						<g>
							<path fill="#7A5B44" d="M23,9.3c0,0-1.2-4.3-7.3-2.7c-5.2,1.4-4,7.7-3.4,10.3l0.7,0.1c-0.1-0.9-0.1-1.2-0.1-1.5
								c0,0-0.1-3.6,2.3-3c1.9,0.5,3.8,0.1,5.6-0.7c1.1-0.5,2.3,0.3,2.2,1.4c0,0,0,0,0,0C23,14,23.2,15.8,23.3,17h0.4
								C23.8,16.6,26.5,9.2,23,9.3z"/>
						</g>
					</g>
				</g>
			</g>
			<g>
				<g>
					<g>
						<path fill="#363B3F" d="M25.1,10.3l-7.1,1l-7.1-1h0.2l2.1-6.6c0.5-1.4,2.1-2.1,3.4-1.4c0.1,0,0.1,0.1,0.2,0.1
							c0.8,0.4,1.7,0.4,2.4,0c0.1,0,0.1-0.1,0.2-0.1c1.3-0.7,2.9,0,3.4,1.4l2.1,6.6H25.1z"/>
					</g>
				</g>
				<g>
					<g>
						<path fill="#3E4347" d="M27.9,9.6c0.3,1-4,3.8-9.9,3.8c-5.9,0-10.2-2.8-9.9-3.8c0.3-1,4.7,1.3,9.9,1.3
							C23.2,10.9,27.6,8.6,27.9,9.6z"/>
					</g>
				</g>
			</g>
		</g>
		<g>
			<g>
				<path fill="#E24B4B" d="M24,7.4c-1.6,0.5-3.6,1.1-5.9,1.1c-0.1,0-0.2,0-0.2,0c-2.2,0-4.3-0.6-5.8-1.1c-0.3-0.1-0.7,1.2-0.4,1.3
					c1.7,0.5,3.8,1.1,6.2,1.1c0,0,0.1,0,0.1,0c2.5,0,4.7-0.6,6.4-1.1C24.7,8.6,24.3,7.4,24,7.4z"/>
			</g>
		</g>
		<g>
			<g>
				<path fill="#FFD93B" d="M25.8,34l-0.7-3.5c0,0,2.2-1.4,4.8-1l0.8,4.5H25.8z"/>
			</g>
		</g>
		<g>
			<g>
				<path fill="#FFD93B" d="M10.2,34l0.7-3.5c0,0-2.2-1.4-4.8-1L5.3,34H10.2z"/>
			</g>
		</g>
	</g>
	<g>
		<g>
			<g>
				<path fill="#3E4347" d="M21.2,22.4c0,0,0.1,2-0.6,3.7s0.3,0.9,0.6-0.3S21.2,22.4,21.2,22.4z"/>
			</g>
		</g>
		<g>
			<g>
				<path fill="#3E4347" d="M14.8,22.4c0,0-0.1,2,0.6,3.7c0.7,1.6-0.3,0.9-0.6-0.3S14.8,22.4,14.8,22.4z"/>
			</g>
		</g>
	</g>
</g>
</svg>
