<?xml version="1.0" encoding="utf-8"?>
<!-- Generator: Adobe Illustrator 18.0.0, SVG Export Plug-In . SVG Version: 6.00 Build 0)  -->
<!DOCTYPE svg PUBLIC "-//W3C//DTD SVG 1.1//EN" "http://www.w3.org/Graphics/SVG/1.1/DTD/svg11.dtd">
<svg version="1.1" id="Layer_1" xmlns="http://www.w3.org/2000/svg" xmlns:xlink="http://www.w3.org/1999/xlink" x="0px" y="0px"
	 viewBox="0 0 36 36" enable-background="new 0 0 36 36" xml:space="preserve">
<g>
	<g>
		<g>
			<g>
				<g>
					<g>
						<g>
							<g>
								<g>
									<g>
										<g>
											<g>
												<g>
													<g>
														<g>
															<g>
																<path fill="#DAE5EF" d="M32.3,34l-1.5-8.6C30.4,24,29.3,23,28,22.7l-10-2.6L8,22.7C6.7,23,5.6,24,5.2,25.4L3.7,34
																	H32.3z"/>
															</g>
														</g>
														<g>
															<g>
																<path fill="#38C0DC" d="M32.3,34l-1.5-8.6C30.4,24,29.3,23,28,22.7l-10-2.6L8,22.7C6.7,23,5.6,24,5.2,25.4L3.7,34
																	H32.3z"/>
															</g>
														</g>
														<g>
															<g>
																<path fill="#E9EFF4" d="M22.5,21.2L18,20.1l-4.6,1.2c0.2,0.9,0.9,1.5,1.6,1.9c1.7,1,3.9,1,5.6,0
																	C21.5,22.8,22.2,22.2,22.5,21.2z"/>
															</g>
														</g>
														<g>
															<g>
																<path fill="#F4C534" d="M21.6,17.5V21c-0.9,1.1-2.3,1.7-3.6,1.7c-1.3,0-2.7-0.6-3.6-1.7v-3.5H21.6z"/>
															</g>
														</g>
													</g>
												</g>
											</g>
										</g>
									</g>
								</g>
							</g>
						</g>
					</g>
					<g>
						<g>
							<g>
								<g>
									<g>
										<g>
											<g>
												<g>
													<g>
														<g>
															<path fill="#FFD93B" d="M24.5,13.4c0,5.1-3.5,7-5.4,7.7c-0.7,0.2-1.5,0.3-2.2,0c-1.6-0.5-4.4-2-5.3-6.3h0.1v-1.7
																h-0.2c0.2-3.5,3-6.2,6.5-6.2C21.8,5.4,24.8,8.2,24.5,13.4z"/>
														</g>
													</g>
												</g>
											</g>
										</g>
									</g>
								</g>
							</g>
							<g>
								<g>
									<g>
										<g>
											<g>
												<g>
													<g>
														<g>
															<g>
																<path fill="#FFD93B" d="M12.7,12.9c-0.3-0.5-0.7-0.8-1.2-0.9c-1.2-0.3-1.8,0.8-1.2,2.5c0.4,1.3,0.8,2.3,1.6,2.3
																	c0,0,0.4,0.1,1-0.1L12.7,12.9z"/>
															</g>
														</g>
													</g>
												</g>
												<g>
													<g>
														<g>
															<g>
																<path fill="#FFD93B" d="M23.3,12.9c0.3-0.5,0.7-0.8,1.2-0.9c1.2-0.3,1.8,0.8,1.2,2.5c-0.4,1.3-0.8,2.3-1.6,2.3
																	c0,0-0.4,0.1-1-0.1L23.3,12.9z"/>
															</g>
														</g>
													</g>
												</g>
											</g>
										</g>
									</g>
								</g>
							</g>
						</g>
					</g>
					<g>
						<g>
							<g>
								<g>
									<path fill="#7A5B44" d="M23.8,4.8c0,0-1.6-4.2-8.4-2.4c-5.9,1.6-4.1,9.6-3.5,12.5h0.4c-0.1-1-0.1-1.4-0.1-1.7
										c0,0-0.2-4,2.6-3.3c2.1,0.6,4.3,0.1,6.3-0.8c1.2-0.5,2.6,0.3,2.5,1.6c0,0,0,0,0,0c-0.1,0.9,0.2,2.8,0.3,4.2h0.4
										C24.5,14.5,27.7,4.7,23.8,4.8z"/>
								</g>
							</g>
						</g>
					</g>
				</g>
			</g>
		</g>
		<g>
			<g>
				<polygon fill="#1DA9BF" points="18.2,24 17.9,34 18.5,34 				"/>
			</g>
		</g>
		<g>
			<g>
				<path fill="#1DA9BF" d="M16.9,27.9c0,0.4-0.3,0.7-0.7,0.7c-0.4,0-0.7-0.3-0.7-0.7s0.3-0.7,0.7-0.7
					C16.6,27.2,16.9,27.5,16.9,27.9z"/>
			</g>
		</g>
		<g>
			<g>
				<path fill="#1DA9BF" d="M16.9,31c0,0.4-0.3,0.7-0.7,0.7c-0.4,0-0.7-0.3-0.7-0.7s0.3-0.7,0.7-0.7C16.6,30.4,16.9,30.7,16.9,31z"
					/>
			</g>
		</g>
	</g>
	<g>
		<g>
			<path fill="#E9EFF4" d="M23.1,15.1c0,0.1,0,0.3,0,0.4c0.1,0.3,0.1,0.7,0.1,1c0,2.5-1.7,3.9-3.2,4.6c-0.6,0.3-1.3,0.5-2,0.5
				c-0.7,0-1.4-0.2-2-0.5c-2.7-1.3-3.6-3.6-3.1-5.7c0.1-0.4,0-0.9-0.3-1.2l-2-2.2c0-0.1,0.5-0.3,0.6-0.2c4.1,4.3,0.5,1.3,6.9,1.3
				c1.7,0,3.2,0.2,4.2,0.9c0.1,0.1,0.2,0.1,0.4,0.1c0.1,0,0.3-0.1,0.4-0.2l2.2-2.2c0.1-0.1,0.5,0.2,0.4,0.3l-2.1,2.1
				C23.2,14.5,23.1,14.8,23.1,15.1z"/>
		</g>
	</g>
</g>
</svg>
