<?xml version="1.0" encoding="utf-8"?>
<!-- Generator: Adobe Illustrator 18.0.0, SVG Export Plug-In . SVG Version: 6.00 Build 0)  -->
<!DOCTYPE svg PUBLIC "-//W3C//DTD SVG 1.1//EN" "http://www.w3.org/Graphics/SVG/1.1/DTD/svg11.dtd">
<svg version="1.1" id="Layer_1" xmlns="http://www.w3.org/2000/svg" xmlns:xlink="http://www.w3.org/1999/xlink" x="0px" y="0px"
	 viewBox="0 0 36 36" enable-background="new 0 0 36 36" xml:space="preserve">
<g>
	<g>
		<g>
			<path fill="#89664C" d="M27.7,27.5h-9.4c0,0-0.2-1.4-0.3-3.4c-0.2,2.1-0.3,3.4-0.3,3.4H8.3c1.7-4.2,2.2-7.7,1.3-10
				c-1-2.3-2.1-8.5,0.5-13.3c1.7-3.1,5.6-1.7,5.6-1.7c1.3,0.8,2,3.1,2.4,5.9c0.4-2.8,1.1-5.1,2.4-5.9c0,0,3.9-1.5,5.6,1.7
				c2.6,4.7,1.5,11,0.5,13.3C25.5,19.8,26,23.3,27.7,27.5z"/>
		</g>
	</g>
	<g>
		<g>
			<g>
				<polygon fill="#FFE9AB" points="21.6,15.9 14.4,15.9 14.4,22 18,33.9 21.6,22 				"/>
			</g>
		</g>
		<g>
			<g>
				<g>
					<g>
						<path fill="#FFE9AB" d="M12.2,13.7c0.1,1.2-0.5,2.2-1.3,2.2s-1.5-1-1.6-2.2s0.5-2.2,1.3-2.2S12.1,12.5,12.2,13.7z"/>
					</g>
				</g>
				<g>
					<g>
						<path fill="#FFDC97" d="M23.8,13.7C23.7,15,24.3,16,25.1,16c0.8,0,1.5-1,1.6-2.2s-0.5-2.2-1.3-2.2
							C24.6,11.5,23.9,12.5,23.8,13.7z"/>
					</g>
				</g>
			</g>
			<g>
				<g>
					<g>
						<g>
							<g>
								<g>
									<g>
										<g>
											<g>
												<g>
													<g>
														<g>
															<g>
																<g>
																	<g>
																		<g>
																			<g>
																				<g>
																					<g>
																						<g>
																							<g>
																								<path fill="#FFE9AB" d="M25.3,13.4c0,4.4-3.3,7.9-7.3,7.9c-4,0-7.3-3.5-7.3-7.9C10.7,9,14,5.5,18,5.5
																									C22,5.5,25.3,9,25.3,13.4z"/>
																							</g>
																						</g>
																					</g>
																				</g>
																			</g>
																		</g>
																	</g>
																</g>
															</g>
														</g>
													</g>
												</g>
											</g>
										</g>
									</g>
								</g>
								<g>
									<g>
										<g>
											<g>
												<g>
													<g>
														<g>
															<g>
																<g>
																	<g>
																		<path fill="#FFDC97" d="M25.3,13.4c0,4.4-3.3,7.9-7.3,7.9c-2.3,0-4.3-1.2-5.7-3c1.2,1.1,2.8,1.7,4.5,1.7
																			c4,0,7.3-3.5,7.3-7.9c0-1.9-0.6-3.6-1.6-5C24.2,8.7,25.3,10.9,25.3,13.4z"/>
																	</g>
																</g>
															</g>
														</g>
													</g>
												</g>
											</g>
										</g>
									</g>
								</g>
								<g>
									<g>
										<g>
											<g>
												<path fill="#3E4347" d="M15.8,17.7c-0.1-0.2-0.1-0.4,0.1-0.5c0.2-0.1,0.4-0.1,0.5,0.1c0.8,1.1,2.4,1.1,3.2,0
													c0.1-0.2,0.4-0.2,0.5-0.1c0.2,0.1,0.2,0.4,0.1,0.5C19.1,19.2,16.9,19.2,15.8,17.7z"/>
											</g>
										</g>
									</g>
								</g>
							</g>
						</g>
					</g>
				</g>
			</g>
			<g>
				<g>
					<g>
						<g>
							<g>
								<g>
									<g>
										<g>
											<g>
												<ellipse fill="#3E4347" cx="15.2" cy="14" rx="1.2" ry="1.2"/>
											</g>
										</g>
									</g>
								</g>
							</g>
						</g>
					</g>
					<g>
						<g>
							<path fill="#5A5F63" d="M15.9,13.8c-0.1,0.1-0.3,0-0.4-0.1c-0.1-0.2-0.1-0.3,0-0.4c0.1-0.1,0.3,0,0.4,0.1
								C16,13.5,16,13.7,15.9,13.8z"/>
						</g>
					</g>
				</g>
				<g>
					<g>
						<g>
							<g>
								<g>
									<g>
										<g>
											<g>
												<ellipse fill="#3E4347" cx="20.8" cy="14" rx="1.2" ry="1.2"/>
											</g>
										</g>
									</g>
								</g>
							</g>
						</g>
					</g>
					<g>
						<g>
							<path fill="#5A5F63" d="M21.4,13.8c-0.1,0.1-0.3,0-0.4-0.1c-0.1-0.2-0.1-0.3,0-0.4c0.1-0.1,0.3,0,0.4,0.1
								C21.6,13.5,21.6,13.7,21.4,13.8z"/>
						</g>
					</g>
				</g>
			</g>
		</g>
		<g>
			<g>
				<path fill="#89664C" d="M25.3,14L25.3,14l-0.5-2.4c-7.6,0.3-9.8-3-9.8-3c-0.7,2.8-3.6,2.7-3.6,2.7L10.8,14l0,0v-6
					c0.2-6.1,6.4-6.7,9.9-5.2C22,3.2,22.9,4.1,22.9,5C28,3,25.3,14,25.3,14z"/>
			</g>
		</g>
		<g>
			<g>
				<g>
					<g>
						<polygon fill="#E9EFF4" points="18,34 18,34 18,34 18,34 18,33.9 						"/>
					</g>
				</g>
			</g>
			<g>
				<g>
					<g>
						<path fill="#E9EFF4" d="M29.2,31.1c0,1.6-1.3,2.9-2.9,2.9H9.7c-1.6,0-2.9-1.3-2.9-2.9c0-2.5,0.2-5.9,1.3-7.4
							c1-1.3,6.3-1.7,6.3-1.7c0.8,3,2.1,8.3,3.6,12c1.5-3.7,2.8-9,3.6-12c0,0,5.4,0.5,6.3,1.8C29,25.2,29.2,28.6,29.2,31.1z"/>
					</g>
				</g>
				<g>
					<g>
						<circle fill="#CBD6E0" cx="10.3" cy="30" r="1.8"/>
					</g>
				</g>
				<g>
					<g>
						<path fill="#FFFFFF" d="M24.3,26.4c0.2,0.2,0.3,0.6,0.1,0.8L18,34l0,0l3.6-12l2.7,2.2c0.3,0.2,0.3,0.6,0,0.8l-1,0.7L24.3,26.4
							z"/>
					</g>
					<g>
						<path fill="#FFFFFF" d="M14.4,22L18,33.9l0,0l-6.3-6.7c-0.2-0.2-0.2-0.6,0.1-0.8l1-0.8l-1-0.7c-0.3-0.2-0.3-0.6,0-0.8L14.4,22
							z"/>
					</g>
					<g>
						<polygon fill="#E9EFF4" points="18,34 18,34 18,34 18,33.9 18,34 						"/>
					</g>
				</g>
			</g>
		</g>
		<g>
			<g>
				<g>
					<g>
						<path fill="#65B1EF" d="M27.8,27.8l-0.8,0.1l-0.2-1.2c0-0.3-0.3-0.6-0.7-0.5l-2.7,0.3c-0.3,0-0.6,0.4-0.5,0.7l0.1,1.1
							l-0.8,0.1l0.1,0.4h0L22,27.3c-0.1-0.8,0.5-1.5,1.3-1.6l2.7-0.3c0.8-0.1,1.5,0.5,1.6,1.3L27.8,27.8z"/>
					</g>
				</g>
			</g>
			<g>
				<g>
					<g>
						<path fill="#CBD6E0" d="M24.1,31.7c-0.1,0.2-0.4,0.3-0.6,0.2c-0.7-0.5-1.1-1.2-1.2-2l-0.2-1.5l0.8-0.1l0.2,1.5
							c0.1,0.6,0.4,1.1,0.8,1.4C24.2,31.3,24.2,31.5,24.1,31.7z"/>
					</g>
					<g>
						<path fill="#CBD6E0" d="M27.2,31.5c-0.2,0.2-0.5,0.2-0.6,0c-0.1-0.2-0.1-0.4,0-0.5c0.4-0.4,0.6-1,0.5-1.6l-0.2-1.5l0.8-0.1
							l0.2,1.5C28,30.1,27.8,30.9,27.2,31.5z"/>
					</g>
				</g>
			</g>
		</g>
		<g>
			<g>
				<g>
					<g>
						<path fill="#65B1EF" d="M25,25.6l-0.8,0.2c0,0-0.8-2.7-2.6-3.9v-1C24,22.2,25,25.5,25,25.6z"/>
					</g>
				</g>
			</g>
			<g>
				<g>
					<g>
						<path fill="#65B1EF" d="M14.4,21V22c-2.9,1.6-3.7,8.1-3.7,8.1L9.9,30C9.9,29.7,10.8,22.5,14.4,21z"/>
					</g>
				</g>
			</g>
		</g>
		<g>
			<g>
				<circle fill="#3E4347" cx="10.3" cy="30" r="0.8"/>
			</g>
		</g>
	</g>
</g>
</svg>
