<?xml version="1.0" encoding="utf-8"?>
<!-- Generator: Adobe Illustrator 18.0.0, SVG Export Plug-In . SVG Version: 6.00 Build 0)  -->
<!DOCTYPE svg PUBLIC "-//W3C//DTD SVG 1.1//EN" "http://www.w3.org/Graphics/SVG/1.1/DTD/svg11.dtd">
<svg version="1.1" id="Layer_1" xmlns="http://www.w3.org/2000/svg" xmlns:xlink="http://www.w3.org/1999/xlink" x="0px" y="0px"
	 viewBox="0 0 36 36" enable-background="new 0 0 36 36" xml:space="preserve">
<g>
	<g>
		<g>
			<g>
				<path fill="#F4C534" d="M21.2,24.2c0,5.1-6.4,5.1-6.4,0l0-8.4h6.4V24.2z"/>
			</g>
		</g>
		<g>
			<g>
				<g>
					<path fill="#3E4347" d="M33.9,34H2.1L4,27.4c0.3-1.1,1.2-1.9,2.3-2.2l7-1.8l4.7,2l4.7-2l7,1.8c1.1,0.3,2,1.1,2.3,2.2L33.9,34z"
						/>
				</g>
			</g>
			<g>
				<g>
					<polygon fill="#CBD6E0" points="18,25.4 22.3,25.4 19.8,34 16.2,34 13.1,26 					"/>
				</g>
			</g>
			<g>
				<polygon fill="#E24B4B" points="16.2,34 19.8,34 20.3,32.5 18.9,27.4 19.7,26.5 18.6,25.4 18,25.4 17.3,25.5 16.3,26.5 
					17.1,27.4 15.7,32.7 				"/>
			</g>
			<g>
				<g>
					<path fill="#E9EFF4" d="M21.2,21.3L18,25.4c0,0,2.1,1.4,2.7,2.9l2-4.8L21.2,21.3z"/>
				</g>
			</g>
			<g>
				<g>
					<path fill="#5A5F63" d="M22.9,34c1.1-1.8,1.9-3.4,2.3-4.9l-1.5-0.6l3.1-1.4c-1.3-2.5-3.2-4.6-5.7-6.3c0,4.6-0.5,9-1.4,13.2
						H22.9z"/>
				</g>
			</g>
		</g>
		<g>
			<g>
				<g>
					<path fill="#E9EFF4" d="M14.8,21.3l3.2,4.1c0,0-2.1,1.4-2.7,2.9l-2-4.8L14.8,21.3z"/>
				</g>
			</g>
			<g>
				<g>
					<path fill="#5A5F63" d="M10.8,29.1c0.4,1.4,1.2,3.1,2.3,4.9h3.1c-0.9-4.2-1.3-8.6-1.4-13.2c-2.5,1.7-4.4,3.8-5.7,6.3l3.1,1.4
						L10.8,29.1z"/>
				</g>
			</g>
		</g>
		<g>
			<g>
				<g>
					<g>
						<path fill="#FFD93B" d="M24.2,12.2c-0.1,0-0.1,0.1-0.2,0.1c-0.2,1.3-0.6,2.7-1.2,3.9c0.2,0.2,0.4,0.3,0.6,0.3
							c0.8,0.1,1.7-0.8,2-2C26,12.8,25.3,11.6,24.2,12.2z"/>
					</g>
				</g>
				<g>
					<g>
						<path fill="#FFD93B" d="M11.8,12.2c0.1,0,0.1,0.1,0.2,0.1c0.2,1.3,0.6,2.7,1.2,3.9c-0.2,0.2-0.4,0.3-0.6,0.3
							c-0.8,0.1-1.7-0.8-2-2C10,12.8,10.7,11.6,11.8,12.2z"/>
					</g>
				</g>
			</g>
			<g>
				<g>
					<path fill="#3E4347" d="M11,9.8c0,0.3,0,0.5,0,0.8c0,4.3,3.1,7.8,7,7.8c3.9,0,7-3.5,7-7.8c0-0.3,0-0.5,0-0.8H11z"/>
				</g>
			</g>
			<g>
				<g>
					<g>
						<g>
							<path fill="#FFD93B" d="M12.1,11c-0.1,0.6-0.1,1.2-0.1,1.9c0,4.8,3.2,7.3,4.9,8.3c0.7,0.4,1.4,0.4,2.1,0c1.7-1,5-3.5,5-8.3
								c0-0.7,0-1.3-0.1-1.9H12.1z"/>
						</g>
					</g>
				</g>
			</g>
			<g>
				<g>
					<g>
						<path fill="#D03F3F" d="M25.2,11c0-4.8-3.2-8.6-7.2-8.6c-3.9,0-7.1,3.9-7.2,8.6H25.2z"/>
					</g>
				</g>
				<g>
					<g>
						<path fill="#BF3333" d="M19.4,2.6v7.7h-2.9V2.6C16.6,1.8,19.4,1.8,19.4,2.6z"/>
					</g>
				</g>
				<g>
					<g>
						<path fill="#E24B4B" d="M25,12c-4.6-1.1-9.4-1.1-14.1,0c-0.4,0.1-0.9-0.2-1-0.6c0-0.1,0-0.2-0.1-0.2c-0.1-0.5,0.2-0.9,0.6-1
							c4.9-1.1,9.9-1.1,14.8,0c0.5,0.1,0.7,0.6,0.6,1c0,0.1,0,0.2-0.1,0.2C25.9,11.8,25.5,12.1,25,12z"/>
					</g>
				</g>
			</g>
		</g>
	</g>
	<g>
		<g>
			<g>
				<path fill="#E24B4B" d="M12.3,5.9c0,0-0.2,1.6,0.4,2.8c0,0,0-2.8,0.3-3.8C12.9,4.7,12.3,5.3,12.3,5.9z"/>
			</g>
		</g>
		<g>
			<g>
				<path fill="#E24B4B" d="M23.7,5.9c0,0,0.2,1.6-0.4,2.8c0,0,0-2.8-0.3-3.8C23.1,4.7,23.7,5.3,23.7,5.9z"/>
			</g>
		</g>
	</g>
</g>
</svg>
