<?xml version="1.0" encoding="utf-8"?>
<!-- Generator: Adobe Illustrator 18.0.0, SVG Export Plug-In . SVG Version: 6.00 Build 0)  -->
<!DOCTYPE svg PUBLIC "-//W3C//DTD SVG 1.1//EN" "http://www.w3.org/Graphics/SVG/1.1/DTD/svg11.dtd">
<svg version="1.1" id="Layer_1" xmlns="http://www.w3.org/2000/svg" xmlns:xlink="http://www.w3.org/1999/xlink" x="0px" y="0px"
	 viewBox="0 0 36 36" enable-background="new 0 0 36 36" xml:space="preserve">
<g>
	<g>
		<g>
			<g>
				<path fill="#45CBEA" d="M34,34H2l1.3-8c0.3-2.2,1.8-4,3.8-4.8l3-1.2l7.9-1l7.9,1l3,1.2c2,0.8,3.5,2.6,3.8,4.8L34,34z"/>
			</g>
		</g>
		<g>
			<g>
				<path fill="#38C0DC" d="M26.7,25.6c0.1,2.7,0.6,5.8,1.4,8.4H7.9c0.8-2.6,1.3-5.7,1.4-8.4c0.1-1.8-0.5-3.4-1.6-4.7l2.4-1l7.9-1
					l7.9,1l2.4,1C27.2,22.2,26.6,23.8,26.7,25.6z"/>
			</g>
		</g>
	</g>
	<g>
		<g>
			<g>
				<path fill="#38C0DC" d="M25.8,18V9.8C25.8,5.5,22.4,2,18,2c-4.3,0-7.8,3.5-7.8,7.8V18H25.8z"/>
			</g>
			<g>
				<g>
					<g>
						<g>
							<path fill="#3E4347" d="M24.3,11v3.5c0,0.8-0.6,1.4-1.4,1.4h-9.8c-0.8,0-1.4-0.6-1.4-1.4V11c0-1.5,1.2-2.7,2.7-2.7h7.2
								C23.1,8.3,24.3,9.5,24.3,11z"/>
						</g>
						<g>
							<g>
								<g>
									<path fill="#FFD93B" d="M13.3,15.2c-0.4,0-0.8-0.3-0.8-0.8v-3.4c0-1.1,0.9-2,2-2h7c1.1,0,2,0.9,2,2v3.4
										c0,0.4-0.3,0.8-0.8,0.8H13.3z"/>
								</g>
							</g>
						</g>
						<g>
							<g>
								<g>
									<polygon fill="#F4C534" points="18.1,9.1 17.3,9.1 14.1,15.2 14.9,15.2 									"/>
								</g>
								<g>
									<polygon fill="#F4C534" points="20,9.1 18.7,9.1 15.5,15.2 16.8,15.2 									"/>
								</g>
							</g>
						</g>
					</g>
				</g>
				<g>
					<g>
						<path fill="#3E4347" d="M25.9,20H10.1c-0.7,0-1.2-0.5-1.2-1.2v0c0-0.7,0.5-1.2,1.2-1.2h15.7c0.7,0,1.2,0.5,1.2,1.2v0
							C27.1,19.4,26.5,20,25.9,20z"/>
					</g>
				</g>
			</g>
		</g>
	</g>
</g>
</svg>
