<?xml version="1.0" encoding="utf-8"?>
<!-- Generator: Adobe Illustrator 18.0.0, SVG Export Plug-In . SVG Version: 6.00 Build 0)  -->
<!DOCTYPE svg PUBLIC "-//W3C//DTD SVG 1.1//EN" "http://www.w3.org/Graphics/SVG/1.1/DTD/svg11.dtd">
<svg version="1.1" id="Layer_1" xmlns="http://www.w3.org/2000/svg" xmlns:xlink="http://www.w3.org/1999/xlink" x="0px" y="0px"
	 viewBox="0 0 36 36" enable-background="new 0 0 36 36" xml:space="preserve">
<g>
	<g>
		<g>
			<g>
				<g>
					<path fill="#3E4347" d="M34,34H2l2.4-6.1c0.4-1.1,1.2-1.9,2.3-2.3l7.4-2.9l3.9,1.7l3.9-1.7l7.4,2.9c1.1,0.4,1.9,1.2,2.3,2.3
						L34,34z"/>
				</g>
			</g>
		</g>
		<g>
			<g>
				<rect x="17.4" y="26" fill="#FFD93B" width="1.1" height="8"/>
			</g>
		</g>
		<g>
			<g>
				<path fill="#31373A" d="M13.7,24.1c2.3,3.2,7,3.2,8.9-0.3c0.1-0.2,0.2-0.5,0.3-0.7l-1-0.4L18,24.5l-3.9-1.7l-0.9,0.4
					C13.3,23.4,13.4,23.7,13.7,24.1z"/>
			</g>
		</g>
		<g>
			<g>
				<g>
					<g>
						<path fill="#D03F3F" d="M25.7,10.6c0,4.2-3.4,7.7-7.7,7.7s-7.7-3.4-7.7-7.7c0-6.4,3.4-7.7,7.7-7.7S25.7,4.2,25.7,10.6z"/>
					</g>
				</g>
				<g>
					<g>
						<path fill="#E24B4B" d="M27.7,12.3c-1.1,5.7-5,10.9-9.7,10.9c-4.7,0-8.6-5.2-9.7-10.9c-0.2-1.2,0.9-2.4,2-2
							c5.3,2,10.4,1.9,15.3,0C26.8,9.9,27.9,11.1,27.7,12.3z"/>
					</g>
				</g>
				<g>
					<g>
						<path fill="#BF3333" d="M25.6,14.4c-1.1,4.3-4.2,7.9-7.6,7.9c-3.4,0-6.5-3.6-7.6-7.9c-0.2-0.9,0.6-1.9,1.5-1.6
							c4.2,1.5,8.3,1.5,12.2,0C25.1,12.5,25.9,13.4,25.6,14.4z"/>
					</g>
				</g>
				<g>
					<g>
						<path fill="#D03F3F" d="M20,6.8V3C20,1.7,16,1.7,16,3v3.8H20z"/>
					</g>
				</g>
			</g>
			<g>
				<g>
					<g>
						<g>
							<g>
								<path fill="#F4C534" d="M14,19v3.8c0.1,0.3,0.3,0.6,0.5,0.9c1.8,2.4,5.6,2.4,7.1-0.2c0.1-0.2,0.2-0.5,0.3-0.7V19H14z"/>
							</g>
						</g>
					</g>
				</g>
			</g>
			<g>
				<g>
					<path fill="#FFD93B" d="M24.5,14.5c0,4.6-2.8,7.1-4.7,8.3c-1.1,0.7-2.5,0.7-3.6,0c-1.9-1.2-4.7-3.7-4.7-8.3
						c0-0.6,0.1-1.2,0.2-1.7c0.1,0,0.2,0,0.2,0.1c4.2,1.5,8.3,1.5,12.2,0c0.1,0,0.2-0.1,0.3-0.1C24.5,13.3,24.5,13.9,24.5,14.5z"/>
				</g>
			</g>
			<g>
				<g>
					<path fill="#FFD93B" d="M19.6,6v2c0,0.9-1.6,1.6-1.6,1.6s-1.6-0.7-1.6-1.6V6C17.4,5.3,18.5,5.3,19.6,6z"/>
				</g>
			</g>
		</g>
	</g>
	<g>
		<g>
			<g>
				<g>
					<rect x="21.5" y="28.4" fill="#FFD93B" width="5" height="0.9"/>
				</g>
			</g>
			<g>
				<g>
					<rect x="21.5" y="30.3" fill="#FFD93B" width="5" height="0.9"/>
				</g>
			</g>
		</g>
		<g>
			<g>
				<g>
					<rect x="9.5" y="28.4" fill="#FFD93B" width="5" height="0.9"/>
				</g>
			</g>
			<g>
				<g>
					<rect x="9.5" y="30.3" fill="#FFD93B" width="5" height="0.9"/>
				</g>
			</g>
		</g>
	</g>
</g>
</svg>
