<?xml version="1.0" encoding="utf-8"?>
<!-- Generator: Adobe Illustrator 18.0.0, SVG Export Plug-In . SVG Version: 6.00 Build 0)  -->
<!DOCTYPE svg PUBLIC "-//W3C//DTD SVG 1.1//EN" "http://www.w3.org/Graphics/SVG/1.1/DTD/svg11.dtd">
<svg version="1.1" id="Layer_1" xmlns="http://www.w3.org/2000/svg" xmlns:xlink="http://www.w3.org/1999/xlink" x="0px" y="0px"
	 viewBox="0 0 36 36" enable-background="new 0 0 36 36" xml:space="preserve">
<g>
	<g>
		<g>
			<g>
				<g>
					<path fill="#D03F3F" d="M20,18.6v1.1c2.6,1,3.7,2.6,4.1,3.7h1.1C24.8,22,23.5,19.8,20,18.6z"/>
				</g>
			</g>
		</g>
		<g>
			<g>
				<g>
					<path fill="#D03F3F" d="M15.8,18.6c-3.3,1.2-4.5,3.4-4.9,4.8h1.1c0.4-1.1,1.4-2.7,3.9-3.7V18.6z"/>
				</g>
			</g>
		</g>
	</g>
	<g>
		<g>
			<g>
				<g>
					<g>
						<g>
							<g>
								<g>
									<g>
										<g>
											<path fill="#3E4347" d="M32.5,34L30,25.9c-0.4-1.2-1.4-2.2-2.6-2.5L18,20.9l-9.4,2.5c-1.2,0.3-2.2,1.3-2.6,2.5L3.5,34
												H32.5z"/>
										</g>
									</g>
								</g>
								<g>
									<g>
										<g>
											<path fill="#8CC63E" d="M25.8,30.8c0,1.1,0.1,2.2,0.4,3.2H9.8c0.2-1,0.3-2.1,0.3-3.2c0-2.9-0.8-5.5-2.1-7.2
												c0.2-0.1,0.4-0.1,0.6-0.2l3.4-0.9l6-1.6l6,1.6v0l3.4,0.9c0.2,0.1,0.4,0.1,0.6,0.2C26.7,25.3,25.8,27.9,25.8,30.8z"/>
										</g>
									</g>
								</g>
								<g>
									<g>
										<g>
											<path fill="#FFD68D" d="M18,25c-1.6-1-2.9-2-3.6-3.1l0-3.5h7.3l0,3.5C20.6,23.2,19.4,24.3,18,25z"/>
										</g>
									</g>
								</g>
							</g>
						</g>
					</g>
				</g>
			</g>
		</g>
	</g>
	<g>
		<g>
			<g>
				<g>
					<g>
						<g>
							<g>
								<path fill="#E24B4B" d="M11.5,22.5c-0.2,0-0.3,0-0.5,0.1c-1.1,0.5-1,1.8-0.3,3.4c0.7,1.6,1.5,2.5,2.6,2
									c0.1-0.1,0.3-0.2,0.4-0.3L11.5,22.5z"/>
							</g>
						</g>
					</g>
				</g>
				<g>
					<g>
						<g>
							<path fill="#E9EFF4" d="M12.9,21.9l2.2,5.1c0.2,0.4,0,0.8-0.4,1c-0.4,0.2-0.8,0-1-0.4l-2.2-5.1c-0.2-0.4,0-0.8,0.4-1
								C12.2,21.4,12.7,21.6,12.9,21.9z"/>
						</g>
					</g>
				</g>
			</g>
		</g>
		<g>
			<g>
				<g>
					<g>
						<g>
							<g>
								<path fill="#E24B4B" d="M24.5,22.5c0.2,0,0.3,0,0.5,0.1c1.1,0.5,1,1.8,0.3,3.4c-0.7,1.6-1.5,2.5-2.6,2
									c-0.1-0.1-0.3-0.2-0.4-0.3L24.5,22.5z"/>
							</g>
						</g>
					</g>
				</g>
				<g>
					<g>
						<g>
							<path fill="#E9EFF4" d="M23.1,21.9L21,27.1c-0.2,0.4,0,0.8,0.4,1c0.4,0.2,0.8,0,1-0.4l2.2-5.1c0.2-0.4,0-0.8-0.4-1
								C23.8,21.4,23.3,21.6,23.1,21.9z"/>
						</g>
					</g>
				</g>
			</g>
		</g>
	</g>
	<g>
		<g>
			<g>
				<g>
					<g>
						<g>
							<path fill="#FFDC97" d="M13.3,13.9c-0.3-0.4-0.6-0.7-1-0.8c-1.1-0.3-1.6,0.7-1.1,2.2c0.4,1.1,0.7,2,1.4,2
								c0,0,0.4,0.1,0.9-0.1L13.3,13.9z"/>
						</g>
					</g>
				</g>
			</g>
			<g>
				<g>
					<g>
						<g>
							<path fill="#FFDC97" d="M22.7,13.9c0.3-0.4,0.6-0.7,1-0.8c1.1-0.3,1.6,0.7,1.1,2.2c-0.4,1.1-0.7,2-1.4,2c0,0-0.4,0.1-0.9-0.1
								L22.7,13.9z"/>
						</g>
					</g>
				</g>
			</g>
		</g>
		<g>
			<g>
				<g>
					<g>
						<g>
							<path fill="#FFDC97" d="M23.7,14.3c0,4.5-3.1,6.2-4.7,6.7c-0.6,0.2-1.3,0.2-1.9,0c-1.4-0.4-3.9-1.7-4.7-5.5h0.1v-1.5h-0.2
								c0.1-3,2.6-5.5,5.7-5.5C21.4,7.3,24,9.7,23.7,14.3z"/>
						</g>
					</g>
				</g>
			</g>
			<g>
				<g>
					<g>
						<path fill="#7A5B44" d="M24,14.3c-0.2,0.5-0.3,1-0.4,1.3h-0.4c-0.1-1.2-0.3-2.9-0.3-3.7c0.1-1.2-0.9-2.1-0.9-2.1l-8.4,1
							c-0.4,0.4-0.4,1-0.4,2c0,1-0.3,0.5-0.4,1.3c0,0.4,0,1,0,1.4h-0.5c0-0.3-0.1-0.7-0.1-1c0-0.7-2.5-7.5,3.4-9.1
							c6-1.6,7.1,2.5,7.1,2.5C25.5,7.9,24.5,12.8,24,14.3z"/>
					</g>
				</g>
			</g>
			<g>
				<g>
					<g>
						<path fill="#F4C534" d="M24.5,11.1c0.2-0.6,0.3-1.2,0.3-1.9c0-3.7-3-6.8-6.8-6.8s-6.8,3-6.8,6.8c0,0.7,0.1,1.3,0.3,1.9H24.5z"
							/>
					</g>
				</g>
			</g>
			<g>
				<g>
					<g>
						<path fill="#FFD93B" d="M25.5,11.4c-0.1,0.5-0.6,0.8-1.2,0.7c-4.2-1-8.5-1-12.7,0c-0.5,0.1-1-0.2-1.2-0.7
							c-0.1-0.5,0.2-1,0.7-1.1c4.4-1.1,9.1-1.1,13.5,0C25.3,10.3,25.6,10.9,25.5,11.4z"/>
					</g>
				</g>
			</g>
		</g>
		<g>
			<g>
				<g>
					<g>
						<path fill="#FFD93B" d="M14.7,8.8c-0.5-1.5-1.2-2.8-2.1-3.7c-0.4-0.4,0.5-1.3,0.8-0.9C13.9,5.5,14.3,7.1,14.7,8.8z"/>
					</g>
				</g>
			</g>
			<g>
				<g>
					<g>
						<path fill="#FFD93B" d="M21.3,8.8c0.5-1.5,1.2-2.8,2.1-3.7c0.4-0.4-0.5-1.3-0.8-0.9C22.1,5.5,21.7,7.1,21.3,8.8z"/>
					</g>
				</g>
			</g>
		</g>
		<g>
			<g>
				<g>
					<g>
						<path fill="#FFD93B" d="M19.3,2.6L18,8.3l0,0l-1.3-5.6C16.7,1.8,19.3,1.8,19.3,2.6z"/>
					</g>
				</g>
			</g>
		</g>
	</g>
</g>
</svg>
