<?xml version="1.0" encoding="utf-8"?>
<!-- Generator: Adobe Illustrator 18.0.0, SVG Export Plug-In . SVG Version: 6.00 Build 0)  -->
<!DOCTYPE svg PUBLIC "-//W3C//DTD SVG 1.1//EN" "http://www.w3.org/Graphics/SVG/1.1/DTD/svg11.dtd">
<svg version="1.1" id="Layer_1" xmlns="http://www.w3.org/2000/svg" xmlns:xlink="http://www.w3.org/1999/xlink" x="0px" y="0px"
	 viewBox="0 0 36 36" enable-background="new 0 0 36 36" xml:space="preserve">
<g>
	<g>
		<g>
			<g>
				<path fill="#6B503B" d="M27.3,24.3H8.7c4.5-7.6,3.5-14.8,3.5-14.8c1.9-2.1,3.8-1.8,5.8,0c2-1.8,3.9-2.1,5.8,0
					C23.8,9.5,22.7,16.7,27.3,24.3z"/>
			</g>
			<g>
				<g>
					<path fill="#3E4347" d="M30.2,34l-1.9-10.1c-0.2-0.8-0.9-1.5-1.8-1.7L18,20.4l-8.6,1.9c-0.9,0.2-1.5,0.8-1.8,1.7L5.8,34H30.2z"
						/>
				</g>
			</g>
			<g>
				<g>
					<path fill="#F4C534" d="M21.1,21.1v-4.5l-6.2-0.2v4.7c0.6,1.7,1.4,2.3,3.1,3.1l0,0C19.6,23.2,20.2,22.5,21.1,21.1z"/>
				</g>
			</g>
		</g>
		<g>
			<g>
				<g>
					<g>
						<path fill="#FFD93B" d="M14.9,13.7c0.1,1.1-0.5,2-1.5,2c-0.9,0-1.6-0.8-1.9-1.9c-0.4-1.4,0.3-2.3,1.5-2
							C13.9,12,14.8,12.6,14.9,13.7z"/>
					</g>
				</g>
				<g>
					<g>
						<path fill="#FFD93B" d="M21.1,13.7c-0.1,1.1,0.5,2,1.5,2c0.9,0,1.6-0.8,1.9-1.9c0.4-1.4-0.3-2.3-1.5-2
							C22.1,12,21.2,12.6,21.1,13.7z"/>
					</g>
				</g>
			</g>
			<g>
				<g>
					<path fill="#6B503B" d="M24.6,9.6c0,4.2-2.9,7.6-6.6,7.6s-6.6-3.4-6.6-7.6c0-6,2.9-7.6,6.6-7.6S24.6,3.7,24.6,9.6z"/>
				</g>
			</g>
			<g>
				<g>
					<path fill="#FFD93B" d="M23.2,11.1c-0.6,5.8-2.6,8.4-5.2,8.4c-2.6,0-4.7-2.6-5.2-8.4c-0.1-1,0.8-1.8,1.8-1.5
						c2.3,0.6,4.6,0.6,6.9,0C22.4,9.3,23.3,10.1,23.2,11.1z"/>
				</g>
			</g>
		</g>
		<g>
			<g>
				<g>
					<path fill="#E9EFF4" d="M21.1,20.1c-0.6,1.7-1.7,3-3.1,4l2.3,2.7c1-1.7,1.6-3.6,1.9-5.6L21.1,20.1z"/>
				</g>
			</g>
			<g>
				<g>
					<path fill="#E9EFF4" d="M14.9,20.1c0.6,1.7,1.7,3,3.1,4l-2.3,2.7c-1-1.7-1.6-3.6-1.9-5.6L14.9,20.1z"/>
				</g>
			</g>
		</g>
	</g>
	<g>
		<g>
			<path fill="#E9EFF4" d="M23.8,30c0,1,0.7,2.6,1.5,4H10.7c0.7-1.4,1.5-3.1,1.5-4c0-2-2.8-7.7-2.8-7.7c0-0.2,1.2-0.4,1.2-0.3l2,4.1
				c1,2,3.1,3.4,5.4,3.4c1.1,0,2.2-0.3,3.2-0.9c0.9-0.6,1.7-1.4,2.2-2.4l2-4.1c0-0.2,1.3,0.1,1.2,0.3C26.6,22.2,23.8,28,23.8,30z"/>
		</g>
	</g>
</g>
</svg>
