<?xml version="1.0" encoding="utf-8"?>
<!-- Generator: Adobe Illustrator 18.0.0, SVG Export Plug-In . SVG Version: 6.00 Build 0)  -->
<!DOCTYPE svg PUBLIC "-//W3C//DTD SVG 1.1//EN" "http://www.w3.org/Graphics/SVG/1.1/DTD/svg11.dtd">
<svg version="1.1" id="Layer_1" xmlns="http://www.w3.org/2000/svg" xmlns:xlink="http://www.w3.org/1999/xlink" x="0px" y="0px"
	 viewBox="0 0 36 36" enable-background="new 0 0 36 36" xml:space="preserve">
<g>
	<g>
		<g>
			<g>
				<path fill="#65B1EF" d="M31.4,31.2c0.1,1.1-0.7,2-1.8,2.2c-7.7,0.9-15.5,0.9-23.2,0c-1.1-0.1-1.9-1.1-1.8-2.2L5,24.3
					c0.2-1.4,1-2.5,2.3-3.1c7.1-2.9,14.2-2.9,21.3,0c1.3,0.5,2.2,1.7,2.3,3.1L31.4,31.2z"/>
			</g>
		</g>
		<g>
			<path fill="#E9EFF4" d="M18,26.8c2.8,0,5.4-2.7,6.7-6.9c-0.1,0-0.3-0.1-0.4-0.1c-1.3,4-3.7,6.6-6.3,6.6s-5-2.7-6.3-6.6
				c-0.1,0-0.3,0.1-0.4,0.1C12.6,24.1,15.2,26.8,18,26.8z"/>
		</g>
		<g>
			<g>
				<g>
					<g>
						<g>
							<path fill="#FFFFFF" d="M19.3,27.5c0,0.2-0.2,0.4-0.4,0.4h-0.6v1.9c0,0.2-0.2,0.4-0.4,0.4c-0.2,0-0.4-0.2-0.4-0.4v-1.9H17
								c-0.2,0-0.4-0.2-0.4-0.4s0.2-0.4,0.4-0.4h0.6v-0.6c0-0.2,0.2-0.4,0.4-0.4c0.2,0,0.4,0.2,0.4,0.4v0.6H19
								C19.2,27.2,19.3,27.3,19.3,27.5z"/>
						</g>
					</g>
				</g>
			</g>
		</g>
	</g>
	<g>
		<g>
			<g>
				<g>
					<g>
						<g>
							<path fill="#FFE9AB" d="M22.1,13.9V19c0,0.6-0.2,1.3-0.4,2c-1.3,3.4-6.1,3.4-7.3,0c-0.3-0.7-0.5-1.5-0.5-2v-5.1H22.1z"/>
						</g>
					</g>
					<g>
						<g>
							<path fill="#FFE9AB" d="M25.1,9.8c0,5.2-2.9,8-5,9.2c-1.3,0.8-2.8,0.8-4.1,0c-2.1-1.3-5-4-5-9.2C10.9,5.5,14.1,2,18,2
								C21.9,2,25.1,5.5,25.1,9.8z"/>
						</g>
					</g>
					<g>
						<g>
							<g>
								<g>
									<path fill="#FFE9AB" d="M12.4,10.1c-0.3-0.5-0.7-0.8-1.2-1C10,8.8,9.4,9.9,10,11.7c0.4,1.3,0.9,2.4,1.7,2.4
										c0.1,0,0.5,0.1,1.1-0.1L12.4,10.1z"/>
								</g>
							</g>
						</g>
						<g>
							<g>
								<g>
									<path fill="#FFE9AB" d="M23.6,10.1c0.3-0.5,0.7-0.8,1.2-1c1.3-0.4,1.9,0.8,1.3,2.6c-0.4,1.3-0.9,2.4-1.7,2.4
										c-0.1,0-0.5,0.1-1.1-0.1L23.6,10.1z"/>
								</g>
							</g>
						</g>
					</g>
				</g>
			</g>
		</g>
		<g>
			<g>
				<g>
					<path fill="#5A5F63" d="M23.7,4.6c-0.2-0.3-0.4-0.5-0.8-0.6c-0.3-0.1-0.6-0.1-0.3,0.4c0.5,1,1.2,2.2,1.4,3.7
						c0.2,1.5-0.1,2.3,0,3.2c0.1,0.9-0.4,2.9-0.9,3.8c-0.5,0.8-1.7,1.2-1.9,0.9c-0.2-0.3,0.2-0.8-0.1-1.4c-0.5-1.1-2.1-1.4-2.9-0.4
						c-0.1,0.1-0.1,0.2-0.2,0.3c-0.1-0.1-0.1-0.2-0.2-0.3c-0.8-1-2.3-0.8-2.9,0.4c-0.3,0.6,0.1,1.1-0.1,1.4
						c-0.2,0.3-1.4-0.1-1.9-0.9c-0.5-0.8-1-2.8-0.9-3.8c0.1-0.9-0.2-1.7,0-3.2c0.2-1.5,0.9-2.7,1.4-3.7c0.3-0.6,0-0.5-0.3-0.4
						c-0.3,0.1-0.6,0.4-0.8,0.6c-2.8,4.1-0.7,6.7-0.7,6.7c-0.1,4.9,1.9,7.2,3.8,8.3c1.6,1,3.8,1,5.4,0c1.9-1.1,3.9-3.4,3.8-8.3
						C24.5,11.3,26.5,8.6,23.7,4.6z M20.4,15c-1,1.8-3.9,1.8-4.9,0c-0.1-0.2-0.1-0.3-0.2-0.4c-0.1-0.4,0.1-0.6,0.8-0.7
						c0.4-0.1,0.8-0.1,1.2,0c0.4,0.2,0.8,0.2,1.2,0c0.3-0.2,0.8-0.1,1.2,0c0.7,0.1,0.9,0.2,0.8,0.7C20.6,14.7,20.5,14.9,20.4,15z"/>
				</g>
			</g>
		</g>
	</g>
</g>
</svg>
