<?xml version="1.0" encoding="utf-8"?>
<!-- Generator: Adobe Illustrator 18.0.0, SVG Export Plug-In . SVG Version: 6.00 Build 0)  -->
<!DOCTYPE svg PUBLIC "-//W3C//DTD SVG 1.1//EN" "http://www.w3.org/Graphics/SVG/1.1/DTD/svg11.dtd">
<svg version="1.1" id="Layer_1" xmlns="http://www.w3.org/2000/svg" xmlns:xlink="http://www.w3.org/1999/xlink" x="0px" y="0px"
	 viewBox="0 0 36 36" enable-background="new 0 0 36 36" xml:space="preserve">
<g>
	<g>
		<g>
			<g>
				<path fill="#F4C534" d="M21.4,17h-6.9c-0.2,3.6-2.1,6.8-5.1,8.9c0,5.4,17,5.4,17,0C23.5,23.8,21.7,20.6,21.4,17z"/>
			</g>
			<g>
				<path fill="#8CC63E" d="M32.1,34H3.9c0,0,0.8-6.8,1.6-9c0.4-1,1.2-1.9,2.2-2.2l5.9-1.8h0c0,2.8,4.4,4.1,4.4,4.1s4.4-1.3,4.4-4.1
					l5.9,1.8c1,0.4,1.9,1.2,2.2,2.2C31.3,27.2,32.1,34,32.1,34z"/>
			</g>
			<g>
				<g>
					
						<ellipse transform="matrix(0.975 0.2222 -0.2222 0.975 3.5555 -4.974)" fill="#FFD93B" cx="23.9" cy="13.3" rx="1.5" ry="2.3"/>
				</g>
				<g>
					
						<ellipse transform="matrix(-0.975 0.2222 -0.2222 -0.975 27.1281 23.5822)" fill="#FFD93B" cx="12.2" cy="13.3" rx="1.5" ry="2.3"/>
				</g>
				<g>
					<g>
						<path fill="#FFD93B" d="M23.9,15.6c0,1-2.8,5.3-6,5.3c-3.2,0-5.7-4.3-5.7-5.3c-0.8-11.1,3.1-10.7,5.8-8.3
							C21.4,2.1,24,5.3,23.9,15.6z"/>
					</g>
					<g>
						<path fill="none" stroke="#3E4347" stroke-miterlimit="10" d="M18.1,7.3"/>
					</g>
				</g>
				<g>
					<path fill="#3E4347" d="M12,14.6h0.2c0.5-2.8-0.5-7,1.7-6.7c1.2,0.1,3.8,0.9,6.8-0.3c3-1.2,2.3,2,2.6,3.2
						c0.2,0.8,0.2,2.6,0.2,3.7h0.2c0.7-2.8,2.4-10.5-0.4-9.9c0,0-0.3-3.1-6.4-2.7c-6,0.4-6.6,4.8-6.5,6.6C10.7,10,11.7,13.2,12,14.6
						z"/>
				</g>
			</g>
			<g>
				<path fill="#7FB239" d="M18.7,31.3c0,0.4-0.3,0.7-0.7,0.7c-0.4,0-0.7-0.3-0.7-0.7c0-0.4,0.3-0.7,0.7-0.7
					C18.4,30.6,18.7,30.9,18.7,31.3z"/>
			</g>
			<g>
				<path fill="#7FB239" d="M17.2,27.7c0-0.4,0.3-0.7,0.7-0.7c0.4,0,0.7,0.3,0.7,0.7c0,0.4-0.3,0.7-0.7,0.7
					C17.6,28.5,17.2,28.1,17.2,27.7z"/>
			</g>
		</g>
		<g>
			<circle fill="#3E4347" cx="20.9" cy="12.2" r="1.2"/>
		</g>
		<g>
			
				<ellipse transform="matrix(0.7071 0.7071 -0.7071 0.7071 14.551 -11.6929)" fill="#5A5F63" cx="21.4" cy="11.7" rx="0.4" ry="0.2"/>
		</g>
		<g>
			<circle fill="#3E4347" cx="15.1" cy="12.2" r="1.2"/>
		</g>
		<g>
			
				<ellipse transform="matrix(0.7071 0.7071 -0.7071 0.7071 12.851 -7.5886)" fill="#5A5F63" cx="15.6" cy="11.7" rx="0.4" ry="0.2"/>
		</g>
	</g>
	<g>
		<circle fill="#3E4347" cx="18" cy="17.1" r="1.6"/>
	</g>
</g>
</svg>
