<?xml version="1.0" encoding="utf-8"?>
<!-- Generator: Adobe Illustrator 18.0.0, SVG Export Plug-In . SVG Version: 6.00 Build 0)  -->
<!DOCTYPE svg PUBLIC "-//W3C//DTD SVG 1.1//EN" "http://www.w3.org/Graphics/SVG/1.1/DTD/svg11.dtd">
<svg version="1.1" id="Layer_1" xmlns="http://www.w3.org/2000/svg" xmlns:xlink="http://www.w3.org/1999/xlink" x="0px" y="0px"
	 viewBox="0 0 36 36" enable-background="new 0 0 36 36" xml:space="preserve">
<g>
	<g>
		<path fill="#5A5F63" d="M26.9,25.6c-6,2.3-12,2.3-18,0c1.9-2,1.6-3.4,2.5-14.8l6.5-0.3l6.5,0.3C25.3,22.2,25,23.6,26.9,25.6z"/>
	</g>
	<g>
		<g>
			<g>
				<g>
					<g>
						<path fill="#F4C534" d="M21.4,25.2c0.1-2.3,0.3-5,0-5.4v-2.5h-6.7v2.5c-0.4,0.5-0.2,3.1-0.1,5.4H21.4z"/>
					</g>
				</g>
				<g>
					<g>
						<g>
							<path fill="#E9EFF4" d="M10,34H5.6L7,26.7c0.1-0.7,0.6-1.4,1.3-1.7l0,0C9.1,25.6,10.5,27.6,10,34z"/>
						</g>
						<g>
							<path fill="#E9EFF4" d="M30.4,34H26c-0.5-6.4,0.8-8.4,1.7-8.9l0,0c0.7,0.3,1.2,0.9,1.3,1.7L30.4,34z"/>
						</g>
					</g>
				</g>
				<g>
					<path fill="#E24B4B" d="M27.7,25.1l-5.4-2.6L18,25.3l-4.3-2.8l-5.4,2.6c0.9,0.6,2.2,2.5,1.7,8.9h16
						C25.5,27.6,26.9,25.6,27.7,25.1z"/>
				</g>
				<g>
					<g>
						<g>
							<g>
								<path fill="#E9EFF4" d="M22.3,22.1c0,0,1.5,0.5,1.1,2.5c-0.4,2-4.7,4.4-5.3,1.5L22.3,22.1z"/>
							</g>
						</g>
						<g>
							<g>
								<g>
									<path fill="#E9EFF4" d="M21.3,19.8c0,0,0.4,1-0.7,2c-2.2,2.1-2.7,3.5-2.7,3.5c-0.1,0.3,3.5-0.4,4.7-2.4
										C23.8,20.8,21.3,19.8,21.3,19.8z"/>
								</g>
							</g>
						</g>
					</g>
					<g>
						<g>
							<g>
								<path fill="#E9EFF4" d="M13.7,22.1c0,0-1.5,0.5-1.1,2.5c0.4,2,4.7,4.4,5.3,1.5L13.7,22.1z"/>
							</g>
						</g>
						<g>
							<g>
								<g>
									<path fill="#E9EFF4" d="M14.7,19.8c0,0-0.4,1,0.7,2c2.2,2.1,2.7,3.5,2.7,3.5s-3.5-0.5-4.7-2.4
										C12.1,20.8,14.7,19.8,14.7,19.8z"/>
								</g>
							</g>
						</g>
					</g>
				</g>
			</g>
			<g>
				<g>
					<path fill="#FFD93B" d="M24.4,15c-0.3,2.7-2.1,4.7-3.6,6c-1.6,1.3-3.8,1.3-5.4,0c-1.7-1.4-3.7-3.8-3.7-6.9
						c0-5.9,2.8-7.7,6.8-7.7C22.5,6.5,25,9.2,24.4,15z"/>
				</g>
			</g>
		</g>
	</g>
	<g>
		<g>
			<g>
				<path fill="#FFD93B" d="M22.5,14.5c0.1,1.1,0.8,2,1.6,1.9c0.8,0,1.3-1,1.4-2.1c0-1.4-0.7-2.2-1.6-1.9
					C23.1,12.6,22.4,13.4,22.5,14.5z"/>
			</g>
		</g>
		<g>
			<g>
				<path fill="#FFD93B" d="M13.5,14.5c-0.1,1.1-0.8,2-1.6,1.9c-0.8,0-1.3-1-1.4-2.1c0-1.4,0.7-2.2,1.6-1.9
					C12.9,12.6,13.6,13.4,13.5,14.5z"/>
			</g>
		</g>
	</g>
	<g>
		<g>
			<g>
				<path fill="#5A5F63" d="M24.6,12.1c0,0.4,0,0.7-0.1,1.1l-0.1,1H24c0,0-0.6-1.7-1-2.7c-0.4-1-2.4,0-3.9-2.5h-2.2
					c-1.5,2.4-3.5,1.4-3.9,2.5c-0.4,1-1,2.7-1,2.7h-0.4l-0.1-1c0-0.4-0.1-0.7-0.1-1.1c0-3.9,2.7-7.4,6.6-8.3c0,0,0,0,0,0
					c0,0,0,0,0,0C21.9,4.7,24.6,8.2,24.6,12.1z"/>
			</g>
			<g>
				<polygon fill="#5A5F63" points="18,2.3 18,2.4 18,2.3 				"/>
			</g>
		</g>
		<g>
			<g>
				<path fill="#5A5F63" d="M18,2.3C18,2.3,18,2.4,18,2.3L18,2.3C18,2.3,18,2.3,18,2.3z"/>
			</g>
		</g>
	</g>
	<g>
		<g>
			<path fill="#59A5E0" d="M23.2,7C23,4.2,18,2,18,2s-5,2.2-5.2,5H23.2z"/>
		</g>
	</g>
	<g>
		<g>
			<path fill="#E24B4B" d="M24.2,10.9c-4.1,0.7-8.3,0.7-12.4,0c-0.5-0.1-0.8-0.5-0.7-1c0.2-1.1,0.4-2.3,0.7-3.4
				c0.1-0.4,0.5-0.7,1-0.7c3.5,0.6,7,0.6,10.5,0c0.4-0.1,0.9,0.2,1,0.7c0.2,1.1,0.4,2.3,0.7,3.4C24.9,10.4,24.6,10.8,24.2,10.9z"/>
		</g>
	</g>
	<g>
		<path fill="#E9EFF4" d="M16.8,23.3c0,0,1,1,1.9,1.6s-0.3,1.5-1.4,1.1c-1.1-0.4-2-2.1-2-2.1L16.8,23.3z"/>
	</g>
	<g>
		<circle fill="#BF3333" cx="18" cy="28.9" r="0.7"/>
	</g>
	<g>
		<circle fill="#BF3333" cx="18" cy="31.7" r="0.7"/>
	</g>
</g>
</svg>
