<svg xmlns="http://www.w3.org/2000/svg" width="83.806" height="83.607" viewBox="0 0 83.806 83.607">
  <g id="Group_5" data-name="Group 5" transform="translate(635.508 225.309)">
    <path id="Path_20" data-name="Path 20" d="M-613.715-188.866a20.685,20.685,0,0,1,11.3-13.472l-2.317-6.714q-1.314.579-2.629,1.291a27.548,27.548,0,0,0-13.4,30.95,27.93,27.93,0,0,0,7,12.831l4.62-5.708a20,20,0,0,1-4.574-19.178" fill="#2b388f"/>
    <path id="Path_21" data-name="Path 21" d="M-603.35-157.361a26.825,26.825,0,0,0,24.377-2.327A27.14,27.14,0,0,0-565.9-179.106c.124-.722,0-.97-.788-.967q-10.194.036-20.388,0a1.688,1.688,0,0,0-1.457.695,6.491,6.491,0,0,1-7.417,1.926,6.519,6.519,0,0,1-4.163-6.277,6.571,6.571,0,0,1,4.851-6.047,6.632,6.632,0,0,1,7.034,2.525,1.551,1.551,0,0,0,1.055.53c2.015.049,4.031.021,6.047.019.973,0,1-.053.7-.978a13.968,13.968,0,0,0-13.562-9.528,13.72,13.72,0,0,0-13.237,15.469,13.785,13.785,0,0,0,22.158,9.1,2.272,2.272,0,0,1,1.243-.427c2.476-.041,4.953-.024,7.429-.022.217,0,.434.039.792.074-.187.341-.3.593-.452.815-4.765,6.82-11.271,10.06-19.6,9.39a19.373,19.373,0,0,1-9.2-3.115l-4.495,5.554a30.627,30.627,0,0,0,6,3.011" fill="#2b388f"/>
    <path id="Path_22" data-name="Path 22" d="M-554.635-186.712c.978,0,1.955-.038,2.933-.059v-.864c-.121-.589-.272-1.173-.358-1.767a40.61,40.61,0,0,0-6.868-17.611,41.321,41.321,0,0,0-26.217-17.409c-1.739-.367-3.508-.6-5.263-.887H-596.8q-1.4.219-2.8.437a41.6,41.6,0,0,0-27.324,16.059,40.05,40.05,0,0,0-7.667,16.7c-.351,1.714-.614,3.445-.918,5.168v6.913c.069.276.144.552.206.829a90.5,90.5,0,0,0,2.042,9.073,40.548,40.548,0,0,0,15.405,20.694,40.948,40.948,0,0,0,23.072,7.715,40.751,40.751,0,0,0,23.921-6.651,41.248,41.248,0,0,0,18.22-26.064c.378-1.62.63-3.269.94-4.9v-.518a4.239,4.239,0,0,0-.9-.2c-1.785-.017-3.573.055-5.354-.027-.923-.042-1.164.3-1.271,1.144a32.691,32.691,0,0,1-7.271,17c-7.293,8.828-16.714,13.212-28.2,12.956a32.623,32.623,0,0,1-19.491-6.764c-9.881-7.553-14.616-17.639-13.94-30.082a32.892,32.892,0,0,1,8.678-20.612,34.243,34.243,0,0,1,24.188-11.584,32.434,32.434,0,0,1,12.66,1.762,34.391,34.391,0,0,1,20.156,17.562c.785,1.543,1.354,3.2,2.106,5h-1.1c-1.612,0-3.228-.067-4.836.018a1.471,1.471,0,0,1-1.662-1.069,25.993,25.993,0,0,0-9.745-11.726c-7.035-4.574-14.3-6.065-21.639-4.378l2.356,6.827a19.84,19.84,0,0,1,3.564-.26,20.805,20.805,0,0,1,20.277,16.672c.153.721.426.927,1.133.924,5.788-.024,11.576-.009,17.364-.014" fill="#2b388f"/>
  </g>
</svg>
