<svg xmlns="http://www.w3.org/2000/svg" viewBox="0 0 565.07 152.38"><g id="Layer_2" data-name="Layer 2"><g id="Layer_1-2" data-name="Layer 1"><path d="M430.91,48.69h-.08A13.87,13.87,0,0,0,404.6,42.4L394.13,59.76l-7.3,12.09-.09,0a1.46,1.46,0,0,1-2.28,0l-.09,0L379.6,64l-2.53-4.19L366.6,42.4a13.86,13.86,0,0,0-26.22,6.29h-.09V87c0,.23,0,.46,0,.7a6.08,6.08,0,1,0,12.15,0,5.49,5.49,0,0,0,0-.7V49.72c0-.64,0-1,0-1a1.85,1.85,0,0,1,3.43-.95h0l.32.54-.06,0,18,29.76.08,0a13.8,13.8,0,0,0,11.28,6.36v0h.38v0A13.8,13.8,0,0,0,397.07,78l.09,0,18-29.76-.07,0,.32-.54h0a1.87,1.87,0,0,1,1.58-.9,1.85,1.85,0,0,1,1.85,1.85s0,.39.05,1V87a5.36,5.36,0,0,0-.05.7,6.08,6.08,0,1,0,12.15,0c0-.23,0-.47,0-.7Z" style="fill:#262261"/><path d="M327.75,51.81H291.92a13.85,13.85,0,0,0-13.84,13.37h0V79.4c0,.33,0,.66,0,1a13.87,13.87,0,0,0,13.87,13.87h0v0h29.64v17.55a6,6,0,0,0,12.06,0V57.74a5.93,5.93,0,0,0-5.87-5.93M305.62,82.25H291.77a1.71,1.71,0,0,1-1.67-1.37,1.85,1.85,0,0,1-.07-.48,1.5,1.5,0,0,1,0-.37v-.61h0V66.05a2.21,2.21,0,0,1,0-.37,1.92,1.92,0,0,1,.17-.76,1.75,1.75,0,0,1,1.62-1.09h29.7V82.25Z" style="fill:#262261"/><path d="M225.09,82H194a1.7,1.7,0,0,1-1.67-1.37,1.51,1.51,0,0,1-.07-.48h0V48.62h0a2,2,0,0,1,.16-.77,1.77,1.77,0,0,1,1.62-1.08h13.81s0,0,0-.07h17.24v-.08a5.93,5.93,0,1,0,0-11.86v-.12h-31v.1a13.88,13.88,0,0,0-13.87,13.88V80.16A13.87,13.87,0,0,0,194.11,94v0h31a6,6,0,1,0,0-12.06" style="fill:#262261"/><path d="M244.7,34.76a6,6,0,0,0-6,6h0V88h0a6,6,0,0,0,12.06,0V40.79a6,6,0,0,0-6-6" style="fill:#262261"/><path d="M264.8,52.33a6,6,0,0,0-6,6h0V88h0a6,6,0,1,0,12.06,0V58.36a6,6,0,0,0-6-6" style="fill:#262261"/><path d="M264.8,46.82a6,6,0,1,0-6-6,6,6,0,0,0,6,6" style="fill:#262261"/><path d="M442.63,52.06a6,6,0,0,0-6,6h0V87.76h0a6,6,0,0,0,12.06,0V58.09a6,6,0,0,0-6-6" style="fill:#262261"/><path d="M442.63,46.55a6,6,0,1,0-6-6,6,6,0,0,0,6,6" style="fill:#262261"/><path d="M489.46,52.09h0v0H467.36v0A13.88,13.88,0,0,0,453.48,66h0v22.3h.13a5.92,5.92,0,0,0,11.81,0h.12V66h0a1.85,1.85,0,0,1,1.85-1.85h22.1A1.85,1.85,0,0,1,491.31,66h0v9.87h0V79.7h0v8.07a6,6,0,1,0,12,0V66a13.87,13.87,0,0,0-13.87-13.88" style="fill:#262261"/><path d="M565,39.93a6,6,0,0,0-12,0h0V52.06H523.38v0h0A13.87,13.87,0,0,0,509.46,66c0,.34,0,.67.05,1V81.18h.05A13.87,13.87,0,0,0,523.38,94H559.2A5.92,5.92,0,0,0,565.07,88V39.93Zm-41.64,42h-.06a1.73,1.73,0,0,1-1.62-1.08,1.76,1.76,0,0,1-.17-.76,1.5,1.5,0,0,1,0-.37h0V66.35h-.05a2.33,2.33,0,0,1,0-.38,1.61,1.61,0,0,1,.08-.48,1.69,1.69,0,0,1,1.67-1.36H553V81.93H523.38Z" style="fill:#262261"/><path d="M39.72,66.42A37.71,37.71,0,0,1,60.31,41.87L56.09,29.63c-1.6.7-3.19,1.48-4.79,2.35A50.21,50.21,0,0,0,26.87,88.39a50.88,50.88,0,0,0,12.77,23.39l8.42-10.41c-8.8-9.91-11.72-21.67-8.34-34.95" style="fill:#2b388f"/><path d="M58.61,123.84C74,129.61,89,128.15,103,119.6c13.27-8.08,21.19-20,23.82-35.39.23-1.32,0-1.77-1.43-1.76q-18.59.06-37.16,0a3.12,3.12,0,0,0-2.66,1.27,11.92,11.92,0,0,1-21.1-7.93,11.95,11.95,0,0,1,21.66-6.42,2.84,2.84,0,0,0,1.92,1c3.67.09,7.35,0,11,0,1.78,0,1.83-.09,1.28-1.78A25.46,25.46,0,0,0,75.67,51.21c-13.51.28-26.29,12.47-24.12,28.2C54.23,98.85,76.25,107.78,91.93,96a4.1,4.1,0,0,1,2.27-.77c4.51-.08,9,0,13.54,0,.39,0,.79.07,1.44.13-.34.62-.54,1.08-.82,1.48-8.69,12.44-20.55,18.34-35.73,17.12a35.32,35.32,0,0,1-16.76-5.68l-8.19,10.13a56.12,56.12,0,0,0,10.93,5.48" style="fill:#2b388f"/><path d="M147.4,70.35c1.78,0,3.56-.07,5.34-.11V68.67c-.22-1.08-.49-2.14-.65-3.23a73.88,73.88,0,0,0-12.52-32.09C127.83,16.5,111.91,5.86,91.79,1.62,88.62,1,85.4.53,82.2,0H70.55l-5.1.8C45,4,28.34,13.7,15.65,30.07a72.86,72.86,0,0,0-14,30.44C1,63.63.55,66.78,0,69.92v12.6c.12.51.26,1,.37,1.52,1.22,5.52,2,11.19,3.73,16.53a73.87,73.87,0,0,0,28.07,37.72,74.65,74.65,0,0,0,42.05,14.06,74.28,74.28,0,0,0,43.6-12.12C135.24,128.87,146.3,113,151,92.72c.69-3,1.15-6,1.71-8.94v-.94a7.33,7.33,0,0,0-1.64-.37c-3.25,0-6.51.1-9.76,0-1.68-.08-2.12.55-2.32,2.09a59.5,59.5,0,0,1-13.25,31c-13.29,16.09-30.46,24.08-51.4,23.61a59.42,59.42,0,0,1-35.52-12.32C20.84,113,12.21,94.63,13.44,72A60,60,0,0,1,29.26,34.38c11.76-13.11,26.6-20,44.08-21.11a59.1,59.1,0,0,1,23.08,3.21c16.58,5.69,28.8,16.42,36.73,32,1.44,2.81,2.47,5.83,3.84,9.11h-2c-2.93,0-5.88-.12-8.81,0a2.68,2.68,0,0,1-3-2,47.39,47.39,0,0,0-17.76-21.37c-12.82-8.33-26.06-11-39.44-8l4.29,12.45a36.07,36.07,0,0,1,6.5-.48,37.93,37.93,0,0,1,37,30.39c.28,1.31.77,1.69,2.06,1.68,10.55,0,21.1,0,31.65,0" style="fill:#2b388f"/></g></g></svg>