<svg xmlns="http://www.w3.org/2000/svg" width="20" height="20" viewBox="0 0 20 20"><g transform="translate(-2.25 -2.25)"><path d="M12.25,2.25a10,10,0,1,0,10,10A10,10,0,0,0,12.25,2.25Zm0,18.571a8.571,8.571,0,1,1,8.571-8.571A8.571,8.571,0,0,1,12.25,20.821Z" fill="#2b7be4"/><path d="M18.456,25.837a1.072,1.072,0,1,1-1.071-1.046,1.072,1.072,0,0,1,1.071,1.046Z" transform="translate(-5.134 -8.229)" fill="#2b7be4"/><path d="M16.66,9H15.589a3.207,3.207,0,0,0-3.215,3.215v.357H13.8v-.357a1.786,1.786,0,0,1,1.786-1.786H16.66a1.786,1.786,0,1,1,0,3.572H15.232v3.215H16.66V15.428A3.214,3.214,0,1,0,16.66,9Z" transform="translate(-3.696 -2.464)" fill="#2b7be4"/></g></svg>