<svg xmlns="http://www.w3.org/2000/svg" width="274.674" height="237" viewBox="0 0 274.674 237">
  <path id="Intersection_2" data-name="Intersection 2" d="M98.429,235.623A155.024,155.024,0,0,1,0,181.421V143.539a134.433,134.433,0,0,0,101.244,71.047c73.313,9.794,141.2-42.052,151-115.317A133.8,133.8,0,0,0,225.7,0h25.744A154.659,154.659,0,0,1,273.3,102.082C262.871,180.016,195.737,236.993,119.076,237A155.645,155.645,0,0,1,98.429,235.623Zm6.4-47.876A107.143,107.143,0,0,1,12.707,67.271a10.619,10.619,0,0,1,21.05,2.813A86.048,86.048,0,1,0,145.842,0H188.85a107.25,107.25,0,0,1-69.625,188.708A108.536,108.536,0,0,1,104.832,187.746Zm6.042-47.925A59.06,59.06,0,0,1,64.354,103.7a10.74,10.74,0,0,1,19.917-8.045,37.4,37.4,0,0,0,29.779,23.174c20.686,2.764,39.976-11.641,42.742-32.315A37.6,37.6,0,0,0,89.583,58.712a10.738,10.738,0,0,1-17.1-12.991,58.832,58.832,0,1,1,46.457,94.639A60.843,60.843,0,0,1,110.874,139.821ZM0,17A17.007,17.007,0,0,1,12.1.718,126.391,126.391,0,0,0,0,19.4ZM75.018,0H92.262q-2.939.972-5.829,2.176a10.579,10.579,0,0,1-3.991.782A10.856,10.856,0,0,1,75.018,0Z" transform="translate(0.001)" fill="#bac9dc" opacity="0.1"/>
</svg>
