<svg xmlns="http://www.w3.org/2000/svg" width="20" height="19.13" viewBox="0 0 20 19.13"><g transform="translate(0 -0.332)"><path d="M162.593,220.3H149.984a.652.652,0,1,1,0-1.3h12.609a.652.652,0,1,1,0,1.3Zm0,0" transform="translate(-143.245 -209.755)" fill="#e2234f"/><path d="M153.47,141.914a.647.647,0,0,1-.461-.191l-3.478-3.478a.653.653,0,0,1,0-.923l3.478-3.478a.652.652,0,0,1,.923.923l-3.017,3.017,3.017,3.017a.652.652,0,0,1-.462,1.113Zm0,0" transform="translate(-143.253 -127.886)" fill="#e2234f"/><path d="M9.565,19.462A9.565,9.565,0,1,1,18.468,6.4a.652.652,0,1,1-1.214.477,8.26,8.26,0,1,0,0,6.044.652.652,0,1,1,1.214.477,9.516,9.516,0,0,1-8.9,6.065Zm0,0" fill="#e2234f"/></g></svg>