<svg xmlns="http://www.w3.org/2000/svg" width="24" height="24" viewBox="0 0 24 24"><path d="M14,19.5v-3a.482.482,0,0,0-.5-.5h-3a.482.482,0,0,0-.5.5v3a.482.482,0,0,0,.5.5h3a.482.482,0,0,0,.5-.5ZM18,9a4.191,4.191,0,0,0-.867-2.547A6.084,6.084,0,0,0,12.313,4a6.381,6.381,0,0,0-5.8,3.328.446.446,0,0,0,.125.656L8.7,9.547a.44.44,0,0,0,.3.094.461.461,0,0,0,.391-.187,7.768,7.768,0,0,1,1.344-1.437,2.274,2.274,0,0,1,1.344-.375,2.289,2.289,0,0,1,1.336.406A1.137,1.137,0,0,1,14,8.969a1.4,1.4,0,0,1-.313.953,3.165,3.165,0,0,1-1.063.7,5.346,5.346,0,0,0-1.8,1.351A2.9,2.9,0,0,0,10,13.937V14.5a.482.482,0,0,0,.5.5h3a.482.482,0,0,0,.5-.5,1.488,1.488,0,0,1,.336-.773,2.637,2.637,0,0,1,.851-.773q.5-.281.765-.445a6.612,6.612,0,0,0,.719-.547,3.616,3.616,0,0,0,.7-.75,4.135,4.135,0,0,0,.437-.945A3.931,3.931,0,0,0,18,9Zm6,3a11.739,11.739,0,0,1-1.609,6.023,11.945,11.945,0,0,1-4.367,4.367A11.739,11.739,0,0,1,12,24a11.739,11.739,0,0,1-6.023-1.609,11.945,11.945,0,0,1-4.367-4.367A11.739,11.739,0,0,1,0,12,11.739,11.739,0,0,1,1.609,5.977,11.945,11.945,0,0,1,5.977,1.609,11.739,11.739,0,0,1,12,0a11.74,11.74,0,0,1,6.023,1.609,11.944,11.944,0,0,1,4.367,4.367A11.74,11.74,0,0,1,24,12Z" transform="translate(0 0)" fill="#e6f4f1"/></svg>