<svg xmlns="http://www.w3.org/2000/svg" width="1050.35" height="622.14" viewBox="0 0 1050.35 622.14">
  <g id="fe5d6efa-d088-4336-a4e3-d58910d82de0" data-name="Layer 2">
    <g id="a24b2402-8caa-4660-a50a-da7cb8ad3d5f" data-name="Layer 30">
      <circle cx="917.53" cy="178.87" r="132.82" fill="#fcf0f0" opacity="0.87"/>
      <circle cx="901.79" cy="489.07" r="132.82" fill="#fcf0f0" opacity="0.87"/>
      <circle cx="150.79" cy="461.36" r="132.82" fill="#fcf0f0" opacity="0.87"/>
      <circle cx="132.82" cy="164.39" r="132.82" fill="#fcf0f0" opacity="0.87"/>
    </g>
    <g id="fa8cf863-38eb-450e-bbb4-f20ae6026c68" data-name="rosi">
      <g id="e079f0fe-a086-4eb0-a9d0-d1267f029dfe" data-name="Layer 28">
        <path d="M234.73,174.4a53.56,53.56,0,0,1,6-1.55l.63-.19c-.75-1.81-.2-2,.18-3.95l.28-.14a86.4,86.4,0,0,1,17.6-5.72,3.82,3.82,0,0,1,2,0,1.35,1.35,0,0,1,.94,1.57,24.54,24.54,0,0,0-8.9,3h0a1,1,0,0,0,1,.89,3.5,3.5,0,0,0,1.42-.29c3.71-1.27,7.74-.9,11.64-1.28a4.78,4.78,0,0,1,2.29.13,1.5,1.5,0,0,1,.93,1.85,63.61,63.61,0,0,0-14.51,2.22v.35l17.87-1.78a.64.64,0,0,1,.39.05.61.61,0,0,1,.22.45c.11.64.18,1.28.23,1.92-6,1.11-9.64,2.23-15.7,1.79h0a105.77,105.77,0,0,0,12.59.08,3.42,3.42,0,0,1-.16,1.68l-11.45,1.14c-2,.2-4.11.45-5.66,1.69l.52,1a9.82,9.82,0,0,1,4.34-.32,1.08,1.08,0,0,1,.63.26,1.1,1.1,0,0,1,.11,1l-.43,2.24q-3.45-.15-6.92-.13a5.12,5.12,0,0,1-4.66-2.91l-.76-1.57a.76.76,0,0,0-.39-.45.82.82,0,0,0-.38,0l-7.76,1.55" fill="#fcf0f0" stroke="#13213d" stroke-miterlimit="10"/>
      </g>
      <g id="b5efe547-705b-4ebe-afdb-b33830385ca2" data-name="Layer 27">
        <path d="M143,138.57a24.13,24.13,0,0,1,7.68-10.76c3.41-2.51,7.67-3.44,11.33-2l.82.59c5.17,10,4.88,22.93,8.16,34.11a18.43,18.43,0,0,0,2.68,6,14.09,14.09,0,0,0,4.82,3.8,30.41,30.41,0,0,0,9.32,3.16,50,50,0,0,0,8.65.47,149.05,149.05,0,0,0,47.87-8.71l1,1.1a28,28,0,0,1-.82,17.46l-1.38.79a188.73,188.73,0,0,1-49.19,9.78c-5.67.35-11.46.41-16.79-1.63-6.59-2.52-12-8.09-16.51-14.23s-8.4-13-13.05-19" fill="#fca311" stroke="#13213d" stroke-miterlimit="10"/>
      </g>
      <g id="b2f895f7-c330-491d-974b-24bcd2f2dc92" data-name="Layer 25">
        <path d="M118.28,61.05c-3.21,5.44-4.11,6.68-6.19,12.64-1.31,3.78-2.17,12.87-2.44,16.85v.83a49.66,49.66,0,0,0,23.63,8.18L146,103.84a35.18,35.18,0,0,0,21.33,7l.74,0c6.78-10.34,10.57-15.38,13.17-30.33" fill="#13213d" stroke="#13213d" stroke-miterlimit="10"/>
        <path d="M123.73,70.56c-2-1-4.44-3.55-4.3-5.76a5.8,5.8,0,0,1,3.8-5,3.24,3.24,0,0,1,3.53.67Z" fill="#fcf0f0" stroke="#13213d" stroke-miterlimit="10"/>
        <path d="M176.58,71.74c3.55-8.1,1.13-18.16-5.07-24.47s-15.6-8.94-24.37-7.8a20.35,20.35,0,0,0-9.21,3.28,21.88,21.88,0,0,0-5.68,6.46c-4.15,6.69-6.41,14.36-8.62,21.92V71a16,16,0,0,0,.08,6.28,13.28,13.28,0,0,0,1.91,3.75,38.51,38.51,0,0,0,14.71,12.86l4.81,1.57a26.32,26.32,0,0,0,13.27.46,17.71,17.71,0,0,0,10.77-7.46,29.2,29.2,0,0,0,2.15-4.43l4.61-11" fill="#fcf0f0" stroke="#13213d" stroke-miterlimit="10"/>
        <polyline points="129.89 106.71 122.99 140.05 125.2 150.17 133.79 157.05 150.16 149.04 148.61 113.51" fill="#fcf0f0" stroke="#13213d" stroke-miterlimit="10"/>
        <path d="M142.82,116.28a46.8,46.8,0,0,1,5.92-19.44l-13.4-5.1a112.89,112.89,0,0,1-6.75,18.71" fill="#fcf0f0" stroke="#13213d" stroke-miterlimit="10"/>
        <path d="M165.76,57.16l1.18-.58,4.72,8.92a21.16,21.16,0,0,0,3.88,5.7,10.16,10.16,0,0,0,1,.82A38.7,38.7,0,0,0,174.87,77c-.33,1.52-.63,2.94-1,4.28a1,1,0,0,1,1.19-.47c1.94.52,3.89,1,5.85,1.48.18-.66.37-1.31.58-2,2.08-6.38,5.78-12.33,6.18-19.07.41-6.91-3-14.16-8.82-19a28,28,0,0,0-21.47-5.93l-1.73-.57a21.91,21.91,0,0,0-20.52-4.63c-6.78,2.15-11.6,8.22-11.83,14.89-.11,3.33.51,4-.87,7a34.26,34.26,0,0,1-4.29,7.37c1.23.68,1.55,1.59,2.82,2.17.11-.2.22-.41.34-.6,1.29-2.12,2.71-1.24,5.41-1.46,4.57.33,9.2-1.06,13.66-1.69s8.83-2.31,11.64-5.42c2.49-2.76,3.58-6.4,4.36-10l1.35.49c1.16,8.41,2.71,17.49,9.27,23.82Q166.4,62.42,165.76,57.16Z" fill="#13213d" stroke="#13213d" stroke-miterlimit="10"/>
        <path d="M121.89,60.61A22.3,22.3,0,0,0,118,69.25" fill="#fff" stroke="#13213d" stroke-miterlimit="10"/>
        <path d="M128.09,36c-5.29,7.48-8.87,18.46-10.54,27.47" fill="#13213d" stroke="#13213d" stroke-miterlimit="10"/>
        <path d="M123.8,46.07l-5.56,15.3" fill="#fff" stroke="#13213d" stroke-miterlimit="10"/>
        <path d="M153.65,148.51,161,201.23a10.05,10.05,0,0,1-.12,4.88,9.92,9.92,0,0,1-2.34,3.28L146.74,222l-.91-.91a190.86,190.86,0,0,1-49-5.35l1.69-.55q3.28-15,6.55-30c.91-4.14,1.86-8.39,4.18-11.94a35.34,35.34,0,0,1,6-6.43l18.41-16.71.71-.78a16,16,0,0,0,7.06,2.36,9.55,9.55,0,0,0,7-2.27" fill="#13213d" stroke="#13213d" stroke-miterlimit="10"/>
        <path d="M64.6,278.69c.31.29,1.13-.16,1.44.13,9.95,5.65,14.81,7,22.38,10a117.57,117.57,0,0,0,20.7,6.32c1.46-7.84,4.74-30.42,8.14-37.63L118,257c-1.07.41-2.77.42,0,0l1,.22c-.73,7.42-5.1,30.32-6.38,37.43,16.52,4.19,27,5.68,42-.51l1.63-12.35a220.6,220.6,0,0,0,3.85-24.73c1-12.64-.11-25.81-5.93-37.13l-.12-1.51q-10.62,1.52-21.33,2.13l-1.78-.3q-9-1.63-17.91-3.91l-1.76-.44c-8.92,3.81-14.65-6.79-23.25-2.34-4,2.07-11.64,13.29-10.72,8.88h0C70,234.23,66.87,259.24,65.23,273,64.9,275.77,64.87,275.7,64.6,278.69Z" fill="#ebf5f7" stroke="#13213d" stroke-miterlimit="10"/>
        <path d="M112.63,226.81a108.26,108.26,0,0,0,33.66,2.52l-.62-4.05c-5.33-.54-10.7-.2-16.06-.36s-10.82-.87-15.57-3.35" fill="#fff" stroke="#13213d" stroke-miterlimit="10"/>
        <path d="M132,224.31l0-2.42-9.34-.87-1.1,8.63a1,1,0,0,0,.1.74,1,1,0,0,0,.58.29l3.57.88a6.25,6.25,0,0,0,3.55.17c1.13-.41,2-1.81,1.37-2.84l-6.08-.43a.54.54,0,0,1-.39-.14.54.54,0,0,1-.06-.42l.3-2.39a.85.85,0,0,1,.2-.51.74.74,0,0,1,.53-.12h6.15Z" fill="#fff" stroke="#13213d" stroke-miterlimit="10"/>
        <path d="M76.82,222.73a117,117,0,0,0,14.64,10.68,38.74,38.74,0,0,0,17,5.62q1.6-5.61,3.56-11.12l-.25,1.14q9-31.78,18.08-63.57c3.36-11.79,6.74-24.24,3.91-36.14-1.57-6.62-5-12.8-5.35-19.61l.36-2.54c-3.22,5.42-10.18,6.91-16.35,7.4s-10.44.84-15.11,5c-4.15,3.7-8,9.44-9.21,14.94C81.48,165.82,78,193,71.33,224.25" fill="#fca311" stroke="#13213d" stroke-miterlimit="10"/>
        <path d="M143.61,107.61c1.37,4.71,5.58,7.67,9.68,9.83s8.57,4,11.44,7.86c2.39,3.16,3.39,7.29,4.09,11.33,6.07,34.66-4.39,70.24-7.43,105.55l-1,.76a29.86,29.86,0,0,1-16.29.12l-1.55.31c4.81-28.71,5.29-58,5.73-87.05.24-15.84.39-32.16-5-46.76" fill="#fca311" stroke="#13213d" stroke-miterlimit="10"/>
        <path d="M128,110.32c5.81,11.83,7.95,23.05,6.27,36.12s-7,28.18-11.18,40.68h0c7.26-21,7.32-43.23,2.11-64.79l-.92-.81,1.78-4.48-.29-1-3.17-1.38a14.45,14.45,0,0,1,4.05-5.18" fill="#fca311" stroke="#13213d" stroke-miterlimit="10"/>
        <path d="M148,186.62c.32-25.31,1.63-52.7-4.32-77.3l.53.09a61.58,61.58,0,0,0,5,5.59,6.25,6.25,0,0,0-2.06,1.73l.68.88,2.8,2.88-.76,1.74,1-.25c-.63,21.23.19,22.63-2.82,65.38" fill="#fca311" stroke="#13213d" stroke-miterlimit="10"/>
        <path d="M148.14,199.44l1.08-.27a1.06,1.06,0,0,1,.29,1.61,1.05,1.05,0,0,1-1.62-.2" fill="#fff" stroke="#13213d" stroke-miterlimit="10"/>
        <path d="M155.53,206.94a1.22,1.22,0,0,1,.5-1.71,3.59,3.59,0,0,1,2-.25l5.72.42-.12,1.45" fill="none" stroke="#13213d" stroke-miterlimit="10"/>
        <path d="M120.45,58.51a28.64,28.64,0,0,1,20.15-24c6.62-1.87,13.74-1.24,20.36.63,6.79,1.92,13.35,5.21,18.12,10.41S186.66,58,185.5,65a56.77,56.77,0,0,1-2.07,7.31c-1,3.22-2.89,5.18-4.85,7.93,2-5,4-10.11,3.78-15.44-.22-6.11-3.38-11.83-7.66-16.19A36.61,36.61,0,0,0,152.37,38a30.12,30.12,0,0,0-6.91.05,27.53,27.53,0,0,0-14.77,7,33.4,33.4,0,0,0-8.94,13.78" fill="#ef9c9c" stroke="#13213d" stroke-miterlimit="10"/>
        <path d="M150.54,56.91c.34.32.34.65,0,.79a58.41,58.41,0,0,0-9.9-2.82,21.82,21.82,0,0,1,9.51,1.85" fill="#13213d" stroke="#13213d" stroke-miterlimit="10"/>
        <path d="M146.46,56l-2.94-.89,5.57,1.63" fill="#13213d" stroke="#13213d" stroke-miterlimit="10"/>
        <path d="M156.37,66a28.77,28.77,0,0,0-.24,12.77,1.09,1.09,0,0,1-.07.89,1.12,1.12,0,0,1-.61.35,7.62,7.62,0,0,1-3.89.1" fill="none" stroke="#13213d" stroke-miterlimit="10"/>
        <path d="M163.81,61.27c-.47,0-.67.32-.47.64a58.56,58.56,0,0,1,9.65,3.6,21.91,21.91,0,0,0-8.76-4.15" fill="#13213d" stroke="#13213d" stroke-miterlimit="10"/>
        <path d="M167.62,63l2.9,1-5.45-2" fill="#13213d" stroke="#13213d" stroke-miterlimit="10"/>
        <path d="M150.35,64.58a6.85,6.85,0,0,0-5.08-4,10.52,10.52,0,0,0-6.53,1" fill="none" stroke="#13213d" stroke-miterlimit="10"/>
        <path d="M146.79,66a2.3,2.3,0,0,1-1.06-1.44,1.53,1.53,0,0,1,.64-1.6,2,2,0,0,1,1.63-.06,2.22,2.22,0,0,1,.6.29,1.65,1.65,0,0,1,.38,2.19,1.78,1.78,0,0,1-2.18.59" fill="#13213d" stroke="#13213d" stroke-miterlimit="10"/>
        <path d="M146.5,64.73c-.07.31-.55.36-.75.12a.75.75,0,0,1,0-.88c.24-.32.81-.44,1-.09s-.1.62-.34.82a.6.6,0,0,1-.25.15c-.28.06-.52-.28-.47-.56a1.31,1.31,0,0,1,.47-.7c.09-.08.21-.18.33-.15a.34.34,0,0,1,.18.11,1,1,0,0,1,.29.71.57.57,0,0,1-.5.52.35.35,0,0,1,.63.15.36.36,0,0,1-.62.2" fill="#13213d" stroke="#13213d" stroke-miterlimit="10"/>
        <path d="M172.8,72.14a6.83,6.83,0,0,0-5.08-4,10.46,10.46,0,0,0-6.53,1" fill="none" stroke="#13213d" stroke-miterlimit="10"/>
        <path d="M169,72.71a2.3,2.3,0,0,1-1.06-1.44,1.55,1.55,0,0,1,.64-1.6,2,2,0,0,1,1.64,0,2.13,2.13,0,0,1,.59.28,1.67,1.67,0,0,1,.39,2.2,1.82,1.82,0,0,1-2.19.59" fill="#13213d" stroke="#13213d" stroke-miterlimit="10"/>
        <path d="M169.66,71.59c-.07.31-.56.36-.76.12a.74.74,0,0,1,0-.88c.23-.32.81-.45,1-.09s-.09.62-.34.82a.58.58,0,0,1-.25.15c-.28.06-.51-.28-.47-.56a1.43,1.43,0,0,1,.47-.7.44.44,0,0,1,.34-.16.41.41,0,0,1,.17.12.92.92,0,0,1,.3.71.58.58,0,0,1-.51.52.36.36,0,0,1,.64.15.35.35,0,0,1-.62.19" fill="#13213d" stroke="#13213d" stroke-miterlimit="10"/>
        <path d="M141.91,81.48a17.53,17.53,0,0,0,9,6.57c.92.3,1.31-1.15.39-1.44a15.92,15.92,0,0,1-8.06-5.89.77.77,0,0,0-1-.27.76.76,0,0,0-.27,1Z" fill="#13213d"/>
      </g>
      <g id="b779eb4a-f61a-4ca2-b18f-02e396427420" data-name="Layer 29">
        <path d="M206.25,190.36a55.14,55.14,0,0,0,5.9,1.83l.62.22c-.83,1.77-.29,2,0,4l.27.15a86.93,86.93,0,0,0,17.31,6.54,3.81,3.81,0,0,0,2,.15,1.34,1.34,0,0,0,1-1.53,24.64,24.64,0,0,1-8.74-3.43h0a1,1,0,0,1,1-.85,3.5,3.5,0,0,1,1.41.36c3.64,1.44,7.68,1.27,11.56,1.82a4.67,4.67,0,0,0,2.29,0,1.48,1.48,0,0,0,1-1.8,64.13,64.13,0,0,1-14.39-2.9v-.35l17.77,2.61a.68.68,0,0,0,.4,0,.67.67,0,0,0,.24-.45c.13-.63.24-1.26.32-1.9-5.91-1.39-9.53-2.68-15.6-2.53h0a105.78,105.78,0,0,1,12.58.52,3.38,3.38,0,0,0-.08-1.7l-11.39-1.67c-2-.29-4.07-.64-5.57-2l.56-.94a9.66,9.66,0,0,0,4.33.52,1,1,0,0,0,.63-.22,1.1,1.1,0,0,0,.16-1l-.32-2.26c-2.31,0-4.62-.07-6.92-.2a5.17,5.17,0,0,0-4.79,2.69l-.84,1.54a.77.77,0,0,1-.4.43.81.81,0,0,1-.38,0l-7.68-1.91" fill="#fcf0f0" stroke="#13213d" stroke-miterlimit="10"/>
      </g>
      <g id="a55c0636-9d4d-42d0-84f1-9c36e0147c68" data-name="Layer 26">
        <path d="M121.32,145c1.21,6.05,6.19,10.57,11.16,14.24a123.25,123.25,0,0,0,64,23.68c5,.36,10.05.43,14.89,1.71a6.84,6.84,0,0,1,3.55,1.87c1.2,1.43,1.18,3.5,1.09,5.37a13.91,13.91,0,0,1-1.16,6c-1,1.81-3,3.2-5,2.71l-.77-.2A167.29,167.29,0,0,1,115,175.22a30.4,30.4,0,0,1-8-6.46,30.63,30.63,0,0,1-4.4-8.66,175,175,0,0,1-6.18-20.53" fill="#fca311" stroke="#13213d" stroke-miterlimit="10"/>
      </g>
    </g>
    <g id="a79fdb60-7876-4941-9621-db19a1724c5a" data-name="archie">
      <g id="a3856b5c-ce9b-4fce-b7fb-339824d7a225" data-name="Layer 37">
        <path d="M282.71,504a53.21,53.21,0,0,0,7.08-.31h.77c.77,2.56,1.49,2.64,3.45,4.91l.38.07a92.84,92.84,0,0,0,21.81.53,2.88,2.88,0,0,0,2-.7,1.83,1.83,0,0,0-.39-2.33c-3.39.82-7.11.33-11.13-.43h0a1,1,0,0,1,.21-1.51,3.32,3.32,0,0,1,1.63-.16c4.63.19,8.24-1.8,12.32-2.81a3.39,3.39,0,0,0,2.12-1,2.19,2.19,0,0,0-.64-2.68,54.85,54.85,0,0,1-15.89,2.7l-.31-.43,18.8-4.54c.14,0,.29-.07.34-.21s-.05-.43-.16-.65c-.43-.84-.88-1.68-1.36-2.5-6.71.86-11.2.84-16.71,3.7h0a77.12,77.12,0,0,1,12.14-4.88,7.89,7.89,0,0,0-1.56-2.06l-12,2.91c-2.09.5-4.34,1-6.88,0l-.29-1.42a7.72,7.72,0,0,0,4.47-1.24.74.74,0,0,0,.39-.57,2.24,2.24,0,0,0-.68-1.25l-2.28-2.66c-2.15,1-4.36,1.93-6.61,2.79-1.93.74-2.74,2.85-2.09,5.43l.56,2.28c.07.26.13.55,0,.7a.55.55,0,0,1-.38.13l-8.81,1" fill="#fcf0f0" stroke="#13213d" stroke-miterlimit="10"/>
      </g>
      <g id="e0929b73-e9de-4d61-81c6-95af8db33c1c" data-name="Layer 33">
        <path d="M140,416c7.75-2.13,16-.83,23.92.47,3.18.53,6.44,1.08,9.17,2.78s4.75,4.49,6.54,7.24a131.11,131.11,0,0,1,13.81,28.06,17.39,17.39,0,0,0,2.74,5.64,16.09,16.09,0,0,0,5.27,3.6q20.47,10.26,41.44,19.47c15,3.77,16.29,3.21,24,3.53l9.67.4a13.86,13.86,0,0,1,4.35.65c3.56,1.35,5.39,5.38,5.85,9.17s-.72,3.9,0,7.65l.34,2.53a71.87,71.87,0,0,1-31.71,4.06c-10.19-1-20.37-4.18-30.48-2.59-4.63.73-17.78.33-22.37-.59-4.9-1-12.55-13.81-16-17.4-7.59-7.84-2.8-4.48-10.39-12.32-3.25-3.37-6.56-6.8-8.72-10.95" fill="#fca311" stroke="#13213d" stroke-miterlimit="10"/>
      </g>
      <g id="a434c03c-121a-43b5-bb1f-f81926271aac" data-name="Layer 35">
        <path d="M212.68,578.42c-2.48-9.28-4.42-16-4.86-21.28-.35-.76-.69-1.53-1-2.31l-41.21,15.93c.66,2.44,2.69,12.74,5.71,21.44C185,589,200.12,584.79,212.68,578.42Z" fill="#ebf5f7" stroke="#13213d" stroke-miterlimit="10"/>
        <path d="M123.76,591.29c22.19,2.89,25.75,2.22,47.56.91,4.35-.26,9.35-2.4,13.64-3.21l1.55-24.34c-16.5,6.13-34.63,4.81-52.46,4.85a11.68,11.68,0,0,1-2,6.42c-1.08,1.59-3.68.09-2.59-1.51a9.21,9.21,0,0,0,1.63-4.89c-2,0-3.94.08-5.89.16a3.07,3.07,0,0,0-1.94.53,2.05,2.05,0,0,0-.54,1.09c-.38,1.59-4.63-4-4.39-2.38.14.94,3.95,9.06,3.19,9.61h0c-.58.41-8.63-11.59-8.69-10.88-.51,5.66.47,12.21,2.23,21C116.46,589.7,122.25,591.09,123.76,591.29Z" fill="#ebf5f7" stroke="#13213d" stroke-miterlimit="10"/>
      </g>
      <g id="f6ddf9a0-44f3-4af5-bb42-ec47285d698b" data-name="Layer 34">
        <path d="M109.56,532.7c-1-15.31,2.78-31.14-1.79-45.79-4.1-13.16-14.74-24.69-14-38.46a10.07,10.07,0,0,1,1.48-5.25c1.25-1.8,3.32-2.81,5.24-3.88,5.68-3.2,6.5-5.83,10.3-11.13l9.6-8.06c5.86,6.12,11.11,10.78,19.08,7.91,5-1.8,13.72-7.89,13.67-13.19h0c6.21,3.74,9.41,11.12,15.62,14.86,3.8,2.28,7.65,4.61,10.7,7.83,4.55,4.8,7,11.19,9,17.48a213.66,213.66,0,0,1,9.83,53l.3-2.54a332.4,332.4,0,0,0,12.72,53c-10.37,9-24.65,11.94-38.34,13.12s-27.7,1-40.79,5.17c-5.68,1.81-12.43,4.26-17.1.56-3.75-3-4.07-8.45-4.08-13.24q0-21.62-.08-43.22" fill="#fca311" stroke="#13213d" stroke-miterlimit="10"/>
      </g>
      <g id="a61968a8-a183-4336-ad23-3a827ac0dbc1" data-name="Layer 31">
        <path d="M109.27,373.78c-3.45-11.09,2.1-23.82,11.7-30.36s22.35-7.39,33.46-4a9.89,9.89,0,0,1,4.74,2.61,10.54,10.54,0,0,1,1.91,4.27c1.3,4.79,4.38,9.7,3.23,14.54-.94,4,1.09,17.92-.76,25.14s-5.78,11.09-12.83,13.53l0,.15a138.15,138.15,0,0,1-17,1.5,35.12,35.12,0,0,1-11.06-1.06,20.41,20.41,0,0,1-13.39-13.44l.08-1a9.38,9.38,0,0,1-5.5-2.52,6.27,6.27,0,0,1-1.78-5.64,4.74,4.74,0,0,1,4.35-3.69,5.7,5.7,0,0,1,2.63.75,9.12,9.12,0,0,1,2.85,2.39" fill="#fcf0f0" stroke="#13213d" stroke-miterlimit="10"/>
        <path d="M131.83,355.43a1.69,1.69,0,0,1,.32,1.84,26.62,26.62,0,0,0-10.73,1.42,11.46,11.46,0,0,1,10-3.36" fill="#13213d" stroke="#13213d" stroke-miterlimit="10"/>
        <path d="M127.52,356.63l-3.22.3,6.06-.7" fill="#13213d" stroke="#13213d" stroke-miterlimit="10"/>
        <path d="M140,366.61a43.31,43.31,0,0,0,4.56,15.52,1.69,1.69,0,0,1,.27,1.1,1.43,1.43,0,0,1-.47.69,7.21,7.21,0,0,1-3.77,1.84" fill="none" stroke="#13213d" stroke-miterlimit="10"/>
        <path d="M147.37,357.77a1.54,1.54,0,0,0-.16,1.67,23,23,0,0,1,9.48.51,9.9,9.9,0,0,0-8.93-2.3" fill="#13213d" stroke="#13213d" stroke-miterlimit="10"/>
        <path d="M151.22,358.54l2.83,0-5.35-.2" fill="#fff" stroke="#13213d" stroke-miterlimit="10"/>
        <path d="M133,367.79a7.15,7.15,0,0,0-6.45-2.05,11,11,0,0,0-6,3.42" fill="none" stroke="#13213d" stroke-miterlimit="10"/>
        <path d="M128.73,369.93a2.4,2.4,0,0,1-1.56-1,1.61,1.61,0,0,1,0-1.81,2.07,2.07,0,0,1,1.58-.65,2.28,2.28,0,0,1,.69.06,1.75,1.75,0,0,1,1.19,2,1.88,1.88,0,0,1-1.93,1.38" fill="#13213d" stroke="#13213d" stroke-miterlimit="10"/>
        <path d="M129,368.57c0,.33-.41.56-.7.39a.77.77,0,0,1-.28-.88c.11-.4.63-.73.94-.45s.13.64,0,.94a.54.54,0,0,1-.19.23c-.25.16-.6-.08-.66-.37a1.39,1.39,0,0,1,.2-.86c.06-.12.14-.26.27-.28a.36.36,0,0,1,.21,0,1,1,0,0,1,.55.59.57.57,0,0,1-.3.69.37.37,0,0,1,.68-.08c.12.28-.29.6-.54.42" fill="#13213d" stroke="#13213d" stroke-miterlimit="10"/>
        <path d="M157.34,365.88a6.2,6.2,0,0,0-5.66-1.85,9.53,9.53,0,0,0-5.28,3.07" fill="none" stroke="#13213d" stroke-miterlimit="10"/>
        <path d="M153.84,367.63a2.09,2.09,0,0,1-1.38-.91,1.49,1.49,0,0,1,0-1.62,1.79,1.79,0,0,1,1.39-.59,2,2,0,0,1,.6.05,1.58,1.58,0,0,1,1,1.81,1.66,1.66,0,0,1-1.69,1.24" fill="#13213d" stroke="#13213d" stroke-miterlimit="10"/>
        <path d="M154.08,366.42c0,.29-.35.5-.6.35a.7.7,0,0,1-.25-.79c.1-.36.55-.66.82-.41s.12.58,0,.84a.5.5,0,0,1-.17.21c-.22.15-.53-.07-.58-.33a1.24,1.24,0,0,1,.18-.77c.05-.11.12-.24.24-.25a.3.3,0,0,1,.18,0,.87.87,0,0,1,.48.53.51.51,0,0,1-.26.62.32.32,0,0,1,.59-.07c.11.25-.25.54-.47.37" fill="#13213d" stroke="#13213d" stroke-miterlimit="10"/>
        <path d="M145.83,389.48c-.35,1-3.34,2.33-4.85,2.27a12.19,12.19,0,0,1-4.16-1.11l-1.37-1.11a19.26,19.26,0,0,0,10.72-.69" fill="none" stroke="#13213d" stroke-miterlimit="10"/>
        <path d="M145.26,412a4.6,4.6,0,0,1,2.86.2A101,101,0,0,1,138.84,423a2.27,2.27,0,0,1-1.05.71,2.43,2.43,0,0,1-.93-.07c-6.1-1.35-12.4-2.79-17.4-6.54q2.76-.86,5.58-1.53a2.67,2.67,0,0,1,1.45-.08c.66.22,1,.88,1.5,1.39,1.63,1.83,4.42,1.94,6.87,1.8a17,17,0,0,0,6.52-1.34,6.62,6.62,0,0,0,3.91-5.07Z" fill="#d68816" stroke="#13213d" stroke-miterlimit="10"/>
        <path d="M152.13,414.25a26,26,0,0,1,.81,6.44l-.13.9A48.07,48.07,0,0,1,136.74,429l-.26-.4a10,10,0,0,1,2.69-6,19.49,19.49,0,0,1,2.18-1.71,30.46,30.46,0,0,0,7.79-8.69l1.13-.7a47,47,0,0,0-6.59-.29" fill="#fca311" stroke="#13213d" stroke-miterlimit="10"/>
        <path d="M117.61,420.61a19.73,19.73,0,0,0,1.28,6.35l.47.81a75.75,75.75,0,0,0,22.43,1.32l.18-.46a10.26,10.26,0,0,0-5.43-4.68,28.35,28.35,0,0,0-3.29-.85,38.86,38.86,0,0,1-12.67-5.44l-1.64-.26a75.61,75.61,0,0,1,8-2.61" fill="#fca311" stroke="#13213d" stroke-miterlimit="10"/>
        <path d="M145.34,419.34c-4.29,3.89-7.82,5.64-15.31,1.71h-.4l-.72-19.33.14-.27a47.1,47.1,0,0,0,14.68-.59l1.23-.26a174.66,174.66,0,0,1,.38,18.73" fill="#fcf0f0" stroke="#13213d" stroke-miterlimit="10"/>
        <path d="M142.27,428.19c.79.12,1.48,1.05,1.09,1.75s-1.82.2-1.49-.54" fill="#fff" stroke="#13213d" stroke-miterlimit="10"/>
        <path d="M145.62,458.8c.12.88.75,1.45.34,2.21a1.82,1.82,0,0,1-2.1,1,1.39,1.39,0,0,1-.57-2.12l.53-1.07c-.3-12.43-1.8-20.48-2.27-28.35l1.27.16c.78,8.92,2,19.25,2.8,28.17" fill="#fff" stroke="#13213d" stroke-miterlimit="10"/>
        <path d="M146.72,450.51c.12.66-.2,1.21.27,1.67a1.38,1.38,0,0,0,1.74.22,1,1,0,0,0-.09-1.65l-.62-.64c-2.68-9-3.48-15.07-5-20.81l-.87.41c1.52,6.56,3,14.24,4.55,20.8" fill="#fff" stroke="#13213d" stroke-miterlimit="10"/>
        <path d="M123.44,332.53c-15.7,2-21.52,18-20,28.47.58,4,2.06,8.05.85,11.92l.31,1c1.62,1.21,2.58.41,4.66.47A69.4,69.4,0,0,0,108,363.44h0c3.8-6.65,6.75-9.25,9.5-16.3h0c6.9,1.9,11.09.23,20-.84,7.42-.9,17.56-.08,22.42-5.5" fill="#13213d" stroke="#13213d" stroke-miterlimit="10"/>
        <path d="M122.24,332.71c-1-3-3.17-4.52-.79-10.15,1.93-4.58,10.69-4.94,13.59,0,2.59,4.39-.66,6.35-.65,9.55l9.68-.39c6.46-.13,12.77,3.74,17,8.64,6.93,8,5.79,20.6,5.49,31.21,0,1.07-1,.58-1.76,1.37h0c-1.53-7-.89-14.47-2.59-21.45-1.1-4.48-.16-2.37-4.22-9.89" fill="#13213d" stroke="#13213d" stroke-miterlimit="10"/>
      </g>
      <g id="a4ca3f61-24d5-4193-84d1-81b32463096c" data-name="Layer 36">
        <path d="M190,531.1a54.84,54.84,0,0,0,7.08-.32h.77c.77,2.56,1.49,2.64,3.45,4.91l.39.07a92.75,92.75,0,0,0,21.8.53,2.84,2.84,0,0,0,2-.7,1.83,1.83,0,0,0-.38-2.33c-3.39.82-7.12.33-11.14-.43h0a1,1,0,0,1,.22-1.5,3.16,3.16,0,0,1,1.62-.17c4.64.19,8.24-1.8,12.33-2.81a3.37,3.37,0,0,0,2.11-1,2.18,2.18,0,0,0-.63-2.68,54.92,54.92,0,0,1-15.9,2.71l-.3-.44,18.79-4.54c.14,0,.29-.07.34-.21a.89.89,0,0,0-.16-.65c-.42-.84-.88-1.67-1.36-2.5-6.71.86-11.2.84-16.7,3.7h0a76,76,0,0,1,12.13-4.87,7.57,7.57,0,0,0-1.56-2.07l-12,2.91c-2.09.51-4.34,1-6.88,0l-.29-1.41a7.77,7.77,0,0,0,4.47-1.25.72.72,0,0,0,.39-.56,2.23,2.23,0,0,0-.68-1.26l-2.27-2.66q-3.24,1.5-6.61,2.79c-1.93.74-2.74,2.85-2.1,5.43l.57,2.28c.06.26.13.55,0,.7a.52.52,0,0,1-.38.13l-8.8,1" fill="#fcf0f0" stroke="#13213d" stroke-miterlimit="10"/>
      </g>
      <g id="ba856c3a-d687-4c29-8156-173f0e2fc447" data-name="Layer 32">
        <path d="M114.26,472.35c-1.4,11.78-2.13,25.49,6.55,33.57,4.65,4.33,11.1,6,17.26,7.57l14.49,3.64c9.76,2.45,19.94,4.91,29.79,2.84,4-.84,9.3-1.89,11.27,1.7a8.58,8.58,0,0,1,.77,3.41c.25,3,.5,6.18-.37,9.12s-3.11,5.67-6.13,6.19l-1.56-.72c-7.07,2.79-14.3,5.62-21.89,6-9,.41-17.81-2.74-26.3-5.84l-27.08-9.89c-5.65-2.06-11.36-4.15-16.29-7.58S85.69,513.9,84.56,508c-1.28-6.66,1.37-13.47,1-20.23-.25-4.31-1.72-8.44-2.45-12.69-1.36-8-.08-16.16,1.2-24.15.38-2.37.79-4.82,2.14-6.8A16.11,16.11,0,0,1,91.17,440q10.9-7.15,22.39-13.33" fill="#fca311" stroke="#13213d" stroke-miterlimit="10"/>
      </g>
    </g>
    <g id="bbde273d-771d-4d85-a7d7-e37131080d44" data-name="abi">
      <g id="ba583117-1ba6-4efb-bfeb-5f4a61282ff5" data-name="Layer 38">
        <path d="M927.73,403.55c-.78,5.49-1.56,11-1.17,16.55s2.05,11.12,5.63,15.35c1.72,2,4,3.76,6.65,4,4,.39,7.69-2.89,8.88-6.73l-.3-.07,3.66-12.92c2.54-8.94,6.76-34.26,3.1-42.81-.92-2.15,0,0-.94-2.14-1.63-3.75-6.08,3.43-5.41-.6" fill="#13213d" stroke="#13213d" stroke-miterlimit="10"/>
        <path d="M905.34,360.12c.18-4.25-4.39,26.17-.19,26.83s7.5,4.21,9,8.2,1.35,8.38.94,12.61a81.77,81.77,0,0,1-9.73,32.08c-3,5.4-7.34,10.8-13.42,12h0c-.74-.32-1-1.26-1.69-1.63-24.75-13,1.65-60.19,9.88-90" fill="#13213d" stroke="#13213d" stroke-miterlimit="10"/>
        <path d="M946.12,376.78a98.27,98.27,0,0,0,2-10.89,10.56,10.56,0,0,0-.39-5.75,10.21,10.21,0,0,0-3.87-3.93,59.07,59.07,0,0,0-26.62-9.76,23.06,23.06,0,0,0-8.49.34,10.44,10.44,0,0,0-6.65,5l-.34-.42-7.81,24.85c-1.8,5.74-.73,13.23,2.13,18.51,2.14,3.95,3.56,5.23,7.69,7a52.05,52.05,0,0,0,17.68,4.63c6.12.33,12.45-1,17.44-4.56l-.87.61a21.13,21.13,0,0,0,4.65-8.15l1.15-1a19.2,19.2,0,0,0,4.89-2.13,6.45,6.45,0,0,0,2.93-4.3,7.61,7.61,0,0,0-.39-3.2,6.64,6.64,0,0,0-2.56-3.95c-1.38-.83-3.52-.5-4.12,1" fill="#fcf0f0" stroke="#13213d" stroke-miterlimit="10"/>
        <path d="M924.23,366.29c-.48.1-.65.4-.42.71A60.53,60.53,0,0,1,934,369.82a22.59,22.59,0,0,0-9.37-3.47" fill="#fff" stroke="#13213d" stroke-miterlimit="10"/>
        <path d="M928.3,367.69l3.07.8-5.78-1.56" fill="#fff" stroke="#13213d" stroke-miterlimit="10"/>
        <path d="M914.22,371.15a29.66,29.66,0,0,1-6.64,11.37c-.22.24-.46.51-.42.82a1.24,1.24,0,0,0,.35.64,7.93,7.93,0,0,0,3.37,2.17" fill="none" stroke="#13213d" stroke-miterlimit="10"/>
        <path d="M910.21,363c.38.3.41.64.06.81a59.67,59.67,0,0,0-10.42-2,22.58,22.58,0,0,1,9.94,1.05" fill="#fff" stroke="#13213d" stroke-miterlimit="10"/>
        <path d="M905.94,362.45l-3.11-.65L908.7,363" fill="#fff" stroke="#13213d" stroke-miterlimit="10"/>
        <path d="M920.27,373.15a7.08,7.08,0,0,1,6.62-.79,10.84,10.84,0,0,1,5.19,4.44" fill="none" stroke="#13213d" stroke-miterlimit="10"/>
        <g id="b3d1a5fc-8c84-4a7f-ade7-30dce0fa11fc" data-name="Layer 40">
          <path d="M755.05,419.29c-3.42.11-6.44-2.59-9.82-2,1,2.53,3.67,4,6.19,5a74.52,74.52,0,0,0,14.89,4.57c1.84.37,4,.59,5.39-.63l.75-.28,3,.18L818,453.42c4.55,2.92,9.21,5.89,14.47,7.15,4.75,1.13,9.72.8,14.6.47L862.48,460c9.5-.66,19.13-1.34,28.13-4.48S908,446.4,912,437.77s7.07-2.17-.38-8.1l1.46,1.11c-3.29.77-2.08-2.39-3.29.77s-13-4.08-14.78-1.21c-3.8,6.08-11.7,8-18.67,9.37-9.93,1.94-19.92,3.58-30,4.81a49.81,49.81,0,0,1-12.31.41c-4.51-.56-8.79-2.25-13-3.93-14.21-5.64-28.27-14.74-39.91-21.11l1-1.91a8.79,8.79,0,0,0-3.31-5.36c-2.09-1.57-4.75-2.12-7.31-2.63l-5.13-1-.72,2.33,6.08,2.62.92.39a27.23,27.23,0,0,0-8.29-4c-5.79-1.85-11.46-3.45-16.74-6.46-.93.16-1.25,1.45-.8,2.27a4.44,4.44,0,0,0,2.22,1.64l5.53,2.51-1.48-.22c-4.91-2.55-13.7-4.58-14.51-3.54.29,1-.08,1.37.92,1.77l15.08,6-3.22-.58a80.28,80.28,0,0,0-11.67-3.12.82.82,0,0,0-.47,1.56L756,419.71" fill="#fcf0f0" stroke="#13213d" stroke-miterlimit="10"/>
        </g>
        <path d="M925,376.2a2.34,2.34,0,0,0,1.7-.7,1.58,1.58,0,0,0,.3-1.75,2.05,2.05,0,0,0-1.41-.93,2.62,2.62,0,0,0-.68-.07,1.72,1.72,0,0,0-1.52,1.73,1.85,1.85,0,0,0,1.61,1.69" fill="#fff" stroke="#13213d" stroke-miterlimit="10"/>
        <path d="M925,374.83c-.11.31.29.62.6.51a.78.78,0,0,0,.43-.8c0-.41-.47-.82-.82-.61s-.25.6-.14.91a.6.6,0,0,0,.14.26c.21.21.6,0,.71-.23a1.37,1.37,0,0,0,0-.87c0-.13-.08-.28-.21-.32a.3.3,0,0,0-.21,0,1,1,0,0,0-.64.46.58.58,0,0,0,.16.73.37.37,0,0,0-.64-.21c-.16.25.17.64.44.51" fill="#fff" stroke="#13213d" stroke-miterlimit="10"/>
        <path d="M896.45,367.75a7.06,7.06,0,0,1,6.61-.79,10.8,10.8,0,0,1,5.2,4.43" fill="none" stroke="#13213d" stroke-miterlimit="10"/>
        <path d="M901.05,370.6a2.34,2.34,0,0,0,1.7-.7,1.58,1.58,0,0,0,.3-1.75,2.05,2.05,0,0,0-1.41-.93,2.58,2.58,0,0,0-.68-.07,1.72,1.72,0,0,0-1.52,1.73,1.85,1.85,0,0,0,1.61,1.69" fill="#fff" stroke="#13213d" stroke-miterlimit="10"/>
        <path d="M901,369.23c-.11.31.29.62.6.51a.77.77,0,0,0,.43-.8c0-.4-.47-.82-.82-.61s-.25.6-.14.91a.63.63,0,0,0,.14.27c.21.2.6,0,.71-.24a1.37,1.37,0,0,0,0-.87c0-.13-.08-.28-.21-.32a.38.38,0,0,0-.21,0,1,1,0,0,0-.64.46.58.58,0,0,0,.16.73.35.35,0,1,0-.19.3" fill="#fff" stroke="#13213d" stroke-miterlimit="10"/>
        <g>
          <path d="M916.3,391.93c-4.18,0-8.15-.54-11.71-2.74" fill="none" stroke="#13213d" stroke-miterlimit="10"/>
          <path d="M916.63,392.31a7.54,7.54,0,0,1-4.68,1.83,8.71,8.71,0,0,1-3.22-.07,7,7,0,0,1-4.27-4.32" fill="none" stroke="#13213d" stroke-miterlimit="10"/>
        </g>
        <path d="M947.27,382.08c4.84-8.17,3.31-22.2-3-29.27s-16.22-10.3-25.7-10l-1.19,2.41c-1.46,4.91.55,7.78,3.19,12.18a48.12,48.12,0,0,0,9.51,11.49c4.55,3.64,9.07,7.18,14,8.15" fill="#13213d" stroke="#13213d" stroke-miterlimit="10"/>
        <path d="M900.78,355c-2.1,1.68-8.17,11.31-10.78,8.78a36.89,36.89,0,0,1,3.56-14.15,19.39,19.39,0,0,1,10.56-9.7c4.64-1.58,10.23-.68,13.63,2.85h0c.26,5.49.61,7.34-1.21,9.85-1.38,1.89-6,8.92-7.84,10.39-2.92,2.34-10.52,4.82-14.21,4.17,1.14-2.82,6.23-12.53,8.59-14.45" fill="#13213d" stroke="#13213d" stroke-miterlimit="10"/>
        <path d="M895.4,371.54c-.55-8.38-2.64-22.63,4.69-26.74a21.18,21.18,0,0,1,7.57-2.28,49.5,49.5,0,0,1,25.25,3.36,30.77,30.77,0,0,1,11.45,7.41,25.11,25.11,0,0,1,6.16,15.94c.21,5.81.58,5.18-1.85,10.46l3,7.15c7.6,0,10.4-3.66,13.14-9.55,3-6.36,4.22-13.8,1.06-20.06-3.29-6.53-9.82-10.77-16.37-14a110.24,110.24,0,0,0-36.31-10.77c-7.33-.85-18,1.42-23.64,6.14-4.41,3.67-5.46,8.43-5.14,14.16s7.58,14.23,11,18.81" fill="#ef9c9c" stroke="#13213d" stroke-miterlimit="10"/>
        <path d="M909,332.31a155.53,155.53,0,0,1,39.54,10.43,24,24,0,0,1,7,3.88l.2-.84a12,12,0,0,0-4.53-7.5,30.6,30.6,0,0,0-7.83-4.3,65.36,65.36,0,0,0-17-4.9,35.25,35.25,0,0,0-18.24,2.65" fill="#ef9c9c" stroke="#13213d" stroke-miterlimit="10"/>
        <path d="M944.65,432.61c-6.76,13.87-3.83,31.85,7,42.85" fill="#fcf0f0" stroke="#13213d" stroke-miterlimit="10"/>
        <path d="M912.14,406.68c.57,4.14-1.09,10.16-.36,13.89l1.46-.51a5.32,5.32,0,0,0,4.43,2.19,10.19,10.19,0,0,0,4.89-1.45l.92-1c-.11-4.75,1.12-7.49.53-13.18" fill="#fcf0f0" stroke="#13213d" stroke-miterlimit="10"/>
        <path d="M949,433.93c-3.25-.93-11.13-3.93-14.28-5.12a22.77,22.77,0,0,1-6.4-3.32,8.29,8.29,0,0,1-3.33-6l-.09-.28a13.66,13.66,0,0,1-11.68,1.15l-1-.9a13.27,13.27,0,0,1-9.44,8.34,45.42,45.42,0,0,0-5.5,1.13l.06.41a32.84,32.84,0,0,1-6.91,14.06c-2.58,3.22-5.61,6.16-7.55,9.76-4.32,8-2.57,17.75.74,26.18s8.1,16.41,9.8,25.26l.27,0c3.38,4.87,9.49,7.34,15.47,8.51a53.74,53.74,0,0,0,34-4.53l-.25-.46q4-14.79,7.93-29.59c.6-2.23,1.2-4.57.64-6.81-.48-1.93-1.77-3.56-2.88-5.23-6.41-9.61-3-16.18,1.54-26.68" fill="#13213d" stroke="#13213d" stroke-miterlimit="10"/>
        <path d="M942.73,527c-16.69,3.13-35,4.25-50.17-5A46,46,0,0,0,895,505.47l.34.21c6.28,6.25,14.21,8.13,22.13,8.35a53.26,53.26,0,0,0,23.37-4.46l1.26-.56a98.88,98.88,0,0,0,2.11,15.07" fill="#fcf0f0" stroke="#13213d" stroke-miterlimit="10"/>
        <path d="M897.84,621.58a146.07,146.07,0,0,0,16.59-.49q.62-20.61,1.85-41.16l-40.66,11.93c.67,9.65,1.27,18.71,1.84,27.3A110.78,110.78,0,0,0,897.84,621.58Z" fill="#fcf0f0" stroke="#13213d" stroke-miterlimit="10"/>
        <path d="M935.85,617.69a114.68,114.68,0,0,0,17.51-5.87c2.71-1.12,5.42-2.24,8.16-3.29q1.56-10.11,3.3-20.2L913.12,600q.69,10.56,1.25,21.11A147.12,147.12,0,0,0,935.85,617.69Z" fill="#fcf0f0" stroke="#13213d" stroke-miterlimit="10"/>
        <path d="M891.12,522.29l1.16-.29" fill="#fff" stroke="#13213d" stroke-miterlimit="10"/>
        <path d="M908.82,583.65c.62,8,1.59,15.45.92,23.46h0c-9.09-6.26-22.71-9.2-33.71-10.2l-.62.1a219.37,219.37,0,0,1,14.9-73.38l.28-.54a93,93,0,0,0,53.78,1.77l2,.64a161.16,161.16,0,0,1,20.05,69.19l-.8,0c-9.22-1.83-18.84-.57-27.83,2.18S920.37,603.8,912,608l-1.06-.79q.24-12.08-.51-24.13" fill="#ebf5f7" stroke="#13213d" stroke-miterlimit="10"/>
        <path d="M905.71,528.43l-.79,31.38" fill="#fff" stroke="#13213d" stroke-miterlimit="10"/>
        <path d="M906.35,560.35a3.27,3.27,0,0,0,2.62-.15" fill="#fff" stroke="#13213d" stroke-miterlimit="10"/>
        <path d="M911.66,528.87a58.64,58.64,0,0,0-.44,11.77" fill="#fff" stroke="#13213d" stroke-miterlimit="10"/>
        <path d="M897.23,529.73l-2.41,6.83a4.7,4.7,0,0,1-1.25,2.19,3.24,3.24,0,0,1-3.54.09,9.51,9.51,0,0,1-2.68-2.61" fill="#ebf5f7" stroke="#13213d" stroke-miterlimit="10"/>
        <path d="M906.34,583.43l-5.22-3.5" fill="#fff" stroke="#13213d" stroke-miterlimit="10"/>
        <path d="M965.57,595.51l-1.67,3.09" fill="#fff" stroke="#13213d" stroke-miterlimit="10"/>
      </g>
      <g id="b78fab9a-006e-4df1-a36a-f482c3574dc3" data-name="Layer 39">
        <path d="M797.52,456.64c-3.41.32-6.59-2.2-9.92-1.42,1.16,2.47,3.91,3.73,6.48,4.64a75.06,75.06,0,0,0,15.15,3.66c1.86.25,4,.34,5.34-1l.72-.34h3l44.11,24.63c4.72,2.63,9.56,5.31,14.88,6.24,4.82.85,9.76.21,14.61-.42l15.34-2c9.44-1.23,19-2.51,27.8-6.19s16.83-10.13,20.31-19,1.32-20.23-6.48-25.69l-1.68,2.15c-3.25,1-5.21,4.27-6.23,7.5s-1.41,6.69-3,9.66c-3.42,6.31-11.19,8.71-18.06,10.5-9.8,2.55-19.67,4.8-29.62,6.64A50.11,50.11,0,0,1,878,477.39c-4.54-.29-8.92-1.72-13.24-3.13-14.53-4.75-29.12-13-41.13-18.63l.84-2a8.77,8.77,0,0,0-3.63-5.14c-2.18-1.45-4.87-1.83-7.46-2.18l-5.18-.7-.58,2.37,6.24,2.24.93.34a27.07,27.07,0,0,0-8.52-3.48c-5.89-1.49-11.64-2.74-17.1-5.42-.92.21-1.16,1.52-.65,2.32a4.41,4.41,0,0,0,2.31,1.5l5.67,2.16-1.49-.12c-5.06-2.25-13.95-3.74-14.7-2.65.35,1,0,1.37,1,1.71l15.43,5.05-3.25-.38a82,82,0,0,0-11.84-2.4.82.82,0,0,0-.37,1.59L798.47,457" fill="#fcf0f0" stroke="#13213d" stroke-miterlimit="10"/>
      </g>
    </g>
    <g id="af3dd69f-384e-49b9-9536-5256f1e80d70" data-name="caliqo">
      <g id="eae2362d-62bc-40cc-9936-ff38c09f2c8e" data-name="Layer 45">
        <path d="M740.38,149.57c-3.48-2.72-7.4-3.62-11.31-5.64a18.26,18.26,0,0,0-3.05-1.31,2.15,2.15,0,0,0-1.82,3.82c4.78,3.37,12,5,17,7.55l.29,1.55L732.69,151l-.93,2.11c6.9,5.26,13.43,7.88,20.87,12.3a2.81,2.81,0,0,0,1.45.52,2.61,2.61,0,0,0,1.45-.66l3.74-2.71,1.22-.51,6.74,5.22,1.29.12a6.71,6.71,0,0,0,3.56-4.06,8.31,8.31,0,0,0-.38-4.69,6.82,6.82,0,0,0-1.86-3.11l0-.51c-2.23-1.21-6.31-2.72-6.83-6.16.9-1.7.14-3.93-1.25-5.3a13.71,13.71,0,0,0-5.07-2.77L752.08,139a3.61,3.61,0,0,0-1.12-.28c-1.72,0-1.41.79-.38,2.2s.95.48,2.71,2.46l-.88-.47a79,79,0,0,0-19.46-9.3,1.87,1.87,0,0,0-1.74,3.24l0,0a70.9,70.9,0,0,0,16.63,9.49l-2.52-.7-20.59-11.53a3,3,0,0,0-1.5-.51c-1.11,0-1.77,1.39-1.54,2.49a5.69,5.69,0,0,0,1.91,2.73,53,53,0,0,0,20,11.69" fill="#fcf0f0" stroke="#13213d" stroke-miterlimit="10"/>
        <path d="M863.82,122q-11.34,21.39-24,42.08l-1.63.81c-24.38,1.59-47.43-10.22-71.42-14.87l-2.07.68a18.51,18.51,0,0,1-.93,15.56l.16,1.16a275.53,275.53,0,0,0,92.65,32.49l1.77-1.11a209.8,209.8,0,0,0,35.29-82.35l.35-1.6q-7.62-14.79-14-30.19" fill="#fca311" stroke="#13213d" stroke-miterlimit="10"/>
      </g>
      <g id="a4136566-0725-4bc2-97b1-069f9116ca36" data-name="Layer 42">
        <path d="M946.3,243.35a224.73,224.73,0,0,1-81.13-6.95l-4.25,24.87-6.51,33.9a20.76,20.76,0,0,1,3.86,2.31,35.82,35.82,0,0,0,5.8,3,106.17,106.17,0,0,0,23.5,7.62c3.56.67,7.14,1.17,10.73,1.57.32-.86.65-1.71,1-2.56,0,.89.07,1.79.1,2.68,4.17.44,8.35.76,12.53,1.05a1.55,1.55,0,0,1,.83.32c6.1,0,12.22-.42,18.29-.85,2.42-.17,4.85-.37,7.26-.64l1.54-.19h0c2.14-.26,4.27-.56,6.38-1,.39-.1.78-.2,1.17-.32.93-16.87,1.84-33.3,3-54.68ZM899.23,306c-.29-.83-.59-1.58-.91-2.27l.88,1.47,0,.82Z" fill="#ebf5f7" stroke="#13213d" stroke-miterlimit="10"/>
        <path d="M894,296.55c-.37-.6-.76-1.24-1.15-1.95Z" fill="#13213d" stroke="#13213d" stroke-miterlimit="10"/>
        <path d="M885,81.37a41.74,41.74,0,0,1,2.9,7.38l.82.21a14.36,14.36,0,0,0,13-6.18l.84-.77a55.7,55.7,0,0,1-2.48-9.43" fill="#fcf0f0" stroke="#13213d" stroke-miterlimit="10"/>
        <path d="M911.47,95.37,905.4,87.1,905,88c-2.77.07-5.17,1.8-7.65,3a23,23,0,0,1-7.29,2.19,9.53,9.53,0,0,1-3.91-.17c-2.3-.7-2.8-3-3-5.43h0c-3.83,1.89-6.08,6-7.12,10.18a52.4,52.4,0,0,0-1.2,9.68c-1.73,30.32-.16,60.83-3.7,91-1.62,13.88-4.33,27.76-3.4,41.69l1.29.73c2.82,1.68,6.16,2.21,9.41,2.59a125.18,125.18,0,0,0,25,.37l-.64-.47q3.18-73.2,8.28-146.31" fill="#fff" stroke="#13213d" stroke-miterlimit="10"/>
        <path d="M889.12,100.65l.85,0a5.72,5.72,0,0,0-.4-8.06l-1-.44a6,6,0,0,0-1.49,8" fill="#ef9c9c" stroke="#13213d" stroke-miterlimit="10"/>
        <path d="M883.38,258.59l3.23-6.58-.25-.38q5.55-74.91,3.79-150.12l-.09-.2a1.64,1.64,0,0,0-1.68-1.64,2.15,2.15,0,0,0-1.87,1.62l.15.55q.54,76.54-6.26,152.91h.46l1.55,4.14" fill="#ef9c9c" stroke="#13213d" stroke-miterlimit="10"/>
        <path d="M890.68,89a23.67,23.67,0,0,0,11.71-7.54l1.17.65,3,4.77A63.15,63.15,0,0,1,891.79,97a31.67,31.67,0,0,1-2.54-7.41" fill="#fff" stroke="#13213d" stroke-miterlimit="10"/>
        <path d="M888.88,90.35,886,95.51a24.16,24.16,0,0,1-2.1-6.24A8.19,8.19,0,0,1,885.31,83a28.77,28.77,0,0,0,2.56,6Z" fill="#fff" stroke="#13213d" stroke-miterlimit="10"/>
        <path d="M909.3,89c7.56-.31,13.77,2.2,16.37,9.3s1.26,14.94,2.09,22.46c5.66,51.24,9.15,74.58,24.55,121l-.28,3.93a124.63,124.63,0,0,1,8.09,33.82l-.68-.57c-.57,7.29-6.78,13.38-13.89,15.11s-14.74-.38-20.88-4.34c-9.56-6.16-15.84-16.48-19.2-27.34s-4.09-22.34-4.57-33.69a849.78,849.78,0,0,1,5.22-141.48" fill="#fca311" stroke="#13213d" stroke-miterlimit="10"/>
        <path d="M884.77,85.74c-10.08,5.39-20.28,11.83-25.78,21.85a55.17,55.17,0,0,0-4.72,12.93c-10.75,41.47-5.7,85.69-15.52,127.38l.58-.07a118.3,118.3,0,0,0,1,20.43c.75,5.6,2.68,12.07,8,13.9,4.5,1.54,9.57-1.21,12.21-5.16s3.42-8.82,4.09-13.52a916.49,916.49,0,0,0,9-106.83c.57-22.72.37-45.92,7.54-67.48" fill="#fca311" stroke="#13213d" stroke-miterlimit="10"/>
        <path d="M900.31,206.19c-2.31-13.74-1-27.67.06-41.49q3.21-40.63,4.29-81.36l-1.36-.94a75.42,75.42,0,0,1,9,19.23l-.38,1a859.25,859.25,0,0,0-11.26,105" fill="#fca311" stroke="#13213d" stroke-miterlimit="10"/>
        <path d="M871.13,196.68c2.56-16.75,0-14.38,1.73-28.14,3.3-27,5.88-55.59,10.59-82.34h0c.67.5-1.23-.36-1.67.35-3.53,5.85-4.08,7.13-7.13,12.8l-.48,7.66c-1.17,35.29-2.14,58-2.92,91.31" fill="#fca311" stroke="#13213d" stroke-miterlimit="10"/>
        <path d="M871.09,136.27l-8.46-5.18" fill="#fff" stroke="#13213d" stroke-miterlimit="10"/>
        <path d="M869.14,141.13l-5.4-3.32" fill="#fff" stroke="#13213d" stroke-miterlimit="10"/>
        <path d="M929.37,249.05,937,263.39" fill="#fff" stroke="#13213d" stroke-miterlimit="10"/>
        <path d="M850.49,259.6l-3.84,4.18" fill="#fff" stroke="#13213d" stroke-miterlimit="10"/>
        <path d="M911.09,60.9c2.51-.52-5.91,14.25-13.86,18.17a61.38,61.38,0,0,1-9.5,3.75c-5.39,1.87-18.69,2.57-23.72,1s-8.94-5.62-9.23-10.47h0c-.85,3.88,1.61-3.18,1.09-2.6a5.87,5.87,0,0,1-5.15,2.11c-4.86-.77-7.9-4.15-9.79-7.85-2.22-4.34-3.12-8.23-1.34-13.13h0c-3.08-3.8-1.81-1.29-4.25-5.28s-2.77-7.9-2.78-12.64c0-2.71.51-5.79,3-7.7l1-.84a4.16,4.16,0,0,1,.82-4.51,6,6,0,0,1,4.9-1.87l1.86,3.88c-2.17-5.15.22-11.91,5.57-15.73S862.88,2.76,868,5.84L867,7a7,7,0,0,1,5.91-3.55,7.19,7.19,0,0,1,6.65,3L875.18,9.2c1.73-2.57,10.15-8.67,13-8.7,3.37,0,12.63,1.7,14.46,5.65,1.67,3.59,1.53,7.31,1.1,11.37l-.6,2.14c2.22-.09,5.85-.76,8.13,2.24A24.7,24.7,0,0,1,915.71,34c.08,2.69-1,6.94-4.81,8.13h0c-1-.17-1.85.46-1.15,1.05,2.6,2.18,6.51,2.38,6.78,11,.17,5.68-7.07,8.34-11.31,10.5-5.12,2.59-11,4.42-16.13,2.94a11,11,0,0,1-5.78-3.62,9.52,9.52,0,0,1-1.81-5.74,8,8,0,0,1,1.16-4.54A5.92,5.92,0,0,1,887,51.1" fill="#f9e1e1" stroke="#ef9c9c" stroke-miterlimit="10"/>
        <path d="M873.88,14c-6.12,3.91-9.74,10.6-9.68,16.86a13.18,13.18,0,0,1-.29,4.42,4.35,4.35,0,0,1-3.62,3,3.8,3.8,0,0,1-3.38-2.3,8.44,8.44,0,0,1-.82-5.09c.1-.72.85-1.71,1.51-1.34" fill="none" stroke="#ef9c9c" stroke-miterlimit="10"/>
        <path d="M906.71,45.77a18,18,0,0,0-10.41-2.51" fill="none" stroke="#ef9c9c" stroke-miterlimit="10"/>
        <path d="M902.3,19.05a11.49,11.49,0,0,1-1.71,8.23" fill="none" stroke="#ef9c9c" stroke-miterlimit="10"/>
        <path d="M861.48,72.68c.47,2.64,3.37,4.56,6.51,4.95a16.93,16.93,0,0,0,9.21-1.9" fill="none" stroke="#ef9c9c" stroke-miterlimit="10"/>
        <path d="M906.94,44.3c3.07-2.87,4.48-7,3.6-10.52a10.21,10.21,0,0,0-8-7.16" fill="none" stroke="#ef9c9c" stroke-miterlimit="10"/>
        <path d="M838.82,56.85a13.67,13.67,0,0,0,8.91,13.35" fill="none" stroke="#ef9c9c" stroke-miterlimit="10"/>
        <path d="M848.19,63.58a4,4,0,0,0,1,4.89" fill="none" stroke="#ef9c9c" stroke-miterlimit="10"/>
        <path d="M853.4,62.2a4.44,4.44,0,0,0,.07-3.43" fill="none" stroke="#ef9c9c" stroke-miterlimit="10"/>
        <path d="M862.64,56.75c3.31-.54,6.45.61,9.74.63a15.41,15.41,0,0,0,8.37-2.52c1.63-1.08,3-2.45,4.65-3.5s3.76-1.77,5.53-1.25" fill="none" stroke="#ef9c9c" stroke-miterlimit="10"/>
        <path d="M874.42,21c-.44.65.3,1.57,1.08,1.62a4.14,4.14,0,0,0,2.2-.78,13.05,13.05,0,0,1,7.9-1.5c-2.87-2.22-8.45-1.73-11.18.66" fill="#13213d" stroke="#13213d" stroke-miterlimit="10"/>
        <path d="M856.89,29.68c.64.18.69,1.2.23,1.69a3.46,3.46,0,0,1-1.8.75,10.77,10.77,0,0,0-5.78,3.56c.56-3.1,4.31-6,7.35-6" fill="#13213d" stroke="#13213d" stroke-miterlimit="10"/>
        <path d="M868.38,36.58l-.27,18.27a2.29,2.29,0,0,0,.31,1.46,2.14,2.14,0,0,0,1.13.62,11,11,0,0,0,4.85.27" fill="none" stroke="#13213d" stroke-miterlimit="10"/>
        <path d="M880.64,62.86c-2.16,3.62-9.15,4.4-12,1.33" fill="none" stroke="#13213d" stroke-miterlimit="10"/>
        <path d="M878.37,40.24c.84-2.13,3.16-3.38,5.44-3.62a18.85,18.85,0,0,1,6.76,1" fill="none" stroke="#13213d" stroke-miterlimit="10"/>
        <path d="M885.43,37.89a2.35,2.35,0,1,1-4.18.7" fill="#13213d" stroke="#13213d" stroke-miterlimit="10"/>
        <path d="M884.8,40.09a.47.47,0,0,0,.1-.1,2.51,2.51,0,0,0,.32-.41,3.33,3.33,0,0,0,.21-.48.57.57,0,0,0,0-.14.2.2,0,0,0,0-.07,3.62,3.62,0,0,0,.06-.46.38.38,0,0,0,0-.15,3.28,3.28,0,0,0-.08-.52A1.61,1.61,0,0,0,885,37a2.11,2.11,0,0,0-.82-.5l-.1,0a2.2,2.2,0,0,0-.5-.06,2.73,2.73,0,0,0-.5.06l-.1,0-.45.19-.1.06c-.12.09-.24.18-.34.27l0,0-.15.2-.15.19a2.08,2.08,0,0,0-.27,1,1.15,1.15,0,0,0,.13.58,1.11,1.11,0,0,0,.31.48,1.14,1.14,0,0,0,.48.31,1.08,1.08,0,0,0,.58.13l.4-.05a1.44,1.44,0,0,0,.66-.39l.24-.3a1.54,1.54,0,0,0,.2-.76.08.08,0,0,1,0,0l-.06.4,0-.11-.15.36.06-.11-.23.3.1-.1-.3.24a.6.6,0,0,1,.15-.09l-.35.15a.48.48,0,0,1,.17-.05l-.4.05h.16l-.4-.05a.37.37,0,0,1,.14,0l-.36-.16.1.06-.3-.23.06.05-.39-.66a.67.67,0,0,1,.05.19l-.05-.4a.89.89,0,0,1,0,.23l.05-.4a.86.86,0,0,1-.06.23l.15-.36a.54.54,0,0,1-.11.18l.24-.3a.8.8,0,0,1-.13.13,1.14,1.14,0,0,0-.31.48,1.36,1.36,0,0,0,0,1.16,1.08,1.08,0,0,0,.31.48l.3.24a1.57,1.57,0,0,0,.76.2l.4-.05a1.44,1.44,0,0,0,.66-.39Z" fill="#13213d"/>
        <path d="M860.12,44.75a4.88,4.88,0,0,0-5.58.57A15.48,15.48,0,0,0,851,50.21" fill="none" stroke="#13213d" stroke-miterlimit="10"/>
        <path d="M854.32,47.28c.24,1.55,2.08,2.63,3.2,1.87s1-3-.2-3.9" fill="#13213d" stroke="#13213d" stroke-miterlimit="10"/>
        <path d="M856.06,47.12a.86.86,0,0,1-.74-.58.47.47,0,0,1,.82-.34" fill="#13213d" stroke="#13213d" stroke-miterlimit="10"/>
        <circle cx="884.2" cy="40.1" r="9.39" fill="none" stroke="#13213d" stroke-miterlimit="10"/>
        <ellipse cx="857.98" cy="48.83" rx="7.86" ry="9.39" transform="translate(38.66 308.12) rotate(-20.82)" fill="none" stroke="#13213d" stroke-miterlimit="10"/>
        <path d="M873.84,40.6a9.89,9.89,0,0,0-9.21,2.53" fill="none" stroke="#13213d" stroke-miterlimit="10"/>
      </g>
      <g id="ac8a13a4-e9f4-4759-9358-0eae31079835" data-name="Layer 47">
        <path d="M818.05,210.73a34.2,34.2,0,0,0-8.75,13.82,28.62,28.62,0,0,0-1.45,15.64c2,9.3,9.65,15.94,18.3,19.17a44.29,44.29,0,0,0,17.36,2.7q3.72-29.92,7-59.9c-1.45-.18-2.91-.3-4.36-.36C836.17,201.39,825.58,203.78,818.05,210.73Z" fill="#afd3dd" stroke="#13213d" stroke-miterlimit="10"/>
      </g>
      <g id="e5f9e1ee-d961-4702-8ca1-a6f3dd7a3562" data-name="Layer 44">
        <path d="M850.68,229.37c-4.39.48-7.82,2.59-12,3.87a17.69,17.69,0,0,0-3.09,1.19,2.15,2.15,0,0,0,1.36,4c5.78-.94,12.06-4.8,17.46-6.5l1.29.91-9.51,2.88.8,2.17c8.61-1.06,15.11-3.75,23.53-5.79a2.87,2.87,0,0,0,1.4-.64,2.71,2.71,0,0,0,.58-1.49l.78-4.54.52-1.23,8.46-1,1-.82A6.66,6.66,0,0,0,883,217a8.35,8.35,0,0,0-3.55-3.09,6.76,6.76,0,0,0-3.51-.92l-.38-.35c-2.44.7-6.4,2.47-9.18.36-.56-1.84-2.65-2.9-4.6-2.91a13.82,13.82,0,0,0-5.57,1.56l-4.47,2a3.63,3.63,0,0,0-1,.58c-1.26,1.17-.46,1.55,1.26,1.84s1-.32,3.66-.14l-1,.29a78.83,78.83,0,0,0-20.42,7,1.87,1.87,0,0,0,1,3.53h.06a70.81,70.81,0,0,0,18.53-4.84l-2.29,1.26-22.79,6.14a3,3,0,0,0-1.43.68,2,2,0,0,0,.64,2.86,5.64,5.64,0,0,0,3.28.62,53,53,0,0,0,22.49-5.64" fill="#fcf0f0" stroke="#13213d" stroke-miterlimit="10"/>
      </g>
      <g id="b6f6f612-fbb7-45bd-b88f-5d6591ad2e43" data-name="Layer 43">
        <path d="M919.69,123.37q6.85,23.22,12.29,46.84l-.6,1.71C915,190.1,890.3,197.76,869.89,211.2l-1,1.93a18.5,18.5,0,0,1,10.21,11.78l.93.72a275.58,275.58,0,0,0,89-41.51l.49-2a209.75,209.75,0,0,0-32.31-83.57l-.86-1.38q-15.8-5.26-31.11-11.82" fill="#fca311" stroke="#13213d" stroke-miterlimit="10"/>
        <path d="M926,113.71a109.89,109.89,0,0,0-.2,28.36" fill="#fca311" stroke="#13213d" stroke-miterlimit="10"/>
        <path d="M935.14,139.47l-3.87,14.11" fill="#fff" stroke="#13213d" stroke-miterlimit="10"/>
        <path d="M937.4,164.39l6.1,2.61" fill="#fff" stroke="#13213d" stroke-miterlimit="10"/>
      </g>
    </g>
    <g id="e6eb38c3-4be0-4dda-8386-930e79182431" data-name="Layer 10">
      <path d="M355.55,429.84c87.91-1.89,175.88-3.78,263.74-.43,24.83.94,49.68,2.3,74.51,1.22,9.85-.43,19.83-1.27,29.12-4.58l-1.18-3.23c0-49,19.11-293.62,19.11-342.64l-.12.53a78.72,78.72,0,0,0-.61-8,7.75,7.75,0,0,0-1.36-4c-1.5-1.81-4.18-2-6.53-2l-3.13-.33H596.85l-1.58-.29a10.54,10.54,0,0,0-12.53,10.5l-.7.51v24l-1.94,2.64a19.6,19.6,0,0,1-13.39,6.37v.18H354.3a23.16,23.16,0,0,0-8,1,3.57,3.57,0,0,0-1.66.88c-1.16,1.26-.36,3.6-1.62,4.78l0,2.07c0,32.34,11.74,279.92,11.74,312.26l-10.59-280.6.16,33Z" fill="#6c95a3" stroke="#13213d" stroke-miterlimit="10"/>
    </g>
    <g id="e9c9061e-2b7d-4352-afb6-717451e229f6" data-name="Layer 14">
      <path d="M478.67,155.25V128.18l-.51-3.57H717.65l4.09,1.53v19.92" fill="#fcf0f0"/>
    </g>
    <g id="af696975-50fb-44b0-9874-613cd0857524" data-name="Layer 13">
      <path d="M489.61,167.5V140.44l-.51-3.58H728.59l4.09,1.54v19.91" fill="#fff" stroke="#13213d" stroke-miterlimit="10"/>
    </g>
    <g id="ee3a5fc1-642d-4966-95f5-1f6cdff0efee" data-name="Layer 11">
      <path d="M343.85,86.83c40.57,2.44,81.21,4.88,121.82,3.39,10.88-.4,21.76-1.08,32.64-.9,1.57,0,3.33.15,4.36,1.33a5.7,5.7,0,0,1,1.06,3A264.14,264.14,0,0,1,505,164c-.33,2.91-.79,6-2.63,8.26-2.6,3.21-7.14,3.92-11.25,4.35a608.48,608.48,0,0,1-147.72-2.41c-1.7-.23-3.52-.53-4.75-1.73-1.42-1.38-1.65-3.55-1.78-5.53a476.26,476.26,0,0,1,1.43-79.84Z" fill="#f7efe7" stroke="#13213d" stroke-miterlimit="10"/>
      <path d="M337.63,172.86l62.81-39.13" fill="#fff" stroke="#13213d" stroke-miterlimit="10"/>
      <path d="M499.65,171.62l-65-37.1" fill="#fff" stroke="#13213d" stroke-miterlimit="10"/>
      <path d="M341.42,90.28A359.88,359.88,0,0,0,415.8,137a488.15,488.15,0,0,0,89.38-41.81" fill="#f7efe7" stroke="#13213d" stroke-miterlimit="10"/>
    </g>
    <g id="e127de07-2e5a-48ee-9bbb-1a26d3788c77" data-name="Layer 9">
      <path d="M321.86,148.53l-1.61.71a12,12,0,0,0-5.14,12.36l-.51,1.51q2.36,24.19,5.09,48.35c.38-.14.76-.29,1.15-.41,10-3.22,21.33-2.22,30.89,1.91,9.19,4,16.85,11.65,18,21.94.63,5.58-.81,11.38-3.11,16.44A29.65,29.65,0,0,1,357.22,263c-8.17,6-18.94,7.44-28.84,7.18l-1.67-.08q2,15.72,4.05,31.43a1.4,1.4,0,0,1,1.07-.44H553.22V147.59Z" fill="#afd3dd" stroke="#13213d" stroke-miterlimit="10"/>
      <path d="M270.05,215.67a27.8,27.8,0,0,0,12.56-6.38c3.83-3.36,7.14-7.47,8.52-12.44,2.55-9.12-1.71-18.46-7.81-25.15s-14.68-11.93-23.79-13.19q-10.21,24.42-20.13,49c1.35.84,2.7,1.65,4.09,2.42C251.46,214.26,260.88,217.57,270.05,215.67Z" fill="#afd3dd" stroke="#13213d" stroke-miterlimit="10"/>
      <path d="M733,258.42c-9.17-4.61-16-13.07-16.72-23.54-.4-6.09,1.3-12.13,3.89-17.59a34.23,34.23,0,0,1,10.54-13c8.86-6.58,20.58-8.34,31.33-7.13l.72.09q1.93-17.78,3.68-35.58l-.51-1.51a12,12,0,0,0-5.14-12.36l-3.08-1-201.48.82V301.07H750.13q2.5-19,4.89-38A45.89,45.89,0,0,1,733,258.42Z" fill="#afd3dd" stroke="#13213d" stroke-miterlimit="10"/>
      <path d="M335.93,491.06a30.71,30.71,0,0,0,4-15.92,27.92,27.92,0,0,0-4.73-15.54,32.63,32.63,0,0,0-11.9-10.25c-10.19-5.34-22.35-6.57-33.59-4.6a1.76,1.76,0,0,1-.39,0q7.18,31.16,14.5,62.28c7.81-.83,15.67-2.58,22.38-6.56A27.39,27.39,0,0,0,335.93,491.06Z" fill="#afd3dd" stroke="#13213d" stroke-miterlimit="10"/>
      <path d="M331.83,304.07a1.44,1.44,0,0,1-.75-.2q3,22.49,6.11,45a1.45,1.45,0,0,1,.76-.27c1.5-.13,3-.21,4.49-.22,12-.1,24.51,3.34,33.92,11a32.91,32.91,0,0,1,10,13.34,32.43,32.43,0,0,1,1.37,18,31.45,31.45,0,0,1-7.06,15A32.17,32.17,0,0,1,368.46,414c-6.77,2.74-14.16,3.74-21.52,3.9l2.79,19.51H553.22V304.07Z" fill="#afd3dd" stroke="#13213d" stroke-miterlimit="10"/>
      <path d="M763.64,387.39A32.88,32.88,0,0,0,735.35,396a41.83,41.83,0,0,0-11.6,20.51H786a45.24,45.24,0,0,0-5.15-16.4A25,25,0,0,0,763.64,387.39Z" fill="#afd3dd" stroke="#13213d" stroke-miterlimit="10"/>
      <path d="M556.22,304.07v133.3h68.61c2.23-9.85,7.6-19.09,15.65-25.27,8.41-6.44,20-9.05,30.31-6.22,7.94,2.18,14.06,8,17.68,15.24a50.46,50.46,0,0,1,4.7,16.25h36.19l1.94-1.47c6.3-43.92,12.59-87.85,18.43-131.83Z" fill="#afd3dd" stroke="#13213d" stroke-miterlimit="10"/>
    </g>
    <g id="af8a3705-3c58-4e3b-803e-673e0b1c0802" data-name="Layer 22">
      <g id="e31c8585-5073-4d50-b75e-f131a3825e21" data-name="Layer 17">
        <circle cx="540.52" cy="308.48" r="111.66" fill="#fff" stroke="#13213d" stroke-miterlimit="10"/>
      </g>
      <g id="a5ae27be-2889-4646-b201-85ff3e856b61" data-name="Layer 21">
        <circle cx="540.52" cy="293.29" r="111.66" fill="#ffdca9" stroke="#13213d" stroke-miterlimit="10"/>
      </g>
      <g id="e41daaa0-0a9b-4ba5-a1af-bfd6c3fad04c" data-name="Layer 20">
        <circle cx="540.52" cy="304.53" r="111.66" fill="#f7efe7" stroke="#13213d" stroke-miterlimit="10"/>
      </g>
      <g id="addf3e0e-15f8-471d-ae66-c7e13be3bad9" data-name="Layer 19">
        <circle cx="540.38" cy="308.48" r="52.08" fill="#fff" stroke="#13213d" stroke-miterlimit="10"/>
      </g>
      <g id="e2ccf5d8-3381-436b-b5d7-c2ba4cf3656b" data-name="Layer 18">
        <path d="M452.05,253.33c2.12,1.24,3.88,2.42,6,3.67,1.6.93,3.89,1.61,3.88,3.46s-1.94,3.18-3.77,3.22A10.71,10.71,0,0,1,453,262a13,13,0,0,1-3.26-2.2,4.48,4.48,0,0,1-1.42-3.53,3.43,3.43,0,0,1,3.72-2.9Z" fill="#fff" stroke="#13213d" stroke-miterlimit="10"/>
        <path d="M547.66,333.29V311.17l.22-.72a22.92,22.92,0,0,0,8.57-11.58c1.36-4.69.56-10.15-2.74-13.76a16.61,16.61,0,0,0-7.15-4.34,17.42,17.42,0,0,0-5.63-1c-7,.06-13,6.21-14.06,13.11s2.31,14,7.58,18.57l.62.05v22.12l.29.7a6.42,6.42,0,0,0,12.55,0" fill="#ffdca9" stroke="#13213d" stroke-miterlimit="10"/>
        <path d="M490.45,214.59c.67,2.36,1.14,4.42,1.81,6.79.51,1.78,1.71,3.85.43,5.19s-3.6,1-4.95-.28a10.65,10.65,0,0,1-2.55-4.79,13.42,13.42,0,0,1-.85-3.84,4.49,4.49,0,0,1,1.41-3.54,3.44,3.44,0,0,1,4.7.47Z" fill="#fff" stroke="#13213d" stroke-miterlimit="10"/>
        <path d="M544,201.35c-.14,2.46-.39,4.56-.53,7-.1,1.85.34,4.21-1.31,5s-3.71-.29-4.58-1.9a10.68,10.68,0,0,1-.82-5.36,13,13,0,0,1,.46-3.9,4.48,4.48,0,0,1,2.5-2.88,3.43,3.43,0,0,1,4.28,2Z" fill="#fff" stroke="#13213d" stroke-miterlimit="10"/>
        <path d="M598.93,218.14c-1.54,1.91-3,3.48-4.51,5.39-1.16,1.44-2.17,3.62-4,3.34s-2.85-2.4-2.62-4.21a10.72,10.72,0,0,1,2.45-4.84,13.1,13.1,0,0,1,2.65-2.9,4.48,4.48,0,0,1,3.71-.89,3.44,3.44,0,0,1,2.32,4.11Z" fill="#fff" stroke="#13213d" stroke-miterlimit="10"/>
        <path d="M635,257.48c-1.91,1.55-3.63,2.79-5.53,4.34-1.44,1.17-2.87,3.09-4.61,2.43s-2.29-2.93-1.69-4.66a10.75,10.75,0,0,1,3.4-4.22,13.43,13.43,0,0,1,3.19-2.29,4.46,4.46,0,0,1,3.81-.1,3.43,3.43,0,0,1,1.43,4.5Z" fill="#fff" stroke="#13213d" stroke-miterlimit="10"/>
        <path d="M647.63,311.57c-2.46.05-4.58,0-7,0-1.86,0-4.17.66-5.13-.93s0-3.72,1.54-4.71a10.72,10.72,0,0,1,5.29-1.23,13.2,13.2,0,0,1,3.92.16,4.48,4.48,0,0,1,3.06,2.27,3.44,3.44,0,0,1-1.65,4.42Z" fill="#fff" stroke="#13213d" stroke-miterlimit="10"/>
        <path d="M632.06,365.82c-2.07-1.32-3.79-2.55-5.87-3.87-1.56-1-3.83-1.75-3.76-3.6s2.05-3.11,3.88-3.08a10.69,10.69,0,0,1,5.09,1.89,13,13,0,0,1,3.18,2.31,4.45,4.45,0,0,1,1.3,3.58,3.44,3.44,0,0,1-3.82,2.77Z" fill="#fff" stroke="#13213d" stroke-miterlimit="10"/>
        <path d="M592.66,401.07c-1.13-2.18-2-4.11-3.13-6.29-.85-1.65-2.44-3.44-1.45-5s3.33-1.65,4.91-.71a10.81,10.81,0,0,1,3.45,4.19,13.08,13.08,0,0,1,1.59,3.59,4.47,4.47,0,0,1-.67,3.75,3.44,3.44,0,0,1-4.7.48Z" fill="#fff" stroke="#13213d" stroke-miterlimit="10"/>
        <path d="M536.77,414c.13-2.45.36-4.56.49-7,.09-1.85-.36-4.2,1.28-5s3.72.26,4.6,1.87a10.79,10.79,0,0,1,.85,5.36,13.1,13.1,0,0,1-.45,3.9,4.48,4.48,0,0,1-2.48,2.9,3.44,3.44,0,0,1-4.29-2Z" fill="#fff" stroke="#13213d" stroke-miterlimit="10"/>
        <path d="M483.83,397.79c1.4-2,2.7-3.69,4.1-5.71,1.06-1.52,1.9-3.76,3.75-3.61s3,2.18,2.92,4a10.62,10.62,0,0,1-2.1,5,13,13,0,0,1-2.43,3.08,4.44,4.44,0,0,1-3.63,1.16,3.43,3.43,0,0,1-2.61-3.93Z" fill="#fff" stroke="#13213d" stroke-miterlimit="10"/>
        <path d="M448.67,356.66c2.14-1.2,4.05-2.12,6.2-3.32,1.62-.9,3.36-2.53,5-1.59s1.75,3.29.85,4.89a10.72,10.72,0,0,1-4.09,3.56,12.84,12.84,0,0,1-3.54,1.7,4.5,4.5,0,0,1-3.77-.56,3.44,3.44,0,0,1-.61-4.68Z" fill="#fff" stroke="#13213d" stroke-miterlimit="10"/>
        <path d="M435.45,304.88c2.46-.07,4.58,0,7-.08,1.86-.05,4.16-.7,5.14.88s0,3.72-1.49,4.72a10.69,10.69,0,0,1-5.28,1.28,13.19,13.19,0,0,1-3.92-.12,4.54,4.54,0,0,1-3.09-2.24,3.45,3.45,0,0,1,1.61-4.44Z" fill="#fff" stroke="#13213d" stroke-miterlimit="10"/>
      </g>
    </g>
  </g>
</svg>
