<svg xmlns="http://www.w3.org/2000/svg" width="440.882" height="451.538" viewBox="0 0 440.882 451.538">
  <g id="Medical_profession_doctor_hospital_healthcare_health_man_care_report_treatment" data-name="Medical, profession | doctor, hospital, healthcare, health, man, care, report, treatment" transform="translate(1.5)">
    <g id="Group">
      <g id="Group-2" data-name="Group" transform="translate(0 10.948)">
        <g id="Group-3" data-name="Group" transform="translate(36.89 0)">
          <path id="Path" d="M0,35.465c.176-.207.383-.4.575-.6C38.07-2.324,98.66-7.106,147.041,8.069c23.653,7.412,42.209,28.241,64.447,38.576a59.753,59.753,0,0,0,23.727,5.919c22.312.611,43.151-14.123,65.4-12.428,28.409,2.125,45.141,30.818,49.184,56.323,6.671,42.173-12.651,87.932-36.708,121.625-13.2,18.512-28.063,35.6-42.321,53.262-11.06,13.746-18.349,34.537-3.724,48.82,19.418,18.953,25.393-22.991,48.285-13.416,56.994,23.831,50.492,74.92,37.554,96.79-11.81,20.005-34.58,33.427-57.8,35.324a67.649,67.649,0,0,1-11.076,0" transform="translate(30.159)" fill="none" stroke="#ccdde2" stroke-miterlimit="10" stroke-width="3"/>
          <path id="Path-2" data-name="Path" d="M0,0V.175c0,3.905,17.311,18.8,19.918,21.557" transform="translate(132.883 301.691)" fill="none" stroke="#ccdde2" stroke-miterlimit="10" stroke-width="3"/>
          <path id="Path-3" data-name="Path" d="M79.018,148.192c-5.251.175-10.214.154-14.928-.037C9.538,141.465-31.5,32.943,32.691,0" transform="translate(0 290.479)" fill="none" stroke="#ccdde2" stroke-miterlimit="10" stroke-width="3"/>
        </g>
        <path id="Path-4" data-name="Path" d="M177.78,121.965V12.014A12.037,12.037,0,0,0,165.751,0H12A12.037,12.037,0,0,0,0,12.014V230.02a12.016,12.016,0,0,0,12.029,11.992H165.778a11.355,11.355,0,0,0,4.352-.834" transform="translate(0 35.46)" fill="none" stroke="#000" stroke-linecap="round" stroke-linejoin="round" stroke-miterlimit="10" stroke-width="3"/>
      </g>
      <rect id="Rectangle" width="166.991" height="227.331" rx="7" transform="translate(5.395 53.767)" fill="#002479"/>
      <ellipse id="Oval" cx="4.41" cy="4.405" rx="4.41" ry="4.405" transform="translate(84.477 80.478)" fill="#d7e8f0"/>
      <path id="Path-5" data-name="Path" d="M0,12.556a12.316,12.316,0,1,1,24.626,0Z" transform="translate(76.574 92.246)" fill="#d7e8f0"/>
      <g id="Group-4" data-name="Group" transform="translate(30.143 132.921)">
        <path id="Path-6" data-name="Path" d="M0,.49H115.972" transform="translate(0 -0.49)" fill="none" stroke="#fff" stroke-miterlimit="10" stroke-width="3"/>
        <path id="Path-7" data-name="Path" d="M0,.49H115.972" transform="translate(0 10.913)" fill="none" stroke="#fff" stroke-miterlimit="10" stroke-width="3"/>
        <path id="Path-8" data-name="Path" d="M0,.49H115.972" transform="translate(0 84.334)" fill="none" stroke="#fff" stroke-miterlimit="10" stroke-width="3"/>
        <path id="Path-9" data-name="Path" d="M0,.49H62.1" transform="translate(26.935 95.115)" fill="none" stroke="#fff" stroke-miterlimit="10" stroke-width="3"/>
      </g>
      <g id="Group_1" data-name="Group 1" transform="translate(53.461 10.479)">
        <path id="Shape" d="M142.846,248.346c-32.3-6.254-51.2-20.6-51.2-20.6,10.789-7.025,14.513-19.931,14.513-19.931l.266-.1c-8.2,1.817-16.024,3.89-21.408,6.111-17.274,7.109-38.49,1.8-38.49,1.8C1.37,203.463-2.179,167.464.774,133.325S12.829,59.372,44.611,33.831,113.293,0,113.293,0l7.485,26.673,14.013-5.361L131.514,36.44l24.594,53.772L195.02,48.7l-.213-16.042,14.183,10.76s9.449-20.93,12.651-28.012,3.336-9.952,3.336-9.952C244.224,9.341,274.07,25.4,274.07,25.4,324.77,54.7,313.6,149.579,313.6,149.579s-1.4,49.144-35.8,78.953c-21.5,18.627-56.2,24.153-87.1,24.153A261.838,261.838,0,0,1,142.846,248.346Z" transform="translate(15.335 157.623)" fill="#2b388f"/>
        <path id="Path-10" data-name="Path" d="M201.761,27.781V65.135c-60.382,0-142.077-.1-201.1-.17C-.065,45.741-1.214,1.517,3.67,1.2,9.921.821,16.533-3.18,24.162,5.916s39.565,25.366,84.3,29.192,82.461-6.7,90.84-11.254C199.309,23.86,201.761,19.492,201.761,27.781Z" transform="translate(75.296 374.203)" fill="#2b388f" stroke="#707070" stroke-width="3"/>
        <path id="Path-11" data-name="Path" d="M80.847,67.193a10.446,10.446,0,0,0-5.41,3.884,26.44,26.44,0,0,0-3.33,5.367s-4.49-19.128-6.384-35.722c-.633-5.4-2.527-8.289-4.831-9.745-4.751-3.007-11.172.207-11.172.207l-21.333,11.6a34.824,34.824,0,0,1-13.247,4.134,28.62,28.62,0,0,1-6.538,0C-3.152,41.12-3.322,18.23,10.957,18.071a13.727,13.727,0,0,1,1.208,1.281q-.309-.632-.575-1.259a14.808,14.808,0,0,1,2.378.266c1.17.228,2.261,1.435,2.99,2.279-3.793-7.354.25-16.62,7.725-19.431C29.226-.5,34.307-.176,39.047.823c.75.149,1.495.324,2.245.531,11.885,3.581,22.291,9.8,29.978,20.191C81,34.686,83.432,51.322,80.847,67.193Z" transform="translate(142.6 1.254)" fill="#2e2e2e"/>
        <g id="Group-5" data-name="Group" transform="translate(15.356 0)">
          <path id="Path-12" data-name="Path" d="M2.074,0C-10.944,57.917,39.027,48.214,103.964,36.8c23.2-4.075,42.943,5.983,54.381,15.367" transform="translate(70.521 267.181)" fill="none" stroke="#000" stroke-linejoin="round" stroke-miterlimit="10" stroke-width="3"/>
          <path id="Path-13" data-name="Path" d="M113.272,0C83.762,7.253,48.947,24.846,29.8,48.724,4.722,79.941-.529,121.45.04,160.307.572,198.272,40.4,224.494,76.558,216.29" transform="translate(0 157.618)" fill="none" stroke="#000" stroke-linejoin="round" stroke-miterlimit="10" stroke-width="3"/>
          <path id="Path-14" data-name="Path" d="M.47.49H.492" transform="translate(128.086 142.946)" fill="none" stroke="#000" stroke-linejoin="round" stroke-miterlimit="10" stroke-width="3"/>
          <path id="Path-15" data-name="Path" d="M155.489,106.264s1.064,25.127-3.192,50.026c-1.931,11.365-4.969,22.683-9.709,31.546a15.117,15.117,0,0,1-12.97,7.891,125.758,125.758,0,0,1-14.561-.579c-41.7-3.911-80.779,4.671-109.279,14.1Q2.9,210.19,0,210.843c17.976,16.291,64.224,46.408,151.664,33.347,117.573-17.534,80.827-172.6,80.827-172.6C229.3,54.888,219.329,39.378,207.343,27.63c-13.577-13.284-39.9-22.067-57.8-27.63" transform="translate(76.569 163.054)" fill="none" stroke="#000" stroke-linejoin="round" stroke-miterlimit="10" stroke-width="3"/>
          <path id="Path-16" data-name="Path" d="M31.421,85.706S-4.351,79.33.442,37.194C2.57,18.448,6.672,6.982,10.55,0" transform="translate(131.806 48.155)" fill="none" stroke="#000" stroke-linejoin="round" stroke-miterlimit="10" stroke-width="3"/>
          <path id="Path-17" data-name="Path" d="M74.646,122.778c6.607-9.862,5.6-22.954,7.672-26.248,3.192-5.112,15.96-21.057,8.3-26.8a6.048,6.048,0,0,0-4.985-1.286c-5.155,1.148-8.741,9.251-8.741,9.251s-4.485-19.128-6.384-35.728S54.5,32.433,54.5,32.433l-21.333,11.6a34.712,34.712,0,0,1-13.247,4.139,29.349,29.349,0,0,1-7.32-.058C-3.894,45.987-4.958,14.8,13.96,18.357c1.17.228,2.261,1.435,2.99,2.279-3.8-7.354.25-16.62,7.725-19.431C29.218-.5,34.3-.176,39.039.823c14.8,3.119,27.85,9.564,37.017,21.976,9.736,13.151,12.172,29.787,9.576,45.659" transform="translate(122.459)" fill="none" stroke="#000" stroke-linejoin="round" stroke-miterlimit="10" stroke-width="3"/>
          <path id="Path-18" data-name="Path" d="M7.666,30.632H0l.5-6.068L2.548,0" transform="translate(151.092 63.655)" fill="none" stroke="#000" stroke-linejoin="round" stroke-miterlimit="10" stroke-width="3"/>
          <path id="Path-19" data-name="Path" d="M26.685,24.559H5.629A5.625,5.625,0,0,1,0,18.937V0H35.591V18.937a5.63,5.63,0,0,0,5.634,5.622H62.106a5.63,5.63,0,0,0,5.634-5.622V0H35.591" transform="translate(124.891 63.66)" fill="none" stroke="#000" stroke-linejoin="round" stroke-miterlimit="10" stroke-width="3"/>
          <path id="Path-20" data-name="Path" d="M0,7.343S5.432,9.256,11.5,0" transform="translate(158.758 94.265)" fill="none" stroke="#000" stroke-linejoin="round" stroke-miterlimit="10" stroke-width="3"/>
          <path id="Path-21" data-name="Path" d="M0,108.7,39.645,64.755l-.724-15.473,13.71,11.8L70.246,22.077l.048-.1a69.027,69.027,0,0,1-11.986-8.932q-2.527-2.37-4.788-4.952a69.024,69.024,0,0,1-4.969-6.344L47.311,0" transform="translate(155.869 140.997)" fill="none" stroke="#000" stroke-linejoin="round" stroke-miterlimit="10" stroke-width="3"/>
          <path id="Path-22" data-name="Path" d="M22.248,47.763,14.087,36.535,5.384,25.08,23.653,14.038,43.571,0l6.177,8.092,2.075,2.726-5.038,6.445L7.443,67.7v.021L0,76.96" transform="translate(159.625 140.997)" fill="none" stroke="#000" stroke-linejoin="round" stroke-miterlimit="10" stroke-width="3"/>
          <path id="Path-23" data-name="Path" d="M31.106,42.391l21.28-16.28L26.244.016l-9.906,9.33,30.67,68.645-3.751,31.727L18.886,54.08l3.261-15.122L8.134,44.3,0,17.912A69.167,69.167,0,0,0,24.775,1.53L26.254,0" transform="translate(112.612 139.982)" fill="none" stroke="#000" stroke-linejoin="round" stroke-miterlimit="10" stroke-width="3"/>
          <path id="Path-24" data-name="Path" d="M12.327,18.241,6.251,0A19.888,19.888,0,0,1,0,5.669" transform="translate(190.854 122.756)" fill="none" stroke="#000" stroke-linejoin="round" stroke-miterlimit="10" stroke-width="3"/>
          <path id="Path-25" data-name="Path" d="M4.176,0,0,17.226" transform="translate(138.867 122.756)" fill="none" stroke="#000" stroke-linejoin="round" stroke-miterlimit="10" stroke-width="3"/>
        </g>
        <ellipse id="Oval-2" data-name="Oval" cx="2.798" cy="2.795" rx="2.798" ry="2.795" transform="translate(184.478 73.384)"/>
        <ellipse id="Oval-3" data-name="Oval" cx="2.798" cy="2.795" rx="2.798" ry="2.795" transform="translate(160.075 73.384)"/>
        <g id="Group-6" data-name="Group" transform="translate(0 375.353)">
          <path id="Path-26" data-name="Path" d="M.49,43.613V0" transform="translate(276.588 20.372)" fill="none" stroke="#000" stroke-linejoin="round" stroke-miterlimit="10" stroke-width="3"/>
          <path id="Path-27" data-name="Path" d="M.49,63.831V0" transform="translate(75.837 0)" fill="none" stroke="#000" stroke-linejoin="round" stroke-miterlimit="10" stroke-width="3"/>
          <path id="Path-28" data-name="Path" d="M0,.225S31.569.284,75.965.342c59.052.074,140.731.17,201.1.17,46.54,0,80.391-.1,81.4-.287" transform="translate(0 63.472)" fill="none" stroke="#000" stroke-linejoin="round" stroke-miterlimit="10" stroke-width="3"/>
        </g>
      </g>
      <ellipse id="Oval-4" data-name="Oval" cx="22.999" cy="22.97" rx="22.999" ry="22.97" transform="translate(393.162 153.033)" fill="#bac9dc"/>
      <ellipse id="Oval-5" data-name="Oval" cx="7.4" cy="7.391" rx="7.4" ry="7.391" transform="translate(401.36 162.533)" fill="#fff"/>
      <ellipse id="Oval-6" data-name="Oval" cx="22.999" cy="22.97" rx="22.999" ry="22.97" transform="translate(24.382 361.719)" fill="#bac9dc"/>
      <ellipse id="Oval-7" data-name="Oval" cx="11.497" cy="11.482" rx="11.497" ry="11.482" transform="translate(333.476 144.324)" fill="#d7e8f0"/>
      <ellipse id="Oval-8" data-name="Oval" cx="7.4" cy="7.391" rx="7.4" ry="7.391" transform="translate(34.181 370.773)" fill="#fff"/>
      <ellipse id="Oval-9" data-name="Oval" cx="11.497" cy="11.482" rx="11.497" ry="11.482" transform="translate(416.389 378.169)" fill="#d7e8f0"/>
      <ellipse id="Oval-10" data-name="Oval" cx="4.096" cy="4.091" rx="4.096" ry="4.091" transform="translate(336.78 148.947)" fill="#fff"/>
      <ellipse id="Oval-11" data-name="Oval" cx="2.857" cy="2.853" rx="2.857" ry="2.853" transform="translate(420.246 384.423)" fill="#fff"/>
      <ellipse id="Oval-12" data-name="Oval" cx="11.497" cy="11.482" rx="11.497" ry="11.482" transform="translate(145.386)" fill="#d7e8f0"/>
      <ellipse id="Oval-13" data-name="Oval" cx="4.096" cy="4.091" rx="4.096" ry="4.091" transform="translate(151.041 6.371)" fill="#fff"/>
    </g>
  </g>
</svg>
