<svg xmlns="http://www.w3.org/2000/svg" width="621.64" height="458.94" viewBox="0 0 621.64 458.94">
  <g id="fd11f6e0-4a33-4d91-8353-6374416914f9" data-name="Layer 2">
    <g id="a76b02be-a56b-4cbd-8bc5-aca53ffba8b1" data-name="Layer 32">
      <path d="M167.26,208.26a44.63,44.63,0,0,0,31.35-2c3.87-1.76,7.45-4.07,11.21-6,7.11-3.72,14.79-6.21,22.42-8.68l38.22-12.37,11.22-25.53c-31.58-1.94-62,10.43-93,17-11.72,2.47-24.81,3.89-34.91-2.55" fill="#fca311" stroke="#13213d" stroke-miterlimit="10"/>
      <path d="M292.5,164.3c3.31-.49,5.43-3.16,7.56-5.4s5.36-4.38,8.55-3.38l.7-1.68a62.38,62.38,0,0,0-15.06-2.8" fill="#fcf0f0" stroke="#13213d" stroke-miterlimit="10"/>
    </g>
    <g id="e046110f-2902-4e03-a03d-e001aa48d745" data-name="archie">
      <g id="a43cab9d-0ec7-4600-94a1-ae2b90fe2e20" data-name="Layer 36">
        <path d="M55,374.51l-.21,5.32c-3,13.41-2.63,26-.92,39.57.76,6.11,2,12.24,1.46,18.37-.27,3-1,6-.68,8.94.25,2.63,1,7.22,2.35,9.55,18.69-.08,37.83-.38,56.51,0,2.9-4,3.53-10.92,1.79-15.41-.79-2-2-3.93-2.44-6.05-.65-3.44,1.08-6.84,2.43-10.12a50.73,50.73,0,0,0,3.45-25.7c-.36-2.84-.91-5.89.64-8.39l1.58-.26c4.09,3.17,5.46,8.23,6.33,13,2.38,13.09,2.52,26.4,2.66,39.65a44.17,44.17,0,0,1-.71,10.4c-.12.51-.61,2.39-.75,2.9,1,0,3.25,0,4.26.05,16.36.54,32.17-.49,48.56-.05,0-.09,0,.09,0,0,1.44-5.37,6.35-8.49,6.85-14a18.57,18.57,0,0,0-1.27-7.17l-4.35-13.71.35-1.79a21.14,21.14,0,0,0,.81-16.59l-.46-.64c-3.44-6.58-1.44-14.24-.85-21.48a74.19,74.19,0,0,0-1.24-19.14,68.22,68.22,0,0,1-3.94-5.86,23.22,23.22,0,0,1-2.85-7,18.29,18.29,0,0,1,.39-7.68c0-.16.07-.32.11-.48a10.14,10.14,0,0,0-1.73-1.39c-2.67-1.67-6-2.29-9.19-2.76-34.54-5.07-69.52,2.88-104.5,5.12-2.75,2.44-2,2.86-5.16,5.08-.69,7.19-3.43,16.41-.76,23.22C54.43,372.23,55.5,372.19,55,374.51Z" fill="#13213d" stroke="#13213d" stroke-miterlimit="10"/>
      </g>
      <g id="ff878b21-56d5-4047-aee9-c17120e9683a" data-name="Layer 33">
        <path d="M12.76,73c1.09-4.42,1.16-10.82-.74-15l-.69-.28A75,75,0,0,1,.7,32.87a4.3,4.3,0,0,1-.13-2,3.8,3.8,0,0,1,1.17-1.74A13.43,13.43,0,0,1,9.2,25.53l1.93-.84A2.7,2.7,0,0,0,11,23.11C9.13,17.53,4.92,13,3.17,7.35a1.54,1.54,0,0,1,0-1.26,1.66,1.66,0,0,1,.72-.52L6.82,4.2l7.25,14.32c.7,1.38,1.75,3,3.29,2.87l1.21-.11A93.86,93.86,0,0,1,16.19,8.4a6.81,6.81,0,0,1,.52-4.29c.76-1.25,2.68-1.89,3.72-.85a3.72,3.72,0,0,1,.82,2.22q1.3,9.48,3,18.9l.88.88a21.68,21.68,0,0,1,3.75,7.13,15,15,0,0,1,.68,6.3,44.84,44.84,0,0,1-1.28,5.17c-2,8,.2,16.4,2.4,24.35" fill="#fcf0f0" stroke="#13213d" stroke-miterlimit="10"/>
      </g>
      <g id="a06a6629-feaa-428c-8a18-7b592be2e084" data-name="Layer 34">
        <path d="M24.85,30.19a16.23,16.23,0,0,0-5.1,3l-7.53,5.76a3,3,0,0,0-1.11,1.25,2.68,2.68,0,0,0,.64,2.37,3.85,3.85,0,0,0,1.43,1.35,3.12,3.12,0,0,0,3.18-.61,9.23,9.23,0,0,0,2-2.72l.76-1.17a7.36,7.36,0,0,0,.21,8.54" fill="#fcf0f0" stroke="#13213d" stroke-miterlimit="10"/>
        <path d="M3.11,35.13a4.19,4.19,0,0,0,1.83,3.23c1.14.61,2.9,0,2.93-1.34a3.06,3.06,0,0,0-.2-1L6.28,31.81l.44-.9a5.28,5.28,0,0,0,2.9,4.49c1.74.7,4.14-.48,4.15-2.35a4.8,4.8,0,0,0-1.25-2.73l-3.1-4.14" fill="#fcf0f0" stroke="#13213d" stroke-miterlimit="10"/>
      </g>
      <g id="bfe135f8-8233-4ed5-b93f-ed571e747a16" data-name="Layer 35">
        <path d="M76.13,170.76c6.14,2,13.44.41,19.86-.27s13.47-.66,18.65,3.21l-.26.18L131,179.59c8.21,2.82,16.87,5.68,25.42,4.12,5.12-.94,9.81-3.4,14.41-5.84l-1,2.53c6.54,13.77,10.92,25.13,12.8,41.69,2,17.56,3,21.95-.4,37.39-2.18,9.8-1.21,20-1.06,30,.24,16.24-1.71,32.42-3.65,48.55-.29,2.39-.56,7.15-2.08,9a12.9,12.9,0,0,1-5.11,3.7c-25,10.24-52.92,17-78.73,9.12-6.9-2.1-13.44-5.38-20.46-7-5.56-1.31-11.7-1.45-16.87.7a1.35,1.35,0,0,1-1.72-1.85c6.38-13.77,5.49-30.17,8.07-45.37S69.39,276.93,72.9,262s3-33.58-5-46.68l5.84.64c-6.37.43-12.52-3-16.9-7.63s-7.28-10.46-10.12-16.18c-6.91-13.91-13.91-28.07-16.44-43.39-.72-4.32-1.07-8.71-2.19-12.94a104,104,0,0,0-4-11c-6.84-17.64-9.59-36.56-12.29-55.28l-.11-1.58c6.63,4,15.38-6.08,22.27-2.5l.63,1.86c8.39,14.22,8.45,31.89,15.13,47C54.33,124.57,62,133.6,64.58,144.58c.89,3.71,1.17,7.55,2.16,11.24,2.32,8.62,5.88,14.63,14,18.3" fill="#fca311" stroke="#13213d" stroke-miterlimit="10"/>
      </g>
      <g id="f3adf507-5253-4ccf-bc25-79cd9a32dd10" data-name="Layer 8">
        <path d="M133,170.93a51.06,51.06,0,0,0,1.12,9.2l-1.26.27c-4.06-2.08-8.16-4.18-11.54-7.17a9.85,9.85,0,0,1-2.88-3.74,4.17,4.17,0,0,1,.67-4.37,6.33,6.33,0,0,1,3.14-1.48,30.65,30.65,0,0,1,10.76-.59l1.55.67-.36,5.12a2,2,0,0,1-.32,1.12,2,2,0,0,1-1.13.55l-8.16,2.11a6.07,6.07,0,0,0-3.06,1.45" fill="#d68816" stroke="#13213d" stroke-miterlimit="10"/>
        <path d="M151.82,173.39a39,39,0,0,1-4.28,7.75l1.35.66c5.25-.51,10.57-1,15.36-2.56a11,11,0,0,0,4.47-2.35,3.24,3.24,0,0,0,.67-4.08,7.74,7.74,0,0,0-3.06-2.33,44.51,44.51,0,0,0-11.94-4l-2,.08-1.26,4.64a1.47,1.47,0,0,0,0,1.09,2.56,2.56,0,0,0,1.1.86l8.51,4.53a7.3,7.3,0,0,1,3,2.28" fill="#d68816" stroke="#13213d" stroke-miterlimit="10"/>
        <path d="M151.36,189.52l.57-4.27c-.38-7.7-.45-15.44-.18-23.15l-.56-.44H128.36c-.11,6.08-.07,13.29.1,19.37l-.53,7.24" fill="#fcf0f0" stroke="#13213d" stroke-miterlimit="10"/>
        <path d="M169.8,173.22c2.07,2,2.15,4.74,2.14,7.21v1.31a9.61,9.61,0,0,0,1,5.28,13,13,0,0,1,1.07,2.32c-.08.32-4.93.63-4.93.63-3.88.93-6.23.12-10.32.63-11.31,1.39-.46-.12-6.23.26A35.81,35.81,0,0,1,146,191c-4.44-.35-13.68-2.55-16.52-2.63l-.29-1.16c3.19-1.37,17.42-5.21,22.58-5.74s8.43-1.14,8.43-1.14c4.06-.88,2-.72,5.61-3.19,2-1.34,4.39-2.32,3.37-4.34-1-1.87-3.57-3-6-3.79-3.88-1.38-4.85-1.41-8.8-2.61" fill="#fca311" stroke="#13213d" stroke-miterlimit="10"/>
        <path d="M118.1,165.33c-2.26,1.47-3.13,4.21-3.85,6.74l-.39,1.35a12.14,12.14,0,0,1-2.37,5.1,15,15,0,0,0-1.55,2.06c0,.34,3.76,2.1,3.76,2.1,2.83,2.1,5.66,1.78,8.82,3.41,10.73,5.58-6.2-3.63,2.9,1.68a32.38,32.38,0,0,0,6.46,2.87c3.66,1,11.71,1.44,14,2.21l.57-1.11c-2.14-2.35-12.39-10.5-16.37-12.57s-6.4-3.66-6.4-3.66c-3-2.11-1.39-1.34-3.55-4.94-1.17-1.95-2.82-3.67-1.41-5.43s3.73-2,5.9-2.12c3.51-.26,4.29,0,7.81-.06" fill="#fca311" stroke="#13213d" stroke-miterlimit="10"/>
        <path d="M143.72,191.68h.05l-.4,0h.28l-.4,0a.9.9,0,0,1,.28.08l-.36-.15a1.3,1.3,0,0,1,.26.14l-.31-.23a1.21,1.21,0,0,1,.2.19l-.23-.3.08.12a1,1,0,0,0,.38.42,1.06,1.06,0,0,0,.51.27,1.22,1.22,0,0,0,.6,0,1.12,1.12,0,0,0,.56-.18l.3-.23a1.47,1.47,0,0,0,.39-.67l.05-.39a1.54,1.54,0,0,0-.2-.76,2.81,2.81,0,0,0-.33-.44l-.12-.13a4.46,4.46,0,0,0-.43-.33l-.16-.09a2.34,2.34,0,0,0-.67-.24,3.7,3.7,0,0,0-.57-.07c-.18,0-.37,0-.56.07a1.26,1.26,0,0,0-.51.27,1.18,1.18,0,0,0-.38.42,1.73,1.73,0,0,0-.16,1.16l.16.36a1.5,1.5,0,0,0,.53.53l.36.15a1.36,1.36,0,0,0,.8,0Z" fill="#13213d"/>
        <path d="M141.4,209.22c1-2.08,1.84-7.65,2.15-10l.64-1.43a26.08,26.08,0,0,1,1.29-6.7l1,.68c-1,5.38-2.09,11.19-3.44,16.46l-3.37,13.17-3.71,14.49-.15,1.8a6.25,6.25,0,0,1-.57,3,1.8,1.8,0,0,1-2,1,1.9,1.9,0,0,1-1.12-2.05c.13-.91.95-1.64,1.66-1.43l.49-.7c.22-4.25,2.45-9.77,3.45-13.89,1.42-5.76,2.28-8.6,3.69-14.36" fill="#fff" stroke="#13213d" stroke-miterlimit="10"/>
        <path d="M145.75,204.5c-.49-1.71-.05-5.84.16-7.6l-.27-1.16a13.39,13.39,0,0,0-.16-4.68l-.93.22c-.24,4-.13,8.1,0,12.14l.27,10.1.29,11.11-.23,1.31a3.8,3.8,0,0,0-.13,2.28,1.73,1.73,0,0,0,1.56,1.12,1.46,1.46,0,0,0,1.41-1.22,1.25,1.25,0,0,0-1.17-1.37l-.29-.61c.68-3.07-.14-7.48-.19-10.63-.06-4.4-.23-6.61-.29-11" fill="#fff" stroke="#13213d" stroke-miterlimit="10"/>
        <path d="M103.58,104.4A88.59,88.59,0,0,0,106.49,138c2.42,8.45,6.43,16.94,13.64,22,7.92,5.55,18.33,6,28,5a38.14,38.14,0,0,0,8.68-1.71,39.44,39.44,0,0,0,8.18-4.3,22.18,22.18,0,0,0,5.59-4.69,20,20,0,0,0,3.47-8.88c1.17-6.35,1.17-12.86,1.12-19.33q-.08-10.53-.35-21.07a5.89,5.89,0,0,0-.28-2,4.26,4.26,0,0,0-1.66-1.86,16,16,0,0,0-5-1.94,139.16,139.16,0,0,0-27.57-4.86,67.8,67.8,0,0,0-27.6,3.7c-3.4,1.27-6.79,3-9.05,5.82Z" fill="#fcf0f0" stroke="#13213d" stroke-miterlimit="10"/>
        <path d="M107.12,142.06a50.58,50.58,0,0,1-3.2-13.44,12.16,12.16,0,0,0-.51-3l.12.31c-2.14-1.2-4.8-2.18-7-1.06a5.1,5.1,0,0,0-2.56,3.5,8.78,8.78,0,0,0,.29,4.43,13.69,13.69,0,0,0,12.49,9.42" fill="#fcf0f0" stroke="#13213d" stroke-miterlimit="10"/>
        <path d="M174.51,142.39a94.37,94.37,0,0,0,1.29-15.66l-.28.44a16,16,0,0,1,3.35-2.45,5.36,5.36,0,0,1,4-.43,5.11,5.11,0,0,1,3.14,4.55,10.15,10.15,0,0,1-1.53,5.56,21.15,21.15,0,0,1-9.64,8.9" fill="#fcf0f0" stroke="#13213d" stroke-miterlimit="10"/>
        <path d="M131.05,110.58a1.27,1.27,0,0,1,.19,1.31l.65-.37a33.36,33.36,0,0,0-13.18,1.22l.73,1.26a13.1,13.1,0,0,1,11.4-3.37c.94.19,1.35-1.26.4-1.44a14.67,14.67,0,0,0-12.86,3.74.76.76,0,0,0,.73,1.26A32.1,32.1,0,0,1,131.89,113a.69.69,0,0,0,.64-.37,2.85,2.85,0,0,0-.42-3.13c-.61-.74-1.67.32-1.06,1.06Z" fill="#13213d"/>
        <path d="M126.35,110.54l-3.89.2v1.5l7.32-.55a.75.75,0,0,0,0-1.5l-7.32.55a.78.78,0,0,0-.75.75.75.75,0,0,0,.75.75l3.89-.2c1-.05,1-1.55,0-1.5Z" fill="#13213d"/>
        <path d="M141,121.49a52.12,52.12,0,0,0,4.74,18.88,2,2,0,0,1,.27,1.35,1.74,1.74,0,0,1-.6.8,8.53,8.53,0,0,1-4.62,2" fill="none" stroke="#13213d" stroke-miterlimit="10"/>
        <path d="M148.66,109.52a2.87,2.87,0,0,0-.42,3.13.71.71,0,0,0,.65.37,32.12,32.12,0,0,1,12.78,1.17.76.76,0,0,0,.73-1.26,14.68,14.68,0,0,0-12.86-3.74c-.95.18-.55,1.63.4,1.44A13.07,13.07,0,0,1,161.33,114l.73-1.26a33.33,33.33,0,0,0-13.17-1.22l.65.37a1.25,1.25,0,0,1,.18-1.31c.62-.74-.44-1.8-1.06-1.06Z" fill="#13213d"/>
        <path d="M154.43,112l3.88.2a.75.75,0,0,0,.75-.75.77.77,0,0,0-.75-.75l-7.32-.55a.75.75,0,0,0,0,1.5l7.32.55v-1.5l-3.88-.2c-1-.05-1,1.45,0,1.5Z" fill="#13213d"/>
        <path d="M132.5,122.57a8.65,8.65,0,0,0-7.66-2.78,13.14,13.14,0,0,0-7.42,3.83" fill="none" stroke="#13213d" stroke-miterlimit="10"/>
        <path d="M125.25,124.16l-.3-.09s-.2-.08-.1,0-.08-.05-.08-.05a1.65,1.65,0,0,1-.26-.14l-.13-.08s-.17-.15-.06,0l-.23-.22-.08-.09c-.14-.15,0,.07,0,0s-.11-.16-.15-.24-.08-.21,0-.05l-.06-.18,0-.12c0-.2,0,.1,0,0a1.34,1.34,0,0,1,0-.28s0-.24,0,0l0-.12,0-.12a.56.56,0,0,1,0-.12c0,.07,0,.09,0,0s.09-.16.15-.24c-.1.14,0,0,0,0l.09-.08c.11-.1,0,0,0,0l.15-.1.11,0c.15-.08-.1,0,.05,0s.2-.07.31-.09l.12,0s.24,0,0,0a3.76,3.76,0,0,1,.67,0h.13l.12,0,.15,0,.07,0c-.11,0,.05,0,.06,0l.1.06.14.09c-.1-.07,0,0,0,0a1.53,1.53,0,0,0,.18.18c.07.07-.09-.14,0,0l.06.09c0,.08.09.17.13.25-.07-.14,0-.06,0,0l.06.19,0,.13c0,.14,0,0,0,0a.88.88,0,0,1,0,.28V123c0,.19,0-.15,0,0s0,.18-.08.27c.06-.17,0,0,0,0l-.09.15-.06.09c.09-.14,0,0,0,0s-.17.16-.25.24c.11-.1,0,0,0,0l-.15.1-.15.08s-.2.08,0,0l-.31.1-.15,0c.13,0,.06,0,0,0a2.06,2.06,0,0,1-.35,0,.75.75,0,0,0,0,1.5,3,3,0,0,0,2.86-1.51,2.86,2.86,0,0,0-.36-3.19,3.26,3.26,0,0,0-3.34-.82,2.7,2.7,0,0,0-1.55,1,2.54,2.54,0,0,0-.46,1.67,3.36,3.36,0,0,0,2.65,2.86.75.75,0,0,0,.39-1.45Z" fill="#13213d"/>
        <path d="M124.71,123.27v.09l0-.2,0,.1.07-.18a.31.31,0,0,1,0,.1l.12-.16a.47.47,0,0,1-.1.1l.15-.12-.14.08.18-.07a.53.53,0,0,1-.18,0l.2,0h-.16l.2,0-.13,0,.18.08-.11-.06.15.11L125,123l.12.15A.6.6,0,0,1,125,123l.07.17a1.11,1.11,0,0,1-.07-.26l0,.2a1.5,1.5,0,0,1,0-.3l0,.2a2.5,2.5,0,0,1,.07-.26l-.07.18a.82.82,0,0,1,.12-.2l-.12.15a1.07,1.07,0,0,1,.19-.18l-.15.11.19-.12-.18.08a.67.67,0,0,1,.19,0l-.2,0a.43.43,0,0,1,.16,0l-.2,0,.11,0-.18-.07a.31.31,0,0,1,.1,0l-.15-.11a.28.28,0,0,1,.1.09l-.12-.15a.41.41,0,0,1,.07.11l-.08-.18a1,1,0,0,1,0,.16l0-.2a1.34,1.34,0,0,1,0,.2l0-.2a1.31,1.31,0,0,1-.09.34l.07-.18a2.06,2.06,0,0,1-.23.41l.12-.15-.1.09.16-.11-.11.06.18-.08-.09,0,.2,0a.24.24,0,0,1-.12,0l.2,0-.12,0,.17.08-.13-.08.15.12a.8.8,0,0,1-.13-.13l.12.15a.86.86,0,0,1-.1-.16l.08.18a1,1,0,0,1,0-.17l0,.2a1.93,1.93,0,0,1,0-.24l0,.19a1.58,1.58,0,0,1,.11-.37l-.07.18a2.16,2.16,0,0,1,.29-.54l-.12.15a.6.6,0,0,1,.08-.08l-.15.12.07,0-.18.08.08,0-.2,0H125l-.2,0,.13,0-.18-.08a1.75,1.75,0,0,1,.29.18l-.15-.12a1.45,1.45,0,0,1,.22.21l-.12-.15a1.76,1.76,0,0,1,.14.23l-.08-.18a.9.9,0,0,1,.06.22l0-.19a1.28,1.28,0,0,1,0,.19l0-.2a.66.66,0,0,1-.06.2l.08-.17-.08.13.11-.15-.1.12.15-.12-.14.08.18-.08h0l.92.93s0,0,0-.06l-.07.18a.41.41,0,0,1,.05-.09l-.12.16a.23.23,0,0,1,.07-.07l-.16.12.11-.06-.18.08.13,0-.2,0a.33.33,0,0,1,.14,0l-.2,0,.12,0-.18-.07.08,0-.15-.11.07.06-.12-.15,0,.07-.08-.18,0,.09,0-.2v.09l0-.2,0,.08.08-.18a.33.33,0,0,1-.06.1l.12-.15a.47.47,0,0,1-.1.1l.16-.12a.57.57,0,0,1-.13.08l.18-.08-.13,0,.2,0h-.09l.2,0-.09,0,.18.08-.08,0a.76.76,0,0,0-1,.27.78.78,0,0,0-.08.58l.08.18a.78.78,0,0,0,.27.27,1.06,1.06,0,0,0,.83.14,1.16,1.16,0,0,0,.6-.31,1.14,1.14,0,0,0,.23-1.4,1.21,1.21,0,0,0-2.16.31.79.79,0,0,0,.19.73.76.76,0,0,0,.73.19,1.4,1.4,0,0,0,.79-.66,1.62,1.62,0,0,0,.14-1.06,1.77,1.77,0,0,0-.46-.82,2.12,2.12,0,0,0-.79-.5,1,1,0,0,0-.64,0,1.27,1.27,0,0,0-.62.5,3.2,3.2,0,0,0-.38.79,1.66,1.66,0,0,0-.06,1,1.51,1.51,0,0,0,.61.81,1.25,1.25,0,0,0,1,.16,1.51,1.51,0,0,0,.82-.75,2.14,2.14,0,0,0,.28-.92,1.28,1.28,0,0,0-2-1.12,1.76,1.76,0,0,0-.8,1.5,1.65,1.65,0,0,0,.27.92,1.54,1.54,0,0,0,.45.43,1.23,1.23,0,0,0,.59.18,1.29,1.29,0,0,0,1.39-1.26.79.79,0,0,0-.22-.53.75.75,0,0,0-1.06,0,.71.71,0,0,0-.22.53Z" fill="#13213d"/>
        <path d="M162.37,122.78a8.63,8.63,0,0,0-7.66-2.78,13.14,13.14,0,0,0-7.42,3.83" fill="none" stroke="#13213d" stroke-miterlimit="10"/>
        <path d="M155.3,124.17l-.31-.09-.09,0-.09,0-.25-.14-.14-.09s-.16-.14,0,0c-.08-.08-.16-.14-.23-.22l-.09-.1c-.13-.14,0,.08,0,0l-.15-.24s-.08-.22,0,0l-.06-.18,0-.13c-.05-.19,0,.11,0,0s0-.19,0-.29,0-.23,0,0c0,0,0-.08,0-.12l0-.12a.49.49,0,0,0,0-.11c0,.07,0,.08,0,0s.09-.16.14-.23c-.1.14,0,0,.05,0l.09-.08c.1-.1,0,0,0,0l.16-.1.11-.06c.15-.07-.1,0,0,0l.3-.08.13,0s.23,0,.05,0a5,5,0,0,1,.67,0s.23,0,.13,0,.13,0,.12,0l.14,0,.07,0,.07,0,.09.06.14.09c-.1-.07,0,0,0,0s.11.13.17.18-.09-.14,0,0a.86.86,0,0,0,.07.1c0,.08.08.16.13.25-.08-.14,0-.07,0,0a1.21,1.21,0,0,1,0,.18.74.74,0,0,1,0,.14c0,.14,0,0,0,0a1.29,1.29,0,0,1,0,.28s0,.07,0,.11,0-.15,0,0a2.29,2.29,0,0,1-.09.28v0l-.09.15a.86.86,0,0,1-.07.1c.1-.15,0,0,0,0a3,3,0,0,1-.26.24c.11-.1.05,0,0,0l-.15.1L156,124s-.21.08,0,0l-.31.1-.14,0c.13,0,0,0,0,0a2,2,0,0,1-.35,0,.76.76,0,0,0-.75.75.77.77,0,0,0,.75.75A3,3,0,0,0,158,124.1a2.84,2.84,0,0,0-.36-3.19,3.24,3.24,0,0,0-3.34-.82,2.68,2.68,0,0,0-1.54,1,2.46,2.46,0,0,0-.46,1.66,3.36,3.36,0,0,0,2.64,2.87.77.77,0,0,0,.92-.53.76.76,0,0,0-.52-.92Z" fill="#13213d"/>
        <path d="M154.76,123.28a.28.28,0,0,1,0,.09l0-.2a.19.19,0,0,1,0,.1l.08-.18-.06.09.12-.15-.09.1L155,123l-.14.08L155,123a.61.61,0,0,1-.18,0l.2,0a.43.43,0,0,1-.16,0l.19,0-.13,0,.18.08L155,123l.15.12L155,123l.11.15L155,123l.08.18a.77.77,0,0,1-.07-.26l0,.2a1.5,1.5,0,0,1,0-.3l0,.2a.77.77,0,0,1,.07-.26L155,123a.82.82,0,0,1,.12-.2l-.11.15a1.07,1.07,0,0,1,.18-.19l-.15.12a.82.82,0,0,1,.2-.12l-.18.08a.6.6,0,0,1,.19-.06l-.2,0a.43.43,0,0,1,.16,0l-.2,0,.11,0-.18-.08.1.06-.15-.12.09.1-.12-.16.08.12-.08-.18a.75.75,0,0,1,0,.16l0-.2a.61.61,0,0,1,0,.19l0-.2a1.4,1.4,0,0,1-.1.35l.08-.18a1.91,1.91,0,0,1-.24.41l.12-.16-.09.1.15-.12a.21.21,0,0,1-.1.06l.18-.07-.1,0,.2,0h-.12l.2,0-.12,0,.18.08a.57.57,0,0,1-.13-.08l.15.12a.93.93,0,0,1-.14-.14l.12.16a.56.56,0,0,1-.09-.17l.07.18a.75.75,0,0,1,0-.16l0,.2a1,1,0,0,1,0-.25l0,.2a1.82,1.82,0,0,1,.11-.38l-.08.18a2.73,2.73,0,0,1,.29-.53l-.12.15a.6.6,0,0,1,.08-.08l-.15.12.07-.05-.18.08.08,0-.2,0h.07l-.2,0a.53.53,0,0,1,.12,0l-.17-.07.29.17-.16-.11a1.1,1.1,0,0,1,.22.21l-.12-.15a.79.79,0,0,1,.14.23l-.07-.18a.79.79,0,0,1,.06.22l0-.2a.6.6,0,0,1,0,.19l0-.2a1.29,1.29,0,0,1-.06.21l.07-.18a.64.64,0,0,1-.08.14l.12-.15a.57.57,0,0,1-.11.11l.15-.11a.57.57,0,0,1-.13.08l.18-.08h0l.92.92s0,0,0,0l-.08.17.05-.08-.12.15.07-.06-.15.11.1,0-.18.07.14,0-.2,0a.33.33,0,0,1,.14,0l-.2,0,.11,0-.18-.07a.2.2,0,0,1,.08,0l-.15-.12a.46.46,0,0,1,.07.07l-.12-.15a.16.16,0,0,1,0,.07l-.07-.18a.24.24,0,0,1,0,.08l0-.2v.09l0-.2a.29.29,0,0,1,0,.09l.08-.18-.06.1.12-.15a.47.47,0,0,1-.1.1l.15-.12-.12.07.18-.07-.13,0,.2,0h-.09l.2,0-.09,0,.18.08-.08-.05a.78.78,0,0,0-.58-.08.82.82,0,0,0-.45.35.77.77,0,0,0-.07.58l.07.17a.7.7,0,0,0,.27.27,1.08,1.08,0,0,0,.84.15,1.3,1.3,0,0,0,.6-.32,1.13,1.13,0,0,0,.23-1.39,1.21,1.21,0,0,0-2.16.3.75.75,0,0,0,.92.93,1.44,1.44,0,0,0,.79-.67,1.58,1.58,0,0,0,.14-1,1.66,1.66,0,0,0-.47-.82,2,2,0,0,0-.79-.51,1.07,1.07,0,0,0-.64,0,1.28,1.28,0,0,0-.61.49,3.49,3.49,0,0,0-.39.8,1.73,1.73,0,0,0-.05,1,1.46,1.46,0,0,0,.61.81,1.18,1.18,0,0,0,1,.15,1.41,1.41,0,0,0,.82-.75,2.31,2.31,0,0,0,.29-.91,1.37,1.37,0,0,0-.35-1,1.32,1.32,0,0,0-1.7-.14,1.78,1.78,0,0,0-.81,1.51,1.69,1.69,0,0,0,.28.92,1.5,1.5,0,0,0,.44.43,1.44,1.44,0,0,0,.6.18,1.3,1.3,0,0,0,1.39-1.26.82.82,0,0,0-.22-.53.77.77,0,0,0-.53-.22.73.73,0,0,0-.54.22.74.74,0,0,0-.21.53Z" fill="#13213d"/>
        <g>
          <path d="M134.14,147.24c5,1.15,9.85,1.63,14.71,0" fill="#fff" stroke="#13213d" stroke-miterlimit="10"/>
          <path d="M133.64,147.6c1.06,1.8,3.09,2.77,5.06,3.48a10.31,10.31,0,0,0,3.85.82,8.57,8.57,0,0,0,6.3-4" fill="none" stroke="#13213d" stroke-miterlimit="10"/>
        </g>
        <path d="M99.82,101.59c.88-6,6.19-12.77,11.38-15.82a54.7,54.7,0,0,1,31.13-7.22,42.75,42.75,0,0,1,18.4,5.13C166.31,86.85,172.85,94,175.17,100l-1.79-1-3.11,2.18-1.38,5.34c-2.37-2.16-5.69-8-8.58-9.46l-1.21-.42A59.14,59.14,0,0,1,116,98.09l-1.53,0c-3.32,1-5.76,8.27-8.14,10.81-1.56-.24-3.63-6.54-4.52-7.85" fill="#13213d" stroke="#13213d" stroke-miterlimit="10"/>
        <path d="M103.89,132c-3.12-9.2-3.73-19.39-4.06-29.18a4.87,4.87,0,0,1,.71-3.33c.74-.86,2.41-.71,2.57.45l.26,0a7.43,7.43,0,0,1,4.21,5,2.85,2.85,0,0,1,.1,1.12,3.42,3.42,0,0,1-.6,1.28c-3.23,5-2.77,12.18-1.54,18.15.54,2.61-1.49,4.59-1.77,7.25" fill="#13213d" stroke="#13213d" stroke-miterlimit="10"/>
        <path d="M130.34,78.24c-2.12-2.93-4.39-6.54-3.63-10.32a7.14,7.14,0,0,1,5-5.43,11.53,11.53,0,0,1,7,.74A11.38,11.38,0,0,1,143,65.77a7.05,7.05,0,0,1,2.08,5c0,2.56-1.66,4.63-3.16,6.44a5.46,5.46,0,0,1-1.78,1.59,4.18,4.18,0,0,1-1.79.24l-7.21,0Z" fill="#13213d" stroke="#13213d" stroke-miterlimit="10"/>
        <path d="M174.61,130c2.21-9,1.94-18.65,1.43-27.94a4.59,4.59,0,0,0-1-3.09c-.76-.76-2.34-.47-2.4.64l-.24,0a7.05,7.05,0,0,0-3.59,5,2.52,2.52,0,0,0,0,1.06,3.09,3.09,0,0,0,.68,1.16c3.48,4.48,3.65,11.29,3,17-.29,2.52,1.8,4.22,2.29,6.71" fill="#13213d" stroke="#13213d" stroke-miterlimit="10"/>
      </g>
    </g>
    <g id="e427b5d1-56ed-4dde-b8e2-3ba6b10bab2b" data-name="Layer 42">
      <path d="M253.59,457.33c0,1.91,12.74-1.75,14.06-1.67,9.54.55,19.09,1.1,28.65,1.46q3,.12,6,.21c1.85-26.42,5.91-52.87,10.57-79l-.82,5.43q8.6,36.51,17.18,73c13.44-1.27,29.5.25,43-.29-.87-39.5,4.78-83.33-4.15-122.17A47.82,47.82,0,0,0,358,321.22l-1.11.14a512,512,0,0,1-82.61-.1l-1.15.06C265,324,258,328.93,253.6,335c-3.29,4.55-5.1,9.66-6.86,14.71l.42-.64C254.57,384.33,251.91,421.62,253.59,457.33Z" fill="#fca311" stroke="#13213d" stroke-miterlimit="10"/>
    </g>
    <g id="f94255e6-9cd4-49d3-8e2f-3de9c112f55d" data-name="clico">
      <g id="a67e4c44-a93d-4474-90b5-2fe49c4b1df1" data-name="Layer 7">
        <path d="M271.61,158.07a48.51,48.51,0,0,1,1.56,8.86l.86.41a16.29,16.29,0,0,0,15.85-3.93l1.1-.66a62.82,62.82,0,0,1-.63-11" fill="#fcf0f0" stroke="#13213d" stroke-miterlimit="10"/>
        <path d="M301.41,176.19l-6.88-9.37-.45,1c-3.14.07-5.86,2-8.68,3.42a25.73,25.73,0,0,1-8.26,2.49,10.83,10.83,0,0,1-4.43-.2c-2.61-.78-3.18-3.43-3.37-6.15h0c-4.34,2.14-6.89,6.84-8.07,11.54a59.4,59.4,0,0,0-1.36,11c-2,34.38-.19,69-4.2,103.17-1.84,15.73-4.91,31.48-3.86,47.28l1.47.83c3.2,1.89,7,2.5,10.67,2.93,9.41,1.08,62.8,1.74,72.24.93l.48-3.72c2.41-55.35-39.55-108-35.7-163.24" fill="#ebf5f7" stroke="#13213d" stroke-miterlimit="10"/>
        <path d="M276.06,182.18l1,.06a6.49,6.49,0,0,0-.46-9.15l-1.07-.5a6.8,6.8,0,0,0-1.69,9" fill="#ef9c9c" stroke="#13213d" stroke-miterlimit="10"/>
        <path d="M269.55,361.28l3.67-7.47-.28-.42q6.29-84.94,4.29-170.24l-.1-.23a1.84,1.84,0,0,0-1.9-1.85,2.42,2.42,0,0,0-2.13,1.84l.17.62q.62,86.79-7.09,173.39h.52l1.75,4.69" fill="#ef9c9c" stroke="#13213d" stroke-miterlimit="10"/>
        <path d="M277.83,168.93a26.84,26.84,0,0,0,13.28-8.55l1.33.73,3.45,5.41a71.79,71.79,0,0,1-16.79,11.53,35.06,35.06,0,0,1-2.88-8.4" fill="#ebf5f7" stroke="#13213d" stroke-miterlimit="10"/>
        <path d="M275.79,170.49l-3.23,5.85a27.54,27.54,0,0,1-2.38-7.07,9.36,9.36,0,0,1,1.56-7.11,32.15,32.15,0,0,0,2.91,6.86Z" fill="#ebf5f7" stroke="#13213d" stroke-miterlimit="10"/>
        <path d="M253.59,227.06,244,221.18" fill="none" stroke="#000" stroke-miterlimit="10"/>
        <path d="M251.38,232.57l-6.12-3.76" fill="none" stroke="#000" stroke-miterlimit="10"/>
        <path d="M323.15,204.9a124.54,124.54,0,0,0-.23,32.16" fill="none" stroke="#000" stroke-miterlimit="10"/>
        <path d="M338.72,227.61l-4.4,16" fill="none" stroke="#000" stroke-miterlimit="10"/>
        <path d="M336.71,255.49l6.92,2.95" fill="none" stroke="#000" stroke-miterlimit="10"/>
        <path d="M224,300.3l6.16,5.72" fill="none" stroke="#000" stroke-miterlimit="10"/>
        <path d="M308,146.41c2.84.64-12.75,12-22.79,12.33a68.47,68.47,0,0,1-11.57-.56c-6.45-.58-20.52-6.05-25-10.07S242,138.13,244,133h0c-2.69,3.62,3.14-2.53,2.34-2.18a6.68,6.68,0,0,1-6.31-.21c-4.66-3.07-6.23-8-6.46-12.68-.27-5.53.61-10,4.74-14.2h0c-1.42-5.36-1.27-2.18-1.94-7.44s.82-9.46,3-14.37c1.26-2.8,3.23-5.74,6.66-6.57l1.44-.39a4.68,4.68,0,0,1,2.95-4.28,6.76,6.76,0,0,1,5.93.35l.12,4.87c.16-6.33,5.78-12.2,13.09-13.66s15.68,1.62,19.48,7.17l-1.53.76a7.94,7.94,0,0,1,7.76-.91,8.17,8.17,0,0,1,5.51,6.15l-5.83.84c3-1.85,14.53-4.23,17.45-3,3.5,1.53,12.26,7.64,12.32,12.58,0,4.49-1.84,8.27-4.17,12.27l-1.61,1.93c2.33.94,6.4,1.94,7.36,6.11s.62,10.65-1,14.62c-1.17,2.82-4.25,6.71-8.76,6.16h0c-.94-.64-2.13-.39-1.68.55,1.67,3.47,5.62,5.5,1.86,14.59-2.47,5.95-11.19,5.32-16.59,5.57-6.5.3-13.41-.54-18-4.47a12.53,12.53,0,0,1-4.29-6.44,10.82,10.82,0,0,1,.81-6.78,9,9,0,0,1,3.32-4.15,6.68,6.68,0,0,1,5.71-.77" fill="#f9e1e1" stroke="#ef9c9c" stroke-miterlimit="10"/>
        <path d="M291.36,80.6c-8.15,1.18-15,6.42-17.87,12.91A14.73,14.73,0,0,1,271.13,98,4.91,4.91,0,0,1,266,99.34a4.3,4.3,0,0,1-2.41-4,9.5,9.5,0,0,1,1.51-5.63c.45-.7,1.68-1.37,2.19-.69" fill="none" stroke="#ef9c9c" stroke-miterlimit="10"/>
        <path d="M310.5,128.73a20.48,20.48,0,0,0-9.6-7.44" fill="none" stroke="#ef9c9c" stroke-miterlimit="10"/>
        <path d="M318.39,99.05a12.94,12.94,0,0,1-5.61,7.71" fill="none" stroke="#ef9c9c" stroke-miterlimit="10"/>
        <path d="M251.73,142.06c-.08,3.05,2.71,5.84,6.11,7a19.17,19.17,0,0,0,10.67,0" fill="none" stroke="#ef9c9c" stroke-miterlimit="10"/>
        <path d="M311.42,127.32c4.51-1.53,7.89-5.14,8.62-9.2a11.56,11.56,0,0,0-5-11.15" fill="none" stroke="#ef9c9c" stroke-miterlimit="10"/>
        <path d="M235.15,108.54a15.51,15.51,0,0,0,3,17.95" fill="none" stroke="#ef9c9c" stroke-miterlimit="10"/>
        <path d="M241.7,119.86a4.54,4.54,0,0,0-1.25,5.53" fill="none" stroke="#ef9c9c" stroke-miterlimit="10"/>
        <path d="M247.72,120.87a5,5,0,0,0,1.68-3.51" fill="none" stroke="#ef9c9c" stroke-miterlimit="10"/>
        <path d="M259.82,119.54c3.68,1,6.38,3.64,9.78,5.19a17.44,17.44,0,0,0,9.82,1.3c2.19-.36,4.25-1.13,6.44-1.45s4.72-.08,6.29,1.28" fill="none" stroke="#ef9c9c" stroke-miterlimit="10"/>
        <path d="M287.64,93.27c-.84.29-.8,1.62-.13,2.21a4.75,4.75,0,0,0,2.52.79,14.9,14.9,0,0,1,8.18,4c-1.08-4-6.46-7.34-10.57-7" fill="#13213d" stroke="#13213d" stroke-miterlimit="10"/>
        <path d="M260.72,90.17c.66.36.46,1.5-.17,1.92a3.79,3.79,0,0,1-2.19.38A12.19,12.19,0,0,0,251.09,95c1.38-3.28,6.26-5.53,9.63-4.79" fill="#13213d" stroke="#13213d" stroke-miterlimit="10"/>
        <path d="M272.93,102.09l-8.8,18.75a2.67,2.67,0,0,0-.36,1.66,2.39,2.39,0,0,0,.87,1.17,12.7,12.7,0,0,0,4.9,2.54" fill="none" stroke="#13213d" stroke-miterlimit="10"/>
        <path d="M281.55,110.53c1.86-1.82,4.84-2,7.3-1.21a12.72,12.72,0,0,1,5.15,3" fill="none" stroke="#13213d" stroke-miterlimit="10"/>
        <path d="M289.94,111.39a2.66,2.66,0,1,1-4.64-1.23" fill="#13213d" stroke="#13213d" stroke-miterlimit="10"/>
        <path d="M288.06,113.23l.08,0a3.12,3.12,0,0,0,.42-.18l.15-.08c.12-.09.24-.18.35-.28a.18.18,0,0,0,.07,0,3.2,3.2,0,0,0,.33-.42,2.2,2.2,0,0,0,.3-.64.94.94,0,0,0,0-.16,1.79,1.79,0,0,0,0-.92,2.14,2.14,0,0,0-.51-.84.1.1,0,0,0-.05,0,4.19,4.19,0,0,0-.33-.26l-.12-.06a2.65,2.65,0,0,0-.45-.19h-.06a3.62,3.62,0,0,0-.46-.06h-.12a4.63,4.63,0,0,0-.52.07l-.12,0a2.73,2.73,0,0,0-.47.21c-.12.08-.24.18-.35.27l0,0c-.1.11-.19.24-.28.36l0,.06a1.73,1.73,0,0,0-.16,1.16,1.26,1.26,0,0,0,.27.51,1.18,1.18,0,0,0,.42.38l.36.15a1.36,1.36,0,0,0,.8,0l.36-.15a1.55,1.55,0,0,0,.54-.54l0-.08-.24.3.1-.09-.3.24.12-.08-.36.15.18,0-.4.05a.74.74,0,0,1,.21,0l-.39-.05a.67.67,0,0,1,.19.05l-.36-.15a.6.6,0,0,1,.15.09l-.31-.24.1.09-.24-.3a.47.47,0,0,1,.07.12l-.15-.36s0,0,0,0l-.06-.39V111l.05-.4a1,1,0,0,1-.06.23l.15-.36a1,1,0,0,1-.13.22l.24-.31a1,1,0,0,1-.18.18l.3-.23a1.48,1.48,0,0,1-.21.13l.36-.15-.12,0a1.26,1.26,0,0,0-.51.27,1.18,1.18,0,0,0-.38.42,1.12,1.12,0,0,0-.18.56,1,1,0,0,0,0,.6l.15.36a1.55,1.55,0,0,0,.54.54l.35.15a1.55,1.55,0,0,0,.8,0Z" fill="#13213d"/>
        <path d="M260.58,106.67a5.54,5.54,0,0,0-6-2c-2.17.54-1,.52-2.91,1.93" fill="none" stroke="#13213d" stroke-miterlimit="10"/>
        <path d="M253.4,106.6c-.48,1.71.93,3.68,2.44,3.42s2.44-2.65,1.61-4.13" fill="#13213d" stroke="#13213d" stroke-miterlimit="10"/>
        <path d="M256,105.94l-.13-.08.31.24a.71.71,0,0,1-.15-.15l.23.3a1,1,0,0,1-.13-.23l.15.36a.9.9,0,0,1-.07-.27l.05.4a1.55,1.55,0,0,1,0-.22l0,.4h0l-.15.36a.75.75,0,0,1,.07-.12l-.23.3.09-.09-.31.24.12-.07-.36.15.15,0-.4,0h.15l-.4,0,.14,0-.36-.15.12.06-.3-.23a.24.24,0,0,1,.08.09l-.23-.31a.75.75,0,0,1,.07.12l-.15-.36a.08.08,0,0,0,0,0,1,1,0,0,0,.26.51,1.12,1.12,0,0,0,.42.39,1.16,1.16,0,0,0,.56.18,1.22,1.22,0,0,0,.6,0l.36-.15a1.55,1.55,0,0,0,.54-.54l.15-.36a1.51,1.51,0,0,0,0-.79,2.13,2.13,0,0,0-.49-.85.46.46,0,0,0-.07-.07,3.3,3.3,0,0,0-.39-.29l-.4-.17,0,0h-.05c-.14,0-.3,0-.45-.06h-.1a3.11,3.11,0,0,0-.44.06h-.06a2,2,0,0,0-1.22.93.17.17,0,0,0,0,.05,3,3,0,0,0-.16.37,2,2,0,0,0-.06.43,1,1,0,0,0,0,.17,2.4,2.4,0,0,0,.13.7,3,3,0,0,0,.21.49,4.87,4.87,0,0,0,.33.43.49.49,0,0,0,.13.12,2,2,0,0,0,.43.31,1.12,1.12,0,0,0,.56.18,1,1,0,0,0,.6,0,1.13,1.13,0,0,0,.51-.26,1.18,1.18,0,0,0,.38-.42l.15-.36a1.55,1.55,0,0,0,0-.8l-.15-.36a1.55,1.55,0,0,0-.54-.54Z" fill="#13213d"/>
        <circle cx="287.64" cy="113.1" r="10.65" fill="none" stroke="#13213d" stroke-miterlimit="10"/>
        <ellipse cx="256.47" cy="109.9" rx="10.65" ry="8.91" transform="translate(131.32 359.28) rotate(-86.55)" fill="none" stroke="#13213d" stroke-miterlimit="10"/>
        <path d="M276.69,108.79a11.19,11.19,0,0,0-10.7-1.68" fill="none" stroke="#13213d" stroke-miterlimit="10"/>
        <path d="M275.38,134.55a13.88,13.88,0,0,1-12.71,3.16" fill="none" stroke="#13213d" stroke-miterlimit="10" stroke-width="2"/>
      </g>
      <g id="f1ac3bbe-a5b4-4031-b002-4d6e10dc8026" data-name="Layer 21">
        <path d="M187,56.86l-1.42-3.63a1.31,1.31,0,0,1-.1-1,1.36,1.36,0,0,1,.72-.56,42.21,42.21,0,0,0,5.14-2.74,4.38,4.38,0,0,0,2.11-2.22,4.46,4.46,0,0,0,.07-1.67L192.1,27.61c0-.31-.12-.71-.43-.76a.68.68,0,0,0-.44.12l-2.73,1.47a3.16,3.16,0,0,0-.06,2.25,3.11,3.11,0,0,1-.07,2.25c-.39.66-1.58.81-1.84.09l-.05-.72a129.63,129.63,0,0,1-4.36-17.14,1.7,1.7,0,0,0-2.36.86,4.91,4.91,0,0,0-.14,2.82,60.37,60.37,0,0,0,2.88,12.93l-.59.42L176.14,15c-.47-1.39-1.22-3-2.67-3.17a2.7,2.7,0,0,0-2.61,2.48,8.46,8.46,0,0,0,.77,3.87A73.73,73.73,0,0,1,175.39,34l-.66.32-5-14.15c-.26-.73-.61-1.56-1.35-1.81a1.81,1.81,0,0,0-2.12,1.49,5.42,5.42,0,0,0,.44,2.87A121,121,0,0,1,171,38.55l-.14.62a26.35,26.35,0,0,1-5.24-10.31c-.11-.43-.3-.95-.74-1a.84.84,0,0,0-.47.11,3.62,3.62,0,0,0-1.79,3.3,10.37,10.37,0,0,0,1,3.8q4.11,10.29,8.9,20.3a3.23,3.23,0,0,0,1.12,1.49c1,.6,2.29,0,3.29-.69l.8.08,1.44,5.61" fill="#fcf0f0" stroke="#13213d" stroke-miterlimit="10"/>
        <path d="M385.34,45.54l1.42-3.64a1.36,1.36,0,0,0,.1-1,1.34,1.34,0,0,0-.72-.55A42.18,42.18,0,0,1,381,37.58a4.36,4.36,0,0,1-2.11-2.21,4.46,4.46,0,0,1-.07-1.67l1.37-17.41c0-.32.12-.72.43-.77a.71.71,0,0,1,.44.13l2.72,1.47a3.11,3.11,0,0,1,.07,2.25,3.08,3.08,0,0,0,.07,2.24c.39.66,1.57.81,1.84.09l0-.71a131.39,131.39,0,0,0,4.37-17.15,1.71,1.71,0,0,1,2.36.86,4.94,4.94,0,0,1,.14,2.83,60.5,60.5,0,0,1-2.88,12.93l.59.41,5.77-17.2c.47-1.38,1.21-3,2.67-3.16s2.43,1.16,2.61,2.48a8.45,8.45,0,0,1-.77,3.86,73.28,73.28,0,0,0-3.76,15.78l.65.33,5-14.15c.26-.74.61-1.56,1.34-1.82A1.82,1.82,0,0,1,406,8.49a5.38,5.38,0,0,1-.44,2.86,121.15,121.15,0,0,0-4.26,15.88l.14.62a26.53,26.53,0,0,0,5.24-10.32c.11-.43.3-1,.74-1a.86.86,0,0,1,.47.11,3.62,3.62,0,0,1,1.79,3.3,10.42,10.42,0,0,1-1,3.8Q404.63,34,399.84,44a3.3,3.3,0,0,1-1.12,1.49c-1,.6-2.29-.05-3.29-.69l-.8.08-1.44,5.62" fill="#fcf0f0" stroke="#13213d" stroke-miterlimit="10"/>
      </g>
      <g id="a71885a5-8dbc-4019-8ea1-6f239bfd3ba0" data-name="Layer 20">
        <path d="M339.35,315.52a29.62,29.62,0,0,0,23.82,3.12" fill="none" stroke="#000" stroke-miterlimit="10"/>
        <path d="M241.81,318.73a52.32,52.32,0,0,1-11,13.5" fill="none" stroke="#000" stroke-miterlimit="10"/>
        <path d="M381.12,42.54a56.38,56.38,0,0,1,16.15,8.4l1,.37a60.8,60.8,0,0,1-1.16,20.58C385,123,366,143.89,336.17,182.21l9.39,33.92c15,53.33,24,63.85,35.38,112l.26,1c-9.77,13.2-27.51,21.17-42.61,14.72-1.58-.68-4.81-1.28-4.88-3C310,288.46,298,220.84,292.57,160.36c6.14,1.46,20.05-4,25.16-7.65s9-8.79,12.77-13.85c21.74-29.31,41.35-61,50.62-96.32" fill="#13213d" stroke="#13213d" stroke-miterlimit="10"/>
        <path d="M190.54,54.81c-4.64.19-10.44,2.84-14.19,5.57l-1.15.48c4.25,59,12.15,75,40.52,128.28,4.61,8.66,3.68,20.28,7,51.92,3.19,49.58,3.19,25.06,0,72.61-.5,7.48-2.36,9-.7,16.3,3.78,16.58,20.37,29.27,37.36,28.56l.54-2c9.91-29.42,4.33-56.87,2.2-87.84-.91-13.36.15-23.77.52-37.15.5-18.08,7.2-49.06,7.7-67.14l-11.67,5c-7.92-.5-22.15-4.84-27.93-14.18l-.58-2.16a841.71,841.71,0,0,1-39.59-98.22" fill="#13213d" stroke="#13213d" stroke-miterlimit="10"/>
      </g>
      <g id="f4d3f22f-0862-4840-9e7b-4d5b401df016" data-name="Layer 22">
        <path d="M317.42,297.16c-6.4-14.55-7.49-28-11.28-43.22-6.5-26.2-8.6-63.08-14.48-93.31h0a69.55,69.55,0,0,1,14.86,17.51l-.24,1.26a850.43,850.43,0,0,0,11.9,119.34" fill="#0f1a2d" stroke="#13213d" stroke-miterlimit="10"/>
        <path d="M256.09,282.27c6.07-8.68,5-3.06,6-13.59,3.09-33.72,2.57-76.22,9.26-106h0c1.16.69-.73,1.67-1.65,2.1-7,3.23-3,1.68-11.06,4.61l-2,15.44c-.3,40.24-.84,59.35-.57,97.46" fill="#0f1a2d" stroke="#13213d" stroke-miterlimit="10"/>
      </g>
      <g id="e358bea2-3a1a-4afb-8ea1-c7e7259fde1d" data-name="Layer 23">
        <path d="M318.86,229.93a22.46,22.46,0,0,0,11.64,8.49" fill="none" stroke="#13213d" stroke-miterlimit="10"/>
        <path d="M322.76,244.47l6.44,5" fill="none" stroke="#13213d" stroke-miterlimit="10"/>
        <path d="M226,198.4c5.93,13.13,11.09,19.67,18.37,32.58" fill="none" stroke="#13213d" stroke-miterlimit="10"/>
        <path d="M231.41,241.64l4.19,7" fill="none" stroke="#13213d" stroke-miterlimit="10"/>
      </g>
    </g>
    <g id="ae03a5cf-9d75-4c84-8d26-2b788f949e9b" data-name="Layer 43">
      <path d="M322.28,160.76c1.15,4.93.78,10.09.25,15.13a5.59,5.59,0,0,1-.86,2.88,1.94,1.94,0,0,1-2.67.52l-.74-1.32h.2q.44-8,.41-16l-.81-.53c0,2.49-.22,4-.25,6.52-.05,5-.13,10.11-1.9,14.79-.33.85-1,1.85-1.89,1.65s-1.06-1.24-1.13-2.09q-.67-9.17-.79-18.36l-.76-1.18a193.35,193.35,0,0,1-2,23.06c-.19,1.32-.6,2.88-1.87,3.26a2.42,2.42,0,0,1-2.61-1.27,7.12,7.12,0,0,1-.69-3c-.49-7-.8-12.39-.72-19.37l-.83,2.34c-.82,2-1.8,2.93-2.62,4.93-.33.81-.79,1.72-1.64,1.91a1.88,1.88,0,0,1-2-1.25,5.58,5.58,0,0,1-.19-2.48l.25-3.19c.2-2.53.5-5.28,2.3-7.06.77-.77,1-1.55,2-2.05h0a24.35,24.35,0,0,1,4.67-2.13c8.4-3.06,11.94-3.25,19,.36l.82,1.67a32.85,32.85,0,0,1,.93,15.52,2.72,2.72,0,0,1-.44,1.27.93.93,0,0,1-1.2.27" fill="#fcf0f0" stroke="#13213d" stroke-miterlimit="10"/>
    </g>
    <g id="a71af9eb-d580-40d5-a9fe-4dd942e693fd" data-name="rosie">
      <g id="b73ffb95-89e5-482c-8675-69bd0a7a1b14" data-name="Layer 39">
        <path d="M573.58,146.18c1.21,8.51,1.7,10.55,1.21,19.12-.31,5.43-4,17.31-5.7,22.46l-.41,1.05a67.79,67.79,0,0,1-34-2l-18.19-1.22A47.77,47.77,0,0,1,486,183.32l-.93-.4c-3.14-16.53-6.41-21.86-1.9-42" fill="#13213d" stroke="#13213d" stroke-miterlimit="10"/>
      </g>
      <g id="a338f6ad-156b-4bed-be92-7b93bc78b67b" data-name="Layer 38">
        <path d="M511.8,197.71c2.9-8.88,3.45-14.7,2.27-24l18.65,1.09c1.28.08.93,1.31.76,2.77-1,8.93-2.83,15.2-2.57,24.73" fill="#fcf0f0" stroke="#13213d" stroke-miterlimit="10"/>
      </g>
      <g id="b277ab40-8742-453f-a6fd-824bfacf8cf8" data-name="Layer 5">
        <path d="M561.26,156c3-.18,7.42-2.15,8.4-5a7.83,7.83,0,0,0-2.19-8.25c-1.3-1.15-3.25-1.82-4.77-1Z" fill="#fcf0f0" stroke="#13213d" stroke-miterlimit="10"/>
        <path d="M494.18,130c-.25-12,8-23.43,19.1-28.13s24.28-3.13,34.71,2.87a27.71,27.71,0,0,1,9.88,8.92,29.71,29.71,0,0,1,3.78,11.08c1.74,10.58.59,21.39-.56,32.05l0-.12c-.78,2.76-1.59,5.61-3.37,7.86a18.11,18.11,0,0,1-4.36,3.72,52.55,52.55,0,0,1-25.19,8.52l-6.87-.54a35.71,35.71,0,0,1-16.93-6.33,24.13,24.13,0,0,1-9.66-15,40.48,40.48,0,0,1-.4-6.69l-.06-16.26" fill="#fcf0f0" stroke="#13213d" stroke-miterlimit="10"/>
        <path d="M515.38,117.26l-1.19-1.34-10.59,8.76a28.71,28.71,0,0,1-7.84,5.15,13.68,13.68,0,0,1-1.72.51,51.23,51.23,0,0,1-.43,7.09c-.38,2.07.86,6.39.56,8.25-.1-.58-2.1-3.49-2.85-3.59-2.71-.36-5.42-.76-8.13-1.18.12-.93.22-1.85.29-2.77.71-9.1-.84-18.51,2.16-27.2,3.08-8.91,11.1-16.27,21-19.28a38.06,38.06,0,0,1,30.09,3.72l2.48.18c9.31-3.35,20.81-1.37,28.21,4.86s10.31,16.37,7.13,24.88c-1.59,4.26-2.72,4.76-2.55,9.27.13,3.5,1.37,8.09,2.58,12.34-1.9.21-3.8.34-5.7.41,0-.31-.06-.62-.11-.93-.52-3.33-2.76-3-6-4.65-5.93-2-11-6.12-16.31-9.23s-9.9-7.5-11.81-12.88c-1.71-4.78-1.18-9.91-.29-14.82l-2-.09c-5.83,10-12.52,20.59-24.05,25.13Q511.84,123.57,515.38,117.26Z" fill="#13213d" stroke="#13213d" stroke-miterlimit="10"/>
        <path d="M571.33,145.75a5.68,5.68,0,0,1,2.54,4.27,5.85,5.85,0,0,1-2.08,5c-1.66,1.58-3.6,2.82-4.82,4.81a6.27,6.27,0,0,0-.46,6.37c.93,1.7,3.52.18,2.59-1.51-1.11-2,1-4.22,2.38-5.45,1.78-1.55,3.74-3,4.72-5.21a8.86,8.86,0,0,0-3.35-10.83c-1.64-1-3.15,1.56-1.52,2.59Z" fill="#13213d"/>
        <path d="M567.31,144.84a29.16,29.16,0,0,1,.38,12.09,1.54,1.54,0,0,0,1,1.85,1.52,1.52,0,0,0,1.85-1.05A32.75,32.75,0,0,0,570.2,144c-.46-1.87-3.35-1.08-2.89.8Z" fill="#13213d"/>
        <path d="M571.49,110.68c2.68,11.9,3.58,24.32,1.07,36.33-.39,1.89,2.5,2.69,2.89.8,2.62-12.56,1.73-25.48-1.06-37.93-.43-1.88-3.32-1.08-2.9.8Z" fill="#13213d"/>
        <path d="M572.41,125.16l-1,22.13c-.08,1.93,2.92,1.93,3,0l1-22.13c.09-1.93-2.91-1.93-3,0Z" fill="#13213d"/>
        <path d="M577,455.44c-18,1.58-36.15,2.42-54.21,1.19-1.55-.11-3.11-.24-4.67-.38-.21-6.67-.37-13.47-.47-20.52-.18-13.46-2.52-26.12-2.52-44.32h0l-1.32.12c-.37,13.67,1.63,29.73,1.66,40.88,0,6.79.34,15.42.38,23.62-18.25-1.85-34.12,3.29-54.39.64-.42-15.87,3.3-51.56,4-66.92a210.23,210.23,0,0,1,9.12-52.54l.4-1.94q13.43,3.71,27.14,6.26l2.34-.09q11.9-.68,23.72-2.17l2.33-.28c13.16-12.4,22.64-.68,23.12-13.45l-.4-5c23,59.82,24.75,80.73,24.64,98.91C577.75,430.36,577.43,442.66,577,455.44Z" fill="#13213d" stroke="#13213d" stroke-miterlimit="10"/>
        <path d="M558.73,343.2c-14,3.29-66.09,5.07-80.05,0l2.69-2.5c4.41,1.75,21.75-.76,29-.07s39.68-1.85,46.51-4.39" fill="#fff" stroke="#13213d" stroke-miterlimit="10"/>
        <path d="M510.38,340.63l.33-2.43,9.49.31v8.81a1,1,0,0,1-.19.72,1,1,0,0,1-.62.22l-3.7.44a6.3,6.3,0,0,1-3.58-.28c-1.08-.55-1.76-2.07-1-3l6.16.34a.53.53,0,0,0,.41-.09.54.54,0,0,0,.12-.41v-2.45a.81.81,0,0,0-.13-.53.79.79,0,0,0-.52-.19L511,341.3Z" fill="#fff" stroke="#13213d" stroke-miterlimit="10"/>
        <path d="M571.66,142.55a39,39,0,0,0-12.86-40.66c-7.35-5.81-16.64-8.72-25.94-9.81-9.54-1.13-19.5-.39-28.21,3.66s-16,11.72-18.17,21.08a75,75,0,0,0-1.2,10.26c-.41,4.57.94,8,2,12.5.1-7.27.26-14.78,3.29-21.39,3.46-7.56,10.41-13.11,18.06-16.38a49.88,49.88,0,0,1,33.62-1.71,41.23,41.23,0,0,1,8.66,3.66,37.52,37.52,0,0,1,14.94,16.47,45.45,45.45,0,0,1,4.07,22" fill="#ef9c9c" stroke="#13213d" stroke-miterlimit="10"/>
        <path d="M534.26,124.22a1.49,1.49,0,0,0-1,1.14,1.16,1.16,0,0,0,.83,1.25,16.5,16.5,0,0,0,2.23.1c.8,0,1.6.09,2.4.16A76.76,76.76,0,0,1,548,128.2c.79.16,1.38-1,.58-1.38a29.6,29.6,0,0,0-13.31-2.72.75.75,0,0,0,0,1.5,28,28,0,0,1,12.55,2.52l.58-1.37a81.79,81.79,0,0,0-14.12-1.63l.53.22c0,.29.05.35.25.18.88-.4.12-1.7-.76-1.3Z" fill="#13213d"/>
        <path d="M540.24,126.61l4.17.41a.76.76,0,0,0,.75-.75.78.78,0,0,0-.75-.75l-7.86-.84a.75.75,0,0,0-.75.75.78.78,0,0,0,.75.75l7.86.84v-1.5l-4.17-.41a.75.75,0,0,0,0,1.5Z" fill="#13213d"/>
        <path d="M522.59,133.25a39.34,39.34,0,0,1-6.34,16.18,1.54,1.54,0,0,0-.39,1.16,1.58,1.58,0,0,0,.6.75,10.24,10.24,0,0,0,4.83,2.15" fill="none" stroke="#13213d" stroke-miterlimit="10"/>
        <path d="M515.31,124.09l.1-.12.53-.22a79.88,79.88,0,0,0-14-.5l.2,1.47a28,28,0,0,1,12.77-.66c.94.15,1.35-1.29.4-1.45a29.64,29.64,0,0,0-13.57.67c-.77.25-.69,1.52.2,1.47a79.68,79.68,0,0,1,9.4.06c.77,0,1.54.12,2.31.19a14.85,14.85,0,0,0,2.29.25,1.19,1.19,0,0,0,1-1.13,1.58,1.58,0,0,0-.87-1.32c-.81-.53-1.56.77-.76,1.29Z" fill="#13213d"/>
        <path d="M510,122.85l-4.19-.22v1.5l7.9.33c1,0,1-1.46,0-1.5l-7.9-.33c-1,0-1,1.45,0,1.5l4.19.22c1,.05,1-1.45,0-1.5Z" fill="#13213d"/>
        <path d="M530.93,135.87a8.16,8.16,0,0,1,7.07-1.81,12.25,12.25,0,0,1,6.44,3.71" fill="none" stroke="#13213d" stroke-miterlimit="10" stroke-width="2"/>
        <path d="M501.88,134.33a6.78,6.78,0,0,1,6.86-2.5,10.94,10.94,0,0,1,6.12,4.61" fill="none" stroke="#13213d" stroke-miterlimit="10" stroke-width="2"/>
        <path d="M557.19,349.93l5.92-.82a1.19,1.19,0,0,1,.77.07,1.13,1.13,0,0,1,.39.54,16,16,0,0,1,1.28,4.63l-.88.6a21.34,21.34,0,0,1-4.09,2.23l.18.33c-2.88,3.74-6.15,7.74-10.77,8.73a20.38,20.38,0,0,1-3,.33l-5.6.34h0c-3.18.46-5.91,3.11-8.79,4.56a4.71,4.71,0,0,1-2.14.64,1.82,1.82,0,0,1-1.75-1.17c-.36-1.31,2.95-3.85,3.1-5.2L536,362a21.49,21.49,0,0,0-9.61,7.13,8.93,8.93,0,0,1-2.14,2.11,2.48,2.48,0,0,1-2.82,0,2.4,2.4,0,0,1-.51-2.53,6.42,6.42,0,0,1,1.55-2.22,38.79,38.79,0,0,1,10.82-7.86l0-.45-10.74,6.23a4.29,4.29,0,0,1-2.86.84c-.76-3.15,1.41-6.34,4.12-8.1s5.93-2.54,8.88-3.86l.12-1.77c-2.16-.25-6.91-.93-9.07-1.18-.72-.08-1.56-.25-1.86-.91a1.47,1.47,0,0,1,.92-1.8c.7-.29,4.09.24,4.83.35A221.62,221.62,0,0,0,557,350.1l-4.88-.69a58.62,58.62,0,0,0-11.76-2.76,3.67,3.67,0,0,0-1.95.12,1.3,1.3,0,0,0-.75,1.61" fill="#fcf0f0" stroke="#13213d" stroke-miterlimit="10"/>
        <path d="M529.65,156.72a9.34,9.34,0,0,1-12.94,2.41" fill="none" stroke="#13213d" stroke-miterlimit="10" stroke-width="2"/>
        <path d="M530.19,199.48c6.18,8.91,12.66,19.17,10.55,29.81-2,10.18-11.91,17.48-22.17,19.07s-20.7-1.51-30.12-5.88a10,10,0,0,1-3.95-2.72c-1.54-2-1.37-4.88-.82-7.37,1.36-6.21,4.61-11.83,8.05-17.18,2.63-4.08,5.45-8.13,9.17-11.24a27.8,27.8,0,0,1,28.24-4.12" fill="#fcf0f0"/>
      </g>
      <g id="b1a4d4a8-ad53-437d-be6d-4681637baca8" data-name="Layer 25">
        <path d="M489.92,214.45c-7.64,28.31-12.48,60.22-20.12,88.54-.7,2.63-1.42,5.38-.81,8a16.63,16.63,0,0,0,3.16,5.86L488.93,340l1.42,1.3c26.9,3.95,51.64-.16,72.41-12l-6-6c-.09.46.77-26.43,2-3.08,0,0,1.94-11,1.94-11-1.44-15.87-2.26-2.17-3.69-18-.63-7,1.77-13.81-1.32-20.1-2.13-4.36-.66-11.4-3.81-15.09l-26.72-31.2L531,215c-3.8,1.65-14.78,11-18.91,10.75s-15.75-12.65-18.43-15.8" fill="#ebf5f7" stroke="#13213d" stroke-miterlimit="10"/>
      </g>
      <g id="bb0b4f34-a910-4754-8fee-65a945c3d07e" data-name="Layer 11">
        <path d="M555.11,205.25a2.45,2.45,0,0,1,.79.35c16,10.8,31.13,29.23,44.47,43.94,7.94,8.76,16.09,17.84,20.61,29.29a2.38,2.38,0,0,1-.21,2.12c-4.08,6.56-7.86,15.59-12,21.88-7.48,11.44-15,22.75-23.08,33.69a84.77,84.77,0,0,1-17.39,17,2.34,2.34,0,0,1-2.16.27c-4-1.45-5.72-4.6-7.1-9.24a2.41,2.41,0,0,1,.06-1.5l1.19-3.14a.87.87,0,0,1,.07-.17l25.84-55.19a2.33,2.33,0,0,1,.31-.5h0a2.36,2.36,0,0,0-.11-3.13l-30.71-32.78,6,7.55a2.27,2.27,0,0,1,.51,1.35q1.63,30.29,3.26,60.59c.21,3.88.4,7.88-.63,11.57-1.31,4.67-4.44,8.27-7.8,11.08A37.74,37.74,0,0,1,533,349.36a2.37,2.37,0,0,1-2.32-1.81c-3.2-13.2-9.83-32.21-12.7-44.86a66.48,66.48,0,0,1-2.12-13.87c-.08-7.3,2.22-14.33,4.15-21.3,4.62-16.67,10-46.54,10.94-65.22.07-1.49-.41-3.83,1-3.48Z" fill="#fca311" stroke="#13213d" stroke-miterlimit="10"/>
        <path d="M531,199.42c-5.54,17-5.87,29.14-11.85,51-4.74,17.3-6.15,24-2.64,41.61h0c1-24.32,10.51-47.75,21.2-76l1.38-.93-1.64-6.36.56-1.3,4.51-1.33c-.91-2.87-5.59-3.62-7.69-5.78" fill="#fca311" stroke="#13213d" stroke-miterlimit="10"/>
      </g>
      <path d="M384.47,172.6a59.71,59.71,0,0,0,.79-14.19l.4-1.64a43.47,43.47,0,0,1-6.18-15.17l-.08-1.13.57-23.06a1.51,1.51,0,0,1,2.15.38,4.35,4.35,0,0,1,.63,2.36l.83,11.43,1.84.45,1.08-16.39a5.57,5.57,0,0,1,1-3.43c.81-.91,2.56-1,3.08.08,2.7,5.61-1.92,13.24,1.86,18.19l1.14.54c2.08-7.86-1-16.52,1.63-24.21l3.63,0q-.12,9.21-.25,18.41a41.73,41.73,0,0,0,.29,6.89l2,0,1.28-14.95a5.63,5.63,0,0,1,1-3.32c.78-.88,2.44-1,3,0L405,136.27l.64,1.07a16.3,16.3,0,0,1,3.62-6.18l3,1.55a32.93,32.93,0,0,1-2.06,9.39c-1.57,4.87-3.29,10-7.07,13.4l-1.76,1.33c-2.14.4-2.78,3.1-3,5.27l-1,11.57" fill="#fcf0f0" stroke="#13213d" stroke-miterlimit="10"/>
      <path d="M390.89,234.93a18.49,18.49,0,0,1-11.65-12.47c-1.46-5.69-1-11.67-.57-17.53l2.56-33h2.39l21.64,1h0c-2.15,9-2,17.26-1.79,26.48.06,3.07.5,7.51,0,10.55-.75,5.09-.82,5.54,2,6.88l1.56.89c16.21,1.91,29-.66,45-1.8,14.6-1,29.75-3.9,42.49-11.67,5.58-3.4,11-7.91,17.4-8.15-10.66,26.69-26.7,77.36-27,106.75-.15,13.61,2,27.1,4.1,40.49-2.3,1.11-5.07,3.37-7.46,2.47a27.07,27.07,0,0,1-6.52-4c-3.91-2.95-7.15-8.61-8.91-13.17-.74-27.36,4.07-56.67,2.18-84-13.37,1.85-26.93,2.89-40.36,1.59s-26.78-5-38.24-12.14Z" fill="#fca311" stroke="#13213d" stroke-miterlimit="10"/>
      <g id="af6c6d4e-e89c-4fb4-bb96-b12943e83dda" data-name="Layer 41">
        <path d="M484.9,289.92c5.1-34.07,13.82-58.08,24.08-88.42l2-5C507,195.88,503.79,199,501,201a8.76,8.76,0,0,1,2.39,2.78l-1.11,1-4.39,3.24.64,2.51-1.31-.55c-3.8,28.66-7,21.79-12.34,79.89" fill="#fca311" stroke="#13213d" stroke-miterlimit="10"/>
      </g>
    </g>
    <g id="fb7ae575-a3b8-48f9-a59a-d696cfe6fd21" data-name="Layer 40">
      <path d="M43.54,457.44H594" fill="none" stroke="#000" stroke-miterlimit="10" stroke-width="3"/>
    </g>
  </g>
</svg>
