<svg xmlns="http://www.w3.org/2000/svg" width="869.86" height="635.09" viewBox="0 0 869.86 635.09">
  <g id="a0e282b3-0b58-4cb7-adcb-e877c8ee9e22" data-name="Layer 2">
    <g id="a5571226-c4c9-427f-9b44-28f17742faf3" data-name="Layer 19">
      <path d="M681.11,296.23l.46.71.82.82h0c1.35,2.14,1.84,2.13,2.66,5.8l-.59.79c-1.32.43-3.56,3.86-4.93,3.67l1.59,2.36c0-2.6-.77-11.25,2.1-.39l-329.69,3.37c-.49-20,3.69-15.65,8.62-17.86l-.16,1.41c.14,1.74,0,7,.12,8.75-2.28.89-4.51-1-6.89-1.55L395.37,621.8c-10.47-1.66-18.53-10.33-24.92-19.1-4.37-6-8.54-12.84-8.34-20.37l0-1.42V295.5c104,0,215,.73,319,.73V581.65l0,1.42c.2,7.52-4,14.36-8.34,20.36-6.4,8.78-14.45,17.45-24.92,19.11v.07H397.43" fill="#f25f5c" stroke="#13213d" stroke-miterlimit="10"/>
    </g>
    <g id="a5bb3e87-80c2-404a-a5e6-4e5325067970" data-name="Layer 21">
      <path d="M604.61,270.53l-6,6.39" fill="#fff" stroke="#cecece" stroke-miterlimit="10"/>
      <path d="M379.57,245.06l-32.85,10.36a3.47,3.47,0,0,0-1.34.64,3,3,0,0,0-.73,1.16c-1.26,3-1.26,6.36-.94,9.59a53.6,53.6,0,0,0,1.92,10c1.52,5.21,3.81,10.15,5.5,15.31s2.78,10.66,1.79,16a243.63,243.63,0,0,0,33.15-8.86,7.15,7.15,0,0,0,2-.92,5.23,5.23,0,0,0,1.8-3.49,17.68,17.68,0,0,0-.81-6.75q-3.23-12.45-7.57-24.59a51.82,51.82,0,0,1-2.62-8.84c-.5-3-.61-6.78.72-9.56" fill="#fff" stroke="#cecece" stroke-miterlimit="10"/>
      <path d="M349.87,267.86c5.79-1.21,11.37-3.22,17-4.92q3.4-1,6.87-1.92" fill="#fff" stroke="#cecece" stroke-miterlimit="10"/>
      <path d="M352.15,271.75l16.1-5a52.36,52.36,0,0,0,5.76-2" fill="#fff" stroke="#cecece" stroke-miterlimit="10"/>
      <path d="M353,275.35c.78-.18,1.55-.41,2.32-.63l12.51-3.65a82.42,82.42,0,0,0,8.44-2.77" fill="#fff" stroke="#cecece" stroke-miterlimit="10"/>
      <path d="M354.27,279.09l22.26-6.69" fill="#fff" stroke="#cecece" stroke-miterlimit="10"/>
      <path d="M354,283c7.88-2.78,16.21-4.19,24-7.29" fill="#fff" stroke="#cecece" stroke-miterlimit="10"/>
      <path d="M355.48,286.48c7.38-2.87,15.33-4,22.88-6.39" fill="#fff" stroke="#cecece" stroke-miterlimit="10"/>
      <path d="M378.44,284.33a49,49,0,0,1-8.39,2.83l-13.61,3.67" fill="#fff" stroke="#cecece" stroke-miterlimit="10"/>
      <path d="M653.91,276.83l-29.23-20.74a3.78,3.78,0,0,0-1.38-.71,3.12,3.12,0,0,0-1.42.12c-3.28.84-6.07,2.95-8.55,5.25a56.54,56.54,0,0,0-7.06,7.85c-3.36,4.53-6,9.55-9.23,14.19s-7.1,9-12.15,11.53a253,253,0,0,0,28.18,21.93,7.13,7.13,0,0,0,2,1.07,5.41,5.41,0,0,0,4-.7,18.29,18.29,0,0,0,5.09-4.91q8.31-10.51,15.65-21.74a52.64,52.64,0,0,1,5.68-7.73c2.2-2.32,5.24-4.76,8.38-5.41" fill="#fff" stroke="#cecece" stroke-miterlimit="10"/>
      <path d="M604.38,267.57c4.9,1.61,10,2.53,15,3.7,2,.48,4,1,6,1.55" fill="#fff" stroke="#cecece" stroke-miterlimit="10"/>
      <path d="M604.41,271.49l14.32,3.25a46.74,46.74,0,0,0,5.23,1" fill="#fff" stroke="#cecece" stroke-miterlimit="10"/>
      <path d="M603.48,274.58c.67.2,1.35.37,2,.54l11,2.7a74.77,74.77,0,0,0,7.57,1.58" fill="#fff" stroke="#cecece" stroke-miterlimit="10"/>
      <path d="M602.81,278l19.71,4.65" fill="#fff" stroke="#cecece" stroke-miterlimit="10"/>
      <path d="M600.9,280.79c7.15,1.32,14.05,3.9,21.25,4.94" fill="#fff" stroke="#cecece" stroke-miterlimit="10"/>
      <path d="M600.5,284.06c6.83,1.05,13.3,3.68,20,5.15" fill="#fff" stroke="#cecece" stroke-miterlimit="10"/>
      <path d="M618.77,292.44a41.81,41.81,0,0,1-7.57-1.53l-11.86-3.15" fill="#fff" stroke="#cecece" stroke-miterlimit="10"/>
      <path d="M676.37,269.24,647.13,248.5a3.67,3.67,0,0,0-1.37-.71,3.12,3.12,0,0,0-1.42.12c-3.28.84-6.07,3-8.56,5.25a56.47,56.47,0,0,0-7,7.85c-3.37,4.54-6,9.55-9.24,14.19s-7.1,9-12.14,11.53a253.32,253.32,0,0,0,28.18,21.94,7.45,7.45,0,0,0,2,1.06,5.38,5.38,0,0,0,4-.7,18.29,18.29,0,0,0,5.09-4.91q8.31-10.5,15.64-21.73a53.47,53.47,0,0,1,5.68-7.74c2.21-2.32,5.25-4.76,8.39-5.41" fill="#fff" stroke="#cecece" stroke-miterlimit="10"/>
      <path d="M638.79,258.93c4.64,4,9.81,7.42,14.79,11q3,2.19,5.91,4.5" fill="#fff" stroke="#cecece" stroke-miterlimit="10"/>
      <path d="M637,263.27l14.26,10.22a56.42,56.42,0,0,0,5.3,3.5" fill="#fff" stroke="#cecece" stroke-miterlimit="10"/>
      <path d="M634.54,266.23c.64.54,1.32,1,2,1.54l10.88,8.08a89.55,89.55,0,0,0,7.61,5.26" fill="#fff" stroke="#cecece" stroke-miterlimit="10"/>
      <path d="M632.24,269.64l19.54,14.26" fill="#fff" stroke="#cecece" stroke-miterlimit="10"/>
      <path d="M628.82,271.87c7.26,4.78,13.66,10.81,21.11,15.3" fill="#fff" stroke="#cecece" stroke-miterlimit="10"/>
      <path d="M626.86,275.29c7,4.32,12.94,10.22,19.69,15" fill="#fff" stroke="#cecece" stroke-miterlimit="10"/>
      <path d="M643.08,293a51.46,51.46,0,0,1-7.62-5.19l-11.6-9" fill="#fff" stroke="#cecece" stroke-miterlimit="10"/>
      <path d="M609.16,277l-6.09,6.35" fill="#fff" stroke="#cecece" stroke-miterlimit="10"/>
    </g>
    <g id="ba09ec8f-c104-44f2-a709-514278cee59f" data-name="Layer 22">
      <path d="M406,312.38q14.77-.47,29.55-.86,22.71-.6,45.43-1c-6.52-28.55-11.65-57.36-13.16-86.63-.37-7.25-1.36-15.94-7.65-19.09-2.66-1.34-5.74-1.32-8.7-1.27l-23.57.37a5.23,5.23,0,0,0-3.19.75,5.55,5.55,0,0,0-1.58,2.73,426.39,426.39,0,0,0-12.49,43.51l5.45-18.31a283.92,283.92,0,0,0-8.33,48.65C407,291.56,406.65,302,406,312.38Z" fill="#fca311" stroke="#13213d" stroke-miterlimit="10"/>
      <path d="M421.23,130.81a24.07,24.07,0,0,0-12.9,1.92c-2,.9-4.44,3.26-3.73,6.08a5.18,5.18,0,0,0,1.82,2.61,20.34,20.34,0,0,0,13.72,5.34,15.62,15.62,0,0,0-12.88,1.38,6.11,6.11,0,0,0-3.15,3.66c-.67,2.44.43,5.13,1.74,7,4,5.73,10.08,7.51,15.76,8.74-4,.68-8.54,2.56-9.91,7.82A13.62,13.62,0,0,0,415.55,188c3,2.68,6.63,3.36,10.15,4-2.77.6-5.65,1.25-7.95,3.49a10.82,10.82,0,0,0-2.69,10.19,10.1,10.1,0,0,0,2.81,4.25,19.28,19.28,0,0,0,6.39,4.21,4.2,4.2,0,0,1,2.18,1.41,9.06,9.06,0,0,1,1,3.7c.73,5.2,3.24,9.85,6.62,12.25s7.41,2.82,9.59,6.91c-2.65,2.32-2.54,8.76.18,10.9L441.1,254a104.15,104.15,0,0,0,12.41-16,12.66,12.66,0,0,0,2-4.37c.72-3.64-1.07-7.2-2.51-10.39a63.46,63.46,0,0,1-5.19-20.29,24.13,24.13,0,0,0,20.2.38,9.73,9.73,0,0,0,4.54-3.49c3-4.63,1.16-12.69-2.56-16.2s-8.5-3.75-13-3.87a42.69,42.69,0,0,0,16.93,2.75c3-.13,6.21-.67,8.7-3.1a11.42,11.42,0,0,0,2.64-11.09,10.32,10.32,0,0,0-2.6-3.86,15.66,15.66,0,0,0-9.35-4.66c4.2.62,9.43.51,11.37-4.73,1.4-3.82.12-8.71-2.18-11.55s-5.36-4.08-8.33-5.12a114.75,114.75,0,0,0-50.73-5.88Z" fill="#cecece"/>
      <path d="M448,248.89l-3.11.23a22.57,22.57,0,0,1-5.63-.05,9,9,0,0,1-5.19-2.71,2.31,2.31,0,0,1-.68-1.21,2.52,2.52,0,0,1,.87-2.13c2.15-2.08,5-1.85,7.67-1.54" fill="none" stroke="#565656" stroke-miterlimit="10" stroke-width="2" opacity="0.45"/>
      <path d="M439.28,246.42a7,7,0,0,1-3.93-2.73,2.84,2.84,0,0,1-.34-2.49,1.93,1.93,0,0,1,1.07-.91,8.35,8.35,0,0,1,5.16-.51" fill="none" stroke="#565656" stroke-miterlimit="10" stroke-width="2" opacity="0.45"/>
      <path d="M440.61,246.69a.52.52,0,0,0,.21-.39.21.21,0,0,0-.34,0c0,.28.18.56.39.52,0-.49-.47-.84-.8-.63a.69.69,0,0,0,.27.54.8.8,0,0,0,.26-.6" fill="#fff" stroke="#5b5b5b" stroke-miterlimit="10" stroke-width="2" opacity="0.45"/>
      <path d="M457.17,241.87c-.21.4.32,1,.57.6s-.11-1-.45-.87a.78.78,0,0,0,0,1.14.66.66,0,0,0,.16-.85.35.35,0,0,0-.64.1.93.93,0,0,0,.43.67l-.06-.34" fill="#fff" stroke="#5b5b5b" stroke-miterlimit="10" stroke-width="2" opacity="0.45"/>
      <path d="M443.55,241.7c.14,0,.25-.23.23-.42-.24.1-.17.66.07.71s.43-.36.35-.67a.49.49,0,0,0-.61-.38,1.05,1.05,0,0,0-.54.62.43.43,0,0,0,.79.17" fill="#fff" stroke="#5b5b5b" stroke-miterlimit="10" stroke-width="2" opacity="0.45"/>
      <path d="M440.19,238.54a2.08,2.08,0,0,0-.89.88,2.33,2.33,0,0,0-.35,1.43,1.48,1.48,0,0,0,.56,1c1.47,1.23,3.12,1.07,4.71.89a3.73,3.73,0,0,0,2.47-.95,1.85,1.85,0,0,0,.49-.83,3.16,3.16,0,0,0-.22-2,2.17,2.17,0,0,0-1-.94" fill="none" stroke="#565656" stroke-miterlimit="10" stroke-width="2" opacity="0.45"/>
      <path d="M440.89,239a4.35,4.35,0,0,0-2.09.79,1,1,0,0,0-.32.33,1.15,1.15,0,0,0-.13.66,1,1,0,0,0,.29.6,2.87,2.87,0,0,0,1.53.7l1,.25" fill="none" stroke="#565656" stroke-miterlimit="10" stroke-width="2" opacity="0.45"/>
      <path d="M440.85,239.75a1.6,1.6,0,0,0-1.79.27.57.57,0,0,0-.22.45.64.64,0,0,0,.2.49,2.56,2.56,0,0,0,.93.59,12.55,12.55,0,0,0,3.23.92" fill="none" stroke="#565656" stroke-miterlimit="10" stroke-width="2" opacity="0.45"/>
      <path d="M443.59,240c.05,0,0-.21,0-.22,0,.17.08.32.17.29a.64.64,0,0,0,0-.35c0-.08-.15,0-.14.11l.06.16" fill="#fff" stroke="#5b5b5b" stroke-miterlimit="10" stroke-width="2" opacity="0.45"/>
      <path d="M441.31,239l.09.14a.55.55,0,0,0,0-.47c-.07-.1-.19,0-.18.22s.17.21.19,0-.12-.12-.15,0" fill="#fff" stroke="#5b5b5b" stroke-miterlimit="10" stroke-width="2" opacity="0.45"/>
      <path d="M434.27,125a296.76,296.76,0,0,1,35.59,7.3c5.44,1.47,10.95,3.13,15.84,6.7a10.72,10.72,0,0,1,3.71,4.22c.84,1.9.95,4.55-.13,6.2" fill="none" stroke="#565656" stroke-miterlimit="10" stroke-width="2" opacity="0.45"/>
      <path d="M438.05,124.5a339.33,339.33,0,0,1,36.72,8.3c5.74,1.63,11.7,3.57,16.22,8.65a9,9,0,0,1,2,3.22,5.26,5.26,0,0,1-.22,4c-1,1.8-3.09,1.54-4.53,2.7" fill="none" stroke="#565656" stroke-miterlimit="10" stroke-width="2" opacity="0.45"/>
      <path d="M456.31,146.48c10.08,2.35,20.44.79,30.49-1.81a8,8,0,0,0,4-1.93,3.81,3.81,0,0,0,1.15-2.51,5.07,5.07,0,0,0-.83-2.61c-2.25-3.88-5.62-6.53-9.22-7.25" fill="none" stroke="#565656" stroke-miterlimit="10" stroke-width="2" opacity="0.45"/>
      <path d="M448.93,131.2c-7.47-1.86-15.08-2.39-22.67-2.79-6.29-.33-12.72-.53-18.69,2.14a4.14,4.14,0,0,0-2.2,1.81,5.13,5.13,0,0,0-.2,3.59,8.9,8.9,0,0,0,1.62,3c3.25,4.23,7.6,6.47,11.9,8.32a108.38,108.38,0,0,0,12.41,4.48" fill="none" stroke="#565656" stroke-miterlimit="10" stroke-width="2" opacity="0.45"/>
      <path d="M418.78,146.92a63.36,63.36,0,0,0-21.35,1c-1.58.34-3.31.87-4.26,2.61-1.08,2-.75,4.82.24,6.86A13.87,13.87,0,0,0,399,163c9,5.64,18.84,8.25,28.57,10.81" fill="none" stroke="#565656" stroke-miterlimit="10" stroke-width="2" opacity="0.45"/>
      <path d="M438.06,160.61c-8.82.13-17.83.31-26.14,4.33a8.44,8.44,0,0,0-3.14,2.27,5.82,5.82,0,0,0-1.23,4.34,6.59,6.59,0,0,0,2.34,3.84c5.52,5.14,12.21,7.33,18.73,9.43" fill="none" stroke="#565656" stroke-miterlimit="10" stroke-width="2" opacity="0.45"/>
      <path d="M444.08,184.06a54.61,54.61,0,0,0,26.46-.57,19.76,19.76,0,0,0,7.33-3.35,3.62,3.62,0,0,0,1.56-2.52c.11-1.61-1.14-2.71-2.24-3.36a48.17,48.17,0,0,0-13.31-5.55" fill="none" stroke="#565656" stroke-miterlimit="10" stroke-width="2" opacity="0.45"/>
      <path d="M443.92,183.62l17.78.08a28.05,28.05,0,0,0,7.47-.64,11.85,11.85,0,0,0,6.62-4.44,4.68,4.68,0,0,0,1.06-3.24,4,4,0,0,0-2.17-2.84,33.14,33.14,0,0,0-12-4.68" fill="none" stroke="#565656" stroke-miterlimit="10" stroke-width="2" opacity="0.45"/>
      <path d="M457.23,176.74c4.76,1.74,9.8.31,14.61-1.11a16.89,16.89,0,0,0,4.26-1.71,4.63,4.63,0,0,0,2.32-3.44c.2-2.34-1.61-4-3.21-4.91a30.88,30.88,0,0,0-15.89-4.2" fill="none" stroke="#565656" stroke-miterlimit="10" stroke-width="2" opacity="0.45"/>
      <path d="M450,162c9.4,2.53,19.1,2.46,28.61.92a9.74,9.74,0,0,0,4.91-1.82,6.69,6.69,0,0,0,2.28-5.79,8,8,0,0,0-3.3-5,39.48,39.48,0,0,0-20.93-9.17" fill="none" stroke="#565656" stroke-miterlimit="10" stroke-width="2" opacity="0.45"/>
      <path d="M464.68,139.29a58.35,58.35,0,0,1,18.85,9.93c1.66,1.3,3.49,3.15,3.48,5.76a5.89,5.89,0,0,1-1.63,4,10.75,10.75,0,0,1-3.1,2.06" fill="none" stroke="#565656" stroke-miterlimit="10" stroke-width="2" opacity="0.45"/>
      <path d="M470.06,136.91a32.32,32.32,0,0,1,16.06,8.52,6.26,6.26,0,0,1,2.23,3.7,5.16,5.16,0,0,1-1.58,4.3,7.47,7.47,0,0,1-3.53,1.59,50.65,50.65,0,0,1-18,.94" fill="none" stroke="#565656" stroke-miterlimit="10" stroke-width="2" opacity="0.45"/>
      <path d="M434.39,141.54A109.39,109.39,0,0,0,413,139.78a26.94,26.94,0,0,0-10.13,1.68,5.67,5.67,0,0,0-3.56,3.67,7.63,7.63,0,0,0,1.46,6.05,18.68,18.68,0,0,0,5.88,5,81.63,81.63,0,0,0,26.6,10.56" fill="none" stroke="#565656" stroke-miterlimit="10" stroke-width="2" opacity="0.45"/>
      <path d="M423.36,141a41.61,41.61,0,0,0-15.37.38,8.07,8.07,0,0,0-3.16,1.21,5.17,5.17,0,0,0-2,3.35,7.57,7.57,0,0,0,1.11,4.77,17.09,17.09,0,0,0,6.37,6c5.83,3.58,12.05,5.84,18.24,8.09" fill="none" stroke="#565656" stroke-miterlimit="10" stroke-width="2" opacity="0.45"/>
      <path d="M462.21,204.28c-14.72.14-29.25-4.23-43.42-9.63a25.35,25.35,0,0,1-6.61-3.33,6.84,6.84,0,0,1-2.94-5.07,6,6,0,0,1,1.62-4.21,9.34,9.34,0,0,1,3.29-2.08A47.63,47.63,0,0,1,436,176" fill="none" stroke="#565656" stroke-miterlimit="10" stroke-width="2" opacity="0.45"/>
      <path d="M436.52,191.12,427.64,188c-3.66-1.29-7.55-2.76-10.06-6.61a8.08,8.08,0,0,1-1.35-6A6.52,6.52,0,0,1,418.4,172a17.27,17.27,0,0,1,6.87-3.44,46.49,46.49,0,0,1,17.79-1.68" fill="none" stroke="#565656" stroke-miterlimit="10" stroke-width="2" opacity="0.45"/>
      <path d="M439.63,195.46a46.26,46.26,0,0,1-13.9-3.65,22.93,22.93,0,0,1-9.33-6.7c-1.27-1.61-2.39-4-1.79-6.19a5.74,5.74,0,0,1,3.17-3.41,50.42,50.42,0,0,1,10.84-4.42" fill="none" stroke="#565656" stroke-miterlimit="10" stroke-width="2" opacity="0.45"/>
      <path d="M431.61,193.71c-6.81-2.1-13.91-4.39-19.22-10.54a5.53,5.53,0,0,1-1.36-2.39c-.43-2,.77-3.95,2-5.21a16.3,16.3,0,0,1,5.64-3.89" fill="none" stroke="#565656" stroke-miterlimit="10" stroke-width="2" opacity="0.45"/>
      <path d="M451.71,211.26a43.67,43.67,0,0,1-10.43-2.09c-8.13-2.32-16.39-4.7-23.75-9.95a9.93,9.93,0,0,1-2.76-2.66,6.24,6.24,0,0,1-.94-4.26,6.08,6.08,0,0,1,3.63-4.19,30.75,30.75,0,0,1,16.15-3.51" fill="none" stroke="#565656" stroke-miterlimit="10" stroke-width="2" opacity="0.45"/>
      <path d="M454.89,192c7.11.5,14.4,1,21.18-2a7.6,7.6,0,0,0,3.1-2.21,5.5,5.5,0,0,0,1-4.34,6.17,6.17,0,0,0-2.67-3.5" fill="none" stroke="#565656" stroke-miterlimit="10" stroke-width="2" opacity="0.45"/>
      <path d="M470.6,187.3a16.21,16.21,0,0,0,4.67-2.17,5,5,0,0,0,2.43-3.37,5.22,5.22,0,0,0-.74-3.24,9.5,9.5,0,0,0-3.59-3.31,26.12,26.12,0,0,0-7.88-3.09" fill="none" stroke="#565656" stroke-miterlimit="10" stroke-width="2" opacity="0.45"/>
      <path d="M450.82,220.1c4.35,1.27,8.85,1.11,13.28.75,2.42-.19,4.92-.47,7-2a4,4,0,0,0,1.47-1.8,4.82,4.82,0,0,0-.23-3.5,7.23,7.23,0,0,0-2-2.45,23.82,23.82,0,0,0-4.74-3.07,46.89,46.89,0,0,0-13.78-4.59" fill="none" stroke="#565656" stroke-miterlimit="10" stroke-width="2" opacity="0.45"/>
      <path d="M450.14,213.9a30.43,30.43,0,0,0,10.42-.43A7.17,7.17,0,0,0,464,212a5.16,5.16,0,0,0,1.72-4c-.1-2.25-1.69-3.78-3.16-4.84a35.21,35.21,0,0,0-16.72-6.67" fill="none" stroke="#565656" stroke-miterlimit="10" stroke-width="2" opacity="0.45"/>
      <path d="M450.41,216.11a22.6,22.6,0,0,0,10.12.1,7.81,7.81,0,0,0,4.41-2.3,6.32,6.32,0,0,0,1.23-5.81,5.78,5.78,0,0,0-2.27-2.77,22,22,0,0,0-8.12-3.28,62.63,62.63,0,0,0-9.19-1.41" fill="none" stroke="#565656" stroke-miterlimit="10" stroke-width="2" opacity="0.45"/>
      <path d="M448.12,246l-3.11.23a23,23,0,0,1-5.63,0,9,9,0,0,1-5.19-2.72,2.31,2.31,0,0,1-.68-1.2,2.53,2.53,0,0,1,.87-2.14c2.15-2.07,5-1.85,7.67-1.54" fill="none" stroke="#565656" stroke-miterlimit="10" stroke-width="2" opacity="0.45"/>
      <path d="M439.42,243.54a7,7,0,0,1-3.93-2.74,2.84,2.84,0,0,1-.34-2.49,1.87,1.87,0,0,1,1.07-.9,8.28,8.28,0,0,1,5.16-.51" fill="none" stroke="#565656" stroke-miterlimit="10" stroke-width="2" opacity="0.45"/>
      <path d="M456,239.69c-5.1,1.48-10.37,3-15.5,1.63a5.52,5.52,0,0,1-3.08-1.76,3.29,3.29,0,0,1-.55-3.34,2.23,2.23,0,0,1,.71-.75,5.86,5.86,0,0,1,3.12-1.17" fill="none" stroke="#565656" stroke-miterlimit="10" stroke-width="2" opacity="0.45"/>
      <path d="M446.73,222.25a7,7,0,0,0-3.1,2,4.1,4.1,0,0,0-1.18,3.29,3.38,3.38,0,0,0,1.92,2.31c5.1,2.83,10.8,2.47,16.3,2.06,2.92-.21,5.93-.46,8.56-2.2a4.16,4.16,0,0,0,1.69-1.9,5,5,0,0,0-.77-4.6,7,7,0,0,0-3.33-2.17" fill="none" stroke="#565656" stroke-miterlimit="10" stroke-width="2" opacity="0.45"/>
      <path d="M460.63,226.3a7.76,7.76,0,0,0,5.9-2.61,5.57,5.57,0,0,0,1.29-2,3.66,3.66,0,0,0-.05-2.59,3.36,3.36,0,0,0-1.33-1.34,24.37,24.37,0,0,0-2.92-1.58" fill="none" stroke="#565656" stroke-miterlimit="10" stroke-width="2" opacity="0.45"/>
      <path d="M430.4,218.89c11.23,3.69,23,3.65,34.47,2.47,1.93-.2,4.28-.87,4.82-3.39a6.58,6.58,0,0,0-1-4.59c-2.35-3.87-6.17-5.35-9.75-6.63" fill="none" stroke="#565656" stroke-miterlimit="10" stroke-width="2" opacity="0.45"/>
      <path d="M434.53,218.65c9.25,2.27,18.74,4.23,28,2.09,1.8-.41,3.83-1.25,4.56-3.51a7.05,7.05,0,0,0-.79-5.47,13.2,13.2,0,0,0-3.43-3.51" fill="none" stroke="#565656" stroke-miterlimit="10" stroke-width="2" opacity="0.45"/>
      <path d="M477.05,173.41A19.83,19.83,0,0,0,491.88,172c1.61-.82,3.41-2.39,3.31-4.72a5.7,5.7,0,0,0-2.59-4.11c-8.57-6.71-18.42-9.72-28.15-12.09" fill="none" stroke="#565656" stroke-miterlimit="10" stroke-width="2" opacity="0.45"/>
      <path d="M487.92,154.23a18.27,18.27,0,0,0,8.26-1.68,5,5,0,0,0,3.22-3.65,5.23,5.23,0,0,0-.89-3.65A8.83,8.83,0,0,0,496.1,143c-7.81-5.54-16.35-9.32-25.13-10.41" fill="none" stroke="#565656" stroke-miterlimit="10" stroke-width="2" opacity="0.45"/>
      <path d="M445.44,171.16a29.45,29.45,0,0,0-20.07.18c-3.32,1.23-6.73,3.28-8.54,7.26" fill="none" stroke="#565656" stroke-miterlimit="10" stroke-width="2" opacity="0.45"/>
      <path d="M442.53,176.43a42.39,42.39,0,0,0-24.66,1.69" fill="none" stroke="#565656" stroke-miterlimit="10" stroke-width="2" opacity="0.45"/>
      <path d="M449.14,223.3a20.35,20.35,0,0,0-7.21,1.83,3,3,0,0,0-1.13.76,2,2,0,0,0-.45,1.51,2,2,0,0,0,1,1.38,13.13,13.13,0,0,0,5.27,1.62l3.62.55" fill="none" stroke="#565656" stroke-miterlimit="10" stroke-width="2" opacity="0.45"/>
      <path d="M449,225a7.76,7.76,0,0,0-6.18.64,1.26,1.26,0,0,0-.77,1,1.33,1.33,0,0,0,.7,1.14,10.62,10.62,0,0,0,3.22,1.35,62.7,62.7,0,0,0,11.19,2.12" fill="none" stroke="#565656" stroke-miterlimit="10" stroke-width="2" opacity="0.45"/>
      <path d="M452.88,156.6a55.52,55.52,0,0,0,25.1,1.13c2.93-.54,5.95-1.38,8.35-3.72a5.82,5.82,0,0,0,1.91-3.74,6.58,6.58,0,0,0-2-4.77c-2.94-3.16-6.6-4.75-10.21-6.1" fill="none" stroke="#565656" stroke-miterlimit="10" stroke-width="2" opacity="0.45"/>
      <path d="M455.5,152.68c10.49,1.51,21.42,2.94,31.3-2.07" fill="none" stroke="#565656" stroke-miterlimit="10" stroke-width="2" opacity="0.45"/>
      <path d="M459.72,172.23A25.49,25.49,0,0,1,472.06,175" fill="none" stroke="#565656" stroke-miterlimit="10" stroke-width="2" opacity="0.45"/>
      <path d="M465,180.18a14.15,14.15,0,0,0,7.4-.49c2-.59,4.2-1.52,5.45-3.79" fill="none" stroke="#565656" stroke-miterlimit="10" stroke-width="2" opacity="0.45"/>
      <path d="M434.24,125.23c.25.65,1.1.48,1.23-.22s-.52-1.41-1-1.1a1.34,1.34,0,0,0-.12,1.8.46.46,0,0,0,.19.13.49.49,0,0,0,.52-.25,1.49,1.49,0,0,0-.05-1.67.69.69,0,0,0-1.17.36c-.19.63.25,1.42.75,1.35s.8-1,.54-1.53a.68.68,0,0,0-1.26,0,1.25,1.25,0,0,0,.45,1.61.47.47,0,0,0,.5-.1.87.87,0,0,0,.08-1,.43.43,0,0,0-.74,0,.86.86,0,0,0,.09,1,.43.43,0,0,0,.69-.22.58.58,0,0,0-.87-.24c-.11-.7.45-1.41,1-1.23s.74,1.16.4,1.71a.72.72,0,0,1-1.31-.25" fill="#fff" stroke="#5b5b5b" stroke-miterlimit="10" stroke-width="2" opacity="0.45"/>
      <path d="M438.67,124.11a.6.6,0,0,0,.37.36c0-.21-.06-.47-.21-.46s-.19.4,0,.39a.4.4,0,0,0,.12-.46" fill="#fff" stroke="#5b5b5b" stroke-miterlimit="10" stroke-width="2" opacity="0.45"/>
      <path d="M435.82,141.23l.17-.48c-.39,0-.77.49-.68,1s.65.76.91.37,0-1.17-.4-1.08-.42,1,0,1.12.59-.52.4-.86-.7-.15-.72.29a.35.35,0,0,0,.62,0" fill="#fff" stroke="#5b5b5b" stroke-miterlimit="10" stroke-width="2" opacity="0.45"/>
      <path d="M427.66,144.53a43.88,43.88,0,0,0-19.71.36,6.17,6.17,0,0,0-2.88,1.33,4.25,4.25,0,0,0-1.29,3.53,5.07,5.07,0,0,0,1.88,3.05c3.95,3.54,8.62,5.25,13.19,6.91" fill="none" stroke="#5b5b5b" stroke-miterlimit="10" stroke-width="2" opacity="0.45"/>
      <path d="M428.69,144.59l.24-.6a.42.42,0,0,0-.68.15c-.14.3,0,.76.22.85s.52-.32.41-.64a.51.51,0,0,0-.15-.22c-.33-.3-.87.12-.82.66s.7.72.88.24-.34-1.09-.65-.74a.8.8,0,0,0,.18,1.06c.3.16.66-.1.78-.5a1.72,1.72,0,0,0-.12-1.24" fill="#fff" stroke="#5b5b5b" stroke-miterlimit="10" stroke-width="2" opacity="0.45"/>
      <path d="M425.24,140.51a1.83,1.83,0,0,0-.44-.77,1.22,1.22,0,0,0,0,1.16" fill="#fff" stroke="#5b5b5b" stroke-miterlimit="10" stroke-width="2" opacity="0.45"/>
      <path d="M439.17,153.51a.35.35,0,0,0-.47-.23.41.41,0,0,0,.51.3" fill="#fff" stroke="#5b5b5b" stroke-miterlimit="10" stroke-width="2" opacity="0.45"/>
      <path d="M439.45,160.45a.56.56,0,0,0-.12.52c.27,0,.25-.7,0-.68" fill="#fff" stroke="#5b5b5b" stroke-miterlimit="10" stroke-width="2" opacity="0.45"/>
      <path d="M433.94,166.13l-.25-.31c-.07.33.27.65.47.44s-.24-.19-.22,0a.26.26,0,0,0,.38.19.88.88,0,0,0-.13-.68" fill="#fff" stroke="#5b5b5b" stroke-miterlimit="10" stroke-width="2" opacity="0.45"/>
      <path d="M433.81,165.93c0-.25-.29-.36-.37-.14s.2.46.32.28-.38-.1-.31.14.39.14.43-.11a.5.5,0,0,0-.32-.55c.05.2.18.42.33.36s0-.47-.07-.3" fill="#fff" stroke="#5b5b5b" stroke-miterlimit="10" stroke-width="2" opacity="0.45"/>
      <path d="M430.12,164.54c-.14-.28-.5-.53-.58-.21a.45.45,0,0,0,.21.45,1.35,1.35,0,0,0,.64.3c0-.36-.32-.65-.57-.54a.26.26,0,0,0,.32-.18" fill="#fff" stroke="#5b5b5b" stroke-miterlimit="10" stroke-width="2" opacity="0.45"/>
      <path d="M444.17,166.67a.35.35,0,0,0,.13.36c.22.06.32-.46.13-.62s-.45.05-.53.34l.26.13" fill="#fff" stroke="#5b5b5b" stroke-miterlimit="10" stroke-width="2" opacity="0.45"/>
      <path d="M446.67,171.12a.81.81,0,0,0,.51.18c.05-.23-.08-.5-.25-.53" fill="#fff" stroke="#5b5b5b" stroke-miterlimit="10" stroke-width="2" opacity="0.45"/>
      <path d="M444,175.87c.13.27-.07.72-.29.61s0-.69.16-.5,0,.23-.08.19-.05-.22,0-.22" fill="#fff" stroke="#5b5b5b" stroke-miterlimit="10" stroke-width="2" opacity="0.45"/>
      <path d="M429.67,185c0,.25.27.39.36.18.25-.31,0-1-.35-.9s-.45.76-.21,1.07.7.17.86-.23a1.2,1.2,0,0,0-.25-1.2.56.56,0,0,0-.83,0,1,1,0,0,0-.09,1.08.42.42,0,0,0,.76-.1" fill="#fff" stroke="#5b5b5b" stroke-miterlimit="10" stroke-width="2" opacity="0.45"/>
      <path d="M436.73,190.67a.57.57,0,0,0,1,0c.06-.33-.31-.59-.51-.37a.75.75,0,0,0,0,.9.55.55,0,0,0,.72,0,1.83,1.83,0,0,0-.23-.76c-.14-.2-.4-.28-.55-.08s0,.68.2.72.45-.29.41-.61a.55.55,0,0,0-.52-.52c-.47,0-.63,1.12-.2,1.4s1-.54.69-1.08" fill="#fff" stroke="#5b5b5b" stroke-miterlimit="10" stroke-width="2" opacity="0.45"/>
      <path d="M434.62,184.28c.07.16.29,0,.24-.16" fill="#fff" stroke="#5b5b5b" stroke-miterlimit="10" stroke-width="2" opacity="0.45"/>
      <path d="M441,195.86c.37.26.89-.1,1-.66-.13-.64-.74-1-1.17-.72a1.25,1.25,0,0,0-.09,1.67c.42.37,1.08-.17,1-.83s-.89-.85-1.1-.24.51,1.3.85.82a.67.67,0,0,0,.11-.27c0-.31-.24-.59-.46-.47a.62.62,0,0,0-.12.79.36.36,0,0,0,.62,0,.75.75,0,0,0-.29-.63c-.18-.08-.43.12-.4.38a.2.2,0,1,0,.39,0" fill="#fff" stroke="#5b5b5b" stroke-miterlimit="10" stroke-width="2" opacity="0.45"/>
      <path d="M444.31,183.74a.42.42,0,0,0,.58,0c.13-.32-.07-.76-.33-.79s-.51.3-.5.66.46.81.76.58a.91.91,0,0,0,0-1.19c-.27-.24-.7,0-.78.42s.22.91.55.86.56-.58.42-1a1.09,1.09,0,0,0-1.11.67.51.51,0,0,0,.66.31.84.84,0,0,0,.37-.79.58.58,0,0,0-.69.11c.17.37.69.08.62-.34" fill="#fff" stroke="#5b5b5b" stroke-miterlimit="10" stroke-width="2" opacity="0.45"/>
      <path d="M457.66,176.66c.12.4.66.23.69-.2s-.35-.79-.66-.68a.85.85,0,0,0-.45.89c.05.38.39.66.66.51a.74.74,0,0,0,.12-1,.64.64,0,0,0-.61-.12c-.23,0-.54.23-.47.53a.55.55,0,0,0,.15.24c.22.25.51.51.78.37a.7.7,0,0,0,.14-.94c-.2-.26-.6-.13-.68.24s.17.79.45.74a.87.87,0,0,0,.2-1" fill="#fff" stroke="#5b5b5b" stroke-miterlimit="10" stroke-width="2" opacity="0.45"/>
      <path d="M450.72,162a.13.13,0,0,0-.26,0,.2.2,0,0,0,.36.09.38.38,0,0,0,0-.46c-.1-.11-.28,0-.32.13a.21.21,0,0,0,.34-.06c0-.23-.35-.07-.26.13" fill="#fff" stroke="#5b5b5b" stroke-miterlimit="10" stroke-width="2" opacity="0.45"/>
      <path d="M460.19,142a1.11,1.11,0,0,0,.39-1.25c-.16-.46-.66-.63-.95-.3a1,1,0,0,0,.12,1.28c.35.21.8-.23.78-.74s-.49-.89-.84-.67a1.08,1.08,0,0,0-.23,1.31.59.59,0,0,0,1,.06,1.25,1.25,0,0,0-.06-1.42.62.62,0,0,0-1,.26,1,1,0,0,0,.23,1.16c.3.18.71-.25.62-.68a.37.37,0,0,0-.73-.07c-.13.39.23.88.51.71,0-.25-.32-.34-.4-.11" fill="#fff" stroke="#5b5b5b" stroke-miterlimit="10" stroke-width="2" opacity="0.45"/>
      <path d="M463.41,141.27c.17-.48-.19-1.11-.59-1.07s-.67.68-.56,1.19.52.81.86.65a1,1,0,0,0,.28-1.22.47.47,0,0,0-.87.23c-.09.48.41.94.69.63a.73.73,0,0,0-.09-1c-.26-.15-.6.16-.58.54s.36.65.61.47a.52.52,0,0,0-.84-.22c0,.3.34.47.49.24" fill="#fff" stroke="#5b5b5b" stroke-miterlimit="10" stroke-width="2" opacity="0.45"/>
      <path d="M465.73,138.84c-.25-.32-.74.11-.64.56a.4.4,0,0,0,.79,0c.13-.43-.25-.94-.57-.79,0,.3.16.61.38.59,0-.29-.32-.47-.49-.29l.1.48" fill="#fff" stroke="#5b5b5b" stroke-miterlimit="10" stroke-width="2" opacity="0.45"/>
      <path d="M470.39,137.51c.29,0,.56-.3.59-.69a1,1,0,0,0-.43-.92.63.63,0,0,0-.75.12,1.33,1.33,0,0,0-.15,1.47.61.61,0,0,0,1.07,0,1.13,1.13,0,0,0-.23-1.4c-.38-.22-.87.21-.87.77s.32.82.63.73a.71.71,0,0,0,.22-1c-.23-.29-.7.07-.61.48s.44.51.68.33c0-.39-.41-.68-.62-.4s.16.85.36.57a.42.42,0,0,0-.62-.25.5.5,0,0,0,.75-.06" fill="#fff" stroke="#5b5b5b" stroke-miterlimit="10" stroke-width="2" opacity="0.45"/>
      <path d="M471.46,187l.4.34c.32-.35-.06-1.22-.45-1s-.2,1.19.21,1.14c0-.34,0-.76-.28-.86s-.5.42-.28.58.44-.19.39-.46-.37-.38-.5-.16.2.88.51.72c0-.21-.09-.43-.24-.43s-.29.2-.27.4.36-.09.23-.25" fill="#fff" stroke="#5b5b5b" stroke-miterlimit="10" stroke-width="2" opacity="0.45"/>
      <path d="M465.7,180c.07-.44-.51-.69-.66-.28s.3.89.57.63.15-1-.18-1-.63.45-.52.88.36.5.58.37a.6.6,0,0,0,.11-.79c-.19-.21-.53,0-.48.36s.55.52.69.15-.12-.47-.29-.49-.34.17-.35.4a.37.37,0,0,0,.39.31.58.58,0,0,0,.15-.66.44.44,0,0,0-.56.14" fill="#fff" stroke="#5b5b5b" stroke-miterlimit="10" stroke-width="2" opacity="0.45"/>
      <path d="M463.43,167.73c.05-.18-.24-.12-.21.06a.35.35,0,0,0,.34.27c.18-.13.1-.59-.1-.6a.66.66,0,0,0-.15.48c0,.17.29.15.26,0" fill="#fff" stroke="#5b5b5b" stroke-miterlimit="10" stroke-width="2" opacity="0.45"/>
      <path d="M453.23,211.55l.3.29a1,1,0,0,0,0-.92.36.36,0,0,0-.64,0c-.17.33.11.87.4.77s.36-.73.11-1-.64.07-.64.47l.19.52a.29.29,0,0,0,.29-.21c0-.3-.27-.54-.47-.41a.57.57,0,0,0,0,.76c.18.17.48,0,.51-.32s-.49-.52-.6-.16" fill="#fff" stroke="#5b5b5b" stroke-miterlimit="10" stroke-width="2" opacity="0.45"/>
      <path d="M446.16,195.93c-.13,0,0,.33.11.26s.13-.29.12-.47-.35.1-.37.33.49.14.47-.17-.25-.29-.36-.13,0,.45.14.47" fill="#fff" stroke="#5b5b5b" stroke-miterlimit="10" stroke-width="2" opacity="0.45"/>
      <path d="M455.22,191.72c.1,0,.06-.29,0-.21-.2-.14-.47.15-.43.44s.32.47.52.33a.72.72,0,0,0,.13-.79.41.41,0,0,0-.78.07c-.13.38.14.9.45.86a.63.63,0,0,0,.39-.3c.07-.43-.23-.89-.55-.84s-.52.64-.34,1a.42.42,0,0,0,.79-.07c.14-.39-.16-.92-.47-.84,0,.21.12.45.27.39" fill="#fff" stroke="#5b5b5b" stroke-miterlimit="10" stroke-width="2" opacity="0.45"/>
      <path d="M431.26,218.62c.17-.32-.16-.82-.43-.66a.71.71,0,0,0,0,1c.24.21.61,0,.72-.35a.5.5,0,0,0-1,.08c.2.47.84.29.9-.25a.25.25,0,0,0-.45.08c-.08.21,0,.51.22.53" fill="#fff" stroke="#5b5b5b" stroke-miterlimit="10" stroke-width="2" opacity="0.45"/>
      <path d="M435.23,218a.44.44,0,0,0-.85-.13c0,.34.27.63.53.62s.48-.32.49-.66a.88.88,0,0,0-.76.39c0,.19.14.39.29.39s.25-.31.12-.41-.24.44-.05.45a.32.32,0,0,0,0-.43c-.1-.11-.27,0-.3.14" fill="#fff" stroke="#5b5b5b" stroke-miterlimit="10" stroke-width="2" opacity="0.45"/>
      <path d="M450.75,216.17c-.05.18.2.3.26.13s-.11-.38-.24-.3a.39.39,0,0,0-.06.48" fill="#fff" stroke="#5b5b5b" stroke-miterlimit="10" stroke-width="2" opacity="0.45"/>
      <path d="M450.77,213.85c.11-.08-.15-.24-.16-.07a.25.25,0,0,0,.26.27c.13,0,.26-.08.38,0a.34.34,0,0,0-.68,0" fill="#fff" stroke="#5b5b5b" stroke-miterlimit="10" stroke-width="2" opacity="0.45"/>
      <path d="M458.51,225.64c.16-.09.12-.49-.05-.52,0,.4.29.75.58.67a1,1,0,0,0-.14-.81.3.3,0,0,0-.49.26l.23.37" fill="#fff" stroke="#5b5b5b" stroke-miterlimit="10" stroke-width="2" opacity="0.45"/>
      <path d="M450.62,223.34l.29.32a.91.91,0,0,0-.05-1.09c-.26-.22-.68.1-.64.52s.59.48.66.07a.27.27,0,0,0-.52,0" fill="#fff" stroke="#5b5b5b" stroke-miterlimit="10" stroke-width="2" opacity="0.45"/>
      <path d="M440.75,243.8a.49.49,0,0,0,.21-.39.22.22,0,0,0-.34,0c0,.29.18.56.39.52,0-.48-.47-.83-.8-.63a.69.69,0,0,0,.27.54.8.8,0,0,0,.26-.6" fill="#fff" stroke="#5b5b5b" stroke-miterlimit="10" stroke-width="2" opacity="0.45"/>
      <path d="M457.31,239c-.21.4.32.95.57.6s-.11-1.05-.45-.88a.78.78,0,0,0,0,1.15.67.67,0,0,0,.16-.86.36.36,0,0,0-.64.1.9.9,0,0,0,.43.68l-.06-.35" fill="#fff" stroke="#5b5b5b" stroke-miterlimit="10" stroke-width="2" opacity="0.45"/>
      <path d="M443.68,238.82a.37.37,0,0,0,.23-.42c-.23.09-.17.66.07.7s.44-.36.36-.67a.5.5,0,0,0-.61-.37,1,1,0,0,0-.54.62.43.43,0,0,0,.78.16" fill="#fff" stroke="#5b5b5b" stroke-miterlimit="10" stroke-width="2" opacity="0.45"/>
      <path d="M456.11,152.61a.33.33,0,0,0-.45-.16.4.4,0,0,0,.79.1.3.3,0,0,0-.38-.11c0,.27.25.47.44.37a.49.49,0,0,0,.1-.66c-.15-.18-.44,0-.43.27" fill="#fff" stroke="#5b5b5b" stroke-miterlimit="10" stroke-width="2" opacity="0.45"/>
      <path d="M449.41,214.56l-.13.36" fill="#fff" stroke="#5b5b5b" stroke-miterlimit="10" stroke-width="2" opacity="0.45"/>
      <path d="M460.44,206.2v-.35" fill="#fff" stroke="#5b5b5b" stroke-miterlimit="10" stroke-width="2" opacity="0.45"/>
      <path d="M459.86,206.22c0,.3.31.52.47.3a.41.41,0,0,0-.66.09c0,.26.2.5.39.48a.38.38,0,0,0,.13-.57" fill="#fff" stroke="#5b5b5b" stroke-miterlimit="10" stroke-width="2" opacity="0.45"/>
      <path d="M435.17,184.12a.28.28,0,0,0-.54,0c-.1.28.08.65.31.68s.44-.25.48-.56a.46.46,0,0,0-.78,0c-.05.26.26.46.39.26s0-.58-.2-.59-.37.28-.33.54" fill="#fff" stroke="#5b5b5b" stroke-miterlimit="10" stroke-width="2" opacity="0.45"/>
      <path d="M432.92,194.81a7,7,0,0,0-4,.39,2.12,2.12,0,0,0-1.29,1.14c-.57,1.3,0,3.12.74,4.2a13.11,13.11,0,0,0,5.34,4.27c-2.33-1.45-4.89-2.91-7.25-1.62a1.88,1.88,0,0,0-1,1.11,3.74,3.74,0,0,0,.88,3.15,12.63,12.63,0,0,0,4.49,3.7,4,4,0,0,0-2.46,4,6.24,6.24,0,0,0,1.95,4.14,29,29,0,0,0,3.37,3.06c-.59,0-2.47-2.11-3-1.85a6.2,6.2,0,0,0-1.45,1.52,5.62,5.62,0,0,0,1,4.44,9,9,0,0,0,4.79,3c.31.06.73.5,1,.68s1.4.44,1.68.76c1.13,1.31,2.25,1,3.63,1a5.5,5.5,0,0,0,.37,1.61l-1.8,1.16a2.94,2.94,0,0,0-1.54,2.19,4.39,4.39,0,0,0,1,2.94c-.39.78.34-1.85,2.07-5.09,3-5.55-.89,1.2-.48,1.4,1.09.55,0,6.2.55,4.58a2.36,2.36,0,0,1,.35-.73.78.78,0,0,1,.67-.21c.73,0,1.57.15,2.07-.73a5.19,5.19,0,0,0,.46-1.85l.34-2.62c.09-.64,1.7-2.08,1.61-2.72-.15-1.06.08-1.77-.46-2.39-.87-1-1.32-1.82-2.37-2a5.9,5.9,0,0,1-1.95-1c-.47-.44,0,0-.47-.44-.85-.68-1.19-1.26-1-2.07.08-.28-.75-1.71-.58-1.83a.46.46,0,0,1,.44,0c.87.29.52,1.38,2.11,1.48a6.73,6.73,0,0,0,2-.55,3.35,3.35,0,0,1,1.8-.69c1.14-.27,1.72-1.85,1.9-2.67s-1-2.74-1.68-3.72c-1-1.44-.79-.75-1.27-1-.91-.51-2.37-.53-3.28-1a45,45,0,0,0,7,.45,2.28,2.28,0,0,0,1.64-.47,2.59,2.59,0,0,0,.7-2.28,2.87,2.87,0,0,0-.66-1.29c-2-2.49-4.51-3.88-7-3.89a10.39,10.39,0,0,0,7.58-.16,1.86,1.86,0,0,0,1.16-1.07,4.06,4.06,0,0,0-.61-3.26c-1.79-2.93-4.35-4.15-6.78-5.25a18.38,18.38,0,0,0-6.51-2c-2.82-.14-5.7,1.14-8.44,0Z" fill="#cecece"/>
      <path d="M430.53,191.79a173.78,173.78,0,0,1,19.1,3.54,26.27,26.27,0,0,1,8.51,3.24,5.42,5.42,0,0,1,2,2,3.1,3.1,0,0,1-.07,3" fill="none" stroke="#565656" stroke-miterlimit="10" stroke-width="2" opacity="0.45"/>
      <path d="M432.56,191.54a200.06,200.06,0,0,1,19.71,4c3.08.79,6.28,1.73,8.71,4.19A4.2,4.2,0,0,1,462,201.3a2.3,2.3,0,0,1-.12,1.94c-.55.87-1.66.75-2.43,1.31" fill="none" stroke="#565656" stroke-miterlimit="10" stroke-width="2" opacity="0.45"/>
      <path d="M443.1,202.65c2.91,1,5.9.34,8.8-.79a2,2,0,0,0,1.49-1.93,3.3,3.3,0,0,0-.24-1.14,5,5,0,0,0-2.67-3.16" fill="none" stroke="#565656" stroke-miterlimit="10" stroke-width="2" opacity="0.45"/>
      <path d="M441,196a23.28,23.28,0,0,0-6.55-1.21c-1.81-.15-3.67-.24-5.4.93a1.49,1.49,0,0,0-.63.79,3.39,3.39,0,0,0-.06,1.56,5,5,0,0,0,.47,1.31,9.12,9.12,0,0,0,3.44,3.63,26.72,26.72,0,0,0,3.58,1.95" fill="none" stroke="#565656" stroke-miterlimit="10" stroke-width="2" opacity="0.45"/>
      <path d="M432.25,202.84a12.2,12.2,0,0,0-6.16.42,1.72,1.72,0,0,0-1.24,1.13,5.17,5.17,0,0,0,.07,3,5.58,5.58,0,0,0,1.62,2.45c2.6,2.46,5.44,3.59,8.25,4.71" fill="none" stroke="#565656" stroke-miterlimit="10" stroke-width="2" opacity="0.45"/>
      <path d="M437.82,208.8c-2.54.06-5.15.14-7.55,1.89a2.85,2.85,0,0,0-.91,1,3.51,3.51,0,0,0-.35,1.89,3.32,3.32,0,0,0,.67,1.67,12.75,12.75,0,0,0,5.42,4.11" fill="none" stroke="#565656" stroke-miterlimit="10" stroke-width="2" opacity="0.45"/>
      <path d="M439.56,219a10.64,10.64,0,0,0,7.65-.24,5.08,5.08,0,0,0,2.11-1.46,1.76,1.76,0,0,0-.19-2.56,11.84,11.84,0,0,0-3.85-2.42" fill="none" stroke="#565656" stroke-miterlimit="10" stroke-width="2" opacity="0.45"/>
      <path d="M439.52,218.82l5.13,0a5.53,5.53,0,0,0,2.16-.28,3.65,3.65,0,0,0,1.91-1.93,2.78,2.78,0,0,0,.31-1.42,1.8,1.8,0,0,0-.63-1.23,8,8,0,0,0-3.45-2" fill="none" stroke="#565656" stroke-miterlimit="10" stroke-width="2" opacity="0.45"/>
      <path d="M443.36,215.83c1.38.76,2.83.14,4.22-.49a3.88,3.88,0,0,0,1.23-.74,2.2,2.2,0,0,0,.67-1.5,2.61,2.61,0,0,0-.92-2.14,6.81,6.81,0,0,0-4.59-1.83" fill="none" stroke="#565656" stroke-miterlimit="10" stroke-width="2" opacity="0.45"/>
      <path d="M441.26,209.41a13.25,13.25,0,0,0,8.27.4A2.36,2.36,0,0,0,451,209a3.83,3.83,0,0,0,.66-2.52,3.88,3.88,0,0,0-1-2.2,10.05,10.05,0,0,0-6-4" fill="none" stroke="#565656" stroke-miterlimit="10" stroke-width="2" opacity="0.45"/>
      <path d="M445.51,199.51a16.29,16.29,0,0,1,5.45,4.33,3.8,3.8,0,0,1,1,2.51A3,3,0,0,1,450.6,209" fill="none" stroke="#565656" stroke-miterlimit="10" stroke-width="2" opacity="0.45"/>
      <path d="M447.07,198.48a9,9,0,0,1,4.64,3.71,3.25,3.25,0,0,1,.64,1.61,2.9,2.9,0,0,1-.45,1.87,2,2,0,0,1-1,.7,10,10,0,0,1-5.21.41" fill="none" stroke="#565656" stroke-miterlimit="10" stroke-width="2" opacity="0.45"/>
      <path d="M436.76,200.5a21.09,21.09,0,0,0-6.18-.77,5.48,5.48,0,0,0-2.93.73,2.24,2.24,0,0,0-1,1.6,4.7,4.7,0,0,0,.42,2.64,6.84,6.84,0,0,0,1.7,2.18,19.88,19.88,0,0,0,7.69,4.6" fill="none" stroke="#565656" stroke-miterlimit="10" stroke-width="2" opacity="0.45"/>
      <path d="M433.58,200.24a8.08,8.08,0,0,0-4.44.17,1.89,1.89,0,0,0-.92.53,2.59,2.59,0,0,0-.59,1.45,4.82,4.82,0,0,0,.32,2.08,6.81,6.81,0,0,0,1.84,2.62,25.63,25.63,0,0,0,5.27,3.52" fill="none" stroke="#565656" stroke-miterlimit="10" stroke-width="2" opacity="0.45"/>
      <path d="M444.8,227.82c-4.25.06-8.45-1.84-12.54-4.19a6.86,6.86,0,0,1-1.91-1.45,3.45,3.45,0,0,1-.85-2.21,3.41,3.41,0,0,1,.47-1.84,2.84,2.84,0,0,1,.94-.9,9.89,9.89,0,0,1,6.31-1.71" fill="none" stroke="#565656" stroke-miterlimit="10" stroke-width="2" opacity="0.45"/>
      <path d="M437.38,222.09l-2.57-1.37a5.54,5.54,0,0,1-2.9-2.87,5,5,0,0,1-.39-2.61,3.27,3.27,0,0,1,.62-1.47,4.79,4.79,0,0,1,2-1.5,9.21,9.21,0,0,1,5.14-.73" fill="none" stroke="#565656" stroke-miterlimit="10" stroke-width="2" opacity="0.45"/>
      <path d="M438.28,224a10,10,0,0,1-4-1.59,7.44,7.44,0,0,1-2.69-2.91,4.47,4.47,0,0,1-.52-2.7,2.38,2.38,0,0,1,.91-1.49,12.64,12.64,0,0,1,3.14-1.92" fill="none" stroke="#565656" stroke-miterlimit="10" stroke-width="2" opacity="0.45"/>
      <path d="M436,223.22a10.76,10.76,0,0,1-5.55-4.59,2.72,2.72,0,0,1-.39-1,3.45,3.45,0,0,1,.57-2.27,5.34,5.34,0,0,1,1.63-1.7" fill="none" stroke="#565656" stroke-miterlimit="10" stroke-width="2" opacity="0.45"/>
      <path d="M441.77,230.86a9,9,0,0,1-3-.91,18.47,18.47,0,0,1-6.86-4.33,3.69,3.69,0,0,1-.79-1.16,3.83,3.83,0,0,1-.28-1.85,2.59,2.59,0,0,1,1.05-1.83,6.52,6.52,0,0,1,4.67-1.53" fill="none" stroke="#565656" stroke-miterlimit="10" stroke-width="2" opacity="0.45"/>
      <path d="M442.68,222.46c2.06.22,4.17.42,6.12-.88a2.41,2.41,0,0,0,.9-1,3.31,3.31,0,0,0,.3-1.89,2.74,2.74,0,0,0-.77-1.52" fill="none" stroke="#565656" stroke-miterlimit="10" stroke-width="2" opacity="0.45"/>
      <path d="M447.23,220.43a4.3,4.3,0,0,0,1.34-1,2.3,2.3,0,0,0,.71-1.47,3.33,3.33,0,0,0-.22-1.4,3.6,3.6,0,0,0-1-1.45,6.24,6.24,0,0,0-2.27-1.34" fill="none" stroke="#565656" stroke-miterlimit="10" stroke-width="2" opacity="0.45"/>
      <path d="M441.51,234.71a7,7,0,0,0,3.84.33,2.9,2.9,0,0,0,2-.89,1.66,1.66,0,0,0,.43-.78,3,3,0,0,0-.07-1.52,3.32,3.32,0,0,0-.57-1.08,7.76,7.76,0,0,0-1.37-1.33,10.82,10.82,0,0,0-4-2" fill="none" stroke="#565656" stroke-miterlimit="10" stroke-width="2" opacity="0.45"/>
      <path d="M441.31,232a5.92,5.92,0,0,0,3-.18,1.81,1.81,0,0,0,1-.64,2.89,2.89,0,0,0,.5-1.75,3.19,3.19,0,0,0-.91-2.11,8.62,8.62,0,0,0-4.83-2.9" fill="none" stroke="#565656" stroke-miterlimit="10" stroke-width="2" opacity="0.45"/>
      <path d="M441.39,233a4.43,4.43,0,0,0,2.92,0,2.11,2.11,0,0,0,1.28-1,3.93,3.93,0,0,0,.36-2.53,2.62,2.62,0,0,0-.66-1.21,5.46,5.46,0,0,0-2.35-1.43,12.4,12.4,0,0,0-2.65-.61" fill="none" stroke="#565656" stroke-miterlimit="10" stroke-width="2" opacity="0.45"/>
      <path d="M440.33,235.65a2.15,2.15,0,0,0-.9.88,2.43,2.43,0,0,0-.34,1.44,1.46,1.46,0,0,0,.56,1c1.47,1.23,3.12,1.07,4.71.9a3.75,3.75,0,0,0,2.47-1,1.83,1.83,0,0,0,.49-.83,3.14,3.14,0,0,0-.22-2,2.2,2.2,0,0,0-1-1" fill="none" stroke="#565656" stroke-miterlimit="10" stroke-width="2" opacity="0.45"/>
      <path d="M444.34,237.41a2,2,0,0,0,1.71-1.13,2.74,2.74,0,0,0,.37-.88,2.39,2.39,0,0,0,0-1.13,1.29,1.29,0,0,0-.39-.58,5.3,5.3,0,0,0-.84-.69" fill="none" stroke="#565656" stroke-miterlimit="10" stroke-width="2" opacity="0.45"/>
      <path d="M435.61,234.19a16.2,16.2,0,0,0,10,1.07,1.53,1.53,0,0,0,1.39-1.47,4,4,0,0,0-.3-2,5.34,5.34,0,0,0-2.82-2.89" fill="none" stroke="#565656" stroke-miterlimit="10" stroke-width="2" opacity="0.45"/>
      <path d="M436.8,234.08c2.67,1,5.42,1.84,8.09.91a1.89,1.89,0,0,0,1.32-1.53,4.42,4.42,0,0,0-.23-2.38,5.32,5.32,0,0,0-1-1.53" fill="none" stroke="#565656" stroke-miterlimit="10" stroke-width="2" opacity="0.45"/>
      <path d="M449.09,214.38a4,4,0,0,0,4.28-.63,2.43,2.43,0,0,0,1-2.05,2.83,2.83,0,0,0-.75-1.79,18.08,18.08,0,0,0-8.13-5.27" fill="none" stroke="#565656" stroke-miterlimit="10" stroke-width="2" opacity="0.45"/>
      <path d="M458.72,194.29a10.78,10.78,0,0,0,4.43-.81,2.55,2.55,0,0,0,1.73-1.77,2.33,2.33,0,0,0-.48-1.76,4.31,4.31,0,0,0-1.29-1.09,31.88,31.88,0,0,0-13.49-5" fill="none" stroke="#565656" stroke-miterlimit="10" stroke-width="2" opacity="0.45"/>
      <path d="M440,213.4a5.84,5.84,0,0,0-5.79.08,5.07,5.07,0,0,0-2.47,3.16" fill="none" stroke="#565656" stroke-miterlimit="10" stroke-width="2" opacity="0.45"/>
      <path d="M439.11,215.69a8.4,8.4,0,0,0-7.12.74" fill="none" stroke="#565656" stroke-miterlimit="10" stroke-width="2" opacity="0.45"/>
      <path d="M441,236.11a4.35,4.35,0,0,0-2.09.79,1,1,0,0,0-.32.34,1,1,0,0,0-.13.65.93.93,0,0,0,.29.61,3,3,0,0,0,1.53.7l1,.24" fill="none" stroke="#565656" stroke-miterlimit="10" stroke-width="2" opacity="0.45"/>
      <path d="M441,236.86a1.59,1.59,0,0,0-1.78.28.55.55,0,0,0-.22.44.66.66,0,0,0,.2.5,2.7,2.7,0,0,0,.93.59,13.27,13.27,0,0,0,3.23.92" fill="none" stroke="#565656" stroke-miterlimit="10" stroke-width="2" opacity="0.45"/>
      <path d="M437.75,205.84a12.35,12.35,0,0,1-7.43-4" fill="none" stroke="#565656" stroke-miterlimit="10" stroke-width="2" opacity="0.45"/>
      <path d="M442.1,207.06a11,11,0,0,0,7.26.49,4,4,0,0,0,2.41-1.62,3.15,3.15,0,0,0,.55-1.63,3.68,3.68,0,0,0-.59-2.08,7.46,7.46,0,0,0-3-2.66" fill="none" stroke="#565656" stroke-miterlimit="10" stroke-width="2" opacity="0.45"/>
      <path d="M442.86,205.35c3,.65,6.19,1.28,9.05-.9" fill="none" stroke="#565656" stroke-miterlimit="10" stroke-width="2" opacity="0.45"/>
      <path d="M444.08,213.86a5.41,5.41,0,0,1,3.56,1.21" fill="none" stroke="#565656" stroke-miterlimit="10" stroke-width="2" opacity="0.45"/>
      <path d="M445.6,217.32a2.71,2.71,0,0,0,2.13-.21,2.66,2.66,0,0,0,1.58-1.65" fill="none" stroke="#565656" stroke-miterlimit="10" stroke-width="2" opacity="0.45"/>
      <path d="M430.51,191.89a.35.35,0,0,0,.67-.11c.07-.34-.28-.67-.54-.53a.61.61,0,0,0-.07.88.6.6,0,0,0,.11.06.26.26,0,0,0,.27-.12.66.66,0,0,0,0-.81.39.39,0,0,0-.63.17c-.1.31.14.69.4.65s.43-.46.29-.74a.39.39,0,0,0-.68,0,.58.58,0,0,0,.25.78.27.27,0,0,0,.27-.05.39.39,0,0,0,0-.48.24.24,0,0,0-.4,0,.39.39,0,0,0,0,.47.24.24,0,0,0,.37-.11.34.34,0,0,0-.47-.12c-.05-.33.24-.68.52-.59a.58.58,0,0,1,.21.82.39.39,0,0,1-.7-.12" fill="#fff" stroke="#5b5b5b" stroke-miterlimit="10" stroke-width="2" opacity="0.45"/>
      <path d="M437.18,200.36l.05-.21c-.12,0-.23.22-.2.44s.19.33.26.16,0-.51-.11-.47-.12.45,0,.49.17-.22.11-.38-.2-.06-.21.13.14.11.18,0" fill="#fff" stroke="#5b5b5b" stroke-miterlimit="10" stroke-width="2" opacity="0.45"/>
      <path d="M434.82,201.8a8.52,8.52,0,0,0-5.7.16,1.59,1.59,0,0,0-.83.58,2.47,2.47,0,0,0-.37,1.53,2.54,2.54,0,0,0,.54,1.33,10.46,10.46,0,0,0,3.82,3" fill="none" stroke="#5b5b5b" stroke-miterlimit="10" stroke-width="2" opacity="0.45"/>
      <path d="M435.12,201.82l.07-.26c-.06-.08-.16-.06-.2.07s0,.33.06.37.15-.14.12-.28a.3.3,0,0,0,0-.1c-.1-.13-.25.06-.24.29s.2.32.26.11-.1-.48-.19-.32a.46.46,0,0,0,.05.46c.09.07.19,0,.23-.22a1.23,1.23,0,0,0,0-.54" fill="#fff" stroke="#5b5b5b" stroke-miterlimit="10" stroke-width="2" opacity="0.45"/>
      <path d="M425.75,203.89a.8.8,0,0,0-.24-.37.54.54,0,0,0,0,.55" fill="#fff" stroke="#5b5b5b" stroke-miterlimit="10" stroke-width="2" opacity="0.45"/>
      <path d="M438.14,205.71c0-.09-.08-.14-.13-.1s.09.16.14.13" fill="#fff" stroke="#5b5b5b" stroke-miterlimit="10" stroke-width="2" opacity="0.45"/>
      <path d="M438.23,208.73a.34.34,0,0,0,0,.23c.08,0,.07-.3,0-.29" fill="#fff" stroke="#5b5b5b" stroke-miterlimit="10" stroke-width="2" opacity="0.45"/>
      <path d="M436.63,211.21l-.07-.14c0,.14.08.28.14.19s-.07-.08-.07,0,.07.11.11.09a.57.57,0,0,0,0-.3" fill="#fff" stroke="#5b5b5b" stroke-miterlimit="10" stroke-width="2" opacity="0.45"/>
      <path d="M436.6,211.12c0-.11-.09-.16-.11-.06s.06.2.09.12-.11,0-.09.06.11.06.13-.05a.25.25,0,0,0-.1-.24c0,.09.06.19.1.16s0-.2,0-.13" fill="#fff" stroke="#5b5b5b" stroke-miterlimit="10" stroke-width="2" opacity="0.45"/>
      <path d="M435.53,210.52c0-.13-.14-.24-.17-.1a.3.3,0,0,0,.06.2.38.38,0,0,0,.19.13c0-.16-.09-.28-.17-.24s.08,0,.1-.07" fill="#fff" stroke="#5b5b5b" stroke-miterlimit="10" stroke-width="2" opacity="0.45"/>
      <path d="M439.59,211.44a.19.19,0,0,0,0,.16c.06,0,.09-.2,0-.27s-.14,0-.16.15l.08.06" fill="#fff" stroke="#5b5b5b" stroke-miterlimit="10" stroke-width="2" opacity="0.45"/>
      <path d="M440.31,213.38a.21.21,0,0,0,.15.08c0-.1,0-.22-.07-.23" fill="#fff" stroke="#5b5b5b" stroke-miterlimit="10" stroke-width="2" opacity="0.45"/>
      <path d="M439.53,215.45c0,.12,0,.31-.09.27s0-.31.05-.22,0,.1,0,.08,0-.1,0-.09" fill="#fff" stroke="#5b5b5b" stroke-miterlimit="10" stroke-width="2" opacity="0.45"/>
      <path d="M435.4,219.44c0,.1.08.17.1.07s0-.42-.1-.39-.13.33-.06.47.2.07.25-.1a.74.74,0,0,0-.07-.52c-.07-.11-.18-.11-.24,0a.63.63,0,0,0,0,.47c.06.13.18.12.22,0" fill="#fff" stroke="#5b5b5b" stroke-miterlimit="10" stroke-width="2" opacity="0.45"/>
      <path d="M437.44,221.9c.07.17.22.17.29,0s-.09-.26-.15-.16a.45.45,0,0,0,0,.39.12.12,0,0,0,.2,0,1,1,0,0,0-.06-.33c0-.09-.12-.12-.16,0s0,.3.06.32.12-.13.11-.27-.08-.24-.14-.23-.19.49-.06.61.27-.23.2-.47" fill="#fff" stroke="#5b5b5b" stroke-miterlimit="10" stroke-width="2" opacity="0.45"/>
      <path d="M436.83,219.11c0,.07.08,0,.07-.07" fill="#fff" stroke="#5b5b5b" stroke-miterlimit="10" stroke-width="2" opacity="0.45"/>
      <path d="M438.68,224.16c.11.11.26,0,.28-.29s-.21-.46-.34-.32a.78.78,0,0,0,0,.73c.12.16.31-.07.29-.36s-.26-.37-.32-.11.15.57.25.36l0-.11c0-.14-.07-.26-.13-.21s-.08.24,0,.35.14.09.18,0a.41.41,0,0,0-.08-.28c-.06,0-.13.05-.12.17s.11.11.11,0" fill="#fff" stroke="#5b5b5b" stroke-miterlimit="10" stroke-width="2" opacity="0.45"/>
      <path d="M439.63,218.88c.05.06.12.05.17,0s0-.33-.1-.35-.15.14-.14.29.13.36.22.25a.54.54,0,0,0,0-.51c-.08-.11-.2,0-.22.18s.06.39.16.38.16-.26.12-.43-.25.08-.32.29.12.18.19.14a.47.47,0,0,0,.1-.35c-.06-.05-.14,0-.2.05s.2,0,.19-.15" fill="#fff" stroke="#5b5b5b" stroke-miterlimit="10" stroke-width="2" opacity="0.45"/>
      <path d="M443.49,215.79c0,.18.19.1.19-.09s-.09-.34-.19-.29a.46.46,0,0,0-.13.39c0,.16.12.29.2.22a.46.46,0,0,0,0-.43c0-.07-.11-.06-.18-.05a.21.21,0,0,0-.13.23.18.18,0,0,0,0,.11c.07.1.15.22.23.16a.44.44,0,0,0,0-.41c-.06-.12-.18-.06-.2.1s.05.34.13.32a.51.51,0,0,0,.06-.43" fill="#fff" stroke="#5b5b5b" stroke-miterlimit="10" stroke-width="2" opacity="0.45"/>
      <path d="M441.48,209.43c0-.07-.06-.07-.08,0s.08.11.11,0a.23.23,0,0,0,0-.2c0-.05-.08,0-.09.06s.07,0,.1,0-.11,0-.08.06" fill="#fff" stroke="#5b5b5b" stroke-miterlimit="10" stroke-width="2" opacity="0.45"/>
      <path d="M444.22,200.69a.64.64,0,0,0,.11-.55c-.05-.2-.19-.27-.27-.13a.58.58,0,0,0,0,.56c.1.09.23-.1.22-.32s-.14-.39-.24-.3a.67.67,0,0,0-.06.58c.07.17.21.18.29,0a.79.79,0,0,0,0-.62c-.09-.14-.24-.08-.3.12a.59.59,0,0,0,.07.5c.09.08.21-.11.18-.29s-.18-.2-.21,0,.06.38.15.3-.1-.14-.12,0" fill="#fff" stroke="#5b5b5b" stroke-miterlimit="10" stroke-width="2" opacity="0.45"/>
      <path d="M445.15,200.38c.05-.21-.06-.49-.17-.47s-.2.3-.16.52.14.35.24.28a.58.58,0,0,0,.09-.53c-.07-.17-.23-.11-.26.1s.12.41.2.28a.44.44,0,0,0,0-.42c-.08-.06-.18.07-.17.24s.1.28.17.2-.16-.2-.24-.09.1.2.14.1" fill="#fff" stroke="#5b5b5b" stroke-miterlimit="10" stroke-width="2" opacity="0.45"/>
      <path d="M447.42,198.47c-.14-.15-.4.06-.35.27a.22.22,0,0,0,.43,0c.07-.2-.14-.46-.31-.38,0,.14.09.29.21.28s-.18-.22-.27-.14l.06.24" fill="#fff" stroke="#5b5b5b" stroke-miterlimit="10" stroke-width="2" opacity="0.45"/>
      <path d="M449.92,197.83c.15,0,.3-.14.32-.33a.49.49,0,0,0-.24-.45.37.37,0,0,0-.4.06.59.59,0,0,0-.08.71.35.35,0,0,0,.58,0,.51.51,0,0,0-.13-.67c-.2-.11-.47.1-.47.37s.18.4.34.35a.32.32,0,0,0,.12-.48c-.12-.14-.37,0-.32.23a.24.24,0,0,0,.36.16c0-.19-.22-.33-.33-.19s.08.41.19.27a.24.24,0,0,0-.33-.12.28.28,0,0,0,.4,0" fill="#fff" stroke="#5b5b5b" stroke-miterlimit="10" stroke-width="2" opacity="0.45"/>
      <path d="M456.1,182.91c0,.06.08.1.11.05s0-.13,0-.12" fill="#fff" stroke="#5b5b5b" stroke-miterlimit="10" stroke-width="2" opacity="0.45"/>
      <path d="M456.05,182.73c0-.09-.1-.17-.17-.13a.19.19,0,0,0,0,.25" fill="#fff" stroke="#5b5b5b" stroke-miterlimit="10" stroke-width="2" opacity="0.45"/>
      <path d="M456,182.58a.36.36,0,0,0,.11.44c0-.08,0-.2-.11-.19s-.12.15-.07.22.21-.06.15-.16-.21,0-.17.12a.15.15,0,0,0,.13-.19" fill="#fff" stroke="#5b5b5b" stroke-miterlimit="10" stroke-width="2" opacity="0.45"/>
      <path d="M447.47,220.29l.12.15c.09-.16,0-.54-.13-.44s-.06.52.06.5,0-.33-.08-.38-.14.18-.08.26.12-.09.11-.21-.11-.16-.15-.06.06.38.15.31,0-.19-.07-.19-.08.09-.07.18.1,0,.06-.11" fill="#fff" stroke="#5b5b5b" stroke-miterlimit="10" stroke-width="2" opacity="0.45"/>
      <path d="M445.81,217.26c0-.2-.15-.3-.19-.13s.09.39.16.28,0-.42,0-.45-.18.2-.15.38.1.22.17.17a.39.39,0,0,0,0-.35c0-.09-.15,0-.14.16s.16.22.2.06,0-.2-.08-.21-.1.07-.11.18.07.14.12.13a.35.35,0,0,0,0-.29c-.05,0-.12,0-.16.06" fill="#fff" stroke="#5b5b5b" stroke-miterlimit="10" stroke-width="2" opacity="0.45"/>
      <path d="M445.15,211.9c0-.07-.07-.05-.06,0a.13.13,0,0,0,.1.12c.05-.06,0-.26,0-.26a.46.46,0,0,0,0,.21c0,.07.08.06.07,0" fill="#fff" stroke="#5b5b5b" stroke-miterlimit="10" stroke-width="2" opacity="0.45"/>
      <path d="M442.21,231l.08.13a.58.58,0,0,0,0-.41c0-.11-.14-.12-.18,0s0,.38.11.34.11-.32,0-.42-.19,0-.19.2l.06.23s.06,0,.08-.09-.08-.24-.14-.18a.38.38,0,0,0,0,.33c.06.08.14,0,.15-.14s-.14-.22-.17-.07" fill="#fff" stroke="#5b5b5b" stroke-miterlimit="10" stroke-width="2" opacity="0.45"/>
      <path d="M440.16,224.19s0,.14,0,.11,0-.13,0-.2-.1,0-.11.14.14.06.14-.07-.07-.13-.1-.06,0,.2,0,.2" fill="#fff" stroke="#5b5b5b" stroke-miterlimit="10" stroke-width="2" opacity="0.45"/>
      <path d="M442.78,222.35s0-.12,0-.09-.13.07-.12.2.09.2.15.14a.51.51,0,0,0,0-.35c0-.15-.19-.14-.23,0s0,.4.13.38.08-.07.11-.13-.06-.39-.16-.37-.15.28-.09.44.18.14.22,0,0-.41-.13-.37,0,.2.08.17" fill="#fff" stroke="#5b5b5b" stroke-miterlimit="10" stroke-width="2" opacity="0.45"/>
      <path d="M435.86,234.07c.05-.14-.05-.36-.12-.29a.42.42,0,0,0,0,.42c.07.1.17,0,.21-.15s-.27-.23-.29,0,.24.12.26-.11c0-.08-.11-.06-.13,0s0,.22.06.24" fill="#fff" stroke="#5b5b5b" stroke-miterlimit="10" stroke-width="2" opacity="0.45"/>
      <path d="M437,233.78c0-.22-.2-.26-.25-.05s.08.27.15.26.14-.13.14-.28-.16,0-.21.17,0,.17.08.17.07-.14,0-.18-.06.19,0,.19a.19.19,0,0,0,0-.18s-.08,0-.09.06" fill="#fff" stroke="#5b5b5b" stroke-miterlimit="10" stroke-width="2" opacity="0.45"/>
      <path d="M441.49,233c0,.08.06.13.07.06s0-.17-.06-.13a.22.22,0,0,0,0,.21" fill="#fff" stroke="#5b5b5b" stroke-miterlimit="10" stroke-width="2" opacity="0.45"/>
      <path d="M441.5,232s-.05-.1-.05,0,0,.12.08.12.07,0,.1,0c0-.2-.18-.2-.19,0" fill="#fff" stroke="#5b5b5b" stroke-miterlimit="10" stroke-width="2" opacity="0.45"/>
      <path d="M443.73,237.13s0-.22,0-.23c0,.17.08.33.17.29a.65.65,0,0,0-.05-.35c0-.08-.14,0-.14.11l.07.17" fill="#fff" stroke="#5b5b5b" stroke-miterlimit="10" stroke-width="2" opacity="0.45"/>
      <path d="M441.45,236.13l.09.14a.57.57,0,0,0,0-.48c-.07-.1-.2,0-.18.23s.17.21.19,0-.13-.13-.15,0" fill="#fff" stroke="#5b5b5b" stroke-miterlimit="10" stroke-width="2" opacity="0.45"/>
      <path d="M443,205.32c0-.08-.09-.11-.13-.07,0,.21.19.25.23,0,0-.06-.08-.08-.11,0s.07.21.12.17a.27.27,0,0,0,0-.29c0-.08-.12,0-.12.12" fill="#fff" stroke="#5b5b5b" stroke-miterlimit="10" stroke-width="2" opacity="0.45"/>
      <path d="M441.1,232.3l0,.16" fill="#fff" stroke="#5b5b5b" stroke-miterlimit="10" stroke-width="2" opacity="0.45"/>
      <path d="M444.29,228.66v-.15" fill="#fff" stroke="#5b5b5b" stroke-miterlimit="10" stroke-width="2" opacity="0.45"/>
      <path d="M444.12,228.67c0,.13.09.22.14.13s-.15-.07-.19,0,.05.22.11.21.09-.19,0-.25" fill="#fff" stroke="#5b5b5b" stroke-miterlimit="10" stroke-width="2" opacity="0.45"/>
      <path d="M437,219c0-.13-.13-.13-.16,0s0,.28.09.29.13-.1.14-.24-.17-.11-.22,0,.07.2.11.11,0-.25-.06-.26-.11.13-.1.24" fill="#fff" stroke="#5b5b5b" stroke-miterlimit="10" stroke-width="2" opacity="0.45"/>
      <path d="M479,139a78.24,78.24,0,0,0-53.69-29.1l.05-.42a16.14,16.14,0,0,0-10.46,6.81A111.23,111.23,0,0,1,465,133.6c4.62,3,9.46,6.45,15,6.1" fill="#a0a0a0" stroke="#13213d" stroke-miterlimit="10"/>
      <path d="M478.49,140a76,76,0,0,0-53.27-31.22l-1.3-1.08c.32-13.28,12.91-24,26-25.57s26,4.32,36.43,12.3c6.14,4.7,11.95,10.6,13.77,18.18,2.1,8.74-1.47,17.78-5,26.09l-2,.94a77.77,77.77,0,0,1-12.21-.28" fill="#a0a0a0" stroke="#13213d" stroke-miterlimit="10"/>
      <path d="M463.33,310.85q18.38-.42,36.75-.76l-3.52-11.44,0-1.73c1.69,4.24,3.3,8.64,4.84,13.14q14.23-.27,28.47-.5c-.22-1.42-.45-2.84-.67-4.25q-3-19.05-6-38.08l-.38-1.55c-2.91-9.67-6.19-19.36-11.54-27.9s-13-15.95-22.41-19.27c-8.68-3.06-19-1.73-26-7.73l-.69-.68-6.5-5.13a6.68,6.68,0,0,0-1.69,3.71l.7.57C449.4,243.17,452,278.55,463.33,310.85Z" fill="#ebf5f7" stroke="#13213d" stroke-miterlimit="10"/>
      <path d="M404.94,318.59c8.18-36.46,10.5-72.26,20-111.21a4,4,0,0,0-.46-2.43c-5.85,7-15.45-.33-23.44,4.52-7,4.26-11.09,12-14.12,19.72-8.68,22-11.4,45.87-12.84,69.49-.31,5-.58,9.91-1,14.85C379.63,313.28,398.36,318.82,404.94,318.59Z" fill="#ebf5f7" stroke="#13213d" stroke-miterlimit="10"/>
      <path d="M459.25,92.38a52.74,52.74,0,0,0-13.45,15.13" fill="none" stroke="#13213d" stroke-miterlimit="10"/>
      <path d="M472.36,102.34l-3.18,11.73" fill="none" stroke="#13213d" stroke-miterlimit="10"/>
      <path d="M440.82,149.84l-3.58,15.44c-.07.3-.11.68.13.87a.9.9,0,0,0,.46.11,14.79,14.79,0,0,0,3.81-.41" fill="none" stroke="#13213d" stroke-miterlimit="10"/>
      <path d="M448,148.4a9.56,9.56,0,0,1,8.49-3.08,14.61,14.61,0,0,1,8.22,4.24" fill="none" stroke="#13213d" stroke-miterlimit="10"/>
      <path d="M417.62,148.37a9.58,9.58,0,0,1,8.48-3.09,14.68,14.68,0,0,1,8.23,4.25" fill="none" stroke="#13213d" stroke-miterlimit="10"/>
      <path d="M425.46,151.64a1.5,1.5,0,0,0,0-3,1.5,1.5,0,0,0,0,3Z" fill="#13213d"/>
      <path d="M455.43,152.71a1.5,1.5,0,0,0,0-3,1.5,1.5,0,0,0,0,3Z" fill="#13213d"/>
    </g>
    <g id="f91accf7-5f30-409e-9aba-f11e4079ff0e" data-name="Layer 20">
      <path d="M502.87,244.53a6.19,6.19,0,0,1,5.25-3.17,15.48,15.48,0,0,1,6,1.29l16.65,6c5.18,1.86,10.36,3.73,15.66,5.23a2.29,2.29,0,0,0,1.27,0c4.34-1.56,8.2-4.58,12.51-6.27a56.65,56.65,0,0,1,8.39,2.82q14.69,5.76,29.75,10.53l.08,0a5.78,5.78,0,0,1,1.86,1,3,3,0,0,1,1,1.65,4.46,4.46,0,0,1-.19,2l0-.1c-9.6,20.25-20.37,43.35-30,63.6C542.68,318.85,510,307.3,481.55,297a4.7,4.7,0,0,1-2.88-2.24,4.08,4.08,0,0,1,.38-3.54c8-15.61,15.81-31,23.76-46.61" fill="#6c95a3" stroke="#13213d" stroke-miterlimit="10"/>
      <path d="M507,253a5.62,5.62,0,0,1,5.37-2.12A16.54,16.54,0,0,1,518,253l15.62,8.25c4.86,2.57,9.71,5.13,14.72,7.39a2.38,2.38,0,0,0,1.23.18c4.35-.77,8.36-3,12.68-3.87a58.7,58.7,0,0,1,7.88,4q13.74,7.72,27.93,14.58l.07.05a6.15,6.15,0,0,1,1.72,1.23,3,3,0,0,1,.83,1.7,4.1,4.1,0,0,1-.35,1.85l0-.09c-11.07,17.41-23.53,37.29-34.6,54.71-26.69-14.13-57.35-30.13-84-44.26a5.07,5.07,0,0,1-2.59-2.55,3.63,3.63,0,0,1,.67-3.25c9.08-13.33,18-26.47,27.1-39.81" fill="#afd3dd" stroke="#13213d" stroke-miterlimit="10"/>
    </g>
    <g id="f0be51be-f418-4095-9af5-3ce2cc2f3521" data-name="Layer 23">
      <path d="M437.08,183.23c-1.58.16-2.14.34-2.89-.47a5.89,5.89,0,0,1-1.34-4.35,6.05,6.05,0,0,1,1.46-3.74,4,4,0,0,1,3.71-1.25,4,4,0,0,1,2.47,2,6.83,6.83,0,0,1,.79,3.14,5.62,5.62,0,0,1-1.14,3.95c-.93,1.05-.93,1.05-3.06.73" fill="#a0a0a0" stroke="#13213d" stroke-miterlimit="10"/>
    </g>
    <g id="b8a9c017-8a02-4585-a1f2-0035d124e296" data-name="Layer 16">
      <g id="a20764e2-32e8-4dd1-93ad-633a245db2a3" data-name="Layer 12">
        <path d="M774.28,456.88c15.52,24.24,29.42,57.53,28.9,85-.43,23.16-9,44.3-23,58.5s-29.35,20.3-49.53,19.79h0c-13-8-22.55-23.57-26.49-39.48s-2.79-32.1,1-46.58c2.61-10.08,6.51-19.6,12.29-27.3,15.67-20.86,43.72-26.71,56.85-50" fill="#afd3dd" stroke="#13213d" stroke-miterlimit="10"/>
        <path d="M731.93,619.64a1309.94,1309.94,0,0,1,42.35-162.76" fill="none" stroke="#13213d" stroke-miterlimit="10"/>
        <path d="M765.44,511.83A78.2,78.2,0,0,1,784,486.24" fill="none" stroke="#13213d" stroke-miterlimit="10"/>
        <path d="M748.42,492.1l5.3,11.59" fill="none" stroke="#13213d" stroke-miterlimit="10"/>
        <path d="M758.41,553.81a148.52,148.52,0,0,1,40.15-24.63" fill="none" stroke="#13213d" stroke-miterlimit="10"/>
        <path d="M737,547.33a90.11,90.11,0,0,0-11.69-22.73" fill="none" stroke="#13213d" stroke-miterlimit="10"/>
        <path d="M729.51,602.78a58.39,58.39,0,0,0-15.49-19" fill="none" stroke="#000" stroke-miterlimit="10"/>
        <path d="M740.75,609.71A171.6,171.6,0,0,1,782,576.59" fill="none" stroke="#000" stroke-miterlimit="10"/>
      </g>
      <g id="f99c26e7-c84e-41b7-adf6-4f97809434ee" data-name="Layer 10">
        <path d="M867.52,519.05c3.56,20.1,2.51,45.55-8,63.06a70.88,70.88,0,0,1-39.89,30.8c-16.44,5-31,4.43-47-1.82h0c-7.49-9-9.45-21.74-6.77-33.11s9.52-21.42,17.85-29.61a66.47,66.47,0,0,1,19.86-13.91c20.22-8.8,44.86-4.33,63.93-15.41" fill="#ebf5f7" stroke="#13213d" stroke-miterlimit="10"/>
      </g>
      <g id="acc04b86-0d72-4fd0-8029-890c926733f5" data-name="Layer 11">
        <path d="M773.89,611.09a999.65,999.65,0,0,1,93.63-92" fill="none" stroke="#13213d" stroke-miterlimit="10"/>
        <path d="M840.28,551.73a75,75,0,0,1,24.28-11" fill="none" stroke="#13213d" stroke-miterlimit="10"/>
        <path d="M833.86,534.07v9" fill="none" stroke="#13213d" stroke-miterlimit="10"/>
        <path d="M819.25,576.61a162.38,162.38,0,0,1,41.24-4" fill="none" stroke="#13213d" stroke-miterlimit="10"/>
        <path d="M804.47,566.17a51.25,51.25,0,0,0-1.05-18" fill="none" stroke="#13213d" stroke-miterlimit="10"/>
        <path d="M778.12,599.56a34.93,34.93,0,0,0-5.47-16.71" fill="none" stroke="#13213d" stroke-miterlimit="10"/>
        <path d="M784.6,607.31a182.49,182.49,0,0,1,45.26-9.16" fill="none" stroke="#13213d" stroke-miterlimit="10"/>
      </g>
      <g id="e702945d-a6e9-46a7-b52d-9313448f2050" data-name="Layer 13">
        <path d="M655.36,553.64c1.24,20.38,8.22,44.87,22.53,59.44a70.86,70.86,0,0,0,46,20.61c17.15,1,31.15-2.94,45.25-12.77h0c5.18-10.46,4.1-23.34-1.16-33.77s-14.28-18.6-24.29-24.61a66.58,66.58,0,0,0-22.56-8.88c-21.72-3.82-44.63,6.29-65.76,0" fill="#d3e9ef" stroke="#13213d" stroke-miterlimit="10"/>
        <path d="M767.93,621.21a1000.59,1000.59,0,0,0-112.57-67.57" fill="none" stroke="#13213d" stroke-miterlimit="10"/>
        <path d="M678.49,560.65a75.15,75.15,0,0,0-24.28-11" fill="none" stroke="#000" stroke-miterlimit="10"/>
        <path d="M691.6,556.15v9" fill="none" stroke="#000" stroke-miterlimit="10"/>
        <path d="M699.51,585.53a161.92,161.92,0,0,0-41.24-4" fill="none" stroke="#000" stroke-miterlimit="10"/>
        <path d="M714.3,575.09a51.26,51.26,0,0,1,1-18" fill="none" stroke="#000" stroke-miterlimit="10"/>
        <path d="M761.11,611a35.1,35.1,0,0,1,1.41-17.53" fill="none" stroke="#13213d" stroke-miterlimit="10"/>
        <path d="M756.63,620a182.88,182.88,0,0,0-46.14,1.69" fill="none" stroke="#13213d" stroke-miterlimit="10"/>
      </g>
      <g id="e7dd4938-c6c4-4390-b732-7f50fa157fdd" data-name="Layer 14">
        <path d="M311.77,475.36c-14.88,23.23-28.21,55.15-27.71,81.53.42,22.21,8.62,42.47,22.05,56.09s28.13,19.46,47.48,19h0c12.47-7.69,21.61-22.6,25.39-37.85s2.68-30.77-.93-44.66c-2.5-9.66-6.24-18.79-11.78-26.16-15-20-41.91-25.62-54.5-47.92" fill="#ebf5f7" stroke="#13213d" stroke-miterlimit="10"/>
        <path d="M352.37,631.39a1255.53,1255.53,0,0,0-40.6-156" fill="none" stroke="#13213d" stroke-miterlimit="10"/>
        <path d="M320.25,528a75.08,75.08,0,0,0-17.81-24.53" fill="none" stroke="#13213d" stroke-miterlimit="10"/>
        <path d="M336.56,509.13l-5.08,11.11" fill="none" stroke="#13213d" stroke-miterlimit="10"/>
        <path d="M327,568.29a142.57,142.57,0,0,0-38.5-23.62" fill="none" stroke="#13213d" stroke-miterlimit="10"/>
        <path d="M347.5,562.07a86.55,86.55,0,0,1,11.2-21.78" fill="none" stroke="#000" stroke-miterlimit="10"/>
        <path d="M354.69,615.24a55.84,55.84,0,0,1,14.84-18.18" fill="none" stroke="#13213d" stroke-miterlimit="10"/>
        <path d="M343.91,621.88a164.39,164.39,0,0,0-39.57-31.76" fill="none" stroke="#13213d" stroke-miterlimit="10"/>
        <path d="M222.39,535c-3.42,19.27-2.41,43.67,7.66,60.46A68,68,0,0,0,268.29,625c15.76,4.8,29.7,4.24,45-1.75h0c7.18-8.6,9.06-20.84,6.5-31.74s-9.14-20.54-17.12-28.39a63.73,63.73,0,0,0-19-13.34c-19.38-8.43-43-4.15-61.28-14.77" fill="#afd3dd" stroke="#13213d" stroke-miterlimit="10"/>
        <path d="M312.15,623.2A958.78,958.78,0,0,0,222.39,535" fill="none" stroke="#13213d" stroke-miterlimit="10"/>
        <path d="M248.5,566.29a71.83,71.83,0,0,0-23.28-10.53" fill="none" stroke="#13213d" stroke-miterlimit="10"/>
        <path d="M254.65,549.36V558" fill="none" stroke="#13213d" stroke-miterlimit="10"/>
        <path d="M268.66,590.14a155.47,155.47,0,0,0-39.54-3.87" fill="none" stroke="#13213d" stroke-miterlimit="10"/>
        <path d="M282.83,580.13a49.22,49.22,0,0,1,1-17.27" fill="none" stroke="#13213d" stroke-miterlimit="10"/>
        <path d="M308.09,612.15a33.44,33.44,0,0,1,5.24-16" fill="none" stroke="#13213d" stroke-miterlimit="10"/>
        <path d="M301.87,619.57a175,175,0,0,0-43.38-8.78" fill="none" stroke="#13213d" stroke-miterlimit="10"/>
      </g>
    </g>
    <g id="a632eb06-d5ab-479a-8fc0-35db4d5a3019" data-name="Layer 17">
      <g id="ba3a53f5-9fe8-4b02-9c5e-625af2ebf67c" data-name="Layer 1">
        <path d="M19.31,50.77c-1.76,8-2.38,9.94-2.52,18.16-.1,5.2,2.54,16.8,3.83,21.84l.32,1a64.83,64.83,0,0,0,32.56.52l17.44.14a45.69,45.69,0,0,0,29.25,0l.91-.32c4.19-15.55,6.83-23.33,4-42.88" fill="#13213d" stroke="#13213d" stroke-miterlimit="10"/>
        <path d="M29.91,60.32c-2.86-.39-6.93-2.58-7.66-5.38a7.53,7.53,0,0,1,2.68-7.71c1.33-1,3.23-1.5,4.63-.61Z" fill="#fcf0f0" stroke="#13213d" stroke-miterlimit="10"/>
        <path d="M95.78,40.29c1.1-11.46-6-22.92-16.22-28.2s-22.94-4.73-33.31.25a26.5,26.5,0,0,0-10.07,7.8,28.61,28.61,0,0,0-4.4,10.3c-2.42,10-2.1,20.37-1.76,30.62L30,61c.54,2.69,1.12,5.46,2.66,7.74a17.12,17.12,0,0,0,3.88,3.86A50.27,50.27,0,0,0,60,82.48l6.59,0a34.29,34.29,0,0,0,16.61-4.83A23.08,23.08,0,0,0,93.44,64a38.74,38.74,0,0,0,.85-6.36l1.23-15.5" fill="#fcf0f0" stroke="#13213d" stroke-miterlimit="10"/>
        <polyline points="51.87 105.97 46.66 150.5 52.05 162.86 64.78 169.46 83.66 155.07 72.64 110.08" fill="#fcf0f0" stroke="#13213d" stroke-miterlimit="10"/>
        <path d="M72.13,109.13a60.59,60.59,0,0,1-.59-26.46L52.89,81.8a147.55,147.55,0,0,1-.75,25.91" fill="#fcf0f0" stroke="#13213d" stroke-miterlimit="10"/>
        <path d="M76.46,26.66l1.23-1.2,9.47,9.12a27.47,27.47,0,0,0,7.12,5.47,13.91,13.91,0,0,0,1.6.61,50.57,50.57,0,0,0-.1,6.79c.22,2,.43,3.89.57,5.69a1.36,1.36,0,0,1,1.28-1.07c2.62-.15,5.23-.34,7.84-.55,0-.89-.07-1.78-.07-2.66,0-8.73,2.13-17.6-.12-26.11C103,14,95.86,6.43,86.66,2.85a36.47,36.47,0,0,0-29,1.4H55.31C46.66.38,35.55,1.45,28,6.86S17,21.74,19.46,30.09c1.21,4.17,2.25,4.73,1.77,9A44.33,44.33,0,0,1,18.91,50c1.8.34,2.57,1.34,4.38,1.54.05-.29.1-.59.17-.87.74-3.15,2.85-2.64,6.1-4,5.8-1.46,11-5,16.22-7.64s10-6.45,12.2-11.44c2-4.44,1.82-9.37,1.33-14.12l1.88.06C66,23.41,71.65,34,82.33,39.18Q79.39,32.91,76.46,26.66Z" fill="#13213d" stroke="#13213d" stroke-miterlimit="10"/>
        <path d="M23.59,48.76A29.17,29.17,0,0,0,22.3,61" fill="#fff" stroke="#13213d" stroke-miterlimit="10"/>
        <path d="M21.27,15.81c-3.5,11.41-3.48,26.45-1.88,38.28" fill="#13213d" stroke="#13213d" stroke-miterlimit="10"/>
        <path d="M20.05,30l-.66,21.19" fill="#fff" stroke="#13213d" stroke-miterlimit="10"/>
        <path d="M88,153.5,110.79,219c.7,2,1.42,4.15,1.09,6.26-.27,1.74,2.6,19.24,1.67,20.74-4,6.37-11.76-3.2-15.72,3.17l-1.39-.93a249.14,249.14,0,0,1-63.91,5.62l2-1.14q.36-20,.74-40c.1-5.52.23-11.19,2.3-16.31a45.23,45.23,0,0,1,6-9.73l19.26-26,.71-1.19a20.56,20.56,0,0,0,9.62,1.23A12.5,12.5,0,0,0,81.51,156" fill="#ebf5f7" stroke="#13213d" stroke-miterlimit="10"/>
        <path d="M20,554.78c1.14,12.14,4.37,29.64,6.49,41.66h.7A15.21,15.21,0,0,0,39,598l2.29.4,2-44.53" fill="#fcf0f0" stroke="#13213d" stroke-miterlimit="10"/>
        <path d="M71.62,557.4c.8,11.53.76,21,3,33.64a25.72,25.72,0,0,0,12.66-.3l.53-.12Q90.89,573.4,92.34,556" fill="#fcf0f0" stroke="#13213d" stroke-miterlimit="10"/>
        <path d="M40,634.61a46.16,46.16,0,0,0-6.23-1c-2.07-.36-4.24-1.2-5.34-3s-.49-4.35-.63-6.59c-.81-13.67-1.95-15.85-2.61-33.17.69-1.82,1.86,2.19,3.81,2.19,4,0,10-4,13-1.26S49.08,603,52.16,608.05a104.63,104.63,0,0,0,18.68,22.63c-.59,2.79-4.22,3.43-7.07,3.48l-23.32.34" fill="#13213d" stroke="#13213d" stroke-miterlimit="10"/>
        <path d="M86.43,632.87a46.4,46.4,0,0,0-6.23-1c-2.07-.36-4.24-1.2-5.34-3s-.49-4.35-.63-6.59c-.81-13.67-2-15.85-2.61-33.17.69-1.82,1.86,2.19,3.81,2.19,4,0,10-4,13-1.26s7.11,11.21,10.19,16.23a104.63,104.63,0,0,0,18.68,22.63c-.59,2.79-4.22,3.43-7.07,3.47l-23.32.35" fill="#13213d" stroke="#13213d" stroke-miterlimit="10"/>
        <path d="M7.55,439.46C5.92,406.92.71,362.87.52,330.29c-.1-18-.16-50.86,7.31-67.27l2.55-3.26c14-10.36,24.82-1.85,39.83-10.71l2.32.29q11.72,1.49,23.53,2.15l2.32.09q13.59-2.52,26.93-6.21l.39,1.93c9.26,13.68,12.84,30.51,13.55,47s-1.23,33-2,49.5c-.58,11.85-.57,23.72-1.41,35.55-.89,12.7-2.12,25.4-4.1,38-7.86,50.13-6.58,83-17.2,136.58h0c-7.49,2.08-18.86,3.35-25.84-.06V549.6c-.3-13.08.65-15.83,0-28.91-.88-17.45-2.49-21.19-2.49-21.19,0,7.07-.48-17.07-1.07-25.43-1.87-26.65-1.12-39.26.21-68A269.48,269.48,0,0,0,65,377.65c-.65-10.8,1.14-25.57.13-35.91-1-9.89,2-27,1.64-40.56l-1.31-.11c-3.47,1-1.31.7,0,0l-.89.73c-4.1,12.71-4.73,26.24-5.33,39.59l-3.69,82.78-1.11,1.4c2,19-1.3,30.86-3.31,52.51-.61,6.54.13,14.85,0,21.42-.14,6.74-1.45,14-2.32,20.72L47,550.72l-5.31,1.69a37.23,37.23,0,0,1-22.42-.64,1.88,1.88,0,0,1-1.24-1.7h0C11.2,505,11.36,484.87,7.55,439.46" fill="#13213d" stroke="#13213d" stroke-miterlimit="10"/>
        <path d="M50.16,263a141.07,141.07,0,0,0,43.91-2.2l-1.47-5.13c-7,.16-13.86,1.47-20.81,2.13s-14.13.64-20.67-1.79" fill="#fff" stroke="#13213d" stroke-miterlimit="10"/>
        <path d="M74.74,256.65l-.42-3.12-12.21.4,0,11.33a1,1,0,0,0,1,1.21l4.75.56a8,8,0,0,0,4.61-.36c1.4-.7,2.27-2.65,1.31-3.89l-7.92.43a.75.75,0,0,1-.53-.11.69.69,0,0,1-.14-.53v-3.15a1,1,0,0,1,.17-.68,1,1,0,0,1,.67-.25l8-1Z" fill="#fff" stroke="#13213d" stroke-miterlimit="10"/>
        <path d="M40.76,546.43l6.78-1.06a5.76,5.76,0,0,1-1.11,6.14,9.47,9.47,0,0,1-5.07,2.43,91.57,91.57,0,0,1-12.59,2c-3,.25-6.15.34-8.95-1.09a9.73,9.73,0,0,1-5.16-8.55c9.16.37,16.94-.22,26.1.14Z" fill="#13213d" stroke="#13213d" stroke-miterlimit="10"/>
        <path d="M69.24,546.48c7.76,1.91,19.16,1.81,26.66-1.28.76-.31,1.68-.61,2.29,0a2.41,2.41,0,0,1,.51,1.08,7.58,7.58,0,0,1-2.21,6.9,12.11,12.11,0,0,1-6,2.82,37.3,37.3,0,0,1-14.77.35c-1.45-.25-5.61-.35-6.7-1.52a4.87,4.87,0,0,1-.34-5.24Z" fill="#13213d" stroke="#13213d" stroke-miterlimit="10"/>
        <path d="M10.2,257.88c6.8,3.52,16.49,9.9,23.75,12.33s15,3.75,22.57,2.7q.65-7.26,1.7-14.46l0,1.45,6.87-82.13c1.28-15.23,2.42-31.28-4-45.14-3.58-7.7-9.41-14.42-11.5-22.65l1-.85c-2.68,7.41-12.14,8.6-19.72,10.7S18,123.42,13.23,129.67c-4.26,5.55-7.7,13.52-7.8,20.52C4.86,190,10.77,218,10.2,257.88" fill="#fca311" stroke="#13213d" stroke-miterlimit="10"/>
        <path d="M66.2,101.31c3.31,6,11.87,9.87,20.14,12.66s17.19,5.22,23.3,10.12a26.25,26.25,0,0,1,9.48,14.57c11.26,49.93,4.49,65.57,3.11,110.42,0,.88-1.09,12.61-1.69,15.12l-2,1.34c-10.13,2-18,5.13-33,9.65l-3,.39c5.44-36.84,2.41-74.38-.69-111.72-1.68-20.34-3.6-41.29-16.14-60.06" fill="#fca311" stroke="#13213d" stroke-miterlimit="10"/>
        <path d="M45.5,111.25c10.44,13.62,16,27.42,17.2,44.54s-1.79,37.77-3.94,54.79h0C62.7,182,57.11,153.52,45,127.29l-1.38-.79,1.13-6.18-.62-1.21-4.4-1a18.58,18.58,0,0,1,3.86-7.64" fill="#fca311" stroke="#13213d" stroke-miterlimit="10"/>
        <path d="M90.43,203.61c-6-32.41-11.31-67.71-25.17-97.62l.7,0a82.83,82.83,0,0,0,7.81,5.86,8.45,8.45,0,0,0-2.2,2.73l1.1,1,4.31,3-.53,2.41,1.23-.57c4.59,27.29,6,28.85,13,84.23" fill="#fca311" stroke="#13213d" stroke-miterlimit="10"/>
        <path d="M93.89,220l1.3-.61a1.32,1.32,0,1,1-1.34,2.14" fill="#fff" stroke="#13213d" stroke-miterlimit="10"/>
        <path d="M105.23,227.65a1.58,1.58,0,0,1,.2-2.31,4.52,4.52,0,0,1,2.47-.81l7.41-.93.22,1.88" fill="none" stroke="#13213d" stroke-miterlimit="10"/>
        <path d="M21,46.75A37.28,37.28,0,0,1,36.14,8.88c7.42-5,16.5-7.13,25.44-7.51,9.19-.39,18.64,1,26.66,5.52s14.43,12.33,15.82,21.41a72.31,72.31,0,0,1,.41,9.88c.07,4.39-1.46,7.59-2.76,11.78.42-6.94.81-14.12-1.61-20.64-2.76-7.46-9-13.26-16.06-16.92a47.65,47.65,0,0,0-31.95-4,39.39,39.39,0,0,0-8.52,2.87A35.89,35.89,0,0,0,28.13,25.87a43.38,43.38,0,0,0-5.45,20.67" fill="#ef9c9c" stroke="#13213d" stroke-miterlimit="10"/>
        <path d="M68.44,41.39a37.3,37.3,0,0,0,4.89,15.89A1.1,1.1,0,0,1,73,59.09a9.93,9.93,0,0,1-4.77,1.71" fill="none" stroke="#13213d" stroke-miterlimit="10"/>
        <path d="M60.42,42.11a8.89,8.89,0,0,0-7.9-2.88,13.67,13.67,0,0,0-7.67,4" fill="none" stroke="#13213d" stroke-miterlimit="10"/>
        <path d="M53.23,43.41a2.24,2.24,0,0,1-1.42-1,1.51,1.51,0,0,1,.1-1.67,1.9,1.9,0,0,1,1.5-.55,2.29,2.29,0,0,1,.64.08,1.62,1.62,0,0,1,1,1.91,1.74,1.74,0,0,1-1.84,1.21" fill="#13213d" stroke="#13213d" stroke-miterlimit="10"/>
        <path d="M53.54,42.16c0,.3-.4.5-.66.33a.72.72,0,0,1-.23-.82c.12-.37.61-.66.89-.39s.1.6-.07.87a.64.64,0,0,1-.19.21c-.24.14-.56-.1-.6-.37a1.34,1.34,0,0,1,.22-.79c.06-.11.14-.23.26-.25a.35.35,0,0,1,.2,0,.92.92,0,0,1,.49.57.54.54,0,0,1-.31.63.33.33,0,1,1,.12.32" fill="#13213d" stroke="#13213d" stroke-miterlimit="10"/>
        <path d="M91.27,42.32a8.92,8.92,0,0,0-7.91-2.87,13.68,13.68,0,0,0-7.66,4" fill="none" stroke="#13213d" stroke-miterlimit="10"/>
        <path d="M84.24,43.41a2.25,2.25,0,0,1-1.41-1,1.5,1.5,0,0,1,.11-1.67,2.28,2.28,0,0,1,2.12-.46,1.6,1.6,0,0,1,1,1.9,1.75,1.75,0,0,1-1.84,1.21" fill="#13213d" stroke="#13213d" stroke-miterlimit="10"/>
        <path d="M84.56,42.16c0,.31-.4.5-.66.34a.74.74,0,0,1-.23-.83c.12-.36.61-.65.89-.38s.09.6-.07.86a.55.55,0,0,1-.19.21c-.24.15-.56-.09-.6-.37a1.31,1.31,0,0,1,.22-.78c.06-.12.14-.24.26-.25a.35.35,0,0,1,.2,0,.9.9,0,0,1,.49.56.57.57,0,0,1-.31.64.35.35,0,0,1,.63-.06.34.34,0,0,1-.51.37" fill="#13213d" stroke="#13213d" stroke-miterlimit="10"/>
        <g>
          <path d="M76,71.12c-5.2-1-9.42-2.24-15.18.68" fill="none" stroke="#13213d" stroke-miterlimit="10"/>
          <path d="M76.52,70.72c-1.18-1.81-2.34-3.4-4.39-4a10.67,10.67,0,0,0-4-.3c-2.25.17-6.41,2.63-7.29,4.71" fill="none" stroke="#13213d" stroke-miterlimit="10"/>
        </g>
        <path d="M49.56,36.49c2.67-.53,5.4-.88,8-1.54a18.46,18.46,0,0,0,3.22-1.08,28.85,28.85,0,0,1,3.63-1.75L64,31.86c.41,1.37-3.11,2-4,2.2-1.23.32-2.48.57-3.74.77-2.73.43-5.49.61-8.24.84v.75c1.32-.13,2.65-.19,4-.25a8,8,0,0,0,1,0,23.57,23.57,0,0,1,2.53-.5A9,9,0,0,0,59,35.06a16.8,16.8,0,0,0,4.84-2.57c.36-.33-.17-.83-.53-.53a11.62,11.62,0,0,1-4.91,2.42c-.47.1-.27.83.2.72a12.34,12.34,0,0,0,5.24-2.61L63.3,32a8.61,8.61,0,0,1-2.4,1.44c-.86.37-1.72.81-2.6,1.14a12.7,12.7,0,0,1-3.31.38c-.7.08-1.35.35-2,.46a10.31,10.31,0,0,1-1.11,0c-1.28.06-2.55.11-3.82.24-.48,0-.49.79,0,.75a97.32,97.32,0,0,0,9.77-1.1,35.91,35.91,0,0,0,4.77-1.23c1.07-.35,2.58-1,2.16-2.43a.38.38,0,0,0-.46-.27A22.53,22.53,0,0,0,60.87,33a17.49,17.49,0,0,1-3.46,1.2c-2.65.66-5.38,1-8,1.54-.48.1-.28.82.2.72Z" fill="#13213d"/>
        <path d="M63.28,32.37a5.67,5.67,0,0,1-1.8,1.1c-.44.16-.27.85.2.72a5.16,5.16,0,0,0,2.63-1.76c.28-.37-.2-.9-.53-.53a7.71,7.71,0,0,1-3.16,1.85,5.6,5.6,0,0,1-1.63.37,6.35,6.35,0,0,0-1.68.22c-.46.15-.26.87.2.72a7.81,7.81,0,0,1,1.74-.21A6.4,6.4,0,0,0,61,34.4a8.08,8.08,0,0,0,3.29-2l-.53-.53a4.49,4.49,0,0,1-2.3,1.57l.2.72a6.65,6.65,0,0,0,2.13-1.29c.36-.32-.18-.85-.53-.53Z" fill="#13213d"/>
        <path d="M46.4,36.42A26,26,0,0,0,55,35.16c2.78-.84,5.49-2.08,8.33-2.67.34-.07,1.2,0,1.41-.38a.49.49,0,0,0-.52-.72c-.66.13-1.18,1.1-1.79,1.4-1.42.7-3.25.57-4.78,1-3.69,1-7.38,2.07-11.23,1.92-.48,0-.48.73,0,.75a29.09,29.09,0,0,0,8.29-1.13c1.41-.36,2.83-.82,4.26-1.08a15.93,15.93,0,0,0,3.7-.71,3.48,3.48,0,0,0,.85-.56c.12-.1.87-.65.86-.78,0,.1-.35-.44-.33-.2,0-.07.22-.3.18-.35s-.25,0-.28,0a4.39,4.39,0,0,0-1.19.22c-2.46.6-4.83,1.59-7.24,2.36a26.37,26.37,0,0,1-9.1,1.46c-.48,0-.48.73,0,.75Z" fill="#13213d"/>
        <path d="M90.44,35.35c-2.68-.53-5.4-.88-8-1.54a17.17,17.17,0,0,1-3.47-1.2A21.91,21.91,0,0,0,75.54,31a.38.38,0,0,0-.46.26c-.41,1.33,1,2,2,2.38A37.72,37.72,0,0,0,82,34.91,94.16,94.16,0,0,0,91.78,36c.48,0,.47-.7,0-.75-1.27-.13-2.55-.18-3.82-.24a8,8,0,0,1-1.1,0c-.69-.11-1.35-.38-2.06-.46a13.19,13.19,0,0,1-3.31-.38c-.84-.31-1.65-.73-2.47-1.09a8.65,8.65,0,0,1-2.52-1.49l-.53.53a12.34,12.34,0,0,0,5.24,2.61c.47.11.67-.61.2-.72a11.62,11.62,0,0,1-4.91-2.42c-.37-.3-.89.2-.53.53a17,17,0,0,0,4.8,2.56,9,9,0,0,0,3.52.58c1.17.06,2.25.49,3.43.54,1.35.06,2.71.12,4.06.25v-.75c-2.75-.23-5.52-.41-8.25-.84-1.25-.2-2.5-.45-3.73-.77-.91-.23-4.42-.83-4-2.2l-.46.26A28.09,28.09,0,0,1,79,33.46a19.41,19.41,0,0,0,3.23,1.07c2.65.67,5.37,1,8,1.55.47.09.67-.63.2-.73Z" fill="#13213d"/>
        <path d="M76,32.48a6.47,6.47,0,0,0,2.13,1.29l.2-.72a4.31,4.31,0,0,1-2.24-1.5l-.59.46a7.43,7.43,0,0,0,2.77,1.77c1.17.48,2.37.86,3.56,1.28.46.16.65-.56.2-.72-1.13-.4-2.26-.77-3.37-1.21A6.75,6.75,0,0,1,76,31.48c-.28-.31-.85.11-.59.45a5.2,5.2,0,0,0,2.69,1.84c.47.14.64-.56.2-.72a5.56,5.56,0,0,1-1.8-1.1c-.36-.32-.89.21-.53.53Z" fill="#13213d"/>
        <path d="M91.78,35.25a27.4,27.4,0,0,1-8.59-1c-1.27-.35-2.52-.78-3.75-1.24-.33-.13-3.69-1.34-3.64-1.54.12-.4-.5-.69-.68-.29a3,3,0,0,0-.29,1c0,.55.22.72.67,1A17.48,17.48,0,0,0,80.42,35a43,43,0,0,0,11.36,1c.48,0,.48-.77,0-.75a41.64,41.64,0,0,1-9.46-.62A21.14,21.14,0,0,1,78,33.52a19,19,0,0,1-2-1c-.35-.2-.48-.2-.38-.61a2.58,2.58,0,0,1,.14-.39l-.69-.29c-.31,1.08,1.49,1.4,2.19,1.69,1.53.62,3.06,1.21,4.64,1.69A29,29,0,0,0,91.78,36c.48,0,.48-.77,0-.75Z" fill="#13213d"/>
        <path d="M61.13,33a12,12,0,0,0-2.55.66l-.6.16c-.21,0-.43,0-.65.1a.43.43,0,0,0-.36.54.42.42,0,0,0,.61.22.38.38,0,0,0,.17-.42v0a.37.37,0,1,0-.72.2v0L57.2,34h0l.19-.06h0l.19,0h0l.17.23v0l0,.29,0,0-.13.14c-.11,0,.13,0,.15,0l.27,0,.48-.11.88-.27a7.64,7.64,0,0,1,1.81-.46.38.38,0,1,0,0-.75Z" fill="#13213d"/>
        <path d="M61.32,33.59c-3.56,1.46-7.4,1.75-11.2,2-.48,0-.48.78,0,.75,3.86-.27,7.79-.55,11.4-2,.44-.18.25-.9-.2-.72Z" fill="#13213d"/>
        <path d="M78.05,32a7.08,7.08,0,0,0,3.15,2.26,43.67,43.67,0,0,0,4.38,1.38.37.37,0,0,0,.19-.72c-1.35-.4-2.74-.76-4.06-1.26a6.52,6.52,0,0,1-3-2c-.29-.39-.94,0-.65.37Z" fill="#13213d"/>
      </g>
      <g id="ee6b1ee9-1916-48eb-8ab9-69ce0c29f7f6" data-name="Layer 7">
        <path d="M34.86,133.08A20.77,20.77,0,0,0,36.42,128l.66-1.61c-2-5.11-4.1-10.28-7.27-14.78a22.56,22.56,0,0,1-2.41-4.78c-1.2-2.9-1.65-6.37-2.89-9.26a6.31,6.31,0,0,1-.74-2.27c0-.8.62-1.68,1.41-1.58a1.86,1.86,0,0,1,1.05.65c3.91,4,3.69,9.77,8.77,12.21-5.25-6.94-5.71-14.11-5.42-23.22a1.62,1.62,0,0,1,.93-1.57,1.87,1.87,0,0,1,2.12.53c.89,1,.86,2.39.87,3.68a35.64,35.64,0,0,0,5.27,18.25c-.47-3.27-3.15-5.88-3.7-9.14a14.93,14.93,0,0,1,.26-4.8l1.45-8.87c.16-1,.44-2.11,1.49-2.35a1.72,1.72,0,0,1,1.6.56,4.22,4.22,0,0,1,.84,3c0,3.58-.45,7.16-.28,10.74s1.1,7.27,3.5,9.93c-3.6-5.3-3.27-11.21-1.91-18,.21-1,2.3-.9,2.35.17C44.81,95,46.08,103.6,51,111.13l1,1.46-.94-9.46c-.18-1.75,0-4,1.63-4.57,2.79,2,3,6.06,2.93,9.52l-.07,4.72a18.86,18.86,0,0,1-.56,5.14c-1,3.49-4,6-6.81,8.36l-.38,2.3a26.75,26.75,0,0,1-2.59,6.92" fill="#fcf0f0" stroke="#13213d" stroke-miterlimit="10"/>
      </g>
      <g id="a12ca3ef-4619-4007-a850-34ce5595316a" data-name="Layer 6">
        <path d="M17.82,146.64A114.76,114.76,0,0,0,29,170a7.87,7.87,0,0,1,1.15,2.39,7.92,7.92,0,0,1-.28,3.34,72.19,72.19,0,0,0-1.66,19.77l.85,1.87c-1.53-22.82,6.19-45.62,3.8-68.36l.25-.56L54,127.55l.84,2c4.87,14.75,4.71,30.61,4.5,46.14-.17,13-.35,26-2.15,38.8-.87,6.22-2.26,12.68-6.34,17.46S39.24,239.1,34,235.6c-2.73-1.84-4.36-4.89-5.89-7.81C18.36,209,15.42,203.22,5.64,184.43" fill="#fca311" stroke="#13213d" stroke-miterlimit="10"/>
      </g>
      <g id="fd01ebac-33b4-4e0c-b82b-6822eca25c22" data-name="Layer 8">
        <path d="M77.19,142.7a21.34,21.34,0,0,1-2.2-4.87l-.86-1.52c1.37-5.33,2.76-10.72,5.33-15.59a27,27,0,0,0,2.47-5.25c.82-3,.13-6.33,1-9.35a6,6,0,0,0,.45-2.34c-.09-.8-.83-1.6-1.6-1.39a1.86,1.86,0,0,0-1,.77c-3.36,4.52-3,11.67-7.69,14.73a32.79,32.79,0,0,0,3-25.21A1.78,1.78,0,0,0,75,91.23a1.88,1.88,0,0,0-2,.81c-.76,1.1-.55,2.47-.4,3.75a35.53,35.53,0,0,1-2.9,18.78c.05-3.31,2.38-6.24,2.51-9.54a14.81,14.81,0,0,0-.87-4.73L68.7,91.69c-.28-1-.7-2-1.78-2.14a1.72,1.72,0,0,0-1.51.75A4.23,4.23,0,0,0,65,93.38c.43,3.55,1.36,7,1.64,10.61s-.16,7.36-2.2,10.3a19.16,19.16,0,0,0-1-18.32,1,1,0,0,0-1.75.7A42.11,42.11,0,0,1,58.39,123l-.83,1.57-.27-9.49c0-1.76-.48-4-2.2-4.34-2.5,2.39-2.19,6.4-1.7,9.82l.68,4.68a18.7,18.7,0,0,0,1.21,5c1.48,3.34,4.72,5.49,7.81,7.43l.68,2.23a26.86,26.86,0,0,0,3.45,6.53" fill="#fcf0f0" stroke="#13213d" stroke-miterlimit="10"/>
      </g>
      <g id="acf3286c-b6f6-43e0-aae5-efcd156d17cb" data-name="Layer 9">
        <path d="M100.38,148a114.93,114.93,0,0,1-3.45,25.64,7.67,7.67,0,0,0-.36,2.63,8,8,0,0,0,1.3,3.09,72.33,72.33,0,0,1,7.68,18.3l-.23,2c-5.59-22.18-20-41.48-24.71-63.85l-.41-.45L60.08,141l-.18,2.16c-.08,15.53,5,30.57,10,45.28,4.16,12.27,8.34,24.58,14,36.24C86.63,230.29,90,236,95.3,239.3s13.24,3.21,17.12-1.73c2-2.59,2.64-6,3.19-9.24,3.51-20.9,4.54-43.37,8-64.26" fill="#fca311" stroke="#13213d" stroke-miterlimit="10"/>
      </g>
      <path d="M140.57,50.92v78.27" fill="#f25f5c"/>
      <path d="M152.43,73.85V176.63" fill="#f25f5c"/>
      <path d="M165.08,64.36v59.3" fill="#f25f5c"/>
    </g>
  </g>
</svg>
