<svg xmlns="http://www.w3.org/2000/svg" width="439" height="327.108" viewBox="0 0 439 327.108">
  <g id="Account-rafiki" transform="translate(0 -55)">
    <g id="freepik--background-complete--inject-65" transform="translate(0 55)">
      <rect id="Rectangle_2657" data-name="Rectangle 2657" width="439" height="0.22" transform="translate(0 287.457)" fill="#ebebeb"/>
      <rect id="Rectangle_2658" data-name="Rectangle 2658" width="29.079" height="0.22" transform="translate(365.933 301.584)" fill="#ebebeb"/>
      <rect id="Rectangle_2659" data-name="Rectangle 2659" width="7.63" height="0.22" transform="translate(283.181 303.972)" fill="#ebebeb"/>
      <rect id="Rectangle_2660" data-name="Rectangle 2660" width="16.849" height="0.22" transform="translate(348.206 293.436)" fill="#ebebeb"/>
      <rect id="Rectangle_2661" data-name="Rectangle 2661" width="37.921" height="0.22" transform="translate(46.06 294.911)" fill="#ebebeb"/>
      <rect id="Rectangle_2662" data-name="Rectangle 2662" width="5.558" height="0.22" transform="translate(91.804 294.911)" fill="#ebebeb"/>
      <rect id="Rectangle_2663" data-name="Rectangle 2663" width="82.251" height="0.22" transform="translate(115.431 298.617)" fill="#ebebeb"/>
      <path id="Path_654" data-name="Path 654" d="M212.748,303.3H43.215a5.013,5.013,0,0,1-5-5.013V59.969a5.013,5.013,0,0,1,5-4.969H212.748a5.013,5.013,0,0,1,5.013,5.013V298.285A5.013,5.013,0,0,1,212.748,303.3ZM43.215,55.176a4.794,4.794,0,0,0-4.785,4.794V298.285a4.794,4.794,0,0,0,4.785,4.794H212.748a4.8,4.8,0,0,0,4.794-4.794V59.969a4.8,4.8,0,0,0-4.794-4.794Z" transform="translate(-4.662 -55)" fill="#ebebeb"/>
      <path id="Path_655" data-name="Path 655" d="M429.055,303.3H259.513a5.022,5.022,0,0,1-5.013-5.013V59.969A5.022,5.022,0,0,1,259.513,55H429.055a5.013,5.013,0,0,1,5,4.969V298.285A5.013,5.013,0,0,1,429.055,303.3ZM259.513,55.176a4.8,4.8,0,0,0-4.794,4.794V298.285a4.8,4.8,0,0,0,4.794,4.794H429.055a4.8,4.8,0,0,0,4.794-4.794V59.969a4.8,4.8,0,0,0-4.794-4.794Z" transform="translate(-31.049 -55)" fill="#ebebeb"/>
      <rect id="Rectangle_2664" data-name="Rectangle 2664" width="12.441" height="38.729" transform="translate(315.193 65.859)" fill="#e6e6e6"/>
      <path id="Path_656" data-name="Path 656" d="M404.967,167.821H363.684L357.45,122.49h41.284Z" transform="translate(-43.609 -63.234)" fill="#f0f0f0"/>
      <path id="Path_657" data-name="Path 657" d="M409.869,167.821H367.234L361,122.49h42.636Z" transform="translate(-44.042 -63.234)" fill="#f5f5f5"/>
      <path id="Path_658" data-name="Path 658" d="M370.88,164.744l-5.25-38.184h35.489l5.259,38.184Z" transform="translate(-44.607 -63.73)" fill="#fff"/>
      <path id="Path_659" data-name="Path 659" d="M379.321,154.467l-1.975-14.329a2.634,2.634,0,0,1,2.634-3.038h12.9a2.634,2.634,0,0,1,2.634,2.309l1.967,14.338a2.634,2.634,0,0,1-2.634,3.029h-12.88a2.634,2.634,0,0,1-2.643-2.309Z" transform="translate(-46.032 -65.016)" fill="#f5f5f5"/>
      <rect id="Rectangle_2665" data-name="Rectangle 2665" width="185.952" height="114.711" transform="translate(64.234 23.425)" fill="#e6e6e6"/>
      <rect id="Rectangle_2666" data-name="Rectangle 2666" width="188.498" height="114.711" transform="translate(66.465 23.425)" fill="#f0f0f0"/>
      <rect id="Rectangle_2667" data-name="Rectangle 2667" width="185.952" height="8.877" transform="translate(64.234 138.145)" fill="#e6e6e6"/>
      <rect id="Rectangle_2668" data-name="Rectangle 2668" width="188.498" height="8.877" transform="translate(74.419 138.145)" fill="#f0f0f0"/>
      <rect id="Rectangle_2669" data-name="Rectangle 2669" width="101.339" height="175.117" transform="translate(248.272 30.115) rotate(90)" fill="#fafafa"/>
      <path id="Path_660" data-name="Path 660" d="M97.96,190.639,137.215,89.3h18.526L116.486,190.639Z" transform="translate(-11.951 -59.185)" fill="#fff"/>
      <path id="Path_661" data-name="Path 661" d="M123.6,190.639,162.855,89.3h7.217L130.817,190.639Z" transform="translate(-15.079 -59.185)" fill="#fff"/>
      <path id="Path_662" data-name="Path 662" d="M201.82,190.639,241.075,89.3h7.217L209.046,190.639Z" transform="translate(-24.622 -59.185)" fill="#fff"/>
      <rect id="Rectangle_2670" data-name="Rectangle 2670" width="101.339" height="0.852" transform="translate(248.263 30.115) rotate(90)" fill="#e6e6e6"/>
      <rect id="Rectangle_2671" data-name="Rectangle 2671" width="39.37" height="182.87" transform="translate(351.779 104.587)" fill="#e6e6e6"/>
      <path id="Path_663" data-name="Path 663" d="M440.413,380.835h3.96V369.57H436.26Z" transform="translate(-53.224 -93.378)" fill="#f0f0f0"/>
      <rect id="Rectangle_2672" data-name="Rectangle 2672" width="39.37" height="182.87" transform="translate(282.795 104.587)" fill="#e6e6e6"/>
      <rect id="Rectangle_2673" data-name="Rectangle 2673" width="72.444" height="175.96" transform="translate(318.705 104.587)" fill="#f0f0f0"/>
      <path id="Path_664" data-name="Path 664" d="M366.95,380.835h-3.96V369.57H371.1Z" transform="translate(-44.285 -93.378)" fill="#f0f0f0"/>
      <rect id="Rectangle_2674" data-name="Rectangle 2674" width="66.298" height="83.006" transform="translate(321.778 107.81)" fill="#e6e6e6"/>
      <path id="Path_665" data-name="Path 665" d="M408.134,184.164H393.779a22.713,22.713,0,0,1-16.488-7.093h47.332A22.687,22.687,0,0,1,408.134,184.164Z" transform="translate(-46.03 -69.893)" fill="#f0f0f0"/>
      <rect id="Rectangle_2675" data-name="Rectangle 2675" width="66.298" height="83.006" transform="translate(321.778 194.178)" fill="#e6e6e6"/>
      <path id="Path_666" data-name="Path 666" d="M408.134,282.534H393.779a22.713,22.713,0,0,1-16.488-7.093h47.332A22.687,22.687,0,0,1,408.134,282.534Z" transform="translate(-46.03 -81.894)" fill="#f0f0f0"/>
      <path id="Path_667" data-name="Path 667" d="M129.5,239.89h65.516l9.5,38.693H138.991Z" transform="translate(-15.799 -77.557)" fill="#e6e6e6"/>
      <path id="Path_668" data-name="Path 668" d="M140.31,283.96l.272,2.134H206.1l-.263-2.134Z" transform="translate(-17.118 -82.933)" fill="#e6e6e6"/>
      <path id="Path_669" data-name="Path 669" d="M131.8,239.89h65.516l9.5,38.693H141.291Z" transform="translate(-16.08 -77.557)" fill="#f0f0f0"/>
      <path id="Path_670" data-name="Path 670" d="M142.991,277.055,134.36,241.9h61.881l8.631,35.155Z" transform="translate(-16.392 -77.802)" fill="#fff"/>
      <path id="Path_671" data-name="Path 671" d="M162.06,283.96l.263,2.134h72.145l-.263-2.134Z" transform="translate(-19.771 -82.933)" fill="#f0f0f0"/>
      <rect id="Rectangle_2676" data-name="Rectangle 2676" width="7.849" height="84.288" transform="translate(223.311 203.16)" fill="#e6e6e6"/>
      <rect id="Rectangle_2677" data-name="Rectangle 2677" width="5.452" height="84.288" transform="translate(228.192 203.16)" fill="#f0f0f0"/>
      <rect id="Rectangle_2678" data-name="Rectangle 2678" width="101.154" height="9.649" transform="translate(235.339 212.81) rotate(180)" fill="#f0f0f0"/>
      <rect id="Rectangle_2679" data-name="Rectangle 2679" width="7.849" height="74.639" transform="translate(122.815 212.81)" fill="#e6e6e6"/>
      <rect id="Rectangle_2680" data-name="Rectangle 2680" width="5.452" height="74.639" transform="translate(127.688 212.81)" fill="#f0f0f0"/>
      <rect id="Rectangle_2681" data-name="Rectangle 2681" width="7.849" height="74.639" transform="translate(73.129 212.81)" fill="#e6e6e6"/>
      <rect id="Rectangle_2682" data-name="Rectangle 2682" width="5.452" height="74.639" transform="translate(78.01 212.81)" fill="#f0f0f0"/>
      <rect id="Rectangle_2683" data-name="Rectangle 2683" width="7.849" height="74.639" transform="translate(173.633 212.81)" fill="#e6e6e6"/>
      <rect id="Rectangle_2684" data-name="Rectangle 2684" width="5.452" height="74.639" transform="translate(178.506 212.81)" fill="#f0f0f0"/>
      <rect id="Rectangle_2685" data-name="Rectangle 2685" width="61.047" height="9.649" transform="translate(73.129 203.16)" fill="#e6e6e6"/>
      <path id="Path_672" data-name="Path 672" d="M285.2,373.673h-1.905l-5.417-26.9-.957-4.715-6.006-29.316H248.085l-12.353,60.933H233.8l12.608-62.057a.922.922,0,0,1,.878-.746H271.73a.878.878,0,0,1,.878.746l5.268,25.743.878,4.706Z" transform="translate(-28.524 -86.216)" fill="#f0f0f0"/>
      <path id="Path_673" data-name="Path 673" d="M326.954,373.675H325.04l-12.38-60.933H289.832l-5.979,29.325-.878,4.706-5.47,26.9H275.6l6.418-31.608.948-4.7,5.268-25.743a.931.931,0,0,1,.878-.746h24.365a.922.922,0,0,1,.878.746Z" transform="translate(-33.623 -86.217)" fill="#f0f0f0"/>
      <path id="Path_674" data-name="Path 674" d="M270,307.407h41.951c8.007,0,12.45-5.444,14.715-14.417l1.106-5.128a10.536,10.536,0,0,0-10.264-13h-26.34c-5.444,0-6.884,1.3-10.65,9.5S270,307.407,270,307.407Z" transform="translate(-32.94 -81.823)" fill="#f0f0f0"/>
      <path id="Path_675" data-name="Path 675" d="M0,.009H44.708a2.1,2.1,0,0,1,2.1,2.1V2.3a5.742,5.742,0,0,1-5.742,5.742H0V0Z" transform="translate(259.932 225.593) rotate(180)" fill="#f0f0f0"/>
    </g>
    <g id="freepik--Shadow--inject-65" transform="translate(49.265 362.23)">
      <ellipse id="freepik--path--inject-65" cx="170.235" cy="9.939" rx="170.235" ry="9.939" fill="#f5f5f5"/>
    </g>
    <g id="freepik--character-female--inject-65" transform="translate(40.915 152.642)">
      <path id="Path_676" data-name="Path 676" d="M200.834,382.6l-5.619,3.617L185.03,374.377l5.619-3.617Z" transform="translate(-63.488 -191.165)" fill="#ff8b7b"/>
      <path id="Path_677" data-name="Path 677" d="M190.658,370.76l-5.628,3.617,5.259,6.111,5.619-3.626Z" transform="translate(-63.488 -191.165)" opacity="0.2"/>
      <path id="Path_678" data-name="Path 678" d="M152.289,404.115l-6.462.632-6.717-15.365,6.462-.632Z" transform="translate(-57.886 -193.359)" fill="#ff8b7b"/>
      <path id="Path_679" data-name="Path 679" d="M139.12,389.392l3.459,7.92h6.734l-3.74-8.552Z" transform="translate(-57.887 -193.361)" opacity="0.2"/>
      <path id="Path_680" data-name="Path 680" d="M92.762,169.538c-3.249.29-3.336-5.224-9.043-2.634-7.252,3.3-4.8,8.42-10.466,8.209s-9.456,4.206-8.192,7.5,3.222,6.409-.781,7.735-6.725,2.494-6.146,5.812,3.415,4.653-1.361,6.769-4.293,11.265.386,11.274.193,4.566,4.39,9.2,10.58,5.268,13.24,2.985,5.628-4.17,10.633-.658,13.477,4.39,13.091-1.177-5.268-9.219-.667-12.116,10.536-4.329,8.675-9.965c-1.185-3.512-4.768-6.567-1.879-9.193,4.7-4.267,4.724-13.925-1.036-16.375C100.26,175.49,103.483,168.572,92.762,169.538Z" transform="translate(-47.431 -166.209)" fill="#2e2e2e"/>
      <path id="Path_681" data-name="Path 681" d="M86.228,219.354c-.158,2.634-.492,4.978-.878,7.445a71.374,71.374,0,0,1-1.589,7.287,53.926,53.926,0,0,1-2.379,7.164c-.474,1.177-1.018,2.344-1.6,3.512-.29.579-.606,1.15-.931,1.712-.149.29-.334.571-.5.878l-.255.413a6.347,6.347,0,0,1-.579.781,5.171,5.171,0,0,1-1.756,1.291,5.593,5.593,0,0,1-1.9.483,7.507,7.507,0,0,1-2.845-.386,17.217,17.217,0,0,1-3.863-1.9,47.632,47.632,0,0,1-6-4.645A100.554,100.554,0,0,1,51.09,232.8l2.494-2.4c1.756,1.545,3.512,3.117,5.347,4.61s3.626,2.994,5.5,4.39a46.2,46.2,0,0,0,5.619,3.705,11.291,11.291,0,0,0,2.634,1.08,1.642,1.642,0,0,0,.685.061h-.176a1.256,1.256,0,0,0-.316.219l-.044.044h0l.193-.36c.123-.237.263-.465.378-.711q.369-.729.711-1.475c.439-1,.878-2.019,1.229-3.082.738-2.107,1.352-4.285,1.9-6.5s.957-4.469,1.326-6.743.65-4.6.878-6.761Z" transform="translate(-47.148 -172.635)" fill="#ff8b7b"/>
      <path id="Path_682" data-name="Path 682" d="M94.586,219.436c-.351,2.125-2.116,6.146-3.512,9.131-1.036,2.16-1.879,3.784-1.879,3.784l-1.229-.544-10.176-4.53c.773-5.488,2.028-11.414,8.078-14.109C89.643,211.5,95.21,215.608,94.586,219.436Z" transform="translate(-50.405 -171.892)" fill="#2b388f"/>
      <path id="Path_683" data-name="Path 683" d="M94.586,219.436c-.351,2.125-2.116,6.146-3.512,9.131-1.036,2.16-1.879,3.784-1.879,3.784l-1.229-.544-10.176-4.53c.773-5.488,2.028-11.414,8.078-14.109C89.643,211.5,95.21,215.608,94.586,219.436Z" transform="translate(-50.405 -171.892)" fill="#002479"/>
      <path id="Path_684" data-name="Path 684" d="M92.458,230.221c-1.036,2.16-1.879,3.784-1.879,3.784l-1.229-.544c.167-2.169.6-5.584,1.756-7.121a9.658,9.658,0,0,1,1.352,3.881Z" transform="translate(-51.816 -173.545)" opacity="0.3"/>
      <path id="Path_685" data-name="Path 685" d="M53.561,233.469l.808-5.909L47.74,229.7s1.054,3.573,3.415,5.04Z" transform="translate(-46.739 -173.694)" fill="#ff8b7b"/>
      <path id="Path_686" data-name="Path 686" d="M51.227,221.81,46.6,224.347l1,4.689,6.629-2.177Z" transform="translate(-46.6 -172.993)" fill="#ff8b7b"/>
      <path id="Path_687" data-name="Path 687" d="M193.437,385.726l6.1-4.39a.536.536,0,0,1,.7.061l4.153,4.328a1.071,1.071,0,0,1-.176,1.589c-2.151,1.493-3.266,2.1-5.953,4.021-1.651,1.185-5.128,4.048-7.41,5.681s-4.012-.527-3.214-1.414c3.6-3.969,4.557-6.673,5.128-8.9A1.756,1.756,0,0,1,193.437,385.726Z" transform="translate(-63.783 -192.442)" fill="#263238"/>
      <path id="Path_688" data-name="Path 688" d="M144.145,404.7h7.9a.658.658,0,0,1,.623.483l1.756,6.269a.983.983,0,0,1-.966,1.256H135.2c-2.9,0-3.512-2.933-2.309-3.2,5.373-1.185,8.473-2.827,10.132-4.39a1.633,1.633,0,0,1,1.124-.421Z" transform="translate(-57.056 -195.305)" fill="#263238"/>
      <path id="Path_689" data-name="Path 689" d="M126.3,241.887l-25.875,8.183c-17.911-35.454-15.356-37.333-15.356-37.333s4.135-2.362,8.438-4.329c.65-.3,1.308-.588,1.958-.878a86.376,86.376,0,0,1,11.748-3.723c.588-.158,1.177-.3,1.756-.439a82.528,82.528,0,0,1,9.658-1.589c.386,4.908.773,9.061,1.194,12.67.544,4.706,1.133,8.473,1.756,11.73a102.463,102.463,0,0,0,4.724,15.707Z" transform="translate(-51.278 -170.549)" fill="#2b388f"/>
      <path id="Path_690" data-name="Path 690" d="M126.3,241.887l-25.875,8.183c-17.911-35.454-15.356-37.333-15.356-37.333s4.135-2.362,8.438-4.329c.65-.3,1.308-.588,1.958-.878a86.376,86.376,0,0,1,11.748-3.723c.588-.158,1.177-.3,1.756-.439a82.528,82.528,0,0,1,9.658-1.589c.386,4.908.773,9.061,1.194,12.67.544,4.706,1.133,8.473,1.756,11.73a102.463,102.463,0,0,0,4.724,15.707Z" transform="translate(-51.278 -170.549)" fill="#002479"/>
      <path id="Path_691" data-name="Path 691" d="M126.146,227.54c-2.485-3.512-4.864-11.686-4.25-14.75l2.458,3.02C124.9,220.516,125.487,224.283,126.146,227.54Z" transform="translate(-55.774 -171.892)" opacity="0.3"/>
      <path id="Path_692" data-name="Path 692" d="M103.63,219.515s6.524-1.414,8.622,1.422c2.88-2.836,1.861-13.916.474-17.867a17.1,17.1,0,0,0-3.222.878l-4.609,7.129Z" transform="translate(-53.558 -170.706)" fill="#fff"/>
      <path id="Path_693" data-name="Path 693" d="M102.234,220.159s-4.39.983-4.855,4.574c-6.146-4.574-5.716-11.274-4.329-15.225a15.489,15.489,0,0,1,3.3-1.159l4.609,5.075Z" transform="translate(-52.161 -171.351)" fill="#fff"/>
      <path id="Path_694" data-name="Path 694" d="M104.272,195.366c.878,3.231,2.213,6.427,4.39,7.481,0,0,2.028,5.812-5.874,15.532-8.271-5.891-5.883-11.809-5.883-11.809,3.9-2.344,2.8-5.435,1.141-8.139l2.292-3.679a2.177,2.177,0,0,1,3.933.615Z" transform="translate(-52.698 -169.57)" fill="#ff8b7b"/>
      <path id="Path_695" data-name="Path 695" d="M104.687,195.362a2.177,2.177,0,0,0-3.96-.615l-.738,1.177h0c.061.781.1,1.422.088,1.756-.07,2.283,3.134,2.177,5.742,1.08A23.124,23.124,0,0,1,104.687,195.362Z" transform="translate(-53.114 -169.566)" opacity="0.2"/>
      <path id="Path_696" data-name="Path 696" d="M87.168,183.837c2.283,6.225,3.108,8.912,7.287,11.212,6.278,3.468,13.425-.694,13.056-7.481-.334-6.1-4-15.268-10.966-15.944a9.052,9.052,0,0,0-9.377,12.213Z" transform="translate(-51.478 -166.864)" fill="#ff8b7b"/>
      <path id="Path_697" data-name="Path 697" d="M102.941,174.317c-2.142-2.063-4.39-4.46-8.692-3.995-4.759.518-6.638,3.4-6.638,3.4l-4.091,8.947s2.537,11.519,6.725,6.146c2.414-3.108,2.476-7.805,1.6-11.317a28.377,28.377,0,0,0,4.847-1.124,5.4,5.4,0,0,0,5.707-.755c.351-.325.606-.579.79-.781l.149-.167C103.811,174.062,103.415,174.124,102.941,174.317Zm-5.531,1.861a45.8,45.8,0,0,1,4.566-1.22,4.5,4.5,0,0,1-4.566,1.22Z" transform="translate(-51.104 -166.704)" fill="#2e2e2e"/>
      <path id="Path_698" data-name="Path 698" d="M87.555,192.273a4.864,4.864,0,0,0,2.976,2.221c1.651.413,2.432-1.071,1.932-2.634-.448-1.378-1.844-3.257-3.512-2.994a2.186,2.186,0,0,0-1.4,3.407Z" transform="translate(-51.548 -168.971)" fill="#ff8b7b"/>
      <path id="Path_699" data-name="Path 699" d="M102.575,255.962s-.878,53.022,6.049,72.18C115.3,346.51,135.2,378.083,135.2,378.083l11.537-.29S128.406,337.8,125.412,322c-4.987-26.226-3.89-72-3.89-72Z" transform="translate(-53.425 -176.432)" fill="#2b388f"/>
      <path id="Path_700" data-name="Path 700" d="M114.38,260.536l3.1-8.78L122.967,250s-.5,20.835.7,42.443C118.691,282.855,114.38,265.295,114.38,260.536Z" transform="translate(-54.869 -176.432)" opacity="0.3"/>
      <path id="Path_701" data-name="Path 701" d="M137.594,395.9l14.25-.36-.825-4.381-15.558.738Z" transform="translate(-57.441 -193.653)" fill="#263238"/>
      <path id="Path_702" data-name="Path 702" d="M109,253.94s18,41.169,29.633,64.6c9.395,18.93,38.632,44.321,38.632,44.321l8.016-5.558s-22-30.08-28.491-42.917c-20.765-41.073-15.646-58-27.587-66.93Z" transform="translate(-54.213 -176.122)" fill="#2b388f"/>
      <path id="Path_703" data-name="Path 703" d="M186.864,380.418l9.412-6.7-2.134-4.109L183.8,377.433Z" transform="translate(-63.338 -191.024)" fill="#263238"/>
      <path id="Path_704" data-name="Path 704" d="M128.241,245.576l1.9,1.949c.149.149,0,.4-.307.5L102.691,256.6a.45.45,0,0,1-.518-.114l-.966-2.248c-.07-.149.088-.351.342-.43l26.208-8.3a.492.492,0,0,1,.483.061Z" transform="translate(-53.26 -175.88)" fill="#263238"/>
      <path id="Path_705" data-name="Path 705" d="M128.776,249.718l.7-.219c.14,0,.228-.158.184-.237l-1.273-2.906a.272.272,0,0,0-.325-.079l-.7.228c-.14.044-.228.149-.184.237l1.282,2.9C128.487,249.727,128.627,249.762,128.776,249.718Z" transform="translate(-56.429 -175.975)" fill="#2b388f"/>
      <path id="Path_706" data-name="Path 706" d="M104.966,257.25l.7-.219c.14-.044.219-.149.184-.237l-1.282-2.906c0-.088-.184-.114-.325-.07l-.7.219c-.132.044-.22.149-.184.237l1.282,2.906a.281.281,0,0,0,.325.07Z" transform="translate(-53.524 -176.895)" fill="#2b388f"/>
      <path id="Path_707" data-name="Path 707" d="M116.866,253.52l.7-.219c.14-.044.228-.149.184-.237l-1.282-2.906c0-.079-.176-.114-.316-.07l-.7.22a.187.187,0,0,0-.184.237l1.273,2.906C116.585,253.52,116.726,253.52,116.866,253.52Z" transform="translate(-54.976 -176.44)" fill="#2b388f"/>
      <path id="Path_708" data-name="Path 708" d="M99.682,183.842c.158.518.553.878.878.755a.88.88,0,0,0,.325-1.115c-.158-.509-.544-.878-.878-.755S99.532,183.306,99.682,183.842Z" transform="translate(-53.069 -168.222)" fill="#263238"/>
      <path id="Path_709" data-name="Path 709" d="M106.332,181.842c.158.518.553.878.878.755s.483-.6.334-1.115-.553-.878-.878-.755S106.183,181.324,106.332,181.842Z" transform="translate(-53.88 -167.978)" fill="#263238"/>
      <path id="Path_710" data-name="Path 710" d="M106.56,180.709l1.133-.729S107.35,181.139,106.56,180.709Z" transform="translate(-53.915 -167.889)" fill="#263238"/>
      <path id="Path_711" data-name="Path 711" d="M104.68,183.53a14.689,14.689,0,0,0,2.827,2.748,2.344,2.344,0,0,1-1.756.878Z" transform="translate(-53.686 -168.323)" fill="#ff5652"/>
      <path id="Path_712" data-name="Path 712" d="M103.334,190.771a.158.158,0,0,0,.053-.167.167.167,0,0,0-.193-.114,4.232,4.232,0,0,1-3.811-.606.162.162,0,1,0-.211.246,4.548,4.548,0,0,0,4.109.667Z" transform="translate(-53.007 -169.093)" fill="#263238"/>
      <path id="Path_713" data-name="Path 713" d="M97.107,182.042a.325.325,0,0,0,.088-.14,2.537,2.537,0,0,1,1.642-1.589.316.316,0,1,0-.132-.615,3.108,3.108,0,0,0-2.1,2.019.316.316,0,0,0,.184.413A.36.36,0,0,0,97.107,182.042Z" transform="translate(-52.698 -167.853)" fill="#263238"/>
      <path id="Path_714" data-name="Path 714" d="M107.934,178.161a.22.22,0,0,1,0-.061.334.334,0,0,0-.255-.369,3.17,3.17,0,0,0-2.792.755.317.317,0,1,0,.457.439,2.511,2.511,0,0,1,2.213-.571A.325.325,0,0,0,107.934,178.161Z" transform="translate(-53.7 -167.607)" fill="#263238"/>
      <path id="Path_715" data-name="Path 715" d="M127.246,208.86c1.045.781,1.923,1.51,2.836,2.3s1.756,1.58,2.634,2.406c1.712,1.651,3.363,3.372,4.926,5.18a58.4,58.4,0,0,1,4.39,5.733c.351.492.658,1.027.983,1.536s.65,1.027.939,1.572.6,1.027.878,1.633l.465.975.378.983a23.153,23.153,0,0,1,1.124,7.726,42.741,42.741,0,0,1-.781,7.252,64.244,64.244,0,0,1-1.756,6.884,67.144,67.144,0,0,1-2.476,6.629l-3.178-1.177c.544-2.107,1.062-4.32,1.449-6.506a62.243,62.243,0,0,0,.939-6.55,42.513,42.513,0,0,0,.149-6.409,25.578,25.578,0,0,0-.369-3.02,17.378,17.378,0,0,0-.8-2.7l-.272-.606-.3-.553c-.237-.4-.562-.878-.878-1.326s-.579-.878-.878-1.326-.606-.878-.939-1.3c-1.282-1.756-2.731-3.354-4.171-4.978s-3.02-3.152-4.627-4.645c-.79-.755-1.607-1.493-2.423-2.213s-1.695-1.44-2.45-2.055Z" transform="translate(-55.926 -171.413)" fill="#ff8b7b"/>
      <path id="Path_716" data-name="Path 716" d="M141.251,263l-4.811,3.512,6.146,3.249s1.835-3.249,1.247-5.962Z" transform="translate(-57.56 -178.018)" fill="#ff8b7b"/>
      <path id="Path_717" data-name="Path 717" d="M134.71,272.7l5.031,1.554,2.678-3.986-6.19-3.249Z" transform="translate(-57.349 -178.508)" fill="#ff8b7b"/>
      <path id="Path_718" data-name="Path 718" d="M122.614,201.8c3.363-.149,9.974,8.113,9.974,8.113l-6.866,9.711s-7.709-6.146-8.306-10.422C116.916,205.558,118.33,201.975,122.614,201.8Z" transform="translate(-55.228 -170.551)" fill="#2b388f"/>
      <path id="Path_719" data-name="Path 719" d="M122.614,201.8c3.363-.149,9.974,8.113,9.974,8.113l-6.866,9.711s-7.709-6.146-8.306-10.422C116.916,205.558,118.33,201.975,122.614,201.8Z" transform="translate(-55.228 -170.551)" fill="#002479"/>
      <path id="Path_720" data-name="Path 720" d="M191.518,389.208h-.105a.878.878,0,0,1-.7-.536.562.562,0,0,1,0-.544c.43-.738,2.845-.878,3.117-.878a.167.167,0,0,1,.149.088.158.158,0,0,1,0,.176C193.388,388.163,192.343,389.208,191.518,389.208Zm1.932-1.607c-.966.07-2.248.3-2.467.685a.211.211,0,0,0,0,.237.588.588,0,0,0,.457.369c.465.053,1.2-.43,2.011-1.291Z" transform="translate(-64.173 -193.176)" fill="#2b388f"/>
      <path id="Path_721" data-name="Path 721" d="M193.7,387.354c-.808,0-2.4-.448-2.7-1.1a.571.571,0,0,1,.176-.667.878.878,0,0,1,.676-.22c.957.105,2.09,1.659,2.134,1.756a.149.149,0,0,1,0,.158.167.167,0,0,1-.123.088Zm-1.949-1.668a.5.5,0,0,0-.351.14c-.149.132-.132.237-.105.307a3.222,3.222,0,0,0,2.256.878c-.4-.5-1.159-1.291-1.756-1.352Z" transform="translate(-64.212 -192.946)" fill="#2b388f"/>
      <path id="Path_722" data-name="Path 722" d="M141.509,405.957a2.634,2.634,0,0,1-1.545-.369.992.992,0,0,1-.4-.764.474.474,0,0,1,.2-.43c.72-.483,3.415.737,3.951.992a.149.149,0,0,1,.088.158.158.158,0,0,1-.123.14,10.9,10.9,0,0,1-2.169.272Zm-1.256-1.37a.606.606,0,0,0-.316.07.158.158,0,0,0-.061.149.676.676,0,0,0,.281.527,4.391,4.391,0,0,0,2.976.141A9.659,9.659,0,0,0,140.253,404.588Z" transform="translate(-57.941 -195.254)" fill="#2b388f"/>
      <path id="Path_723" data-name="Path 723" d="M143.836,405.465h-.053c-.878-.369-2.7-1.817-2.634-2.564,0-.158.132-.369.536-.413,1.58-.193,2.248,2.634,2.274,2.792a.167.167,0,0,1-.053.158A.14.14,0,0,1,143.836,405.465Zm-1.94-2.678h-.105c-.167,0-.255.07-.272.149-.053.43,1.194,1.58,2.107,2.081C143.389,404.324,142.818,402.787,141.9,402.787Z" transform="translate(-58.135 -195.034)" fill="#2b388f"/>
      <path id="Path_724" data-name="Path 724" d="M99.91,182.689l1.133-.729S100.7,183.119,99.91,182.689Z" transform="translate(-53.104 -168.131)" fill="#263238"/>
    </g>
    <g id="freepik--Account--inject-65" transform="translate(115.766 103)">
      <path id="Path_725" data-name="Path 725" d="M269.5,109.67H141.9a9.983,9.983,0,0,0-10.036,10.536l11.967,248.1a11.212,11.212,0,0,0,11.045,10.536h127.6A9.974,9.974,0,0,0,292.507,368.3l-11.958-248.1A11.212,11.212,0,0,0,269.5,109.67Z" transform="translate(-131.852 -109.67)"/>
      <path id="Path_726" data-name="Path 726" d="M274.869,109.67H147.235a9.974,9.974,0,0,0-10.027,10.536l11.958,248.1a11.212,11.212,0,0,0,11.045,10.536h127.6A9.974,9.974,0,0,0,297.838,368.3l-11.958-248.1a11.212,11.212,0,0,0-11.01-10.536Z" transform="translate(-132.504 -109.67)" fill="#263238"/>
      <path id="Path_727" data-name="Path 727" d="M160.829,372.79a3.784,3.784,0,0,1-3.679-3.512l-11.941-248.1a3.354,3.354,0,0,1,3.345-3.512h127.6a3.767,3.767,0,0,1,3.679,3.512l11.958,248.1a3.354,3.354,0,0,1-3.336,3.512Z" transform="translate(-133.482 -110.646)" fill="#2b388f"/>
      <path id="Path_728" data-name="Path 728" d="M161.012,371.278a1.914,1.914,0,0,1-1.844-1.756l-11.958-248.1a1.695,1.695,0,0,1,1.668-1.756h127.6a1.905,1.905,0,0,1,1.844,1.756l11.958,248.1a1.695,1.695,0,0,1-1.668,1.756Z" transform="translate(-133.726 -110.89)" opacity="0.1"/>
      <g id="Group_1938" data-name="Group 1938" transform="translate(35.964 202.537)" opacity="0.3">
        <path id="Path_729" data-name="Path 729" d="M202.645,383.943H177.367a2.739,2.739,0,0,1-2.7-2.581l-1.844-38.377a2.467,2.467,0,0,1,2.485-2.634h25.322a2.722,2.722,0,0,1,2.7,2.573l1.817,38.386a2.476,2.476,0,0,1-2.494,2.634Zm-27.376-42.7a1.633,1.633,0,0,0-1.177.492,1.66,1.66,0,0,0-.439,1.2l1.853,38.369a1.853,1.853,0,0,0,1.826,1.756h25.313a1.607,1.607,0,0,0,1.616-1.7l-1.853-38.377a1.844,1.844,0,0,0-1.817-1.756Z" transform="translate(-172.814 -340.35)" fill="#fafafa"/>
        <path id="Path_730" data-name="Path 730" d="M200.706,351.4H176.939a.439.439,0,0,1,0-.878h23.794a.439.439,0,0,1,0,.878Z" transform="translate(-173.263 -341.591)" fill="#fafafa"/>
        <path id="Path_731" data-name="Path 731" d="M200.982,357.048h-23.8a.448.448,0,0,1-.439-.439.439.439,0,0,1,.439-.439h23.8a.439.439,0,0,1,.439.439A.448.448,0,0,1,200.982,357.048Z" transform="translate(-173.293 -342.28)" fill="#fafafa"/>
        <path id="Path_732" data-name="Path 732" d="M201.252,362.7h-23.8a.448.448,0,0,1-.439-.439.439.439,0,0,1,.439-.439h23.8a.439.439,0,1,1,0,.878Z" transform="translate(-173.326 -342.969)" fill="#fafafa"/>
        <path id="Path_733" data-name="Path 733" d="M201.523,368.348H177.729a.439.439,0,1,1,0-.878h23.794a.439.439,0,1,1,0,.878Z" transform="translate(-173.36 -343.659)" fill="#fafafa"/>
        <path id="Path_734" data-name="Path 734" d="M201.793,374H178a.439.439,0,1,1,0-.878h23.794a.439.439,0,1,1,0,.878Z" transform="translate(-173.393 -344.348)" fill="#fafafa"/>
        <path id="Path_735" data-name="Path 735" d="M197.19,379.648H178.269a.439.439,0,0,1,0-.878H197.19a.439.439,0,0,1,.439.439.448.448,0,0,1-.439.439Z" transform="translate(-173.426 -345.037)" fill="#fafafa"/>
      </g>
      <g id="Group_1939" data-name="Group 1939" transform="translate(27.058 83.84)" opacity="0.3">
        <path id="Path_736" data-name="Path 736" d="M217.343,226.645l-17.358,2.774a20.194,20.194,0,0,0-2.634-4.627,12.423,12.423,0,0,0-3.626-2.634l.65,13.609q14.478,3.811,19.483,8.042a19.544,19.544,0,0,1,7.024,14.443,19.149,19.149,0,0,1-1.73,9.43,21.4,21.4,0,0,1-5.487,7.156A22.012,22.012,0,0,1,206.315,279a36.236,36.236,0,0,1-9.746,1.528l.114,2.4a3.24,3.24,0,0,1-3.266,3.433h0a3.644,3.644,0,0,1-3.6-3.433l-.114-2.4a44.348,44.348,0,0,1-11.317-2.23,24.25,24.25,0,0,1-7.647-4.487,23.706,23.706,0,0,1-5.145-6.19,29.852,29.852,0,0,1-2.924-8.016l18.886-2.2a18.374,18.374,0,0,0,2.634,6.717,12.687,12.687,0,0,0,4.9,3.67l-.8-16.612a92.911,92.911,0,0,1-13.7-4.566,19.254,19.254,0,0,1-7.182-6.19A18.6,18.6,0,0,1,164,230.042a17.753,17.753,0,0,1,5.18-14q5.584-5.628,17.121-6.234l-.061-1.22a3.24,3.24,0,0,1,3.266-3.433h0a3.644,3.644,0,0,1,3.6,3.433l.061,1.22q10.536.658,16.34,4.987A21.3,21.3,0,0,1,217.343,226.645Zm-30.467-4.7a8.262,8.262,0,0,0-4.065,2.45,5.163,5.163,0,0,0-1.01,3.451,6.023,6.023,0,0,0,1.37,3.617,9.4,9.4,0,0,0,4.293,2.573Zm9.1,46.288a10.122,10.122,0,0,0,5.707-2.95,6.357,6.357,0,0,0,1.633-4.6,6.524,6.524,0,0,0-1.756-4.083c-1.106-1.238-3.214-2.4-6.3-3.459Z" transform="translate(-162.67 -205.16)" fill="#fafafa"/>
      </g>
      <path id="Path_737" data-name="Path 737" d="M265.122,146.56H178.2l8.473,175.7a28.447,28.447,0,0,0,28.1,26.814h86.922l-8.464-175.7A28.43,28.43,0,0,0,265.122,146.56Z" transform="translate(-137.507 -114.17)" opacity="0.2"/>
      <path id="Path_738" data-name="Path 738" d="M286.417,146.56H178.23a28.438,28.438,0,0,1,28.1,26.814l6.91,143.026a28.447,28.447,0,0,0,28.1,26.814h54.55A25.322,25.322,0,0,0,321.423,316.4l-6.9-143.026A28.43,28.43,0,0,0,286.417,146.56Z" transform="translate(-137.511 -114.17)" fill="#fafafa"/>
      <path id="Path_739" data-name="Path 739" d="M275.635,340a25.313,25.313,0,0,1-25.515,26.814H358.3A25.322,25.322,0,0,0,383.822,340Z" transform="translate(-146.281 -137.77)" fill="#e6e6e6"/>
      <path id="Path_740" data-name="Path 740" d="M307.885,247.116H231.429a2.116,2.116,0,0,1-2.09-1.993h0a1.888,1.888,0,0,1,1.9-1.993h76.456a2.116,2.116,0,0,1,2.125,1.993h0a1.888,1.888,0,0,1-1.932,1.993Z" transform="translate(-143.746 -125.952)" fill="#2b388f"/>
      <path id="Path_741" data-name="Path 741" d="M308.565,261.286H232.109a2.116,2.116,0,0,1-2.09-1.993h0a1.888,1.888,0,0,1,1.9-1.993h76.465a2.116,2.116,0,0,1,2.081,1.993h0a1.888,1.888,0,0,1-1.9,1.993Z" transform="translate(-143.829 -127.681)" fill="#2b388f"/>
      <path id="Path_742" data-name="Path 742" d="M309.254,275.446H232.789a2.116,2.116,0,0,1-2.09-1.993h0a1.888,1.888,0,0,1,1.9-1.993h76.509a2.116,2.116,0,0,1,2.09,1.993h0a1.888,1.888,0,0,1-1.94,1.993Z" transform="translate(-143.911 -129.408)" fill="#2b388f"/>
      <path id="Path_743" data-name="Path 743" d="M309.935,289.636H233.479a2.125,2.125,0,0,1-2.09-1.993h0a1.888,1.888,0,0,1,1.9-1.993h76.456a2.116,2.116,0,0,1,2.09,1.993h0a1.888,1.888,0,0,1-1.9,1.993Z" transform="translate(-143.996 -131.139)" fill="#2b388f"/>
      <path id="Path_744" data-name="Path 744" d="M280.219,303.806h-46.06a2.116,2.116,0,0,1-2.09-1.993h0a1.888,1.888,0,0,1,1.9-1.993h46.06a2.116,2.116,0,0,1,2.09,1.993h0a1.888,1.888,0,0,1-1.9,1.993Z" transform="translate(-144.079 -132.868)" fill="#2b388f"/>
      <ellipse id="Ellipse_61" data-name="Ellipse 61" cx="23.451" cy="24.61" rx="23.451" ry="24.61" transform="matrix(0.699, -0.716, 0.716, 0.699, 89.85, 77.774)" fill="#2b388f"/>
      <path id="Path_745" data-name="Path 745" d="M289.967,195.945a19.237,19.237,0,0,1-1.94,9.447,18.675,18.675,0,0,1-16.919,10.378,20.949,20.949,0,0,1-17.929-10.378,20.4,20.4,0,0,1-2.853-9.447,18.719,18.719,0,0,1,18.868-19.825,21.072,21.072,0,0,1,20.774,19.825Z" transform="translate(-146.302 -117.777)" fill="#fff"/>
      <path id="Path_746" data-name="Path 746" d="M288.428,208.728a18.675,18.675,0,0,1-16.919,10.378,20.949,20.949,0,0,1-17.929-10.378,30.028,30.028,0,0,1,17.174-5.268,32.486,32.486,0,0,1,17.674,5.268Z" transform="translate(-146.703 -121.112)" fill="#2b388f" opacity="0.4"/>
      <ellipse id="Ellipse_62" data-name="Ellipse 62" cx="8.622" cy="9.043" rx="8.622" ry="9.043" transform="matrix(0.699, -0.716, 0.716, 0.699, 111.014, 71.228)" fill="#2b388f" opacity="0.4"/>
    </g>
    <g id="freepik--character-male--inject-65" transform="translate(240.625 104.165)">
      <path id="Path_747" data-name="Path 747" d="M355.774,406.664H349.33l-.65-14.944h6.453Z" transform="translate(-283.164 -145.245)" fill="#b55b52"/>
      <path id="Path_748" data-name="Path 748" d="M348.69,391.73l.325,7.7h6.453l-.334-7.7Z" transform="translate(-283.165 -145.246)" opacity="0.2"/>
      <path id="Path_749" data-name="Path 749" d="M417.366,386.966l-6.128,2-7.718-13.2,6.137-2Z" transform="translate(-289.854 -143.055)" fill="#b55b52"/>
      <path id="Path_750" data-name="Path 750" d="M409.657,373.77l-6.137,2,3.986,6.8,6.128-2Z" transform="translate(-289.854 -143.055)" opacity="0.2"/>
      <path id="Path_751" data-name="Path 751" d="M380.542,162.92c.8.975,1.475,1.844,2.169,2.8s1.352,1.87,2.011,2.818c1.3,1.905,2.546,3.854,3.714,5.865a65.769,65.769,0,0,1,5.909,12.915l.149.439.07.228.1.36.176.72.1.659a13.17,13.17,0,0,1,.1,2.379,24.043,24.043,0,0,1-.579,3.977,46.533,46.533,0,0,1-2.2,6.866,79.747,79.747,0,0,1-6.286,12.292l-4.39-2.1c1.317-4.118,2.634-8.332,3.6-12.432a49.884,49.884,0,0,0,1.141-6.006,15.231,15.231,0,0,0,.1-2.634,5.265,5.265,0,0,0-.123-.931l-.044-.158a.819.819,0,0,1-.044-.088h0l-.07-.167-.14-.342-.588-1.378-.658-1.37c-.439-.878-.922-1.826-1.4-2.739-1-1.809-2.081-3.609-3.2-5.4s-2.318-3.512-3.512-5.268-2.5-3.512-3.688-5.1Z" transform="translate(-286.122 -117.331)" fill="#b55b52"/>
      <path id="Path_752" data-name="Path 752" d="M382.88,218.829l-2.52,5.575h7.208s1.15-4.232-1.466-5.944Z" transform="translate(-287.029 -124.107)" fill="#b55b52"/>
      <path id="Path_753" data-name="Path 753" d="M381.2,231.5l6.69-1.291-.325-4.978H380.36Z" transform="translate(-287.029 -124.933)" fill="#b55b52"/>
      <path id="Path_754" data-name="Path 754" d="M345.049,130.559c0,.527-.272.948-.615.948s-.615-.421-.615-.948.281-.939.615-.939S345.049,130.041,345.049,130.559Z" transform="translate(-282.571 -113.268)" fill="#263238"/>
      <path id="Path_755" data-name="Path 755" d="M344.655,131.77a18.438,18.438,0,0,1-2.485,4.443,3.011,3.011,0,0,0,2.485.474Z" transform="translate(-282.369 -113.531)" fill="#a02724"/>
      <path id="Path_756" data-name="Path 756" d="M346.94,127.248a.272.272,0,0,1-.176-.061,2.458,2.458,0,0,0-2.169-.4.307.307,0,0,1-.219-.571,3.029,3.029,0,0,1,2.748.474.316.316,0,0,1,.07.43.325.325,0,0,1-.255.123Z" transform="translate(-282.618 -112.836)" fill="#263238"/>
      <path id="Path_757" data-name="Path 757" d="M362.331,137.52c-.931,4.724-1.853,13.372,1.449,16.515,0,0-1.291,4.785-10.053,4.785-9.658,0-4.609-4.785-4.609-4.785,5.268-1.256,5.128-5.154,4.206-8.824Z" transform="translate(-283.056 -114.232)" fill="#b55b52"/>
      <path id="Path_758" data-name="Path 758" d="M365.068,157.574c.694-1.51,1.457-3.249-.123-3.793-1.756-.6-11.2-1.2-14.478-.079a3.372,3.372,0,0,0-2.336,4.2Z" transform="translate(-283.08 -116.13)" fill="#263238"/>
      <path id="Path_759" data-name="Path 759" d="M410.531,392.617c-.474.457-1.01.825-1.414.764a.632.632,0,0,1-.5-.527.7.7,0,0,1,.105-.588c.527-.817,2.634-1.168,2.748-1.177a.158.158,0,0,1,.149.061.149.149,0,0,1,0,.167,8.1,8.1,0,0,1-1.089,1.3Zm-1.431-.334a.877.877,0,0,0-.123.14.422.422,0,0,0-.061.351c.07.272.2.3.246.3.448.07,1.4-.878,1.993-1.616A5.067,5.067,0,0,0,409.1,392.284Z" transform="translate(-290.473 -145.167)" fill="#2b388f"/>
      <path id="Path_760" data-name="Path 760" d="M411.558,391.18l-.07.044c-.729.193-2.634.07-3.038-.544a.518.518,0,0,1,.07-.632.878.878,0,0,1,.606-.307c.966-.07,2.362,1.168,2.423,1.22a.141.141,0,0,1,.044.149.105.105,0,0,1-.035.07Zm-2.748-.983-.053.053c-.123.149-.07.228-.053.263.237.36,1.572.562,2.4.465a3.784,3.784,0,0,0-1.949-.931.518.518,0,0,0-.325.149Z" transform="translate(-290.446 -145.003)" fill="#2b388f"/>
      <path id="Path_761" data-name="Path 761" d="M346.182,408.894c-.825,0-1.624-.114-1.888-.483a.562.562,0,0,1,0-.667.764.764,0,0,1,.483-.36c1.071-.29,3.328.992,3.424,1.054a.14.14,0,0,1,.07.158.149.149,0,0,1-.114.123,11.791,11.791,0,0,1-1.975.176Zm-1.018-1.247a1.068,1.068,0,0,0-.3,0,.448.448,0,0,0-.3.211c-.105.193-.07.29,0,.342.3.413,1.932.421,3.126.255a6.865,6.865,0,0,0-2.529-.808Z" transform="translate(-282.615 -147.15)" fill="#2b388f"/>
      <path id="Path_762" data-name="Path 762" d="M348.364,408.505H348.3c-.773-.351-2.318-1.756-2.2-2.476,0-.176.149-.386.571-.43a1.168,1.168,0,0,1,.878.263,4.417,4.417,0,0,1,1,2.485.184.184,0,0,1-.07.14.149.149,0,0,1-.114.018Zm-1.572-2.634H346.7c-.281,0-.3.132-.3.167-.07.439.975,1.536,1.756,2.011a3.512,3.512,0,0,0-.878-1.984.808.808,0,0,0-.492-.176Z" transform="translate(-282.848 -146.937)" fill="#2b388f"/>
      <path id="Path_763" data-name="Path 763" d="M410.957,389.551l5.268-5.013a.553.553,0,0,1,.7-.061l4.882,3.266a.939.939,0,0,1,.105,1.475c-1.853,1.756-2.845,2.467-5.145,4.662-1.422,1.361-5.654,5.97-7.612,7.849s-4.065.176-3.433-.764c2.845-4.223,4.618-8.271,4.776-10.4a1.615,1.615,0,0,1,.457-1.01Z" transform="translate(-290.109 -144.349)" fill="#263238"/>
      <path id="Path_764" data-name="Path 764" d="M347.293,407.89h7.024a.553.553,0,0,1,.544.439l1.273,5.733a.931.931,0,0,1-.922,1.141c-2.546,0-6.216-.184-9.412-.184-3.731,0-6.954.2-11.335.2-2.634,0-3.38-2.678-2.274-2.924,5.04-1.1,9.166-1.22,13.521-3.907A3.02,3.02,0,0,1,347.293,407.89Z" transform="translate(-281.092 -147.217)" fill="#263238"/>
      <path id="Path_765" data-name="Path 765" d="M332.6,172.228c-2.564,3.775-5.207,7.3-8.051,10.791a121.271,121.271,0,0,1-9.14,10.079l-1.247,1.212-.316.3-.228.211-.334.237a8.519,8.519,0,0,1-1.326.878,11.818,11.818,0,0,1-4.785,1.343,26.944,26.944,0,0,1-7.6-.632,57.272,57.272,0,0,1-13.038-4.583l1.616-4.566a102.487,102.487,0,0,0,12.45,1.7,22.959,22.959,0,0,0,5.505-.228,3.512,3.512,0,0,0,1.457-.571c.044,0,0-.053,0-.053h0l.07-.07.255-.29,1.045-1.141c2.739-3.126,5.4-6.462,7.981-9.869s5.171-6.9,7.639-10.308Z" transform="translate(-275.581 -117.788)" fill="#b55b52"/>
      <path id="Path_766" data-name="Path 766" d="M377.988,157.972c6.041,1.387,12.977,17.867,12.977,17.867l-12.143,8.323a101.786,101.786,0,0,1-8-13.644C367.224,162.977,371.807,156.55,377.988,157.972Z" transform="translate(-285.71 -116.703)" fill="#2b388f"/>
      <path id="Path_767" data-name="Path 767" d="M374.22,170l5.742,15.286-.571.4s-2.485-3.512-5.171-8.192Z" transform="translate(-286.28 -118.195)" opacity="0.3"/>
      <path id="Path_768" data-name="Path 768" d="M337.56,158.092s-6.866,7.753-.378,55.753h34.5c.237-5.268-3.091-31.134,2.019-56.087a90.312,90.312,0,0,0-11.554-1.457,127.543,127.543,0,0,0-14.663,0A64.535,64.535,0,0,0,337.56,158.092Z" transform="translate(-281.421 -116.498)" fill="#2b388f"/>
      <path id="Path_769" data-name="Path 769" d="M341.388,174.18a30.607,30.607,0,0,1-6.813,14.768c-.14-3.091-.193-5.865-.184-8.35Z" transform="translate(-281.42 -118.705)" opacity="0.3"/>
      <path id="Path_770" data-name="Path 770" d="M342.516,163.585c.878,6.1-11.186,21.7-11.186,21.7l-12.09-8.323s3.354-8.6,9-14.232C334.693,156.272,341.594,156.939,342.516,163.585Z" transform="translate(-279.572 -116.758)" fill="#2b388f"/>
      <path id="Path_771" data-name="Path 771" d="M287.961,190.32l-4.732-4.89-5.049,6.506s3.846,3.714,8.42,2.634Z" transform="translate(-274.563 -120.077)" fill="#b55b52"/>
      <path id="Path_772" data-name="Path 772" d="M276.229,182.33l-2.169,6.831,3.617,2.371,5.048-6.506Z" transform="translate(-274.06 -119.699)" fill="#b55b52"/>
      <path id="Path_773" data-name="Path 773" d="M362.453,128.136c-.4,6.383-.3,10.15-3.512,13.425-4.855,4.934-12.74,2.011-14.259-4.39-1.378-5.742-.5-15.225,5.751-17.762a8.727,8.727,0,0,1,12.02,8.727Z" transform="translate(-282.607 -111.943)" fill="#b55b52"/>
      <path id="Path_774" data-name="Path 774" d="M366.55,113.853c1.967,1.809,1.133,3.828.105,4.206,3.187.659,3.652,3.2,1.975,8.552-1.6,5.128-5.47,12-10.308,12.424-7.27.632-9.395-6.945-9.447-14.461-4.109.255-2.335-3.389-7.384-2.546-4.39.729-2.739-2.7-6.471-4.188-4.329-1.756-3.459-8.385.579-6.48,0,0-1.87,1.229.307,2.388s1.967-1.519,6.278-1.844,4.811,3.363,9.851,1.141C358.358,110.253,362.511,110.122,366.55,113.853Z" transform="translate(-281.147 -110.996)" fill="#263238"/>
      <path id="Path_775" data-name="Path 775" d="M368.57,118.835a2.52,2.52,0,0,1,2.8-1.1c1.975.421,2.133,1.291,3.371,1.177s.79,1.2.79,1.2-.334-.992-1.826-.439-2.467-.8-3.108-.193S368.57,118.835,368.57,118.835Z" transform="translate(-285.59 -111.808)" fill="#263238"/>
      <path id="Path_776" data-name="Path 776" d="M354.394,131.017a7.155,7.155,0,0,1-2.256,4.056c-1.563,1.387-2.915.272-2.968-1.624,0-1.712.729-4.5,2.529-5.171S354.719,129.121,354.394,131.017Z" transform="translate(-283.223 -113.085)" fill="#b55b52"/>
      <path id="Path_777" data-name="Path 777" d="M351.5,221.865s7.323,49.282,11.344,67.72c4.39,20.194,34.988,73.928,34.988,73.928l11.238-3.652s-24.365-48.413-26.876-68.44c-2.731-21.73-8.429-69.59-8.429-69.59Z" transform="translate(-283.508 -124.518)" fill="#002479"/>
      <path id="Path_778" data-name="Path 778" d="M400.69,378.651c-.044,0,2.573,3.933,2.573,3.933l12.626-4.109L414.4,374.7Z" transform="translate(-289.509 -143.168)" fill="#2b388f"/>
      <path id="Path_779" data-name="Path 779" d="M356.505,241.86c8.464,1.659,7.568,33.224,6.55,49.458-2.441-11.475-6.014-33.557-8.455-49.229a2.889,2.889,0,0,1,1.905-.228Z" transform="translate(-283.886 -126.953)" opacity="0.3"/>
      <path id="Path_780" data-name="Path 780" d="M337.507,221.87s-.878,48.229-.193,67.9c.729,20.457,7.9,87.449,7.9,87.449h10.931s.4-65.8.878-85.886c.527-21.95,3.17-69.459,3.17-69.459Z" transform="translate(-281.745 -124.523)" fill="#002479"/>
      <path id="Path_781" data-name="Path 781" d="M343.93,393.84c-.053,0,.615,4.539.615,4.539h13.293l.36-4.048Z" transform="translate(-282.584 -145.503)" fill="#2b388f"/>
    </g>
  </g>
</svg>
