<?xml version="1.0" encoding="utf-8"?>
<!-- Generator: Adobe Illustrator 18.0.0, SVG Export Plug-In . SVG Version: 6.00 Build 0)  -->
<!DOCTYPE svg PUBLIC "-//W3C//DTD SVG 1.1//EN" "http://www.w3.org/Graphics/SVG/1.1/DTD/svg11.dtd">
<svg version="1.1" id="Layer_1" xmlns="http://www.w3.org/2000/svg" xmlns:xlink="http://www.w3.org/1999/xlink" x="0px" y="0px"
	 viewBox="0 0 36 36" enable-background="new 0 0 36 36" xml:space="preserve">
<g>
	<g>
		<g>
			<g>
				<g>
					<path fill="#D34178" d="M29.6,23.4c-0.2,3.8-4.9,5.2-7.2,2.3c-2.2,2.5-6,2.5-8.2-0.1c-2.5,0.6-5.2-1.2-5-4.4
						c-4-1.7-4.4-7.3-0.7-9.5c-2.2-4,1.5-8.8,6-7.8c2-2.4,5.6-2.6,7.8-0.6c3.4-2,7.6,0.2,8.1,4c3.3,0.5,4.5,4.6,2.2,6.9
						C35.5,17.4,33.8,22.7,29.6,23.4z"/>
				</g>
			</g>
		</g>
	</g>
	<g>
		<g>
			<g>
				<g>
					<g>
						<circle fill="#D34178" cx="9.1" cy="28.5" r="2.8"/>
					</g>
				</g>
			</g>
		</g>
		<g>
			<g>
				<g>
					<g>
						<path fill="#BC3267" d="M11.9,28.5c0,1.6-1.3,2.8-2.8,2.8c-1,0-1.9-0.5-2.4-1.3c0.4,0.3,0.9,0.4,1.5,0.4
							c1.6,0,2.8-1.3,2.8-2.8c0-0.5-0.2-1.1-0.4-1.5C11.4,26.7,11.9,27.6,11.9,28.5z"/>
					</g>
				</g>
			</g>
		</g>
		<g>
			<g>
				<g>
					<g>
						
							<ellipse transform="matrix(0.9456 -0.3253 0.3253 0.9456 -8.2819 4.168)" fill="#E84E89" cx="8.3" cy="26.9" rx="0.8" ry="0.4"/>
					</g>
				</g>
			</g>
		</g>
	</g>
	<g>
		<g>
			<g>
				<g>
					<g>
						<path fill="#E84E89" d="M16.3,9c-1.6,0.5-3.1,0.3-3.4-0.5c-0.3-0.8,0.7-1.9,2.3-2.5c1.6-0.5,3.1-0.3,3.4,0.5
							C18.9,7.3,17.9,8.4,16.3,9z"/>
					</g>
				</g>
			</g>
		</g>
	</g>
	<g>
		<g>
			<g>
				<g>
					<g>
						<circle fill="#D34178" cx="4.1" cy="31.9" r="2.1"/>
					</g>
				</g>
			</g>
		</g>
		<g>
			<g>
				<g>
					<g>
						<path fill="#BC3267" d="M6.2,31.9c0,1.2-0.9,2.1-2.1,2.1c-0.8,0-1.4-0.4-1.8-1c0.3,0.2,0.7,0.3,1.1,0.3c1.2,0,2.1-1,2.1-2.1
							c0-0.4-0.1-0.8-0.3-1.1C5.8,30.5,6.2,31.1,6.2,31.9z"/>
					</g>
				</g>
			</g>
		</g>
		<g>
			<g>
				<g>
					<g>
						
							<ellipse transform="matrix(0.9456 -0.3253 0.3253 0.9456 -9.8037 2.8269)" fill="#E84E89" cx="3.6" cy="30.7" rx="0.5" ry="0.3"/>
					</g>
				</g>
			</g>
		</g>
	</g>
	<g>
		<g>
			<g>
				<g>
					<path fill="#BC3267" d="M29.6,23.4c-0.2,3.8-4.9,5.2-7.3,2.3c-2.2,2.5-6,2.5-8.2-0.1c-1.9,0.5-4.1-0.6-4.8-2.6
						c6.5,1.3,20,1.9,23.1-14.5c1.5,1.5,1.7,4.1,0,5.8C35.5,17.4,33.8,22.7,29.6,23.4z"/>
				</g>
			</g>
		</g>
	</g>
</g>
</svg>
