<?xml version="1.0" encoding="utf-8"?>
<!-- Generator: Adobe Illustrator 18.0.0, SVG Export Plug-In . SVG Version: 6.00 Build 0)  -->
<!DOCTYPE svg PUBLIC "-//W3C//DTD SVG 1.1//EN" "http://www.w3.org/Graphics/SVG/1.1/DTD/svg11.dtd">
<svg version="1.1" id="Layer_1" xmlns="http://www.w3.org/2000/svg" xmlns:xlink="http://www.w3.org/1999/xlink" x="0px" y="0px"
	 viewBox="0 0 36 36" enable-background="new 0 0 36 36" xml:space="preserve">
<g>
	<g>
		<g>
			<g>
				<g>
					<g>
						<path fill="#D34178" d="M30.6,34H5.4C3.5,34,2,32.5,2,30.6V5.4C2,3.5,3.5,2,5.4,2h25.2C32.5,2,34,3.5,34,5.4v25.2
							C34,32.5,32.5,34,30.6,34z"/>
					</g>
				</g>
			</g>
		</g>
	</g>
	<g>
		<g>
			<g>
				<g>
					<g>
						<path fill="#E84E89" d="M27.8,2c-1.2,5.2-4.3,10.8-9.1,15.6C13.6,22.7,7.5,25.9,2,26.9V5.4C2,3.5,3.5,2,5.4,2H27.8z"/>
					</g>
				</g>
			</g>
		</g>
	</g>
	<g>
		<g>
			<g>
				<g>
					<g>
						<path fill="#FFFFFF" d="M18,5.1C10.9,5.1,5.1,10.9,5.1,18c0,7.1,5.8,12.9,12.9,12.9S30.9,25.1,30.9,18
							C30.9,10.9,25.1,5.1,18,5.1z M27.9,18c0,1.6-0.4,3.1-1,4.4l-7.4-4.9V8.2C24.3,8.9,27.9,13,27.9,18z M16.5,8.2v9.3l-7.4,4.9
							c-0.7-1.3-1-2.8-1-4.4C8.1,13,11.7,8.9,16.5,8.2z M10.8,24.8l5.7-3.7v6.7C14.3,27.4,12.3,26.4,10.8,24.8z M19.5,27.8v-6.7
							l5.7,3.7C23.7,26.4,21.7,27.4,19.5,27.8z"/>
					</g>
				</g>
			</g>
		</g>
	</g>
</g>
</svg>
