<?xml version="1.0" encoding="utf-8"?>
<!-- Generator: Adobe Illustrator 18.0.0, SVG Export Plug-In . SVG Version: 6.00 Build 0)  -->
<!DOCTYPE svg PUBLIC "-//W3C//DTD SVG 1.1//EN" "http://www.w3.org/Graphics/SVG/1.1/DTD/svg11.dtd">
<svg version="1.1" id="Layer_1" xmlns="http://www.w3.org/2000/svg" xmlns:xlink="http://www.w3.org/1999/xlink" x="0px" y="0px"
	 viewBox="0 0 36 36" enable-background="new 0 0 36 36" xml:space="preserve">
<g>
	<g>
		<g>
			<g>
				<g>
					<g>
						<path fill="#E08826" d="M30.5,31c-4.9,4-20.2,4-25,0c-4.9-4-4.4-21.1,0-25.6c4.4-4.5,20.6-4.5,25,0C34.9,9.9,35.4,27,30.5,31z
							"/>
					</g>
				</g>
			</g>
		</g>
	</g>
	<g>
		<g>
			<g>
				<g>
					<path fill="#F29A2F" d="M18.1,24c-4.4,3.5-9.3,5.3-13.9,5.4c-3.4-5.8-2.7-19.9,1.3-24C9.1,1.7,20.4,1,26.9,3.3
						C28.5,9.9,25.2,18.3,18.1,24z"/>
				</g>
			</g>
		</g>
	</g>
	<g>
		<g>
			<g>
				<g>
					<g>
						<path fill="#E9EFF4" d="M25.8,19.2l-6.3,8.2c-0.8,1-2.3,1-3,0l-6.3-8.2c-0.5-0.7-0.5-1.6,0-2.3l6.3-8.2c0.8-1,2.3-1,3,0
							l6.3,8.2C26.3,17.5,26.3,18.5,25.8,19.2z"/>
					</g>
				</g>
			</g>
		</g>
		<g>
			<g>
				<g>
					<g>
						<path fill="#FFFFFF" d="M22.2,12.2c-1.3,3.1-3.6,6.1-6.7,8.6c-0.9,0.7-1.8,1.3-2.7,1.8l-2.6-3.5c-0.5-0.7-0.5-1.6,0-2.3
							l6.3-8.2c0.8-1,2.3-1,3,0L22.2,12.2z"/>
					</g>
				</g>
			</g>
		</g>
	</g>
</g>
</svg>
