<?xml version="1.0" encoding="utf-8"?>
<!-- Generator: Adobe Illustrator 18.0.0, SVG Export Plug-In . SVG Version: 6.00 Build 0)  -->
<!DOCTYPE svg PUBLIC "-//W3C//DTD SVG 1.1//EN" "http://www.w3.org/Graphics/SVG/1.1/DTD/svg11.dtd">
<svg version="1.1" id="Layer_1" xmlns="http://www.w3.org/2000/svg" xmlns:xlink="http://www.w3.org/1999/xlink" x="0px" y="0px"
	 viewBox="0 0 36 36" enable-background="new 0 0 36 36" xml:space="preserve">
<g>
	<g>
		<g>
			<g>
				<g>
					<g>
						<g>
							<path fill="#E08826" d="M30.5,31c-4.9,4-20.2,4-25,0c-4.9-4-4.4-21.1,0-25.6c4.4-4.5,20.6-4.5,25,0C34.9,9.9,35.4,27,30.5,31
								z"/>
						</g>
					</g>
				</g>
			</g>
		</g>
		<g>
			<g>
				<g>
					<g>
						<path fill="#F29A2F" d="M18.1,24c-4.4,3.5-9.3,5.3-13.9,5.4c-3.4-5.8-2.7-19.9,1.3-24C9.1,1.7,20.4,1,26.9,3.3
							C28.5,9.9,25.2,18.3,18.1,24z"/>
					</g>
				</g>
			</g>
		</g>
	</g>
	<g>
		<g>
			<g>
				<g>
					<g>
						<path fill="#FFFFFF" d="M25,11.9c0.4,0,0.6-0.2,0.6-0.8c0-0.3-0.3-0.6-0.6-0.6H14.7c0.3-0.5,0.7-1,0.9-1.6
							c0.1-0.3,0-0.7-0.4-0.9c-0.3-0.1-0.7,0-0.9,0.4c-1,2.4-3.3,3.3-3.3,3.3c-0.3,0.1-0.5,0.5-0.4,0.9c0.1,0.3,0.5,0.5,0.9,0.4
							c0,0,0.5-0.2,1.1-0.5v3.3H11c-0.3,0-0.6,0.3-0.6,0.6c0,0.5,0.3,0.8,0.6,0.8h1.5V21H11c-0.3,0-0.6,0.3-0.6,0.6
							c0,0.5,0.3,0.8,0.6,0.8h14c0.4,0,0.6-0.2,0.6-0.8c0-0.3-0.3-0.6-0.6-0.6h-1v-3.8h1c0.4,0,0.6-0.2,0.6-0.8
							c0-0.3-0.3-0.6-0.6-0.6h-1v-3.8H25z M17.3,15.7v-3.8h1.9v3.8H17.3z M19.2,17.1V21h-1.9v-3.8H19.2z M14,11.9h1.9v3.8H14V11.9z
							 M14,17.1h1.9V21H14V17.1z M22.6,21h-1.9v-3.8h1.9V21z M22.6,15.7h-1.9v-3.8h1.9V15.7z"/>
					</g>
				</g>
			</g>
		</g>
		<g>
			<g>
				<g>
					<g>
						<path fill="#FFFFFF" d="M22.7,24.1c-0.2-0.3-0.6-0.4-0.9-0.1c-0.3,0.2-0.4,0.6-0.1,0.9l2.1,2.9c0.2,0.3,0.6,0.4,0.9,0.1
							c0.3-0.2,0.4-0.6,0.1-0.9L22.7,24.1z"/>
					</g>
				</g>
			</g>
		</g>
		<g>
			<g>
				<g>
					<g>
						<path fill="#FFFFFF" d="M20,24.3c-0.1-0.4-0.4-0.6-0.8-0.5c-0.4,0.1-0.6,0.4-0.5,0.8l0.7,2.9c0.1,0.4,0.4,0.6,0.8,0.5
							c0.4-0.1,0.6-0.4,0.5-0.8L20,24.3z"/>
					</g>
				</g>
			</g>
		</g>
		<g>
			<g>
				<g>
					<g>
						<path fill="#FFFFFF" d="M16.8,23.8c-0.4-0.1-0.7,0.1-0.8,0.5l-0.7,2.9c-0.1,0.4,0.1,0.7,0.5,0.8c0.4,0.1,0.7-0.1,0.8-0.5
							l0.7-2.9C17.3,24.3,17.1,23.9,16.8,23.8z"/>
					</g>
				</g>
			</g>
		</g>
		<g>
			<g>
				<g>
					<g>
						<path fill="#FFFFFF" d="M13.3,24.1l-2.1,2.9c-0.2,0.3-0.2,0.7,0.1,0.9c0.3,0.2,0.7,0.2,0.9-0.1l2.1-2.9
							c0.2-0.3,0.2-0.7-0.1-0.9C13.9,23.7,13.5,23.8,13.3,24.1z"/>
					</g>
				</g>
			</g>
		</g>
	</g>
</g>
</svg>
