<?xml version="1.0" encoding="utf-8"?>
<!-- Generator: Adobe Illustrator 18.0.0, SVG Export Plug-In . SVG Version: 6.00 Build 0)  -->
<!DOCTYPE svg PUBLIC "-//W3C//DTD SVG 1.1//EN" "http://www.w3.org/Graphics/SVG/1.1/DTD/svg11.dtd">
<svg version="1.1" id="Layer_1" xmlns="http://www.w3.org/2000/svg" xmlns:xlink="http://www.w3.org/1999/xlink" x="0px" y="0px"
	 viewBox="0 0 36 36" enable-background="new 0 0 36 36" xml:space="preserve">
<g>
	<g>
		<g>
			<g>
				<g>
					<g>
						<g>
							<path fill="#E08826" d="M30.5,31c-4.9,4-20.2,4-25,0c-4.9-4-4.4-21.1,0-25.6c4.4-4.5,20.6-4.5,25,0C34.9,9.9,35.4,27,30.5,31
								z"/>
						</g>
					</g>
				</g>
			</g>
		</g>
		<g>
			<g>
				<g>
					<g>
						<path fill="#F29A2F" d="M18.1,24c-4.4,3.5-9.3,5.3-13.9,5.4c-3.4-5.8-2.7-19.9,1.3-24C9.1,1.7,20.4,1,26.9,3.3
							C28.5,9.9,25.2,18.3,18.1,24z"/>
					</g>
				</g>
			</g>
		</g>
	</g>
	<g>
		<g>
			<g>
				<g>
					<g>
						<path fill="#FFFFFF" d="M19,25.6v-2.3h4.4c0.5,0,1-0.4,1-1l0,0c0-0.5-0.4-1-1-1H12.7c-0.5,0-1,0.4-1,1l0,0c0,0.5,0.4,1,1,1H17
							v2.3H9.3c-0.5,0-1,0.4-1,1l0,0c0,0.5,0.4,1,1,1h17.4c0.5,0,1-0.4,1-1l0,0c0-0.5-0.4-1-1-1H19z"/>
					</g>
				</g>
			</g>
		</g>
		<g>
			<g>
				<g>
					<g>
						<path fill="#FFFFFF" d="M10.5,19.7c0,0,0.1,0,0.1,0c1.8-0.3,5.3-2.1,5.9-6.6h2.8v4.5c0,1.2,0.9,2.1,2.1,2.1H23
							c1.2,0,2.1-0.9,2.1-2.1c0-0.5-0.4-0.8-0.8-0.8c-0.5,0-0.8,0.4-0.8,0.8c0,0.3-0.2,0.5-0.5,0.5h-1.6c-0.3,0-0.5-0.2-0.5-0.5
							v-4.5h2.9v1.4c0,0.5,0.4,1,1,1l0,0c0.5,0,1-0.4,1-1v-2.4c0-0.5-0.4-1-1-1H19V9.5c0-0.5-0.4-1-1-1l0,0c-0.5,0-1,0.4-1,1v1.7
							h-5.8c-0.5,0-1,0.4-1,1v2.4c0,0.5,0.4,1,1,1l0,0c0.5,0,1-0.4,1-1v-1.4h2.7c-0.6,4.2-4.3,4.9-4.5,5C10,18.1,9.7,18.5,9.7,19
							C9.8,19.4,10.2,19.7,10.5,19.7z"/>
					</g>
				</g>
			</g>
		</g>
	</g>
</g>
</svg>
