<?xml version="1.0" encoding="utf-8"?>
<!-- Generator: Adobe Illustrator 18.0.0, SVG Export Plug-In . SVG Version: 6.00 Build 0)  -->
<!DOCTYPE svg PUBLIC "-//W3C//DTD SVG 1.1//EN" "http://www.w3.org/Graphics/SVG/1.1/DTD/svg11.dtd">
<svg version="1.1" id="Layer_1" xmlns="http://www.w3.org/2000/svg" xmlns:xlink="http://www.w3.org/1999/xlink" x="0px" y="0px"
	 viewBox="0 0 36 36" enable-background="new 0 0 36 36" xml:space="preserve">
<g>
	<g>
		<g>
			<g>
				<g>
					<g>
						<g>
							<path fill="#E08826" d="M30.5,31c-4.9,4-20.2,4-25,0c-4.9-4-4.4-21.1,0-25.6c4.4-4.5,20.6-4.5,25,0C34.9,9.9,35.4,27,30.5,31
								z"/>
						</g>
					</g>
				</g>
			</g>
		</g>
		<g>
			<g>
				<g>
					<g>
						<path fill="#F29A2F" d="M18.1,24c-4.4,3.5-9.3,5.3-13.9,5.4c-3.4-5.8-2.7-19.9,1.3-24C9.1,1.7,20.4,1,26.9,3.3
							C28.5,9.9,25.2,18.3,18.1,24z"/>
					</g>
				</g>
			</g>
		</g>
	</g>
	<g>
		<g>
			<g>
				<g>
					<g>
						<path fill="#FFFFFF" d="M11.1,20.9c1.3,0,2-1.1,2-2.5v-5.3h2.1v5.4c0,2.9-1.8,4.3-4.1,4.3c-2.3,0-4.1-1.5-4.1-4.3v-5.4h2.1
							v5.3C9.1,19.8,9.8,20.9,11.1,20.9z"/>
					</g>
				</g>
			</g>
		</g>
		<g>
			<g>
				<g>
					<g>
						<path fill="#FFFFFF" d="M24.1,14c0.7,0.6,1,1.5,1,2.6c0,1.2-0.3,2.1-1,2.6c-0.7,0.6-1.8,0.8-3.2,0.8h-1.3v2.7h-2.1v-9.6h3.4
							C22.4,13.1,23.4,13.4,24.1,14z M22.5,17.8c0.3-0.3,0.4-0.7,0.4-1.3c0-0.6-0.2-0.9-0.5-1.2c-0.3-0.2-0.9-0.4-1.6-0.4h-1.2v3.2
							h1.4C21.8,18.2,22.3,18.1,22.5,17.8z"/>
					</g>
				</g>
			</g>
		</g>
		<g>
			<g>
				<g>
					<g>
						<path fill="#FFFFFF" d="M26.6,13.1H29v1.7l-0.4,5H27l-0.4-5V13.1z M26.6,21.7c0-0.7,0.5-1.2,1.2-1.2c0.7,0,1.2,0.5,1.2,1.2
							c0,0.7-0.5,1.2-1.2,1.2C27.1,22.9,26.6,22.3,26.6,21.7z"/>
					</g>
				</g>
			</g>
		</g>
	</g>
</g>
</svg>
