<?xml version="1.0" encoding="utf-8"?>
<!-- Generator: Adobe Illustrator 18.0.0, SVG Export Plug-In . SVG Version: 6.00 Build 0)  -->
<!DOCTYPE svg PUBLIC "-//W3C//DTD SVG 1.1//EN" "http://www.w3.org/Graphics/SVG/1.1/DTD/svg11.dtd">
<svg version="1.1" id="Layer_1" xmlns="http://www.w3.org/2000/svg" xmlns:xlink="http://www.w3.org/1999/xlink" x="0px" y="0px"
	 viewBox="0 0 36 36" enable-background="new 0 0 36 36" xml:space="preserve">
<g>
	<g>
		<g>
			<g>
				<g>
					<g>
						<g>
							<path fill="#E08826" d="M30.5,31c-4.9,4-20.2,4-25,0c-4.9-4-4.4-21.1,0-25.6c4.4-4.5,20.6-4.5,25,0C34.9,9.9,35.4,27,30.5,31
								z"/>
						</g>
					</g>
				</g>
			</g>
		</g>
		<g>
			<g>
				<g>
					<g>
						<path fill="#F29A2F" d="M18.1,24c-4.4,3.5-9.3,5.3-13.9,5.4c-3.4-5.8-2.7-19.9,1.3-24C9.1,1.7,20.4,1,26.9,3.3
							C28.5,9.9,25.2,18.3,18.1,24z"/>
					</g>
				</g>
			</g>
		</g>
	</g>
	<g>
		<g>
			<g>
				<g>
					<g>
						<path fill="#FFFFFF" d="M13.5,19.6l2.8-7h2.7l-4.4,11h-2.1L8,12.6h2.7L13.5,19.6z"/>
					</g>
				</g>
			</g>
		</g>
		<g>
			<g>
				<g>
					<g>
						<path fill="#FFFFFF" d="M22.6,14.8c-0.2,0.2-0.4,0.5-0.4,0.8c0,0.3,0.1,0.6,0.4,0.8c0.3,0.2,1,0.4,2,0.7
							c1,0.3,1.9,0.6,2.4,1.2c0.6,0.5,0.9,1.3,0.9,2.2c0,1-0.4,1.8-1.1,2.4c-0.7,0.6-1.7,0.9-2.9,0.9c-1.7,0-3.3-0.6-4.7-1.9
							l1.5-1.8c1.2,1,2.3,1.6,3.3,1.6c0.5,0,0.8-0.1,1.1-0.3c0.3-0.2,0.4-0.5,0.4-0.8c0-0.3-0.1-0.6-0.4-0.8
							c-0.3-0.2-0.8-0.4-1.6-0.6c-1.3-0.3-2.2-0.7-2.8-1.2c-0.6-0.5-0.9-1.3-0.9-2.3c0-1,0.4-1.8,1.1-2.4c0.7-0.6,1.7-0.8,2.8-0.8
							c0.7,0,1.5,0.1,2.2,0.4c0.7,0.3,1.4,0.6,1.9,1.1l-1.2,1.8c-1-0.7-1.9-1.1-3-1.1C23.2,14.5,22.9,14.6,22.6,14.8z"/>
					</g>
				</g>
			</g>
		</g>
	</g>
</g>
</svg>
