<?xml version="1.0" encoding="utf-8"?>
<!-- Generator: Adobe Illustrator 18.0.0, SVG Export Plug-In . SVG Version: 6.00 Build 0)  -->
<!DOCTYPE svg PUBLIC "-//W3C//DTD SVG 1.1//EN" "http://www.w3.org/Graphics/SVG/1.1/DTD/svg11.dtd">
<svg version="1.1" id="Layer_1" xmlns="http://www.w3.org/2000/svg" xmlns:xlink="http://www.w3.org/1999/xlink" x="0px" y="0px"
	 viewBox="0 0 36 36" enable-background="new 0 0 36 36" xml:space="preserve">
<g>
	<g>
		<g>
			<g>
				<g>
					<path fill="#5CA4DA" d="M18,2c2.7,5,13.8,10.9,13.1,17.3c-0.5,4.4-3.7,7.9-8.2,7.9c-1.8,0-3.5-0.6-4.9-1.6
						c-1.4,1-3,1.6-4.9,1.6c-4.5,0-7.7-3.6-8.2-7.9C4.2,12.9,15.3,7,18,2z"/>
				</g>
			</g>
		</g>
	</g>
	<g>
		<g>
			<g>
				<g>
					<path fill="#6DAFE0" d="M8.8,15.6c0,0,0.2-0.7,0.7-1.6c0.5-0.9,1.4-1.9,2.3-2.9c1-0.9,2-1.7,2.9-2.2c0.8-0.5,1.5-0.8,1.5-0.8
						s-0.3,0.6-0.9,1.4c-0.6,0.8-1.5,1.8-2.4,2.7c-0.9,0.9-1.9,1.7-2.7,2.3C9.4,15.2,8.8,15.6,8.8,15.6z"/>
				</g>
			</g>
		</g>
	</g>
	<g>
		<g>
			<g>
				<g>
					<path fill="#5CA4DA" d="M13.7,33.1c0.6-1.1,1.9-3.1,1.9-6.1v-5.1h4.9V27c0,1.8,0.5,3.6,1.3,5.2l0.5,0.9
						c0.2,0.4-0.1,0.9-0.5,0.9h-7.6C13.8,34,13.5,33.5,13.7,33.1z"/>
				</g>
			</g>
		</g>
	</g>
	<g>
		<g>
			<g>
				<g>
					<path fill="#4E9AD4" d="M31.1,19.3c-0.5,4.4-3.7,7.9-8.2,7.9c-1.3,0-2.5-0.3-3.4-0.7c0.4,0.1,0.9,0.1,1.4,0.1
						c4.5,0,7.7-3.6,8.2-7.9C29.8,12.3,20.7,7,18,2C20.7,7,31.8,12.9,31.1,19.3z"/>
				</g>
			</g>
		</g>
	</g>
	<g>
		<g>
			<g>
				<g>
					<path fill="#4E9AD4" d="M21.8,34h-1.6c0.4,0,0.7-0.5,0.5-0.9c-1.1-1.9-2.2-3.6-2.2-6.8c0.6,0.2,1.4,0.3,1.9,0.3
						c0,2.7,0.5,4.1,1.9,6.5C22.5,33.5,22.2,34,21.8,34z"/>
				</g>
			</g>
		</g>
	</g>
</g>
</svg>
