<?xml version="1.0" encoding="utf-8"?>
<!-- Generator: Adobe Illustrator 18.0.0, SVG Export Plug-In . SVG Version: 6.00 Build 0)  -->
<!DOCTYPE svg PUBLIC "-//W3C//DTD SVG 1.1//EN" "http://www.w3.org/Graphics/SVG/1.1/DTD/svg11.dtd">
<svg version="1.1" id="Layer_1" xmlns="http://www.w3.org/2000/svg" xmlns:xlink="http://www.w3.org/1999/xlink" x="0px" y="0px"
	 viewBox="0 0 36 36" enable-background="new 0 0 36 36" xml:space="preserve">
<g>
	<g>
		<g>
			<g>
				<g>
					<g>
						<g>
							<path fill="#E08826" d="M30.5,31c-4.9,4-20.2,4-25,0S1.1,9.9,5.5,5.4s20.6-4.5,25,0S35.4,27,30.5,31z"/>
						</g>
					</g>
				</g>
			</g>
		</g>
		<g>
			<g>
				<g>
					<g>
						<path fill="#F29A2F" d="M18.1,24c-4.4,3.5-9.3,5.3-13.9,5.4c-3.4-5.8-2.7-19.9,1.3-24C9.1,1.7,20.4,1,26.9,3.3
							C28.5,9.9,25.2,18.3,18.1,24z"/>
					</g>
				</g>
			</g>
		</g>
	</g>
	<g>
		<g>
			<g>
				<g>
					<g>
						<g>
							<path fill="#FFFFFF" d="M26.2,9H13.9c-0.7,0-1.2,0.6-1.2,1.2v11.4c0,1.6-1.3,2.9-2.9,2.9c-0.7,0-1.2,0.6-1.2,1.2
								c0,0.7,0.6,1.2,1.2,1.2c2.9,0,5.3-2.4,5.3-5.3v-1.1H25v4h-2.4c-0.7,0-1.2,0.6-1.2,1.2c0,0.7,0.5,1.2,1.2,1.2h3.7
								c0.7,0,1.3-0.6,1.3-1.2V10.2C27.5,9.6,26.9,9,26.2,9z M15.1,11.5H25v2h-9.9V11.5z M25,18h-9.9v-2H25V18z"/>
						</g>
					</g>
				</g>
			</g>
		</g>
	</g>
</g>
</svg>
