<?xml version="1.0" encoding="utf-8"?>
<!-- Generator: Adobe Illustrator 18.0.0, SVG Export Plug-In . SVG Version: 6.00 Build 0)  -->
<!DOCTYPE svg PUBLIC "-//W3C//DTD SVG 1.1//EN" "http://www.w3.org/Graphics/SVG/1.1/DTD/svg11.dtd">
<svg version="1.1" id="Layer_1" xmlns="http://www.w3.org/2000/svg" xmlns:xlink="http://www.w3.org/1999/xlink" x="0px" y="0px"
	 viewBox="0 0 36 36" enable-background="new 0 0 36 36" xml:space="preserve">
<g>
	<g>
		<g>
			<g>
				<g>
					<g>
						<g>
							<path fill="#E08826" d="M30.5,31c-4.9,4-20.2,4-25,0c-4.9-4-4.4-21.1,0-25.6c4.4-4.5,20.6-4.5,25,0C34.9,9.9,35.4,27,30.5,31
								z"/>
						</g>
					</g>
				</g>
			</g>
		</g>
		<g>
			<g>
				<g>
					<g>
						<path fill="#F29A2F" d="M18.1,24c-4.4,3.5-9.3,5.3-13.9,5.4c-3.4-5.8-2.7-19.9,1.3-24C9.1,1.7,20.4,1,26.9,3.3
							C28.5,9.9,25.2,18.3,18.1,24z"/>
					</g>
				</g>
			</g>
		</g>
	</g>
	<g>
		<g>
			<g>
				<g>
					<g>
						<path fill="#FFFFFF" d="M18.2,15.5h8c0.4,0,0.8-0.4,0.8-0.8V8.7c0-0.4-0.4-0.8-0.8-0.8h-8c-0.4,0-0.8,0.4-0.8,0.8v5.9
							C17.4,15.1,17.8,15.5,18.2,15.5z M19,9.5h6.4v1.3H19V9.5z M19,12.5h6.4v1.3H19V12.5z"/>
					</g>
				</g>
			</g>
		</g>
		<g>
			<g>
				<g>
					<g>
						<path fill="#FFFFFF" d="M26.7,21h-2.5v-2h2.5c0.5,0,0.8-0.4,0.8-0.8c0-0.5-0.4-0.8-0.8-0.8h-9.8c-0.5,0-0.8,0.4-0.8,0.8
							c0,0.5,0.4,0.8,0.8,0.8h5.6v2h-6.6c-0.5,0-0.8,0.4-0.8,0.8c0,0.5,0.4,0.8,0.8,0.8h6.6v3.9h-2.2c-0.5,0-0.8,0.4-0.8,0.8
							c0,0.5,0.4,0.8,0.8,0.8h3c0.5,0,0.8-0.4,0.8-0.8v-4.7h2.5c0.5,0,0.8-0.4,0.8-0.8C27.5,21.3,27.1,21,26.7,21z"/>
					</g>
				</g>
			</g>
		</g>
		<g>
			<g>
				<g>
					<g>
						<path fill="#FFFFFF" d="M17.7,23.3c-0.3-0.3-0.8-0.3-1.2,0c-0.3,0.3-0.3,0.8,0,1.2l1.5,1.5c0.3,0.3,0.8,0.3,1.2,0
							c0.3-0.3,0.3-0.8,0-1.2L17.7,23.3z"/>
					</g>
				</g>
			</g>
		</g>
		<g>
			<g>
				<g>
					<g>
						<path fill="#FFFFFF" d="M15.8,14.9c-0.4-0.3-1-0.1-1.2,0.3c-0.1,0.1-1.5,2.2-5,2.2c-0.7,0-1,0.4-1,0.9c0,0.5,0.3,0.9,1,0.9
							c0.9,0,1.7-0.1,2.4-0.3v8.4c0,0.5,0.4,0.8,0.8,0.8c0.5,0,0.8-0.4,0.8-0.8v-9c1.7-0.9,2.4-2,2.5-2.1
							C16.3,15.7,16.2,15.2,15.8,14.9z"/>
					</g>
				</g>
			</g>
		</g>
		<g>
			<g>
				<g>
					<g>
						<path fill="#FFFFFF" d="M15.8,10.5c-0.4-0.3-1-0.1-1.2,0.3c0,0-1.2,1.9-4.2,1.9c-0.7,0-1,0.4-1,0.9c0,0.5,0.3,0.9,1,0.9
							c4,0,5.7-2.6,5.8-2.7C16.3,11.3,16.2,10.7,15.8,10.5z"/>
					</g>
				</g>
			</g>
		</g>
	</g>
</g>
</svg>
