<?xml version="1.0" encoding="utf-8"?>
<!-- Generator: Adobe Illustrator 18.0.0, SVG Export Plug-In . SVG Version: 6.00 Build 0)  -->
<!DOCTYPE svg PUBLIC "-//W3C//DTD SVG 1.1//EN" "http://www.w3.org/Graphics/SVG/1.1/DTD/svg11.dtd">
<svg version="1.1" id="Layer_1" xmlns="http://www.w3.org/2000/svg" xmlns:xlink="http://www.w3.org/1999/xlink" x="0px" y="0px"
	 viewBox="0 0 36 36" enable-background="new 0 0 36 36" xml:space="preserve">
<g>
	<g>
		<g>
			<g>
				<g>
					<g>
						<g>
							<path fill="#E08826" d="M30.5,31c-4.9,4-20.2,4-25,0c-4.9-4-4.4-21.1,0-25.6c4.4-4.5,20.6-4.5,25,0C34.9,9.9,35.4,27,30.5,31
								z"/>
						</g>
					</g>
				</g>
			</g>
		</g>
		<g>
			<g>
				<g>
					<g>
						<path fill="#F29A2F" d="M18.1,24c-4.4,3.5-9.3,5.3-13.9,5.4c-3.4-5.8-2.7-19.9,1.3-24C9.1,1.7,20.4,1,26.9,3.3
							C28.5,9.9,25.2,18.3,18.1,24z"/>
					</g>
				</g>
			</g>
		</g>
	</g>
	<g>
		<g>
			<g>
				<g>
					<g>
						<g>
							<path fill="#FFFFFF" d="M26.4,16.9h-5.2v-1.4h6c0.5,0,0.8-0.4,0.8-0.8l0,0c0-0.5-0.4-0.8-0.8-0.8H25v-1.7h1.2
								c0.5,0,0.8-0.4,0.8-0.8l0,0c0-0.5-0.4-0.8-0.8-0.8H25V10c0-0.5-0.4-0.8-0.8-0.8l0,0c-0.5,0-0.8,0.4-0.8,0.8v0.5h-6.1V10
								c0-0.5-0.4-0.8-0.8-0.8l0,0c-0.5,0-0.8,0.4-0.8,0.8v0.5h-1.2c-0.5,0-0.8,0.4-0.8,0.8l0,0c0,0.5,0.4,0.8,0.8,0.8h1.2v1.7h-2.2
								c-0.5,0-0.8,0.4-0.8,0.8l0,0c0,0.5,0.4,0.8,0.8,0.8h6v1.4l-5.2,0c-0.5,0-1,0.4-1,1V26c0,0.5,0.4,0.8,0.8,0.8l0,0
								c0.5,0,0.8-0.4,0.8-0.8v-7.5h4.6v3.7h-1.9V21c0-0.5-0.4-0.8-0.8-0.8l0,0c-0.5,0-0.8,0.4-0.8,0.8V24c0,0.5,0.4,0.8,0.8,0.8
								l0,0c0.5,0,0.8-0.4,0.8-0.8v-0.2h5.7c0.5,0,1-0.4,1-1V21c0-0.5-0.4-0.8-0.8-0.8l0,0c-0.5,0-0.8,0.4-0.8,0.8v1.2h-1.5v-3.7
								h4.6v6.7h-2.8c-0.5,0-0.8,0.4-0.8,0.8l0,0c0,0.5,0.4,0.8,0.8,0.8h3.5c0.5,0,1-0.4,1-1v-8C27.3,17.3,26.9,16.9,26.4,16.9z
								 M17.3,12.1h6.1v1.7h-6.1V12.1z"/>
						</g>
					</g>
				</g>
			</g>
		</g>
		<g>
			<g>
				<g>
					<g>
						<g>
							<path fill="#FFFFFF" d="M11.3,12.2c-0.1-0.2-0.6-0.6-1-0.9c-0.5-0.3-0.5-0.8-0.3-1.1c0.2-0.3,0.7-0.4,1.1-0.1
								c0.7,0.5,1.4,1,1.6,1.8c0.1,0.4-0.1,0.8-0.5,0.9C11.8,12.8,11.4,12.6,11.3,12.2z"/>
						</g>
					</g>
				</g>
			</g>
		</g>
		<g>
			<g>
				<g>
					<g>
						<g>
							<path fill="#FFFFFF" d="M10.2,16.5c-0.2-0.4-0.6-0.7-1.1-1.1c-0.3-0.2-0.5-0.7-0.2-1c0.2-0.3,0.7-0.5,1-0.2
								c0.8,0.5,1.4,1.1,1.7,1.7c0.2,0.4,0,0.8-0.3,1C10.9,17,10.4,16.9,10.2,16.5z"/>
						</g>
					</g>
				</g>
			</g>
		</g>
		<g>
			<g>
				<g>
					<g>
						<g>
							<path fill="#FFFFFF" d="M8.7,23.8c-0.4,0-0.7-0.3-0.7-0.7c0-0.4,0.2-0.8,0.7-0.8c1-0.1,1.7-0.9,2.3-2.4
								c0.1-0.4,0.6-0.6,0.9-0.4c0.4,0.1,0.6,0.6,0.4,0.9C11.6,22.5,10.4,23.6,8.7,23.8C8.8,23.8,8.8,23.8,8.7,23.8z"/>
						</g>
					</g>
				</g>
			</g>
		</g>
	</g>
</g>
</svg>
