<?xml version="1.0" encoding="utf-8"?>
<!-- Generator: Adobe Illustrator 18.0.0, SVG Export Plug-In . SVG Version: 6.00 Build 0)  -->
<!DOCTYPE svg PUBLIC "-//W3C//DTD SVG 1.1//EN" "http://www.w3.org/Graphics/SVG/1.1/DTD/svg11.dtd">
<svg version="1.1" id="Layer_1" xmlns="http://www.w3.org/2000/svg" xmlns:xlink="http://www.w3.org/1999/xlink" x="0px" y="0px"
	 viewBox="0 0 36 36" enable-background="new 0 0 36 36" xml:space="preserve">
<g>
	<g>
		<g>
			<g>
				<g>
					<g>
						<g>
							<path fill="#E08826" d="M30.5,31c-4.9,4-20.2,4-25,0c-4.9-4-4.4-21.1,0-25.6c4.4-4.5,20.6-4.5,25,0S35.4,27,30.5,31z"/>
						</g>
					</g>
				</g>
			</g>
		</g>
		<g>
			<g>
				<g>
					<g>
						<path fill="#F29A2F" d="M18.1,24c-4.4,3.5-9.3,5.3-13.9,5.4c-3.4-5.8-2.7-19.9,1.3-24C9.1,1.7,20.4,1,26.9,3.3
							C28.5,9.9,25.2,18.3,18.1,24z"/>
					</g>
				</g>
			</g>
		</g>
	</g>
	<g>
		<g>
			<g>
				<g>
					<path fill="#FFFFFF" d="M19,9.4V8.5c0-0.6-0.4-1-1-1l0,0c-0.6,0-1,0.4-1,1v0.9h-6.9c-0.5,0-0.9,0.4-0.9,0.9v10.8
						c0,0.6,0.4,1,1,1h0c0.6,0,1-0.4,1-1v-1.5H17v7.9c0,0.6,0.4,1,1,1h0c0.6,0,1-0.4,1-1v-7.9h5.8v1.5c0,0.6,0.4,1,1,1l0,0
						c0.6,0,1-0.4,1-1V10.3c0-0.5-0.4-0.9-0.9-0.9H19z M24.8,11.4v2.1H19v-2.1H24.8z M17,11.4v2.1h-5.8v-2.1H17z M11.2,17.6v-2.1H17
						v2.1H11.2z M19,17.6v-2.1h5.8v2.1H19z"/>
				</g>
			</g>
		</g>
	</g>
</g>
</svg>
