<?xml version="1.0" encoding="utf-8"?>
<!-- Generator: Adobe Illustrator 18.0.0, SVG Export Plug-In . SVG Version: 6.00 Build 0)  -->
<!DOCTYPE svg PUBLIC "-//W3C//DTD SVG 1.1//EN" "http://www.w3.org/Graphics/SVG/1.1/DTD/svg11.dtd">
<svg version="1.1" id="Layer_1" xmlns="http://www.w3.org/2000/svg" xmlns:xlink="http://www.w3.org/1999/xlink" x="0px" y="0px"
	 viewBox="0 0 36 36" enable-background="new 0 0 36 36" xml:space="preserve">
<g>
	<g>
		<g>
			<g>
				<g>
					<g>
						<g>
							<path fill="#E08826" d="M30.5,31c-4.9,4-20.2,4-25,0S1.1,9.9,5.5,5.4s20.6-4.5,25,0S35.4,27,30.5,31z"/>
						</g>
					</g>
				</g>
			</g>
		</g>
		<g>
			<g>
				<g>
					<g>
						<path fill="#F29A2F" d="M18.1,24c-4.4,3.5-9.3,5.3-13.9,5.4c-3.4-5.8-2.7-19.9,1.3-24C9.1,1.7,20.4,1,26.9,3.3
							C28.5,9.9,25.2,18.3,18.1,24z"/>
					</g>
				</g>
			</g>
		</g>
	</g>
	<g>
		<g>
			<g>
				<g>
					<g>
						<path fill="#FFFFFF" d="M26.3,17.8h-7c-0.4,0-0.8,0.4-0.8,0.8v8.6c0,0.4,0.4,0.8,0.8,0.8c0.4,0,0.8-0.4,0.8-0.8v-1.9h5.4v1.9
							c0,0.5,0.4,0.8,0.8,0.8c0.5,0,0.8-0.4,0.8-0.8v-8.6C27.1,18.1,26.8,17.8,26.3,17.8z M25.5,23.7h-5.4v-1.3h5.4V23.7z
							 M25.5,20.7h-5.4v-1.3h5.4V20.7z"/>
					</g>
				</g>
			</g>
		</g>
		<g>
			<g>
				<g>
					<g>
						<path fill="#FFFFFF" d="M26.3,11.9c-0.4,0-0.8,0.4-0.8,0.8v1.5h-5.4V13l5.6-1.8l0-1.6l-5.5,1.8V8.8c0-0.5-0.4-0.8-0.8-0.8
							c-0.5,0-0.8,0.4-0.8,0.8v6.2c0,0.4,0.4,0.8,0.8,0.8h7c0.4,0,0.8-0.4,0.8-0.8v-2.3C27.1,12.3,26.8,11.9,26.3,11.9z"/>
					</g>
				</g>
			</g>
		</g>
		<g>
			<g>
				<g>
					<g>
						<path fill="#FFFFFF" d="M14.5,8.8c0-0.5-0.4-0.8-0.8-0.8c-0.5,0-0.8,0.4-0.8,0.8v5.4h-2.5v1.6h2.5v4.4l-2.3,0.7v1.6l2.3-0.7
							v4.5H9.7c-0.5,0-0.8,0.4-0.8,0.8c0,0.5,0.4,0.8,0.8,0.8h4c0.5,0,0.8-0.4,0.8-0.8v-5.8l2.2-0.7v-1.6l-2.2,0.7v-3.9h2.3v-1.6
							h-2.3V8.8z"/>
					</g>
				</g>
			</g>
		</g>
	</g>
</g>
</svg>
