<?xml version="1.0" encoding="utf-8"?>
<!-- Generator: Adobe Illustrator 18.0.0, SVG Export Plug-In . SVG Version: 6.00 Build 0)  -->
<!DOCTYPE svg PUBLIC "-//W3C//DTD SVG 1.1//EN" "http://www.w3.org/Graphics/SVG/1.1/DTD/svg11.dtd">
<svg version="1.1" id="Layer_1" xmlns="http://www.w3.org/2000/svg" xmlns:xlink="http://www.w3.org/1999/xlink" x="0px" y="0px"
	 viewBox="0 0 36 36" enable-background="new 0 0 36 36" xml:space="preserve">
<g>
	<g>
		<g>
			<g>
				<g>
					<path fill="#F4C533" d="M19.9,9.8c0-1,0.1-1.8-0.9-2.4c-0.6-0.3-0.7-0.9-0.6-1.4C18.8,5,18.6,2.8,17.6,2c0,0,0.5,1.9-1,4.2
						c-0.4,0.6-0.7,1.5-0.1,2c0,0,0.6,0.5,0.6,1.5C17.9,9.6,18.8,9.6,19.9,9.8z"/>
				</g>
			</g>
		</g>
	</g>
	<g>
		<g>
			<g>
				<g>
					<path fill="#F4C533" d="M16.1,26.2c0,1-0.1,1.8,0.9,2.4c0.6,0.3,0.7,0.9,0.6,1.4c-0.4,1.1-0.3,3.3,0.7,4.1c0,0-0.5-1.9,1-4.2
						c0.4-0.6,0.7-1.5,0.1-2c0,0-0.6-0.5-0.6-1.5C18.1,26.4,17.2,26.4,16.1,26.2z"/>
				</g>
			</g>
		</g>
	</g>
	<g>
		<g>
			<g>
				<g>
					<path fill="#F4C533" d="M13.5,8.4c-0.7,0-1.1-0.4-1.2-0.9C12.2,6.4,11,4.5,9.7,4.3c0,0,1.4,1.4,1.2,4.1
						c-0.1,0.7,0.2,1.6,0.9,1.8c0,0,0.8,0.1,1.2,1c0.8-0.6,1.6-1,2.5-1.3C15,9.1,14.7,8.4,13.5,8.4z"/>
				</g>
			</g>
		</g>
	</g>
	<g>
		<g>
			<g>
				<g>
					<path fill="#F4C533" d="M22.5,27.6c0.7,0,1.1,0.4,1.2,0.9c0.2,1.1,1.4,2.9,2.7,3.2c0,0-1.4-1.4-1.2-4.1
						c0.1-0.7-0.2-1.6-0.9-1.8c0,0-0.8-0.1-1.2-1c-0.8,0.6-1.6,1-2.5,1.3C21,26.9,21.3,27.6,22.5,27.6z"/>
				</g>
			</g>
		</g>
	</g>
	<g>
		<g>
			<g>
				<g>
					<path fill="#F4C533" d="M9.3,11.9c-0.6,0.3-1.1,0.2-1.5-0.2C7.1,10.8,5.1,9.9,4,10.3c0,0,1.9,0.5,3.1,3c0.3,0.7,1,1.3,1.7,1.1
						c0,0,0.7-0.3,1.6,0.3c0.4-0.9,0.9-1.7,1.6-2.4C10.9,11.8,10.3,11.3,9.3,11.9z"/>
				</g>
			</g>
		</g>
	</g>
	<g>
		<g>
			<g>
				<g>
					<path fill="#F4C533" d="M29,22.7c-0.3-0.7-1-1.3-1.7-1.1c0,0-0.7,0.3-1.6-0.3c-0.4,0.9-0.9,1.7-1.6,2.4c0.9,0.5,1.6,1,2.6,0.4
						c0.6-0.3,1.1-0.2,1.5,0.2c0.8,0.9,2.7,1.8,3.9,1.4C32,25.7,30.1,25.1,29,22.7z"/>
				</g>
			</g>
		</g>
	</g>
	<g>
		<g>
			<g>
				<g>
					<path fill="#F4C533" d="M9.8,16.1H9.3c0,0-1.2-0.2-1.8,0.9c-0.3,0.6-0.9,0.7-1.4,0.6C5,17.2,2.8,17.4,2,18.4c0,0,1.9-0.5,4.2,1
						c0.6,0.4,1.5,0.7,2,0.1c0,0,0.5-0.6,1.5-0.6C9.6,18.1,9.6,17.2,9.8,16.1z"/>
				</g>
			</g>
		</g>
	</g>
	<g>
		<g>
			<g>
				<g>
					<path fill="#F4C533" d="M26.2,19.9c1,0,1.8,0.1,2.4-0.9c0.3-0.6,0.9-0.7,1.4-0.6c1.1,0.4,3.3,0.3,4.1-0.7c0,0-1.9,0.5-4.2-1
						c-0.6-0.4-1.5-0.7-2-0.1c0,0-0.5,0.6-1.5,0.6C26.4,17.9,26.4,18.8,26.2,19.9z"/>
				</g>
			</g>
		</g>
	</g>
	<g>
		<g>
			<g>
				<g>
					<path fill="#F4C533" d="M8.4,22.5c0,0.7-0.4,1.1-0.9,1.2c-1.1,0.2-2.9,1.4-3.2,2.7c0,0,1.4-1.4,4.1-1.2
						c0.8,0.1,1.6-0.2,1.8-0.9c0,0,0.1-0.8,1-1.2c-0.6-0.8-1-1.6-1.3-2.5C9.1,21,8.4,21.3,8.4,22.5z"/>
				</g>
			</g>
		</g>
	</g>
	<g>
		<g>
			<g>
				<g>
					<path fill="#F4C533" d="M27.6,13.5c0-0.7,0.4-1.1,0.9-1.2c1.1-0.2,2.9-1.4,3.2-2.7c0,0-1.4,1.4-4.1,1.2
						c-0.8-0.1-1.6,0.2-1.8,0.9c0,0-0.1,0.8-1,1.2c0.6,0.8,1,1.6,1.3,2.5C26.9,15,27.6,14.7,27.6,13.5z"/>
				</g>
			</g>
		</g>
	</g>
	<g>
		<g>
			<g>
				<g>
					<path fill="#F4C533" d="M12,24.6c0,0-0.8,1-0.1,2.1c0.3,0.6,0.2,1.1-0.2,1.5c-0.9,0.8-1.8,2.7-1.4,3.9c0,0,0.5-1.9,3-3.1
						c0.7-0.3,1.3-1,1.1-1.7c0,0-0.3-0.7,0.3-1.6c-0.9-0.4-1.7-0.9-2.4-1.6L12,24.6z"/>
				</g>
			</g>
		</g>
	</g>
	<g>
		<g>
			<g>
				<g>
					<path fill="#F4C533" d="M24.1,9.3c-0.3-0.6-0.2-1.1,0.2-1.5c0.9-0.8,1.8-2.7,1.4-3.9c0,0-0.5,1.9-3,3.1c-0.7,0.3-1.3,1-1.1,1.7
						c0,0,0.3,0.7-0.3,1.6c0.9,0.4,1.7,0.9,2.4,1.6C24.2,10.9,24.7,10.3,24.1,9.3z"/>
				</g>
			</g>
		</g>
	</g>
	<g>
		<g>
			<g>
				<g>
					<circle fill="#F4C533" cx="18" cy="18" r="6.9"/>
				</g>
			</g>
		</g>
	</g>
	<g>
		<g>
			<g>
				<g>
					
						<ellipse transform="matrix(0.8655 -0.5009 0.5009 0.8655 -5.523 10.1454)" fill="#FED93D" cx="16.1" cy="15.4" rx="2.6" ry="1.5"/>
				</g>
			</g>
		</g>
	</g>
</g>
</svg>
