<?xml version="1.0" encoding="utf-8"?>
<!-- Generator: Adobe Illustrator 18.0.0, SVG Export Plug-In . SVG Version: 6.00 Build 0)  -->
<!DOCTYPE svg PUBLIC "-//W3C//DTD SVG 1.1//EN" "http://www.w3.org/Graphics/SVG/1.1/DTD/svg11.dtd">
<svg version="1.1" id="Layer_1" xmlns="http://www.w3.org/2000/svg" xmlns:xlink="http://www.w3.org/1999/xlink" x="0px" y="0px"
	 viewBox="0 0 36 36" enable-background="new 0 0 36 36" xml:space="preserve">
<g>
	<g>
		<g>
			<g>
				<g>
					<g>
						<g>
							<path fill="#E08826" d="M30.5,31c-4.9,4-20.2,4-25,0c-4.9-4-4.4-21.1,0-25.6c4.4-4.5,20.6-4.5,25,0C34.9,9.9,35.4,27,30.5,31
								z"/>
						</g>
					</g>
				</g>
			</g>
		</g>
		<g>
			<g>
				<g>
					<g>
						<path fill="#F29A2F" d="M18.1,24c-4.4,3.5-9.3,5.3-13.9,5.4c-3.4-5.8-2.7-19.9,1.3-24C9.1,1.7,20.4,1,26.9,3.3
							C28.5,9.9,25.2,18.3,18.1,24z"/>
					</g>
				</g>
			</g>
		</g>
	</g>
	<g>
		<g>
			<g>
				<g>
					<g>
						<path fill="#FFFFFF" d="M16.2,19.4c0.3-0.5,0.2-1.1-0.3-1.4c0,0-1.1-0.7-1.9-2.1h1.1c0.5,0,1-0.4,1-1c0-0.5-0.4-1-1-1H13v-2.9
							c0.7-0.3,1.4-0.7,2-1.2c0.4-0.3,0.5-1,0.1-1.4c-0.3-0.4-1-0.5-1.4-0.1c-2.2,1.8-4.9,1.7-4.9,1.7c-0.6,0-1,0.4-1,0.9
							c0,0.6,0.3,1,1.1,1c0.4,0,1.1,0,2.1-0.2V14H8.9c-0.5,0-1,0.4-1,1c0,0.5,0.4,1,1,1h1.3c-1,2-2.6,3.1-2.7,3.1
							C7,19.4,6.9,20,7.2,20.4c0.3,0.5,0.9,0.6,1.4,0.3c0.1-0.1,1.4-0.9,2.5-2.5V26c0,0.5,0.4,1,1,1s1-0.4,1-1v-8.1
							c0.9,1.2,1.8,1.8,1.9,1.8C15.3,20,15.9,19.8,16.2,19.4z"/>
					</g>
				</g>
			</g>
		</g>
		<g>
			<g>
				<g>
					<g>
						<path fill="#FFFFFF" d="M17.7,11.1c0,0,2-0.1,3.8,1.3c0.4,0.3,1,0.2,1.4-0.2c0.3-0.4,0.2-1-0.2-1.4c-2.5-1.9-5.1-1.6-5.2-1.6
							c-0.5,0.1-0.9,0.5-0.9,1.1C16.7,10.7,17.2,11.1,17.7,11.1z"/>
					</g>
				</g>
			</g>
		</g>
		<g>
			<g>
				<g>
					<g>
						<path fill="#FFFFFF" d="M18.1,17.9c-0.5,1.7-1.8,3-1.9,3c-0.4,0.4-0.4,1-0.1,1.4c0.4,0.4,1,0.4,1.4,0.1
							c0.1-0.1,1.7-1.6,2.4-3.8c0.2-0.5-0.1-1.1-0.6-1.2C18.8,17.1,18.2,17.4,18.1,17.9z"/>
					</g>
				</g>
			</g>
		</g>
		<g>
			<g>
				<g>
					<g>
						<path fill="#FFFFFF" d="M28.9,19.5c0-0.1-1-2.1-2.9-3.4c0,0-0.1,0-0.1-0.1c0.5-1.1,1-2.3,1.4-3.5c0.2-0.5-0.1-1.1-0.7-1.2
							c-0.5-0.2-1.1,0.1-1.2,0.7c-0.7,2.5-1.9,4.6-3.1,6.4v-3.8c0-0.5-0.4-1-1-1c-0.5,0-1,0.4-1,1V21c-2.4,2.7-4.5,4.2-4.6,4.2
							c-0.5,0.3-0.6,0.9-0.3,1.4c0.3,0.5,0.9,0.6,1.3,0.3c0.1-0.1,1.6-1.1,3.5-2.9v2.3c0,0.9,0.7,1.7,1.6,1.7h3.9
							c0.9,0,1.6-0.7,1.6-1.7V24c0-0.5-0.4-1-1-1c-0.5,0-1,0.4-1,1v1.9h-3.2v-4.2c0.9-1.1,1.9-2.4,2.7-3.9c1.4,1,2.1,2.6,2.2,2.6
							c0.2,0.5,0.8,0.7,1.3,0.5C28.9,20.6,29.1,20,28.9,19.5z"/>
					</g>
				</g>
			</g>
		</g>
	</g>
</g>
</svg>
