<?xml version="1.0" encoding="utf-8"?>
<!-- Generator: Adobe Illustrator 18.0.0, SVG Export Plug-In . SVG Version: 6.00 Build 0)  -->
<!DOCTYPE svg PUBLIC "-//W3C//DTD SVG 1.1//EN" "http://www.w3.org/Graphics/SVG/1.1/DTD/svg11.dtd">
<svg version="1.1" id="Layer_1" xmlns="http://www.w3.org/2000/svg" xmlns:xlink="http://www.w3.org/1999/xlink" x="0px" y="0px"
	 viewBox="0 0 36 36" enable-background="new 0 0 36 36" xml:space="preserve">
<g>
	<g>
		<g>
			<g>
				<g>
					<g>
						<path fill="#5CA4DA" d="M30.6,34H5.4C3.5,34,2,32.5,2,30.6V5.4C2,3.5,3.5,2,5.4,2h25.2C32.5,2,34,3.5,34,5.4v25.2
							C34,32.5,32.5,34,30.6,34z"/>
					</g>
				</g>
			</g>
		</g>
		<g>
			<g>
				<g>
					<g>
						<path fill="#6DAFE0" d="M27.8,2c-1.2,5.2-4.3,10.8-9.1,15.6C13.6,22.7,7.5,25.9,2,26.9V5.4C2,3.5,3.5,2,5.4,2H27.8z"/>
					</g>
				</g>
			</g>
		</g>
	</g>
	<g>
		<g>
			<g>
				<g>
					<g>
						<path fill="#FFFFFF" d="M30,23.2c-0.4-0.8-1.4-2.2-3.2-5.2c1.5-2.4,2.8-4.5,3.5-5.5c0.2-0.3,0.2-0.8,0-1.2
							c-0.2-0.4-0.6-0.6-1-0.6h-7.1c-1-1.5-2-3.2-3.2-5.1c-0.2-0.3-0.6-0.5-1-0.5c-0.4,0-0.8,0.2-1,0.5c0,0-1.4,2.2-3.2,5.1H6.7
							c-0.6,0-1.1,0.5-1.1,1.1c0,0.2,0,0.3,3.6,6.1c-1.5,2.4-2.8,4.5-3.5,5.5c-0.2,0.3-0.2,0.8,0,1.2c0.2,0.4,0.6,0.6,1,0.6h7.1
							c1,1.5,2,3.2,3.2,5.1c0.2,0.3,0.6,0.5,1,0.5c0.4,0,0.8-0.2,1-0.5c0,0,1.4-2.2,3.2-5.1h7.1c0,0,0,0,0,0c0.6,0,1.1-0.5,1.1-1.1
							C30.4,23.8,30.2,23.4,30,23.2z M27.2,13c-0.5,0.8-1.1,1.8-1.8,2.8c-0.5-0.9-1.1-1.8-1.8-2.8H27.2z M24.1,18
							c-1,1.7-2.1,3.4-3.1,5H15c-1.1-1.7-2.1-3.4-3.1-5c1-1.7,2.1-3.4,3.1-5h5.9C22,14.7,23.1,16.4,24.1,18z M18,8.3
							c0.5,0.8,1,1.6,1.5,2.4h-3C17.1,9.8,17.6,9,18,8.3z M8.8,13h3.6c-0.6,0.9-1.2,1.9-1.8,2.9C9.9,14.8,9.3,13.8,8.8,13z M8.8,23
							c0.5-0.8,1.1-1.8,1.8-2.8c0.5,0.9,1.1,1.8,1.8,2.8H8.8z M18,27.7c-0.5-0.8-1-1.6-1.5-2.4h3C18.9,26.2,18.4,27,18,27.7z
							 M23.6,23c0.6-0.9,1.2-1.9,1.8-2.9c0.7,1.1,1.3,2.1,1.8,2.9H23.6z"/>
					</g>
				</g>
			</g>
		</g>
	</g>
</g>
</svg>
