<?xml version="1.0" encoding="utf-8"?>
<!-- Generator: Adobe Illustrator 18.0.0, SVG Export Plug-In . SVG Version: 6.00 Build 0)  -->
<!DOCTYPE svg PUBLIC "-//W3C//DTD SVG 1.1//EN" "http://www.w3.org/Graphics/SVG/1.1/DTD/svg11.dtd">
<svg version="1.1" id="Layer_1" xmlns="http://www.w3.org/2000/svg" xmlns:xlink="http://www.w3.org/1999/xlink" x="0px" y="0px"
	 viewBox="0 0 36 36" enable-background="new 0 0 36 36" xml:space="preserve">
<g>
	<g>
		<g>
			<g>
				<g>
					<g>
						<path fill="#5CA4DA" d="M30.6,34H5.4C3.5,34,2,32.5,2,30.6V5.4C2,3.5,3.5,2,5.4,2h25.2C32.5,2,34,3.5,34,5.4v25.2
							C34,32.5,32.5,34,30.6,34z"/>
					</g>
				</g>
			</g>
		</g>
		<g>
			<g>
				<g>
					<g>
						<path fill="#6DAFE0" d="M27.8,2c-1.2,5.2-4.3,10.8-9.1,15.6C13.6,22.7,7.5,25.9,2,26.9V5.4C2,3.5,3.5,2,5.4,2H27.8z"/>
					</g>
				</g>
			</g>
		</g>
	</g>
	<g>
		<g>
			<g>
				<g>
					<path fill="#FFFFFF" d="M29.6,17h-1.2c-0.2-2.1-1-4-2.3-5.5l0.9-0.9c0.4-0.4,0.4-1.1,0-1.5c-0.4-0.4-1.1-0.4-1.5,0L24.6,10
						c-1.5-1.3-3.4-2.1-5.5-2.3V6.4c0-0.6-0.5-1.1-1.1-1.1c-0.6,0-1.1,0.5-1.1,1.1v1.2c-2.1,0.2-4,1-5.5,2.3l-0.9-0.9
						c-0.4-0.4-1.1-0.4-1.5,0c-0.4,0.4-0.4,1.1,0,1.5l0.9,0.9C8.7,13,7.9,14.9,7.7,17H6.4c-0.6,0-1.1,0.5-1.1,1.1
						c0,0.6,0.5,1.1,1.1,1.1h1.2c0.2,2.1,1,4,2.3,5.5l-0.9,0.9c-0.4,0.4-0.4,1.1,0,1.5c0.4,0.4,1.1,0.4,1.5,0l0.9-0.9
						c1.5,1.3,3.4,2.1,5.5,2.3v1.2c0,0.6,0.5,1.1,1.1,1.1c0.6,0,1.1-0.5,1.1-1.1v-1.2c2.1-0.2,4-1,5.5-2.3l0.9,0.9
						c0.4,0.4,1.1,0.4,1.5,0c0.4-0.4,0.4-1.1,0-1.5L26,24.6c1.3-1.5,2.1-3.4,2.3-5.5h1.2c0.6,0,1.1-0.5,1.1-1.1
						C30.6,17.4,30.1,17,29.6,17z M26.2,17h-4.1c-0.1-0.4-0.3-0.8-0.5-1.1l2.9-2.9C25.4,14.1,26,15.5,26.2,17z M18,20.2
						C18,20.2,18,20.2,18,20.2C18,20.2,18,20.2,18,20.2c-1.2,0-2.2-1-2.2-2.2c0-1.2,1-2.2,2.2-2.2c1.2,0,2.2,1,2.2,2.2
						C20.2,19.2,19.2,20.2,18,20.2z M23.1,11.5l-2.9,2.9c-0.4-0.2-0.7-0.4-1.1-0.5V9.8C20.5,10,21.9,10.6,23.1,11.5z M16.9,9.8v4.1
						c-0.4,0.1-0.8,0.3-1.1,0.5l-2.9-2.9C14.1,10.6,15.5,10,16.9,9.8z M11.5,12.9l2.9,2.9c-0.2,0.4-0.4,0.7-0.5,1.1H9.8
						C10,15.5,10.6,14.1,11.5,12.9z M9.8,19.1h4.1c0.1,0.4,0.3,0.8,0.5,1.1l-2.9,2.9C10.6,21.9,10,20.6,9.8,19.1z M12.9,24.6
						l2.9-2.9c0.4,0.2,0.7,0.4,1.1,0.5v4.1C15.4,26,14.1,25.4,12.9,24.6z M19.1,26.2v-4.1c0.4-0.1,0.8-0.3,1.1-0.5l2.9,2.9
						C21.9,25.4,20.6,26,19.1,26.2z M24.6,23.1l-2.9-2.9c0.2-0.4,0.4-0.7,0.5-1.1h4.1C26,20.6,25.4,21.9,24.6,23.1z"/>
				</g>
			</g>
		</g>
	</g>
</g>
</svg>
