<?xml version="1.0" encoding="utf-8"?>
<!-- Generator: Adobe Illustrator 18.0.0, SVG Export Plug-In . SVG Version: 6.00 Build 0)  -->
<!DOCTYPE svg PUBLIC "-//W3C//DTD SVG 1.1//EN" "http://www.w3.org/Graphics/SVG/1.1/DTD/svg11.dtd">
<svg version="1.1" id="Layer_1" xmlns="http://www.w3.org/2000/svg" xmlns:xlink="http://www.w3.org/1999/xlink" x="0px" y="0px"
	 viewBox="0 0 36 36" enable-background="new 0 0 36 36" xml:space="preserve">
<g>
	<g>
		<g>
			<g>
				<g>
					<g>
						<g>
							<path fill="#5CA4DA" d="M30.5,31c-4.9,4-20.2,4-25,0c-4.9-4-4.4-21.1,0-25.6c4.4-4.5,20.6-4.5,25,0C34.9,9.9,35.4,27,30.5,31
								z"/>
						</g>
					</g>
				</g>
			</g>
		</g>
		<g>
			<g>
				<g>
					<g>
						<path fill="#6DAFE0" d="M18.1,24c-4.4,3.5-9.3,5.3-13.9,5.4c-3.4-5.8-2.7-19.9,1.3-24C9.1,1.7,20.4,1,26.9,3.3
							C28.5,9.9,25.2,18.3,18.1,24z"/>
					</g>
				</g>
			</g>
		</g>
	</g>
	<g>
		<g>
			<g>
				<g>
					<g>
						<path fill="#FFFFFF" d="M15,17h-1.8v-0.8c-0.5,0.6-1.1,0.9-1.8,0.9c-0.7,0-1.3-0.2-1.8-0.6c-0.5-0.4-0.7-1-0.7-1.7
							c0-0.7,0.3-1.2,0.8-1.6c0.5-0.3,1.2-0.5,2.1-0.5h1.4v0c0-0.7-0.4-1.1-1.2-1.1c-0.3,0-0.7,0.1-1,0.2c-0.4,0.1-0.7,0.3-0.9,0.5
							l-0.8-1.2c0.9-0.6,1.9-1,3.1-1c0.8,0,1.5,0.2,2,0.6c0.5,0.4,0.8,1.1,0.8,2V17z M13.1,14.4v-0.3H12c-0.8,0-1.1,0.2-1.1,0.7
							c0,0.2,0.1,0.4,0.3,0.6c0.2,0.1,0.4,0.2,0.8,0.2c0.3,0,0.6-0.1,0.9-0.3C13,15.1,13.1,14.8,13.1,14.4z"/>
					</g>
				</g>
			</g>
		</g>
		<g>
			<g>
				<g>
					<g>
						<path fill="#FFFFFF" d="M12.5,26.7c0.6,0,1.2-0.3,1.7-0.9l1.1,1.3c-0.9,0.9-1.8,1.4-2.8,1.4c-1,0-1.9-0.3-2.6-1
							c-0.7-0.6-1.1-1.5-1.1-2.5c0-1,0.4-1.9,1.1-2.5c0.7-0.7,1.6-1,2.5-1c0.5,0,1,0.1,1.5,0.3c0.5,0.2,0.9,0.5,1.3,0.9l-1,1.3
							c-0.2-0.3-0.5-0.5-0.8-0.6c-0.3-0.1-0.6-0.2-0.9-0.2c-0.5,0-0.9,0.2-1.3,0.5c-0.4,0.3-0.5,0.8-0.5,1.4c0,0.6,0.2,1,0.5,1.3
							C11.6,26.5,12.1,26.7,12.5,26.7z"/>
					</g>
				</g>
			</g>
		</g>
		<g>
			<g>
				<g>
					<g>
						<path fill="#FFFFFF" d="M24,10.1c0.8,0,1.5,0.3,2.2,1c0.6,0.6,0.9,1.5,0.9,2.5s-0.3,1.9-0.9,2.5s-1.4,1-2.2,1
							c-0.8,0-1.5-0.3-2-1V17h-1.9V7.7H22V11C22.5,10.4,23.2,10.1,24,10.1z M22,13.6c0,0.6,0.2,1,0.5,1.4c0.3,0.3,0.7,0.5,1.1,0.5
							c0.4,0,0.8-0.2,1.2-0.5c0.3-0.3,0.5-0.8,0.5-1.3s-0.2-1-0.5-1.4c-0.3-0.4-0.7-0.6-1.2-0.6c-0.4,0-0.8,0.2-1.1,0.5
							C22.1,12.6,22,13.1,22,13.6z"/>
					</g>
				</g>
			</g>
		</g>
		<g>
			<g>
				<g>
					<g>
						<path fill="#FFFFFF" d="M22.7,28.3c-0.8,0-1.5-0.3-2.2-1c-0.6-0.7-0.9-1.5-0.9-2.5c0-1,0.3-1.8,0.9-2.5c0.6-0.6,1.3-1,2.2-1
							c0.8,0,1.5,0.3,2,0.9v-3.3h1.9v9.4h-1.9v-0.9C24.2,28,23.5,28.3,22.7,28.3z M21.5,24.8c0,0.5,0.2,1,0.5,1.3
							c0.3,0.3,0.7,0.5,1.2,0.5c0.4,0,0.8-0.2,1.1-0.5s0.5-0.8,0.5-1.4c0-0.6-0.2-1-0.5-1.4c-0.3-0.4-0.7-0.5-1.1-0.5
							c-0.4,0-0.8,0.2-1.2,0.6C21.7,23.8,21.5,24.3,21.5,24.8z"/>
					</g>
				</g>
			</g>
		</g>
	</g>
</g>
</svg>
