<?xml version="1.0" encoding="utf-8"?>
<!-- Generator: Adobe Illustrator 18.0.0, SVG Export Plug-In . SVG Version: 6.00 Build 0)  -->
<!DOCTYPE svg PUBLIC "-//W3C//DTD SVG 1.1//EN" "http://www.w3.org/Graphics/SVG/1.1/DTD/svg11.dtd">
<svg version="1.1" id="Layer_1" xmlns="http://www.w3.org/2000/svg" xmlns:xlink="http://www.w3.org/1999/xlink" x="0px" y="0px"
	 viewBox="0 0 36 36" enable-background="new 0 0 36 36" xml:space="preserve">
<g>
	<g>
		<g>
			<g>
				<g>
					<g>
						<g>
							<path fill="#5CA4DA" d="M30.5,31c-4.9,4-20.2,4-25,0c-4.9-4-4.4-21.1,0-25.6c4.4-4.5,20.6-4.5,25,0S35.4,27,30.5,31z"/>
						</g>
					</g>
				</g>
			</g>
		</g>
		<g>
			<g>
				<g>
					<g>
						<path fill="#6DAFE0" d="M18.1,24c-4.4,3.5-9.3,5.3-13.9,5.4c-3.4-5.8-2.7-19.9,1.3-24C9.1,1.7,20.4,1,26.9,3.3
							C28.5,9.9,25.2,18.3,18.1,24z"/>
					</g>
				</g>
			</g>
		</g>
	</g>
	<g>
		<g>
			<g>
				<g>
					<g>
						<path fill="#FFFFFF" d="M11.2,7.7h3.5v8.7h-1.9V9.3h-1.7V7.7z"/>
					</g>
				</g>
			</g>
		</g>
		<g>
			<g>
				<g>
					<g>
						<path fill="#FFFFFF" d="M23.6,11.3c0.2-0.3,0.3-0.6,0.3-0.9c0-0.3-0.1-0.5-0.3-0.7c-0.2-0.2-0.4-0.3-0.7-0.3
							c-0.5,0-1.1,0.4-1.6,1.2l-1.6-0.9c0.4-0.6,0.9-1.1,1.3-1.4c0.5-0.3,1.1-0.5,1.9-0.5s1.4,0.2,2,0.7c0.6,0.5,0.9,1.1,0.9,2
							c0,0.4-0.1,0.9-0.3,1.3c-0.2,0.4-0.7,0.9-1.3,1.6l-1.6,1.6h3.4v1.7h-6.2v-1.4l2.6-2.6C23,12,23.4,11.6,23.6,11.3z"/>
					</g>
				</g>
			</g>
		</g>
		<g>
			<g>
				<g>
					<g>
						<path fill="#FFFFFF" d="M10.4,21.2v-1.7h5.3v1.3l-1.8,2c0.7,0.1,1.2,0.4,1.6,0.9c0.4,0.5,0.6,1,0.6,1.6c0,0.9-0.3,1.6-0.9,2.2
							c-0.6,0.5-1.4,0.8-2.4,0.8c-1,0-1.9-0.3-2.9-1l0.8-1.5c0.8,0.6,1.6,0.9,2.2,0.9c0.4,0,0.7-0.1,1-0.3c0.3-0.2,0.4-0.5,0.4-0.8
							c0-0.4-0.1-0.6-0.4-0.9c-0.3-0.2-0.7-0.3-1.2-0.3c-0.3,0-0.7,0.1-1.2,0.2v-1.4l1.7-2H10.4z"/>
					</g>
				</g>
			</g>
		</g>
		<g>
			<g>
				<g>
					<g>
						<path fill="#FFFFFF" d="M23.2,24.6V23h1.9v1.5h1v1.7h-1v2.1h-1.9v-2.1h-3.5v-1.5l3.1-5.2H25l-3,5H23.2z"/>
					</g>
				</g>
			</g>
		</g>
	</g>
</g>
</svg>
