<?xml version="1.0" encoding="utf-8"?>
<!-- Generator: Adobe Illustrator 18.0.0, SVG Export Plug-In . SVG Version: 6.00 Build 0)  -->
<!DOCTYPE svg PUBLIC "-//W3C//DTD SVG 1.1//EN" "http://www.w3.org/Graphics/SVG/1.1/DTD/svg11.dtd">
<svg version="1.1" id="Layer_1" xmlns="http://www.w3.org/2000/svg" xmlns:xlink="http://www.w3.org/1999/xlink" x="0px" y="0px"
	 viewBox="0 0 36 36" enable-background="new 0 0 36 36" xml:space="preserve">
<g>
	<g>
		<g>
			<g>
				<g>
					<g>
						<g>
							<g>
								<path fill="#E24C4B" d="M34,13.5c0,9.7-11.5,16.1-15,17.8c-0.6,0.3-1.4,0.3-2,0c-3.5-1.7-15-7.9-15-17.8
									c0-5,3.7-9.1,8.2-9.1c3.6,0,6.6,2.5,7.7,6c1.1-3.5,4.2-6,7.7-6C30.3,4.4,34,8.5,34,13.5z"/>
							</g>
						</g>
					</g>
				</g>
			</g>
		</g>
		<g>
			<g>
				<g>
					<g>
						<g>
							<g>
								<path fill="#D1403F" d="M34,13.5c0,9.7-11.5,16.1-15,17.8c-0.6,0.3-1.4,0.3-2.1,0c-1.6-0.7-4.6-2.4-7.6-4.8h0.1
									c9.5,0,17.1-7.7,17.1-17.1c0-1.7-0.3-3.4-0.8-5C30.4,4.5,34,8.5,34,13.5z"/>
							</g>
						</g>
					</g>
				</g>
			</g>
		</g>
	</g>
	<g opacity="0.2">
		<g>
			<g>
				<g>
					<g>
						<path fill="#FFFFFF" d="M9.7,12c-1.6,0.4-3.1-0.2-3.4-1.3C6.1,9.5,7.1,8.3,8.7,7.9c1.6-0.4,3.1,0.2,3.4,1.3
							C12.4,10.4,11.3,11.6,9.7,12z"/>
					</g>
				</g>
			</g>
		</g>
	</g>
</g>
</svg>
