<?xml version="1.0" encoding="utf-8"?>
<!-- Generator: Adobe Illustrator 18.0.0, SVG Export Plug-In . SVG Version: 6.00 Build 0)  -->
<!DOCTYPE svg PUBLIC "-//W3C//DTD SVG 1.1//EN" "http://www.w3.org/Graphics/SVG/1.1/DTD/svg11.dtd">
<svg version="1.1" id="Layer_1" xmlns="http://www.w3.org/2000/svg" xmlns:xlink="http://www.w3.org/1999/xlink" x="0px" y="0px"
	 viewBox="0 0 36 36" enable-background="new 0 0 36 36" xml:space="preserve">
<g>
	<g>
		<g>
			<g>
				<g>
					<g>
						<g>
							<g>
								<path fill="#5CA4DA" d="M30.6,34H5.4C3.5,34,2,32.5,2,30.6V5.4C2,3.5,3.5,2,5.4,2h25.2C32.5,2,34,3.5,34,5.4v25.2
									C34,32.5,32.5,34,30.6,34z"/>
							</g>
						</g>
					</g>
				</g>
				<g>
					<g>
						<g>
							<g>
								<path fill="#6DAFE0" d="M27.8,2c-1.2,5.2-4.3,10.8-9.1,15.6C13.6,22.7,7.5,25.9,2,26.9V5.4C2,3.5,3.5,2,5.4,2H27.8z"/>
							</g>
						</g>
					</g>
				</g>
			</g>
		</g>
	</g>
	<g>
		<g>
			<g>
				<g>
					<g>
						<g>
							<g>
								<g>
									<path fill="#FFFFFF" d="M8,8.8c0-1.2,1-2.2,2.2-2.2c1.2,0,2.2,1,2.2,2.2c0,1.2-1,2.2-2.2,2.2C9,11,8,10,8,8.8z"/>
								</g>
							</g>
						</g>
					</g>
					<g>
						<g>
							<g>
								<g>
									<path fill="#FFFFFF" d="M20.5,8.9c0-1.3,1-2.3,2.3-2.3c1.3,0,2.3,1,2.3,2.3c0,1.3-1,2.3-2.3,2.3
										C21.6,11.2,20.5,10.2,20.5,8.9z"/>
								</g>
							</g>
						</g>
					</g>
					<g>
						<g>
							<g>
								<g>
									<path fill="#FFFFFF" d="M14.8,14.1V20c0,0.4-0.3,0.7-0.7,0.7c-0.4,0-0.7-0.3-0.7-0.7v-6c0-0.2-0.2-0.3-0.3-0.3
										c-0.2,0-0.3,0.1-0.3,0.3v14.4c0,0.5-0.4,0.9-0.9,0.9c-0.5,0-0.9-0.4-0.9-0.9v-6.3H9.7v6.3c0,0.5-0.4,0.9-0.9,0.9
										c-0.5,0-0.9-0.4-0.9-0.9V14.1c0-0.2-0.2-0.3-0.4-0.3c-0.2,0-0.3,0.1-0.3,0.3v6c0,0.4-0.3,0.7-0.7,0.7
										c-0.4,0-0.7-0.3-0.7-0.7v-5.9c0-1.2,1-2.2,2.2-2.2h4.7C13.9,11.9,14.8,12.9,14.8,14.1z"/>
								</g>
							</g>
						</g>
					</g>
					<g>
						<g>
							<g>
								<g>
									<path fill="#FFFFFF" d="M30.1,18.2c-0.4,0.4-0.9,0.3-1.3,0l-3-3c0.1,1.4,0.4,2.9,1,4.2l1.3,3c0.2,0.5-0.1,1-0.6,1h-1.9v5.1
										c0,0.5-0.4,0.9-0.9,0.9h-0.1c-0.5,0-0.9-0.4-0.9-0.9v-5.1H22v5.1c0,0.5-0.4,0.9-0.9,0.9h-0.1c-0.5,0-0.9-0.4-0.9-0.9v-5.1
										h-1.9c-0.5,0-0.9-0.5-0.6-1l1.3-3c0.6-1.3,0.9-2.7,1-4.2l-3,3c-0.4,0.4-0.9,0.3-1.2,0c-0.4-0.4-0.4-0.9,0-1.3l4.4-4.4
										c0.2-0.2,0.4-0.3,0.6-0.3H25c0.2,0,0.4,0.1,0.6,0.3l4.4,4.4C30.4,17.3,30.4,17.9,30.1,18.2z"/>
								</g>
							</g>
						</g>
					</g>
				</g>
			</g>
		</g>
	</g>
</g>
</svg>
