<?xml version="1.0" encoding="utf-8"?>
<!-- Generator: Adobe Illustrator 18.0.0, SVG Export Plug-In . SVG Version: 6.00 Build 0)  -->
<!DOCTYPE svg PUBLIC "-//W3C//DTD SVG 1.1//EN" "http://www.w3.org/Graphics/SVG/1.1/DTD/svg11.dtd">
<svg version="1.1" id="Layer_1" xmlns="http://www.w3.org/2000/svg" xmlns:xlink="http://www.w3.org/1999/xlink" x="0px" y="0px"
	 viewBox="0 0 36 36" enable-background="new 0 0 36 36" xml:space="preserve">
<g>
	<g>
		<g>
			<g>
				<g>
					<path fill="#5CA4DA" d="M30.6,34H5.4C3.5,34,2,32.5,2,30.6V5.4C2,3.5,3.5,2,5.4,2h25.2C32.5,2,34,3.5,34,5.4v25.2
						C34,32.5,32.5,34,30.6,34z"/>
				</g>
			</g>
		</g>
	</g>
	<g>
		<g>
			<g>
				<g>
					<path fill="#6DAFE0" d="M27.8,2c-1.2,5.2-4.3,10.8-9.1,15.6C13.6,22.7,7.5,25.9,2,26.9V5.4C2,3.5,3.5,2,5.4,2H27.8z"/>
				</g>
			</g>
		</g>
	</g>
	<g>
		<g>
			<g>
				<g>
					<g>
						<g>
							<g>
								<polygon fill="#FFFFFF" points="27.6,11.7 27.6,14.1 18,9.4 8.4,14.1 8.4,11.7 18,7 								"/>
							</g>
						</g>
					</g>
				</g>
				<g>
					<g>
						<g>
							<g>
								<path fill="#FFFFFF" d="M22.2,28.1c0,0.5-0.4,0.9-0.9,0.9h-5.5c-0.5,0-0.9-0.4-0.9-0.9c0-0.2,0.1-0.4,0.2-0.6l0.1-0.1
									l2.7-3.2l-0.7-4.1c-1.3,0.4-3,0.1-4.2-1.2l-0.8-0.9c-0.4-0.4-0.3-1,0-1.3c0.4-0.3,0.9-0.3,1.3,0l0.8,0.9
									c0.7,0.8,1.8,1,2.7,0.6h0c0.2-0.8,0.8-1.4,1.7-1.5c1.2-0.2,2.3,0.6,2.5,1.7c0,0.2,0.1,5.8,0.1,6.1c0,0.7-0.4,1.4-1.1,1.6
									c0,0,0,0,0,0l-1.4,1h2.5C21.8,27.2,22.2,27.6,22.2,28.1z"/>
							</g>
						</g>
					</g>
				</g>
				<g>
					<g>
						<g>
							<g>
								<circle fill="#FFFFFF" cx="17.9" cy="14.3" r="2"/>
							</g>
						</g>
					</g>
				</g>
			</g>
		</g>
	</g>
</g>
</svg>
