<?xml version="1.0" encoding="utf-8"?>
<!-- Generator: Adobe Illustrator 18.0.0, SVG Export Plug-In . SVG Version: 6.00 Build 0)  -->
<!DOCTYPE svg PUBLIC "-//W3C//DTD SVG 1.1//EN" "http://www.w3.org/Graphics/SVG/1.1/DTD/svg11.dtd">
<svg version="1.1" id="Layer_1" xmlns="http://www.w3.org/2000/svg" xmlns:xlink="http://www.w3.org/1999/xlink" x="0px" y="0px"
	 viewBox="0 0 36 36" enable-background="new 0 0 36 36" xml:space="preserve">
<g>
	<g>
		<g>
			<g>
				<g>
					<g>
						<g>
							<path fill="#6DAFE0" d="M30.5,31c-4.9,4-20.2,4-25,0S1.1,9.9,5.5,5.4s20.6-4.5,25,0S35.4,27,30.5,31z"/>
						</g>
					</g>
				</g>
			</g>
		</g>
		<g opacity="0.2">
			<g>
				<g>
					<g>
						<path fill="#FFFFFF" d="M18.1,24c-4.4,3.5-9.3,5.3-13.9,5.4c-3.4-5.8-2.7-19.9,1.3-24C9.1,1.7,20.4,1,26.9,3.3
							C28.5,9.9,25.2,18.3,18.1,24z"/>
					</g>
				</g>
			</g>
		</g>
	</g>
	<g>
		<g>
			<g>
				<g>
					<g>
						<g>
							<path fill="#FFFFFF" d="M18,23c-2.8,0-5-2.2-5-5s2.2-5,5-5s5,2.2,5,5S20.8,23,18,23z M18,14.9c-1.7,0-3.1,1.4-3.1,3.1
								c0,1.7,1.4,3.1,3.1,3.1s3.1-1.4,3.1-3.1C21.1,16.3,19.7,14.9,18,14.9z"/>
						</g>
					</g>
				</g>
			</g>
		</g>
		<g>
			<g>
				<g>
					<g>
						<g>
							<path fill="#FFFFFF" d="M18,11.6L18,11.6c-0.6,0-1.1-0.5-1.1-1.1V8.7c0-0.6,0.5-1.1,1.1-1.1l0,0c0.6,0,1.1,0.5,1.1,1.1v1.8
								C19.1,11.1,18.6,11.6,18,11.6z"/>
						</g>
					</g>
				</g>
			</g>
			<g>
				<g>
					<g>
						<g>
							<path fill="#FFFFFF" d="M18,28.5L18,28.5c-0.6,0-1.1-0.5-1.1-1.1v-1.8c0-0.6,0.5-1.1,1.1-1.1l0,0c0.6,0,1.1,0.5,1.1,1.1v1.8
								C19.1,28,18.6,28.5,18,28.5z"/>
						</g>
					</g>
				</g>
			</g>
		</g>
		<g>
			<g>
				<g>
					<g>
						<g>
							<path fill="#FFFFFF" d="M22.5,13.5L22.5,13.5c-0.4-0.4-0.4-1.2,0-1.6l1.3-1.3c0.4-0.4,1.2-0.4,1.6,0l0,0
								c0.4,0.4,0.4,1.2,0,1.6l-1.3,1.3C23.7,13.9,23,13.9,22.5,13.5z"/>
						</g>
					</g>
				</g>
			</g>
			<g>
				<g>
					<g>
						<g>
							<path fill="#FFFFFF" d="M10.6,25.4L10.6,25.4c-0.4-0.4-0.4-1.2,0-1.6l1.3-1.3c0.4-0.4,1.2-0.4,1.6,0l0,0
								c0.4,0.4,0.4,1.2,0,1.6l-1.3,1.3C11.8,25.8,11,25.8,10.6,25.4z"/>
						</g>
					</g>
				</g>
			</g>
		</g>
		<g>
			<g>
				<g>
					<g>
						<g>
							<path fill="#FFFFFF" d="M24.4,18L24.4,18c0-0.6,0.5-1.1,1.1-1.1h1.8c0.6,0,1.1,0.5,1.1,1.1l0,0c0,0.6-0.5,1.1-1.1,1.1h-1.8
								C24.9,19.1,24.4,18.6,24.4,18z"/>
						</g>
					</g>
				</g>
			</g>
			<g>
				<g>
					<g>
						<g>
							<path fill="#FFFFFF" d="M7.5,18L7.5,18c0-0.6,0.5-1.1,1.1-1.1h1.8c0.6,0,1.1,0.5,1.1,1.1l0,0c0,0.6-0.5,1.1-1.1,1.1H8.7
								C8,19.1,7.5,18.6,7.5,18z"/>
						</g>
					</g>
				</g>
			</g>
		</g>
		<g>
			<g>
				<g>
					<g>
						<g>
							<path fill="#FFFFFF" d="M22.5,22.5L22.5,22.5c0.4-0.4,1.2-0.4,1.6,0l1.3,1.3c0.4,0.4,0.4,1.2,0,1.6l0,0
								c-0.4,0.4-1.2,0.4-1.6,0l-1.3-1.3C22.1,23.7,22.1,23,22.5,22.5z"/>
						</g>
					</g>
				</g>
			</g>
			<g>
				<g>
					<g>
						<g>
							<path fill="#FFFFFF" d="M10.6,10.6L10.6,10.6c0.4-0.4,1.2-0.4,1.6,0l1.3,1.3c0.4,0.4,0.4,1.2,0,1.6v0c-0.4,0.4-1.2,0.4-1.6,0
								l-1.3-1.3C10.2,11.8,10.2,11,10.6,10.6z"/>
						</g>
					</g>
				</g>
			</g>
		</g>
	</g>
</g>
</svg>
