<?xml version="1.0" encoding="utf-8"?>
<!-- Generator: Adobe Illustrator 18.0.0, SVG Export Plug-In . SVG Version: 6.00 Build 0)  -->
<!DOCTYPE svg PUBLIC "-//W3C//DTD SVG 1.1//EN" "http://www.w3.org/Graphics/SVG/1.1/DTD/svg11.dtd">
<svg version="1.1" id="Layer_1" xmlns="http://www.w3.org/2000/svg" xmlns:xlink="http://www.w3.org/1999/xlink" x="0px" y="0px"
	 viewBox="0 0 36 36" enable-background="new 0 0 36 36" xml:space="preserve">
<g>
	<g>
		<g>
			<g>
				<g>
					<g>
						<g>
							<path fill="#6DAFE0" d="M27.7,21.7c-0.4,0.4-0.6,1-0.5,1.6l1.4,8c0.2,1.4-1.3,2.5-2.6,1.9l-7.2-3.8c-0.5-0.3-1.1-0.3-1.6,0
								L10,33.1c-1.3,0.7-2.8-0.4-2.6-1.9l1.4-8c0.1-0.6-0.1-1.2-0.5-1.6l-5.8-5.6c-1-1-0.5-2.8,1-3l8-1.2c0.6-0.1,1.1-0.4,1.3-1
								l3.6-7.2c0.6-1.3,2.5-1.3,3.2,0l3.6,7.2c0.3,0.5,0.8,0.9,1.3,1l8,1.2c1.4,0.2,2,2,1,3L27.7,21.7z"/>
						</g>
					</g>
				</g>
			</g>
		</g>
	</g>
	<g>
		<g>
			<g>
				<g>
					<g>
						<g>
							<path fill="#5CA4DA" d="M27.7,21.7c-0.4,0.4-0.6,1-0.5,1.6l1.4,8c0.2,1.4-1.3,2.5-2.6,1.9l-7.2-3.8c-0.5-0.3-1.1-0.3-1.6,0
								L10,33.1c-1.3,0.7-2.8-0.4-2.6-1.9l1-5.7c0.3,0,0.6,0,0.9,0c7.8,0,14.2-6.1,14.7-13.8c0.1,0.1,0.3,0.1,0.4,0.1l8,1.2
								c1.4,0.2,2,2,1,3L27.7,21.7z"/>
						</g>
					</g>
				</g>
			</g>
		</g>
	</g>
</g>
</svg>
