<?xml version="1.0" encoding="utf-8"?>
<!-- Generator: Adobe Illustrator 18.0.0, SVG Export Plug-In . SVG Version: 6.00 Build 0)  -->
<!DOCTYPE svg PUBLIC "-//W3C//DTD SVG 1.1//EN" "http://www.w3.org/Graphics/SVG/1.1/DTD/svg11.dtd">
<svg version="1.1" id="Layer_1" xmlns="http://www.w3.org/2000/svg" xmlns:xlink="http://www.w3.org/1999/xlink" x="0px" y="0px"
	 viewBox="0 0 36 36" enable-background="new 0 0 36 36" xml:space="preserve">
<g>
	<g>
		<g>
			<g>
				<g>
					<g>
						<path fill="#5CA4DA" d="M30.5,31c-4.9,4-20.2,4-25,0c-4.9-4-4.4-21.1,0-25.6c4.4-4.5,20.6-4.5,25,0S35.4,27,30.5,31z"/>
					</g>
				</g>
			</g>
		</g>
	</g>
	<g>
		<g>
			<g>
				<g>
					<path fill="#6DAFE0" d="M18.1,24c-4.4,3.5-9.3,5.3-13.9,5.4c-3.4-5.8-2.7-19.9,1.3-24C9.1,1.7,20.4,1,26.9,3.3
						C28.5,9.9,25.2,18.3,18.1,24z"/>
				</g>
			</g>
		</g>
	</g>
	<g>
		<g>
			<g>
				<g>
					<path fill="#FFFFFF" d="M18,6.2C11.5,6.2,6.2,11.5,6.2,18S11.5,29.8,18,29.8c6.5,0,11.8-5.3,11.8-11.8S24.5,6.2,18,6.2z
						 M18,27.4c-5.2,0-9.3-4.2-9.3-9.3c0-5.2,4.2-9.3,9.3-9.3c5.2,0,9.3,4.2,9.3,9.3C27.3,23.2,23.2,27.4,18,27.4z"/>
				</g>
			</g>
		</g>
	</g>
	<g>
		<g>
			<g>
				<g>
					<g>
						<g>
							<path fill="#FFFFFF" d="M20,19.3c1.2-0.5,1.8-1.4,1.8-2.9c0-1.1-0.3-1.9-1-2.4c-0.6-0.5-1.7-0.7-3.1-0.7h-3.5v9.3h1.9v-3h1.6
								l2.1,3h2.4L20,19.3z M19.8,16.4c0,0.5-0.1,0.9-0.4,1.1c-0.3,0.2-0.8,0.3-1.6,0.3h-1.7v-2.8h1.7c0.9,0,1.4,0.2,1.6,0.3
								C19.6,15.6,19.8,15.9,19.8,16.4z"/>
						</g>
					</g>
				</g>
			</g>
		</g>
	</g>
</g>
</svg>
