<?xml version="1.0" encoding="utf-8"?>
<!-- Generator: Adobe Illustrator 18.0.0, SVG Export Plug-In . SVG Version: 6.00 Build 0)  -->
<!DOCTYPE svg PUBLIC "-//W3C//DTD SVG 1.1//EN" "http://www.w3.org/Graphics/SVG/1.1/DTD/svg11.dtd">
<svg version="1.1" id="Layer_1" xmlns="http://www.w3.org/2000/svg" xmlns:xlink="http://www.w3.org/1999/xlink" x="0px" y="0px"
	 viewBox="0 0 36 36" enable-background="new 0 0 36 36" xml:space="preserve">
<g>
	<g>
		<g>
			<g>
				<g>
					<g>
						<g>
							<g>
								<path fill="#5CA4DA" d="M30.5,31c-4.9,4-20.2,4-25,0c-4.9-4-4.4-21.1,0-25.6c4.4-4.5,20.6-4.5,25,0
									C34.9,9.9,35.4,27,30.5,31z"/>
							</g>
						</g>
					</g>
				</g>
			</g>
		</g>
		<g>
			<g>
				<g>
					<g>
						<g>
							<path fill="#6DAFE0" d="M18.1,24c-4.4,3.5-9.3,5.3-13.9,5.4c-3.4-5.8-2.7-19.9,1.3-24C9.1,1.7,20.4,1,26.9,3.3
								C28.5,9.9,25.2,18.3,18.1,24z"/>
						</g>
					</g>
				</g>
			</g>
		</g>
	</g>
	<g>
		<g>
			<g>
				<g>
					<g>
						<path fill="#FFFFFF" d="M24.3,10.6c1.3,1.1,1.9,2.7,1.9,4.9s-0.6,3.8-1.9,4.9c-1.3,1-3.3,1.5-5.9,1.5h-2.4v5h-4V9h6.4
							C21,9,23,9.5,24.3,10.6z M21.3,17.7c0.5-0.5,0.7-1.3,0.7-2.4c0-1-0.3-1.8-0.9-2.2c-0.6-0.4-1.6-0.7-2.9-0.7h-2.3v6.1h2.7
							C19.9,18.5,20.8,18.2,21.3,17.7z"/>
					</g>
				</g>
			</g>
		</g>
	</g>
</g>
</svg>
