<?xml version="1.0" encoding="utf-8"?>
<!-- Generator: Adobe Illustrator 18.0.0, SVG Export Plug-In . SVG Version: 6.00 Build 0)  -->
<!DOCTYPE svg PUBLIC "-//W3C//DTD SVG 1.1//EN" "http://www.w3.org/Graphics/SVG/1.1/DTD/svg11.dtd">
<svg version="1.1" id="Layer_1" xmlns="http://www.w3.org/2000/svg" xmlns:xlink="http://www.w3.org/1999/xlink" x="0px" y="0px"
	 viewBox="0 0 36 36" enable-background="new 0 0 36 36" xml:space="preserve">
<g>
	<g>
		<g>
			<g>
				<g>
					<g>
						<polygon fill="#FED93D" points="20.2,8.5 18,2 15.8,8.5 						"/>
					</g>
				</g>
			</g>
		</g>
		<g>
			<g>
				<g>
					<g>
						<polygon fill="#FED93D" points="15.8,27.5 18,34 20.2,27.5 						"/>
					</g>
				</g>
			</g>
		</g>
		<g>
			<g>
				<g>
					<g>
						<g>
							<polygon fill="#FED93D" points="27.5,20.2 34,18 27.5,15.8 							"/>
						</g>
					</g>
				</g>
			</g>
			<g>
				<g>
					<g>
						<g>
							<polygon fill="#FED93D" points="8.5,15.8 2,18 8.5,20.2 							"/>
						</g>
					</g>
				</g>
			</g>
		</g>
		<g>
			<g>
				<g>
					<g>
						<g>
							<polygon fill="#FED93D" points="26.3,12.9 29.3,6.7 23.1,9.7 							"/>
						</g>
					</g>
				</g>
			</g>
			<g>
				<g>
					<g>
						<g>
							<polygon fill="#FED93D" points="9.7,23.1 6.7,29.3 12.9,26.3 							"/>
						</g>
					</g>
				</g>
			</g>
		</g>
		<g>
			<g>
				<g>
					<g>
						<g>
							<polygon fill="#FED93D" points="23.1,26.3 29.3,29.3 26.3,23.1 							"/>
						</g>
					</g>
				</g>
			</g>
			<g>
				<g>
					<g>
						<g>
							<polygon fill="#FED93D" points="12.9,9.7 6.7,6.7 9.7,12.9 							"/>
						</g>
					</g>
				</g>
			</g>
		</g>
	</g>
	<g>
		<g>
			<g>
				<g>
					<g>
						<circle fill="#FED93D" cx="18" cy="18" r="10.2"/>
					</g>
				</g>
			</g>
		</g>
		<g>
			<g>
				<g>
					<g>
						<path fill="#F4C533" d="M28.2,18c0,5.7-4.6,10.3-10.2,10.3c-3.8,0-7.1-2.1-8.9-5.2c1.5,0.9,3.3,1.4,5.1,1.4
							c5.7,0,10.2-4.6,10.2-10.2c0-1.9-0.5-3.6-1.4-5.1C26.2,10.9,28.2,14.2,28.2,18z"/>
					</g>
				</g>
			</g>
		</g>
		<g opacity="0.2">
			<g>
				<g>
					<g>
						
							<ellipse transform="matrix(0.819 -0.5738 0.5738 0.819 -5.3036 10.7049)" fill="#FFFFFF" cx="14.3" cy="13.8" rx="2.7" ry="2"/>
					</g>
				</g>
			</g>
		</g>
	</g>
</g>
</svg>
