<?xml version="1.0" encoding="utf-8"?>
<!-- Generator: Adobe Illustrator 18.0.0, SVG Export Plug-In . SVG Version: 6.00 Build 0)  -->
<!DOCTYPE svg PUBLIC "-//W3C//DTD SVG 1.1//EN" "http://www.w3.org/Graphics/SVG/1.1/DTD/svg11.dtd">
<svg version="1.1" id="Layer_1" xmlns="http://www.w3.org/2000/svg" xmlns:xlink="http://www.w3.org/1999/xlink" x="0px" y="0px"
	 viewBox="0 0 36 36" enable-background="new 0 0 36 36" xml:space="preserve">
<g>
	<g>
		<g>
			<g>
				<g>
					<g>
						<g>
							<path fill="#6DAFE0" d="M30.5,31c-4.9,4-20.2,4-25,0c-4.9-4-4.4-21.1,0-25.6c4.4-4.5,20.6-4.5,25,0C34.9,9.9,35.4,27,30.5,31
								z"/>
						</g>
					</g>
				</g>
			</g>
		</g>
		<g opacity="0.2">
			<g>
				<g>
					<g>
						<path fill="#FFFFFF" d="M18.1,24c-4.4,3.5-9.3,5.3-13.9,5.4c-3.4-5.8-2.7-19.9,1.3-24C9.1,1.7,20.4,1,26.9,3.3
							C28.5,9.9,25.2,18.3,18.1,24z"/>
					</g>
				</g>
			</g>
		</g>
	</g>
	<g>
		<g>
			<g>
				<g>
					<path fill="#FFFFFF" d="M25,19.9c-0.5-0.4-1.2,0-1.2,0.6v1c-2.1-0.4-4.1-1.6-5.3-3.4c1.2-1.8,3.1-3.1,5.3-3.4v1.1
						c0,0.6,0.7,1,1.2,0.6l2.8-2.3c0.4-0.3,0.4-0.8,0-1.1L25,10.5c-0.5-0.4-1.2,0-1.2,0.6v1c-2.6,0.3-5,1.7-6.7,3.7
						c-1.9-2.4-4.9-3.8-8-3.8C8.5,12,8,12.5,8,13.2c0,0.6,0.5,1.2,1.2,1.2c2.6,0,5.1,1.4,6.6,3.6c-1.4,2.2-3.9,3.6-6.6,3.6
						C8.5,21.5,8,22,8,22.7c0,0.6,0.5,1.2,1.2,1.2c3.1,0,6-1.4,8-3.8c1.6,2,4,3.4,6.7,3.7v1.2c0,0.6,0.7,1,1.2,0.6l2.8-2.3
						c0.4-0.3,0.4-0.8,0-1.1L25,19.9z"/>
				</g>
			</g>
		</g>
	</g>
</g>
</svg>
