<?xml version="1.0" encoding="utf-8"?>
<!-- Generator: Adobe Illustrator 18.0.0, SVG Export Plug-In . SVG Version: 6.00 Build 0)  -->
<!DOCTYPE svg PUBLIC "-//W3C//DTD SVG 1.1//EN" "http://www.w3.org/Graphics/SVG/1.1/DTD/svg11.dtd">
<svg version="1.1" id="Layer_1" xmlns="http://www.w3.org/2000/svg" xmlns:xlink="http://www.w3.org/1999/xlink" x="0px" y="0px"
	 viewBox="0 0 36 36" enable-background="new 0 0 36 36" xml:space="preserve">
<g>
	<g>
		<g>
			<g>
				<g>
					<g>
						<g>
							<path fill="#6DAFE0" d="M30.5,31c-4.9,4-20.2,4-25,0c-4.9-4-4.4-21.1,0-25.6c4.4-4.5,20.6-4.5,25,0C34.9,9.9,35.4,27,30.5,31
								z"/>
						</g>
					</g>
				</g>
			</g>
		</g>
		<g opacity="0.2">
			<g>
				<g>
					<g>
						<path fill="#FFFFFF" d="M18.1,24c-4.4,3.5-9.3,5.3-13.9,5.4c-3.4-5.8-2.7-19.9,1.3-24C9.1,1.7,20.4,1,26.9,3.3
							C28.5,9.9,25.2,18.3,18.1,24z"/>
					</g>
				</g>
			</g>
		</g>
	</g>
	<g>
		<g>
			<g>
				<g>
					<g>
						<path fill="#FFFFFF" d="M12.1,17.2l-3.8,2.8v-2.7c0-3.7,3-6.7,6.7-6.7h5.6V8.8c0-0.6,0.7-1,1.3-0.6l5,3.8
							c0.4,0.3,0.4,0.9,0,1.3l-5,3.8c-0.5,0.4-1.3,0-1.3-0.6v-1.9H15C13.4,14.4,12.1,15.7,12.1,17.2z"/>
					</g>
				</g>
			</g>
		</g>
		<g>
			<g>
				<g>
					<g>
						<path fill="#FFFFFF" d="M27.7,15.9v2.7c0,3.7-3,6.7-6.7,6.7h-5.5v1.9c0,0.6-0.7,1-1.3,0.6l-5-3.8c-0.4-0.3-0.4-0.9,0-1.3
							l5-3.8c0.5-0.4,1.3,0,1.3,0.6v1.9H21c1.6,0,2.9-1.3,2.9-2.8L27.7,15.9z"/>
					</g>
				</g>
			</g>
		</g>
	</g>
</g>
</svg>
