<?xml version="1.0" encoding="utf-8"?>
<!-- Generator: Adobe Illustrator 18.0.0, SVG Export Plug-In . SVG Version: 6.00 Build 0)  -->
<!DOCTYPE svg PUBLIC "-//W3C//DTD SVG 1.1//EN" "http://www.w3.org/Graphics/SVG/1.1/DTD/svg11.dtd">
<svg version="1.1" id="Layer_1" xmlns="http://www.w3.org/2000/svg" xmlns:xlink="http://www.w3.org/1999/xlink" x="0px" y="0px"
	 viewBox="0 0 36 36" enable-background="new 0 0 36 36" xml:space="preserve">
<g>
	<g>
		<g>
			<g>
				<g>
					<g>
						<g>
							<path fill="#5CA4DA" d="M30.5,31c-4.9,4-20.2,4-25,0S1.1,9.9,5.5,5.4c4.4-4.5,20.6-4.5,25,0C34.9,9.9,35.4,27,30.5,31z"/>
						</g>
					</g>
				</g>
			</g>
		</g>
		<g>
			<g>
				<g>
					<g>
						<path fill="#6DAFE0" d="M18.1,24c-4.4,3.5-9.3,5.3-13.9,5.4c-3.4-5.8-2.7-19.9,1.3-24C9.1,1.7,20.4,1,26.9,3.3
							C28.5,9.9,25.2,18.3,18.1,24z"/>
					</g>
				</g>
			</g>
		</g>
	</g>
	<g>
		<g>
			<g>
				<g>
					<path fill="#FFFFFF" d="M19.5,16.1c0.5-0.7,0.7-1.4,0.7-2c0-0.6-0.2-1.2-0.6-1.6c-0.4-0.4-1-0.7-1.6-0.7
						c-1.2,0-2.4,0.9-3.5,2.6l-3.5-2c0.9-1.4,1.9-2.5,3-3.2c1.1-0.7,2.5-1.1,4.1-1.1s3.1,0.5,4.4,1.6c1.3,1.1,1.9,2.5,1.9,4.3
						c0,1-0.3,2-0.8,2.9c-0.5,0.9-1.4,2.1-2.8,3.5L17.3,24H25v3.9H11.3v-3.2l5.7-5.8C18.2,17.7,19,16.8,19.5,16.1z"/>
				</g>
			</g>
		</g>
	</g>
</g>
</svg>
