<?xml version="1.0" encoding="utf-8"?>
<!-- Generator: Adobe Illustrator 18.0.0, SVG Export Plug-In . SVG Version: 6.00 Build 0)  -->
<!DOCTYPE svg PUBLIC "-//W3C//DTD SVG 1.1//EN" "http://www.w3.org/Graphics/SVG/1.1/DTD/svg11.dtd">
<svg version="1.1" id="Layer_1" xmlns="http://www.w3.org/2000/svg" xmlns:xlink="http://www.w3.org/1999/xlink" x="0px" y="0px"
	 viewBox="0 0 36 36" enable-background="new 0 0 36 36" xml:space="preserve">
<g>
	<g>
		<g>
			<g>
				<g>
					<g>
						<g>
							<path fill="#5CA4DA" d="M30.5,31c-4.9,4-20.2,4-25,0c-4.9-4-4.4-21.1,0-25.6c4.4-4.5,20.6-4.5,25,0C34.9,9.9,35.4,27,30.5,31
								z"/>
						</g>
					</g>
				</g>
			</g>
		</g>
		<g>
			<g>
				<g>
					<g>
						<path fill="#6DAFE0" d="M18.1,24c-4.4,3.5-9.3,5.3-13.9,5.4c-3.4-5.8-2.7-19.9,1.3-24C9.1,1.7,20.4,1,26.9,3.3
							C28.5,9.9,25.2,18.3,18.1,24z"/>
					</g>
				</g>
			</g>
		</g>
	</g>
	<g>
		<g>
			<g>
				<g>
					<path fill="#FFFFFF" d="M12.2,11.9V8.2H24v3l-4,4.5c1.5,0.3,2.7,0.9,3.6,2c0.8,1,1.3,2.2,1.3,3.6c0,2-0.7,3.6-2.1,4.8
						c-1.4,1.2-3.1,1.7-5.3,1.7c-2.1,0-4.3-0.8-6.5-2.3l1.8-3.4c1.8,1.3,3.5,1.9,4.9,1.9c0.9,0,1.6-0.2,2.1-0.6
						c0.6-0.4,0.8-1,0.8-1.8c0-0.8-0.3-1.4-1-1.9c-0.6-0.5-1.5-0.7-2.7-0.7c-0.6,0-1.5,0.2-2.6,0.5v-3.2l3.7-4.4H12.2z"/>
				</g>
			</g>
		</g>
	</g>
</g>
</svg>
