<?xml version="1.0" encoding="utf-8"?>
<!-- Generator: Adobe Illustrator 18.0.0, SVG Export Plug-In . SVG Version: 6.00 Build 0)  -->
<!DOCTYPE svg PUBLIC "-//W3C//DTD SVG 1.1//EN" "http://www.w3.org/Graphics/SVG/1.1/DTD/svg11.dtd">
<svg version="1.1" id="Layer_1" xmlns="http://www.w3.org/2000/svg" xmlns:xlink="http://www.w3.org/1999/xlink" x="0px" y="0px"
	 viewBox="0 0 36 36" enable-background="new 0 0 36 36" xml:space="preserve">
<g>
	<g>
		<g>
			<g>
				<g>
					<g>
						<g>
							<path fill="#5CA4DA" d="M30.5,31c-4.9,4-20.2,4-25,0c-4.9-4-4.4-21.1,0-25.6c4.4-4.5,20.6-4.5,25,0C34.9,9.9,35.4,27,30.5,31
								z"/>
						</g>
					</g>
				</g>
			</g>
		</g>
		<g>
			<g>
				<g>
					<g>
						<path fill="#6DAFE0" d="M18.1,24c-4.4,3.5-9.3,5.3-13.9,5.4c-3.4-5.8-2.7-19.9,1.3-24C9.1,1.7,20.4,1,26.9,3.3
							C28.5,9.9,25.2,18.3,18.1,24z"/>
					</g>
				</g>
			</g>
		</g>
	</g>
	<g>
		<g>
			<g>
				<g>
					<path fill="#FFFFFF" d="M17,24.3c1.2,0,2.1-0.4,2.8-1.2c0.7-0.8,1.1-1.9,1.2-3.3c-1.2,0.8-2.5,1.2-3.8,1.2
						c-1.8,0-3.3-0.6-4.5-1.8c-1.2-1.2-1.8-2.8-1.8-4.7c0-2,0.7-3.5,1.9-4.7C14,8.6,15.7,8,17.7,8c1.4,0,2.6,0.3,3.6,0.8
						c1,0.5,1.8,1.3,2.4,2.2c1.1,1.8,1.6,4.1,1.6,6.9c0,1.8-0.2,3.3-0.7,4.7c-0.4,1.3-1,2.4-1.8,3.2c-1.5,1.5-3.3,2.3-5.5,2.3
						c-0.9,0-1.8-0.1-2.6-0.4c-0.8-0.3-1.5-0.5-1.9-0.8c-0.4-0.3-0.9-0.6-1.5-1l2.2-3c0.1,0.1,0.3,0.3,0.5,0.4
						c0.2,0.2,0.6,0.4,1.2,0.7C15.9,24.1,16.4,24.3,17,24.3z M17.6,17.3c0.9,0,1.6-0.2,2.1-0.7c0.6-0.5,0.9-1.2,0.9-2
						c0-0.8-0.3-1.5-0.8-2.1c-0.6-0.6-1.2-0.9-2.1-0.9c-0.8,0-1.5,0.3-2,0.8c-0.5,0.5-0.8,1.2-0.8,2s0.2,1.5,0.7,2.1
						C16,17,16.7,17.3,17.6,17.3z"/>
				</g>
			</g>
		</g>
	</g>
</g>
</svg>
