<?xml version="1.0" encoding="utf-8"?>
<!-- Generator: Adobe Illustrator 18.0.0, SVG Export Plug-In . SVG Version: 6.00 Build 0)  -->
<!DOCTYPE svg PUBLIC "-//W3C//DTD SVG 1.1//EN" "http://www.w3.org/Graphics/SVG/1.1/DTD/svg11.dtd">
<svg version="1.1" id="Layer_1" xmlns="http://www.w3.org/2000/svg" xmlns:xlink="http://www.w3.org/1999/xlink" x="0px" y="0px"
	 viewBox="0 0 36 36" enable-background="new 0 0 36 36" xml:space="preserve">
<g>
	<g>
		<g>
			<g>
				<g>
					<g>
						<g>
							<g>
								<path fill="#5CA4DA" d="M30.5,31c-4.9,4-20.2,4-25,0c-4.9-4-4.4-21.1,0-25.6c4.4-4.5,20.6-4.5,25,0
									C34.9,9.9,35.4,27,30.5,31z"/>
							</g>
						</g>
					</g>
				</g>
			</g>
		</g>
		<g>
			<g>
				<g>
					<g>
						<g>
							<path fill="#6DAFE0" d="M18.1,24c-4.4,3.5-9.3,5.3-13.9,5.4c-3.4-5.8-2.7-19.9,1.3-24C9.1,1.7,20.4,1,26.9,3.3
								C28.5,9.9,25.2,18.3,18.1,24z"/>
						</g>
					</g>
				</g>
			</g>
		</g>
	</g>
	<g>
		<g>
			<g>
				<g>
					<g>
						<path fill="#FFFFFF" d="M24.9,24.8c-1.9,1.8-4.1,2.7-6.9,2.7c-2.7,0-5-0.9-6.9-2.7C9.3,23,8.3,20.7,8.3,18
							c0-2.7,0.9-5,2.8-6.8C13,9.4,15.3,8.5,18,8.5c2.7,0,5,0.9,6.9,2.7c1.9,1.8,2.8,4.1,2.8,6.8C27.7,20.7,26.7,23,24.9,24.8z
							 M23.7,18c0-1.7-0.5-3.1-1.6-4.3c-1.1-1.2-2.4-1.8-4-1.8s-2.9,0.6-4,1.8c-1.1,1.2-1.6,2.6-1.6,4.3c0,1.7,0.5,3.1,1.6,4.3
							c1.1,1.2,2.4,1.8,4,1.8s2.9-0.6,4-1.8C23.1,21.1,23.7,19.7,23.7,18z"/>
					</g>
				</g>
			</g>
		</g>
	</g>
</g>
</svg>
