<?xml version="1.0" encoding="utf-8"?>
<!-- Generator: Adobe Illustrator 18.0.0, SVG Export Plug-In . SVG Version: 6.00 Build 0)  -->
<!DOCTYPE svg PUBLIC "-//W3C//DTD SVG 1.1//EN" "http://www.w3.org/Graphics/SVG/1.1/DTD/svg11.dtd">
<svg version="1.1" id="Layer_1" xmlns="http://www.w3.org/2000/svg" xmlns:xlink="http://www.w3.org/1999/xlink" x="0px" y="0px"
	 viewBox="0 0 36 36" enable-background="new 0 0 36 36" xml:space="preserve">
<g>
	<g>
		<g>
			<g>
				<g>
					<g>
						<g>
							<g>
								<path fill="#5CA4DA" d="M30.5,31c-4.9,4-20.2,4-25,0c-4.9-4-4.4-21.1,0-25.6c4.4-4.5,20.6-4.5,25,0
									C34.9,9.9,35.4,27,30.5,31z"/>
							</g>
						</g>
					</g>
				</g>
			</g>
		</g>
		<g>
			<g>
				<g>
					<g>
						<g>
							<path fill="#6DAFE0" d="M18.1,24c-4.4,3.5-9.3,5.3-13.9,5.4c-3.4-5.8-2.7-19.9,1.3-24C9.1,1.7,20.4,1,26.9,3.3
								C28.5,9.9,25.2,18.3,18.1,24z"/>
						</g>
					</g>
				</g>
			</g>
		</g>
	</g>
	<g>
		<g>
			<g>
				<g>
					<g>
						<path fill="#FFFFFF" d="M9.3,15.7c-0.2,0.1-0.2,0.3-0.2,0.5c0,0.2,0.1,0.4,0.3,0.5c0.2,0.1,0.7,0.3,1.4,0.5
							c0.7,0.2,1.3,0.4,1.7,0.8c0.4,0.4,0.6,0.9,0.6,1.6c0,0.7-0.3,1.2-0.8,1.7c-0.5,0.4-1.2,0.6-2,0.6C9.1,22,8,21.5,7,20.6l1-1.2
							c0.8,0.7,1.6,1.1,2.3,1.1c0.3,0,0.6-0.1,0.7-0.2c0.2-0.1,0.3-0.3,0.3-0.5c0-0.2-0.1-0.4-0.3-0.5c-0.2-0.1-0.6-0.3-1.1-0.4
							c-0.9-0.2-1.5-0.5-2-0.8c-0.4-0.3-0.6-0.9-0.6-1.6c0-0.7,0.3-1.3,0.8-1.7c0.5-0.4,1.2-0.6,2-0.6c0.5,0,1,0.1,1.5,0.3
							c0.5,0.2,1,0.4,1.3,0.7l-0.9,1.2c-0.7-0.5-1.3-0.8-2.1-0.8C9.7,15.5,9.5,15.6,9.3,15.7z"/>
					</g>
				</g>
			</g>
		</g>
		<g>
			<g>
				<g>
					<g>
						<path fill="#FFFFFF" d="M20.9,20.8c-0.8,0.8-1.7,1.1-2.9,1.1c-1.1,0-2.1-0.4-2.9-1.1c-0.8-0.8-1.2-1.7-1.2-2.8
							c0-1.1,0.4-2.1,1.2-2.8C16,14.4,17,14,18.1,14c1.1,0,2.1,0.4,2.9,1.1c0.8,0.8,1.2,1.7,1.2,2.8C22.1,19.1,21.7,20.1,20.9,20.8z
							 M20.4,18c0-0.7-0.2-1.3-0.7-1.7c-0.4-0.5-1-0.7-1.6-0.7c-0.6,0-1.2,0.2-1.6,0.7c-0.4,0.5-0.7,1.1-0.7,1.7
							c0,0.7,0.2,1.3,0.7,1.7c0.4,0.5,1,0.7,1.6,0.7c0.6,0,1.2-0.2,1.6-0.7C20.1,19.3,20.4,18.7,20.4,18z"/>
					</g>
				</g>
			</g>
		</g>
		<g>
			<g>
				<g>
					<g>
						<path fill="#FFFFFF" d="M25.3,15.7c-0.2,0.1-0.2,0.3-0.2,0.5c0,0.2,0.1,0.4,0.3,0.5c0.2,0.1,0.7,0.3,1.4,0.5
							c0.7,0.2,1.3,0.4,1.7,0.8c0.4,0.4,0.6,0.9,0.6,1.6c0,0.7-0.3,1.2-0.8,1.7c-0.5,0.4-1.2,0.6-2,0.6c-1.2,0-2.3-0.4-3.3-1.3
							l1-1.2c0.8,0.7,1.6,1.1,2.3,1.1c0.3,0,0.6-0.1,0.7-0.2c0.2-0.1,0.3-0.3,0.3-0.5c0-0.2-0.1-0.4-0.3-0.5
							c-0.2-0.1-0.6-0.3-1.1-0.4c-0.9-0.2-1.5-0.5-2-0.8c-0.4-0.3-0.6-0.9-0.6-1.6c0-0.7,0.3-1.3,0.8-1.7c0.5-0.4,1.2-0.6,2-0.6
							c0.5,0,1,0.1,1.5,0.3c0.5,0.2,1,0.4,1.3,0.7L28,16.3c-0.7-0.5-1.3-0.8-2.1-0.8C25.7,15.5,25.4,15.6,25.3,15.7z"/>
					</g>
				</g>
			</g>
		</g>
	</g>
</g>
</svg>
