<?xml version="1.0" encoding="utf-8"?>
<!-- Generator: Adobe Illustrator 18.0.0, SVG Export Plug-In . SVG Version: 6.00 Build 0)  -->
<!DOCTYPE svg PUBLIC "-//W3C//DTD SVG 1.1//EN" "http://www.w3.org/Graphics/SVG/1.1/DTD/svg11.dtd">
<svg version="1.1" id="Layer_1" xmlns="http://www.w3.org/2000/svg" xmlns:xlink="http://www.w3.org/1999/xlink" x="0px" y="0px"
	 viewBox="0 0 36 36" enable-background="new 0 0 36 36" xml:space="preserve">
<g>
	<g>
		<g>
			<g>
				<g>
					<g>
						<g>
							<g>
								<path fill="#5CA4DA" d="M30.5,31c-4.9,4-20.2,4-25,0c-4.9-4-4.4-21.1,0-25.6c4.4-4.5,20.6-4.5,25,0
									C34.9,9.9,35.4,27,30.5,31z"/>
							</g>
						</g>
					</g>
				</g>
			</g>
		</g>
		<g>
			<g>
				<g>
					<g>
						<g>
							<path fill="#6DAFE0" d="M18.1,24c-4.4,3.5-9.3,5.3-13.9,5.4c-3.4-5.8-2.7-19.9,1.3-24C9.1,1.7,20.4,1,26.9,3.3
								C28.5,9.9,25.2,18.3,18.1,24z"/>
						</g>
					</g>
				</g>
			</g>
		</g>
	</g>
	<g>
		<g>
			<g>
				<g>
					<g>
						<path fill="#FFFFFF" d="M16.3,21.8c-1.1,1-2.3,1.5-3.9,1.5c-1.5,0-2.8-0.5-3.9-1.5C7.5,20.8,7,19.5,7,18
							c0-1.5,0.5-2.8,1.6-3.8c1.1-1,2.3-1.5,3.9-1.5c1.5,0,2.8,0.5,3.9,1.5c1.1,1,1.6,2.3,1.6,3.8C17.9,19.5,17.4,20.8,16.3,21.8z
							 M15.6,18c0-0.9-0.3-1.7-0.9-2.4c-0.6-0.7-1.3-1-2.2-1c-0.9,0-1.6,0.3-2.2,1c-0.6,0.7-0.9,1.4-0.9,2.4c0,0.9,0.3,1.7,0.9,2.4
							c0.6,0.6,1.3,1,2.2,1c0.9,0,1.6-0.3,2.2-1C15.3,19.7,15.6,18.9,15.6,18z"/>
					</g>
				</g>
			</g>
		</g>
		<g>
			<g>
				<g>
					<g>
						<path fill="#FFFFFF" d="M19.9,12.9h2.3v4.3l3.9-4.3H29l-4.1,4.6c0.4,0.5,1,1.4,2,2.8c1,1.4,1.7,2.4,2.2,3h-2.7l-3-4.1l-1,1.2
							v2.9h-2.3V12.9z"/>
					</g>
				</g>
			</g>
		</g>
	</g>
</g>
</svg>
