<?xml version="1.0" encoding="utf-8"?>
<!-- Generator: Adobe Illustrator 18.0.0, SVG Export Plug-In . SVG Version: 6.00 Build 0)  -->
<!DOCTYPE svg PUBLIC "-//W3C//DTD SVG 1.1//EN" "http://www.w3.org/Graphics/SVG/1.1/DTD/svg11.dtd">
<svg version="1.1" id="Layer_1" xmlns="http://www.w3.org/2000/svg" xmlns:xlink="http://www.w3.org/1999/xlink" x="0px" y="0px"
	 viewBox="0 0 36 36" enable-background="new 0 0 36 36" xml:space="preserve">
<g>
	<g>
		<g>
			<g>
				<g>
					<g>
						<g>
							<path fill="#5CA4DA" d="M30.5,31c-4.9,4-20.2,4-25,0c-4.9-4-4.4-21.1,0-25.6c4.4-4.5,20.6-4.5,25,0C34.9,9.9,35.4,27,30.5,31
								z"/>
						</g>
					</g>
				</g>
			</g>
		</g>
		<g>
			<g>
				<g>
					<g>
						<path fill="#6DAFE0" d="M18.1,24c-4.4,3.5-9.3,5.3-13.9,5.4c-3.4-5.8-2.7-19.9,1.3-24C9.1,1.7,20.4,1,26.9,3.3
							C28.5,9.9,25.2,18.3,18.1,24z"/>
					</g>
				</g>
			</g>
		</g>
	</g>
	<g>
		<g>
			<g>
				<g>
					<g>
						<path fill="#FFFFFF" d="M11.2,14.9v1.2H8.4v1.3h2.7v1.2H8.4v2.4H7v-6.1H11.2z"/>
					</g>
				</g>
			</g>
		</g>
		<g>
			<g>
				<g>
					<g>
						<path fill="#FFFFFF" d="M17.3,17c0,1-0.4,1.6-1.2,1.9l1.6,2.2H16l-1.4-2h-0.9v2h-1.4v-6.1h2.3c1,0,1.6,0.2,2,0.5
							C17.1,15.7,17.3,16.3,17.3,17z M15.7,17.7c0.2-0.2,0.3-0.4,0.3-0.7c0-0.3-0.1-0.6-0.3-0.7c-0.2-0.1-0.5-0.2-0.9-0.2h-1v1.8h1
							C15.2,17.9,15.5,17.8,15.7,17.7z"/>
					</g>
				</g>
			</g>
		</g>
		<g>
			<g>
				<g>
					<g>
						<path fill="#FFFFFF" d="M23.2,14.9v1.2h-3.1v1.3h2.7v1.2h-2.7v1.3h3.1v1.2h-4.5v-6.1H23.2z"/>
					</g>
				</g>
			</g>
		</g>
		<g>
			<g>
				<g>
					<g>
						<path fill="#FFFFFF" d="M28.9,14.9v1.2h-3.1v1.3h2.7v1.2h-2.7v1.3H29v1.2h-4.5v-6.1H28.9z"/>
					</g>
				</g>
			</g>
		</g>
	</g>
</g>
</svg>
