<?xml version="1.0" encoding="utf-8"?>
<!-- Generator: Adobe Illustrator 18.0.0, SVG Export Plug-In . SVG Version: 6.00 Build 0)  -->
<!DOCTYPE svg PUBLIC "-//W3C//DTD SVG 1.1//EN" "http://www.w3.org/Graphics/SVG/1.1/DTD/svg11.dtd">
<svg version="1.1" id="Layer_1" xmlns="http://www.w3.org/2000/svg" xmlns:xlink="http://www.w3.org/1999/xlink" x="0px" y="0px"
	 viewBox="0 0 36 36" enable-background="new 0 0 36 36" xml:space="preserve">
<g>
	<g>
		<g>
			<g>
				<g>
					<path fill="#D1403F" d="M18,34C9.2,34,2,26.8,2,18S9.2,2,18,2c8.8,0,16,7.2,16,16S26.8,34,18,34z M8.5,11.7
						c-1.2,1.9-1.9,4-1.9,6.3c0,6.3,5.1,11.4,11.4,11.4c2.2,0,4.4-0.7,6.3-1.9L8.5,11.7z M27.5,24.3c1.2-1.9,1.9-4,1.9-6.3
						c0-6.3-5.1-11.4-11.4-11.4c-2.2,0-4.4,0.7-6.3,1.9L27.5,24.3z"/>
				</g>
			</g>
		</g>
	</g>
</g>
</svg>
