<?xml version="1.0" encoding="utf-8"?>
<!-- Generator: Adobe Illustrator 18.0.0, SVG Export Plug-In . SVG Version: 6.00 Build 0)  -->
<!DOCTYPE svg PUBLIC "-//W3C//DTD SVG 1.1//EN" "http://www.w3.org/Graphics/SVG/1.1/DTD/svg11.dtd">
<svg version="1.1" id="Layer_1" xmlns="http://www.w3.org/2000/svg" xmlns:xlink="http://www.w3.org/1999/xlink" x="0px" y="0px"
	 viewBox="0 0 36 36" enable-background="new 0 0 36 36" xml:space="preserve">
<g>
	<g>
		<g>
			<g>
				<g>
					<path fill="#E24C4B" d="M18,34c8.8,0,16-7.2,16-16c0-8.8-7.2-16-16-16S2,9.2,2,18C2,26.8,9.2,34,18,34z"/>
				</g>
			</g>
		</g>
	</g>
	<g>
		<g>
			<g>
				<g>
					<path fill="#FFFFFF" d="M18,31c7.2,0,13-5.8,13-13c0-7.2-5.8-13-13-13C10.8,5,5,10.8,5,18C5,25.2,10.8,31,18,31z"/>
				</g>
			</g>
		</g>
	</g>
	<g>
		<g>
			<g>
				<g>
					<g>
						<g>
							<path fill="#3F4448" d="M24.1,13.5L23,25.9c-0.1,0.6-0.6,1.1-1.2,1.1h-7.6c-0.6,0-1.1-0.5-1.2-1.1l-1.1-12.4H24.1z"/>
						</g>
					</g>
				</g>
			</g>
		</g>
		<g>
			<g>
				<g>
					<g>
						<g>
							<path fill="#3F4448" d="M24.3,10.9H11.7c-0.5,0-0.9,0.4-0.9,0.9l0,0c0,0.5,0.4,0.9,0.9,0.9h12.5c0.5,0,0.9-0.4,0.9-0.9l0,0
								C25.2,11.4,24.8,10.9,24.3,10.9z"/>
						</g>
					</g>
				</g>
			</g>
		</g>
		<g>
			<g>
				<g>
					<g>
						<g>
							<path fill="#3F4448" d="M24.1,11.1l-0.5-1.6C23.4,9.2,23.2,9,22.9,9h-9.8c-0.3,0-0.5,0.2-0.6,0.4l-0.5,1.6
								c-0.1,0.2,0.1,0.4,0.3,0.4h11.5C24,11.5,24.1,11.3,24.1,11.1z"/>
						</g>
					</g>
				</g>
			</g>
		</g>
		<g>
			<g>
				<g>
					<g>
						<path fill="#FFFFFF" d="M23.6,18.6h-2.6c-0.4-1.3-1.6-2.3-3.1-2.3c-1.4,0-2.7,0.9-3.1,2.3h-2.6l0.2,1.9h2.4
							c0.4,1.3,1.6,2.3,3.1,2.3s2.7-0.9,3.1-2.3h2.4L23.6,18.6z"/>
					</g>
				</g>
			</g>
		</g>
		<g>
			<g>
				<g>
					<g>
						<g>
							<path fill="#3F4448" d="M16.3,20.6c0.3-0.8,0.9-1.2,1.7-1.2c0.6,0,1-0.3,1.3-0.9c0.1-0.2,0.2-0.4,0.3-0.5
								c-0.6-0.5-1.7-0.3-2.6,0.6c-0.8,0.8-1,1.7-0.7,2.4C16.2,20.8,16.3,20.7,16.3,20.6z"/>
						</g>
					</g>
				</g>
			</g>
			<g>
				<g>
					<g>
						<g>
							<path fill="#3F4448" d="M19.7,18.6c-0.1,0.3-0.3,0.5-0.4,0.7c-0.3,0.3-0.7,0.5-1.2,0.5c-0.6,0-1,0.3-1.3,0.9
								c-0.1,0.2-0.2,0.4-0.3,0.5c0.6,0.5,1.7,0.3,2.6-0.6c0.8-0.8,1-1.7,0.7-2.4C19.8,18.4,19.7,18.5,19.7,18.6z"/>
						</g>
					</g>
				</g>
			</g>
		</g>
	</g>
	<g>
		<g>
			<g>
				<g>
					<polygon fill="#E24C4B" points="27.5,29.6 29.6,27.5 8.5,6.4 6.4,8.5 					"/>
				</g>
			</g>
		</g>
	</g>
</g>
</svg>
