<?xml version="1.0" encoding="utf-8"?>
<!-- Generator: Adobe Illustrator 18.0.0, SVG Export Plug-In . SVG Version: 6.00 Build 0)  -->
<!DOCTYPE svg PUBLIC "-//W3C//DTD SVG 1.1//EN" "http://www.w3.org/Graphics/SVG/1.1/DTD/svg11.dtd">
<svg version="1.1" id="Layer_1" xmlns="http://www.w3.org/2000/svg" xmlns:xlink="http://www.w3.org/1999/xlink" x="0px" y="0px"
	 viewBox="0 0 36 36" enable-background="new 0 0 36 36" xml:space="preserve">
<g>
	<g>
		<g>
			<g>
				<g>
					<path fill="#E9EFF4" d="M16,15l-9-9l-1,1l9.2,9.2C15.4,15.7,15.7,15.3,16,15z"/>
				</g>
			</g>
		</g>
	</g>
	<g>
		<g>
			<g>
				<g>
					<path fill="#FED93D" d="M2.1,2.6l1.4,7C3.5,9.9,4,10,4.2,9.8l5.6-5.6c0.3-0.3,0.1-0.7-0.2-0.8L2.6,2C2.3,1.9,2,2.2,2.1,2.6z"/>
				</g>
			</g>
		</g>
	</g>
	<g>
		<g>
			<g>
				<g>
					<path fill="#D34178" d="M32.6,16.3c0,8.5-13.7,17.7-13.7,17.7S5.2,24.7,5.2,16.3c0-4.8,3.8-8.7,8.6-8.7c1.9,0,3.7,0.6,5.1,1.7
						c1.4-1.1,3.2-1.7,5.1-1.7C28.7,7.6,32.6,11.5,32.6,16.3z"/>
				</g>
			</g>
		</g>
	</g>
	<g>
		<g>
			<g>
				<g>
					<path fill="#BC3267" d="M32.6,16.3c0,8.2-12.9,17.2-13.7,17.7C19.6,33.4,29,24.5,29,16.3c0-4.2-2.9-7.7-6.8-8.5
						c0.6-0.1,1.2-0.2,1.8-0.2C28.7,7.6,32.6,11.5,32.6,16.3z"/>
				</g>
			</g>
		</g>
	</g>
	<g>
		<g>
			<g>
				<g>
					<g>
						
							<ellipse transform="matrix(0.6865 0.7271 -0.7271 0.6865 12.5632 -3.5763)" fill="#E84E89" cx="10.4" cy="12.8" rx="1.5" ry="3.1"/>
					</g>
				</g>
			</g>
		</g>
	</g>
	<g>
		<g>
			<g>
				<g>
					<circle fill="#BC3267" cx="18.3" cy="18.3" r="1.7"/>
				</g>
			</g>
		</g>
	</g>
	<g>
		<g>
			<g>
				<g>
					<g>
						<g>
							<path fill="#BC3267" d="M16.7,19.1v6.1c0,0.2,0.2,0.4,0.4,0.4c0.2,0,0.4-0.2,0.4-0.4v-6.1H16.7z"/>
						</g>
					</g>
				</g>
			</g>
		</g>
		<g>
			<g>
				<g>
					<g>
						<g>
							<path fill="#BC3267" d="M17.5,19.1v4.7c0,0.2,0.2,0.4,0.4,0.4c0.2,0,0.4-0.2,0.4-0.4v-4.7H17.5z"/>
						</g>
					</g>
				</g>
			</g>
		</g>
		<g>
			<g>
				<g>
					<g>
						<g>
							<path fill="#BC3267" d="M18.6,19.1v3.8c0,0.2,0.2,0.4,0.4,0.4c0.2,0,0.4-0.2,0.4-0.4v-3.8H18.6z"/>
						</g>
					</g>
				</g>
			</g>
		</g>
	</g>
	<g>
		<g>
			<g>
				<g>
					<path fill="#E9EFF4" d="M30.2,29.1l-12-12c-0.5,0.1-0.9,0.5-1,1l12.3,12.3C29.7,30,29.9,29.5,30.2,29.1z"/>
				</g>
			</g>
		</g>
	</g>
	<g>
		<g>
			<g>
				<g>
					<g>
						<path fill="#FED93D" d="M27,32.8c-2.3-2.3-2-7.8-2-7.8s5.4-0.3,7.8,2c1.3,1.3,1.6,3.2,0.6,4.2c-0.4,0.4-0.9,0.6-1.5,0.6
							c0,0.6-0.2,1.1-0.6,1.5C30.2,34.4,28.3,34.1,27,32.8z"/>
					</g>
				</g>
			</g>
		</g>
	</g>
	<g>
		<g>
			<g>
				<g>
					<circle fill="#BC3267" cx="18.9" cy="26.2" r="0.4"/>
				</g>
			</g>
		</g>
	</g>
</g>
</svg>
