<?xml version="1.0" encoding="utf-8"?>
<!-- Generator: Adobe Illustrator 18.0.0, SVG Export Plug-In . SVG Version: 6.00 Build 0)  -->
<!DOCTYPE svg PUBLIC "-//W3C//DTD SVG 1.1//EN" "http://www.w3.org/Graphics/SVG/1.1/DTD/svg11.dtd">
<svg version="1.1" id="Layer_1" xmlns="http://www.w3.org/2000/svg" xmlns:xlink="http://www.w3.org/1999/xlink" x="0px" y="0px"
	 viewBox="0 0 36 36" enable-background="new 0 0 36 36" xml:space="preserve">
<g>
	<g>
		<g>
			<g>
				<g>
					<g>
						<g>
							<g>
								<path fill="#E24C4B" d="M34,4.9l0,26.3c0,1.6-1.3,2.9-2.9,2.9L4.9,34C3.3,34,2,32.7,2,31.1L2,4.9C2,3.3,3.3,2,4.9,2l26.3,0
									C32.7,2,34,3.3,34,4.9z"/>
							</g>
						</g>
					</g>
				</g>
				<g>
					<g>
						<g>
							<g>
								<g>
									<rect x="5" y="5" fill="#FFFFFF" width="26" height="26"/>
								</g>
							</g>
						</g>
					</g>
				</g>
			</g>
		</g>
		<g>
			<g>
				<g>
					<g>
						<g>
							<path fill="#3F4448" d="M17,8.4l-0.9,5.8c-0.1,0.4-0.6,0.6-0.8,0.3l-1.4-1.4l0,0l-3.1,3.1v11.8H7.6V16c0-0.7,0.3-1.3,0.7-1.8
								l3.3-3.3l-1.4-1.4c-0.3-0.3-0.1-0.8,0.3-0.8l5.8-0.9C16.7,7.8,17,8.1,17,8.4z"/>
						</g>
					</g>
				</g>
			</g>
			<g>
				<g>
					<g>
						<g>
							<path fill="#3F4448" d="M27.9,13.6H26v14.5h-3.1V13.6h-1.9c-0.4,0-0.6-0.5-0.4-0.8L24,8.1c0.2-0.3,0.6-0.3,0.8,0l3.5,4.7
								C28.5,13.1,28.3,13.6,27.9,13.6z"/>
						</g>
					</g>
				</g>
			</g>
		</g>
	</g>
	<g>
		<g>
			<g>
				<g>
					<g>
						<g>
							<rect x="17.5" y="26" fill="#3F4448" width="0.9" height="2.2"/>
						</g>
					</g>
				</g>
			</g>
		</g>
		<g>
			<g>
				<g>
					<g>
						<g>
							<rect x="17.5" y="22.5" fill="#3F4448" width="0.9" height="2.2"/>
						</g>
					</g>
				</g>
			</g>
		</g>
		<g>
			<g>
				<g>
					<g>
						<g>
							<rect x="17.5" y="19" fill="#3F4448" width="0.9" height="2.2"/>
						</g>
					</g>
				</g>
			</g>
		</g>
		<g>
			<g>
				<g>
					<g>
						<g>
							<rect x="17.5" y="15.6" fill="#3F4448" width="0.9" height="2.2"/>
						</g>
					</g>
				</g>
			</g>
		</g>
	</g>
</g>
</svg>
