<?xml version="1.0" encoding="utf-8"?>
<!-- Generator: Adobe Illustrator 18.0.0, SVG Export Plug-In . SVG Version: 6.00 Build 0)  -->
<!DOCTYPE svg PUBLIC "-//W3C//DTD SVG 1.1//EN" "http://www.w3.org/Graphics/SVG/1.1/DTD/svg11.dtd">
<svg version="1.1" id="Layer_1" xmlns="http://www.w3.org/2000/svg" xmlns:xlink="http://www.w3.org/1999/xlink" x="0px" y="0px"
	 viewBox="0 0 36 36" enable-background="new 0 0 36 36" xml:space="preserve">
<g>
	<g>
		<g>
			<g>
				<g>
					<g>
						<g>
							<g>
								<path fill="#E24C4B" d="M2,4.9l0,26.3C2,32.7,3.3,34,4.9,34l26.3,0c1.6,0,2.9-1.3,2.9-2.9l0-26.3C34,3.3,32.7,2,31.1,2
									L4.9,2C3.3,2,2,3.3,2,4.9z"/>
							</g>
						</g>
					</g>
				</g>
				<g>
					<g>
						<g>
							<g>
								<g>
									<rect x="5" y="5" fill="#FFFFFF" width="26" height="26"/>
								</g>
							</g>
						</g>
					</g>
				</g>
			</g>
		</g>
		<g>
			<g>
				<g>
					<g>
						<g>
							<path fill="#3F4448" d="M19,8.4l0.9,5.8c0.1,0.4,0.6,0.6,0.8,0.3l1.4-1.4l0,0l3.1,3.1v11.8h3.1V16c0-0.7-0.3-1.3-0.7-1.8
								L24.3,11l1.4-1.4c0.3-0.3,0.1-0.8-0.3-0.8l-5.8-0.9C19.3,7.8,19,8.1,19,8.4z"/>
						</g>
					</g>
				</g>
			</g>
			<g>
				<g>
					<g>
						<g>
							<path fill="#3F4448" d="M8.1,13.6H10v14.5h3.1V13.6h1.9c0.4,0,0.6-0.5,0.4-0.8L12,8.1c-0.2-0.3-0.6-0.3-0.8,0l-3.5,4.7
								C7.5,13.1,7.7,13.6,8.1,13.6z"/>
						</g>
					</g>
				</g>
			</g>
		</g>
	</g>
	<g>
		<g>
			<g>
				<g>
					<g>
						<g>
							<rect x="17.5" y="26" fill="#3F4448" width="0.9" height="2.2"/>
						</g>
					</g>
				</g>
			</g>
		</g>
		<g>
			<g>
				<g>
					<g>
						<g>
							<rect x="17.5" y="22.5" fill="#3F4448" width="0.9" height="2.2"/>
						</g>
					</g>
				</g>
			</g>
		</g>
		<g>
			<g>
				<g>
					<g>
						<g>
							<rect x="17.5" y="19" fill="#3F4448" width="0.9" height="2.2"/>
						</g>
					</g>
				</g>
			</g>
		</g>
		<g>
			<g>
				<g>
					<g>
						<g>
							<rect x="17.5" y="15.6" fill="#3F4448" width="0.9" height="2.2"/>
						</g>
					</g>
				</g>
			</g>
		</g>
	</g>
</g>
</svg>
