<?xml version="1.0" encoding="utf-8"?>
<!-- Generator: Adobe Illustrator 18.0.0, SVG Export Plug-In . SVG Version: 6.00 Build 0)  -->
<!DOCTYPE svg PUBLIC "-//W3C//DTD SVG 1.1//EN" "http://www.w3.org/Graphics/SVG/1.1/DTD/svg11.dtd">
<svg version="1.1" id="Layer_1" xmlns="http://www.w3.org/2000/svg" xmlns:xlink="http://www.w3.org/1999/xlink" x="0px" y="0px"
	 viewBox="0 0 36 36" enable-background="new 0 0 36 36" xml:space="preserve">
<g>
	<g>
		<g>
			<g>
				<g>
					<g>
						<g>
							<g>
								<g>
									<g>
										<g>
											<g>
												<g>
													<g>
														<g>
															<path fill="#E24C4B" d="M18,2C9.2,2,2,9.2,2,18s7.2,16,16,16c8.8,0,16-7.2,16-16S26.8,2,18,2z"/>
														</g>
													</g>
												</g>
											</g>
										</g>
										<g>
											<g>
												<g>
													<g>
														<path fill="#FFFFFF" d="M5,18c0-7.2,5.8-13,13-13s13,5.8,13,13c0,7.2-5.8,13-13,13S5,25.2,5,18z"/>
													</g>
												</g>
											</g>
										</g>
										<g>
											<g>
												<g>
													<g>
														<g>
															<path fill="#3F4448" d="M27.9,22.3c1.1,3.2-3.5,4.8-4.4,2.4c-0.9,0.6-2.1,0.5-2.5,0.1c-0.4,1-1.7,1.1-2.3,0.4
																c0,0,0,0,0,0c-0.4,0.2-3,0.1-3.5,0.1c0.6-0.1,1.8-0.5,2.2-0.9c-0.3-0.5,1.2-1.6,1.8-0.9c0.2-1.2,1.2-1.7,1.7-1.4
																c-0.1-1.1,1-2,2.5-1.9c-0.3-2.2,2.3-3.2,3.6-1.8c0.6-0.3,1.4-0.2,2,0.2C30.1,19.8,29.7,21.8,27.9,22.3z"/>
														</g>
													</g>
												</g>
											</g>
										</g>
									</g>
								</g>
							</g>
						</g>
					</g>
				</g>
			</g>
		</g>
		<g>
			<g>
				<g>
					<g>
						<g>
							<g>
								<g>
									<path fill="#3F4448" d="M11.3,22.6c-1.2,0-2.2,1-2.2,2.2s1,2.2,2.2,2.2c1.2,0,2.2-1,2.2-2.2S12.5,22.6,11.3,22.6z
										 M11.3,25.7c-0.5,0-0.9-0.4-0.9-0.9c0-0.5,0.4-0.9,0.9-0.9c0.5,0,0.9,0.4,0.9,0.9C12.2,25.3,11.8,25.7,11.3,25.7z"/>
								</g>
							</g>
						</g>
					</g>
				</g>
				<g>
					<g>
						<g>
							<g>
								<path fill="#3F4448" d="M16.2,20.4h-1.1l-3.9-3.7c-0.1-0.1-0.3-0.2-0.5-0.2H5.1c0,0.4-0.1,0.7-0.1,1.1h0.9v2.8H5.2
									c0.3,1.6,0.9,3.1,1.7,4.4h1.3c0-1.7,1.4-3,3-3c1.7,0,3,1.3,3,3h0.8c0.6,0,1.2-0.5,1.2-1.1l0.2-3
									C16.5,20.5,16.4,20.4,16.2,20.4z M12.4,20.4H7v-2.8h3.6l1.8,1.7V20.4z"/>
							</g>
						</g>
					</g>
				</g>
			</g>
		</g>
	</g>
	<g>
		<g>
			<g>
				<g>
					<g>
						<polygon fill="#E24C4B" points="29.6,27.5 27.5,29.6 6.4,8.5 8.5,6.4 						"/>
					</g>
				</g>
			</g>
		</g>
	</g>
</g>
</svg>
