<?xml version="1.0" encoding="utf-8"?>
<!-- Generator: Adobe Illustrator 18.0.0, SVG Export Plug-In . SVG Version: 6.00 Build 0)  -->
<!DOCTYPE svg PUBLIC "-//W3C//DTD SVG 1.1//EN" "http://www.w3.org/Graphics/SVG/1.1/DTD/svg11.dtd">
<svg version="1.1" id="Layer_1" xmlns="http://www.w3.org/2000/svg" xmlns:xlink="http://www.w3.org/1999/xlink" x="0px" y="0px"
	 viewBox="0 0 36 36" enable-background="new 0 0 36 36" xml:space="preserve">
<g>
	<g>
		<g>
			<g>
				<g>
					<path fill="#E24C4B" d="M18,34c8.8,0,16-7.2,16-16c0-8.8-7.2-16-16-16C9.2,2,2,9.2,2,18C2,26.8,9.2,34,18,34z"/>
				</g>
			</g>
		</g>
	</g>
	<g>
		<g>
			<g>
				<g>
					<path fill="#FFFFFF" d="M18,31c7.2,0,13-5.8,13-13c0-7.2-5.8-13-13-13S5,10.8,5,18C5,25.2,10.8,31,18,31z"/>
				</g>
			</g>
		</g>
	</g>
	<g>
		<g>
			<g>
				<g>
					<g>
						<path fill="#3F4448" d="M27.4,12.3H11c-0.5,0-0.5,0.9,0,0.9h0.8c-0.9,1.7-1.3,3.7-1.3,5.5c-0.3,0-0.6,0-1,0.1
							c-0.2,0-0.3,0.2-0.3,0.4c0,0.2,0.2,0.3,0.4,0.3c0.9-0.2,1.8,0,2.4,0.5l-0.5,0.5c-0.4-0.3-0.8-0.4-1.3-0.4
							c-1.2,0-2.2,1-2.2,2.2c0,1.2,1,2.2,2.2,2.2c1.2,0,2.2-1,2.2-2.2c0-0.5-0.2-0.9-0.4-1.3l0.5-0.5c0.4,0.5,0.6,1.1,0.6,1.8
							c0,0.2,0.2,0.4,0.4,0.4c0,0,0,0,0.1,0h7.2v0h0.7c0.2,1.1,1.1,1.9,2.2,1.9c1.1,0,2-0.8,2.2-1.9h0.3c0.3,0,0.5-0.2,0.5-0.5v-8.9
							h0.7C28,13.1,28,12.3,27.4,12.3z M17.3,13.1v4.9H16c-0.8,0-1.5,0.7-1.5,1.5v1.7h-0.6c-0.1-1.2-0.6-2.2-1.5-2.9l1.1-1.5
							l0.4,0.4c0.1,0.1,0.2,0.1,0.3,0.1c0.1,0,0.2,0,0.3-0.1c0.1-0.1,0.1-0.4,0-0.5l-1.3-1.3c-0.1-0.1-0.4-0.1-0.5,0
							c-0.1,0.1-0.1,0.4,0,0.5l0.4,0.4L11.8,18c-0.1-0.1-0.2-0.1-0.4-0.2c0.1-1.5,0.5-3.1,1.4-4.7H17.3z M11.2,22.2
							c0,0.5-0.4,0.9-0.9,0.9c-0.5,0-0.9-0.4-0.9-0.9c0-0.5,0.4-0.9,0.9-0.9c0.1,0,0.2,0,0.4,0.1L10,22c-0.1,0.1-0.1,0.4,0,0.5
							c0.1,0.1,0.2,0.1,0.3,0.1c0.1,0,0.2,0,0.3-0.1l0.6-0.6C11.2,22,11.2,22.1,11.2,22.2z M23.7,23.2c-0.5,0-0.9-0.4-0.9-0.9
							c0-0.5,0.4-0.9,0.9-0.9c0.5,0,0.9,0.4,0.9,0.9C24.6,22.8,24.2,23.2,23.7,23.2z M24,18.1h-1.7c-0.8,0-1.5,0.7-1.5,1.5v1.7h-2.5
							v-8.2H24V18.1z"/>
					</g>
				</g>
			</g>
		</g>
	</g>
	<g>
		<g>
			<g>
				<g>
					<polygon fill="#E24C4B" points="27.5,29.6 29.6,27.5 8.5,6.4 6.4,8.5 					"/>
				</g>
			</g>
		</g>
	</g>
</g>
</svg>
