<?xml version="1.0" encoding="utf-8"?>
<!-- Generator: Adobe Illustrator 18.0.0, SVG Export Plug-In . SVG Version: 6.00 Build 0)  -->
<!DOCTYPE svg PUBLIC "-//W3C//DTD SVG 1.1//EN" "http://www.w3.org/Graphics/SVG/1.1/DTD/svg11.dtd">
<svg version="1.1" id="Layer_1" xmlns="http://www.w3.org/2000/svg" xmlns:xlink="http://www.w3.org/1999/xlink" x="0px" y="0px"
	 viewBox="0 0 36 36" enable-background="new 0 0 36 36" xml:space="preserve">
<g>
	<g>
		<g>
			<g>
				<g>
					<g>
						<g>
							<path fill="#E24C4B" d="M34,4.9v26.3c0,1.6-1.3,2.9-2.9,2.9H4.9C3.3,34,2,32.7,2,31.1V4.9C2,3.3,3.3,2,4.9,2h26.3
								C32.7,2,34,3.3,34,4.9z"/>
						</g>
					</g>
				</g>
			</g>
			<g>
				<g>
					<g>
						<g>
							<g>
								<rect x="5" y="5" fill="#FFFFFF" width="26" height="26"/>
							</g>
						</g>
					</g>
				</g>
			</g>
		</g>
		<g>
			<g>
				<g>
					<g>
						<g>
							<g>
								<path fill="#3F4448" d="M24,16.6c-4-0.4-8-0.4-12,0c-0.4,0-0.7,0.4-0.7,0.8v11.9c0,0.4,0.3,0.8,0.8,0.8h0.5v0.7
									c0,0.2,0.1,0.3,0.3,0.3h1.7c0.2,0,0.3-0.1,0.3-0.3v-0.7h6.4v0.7c0,0.2,0.1,0.3,0.3,0.3h1.7c0.2,0,0.3-0.1,0.3-0.3v-0.7h0.5
									c0.4,0,0.8-0.3,0.8-0.8V17.4C24.7,17,24.4,16.7,24,16.6z M15.8,17.4h4.4c0.3,0,0.5,0.2,0.5,0.5c0,0.3-0.2,0.5-0.5,0.5h-4.4
									c-0.3,0-0.5-0.2-0.5-0.5C15.3,17.6,15.5,17.4,15.8,17.4z M17.2,19.4l-3.9,3.9c-0.1,0-0.3-0.1-0.4-0.1l3.8-3.8H17.2z
									 M12.3,19.4h4l-3.7,3.7c-0.1,0-0.2,0-0.3-0.1V19.4z M14.2,28.4c-0.6,0-1.1-0.5-1.1-1.1c0-0.6,0.5-1.1,1.1-1.1
									c0.6,0,1.1,0.5,1.1,1.1C15.3,27.9,14.9,28.4,14.2,28.4z M19.4,28.6h-2.7c-0.1,0-0.2-0.1-0.2-0.2c0-0.1,0.1-0.2,0.2-0.2h2.7
									c0.1,0,0.2,0.1,0.2,0.2C19.6,28.5,19.5,28.6,19.4,28.6z M19.4,27.6h-2.7c-0.1,0-0.2-0.1-0.2-0.2s0.1-0.2,0.2-0.2h2.7
									c0.1,0,0.2,0.1,0.2,0.2S19.5,27.6,19.4,27.6z M19.4,26.6h-2.7c-0.1,0-0.2-0.1-0.2-0.2c0-0.1,0.1-0.2,0.2-0.2h2.7
									c0.1,0,0.2,0.1,0.2,0.2C19.6,26.4,19.5,26.6,19.4,26.6z M20.6,27.3c0-0.6,0.5-1.1,1.1-1.1c0.6,0,1.1,0.5,1.1,1.1
									c0,0.6-0.5,1.1-1.1,1.1C21.1,28.4,20.6,27.9,20.6,27.3z M23.7,23.1c-3.2,1-6.4,1.2-9.6,0.5l4.2-4.2h5.4V23.1z"/>
							</g>
						</g>
					</g>
				</g>
			</g>
			<g>
				<g>
					<g>
						<g>
							<g>
								<path fill="#3F4448" d="M16.5,14.9h2.9v-3.4h1.3c0.3,0,0.4-0.3,0.3-0.5l-2.8-3.5c-0.1-0.2-0.4-0.2-0.5,0L15,10.9
									c-0.2,0.2,0,0.5,0.3,0.5h1.3V14.9z"/>
							</g>
						</g>
					</g>
				</g>
			</g>
		</g>
	</g>
	<g>
		<g>
			<g>
				<g>
					<g>
						<path fill="#E24C4B" d="M33.2,33.2c-0.7,0.7-1.7,0.7-2.4,0l-28-28c-0.7-0.7-0.7-1.7,0-2.4C3.2,2.5,3.6,2.3,4,2.3
							c0.4,0,0.9,0.2,1.2,0.5l28,28C33.8,31.4,33.8,32.5,33.2,33.2z"/>
					</g>
				</g>
			</g>
		</g>
	</g>
</g>
</svg>
