<?xml version="1.0" encoding="utf-8"?>
<!-- Generator: Adobe Illustrator 18.0.0, SVG Export Plug-In . SVG Version: 6.00 Build 0)  -->
<!DOCTYPE svg PUBLIC "-//W3C//DTD SVG 1.1//EN" "http://www.w3.org/Graphics/SVG/1.1/DTD/svg11.dtd">
<svg version="1.1" id="Layer_1" xmlns="http://www.w3.org/2000/svg" xmlns:xlink="http://www.w3.org/1999/xlink" x="0px" y="0px"
	 viewBox="0 0 36 36" enable-background="new 0 0 36 36" xml:space="preserve">
<g>
	<g>
		<g>
			<g>
				<g>
					<path fill="#3F4448" d="M23.9,13v10c2.7,0,5-2.2,5-5C28.8,15.3,26.6,13,23.9,13z"/>
				</g>
			</g>
		</g>
	</g>
	<g>
		<g>
			<g>
				<g>
					<g>
						<path fill="#3F4448" d="M11.5,26.1H5.1c-1.1,0-2-0.9-2-2V11.9c0-1.1,0.9-2,2-2h6.4V26.1z"/>
					</g>
				</g>
			</g>
		</g>
		<g>
			<g>
				<g>
					<g>
						<path fill="#DFE4E9" d="M23.7,33.9l-13.2-7.8V9.9l13.2-7.8c0.6-0.4,1.4,0.1,1.4,0.8v30.1C25.1,33.8,24.3,34.2,23.7,33.9z"/>
					</g>
				</g>
			</g>
		</g>
	</g>
	<g>
		<g>
			<g>
				<g>
					<g>
						<g>
							<path fill="#5CA4DA" d="M29,24.9c-0.3-0.3-0.3-0.7,0-1c3.3-3.3,3.3-8.6,0-11.8c-0.3-0.3-0.3-0.7,0-1c0.3-0.3,0.7-0.3,1,0
								c3.8,3.8,3.8,10,0,13.8C29.7,25.2,29.3,25.2,29,24.9z"/>
						</g>
					</g>
				</g>
			</g>
		</g>
	</g>
</g>
</svg>
