<?xml version="1.0" encoding="utf-8"?>
<!-- Generator: Adobe Illustrator 18.0.0, SVG Export Plug-In . SVG Version: 6.00 Build 0)  -->
<!DOCTYPE svg PUBLIC "-//W3C//DTD SVG 1.1//EN" "http://www.w3.org/Graphics/SVG/1.1/DTD/svg11.dtd">
<svg version="1.1" id="Layer_1" xmlns="http://www.w3.org/2000/svg" xmlns:xlink="http://www.w3.org/1999/xlink" x="0px" y="0px"
	 viewBox="0 0 36 36" enable-background="new 0 0 36 36" xml:space="preserve">
<g>
	<g>
		<g>
			<g>
				<g>
					<g>
						<path fill="#E24C4B" d="M34,4.9v26.3c0,1.6-1.3,2.9-2.9,2.9H4.9C3.3,34,2,32.7,2,31.1V4.9C2,3.3,3.3,2,4.9,2h26.3
							C32.7,2,34,3.3,34,4.9z"/>
					</g>
				</g>
			</g>
		</g>
		<g>
			<g>
				<g>
					<g>
						<g>
							<rect x="5" y="5" fill="#FFFFFF" width="26" height="26"/>
						</g>
					</g>
				</g>
			</g>
		</g>
		<g>
			<g>
				<g>
					<g>
						<g>
							<rect x="5" y="5" fill="#FFFFFF" width="26" height="26"/>
						</g>
					</g>
				</g>
			</g>
		</g>
	</g>
	<g>
		<g>
			<g>
				<g>
					<path fill="#3F4448" d="M31,25c-0.2,0-0.3,0-0.4,0.1c-2.3,0.3-2.3-0.4-4.5-0.4c-2.2-0.1-3,1.1-5.1,1.1c-2.1,0-1.8-0.5-4.3-1.3
						c-2.5-0.9-2.5-0.2-5.1,0.5C10,25.4,7.1,25.1,5,24.7V31h26V25z"/>
				</g>
			</g>
		</g>
	</g>
	<g>
		<g>
			<g>
				<g>
					<path fill="#3F4448" d="M25.1,23.2c-2.4,0.2-3.7,1.8-5.9,0.7c-4.9-2.6-5.6-1-8.4-0.3l0.1-1.9c0.1-1,0.9-1.8,2-1.8h3.3v-1.2
						h-1.4c-0.3,0-0.6-0.3-0.6-0.6v-1.2h-0.4c-0.2,0-0.4-0.2-0.3-0.4l0.7-2.1c0.2-2,1.7-3.8,3.8-3.9c3.8-0.3,5.9,4.3,3.2,7
						c-0.4,0.4-0.8,0.7-1.2,0.9v1.6h3.3c1,0,1.9,0.8,2,1.8L25.1,23.2z"/>
				</g>
			</g>
		</g>
	</g>
</g>
</svg>
