<?xml version="1.0" encoding="utf-8"?>
<!-- Generator: Adobe Illustrator 18.0.0, SVG Export Plug-In . SVG Version: 6.00 Build 0)  -->
<!DOCTYPE svg PUBLIC "-//W3C//DTD SVG 1.1//EN" "http://www.w3.org/Graphics/SVG/1.1/DTD/svg11.dtd">
<svg version="1.1" id="Layer_1" xmlns="http://www.w3.org/2000/svg" xmlns:xlink="http://www.w3.org/1999/xlink" x="0px" y="0px"
	 viewBox="0 0 36 36" enable-background="new 0 0 36 36" xml:space="preserve">
<g>
	<g>
		<g>
			<g>
				<g>
					<g>
						
							<ellipse transform="matrix(-4.344423e-004 1 -1 -4.344423e-004 36.0078 7.882696e-003)" fill="#E24C4B" cx="18" cy="18" rx="16" ry="16"/>
					</g>
				</g>
			</g>
		</g>
		<g>
			<g>
				<g>
					<g>
						<path fill="#FFFFFF" d="M18,31c-7.2,0-13-5.8-13-13c0-7.2,5.8-13,13-13c7.2,0,13,5.8,13,13C31,25.2,25.2,31,18,31z"/>
					</g>
				</g>
			</g>
		</g>
		<g>
			<g>
				<g>
					<g>
						<path fill="#3F4448" d="M14.1,24.6V11.9c3,0,6.2-0.1,7.2,0.2c1.3,0.3,2.6,1.5,2.6,3.7c0,4.6-4.5,4-7.2,4v4.8H14.1z M16.7,14
							v3.6h1.4c1,0,3.1,0.1,3.1-1.8C21.3,13.7,19,14,16.7,14z"/>
					</g>
				</g>
			</g>
		</g>
	</g>
	<g>
		<g>
			<g>
				<g>
					<polygon fill="#E24C4B" points="29.6,27.5 27.5,29.6 6.4,8.5 8.5,6.4 					"/>
				</g>
			</g>
		</g>
	</g>
</g>
</svg>
