<?xml version="1.0" encoding="utf-8"?>
<!-- Generator: Adobe Illustrator 18.0.0, SVG Export Plug-In . SVG Version: 6.00 Build 0)  -->
<!DOCTYPE svg PUBLIC "-//W3C//DTD SVG 1.1//EN" "http://www.w3.org/Graphics/SVG/1.1/DTD/svg11.dtd">
<svg version="1.1" id="Layer_1" xmlns="http://www.w3.org/2000/svg" xmlns:xlink="http://www.w3.org/1999/xlink" x="0px" y="0px"
	 viewBox="0 0 36 36" enable-background="new 0 0 36 36" xml:space="preserve">
<g>
	<g>
		<g>
			<g>
				<g>
					<g>
						
							<ellipse transform="matrix(-4.344423e-004 1 -1 -4.344423e-004 36.0078 7.882696e-003)" fill="#E24C4B" cx="18" cy="18" rx="16" ry="16"/>
					</g>
				</g>
			</g>
		</g>
		<g>
			<g>
				<g>
					<g>
						<path fill="#FFFFFF" d="M18,31c-7.2,0-13-5.8-13-13c0-7.2,5.8-13,13-13c7.2,0,13,5.8,13,13C31,25.2,25.2,31,18,31z"/>
					</g>
				</g>
			</g>
		</g>
		<g>
			<g>
				<g>
					<g>
						<g>
							<path fill="#3F4448" d="M23.4,19.3c-0.2,0.4-0.6,0.5-1,0.4l-2.7-1.3l-1.2-2.1v4.4l1.8,1.5c0.1,0.1,0.2,0.2,0.2,0.3l1.4,4.5
								c0.1,0.4-0.1,0.8-0.5,0.9c-0.3,0.1-0.8-0.1-0.9-0.5l-1.4-4.3c-1.2-1.1-0.5-0.5-3.4-2.9c-0.1-0.1-0.2-0.2-0.2-0.3v-4.7
								l-0.9,0.9L13.9,20c-0.1,0.4-0.4,0.6-0.9,0.6c-0.4-0.1-0.7-0.5-0.6-0.9l0.9-4.3c0.1-0.2,2.7-2.8,2.9-2.9
								c0.2-0.2,0.5-0.3,0.8-0.3c0.7,0,1.2,0.4,1.4,1v0l0,0l2.3,4l2.3,1.1C23.5,18.5,23.6,18.9,23.4,19.3z"/>
						</g>
					</g>
				</g>
			</g>
			<g>
				<g>
					<g>
						<g>
							<path fill="#3F4448" d="M15.3,20.9l1.1,1l-2.5,5.7c-0.2,0.4-0.6,0.5-1,0.4c-0.4-0.2-0.5-0.6-0.4-1L15.3,20.9
								C15.3,20.9,15.3,20.9,15.3,20.9z"/>
						</g>
					</g>
				</g>
			</g>
			<g>
				<g>
					<g>
						<g>
							<circle fill="#3F4448" cx="18" cy="9.8" r="1.9"/>
						</g>
					</g>
				</g>
			</g>
		</g>
	</g>
	<g>
		<g>
			<g>
				<g>
					<polygon fill="#E24C4B" points="29.6,27.5 27.5,29.6 6.4,8.5 8.5,6.4 					"/>
				</g>
			</g>
		</g>
	</g>
</g>
</svg>
