<?xml version="1.0" encoding="utf-8"?>
<!-- Generator: Adobe Illustrator 18.0.0, SVG Export Plug-In . SVG Version: 6.00 Build 0)  -->
<!DOCTYPE svg PUBLIC "-//W3C//DTD SVG 1.1//EN" "http://www.w3.org/Graphics/SVG/1.1/DTD/svg11.dtd">
<svg version="1.1" id="Layer_1" xmlns="http://www.w3.org/2000/svg" xmlns:xlink="http://www.w3.org/1999/xlink" x="0px" y="0px"
	 viewBox="0 0 36 36" enable-background="new 0 0 36 36" xml:space="preserve">
<g>
	<g>
		<g>
			<g>
				<g>
					<g>
						<g>
							<path fill="#E24C4B" d="M18,2C9.2,2,2,9.2,2,18c0,8.8,7.2,16,16,16c8.8,0,16-7.2,16-16C34,9.2,26.8,2,18,2z"/>
						</g>
					</g>
				</g>
			</g>
		</g>
	</g>
	<g>
		<g>
			<g>
				<g>
					<path fill="#FFFFFF" d="M18,31c-7.2,0-13-5.8-13-13c0-7.2,5.8-13,13-13s13,5.8,13,13C31,25.2,25.2,31,18,31z"/>
				</g>
			</g>
		</g>
	</g>
	<g>
		<g>
			<g>
				<g>
					<g>
						<g>
							<g>
								<path fill="#3F4448" d="M15.1,20.6v-6.2c0-0.3-0.3-0.6-0.6-0.5l-5.2,0.6c-0.3,0-0.5,0.2-0.5,0.5l-0.6,3.6V22
									c0,0.3,0.3,0.6,0.6,0.6h0.5c0-1.4,1.2-2.6,2.6-2.6s2.6,1.2,2.6,2.6h4.7c0-0.8,0.4-1.5,0.9-2H15.1z M13.4,18.7H9.1l0.5-3.4
									l3.7-0.4V18.7z"/>
							</g>
						</g>
					</g>
				</g>
			</g>
			<g>
				<g>
					<g>
						<g>
							<path fill="#3F4448" d="M27.2,21.1v0.9c0,0.3-0.2,0.5-0.5,0.5h-2.2c0-0.8-0.4-1.5-0.9-2h3.2C26.9,20.6,27.2,20.8,27.2,21.1z"
								/>
						</g>
					</g>
				</g>
			</g>
		</g>
		<g>
			<g>
				<g>
					<g>
						<path fill="#3F4448" d="M26.9,12.7H16.4c-0.2,0-0.3,0.1-0.3,0.3v7h11v-7C27.2,12.8,27.1,12.7,26.9,12.7z"/>
					</g>
				</g>
			</g>
		</g>
		<g>
			<g>
				<g>
					<g>
						<g>
							<path fill="#3F4448" d="M11.9,20.9c-1,0-1.7,0.8-1.7,1.7c0,1,0.8,1.7,1.7,1.7c1,0,1.7-0.8,1.7-1.7
								C13.6,21.6,12.8,20.9,11.9,20.9z M11.9,23.5c-0.5,0-0.9-0.4-0.9-0.9c0-0.5,0.4-0.9,0.9-0.9c0.5,0,0.9,0.4,0.9,0.9
								C12.7,23.1,12.4,23.5,11.9,23.5z"/>
						</g>
					</g>
				</g>
			</g>
		</g>
		<g>
			<g>
				<g>
					<g>
						<g>
							<path fill="#3F4448" d="M21.8,20.9c-1,0-1.7,0.8-1.7,1.7c0,1,0.8,1.7,1.7,1.7c1,0,1.7-0.8,1.7-1.7
								C23.5,21.6,22.7,20.9,21.8,20.9z M21.8,23.5c-0.5,0-0.9-0.4-0.9-0.9c0-0.5,0.4-0.9,0.9-0.9c0.5,0,0.9,0.4,0.9,0.9
								C22.6,23.1,22.3,23.5,21.8,23.5z"/>
						</g>
					</g>
				</g>
			</g>
		</g>
	</g>
</g>
</svg>
