<?xml version="1.0" encoding="utf-8"?>
<!-- Generator: Adobe Illustrator 18.0.0, SVG Export Plug-In . SVG Version: 6.00 Build 0)  -->
<!DOCTYPE svg PUBLIC "-//W3C//DTD SVG 1.1//EN" "http://www.w3.org/Graphics/SVG/1.1/DTD/svg11.dtd">
<svg version="1.1" id="Layer_1" xmlns="http://www.w3.org/2000/svg" xmlns:xlink="http://www.w3.org/1999/xlink" x="0px" y="0px"
	 viewBox="0 0 36 36" enable-background="new 0 0 36 36" xml:space="preserve">
<g>
	<g>
		<g>
			<g>
				<g>
					<g>
						<g>
							<g>
								<g>
									<path fill="#E24C4B" d="M18,2C9.2,2,2,9.2,2,18c0,8.8,7.2,16,16,16c8.8,0,16-7.2,16-16C34,9.2,26.8,2,18,2z"/>
								</g>
							</g>
						</g>
					</g>
				</g>
			</g>
			<g>
				<g>
					<g>
						<g>
							<g>
								<path fill="#FFFFFF" d="M18,31c-7.2,0-13-5.8-13-13c0-7.2,5.8-13,13-13c7.2,0,13,5.8,13,13C31,25.2,25.2,31,18,31z"/>
							</g>
						</g>
					</g>
				</g>
			</g>
		</g>
	</g>
	<g>
		<g>
			<g>
				<g>
					<g>
						<path fill="#3F4448" d="M24.7,16.9c-0.3,0-0.6,0.1-0.9,0.1l-0.7-1.5c0.3,0.1,0.6,0.2,0.9,0.1l-0.6-2.7c-0.5,0.1-0.9,0.5-1,1
							l-0.5-1.2c-0.1-0.2-0.3-0.3-0.5-0.3l-2.4,0.3c-0.3,0-0.5,0.3-0.5,0.6c0,0.3,0.3,0.5,0.6,0.5l2-0.2l0.6,1.4
							c-2.7-1.5-5.6,0.7-5.6,0.8c-1.7,0.1-2.8-0.7-4.6-0.6c-2.3,0.2-1.8,0.7-0.2,0.7c1.4,0,2.6,0.6,3.4,1.6L13.8,18
							c-0.6-0.7-1.5-1.1-2.5-1.1c-1.8,0-3.3,1.5-3.3,3.3s1.5,3.3,3.3,3.3c1.8,0,3.3-1.5,3.3-3.3c0-0.5-0.1-0.9-0.3-1.3l0.9-0.6
							c0.3,0.6,0.4,1.2,0.4,1.9c0,0.3,0,0.6-0.1,0.8c0,0.2,0.1,0.5,0.4,0.5H20c0.2,0,0.4-0.2,0.4-0.5c-0.1-0.3-0.1-0.5-0.1-0.8
							c0-1.6,0.9-3,2.1-3.7l0.4,1c-0.9,0.6-1.5,1.6-1.5,2.8c0,1.8,1.5,3.3,3.3,3.3c1.8,0,3.3-1.5,3.3-3.3
							C28,18.4,26.5,16.9,24.7,16.9z M13.6,20.2c0,1.2-1,2.3-2.3,2.3c-1.2,0-2.3-1-2.3-2.3c0-1.2,1-2.3,2.3-2.3
							c0.6,0,1.2,0.2,1.6,0.6l-1,0.6c-0.2-0.1-0.4-0.2-0.6-0.2c-0.7,0-1.2,0.5-1.2,1.2c0,0.7,0.5,1.2,1.2,1.2s1.2-0.5,1.2-1.2
							c0,0,0-0.1,0-0.1l1-0.6C13.5,19.7,13.6,20,13.6,20.2z M24.7,22.5c-1.2,0-2.3-1-2.3-2.3c0-0.7,0.3-1.4,0.9-1.8l0.5,1.1
							c-0.2,0.2-0.3,0.4-0.3,0.7c0,0.7,0.5,1.2,1.2,1.2c0.7,0,1.2-0.5,1.2-1.2c0-0.6-0.5-1.1-1.1-1.2l-0.5-1c0.1,0,0.3,0,0.4,0
							c1.2,0,2.3,1,2.3,2.3C26.9,21.5,25.9,22.5,24.7,22.5z"/>
					</g>
				</g>
			</g>
		</g>
	</g>
</g>
</svg>
