<?xml version="1.0" encoding="utf-8"?>
<!-- Generator: Adobe Illustrator 18.0.0, SVG Export Plug-In . SVG Version: 6.00 Build 0)  -->
<!DOCTYPE svg PUBLIC "-//W3C//DTD SVG 1.1//EN" "http://www.w3.org/Graphics/SVG/1.1/DTD/svg11.dtd">
<svg version="1.1" id="Layer_1" xmlns="http://www.w3.org/2000/svg" xmlns:xlink="http://www.w3.org/1999/xlink" x="0px" y="0px"
	 viewBox="0 0 36 36" enable-background="new 0 0 36 36" xml:space="preserve">
<g>
	<g>
		<g>
			<g>
				<g>
					<g>
						<g>
							<g>
								<g>
									<g>
										<path fill="#E24C4B" d="M18,2C9.2,2,2,9.2,2,18c0,8.8,7.2,16,16,16c8.8,0,16-7.2,16-16C34,9.2,26.8,2,18,2z"/>
									</g>
								</g>
							</g>
						</g>
					</g>
				</g>
				<g>
					<g>
						<g>
							<g>
								<g>
									<path fill="#FFFFFF" d="M18,31c-7.2,0-13-5.8-13-13c0-7.2,5.8-13,13-13c7.2,0,13,5.8,13,13C31,25.2,25.2,31,18,31z"/>
								</g>
							</g>
						</g>
					</g>
				</g>
			</g>
		</g>
	</g>
	<g>
		<g>
			<g>
				<g>
					<g>
						<path fill="#3F4448" d="M24.7,16.8c-0.5,0-1,0.1-1.4,0.3l-1-1.3c0.1-0.1,0.2-0.2,0.3-0.3l1.6,0.6c0.2,0.1,0.4-0.1,0.5-0.3
							l0.3-1.9c0-0.2-0.1-0.4-0.4-0.4l-1.2,0v-0.5c0-0.3-0.2-0.5-0.5-0.5h-3.3c-0.3,0-0.5,0.2-0.5,0.5c0,0.3,0.2,0.5,0.5,0.5h2.7
							v0.7c-1.7,1.5-2.8,3-2.9,5.3h-1.7c-0.2-1.7-1-2.9-2-3.8h0.7c0.3,0,0.6-0.3,0.6-0.6c0-0.3-0.3-0.6-0.6-0.6c0-1.1-6.4-1.1-6.4,0
							c-0.3,0-0.6,0.3-0.6,0.6c0,0.3,0.3,0.6,0.6,0.6h1.1c2.2,0,3.9,1.7,4.1,3.8h-0.9c-0.3-1.6-1.6-2.8-3.3-2.8
							c-1.8,0-3.3,1.5-3.3,3.3c0,1.8,1.5,3.3,3.3,3.3c1.6,0,3-1.2,3.3-2.8h0.9c0,0,0,0,0,0c1.1,0,1.7,0,2,0h2.7
							c0.2,0,0.3-0.1,0.4-0.2c0.1-0.1,0.2-0.3,0.1-0.4c-0.1-1.3,0.2-2.4,1-3.5l0.8,1.1c-0.6,0.6-1,1.4-1,2.4c0,1.8,1.5,3.3,3.3,3.3
							c1.8,0,3.3-1.5,3.3-3.3C28,18.3,26.5,16.8,24.7,16.8z M11.3,22.4c-1.2,0-2.2-1-2.2-2.2c0-1.2,1-2.2,2.2-2.2
							c1,0,1.9,0.7,2.1,1.7h-1.2c-0.2-0.3-0.5-0.5-0.9-0.5c-0.6,0-1.1,0.5-1.1,1.1c0,0.6,0.5,1.1,1.1,1.1c0.4,0,0.7-0.2,0.9-0.5h1.2
							C13.2,21.7,12.3,22.4,11.3,22.4z M24.7,22.4c-1.2,0-2.2-1-2.2-2.2c0-0.6,0.2-1.1,0.6-1.5l0.7,1c-0.1,0.2-0.1,0.3-0.1,0.5
							c0,0.6,0.5,1.1,1.1,1.1c0.6,0,1.1-0.5,1.1-1.1c0-0.6-0.5-1.1-1.1-1.1l-0.7-1c0.2-0.1,0.5-0.1,0.7-0.1c1.2,0,2.2,1,2.2,2.2
							C26.9,21.4,25.9,22.4,24.7,22.4z"/>
					</g>
				</g>
			</g>
		</g>
	</g>
</g>
</svg>
