<?xml version="1.0" encoding="utf-8"?>
<!-- Generator: Adobe Illustrator 18.0.0, SVG Export Plug-In . SVG Version: 6.00 Build 0)  -->
<!DOCTYPE svg PUBLIC "-//W3C//DTD SVG 1.1//EN" "http://www.w3.org/Graphics/SVG/1.1/DTD/svg11.dtd">
<svg version="1.1" id="Layer_1" xmlns="http://www.w3.org/2000/svg" xmlns:xlink="http://www.w3.org/1999/xlink" x="0px" y="0px"
	 viewBox="0 0 36 36" enable-background="new 0 0 36 36" xml:space="preserve">
<g>
	<g>
		<g>
			<g>
				<g>
					<g>
						<g>
							<g>
								<g>
									<g>
										<g>
											<path fill="#E24C4B" d="M18,2C9.2,2,2,9.2,2,18c0,8.8,7.2,16,16,16c8.8,0,16-7.2,16-16C34,9.2,26.8,2,18,2z"/>
										</g>
									</g>
								</g>
							</g>
						</g>
					</g>
					<g>
						<g>
							<g>
								<g>
									<g>
										<path fill="#FFFFFF" d="M18,31c-7.2,0-13-5.8-13-13c0-7.2,5.8-13,13-13c7.2,0,13,5.8,13,13C31,25.2,25.2,31,18,31z"/>
									</g>
								</g>
							</g>
						</g>
					</g>
				</g>
			</g>
		</g>
	</g>
	<g>
		<g>
			<g>
				<g>
					<g>
						<path fill="#3F4448" d="M24.3,16.5c-0.6,0-1.1,0.2-1.6,0.4l-1.7-2.5v-1H22c0.3,0,0.5-0.2,0.5-0.5c0-0.3-0.2-0.5-0.5-0.5h-3
							c-0.3,0-0.5,0.2-0.5,0.5c0,0.3,0.2,0.5,0.5,0.5h0.9v0.7h-6l0.4-1.5h1.5c0.3,0,0.5-0.2,0.5-0.5c0-0.3-0.2-0.5-0.5-0.5H14
							c-0.2,0-0.4,0.1-0.5,0.4l-1.3,4.6c-2.3-0.3-4.1,1.5-4.1,3.6c0,2,1.6,3.6,3.6,3.6s3.6-1.6,3.6-3.6c0-1.5-0.9-2.7-2.2-3.3
							l0.4-1.3c4.6,5.2,4.4,5,4.4,5c0.1,0.1,0.2,0.2,0.4,0.2h2.4c0.2,1.8,1.7,3.1,3.6,3.1c2,0,3.6-1.6,3.6-3.6
							C27.9,18.2,26.3,16.5,24.3,16.5z M14.3,20.2c0,1.4-1.2,2.6-2.6,2.6c-1.4,0-2.6-1.2-2.6-2.6c0-1.5,1.2-2.7,2.8-2.6L11.2,20
							c-0.1,0.3,0.1,0.5,0.3,0.6c0.3,0.1,0.5-0.1,0.6-0.3l0.7-2.5C13.7,18.3,14.3,19.1,14.3,20.2z M23.3,19.7h-1.6
							c0.1-0.5,0.3-1,0.7-1.3L23.3,19.7z M20.7,19.7H19l1.5-4l1.3,1.8C21.2,18.1,20.8,18.8,20.7,19.7z M19.7,15.1l-1.6,4.1l-3.6-4.1
							H19.7z M24.3,22.8c-1.3,0-2.3-0.9-2.6-2.1h2.6c0.4,0,0.6-0.5,0.4-0.8l-1.5-2.1c0.3-0.1,0.7-0.2,1.1-0.2c1.4,0,2.6,1.2,2.6,2.6
							C26.9,21.6,25.7,22.8,24.3,22.8z"/>
					</g>
				</g>
			</g>
		</g>
	</g>
</g>
</svg>
