<?xml version="1.0" encoding="utf-8"?>
<!-- Generator: Adobe Illustrator 18.0.0, SVG Export Plug-In . SVG Version: 6.00 Build 0)  -->
<!DOCTYPE svg PUBLIC "-//W3C//DTD SVG 1.1//EN" "http://www.w3.org/Graphics/SVG/1.1/DTD/svg11.dtd">
<svg version="1.1" id="Layer_1" xmlns="http://www.w3.org/2000/svg" xmlns:xlink="http://www.w3.org/1999/xlink" x="0px" y="0px"
	 viewBox="0 0 36 36" enable-background="new 0 0 36 36" xml:space="preserve">
<g>
	<g>
		<g>
			<g>
				<g>
					<g>
						<g>
							<g>
								<g>
									<g>
										<g>
											<g>
												<path fill="#E24C4B" d="M18,2C9.2,2,2,9.2,2,18c0,8.8,7.2,16,16,16c8.8,0,16-7.2,16-16C34,9.2,26.8,2,18,2z"/>
											</g>
										</g>
									</g>
								</g>
							</g>
						</g>
						<g>
							<g>
								<g>
									<g>
										<g>
											<path fill="#FFFFFF" d="M18,31c-7.2,0-13-5.8-13-13c0-7.2,5.8-13,13-13c7.2,0,13,5.8,13,13C31,25.2,25.2,31,18,31z"/>
										</g>
									</g>
								</g>
							</g>
						</g>
					</g>
				</g>
			</g>
		</g>
	</g>
	<g>
		<g>
			<g>
				<g>
					<g>
						<path fill="#3F4448" d="M15.4,21.9L14,27c-0.1,0.5,0.2,1,0.7,1.1c0.5,0.1,1-0.2,1.1-0.7l1.1-4.2
							C16.3,22.8,15.8,22.6,15.4,21.9z"/>
					</g>
				</g>
			</g>
		</g>
		<g>
			<g>
				<g>
					<g>
						<circle fill="#3F4448" cx="18.3" cy="10" r="2.1"/>
					</g>
				</g>
			</g>
		</g>
		<g>
			<g>
				<g>
					<g>
						<path fill="#3F4448" d="M22.9,16.8l-1.5-0.4c-2.2-2.8-2.5-3.7-3.7-3.8c-1.1,0-1.3,0.5-4.4,3.3c-0.1,0.1-0.2,0.3-0.3,0.5
							l-0.5,3.1c-0.2,1.2,1.6,1.5,1.8,0.3l0.5-2.8l1-0.9v3.5c0,1.9,1.5,2.5,3.4,3.6l1.2,4.2c0.1,0.5,0.7,0.8,1.1,0.6
							c0.5-0.1,0.8-0.6,0.6-1.1l-1.3-4.4c-0.1-0.2-0.2-0.4-0.3-0.5L19.1,21l0.2-4.2l0.8,1c0.1,0.2,0.3,0.3,0.5,0.3
							c0.2,0,1.9,0.5,2.1,0.5c0.4,0,0.8-0.3,0.9-0.7C23.7,17.4,23.4,16.9,22.9,16.8z"/>
					</g>
				</g>
			</g>
		</g>
	</g>
</g>
</svg>
