<?xml version="1.0" encoding="utf-8"?>
<!-- Generator: Adobe Illustrator 18.0.0, SVG Export Plug-In . SVG Version: 6.00 Build 0)  -->
<!DOCTYPE svg PUBLIC "-//W3C//DTD SVG 1.1//EN" "http://www.w3.org/Graphics/SVG/1.1/DTD/svg11.dtd">
<svg version="1.1" id="Layer_1" xmlns="http://www.w3.org/2000/svg" xmlns:xlink="http://www.w3.org/1999/xlink" x="0px" y="0px"
	 viewBox="0 0 36 36" enable-background="new 0 0 36 36" xml:space="preserve">
<g>
	<g>
		<g>
			<g>
				<g>
					<g>
						<g>
							<g>
								<g>
									<g>
										<g>
											<g>
												<g>
													<path fill="#E24C4B" d="M2,18c0,8.8,7.2,16,16,16c8.8,0,16-7.2,16-16c0-8.8-7.2-16-16-16C9.2,2,2,9.2,2,18z"/>
												</g>
											</g>
										</g>
									</g>
								</g>
							</g>
							<g>
								<g>
									<g>
										<g>
											<g>
												<path fill="#FFFFFF" d="M5,18c0-7.2,5.8-13,13-13c7.2,0,13,5.8,13,13c0,7.2-5.8,13-13,13C10.8,31,5,25.2,5,18z"/>
											</g>
										</g>
									</g>
								</g>
							</g>
						</g>
					</g>
				</g>
			</g>
		</g>
	</g>
	<g>
		<g>
			<g>
				<g>
					<path fill="#3F4448" d="M7.3,13.1L13.5,9c0.5-0.3,1.1,0,1.1,0.6v2.6h8.1c0.8,0,1.5,0.7,1.5,1.5v15.8c-0.9,0.5-1.9,0.9-3,1.1
						V15.2h-6.6v2.6c0,0.6-0.6,0.9-1.1,0.6l-6.2-4.1C6.9,14,6.9,13.4,7.3,13.1z"/>
				</g>
			</g>
		</g>
	</g>
	<g>
		<g>
			<g>
				<g>
					<g>
						
							<rect x="16.5" y="4.1" transform="matrix(-0.7071 -0.7071 0.7071 -0.7071 17.9975 43.4552)" fill="#E24C4B" width="3" height="27.9"/>
					</g>
				</g>
			</g>
		</g>
	</g>
</g>
</svg>
