<?xml version="1.0" encoding="utf-8"?>
<!-- Generator: Adobe Illustrator 18.0.0, SVG Export Plug-In . SVG Version: 6.00 Build 0)  -->
<!DOCTYPE svg PUBLIC "-//W3C//DTD SVG 1.1//EN" "http://www.w3.org/Graphics/SVG/1.1/DTD/svg11.dtd">
<svg version="1.1" id="Layer_1" xmlns="http://www.w3.org/2000/svg" xmlns:xlink="http://www.w3.org/1999/xlink" x="0px" y="0px"
	 viewBox="0 0 36 36" enable-background="new 0 0 36 36" xml:space="preserve">
<g>
	<g>
		<g>
			<g>
				<g>
					<g>
						<path fill="#3F4448" d="M21.8,13.2v9.5c2.6,0,4.8-2.1,4.8-4.8C26.6,15.4,24.4,13.2,21.8,13.2z"/>
					</g>
				</g>
			</g>
		</g>
	</g>
	<g>
		<g>
			<g>
				<g>
					<g>
						<path fill="#3F4448" d="M10,26.4H4c-1.1,0-2-0.9-2-2V11.6c0-1.1,0.9-2,2-2h6V26.4z"/>
					</g>
				</g>
			</g>
		</g>
		<g>
			<g>
				<g>
					<g>
						<path fill="#DFE4E9" d="M21.7,33.9L9.1,26.4V9.6l12.6-7.5C22.3,1.8,23,2.2,23,2.9v30.2C23,33.8,22.3,34.2,21.7,33.9z"/>
					</g>
				</g>
			</g>
		</g>
	</g>
	<g>
		<g>
			<g>
				<g>
					<g>
						<g>
							<path fill="#5CA4DA" d="M25.8,23.3c-0.2-0.2-0.2-0.6,0-0.9c1.2-1.2,1.8-2.8,1.8-4.4c0-1.7-0.7-3.3-1.8-4.4
								c-0.2-0.2-0.2-0.6,0-0.9c0.2-0.2,0.6-0.2,0.9,0c1.4,1.4,2.2,3.3,2.2,5.3c0,2-0.8,3.9-2.2,5.3C26.5,23.6,26.1,23.6,25.8,23.3z
								"/>
						</g>
					</g>
				</g>
			</g>
		</g>
		<g>
			<g>
				<g>
					<g>
						<g>
							<path fill="#5CA4DA" d="M27.7,24.9c-0.2-0.2-0.2-0.6,0-0.9c3.3-3.3,3.3-8.7,0-12.1c-0.2-0.2-0.2-0.6,0-0.9
								c0.2-0.2,0.6-0.2,0.9,0c3.8,3.8,3.8,10,0,13.8C28.4,25.2,28,25.2,27.7,24.9z"/>
						</g>
					</g>
				</g>
			</g>
		</g>
		<g>
			<g>
				<g>
					<g>
						<g>
							<path fill="#5CA4DA" d="M29.6,26.6c-0.2-0.2-0.2-0.6,0-0.9c4.3-4.3,4.3-11.2,0-15.4c-0.2-0.2-0.2-0.6,0-0.9
								c0.2-0.2,0.6-0.2,0.9,0c4.7,4.7,4.7,12.5,0,17.2C30.2,26.8,29.8,26.8,29.6,26.6z"/>
						</g>
					</g>
				</g>
			</g>
		</g>
	</g>
</g>
</svg>
