<?xml version="1.0" encoding="utf-8"?>
<!-- Generator: Adobe Illustrator 18.0.0, SVG Export Plug-In . SVG Version: 6.00 Build 0)  -->
<!DOCTYPE svg PUBLIC "-//W3C//DTD SVG 1.1//EN" "http://www.w3.org/Graphics/SVG/1.1/DTD/svg11.dtd">
<svg version="1.1" id="Layer_1" xmlns="http://www.w3.org/2000/svg" xmlns:xlink="http://www.w3.org/1999/xlink" x="0px" y="0px"
	 viewBox="0 0 36 36" enable-background="new 0 0 36 36" xml:space="preserve">
<g>
	<g>
		<g>
			<g>
				<g>
					<g>
						<path fill="#E24C4B" d="M34,4.9v26.3c0,1.6-1.3,2.9-2.9,2.9H4.9C3.3,34,2,32.7,2,31.1V4.9C2,3.3,3.3,2,4.9,2h26.3
							C32.7,2,34,3.3,34,4.9z"/>
					</g>
				</g>
			</g>
		</g>
		<g>
			<g>
				<g>
					<g>
						<rect x="5" y="5" fill="#FFFFFF" width="26" height="26"/>
					</g>
				</g>
			</g>
		</g>
		<g>
			<g>
				<g>
					<g>
						<rect x="5" y="5" fill="#FFFFFF" width="26" height="26"/>
					</g>
				</g>
			</g>
		</g>
	</g>
	<g>
		<g>
			<g>
				<g>
					<g>
						<path fill="#3F4448" d="M28,12.4l-3.6-4.6c-0.2-0.2-0.5-0.2-0.7,0L20,12.4c-0.2,0.3,0,0.7,0.3,0.7h2.1v3.7l-9,6.2v-2.3
							c1.1-0.6,1.9-1.7,1.9-3s-0.8-2.5-1.9-3v-1.4h2.1c0.4,0,0.6-0.4,0.3-0.7l-3.6-4.6c-0.2-0.2-0.5-0.2-0.7,0L8,12.4
							c-0.2,0.3,0,0.7,0.3,0.7h2.1v1.4c-1.1,0.6-1.9,1.7-1.9,3c0,1.3,0.8,2.5,1.9,3v7.7h3v-1.7l12-8.3v-5.2h2.1
							C28,13.1,28.2,12.7,28,12.4z M9.6,17.6c0-1.3,1.1-2.4,2.4-2.4s2.4,1.1,2.4,2.4c0,1.3-1.1,2.4-2.4,2.4S9.6,18.9,9.6,17.6z"/>
					</g>
				</g>
			</g>
		</g>
		<g>
			<g>
				<g>
					<g>
						<rect x="17.5" y="14" fill="#3F4448" width="1.1" height="2.2"/>
					</g>
				</g>
			</g>
		</g>
		<g>
			<g>
				<g>
					<g>
						<rect x="17.5" y="10.6" fill="#3F4448" width="1.1" height="2.2"/>
					</g>
				</g>
			</g>
		</g>
		<g>
			<g>
				<g>
					<g>
						<rect x="17.5" y="7.3" fill="#3F4448" width="1.1" height="2.2"/>
					</g>
				</g>
			</g>
		</g>
		<g>
			<g>
				<g>
					<g>
						<path fill="#3F4448" d="M11.7,16.4h-0.4l-1,1.5v0.4h0.9v0.5h0.4v-0.5H12v-0.4h-0.3V16.4z M11.3,17.9h-0.5l0.5-0.8V17.9z"/>
					</g>
				</g>
			</g>
		</g>
		<g>
			<g>
				<g>
					<g>
						<path fill="#3F4448" d="M12.9,18.8c0.6,0,0.8-0.6,0.8-1.2c0-0.6-0.1-1.2-0.8-1.2c-0.6,0-0.8,0.6-0.8,1.2
							C12.2,18.2,12.3,18.8,12.9,18.8z M12.9,16.8c0.3,0,0.3,0.5,0.3,0.8c0,0.3,0,0.8-0.3,0.8c-0.3,0-0.3-0.5-0.3-0.8
							C12.6,17.3,12.6,16.8,12.9,16.8z"/>
					</g>
				</g>
			</g>
		</g>
	</g>
</g>
</svg>
