<?xml version="1.0" encoding="utf-8"?>
<!-- Generator: Adobe Illustrator 18.0.0, SVG Export Plug-In . SVG Version: 6.00 Build 0)  -->
<!DOCTYPE svg PUBLIC "-//W3C//DTD SVG 1.1//EN" "http://www.w3.org/Graphics/SVG/1.1/DTD/svg11.dtd">
<svg version="1.1" id="Layer_1" xmlns="http://www.w3.org/2000/svg" xmlns:xlink="http://www.w3.org/1999/xlink" x="0px" y="0px"
	 viewBox="0 0 36 36" enable-background="new 0 0 36 36" xml:space="preserve">
<g>
	<g>
		<g>
			<g>
				<g>
					<g>
						<path fill="#E24C4B" d="M2,4.9v26.3C2,32.7,3.3,34,4.9,34h26.3c1.6,0,2.9-1.3,2.9-2.9V4.9C34,3.3,32.7,2,31.1,2H4.9
							C3.3,2,2,3.3,2,4.9z"/>
					</g>
				</g>
			</g>
		</g>
		<g>
			<g>
				<g>
					<g>
						<rect x="5" y="5" fill="#FFFFFF" width="26" height="26"/>
					</g>
				</g>
			</g>
		</g>
		<g>
			<g>
				<g>
					<g>
						<rect x="5" y="5" fill="#FFFFFF" width="26" height="26"/>
					</g>
				</g>
			</g>
		</g>
	</g>
	<g>
		<g>
			<g>
				<g>
					<g>
						<g>
							<g>
								<g>
									<path fill="#3F4448" d="M20.4,13.1h2.1v15.2h3V13.1h2.1c0.4,0,0.6-0.4,0.3-0.7l-3.6-4.6c-0.2-0.2-0.5-0.2-0.7,0L20,12.4
										C19.8,12.7,20,13.1,20.4,13.1z"/>
								</g>
							</g>
						</g>
					</g>
				</g>
			</g>
		</g>
	</g>
	<g>
		<g>
			<g>
				<g>
					<g>
						<g>
							<g>
								<g>
									<g>
										<g>
											<path fill="#3F4448" d="M8.4,13.1h2.1v4.3l12.7,8.7l1.7-2.5l-11.4-7.9v-2.7h2.1c0.4,0,0.6-0.4,0.3-0.7l-3.6-4.6
												c-0.2-0.2-0.5-0.2-0.7,0L8,12.4C7.8,12.7,8,13.1,8.4,13.1z"/>
										</g>
									</g>
								</g>
							</g>
						</g>
					</g>
				</g>
			</g>
		</g>
	</g>
	<g>
		<g>
			<g>
				<g>
					<g>
						<rect x="17.5" y="14" fill="#3F4448" width="1.1" height="2.2"/>
					</g>
				</g>
			</g>
		</g>
	</g>
	<g>
		<g>
			<g>
				<g>
					<g>
						<rect x="17.5" y="10.6" fill="#3F4448" width="1.1" height="2.2"/>
					</g>
				</g>
			</g>
		</g>
	</g>
	<g>
		<g>
			<g>
				<g>
					<g>
						<rect x="17.5" y="7.3" fill="#3F4448" width="1.1" height="2.2"/>
					</g>
				</g>
			</g>
		</g>
	</g>
</g>
</svg>
