<?xml version="1.0" encoding="utf-8"?>
<!-- Generator: Adobe Illustrator 18.0.0, SVG Export Plug-In . SVG Version: 6.00 Build 0)  -->
<!DOCTYPE svg PUBLIC "-//W3C//DTD SVG 1.1//EN" "http://www.w3.org/Graphics/SVG/1.1/DTD/svg11.dtd">
<svg version="1.1" id="Layer_1" xmlns="http://www.w3.org/2000/svg" xmlns:xlink="http://www.w3.org/1999/xlink" x="0px" y="0px"
	 viewBox="0 0 36 36" enable-background="new 0 0 36 36" xml:space="preserve">
<g>
	<g>
		<g>
			<g>
				<g>
					<g>
						<g>
							<g>
								<path fill="#E24C4B" d="M18,2C9.2,2,2,9.2,2,18c0,8.8,7.2,16,16,16c8.8,0,16-7.2,16-16C34,9.2,26.8,2,18,2z"/>
							</g>
						</g>
					</g>
				</g>
			</g>
			<g>
				<g>
					<g>
						<g>
							<path fill="#FFFFFF" d="M18,31c-7.2,0-13-5.8-13-13c0-7.2,5.8-13,13-13c7.2,0,13,5.8,13,13C31,25.2,25.2,31,18,31z"/>
						</g>
					</g>
				</g>
			</g>
		</g>
		<g>
			<g>
				<g>
					<g>
						<g>
							<path fill="#3F4448" d="M26.4,17.6c-1,0-1.8,0.6-2,1.5h-1.6v-0.5c0-1-0.7-1.7-1.7-1.8c-3-0.1-10.2-0.6-13.3-2.8l-0.2-0.2v7
								l0.2-0.2c2.9-2.1,10.3-2.3,12.7-2.4c0.2,0,0.4,0,0.5,0c0.3,0,0.5,0.2,0.5,0.5v0.4h-7c-0.7,0-1.3,0.4-1.5,1
								c-0.2,0.5-0.1,1,0.2,1.4c0.3,0.4,0.8,0.7,1.3,0.7h6.6c0.9,0,1.6-0.7,1.6-1.6v-0.4h1.7c0.3,0.8,1.1,1.3,2,1.3
								c1.2,0,2.1-0.9,2.1-2C28.5,18.5,27.5,17.6,26.4,17.6z M14.1,20.6c0-0.2,0.2-0.4,0.4-0.4h7v0.4c0,0.2-0.2,0.4-0.4,0.4h-6.7
								C14.3,21,14.1,20.8,14.1,20.6z"/>
						</g>
					</g>
				</g>
			</g>
		</g>
	</g>
	<g>
		<g>
			<g>
				<g>
					<g>
						<polygon fill="#E24C4B" points="29.6,27.5 27.5,29.6 6.4,8.5 8.5,6.4 						"/>
					</g>
				</g>
			</g>
		</g>
	</g>
</g>
</svg>
