<?xml version="1.0" encoding="utf-8"?>
<!-- Generator: Adobe Illustrator 18.0.0, SVG Export Plug-In . SVG Version: 6.00 Build 0)  -->
<!DOCTYPE svg PUBLIC "-//W3C//DTD SVG 1.1//EN" "http://www.w3.org/Graphics/SVG/1.1/DTD/svg11.dtd">
<svg version="1.1" id="Layer_1" xmlns="http://www.w3.org/2000/svg" xmlns:xlink="http://www.w3.org/1999/xlink" x="0px" y="0px"
	 viewBox="0 0 36 36" enable-background="new 0 0 36 36" xml:space="preserve">
<g>
	<g>
		<g>
			<g>
				<g>
					<g>
						<path fill="#E24C4B" d="M9.8,25.9l-1.4-0.4l0.8-3l1.4,0.4c0.3,0.1,0.4,0.3,0.4,0.6l-0.6,2.1C10.4,25.9,10.1,26,9.8,25.9z"/>
					</g>
				</g>
			</g>
		</g>
	</g>
	<g>
		<g>
			<g>
				<g>
					<path fill="#3F4448" d="M9.1,33H7.8c-0.5,0-0.9-0.3-1-0.7c-1.1-3.2-1.6-7.2-1.8-11.6h4.5c-0.1,0.3-0.2,0.7-0.2,1
						c0.5,0.4,0.7,1,0.6,1.6c-0.1,0.4-0.2,0.7-0.5,0.9c0.2,0.3,0.3,0.6,0.3,1c0,0.4-0.1,0.7-0.4,1c0.2,0.3,0.4,0.6,0.4,0.9
						c0,0.4-0.1,0.7-0.2,1c0.3,0.2,0.4,0.5,0.5,0.9c0.1,0.3,0,0.7-0.1,1c0.3,0.2,0.5,0.5,0.6,0.8C10.7,31.7,10.2,33,9.1,33z"/>
				</g>
			</g>
		</g>
	</g>
	<g>
		<g>
			<g>
				<g>
					<path fill="#E9EFF4" d="M28.5,3C25,5.1,18.2,9.9,9.6,11.4v10.5c8.6,1.5,15.3,6.2,18.9,8.4V3z"/>
				</g>
			</g>
		</g>
	</g>
	<g>
		<g>
			<g>
				<g>
					<path fill="#E24C4B" d="M10.8,22.1c-1.2-3.4-1.2-7.5,0-10.9l-7.1,0.1c-0.5,0-0.9,0.3-1.1,0.8c-0.8,3-0.8,6.3,0,9.2
						C2.8,21.7,3.2,22,3.7,22L10.8,22.1z"/>
				</g>
			</g>
		</g>
	</g>
	<g>
		<g>
			<g>
				<g>
					<ellipse fill="#DFE4E9" cx="28.5" cy="16.6" rx="5.5" ry="13.6"/>
				</g>
			</g>
		</g>
	</g>
	<g>
		<g>
			<g>
				<g>
					<g>
						<path fill="#3F4448" d="M29.8,15.1v2.9c0,0.7-0.5,1.3-1.2,1.4l-5.3,0.7C23.1,19,23,17.8,23,16.6s0.1-2.4,0.2-3.5l5.3,0.7
							C29.2,13.8,29.8,14.4,29.8,15.1z"/>
					</g>
				</g>
			</g>
		</g>
	</g>
</g>
</svg>
