<?xml version="1.0" encoding="utf-8"?>
<!-- Generator: Adobe Illustrator 18.0.0, SVG Export Plug-In . SVG Version: 6.00 Build 0)  -->
<!DOCTYPE svg PUBLIC "-//W3C//DTD SVG 1.1//EN" "http://www.w3.org/Graphics/SVG/1.1/DTD/svg11.dtd">
<svg version="1.1" id="Layer_1" xmlns="http://www.w3.org/2000/svg" xmlns:xlink="http://www.w3.org/1999/xlink" x="0px" y="0px"
	 viewBox="0 0 36 36" enable-background="new 0 0 36 36" xml:space="preserve">
<g>
	<g>
		<g>
			<g>
				<g>
					<g>
						<g>
							<g>
								<g>
									<g>
										<path fill="#E24C4B" d="M18,2C9.2,2,2,9.2,2,18s7.2,16,16,16c8.8,0,16-7.2,16-16S26.8,2,18,2z"/>
									</g>
								</g>
							</g>
						</g>
					</g>
					<g>
						<g>
							<g>
								<g>
									<path fill="#FFFFFF" d="M18,31c-7.2,0-13-5.8-13-13S10.8,5,18,5c7.2,0,13,5.8,13,13S25.2,31,18,31z"/>
								</g>
							</g>
						</g>
					</g>
				</g>
			</g>
		</g>
	</g>
	<g>
		<g>
			<g>
				<g>
					<g>
						<path fill="#3F4448" d="M24.7,19.2C23.7,19.2,23,20,23,21v1.2h-3.2c-0.2-0.6-0.8-1-1.4-1c-0.7,0-1.2,0.4-1.4,1h-3.2V21
							c0-0.9-0.8-1.7-1.7-1.7c-0.9,0-1.7,0.8-1.7,1.7v3.4c0,0.9,0.8,1.7,1.7,1.7c0.9,0,1.7-0.8,1.7-1.7v-1.2h3.2
							c0.2,0.6,0.8,1,1.4,1c0.7,0,1.2-0.4,1.4-1H23v1.2c0,0.9,0.8,1.7,1.7,1.7c0.9,0,1.7-0.8,1.7-1.7V21
							C26.4,20,25.6,19.2,24.7,19.2z"/>
					</g>
				</g>
			</g>
		</g>
		<g>
			<g>
				<g>
					<g>
						<path fill="#3F4448" d="M13.7,15.5l-1.6,0.2c0.4,3.2,5.5,2.9,5.5-0.6c0-2.2-1.9-3.3-3.5-2.5l0.2-1.4h2.9V9.7h-4.1L12.3,14
							l1.3,0.2c0.9-1,2.4-0.8,2.4,0.9C16,17.1,13.9,17.1,13.7,15.5z"/>
					</g>
				</g>
			</g>
		</g>
		<g>
			<g>
				<g>
					<g>
						<polygon fill="#3F4448" points="19.5,17.8 20.4,17.8 20.4,14.1 21.7,14.1 21.7,13.3 18.1,13.3 18.1,14.1 19.5,14.1 						"/>
					</g>
				</g>
			</g>
		</g>
	</g>
</g>
</svg>
