<?xml version="1.0" encoding="utf-8"?>
<!-- Generator: Adobe Illustrator 18.0.0, SVG Export Plug-In . SVG Version: 6.00 Build 0)  -->
<!DOCTYPE svg PUBLIC "-//W3C//DTD SVG 1.1//EN" "http://www.w3.org/Graphics/SVG/1.1/DTD/svg11.dtd">
<svg version="1.1" id="Layer_1" xmlns="http://www.w3.org/2000/svg" xmlns:xlink="http://www.w3.org/1999/xlink" x="0px" y="0px"
	 viewBox="0 0 36 36" enable-background="new 0 0 36 36" xml:space="preserve">
<g>
	<g>
		<g>
			<g>
				<g>
					<g>
						<g>
							<g>
								<g>
									<g>
										<g>
											<path fill="#E24C4B" d="M18,2C9.2,2,2,9.2,2,18s7.2,16,16,16c8.8,0,16-7.2,16-16S26.8,2,18,2z"/>
										</g>
									</g>
								</g>
							</g>
						</g>
						<g>
							<g>
								<g>
									<g>
										<path fill="#FFFFFF" d="M18,31c-7.2,0-13-5.8-13-13S10.8,5,18,5c7.2,0,13,5.8,13,13S25.2,31,18,31z"/>
									</g>
								</g>
							</g>
						</g>
					</g>
				</g>
			</g>
		</g>
	</g>
	<g>
		<g>
			<g>
				<g>
					<g>
						<g>
							<path fill="#3F4448" d="M17.4,21.2v1.7h-6.6c0.3-2.8,3.2-4.3,4.3-5.8c0.7-1.1,0.5-2.4-0.9-2.4c-0.9,0-1.3,0.6-1.3,1.5
								L11.1,16c0.2-2,1.4-2.9,3.2-2.9c2.8,0,4.2,2.6,2.1,5.2c-0.7,0.8-2.3,2-2.7,2.8H17.4z"/>
						</g>
					</g>
				</g>
			</g>
			<g>
				<g>
					<g>
						<g>
							<path fill="#3F4448" d="M18.7,15v-1.7h6.4v1.4c-1.7,1.7-3.3,5.4-3.3,8.3H20c0.1-2.7,1.2-5.7,2.9-7.9H18.7z"/>
						</g>
					</g>
				</g>
			</g>
		</g>
	</g>
	<g>
		<g>
			<g>
				<g>
					<g>
						<path fill="#3F4448" d="M5.6,14C5.2,15.2,5,16.6,5,18s0.2,2.8,0.6,4L9,18.7c0.4-0.4,0.4-1,0-1.4L5.6,14z"/>
					</g>
				</g>
			</g>
		</g>
		<g>
			<g>
				<g>
					<g>
						<path fill="#3F4448" d="M31,18c0-1.4-0.2-2.8-0.6-4L27,17.3c-0.4,0.4-0.4,1,0,1.4l3.3,3.3C30.8,20.8,31,19.4,31,18z"/>
					</g>
				</g>
			</g>
		</g>
	</g>
	<g>
		<g>
			<g>
				<g>
					<g>
						<path fill="#3F4448" d="M15.5,29v-4.4H17l1,2.7l0.9-2.7h1.6V29h-1v-3.3l-1,3.3h-1l-1-3.3V29H15.5z"/>
					</g>
				</g>
			</g>
		</g>
	</g>
</g>
</svg>
