<?xml version="1.0" encoding="utf-8"?>
<!-- Generator: Adobe Illustrator 18.0.0, SVG Export Plug-In . SVG Version: 6.00 Build 0)  -->
<!DOCTYPE svg PUBLIC "-//W3C//DTD SVG 1.1//EN" "http://www.w3.org/Graphics/SVG/1.1/DTD/svg11.dtd">
<svg version="1.1" id="Layer_1" xmlns="http://www.w3.org/2000/svg" xmlns:xlink="http://www.w3.org/1999/xlink" x="0px" y="0px"
	 viewBox="0 0 36 36" enable-background="new 0 0 36 36" xml:space="preserve">
<g>
	<g>
		<g>
			<g>
				<g>
					<g>
						<g>
							<g>
								<g>
									<g>
										<g>
											<g>
												<path fill="#E24C4B" d="M18,2C9.2,2,2,9.2,2,18s7.2,16,16,16c8.8,0,16-7.2,16-16S26.8,2,18,2z"/>
											</g>
										</g>
									</g>
								</g>
							</g>
							<g>
								<g>
									<g>
										<g>
											<path fill="#FFFFFF" d="M5,18c0-7.2,5.8-13,13-13c7.2,0,13,5.8,13,13c0,7.2-5.8,13-13,13C10.8,31,5,25.2,5,18z"/>
										</g>
									</g>
								</g>
							</g>
						</g>
					</g>
				</g>
			</g>
		</g>
		<g>
			<g>
				<g>
					<g>
						<g>
							<path fill="#3F4448" d="M22,5.6C20.8,5.2,19.4,5,18,5c-1.4,0-2.8,0.2-4,0.6L17.3,9c0.4,0.4,1,0.4,1.4,0L22,5.6z"/>
						</g>
					</g>
				</g>
			</g>
			<g>
				<g>
					<g>
						<g>
							<path fill="#3F4448" d="M18,31c1.4,0,2.8-0.2,4-0.6L18.7,27c-0.4-0.4-1-0.4-1.4,0L14,30.4C15.2,30.8,16.6,31,18,31z"/>
						</g>
					</g>
				</g>
			</g>
		</g>
		<g>
			<g>
				<g>
					<g>
						<g>
							<path fill="#3F4448" d="M15.5,25.7v-4.4H17l1,2.7l0.9-2.7h1.6v4.4h-1v-3.3l-1,3.3h-1l-1-3.3v3.3H15.5z"/>
						</g>
					</g>
				</g>
			</g>
		</g>
	</g>
	<g>
		<g>
			<g>
				<g>
					<g>
						<path fill="#3F4448" d="M11.1,16l1.5-0.2c0.2,1.3,1.4,1.5,2,0.8c0.7-0.7,0.3-2.3-0.8-2.3c-0.2,0-0.4,0-0.7,0.1l0.2-1.3
							c0.9,0,1.3-0.4,1.3-1c0-1.2-1.7-1.3-1.9,0.2l-1.4-0.2c0.3-1.3,1-2.1,2.5-2.1c2.3,0,3.4,2.6,1.2,3.8c1.7,0.4,2,2.5,0.8,3.8
							C14.3,19,11.4,18.5,11.1,16z"/>
					</g>
				</g>
			</g>
		</g>
		<g>
			<g>
				<g>
					<g>
						<path fill="#3F4448" d="M17.1,16.6h1.6v1.1c0,0.5,0,0.8-0.1,1.1s-0.2,0.5-0.4,0.7c-0.2,0.2-0.5,0.4-0.8,0.5L17,19.4
							c0.3-0.1,0.5-0.2,0.7-0.4c0.1-0.2,0.2-0.4,0.2-0.7h-0.8V16.6z"/>
					</g>
				</g>
			</g>
		</g>
		<g>
			<g>
				<g>
					<g>
						<path fill="#3F4448" d="M19.4,16.1l1.6-0.2c0.1,1.1,1.3,1.5,2,0.7c0.4-0.5,0.5-1.8,0-2.3c-0.4-0.5-1.4-0.6-2.1,0.2l-1.3-0.2
							l0.8-4.2h4.1v1.5h-2.9L21.3,13c2.5-1.2,4.7,1.9,3,4.2C23,19,19.7,18.7,19.4,16.1z"/>
					</g>
				</g>
			</g>
		</g>
	</g>
</g>
</svg>
