<?xml version="1.0" encoding="utf-8"?>
<!-- Generator: Adobe Illustrator 18.0.0, SVG Export Plug-In . SVG Version: 6.00 Build 0)  -->
<!DOCTYPE svg PUBLIC "-//W3C//DTD SVG 1.1//EN" "http://www.w3.org/Graphics/SVG/1.1/DTD/svg11.dtd">
<svg version="1.1" id="Layer_1" xmlns="http://www.w3.org/2000/svg" xmlns:xlink="http://www.w3.org/1999/xlink" x="0px" y="0px"
	 viewBox="0 0 36 36" enable-background="new 0 0 36 36" xml:space="preserve">
<g>
	<g>
		<g>
			<g>
				<g>
					<g>
						<g>
							<g>
								<g>
									<g>
										<g>
											<g>
												<g>
													<path fill="#E24C4B" d="M18,2C9.2,2,2,9.2,2,18s7.2,16,16,16c8.8,0,16-7.2,16-16S26.8,2,18,2z"/>
												</g>
											</g>
										</g>
									</g>
								</g>
								<g>
									<g>
										<g>
											<g>
												<path fill="#FFFFFF" d="M5,18c0-7.2,5.8-13,13-13s13,5.8,13,13c0,7.2-5.8,13-13,13S5,25.2,5,18z"/>
											</g>
										</g>
									</g>
								</g>
							</g>
						</g>
					</g>
				</g>
			</g>
		</g>
	</g>
	<g>
		<g>
			<g>
				<g>
					<g>
						<path fill="#3F4448" d="M16.6,28.6v-2.5h0.9l0.6,1.6l0.5-1.6h0.9v2.5H19v-1.9l-0.6,1.9h-0.6l-0.6-1.9v1.9H16.6z"/>
					</g>
				</g>
			</g>
		</g>
		<g>
			<g>
				<g>
					<g>
						<g>
							<polygon fill="#3F4448" points="10.2,24.9 13,27.3 13,22.5 							"/>
						</g>
					</g>
				</g>
			</g>
		</g>
		<g>
			<g>
				<g>
					<g>
						<g>
							<polygon fill="#3F4448" points="25.9,24.9 23.1,22.5 23.1,27.3 							"/>
						</g>
					</g>
				</g>
			</g>
		</g>
		<g>
			<g>
				<g>
					<g>
						<path fill="#3F4448" d="M16.9,25.2h-1v-3.8c-0.4,0.3-0.8,0.6-1.3,0.8v-0.9c0.3-0.1,0.5-0.2,0.9-0.5c0.3-0.2,0.5-0.5,0.6-0.8
							h0.8V25.2z"/>
					</g>
				</g>
			</g>
		</g>
		<g>
			<g>
				<g>
					<g>
						<path fill="#3F4448" d="M19.8,20c0.5,0,0.9,0.2,1.2,0.5c0.3,0.4,0.5,1.1,0.5,2.1c0,1-0.2,1.7-0.5,2.1
							c-0.3,0.4-0.7,0.5-1.2,0.5c-0.5,0-0.9-0.2-1.2-0.6c-0.3-0.4-0.5-1.1-0.5-2.1c0-1,0.2-1.7,0.5-2.1C18.9,20.2,19.3,20,19.8,20z
							 M19.8,20.8c-0.1,0-0.2,0-0.3,0.1c-0.1,0.1-0.2,0.2-0.2,0.4c-0.1,0.3-0.1,0.7-0.1,1.3c0,0.6,0,1,0.1,1.3
							c0.1,0.2,0.1,0.4,0.2,0.5c0.1,0.1,0.2,0.1,0.3,0.1c0.1,0,0.2,0,0.3-0.1c0.1-0.1,0.2-0.2,0.2-0.4c0.1-0.3,0.1-0.7,0.1-1.3
							c0-0.6,0-1-0.1-1.3c-0.1-0.2-0.1-0.4-0.2-0.5C20.1,20.9,20,20.8,19.8,20.8z"/>
					</g>
				</g>
			</g>
		</g>
		<g>
			<g>
				<g>
					<g>
						<g>
							<path fill="#3F4448" d="M15.2,16.1V11c0-0.3-0.2-0.5-0.5-0.4L10.4,11c-0.2,0-0.4,0.2-0.4,0.4l-0.5,3v2.9
								c0,0.3,0.2,0.5,0.5,0.5h0.4c0-1.2,1-2.1,2.1-2.1s2.1,1,2.1,2.1h4.6c0-0.7,0.3-1.3,0.8-1.6H15.2z M13.8,14.5h-3.5l0.4-2.8
								l3.1-0.3V14.5z"/>
						</g>
					</g>
				</g>
			</g>
		</g>
		<g>
			<g>
				<g>
					<g>
						<path fill="#3F4448" d="M25.9,16.5v0.7c0,0.2-0.2,0.4-0.4,0.4h-1.8c0-0.7-0.3-1.3-0.8-1.6h2.6C25.7,16.1,25.9,16.3,25.9,16.5z
							"/>
					</g>
				</g>
			</g>
		</g>
		<g>
			<g>
				<g>
					<g>
						<path fill="#3F4448" d="M25.6,9.6h-9.3c-0.2,0-0.3,0.1-0.3,0.3v5.7h9.8V9.9C25.9,9.8,25.7,9.6,25.6,9.6z"/>
					</g>
				</g>
			</g>
		</g>
		<g>
			<g>
				<g>
					<g>
						<path fill="#3F4448" d="M12.5,16.3c-0.8,0-1.4,0.6-1.4,1.4c0,0.8,0.6,1.4,1.4,1.4c0.8,0,1.4-0.6,1.4-1.4
							C14,17,13.3,16.3,12.5,16.3z M12.5,18.4c-0.4,0-0.7-0.3-0.7-0.7c0-0.4,0.3-0.7,0.7-0.7c0.4,0,0.7,0.3,0.7,0.7
							C13.2,18.1,12.9,18.4,12.5,18.4z"/>
					</g>
				</g>
			</g>
		</g>
		<g>
			<g>
				<g>
					<g>
						<path fill="#3F4448" d="M21.5,16.3c-0.8,0-1.4,0.6-1.4,1.4c0,0.8,0.6,1.4,1.4,1.4c0.8,0,1.4-0.6,1.4-1.4
							C22.9,17,22.2,16.3,21.5,16.3z M21.5,18.4c-0.4,0-0.7-0.3-0.7-0.7c0-0.4,0.3-0.7,0.7-0.7s0.7,0.3,0.7,0.7
							C22.1,18.1,21.8,18.4,21.5,18.4z"/>
					</g>
				</g>
			</g>
		</g>
	</g>
</g>
</svg>
