<?xml version="1.0" encoding="utf-8"?>
<!-- Generator: Adobe Illustrator 18.0.0, SVG Export Plug-In . SVG Version: 6.00 Build 0)  -->
<!DOCTYPE svg PUBLIC "-//W3C//DTD SVG 1.1//EN" "http://www.w3.org/Graphics/SVG/1.1/DTD/svg11.dtd">
<svg version="1.1" id="Layer_1" xmlns="http://www.w3.org/2000/svg" xmlns:xlink="http://www.w3.org/1999/xlink" x="0px" y="0px"
	 viewBox="0 0 36 36" enable-background="new 0 0 36 36" xml:space="preserve">
<g>
	<g>
		<g>
			<g>
				<g>
					<g>
						<g>
							<g>
								<g>
									<g>
										<g>
											<g>
												<g>
													<g>
														<path fill="#E24C4B" d="M18,2C9.2,2,2,9.2,2,18s7.2,16,16,16c8.8,0,16-7.2,16-16S26.8,2,18,2z"/>
													</g>
												</g>
											</g>
										</g>
									</g>
									<g>
										<g>
											<g>
												<g>
													<path fill="#FFFFFF" d="M5,18c0-7.2,5.8-13,13-13s13,5.8,13,13c0,7.2-5.8,13-13,13S5,25.2,5,18z"/>
												</g>
											</g>
										</g>
									</g>
								</g>
							</g>
						</g>
					</g>
				</g>
			</g>
		</g>
	</g>
	<g>
		<g>
			<g>
				<g>
					<g>
						<g>
							<g>
								<path fill="#3F4448" d="M11.3,22.6c-1.2,0-2.2,1-2.2,2.2c0,1.2,1,2.2,2.2,2.2c1.2,0,2.2-1,2.2-2.2
									C13.4,23.6,12.5,22.6,11.3,22.6z M11.3,25.7c-0.5,0-0.9-0.4-0.9-0.9c0-0.5,0.4-0.9,0.9-0.9c0.5,0,0.9,0.4,0.9,0.9
									C12.2,25.3,11.8,25.7,11.3,25.7z"/>
							</g>
						</g>
					</g>
				</g>
			</g>
			<g>
				<g>
					<g>
						<g>
							<path fill="#3F4448" d="M16.2,20.4h-1.1l-3.9-3.7c-0.1-0.1-0.3-0.2-0.5-0.2H5.1c0,0.4-0.1,0.7-0.1,1.1h0.9v2.8H5.2
								c0.3,1.6,0.9,3.1,1.7,4.4h1.3c0-1.7,1.4-3,3-3c1.7,0,3,1.3,3,3h0.8c0.6,0,1.2-0.5,1.2-1.1l0.2-3
								C16.5,20.5,16.4,20.4,16.2,20.4z M12.4,20.4H7v-2.8h3.6l1.8,1.7V20.4z"/>
						</g>
					</g>
				</g>
			</g>
		</g>
		<g>
			<g>
				<g>
					<g>
						<g>
							<g>
								<path fill="#3F4448" d="M22.2,24.8c0,1.1,0.9,2,2,2s2-0.9,2-2c0-1.1-0.9-2-2-2S22.2,23.7,22.2,24.8z M23.4,24.8
									c0-0.4,0.3-0.7,0.7-0.7c0.4,0,0.8,0.3,0.8,0.7c0,0.4-0.3,0.7-0.8,0.7C23.7,25.6,23.4,25.2,23.4,24.8z"/>
							</g>
						</g>
					</g>
				</g>
			</g>
			<g>
				<g>
					<g>
						<g>
							<path fill="#3F4448" d="M31,17.6c0-0.4,0-0.7-0.1-1.1h-2.9c-0.2,0-0.4,0.1-0.5,0.2l-3.8,3.1l-4.5,1.1c-0.8,0.2-1.3,1-1.1,1.8
								l0.2,1.2c0.1,0.6,0.6,1,1.2,1h1.5c0-1.7,1.3-3,3-3c1.7,0,3,1.3,3,3h1.9c0.8-1.3,1.4-2.8,1.7-4.3h-6.2l3.6-2.9H31z"/>
						</g>
					</g>
				</g>
			</g>
		</g>
	</g>
	<g>
		<g>
			<g>
				<g>
					<g>
						<path fill="#3F4448" d="M11.8,10.5V9.4h4v0.9c-0.3,0.3-0.7,0.8-1,1.4c-0.3,0.6-0.6,1.3-0.8,1.9c-0.2,0.7-0.3,1.3-0.3,1.8h-1.1
							c0-0.8,0.2-1.7,0.5-2.6c0.3-0.9,0.8-1.7,1.3-2.4H11.8z"/>
					</g>
				</g>
			</g>
		</g>
		<g>
			<g>
				<g>
					<g>
						<path fill="#3F4448" d="M18.6,9.3c1.6,0,2,1.5,2,3.1c0,1.2-0.2,2-0.6,2.5c-0.3,0.4-0.8,0.6-1.4,0.6c-0.6,0-1.1-0.2-1.4-0.7
							c-0.4-0.5-0.5-1.3-0.5-2.5C16.6,10.8,17,9.3,18.6,9.3z M18.6,10.2c-0.4,0-0.5,0.3-0.6,0.6c-0.1,0.3-0.1,0.8-0.1,1.5
							c0,0.7,0,1.2,0.1,1.5s0.2,0.4,0.3,0.5c0.1,0.1,0.2,0.1,0.4,0.1c0.1,0,0.3,0,0.4-0.1c0.1-0.1,0.2-0.3,0.3-0.5
							c0.1-0.3,0.1-0.8,0.1-1.5c0-0.7,0-1.2-0.1-1.5C19.2,10.5,19,10.2,18.6,10.2z"/>
					</g>
				</g>
			</g>
		</g>
		<g>
			<g>
				<g>
					<g>
						<g>
							<path fill="#3F4448" d="M21.6,15.4V12h1l0.6,2.3l0.6-2.3h1v3.4h-0.6v-2.7l-0.7,2.7h-0.7l-0.7-2.7v2.7H21.6z"/>
						</g>
					</g>
				</g>
			</g>
		</g>
	</g>
</g>
</svg>
