<?xml version="1.0" encoding="utf-8"?>
<!-- Generator: Adobe Illustrator 18.0.0, SVG Export Plug-In . SVG Version: 6.00 Build 0)  -->
<!DOCTYPE svg PUBLIC "-//W3C//DTD SVG 1.1//EN" "http://www.w3.org/Graphics/SVG/1.1/DTD/svg11.dtd">
<svg version="1.1" id="Layer_1" xmlns="http://www.w3.org/2000/svg" xmlns:xlink="http://www.w3.org/1999/xlink" x="0px" y="0px"
	 viewBox="0 0 36 36" enable-background="new 0 0 36 36" xml:space="preserve">
<g>
	<g>
		<g>
			<g>
				<g>
					<g>
						<g>
							<g>
								<g>
									<g>
										<g>
											<path fill="#E24C4B" d="M18,2C9.2,2,2,9.2,2,18s7.2,16,16,16c8.8,0,16-7.2,16-16S26.8,2,18,2z"/>
										</g>
									</g>
								</g>
							</g>
						</g>
						<g>
							<g>
								<g>
									<g>
										<path fill="#FFFFFF" d="M5,18c0-7.2,5.8-13,13-13c7.2,0,13,5.8,13,13c0,7.2-5.8,13-13,13C10.8,31,5,25.2,5,18z"/>
									</g>
								</g>
							</g>
						</g>
					</g>
				</g>
			</g>
		</g>
	</g>
	<g>
		<g>
			<g>
				<g>
					<path fill="#3F4448" d="M24.3,13.4v14.7h-3V13.4c0-1.8-1.4-3.2-3.2-3.2c-1.8,0-3.2,1.4-3.2,3.2v6.7h1.8c0.3,0,0.5,0.4,0.4,0.6
						l-3.3,6c-0.2,0.3-0.6,0.3-0.7,0l-3.3-6c-0.2-0.3,0.1-0.6,0.4-0.6h1.8v-6.7c0-3.4,2.8-6.2,6.2-6.2C21.5,7.2,24.3,10,24.3,13.4z"
						/>
				</g>
			</g>
		</g>
	</g>
	<g>
		<g>
			<g>
				<g>
					
						<rect x="16.5" y="3.6" transform="matrix(0.7071 -0.7071 0.7071 0.7071 -7.456 18.0002)" fill="#E24C4B" width="3" height="28.9"/>
				</g>
			</g>
		</g>
	</g>
</g>
</svg>
