<?xml version="1.0" encoding="utf-8"?>
<!-- Generator: Adobe Illustrator 18.0.0, SVG Export Plug-In . SVG Version: 6.00 Build 0)  -->
<!DOCTYPE svg PUBLIC "-//W3C//DTD SVG 1.1//EN" "http://www.w3.org/Graphics/SVG/1.1/DTD/svg11.dtd">
<svg version="1.1" id="Layer_1" xmlns="http://www.w3.org/2000/svg" xmlns:xlink="http://www.w3.org/1999/xlink" x="0px" y="0px"
	 viewBox="0 0 36 36" enable-background="new 0 0 36 36" xml:space="preserve">
<g>
	<g>
		<g>
			<g>
				<g>
					<g>
						<g>
							<g>
								<g>
									<g>
										<g>
											<g>
												<path fill="#E24C4B" d="M18,2C9.2,2,2,9.2,2,18s7.2,16,16,16c8.8,0,16-7.2,16-16S26.8,2,18,2z"/>
											</g>
										</g>
									</g>
								</g>
							</g>
							<g>
								<g>
									<g>
										<g>
											<path fill="#FFFFFF" d="M5,18c0-7.2,5.8-13,13-13s13,5.8,13,13c0,7.2-5.8,13-13,13S5,25.2,5,18z"/>
										</g>
									</g>
								</g>
							</g>
						</g>
					</g>
				</g>
			</g>
		</g>
	</g>
	<g>
		<g>
			<g>
				<g>
					<g>
						<path fill="#3F4448" d="M10.1,21.6l2.6-0.3c0.2,1.3,1,1.9,1.9,1.9c1,0,2-0.8,2-2.7c0-1.7-0.9-2.5-2-2.5c-0.8,0-1.4,0.3-2,1
							l-2.1-0.3l1.4-7.2h7V14h-5l-0.4,2.3c0.6-0.3,1.2-0.4,1.8-0.4c2.2,0,4.2,1.7,4.2,4.6c0,2.5-1.8,4.9-4.7,4.9
							C12,25.4,10.4,23.8,10.1,21.6z"/>
					</g>
				</g>
			</g>
		</g>
		<g>
			<g>
				<g>
					<g>
						<g>
							<path fill="#3F4448" d="M22.4,18.3v-5.7h-2v-1.2h5.5v1.2h-2v5.7H22.4z"/>
						</g>
					</g>
				</g>
			</g>
		</g>
	</g>
</g>
</svg>
