<?xml version="1.0" encoding="utf-8"?>
<!-- Generator: Adobe Illustrator 18.0.0, SVG Export Plug-In . SVG Version: 6.00 Build 0)  -->
<!DOCTYPE svg PUBLIC "-//W3C//DTD SVG 1.1//EN" "http://www.w3.org/Graphics/SVG/1.1/DTD/svg11.dtd">
<svg version="1.1" id="Layer_1" xmlns="http://www.w3.org/2000/svg" xmlns:xlink="http://www.w3.org/1999/xlink" x="0px" y="0px"
	 viewBox="0 0 36 36" enable-background="new 0 0 36 36" xml:space="preserve">
<g>
	<g>
		<g>
			<g>
				<g>
					<g>
						<g>
							<path fill="#3F4448" d="M21.5,31.6c-0.1,0-0.2,0-0.3-0.1l-10.1-3.8c-0.4-0.1-0.6-0.5-0.6-0.8l-0.4-6c0-0.3,0.1-0.6,0.4-0.8
								c0.3-0.2,0.6-0.2,0.9-0.1l12.3,4.6c0.2,0.1,0.4,0.3,0.5,0.5c0.1,0.2,0.1,0.5,0,0.7L22.4,31C22.2,31.4,21.9,31.6,21.5,31.6z
								 M12.5,26.3l8,3l1.4-3.2l-9.3-3.5L12.5,26.3z"/>
						</g>
					</g>
				</g>
			</g>
		</g>
		<g>
			<g>
				<g>
					<g>
						<path fill="#3F4448" d="M31,13.5v8.2c2.3,0,4.1-1.8,4.1-4.1S33.2,13.5,31,13.5z"/>
					</g>
				</g>
			</g>
		</g>
		<g>
			<g>
				<g>
					<g>
						<g>
							<path fill="#6DAFE0" d="M10.6,11.9v11.4H2.5c-0.9,0-1.6-0.7-1.6-1.5v-8.3c0-0.9,0.7-1.6,1.6-1.6H10.6z"/>
						</g>
					</g>
				</g>
			</g>
		</g>
		<g>
			<g>
				<g>
					<g>
						<polygon fill="#E9EFF4" points="30.7,30.3 10.1,23.3 10.1,11.9 30.7,5 						"/>
					</g>
				</g>
			</g>
		</g>
		<g>
			<g>
				<g>
					<g>
						<path fill="#DFE4E9" d="M30.5,30.8L30.5,30.8c-0.6,0-1.1-0.5-1.1-1.1V5.5c0-0.6,0.5-1.1,1.1-1.1l0,0c0.6,0,1.1,0.5,1.1,1.1
							v24.3C31.6,30.3,31.1,30.8,30.5,30.8z"/>
					</g>
				</g>
			</g>
		</g>
	</g>
	<g>
		<g>
			<g>
				<g>
					<g>
						<g>
							<path fill="#4E9AD4" d="M8.2,14.9c0,0.4-0.4,0.8-0.8,0.8H4.1c-0.4,0-0.8-0.4-0.8-0.8s0.4-0.8,0.8-0.8h3.3
								C7.8,14.1,8.2,14.5,8.2,14.9z"/>
						</g>
					</g>
				</g>
			</g>
		</g>
		<g>
			<g>
				<g>
					<g>
						<g>
							<path fill="#4E9AD4" d="M8.2,17.6c0,0.5-0.4,0.8-0.8,0.8H4.1c-0.4,0-0.8-0.4-0.8-0.8s0.4-0.8,0.8-0.8h3.3
								C7.8,16.8,8.2,17.2,8.2,17.6z"/>
						</g>
					</g>
				</g>
			</g>
		</g>
		<g>
			<g>
				<g>
					<g>
						<g>
							<path fill="#4E9AD4" d="M8.2,20.3c0,0.5-0.4,0.8-0.8,0.8H4.1c-0.4,0-0.8-0.4-0.8-0.8c0-0.5,0.4-0.8,0.8-0.8h3.3
								C7.8,19.5,8.2,19.9,8.2,20.3z"/>
						</g>
					</g>
				</g>
			</g>
		</g>
	</g>
</g>
</svg>
