<?xml version="1.0" encoding="utf-8"?>
<!-- Generator: Adobe Illustrator 18.0.0, SVG Export Plug-In . SVG Version: 6.00 Build 0)  -->
<!DOCTYPE svg PUBLIC "-//W3C//DTD SVG 1.1//EN" "http://www.w3.org/Graphics/SVG/1.1/DTD/svg11.dtd">
<svg version="1.1" id="Layer_1" xmlns="http://www.w3.org/2000/svg" xmlns:xlink="http://www.w3.org/1999/xlink" x="0px" y="0px"
	 viewBox="0 0 36 36" enable-background="new 0 0 36 36" xml:space="preserve">
<g>
	<g>
		<g>
			<g>
				<g>
					<circle fill="#E24C4B" cx="18" cy="18" r="16"/>
				</g>
			</g>
		</g>
	</g>
	<g>
		<g>
			<g>
				<g>
					<path fill="#FFFFFF" d="M5,18c0,7.2,5.8,13,13,13c7.2,0,13-5.8,13-13c0-7.2-5.8-13-13-13C10.8,5,5,10.8,5,18z"/>
				</g>
			</g>
		</g>
	</g>
	<g>
		<g>
			<g>
				<g>
					<path fill="#3F4448" d="M9.5,26.3h5.6v-1.8h5.6v-1.8h5.6v-1.8h4.3c-0.2,0.9-0.5,1.8-0.9,2.6h-2.4v1.8h-5.6v1.8h-5.6v1.8h-5.3
						c-0.5-0.3-0.9-0.7-1.4-1V26.3z"/>
				</g>
			</g>
		</g>
	</g>
	<g>
		<g>
			<g>
				<g>
					<path fill="#3F4448" d="M10.6,20.2c0.5,0,0.7-0.2,0.7-0.5l0.7-3.3l0.7-0.8c0,0,0,4.1,0,4.1c0,0.3,0.1,0.5,0.4,0.7l3.5,1.7
						l1.4,3.3c0.1,0.3,0.4,0.5,0.8,0.3c0.3-0.1,0.5-0.5,0.3-0.8l-1.5-3.5c-0.1-0.1-0.2-0.3-0.3-0.3l-2.1-1.1v-3.5l1,1.8l2.3,1.1
						c0.3,0.1,0.7,0,0.8-0.3c0.1-0.3,0-0.7-0.3-0.8l-1.9-0.9l-1.9-3.4l0,0v0c-0.2-0.5-0.6-0.9-1.2-0.9c-0.3,0-0.5,0.1-0.7,0.2
						c-0.1,0.1-2.3,2.4-2.5,2.5l-0.8,3.7C10.1,19.8,10.3,20.1,10.6,20.2z"/>
				</g>
			</g>
		</g>
	</g>
	<g>
		<g>
			<g>
				<g>
					<path fill="#3F4448" d="M16.4,11c0-0.9-0.7-1.6-1.6-1.6c-0.9,0-1.6,0.7-1.6,1.6c0,0.9,0.7,1.6,1.6,1.6
						C15.7,12.6,16.4,11.9,16.4,11z"/>
				</g>
			</g>
		</g>
	</g>
	<g>
		<g>
			<g>
				<g>
					<path fill="#3F4448" d="M11.3,26.8c0.4,0.1,0.7-0.1,0.8-0.4l1.7-4.6l-1.1-0.5c0,0-0.1,0-0.1,0L10.9,26
						C10.8,26.4,11,26.7,11.3,26.8z"/>
				</g>
			</g>
		</g>
	</g>
</g>
</svg>
