<?xml version="1.0" encoding="utf-8"?>
<!-- Generator: Adobe Illustrator 18.0.0, SVG Export Plug-In . SVG Version: 6.00 Build 0)  -->
<!DOCTYPE svg PUBLIC "-//W3C//DTD SVG 1.1//EN" "http://www.w3.org/Graphics/SVG/1.1/DTD/svg11.dtd">
<svg version="1.1" id="Layer_1" xmlns="http://www.w3.org/2000/svg" xmlns:xlink="http://www.w3.org/1999/xlink" x="0px" y="0px"
	 viewBox="0 0 36 36" enable-background="new 0 0 36 36" xml:space="preserve">
<g>
	<g>
		<g>
			<g>
				<g>
					<g>
						<g>
							<g>
								<path fill="#3F4448" d="M22.8,8.7c-0.4,0-1.3,0.1-2.1,0.3v1.4c0.8,0.2,1.7,0.3,2.1,0.3c0.7,0,1-0.4,1-1
									C23.8,9.2,23.6,8.7,22.8,8.7z"/>
							</g>
						</g>
					</g>
				</g>
				<g>
					<g>
						<g>
							<g>
								<path fill="#3F4448" d="M15.9,8.7c0.4,0,1.3,0.1,2.1,0.3v1.4c-0.8,0.2-1.7,0.3-2.1,0.3c-0.7,0-1-0.4-1-1
									C14.9,9.2,15.2,8.7,15.9,8.7z"/>
							</g>
						</g>
					</g>
				</g>
			</g>
			<g>
				<g>
					<g>
						<g>
							<rect x="18.7" y="9.9" fill="#3F4448" width="1.4" height="4.4"/>
						</g>
					</g>
				</g>
			</g>
			<g>
				<g>
					<g>
						<g>
							<path fill="#3F4448" d="M21.2,14.1h-3.6c-0.1,0-0.2-0.1-0.2-0.2v-0.4c0-0.1,0.1-0.2,0.2-0.2h3.6c0.1,0,0.2,0.1,0.2,0.2v0.4
								C21.4,14,21.3,14.1,21.2,14.1z"/>
						</g>
					</g>
				</g>
			</g>
			<g>
				<g>
					<g>
						<g>
							<path fill="#3F4448" d="M25.3,17.6v3.9c-1.3,0.2-2.6,0.6-3.9,1.1c-0.5,0.2-1.2,0.3-1.8,0.3c-0.8,0-1.5-0.2-2.2-0.5
								c-1.1-0.6-2.2-0.9-3.4-1.1c-0.5-0.1-1,0.4-1.1,0.9l-0.1,1.5H9.3v-2.3c0-2,1.6-3.7,3.7-3.7c1,0,2-0.2,3-0.5
								c0.7-0.2,1.1-0.9,1.1-1.6v-1h4.5v0.7c0,0.8,0.5,1.4,1.2,1.7C23.6,17.3,24.4,17.5,25.3,17.6z"/>
						</g>
					</g>
				</g>
			</g>
			<g>
				<g>
					<g>
						<g>
							<path fill="#3F4448" d="M12.8,25.3H9.4c-0.3,0-0.5-0.2-0.5-0.5v-1c0-0.3,0.2-0.5,0.5-0.5h3.3c0.3,0,0.5,0.2,0.5,0.5v1
								C13.3,25.1,13,25.3,12.8,25.3z"/>
						</g>
					</g>
				</g>
			</g>
			<g>
				<g>
					<g>
						<g>
							<path fill="#3F4448" d="M25,21.6v-4.1c0-0.3,0.2-0.5,0.5-0.5h1.1c0.3,0,0.5,0.2,0.5,0.5v4.1c0,0.3-0.2,0.5-0.5,0.5h-1.1
								C25.2,22.1,25,21.9,25,21.6z"/>
						</g>
					</g>
				</g>
			</g>
			<g>
				<g>
					<g>
						<g>
							<path fill="#3F4448" d="M21.8,14.8h-4.9c-0.1,0-0.2-0.1-0.2-0.2v-0.4c0-0.1,0.1-0.2,0.2-0.2h4.9c0.1,0,0.2,0.1,0.2,0.2v0.4
								C22,14.7,21.9,14.8,21.8,14.8z"/>
						</g>
					</g>
				</g>
			</g>
			<g>
				<g>
					<g>
						<g>
							<path fill="#3F4448" d="M20.6,10.7h-2.4c-0.2,0-0.3-0.2-0.3-0.3V9c0-0.2,0.2-0.3,0.3-0.3h2.4c0.2,0,0.3,0.2,0.3,0.3v1.3
								C20.9,10.5,20.8,10.7,20.6,10.7z"/>
						</g>
					</g>
				</g>
			</g>
		</g>
	</g>
	<g>
		<g>
			<g>
				<g>
					<path fill="#D1403F" d="M18,34C9.2,34,2,26.8,2,18S9.2,2,18,2c8.8,0,16,7.2,16,16S26.8,34,18,34z M4.8,18
						c0,7.3,5.9,13.2,13.2,13.2c4.2,0,6.8-1.9,8.4-2.9L7.7,9.6C6.8,10.9,4.8,13.6,4.8,18z M18,4.8c-4.2,0-6.8,1.9-8.4,2.9l18.7,18.7
						c0.9-1.4,2.9-4,2.9-8.4C31.2,10.7,25.3,4.8,18,4.8z"/>
				</g>
			</g>
		</g>
	</g>
</g>
</svg>
