<?xml version="1.0" encoding="utf-8"?>
<!-- Generator: Adobe Illustrator 18.0.0, SVG Export Plug-In . SVG Version: 6.00 Build 0)  -->
<!DOCTYPE svg PUBLIC "-//W3C//DTD SVG 1.1//EN" "http://www.w3.org/Graphics/SVG/1.1/DTD/svg11.dtd">
<svg version="1.1" id="Layer_1" xmlns="http://www.w3.org/2000/svg" xmlns:xlink="http://www.w3.org/1999/xlink" x="0px" y="0px"
	 viewBox="0 0 36 36" enable-background="new 0 0 36 36" xml:space="preserve">
<g>
	<g>
		<g>
			<g>
				<g>
					<circle fill="#E24C4B" cx="18" cy="18" r="16"/>
				</g>
			</g>
		</g>
	</g>
	<g>
		<g>
			<g>
				<g>
					<path fill="#FFFFFF" d="M31,18c0,7.2-5.8,13-13,13c-7.2,0-13-5.8-13-13c0-7.2,5.8-13,13-13C25.2,5,31,10.8,31,18z"/>
				</g>
			</g>
		</g>
	</g>
	<g>
		<g>
			<g>
				<g>
					<path fill="#3F4448" d="M9.9,20.5l2.1-0.3c0.1,0.5,0.2,0.9,0.5,1.2c0.3,0.3,0.6,0.4,1.1,0.4c0.4,0,0.8-0.2,1.1-0.5
						c0.3-0.3,0.5-0.8,0.5-1.4c0-0.5-0.1-1-0.4-1.3c-0.3-0.3-0.6-0.5-1.1-0.5c-0.3,0-0.6,0.1-1,0.2l0.2-1.8c0.6,0,1-0.1,1.3-0.4
						c0.3-0.3,0.5-0.6,0.5-1.1c0-0.8-0.5-1.2-1.2-1.2c-0.7,0-1.3,0.5-1.4,1.5l-2-0.3c0.4-1.8,1.4-2.9,3.5-2.9c2.1,0,3.3,1.5,3.3,2.9
						c0,1-0.5,1.8-1.6,2.4c0.6,0.1,1.2,0.4,1.5,0.9c0.4,0.5,0.6,1.1,0.6,1.7c0,1-0.4,1.8-1.1,2.5c-0.7,0.7-1.6,1-2.7,1
						c-1,0-1.9-0.3-2.5-0.9C10.4,22.3,10,21.5,9.9,20.5z"/>
				</g>
			</g>
		</g>
	</g>
	<g>
		<g>
			<g>
				<g>
					<path fill="#3F4448" d="M21.2,17.3v-5h1.5l0.9,3.4l0.9-3.4h1.5v5h-0.9v-4l-1,4h-1l-1-4v4H21.2z"/>
				</g>
			</g>
		</g>
	</g>
	<g>
		<g>
			<g>
				<g>
					<path fill="#3F4448" d="M22,22.4l1-0.1c0,0.2,0.1,0.4,0.2,0.5c0.1,0.1,0.3,0.2,0.5,0.2c0.2,0,0.4-0.1,0.5-0.2
						c0.1-0.2,0.2-0.4,0.2-0.7c0-0.3-0.1-0.5-0.2-0.7c-0.1-0.2-0.3-0.2-0.5-0.2c-0.3,0-0.5,0.1-0.7,0.4l-0.8-0.1l0.5-2.6h2.5v0.9
						h-1.8l-0.2,0.9c0.2-0.1,0.4-0.2,0.7-0.2c0.4,0,0.8,0.2,1.1,0.5c0.3,0.3,0.4,0.7,0.4,1.2c0,0.4-0.1,0.8-0.4,1.1
						c-0.3,0.4-0.8,0.7-1.4,0.7c-0.5,0-0.8-0.1-1.1-0.4C22.2,23.2,22,22.8,22,22.4z"/>
				</g>
			</g>
		</g>
	</g>
	<g>
		<g>
			<g>
				<g>
					<path fill="#3F4448" d="M18,9.4l2.5-4.2C19.7,5.1,18.9,5,18,5c-0.9,0-1.7,0.1-2.5,0.2L18,9.4z"/>
				</g>
			</g>
		</g>
	</g>
	<g>
		<g>
			<g>
				<g>
					<path fill="#3F4448" d="M18,31c0.9,0,1.7-0.1,2.5-0.2L18,26.6l-2.5,4.2C16.3,30.9,17.2,31,18,31z"/>
				</g>
			</g>
		</g>
	</g>
	<g>
		<g>
			<g>
				<g>
					<path fill="#3F4448" d="M20,22.2v0.3c0,0.9-0.1,1.7-1.3,2.1L18.4,24c0.5-0.2,0.8-0.4,0.8-0.9c-0.5,0.1-1.1-0.3-1.1-0.9
						c0-0.5,0.4-0.9,0.9-0.9C19.6,21.3,20,21.8,20,22.2z"/>
				</g>
			</g>
		</g>
	</g>
</g>
</svg>
