<?xml version="1.0" encoding="utf-8"?>
<!-- Generator: Adobe Illustrator 18.0.0, SVG Export Plug-In . SVG Version: 6.00 Build 0)  -->
<!DOCTYPE svg PUBLIC "-//W3C//DTD SVG 1.1//EN" "http://www.w3.org/Graphics/SVG/1.1/DTD/svg11.dtd">
<svg version="1.1" id="Layer_1" xmlns="http://www.w3.org/2000/svg" xmlns:xlink="http://www.w3.org/1999/xlink" x="0px" y="0px"
	 viewBox="0 0 36 36" enable-background="new 0 0 36 36" xml:space="preserve">
<g>
	<g>
		<g>
			<g>
				<g>
					<g>
						<circle fill="#E24C4B" cx="18" cy="18" r="16"/>
					</g>
				</g>
			</g>
		</g>
		<g>
			<g>
				<g>
					<g>
						<g>
							<path fill="#FFFFFF" d="M31,18c0,7.2-5.8,13-13,13c-7.2,0-13-5.8-13-13c0-7.2,5.8-13,13-13C25.2,5,31,10.8,31,18z"/>
						</g>
					</g>
				</g>
			</g>
		</g>
		<g>
			<g>
				<g>
					<g>
						<g>
							<path fill="#3F4448" d="M30,23c0.2-0.4,0.3-0.9,0.5-1.3H5.6C5.7,22.2,5.9,22.6,6,23H30z"/>
						</g>
					</g>
				</g>
			</g>
		</g>
	</g>
	<g>
		<g>
			<g>
				<g>
					<g>
						<g>
							<g>
								<path fill="#3F4448" d="M15.7,18.4V13c0-0.3-0.3-0.5-0.5-0.5L10.5,13c-0.2,0-0.4,0.2-0.4,0.4l-0.5,3.2v3.1
									c0,0.3,0.2,0.5,0.5,0.5h0.4c0-1.3,1-2.3,2.3-2.3s2.3,1,2.3,2.3h4.1c0-0.7,0.3-1.4,0.8-1.8H15.7z M14.2,16.7h-3.8l0.5-3
									l3.3-0.4V16.7z"/>
							</g>
						</g>
					</g>
				</g>
			</g>
			<g>
				<g>
					<g>
						<g>
							<path fill="#3F4448" d="M26.4,18.9v0.8c0,0.3-0.2,0.5-0.5,0.5h-2c0-0.7-0.3-1.4-0.8-1.8h2.8C26.2,18.4,26.4,18.6,26.4,18.9z"
								/>
						</g>
					</g>
				</g>
			</g>
		</g>
		<g>
			<g>
				<g>
					<g>
						<path fill="#3F4448" d="M26.1,11.4h-9.2c-0.2,0-0.3,0.1-0.3,0.3v6.1h9.8v-6.1C26.4,11.6,26.3,11.4,26.1,11.4z"/>
					</g>
				</g>
			</g>
		</g>
		<g>
			<g>
				<g>
					<g>
						<g>
							<path fill="#3F4448" d="M12.9,18.7c-0.8,0-1.5,0.7-1.5,1.5c0,0.8,0.7,1.5,1.5,1.5c0.8,0,1.5-0.7,1.5-1.5
								C14.4,19.3,13.7,18.7,12.9,18.7z M12.9,20.9c-0.4,0-0.8-0.3-0.8-0.8c0-0.4,0.3-0.8,0.8-0.8c0.4,0,0.8,0.3,0.8,0.8
								C13.6,20.6,13.3,20.9,12.9,20.9z"/>
						</g>
					</g>
				</g>
			</g>
		</g>
		<g>
			<g>
				<g>
					<g>
						<g>
							<path fill="#3F4448" d="M21.6,18.7c-0.8,0-1.5,0.7-1.5,1.5c0,0.8,0.7,1.5,1.5,1.5c0.8,0,1.5-0.7,1.5-1.5
								C23.2,19.3,22.5,18.7,21.6,18.7z M21.6,20.9c-0.4,0-0.8-0.3-0.8-0.8c0-0.4,0.3-0.8,0.8-0.8c0.4,0,0.8,0.3,0.8,0.8
								C22.4,20.6,22,20.9,21.6,20.9z"/>
						</g>
					</g>
				</g>
			</g>
		</g>
	</g>
	<g>
		<g>
			<g>
				<g>
					<g>
						<path fill="#3F4448" d="M16.9,29.3v-1.1h-2.2v-0.9l2.3-3.4h0.9v3.4h0.7v0.9h-0.7v1.1H16.9z M16.9,27.4v-1.8l-1.2,1.8H16.9z"/>
					</g>
				</g>
			</g>
		</g>
		<g>
			<g>
				<g>
					<g>
						<path fill="#3F4448" d="M19.8,29.3v-2.4h-0.9v-0.5h2.3v0.5h-0.9v2.4H19.8z"/>
					</g>
				</g>
			</g>
		</g>
	</g>
</g>
</svg>
