<?xml version="1.0" encoding="utf-8"?>
<!-- Generator: Adobe Illustrator 18.0.0, SVG Export Plug-In . SVG Version: 6.00 Build 0)  -->
<!DOCTYPE svg PUBLIC "-//W3C//DTD SVG 1.1//EN" "http://www.w3.org/Graphics/SVG/1.1/DTD/svg11.dtd">
<svg version="1.1" id="Layer_1" xmlns="http://www.w3.org/2000/svg" xmlns:xlink="http://www.w3.org/1999/xlink" x="0px" y="0px"
	 viewBox="0 0 36 36" enable-background="new 0 0 36 36" xml:space="preserve">
<g>
	<g>
		<g>
			<g>
				<g>
					<g>
						<path fill="#E24C4B" d="M34,18c0,4.4-1.8,8.4-4.7,11.3C26.4,32.2,22.4,34,18,34C9.2,34,2,26.8,2,18c0-4.4,1.8-8.4,4.7-11.3
							C9.6,3.8,13.6,2,18,2s8.4,1.8,11.3,4.7C32.2,9.6,34,13.6,34,18z"/>
					</g>
				</g>
			</g>
		</g>
	</g>
	<g>
		<g>
			<g>
				<g>
					<g>
						<path fill="#E24C4B" d="M34,18c0,4.4-1.8,8.4-4.7,11.3C26.4,32.2,22.4,34,18,34C9.2,34,2,26.8,2,18c0-4.4,1.8-8.4,4.7-11.3
							C9.6,3.8,13.6,2,18,2s8.4,1.8,11.3,4.7C32.2,9.6,34,13.6,34,18z"/>
					</g>
				</g>
			</g>
		</g>
		<g>
			<g>
				<g>
					<g>
						<g>
							<path fill="#FFFFFF" d="M18,31c-7.2,0-13-5.8-13-13c0-3.5,1.4-6.7,3.8-9.2C11.3,6.4,14.5,5,18,5s6.7,1.4,9.2,3.8
								c2.4,2.5,3.8,5.7,3.8,9.2c0,3.5-1.4,6.7-3.8,9.2C24.7,29.6,21.5,31,18,31z"/>
						</g>
					</g>
				</g>
			</g>
		</g>
	</g>
	<g>
		<g>
			<g>
				<g>
					<g>
						<path fill="#3F4448" d="M18.1,10.7c-0.3,0-0.6,0.1-0.6,0.1s-0.3-0.8-0.7-1.2c-0.4-0.4-0.6-0.4-0.6-0.4S15.9,10.1,16,11
							c0,0-0.2-0.6-0.6-0.9c-0.4-0.3-0.5-0.3-0.5-0.3s0.1,0.5,0,0.8c-0.1,0.3-0.3,0.4-0.3,1.3c0,0-0.2,1.2-0.9,2.6
							c-0.7,1.4-2,5.5-2,5.5s-0.2,0.4-0.5,1c0.8,0.4,3,1.4,5.4,0.7c0,0,0,0,0,0c0.3-0.4,2.5-3.1,2.7-6
							C19.5,12.8,18.4,11.1,18.1,10.7z M15.8,17.4c-0.3,0.4-0.9,0.4-0.9,0.4s0-0.6,0.3-1c0.4-0.4,0.9-0.4,0.9-0.4S16.2,17,15.8,17.4
							z"/>
					</g>
				</g>
			</g>
		</g>
		<g>
			<g>
				<g>
					<g>
						<path fill="#3F4448" d="M18.6,10.7c0.4,0.7,1.3,2.3,1.2,4.8c0.2,0.3,1.4,1.9,1.5,3.7c0.4,0.1,1.1,0.3,1.6,0.8
							c0.1,0.1,0.2,0.3,0.4,0.7c-1.1,1.3-2.6,2.1-4,2.6c-1.2,0-2.2-0.1-2.9-0.2c0.3-0.3,0.6-0.5,0.8-0.7c-0.3-0.1-0.5-0.3-0.6-0.4
							c-2.5,0.7-4.7-0.3-5.6-0.8c-0.4,0.9-0.8,2-0.9,2.9c0,1.6,1.1,2.3,2,2.3c0,0-0.1,0.7,1.1,0.2c1.1-0.4,0.8-1,1.5-1.8
							c1.1-0.1,2.9-0.3,4.7-1c1.5,0,3.3,0,5.3-0.3c0.5,1,1.3,2.7,2,4.3c0.2-0.2,0.4-0.3,0.6-0.5c2.5-2.5,3.8-5.7,3.8-9.2
							c0-2.1-0.5-4.1-1.4-5.9c-0.9-0.2-2.2-0.4-3.7-0.9C23.1,10.4,20.1,10.5,18.6,10.7z M15.2,24.3c0.3-0.3,0.5-0.5,0.8-0.8
							c0.1,0,0.3,0,0.6,0.1c0.4,0.1,0.9,0.1,1.5,0.1C17,24,16,24.2,15.2,24.3z M20.4,23.3c1.1-0.5,2.2-1.3,3.1-2.2
							c0.3,0.5,0.6,1.2,1,2C23,23.3,21.6,23.3,20.4,23.3z"/>
					</g>
				</g>
			</g>
		</g>
		<g>
			<g>
				<g>
					<g>
						<path fill="#3F4448" d="M18.5,21.8c1-0.1,2-1.6,2.3-2.3l0,0c0-1.3-0.7-2.7-1.2-3.3c-0.4,2.7-2.1,4.9-2.6,5.6
							c0.1,0.1,0.4,0.2,0.6,0.4C18,22,18.2,21.9,18.5,21.8z"/>
					</g>
				</g>
			</g>
		</g>
	</g>
</g>
</svg>
