<?xml version="1.0" encoding="utf-8"?>
<!-- Generator: Adobe Illustrator 18.0.0, SVG Export Plug-In . SVG Version: 6.00 Build 0)  -->
<!DOCTYPE svg PUBLIC "-//W3C//DTD SVG 1.1//EN" "http://www.w3.org/Graphics/SVG/1.1/DTD/svg11.dtd">
<svg version="1.1" id="Layer_1" xmlns="http://www.w3.org/2000/svg" xmlns:xlink="http://www.w3.org/1999/xlink" x="0px" y="0px"
	 viewBox="0 0 36 36" enable-background="new 0 0 36 36" xml:space="preserve">
<g>
	<g>
		<g>
			<g>
				<g>
					<g>
						<path fill="#E24C4B" d="M33.5,28L20.6,5.1c-1.1-2-4.1-2-5.2,0L2.5,28c-1.1,2,0.3,4.5,2.6,4.5h25.7C33.2,32.4,34.6,30,33.5,28z
							"/>
					</g>
				</g>
			</g>
		</g>
		<g>
			<g>
				<g>
					<g>
						<g>
							<path fill="#FFFFFF" d="M18,6.6l12.9,22.9H5.1L18,6.6C18,6.6,18,6.6,18,6.6z"/>
						</g>
					</g>
				</g>
			</g>
		</g>
		<g>
			<g>
				<g>
					<g>
						<g>
							<g>
								<path fill="#3F4448" d="M15.9,17.1l0.8,5.3c0.1,0.6,0.6,1.1,1.3,1.1l0,0c0.6,0,1.2-0.5,1.3-1.1l0.8-5.3
									c0.2-1.3-0.8-2.4-2.1-2.4l0,0C16.7,14.7,15.8,15.8,15.9,17.1z"/>
							</g>
						</g>
					</g>
				</g>
			</g>
			<g>
				<g>
					<g>
						<g>
							<circle fill="#3F4448" cx="18" cy="25.8" r="1.2"/>
						</g>
					</g>
				</g>
			</g>
		</g>
	</g>
</g>
</svg>
