<?xml version="1.0" encoding="utf-8"?>
<!-- Generator: Adobe Illustrator 18.0.0, SVG Export Plug-In . SVG Version: 6.00 Build 0)  -->
<!DOCTYPE svg PUBLIC "-//W3C//DTD SVG 1.1//EN" "http://www.w3.org/Graphics/SVG/1.1/DTD/svg11.dtd">
<svg version="1.1" id="Layer_1" xmlns="http://www.w3.org/2000/svg" xmlns:xlink="http://www.w3.org/1999/xlink" x="0px" y="0px"
	 viewBox="0 0 36 36" enable-background="new 0 0 36 36" xml:space="preserve">
<g>
	<g>
		<g>
			<g>
				<g>
					<g>
						<g>
							<g>
								<g>
									<g>
										<g>
											<path fill="#E24C4B" d="M34,4.9v26.3c0,1.6-1.3,2.9-2.9,2.9H4.9C3.3,34,2,32.7,2,31.1V4.9C2,3.3,3.3,2,4.9,2h26.3
												C32.7,2,34,3.3,34,4.9z"/>
										</g>
									</g>
								</g>
							</g>
							<g>
								<g>
									<g>
										<g>
											<g>
												<rect x="5" y="5" fill="#FFFFFF" width="26" height="26"/>
											</g>
										</g>
									</g>
								</g>
							</g>
						</g>
					</g>
				</g>
			</g>
		</g>
	</g>
	<g>
		<g>
			<g>
				<g>
					<g>
						<g>
							<polygon fill="#3F4448" points="21.5,26.6 21.5,31 23.8,31 23.8,26.6 28.3,26.6 25.3,22.1 28.3,22.1 25.3,17.6 28.3,17.6 
								22.7,9.3 17.1,17.6 20,17.6 17.1,22.1 20,22.1 17.1,26.6 							"/>
						</g>
					</g>
				</g>
			</g>
		</g>
		<g>
			<g>
				<g>
					<g>
						<g>
							<polygon fill="#3F4448" points="11,28.4 11.1,29.1 11.1,31 12.5,31 12.5,29.2 12.4,28.2 14.9,27.9 12.8,25.6 14.5,25.3 
								12.5,23 14.2,22.8 10.3,18.4 7.7,23.7 9.5,23.4 8.1,26.2 9.8,26 8.5,28.8 							"/>
						</g>
					</g>
				</g>
			</g>
		</g>
	</g>
</g>
</svg>
