<?xml version="1.0" encoding="utf-8"?>
<!-- Generator: Adobe Illustrator 18.0.0, SVG Export Plug-In . SVG Version: 6.00 Build 0)  -->
<!DOCTYPE svg PUBLIC "-//W3C//DTD SVG 1.1//EN" "http://www.w3.org/Graphics/SVG/1.1/DTD/svg11.dtd">
<svg version="1.1" id="Layer_1" xmlns="http://www.w3.org/2000/svg" xmlns:xlink="http://www.w3.org/1999/xlink" x="0px" y="0px"
	 viewBox="0 0 36 36" enable-background="new 0 0 36 36" xml:space="preserve">
<g>
	<g>
		<g>
			<g>
				<g>
					<path fill="#E24C4B" d="M18,2C9.2,2,2,9.2,2,18s7.2,16,16,16c8.8,0,16-7.2,16-16S26.8,2,18,2z"/>
				</g>
			</g>
		</g>
	</g>
	<g>
		<g>
			<g>
				<g>
					<path fill="#FFFFFF" d="M18,31c-7.2,0-13-5.8-13-13S10.8,5,18,5c7.2,0,13,5.8,13,13S25.2,31,18,31z"/>
				</g>
			</g>
		</g>
	</g>
	<g>
		<g>
			<g>
				<g>
					<g>
						<g>
							<g>
								<path fill="#3F4448" d="M10.6,14.6c-0.5,0-0.8,0.4-0.8,0.8v3.2c0.1,0,0.3,0,0.5,0c1.5,0,2.2,1.3,2.1,2.5h6.3
									c-0.1-1.3,0.7-2.7,2.4-2.7c1.3,0,2,0.8,2.3,1.7v-5.4H10.6z"/>
							</g>
						</g>
					</g>
				</g>
			</g>
		</g>
		<g>
			<g>
				<g>
					<g>
						<g>
							<g>
								<path fill="#3F4448" d="M20.5,18c-0.1,0-0.3,0-0.4-0.1c-0.2-0.2-0.2-0.5,0-0.8l3.7-4c0.1-0.1,0.2-0.1,0.3-0.2l3.6-0.9
									c0.3-0.1,0.6,0.1,0.6,0.4c0.1,0.3-0.1,0.6-0.4,0.6l-3.5,0.8l-3.5,3.9C20.7,17.9,20.6,18,20.5,18z"/>
							</g>
						</g>
					</g>
				</g>
			</g>
		</g>
		<g>
			<g>
				<g>
					<g>
						<g>
							<g>
								<path fill="#3F4448" d="M10.2,18.3c-1.4,0-2.5,1.1-2.5,2.5c0,1.4,1.1,2.5,2.5,2.5c1.4,0,2.5-1.1,2.5-2.5
									C12.7,19.4,11.6,18.3,10.2,18.3z M10.2,22.1c-0.7,0-1.3-0.6-1.3-1.3c0-0.7,0.6-1.3,1.3-1.3c0.7,0,1.3,0.6,1.3,1.3
									C11.5,21.5,10.9,22.1,10.2,22.1z"/>
							</g>
						</g>
					</g>
				</g>
			</g>
		</g>
		<g>
			<g>
				<g>
					<g>
						<g>
							<g>
								<path fill="#3F4448" d="M20.9,17.6c-1.8,0-3.2,1.4-3.2,3.2c0,1.8,1.4,3.2,3.2,3.2c1.8,0,3.2-1.4,3.2-3.2
									C24.1,19,22.7,17.6,20.9,17.6z M20.9,22.7c-1,0-1.9-0.9-1.9-1.9c0-1.1,0.9-1.9,1.9-1.9c1.1,0,1.9,0.9,1.9,1.9
									C22.8,21.8,22,22.7,20.9,22.7z"/>
							</g>
						</g>
					</g>
				</g>
			</g>
		</g>
	</g>
	<g>
		<g>
			<g>
				<g>
					<polygon fill="#E24C4B" points="29.6,27.5 27.5,29.6 6.4,8.5 8.5,6.4 					"/>
				</g>
			</g>
		</g>
	</g>
</g>
</svg>
