<?xml version="1.0" encoding="utf-8"?>
<!-- Generator: Adobe Illustrator 18.0.0, SVG Export Plug-In . SVG Version: 6.00 Build 0)  -->
<!DOCTYPE svg PUBLIC "-//W3C//DTD SVG 1.1//EN" "http://www.w3.org/Graphics/SVG/1.1/DTD/svg11.dtd">
<svg version="1.1" id="Layer_1" xmlns="http://www.w3.org/2000/svg" xmlns:xlink="http://www.w3.org/1999/xlink" x="0px" y="0px"
	 viewBox="0 0 36 36" enable-background="new 0 0 36 36" xml:space="preserve">
<g>
	<g>
		<g>
			<g>
				<g>
					<g>
						<path fill="#E24C4B" d="M18,2C9.2,2,2,9.2,2,18c0,8.8,7.2,16,16,16c8.8,0,16-7.2,16-16C34,9.2,26.8,2,18,2z"/>
					</g>
				</g>
			</g>
		</g>
		<g>
			<g>
				<g>
					<g>
						<path fill="#FFFFFF" d="M18,31c-7.2,0-13-5.8-13-13c0-7.2,5.8-13,13-13s13,5.8,13,13C31,25.2,25.2,31,18,31z"/>
					</g>
				</g>
			</g>
		</g>
	</g>
	<g>
		<g>
			<g>
				<g>
					<g>
						<path fill="#3F4448" d="M7.3,16.2c1.6,0,3-0.3,3,1.8c0,2-1.5,1.8-3,1.8V16.2z M8,16.8v2.4c1,0,1.5,0.1,1.5-1.2
							c0-0.3,0-0.5-0.1-0.6C9.3,16.7,8.7,16.8,8,16.8z"/>
					</g>
				</g>
			</g>
		</g>
		<g>
			<g>
				<g>
					<g>
						<path fill="#3F4448" d="M14.2,19.8h-0.8L13.1,19h-1.4l-0.3,0.8h-0.8l1.4-3.6h0.8L14.2,19.8z M12.8,18.4l-0.5-1.3l-0.5,1.3
							H12.8z"/>
					</g>
				</g>
			</g>
		</g>
		<g>
			<g>
				<g>
					<g>
						<path fill="#3F4448" d="M14.6,19.8v-3.6h0.7l1.5,2.4v-2.4h0.7v3.6h-0.7l-1.5-2.3v2.3H14.6z"/>
					</g>
				</g>
			</g>
		</g>
		<g>
			<g>
				<g>
					<g>
						<path fill="#3F4448" d="M19.9,18.5v-0.6h1.6v1.4c-1,0.9-3.4,0.8-3.4-1.3c0-2.3,3-2.5,3.3-0.8l-0.7,0.1c-0.3-1-1.8-0.8-1.8,0.6
							c0,1.3,1,1.6,1.9,1v-0.5H19.9z"/>
					</g>
				</g>
			</g>
		</g>
		<g>
			<g>
				<g>
					<g>
						<path fill="#3F4448" d="M22.1,19.8v-3.6h2.7v0.6h-1.9v0.8h1.8v0.6h-1.8v1h2v0.6H22.1z"/>
					</g>
				</g>
			</g>
		</g>
		<g>
			<g>
				<g>
					<g>
						<path fill="#3F4448" d="M25.5,19.8v-3.6c1.5,0,2.9-0.3,2.9,1c0,0.5-0.3,0.9-1,1c0.5,0.3,0.9,1,1.2,1.6h-0.9
							c-0.9-1.3-0.8-1.5-1.6-1.5v1.5H25.5z M26.2,17.7c0.6,0,1.5,0.1,1.5-0.5c0-0.6-0.9-0.4-1.5-0.4V17.7z"/>
					</g>
				</g>
			</g>
		</g>
	</g>
</g>
</svg>
