<?xml version="1.0" encoding="utf-8"?>
<!-- Generator: Adobe Illustrator 18.0.0, SVG Export Plug-In . SVG Version: 6.00 Build 0)  -->
<!DOCTYPE svg PUBLIC "-//W3C//DTD SVG 1.1//EN" "http://www.w3.org/Graphics/SVG/1.1/DTD/svg11.dtd">
<svg version="1.1" id="Layer_1" xmlns="http://www.w3.org/2000/svg" xmlns:xlink="http://www.w3.org/1999/xlink" x="0px" y="0px"
	 viewBox="0 0 36 36" enable-background="new 0 0 36 36" xml:space="preserve">
<g>
	<g>
		<g>
			<g>
				<g>
					<g>
						<g>
							<g>
								<path fill="#E24C4B" d="M31.7,31.4H4.3c-1.8,0-2.9-2-1.9-3.5L16.1,5.7c0.9-1.5,3-1.5,3.9,0l13.7,22.2
									C34.6,29.4,33.5,31.4,31.7,31.4z"/>
							</g>
						</g>
					</g>
				</g>
			</g>
			<g>
				<g>
					<g>
						<g>
							<g>
								<polygon fill="#FFFFFF" points="5.4,28.4 18,8.1 30.6,28.4 								"/>
							</g>
						</g>
					</g>
				</g>
			</g>
		</g>
	</g>
	<g>
		<g>
			<g>
				<g>
					<polygon fill="#3F4448" points="5.4,28.4 30.6,28.4 10.1,20.9 					"/>
				</g>
			</g>
		</g>
	</g>
	<g>
		<g>
			<g>
				<g>
					<g>
						<path fill="#3F4448" d="M15.6,21.8L15,21.6l0.8-2.2c-0.3,0.1-0.6,0.2-0.9,0.2l0.2-0.5c0.2,0,0.4,0,0.6-0.1
							c0.2-0.1,0.4-0.2,0.5-0.4l0.5,0.2L15.6,21.8z"/>
					</g>
				</g>
			</g>
		</g>
		<g>
			<g>
				<g>
					<g>
						<path fill="#3F4448" d="M18.6,19.4c0.8,0.3,0.7,1.1,0.5,1.9c-0.3,0.8-0.7,1.5-1.5,1.2c-0.8-0.3-0.7-1.1-0.5-1.9
							C17.3,19.8,17.8,19.1,18.6,19.4z M18.4,19.9c-0.4-0.1-0.6,0.5-0.8,1c-0.2,0.5-0.4,1.1,0,1.2c0.4,0.1,0.6-0.5,0.8-1
							C18.5,20.7,18.8,20,18.4,19.9z"/>
					</g>
				</g>
			</g>
		</g>
		<g>
			<g>
				<g>
					<g>
						<path fill="#3F4448" d="M19.7,20.6c0.2-0.6,0.6-0.7,1-0.6c0.4,0.1,0.6,0.5,0.4,1.1c-0.2,0.6-0.6,0.7-1,0.6
							C19.7,21.6,19.5,21.2,19.7,20.6z M20.2,20.8c-0.1,0.2-0.2,0.5,0,0.6c0.2,0.1,0.3-0.2,0.4-0.4c0.1-0.2,0.2-0.5,0-0.6
							C20.3,20.3,20.2,20.6,20.2,20.8z M20,23.5l-0.4-0.2l2.8-2.7l0.4,0.1L20,23.5z M21.2,23c0.2-0.6,0.6-0.7,1-0.6
							c0.4,0.1,0.6,0.5,0.4,1.1c-0.2,0.6-0.6,0.7-1,0.6C21.2,23.9,21,23.6,21.2,23z M21.7,23.2c-0.1,0.2-0.2,0.5,0,0.6
							c0.2,0.1,0.3-0.2,0.4-0.4c0.1-0.2,0.2-0.5,0-0.6C21.9,22.7,21.8,22.9,21.7,23.2z"/>
					</g>
				</g>
			</g>
		</g>
	</g>
</g>
</svg>
