<?xml version="1.0" encoding="utf-8"?>
<!-- Generator: Adobe Illustrator 18.0.0, SVG Export Plug-In . SVG Version: 6.00 Build 0)  -->
<!DOCTYPE svg PUBLIC "-//W3C//DTD SVG 1.1//EN" "http://www.w3.org/Graphics/SVG/1.1/DTD/svg11.dtd">
<svg version="1.1" id="Layer_1" xmlns="http://www.w3.org/2000/svg" xmlns:xlink="http://www.w3.org/1999/xlink" x="0px" y="0px"
	 viewBox="0 0 36 36" enable-background="new 0 0 36 36" xml:space="preserve">
<g>
	<g>
		<g>
			<g>
				<g>
					<g>
						<g>
							<g>
								<path fill="#E24C4B" d="M31.7,31.4H4.3c-1.8,0-2.9-2-1.9-3.5L16.1,5.7c0.9-1.5,3-1.5,3.9,0l13.7,22.2
									C34.6,29.4,33.5,31.4,31.7,31.4z"/>
							</g>
						</g>
					</g>
				</g>
			</g>
			<g>
				<g>
					<g>
						<g>
							<g>
								<polygon fill="#FFFFFF" points="30.6,28.4 18,8.1 5.4,28.4 								"/>
							</g>
						</g>
					</g>
				</g>
			</g>
		</g>
	</g>
	<g>
		<g>
			<g>
				<g>
					<polygon fill="#3F4448" points="30.6,28.4 5.4,28.4 25.9,20.9 					"/>
				</g>
			</g>
		</g>
	</g>
	<g>
		<g>
			<g>
				<g>
					<g>
						<path fill="#3F4448" d="M14.4,24.5l-0.6,0.2l-0.9-2.2c-0.1,0.3-0.3,0.5-0.6,0.8l-0.2-0.5c0.1-0.1,0.3-0.3,0.4-0.5
							c0.1-0.2,0.2-0.4,0.2-0.6l0.5-0.2L14.4,24.5z"/>
					</g>
				</g>
			</g>
		</g>
		<g>
			<g>
				<g>
					<g>
						<path fill="#3F4448" d="M14.9,20.7c0.8-0.3,1.3,0.3,1.6,1.1c0.3,0.8,0.5,1.6-0.3,2c-0.8,0.4-1.3-0.3-1.6-1.1
							C14.2,21.9,14.1,21.1,14.9,20.7z M15.1,21.2c-0.4,0.2-0.1,0.8,0.1,1.2c0.2,0.5,0.5,1,0.8,0.9c0.4-0.2,0.1-0.8-0.1-1.2
							C15.8,21.7,15.5,21,15.1,21.2z"/>
					</g>
				</g>
			</g>
		</g>
		<g>
			<g>
				<g>
					<g>
						<path fill="#3F4448" d="M16.6,20.9c-0.2-0.6-0.1-0.9,0.3-1.1c0.4-0.2,0.8-0.1,1,0.5c0.2,0.6,0.1,0.9-0.3,1.1
							C17.2,21.6,16.8,21.5,16.6,20.9z M17,20.7c0.1,0.2,0.2,0.5,0.4,0.4c0.2-0.1,0.1-0.4,0-0.6c-0.1-0.2-0.2-0.5-0.4-0.4
							C16.8,20.2,16.9,20.5,17,20.7z M18.7,22.8L18.3,23l0.2-3.9l0.4-0.2L18.7,22.8z M19.3,21.6c-0.2-0.6-0.1-0.9,0.3-1.1
							c0.4-0.2,0.8-0.1,1,0.5c0.2,0.6,0.1,0.9-0.3,1.1C19.9,22.3,19.5,22.2,19.3,21.6z M19.7,21.4c0.1,0.2,0.2,0.5,0.4,0.4
							c0.2-0.1,0.1-0.4,0-0.6c-0.1-0.2-0.2-0.5-0.4-0.4C19.5,20.9,19.7,21.2,19.7,21.4z"/>
					</g>
				</g>
			</g>
		</g>
	</g>
</g>
</svg>
