<?xml version="1.0" encoding="utf-8"?>
<!-- Generator: Adobe Illustrator 18.0.0, SVG Export Plug-In . SVG Version: 6.00 Build 0)  -->
<!DOCTYPE svg PUBLIC "-//W3C//DTD SVG 1.1//EN" "http://www.w3.org/Graphics/SVG/1.1/DTD/svg11.dtd">
<svg version="1.1" id="Layer_1" xmlns="http://www.w3.org/2000/svg" xmlns:xlink="http://www.w3.org/1999/xlink" x="0px" y="0px"
	 viewBox="0 0 36 36" enable-background="new 0 0 36 36" xml:space="preserve">
<g>
	<g>
		<g>
			<g>
				<g>
					<path fill="#FED93D" d="M7,19.2L7,19.2c0,4.3,3.5,7.8,7.8,7.8h5.1V11.4h-5.1C10.5,11.4,7,14.9,7,19.2z"/>
				</g>
			</g>
		</g>
	</g>
	<g>
		<g>
			<g>
				<g>
					<path fill="#FED93D" d="M32.1,11.4H19.9v3.9h12.1c1.1,0,1.9-0.9,1.9-2S33.1,11.4,32.1,11.4z"/>
				</g>
			</g>
		</g>
	</g>
	<g>
		<g>
			<g>
				<g>
					<path fill="#FED93D" d="M20,11.4v3.9h12.1c1.1,0,1.9-0.9,1.9-1.9c0-1.1-0.9-2-1.9-2H20z"/>
				</g>
			</g>
		</g>
	</g>
	<g>
		<g>
			<g>
				<g>
					<path fill="#F4C533" d="M9.6,19.6c0,0,0.6,0.1,1.5,0c0.9-0.1,2.1-0.4,3.3-1c0.6-0.3,1.1-0.7,1.6-1.1c0.5-0.4,0.8-0.9,1.1-1.3
						c0.3-0.4,0.4-0.8,0.5-1.1c0.1-0.3,0.1-0.4,0.1-0.4s-0.1,0.1-0.3,0.3c-0.2,0.2-0.4,0.5-0.8,0.8c-0.3,0.3-0.7,0.6-1.2,0.9
						c-0.2,0.2-0.5,0.3-0.7,0.4c-0.2,0.1-0.5,0.3-0.7,0.4c-1,0.5-2.1,1-2.9,1.4C10.2,19.3,9.6,19.6,9.6,19.6z"/>
				</g>
			</g>
		</g>
	</g>
	<g>
		<g>
			<g>
				<g>
					<path fill="#F4C533" d="M25.2,17.3L25.2,17.3c0,1.1-0.9,1.9-1.9,1.9h-4.6c-1.1,0-1.9-0.9-1.9-1.9l0,0c0-1.1,0.9-1.9,1.9-1.9
						h4.6C24.4,15.3,25.2,16.2,25.2,17.3z"/>
				</g>
			</g>
		</g>
	</g>
	<g>
		<g>
			<g>
				<g>
					<path fill="#F4C533" d="M24.9,21.2L24.9,21.2c0,1.1-0.9,1.9-1.9,1.9H19c-1.1,0-1.9-0.9-1.9-1.9l0,0c0-1.1,0.9-1.9,1.9-1.9h3.9
						C24,19.2,24.9,20.1,24.9,21.2z"/>
				</g>
			</g>
		</g>
	</g>
	<g>
		<g>
			<g>
				<g>
					<path fill="#F4C533" d="M24.2,25.1L24.2,25.1c0,1.1-0.9,1.9-1.9,1.9H19c-1.1,0-1.9-0.9-1.9-1.9l0,0c0-1.1,0.9-1.9,1.9-1.9h3.2
						C23.3,23.1,24.2,24,24.2,25.1z"/>
				</g>
			</g>
		</g>
	</g>
	<g opacity="0.3">
		<g>
			<g>
				<g>
					<path fill="#FFFFFF" d="M33.1,13.4c0,0,0.2-0.8-0.7-1.2c-0.3-0.1-0.5-0.1-0.8-0.1c-1.5,0-3.9,0-4.7,0.2
						c0.8,0.2,3.2,0.2,4.7,0.2c0.2,0,0.5,0,0.7,0C32.7,12.7,33,13,33.1,13.4z"/>
				</g>
			</g>
		</g>
	</g>
	<g opacity="0.3">
		<g>
			<g>
				<g>
					<path fill="#FFFFFF" d="M24.4,17.3c0,0,0.1-0.3-0.1-0.7c-0.2-0.4-0.6-0.6-1-0.6c-0.8,0-3,0-3.8,0.2c0.8,0.2,3,0.2,3.8,0.2
						c0.3,0,0.5,0.1,0.8,0.3C24.2,16.9,24.3,17.1,24.4,17.3z"/>
				</g>
			</g>
		</g>
	</g>
	<g opacity="0.3">
		<g>
			<g>
				<g>
					<path fill="#FFFFFF" d="M24,21.2c0,0,0.2-0.6-0.4-1.1c-0.2-0.1-0.4-0.2-0.7-0.2c-1,0-2.8,0-3.4,0.2c0.6,0.2,2.1,0.2,3.4,0.2
						C23.3,20.3,23.8,20.6,24,21.2z"/>
				</g>
			</g>
		</g>
	</g>
	<g opacity="0.3">
		<g>
			<g>
				<g>
					<path fill="#FFFFFF" d="M23.3,25.1c0.2-0.4-0.1-1-0.7-1.2c-0.5-0.1-2.1-0.1-2.7,0.2c1,0.4,1.7,0,2.6,0.3
						C22.9,24.4,23.2,24.7,23.3,25.1z"/>
				</g>
			</g>
		</g>
	</g>
	<g>
		<g>
			<g>
				<g>
					<path fill="#F4C533" d="M20.4,11.4c0.4,0.3,0.6,0.6,0.8,0.9c0.6,0.9,0.5,1.8,0.5,3h2v-1.3c0-0.9-0.3-1.9-0.8-2.6H20.4z"/>
				</g>
			</g>
		</g>
	</g>
	<g>
		<g>
			<g>
				<g>
					<path fill="#FED93D" d="M7,20.2c0,0,9.1-0.9,10.4-5.3c0,0,1.7,5.3,5.3,4.2v-5c0-0.8-0.2-1.6-0.7-2.3C21.2,10.6,19.3,9,15.6,9
						c0,0-7,0.3-8.6,6.8"/>
				</g>
			</g>
		</g>
	</g>
	<g opacity="0.3">
		<g>
			<g>
				<g>
					<path fill="#FFFFFF" d="M21.7,15.3c0,0,0-0.1,0-0.2c0.1-2.3-1.9-4-4.1-4.6c-2.6-0.7-5.3,0-7.5,1.6c-2,1.4-3,3.3-3.4,5.6
						c0.9-2.1,1.8-3.6,3.8-4.9c1.9-1.2,4.5-1.9,6.9-1.4c1.1,0.2,2.1,0.7,2.8,1.3C21.1,13.3,21.7,14.2,21.7,15.3z"/>
				</g>
			</g>
		</g>
	</g>
	<g>
		<g>
			<g>
				<g>
					<path fill="#3F4448" d="M2.9,24.8h4.8c0.5,0,0.9-0.4,0.9-0.9V12.4c0-0.5-0.4-0.9-0.9-0.9H2.9c-0.5,0-0.9,0.4-0.9,0.9V24
						C2,24.5,2.4,24.8,2.9,24.8z"/>
				</g>
			</g>
		</g>
	</g>
</g>
</svg>
