<?xml version="1.0" encoding="utf-8"?>
<!-- Generator: Adobe Illustrator 18.0.0, SVG Export Plug-In . SVG Version: 6.00 Build 0)  -->
<!DOCTYPE svg PUBLIC "-//W3C//DTD SVG 1.1//EN" "http://www.w3.org/Graphics/SVG/1.1/DTD/svg11.dtd">
<svg version="1.1" id="Layer_1" xmlns="http://www.w3.org/2000/svg" xmlns:xlink="http://www.w3.org/1999/xlink" x="0px" y="0px"
	 viewBox="0 0 36 36" enable-background="new 0 0 36 36" xml:space="preserve">
<g>
	<g>
		<g>
			<g>
				<g>
					<g>
						<g>
							<g>
								<g>
									<g>
										<path fill="#E24C4B" d="M4.3,31.4h27.4c1.8,0,2.9-2,1.9-3.5L19.9,5.7c-0.9-1.5-3-1.5-3.9,0L2.3,27.9
											C1.4,29.4,2.5,31.4,4.3,31.4z"/>
									</g>
								</g>
							</g>
						</g>
					</g>
					<g>
						<g>
							<g>
								<g>
									<g>
										<polygon fill="#FFFFFF" points="5.4,28.4 18,8.1 30.6,28.4 										"/>
									</g>
								</g>
							</g>
						</g>
					</g>
				</g>
			</g>
		</g>
		<g>
			<g>
				<g>
					<g>
						<g>
							<g>
								<polygon fill="#3F4448" points="20.9,28.4 20.9,23.6 18.6,19.3 18.6,15.2 21.6,15.2 21.6,18.6 23.9,22.9 23.9,28.4 								
									"/>
							</g>
						</g>
					</g>
				</g>
			</g>
		</g>
	</g>
	<g>
		<g>
			<g>
				<g>
					<g>
						<g>
							<g>
								<polygon fill="#3F4448" points="15.1,28.4 15.1,23.6 17.4,19.3 17.4,15.2 14.4,15.2 14.4,18.6 12.1,22.9 12.1,28.4 								
									"/>
							</g>
						</g>
					</g>
				</g>
			</g>
		</g>
	</g>
</g>
</svg>
