<?xml version="1.0" encoding="utf-8"?>
<!-- Generator: Adobe Illustrator 18.0.0, SVG Export Plug-In . SVG Version: 6.00 Build 0)  -->
<!DOCTYPE svg PUBLIC "-//W3C//DTD SVG 1.1//EN" "http://www.w3.org/Graphics/SVG/1.1/DTD/svg11.dtd">
<svg version="1.1" id="Layer_1" xmlns="http://www.w3.org/2000/svg" xmlns:xlink="http://www.w3.org/1999/xlink" x="0px" y="0px"
	 viewBox="0 0 36 36" enable-background="new 0 0 36 36" xml:space="preserve">
<g>
	<g>
		<g>
			<g>
				<g>
					<g>
						<g>
							<g>
								<g>
									<g>
										<g>
											<g>
												<path fill="#E24C4B" d="M4.3,31.4h27.4c1.8,0,2.9-2,1.9-3.5L19.9,5.7c-0.9-1.5-3-1.5-3.9,0L2.3,27.9
													C1.4,29.4,2.5,31.4,4.3,31.4z"/>
											</g>
										</g>
									</g>
								</g>
							</g>
							<g>
								<g>
									<g>
										<g>
											<g>
												<polygon fill="#FFFFFF" points="5.4,28.4 18,8.1 30.6,28.4 												"/>
											</g>
										</g>
									</g>
								</g>
							</g>
						</g>
					</g>
				</g>
			</g>
		</g>
	</g>
	<g>
		<g>
			<g>
				<g>
					<g>
						<circle fill="#3F4448" cx="18.1" cy="16.7" r="1.4"/>
					</g>
				</g>
			</g>
		</g>
		<g>
			<g>
				<g>
					<g>
						<path fill="#3F4448" d="M21.9,21.2l-1.4-2.5l1.9-0.6c0.3-0.1,0.5-0.4,0.4-0.7c-0.1-0.3-0.4-0.5-0.7-0.4l-3,1
							c-0.2,0-0.3,0.2-0.3,0.3L17.9,20l-1.1-0.5c-0.3-0.1-0.6,0-0.8,0.3c-0.1,0.3,0,0.6,0.3,0.8l1.6,0.8c0.1,0,0.2,0.1,0.2,0.1
							c0.2,0,0.4-0.1,0.5-0.3l0.2-0.5l1.2,2.2l-1.5,1.7c-0.1,0.1-0.1,0.2-0.1,0.2L17.9,27c-0.1,0.3,0.1,0.6,0.4,0.7
							c0.3,0.1,0.6-0.1,0.7-0.4l0.6-2.3c0,0,2.2-2.4,2.2-2.4C22.1,22.2,22.1,21.6,21.9,21.2z"/>
					</g>
				</g>
			</g>
		</g>
		<g>
			<g>
				<g>
					<g>
						<path fill="#3F4448" d="M12.7,20.6c0.5,0,1-0.4,1-1c0-0.5-0.4-1-1-1c-0.6,0-1,0.4-1,1C11.7,20.2,12.2,20.6,12.7,20.6z"/>
					</g>
				</g>
			</g>
		</g>
		<g>
			<g>
				<g>
					<g>
						<path fill="#3F4448" d="M17.1,26.1l-0.9-0.6l-0.7-1.2c-0.1,0.1-0.3,0.4-0.6,0.7l0.6,1c0,0.1,0.1,0.1,0.1,0.1l1,0.6
							c0.2,0.1,0.4,0.1,0.6-0.1C17.4,26.5,17.3,26.3,17.1,26.1z"/>
					</g>
				</g>
			</g>
		</g>
		<g>
			<g>
				<g>
					<g>
						<path fill="#3F4448" d="M15.5,22.9l-1.1-2c0.2-0.1,0.3-0.2,0.5-0.3c0.1-0.1,0.1-0.1,0.2-0.2l0.4-1.2c0.1-0.2,0-0.5-0.3-0.5
							c-0.2-0.1-0.5,0-0.5,0.3L14.4,20c-0.8,0.5-1.4,1.2-1.7,2l-0.1,0.2l-1.2-0.2c-0.2,0-0.4,0.1-0.5,0.3c0,0.2,0.1,0.4,0.3,0.5
							l1.5,0.3c0,0,0.1,0,0.1,0c0.2,0,0.3-0.1,0.4-0.2l0.2-0.4l0.8,1.6l-1.1,1.2c0,0.1-0.1,0.1-0.1,0.2l-0.4,1.8
							c-0.1,0.2,0.1,0.5,0.3,0.5c0.2,0.1,0.4-0.1,0.5-0.3l0.4-1.7c0,0,1.6-1.8,1.6-1.8C15.6,23.7,15.7,23.3,15.5,22.9z"/>
					</g>
				</g>
			</g>
		</g>
		<g>
			<g>
				<g>
					<g>
						<path fill="#3F4448" d="M25.1,23.1c-0.1-0.3-0.4-0.4-0.7-0.3l-1.6,0.7L22.1,23c-0.1,0.2-0.4,0.4-0.7,0.9l0.8,0.7
							c0.1,0.1,0.2,0.1,0.4,0.1c0.1,0,0.1,0,0.2,0l2-0.8C25.1,23.8,25.2,23.4,25.1,23.1z"/>
					</g>
				</g>
			</g>
		</g>
	</g>
</g>
</svg>
