<?xml version="1.0" encoding="utf-8"?>
<!-- Generator: Adobe Illustrator 18.0.0, SVG Export Plug-In . SVG Version: 6.00 Build 0)  -->
<!DOCTYPE svg PUBLIC "-//W3C//DTD SVG 1.1//EN" "http://www.w3.org/Graphics/SVG/1.1/DTD/svg11.dtd">
<svg version="1.1" id="Layer_1" xmlns="http://www.w3.org/2000/svg" xmlns:xlink="http://www.w3.org/1999/xlink" x="0px" y="0px"
	 viewBox="0 0 36 36" enable-background="new 0 0 36 36" xml:space="preserve">
<g>
	<g>
		<g>
			<g>
				<g>
					<g>
						<g>
							<g>
								<path fill="#E24C4B" d="M4.3,31.4h27.4c1.8,0,2.9-2,1.9-3.5L19.9,5.7c-0.9-1.5-3-1.5-3.9,0L2.3,27.9
									C1.4,29.4,2.5,31.4,4.3,31.4z"/>
							</g>
						</g>
					</g>
				</g>
			</g>
			<g>
				<g>
					<g>
						<g>
							<g>
								<polygon fill="#FFFFFF" points="30.6,28.4 18,8.1 5.4,28.4 								"/>
							</g>
						</g>
					</g>
				</g>
			</g>
		</g>
	</g>
	<g>
		<g>
			<g>
				<g>
					<g>
						<g>
							<path fill="#3F4448" d="M23.8,23.7h-1v-4.4h0.2c0.2,0,0.3-0.1,0.3-0.3c0-0.2-0.1-0.3-0.3-0.3h-5.3c-0.1,0-0.3,0.1-0.3,0.2
								L16,24.4h-1.7c-0.2,0-0.3,0.1-0.3,0.3V26h-0.3v-5.4c0-0.2-0.1-0.3-0.3-0.3c-0.2,0-0.3,0.1-0.3,0.3v6.5H10
								c-0.2,0-0.3,0.1-0.3,0.3c0,0.2,0.1,0.3,0.3,0.3h3.1v0.1c0,0.2,0.1,0.3,0.3,0.3c0.2,0,0.3-0.1,0.3-0.3v-1.2H14v0.6
								c0,0.2,0.1,0.3,0.3,0.3h0.8c0.1,0.6,0.6,1,1.2,1c0.6,0,1.1-0.4,1.2-1h2.8c0.1,0.6,0.6,1,1.2,1c0.6,0,1.1-0.4,1.2-1h0.8
								c0.3,0,0.5-0.2,0.5-0.5L23.8,23.7z M16.3,27.7c-0.3,0-0.5-0.2-0.5-0.5c0-0.3,0.2-0.5,0.5-0.5c0.3,0,0.5,0.2,0.5,0.5
								C16.8,27.5,16.6,27.7,16.3,27.7z M19.9,23.7v0.2c-0.4,0.2-0.8,0.5-0.9,1h-0.3l0.6-1.4h0.7C20,23.4,19.9,23.5,19.9,23.7z
								 M21.6,27.7c-0.3,0-0.5-0.2-0.5-0.5c0-0.3,0.2-0.5,0.5-0.5c0.3,0,0.5,0.2,0.5,0.5C22.1,27.5,21.8,27.7,21.6,27.7z M22.2,23.7
								h-0.4v0c0-0.1-0.1-0.3-0.3-0.3h-0.5v-1.8c0-0.4-0.3-0.8-0.8-0.8c-0.3,0-0.6,0.2-0.7,0.4l-0.2,0.5L18.5,22
								c-0.3,0.1-0.2,0.5,0,0.4l1.1-0.3l0.3-0.4v0.9c0,0-0.8,0.2-0.8,0.2c-0.2,0.1-0.3,0.3-0.3,0.5l-0.5,1.5h-1.7v-0.2l1.4-5.4h4.2
								V23.7z"/>
						</g>
					</g>
				</g>
			</g>
		</g>
		<g>
			<g>
				<g>
					<g>
						<path fill="#3F4448" d="M20.1,20.5c0.3,0,0.5-0.2,0.5-0.5c0-0.3-0.2-0.5-0.5-0.5c-0.3,0-0.5,0.2-0.5,0.5
							C19.6,20.3,19.8,20.5,20.1,20.5z"/>
					</g>
				</g>
			</g>
		</g>
	</g>
</g>
</svg>
