<?xml version="1.0" encoding="utf-8"?>
<!-- Generator: Adobe Illustrator 18.0.0, SVG Export Plug-In . SVG Version: 6.00 Build 0)  -->
<!DOCTYPE svg PUBLIC "-//W3C//DTD SVG 1.1//EN" "http://www.w3.org/Graphics/SVG/1.1/DTD/svg11.dtd">
<svg version="1.1" id="Layer_1" xmlns="http://www.w3.org/2000/svg" xmlns:xlink="http://www.w3.org/1999/xlink" x="0px" y="0px"
	 viewBox="0 0 36 36" enable-background="new 0 0 36 36" xml:space="preserve">
<g>
	<g>
		<g>
			<g>
				<g>
					
						<ellipse transform="matrix(-4.313429e-004 1 -1 -4.313429e-004 36.0077 7.796364e-003)" fill="#E24C4B" cx="18" cy="18" rx="16" ry="16"/>
				</g>
			</g>
		</g>
	</g>
	<g>
		<g>
			<g>
				<g>
					<path fill="#FFFFFF" d="M18,31c-7.2,0-13-5.8-13-13c0-7.2,5.8-13,13-13c7.2,0,13,5.8,13,13C31,25.2,25.2,31,18,31z"/>
				</g>
			</g>
		</g>
	</g>
	<g>
		<g>
			<g>
				<g>
					<path fill="#3F4448" d="M17.5,11.6v0.6c-2.6,0.1-3.2,2.3-3.8,4.4c-0.3,1.1-0.5,2.1-1.1,2.7l-0.5-0.4c0.5-0.5,0.7-1.5,1-2.5
						C13.7,14.3,14.4,11.7,17.5,11.6z"/>
				</g>
			</g>
		</g>
	</g>
	<g>
		<g>
			<g>
				<g>
					<path fill="#3F4448" d="M18,11.8l5.9,1.7l0,0c0,0-1.1-1.9-5.6-2.9L18,11.8z"/>
				</g>
			</g>
		</g>
	</g>
	<g>
		<g>
			<g>
				<g>
					<path fill="#3F4448" d="M18.4,13.1c-2.3-0.2-4.3,1.6-4.3,3.9v9c0,0.4,0.4,0.8,0.8,0.8h6.2c0.4,0,0.8-0.4,0.8-0.8v-8.8
						C21.9,15.1,20.4,13.3,18.4,13.1z M20.4,22.5h-4.8v-3.2h4.8V22.5z"/>
				</g>
			</g>
		</g>
	</g>
	<g>
		<g>
			<g>
				<g>
					<rect x="17.2" y="11.6" fill="#3F4448" width="1.5" height="3.1"/>
				</g>
			</g>
		</g>
	</g>
	<g>
		<g>
			<g>
				<g>
					<path fill="#5B6064" d="M23.3,8.1c-0.9,1.9-4.5,2.5-4.5,2.5V12h-1.5v-1.3c0-0.5,0.3-0.9,0.8-1.1L23.3,8.1z"/>
				</g>
			</g>
		</g>
	</g>
	<g>
		<g>
			<g>
				<g>
					<path fill="#DAE5EE" d="M18.2,10.9c0,0.1-0.1,0.2-0.2,0.2c-0.1,0-0.2-0.1-0.2-0.2c0-0.1,0.1-0.2,0.2-0.2
						C18.1,10.7,18.2,10.8,18.2,10.9z"/>
				</g>
			</g>
		</g>
	</g>
</g>
</svg>
