<?xml version="1.0" encoding="utf-8"?>
<!-- Generator: Adobe Illustrator 18.0.0, SVG Export Plug-In . SVG Version: 6.00 Build 0)  -->
<!DOCTYPE svg PUBLIC "-//W3C//DTD SVG 1.1//EN" "http://www.w3.org/Graphics/SVG/1.1/DTD/svg11.dtd">
<svg version="1.1" id="Layer_1" xmlns="http://www.w3.org/2000/svg" xmlns:xlink="http://www.w3.org/1999/xlink" x="0px" y="0px"
	 viewBox="0 0 36 36" enable-background="new 0 0 36 36" xml:space="preserve">
<g>
	<g>
		<g>
			<g>
				<g>
					
						<ellipse transform="matrix(4.344741e-004 1 -1 4.344741e-004 35.9921 -7.757800e-003)" fill="#E24C4B" cx="18" cy="18" rx="16" ry="16"/>
				</g>
			</g>
		</g>
	</g>
	<g>
		<g>
			<g>
				<g>
					<path fill="#FFFFFF" d="M18,31c7.2,0,13-5.8,13-13c0-7.2-5.8-13-13-13C10.8,5,5,10.8,5,18C5,25.2,10.8,31,18,31z"/>
				</g>
			</g>
		</g>
	</g>
	<g>
		<g>
			<g>
				<g>
					<path fill="#3F4448" d="M15.2,18c0.5-1.2,0.7-2.5,0.7-3.8c-0.3,0.7-0.5,1.5-0.8,2.2c-0.4-1.7-0.1-3.5,0.8-5
						c-0.5,0.4-0.9,0.8-1.4,1.2c0.3-1.2,0-2.6-0.7-3.6c0.3,1.6-0.3,3.4-1.5,4.5c0-0.4-0.1-0.8-0.1-1.2c-0.6,0.8-0.9,1.9-0.8,2.9
						c-0.3-0.2-0.5-0.3-0.8-0.5c0.1,0.9,0.2,1.8,0.3,2.8c-0.2-0.3-0.4-0.6-0.5-0.9c-0.2,2-0.1,4.1,0.4,6c0.3,1.3,1.2,2.2,2.3,2.9
						l0.1-0.7c0.4-0.7,0.8-1.4,1.2-2.1c1-1.7,2-3.5,2.1-5.5C16,17.4,15.6,17.7,15.2,18z"/>
				</g>
			</g>
		</g>
	</g>
	<g>
		<g>
			<g>
				<g>
					<g>
						<polygon fill="#3F4448" points="26.8,16.4 27.4,17.3 13.4,25.9 12.9,25 						"/>
					</g>
				</g>
			</g>
		</g>
		<g>
			<g>
				<g>
					<g>
						<path fill="#3F4448" d="M15.8,23.8c0.4,0.6-1.1,2.2-1.8,2.7c-0.7,0.5-1.6,0.4-2-0.2c-0.4-0.6-0.1-1.4,0.7-1.9
							C13.3,23.8,15.4,23.2,15.8,23.8z"/>
					</g>
				</g>
			</g>
		</g>
	</g>
	<g>
		<g>
			<g>
				<g>
					<path fill="#FFFFFF" d="M13.6,20.7c-0.2,0.4-0.4,0.7-0.7,1.1c-0.4,0.4-0.6,0-0.8-0.4c-0.4-0.8-0.7-1.7-0.7-2.6
						c0.2,0.4,0.4,0.7,0.8,0.9c-0.5-1-0.7-2.1-0.6-3.2c0.3,0.4,0.5,0.7,0.8,1.1c-0.3-1.2,0.1-2.6,1.1-3.4c-0.1,1-0.3,2-0.6,2.9
						c0.3-0.3,0.6-0.6,0.9-0.8c-0.1,1-0.1,1.9-0.2,2.9c0.2,0,0.5-0.1,0.7-0.2C14.1,19.5,13.9,20.1,13.6,20.7z"/>
				</g>
			</g>
		</g>
	</g>
	<g>
		<g>
			<g>
				<g>
					
						<rect x="16.5" y="2.9" transform="matrix(-0.7071 0.7071 -0.7071 -0.7071 43.4561 18.0002)" fill="#E24C4B" width="3" height="30.1"/>
				</g>
			</g>
		</g>
	</g>
</g>
</svg>
