<?xml version="1.0" encoding="utf-8"?>
<!-- Generator: Adobe Illustrator 18.0.0, SVG Export Plug-In . SVG Version: 6.00 Build 0)  -->
<!DOCTYPE svg PUBLIC "-//W3C//DTD SVG 1.1//EN" "http://www.w3.org/Graphics/SVG/1.1/DTD/svg11.dtd">
<svg version="1.1" id="Layer_1" xmlns="http://www.w3.org/2000/svg" xmlns:xlink="http://www.w3.org/1999/xlink" x="0px" y="0px"
	 viewBox="0 0 36 36" enable-background="new 0 0 36 36" xml:space="preserve">
<g>
	<g>
		<g>
			<g>
				<g>
					<path fill="#E24C4B" d="M34,18c0-8.8-7.2-16-16-16S2,9.2,2,18c0,8.8,7.2,16,16,16C26.8,34,34,26.8,34,18z"/>
				</g>
			</g>
		</g>
	</g>
	<g>
		<g>
			<g>
				<g>
					<path fill="#FFFFFF" d="M18,31c7.2,0,13-5.8,13-13c0-7.2-5.8-13-13-13C10.8,5,5,10.8,5,18C5,25.2,10.8,31,18,31z"/>
				</g>
			</g>
		</g>
	</g>
	<g>
		<g>
			<g>
				<g>
					<path fill="#3F4448" d="M18,9.8h-6.4c-0.6,0-1.1,0.5-1.1,1.1v14.3c0,0.6,0.5,1.1,1.1,1.1H18c0.6,0,1.1-0.5,1.1-1.1V10.9
						C19,10.3,18.5,9.8,18,9.8z M14.8,22c-0.4,0-0.8-0.3-0.8-0.8c0-0.4,0.3-0.8,0.8-0.8s0.8,0.4,0.8,0.8C15.5,21.7,15.2,22,14.8,22z
						 M14.8,17.7c-1.6,0-3-1.3-3-3c0-1.6,1.3-3,3-3c1.6,0,3,1.3,3,3C17.7,16.4,16.4,17.7,14.8,17.7z M15.7,14.6
						c-0.9,0-1.2-0.8-1.1-1.5c-0.9,0.1-1.5,0.8-1.5,1.7c0,0.9,0.8,1.7,1.7,1.7s1.7-0.8,1.7-1.7c0-0.1,0-0.3-0.1-0.4
						C16.2,14.5,16,14.6,15.7,14.6z"/>
				</g>
			</g>
		</g>
	</g>
	<g>
		<g>
			<g>
				<g>
					<path fill="#3F4448" d="M16.4,14.8c0,0.9-0.7,1.7-1.7,1.7s-1.7-0.8-1.7-1.7c0-0.9,0.7-1.6,1.5-1.7c-0.1,0.7,0.2,1.5,1.1,1.5
						c0.3,0,0.5-0.1,0.7-0.2C16.4,14.5,16.4,14.6,16.4,14.8z"/>
				</g>
			</g>
		</g>
	</g>
	<g>
		<g>
			<g>
				<g>
					<path fill="#3F4448" d="M27.4,16.7v5.3c0,0.4-0.3,0.8-0.8,0.8h-5.6c-0.4,0-0.8-0.3-0.8-0.8v-1.5h-1.7v-2.3h1.7v-1.5
						c0-0.4,0.4-0.8,0.8-0.8h5.6C27.1,15.9,27.4,16.2,27.4,16.7z"/>
				</g>
			</g>
		</g>
	</g>
	<g>
		<g>
			<g>
				<g>
					<polygon fill="#E24C4B" points="8.5,29.6 6.4,27.5 27.5,6.4 29.6,8.5 					"/>
				</g>
			</g>
		</g>
	</g>
</g>
</svg>
