<?xml version="1.0" encoding="utf-8"?>
<!-- Generator: Adobe Illustrator 18.0.0, SVG Export Plug-In . SVG Version: 6.00 Build 0)  -->
<!DOCTYPE svg PUBLIC "-//W3C//DTD SVG 1.1//EN" "http://www.w3.org/Graphics/SVG/1.1/DTD/svg11.dtd">
<svg version="1.1" id="Layer_1" xmlns="http://www.w3.org/2000/svg" xmlns:xlink="http://www.w3.org/1999/xlink" x="0px" y="0px"
	 viewBox="0 0 36 36" enable-background="new 0 0 36 36" xml:space="preserve">
<g>
	<g>
		<g>
			<g>
				<g>
					<path fill="#E24C4B" d="M34,18c0-8.8-7.2-16-16-16S2,9.2,2,18c0,8.8,7.2,16,16,16S34,26.8,34,18z"/>
				</g>
			</g>
		</g>
	</g>
	<g>
		<g>
			<g>
				<g>
					<path fill="#FFFFFF" d="M18,31c7.2,0,13-5.8,13-13c0-7.2-5.8-13-13-13C10.8,5,5,10.8,5,18C5,25.2,10.8,31,18,31z"/>
				</g>
			</g>
		</g>
	</g>
	<g>
		<g>
			<g>
				<g>
					<g>
						<path fill="#3F4448" d="M24.1,15.2c-0.1-0.4-0.5-0.6-0.9-0.4l-11.1,3.6c-0.4,0.1-0.6,0.5-0.4,0.9c0.1,0.4,0.5,0.6,0.9,0.5
							l0.4-0.1l7.7,9.1c0.6,0.7,1.7,0.3,1.7-0.6l0.9-11.9l0.3-0.1C24,15.9,24.2,15.5,24.1,15.2z"/>
					</g>
				</g>
			</g>
		</g>
		<g>
			<g>
				<g>
					<g>
						<path fill="#3F4448" d="M16.8,15c0.1,0.3,0.2,0.5,0.4,0.8l5.8-1.9c0-0.3-0.1-0.6-0.1-0.8c-0.5-1.7-2.3-2.6-4-2
							C17.2,11.6,16.3,13.3,16.8,15z"/>
					</g>
				</g>
			</g>
		</g>
		<g>
			<g>
				<g>
					<g>
						<path fill="#3F4448" d="M12.9,12c0.1,0,0.2-0.1,0.3-0.1c1.1-0.3,2.1-0.2,3.1,0.2c0.5-0.9,1.3-1.6,2.3-2c0.1,0,0.2-0.1,0.3-0.1
							c0-0.1,0-0.2-0.1-0.3c-0.5-1.6-2.3-2.6-4-2c-1.7,0.5-2.6,2.3-2,4C12.9,11.9,12.9,12,12.9,12z"/>
					</g>
				</g>
			</g>
		</g>
		<g>
			<g>
				<g>
					<g>
						<path fill="#3F4448" d="M11.9,17.5l4.5-1.5c-0.1-0.2-0.3-0.5-0.4-0.8c-0.2-0.8-0.3-1.5-0.1-2.3c-0.7-0.4-1.6-0.5-2.5-0.2
							c-1.7,0.5-2.6,2.3-2,4C11.6,17,11.7,17.3,11.9,17.5C11.9,17.5,11.9,17.5,11.9,17.5z"/>
					</g>
				</g>
			</g>
		</g>
	</g>
	<g>
		<g>
			<g>
				<g>
					<polygon fill="#E24C4B" points="8.5,29.6 6.4,27.5 27.5,6.4 29.6,8.5 					"/>
				</g>
			</g>
		</g>
	</g>
</g>
</svg>
