<?xml version="1.0" encoding="utf-8"?>
<!-- Generator: Adobe Illustrator 18.0.0, SVG Export Plug-In . SVG Version: 6.00 Build 0)  -->
<!DOCTYPE svg PUBLIC "-//W3C//DTD SVG 1.1//EN" "http://www.w3.org/Graphics/SVG/1.1/DTD/svg11.dtd">
<svg version="1.1" id="Layer_1" xmlns="http://www.w3.org/2000/svg" xmlns:xlink="http://www.w3.org/1999/xlink" x="0px" y="0px"
	 viewBox="0 0 36 36" enable-background="new 0 0 36 36" xml:space="preserve">
<g>
	<g>
		<g>
			<g>
				<g>
					<path fill="#E24C4B" d="M18,34c8.8,0,16-7.2,16-16c0-8.8-7.2-16-16-16C9.2,2,2,9.2,2,18C2,26.8,9.2,34,18,34z"/>
				</g>
			</g>
		</g>
	</g>
	<g>
		<g>
			<g>
				<g>
					<path fill="#FFFFFF" d="M18,31c7.2,0,13-5.8,13-13c0-7.2-5.8-13-13-13S5,10.8,5,18C5,25.2,10.8,31,18,31z"/>
				</g>
			</g>
		</g>
	</g>
	<g>
		<g>
			<g>
				<g>
					<g>
						<g>
							<path fill="#3F4448" d="M26.7,16.4H9.3c1-3.9,4.5-6.8,8.7-6.8C22.2,9.6,25.8,12.5,26.7,16.4z"/>
						</g>
					</g>
				</g>
			</g>
			<g>
				<g>
					<g>
						<g>
							<path fill="#3F4448" d="M14.9,26.4h6.2c1.3,0,2.5-0.5,3.3-1.4c0.5-0.5,1-1.1,1.4-1.8H10.2c0.4,0.7,0.8,1.3,1.4,1.8
								C12.5,25.9,13.7,26.4,14.9,26.4z"/>
						</g>
					</g>
				</g>
			</g>
		</g>
		<g>
			<g>
				<g>
					<g>
						<g>
							<path fill="#3F4448" d="M9.8,21.6h16.4c0.9,0,1.7-0.7,1.8-1.5l0,0c0.2-1.1-0.7-2.1-1.8-2.1H9.8c-1.1,0-2,1-1.8,2.1l0,0
								C8.1,21,8.9,21.6,9.8,21.6z"/>
						</g>
					</g>
				</g>
			</g>
		</g>
	</g>
	<g>
		<g>
			<g>
				<g>
					<polygon fill="#E24C4B" points="27.5,29.6 29.6,27.5 8.5,6.4 6.4,8.5 					"/>
				</g>
			</g>
		</g>
	</g>
</g>
</svg>
