<?xml version="1.0" encoding="utf-8"?>
<!-- Generator: Adobe Illustrator 18.0.0, SVG Export Plug-In . SVG Version: 6.00 Build 0)  -->
<!DOCTYPE svg PUBLIC "-//W3C//DTD SVG 1.1//EN" "http://www.w3.org/Graphics/SVG/1.1/DTD/svg11.dtd">
<svg version="1.1" id="Layer_1" xmlns="http://www.w3.org/2000/svg" xmlns:xlink="http://www.w3.org/1999/xlink" x="0px" y="0px"
	 viewBox="0 0 36 36" enable-background="new 0 0 36 36" xml:space="preserve">
<g>
	<g>
		<g>
			<g>
				<g>
					<g>
						<g>
							<circle fill="#3F4448" cx="20.3" cy="7.9" r="2.3"/>
						</g>
					</g>
				</g>
			</g>
			<g>
				<g>
					<g>
						<g>
							<path fill="#3F4448" d="M23.4,21.3c-0.1-0.3-0.3-0.5-0.5-0.6l-0.1-0.1l-3.5-2.1c-0.1-1,0-2.1,0.1-3.1l0.9,1
								c0.2,0.2,0.4,0.3,0.7,0.3l3.4,0.3c0.6,0.1,1.1-0.4,1.2-0.9c0.1-0.6-0.4-1.1-0.9-1.2l-3-0.3l-1.6-1.7c0-1.1-0.6-2.1-1.7-2.5
								c-1-0.3-2-0.1-2.7,0.6l-3.1,1.4c-0.3,0.1-0.5,0.4-0.6,0.7l-1.3,4.4c-0.2,0.6,0.2,1.2,0.7,1.3c0.6,0.2,1.2-0.2,1.3-0.7
								l1.2-3.9l0.6-0.3c-0.3,1.5-0.6,3.7-0.2,5.8c0,0.1,0,0.3,0.1,0.4l1.6,4.7L13.1,27c-0.5,0.4-0.6,1.2-0.1,1.7
								c0.4,0.5,1.2,0.6,1.7,0.1L18,26c0.3-0.3,0.5-0.7,0.4-1.1l0-0.1l-0.5-3.2l3.3,1.1l1.6,4.5c0.2,0.6,0.9,1,1.6,0.8
								c0.6-0.2,1-0.9,0.8-1.6L23.4,21.3z"/>
						</g>
					</g>
				</g>
			</g>
		</g>
	</g>
	<g>
		<g>
			<g>
				<g>
					<path fill="#D1403F" d="M18,34C9.2,34,2,26.8,2,18S9.2,2,18,2c8.8,0,16,7.2,16,16S26.8,34,18,34z M4.8,18
						c0,7.3,5.9,13.2,13.2,13.2c4.2,0,6.8-1.9,8.4-2.9L7.7,9.6C6.8,10.9,4.8,13.6,4.8,18z M18,4.8c-4.2,0-6.8,1.9-8.4,2.9l18.7,18.7
						c0.9-1.4,2.9-4,2.9-8.4C31.2,10.7,25.3,4.8,18,4.8z"/>
				</g>
			</g>
		</g>
	</g>
</g>
</svg>
