<?xml version="1.0" encoding="utf-8"?>
<!-- Generator: Adobe Illustrator 18.0.0, SVG Export Plug-In . SVG Version: 6.00 Build 0)  -->
<!DOCTYPE svg PUBLIC "-//W3C//DTD SVG 1.1//EN" "http://www.w3.org/Graphics/SVG/1.1/DTD/svg11.dtd">
<svg version="1.1" id="Layer_1" xmlns="http://www.w3.org/2000/svg" xmlns:xlink="http://www.w3.org/1999/xlink" x="0px" y="0px"
	 viewBox="0 0 36 36" enable-background="new 0 0 36 36" xml:space="preserve">
<g>
	<g>
		<g>
			<g>
				<g>
					<g>
						<circle fill="#F4C533" cx="18" cy="18" r="16"/>
					</g>
				</g>
			</g>
		</g>
		<g>
			<g>
				<g>
					<g>
						<path fill="#E9B12B" d="M34,18c0,8.8-7.2,16-16,16c-5.1,0-9.6-2.3-12.5-6c2.7,2.2,6.2,3.5,10,3.5c8.8,0,16-7.2,16-16
							c0-3.8-1.3-7.3-3.5-10C31.7,8.4,34,12.9,34,18z"/>
					</g>
				</g>
			</g>
		</g>
	</g>
	<g>
		<g>
			<g>
				<g>
					<g>
						<path fill="#FFFFFF" d="M17.5,28.6c-5,0-9.1-4.1-9.1-9.1c0-4.6,3.7-8.3,8.3-8.3c4.1,0,7.5,3.4,7.5,7.5c0,3.7-3,6.8-6.8,6.8
							c-3.4,0-6.2-2.8-6.2-6.2c0-3.1,2.5-5.6,5.6-5.6c2.8,0,5.1,2.3,5.1,5.1c0,2.6-2.1,4.6-4.6,4.6c-2.3,0-4.2-1.9-4.2-4.2
							c0-0.3,0.2-0.5,0.5-0.5c0.3,0,0.5,0.2,0.5,0.5c0,1.8,1.5,3.2,3.2,3.2c2,0,3.7-1.6,3.7-3.7c0-2.3-1.8-4.1-4.1-4.1
							c-2.6,0-4.6,2.1-4.6,4.6c0,2.9,2.3,5.2,5.2,5.2c3.2,0,5.8-2.6,5.8-5.8c0-3.6-2.9-6.5-6.5-6.5c-4,0-7.3,3.3-7.3,7.3
							c0,4.5,3.7,8.2,8.2,8.2c5,0,9.1-4.1,9.1-9.1c0-5.6-4.6-10.2-10.2-10.2c-0.3,0-0.5-0.2-0.5-0.5c0-0.3,0.2-0.5,0.5-0.5
							c6.2,0,11.2,5,11.2,11.2C27.6,24.1,23.1,28.6,17.5,28.6z"/>
					</g>
				</g>
			</g>
		</g>
	</g>
</g>
</svg>
