<?xml version="1.0" encoding="utf-8"?>
<!-- Generator: Adobe Illustrator 18.0.0, SVG Export Plug-In . SVG Version: 6.00 Build 0)  -->
<!DOCTYPE svg PUBLIC "-//W3C//DTD SVG 1.1//EN" "http://www.w3.org/Graphics/SVG/1.1/DTD/svg11.dtd">
<svg version="1.1" id="Layer_1" xmlns="http://www.w3.org/2000/svg" xmlns:xlink="http://www.w3.org/1999/xlink" x="0px" y="0px"
	 viewBox="0 0 36 36" enable-background="new 0 0 36 36" xml:space="preserve">
<g>
	<g>
		<g>
			<g>
				<g>
					<g>
						<g>
							<g>
								<g>
									<g>
										<g>
											<g>
												<g>
													<path fill="#E24C4B" d="M31.7,31.4H4.3c-1.8,0-2.9-2-1.9-3.5L16.1,5.7c0.9-1.5,3-1.5,3.9,0l13.7,22.2
														C34.6,29.4,33.5,31.4,31.7,31.4z"/>
												</g>
											</g>
										</g>
									</g>
								</g>
								<g>
									<g>
										<g>
											<g>
												<g>
													<polygon fill="#FFFFFF" points="5.4,28.4 18,8.1 30.6,28.4 													"/>
												</g>
											</g>
										</g>
									</g>
								</g>
							</g>
						</g>
					</g>
				</g>
			</g>
		</g>
	</g>
	<g>
		<g>
			<g>
				<g>
					<g>
						<g>
							<path fill="#3F4448" d="M15,28.4V18.2c0-0.3-0.2-0.5-0.5-0.5c-0.3,0-0.5,0.2-0.5,0.5v10.2H15z"/>
						</g>
					</g>
				</g>
			</g>
		</g>
		<g>
			<g>
				<g>
					<g>
						<g>
							<g>
								<g>
									<path fill="#3F4448" d="M22.8,20.8l-2.1-0.5c0.6,1.5,0.6,3.1,0,4.7l2.1-0.5C23.3,23.2,23.4,22,22.8,20.8z"/>
								</g>
							</g>
						</g>
					</g>
				</g>
				<g>
					<g>
						<g>
							<g>
								<g>
									<path fill="#3F4448" d="M19.7,20l-2.5-0.6c-0.2-0.1-0.4,0.2-0.3,0.4c0.8,1.7,0.8,3.6,0,5.7c-0.1,0.2,0.1,0.5,0.3,0.4
										l2.5-0.6C20.5,23.4,20.5,21.7,19.7,20z"/>
								</g>
							</g>
						</g>
					</g>
				</g>
				<g>
					<g>
						<g>
							<g>
								<g>
									<path fill="#3F4448" d="M25.7,21.8c-0.1-0.2-0.3-0.4-0.5-0.5L23.8,21c0.3,1,0.3,2.1,0,3.2l1.4-0.3c0.2-0.1,0.4-0.2,0.5-0.4
										C25.8,22.9,25.8,22.3,25.7,21.8z"/>
								</g>
							</g>
						</g>
					</g>
				</g>
			</g>
			<g>
				<g>
					<g>
						<g>
							<g>
								<g>
									<path fill="#3F4448" d="M17.4,25.3l-3-2.5c-0.1,0-0.1-0.1-0.1-0.2s0-0.1,0.1-0.2l3-2.5c0.1-0.1,0.2-0.1,0.3,0
										c0.1,0.1,0.1,0.2,0,0.3l-2.8,2.3l2.8,2.3c0.1,0.1,0.1,0.2,0,0.3C17.6,25.4,17.5,25.4,17.4,25.3z"/>
								</g>
							</g>
						</g>
					</g>
				</g>
			</g>
		</g>
	</g>
</g>
</svg>
