<?xml version="1.0" encoding="utf-8"?>
<!-- Generator: Adobe Illustrator 18.0.0, SVG Export Plug-In . SVG Version: 6.00 Build 0)  -->
<!DOCTYPE svg PUBLIC "-//W3C//DTD SVG 1.1//EN" "http://www.w3.org/Graphics/SVG/1.1/DTD/svg11.dtd">
<svg version="1.1" id="Layer_1" xmlns="http://www.w3.org/2000/svg" xmlns:xlink="http://www.w3.org/1999/xlink" x="0px" y="0px"
	 viewBox="0 0 36 36" enable-background="new 0 0 36 36" xml:space="preserve">
<g>
	<g>
		<g>
			<g>
				<g>
					<g>
						<g>
							
								<ellipse transform="matrix(-4.344423e-004 1 -1 -4.344423e-004 36.0078 7.852178e-003)" fill="#E24C4B" cx="18" cy="18" rx="16" ry="16"/>
						</g>
					</g>
				</g>
			</g>
		</g>
		<g>
			<g>
				<g>
					<g>
						<path fill="#FFFFFF" d="M18,31c-7.2,0-13-5.8-13-13c0-7.2,5.8-13,13-13c7.2,0,13,5.8,13,13C31,25.2,25.2,31,18,31z"/>
					</g>
				</g>
			</g>
		</g>
	</g>
	<g>
		<g>
			<g>
				<g>
					<g>
						<g>
							<path fill="#3F4448" d="M23.7,22.7c-0.6,2.5-2.9,4.4-5.6,4.4c-4.7,0-6.9-5.4-5.5-9.9c0.2,0.7,0.5,1.4,0.7,2.1
								c-0.2-1.6,1-2.6,0.7-4.9c0.7,0.3,1,2,1.5,2c-0.3-0.5-0.1-1.3,0.3-1.8c0.4-0.5,1-0.8,1.4-1.3c1.2-1.2,1-3.7,0.2-5.2
								c1.8,0.9,2.9,3.1,2.5,5.1c-0.2,1-0.6,2.3,0.4,2.7c-0.5-1.1,1.7-2.2,0.8-3.3c1.5,1.6,0,3.9,0.5,5.9l1-1.2
								C22.4,20.1,24,20.3,23.7,22.7z"/>
						</g>
					</g>
				</g>
			</g>
		</g>
		<g>
			<g>
				<g>
					<g>
						<g>
							<path fill="#FFFFFF" d="M15.6,25.6c-0.6-1-0.7-2.2-0.5-3.4c0,0.6,0.5,1.1,1.1,1.1c-0.6-1.2-0.6-2.7,0-4
								c0.4,0.4,0.7,1.1,0.7,1.7c0.7-0.9-0.9-3.2,1.3-5.2c-0.4,1.2-0.2,2.5,0.5,3.6c0.3,0.4,0.6,0.7,0.8,1.2c0.2,0.4,0.2,1-0.2,1.3
								c0.3-0.3,0.6-0.6,0.9-0.9c0.1,0.6,0.1,1.3,0.1,1.9c0,0.6,0.1,1.2-0.3,1.7c0.3-0.4,0.6-0.7,0.9-1.1
								C21.2,26.1,17.5,29,15.6,25.6z"/>
						</g>
					</g>
				</g>
			</g>
		</g>
	</g>
</g>
</svg>
