<?xml version="1.0" encoding="utf-8"?>
<!-- Generator: Adobe Illustrator 18.0.0, SVG Export Plug-In . SVG Version: 6.00 Build 0)  -->
<!DOCTYPE svg PUBLIC "-//W3C//DTD SVG 1.1//EN" "http://www.w3.org/Graphics/SVG/1.1/DTD/svg11.dtd">
<svg version="1.1" id="Layer_1" xmlns="http://www.w3.org/2000/svg" xmlns:xlink="http://www.w3.org/1999/xlink" x="0px" y="0px"
	 viewBox="0 0 36 36" enable-background="new 0 0 36 36" xml:space="preserve">
<g>
	<g>
		<g>
			<g>
				<g>
					<g>
						<g>
							<g>
								
									<ellipse transform="matrix(-4.344423e-004 1 -1 -4.344423e-004 36.0077 7.899862e-003)" fill="#E24C4B" cx="18" cy="18" rx="16" ry="16"/>
							</g>
						</g>
					</g>
				</g>
			</g>
			<g>
				<g>
					<g>
						<g>
							<path fill="#FFFFFF" d="M18,31c-7.2,0-13-5.8-13-13c0-7.2,5.8-13,13-13c7.2,0,13,5.8,13,13C31,25.2,25.2,31,18,31z"/>
						</g>
					</g>
				</g>
			</g>
		</g>
	</g>
	<g>
		<g>
			<g>
				<g>
					<g>
						<g>
							<g>
								<g>
									<path fill="#3F4448" d="M21.4,11c-2.2-0.8-4.6-0.8-6.8,0c-0.8,0.3-1.3,1-1.3,1.8v13c0,0.8,0.5,1.6,1.3,1.8
										c2.2,0.8,4.6,0.8,6.8,0c0.8-0.3,1.3-1,1.3-1.8v-13C22.7,12,22.2,11.3,21.4,11z M16.8,12.1h2.4c0.2,0,0.3,0.1,0.3,0.3
										c0,0.2-0.1,0.3-0.3,0.3h-2.4c-0.2,0-0.3-0.1-0.3-0.3C16.5,12.2,16.6,12.1,16.8,12.1z M21.7,25.9c0,0.4-0.2,0.8-0.6,0.9
										c-1,0.4-2,0.5-3.1,0.5c-1,0-2.1-0.2-3.1-0.5c-0.4-0.1-0.6-0.5-0.6-0.9v-6.5c2.5,0.5,4.9,0.4,7.3,0V25.9z M21.7,18.1
										c-2.5,0.6-4.9,0.6-7.3,0v-3.3h7.3V18.1z"/>
								</g>
							</g>
						</g>
					</g>
				</g>
				<g>
					<g>
						<g>
							<g>
								<g>
									<g>
										<g>
											<g>
												<path fill="#3F4448" d="M14.2,20.7v0.7c1.3,0.3,2.6,0.4,3.9,0.4c1.3,0,2.6-0.2,3.9-0.4v-0.7
													C19.4,21.3,16.7,21.3,14.2,20.7z"/>
											</g>
										</g>
									</g>
								</g>
							</g>
						</g>
						<g>
							<g>
								<g>
									<g>
										<g>
											<g>
												<path fill="#3F4448" d="M14.2,22.8v0.7c1.3,0.2,2.6,0.4,3.9,0.4c1.3,0,2.6-0.2,3.9-0.4v-0.7
													C19.4,23.3,16.7,23.3,14.2,22.8z"/>
											</g>
										</g>
									</g>
								</g>
							</g>
						</g>
						<g>
							<g>
								<g>
									<g>
										<g>
											<g>
												<path fill="#3F4448" d="M14.2,24.9v0.7c1.3,0.2,2.6,0.3,3.9,0.3c1.3,0,2.6-0.1,3.9-0.3v-0.7
													C19.4,25.3,16.7,25.3,14.2,24.9z"/>
											</g>
										</g>
									</g>
								</g>
							</g>
						</g>
					</g>
					<g>
						<g>
							<g>
								<g>
									<g>
										<g>
											<rect x="16.4" y="18.7" fill="#3F4448" width="0.7" height="8.9"/>
										</g>
									</g>
								</g>
							</g>
						</g>
						<g>
							<g>
								<g>
									<g>
										<g>
											<rect x="19" y="18.7" fill="#3F4448" width="0.7" height="8.9"/>
										</g>
									</g>
								</g>
							</g>
						</g>
					</g>
				</g>
			</g>
			<g>
				<g>
					<g>
						<g>
							<g>
								<path fill="#3F4448" d="M21.7,12.5V8.2c0-0.3-0.3-0.6-0.6-0.6c-0.3,0-0.6,0.2-0.6,0.6v4.3H21.7z"/>
							</g>
						</g>
					</g>
				</g>
			</g>
		</g>
	</g>
	<g>
		<g>
			<g>
				<g>
					<g>
						<polygon fill="#E24C4B" points="28.9,26.8 26.8,28.9 7,9.2 9.2,7 						"/>
					</g>
				</g>
			</g>
		</g>
	</g>
</g>
</svg>
