<?xml version="1.0" encoding="utf-8"?>
<!-- Generator: Adobe Illustrator 18.0.0, SVG Export Plug-In . SVG Version: 6.00 Build 0)  -->
<!DOCTYPE svg PUBLIC "-//W3C//DTD SVG 1.1//EN" "http://www.w3.org/Graphics/SVG/1.1/DTD/svg11.dtd">
<svg version="1.1" id="Layer_1" xmlns="http://www.w3.org/2000/svg" xmlns:xlink="http://www.w3.org/1999/xlink" x="0px" y="0px"
	 viewBox="0 0 36 36" enable-background="new 0 0 36 36" xml:space="preserve">
<g>
	<g>
		<g>
			<g>
				<g>
					
						<ellipse transform="matrix(-4.344423e-004 1 -1 -4.344423e-004 36.0077 7.897954e-003)" fill="#E24C4B" cx="18" cy="18" rx="16" ry="16"/>
				</g>
			</g>
		</g>
	</g>
	<g>
		<g>
			<g>
				<g>
					<path fill="#FFFFFF" d="M18,31c-7.2,0-13-5.8-13-13c0-7.2,5.8-13,13-13c7.2,0,13,5.8,13,13C31,25.2,25.2,31,18,31z"/>
				</g>
			</g>
		</g>
	</g>
	<g>
		<g>
			<g>
				<g>
					<path fill="#3F4448" d="M16.4,26.4c-0.3,1.4-1.6,2.5-3.2,2.5c-2.7,0-4-3.1-3.1-5.7c0.1,0.4,0.3,0.8,0.4,1.2
						c-0.1-0.9,0.6-1.5,0.4-2.8c0.4,0.2,0.6,1.2,0.9,1.1c-0.2-0.3-0.1-0.7,0.2-1c0.2-0.3,0.6-0.5,0.8-0.7c0.7-0.7,0.5-2.1,0.1-2.9
						c1,0.5,1.6,1.8,1.5,2.9c-0.1,0.6-0.4,1.3,0.2,1.5c-0.3-0.6,1-1.3,0.5-1.9c0.8,0.9,0,2.2,0.3,3.4l0.6-0.7
						C15.6,24.9,16.5,25,16.4,26.4z"/>
				</g>
			</g>
		</g>
	</g>
	<g>
		<g>
			<g>
				<g>
					<path fill="#FFFFFF" d="M11.8,28c-0.3-0.6-0.4-1.3-0.3-1.9c0,0.3,0.3,0.6,0.6,0.6c-0.3-0.7-0.3-1.6,0-2.3
						c0.2,0.3,0.4,0.6,0.4,1c0.4-0.5-0.5-1.8,0.7-2.9c-0.2,0.7-0.1,1.4,0.3,2c0.1,0.2,0.3,0.4,0.5,0.7c0.1,0.2,0.1,0.6-0.1,0.7
						c0.2-0.2,0.4-0.3,0.5-0.5c0,0.4,0.1,0.7,0.1,1.1c0,0.3,0,0.7-0.2,1c0.2-0.2,0.4-0.4,0.5-0.6C15,28.3,12.9,30,11.8,28z"/>
				</g>
			</g>
		</g>
	</g>
	<g>
		<g>
			<g>
				<g>
					<path fill="#DAE5EE" d="M20.1,13.3c-1.1,0.4-2.3,0.9-2.9,1.9c-0.5,0.8-0.6,1.7-0.6,2.6c0,0.7,0.2,1.5-0.1,1.6
						c-0.5,0.2-0.3-0.8-0.1-2.1c0-0.1,0-0.3-0.2-0.4c-0.1,0-0.3,0.1-0.3,0.2c0,0.1,0,0.3,0,0.4s0,0.3-0.1,0.4c-0.2,0.1-0.4,0-0.6,0
						c-0.2,0-0.4,0.3-0.5,0.5c-0.1,0.2-0.1,0.5-0.3,0.6c-0.1,0.2-0.4,0.3-0.6,0.1c-0.2-0.2-0.1-0.5,0-0.8c0.3-0.8,0.7-1.6,1-2.4
						c-0.3,0.3-0.7,0.6-1,1c-0.6,0.6-1.3,1.5-1.7,1.1c-0.1-0.2-0.1-0.4,0-0.6c0.1-0.2,0.3-0.3,0.4-0.5c0.4-0.5,0.4-1.2,0.2-1.7
						c-0.3,0.3-0.5,0.6-0.7,0.4c-0.1-0.2,0-0.4,0.1-0.5c0.1-0.1,0.3-0.2,0.4-0.4c0.7-0.5,1.1-1.4,1.7-2.1c0.9-1,2.2-1.5,3.5-1.3
						c1.3,0.2,2.5,1,3.1,2.1"/>
				</g>
			</g>
		</g>
	</g>
	<g>
		<g>
			<g>
				<g>
					<polygon fill="#E24C4B" points="28.9,26.8 26.8,28.9 7,9.2 9.2,7 					"/>
				</g>
			</g>
		</g>
	</g>
	<g>
		<g>
			<g>
				<g>
					<path fill="#3F4448" d="M22.2,7.1c0.2,0.1,0.3,0.3,0.2,0.5l0,0.1l4.8,3.5c0.3,0.2,0.3,0.5,0.2,0.8l-1.6,3.7
						c-0.1,0.3-0.4,0.4-0.7,0.4l-5.8-1l0,0.1c-0.1,0.2-0.3,0.3-0.5,0.2c-0.2-0.1-0.3-0.3-0.2-0.5l3.2-7.5C21.8,7.1,22,7,22.2,7.1z"
						/>
				</g>
			</g>
		</g>
	</g>
</g>
</svg>
