<?xml version="1.0" encoding="utf-8"?>
<!-- Generator: Adobe Illustrator 18.0.0, SVG Export Plug-In . SVG Version: 6.00 Build 0)  -->
<!DOCTYPE svg PUBLIC "-//W3C//DTD SVG 1.1//EN" "http://www.w3.org/Graphics/SVG/1.1/DTD/svg11.dtd">
<svg version="1.1" id="Layer_1" xmlns="http://www.w3.org/2000/svg" xmlns:xlink="http://www.w3.org/1999/xlink" x="0px" y="0px"
	 viewBox="0 0 36 36" enable-background="new 0 0 36 36" xml:space="preserve">
<g>
	<g>
		<g>
			<g>
				<g>
					<polygon fill="#E08826" points="23.1,30.2 19.9,30.3 16,28 18.2,32.2 32.9,33.3 32.9,31.1 					"/>
				</g>
			</g>
		</g>
	</g>
	<g>
		<g>
			<g>
				<g>
					<g>
						<path fill="#F29A2F" d="M33.4,21.1c0-6.4-5.2-11.6-11.6-11.6c-6.4,0-11.6,5.2-11.6,11.6c0,6.4,5.2,11.6,11.6,11.6
							C28.2,32.8,33.4,27.6,33.4,21.1z M14.3,21.1c0-4.1,3.3-7.4,7.4-7.4c4.1,0,7.4,3.3,7.4,7.4c0,4.1-3.3,7.4-7.4,7.4
							C17.6,28.5,14.3,25.2,14.3,21.1z"/>
					</g>
				</g>
			</g>
		</g>
	</g>
	<g>
		<g>
			<g>
				<g>
					<g>
						<path fill="#E08826" d="M14.7,16.4c0-0.6,0-1.2,0-1.7c0-0.8-0.1-1.6-0.2-2.5c0-0.1,0-0.1,0-0.2c-2.7,2.1-4.4,5.4-4.4,9.1h4.2
							c0-0.9,0.2-1.8,0.5-2.6C14.8,17.9,14.7,17.1,14.7,16.4z"/>
					</g>
				</g>
			</g>
		</g>
	</g>
	<g>
		<g>
			<g>
				<g>
					<path fill="#F29A2F" d="M33.2,34L33.2,34c-0.5,0-0.8-0.4-0.8-0.8v-1.9c0-0.5,0.4-0.8,0.8-0.8l0,0c0.5,0,0.8,0.4,0.8,0.8v1.9
						C34,33.6,33.6,34,33.2,34z"/>
				</g>
			</g>
		</g>
	</g>
	<g>
		<g>
			<g>
				<g>
					<path fill="#F29A2F" d="M16,28l-2.2-4.3l0.5-2.5c-0.4-2-0.3-4.3-0.4-6.4c0-0.8-0.1-1.6-0.2-2.4c-0.4-3,5.3-6.4,5.4-6.4L2,3.8
						C6.1,8,7.2,14.2,7.5,17.6c0.2,2.2,0.8,4.4,1.8,6.4c3.8,7.2,8.8,8.3,8.8,8.3L16,28z"/>
				</g>
			</g>
		</g>
	</g>
	<g>
		<g>
			<g>
				<g>
					<path fill="#E08826" d="M19.1,5.9c0,1.5-3.8,2.2-8.6,1.6C5.8,6.9,2,5.2,2,3.8c0-1.5,3.8-2.2,8.6-1.6
						C15.3,2.8,19.1,4.5,19.1,5.9z"/>
				</g>
			</g>
		</g>
	</g>
</g>
</svg>
