<?xml version="1.0" encoding="utf-8"?>
<!-- Generator: Adobe Illustrator 18.0.0, SVG Export Plug-In . SVG Version: 6.00 Build 0)  -->
<!DOCTYPE svg PUBLIC "-//W3C//DTD SVG 1.1//EN" "http://www.w3.org/Graphics/SVG/1.1/DTD/svg11.dtd">
<svg version="1.1" id="Layer_1" xmlns="http://www.w3.org/2000/svg" xmlns:xlink="http://www.w3.org/1999/xlink" x="0px" y="0px"
	 viewBox="0 0 36 36" enable-background="new 0 0 36 36" xml:space="preserve">
<g>
	<g>
		<g>
			<g>
				<g>
					<g>
						<g>
							<g>
								<path fill="#E24C4B" d="M31.7,31.4H4.3c-1.8,0-2.9-2-1.9-3.5L16.1,5.7c0.9-1.5,3-1.5,3.9,0l13.7,22.2
									C34.6,29.4,33.5,31.4,31.7,31.4z"/>
							</g>
						</g>
					</g>
				</g>
			</g>
			<g>
				<g>
					<g>
						<g>
							<g>
								<polygon fill="#FFFFFF" points="5.4,28.4 18,8.1 30.6,28.4 								"/>
							</g>
						</g>
					</g>
				</g>
			</g>
		</g>
	</g>
	<g>
		<g>
			<g>
				<g>
					<path fill="#3F4448" d="M19.4,25.1c0,0.8-0.6,1.4-1.4,1.4c-0.8,0-1.4-0.6-1.4-1.4s0.6-1.4,1.4-1.4
						C18.8,23.6,19.4,24.3,19.4,25.1z"/>
				</g>
			</g>
		</g>
	</g>
	<g>
		<g>
			<g>
				<g>
					<path fill="#3F4448" d="M19.3,21.4l0.7-5c0.2-1.2-0.8-2.3-2-2.3h0c-1.2,0-2.2,1.1-2,2.3l0.7,5c0.1,0.6,0.6,1.1,1.3,1.1l0,0
						C18.7,22.6,19.2,22.1,19.3,21.4z"/>
				</g>
			</g>
		</g>
	</g>
</g>
</svg>
