<?xml version="1.0" encoding="utf-8"?>
<!-- Generator: Adobe Illustrator 18.0.0, SVG Export Plug-In . SVG Version: 6.00 Build 0)  -->
<!DOCTYPE svg PUBLIC "-//W3C//DTD SVG 1.1//EN" "http://www.w3.org/Graphics/SVG/1.1/DTD/svg11.dtd">
<svg version="1.1" id="Layer_1" xmlns="http://www.w3.org/2000/svg" xmlns:xlink="http://www.w3.org/1999/xlink" x="0px" y="0px"
	 viewBox="0 0 36 36" enable-background="new 0 0 36 36" xml:space="preserve">
<g>
	<g>
		<g>
			<g>
				<g>
					<g>
						<path fill="#D1403F" d="M30.6,34H5.4C3.5,34,2,32.5,2,30.6V5.4C2,3.5,3.5,2,5.4,2h25.2C32.5,2,34,3.5,34,5.4v25.2
							C34,32.5,32.5,34,30.6,34z"/>
					</g>
				</g>
			</g>
		</g>
		<g>
			<g>
				<g>
					<g>
						<path fill="#E24C4B" d="M27.8,2c-1.2,5.2-4.3,10.8-9.1,15.5C13.6,22.7,7.5,25.9,2,26.9V5.4C2,3.5,3.5,2,5.4,2H27.8z"/>
					</g>
				</g>
			</g>
		</g>
	</g>
	<g>
		<g>
			<g>
				<g>
					<g>
						<g>
							<polygon fill="#FED93D" points="14.2,16.9 13.1,17.9 14.2,19 15.3,17.9 							"/>
						</g>
					</g>
				</g>
			</g>
		</g>
		<g>
			<g>
				<g>
					<g>
						<g>
							<polygon fill="#4DC7E6" points="12.3,18.6 11.1,19.8 12.3,20.9 13.6,19.8 							"/>
						</g>
					</g>
				</g>
			</g>
		</g>
		<g>
			<g>
				<g>
					<g>
						<g>
							<g>
								<g>
									<path fill="#FFFFFF" d="M26.2,11c1.3,0,2.4,1.1,2.4,2.4v6.5c0,0.4-0.4,0.8-0.8,0.8S27,20.4,27,19.9v-6.6
										c0-0.2-0.2-0.4-0.4-0.4c0,0,0,0,0,0c-0.2,0-0.3,0.1-0.3,0.3v15.9c0,0.6-0.5,1-1,1l0,0c-0.6,0-1-0.5-1-1v-6.9h-1.6v6.9
										c0,0.6-0.5,1-1,1l0,0c-0.6,0-1-0.5-1-1V13.7l-1.5,1.9c-0.1,0.1-0.3,0.2-0.4,0.3l-3.3,0.7c-0.1,0-0.1,0-0.2,0
										c-0.4,0-0.7-0.3-0.8-0.6c-0.1-0.4,0.2-0.9,0.6-1l3-0.7l1.9-2.5c0.5-0.6,1.2-1,1.9-1H26.2z"/>
								</g>
							</g>
						</g>
					</g>
				</g>
			</g>
			<g>
				<g>
					<g>
						<g>
							<circle fill="#FFFFFF" cx="23.8" cy="7.9" r="2.1"/>
						</g>
					</g>
				</g>
			</g>
		</g>
		<g>
			<g>
				<g>
					<g>
						<path fill="#DFE4E9" d="M14.5,30.2h-4.4c-0.4,0-0.7-0.3-0.8-0.6l-1.3-8.7h8.5l-1.3,8.7C15.2,30,14.9,30.2,14.5,30.2z"/>
					</g>
				</g>
			</g>
		</g>
		<g>
			<g>
				<g>
					<g>
						<path fill="#E9EFF4" d="M16.8,21.1H7.9c-0.3,0-0.6-0.3-0.6-0.6l0,0c0-0.3,0.3-0.6,0.6-0.6h8.8c0.3,0,0.6,0.3,0.6,0.6l0,0
							C17.3,20.9,17.1,21.1,16.8,21.1z"/>
					</g>
				</g>
			</g>
		</g>
		<g>
			<g>
				<g>
					<g>
						<path fill="#D3D9DD" d="M16.5,21.8l-0.9,0.9l-1.2-1.2l0.6-0.6h-1.1l0,0l0,0h-1.1l0.6,0.6L12,22.7l-1.2-1.2l0.6-0.6h-1.1l0,0
							l0,0H9.2l0.6,0.6l-1.2,1.2l-0.3-0.3l0.1,0.5v0l0.1,0.8l0,0.1l0.1,0L9.8,25l-0.9,0.9l0.1,0.6l0,0.3l0.2,1v0l0.6,0.6l-0.5,0.5
							l0.1,0.7c0,0.1,0,0.2,0.1,0.3l0.8-0.8l1.2,1.2l0,0h0h1h0.1l0,0l1.2-1.2l1.1,1.1c0.2-0.1,0.3-0.3,0.4-0.5l0-0.2l-1-1l1.2-1.2
							l0.1,0.1l0-0.2l0.1-0.7l0.1-0.6l-0.3,0.3L14.3,25l1.2-1.2l0.6,0.6l0.1-0.9l-0.2-0.2l0.2-0.2L16.5,21.8z M9.1,23.2l1.2-1.2
							l1.2,1.2l-1.2,1.2L9.1,23.2z M12,23.8l1.2,1.2L12,26.2L10.8,25L12,23.8z M9.1,26.7l1.2-1.2l1.2,1.2l-1.2,1.2L9.1,26.7z
							 M12,29.7l-1.2-1.2l1.2-1.2l1.2,1.2L12,29.7z M15,26.7l-1.2,1.2l-1.2-1.2l1.2-1.2L15,26.7z M13.8,24.5l-1.2-1.2l1.2-1.2
							l1.2,1.2L13.8,24.5z"/>
					</g>
				</g>
			</g>
		</g>
	</g>
</g>
</svg>
