<?xml version="1.0" encoding="utf-8"?>
<!-- Generator: Adobe Illustrator 18.0.0, SVG Export Plug-In . SVG Version: 6.00 Build 0)  -->
<!DOCTYPE svg PUBLIC "-//W3C//DTD SVG 1.1//EN" "http://www.w3.org/Graphics/SVG/1.1/DTD/svg11.dtd">
<svg version="1.1" id="Layer_1" xmlns="http://www.w3.org/2000/svg" xmlns:xlink="http://www.w3.org/1999/xlink" x="0px" y="0px"
	 viewBox="0 0 36 36" enable-background="new 0 0 36 36" xml:space="preserve">
<g>
	<g>
		<g>
			<g>
				<g>
					<g>
						<g>
							<g>
								<g>
									<g>
										<g>
											<g>
												<g>
													<path fill="#E24C4B" d="M31.7,31.4H4.3c-1.8,0-2.9-2-1.9-3.5L16.1,5.7c0.9-1.5,3-1.5,3.9,0l13.7,22.2
														C34.6,29.4,33.5,31.4,31.7,31.4z"/>
												</g>
											</g>
										</g>
									</g>
								</g>
								<g>
									<g>
										<g>
											<g>
												<g>
													<polygon fill="#FFFFFF" points="5.4,28.4 18,8.1 30.6,28.4 													"/>
												</g>
											</g>
										</g>
									</g>
								</g>
								<g>
									<g>
										<g>
											<g>
												<g>
													<polygon fill="#FFFFFF" points="5.4,28.4 18,8.1 30.6,28.4 													"/>
												</g>
											</g>
										</g>
									</g>
								</g>
							</g>
						</g>
					</g>
				</g>
			</g>
		</g>
	</g>
	<g>
		<g>
			<g>
				<g>
					<g>
						<path fill="#3F4448" d="M22.2,27.3c-0.1-0.6-0.5-0.9-0.6-1.3c-0.2-0.5,0.4-0.9,0.4-0.9c0.5-0.2,0.7-0.5,0.8-0.8
							c0.2-0.2,0.3-0.4,0.4-0.8c0.1-0.6-0.7-1.5-1.7-2c-0.9-0.5-2.6-1.7-3.4-1.9c-0.7-0.2-1.2-1.2-1.2-1.6c0-0.4,0.1-0.7-0.3-1
							c0,0,0,0,0,0c0.1,0,0.2-0.1,0.5-0.2c0.5-0.1,0.9-0.2,1.1-0.6c0.2-0.4,0-0.9-0.2-1.1c0,0.1,0.1,0.6,0.1,0.8
							c0,0-0.2-0.2-0.3-0.6c-0.1-0.3,0-0.6,0-0.6s-0.2,0.3-0.2,0.6c0,0.3,0.3,0.6,0.3,0.6s-0.2,0-0.4-0.1c0,0,0.1,0.2,0.3,0.3
							c0,0-0.2,0.4-0.7,0.4c-0.5,0.1-0.7-0.3-0.8-0.3c0,0,0,0-0.1-0.1c0-0.1-0.1-0.5,0.1-0.6c-0.1,0-0.3,0.2-0.3,0.6
							c0,0-0.2-0.1-0.2-0.3c-0.1-0.3,0.1-0.6,0.1-0.6s-0.4,0.6,0,1.1c0.3,0.4,0,0.5-0.2,0.6c0,0-0.1,0-0.1,0c-0.4,0-1.1,0.2-1.3,0.3
							c-0.2,0-0.2,0.3,0,0.4c0,0-0.1,0,0,0.1c0.1,0.1,0.7,0.3,0.9,0.5c0.2,0.2,0.2,0.2,0.2,0.5c0,0.3,0,1.1,0.3,1.6
							c0.2,0.4,0.1,0.9,0.2,1.3c-1.4,0.4-1,0.3-2.2,1.8l0,0.6c0.5,0,0.4-0.4,0.4-0.4c0.1,0,0.1-0.1,0.1-0.1c0.5-0.7,0.8-1.5,1.5-1.2
							c0.2,0.1,0.5,0.1,0.7,0.1c-0.3,0.5-0.7,1.3-0.6,1.6c0.1,0.3,0.3,1.6,0.3,1.6l0.4,0.4c0.3-0.3,0-0.5,0-0.5c0.1,0,0-0.1,0-0.1
							s-0.2-0.8-0.3-1.1c-0.1-0.3-0.1-0.6,0.4-0.9c0.3-0.2,0.6-0.4,0.8-0.6c1,0.5,0.9,1,1.9,1.2c0.3,0,0.3,0,0.5,0.1
							c0.1,0.2,0.2,0.4,0.3,0.8c0.1,0.5,0.3,0.9,0.5,1.2c-0.1,0.8-0.1,1.8-0.1,2.4h0.4c0-0.6,0.2-1.3,0.3-1.7
							c0.2,0.2,0.3,0.3,0.3,0.4c0.1,0.7,0,1,0.1,1.3h0.4C22.2,28.2,22.3,27.7,22.2,27.3z"/>
					</g>
				</g>
			</g>
		</g>
	</g>
</g>
</svg>
