<?xml version="1.0" encoding="utf-8"?>
<!-- Generator: Adobe Illustrator 18.0.0, SVG Export Plug-In . SVG Version: 6.00 Build 0)  -->
<!DOCTYPE svg PUBLIC "-//W3C//DTD SVG 1.1//EN" "http://www.w3.org/Graphics/SVG/1.1/DTD/svg11.dtd">
<svg version="1.1" id="Layer_1" xmlns="http://www.w3.org/2000/svg" xmlns:xlink="http://www.w3.org/1999/xlink" x="0px" y="0px"
	 viewBox="0 0 36 36" enable-background="new 0 0 36 36" xml:space="preserve">
<g>
	<g>
		<g>
			<g>
				<g>
					<g>
						<g>
							<g>
								<g>
									<g>
										<g>
											<g>
												<g>
													<g>
														<path fill="#E24C4B" d="M31.7,31.4H4.3c-1.8,0-2.9-2-1.9-3.5L16.1,5.7c0.9-1.5,3-1.5,3.9,0l13.7,22.2
															C34.6,29.4,33.5,31.4,31.7,31.4z"/>
													</g>
												</g>
											</g>
										</g>
									</g>
									<g>
										<g>
											<g>
												<g>
													<g>
														<polygon fill="#FFFFFF" points="5.4,28.4 18,8.1 30.6,28.4 														"/>
													</g>
												</g>
											</g>
										</g>
									</g>
									<g>
										<g>
											<g>
												<g>
													<g>
														<polygon fill="#FFFFFF" points="5.4,28.4 18,8.1 30.6,28.4 														"/>
													</g>
												</g>
											</g>
										</g>
									</g>
								</g>
							</g>
						</g>
					</g>
				</g>
			</g>
		</g>
	</g>
	<g>
		<g>
			<g>
				<g>
					<g>
						<path fill="#3F4448" d="M24,20.1c-0.3-0.4-1-0.7-1.8-0.6c-0.8,0.1-2.5,0.3-4.2,0.2c-1.6-0.2-1.6-0.1-2,0c-0.4,0.1-1.1,0-1.5,0
							c-0.2,0-0.3-0.1-0.4-0.2c0,0,0.1,0,0.1-0.1c0.2-0.2,0.3-0.5,0.4-0.8c-0.2,0.2-0.4,0.4-0.6,0.5c0,0-0.1,0-0.1,0.1
							c-0.2-0.2-0.5,0-0.5,0s0,0,0,0c0,0,0,0,0-0.1c-0.1-0.2-0.2-0.5-0.2-0.8c-0.2,0.3-0.2,0.6-0.2,0.9c0,0.1,0,0.1,0.1,0.2
							c-0.1,0.1-0.1,0.2-0.2,0.3c-0.2,0.5-0.4,0.3-0.4,0.6c0,0.3,0.2,0.3,0.1,0.6C12.4,21,12,21.3,12,21.6c-0.1,0.3-0.1,0.5,0.2,0.5
							c0.2,0,0.5-0.1,0.7-0.1c0.2,0.1,0.7,0.1,1.1-0.1c0,0,0.3,0.2,0.9,1.2c0.6,1,1.1,1.5,1.7,1.3c0,0,0,1.1,0.1,1.4
							c0.1,0.3-0.1,0.6-0.3,0.9c-0.2,0.3-0.4,0.5-0.4,0.5s0.6,0.2,0.9-0.1c0.1-0.1,0.1-0.1,0.1-0.2c0.2,0,0.5,0,0.6-0.2
							c0.2-0.3,0.1-0.4,0.1-0.4c0-0.1,0.1,0.1,0.1,0c0,0,0-0.3-0.1-0.6c-0.1-0.4,0-1.3,0.1-1.7c0-0.1,0-0.2,0-0.3c0.6,0,1.9,0,2.8,0
							c0,0.2,0,0.6,0.1,0.6c0.2,0,0.2-0.4,0.2-0.4c0.1,0,0.1,0,0.2,0.1c0,0,0,0.3,0.1,0.5c0.1,0.1,0.3-0.1,0.2-0.5
							c0,0,0,0.1,0.2,0.2c0,0.1,0,0.2,0,0.2c0.1,0.4-0.1,1.2-0.2,1.4c-0.2,0.2-0.4,0.7-0.4,0.7s0.5,0.2,0.8-0.2c0,0,0.1,0.1,0.1-0.1
							c0-0.2-0.1-0.7,0.1-1c0.1-0.2,0.3-0.6,0.4-0.9c0,0.1,0,0.2,0.1,0.3c0.2,0.4,0.1,1.2,0,1.4c-0.1,0.2-0.3,0.8-0.3,0.8
							s0.5,0.2,0.8-0.4c0,0,0.1,0.1,0.1-0.1c0-0.2-0.1-0.6,0-1c0.1-0.4,0.3-1,0.2-1.2c-0.1-0.3-0.1-0.8,0.1-1.4
							C23.7,22.2,24.3,20.6,24,20.1z M17.2,26.3c0,0,0-0.1,0-0.1c0-0.2,0-0.6,0.1-1c0,0.1,0,0.2,0.1,0.2
							C17.5,25.7,17.4,26,17.2,26.3z"/>
					</g>
				</g>
			</g>
		</g>
	</g>
</g>
</svg>
