<?xml version="1.0" encoding="utf-8"?>
<!-- Generator: Adobe Illustrator 18.0.0, SVG Export Plug-In . SVG Version: 6.00 Build 0)  -->
<!DOCTYPE svg PUBLIC "-//W3C//DTD SVG 1.1//EN" "http://www.w3.org/Graphics/SVG/1.1/DTD/svg11.dtd">
<svg version="1.1" id="Layer_1" xmlns="http://www.w3.org/2000/svg" xmlns:xlink="http://www.w3.org/1999/xlink" x="0px" y="0px"
	 viewBox="0 0 36 36" enable-background="new 0 0 36 36" xml:space="preserve">
<g>
	<g>
		<g>
			<g>
				<g>
					<g>
						<g>
							<g>
								<g>
									<g>
										<g>
											<path fill="#E24C4B" d="M18,2C9.2,2,2,9.2,2,18s7.2,16,16,16c8.8,0,16-7.2,16-16S26.8,2,18,2z"/>
										</g>
									</g>
								</g>
							</g>
						</g>
					</g>
					<g>
						<g>
							<g>
								<g>
									<g>
										<path fill="#FFFFFF" d="M18,31c-7.2,0-13-5.8-13-13S10.8,5,18,5c7.2,0,13,5.8,13,13S25.2,31,18,31z"/>
									</g>
								</g>
							</g>
						</g>
					</g>
				</g>
			</g>
		</g>
	</g>
	<g>
		<g>
			<g>
				<g>
					<path fill="#3F4448" d="M27.3,11.8l-4.4-2.5c-0.4-0.2-0.9,0.1-0.9,0.6v1.4h-7.8c-2.7,0-4.9,2.2-4.9,4.9v11.5
						c0.7,0.6,1.4,1.2,2.3,1.7V16.1c0-1.5,1.2-2.6,2.7-2.6h2.1v10.1h-1.4c-0.5,0-0.8,0.5-0.5,0.9l2.5,4.4c0.2,0.4,0.9,0.4,1.1,0
						l2.5-4.4c0.2-0.4-0.1-0.9-0.6-0.9h-1.4V13.5h3.4v1.4c0,0.5,0.5,0.8,0.9,0.5l4.4-2.5C27.7,12.6,27.7,12,27.3,11.8z"/>
				</g>
			</g>
		</g>
	</g>
	<g>
		<g>
			<g>
				<g>
					<g>
						<polygon fill="#E24C4B" points="6.1,8.4 8.2,6.3 29.6,27.5 27.4,29.6 						"/>
					</g>
				</g>
			</g>
		</g>
	</g>
</g>
</svg>
