<?xml version="1.0" encoding="utf-8"?>
<!-- Generator: Adobe Illustrator 18.0.0, SVG Export Plug-In . SVG Version: 6.00 Build 0)  -->
<!DOCTYPE svg PUBLIC "-//W3C//DTD SVG 1.1//EN" "http://www.w3.org/Graphics/SVG/1.1/DTD/svg11.dtd">
<svg version="1.1" id="Layer_1" xmlns="http://www.w3.org/2000/svg" xmlns:xlink="http://www.w3.org/1999/xlink" x="0px" y="0px"
	 viewBox="0 0 36 36" enable-background="new 0 0 36 36" xml:space="preserve">
<g>
	<g>
		<g>
			<g>
				<g>
					<path fill="#E24C4B" d="M4.3,31.4h27.4c1.8,0,2.9-2,1.9-3.5L19.9,5.7c-0.9-1.5-3-1.5-3.9,0L2.3,27.9
						C1.4,29.4,2.5,31.4,4.3,31.4z"/>
				</g>
			</g>
		</g>
	</g>
	<g>
		<g>
			<g>
				<g>
					<polygon fill="#FFFFFF" points="30.6,28.4 18,8.1 5.4,28.4 					"/>
				</g>
			</g>
		</g>
	</g>
	<g>
		<g>
			<g>
				<g>
					<polygon fill="#3F4448" points="6.2,27.3 5.4,28.4 30.6,28.4 29.8,27.3 					"/>
				</g>
			</g>
		</g>
	</g>
	<g>
		<g>
			<g>
				<g>
					<g>
						<path fill="#3F4448" d="M16,18.2"/>
					</g>
				</g>
			</g>
		</g>
	</g>
	<g>
		<g>
			<g>
				<g>
					<path fill="#3F4448" d="M16.4,17.8c0.6-0.2,1-0.8,0.8-1.5c-0.2-0.6-0.8-1-1.5-0.8c-0.6,0.2-1,0.8-0.8,1.5
						C15.1,17.6,15.7,18,16.4,17.8z"/>
				</g>
			</g>
		</g>
	</g>
	<g>
		<g>
			<g>
				<g>
					<path fill="#3F4448" d="M23.1,25.5c0-0.1-0.1-0.1-0.2,0c-0.8,0.5-2.1,0.3-2.1,0.3c-0.1,0-0.2,0-0.2,0.1c0,0.1,0,0.2,0.1,0.2
						c0.8,0,1.6,0.2,2.3-0.3C23.1,25.6,23.1,25.5,23.1,25.5z"/>
				</g>
			</g>
		</g>
	</g>
	<g>
		<g>
			<g>
				<g>
					<path fill="#3F4448" d="M22.6,26.6c-1.1,0-1.8-0.4-1.8-0.4c-0.1,0-0.1,0-0.2,0.1c0,0.1,0,0.2,0.1,0.2c0.3,0.1,1,0.4,2,0.4
						c0.1,0,0.1-0.1,0.1-0.1C22.7,26.7,22.6,26.6,22.6,26.6z"/>
				</g>
			</g>
		</g>
	</g>
	<g>
		<g>
			<g>
				<g>
					<path fill="#3F4448" d="M17.6,23.1c0.4,0.1,1.2,0.3,2.7,0.7l1.3,1.4c0.2,0.2,0.5,0.2,0.8,0c0.2-0.2,0.2-0.5,0-0.8L21,23
						c-0.1-0.1-0.2-0.1-0.3-0.2l-1.4-0.4l-1-3.3l1.3,0c0.2,0,0.3-0.1,0.4-0.2l1.4-1.6c0.2-0.2,0.2-0.6-0.1-0.8
						c-0.2-0.2-0.6-0.2-0.8,0.1l-1.2,1.4c-0.1,0-2.4,0.1-2.5,0.1c0,0,0,0,0,0c-0.7,0.1-0.9,0.5-2.8,2.5c-0.1,0.1-0.2,0.3-0.1,0.4
						l0.2,1.5c0,0.3,0.2,0.5,0.5,0.5c0.4,0,0.6-0.3,0.6-0.6l-0.1-1.3l0.6-0.6c0.2,0.5,1.2,3.6,1.3,4l-1,2.1c-0.1,0.3,0,0.6,0.3,0.7
						c0.3,0.1,0.6,0,0.7-0.3l1-2.3c0.1-0.1,0.1-0.3,0-0.4L17.6,23.1z"/>
				</g>
			</g>
		</g>
	</g>
</g>
</svg>
