<?xml version="1.0" encoding="utf-8"?>
<!-- Generator: Adobe Illustrator 18.0.0, SVG Export Plug-In . SVG Version: 6.00 Build 0)  -->
<!DOCTYPE svg PUBLIC "-//W3C//DTD SVG 1.1//EN" "http://www.w3.org/Graphics/SVG/1.1/DTD/svg11.dtd">
<svg version="1.1" id="Layer_1" xmlns="http://www.w3.org/2000/svg" xmlns:xlink="http://www.w3.org/1999/xlink" x="0px" y="0px"
	 viewBox="0 0 36 36" enable-background="new 0 0 36 36" xml:space="preserve">
<g>
	<g>
		<g>
			<g>
				<g>
					<g>
						<path fill="#E24C4B" d="M4.3,31.4h27.4c1.8,0,2.9-2,1.9-3.5L19.9,5.7c-0.9-1.5-3-1.5-3.9,0L2.3,27.9
							C1.4,29.4,2.5,31.4,4.3,31.4z"/>
					</g>
				</g>
			</g>
		</g>
	</g>
	<g>
		<g>
			<g>
				<g>
					<g>
						<polygon fill="#FFFFFF" points="30.6,28.4 18,8.1 5.4,28.4 						"/>
					</g>
				</g>
			</g>
		</g>
	</g>
	<g>
		<g>
			<g>
				<g>
					<ellipse fill="#3F4448" cx="24.1" cy="26.5" rx="3.3" ry="1.4"/>
				</g>
			</g>
		</g>
	</g>
	<g>
		<g>
			<g>
				<g>
					<path fill="#3F4448" d="M17,17.4c0.6,0,1.2-0.5,1.2-1.1c0-0.6-0.5-1.2-1.1-1.2c-0.6,0-1.2,0.5-1.2,1.1
						C15.8,16.8,16.3,17.4,17,17.4z"/>
				</g>
			</g>
		</g>
	</g>
	<g>
		<g>
			<g>
				<g>
					<path fill="#3F4448" d="M16.1,22.9c0.4,0.3,1,0.7,2.3,1.6l1,2.2c0.1,0.3,0.4,0.4,0.7,0.3c0.3-0.1,0.4-0.4,0.3-0.7l-1.1-2.3
						c0-0.1-0.1-0.2-0.2-0.2L18,22.8l0.2-3.4l1.2,0.4c0.1,0.1,0.3,0,0.4,0l1.6-0.9c0.3-0.2,0.3-0.5,0.2-0.7
						c-0.2-0.3-0.5-0.4-0.7-0.2l-1.4,0.7c-0.1,0-2.3-0.8-2.4-0.8c0,0,0,0,0,0c-0.7-0.2-1,0.1-3.5,1.4c-0.1,0.1-0.2,0.2-0.3,0.4
						L13,21.2c-0.1,0.3,0.1,0.5,0.3,0.6c0.4,0.1,0.7-0.1,0.7-0.4l0.3-1.2l0.8-0.4c0,0.5-0.1,4-0.1,4.4l-1.5,1.6
						c-0.2,0.2-0.2,0.6,0,0.8c0.2,0.2,0.6,0.2,0.8,0l1.6-1.8c0.1-0.1,0.2-0.2,0.2-0.4L16.1,22.9z"/>
				</g>
			</g>
		</g>
	</g>
</g>
</svg>
