<?xml version="1.0" encoding="utf-8"?>
<!-- Generator: Adobe Illustrator 18.0.0, SVG Export Plug-In . SVG Version: 6.00 Build 0)  -->
<!DOCTYPE svg PUBLIC "-//W3C//DTD SVG 1.1//EN" "http://www.w3.org/Graphics/SVG/1.1/DTD/svg11.dtd">
<svg version="1.1" id="Layer_1" xmlns="http://www.w3.org/2000/svg" xmlns:xlink="http://www.w3.org/1999/xlink" x="0px" y="0px"
	 viewBox="0 0 36 36" enable-background="new 0 0 36 36" xml:space="preserve">
<g>
	<g>
		<g>
			<g>
				<g>
					<g>
						<g>
							<path fill="#E24C4B" d="M4.3,31.4h27.4c1.8,0,2.9-2,1.9-3.5L19.9,5.7c-0.9-1.5-3-1.5-3.9,0L2.3,27.9
								C1.4,29.4,2.5,31.4,4.3,31.4z"/>
						</g>
					</g>
				</g>
			</g>
		</g>
		<g>
			<g>
				<g>
					<g>
						<g>
							<polygon fill="#FFFFFF" points="30.6,28.4 18,8.1 5.4,28.4 							"/>
						</g>
					</g>
				</g>
			</g>
		</g>
	</g>
	<g>
		<g>
			<g>
				<g>
					<g>
						<g>
							<path fill="#3F4448" d="M19.9,19.5l-1.3,0.3c-0.1,0-0.2,0-0.3-0.1l-0.8-0.5l-0.8,2.4l0.7,0.8c0,0.1,0.1,0.1,0.1,0.2l0.3,1.9
								c0,0.2-0.1,0.4-0.4,0.4c-0.2,0-0.4-0.1-0.4-0.3l-0.3-1.8c-0.7-0.9-1.1-1.3-1.3-1.6L15,22.3c0,0.1-0.1,0.2-0.2,0.2l-1.5,0.9
								c-0.2,0.1-0.4,0.1-0.5-0.1c-0.1-0.2,0-0.4,0.2-0.5l1.4-0.8c0.1-0.3,0.9-2.7,1-3.1L14.7,19l-0.5,0.8c-0.1,0.2-0.4,0.3-0.6,0.1
								c-0.1-0.1-0.2-0.3-0.1-0.5l0.6-1c0.1-0.1,0.2-0.2,0.3-0.2c2-0.4,2.2-0.5,2.7-0.3c0.1,0,1.5,1,1.5,1l1.1-0.2
								c0.2-0.1,0.4,0.1,0.5,0.3C20.2,19.3,20.1,19.5,19.9,19.5z"/>
						</g>
					</g>
				</g>
			</g>
		</g>
		<g>
			<g>
				<g>
					<g>
						<path fill="#3F4448" d="M16.8,16.6c0.2-0.5,0.6-0.7,1.1-0.5c0.4,0.2,0.7,0.7,0.5,1.1c-0.2,0.4-0.6,0.7-1.1,0.5
							C16.9,17.5,16.7,17,16.8,16.6z"/>
					</g>
				</g>
			</g>
		</g>
	</g>
	<g>
		<g>
			<g>
				<g>
					<g>
						<path fill="#3F4448" d="M14.5,23.4v5H5.4L8.8,23H14C14.3,23,14.5,23.2,14.5,23.4z"/>
					</g>
				</g>
			</g>
		</g>
		<g>
			<g>
				<g>
					<g>
						<path fill="#3F4448" d="M30.6,28.4H20.2v-5c0-0.3,0.2-0.4,0.5-0.4h6.5L30.6,28.4z"/>
					</g>
				</g>
			</g>
		</g>
	</g>
</g>
</svg>
