<?xml version="1.0" encoding="utf-8"?>
<!-- Generator: Adobe Illustrator 18.0.0, SVG Export Plug-In . SVG Version: 6.00 Build 0)  -->
<!DOCTYPE svg PUBLIC "-//W3C//DTD SVG 1.1//EN" "http://www.w3.org/Graphics/SVG/1.1/DTD/svg11.dtd">
<svg version="1.1" id="Layer_1" xmlns="http://www.w3.org/2000/svg" xmlns:xlink="http://www.w3.org/1999/xlink" x="0px" y="0px"
	 viewBox="0 0 36 36" enable-background="new 0 0 36 36" xml:space="preserve">
<g>
	<g>
		<g>
			<g>
				<g>
					<g>
						<circle fill="#E24C4B" cx="18" cy="18" r="16"/>
					</g>
				</g>
			</g>
		</g>
		<g>
			<g>
				<g>
					<g>
						<path fill="#FFFFFF" d="M31,18c0,7.2-5.8,13-13,13c-7.2,0-13-5.8-13-13c0-7.2,5.8-13,13-13C25.2,5,31,10.8,31,18z"/>
					</g>
				</g>
			</g>
		</g>
		<g>
			<g>
				<g>
					<g>
						<path fill="#FFFFFF" d="M31,18c0,7.2-5.8,13-13,13c-7.2,0-13-5.8-13-13c0-7.2,5.8-13,13-13C25.2,5,31,10.8,31,18z"/>
					</g>
				</g>
			</g>
		</g>
		<g>
			<g>
				<g>
					<g>
						<path fill="#3F4448" d="M19.8,28.2c0-0.1,0-0.2,0-0.2c0-0.1-0.1-0.1-0.2-0.2l-3.3-1.1l0.5-1.4c0-0.1,0-0.2,0-0.2
							c0-0.1-0.1-0.1-0.2-0.2l-3.3-1.1l0.5-1.4c0-0.1,0-0.2,0-0.2c0-0.1-0.1-0.1-0.2-0.2l-3.3-1.1l0.5-1.4c0-0.1,0-0.2,0-0.2
							c0-0.1-0.1-0.1-0.2-0.2L7.3,18l0.5-1.4c0-0.1,0-0.2,0-0.2c0-0.1-0.1-0.1-0.2-0.2l-2.3-0.8C5.1,16.3,5,17.1,5,18
							c0,7.2,5.8,13,13,13c1.3,0,2.6-0.2,3.8-0.6l0,0l-2.4-0.8L19.8,28.2z"/>
					</g>
				</g>
			</g>
		</g>
	</g>
	<g>
		<g>
			<g>
				<g>
					<g>
						<g>
							<g>
								<path fill="none" stroke="#3F4448" stroke-miterlimit="10" d="M16.2,20.5"/>
							</g>
						</g>
					</g>
				</g>
			</g>
		</g>
		<g>
			<g>
				<g>
					<g>
						<g>
							<g>
								<path fill="#3F4448" d="M13.4,12.6c0.1-0.9,0.9-1.5,1.8-1.4c0.9,0.1,1.5,0.9,1.4,1.8c-0.1,0.9-0.9,1.5-1.8,1.4
									C13.9,14.3,13.3,13.5,13.4,12.6z"/>
							</g>
						</g>
					</g>
				</g>
				<g>
					<g>
						<g>
							<g>
								<g>
									<path fill="#3F4448" d="M21.2,22.6c-0.3,0.2-0.8,0-0.9-0.3l-0.8-1.5l-2.2-0.4c0,0.3,0.1,0.6,0.1,0.8
										c-0.1,1.5-0.6,3.1-0.6,3.2c-0.1,0.4-0.6,0.5-0.9,0.4c-0.4-0.1-0.6-0.5-0.4-0.9c0,0,0.5-1.5,0.5-2.8c0-0.2,0-0.5-0.1-1l-1-3
										l-0.3,0.3l0.1,1.2c0,0.4-0.3,0.7-0.7,0.7c0,0-0.1,0-0.1,0c-0.3,0-0.6-0.3-0.6-0.7l-0.1-1.5c0-0.2,0.1-0.4,0.2-0.5l1.5-1.6
										c0,0,0,0,0.1,0c0,0,0-0.1,0.1-0.1c0.2-0.2,0.4-0.3,0.7-0.4c0.2,0,0.4,0,0.6,0l2.1,0.2l0.8-0.8c0.3-0.3,0.7-0.2,1,0
										c0.3,0.3,0.2,0.7,0,1l-1.1,1c-0.1,0.1-0.3,0.2-0.5,0.2l-1-0.1l1,3.1l1.3,0.2c0.2,0,0.4,0.2,0.5,0.4l0.9,1.8
										C21.7,22,21.6,22.4,21.2,22.6z"/>
								</g>
							</g>
						</g>
					</g>
				</g>
			</g>
		</g>
	</g>
</g>
</svg>
