<?xml version="1.0" encoding="utf-8"?>
<!-- Generator: Adobe Illustrator 18.0.0, SVG Export Plug-In . SVG Version: 6.00 Build 0)  -->
<!DOCTYPE svg PUBLIC "-//W3C//DTD SVG 1.1//EN" "http://www.w3.org/Graphics/SVG/1.1/DTD/svg11.dtd">
<svg version="1.1" id="Layer_1" xmlns="http://www.w3.org/2000/svg" xmlns:xlink="http://www.w3.org/1999/xlink" x="0px" y="0px"
	 viewBox="0 0 36 36" enable-background="new 0 0 36 36" xml:space="preserve">
<g>
	<g>
		<g>
			<g>
				<g>
					<g>
						<path fill="#E24C4B" d="M4.3,31.4h27.4c1.8,0,2.9-2,1.9-3.5L19.9,5.7c-0.9-1.5-3-1.5-3.9,0L2.3,27.9
							C1.4,29.4,2.5,31.4,4.3,31.4z"/>
					</g>
				</g>
			</g>
		</g>
		<g>
			<g>
				<g>
					<g>
						<polygon fill="#FFFFFF" points="30.6,28.4 18,8.1 5.4,28.4 						"/>
					</g>
				</g>
			</g>
		</g>
	</g>
	<g>
		<g>
			<g>
				<g>
					<g>
						<g>
							<g>
								<path fill="none" stroke="#3F4448" stroke-miterlimit="10" d="M17.4,24.4"/>
							</g>
						</g>
					</g>
				</g>
			</g>
		</g>
		<g>
			<g>
				<g>
					<g>
						<g>
							<g>
								<g>
									<path fill="#3F4448" d="M20.3,26.4l-0.6-1.2l-1.8-0.3c0.1,1-0.2,2.7-0.4,3.2c-0.1,0.3-0.4,0.5-0.7,0.4
										c-0.3-0.1-0.4-0.4-0.4-0.7c0,0,0.4-1.2,0.4-2.2c0-0.2,0-0.4-0.1-0.8l0,0L16,22.4l-0.2,0.2c0,0.7,0.2,1.6-0.5,1.5
										c-0.6-0.1-0.5-1-0.5-1.7c0-0.1,0-0.3,0.1-0.4c0,0,1.3-1.3,1.3-1.3c0.8-0.6,1.3-0.3,2.8-0.2l0.7-0.6c0.2-0.2,0.6-0.2,0.8,0
										c0.5,0.5-0.3,1.1-0.8,1.6c-0.3,0.3-0.8,0.1-1.2,0.1l0.9,2.4c1.6,0.2,1.2-0.1,2.2,1.9C21.6,26.5,20.6,27,20.3,26.4z"/>
								</g>
							</g>
						</g>
					</g>
				</g>
				<g>
					<g>
						<g>
							<g>
								<path fill="#3F4448" d="M14.8,18.8c0.1-0.7,0.7-1.2,1.4-1.1s1.2,0.7,1.2,1.4c-0.1,0.7-0.7,1.2-1.4,1.2
									C15.2,20.1,14.7,19.5,14.8,18.8z"/>
							</g>
						</g>
					</g>
				</g>
			</g>
		</g>
	</g>
	<g>
		<g>
			<g>
				<g>
					<g>
						<polygon fill="#3F4448" points="16.3,15.3 18.1,15.3 17.6,18 20.1,14.1 18.2,14.1 18.9,11.1 						"/>
					</g>
				</g>
			</g>
		</g>
	</g>
</g>
</svg>
