<?xml version="1.0" encoding="utf-8"?>
<!-- Generator: Adobe Illustrator 18.0.0, SVG Export Plug-In . SVG Version: 6.00 Build 0)  -->
<!DOCTYPE svg PUBLIC "-//W3C//DTD SVG 1.1//EN" "http://www.w3.org/Graphics/SVG/1.1/DTD/svg11.dtd">
<svg version="1.1" id="Layer_1" xmlns="http://www.w3.org/2000/svg" xmlns:xlink="http://www.w3.org/1999/xlink" x="0px" y="0px"
	 viewBox="0 0 36 36" enable-background="new 0 0 36 36" xml:space="preserve">
<g>
	<g>
		<g>
			<g>
				<g>
					<path fill="#E24C4B" d="M4.3,31.4h27.4c1.8,0,2.9-2,1.9-3.5L19.9,5.7c-0.9-1.5-3-1.5-3.9,0L2.3,27.9
						C1.4,29.4,2.5,31.4,4.3,31.4z"/>
				</g>
			</g>
		</g>
	</g>
	<g>
		<g>
			<g>
				<g>
					<polygon fill="#FFFFFF" points="30.6,28.4 18,8.1 5.4,28.4 					"/>
				</g>
			</g>
		</g>
	</g>
	<g>
		<g>
			<g>
				<g>
					<path fill="#3F4448" d="M23.2,19.9H23v-0.2c0-0.2-0.1-0.3-0.3-0.3h-0.5l-0.9-0.5c-0.1-0.1-0.3,0-0.3,0.2v0.3H14
						c-0.1,0.2-0.2,0.4-0.3,0.5c-0.1,0-0.1,0-0.2,0c-0.2-0.2-0.9-0.7-0.9-0.4c0,0,0,0.1,0.1,0.1c0.2,0.2,0.4,0.4,0.5,0.5
						c0,0-0.1,0.1,0,0.3c-0.2,0.1-0.3,0.2-0.5,0.3v0.9c0,0.2,0.1,0.3,0.3,0.3h0.5l-0.7,4.3c0,0.2,0.1,0.4,0.3,0.4h1.7
						c0.1,0,0.2-0.1,0.3-0.2c0.1-0.2,0.3-0.3,0.4-0.6c0.1-0.5-0.2-0.5,0-1c0.1-0.5,0.4-0.4,0.5-0.9c0,0,0,0,0,0
						c0.1,0,0.2,0.1,0.4,0.1c0.6,0.1,1.3,0,1.7-0.4c0.2-0.2,0.5-0.6,0.3-1.3c0-0.1-0.1-0.2-0.1-0.3h4.5c0.2,0,0.3-0.1,0.3-0.3v-0.4
						h0.1c0.1,0,0.2-0.1,0.2-0.2v-1C23.3,19.9,23.3,19.9,23.2,19.9z M18,22.3c0.1,0.4,0,0.8-0.2,1c-0.3,0.3-0.8,0.4-1.4,0.3
						c-0.1,0-0.3-0.1-0.5-0.1c0-0.2-0.1-0.3,0-0.6c0.1-0.3,0.3-0.4,0.4-0.6c0.2,0.3,0.4,0.7,0.9,0.9c0.1,0,0.2,0,0.2-0.1
						c0-0.1,0-0.2-0.1-0.2c-0.4-0.2-0.7-0.6-0.8-0.9h1.4C17.9,22,18,22.2,18,22.3z"/>
				</g>
			</g>
		</g>
	</g>
</g>
</svg>
