<?xml version="1.0" encoding="utf-8"?>
<!-- Generator: Adobe Illustrator 18.0.0, SVG Export Plug-In . SVG Version: 6.00 Build 0)  -->
<!DOCTYPE svg PUBLIC "-//W3C//DTD SVG 1.1//EN" "http://www.w3.org/Graphics/SVG/1.1/DTD/svg11.dtd">
<svg version="1.1" id="Layer_1" xmlns="http://www.w3.org/2000/svg" xmlns:xlink="http://www.w3.org/1999/xlink" x="0px" y="0px"
	 viewBox="0 0 36 36" enable-background="new 0 0 36 36" xml:space="preserve">
<g>
	<g>
		<g>
			<g>
				<g>
					<path fill="#E24C4B" d="M2.3,31.4h27.4c1.8,0,2.9-2,1.9-3.5L17.9,5.7c-0.9-1.5-3-1.5-3.9,0L0.3,27.9
						C-0.6,29.4,0.5,31.4,2.3,31.4z"/>
				</g>
			</g>
		</g>
	</g>
	<g>
		<g>
			<g>
				<g>
					<polygon fill="#FFFFFF" points="28.6,28.4 16,8.1 3.4,28.4 					"/>
				</g>
			</g>
		</g>
	</g>
	<g>
		<g>
			<g>
				<g>
					<path fill="#3F4448" d="M18.8,28.4v-1.5c0.8-0.7,1.4-1.3,2.7-2.8c0.3-0.3,0.2-0.8-0.1-1.1c-0.3-0.3-0.8-0.3-1.1,0L19.5,24v-5
						c0-0.3-0.3-0.6-0.6-0.6c-0.3,0-0.6,0.3-0.6,0.6v3.2c0,0.1-0.1,0.2-0.2,0.2c-0.1,0-0.2-0.1-0.2-0.2v-4c0-0.3-0.3-0.6-0.6-0.6
						c-0.3,0-0.6,0.2-0.6,0.6v4c0,0.1-0.1,0.2-0.2,0.2h0c-0.1,0-0.2-0.1-0.2-0.2v-3.2c0-0.3-0.3-0.6-0.6-0.6c-0.4,0-0.6,0.3-0.6,0.6
						v3.2c0,0.1-0.1,0.2-0.2,0.2c-0.1,0-0.2-0.1-0.2-0.2V20c0-0.3-0.3-0.6-0.6-0.6c-0.3,0-0.6,0.3-0.6,0.6v2.7
						c0.5,0.2,1.5,0.7,1.9,0.8c0,0.3,0,0.7,0,1c0.2,0.1,0.8,0.3,0.9,0.4c0,0.1,0,0.5,0,0.6l0.8,0.7c-0.2-0.1-1-0.5-1.1-0.5
						c0-0.1-0.1-0.4-0.1-0.5c-0.3-0.1-0.9-0.2-1.1-0.3c0-0.3-0.1-0.5-0.1-0.9l-1.2-0.3v1.6c0,0.7,0.2,1.3,0.7,1.8v1.3H18.8z"/>
				</g>
			</g>
		</g>
	</g>
	<g>
		<g>
			<g>
				<g>
					<path fill="#3F4448" d="M12.3,23.2l0.1-0.1c0.1,0.2,0.3,0.4,0.5,0.8c0,0,0,0,0.1,0c0,0,0,0,0,0c0,0,0,0,0-0.1
						c-0.2-0.4-0.3-0.6-0.5-0.8l0,0c0.2,0.2,0.4,0.5,0.6,0.9c0,0,0,0,0,0c0,0,0,0,0,0c0,0,0,0,0-0.1c-0.2-0.5-0.4-0.8-0.6-1l0,0
						c0.2,0.2,0.5,0.4,1,0.7c0,0,0,0,0,0c0,0,0,0,0,0c0,0,0-0.1,0-0.1c-0.5-0.3-0.8-0.6-1-0.7l0,0c0.2,0.1,0.5,0.3,0.9,0.5h0
						c0,0,0,0,0,0c0,0,0,0,0-0.1c-0.4-0.1-0.7-0.3-0.8-0.4l0,0c0.2,0.1,0.4,0.2,0.7,0.3c0,0,0,0,0,0c0,0,0,0,0,0c0,0,0-0.1,0-0.1
						c-0.2,0-0.4-0.1-0.6-0.2l0.1-0.1c-1-1-0.7-3.8-1.2-7.5L11,16.3C11.4,19.7,11,22,12.3,23.2z"/>
				</g>
			</g>
		</g>
	</g>
</g>
</svg>
