<?xml version="1.0" encoding="utf-8"?>
<!-- Generator: Adobe Illustrator 18.0.0, SVG Export Plug-In . SVG Version: 6.00 Build 0)  -->
<!DOCTYPE svg PUBLIC "-//W3C//DTD SVG 1.1//EN" "http://www.w3.org/Graphics/SVG/1.1/DTD/svg11.dtd">
<svg version="1.1" id="Layer_1" xmlns="http://www.w3.org/2000/svg" xmlns:xlink="http://www.w3.org/1999/xlink" x="0px" y="0px"
	 viewBox="0 0 36 36" enable-background="new 0 0 36 36" xml:space="preserve">
<g>
	<g>
		<g>
			<g>
				<g>
					<g>
						<g>
							<g>
								<g>
									<path fill="#E24C4B" d="M4.3,31.4h27.4c1.8,0,2.9-2,1.9-3.5L19.9,5.7c-0.9-1.5-3-1.5-3.9,0L2.3,27.9
										C1.4,29.4,2.5,31.4,4.3,31.4z"/>
								</g>
							</g>
						</g>
					</g>
				</g>
				<g>
					<g>
						<g>
							<g>
								<g>
									<polygon fill="#FFFFFF" points="30.6,28.4 18,8.1 5.4,28.4 									"/>
								</g>
							</g>
						</g>
					</g>
				</g>
			</g>
		</g>
	</g>
	<g>
		<g>
			<g>
				<g>
					<g>
						<path fill="#3F4448" d="M22.8,20.3c-0.2-0.1-0.3-0.2-0.4-0.2c0.1,0.1,0.2,0.3,0.3,0.4c0.1,0.3,0.2,0.4,0.4,0.5
							c0.2,0.1,0.2,0.4,0.1,0.4c-0.1,0-0.3-0.1-0.4-0.3c-0.1-0.2-0.1-0.2-0.1-0.2s-0.1,0.1-0.4-0.1c-0.3-0.2-0.3-0.3-0.4-0.4
							c-0.1-0.1-0.3,0-0.4,0.1c-0.7,0.6-0.7,1.4-1.2,2.5c-0.3,0.7-0.4,1.5-0.3,1.9c0,0.4,0.1,0.4,0,0.5c0,0,0,0.7,0.2,0.9
							c0.2,0.2,0.3,0,0.4,0.2c0.2,0.1,0.2,0.2,0.2,0.3c-0.1,0.1-0.8,0.1-0.8,0.1s-0.2-0.1-0.1-0.3c-0.2,0-0.6-3.1-0.6-3.4
							c-0.3,0.2-0.2,1.4-0.1,1.8c0,0,0,0.1,0,0.4c-0.1,0.3,0.1,0.9,0.3,1c0.2,0.1,0.3,0.4,0.3,0.4h-0.9c0,0-0.1-0.2-0.1-0.5
							c0-0.3-0.2-0.4-0.3-1.4c0-1-0.1-1.5-0.3-1.7c0,0-1.5-0.2-2-0.5s-0.7-0.2-0.7-0.2c0.2,1.3-1.5,2.2-1.4,3
							c0.1,0.4,0.2,0.8,0.4,0.9c0.1,0.1,0.5,0,0.5,0.4h-0.8c0,0-0.1-0.1-0.1-0.3c0,0-0.4-0.9-0.5-1.2c-0.2-0.3-0.2-0.4-0.1-0.6
							c0.1-0.2,0.5-0.5,0.6-0.8c-0.3,0.2-0.7,0.5-0.8,0.9c-0.2,0.4-0.3,1.4,0,1.6c0.1,0.1,0.3,0,0.3,0.4h-0.8c0,0-0.1,0-0.1-0.4
							c0-0.4-0.1-1-0.1-1.3c-0.1-0.2-0.1-0.3,0.1-0.5c0.7-0.8,0.6-1.1,0.7-2.1c0,0-0.3,1.2-1.2,1.7c-0.9,0.5-0.9,0.3-1.1,0.7
							c0,0-0.3-0.4,0.2-0.8c3-1.2,0.2-4.7,6.4-4c0.4,0,0.7-0.3,1.4-0.2c0.9-0.6,2.2-1.5,2.2-1.5s0.2-0.5,0.5-0.8
							c0.3-0.3,0.4-0.6,0.5-0.7c0.1-0.1,0.1-0.1,0.1,0.2c0,0.2,0.1,0.5,0,0.6c0,0,0.1-0.1,0.1-0.2c0,0,0.1-0.2,0.3-0.3
							c0.1-0.1,0.2-0.3,0.1-0.1c-0.1,0.3-0.3,0.8-0.3,1c0,0.3,0.4,0.4,0.5,0.8c0,0.2,0,0.2,0.4,0.5c0.3,0.3,0.6,0.5,0.6,0.7
							C23.5,20.3,23.1,20.4,22.8,20.3z"/>
					</g>
				</g>
			</g>
		</g>
	</g>
</g>
</svg>
