<?xml version="1.0" encoding="utf-8"?>
<!-- Generator: Adobe Illustrator 18.0.0, SVG Export Plug-In . SVG Version: 6.00 Build 0)  -->
<!DOCTYPE svg PUBLIC "-//W3C//DTD SVG 1.1//EN" "http://www.w3.org/Graphics/SVG/1.1/DTD/svg11.dtd">
<svg version="1.1" id="Layer_1" xmlns="http://www.w3.org/2000/svg" xmlns:xlink="http://www.w3.org/1999/xlink" x="0px" y="0px"
	 viewBox="0 0 36 36" enable-background="new 0 0 36 36" xml:space="preserve">
<g>
	<g>
		<g>
			<g>
				<g>
					<path fill="#E9EFF4" d="M5.5,19.8c5-3.1,9.7-6.1,13.1-9.1l6.7,6.7c-3,3.4-6,8.1-9.1,13.1C10.7,30.4,5.3,32.7,2.7,34L2,33.3
						C3.3,30.7,5.6,25.3,5.5,19.8z"/>
				</g>
			</g>
		</g>
	</g>
	<g>
		<g>
			<g>
				<g>
					<path fill="#DFE4E9" d="M20.6,12.7l4.7,4.7c-3,3.4-6,8.1-9.1,13.1C10.7,30.4,5.3,32.7,2.7,34C2.7,34,17.2,15.7,20.6,12.7z"/>
				</g>
			</g>
		</g>
	</g>
	<g>
		<g>
			<g>
				<g>
					<path fill="#ADBAC1" d="M10,24.2c0.5-0.5,1.3-0.5,1.8,0c0.5,0.5,0.5,1.3,0,1.8c-0.4,0.4-0.9,0.5-1.4,0.3L2.7,34L2,33.3l7.7-7.7
						C9.5,25.1,9.6,24.6,10,24.2z"/>
				</g>
			</g>
		</g>
	</g>
	<g>
		<g>
			<g>
				<g>
					<path fill="#3F4448" d="M25.1,2l8.9,8.9l-6.6,6.6c-0.8,0.8-2,0.8-2.8,0l-6-6c-0.8-0.8-0.8-2,0-2.8L25.1,2z"/>
				</g>
			</g>
		</g>
	</g>
</g>
</svg>
