<?xml version="1.0" encoding="utf-8"?>
<!-- Generator: Adobe Illustrator 18.0.0, SVG Export Plug-In . SVG Version: 6.00 Build 0)  -->
<!DOCTYPE svg PUBLIC "-//W3C//DTD SVG 1.1//EN" "http://www.w3.org/Graphics/SVG/1.1/DTD/svg11.dtd">
<svg version="1.1" id="Layer_1" xmlns="http://www.w3.org/2000/svg" xmlns:xlink="http://www.w3.org/1999/xlink" x="0px" y="0px"
	 viewBox="0 0 36 36" enable-background="new 0 0 36 36" xml:space="preserve">
<g>
	<g>
		<g>
			<g>
				<g>
					<path fill="#DFE4E9" d="M23.7,16.7c0.9-1.5,1.5-3.5,1.5-5.5C25.2,6.1,22,2,18,2c-4,0-7.2,4.1-7.2,9.2c0,2.1,0.5,4,1.5,5.5H23.7
						z"/>
				</g>
			</g>
		</g>
	</g>
	<g>
		<g>
			<g>
				<g>
					<path fill="#ADBAC1" d="M21.2,16.7c1.1-1.3,1.9-3.3,1.9-5.5C23.1,7.3,20.7,4,18,4c-2.7,0-5.1,3.3-5.1,7.2
						c0,2.2,0.7,4.2,1.9,5.5H21.2z"/>
				</g>
			</g>
		</g>
	</g>
	<g>
		<g>
			<g>
				<g>
					<path fill="#DFE4E9" d="M14.5,26h7c3-1.3,5.2-4.4,5.2-7.9H9.3C9.3,21.7,11.5,24.7,14.5,26z"/>
				</g>
			</g>
		</g>
	</g>
	<g>
		<g>
			<g>
				<g>
					<path fill="#E9EFF4" d="M26.6,18.1H9.4c-0.4,0-0.8-0.4-0.8-0.8v0c0-0.4,0.4-0.8,0.8-0.8h17.3c0.4,0,0.8,0.4,0.8,0.8v0
						C27.4,17.8,27.1,18.1,26.6,18.1z"/>
				</g>
			</g>
		</g>
	</g>
	<g>
		<g>
			<g>
				<g>
					<polygon fill="#D3D9DD" points="24.8,31.7 11.2,31.7 14.5,26 21.5,26 					"/>
				</g>
			</g>
		</g>
	</g>
	<g>
		<g>
			<g>
				<g>
					<path fill="#E9EFF4" d="M24.6,34H11.4c-0.8,0-1.4-0.6-1.4-1.4v0c0-0.8,0.6-1.4,1.4-1.4h13.2c0.8,0,1.4,0.6,1.4,1.4v0
						C26,33.4,25.3,34,24.6,34z"/>
				</g>
			</g>
		</g>
	</g>
</g>
</svg>
