<?xml version="1.0" encoding="utf-8"?>
<!-- Generator: Adobe Illustrator 18.0.0, SVG Export Plug-In . SVG Version: 6.00 Build 0)  -->
<!DOCTYPE svg PUBLIC "-//W3C//DTD SVG 1.1//EN" "http://www.w3.org/Graphics/SVG/1.1/DTD/svg11.dtd">
<svg version="1.1" id="Layer_1" xmlns="http://www.w3.org/2000/svg" xmlns:xlink="http://www.w3.org/1999/xlink" x="0px" y="0px"
	 viewBox="0 0 36 36" enable-background="new 0 0 36 36" xml:space="preserve">
<g>
	<g>
		<g>
			<g>
				<g>
					<g>
						<path fill="#DFE4E9" d="M34,4v28c0,1.1-0.9,2-2,2H4c-1.1,0-2-0.9-2-2V4c0-1.1,0.9-2,2-2h28C33.1,2,34,2.9,34,4z"/>
					</g>
				</g>
			</g>
		</g>
		<g>
			<g>
				<g>
					<g>
						<path fill="#E9EFF4" d="M28.8,2c-0.3,5.7-3.4,12.3-8.8,17.7c-5.5,5.5-12.2,8.6-18,8.8V4c0-1.1,0.9-2,2-2H28.8z"/>
					</g>
				</g>
			</g>
		</g>
		<g>
			<g>
				<g>
					<g>
						<g>
							<path fill="#3F4448" d="M17.5,18.7H6.2c-0.6,0-1-0.4-1-1V6.4c0-0.6,0.4-1,1-1h11.3c0.6,0,1,0.4,1,1v11.3
								C18.5,18.2,18,18.7,17.5,18.7z"/>
						</g>
					</g>
				</g>
			</g>
			<g>
				<g>
					<g>
						<g>
							<rect x="6.2" y="6.5" fill="#5CA4DA" width="11.2" height="11.2"/>
						</g>
					</g>
				</g>
			</g>
			<g>
				<g>
					<g>
						<g>
							<g>
								<rect x="20" y="8.8" fill="#E24C4B" width="2.6" height="2.4"/>
							</g>
						</g>
					</g>
				</g>
				<g>
					<g>
						<g>
							<g>
								<rect x="24" y="8.8" fill="#8DC640" width="2.6" height="2.4"/>
							</g>
						</g>
					</g>
				</g>
				<g>
					<g>
						<g>
							<g>
								<rect x="28.1" y="8.8" fill="#6DAFE0" width="2.6" height="2.4"/>
							</g>
						</g>
					</g>
				</g>
				<g>
					<g>
						<g>
							<g>
								<rect x="20" y="12.5" fill="#7B8C92" width="2.6" height="2.4"/>
							</g>
						</g>
					</g>
				</g>
				<g>
					<g>
						<g>
							<g>
								<rect x="20" y="16.3" fill="#7B8C92" width="2.6" height="2.4"/>
							</g>
						</g>
					</g>
				</g>
				<g>
					<g>
						<g>
							<g>
								<rect x="24" y="12.5" fill="#7B8C92" width="2.6" height="2.4"/>
							</g>
						</g>
					</g>
				</g>
				<g>
					<g>
						<g>
							<g>
								<rect x="24" y="16.3" fill="#7B8C92" width="2.6" height="2.4"/>
							</g>
						</g>
					</g>
				</g>
				<g>
					<g>
						<g>
							<g>
								<rect x="28.1" y="12.5" fill="#7B8C92" width="2.6" height="2.4"/>
							</g>
						</g>
					</g>
				</g>
				<g>
					<g>
						<g>
							<g>
								<rect x="28.1" y="16.3" fill="#7B8C92" width="2.6" height="2.4"/>
							</g>
						</g>
					</g>
				</g>
			</g>
			<g>
				<g>
					<g>
						<g>
							<rect x="20" y="20.8" fill="#3F4448" width="11.3" height="2.7"/>
						</g>
					</g>
				</g>
			</g>
			<g>
				<g>
					<g>
						<g>
							<rect x="4.9" y="20.8" fill="#3F4448" width="12.3" height="2.7"/>
						</g>
					</g>
				</g>
			</g>
			<g>
				<g>
					<g>
						<g>
							<g>
								<path fill="#6DAFE0" d="M20.8,21.9v7.8c0,0.7,0.5,1.2,1.2,1.2h7.3c0.7,0,1.2-0.5,1.2-1.2v-7.8H20.8z"/>
							</g>
						</g>
					</g>
				</g>
				<g>
					<g>
						<g>
							<g>
								<g>
									<rect x="26.5" y="21.9" fill="#438EC4" width="2.1" height="9"/>
								</g>
							</g>
						</g>
					</g>
				</g>
				<g>
					<g>
						<g>
							<g>
								<g>
									<rect x="22.4" y="21.9" fill="#4E9AD4" width="1" height="1.1"/>
								</g>
							</g>
						</g>
					</g>
					<g>
						<g>
							<g>
								<g>
									<rect x="22.4" y="24.1" fill="#4E9AD4" width="1" height="2.2"/>
								</g>
							</g>
						</g>
					</g>
					<g>
						<g>
							<g>
								<g>
									<rect x="22.4" y="27.3" fill="#4E9AD4" width="1" height="2.2"/>
								</g>
							</g>
						</g>
					</g>
				</g>
			</g>
			<g>
				<g>
					<g>
						<g>
							<g>
								<path fill="#8DC640" d="M6.3,22v7.8c0,0.5,0.4,0.8,0.8,0.8H15c0.5,0,0.8-0.4,0.8-0.8V22H6.3z"/>
							</g>
						</g>
					</g>
				</g>
				<g>
					<g>
						<g>
							<g>
								<g>
									<path fill="#7FB241" d="M14.6,22v6.1c-0.8,0-1.4,0.6-1.4,1.4H8.9c0-0.8-0.6-1.4-1.4-1.4V22H14.6z"/>
								</g>
							</g>
						</g>
					</g>
				</g>
			</g>
			<g>
				<g>
					<g>
						<g>
							<rect x="20" y="5.4" fill="#3F4448" width="10.7" height="2.1"/>
						</g>
					</g>
				</g>
			</g>
			<g>
				<g>
					<g>
						<g>
							<path fill="#6DAFE0" d="M16.5,6.5c-0.7,2.3-2.3,4.8-4.7,7C10,15.1,8.1,16.3,6.2,17V6.5H16.5z"/>
						</g>
					</g>
				</g>
			</g>
		</g>
	</g>
	<g>
		<g>
			<g>
				<g>
					<g>
						<path fill="#8DC640" d="M13.3,22.5c0,0.9-1,1.6-2.3,1.6c-1.3,0-2.3-0.7-2.3-1.6c0-0.2,0-0.3,0.1-0.5h4.3
							C13.3,22.2,13.3,22.4,13.3,22.5z"/>
					</g>
				</g>
			</g>
		</g>
	</g>
	<g>
		<g>
			<g>
				<g>
					<g>
						<circle fill="#8DC640" cx="11.1" cy="26.6" r="1"/>
					</g>
				</g>
			</g>
		</g>
	</g>
</g>
</svg>
