<?xml version="1.0" encoding="utf-8"?>
<!-- Generator: Adobe Illustrator 18.0.0, SVG Export Plug-In . SVG Version: 6.00 Build 0)  -->
<!DOCTYPE svg PUBLIC "-//W3C//DTD SVG 1.1//EN" "http://www.w3.org/Graphics/SVG/1.1/DTD/svg11.dtd">
<svg version="1.1" id="Layer_1" xmlns="http://www.w3.org/2000/svg" xmlns:xlink="http://www.w3.org/1999/xlink" x="0px" y="0px"
	 viewBox="0 0 36 36" enable-background="new 0 0 36 36" xml:space="preserve">
<g>
	<g>
		<g>
			<g>
				<g>
					<path fill="#6DAFE0" d="M34,18c0,1.7-1.1,3.1-2.5,3.1c-1.1,0-3.5-0.9-4.5-2.1h-5.4c-0.1,0.3-0.2,0.5-0.3,0.7l3.8,3.8
						c1.5-0.2,3.9,0.9,4.6,1.7c1,1,0.8,2.8-0.4,4c-1.2,1.2-3,1.4-4,0.4c-0.8-0.8-1.9-3.1-1.7-4.6l-3.8-3.8c-0.2,0.1-0.5,0.2-0.7,0.3
						V27c1.2,1,2.1,3.4,2.1,4.5c0,1.4-1.4,2.5-3.1,2.5c-1.7,0-3.1-1.1-3.1-2.5c0-1.1,0.9-3.5,2.1-4.5v-5.4c-0.3-0.1-0.5-0.2-0.7-0.3
						l-3.8,3.8c0.2,1.5-0.9,3.8-1.7,4.6c-1,1-2.8,0.8-4-0.4c-1.2-1.2-1.4-3-0.4-4c0.8-0.8,3.1-1.9,4.6-1.7l3.8-3.8
						c-0.1-0.2-0.2-0.5-0.3-0.7H9c-1,1.2-3.4,2.1-4.5,2.1C3.1,21.1,2,19.7,2,18c0-1.7,1.1-3.1,2.5-3.1c1.1,0,3.5,0.9,4.5,2.1h5.4
						c0.1-0.3,0.2-0.5,0.3-0.7l-3.8-3.8c-1.5,0.2-3.8-0.9-4.6-1.7c-1-1-0.8-2.8,0.4-4c1.2-1.2,3-1.4,4-0.4c0.8,0.8,1.9,3.1,1.7,4.6
						l3.8,3.8c0.2-0.1,0.5-0.2,0.7-0.3V9c-1.2-1-2.1-3.4-2.1-4.5C14.9,3.1,16.3,2,18,2c1.7,0,3.1,1.1,3.1,2.6c0,1.1-0.9,3.5-2.1,4.5
						v5.4c0.3,0.1,0.5,0.2,0.7,0.3l3.8-3.8c-0.2-1.5,0.9-3.8,1.7-4.6c1-1,2.8-0.8,4,0.4c1.2,1.2,1.4,3,0.4,4
						c-0.8,0.8-3.1,1.9-4.6,1.7l-3.8,3.8c0.1,0.2,0.2,0.5,0.3,0.7H27c1-1.2,3.4-2.1,4.5-2.1C32.9,14.9,34,16.3,34,18z"/>
				</g>
			</g>
		</g>
	</g>
</g>
</svg>
