<?xml version="1.0" encoding="utf-8"?>
<!-- Generator: Adobe Illustrator 18.0.0, SVG Export Plug-In . SVG Version: 6.00 Build 0)  -->
<!DOCTYPE svg PUBLIC "-//W3C//DTD SVG 1.1//EN" "http://www.w3.org/Graphics/SVG/1.1/DTD/svg11.dtd">
<svg version="1.1" id="Layer_1" xmlns="http://www.w3.org/2000/svg" xmlns:xlink="http://www.w3.org/1999/xlink" x="0px" y="0px"
	 viewBox="0 0 36 36" enable-background="new 0 0 36 36" xml:space="preserve">
<g>
	<g>
		<g>
			<g>
				<g>
					<g>
						<path fill="#D34178" d="M29,19c0,7.1-11,14.8-11,14.8S7,26.1,7,19c0-4,3.1-7.3,6.9-7.3c1.5,0,3,0.5,4.1,1.4
							c1.1-0.9,2.6-1.4,4.1-1.4C25.9,11.8,29,15,29,19z"/>
					</g>
				</g>
			</g>
		</g>
		<g>
			<g>
				<g>
					<g>
						<path fill="#BC3267" d="M29,19c0,6.9-10.4,14.3-11,14.8c0.6-0.6,8.5-8,8.5-14.8c0-3.6-2.4-6.5-5.6-7.1
							c0.4-0.1,0.8-0.1,1.2-0.1C25.9,11.8,29,15,29,19z"/>
					</g>
				</g>
			</g>
		</g>
		<g>
			<g>
				<g>
					<g>
						
							<ellipse transform="matrix(0.7071 -0.7071 0.7071 0.7071 -8.2121 12.7806)" fill="#E84E89" cx="11.3" cy="16.3" rx="3.1" ry="1.6"/>
					</g>
				</g>
			</g>
		</g>
	</g>
	<g>
		<g>
			<g>
				<g>
					<g>
						<path fill="#3F4448" d="M19.7,2.3c-0.9-0.2-2.4-0.2-3.4,0c-1.6,0.2-4.3,1.3-6.1,3.6c1-0.6,3.2-2.3,6.2-2.6
							c0.7-0.1,2.3-0.1,3.1,0c3,0.3,5.2,1.9,6.2,2.6C23.9,3.5,21.1,2.4,19.7,2.3z"/>
					</g>
				</g>
			</g>
		</g>
		<g>
			<g>
				<g>
					<g>
						<path fill="#3F4448" d="M18,5.4c-3,0.2-4.4,1.3-5.5,2.8c1.1-0.6,2.9-1.7,5.5-1.7c2.5,0,4.3,1.1,5.5,1.7
							C22,6.1,20.1,5.5,18,5.4z"/>
					</g>
				</g>
			</g>
		</g>
		<g>
			<g>
				<g>
					<g>
						<path fill="#3F4448" d="M18,8.6c-1.7,0.1-2.7,0.9-3.2,1.9c1-0.4,1.8-0.8,3.2-0.8c1.4,0,2.2,0.4,3.2,0.8
							C20.6,9.2,19.4,8.7,18,8.6z"/>
					</g>
				</g>
			</g>
		</g>
	</g>
</g>
</svg>
