<?xml version="1.0" encoding="utf-8"?>
<!-- Generator: Adobe Illustrator 18.0.0, SVG Export Plug-In . SVG Version: 6.00 Build 0)  -->
<!DOCTYPE svg PUBLIC "-//W3C//DTD SVG 1.1//EN" "http://www.w3.org/Graphics/SVG/1.1/DTD/svg11.dtd">
<svg version="1.1" id="Layer_1" xmlns="http://www.w3.org/2000/svg" xmlns:xlink="http://www.w3.org/1999/xlink" x="0px" y="0px"
	 viewBox="0 0 36 36" enable-background="new 0 0 36 36" xml:space="preserve">
<g>
	<g>
		<g>
			<g>
				<g>
					<circle fill="#F4C533" cx="18" cy="18" r="16"/>
				</g>
			</g>
		</g>
	</g>
	<g>
		<g>
			<g>
				<g>
					<path fill="#E9B12B" d="M34,18c0,8.8-7.2,16-16,16c-5.1,0-9.6-2.3-12.5-6c2.7,2.2,6.2,3.5,10,3.5c8.8,0,16-7.2,16-16
						c0-3.8-1.3-7.3-3.5-10C31.7,8.4,34,12.9,34,18z"/>
				</g>
			</g>
		</g>
	</g>
	<g>
		<g>
			<g>
				<g>
					<g>
						<g>
							<path fill="#E9B12B" d="M18,24.5c-3.6,0-6.5-2.9-6.5-6.5c0-3.6,2.9-6.5,6.5-6.5s6.5,2.9,6.5,6.5C24.5,21.6,21.6,24.5,18,24.5
								z M18,13c-2.8,0-5,2.2-5,5c0,2.8,2.2,5,5,5c2.8,0,5-2.3,5-5C23,15.3,20.8,13,18,13z"/>
						</g>
					</g>
				</g>
			</g>
		</g>
		<g>
			<g>
				<g>
					<g>
						<g>
							<g>
								<path fill="#FFFFFF" d="M26.6,15.8c-1.1-0.6-2.2-0.9-3.4-0.9c0.5-0.9,0.7-1.9,0.7-2.9c0-2.1-1-3.9-2.6-5
									c0.8,0.9,1.4,2.1,1.4,3.4c0,2.8-2.2,5-5,5c-2.8,0-5-2.2-5-5c0-1.3,0.5-2.5,1.4-3.4c-1.6,1.1-2.6,3-2.6,5
									c0,1.1,0.3,2,0.7,2.9c-1,0.1-1.9,0.3-2.8,0.9c-1.8,1.1-2.8,2.9-3,4.8c0.3-1.2,1.1-2.3,2.2-2.9c2.4-1.4,5.4-0.6,6.8,1.7
									c1.4,2.4,0.6,5.4-1.7,6.8c-1.1,0.7-2.5,0.9-3.7,0.6c1.8,0.8,3.9,0.7,5.7-0.4c0.9-0.6,1.7-1.3,2.2-2.2
									c0.5,0.9,1.3,1.7,2.2,2.2c1.8,1.1,3.9,1.1,5.7,0.4c-1.2,0.3-2.5,0.1-3.7-0.6c-2.4-1.4-3.1-4.5-1.7-6.8
									c1.4-2.4,4.5-3.1,6.9-1.7c1.1,0.7,1.9,1.7,2.2,2.9C29.4,18.6,28.3,16.8,26.6,15.8z M18,19.9c-1,0-1.8-0.8-1.8-1.8
									c0-1,0.8-1.8,1.8-1.8c1,0,1.8,0.8,1.8,1.8C19.8,19.1,19,19.9,18,19.9z"/>
							</g>
						</g>
					</g>
				</g>
			</g>
		</g>
	</g>
</g>
</svg>
