<?xml version="1.0" encoding="utf-8"?>
<!-- Generator: Adobe Illustrator 18.0.0, SVG Export Plug-In . SVG Version: 6.00 Build 0)  -->
<!DOCTYPE svg PUBLIC "-//W3C//DTD SVG 1.1//EN" "http://www.w3.org/Graphics/SVG/1.1/DTD/svg11.dtd">
<svg version="1.1" id="Layer_1" xmlns="http://www.w3.org/2000/svg" xmlns:xlink="http://www.w3.org/1999/xlink" x="0px" y="0px"
	 viewBox="0 0 36 36" enable-background="new 0 0 36 36" xml:space="preserve">
<g>
	<g>
		<g>
			<g>
				<g>
					<path fill="#7FB241" d="M14.2,33.1c0.6-1.1,1.6-2.8,1.7-5.3l0.2-3.6h3.9l0.2,3.6c0.1,1.5,0.5,3,1.3,4.4l0.5,0.9
						c0.2,0.4,0,0.9-0.3,0.9h-7C14.1,34,14,33.5,14.2,33.1z"/>
				</g>
			</g>
		</g>
	</g>
	<g>
		<g>
			<g>
				<g>
					<path fill="#7FB241" d="M32.5,21.1c0,4.2-3.4,7.6-7.6,7.6c-3.1,0-5.8-1.9-6.9-4.5c-1.2,2.7-3.8,4.5-6.9,4.5
						c-4.2,0-7.6-3.4-7.6-7.6c0-4.1,3.4-7.8,8.1-7.6c-0.7-1.2-1.2-2.5-1.2-4C10.4,5.4,13.8,2,18,2s7.6,3.4,7.6,7.6
						c0,1.5-0.4,2.8-1.2,4C29.1,13.4,32.5,17,32.5,21.1z"/>
				</g>
			</g>
		</g>
	</g>
	<g>
		<g>
			<g>
				<g>
					<path fill="#8DC640" d="M12.4,9.6c-0.4-1.7,0.2-3.1,1.3-4.3C15,4.1,16.4,3.6,18,4c-1.2,0.4-2.5,0.9-3.6,2
						C13.1,7.3,12.8,8.6,12.4,9.6z"/>
				</g>
			</g>
		</g>
	</g>
	<g>
		<g>
			<g>
				<g>
					<path fill="#8DC640" d="M5.5,21.1c-0.3-1.4,0.1-3.1,1.4-4.4c1.1-1,2.9-1.6,4.5-1.1c-1,0.3-2.8,0.7-3.9,1.8
						C6.4,18.4,5.9,20.1,5.5,21.1z"/>
				</g>
			</g>
		</g>
	</g>
</g>
</svg>
