<?xml version="1.0" encoding="utf-8"?>
<!-- Generator: Adobe Illustrator 18.0.0, SVG Export Plug-In . SVG Version: 6.00 Build 0)  -->
<!DOCTYPE svg PUBLIC "-//W3C//DTD SVG 1.1//EN" "http://www.w3.org/Graphics/SVG/1.1/DTD/svg11.dtd">
<svg version="1.1" id="Layer_1" xmlns="http://www.w3.org/2000/svg" xmlns:xlink="http://www.w3.org/1999/xlink" x="0px" y="0px"
	 viewBox="0 0 36 36" enable-background="new 0 0 36 36" xml:space="preserve">
<g>
	<g>
		<g>
			<g>
				<g>
					<g>
						<path fill="#719E40" d="M25.4,23.4c-0.5-0.2-0.8-0.8-0.6-1.3c1.3-3.3-0.7-8.8-0.8-8.8c-0.2-0.5,0.1-1.1,0.6-1.3
							c0.5-0.2,1.1,0.1,1.3,0.6c0.1,0.3,2.3,6.2,0.8,10.3C26.5,23.4,25.9,23.6,25.4,23.4z"/>
					</g>
				</g>
			</g>
		</g>
	</g>
	<g>
		<g>
			<g>
				<g>
					<g>
						<path fill="#719E40" d="M13.5,22.8c-0.5-0.2-0.8-0.8-0.6-1.3c1.1-2.7-0.2-7.3-0.8-8.8c-0.2-0.5,0.1-1.1,0.6-1.3
							c0.5-0.2,1.1,0.1,1.3,0.6c0.1,0.3,2.3,6.2,0.8,10.3C14.6,22.7,14,23,13.5,22.8z"/>
					</g>
				</g>
			</g>
		</g>
	</g>
	<g>
		<g>
			<g>
				<g>
					<g>
						<path fill="#658A3B" d="M3.6,22.3c-2.1-2.4-2.1-6.4,0-8.9c3.4-3.9,11.7-2.3,12.8-2.1c0,0,0.1,0,0.1,0
							c2.3,0.5,8.6,1.2,10.9-1.4c1.5-1.7,1.5-4.5,0-6.2c-0.4-0.4-0.3-1,0.1-1.4c0.4-0.4,1-0.3,1.4,0.1c2.1,2.4,2.1,6.4,0,8.9
							c-3.4,3.9-11.7,2.3-12.8,2.1c0,0-0.1,0-0.1,0c-2.3-0.5-8.6-1.2-10.9,1.4c-1.5,1.7-1.5,4.5,0,6.2c0.4,0.4,0.3,1-0.1,1.4
							C4.6,22.8,3.9,22.7,3.6,22.3z"/>
					</g>
				</g>
			</g>
		</g>
	</g>
	<g>
		<g>
			<g>
				<g>
					<g>
						<g>
							<path fill="#7FB241" d="M21.8,24.9c-0.6,2.2-3.3,2.7-3.5,2.7c-1.3,0.3-2.2,0.9-2.5,1.6c-0.2,0.5-0.1,1-0.1,1
								c0.2,0.5,0.5,0.5,0.6,0.5c0.5,0,1.2-0.6,1.4-0.9c0.2-0.2,0.5-0.3,0.7-0.1c0.2,0.1,0.4,0.4,0.4,0.6c-0.2,1.9-1.4,3.2-3.2,3.6
								C15.2,34,14.8,34,14.5,34c-0.6,0-1.3-0.1-1.9-0.3c-2.2-0.7-7.2-3-6.9-8.9c0.1-3.1,2.2-5.5,4.8-5.5c1.1,0,2.1,0.4,2.9,1.1
								c0.4,0.5,0.7,0.7,1.2,0.6c2-2.3,4.8-1.5,4.9-1.5C22.4,20.7,22.3,23.5,21.8,24.9z"/>
						</g>
					</g>
				</g>
			</g>
		</g>
	</g>
	<g>
		<g>
			<g>
				<g>
					<g>
						<g>
							<path fill="#8DC640" d="M33.7,24.9c-0.6,2.2-3.3,2.7-3.5,2.7c-1.3,0.3-2.2,0.9-2.5,1.6c-0.2,0.5-0.1,1-0.1,1
								c0.2,0.5,0.5,0.5,0.6,0.5c0.5,0,1.2-0.6,1.4-0.9c0.2-0.2,0.5-0.3,0.7-0.1c0.2,0.1,0.4,0.4,0.4,0.6c-0.2,1.9-1.4,3.2-3.2,3.6
								C27.2,34,26.8,34,26.4,34c-0.6,0-1.3-0.1-1.9-0.3c-2.2-0.7-7.2-3-6.9-8.9c0.1-3.1,2.2-5.5,4.8-5.5c1.1,0,2.1,0.4,2.9,1.1
								c0.4,0.5,0.7,0.7,1.2,0.6c2-2.3,4.8-1.5,4.9-1.5C34.4,20.7,34.2,23.5,33.7,24.9z"/>
						</g>
					</g>
				</g>
			</g>
		</g>
	</g>
	<g opacity="0.2">
		<g>
			<g>
				<g>
					<g>
						<g>
							<path fill="#FFFFFF" d="M20.1,28.3c-0.6-0.9-1-2-0.9-3.4c0.1-2.2,1.5-3.9,3.4-3.9c0.7,0,1.4,0.3,2,0.8
								C25.5,22.7,21.2,30,20.1,28.3z"/>
						</g>
					</g>
				</g>
			</g>
		</g>
	</g>
	<g>
		<g>
			<g>
				<g>
					<g>
						<g>
							<path fill="#8DC640" d="M8.2,28.3c-0.6-0.9-1-2-0.9-3.4c0.1-2.2,1.5-3.9,3.4-3.9c0.7,0,1.4,0.3,2,0.8
								C13.6,22.7,9.3,30,8.2,28.3z"/>
						</g>
					</g>
				</g>
			</g>
		</g>
	</g>
</g>
</svg>
