<?xml version="1.0" encoding="utf-8"?>
<!-- Generator: Adobe Illustrator 18.0.0, SVG Export Plug-In . SVG Version: 6.00 Build 0)  -->
<!DOCTYPE svg PUBLIC "-//W3C//DTD SVG 1.1//EN" "http://www.w3.org/Graphics/SVG/1.1/DTD/svg11.dtd">
<svg version="1.1" id="Layer_1" xmlns="http://www.w3.org/2000/svg" xmlns:xlink="http://www.w3.org/1999/xlink" x="0px" y="0px"
	 viewBox="0 0 36 36" enable-background="new 0 0 36 36" xml:space="preserve">
<g>
	<g>
		<g>
			<g>
				<g>
					<circle fill="#7FB241" cx="18" cy="18" r="16"/>
				</g>
			</g>
		</g>
	</g>
	<g>
		<g>
			<g>
				<g>
					<path fill="#719E40" d="M34,18c0,8.8-7.2,16-16,16c-5.1,0-9.6-2.3-12.5-6c2.7,2.2,6.2,3.5,10,3.5c8.8,0,16-7.2,16-16
						c0-3.8-1.3-7.3-3.5-10C31.7,8.4,34,12.9,34,18z"/>
				</g>
			</g>
		</g>
	</g>
	<g>
		<g>
			<g>
				<g>
					<g>
						<g>
							<polygon fill="#FFFFFF" points="18,18 18,18 18,18 							"/>
						</g>
					</g>
				</g>
			</g>
			<g>
				<g>
					<g>
						<g>
							<path fill="#FFFFFF" d="M20,15c-0.2,0.3-0.6,0.5-1,0.3c-0.3-0.1-0.6-0.2-0.9-0.2c-0.3,0-0.7,0.1-1,0.2c-0.4,0.1-0.8,0-1-0.3
								l-3.5-5.4c-0.3-0.4-0.1-1,0.3-1.2C14.4,7.5,16.1,7,18,7s3.6,0.5,5.1,1.3c0.4,0.2,0.6,0.8,0.3,1.2L20,15z"/>
						</g>
					</g>
				</g>
			</g>
			<g>
				<g>
					<g>
						<g>
							<path fill="#FFFFFF" d="M15.9,20c0.3,0.3,0.3,0.7,0.1,1.1l-3.5,5.4c-0.3,0.4-0.9,0.5-1.3,0.2c-2.3-1.8-3.9-4.6-4.2-7.7
								c0-0.5,0.3-1,0.9-1h6.4c0.4,0,0.7,0.3,0.8,0.7C15.3,19.2,15.6,19.6,15.9,20z"/>
						</g>
					</g>
				</g>
			</g>
			<g>
				<g>
					<g>
						<g>
							<path fill="#FFFFFF" d="M28.9,19c-0.3,3.1-1.8,5.9-4.2,7.7c-0.4,0.3-1,0.2-1.3-0.2L20,21c-0.2-0.3-0.2-0.8,0.1-1.1
								c0.3-0.4,0.6-0.8,0.7-1.3c0.1-0.4,0.4-0.7,0.8-0.7h6.4C28.6,18,29,18.5,28.9,19z"/>
						</g>
					</g>
				</g>
			</g>
		</g>
		<g>
			<g>
				<g>
					<g>
						<circle fill="#FFFFFF" cx="18" cy="18" r="1.8"/>
					</g>
				</g>
			</g>
		</g>
	</g>
</g>
</svg>
