<?xml version="1.0" encoding="utf-8"?>
<!-- Generator: Adobe Illustrator 18.0.0, SVG Export Plug-In . SVG Version: 6.00 Build 0)  -->
<!DOCTYPE svg PUBLIC "-//W3C//DTD SVG 1.1//EN" "http://www.w3.org/Graphics/SVG/1.1/DTD/svg11.dtd">
<svg version="1.1" id="Layer_1" xmlns="http://www.w3.org/2000/svg" xmlns:xlink="http://www.w3.org/1999/xlink" x="0px" y="0px"
	 viewBox="0 0 36 36" enable-background="new 0 0 36 36" xml:space="preserve">
<g>
	<g>
		<g>
			<g>
				<g>
					<g>
						<g>
							<path fill="#8DC640" d="M30.5,31c-4.9,4-20.2,4-25,0S1.1,9.9,5.5,5.4c4.4-4.5,20.6-4.5,25,0C34.9,9.9,35.4,27,30.5,31z"/>
						</g>
					</g>
				</g>
			</g>
		</g>
		<g opacity="0.2">
			<g>
				<g>
					<g>
						<path fill="#FFFFFF" d="M18.1,24c-4.4,3.5-9.3,5.3-13.9,5.4c-3.4-5.8-2.7-19.9,1.3-24C9.1,1.7,20.4,1,26.9,3.3
							C28.5,9.9,25.2,18.3,18.1,24z"/>
					</g>
				</g>
			</g>
		</g>
	</g>
	<g>
		<g>
			<g>
				<g>
					<path fill="#FFFFFF" d="M29.7,13.9c-0.9-0.9-2.2-1.4-3.5-1.4c-1.1,0-2.1,0.3-2.9,0.9c-3.1-2.6-7.6-2.6-10.6,0
						c-0.8-0.6-1.8-0.9-2.9-0.9c-1.3,0-2.5,0.5-3.5,1.4C6,14.2,6,14.7,6.3,15c0.3,0.3,0.8,0.3,1.1,0c0.6-0.6,1.5-1,2.4-1
						c0.6,0,1.1,0.1,1.6,0.4c-1.3,1.1-3.6,3.2-3.6,5.2c0,2.7,2.2,4.9,4.9,4.9c2.7,0,4.9-2.2,4.9-4.9c0-2-2.4-4.2-3.6-5.2
						c2.4-1.8,5.7-1.8,8.1,0c-1.3,1-3.6,3.2-3.6,5.2c0,2.7,2.2,4.9,4.9,4.9c2.7,0,4.9-2.2,4.9-4.9c0-2-2.3-4.1-3.6-5.2
						c0.5-0.3,1-0.4,1.6-0.4c0.9,0,1.7,0.3,2.4,1c0.3,0.3,0.8,0.3,1.1,0C30,14.7,30,14.2,29.7,13.9z M16,19.6c0,1.8-1.5,3.3-3.3,3.3
						s-3.3-1.5-3.3-3.3c0-1.2,1.9-3.1,3.3-4.2C14.1,16.5,16,18.4,16,19.6z M26.6,19.6c0,1.8-1.5,3.3-3.3,3.3c-1.8,0-3.3-1.5-3.3-3.3
						c0-1.2,1.9-3.1,3.3-4.2C24.7,16.5,26.6,18.4,26.6,19.6z"/>
				</g>
			</g>
		</g>
	</g>
</g>
</svg>
