<?xml version="1.0" encoding="utf-8"?>
<!-- Generator: Adobe Illustrator 18.0.0, SVG Export Plug-In . SVG Version: 6.00 Build 0)  -->
<!DOCTYPE svg PUBLIC "-//W3C//DTD SVG 1.1//EN" "http://www.w3.org/Graphics/SVG/1.1/DTD/svg11.dtd">
<svg version="1.1" id="Layer_1" xmlns="http://www.w3.org/2000/svg" xmlns:xlink="http://www.w3.org/1999/xlink" x="0px" y="0px"
	 viewBox="0 0 36 36" enable-background="new 0 0 36 36" xml:space="preserve">
<g>
	<g>
		<g>
			<g>
				<g>
					<path fill="#5CA4DA" d="M34,14c0,10.3-15.9,18.6-15.9,18.6S2,24.2,2,14C2,8.2,6.5,3.5,12,3.5c2.2,0,4.3,0.8,6,2.1
						c1.7-1.3,3.7-2.1,6-2.1C29.5,3.5,34,8.2,34,14z"/>
				</g>
			</g>
		</g>
	</g>
	<g>
		<g>
			<g>
				<g>
					<path fill="#4E9AD4" d="M34,14C34,24.2,18,32.6,18,32.6s-0.1-0.1-0.2-0.2C19.4,30.9,30,23.5,30,14c0-5.1-3.4-9.3-8-10.3
						c0.6-0.1,1.3-0.2,2-0.2C29.5,3.4,34,8.2,34,14z"/>
				</g>
			</g>
		</g>
	</g>
	<g>
		<g>
			<g>
				<g>
					<path fill="#438EC4" d="M18.5,14.5l-3.3,5l1.9,6.6l-2.8-6.5l-0.1-0.2l0.1-0.2l2.5-5L13.8,10l-0.4-0.5l0.3-0.7l2-4.7
						C16.6,4.6,17.3,5,18,5.5c0.2-0.1,0.4-0.3,0.6-0.4l-2.4,4.3l2.4,4.3l0.3,0.5L18.5,14.5z"/>
				</g>
			</g>
		</g>
	</g>
	<g>
		<g>
			<g>
				<g>
					
						<ellipse transform="matrix(0.7071 -0.7071 0.7071 0.7071 -4.2117 8.1569)" fill="#6DAFE0" cx="7.7" cy="9.2" rx="3.1" ry="1.5"/>
				</g>
			</g>
		</g>
	</g>
</g>
</svg>
