<?xml version="1.0" encoding="utf-8"?>
<!-- Generator: Adobe Illustrator 18.0.0, SVG Export Plug-In . SVG Version: 6.00 Build 0)  -->
<!DOCTYPE svg PUBLIC "-//W3C//DTD SVG 1.1//EN" "http://www.w3.org/Graphics/SVG/1.1/DTD/svg11.dtd">
<svg version="1.1" id="Layer_1" xmlns="http://www.w3.org/2000/svg" xmlns:xlink="http://www.w3.org/1999/xlink" x="0px" y="0px"
	 viewBox="0 0 36 36" enable-background="new 0 0 36 36" xml:space="preserve">
<g>
	<g>
		<g>
			<g>
				<g>
					<g>
						<g>
							<path fill="#8DC640" d="M30.5,31c-4.9,4-20.2,4-25,0c-4.9-4-4.4-21.1,0-25.6s20.6-4.5,25,0S35.4,27,30.5,31z"/>
						</g>
					</g>
				</g>
			</g>
		</g>
		<g opacity="0.2">
			<g>
				<g>
					<g>
						<path fill="#FFFFFF" d="M18.1,24c-4.4,3.5-9.3,5.3-13.9,5.4c-3.4-5.8-2.7-19.9,1.3-24C9.1,1.7,20.4,1,26.9,3.3
							C28.5,9.9,25.2,18.3,18.1,24z"/>
					</g>
				</g>
			</g>
		</g>
	</g>
	<g>
		<g>
			<g>
				<g>
					<g>
						<path fill="#FFFFFF" d="M9.7,10h4.1v2.9l-0.7,8.3h-2.7l-0.7-8.3V10z M9.7,24.3c0-1.1,0.9-2,2-2c1.1,0,2,0.9,2,2
							c0,1.1-0.9,2-2,2C10.6,26.3,9.7,25.5,9.7,24.3z"/>
					</g>
				</g>
			</g>
		</g>
		<g>
			<g>
				<g>
					<g>
						<path fill="#FFFFFF" d="M23,21.4h-3.5v-1.7c0-0.6,0.1-1.1,0.2-1.4c0.2-0.3,0.5-0.7,1-1.3l1.6-1.6c0.2-0.3,0.3-0.6,0.3-1.1
							c0-0.4-0.1-0.8-0.4-1.1c-0.2-0.3-0.6-0.4-1-0.4c-0.4,0-0.7,0.2-1,0.5c-0.3,0.3-0.4,0.8-0.5,1.4h-3.7c0.2-1.5,0.7-2.7,1.7-3.6
							c1-0.9,2.1-1.3,3.6-1.3c1.4,0,2.6,0.4,3.5,1.2c0.9,0.8,1.3,1.9,1.3,3.3c0,0.6-0.1,1.1-0.2,1.4c-0.2,0.3-0.3,0.5-0.3,0.6
							c-0.1,0.1-0.2,0.3-0.4,0.6c-0.2,0.3-0.4,0.4-0.4,0.5c-0.4,0.4-0.7,0.7-1,1c-0.3,0.3-0.5,0.6-0.7,0.8C23.1,19.2,23,19.6,23,20
							V21.4z M19.3,24.3c0-1.1,0.9-2,2-2c1.1,0,2,0.9,2,2c0,1.1-0.9,2-2,2C20.2,26.3,19.3,25.5,19.3,24.3z"/>
					</g>
				</g>
			</g>
		</g>
	</g>
</g>
</svg>
