<?xml version="1.0" encoding="utf-8"?>
<!-- Generator: Adobe Illustrator 18.0.0, SVG Export Plug-In . SVG Version: 6.00 Build 0)  -->
<!DOCTYPE svg PUBLIC "-//W3C//DTD SVG 1.1//EN" "http://www.w3.org/Graphics/SVG/1.1/DTD/svg11.dtd">
<svg version="1.1" id="Layer_1" xmlns="http://www.w3.org/2000/svg" xmlns:xlink="http://www.w3.org/1999/xlink" x="0px" y="0px"
	 viewBox="0 0 36 36" enable-background="new 0 0 36 36" xml:space="preserve">
<g>
	<g>
		<g>
			<g>
				<g>
					<g>
						<g>
							<path fill="#8DC640" d="M30.5,31c-4.9,4-20.2,4-25,0c-4.9-4-4.4-21.1,0-25.6s20.6-4.5,25,0S35.4,27,30.5,31z"/>
						</g>
					</g>
				</g>
			</g>
		</g>
		<g opacity="0.2">
			<g>
				<g>
					<g>
						<path fill="#FFFFFF" d="M18.1,24c-4.4,3.5-9.3,5.3-13.9,5.4c-3.4-5.8-2.7-19.9,1.3-24C9.1,1.7,20.4,1,26.9,3.3
							C28.5,9.9,25.2,18.3,18.1,24z"/>
					</g>
				</g>
			</g>
		</g>
	</g>
	<g>
		<g>
			<g>
				<g>
					<g>
						<path fill="#FFFFFF" d="M15.7,26.9c-0.7,0-1.4-0.3-1.8-0.9l-5.6-7.2c-0.8-1-0.6-2.4,0.4-3.2c1-0.8,2.4-0.6,3.2,0.4l3.8,4.9
							L24.1,10c0.8-1,2.2-1.2,3.2-0.4c1,0.8,1.2,2.2,0.4,3.2L17.5,26C17,26.5,16.4,26.9,15.7,26.9z"/>
					</g>
				</g>
			</g>
		</g>
	</g>
</g>
</svg>
