<?xml version="1.0" encoding="utf-8"?>
<!-- Generator: Adobe Illustrator 18.0.0, SVG Export Plug-In . SVG Version: 6.00 Build 0)  -->
<!DOCTYPE svg PUBLIC "-//W3C//DTD SVG 1.1//EN" "http://www.w3.org/Graphics/SVG/1.1/DTD/svg11.dtd">
<svg version="1.1" id="Layer_1" xmlns="http://www.w3.org/2000/svg" xmlns:xlink="http://www.w3.org/1999/xlink" x="0px" y="0px"
	 viewBox="0 0 36 36" enable-background="new 0 0 36 36" xml:space="preserve">
<g>
	<g>
		<g>
			<g>
				<g>
					<path fill="#9B7960" d="M30.6,34H5.4C3.5,34,2,32.5,2,30.6V5.4C2,3.5,3.5,2,5.4,2h25.2C32.5,2,34,3.5,34,5.4v25.2
						C34,32.5,32.5,34,30.6,34z"/>
				</g>
			</g>
		</g>
	</g>
	<g>
		<g>
			<g>
				<g>
					<path fill="#A5856E" d="M27.8,2c-1.2,5.2-4.3,10.8-9.1,15.6C13.6,22.7,7.5,25.9,2,26.9V5.4C2,3.5,3.5,2,5.4,2H27.8z"/>
				</g>
			</g>
		</g>
	</g>
	<g>
		<g>
			<g>
				<g>
					<g>
						<g>
							<path fill="#FFFFFF" d="M28.9,22.2l-4.2,5.6c-0.3,0.5-1,0.5-1.4,0l-4.2-5.6c-0.4-0.6,0-1.4,0.7-1.4h8.3
								C28.9,20.8,29.3,21.6,28.9,22.2z"/>
						</g>
					</g>
				</g>
			</g>
		</g>
		<g>
			<g>
				<g>
					<g>
						<path fill="#FFFFFF" d="M7.1,13.8l4.2-5.6c0.3-0.5,1-0.5,1.4,0l4.2,5.6c0.4,0.6,0,1.4-0.7,1.4H7.8C7.1,15.2,6.7,14.4,7.1,13.8
							z"/>
					</g>
				</g>
			</g>
		</g>
		<g>
			<g>
				<g>
					<g>
						<path fill="#FFFFFF" d="M26.1,14.7v10.7H22V14.7c0-1.8-1.5-3.2-3.2-3.2h-0.6V7.3h0.6C22.8,7.3,26.1,10.6,26.1,14.7z"/>
					</g>
				</g>
			</g>
		</g>
		<g>
			<g>
				<g>
					<g>
						<path fill="#FFFFFF" d="M17.3,24.5h0.6v4.2h-0.6c-4.1,0-7.4-3.3-7.4-7.4V10.6H14v10.7C14,23.1,15.5,24.5,17.3,24.5z"/>
					</g>
				</g>
			</g>
		</g>
	</g>
</g>
</svg>
