<?xml version="1.0" encoding="utf-8"?>
<!-- Generator: Adobe Illustrator 18.0.0, SVG Export Plug-In . SVG Version: 6.00 Build 0)  -->
<!DOCTYPE svg PUBLIC "-//W3C//DTD SVG 1.1//EN" "http://www.w3.org/Graphics/SVG/1.1/DTD/svg11.dtd">
<svg version="1.1" id="Layer_1" xmlns="http://www.w3.org/2000/svg" xmlns:xlink="http://www.w3.org/1999/xlink" x="0px" y="0px"
	 viewBox="0 0 36 36" enable-background="new 0 0 36 36" xml:space="preserve">
<g>
	<g>
		<g>
			<g>
				<g>
					<path fill="#9B7960" d="M30.6,34H5.4C3.5,34,2,32.5,2,30.6V5.4C2,3.5,3.5,2,5.4,2h25.2C32.5,2,34,3.5,34,5.4v25.2
						C34,32.5,32.5,34,30.6,34z"/>
				</g>
			</g>
		</g>
	</g>
	<g>
		<g>
			<g>
				<g>
					<path fill="#A5856E" d="M27.8,2c-1.2,5.2-4.3,10.8-9.1,15.6C13.6,22.7,7.5,25.9,2,26.9V5.4C2,3.5,3.5,2,5.4,2H27.8z"/>
				</g>
			</g>
		</g>
	</g>
	<g>
		<g>
			<g>
				<g>
					<g>
						<g>
							<path fill="#FFFFFF" d="M15.6,16.9v1.5h10.7c0.6,0,1.1,0.5,1.1,1.1v5c0,0.6-0.5,1.1-1.1,1.1H15.6v1.5c0,0.9-1,1.4-1.7,0.9
								L7,22.9c-0.6-0.4-0.6-1.3,0-1.7l6.8-5.1C14.6,15.5,15.6,16.1,15.6,16.9z"/>
						</g>
					</g>
				</g>
			</g>
		</g>
		<g>
			<g>
				<g>
					<g>
						<g>
							<path fill="#FFFFFF" d="M10,13.4H7.6V7.9h2.1c0.4,0,0.7,0,1,0.1c0.3,0.1,0.5,0.2,0.6,0.4c0.2,0.3,0.4,0.6,0.4,1
								c0,0.4-0.1,0.8-0.4,1c-0.1,0.1-0.2,0.1-0.2,0.1c0,0-0.1,0-0.2,0.1c0.3,0.1,0.6,0.2,0.8,0.5c0.2,0.2,0.3,0.5,0.3,0.9
								c0,0.4-0.1,0.7-0.4,1C11.3,13.2,10.8,13.4,10,13.4z M8.8,10.1h0.6c0.3,0,0.6,0,0.8-0.1c0.2-0.1,0.2-0.2,0.2-0.5
								S10.3,9.1,10.2,9C10,9,9.8,8.9,9.4,8.9H8.8V10.1z M8.8,12.4h0.8c0.4,0,0.6,0,0.8-0.1c0.2-0.1,0.3-0.3,0.3-0.5
								s-0.1-0.4-0.3-0.5c-0.2-0.1-0.5-0.1-0.9-0.1H8.8V12.4z"/>
						</g>
					</g>
				</g>
			</g>
			<g>
				<g>
					<g>
						<g>
							<path fill="#FFFFFF" d="M16.9,13.4l-0.5-1.2h-2.3l-0.5,1.2h-1.3l2.4-5.5h1.2l2.4,5.5H16.9z M15.2,9.5l-0.7,1.6h1.4L15.2,9.5z
								"/>
						</g>
					</g>
				</g>
			</g>
			<g>
				<g>
					<g>
						<g>
							<path fill="#FFFFFF" d="M21.4,12.3c0.6,0,1.1-0.2,1.5-0.7l0.8,0.8c-0.6,0.7-1.4,1.1-2.2,1.1c-0.8,0-1.5-0.3-2.1-0.8
								c-0.5-0.5-0.8-1.2-0.8-2c0-0.8,0.3-1.5,0.8-2c0.6-0.5,1.2-0.8,2.1-0.8c0.9,0,1.7,0.3,2.3,1l-0.8,0.9
								c-0.4-0.5-0.9-0.7-1.4-0.7c-0.5,0-0.9,0.2-1.2,0.5c-0.3,0.3-0.5,0.7-0.5,1.2s0.2,0.9,0.5,1.2C20.5,12.2,20.9,12.3,21.4,12.3z
								"/>
						</g>
					</g>
				</g>
			</g>
			<g>
				<g>
					<g>
						<g>
							<path fill="#FFFFFF" d="M24.6,7.9h1.2v2.3l2.1-2.3h1.5l-2.2,2.4c0.2,0.3,0.5,0.8,1,1.5c0.5,0.7,0.9,1.3,1.1,1.6H28l-1.6-2.2
								l-0.6,0.6v1.6h-1.2V7.9z"/>
						</g>
					</g>
				</g>
			</g>
		</g>
	</g>
</g>
</svg>
