<?xml version="1.0" encoding="utf-8"?>
<!-- Generator: Adobe Illustrator 18.0.0, SVG Export Plug-In . SVG Version: 6.00 Build 0)  -->
<!DOCTYPE svg PUBLIC "-//W3C//DTD SVG 1.1//EN" "http://www.w3.org/Graphics/SVG/1.1/DTD/svg11.dtd">
<svg version="1.1" id="Layer_1" xmlns="http://www.w3.org/2000/svg" xmlns:xlink="http://www.w3.org/1999/xlink" x="0px" y="0px"
	 viewBox="0 0 36 36" enable-background="new 0 0 36 36" xml:space="preserve">
<g>
	<g>
		<g>
			<g>
				<g>
					<g>
						<g>
							<path fill="#D1403F" d="M30.5,31c-4.9,4-20.2,4-25,0c-4.9-4-4.4-21.1,0-25.6c4.4-4.5,20.6-4.5,25,0C34.9,9.9,35.4,27,30.5,31
								z"/>
						</g>
					</g>
				</g>
			</g>
		</g>
		<g>
			<g>
				<g>
					<g>
						<path fill="#E24C4B" d="M18.1,24c-4.4,3.5-9.3,5.3-13.9,5.4c-3.4-5.7-2.7-19.9,1.3-24C9.1,1.7,20.4,1,26.9,3.3
							C28.5,9.9,25.2,18.3,18.1,24z"/>
					</g>
				</g>
			</g>
		</g>
	</g>
	<g>
		<g>
			<g>
				<g>
					<g>
						<path fill="#FFFFFF" d="M22.8,16l2.1,3.5l3.2-11.2L17,11.5l3.5,2.1c-1.9,2.5-4.1,4.9-7.1,7.4c-1.1-1.2-2.2-2.6-3.3-4.4
							l-2.5,2.5c1.6,1.1,3,2.1,4.2,3.2c-0.9,0.7-1.8,1.3-2.7,2l3.1,3.1c0.7-1,1.3-1.9,2-2.7c1.2,1.4,2.2,2.7,3.2,4.2l2.5-2.5
							c-1.5-1-3-2-4.4-3.3C17.9,20.1,20.3,17.9,22.8,16z"/>
					</g>
				</g>
			</g>
		</g>
	</g>
</g>
</svg>
