<?xml version="1.0" encoding="utf-8"?>
<!-- Generator: Adobe Illustrator 18.0.0, SVG Export Plug-In . SVG Version: 6.00 Build 0)  -->
<!DOCTYPE svg PUBLIC "-//W3C//DTD SVG 1.1//EN" "http://www.w3.org/Graphics/SVG/1.1/DTD/svg11.dtd">
<svg version="1.1" id="Layer_1" xmlns="http://www.w3.org/2000/svg" xmlns:xlink="http://www.w3.org/1999/xlink" x="0px" y="0px"
	 viewBox="0 0 36 36" enable-background="new 0 0 36 36" xml:space="preserve">
<g>
	<g>
		<g>
			<g>
				<g>
					<g>
						<g>
							<path fill="#D1403F" d="M30.5,31c-4.9,4-20.2,4-25,0c-4.9-4-4.4-21.1,0-25.6c4.4-4.5,20.6-4.5,25,0S35.4,27,30.5,31z"/>
						</g>
					</g>
				</g>
			</g>
		</g>
		<g>
			<g>
				<g>
					<g>
						<path fill="#E24C4B" d="M18.1,24c-4.4,3.5-9.3,5.3-13.9,5.4c-3.4-5.7-2.7-19.9,1.3-24C9.1,1.7,20.4,1,26.9,3.3
							C28.5,9.9,25.2,18.3,18.1,24z"/>
					</g>
				</g>
			</g>
		</g>
	</g>
	<g>
		<g>
			<g>
				<g>
					<g>
						<path fill="#FFFFFF" d="M26.3,19c-0.8-1.4-0.9-2.6-0.9-3.4c1.7-0.3,3-1.8,3-3.6c0-2-1.7-3.7-3.7-3.7c-2,0-3.7,1.6-3.7,3.7
							c0,0.8,0.3,1.6,0.8,2.3c-2.7-0.2-4.4-2.6-4.4-2.6L17,11.2l-1.8,8c-1.2-9-3.1-10.5-3.1-10.5c-0.4-0.4-0.8-0.6-1.3-0.6
							c-1.8,0-3.2,3.4-3.3,3.5l-0.1,0.2l1.8,0.7l0.1-0.3c0.5-1.5,1.2-2.1,1.5-2.3c2.1,2.7,3,15.5,3,15.6l0,0.2l1.8,0.1l2.5-11
							c1.4,1,2.8,1.2,3.7,1.2c0.6,0,1.1-0.1,1.4-0.2c0.1,3.1,1.6,4.5,1.6,4.6c1.3,1.1,1.6,2.4,1.6,2.4c0.6,2.3-2.5,3.4-2.6,3.4
							l-0.2,0.1l0.7,1.8l0.2-0.1c4.1-1.3,3.9-4.3,3.9-4.6C28.8,21.3,26.6,19.3,26.3,19z M24.7,10.3c0.9,0,1.7,0.7,1.7,1.7
							c0,0.9-0.8,1.7-1.7,1.7c-0.9,0-1.7-0.7-1.7-1.7C23,11,23.8,10.3,24.7,10.3z"/>
					</g>
				</g>
			</g>
		</g>
	</g>
</g>
</svg>
