<?xml version="1.0" encoding="utf-8"?>
<!-- Generator: Adobe Illustrator 18.0.0, SVG Export Plug-In . SVG Version: 6.00 Build 0)  -->
<!DOCTYPE svg PUBLIC "-//W3C//DTD SVG 1.1//EN" "http://www.w3.org/Graphics/SVG/1.1/DTD/svg11.dtd">
<svg version="1.1" id="Layer_1" xmlns="http://www.w3.org/2000/svg" xmlns:xlink="http://www.w3.org/1999/xlink" x="0px" y="0px"
	 viewBox="0 0 36 36" enable-background="new 0 0 36 36" xml:space="preserve">
<g>
	<g>
		<g>
			<g>
				<g>
					<g>
						<g>
							<g>
								<path fill="#906E53" d="M25.3,6.6c-0.5,0-2.1,0.2-3.2,0.4v1.9c1.1,0.3,2.7,0.4,3.2,0.4c1.1,0,1.4-0.6,1.4-1.4
									C26.7,7.2,26.4,6.6,25.3,6.6z"/>
							</g>
						</g>
					</g>
				</g>
				<g>
					<g>
						<g>
							<g>
								<path fill="#906E53" d="M14.9,6.6c0.5,0,2.1,0.2,3.2,0.4v1.9c-1.1,0.3-2.7,0.4-3.2,0.4c-1.1,0-1.4-0.6-1.4-1.4
									C13.5,7.2,13.9,6.6,14.9,6.6z"/>
							</g>
						</g>
					</g>
				</g>
			</g>
			<g>
				<g>
					<g>
						<g>
							<g>
								<rect x="19.1" y="8.3" fill="#3F4448" width="2" height="6.1"/>
							</g>
						</g>
					</g>
				</g>
			</g>
			<g>
				<g>
					<g>
						<g>
							<g>
								<path fill="#9B7960" d="M22.6,14.2v-0.9c0-0.2-0.2-0.4-0.4-0.4h-4.1c-0.2,0-0.4,0.2-0.4,0.4v0.9H22.6z"/>
							</g>
						</g>
					</g>
				</g>
			</g>
			<g>
				<g>
					<g>
						<g>
							<path fill="#906E53" d="M28.3,18.9v5.4c-1.8,0.3-3.6,0.8-5.4,1.5c-0.8,0.3-1.6,0.5-2.5,0.5c-1.1,0-2.1-0.3-3-0.7
								c-1.5-0.8-3.1-1.3-4.7-1.5c-0.7-0.1-1.4,0.5-1.5,1.2l-0.1,2.1H6.2v-3.2c0-2.8,2.3-5.1,5.1-5.1c1.4,0,2.8-0.2,4.1-0.7
								c1-0.3,1.6-1.3,1.6-2.3v-1.4h6.2v1c0,1,0.7,2,1.7,2.3C26,18.4,27.2,18.7,28.3,18.9z"/>
						</g>
					</g>
				</g>
			</g>
			<g>
				<g>
					<g>
						<g>
							<path fill="#DAE5EE" d="M21.9,9.3h-3.6C18.1,9.3,18,9.2,18,9V6.9c0-0.2,0.2-0.3,0.3-0.3h3.6c0.2,0,0.3,0.2,0.3,0.3V9
								C22.3,9.2,22.1,9.3,21.9,9.3z"/>
						</g>
					</g>
				</g>
			</g>
		</g>
		<g>
			<g>
				<g>
					<g>
						<g>
							<path fill="#A5856E" d="M12.4,28.2c0,0.7-0.6,1.3-1.3,1.3h-5c-0.7,0-1.3-0.6-1.3-1.3c0-0.7,0.6-1.3,1.3-1.3h5
								C11.9,26.9,12.4,27.5,12.4,28.2z"/>
						</g>
					</g>
				</g>
			</g>
		</g>
		<g>
			<g>
				<g>
					<g>
						<g>
							<path fill="#A5856E" d="M28.2,24.3V19c0-0.8,0.7-1.5,1.5-1.5l0,0c0.8,0,1.5,0.7,1.5,1.5v5.4c0,0.8-0.7,1.5-1.5,1.5l0,0
								C28.8,25.8,28.2,25.1,28.2,24.3z"/>
						</g>
					</g>
				</g>
			</g>
		</g>
	</g>
	<g>
		<g>
			<g>
				<g>
					<g>
						<path fill="#DAE5EE" d="M23.8,14.4c0,0.3-0.3,0.6-0.6,0.6H17c-0.3,0-0.6-0.3-0.6-0.6c0-0.3,0.3-0.6,0.6-0.6h6.2
							C23.5,13.8,23.8,14.1,23.8,14.4z"/>
					</g>
				</g>
			</g>
		</g>
	</g>
</g>
</svg>
