<?xml version="1.0" encoding="utf-8"?>
<!-- Generator: Adobe Illustrator 18.0.0, SVG Export Plug-In . SVG Version: 6.00 Build 0)  -->
<!DOCTYPE svg PUBLIC "-//W3C//DTD SVG 1.1//EN" "http://www.w3.org/Graphics/SVG/1.1/DTD/svg11.dtd">
<svg version="1.1" id="Layer_1" xmlns="http://www.w3.org/2000/svg" xmlns:xlink="http://www.w3.org/1999/xlink" x="0px" y="0px"
	 viewBox="0 0 36 36" enable-background="new 0 0 36 36" xml:space="preserve">
<g>
	<g>
		<g>
			<g>
				<g>
					<g>
						<g>
							<path fill="#D1403F" d="M30.5,31c-4.9,4-20.2,4-25,0c-4.9-4-4.4-21.1,0-25.6c4.4-4.5,20.6-4.5,25,0C34.9,9.9,35.4,27,30.5,31
								z"/>
						</g>
					</g>
				</g>
			</g>
		</g>
		<g>
			<g>
				<g>
					<g>
						<path fill="#E24C4B" d="M18.1,24c-4.4,3.5-9.3,5.3-13.9,5.4c-3.4-5.7-2.7-19.9,1.3-24C9.1,1.7,20.4,1,26.9,3.3
							C28.5,9.9,25.2,18.3,18.1,24z"/>
					</g>
				</g>
			</g>
		</g>
	</g>
	<g>
		<g>
			<g>
				<g>
					<path fill="#FFFFFF" d="M29.3,14.9c-0.5-0.5-1.4-0.5-1.9,0c-0.6,0.6-1.3,1-2,1.3V9.6c0-0.8-0.6-1.4-1.4-1.4
						c-0.8,0-1.4,0.6-1.4,1.4v7c-1.4-0.1-2.6-0.7-3.6-1.7c-1.5-1.5-3.5-2.4-5.5-2.5V9.6c0-0.8-0.6-1.4-1.4-1.4
						c-0.8,0-1.4,0.6-1.4,1.4v3c-1.5,0.4-2.8,1.1-4,2.3c-0.5,0.5-0.5,1.4,0,1.9c0.5,0.5,1.4,0.5,1.9,0c0.6-0.6,1.3-1,2-1.3v4.9
						c0,4,3.3,7.3,7.3,7.3c4,0,7.3-3.3,7.3-7.3v-1.3c1.5-0.4,2.9-1.1,4-2.3C29.8,16.3,29.8,15.4,29.3,14.9z M18,25
						c-2.5,0-4.6-2.1-4.6-4.6v-5.3c1.3,0.1,2.6,0.7,3.6,1.7c1.5,1.5,3.5,2.4,5.5,2.5v1.1C22.6,22.9,20.5,25,18,25z"/>
				</g>
			</g>
		</g>
	</g>
</g>
</svg>
