<?xml version="1.0" encoding="utf-8"?>
<!-- Generator: Adobe Illustrator 18.0.0, SVG Export Plug-In . SVG Version: 6.00 Build 0)  -->
<!DOCTYPE svg PUBLIC "-//W3C//DTD SVG 1.1//EN" "http://www.w3.org/Graphics/SVG/1.1/DTD/svg11.dtd">
<svg version="1.1" id="Layer_1" xmlns="http://www.w3.org/2000/svg" xmlns:xlink="http://www.w3.org/1999/xlink" x="0px" y="0px"
	 viewBox="0 0 36 36" enable-background="new 0 0 36 36" xml:space="preserve">
<g>
	<g>
		<g>
			<g>
				<g>
					<g>
						<g>
							<path fill="#E24C4B" d="M6.7,6.7c-6.3,6.3-6.3,16.4,0,22.6c6.2,6.2,16.4,6.3,22.6,0c6.2-6.2,6.2-16.4,0-22.6
								C23.1,0.4,12.9,0.4,6.7,6.7z"/>
						</g>
					</g>
				</g>
			</g>
		</g>
		<g>
			<g>
				<g>
					<g>
						<g>
							<path fill="#D1403F" d="M26.6,4.5c1.6,2.5,2.5,5.4,2.5,8.6c0,8.8-7.2,16-16,16c-3.2,0-6.1-0.9-8.6-2.5C7.3,31,12.3,34,18,34
								c8.8,0,16-7.2,16-16C34,12.3,31,7.3,26.6,4.5z"/>
						</g>
					</g>
				</g>
			</g>
		</g>
		<g>
			<g>
				<g>
					<g>
						<g>
							<path fill="#FFFFFF" d="M26.3,18c0,1.2-1,2.2-2.2,2.2H11.9c-1.2,0-2.2-1-2.2-2.2c0-1.2,1-2.2,2.2-2.2h12.1
								C25.3,15.8,26.3,16.8,26.3,18z"/>
						</g>
					</g>
				</g>
			</g>
		</g>
	</g>
	<g opacity="0.2">
		<g>
			<g>
				<g>
					<g>
						<path fill="#FFFFFF" d="M12.3,12.1c-1.6,1.6-3.7,2.2-4.5,1.3c-0.9-0.9-0.3-2.9,1.3-4.5c1.6-1.6,3.7-2.2,4.6-1.3
							C14.5,8.4,13.9,10.5,12.3,12.1z"/>
					</g>
				</g>
			</g>
		</g>
	</g>
</g>
</svg>
