<?xml version="1.0" encoding="utf-8"?>
<!-- Generator: Adobe Illustrator 18.0.0, SVG Export Plug-In . SVG Version: 6.00 Build 0)  -->
<!DOCTYPE svg PUBLIC "-//W3C//DTD SVG 1.1//EN" "http://www.w3.org/Graphics/SVG/1.1/DTD/svg11.dtd">
<svg version="1.1" id="Layer_1" xmlns="http://www.w3.org/2000/svg" xmlns:xlink="http://www.w3.org/1999/xlink" x="0px" y="0px"
	 viewBox="0 0 36 36" enable-background="new 0 0 36 36" xml:space="preserve">
<g>
	<g>
		<g>
			<g>
				<g>
					<circle fill="#E24C4B" cx="18" cy="18" r="16"/>
				</g>
			</g>
		</g>
	</g>
	<g>
		<g>
			<g>
				<g>
					<path fill="#D1403F" d="M34,18c0,8.8-7.2,16-16,16c-5.5,0-10.3-2.8-13.2-6.9c2.6,1.8,5.7,2.8,9,2.8c8.8,0,16-7.2,16-16
						c0-3.4-1-6.5-2.8-9.1C31.2,7.7,34,12.5,34,18z"/>
				</g>
			</g>
		</g>
	</g>
	<g opacity="0.15">
		<g>
			<g>
				<g>
					
						<ellipse transform="matrix(0.8447 -0.5353 0.5353 0.8447 -3.0896 7.452)" fill="#FFFFFF" cx="11.3" cy="9.1" rx="3.4" ry="1.9"/>
				</g>
			</g>
		</g>
	</g>
	<g>
		<g>
			<g>
				<g>
					<path fill="#FFFFFF" d="M27,9c-0.4-0.4-1.1-0.4-1.6,0l-5.9,5.9c-2.7-1.9-6.4-1.7-8.8,0.7c-2.7,2.7-2.7,7,0,9.6
						c2.7,2.7,7,2.7,9.6,0c2.4-2.4,2.6-6.1,0.7-8.8l5.9-5.9C27.4,10.1,27.4,9.5,27,9z M18.8,23.7c-1.8,1.8-4.7,1.8-6.5,0
						c-1.8-1.8-1.8-4.7,0-6.5c1.8-1.8,4.7-1.8,6.5,0C20.6,19,20.6,21.9,18.8,23.7z"/>
				</g>
			</g>
		</g>
	</g>
</g>
</svg>
