<?xml version="1.0" encoding="utf-8"?>
<!-- Generator: Adobe Illustrator 18.0.0, SVG Export Plug-In . SVG Version: 6.00 Build 0)  -->
<!DOCTYPE svg PUBLIC "-//W3C//DTD SVG 1.1//EN" "http://www.w3.org/Graphics/SVG/1.1/DTD/svg11.dtd">
<svg version="1.1" id="Layer_1" xmlns="http://www.w3.org/2000/svg" xmlns:xlink="http://www.w3.org/1999/xlink" x="0px" y="0px"
	 viewBox="0 0 36 36" enable-background="new 0 0 36 36" xml:space="preserve">
<g>
	<g>
		<g>
			<g>
				<g>
					<circle fill="#E24C4B" cx="18" cy="18" r="16"/>
				</g>
			</g>
		</g>
	</g>
	<g>
		<g>
			<g>
				<g>
					<path fill="#D1403F" d="M34,18c0,8.8-7.2,16-16,16c-5.5,0-10.3-2.8-13.2-6.9c2.6,1.8,5.7,2.8,9,2.8c8.8,0,16-7.2,16-16
						c0-3.4-1-6.5-2.8-9.1C31.2,7.7,34,12.5,34,18z"/>
				</g>
			</g>
		</g>
	</g>
	<g opacity="0.15">
		<g>
			<g>
				<g>
					
						<ellipse transform="matrix(0.8447 -0.5353 0.5353 0.8447 -3.0896 7.452)" fill="#FFFFFF" cx="11.3" cy="9.1" rx="3.4" ry="1.9"/>
				</g>
			</g>
		</g>
	</g>
	<g>
		<g>
			<g>
				<g>
					<g>
						<g>
							<path fill="#FFFFFF" d="M9.5,26.5c-2-2-2-5.2,0-7.1c2-2,5.2-2,7.1,0c2,2,2,5.2,0,7.1C14.6,28.5,11.4,28.5,9.5,26.5z
								 M15.3,20.7c-1.3-1.3-3.4-1.3-4.6,0c-1.3,1.3-1.3,3.4,0,4.6c1.3,1.3,3.4,1.3,4.6,0C16.6,24,16.6,21.9,15.3,20.7z"/>
						</g>
					</g>
				</g>
			</g>
		</g>
		<g>
			<g>
				<g>
					<g>
						<g>
							<path fill="#FFFFFF" d="M19.4,16.6c-2-2-2-5.2,0-7.1c2-2,5.2-2,7.1,0c2,2,2,5.2,0,7.1C24.6,18.5,21.4,18.5,19.4,16.6z
								 M25.3,10.7c-1.3-1.3-3.4-1.3-4.6,0c-1.3,1.3-1.3,3.4,0,4.6c1.3,1.3,3.4,1.3,4.6,0C26.6,14.1,26.6,12,25.3,10.7z"/>
						</g>
					</g>
				</g>
			</g>
		</g>
		<g>
			<g>
				<g>
					<g>
						<g>
							
								<rect x="17.1" y="15.1" transform="matrix(0.7071 0.7071 -0.7071 0.7071 18.0005 -7.4551)" fill="#FFFFFF" width="1.7" height="5.8"/>
						</g>
					</g>
				</g>
			</g>
		</g>
	</g>
</g>
</svg>
