<?xml version="1.0" encoding="utf-8"?>
<!-- Generator: Adobe Illustrator 18.0.0, SVG Export Plug-In . SVG Version: 6.00 Build 0)  -->
<!DOCTYPE svg PUBLIC "-//W3C//DTD SVG 1.1//EN" "http://www.w3.org/Graphics/SVG/1.1/DTD/svg11.dtd">
<svg version="1.1" id="Layer_1" xmlns="http://www.w3.org/2000/svg" xmlns:xlink="http://www.w3.org/1999/xlink" x="0px" y="0px"
	 viewBox="0 0 36 36" enable-background="new 0 0 36 36" xml:space="preserve">
<g>
	<g>
		<g>
			<g>
				<g>
					<g>
						<g>
							<path fill="#D1403F" d="M30.5,31c-4.9,4-20.2,4-25,0c-4.9-4-4.4-21.1,0-25.6c4.4-4.5,20.6-4.5,25,0C34.9,9.9,35.4,27,30.5,31
								z"/>
						</g>
					</g>
				</g>
			</g>
		</g>
		<g>
			<g>
				<g>
					<g>
						<path fill="#E24C4B" d="M18.1,24c-4.4,3.5-9.3,5.3-13.9,5.4c-3.4-5.8-2.7-19.9,1.3-24C9.1,1.7,20.4,1,26.9,3.3
							C28.5,9.9,25.2,18.3,18.1,24z"/>
					</g>
				</g>
			</g>
		</g>
	</g>
	<g>
		<g>
			<g>
				<g>
					<g>
						<path fill="#FFFFFF" d="M12.4,18.9c2.6,0,4.7-2.1,4.7-4.7c0-1.4-0.6-2.6-1.6-3.5c4.2-0.2,8.5,1.2,11.3,3.8
							c0.4,0.3,0.9,0.3,1.3,0c0.3-0.4,0.3-0.9,0-1.3c-4.1-3.9-11-5.3-16.6-3.6c0,0,0,0,0,0c0,0,0,0,0,0c-2.1,0.4-3.7,2.3-3.7,4.6
							C7.7,16.8,9.8,18.9,12.4,18.9z M12.4,11.3c1.6,0,2.9,1.3,2.9,2.9c0,1.6-1.3,2.9-2.9,2.9c-1.6,0-2.9-1.3-2.9-2.9
							C9.4,12.5,10.8,11.3,12.4,11.3z"/>
					</g>
				</g>
			</g>
		</g>
		<g>
			<g>
				<g>
					<g>
						<path fill="#FFFFFF" d="M28.3,21.8c0-2.6-2.1-4.7-4.7-4.7s-4.7,2.1-4.7,4.7c0,1.4,0.6,2.6,1.6,3.5c-4.2,0.2-8.5-1.2-11.3-3.8
							c-0.4-0.3-0.9-0.3-1.3,0c-0.3,0.4-0.3,0.9,0,1.3c3,2.8,7.4,4.3,11.8,4.3c1.6,0,3.3-0.2,4.8-0.7C26.6,26,28.3,24.1,28.3,21.8z
							 M23.6,24.7c-1.6,0-2.9-1.3-2.9-2.9c0-1.6,1.3-2.9,2.9-2.9c1.6,0,2.9,1.3,2.9,2.9C26.6,23.7,24.9,24.7,23.6,24.7z"/>
					</g>
				</g>
			</g>
		</g>
	</g>
</g>
</svg>
