<?xml version="1.0" encoding="utf-8"?>
<!-- Generator: Adobe Illustrator 18.0.0, SVG Export Plug-In . SVG Version: 6.00 Build 0)  -->
<!DOCTYPE svg PUBLIC "-//W3C//DTD SVG 1.1//EN" "http://www.w3.org/Graphics/SVG/1.1/DTD/svg11.dtd">
<svg version="1.1" id="Layer_1" xmlns="http://www.w3.org/2000/svg" xmlns:xlink="http://www.w3.org/1999/xlink" x="0px" y="0px"
	 viewBox="0 0 36 36" enable-background="new 0 0 36 36" xml:space="preserve">
<g>
	<g>
		<g>
			<g>
				<g>
					<g>
						<g>
							<path fill="#D1403F" d="M30.5,31c-4.9,4-20.2,4-25,0c-4.9-4-4.4-21.1,0-25.6c4.4-4.5,20.6-4.5,25,0C34.9,9.9,35.4,27,30.5,31
								z"/>
						</g>
					</g>
				</g>
			</g>
		</g>
		<g>
			<g>
				<g>
					<g>
						<path fill="#E24C4B" d="M18.1,24c-4.4,3.5-9.3,5.3-13.9,5.4c-3.4-5.7-2.7-19.9,1.3-24C9.1,1.7,20.4,1,26.9,3.3
							C28.5,9.9,25.2,18.3,18.1,24z"/>
					</g>
				</g>
			</g>
		</g>
	</g>
	<g>
		<g>
			<g>
				<g>
					<g>
						<g>
							<path fill="#FFFFFF" d="M28.2,22h-7c-0.4,0-0.8-0.3-0.9-0.7c-0.1-0.4,0.1-0.9,0.5-1.1c1.7-0.9,2.8-2.5,2.8-4.2
								c0-2.7-2.5-4.9-5.5-4.9s-5.5,2.2-5.5,4.9c0,1.7,1.1,3.4,2.8,4.2c0.4,0.2,0.6,0.7,0.5,1.1c-0.1,0.4-0.5,0.7-0.9,0.7h-7
								c-0.5,0-1-0.4-1-1s0.4-1,1-1h4.3c-1-1.2-1.5-2.6-1.5-4.1c0-3.8,3.3-6.8,7.4-6.8s7.4,3.1,7.4,6.8c0,1.5-0.5,3-1.5,4.1h4.3
								c0.5,0,1,0.4,1,1S28.7,22,28.2,22z"/>
						</g>
					</g>
				</g>
			</g>
		</g>
		<g>
			<g>
				<g>
					<g>
						<g>
							<path fill="#FFFFFF" d="M28.2,26.1H7.8c-0.5,0-1-0.4-1-1s0.4-1,1-1h20.4c0.5,0,1,0.4,1,1S28.7,26.1,28.2,26.1z"/>
						</g>
					</g>
				</g>
			</g>
		</g>
	</g>
</g>
</svg>
