<?xml version="1.0" encoding="utf-8"?>
<!-- Generator: Adobe Illustrator 18.0.0, SVG Export Plug-In . SVG Version: 6.00 Build 0)  -->
<!DOCTYPE svg PUBLIC "-//W3C//DTD SVG 1.1//EN" "http://www.w3.org/Graphics/SVG/1.1/DTD/svg11.dtd">
<svg version="1.1" id="Layer_1" xmlns="http://www.w3.org/2000/svg" xmlns:xlink="http://www.w3.org/1999/xlink" x="0px" y="0px"
	 viewBox="0 0 36 36" enable-background="new 0 0 36 36" xml:space="preserve">
<g>
	<g>
		<g>
			<g>
				<g>
					<g>
						<g>
							<path fill="#D34178" d="M30.5,31c-4.9,4-20.2,4-25,0c-4.9-4-4.4-21.1,0-25.6c4.4-4.5,20.6-4.5,25,0C34.9,9.9,35.4,27,30.5,31
								z"/>
						</g>
					</g>
				</g>
			</g>
		</g>
		<g>
			<g>
				<g>
					<g>
						<path fill="#E84E89" d="M18.1,24c-4.4,3.5-9.3,5.3-13.9,5.4c-3.4-5.8-2.7-19.9,1.3-24C9.1,1.7,20.4,1,26.9,3.3
							C28.5,9.9,25.2,18.3,18.1,24z"/>
					</g>
				</g>
			</g>
		</g>
	</g>
	<g>
		<g>
			<g>
				<g>
					<g>
						<path fill="#FFFFFF" d="M16.2,23.8l-1.1-2.5h-4.9l-1.1,2.5H6.4l5-11.6h2.5l5,11.6H16.2z M12.7,15.6L11.2,19h2.9L12.7,15.6z"/>
					</g>
				</g>
			</g>
		</g>
		<g>
			<g>
				<g>
					<g>
						<path fill="#FFFFFF" d="M25.4,23.8h-5.1V12.2h4.5c0.8,0,1.5,0.1,2,0.3c0.6,0.2,1,0.4,1.3,0.8c0.5,0.6,0.8,1.3,0.8,2
							c0,0.9-0.3,1.6-0.9,2c-0.2,0.2-0.3,0.3-0.4,0.3c-0.1,0-0.2,0.1-0.4,0.2c0.7,0.2,1.3,0.5,1.7,1c0.4,0.5,0.6,1.1,0.6,1.8
							c0,0.8-0.3,1.5-0.8,2.1C28.1,23.5,27,23.8,25.4,23.8z M22.9,16.9h1.2c0.7,0,1.3-0.1,1.6-0.2c0.3-0.2,0.5-0.5,0.5-1
							c0-0.5-0.2-0.9-0.5-1c-0.3-0.2-0.9-0.2-1.6-0.2h-1.2V16.9z M22.9,21.6h1.8c0.7,0,1.3-0.1,1.7-0.3c0.4-0.2,0.6-0.5,0.6-1.1
							c0-0.5-0.2-0.9-0.6-1.1c-0.4-0.2-1-0.3-1.9-0.3h-1.5V21.6z"/>
					</g>
				</g>
			</g>
		</g>
	</g>
</g>
</svg>
