<?xml version="1.0" encoding="utf-8"?>
<!-- Generator: Adobe Illustrator 18.0.0, SVG Export Plug-In . SVG Version: 6.00 Build 0)  -->
<!DOCTYPE svg PUBLIC "-//W3C//DTD SVG 1.1//EN" "http://www.w3.org/Graphics/SVG/1.1/DTD/svg11.dtd">
<svg version="1.1" id="Layer_1" xmlns="http://www.w3.org/2000/svg" xmlns:xlink="http://www.w3.org/1999/xlink" x="0px" y="0px"
	 viewBox="0 0 36 36" enable-background="new 0 0 36 36" xml:space="preserve">
<g>
	<g>
		<g>
			<g>
				<g>
					<path fill="#D34178" d="M30.6,34H5.4C3.5,34,2,32.5,2,30.6V5.4C2,3.5,3.5,2,5.4,2h25.2C32.5,2,34,3.5,34,5.4v25.2
						C34,32.5,32.5,34,30.6,34z"/>
				</g>
			</g>
		</g>
	</g>
	<g>
		<g>
			<g>
				<g>
					<path fill="#E84E89" d="M27.8,2c-1.2,5.2-4.3,10.8-9.1,15.6C13.6,22.7,7.5,25.9,2,26.9V5.4C2,3.5,3.5,2,5.4,2H27.8z"/>
				</g>
			</g>
		</g>
	</g>
	<g>
		<g>
			<g>
				<g>
					<g>
						<g>
							<path fill="#FFFFFF" d="M13.9,27.4l-5.4-4C8,23,8,22.4,8.5,22l5.4-4.1c0.6-0.4,1.4,0,1.4,0.7v1.2l5.5,0v-1.2
								c0-0.7,0.8-1.1,1.4-0.7l5.4,4c0.5,0.3,0.5,1,0,1.4l-5.4,4.1c-0.6,0.4-1.4,0-1.4-0.7v-1.2l-5.5,0v1.2
								C15.3,27.4,14.5,27.8,13.9,27.4z"/>
						</g>
					</g>
				</g>
			</g>
		</g>
		<g>
			<g>
				<g>
					<g>
						<g>
							<path fill="#FFFFFF" d="M12.4,15.7c-2.1,0-3.7-1.5-3.7-3.7c0-2.1,1.6-3.7,3.7-3.7c2.1,0,3.7,1.5,3.7,3.7
								C16.1,14.2,14.5,15.7,12.4,15.7z M14.5,12.1c0-1.2-0.9-2.3-2.1-2.3c-1.2,0-2.1,1-2.1,2.3c0,1.3,0.9,2.3,2.1,2.3
								C13.6,14.4,14.5,13.3,14.5,12.1z"/>
						</g>
					</g>
				</g>
			</g>
			<g>
				<g>
					<g>
						<g>
							<path fill="#FFFFFF" d="M22.4,8.6H24v7.1h-1.6L19,11.2v4.4h-1.6V8.6h1.5l3.5,4.6V8.6z"/>
						</g>
					</g>
				</g>
			</g>
			<g>
				<g>
					<g>
						<g>
							<path fill="#FFFFFF" d="M25.6,8.6h1.8v1.3L27,13.5h-1.2l-0.3-3.7V8.6z M25.6,14.9c0-0.5,0.4-0.9,0.9-0.9
								c0.5,0,0.9,0.4,0.9,0.9c0,0.5-0.4,0.9-0.9,0.9C25.9,15.7,25.6,15.4,25.6,14.9z"/>
						</g>
					</g>
				</g>
			</g>
		</g>
	</g>
</g>
</svg>
