<?xml version="1.0" encoding="utf-8"?>
<!-- Generator: Adobe Illustrator 18.0.0, SVG Export Plug-In . SVG Version: 6.00 Build 0)  -->
<!DOCTYPE svg PUBLIC "-//W3C//DTD SVG 1.1//EN" "http://www.w3.org/Graphics/SVG/1.1/DTD/svg11.dtd">
<svg version="1.1" id="Layer_1" xmlns="http://www.w3.org/2000/svg" xmlns:xlink="http://www.w3.org/1999/xlink" x="0px" y="0px"
	 viewBox="0 0 36 36" enable-background="new 0 0 36 36" xml:space="preserve">
<g>
	<g>
		<g>
			<g>
				<g>
					<path fill="#D34178" d="M30.6,34H5.4C3.5,34,2,32.5,2,30.6V5.4C2,3.5,3.5,2,5.4,2h25.2C32.5,2,34,3.5,34,5.4v25.2
						C34,32.5,32.5,34,30.6,34z"/>
				</g>
			</g>
		</g>
	</g>
	<g>
		<g>
			<g>
				<g>
					<path fill="#E84E89" d="M27.8,2c-1.2,5.2-4.3,10.8-9.1,15.6C13.6,22.7,7.5,25.9,2,26.9V5.4C2,3.5,3.5,2,5.4,2H27.8z"/>
				</g>
			</g>
		</g>
	</g>
	<g>
		<g>
			<g>
				<g>
					<g>
						<g>
							<path fill="#FFFFFF" d="M22.2,14.3h-1.3v5c0,0.5-0.4,0.9-0.9,0.9H16c-0.5,0-0.9-0.4-0.9-0.9v-5h-1.3c-0.7,0-1.1-0.8-0.7-1.4
								l4.2-5.6c0.4-0.5,1.1-0.5,1.4,0l4.2,5.6C23.3,13.5,22.9,14.3,22.2,14.3z"/>
						</g>
					</g>
				</g>
			</g>
		</g>
		<g>
			<g>
				<g>
					<g>
						<g>
							<path fill="#FFFFFF" d="M11.6,23.4v5.5H10v-5.5H8.1v-1.3h5.4v1.3H11.6z"/>
						</g>
					</g>
				</g>
			</g>
			<g>
				<g>
					<g>
						<g>
							<path fill="#FFFFFF" d="M20.2,28c-0.7,0.7-1.5,1-2.6,1c-1,0-1.9-0.3-2.6-1c-0.7-0.7-1-1.5-1-2.5c0-1,0.3-1.8,1-2.5
								c0.7-0.7,1.5-1,2.6-1c1,0,1.9,0.3,2.6,1c0.7,0.7,1,1.5,1,2.5C21.2,26.5,20.9,27.3,20.2,28z M19.6,25.5c0-0.6-0.2-1.1-0.6-1.6
								c-0.4-0.4-0.9-0.6-1.4-0.6c-0.6,0-1.1,0.2-1.4,0.6c-0.4,0.4-0.6,0.9-0.6,1.6c0,0.6,0.2,1.1,0.6,1.6c0.4,0.4,0.9,0.6,1.4,0.6
								c0.6,0,1.1-0.2,1.4-0.6C19.4,26.6,19.6,26.1,19.6,25.5z"/>
						</g>
					</g>
				</g>
			</g>
			<g>
				<g>
					<g>
						<g>
							<path fill="#FFFFFF" d="M27.2,22.7c0.5,0.4,0.7,1,0.7,1.9c0,0.8-0.2,1.5-0.7,1.9c-0.5,0.4-1.2,0.6-2.3,0.6H24v1.9h-1.5v-6.8
								h2.4C26,22.1,26.7,22.3,27.2,22.7z M26.1,25.4c0.2-0.2,0.3-0.5,0.3-0.9s-0.1-0.7-0.4-0.8c-0.2-0.2-0.6-0.2-1.1-0.2H24v2.3h1
								C25.5,25.7,25.9,25.6,26.1,25.4z"/>
						</g>
					</g>
				</g>
			</g>
		</g>
	</g>
</g>
</svg>
