<?xml version="1.0" encoding="utf-8"?>
<!-- Generator: Adobe Illustrator 18.0.0, SVG Export Plug-In . SVG Version: 6.00 Build 0)  -->
<!DOCTYPE svg PUBLIC "-//W3C//DTD SVG 1.1//EN" "http://www.w3.org/Graphics/SVG/1.1/DTD/svg11.dtd">
<svg version="1.1" id="Layer_1" xmlns="http://www.w3.org/2000/svg" xmlns:xlink="http://www.w3.org/1999/xlink" x="0px" y="0px"
	 viewBox="0 0 36 36" enable-background="new 0 0 36 36" xml:space="preserve">
<g>
	<g>
		<g>
			<g>
				<g>
					<g>
						<g>
							<path fill="#D34178" d="M30.5,31c-4.9,4-20.2,4-25,0c-4.9-4-4.4-21.1,0-25.6c4.4-4.5,20.6-4.5,25,0C34.9,9.9,35.4,27,30.5,31
								z"/>
						</g>
					</g>
				</g>
			</g>
		</g>
		<g>
			<g>
				<g>
					<g>
						<path fill="#E84E89" d="M18.1,24c-4.4,3.5-9.3,5.3-13.9,5.4c-3.4-5.8-2.7-19.9,1.3-24C9.1,1.7,20.4,1,26.9,3.3
							C28.5,9.9,25.2,18.3,18.1,24z"/>
					</g>
				</g>
			</g>
		</g>
	</g>
	<g>
		<g>
			<g>
				<g>
					<g>
						<path fill="#FFFFFF" d="M18.7,22.9v-1.8c3.9-0.4,6.9-3.6,6.9-7.6h-1.3c0,3.2-2.5,5.9-5.6,6.3v-1.7c2.2-0.3,3.9-2.3,3.9-4.6
							h-1.3c0,1.6-1.1,2.9-2.6,3.3v-5.4h-1.4v5.4c-1.5-0.3-2.6-1.7-2.6-3.3h-1.3c0,2.3,1.7,4.2,3.9,4.6v1.7c-3.1-0.4-5.6-3-5.6-6.3
							h-1.3c0,4,3,7.2,6.9,7.6v1.8c-4.8-0.4-8.7-4.4-8.7-9.3H7.3c0,5.6,4.4,10.3,10,10.6V27h-1.5c-0.9,0-1.7,0.8-1.7,1.7v0.8h7.8
							v-0.8c0-0.9-0.8-1.7-1.7-1.7h-1.5v-2.8c5.5-0.4,10-5,10-10.6h-1.3C27.4,18.5,23.5,22.5,18.7,22.9z"/>
					</g>
				</g>
			</g>
		</g>
		<g>
			<g>
				<g>
					<g>
						<path fill="#FFFFFF" d="M28,9.4c0,0-1.2,1.6-1.2,2.3c0,0.7,0.5,1.2,1.2,1.2c0.7,0,1.2-0.5,1.2-1.2C29.2,11,28,9.4,28,9.4z"/>
					</g>
				</g>
			</g>
		</g>
		<g>
			<g>
				<g>
					<g>
						<path fill="#FFFFFF" d="M25,12.9c0.7,0,1.2-0.5,1.2-1.2c0-0.7-1.2-2.3-1.2-2.3s-1.2,1.6-1.2,2.3C23.7,12.4,24.3,12.9,25,12.9z
							"/>
					</g>
				</g>
			</g>
		</g>
		<g>
			<g>
				<g>
					<g>
						<path fill="#FFFFFF" d="M22,12.9c0.7,0,1.2-0.5,1.2-1.2c0-0.7-1.2-2.3-1.2-2.3s-1.2,1.6-1.2,2.3C20.8,12.4,21.3,12.9,22,12.9z
							"/>
					</g>
				</g>
			</g>
		</g>
		<g>
			<g>
				<g>
					<g>
						<path fill="#FFFFFF" d="M14,12.9c0.7,0,1.2-0.5,1.2-1.2c0-0.7-1.2-2.3-1.2-2.3s-1.2,1.6-1.2,2.3C12.8,12.4,13.3,12.9,14,12.9z
							"/>
					</g>
				</g>
			</g>
		</g>
		<g>
			<g>
				<g>
					<g>
						<path fill="#FFFFFF" d="M11,12.9c0.7,0,1.2-0.5,1.2-1.2c0-0.7-1.2-2.3-1.2-2.3S9.8,11,9.8,11.7C9.8,12.4,10.4,12.9,11,12.9z"
							/>
					</g>
				</g>
			</g>
		</g>
		<g>
			<g>
				<g>
					<g>
						<path fill="#FFFFFF" d="M9.2,11.7C9.2,11,8,9.4,8,9.4S6.8,11,6.8,11.7c0,0.7,0.5,1.2,1.2,1.2S9.2,12.4,9.2,11.7z"/>
					</g>
				</g>
			</g>
		</g>
		<g>
			<g>
				<g>
					<g>
						<path fill="#FFFFFF" d="M18,10.6c0.7,0,1.2-0.5,1.2-1.2S18,7.1,18,7.1s-1.2,1.6-1.2,2.3S17.3,10.6,18,10.6z"/>
					</g>
				</g>
			</g>
		</g>
	</g>
</g>
</svg>
