<?xml version="1.0" encoding="utf-8"?>
<!-- Generator: Adobe Illustrator 18.0.0, SVG Export Plug-In . SVG Version: 6.00 Build 0)  -->
<!DOCTYPE svg PUBLIC "-//W3C//DTD SVG 1.1//EN" "http://www.w3.org/Graphics/SVG/1.1/DTD/svg11.dtd">
<svg version="1.1" id="Layer_1" xmlns="http://www.w3.org/2000/svg" xmlns:xlink="http://www.w3.org/1999/xlink" x="0px" y="0px"
	 viewBox="0 0 36 36" enable-background="new 0 0 36 36" xml:space="preserve">
<g>
	<g>
		<g>
			<g>
				<g>
					<g>
						<g>
							<path fill="#D34178" d="M30.5,31c-4.9,4-20.2,4-25,0c-4.9-4-4.4-21.1,0-25.6c4.4-4.5,20.6-4.5,25,0C34.9,9.9,35.4,27,30.5,31
								z"/>
						</g>
					</g>
				</g>
			</g>
		</g>
		<g>
			<g>
				<g>
					<g>
						<path fill="#E84E89" d="M18.1,24c-4.4,3.5-9.3,5.3-13.9,5.4c-3.4-5.8-2.7-19.9,1.3-24C9.1,1.7,20.4,1,26.9,3.3
							C28.5,9.9,25.2,18.3,18.1,24z"/>
					</g>
				</g>
			</g>
		</g>
	</g>
	<g>
		<g>
			<g>
				<g>
					<g>
						<path fill="#FFFFFF" d="M29.1,22.8c-0.4-0.7-1.3-2.1-3-4.8c1.4-2.2,2.6-4.2,3.2-5.1c0.2-0.3,0.2-0.7,0-1.1
							c-0.2-0.3-0.5-0.5-0.9-0.5h-6.5c-0.9-1.4-1.9-3-3-4.8c-0.2-0.3-0.5-0.5-0.9-0.5c-0.4,0-0.7,0.2-0.9,0.5c0,0-1.3,2.1-3,4.8H7.6
							c-0.6,0-1,0.5-1,1c0,0.2,0,0.3,3.4,5.7c-1.4,2.2-2.6,4.2-3.2,5.1c-0.2,0.3-0.2,0.7,0,1.1c0.2,0.3,0.5,0.5,0.9,0.5h6.5
							c0.9,1.4,1.9,3,3,4.8c0.2,0.3,0.5,0.5,0.9,0.5c0.4,0,0.7-0.2,0.9-0.5c0,0,1.3-2.1,3-4.8h6.5c0,0,0,0,0,0c0.6,0,1-0.5,1-1
							C29.4,23.3,29.3,23,29.1,22.8z M26.5,13.4c-0.5,0.7-1,1.7-1.7,2.6c-0.5-0.8-1-1.7-1.7-2.6H26.5z M23.6,18
							c-1,1.5-2,3.1-2.9,4.6h-5.4c-1-1.6-2-3.1-2.9-4.6c1-1.5,2-3.1,2.9-4.6h5.4C21.7,15,22.7,16.5,23.6,18z M18,9.1
							c0.4,0.7,0.9,1.5,1.4,2.2h-2.8C17.1,10.4,17.6,9.7,18,9.1z M9.5,13.4h3.3c-0.5,0.9-1.1,1.8-1.7,2.6C10.5,15,9.9,14.1,9.5,13.4
							z M9.5,22.6c0.5-0.7,1-1.7,1.7-2.6c0.5,0.8,1,1.7,1.6,2.6H9.5z M18,26.9c-0.4-0.7-0.9-1.5-1.4-2.2h2.8
							C18.8,25.6,18.4,26.3,18,26.9z M23.2,22.6c0.5-0.9,1.1-1.8,1.7-2.6c0.6,1,1.2,1.9,1.7,2.6H23.2z"/>
					</g>
				</g>
			</g>
		</g>
		<g>
			<g>
				<g>
					<g>
						<circle fill="#FFFFFF" cx="18" cy="18" r="3"/>
					</g>
				</g>
			</g>
		</g>
	</g>
</g>
</svg>
