<?xml version="1.0" encoding="utf-8"?>
<!-- Generator: Adobe Illustrator 18.0.0, SVG Export Plug-In . SVG Version: 6.00 Build 0)  -->
<!DOCTYPE svg PUBLIC "-//W3C//DTD SVG 1.1//EN" "http://www.w3.org/Graphics/SVG/1.1/DTD/svg11.dtd">
<svg version="1.1" id="Layer_1" xmlns="http://www.w3.org/2000/svg" xmlns:xlink="http://www.w3.org/1999/xlink" x="0px" y="0px"
	 viewBox="0 0 36 36" enable-background="new 0 0 36 36" xml:space="preserve">
<g>
	<g>
		<g>
			<g>
				<g>
					<g>
						<g>
							<path fill="#D34178" d="M30.5,31c-4.9,4-20.2,4-25,0S1.1,9.9,5.5,5.4c4.4-4.5,20.6-4.5,25,0C34.9,9.9,35.4,27,30.5,31z"/>
						</g>
					</g>
				</g>
			</g>
		</g>
		<g>
			<g>
				<g>
					<g>
						<path fill="#E84E89" d="M18.1,24c-4.4,3.5-9.3,5.3-13.9,5.4c-3.4-5.8-2.7-19.9,1.3-24C9.1,1.7,20.4,1,26.9,3.3
							C28.5,9.9,25.2,18.3,18.1,24z"/>
					</g>
				</g>
			</g>
		</g>
	</g>
	<g>
		<g>
			<g>
				<g>
					<path fill="#FFFFFF" d="M26.6,9.7C27,9.2,26.9,8.4,26.4,8c-0.5-0.4-1.3-0.3-1.7,0.2c-1.8,2.2-4.2,3.4-6.7,3.4s-4.9-1.2-6.7-3.4
						C10.9,7.7,10.1,7.6,9.6,8C9.1,8.4,9,9.2,9.4,9.7c1.2,1.4,2.5,2.5,4,3.2c-2.3,1.5-3.8,4.1-3.8,7c0,4.6,3.7,8.4,8.4,8.4
						c4.6,0,8.4-3.7,8.4-8.4c0-2.9-1.5-5.5-3.8-7C24,12.2,25.4,11.1,26.6,9.7z M24,19.9c0,3.3-2.7,6-6,6c-3.3,0-6-2.7-6-6s2.7-6,6-6
						C21.3,14,24,16.6,24,19.9z"/>
				</g>
			</g>
		</g>
	</g>
</g>
</svg>
