<?xml version="1.0" encoding="utf-8"?>
<!-- Generator: Adobe Illustrator 18.0.0, SVG Export Plug-In . SVG Version: 6.00 Build 0)  -->
<!DOCTYPE svg PUBLIC "-//W3C//DTD SVG 1.1//EN" "http://www.w3.org/Graphics/SVG/1.1/DTD/svg11.dtd">
<svg version="1.1" id="Layer_1" xmlns="http://www.w3.org/2000/svg" xmlns:xlink="http://www.w3.org/1999/xlink" x="0px" y="0px"
	 viewBox="0 0 36 36" enable-background="new 0 0 36 36" xml:space="preserve">
<g>
	<g>
		<g>
			<g>
				<g>
					<g>
						<g>
							<path fill="#D34178" d="M30.5,31c-4.9,4-20.2,4-25,0c-4.9-4-4.4-21.1,0-25.6c4.4-4.5,20.6-4.5,25,0C34.9,9.9,35.4,27,30.5,31
								z"/>
						</g>
					</g>
				</g>
			</g>
		</g>
		<g>
			<g>
				<g>
					<g>
						<path fill="#E84E89" d="M18.1,24c-4.4,3.5-9.3,5.3-13.9,5.4c-3.4-5.8-2.7-19.9,1.3-24C9.1,1.7,20.4,1,26.9,3.3
							C28.5,9.9,25.2,18.3,18.1,24z"/>
					</g>
				</g>
			</g>
		</g>
	</g>
	<g>
		<g>
			<g>
				<g>
					<path fill="#FFFFFF" d="M24.6,24.7V11.3c1-0.4,1.9-0.9,2.7-1.5c0.5-0.4,0.6-1.1,0.3-1.6C27.2,7.7,26.5,7.6,26,8
						c-4.4,3.1-11.6,3.1-16,0C9.5,7.6,8.8,7.7,8.4,8.2C8.1,8.7,8.2,9.4,8.7,9.8c0.8,0.6,1.7,1.1,2.7,1.5v13.5
						c-1,0.4-1.9,0.9-2.7,1.5c-0.5,0.4-0.6,1.1-0.3,1.6c0.4,0.5,1.1,0.6,1.6,0.3c4.4-3.1,11.6-3.1,16,0c0.5,0.4,1.2,0.2,1.6-0.3
						c0.4-0.5,0.2-1.2-0.3-1.6C26.5,25.6,25.6,25.1,24.6,24.7z M13.6,24V12c2.9,0.7,5.8,0.7,8.7,0v12C19.5,23.3,16.5,23.3,13.6,24z"
						/>
				</g>
			</g>
		</g>
	</g>
</g>
</svg>
