<?xml version="1.0" encoding="utf-8"?>
<!-- Generator: Adobe Illustrator 18.0.0, SVG Export Plug-In . SVG Version: 6.00 Build 0)  -->
<!DOCTYPE svg PUBLIC "-//W3C//DTD SVG 1.1//EN" "http://www.w3.org/Graphics/SVG/1.1/DTD/svg11.dtd">
<svg version="1.1" id="Layer_1" xmlns="http://www.w3.org/2000/svg" xmlns:xlink="http://www.w3.org/1999/xlink" x="0px" y="0px"
	 viewBox="0 0 36 36" enable-background="new 0 0 36 36" xml:space="preserve">
<g>
	<g>
		<g>
			<g>
				<g>
					<path fill="#D34178" d="M30.6,34H5.4C3.5,34,2,32.5,2,30.6V5.4C2,3.5,3.5,2,5.4,2h25.2C32.5,2,34,3.5,34,5.4v25.2
						C34,32.5,32.5,34,30.6,34z"/>
				</g>
			</g>
		</g>
	</g>
	<g>
		<g>
			<g>
				<g>
					<path fill="#E84E89" d="M27.8,2c-1.2,5.2-4.3,10.8-9.1,15.6C13.6,22.7,7.5,25.9,2,26.9V5.4C2,3.5,3.5,2,5.4,2H27.8z"/>
				</g>
			</g>
		</g>
	</g>
	<g>
		<g>
			<g>
				<g>
					<g>
						<g>
							<circle fill="#FFFFFF" cx="18" cy="18" r="12.5"/>
						</g>
					</g>
				</g>
			</g>
		</g>
		<g>
			<g>
				<g>
					<g>
						<g>
							<path fill="#FFFFFF" d="M12.8,23.2c0-2.9,2.3-5.2,5.2-5.2c2.9,0,5.2-2.3,5.2-5.2c0-2.7-2-4.9-4.6-5.1c-0.2,0-0.4,0-0.5,0
								C12.3,7.7,7.7,12.3,7.7,18c0,5.5,4.4,10,9.8,10.3C14.9,28.1,12.8,25.9,12.8,23.2z"/>
						</g>
					</g>
				</g>
			</g>
			<g>
				<g>
					<g>
						<g>
							<path fill="#D34178" d="M18.5,7.7c2.6,0.3,4.6,2.5,4.6,5.1c0,2.9-2.3,5.2-5.2,5.2c-2.9,0-5.2,2.3-5.2,5.2
								c0,2.7,2,4.9,4.6,5.1c0.2,0,0.4,0,0.5,0c5.7,0,10.3-4.6,10.3-10.3C28.3,12.5,24,8,18.5,7.7z"/>
						</g>
					</g>
				</g>
			</g>
			<g>
				<g>
					<g>
						<g>
							<circle fill="#FFFFFF" cx="18" cy="23.2" r="1.7"/>
						</g>
					</g>
				</g>
			</g>
			<g>
				<g>
					<g>
						<g>
							<g>
								<circle fill="#D34178" cx="18" cy="12.8" r="1.7"/>
							</g>
						</g>
					</g>
				</g>
			</g>
		</g>
	</g>
</g>
</svg>
