<?xml version="1.0" encoding="utf-8"?>
<!-- Generator: Adobe Illustrator 18.0.0, SVG Export Plug-In . SVG Version: 6.00 Build 0)  -->
<!DOCTYPE svg PUBLIC "-//W3C//DTD SVG 1.1//EN" "http://www.w3.org/Graphics/SVG/1.1/DTD/svg11.dtd">
<svg version="1.1" id="Layer_1" xmlns="http://www.w3.org/2000/svg" xmlns:xlink="http://www.w3.org/1999/xlink" x="0px" y="0px"
	 viewBox="0 0 36 36" enable-background="new 0 0 36 36" xml:space="preserve">
<g>
	<g>
		<g>
			<g>
				<g>
					<path fill="#D34178" d="M30.6,34H5.4C3.5,34,2,32.5,2,30.6V5.4C2,3.5,3.5,2,5.4,2h25.2C32.5,2,34,3.5,34,5.4v25.2
						C34,32.5,32.5,34,30.6,34z"/>
				</g>
			</g>
		</g>
	</g>
	<g>
		<g>
			<g>
				<g>
					<path fill="#E84E89" d="M27.8,2c-1.2,5.2-4.3,10.8-9.1,15.6C13.6,22.7,7.5,25.9,2,26.9V5.4C2,3.5,3.5,2,5.4,2H27.8z"/>
				</g>
			</g>
		</g>
	</g>
	<g>
		<g>
			<g>
				<g>
					<polygon fill="#FFFFFF" points="26.5,16.2 26.5,13.4 19.4,13.4 19.4,11.1 22.9,11.1 22.9,8.3 19.4,8.3 19.4,6.5 16.6,6.5 
						16.6,8.3 13.1,8.3 13.1,11.1 16.6,11.1 16.6,13.4 9.5,13.4 9.5,16.2 16.6,16.2 16.6,21.8 13.6,21 12.9,23.8 16.6,24.8 
						16.6,29.5 19.4,29.5 19.4,25.5 22.4,26.3 23.1,23.6 19.4,22.6 19.4,16.2 					"/>
				</g>
			</g>
		</g>
	</g>
</g>
</svg>
