<?xml version="1.0" encoding="utf-8"?>
<!-- Generator: Adobe Illustrator 21.1.0, SVG Export Plug-In . SVG Version: 6.00 Build 0)  -->
<svg version="1.1" id="Layer_1" xmlns="http://www.w3.org/2000/svg" xmlns:xlink="http://www.w3.org/1999/xlink" x="0px" y="0px"
	 viewBox="0 0 33 33" style="enable-background:new 0 0 33 33;" xml:space="preserve">
<style type="text/css">
	.st0{fill:#DAE5EF;}
	.st1{fill:#CBD6E0;}
	.st2{fill:#D03F3F;}
	.st3{fill:#BF3333;}
	.st4{fill:#E24B4B;}
	.st5{fill:#6D4135;}
	.st6{fill:#5B331D;}
	.st7{fill:#3E4347;}
	.st8{fill:#4E99D2;}
	.st9{fill:#65B1EF;}
	.st10{fill:#FFDC97;}
	.st11{fill:#FFCD7D;}
	.st12{fill:#FFE9AB;}
	.st13{fill:#31373A;}
	.st14{fill:#8CC63E;}
	.st15{fill:#FFD93B;}
	.st16{fill:#F4C534;}
	.st17{fill:#59A5E0;}
	.st18{fill:#DEE4E9;}
	.st19{fill:#D3D9DD;}
	.st20{fill:#FFFFFF;}
	.st21{fill:#2AB4CD;}
	.st22{fill:#1DA9BF;}
	.st23{fill:#E9EFF4;}
	.st24{fill:#7FB239;}
	.st25{fill:#719D34;}
	.st26{opacity:0.5;}
	.st27{fill:#BBC7D1;}
	.st28{fill:#E84D88;}
	.st29{fill:#D23F77;}
	.st30{fill:#633B2A;}
	.st31{fill:#E9B02C;}
	.st32{fill:#38C0DC;}
	.st33{fill:#45CBEA;}
	.st34{fill:#5A5F63;}
	.st35{fill:#E18823;}
	.st36{fill:#CF7519;}
	.st37{fill:#428DC3;}
	.st38{fill:#8D9BA3;}
	.st39{fill:#7B8B92;}
	.st40{fill:#ACB9C1;}
	.st41{fill:#846144;}
	.st42{fill:#7A5B44;}
	.st43{fill:#6B503B;}
	.st44{fill:#F29A2E;}
	.st45{fill:#728389;}
	.st46{fill:#FFD68D;}
	.st47{fill:#8F6D52;}
	.st48{fill:#84939A;}
	.st49{opacity:0.1;}
	.st50{fill:#89664C;}
	.st51{opacity:0.15;}
	.st52{fill:#DE9C25;}
	.st53{fill:#2AB4CD;stroke:#FFFFFF;stroke-width:0.5;stroke-linecap:round;stroke-linejoin:round;stroke-miterlimit:10;}
	.st54{fill:#FC97B2;}
	.st55{fill:#E88EA7;}
	.st56{opacity:0.2;}
	.st57{fill:#BB3166;}
	.st58{opacity:0.35;}
	.st59{opacity:0.6;}
	.st60{fill:#F9D087;}
	.st61{fill:#A5856D;}
	.st62{fill:#5C4533;}
	.st63{fill:#9A795F;}
	.st64{fill:#512A1B;}
	.st65{fill:#492418;}
	.st66{fill:#BE630E;}
	.st67{fill:none;}
	.st68{opacity:0.5;fill:#E18823;}
	.st69{opacity:0.1;fill:#FFFFFF;}
	.st70{fill:#FCCB7C;}
	.st71{opacity:0.15;fill:#FFFFFF;}
	.st72{opacity:0.2;fill:#FFFFFF;}
	.st73{opacity:0.5;fill:#CBD6E0;}
</style>
<g>
	<g>
		<g>
			<rect x="1.8" y="9.6" class="st23" width="29.3" height="20.8"/>
		</g>
		<g>
			<rect x="1.8" y="26.9" class="st27" width="18.2" height="3.4"/>
		</g>
		<g>
			<rect x="18.9" y="26.9" class="st1" width="1.1" height="3.4"/>
		</g>
		<g>
			<rect x="27.8" y="26.9" class="st27" width="3.3" height="3.4"/>
		</g>
		<g>
			<rect x="27.8" y="26.9" class="st1" width="1.1" height="3.4"/>
		</g>
		<g>
			<path class="st7" d="M29.2,8V3.6c0-0.5-0.4-1-1-1H4.8c-0.5,0-1,0.4-1,1V8H29.2z"/>
		</g>
		<g>
			<rect x="0.5" y="7.6" class="st4" width="32" height="2.8"/>
		</g>
		<g>
			<path class="st20" d="M10.7,6.3V4h0.7c0.3,0,0.5,0,0.6,0c0.1,0,0.2,0.1,0.3,0.2c0.1,0.1,0.1,0.3,0.1,0.4c0,0.1,0,0.3-0.1,0.4
				s-0.1,0.2-0.2,0.2c-0.1,0.1-0.2,0.1-0.2,0.1c-0.1,0-0.3,0-0.5,0h-0.3v0.9H10.7z M11.2,4.4V5h0.3c0.2,0,0.3,0,0.4,0
				c0.1,0,0.1-0.1,0.1-0.1C12,4.8,12,4.8,12,4.7c0-0.1,0-0.2-0.1-0.2c0-0.1-0.1-0.1-0.2-0.1c-0.1,0-0.2,0-0.3,0H11.2z"/>
			<path class="st20" d="M12.8,5.2c0-0.2,0-0.4,0.1-0.6c0.1-0.1,0.1-0.2,0.2-0.3c0.1-0.1,0.2-0.2,0.3-0.2C13.5,4,13.7,4,13.9,4
				c0.3,0,0.6,0.1,0.8,0.3C14.9,4.5,15,4.8,15,5.2c0,0.4-0.1,0.7-0.3,0.9c-0.2,0.2-0.5,0.3-0.8,0.3c-0.3,0-0.6-0.1-0.8-0.3
				C12.9,5.8,12.8,5.5,12.8,5.2z M13.3,5.2c0,0.3,0.1,0.5,0.2,0.6c0.1,0.1,0.3,0.2,0.5,0.2c0.2,0,0.3-0.1,0.5-0.2
				c0.1-0.1,0.2-0.3,0.2-0.6c0-0.3-0.1-0.5-0.2-0.6s-0.3-0.2-0.5-0.2c-0.2,0-0.3,0.1-0.5,0.2C13.3,4.7,13.3,4.9,13.3,5.2z"/>
			<path class="st20" d="M15.4,6.3V4h0.5v1.9H17v0.4H15.4z"/>
			<path class="st20" d="M17.3,6.3V4h0.5v2.3H17.3z"/>
			<path class="st20" d="M19.7,5.5l0.4,0.1c-0.1,0.3-0.2,0.4-0.3,0.6c-0.2,0.1-0.4,0.2-0.6,0.2c-0.3,0-0.6-0.1-0.8-0.3
				c-0.2-0.2-0.3-0.5-0.3-0.9c0-0.4,0.1-0.7,0.3-0.9C18.6,4.1,18.9,4,19.2,4c0.3,0,0.5,0.1,0.7,0.2c0.1,0.1,0.2,0.2,0.2,0.4
				l-0.5,0.1c0-0.1-0.1-0.2-0.2-0.3c-0.1-0.1-0.2-0.1-0.3-0.1c-0.2,0-0.3,0.1-0.4,0.2s-0.2,0.3-0.2,0.6c0,0.3,0.1,0.5,0.2,0.6
				c0.1,0.1,0.2,0.2,0.4,0.2c0.1,0,0.2,0,0.3-0.1C19.6,5.7,19.6,5.6,19.7,5.5z"/>
			<path class="st20" d="M20.5,6.3V4h1.7v0.4H21v0.5h1.2v0.4H21v0.6h1.3v0.4H20.5z"/>
		</g>
		<g>
			<g>
				<g>
					<g>
						<g>
							<path class="st17" d="M8,12.9v4.5c0,0.3-0.3,0.6-0.6,0.6H5.2c-0.3,0-0.6-0.3-0.6-0.6v-4.5c0-0.3,0.3-0.6,0.6-0.6h2.2
								C7.8,12.3,8,12.6,8,12.9z"/>
						</g>
						<g>
							<path class="st9" d="M4.6,15.2l2.9-2.9c0,0-0.1,0-0.1,0H6.9l-2.3,2.3V15.2z"/>
							<path class="st9" d="M4.6,17.2L8,13.7v-0.8c0-0.2-0.1-0.3-0.2-0.5l-3.2,3.2V17.2z"/>
						</g>
					</g>
				</g>
				<g>
					<g>
						<g>
							<path class="st17" d="M12.6,12.9v4.5c0,0.3-0.3,0.6-0.6,0.6H9.8c-0.3,0-0.6-0.3-0.6-0.6v-4.5c0-0.3,0.3-0.6,0.6-0.6H12
								C12.4,12.3,12.6,12.6,12.6,12.9z"/>
						</g>
						<g>
							<path class="st9" d="M9.2,15.2l2.9-2.9c0,0-0.1,0-0.1,0h-0.5l-2.3,2.3V15.2z"/>
							<path class="st9" d="M9.2,17.2l3.4-3.4v-0.8c0-0.2-0.1-0.3-0.2-0.5l-3.2,3.2V17.2z"/>
						</g>
					</g>
				</g>
				<g>
					<g>
						<g>
							<path class="st17" d="M17.2,12.9v4.5c0,0.3-0.3,0.6-0.6,0.6h-2.2c-0.3,0-0.6-0.3-0.6-0.6v-4.5c0-0.3,0.3-0.6,0.6-0.6h2.2
								C16.9,12.3,17.2,12.6,17.2,12.9z"/>
						</g>
						<g>
							<path class="st9" d="M13.8,15.2l2.9-2.9c0,0-0.1,0-0.1,0h-0.5l-2.3,2.3V15.2z"/>
							<path class="st9" d="M13.8,17.2l3.4-3.4v-0.8c0-0.2-0.1-0.3-0.2-0.5l-3.2,3.2V17.2z"/>
						</g>
					</g>
				</g>
			</g>
			<g>
				<g>
					<g>
						<g>
							<path class="st17" d="M8,20v4.5c0,0.3-0.3,0.6-0.6,0.6H5.2c-0.3,0-0.6-0.3-0.6-0.6V20c0-0.3,0.3-0.6,0.6-0.6h2.2
								C7.8,19.4,8,19.6,8,20z"/>
						</g>
						<g>
							<path class="st9" d="M4.6,22.3l2.9-2.9c0,0-0.1,0-0.1,0H6.9l-2.3,2.3V22.3z"/>
							<path class="st9" d="M4.6,24.2L8,20.8V20c0-0.2-0.1-0.3-0.2-0.5l-3.2,3.2V24.2z"/>
						</g>
					</g>
				</g>
				<g>
					<g>
						<g>
							<path class="st17" d="M12.6,20v4.5c0,0.3-0.3,0.6-0.6,0.6H9.8c-0.3,0-0.6-0.3-0.6-0.6V20c0-0.3,0.3-0.6,0.6-0.6H12
								C12.4,19.4,12.6,19.6,12.6,20z"/>
						</g>
						<g>
							<path class="st9" d="M9.2,22.3l2.9-2.9c0,0-0.1,0-0.1,0h-0.5l-2.3,2.3V22.3z"/>
							<path class="st9" d="M9.2,24.2l3.4-3.4V20c0-0.2-0.1-0.3-0.2-0.5l-3.2,3.2V24.2z"/>
						</g>
					</g>
				</g>
				<g>
					<g>
						<g>
							<path class="st17" d="M17.2,20v4.5c0,0.3-0.3,0.6-0.6,0.6h-2.2c-0.3,0-0.6-0.3-0.6-0.6V20c0-0.3,0.3-0.6,0.6-0.6h2.2
								C16.9,19.4,17.2,19.6,17.2,20z"/>
						</g>
						<g>
							<path class="st9" d="M13.8,22.3l2.9-2.9c0,0-0.1,0-0.1,0h-0.5l-2.3,2.3V22.3z"/>
							<path class="st9" d="M13.8,24.2l3.4-3.4V20c0-0.2-0.1-0.3-0.2-0.5l-3.2,3.2V24.2z"/>
						</g>
					</g>
				</g>
			</g>
		</g>
		<g>
			<rect x="20" y="18.8" class="st7" width="7.8" height="11.6"/>
		</g>
		<g>
			<rect x="20.9" y="20.3" class="st17" width="2.8" height="10.1"/>
			<rect x="24.2" y="20.3" class="st17" width="2.8" height="10.1"/>
		</g>
		<g>
			<path class="st15" d="M21.7,12.4V14c0,2.3,2.3,3.1,2.3,3.1s2.3-0.8,2.3-3.1v-1.7C24.7,11.6,23.2,11.6,21.7,12.4z"/>
		</g>
		<g>
			<path class="st20" d="M24.6,14.4c0,0,0,0.1,0,0.1l0.1,0.5c0,0.1-0.1,0.2-0.2,0.1L24,14.9c0,0-0.1,0-0.1,0l-0.5,0.3
				c-0.1,0-0.2,0-0.2-0.1l0.1-0.5c0,0,0-0.1,0-0.1L22.9,14c-0.1-0.1,0-0.2,0.1-0.2l0.5-0.1c0,0,0.1,0,0.1-0.1l0.2-0.5
				c0-0.1,0.2-0.1,0.2,0l0.2,0.5c0,0,0.1,0.1,0.1,0.1l0.5,0.1c0.1,0,0.1,0.1,0.1,0.2L24.6,14.4z"/>
		</g>
		<g>
			<g>
				<path class="st15" d="M25.4,5.3C25.4,5.4,25.4,5.4,25.4,5.3l0,0.5c0,0.1-0.1,0.1-0.1,0.1L25,5.7c0,0-0.1,0-0.1,0l-0.4,0.2
					c-0.1,0-0.1,0-0.1-0.1l0.1-0.4c0,0,0-0.1,0-0.1l-0.3-0.3c-0.1-0.1,0-0.1,0.1-0.2l0.4-0.1c0,0,0.1,0,0.1-0.1l0.2-0.4
					c0-0.1,0.1-0.1,0.2,0l0.2,0.4c0,0,0,0,0.1,0.1l0.4,0.1c0.1,0,0.1,0.1,0.1,0.2L25.4,5.3z"/>
			</g>
			<g>
				<path class="st15" d="M8.6,5.3C8.6,5.4,8.6,5.4,8.6,5.3l0,0.5c0,0.1-0.1,0.1-0.1,0.1L8.1,5.7c0,0-0.1,0-0.1,0L7.7,5.9
					c-0.1,0-0.1,0-0.1-0.1l0.1-0.4c0,0,0-0.1,0-0.1L7.3,5.1C7.2,5,7.2,4.9,7.3,4.9l0.4-0.1c0,0,0.1,0,0.1-0.1L8,4.4
					c0-0.1,0.1-0.1,0.2,0l0.2,0.4c0,0,0,0,0.1,0.1l0.4,0.1C8.9,4.9,9,5,8.9,5.1L8.6,5.3z"/>
			</g>
		</g>
	</g>
	<g>
		<polygon class="st9" points="24.2,21.6 24.2,22.7 26.6,20.3 25.5,20.3 		"/>
		<polygon class="st9" points="27,22.3 27,20.6 24.2,23.3 24.2,25 		"/>
	</g>
	<g>
		<polygon class="st9" points="23.6,25.6 23.6,23.9 20.9,26.7 20.9,28.4 		"/>
		<polygon class="st9" points="20.9,25 20.9,26 23.6,23.3 23.6,22.2 		"/>
	</g>
</g>
</svg>
