<?xml version="1.0" encoding="utf-8"?>
<!-- Generator: Adobe Illustrator 21.1.0, SVG Export Plug-In . SVG Version: 6.00 Build 0)  -->
<svg version="1.1" id="Layer_1" xmlns="http://www.w3.org/2000/svg" xmlns:xlink="http://www.w3.org/1999/xlink" x="0px" y="0px"
	 viewBox="0 0 33 33" style="enable-background:new 0 0 33 33;" xml:space="preserve">
<style type="text/css">
	.st0{fill:#DAE5EF;}
	.st1{fill:#CBD6E0;}
	.st2{fill:#D03F3F;}
	.st3{fill:#BF3333;}
	.st4{fill:#E24B4B;}
	.st5{fill:#6D4135;}
	.st6{fill:#5B331D;}
	.st7{fill:#3E4347;}
	.st8{fill:#4E99D2;}
	.st9{fill:#65B1EF;}
	.st10{fill:#FFDC97;}
	.st11{fill:#FFCD7D;}
	.st12{fill:#FFE9AB;}
	.st13{fill:#31373A;}
	.st14{fill:#8CC63E;}
	.st15{fill:#FFD93B;}
	.st16{fill:#F4C534;}
	.st17{fill:#59A5E0;}
	.st18{fill:#DEE4E9;}
	.st19{fill:#D3D9DD;}
	.st20{fill:#FFFFFF;}
	.st21{fill:#2AB4CD;}
	.st22{fill:#1DA9BF;}
	.st23{fill:#E9EFF4;}
	.st24{fill:#7FB239;}
	.st25{fill:#719D34;}
	.st26{opacity:0.5;}
	.st27{fill:#BBC7D1;}
	.st28{fill:#E84D88;}
	.st29{fill:#D23F77;}
	.st30{fill:#633B2A;}
	.st31{fill:#E9B02C;}
	.st32{fill:#38C0DC;}
	.st33{fill:#45CBEA;}
	.st34{fill:#5A5F63;}
	.st35{fill:#E18823;}
	.st36{fill:#CF7519;}
	.st37{fill:#428DC3;}
	.st38{fill:#8D9BA3;}
	.st39{fill:#7B8B92;}
	.st40{fill:#ACB9C1;}
	.st41{fill:#846144;}
	.st42{fill:#7A5B44;}
	.st43{fill:#6B503B;}
	.st44{fill:#F29A2E;}
	.st45{fill:#728389;}
	.st46{fill:#FFD68D;}
	.st47{fill:#8F6D52;}
	.st48{fill:#84939A;}
	.st49{opacity:0.1;}
	.st50{fill:#89664C;}
	.st51{opacity:0.15;}
	.st52{fill:#DE9C25;}
	.st53{fill:#2AB4CD;stroke:#FFFFFF;stroke-width:0.5;stroke-linecap:round;stroke-linejoin:round;stroke-miterlimit:10;}
	.st54{fill:#FC97B2;}
	.st55{fill:#E88EA7;}
	.st56{opacity:0.2;}
	.st57{fill:#BB3166;}
	.st58{opacity:0.35;}
	.st59{opacity:0.6;}
	.st60{fill:#F9D087;}
	.st61{fill:#A5856D;}
	.st62{fill:#5C4533;}
	.st63{fill:#9A795F;}
	.st64{fill:#512A1B;}
	.st65{fill:#492418;}
	.st66{fill:#BE630E;}
	.st67{fill:none;}
	.st68{opacity:0.5;fill:#E18823;}
	.st69{opacity:0.1;fill:#FFFFFF;}
	.st70{fill:#FCCB7C;}
	.st71{opacity:0.15;fill:#FFFFFF;}
	.st72{opacity:0.2;fill:#FFFFFF;}
	.st73{opacity:0.5;fill:#CBD6E0;}
</style>
<g>
	<g>
		<g>
			<rect x="2" y="13" class="st0" width="29" height="16.2"/>
		</g>
	</g>
	<g>
		<polygon class="st1" points="15.3,10.5 4.4,10.5 3.6,29.2 16.1,29.2 		"/>
	</g>
	<g>
		<g>
			<polygon class="st7" points="1.3,9.8 0.5,13.4 32.5,13.4 31.7,9.8 			"/>
		</g>
	</g>
	<g>
		<g>
			<g>
				<rect x="18.6" y="16.2" class="st1" width="10.3" height="13"/>
			</g>
		</g>
		<g>
			<g>
				<rect x="19.5" y="17.4" class="st45" width="8.4" height="11.8"/>
			</g>
		</g>
		<g>
			<g>
				<g>
					<rect x="19.5" y="17.4" class="st38" width="8.4" height="0.5"/>
				</g>
			</g>
			<g>
				<g>
					<rect x="19.5" y="18.4" class="st38" width="8.4" height="0.5"/>
				</g>
			</g>
			<g>
				<g>
					<rect x="19.5" y="19.4" class="st38" width="8.4" height="0.5"/>
				</g>
			</g>
			<g>
				<g>
					<rect x="19.5" y="20.5" class="st38" width="8.4" height="0.5"/>
				</g>
			</g>
			<g>
				<g>
					<rect x="19.5" y="21.5" class="st38" width="8.4" height="0.5"/>
				</g>
			</g>
			<g>
				<g>
					<rect x="19.5" y="22.5" class="st38" width="8.4" height="0.5"/>
				</g>
			</g>
			<g>
				<g>
					<rect x="19.5" y="23.5" class="st38" width="8.4" height="0.5"/>
				</g>
			</g>
			<g>
				<g>
					<rect x="19.5" y="24.6" class="st38" width="8.4" height="0.5"/>
				</g>
			</g>
			<g>
				<g>
					<rect x="19.5" y="25.6" class="st38" width="8.4" height="0.5"/>
				</g>
			</g>
			<g>
				<g>
					<rect x="19.5" y="26.6" class="st38" width="8.4" height="0.5"/>
				</g>
			</g>
			<g>
				<g>
					<rect x="19.5" y="27.7" class="st38" width="8.4" height="0.5"/>
				</g>
			</g>
			<g>
				<g>
					<rect x="19.5" y="28.7" class="st38" width="8.4" height="0.5"/>
				</g>
			</g>
		</g>
		<g>
			<g>
				<g>
					<rect x="19.5" y="17.4" class="st38" width="8.4" height="0.5"/>
				</g>
			</g>
			<g>
				<g>
					<rect x="19.5" y="18.4" class="st38" width="8.4" height="0.5"/>
				</g>
			</g>
			<g>
				<g>
					<rect x="19.5" y="19.5" class="st38" width="8.4" height="0.5"/>
				</g>
			</g>
			<g>
				<g>
					<rect x="19.5" y="20.5" class="st38" width="8.4" height="0.5"/>
				</g>
			</g>
			<g>
				<g>
					<rect x="19.5" y="21.5" class="st38" width="8.4" height="0.5"/>
				</g>
			</g>
			<g>
				<g>
					<rect x="19.5" y="22.6" class="st38" width="8.4" height="0.5"/>
				</g>
			</g>
			<g>
				<g>
					<rect x="19.5" y="23.6" class="st38" width="8.4" height="0.5"/>
				</g>
			</g>
			<g>
				<g>
					<rect x="19.5" y="24.6" class="st38" width="8.4" height="0.5"/>
				</g>
			</g>
			<g>
				<g>
					<rect x="19.5" y="25.7" class="st38" width="8.4" height="0.5"/>
				</g>
			</g>
			<g>
				<g>
					<rect x="19.5" y="26.7" class="st38" width="8.4" height="0.5"/>
				</g>
			</g>
			<g>
				<g>
					<rect x="19.5" y="27.7" class="st38" width="8.4" height="0.5"/>
				</g>
			</g>
			<g>
				<g>
					<rect x="19.5" y="28.8" class="st38" width="8.4" height="0.5"/>
				</g>
			</g>
		</g>
	</g>
	<g>
		<g>
			<path class="st0" d="M4.4,9.9v19.3h10.9V9.9C13.2,7.8,12,6.6,9.9,4.5h0C7.7,6.6,6.5,7.8,4.4,9.9z"/>
		</g>
	</g>
	<g>
		<g>
			<g>
				<rect x="5.9" y="20.6" class="st1" width="7.9" height="8.6"/>
			</g>
		</g>
		<g>
			<g>
				<g>
					<rect x="6.4" y="22" class="st20" width="3.3" height="7.2"/>
				</g>
			</g>
			<g>
				<g>
					<rect x="10" y="22" class="st20" width="3.3" height="7.2"/>
				</g>
			</g>
		</g>
		<g>
			<g>
				<g>
					
						<rect x="6.6" y="22.6" transform="matrix(-1.836970e-16 1 -1 -1.836970e-16 31.8912 15.8176)" class="st17" width="2.8" height="2.4"/>
				</g>
			</g>
			<g>
				<g>
					<polygon class="st9" points="9.1,22.4 8.4,22.4 6.8,24 6.8,24.7 					"/>
				</g>
				<g>
					<polygon class="st9" points="6.8,23.3 6.8,23.7 8.1,22.4 7.7,22.4 					"/>
				</g>
			</g>
		</g>
		<g>
			<g>
				<g>
					
						<rect x="10.3" y="22.6" transform="matrix(-1.836970e-16 1 -1 -1.836970e-16 35.5256 12.1832)" class="st17" width="2.8" height="2.4"/>
				</g>
			</g>
			<g>
				<g>
					<polygon class="st9" points="12.7,22.4 12,22.4 10.5,24 10.5,24.7 					"/>
				</g>
				<g>
					<polygon class="st9" points="10.5,23.3 10.5,23.7 11.7,22.4 11.3,22.4 					"/>
				</g>
			</g>
		</g>
		<g>
			<g>
				<g>
					<circle class="st1" cx="10.6" cy="26.2" r="0.2"/>
				</g>
			</g>
			<g>
				<g>
					<circle class="st1" cx="9.1" cy="26.2" r="0.2"/>
				</g>
			</g>
		</g>
	</g>
	<g>
		<g>
			<path class="st23" d="M15.7,17.7c0,0.2-0.2,0.4-0.4,0.4H4.4c-0.2,0-0.4-0.2-0.4-0.4c0-0.2,0.2-0.4,0.4-0.4h10.9
				C15.5,17.3,15.7,17.4,15.7,17.7z"/>
		</g>
	</g>
	<g>
		<g>
			<path class="st4" d="M2.9,11.4c-0.3-0.3-0.3-0.8,0-1.1l6.4-6.4c0.3-0.3,0.8-0.3,1.1,0l6.4,6.4c0.3,0.3,0.3,0.8,0,1.1
				s-0.8,0.3-1.1,0L9.9,5.5L4,11.4C3.7,11.7,3.2,11.7,2.9,11.4z"/>
		</g>
	</g>
	<g>
		<g>
			<g>
				<g>
					<circle class="st20" cx="9.9" cy="12.3" r="2.6"/>
				</g>
			</g>
			<g>
				<g>
					<circle class="st17" cx="9.9" cy="12.3" r="2"/>
				</g>
			</g>
		</g>
		<g>
			<g>
				<path class="st9" d="M10.3,10.4l-2.3,2.3C8,12.9,8,13,8.1,13.1l2.6-2.6C10.5,10.5,10.4,10.4,10.3,10.4z"/>
			</g>
			<g>
				<path class="st9" d="M10.9,10.6l-2.7,2.7c0.1,0.2,0.3,0.3,0.4,0.5l2.8-2.8C11.2,10.9,11.1,10.8,10.9,10.6z"/>
			</g>
		</g>
	</g>
</g>
</svg>
