<?xml version="1.0" encoding="utf-8"?>
<!-- Generator: Adobe Illustrator 21.1.0, SVG Export Plug-In . SVG Version: 6.00 Build 0)  -->
<svg version="1.1" id="Layer_1" xmlns="http://www.w3.org/2000/svg" xmlns:xlink="http://www.w3.org/1999/xlink" x="0px" y="0px"
	 viewBox="0 0 33 33" style="enable-background:new 0 0 33 33;" xml:space="preserve">
<style type="text/css">
	.st0{fill:#DAE5EF;}
	.st1{fill:#CBD6E0;}
	.st2{fill:#D03F3F;}
	.st3{fill:#BF3333;}
	.st4{fill:#E24B4B;}
	.st5{fill:#6D4135;}
	.st6{fill:#5B331D;}
	.st7{fill:#3E4347;}
	.st8{fill:#4E99D2;}
	.st9{fill:#65B1EF;}
	.st10{fill:#FFDC97;}
	.st11{fill:#FFCD7D;}
	.st12{fill:#FFE9AB;}
	.st13{fill:#31373A;}
	.st14{fill:#8CC63E;}
	.st15{fill:#FFD93B;}
	.st16{fill:#F4C534;}
	.st17{fill:#59A5E0;}
	.st18{fill:#DEE4E9;}
	.st19{fill:#D3D9DD;}
	.st20{fill:#FFFFFF;}
	.st21{fill:#2AB4CD;}
	.st22{fill:#1DA9BF;}
	.st23{fill:#E9EFF4;}
	.st24{fill:#7FB239;}
	.st25{fill:#719D34;}
	.st26{opacity:0.5;}
	.st27{fill:#BBC7D1;}
	.st28{fill:#E84D88;}
	.st29{fill:#D23F77;}
	.st30{fill:#633B2A;}
	.st31{fill:#E9B02C;}
	.st32{fill:#38C0DC;}
	.st33{fill:#45CBEA;}
	.st34{fill:#5A5F63;}
	.st35{fill:#E18823;}
	.st36{fill:#CF7519;}
	.st37{fill:#428DC3;}
	.st38{fill:#8D9BA3;}
	.st39{fill:#7B8B92;}
	.st40{fill:#ACB9C1;}
	.st41{fill:#846144;}
	.st42{fill:#7A5B44;}
	.st43{fill:#6B503B;}
	.st44{fill:#F29A2E;}
	.st45{fill:#728389;}
	.st46{fill:#FFD68D;}
	.st47{fill:#8F6D52;}
	.st48{fill:#84939A;}
	.st49{opacity:0.1;}
	.st50{fill:#89664C;}
	.st51{opacity:0.15;}
	.st52{fill:#DE9C25;}
	.st53{fill:#2AB4CD;stroke:#FFFFFF;stroke-width:0.5;stroke-linecap:round;stroke-linejoin:round;stroke-miterlimit:10;}
	.st54{fill:#FC97B2;}
	.st55{fill:#E88EA7;}
	.st56{opacity:0.2;}
	.st57{fill:#BB3166;}
	.st58{opacity:0.35;}
	.st59{opacity:0.6;}
	.st60{fill:#F9D087;}
	.st61{fill:#A5856D;}
	.st62{fill:#5C4533;}
	.st63{fill:#9A795F;}
	.st64{fill:#512A1B;}
	.st65{fill:#492418;}
	.st66{fill:#BE630E;}
	.st67{fill:none;}
	.st68{opacity:0.5;fill:#E18823;}
	.st69{opacity:0.1;fill:#FFFFFF;}
	.st70{fill:#FCCB7C;}
	.st71{opacity:0.15;fill:#FFFFFF;}
	.st72{opacity:0.2;fill:#FFFFFF;}
	.st73{opacity:0.5;fill:#CBD6E0;}
</style>
<g>
	<g>
		<g>
			<path class="st2" d="M31.8,12.7H1.2c-0.5,0-0.8-0.5-0.6-0.9l2.2-6.5C2.8,5,3.2,4.7,3.6,4.7h25.8c0.4,0,0.8,0.3,0.9,0.7l2.2,6.5
				C32.6,12.3,32.3,12.7,31.8,12.7z"/>
		</g>
		<g>
			<path class="st3" d="M3.6,4.7h1.6C4.8,4.7,4.5,5,4.4,5.4l-1.9,6.5c-0.1,0.4,0.2,0.9,0.6,0.9H1.2c-0.5,0-0.8-0.5-0.6-0.9l2.2-6.5
				C2.8,5,3.2,4.7,3.6,4.7z"/>
		</g>
		<g>
			<rect x="2.1" y="12.7" class="st12" width="28.8" height="14.7"/>
		</g>
		<g>
			<rect x="2.1" y="12.7" class="st46" width="28.8" height="0.9"/>
		</g>
		<g>
			<rect x="1.4" y="25.1" class="st47" width="30.1" height="3.1"/>
		</g>
		<g>
			<g>
				<g>
					<g>
						<path class="st20" d="M6.2,15.7v2.6c0,0.1-0.1,0.2-0.2,0.2H4c-0.1,0-0.2-0.1-0.2-0.2v-2.6c0-0.7,0.5-1.2,1.2-1.2
							C5.7,14.5,6.2,15,6.2,15.7z"/>
						<g>
							<path class="st9" d="M4.2,18.2v-2.5c0-0.5,0.4-0.9,0.9-0.9c0.5,0,0.9,0.4,0.9,0.9v2.5H4.2z"/>
						</g>
					</g>
					<g>
						<g>
							<rect x="4" y="15.7" class="st20" width="2.1" height="0.3"/>
						</g>
						<g>
							<rect x="4" y="16.9" class="st20" width="2.1" height="0.3"/>
						</g>
						<g>
							<rect x="4.9" y="15.8" class="st20" width="0.3" height="2.6"/>
						</g>
					</g>
				</g>
				<g>
					<g>
						<path class="st20" d="M10,15.7v2.6c0,0.1-0.1,0.2-0.2,0.2h-2c-0.1,0-0.2-0.1-0.2-0.2v-2.6c0-0.7,0.5-1.2,1.2-1.2
							C9.5,14.5,10,15,10,15.7z"/>
						<g>
							<path class="st9" d="M8,18.2v-2.5c0-0.5,0.4-0.9,0.9-0.9c0.5,0,0.9,0.4,0.9,0.9v2.5H8z"/>
						</g>
					</g>
					<g>
						<g>
							<rect x="7.8" y="15.7" class="st20" width="2.1" height="0.3"/>
						</g>
						<g>
							<rect x="7.8" y="16.9" class="st20" width="2.1" height="0.3"/>
						</g>
						<g>
							<rect x="8.7" y="15.8" class="st20" width="0.3" height="2.6"/>
						</g>
					</g>
				</g>
				<g>
					<g>
						<path class="st20" d="M13.9,15.7v2.6c0,0.1-0.1,0.2-0.2,0.2h-2c-0.1,0-0.2-0.1-0.2-0.2v-2.6c0-0.7,0.5-1.2,1.2-1.2
							C13.3,14.5,13.9,15,13.9,15.7z"/>
						<g>
							<path class="st9" d="M11.8,18.2v-2.5c0-0.5,0.4-0.9,0.9-0.9c0.5,0,0.9,0.4,0.9,0.9v2.5H11.8z"/>
						</g>
					</g>
					<g>
						<g>
							<rect x="11.6" y="15.7" class="st20" width="2.1" height="0.3"/>
						</g>
						<g>
							<rect x="11.6" y="16.9" class="st20" width="2.1" height="0.3"/>
						</g>
						<g>
							<rect x="12.5" y="15.8" class="st20" width="0.3" height="2.6"/>
						</g>
					</g>
				</g>
				<g>
					<g>
						<path class="st20" d="M17.7,15.7v2.6c0,0.1-0.1,0.2-0.2,0.2h-2c-0.1,0-0.2-0.1-0.2-0.2v-2.6c0-0.7,0.5-1.2,1.2-1.2
							C17.2,14.5,17.7,15,17.7,15.7z"/>
						<g>
							<path class="st9" d="M15.6,18.2v-2.5c0-0.5,0.4-0.9,0.9-0.9c0.5,0,0.9,0.4,0.9,0.9v2.5H15.6z"/>
						</g>
					</g>
					<g>
						<g>
							<rect x="15.5" y="15.7" class="st20" width="2.1" height="0.3"/>
						</g>
						<g>
							<rect x="15.5" y="16.9" class="st20" width="2.1" height="0.3"/>
						</g>
						<g>
							<rect x="16.4" y="15.8" class="st20" width="0.3" height="2.6"/>
						</g>
					</g>
				</g>
				<g>
					<g>
						<path class="st20" d="M21.5,15.7v2.6c0,0.1-0.1,0.2-0.2,0.2h-2c-0.1,0-0.2-0.1-0.2-0.2v-2.6c0-0.7,0.5-1.2,1.2-1.2
							C21,14.5,21.5,15,21.5,15.7z"/>
						<g>
							<path class="st9" d="M19.4,18.2v-2.5c0-0.5,0.4-0.9,0.9-0.9c0.5,0,0.9,0.4,0.9,0.9v2.5H19.4z"/>
						</g>
					</g>
					<g>
						<g>
							<rect x="19.3" y="15.7" class="st20" width="2.1" height="0.3"/>
						</g>
						<g>
							<rect x="19.3" y="16.9" class="st20" width="2.1" height="0.3"/>
						</g>
						<g>
							<rect x="20.2" y="15.8" class="st20" width="0.3" height="2.6"/>
						</g>
					</g>
				</g>
				<g>
					<g>
						<path class="st20" d="M25.3,15.7v2.6c0,0.1-0.1,0.2-0.2,0.2h-2c-0.1,0-0.2-0.1-0.2-0.2v-2.6c0-0.7,0.5-1.2,1.2-1.2
							C24.8,14.5,25.3,15,25.3,15.7z"/>
						<g>
							<path class="st9" d="M23.3,18.2v-2.5c0-0.5,0.4-0.9,0.9-0.9c0.5,0,0.9,0.4,0.9,0.9v2.5H23.3z"/>
						</g>
					</g>
					<g>
						<g>
							<rect x="23.1" y="15.7" class="st20" width="2.1" height="0.3"/>
						</g>
						<g>
							<rect x="23.1" y="16.9" class="st20" width="2.1" height="0.3"/>
						</g>
						<g>
							<rect x="24" y="15.8" class="st20" width="0.3" height="2.6"/>
						</g>
					</g>
				</g>
				<g>
					<g>
						<path class="st20" d="M29.2,15.7v2.6c0,0.1-0.1,0.2-0.2,0.2h-2c-0.1,0-0.2-0.1-0.2-0.2v-2.6c0-0.7,0.5-1.2,1.2-1.2
							C28.6,14.5,29.2,15,29.2,15.7z"/>
						<g>
							<path class="st9" d="M27.1,18.2v-2.5c0-0.5,0.4-0.9,0.9-0.9c0.5,0,0.9,0.4,0.9,0.9v2.5H27.1z"/>
						</g>
					</g>
					<g>
						<g>
							<rect x="26.9" y="15.7" class="st20" width="2.1" height="0.3"/>
						</g>
						<g>
							<rect x="26.9" y="16.9" class="st20" width="2.1" height="0.3"/>
						</g>
						<g>
							<rect x="27.8" y="15.8" class="st20" width="0.3" height="2.6"/>
						</g>
					</g>
				</g>
			</g>
			<g>
				<g>
					<g>
						<path class="st20" d="M6.2,20.7v2.6c0,0.1-0.1,0.2-0.2,0.2H4c-0.1,0-0.2-0.1-0.2-0.2v-2.6c0-0.7,0.5-1.2,1.2-1.2
							C5.7,19.5,6.2,20,6.2,20.7z"/>
						<g>
							<path class="st9" d="M4.2,23.2v-2.5c0-0.5,0.4-0.9,0.9-0.9c0.5,0,0.9,0.4,0.9,0.9v2.5H4.2z"/>
						</g>
					</g>
					<g>
						<g>
							<rect x="4" y="20.7" class="st20" width="2.1" height="0.3"/>
						</g>
						<g>
							<rect x="4" y="21.9" class="st20" width="2.1" height="0.3"/>
						</g>
						<g>
							<rect x="4.9" y="20.8" class="st20" width="0.3" height="2.6"/>
						</g>
					</g>
				</g>
				<g>
					<g>
						<path class="st20" d="M10,20.7v2.6c0,0.1-0.1,0.2-0.2,0.2h-2c-0.1,0-0.2-0.1-0.2-0.2v-2.6c0-0.7,0.5-1.2,1.2-1.2
							C9.5,19.5,10,20,10,20.7z"/>
						<g>
							<path class="st9" d="M8,23.2v-2.5c0-0.5,0.4-0.9,0.9-0.9c0.5,0,0.9,0.4,0.9,0.9v2.5H8z"/>
						</g>
					</g>
					<g>
						<g>
							<rect x="7.8" y="20.7" class="st20" width="2.1" height="0.3"/>
						</g>
						<g>
							<rect x="7.8" y="21.9" class="st20" width="2.1" height="0.3"/>
						</g>
						<g>
							<rect x="8.7" y="20.8" class="st20" width="0.3" height="2.6"/>
						</g>
					</g>
				</g>
				<g>
					<g>
						<path class="st20" d="M13.9,20.7v2.6c0,0.1-0.1,0.2-0.2,0.2h-2c-0.1,0-0.2-0.1-0.2-0.2v-2.6c0-0.7,0.5-1.2,1.2-1.2
							C13.3,19.5,13.9,20,13.9,20.7z"/>
						<g>
							<path class="st9" d="M11.8,23.2v-2.5c0-0.5,0.4-0.9,0.9-0.9c0.5,0,0.9,0.4,0.9,0.9v2.5H11.8z"/>
						</g>
					</g>
					<g>
						<g>
							<rect x="11.6" y="20.7" class="st20" width="2.1" height="0.3"/>
						</g>
						<g>
							<rect x="11.6" y="21.9" class="st20" width="2.1" height="0.3"/>
						</g>
						<g>
							<rect x="12.5" y="20.8" class="st20" width="0.3" height="2.6"/>
						</g>
					</g>
				</g>
				<g>
					<g>
						<path class="st20" d="M17.7,20.7v2.6c0,0.1-0.1,0.2-0.2,0.2h-2c-0.1,0-0.2-0.1-0.2-0.2v-2.6c0-0.7,0.5-1.2,1.2-1.2
							C17.2,19.5,17.7,20,17.7,20.7z"/>
						<g>
							<path class="st9" d="M15.6,23.2v-2.5c0-0.5,0.4-0.9,0.9-0.9c0.5,0,0.9,0.4,0.9,0.9v2.5H15.6z"/>
						</g>
					</g>
					<g>
						<g>
							<rect x="15.5" y="20.7" class="st20" width="2.1" height="0.3"/>
						</g>
						<g>
							<rect x="15.5" y="21.9" class="st20" width="2.1" height="0.3"/>
						</g>
						<g>
							<rect x="16.4" y="20.8" class="st20" width="0.3" height="2.6"/>
						</g>
					</g>
				</g>
				<g>
					<g>
						<path class="st20" d="M21.5,20.7v2.6c0,0.1-0.1,0.2-0.2,0.2h-2c-0.1,0-0.2-0.1-0.2-0.2v-2.6c0-0.7,0.5-1.2,1.2-1.2
							C21,19.5,21.5,20,21.5,20.7z"/>
						<g>
							<path class="st9" d="M19.4,23.2v-2.5c0-0.5,0.4-0.9,0.9-0.9c0.5,0,0.9,0.4,0.9,0.9v2.5H19.4z"/>
						</g>
					</g>
					<g>
						<g>
							<rect x="19.3" y="20.7" class="st20" width="2.1" height="0.3"/>
						</g>
						<g>
							<rect x="19.3" y="21.9" class="st20" width="2.1" height="0.3"/>
						</g>
						<g>
							<rect x="20.2" y="20.8" class="st20" width="0.3" height="2.6"/>
						</g>
					</g>
				</g>
			</g>
		</g>
		<g>
			<rect x="22.5" y="19.4" class="st46" width="6.8" height="8.9"/>
		</g>
		<g>
			<rect x="23.3" y="21" class="st7" width="2.4" height="7.3"/>
			<rect x="26.2" y="21" class="st7" width="2.4" height="7.3"/>
		</g>
	</g>
	<path class="st4" d="M31.8,12.7h-1.9c0.4,0,0.7-0.5,0.6-0.9l-1.9-6.5c-0.1-0.4-0.4-0.7-0.8-0.7h1.6c0.4,0,0.8,0.3,0.9,0.7l2.2,6.5
		C32.6,12.3,32.3,12.7,31.8,12.7z"/>
</g>
</svg>
