<?xml version="1.0" encoding="utf-8"?>
<!-- Generator: Adobe Illustrator 21.1.0, SVG Export Plug-In . SVG Version: 6.00 Build 0)  -->
<svg version="1.1" id="Layer_1" xmlns="http://www.w3.org/2000/svg" xmlns:xlink="http://www.w3.org/1999/xlink" x="0px" y="0px"
	 viewBox="0 0 33 33" style="enable-background:new 0 0 33 33;" xml:space="preserve">
<style type="text/css">
	.st0{fill:#DAE5EF;}
	.st1{fill:#CBD6E0;}
	.st2{fill:#D03F3F;}
	.st3{fill:#BF3333;}
	.st4{fill:#E24B4B;}
	.st5{fill:#6D4135;}
	.st6{fill:#5B331D;}
	.st7{fill:#3E4347;}
	.st8{fill:#4E99D2;}
	.st9{fill:#65B1EF;}
	.st10{fill:#FFDC97;}
	.st11{fill:#FFCD7D;}
	.st12{fill:#FFE9AB;}
	.st13{fill:#31373A;}
	.st14{fill:#8CC63E;}
	.st15{fill:#FFD93B;}
	.st16{fill:#F4C534;}
	.st17{fill:#59A5E0;}
	.st18{fill:#DEE4E9;}
	.st19{fill:#D3D9DD;}
	.st20{fill:#FFFFFF;}
	.st21{fill:#2AB4CD;}
	.st22{fill:#1DA9BF;}
	.st23{fill:#E9EFF4;}
	.st24{fill:#7FB239;}
	.st25{fill:#719D34;}
	.st26{opacity:0.5;}
	.st27{fill:#BBC7D1;}
	.st28{fill:#E84D88;}
	.st29{fill:#D23F77;}
	.st30{fill:#633B2A;}
	.st31{fill:#E9B02C;}
	.st32{fill:#38C0DC;}
	.st33{fill:#45CBEA;}
	.st34{fill:#5A5F63;}
	.st35{fill:#E18823;}
	.st36{fill:#CF7519;}
	.st37{fill:#428DC3;}
	.st38{fill:#8D9BA3;}
	.st39{fill:#7B8B92;}
	.st40{fill:#ACB9C1;}
	.st41{fill:#846144;}
	.st42{fill:#7A5B44;}
	.st43{fill:#6B503B;}
	.st44{fill:#F29A2E;}
	.st45{fill:#728389;}
	.st46{fill:#FFD68D;}
	.st47{fill:#8F6D52;}
	.st48{fill:#84939A;}
	.st49{opacity:0.1;}
	.st50{fill:#89664C;}
	.st51{opacity:0.15;}
	.st52{fill:#DE9C25;}
	.st53{fill:#2AB4CD;stroke:#FFFFFF;stroke-width:0.5;stroke-linecap:round;stroke-linejoin:round;stroke-miterlimit:10;}
	.st54{fill:#FC97B2;}
	.st55{fill:#E88EA7;}
	.st56{opacity:0.2;}
	.st57{fill:#BB3166;}
	.st58{opacity:0.35;}
	.st59{opacity:0.6;}
	.st60{fill:#F9D087;}
	.st61{fill:#A5856D;}
	.st62{fill:#5C4533;}
	.st63{fill:#9A795F;}
	.st64{fill:#512A1B;}
	.st65{fill:#492418;}
	.st66{fill:#BE630E;}
	.st67{fill:none;}
	.st68{opacity:0.5;fill:#E18823;}
	.st69{opacity:0.1;fill:#FFFFFF;}
	.st70{fill:#FCCB7C;}
	.st71{opacity:0.15;fill:#FFFFFF;}
	.st72{opacity:0.2;fill:#FFFFFF;}
	.st73{opacity:0.5;fill:#CBD6E0;}
</style>
<g>
	<g>
		<path class="st2" d="M32.5,10.4c0.1,0.5-0.2,0.9-0.7,0.9H1.2c-0.5,0-0.8-0.4-0.7-0.9L2,3.7c0.1-0.3,0.4-0.6,0.7-0.6h27.5
			c0.3,0,0.6,0.2,0.7,0.6L32.5,10.4z"/>
	</g>
	<g>
		<path class="st3" d="M2.7,3.1h1.6C4,3.1,3.7,3.4,3.6,3.7l-1.3,6.7c-0.1,0.5,0.2,0.9,0.6,0.9H1.2c-0.5,0-0.8-0.4-0.7-0.9L2,3.7
			C2.1,3.4,2.4,3.1,2.7,3.1z"/>
		<path class="st4" d="M32.5,10.4c0.1,0.5-0.2,0.9-0.7,0.9H30c0.4,0,0.7-0.4,0.6-0.9l-1.3-6.7c-0.1-0.3-0.3-0.6-0.6-0.6h1.6
			c0.3,0,0.6,0.2,0.7,0.6L32.5,10.4z"/>
	</g>
	<g>
		<rect x="3.1" y="11.3" class="st0" width="26.8" height="17.4"/>
	</g>
	<g>
		<polygon class="st1" points="29.9,13 29.9,11.3 3.1,11.3 		"/>
	</g>
	<g>
		<rect x="2.4" y="28.2" class="st34" width="28.2" height="4.3"/>
	</g>
	<g>
		<g>
			<g>
				<path class="st20" d="M9.6,14v4c0,0.3-0.3,0.6-0.6,0.6H6c-0.4,0-0.6-0.3-0.6-0.6v-4c0-0.4,0.3-0.6,0.6-0.6h2.9
					C9.3,13.4,9.6,13.7,9.6,14z"/>
				<path class="st8" d="M6,18C6,18,6,18,6,18l0-4c0,0,0,0,0,0h2.9c0,0,0,0,0,0v4c0,0,0,0,0,0H6z"/>
				<g>
					<polygon class="st9" points="6,15.6 7.2,14 6.8,14 6,15.1 					"/>
					<polygon class="st9" points="6,16.1 6,17.2 8.4,14 7.5,14 					"/>
				</g>
			</g>
			<g>
				<path class="st20" d="M9.6,21.1v4c0,0.3-0.3,0.6-0.6,0.6H6c-0.4,0-0.6-0.3-0.6-0.6v-4c0-0.4,0.3-0.6,0.6-0.6h2.9
					C9.3,20.4,9.6,20.7,9.6,21.1z"/>
				<path class="st8" d="M6,25.1C6,25.1,6,25.1,6,25.1l0-4c0,0,0,0,0,0h2.9c0,0,0,0,0,0v4c0,0,0,0,0,0H6z"/>
				<g>
					<polygon class="st9" points="6,22.7 7.2,21 6.8,21 6,22.1 					"/>
					<polygon class="st9" points="6,23.2 6,24.3 8.4,21 7.5,21 					"/>
				</g>
			</g>
		</g>
		<g>
			<g>
				<path class="st20" d="M15.6,14v4c0,0.3-0.3,0.6-0.6,0.6H12c-0.4,0-0.6-0.3-0.6-0.6v-4c0-0.4,0.3-0.6,0.6-0.6h2.9
					C15.3,13.4,15.6,13.7,15.6,14z"/>
				<path class="st8" d="M12,18C12,18,12,18,12,18l0-4c0,0,0,0,0,0h2.9c0,0,0,0,0,0v4c0,0,0,0,0,0H12z"/>
				<g>
					<polygon class="st9" points="12,15.6 13.2,14 12.8,14 12,15.1 					"/>
					<polygon class="st9" points="12,16.1 12,17.2 14.4,14 13.5,14 					"/>
				</g>
			</g>
		</g>
		<g>
			<g>
				<path class="st20" d="M21.6,14v4c0,0.3-0.3,0.6-0.6,0.6H18c-0.4,0-0.6-0.3-0.6-0.6v-4c0-0.4,0.3-0.6,0.6-0.6H21
					C21.3,13.4,21.6,13.7,21.6,14z"/>
				<path class="st8" d="M18,18C18,18,18,18,18,18l0-4c0,0,0,0,0,0H21c0,0,0,0,0,0v4c0,0,0,0,0,0H18z"/>
				<g>
					<polygon class="st9" points="18,15.6 19.2,14 18.8,14 18,15.1 					"/>
					<polygon class="st9" points="18,16.1 18,17.2 20.4,14 19.6,14 					"/>
				</g>
			</g>
		</g>
		<g>
			<g>
				<path class="st20" d="M27.6,14v4c0,0.3-0.3,0.6-0.6,0.6h-2.9c-0.4,0-0.6-0.3-0.6-0.6v-4c0-0.4,0.3-0.6,0.6-0.6H27
					C27.3,13.4,27.6,13.7,27.6,14z"/>
				<path class="st8" d="M24.1,18C24.1,18,24,18,24.1,18l0-4c0,0,0,0,0,0H27c0,0,0,0,0,0v4c0,0,0,0,0,0H24.1z"/>
				<g>
					<polygon class="st9" points="24,15.6 25.2,14 24.8,14 24,15.1 					"/>
					<polygon class="st9" points="24,16.1 24,17.2 26.4,14 25.6,14 					"/>
				</g>
			</g>
			<g>
				<path class="st20" d="M27.6,21.1v4c0,0.3-0.3,0.6-0.6,0.6h-2.9c-0.4,0-0.6-0.3-0.6-0.6v-4c0-0.4,0.3-0.6,0.6-0.6H27
					C27.3,20.4,27.6,20.7,27.6,21.1z"/>
				<path class="st8" d="M24.1,25.1C24.1,25.1,24,25.1,24.1,25.1l0-4c0,0,0,0,0,0H27c0,0,0,0,0,0v4c0,0,0,0,0,0H24.1z"/>
				<g>
					<polygon class="st9" points="24,22.7 25.2,21 24.8,21 24,22.1 					"/>
					<polygon class="st9" points="24,23.2 24,24.3 26.4,21 25.6,21 					"/>
				</g>
			</g>
		</g>
	</g>
	<g>
		<rect x="11.3" y="20.7" class="st1" width="10.5" height="11.8"/>
	</g>
	<g>
		<rect x="12.3" y="22.6" class="st8" width="3.8" height="9.9"/>
		<rect x="12.3" y="22.6" class="st8" width="3.8" height="9.9"/>
		<rect x="16.9" y="22.6" class="st8" width="3.8" height="9.9"/>
		<g>
			<polygon class="st17" points="16.9,25 18.7,22.6 18,22.6 16.9,24.1 			"/>
			<polygon class="st17" points="16.9,25.9 16.9,27.6 20.7,22.6 19.4,22.6 			"/>
		</g>
	</g>
	<g>
		<g>
			<path class="st7" d="M25.4,1.2v3.2c0,0.4-0.3,0.7-0.7,0.7H8.3c-0.4,0-0.7-0.3-0.7-0.7V1.2c0-0.4,0.3-0.7,0.7-0.7h16.5
				C25.1,0.5,25.4,0.8,25.4,1.2z"/>
		</g>
		<g>
			<path class="st20" d="M9.1,3.6V2h0.5C9.9,2,10,2,10,2c0.1,0,0.2,0.1,0.2,0.2c0.1,0.1,0.1,0.2,0.1,0.3c0,0.1,0,0.2-0.1,0.2
				c0,0.1-0.1,0.1-0.1,0.2C10.1,2.9,10.1,3,10,3C9.9,3,9.8,3,9.7,3H9.5v0.6H9.1z M9.5,2.3v0.5h0.2c0.1,0,0.2,0,0.3,0
				c0,0,0.1,0,0.1-0.1c0,0,0-0.1,0-0.1c0-0.1,0-0.1-0.1-0.1c0,0-0.1-0.1-0.1-0.1c0,0-0.1,0-0.2,0H9.5z"/>
			<path class="st20" d="M10.6,2.8c0-0.2,0-0.3,0.1-0.4c0-0.1,0.1-0.2,0.2-0.2C10.9,2.1,10.9,2.1,11,2C11.1,2,11.2,2,11.3,2
				c0.2,0,0.4,0.1,0.6,0.2c0.1,0.1,0.2,0.4,0.2,0.6c0,0.3-0.1,0.5-0.2,0.6c-0.1,0.1-0.3,0.2-0.6,0.2c-0.2,0-0.4-0.1-0.6-0.2
				S10.6,3.1,10.6,2.8z M10.9,2.8c0,0.2,0,0.3,0.1,0.4c0.1,0.1,0.2,0.1,0.3,0.1c0.1,0,0.2,0,0.3-0.1c0.1-0.1,0.1-0.2,0.1-0.4
				c0-0.2,0-0.3-0.1-0.4c-0.1-0.1-0.2-0.1-0.3-0.1s-0.2,0-0.3,0.1C10.9,2.5,10.9,2.6,10.9,2.8z"/>
			<path class="st20" d="M12.3,3.1l0.3,0c0,0.1,0.1,0.2,0.1,0.2c0.1,0,0.1,0.1,0.2,0.1c0.1,0,0.2,0,0.2-0.1c0.1,0,0.1-0.1,0.1-0.2
				c0,0,0-0.1,0-0.1c0,0-0.1-0.1-0.1-0.1c0,0-0.1,0-0.3-0.1c-0.2,0-0.3-0.1-0.4-0.2c-0.1-0.1-0.1-0.2-0.1-0.3c0-0.1,0-0.2,0.1-0.2
				c0-0.1,0.1-0.1,0.2-0.2C12.7,2,12.8,2,12.9,2c0.2,0,0.4,0,0.5,0.1c0.1,0.1,0.2,0.2,0.2,0.4l-0.3,0c0-0.1,0-0.1-0.1-0.2
				c0,0-0.1-0.1-0.2-0.1c-0.1,0-0.2,0-0.2,0.1c0,0-0.1,0.1-0.1,0.1c0,0,0,0.1,0,0.1c0,0,0.1,0.1,0.3,0.1c0.2,0,0.3,0.1,0.4,0.1
				c0.1,0,0.1,0.1,0.2,0.2c0,0.1,0.1,0.2,0.1,0.3c0,0.1,0,0.2-0.1,0.3c-0.1,0.1-0.1,0.1-0.2,0.2c-0.1,0-0.2,0.1-0.4,0.1
				c-0.2,0-0.4,0-0.5-0.1S12.3,3.3,12.3,3.1z"/>
			<path class="st20" d="M14.2,3.6V2.3h-0.5V2h1.3v0.3h-0.5v1.3H14.2z"/>
			<path class="st20" d="M15.8,2.8c0-0.2,0-0.3,0.1-0.4c0-0.1,0.1-0.2,0.2-0.2c0.1-0.1,0.1-0.1,0.2-0.1C16.4,2,16.5,2,16.6,2
				C16.8,2,17,2,17.2,2.2c0.1,0.1,0.2,0.4,0.2,0.6c0,0.3-0.1,0.5-0.2,0.6c-0.1,0.1-0.3,0.2-0.6,0.2c-0.2,0-0.4-0.1-0.6-0.2
				C15.9,3.3,15.8,3.1,15.8,2.8z M16.2,2.8c0,0.2,0,0.3,0.1,0.4c0.1,0.1,0.2,0.1,0.3,0.1c0.1,0,0.2,0,0.3-0.1C17,3.1,17,3,17,2.8
				c0-0.2,0-0.3-0.1-0.4c-0.1-0.1-0.2-0.1-0.3-0.1s-0.2,0-0.3,0.1C16.2,2.5,16.2,2.6,16.2,2.8z"/>
			<path class="st20" d="M17.6,3.6V2h1.1v0.3H18v0.4h0.7v0.3H18v0.7H17.6z"/>
			<path class="st20" d="M19,3.6V2h1.1v0.3h-0.8v0.4H20v0.3h-0.7v0.7H19z"/>
			<path class="st20" d="M20.4,3.6V2h0.3v1.6H20.4z"/>
			<path class="st20" d="M22,3l0.3,0.1c0,0.2-0.1,0.3-0.2,0.4c-0.1,0.1-0.3,0.1-0.4,0.1c-0.2,0-0.4-0.1-0.5-0.2
				C21,3.3,21,3.1,21,2.8c0-0.3,0.1-0.5,0.2-0.6S21.5,2,21.7,2c0.2,0,0.4,0.1,0.5,0.2c0.1,0.1,0.1,0.2,0.2,0.3L22,2.5
				c0-0.1-0.1-0.1-0.1-0.2c-0.1,0-0.1-0.1-0.2-0.1c-0.1,0-0.2,0-0.3,0.1c-0.1,0.1-0.1,0.2-0.1,0.4c0,0.2,0,0.3,0.1,0.4
				c0.1,0.1,0.2,0.1,0.3,0.1c0.1,0,0.2,0,0.2-0.1C22,3.2,22,3.1,22,3z"/>
			<path class="st20" d="M22.6,3.6V2h1.2v0.3H23v0.4h0.8v0.3H23v0.4h0.9v0.3H22.6z"/>
		</g>
	</g>
	<g>
		<polygon class="st17" points="12.3,31.1 16.1,26 16.1,25.1 12.3,30.2 		"/>
		<polygon class="st17" points="16.1,28.7 16.1,26.9 12.3,32 12.3,32.5 13.2,32.5 		"/>
	</g>
</g>
</svg>
