<?xml version="1.0" encoding="utf-8"?>
<!-- Generator: Adobe Illustrator 21.1.0, SVG Export Plug-In . SVG Version: 6.00 Build 0)  -->
<svg version="1.1" id="Layer_1" xmlns="http://www.w3.org/2000/svg" xmlns:xlink="http://www.w3.org/1999/xlink" x="0px" y="0px"
	 viewBox="0 0 33 33" style="enable-background:new 0 0 33 33;" xml:space="preserve">
<style type="text/css">
	.st0{fill:#DAE5EF;}
	.st1{fill:#CBD6E0;}
	.st2{fill:#D03F3F;}
	.st3{fill:#BF3333;}
	.st4{fill:#E24B4B;}
	.st5{fill:#6D4135;}
	.st6{fill:#5B331D;}
	.st7{fill:#3E4347;}
	.st8{fill:#4E99D2;}
	.st9{fill:#65B1EF;}
	.st10{fill:#FFDC97;}
	.st11{fill:#FFCD7D;}
	.st12{fill:#FFE9AB;}
	.st13{fill:#31373A;}
	.st14{fill:#8CC63E;}
	.st15{fill:#FFD93B;}
	.st16{fill:#F4C534;}
	.st17{fill:#59A5E0;}
	.st18{fill:#DEE4E9;}
	.st19{fill:#D3D9DD;}
	.st20{fill:#FFFFFF;}
	.st21{fill:#2AB4CD;}
	.st22{fill:#1DA9BF;}
	.st23{fill:#E9EFF4;}
	.st24{fill:#7FB239;}
	.st25{fill:#719D34;}
	.st26{opacity:0.5;}
	.st27{fill:#BBC7D1;}
	.st28{fill:#E84D88;}
	.st29{fill:#D23F77;}
	.st30{fill:#633B2A;}
	.st31{fill:#E9B02C;}
	.st32{fill:#38C0DC;}
	.st33{fill:#45CBEA;}
	.st34{fill:#5A5F63;}
	.st35{fill:#E18823;}
	.st36{fill:#CF7519;}
	.st37{fill:#428DC3;}
	.st38{fill:#8D9BA3;}
	.st39{fill:#7B8B92;}
	.st40{fill:#ACB9C1;}
	.st41{fill:#846144;}
	.st42{fill:#7A5B44;}
	.st43{fill:#6B503B;}
	.st44{fill:#F29A2E;}
	.st45{fill:#728389;}
	.st46{fill:#FFD68D;}
	.st47{fill:#8F6D52;}
	.st48{fill:#84939A;}
	.st49{opacity:0.1;}
	.st50{fill:#89664C;}
	.st51{opacity:0.15;}
	.st52{fill:#DE9C25;}
	.st53{fill:#2AB4CD;stroke:#FFFFFF;stroke-width:0.5;stroke-linecap:round;stroke-linejoin:round;stroke-miterlimit:10;}
	.st54{fill:#FC97B2;}
	.st55{fill:#E88EA7;}
	.st56{opacity:0.2;}
	.st57{fill:#BB3166;}
	.st58{opacity:0.35;}
	.st59{opacity:0.6;}
	.st60{fill:#F9D087;}
	.st61{fill:#A5856D;}
	.st62{fill:#5C4533;}
	.st63{fill:#9A795F;}
	.st64{fill:#512A1B;}
	.st65{fill:#492418;}
	.st66{fill:#BE630E;}
	.st67{fill:none;}
	.st68{opacity:0.5;fill:#E18823;}
	.st69{opacity:0.1;fill:#FFFFFF;}
	.st70{fill:#FCCB7C;}
	.st71{opacity:0.15;fill:#FFFFFF;}
	.st72{opacity:0.2;fill:#FFFFFF;}
	.st73{opacity:0.5;fill:#CBD6E0;}
</style>
<g>
	<g>
		<g>
			<g>
				<rect x="8.7" y="4.5" class="st19" width="15.9" height="26.4"/>
			</g>
			<g>
				<g>
					<g>
						<g>
							<g>
								<rect x="5.2" y="28.2" class="st9" width="3.9" height="2.8"/>
							</g>
							<g>
								<rect x="9.9" y="28.2" class="st9" width="3.9" height="2.8"/>
							</g>
							<g>
								<rect x="23.9" y="28.2" class="st9" width="3.9" height="2.8"/>
							</g>
						</g>
						<g>
							<g>
								<path class="st23" d="M5.2,26.4h8.2c0.5,0,0.9,0.4,0.9,0.9v0c0,0.5-0.4,0.9-0.9,0.9H5.2c-0.5,0-0.9-0.4-0.9-0.9v0
									C4.3,26.8,4.7,26.4,5.2,26.4z"/>
								<path class="st23" d="M28.7,27.3L28.7,27.3c0,0.5-0.4,0.9-0.9,0.9h-3.5c-0.5,0-0.9-0.4-0.9-0.9v0c0-0.5,0.4-0.9,0.9-0.9h3.5
									C28.3,26.4,28.7,26.8,28.7,27.3z"/>
							</g>
						</g>
					</g>
				</g>
				<g>
					<g>
						<g>
							<g>
								<rect x="5.2" y="23.6" class="st9" width="3.9" height="2.8"/>
							</g>
							<g>
								<rect x="9.9" y="23.6" class="st9" width="3.9" height="2.8"/>
							</g>
							<g>
								<rect x="14.7" y="24.7" class="st37" width="3.9" height="6.3"/>
								<rect x="19.1" y="24.7" class="st37" width="3.9" height="6.3"/>
							</g>
							<g>
								<rect x="23.9" y="23.6" class="st9" width="3.9" height="2.8"/>
							</g>
						</g>
						<g>
							<g>
								<path class="st23" d="M4.3,22.8L4.3,22.8c0,0.5,0.4,0.9,0.9,0.9h22.7c0.5,0,0.9-0.4,0.9-0.9v0c0-0.5-0.4-0.9-0.9-0.9H5.2
									C4.7,21.9,4.3,22.3,4.3,22.8z"/>
							</g>
						</g>
						<g>
							<g>
								<path class="st7" d="M30.8,31.7c0,0.4-0.3,0.8-0.8,0.8H3c-0.4,0-0.8-0.3-0.8-0.8C2.2,31.3,2.6,31,3,31h27
									C30.5,31,30.8,31.3,30.8,31.7z"/>
							</g>
						</g>
					</g>
				</g>
				<g>
					<g>
						<g>
							<g>
								<rect x="5.2" y="19.1" class="st9" width="3.9" height="2.8"/>
							</g>
							<g>
								<rect x="9.9" y="19.1" class="st9" width="3.9" height="2.8"/>
							</g>
							<g>
								<rect x="14.5" y="19.1" class="st9" width="3.9" height="2.8"/>
							</g>
							<g>
								<rect x="19.2" y="19.1" class="st9" width="3.9" height="2.8"/>
							</g>
							<g>
								<rect x="23.9" y="19.1" class="st9" width="3.9" height="2.8"/>
							</g>
						</g>
						<g>
							<g>
								<path class="st23" d="M4.3,18.2L4.3,18.2c0,0.5,0.4,0.9,0.9,0.9h22.7c0.5,0,0.9-0.4,0.9-0.9v0c0-0.5-0.4-0.9-0.9-0.9H5.2
									C4.7,17.3,4.3,17.7,4.3,18.2z"/>
							</g>
						</g>
					</g>
				</g>
				<g>
					<g>
						<g>
							<g>
								<rect x="5.2" y="14.5" class="st9" width="3.9" height="2.8"/>
							</g>
							<g>
								<rect x="9.9" y="14.5" class="st9" width="3.9" height="2.8"/>
							</g>
							<g>
								<rect x="14.5" y="14.5" class="st9" width="3.9" height="2.8"/>
							</g>
							<g>
								<rect x="19.2" y="14.5" class="st9" width="3.9" height="2.8"/>
							</g>
							<g>
								<rect x="23.9" y="14.5" class="st9" width="3.9" height="2.8"/>
							</g>
						</g>
						<g>
							<g>
								<path class="st23" d="M4.3,13.6L4.3,13.6c0,0.5,0.4,0.9,0.9,0.9h22.7c0.5,0,0.9-0.4,0.9-0.9v0c0-0.5-0.4-0.9-0.9-0.9H5.2
									C4.7,12.7,4.3,13.1,4.3,13.6z"/>
							</g>
						</g>
					</g>
				</g>
				<g>
					<g>
						<g>
							<g>
								<rect x="5.2" y="10" class="st9" width="3.9" height="2.8"/>
							</g>
							<g>
								<rect x="9.9" y="10" class="st9" width="3.9" height="2.8"/>
							</g>
							<g>
								<rect x="14.5" y="10" class="st9" width="3.9" height="2.8"/>
							</g>
							<g>
								<rect x="19.2" y="10" class="st9" width="3.9" height="2.8"/>
							</g>
							<g>
								<rect x="23.9" y="10" class="st9" width="3.9" height="2.8"/>
							</g>
						</g>
						<g>
							<g>
								<path class="st23" d="M4.3,9.1L4.3,9.1c0,0.5,0.4,0.9,0.9,0.9h22.7c0.5,0,0.9-0.4,0.9-0.9v0c0-0.5-0.4-0.9-0.9-0.9H5.2
									C4.7,8.2,4.3,8.6,4.3,9.1z"/>
							</g>
						</g>
					</g>
				</g>
				<g>
					<g>
						<g>
							<g>
								<rect x="5.2" y="5.4" class="st9" width="3.9" height="2.8"/>
							</g>
							<g>
								<rect x="9.9" y="5.4" class="st9" width="3.9" height="2.8"/>
							</g>
							<g>
								<rect x="14.5" y="5.4" class="st9" width="3.9" height="2.8"/>
							</g>
							<g>
								<rect x="19.2" y="5.4" class="st9" width="3.9" height="2.8"/>
							</g>
							<g>
								<rect x="23.9" y="5.4" class="st9" width="3.9" height="2.8"/>
							</g>
						</g>
						<g>
							<g>
								<path class="st2" d="M30.1,1.6l-0.7,3.1c-0.1,0.4-0.5,0.7-0.9,0.7h-24c-0.4,0-0.8-0.3-0.9-0.7L2.9,1.6
									C2.8,1,3.2,0.5,3.8,0.5h25.4C29.8,0.5,30.2,1,30.1,1.6z"/>
							</g>
						</g>
						<g>
							<g>
								<path class="st3" d="M5.8,5.4H4.5c-0.4,0-0.8-0.3-0.9-0.7L2.9,1.6C2.8,1,3.2,0.5,3.8,0.5h1.4C4.7,0.5,4.3,1,4.5,1.6l0.6,3.1
									C5.2,5.1,5.5,5.4,5.8,5.4z"/>
								<path class="st4" d="M30.1,1.6l-0.7,3.1c-0.1,0.4-0.5,0.7-0.9,0.7h-1.4c0.4,0,0.7-0.3,0.8-0.7l0.6-3.1
									c0.1-0.6-0.3-1.1-0.8-1.1h1.4C29.8,0.5,30.2,1,30.1,1.6z"/>
							</g>
						</g>
					</g>
				</g>
			</g>
		</g>
		<g>
			<path class="st20" d="M8.6,4.1V1.8H9v0.9h0.9V1.8h0.5v2.3H9.9v-1H9v1H8.6z"/>
			<path class="st20" d="M10.8,3c0-0.2,0-0.4,0.1-0.6C11,2.3,11,2.2,11.1,2.1c0.1-0.1,0.2-0.2,0.3-0.2c0.1-0.1,0.3-0.1,0.5-0.1
				c0.3,0,0.6,0.1,0.8,0.3s0.3,0.5,0.3,0.9c0,0.4-0.1,0.7-0.3,0.9s-0.5,0.3-0.8,0.3c-0.3,0-0.6-0.1-0.8-0.3
				C10.9,3.6,10.8,3.3,10.8,3z M11.3,3c0,0.3,0.1,0.5,0.2,0.6c0.1,0.1,0.3,0.2,0.5,0.2s0.3-0.1,0.5-0.2c0.1-0.1,0.2-0.3,0.2-0.6
				c0-0.3-0.1-0.5-0.2-0.6c-0.1-0.1-0.3-0.2-0.5-0.2s-0.4,0.1-0.5,0.2C11.4,2.5,11.3,2.7,11.3,3z"/>
			<path class="st20" d="M13.3,3.4l0.5,0c0,0.2,0.1,0.3,0.2,0.3c0.1,0.1,0.2,0.1,0.3,0.1c0.2,0,0.3,0,0.3-0.1
				c0.1-0.1,0.1-0.1,0.1-0.2c0-0.1,0-0.1,0-0.1s-0.1-0.1-0.2-0.1c-0.1,0-0.2-0.1-0.4-0.1C13.9,3,13.7,3,13.6,2.9
				c-0.1-0.1-0.2-0.3-0.2-0.5c0-0.1,0-0.2,0.1-0.3c0.1-0.1,0.2-0.2,0.3-0.2c0.1-0.1,0.3-0.1,0.5-0.1c0.3,0,0.5,0.1,0.7,0.2
				c0.1,0.1,0.2,0.3,0.2,0.5l-0.5,0c0-0.1-0.1-0.2-0.1-0.3c-0.1-0.1-0.2-0.1-0.3-0.1c-0.1,0-0.2,0-0.3,0.1c0,0-0.1,0.1-0.1,0.1
				c0,0.1,0,0.1,0.1,0.1c0.1,0,0.2,0.1,0.4,0.2s0.4,0.1,0.5,0.2s0.2,0.1,0.3,0.2c0.1,0.1,0.1,0.2,0.1,0.4c0,0.1,0,0.3-0.1,0.4
				C15,3.9,14.9,4,14.8,4.1s-0.3,0.1-0.5,0.1c-0.3,0-0.5-0.1-0.7-0.2C13.4,3.8,13.3,3.6,13.3,3.4z"/>
			<path class="st20" d="M15.6,4.1V1.8h0.8c0.3,0,0.5,0,0.6,0c0.1,0,0.2,0.1,0.3,0.2c0.1,0.1,0.1,0.3,0.1,0.5c0,0.1,0,0.3-0.1,0.4
				C17.3,3,17.2,3,17.1,3.1C17,3.2,17,3.2,16.9,3.2c-0.1,0-0.3,0-0.5,0h-0.3v0.9H15.6z M16.1,2.2v0.7h0.3c0.2,0,0.3,0,0.4,0
				c0.1,0,0.1-0.1,0.1-0.1s0.1-0.1,0.1-0.2c0-0.1,0-0.2-0.1-0.2s-0.1-0.1-0.2-0.1c-0.1,0-0.2,0-0.3,0H16.1z"/>
			<path class="st20" d="M17.8,4.1V1.8h0.5v2.3H17.8z"/>
			<path class="st20" d="M19.2,4.1V2.2h-0.7V1.8h1.9v0.4h-0.7v1.9H19.2z"/>
			<path class="st20" d="M22.5,4.1H22l-0.2-0.5h-0.9l-0.2,0.5h-0.5l0.9-2.3h0.5L22.5,4.1z M21.7,3.2l-0.3-0.9L21,3.2H21.7z"/>
			<path class="st20" d="M22.8,4.1V1.8h0.5v1.9h1.2v0.4H22.8z"/>
		</g>
	</g>
	<g>
		<g>
			<rect x="5.2" y="10" class="st9" width="3.9" height="2.8"/>
		</g>
		<g>
			<rect x="9.9" y="10" class="st9" width="3.9" height="2.8"/>
		</g>
		<g>
			<rect x="14.5" y="10" class="st9" width="3.9" height="2.8"/>
		</g>
		<g>
			<rect x="19.2" y="10" class="st9" width="3.9" height="2.8"/>
		</g>
		<g>
			<rect x="23.9" y="10" class="st9" width="3.9" height="2.8"/>
		</g>
	</g>
	<g>
		<polygon class="st8" points="5.2,10 5.2,10 9.1,10.3 9.1,10 		"/>
		<polygon class="st8" points="9.9,10 9.9,10.3 13.8,10.6 13.8,10 		"/>
		<polygon class="st8" points="14.5,10 14.5,10.6 18.5,10.9 18.5,10 		"/>
		<polygon class="st8" points="19.2,10 19.2,11 23.2,11.2 23.2,10 		"/>
		<polygon class="st8" points="23.9,11.3 27.8,11.6 27.8,10 23.9,10 		"/>
	</g>
	<g>
		<polygon class="st8" points="5.2,5.4 5.2,5.4 9.1,5.7 9.1,5.4 		"/>
		<polygon class="st8" points="9.9,5.4 9.9,5.7 13.8,6 13.8,5.4 		"/>
		<polygon class="st8" points="14.5,5.4 14.5,6.1 18.5,6.4 18.5,5.4 		"/>
		<polygon class="st8" points="19.2,5.4 19.2,6.4 23.2,6.7 23.2,5.4 		"/>
		<polygon class="st8" points="23.9,6.7 27.8,7 27.8,5.4 23.9,5.4 		"/>
	</g>
	<g>
		<polygon class="st8" points="5.2,14.5 5.2,14.5 9.1,14.8 9.1,14.5 		"/>
		<polygon class="st8" points="9.9,14.5 9.9,14.9 13.8,15.1 13.8,14.5 		"/>
		<polygon class="st8" points="14.5,14.5 14.5,15.2 18.5,15.5 18.5,14.5 		"/>
		<polygon class="st8" points="19.2,14.5 19.2,15.5 23.2,15.8 23.2,14.5 		"/>
		<polygon class="st8" points="23.9,15.9 27.8,16.1 27.8,14.5 23.9,14.5 		"/>
	</g>
	<g>
		<polygon class="st8" points="5.2,19.1 5.2,19.1 9.1,19.4 9.1,19.1 		"/>
		<polygon class="st8" points="9.9,19.1 9.9,19.4 13.8,19.7 13.8,19.1 		"/>
		<polygon class="st8" points="14.5,19.1 14.5,19.7 18.5,20 18.5,19.1 		"/>
		<polygon class="st8" points="19.2,19.1 19.2,20.1 23.2,20.4 23.2,19.1 		"/>
		<polygon class="st8" points="23.9,20.4 27.8,20.7 27.8,19.1 23.9,19.1 		"/>
	</g>
	<g>
		<polygon class="st8" points="5.2,23.6 5.2,23.6 9.1,23.9 9.1,23.6 		"/>
		<polygon class="st8" points="9.9,23.6 9.9,24 13.8,24.3 13.8,23.6 		"/>
		<polygon class="st8" points="23.9,25 27.8,25.2 27.8,23.6 23.9,23.6 		"/>
	</g>
	<g>
		<polygon class="st8" points="5.2,28.2 5.2,28.2 9.1,28.5 9.1,28.2 		"/>
		<polygon class="st8" points="9.9,28.2 9.9,28.5 13.8,28.8 13.8,28.2 		"/>
		<polygon class="st8" points="23.9,29.5 27.8,29.8 27.8,28.2 23.9,28.2 		"/>
	</g>
	<g>
		<polygon class="st8" points="14.7,29.8 14.7,31 16,31 18.6,28.4 18.6,25.9 		"/>
		<polygon class="st8" points="18.6,25 18.6,24.7 17.7,24.7 14.7,27.7 14.7,28.9 		"/>
		<polygon class="st8" points="19.8,24.7 19.1,25.4 19.1,27.8 22.2,24.7 		"/>
	</g>
</g>
</svg>
