<?xml version="1.0" encoding="utf-8"?>
<!-- Generator: Adobe Illustrator 21.1.0, SVG Export Plug-In . SVG Version: 6.00 Build 0)  -->
<svg version="1.1" id="Layer_1" xmlns="http://www.w3.org/2000/svg" xmlns:xlink="http://www.w3.org/1999/xlink" x="0px" y="0px"
	 viewBox="0 0 33 33" style="enable-background:new 0 0 33 33;" xml:space="preserve">
<style type="text/css">
	.st0{fill:#DAE5EF;}
	.st1{fill:#CBD6E0;}
	.st2{fill:#D03F3F;}
	.st3{fill:#BF3333;}
	.st4{fill:#E24B4B;}
	.st5{fill:#6D4135;}
	.st6{fill:#5B331D;}
	.st7{fill:#3E4347;}
	.st8{fill:#4E99D2;}
	.st9{fill:#65B1EF;}
	.st10{fill:#FFDC97;}
	.st11{fill:#FFCD7D;}
	.st12{fill:#FFE9AB;}
	.st13{fill:#31373A;}
	.st14{fill:#8CC63E;}
	.st15{fill:#FFD93B;}
	.st16{fill:#F4C534;}
	.st17{fill:#59A5E0;}
	.st18{fill:#DEE4E9;}
	.st19{fill:#D3D9DD;}
	.st20{fill:#FFFFFF;}
	.st21{fill:#2AB4CD;}
	.st22{fill:#1DA9BF;}
	.st23{fill:#E9EFF4;}
	.st24{fill:#7FB239;}
	.st25{fill:#719D34;}
	.st26{opacity:0.5;}
	.st27{fill:#BBC7D1;}
	.st28{fill:#E84D88;}
	.st29{fill:#D23F77;}
	.st30{fill:#633B2A;}
	.st31{fill:#E9B02C;}
	.st32{fill:#38C0DC;}
	.st33{fill:#45CBEA;}
	.st34{fill:#5A5F63;}
	.st35{fill:#E18823;}
	.st36{fill:#CF7519;}
	.st37{fill:#428DC3;}
	.st38{fill:#8D9BA3;}
	.st39{fill:#7B8B92;}
	.st40{fill:#ACB9C1;}
	.st41{fill:#846144;}
	.st42{fill:#7A5B44;}
	.st43{fill:#6B503B;}
	.st44{fill:#F29A2E;}
	.st45{fill:#728389;}
	.st46{fill:#FFD68D;}
	.st47{fill:#8F6D52;}
	.st48{fill:#84939A;}
	.st49{opacity:0.1;}
	.st50{fill:#89664C;}
	.st51{opacity:0.15;}
	.st52{fill:#DE9C25;}
	.st53{fill:#2AB4CD;stroke:#FFFFFF;stroke-width:0.5;stroke-linecap:round;stroke-linejoin:round;stroke-miterlimit:10;}
	.st54{fill:#FC97B2;}
	.st55{fill:#E88EA7;}
	.st56{opacity:0.2;}
	.st57{fill:#BB3166;}
	.st58{opacity:0.35;}
	.st59{opacity:0.6;}
	.st60{fill:#F9D087;}
	.st61{fill:#A5856D;}
	.st62{fill:#5C4533;}
	.st63{fill:#9A795F;}
	.st64{fill:#512A1B;}
	.st65{fill:#492418;}
	.st66{fill:#BE630E;}
	.st67{fill:none;}
	.st68{opacity:0.5;fill:#E18823;}
	.st69{opacity:0.1;fill:#FFFFFF;}
	.st70{fill:#FCCB7C;}
	.st71{opacity:0.15;fill:#FFFFFF;}
	.st72{opacity:0.2;fill:#FFFFFF;}
	.st73{opacity:0.5;fill:#CBD6E0;}
</style>
<g>
	<g>
		<g>
			<path class="st38" d="M28.1,7.6v1.3c0,0.3-0.2,0.5-0.5,0.5H5.4c-0.3,0-0.5-0.2-0.5-0.5V7.6c0-0.3,0.2-0.5,0.5-0.5h22.2
				C27.8,7.1,28.1,7.3,28.1,7.6z"/>
		</g>
		<g>
			<path class="st0" d="M24.3,5.4v3.4c0,0.4-0.3,0.7-0.7,0.7H9.3C9,9.4,8.7,9.1,8.7,8.8V5.4C8.7,5,9,4.7,9.3,4.7h14.3
				C24,4.7,24.3,5,24.3,5.4z"/>
		</g>
		<g>
			<rect x="2" y="10.4" class="st0" width="29.1" height="17.8"/>
		</g>
		<g>
			<rect x="2" y="25.3" class="st27" width="29.1" height="3"/>
		</g>
		<g>
			<polygon class="st1" points="31,11.8 31,13 2,11.8 			"/>
		</g>
		<g>
			<path class="st4" d="M32,11.8H1c-0.2,0-0.4-0.2-0.3-0.5l0.8-2.1C1.5,9,1.7,8.8,2,8.8h29c0.3,0,0.5,0.2,0.6,0.4l0.7,2.1
				C32.4,11.6,32.3,11.8,32,11.8z"/>
		</g>
		<g>
			<path class="st7" d="M10.1,7.5V6.1h0.9v0.2h-0.7v0.3H11v0.2h-0.6v0.6H10.1z"/>
			<path class="st7" d="M11.3,7.5V6.1h0.3v1.4H11.3z"/>
			<path class="st7" d="M11.8,7.5V6.1h0.6c0.1,0,0.3,0,0.3,0c0.1,0,0.1,0.1,0.2,0.1c0,0.1,0.1,0.1,0.1,0.2c0,0.1,0,0.2-0.1,0.3
				c-0.1,0.1-0.2,0.1-0.3,0.1c0.1,0,0.1,0.1,0.1,0.1c0,0,0.1,0.1,0.2,0.2l0.2,0.3h-0.3l-0.2-0.3C12.5,7.1,12.4,7,12.4,7
				c0,0-0.1,0-0.1-0.1c0,0-0.1,0-0.1,0h-0.1v0.6H11.8z M12.1,6.7h0.2c0.1,0,0.2,0,0.2,0c0,0,0.1,0,0.1-0.1c0,0,0-0.1,0-0.1
				c0,0,0-0.1,0-0.1c0,0-0.1,0-0.1-0.1c0,0-0.1,0-0.2,0h-0.2V6.7z"/>
			<path class="st7" d="M13.2,7.5V6.1h1v0.2h-0.7v0.3h0.7v0.2h-0.7v0.4h0.8v0.2H13.2z"/>
			<path class="st7" d="M15,7.1l0.3,0c0,0.1,0,0.2,0.1,0.2c0,0,0.1,0.1,0.2,0.1c0.1,0,0.2,0,0.2-0.1s0.1-0.1,0.1-0.1
				c0,0,0-0.1,0-0.1c0,0-0.1,0-0.1-0.1c0,0-0.1,0-0.2-0.1c-0.1,0-0.3-0.1-0.3-0.1C15.1,6.7,15,6.6,15,6.5c0-0.1,0-0.1,0.1-0.2
				c0-0.1,0.1-0.1,0.2-0.1s0.2,0,0.3,0c0.2,0,0.3,0,0.4,0.1C16,6.3,16,6.4,16,6.5l-0.3,0c0-0.1,0-0.1-0.1-0.2c0,0-0.1,0-0.2,0
				c-0.1,0-0.1,0-0.2,0c0,0,0,0,0,0.1c0,0,0,0.1,0,0.1c0,0,0.1,0.1,0.3,0.1c0.1,0,0.2,0.1,0.3,0.1c0.1,0,0.1,0.1,0.2,0.1
				c0,0.1,0.1,0.1,0.1,0.2c0,0.1,0,0.2-0.1,0.2c0,0.1-0.1,0.1-0.2,0.2c-0.1,0-0.2,0.1-0.3,0.1c-0.2,0-0.3,0-0.4-0.1
				C15,7.3,15,7.2,15,7.1z"/>
			<path class="st7" d="M16.6,7.5V6.4h-0.4V6.1h1.1v0.2h-0.4v1.1H16.6z"/>
			<path class="st7" d="M18.6,7.5h-0.3l-0.1-0.3h-0.5l-0.1,0.3h-0.3l0.5-1.4H18L18.6,7.5z M18.1,7l-0.2-0.5L17.7,7H18.1z"/>
			<path class="st7" d="M18.9,7.5V6.4h-0.4V6.1h1.1v0.2h-0.4v1.1H18.9z"/>
			<path class="st7" d="M19.7,7.5V6.1H20v1.4H19.7z"/>
			<path class="st7" d="M20.2,6.8c0-0.1,0-0.3,0.1-0.4c0-0.1,0.1-0.1,0.1-0.2c0.1-0.1,0.1-0.1,0.2-0.1c0.1,0,0.2-0.1,0.3-0.1
				c0.2,0,0.4,0.1,0.5,0.2c0.1,0.1,0.2,0.3,0.2,0.5c0,0.2-0.1,0.4-0.2,0.5c-0.1,0.1-0.3,0.2-0.5,0.2c-0.2,0-0.4-0.1-0.5-0.2
				C20.3,7.2,20.2,7.1,20.2,6.8z M20.5,6.8c0,0.2,0,0.3,0.1,0.4c0.1,0.1,0.2,0.1,0.3,0.1s0.2,0,0.3-0.1s0.1-0.2,0.1-0.4
				c0-0.2,0-0.3-0.1-0.4c-0.1-0.1-0.2-0.1-0.3-0.1s-0.2,0-0.3,0.1C20.6,6.6,20.5,6.7,20.5,6.8z"/>
			<path class="st7" d="M21.8,7.5V6.1h0.3l0.6,0.9V6.1h0.3v1.4h-0.3L22,6.6v0.9H21.8z"/>
		</g>
		<g>
			<g>
				<g>
					<g>
						<path class="st1" d="M11.2,28.3v-8.1c-2.4-1.1-4.9-1.2-7.4,0v8.1H11.2z"/>
					</g>
				</g>
			</g>
			<g>
				<g>
					<g>
						<path class="st1" d="M20.2,28.3v-8.1c-2.4-1.1-4.9-1.2-7.4,0v8.1H20.2z"/>
					</g>
				</g>
			</g>
			<g>
				<g>
					<g>
						<path class="st1" d="M29.2,28.3v-8.1c-2.4-1.1-4.9-1.2-7.4,0v8.1H29.2z"/>
					</g>
				</g>
			</g>
		</g>
		<g>
			<g>
				<g>
					<path class="st20" d="M9,14.1v3.4c0,0.2-0.1,0.3-0.3,0.3H4.1c-0.2,0-0.3-0.1-0.3-0.3v-3.4c0-0.2,0.1-0.3,0.3-0.3h4.6
						C8.9,13.7,9,13.9,9,14.1z"/>
					<g>
						<rect x="4.3" y="14.2" class="st9" width="4.3" height="3.1"/>
					</g>
				</g>
				<g>
					<polygon class="st17" points="6.4,14.2 4.3,16.4 4.3,17.3 7.3,14.2 					"/>
					<polygon class="st17" points="4.3,15.4 4.3,15.9 5.9,14.2 5.5,14.2 					"/>
				</g>
			</g>
			<g>
				<g>
					<path class="st20" d="M15.8,14.1v3.4c0,0.2-0.1,0.3-0.3,0.3h-4.6c-0.2,0-0.3-0.1-0.3-0.3v-3.4c0-0.2,0.1-0.3,0.3-0.3h4.6
						C15.6,13.7,15.8,13.9,15.8,14.1z"/>
					<g>
						<rect x="11" y="14.2" class="st9" width="4.3" height="3.1"/>
					</g>
				</g>
				<g>
					<polygon class="st17" points="13.2,14.2 11,16.4 11,17.3 14,14.2 					"/>
					<polygon class="st17" points="11,15.4 11,15.9 12.6,14.2 12.2,14.2 					"/>
				</g>
			</g>
			<g>
				<g>
					<path class="st20" d="M22.5,14.1v3.4c0,0.2-0.1,0.3-0.3,0.3h-4.6c-0.2,0-0.3-0.1-0.3-0.3v-3.4c0-0.2,0.1-0.3,0.3-0.3h4.6
						C22.3,13.7,22.5,13.9,22.5,14.1z"/>
					<g>
						<rect x="17.7" y="14.2" class="st9" width="4.3" height="3.1"/>
					</g>
				</g>
				<g>
					<polygon class="st17" points="19.9,14.2 17.7,16.4 17.7,17.3 20.8,14.2 					"/>
					<polygon class="st17" points="17.7,15.4 17.7,15.9 19.4,14.2 18.9,14.2 					"/>
				</g>
			</g>
			<g>
				<g>
					<path class="st20" d="M29.2,14.1v3.4c0,0.2-0.1,0.3-0.3,0.3h-4.6c-0.2,0-0.3-0.1-0.3-0.3v-3.4c0-0.2,0.1-0.3,0.3-0.3h4.6
						C29.1,13.7,29.2,13.9,29.2,14.1z"/>
					<g>
						<rect x="24.5" y="14.2" class="st9" width="4.3" height="3.1"/>
					</g>
				</g>
				<g>
					<polygon class="st17" points="26.6,14.2 24.5,16.4 24.5,17.3 27.5,14.2 					"/>
					<polygon class="st17" points="24.5,15.4 24.5,15.9 26.1,14.2 25.7,14.2 					"/>
				</g>
			</g>
		</g>
	</g>
	<g>
		<g>
			<path class="st7" d="M10.4,28.3v-7c-1.9-1-3.8-1-5.9,0v7H10.4z"/>
		</g>
		<g>
			<g>
				<path class="st17" d="M9.9,24.1v-2.5c-0.8-0.4-1.6-0.5-2.4-0.5c-0.8,0-1.6,0.2-2.4,0.5v2.5H9.9z"/>
			</g>
			<g>
				<path class="st9" d="M5.1,23.9l3.3-2.7c-0.1,0-0.3,0-0.4-0.1l-2.9,2.4V23.9z"/>
				<path class="st9" d="M6.1,24.1l3.2-2.7c-0.2-0.1-0.4-0.1-0.6-0.2l-3.4,2.9H6.1z"/>
			</g>
		</g>
	</g>
	<g>
		<g>
			<path class="st7" d="M19.4,28.3v-7c-1.9-1-3.8-1-5.9,0v7H19.4z"/>
		</g>
		<g>
			<g>
				<path class="st17" d="M18.9,24.1v-2.5c-0.8-0.4-1.6-0.5-2.4-0.5c-0.8,0-1.6,0.2-2.4,0.5v2.5H18.9z"/>
			</g>
			<g>
				<path class="st9" d="M14.1,23.9l3.3-2.7c-0.1,0-0.3,0-0.4-0.1l-2.9,2.4V23.9z"/>
				<path class="st9" d="M15.1,24.1l3.2-2.7c-0.2-0.1-0.4-0.1-0.6-0.2l-3.4,2.9H15.1z"/>
			</g>
		</g>
	</g>
	<g>
		<g>
			<path class="st7" d="M28.4,28.3v-7c-1.9-1-3.8-1-5.9,0v7H28.4z"/>
		</g>
		<g>
			<g>
				<path class="st17" d="M27.9,24.1v-2.5c-0.8-0.4-1.6-0.5-2.4-0.5c-0.8,0-1.6,0.2-2.4,0.5v2.5H27.9z"/>
			</g>
			<g>
				<path class="st9" d="M23.1,23.9l3.3-2.7c-0.1,0-0.3,0-0.4-0.1l-2.9,2.4V23.9z"/>
				<path class="st9" d="M24.1,24.1l3.2-2.7c-0.2-0.1-0.4-0.1-0.6-0.2l-3.4,2.9H24.1z"/>
			</g>
		</g>
	</g>
</g>
</svg>
