<?xml version="1.0" encoding="utf-8"?>
<!-- Generator: Adobe Illustrator 21.1.0, SVG Export Plug-In . SVG Version: 6.00 Build 0)  -->
<svg version="1.1" id="Layer_1" xmlns="http://www.w3.org/2000/svg" xmlns:xlink="http://www.w3.org/1999/xlink" x="0px" y="0px"
	 viewBox="0 0 33 33" style="enable-background:new 0 0 33 33;" xml:space="preserve">
<style type="text/css">
	.st0{fill:#DAE5EF;}
	.st1{fill:#CBD6E0;}
	.st2{fill:#D03F3F;}
	.st3{fill:#BF3333;}
	.st4{fill:#E24B4B;}
	.st5{fill:#6D4135;}
	.st6{fill:#5B331D;}
	.st7{fill:#3E4347;}
	.st8{fill:#4E99D2;}
	.st9{fill:#65B1EF;}
	.st10{fill:#FFDC97;}
	.st11{fill:#FFCD7D;}
	.st12{fill:#FFE9AB;}
	.st13{fill:#31373A;}
	.st14{fill:#8CC63E;}
	.st15{fill:#FFD93B;}
	.st16{fill:#F4C534;}
	.st17{fill:#59A5E0;}
	.st18{fill:#DEE4E9;}
	.st19{fill:#D3D9DD;}
	.st20{fill:#FFFFFF;}
	.st21{fill:#2AB4CD;}
	.st22{fill:#1DA9BF;}
	.st23{fill:#E9EFF4;}
	.st24{fill:#7FB239;}
	.st25{fill:#719D34;}
	.st26{opacity:0.5;}
	.st27{fill:#BBC7D1;}
	.st28{fill:#E84D88;}
	.st29{fill:#D23F77;}
	.st30{fill:#633B2A;}
	.st31{fill:#E9B02C;}
	.st32{fill:#38C0DC;}
	.st33{fill:#45CBEA;}
	.st34{fill:#5A5F63;}
	.st35{fill:#E18823;}
	.st36{fill:#CF7519;}
	.st37{fill:#428DC3;}
	.st38{fill:#8D9BA3;}
	.st39{fill:#7B8B92;}
	.st40{fill:#ACB9C1;}
	.st41{fill:#846144;}
	.st42{fill:#7A5B44;}
	.st43{fill:#6B503B;}
	.st44{fill:#F29A2E;}
	.st45{fill:#728389;}
	.st46{fill:#FFD68D;}
	.st47{fill:#8F6D52;}
	.st48{fill:#84939A;}
	.st49{opacity:0.1;}
	.st50{fill:#89664C;}
	.st51{opacity:0.15;}
	.st52{fill:#DE9C25;}
	.st53{fill:#2AB4CD;stroke:#FFFFFF;stroke-width:0.5;stroke-linecap:round;stroke-linejoin:round;stroke-miterlimit:10;}
	.st54{fill:#FC97B2;}
	.st55{fill:#E88EA7;}
	.st56{opacity:0.2;}
	.st57{fill:#BB3166;}
	.st58{opacity:0.35;}
	.st59{opacity:0.6;}
	.st60{fill:#F9D087;}
	.st61{fill:#A5856D;}
	.st62{fill:#5C4533;}
	.st63{fill:#9A795F;}
	.st64{fill:#512A1B;}
	.st65{fill:#492418;}
	.st66{fill:#BE630E;}
	.st67{fill:none;}
	.st68{opacity:0.5;fill:#E18823;}
	.st69{opacity:0.1;fill:#FFFFFF;}
	.st70{fill:#FCCB7C;}
	.st71{opacity:0.15;fill:#FFFFFF;}
	.st72{opacity:0.2;fill:#FFFFFF;}
	.st73{opacity:0.5;fill:#CBD6E0;}
</style>
<g>
	<g>
		<g>
			<g>
				<rect x="2.1" y="8.4" class="st44" width="28.8" height="21.6"/>
			</g>
		</g>
		<g>
			<g>
				<rect x="2.1" y="28.2" class="st66" width="28.8" height="1.7"/>
			</g>
		</g>
		<g>
			<g>
				<rect x="11.4" y="28.2" class="st19" width="10.3" height="1"/>
			</g>
		</g>
		<g>
			<g>
				<rect x="2.1" y="8.4" class="st35" width="28.8" height="1"/>
			</g>
		</g>
		<g>
			<g>
				<path class="st7" d="M32.5,7.6c0.1,0.4-0.2,0.7-0.6,0.7H1.1C0.7,8.4,0.4,8,0.5,7.6l0.7-4.1C1.3,3.3,1.5,3,1.8,3h29.4
					c0.3,0,0.5,0.2,0.6,0.5L32.5,7.6z"/>
			</g>
		</g>
		<g>
			<g>
				<g>
					<g>
						<g>
							<rect x="4.3" y="10.5" class="st8" width="4.1" height="6.5"/>
							<path class="st7" d="M8.4,17.2H4.3c-0.1,0-0.3-0.1-0.3-0.3v-6.5c0-0.1,0.1-0.3,0.3-0.3h4.1c0.1,0,0.3,0.1,0.3,0.3v6.5
								C8.7,17.1,8.6,17.2,8.4,17.2z M4.6,16.7h3.5v-5.9H4.6V16.7z"/>
						</g>
					</g>
					<g>
						<g>
							<g>
								<rect x="4.3" y="12.3" class="st7" width="4.1" height="0.5"/>
							</g>
						</g>
						<g>
							<g>
								<rect x="4.3" y="14.5" class="st7" width="4.1" height="0.5"/>
							</g>
						</g>
					</g>
					<g>
						<g>
							<g>
								<line class="st8" x1="6.4" y1="10.5" x2="6.4" y2="16.9"/>
								<rect x="6.1" y="10.5" class="st7" width="0.5" height="6.5"/>
							</g>
						</g>
					</g>
				</g>
				<g>
					<g>
						<g>
							<rect x="11.1" y="10.5" class="st8" width="4.1" height="6.5"/>
							<path class="st7" d="M15.2,17.2h-4.1c-0.1,0-0.3-0.1-0.3-0.3v-6.5c0-0.1,0.1-0.3,0.3-0.3h4.1c0.1,0,0.3,0.1,0.3,0.3v6.5
								C15.4,17.1,15.3,17.2,15.2,17.2z M11.4,16.7h3.5v-5.9h-3.5V16.7z"/>
						</g>
					</g>
					<g>
						<g>
							<g>
								<rect x="11.1" y="12.3" class="st7" width="4.1" height="0.5"/>
							</g>
						</g>
						<g>
							<g>
								<rect x="11.1" y="14.5" class="st7" width="4.1" height="0.5"/>
							</g>
						</g>
					</g>
					<g>
						<g>
							<g>
								<line class="st8" x1="13.1" y1="10.5" x2="13.1" y2="16.9"/>
								<rect x="12.9" y="10.5" class="st7" width="0.5" height="6.5"/>
							</g>
						</g>
					</g>
				</g>
				<g>
					<g>
						<g>
							<rect x="17.8" y="10.5" class="st8" width="4.1" height="6.5"/>
							<path class="st7" d="M21.9,17.2h-4.1c-0.1,0-0.3-0.1-0.3-0.3v-6.5c0-0.1,0.1-0.3,0.3-0.3h4.1c0.1,0,0.3,0.1,0.3,0.3v6.5
								C22.2,17.1,22.1,17.2,21.9,17.2z M18.1,16.7h3.5v-5.9h-3.5V16.7z"/>
						</g>
					</g>
					<g>
						<g>
							<g>
								<rect x="17.8" y="12.3" class="st7" width="4.1" height="0.5"/>
							</g>
						</g>
						<g>
							<g>
								<rect x="17.8" y="14.5" class="st7" width="4.1" height="0.5"/>
							</g>
						</g>
					</g>
					<g>
						<g>
							<g>
								<line class="st8" x1="19.9" y1="10.5" x2="19.9" y2="16.9"/>
								<rect x="19.6" y="10.5" class="st7" width="0.5" height="6.5"/>
							</g>
						</g>
					</g>
				</g>
				<g>
					<g>
						<g>
							<rect x="24.6" y="10.5" class="st8" width="4.1" height="6.5"/>
							<path class="st7" d="M28.7,17.2h-4.1c-0.1,0-0.3-0.1-0.3-0.3v-6.5c0-0.1,0.1-0.3,0.3-0.3h4.1c0.1,0,0.3,0.1,0.3,0.3v6.5
								C28.9,17.1,28.8,17.2,28.7,17.2z M24.9,16.7h3.5v-5.9h-3.5V16.7z"/>
						</g>
					</g>
					<g>
						<g>
							<g>
								<rect x="24.6" y="12.3" class="st7" width="4.1" height="0.5"/>
							</g>
						</g>
						<g>
							<g>
								<rect x="24.6" y="14.5" class="st7" width="4.1" height="0.5"/>
							</g>
						</g>
					</g>
					<g>
						<g>
							<g>
								<line class="st8" x1="26.6" y1="10.5" x2="26.6" y2="16.9"/>
								<rect x="26.4" y="10.5" class="st7" width="0.5" height="6.5"/>
							</g>
						</g>
					</g>
				</g>
			</g>
			<g>
				<g>
					<g>
						<g>
							<rect x="4.3" y="20.1" class="st8" width="4.1" height="6.5"/>
							<path class="st7" d="M8.4,26.8H4.3c-0.1,0-0.3-0.1-0.3-0.3v-6.5c0-0.1,0.1-0.3,0.3-0.3h4.1c0.1,0,0.3,0.1,0.3,0.3v6.5
								C8.7,26.7,8.6,26.8,8.4,26.8z M4.6,26.3h3.5v-5.9H4.6V26.3z"/>
						</g>
					</g>
					<g>
						<g>
							<g>
								<rect x="4.3" y="22" class="st7" width="4.1" height="0.5"/>
							</g>
						</g>
						<g>
							<g>
								<rect x="4.3" y="24.2" class="st7" width="4.1" height="0.5"/>
							</g>
						</g>
					</g>
					<g>
						<g>
							<g>
								<line class="st8" x1="6.4" y1="20.1" x2="6.4" y2="26.6"/>
								<rect x="6.1" y="20.1" class="st7" width="0.5" height="6.5"/>
							</g>
						</g>
					</g>
				</g>
				<g>
					<g>
						<g>
							<rect x="24.6" y="20.1" class="st8" width="4.1" height="6.5"/>
							<path class="st7" d="M28.7,26.8h-4.1c-0.1,0-0.3-0.1-0.3-0.3v-6.5c0-0.1,0.1-0.3,0.3-0.3h4.1c0.1,0,0.3,0.1,0.3,0.3v6.5
								C28.9,26.7,28.8,26.8,28.7,26.8z M24.9,26.3h3.5v-5.9h-3.5V26.3z"/>
						</g>
					</g>
					<g>
						<g>
							<g>
								<rect x="24.6" y="22" class="st7" width="4.1" height="0.5"/>
							</g>
						</g>
						<g>
							<g>
								<rect x="24.6" y="24.2" class="st7" width="4.1" height="0.5"/>
							</g>
						</g>
					</g>
					<g>
						<g>
							<g>
								<line class="st8" x1="26.6" y1="20.1" x2="26.6" y2="26.6"/>
								<rect x="26.4" y="20.1" class="st7" width="0.5" height="6.5"/>
							</g>
						</g>
					</g>
				</g>
			</g>
		</g>
	</g>
	<g>
		<g>
			<path class="st7" d="M21.8,21.7H11.2c-0.2,0-0.4-0.2-0.3-0.4l0.5-2c0-0.2,0.2-0.3,0.3-0.3h9.6c0.2,0,0.3,0.1,0.3,0.3l0.5,2
				C22.2,21.5,22,21.7,21.8,21.7z"/>
		</g>
	</g>
	<g>
		<g>
			<g>
				<g>
					<g>
						<polygon class="st16" points="13.5,21.9 13.5,28 13.4,28 13.4,28 12.2,28 12.2,25.7 12.2,25.7 12.2,21.9 						"/>
					</g>
				</g>
			</g>
			<g>
				<g>
					<path class="st15" d="M13.7,21.9c0,0.1-0.1,0.2-0.2,0.2h-1.2c-0.1,0-0.2-0.1-0.2-0.2c0-0.1,0.1-0.2,0.2-0.2h1.2
						C13.6,21.7,13.7,21.8,13.7,21.9z"/>
				</g>
			</g>
			<g>
				<path class="st15" d="M12,28c0-0.1,0.1-0.2,0.2-0.2h1.2c0.1,0,0.2,0.1,0.2,0.2c0,0.1-0.1,0.2-0.2,0.2h-1.2
					C12.1,28.2,12,28.1,12,28z"/>
			</g>
		</g>
		<g>
			<g>
				<g>
					<g>
						<polygon class="st16" points="20.8,21.9 20.8,28 20.8,28 20.8,28 19.6,28 19.6,25.7 19.6,25.7 19.6,21.9 						"/>
					</g>
				</g>
			</g>
			<g>
				<g>
					<path class="st15" d="M21,21.9c0,0.1-0.1,0.2-0.2,0.2h-1.2c-0.1,0-0.2-0.1-0.2-0.2c0-0.1,0.1-0.2,0.2-0.2h1.2
						C20.9,21.7,21,21.8,21,21.9z"/>
				</g>
			</g>
			<g>
				<path class="st15" d="M19.3,28c0-0.1,0.1-0.2,0.2-0.2h1.2c0.1,0,0.2,0.1,0.2,0.2c0,0.1-0.1,0.2-0.2,0.2h-1.2
					C19.4,28.2,19.3,28.1,19.3,28z"/>
			</g>
		</g>
	</g>
	<g>
		<g>
			<rect x="10.3" y="29.1" class="st23" width="12.4" height="0.9"/>
		</g>
	</g>
	<g>
		<g>
			<rect x="14.4" y="22.6" class="st5" width="4.2" height="5.6"/>
		</g>
		<g>
			<rect x="14.4" y="22.6" class="st5" width="4.2" height="5.6"/>
		</g>
		<g>
			<g>
				<rect x="14.8" y="23" class="st6" width="3.5" height="1.5"/>
			</g>
			<g>
				<rect x="14.8" y="25" class="st6" width="3.5" height="2.9"/>
			</g>
		</g>
	</g>
	<g>
		<g>
			<circle class="st5" cx="17.7" cy="25.6" r="0.2"/>
		</g>
	</g>
</g>
</svg>
