<?xml version="1.0" encoding="utf-8"?>
<!-- Generator: Adobe Illustrator 21.1.0, SVG Export Plug-In . SVG Version: 6.00 Build 0)  -->
<svg version="1.1" id="Layer_1" xmlns="http://www.w3.org/2000/svg" xmlns:xlink="http://www.w3.org/1999/xlink" x="0px" y="0px"
	 viewBox="0 0 33 33" style="enable-background:new 0 0 33 33;" xml:space="preserve">
<style type="text/css">
	.st0{fill:#DAE5EF;}
	.st1{fill:#CBD6E0;}
	.st2{fill:#D03F3F;}
	.st3{fill:#BF3333;}
	.st4{fill:#E24B4B;}
	.st5{fill:#6D4135;}
	.st6{fill:#5B331D;}
	.st7{fill:#3E4347;}
	.st8{fill:#4E99D2;}
	.st9{fill:#65B1EF;}
	.st10{fill:#FFDC97;}
	.st11{fill:#FFCD7D;}
	.st12{fill:#FFE9AB;}
	.st13{fill:#31373A;}
	.st14{fill:#8CC63E;}
	.st15{fill:#FFD93B;}
	.st16{fill:#F4C534;}
	.st17{fill:#59A5E0;}
	.st18{fill:#DEE4E9;}
	.st19{fill:#D3D9DD;}
	.st20{fill:#FFFFFF;}
	.st21{fill:#2AB4CD;}
	.st22{fill:#1DA9BF;}
	.st23{fill:#E9EFF4;}
	.st24{fill:#7FB239;}
	.st25{fill:#719D34;}
	.st26{opacity:0.5;}
	.st27{fill:#BBC7D1;}
	.st28{fill:#E84D88;}
	.st29{fill:#D23F77;}
	.st30{fill:#633B2A;}
	.st31{fill:#E9B02C;}
	.st32{fill:#38C0DC;}
	.st33{fill:#45CBEA;}
	.st34{fill:#5A5F63;}
	.st35{fill:#E18823;}
	.st36{fill:#CF7519;}
	.st37{fill:#428DC3;}
	.st38{fill:#8D9BA3;}
	.st39{fill:#7B8B92;}
	.st40{fill:#ACB9C1;}
	.st41{fill:#846144;}
	.st42{fill:#7A5B44;}
	.st43{fill:#6B503B;}
	.st44{fill:#F29A2E;}
	.st45{fill:#728389;}
	.st46{fill:#FFD68D;}
	.st47{fill:#8F6D52;}
	.st48{fill:#84939A;}
	.st49{opacity:0.1;}
	.st50{fill:#89664C;}
	.st51{opacity:0.15;}
	.st52{fill:#DE9C25;}
	.st53{fill:#2AB4CD;stroke:#FFFFFF;stroke-width:0.5;stroke-linecap:round;stroke-linejoin:round;stroke-miterlimit:10;}
	.st54{fill:#FC97B2;}
	.st55{fill:#E88EA7;}
	.st56{opacity:0.2;}
	.st57{fill:#BB3166;}
	.st58{opacity:0.35;}
	.st59{opacity:0.6;}
	.st60{fill:#F9D087;}
	.st61{fill:#A5856D;}
	.st62{fill:#5C4533;}
	.st63{fill:#9A795F;}
	.st64{fill:#512A1B;}
	.st65{fill:#492418;}
	.st66{fill:#BE630E;}
	.st67{fill:none;}
	.st68{opacity:0.5;fill:#E18823;}
	.st69{opacity:0.1;fill:#FFFFFF;}
	.st70{fill:#FCCB7C;}
	.st71{opacity:0.15;fill:#FFFFFF;}
	.st72{opacity:0.2;fill:#FFFFFF;}
	.st73{opacity:0.5;fill:#CBD6E0;}
</style>
<g>
	<g>
		<g>
			<path class="st29" d="M32.5,14v1.9c0,0.3-0.2,0.5-0.5,0.5H1c-0.3,0-0.5-0.2-0.5-0.5V14c0-0.3,0.2-0.5,0.5-0.5h31
				C32.3,13.4,32.5,13.7,32.5,14z"/>
		</g>
		<g>
			<rect x="1.6" y="16.3" class="st0" width="29.8" height="10.2"/>
		</g>
		<g>
			<polygon class="st1" points="10.6,14.1 9.9,26.5 23.1,26.5 22.4,14.1 			"/>
		</g>
		<g>
			<rect x="1.6" y="25.3" class="st38" width="29.8" height="1.2"/>
		</g>
		<g>
			<polygon class="st39" points="23.1,26.5 23,25.3 10,25.3 9.9,26.5 			"/>
		</g>
		<polygon class="st0" points="22.4,26.5 22.4,10.1 16.5,7.4 10.6,10.1 10.6,26.5 		"/>
		<g>
			<g>
				<path class="st28" d="M23.5,10.7c-0.2,0.5-0.8,0.6-1.2,0.4l-5.8-2.7l-5.8,2.7c-0.4,0.2-1,0-1.2-0.4c-0.2-0.4,0-1,0.4-1.2
					l6.2-2.9c0.2-0.1,0.5-0.1,0.8,0l6.2,2.9C23.5,9.7,23.7,10.2,23.5,10.7z"/>
			</g>
		</g>
		<g>
			<g>
				<rect x="12.5" y="16.3" class="st7" width="8" height="10.2"/>
			</g>
		</g>
		<g>
			<rect x="13.3" y="18.4" class="st32" width="2.9" height="8.1"/>
			<g class="st56">
				<polygon class="st20" points="13.3,23.1 13.3,25.4 14.9,18.4 14.4,18.4 				"/>
				<polygon class="st20" points="13.5,26.5 14.6,26.5 16.2,19 16.2,18.4 15.3,18.4 				"/>
			</g>
		</g>
		<g>
			<rect x="16.8" y="18.4" class="st32" width="2.9" height="8.1"/>
			<g class="st56">
				<polygon class="st20" points="16.8,23.1 16.8,25.4 18.3,18.4 17.8,18.4 				"/>
				<polygon class="st20" points="16.9,26.5 18,26.5 19.7,19 19.7,18.4 18.8,18.4 				"/>
			</g>
		</g>
		<g>
			<g>
				<g>
					<path class="st7" d="M5.4,18.5v4.9c0,0.6-0.5,1.1-1.2,1.1c-0.6,0-1.1-0.5-1.1-1.1v-4.9c0-0.6,0.5-1.2,1.1-1.2
						C4.9,17.4,5.4,17.9,5.4,18.5z"/>
					<path class="st32" d="M4.2,24.1c-0.4,0-0.7-0.3-0.7-0.7v-4.9c0-0.4,0.3-0.7,0.7-0.7c0.4,0,0.7,0.3,0.7,0.7v4.9
						C5,23.8,4.6,24.1,4.2,24.1z"/>
					<path class="st72" d="M3.5,23l1.3-4.9c-0.1-0.1-0.2-0.2-0.3-0.2l-1,3.9V23z"/>
					<path class="st72" d="M5,18.5c0-0.1,0-0.1,0-0.2l-1.4,5.2c0,0.2,0.2,0.4,0.4,0.5l1-3.9V18.5z"/>
				</g>
				<g>
					<path class="st7" d="M8.7,18.5v4.9c0,0.6-0.5,1.1-1.2,1.1c-0.6,0-1.1-0.5-1.1-1.1v-4.9c0-0.6,0.5-1.2,1.1-1.2
						C8.2,17.4,8.7,17.9,8.7,18.5z"/>
					<path class="st32" d="M7.5,24.1c-0.4,0-0.7-0.3-0.7-0.7v-4.9c0-0.4,0.3-0.7,0.7-0.7c0.4,0,0.7,0.3,0.7,0.7v4.9
						C8.3,23.8,7.9,24.1,7.5,24.1z"/>
					<path class="st72" d="M6.8,23l1.3-4.9C8,18,7.9,17.9,7.8,17.8l-1,3.9V23z"/>
					<path class="st72" d="M8.3,18.5c0-0.1,0-0.1,0-0.2l-1.4,5.2c0,0.2,0.2,0.4,0.4,0.5l1-3.9V18.5z"/>
				</g>
			</g>
			<g>
				<g>
					<path class="st7" d="M26.6,18.5v4.9c0,0.6-0.5,1.1-1.2,1.1c-0.6,0-1.1-0.5-1.1-1.1v-4.9c0-0.6,0.5-1.2,1.1-1.2
						C26.1,17.4,26.6,17.9,26.6,18.5z"/>
					<path class="st32" d="M25.5,24.1c-0.4,0-0.7-0.3-0.7-0.7v-4.9c0-0.4,0.3-0.7,0.7-0.7c0.4,0,0.7,0.3,0.7,0.7v4.9
						C26.2,23.8,25.9,24.1,25.5,24.1z"/>
					<path class="st72" d="M24.7,23l1.3-4.9c-0.1-0.1-0.2-0.2-0.3-0.2l-1,3.9V23z"/>
					<path class="st72" d="M26.2,18.5c0-0.1,0-0.1,0-0.2l-1.4,5.2c0,0.2,0.2,0.4,0.4,0.5l1-3.9V18.5z"/>
				</g>
				<g>
					<path class="st7" d="M29.9,18.5v4.9c0,0.6-0.5,1.1-1.2,1.1c-0.6,0-1.1-0.5-1.1-1.1v-4.9c0-0.6,0.5-1.2,1.1-1.2
						C29.4,17.4,29.9,17.9,29.9,18.5z"/>
					<path class="st32" d="M28.8,24.1c-0.4,0-0.7-0.3-0.7-0.7v-4.9c0-0.4,0.3-0.7,0.7-0.7c0.4,0,0.7,0.3,0.7,0.7v4.9
						C29.5,23.8,29.2,24.1,28.8,24.1z"/>
					<path class="st72" d="M28,23l1.3-4.9c-0.1-0.1-0.2-0.2-0.3-0.2l-1,3.9V23z"/>
					<path class="st72" d="M29.5,18.5c0-0.1,0-0.1,0-0.2L28,23.5c0,0.2,0.2,0.4,0.4,0.5l1-3.9V18.5z"/>
				</g>
			</g>
		</g>
	</g>
	<g>
		<g>
			<path class="st7" d="M14.6,12.1v-1h0.3c0.1,0,0.2,0,0.3,0c0.1,0,0.1,0,0.2,0.1c0,0.1,0.1,0.1,0.1,0.2c0,0.1,0,0.1,0,0.2
				s-0.1,0.1-0.1,0.1c0,0-0.1,0-0.1,0c-0.1,0-0.1,0-0.2,0h-0.1v0.4H14.6z M14.8,11.2v0.3h0.1c0.1,0,0.1,0,0.2,0c0,0,0,0,0.1-0.1
				c0,0,0-0.1,0-0.1c0,0,0-0.1,0-0.1c0,0-0.1,0-0.1,0c0,0-0.1,0-0.2,0H14.8z"/>
			<path class="st7" d="M15.5,11.6c0-0.1,0-0.2,0-0.3c0-0.1,0.1-0.1,0.1-0.1c0,0,0.1-0.1,0.1-0.1c0.1,0,0.1,0,0.2,0
				c0.2,0,0.3,0,0.4,0.1c0.1,0.1,0.1,0.2,0.1,0.4c0,0.2,0,0.3-0.1,0.4c-0.1,0.1-0.2,0.1-0.4,0.1c-0.2,0-0.3,0-0.4-0.1
				C15.6,11.9,15.5,11.8,15.5,11.6z M15.7,11.6c0,0.1,0,0.2,0.1,0.3c0.1,0.1,0.1,0.1,0.2,0.1c0.1,0,0.2,0,0.2-0.1s0.1-0.2,0.1-0.3
				c0-0.1,0-0.2-0.1-0.3c-0.1-0.1-0.1-0.1-0.2-0.1s-0.2,0-0.2,0.1C15.8,11.4,15.7,11.5,15.7,11.6z"/>
			<path class="st7" d="M16.6,11.8l0.2,0c0,0.1,0,0.1,0.1,0.2c0,0,0.1,0,0.2,0c0.1,0,0.1,0,0.2,0s0.1-0.1,0.1-0.1c0,0,0,0,0-0.1
				c0,0,0,0-0.1,0c0,0-0.1,0-0.2,0c-0.1,0-0.2-0.1-0.2-0.1c-0.1-0.1-0.1-0.1-0.1-0.2c0-0.1,0-0.1,0-0.1c0,0,0.1-0.1,0.1-0.1
				s0.1,0,0.2,0c0.1,0,0.2,0,0.3,0.1c0.1,0.1,0.1,0.1,0.1,0.2l-0.2,0c0-0.1,0-0.1-0.1-0.1c0,0-0.1,0-0.1,0c-0.1,0-0.1,0-0.1,0
				c0,0,0,0,0,0.1c0,0,0,0,0,0.1c0,0,0.1,0,0.2,0.1s0.2,0,0.2,0.1c0,0,0.1,0.1,0.1,0.1c0,0,0,0.1,0,0.2c0,0.1,0,0.1,0,0.2
				c0,0.1-0.1,0.1-0.1,0.1c-0.1,0-0.1,0-0.2,0c-0.1,0-0.2,0-0.3-0.1C16.7,12,16.6,11.9,16.6,11.8z"/>
			<path class="st7" d="M17.9,12.1v-0.9h-0.3v-0.2h0.8v0.2h-0.3v0.9H17.9z"/>
		</g>
		<g>
			<path class="st7" d="M13.9,13.1c0-0.1,0-0.2,0-0.3c0-0.1,0.1-0.1,0.1-0.1c0,0,0.1-0.1,0.1-0.1c0.1,0,0.1,0,0.2,0
				c0.2,0,0.3,0,0.4,0.1c0.1,0.1,0.1,0.2,0.1,0.4c0,0.2,0,0.3-0.1,0.4c-0.1,0.1-0.2,0.1-0.4,0.1c-0.2,0-0.3,0-0.4-0.1
				C13.9,13.4,13.9,13.3,13.9,13.1z M14.1,13.1c0,0.1,0,0.2,0.1,0.3c0.1,0.1,0.1,0.1,0.2,0.1c0.1,0,0.2,0,0.2-0.1
				c0.1-0.1,0.1-0.2,0.1-0.3c0-0.1,0-0.2-0.1-0.3c-0.1-0.1-0.1-0.1-0.2-0.1c-0.1,0-0.2,0-0.2,0.1C14.1,12.9,14.1,13,14.1,13.1z"/>
			<path class="st7" d="M15.1,13.6v-1h0.7v0.2h-0.5V13h0.4v0.2h-0.4v0.4H15.1z"/>
			<path class="st7" d="M16,13.6v-1h0.7v0.2h-0.5V13h0.4v0.2h-0.4v0.4H16z"/>
			<path class="st7" d="M16.8,13.6v-1h0.2v1H16.8z"/>
			<path class="st7" d="M17.9,13.2l0.2,0.1c0,0.1-0.1,0.2-0.2,0.3c-0.1,0.1-0.2,0.1-0.3,0.1c-0.1,0-0.3,0-0.3-0.1s-0.1-0.2-0.1-0.4
				c0-0.2,0-0.3,0.1-0.4c0.1-0.1,0.2-0.1,0.4-0.1c0.1,0,0.2,0,0.3,0.1c0,0,0.1,0.1,0.1,0.2l-0.2,0c0-0.1,0-0.1-0.1-0.1
				c0,0-0.1,0-0.1,0c-0.1,0-0.1,0-0.2,0.1s-0.1,0.1-0.1,0.3c0,0.1,0,0.2,0.1,0.3c0,0.1,0.1,0.1,0.2,0.1c0.1,0,0.1,0,0.1-0.1
				C17.9,13.4,17.9,13.3,17.9,13.2z"/>
			<path class="st7" d="M18.3,13.6v-1h0.8v0.2h-0.6V13H19v0.2h-0.5v0.3h0.6v0.2H18.3z"/>
		</g>
	</g>
</g>
</svg>
