<?xml version="1.0" encoding="utf-8"?>
<!-- Generator: Adobe Illustrator 21.1.0, SVG Export Plug-In . SVG Version: 6.00 Build 0)  -->
<svg version="1.1" id="Layer_1" xmlns="http://www.w3.org/2000/svg" xmlns:xlink="http://www.w3.org/1999/xlink" x="0px" y="0px"
	 viewBox="0 0 33 33" style="enable-background:new 0 0 33 33;" xml:space="preserve">
<style type="text/css">
	.st0{fill:#DAE5EF;}
	.st1{fill:#CBD6E0;}
	.st2{fill:#D03F3F;}
	.st3{fill:#BF3333;}
	.st4{fill:#E24B4B;}
	.st5{fill:#6D4135;}
	.st6{fill:#5B331D;}
	.st7{fill:#3E4347;}
	.st8{fill:#4E99D2;}
	.st9{fill:#65B1EF;}
	.st10{fill:#FFDC97;}
	.st11{fill:#FFCD7D;}
	.st12{fill:#FFE9AB;}
	.st13{fill:#31373A;}
	.st14{fill:#8CC63E;}
	.st15{fill:#FFD93B;}
	.st16{fill:#F4C534;}
	.st17{fill:#59A5E0;}
	.st18{fill:#DEE4E9;}
	.st19{fill:#D3D9DD;}
	.st20{fill:#FFFFFF;}
	.st21{fill:#2AB4CD;}
	.st22{fill:#1DA9BF;}
	.st23{fill:#E9EFF4;}
	.st24{fill:#7FB239;}
	.st25{fill:#719D34;}
	.st26{opacity:0.5;}
	.st27{fill:#BBC7D1;}
	.st28{fill:#E84D88;}
	.st29{fill:#D23F77;}
	.st30{fill:#633B2A;}
	.st31{fill:#E9B02C;}
	.st32{fill:#38C0DC;}
	.st33{fill:#45CBEA;}
	.st34{fill:#5A5F63;}
	.st35{fill:#E18823;}
	.st36{fill:#CF7519;}
	.st37{fill:#428DC3;}
	.st38{fill:#8D9BA3;}
	.st39{fill:#7B8B92;}
	.st40{fill:#ACB9C1;}
	.st41{fill:#846144;}
	.st42{fill:#7A5B44;}
	.st43{fill:#6B503B;}
	.st44{fill:#F29A2E;}
	.st45{fill:#728389;}
	.st46{fill:#FFD68D;}
	.st47{fill:#8F6D52;}
	.st48{fill:#84939A;}
	.st49{opacity:0.1;}
	.st50{fill:#89664C;}
	.st51{opacity:0.15;}
	.st52{fill:#DE9C25;}
	.st53{fill:#2AB4CD;stroke:#FFFFFF;stroke-width:0.5;stroke-linecap:round;stroke-linejoin:round;stroke-miterlimit:10;}
	.st54{fill:#FC97B2;}
	.st55{fill:#E88EA7;}
	.st56{opacity:0.2;}
	.st57{fill:#BB3166;}
	.st58{opacity:0.35;}
	.st59{opacity:0.6;}
	.st60{fill:#F9D087;}
	.st61{fill:#A5856D;}
	.st62{fill:#5C4533;}
	.st63{fill:#9A795F;}
	.st64{fill:#512A1B;}
	.st65{fill:#492418;}
	.st66{fill:#BE630E;}
	.st67{fill:none;}
	.st68{opacity:0.5;fill:#E18823;}
	.st69{opacity:0.1;fill:#FFFFFF;}
	.st70{fill:#FCCB7C;}
	.st71{opacity:0.15;fill:#FFFFFF;}
	.st72{opacity:0.2;fill:#FFFFFF;}
	.st73{opacity:0.5;fill:#CBD6E0;}
</style>
<g>
	<g>
		<g>
			<g>
				<rect x="2.1" y="8.6" class="st1" width="28.8" height="20.2"/>
			</g>
			<g>
				<path class="st7" d="M32.5,30c0,0.6-0.5,1.1-1.1,1.1H1.6c-0.6,0-1.1-0.5-1.1-1.1s0.5-1.1,1.1-1.1h29.8
					C32,28.9,32.5,29.3,32.5,30z"/>
			</g>
			<g>
				<path class="st4" d="M32.5,2.9v5.5c0,0.5-0.4,1-1,1H1.5c-0.5,0-1-0.4-1-1V2.9c0-0.5,0.4-1,1-1h30.1C32.1,1.9,32.5,2.4,32.5,2.9z
					"/>
			</g>
		</g>
		<g>
			<g>
				<path class="st7" d="M16.4,11.4c0.3,0,0.6,0.3,0.6,0.6v14.6c0,0.3-0.3,0.6-0.6,0.6H4c-0.3,0-0.6-0.3-0.6-0.6V12
					c0-0.3,0.3-0.6,0.6-0.6H16.4z"/>
			</g>
			<g>
				<rect x="4.4" y="12.4" class="st9" width="5.3" height="3.3"/>
				<rect x="10.7" y="12.4" class="st9" width="5.3" height="3.3"/>
				<g>
					<rect x="10.7" y="16.7" class="st9" width="5.3" height="5.4"/>
					<rect x="10.7" y="23.2" class="st9" width="5.3" height="3.1"/>
					<rect x="4.4" y="16.7" class="st9" width="5.3" height="5.4"/>
					<rect x="4.4" y="23.2" class="st9" width="5.3" height="3.1"/>
				</g>
			</g>
			<g>
				<path class="st17" d="M14.7,15.7H16v-3.3h-1.3c0.1,0.5,0.1,1,0.1,1.5C14.8,14.5,14.8,15.1,14.7,15.7z"/>
				<path class="st17" d="M14.4,16.7c-0.6,2.2-1.8,4-3.5,5.4h5v-5.4H14.4z"/>
				<rect x="10.7" y="23.2" class="st17" width="5.3" height="3.1"/>
				<path class="st17" d="M4.4,26.3h5.3v-3.1H9.6c-1.5,0.9-3.3,1.5-5.2,1.5V26.3z"/>
			</g>
		</g>
		<g>
			<g>
				<path class="st5" d="M28.2,15.4c0.3,0,0.6,0.3,0.6,0.6v12.8h-9.4V16c0-0.3,0.3-0.6,0.6-0.6H28.2z"/>
			</g>
			<g>
				<rect x="20.4" y="16.4" class="st6" width="7.4" height="3.9"/>
				<rect x="20.4" y="21.4" class="st6" width="7.4" height="6.5"/>
			</g>
		</g>
	</g>
	<g>
		<path class="st20" d="M5.3,7.6V3.7h1.2l0.7,2.6l0.7-2.6H9v3.8H8.2v-3l-0.8,3H6.7L6,4.6v3H5.3z"/>
		<path class="st20" d="M13.2,7.6h-0.8L12,6.7h-1.5l-0.3,0.9H9.3l1.5-3.8h0.8L13.2,7.6z M11.8,6.1l-0.5-1.4l-0.5,1.4H11.8z"/>
		<path class="st20" d="M13.6,7.6V3.7h1.6c0.4,0,0.7,0,0.9,0.1c0.2,0.1,0.3,0.2,0.4,0.4c0.1,0.2,0.2,0.4,0.2,0.6
			c0,0.3-0.1,0.5-0.3,0.7c-0.2,0.2-0.4,0.3-0.8,0.4c0.2,0.1,0.3,0.2,0.4,0.3c0.1,0.1,0.3,0.3,0.4,0.6l0.5,0.8h-0.9l-0.6-0.8
			c-0.2-0.3-0.3-0.5-0.4-0.6S15,6.1,15,6s-0.2,0-0.4,0h-0.2v1.6H13.6z M14.4,5.4H15c0.4,0,0.6,0,0.7,0c0.1,0,0.2-0.1,0.2-0.2
			C15.9,5.1,16,5,16,4.9c0-0.1,0-0.2-0.1-0.3c-0.1-0.1-0.2-0.1-0.3-0.2c-0.1,0-0.3,0-0.6,0h-0.6V5.4z"/>
		<path class="st20" d="M17.5,7.6V3.7h0.8v1.7l1.6-1.7h1l-1.4,1.5L21,7.6h-1l-1.1-1.8l-0.6,0.6v1.2H17.5z"/>
		<path class="st20" d="M21.4,7.6V3.7h2.9v0.7h-2.1v0.9h1.9v0.6h-1.9v1h2.1v0.6H21.4z"/>
		<path class="st20" d="M25.8,7.6V4.4h-1.1V3.7h3.1v0.7h-1.1v3.2H25.8z"/>
	</g>
</g>
</svg>
