<?xml version="1.0" encoding="utf-8"?>
<!-- Generator: Adobe Illustrator 21.1.0, SVG Export Plug-In . SVG Version: 6.00 Build 0)  -->
<svg version="1.1" id="Layer_1" xmlns="http://www.w3.org/2000/svg" xmlns:xlink="http://www.w3.org/1999/xlink" x="0px" y="0px"
	 viewBox="0 0 33 33" style="enable-background:new 0 0 33 33;" xml:space="preserve">
<style type="text/css">
	.st0{fill:#DAE5EF;}
	.st1{fill:#CBD6E0;}
	.st2{fill:#D03F3F;}
	.st3{fill:#BF3333;}
	.st4{fill:#E24B4B;}
	.st5{fill:#6D4135;}
	.st6{fill:#5B331D;}
	.st7{fill:#3E4347;}
	.st8{fill:#4E99D2;}
	.st9{fill:#65B1EF;}
	.st10{fill:#FFDC97;}
	.st11{fill:#FFCD7D;}
	.st12{fill:#FFE9AB;}
	.st13{fill:#31373A;}
	.st14{fill:#8CC63E;}
	.st15{fill:#FFD93B;}
	.st16{fill:#F4C534;}
	.st17{fill:#59A5E0;}
	.st18{fill:#DEE4E9;}
	.st19{fill:#D3D9DD;}
	.st20{fill:#FFFFFF;}
	.st21{fill:#2AB4CD;}
	.st22{fill:#1DA9BF;}
	.st23{fill:#E9EFF4;}
	.st24{fill:#7FB239;}
	.st25{fill:#719D34;}
	.st26{opacity:0.5;}
	.st27{fill:#BBC7D1;}
	.st28{fill:#E84D88;}
	.st29{fill:#D23F77;}
	.st30{fill:#633B2A;}
	.st31{fill:#E9B02C;}
	.st32{fill:#38C0DC;}
	.st33{fill:#45CBEA;}
	.st34{fill:#5A5F63;}
	.st35{fill:#E18823;}
	.st36{fill:#CF7519;}
	.st37{fill:#428DC3;}
	.st38{fill:#8D9BA3;}
	.st39{fill:#7B8B92;}
	.st40{fill:#ACB9C1;}
	.st41{fill:#846144;}
	.st42{fill:#7A5B44;}
	.st43{fill:#6B503B;}
	.st44{fill:#F29A2E;}
	.st45{fill:#728389;}
	.st46{fill:#FFD68D;}
	.st47{fill:#8F6D52;}
	.st48{fill:#84939A;}
	.st49{opacity:0.1;}
	.st50{fill:#89664C;}
	.st51{opacity:0.15;}
	.st52{fill:#DE9C25;}
	.st53{fill:#2AB4CD;stroke:#FFFFFF;stroke-width:0.5;stroke-linecap:round;stroke-linejoin:round;stroke-miterlimit:10;}
	.st54{fill:#FC97B2;}
	.st55{fill:#E88EA7;}
	.st56{opacity:0.2;}
	.st57{fill:#BB3166;}
	.st58{opacity:0.35;}
	.st59{opacity:0.6;}
	.st60{fill:#F9D087;}
	.st61{fill:#A5856D;}
	.st62{fill:#5C4533;}
	.st63{fill:#9A795F;}
	.st64{fill:#512A1B;}
	.st65{fill:#492418;}
	.st66{fill:#BE630E;}
	.st67{fill:none;}
	.st68{opacity:0.5;fill:#E18823;}
	.st69{opacity:0.1;fill:#FFFFFF;}
	.st70{fill:#FCCB7C;}
	.st71{opacity:0.15;fill:#FFFFFF;}
	.st72{opacity:0.2;fill:#FFFFFF;}
	.st73{opacity:0.5;fill:#CBD6E0;}
</style>
<g>
	<g>
		<g>
			<rect x="2.8" y="12.6" class="st0" width="27.3" height="18.9"/>
		</g>
		<g>
			<g>
				<g>
					<g>
						<path class="st4" d="M7.5,11.6h-6v1.5c0,1.7,1.3,3,3,3h0c1.7,0,3-1.3,3-3V11.6z"/>
					</g>
					<g>
						<polygon class="st2" points="10.5,8.2 6.5,8.2 1.5,11.6 7.5,11.6 						"/>
					</g>
				</g>
				<g>
					<g>
						<path class="st15" d="M13.5,11.6h-6v1.5c0,1.7,1.3,3,3,3h0c1.7,0,3-1.3,3-3V11.6z"/>
					</g>
					<g>
						<polygon class="st16" points="14.5,8.2 10.5,8.2 7.5,11.6 13.5,11.6 						"/>
					</g>
				</g>
				<g>
					<g>
						<path class="st4" d="M19.5,11.6h-6v1.5c0,1.7,1.3,3,3,3h0c1.7,0,3-1.3,3-3V11.6z"/>
					</g>
					<g>
						<polygon class="st2" points="18.5,8.2 14.5,8.2 13.5,11.6 19.5,11.6 						"/>
					</g>
				</g>
				<g>
					<g>
						<path class="st15" d="M25.5,11.6h-6v1.5c0,1.7,1.3,3,3,3h0c1.7,0,3-1.3,3-3V11.6z"/>
					</g>
					<g>
						<polygon class="st16" points="22.5,8.2 18.5,8.2 19.5,11.6 25.5,11.6 						"/>
					</g>
				</g>
				<g>
					<g>
						<path class="st4" d="M31.5,11.6h-6v1.5c0,1.7,1.3,3,3,3h0c1.7,0,3-1.3,3-3V11.6z"/>
					</g>
					<g>
						<polygon class="st2" points="26.5,8.2 22.5,8.2 25.5,11.6 31.5,11.6 						"/>
					</g>
				</g>
			</g>
		</g>
		<g>
			<path class="st7" d="M27.8,6.6c0,0.9-0.7,1.6-1.5,1.6H6.7c-0.8,0-1.5-0.7-1.5-1.5v0C5.2,5.7,5.9,5,6.7,5h19.5
				C27.1,5,27.8,5.7,27.8,6.6z"/>
		</g>
		<polygon class="st13" points="16.5,8.2 25.4,8.2 22.3,5 16.5,5 		"/>
		<g>
			<ellipse class="st0" cx="16.5" cy="4.3" rx="5.9" ry="3.8"/>
		</g>
		<g>
			<g>
				<path class="st9" d="M12.1,4.7l0.5,0c0,0.2,0.1,0.3,0.2,0.3c0.1,0.1,0.2,0.1,0.3,0.1c0.2,0,0.3,0,0.3-0.1s0.1-0.1,0.1-0.2
					c0-0.1,0-0.1,0-0.1s-0.1-0.1-0.2-0.1c-0.1,0-0.2-0.1-0.4-0.1c-0.2-0.1-0.4-0.1-0.5-0.2c-0.1-0.1-0.2-0.3-0.2-0.5
					c0-0.1,0-0.2,0.1-0.3c0.1-0.1,0.2-0.2,0.3-0.2s0.3-0.1,0.5-0.1c0.3,0,0.5,0.1,0.7,0.2c0.1,0.1,0.2,0.3,0.2,0.5l-0.5,0
					c0-0.1-0.1-0.2-0.1-0.3c-0.1-0.1-0.2-0.1-0.3-0.1c-0.1,0-0.2,0-0.3,0.1c0,0-0.1,0.1-0.1,0.1c0,0.1,0,0.1,0.1,0.1
					c0.1,0,0.2,0.1,0.4,0.2c0.2,0.1,0.4,0.1,0.5,0.2c0.1,0.1,0.2,0.1,0.3,0.2c0.1,0.1,0.1,0.2,0.1,0.4c0,0.1,0,0.3-0.1,0.4
					c-0.1,0.1-0.2,0.2-0.3,0.3c-0.1,0.1-0.3,0.1-0.5,0.1c-0.3,0-0.5-0.1-0.7-0.2C12.2,5.2,12.1,5,12.1,4.7z"/>
				<path class="st9" d="M14.3,5.5V3.2h0.5v0.9h0.9V3.2h0.5v2.3h-0.5v-1h-0.9v1H14.3z"/>
				<path class="st9" d="M16.6,4.3c0-0.2,0-0.4,0.1-0.6c0.1-0.1,0.1-0.2,0.2-0.3c0.1-0.1,0.2-0.2,0.3-0.2c0.1-0.1,0.3-0.1,0.5-0.1
					c0.3,0,0.6,0.1,0.8,0.3c0.2,0.2,0.3,0.5,0.3,0.9c0,0.4-0.1,0.7-0.3,0.9S18,5.5,17.7,5.5c-0.3,0-0.6-0.1-0.8-0.3
					C16.7,5,16.6,4.7,16.6,4.3z M17,4.3c0,0.3,0.1,0.5,0.2,0.6c0.1,0.1,0.3,0.2,0.5,0.2c0.2,0,0.3-0.1,0.5-0.2
					c0.1-0.1,0.2-0.3,0.2-0.6c0-0.3-0.1-0.5-0.2-0.6c-0.1-0.1-0.3-0.2-0.5-0.2s-0.3,0.1-0.5,0.2S17,4.1,17,4.3z"/>
				<path class="st9" d="M19.2,5.5V3.2h0.7c0.3,0,0.5,0,0.6,0c0.1,0,0.2,0.1,0.3,0.2c0.1,0.1,0.1,0.3,0.1,0.4c0,0.1,0,0.3-0.1,0.4
					s-0.1,0.2-0.2,0.2c-0.1,0.1-0.2,0.1-0.2,0.1c-0.1,0-0.3,0-0.5,0h-0.3v0.9H19.2z M19.6,3.6v0.7h0.3c0.2,0,0.3,0,0.4,0
					c0.1,0,0.1-0.1,0.1-0.1c0-0.1,0.1-0.1,0.1-0.2c0-0.1,0-0.2-0.1-0.2c0-0.1-0.1-0.1-0.2-0.1c-0.1,0-0.2,0-0.3,0H19.6z"/>
			</g>
		</g>
		<g>
			<rect x="18.8" y="18.2" class="st5" width="8.8" height="12.5"/>
			<g>
				<rect x="19.8" y="19.2" class="st6" width="6.8" height="3.4"/>
				<rect x="19.8" y="23.6" class="st6" width="6.8" height="7.1"/>
			</g>
		</g>
		<g>
			<path class="st5" d="M25.9,24.6c0,0.2-0.2,0.4-0.4,0.4c-0.2,0-0.4-0.2-0.4-0.4c0-0.2,0.2-0.4,0.4-0.4
				C25.7,24.2,25.9,24.4,25.9,24.6z"/>
		</g>
		<g>
			<path class="st7" d="M15.7,19.4v6.5c0,0.4-0.3,0.8-0.8,0.8H6.8c-0.4,0-0.8-0.3-0.8-0.8v-6.5c0-0.4,0.3-0.8,0.8-0.8h8.2
				C15.4,18.6,15.7,18.9,15.7,19.4z"/>
			<g>
				<rect x="7" y="19.6" class="st17" width="7.7" height="6"/>
			</g>
		</g>
		<g>
			<polygon class="st9" points="12.7,19.6 11.2,19.6 7,23.8 7,25.3 			"/>
			<polygon class="st9" points="7,22.1 7,23.2 10.6,19.6 9.5,19.6 			"/>
		</g>
	</g>
	<g>
		<path class="st14" d="M0.5,31.4L0.5,31.4c0,0.6,0.5,1.1,1.1,1.1h29.8c0.6,0,1.1-0.5,1.1-1.1v0c0-0.6-0.5-1.1-1.1-1.1H1.6
			C1,30.3,0.5,30.8,0.5,31.4z"/>
	</g>
</g>
</svg>
