<?xml version="1.0" encoding="utf-8"?>
<!-- Generator: Adobe Illustrator 21.1.0, SVG Export Plug-In . SVG Version: 6.00 Build 0)  -->
<svg version="1.1" id="Layer_1" xmlns="http://www.w3.org/2000/svg" xmlns:xlink="http://www.w3.org/1999/xlink" x="0px" y="0px"
	 viewBox="0 0 33 33" style="enable-background:new 0 0 33 33;" xml:space="preserve">
<style type="text/css">
	.st0{fill:#DAE5EF;}
	.st1{fill:#CBD6E0;}
	.st2{fill:#D03F3F;}
	.st3{fill:#BF3333;}
	.st4{fill:#E24B4B;}
	.st5{fill:#6D4135;}
	.st6{fill:#5B331D;}
	.st7{fill:#3E4347;}
	.st8{fill:#4E99D2;}
	.st9{fill:#65B1EF;}
	.st10{fill:#FFDC97;}
	.st11{fill:#FFCD7D;}
	.st12{fill:#FFE9AB;}
	.st13{fill:#31373A;}
	.st14{fill:#8CC63E;}
	.st15{fill:#FFD93B;}
	.st16{fill:#F4C534;}
	.st17{fill:#59A5E0;}
	.st18{fill:#DEE4E9;}
	.st19{fill:#D3D9DD;}
	.st20{fill:#FFFFFF;}
	.st21{fill:#2AB4CD;}
	.st22{fill:#1DA9BF;}
	.st23{fill:#E9EFF4;}
	.st24{fill:#7FB239;}
	.st25{fill:#719D34;}
	.st26{opacity:0.5;}
	.st27{fill:#BBC7D1;}
	.st28{fill:#E84D88;}
	.st29{fill:#D23F77;}
	.st30{fill:#633B2A;}
	.st31{fill:#E9B02C;}
	.st32{fill:#38C0DC;}
	.st33{fill:#45CBEA;}
	.st34{fill:#5A5F63;}
	.st35{fill:#E18823;}
	.st36{fill:#CF7519;}
	.st37{fill:#428DC3;}
	.st38{fill:#8D9BA3;}
	.st39{fill:#7B8B92;}
	.st40{fill:#ACB9C1;}
	.st41{fill:#846144;}
	.st42{fill:#7A5B44;}
	.st43{fill:#6B503B;}
	.st44{fill:#F29A2E;}
	.st45{fill:#728389;}
	.st46{fill:#FFD68D;}
	.st47{fill:#8F6D52;}
	.st48{fill:#84939A;}
	.st49{opacity:0.1;}
	.st50{fill:#89664C;}
	.st51{opacity:0.15;}
	.st52{fill:#DE9C25;}
	.st53{fill:#2AB4CD;stroke:#FFFFFF;stroke-width:0.5;stroke-linecap:round;stroke-linejoin:round;stroke-miterlimit:10;}
	.st54{fill:#FC97B2;}
	.st55{fill:#E88EA7;}
	.st56{opacity:0.2;}
	.st57{fill:#BB3166;}
	.st58{opacity:0.35;}
	.st59{opacity:0.6;}
	.st60{fill:#F9D087;}
	.st61{fill:#A5856D;}
	.st62{fill:#5C4533;}
	.st63{fill:#9A795F;}
	.st64{fill:#512A1B;}
	.st65{fill:#492418;}
	.st66{fill:#BE630E;}
	.st67{fill:none;}
	.st68{opacity:0.5;fill:#E18823;}
	.st69{opacity:0.1;fill:#FFFFFF;}
	.st70{fill:#FCCB7C;}
	.st71{opacity:0.15;fill:#FFFFFF;}
	.st72{opacity:0.2;fill:#FFFFFF;}
	.st73{opacity:0.5;fill:#CBD6E0;}
</style>
<g>
	<g>
		<g>
			<rect x="6.1" y="1.9" class="st0" width="20.9" height="28.8"/>
		</g>
		<g>
			<path class="st2" d="M29,1.8L29,1.8c0-0.7-0.6-1.3-1.3-1.3H5.3C4.6,0.5,4,1.1,4,1.8v0c0,0.7,0.6,1.3,1.3,1.3h22.4
				C28.4,3.1,29,2.6,29,1.8z"/>
		</g>
		<g>
			<g>
				<g>
					<g>
						<path class="st20" d="M16,22.3v5.9c0,0.2-0.2,0.4-0.4,0.4H8.4c-0.2,0-0.4-0.2-0.4-0.4v-5.9c0-0.2,0.2-0.4,0.4-0.4h7.2
							C15.8,21.9,16,22,16,22.3z"/>
					</g>
					<g>
						
							<rect x="9.2" y="21.9" transform="matrix(-1.836970e-16 1 -1 -1.836970e-16 37.1853 13.2493)" class="st9" width="5.4" height="6.7"/>
					</g>
				</g>
				<g>
					<polygon class="st17" points="14.7,22.5 13.3,22.5 8.6,27.2 8.6,27.9 9.2,27.9 					"/>
					<polygon class="st17" points="8.6,26.3 8.6,26.9 13,22.5 12.4,22.5 					"/>
				</g>
			</g>
		</g>
		<g>
			<path class="st7" d="M25,21.5V31h-6.5v-9.5c0-0.2,0.2-0.4,0.4-0.4h5.6C24.8,21,25,21.2,25,21.5z"/>
			<g>
				<rect x="19.2" y="21.7" class="st44" width="5.1" height="3.1"/>
				<rect x="19.2" y="25.6" class="st44" width="5.1" height="5.4"/>
			</g>
		</g>
		<g>
			<circle class="st36" cx="23.3" cy="26.7" r="0.4"/>
		</g>
		<g>
			<path class="st2" d="M28.5,19.8H4.5c-0.6,0-1.1-0.6-0.9-1.2l1.6-7.2c0.1-0.6,0.6-1,1.2-1h20.2c0.6,0,1.1,0.4,1.2,1l1.6,7.2
				C29.5,19.3,29.1,19.8,28.5,19.8z"/>
		</g>
		<g>
			<path class="st3" d="M6.4,10.5h2c-0.5,0-0.9,0.4-1,1l-1.3,7.2c-0.1,0.6,0.3,1.2,0.8,1.2H4.5c-0.6,0-1.1-0.6-0.9-1.2l1.6-7.2
				C5.3,10.9,5.8,10.5,6.4,10.5z"/>
			<path class="st4" d="M28.5,19.8h-2.3c0.5,0,0.9-0.6,0.8-1.2l-1.3-7.2c-0.1-0.6-0.5-1-1-1h2c0.6,0,1.1,0.4,1.2,1l1.6,7.2
				C29.5,19.3,29.1,19.8,28.5,19.8z"/>
		</g>
		<g>
			<g>
				<path class="st20" d="M12.7,5.3v3.1c0,0.2-0.2,0.4-0.4,0.4H9.2c-0.2,0-0.4-0.2-0.4-0.4V5.3c0-0.2,0.2-0.4,0.4-0.4h3.1
					C12.5,4.9,12.7,5.1,12.7,5.3z"/>
				<g>
					<rect x="9.3" y="5.4" class="st9" width="2.8" height="2.8"/>
				</g>
			</g>
			<g>
				<path class="st20" d="M18.5,5.3v3.1c0,0.2-0.2,0.4-0.4,0.4H15c-0.2,0-0.4-0.2-0.4-0.4V5.3c0-0.2,0.2-0.4,0.4-0.4H18
					C18.3,4.9,18.5,5.1,18.5,5.3z"/>
				<g>
					<rect x="15.1" y="5.4" class="st9" width="2.8" height="2.8"/>
				</g>
			</g>
			<g>
				<path class="st20" d="M24.3,5.3v3.1c0,0.2-0.2,0.4-0.4,0.4h-3.1c-0.2,0-0.4-0.2-0.4-0.4V5.3c0-0.2,0.2-0.4,0.4-0.4h3.1
					C24.1,4.9,24.3,5.1,24.3,5.3z"/>
				<g>
					<rect x="20.9" y="5.4" class="st9" width="2.8" height="2.8"/>
				</g>
			</g>
		</g>
	</g>
	<g>
		<path class="st14" d="M28.8,31.7c0,0.5-0.4,0.8-0.8,0.8H5c-0.5,0-0.8-0.4-0.8-0.8c0-0.5,0.4-0.9,0.8-0.9h23
			C28.5,30.8,28.8,31.2,28.8,31.7z"/>
	</g>
</g>
</svg>
