<?xml version="1.0" encoding="utf-8"?>
<!-- Generator: Adobe Illustrator 21.1.0, SVG Export Plug-In . SVG Version: 6.00 Build 0)  -->
<svg version="1.1" id="Layer_1" xmlns="http://www.w3.org/2000/svg" xmlns:xlink="http://www.w3.org/1999/xlink" x="0px" y="0px"
	 viewBox="0 0 33 33" style="enable-background:new 0 0 33 33;" xml:space="preserve">
<style type="text/css">
	.st0{fill:#DAE5EF;}
	.st1{fill:#CBD6E0;}
	.st2{fill:#D03F3F;}
	.st3{fill:#BF3333;}
	.st4{fill:#E24B4B;}
	.st5{fill:#6D4135;}
	.st6{fill:#5B331D;}
	.st7{fill:#3E4347;}
	.st8{fill:#4E99D2;}
	.st9{fill:#65B1EF;}
	.st10{fill:#FFDC97;}
	.st11{fill:#FFCD7D;}
	.st12{fill:#FFE9AB;}
	.st13{fill:#31373A;}
	.st14{fill:#8CC63E;}
	.st15{fill:#FFD93B;}
	.st16{fill:#F4C534;}
	.st17{fill:#59A5E0;}
	.st18{fill:#DEE4E9;}
	.st19{fill:#D3D9DD;}
	.st20{fill:#FFFFFF;}
	.st21{fill:#2AB4CD;}
	.st22{fill:#1DA9BF;}
	.st23{fill:#E9EFF4;}
	.st24{fill:#7FB239;}
	.st25{fill:#719D34;}
	.st26{opacity:0.5;}
	.st27{fill:#BBC7D1;}
	.st28{fill:#E84D88;}
	.st29{fill:#D23F77;}
	.st30{fill:#633B2A;}
	.st31{fill:#E9B02C;}
	.st32{fill:#38C0DC;}
	.st33{fill:#45CBEA;}
	.st34{fill:#5A5F63;}
	.st35{fill:#E18823;}
	.st36{fill:#CF7519;}
	.st37{fill:#428DC3;}
	.st38{fill:#8D9BA3;}
	.st39{fill:#7B8B92;}
	.st40{fill:#ACB9C1;}
	.st41{fill:#846144;}
	.st42{fill:#7A5B44;}
	.st43{fill:#6B503B;}
	.st44{fill:#F29A2E;}
	.st45{fill:#728389;}
	.st46{fill:#FFD68D;}
	.st47{fill:#8F6D52;}
	.st48{fill:#84939A;}
	.st49{opacity:0.1;}
	.st50{fill:#89664C;}
	.st51{opacity:0.15;}
	.st52{fill:#DE9C25;}
	.st53{fill:#2AB4CD;stroke:#FFFFFF;stroke-width:0.5;stroke-linecap:round;stroke-linejoin:round;stroke-miterlimit:10;}
	.st54{fill:#FC97B2;}
	.st55{fill:#E88EA7;}
	.st56{opacity:0.2;}
	.st57{fill:#BB3166;}
	.st58{opacity:0.35;}
	.st59{opacity:0.6;}
	.st60{fill:#F9D087;}
	.st61{fill:#A5856D;}
	.st62{fill:#5C4533;}
	.st63{fill:#9A795F;}
	.st64{fill:#512A1B;}
	.st65{fill:#492418;}
	.st66{fill:#BE630E;}
	.st67{fill:none;}
	.st68{opacity:0.5;fill:#E18823;}
	.st69{opacity:0.1;fill:#FFFFFF;}
	.st70{fill:#FCCB7C;}
	.st71{opacity:0.15;fill:#FFFFFF;}
	.st72{opacity:0.2;fill:#FFFFFF;}
	.st73{opacity:0.5;fill:#CBD6E0;}
</style>
<g>
	<g>
		<g>
			<g>
				<g>
					<polygon class="st40" points="31.1,29.5 12.3,29.5 12.3,8 31.1,12.1 					"/>
				</g>
				<g>
					<g>
						<g>
							<g>
								<g>
									<g>
										<g>
											<g>
												<g>
													<path class="st7" d="M25.3,14.3v5.4c0,0.2-0.1,0.3-0.3,0.3h-2.3c-0.2,0-0.3-0.2-0.3-0.3v-5.4c0-0.2,0.1-0.3,0.3-0.3H25
														C25.1,13.9,25.3,14.1,25.3,14.3z"/>
												</g>
											</g>
										</g>
									</g>
								</g>
								<g>
									<g>
										<g>
											<g>
												<rect x="22.8" y="14.4" class="st8" width="2.1" height="1.6"/>
											</g>
										</g>
									</g>
									<rect x="22.8" y="16.4" class="st8" width="2.1" height="3.1"/>
								</g>
							</g>
							<g>
								<g>
									<g>
										<g>
											<g>
												<g>
													<path class="st7" d="M29.5,14.3v5.4c0,0.2-0.1,0.3-0.3,0.3h-2.3c-0.2,0-0.3-0.2-0.3-0.3v-5.4c0-0.2,0.1-0.3,0.3-0.3
														h2.3C29.3,13.9,29.5,14.1,29.5,14.3z"/>
												</g>
											</g>
										</g>
									</g>
								</g>
								<g>
									<g>
										<g>
											<g>
												<rect x="27" y="14.4" class="st8" width="2.1" height="1.6"/>
											</g>
										</g>
									</g>
									<rect x="27" y="16.4" class="st8" width="2.1" height="3.1"/>
								</g>
							</g>
						</g>
						<g>
							<g>
								<g>
									<g>
										<g>
											<g>
												<g>
													<path class="st7" d="M25.3,22.2v5.4c0,0.2-0.1,0.3-0.3,0.3h-2.3c-0.2,0-0.3-0.2-0.3-0.3v-5.4c0-0.2,0.1-0.3,0.3-0.3H25
														C25.1,21.9,25.3,22,25.3,22.2z"/>
												</g>
											</g>
										</g>
									</g>
								</g>
								<g>
									<g>
										<g>
											<g>
												<rect x="22.8" y="22.3" class="st8" width="2.1" height="1.6"/>
											</g>
										</g>
									</g>
									<rect x="22.8" y="24.4" class="st8" width="2.1" height="3.1"/>
								</g>
							</g>
							<g>
								<g>
									<g>
										<g>
											<g>
												<g>
													<path class="st7" d="M29.5,22.2v5.4c0,0.2-0.1,0.3-0.3,0.3h-2.3c-0.2,0-0.3-0.2-0.3-0.3v-5.4c0-0.2,0.1-0.3,0.3-0.3
														h2.3C29.3,21.9,29.5,22,29.5,22.2z"/>
												</g>
											</g>
										</g>
									</g>
								</g>
								<g>
									<g>
										<g>
											<g>
												<rect x="27" y="22.3" class="st8" width="2.1" height="1.6"/>
											</g>
										</g>
									</g>
									<rect x="27" y="24.4" class="st8" width="2.1" height="3.1"/>
								</g>
							</g>
						</g>
					</g>
				</g>
				<g>
					<path class="st7" d="M31.6,10.1l-13.4-3v2.4l12.9,2.9c0.7,0.2,1.4-0.4,1.4-1.1C32.5,10.7,32.1,10.3,31.6,10.1z"/>
				</g>
			</g>
			<g>
				<g>
					<g>
						<rect x="1.8" y="6.9" class="st0" width="19.4" height="22.6"/>
					</g>
					<g>
						<polygon class="st1" points="21.2,19.6 21.2,20.6 1.8,19.6 						"/>
					</g>
					<g>
						<polygon class="st1" points="21.2,8.1 21.2,6.9 1.8,7.1 						"/>
					</g>
					<g>
						<path class="st27" d="M21.7,19.1c0,0.3-0.2,0.5-0.5,0.5H1.8c-0.3,0-0.5-0.2-0.5-0.5c0-0.3,0.2-0.5,0.5-0.5h19.4
							C21.5,18.6,21.7,18.8,21.7,19.1z"/>
					</g>
					<g>
						<path class="st4" d="M21.8,7.1H1.2c-0.5,0-0.8-0.4-0.7-0.9l0.9-3.6c0.1-0.3,0.4-0.5,0.7-0.5h18.9c0.3,0,0.6,0.2,0.7,0.5
							l0.9,3.6C22.6,6.6,22.3,7.1,21.8,7.1z"/>
					</g>
					<g>
						<path class="st20" d="M5.1,6V3.2h0.6v1.1h1.1V3.2h0.6V6H6.8V4.8H5.7V6H5.1z"/>
						<path class="st20" d="M7.8,4.6c0-0.3,0-0.5,0.1-0.7C8,3.8,8.1,3.6,8.2,3.5c0.1-0.1,0.2-0.2,0.4-0.2c0.2-0.1,0.4-0.1,0.6-0.1
							c0.4,0,0.7,0.1,1,0.4c0.2,0.3,0.4,0.6,0.4,1.1c0,0.4-0.1,0.8-0.4,1.1C9.9,5.9,9.6,6,9.2,6c-0.4,0-0.7-0.1-1-0.4
							C7.9,5.4,7.8,5.1,7.8,4.6z M8.4,4.6c0,0.3,0.1,0.6,0.2,0.7s0.3,0.2,0.6,0.2s0.4-0.1,0.5-0.2c0.1-0.2,0.2-0.4,0.2-0.7
							c0-0.3-0.1-0.6-0.2-0.7C9.6,3.7,9.4,3.6,9.2,3.6S8.8,3.7,8.6,3.9C8.5,4,8.4,4.3,8.4,4.6z"/>
						<path class="st20" d="M11.6,6V3.7h-0.8V3.2H13v0.5h-0.8V6H11.6z"/>
						<path class="st20" d="M13.3,6V3.2h2.1v0.5h-1.5v0.6h1.4v0.5h-1.4v0.8h1.5V6H13.3z"/>
						<path class="st20" d="M15.9,6V3.2h0.6v2.3h1.4V6H15.9z"/>
					</g>
				</g>
				<g>
					<g>
						<rect x="4.5" y="23.9" class="st27" width="5.2" height="5.6"/>
					</g>
					<g>
						<rect x="4.9" y="24.6" class="st7" width="1.9" height="4.9"/>
						<rect x="7.3" y="24.6" class="st7" width="1.9" height="4.9"/>
					</g>
				</g>
				<g>
					<g>
						<g>
							<g>
								<g>
									<g>
										<g>
											<g>
												<path class="st7" d="M6.5,9.8v6.3c0,0.2-0.1,0.3-0.3,0.3H3.8c-0.2,0-0.3-0.2-0.3-0.3V9.8c0-0.2,0.1-0.3,0.3-0.3h2.4
													C6.4,9.5,6.5,9.6,6.5,9.8z"/>
											</g>
										</g>
									</g>
								</g>
							</g>
							<g>
								<g>
									<g>
										<g>
											<rect x="3.9" y="10" class="st9" width="2.1" height="2.1"/>
										</g>
									</g>
								</g>
								<rect x="3.9" y="12.5" class="st9" width="2.1" height="3.4"/>
							</g>
						</g>
						<g>
							<g>
								<g>
									<g>
										<g>
											<g>
												<path class="st7" d="M10.9,9.8v6.3c0,0.2-0.1,0.3-0.3,0.3H8.1c-0.2,0-0.3-0.2-0.3-0.3V9.8c0-0.2,0.1-0.3,0.3-0.3h2.4
													C10.7,9.5,10.9,9.6,10.9,9.8z"/>
											</g>
										</g>
									</g>
								</g>
							</g>
							<g>
								<g>
									<g>
										<g>
											<rect x="8.3" y="10" class="st9" width="2.1" height="2.1"/>
										</g>
									</g>
								</g>
								<rect x="8.3" y="12.5" class="st9" width="2.1" height="3.4"/>
							</g>
						</g>
						<g>
							<g>
								<g>
									<g>
										<g>
											<g>
												<path class="st7" d="M15.2,9.8v6.3c0,0.2-0.1,0.3-0.3,0.3h-2.4c-0.2,0-0.3-0.2-0.3-0.3V9.8c0-0.2,0.1-0.3,0.3-0.3h2.4
													C15.1,9.5,15.2,9.6,15.2,9.8z"/>
											</g>
										</g>
									</g>
								</g>
							</g>
							<g>
								<g>
									<g>
										<g>
											<rect x="12.6" y="10" class="st9" width="2.1" height="2.1"/>
										</g>
									</g>
								</g>
								<rect x="12.6" y="12.5" class="st9" width="2.1" height="3.4"/>
							</g>
						</g>
						<g>
							<g>
								<g>
									<g>
										<g>
											<g>
												<path class="st7" d="M19.5,9.8v6.3c0,0.2-0.1,0.3-0.3,0.3h-2.4c-0.2,0-0.3-0.2-0.3-0.3V9.8c0-0.2,0.1-0.3,0.3-0.3h2.4
													C19.4,9.5,19.5,9.6,19.5,9.8z"/>
											</g>
										</g>
									</g>
								</g>
							</g>
							<g>
								<g>
									<g>
										<g>
											<rect x="17" y="10" class="st9" width="2.1" height="2.1"/>
										</g>
									</g>
								</g>
								<rect x="17" y="12.5" class="st9" width="2.1" height="3.4"/>
							</g>
						</g>
					</g>
					<g>
						<g>
							<g>
								<g>
									<g>
										<g>
											<g>
												<path class="st7" d="M15.2,21.2v6.3c0,0.2-0.1,0.3-0.3,0.3h-2.4c-0.2,0-0.3-0.2-0.3-0.3v-6.3c0-0.2,0.1-0.3,0.3-0.3h2.4
													C15.1,20.9,15.2,21.1,15.2,21.2z"/>
											</g>
										</g>
									</g>
								</g>
							</g>
							<g>
								<g>
									<g>
										<g>
											<rect x="12.6" y="21.4" class="st9" width="2.1" height="2.1"/>
										</g>
									</g>
								</g>
								<rect x="12.6" y="24" class="st9" width="2.1" height="3.4"/>
							</g>
						</g>
						<g>
							<g>
								<g>
									<g>
										<g>
											<g>
												<path class="st7" d="M19.5,21.2v6.3c0,0.2-0.1,0.3-0.3,0.3h-2.4c-0.2,0-0.3-0.2-0.3-0.3v-6.3c0-0.2,0.1-0.3,0.3-0.3h2.4
													C19.4,20.9,19.5,21.1,19.5,21.2z"/>
											</g>
										</g>
									</g>
								</g>
							</g>
							<g>
								<g>
									<g>
										<g>
											<rect x="17" y="21.4" class="st9" width="2.1" height="2.1"/>
										</g>
									</g>
								</g>
								<rect x="17" y="24" class="st9" width="2.1" height="3.4"/>
							</g>
						</g>
					</g>
				</g>
			</g>
		</g>
	</g>
	<g>
		<path class="st14" d="M32.4,30.1c0,0.4-0.3,0.8-0.8,0.8H1.4c-0.4,0-0.8-0.3-0.8-0.8s0.3-0.8,0.8-0.8h30.2
			C32,29.3,32.4,29.7,32.4,30.1z"/>
	</g>
</g>
</svg>
