<?xml version="1.0" encoding="utf-8"?>
<!-- Generator: Adobe Illustrator 21.1.0, SVG Export Plug-In . SVG Version: 6.00 Build 0)  -->
<svg version="1.1" id="Layer_1" xmlns="http://www.w3.org/2000/svg" xmlns:xlink="http://www.w3.org/1999/xlink" x="0px" y="0px"
	 viewBox="0 0 33 33" style="enable-background:new 0 0 33 33;" xml:space="preserve">
<style type="text/css">
	.st0{fill:#DAE5EF;}
	.st1{fill:#CBD6E0;}
	.st2{fill:#D03F3F;}
	.st3{fill:#BF3333;}
	.st4{fill:#E24B4B;}
	.st5{fill:#6D4135;}
	.st6{fill:#5B331D;}
	.st7{fill:#3E4347;}
	.st8{fill:#4E99D2;}
	.st9{fill:#65B1EF;}
	.st10{fill:#FFDC97;}
	.st11{fill:#FFCD7D;}
	.st12{fill:#FFE9AB;}
	.st13{fill:#31373A;}
	.st14{fill:#8CC63E;}
	.st15{fill:#FFD93B;}
	.st16{fill:#F4C534;}
	.st17{fill:#59A5E0;}
	.st18{fill:#DEE4E9;}
	.st19{fill:#D3D9DD;}
	.st20{fill:#FFFFFF;}
	.st21{fill:#2AB4CD;}
	.st22{fill:#1DA9BF;}
	.st23{fill:#E9EFF4;}
	.st24{fill:#7FB239;}
	.st25{fill:#719D34;}
	.st26{opacity:0.5;}
	.st27{fill:#BBC7D1;}
	.st28{fill:#E84D88;}
	.st29{fill:#D23F77;}
	.st30{fill:#633B2A;}
	.st31{fill:#E9B02C;}
	.st32{fill:#38C0DC;}
	.st33{fill:#45CBEA;}
	.st34{fill:#5A5F63;}
	.st35{fill:#E18823;}
	.st36{fill:#CF7519;}
	.st37{fill:#428DC3;}
	.st38{fill:#8D9BA3;}
	.st39{fill:#7B8B92;}
	.st40{fill:#ACB9C1;}
	.st41{fill:#846144;}
	.st42{fill:#7A5B44;}
	.st43{fill:#6B503B;}
	.st44{fill:#F29A2E;}
	.st45{fill:#728389;}
	.st46{fill:#FFD68D;}
	.st47{fill:#8F6D52;}
	.st48{fill:#84939A;}
	.st49{opacity:0.1;}
	.st50{fill:#89664C;}
	.st51{opacity:0.15;}
	.st52{fill:#DE9C25;}
	.st53{fill:#2AB4CD;stroke:#FFFFFF;stroke-width:0.5;stroke-linecap:round;stroke-linejoin:round;stroke-miterlimit:10;}
	.st54{fill:#FC97B2;}
	.st55{fill:#E88EA7;}
	.st56{opacity:0.2;}
	.st57{fill:#BB3166;}
	.st58{opacity:0.35;}
	.st59{opacity:0.6;}
	.st60{fill:#F9D087;}
	.st61{fill:#A5856D;}
	.st62{fill:#5C4533;}
	.st63{fill:#9A795F;}
	.st64{fill:#512A1B;}
	.st65{fill:#492418;}
	.st66{fill:#BE630E;}
	.st67{fill:none;}
	.st68{opacity:0.5;fill:#E18823;}
	.st69{opacity:0.1;fill:#FFFFFF;}
	.st70{fill:#FCCB7C;}
	.st71{opacity:0.15;fill:#FFFFFF;}
	.st72{opacity:0.2;fill:#FFFFFF;}
	.st73{opacity:0.5;fill:#CBD6E0;}
</style>
<g>
	<g>
		<g>
			<g>
				<rect x="11.3" y="3.8" class="st7" width="0.6" height="4"/>
			</g>
			<g>
				<rect x="21" y="3.8" class="st7" width="0.6" height="4"/>
			</g>
		</g>
		<g>
			<rect x="1.8" y="8" class="st18" width="29.3" height="22.9"/>
		</g>
		<g>
			<polygon class="st19" points="31.2,9.7 31.2,11.2 1.8,9.7 			"/>
		</g>
		<g>
			<path class="st4" d="M32.5,8.4c0,0.7-0.6,1.3-1.3,1.3H1.8c-0.7,0-1.3-0.6-1.3-1.3c0-0.7,0.6-1.3,1.3-1.3h29.3
				C31.9,7.1,32.5,7.7,32.5,8.4z"/>
		</g>
		<g>
			<rect x="11.6" y="20.9" class="st1" width="9.9" height="10"/>
		</g>
		<g>
			<rect x="12.6" y="21" class="st7" width="3.6" height="9.9"/>
			<rect x="17" y="21" class="st7" width="3.6" height="9.9"/>
		</g>
		<g>
			<path class="st4" d="M22.4,21.2H10.8c-0.2,0-0.4-0.2-0.3-0.4l0.4-1.4c0-0.1,0.2-0.2,0.3-0.2H22c0.1,0,0.3,0.1,0.3,0.2l0.4,1.4
				C22.8,21,22.6,21.2,22.4,21.2z"/>
		</g>
		<g>
			<g>
				<path class="st4" d="M24.9,1.4v3.5c0,0.5-0.4,0.8-0.8,0.8H8.9c-0.5,0-0.8-0.4-0.8-0.8V1.4c0-0.5,0.4-0.8,0.8-0.8h15.1
					C24.5,0.5,24.9,0.9,24.9,1.4z"/>
			</g>
			<g>
				<g>
					<path class="st20" d="M9.7,4.1v-2h0.4v0.8h0.8V2.1h0.4v2h-0.4V3.2h-0.8v0.9H9.7z"/>
					<path class="st20" d="M11.6,3.1c0-0.2,0-0.4,0.1-0.5c0-0.1,0.1-0.2,0.2-0.3c0.1-0.1,0.2-0.1,0.3-0.2c0.1-0.1,0.3-0.1,0.4-0.1
						c0.3,0,0.5,0.1,0.7,0.3c0.2,0.2,0.3,0.4,0.3,0.8c0,0.3-0.1,0.6-0.3,0.8c-0.2,0.2-0.4,0.3-0.7,0.3c-0.3,0-0.5-0.1-0.7-0.3
						C11.7,3.7,11.6,3.4,11.6,3.1z M12,3.1c0,0.2,0.1,0.4,0.2,0.5s0.2,0.2,0.4,0.2c0.2,0,0.3-0.1,0.4-0.2c0.1-0.1,0.2-0.3,0.2-0.5
						c0-0.2-0.1-0.4-0.2-0.5c-0.1-0.1-0.2-0.2-0.4-0.2s-0.3,0.1-0.4,0.2C12.1,2.7,12,2.9,12,3.1z"/>
					<path class="st20" d="M13.8,3.4l0.4,0c0,0.1,0.1,0.2,0.1,0.3s0.2,0.1,0.3,0.1c0.1,0,0.2,0,0.3-0.1C15,3.7,15,3.6,15,3.5
						c0,0,0-0.1,0-0.1s-0.1-0.1-0.1-0.1c0,0-0.2,0-0.3-0.1C14.3,3.2,14.1,3.1,14,3c-0.1-0.1-0.2-0.2-0.2-0.4c0-0.1,0-0.2,0.1-0.3
						c0.1-0.1,0.1-0.2,0.2-0.2c0.1,0,0.2-0.1,0.4-0.1c0.3,0,0.4,0.1,0.6,0.2c0.1,0.1,0.2,0.3,0.2,0.4l-0.4,0c0-0.1-0.1-0.2-0.1-0.2
						s-0.1-0.1-0.3-0.1c-0.1,0-0.2,0-0.3,0.1c0,0-0.1,0.1-0.1,0.1c0,0,0,0.1,0.1,0.1c0.1,0,0.2,0.1,0.4,0.1c0.2,0,0.3,0.1,0.4,0.1
						c0.1,0,0.2,0.1,0.2,0.2c0.1,0.1,0.1,0.2,0.1,0.3c0,0.1,0,0.2-0.1,0.3C15.2,3.9,15.2,4,15,4.1s-0.3,0.1-0.4,0.1
						c-0.3,0-0.4-0.1-0.6-0.2S13.8,3.7,13.8,3.4z"/>
					<path class="st20" d="M15.7,4.1v-2h0.6c0.2,0,0.4,0,0.5,0c0.1,0,0.2,0.1,0.3,0.2c0.1,0.1,0.1,0.2,0.1,0.4c0,0.1,0,0.2-0.1,0.3
						c0,0.1-0.1,0.1-0.2,0.2s-0.1,0.1-0.2,0.1c-0.1,0-0.2,0-0.4,0h-0.3v0.8H15.7z M16.1,2.4V3h0.2c0.2,0,0.3,0,0.3,0
						s0.1-0.1,0.1-0.1c0,0,0-0.1,0-0.2c0-0.1,0-0.1-0.1-0.2c0,0-0.1-0.1-0.2-0.1c0,0-0.1,0-0.3,0H16.1z"/>
					<path class="st20" d="M17.6,4.1v-2H18v2H17.6z"/>
					<path class="st20" d="M18.8,4.1V2.4h-0.6V2.1h1.6v0.3h-0.6v1.7H18.8z"/>
					<path class="st20" d="M21.7,4.1h-0.4L21,3.6h-0.8l-0.2,0.5h-0.4l0.8-2h0.4L21.7,4.1z M20.9,3.3l-0.3-0.7l-0.3,0.7H20.9z"/>
					<path class="st20" d="M21.9,4.1v-2h0.4v1.6h1v0.3H21.9z"/>
				</g>
			</g>
		</g>
		<g>
			<g>
				<g>
					<path class="st21" d="M9,12.1v2.7c0,0.2-0.2,0.4-0.4,0.4H4.2c-0.2,0-0.4-0.2-0.4-0.4v-2.7c0-0.2,0.2-0.4,0.4-0.4h4.4
						C8.8,11.7,9,11.9,9,12.1z"/>
				</g>
				<g>
					<path class="st21" d="M29.1,12.1v2.7c0,0.2-0.2,0.4-0.4,0.4h-4.4c-0.2,0-0.4-0.2-0.4-0.4v-2.7c0-0.2,0.2-0.4,0.4-0.4h4.4
						C29,11.7,29.1,11.9,29.1,12.1z"/>
				</g>
				<g>
					<path class="st22" d="M28.7,11.7H28l-4,2.5v0.6c0,0,0,0.1,0,0.1l5-3.1C29,11.7,28.9,11.7,28.7,11.7z"/>
					<polygon class="st22" points="24,13.5 24,13.9 27.6,11.7 26.9,11.7 					"/>
				</g>
			</g>
			<g>
				<g>
					<path class="st21" d="M9,17.8v2.7c0,0.2-0.2,0.4-0.4,0.4H4.2c-0.2,0-0.4-0.2-0.4-0.4v-2.7c0-0.2,0.2-0.4,0.4-0.4h4.4
						C8.8,17.4,9,17.6,9,17.8z"/>
				</g>
				<g>
					<path class="st22" d="M8.6,17.4H7.9l-4,2.5v0.6c0,0,0,0.1,0,0.1l5-3.1C8.8,17.5,8.7,17.4,8.6,17.4z"/>
					<polygon class="st22" points="3.9,19.2 3.9,19.6 7.4,17.4 6.8,17.4 					"/>
				</g>
				<g>
					<path class="st21" d="M29.1,17.8v2.7c0,0.2-0.2,0.4-0.4,0.4h-4.4c-0.2,0-0.4-0.2-0.4-0.4v-2.7c0-0.2,0.2-0.4,0.4-0.4h4.4
						C29,17.4,29.1,17.6,29.1,17.8z"/>
				</g>
				<g>
					<path class="st22" d="M28.7,17.4H28l-4,2.5v0.6c0,0,0,0.1,0,0.1l5-3.1C29,17.5,28.9,17.4,28.7,17.4z"/>
					<polygon class="st22" points="24,19.2 24,19.6 27.6,17.4 26.9,17.4 					"/>
				</g>
			</g>
			<g>
				<g>
					<path class="st21" d="M9,23.6v2.7c0,0.2-0.2,0.4-0.4,0.4H4.2c-0.2,0-0.4-0.2-0.4-0.4v-2.7c0-0.2,0.2-0.4,0.4-0.4h4.4
						C8.8,23.2,9,23.4,9,23.6z"/>
				</g>
				<g>
					<path class="st22" d="M8.6,23.2H7.9l-4,2.5v0.6c0,0,0,0.1,0,0.1l5-3.1C8.8,23.3,8.7,23.2,8.6,23.2z"/>
					<polygon class="st22" points="3.9,25 3.9,25.4 7.4,23.2 6.8,23.2 					"/>
				</g>
				<g>
					<path class="st21" d="M29.1,23.6v2.7c0,0.2-0.2,0.4-0.4,0.4h-4.4c-0.2,0-0.4-0.2-0.4-0.4v-2.7c0-0.2,0.2-0.4,0.4-0.4h4.4
						C29,23.2,29.1,23.4,29.1,23.6z"/>
				</g>
				<g>
					<path class="st22" d="M28.7,23.2H28l-4,2.5v0.6c0,0,0,0.1,0,0.1l5-3.1C29,23.3,28.9,23.2,28.7,23.2z"/>
					<polygon class="st22" points="24,25 24,25.4 27.6,23.2 26.9,23.2 					"/>
				</g>
			</g>
		</g>
		<g>
			<path class="st21" d="M22.4,12.1v5.2c0,0.2-0.2,0.4-0.4,0.4H11c-0.2,0-0.4-0.2-0.4-0.4v-5.2c0-0.2,0.2-0.4,0.4-0.4H22
				c0.1,0,0.1,0,0.1,0c0.1,0,0.1,0,0.1,0.1c0,0,0,0,0,0l0,0C22.4,11.9,22.4,12,22.4,12.1z"/>
		</g>
		<g>
			<path class="st22" d="M8.6,11.7H7.9l-4,2.5v0.6c0,0,0,0.1,0,0.1l5-3.1C8.8,11.7,8.7,11.7,8.6,11.7z"/>
			<polygon class="st22" points="3.9,13.5 3.9,13.9 7.4,11.7 6.8,11.7 			"/>
		</g>
		<g>
			<path class="st22" d="M19.4,11.7l-8.9,5.4v0.2c0,0.2,0.2,0.4,0.4,0.4l9.8-5.9H19.4z"/>
			<polygon class="st22" points="10.6,16.8 19,11.7 18.3,11.7 10.6,16.4 			"/>
		</g>
	</g>
	<g>
		<g>
			<g>
				<rect x="11.3" y="3.7" class="st7" width="0.6" height="4"/>
			</g>
			<g>
				<rect x="21" y="3.7" class="st7" width="0.6" height="4"/>
			</g>
		</g>
		<g>
			<rect x="1.8" y="7.9" class="st18" width="29.3" height="22.9"/>
		</g>
		<g>
			<polygon class="st19" points="31.2,9.7 31.2,11.1 1.8,9.7 			"/>
		</g>
		<g>
			<path class="st4" d="M32.5,8.3c0,0.7-0.6,1.3-1.3,1.3H1.8c-0.7,0-1.3-0.6-1.3-1.3C0.5,7.6,1.1,7,1.8,7h29.3
				C31.9,7,32.5,7.6,32.5,8.3z"/>
		</g>
		<g>
			<rect x="11.6" y="20.8" class="st1" width="9.9" height="10"/>
		</g>
		<g>
			<rect x="12.6" y="20.9" class="st7" width="3.6" height="9.9"/>
			<rect x="17" y="20.9" class="st7" width="3.6" height="9.9"/>
		</g>
		<g>
			<path class="st4" d="M22.4,21.2H10.8c-0.2,0-0.4-0.2-0.3-0.4l0.4-1.4c0-0.1,0.2-0.2,0.3-0.2H22c0.1,0,0.3,0.1,0.3,0.2l0.4,1.4
				C22.8,20.9,22.6,21.2,22.4,21.2z"/>
		</g>
		<g>
			<g>
				<path class="st4" d="M24.9,1.3v3.5c0,0.5-0.4,0.8-0.8,0.8H8.9c-0.5,0-0.8-0.4-0.8-0.8V1.3c0-0.5,0.4-0.8,0.8-0.8h15.1
					C24.5,0.5,24.9,0.8,24.9,1.3z"/>
			</g>
			<g>
				<g>
					<path class="st20" d="M9.7,4V2h0.4v0.8h0.8V2h0.4v2h-0.4V3.2h-0.8V4H9.7z"/>
					<path class="st20" d="M11.6,3c0-0.2,0-0.4,0.1-0.5c0-0.1,0.1-0.2,0.2-0.3c0.1-0.1,0.2-0.1,0.3-0.2C12.3,2,12.4,2,12.6,2
						c0.3,0,0.5,0.1,0.7,0.3c0.2,0.2,0.3,0.4,0.3,0.8c0,0.3-0.1,0.6-0.3,0.8c-0.2,0.2-0.4,0.3-0.7,0.3c-0.3,0-0.5-0.1-0.7-0.3
						C11.7,3.6,11.6,3.4,11.6,3z M12,3c0,0.2,0.1,0.4,0.2,0.5c0.1,0.1,0.2,0.2,0.4,0.2c0.2,0,0.3-0.1,0.4-0.2
						c0.1-0.1,0.2-0.3,0.2-0.5c0-0.2-0.1-0.4-0.2-0.5c-0.1-0.1-0.2-0.2-0.4-0.2s-0.3,0.1-0.4,0.2C12.1,2.6,12,2.8,12,3z"/>
					<path class="st20" d="M13.8,3.4l0.4,0c0,0.1,0.1,0.2,0.1,0.3s0.2,0.1,0.3,0.1c0.1,0,0.2,0,0.3-0.1S15,3.5,15,3.5
						c0,0,0-0.1,0-0.1c0,0-0.1-0.1-0.1-0.1c0,0-0.2,0-0.3-0.1C14.3,3.1,14.1,3,14,3c-0.1-0.1-0.2-0.2-0.2-0.4c0-0.1,0-0.2,0.1-0.3
						c0.1-0.1,0.1-0.2,0.2-0.2C14.3,2,14.4,2,14.6,2c0.3,0,0.4,0.1,0.6,0.2c0.1,0.1,0.2,0.3,0.2,0.4l-0.4,0c0-0.1-0.1-0.2-0.1-0.2
						c-0.1,0-0.1-0.1-0.3-0.1c-0.1,0-0.2,0-0.3,0.1c0,0-0.1,0.1-0.1,0.1c0,0,0,0.1,0.1,0.1c0.1,0,0.2,0.1,0.4,0.1
						c0.2,0,0.3,0.1,0.4,0.1c0.1,0,0.2,0.1,0.2,0.2c0.1,0.1,0.1,0.2,0.1,0.3c0,0.1,0,0.2-0.1,0.3C15.2,3.9,15.1,3.9,15,4
						s-0.3,0.1-0.4,0.1c-0.3,0-0.4-0.1-0.6-0.2S13.8,3.6,13.8,3.4z"/>
					<path class="st20" d="M15.7,4V2h0.6c0.2,0,0.4,0,0.5,0c0.1,0,0.2,0.1,0.3,0.2c0.1,0.1,0.1,0.2,0.1,0.4c0,0.1,0,0.2-0.1,0.3
						S17.1,3.1,17,3.2s-0.1,0.1-0.2,0.1c-0.1,0-0.2,0-0.4,0h-0.3V4H15.7z M16.1,2.4v0.6h0.2c0.2,0,0.3,0,0.3,0s0.1-0.1,0.1-0.1
						c0,0,0-0.1,0-0.2c0-0.1,0-0.1-0.1-0.2c0,0-0.1-0.1-0.2-0.1c0,0-0.1,0-0.3,0H16.1z"/>
					<path class="st20" d="M17.6,4V2H18v2H17.6z"/>
					<path class="st20" d="M18.8,4V2.4h-0.6V2h1.6v0.3h-0.6V4H18.8z"/>
					<path class="st20" d="M21.7,4h-0.4L21,3.6h-0.8L20.1,4h-0.4l0.8-2h0.4L21.7,4z M20.9,3.2l-0.3-0.7l-0.3,0.7H20.9z"/>
					<path class="st20" d="M21.9,4v-2h0.4v1.6h1V4H21.9z"/>
				</g>
			</g>
		</g>
		<g>
			<g>
				<g>
					<path class="st21" d="M9,12v2.7c0,0.2-0.2,0.4-0.4,0.4H4.2c-0.2,0-0.4-0.2-0.4-0.4V12c0-0.2,0.2-0.4,0.4-0.4h4.4
						C8.8,11.6,9,11.8,9,12z"/>
				</g>
				<g>
					<path class="st21" d="M29.1,12v2.7c0,0.2-0.2,0.4-0.4,0.4h-4.4c-0.2,0-0.4-0.2-0.4-0.4V12c0-0.2,0.2-0.4,0.4-0.4h4.4
						C29,11.6,29.1,11.8,29.1,12z"/>
				</g>
				<g>
					<g>
						<path class="st22" d="M28.7,11.6H28l-4,2.5v0.6c0,0,0,0.1,0,0.1l5-3.1C29,11.7,28.9,11.6,28.7,11.6z"/>
					</g>
					<polygon class="st22" points="24,13.4 24,13.8 27.6,11.6 26.9,11.6 					"/>
				</g>
			</g>
			<g>
				<g>
					<path class="st21" d="M9,17.8v2.7c0,0.2-0.2,0.4-0.4,0.4H4.2c-0.2,0-0.4-0.2-0.4-0.4v-2.7c0-0.2,0.2-0.4,0.4-0.4h4.4
						C8.8,17.4,9,17.5,9,17.8z"/>
				</g>
				<g>
					<path class="st22" d="M8.6,17.4H7.9l-4,2.5v0.6c0,0,0,0.1,0,0.1l5-3.1C8.8,17.4,8.7,17.4,8.6,17.4z"/>
					<polygon class="st22" points="3.9,19.2 3.9,19.6 7.4,17.4 6.8,17.4 					"/>
				</g>
				<g>
					<path class="st21" d="M29.1,17.8v2.7c0,0.2-0.2,0.4-0.4,0.4h-4.4c-0.2,0-0.4-0.2-0.4-0.4v-2.7c0-0.2,0.2-0.4,0.4-0.4h4.4
						C29,17.4,29.1,17.5,29.1,17.8z"/>
				</g>
				<g>
					<path class="st22" d="M28.7,17.4H28l-4,2.5v0.6c0,0,0,0.1,0,0.1l5-3.1C29,17.4,28.9,17.4,28.7,17.4z"/>
					<polygon class="st22" points="24,19.2 24,19.6 27.6,17.4 26.9,17.4 					"/>
				</g>
			</g>
			<g>
				<g>
					<path class="st21" d="M9,23.5v2.7c0,0.2-0.2,0.4-0.4,0.4H4.2c-0.2,0-0.4-0.2-0.4-0.4v-2.7c0-0.2,0.2-0.4,0.4-0.4h4.4
						C8.8,23.1,9,23.3,9,23.5z"/>
				</g>
				<g>
					<path class="st22" d="M8.6,23.1H7.9l-4,2.5v0.6c0,0,0,0.1,0,0.1l5-3.1C8.8,23.2,8.7,23.1,8.6,23.1z"/>
					<polygon class="st22" points="3.9,24.9 3.9,25.3 7.4,23.1 6.8,23.1 					"/>
				</g>
				<g>
					<path class="st21" d="M29.1,23.5v2.7c0,0.2-0.2,0.4-0.4,0.4h-4.4c-0.2,0-0.4-0.2-0.4-0.4v-2.7c0-0.2,0.2-0.4,0.4-0.4h4.4
						C29,23.1,29.1,23.3,29.1,23.5z"/>
				</g>
				<g>
					<path class="st22" d="M28.7,23.1H28l-4,2.5v0.6c0,0,0,0.1,0,0.1l5-3.1C29,23.2,28.9,23.1,28.7,23.1z"/>
					<polygon class="st22" points="24,24.9 24,25.3 27.6,23.1 26.9,23.1 					"/>
				</g>
			</g>
		</g>
		<g>
			<path class="st21" d="M22.4,12v5.2c0,0.2-0.2,0.4-0.4,0.4H11c-0.2,0-0.4-0.2-0.4-0.4V12c0-0.2,0.2-0.4,0.4-0.4H22
				c0.1,0,0.1,0,0.1,0c0.1,0,0.1,0,0.1,0.1c0,0,0,0,0,0l0,0C22.4,11.8,22.4,11.9,22.4,12z"/>
		</g>
		<g>
			<path class="st22" d="M8.6,11.6H7.9l-4,2.5v0.6c0,0,0,0.1,0,0.1l5-3.1C8.8,11.7,8.7,11.6,8.6,11.6z"/>
			<polygon class="st22" points="3.9,13.4 3.9,13.8 7.4,11.6 6.8,11.6 			"/>
		</g>
		<g>
			<path class="st22" d="M19.4,11.6L10.6,17v0.2c0,0.2,0.2,0.4,0.4,0.4l9.8-5.9H19.4z"/>
			<polygon class="st22" points="10.6,16.7 19,11.6 18.3,11.6 10.6,16.3 			"/>
		</g>
	</g>
	<g>
		<path class="st14" d="M32.5,31.7c0,0.4-0.4,0.8-0.8,0.8H1.3c-0.5,0-0.8-0.4-0.8-0.8c0-0.5,0.4-0.8,0.8-0.8h30.4
			C32.1,30.9,32.5,31.3,32.5,31.7z"/>
	</g>
</g>
</svg>
