<?xml version="1.0" encoding="utf-8"?>
<!-- Generator: Adobe Illustrator 21.1.0, SVG Export Plug-In . SVG Version: 6.00 Build 0)  -->
<svg version="1.1" id="Layer_1" xmlns="http://www.w3.org/2000/svg" xmlns:xlink="http://www.w3.org/1999/xlink" x="0px" y="0px"
	 viewBox="0 0 33 33" style="enable-background:new 0 0 33 33;" xml:space="preserve">
<style type="text/css">
	.st0{fill:#DAE5EF;}
	.st1{fill:#CBD6E0;}
	.st2{fill:#D03F3F;}
	.st3{fill:#BF3333;}
	.st4{fill:#E24B4B;}
	.st5{fill:#6D4135;}
	.st6{fill:#5B331D;}
	.st7{fill:#3E4347;}
	.st8{fill:#4E99D2;}
	.st9{fill:#65B1EF;}
	.st10{fill:#FFDC97;}
	.st11{fill:#FFCD7D;}
	.st12{fill:#FFE9AB;}
	.st13{fill:#31373A;}
	.st14{fill:#8CC63E;}
	.st15{fill:#FFD93B;}
	.st16{fill:#F4C534;}
	.st17{fill:#59A5E0;}
	.st18{fill:#DEE4E9;}
	.st19{fill:#D3D9DD;}
	.st20{fill:#FFFFFF;}
	.st21{fill:#2AB4CD;}
	.st22{fill:#1DA9BF;}
	.st23{fill:#E9EFF4;}
	.st24{fill:#7FB239;}
	.st25{fill:#719D34;}
	.st26{opacity:0.5;}
	.st27{fill:#BBC7D1;}
	.st28{fill:#E84D88;}
	.st29{fill:#D23F77;}
	.st30{fill:#633B2A;}
	.st31{fill:#E9B02C;}
	.st32{fill:#38C0DC;}
	.st33{fill:#45CBEA;}
	.st34{fill:#5A5F63;}
	.st35{fill:#E18823;}
	.st36{fill:#CF7519;}
	.st37{fill:#428DC3;}
	.st38{fill:#8D9BA3;}
	.st39{fill:#7B8B92;}
	.st40{fill:#ACB9C1;}
	.st41{fill:#846144;}
	.st42{fill:#7A5B44;}
	.st43{fill:#6B503B;}
	.st44{fill:#F29A2E;}
	.st45{fill:#728389;}
	.st46{fill:#FFD68D;}
	.st47{fill:#8F6D52;}
	.st48{fill:#84939A;}
	.st49{opacity:0.1;}
	.st50{fill:#89664C;}
	.st51{opacity:0.15;}
	.st52{fill:#DE9C25;}
	.st53{fill:#2AB4CD;stroke:#FFFFFF;stroke-width:0.5;stroke-linecap:round;stroke-linejoin:round;stroke-miterlimit:10;}
	.st54{fill:#FC97B2;}
	.st55{fill:#E88EA7;}
	.st56{opacity:0.2;}
	.st57{fill:#BB3166;}
	.st58{opacity:0.35;}
	.st59{opacity:0.6;}
	.st60{fill:#F9D087;}
	.st61{fill:#A5856D;}
	.st62{fill:#5C4533;}
	.st63{fill:#9A795F;}
	.st64{fill:#512A1B;}
	.st65{fill:#492418;}
	.st66{fill:#BE630E;}
	.st67{fill:none;}
	.st68{opacity:0.5;fill:#E18823;}
	.st69{opacity:0.1;fill:#FFFFFF;}
	.st70{fill:#FCCB7C;}
	.st71{opacity:0.15;fill:#FFFFFF;}
	.st72{opacity:0.2;fill:#FFFFFF;}
	.st73{opacity:0.5;fill:#CBD6E0;}
</style>
<g>
	<g>
		<rect x="1.5" y="11.2" class="st1" width="30" height="13.3"/>
	</g>
	<g>
		<path class="st4" d="M32.5,10.4c0.1,0.4-0.2,0.7-0.6,0.7H1.1c-0.4,0-0.7-0.4-0.6-0.7l0.6-2.9C1.1,7.2,1.4,7,1.7,7h29.6
			c0.3,0,0.6,0.2,0.6,0.5L32.5,10.4z"/>
	</g>
	<g>
		<g>
			<g>
				<g>
					<rect x="0.8" y="24.5" class="st48" width="31.4" height="7.2"/>
				</g>
			</g>
			<g>
				<g>
					<path class="st0" d="M14.5,31.7V6.5c0-2.8-2.3-5.2-5.2-5.2c-2.9,0-5.2,2.3-5.2,5.2v25.2H14.5z"/>
				</g>
				<g>
					<g>
						<rect x="5.5" y="11.6" class="st8" width="7.6" height="11.7"/>
					</g>
					<g>
						<g>
							<rect x="5.5" y="13.8" class="st9" width="7.6" height="0.9"/>
						</g>
						<g>
							<rect x="5.5" y="17.1" class="st9" width="7.6" height="0.9"/>
						</g>
						<g>
							<rect x="5.5" y="20.3" class="st9" width="7.6" height="0.9"/>
						</g>
					</g>
				</g>
				<g>
					<path class="st20" d="M15.1,24.5c0,0.3-0.2,0.5-0.5,0.5H4c-0.3,0-0.5-0.2-0.5-0.5s0.2-0.5,0.5-0.5h10.5
						C14.8,23.9,15.1,24.2,15.1,24.5z"/>
				</g>
				<g>
					<rect x="6.1" y="25.6" class="st7" width="6.4" height="6.1"/>
				</g>
				<g>
					<rect x="6.6" y="26.5" class="st8" width="2.5" height="5.2"/>
					<rect x="9.4" y="26.5" class="st8" width="2.5" height="5.2"/>
				</g>
			</g>
			<g>
				<g>
					<g>
						<path class="st20" d="M20.4,26.1V30c0,0.2-0.2,0.4-0.4,0.4H18c-0.2,0-0.4-0.2-0.4-0.4v-3.9c0-0.2,0.2-0.4,0.4-0.4H20
							C20.2,25.7,20.4,25.9,20.4,26.1z"/>
						<g>
							<rect x="18" y="26.2" class="st8" width="1.9" height="3.7"/>
						</g>
					</g>
				</g>
				<g class="st49">
					<polygon class="st20" points="18.9,26.2 18,29.4 18,29.9 18.2,29.9 19.3,26.2 					"/>
					<polygon class="st20" points="18.9,29.9 19.9,26.3 19.9,26.2 19.4,26.2 18.4,29.9 					"/>
				</g>
			</g>
			<g>
				<g>
					<g>
						<path class="st20" d="M24.6,26.1V30c0,0.2-0.2,0.4-0.4,0.4h-2.1c-0.2,0-0.4-0.2-0.4-0.4v-3.9c0-0.2,0.2-0.4,0.4-0.4h2.1
							C24.4,25.7,24.6,25.9,24.6,26.1z"/>
						<g>
							<rect x="22.2" y="26.2" class="st8" width="1.9" height="3.7"/>
						</g>
					</g>
				</g>
				<g class="st49">
					<polygon class="st20" points="23.1,26.2 22.2,29.4 22.2,29.9 22.4,29.9 23.4,26.2 					"/>
					<polygon class="st20" points="23.1,29.9 24.1,26.3 24.1,26.2 23.6,26.2 22.6,29.9 					"/>
				</g>
			</g>
			<g>
				<g>
					<g>
						<path class="st20" d="M28.8,26.1V30c0,0.2-0.2,0.4-0.4,0.4h-2.1c-0.2,0-0.4-0.2-0.4-0.4v-3.9c0-0.2,0.2-0.4,0.4-0.4h2.1
							C28.6,25.7,28.8,25.9,28.8,26.1z"/>
						<g>
							<rect x="26.4" y="26.2" class="st8" width="1.9" height="3.7"/>
						</g>
					</g>
				</g>
				<g class="st49">
					<polygon class="st20" points="27.3,26.2 26.4,29.4 26.4,29.9 26.6,29.9 27.6,26.2 					"/>
					<polygon class="st20" points="27.3,29.9 28.3,26.3 28.3,26.2 27.8,26.2 26.8,29.9 					"/>
				</g>
			</g>
			<g>
				<g>
					<circle class="st20" cx="9.3" cy="6.5" r="2.7"/>
				</g>
				<g>
					<circle class="st8" cx="9.3" cy="6.5" r="2.2"/>
				</g>
				<g>
					<path class="st9" d="M7.4,7.7l2.1-3.3c-0.1,0-0.2,0-0.3,0c0,0-0.1,0-0.1,0l-1.9,3C7.3,7.5,7.4,7.6,7.4,7.7z"/>
					<path class="st9" d="M9.8,4.4L7.6,7.9c0.2,0.2,0.3,0.3,0.5,0.5l2.4-3.7C10.3,4.6,10,4.5,9.8,4.4z"/>
				</g>
			</g>
		</g>
		<g class="st49">
			<polygon class="st20" points="5.5,22.9 11.5,11.6 11,11.6 5.5,21.9 			"/>
			<polygon class="st20" points="5.6,23.4 6.8,23.4 13,11.6 11.9,11.6 			"/>
		</g>
	</g>
	<g>
		<g>
			<g>
				<path class="st20" d="M20.4,13.5v8.7c0,0.2-0.2,0.4-0.4,0.4H18c-0.2,0-0.4-0.2-0.4-0.4v-8.7c0-0.2,0.2-0.4,0.4-0.4H20
					C20.2,13.1,20.4,13.3,20.4,13.5z"/>
				<g>
					<rect x="18" y="13.6" class="st8" width="1.9" height="8.5"/>
				</g>
			</g>
			<g>
				<g>
					<g class="st49">
						<polygon class="st20" points="18,19.9 19.9,13.6 19.9,13.6 19.4,13.6 18,18.2 						"/>
						<polygon class="st20" points="19.9,14.7 18,21 18,22.1 18.6,22.1 19.9,17.7 						"/>
					</g>
				</g>
			</g>
		</g>
		<g>
			<g>
				<path class="st20" d="M24.8,13.5v8.7c0,0.2-0.2,0.4-0.4,0.4h-2.1c-0.2,0-0.4-0.2-0.4-0.4v-8.7c0-0.2,0.2-0.4,0.4-0.4h2.1
					C24.7,13.1,24.8,13.3,24.8,13.5z"/>
				<g>
					<rect x="22.5" y="13.6" class="st8" width="1.9" height="8.5"/>
				</g>
			</g>
			<g>
				<g>
					<g class="st49">
						<polygon class="st20" points="22.5,19.9 24.4,13.6 24.4,13.6 23.9,13.6 22.5,18.2 						"/>
						<polygon class="st20" points="24.4,14.7 22.5,21 22.5,22.1 23.1,22.1 24.4,17.7 						"/>
					</g>
				</g>
			</g>
		</g>
		<g>
			<g>
				<path class="st20" d="M29.3,13.5v8.7c0,0.2-0.2,0.4-0.4,0.4h-2.1c-0.2,0-0.4-0.2-0.4-0.4v-8.7c0-0.2,0.2-0.4,0.4-0.4h2.1
					C29.1,13.1,29.3,13.3,29.3,13.5z"/>
				<g>
					<rect x="26.9" y="13.6" class="st8" width="1.9" height="8.5"/>
				</g>
			</g>
			<g>
				<g>
					<g class="st49">
						<polygon class="st20" points="26.9,19.9 28.8,13.6 28.8,13.6 28.3,13.6 26.9,18.2 						"/>
						<polygon class="st20" points="28.8,14.7 26.9,21 26.9,22.1 27.5,22.1 28.8,17.7 						"/>
					</g>
				</g>
			</g>
		</g>
	</g>
	<g class="st49">
		<polygon class="st20" points="6.6,30.5 9.1,27.9 9.1,27.4 6.6,30.1 		"/>
		<polygon class="st20" points="9.1,28.3 6.6,30.9 6.6,31.7 6.9,31.7 9.1,29.3 		"/>
	</g>
	<g class="st49">
		<polygon class="st20" points="9.4,27.5 10.4,26.5 10,26.5 9.4,27 		"/>
		<polygon class="st20" points="9.4,28.9 11.8,26.5 10.8,26.5 9.4,27.9 		"/>
	</g>
</g>
</svg>
