<?xml version="1.0" encoding="utf-8"?>
<!-- Generator: Adobe Illustrator 21.1.0, SVG Export Plug-In . SVG Version: 6.00 Build 0)  -->
<svg version="1.1" id="Layer_1" xmlns="http://www.w3.org/2000/svg" xmlns:xlink="http://www.w3.org/1999/xlink" x="0px" y="0px"
	 viewBox="0 0 33 33" style="enable-background:new 0 0 33 33;" xml:space="preserve">
<style type="text/css">
	.st0{fill:#DAE5EF;}
	.st1{fill:#CBD6E0;}
	.st2{fill:#D03F3F;}
	.st3{fill:#BF3333;}
	.st4{fill:#E24B4B;}
	.st5{fill:#6D4135;}
	.st6{fill:#5B331D;}
	.st7{fill:#3E4347;}
	.st8{fill:#4E99D2;}
	.st9{fill:#65B1EF;}
	.st10{fill:#FFDC97;}
	.st11{fill:#FFCD7D;}
	.st12{fill:#FFE9AB;}
	.st13{fill:#31373A;}
	.st14{fill:#8CC63E;}
	.st15{fill:#FFD93B;}
	.st16{fill:#F4C534;}
	.st17{fill:#59A5E0;}
	.st18{fill:#DEE4E9;}
	.st19{fill:#D3D9DD;}
	.st20{fill:#FFFFFF;}
	.st21{fill:#2AB4CD;}
	.st22{fill:#1DA9BF;}
	.st23{fill:#E9EFF4;}
	.st24{fill:#7FB239;}
	.st25{fill:#719D34;}
	.st26{opacity:0.5;}
	.st27{fill:#BBC7D1;}
	.st28{fill:#E84D88;}
	.st29{fill:#D23F77;}
	.st30{fill:#633B2A;}
	.st31{fill:#E9B02C;}
	.st32{fill:#38C0DC;}
	.st33{fill:#45CBEA;}
	.st34{fill:#5A5F63;}
	.st35{fill:#E18823;}
	.st36{fill:#CF7519;}
	.st37{fill:#428DC3;}
	.st38{fill:#8D9BA3;}
	.st39{fill:#7B8B92;}
	.st40{fill:#ACB9C1;}
	.st41{fill:#846144;}
	.st42{fill:#7A5B44;}
	.st43{fill:#6B503B;}
	.st44{fill:#F29A2E;}
	.st45{fill:#728389;}
	.st46{fill:#FFD68D;}
	.st47{fill:#8F6D52;}
	.st48{fill:#84939A;}
	.st49{opacity:0.1;}
	.st50{fill:#89664C;}
	.st51{opacity:0.15;}
	.st52{fill:#DE9C25;}
	.st53{fill:#2AB4CD;stroke:#FFFFFF;stroke-width:0.5;stroke-linecap:round;stroke-linejoin:round;stroke-miterlimit:10;}
	.st54{fill:#FC97B2;}
	.st55{fill:#E88EA7;}
	.st56{opacity:0.2;}
	.st57{fill:#BB3166;}
	.st58{opacity:0.35;}
	.st59{opacity:0.6;}
	.st60{fill:#F9D087;}
	.st61{fill:#A5856D;}
	.st62{fill:#5C4533;}
	.st63{fill:#9A795F;}
	.st64{fill:#512A1B;}
	.st65{fill:#492418;}
	.st66{fill:#BE630E;}
	.st67{fill:none;}
	.st68{opacity:0.5;fill:#E18823;}
	.st69{opacity:0.1;fill:#FFFFFF;}
	.st70{fill:#FCCB7C;}
	.st71{opacity:0.15;fill:#FFFFFF;}
	.st72{opacity:0.2;fill:#FFFFFF;}
	.st73{opacity:0.5;fill:#CBD6E0;}
</style>
<g>
	<g>
		<path class="st14" d="M20.5,4.3c-1.2-0.8-2.4,0.8-3.7,0c0-0.7,0-1.3,0-2c1.2,0.8,2.4-0.8,3.7,0c-0.3,0.2-0.5,0.4-0.8,0.8
			C19.9,3.4,20.2,3.8,20.5,4.3z"/>
	</g>
	<g>
		<path class="st7" d="M17.1,2c0-0.4-0.6-0.4-0.6,0l0,5.8h0.6L17.1,2z"/>
	</g>
	<g>
		<g>
			<g>
				<g>
					<g>
						<path class="st7" d="M31.9,15.1H1.1c-0.4,0-0.7-0.4-0.6-0.8l1.2-5c0.1-0.4,0.4-0.7,0.8-0.7h28c0.4,0,0.7,0.3,0.8,0.7l1.2,5
							C32.6,14.7,32.3,15.1,31.9,15.1z"/>
					</g>
				</g>
				<g>
					<g>
						<rect x="1.8" y="15.1" class="st44" width="29.3" height="16.2"/>
					</g>
				</g>
				<g>
					<g>
						<rect x="1.8" y="28.8" class="st35" width="29.3" height="2.5"/>
					</g>
				</g>
			</g>
			<g>
				<g>
					<g>
						<g>
							<rect x="4" y="16.8" class="st17" width="2.2" height="2.3"/>
							<path class="st20" d="M6.2,19.3H4c-0.1,0-0.2-0.1-0.2-0.2v-2.3c0-0.1,0.1-0.2,0.2-0.2h2.2c0.1,0,0.2,0.1,0.2,0.2v2.3
								C6.4,19.3,6.3,19.3,6.2,19.3z M4.2,19H6v-2H4.2V19z"/>
						</g>
					</g>
					<g>
						<g>
							<rect x="7.7" y="16.8" class="st17" width="2.2" height="2.3"/>
							<path class="st20" d="M9.9,19.3H7.7c-0.1,0-0.2-0.1-0.2-0.2v-2.3c0-0.1,0.1-0.2,0.2-0.2h2.2c0.1,0,0.2,0.1,0.2,0.2v2.3
								C10,19.3,9.9,19.3,9.9,19.3z M7.9,19h1.8v-2H7.9V19z"/>
						</g>
					</g>
					<g>
						<g>
							<rect x="23.7" y="16.8" class="st17" width="2.2" height="2.3"/>
							<path class="st20" d="M25.9,19.3h-2.2c-0.1,0-0.2-0.1-0.2-0.2v-2.3c0-0.1,0.1-0.2,0.2-0.2h2.2c0.1,0,0.2,0.1,0.2,0.2v2.3
								C26,19.3,26,19.3,25.9,19.3z M23.9,19h1.8v-2h-1.8V19z"/>
						</g>
					</g>
					<g>
						<g>
							<rect x="27.4" y="16.8" class="st17" width="2.2" height="2.3"/>
							<path class="st20" d="M29.5,19.3h-2.2c-0.1,0-0.2-0.1-0.2-0.2v-2.3c0-0.1,0.1-0.2,0.2-0.2h2.2c0.1,0,0.2,0.1,0.2,0.2v2.3
								C29.7,19.3,29.6,19.3,29.5,19.3z M27.5,19h1.8v-2h-1.8V19z"/>
						</g>
					</g>
				</g>
				<g>
					<g>
						<g>
							<rect x="4" y="21" class="st17" width="2.2" height="2.3"/>
							<path class="st20" d="M6.2,23.5H4c-0.1,0-0.2-0.1-0.2-0.2V21c0-0.1,0.1-0.2,0.2-0.2h2.2c0.1,0,0.2,0.1,0.2,0.2v2.3
								C6.4,23.4,6.3,23.5,6.2,23.5z M4.2,23.1H6v-2H4.2V23.1z"/>
						</g>
					</g>
					<g>
						<g>
							<rect x="7.7" y="21" class="st17" width="2.2" height="2.3"/>
							<path class="st20" d="M9.9,23.5H7.7c-0.1,0-0.2-0.1-0.2-0.2V21c0-0.1,0.1-0.2,0.2-0.2h2.2c0.1,0,0.2,0.1,0.2,0.2v2.3
								C10,23.4,9.9,23.5,9.9,23.5z M7.9,23.1h1.8v-2H7.9V23.1z"/>
						</g>
					</g>
					<g>
						<g>
							<rect x="23.7" y="21" class="st17" width="2.2" height="2.3"/>
							<path class="st20" d="M25.9,23.5h-2.2c-0.1,0-0.2-0.1-0.2-0.2V21c0-0.1,0.1-0.2,0.2-0.2h2.2c0.1,0,0.2,0.1,0.2,0.2v2.3
								C26,23.4,26,23.5,25.9,23.5z M23.9,23.1h1.8v-2h-1.8V23.1z"/>
						</g>
					</g>
					<g>
						<g>
							<rect x="27.4" y="21" class="st17" width="2.2" height="2.3"/>
							<path class="st20" d="M29.5,23.5h-2.2c-0.1,0-0.2-0.1-0.2-0.2V21c0-0.1,0.1-0.2,0.2-0.2h2.2c0.1,0,0.2,0.1,0.2,0.2v2.3
								C29.7,23.4,29.6,23.5,29.5,23.5z M27.5,23.1h1.8v-2h-1.8V23.1z"/>
						</g>
					</g>
				</g>
				<g>
					<g>
						<g>
							<rect x="4" y="25.1" class="st17" width="2.2" height="2.3"/>
							<path class="st20" d="M6.2,27.6H4c-0.1,0-0.2-0.1-0.2-0.2v-2.3c0-0.1,0.1-0.2,0.2-0.2h2.2c0.1,0,0.2,0.1,0.2,0.2v2.3
								C6.4,27.5,6.3,27.6,6.2,27.6z M4.2,27.3H6v-2H4.2V27.3z"/>
						</g>
					</g>
					<g>
						<g>
							<rect x="7.7" y="25.1" class="st17" width="2.2" height="2.3"/>
							<path class="st20" d="M9.9,27.6H7.7c-0.1,0-0.2-0.1-0.2-0.2v-2.3c0-0.1,0.1-0.2,0.2-0.2h2.2c0.1,0,0.2,0.1,0.2,0.2v2.3
								C10,27.5,9.9,27.6,9.9,27.6z M7.9,27.3h1.8v-2H7.9V27.3z"/>
						</g>
					</g>
					<g>
						<g>
							<rect x="23.7" y="25.1" class="st17" width="2.2" height="2.3"/>
							<path class="st20" d="M25.9,27.6h-2.2c-0.1,0-0.2-0.1-0.2-0.2v-2.3c0-0.1,0.1-0.2,0.2-0.2h2.2c0.1,0,0.2,0.1,0.2,0.2v2.3
								C26,27.5,26,27.6,25.9,27.6z M23.9,27.3h1.8v-2h-1.8V27.3z"/>
						</g>
					</g>
					<g>
						<g>
							<rect x="27.4" y="25.1" class="st17" width="2.2" height="2.3"/>
							<path class="st20" d="M29.5,27.6h-2.2c-0.1,0-0.2-0.1-0.2-0.2v-2.3c0-0.1,0.1-0.2,0.2-0.2h2.2c0.1,0,0.2,0.1,0.2,0.2v2.3
								C29.7,27.5,29.6,27.6,29.5,27.6z M27.5,27.3h1.8v-2h-1.8V27.3z"/>
						</g>
					</g>
				</g>
			</g>
			<g>
				<g>
					<g>
						<polygon class="st10" points="22,14 22,31.3 11.7,31.3 11.7,14 16.8,8 						"/>
					</g>
				</g>
				<g>
					<g>
						<polygon class="st12" points="22,14 22,31.3 11.7,31.3 11.7,14 16.8,8 						"/>
					</g>
				</g>
				<g>
					<polygon class="st46" points="11.7,14 11.7,16.2 16.8,10 22,16.2 22,14 16.8,8 					"/>
				</g>
				<g>
					<g>
						<g>
							<path class="st4" d="M23.1,15.6c-0.3,0.2-0.7,0.2-1-0.1l-5.3-6.4l-5.3,6.4c-0.2,0.3-0.7,0.3-1,0.1c-0.3-0.2-0.3-0.7-0.1-1
								l5.9-7c0.1-0.2,0.3-0.2,0.5-0.2c0.2,0,0.4,0.1,0.5,0.2l5.9,7C23.4,14.9,23.4,15.3,23.1,15.6z"/>
						</g>
					</g>
				</g>
			</g>
			<g>
				<g>
					<g>
						<rect x="13.5" y="23.5" class="st7" width="6.5" height="7.8"/>
					</g>
				</g>
				<g>
					<g>
						<rect x="14.2" y="24.7" class="st20" width="5.3" height="6.6"/>
					</g>
				</g>
				<g>
					<g>
						<rect x="14.6" y="25.4" class="st17" width="2" height="5.9"/>
					</g>
					<g>
						<rect x="17" y="25.4" class="st17" width="2" height="5.9"/>
					</g>
				</g>
			</g>
		</g>
		<g>
			<g>
				<g>
					<rect x="14.1" y="16.5" class="st17" width="2.2" height="5.3"/>
					<path class="st20" d="M16.2,22h-2.2c-0.1,0-0.2-0.1-0.2-0.2v-5.3c0-0.1,0.1-0.2,0.2-0.2h2.2c0.1,0,0.2,0.1,0.2,0.2v5.3
						C16.4,21.9,16.3,22,16.2,22z M14.3,21.7h1.8v-5h-1.8V21.7z"/>
				</g>
			</g>
			<g>
				<g>
					<rect x="17.4" y="16.5" class="st17" width="2.2" height="5.3"/>
					<path class="st20" d="M19.5,22h-2.2c-0.1,0-0.2-0.1-0.2-0.2v-5.3c0-0.1,0.1-0.2,0.2-0.2h2.2c0.1,0,0.2,0.1,0.2,0.2v5.3
						C19.7,21.9,19.6,22,19.5,22z M17.5,21.7h1.8v-5h-1.8V21.7z"/>
				</g>
			</g>
		</g>
	</g>
</g>
</svg>
