<?xml version="1.0" encoding="utf-8"?>
<!-- Generator: Adobe Illustrator 21.1.0, SVG Export Plug-In . SVG Version: 6.00 Build 0)  -->
<svg version="1.1" id="Layer_1" xmlns="http://www.w3.org/2000/svg" xmlns:xlink="http://www.w3.org/1999/xlink" x="0px" y="0px"
	 viewBox="0 0 33 33" style="enable-background:new 0 0 33 33;" xml:space="preserve">
<style type="text/css">
	.st0{fill:#DAE5EF;}
	.st1{fill:#CBD6E0;}
	.st2{fill:#D03F3F;}
	.st3{fill:#BF3333;}
	.st4{fill:#E24B4B;}
	.st5{fill:#6D4135;}
	.st6{fill:#5B331D;}
	.st7{fill:#3E4347;}
	.st8{fill:#4E99D2;}
	.st9{fill:#65B1EF;}
	.st10{fill:#FFDC97;}
	.st11{fill:#FFCD7D;}
	.st12{fill:#FFE9AB;}
	.st13{fill:#31373A;}
	.st14{fill:#8CC63E;}
	.st15{fill:#FFD93B;}
	.st16{fill:#F4C534;}
	.st17{fill:#59A5E0;}
	.st18{fill:#DEE4E9;}
	.st19{fill:#D3D9DD;}
	.st20{fill:#FFFFFF;}
	.st21{fill:#2AB4CD;}
	.st22{fill:#1DA9BF;}
	.st23{fill:#E9EFF4;}
	.st24{fill:#7FB239;}
	.st25{fill:#719D34;}
	.st26{opacity:0.5;}
	.st27{fill:#BBC7D1;}
	.st28{fill:#E84D88;}
	.st29{fill:#D23F77;}
	.st30{fill:#633B2A;}
	.st31{fill:#E9B02C;}
	.st32{fill:#38C0DC;}
	.st33{fill:#45CBEA;}
	.st34{fill:#5A5F63;}
	.st35{fill:#E18823;}
	.st36{fill:#CF7519;}
	.st37{fill:#428DC3;}
	.st38{fill:#8D9BA3;}
	.st39{fill:#7B8B92;}
	.st40{fill:#ACB9C1;}
	.st41{fill:#846144;}
	.st42{fill:#7A5B44;}
	.st43{fill:#6B503B;}
	.st44{fill:#F29A2E;}
	.st45{fill:#728389;}
	.st46{fill:#FFD68D;}
	.st47{fill:#8F6D52;}
	.st48{fill:#84939A;}
	.st49{opacity:0.1;}
	.st50{fill:#89664C;}
	.st51{opacity:0.15;}
	.st52{fill:#DE9C25;}
	.st53{fill:#2AB4CD;stroke:#FFFFFF;stroke-width:0.5;stroke-linecap:round;stroke-linejoin:round;stroke-miterlimit:10;}
	.st54{fill:#FC97B2;}
	.st55{fill:#E88EA7;}
	.st56{opacity:0.2;}
	.st57{fill:#BB3166;}
	.st58{opacity:0.35;}
	.st59{opacity:0.6;}
	.st60{fill:#F9D087;}
	.st61{fill:#A5856D;}
	.st62{fill:#5C4533;}
	.st63{fill:#9A795F;}
	.st64{fill:#512A1B;}
	.st65{fill:#492418;}
	.st66{fill:#BE630E;}
	.st67{fill:none;}
	.st68{opacity:0.5;fill:#E18823;}
	.st69{opacity:0.1;fill:#FFFFFF;}
	.st70{fill:#FCCB7C;}
	.st71{opacity:0.15;fill:#FFFFFF;}
	.st72{opacity:0.2;fill:#FFFFFF;}
	.st73{opacity:0.5;fill:#CBD6E0;}
</style>
<g>
	<g>
		<g>
			<g>
				<path class="st50" d="M18.4,3.7L18.4,3.7c0,0.2-0.2,0.4-0.4,0.4h-1.1v3.7h-0.8V4.1H15c-0.2,0-0.4-0.2-0.4-0.4v0
					c0-0.2,0.2-0.4,0.4-0.4h1.1V2.2c0-0.2,0.2-0.4,0.4-0.4c0.2,0,0.4,0.2,0.4,0.4v1.1H18C18.3,3.3,18.4,3.5,18.4,3.7z"/>
			</g>
		</g>
	</g>
	<g>
		<rect x="2.4" y="16.9" class="st1" width="28.2" height="14.2"/>
	</g>
	<g>
		<polygon class="st27" points="30.6,18.2 30.6,16.9 2.4,16.9 		"/>
	</g>
	<g>
		<rect x="2.4" y="28.9" class="st38" width="28.2" height="2.3"/>
	</g>
	<g>
		<path class="st2" d="M32.1,17H0.9c-0.2,0-0.4-0.2-0.3-0.5l0.9-3.1c0.1-0.2,0.2-0.3,0.4-0.3h29.4c0.2,0,0.4,0.1,0.4,0.3l0.9,3.1
			C32.6,16.7,32.4,17,32.1,17z"/>
	</g>
	<g>
		<path class="st3" d="M1.8,13.1h1.5c-0.2,0-0.3,0.1-0.4,0.3l-0.8,3.1c-0.1,0.2,0.1,0.5,0.3,0.5H0.9c-0.2,0-0.4-0.2-0.3-0.5l0.9-3.1
			C1.5,13.3,1.6,13.1,1.8,13.1z"/>
		<path class="st4" d="M32.1,16.9h-1.6c0.2,0,0.4-0.2,0.3-0.5l-0.8-3.1c0-0.2-0.2-0.3-0.4-0.3h1.5c0.2,0,0.3,0.1,0.4,0.3l0.9,3.1
			C32.6,16.7,32.4,16.9,32.1,16.9z"/>
	</g>
	<g>
		<g>
			<g>
				<path class="st20" d="M8.9,20.8v5c0,1-0.8,1.7-1.7,1.7c-1,0-1.7-0.8-1.7-1.7v-5c0-1,0.8-1.7,1.7-1.7C8.1,19.1,8.9,19.9,8.9,20.8
					z"/>
				<g>
					<path class="st22" d="M7.1,27.1c-0.7,0-1.2-0.6-1.2-1.2v-5c0-0.7,0.6-1.2,1.2-1.2s1.2,0.6,1.2,1.2v5
						C8.4,26.6,7.8,27.1,7.1,27.1z"/>
				</g>
			</g>
			<g class="st51">
				<path class="st20" d="M7.1,19.6c0,0-0.1,0-0.1,0l-1.1,4.7v1.6c0,0,0,0,0,0l1.5-6.3C7.3,19.6,7.2,19.6,7.1,19.6z"/>
				<path class="st20" d="M7.6,19.7L6,26.4c0.1,0.2,0.3,0.3,0.4,0.5l1.6-6.8C8,19.9,7.8,19.8,7.6,19.7z"/>
			</g>
		</g>
		<g>
			<g>
				<path class="st20" d="M27.6,20.8v5c0,1-0.8,1.7-1.7,1.7c-1,0-1.7-0.8-1.7-1.7v-5c0-1,0.8-1.7,1.7-1.7
					C26.8,19.1,27.6,19.9,27.6,20.8z"/>
				<g>
					<path class="st22" d="M25.9,27.1c-0.7,0-1.2-0.6-1.2-1.2v-5c0-0.7,0.6-1.2,1.2-1.2s1.2,0.6,1.2,1.2v5
						C27.1,26.6,26.6,27.1,25.9,27.1z"/>
				</g>
			</g>
			<g class="st51">
				<path class="st20" d="M25.9,19.6c0,0-0.1,0-0.1,0l-1.1,4.7v1.6c0,0,0,0,0,0l1.5-6.3C26,19.6,26,19.6,25.9,19.6z"/>
				<path class="st20" d="M26.4,19.7l-1.6,6.7c0.1,0.2,0.3,0.3,0.4,0.5l1.6-6.8C26.7,19.9,26.6,19.8,26.4,19.7z"/>
			</g>
		</g>
	</g>
	<g>
		<polygon class="st0" points="21.9,13.3 21.9,31.2 11.1,31.2 11.1,13.3 16.2,8.2 16.8,8.2 		"/>
	</g>
	<polygon class="st1" points="16.2,8.2 11.1,13.3 11.1,15.4 16.5,10 21.9,15.4 21.9,13.3 16.8,8.2 	"/>
	<g>
		<g>
			<rect x="12.8" y="20.2" class="st1" width="7.5" height="11"/>
		</g>
		<g>
			<path class="st7" d="M19,24.8v6.4H14v-6.4c0-0.7,0.3-1.3,0.7-1.7c0.5-0.4,1.1-0.7,1.7-0.7C17.9,22.3,19,23.5,19,24.8z"/>
		</g>
	</g>
	<g>
		<g>
			<path class="st7" d="M23.5,14.8c-0.4,0.4-1,0.4-1.4,0l-5.6-5.6l-5.6,5.6c-0.4,0.4-1,0.4-1.4,0c-0.4-0.4-0.4-1,0-1.4l6.3-6.3
				c0.4-0.4,1-0.4,1.4,0l6.3,6.3C23.9,13.8,23.9,14.4,23.5,14.8z"/>
		</g>
	</g>
	<g>
		<g>
			<circle class="st20" cx="16.5" cy="15.3" r="2.4"/>
		</g>
		<circle class="st22" cx="16.5" cy="15.3" r="1.9"/>
		<g class="st51">
			<path class="st20" d="M16.1,13.5l-1.2,2.8c0.1,0.1,0.2,0.2,0.2,0.3l1.3-3.2C16.3,13.5,16.2,13.5,16.1,13.5z"/>
			<path class="st20" d="M15.8,17.1l1.4-3.5c-0.2-0.1-0.3-0.1-0.5-0.1l-1.4,3.3C15.5,16.9,15.6,17,15.8,17.1z"/>
		</g>
	</g>
</g>
</svg>
