<?xml version="1.0" encoding="utf-8"?>
<!-- Generator: Adobe Illustrator 21.1.0, SVG Export Plug-In . SVG Version: 6.00 Build 0)  -->
<svg version="1.1" id="Layer_1" xmlns="http://www.w3.org/2000/svg" xmlns:xlink="http://www.w3.org/1999/xlink" x="0px" y="0px"
	 viewBox="0 0 33 33" style="enable-background:new 0 0 33 33;" xml:space="preserve">
<style type="text/css">
	.st0{fill:#DAE5EF;}
	.st1{fill:#CBD6E0;}
	.st2{fill:#D03F3F;}
	.st3{fill:#BF3333;}
	.st4{fill:#E24B4B;}
	.st5{fill:#6D4135;}
	.st6{fill:#5B331D;}
	.st7{fill:#3E4347;}
	.st8{fill:#4E99D2;}
	.st9{fill:#65B1EF;}
	.st10{fill:#FFDC97;}
	.st11{fill:#FFCD7D;}
	.st12{fill:#FFE9AB;}
	.st13{fill:#31373A;}
	.st14{fill:#8CC63E;}
	.st15{fill:#FFD93B;}
	.st16{fill:#F4C534;}
	.st17{fill:#59A5E0;}
	.st18{fill:#DEE4E9;}
	.st19{fill:#D3D9DD;}
	.st20{fill:#FFFFFF;}
	.st21{fill:#2AB4CD;}
	.st22{fill:#1DA9BF;}
	.st23{fill:#E9EFF4;}
	.st24{fill:#7FB239;}
	.st25{fill:#719D34;}
	.st26{opacity:0.5;}
	.st27{fill:#BBC7D1;}
	.st28{fill:#E84D88;}
	.st29{fill:#D23F77;}
	.st30{fill:#633B2A;}
	.st31{fill:#E9B02C;}
	.st32{fill:#38C0DC;}
	.st33{fill:#45CBEA;}
	.st34{fill:#5A5F63;}
	.st35{fill:#E18823;}
	.st36{fill:#CF7519;}
	.st37{fill:#428DC3;}
	.st38{fill:#8D9BA3;}
	.st39{fill:#7B8B92;}
	.st40{fill:#ACB9C1;}
	.st41{fill:#846144;}
	.st42{fill:#7A5B44;}
	.st43{fill:#6B503B;}
	.st44{fill:#F29A2E;}
	.st45{fill:#728389;}
	.st46{fill:#FFD68D;}
	.st47{fill:#8F6D52;}
	.st48{fill:#84939A;}
	.st49{opacity:0.1;}
	.st50{fill:#89664C;}
	.st51{opacity:0.15;}
	.st52{fill:#DE9C25;}
	.st53{fill:#2AB4CD;stroke:#FFFFFF;stroke-width:0.5;stroke-linecap:round;stroke-linejoin:round;stroke-miterlimit:10;}
	.st54{fill:#FC97B2;}
	.st55{fill:#E88EA7;}
	.st56{opacity:0.2;}
	.st57{fill:#BB3166;}
	.st58{opacity:0.35;}
	.st59{opacity:0.6;}
	.st60{fill:#F9D087;}
	.st61{fill:#A5856D;}
	.st62{fill:#5C4533;}
	.st63{fill:#9A795F;}
	.st64{fill:#512A1B;}
	.st65{fill:#492418;}
	.st66{fill:#BE630E;}
	.st67{fill:none;}
	.st68{opacity:0.5;fill:#E18823;}
	.st69{opacity:0.1;fill:#FFFFFF;}
	.st70{fill:#FCCB7C;}
	.st71{opacity:0.15;fill:#FFFFFF;}
	.st72{opacity:0.2;fill:#FFFFFF;}
	.st73{opacity:0.5;fill:#CBD6E0;}
</style>
<g>
	<g>
		<g>
			<polygon class="st31" points="30.6,27.6 30.6,14 16.5,10.3 2.4,14 2.4,27.6 			"/>
		</g>
		<polygon class="st52" points="2.4,14 2.4,16 16.5,12.3 30.6,16 30.6,14 16.5,10.3 		"/>
		<g>
			<rect x="1.7" y="27" class="st50" width="29.5" height="3"/>
		</g>
		<g>
			<g>
				<path class="st7" d="M31.1,15.3l-14.6-3.8L1.9,15.3c-0.6,0.2-1.2-0.2-1.4-0.8c-0.2-0.6,0.2-1.2,0.8-1.4l14.9-3.9
					c0.2,0,0.4,0,0.6,0l14.9,3.9c0.6,0.2,1,0.8,0.8,1.4C32.3,15.1,31.7,15.4,31.1,15.3z"/>
			</g>
		</g>
	</g>
	<g>
		<g>
			<g>
				<rect x="5.2" y="16.8" class="st53" width="3.1" height="3.2"/>
			</g>
			<g>
				<rect x="5.2" y="21.7" class="st53" width="3.1" height="3.2"/>
			</g>
		</g>
		<g>
			<g>
				<rect x="24.6" y="16.8" class="st53" width="3.1" height="3.2"/>
			</g>
			<g>
				<rect x="24.6" y="21.7" class="st53" width="3.1" height="3.2"/>
			</g>
		</g>
	</g>
	<g>
		<polygon class="st15" points="22.3,7.8 22.3,30.1 10.7,30.1 10.7,7.8 16.5,4.4 16.5,4.4 		"/>
	</g>
	<path class="st16" d="M10.7,7.8V10c0.4-0.1,5.5-3.7,5.8-3.9c0.3,0.2,5.5,3.8,5.8,3.9V7.8l-5.8-3.4L10.7,7.8z"/>
	<g>
		<rect x="12.3" y="18.2" class="st16" width="8.3" height="11.9"/>
	</g>
	<g>
		<path class="st7" d="M19.4,23.7v6.4h-5.8c0,0,0-6.3,0-6.4c0-1.6,1.3-2.9,2.9-2.9C18.1,20.8,19.4,22.1,19.4,23.7z"/>
	</g>
	<g>
		<g>
			<path class="st4" d="M23.9,9.1c-0.4,0.5-1.1,0.7-1.6,0.3l-5.8-3.9l-5.8,3.9c-0.5,0.3-1.2,0.2-1.6-0.3C8.8,8.6,8.9,7.9,9.4,7.5
				l6.4-4.4c0.4-0.3,0.9-0.3,1.3,0l6.4,4.4C24.1,7.9,24.2,8.6,23.9,9.1z"/>
		</g>
	</g>
	<g>
		<circle class="st52" cx="16.5" cy="13.2" r="3.1"/>
	</g>
	<g>
		<circle class="st20" cx="16.5" cy="13.2" r="2.5"/>
	</g>
	<g>
		<g>
			<path class="st7" d="M17.3,14c0,0-0.1,0.1-0.1,0.1c-0.1,0-0.1,0-0.1-0.1l-0.7-0.7c0,0-0.1-0.1-0.1-0.2v-1.4
				c0-0.1,0.1-0.2,0.2-0.2c0.1,0,0.2,0.1,0.2,0.2v1.3l0.6,0.6C17.4,13.8,17.4,14,17.3,14z"/>
		</g>
	</g>
</g>
</svg>
