<?xml version="1.0" encoding="utf-8"?>
<!-- Generator: Adobe Illustrator 21.1.0, SVG Export Plug-In . SVG Version: 6.00 Build 0)  -->
<svg version="1.1" id="Layer_1" xmlns="http://www.w3.org/2000/svg" xmlns:xlink="http://www.w3.org/1999/xlink" x="0px" y="0px"
	 viewBox="0 0 33 33" style="enable-background:new 0 0 33 33;" xml:space="preserve">
<style type="text/css">
	.st0{fill:#DAE5EF;}
	.st1{fill:#CBD6E0;}
	.st2{fill:#D03F3F;}
	.st3{fill:#BF3333;}
	.st4{fill:#E24B4B;}
	.st5{fill:#6D4135;}
	.st6{fill:#5B331D;}
	.st7{fill:#3E4347;}
	.st8{fill:#4E99D2;}
	.st9{fill:#65B1EF;}
	.st10{fill:#FFDC97;}
	.st11{fill:#FFCD7D;}
	.st12{fill:#FFE9AB;}
	.st13{fill:#31373A;}
	.st14{fill:#8CC63E;}
	.st15{fill:#FFD93B;}
	.st16{fill:#F4C534;}
	.st17{fill:#59A5E0;}
	.st18{fill:#DEE4E9;}
	.st19{fill:#D3D9DD;}
	.st20{fill:#FFFFFF;}
	.st21{fill:#2AB4CD;}
	.st22{fill:#1DA9BF;}
	.st23{fill:#E9EFF4;}
	.st24{fill:#7FB239;}
	.st25{fill:#719D34;}
	.st26{opacity:0.5;}
	.st27{fill:#BBC7D1;}
	.st28{fill:#E84D88;}
	.st29{fill:#D23F77;}
	.st30{fill:#633B2A;}
	.st31{fill:#E9B02C;}
	.st32{fill:#38C0DC;}
	.st33{fill:#45CBEA;}
	.st34{fill:#5A5F63;}
	.st35{fill:#E18823;}
	.st36{fill:#CF7519;}
	.st37{fill:#428DC3;}
	.st38{fill:#8D9BA3;}
	.st39{fill:#7B8B92;}
	.st40{fill:#ACB9C1;}
	.st41{fill:#846144;}
	.st42{fill:#7A5B44;}
	.st43{fill:#6B503B;}
	.st44{fill:#F29A2E;}
	.st45{fill:#728389;}
	.st46{fill:#FFD68D;}
	.st47{fill:#8F6D52;}
	.st48{fill:#84939A;}
	.st49{opacity:0.1;}
	.st50{fill:#89664C;}
	.st51{opacity:0.15;}
	.st52{fill:#DE9C25;}
	.st53{fill:#2AB4CD;stroke:#FFFFFF;stroke-width:0.5;stroke-linecap:round;stroke-linejoin:round;stroke-miterlimit:10;}
	.st54{fill:#FC97B2;}
	.st55{fill:#E88EA7;}
	.st56{opacity:0.2;}
	.st57{fill:#BB3166;}
	.st58{opacity:0.35;}
	.st59{opacity:0.6;}
	.st60{fill:#F9D087;}
	.st61{fill:#A5856D;}
	.st62{fill:#5C4533;}
	.st63{fill:#9A795F;}
	.st64{fill:#512A1B;}
	.st65{fill:#492418;}
	.st66{fill:#BE630E;}
	.st67{fill:none;}
	.st68{opacity:0.5;fill:#E18823;}
	.st69{opacity:0.1;fill:#FFFFFF;}
	.st70{fill:#FCCB7C;}
	.st71{opacity:0.15;fill:#FFFFFF;}
	.st72{opacity:0.2;fill:#FFFFFF;}
	.st73{opacity:0.5;fill:#CBD6E0;}
</style>
<g>
	<g>
		<rect x="1.8" y="9.6" class="st0" width="29.4" height="21.1"/>
	</g>
	<g>
		<rect x="1.8" y="27.5" class="st1" width="29.4" height="3.2"/>
	</g>
	<g>
		<g>
			<path class="st1" d="M5.9,10c0,0.2-0.2,0.4-0.4,0.4H3.8c-0.2,0-0.4-0.2-0.4-0.4c0-0.2,0.2-0.4,0.4-0.4h1.7
				C5.7,9.6,5.9,9.8,5.9,10z"/>
			<path class="st1" d="M5.9,25.6c0,0.2-0.2,0.4-0.4,0.4H3.8c-0.2,0-0.4-0.2-0.4-0.4c0-0.2,0.2-0.4,0.4-0.4h1.7
				C5.7,25.2,5.9,25.3,5.9,25.6z"/>
			<g>
				<rect x="3.8" y="10.3" class="st27" width="1.7" height="14.8"/>
			</g>
			<g>
				<path class="st27" d="M6.1,26.3v1.2h-3v-1.2c0-0.2,0.2-0.4,0.4-0.4h2.2C6,25.9,6.1,26.1,6.1,26.3z"/>
			</g>
		</g>
		<g>
			<path class="st1" d="M29.6,10c0,0.2-0.2,0.4-0.4,0.4h-1.7c-0.2,0-0.4-0.2-0.4-0.4c0-0.2,0.2-0.4,0.4-0.4h1.7
				C29.4,9.6,29.6,9.8,29.6,10z"/>
			<path class="st1" d="M29.6,25.6c0,0.2-0.2,0.4-0.4,0.4h-1.7c-0.2,0-0.4-0.2-0.4-0.4c0-0.2,0.2-0.4,0.4-0.4h1.7
				C29.5,25.2,29.6,25.3,29.6,25.6z"/>
			<g>
				<rect x="27.5" y="10.3" class="st27" width="1.7" height="14.8"/>
			</g>
			<g>
				<path class="st27" d="M29.9,26.3v1.2h-3v-1.2c0-0.2,0.2-0.4,0.4-0.4h2.2C29.7,25.9,29.9,26.1,29.9,26.3z"/>
			</g>
		</g>
	</g>
	<g>
		<g>
			<rect x="13" y="18.8" class="st27" width="7.1" height="8.7"/>
		</g>
		<g>
			<path class="st7" d="M18.9,22.8v4.7h-4.7v-4.7c0-0.6,0.3-1.2,0.7-1.7c0.4-0.4,1-0.7,1.7-0.7C17.8,20.5,18.9,21.5,18.9,22.8z"/>
		</g>
	</g>
	<g>
		<g>
			<g>
				<g>
					<path class="st7" d="M10.4,12.3v5.2c0,0.2-0.2,0.3-0.3,0.3H7.1c-0.2,0-0.3-0.2-0.3-0.3v-5.2c0-0.2,0.2-0.3,0.3-0.3H10
						C10.2,11.9,10.4,12.1,10.4,12.3z"/>
					<g>
						<rect x="7.3" y="12.4" class="st15" width="2.6" height="1.5"/>
						<rect x="7.3" y="14.4" class="st15" width="2.6" height="2.9"/>
					</g>
				</g>
			</g>
			<g>
				<g>
					<path class="st7" d="M15.7,12.3v5.2c0,0.2-0.2,0.3-0.3,0.3h-2.9c-0.2,0-0.3-0.2-0.3-0.3v-5.2c0-0.2,0.2-0.3,0.3-0.3h2.9
						C15.5,11.9,15.7,12.1,15.7,12.3z"/>
					<g>
						<rect x="12.5" y="12.4" class="st15" width="2.6" height="1.5"/>
						<rect x="12.5" y="14.4" class="st15" width="2.6" height="2.9"/>
					</g>
				</g>
			</g>
			<g>
				<g>
					<path class="st7" d="M21,12.3v5.2c0,0.2-0.2,0.3-0.3,0.3h-2.9c-0.2,0-0.3-0.2-0.3-0.3v-5.2c0-0.2,0.2-0.3,0.3-0.3h2.9
						C20.8,11.9,21,12.1,21,12.3z"/>
					<g>
						<rect x="17.8" y="12.4" class="st15" width="2.6" height="1.5"/>
						<rect x="17.8" y="14.4" class="st15" width="2.6" height="2.9"/>
					</g>
				</g>
			</g>
			<g>
				<g>
					<path class="st7" d="M26.2,12.3v5.2c0,0.2-0.2,0.3-0.3,0.3H23c-0.2,0-0.3-0.2-0.3-0.3v-5.2c0-0.2,0.2-0.3,0.3-0.3h2.9
						C26.1,11.9,26.2,12.1,26.2,12.3z"/>
					<g>
						<rect x="23.1" y="12.4" class="st15" width="2.6" height="1.5"/>
						<rect x="23.1" y="14.4" class="st15" width="2.6" height="2.9"/>
					</g>
				</g>
			</g>
		</g>
		<g>
			<g>
				<g>
					<path class="st7" d="M11.4,20.1v5.2c0,0.2-0.2,0.3-0.3,0.3H7.1c-0.2,0-0.3-0.2-0.3-0.3v-5.2c0-0.2,0.2-0.3,0.3-0.3H11
						C11.2,19.7,11.4,19.9,11.4,20.1z"/>
					<g>
						<rect x="7.3" y="20.2" class="st15" width="3.6" height="1.5"/>
						<rect x="7.3" y="22.2" class="st15" width="3.6" height="2.9"/>
					</g>
				</g>
			</g>
			<g>
				<g>
					<path class="st7" d="M26.2,20.1v5.2c0,0.2-0.2,0.3-0.3,0.3H22c-0.2,0-0.3-0.2-0.3-0.3v-5.2c0-0.2,0.2-0.3,0.3-0.3h3.9
						C26.1,19.7,26.2,19.9,26.2,20.1z"/>
					<g>
						<rect x="22.1" y="20.2" class="st15" width="3.6" height="1.5"/>
						<rect x="22.1" y="22.2" class="st15" width="3.6" height="2.9"/>
					</g>
				</g>
			</g>
		</g>
	</g>
	<g>
		<rect x="3.9" y="5.4" class="st1" width="25.1" height="1.6"/>
	</g>
	<g>
		<rect x="9.1" y="2.3" class="st50" width="14.9" height="5.4"/>
	</g>
	<g>
		<rect x="0.5" y="7" class="st7" width="32" height="2.6"/>
	</g>
	<g>
		<path class="st20" d="M10.8,5.6V3.7h0.4v1.6h1v0.3H10.8z"/>
		<path class="st20" d="M12.4,5.6V3.7h0.4v1.9H12.4z"/>
		<path class="st20" d="M13.1,3.7h0.8c0.1,0,0.3,0,0.3,0c0.1,0,0.1,0,0.2,0.1c0.1,0,0.1,0.1,0.1,0.2s0.1,0.1,0.1,0.2
			c0,0.1,0,0.2-0.1,0.2c0,0.1-0.1,0.1-0.2,0.2c0.1,0,0.2,0.1,0.3,0.2c0.1,0.1,0.1,0.2,0.1,0.3c0,0.1,0,0.2-0.1,0.3
			c0,0.1-0.1,0.1-0.2,0.2c-0.1,0-0.2,0.1-0.3,0.1c-0.1,0-0.2,0-0.5,0h-0.6V3.7z M13.5,4v0.4h0.3c0.1,0,0.2,0,0.3,0
			c0.1,0,0.1,0,0.2-0.1s0.1-0.1,0.1-0.1c0-0.1,0-0.1,0-0.1c0,0-0.1-0.1-0.1-0.1c0,0-0.1,0-0.3,0H13.5z M13.5,4.8v0.5h0.4
			c0.1,0,0.2,0,0.3,0c0.1,0,0.1,0,0.1-0.1c0,0,0.1-0.1,0.1-0.2c0-0.1,0-0.1,0-0.1c0,0-0.1-0.1-0.1-0.1s-0.2,0-0.3,0H13.5z"/>
		<path class="st20" d="M15,5.6V3.7h0.8c0.2,0,0.3,0,0.4,0.1c0.1,0,0.2,0.1,0.2,0.2s0.1,0.2,0.1,0.3c0,0.1,0,0.3-0.1,0.4
			c-0.1,0.1-0.2,0.2-0.4,0.2c0.1,0,0.2,0.1,0.2,0.2c0.1,0.1,0.1,0.2,0.2,0.3l0.2,0.4h-0.5L16,5.2C15.9,5,15.8,5,15.8,4.9
			c0,0-0.1-0.1-0.1-0.1c0,0-0.1,0-0.2,0h-0.1v0.8H15z M15.4,4.5h0.3c0.2,0,0.3,0,0.3,0c0,0,0.1,0,0.1-0.1c0,0,0-0.1,0-0.1
			c0-0.1,0-0.1-0.1-0.2c0,0-0.1-0.1-0.1-0.1c0,0-0.1,0-0.3,0h-0.3V4.5z"/>
		<path class="st20" d="M18.6,5.6h-0.4l-0.2-0.4h-0.8l-0.2,0.4h-0.4l0.7-1.9h0.4L18.6,5.6z M17.9,4.9l-0.3-0.7l-0.3,0.7H17.9z"/>
		<path class="st20" d="M18.8,5.6V3.7h0.8c0.2,0,0.3,0,0.4,0.1s0.2,0.1,0.2,0.2s0.1,0.2,0.1,0.3c0,0.1,0,0.3-0.1,0.4
			s-0.2,0.2-0.4,0.2c0.1,0,0.2,0.1,0.2,0.2s0.1,0.2,0.2,0.3l0.2,0.4h-0.5l-0.3-0.4C19.7,5,19.6,5,19.6,4.9s-0.1-0.1-0.1-0.1
			c0,0-0.1,0-0.2,0h-0.1v0.8H18.8z M19.2,4.5h0.3c0.2,0,0.3,0,0.3,0s0.1,0,0.1-0.1c0,0,0-0.1,0-0.1c0-0.1,0-0.1-0.1-0.2
			c0,0-0.1-0.1-0.1-0.1c0,0-0.1,0-0.3,0h-0.3V4.5z"/>
		<path class="st20" d="M21.2,5.6V4.8l-0.7-1.1h0.4l0.4,0.7l0.4-0.7h0.4l-0.7,1.1v0.8H21.2z"/>
	</g>
</g>
</svg>
