<?xml version="1.0" encoding="utf-8"?>
<!-- Generator: Adobe Illustrator 21.1.0, SVG Export Plug-In . SVG Version: 6.00 Build 0)  -->
<svg version="1.1" id="Layer_1" xmlns="http://www.w3.org/2000/svg" xmlns:xlink="http://www.w3.org/1999/xlink" x="0px" y="0px"
	 viewBox="0 0 33 33" style="enable-background:new 0 0 33 33;" xml:space="preserve">
<style type="text/css">
	.st0{fill:#DAE5EF;}
	.st1{fill:#CBD6E0;}
	.st2{fill:#D03F3F;}
	.st3{fill:#BF3333;}
	.st4{fill:#E24B4B;}
	.st5{fill:#6D4135;}
	.st6{fill:#5B331D;}
	.st7{fill:#3E4347;}
	.st8{fill:#4E99D2;}
	.st9{fill:#65B1EF;}
	.st10{fill:#FFDC97;}
	.st11{fill:#FFCD7D;}
	.st12{fill:#FFE9AB;}
	.st13{fill:#31373A;}
	.st14{fill:#8CC63E;}
	.st15{fill:#FFD93B;}
	.st16{fill:#F4C534;}
	.st17{fill:#59A5E0;}
	.st18{fill:#DEE4E9;}
	.st19{fill:#D3D9DD;}
	.st20{fill:#FFFFFF;}
	.st21{fill:#2AB4CD;}
	.st22{fill:#1DA9BF;}
	.st23{fill:#E9EFF4;}
	.st24{fill:#7FB239;}
	.st25{fill:#719D34;}
	.st26{opacity:0.5;}
	.st27{fill:#BBC7D1;}
	.st28{fill:#E84D88;}
	.st29{fill:#D23F77;}
	.st30{fill:#633B2A;}
	.st31{fill:#E9B02C;}
	.st32{fill:#38C0DC;}
	.st33{fill:#45CBEA;}
	.st34{fill:#5A5F63;}
	.st35{fill:#E18823;}
	.st36{fill:#CF7519;}
	.st37{fill:#428DC3;}
	.st38{fill:#8D9BA3;}
	.st39{fill:#7B8B92;}
	.st40{fill:#ACB9C1;}
	.st41{fill:#846144;}
	.st42{fill:#7A5B44;}
	.st43{fill:#6B503B;}
	.st44{fill:#F29A2E;}
	.st45{fill:#728389;}
	.st46{fill:#FFD68D;}
	.st47{fill:#8F6D52;}
	.st48{fill:#84939A;}
	.st49{opacity:0.1;}
	.st50{fill:#89664C;}
	.st51{opacity:0.15;}
	.st52{fill:#DE9C25;}
	.st53{fill:#2AB4CD;stroke:#FFFFFF;stroke-width:0.5;stroke-linecap:round;stroke-linejoin:round;stroke-miterlimit:10;}
	.st54{fill:#FC97B2;}
	.st55{fill:#E88EA7;}
	.st56{opacity:0.2;}
	.st57{fill:#BB3166;}
	.st58{opacity:0.35;}
	.st59{opacity:0.6;}
	.st60{fill:#F9D087;}
	.st61{fill:#A5856D;}
	.st62{fill:#5C4533;}
	.st63{fill:#9A795F;}
	.st64{fill:#512A1B;}
	.st65{fill:#492418;}
	.st66{fill:#BE630E;}
	.st67{fill:none;}
	.st68{opacity:0.5;fill:#E18823;}
	.st69{opacity:0.1;fill:#FFFFFF;}
	.st70{fill:#FCCB7C;}
	.st71{opacity:0.15;fill:#FFFFFF;}
	.st72{opacity:0.2;fill:#FFFFFF;}
	.st73{opacity:0.5;fill:#CBD6E0;}
</style>
<g>
	<g>
		<g>
			<rect x="2" y="8.2" class="st54" width="29" height="17.6"/>
		</g>
		<g>
			<rect x="2" y="24.9" class="st1" width="29" height="3.2"/>
		</g>
		<g>
			<path class="st23" d="M1.4,11.1L1.4,11.1c0,0.3,0.2,0.5,0.5,0.5h29.2c0.3,0,0.5-0.2,0.5-0.5v0c0-0.3-0.2-0.5-0.5-0.5H1.9
				C1.6,10.6,1.4,10.8,1.4,11.1z"/>
		</g>
		<g>
			<polygon class="st55" points="31,9.3 31,8.2 2,8.2 			"/>
		</g>
		<g>
			<rect x="0.5" y="4.9" class="st7" width="32" height="3.4"/>
		</g>
	</g>
	<g>
		<g>
			<path class="st20" d="M9,13.5v9.3c0,0.2-0.1,0.3-0.3,0.3H5c-0.2,0-0.3-0.1-0.3-0.3v-9.3c0-0.2,0.1-0.3,0.3-0.3h3.7
				C8.9,13.2,9,13.3,9,13.5z"/>
			<rect x="5.3" y="13.8" class="st9" width="3.1" height="8.6"/>
			<g class="st56">
				<polygon class="st20" points="5.3,18.2 7.4,13.8 7,13.8 5.3,17.3 				"/>
				<polygon class="st20" points="5.3,18.9 5.3,20.7 8.4,14.4 8.4,13.8 7.8,13.8 				"/>
			</g>
		</g>
		<g>
			<path class="st20" d="M28.3,13.5v9.3c0,0.2-0.1,0.3-0.3,0.3h-3.7c-0.2,0-0.3-0.1-0.3-0.3v-9.3c0-0.2,0.1-0.3,0.3-0.3H28
				C28.1,13.2,28.3,13.3,28.3,13.5z"/>
			<rect x="24.6" y="13.8" class="st9" width="3.1" height="8.6"/>
			<g class="st56">
				<polygon class="st20" points="24.6,18.2 26.7,13.8 26.3,13.8 24.6,17.3 				"/>
				<polygon class="st20" points="24.6,18.9 24.6,20.7 27.7,14.4 27.7,13.8 27.1,13.8 				"/>
			</g>
		</g>
	</g>
	<g>
		<rect x="12.1" y="13.2" class="st23" width="8.8" height="13"/>
		<g>
			<rect x="11.4" y="25.6" class="st48" width="10.1" height="1.6"/>
		</g>
	</g>
	<g>
		<g>
			<rect x="13.2" y="15.1" class="st34" width="6.5" height="10.6"/>
			<g>
				<rect x="13.8" y="15.6" class="st7" width="5.4" height="5.5"/>
				<rect x="13.8" y="21.8" class="st7" width="5.4" height="3.3"/>
			</g>
		</g>
		<g>
			<circle class="st34" cx="18.1" cy="20" r="0.3"/>
		</g>
	</g>
	<g>
		<g>
			<rect x="10.7" y="26.9" class="st38" width="11.5" height="1.2"/>
		</g>
	</g>
</g>
</svg>
