<?xml version="1.0" encoding="utf-8"?>
<!-- Generator: Adobe Illustrator 21.1.0, SVG Export Plug-In . SVG Version: 6.00 Build 0)  -->
<svg version="1.1" id="Layer_1" xmlns="http://www.w3.org/2000/svg" xmlns:xlink="http://www.w3.org/1999/xlink" x="0px" y="0px"
	 viewBox="0 0 33 33" style="enable-background:new 0 0 33 33;" xml:space="preserve">
<style type="text/css">
	.st0{fill:#DAE5EF;}
	.st1{fill:#CBD6E0;}
	.st2{fill:#D03F3F;}
	.st3{fill:#BF3333;}
	.st4{fill:#E24B4B;}
	.st5{fill:#6D4135;}
	.st6{fill:#5B331D;}
	.st7{fill:#3E4347;}
	.st8{fill:#4E99D2;}
	.st9{fill:#65B1EF;}
	.st10{fill:#FFDC97;}
	.st11{fill:#FFCD7D;}
	.st12{fill:#FFE9AB;}
	.st13{fill:#31373A;}
	.st14{fill:#8CC63E;}
	.st15{fill:#FFD93B;}
	.st16{fill:#F4C534;}
	.st17{fill:#59A5E0;}
	.st18{fill:#DEE4E9;}
	.st19{fill:#D3D9DD;}
	.st20{fill:#FFFFFF;}
	.st21{fill:#2AB4CD;}
	.st22{fill:#1DA9BF;}
	.st23{fill:#E9EFF4;}
	.st24{fill:#7FB239;}
	.st25{fill:#719D34;}
	.st26{opacity:0.5;}
	.st27{fill:#BBC7D1;}
	.st28{fill:#E84D88;}
	.st29{fill:#D23F77;}
	.st30{fill:#633B2A;}
	.st31{fill:#E9B02C;}
	.st32{fill:#38C0DC;}
	.st33{fill:#45CBEA;}
	.st34{fill:#5A5F63;}
	.st35{fill:#E18823;}
	.st36{fill:#CF7519;}
	.st37{fill:#428DC3;}
	.st38{fill:#8D9BA3;}
	.st39{fill:#7B8B92;}
	.st40{fill:#ACB9C1;}
	.st41{fill:#846144;}
	.st42{fill:#7A5B44;}
	.st43{fill:#6B503B;}
	.st44{fill:#F29A2E;}
	.st45{fill:#728389;}
	.st46{fill:#FFD68D;}
	.st47{fill:#8F6D52;}
	.st48{fill:#84939A;}
	.st49{opacity:0.1;}
	.st50{fill:#89664C;}
	.st51{opacity:0.15;}
	.st52{fill:#DE9C25;}
	.st53{fill:#2AB4CD;stroke:#FFFFFF;stroke-width:0.5;stroke-linecap:round;stroke-linejoin:round;stroke-miterlimit:10;}
	.st54{fill:#FC97B2;}
	.st55{fill:#E88EA7;}
	.st56{opacity:0.2;}
	.st57{fill:#BB3166;}
	.st58{opacity:0.35;}
	.st59{opacity:0.6;}
	.st60{fill:#F9D087;}
	.st61{fill:#A5856D;}
	.st62{fill:#5C4533;}
	.st63{fill:#9A795F;}
	.st64{fill:#512A1B;}
	.st65{fill:#492418;}
	.st66{fill:#BE630E;}
	.st67{fill:none;}
	.st68{opacity:0.5;fill:#E18823;}
	.st69{opacity:0.1;fill:#FFFFFF;}
	.st70{fill:#FCCB7C;}
	.st71{opacity:0.15;fill:#FFFFFF;}
	.st72{opacity:0.2;fill:#FFFFFF;}
	.st73{opacity:0.5;fill:#CBD6E0;}
</style>
<g>
	<g>
		<rect x="6.7" y="8.5" class="st15" width="19.6" height="22.6"/>
	</g>
	<g>
		<path class="st14" d="M28.5,31.8L28.5,31.8c0-0.4-0.3-0.7-0.7-0.7H5.2c-0.4,0-0.7,0.3-0.7,0.7v0c0,0.4,0.3,0.7,0.7,0.7h22.6
			C28.2,32.5,28.5,32.2,28.5,31.8z"/>
	</g>
	<g>
		<g>
			<rect x="6.7" y="29.5" class="st42" width="19.6" height="1.6"/>
		</g>
	</g>
	<g>
		<g>
			<g>
				<path class="st34" d="M5.6,6.9L5,10.5c-0.1,0.4,0.2,0.7,0.6,0.7h21.9c0.4,0,0.6-0.3,0.6-0.7l-0.7-3.5c0-0.3-0.3-0.5-0.6-0.5H6.2
					C5.9,6.5,5.7,6.7,5.6,6.9z"/>
			</g>
		</g>
	</g>
	<g>
		<g>
			<g>
				<polygon class="st15" points="20.6,12.8 20.6,5.3 16.5,1.2 12.4,5.3 12.4,12.8 				"/>
			</g>
		</g>
		<g>
			<g>
				<g>
					<path class="st4" d="M21.6,6.2c-0.3,0.3-0.7,0.2-0.9,0L16.5,2l-4.2,4.2c-0.2,0.2-0.6,0.2-0.9,0c-0.2-0.2-0.2-0.6,0-0.9l4.7-4.7
						c0.2-0.2,0.6-0.2,0.9,0l4.7,4.7C21.8,5.6,21.8,6,21.6,6.2z"/>
				</g>
			</g>
		</g>
	</g>
	<g>
		<g>
			<g>
				<g>
					<g>
						<path class="st36" d="M11.5,14.2l0,3H8.8v-3.1c0-0.9,0.8-1.6,1.7-1.3C11.1,13,11.5,13.6,11.5,14.2z"/>
						<path class="st20" d="M11.5,17.3H8.8c-0.1,0-0.1,0-0.1-0.1v-3.1c0-0.5,0.2-0.9,0.6-1.2c0.4-0.3,0.8-0.4,1.3-0.3
							c0.6,0.2,1.1,0.8,1.1,1.5v3C11.6,17.3,11.6,17.3,11.5,17.3z M8.9,17.1h2.5v-2.9c0-0.6-0.4-1.1-0.9-1.3c-0.4-0.1-0.8,0-1.1,0.2
							c-0.3,0.2-0.5,0.6-0.5,1V17.1z"/>
					</g>
				</g>
				<g>
					<g>
						<g>
							<rect x="8.8" y="16.1" class="st20" width="2.7" height="0.2"/>
						</g>
					</g>
					<g>
						<g>
							<rect x="8.8" y="14.9" class="st20" width="2.7" height="0.2"/>
						</g>
					</g>
					<g>
						<g>
							<rect x="8.8" y="13.8" class="st20" width="2.7" height="0.2"/>
						</g>
					</g>
					<g>
						<g>
							<line class="st36" x1="10.1" y1="12.8" x2="10.1" y2="17.2"/>
							<rect x="10" y="12.8" class="st20" width="0.2" height="4.4"/>
						</g>
					</g>
				</g>
			</g>
			<g>
				<g>
					<g>
						<path class="st36" d="M15.7,14.2l0,3H13v-3.1c0-0.9,0.8-1.6,1.7-1.3C15.3,13,15.7,13.6,15.7,14.2z"/>
						<path class="st20" d="M15.7,17.3H13c-0.1,0-0.1,0-0.1-0.1v-3.1c0-0.5,0.2-0.9,0.6-1.2c0.4-0.3,0.8-0.4,1.3-0.3
							c0.6,0.2,1.1,0.8,1.1,1.5v3C15.9,17.3,15.8,17.3,15.7,17.3z M13.1,17.1h2.5v-2.9c0-0.6-0.4-1.1-0.9-1.3
							c-0.4-0.1-0.8,0-1.1,0.2c-0.3,0.2-0.5,0.6-0.5,1V17.1z"/>
					</g>
				</g>
				<g>
					<g>
						<g>
							<rect x="13" y="16.1" class="st20" width="2.7" height="0.2"/>
						</g>
					</g>
					<g>
						<g>
							<rect x="13" y="14.9" class="st20" width="2.7" height="0.2"/>
						</g>
					</g>
					<g>
						<g>
							<rect x="13" y="13.8" class="st20" width="2.7" height="0.2"/>
						</g>
					</g>
					<g>
						<g>
							<line class="st36" x1="14.4" y1="12.8" x2="14.4" y2="17.2"/>
							<rect x="14.3" y="12.8" class="st20" width="0.2" height="4.4"/>
						</g>
					</g>
				</g>
			</g>
			<g>
				<g>
					<g>
						<path class="st36" d="M20,14.2l0,3h-2.7v-3.1c0-0.9,0.8-1.6,1.7-1.3C19.6,13,20,13.6,20,14.2z"/>
						<path class="st20" d="M20,17.3h-2.7c-0.1,0-0.1,0-0.1-0.1v-3.1c0-0.5,0.2-0.9,0.6-1.2c0.4-0.3,0.8-0.4,1.3-0.3
							c0.6,0.2,1.1,0.8,1.1,1.5v3C20.1,17.3,20,17.3,20,17.3z M17.4,17.1h2.5v-2.9c0-0.6-0.4-1.1-0.9-1.3c-0.4-0.1-0.8,0-1.1,0.2
							c-0.3,0.2-0.5,0.6-0.5,1V17.1z"/>
					</g>
				</g>
				<g>
					<g>
						<g>
							<rect x="17.3" y="16.1" class="st20" width="2.7" height="0.2"/>
						</g>
					</g>
					<g>
						<g>
							<rect x="17.3" y="14.9" class="st20" width="2.7" height="0.2"/>
						</g>
					</g>
					<g>
						<g>
							<rect x="17.3" y="13.8" class="st20" width="2.7" height="0.2"/>
						</g>
					</g>
					<g>
						<g>
							<line class="st36" x1="18.6" y1="12.8" x2="18.6" y2="17.2"/>
							<rect x="18.5" y="12.8" class="st20" width="0.2" height="4.4"/>
						</g>
					</g>
				</g>
			</g>
			<g>
				<g>
					<g>
						<path class="st36" d="M24.2,14.2l0,3h-2.7v-3.1c0-0.9,0.8-1.6,1.7-1.3C23.8,13,24.2,13.6,24.2,14.2z"/>
						<path class="st20" d="M24.2,17.3h-2.7c-0.1,0-0.1,0-0.1-0.1v-3.1c0-0.5,0.2-0.9,0.6-1.2c0.4-0.3,0.8-0.4,1.3-0.3
							c0.6,0.2,1.1,0.8,1.1,1.5v3C24.3,17.3,24.3,17.3,24.2,17.3z M21.6,17.1h2.5v-2.9c0-0.6-0.4-1.1-0.9-1.3
							c-0.4-0.1-0.8,0-1.1,0.2c-0.3,0.2-0.5,0.6-0.5,1V17.1z"/>
					</g>
				</g>
				<g>
					<g>
						<g>
							<rect x="21.5" y="16.1" class="st20" width="2.7" height="0.2"/>
						</g>
					</g>
					<g>
						<g>
							<rect x="21.5" y="14.9" class="st20" width="2.7" height="0.2"/>
						</g>
					</g>
					<g>
						<g>
							<rect x="21.5" y="13.8" class="st20" width="2.7" height="0.2"/>
						</g>
					</g>
					<g>
						<g>
							<line class="st36" x1="22.9" y1="12.8" x2="22.9" y2="17.2"/>
							<rect x="22.8" y="12.8" class="st20" width="0.2" height="4.4"/>
						</g>
					</g>
				</g>
			</g>
		</g>
		<g>
			<g>
				<g>
					<g>
						<path class="st36" d="M11.5,20.3l0,3H8.8v-3.1c0-0.9,0.8-1.6,1.7-1.3C11.1,19.1,11.5,19.7,11.5,20.3z"/>
						<path class="st20" d="M11.5,23.4H8.8c-0.1,0-0.1,0-0.1-0.1v-3.1c0-0.5,0.2-0.9,0.6-1.2c0.4-0.3,0.8-0.4,1.3-0.3
							c0.6,0.2,1.1,0.8,1.1,1.5v3C11.6,23.4,11.6,23.4,11.5,23.4z M8.9,23.2h2.5v-2.9c0-0.6-0.4-1.1-0.9-1.3c-0.4-0.1-0.8,0-1.1,0.2
							c-0.3,0.2-0.5,0.6-0.5,1V23.2z"/>
					</g>
				</g>
				<g>
					<g>
						<g>
							<rect x="8.8" y="22.2" class="st20" width="2.7" height="0.2"/>
						</g>
					</g>
					<g>
						<g>
							<rect x="8.8" y="21.1" class="st20" width="2.7" height="0.2"/>
						</g>
					</g>
					<g>
						<g>
							<rect x="8.8" y="19.9" class="st20" width="2.7" height="0.2"/>
						</g>
					</g>
					<g>
						<g>
							<line class="st36" x1="10.1" y1="18.9" x2="10.1" y2="23.3"/>
							<rect x="10" y="18.9" class="st20" width="0.2" height="4.4"/>
						</g>
					</g>
				</g>
			</g>
			<g>
				<g>
					<g>
						<path class="st36" d="M15.7,20.3l0,3H13v-3.1c0-0.9,0.8-1.6,1.7-1.3C15.3,19.1,15.7,19.7,15.7,20.3z"/>
						<path class="st20" d="M15.7,23.4H13c-0.1,0-0.1,0-0.1-0.1v-3.1c0-0.5,0.2-0.9,0.6-1.2c0.4-0.3,0.8-0.4,1.3-0.3
							c0.6,0.2,1.1,0.8,1.1,1.5v3C15.9,23.4,15.8,23.4,15.7,23.4z M13.1,23.2h2.5v-2.9c0-0.6-0.4-1.1-0.9-1.3
							c-0.4-0.1-0.8,0-1.1,0.2c-0.3,0.2-0.5,0.6-0.5,1V23.2z"/>
					</g>
				</g>
				<g>
					<g>
						<g>
							<rect x="13" y="22.2" class="st20" width="2.7" height="0.2"/>
						</g>
					</g>
					<g>
						<g>
							<rect x="13" y="21.1" class="st20" width="2.7" height="0.2"/>
						</g>
					</g>
					<g>
						<g>
							<rect x="13" y="19.9" class="st20" width="2.7" height="0.2"/>
						</g>
					</g>
					<g>
						<g>
							<line class="st36" x1="14.4" y1="18.9" x2="14.4" y2="23.3"/>
							<rect x="14.3" y="18.9" class="st20" width="0.2" height="4.4"/>
						</g>
					</g>
				</g>
			</g>
			<g>
				<g>
					<g>
						<path class="st36" d="M20,20.3l0,3h-2.7v-3.1c0-0.9,0.8-1.6,1.7-1.3C19.6,19.1,20,19.7,20,20.3z"/>
						<path class="st20" d="M20,23.4h-2.7c-0.1,0-0.1,0-0.1-0.1v-3.1c0-0.5,0.2-0.9,0.6-1.2c0.4-0.3,0.8-0.4,1.3-0.3
							c0.6,0.2,1.1,0.8,1.1,1.5v3C20.1,23.4,20,23.4,20,23.4z M17.4,23.2h2.5v-2.9c0-0.6-0.4-1.1-0.9-1.3c-0.4-0.1-0.8,0-1.1,0.2
							c-0.3,0.2-0.5,0.6-0.5,1V23.2z"/>
					</g>
				</g>
				<g>
					<g>
						<g>
							<rect x="17.3" y="22.2" class="st20" width="2.7" height="0.2"/>
						</g>
					</g>
					<g>
						<g>
							<rect x="17.3" y="21.1" class="st20" width="2.7" height="0.2"/>
						</g>
					</g>
					<g>
						<g>
							<rect x="17.3" y="19.9" class="st20" width="2.7" height="0.2"/>
						</g>
					</g>
					<g>
						<g>
							<line class="st36" x1="18.6" y1="18.9" x2="18.6" y2="23.3"/>
							<rect x="18.5" y="18.9" class="st20" width="0.2" height="4.4"/>
						</g>
					</g>
				</g>
			</g>
			<g>
				<g>
					<g>
						<path class="st36" d="M24.2,20.3l0,3h-2.7v-3.1c0-0.9,0.8-1.6,1.7-1.3C23.8,19.1,24.2,19.7,24.2,20.3z"/>
						<path class="st20" d="M24.2,23.4h-2.7c-0.1,0-0.1,0-0.1-0.1v-3.1c0-0.5,0.2-0.9,0.6-1.2c0.4-0.3,0.8-0.4,1.3-0.3
							c0.6,0.2,1.1,0.8,1.1,1.5v3C24.3,23.4,24.3,23.4,24.2,23.4z M21.6,23.2h2.5v-2.9c0-0.6-0.4-1.1-0.9-1.3
							c-0.4-0.1-0.8,0-1.1,0.2c-0.3,0.2-0.5,0.6-0.5,1V23.2z"/>
					</g>
				</g>
				<g>
					<g>
						<g>
							<rect x="21.5" y="22.2" class="st20" width="2.7" height="0.2"/>
						</g>
					</g>
					<g>
						<g>
							<rect x="21.5" y="21.1" class="st20" width="2.7" height="0.2"/>
						</g>
					</g>
					<g>
						<g>
							<rect x="21.5" y="19.9" class="st20" width="2.7" height="0.2"/>
						</g>
					</g>
					<g>
						<g>
							<line class="st36" x1="22.9" y1="18.9" x2="22.9" y2="23.3"/>
							<rect x="22.8" y="18.9" class="st20" width="0.2" height="4.4"/>
						</g>
					</g>
				</g>
			</g>
		</g>
	</g>
	<g>
		<g>
			<g>
				<g>
					<rect x="8.9" y="25.1" class="st16" width="4.2" height="6"/>
				</g>
			</g>
			<g>
				<g>
					<g>
						<path class="st7" d="M12.4,31.1H9.6v-3.2c0-0.8,0.6-1.4,1.4-1.4h0c0.8,0,1.4,0.6,1.4,1.4V31.1z"/>
					</g>
				</g>
			</g>
		</g>
		<g>
			<g>
				<g>
					<rect x="14.4" y="25.1" class="st16" width="4.2" height="6"/>
				</g>
			</g>
			<g>
				<g>
					<g>
						<path class="st7" d="M17.9,31.1h-2.9v-3.2c0-0.8,0.6-1.4,1.4-1.4h0c0.8,0,1.4,0.6,1.4,1.4V31.1z"/>
					</g>
				</g>
			</g>
		</g>
		<g>
			<g>
				<g>
					<rect x="19.9" y="25.1" class="st16" width="4.2" height="6"/>
				</g>
			</g>
			<g>
				<g>
					<g>
						<path class="st7" d="M23.4,31.1h-2.9v-3.2c0-0.8,0.6-1.4,1.4-1.4h0c0.8,0,1.4,0.6,1.4,1.4V31.1z"/>
					</g>
				</g>
			</g>
		</g>
	</g>
	<g>
		<g>
			<g>
				<g>
					<path class="st36" d="M17.9,7.3l0,3h-2.7V7.3c0-0.9,0.8-1.6,1.7-1.3C17.5,6.1,17.9,6.7,17.9,7.3z"/>
					<path class="st20" d="M17.9,10.4h-2.7c-0.1,0-0.1,0-0.1-0.1V7.3c0-0.5,0.2-0.9,0.6-1.2c0.4-0.3,0.8-0.4,1.3-0.3
						C17.5,6,18,6.6,18,7.3v3C18,10.4,17.9,10.4,17.9,10.4z M15.2,10.2h2.5V7.3c0-0.6-0.4-1.1-0.9-1.3c-0.4-0.1-0.8,0-1.1,0.2
						c-0.3,0.2-0.5,0.6-0.5,1V10.2z"/>
				</g>
			</g>
			<g>
				<g>
					<g>
						<rect x="15.1" y="9.2" class="st20" width="2.7" height="0.2"/>
					</g>
				</g>
				<g>
					<g>
						<rect x="15.1" y="8.1" class="st20" width="2.7" height="0.2"/>
					</g>
				</g>
				<g>
					<g>
						<rect x="15.1" y="6.9" class="st20" width="2.7" height="0.2"/>
					</g>
				</g>
				<g>
					<g>
						<line class="st36" x1="16.5" y1="5.9" x2="16.5" y2="10.3"/>
						<rect x="16.4" y="5.9" class="st20" width="0.2" height="4.4"/>
					</g>
				</g>
			</g>
		</g>
	</g>
</g>
</svg>
