<?xml version="1.0" encoding="utf-8"?>
<!-- Generator: Adobe Illustrator 21.1.0, SVG Export Plug-In . SVG Version: 6.00 Build 0)  -->
<svg version="1.1" id="Layer_1" xmlns="http://www.w3.org/2000/svg" xmlns:xlink="http://www.w3.org/1999/xlink" x="0px" y="0px"
	 viewBox="0 0 33 33" style="enable-background:new 0 0 33 33;" xml:space="preserve">
<style type="text/css">
	.st0{fill:#DAE5EF;}
	.st1{fill:#CBD6E0;}
	.st2{fill:#D03F3F;}
	.st3{fill:#BF3333;}
	.st4{fill:#E24B4B;}
	.st5{fill:#6D4135;}
	.st6{fill:#5B331D;}
	.st7{fill:#3E4347;}
	.st8{fill:#4E99D2;}
	.st9{fill:#65B1EF;}
	.st10{fill:#FFDC97;}
	.st11{fill:#FFCD7D;}
	.st12{fill:#FFE9AB;}
	.st13{fill:#31373A;}
	.st14{fill:#8CC63E;}
	.st15{fill:#FFD93B;}
	.st16{fill:#F4C534;}
	.st17{fill:#59A5E0;}
	.st18{fill:#DEE4E9;}
	.st19{fill:#D3D9DD;}
	.st20{fill:#FFFFFF;}
	.st21{fill:#2AB4CD;}
	.st22{fill:#1DA9BF;}
	.st23{fill:#E9EFF4;}
	.st24{fill:#7FB239;}
	.st25{fill:#719D34;}
	.st26{opacity:0.5;}
	.st27{fill:#BBC7D1;}
	.st28{fill:#E84D88;}
	.st29{fill:#D23F77;}
	.st30{fill:#633B2A;}
	.st31{fill:#E9B02C;}
	.st32{fill:#38C0DC;}
	.st33{fill:#45CBEA;}
	.st34{fill:#5A5F63;}
	.st35{fill:#E18823;}
	.st36{fill:#CF7519;}
	.st37{fill:#428DC3;}
	.st38{fill:#8D9BA3;}
	.st39{fill:#7B8B92;}
	.st40{fill:#ACB9C1;}
	.st41{fill:#846144;}
	.st42{fill:#7A5B44;}
	.st43{fill:#6B503B;}
	.st44{fill:#F29A2E;}
	.st45{fill:#728389;}
	.st46{fill:#FFD68D;}
	.st47{fill:#8F6D52;}
	.st48{fill:#84939A;}
	.st49{opacity:0.1;}
	.st50{fill:#89664C;}
	.st51{opacity:0.15;}
	.st52{fill:#DE9C25;}
	.st53{fill:#2AB4CD;stroke:#FFFFFF;stroke-width:0.5;stroke-linecap:round;stroke-linejoin:round;stroke-miterlimit:10;}
	.st54{fill:#FC97B2;}
	.st55{fill:#E88EA7;}
	.st56{opacity:0.2;}
	.st57{fill:#BB3166;}
	.st58{opacity:0.35;}
	.st59{opacity:0.6;}
	.st60{fill:#F9D087;}
	.st61{fill:#A5856D;}
	.st62{fill:#5C4533;}
	.st63{fill:#9A795F;}
	.st64{fill:#512A1B;}
	.st65{fill:#492418;}
	.st66{fill:#BE630E;}
	.st67{fill:none;}
	.st68{opacity:0.5;fill:#E18823;}
	.st69{opacity:0.1;fill:#FFFFFF;}
	.st70{fill:#FCCB7C;}
	.st71{opacity:0.15;fill:#FFFFFF;}
	.st72{opacity:0.2;fill:#FFFFFF;}
	.st73{opacity:0.5;fill:#CBD6E0;}
</style>
<g>
	<g>
		<g>
			<rect x="14.9" y="9.6" class="st0" width="17.2" height="19.7"/>
		</g>
		<g>
			<rect x="14.1" y="26.2" class="st7" width="18.1" height="3.1"/>
		</g>
		<g>
			<rect x="14.9" y="9.6" class="st1" width="2" height="19.7"/>
		</g>
		<g>
			<path class="st24" d="M32.9,9.6c0,0.4-0.3,0.7-0.7,0.7H14.8c-0.4,0-0.7-0.3-0.7-0.7c0-0.4,0.3-0.7,0.7-0.7h17.4
				C32.6,8.9,32.9,9.2,32.9,9.6z"/>
		</g>
		<g>
			<rect x="2.2" y="12.6" class="st0" width="13.9" height="14.5"/>
			<g>
				<g>
					<rect x="4.3" y="15.4" class="st1" width="9.8" height="11.8"/>
				</g>
				<g>
					<g>
						<rect x="5.1" y="17.9" class="st23" width="8.2" height="9.3"/>
					</g>
				</g>
				<g>
					<g>
						<rect x="5.6" y="19.1" class="st17" width="3.3" height="8"/>
					</g>
					<polygon class="st9" points="5.7,27.1 6.1,27.1 7.2,19.1 6.8,19.1 					"/>
					<polygon class="st9" points="6.6,27.1 7.8,27.1 8.9,19.1 7.7,19.1 					"/>
				</g>
				<g>
					<g>
						<rect x="9.4" y="19.1" class="st17" width="3.3" height="8"/>
					</g>
					<polygon class="st9" points="9.5,27.1 9.9,27.1 11,19.1 10.6,19.1 					"/>
					<polygon class="st9" points="10.5,27.1 11.6,27.1 12.7,19.1 11.6,19.1 					"/>
				</g>
			</g>
			<g>
				<rect x="0.1" y="27.1" class="st34" width="18.1" height="2.2"/>
			</g>
			<rect x="2.2" y="4.9" class="st0" width="13.9" height="7.9"/>
			<g>
				<path class="st24" d="M18.3,12.9c0,0.4-0.3,0.7-0.7,0.7H0.8c-0.4,0-0.7-0.3-0.7-0.7c0-0.4,0.3-0.7,0.7-0.7h16.7
					C17.9,12.2,18.3,12.5,18.3,12.9z"/>
			</g>
			<g>
				<path class="st24" d="M17.2,4.4c0,0.4-0.3,0.7-0.7,0.7H1.9c-0.4,0-0.7-0.3-0.7-0.7c0-0.4,0.3-0.7,0.7-0.7h14.5
					C16.9,3.7,17.2,4,17.2,4.4z"/>
			</g>
			<g>
				<g>
					<g>
						<rect x="1.4" y="13.9" class="st1" width="1.6" height="13"/>
					</g>
					<g>
						<path class="st23" d="M3.3,13.9c0,0.2-0.1,0.3-0.3,0.3H1.4c-0.2,0-0.3-0.1-0.3-0.3c0-0.2,0.1-0.3,0.3-0.3H3
							C3.2,13.6,3.3,13.7,3.3,13.9z"/>
					</g>
					<g>
						<path class="st23" d="M3.3,26.8c0,0.2-0.1,0.3-0.3,0.3H1.4c-0.2,0-0.3-0.1-0.3-0.3c0-0.2,0.1-0.3,0.3-0.3H3
							C3.2,26.6,3.3,26.7,3.3,26.8z"/>
					</g>
				</g>
				<g>
					<g>
						<rect x="15.4" y="13.9" class="st1" width="1.6" height="13"/>
					</g>
					<g>
						<path class="st23" d="M17.2,13.9c0,0.2-0.1,0.3-0.3,0.3h-1.6c-0.2,0-0.3-0.1-0.3-0.3c0-0.2,0.1-0.3,0.3-0.3h1.6
							C17.1,13.6,17.2,13.7,17.2,13.9z"/>
					</g>
					<g>
						<path class="st23" d="M17.2,26.8c0,0.2-0.1,0.3-0.3,0.3h-1.6c-0.2,0-0.3-0.1-0.3-0.3c0-0.2,0.1-0.3,0.3-0.3h1.6
							C17.1,26.6,17.2,26.7,17.2,26.8z"/>
					</g>
				</g>
			</g>
			<g>
				<rect x="3.9" y="6.3" class="st34" width="10.6" height="4.6"/>
			</g>
		</g>
		<g>
			<path class="st20" d="M5,7.5h0.8c0.2,0,0.3,0,0.4,0c0.1,0,0.2,0,0.2,0.1c0.1,0,0.1,0.1,0.2,0.2C6.7,7.9,6.7,8,6.7,8
				c0,0.1,0,0.2-0.1,0.3C6.6,8.4,6.5,8.5,6.4,8.5c0.1,0,0.2,0.1,0.3,0.2S6.8,8.9,6.8,9c0,0.1,0,0.2-0.1,0.3c0,0.1-0.1,0.2-0.2,0.2
				C6.5,9.6,6.4,9.6,6.3,9.6c-0.1,0-0.2,0-0.5,0H5V7.5z M5.5,7.9v0.5h0.3c0.2,0,0.3,0,0.3,0c0.1,0,0.1,0,0.2-0.1
				c0,0,0.1-0.1,0.1-0.2c0-0.1,0-0.1-0.1-0.2c0,0-0.1-0.1-0.2-0.1c0,0-0.2,0-0.4,0H5.5z M5.5,8.7v0.6h0.4c0.2,0,0.3,0,0.3,0
				c0.1,0,0.1,0,0.2-0.1c0,0,0.1-0.1,0.1-0.2c0-0.1,0-0.1,0-0.2c0,0-0.1-0.1-0.1-0.1c-0.1,0-0.2,0-0.4,0H5.5z"/>
			<path class="st20" d="M9.1,9.6H8.6L8.4,9.1H7.6L7.4,9.6H6.9l0.8-2.1h0.5L9.1,9.6z M8.3,8.8L8,8L7.7,8.8H8.3z"/>
			<path class="st20" d="M9.3,9.6V7.5h0.4l0.9,1.4V7.5H11v2.1h-0.4L9.7,8.2v1.4H9.3z"/>
			<path class="st20" d="M11.4,9.6V7.5h0.4v0.9l0.9-0.9h0.6l-0.8,0.8l0.8,1.3h-0.6l-0.6-1L11.9,9v0.6H11.4z"/>
		</g>
	</g>
	<g>
		<g>
			<g>
				<g>
					<path class="st8" d="M22,12.7v2.1c0,0.3-0.2,0.5-0.5,0.5h-1.7c-0.3,0-0.5-0.2-0.5-0.5v-2.1c0-0.3,0.2-0.5,0.5-0.5h1.7
						C21.8,12.2,22,12.4,22,12.7z"/>
				</g>
				<g>
					<path class="st17" d="M19.5,15.2l0.9-3H20l-0.7,2.4v0.1C19.3,14.9,19.4,15.1,19.5,15.2z"/>
					<polygon class="st17" points="21.5,12.2 20.8,12.2 19.8,15.2 20.5,15.2 					"/>
				</g>
			</g>
			<g>
				<g>
					<path class="st8" d="M25.9,12.7v2.1c0,0.3-0.2,0.5-0.5,0.5h-1.7c-0.3,0-0.5-0.2-0.5-0.5v-2.1c0-0.3,0.2-0.5,0.5-0.5h1.7
						C25.7,12.2,25.9,12.4,25.9,12.7z"/>
				</g>
				<g>
					<path class="st17" d="M23.4,15.2l0.9-3h-0.4l-0.7,2.4v0.1C23.2,14.9,23.3,15.1,23.4,15.2z"/>
					<polygon class="st17" points="25.3,12.2 24.7,12.2 23.7,15.2 24.4,15.2 					"/>
				</g>
			</g>
			<g>
				<g>
					<path class="st8" d="M29.8,12.7v2.1c0,0.3-0.2,0.5-0.5,0.5h-1.7c-0.3,0-0.5-0.2-0.5-0.5v-2.1c0-0.3,0.2-0.5,0.5-0.5h1.7
						C29.6,12.2,29.8,12.4,29.8,12.7z"/>
				</g>
				<g>
					<path class="st17" d="M27.3,15.2l0.9-3h-0.4l-0.7,2.4v0.1C27.1,14.9,27.2,15.1,27.3,15.2z"/>
					<polygon class="st17" points="29.2,12.2 28.6,12.2 27.6,15.2 28.3,15.2 					"/>
				</g>
			</g>
		</g>
		<g>
			<g>
				<g>
					<path class="st8" d="M22,16.8v2.1c0,0.3-0.2,0.5-0.5,0.5h-1.7c-0.3,0-0.5-0.2-0.5-0.5v-2.1c0-0.3,0.2-0.5,0.5-0.5h1.7
						C21.8,16.3,22,16.6,22,16.8z"/>
				</g>
				<g>
					<path class="st17" d="M19.5,19.3l0.9-3H20l-0.7,2.4v0.1C19.3,19.1,19.4,19.2,19.5,19.3z"/>
					<polygon class="st17" points="21.5,16.3 20.8,16.3 19.8,19.4 20.5,19.4 					"/>
				</g>
			</g>
			<g>
				<g>
					<path class="st8" d="M25.9,16.8v2.1c0,0.3-0.2,0.5-0.5,0.5h-1.7c-0.3,0-0.5-0.2-0.5-0.5v-2.1c0-0.3,0.2-0.5,0.5-0.5h1.7
						C25.7,16.3,25.9,16.6,25.9,16.8z"/>
				</g>
				<g>
					<path class="st17" d="M23.4,19.3l0.9-3h-0.4l-0.7,2.4v0.1C23.2,19.1,23.3,19.2,23.4,19.3z"/>
					<polygon class="st17" points="25.3,16.3 24.7,16.3 23.7,19.4 24.4,19.4 					"/>
				</g>
			</g>
			<g>
				<g>
					<path class="st8" d="M29.8,16.8v2.1c0,0.3-0.2,0.5-0.5,0.5h-1.7c-0.3,0-0.5-0.2-0.5-0.5v-2.1c0-0.3,0.2-0.5,0.5-0.5h1.7
						C29.6,16.3,29.8,16.6,29.8,16.8z"/>
				</g>
				<g>
					<path class="st17" d="M27.3,19.3l0.9-3h-0.4l-0.7,2.4v0.1C27.1,19.1,27.2,19.2,27.3,19.3z"/>
					<polygon class="st17" points="29.2,16.3 28.6,16.3 27.6,19.4 28.3,19.4 					"/>
				</g>
			</g>
		</g>
		<g>
			<g>
				<g>
					<path class="st8" d="M22,21v2.1c0,0.3-0.2,0.5-0.5,0.5h-1.7c-0.3,0-0.5-0.2-0.5-0.5V21c0-0.3,0.2-0.5,0.5-0.5h1.7
						C21.8,20.5,22,20.7,22,21z"/>
				</g>
				<g>
					<path class="st17" d="M19.5,23.5l0.9-3H20l-0.7,2.4v0.1C19.3,23.2,19.4,23.4,19.5,23.5z"/>
					<polygon class="st17" points="21.5,20.5 20.8,20.5 19.8,23.5 20.5,23.5 					"/>
				</g>
			</g>
			<g>
				<g>
					<path class="st8" d="M25.9,21v2.1c0,0.3-0.2,0.5-0.5,0.5h-1.7c-0.3,0-0.5-0.2-0.5-0.5V21c0-0.3,0.2-0.5,0.5-0.5h1.7
						C25.7,20.5,25.9,20.7,25.9,21z"/>
				</g>
				<g>
					<path class="st17" d="M23.4,23.5l0.9-3h-0.4l-0.7,2.4v0.1C23.2,23.2,23.3,23.4,23.4,23.5z"/>
					<polygon class="st17" points="25.3,20.5 24.7,20.5 23.7,23.5 24.4,23.5 					"/>
				</g>
			</g>
			<g>
				<g>
					<path class="st8" d="M29.8,21v2.1c0,0.3-0.2,0.5-0.5,0.5h-1.7c-0.3,0-0.5-0.2-0.5-0.5V21c0-0.3,0.2-0.5,0.5-0.5h1.7
						C29.6,20.5,29.8,20.7,29.8,21z"/>
				</g>
				<g>
					<path class="st17" d="M27.3,23.5l0.9-3h-0.4l-0.7,2.4v0.1C27.1,23.2,27.2,23.4,27.3,23.5z"/>
					<polygon class="st17" points="29.2,20.5 28.6,20.5 27.6,23.5 28.3,23.5 					"/>
				</g>
			</g>
		</g>
	</g>
</g>
</svg>
