<?xml version="1.0" encoding="utf-8"?>
<!-- Generator: Adobe Illustrator 21.1.0, SVG Export Plug-In . SVG Version: 6.00 Build 0)  -->
<svg version="1.1" id="Layer_1" xmlns="http://www.w3.org/2000/svg" xmlns:xlink="http://www.w3.org/1999/xlink" x="0px" y="0px"
	 viewBox="0 0 33 33" style="enable-background:new 0 0 33 33;" xml:space="preserve">
<style type="text/css">
	.st0{fill:#DAE5EF;}
	.st1{fill:#CBD6E0;}
	.st2{fill:#D03F3F;}
	.st3{fill:#BF3333;}
	.st4{fill:#E24B4B;}
	.st5{fill:#6D4135;}
	.st6{fill:#5B331D;}
	.st7{fill:#3E4347;}
	.st8{fill:#4E99D2;}
	.st9{fill:#65B1EF;}
	.st10{fill:#FFDC97;}
	.st11{fill:#FFCD7D;}
	.st12{fill:#FFE9AB;}
	.st13{fill:#31373A;}
	.st14{fill:#8CC63E;}
	.st15{fill:#FFD93B;}
	.st16{fill:#F4C534;}
	.st17{fill:#59A5E0;}
	.st18{fill:#DEE4E9;}
	.st19{fill:#D3D9DD;}
	.st20{fill:#FFFFFF;}
	.st21{fill:#2AB4CD;}
	.st22{fill:#1DA9BF;}
	.st23{fill:#E9EFF4;}
	.st24{fill:#7FB239;}
	.st25{fill:#719D34;}
	.st26{opacity:0.5;}
	.st27{fill:#BBC7D1;}
	.st28{fill:#E84D88;}
	.st29{fill:#D23F77;}
	.st30{fill:#633B2A;}
	.st31{fill:#E9B02C;}
	.st32{fill:#38C0DC;}
	.st33{fill:#45CBEA;}
	.st34{fill:#5A5F63;}
	.st35{fill:#E18823;}
	.st36{fill:#CF7519;}
	.st37{fill:#428DC3;}
	.st38{fill:#8D9BA3;}
	.st39{fill:#7B8B92;}
	.st40{fill:#ACB9C1;}
	.st41{fill:#846144;}
	.st42{fill:#7A5B44;}
	.st43{fill:#6B503B;}
	.st44{fill:#F29A2E;}
	.st45{fill:#728389;}
	.st46{fill:#FFD68D;}
	.st47{fill:#8F6D52;}
	.st48{fill:#84939A;}
	.st49{opacity:0.1;}
	.st50{fill:#89664C;}
	.st51{opacity:0.15;}
	.st52{fill:#DE9C25;}
	.st53{fill:#2AB4CD;stroke:#FFFFFF;stroke-width:0.5;stroke-linecap:round;stroke-linejoin:round;stroke-miterlimit:10;}
	.st54{fill:#FC97B2;}
	.st55{fill:#E88EA7;}
	.st56{opacity:0.2;}
	.st57{fill:#BB3166;}
	.st58{opacity:0.35;}
	.st59{opacity:0.6;}
	.st60{fill:#F9D087;}
	.st61{fill:#A5856D;}
	.st62{fill:#5C4533;}
	.st63{fill:#9A795F;}
	.st64{fill:#512A1B;}
	.st65{fill:#492418;}
	.st66{fill:#BE630E;}
	.st67{fill:none;}
	.st68{opacity:0.5;fill:#E18823;}
	.st69{opacity:0.1;fill:#FFFFFF;}
	.st70{fill:#FCCB7C;}
	.st71{opacity:0.15;fill:#FFFFFF;}
	.st72{opacity:0.2;fill:#FFFFFF;}
	.st73{opacity:0.5;fill:#CBD6E0;}
</style>
<g>
	<g>
		<g>
			<g>
				<rect x="8.4" y="6.2" class="st7" width="0.8" height="3.5"/>
			</g>
			<g>
				<rect x="23.6" y="6.2" class="st7" width="0.8" height="3.5"/>
			</g>
		</g>
		<g>
			<g>
				<path class="st24" d="M31.5,12.5H1.4c-0.5,0-0.9-0.5-0.8-1c0.5-1.7,2-2.9,3.8-2.9h24.1c1.8,0,3.3,1.2,3.8,2.9
					C32.4,12,32.1,12.5,31.5,12.5z"/>
			</g>
			<g>
				<path class="st25" d="M4.4,8.5h2.1c-1.5,0-2.8,1.2-3.1,2.9c-0.1,0.5,0.2,1,0.6,1H1.4c-0.5,0-0.9-0.5-0.8-1
					C1,9.8,2.6,8.5,4.4,8.5z"/>
				<path class="st14" d="M31.5,12.5h-2.7c0.4,0,0.8-0.5,0.6-1c-0.4-1.7-1.6-2.9-3.1-2.9h2.1c1.8,0,3.3,1.2,3.8,2.9
					C32.4,12,32.1,12.5,31.5,12.5z"/>
			</g>
			<g>
				<rect x="2.8" y="12.5" class="st0" width="27.4" height="17.1"/>
			</g>
			<g class="st26">
				<polygon class="st1" points="27.7,15.7 16.3,24.4 21.5,29.6 30.1,29.6 30.1,18.1 				"/>
			</g>
			<path class="st7" d="M16.7,24.6c-0.2,0-0.4-0.2-0.4-0.4V16c0-0.2,0.2-0.4,0.4-0.4h10.7c0.2,0,0.4,0.2,0.4,0.4v8.2
				c0,0.2-0.2,0.4-0.4,0.4H16.7z"/>
			<g>
				<polygon class="st1" points="30.1,14.3 30.1,12.5 2.8,12.5 				"/>
			</g>
			<g>
				<g>
					<rect x="17.3" y="16.5" class="st9" width="9.5" height="7.1"/>
				</g>
				<g>
					<polygon class="st17" points="21,16.5 17.3,20.2 17.3,21.1 21.9,16.5 					"/>
					<polygon class="st17" points="22.6,16.5 17.3,21.8 17.3,23.5 24.3,16.5 					"/>
				</g>
			</g>
			<g>
				<g>
					<g>
						<path class="st27" d="M13.7,16v13.6H5.2V16c0-0.3,0.3-0.6,0.6-0.6h7.4C13.4,15.4,13.7,15.6,13.7,16z"/>
					</g>
					<g>
						<rect x="6.1" y="16.7" class="st5" width="6.7" height="12.9"/>
						<g>
							<rect x="6.9" y="17.5" class="st17" width="5" height="3.6"/>
							<rect x="6.9" y="22.1" class="st6" width="5" height="6.6"/>
						</g>
					</g>
				</g>
				<g>
					<polygon class="st9" points="9.9,17.5 6.9,20.5 6.9,21.1 7.2,21.1 10.8,17.5 					"/>
					<polygon class="st9" points="6.9,19.4 6.9,20.2 9.5,17.5 8.8,17.5 					"/>
				</g>
			</g>
		</g>
		<g>
			<path class="st2" d="M26.4,2.3v3.6c0,0.5-0.4,0.8-0.8,0.8H7.3c-0.5,0-0.8-0.4-0.8-0.8V2.3c0-0.5,0.4-0.8,0.8-0.8h18.2
				C26,1.5,26.4,1.8,26.4,2.3z"/>
		</g>
		<g>
			<g>
				<path class="st20" d="M8.1,2.7h1.2c0.2,0,0.4,0,0.5,0s0.2,0.1,0.3,0.1s0.2,0.1,0.2,0.2c0.1,0.1,0.1,0.2,0.1,0.3
					c0,0.1,0,0.3-0.1,0.4C10.2,3.9,10.1,4,10,4c0.2,0.1,0.3,0.1,0.4,0.3c0.1,0.1,0.1,0.3,0.1,0.4c0,0.1,0,0.3-0.1,0.4
					c-0.1,0.1-0.1,0.2-0.3,0.3S9.9,5.5,9.8,5.6c-0.1,0-0.3,0-0.7,0h-1V2.7z M8.7,3.2v0.7h0.4c0.2,0,0.4,0,0.4,0c0.1,0,0.2,0,0.2-0.1
					c0.1-0.1,0.1-0.1,0.1-0.2c0-0.1,0-0.2-0.1-0.2S9.6,3.2,9.5,3.2c-0.1,0-0.2,0-0.5,0H8.7z M8.7,4.3v0.8h0.5c0.2,0,0.3,0,0.4,0
					C9.7,5,9.8,5,9.8,4.9c0.1-0.1,0.1-0.1,0.1-0.2c0-0.1,0-0.2-0.1-0.2c0-0.1-0.1-0.1-0.2-0.1s-0.3,0-0.5,0H8.7z"/>
				<path class="st20" d="M13.6,5.6H13l-0.3-0.7h-1.2l-0.2,0.7h-0.6l1.1-2.9h0.6L13.6,5.6z M12.6,4.4l-0.4-1.1l-0.4,1.1H12.6z"/>
				<path class="st20" d="M14,5.6V2.7h0.6V4l1.2-1.3h0.8l-1.1,1.1l1.2,1.8h-0.8L15,4.2l-0.5,0.5v0.9H14z"/>
				<path class="st20" d="M16.9,5.6V2.7H19v0.5h-1.6v0.6h1.5v0.5h-1.5v0.8h1.6v0.5H16.9z"/>
				<path class="st20" d="M19.6,5.6V2.7h1.2c0.3,0,0.5,0,0.7,0.1c0.1,0.1,0.3,0.1,0.3,0.3S22,3.3,22,3.5c0,0.2-0.1,0.4-0.2,0.5
					c-0.1,0.1-0.3,0.2-0.6,0.3c0.1,0.1,0.2,0.2,0.3,0.2c0.1,0.1,0.2,0.2,0.3,0.5l0.4,0.6h-0.7l-0.4-0.6c-0.2-0.2-0.3-0.4-0.3-0.4
					c-0.1-0.1-0.1-0.1-0.2-0.1c-0.1,0-0.2,0-0.3,0h-0.1v1.2H19.6z M20.2,3.9h0.4c0.3,0,0.5,0,0.5,0c0.1,0,0.1-0.1,0.2-0.1
					c0-0.1,0.1-0.1,0.1-0.2c0-0.1,0-0.2-0.1-0.2c-0.1-0.1-0.1-0.1-0.2-0.1c0,0-0.2,0-0.4,0h-0.5V3.9z"/>
				<path class="st20" d="M23.1,5.6V4.3l-1.1-1.7h0.7l0.7,1.1l0.7-1.1h0.7l-1.1,1.7v1.2H23.1z"/>
			</g>
		</g>
	</g>
	<g>
		<path class="st7" d="M31.5,31.5h-30c-0.5,0-1-0.4-1-1v0c0-0.5,0.4-1,1-1h30c0.5,0,1,0.4,1,1v0C32.4,31.1,32,31.5,31.5,31.5z"/>
	</g>
</g>
</svg>
