<?xml version="1.0" encoding="utf-8"?>
<!-- Generator: Adobe Illustrator 21.1.0, SVG Export Plug-In . SVG Version: 6.00 Build 0)  -->
<svg version="1.1" id="Layer_1" xmlns="http://www.w3.org/2000/svg" xmlns:xlink="http://www.w3.org/1999/xlink" x="0px" y="0px"
	 viewBox="0 0 33 33" style="enable-background:new 0 0 33 33;" xml:space="preserve">
<style type="text/css">
	.st0{fill:#DAE5EF;}
	.st1{fill:#CBD6E0;}
	.st2{fill:#D03F3F;}
	.st3{fill:#BF3333;}
	.st4{fill:#E24B4B;}
	.st5{fill:#6D4135;}
	.st6{fill:#5B331D;}
	.st7{fill:#3E4347;}
	.st8{fill:#4E99D2;}
	.st9{fill:#65B1EF;}
	.st10{fill:#FFDC97;}
	.st11{fill:#FFCD7D;}
	.st12{fill:#FFE9AB;}
	.st13{fill:#31373A;}
	.st14{fill:#8CC63E;}
	.st15{fill:#FFD93B;}
	.st16{fill:#F4C534;}
	.st17{fill:#59A5E0;}
	.st18{fill:#DEE4E9;}
	.st19{fill:#D3D9DD;}
	.st20{fill:#FFFFFF;}
	.st21{fill:#2AB4CD;}
	.st22{fill:#1DA9BF;}
	.st23{fill:#E9EFF4;}
	.st24{fill:#7FB239;}
	.st25{fill:#719D34;}
	.st26{opacity:0.5;}
	.st27{fill:#BBC7D1;}
	.st28{fill:#E84D88;}
	.st29{fill:#D23F77;}
	.st30{fill:#633B2A;}
	.st31{fill:#E9B02C;}
	.st32{fill:#38C0DC;}
	.st33{fill:#45CBEA;}
	.st34{fill:#5A5F63;}
	.st35{fill:#E18823;}
	.st36{fill:#CF7519;}
	.st37{fill:#428DC3;}
	.st38{fill:#8D9BA3;}
	.st39{fill:#7B8B92;}
	.st40{fill:#ACB9C1;}
	.st41{fill:#846144;}
	.st42{fill:#7A5B44;}
	.st43{fill:#6B503B;}
	.st44{fill:#F29A2E;}
	.st45{fill:#728389;}
	.st46{fill:#FFD68D;}
	.st47{fill:#8F6D52;}
	.st48{fill:#84939A;}
	.st49{opacity:0.1;}
	.st50{fill:#89664C;}
	.st51{opacity:0.15;}
	.st52{fill:#DE9C25;}
	.st53{fill:#2AB4CD;stroke:#FFFFFF;stroke-width:0.5;stroke-linecap:round;stroke-linejoin:round;stroke-miterlimit:10;}
	.st54{fill:#FC97B2;}
	.st55{fill:#E88EA7;}
	.st56{opacity:0.2;}
	.st57{fill:#BB3166;}
	.st58{opacity:0.35;}
	.st59{opacity:0.6;}
	.st60{fill:#F9D087;}
	.st61{fill:#A5856D;}
	.st62{fill:#5C4533;}
	.st63{fill:#9A795F;}
	.st64{fill:#512A1B;}
	.st65{fill:#492418;}
	.st66{fill:#BE630E;}
	.st67{fill:none;}
	.st68{opacity:0.5;fill:#E18823;}
	.st69{opacity:0.1;fill:#FFFFFF;}
	.st70{fill:#FCCB7C;}
	.st71{opacity:0.15;fill:#FFFFFF;}
	.st72{opacity:0.2;fill:#FFFFFF;}
	.st73{opacity:0.5;fill:#CBD6E0;}
</style>
<g>
	<g>
		<g>
			<rect x="6.9" y="2.2" class="st0" width="3.6" height="5.3"/>
		</g>
		<g>
			<polygon class="st1" points="10.4,3.2 7,3.2 6.9,3.6 10.4,7.1 			"/>
		</g>
		<g>
			<g>
				<g>
					<g>
						<rect x="3.3" y="16.1" class="st0" width="26.4" height="14.7"/>
					</g>
					<g class="st26">
						<polygon class="st1" points="9.4,28.2 12,30.9 29.7,30.9 29.7,24.8 23.6,18.8 						"/>
					</g>
					<g>
						<polygon class="st1" points="29.7,17.8 29.7,16.1 3.3,16.1 						"/>
					</g>
					<g>
						<path class="st7" d="M32.5,31.7c0,0.4-0.4,0.8-0.8,0.8H1.3c-0.4,0-0.8-0.4-0.8-0.8c0-0.5,0.4-0.8,0.8-0.8h30.4
							C32.1,30.9,32.5,31.2,32.5,31.7z"/>
					</g>
				</g>
				<g>
					<path class="st16" d="M31.4,15c0.1,0.6-0.3,1.1-0.9,1.1H2.4c-0.6,0-1-0.5-0.9-1.1l1.8-7.9c0.1-0.6,0.7-1,1.3-1h23.8
						c0.6,0,1.1,0.4,1.3,1L31.4,15z"/>
				</g>
				<g>
					<path class="st31" d="M31.4,15c0.1,0.6-0.3,1.1-0.9,1.1H2.4c-0.6,0-1-0.5-0.9-1.1l0.1-0.3c2.2,0.4,4.6,0.6,7.2,0.6
						c11.2,0,20.3-3.9,20.3-8.8c0-0.1,0-0.1,0-0.2c0.3,0.2,0.5,0.5,0.6,0.8L31.4,15z"/>
				</g>
			</g>
		</g>
		<g>
			<path class="st4" d="M11.5,1.1V3c0,0.3-0.3,0.6-0.6,0.6H6.4C6.1,3.6,5.8,3.3,5.8,3V1.1c0-0.3,0.3-0.6,0.6-0.6h4.5
				C11.2,0.5,11.5,0.8,11.5,1.1z"/>
		</g>
		<g>
			<path class="st2" d="M11.5,1.1V3c0,0.3-0.3,0.6-0.6,0.6H6.4C6.2,3.6,6,3.5,5.9,3.3c0.3,0,0.6,0,0.8,0c2.4,0,4.4-1.2,4.4-2.6
				c0-0.1,0-0.1,0-0.2C11.3,0.7,11.5,0.9,11.5,1.1z"/>
		</g>
	</g>
	<g>
		<g>
			<path class="st7" d="M23.8,19.3v8.4c0,0.4-0.3,0.7-0.7,0.7H9.9c-0.4,0-0.7-0.3-0.7-0.7v-8.4c0-0.4,0.3-0.7,0.7-0.7h13.2
				C23.5,18.6,23.8,18.9,23.8,19.3z"/>
		</g>
		<g>
			<rect x="10.1" y="19.5" class="st9" width="5.9" height="3.5"/>
			<g>
				<polygon class="st17" points="12.7,19.5 10.1,22.1 10.1,22.8 13.4,19.5 				"/>
				<polygon class="st17" points="13.8,19.5 10.4,23 11.7,23 15.2,19.5 				"/>
			</g>
		</g>
		<g>
			<rect x="17" y="19.5" class="st9" width="5.9" height="3.5"/>
			<g>
				<polygon class="st17" points="19.6,19.5 17,22.1 17,22.8 20.3,19.5 				"/>
				<polygon class="st17" points="20.7,19.5 17.2,23 18.6,23 22.1,19.5 				"/>
			</g>
		</g>
		<g>
			<rect x="17" y="24" class="st9" width="5.9" height="3.5"/>
			<g>
				<polygon class="st17" points="19.6,24 17,26.6 17,27.3 20.3,24 				"/>
				<polygon class="st17" points="20.7,24 17.2,27.5 18.6,27.5 22.1,24 				"/>
			</g>
		</g>
		<g>
			<rect x="10.1" y="24" class="st9" width="5.9" height="3.5"/>
			<g>
				<polygon class="st17" points="12.7,24 10.1,26.6 10.1,27.3 13.4,24 				"/>
				<polygon class="st17" points="13.8,24 10.4,27.5 11.7,27.5 15.2,24 				"/>
			</g>
		</g>
	</g>
</g>
</svg>
