<?xml version="1.0" encoding="utf-8"?>
<!-- Generator: Adobe Illustrator 21.1.0, SVG Export Plug-In . SVG Version: 6.00 Build 0)  -->
<svg version="1.1" id="Layer_1" xmlns="http://www.w3.org/2000/svg" xmlns:xlink="http://www.w3.org/1999/xlink" x="0px" y="0px"
	 viewBox="0 0 33 33" style="enable-background:new 0 0 33 33;" xml:space="preserve">
<style type="text/css">
	.st0{fill:#DAE5EF;}
	.st1{fill:#CBD6E0;}
	.st2{fill:#D03F3F;}
	.st3{fill:#BF3333;}
	.st4{fill:#E24B4B;}
	.st5{fill:#6D4135;}
	.st6{fill:#5B331D;}
	.st7{fill:#3E4347;}
	.st8{fill:#4E99D2;}
	.st9{fill:#65B1EF;}
	.st10{fill:#FFDC97;}
	.st11{fill:#FFCD7D;}
	.st12{fill:#FFE9AB;}
	.st13{fill:#31373A;}
	.st14{fill:#8CC63E;}
	.st15{fill:#FFD93B;}
	.st16{fill:#F4C534;}
	.st17{fill:#59A5E0;}
	.st18{fill:#DEE4E9;}
	.st19{fill:#D3D9DD;}
	.st20{fill:#FFFFFF;}
	.st21{fill:#2AB4CD;}
	.st22{fill:#1DA9BF;}
	.st23{fill:#E9EFF4;}
	.st24{fill:#7FB239;}
	.st25{fill:#719D34;}
	.st26{opacity:0.5;}
	.st27{fill:#BBC7D1;}
	.st28{fill:#E84D88;}
	.st29{fill:#D23F77;}
	.st30{fill:#633B2A;}
	.st31{fill:#E9B02C;}
	.st32{fill:#38C0DC;}
	.st33{fill:#45CBEA;}
	.st34{fill:#5A5F63;}
	.st35{fill:#E18823;}
	.st36{fill:#CF7519;}
	.st37{fill:#428DC3;}
	.st38{fill:#8D9BA3;}
	.st39{fill:#7B8B92;}
	.st40{fill:#ACB9C1;}
	.st41{fill:#846144;}
	.st42{fill:#7A5B44;}
	.st43{fill:#6B503B;}
	.st44{fill:#F29A2E;}
	.st45{fill:#728389;}
	.st46{fill:#FFD68D;}
	.st47{fill:#8F6D52;}
	.st48{fill:#84939A;}
	.st49{opacity:0.1;}
	.st50{fill:#89664C;}
	.st51{opacity:0.15;}
	.st52{fill:#DE9C25;}
	.st53{fill:#2AB4CD;stroke:#FFFFFF;stroke-width:0.5;stroke-linecap:round;stroke-linejoin:round;stroke-miterlimit:10;}
	.st54{fill:#FC97B2;}
	.st55{fill:#E88EA7;}
	.st56{opacity:0.2;}
	.st57{fill:#BB3166;}
	.st58{opacity:0.35;}
	.st59{opacity:0.6;}
	.st60{fill:#F9D087;}
	.st61{fill:#A5856D;}
	.st62{fill:#5C4533;}
	.st63{fill:#9A795F;}
	.st64{fill:#512A1B;}
	.st65{fill:#492418;}
	.st66{fill:#BE630E;}
	.st67{fill:none;}
	.st68{opacity:0.5;fill:#E18823;}
	.st69{opacity:0.1;fill:#FFFFFF;}
	.st70{fill:#FCCB7C;}
	.st71{opacity:0.15;fill:#FFFFFF;}
	.st72{opacity:0.2;fill:#FFFFFF;}
	.st73{opacity:0.5;fill:#CBD6E0;}
</style>
<g>
	<g>
		<g>
			<g>
				<g>
					<g>
						<rect x="7.6" y="5.6" class="st7" width="1" height="3.5"/>
					</g>
				</g>
				<g>
					<g>
						<rect x="24.4" y="5.6" class="st7" width="1" height="3.5"/>
					</g>
				</g>
			</g>
			<g>
				<g>
					<rect x="2.8" y="11.4" class="st12" width="27.5" height="18.7"/>
				</g>
			</g>
			<g>
				<g>
					<g>
						<path class="st7" d="M18.8,13.7v13.7c0,0.3-0.3,0.6-0.6,0.6H5.6c-0.3,0-0.6-0.3-0.6-0.6V13.7c0-0.3,0.3-0.6,0.6-0.6h12.7
							C18.6,13.1,18.8,13.3,18.8,13.7z"/>
					</g>
					<g>
						<g>
							<rect x="5.8" y="14" class="st9" width="12.1" height="13.1"/>
						</g>
					</g>
					<g>
						<polygon class="st17" points="18,18.9 17.9,18.8 9.7,27.1 11.3,27.1 18,20.4 						"/>
						<polygon class="st17" points="9,27.1 17.1,19 16.8,18.6 8.4,27.1 						"/>
					</g>
					<g>
						<polygon class="st17" points="9.4,18.4 5.8,22 5.8,23.3 10.7,18.4 						"/>
						<polygon class="st17" points="8.4,18.4 5.8,20.9 5.8,21.5 8.9,18.4 						"/>
					</g>
					<g>
						<path class="st17" d="M5.8,16.7c0.2,0.1,0.4,0.1,0.7,0.1c0.8,0,1.5-0.3,2-0.9c0.5,0.5,1.2,0.9,2,0.9s1.5-0.3,2-0.9
							c0.5,0.5,1.2,0.9,2,0.9s1.5-0.3,2-0.9c0.4,0.4,0.9,0.7,1.5,0.8V14H5.8V16.7z"/>
					</g>
				</g>
				<g>
					<g>
						<g>
							<g>
								<rect x="5.5" y="18.2" class="st7" width="12.8" height="0.9"/>
							</g>
						</g>
						<g>
							<g>
								<rect x="5.5" y="22.9" class="st7" width="12.8" height="0.9"/>
							</g>
						</g>
					</g>
					<g>
						<g>
							<g>
								<rect x="11.5" y="18.6" class="st7" width="0.9" height="8.8"/>
							</g>
						</g>
					</g>
				</g>
			</g>
			<g>
				<g>
					<path class="st7" d="M32.5,31c0,0.6-0.5,1.1-1.1,1.1H1.6c-0.6,0-1.1-0.5-1.1-1.1c0-0.6,0.5-1.1,1.1-1.1h29.8
						C32,29.9,32.5,30.4,32.5,31z"/>
				</g>
			</g>
			<g>
				<g>
					<g>
						<path class="st28" d="M27.6,1.7v4.6c0,0.4-0.4,0.8-0.8,0.8H6.2c-0.4,0-0.8-0.4-0.8-0.8V1.7c0-0.4,0.4-0.8,0.8-0.8h20.6
							C27.3,0.9,27.6,1.2,27.6,1.7z"/>
					</g>
				</g>
				<g>
					<g>
						<path class="st20" d="M7.5,4.6l0.8-0.1c0,0.3,0.1,0.4,0.3,0.6s0.3,0.2,0.6,0.2c0.2,0,0.4-0.1,0.6-0.2C9.8,5,9.9,4.9,9.9,4.8
							c0-0.1,0-0.2-0.1-0.2C9.8,4.5,9.7,4.4,9.5,4.4c-0.1,0-0.3-0.1-0.6-0.2C8.5,4.1,8.2,4,8,3.8C7.8,3.6,7.7,3.4,7.7,3.1
							c0-0.2,0.1-0.4,0.2-0.5s0.3-0.3,0.5-0.4C8.5,2,8.8,2,9.1,2c0.5,0,0.8,0.1,1.1,0.3c0.2,0.2,0.4,0.5,0.4,0.8l-0.8,0
							c0-0.2-0.1-0.3-0.2-0.4S9.3,2.6,9.1,2.6c-0.2,0-0.4,0-0.5,0.1C8.5,2.8,8.4,2.9,8.4,3c0,0.1,0,0.2,0.1,0.2
							c0.1,0.1,0.3,0.2,0.7,0.3c0.4,0.1,0.7,0.2,0.8,0.3c0.2,0.1,0.3,0.2,0.4,0.4s0.2,0.4,0.2,0.6c0,0.2-0.1,0.4-0.2,0.6
							c-0.1,0.2-0.3,0.3-0.5,0.4C9.7,5.9,9.5,6,9.1,6C8.6,6,8.3,5.9,8,5.6C7.7,5.4,7.6,5.1,7.5,4.6z"/>
					</g>
					<g>
						<path class="st20" d="M12.2,5.9V2.7H11V2.1h3.1v0.7H13v3.2H12.2z"/>
					</g>
					<g>
						<path class="st20" d="M14.3,4c0-0.4,0.1-0.7,0.2-1c0.1-0.2,0.2-0.4,0.4-0.5s0.3-0.3,0.5-0.3C15.6,2,15.9,2,16.2,2
							c0.6,0,1,0.2,1.4,0.5c0.3,0.4,0.5,0.8,0.5,1.5c0,0.6-0.2,1.1-0.5,1.5C17.2,5.8,16.8,6,16.2,6c-0.6,0-1-0.2-1.4-0.5
							C14.5,5.1,14.3,4.6,14.3,4z M15.1,4c0,0.4,0.1,0.8,0.3,1s0.5,0.3,0.8,0.3c0.3,0,0.6-0.1,0.8-0.3c0.2-0.2,0.3-0.6,0.3-1
							c0-0.4-0.1-0.8-0.3-1c-0.2-0.2-0.4-0.3-0.8-0.3c-0.3,0-0.6,0.1-0.8,0.3C15.2,3.2,15.1,3.5,15.1,4z"/>
					</g>
					<g>
						<path class="st20" d="M18.7,5.9V2.1h1.6c0.4,0,0.7,0,0.9,0.1s0.3,0.2,0.4,0.4c0.1,0.2,0.2,0.4,0.2,0.6c0,0.3-0.1,0.5-0.3,0.7
							s-0.4,0.3-0.8,0.4c0.2,0.1,0.3,0.2,0.4,0.3s0.3,0.3,0.4,0.6l0.5,0.7h-0.9l-0.6-0.8c-0.2-0.3-0.3-0.5-0.4-0.6S20.1,4.4,20,4.3
							c-0.1,0-0.2,0-0.4,0h-0.2v1.6H18.7z M19.4,3.7H20c0.4,0,0.6,0,0.7,0c0.1,0,0.2-0.1,0.2-0.2C21,3.4,21,3.3,21,3.2
							c0-0.1,0-0.2-0.1-0.3c-0.1-0.1-0.2-0.1-0.3-0.2c-0.1,0-0.3,0-0.6,0h-0.6V3.7z"/>
					</g>
					<g>
						<path class="st20" d="M22.5,5.9V2.1h2.8v0.7h-2.1v0.9h1.9v0.6h-1.9v1h2.1v0.6H22.5z"/>
					</g>
				</g>
			</g>
			<g>
				<g>
					<g>
						<g>
							<path class="st28" d="M0.5,12.7V14c0,1.1,0.9,2,2,2c1.1,0,2-0.9,2-2v-1.3H0.5z"/>
						</g>
						<g>
							<g>
								<polygon class="st29" points="2.8,8.6 6.2,8.6 4.5,12.7 0.5,12.7 								"/>
							</g>
						</g>
					</g>
					<g>
						<g>
							<path class="st23" d="M4.5,12.7V14c0,1.1,0.9,2,2,2c1.1,0,2-0.9,2-2v-1.3H4.5z"/>
						</g>
						<g>
							<g>
								<polygon class="st19" points="6.2,8.6 9.6,8.6 8.5,12.7 4.5,12.7 								"/>
							</g>
						</g>
					</g>
				</g>
				<g>
					<g>
						<g>
							<path class="st28" d="M8.5,12.7V14c0,1.1,0.9,2,2,2c1.1,0,2-0.9,2-2v-1.3H8.5z"/>
						</g>
						<g>
							<g>
								<polygon class="st29" points="9.6,8.6 13.1,8.6 12.5,12.7 8.5,12.7 								"/>
							</g>
						</g>
					</g>
					<g>
						<g>
							<path class="st23" d="M12.5,12.7V14c0,1.1,0.9,2,2,2c1.1,0,2-0.9,2-2v-1.3H12.5z"/>
						</g>
						<g>
							<g>
								<polygon class="st19" points="13.1,8.6 16.5,8.6 16.5,12.7 12.5,12.7 								"/>
							</g>
						</g>
					</g>
				</g>
				<g>
					<g>
						<g>
							<path class="st28" d="M16.5,12.7V14c0,1.1,0.9,2,2,2c1.1,0,2-0.9,2-2v-1.3H16.5z"/>
						</g>
						<g>
							<g>
								<polygon class="st29" points="16.5,8.6 19.9,8.6 20.5,12.7 16.5,12.7 								"/>
							</g>
						</g>
					</g>
					<g>
						<g>
							<path class="st23" d="M20.5,12.7V14c0,1.1,0.9,2,2,2c1.1,0,2-0.9,2-2v-1.3H20.5z"/>
						</g>
						<g>
							<g>
								<polygon class="st19" points="19.9,8.6 23.4,8.6 24.5,12.7 20.5,12.7 								"/>
							</g>
						</g>
					</g>
				</g>
				<g>
					<g>
						<g>
							<path class="st28" d="M24.5,12.7V14c0,1.1,0.9,2,2,2c1.1,0,2-0.9,2-2v-1.3H24.5z"/>
						</g>
						<g>
							<g>
								<polygon class="st29" points="23.4,8.6 26.8,8.6 28.5,12.7 24.5,12.7 								"/>
							</g>
						</g>
					</g>
					<g>
						<g>
							<path class="st23" d="M28.5,12.7V14c0,1.1,0.9,2,2,2c1.1,0,2-0.9,2-2v-1.3H28.5z"/>
						</g>
						<g>
							<g>
								<polygon class="st19" points="26.8,8.6 30.2,8.6 32.5,12.7 28.5,12.7 								"/>
							</g>
						</g>
					</g>
				</g>
			</g>
		</g>
		<g>
			<g>
				<rect x="21" y="18.1" class="st5" width="7" height="11.8"/>
			</g>
			<g>
				<rect x="21.7" y="18.9" class="st6" width="5.5" height="3.5"/>
				<rect x="21.7" y="23.2" class="st6" width="5.5" height="6"/>
			</g>
		</g>
	</g>
	<g>
		<path class="st5" d="M26.7,24.2c0,0.3-0.2,0.5-0.5,0.5c-0.3,0-0.5-0.2-0.5-0.5c0-0.3,0.2-0.5,0.5-0.5C26.5,23.7,26.7,24,26.7,24.2
			z"/>
	</g>
</g>
</svg>
