<?xml version="1.0" encoding="utf-8"?>
<!-- Generator: Adobe Illustrator 21.1.0, SVG Export Plug-In . SVG Version: 6.00 Build 0)  -->
<svg version="1.1" id="Layer_1" xmlns="http://www.w3.org/2000/svg" xmlns:xlink="http://www.w3.org/1999/xlink" x="0px" y="0px"
	 viewBox="0 0 33 33" style="enable-background:new 0 0 33 33;" xml:space="preserve">
<style type="text/css">
	.st0{fill:#DAE5EF;}
	.st1{fill:#CBD6E0;}
	.st2{fill:#D03F3F;}
	.st3{fill:#BF3333;}
	.st4{fill:#E24B4B;}
	.st5{fill:#6D4135;}
	.st6{fill:#5B331D;}
	.st7{fill:#3E4347;}
	.st8{fill:#4E99D2;}
	.st9{fill:#65B1EF;}
	.st10{fill:#FFDC97;}
	.st11{fill:#FFCD7D;}
	.st12{fill:#FFE9AB;}
	.st13{fill:#31373A;}
	.st14{fill:#8CC63E;}
	.st15{fill:#FFD93B;}
	.st16{fill:#F4C534;}
	.st17{fill:#59A5E0;}
	.st18{fill:#DEE4E9;}
	.st19{fill:#D3D9DD;}
	.st20{fill:#FFFFFF;}
	.st21{fill:#2AB4CD;}
	.st22{fill:#1DA9BF;}
	.st23{fill:#E9EFF4;}
	.st24{fill:#7FB239;}
	.st25{fill:#719D34;}
	.st26{opacity:0.5;}
	.st27{fill:#BBC7D1;}
	.st28{fill:#E84D88;}
	.st29{fill:#D23F77;}
	.st30{fill:#633B2A;}
	.st31{fill:#E9B02C;}
	.st32{fill:#38C0DC;}
	.st33{fill:#45CBEA;}
	.st34{fill:#5A5F63;}
	.st35{fill:#E18823;}
	.st36{fill:#CF7519;}
	.st37{fill:#428DC3;}
	.st38{fill:#8D9BA3;}
	.st39{fill:#7B8B92;}
	.st40{fill:#ACB9C1;}
	.st41{fill:#846144;}
	.st42{fill:#7A5B44;}
	.st43{fill:#6B503B;}
	.st44{fill:#F29A2E;}
	.st45{fill:#728389;}
	.st46{fill:#FFD68D;}
	.st47{fill:#8F6D52;}
	.st48{fill:#84939A;}
	.st49{opacity:0.1;}
	.st50{fill:#89664C;}
	.st51{opacity:0.15;}
	.st52{fill:#DE9C25;}
	.st53{fill:#2AB4CD;stroke:#FFFFFF;stroke-width:0.5;stroke-linecap:round;stroke-linejoin:round;stroke-miterlimit:10;}
	.st54{fill:#FC97B2;}
	.st55{fill:#E88EA7;}
	.st56{opacity:0.2;}
	.st57{fill:#BB3166;}
	.st58{opacity:0.35;}
	.st59{opacity:0.6;}
	.st60{fill:#F9D087;}
	.st61{fill:#A5856D;}
	.st62{fill:#5C4533;}
	.st63{fill:#9A795F;}
	.st64{fill:#512A1B;}
	.st65{fill:#492418;}
	.st66{fill:#BE630E;}
	.st67{fill:none;}
	.st68{opacity:0.5;fill:#E18823;}
	.st69{opacity:0.1;fill:#FFFFFF;}
	.st70{fill:#FCCB7C;}
	.st71{opacity:0.15;fill:#FFFFFF;}
	.st72{opacity:0.2;fill:#FFFFFF;}
	.st73{opacity:0.5;fill:#CBD6E0;}
</style>
<g>
	<g>
		<g>
			<rect x="5.4" y="6.4" class="st15" width="22.2" height="24.4"/>
		</g>
		<g>
			<path class="st7" d="M29.7,31.7c0,0.5-0.4,0.8-0.8,0.8H4.2c-0.5,0-0.8-0.4-0.8-0.8c0-0.5,0.4-0.8,0.8-0.8h24.7
				C29.3,30.8,29.7,31.2,29.7,31.7z"/>
		</g>
		<g>
			<polygon class="st16" points="27.5,8.6 27.5,6.9 5.4,6.9 			"/>
		</g>
		<g>
			<path class="st30" d="M28.5,6.9H4.4c-0.5,0-0.9-0.5-0.7-1l1.2-4.8C5,0.8,5.4,0.5,5.8,0.5h21.4c0.4,0,0.8,0.3,0.9,0.7l1.2,4.8
				C29.4,6.4,29,6.9,28.5,6.9z"/>
		</g>
		<g>
			<path class="st6" d="M5.8,0.5h1.7c-0.3,0-0.6,0.3-0.7,0.7l-1,4.8c-0.1,0.5,0.2,1,0.6,1H4.4c-0.5,0-0.9-0.5-0.7-1l1.2-4.8
				C5,0.8,5.4,0.5,5.8,0.5z"/>
			<path class="st5" d="M28.5,6.9h-1.9c0.4,0,0.7-0.5,0.6-1l-1-4.8c-0.1-0.4-0.4-0.7-0.7-0.7h1.7c0.4,0,0.8,0.3,0.9,0.7l1.2,4.8
				C29.4,6.4,29,6.9,28.5,6.9z"/>
		</g>
	</g>
	<g>
		<g>
			<g>
				<path class="st7" d="M12.5,11.6v5.9c0,0.3-0.2,0.5-0.5,0.5H8c-0.3,0-0.5-0.2-0.5-0.5v-5.9c0-1.4,1.1-2.5,2.5-2.5
					C11.5,9.1,12.5,10.2,12.5,11.6z"/>
			</g>
			<g>
				<g>
					<path class="st20" d="M11.9,11.6v0.6H8.2v-0.6c0-1,0.8-1.9,1.9-1.9C11.1,9.7,11.9,10.6,11.9,11.6z"/>
				</g>
				<rect x="8.2" y="12.8" class="st20" width="1.6" height="4.5"/>
				<rect x="10.4" y="12.8" class="st20" width="1.6" height="4.5"/>
			</g>
		</g>
		<g>
			<path class="st18" d="M8.2,12.1L8.2,12.1l0.9,0.1l2.1-2.1C11,10,10.8,9.9,10.5,9.8L8.2,12.1z"/>
			<path class="st18" d="M10.3,9.7c-0.1,0-0.2,0-0.3,0c-0.1,0-0.2,0-0.3,0l-1.5,1.5c0,0.1,0,0.2,0,0.3v0.3L10.3,9.7z"/>
		</g>
		<g>
			<polygon class="st18" points="9.7,15.1 8.2,16.7 8.2,17.3 8.5,17.3 9.7,16.1 			"/>
			<polygon class="st18" points="8.2,15.9 8.2,16.4 9.7,14.9 9.7,14.3 			"/>
		</g>
		<g>
			<polygon class="st18" points="10.4,13.7 10.4,14.3 11.8,12.8 11.2,12.8 			"/>
			<polygon class="st18" points="11.9,13 10.4,14.5 10.4,15.5 11.9,13.9 			"/>
		</g>
	</g>
	<g>
		<g>
			<g>
				<path class="st7" d="M19,11.6v5.9c0,0.3-0.2,0.5-0.5,0.5h-4.1c-0.3,0-0.5-0.2-0.5-0.5v-5.9c0-1.4,1.1-2.5,2.5-2.5
					C17.9,9.1,19,10.2,19,11.6z"/>
			</g>
			<g>
				<g>
					<path class="st20" d="M18.3,11.6v0.6h-3.7v-0.6c0-1,0.8-1.9,1.9-1.9C17.5,9.7,18.3,10.6,18.3,11.6z"/>
				</g>
				<rect x="14.6" y="12.8" class="st20" width="1.6" height="4.5"/>
				<rect x="16.8" y="12.8" class="st20" width="1.6" height="4.5"/>
			</g>
		</g>
		<g>
			<path class="st18" d="M14.6,12.1L14.6,12.1l0.9,0.1l2.1-2.1c-0.2-0.1-0.4-0.3-0.6-0.3L14.6,12.1z"/>
			<path class="st18" d="M16.7,9.7c-0.1,0-0.2,0-0.3,0c-0.1,0-0.2,0-0.3,0l-1.5,1.5c0,0.1,0,0.2,0,0.3v0.3L16.7,9.7z"/>
		</g>
		<g>
			<polygon class="st18" points="16.2,15.1 14.6,16.7 14.6,17.3 14.9,17.3 16.2,16.1 			"/>
			<polygon class="st18" points="14.6,15.9 14.6,16.4 16.2,14.9 16.2,14.3 			"/>
		</g>
		<g>
			<polygon class="st18" points="16.8,13.7 16.8,14.3 18.2,12.8 17.6,12.8 			"/>
			<polygon class="st18" points="18.3,13 16.8,14.5 16.8,15.5 18.3,13.9 			"/>
		</g>
	</g>
	<g>
		<g>
			<g>
				<path class="st7" d="M25.4,11.6v5.9c0,0.3-0.2,0.5-0.5,0.5h-4.1c-0.3,0-0.5-0.2-0.5-0.5v-5.9c0-1.4,1.1-2.5,2.5-2.5
					C24.3,9.1,25.4,10.2,25.4,11.6z"/>
			</g>
			<g>
				<g>
					<path class="st20" d="M24.8,11.6v0.6H21v-0.6c0-1,0.8-1.9,1.9-1.9C23.9,9.7,24.8,10.6,24.8,11.6z"/>
				</g>
				<rect x="21" y="12.8" class="st20" width="1.6" height="4.5"/>
				<rect x="23.2" y="12.8" class="st20" width="1.6" height="4.5"/>
			</g>
		</g>
		<g>
			<g>
				<path class="st18" d="M21,12.1L21,12.1l0.9,0.1l2.1-2.1c-0.2-0.1-0.4-0.3-0.6-0.3L21,12.1z"/>
			</g>
			<path class="st18" d="M23.1,9.7c-0.1,0-0.2,0-0.3,0c-0.1,0-0.2,0-0.3,0l-1.5,1.5c0,0.1,0,0.2,0,0.3v0.3L23.1,9.7z"/>
		</g>
		<g>
			<polygon class="st18" points="22.6,15.1 21,16.7 21,17.3 21.4,17.3 22.6,16.1 			"/>
			<polygon class="st18" points="21,15.9 21,16.4 22.6,14.9 22.6,14.3 			"/>
		</g>
		<g>
			<polygon class="st18" points="23.2,13.7 23.2,14.3 24.6,12.8 24.1,12.8 			"/>
			<polygon class="st18" points="24.8,13 23.2,14.5 23.2,15.5 24.8,13.9 			"/>
		</g>
	</g>
	<g>
		<g>
			<g>
				<path class="st7" d="M11.6,21.9v4.8c0,0.2-0.2,0.4-0.4,0.4H7.9c-0.2,0-0.4-0.2-0.4-0.4v-4.8c0-1.1,0.9-2,2-2
					C10.7,19.9,11.6,20.8,11.6,21.9z"/>
			</g>
			<g>
				<g>
					<path class="st20" d="M11.1,21.9v0.5H8.1v-0.5c0-0.8,0.7-1.5,1.5-1.5C10.4,20.4,11.1,21.1,11.1,21.9z"/>
				</g>
				<rect x="8.1" y="22.9" class="st20" width="1.3" height="3.7"/>
				<rect x="9.8" y="22.9" class="st20" width="1.3" height="3.7"/>
			</g>
		</g>
		<g>
			<path class="st18" d="M8.1,22.4L8.1,22.4l0.7,0.1l1.7-1.7c-0.2-0.1-0.3-0.2-0.5-0.3L8.1,22.4z"/>
			<path class="st18" d="M9.8,20.4c-0.1,0-0.1,0-0.2,0c-0.1,0-0.2,0-0.3,0l-1.2,1.2c0,0.1,0,0.2,0,0.3v0.2L9.8,20.4z"/>
		</g>
		<g>
			<polygon class="st18" points="9.3,24.8 8.1,26.1 8.1,26.6 8.3,26.6 9.3,25.6 			"/>
			<polygon class="st18" points="8.1,25.4 8.1,25.9 9.3,24.6 9.3,24.1 			"/>
		</g>
		<g>
			<polygon class="st18" points="9.8,23.6 9.8,24.1 11,22.9 10.5,22.9 			"/>
			<polygon class="st18" points="11.1,23 9.8,24.3 9.8,25.1 11.1,23.8 			"/>
		</g>
	</g>
	<g>
		<g>
			<g>
				<path class="st7" d="M25.4,21.9v4.8c0,0.2-0.2,0.4-0.4,0.4h-3.3c-0.2,0-0.4-0.2-0.4-0.4v-4.8c0-1.1,0.9-2,2-2
					C24.5,19.9,25.4,20.8,25.4,21.9z"/>
			</g>
			<g>
				<g>
					<path class="st20" d="M24.9,21.9v0.5h-3.1v-0.5c0-0.8,0.7-1.5,1.5-1.5C24.2,20.4,24.9,21.1,24.9,21.9z"/>
				</g>
				<rect x="21.8" y="22.9" class="st20" width="1.3" height="3.7"/>
				<rect x="23.6" y="22.9" class="st20" width="1.3" height="3.7"/>
			</g>
		</g>
		<g>
			<path class="st18" d="M21.8,22.4L21.8,22.4l0.7,0.1l1.7-1.7c-0.2-0.1-0.3-0.2-0.5-0.3L21.8,22.4z"/>
			<path class="st18" d="M23.6,20.4c-0.1,0-0.1,0-0.2,0c-0.1,0-0.2,0-0.3,0l-1.2,1.2c0,0.1,0,0.2,0,0.3v0.2L23.6,20.4z"/>
		</g>
		<g>
			<polygon class="st18" points="23.1,24.8 21.8,26.1 21.8,26.6 22.1,26.6 23.1,25.6 			"/>
			<polygon class="st18" points="21.8,25.4 21.8,25.9 23.1,24.6 23.1,24.1 			"/>
		</g>
		<g>
			<polygon class="st18" points="23.6,23.6 23.6,24.1 24.8,22.9 24.3,22.9 			"/>
			<polygon class="st18" points="24.9,23 23.6,24.3 23.6,25.1 24.9,23.8 			"/>
		</g>
	</g>
	<g>
		<g>
			<path class="st16" d="M20.3,20.7v10.1h-7.7V20.7c0-0.3,0.2-0.5,0.5-0.5h6.6C20.1,20.2,20.3,20.4,20.3,20.7z"/>
			<g>
				<rect x="13.4" y="20.9" class="st3" width="6.3" height="10"/>
			</g>
			<g>
				<rect x="14" y="22" class="st4" width="4.9" height="2.9"/>
				<rect x="14" y="25.5" class="st4" width="4.9" height="5.3"/>
			</g>
		</g>
		<g>
			<circle class="st5" cx="18.2" cy="26.6" r="0.3"/>
		</g>
	</g>
</g>
</svg>
