<?xml version="1.0" encoding="utf-8"?>
<!-- Generator: Adobe Illustrator 21.1.0, SVG Export Plug-In . SVG Version: 6.00 Build 0)  -->
<svg version="1.1" id="Layer_1" xmlns="http://www.w3.org/2000/svg" xmlns:xlink="http://www.w3.org/1999/xlink" x="0px" y="0px"
	 viewBox="0 0 33 33" style="enable-background:new 0 0 33 33;" xml:space="preserve">
<style type="text/css">
	.st0{fill:#DAE5EF;}
	.st1{fill:#CBD6E0;}
	.st2{fill:#D03F3F;}
	.st3{fill:#BF3333;}
	.st4{fill:#E24B4B;}
	.st5{fill:#6D4135;}
	.st6{fill:#5B331D;}
	.st7{fill:#3E4347;}
	.st8{fill:#4E99D2;}
	.st9{fill:#65B1EF;}
	.st10{fill:#FFDC97;}
	.st11{fill:#FFCD7D;}
	.st12{fill:#FFE9AB;}
	.st13{fill:#31373A;}
	.st14{fill:#8CC63E;}
	.st15{fill:#FFD93B;}
	.st16{fill:#F4C534;}
	.st17{fill:#59A5E0;}
	.st18{fill:#DEE4E9;}
	.st19{fill:#D3D9DD;}
	.st20{fill:#FFFFFF;}
	.st21{fill:#2AB4CD;}
	.st22{fill:#1DA9BF;}
	.st23{fill:#E9EFF4;}
	.st24{fill:#7FB239;}
	.st25{fill:#719D34;}
	.st26{opacity:0.5;}
	.st27{fill:#BBC7D1;}
	.st28{fill:#E84D88;}
	.st29{fill:#D23F77;}
	.st30{fill:#633B2A;}
	.st31{fill:#E9B02C;}
	.st32{fill:#38C0DC;}
	.st33{fill:#45CBEA;}
	.st34{fill:#5A5F63;}
	.st35{fill:#E18823;}
	.st36{fill:#CF7519;}
	.st37{fill:#428DC3;}
	.st38{fill:#8D9BA3;}
	.st39{fill:#7B8B92;}
	.st40{fill:#ACB9C1;}
	.st41{fill:#846144;}
	.st42{fill:#7A5B44;}
	.st43{fill:#6B503B;}
	.st44{fill:#F29A2E;}
	.st45{fill:#728389;}
	.st46{fill:#FFD68D;}
	.st47{fill:#8F6D52;}
	.st48{fill:#84939A;}
	.st49{opacity:0.1;}
	.st50{fill:#89664C;}
	.st51{opacity:0.15;}
	.st52{fill:#DE9C25;}
	.st53{fill:#2AB4CD;stroke:#FFFFFF;stroke-width:0.5;stroke-linecap:round;stroke-linejoin:round;stroke-miterlimit:10;}
	.st54{fill:#FC97B2;}
	.st55{fill:#E88EA7;}
	.st56{opacity:0.2;}
	.st57{fill:#BB3166;}
	.st58{opacity:0.35;}
	.st59{opacity:0.6;}
	.st60{fill:#F9D087;}
	.st61{fill:#A5856D;}
	.st62{fill:#5C4533;}
	.st63{fill:#9A795F;}
	.st64{fill:#512A1B;}
	.st65{fill:#492418;}
	.st66{fill:#BE630E;}
	.st67{fill:none;}
	.st68{opacity:0.5;fill:#E18823;}
	.st69{opacity:0.1;fill:#FFFFFF;}
	.st70{fill:#FCCB7C;}
	.st71{opacity:0.15;fill:#FFFFFF;}
	.st72{opacity:0.2;fill:#FFFFFF;}
	.st73{opacity:0.5;fill:#CBD6E0;}
</style>
<g>
	<g>
		<rect x="2.3" y="8.9" class="st0" width="28.4" height="18.1"/>
		<g>
			<path class="st4" d="M32.5,9.2c0.1,0.6-0.3,1.1-0.9,1.1H1.4c-0.6,0-1-0.5-0.9-1.1l0.8-3.9c0.1-0.4,0.5-0.7,0.9-0.7h28.6
				c0.4,0,0.8,0.3,0.9,0.7L32.5,9.2z"/>
		</g>
		<g>
			<g>
				<rect x="19.7" y="12" class="st27" width="9" height="15"/>
			</g>
			<g>
				<rect x="20.6" y="13.9" class="st5" width="7.1" height="13.1"/>
			</g>
			<g>
				<rect x="21.5" y="14.9" class="st6" width="5.4" height="7.8"/>
				<rect x="21.5" y="23.6" class="st6" width="5.4" height="3.4"/>
			</g>
			<circle class="st5" cx="25.9" cy="20.4" r="0.3"/>
		</g>
		<g>
			<g>
				<rect x="4.6" y="12" class="st32" width="6" height="13"/>
				<g>
					<rect x="11.2" y="12" class="st32" width="6" height="13"/>
				</g>
			</g>
			<g>
				<polygon class="st33" points="10.6,15.5 10.6,14 4.6,20 4.6,21.5 				"/>
				<polygon class="st33" points="4.6,22.8 4.6,25 4.7,25 10.6,19.1 10.6,16.8 				"/>
				<polygon class="st33" points="15.4,12 11.2,16.1 11.2,18.5 17.2,12.5 17.2,12 				"/>
				<polygon class="st33" points="12.6,12 11.2,13.3 11.2,14.9 14.2,12 				"/>
			</g>
		</g>
	</g>
	<g>
		<path class="st20" d="M5.7,5.8h1.2c0.2,0,0.4,0,0.5,0c0.1,0,0.2,0.1,0.3,0.1C7.9,6,7.9,6.1,8,6.2c0.1,0.1,0.1,0.2,0.1,0.4
			c0,0.1,0,0.3-0.1,0.4S7.8,7.1,7.7,7.2C7.8,7.2,8,7.3,8.1,7.4c0.1,0.1,0.1,0.3,0.1,0.5c0,0.1,0,0.3-0.1,0.4C8.1,8.4,8,8.5,7.9,8.6
			C7.8,8.7,7.6,8.7,7.5,8.7c-0.1,0-0.3,0-0.7,0h-1V5.8z M6.3,6.3V7h0.4C7,7,7.1,7,7.2,7c0.1,0,0.2,0,0.2-0.1s0.1-0.1,0.1-0.2
			c0-0.1,0-0.2-0.1-0.2C7.4,6.3,7.3,6.3,7.2,6.3c-0.1,0-0.2,0-0.5,0H6.3z M6.3,7.5v0.8h0.6c0.2,0,0.4,0,0.4,0c0.1,0,0.2-0.1,0.2-0.1
			S7.6,8,7.6,7.9c0-0.1,0-0.2-0.1-0.2S7.4,7.5,7.3,7.5c-0.1,0-0.3,0-0.5,0H6.3z"/>
		<path class="st20" d="M8.6,7.3c0-0.3,0-0.6,0.1-0.8C8.8,6.4,8.9,6.2,9,6.1s0.2-0.2,0.4-0.3c0.2-0.1,0.4-0.1,0.6-0.1
			c0.4,0,0.8,0.1,1.1,0.4c0.3,0.3,0.4,0.7,0.4,1.1c0,0.5-0.1,0.9-0.4,1.1c-0.3,0.3-0.6,0.4-1.1,0.4C9.6,8.8,9.3,8.7,9,8.4
			C8.7,8.1,8.6,7.8,8.6,7.3z M9.2,7.3c0,0.3,0.1,0.6,0.2,0.8c0.2,0.2,0.4,0.3,0.6,0.3c0.2,0,0.4-0.1,0.6-0.3
			c0.2-0.2,0.2-0.4,0.2-0.8c0-0.3-0.1-0.6-0.2-0.8s-0.4-0.3-0.6-0.3S9.6,6.3,9.5,6.5C9.3,6.7,9.2,6.9,9.2,7.3z"/>
		<path class="st20" d="M12,5.8h0.6v1.6c0,0.3,0,0.4,0,0.5c0,0.1,0.1,0.2,0.2,0.3c0.1,0.1,0.2,0.1,0.4,0.1c0.2,0,0.3,0,0.4-0.1
			c0.1-0.1,0.1-0.2,0.2-0.3c0-0.1,0-0.3,0-0.5V5.8h0.6v1.6c0,0.4,0,0.6,0,0.8c0,0.1-0.1,0.3-0.2,0.4c-0.1,0.1-0.2,0.2-0.4,0.2
			c-0.1,0.1-0.3,0.1-0.6,0.1c-0.3,0-0.5,0-0.7-0.1c-0.1-0.1-0.3-0.2-0.4-0.3c-0.1-0.1-0.1-0.2-0.2-0.3C12,8,12,7.7,12,7.4V5.8z"/>
		<path class="st20" d="M15.7,8.8V6.3h-0.9V5.8h2.4v0.5h-0.9v2.5H15.7z"/>
		<path class="st20" d="M17.5,8.8v-3h0.6v3H17.5z"/>
		<path class="st20" d="M21.1,8.4c0.1,0.1,0.3,0.2,0.5,0.3l-0.2,0.4C21.3,9,21.2,9,21.1,9c0,0-0.2-0.1-0.4-0.3
			c-0.2,0.1-0.4,0.1-0.7,0.1c-0.5,0-0.8-0.1-1.1-0.4c-0.3-0.3-0.4-0.7-0.4-1.1c0-0.5,0.1-0.9,0.4-1.1c0.3-0.3,0.6-0.4,1.1-0.4
			c0.4,0,0.8,0.1,1.1,0.4c0.3,0.3,0.4,0.7,0.4,1.1c0,0.3,0,0.5-0.1,0.7C21.3,8.1,21.3,8.2,21.1,8.4z M20.7,8
			c0.1-0.1,0.1-0.2,0.2-0.3s0.1-0.3,0.1-0.4c0-0.3-0.1-0.6-0.2-0.8s-0.4-0.3-0.6-0.3c-0.2,0-0.4,0.1-0.6,0.3
			c-0.2,0.2-0.2,0.4-0.2,0.8c0,0.3,0.1,0.6,0.2,0.8c0.2,0.2,0.3,0.3,0.6,0.3c0.1,0,0.2,0,0.2,0c-0.1-0.1-0.2-0.1-0.4-0.2l0.2-0.3
			C20.3,7.8,20.5,7.9,20.7,8z"/>
		<path class="st20" d="M22,5.8h0.6v1.6c0,0.3,0,0.4,0,0.5c0,0.1,0.1,0.2,0.2,0.3c0.1,0.1,0.2,0.1,0.4,0.1c0.2,0,0.3,0,0.4-0.1
			c0.1-0.1,0.1-0.2,0.2-0.3c0-0.1,0-0.3,0-0.5V5.8h0.6v1.6c0,0.4,0,0.6,0,0.8c0,0.1-0.1,0.3-0.2,0.4c-0.1,0.1-0.2,0.2-0.4,0.2
			c-0.1,0.1-0.3,0.1-0.6,0.1c-0.3,0-0.5,0-0.7-0.1c-0.1-0.1-0.3-0.2-0.4-0.3c-0.1-0.1-0.1-0.2-0.2-0.3C22,8,22,7.7,22,7.4V5.8z"/>
		<path class="st20" d="M25,8.8v-3h2.2v0.5h-1.6v0.7h1.5v0.5h-1.5v0.8h1.7v0.5H25z"/>
	</g>
	<g>
		<path class="st7" d="M32.5,27.5c0,0.6-0.4,1-1,1h-30c-0.6,0-1-0.4-1-1c0-0.5,0.4-1,1-1h30C32.1,26.5,32.5,26.9,32.5,27.5z"/>
	</g>
</g>
</svg>
