<?xml version="1.0" encoding="utf-8"?>
<!-- Generator: Adobe Illustrator 21.1.0, SVG Export Plug-In . SVG Version: 6.00 Build 0)  -->
<svg version="1.1" id="Layer_1" xmlns="http://www.w3.org/2000/svg" xmlns:xlink="http://www.w3.org/1999/xlink" x="0px" y="0px"
	 viewBox="0 0 33 33" style="enable-background:new 0 0 33 33;" xml:space="preserve">
<style type="text/css">
	.st0{fill:#DAE5EF;}
	.st1{fill:#CBD6E0;}
	.st2{fill:#D03F3F;}
	.st3{fill:#BF3333;}
	.st4{fill:#E24B4B;}
	.st5{fill:#6D4135;}
	.st6{fill:#5B331D;}
	.st7{fill:#3E4347;}
	.st8{fill:#4E99D2;}
	.st9{fill:#65B1EF;}
	.st10{fill:#FFDC97;}
	.st11{fill:#FFCD7D;}
	.st12{fill:#FFE9AB;}
	.st13{fill:#31373A;}
	.st14{fill:#8CC63E;}
	.st15{fill:#FFD93B;}
	.st16{fill:#F4C534;}
	.st17{fill:#59A5E0;}
	.st18{fill:#DEE4E9;}
	.st19{fill:#D3D9DD;}
	.st20{fill:#FFFFFF;}
	.st21{fill:#2AB4CD;}
	.st22{fill:#1DA9BF;}
	.st23{fill:#E9EFF4;}
	.st24{fill:#7FB239;}
	.st25{fill:#719D34;}
	.st26{opacity:0.5;}
	.st27{fill:#BBC7D1;}
	.st28{fill:#E84D88;}
	.st29{fill:#D23F77;}
	.st30{fill:#633B2A;}
	.st31{fill:#E9B02C;}
	.st32{fill:#38C0DC;}
	.st33{fill:#45CBEA;}
	.st34{fill:#5A5F63;}
	.st35{fill:#E18823;}
	.st36{fill:#CF7519;}
	.st37{fill:#428DC3;}
	.st38{fill:#8D9BA3;}
	.st39{fill:#7B8B92;}
	.st40{fill:#ACB9C1;}
	.st41{fill:#846144;}
	.st42{fill:#7A5B44;}
	.st43{fill:#6B503B;}
	.st44{fill:#F29A2E;}
	.st45{fill:#728389;}
	.st46{fill:#FFD68D;}
	.st47{fill:#8F6D52;}
	.st48{fill:#84939A;}
	.st49{opacity:0.1;}
	.st50{fill:#89664C;}
	.st51{opacity:0.15;}
	.st52{fill:#DE9C25;}
	.st53{fill:#2AB4CD;stroke:#FFFFFF;stroke-width:0.5;stroke-linecap:round;stroke-linejoin:round;stroke-miterlimit:10;}
	.st54{fill:#FC97B2;}
	.st55{fill:#E88EA7;}
	.st56{opacity:0.2;}
	.st57{fill:#BB3166;}
	.st58{opacity:0.35;}
	.st59{opacity:0.6;}
	.st60{fill:#F9D087;}
	.st61{fill:#A5856D;}
	.st62{fill:#5C4533;}
	.st63{fill:#9A795F;}
	.st64{fill:#512A1B;}
	.st65{fill:#492418;}
	.st66{fill:#BE630E;}
	.st67{fill:none;}
	.st68{opacity:0.5;fill:#E18823;}
	.st69{opacity:0.1;fill:#FFFFFF;}
	.st70{fill:#FCCB7C;}
	.st71{opacity:0.15;fill:#FFFFFF;}
	.st72{opacity:0.2;fill:#FFFFFF;}
	.st73{opacity:0.5;fill:#CBD6E0;}
</style>
<g>
	<g>
		<g>
			<rect x="5.1" y="14.8" class="st0" width="22.8" height="16.5"/>
		</g>
		<g>
			<g>
				<path class="st7" d="M26,19.3v11.9h-7.5V19.3c0-0.3,0.2-0.5,0.5-0.5h6.6C25.8,18.8,26,19,26,19.3z"/>
			</g>
			<g>
				<rect x="19.5" y="19.8" class="st17" width="5.6" height="3.8"/>
				<g>
					<rect x="19.5" y="24.6" class="st17" width="5.6" height="6.6"/>
				</g>
			</g>
		</g>
		<g>
			<g>
				<g>
					<path class="st14" d="M8.6,13.4v1.1c0,1.5-1.2,2.6-2.6,2.6S3.3,16,3.3,14.5v-1.1H8.6z"/>
				</g>
				<g>
					<polygon class="st24" points="5.7,8.5 3.3,13.4 8.6,13.4 10,8.5 					"/>
				</g>
			</g>
			<g>
				<g>
					<path class="st23" d="M13.9,13.4v1.1c0,1.5-1.2,2.6-2.6,2.6S8.6,16,8.6,14.5v-1.1H13.9z"/>
				</g>
				<g>
					<polygon class="st18" points="10,8.5 8.6,13.4 13.9,13.4 14.3,8.5 					"/>
				</g>
			</g>
			<g>
				<g>
					<path class="st14" d="M19.1,13.4v1.1c0,1.5-1.2,2.6-2.6,2.6s-2.6-1.2-2.6-2.6v-1.1H19.1z"/>
				</g>
				<g>
					<polygon class="st24" points="14.3,8.5 13.9,13.4 19.1,13.4 18.7,8.5 					"/>
				</g>
			</g>
			<g>
				<g>
					<path class="st23" d="M24.4,13.4v1.1c0,1.5-1.2,2.6-2.6,2.6s-2.6-1.2-2.6-2.6v-1.1H24.4z"/>
				</g>
				<g>
					<polygon class="st18" points="18.7,8.5 19.1,13.4 24.4,13.4 23,8.5 					"/>
				</g>
			</g>
			<g>
				<g>
					<path class="st14" d="M29.7,13.4v1.1c0,1.5-1.2,2.6-2.6,2.6c-1.5,0-2.6-1.2-2.6-2.6v-1.1H29.7z"/>
				</g>
				<g>
					<polygon class="st24" points="23,8.5 24.4,13.4 29.7,13.4 27.3,8.5 					"/>
				</g>
			</g>
		</g>
		<g>
			<g>
				<path class="st17" d="M17,19.8v6.7c0,0.5-0.4,0.9-0.9,0.9H8c-0.5,0-0.9-0.4-0.9-0.9v-6.7c0-0.5,0.4-0.9,0.9-0.9h8.1
					C16.6,18.9,17,19.3,17,19.8z"/>
			</g>
			<g>
				<polygon class="st9" points="12.3,18.9 11.4,18.9 7.1,23.2 7.1,24.1 				"/>
				<path class="st9" d="M13.5,18.9l-6.4,6.4v1.2c0,0.3,0.2,0.6,0.4,0.7l8.2-8.2H13.5z"/>
			</g>
		</g>
		<g>
			<path class="st34" d="M31,31.5c0,0.6-0.5,1-1,1H3c-0.6,0-1-0.5-1-1c0-0.6,0.5-1,1-1h27C30.6,30.4,31,30.9,31,31.5z"/>
		</g>
	</g>
	<g>
		<g>
			<path class="st0" d="M28.3,5.7v2c0,0.4-0.3,0.8-0.8,0.8h-22c-0.4,0-0.8-0.3-0.8-0.8v-2c0-0.4,0.3-0.8,0.8-0.8h22
				C27.9,4.9,28.3,5.2,28.3,5.7z"/>
		</g>
		<g>
			<polygon class="st1" points="13.7,6.7 15.5,8.5 23.8,8.5 20.2,4.9 			"/>
		</g>
		<g>
			<g>
				<circle class="st23" cx="16.5" cy="4.2" r="3.7"/>
			</g>
			<g>
				<path class="st4" d="M18.7,4.2c0,0.3-0.2,0.5-0.5,0.5H17v1.1c0,0.3-0.2,0.5-0.5,0.5c-0.3,0-0.5-0.2-0.5-0.5V4.8h-1.1
					c-0.3,0-0.5-0.2-0.5-0.5c0-0.3,0.2-0.5,0.5-0.5H16V2.6C16,2.3,16.2,2,16.5,2C16.8,2,17,2.3,17,2.6v1.1h1.1
					C18.4,3.7,18.7,3.9,18.7,4.2z"/>
			</g>
		</g>
	</g>
</g>
</svg>
