<?xml version="1.0" encoding="utf-8"?>
<!-- Generator: Adobe Illustrator 21.1.0, SVG Export Plug-In . SVG Version: 6.00 Build 0)  -->
<svg version="1.1" id="Layer_1" xmlns="http://www.w3.org/2000/svg" xmlns:xlink="http://www.w3.org/1999/xlink" x="0px" y="0px"
	 viewBox="0 0 33 33" style="enable-background:new 0 0 33 33;" xml:space="preserve">
<style type="text/css">
	.st0{fill:#DAE5EF;}
	.st1{fill:#CBD6E0;}
	.st2{fill:#D03F3F;}
	.st3{fill:#BF3333;}
	.st4{fill:#E24B4B;}
	.st5{fill:#6D4135;}
	.st6{fill:#5B331D;}
	.st7{fill:#3E4347;}
	.st8{fill:#4E99D2;}
	.st9{fill:#65B1EF;}
	.st10{fill:#FFDC97;}
	.st11{fill:#FFCD7D;}
	.st12{fill:#FFE9AB;}
	.st13{fill:#31373A;}
	.st14{fill:#8CC63E;}
	.st15{fill:#FFD93B;}
	.st16{fill:#F4C534;}
	.st17{fill:#59A5E0;}
	.st18{fill:#DEE4E9;}
	.st19{fill:#D3D9DD;}
	.st20{fill:#FFFFFF;}
	.st21{fill:#2AB4CD;}
	.st22{fill:#1DA9BF;}
	.st23{fill:#E9EFF4;}
	.st24{fill:#7FB239;}
	.st25{fill:#719D34;}
	.st26{opacity:0.5;}
	.st27{fill:#BBC7D1;}
	.st28{fill:#E84D88;}
	.st29{fill:#D23F77;}
	.st30{fill:#633B2A;}
	.st31{fill:#E9B02C;}
	.st32{fill:#38C0DC;}
	.st33{fill:#45CBEA;}
	.st34{fill:#5A5F63;}
	.st35{fill:#E18823;}
	.st36{fill:#CF7519;}
	.st37{fill:#428DC3;}
	.st38{fill:#8D9BA3;}
	.st39{fill:#7B8B92;}
	.st40{fill:#ACB9C1;}
	.st41{fill:#846144;}
	.st42{fill:#7A5B44;}
	.st43{fill:#6B503B;}
	.st44{fill:#F29A2E;}
	.st45{fill:#728389;}
	.st46{fill:#FFD68D;}
	.st47{fill:#8F6D52;}
	.st48{fill:#84939A;}
	.st49{opacity:0.1;}
	.st50{fill:#89664C;}
	.st51{opacity:0.15;}
	.st52{fill:#DE9C25;}
	.st53{fill:#2AB4CD;stroke:#FFFFFF;stroke-width:0.5;stroke-linecap:round;stroke-linejoin:round;stroke-miterlimit:10;}
	.st54{fill:#FC97B2;}
	.st55{fill:#E88EA7;}
	.st56{opacity:0.2;}
	.st57{fill:#BB3166;}
	.st58{opacity:0.35;}
	.st59{opacity:0.6;}
	.st60{fill:#F9D087;}
	.st61{fill:#A5856D;}
	.st62{fill:#5C4533;}
	.st63{fill:#9A795F;}
	.st64{fill:#512A1B;}
	.st65{fill:#492418;}
	.st66{fill:#BE630E;}
	.st67{fill:none;}
	.st68{opacity:0.5;fill:#E18823;}
	.st69{opacity:0.1;fill:#FFFFFF;}
	.st70{fill:#FCCB7C;}
	.st71{opacity:0.15;fill:#FFFFFF;}
	.st72{opacity:0.2;fill:#FFFFFF;}
	.st73{opacity:0.5;fill:#CBD6E0;}
</style>
<g>
	<g>
		<path class="st7" d="M32.5,3.9v3.4c0,0.5-0.4,1-1,1h-30c-0.6,0-1-0.5-1-1V3.9c0-0.5,0.4-1,1-1h30C32.1,2.9,32.5,3.4,32.5,3.9z"/>
	</g>
	<g>
		<rect x="2.4" y="8.3" class="st35" width="28.2" height="20.9"/>
	</g>
	<g>
		<path class="st1" d="M32.2,26.5v2.8c0,0.4-0.3,0.8-0.8,0.8H1.5c-0.4,0-0.8-0.3-0.8-0.8v-2.8c0-0.4,0.3-0.8,0.8-0.8h29.9
			C31.9,25.7,32.2,26.1,32.2,26.5z"/>
	</g>
	<g>
		<polygon class="st36" points="30.6,9.8 30.6,8.3 2.4,8.3 		"/>
	</g>
	<g>
		<path class="st20" d="M3.9,4.4h1c0.2,0,0.3,0,0.4,0c0.1,0,0.2,0.1,0.3,0.1c0.1,0.1,0.1,0.1,0.2,0.2C5.9,4.8,5.9,4.9,5.9,5
			c0,0.1,0,0.2-0.1,0.3C5.7,5.4,5.6,5.5,5.5,5.5c0.2,0,0.3,0.1,0.3,0.2C6,5.9,6,6,6,6.1c0,0.1,0,0.2-0.1,0.3
			C5.9,6.6,5.8,6.6,5.7,6.7S5.5,6.8,5.4,6.8c-0.1,0-0.3,0-0.6,0H3.9V4.4z M4.4,4.8v0.6h0.3c0.2,0,0.3,0,0.4,0c0.1,0,0.2,0,0.2-0.1
			c0,0,0.1-0.1,0.1-0.2c0-0.1,0-0.1-0.1-0.2c0,0-0.1-0.1-0.2-0.1c0,0-0.2,0-0.4,0H4.4z M4.4,5.8v0.7h0.5c0.2,0,0.3,0,0.3,0
			c0.1,0,0.1,0,0.2-0.1c0-0.1,0.1-0.1,0.1-0.2c0-0.1,0-0.1-0.1-0.2c0-0.1-0.1-0.1-0.2-0.1c-0.1,0-0.2,0-0.4,0H4.4z"/>
		<path class="st20" d="M8.7,6.8H8.1L7.9,6.3h-1L6.7,6.8H6.2l1-2.5h0.5L8.7,6.8z M7.7,5.9L7.4,4.9L7.1,5.9H7.7z"/>
		<path class="st20" d="M8.9,6.8V4.4H10c0.3,0,0.5,0,0.6,0.1c0.1,0,0.2,0.1,0.3,0.2C10.9,4.8,11,4.9,11,5.1c0,0.2-0.1,0.3-0.2,0.5
			s-0.3,0.2-0.5,0.2c0.1,0.1,0.2,0.1,0.3,0.2c0.1,0.1,0.2,0.2,0.3,0.4l0.3,0.5h-0.6l-0.4-0.5C10.1,6.1,10,6,9.9,5.9
			c0-0.1-0.1-0.1-0.2-0.1s-0.1,0-0.3,0H9.4v1H8.9z M9.4,5.4h0.4c0.2,0,0.4,0,0.4,0c0.1,0,0.1-0.1,0.1-0.1c0,0,0.1-0.1,0.1-0.2
			c0-0.1,0-0.2-0.1-0.2c0-0.1-0.1-0.1-0.2-0.1c0,0-0.2,0-0.4,0H9.4V5.4z"/>
		<path class="st20" d="M11.4,4.4h1c0.2,0,0.3,0,0.4,0c0.1,0,0.2,0.1,0.3,0.1c0.1,0.1,0.1,0.1,0.2,0.2c0.1,0.1,0.1,0.2,0.1,0.3
			c0,0.1,0,0.2-0.1,0.3c-0.1,0.1-0.1,0.2-0.3,0.2c0.2,0,0.3,0.1,0.3,0.2c0.1,0.1,0.1,0.2,0.1,0.4c0,0.1,0,0.2-0.1,0.3
			c-0.1,0.1-0.1,0.2-0.2,0.3S13,6.8,12.9,6.8c-0.1,0-0.3,0-0.6,0h-0.8V4.4z M11.9,4.8v0.6h0.3c0.2,0,0.3,0,0.4,0
			c0.1,0,0.2,0,0.2-0.1c0,0,0.1-0.1,0.1-0.2c0-0.1,0-0.1-0.1-0.2c0,0-0.1-0.1-0.2-0.1c0,0-0.2,0-0.4,0H11.9z M11.9,5.8v0.7h0.5
			c0.2,0,0.3,0,0.3,0c0.1,0,0.1,0,0.2-0.1C13,6.3,13,6.2,13,6.1C13,6,13,6,12.9,5.9c0-0.1-0.1-0.1-0.2-0.1c-0.1,0-0.2,0-0.4,0H11.9z
			"/>
		<path class="st20" d="M13.9,6.8V4.4h1.8v0.4h-1.3v0.5h1.2v0.4h-1.2v0.7h1.4v0.4H13.9z"/>
		<path class="st20" d="M16.2,6.8V4.4h1.1c0.3,0,0.5,0,0.6,0.1s0.2,0.1,0.3,0.2c0.1,0.1,0.1,0.2,0.1,0.4c0,0.2-0.1,0.3-0.2,0.5
			s-0.3,0.2-0.5,0.2c0.1,0.1,0.2,0.1,0.3,0.2C17.9,6,18,6.2,18.1,6.4l0.3,0.5h-0.6l-0.4-0.5c-0.1-0.2-0.2-0.3-0.3-0.4
			c0-0.1-0.1-0.1-0.2-0.1c-0.1,0-0.1,0-0.3,0h-0.1v1H16.2z M16.7,5.4h0.4c0.2,0,0.4,0,0.4,0c0.1,0,0.1-0.1,0.1-0.1
			c0,0,0.1-0.1,0.1-0.2c0-0.1,0-0.2-0.1-0.2c0-0.1-0.1-0.1-0.2-0.1c0,0-0.2,0-0.4,0h-0.4V5.4z"/>
		<path class="st20" d="M19.6,6L20,6c0,0.2,0.1,0.3,0.2,0.4s0.2,0.1,0.4,0.1c0.2,0,0.3,0,0.4-0.1c0.1-0.1,0.1-0.1,0.1-0.2
			C21.1,6.1,21,6,21,6c0,0-0.1-0.1-0.2-0.1c-0.1,0-0.2-0.1-0.4-0.1c-0.3-0.1-0.5-0.1-0.6-0.2c-0.2-0.1-0.2-0.3-0.2-0.5
			c0-0.1,0-0.2,0.1-0.4c0.1-0.1,0.2-0.2,0.3-0.3c0.1-0.1,0.3-0.1,0.5-0.1c0.3,0,0.5,0.1,0.7,0.2s0.2,0.3,0.2,0.5l-0.5,0
			c0-0.1-0.1-0.2-0.1-0.3s-0.2-0.1-0.3-0.1c-0.1,0-0.3,0-0.3,0.1c-0.1,0-0.1,0.1-0.1,0.2c0,0.1,0,0.1,0.1,0.2
			c0.1,0.1,0.2,0.1,0.5,0.2c0.2,0.1,0.4,0.1,0.5,0.2c0.1,0.1,0.2,0.1,0.3,0.3c0.1,0.1,0.1,0.2,0.1,0.4c0,0.1,0,0.3-0.1,0.4
			c-0.1,0.1-0.2,0.2-0.3,0.3c-0.1,0.1-0.3,0.1-0.5,0.1c-0.3,0-0.6-0.1-0.7-0.2C19.7,6.5,19.6,6.3,19.6,6z"/>
		<path class="st20" d="M22,6.8V4.4h0.5v1h1v-1H24v2.5h-0.5V5.8h-1v1.1H22z"/>
		<path class="st20" d="M24.4,5.6c0-0.3,0-0.5,0.1-0.6c0.1-0.1,0.1-0.2,0.2-0.3c0.1-0.1,0.2-0.2,0.3-0.2c0.2-0.1,0.3-0.1,0.5-0.1
			c0.4,0,0.7,0.1,0.9,0.3c0.2,0.2,0.3,0.5,0.3,0.9c0,0.4-0.1,0.7-0.3,0.9c-0.2,0.2-0.5,0.3-0.9,0.3c-0.4,0-0.7-0.1-0.9-0.3
			C24.5,6.3,24.4,6,24.4,5.6z M24.9,5.6c0,0.3,0.1,0.5,0.2,0.6c0.1,0.1,0.3,0.2,0.5,0.2c0.2,0,0.4-0.1,0.5-0.2
			c0.1-0.1,0.2-0.4,0.2-0.6c0-0.3-0.1-0.5-0.2-0.6c-0.1-0.1-0.3-0.2-0.5-0.2c-0.2,0-0.4,0.1-0.5,0.2S24.9,5.3,24.9,5.6z"/>
		<path class="st20" d="M27.2,6.8V4.4H28c0.3,0,0.5,0,0.6,0c0.1,0,0.3,0.1,0.4,0.2c0.1,0.1,0.1,0.3,0.1,0.5c0,0.2,0,0.3-0.1,0.4
			c-0.1,0.1-0.1,0.2-0.2,0.2c-0.1,0.1-0.2,0.1-0.3,0.1c-0.1,0-0.3,0-0.5,0h-0.3v0.9H27.2z M27.7,4.8v0.7h0.3c0.2,0,0.3,0,0.4,0
			c0.1,0,0.1-0.1,0.2-0.1c0-0.1,0.1-0.1,0.1-0.2c0-0.1,0-0.2-0.1-0.2c-0.1-0.1-0.1-0.1-0.2-0.1c-0.1,0-0.2,0-0.4,0H27.7z"/>
	</g>
	<g>
		<g>
			<g>
				<path class="st5" d="M10.3,11.4v12.3c0,0.3-0.2,0.5-0.5,0.5H4.6c-0.3,0-0.5-0.2-0.5-0.5V11.4c0-0.3,0.2-0.5,0.5-0.5h5.2
					C10.1,10.9,10.3,11.1,10.3,11.4z"/>
				<g>
					
						<rect x="1.5" y="15.3" transform="matrix(-1.836970e-16 1 -1 -1.836970e-16 24.7505 10.3228)" class="st37" width="11.5" height="4.4"/>
				</g>
			</g>
			<g>
				<polygon class="st8" points="9.4,14.3 5,19.6 5,22 9.4,16.7 				"/>
				<polygon class="st8" points="9.4,13.1 9.4,11.8 5,17.2 5,18.4 				"/>
			</g>
		</g>
		<g>
			<g>
				<path class="st5" d="M17.5,11.4v12.3c0,0.3-0.2,0.5-0.5,0.5h-5.2c-0.3,0-0.5-0.2-0.5-0.5V11.4c0-0.3,0.2-0.5,0.5-0.5H17
					C17.3,10.9,17.5,11.1,17.5,11.4z"/>
				<g>
					
						<rect x="8.6" y="15.3" transform="matrix(-1.836970e-16 1 -1 -1.836970e-16 31.9137 3.1597)" class="st37" width="11.5" height="4.4"/>
				</g>
			</g>
			<g>
				<polygon class="st8" points="16.6,14.3 12.2,19.6 12.2,22 16.6,16.7 				"/>
				<polygon class="st8" points="16.6,13.1 16.6,11.8 12.2,17.2 12.2,18.4 				"/>
			</g>
		</g>
	</g>
	<g>
		<g>
			<path class="st5" d="M28.8,11.6v17.6h-9.5V11.6c0-0.4,0.3-0.8,0.8-0.8h8C28.4,10.9,28.8,11.2,28.8,11.6z"/>
			<g>
				<g>
					<rect x="20.3" y="12" class="st37" width="7.5" height="4.9"/>
				</g>
				<g>
					<rect x="20.3" y="17.9" class="st6" width="7.5" height="11.3"/>
				</g>
			</g>
		</g>
		<g>
			<g>
				<polygon class="st8" points="24.8,12 20.7,16.9 22.7,16.9 26.7,12 				"/>
				<polygon class="st8" points="22.8,12 20.3,15 20.3,16.2 23.7,12 				"/>
			</g>
		</g>
	</g>
	<g>
		<rect x="17.6" y="27.9" class="st38" width="12.8" height="2.2"/>
	</g>
	<g>
		<rect x="18.7" y="25.7" class="st39" width="10.6" height="2.2"/>
	</g>
</g>
</svg>
