<?xml version="1.0" encoding="utf-8"?>
<!-- Generator: Adobe Illustrator 21.1.0, SVG Export Plug-In . SVG Version: 6.00 Build 0)  -->
<svg version="1.1" id="Layer_1" xmlns="http://www.w3.org/2000/svg" xmlns:xlink="http://www.w3.org/1999/xlink" x="0px" y="0px"
	 viewBox="0 0 33 33" style="enable-background:new 0 0 33 33;" xml:space="preserve">
<style type="text/css">
	.st0{fill:#DAE5EF;}
	.st1{fill:#CBD6E0;}
	.st2{fill:#D03F3F;}
	.st3{fill:#BF3333;}
	.st4{fill:#E24B4B;}
	.st5{fill:#6D4135;}
	.st6{fill:#5B331D;}
	.st7{fill:#3E4347;}
	.st8{fill:#4E99D2;}
	.st9{fill:#65B1EF;}
	.st10{fill:#FFDC97;}
	.st11{fill:#FFCD7D;}
	.st12{fill:#FFE9AB;}
	.st13{fill:#31373A;}
	.st14{fill:#8CC63E;}
	.st15{fill:#FFD93B;}
	.st16{fill:#F4C534;}
	.st17{fill:#59A5E0;}
	.st18{fill:#DEE4E9;}
	.st19{fill:#D3D9DD;}
	.st20{fill:#FFFFFF;}
	.st21{fill:#2AB4CD;}
	.st22{fill:#1DA9BF;}
	.st23{fill:#E9EFF4;}
	.st24{fill:#7FB239;}
	.st25{fill:#719D34;}
	.st26{opacity:0.5;}
	.st27{fill:#BBC7D1;}
	.st28{fill:#E84D88;}
	.st29{fill:#D23F77;}
	.st30{fill:#633B2A;}
	.st31{fill:#E9B02C;}
	.st32{fill:#38C0DC;}
	.st33{fill:#45CBEA;}
	.st34{fill:#5A5F63;}
	.st35{fill:#E18823;}
	.st36{fill:#CF7519;}
	.st37{fill:#428DC3;}
	.st38{fill:#8D9BA3;}
	.st39{fill:#7B8B92;}
	.st40{fill:#ACB9C1;}
	.st41{fill:#846144;}
	.st42{fill:#7A5B44;}
	.st43{fill:#6B503B;}
	.st44{fill:#F29A2E;}
	.st45{fill:#728389;}
	.st46{fill:#FFD68D;}
	.st47{fill:#8F6D52;}
	.st48{fill:#84939A;}
	.st49{opacity:0.1;}
	.st50{fill:#89664C;}
	.st51{opacity:0.15;}
	.st52{fill:#DE9C25;}
	.st53{fill:#2AB4CD;stroke:#FFFFFF;stroke-width:0.5;stroke-linecap:round;stroke-linejoin:round;stroke-miterlimit:10;}
	.st54{fill:#FC97B2;}
	.st55{fill:#E88EA7;}
	.st56{opacity:0.2;}
	.st57{fill:#BB3166;}
	.st58{opacity:0.35;}
	.st59{opacity:0.6;}
	.st60{fill:#F9D087;}
	.st61{fill:#A5856D;}
	.st62{fill:#5C4533;}
	.st63{fill:#9A795F;}
	.st64{fill:#512A1B;}
	.st65{fill:#492418;}
	.st66{fill:#BE630E;}
	.st67{fill:none;}
	.st68{opacity:0.5;fill:#E18823;}
	.st69{opacity:0.1;fill:#FFFFFF;}
	.st70{fill:#FCCB7C;}
	.st71{opacity:0.15;fill:#FFFFFF;}
	.st72{opacity:0.2;fill:#FFFFFF;}
	.st73{opacity:0.5;fill:#CBD6E0;}
</style>
<g>
	<g>
		<g>
			<g>
				<rect x="11.3" y="7.6" class="st0" width="10.5" height="9.8"/>
			</g>
		</g>
		<g>
			<g>
				<rect x="11.3" y="7.6" class="st1" width="10.5" height="1.3"/>
			</g>
		</g>
		<g>
			<g>
				<g>
					<path class="st15" d="M18.4,15.1V12c0-1.1-0.9-1.9-1.9-1.9h0c-1.1,0-1.9,0.9-1.9,1.9v3.1H18.4z"/>
					<path class="st7" d="M18.4,15.4h-3.8c-0.2,0-0.3-0.1-0.3-0.3V12c0-1.2,1-2.2,2.2-2.2c1.2,0,2.2,1,2.2,2.2v3.1
						C18.7,15.3,18.6,15.4,18.4,15.4z M14.9,14.8h3.2V12c0-0.9-0.7-1.6-1.6-1.6c-0.9,0-1.6,0.7-1.6,1.6V14.8z"/>
				</g>
			</g>
			<g>
				<g>
					<rect x="14.6" y="12.4" class="st7" width="3.8" height="0.6"/>
				</g>
			</g>
			<g>
				<rect x="16.2" y="10.1" class="st7" width="0.6" height="5"/>
			</g>
		</g>
		<g>
			<g>
				<g>
					<path class="st2" d="M22.7,8.2H10.3c-0.7,0-1-0.8-0.5-1.3l6.1-6.1c0.4-0.4,0.9-0.4,1.3,0l6.1,6.1C23.7,7.4,23.4,8.2,22.7,8.2z"
						/>
				</g>
			</g>
			<g>
				<g>
					<path class="st3" d="M15.9,0.8c0.2-0.2,0.4-0.3,0.6-0.3c-0.1,0-0.2,0.1-0.3,0.3l-2.6,6.7c-0.1,0.2-0.1,0.4-0.1,0.7h-3.2
						c-0.7,0-1-0.8-0.5-1.3L15.9,0.8z"/>
					<path class="st4" d="M22.7,8.2h-3.2c0-0.2,0-0.5-0.1-0.7l-2.6-6.7c-0.1-0.2-0.2-0.3-0.3-0.3c0.2,0,0.5,0.1,0.7,0.3l6.1,6.1
						C23.7,7.4,23.4,8.2,22.7,8.2z"/>
				</g>
			</g>
		</g>
	</g>
	<g>
		<g>
			<g>
				<rect x="2.6" y="19.6" class="st0" width="27.9" height="12.9"/>
			</g>
		</g>
		<g>
			<g>
				<rect x="2.6" y="30.5" class="st27" width="27.9" height="2"/>
			</g>
		</g>
		<g>
			<g>
				<rect x="2.6" y="19.6" class="st1" width="27.9" height="1.5"/>
			</g>
		</g>
		<g>
			<g>
				<path class="st21" d="M32.5,19.7c0,0.2-0.2,0.4-0.4,0.4H0.9c-0.2,0-0.4-0.2-0.4-0.4L1,16.6c0-0.2,0.2-0.4,0.5-0.4h30.1
					c0.2,0,0.4,0.2,0.5,0.4L32.5,19.7z"/>
			</g>
		</g>
		<path class="st22" d="M1.5,16.2h1.4c-0.2,0-0.4,0.2-0.4,0.4L2,19.7c0,0.2,0.1,0.4,0.3,0.4H0.9c-0.2,0-0.4-0.2-0.4-0.4L1,16.6
			C1,16.3,1.2,16.2,1.5,16.2z"/>
		<g>
			<g>
				<path class="st1" d="M12.6,32.5v-7.2c0-2.1-1.7-3.7-3.7-3.7h0c-2.1,0-3.7,1.7-3.7,3.7v7.2H12.6z"/>
			</g>
		</g>
		<g>
			<g>
				<path class="st7" d="M11.6,32.5v-5.3c0-1.5-1.2-2.7-2.7-2.7h0c-1.5,0-2.7,1.2-2.7,2.7v5.3H11.6z"/>
			</g>
		</g>
		<g>
			<g>
				<g>
					<g>
						<path class="st15" d="M20.8,29.2v-4.9c0-1.2-1-2.1-2.1-2.1h0c-1.2,0-2.1,1-2.1,2.1v4.9H20.8z"/>
						<path class="st7" d="M20.8,29.5h-4.3c-0.2,0-0.3-0.1-0.3-0.3v-4.9c0-1.3,1.1-2.4,2.4-2.4c1.3,0,2.4,1.1,2.4,2.4v4.9
							C21.1,29.3,20.9,29.5,20.8,29.5z M16.8,28.9h3.7v-4.6c0-1-0.8-1.8-1.8-1.8c-1,0-1.8,0.8-1.8,1.8V28.9z"/>
					</g>
				</g>
				<g>
					<path class="st7" d="M20.8,25.8h-4.3c-0.2,0-0.3-0.1-0.3-0.3c0-0.2,0.1-0.3,0.3-0.3h4.3c0.2,0,0.3,0.1,0.3,0.3
						C21.1,25.6,20.9,25.8,20.8,25.8z"/>
				</g>
				<g>
					<path class="st7" d="M18.6,29.5c-0.2,0-0.3-0.1-0.3-0.3v-7.1c0-0.2,0.1-0.3,0.3-0.3c0.2,0,0.3,0.1,0.3,0.3v7.1
						C18.9,29.3,18.8,29.5,18.6,29.5z"/>
				</g>
			</g>
			<g>
				<g>
					<g>
						<path class="st15" d="M27.7,29.2v-4.9c0-1.2-1-2.1-2.1-2.1h0c-1.2,0-2.1,1-2.1,2.1v4.9H27.7z"/>
						<path class="st7" d="M27.7,29.5h-4.3c-0.2,0-0.3-0.1-0.3-0.3v-4.9c0-1.3,1.1-2.4,2.4-2.4c1.3,0,2.4,1.1,2.4,2.4v4.9
							C28,29.3,27.9,29.5,27.7,29.5z M23.7,28.9h3.7v-4.6c0-1-0.8-1.8-1.8-1.8c-1,0-1.8,0.8-1.8,1.8V28.9z"/>
					</g>
				</g>
				<g>
					<path class="st7" d="M27.7,25.8h-4.3c-0.2,0-0.3-0.1-0.3-0.3c0-0.2,0.1-0.3,0.3-0.3h4.3c0.2,0,0.3,0.1,0.3,0.3
						C28,25.6,27.9,25.8,27.7,25.8z"/>
				</g>
				<g>
					<path class="st7" d="M25.6,29.5c-0.2,0-0.3-0.1-0.3-0.3v-7.1c0-0.2,0.1-0.3,0.3-0.3s0.3,0.1,0.3,0.3v7.1
						C25.9,29.3,25.7,29.5,25.6,29.5z"/>
				</g>
			</g>
		</g>
	</g>
	<g>
		<g>
			<g>
				<g>
					<path class="st32" d="M32.5,19.6c0,0.2-0.1,0.4-0.4,0.4h-1.5c0.2,0,0.4-0.2,0.3-0.4l-0.4-3.1c0-0.2-0.2-0.4-0.4-0.4h1.4
						c0.2,0,0.4,0.2,0.5,0.4L32.5,19.6z"/>
				</g>
			</g>
		</g>
	</g>
</g>
</svg>
