<?xml version="1.0" encoding="utf-8"?>
<!-- Generator: Adobe Illustrator 21.1.0, SVG Export Plug-In . SVG Version: 6.00 Build 0)  -->
<svg version="1.1" id="Layer_1" xmlns="http://www.w3.org/2000/svg" xmlns:xlink="http://www.w3.org/1999/xlink" x="0px" y="0px"
	 viewBox="0 0 33 33" style="enable-background:new 0 0 33 33;" xml:space="preserve">
<style type="text/css">
	.st0{fill:#DAE5EF;}
	.st1{fill:#CBD6E0;}
	.st2{fill:#D03F3F;}
	.st3{fill:#BF3333;}
	.st4{fill:#E24B4B;}
	.st5{fill:#6D4135;}
	.st6{fill:#5B331D;}
	.st7{fill:#3E4347;}
	.st8{fill:#4E99D2;}
	.st9{fill:#65B1EF;}
	.st10{fill:#FFDC97;}
	.st11{fill:#FFCD7D;}
	.st12{fill:#FFE9AB;}
	.st13{fill:#31373A;}
	.st14{fill:#8CC63E;}
	.st15{fill:#FFD93B;}
	.st16{fill:#F4C534;}
	.st17{fill:#59A5E0;}
	.st18{fill:#DEE4E9;}
	.st19{fill:#D3D9DD;}
	.st20{fill:#FFFFFF;}
	.st21{fill:#2AB4CD;}
	.st22{fill:#1DA9BF;}
	.st23{fill:#E9EFF4;}
	.st24{fill:#7FB239;}
	.st25{fill:#719D34;}
	.st26{opacity:0.5;}
	.st27{fill:#BBC7D1;}
	.st28{fill:#E84D88;}
	.st29{fill:#D23F77;}
	.st30{fill:#633B2A;}
	.st31{fill:#E9B02C;}
	.st32{fill:#38C0DC;}
	.st33{fill:#45CBEA;}
	.st34{fill:#5A5F63;}
	.st35{fill:#E18823;}
	.st36{fill:#CF7519;}
	.st37{fill:#428DC3;}
	.st38{fill:#8D9BA3;}
	.st39{fill:#7B8B92;}
	.st40{fill:#ACB9C1;}
	.st41{fill:#846144;}
	.st42{fill:#7A5B44;}
	.st43{fill:#6B503B;}
	.st44{fill:#F29A2E;}
	.st45{fill:#728389;}
	.st46{fill:#FFD68D;}
	.st47{fill:#8F6D52;}
	.st48{fill:#84939A;}
	.st49{opacity:0.1;}
	.st50{fill:#89664C;}
	.st51{opacity:0.15;}
	.st52{fill:#DE9C25;}
	.st53{fill:#2AB4CD;stroke:#FFFFFF;stroke-width:0.5;stroke-linecap:round;stroke-linejoin:round;stroke-miterlimit:10;}
	.st54{fill:#FC97B2;}
	.st55{fill:#E88EA7;}
	.st56{opacity:0.2;}
	.st57{fill:#BB3166;}
	.st58{opacity:0.35;}
	.st59{opacity:0.6;}
	.st60{fill:#F9D087;}
	.st61{fill:#A5856D;}
	.st62{fill:#5C4533;}
	.st63{fill:#9A795F;}
	.st64{fill:#512A1B;}
	.st65{fill:#492418;}
	.st66{fill:#BE630E;}
	.st67{fill:none;}
	.st68{opacity:0.5;fill:#E18823;}
	.st69{opacity:0.1;fill:#FFFFFF;}
	.st70{fill:#FCCB7C;}
	.st71{opacity:0.15;fill:#FFFFFF;}
	.st72{opacity:0.2;fill:#FFFFFF;}
	.st73{opacity:0.5;fill:#CBD6E0;}
</style>
<g>
	<g>
		<g>
			<g>
				<polygon class="st0" points="31.1,32.5 31.1,7.7 1.9,15.1 1.9,32.5 				"/>
			</g>
			<g>
				<polygon class="st0" points="31.1,32.5 31.1,7.7 1.9,15.1 1.9,32.5 				"/>
			</g>
			<g>
				<rect x="1.9" y="29.9" class="st27" width="29.2" height="2.6"/>
			</g>
		</g>
		<g>
			<rect x="10.2" y="6.4" class="st23" width="12.6" height="26.1"/>
		</g>
		<g>
			<g>
				<g>
					<path class="st7" d="M8.1,19.1v7.6c0,0.3-0.2,0.5-0.5,0.5h-3C4.3,27.2,4,27,4,26.7v-7.6c0-0.3,0.2-0.5,0.5-0.5h3
						C7.8,18.6,8.1,18.8,8.1,19.1z"/>
				</g>
				<g>
					<path class="st7" d="M8.1,19.1v7.6c0,0.3-0.2,0.5-0.5,0.5h-3C4.3,27.2,4,27,4,26.7v-7.6c0-0.3,0.2-0.5,0.5-0.5h3
						C7.8,18.6,8.1,18.8,8.1,19.1z"/>
				</g>
				<g>
					<g>
						<path class="st44" d="M4.6,26.6h2.9v-7.5H4.6V26.6z"/>
					</g>
				</g>
			</g>
			<g class="st56">
				<polygon class="st20" points="4.6,25.8 6.4,19.2 6,19.2 4.6,24.9 				"/>
				<polygon class="st20" points="7.3,19.2 6.6,19.2 4.6,26.4 4.6,26.6 5.2,26.6 				"/>
			</g>
		</g>
		<g>
			<g>
				<g>
					<path class="st7" d="M28.8,21v5.7c0,0.3-0.2,0.5-0.5,0.5h-3c-0.3,0-0.5-0.2-0.5-0.5V21c0-0.3,0.2-0.5,0.5-0.5h3
						C28.6,20.5,28.8,20.7,28.8,21z"/>
				</g>
				<g>
					<path class="st7" d="M28.8,21v5.7c0,0.3-0.2,0.5-0.5,0.5h-3c-0.3,0-0.5-0.2-0.5-0.5V21c0-0.3,0.2-0.5,0.5-0.5h3
						C28.6,20.5,28.8,20.7,28.8,21z"/>
				</g>
				<g>
					<g>
						<path class="st44" d="M25.4,26.6h2.9V21h-2.9V26.6z"/>
					</g>
				</g>
			</g>
			<g class="st56">
				<polygon class="st20" points="25.4,25.8 27.1,21 26.8,21 25.4,24.9 				"/>
				<polygon class="st20" points="28.1,21 27.4,21 25.4,26.4 25.4,26.6 26,26.6 				"/>
			</g>
		</g>
		<g>
			<g>
				<g>
					<path class="st7" d="M28.8,14.7V19c0,0.3-0.2,0.5-0.5,0.5h-3c-0.3,0-0.5-0.2-0.5-0.5v-4.2c0-0.3,0.2-0.5,0.5-0.5h3
						C28.6,14.2,28.8,14.5,28.8,14.7z"/>
				</g>
				<g>
					<g>
						<path class="st15" d="M25.4,18.9h2.9v-4.1h-2.9V18.9z"/>
					</g>
				</g>
			</g>
			<g>
				<g>
					<g>
						<path class="st44" d="M25.4,18.9h2.9v-4.1h-2.9V18.9z"/>
					</g>
				</g>
			</g>
			<g class="st56">
				<polygon class="st20" points="25.4,17.9 26.5,14.8 26.2,14.8 25.4,17 				"/>
				<polygon class="st20" points="27.5,14.8 26.8,14.8 25.4,18.6 25.4,18.9 25.9,18.9 				"/>
			</g>
		</g>
		<g>
			<rect x="12.5" y="21" class="st1" width="7.9" height="11.5"/>
		</g>
		<g>
			<g>
				<rect x="13.4" y="22.9" class="st42" width="6.3" height="9.6"/>
				<g>
					<rect x="13.9" y="23.4" class="st43" width="5.2" height="3.3"/>
					<rect x="13.9" y="27.3" class="st43" width="2.3" height="4.6"/>
					<rect x="16.8" y="27.3" class="st43" width="2.3" height="4.6"/>
				</g>
			</g>
			<circle class="st42" cx="18.4" cy="28.3" r="0.3"/>
		</g>
		<g>
			<g>
				<path class="st7" d="M19.6,15c0,1.7-1.4,3.1-3.1,3.1s-3.1-1.4-3.1-3.1c0-1.7,1.4-3.1,3.1-3.1S19.6,13.3,19.6,15z"/>
			</g>
			<g>
				<path class="st44" d="M19,15c0,1.4-1.1,2.5-2.5,2.5S14,16.4,14,15c0-1.4,1.1-2.5,2.5-2.5S19,13.7,19,15z"/>
			</g>
			<g class="st56">
				<path class="st20" d="M15.9,12.6l-1.4,4c0.1,0.1,0.1,0.2,0.2,0.2l1.5-4.3C16.2,12.6,16.1,12.6,15.9,12.6z"/>
				<path class="st20" d="M14.9,17c0.2,0.1,0.4,0.3,0.6,0.4l1.7-4.7c-0.2-0.1-0.5-0.1-0.7-0.1L14.9,17z"/>
			</g>
		</g>
	</g>
	<g>
		<g>
			<polygon class="st0" points="31.1,32.5 31.1,7.7 1.9,15.1 1.9,32.5 			"/>
		</g>
		<g>
			<polygon class="st0" points="31.1,32.5 31.1,7.7 1.9,15.1 1.9,32.5 			"/>
		</g>
		<polygon class="st1" points="1.9,18.3 31.1,10.8 31.1,7.7 1.9,15.1 		"/>
		<g>
			<g>
				<path class="st34" d="M32.5,6.4v2.7c0,0.2-0.1,0.4-0.3,0.5L1.1,17.5c-0.3,0.1-0.6-0.1-0.6-0.5v-2.7c0-0.2,0.2-0.4,0.4-0.5
					l31-7.9C32.2,5.9,32.5,6.1,32.5,6.4z"/>
			</g>
		</g>
		<g>
			<rect x="1.9" y="29.9" class="st27" width="29.2" height="2.6"/>
		</g>
	</g>
	<g>
		<rect x="10.2" y="6.4" class="st23" width="12.6" height="26.1"/>
	</g>
	<g>
		<polygon class="st18" points="22.8,7.1 22.8,8 10.2,7.1 		"/>
	</g>
	<g>
		<g>
			<g>
				<path class="st7" d="M8.1,19.1v7.6c0,0.3-0.2,0.5-0.5,0.5h-3C4.3,27.2,4,27,4,26.7v-7.6c0-0.3,0.2-0.5,0.5-0.5h3
					C7.8,18.6,8.1,18.8,8.1,19.1z"/>
			</g>
			<g>
				<path class="st7" d="M8.1,19.1v7.6c0,0.3-0.2,0.5-0.5,0.5h-3C4.3,27.2,4,27,4,26.7v-7.6c0-0.3,0.2-0.5,0.5-0.5h3
					C7.8,18.6,8.1,18.8,8.1,19.1z"/>
			</g>
			<g>
				<g>
					<path class="st44" d="M4.6,26.6h2.9v-7.5H4.6V26.6z"/>
				</g>
			</g>
		</g>
		<g class="st56">
			<polygon class="st20" points="4.6,25.8 6.4,19.2 6,19.2 4.6,24.9 			"/>
			<polygon class="st20" points="7.3,19.2 6.6,19.2 4.6,26.4 4.6,26.6 5.2,26.6 			"/>
		</g>
	</g>
	<g>
		<g>
			<g>
				<path class="st7" d="M28.8,21v5.7c0,0.3-0.2,0.5-0.5,0.5h-3c-0.3,0-0.5-0.2-0.5-0.5V21c0-0.3,0.2-0.5,0.5-0.5h3
					C28.6,20.5,28.8,20.7,28.8,21z"/>
			</g>
			<g>
				<path class="st7" d="M28.8,21v5.7c0,0.3-0.2,0.5-0.5,0.5h-3c-0.3,0-0.5-0.2-0.5-0.5V21c0-0.3,0.2-0.5,0.5-0.5h3
					C28.6,20.5,28.8,20.7,28.8,21z"/>
			</g>
			<g>
				<g>
					<path class="st44" d="M25.4,26.6h2.9V21h-2.9V26.6z"/>
				</g>
			</g>
		</g>
		<g class="st56">
			<polygon class="st20" points="25.4,25.8 27.1,21 26.8,21 25.4,24.9 			"/>
			<polygon class="st20" points="28.1,21 27.4,21 25.4,26.4 25.4,26.6 26,26.6 			"/>
		</g>
	</g>
	<g>
		<g>
			<g>
				<path class="st7" d="M28.8,14.7V19c0,0.3-0.2,0.5-0.5,0.5h-3c-0.3,0-0.5-0.2-0.5-0.5v-4.2c0-0.3,0.2-0.5,0.5-0.5h3
					C28.6,14.2,28.8,14.5,28.8,14.7z"/>
			</g>
			<g>
				<g>
					<path class="st15" d="M25.4,18.9h2.9v-4.1h-2.9V18.9z"/>
				</g>
			</g>
		</g>
		<g>
			<g>
				<g>
					<path class="st44" d="M25.4,18.9h2.9v-4.1h-2.9V18.9z"/>
				</g>
			</g>
		</g>
		<g class="st56">
			<polygon class="st20" points="25.4,17.9 26.5,14.8 26.2,14.8 25.4,17 			"/>
			<polygon class="st20" points="27.5,14.8 26.8,14.8 25.4,18.6 25.4,18.9 25.9,18.9 			"/>
		</g>
	</g>
	<g>
		<rect x="12.5" y="21" class="st1" width="7.9" height="11.5"/>
	</g>
	<g>
		<g>
			<rect x="13.4" y="22.9" class="st42" width="6.3" height="9.6"/>
			<g>
				<rect x="13.9" y="23.4" class="st43" width="5.2" height="3.3"/>
				<rect x="13.9" y="27.3" class="st43" width="2.3" height="4.6"/>
				<rect x="16.8" y="27.3" class="st43" width="2.3" height="4.6"/>
			</g>
		</g>
		<circle class="st42" cx="18.4" cy="28.3" r="0.3"/>
	</g>
	<g>
		<g>
			<path class="st7" d="M19.6,13.7c0,1.7-1.4,3.1-3.1,3.1s-3.1-1.4-3.1-3.1c0-1.7,1.4-3.1,3.1-3.1S19.6,12,19.6,13.7z"/>
		</g>
		<g>
			<path class="st44" d="M19,13.7c0,1.4-1.1,2.5-2.5,2.5S14,15.1,14,13.7c0-1.4,1.1-2.5,2.5-2.5S19,12.3,19,13.7z"/>
		</g>
		<g class="st56">
			<path class="st20" d="M15.9,11.3l-1.4,4c0.1,0.1,0.1,0.2,0.2,0.2l1.5-4.3C16.2,11.2,16.1,11.3,15.9,11.3z"/>
			<path class="st20" d="M14.9,15.7c0.2,0.1,0.4,0.3,0.6,0.4l1.7-4.7c-0.2-0.1-0.5-0.1-0.7-0.1L14.9,15.7z"/>
		</g>
	</g>
	<g>
		<g>
			<path class="st34" d="M24.8,6c0.1,0.6-0.3,1.1-0.9,1.1H9.1c-0.6,0-1-0.5-0.9-1.1l0.9-4.7C9.2,0.8,9.6,0.5,10,0.5h13
				c0.5,0,0.8,0.3,0.9,0.8L24.8,6z"/>
		</g>
		<g>
			<path class="st21" d="M24.8,6c0.1,0.6-0.3,1.1-0.9,1.1H9.1c-0.6,0-1-0.5-0.9-1.1l0.9-4.7C9.2,0.8,9.6,0.5,10,0.5h13
				c0.5,0,0.8,0.3,0.9,0.8L24.8,6z"/>
		</g>
		<g>
			<path class="st22" d="M10,0.5h1.1c-0.4,0-0.7,0.3-0.8,0.8L9.7,6c-0.1,0.6,0.3,1.1,0.8,1.1H9.1c-0.6,0-1-0.5-0.9-1.1l0.9-4.7
				C9.2,0.8,9.6,0.5,10,0.5z"/>
			<path class="st32" d="M24.8,6c0.1,0.6-0.3,1.1-0.9,1.1h-1.3c0.5,0,0.8-0.5,0.8-1.1l-0.7-4.7c-0.1-0.4-0.4-0.8-0.8-0.8H23
				c0.5,0,0.8,0.3,0.9,0.8L24.8,6z"/>
		</g>
	</g>
</g>
</svg>
