<?xml version="1.0" encoding="utf-8"?>
<!-- Generator: Adobe Illustrator 21.1.0, SVG Export Plug-In . SVG Version: 6.00 Build 0)  -->
<svg version="1.1" id="Layer_1" xmlns="http://www.w3.org/2000/svg" xmlns:xlink="http://www.w3.org/1999/xlink" x="0px" y="0px"
	 viewBox="0 0 33 33" style="enable-background:new 0 0 33 33;" xml:space="preserve">
<style type="text/css">
	.st0{fill:#DAE5EF;}
	.st1{fill:#CBD6E0;}
	.st2{fill:#D03F3F;}
	.st3{fill:#BF3333;}
	.st4{fill:#E24B4B;}
	.st5{fill:#6D4135;}
	.st6{fill:#5B331D;}
	.st7{fill:#3E4347;}
	.st8{fill:#4E99D2;}
	.st9{fill:#65B1EF;}
	.st10{fill:#FFDC97;}
	.st11{fill:#FFCD7D;}
	.st12{fill:#FFE9AB;}
	.st13{fill:#31373A;}
	.st14{fill:#8CC63E;}
	.st15{fill:#FFD93B;}
	.st16{fill:#F4C534;}
	.st17{fill:#59A5E0;}
	.st18{fill:#DEE4E9;}
	.st19{fill:#D3D9DD;}
	.st20{fill:#FFFFFF;}
	.st21{fill:#2AB4CD;}
	.st22{fill:#1DA9BF;}
	.st23{fill:#E9EFF4;}
	.st24{fill:#7FB239;}
	.st25{fill:#719D34;}
	.st26{opacity:0.5;}
	.st27{fill:#BBC7D1;}
	.st28{fill:#E84D88;}
	.st29{fill:#D23F77;}
	.st30{fill:#633B2A;}
	.st31{fill:#E9B02C;}
	.st32{fill:#38C0DC;}
	.st33{fill:#45CBEA;}
	.st34{fill:#5A5F63;}
	.st35{fill:#E18823;}
	.st36{fill:#CF7519;}
	.st37{fill:#428DC3;}
	.st38{fill:#8D9BA3;}
	.st39{fill:#7B8B92;}
	.st40{fill:#ACB9C1;}
	.st41{fill:#846144;}
	.st42{fill:#7A5B44;}
	.st43{fill:#6B503B;}
	.st44{fill:#F29A2E;}
	.st45{fill:#728389;}
	.st46{fill:#FFD68D;}
	.st47{fill:#8F6D52;}
	.st48{fill:#84939A;}
	.st49{opacity:0.1;}
	.st50{fill:#89664C;}
	.st51{opacity:0.15;}
	.st52{fill:#DE9C25;}
	.st53{fill:#2AB4CD;stroke:#FFFFFF;stroke-width:0.5;stroke-linecap:round;stroke-linejoin:round;stroke-miterlimit:10;}
	.st54{fill:#FC97B2;}
	.st55{fill:#E88EA7;}
	.st56{opacity:0.2;}
	.st57{fill:#BB3166;}
	.st58{opacity:0.35;}
	.st59{opacity:0.6;}
	.st60{fill:#F9D087;}
	.st61{fill:#A5856D;}
	.st62{fill:#5C4533;}
	.st63{fill:#9A795F;}
	.st64{fill:#512A1B;}
	.st65{fill:#492418;}
	.st66{fill:#BE630E;}
	.st67{fill:none;}
	.st68{opacity:0.5;fill:#E18823;}
	.st69{opacity:0.1;fill:#FFFFFF;}
	.st70{fill:#FCCB7C;}
	.st71{opacity:0.15;fill:#FFFFFF;}
	.st72{opacity:0.2;fill:#FFFFFF;}
	.st73{opacity:0.5;fill:#CBD6E0;}
</style>
<g>
	<g>
		<g>
			<g>
				<rect x="3.8" y="8.2" class="st27" width="25.4" height="21"/>
			</g>
			<g>
				<rect x="3.8" y="8.2" class="st40" width="25.4" height="2.3"/>
			</g>
			<g>
				<path class="st18" d="M32.5,3v5.4c0,0.4-0.3,0.8-0.8,0.8H1.3c-0.4,0-0.8-0.3-0.8-0.8V3c0-0.4,0.4-0.8,0.8-0.8h30.4
					C32.2,2.2,32.5,2.6,32.5,3z"/>
				<g>
					<rect x="1.7" y="3.5" class="st28" width="29.5" height="4.5"/>
				</g>
			</g>
			<g>
				<g>
					<g>
						<rect x="2.4" y="10.1" class="st0" width="2.7" height="17.7"/>
					</g>
					<g>
						<rect x="3.3" y="10.1" class="st1" width="1" height="17.7"/>
					</g>
					<g>
						<path class="st23" d="M5.9,9.7c0,0.3-0.2,0.5-0.5,0.5H2.2c-0.3,0-0.5-0.2-0.5-0.5c0-0.3,0.2-0.5,0.5-0.5h3.2
							C5.7,9.2,5.9,9.4,5.9,9.7z"/>
					</g>
					<g>
						<path class="st23" d="M5.9,27.7c0,0.3-0.2,0.5-0.5,0.5H2.2c-0.3,0-0.5-0.2-0.5-0.5c0-0.3,0.2-0.5,0.5-0.5h3.2
							C5.7,27.2,5.9,27.4,5.9,27.7z"/>
					</g>
				</g>
				<g>
					<g>
						<rect x="27.8" y="10.1" class="st0" width="2.7" height="17.7"/>
					</g>
					<g>
						<rect x="28.7" y="10.1" class="st1" width="1" height="17.7"/>
					</g>
					<g>
						<path class="st23" d="M31.3,9.7c0,0.3-0.2,0.5-0.5,0.5h-3.2c-0.3,0-0.5-0.2-0.5-0.5c0-0.3,0.2-0.5,0.5-0.5h3.2
							C31.1,9.2,31.3,9.4,31.3,9.7z"/>
					</g>
					<g>
						<path class="st23" d="M31.3,27.7c0,0.3-0.2,0.5-0.5,0.5h-3.2c-0.3,0-0.5-0.2-0.5-0.5c0-0.3,0.2-0.5,0.5-0.5h3.2
							C31.1,27.2,31.3,27.4,31.3,27.7z"/>
					</g>
				</g>
			</g>
			<g>
				<rect x="0.8" y="28.3" class="st38" width="31.4" height="2.5"/>
			</g>
			<g>
				<path class="st20" d="M7.2,4.3h1c0.2,0,0.4,0,0.5,0c0.1,0,0.2,0.1,0.3,0.1C9,4.5,9.1,4.6,9.1,4.7C9.2,4.7,9.2,4.8,9.2,5
					c0,0.1,0,0.2-0.1,0.3C9.1,5.4,9,5.5,8.9,5.5c0.2,0,0.3,0.1,0.4,0.2S9.3,6,9.3,6.1c0,0.1,0,0.2-0.1,0.3C9.2,6.6,9.1,6.7,9,6.8
					C8.9,6.8,8.8,6.9,8.7,6.9c-0.1,0-0.3,0-0.6,0H7.2V4.3z M7.7,4.7v0.6H8c0.2,0,0.3,0,0.4,0c0.1,0,0.2,0,0.2-0.1
					C8.7,5.2,8.7,5.1,8.7,5c0-0.1,0-0.1-0.1-0.2c0-0.1-0.1-0.1-0.2-0.1c-0.1,0-0.2,0-0.4,0H7.7z M7.7,5.8v0.7h0.5c0.2,0,0.3,0,0.4,0
					c0.1,0,0.1,0,0.2-0.1c0-0.1,0.1-0.1,0.1-0.2c0-0.1,0-0.1-0.1-0.2c0-0.1-0.1-0.1-0.2-0.1c-0.1,0-0.2,0-0.5,0H7.7z"/>
				<path class="st20" d="M9.7,5.6c0-0.3,0-0.5,0.1-0.7C9.9,4.8,9.9,4.7,10,4.6c0.1-0.1,0.2-0.2,0.3-0.2c0.2-0.1,0.3-0.1,0.6-0.1
					c0.4,0,0.7,0.1,0.9,0.4c0.2,0.2,0.3,0.6,0.3,1c0,0.4-0.1,0.7-0.3,1c-0.2,0.2-0.5,0.4-0.9,0.4c-0.4,0-0.7-0.1-0.9-0.4
					S9.7,6,9.7,5.6z M10.2,5.6c0,0.3,0.1,0.5,0.2,0.7s0.3,0.2,0.5,0.2s0.4-0.1,0.5-0.2c0.1-0.2,0.2-0.4,0.2-0.7
					c0-0.3-0.1-0.5-0.2-0.7c-0.1-0.1-0.3-0.2-0.5-0.2s-0.4,0.1-0.5,0.2S10.2,5.3,10.2,5.6z"/>
				<path class="st20" d="M12.6,4.3h0.5v1.4c0,0.2,0,0.4,0,0.4c0,0.1,0.1,0.2,0.2,0.3c0.1,0.1,0.2,0.1,0.3,0.1c0.1,0,0.3,0,0.3-0.1
					s0.1-0.1,0.1-0.2c0-0.1,0-0.2,0-0.4V4.3h0.5v1.4c0,0.3,0,0.5,0,0.7c0,0.1-0.1,0.2-0.2,0.3c-0.1,0.1-0.2,0.2-0.3,0.2
					s-0.3,0.1-0.5,0.1c-0.2,0-0.4,0-0.6-0.1c-0.1-0.1-0.2-0.1-0.3-0.2c-0.1-0.1-0.1-0.2-0.1-0.3c0-0.1-0.1-0.4-0.1-0.7V4.3z"/>
				<path class="st20" d="M15.8,6.9V4.7H15V4.3h2.1v0.4h-0.8v2.1H15.8z"/>
				<path class="st20" d="M17.4,6.9V4.3h0.5v2.6H17.4z"/>
				<path class="st20" d="M20.5,6.6c0.1,0.1,0.3,0.2,0.4,0.2l-0.2,0.4c-0.1,0-0.2-0.1-0.2-0.1c0,0-0.1-0.1-0.3-0.2
					c-0.2,0.1-0.4,0.1-0.6,0.1c-0.4,0-0.7-0.1-0.9-0.4c-0.2-0.2-0.3-0.6-0.3-1c0-0.4,0.1-0.8,0.3-1c0.2-0.2,0.5-0.4,0.9-0.4
					c0.4,0,0.7,0.1,0.9,0.4c0.2,0.2,0.3,0.6,0.3,1c0,0.2,0,0.4-0.1,0.6C20.7,6.3,20.6,6.4,20.5,6.6z M20.1,6.3
					c0.1-0.1,0.1-0.2,0.2-0.3c0-0.1,0.1-0.2,0.1-0.4c0-0.3-0.1-0.5-0.2-0.7c-0.1-0.1-0.3-0.2-0.5-0.2s-0.4,0.1-0.5,0.2
					c-0.1,0.1-0.2,0.4-0.2,0.7c0,0.3,0.1,0.5,0.2,0.7c0.1,0.2,0.3,0.2,0.5,0.2c0.1,0,0.1,0,0.2,0c-0.1-0.1-0.2-0.1-0.3-0.2L19.6,6
					C19.8,6.1,19.9,6.2,20.1,6.3z"/>
				<path class="st20" d="M21.2,4.3h0.5v1.4c0,0.2,0,0.4,0,0.4c0,0.1,0.1,0.2,0.2,0.3c0.1,0.1,0.2,0.1,0.3,0.1c0.1,0,0.3,0,0.3-0.1
					c0.1-0.1,0.1-0.1,0.1-0.2c0-0.1,0-0.2,0-0.4V4.3h0.5v1.4c0,0.3,0,0.5,0,0.7c0,0.1-0.1,0.2-0.2,0.3c-0.1,0.1-0.2,0.2-0.3,0.2
					s-0.3,0.1-0.5,0.1c-0.2,0-0.4,0-0.6-0.1c-0.1-0.1-0.2-0.1-0.3-0.2c-0.1-0.1-0.1-0.2-0.1-0.3c0-0.1-0.1-0.4-0.1-0.7V4.3z"/>
				<path class="st20" d="M23.8,6.9V4.3h1.9v0.4h-1.4v0.6h1.3v0.4h-1.3v0.7h1.4v0.4H23.8z"/>
			</g>
			<g>
				<path class="st23" d="M25.8,12.4V25c0,0.4-0.3,0.7-0.7,0.7H7.9c-0.4,0-0.7-0.3-0.7-0.7V12.4c0-0.4,0.3-0.7,0.7-0.7h17.3
					C25.5,11.8,25.8,12.1,25.8,12.4z"/>
			</g>
			<g>
				<rect x="8" y="12.6" class="st33" width="16.9" height="12.2"/>
			</g>
			<g>
				<path class="st22" d="M13.5,22.9h6v-6.2l1,0.6l0.5-1.7l-1.7-1h-1.7c0,0,0.1,1.2-1.1,1.2s-1.1-1.2-1.1-1.2h-1.7l-1.7,1l0.5,1.7
					l1-0.6V22.9z"/>
			</g>
			<g class="st51">
				<polygon class="st20" points="19.5,12.6 18.4,12.6 11.1,24.8 12.2,24.8 				"/>
				<polygon class="st20" points="20,12.6 12.7,24.8 14.6,24.8 21.9,12.6 				"/>
			</g>
		</g>
		<g>
			<path class="st34" d="M32.5,29.2c0,0.2-0.1,0.3-0.3,0.3H0.8c-0.1,0-0.2,0-0.2-0.1c-0.1-0.1-0.1-0.1-0.1-0.2
				c0-0.2,0.1-0.3,0.3-0.3h31.4C32.4,28.9,32.5,29,32.5,29.2z"/>
		</g>
	</g>
</g>
</svg>
