<?xml version="1.0" encoding="utf-8"?>
<!-- Generator: Adobe Illustrator 21.1.0, SVG Export Plug-In . SVG Version: 6.00 Build 0)  -->
<svg version="1.1" id="Layer_1" xmlns="http://www.w3.org/2000/svg" xmlns:xlink="http://www.w3.org/1999/xlink" x="0px" y="0px"
	 viewBox="0 0 33 33" style="enable-background:new 0 0 33 33;" xml:space="preserve">
<style type="text/css">
	.st0{fill:#DAE5EF;}
	.st1{fill:#CBD6E0;}
	.st2{fill:#D03F3F;}
	.st3{fill:#BF3333;}
	.st4{fill:#E24B4B;}
	.st5{fill:#6D4135;}
	.st6{fill:#5B331D;}
	.st7{fill:#3E4347;}
	.st8{fill:#4E99D2;}
	.st9{fill:#65B1EF;}
	.st10{fill:#FFDC97;}
	.st11{fill:#FFCD7D;}
	.st12{fill:#FFE9AB;}
	.st13{fill:#31373A;}
	.st14{fill:#8CC63E;}
	.st15{fill:#FFD93B;}
	.st16{fill:#F4C534;}
	.st17{fill:#59A5E0;}
	.st18{fill:#DEE4E9;}
	.st19{fill:#D3D9DD;}
	.st20{fill:#FFFFFF;}
	.st21{fill:#2AB4CD;}
	.st22{fill:#1DA9BF;}
	.st23{fill:#E9EFF4;}
	.st24{fill:#7FB239;}
	.st25{fill:#719D34;}
	.st26{opacity:0.5;}
	.st27{fill:#BBC7D1;}
	.st28{fill:#E84D88;}
	.st29{fill:#D23F77;}
	.st30{fill:#633B2A;}
	.st31{fill:#E9B02C;}
	.st32{fill:#38C0DC;}
	.st33{fill:#45CBEA;}
	.st34{fill:#5A5F63;}
	.st35{fill:#E18823;}
	.st36{fill:#CF7519;}
	.st37{fill:#428DC3;}
	.st38{fill:#8D9BA3;}
	.st39{fill:#7B8B92;}
	.st40{fill:#ACB9C1;}
	.st41{fill:#846144;}
	.st42{fill:#7A5B44;}
	.st43{fill:#6B503B;}
	.st44{fill:#F29A2E;}
	.st45{fill:#728389;}
	.st46{fill:#FFD68D;}
	.st47{fill:#8F6D52;}
	.st48{fill:#84939A;}
	.st49{opacity:0.1;}
	.st50{fill:#89664C;}
	.st51{opacity:0.15;}
	.st52{fill:#DE9C25;}
	.st53{fill:#2AB4CD;stroke:#FFFFFF;stroke-width:0.5;stroke-linecap:round;stroke-linejoin:round;stroke-miterlimit:10;}
	.st54{fill:#FC97B2;}
	.st55{fill:#E88EA7;}
	.st56{opacity:0.2;}
	.st57{fill:#BB3166;}
	.st58{opacity:0.35;}
	.st59{opacity:0.6;}
	.st60{fill:#F9D087;}
	.st61{fill:#A5856D;}
	.st62{fill:#5C4533;}
	.st63{fill:#9A795F;}
	.st64{fill:#512A1B;}
	.st65{fill:#492418;}
	.st66{fill:#BE630E;}
	.st67{fill:none;}
	.st68{opacity:0.5;fill:#E18823;}
	.st69{opacity:0.1;fill:#FFFFFF;}
	.st70{fill:#FCCB7C;}
	.st71{opacity:0.15;fill:#FFFFFF;}
	.st72{opacity:0.2;fill:#FFFFFF;}
	.st73{opacity:0.5;fill:#CBD6E0;}
</style>
<g>
	<g>
		<g>
			<rect x="3.1" y="5.9" class="st7" width="26.8" height="3.5"/>
		</g>
		<g>
			<rect x="1.3" y="8.9" class="st1" width="30.4" height="23.6"/>
		</g>
		<g>
			<rect x="1.3" y="30" class="st40" width="30.4" height="2.5"/>
		</g>
		<g>
			<path class="st0" d="M32.5,9.4c0,0.6-0.5,1-1,1H1.5c-0.6,0-1-0.5-1-1c0-0.6,0.5-1,1-1h29.9C32,8.4,32.5,8.8,32.5,9.4z"/>
		</g>
		<g>
			<path class="st0" d="M32.5,13.7c0,0.4-0.3,0.7-0.7,0.7H1.3c-0.4,0-0.7-0.3-0.7-0.7c0-0.4,0.3-0.7,0.7-0.7h30.5
				C32.2,12.9,32.5,13.3,32.5,13.7z"/>
		</g>
		<g>
			<path class="st0" d="M32.5,19c0,0.4-0.3,0.7-0.7,0.7H1.3c-0.4,0-0.7-0.3-0.7-0.7s0.3-0.7,0.7-0.7h30.5
				C32.2,18.2,32.5,18.6,32.5,19z"/>
		</g>
		<g>
			<path class="st0" d="M32.5,24.3c0,0.4-0.3,0.7-0.7,0.7H1.3c-0.4,0-0.7-0.3-0.7-0.7s0.3-0.7,0.7-0.7h30.5
				C32.2,23.5,32.5,23.9,32.5,24.3z"/>
		</g>
		<g>
			<path class="st23" d="M24.9,8.9c0,2.4-1,4.6-2.7,6.2v17.5H10.8V15c-1.7-1.5-2.7-3.7-2.7-6.2c0-4.6,3.7-8.4,8.4-8.4
				C21.1,0.5,24.9,4.2,24.9,8.9z"/>
			<g>
				<path class="st17" d="M12.7,21.8h7.5v-7.6l0.6-0.6c1.3-1.2,2.1-3,2.1-4.8c0-3.6-2.9-6.5-6.5-6.5c-3.6,0-6.5,2.9-6.5,6.5
					c0,1.8,0.8,3.5,2.1,4.8l0.6,0.6V21.8z"/>
			</g>
			<g>
				<path class="st8" d="M16.6,21.8h3.7v-7.6l0.6-0.6c1.3-1.2,2.1-3,2.1-4.8c0-2.5-1.4-4.7-3.5-5.7c0.5,3.3,0.1,7.8-1.6,13.9
					C17.5,18.7,17,20.3,16.6,21.8z"/>
			</g>
		</g>
	</g>
	<g>
		<g>
			<rect x="12.7" y="19.7" class="st9" width="7.5" height="0.6"/>
		</g>
		<g>
			<rect x="12.7" y="17.4" class="st9" width="7.5" height="0.6"/>
		</g>
		<g>
			<rect x="12.7" y="15.2" class="st9" width="7.5" height="0.6"/>
		</g>
		<g>
			<path class="st9" d="M21.5,13c-0.2,0.2-0.4,0.4-0.6,0.6h-8.8c-0.2-0.2-0.4-0.4-0.6-0.6H21.5z"/>
		</g>
		<g>
			<path class="st9" d="M22.7,10.7c-0.1,0.2-0.1,0.4-0.2,0.6H10.5c-0.1-0.2-0.2-0.4-0.2-0.6H22.7z"/>
		</g>
		<g>
			<path class="st9" d="M23,8.9C23,9,23,9,23,9.1H10.1C10,9,10,9,10,8.9c0-0.1,0-0.3,0-0.4H23C23,8.6,23,8.7,23,8.9z"/>
		</g>
		<g>
			<path class="st9" d="M22.7,6.9H10.4c0.1-0.2,0.1-0.4,0.2-0.6h11.8C22.5,6.4,22.6,6.7,22.7,6.9z"/>
		</g>
		<g>
			<path class="st9" d="M21.4,4.6h-9.8C11.8,4.4,12,4.2,12.3,4h8.5C21,4.2,21.2,4.4,21.4,4.6z"/>
		</g>
	</g>
	<g>
		<path class="st17" d="M17,20.3h3.3v-0.6h-3.1C17.1,19.9,17.1,20.1,17,20.3z"/>
		<path class="st17" d="M17.6,18.1h2.6v-0.6h-2.5C17.7,17.7,17.7,17.9,17.6,18.1z"/>
		<path class="st17" d="M18.2,15.8h2.1v-0.6h-1.9C18.3,15.4,18.3,15.6,18.2,15.8z"/>
		<path class="st17" d="M20.9,13.6C20.9,13.6,20.9,13.6,20.9,13.6C20.9,13.6,20.9,13.6,20.9,13.6L20.9,13.6z"/>
		<path class="st17" d="M21.5,13L21.5,13C21.5,13,21.5,13,21.5,13C21.5,13,21.5,13,21.5,13z"/>
		<path class="st17" d="M21.5,13h-2.6c0,0.2-0.1,0.4-0.1,0.6h2.2c0,0,0,0,0,0C21.1,13.4,21.3,13.2,21.5,13C21.5,13,21.5,13,21.5,13z
			"/>
		<path class="st17" d="M22.7,10.7h-3.4c0,0.2-0.1,0.4-0.1,0.6h3.3C22.6,11.2,22.6,10.9,22.7,10.7z"/>
		<path class="st17" d="M23,8.5L23,8.5c0,0.1,0,0.3,0,0.4C23,8.7,23,8.6,23,8.5z"/>
		<path class="st17" d="M23,8.9c0-0.1,0-0.3,0-0.4h-3.4c0,0.2,0,0.4-0.1,0.6H23C23,9,23,9,23,8.9z"/>
		<path class="st17" d="M22.4,6.2h-2.8c0,0.2,0,0.4,0,0.6h3C22.6,6.7,22.5,6.4,22.4,6.2z"/>
		<path class="st17" d="M21.4,4.6c-0.1-0.1-0.3-0.3-0.4-0.4C21.1,4.4,21.3,4.5,21.4,4.6L21.4,4.6z"/>
		<path class="st17" d="M21,4.2c-0.1-0.1-0.2-0.2-0.3-0.2h-1.2c0,0.2,0,0.4,0.1,0.6h1.8C21.3,4.5,21.1,4.4,21,4.2z"/>
	</g>
	<g>
		<rect x="12.7" y="23.5" class="st7" width="7.5" height="9"/>
	</g>
	<g>
		<g>
			<rect x="13.3" y="25.1" class="st17" width="3" height="7.4"/>
			<g class="st51">
				<polygon class="st20" points="15.5,25.1 15.1,25.1 13.3,27.8 13.3,28.5 				"/>
				<polygon class="st20" points="16.3,25.1 15.9,25.1 13.3,29.1 13.3,30.2 16.3,25.7 				"/>
			</g>
		</g>
		<g>
			<rect x="16.7" y="25.1" class="st17" width="3" height="7.4"/>
			<g class="st51">
				<polygon class="st20" points="19,25.1 18.6,25.1 16.7,27.8 16.7,28.5 				"/>
				<polygon class="st20" points="19.8,25.1 19.4,25.1 16.7,29.1 16.7,30.2 19.8,25.7 				"/>
			</g>
		</g>
	</g>
</g>
</svg>
