<?xml version="1.0" encoding="utf-8"?>
<!-- Generator: Adobe Illustrator 21.1.0, SVG Export Plug-In . SVG Version: 6.00 Build 0)  -->
<svg version="1.1" id="Layer_1" xmlns="http://www.w3.org/2000/svg" xmlns:xlink="http://www.w3.org/1999/xlink" x="0px" y="0px"
	 viewBox="0 0 33 33" style="enable-background:new 0 0 33 33;" xml:space="preserve">
<style type="text/css">
	.st0{fill:#DAE5EF;}
	.st1{fill:#CBD6E0;}
	.st2{fill:#D03F3F;}
	.st3{fill:#BF3333;}
	.st4{fill:#E24B4B;}
	.st5{fill:#6D4135;}
	.st6{fill:#5B331D;}
	.st7{fill:#3E4347;}
	.st8{fill:#4E99D2;}
	.st9{fill:#65B1EF;}
	.st10{fill:#FFDC97;}
	.st11{fill:#FFCD7D;}
	.st12{fill:#FFE9AB;}
	.st13{fill:#31373A;}
	.st14{fill:#8CC63E;}
	.st15{fill:#FFD93B;}
	.st16{fill:#F4C534;}
	.st17{fill:#59A5E0;}
	.st18{fill:#DEE4E9;}
	.st19{fill:#D3D9DD;}
	.st20{fill:#FFFFFF;}
	.st21{fill:#2AB4CD;}
	.st22{fill:#1DA9BF;}
	.st23{fill:#E9EFF4;}
	.st24{fill:#7FB239;}
	.st25{fill:#719D34;}
	.st26{opacity:0.5;}
	.st27{fill:#BBC7D1;}
	.st28{fill:#E84D88;}
	.st29{fill:#D23F77;}
	.st30{fill:#633B2A;}
	.st31{fill:#E9B02C;}
	.st32{fill:#38C0DC;}
	.st33{fill:#45CBEA;}
	.st34{fill:#5A5F63;}
	.st35{fill:#E18823;}
	.st36{fill:#CF7519;}
	.st37{fill:#428DC3;}
	.st38{fill:#8D9BA3;}
	.st39{fill:#7B8B92;}
	.st40{fill:#ACB9C1;}
	.st41{fill:#846144;}
	.st42{fill:#7A5B44;}
	.st43{fill:#6B503B;}
	.st44{fill:#F29A2E;}
	.st45{fill:#728389;}
	.st46{fill:#FFD68D;}
	.st47{fill:#8F6D52;}
	.st48{fill:#84939A;}
	.st49{opacity:0.1;}
	.st50{fill:#89664C;}
	.st51{opacity:0.15;}
	.st52{fill:#DE9C25;}
	.st53{fill:#2AB4CD;stroke:#FFFFFF;stroke-width:0.5;stroke-linecap:round;stroke-linejoin:round;stroke-miterlimit:10;}
	.st54{fill:#FC97B2;}
	.st55{fill:#E88EA7;}
	.st56{opacity:0.2;}
	.st57{fill:#BB3166;}
	.st58{opacity:0.35;}
	.st59{opacity:0.6;}
	.st60{fill:#F9D087;}
	.st61{fill:#A5856D;}
	.st62{fill:#5C4533;}
	.st63{fill:#9A795F;}
	.st64{fill:#512A1B;}
	.st65{fill:#492418;}
	.st66{fill:#BE630E;}
	.st67{fill:none;}
	.st68{opacity:0.5;fill:#E18823;}
	.st69{opacity:0.1;fill:#FFFFFF;}
	.st70{fill:#FCCB7C;}
	.st71{opacity:0.15;fill:#FFFFFF;}
	.st72{opacity:0.2;fill:#FFFFFF;}
	.st73{opacity:0.5;fill:#CBD6E0;}
</style>
<g>
	<g>
		<g>
			<rect x="2.7" y="12" class="st0" width="27.7" height="16.2"/>
		</g>
	</g>
	<g>
		<g>
			<rect x="1.8" y="25.7" class="st38" width="29.3" height="3"/>
		</g>
	</g>
	<g>
		<g>
			<rect x="2.7" y="12" class="st1" width="27.7" height="1.4"/>
		</g>
	</g>
	<g>
		<g>
			<path class="st21" d="M31.5,12.4H1.5c-0.7,0-1.2-0.7-1-1.3l1.7-5.9c0.2-0.5,0.6-0.9,1.2-0.9h26.1c0.5,0,1,0.4,1.2,0.9l1.7,5.9
				C32.7,11.7,32.2,12.4,31.5,12.4z"/>
		</g>
	</g>
	<g>
		<g>
			<path class="st22" d="M31.5,12.4H1.5c-0.7,0-1.2-0.7-1-1.3l0.1-0.2C2.8,11,5,11.1,7.4,11.1c11.5,0,21.1-2.7,23.3-6.2
				c0,0.1,0.1,0.1,0.1,0.2l1.7,5.9C32.6,11.7,32.2,12.4,31.5,12.4z"/>
		</g>
	</g>
	<g>
		<g>
			<g>
				<g>
					<rect x="5.6" y="15.4" class="st7" width="3.6" height="3.6"/>
					<path class="st20" d="M9.3,19.3H5.6c-0.1,0-0.2-0.1-0.2-0.2v-3.6c0-0.1,0.1-0.2,0.2-0.2h3.6c0.1,0,0.2,0.1,0.2,0.2V19
						C9.5,19.2,9.4,19.3,9.3,19.3z M5.9,18.8H9v-3.1H5.9V18.8z"/>
				</g>
			</g>
			<g>
				<g>
					<rect x="5.6" y="20.3" class="st7" width="3.6" height="3.6"/>
					<path class="st20" d="M9.3,24.2H5.6c-0.1,0-0.2-0.1-0.2-0.2v-3.6c0-0.1,0.1-0.2,0.2-0.2h3.6c0.1,0,0.2,0.1,0.2,0.2V24
						C9.5,24.1,9.4,24.2,9.3,24.2z M5.9,23.7H9v-3.1H5.9V23.7z"/>
				</g>
			</g>
		</g>
		<g>
			<g>
				<g>
					<rect x="23.7" y="15.4" class="st7" width="3.6" height="3.6"/>
					<path class="st20" d="M27.4,19.3h-3.6c-0.1,0-0.2-0.1-0.2-0.2v-3.6c0-0.1,0.1-0.2,0.2-0.2h3.6c0.1,0,0.2,0.1,0.2,0.2V19
						C27.6,19.2,27.5,19.3,27.4,19.3z M24,18.8h3.1v-3.1H24V18.8z"/>
				</g>
			</g>
			<g>
				<g>
					<rect x="23.7" y="20.3" class="st7" width="3.6" height="3.6"/>
					<path class="st20" d="M27.4,24.2h-3.6c-0.1,0-0.2-0.1-0.2-0.2v-3.6c0-0.1,0.1-0.2,0.2-0.2h3.6c0.1,0,0.2,0.1,0.2,0.2V24
						C27.6,24.1,27.5,24.2,27.4,24.2z M24,23.7h3.1v-3.1H24V23.7z"/>
				</g>
			</g>
		</g>
	</g>
	<g>
		<rect x="11" y="25.7" class="st27" width="10.9" height="1.5"/>
	</g>
	<g>
		<rect x="9.7" y="27.2" class="st1" width="13.7" height="1.5"/>
	</g>
	<g>
		<rect x="12" y="15" class="st1" width="9.1" height="10.7"/>
	</g>
	<g>
		<g>
			<rect x="12.7" y="16.1" class="st5" width="7.5" height="9.6"/>
		</g>
	</g>
	<g>
		<g>
			<rect x="16.2" y="16.1" class="st1" width="0.5" height="9.6"/>
		</g>
	</g>
	<g>
		<g>
			<circle class="st6" cx="17.5" cy="20.9" r="0.3"/>
		</g>
		<g>
			<circle class="st6" cx="15.5" cy="20.9" r="0.3"/>
		</g>
	</g>
</g>
</svg>
