<?xml version="1.0" encoding="utf-8"?>
<!-- Generator: Adobe Illustrator 21.1.0, SVG Export Plug-In . SVG Version: 6.00 Build 0)  -->
<svg version="1.1" id="Layer_1" xmlns="http://www.w3.org/2000/svg" xmlns:xlink="http://www.w3.org/1999/xlink" x="0px" y="0px"
	 viewBox="0 0 33 33" style="enable-background:new 0 0 33 33;" xml:space="preserve">
<style type="text/css">
	.st0{fill:#DAE5EF;}
	.st1{fill:#CBD6E0;}
	.st2{fill:#D03F3F;}
	.st3{fill:#BF3333;}
	.st4{fill:#E24B4B;}
	.st5{fill:#6D4135;}
	.st6{fill:#5B331D;}
	.st7{fill:#3E4347;}
	.st8{fill:#4E99D2;}
	.st9{fill:#65B1EF;}
	.st10{fill:#FFDC97;}
	.st11{fill:#FFCD7D;}
	.st12{fill:#FFE9AB;}
	.st13{fill:#31373A;}
	.st14{fill:#8CC63E;}
	.st15{fill:#FFD93B;}
	.st16{fill:#F4C534;}
	.st17{fill:#59A5E0;}
	.st18{fill:#DEE4E9;}
	.st19{fill:#D3D9DD;}
	.st20{fill:#FFFFFF;}
	.st21{fill:#2AB4CD;}
	.st22{fill:#1DA9BF;}
	.st23{fill:#E9EFF4;}
	.st24{fill:#7FB239;}
	.st25{fill:#719D34;}
	.st26{opacity:0.5;}
	.st27{fill:#BBC7D1;}
	.st28{fill:#E84D88;}
	.st29{fill:#D23F77;}
	.st30{fill:#633B2A;}
	.st31{fill:#E9B02C;}
	.st32{fill:#38C0DC;}
	.st33{fill:#45CBEA;}
	.st34{fill:#5A5F63;}
	.st35{fill:#E18823;}
	.st36{fill:#CF7519;}
	.st37{fill:#428DC3;}
	.st38{fill:#8D9BA3;}
	.st39{fill:#7B8B92;}
	.st40{fill:#ACB9C1;}
	.st41{fill:#846144;}
	.st42{fill:#7A5B44;}
	.st43{fill:#6B503B;}
	.st44{fill:#F29A2E;}
	.st45{fill:#728389;}
	.st46{fill:#FFD68D;}
	.st47{fill:#8F6D52;}
	.st48{fill:#84939A;}
	.st49{opacity:0.1;}
	.st50{fill:#89664C;}
	.st51{opacity:0.15;}
	.st52{fill:#DE9C25;}
	.st53{fill:#2AB4CD;stroke:#FFFFFF;stroke-width:0.5;stroke-linecap:round;stroke-linejoin:round;stroke-miterlimit:10;}
	.st54{fill:#FC97B2;}
	.st55{fill:#E88EA7;}
	.st56{opacity:0.2;}
	.st57{fill:#BB3166;}
	.st58{opacity:0.35;}
	.st59{opacity:0.6;}
	.st60{fill:#F9D087;}
	.st61{fill:#A5856D;}
	.st62{fill:#5C4533;}
	.st63{fill:#9A795F;}
	.st64{fill:#512A1B;}
	.st65{fill:#492418;}
	.st66{fill:#BE630E;}
	.st67{fill:none;}
	.st68{opacity:0.5;fill:#E18823;}
	.st69{opacity:0.1;fill:#FFFFFF;}
	.st70{fill:#FCCB7C;}
	.st71{opacity:0.15;fill:#FFFFFF;}
	.st72{opacity:0.2;fill:#FFFFFF;}
	.st73{opacity:0.5;fill:#CBD6E0;}
</style>
<g>
	<g>
		<g>
			<rect x="0.5" y="6.5" class="st28" width="32" height="3"/>
		</g>
		<g>
			<path class="st7" d="M24.8,4.3v3.3c0,0.2-0.2,0.4-0.4,0.4H8.7C8.4,8,8.2,7.8,8.2,7.5V4.3c0-0.2,0.2-0.4,0.4-0.4h15.7
				C24.6,3.9,24.8,4.1,24.8,4.3z"/>
		</g>
		<g>
			<rect x="1" y="10.8" class="st28" width="31" height="18.3"/>
		</g>
		<g>
			<polygon class="st29" points="32.5,9.5 0.5,9.5 1,10.8 32,10.8 			"/>
		</g>
		<g>
			<rect x="0.5" y="26.1" class="st54" width="32" height="3.1"/>
		</g>
		<g>
			<g>
				<g>
					<path class="st20" d="M9.6,13v10.7c0,0.3-0.2,0.5-0.5,0.5H3.3c-0.3,0-0.5-0.2-0.5-0.5V13c0-0.3,0.2-0.5,0.5-0.5h5.8
						C9.4,12.5,9.6,12.8,9.6,13z"/>
					<g>
						<rect x="3.4" y="13.2" class="st17" width="5.5" height="10.5"/>
					</g>
					<g class="st56">
						<polygon class="st20" points="6.1,13.2 3.8,23.6 4.5,23.6 6.8,13.2 						"/>
						<polygon class="st20" points="8.9,13.2 7.5,13.2 5.1,23.6 6.5,23.6 						"/>
					</g>
				</g>
				<g>
					<rect x="5.8" y="12.8" class="st20" width="0.7" height="11.3"/>
				</g>
				<g>
					<rect x="3.2" y="15.9" class="st20" width="6.1" height="0.7"/>
				</g>
			</g>
			<g>
				<g>
					<path class="st20" d="M30.3,13v10.7c0,0.3-0.2,0.5-0.5,0.5h-5.8c-0.3,0-0.5-0.2-0.5-0.5V13c0-0.3,0.2-0.5,0.5-0.5h5.8
						C30,12.5,30.3,12.8,30.3,13z"/>
					<g>
						<rect x="24.1" y="13.2" class="st17" width="5.5" height="10.5"/>
					</g>
					<g class="st56">
						<polygon class="st20" points="26.8,13.2 24.4,23.6 25.1,23.6 27.5,13.2 						"/>
						<polygon class="st20" points="29.5,13.2 28.1,13.2 25.8,23.6 27.2,23.6 						"/>
					</g>
				</g>
				<g>
					<rect x="26.5" y="12.8" class="st20" width="0.7" height="11.3"/>
				</g>
				<g>
					<rect x="23.9" y="15.9" class="st20" width="6.1" height="0.7"/>
				</g>
			</g>
		</g>
		<g>
			<rect x="11.3" y="14.9" class="st29" width="10.5" height="14.2"/>
		</g>
		<g>
			<rect x="12" y="16.3" class="st20" width="8.9" height="12.9"/>
		</g>
		<g>
			<rect x="12.6" y="17.6" class="st17" width="3.6" height="11.6"/>
			<rect x="16.8" y="17.6" class="st17" width="3.6" height="11.6"/>
		</g>
		<g class="st56">
			<polygon class="st20" points="14.2,29.1 16.2,23.4 16.2,28.1 15.8,29.1 			"/>
			<polygon class="st20" points="19.9,17.6 16.8,26.4 16.8,21.8 18.2,17.6 			"/>
			<polygon class="st20" points="12.7,29.1 16.2,18.8 16.2,21.3 13.5,29.1 			"/>
			<polygon class="st20" points="17.5,17.6 16.8,19.6 16.8,17.6 			"/>
		</g>
	</g>
	<g>
		<path class="st20" d="M9.4,6.7V5.1h0.5c0.2,0,0.3,0,0.4,0c0.1,0,0.2,0.1,0.2,0.2c0.1,0.1,0.1,0.2,0.1,0.3c0,0.1,0,0.2-0.1,0.2
			S10.5,6,10.4,6c-0.1,0-0.1,0.1-0.2,0.1c-0.1,0-0.2,0-0.3,0H9.7v0.6H9.4z M9.7,5.4v0.4h0.2c0.1,0,0.2,0,0.2,0c0,0,0.1,0,0.1-0.1
			c0,0,0-0.1,0-0.1c0-0.1,0-0.1,0-0.1c0,0-0.1-0.1-0.1-0.1c0,0-0.1,0-0.2,0H9.7z"/>
		<path class="st20" d="M10.8,5.9c0-0.2,0-0.3,0.1-0.4c0-0.1,0.1-0.1,0.1-0.2c0.1-0.1,0.1-0.1,0.2-0.1c0.1,0,0.2-0.1,0.3-0.1
			c0.2,0,0.4,0.1,0.5,0.2c0.1,0.1,0.2,0.3,0.2,0.6c0,0.3-0.1,0.4-0.2,0.6c-0.1,0.1-0.3,0.2-0.5,0.2c-0.2,0-0.4-0.1-0.6-0.2
			C10.9,6.4,10.8,6.2,10.8,5.9z M11.1,5.9c0,0.2,0,0.3,0.1,0.4s0.2,0.1,0.3,0.1c0.1,0,0.2,0,0.3-0.1C11.9,6.2,12,6.1,12,5.9
			c0-0.2,0-0.3-0.1-0.4c-0.1-0.1-0.2-0.1-0.3-0.1c-0.1,0-0.2,0-0.3,0.1S11.1,5.7,11.1,5.9z"/>
		<path class="st20" d="M12.5,6.2l0.3,0c0,0.1,0.1,0.2,0.1,0.2c0.1,0,0.1,0.1,0.2,0.1c0.1,0,0.2,0,0.2-0.1s0.1-0.1,0.1-0.1
			c0,0,0-0.1,0-0.1c0,0-0.1,0-0.1-0.1c0,0-0.1,0-0.3-0.1c-0.2,0-0.3-0.1-0.4-0.2c-0.1-0.1-0.1-0.2-0.1-0.3c0-0.1,0-0.2,0.1-0.2
			c0-0.1,0.1-0.1,0.2-0.2s0.2-0.1,0.3-0.1c0.2,0,0.3,0,0.4,0.1c0.1,0.1,0.2,0.2,0.2,0.3l-0.3,0c0-0.1,0-0.1-0.1-0.2
			c0,0-0.1-0.1-0.2-0.1c-0.1,0-0.2,0-0.2,0.1c0,0,0,0.1,0,0.1c0,0,0,0.1,0,0.1c0,0,0.1,0.1,0.3,0.1s0.3,0.1,0.3,0.1
			c0.1,0,0.1,0.1,0.2,0.2c0,0.1,0.1,0.1,0.1,0.2c0,0.1,0,0.2-0.1,0.2s-0.1,0.1-0.2,0.2s-0.2,0.1-0.3,0.1c-0.2,0-0.3,0-0.5-0.1
			S12.5,6.4,12.5,6.2z"/>
		<path class="st20" d="M14.3,6.7V5.4h-0.5V5.1h1.2v0.3h-0.5v1.3H14.3z"/>
		<path class="st20" d="M15.8,5.9c0-0.2,0-0.3,0.1-0.4c0-0.1,0.1-0.1,0.1-0.2c0.1-0.1,0.1-0.1,0.2-0.1c0.1,0,0.2-0.1,0.3-0.1
			c0.2,0,0.4,0.1,0.5,0.2c0.1,0.1,0.2,0.3,0.2,0.6c0,0.3-0.1,0.4-0.2,0.6s-0.3,0.2-0.5,0.2c-0.2,0-0.4-0.1-0.5-0.2
			C15.9,6.4,15.8,6.2,15.8,5.9z M16.2,5.9c0,0.2,0,0.3,0.1,0.4c0.1,0.1,0.2,0.1,0.3,0.1s0.2,0,0.3-0.1C17,6.2,17,6.1,17,5.9
			c0-0.2,0-0.3-0.1-0.4c-0.1-0.1-0.2-0.1-0.3-0.1s-0.2,0-0.3,0.1C16.2,5.6,16.2,5.7,16.2,5.9z"/>
		<path class="st20" d="M17.6,6.7V5.1h1.1v0.3h-0.7v0.4h0.6V6h-0.6v0.7H17.6z"/>
		<path class="st20" d="M18.9,6.7V5.1H20v0.3h-0.7v0.4h0.6V6h-0.6v0.7H18.9z"/>
		<path class="st20" d="M20.2,6.7V5.1h0.3v1.6H20.2z"/>
		<path class="st20" d="M21.8,6.1l0.3,0.1c0,0.2-0.1,0.3-0.2,0.4c-0.1,0.1-0.2,0.1-0.4,0.1c-0.2,0-0.4-0.1-0.5-0.2
			c-0.1-0.1-0.2-0.3-0.2-0.6c0-0.3,0.1-0.5,0.2-0.6c0.1-0.1,0.3-0.2,0.5-0.2c0.2,0,0.3,0.1,0.5,0.2c0.1,0.1,0.1,0.2,0.2,0.3
			l-0.3,0.1c0-0.1-0.1-0.1-0.1-0.2c-0.1,0-0.1-0.1-0.2-0.1c-0.1,0-0.2,0-0.3,0.1c-0.1,0.1-0.1,0.2-0.1,0.4c0,0.2,0,0.3,0.1,0.4
			s0.2,0.1,0.3,0.1c0.1,0,0.2,0,0.2-0.1C21.8,6.3,21.8,6.2,21.8,6.1z"/>
		<path class="st20" d="M22.4,6.7V5.1h1.1v0.3h-0.8v0.3h0.8V6h-0.8v0.4h0.9v0.3H22.4z"/>
	</g>
</g>
</svg>
