<?xml version="1.0" encoding="utf-8"?>
<!-- Generator: Adobe Illustrator 21.1.0, SVG Export Plug-In . SVG Version: 6.00 Build 0)  -->
<svg version="1.1" id="Layer_1" xmlns="http://www.w3.org/2000/svg" xmlns:xlink="http://www.w3.org/1999/xlink" x="0px" y="0px"
	 viewBox="0 0 33 33" style="enable-background:new 0 0 33 33;" xml:space="preserve">
<style type="text/css">
	.st0{fill:#DAE5EF;}
	.st1{fill:#CBD6E0;}
	.st2{fill:#D03F3F;}
	.st3{fill:#BF3333;}
	.st4{fill:#E24B4B;}
	.st5{fill:#6D4135;}
	.st6{fill:#5B331D;}
	.st7{fill:#3E4347;}
	.st8{fill:#4E99D2;}
	.st9{fill:#65B1EF;}
	.st10{fill:#FFDC97;}
	.st11{fill:#FFCD7D;}
	.st12{fill:#FFE9AB;}
	.st13{fill:#31373A;}
	.st14{fill:#8CC63E;}
	.st15{fill:#FFD93B;}
	.st16{fill:#F4C534;}
	.st17{fill:#59A5E0;}
	.st18{fill:#DEE4E9;}
	.st19{fill:#D3D9DD;}
	.st20{fill:#FFFFFF;}
	.st21{fill:#2AB4CD;}
	.st22{fill:#1DA9BF;}
	.st23{fill:#E9EFF4;}
	.st24{fill:#7FB239;}
	.st25{fill:#719D34;}
	.st26{opacity:0.5;}
	.st27{fill:#BBC7D1;}
	.st28{fill:#E84D88;}
	.st29{fill:#D23F77;}
	.st30{fill:#633B2A;}
	.st31{fill:#E9B02C;}
	.st32{fill:#38C0DC;}
	.st33{fill:#45CBEA;}
	.st34{fill:#5A5F63;}
	.st35{fill:#E18823;}
	.st36{fill:#CF7519;}
	.st37{fill:#428DC3;}
	.st38{fill:#8D9BA3;}
	.st39{fill:#7B8B92;}
	.st40{fill:#ACB9C1;}
	.st41{fill:#846144;}
	.st42{fill:#7A5B44;}
	.st43{fill:#6B503B;}
	.st44{fill:#F29A2E;}
	.st45{fill:#728389;}
	.st46{fill:#FFD68D;}
	.st47{fill:#8F6D52;}
	.st48{fill:#84939A;}
	.st49{opacity:0.1;}
	.st50{fill:#89664C;}
	.st51{opacity:0.15;}
	.st52{fill:#DE9C25;}
	.st53{fill:#2AB4CD;stroke:#FFFFFF;stroke-width:0.5;stroke-linecap:round;stroke-linejoin:round;stroke-miterlimit:10;}
	.st54{fill:#FC97B2;}
	.st55{fill:#E88EA7;}
	.st56{opacity:0.2;}
	.st57{fill:#BB3166;}
	.st58{opacity:0.35;}
	.st59{opacity:0.6;}
	.st60{fill:#F9D087;}
	.st61{fill:#A5856D;}
	.st62{fill:#5C4533;}
	.st63{fill:#9A795F;}
	.st64{fill:#512A1B;}
	.st65{fill:#492418;}
	.st66{fill:#BE630E;}
	.st67{fill:none;}
	.st68{opacity:0.5;fill:#E18823;}
	.st69{opacity:0.1;fill:#FFFFFF;}
	.st70{fill:#FCCB7C;}
	.st71{opacity:0.15;fill:#FFFFFF;}
	.st72{opacity:0.2;fill:#FFFFFF;}
	.st73{opacity:0.5;fill:#CBD6E0;}
</style>
<g>
	<g>
		<rect x="1.7" y="13.9" class="st10" width="29.5" height="13.3"/>
	</g>
	<g>
		<rect x="1.7" y="25.4" class="st70" width="29.5" height="1.8"/>
	</g>
	<g>
		<path class="st2" d="M32.5,12.8v2c0,0.3-0.3,0.6-0.6,0.6H1.1c-0.3,0-0.6-0.3-0.6-0.6v-2c0-0.3,0.3-0.6,0.6-0.6h30.8
			C32.2,12.2,32.5,12.5,32.5,12.8z"/>
	</g>
	<g>
		<rect x="10.4" y="9.5" class="st12" width="12.2" height="17.7"/>
	</g>
	<g>
		<path class="st2" d="M23.9,6.7v2.9c0,0.5-0.4,0.8-0.8,0.8H9.9c-0.5,0-0.8-0.4-0.8-0.8V6.7c0-0.5,0.4-0.8,0.8-0.8h13.1
			C23.5,5.9,23.9,6.2,23.9,6.7z"/>
	</g>
	<g>
		<rect x="12.8" y="17.5" class="st46" width="7.5" height="9.7"/>
	</g>
	<g>
		<rect x="13.6" y="18.6" class="st7" width="5.9" height="8.6"/>
	</g>
	<g>
		<rect x="14.3" y="19.3" class="st9" width="4.5" height="3.4"/>
	</g>
	<g>
		<g>
			<g>
				<path class="st20" d="M8.8,17.6v6.2c0,0.2-0.2,0.4-0.4,0.4H3.9c-0.2,0-0.4-0.2-0.4-0.4v-6.2c0-0.2,0.2-0.4,0.4-0.4h4.6
					C8.7,17.2,8.8,17.4,8.8,17.6z"/>
				<g>
					<rect x="4" y="17.8" class="st9" width="4.3" height="5.9"/>
				</g>
			</g>
			<g>
				<rect x="3.7" y="19.4" class="st20" width="5" height="0.5"/>
				<rect x="3.7" y="21.5" class="st20" width="5" height="0.5"/>
			</g>
			<g>
				<rect x="5.9" y="17.5" class="st20" width="0.5" height="6.4"/>
			</g>
		</g>
		<g>
			<g>
				<path class="st20" d="M29.5,17.6v6.2c0,0.2-0.2,0.4-0.4,0.4h-4.6c-0.2,0-0.4-0.2-0.4-0.4v-6.2c0-0.2,0.2-0.4,0.4-0.4h4.6
					C29.4,17.2,29.5,17.4,29.5,17.6z"/>
				<g>
					<rect x="24.7" y="17.8" class="st9" width="4.3" height="5.9"/>
				</g>
			</g>
			<g>
				<rect x="24.4" y="19.4" class="st20" width="5" height="0.5"/>
				<rect x="24.4" y="21.5" class="st20" width="5" height="0.5"/>
			</g>
			<g>
				<rect x="26.6" y="17.5" class="st20" width="0.5" height="6.4"/>
			</g>
		</g>
	</g>
	<g>
		<g>
			<path class="st20" d="M19.2,12.3v1.9c0,0.2-0.2,0.4-0.4,0.4h-4.6c-0.2,0-0.4-0.2-0.4-0.4v-1.9c0-0.2,0.2-0.4,0.4-0.4h4.6
				C19,11.9,19.2,12.1,19.2,12.3z"/>
			<g>
				<rect x="14.4" y="12.4" class="st9" width="4.3" height="1.6"/>
			</g>
		</g>
		<g>
			<rect x="16.3" y="12.2" class="st20" width="0.5" height="2.1"/>
		</g>
	</g>
	<g>
		<g>
			<path class="st20" d="M10.5,7.6H11c0.1,0,0.2,0,0.2,0c0,0,0.1,0,0.1,0c0,0,0.1,0.1,0.1,0.1c0,0,0,0.1,0,0.1c0,0.1,0,0.1,0,0.1
				c0,0-0.1,0.1-0.1,0.1c0.1,0,0.1,0.1,0.2,0.1s0.1,0.1,0.1,0.2c0,0.1,0,0.1,0,0.1c0,0-0.1,0.1-0.1,0.1c0,0-0.1,0-0.2,0.1
				c0,0-0.1,0-0.3,0h-0.4V7.6z M10.8,7.8V8h0.1C11,8,11,8,11.1,8c0,0,0.1,0,0.1,0c0,0,0-0.1,0-0.1c0,0,0-0.1,0-0.1c0,0,0,0-0.1,0
				c0,0-0.1,0-0.2,0H10.8z M10.8,8.2v0.3H11c0.1,0,0.1,0,0.2,0c0,0,0.1,0,0.1,0c0,0,0-0.1,0-0.1c0,0,0-0.1,0-0.1s0,0-0.1-0.1
				c0,0-0.1,0-0.2,0H10.8z"/>
			<path class="st20" d="M11.6,8.7V7.6h0.8v0.2h-0.6V8h0.6v0.2h-0.6v0.3h0.6v0.2H11.6z"/>
			<path class="st20" d="M13.7,8.7h-0.2l-0.1-0.3h-0.4l-0.1,0.3h-0.2L13,7.6h0.2L13.7,8.7z M13.3,8.3l-0.2-0.4L13,8.3H13.3z"/>
			<path class="st20" d="M13.8,7.6H14v0.6c0,0.1,0,0.2,0,0.2c0,0,0,0.1,0.1,0.1c0,0,0.1,0,0.1,0c0.1,0,0.1,0,0.1,0s0.1-0.1,0.1-0.1
				s0-0.1,0-0.2V7.6h0.2v0.6c0,0.1,0,0.2,0,0.3s0,0.1-0.1,0.1c0,0-0.1,0.1-0.1,0.1s-0.1,0-0.2,0c-0.1,0-0.2,0-0.2,0
				c-0.1,0-0.1-0.1-0.1-0.1c0,0-0.1-0.1-0.1-0.1c0-0.1,0-0.2,0-0.3V7.6z"/>
			<path class="st20" d="M15.2,8.7V7.8h-0.3V7.6h0.9v0.2h-0.3v0.9H15.2z"/>
			<path class="st20" d="M16.2,8.7V8.2l-0.4-0.6H16L16.3,8l0.3-0.4h0.3l-0.4,0.6v0.5H16.2z"/>
		</g>
		<path class="st20" d="M17.2,8.3l0.2,0c0,0.1,0,0.1,0.1,0.2c0,0,0.1,0.1,0.2,0.1c0.1,0,0.1,0,0.2,0c0,0,0.1-0.1,0.1-0.1
			c0,0,0,0,0-0.1s0,0-0.1,0c0,0-0.1,0-0.2,0c-0.1,0-0.2-0.1-0.3-0.1C17.3,8,17.3,8,17.3,7.9c0-0.1,0-0.1,0-0.2c0,0,0.1-0.1,0.1-0.1
			c0.1,0,0.1,0,0.2,0c0.1,0,0.2,0,0.3,0.1c0.1,0.1,0.1,0.1,0.1,0.2l-0.2,0c0-0.1,0-0.1-0.1-0.1c0,0-0.1,0-0.1,0c-0.1,0-0.1,0-0.2,0
			c0,0,0,0,0,0.1c0,0,0,0,0,0.1c0,0,0.1,0,0.2,0.1s0.2,0.1,0.2,0.1c0.1,0,0.1,0.1,0.1,0.1c0,0,0,0.1,0,0.2c0,0.1,0,0.1-0.1,0.2
			c0,0.1-0.1,0.1-0.1,0.1s-0.1,0-0.2,0c-0.1,0-0.2,0-0.3-0.1C17.3,8.5,17.3,8.5,17.2,8.3z"/>
		<path class="st20" d="M19.3,8.7h-0.2L19,8.4h-0.4l-0.1,0.3h-0.2l0.4-1.1h0.2L19.3,8.7z M18.9,8.3l-0.2-0.4l-0.1,0.4H18.9z"/>
		<path class="st20" d="M19.4,8.7V7.6h0.2v0.9h0.6v0.2H19.4z"/>
		<path class="st20" d="M20.3,8.1c0-0.1,0-0.2,0.1-0.3c0-0.1,0.1-0.1,0.1-0.2c0,0,0.1-0.1,0.1-0.1c0.1,0,0.1,0,0.2,0
			c0.2,0,0.3,0.1,0.4,0.2c0.1,0.1,0.1,0.2,0.1,0.4c0,0.2,0,0.3-0.1,0.4c-0.1,0.1-0.2,0.2-0.4,0.2c-0.2,0-0.3-0.1-0.4-0.2
			C20.4,8.5,20.3,8.3,20.3,8.1z M20.6,8.1c0,0.1,0,0.2,0.1,0.3c0.1,0.1,0.1,0.1,0.2,0.1s0.2,0,0.2-0.1c0.1-0.1,0.1-0.2,0.1-0.3
			c0-0.1,0-0.2-0.1-0.3C21,7.8,21,7.8,20.9,7.8s-0.2,0-0.2,0.1C20.6,7.9,20.6,8,20.6,8.1z"/>
		<path class="st20" d="M21.6,8.7V7.6h0.2l0.5,0.7V7.6h0.2v1.1h-0.2L21.8,8v0.7H21.6z"/>
	</g>
</g>
</svg>
