<?xml version="1.0" encoding="utf-8"?>
<!-- Generator: Adobe Illustrator 21.1.0, SVG Export Plug-In . SVG Version: 6.00 Build 0)  -->
<svg version="1.1" id="Layer_1" xmlns="http://www.w3.org/2000/svg" xmlns:xlink="http://www.w3.org/1999/xlink" x="0px" y="0px"
	 viewBox="0 0 33 33" style="enable-background:new 0 0 33 33;" xml:space="preserve">
<style type="text/css">
	.st0{fill:#DAE5EF;}
	.st1{fill:#CBD6E0;}
	.st2{fill:#D03F3F;}
	.st3{fill:#BF3333;}
	.st4{fill:#E24B4B;}
	.st5{fill:#6D4135;}
	.st6{fill:#5B331D;}
	.st7{fill:#3E4347;}
	.st8{fill:#4E99D2;}
	.st9{fill:#65B1EF;}
	.st10{fill:#FFDC97;}
	.st11{fill:#FFCD7D;}
	.st12{fill:#FFE9AB;}
	.st13{fill:#31373A;}
	.st14{fill:#8CC63E;}
	.st15{fill:#FFD93B;}
	.st16{fill:#F4C534;}
	.st17{fill:#59A5E0;}
	.st18{fill:#DEE4E9;}
	.st19{fill:#D3D9DD;}
	.st20{fill:#FFFFFF;}
	.st21{fill:#2AB4CD;}
	.st22{fill:#1DA9BF;}
	.st23{fill:#E9EFF4;}
	.st24{fill:#7FB239;}
	.st25{fill:#719D34;}
	.st26{opacity:0.5;}
	.st27{fill:#BBC7D1;}
	.st28{fill:#E84D88;}
	.st29{fill:#D23F77;}
	.st30{fill:#633B2A;}
	.st31{fill:#E9B02C;}
	.st32{fill:#38C0DC;}
	.st33{fill:#45CBEA;}
	.st34{fill:#5A5F63;}
	.st35{fill:#E18823;}
	.st36{fill:#CF7519;}
	.st37{fill:#428DC3;}
	.st38{fill:#8D9BA3;}
	.st39{fill:#7B8B92;}
	.st40{fill:#ACB9C1;}
	.st41{fill:#846144;}
	.st42{fill:#7A5B44;}
	.st43{fill:#6B503B;}
	.st44{fill:#F29A2E;}
	.st45{fill:#728389;}
	.st46{fill:#FFD68D;}
	.st47{fill:#8F6D52;}
	.st48{fill:#84939A;}
	.st49{opacity:0.1;}
	.st50{fill:#89664C;}
	.st51{opacity:0.15;}
	.st52{fill:#DE9C25;}
	.st53{fill:#2AB4CD;stroke:#FFFFFF;stroke-width:0.5;stroke-linecap:round;stroke-linejoin:round;stroke-miterlimit:10;}
	.st54{fill:#FC97B2;}
	.st55{fill:#E88EA7;}
	.st56{opacity:0.2;}
	.st57{fill:#BB3166;}
	.st58{opacity:0.35;}
	.st59{opacity:0.6;}
	.st60{fill:#F9D087;}
	.st61{fill:#A5856D;}
	.st62{fill:#5C4533;}
	.st63{fill:#9A795F;}
	.st64{fill:#512A1B;}
	.st65{fill:#492418;}
	.st66{fill:#BE630E;}
	.st67{fill:none;}
	.st68{opacity:0.5;fill:#E18823;}
	.st69{opacity:0.1;fill:#FFFFFF;}
	.st70{fill:#FCCB7C;}
	.st71{opacity:0.15;fill:#FFFFFF;}
	.st72{opacity:0.2;fill:#FFFFFF;}
	.st73{opacity:0.5;fill:#CBD6E0;}
</style>
<g>
	<g>
		<g>
			<g>
				<g>
					<polygon class="st0" points="21.5,13.7 21.5,5.5 16.5,2.6 11.5,5.5 11.5,13.7 					"/>
				</g>
			</g>
		</g>
		<polygon class="st1" points="11.5,5.5 11.5,6.7 16.5,4.1 21.5,6.7 21.5,5.5 16.5,2.6 		"/>
		<g>
			<g>
				<path class="st4" d="M23,6c-0.2,0.4-0.6,0.5-1,0.3l-5.6-2.9L11,6.4c-0.4,0.2-0.8,0-1-0.3c-0.2-0.4,0-0.8,0.3-1l5.9-3
					c0.2-0.1,0.4-0.1,0.7,0l5.9,3C23.1,5.3,23.2,5.7,23,6z"/>
			</g>
		</g>
	</g>
	<g>
		<g>
			<g>
				<rect x="2.1" y="16.6" class="st1" width="28.9" height="14.4"/>
			</g>
		</g>
		<g>
			<g>
				<polygon class="st27" points="30.9,17.9 30.9,16.6 2.1,16.6 2.1,16.9 				"/>
			</g>
		</g>
		<g>
			<rect x="12.1" y="16.4" class="st7" width="8.8" height="12.4"/>
		</g>
		<g>
			<rect x="11.3" y="17.3" class="st18" width="1.6" height="10.8"/>
		</g>
		<g>
			<rect x="15.7" y="17.3" class="st18" width="1.6" height="10.8"/>
		</g>
		<g>
			<rect x="20.1" y="17.3" class="st18" width="1.6" height="10.8"/>
		</g>
		<g>
			<g>
				<rect x="2.1" y="28.5" class="st38" width="28.9" height="2.5"/>
			</g>
		</g>
		<g>
			<g>
				<path class="st4" d="M32.4,16.2c0.1,0.3-0.2,0.7-0.6,0.7H1.2c-0.3,0-0.6-0.3-0.6-0.7l0.6-2.8C1.3,13.1,1.5,13,1.8,13h29.5
					c0.3,0,0.5,0.2,0.6,0.5L32.4,16.2z"/>
			</g>
		</g>
	</g>
	<g>
		<g>
			<rect x="9" y="29.8" class="st27" width="15.1" height="1.3"/>
			<rect x="10.2" y="28.5" class="st40" width="12.5" height="1.3"/>
		</g>
		<g>
			<g>
				<path class="st23" d="M13.5,17.3c0,0.2-0.2,0.4-0.4,0.4h-2c-0.2,0-0.4-0.2-0.4-0.4s0.2-0.4,0.4-0.4h2
					C13.3,16.9,13.5,17.1,13.5,17.3z"/>
			</g>
			<g>
				<path class="st23" d="M13.5,28.1c0,0.2-0.2,0.4-0.4,0.4h-2c-0.2,0-0.4-0.2-0.4-0.4s0.2-0.4,0.4-0.4h2
					C13.3,27.7,13.5,27.9,13.5,28.1z"/>
			</g>
		</g>
		<g>
			<g>
				<path class="st23" d="M17.9,17.3c0,0.2-0.2,0.4-0.4,0.4h-2c-0.2,0-0.4-0.2-0.4-0.4s0.2-0.4,0.4-0.4h2
					C17.7,16.9,17.9,17.1,17.9,17.3z"/>
			</g>
			<g>
				<path class="st23" d="M17.9,28.1c0,0.2-0.2,0.4-0.4,0.4h-2c-0.2,0-0.4-0.2-0.4-0.4s0.2-0.4,0.4-0.4h2
					C17.7,27.7,17.9,27.9,17.9,28.1z"/>
			</g>
		</g>
		<g>
			<g>
				<path class="st23" d="M22.3,17.3c0,0.2-0.2,0.4-0.4,0.4h-2c-0.2,0-0.4-0.2-0.4-0.4s0.2-0.4,0.4-0.4h2
					C22.1,16.9,22.3,17.1,22.3,17.3z"/>
			</g>
			<g>
				<path class="st23" d="M22.3,28.1c0,0.2-0.2,0.4-0.4,0.4h-2c-0.2,0-0.4-0.2-0.4-0.4s0.2-0.4,0.4-0.4h2
					C22.1,27.7,22.3,27.9,22.3,28.1z"/>
			</g>
		</g>
	</g>
	<g>
		<g>
			<g>
				<g>
					<g>
						<path class="st20" d="M6.2,19v2.9c0,0.2-0.1,0.3-0.3,0.3h-2c-0.2,0-0.3-0.1-0.3-0.3V19c0-0.2,0.1-0.3,0.3-0.3h2
							C6.1,18.7,6.2,18.8,6.2,19z"/>
						<g>
							<rect x="4" y="19.1" class="st17" width="1.7" height="2.6"/>
						</g>
					</g>
					<g>
						<polygon class="st9" points="4.8,19.1 4,19.9 4,20.3 5.2,19.1 						"/>
						<polygon class="st9" points="5.8,19.1 5.3,19.1 4,20.4 4,21.2 5.8,19.4 						"/>
					</g>
				</g>
				<g>
					<g>
						<path class="st20" d="M9.8,19v2.9c0,0.2-0.1,0.3-0.3,0.3h-2c-0.2,0-0.3-0.1-0.3-0.3V19c0-0.2,0.1-0.3,0.3-0.3h2
							C9.6,18.7,9.8,18.8,9.8,19z"/>
						<g>
							<rect x="7.6" y="19.1" class="st17" width="1.7" height="2.6"/>
						</g>
					</g>
					<g>
						<polygon class="st9" points="8.4,19.1 7.6,19.9 7.6,20.3 8.7,19.1 						"/>
						<polygon class="st9" points="9.3,19.1 8.9,19.1 7.6,20.4 7.6,21.2 9.3,19.4 						"/>
					</g>
				</g>
			</g>
			<g>
				<g>
					<g>
						<path class="st20" d="M6.2,23.3v2.9c0,0.2-0.1,0.3-0.3,0.3h-2c-0.2,0-0.3-0.1-0.3-0.3v-2.9c0-0.2,0.1-0.3,0.3-0.3h2
							C6.1,23,6.2,23.1,6.2,23.3z"/>
						<g>
							<rect x="4" y="23.5" class="st17" width="1.7" height="2.6"/>
						</g>
					</g>
					<g>
						<polygon class="st9" points="4.8,23.5 4,24.3 4,24.6 5.2,23.5 						"/>
						<polygon class="st9" points="5.8,23.5 5.3,23.5 4,24.8 4,25.5 5.8,23.8 						"/>
					</g>
				</g>
				<g>
					<g>
						<path class="st20" d="M9.8,23.3v2.9c0,0.2-0.1,0.3-0.3,0.3h-2c-0.2,0-0.3-0.1-0.3-0.3v-2.9c0-0.2,0.1-0.3,0.3-0.3h2
							C9.6,23,9.8,23.1,9.8,23.3z"/>
						<g>
							<rect x="7.6" y="23.5" class="st17" width="1.7" height="2.6"/>
						</g>
					</g>
					<g>
						<polygon class="st9" points="8.4,23.5 7.6,24.3 7.6,24.6 8.7,23.5 						"/>
						<polygon class="st9" points="9.3,23.5 8.9,23.5 7.6,24.8 7.6,25.5 9.3,23.8 						"/>
					</g>
				</g>
			</g>
		</g>
		<g>
			<g>
				<g>
					<g>
						<path class="st20" d="M25.8,19v2.9c0,0.2-0.1,0.3-0.3,0.3h-2c-0.2,0-0.3-0.1-0.3-0.3V19c0-0.2,0.1-0.3,0.3-0.3h2
							C25.7,18.7,25.8,18.8,25.8,19z"/>
						<g>
							<rect x="23.7" y="19.1" class="st17" width="1.7" height="2.6"/>
						</g>
					</g>
					<g>
						<polygon class="st9" points="24.5,19.1 23.7,19.9 23.7,20.3 24.8,19.1 						"/>
						<polygon class="st9" points="25.4,19.1 25,19.1 23.7,20.4 23.7,21.2 25.4,19.4 						"/>
					</g>
				</g>
				<g>
					<g>
						<path class="st20" d="M29.4,19v2.9c0,0.2-0.1,0.3-0.3,0.3h-2c-0.2,0-0.3-0.1-0.3-0.3V19c0-0.2,0.1-0.3,0.3-0.3h2
							C29.3,18.7,29.4,18.8,29.4,19z"/>
						<g>
							<rect x="27.2" y="19.1" class="st17" width="1.7" height="2.6"/>
						</g>
					</g>
					<g>
						<polygon class="st9" points="28,19.1 27.2,19.9 27.2,20.3 28.4,19.1 						"/>
						<polygon class="st9" points="29,19.1 28.5,19.1 27.2,20.4 27.2,21.2 29,19.4 						"/>
					</g>
				</g>
			</g>
			<g>
				<g>
					<g>
						<path class="st20" d="M25.8,23.3v2.9c0,0.2-0.1,0.3-0.3,0.3h-2c-0.2,0-0.3-0.1-0.3-0.3v-2.9c0-0.2,0.1-0.3,0.3-0.3h2
							C25.7,23,25.8,23.1,25.8,23.3z"/>
						<g>
							<rect x="23.7" y="23.5" class="st17" width="1.7" height="2.6"/>
						</g>
					</g>
					<g>
						<polygon class="st9" points="24.5,23.5 23.7,24.3 23.7,24.6 24.8,23.5 						"/>
						<polygon class="st9" points="25.4,23.5 25,23.5 23.7,24.8 23.7,25.5 25.4,23.8 						"/>
					</g>
				</g>
				<g>
					<g>
						<path class="st20" d="M29.4,23.3v2.9c0,0.2-0.1,0.3-0.3,0.3h-2c-0.2,0-0.3-0.1-0.3-0.3v-2.9c0-0.2,0.1-0.3,0.3-0.3h2
							C29.3,23,29.4,23.1,29.4,23.3z"/>
						<g>
							<rect x="27.2" y="23.5" class="st17" width="1.7" height="2.6"/>
						</g>
					</g>
					<g>
						<polygon class="st9" points="28,23.5 27.2,24.3 27.2,24.6 28.4,23.5 						"/>
						<polygon class="st9" points="29,23.5 28.5,23.5 27.2,24.8 27.2,25.5 29,23.8 						"/>
					</g>
				</g>
			</g>
		</g>
	</g>
	<g>
		<g>
			<g>
				<path class="st20" d="M16,7.5v2.9c0,0.2-0.1,0.3-0.3,0.3h-2c-0.2,0-0.3-0.1-0.3-0.3V7.5c0-0.2,0.1-0.3,0.3-0.3h2
					C15.9,7.2,16,7.4,16,7.5z"/>
				<g>
					<rect x="13.8" y="7.7" class="st17" width="1.7" height="2.6"/>
				</g>
			</g>
			<g>
				<polygon class="st9" points="14.7,7.7 13.8,8.5 13.8,8.8 15,7.7 				"/>
				<polygon class="st9" points="15.6,7.7 15.2,7.7 13.8,9 13.8,9.7 15.6,8 				"/>
			</g>
		</g>
		<g>
			<g>
				<path class="st20" d="M19.6,7.5v2.9c0,0.2-0.1,0.3-0.3,0.3h-2c-0.2,0-0.3-0.1-0.3-0.3V7.5c0-0.2,0.1-0.3,0.3-0.3h2
					C19.5,7.2,19.6,7.4,19.6,7.5z"/>
				<g>
					<rect x="17.4" y="7.7" class="st17" width="1.7" height="2.6"/>
				</g>
			</g>
			<g>
				<polygon class="st9" points="18.2,7.7 17.4,8.5 17.4,8.8 18.6,7.7 				"/>
				<polygon class="st9" points="19.2,7.7 18.7,7.7 17.4,9 17.4,9.7 19.2,8 				"/>
			</g>
		</g>
	</g>
</g>
</svg>
