<?xml version="1.0" encoding="utf-8"?>
<!-- Generator: Adobe Illustrator 21.1.0, SVG Export Plug-In . SVG Version: 6.00 Build 0)  -->
<svg version="1.1" id="Layer_1" xmlns="http://www.w3.org/2000/svg" xmlns:xlink="http://www.w3.org/1999/xlink" x="0px" y="0px"
	 viewBox="0 0 33 33" style="enable-background:new 0 0 33 33;" xml:space="preserve">
<style type="text/css">
	.st0{fill:#DAE5EF;}
	.st1{fill:#CBD6E0;}
	.st2{fill:#D03F3F;}
	.st3{fill:#BF3333;}
	.st4{fill:#E24B4B;}
	.st5{fill:#6D4135;}
	.st6{fill:#5B331D;}
	.st7{fill:#3E4347;}
	.st8{fill:#4E99D2;}
	.st9{fill:#65B1EF;}
	.st10{fill:#FFDC97;}
	.st11{fill:#FFCD7D;}
	.st12{fill:#FFE9AB;}
	.st13{fill:#31373A;}
	.st14{fill:#8CC63E;}
	.st15{fill:#FFD93B;}
	.st16{fill:#F4C534;}
	.st17{fill:#59A5E0;}
	.st18{fill:#DEE4E9;}
	.st19{fill:#D3D9DD;}
	.st20{fill:#FFFFFF;}
	.st21{fill:#2AB4CD;}
	.st22{fill:#1DA9BF;}
	.st23{fill:#E9EFF4;}
	.st24{fill:#7FB239;}
	.st25{fill:#719D34;}
	.st26{opacity:0.5;}
	.st27{fill:#BBC7D1;}
	.st28{fill:#E84D88;}
	.st29{fill:#D23F77;}
	.st30{fill:#633B2A;}
	.st31{fill:#E9B02C;}
	.st32{fill:#38C0DC;}
	.st33{fill:#45CBEA;}
	.st34{fill:#5A5F63;}
	.st35{fill:#E18823;}
	.st36{fill:#CF7519;}
	.st37{fill:#428DC3;}
	.st38{fill:#8D9BA3;}
	.st39{fill:#7B8B92;}
	.st40{fill:#ACB9C1;}
	.st41{fill:#846144;}
	.st42{fill:#7A5B44;}
	.st43{fill:#6B503B;}
	.st44{fill:#F29A2E;}
	.st45{fill:#728389;}
	.st46{fill:#FFD68D;}
	.st47{fill:#8F6D52;}
	.st48{fill:#84939A;}
	.st49{opacity:0.1;}
	.st50{fill:#89664C;}
	.st51{opacity:0.15;}
	.st52{fill:#DE9C25;}
	.st53{fill:#2AB4CD;stroke:#FFFFFF;stroke-width:0.5;stroke-linecap:round;stroke-linejoin:round;stroke-miterlimit:10;}
	.st54{fill:#FC97B2;}
	.st55{fill:#E88EA7;}
	.st56{opacity:0.2;}
	.st57{fill:#BB3166;}
	.st58{opacity:0.35;}
	.st59{opacity:0.6;}
	.st60{fill:#F9D087;}
	.st61{fill:#A5856D;}
	.st62{fill:#5C4533;}
	.st63{fill:#9A795F;}
	.st64{fill:#512A1B;}
	.st65{fill:#492418;}
	.st66{fill:#BE630E;}
	.st67{fill:none;}
	.st68{opacity:0.5;fill:#E18823;}
	.st69{opacity:0.1;fill:#FFFFFF;}
	.st70{fill:#FCCB7C;}
	.st71{opacity:0.15;fill:#FFFFFF;}
	.st72{opacity:0.2;fill:#FFFFFF;}
	.st73{opacity:0.5;fill:#CBD6E0;}
</style>
<g>
	<g>
		<g>
			<rect x="2.9" y="10.7" class="st41" width="27.2" height="21.8"/>
			<g>
				<rect x="2.9" y="10.7" class="st42" width="27.2" height="0.8"/>
			</g>
			<g>
				<rect x="2.9" y="29.5" class="st43" width="27.2" height="3"/>
			</g>
			<g>
				<path class="st0" d="M31.2,7.2V10c0,0.4-0.3,0.7-0.7,0.7H2.4c-0.4,0-0.7-0.3-0.7-0.7V7.2c0-0.4,0.3-0.7,0.7-0.7h28.1
					C30.9,6.5,31.2,6.8,31.2,7.2z"/>
			</g>
			<path class="st1" d="M24.5,6.5H11.9c0.2,0.8,0.6,1.6,1.2,2.2l2,2h13.6L24.5,6.5z"/>
		</g>
		<g>
			<g>
				<circle class="st23" cx="16.5" cy="5.3" r="4.8"/>
			</g>
		</g>
		<g>
			<g>
				<g>
					<g>
						<path class="st20" d="M9.8,12.7v3c0,0.2-0.2,0.4-0.4,0.4H6.4c-0.2,0-0.4-0.2-0.4-0.4v-3c0-0.2,0.2-0.4,0.4-0.4h3.1
							C9.7,12.3,9.8,12.5,9.8,12.7z"/>
						<g>
							<rect x="6.4" y="12.8" class="st8" width="3" height="2.9"/>
						</g>
					</g>
					<g>
						<polygon class="st9" points="7.6,12.8 6.4,14 6.4,14.4 8,12.8 						"/>
						<polygon class="st9" points="8.3,12.8 6.4,14.6 6.4,15.5 9.1,12.8 						"/>
					</g>
				</g>
				<g>
					<g>
						<path class="st20" d="M15.6,12.7v3c0,0.2-0.2,0.4-0.4,0.4h-3.1c-0.2,0-0.4-0.2-0.4-0.4v-3c0-0.2,0.2-0.4,0.4-0.4h3.1
							C15.4,12.3,15.6,12.5,15.6,12.7z"/>
						<g>
							<rect x="12.1" y="12.8" class="st8" width="3" height="2.9"/>
						</g>
					</g>
					<g>
						<polygon class="st9" points="13.4,12.8 12.1,14 12.1,14.4 13.7,12.8 						"/>
						<polygon class="st9" points="14,12.8 12.1,14.6 12.1,15.5 14.9,12.8 						"/>
					</g>
				</g>
				<g>
					<g>
						<path class="st20" d="M21.3,12.7v3c0,0.2-0.2,0.4-0.4,0.4h-3.1c-0.2,0-0.4-0.2-0.4-0.4v-3c0-0.2,0.2-0.4,0.4-0.4h3.1
							C21.1,12.3,21.3,12.5,21.3,12.7z"/>
						<g>
							<rect x="17.9" y="12.8" class="st8" width="3" height="2.9"/>
						</g>
					</g>
					<g>
						<polygon class="st9" points="19.1,12.8 17.9,14 17.9,14.4 19.5,12.8 						"/>
						<polygon class="st9" points="19.7,12.8 17.9,14.6 17.9,15.5 20.6,12.8 						"/>
					</g>
				</g>
				<g>
					<g>
						<path class="st20" d="M27.1,12.7v3c0,0.2-0.2,0.4-0.4,0.4h-3.1c-0.2,0-0.4-0.2-0.4-0.4v-3c0-0.2,0.2-0.4,0.4-0.4h3.1
							C26.9,12.3,27.1,12.5,27.1,12.7z"/>
						<g>
							<rect x="23.6" y="12.8" class="st8" width="3" height="2.9"/>
						</g>
					</g>
					<g>
						<polygon class="st9" points="24.9,12.8 23.6,14 23.6,14.4 25.2,12.8 						"/>
						<polygon class="st9" points="25.5,12.8 23.6,14.6 23.6,15.5 26.4,12.8 						"/>
					</g>
				</g>
			</g>
			<g>
				<g>
					<g>
						<path class="st20" d="M9.8,18.4v3c0,0.2-0.2,0.4-0.4,0.4H6.4c-0.2,0-0.4-0.2-0.4-0.4v-3c0-0.2,0.2-0.4,0.4-0.4h3.1
							C9.7,18,9.8,18.2,9.8,18.4z"/>
						<g>
							<rect x="6.4" y="18.5" class="st8" width="3" height="2.9"/>
						</g>
					</g>
					<g>
						<polygon class="st9" points="7.6,18.5 6.4,19.7 6.4,20.1 8,18.5 						"/>
						<polygon class="st9" points="8.3,18.5 6.4,20.3 6.4,21.2 9.1,18.5 						"/>
					</g>
				</g>
				<g>
					<g>
						<path class="st20" d="M15.6,18.4v3c0,0.2-0.2,0.4-0.4,0.4h-3.1c-0.2,0-0.4-0.2-0.4-0.4v-3c0-0.2,0.2-0.4,0.4-0.4h3.1
							C15.4,18,15.6,18.2,15.6,18.4z"/>
						<g>
							<rect x="12.1" y="18.5" class="st8" width="3" height="2.9"/>
						</g>
					</g>
					<g>
						<polygon class="st9" points="13.4,18.5 12.1,19.7 12.1,20.1 13.7,18.5 						"/>
						<polygon class="st9" points="14,18.5 12.1,20.3 12.1,21.2 14.9,18.5 						"/>
					</g>
				</g>
			</g>
			<g>
				<g>
					<g>
						<path class="st20" d="M9.8,24.1v3c0,0.2-0.2,0.4-0.4,0.4H6.4c-0.2,0-0.4-0.2-0.4-0.4v-3c0-0.2,0.2-0.4,0.4-0.4h3.1
							C9.7,23.7,9.8,23.9,9.8,24.1z"/>
						<g>
							<rect x="6.4" y="24.1" class="st8" width="3" height="2.9"/>
						</g>
					</g>
					<g>
						<polygon class="st9" points="7.6,24.1 6.4,25.4 6.4,25.7 8,24.1 						"/>
						<polygon class="st9" points="8.3,24.1 6.4,26 6.4,26.9 9.1,24.1 						"/>
					</g>
				</g>
				<g>
					<g>
						<path class="st20" d="M15.6,24.1v3c0,0.2-0.2,0.4-0.4,0.4h-3.1c-0.2,0-0.4-0.2-0.4-0.4v-3c0-0.2,0.2-0.4,0.4-0.4h3.1
							C15.4,23.7,15.6,23.9,15.6,24.1z"/>
						<g>
							<rect x="12.1" y="24.1" class="st8" width="3" height="2.9"/>
						</g>
					</g>
					<g>
						<polygon class="st9" points="13.4,24.1 12.1,25.4 12.1,25.7 13.7,24.1 						"/>
						<polygon class="st9" points="14,24.1 12.1,26 12.1,26.9 14.9,24.1 						"/>
					</g>
				</g>
			</g>
		</g>
		<g>
			<g>
				<rect x="16.8" y="19.3" class="st42" width="12" height="13.2"/>
			</g>
			<g>
				<rect x="17.9" y="20.8" class="st44" width="4.5" height="11.7"/>
				<rect x="23.2" y="20.8" class="st44" width="4.5" height="11.7"/>
			</g>
		</g>
		<g>
			<g>
				<path class="st7" d="M18.6,6.9c-0.3,0.5-0.9,0.9-1.3,0.8c-0.3,0-0.6,0.1-0.8,0.4c-0.1-0.3-0.4-0.4-0.7-0.4c0,0,0,0-0.1,0
					c-0.4,0-1-0.3-1.4-0.8c-0.5-0.9,0.1-1.5,0.2-1.9c0.2-0.4-0.4-1.4-0.4-1.4l0.7-0.9c0,0,1.1,0.5,1.6-0.2c0.5,0.6,1.6,0.2,1.6,0.2
					l0.7,0.9c0,0-0.6,1-0.4,1.4C18.6,5.4,19.1,6,18.6,6.9z"/>
			</g>
			<g>
				<path class="st16" d="M17.2,5.4c0,0-0.1,0.1,0,0.1L17.2,6c0,0.1-0.1,0.2-0.2,0.2l-0.4-0.2c0,0-0.1,0-0.1,0l-0.4,0.2
					c-0.1,0.1-0.2,0-0.2-0.2l0.1-0.4c0-0.1,0-0.1,0-0.1l-0.3-0.3c-0.1-0.1,0-0.2,0.1-0.3l0.4-0.1c0.1,0,0.1,0,0.1-0.1l0.2-0.4
					c0.1-0.1,0.2-0.1,0.3,0l0.2,0.4c0,0,0.1,0.1,0.1,0.1l0.4,0.1c0.1,0,0.2,0.2,0.1,0.3L17.2,5.4z"/>
			</g>
		</g>
	</g>
	<g>
		<g>
			<rect x="18.4" y="21.3" class="st20" width="3.5" height="3.8"/>
		</g>
		<g>
			<polygon class="st23" points="20.5,21.3 18.4,23.4 18.4,24.4 21.6,21.3 			"/>
			<polygon class="st23" points="18.4,22.3 18.4,22.9 20,21.3 19.5,21.3 			"/>
		</g>
	</g>
	<g>
		<g>
			<rect x="23.7" y="21.3" class="st20" width="3.5" height="3.8"/>
		</g>
		<g>
			<polygon class="st23" points="25.8,21.3 23.7,23.4 23.7,24.4 26.8,21.3 			"/>
			<polygon class="st23" points="23.7,22.3 23.7,22.9 25.3,21.3 24.8,21.3 			"/>
		</g>
	</g>
</g>
</svg>
