<?xml version="1.0" encoding="utf-8"?>
<!-- Generator: Adobe Illustrator 21.1.0, SVG Export Plug-In . SVG Version: 6.00 Build 0)  -->
<svg version="1.1" id="Layer_1" xmlns="http://www.w3.org/2000/svg" xmlns:xlink="http://www.w3.org/1999/xlink" x="0px" y="0px"
	 viewBox="0 0 33 33" style="enable-background:new 0 0 33 33;" xml:space="preserve">
<style type="text/css">
	.st0{fill:#DAE5EF;}
	.st1{fill:#CBD6E0;}
	.st2{fill:#D03F3F;}
	.st3{fill:#BF3333;}
	.st4{fill:#E24B4B;}
	.st5{fill:#6D4135;}
	.st6{fill:#5B331D;}
	.st7{fill:#3E4347;}
	.st8{fill:#4E99D2;}
	.st9{fill:#65B1EF;}
	.st10{fill:#FFDC97;}
	.st11{fill:#FFCD7D;}
	.st12{fill:#FFE9AB;}
	.st13{fill:#31373A;}
	.st14{fill:#8CC63E;}
	.st15{fill:#FFD93B;}
	.st16{fill:#F4C534;}
	.st17{fill:#59A5E0;}
	.st18{fill:#DEE4E9;}
	.st19{fill:#D3D9DD;}
	.st20{fill:#FFFFFF;}
	.st21{fill:#2AB4CD;}
	.st22{fill:#1DA9BF;}
	.st23{fill:#E9EFF4;}
	.st24{fill:#7FB239;}
	.st25{fill:#719D34;}
	.st26{opacity:0.5;}
	.st27{fill:#BBC7D1;}
	.st28{fill:#E84D88;}
	.st29{fill:#D23F77;}
	.st30{fill:#633B2A;}
	.st31{fill:#E9B02C;}
	.st32{fill:#38C0DC;}
	.st33{fill:#45CBEA;}
	.st34{fill:#5A5F63;}
	.st35{fill:#E18823;}
	.st36{fill:#CF7519;}
	.st37{fill:#428DC3;}
	.st38{fill:#8D9BA3;}
	.st39{fill:#7B8B92;}
	.st40{fill:#ACB9C1;}
	.st41{fill:#846144;}
	.st42{fill:#7A5B44;}
	.st43{fill:#6B503B;}
	.st44{fill:#F29A2E;}
	.st45{fill:#728389;}
	.st46{fill:#FFD68D;}
	.st47{fill:#8F6D52;}
	.st48{fill:#84939A;}
	.st49{opacity:0.1;}
	.st50{fill:#89664C;}
	.st51{opacity:0.15;}
	.st52{fill:#DE9C25;}
	.st53{fill:#2AB4CD;stroke:#FFFFFF;stroke-width:0.5;stroke-linecap:round;stroke-linejoin:round;stroke-miterlimit:10;}
	.st54{fill:#FC97B2;}
	.st55{fill:#E88EA7;}
	.st56{opacity:0.2;}
	.st57{fill:#BB3166;}
	.st58{opacity:0.35;}
	.st59{opacity:0.6;}
	.st60{fill:#F9D087;}
	.st61{fill:#A5856D;}
	.st62{fill:#5C4533;}
	.st63{fill:#9A795F;}
	.st64{fill:#512A1B;}
	.st65{fill:#492418;}
	.st66{fill:#BE630E;}
	.st67{fill:none;}
	.st68{opacity:0.5;fill:#E18823;}
	.st69{opacity:0.1;fill:#FFFFFF;}
	.st70{fill:#FCCB7C;}
	.st71{opacity:0.15;fill:#FFFFFF;}
	.st72{opacity:0.2;fill:#FFFFFF;}
	.st73{opacity:0.5;fill:#CBD6E0;}
</style>
<g>
	<g>
		<g>
			<g>
				<g>
					<g>
						<path class="st7" d="M22.6,2.5v1.1c0,0.2-0.2,0.4-0.4,0.4H10.8c-0.2,0-0.4-0.2-0.4-0.4V2.5c0-0.2,0.2-0.4,0.4-0.4h11.3
							C22.4,2,22.6,2.2,22.6,2.5z"/>
					</g>
				</g>
				<g>
					<g>
						<path class="st23" d="M20.8,0.9v2.1c0,0.2-0.2,0.4-0.4,0.4h-7.7c-0.2,0-0.4-0.2-0.4-0.4V0.9c0-0.2,0.2-0.4,0.4-0.4h7.7
							C20.6,0.5,20.8,0.7,20.8,0.9z"/>
					</g>
				</g>
				<g>
					<g>
						<rect x="9" y="6.2" class="st1" width="15" height="24.9"/>
					</g>
				</g>
				<g>
					<g>
						<rect x="9" y="29.1" class="st38" width="15" height="2.1"/>
					</g>
				</g>
				<g>
					<g>
						<path class="st21" d="M26.4,6.7H6.6C6.3,6.7,6,6.4,6.2,6l0.9-2.6C7.2,3.2,7.4,3,7.7,3h17.6c0.3,0,0.6,0.2,0.7,0.5L26.8,6
							C26.9,6.4,26.7,6.7,26.4,6.7z"/>
					</g>
				</g>
				<g>
					<g>
						<g>
							<g>
								<rect x="8.1" y="7.9" class="st0" width="1.8" height="23.3"/>
							</g>
						</g>
						<g>
							<g>
								<path class="st23" d="M10.4,7v1.1c0,0.2-0.1,0.3-0.3,0.3H7.9c-0.2,0-0.3-0.1-0.3-0.3V7c0-0.2,0.1-0.3,0.3-0.3h2.2
									C10.3,6.7,10.4,6.8,10.4,7z"/>
							</g>
						</g>
					</g>
					<g>
						<g>
							<g>
								<rect x="23.1" y="7.9" class="st0" width="1.8" height="23.3"/>
							</g>
						</g>
						<g>
							<g>
								<path class="st23" d="M25.4,7v1.1c0,0.2-0.1,0.3-0.3,0.3h-2.2c-0.2,0-0.3-0.1-0.3-0.3V7c0-0.2,0.1-0.3,0.3-0.3h2.2
									C25.3,6.7,25.4,6.8,25.4,7z"/>
							</g>
						</g>
					</g>
				</g>
			</g>
			<g>
				<g>
					<g>
						<g>
							<rect x="14.5" y="22.4" class="st27" width="4" height="6.7"/>
						</g>
					</g>
				</g>
			</g>
			<g>
				<g>
					<g>
						<g>
							<g>
								<rect x="12" y="8.5" class="st16" width="3.6" height="4"/>
								<path class="st20" d="M15.6,12.7H12c-0.1,0-0.2-0.1-0.2-0.2v-4c0-0.1,0.1-0.2,0.2-0.2h3.6c0.1,0,0.2,0.1,0.2,0.2v4
									C15.7,12.6,15.7,12.7,15.6,12.7z M12.1,12.3h3.2V8.7h-3.2V12.3z"/>
							</g>
						</g>
						<g>
							<g>
								<g>
									<rect x="12" y="10.3" class="st20" width="3.6" height="0.4"/>
								</g>
							</g>
							<g>
								<g>
									<rect x="13.6" y="8.5" class="st20" width="0.4" height="4"/>
								</g>
							</g>
						</g>
					</g>
					<g>
						<g>
							<g>
								<rect x="17.4" y="8.5" class="st16" width="3.6" height="4"/>
								<path class="st20" d="M21,12.7h-3.6c-0.1,0-0.2-0.1-0.2-0.2v-4c0-0.1,0.1-0.2,0.2-0.2H21c0.1,0,0.2,0.1,0.2,0.2v4
									C21.2,12.6,21.1,12.7,21,12.7z M17.6,12.3h3.2V8.7h-3.2V12.3z"/>
							</g>
						</g>
						<g>
							<g>
								<g>
									<rect x="17.4" y="10.3" class="st20" width="3.6" height="0.4"/>
								</g>
							</g>
							<g>
								<g>
									<rect x="19.1" y="8.5" class="st20" width="0.4" height="4"/>
								</g>
							</g>
						</g>
					</g>
				</g>
				<g>
					<g>
						<g>
							<g>
								<rect x="12" y="14.1" class="st16" width="3.6" height="4"/>
								<path class="st20" d="M15.6,18.2H12c-0.1,0-0.2-0.1-0.2-0.2v-4c0-0.1,0.1-0.2,0.2-0.2h3.6c0.1,0,0.2,0.1,0.2,0.2v4
									C15.7,18.2,15.7,18.2,15.6,18.2z M12.1,17.9h3.2v-3.6h-3.2V17.9z"/>
							</g>
						</g>
						<g>
							<g>
								<g>
									<rect x="12" y="15.9" class="st20" width="3.6" height="0.4"/>
								</g>
							</g>
							<g>
								<g>
									<rect x="13.6" y="14.1" class="st20" width="0.4" height="4"/>
								</g>
							</g>
						</g>
					</g>
					<g>
						<g>
							<g>
								<rect x="17.4" y="14.1" class="st16" width="3.6" height="4"/>
								<path class="st20" d="M21,18.2h-3.6c-0.1,0-0.2-0.1-0.2-0.2v-4c0-0.1,0.1-0.2,0.2-0.2H21c0.1,0,0.2,0.1,0.2,0.2v4
									C21.2,18.2,21.1,18.2,21,18.2z M17.6,17.9h3.2v-3.6h-3.2V17.9z"/>
							</g>
						</g>
						<g>
							<g>
								<g>
									<rect x="17.4" y="15.9" class="st20" width="3.6" height="0.4"/>
								</g>
							</g>
							<g>
								<g>
									<rect x="19.1" y="14.1" class="st20" width="0.4" height="4"/>
								</g>
							</g>
						</g>
					</g>
				</g>
			</g>
			<g>
				<g>
					<path class="st21" d="M21.4,21.8h-9.8c-0.3,0-0.4-0.2-0.4-0.5l0.4-1.5c0.1-0.2,0.2-0.3,0.4-0.3h8.9c0.2,0,0.4,0.1,0.4,0.3
						l0.4,1.5C21.8,21.6,21.7,21.8,21.4,21.8z"/>
				</g>
			</g>
			<g>
				<g>
					<g>
						<g>
							<rect x="12.3" y="22.3" class="st23" width="1.3" height="6.4"/>
						</g>
					</g>
					<g>
						<g>
							<g>
								<path class="st20" d="M14,22.1c0,0.2-0.1,0.3-0.3,0.3h-1.3c-0.2,0-0.3-0.1-0.3-0.3c0-0.2,0.1-0.3,0.3-0.3h1.3
									C13.8,21.8,14,21.9,14,22.1z"/>
							</g>
						</g>
					</g>
					<g>
						<g>
							<path class="st20" d="M12,28.8c0-0.2,0.1-0.3,0.3-0.3h1.3c0.2,0,0.3,0.1,0.3,0.3c0,0.2-0.1,0.3-0.3,0.3h-1.3
								C12.1,29.1,12,28.9,12,28.8z"/>
						</g>
					</g>
				</g>
				<g>
					<g>
						<rect x="19.3" y="22.3" class="st23" width="1.3" height="6.4"/>
					</g>
					<g>
						<g>
							<g>
								<g>
									<path class="st20" d="M21,22.1c0,0.2-0.1,0.3-0.3,0.3h-1.3c-0.2,0-0.3-0.1-0.3-0.3c0-0.2,0.1-0.3,0.3-0.3h1.3
										C20.8,21.8,21,21.9,21,22.1z"/>
								</g>
							</g>
						</g>
					</g>
					<g>
						<g>
							<path class="st20" d="M19,28.8c0-0.2,0.1-0.3,0.3-0.3h1.3c0.2,0,0.3,0.1,0.3,0.3c0,0.2-0.1,0.3-0.3,0.3h-1.3
								C19.2,29.1,19,28.9,19,28.8z"/>
						</g>
					</g>
				</g>
			</g>
			<g>
				<g>
					<rect x="12" y="29.1" class="st27" width="9" height="1"/>
				</g>
			</g>
			<g>
				<g>
					<rect x="11.1" y="30.1" class="st0" width="10.8" height="1"/>
				</g>
			</g>
			<g>
				<g>
					<path class="st4" d="M13.4,2.5V1.1h0.3v0.5h0.5V1.1h0.3v1.3h-0.3V1.9h-0.5v0.6H13.4z"/>
				</g>
				<g>
					<path class="st4" d="M14.7,1.8c0-0.1,0-0.3,0.1-0.3c0-0.1,0.1-0.1,0.1-0.2c0.1-0.1,0.1-0.1,0.2-0.1c0.1,0,0.2-0.1,0.3-0.1
						c0.2,0,0.4,0.1,0.5,0.2C16,1.4,16,1.6,16,1.8C16,2,16,2.2,15.8,2.3c-0.1,0.1-0.3,0.2-0.5,0.2c-0.2,0-0.4-0.1-0.5-0.2
						C14.8,2.2,14.7,2,14.7,1.8z M15,1.8c0,0.2,0,0.3,0.1,0.3c0.1,0.1,0.2,0.1,0.3,0.1s0.2,0,0.3-0.1c0.1-0.1,0.1-0.2,0.1-0.4
						c0-0.2,0-0.3-0.1-0.3c-0.1-0.1-0.2-0.1-0.3-0.1s-0.2,0-0.3,0.1C15,1.5,15,1.6,15,1.8z"/>
				</g>
				<g>
					<path class="st4" d="M16.5,2.5V1.3h-0.4V1.1h1.1v0.2h-0.4v1.1H16.5z"/>
				</g>
				<g>
					<path class="st4" d="M17.4,2.5V1.1h1v0.2h-0.7v0.3h0.7v0.2h-0.7v0.4h0.8v0.2H17.4z"/>
				</g>
				<g>
					<path class="st4" d="M18.6,2.5V1.1h0.3v1.1h0.7v0.2H18.6z"/>
				</g>
			</g>
		</g>
		<g>
			<g>
				<g>
					<path class="st14" d="M26.3,31.8c0,0.4-0.3,0.7-0.7,0.7H7.4c-0.4,0-0.7-0.3-0.7-0.7c0-0.4,0.3-0.7,0.7-0.7h18.1
						C25.9,31.2,26.3,31.5,26.3,31.8z"/>
				</g>
			</g>
		</g>
	</g>
	<g>
		<g>
			<g>
				<rect x="14.9" y="23.4" class="st7" width="3.2" height="5.6"/>
			</g>
			<g>
				<g>
					<rect x="15.3" y="23.8" class="st9" width="2.4" height="2.1"/>
				</g>
			</g>
			<g class="st51">
				<g>
					<polygon class="st20" points="15.3,25.3 16.4,23.8 16.1,23.8 15.3,24.8 					"/>
				</g>
				<g>
					<polygon class="st20" points="15.7,25.9 17.3,23.8 16.7,23.8 15.3,25.6 15.3,25.9 					"/>
				</g>
			</g>
		</g>
		<g>
			<g>
				<circle class="st13" cx="17.6" cy="26.8" r="0.2"/>
			</g>
		</g>
	</g>
</g>
</svg>
