<?xml version="1.0" encoding="utf-8"?>
<!-- Generator: Adobe Illustrator 21.1.0, SVG Export Plug-In . SVG Version: 6.00 Build 0)  -->
<svg version="1.1" id="Layer_1" xmlns="http://www.w3.org/2000/svg" xmlns:xlink="http://www.w3.org/1999/xlink" x="0px" y="0px"
	 viewBox="0 0 33 33" style="enable-background:new 0 0 33 33;" xml:space="preserve">
<style type="text/css">
	.st0{fill:#DAE5EF;}
	.st1{fill:#CBD6E0;}
	.st2{fill:#D03F3F;}
	.st3{fill:#BF3333;}
	.st4{fill:#E24B4B;}
	.st5{fill:#6D4135;}
	.st6{fill:#5B331D;}
	.st7{fill:#3E4347;}
	.st8{fill:#4E99D2;}
	.st9{fill:#65B1EF;}
	.st10{fill:#FFDC97;}
	.st11{fill:#FFCD7D;}
	.st12{fill:#FFE9AB;}
	.st13{fill:#31373A;}
	.st14{fill:#8CC63E;}
	.st15{fill:#FFD93B;}
	.st16{fill:#F4C534;}
	.st17{fill:#59A5E0;}
	.st18{fill:#DEE4E9;}
	.st19{fill:#D3D9DD;}
	.st20{fill:#FFFFFF;}
	.st21{fill:#2AB4CD;}
	.st22{fill:#1DA9BF;}
	.st23{fill:#E9EFF4;}
	.st24{fill:#7FB239;}
	.st25{fill:#719D34;}
	.st26{opacity:0.5;}
	.st27{fill:#BBC7D1;}
	.st28{fill:#E84D88;}
	.st29{fill:#D23F77;}
	.st30{fill:#633B2A;}
	.st31{fill:#E9B02C;}
	.st32{fill:#38C0DC;}
	.st33{fill:#45CBEA;}
	.st34{fill:#5A5F63;}
	.st35{fill:#E18823;}
	.st36{fill:#CF7519;}
	.st37{fill:#428DC3;}
	.st38{fill:#8D9BA3;}
	.st39{fill:#7B8B92;}
	.st40{fill:#ACB9C1;}
	.st41{fill:#846144;}
	.st42{fill:#7A5B44;}
	.st43{fill:#6B503B;}
	.st44{fill:#F29A2E;}
	.st45{fill:#728389;}
	.st46{fill:#FFD68D;}
	.st47{fill:#8F6D52;}
	.st48{fill:#84939A;}
	.st49{opacity:0.1;}
	.st50{fill:#89664C;}
	.st51{opacity:0.15;}
	.st52{fill:#DE9C25;}
	.st53{fill:#2AB4CD;stroke:#FFFFFF;stroke-width:0.5;stroke-linecap:round;stroke-linejoin:round;stroke-miterlimit:10;}
	.st54{fill:#FC97B2;}
	.st55{fill:#E88EA7;}
	.st56{opacity:0.2;}
	.st57{fill:#BB3166;}
	.st58{opacity:0.35;}
	.st59{opacity:0.6;}
	.st60{fill:#F9D087;}
	.st61{fill:#A5856D;}
	.st62{fill:#5C4533;}
	.st63{fill:#9A795F;}
	.st64{fill:#512A1B;}
	.st65{fill:#492418;}
	.st66{fill:#BE630E;}
	.st67{fill:none;}
	.st68{opacity:0.5;fill:#E18823;}
	.st69{opacity:0.1;fill:#FFFFFF;}
	.st70{fill:#FCCB7C;}
	.st71{opacity:0.15;fill:#FFFFFF;}
	.st72{opacity:0.2;fill:#FFFFFF;}
	.st73{opacity:0.5;fill:#CBD6E0;}
</style>
<g>
	<g>
		<g>
			<rect x="4.8" y="0.5" class="st0" width="23.4" height="4.6"/>
		</g>
		<g>
			<rect x="3" y="18.5" class="st0" width="27" height="12.1"/>
		</g>
		<g>
			<rect x="5.2" y="6.3" class="st0" width="22.6" height="12.9"/>
		</g>
		<g>
			<rect x="3" y="19.7" class="st27" width="27" height="1.6"/>
		</g>
		<g>
			<polygon class="st27" points="28.2,5.1 27.8,6.3 5.2,6.3 4.8,5.1 			"/>
		</g>
	</g>
	<g>
		<g>
			<path class="st4" d="M9,3.9V1.7h1.6v0.4H9.4v0.5h1.1v0.4H9.4v0.6h1.2v0.4H9z"/>
			<path class="st4" d="M11,3.9V1.7h0.7l0.4,1.5l0.4-1.5h0.7v2.2h-0.4V2.2l-0.4,1.7h-0.4l-0.4-1.7v1.7H11z"/>
			<path class="st4" d="M13.6,1.7h0.9c0.2,0,0.3,0,0.4,0c0.1,0,0.2,0,0.2,0.1s0.1,0.1,0.2,0.2c0,0.1,0.1,0.2,0.1,0.3
				c0,0.1,0,0.2-0.1,0.3c-0.1,0.1-0.1,0.2-0.2,0.2c0.1,0,0.2,0.1,0.3,0.2s0.1,0.2,0.1,0.3c0,0.1,0,0.2-0.1,0.3
				c0,0.1-0.1,0.2-0.2,0.2S15,3.9,14.9,3.9c-0.1,0-0.3,0-0.5,0h-0.8V1.7z M14.1,2.1v0.5h0.3c0.2,0,0.3,0,0.3,0c0.1,0,0.1,0,0.2-0.1
				c0,0,0.1-0.1,0.1-0.2c0-0.1,0-0.1-0.1-0.2c0,0-0.1-0.1-0.2-0.1c0,0-0.2,0-0.4,0H14.1z M14.1,2.9v0.6h0.4c0.2,0,0.3,0,0.3,0
				c0.1,0,0.1,0,0.2-0.1c0,0,0.1-0.1,0.1-0.2c0-0.1,0-0.1,0-0.2c0,0-0.1-0.1-0.1-0.1s-0.2,0-0.4,0H14.1z"/>
			<path class="st4" d="M17.8,3.9h-0.5l-0.2-0.5h-0.9l-0.2,0.5h-0.5l0.9-2.2h0.5L17.8,3.9z M17,3l-0.3-0.8L16.4,3H17z"/>
			<path class="st4" d="M18,3.2l0.4,0c0,0.1,0.1,0.3,0.2,0.3s0.2,0.1,0.3,0.1c0.1,0,0.3,0,0.3-0.1s0.1-0.1,0.1-0.2
				c0-0.1,0-0.1,0-0.1S19.2,3.1,19.1,3C19,3,18.9,3,18.7,2.9c-0.2-0.1-0.4-0.1-0.5-0.2C18.1,2.6,18,2.4,18,2.3c0-0.1,0-0.2,0.1-0.3
				s0.2-0.2,0.3-0.2s0.3-0.1,0.4-0.1c0.3,0,0.5,0.1,0.6,0.2c0.1,0.1,0.2,0.3,0.2,0.5l-0.4,0c0-0.1-0.1-0.2-0.1-0.2
				C19.1,2,19,2,18.8,2c-0.1,0-0.2,0-0.3,0.1c0,0-0.1,0.1-0.1,0.1c0,0.1,0,0.1,0.1,0.1c0.1,0,0.2,0.1,0.4,0.1
				c0.2,0.1,0.4,0.1,0.5,0.2c0.1,0.1,0.2,0.1,0.2,0.2c0.1,0.1,0.1,0.2,0.1,0.4c0,0.1,0,0.2-0.1,0.4s-0.2,0.2-0.3,0.2
				c-0.1,0.1-0.3,0.1-0.5,0.1c-0.3,0-0.5-0.1-0.6-0.2C18.1,3.6,18,3.4,18,3.2z"/>
			<path class="st4" d="M20,3.2l0.4,0c0,0.1,0.1,0.3,0.2,0.3c0.1,0.1,0.2,0.1,0.3,0.1c0.1,0,0.3,0,0.3-0.1s0.1-0.1,0.1-0.2
				c0-0.1,0-0.1,0-0.1c0,0-0.1-0.1-0.2-0.1C21.1,3,21,3,20.8,2.9c-0.2-0.1-0.4-0.1-0.5-0.2c-0.1-0.1-0.2-0.3-0.2-0.4
				c0-0.1,0-0.2,0.1-0.3c0.1-0.1,0.2-0.2,0.3-0.2c0.1-0.1,0.3-0.1,0.4-0.1c0.3,0,0.5,0.1,0.6,0.2c0.1,0.1,0.2,0.3,0.2,0.5l-0.4,0
				c0-0.1-0.1-0.2-0.1-0.2C21.1,2,21,2,20.9,2c-0.1,0-0.2,0-0.3,0.1c0,0-0.1,0.1-0.1,0.1c0,0.1,0,0.1,0.1,0.1c0.1,0,0.2,0.1,0.4,0.1
				s0.4,0.1,0.5,0.2s0.2,0.1,0.2,0.2c0.1,0.1,0.1,0.2,0.1,0.4c0,0.1,0,0.2-0.1,0.4s-0.2,0.2-0.3,0.2s-0.3,0.1-0.5,0.1
				c-0.3,0-0.5-0.1-0.6-0.2C20.1,3.6,20,3.4,20,3.2z"/>
			<path class="st4" d="M22.8,3.9V3L22,1.7h0.5L23,2.6l0.5-0.9H24L23.2,3v0.9H22.8z"/>
		</g>
	</g>
	<g>
		<path class="st1" d="M31.2,19.4c0,0.5-0.4,0.9-0.9,0.9H2.6c-0.5,0-0.9-0.4-0.9-0.9s0.4-0.9,0.9-0.9h27.8
			C30.9,18.5,31.2,18.9,31.2,19.4z"/>
	</g>
	<g>
		<g>
			<g>
				<g>
					<path class="st27" d="M12.1,8.5v7.7c0,0.3-0.3,0.6-0.6,0.6H7.8c-0.3,0-0.6-0.3-0.6-0.6V8.5C7.2,8.2,7.5,8,7.8,8h3.8
						C11.8,8,12.1,8.2,12.1,8.5z"/>
				</g>
			</g>
			<g>
				<g>
					<path class="st27" d="M18.8,8.5v7.7c0,0.3-0.3,0.6-0.6,0.6h-3.8c-0.3,0-0.6-0.3-0.6-0.6V8.5c0-0.3,0.3-0.6,0.6-0.6h3.8
						C18.5,8,18.8,8.2,18.8,8.5z"/>
				</g>
			</g>
			<g>
				<g>
					<path class="st27" d="M25.5,8.5v7.7c0,0.3-0.3,0.6-0.6,0.6h-3.8c-0.3,0-0.6-0.3-0.6-0.6V8.5c0-0.3,0.3-0.6,0.6-0.6h3.8
						C25.2,8,25.5,8.2,25.5,8.5z"/>
				</g>
			</g>
		</g>
		<g>
			<rect x="14.7" y="8.8" class="st7" width="3.3" height="7.2"/>
			<rect x="21.4" y="8.8" class="st7" width="3.3" height="7.2"/>
			<rect x="8" y="8.8" class="st7" width="3.3" height="7.2"/>
		</g>
		<g>
			<path class="st13" d="M18,13.6V16h-3.3v-1.7C15.9,14.1,17,13.9,18,13.6z"/>
			<path class="st13" d="M24.7,8.8V16h-3.3v-3.8C23.1,11.2,24.2,10.1,24.7,8.8L24.7,8.8z"/>
			<path class="st13" d="M11.3,14.5V16H8v-1.6c0.9,0.1,1.9,0.2,2.9,0.2C11,14.6,11.2,14.6,11.3,14.5z"/>
		</g>
	</g>
	<g>
		<g>
			<g>
				<path class="st27" d="M10,23.2v5.4c0,0.3-0.3,0.6-0.6,0.6H5.7c-0.3,0-0.6-0.3-0.6-0.6v-5.4c0-0.3,0.3-0.6,0.6-0.6h3.8
					C9.8,22.6,10,22.8,10,23.2z"/>
			</g>
		</g>
		<rect x="5.9" y="23.4" class="st7" width="3.3" height="4.9"/>
	</g>
	<g>
		<g>
			<g>
				<path class="st27" d="M16.8,23.2v5.4c0,0.3-0.3,0.6-0.6,0.6h-3.8c-0.3,0-0.6-0.3-0.6-0.6v-5.4c0-0.3,0.3-0.6,0.6-0.6h3.8
					C16.5,22.6,16.8,22.8,16.8,23.2z"/>
			</g>
		</g>
		<rect x="12.7" y="23.4" class="st7" width="3.3" height="4.9"/>
		<g>
			<path class="st13" d="M9.2,27.2v1.1H5.9v-1c0.6,0,1.3,0,2,0C8.4,27.3,8.8,27.2,9.2,27.2z"/>
			<path class="st13" d="M16,24.3v4h-3.3v-1.8C14.4,26,15.6,25.2,16,24.3z"/>
		</g>
	</g>
	<g>
		<rect x="18.9" y="22.4" class="st27" width="9.1" height="8.2"/>
	</g>
	<g>
		<rect x="19.7" y="23.6" class="st7" width="3.4" height="7"/>
		<rect x="23.7" y="23.6" class="st7" width="3.4" height="7"/>
	</g>
	<g>
		<path class="st13" d="M23.1,28.7v2h-3.4v-1.4c0.4,0,0.9,0,1.3-0.1C21.8,29.1,22.5,28.9,23.1,28.7z"/>
		<path class="st13" d="M27.1,25.5v5.2h-3.4v-2.2C25.3,27.8,26.5,26.7,27.1,25.5z"/>
	</g>
	<g>
		<path class="st14" d="M31.6,31.6c0,0.5-0.4,0.9-0.9,0.9H2.4c-0.5,0-0.9-0.4-0.9-0.9c0-0.5,0.4-0.9,0.9-0.9h28.3
			C31.2,30.6,31.6,31,31.6,31.6z"/>
	</g>
</g>
</svg>
