<?xml version="1.0" encoding="utf-8"?>
<!-- Generator: Adobe Illustrator 21.1.0, SVG Export Plug-In . SVG Version: 6.00 Build 0)  -->
<svg version="1.1" id="Layer_1" xmlns="http://www.w3.org/2000/svg" xmlns:xlink="http://www.w3.org/1999/xlink" x="0px" y="0px"
	 viewBox="0 0 33 33" style="enable-background:new 0 0 33 33;" xml:space="preserve">
<style type="text/css">
	.st0{fill:#DAE5EF;}
	.st1{fill:#CBD6E0;}
	.st2{fill:#D03F3F;}
	.st3{fill:#BF3333;}
	.st4{fill:#E24B4B;}
	.st5{fill:#6D4135;}
	.st6{fill:#5B331D;}
	.st7{fill:#3E4347;}
	.st8{fill:#4E99D2;}
	.st9{fill:#65B1EF;}
	.st10{fill:#FFDC97;}
	.st11{fill:#FFCD7D;}
	.st12{fill:#FFE9AB;}
	.st13{fill:#31373A;}
	.st14{fill:#8CC63E;}
	.st15{fill:#FFD93B;}
	.st16{fill:#F4C534;}
	.st17{fill:#59A5E0;}
	.st18{fill:#DEE4E9;}
	.st19{fill:#D3D9DD;}
	.st20{fill:#FFFFFF;}
	.st21{fill:#2AB4CD;}
	.st22{fill:#1DA9BF;}
	.st23{fill:#E9EFF4;}
	.st24{fill:#7FB239;}
	.st25{fill:#719D34;}
	.st26{opacity:0.5;}
	.st27{fill:#BBC7D1;}
	.st28{fill:#E84D88;}
	.st29{fill:#D23F77;}
	.st30{fill:#633B2A;}
	.st31{fill:#E9B02C;}
	.st32{fill:#38C0DC;}
	.st33{fill:#45CBEA;}
	.st34{fill:#5A5F63;}
	.st35{fill:#E18823;}
	.st36{fill:#CF7519;}
	.st37{fill:#428DC3;}
	.st38{fill:#8D9BA3;}
	.st39{fill:#7B8B92;}
	.st40{fill:#ACB9C1;}
	.st41{fill:#846144;}
	.st42{fill:#7A5B44;}
	.st43{fill:#6B503B;}
	.st44{fill:#F29A2E;}
	.st45{fill:#728389;}
	.st46{fill:#FFD68D;}
	.st47{fill:#8F6D52;}
	.st48{fill:#84939A;}
	.st49{opacity:0.1;}
	.st50{fill:#89664C;}
	.st51{opacity:0.15;}
	.st52{fill:#DE9C25;}
	.st53{fill:#2AB4CD;stroke:#FFFFFF;stroke-width:0.5;stroke-linecap:round;stroke-linejoin:round;stroke-miterlimit:10;}
	.st54{fill:#FC97B2;}
	.st55{fill:#E88EA7;}
	.st56{opacity:0.2;}
	.st57{fill:#BB3166;}
	.st58{opacity:0.35;}
	.st59{opacity:0.6;}
	.st60{fill:#F9D087;}
	.st61{fill:#A5856D;}
	.st62{fill:#5C4533;}
	.st63{fill:#9A795F;}
	.st64{fill:#512A1B;}
	.st65{fill:#492418;}
	.st66{fill:#BE630E;}
	.st67{fill:none;}
	.st68{opacity:0.5;fill:#E18823;}
	.st69{opacity:0.1;fill:#FFFFFF;}
	.st70{fill:#FCCB7C;}
	.st71{opacity:0.15;fill:#FFFFFF;}
	.st72{opacity:0.2;fill:#FFFFFF;}
	.st73{opacity:0.5;fill:#CBD6E0;}
</style>
<g>
	<g>
		<g>
			<rect x="1.9" y="11.3" class="st40" width="29.1" height="14.1"/>
		</g>
		<g class="st58">
			<rect x="1.9" y="11.3" class="st38" width="29.1" height="0.8"/>
		</g>
		<g>
			<rect x="1.9" y="25.4" class="st38" width="29.1" height="2.2"/>
		</g>
		<g>
			<path class="st2" d="M31.7,11.3H1.3c-0.5,0-0.9-0.5-0.8-1l0.8-3.1c0.1-0.4,0.5-0.7,0.9-0.7h28.5c0.4,0,0.8,0.3,0.9,0.7l0.8,3.1
				C32.6,10.8,32.2,11.3,31.7,11.3z"/>
		</g>
		<g>
			<path class="st3" d="M2.2,6.5h1.3c-0.4,0-0.7,0.3-0.8,0.7L2,10.3c-0.1,0.5,0.2,1,0.7,1H1.3c-0.5,0-0.9-0.5-0.8-1l0.8-3.1
				C1.5,6.8,1.8,6.5,2.2,6.5z"/>
			<path class="st4" d="M31.7,11.3h-1.4c0.5,0,0.8-0.5,0.7-1l-0.8-3.1c-0.1-0.4-0.4-0.7-0.8-0.7h1.3c0.4,0,0.8,0.3,0.9,0.7l0.8,3.1
				C32.6,10.8,32.2,11.3,31.7,11.3z"/>
		</g>
		<rect x="10.5" y="10.8" class="st27" width="11.7" height="14.5"/>
		<g>
			<rect x="10.2" y="11.9" class="st1" width="1.3" height="11.8"/>
		</g>
	</g>
	<g>
		<g>
			<polygon class="st23" points="23.5,10 23.5,11.3 9.5,11.3 9.5,10 16.5,5.4 			"/>
		</g>
		<g>
			<polygon class="st19" points="10.8,10.3 16.5,6.6 22.2,10.3 			"/>
		</g>
	</g>
	<g>
		<g>
			<path class="st1" d="M12.2,24.3v1H9.5v-1c0-0.2,0.1-0.3,0.3-0.3h2.2C12.1,24,12.2,24.2,12.2,24.3z"/>
		</g>
		<g>
			<path class="st0" d="M12,11.6c0,0.2-0.1,0.3-0.3,0.3H10c-0.2,0-0.3-0.1-0.3-0.3s0.2-0.3,0.3-0.3h1.6C11.8,11.3,12,11.4,12,11.6z"
				/>
		</g>
		<g>
			<path class="st0" d="M12,23.7c0,0.2-0.1,0.3-0.3,0.3H10c-0.2,0-0.3-0.1-0.3-0.3s0.2-0.3,0.3-0.3h1.6C11.8,23.4,12,23.5,12,23.7z"
				/>
		</g>
	</g>
	<g>
		<g>
			<path class="st1" d="M23.5,24.3v1h-2.7v-1c0-0.2,0.1-0.3,0.3-0.3h2.2C23.4,24,23.5,24.2,23.5,24.3z"/>
		</g>
		<g>
			<rect x="21.5" y="11.9" class="st1" width="1.3" height="11.8"/>
		</g>
		<g>
			<path class="st0" d="M23.3,11.6c0,0.2-0.1,0.3-0.3,0.3h-1.6c-0.2,0-0.3-0.1-0.3-0.3s0.2-0.3,0.3-0.3H23
				C23.2,11.3,23.3,11.4,23.3,11.6z"/>
		</g>
		<g>
			<path class="st0" d="M23.3,23.7c0,0.2-0.1,0.3-0.3,0.3h-1.6c-0.2,0-0.3-0.1-0.3-0.3s0.2-0.3,0.3-0.3H23
				C23.2,23.4,23.3,23.5,23.3,23.7z"/>
		</g>
	</g>
	<g>
		<g>
			<g>
				<path class="st34" d="M15.9,13.1v3.8c0,0.2-0.1,0.3-0.3,0.3h-2.9c-0.2,0-0.3-0.1-0.3-0.3v-3.8c0-0.2,0.1-0.3,0.3-0.3h2.9
					C15.7,12.8,15.9,13,15.9,13.1z"/>
				<g>
					<rect x="12.8" y="13.2" class="st9" width="2.7" height="1.6"/>
					<rect x="12.8" y="15.2" class="st9" width="2.7" height="1.6"/>
				</g>
			</g>
			<g>
				<path class="st34" d="M20.5,13.1v3.8c0,0.2-0.1,0.3-0.3,0.3h-2.9c-0.2,0-0.3-0.1-0.3-0.3v-3.8c0-0.2,0.1-0.3,0.3-0.3h2.9
					C20.4,12.8,20.5,13,20.5,13.1z"/>
				<g>
					<rect x="17.5" y="13.2" class="st9" width="2.7" height="1.6"/>
					<rect x="17.5" y="15.2" class="st9" width="2.7" height="1.6"/>
				</g>
			</g>
		</g>
	</g>
	<g>
		<g>
			<g>
				<g>
					<g>
						<g>
							<path class="st34" d="M5.5,13.4v3.8c0,0.2-0.1,0.3-0.3,0.3H3.4c-0.2,0-0.3-0.1-0.3-0.3v-3.8c0-0.2,0.1-0.3,0.3-0.3h1.9
								C5.4,13.1,5.5,13.2,5.5,13.4z"/>
							<g>
								<rect x="3.5" y="13.4" class="st9" width="1.7" height="1.6"/>
								<rect x="3.5" y="15.4" class="st9" width="1.7" height="1.6"/>
							</g>
						</g>
					</g>
				</g>
				<g>
					<g>
						<g>
							<path class="st34" d="M8.9,13.4v3.8c0,0.2-0.1,0.3-0.3,0.3H6.8c-0.2,0-0.3-0.1-0.3-0.3v-3.8c0-0.2,0.1-0.3,0.3-0.3h1.9
								C8.8,13.1,8.9,13.2,8.9,13.4z"/>
							<g>
								<rect x="6.8" y="13.4" class="st9" width="1.7" height="1.6"/>
								<rect x="6.8" y="15.4" class="st9" width="1.7" height="1.6"/>
							</g>
						</g>
					</g>
				</g>
			</g>
			<g>
				<g>
					<g>
						<g>
							<path class="st34" d="M5.5,19v3.8c0,0.2-0.1,0.3-0.3,0.3H3.4c-0.2,0-0.3-0.1-0.3-0.3V19c0-0.2,0.1-0.3,0.3-0.3h1.9
								C5.4,18.8,5.5,18.9,5.5,19z"/>
							<g>
								<rect x="3.5" y="19.1" class="st9" width="1.7" height="1.6"/>
								<rect x="3.5" y="21.1" class="st9" width="1.7" height="1.6"/>
							</g>
						</g>
					</g>
				</g>
				<g>
					<g>
						<g>
							<path class="st34" d="M8.9,19v3.8c0,0.2-0.1,0.3-0.3,0.3H6.8c-0.2,0-0.3-0.1-0.3-0.3V19c0-0.2,0.1-0.3,0.3-0.3h1.9
								C8.8,18.8,8.9,18.9,8.9,19z"/>
							<g>
								<rect x="6.8" y="19.1" class="st9" width="1.7" height="1.6"/>
								<rect x="6.8" y="21.1" class="st9" width="1.7" height="1.6"/>
							</g>
						</g>
					</g>
				</g>
			</g>
		</g>
		<g>
			<g>
				<g>
					<g>
						<g>
							<path class="st34" d="M26.7,13.4v3.8c0,0.2-0.1,0.3-0.3,0.3h-1.9c-0.2,0-0.3-0.1-0.3-0.3v-3.8c0-0.2,0.1-0.3,0.3-0.3h1.9
								C26.6,13.1,26.7,13.2,26.7,13.4z"/>
							<g>
								<rect x="24.7" y="13.4" class="st9" width="1.7" height="1.6"/>
								<rect x="24.7" y="15.4" class="st9" width="1.7" height="1.6"/>
							</g>
						</g>
					</g>
				</g>
				<g>
					<g>
						<g>
							<path class="st34" d="M30.1,13.4v3.8c0,0.2-0.1,0.3-0.3,0.3H28c-0.2,0-0.3-0.1-0.3-0.3v-3.8c0-0.2,0.1-0.3,0.3-0.3h1.9
								C30,13.1,30.1,13.2,30.1,13.4z"/>
							<g>
								<rect x="28.1" y="13.4" class="st9" width="1.7" height="1.6"/>
								<rect x="28.1" y="15.4" class="st9" width="1.7" height="1.6"/>
							</g>
						</g>
					</g>
				</g>
			</g>
			<g>
				<g>
					<g>
						<g>
							<path class="st34" d="M26.7,19v3.8c0,0.2-0.1,0.3-0.3,0.3h-1.9c-0.2,0-0.3-0.1-0.3-0.3V19c0-0.2,0.1-0.3,0.3-0.3h1.9
								C26.6,18.8,26.7,18.9,26.7,19z"/>
							<g>
								<rect x="24.7" y="19.1" class="st9" width="1.7" height="1.6"/>
								<rect x="24.7" y="21.1" class="st9" width="1.7" height="1.6"/>
							</g>
						</g>
					</g>
				</g>
				<g>
					<g>
						<g>
							<path class="st34" d="M30.1,19v3.8c0,0.2-0.1,0.3-0.3,0.3H28c-0.2,0-0.3-0.1-0.3-0.3V19c0-0.2,0.1-0.3,0.3-0.3h1.9
								C30,18.8,30.1,18.9,30.1,19z"/>
							<g>
								<rect x="28.1" y="19.1" class="st9" width="1.7" height="1.6"/>
								<rect x="28.1" y="21.1" class="st9" width="1.7" height="1.6"/>
							</g>
						</g>
					</g>
				</g>
			</g>
		</g>
	</g>
	<rect x="13.7" y="18.8" class="st7" width="5.4" height="6.6"/>
	<rect x="14.3" y="19.7" class="st13" width="4.2" height="5.7"/>
</g>
</svg>
