<?xml version="1.0" encoding="utf-8"?>
<!-- Generator: Adobe Illustrator 21.1.0, SVG Export Plug-In . SVG Version: 6.00 Build 0)  -->
<svg version="1.1" id="Layer_1" xmlns="http://www.w3.org/2000/svg" xmlns:xlink="http://www.w3.org/1999/xlink" x="0px" y="0px"
	 viewBox="0 0 33 33" style="enable-background:new 0 0 33 33;" xml:space="preserve">
<style type="text/css">
	.st0{fill:#DAE5EF;}
	.st1{fill:#CBD6E0;}
	.st2{fill:#D03F3F;}
	.st3{fill:#BF3333;}
	.st4{fill:#E24B4B;}
	.st5{fill:#6D4135;}
	.st6{fill:#5B331D;}
	.st7{fill:#3E4347;}
	.st8{fill:#4E99D2;}
	.st9{fill:#65B1EF;}
	.st10{fill:#FFDC97;}
	.st11{fill:#FFCD7D;}
	.st12{fill:#FFE9AB;}
	.st13{fill:#31373A;}
	.st14{fill:#8CC63E;}
	.st15{fill:#FFD93B;}
	.st16{fill:#F4C534;}
	.st17{fill:#59A5E0;}
	.st18{fill:#DEE4E9;}
	.st19{fill:#D3D9DD;}
	.st20{fill:#FFFFFF;}
	.st21{fill:#2AB4CD;}
	.st22{fill:#1DA9BF;}
	.st23{fill:#E9EFF4;}
	.st24{fill:#7FB239;}
	.st25{fill:#719D34;}
	.st26{opacity:0.5;}
	.st27{fill:#BBC7D1;}
	.st28{fill:#E84D88;}
	.st29{fill:#D23F77;}
	.st30{fill:#633B2A;}
	.st31{fill:#E9B02C;}
	.st32{fill:#38C0DC;}
	.st33{fill:#45CBEA;}
	.st34{fill:#5A5F63;}
	.st35{fill:#E18823;}
	.st36{fill:#CF7519;}
	.st37{fill:#428DC3;}
	.st38{fill:#8D9BA3;}
	.st39{fill:#7B8B92;}
	.st40{fill:#ACB9C1;}
	.st41{fill:#846144;}
	.st42{fill:#7A5B44;}
	.st43{fill:#6B503B;}
	.st44{fill:#F29A2E;}
	.st45{fill:#728389;}
	.st46{fill:#FFD68D;}
	.st47{fill:#8F6D52;}
	.st48{fill:#84939A;}
	.st49{opacity:0.1;}
	.st50{fill:#89664C;}
	.st51{opacity:0.15;}
	.st52{fill:#DE9C25;}
	.st53{fill:#2AB4CD;stroke:#FFFFFF;stroke-width:0.5;stroke-linecap:round;stroke-linejoin:round;stroke-miterlimit:10;}
	.st54{fill:#FC97B2;}
	.st55{fill:#E88EA7;}
	.st56{opacity:0.2;}
	.st57{fill:#BB3166;}
	.st58{opacity:0.35;}
	.st59{opacity:0.6;}
	.st60{fill:#F9D087;}
	.st61{fill:#A5856D;}
	.st62{fill:#5C4533;}
	.st63{fill:#9A795F;}
	.st64{fill:#512A1B;}
	.st65{fill:#492418;}
	.st66{fill:#BE630E;}
	.st67{fill:none;}
	.st68{opacity:0.5;fill:#E18823;}
	.st69{opacity:0.1;fill:#FFFFFF;}
	.st70{fill:#FCCB7C;}
	.st71{opacity:0.15;fill:#FFFFFF;}
	.st72{opacity:0.2;fill:#FFFFFF;}
	.st73{opacity:0.5;fill:#CBD6E0;}
</style>
<g>
	<g>
		<g>
			<g>
				<g>
					<rect x="0.5" y="4.3" class="st7" width="32" height="3.9"/>
				</g>
			</g>
			<g>
				<g>
					<rect x="1.8" y="8.4" class="st9" width="29.5" height="16.3"/>
				</g>
			</g>
			<g>
				<g>
					<rect x="1.8" y="8.1" class="st8" width="29.5" height="16.8"/>
				</g>
			</g>
			<g>
				<g>
					<path class="st37" d="M31.2,8.1v16.8H1.8v-0.1C22.3,24.2,27.9,12,29.2,8.1H31.2z"/>
				</g>
			</g>
			<g>
				<g>
					<rect x="1.8" y="22.2" class="st9" width="29.5" height="0.8"/>
				</g>
				<g>
					<rect x="1.8" y="19.8" class="st9" width="29.5" height="0.8"/>
				</g>
				<g>
					<rect x="1.8" y="17.4" class="st9" width="29.5" height="0.8"/>
				</g>
				<g>
					<rect x="1.8" y="14.9" class="st9" width="29.5" height="0.8"/>
				</g>
				<g>
					<rect x="1.8" y="12.5" class="st9" width="29.5" height="0.8"/>
				</g>
				<g>
					<rect x="1.8" y="10.1" class="st9" width="29.5" height="0.8"/>
				</g>
			</g>
			<g>
				<g>
					<path class="st20" d="M1.9,7V5.4h0.5c0.2,0,0.3,0,0.4,0c0.1,0,0.2,0.1,0.2,0.2C3,5.7,3,5.8,3,5.9C3,6,3,6.1,3,6.1
						c0,0.1-0.1,0.1-0.1,0.2c-0.1,0-0.1,0.1-0.2,0.1c-0.1,0-0.2,0-0.3,0H2.2V7H1.9z M2.2,5.7v0.4h0.2c0.1,0,0.2,0,0.2,0
						c0,0,0.1,0,0.1-0.1s0-0.1,0-0.1c0-0.1,0-0.1,0-0.1S2.6,5.7,2.5,5.7c0,0-0.1,0-0.2,0H2.2z"/>
					<path class="st20" d="M3.2,6.2c0-0.2,0-0.3,0.1-0.4c0-0.1,0.1-0.1,0.1-0.2c0.1-0.1,0.1-0.1,0.2-0.1c0.1,0,0.2-0.1,0.3-0.1
						c0.2,0,0.4,0.1,0.5,0.2c0.1,0.1,0.2,0.3,0.2,0.6c0,0.2-0.1,0.4-0.2,0.6C4.4,6.9,4.2,7,4,7C3.8,7,3.6,6.9,3.4,6.8
						C3.3,6.6,3.2,6.5,3.2,6.2z M3.6,6.2c0,0.2,0,0.3,0.1,0.4C3.8,6.7,3.9,6.7,4,6.7c0.1,0,0.2,0,0.3-0.1c0.1-0.1,0.1-0.2,0.1-0.4
						c0-0.2,0-0.3-0.1-0.4C4.2,5.7,4.1,5.7,4,5.7c-0.1,0-0.2,0-0.3,0.1C3.6,5.9,3.6,6,3.6,6.2z"/>
					<path class="st20" d="M5,7V5.4h0.3v1.3h0.8V7H5z"/>
					<path class="st20" d="M6.3,7V5.4h0.3V7H6.3z"/>
					<path class="st20" d="M7.9,6.4l0.3,0.1c0,0.2-0.1,0.3-0.2,0.4C7.8,7,7.7,7,7.5,7C7.3,7,7.1,6.9,7,6.8S6.8,6.5,6.8,6.2
						C6.8,6,6.9,5.8,7,5.6c0.1-0.1,0.3-0.2,0.5-0.2c0.2,0,0.3,0.1,0.5,0.2c0.1,0.1,0.1,0.2,0.2,0.3L7.8,5.9c0-0.1-0.1-0.1-0.1-0.2
						c-0.1,0-0.1-0.1-0.2-0.1c-0.1,0-0.2,0-0.3,0.1C7.2,5.9,7.1,6,7.1,6.2c0,0.2,0,0.3,0.1,0.4s0.2,0.1,0.3,0.1c0.1,0,0.2,0,0.2-0.1
						S7.8,6.5,7.9,6.4z"/>
					<path class="st20" d="M8.4,7V5.4h1.1v0.3H8.7V6h0.8v0.3H8.7v0.4h0.9V7H8.4z"/>
				</g>
				<g>
					<path class="st20" d="M23,7V5.4h0.5c0.2,0,0.3,0,0.4,0c0.1,0,0.2,0.1,0.2,0.2c0.1,0.1,0.1,0.2,0.1,0.3c0,0.1,0,0.2-0.1,0.2
						c0,0.1-0.1,0.1-0.1,0.2s-0.1,0.1-0.2,0.1c-0.1,0-0.2,0-0.3,0h-0.2V7H23z M23.3,5.7v0.4h0.2c0.1,0,0.2,0,0.2,0
						c0,0,0.1,0,0.1-0.1c0,0,0-0.1,0-0.1c0-0.1,0-0.1,0-0.1c0,0-0.1-0.1-0.1-0.1c0,0-0.1,0-0.2,0H23.3z"/>
					<path class="st20" d="M24.3,6.2c0-0.2,0-0.3,0.1-0.4c0-0.1,0.1-0.1,0.1-0.2c0.1-0.1,0.1-0.1,0.2-0.1c0.1,0,0.2-0.1,0.3-0.1
						c0.2,0,0.4,0.1,0.5,0.2c0.1,0.1,0.2,0.3,0.2,0.6c0,0.2-0.1,0.4-0.2,0.6S25.3,7,25.1,7c-0.2,0-0.4-0.1-0.5-0.2
						S24.3,6.5,24.3,6.2z M24.6,6.2c0,0.2,0,0.3,0.1,0.4c0.1,0.1,0.2,0.1,0.3,0.1c0.1,0,0.2,0,0.3-0.1c0.1-0.1,0.1-0.2,0.1-0.4
						c0-0.2,0-0.3-0.1-0.4c-0.1-0.1-0.2-0.1-0.3-0.1c-0.1,0-0.2,0-0.3,0.1C24.7,5.9,24.6,6,24.6,6.2z"/>
					<path class="st20" d="M26.1,7V5.4h0.3v1.3h0.8V7H26.1z"/>
					<path class="st20" d="M27.4,7V5.4h0.3V7H27.4z"/>
					<path class="st20" d="M28.9,6.4l0.3,0.1c0,0.2-0.1,0.3-0.2,0.4C28.9,7,28.8,7,28.6,7c-0.2,0-0.4-0.1-0.5-0.2
						c-0.1-0.1-0.2-0.3-0.2-0.6c0-0.3,0.1-0.5,0.2-0.6c0.1-0.1,0.3-0.2,0.5-0.2c0.2,0,0.3,0.1,0.5,0.2c0.1,0.1,0.1,0.2,0.2,0.3
						l-0.3,0.1c0-0.1-0.1-0.1-0.1-0.2c-0.1,0-0.1-0.1-0.2-0.1c-0.1,0-0.2,0-0.3,0.1c-0.1,0.1-0.1,0.2-0.1,0.4c0,0.2,0,0.3,0.1,0.4
						s0.2,0.1,0.3,0.1c0.1,0,0.2,0,0.2-0.1C28.9,6.6,28.9,6.5,28.9,6.4z"/>
					<path class="st20" d="M29.5,7V5.4h1.1v0.3h-0.8V6h0.8v0.3h-0.8v0.4h0.9V7H29.5z"/>
				</g>
			</g>
			<g>
				<rect x="1.8" y="25.7" class="st7" width="29.5" height="6.8"/>
			</g>
			<g>
				<rect x="1.8" y="31.7" class="st40" width="29.5" height="0.8"/>
			</g>
			<g>
				<rect x="3.4" y="26.5" class="st1" width="1.1" height="5.5"/>
				<rect x="28.5" y="26.5" class="st1" width="1.1" height="5.5"/>
				<rect x="11.6" y="26.5" class="st1" width="1.1" height="5.5"/>
			</g>
			<g>
				<path class="st34" d="M32.5,25.5c0,0.4-0.3,0.7-0.7,0.7H1.2c-0.4,0-0.7-0.3-0.7-0.7c0-0.4,0.3-0.7,0.7-0.7h30.5
					C32.2,24.8,32.5,25.1,32.5,25.5z"/>
			</g>
			<g>
				<rect x="13.5" y="26.4" class="st13" width="6.1" height="6.1"/>
			</g>
			<g>
				<g>
					<g>
						<path class="st0" d="M4.8,26.5c0,0.1-0.1,0.2-0.2,0.2H3.4c-0.1,0-0.2-0.1-0.2-0.2c0-0.1,0.1-0.2,0.2-0.2h1.1
							C4.7,26.3,4.8,26.4,4.8,26.5z"/>
					</g>
					<g>
						<path class="st0" d="M4.8,31.2c0,0.1-0.1,0.2-0.2,0.2H3.4c-0.1,0-0.2-0.1-0.2-0.2c0-0.1,0.1-0.2,0.2-0.2h1.1
							C4.7,31,4.8,31.1,4.8,31.2z"/>
					</g>
					<g>
						<rect x="3.1" y="31.5" class="st1" width="1.8" height="1"/>
					</g>
				</g>
				<g>
					<g>
						<path class="st0" d="M29.8,26.5c0,0.1-0.1,0.2-0.2,0.2h-1.1c-0.1,0-0.2-0.1-0.2-0.2c0-0.1,0.1-0.2,0.2-0.2h1.1
							C29.7,26.3,29.8,26.4,29.8,26.5z"/>
					</g>
					<g>
						<path class="st0" d="M29.8,31.2c0,0.1-0.1,0.2-0.2,0.2h-1.1c-0.1,0-0.2-0.1-0.2-0.2c0-0.1,0.1-0.2,0.2-0.2h1.1
							C29.7,31,29.8,31.1,29.8,31.2z"/>
					</g>
					<g>
						<rect x="28.1" y="31.5" class="st1" width="1.8" height="1"/>
					</g>
				</g>
			</g>
			<g>
				<g>
					<g>
						<path class="st0" d="M12.9,26.5c0,0.1-0.1,0.2-0.2,0.2h-1.1c-0.1,0-0.2-0.1-0.2-0.2c0-0.1,0.1-0.2,0.2-0.2h1.1
							C12.8,26.3,12.9,26.4,12.9,26.5z"/>
					</g>
					<g>
						<path class="st0" d="M12.9,31.2c0,0.1-0.1,0.2-0.2,0.2h-1.1c-0.1,0-0.2-0.1-0.2-0.2c0-0.1,0.1-0.2,0.2-0.2h1.1
							C12.8,31,12.9,31.1,12.9,31.2z"/>
					</g>
					<g>
						<rect x="11.2" y="31.5" class="st1" width="1.8" height="1"/>
					</g>
				</g>
				<g>
					<g>
						<path class="st0" d="M21.7,26.5c0,0.1-0.1,0.2-0.2,0.2h-1.1c-0.1,0-0.2-0.1-0.2-0.2c0-0.1,0.1-0.2,0.2-0.2h1.1
							C21.6,26.3,21.7,26.4,21.7,26.5z"/>
					</g>
					<g>
						<path class="st0" d="M21.7,31.2c0,0.1-0.1,0.2-0.2,0.2h-1.1c-0.1,0-0.2-0.1-0.2-0.2c0-0.1,0.1-0.2,0.2-0.2h1.1
							C21.6,31,21.7,31.1,21.7,31.2z"/>
					</g>
					<polyline class="st1" points="20.4,26.8 21.4,26.8 21.4,31 20.4,31 					"/>
					<g>
						<rect x="20" y="31.5" class="st1" width="1.8" height="1"/>
					</g>
				</g>
			</g>
		</g>
		<g>
			<path class="st17" d="M13.1,23h18.2v-0.8H15.2C14.5,22.5,13.8,22.8,13.1,23z"/>
			<path class="st17" d="M18.7,20.6h12.6v-0.8H19.9C19.5,20.1,19.1,20.3,18.7,20.6z"/>
			<path class="st17" d="M22.2,18.1h9v-0.8h-8.2C22.8,17.6,22.5,17.9,22.2,18.1z"/>
			<path class="st17" d="M24.7,15.7h6.5v-0.8h-5.9C25.2,15.2,25,15.4,24.7,15.7z"/>
			<path class="st17" d="M26.6,13.3h4.6v-0.8h-4.1C27,12.7,26.8,13,26.6,13.3z"/>
			<path class="st17" d="M28.1,10.8h3.2v-0.8h-2.8C28.3,10.3,28.2,10.6,28.1,10.8z"/>
		</g>
		<g>
			<g>
				<rect x="14.2" y="27.2" class="st17" width="2.1" height="4.7"/>
				<rect x="16.7" y="27.2" class="st17" width="2.1" height="4.7"/>
			</g>
			<g>
				<polygon class="st9" points="16.3,28.3 14.2,30.3 14.2,30.8 16.3,28.7 				"/>
				<polygon class="st9" points="14.4,32 16.3,30.1 16.3,29.1 14.2,31.2 14.2,32 				"/>
			</g>
			<g>
				<polygon class="st9" points="17.3,27.2 16.7,27.8 16.7,28.3 17.7,27.2 				"/>
				<polygon class="st9" points="18.8,27.2 18.1,27.2 16.7,28.7 16.7,29.6 18.8,27.5 				"/>
			</g>
		</g>
	</g>
	<g>
		<g>
			<path class="st23" d="M21.9,1.3v4.6c0,0.4-0.3,0.8-0.8,0.8h-9.2c-0.4,0-0.8-0.3-0.8-0.8V1.3c0-0.4,0.3-0.8,0.8-0.8h9.2
				C21.5,0.5,21.9,0.8,21.9,1.3z"/>
		</g>
		<g>
			<g>
				<path class="st16" d="M17.5,3.8c0,0-0.1,0.1-0.1,0.2l0.1,0.8c0,0.2-0.1,0.3-0.3,0.2l-0.7-0.4c-0.1,0-0.1,0-0.2,0L15.7,5
					c-0.1,0.1-0.3,0-0.3-0.2L15.5,4c0-0.1,0-0.1-0.1-0.2l-0.6-0.6c-0.1-0.1-0.1-0.3,0.1-0.3l0.8-0.1c0.1,0,0.1,0,0.1-0.1l0.4-0.7
					c0.1-0.1,0.3-0.1,0.3,0L17,2.7c0,0.1,0.1,0.1,0.1,0.1L18,2.9c0.2,0,0.2,0.2,0.1,0.3L17.5,3.8z"/>
			</g>
			<g>
				<g>
					<path class="st16" d="M14.2,4.1c0,0,0,0.1,0,0.1l0.1,0.6c0,0.1-0.1,0.2-0.2,0.2l-0.5-0.3c0,0-0.1,0-0.1,0L12.9,5
						c-0.1,0.1-0.2,0-0.2-0.2l0.1-0.6c0,0,0-0.1,0-0.1l-0.4-0.4c-0.1-0.1,0-0.2,0.1-0.2L13,3.4c0,0,0.1,0,0.1-0.1l0.3-0.5
						c0.1-0.1,0.2-0.1,0.3,0l0.3,0.5c0,0,0.1,0.1,0.1,0.1l0.6,0.1c0.1,0,0.2,0.2,0.1,0.2L14.2,4.1z"/>
				</g>
				<g>
					<path class="st16" d="M20.3,4.1c0,0,0,0.1,0,0.1l0.1,0.6c0,0.1-0.1,0.2-0.2,0.2l-0.5-0.3c0,0-0.1,0-0.1,0L18.9,5
						c-0.1,0.1-0.2,0-0.2-0.2l0.1-0.6c0,0,0-0.1,0-0.1l-0.4-0.4c-0.1-0.1,0-0.2,0.1-0.2L19,3.4c0,0,0.1,0,0.1-0.1l0.3-0.5
						c0.1-0.1,0.2-0.1,0.3,0l0.3,0.5c0,0,0.1,0.1,0.1,0.1l0.6,0.1c0.1,0,0.2,0.2,0.1,0.2L20.3,4.1z"/>
				</g>
			</g>
		</g>
	</g>
</g>
</svg>
