<?xml version="1.0" encoding="utf-8"?>
<!-- Generator: Adobe Illustrator 21.1.0, SVG Export Plug-In . SVG Version: 6.00 Build 0)  -->
<svg version="1.1" id="Layer_1" xmlns="http://www.w3.org/2000/svg" xmlns:xlink="http://www.w3.org/1999/xlink" x="0px" y="0px"
	 viewBox="0 0 33 33" style="enable-background:new 0 0 33 33;" xml:space="preserve">
<style type="text/css">
	.st0{fill:#DAE5EF;}
	.st1{fill:#CBD6E0;}
	.st2{fill:#D03F3F;}
	.st3{fill:#BF3333;}
	.st4{fill:#E24B4B;}
	.st5{fill:#6D4135;}
	.st6{fill:#5B331D;}
	.st7{fill:#3E4347;}
	.st8{fill:#4E99D2;}
	.st9{fill:#65B1EF;}
	.st10{fill:#FFDC97;}
	.st11{fill:#FFCD7D;}
	.st12{fill:#FFE9AB;}
	.st13{fill:#31373A;}
	.st14{fill:#8CC63E;}
	.st15{fill:#FFD93B;}
	.st16{fill:#F4C534;}
	.st17{fill:#59A5E0;}
	.st18{fill:#DEE4E9;}
	.st19{fill:#D3D9DD;}
	.st20{fill:#FFFFFF;}
	.st21{fill:#2AB4CD;}
	.st22{fill:#1DA9BF;}
	.st23{fill:#E9EFF4;}
	.st24{fill:#7FB239;}
	.st25{fill:#719D34;}
	.st26{opacity:0.5;}
	.st27{fill:#BBC7D1;}
	.st28{fill:#E84D88;}
	.st29{fill:#D23F77;}
	.st30{fill:#633B2A;}
	.st31{fill:#E9B02C;}
	.st32{fill:#38C0DC;}
	.st33{fill:#45CBEA;}
	.st34{fill:#5A5F63;}
	.st35{fill:#E18823;}
	.st36{fill:#CF7519;}
	.st37{fill:#428DC3;}
	.st38{fill:#8D9BA3;}
	.st39{fill:#7B8B92;}
	.st40{fill:#ACB9C1;}
	.st41{fill:#846144;}
	.st42{fill:#7A5B44;}
	.st43{fill:#6B503B;}
	.st44{fill:#F29A2E;}
	.st45{fill:#728389;}
	.st46{fill:#FFD68D;}
	.st47{fill:#8F6D52;}
	.st48{fill:#84939A;}
	.st49{opacity:0.1;}
	.st50{fill:#89664C;}
	.st51{opacity:0.15;}
	.st52{fill:#DE9C25;}
	.st53{fill:#2AB4CD;stroke:#FFFFFF;stroke-width:0.5;stroke-linecap:round;stroke-linejoin:round;stroke-miterlimit:10;}
	.st54{fill:#FC97B2;}
	.st55{fill:#E88EA7;}
	.st56{opacity:0.2;}
	.st57{fill:#BB3166;}
	.st58{opacity:0.35;}
	.st59{opacity:0.6;}
	.st60{fill:#F9D087;}
	.st61{fill:#A5856D;}
	.st62{fill:#5C4533;}
	.st63{fill:#9A795F;}
	.st64{fill:#512A1B;}
	.st65{fill:#492418;}
	.st66{fill:#BE630E;}
	.st67{fill:none;}
	.st68{opacity:0.5;fill:#E18823;}
	.st69{opacity:0.1;fill:#FFFFFF;}
	.st70{fill:#FCCB7C;}
	.st71{opacity:0.15;fill:#FFFFFF;}
	.st72{opacity:0.2;fill:#FFFFFF;}
	.st73{opacity:0.5;fill:#CBD6E0;}
</style>
<g>
	<g>
		<g>
			<g>
				<rect x="8.2" y="5.5" class="st0" width="16.5" height="6"/>
			</g>
			<g>
				<polygon class="st1" points="24.8,6.4 24.8,5.5 8.2,5.5 				"/>
			</g>
			<g>
				<rect x="1.8" y="14.4" class="st0" width="29.5" height="16.2"/>
			</g>
			<g>
				<polygon class="st1" points="31.2,15.9 31.2,14.4 1.8,15 				"/>
			</g>
			<g>
				<rect x="1.8" y="28.4" class="st40" width="29.5" height="2.1"/>
			</g>
			<g>
				<path class="st7" d="M32.5,12.1v2.1c0,0.4-0.3,0.7-0.7,0.7H1.2c-0.4,0-0.7-0.3-0.7-0.7v-2.1c0-0.4,0.3-0.7,0.7-0.7h30.6
					C32.2,11.5,32.5,11.8,32.5,12.1z"/>
				<path class="st7" d="M7,4.8V3.1c0-0.4,0.3-0.7,0.7-0.7h17.6c0.4,0,0.7,0.3,0.7,0.7v1.7c0,0.4-0.3,0.7-0.7,0.7H7.7
					C7.3,5.5,7,5.2,7,4.8z"/>
			</g>
			<g>
				<rect x="12.3" y="15.9" class="st1" width="8.4" height="12.5"/>
			</g>
			<g>
				<path class="st7" d="M19.1,21.5v6.9h-5.2v-6.9c0-0.7,0.3-1.4,0.8-1.8c0.5-0.5,1.1-0.8,1.8-0.8C17.9,18.9,19.1,20.1,19.1,21.5z"
					/>
			</g>
			<g>
				<g>
					<g>
						<g>
							<rect x="9.8" y="15.7" class="st23" width="1.7" height="12.5"/>
						</g>
						<g>
							<path class="st20" d="M12,15.5c0,0.3-0.2,0.5-0.5,0.5H9.8c-0.3,0-0.5-0.2-0.5-0.5c0-0.3,0.2-0.5,0.5-0.5h1.7
								C11.7,15,12,15.2,12,15.5z"/>
						</g>
						<g>
							<path class="st20" d="M12,28.5c0,0.3-0.2,0.5-0.5,0.5H9.8c-0.3,0-0.5-0.2-0.5-0.5c0-0.3,0.2-0.5,0.5-0.5h1.7
								C11.7,28,12,28.2,12,28.5z"/>
						</g>
					</g>
					<g>
						<path class="st23" d="M12.3,29.5v1.1H9v-1.1C9,29.2,9.1,29,9.4,29h2.5C12.1,29,12.3,29.2,12.3,29.5z"/>
					</g>
				</g>
				<g>
					<g>
						<g>
							<rect x="21.6" y="15.7" class="st23" width="1.7" height="12.5"/>
						</g>
						<g>
							<path class="st20" d="M23.8,15.5c0,0.3-0.2,0.5-0.5,0.5h-1.7c-0.3,0-0.5-0.2-0.5-0.5c0-0.3,0.2-0.5,0.5-0.5h1.7
								C23.5,15,23.8,15.2,23.8,15.5z"/>
						</g>
						<g>
							<path class="st20" d="M23.8,28.5c0,0.3-0.2,0.5-0.5,0.5h-1.7c-0.3,0-0.5-0.2-0.5-0.5c0-0.3,0.2-0.5,0.5-0.5h1.7
								C23.5,28,23.8,28.2,23.8,28.5z"/>
						</g>
					</g>
					<g>
						<path class="st23" d="M24.1,29.5v1.1h-3.3v-1.1c0-0.2,0.2-0.4,0.4-0.4h2.5C23.9,29,24.1,29.2,24.1,29.5z"/>
					</g>
				</g>
			</g>
			<g>
				<path class="st4" d="M10.4,6.8h1.2c0.2,0,0.4,0,0.5,0c0.1,0,0.2,0.1,0.3,0.1c0.1,0.1,0.2,0.2,0.2,0.3c0.1,0.1,0.1,0.2,0.1,0.4
					c0,0.1,0,0.3-0.1,0.4c-0.1,0.1-0.2,0.2-0.3,0.3c0.2,0.1,0.3,0.1,0.4,0.3C13,8.6,13,8.8,13,8.9c0,0.1,0,0.3-0.1,0.4
					c-0.1,0.1-0.2,0.2-0.3,0.3c-0.1,0.1-0.3,0.1-0.4,0.1c-0.1,0-0.4,0-0.8,0h-1.1V6.8z M11.1,7.3V8h0.4c0.2,0,0.4,0,0.5,0
					c0.1,0,0.2,0,0.3-0.1s0.1-0.1,0.1-0.2c0-0.1,0-0.2-0.1-0.2c-0.1-0.1-0.1-0.1-0.2-0.1c-0.1,0-0.2,0-0.5,0H11.1z M11.1,8.5v0.8
					h0.6c0.2,0,0.4,0,0.4,0c0.1,0,0.2-0.1,0.2-0.1s0.1-0.2,0.1-0.3c0-0.1,0-0.2-0.1-0.2c0-0.1-0.1-0.1-0.2-0.1c-0.1,0-0.3,0-0.6,0
					H11.1z"/>
				<path class="st4" d="M16.3,9.8h-0.7l-0.3-0.7h-1.2l-0.3,0.7h-0.7l1.2-3.1h0.7L16.3,9.8z M15.2,8.6l-0.4-1.1l-0.4,1.1H15.2z"/>
				<path class="st4" d="M16.7,9.8V6.8h0.6l1.3,2.1V6.8h0.6v3.1h-0.6l-1.2-2v2H16.7z"/>
				<path class="st4" d="M19.8,9.8V6.8h0.6v1.4l1.3-1.4h0.8L21.3,8l1.2,1.9h-0.8l-0.8-1.4l-0.5,0.5v0.9H19.8z"/>
			</g>
		</g>
		<g>
			<g>
				<g>
					<g>
						<g>
							<path class="st7" d="M5.5,17.3v3.4c0,0.2-0.1,0.3-0.3,0.3H3.5c-0.2,0-0.3-0.1-0.3-0.3v-3.4c0-0.2,0.1-0.3,0.3-0.3h1.8
								C5.4,17,5.5,17.1,5.5,17.3z"/>
						</g>
						<g>
							<rect x="3.6" y="17.3" class="st9" width="1.6" height="0.9"/>
							<rect x="3.6" y="18.6" class="st9" width="1.6" height="1.9"/>
						</g>
					</g>
					<g>
						<polygon class="st17" points="5.1,17.3 4.8,17.3 4.1,18.3 4.5,18.3 						"/>
						<polygon class="st17" points="5.2,18.3 5.2,17.6 4.7,18.3 						"/>
						<polygon class="st17" points="4.5,18.6 3.6,20 3.6,20.5 3.7,20.5 5,18.6 						"/>
						<polygon class="st17" points="4.2,18.6 3.9,18.6 3.6,19.1 3.6,19.6 						"/>
					</g>
				</g>
				<g>
					<g>
						<g>
							<path class="st7" d="M9,17.3v3.4c0,0.2-0.1,0.3-0.3,0.3H6.9c-0.2,0-0.3-0.1-0.3-0.3v-3.4c0-0.2,0.1-0.3,0.3-0.3h1.8
								C8.9,17,9,17.1,9,17.3z"/>
						</g>
						<g>
							<rect x="7" y="17.3" class="st9" width="1.6" height="0.9"/>
							<rect x="7" y="18.6" class="st9" width="1.6" height="1.9"/>
						</g>
					</g>
					<g>
						<polygon class="st17" points="8.6,17.3 8.2,17.3 7.6,18.3 7.9,18.3 						"/>
						<polygon class="st17" points="8.7,18.3 8.7,17.6 8.2,18.3 						"/>
						<polygon class="st17" points="8,18.6 7,20 7,20.5 7.2,20.5 8.5,18.6 						"/>
						<polygon class="st17" points="7.7,18.6 7.4,18.6 7,19.1 7,19.6 						"/>
					</g>
				</g>
			</g>
			<g>
				<g>
					<g>
						<g>
							<path class="st7" d="M5.5,22v3.4c0,0.2-0.1,0.3-0.3,0.3H3.5c-0.2,0-0.3-0.1-0.3-0.3V22c0-0.2,0.1-0.3,0.3-0.3h1.8
								C5.4,21.7,5.5,21.9,5.5,22z"/>
						</g>
						<g>
							<rect x="3.6" y="22.1" class="st9" width="1.6" height="0.9"/>
							<rect x="3.6" y="23.4" class="st9" width="1.6" height="1.9"/>
						</g>
					</g>
					<g>
						<polygon class="st17" points="5.1,22.1 4.8,22.1 4.1,23 4.5,23 						"/>
						<polygon class="st17" points="5.2,23 5.2,22.3 4.7,23 						"/>
						<polygon class="st17" points="4.5,23.4 3.6,24.7 3.6,25.3 3.7,25.3 5,23.4 						"/>
						<polygon class="st17" points="4.2,23.4 3.9,23.4 3.6,23.9 3.6,24.4 						"/>
					</g>
				</g>
				<g>
					<g>
						<g>
							<path class="st7" d="M9,22v3.4c0,0.2-0.1,0.3-0.3,0.3H6.9c-0.2,0-0.3-0.1-0.3-0.3V22c0-0.2,0.1-0.3,0.3-0.3h1.8
								C8.9,21.7,9,21.9,9,22z"/>
						</g>
						<g>
							<rect x="7" y="22.1" class="st9" width="1.6" height="0.9"/>
							<rect x="7" y="23.4" class="st9" width="1.6" height="1.9"/>
						</g>
					</g>
					<g>
						<polygon class="st17" points="8.6,22.1 8.2,22.1 7.6,23 7.9,23 						"/>
						<polygon class="st17" points="8.7,23 8.7,22.3 8.2,23 						"/>
						<polygon class="st17" points="8,23.4 7,24.7 7,25.3 7.2,25.3 8.5,23.4 						"/>
						<polygon class="st17" points="7.7,23.4 7.4,23.4 7,23.9 7,24.4 						"/>
					</g>
				</g>
			</g>
		</g>
		<g>
			<g>
				<g>
					<g>
						<g>
							<path class="st7" d="M26.3,17.3v3.4c0,0.2-0.1,0.3-0.3,0.3h-1.8c-0.2,0-0.3-0.1-0.3-0.3v-3.4c0-0.2,0.1-0.3,0.3-0.3h1.8
								C26.2,17,26.3,17.1,26.3,17.3z"/>
						</g>
						<g>
							<rect x="24.3" y="17.3" class="st9" width="1.6" height="0.9"/>
							<rect x="24.3" y="18.6" class="st9" width="1.6" height="1.9"/>
						</g>
					</g>
					<g>
						<polygon class="st17" points="25.9,17.3 25.5,17.3 24.9,18.3 25.3,18.3 						"/>
						<polygon class="st17" points="26,18.3 26,17.6 25.5,18.3 						"/>
						<polygon class="st17" points="25.3,18.6 24.3,20 24.3,20.5 24.5,20.5 25.8,18.6 						"/>
						<polygon class="st17" points="25,18.6 24.7,18.6 24.3,19.1 24.3,19.6 						"/>
					</g>
				</g>
				<g>
					<g>
						<g>
							<path class="st7" d="M29.8,17.3v3.4c0,0.2-0.1,0.3-0.3,0.3h-1.8c-0.2,0-0.3-0.1-0.3-0.3v-3.4c0-0.2,0.1-0.3,0.3-0.3h1.8
								C29.7,17,29.8,17.1,29.8,17.3z"/>
						</g>
						<g>
							<rect x="27.8" y="17.3" class="st9" width="1.6" height="0.9"/>
							<rect x="27.8" y="18.6" class="st9" width="1.6" height="1.9"/>
						</g>
					</g>
					<g>
						<polygon class="st17" points="29.4,17.3 29,17.3 28.4,18.3 28.7,18.3 						"/>
						<polygon class="st17" points="29.5,18.3 29.5,17.6 29,18.3 						"/>
						<polygon class="st17" points="28.8,18.6 27.8,20 27.8,20.5 28,20.5 29.3,18.6 						"/>
						<polygon class="st17" points="28.5,18.6 28.1,18.6 27.8,19.1 27.8,19.6 						"/>
					</g>
				</g>
			</g>
			<g>
				<g>
					<g>
						<g>
							<path class="st7" d="M26.3,22v3.4c0,0.2-0.1,0.3-0.3,0.3h-1.8c-0.2,0-0.3-0.1-0.3-0.3V22c0-0.2,0.1-0.3,0.3-0.3h1.8
								C26.2,21.7,26.3,21.9,26.3,22z"/>
						</g>
						<g>
							<rect x="24.3" y="22.1" class="st9" width="1.6" height="0.9"/>
							<rect x="24.3" y="23.4" class="st9" width="1.6" height="1.9"/>
						</g>
					</g>
					<g>
						<polygon class="st17" points="25.9,22.1 25.5,22.1 24.9,23 25.3,23 						"/>
						<polygon class="st17" points="26,23 26,22.3 25.5,23 						"/>
						<polygon class="st17" points="25.3,23.4 24.3,24.7 24.3,25.3 24.5,25.3 25.8,23.4 						"/>
						<polygon class="st17" points="25,23.4 24.7,23.4 24.3,23.9 24.3,24.4 						"/>
					</g>
				</g>
				<g>
					<g>
						<g>
							<path class="st7" d="M29.8,22v3.4c0,0.2-0.1,0.3-0.3,0.3h-1.8c-0.2,0-0.3-0.1-0.3-0.3V22c0-0.2,0.1-0.3,0.3-0.3h1.8
								C29.7,21.7,29.8,21.9,29.8,22z"/>
						</g>
						<g>
							<rect x="27.8" y="22.1" class="st9" width="1.6" height="0.9"/>
							<rect x="27.8" y="23.4" class="st9" width="1.6" height="1.9"/>
						</g>
					</g>
					<g>
						<polygon class="st17" points="29.4,22.1 29,22.1 28.4,23 28.7,23 						"/>
						<polygon class="st17" points="29.5,23 29.5,22.3 29,23 						"/>
						<polygon class="st17" points="28.8,23.4 27.8,24.7 27.8,25.3 28,25.3 29.3,23.4 						"/>
						<polygon class="st17" points="28.5,23.4 28.1,23.4 27.8,23.9 27.8,24.4 						"/>
					</g>
				</g>
			</g>
		</g>
	</g>
	<g>
		<g>
			<g>
				<g>
					<rect x="12.9" y="29.5" class="st1" width="7.3" height="1.1"/>
				</g>
			</g>
		</g>
		<g>
			<g>
				<g>
					<rect x="13.5" y="28.4" class="st1" width="5.9" height="1.1"/>
				</g>
			</g>
		</g>
	</g>
</g>
</svg>
