<?xml version="1.0" encoding="utf-8"?>
<!-- Generator: Adobe Illustrator 21.1.0, SVG Export Plug-In . SVG Version: 6.00 Build 0)  -->
<svg version="1.1" id="Layer_1" xmlns="http://www.w3.org/2000/svg" xmlns:xlink="http://www.w3.org/1999/xlink" x="0px" y="0px"
	 viewBox="0 0 33 33" style="enable-background:new 0 0 33 33;" xml:space="preserve">
<style type="text/css">
	.st0{fill:#DAE5EF;}
	.st1{fill:#CBD6E0;}
	.st2{fill:#D03F3F;}
	.st3{fill:#BF3333;}
	.st4{fill:#E24B4B;}
	.st5{fill:#6D4135;}
	.st6{fill:#5B331D;}
	.st7{fill:#3E4347;}
	.st8{fill:#4E99D2;}
	.st9{fill:#65B1EF;}
	.st10{fill:#FFDC97;}
	.st11{fill:#FFCD7D;}
	.st12{fill:#FFE9AB;}
	.st13{fill:#31373A;}
	.st14{fill:#8CC63E;}
	.st15{fill:#FFD93B;}
	.st16{fill:#F4C534;}
	.st17{fill:#59A5E0;}
	.st18{fill:#DEE4E9;}
	.st19{fill:#D3D9DD;}
	.st20{fill:#FFFFFF;}
	.st21{fill:#2AB4CD;}
	.st22{fill:#1DA9BF;}
	.st23{fill:#E9EFF4;}
	.st24{fill:#7FB239;}
	.st25{fill:#719D34;}
	.st26{opacity:0.5;}
	.st27{fill:#BBC7D1;}
	.st28{fill:#E84D88;}
	.st29{fill:#D23F77;}
	.st30{fill:#633B2A;}
	.st31{fill:#E9B02C;}
	.st32{fill:#38C0DC;}
	.st33{fill:#45CBEA;}
	.st34{fill:#5A5F63;}
	.st35{fill:#E18823;}
	.st36{fill:#CF7519;}
	.st37{fill:#428DC3;}
	.st38{fill:#8D9BA3;}
	.st39{fill:#7B8B92;}
	.st40{fill:#ACB9C1;}
	.st41{fill:#846144;}
	.st42{fill:#7A5B44;}
	.st43{fill:#6B503B;}
	.st44{fill:#F29A2E;}
	.st45{fill:#728389;}
	.st46{fill:#FFD68D;}
	.st47{fill:#8F6D52;}
	.st48{fill:#84939A;}
	.st49{opacity:0.1;}
	.st50{fill:#89664C;}
	.st51{opacity:0.15;}
	.st52{fill:#DE9C25;}
	.st53{fill:#2AB4CD;stroke:#FFFFFF;stroke-width:0.5;stroke-linecap:round;stroke-linejoin:round;stroke-miterlimit:10;}
	.st54{fill:#FC97B2;}
	.st55{fill:#E88EA7;}
	.st56{opacity:0.2;}
	.st57{fill:#BB3166;}
	.st58{opacity:0.35;}
	.st59{opacity:0.6;}
	.st60{fill:#F9D087;}
	.st61{fill:#A5856D;}
	.st62{fill:#5C4533;}
	.st63{fill:#9A795F;}
	.st64{fill:#512A1B;}
	.st65{fill:#492418;}
	.st66{fill:#BE630E;}
	.st67{fill:none;}
	.st68{opacity:0.5;fill:#E18823;}
	.st69{opacity:0.1;fill:#FFFFFF;}
	.st70{fill:#FCCB7C;}
	.st71{opacity:0.15;fill:#FFFFFF;}
	.st72{opacity:0.2;fill:#FFFFFF;}
	.st73{opacity:0.5;fill:#CBD6E0;}
</style>
<g>
	<g>
		<rect x="2.3" y="19.2" class="st10" width="28.5" height="13.3"/>
	</g>
	<g>
		<polygon class="st60" points="30.7,21.6 30.7,19.2 2.3,19.2 2.3,20.5 		"/>
	</g>
	<g>
		<rect x="2.3" y="31.3" class="st61" width="28.5" height="1.2"/>
	</g>
	<g>
		<path class="st5" d="M32.1,20.5H0.9c-0.3,0-0.4-0.2-0.4-0.5L1,18c0.1-0.2,0.2-0.3,0.4-0.3h30.2c0.2,0,0.4,0.1,0.4,0.3l0.5,2
			C32.6,20.2,32.4,20.5,32.1,20.5z"/>
	</g>
	<g>
		<path class="st30" d="M32.1,20.5H0.9c-0.3,0-0.4-0.2-0.4-0.5l0.1-0.3c2.7,0.2,5.5,0.3,8.4,0.3c9,0,17.1-0.9,22.6-2.3c0,0,0,0,0,0
			c0.2,0,0.4,0.1,0.4,0.3l0.5,2C32.5,20.2,32.4,20.5,32.1,20.5z"/>
	</g>
	<g>
		<g>
			<g>
				<g>
					<path class="st5" d="M20.1,22.6v2.3c0,0.2-0.2,0.4-0.4,0.4h-2.3c-0.2,0-0.4-0.2-0.4-0.4v-2.3c0-0.2,0.2-0.4,0.4-0.4h2.3
						C20,22.2,20.1,22.4,20.1,22.6z"/>
					<g>
						<rect x="17.5" y="22.7" class="st44" width="2.2" height="2.2"/>
					</g>
				</g>
				<g>
					<polygon class="st35" points="18.5,22.7 18.2,22.7 17.5,23.4 17.5,23.7 					"/>
					<polygon class="st35" points="18.7,22.7 17.5,23.9 17.5,24.5 19.4,22.7 					"/>
				</g>
			</g>
			<g>
				<g>
					<path class="st5" d="M24.3,22.6v2.3c0,0.2-0.2,0.4-0.4,0.4h-2.3c-0.2,0-0.4-0.2-0.4-0.4v-2.3c0-0.2,0.2-0.4,0.4-0.4h2.3
						C24.1,22.2,24.3,22.4,24.3,22.6z"/>
					<g>
						<rect x="21.7" y="22.7" class="st44" width="2.2" height="2.2"/>
					</g>
				</g>
				<g>
					<polygon class="st35" points="22.7,22.7 22.4,22.7 21.7,23.4 21.7,23.7 					"/>
					<polygon class="st35" points="22.9,22.7 21.7,23.9 21.7,24.5 23.5,22.7 					"/>
				</g>
			</g>
			<g>
				<g>
					<path class="st5" d="M28.5,22.6v2.3c0,0.2-0.2,0.4-0.4,0.4h-2.3c-0.2,0-0.4-0.2-0.4-0.4v-2.3c0-0.2,0.2-0.4,0.4-0.4h2.3
						C28.3,22.2,28.5,22.4,28.5,22.6z"/>
					<g>
						<rect x="25.9" y="22.7" class="st44" width="2.2" height="2.2"/>
					</g>
				</g>
				<g>
					<polygon class="st35" points="26.9,22.7 26.6,22.7 25.9,23.4 25.9,23.7 					"/>
					<polygon class="st35" points="27.1,22.7 25.9,23.9 25.9,24.5 27.7,22.7 					"/>
				</g>
			</g>
		</g>
		<g>
			<g>
				<g>
					<path class="st5" d="M20.1,27.1v2.3c0,0.2-0.2,0.4-0.4,0.4h-2.3c-0.2,0-0.4-0.2-0.4-0.4v-2.3c0-0.2,0.2-0.4,0.4-0.4h2.3
						C20,26.7,20.1,26.9,20.1,27.1z"/>
					<g>
						<rect x="17.5" y="27.1" class="st44" width="2.2" height="2.2"/>
					</g>
				</g>
				<g>
					<polygon class="st35" points="18.5,27.1 18.2,27.1 17.5,27.8 17.5,28.1 					"/>
					<polygon class="st35" points="18.7,27.1 17.5,28.4 17.5,29 19.4,27.1 					"/>
				</g>
			</g>
			<g>
				<g>
					<path class="st5" d="M24.3,27.1v2.3c0,0.2-0.2,0.4-0.4,0.4h-2.3c-0.2,0-0.4-0.2-0.4-0.4v-2.3c0-0.2,0.2-0.4,0.4-0.4h2.3
						C24.1,26.7,24.3,26.9,24.3,27.1z"/>
					<g>
						<rect x="21.7" y="27.1" class="st44" width="2.2" height="2.2"/>
					</g>
				</g>
				<g>
					<polygon class="st35" points="22.7,27.1 22.4,27.1 21.7,27.8 21.7,28.1 					"/>
					<polygon class="st35" points="22.9,27.1 21.7,28.4 21.7,29 23.5,27.1 					"/>
				</g>
			</g>
			<g>
				<g>
					<path class="st5" d="M28.5,27.1v2.3c0,0.2-0.2,0.4-0.4,0.4h-2.3c-0.2,0-0.4-0.2-0.4-0.4v-2.3c0-0.2,0.2-0.4,0.4-0.4h2.3
						C28.3,26.7,28.5,26.9,28.5,27.1z"/>
					<g>
						<rect x="25.9" y="27.1" class="st44" width="2.2" height="2.2"/>
					</g>
				</g>
				<g>
					<g>
						<polygon class="st35" points="26.9,27.1 26.6,27.1 25.9,27.8 25.9,28.1 						"/>
					</g>
					<polygon class="st35" points="27.1,27.1 25.9,28.4 25.9,29 27.7,27.1 					"/>
				</g>
			</g>
		</g>
	</g>
	<g>
		<rect x="4.3" y="12.2" class="st12" width="11" height="20.2"/>
	</g>
	<g>
		<polygon class="st10" points="15.3,13.6 15.3,12.2 4.3,12.2 		"/>
	</g>
	<g>
		<rect x="6.2" y="23.2" class="st46" width="7.2" height="9.3"/>
	</g>
	<g>
		<path class="st7" d="M7.4,27.5v5h4.9v-5c0-1.4-1.1-2.4-2.4-2.4h0C8.5,25,7.4,26.1,7.4,27.5z"/>
	</g>
	<g>
		<path class="st5" d="M16.8,11.2L10.4,0.8c-0.3-0.4-0.9-0.4-1.1,0L2.8,11.2c-0.3,0.4,0,1,0.6,1h12.9C16.8,12.3,17.1,11.7,16.8,11.2
			z"/>
	</g>
	<g>
		<path class="st30" d="M16.2,12.3H3.4c-0.5,0-0.8-0.5-0.6-0.9c0.3,0,0.6,0,0.8,0C8,11.4,11.8,8.7,13,5l3.8,6.2
			C17.1,11.7,16.8,12.3,16.2,12.3z"/>
	</g>
	<g>
		<circle class="st20" cx="9.8" cy="17.3" r="3.6"/>
	</g>
	<g>
		<circle class="st47" cx="9.8" cy="17.3" r="3.1"/>
	</g>
	<g>
		<path class="st12" d="M9.9,15.3v2.9c0,0.1,0,0.1-0.1,0.1c-0.1,0-0.1,0-0.1-0.1v-2.9c0-0.1,0-0.1,0.1-0.1
			C9.9,15.2,9.9,15.2,9.9,15.3z"/>
	</g>
	<g>
		<path class="st12" d="M11.3,17.6l0.1-0.2l-2.7,0c-0.2,0-0.2-0.2,0-0.2l2.7,0l-0.1-0.2l0.9,0.3L11.3,17.6z"/>
	</g>
	<g>
		<circle class="st7" cx="9.8" cy="17.3" r="0.5"/>
	</g>
	<g>
		<circle class="st13" cx="9.8" cy="17.3" r="0.3"/>
	</g>
	<g>
		<path class="st12" d="M9.9,14.6v0.1c0,0,0,0.1-0.1,0.1c0,0-0.1,0-0.1-0.1v-0.1C9.8,14.6,9.8,14.6,9.9,14.6
			C9.8,14.6,9.9,14.6,9.9,14.6z"/>
	</g>
	<g>
		<path class="st12" d="M8,15.4L8,15.4c0.1,0.1,0.1,0.1,0.1,0.2c0,0-0.1,0-0.1,0L8,15.4C7.9,15.4,7.9,15.4,8,15.4
			C7.9,15.3,8,15.3,8,15.4z"/>
	</g>
	<g>
		<path class="st12" d="M7.2,17.2h0.1c0,0,0.1,0,0.1,0.1c0,0,0,0.1-0.1,0.1H7.2C7.2,17.3,7.1,17.3,7.2,17.2
			C7.1,17.2,7.2,17.2,7.2,17.2z"/>
	</g>
	<g>
		<path class="st12" d="M7.9,19.1L7.9,19.1C8,19,8.1,19,8.1,19c0,0,0,0.1,0,0.1L7.9,19.1C8,19.2,7.9,19.2,7.9,19.1
			C7.9,19.1,7.9,19.1,7.9,19.1z"/>
	</g>
	<g>
		<path class="st12" d="M9.8,19.9v-0.1c0,0,0-0.1,0.1-0.1c0,0,0.1,0,0.1,0.1v0.1C9.9,19.9,9.8,19.9,9.8,19.9
			C9.8,19.9,9.8,19.9,9.8,19.9z"/>
	</g>
	<g>
		<path class="st12" d="M11.6,19.1L11.6,19.1C11.5,19,11.5,19,11.5,19c0,0,0.1,0,0.1,0L11.6,19.1C11.7,19.1,11.7,19.1,11.6,19.1
			C11.7,19.2,11.7,19.2,11.6,19.1z"/>
	</g>
	<g>
		<path class="st12" d="M12.4,17.3h-0.1c0,0-0.1,0-0.1-0.1c0,0,0-0.1,0.1-0.1h0.1C12.5,17.2,12.5,17.2,12.4,17.3
			C12.5,17.3,12.5,17.3,12.4,17.3z"/>
	</g>
	<g>
		<path class="st12" d="M11.7,15.4L11.7,15.4c-0.1,0.1-0.1,0.1-0.2,0.1c0,0,0-0.1,0-0.1L11.7,15.4C11.7,15.3,11.7,15.3,11.7,15.4
			C11.7,15.4,11.7,15.4,11.7,15.4z"/>
	</g>
	<g>
		<g>
			<path class="st12" d="M9.2,14.7l0.1,0.2c0,0,0,0,0,0c0,0,0,0,0,0L9.2,14.7C9.1,14.7,9.1,14.7,9.2,14.7
				C9.1,14.7,9.2,14.7,9.2,14.7z"/>
		</g>
		<g>
			<path class="st12" d="M8.5,15l0.1,0.2c0,0,0,0,0,0.1c0,0,0,0-0.1,0L8.5,15C8.5,15,8.5,15,8.5,15C8.5,14.9,8.5,14.9,8.5,15z"/>
		</g>
		<g>
			<path class="st12" d="M7.5,15.9L7.7,16c0,0,0,0,0,0c0,0,0,0-0.1,0L7.5,15.9C7.5,16,7.5,15.9,7.5,15.9C7.5,15.9,7.5,15.9,7.5,15.9
				z"/>
		</g>
		<g>
			<path class="st12" d="M7.3,16.5l0.2,0.1c0,0,0,0,0,0c0,0,0,0,0,0L7.3,16.5C7.2,16.6,7.2,16.6,7.3,16.5
				C7.2,16.5,7.3,16.5,7.3,16.5z"/>
		</g>
		<g>
			<path class="st12" d="M7.3,17.9l0.2-0.1c0,0,0,0,0,0c0,0,0,0,0,0L7.3,17.9C7.3,18,7.2,18,7.3,17.9C7.2,17.9,7.2,17.9,7.3,17.9z"
				/>
		</g>
		<g>
			<path class="st12" d="M7.5,18.5l0.2-0.1c0,0,0,0,0.1,0c0,0,0,0,0,0.1L7.5,18.5C7.5,18.6,7.5,18.6,7.5,18.5
				C7.5,18.6,7.5,18.6,7.5,18.5z"/>
		</g>
		<g>
			<path class="st12" d="M8.5,19.5l0.1-0.2c0,0,0,0,0,0c0,0,0,0,0,0.1L8.5,19.5C8.5,19.6,8.5,19.6,8.5,19.5
				C8.5,19.6,8.5,19.5,8.5,19.5z"/>
		</g>
		<g>
			<path class="st12" d="M9.1,19.8l0.1-0.2c0,0,0,0,0,0c0,0,0,0,0,0L9.1,19.8C9.2,19.8,9.1,19.8,9.1,19.8
				C9.1,19.8,9.1,19.8,9.1,19.8z"/>
		</g>
		<g>
			<path class="st12" d="M10.5,19.8l-0.1-0.2c0,0,0,0,0,0c0,0,0,0,0,0L10.5,19.8C10.5,19.8,10.5,19.8,10.5,19.8
				C10.5,19.8,10.5,19.8,10.5,19.8z"/>
		</g>
		<g>
			<path class="st12" d="M11.1,19.6L11,19.4c0,0,0,0,0-0.1c0,0,0,0,0.1,0L11.1,19.6C11.2,19.5,11.2,19.6,11.1,19.6
				C11.1,19.6,11.1,19.6,11.1,19.6z"/>
		</g>
		<g>
			<path class="st12" d="M12.1,18.6l-0.2-0.1c0,0,0,0,0,0c0,0,0,0,0.1,0L12.1,18.6C12.1,18.6,12.1,18.6,12.1,18.6
				C12.1,18.6,12.1,18.6,12.1,18.6z"/>
		</g>
		<g>
			<path class="st12" d="M12.4,18l-0.2-0.1c0,0,0,0,0,0c0,0,0,0,0,0L12.4,18C12.4,17.9,12.4,17.9,12.4,18C12.4,18,12.4,18,12.4,18z"
				/>
		</g>
		<g>
			<path class="st12" d="M12.4,16.6l-0.2,0.1c0,0,0,0,0,0c0,0,0,0,0,0L12.4,16.6C12.4,16.5,12.4,16.5,12.4,16.6
				C12.4,16.6,12.4,16.6,12.4,16.6z"/>
		</g>
		<g>
			<path class="st12" d="M12.1,16l-0.2,0.1c0,0,0,0-0.1,0c0,0,0,0,0-0.1L12.1,16C12.1,15.9,12.1,15.9,12.1,16
				C12.1,15.9,12.1,16,12.1,16z"/>
		</g>
		<g>
			<path class="st12" d="M11.2,15l-0.1,0.2c0,0,0,0,0,0c0,0,0,0,0-0.1L11.2,15C11.1,14.9,11.1,14.9,11.2,15C11.2,15,11.2,15,11.2,15
				z"/>
		</g>
		<g>
			<path class="st12" d="M10.5,14.7l-0.1,0.2c0,0,0,0,0,0c0,0,0,0,0,0L10.5,14.7C10.5,14.7,10.5,14.7,10.5,14.7
				C10.5,14.7,10.5,14.7,10.5,14.7z"/>
		</g>
	</g>
</g>
</svg>
