<?xml version="1.0" encoding="utf-8"?>
<!-- Generator: Adobe Illustrator 21.1.0, SVG Export Plug-In . SVG Version: 6.00 Build 0)  -->
<svg version="1.1" id="Layer_1" xmlns="http://www.w3.org/2000/svg" xmlns:xlink="http://www.w3.org/1999/xlink" x="0px" y="0px"
	 viewBox="0 0 33 33" style="enable-background:new 0 0 33 33;" xml:space="preserve">
<style type="text/css">
	.st0{fill:#DAE5EF;}
	.st1{fill:#CBD6E0;}
	.st2{fill:#D03F3F;}
	.st3{fill:#BF3333;}
	.st4{fill:#E24B4B;}
	.st5{fill:#6D4135;}
	.st6{fill:#5B331D;}
	.st7{fill:#3E4347;}
	.st8{fill:#4E99D2;}
	.st9{fill:#65B1EF;}
	.st10{fill:#FFDC97;}
	.st11{fill:#FFCD7D;}
	.st12{fill:#FFE9AB;}
	.st13{fill:#31373A;}
	.st14{fill:#8CC63E;}
	.st15{fill:#FFD93B;}
	.st16{fill:#F4C534;}
	.st17{fill:#59A5E0;}
	.st18{fill:#DEE4E9;}
	.st19{fill:#D3D9DD;}
	.st20{fill:#FFFFFF;}
	.st21{fill:#2AB4CD;}
	.st22{fill:#1DA9BF;}
	.st23{fill:#E9EFF4;}
	.st24{fill:#7FB239;}
	.st25{fill:#719D34;}
	.st26{opacity:0.5;}
	.st27{fill:#BBC7D1;}
	.st28{fill:#E84D88;}
	.st29{fill:#D23F77;}
	.st30{fill:#633B2A;}
	.st31{fill:#E9B02C;}
	.st32{fill:#38C0DC;}
	.st33{fill:#45CBEA;}
	.st34{fill:#5A5F63;}
	.st35{fill:#E18823;}
	.st36{fill:#CF7519;}
	.st37{fill:#428DC3;}
	.st38{fill:#8D9BA3;}
	.st39{fill:#7B8B92;}
	.st40{fill:#ACB9C1;}
	.st41{fill:#846144;}
	.st42{fill:#7A5B44;}
	.st43{fill:#6B503B;}
	.st44{fill:#F29A2E;}
	.st45{fill:#728389;}
	.st46{fill:#FFD68D;}
	.st47{fill:#8F6D52;}
	.st48{fill:#84939A;}
	.st49{opacity:0.1;}
	.st50{fill:#89664C;}
	.st51{opacity:0.15;}
	.st52{fill:#DE9C25;}
	.st53{fill:#2AB4CD;stroke:#FFFFFF;stroke-width:0.5;stroke-linecap:round;stroke-linejoin:round;stroke-miterlimit:10;}
	.st54{fill:#FC97B2;}
	.st55{fill:#E88EA7;}
	.st56{opacity:0.2;}
	.st57{fill:#BB3166;}
	.st58{opacity:0.35;}
	.st59{opacity:0.6;}
	.st60{fill:#F9D087;}
	.st61{fill:#A5856D;}
	.st62{fill:#5C4533;}
	.st63{fill:#9A795F;}
	.st64{fill:#512A1B;}
	.st65{fill:#492418;}
	.st66{fill:#BE630E;}
	.st67{fill:none;}
	.st68{opacity:0.5;fill:#E18823;}
	.st69{opacity:0.1;fill:#FFFFFF;}
	.st70{fill:#FCCB7C;}
	.st71{opacity:0.15;fill:#FFFFFF;}
	.st72{opacity:0.2;fill:#FFFFFF;}
	.st73{opacity:0.5;fill:#CBD6E0;}
</style>
<g>
	<g>
		<g>
			<rect x="20.6" y="15.2" class="st7" width="0.9" height="2.6"/>
		</g>
		<g>
			<rect x="28.4" y="15.2" class="st7" width="0.9" height="2.6"/>
		</g>
	</g>
	<g>
		<g>
			<polygon class="st0" points="32,20 32,31.7 1.6,31.7 1.6,4.8 17.5,9.1 17.5,20 			"/>
		</g>
		<g>
			<rect x="17.5" y="21" class="st32" width="13.6" height="9.7"/>
		</g>
		<g>
			<polygon class="st32" points="2.5,6 16.5,9.9 16.5,30.7 2.5,30.7 			"/>
		</g>
		<g class="st56">
			<g>
				<g>
					<g>
						<polygon class="st20" points="5.2,30.7 16.5,10.6 16.5,9.9 15.9,9.7 4,30.7 						"/>
						<polygon class="st20" points="8.7,30.7 16.5,16.8 16.5,11.9 5.9,30.7 						"/>
					</g>
					<g>
						<polygon class="st20" points="2.5,29.3 13.9,9.1 13.5,9 2.5,28.4 						"/>
						<polygon class="st20" points="14.2,9.2 2.5,29.9 2.5,30.7 2.9,30.7 15,9.4 						"/>
					</g>
				</g>
			</g>
			<g>
				<g>
					<polygon class="st20" points="2.5,21.7 10.2,8.1 9.2,7.9 2.5,19.7 					"/>
					<g>
						<polygon class="st20" points="2.5,15.7 7.2,7.3 6.8,7.2 2.5,14.8 						"/>
						<polygon class="st20" points="2.5,17.8 8.3,7.6 7.6,7.4 2.5,16.3 						"/>
					</g>
				</g>
			</g>
		</g>
		<g>
			<polygon class="st1" points="16.5,31.7 17.5,31.7 17.5,19.3 			"/>
		</g>
		<g>
			<rect x="16.1" y="17" class="st34" width="16.4" height="3.1"/>
		</g>
		<g>
			<g>
				<polygon class="st34" points="18.6,6.2 18.6,9.5 0.5,4.5 0.5,1.3 				"/>
			</g>
		</g>
		<g>
			<g>
				<g>
					<rect x="4.6" y="6.2" class="st0" width="0.5" height="25.1"/>
				</g>
			</g>
			<g>
				<g>
					<rect x="6.9" y="7.1" class="st0" width="0.5" height="24.2"/>
				</g>
			</g>
			<g>
				<g>
					<rect x="9.3" y="7.8" class="st0" width="0.5" height="23.6"/>
				</g>
			</g>
			<g>
				<g>
					<rect x="11.7" y="8.2" class="st0" width="0.5" height="23.1"/>
				</g>
			</g>
			<g>
				<g>
					<rect x="14" y="8.8" class="st0" width="0.5" height="22.5"/>
				</g>
			</g>
		</g>
		<g>
			<g>
				<g>
					<rect x="19.3" y="20.5" class="st0" width="0.5" height="10.6"/>
				</g>
			</g>
			<g>
				<g>
					<rect x="21.7" y="20.5" class="st0" width="0.5" height="10.6"/>
				</g>
			</g>
			<g>
				<g>
					<rect x="24" y="20.5" class="st0" width="0.5" height="10.6"/>
				</g>
			</g>
			<g>
				<g>
					<rect x="26.4" y="20.5" class="st0" width="0.5" height="10.6"/>
				</g>
			</g>
			<g>
				<g>
					<rect x="28.8" y="20.5" class="st0" width="0.5" height="10.6"/>
				</g>
			</g>
		</g>
		<g>
			<rect x="17.5" y="23.2" class="st0" width="13.6" height="0.5"/>
			<rect x="17.5" y="25.6" class="st0" width="13.6" height="0.5"/>
			<rect x="17.5" y="28" class="st0" width="13.6" height="0.5"/>
		</g>
		<g class="st56">
			<g>
				<polygon class="st20" points="21.5,30.7 22.6,30.7 27.2,21 26.1,21 				"/>
				<polygon class="st20" points="23.3,30.7 26,30.7 30.6,21 27.9,21 				"/>
			</g>
			<g>
				<polygon class="st20" points="18.4,30.7 23,21 22.6,21 18,30.7 				"/>
				<polygon class="st20" points="19.6,30.7 24.2,21 23.4,21 18.8,30.7 				"/>
			</g>
		</g>
		<g>
			<rect x="20.8" y="22.9" class="st7" width="6.9" height="8.8"/>
		</g>
		<g>
			<rect x="24.5" y="23.9" class="st22" width="2.5" height="7.8"/>
		</g>
		<rect x="21.5" y="23.9" class="st22" width="2.5" height="7.8"/>
		<g class="st56">
			<polygon class="st20" points="24.5,26 25.3,23.9 24.8,23.9 24.5,24.8 			"/>
			<polygon class="st20" points="24,28.3 22.8,31.7 23.7,31.7 24,30.8 			"/>
		</g>
		<g class="st56">
			<polygon class="st20" points="24,26.1 22,31.7 22.4,31.7 24,27.3 			"/>
			<polygon class="st20" points="24.5,29.5 26.6,23.9 25.7,23.9 24.5,27 			"/>
		</g>
	</g>
	<g>
		<path class="st4" d="M30.6,12.9v2.5c0,0.3-0.2,0.5-0.5,0.5H19.9c-0.3,0-0.5-0.2-0.5-0.5v-2.5c0-0.3,0.2-0.5,0.5-0.5H30
			C30.3,12.3,30.6,12.6,30.6,12.9z"/>
	</g>
	<g>
		<path class="st20" d="M20.4,13.4H21c0.1,0,0.2,0,0.2,0c0.1,0,0.1,0,0.1,0.1c0,0,0.1,0.1,0.1,0.1s0,0.1,0,0.2c0,0.1,0,0.1-0.1,0.2
			c0,0.1-0.1,0.1-0.1,0.1c0.1,0,0.2,0.1,0.2,0.1c0,0.1,0.1,0.1,0.1,0.2c0,0.1,0,0.1,0,0.2c0,0.1-0.1,0.1-0.1,0.1
			c-0.1,0-0.1,0.1-0.2,0.1c0,0-0.2,0-0.3,0h-0.5V13.4z M20.7,13.6V14h0.2c0.1,0,0.2,0,0.2,0c0,0,0.1,0,0.1-0.1c0,0,0-0.1,0-0.1
			c0,0,0-0.1,0-0.1c0,0-0.1,0-0.1,0c0,0-0.1,0-0.2,0H20.7z M20.7,14.2v0.4H21c0.1,0,0.2,0,0.2,0c0,0,0.1,0,0.1-0.1c0,0,0-0.1,0-0.1
			c0,0,0-0.1,0-0.1s-0.1-0.1-0.1-0.1c0,0-0.1,0-0.3,0H20.7z"/>
		<path class="st20" d="M21.8,14.8v-1.4h0.3v1.4H21.8z"/>
		<path class="st20" d="M23,14.3v-0.2h0.6v0.6c-0.1,0.1-0.1,0.1-0.3,0.2c-0.1,0-0.2,0.1-0.3,0.1c-0.1,0-0.3,0-0.4-0.1
			c-0.1-0.1-0.2-0.2-0.2-0.3c-0.1-0.1-0.1-0.2-0.1-0.4c0-0.1,0-0.3,0.1-0.4c0.1-0.1,0.2-0.2,0.3-0.3c0.1,0,0.2-0.1,0.3-0.1
			c0.2,0,0.3,0,0.4,0.1c0.1,0.1,0.2,0.2,0.2,0.3l-0.3,0.1c0-0.1-0.1-0.1-0.1-0.2c-0.1,0-0.1-0.1-0.2-0.1c-0.1,0-0.2,0-0.3,0.1
			c-0.1,0.1-0.1,0.2-0.1,0.4c0,0.2,0,0.3,0.1,0.4s0.2,0.1,0.3,0.1c0.1,0,0.1,0,0.2,0c0.1,0,0.1-0.1,0.2-0.1v-0.2H23z"/>
		<path class="st20" d="M24.4,14.3l0.3,0c0,0.1,0.1,0.2,0.1,0.2c0.1,0,0.1,0.1,0.2,0.1c0.1,0,0.2,0,0.2-0.1s0.1-0.1,0.1-0.1
			c0,0,0-0.1,0-0.1s-0.1,0-0.1-0.1c0,0-0.1,0-0.2-0.1c-0.2,0-0.3-0.1-0.3-0.1c-0.1-0.1-0.1-0.2-0.1-0.3c0-0.1,0-0.1,0.1-0.2
			c0-0.1,0.1-0.1,0.2-0.1s0.2,0,0.3,0c0.2,0,0.3,0,0.4,0.1c0.1,0.1,0.1,0.2,0.1,0.3l-0.3,0c0-0.1,0-0.1-0.1-0.2c0,0-0.1,0-0.2,0
			c-0.1,0-0.1,0-0.2,0.1c0,0,0,0.1,0,0.1c0,0,0,0.1,0,0.1c0,0,0.1,0.1,0.3,0.1c0.1,0,0.2,0.1,0.3,0.1c0.1,0,0.1,0.1,0.2,0.1
			c0,0.1,0.1,0.1,0.1,0.2c0,0.1,0,0.2-0.1,0.2c0,0.1-0.1,0.1-0.2,0.2c-0.1,0-0.2,0.1-0.3,0.1c-0.2,0-0.3,0-0.4-0.1
			C24.5,14.6,24.4,14.5,24.4,14.3z"/>
		<path class="st20" d="M27,14.8h-0.3l-0.1-0.3H26l-0.1,0.3h-0.3l0.5-1.4h0.3L27,14.8z M26.5,14.3l-0.2-0.5l-0.2,0.5H26.5z"/>
		<path class="st20" d="M27.2,14.8v-1.4h0.3v1.2h0.7v0.2H27.2z"/>
		<path class="st20" d="M28.4,14.8v-1.4h1v0.2h-0.8v0.3h0.7v0.2h-0.7v0.4h0.8v0.2H28.4z"/>
	</g>
</g>
</svg>
