<?xml version="1.0" encoding="utf-8"?>
<!-- Generator: Adobe Illustrator 21.1.0, SVG Export Plug-In . SVG Version: 6.00 Build 0)  -->
<svg version="1.1" id="Layer_1" xmlns="http://www.w3.org/2000/svg" xmlns:xlink="http://www.w3.org/1999/xlink" x="0px" y="0px"
	 viewBox="0 0 33 33" style="enable-background:new 0 0 33 33;" xml:space="preserve">
<style type="text/css">
	.st0{fill:#DAE5EF;}
	.st1{fill:#CBD6E0;}
	.st2{fill:#D03F3F;}
	.st3{fill:#BF3333;}
	.st4{fill:#E24B4B;}
	.st5{fill:#6D4135;}
	.st6{fill:#5B331D;}
	.st7{fill:#3E4347;}
	.st8{fill:#4E99D2;}
	.st9{fill:#65B1EF;}
	.st10{fill:#FFDC97;}
	.st11{fill:#FFCD7D;}
	.st12{fill:#FFE9AB;}
	.st13{fill:#31373A;}
	.st14{fill:#8CC63E;}
	.st15{fill:#FFD93B;}
	.st16{fill:#F4C534;}
	.st17{fill:#59A5E0;}
	.st18{fill:#DEE4E9;}
	.st19{fill:#D3D9DD;}
	.st20{fill:#FFFFFF;}
	.st21{fill:#2AB4CD;}
	.st22{fill:#1DA9BF;}
	.st23{fill:#E9EFF4;}
	.st24{fill:#7FB239;}
	.st25{fill:#719D34;}
	.st26{opacity:0.5;}
	.st27{fill:#BBC7D1;}
	.st28{fill:#E84D88;}
	.st29{fill:#D23F77;}
	.st30{fill:#633B2A;}
	.st31{fill:#E9B02C;}
	.st32{fill:#38C0DC;}
	.st33{fill:#45CBEA;}
	.st34{fill:#5A5F63;}
	.st35{fill:#E18823;}
	.st36{fill:#CF7519;}
	.st37{fill:#428DC3;}
	.st38{fill:#8D9BA3;}
	.st39{fill:#7B8B92;}
	.st40{fill:#ACB9C1;}
	.st41{fill:#846144;}
	.st42{fill:#7A5B44;}
	.st43{fill:#6B503B;}
	.st44{fill:#F29A2E;}
	.st45{fill:#728389;}
	.st46{fill:#FFD68D;}
	.st47{fill:#8F6D52;}
	.st48{fill:#84939A;}
	.st49{opacity:0.1;}
	.st50{fill:#89664C;}
	.st51{opacity:0.15;}
	.st52{fill:#DE9C25;}
	.st53{fill:#2AB4CD;stroke:#FFFFFF;stroke-width:0.5;stroke-linecap:round;stroke-linejoin:round;stroke-miterlimit:10;}
	.st54{fill:#FC97B2;}
	.st55{fill:#E88EA7;}
	.st56{opacity:0.2;}
	.st57{fill:#BB3166;}
	.st58{opacity:0.35;}
	.st59{opacity:0.6;}
	.st60{fill:#F9D087;}
	.st61{fill:#A5856D;}
	.st62{fill:#5C4533;}
	.st63{fill:#9A795F;}
	.st64{fill:#512A1B;}
	.st65{fill:#492418;}
	.st66{fill:#BE630E;}
	.st67{fill:none;}
	.st68{opacity:0.5;fill:#E18823;}
	.st69{opacity:0.1;fill:#FFFFFF;}
	.st70{fill:#FCCB7C;}
	.st71{opacity:0.15;fill:#FFFFFF;}
	.st72{opacity:0.2;fill:#FFFFFF;}
	.st73{opacity:0.5;fill:#CBD6E0;}
</style>
<g>
	<g>
		<g>
			<g>
				<g>
					<polygon class="st12" points="30,29.6 30,9.8 16.5,5.3 3,9.8 3,29.6 					"/>
				</g>
			</g>
			<g>
				<g>
					<rect x="3" y="26.5" class="st46" width="27.1" height="3.1"/>
				</g>
			</g>
			<g>
				<g>
					<g>
						<g>
							<rect x="6.8" y="26.5" class="st7" width="8" height="1.5"/>
						</g>
					</g>
					<g>
						<g>
							<rect x="7.4" y="15.6" class="st5" width="6.9" height="10.9"/>
						</g>
						<g>
							<g>
								<rect x="8.2" y="16.3" class="st6" width="5.3" height="3.1"/>
							</g>
							<g>
								<g>
									<rect x="8.2" y="20.2" class="st6" width="5.3" height="5.5"/>
								</g>
							</g>
						</g>
					</g>
					<g>
						<g>
							<rect x="5.4" y="27.9" class="st34" width="10.9" height="1.6"/>
						</g>
					</g>
				</g>
				<g>
					<g>
						<circle class="st5" cx="12.7" cy="21" r="0.3"/>
					</g>
				</g>
			</g>
		</g>
		<g>
			<g>
				<g>
					<polygon class="st46" points="3,11.9 3,14.2 16.5,8.4 30,14.2 30,11.9 16.5,6.2 					"/>
				</g>
				<path class="st4" d="M30,13L16.5,7.2L3,13c-0.9,0.4-2,0-2.4-1c-0.4-0.9,0-2,1-2.4l14.2-6.1c0.5-0.2,1-0.2,1.4,0l14.2,6.1
					c0.9,0.4,1.3,1.5,1,2.4C32,13,30.9,13.4,30,13z"/>
			</g>
		</g>
	</g>
	<g>
		<path class="st46" d="M26.8,16.9v5.7c0,0.4-0.3,0.7-0.7,0.7h-8.2c-0.4,0-0.7-0.3-0.7-0.7v-5.7c0-0.4,0.3-0.7,0.7-0.7h8.2
			C26.5,16.2,26.8,16.5,26.8,16.9z"/>
	</g>
	<g>
		<rect x="18" y="17" class="st7" width="8.1" height="5.6"/>
	</g>
	<g>
		<polygon class="st34" points="23.5,17 20.4,22.5 21.7,22.5 24.7,17 		"/>
		<polygon class="st34" points="22.9,17 22.3,17 19.3,22.5 19.9,22.5 		"/>
	</g>
</g>
</svg>
