<?xml version="1.0" encoding="utf-8"?>
<!-- Generator: Adobe Illustrator 21.1.0, SVG Export Plug-In . SVG Version: 6.00 Build 0)  -->
<svg version="1.1" id="Layer_1" xmlns="http://www.w3.org/2000/svg" xmlns:xlink="http://www.w3.org/1999/xlink" x="0px" y="0px"
	 viewBox="0 0 33 33" style="enable-background:new 0 0 33 33;" xml:space="preserve">
<style type="text/css">
	.st0{fill:#DAE5EF;}
	.st1{fill:#CBD6E0;}
	.st2{fill:#D03F3F;}
	.st3{fill:#BF3333;}
	.st4{fill:#E24B4B;}
	.st5{fill:#6D4135;}
	.st6{fill:#5B331D;}
	.st7{fill:#3E4347;}
	.st8{fill:#4E99D2;}
	.st9{fill:#65B1EF;}
	.st10{fill:#FFDC97;}
	.st11{fill:#FFCD7D;}
	.st12{fill:#FFE9AB;}
	.st13{fill:#31373A;}
	.st14{fill:#8CC63E;}
	.st15{fill:#FFD93B;}
	.st16{fill:#F4C534;}
	.st17{fill:#59A5E0;}
	.st18{fill:#DEE4E9;}
	.st19{fill:#D3D9DD;}
	.st20{fill:#FFFFFF;}
	.st21{fill:#2AB4CD;}
	.st22{fill:#1DA9BF;}
	.st23{fill:#E9EFF4;}
	.st24{fill:#7FB239;}
	.st25{fill:#719D34;}
	.st26{opacity:0.5;}
	.st27{fill:#BBC7D1;}
	.st28{fill:#E84D88;}
	.st29{fill:#D23F77;}
	.st30{fill:#633B2A;}
	.st31{fill:#E9B02C;}
	.st32{fill:#38C0DC;}
	.st33{fill:#45CBEA;}
	.st34{fill:#5A5F63;}
	.st35{fill:#E18823;}
	.st36{fill:#CF7519;}
	.st37{fill:#428DC3;}
	.st38{fill:#8D9BA3;}
	.st39{fill:#7B8B92;}
	.st40{fill:#ACB9C1;}
	.st41{fill:#846144;}
	.st42{fill:#7A5B44;}
	.st43{fill:#6B503B;}
	.st44{fill:#F29A2E;}
	.st45{fill:#728389;}
	.st46{fill:#FFD68D;}
	.st47{fill:#8F6D52;}
	.st48{fill:#84939A;}
	.st49{opacity:0.1;}
	.st50{fill:#89664C;}
	.st51{opacity:0.15;}
	.st52{fill:#DE9C25;}
	.st53{fill:#2AB4CD;stroke:#FFFFFF;stroke-width:0.5;stroke-linecap:round;stroke-linejoin:round;stroke-miterlimit:10;}
	.st54{fill:#FC97B2;}
	.st55{fill:#E88EA7;}
	.st56{opacity:0.2;}
	.st57{fill:#BB3166;}
	.st58{opacity:0.35;}
	.st59{opacity:0.6;}
	.st60{fill:#F9D087;}
	.st61{fill:#A5856D;}
	.st62{fill:#5C4533;}
	.st63{fill:#9A795F;}
	.st64{fill:#512A1B;}
	.st65{fill:#492418;}
	.st66{fill:#BE630E;}
	.st67{fill:none;}
	.st68{opacity:0.5;fill:#E18823;}
	.st69{opacity:0.1;fill:#FFFFFF;}
	.st70{fill:#FCCB7C;}
	.st71{opacity:0.15;fill:#FFFFFF;}
	.st72{opacity:0.2;fill:#FFFFFF;}
	.st73{opacity:0.5;fill:#CBD6E0;}
</style>
<g>
	<g>
		<g>
			<path class="st4" d="M32.5,10.4v2.2c0,0.4-0.3,0.6-0.6,0.6H1.2c-0.4,0-0.7-0.3-0.7-0.6v-2.2c0-0.4,0.3-0.7,0.7-0.7h30.7
				C32.2,9.8,32.5,10,32.5,10.4z"/>
		</g>
		<g>
			<rect x="1.9" y="13.2" class="st0" width="29.1" height="13.8"/>
		</g>
		<g>
			<rect x="1.9" y="25.2" class="st27" width="29.1" height="1.8"/>
		</g>
		<g>
			<rect x="1.9" y="13.2" class="st1" width="29.1" height="1.6"/>
		</g>
		<g>
			<g>
				<g>
					<path class="st20" d="M9,16.6v6.7c0,0.2-0.2,0.3-0.3,0.3h-4c-0.2,0-0.3-0.2-0.3-0.3v-6.7c0-0.2,0.2-0.3,0.3-0.3h4
						C8.9,16.2,9,16.4,9,16.6z"/>
				</g>
				<g>
					<rect x="4.8" y="16.7" class="st21" width="3.8" height="6.5"/>
				</g>
				<g>
					<rect x="6.5" y="16.4" class="st20" width="0.5" height="7"/>
				</g>
				<g>
					<rect x="4.5" y="18.4" class="st20" width="4.4" height="0.5"/>
				</g>
				<g class="st56">
					<g>
						<polygon class="st20" points="8.5,16.7 7.5,16.7 5.7,23.1 6.7,23.1 						"/>
					</g>
					<polygon class="st20" points="6.7,16.7 4.9,23.1 5.2,23.1 7.1,16.7 					"/>
				</g>
			</g>
			<g>
				<g>
					<path class="st20" d="M28.7,16.6v6.7c0,0.2-0.2,0.3-0.3,0.3h-4c-0.2,0-0.3-0.2-0.3-0.3v-6.7c0-0.2,0.2-0.3,0.3-0.3h4
						C28.5,16.2,28.7,16.4,28.7,16.6z"/>
				</g>
				<g>
					<rect x="24.4" y="16.7" class="st21" width="3.8" height="6.5"/>
				</g>
				<g>
					<rect x="26.1" y="16.4" class="st20" width="0.5" height="7"/>
				</g>
				<g>
					<rect x="24.1" y="18.4" class="st20" width="4.4" height="0.5"/>
				</g>
				<g class="st56">
					<g>
						<polygon class="st20" points="28.1,16.7 27.2,16.7 25.3,23.1 26.3,23.1 						"/>
					</g>
					<polygon class="st20" points="26.3,16.7 24.5,23.1 24.9,23.1 26.7,16.7 					"/>
				</g>
			</g>
		</g>
		<g>
			<rect x="11.7" y="15.9" class="st7" width="9.6" height="11.1"/>
		</g>
		<g>
			<rect x="12.3" y="17.1" class="st0" width="8.3" height="9.9"/>
		</g>
		<g>
			<rect x="13" y="18.3" class="st21" width="3.2" height="8.6"/>
			<g class="st56">
				<polygon class="st20" points="14,27 15,27 16.1,18.3 15.1,18.3 				"/>
				<polygon class="st20" points="13.1,27 13.5,27 14.7,18.3 14.3,18.3 				"/>
			</g>
		</g>
		<g>
			<rect x="16.8" y="18.3" class="st21" width="3.2" height="8.6"/>
			<g class="st56">
				<polygon class="st20" points="17.8,27 18.7,27 19.9,18.3 18.9,18.3 				"/>
				<polygon class="st20" points="16.9,27 17.3,27 18.5,18.3 18.1,18.3 				"/>
			</g>
		</g>
	</g>
	<g>
		<path class="st15" d="M27.2,6.6v3.4c0,0.3-0.3,0.6-0.6,0.6H6.4c-0.3,0-0.6-0.3-0.6-0.6V6.6C5.8,6.3,6.1,6,6.4,6h20.1
			C26.9,6,27.2,6.3,27.2,6.6z"/>
	</g>
	<g>
		<path class="st13" d="M7.2,8.6l0.3,0c0,0.1,0.1,0.2,0.1,0.2c0.1,0.1,0.1,0.1,0.2,0.1c0.1,0,0.2,0,0.2-0.1c0.1,0,0.1-0.1,0.1-0.2
			c0,0,0-0.1,0-0.1c0,0-0.1-0.1-0.1-0.1c0,0-0.1,0-0.3-0.1c-0.2,0-0.3-0.1-0.4-0.2C7.3,8.2,7.2,8.1,7.2,7.9c0-0.1,0-0.2,0.1-0.2
			c0-0.1,0.1-0.1,0.2-0.2c0.1,0,0.2-0.1,0.3-0.1c0.2,0,0.4,0,0.5,0.1C8.4,7.7,8.5,7.8,8.5,8L8.1,8c0-0.1,0-0.1-0.1-0.2
			c0,0-0.1-0.1-0.2-0.1c-0.1,0-0.2,0-0.2,0.1c0,0-0.1,0.1-0.1,0.1c0,0,0,0.1,0.1,0.1c0,0,0.1,0.1,0.3,0.1c0.2,0,0.3,0.1,0.4,0.1
			c0.1,0,0.1,0.1,0.2,0.2c0,0.1,0.1,0.2,0.1,0.3c0,0.1,0,0.2-0.1,0.3C8.4,9,8.3,9.1,8.2,9.2S8,9.2,7.9,9.2c-0.2,0-0.4,0-0.5-0.1
			C7.3,9,7.2,8.8,7.2,8.6z"/>
		<path class="st13" d="M8.8,7.5h0.3v0.9c0,0.1,0,0.2,0,0.3c0,0.1,0,0.1,0.1,0.2c0.1,0,0.1,0.1,0.2,0.1c0.1,0,0.2,0,0.2-0.1
			s0.1-0.1,0.1-0.1s0-0.2,0-0.3V7.5h0.3v0.9c0,0.2,0,0.3,0,0.4C10.1,8.9,10.1,9,10,9c0,0.1-0.1,0.1-0.2,0.1c-0.1,0-0.2,0.1-0.3,0.1
			c-0.2,0-0.3,0-0.4-0.1C9.1,9.1,9,9.1,8.9,9S8.9,8.9,8.9,8.8c0-0.1,0-0.2,0-0.4V7.5z"/>
		<path class="st13" d="M10.5,9.2V7.5h0.5c0.2,0,0.3,0,0.4,0c0.1,0,0.2,0.1,0.2,0.2c0.1,0.1,0.1,0.2,0.1,0.3c0,0.1,0,0.2-0.1,0.3
			c0,0.1-0.1,0.1-0.1,0.2c-0.1,0-0.1,0.1-0.2,0.1c-0.1,0-0.2,0-0.4,0h-0.2v0.6H10.5z M10.9,7.8v0.5H11c0.1,0,0.2,0,0.3,0
			c0,0,0.1,0,0.1-0.1c0,0,0-0.1,0-0.1c0-0.1,0-0.1-0.1-0.2s-0.1-0.1-0.1-0.1c0,0-0.1,0-0.2,0H10.9z"/>
		<path class="st13" d="M12.1,9.2V7.5h1.2v0.3h-0.9v0.4h0.8v0.3h-0.8v0.5h0.9v0.3H12.1z"/>
		<path class="st13" d="M13.7,9.2V7.5h0.7c0.2,0,0.3,0,0.4,0c0.1,0,0.1,0.1,0.2,0.2C15,7.8,15,7.9,15,8c0,0.1,0,0.2-0.1,0.3
			s-0.2,0.1-0.3,0.2c0.1,0,0.1,0.1,0.2,0.1c0,0.1,0.1,0.1,0.2,0.3l0.2,0.3h-0.4l-0.2-0.4c-0.1-0.1-0.1-0.2-0.2-0.2
			c0,0-0.1-0.1-0.1-0.1c0,0-0.1,0-0.2,0H14v0.7H13.7z M14,8.2h0.3c0.2,0,0.3,0,0.3,0c0,0,0.1,0,0.1-0.1c0,0,0-0.1,0-0.1
			c0-0.1,0-0.1,0-0.1c0,0-0.1-0.1-0.1-0.1c0,0-0.1,0-0.2,0H14V8.2z"/>
		<path class="st13" d="M16,9.2V7.5h0.5l0.3,1.1l0.3-1.1h0.5v1.7h-0.3V7.9L17,9.2h-0.3l-0.3-1.3v1.3H16z"/>
		<path class="st13" d="M19.5,9.2h-0.4L19,8.8h-0.7l-0.1,0.4h-0.4l0.7-1.7h0.4L19.5,9.2z M18.9,8.5l-0.2-0.6l-0.2,0.6H18.9z"/>
		<path class="st13" d="M19.7,9.2V7.5h0.7c0.2,0,0.3,0,0.4,0c0.1,0,0.1,0.1,0.2,0.2C21,7.8,21,7.9,21,8c0,0.1,0,0.2-0.1,0.3
			c-0.1,0.1-0.2,0.1-0.3,0.2c0.1,0,0.1,0.1,0.2,0.1c0,0.1,0.1,0.1,0.2,0.3l0.2,0.3h-0.4l-0.2-0.4c-0.1-0.1-0.1-0.2-0.2-0.2
			c0,0-0.1-0.1-0.1-0.1c0,0-0.1,0-0.2,0H20v0.7H19.7z M20,8.2h0.3c0.2,0,0.3,0,0.3,0c0,0,0.1,0,0.1-0.1c0,0,0-0.1,0-0.1
			c0-0.1,0-0.1,0-0.1c0,0-0.1-0.1-0.1-0.1c0,0-0.1,0-0.2,0H20V8.2z"/>
		<path class="st13" d="M21.4,9.2V7.5h0.3v0.7l0.7-0.7h0.5l-0.6,0.7l0.7,1h-0.4L22,8.4l-0.3,0.3v0.5H21.4z"/>
		<path class="st13" d="M23.1,9.2V7.5h1.2v0.3h-0.9v0.4h0.8v0.3h-0.8v0.5h0.9v0.3H23.1z"/>
		<path class="st13" d="M25,9.2V7.8h-0.5V7.5h1.3v0.3h-0.5v1.4H25z"/>
	</g>
</g>
</svg>
