<?xml version="1.0" encoding="utf-8"?>
<!-- Generator: Adobe Illustrator 21.1.0, SVG Export Plug-In . SVG Version: 6.00 Build 0)  -->
<svg version="1.1" id="Layer_1" xmlns="http://www.w3.org/2000/svg" xmlns:xlink="http://www.w3.org/1999/xlink" x="0px" y="0px"
	 viewBox="0 0 33 33" style="enable-background:new 0 0 33 33;" xml:space="preserve">
<style type="text/css">
	.st0{fill:#DAE5EF;}
	.st1{fill:#CBD6E0;}
	.st2{fill:#D03F3F;}
	.st3{fill:#BF3333;}
	.st4{fill:#E24B4B;}
	.st5{fill:#6D4135;}
	.st6{fill:#5B331D;}
	.st7{fill:#3E4347;}
	.st8{fill:#4E99D2;}
	.st9{fill:#65B1EF;}
	.st10{fill:#FFDC97;}
	.st11{fill:#FFCD7D;}
	.st12{fill:#FFE9AB;}
	.st13{fill:#31373A;}
	.st14{fill:#8CC63E;}
	.st15{fill:#FFD93B;}
	.st16{fill:#F4C534;}
	.st17{fill:#59A5E0;}
	.st18{fill:#DEE4E9;}
	.st19{fill:#D3D9DD;}
	.st20{fill:#FFFFFF;}
	.st21{fill:#2AB4CD;}
	.st22{fill:#1DA9BF;}
	.st23{fill:#E9EFF4;}
	.st24{fill:#7FB239;}
	.st25{fill:#719D34;}
	.st26{opacity:0.5;}
	.st27{fill:#BBC7D1;}
	.st28{fill:#E84D88;}
	.st29{fill:#D23F77;}
	.st30{fill:#633B2A;}
	.st31{fill:#E9B02C;}
	.st32{fill:#38C0DC;}
	.st33{fill:#45CBEA;}
	.st34{fill:#5A5F63;}
	.st35{fill:#E18823;}
	.st36{fill:#CF7519;}
	.st37{fill:#428DC3;}
	.st38{fill:#8D9BA3;}
	.st39{fill:#7B8B92;}
	.st40{fill:#ACB9C1;}
	.st41{fill:#846144;}
	.st42{fill:#7A5B44;}
	.st43{fill:#6B503B;}
	.st44{fill:#F29A2E;}
	.st45{fill:#728389;}
	.st46{fill:#FFD68D;}
	.st47{fill:#8F6D52;}
	.st48{fill:#84939A;}
	.st49{opacity:0.1;}
	.st50{fill:#89664C;}
	.st51{opacity:0.15;}
	.st52{fill:#DE9C25;}
	.st53{fill:#2AB4CD;stroke:#FFFFFF;stroke-width:0.5;stroke-linecap:round;stroke-linejoin:round;stroke-miterlimit:10;}
	.st54{fill:#FC97B2;}
	.st55{fill:#E88EA7;}
	.st56{opacity:0.2;}
	.st57{fill:#BB3166;}
	.st58{opacity:0.35;}
	.st59{opacity:0.6;}
	.st60{fill:#F9D087;}
	.st61{fill:#A5856D;}
	.st62{fill:#5C4533;}
	.st63{fill:#9A795F;}
	.st64{fill:#512A1B;}
	.st65{fill:#492418;}
	.st66{fill:#BE630E;}
	.st67{fill:none;}
	.st68{opacity:0.5;fill:#E18823;}
	.st69{opacity:0.1;fill:#FFFFFF;}
	.st70{fill:#FCCB7C;}
	.st71{opacity:0.15;fill:#FFFFFF;}
	.st72{opacity:0.2;fill:#FFFFFF;}
	.st73{opacity:0.5;fill:#CBD6E0;}
</style>
<g>
	<g>
		<g>
			<g>
				<polygon class="st0" points="27.2,30.4 27.2,5.8 5.8,8.7 5.8,30.4 				"/>
			</g>
			<g>
				<path class="st27" d="M28.1,30.7v1.4c0,0.2-0.2,0.3-0.4,0.3H5.2c-0.2,0-0.3-0.2-0.3-0.3v-1.4c0-0.2,0.2-0.3,0.3-0.3h22.5
					C28,30.4,28.1,30.6,28.1,30.7z"/>
			</g>
			<g>
				<path class="st4" d="M28.8,4.9v2c0,0.3-0.2,0.5-0.5,0.6l-23.3,3c-0.4,0-0.7-0.2-0.7-0.6v-2c0-0.3,0.2-0.5,0.5-0.6l23.3-3
					C28.4,4.3,28.8,4.5,28.8,4.9z"/>
			</g>
			<g>
				<circle class="st23" cx="16.5" cy="4.2" r="3.7"/>
			</g>
			<g>
				<rect x="8.1" y="12" class="st21" width="16.8" height="2.1"/>
			</g>
			<g>
				<rect x="8.1" y="15.5" class="st21" width="16.8" height="2.1"/>
			</g>
			<g>
				<rect x="8.1" y="19" class="st21" width="16.8" height="2.1"/>
			</g>
			<g>
				<rect x="8.1" y="22.5" class="st21" width="16.8" height="2.1"/>
			</g>
			<g>
				<rect x="8.1" y="26" class="st21" width="4.2" height="2.1"/>
				<rect x="20.7" y="26" class="st21" width="4.2" height="2.1"/>
			</g>
			<g>
				<rect x="13.7" y="26" class="st7" width="5.6" height="6.5"/>
			</g>
		</g>
		<g>
			<g>
				<path class="st22" d="M24.9,12v2.1h-3c0-0.1,0-0.3,0-0.4c0-0.6,0-1.1-0.1-1.7H24.9z"/>
			</g>
			<g>
				<path class="st22" d="M24.9,15.5v2.1h-3.6c0.2-0.7,0.4-1.4,0.5-2.1H24.9z"/>
			</g>
			<g>
				<path class="st22" d="M24.9,19v2.1h-5.2c0.4-0.7,0.8-1.4,1.1-2.1H24.9z"/>
			</g>
			<g>
				<path class="st22" d="M24.9,22.5v2.1h-8.7c0.9-0.6,1.6-1.3,2.3-2.1H24.9z"/>
			</g>
			<g>
				<path class="st22" d="M12.3,26.5v1.6H8.1V27c0.2,0,0.3,0,0.5,0C9.9,27,11.1,26.9,12.3,26.5z"/>
				<rect x="20.7" y="26" class="st22" width="4.2" height="2.1"/>
			</g>
		</g>
		<g class="st51">
			<path class="st20" d="M8.1,22.5H13c-1.4,0.9-3.1,1.4-4.9,1.4V22.5z"/>
			<path class="st20" d="M8.1,19h8.4c-0.5,0.8-1,1.5-1.7,2.1H8.1V19z"/>
			<path class="st20" d="M8.1,15.5h9.6c-0.1,0.7-0.3,1.4-0.6,2.1H8.1V15.5z"/>
			<path class="st20" d="M17.9,14v0.2H8.1V12h9.6C17.8,12.7,17.9,13.3,17.9,14z"/>
		</g>
	</g>
	<g>
		<g>
			<g>
				<path class="st21" d="M18.8,4.2c0,0.3-0.2,0.5-0.5,0.5H17V6c0,0.3-0.2,0.5-0.5,0.5C16.2,6.5,16,6.3,16,6V4.7h-1.3
					c-0.3,0-0.5-0.2-0.5-0.5s0.2-0.5,0.5-0.5H16V2.4c0-0.3,0.2-0.5,0.5-0.5c0.3,0,0.5,0.2,0.5,0.5v1.3h1.3C18.6,3.8,18.8,4,18.8,4.2
					z"/>
			</g>
		</g>
	</g>
</g>
</svg>
