<?xml version="1.0" encoding="utf-8"?>
<!-- Generator: Adobe Illustrator 21.1.0, SVG Export Plug-In . SVG Version: 6.00 Build 0)  -->
<svg version="1.1" id="Layer_1" xmlns="http://www.w3.org/2000/svg" xmlns:xlink="http://www.w3.org/1999/xlink" x="0px" y="0px"
	 viewBox="0 0 33 33" style="enable-background:new 0 0 33 33;" xml:space="preserve">
<style type="text/css">
	.st0{fill:#DAE5EF;}
	.st1{fill:#CBD6E0;}
	.st2{fill:#D03F3F;}
	.st3{fill:#BF3333;}
	.st4{fill:#E24B4B;}
	.st5{fill:#6D4135;}
	.st6{fill:#5B331D;}
	.st7{fill:#3E4347;}
	.st8{fill:#4E99D2;}
	.st9{fill:#65B1EF;}
	.st10{fill:#FFDC97;}
	.st11{fill:#FFCD7D;}
	.st12{fill:#FFE9AB;}
	.st13{fill:#31373A;}
	.st14{fill:#8CC63E;}
	.st15{fill:#FFD93B;}
	.st16{fill:#F4C534;}
	.st17{fill:#59A5E0;}
	.st18{fill:#DEE4E9;}
	.st19{fill:#D3D9DD;}
	.st20{fill:#FFFFFF;}
	.st21{fill:#2AB4CD;}
	.st22{fill:#1DA9BF;}
	.st23{fill:#E9EFF4;}
	.st24{fill:#7FB239;}
	.st25{fill:#719D34;}
	.st26{opacity:0.5;}
	.st27{fill:#BBC7D1;}
	.st28{fill:#E84D88;}
	.st29{fill:#D23F77;}
	.st30{fill:#633B2A;}
	.st31{fill:#E9B02C;}
	.st32{fill:#38C0DC;}
	.st33{fill:#45CBEA;}
	.st34{fill:#5A5F63;}
	.st35{fill:#E18823;}
	.st36{fill:#CF7519;}
	.st37{fill:#428DC3;}
	.st38{fill:#8D9BA3;}
	.st39{fill:#7B8B92;}
	.st40{fill:#ACB9C1;}
	.st41{fill:#846144;}
	.st42{fill:#7A5B44;}
	.st43{fill:#6B503B;}
	.st44{fill:#F29A2E;}
	.st45{fill:#728389;}
	.st46{fill:#FFD68D;}
	.st47{fill:#8F6D52;}
	.st48{fill:#84939A;}
	.st49{opacity:0.1;}
	.st50{fill:#89664C;}
	.st51{opacity:0.15;}
	.st52{fill:#DE9C25;}
	.st53{fill:#2AB4CD;stroke:#FFFFFF;stroke-width:0.5;stroke-linecap:round;stroke-linejoin:round;stroke-miterlimit:10;}
	.st54{fill:#FC97B2;}
	.st55{fill:#E88EA7;}
	.st56{opacity:0.2;}
	.st57{fill:#BB3166;}
	.st58{opacity:0.35;}
	.st59{opacity:0.6;}
	.st60{fill:#F9D087;}
	.st61{fill:#A5856D;}
	.st62{fill:#5C4533;}
	.st63{fill:#9A795F;}
	.st64{fill:#512A1B;}
	.st65{fill:#492418;}
	.st66{fill:#BE630E;}
	.st67{fill:none;}
	.st68{opacity:0.5;fill:#E18823;}
	.st69{opacity:0.1;fill:#FFFFFF;}
	.st70{fill:#FCCB7C;}
	.st71{opacity:0.15;fill:#FFFFFF;}
	.st72{opacity:0.2;fill:#FFFFFF;}
	.st73{opacity:0.5;fill:#CBD6E0;}
</style>
<g>
	<g>
		<g>
			<rect x="3.4" y="24.1" class="st1" width="25.7" height="2.2"/>
		</g>
		<g>
			<rect x="3.4" y="13.2" class="st21" width="25.8" height="12.1"/>
		</g>
		<g class="st56">
			<polygon class="st20" points="6.6,13.2 3.4,23 3.4,24.7 7.2,13.2 			"/>
			<polygon class="st20" points="7.7,13.2 3.7,25.3 6.3,25.3 10.3,13.2 			"/>
			<polygon class="st20" points="24.9,13.2 20.9,25.3 21.8,25.3 25.8,13.2 			"/>
			<polygon class="st20" points="26.2,13.2 22.2,25.3 24.9,25.3 28.9,13.2 			"/>
		</g>
		<g>
			<rect x="1.3" y="10.5" class="st1" width="3.3" height="15.7"/>
		</g>
		<g>
			<rect x="10.1" y="8.4" class="st0" width="12.3" height="17.8"/>
			<g>
				<rect x="11.1" y="9.4" class="st21" width="10.4" height="15.9"/>
			</g>
		</g>
		<g>
			<path class="st4" d="M23.7,6.2v1.8c0,0.3-0.2,0.5-0.5,0.5H9.4C9.2,8.4,9,8.2,9,7.9V6.2c0-0.3,0.2-0.5,0.5-0.5h13.7
				C23.4,5.7,23.7,5.9,23.7,6.2z"/>
		</g>
		<g>
			<rect x="28.4" y="10.5" class="st1" width="3.3" height="15.7"/>
		</g>
		<g>
			<rect x="30.8" y="10.5" class="st0" width="0.9" height="15.7"/>
		</g>
		<g>
			<rect x="1.3" y="10.5" class="st27" width="0.9" height="15.7"/>
		</g>
		<g>
			<g>
				<rect x="11.1" y="10.4" class="st33" width="10.4" height="0.4"/>
			</g>
			<g>
				<rect x="11.1" y="11.6" class="st33" width="10.4" height="0.4"/>
			</g>
			<g>
				<rect x="11.1" y="12.9" class="st33" width="10.4" height="0.4"/>
			</g>
			<g>
				<rect x="11.1" y="14.1" class="st33" width="10.4" height="0.4"/>
			</g>
			<g>
				<rect x="11.1" y="15.3" class="st33" width="10.4" height="0.4"/>
			</g>
			<g>
				<rect x="11.1" y="16.5" class="st33" width="10.4" height="0.4"/>
			</g>
			<g>
				<rect x="11.1" y="17.8" class="st33" width="10.4" height="0.4"/>
			</g>
			<g>
				<rect x="11.1" y="19" class="st33" width="10.4" height="0.4"/>
			</g>
			<g>
				<rect x="11.1" y="20.2" class="st33" width="10.4" height="0.4"/>
			</g>
			<g>
				<rect x="11.1" y="21.5" class="st33" width="10.4" height="0.4"/>
			</g>
			<g>
				<rect x="11.1" y="22.7" class="st33" width="10.4" height="0.4"/>
			</g>
			<g>
				<rect x="11.1" y="23.9" class="st33" width="10.4" height="0.4"/>
			</g>
		</g>
		<g class="st56">
			<polygon class="st20" points="11.1,19.6 11.1,23.9 15.9,9.4 14.5,9.4 			"/>
			<polygon class="st20" points="11.6,25.3 13.3,25.3 18.6,9.4 16.9,9.4 			"/>
			<polygon class="st20" points="15,25.3 20.2,9.4 19.8,9.4 14.6,25.3 			"/>
			<polygon class="st20" points="15.4,25.3 17.3,25.3 21.5,12.5 21.5,9.4 20.7,9.4 			"/>
		</g>
		<g>
			<path class="st20" d="M10.3,7.2l0.2,0c0,0.1,0,0.1,0.1,0.2c0,0,0.1,0,0.2,0c0.1,0,0.1,0,0.2,0c0,0,0.1-0.1,0.1-0.1c0,0,0,0,0-0.1
				c0,0,0,0-0.1,0c0,0-0.1,0-0.2,0c-0.1,0-0.2-0.1-0.2-0.1c-0.1-0.1-0.1-0.1-0.1-0.2c0-0.1,0-0.1,0-0.1c0,0,0.1-0.1,0.1-0.1
				s0.1,0,0.2,0c0.1,0,0.2,0,0.3,0.1c0.1,0.1,0.1,0.1,0.1,0.2l-0.2,0c0-0.1,0-0.1-0.1-0.1c0,0-0.1,0-0.1,0c-0.1,0-0.1,0-0.1,0
				c0,0,0,0,0,0.1c0,0,0,0,0,0.1c0,0,0.1,0,0.2,0.1S11,7,11,7c0,0,0.1,0.1,0.1,0.1c0,0,0,0.1,0,0.2c0,0.1,0,0.1,0,0.2
				c0,0.1-0.1,0.1-0.1,0.1c-0.1,0-0.1,0-0.2,0c-0.1,0-0.2,0-0.3-0.1C10.4,7.4,10.3,7.4,10.3,7.2z"/>
			<path class="st20" d="M11.3,7.6v-1h0.2v0.4H12V6.5h0.2v1H12V7.1h-0.4v0.5H11.3z"/>
			<path class="st20" d="M12.3,7.1c0-0.1,0-0.2,0-0.3c0-0.1,0.1-0.1,0.1-0.1c0,0,0.1-0.1,0.1-0.1c0.1,0,0.1,0,0.2,0
				c0.2,0,0.3,0,0.4,0.1c0.1,0.1,0.1,0.2,0.1,0.4c0,0.2,0,0.3-0.1,0.4c-0.1,0.1-0.2,0.1-0.4,0.1c-0.2,0-0.3,0-0.4-0.1
				C12.4,7.4,12.3,7.2,12.3,7.1z M12.6,7.1c0,0.1,0,0.2,0.1,0.3s0.1,0.1,0.2,0.1s0.2,0,0.2-0.1s0.1-0.2,0.1-0.3c0-0.1,0-0.2-0.1-0.3
				c-0.1-0.1-0.1-0.1-0.2-0.1c-0.1,0-0.2,0-0.2,0.1S12.6,6.9,12.6,7.1z"/>
			<path class="st20" d="M13.5,7.6v-1h0.3c0.1,0,0.2,0,0.2,0c0.1,0,0.1,0,0.1,0.1c0,0.1,0.1,0.1,0.1,0.2c0,0.1,0,0.1,0,0.2
				s-0.1,0.1-0.1,0.1c0,0-0.1,0-0.1,0c0,0-0.1,0-0.2,0h-0.1v0.4H13.5z M13.7,6.7V7h0.1C13.9,7,14,7,14,7s0,0,0.1-0.1c0,0,0,0,0-0.1
				c0,0,0-0.1,0-0.1c0,0-0.1,0-0.1,0c0,0-0.1,0-0.2,0H13.7z"/>
			<path class="st20" d="M14.5,7.6v-1h0.3c0.1,0,0.2,0,0.2,0c0.1,0,0.1,0,0.1,0.1c0,0.1,0.1,0.1,0.1,0.2c0,0.1,0,0.1,0,0.2
				s-0.1,0.1-0.1,0.1c0,0-0.1,0-0.1,0c0,0-0.1,0-0.2,0h-0.1v0.4H14.5z M14.7,6.7V7h0.1c0.1,0,0.1,0,0.2,0s0,0,0.1-0.1c0,0,0,0,0-0.1
				c0,0,0-0.1,0-0.1s-0.1,0-0.1,0c0,0-0.1,0-0.2,0H14.7z"/>
			<path class="st20" d="M15.4,7.6v-1h0.2v1H15.4z"/>
			<path class="st20" d="M15.8,7.6v-1h0.2l0.4,0.7V6.5h0.2v1h-0.2L16,6.9v0.7H15.8z"/>
			<path class="st20" d="M17.4,7.2V7h0.5v0.4c0,0-0.1,0.1-0.2,0.1c-0.1,0-0.2,0-0.3,0c-0.1,0-0.2,0-0.3-0.1c-0.1,0-0.1-0.1-0.2-0.2
				c0-0.1-0.1-0.2-0.1-0.3c0-0.1,0-0.2,0.1-0.3c0-0.1,0.1-0.1,0.2-0.2c0.1,0,0.1-0.1,0.2-0.1c0.1,0,0.2,0,0.3,0.1
				c0.1,0.1,0.1,0.1,0.1,0.2l-0.2,0c0-0.1,0-0.1-0.1-0.1c0,0-0.1,0-0.2,0c-0.1,0-0.2,0-0.2,0.1c-0.1,0.1-0.1,0.1-0.1,0.3
				c0,0.1,0,0.2,0.1,0.3s0.1,0.1,0.2,0.1c0,0,0.1,0,0.1,0c0,0,0.1,0,0.1-0.1V7.2H17.4z"/>
			<path class="st20" d="M18.4,7.6v-1h0.3l0.2,0.7l0.2-0.7h0.3v1h-0.2V6.8L19,7.6h-0.2l-0.2-0.8v0.8H18.4z"/>
			<path class="st20" d="M20.6,7.6h-0.2l-0.1-0.2h-0.4l-0.1,0.2h-0.2l0.4-1h0.2L20.6,7.6z M20.2,7.2L20,6.8l-0.1,0.4H20.2z"/>
			<path class="st20" d="M20.7,7.6v-1h0.2v0.9h0.5v0.2H20.7z"/>
			<path class="st20" d="M21.6,7.6v-1h0.2v0.9h0.5v0.2H21.6z"/>
		</g>
		<g>
			<rect x="0.5" y="26.3" class="st7" width="32" height="1"/>
		</g>
	</g>
	<g>
		<polygon class="st23" points="19.8,26.3 12.8,26.3 12.4,19.7 20.2,19.7 		"/>
	</g>
	<g>
		<rect x="13.9" y="21.2" class="st34" width="4.7" height="5.1"/>
	</g>
	<g>
		<rect x="14.4" y="21.8" class="st32" width="1.8" height="4.4"/>
		<rect x="16.4" y="21.8" class="st32" width="1.8" height="4.4"/>
	</g>
	<g class="st56">
		<polygon class="st20" points="16.2,23 15.1,26.3 16.2,26.3 		"/>
	</g>
	<g class="st56">
		<polygon class="st20" points="16.2,22.2 16.2,21.8 15.7,21.8 14.4,25.9 14.4,26.3 14.8,26.3 		"/>
		<polygon class="st20" points="16.6,21.8 16.4,22.2 16.4,26.3 16.7,26.3 18.1,21.8 		"/>
	</g>
</g>
</svg>
