<?xml version="1.0" encoding="utf-8"?>
<!-- Generator: Adobe Illustrator 21.1.0, SVG Export Plug-In . SVG Version: 6.00 Build 0)  -->
<svg version="1.1" id="Layer_1" xmlns="http://www.w3.org/2000/svg" xmlns:xlink="http://www.w3.org/1999/xlink" x="0px" y="0px"
	 viewBox="0 0 33 33" style="enable-background:new 0 0 33 33;" xml:space="preserve">
<style type="text/css">
	.st0{fill:#DAE5EF;}
	.st1{fill:#CBD6E0;}
	.st2{fill:#D03F3F;}
	.st3{fill:#BF3333;}
	.st4{fill:#E24B4B;}
	.st5{fill:#6D4135;}
	.st6{fill:#5B331D;}
	.st7{fill:#3E4347;}
	.st8{fill:#4E99D2;}
	.st9{fill:#65B1EF;}
	.st10{fill:#FFDC97;}
	.st11{fill:#FFCD7D;}
	.st12{fill:#FFE9AB;}
	.st13{fill:#31373A;}
	.st14{fill:#8CC63E;}
	.st15{fill:#FFD93B;}
	.st16{fill:#F4C534;}
	.st17{fill:#59A5E0;}
	.st18{fill:#DEE4E9;}
	.st19{fill:#D3D9DD;}
	.st20{fill:#FFFFFF;}
	.st21{fill:#2AB4CD;}
	.st22{fill:#1DA9BF;}
	.st23{fill:#E9EFF4;}
	.st24{fill:#7FB239;}
	.st25{fill:#719D34;}
	.st26{opacity:0.5;}
	.st27{fill:#BBC7D1;}
	.st28{fill:#E84D88;}
	.st29{fill:#D23F77;}
	.st30{fill:#633B2A;}
	.st31{fill:#E9B02C;}
	.st32{fill:#38C0DC;}
	.st33{fill:#45CBEA;}
	.st34{fill:#5A5F63;}
	.st35{fill:#E18823;}
	.st36{fill:#CF7519;}
	.st37{fill:#428DC3;}
	.st38{fill:#8D9BA3;}
	.st39{fill:#7B8B92;}
	.st40{fill:#ACB9C1;}
	.st41{fill:#846144;}
	.st42{fill:#7A5B44;}
	.st43{fill:#6B503B;}
	.st44{fill:#F29A2E;}
	.st45{fill:#728389;}
	.st46{fill:#FFD68D;}
	.st47{fill:#8F6D52;}
	.st48{fill:#84939A;}
	.st49{opacity:0.1;}
	.st50{fill:#89664C;}
	.st51{opacity:0.15;}
	.st52{fill:#DE9C25;}
	.st53{fill:#2AB4CD;stroke:#FFFFFF;stroke-width:0.5;stroke-linecap:round;stroke-linejoin:round;stroke-miterlimit:10;}
	.st54{fill:#FC97B2;}
	.st55{fill:#E88EA7;}
	.st56{opacity:0.2;}
	.st57{fill:#BB3166;}
	.st58{opacity:0.35;}
	.st59{opacity:0.6;}
	.st60{fill:#F9D087;}
	.st61{fill:#A5856D;}
	.st62{fill:#5C4533;}
	.st63{fill:#9A795F;}
	.st64{fill:#512A1B;}
	.st65{fill:#492418;}
	.st66{fill:#BE630E;}
	.st67{fill:none;}
	.st68{opacity:0.5;fill:#E18823;}
	.st69{opacity:0.1;fill:#FFFFFF;}
	.st70{fill:#FCCB7C;}
	.st71{opacity:0.15;fill:#FFFFFF;}
	.st72{opacity:0.2;fill:#FFFFFF;}
	.st73{opacity:0.5;fill:#CBD6E0;}
</style>
<g>
	<g>
		<rect x="2" y="12.9" class="st0" width="29" height="17.4"/>
	</g>
	<g>
		<rect x="2" y="28.1" class="st27" width="29" height="2.1"/>
	</g>
	<g>
		<polygon class="st1" points="31,14.5 31,12.9 2,12.9 		"/>
	</g>
	<g>
		<path class="st14" d="M32.5,9.5v2.7c0,0.3-0.3,0.6-0.6,0.6H1.1c-0.3,0-0.6-0.3-0.6-0.6V9.5c0-0.4,0.3-0.6,0.6-0.6h30.7
			C32.2,8.9,32.5,9.1,32.5,9.5z"/>
	</g>
	<g>
		<g>
			<path class="st20" d="M14.8,15.3v11.2c0,0.2-0.2,0.4-0.4,0.4h-10c-0.2,0-0.4-0.2-0.4-0.4V15.3C4,15.1,4.2,15,4.4,15h10
				C14.6,15,14.8,15.1,14.8,15.3z"/>
			<g>
				<rect x="4.7" y="15.6" class="st32" width="9.4" height="10.6"/>
			</g>
			<g>
				<path class="st21" d="M11.3,15.6c0.2,4.9-2.5,8.1-6.7,10.6h9.4V15.6H11.3z"/>
			</g>
		</g>
		<g>
			<rect x="9" y="15.3" class="st20" width="0.7" height="11.2"/>
		</g>
		<g>
			<rect x="4.4" y="20.6" class="st20" width="10" height="0.7"/>
		</g>
	</g>
	<g>
		<circle class="st23" cx="16.5" cy="6.9" r="4.1"/>
	</g>
	<g>
		<path class="st4" d="M18.9,6.9L18.9,6.9c0,0.3-0.2,0.5-0.5,0.5H17v1.5c0,0.3-0.2,0.5-0.5,0.5c-0.1,0-0.3-0.1-0.3-0.1
			C16.1,9.1,16,9,16,8.9V7.4h-1.5c-0.3,0-0.5-0.2-0.5-0.5v0c0-0.3,0.2-0.5,0.5-0.5H16V5c0-0.3,0.2-0.5,0.5-0.5
			c0.1,0,0.3,0.1,0.3,0.1C16.9,4.8,17,4.9,17,5v1.5h1.5C18.7,6.5,18.9,6.7,18.9,6.9z"/>
	</g>
	<g>
		<rect x="17.3" y="15.7" class="st34" width="12.1" height="14.5"/>
	</g>
	<g>
		<g>
			<rect x="18.3" y="18.8" class="st23" width="10.1" height="11.4"/>
		</g>
	</g>
	<g>
		<g>
			<rect x="18.9" y="20.3" class="st32" width="4.1" height="9.9"/>
		</g>
		<g class="st56">
			<polygon class="st20" points="19.1,30.2 19.6,30.2 20.9,20.3 20.4,20.3 			"/>
			<polygon class="st20" points="20.2,30.2 21.6,30.2 22.9,20.3 21.6,20.3 			"/>
		</g>
	</g>
	<g>
		<g>
			<rect x="23.7" y="20.3" class="st32" width="4.1" height="9.9"/>
		</g>
		<g class="st56">
			<polygon class="st20" points="23.8,30.2 24.3,30.2 25.6,20.3 25.1,20.3 			"/>
			<polygon class="st20" points="24.9,30.2 26.3,30.2 27.6,20.3 26.3,20.3 			"/>
		</g>
	</g>
</g>
</svg>
