<?xml version="1.0" encoding="utf-8"?>
<!-- Generator: Adobe Illustrator 21.1.0, SVG Export Plug-In . SVG Version: 6.00 Build 0)  -->
<svg version="1.1" id="Layer_1" xmlns="http://www.w3.org/2000/svg" xmlns:xlink="http://www.w3.org/1999/xlink" x="0px" y="0px"
	 viewBox="0 0 33 33" style="enable-background:new 0 0 33 33;" xml:space="preserve">
<style type="text/css">
	.st0{fill:#DAE5EF;}
	.st1{fill:#CBD6E0;}
	.st2{fill:#D03F3F;}
	.st3{fill:#BF3333;}
	.st4{fill:#E24B4B;}
	.st5{fill:#6D4135;}
	.st6{fill:#5B331D;}
	.st7{fill:#3E4347;}
	.st8{fill:#4E99D2;}
	.st9{fill:#65B1EF;}
	.st10{fill:#FFDC97;}
	.st11{fill:#FFCD7D;}
	.st12{fill:#FFE9AB;}
	.st13{fill:#31373A;}
	.st14{fill:#8CC63E;}
	.st15{fill:#FFD93B;}
	.st16{fill:#F4C534;}
	.st17{fill:#59A5E0;}
	.st18{fill:#DEE4E9;}
	.st19{fill:#D3D9DD;}
	.st20{fill:#FFFFFF;}
	.st21{fill:#2AB4CD;}
	.st22{fill:#1DA9BF;}
	.st23{fill:#E9EFF4;}
	.st24{fill:#7FB239;}
	.st25{fill:#719D34;}
	.st26{opacity:0.5;}
	.st27{fill:#BBC7D1;}
	.st28{fill:#E84D88;}
	.st29{fill:#D23F77;}
	.st30{fill:#633B2A;}
	.st31{fill:#E9B02C;}
	.st32{fill:#38C0DC;}
	.st33{fill:#45CBEA;}
	.st34{fill:#5A5F63;}
	.st35{fill:#E18823;}
	.st36{fill:#CF7519;}
	.st37{fill:#428DC3;}
	.st38{fill:#8D9BA3;}
	.st39{fill:#7B8B92;}
	.st40{fill:#ACB9C1;}
	.st41{fill:#846144;}
	.st42{fill:#7A5B44;}
	.st43{fill:#6B503B;}
	.st44{fill:#F29A2E;}
	.st45{fill:#728389;}
	.st46{fill:#FFD68D;}
	.st47{fill:#8F6D52;}
	.st48{fill:#84939A;}
	.st49{opacity:0.1;}
	.st50{fill:#89664C;}
	.st51{opacity:0.15;}
	.st52{fill:#DE9C25;}
	.st53{fill:#2AB4CD;stroke:#FFFFFF;stroke-width:0.5;stroke-linecap:round;stroke-linejoin:round;stroke-miterlimit:10;}
	.st54{fill:#FC97B2;}
	.st55{fill:#E88EA7;}
	.st56{opacity:0.2;}
	.st57{fill:#BB3166;}
	.st58{opacity:0.35;}
	.st59{opacity:0.6;}
	.st60{fill:#F9D087;}
	.st61{fill:#A5856D;}
	.st62{fill:#5C4533;}
	.st63{fill:#9A795F;}
	.st64{fill:#512A1B;}
	.st65{fill:#492418;}
	.st66{fill:#BE630E;}
	.st67{fill:none;}
	.st68{opacity:0.5;fill:#E18823;}
	.st69{opacity:0.1;fill:#FFFFFF;}
	.st70{fill:#FCCB7C;}
	.st71{opacity:0.15;fill:#FFFFFF;}
	.st72{opacity:0.2;fill:#FFFFFF;}
	.st73{opacity:0.5;fill:#CBD6E0;}
</style>
<g>
	<g>
		<g>
			<g>
				<path class="st4" d="M16.5,0.5c-3.7,0-6.7,3-6.7,6.7h13.3C23.2,3.5,20.2,0.5,16.5,0.5z"/>
			</g>
			<g>
				<path class="st2" d="M23.2,7.2H9.8c0-0.4,0-0.7,0.1-1C11,6.1,12.3,6,13.9,5.8c3.6-0.4,6.6-1.4,7.6-3.1
					C22.5,3.9,23.2,5.4,23.2,7.2z"/>
			</g>
		</g>
		<g>
			<rect x="2.1" y="11.9" class="st8" width="28.8" height="18.6"/>
		</g>
		<g>
			<rect x="1.1" y="29.7" class="st34" width="30.8" height="2.8"/>
		</g>
		<g>
			<rect x="0.5" y="9.7" class="st17" width="32" height="3"/>
		</g>
		<g>
			<g>
				<g>
					<g>
						<g>
							<rect x="1.6" y="13.1" class="st1" width="1.9" height="16.1"/>
						</g>
					</g>
				</g>
				<g>
					<path class="st0" d="M4,13.1c0,0.2-0.2,0.4-0.4,0.4H1.6c-0.2,0-0.4-0.2-0.4-0.4s0.2-0.4,0.4-0.4h1.9C3.8,12.7,4,12.9,4,13.1z"
						/>
					<path class="st0" d="M4,29.3c0,0.2-0.2,0.4-0.4,0.4H1.6c-0.2,0-0.4-0.2-0.4-0.4s0.2-0.4,0.4-0.4h1.9C3.8,28.8,4,29,4,29.3z"/>
				</g>
			</g>
			<g>
				<g>
					<g>
						<g>
							<rect x="29.5" y="13.1" class="st1" width="1.9" height="16.1"/>
						</g>
					</g>
				</g>
				<g>
					<path class="st0" d="M31.9,13.1c0,0.2-0.2,0.4-0.4,0.4h-1.9c-0.2,0-0.4-0.2-0.4-0.4s0.2-0.4,0.4-0.4h1.9
						C31.7,12.7,31.9,12.9,31.9,13.1z"/>
					<path class="st0" d="M31.9,29.3c0,0.2-0.2,0.4-0.4,0.4h-1.9c-0.2,0-0.4-0.2-0.4-0.4s0.2-0.4,0.4-0.4h1.9
						C31.7,28.8,31.9,29,31.9,29.3z"/>
				</g>
			</g>
		</g>
		<g>
			<rect x="9.5" y="7.2" class="st9" width="14.1" height="8"/>
		</g>
		<g>
			<path class="st0" d="M23.6,8.1H9.4c-0.4,0-0.7-0.3-0.7-0.7v0c0-0.4,0.3-0.7,0.7-0.7h14.3c0.4,0,0.7,0.3,0.7,0.7v0
				C24.4,7.8,24.1,8.1,23.6,8.1z"/>
		</g>
		<g>
			<path class="st0" d="M23.9,15.6H9.6c-0.4,0-0.7-0.3-0.7-0.7v0c0-0.4,0.3-0.7,0.7-0.7h14.3c0.4,0,0.7,0.3,0.7,0.7v0
				C24.6,15.2,24.3,15.6,23.9,15.6z"/>
		</g>
		<g>
			<g>
				<g>
					<g>
						<g>
							<g>
								<rect x="21.1" y="16" class="st1" width="1.9" height="13.3"/>
							</g>
						</g>
					</g>
					<g>
						<path class="st0" d="M23.5,16c0,0.2-0.2,0.4-0.4,0.4h-1.9c-0.2,0-0.4-0.2-0.4-0.4s0.2-0.4,0.4-0.4h1.9
							C23.3,15.6,23.5,15.8,23.5,16z"/>
						<path class="st0" d="M23.5,29.3c0,0.2-0.2,0.4-0.4,0.4h-1.9c-0.2,0-0.4-0.2-0.4-0.4s0.2-0.4,0.4-0.4h1.9
							C23.3,28.8,23.5,29,23.5,29.3z"/>
					</g>
				</g>
			</g>
			<g>
				<g>
					<g>
						<g>
							<g>
								<rect x="9.9" y="16" class="st1" width="1.9" height="13.3"/>
							</g>
						</g>
					</g>
					<g>
						<path class="st0" d="M12.3,16c0,0.2-0.2,0.4-0.4,0.4H9.9c-0.2,0-0.4-0.2-0.4-0.4s0.2-0.4,0.4-0.4h1.9
							C12.1,15.6,12.3,15.8,12.3,16z"/>
						<path class="st0" d="M12.3,29.3c0,0.2-0.2,0.4-0.4,0.4H9.9c-0.2,0-0.4-0.2-0.4-0.4s0.2-0.4,0.4-0.4h1.9
							C12.1,28.8,12.3,29,12.3,29.3z"/>
					</g>
				</g>
			</g>
		</g>
		<g>
			<rect x="12.7" y="18.1" class="st37" width="7.6" height="11.6"/>
		</g>
		<g>
			<path class="st7" d="M19.1,23.4v6.3h-5.2v-6.3c0-1.4,1.2-2.6,2.6-2.6c0.7,0,1.4,0.3,1.8,0.8C18.8,22,19.1,22.7,19.1,23.4z"/>
		</g>
		<g>
			<g>
				<g>
					<path class="st20" d="M10.7,9.3C10.7,9.1,10.8,9,11,9H22c0.1,0,0.2,0,0.2,0.1c0.1,0.1,0.1,0.1,0.1,0.2c0,0.2-0.1,0.3-0.3,0.3
						H11C10.8,9.6,10.7,9.5,10.7,9.3z"/>
					<path class="st20" d="M22.3,12.8c0.1,0.1,0.1,0.1,0.1,0.2c0,0.2-0.1,0.3-0.3,0.3H11c-0.2,0-0.3-0.1-0.3-0.3
						c0-0.2,0.1-0.3,0.3-0.3H22C22.1,12.7,22.2,12.7,22.3,12.8z"/>
				</g>
			</g>
		</g>
		<g>
			<path class="st20" d="M11.2,12v-1.8h0.5l0.3,1.2l0.3-1.2h0.5V12h-0.3v-1.4L12.2,12h-0.3l-0.3-1.4V12H11.2z"/>
			<path class="st20" d="M13.3,10.3h0.4v1c0,0.2,0,0.2,0,0.3c0,0.1,0.1,0.1,0.1,0.2c0.1,0,0.1,0.1,0.2,0.1c0.1,0,0.2,0,0.2-0.1
				c0.1,0,0.1-0.1,0.1-0.2c0-0.1,0-0.2,0-0.3v-1h0.4v0.9c0,0.2,0,0.4,0,0.4s-0.1,0.2-0.1,0.2c-0.1,0.1-0.1,0.1-0.2,0.1
				c-0.1,0-0.2,0.1-0.3,0.1c-0.2,0-0.3,0-0.4-0.1c-0.1,0-0.2-0.1-0.2-0.2c-0.1-0.1-0.1-0.1-0.1-0.2c0-0.1,0-0.2,0-0.4V10.3z"/>
			<path class="st20" d="M15,11.5l0.3,0c0,0.1,0.1,0.2,0.1,0.3c0.1,0.1,0.1,0.1,0.3,0.1c0.1,0,0.2,0,0.3-0.1c0.1,0,0.1-0.1,0.1-0.2
				c0,0,0-0.1,0-0.1c0,0-0.1-0.1-0.1-0.1c0,0-0.1,0-0.3-0.1c-0.2,0-0.3-0.1-0.4-0.2C15.1,11,15,10.9,15,10.7c0-0.1,0-0.2,0.1-0.3
				c0.1-0.1,0.1-0.1,0.2-0.2c0.1,0,0.2-0.1,0.3-0.1c0.2,0,0.4,0,0.5,0.1c0.1,0.1,0.2,0.2,0.2,0.4l-0.4,0c0-0.1,0-0.2-0.1-0.2
				c-0.1,0-0.1-0.1-0.2-0.1c-0.1,0-0.2,0-0.2,0.1c0,0-0.1,0.1-0.1,0.1c0,0,0,0.1,0.1,0.1c0,0,0.2,0.1,0.3,0.1c0.2,0,0.3,0.1,0.4,0.1
				c0.1,0,0.1,0.1,0.2,0.2c0,0.1,0.1,0.2,0.1,0.3c0,0.1,0,0.2-0.1,0.3c-0.1,0.1-0.1,0.2-0.2,0.2c-0.1,0-0.2,0.1-0.4,0.1
				c-0.2,0-0.4-0.1-0.5-0.2C15,11.8,15,11.7,15,11.5z"/>
			<path class="st20" d="M16.7,12v-1.8H18v0.3H17V11h0.9v0.3H17v0.5h1V12H16.7z"/>
			<path class="st20" d="M18.3,10.3h0.4v1c0,0.2,0,0.2,0,0.3c0,0.1,0.1,0.1,0.1,0.2c0.1,0,0.1,0.1,0.2,0.1c0.1,0,0.2,0,0.2-0.1
				c0.1,0,0.1-0.1,0.1-0.2c0-0.1,0-0.2,0-0.3v-1h0.4v0.9c0,0.2,0,0.4,0,0.4s-0.1,0.2-0.1,0.2c-0.1,0.1-0.1,0.1-0.2,0.1
				c-0.1,0-0.2,0.1-0.3,0.1c-0.2,0-0.3,0-0.4-0.1c-0.1,0-0.2-0.1-0.2-0.2c-0.1-0.1-0.1-0.1-0.1-0.2c0-0.1,0-0.2,0-0.4V10.3z"/>
			<path class="st20" d="M20.1,12v-1.8h0.5l0.3,1.2l0.3-1.2h0.5V12h-0.3v-1.4L21.1,12h-0.3l-0.3-1.4V12H20.1z"/>
		</g>
	</g>
	<g>
		<g>
			<g>
				<g>
					<path class="st9" d="M5.4,20c-0.1,0-0.1-0.1-0.1-0.1v-2.8c0-0.7,0.5-1.3,1.1-1.4c0.1,0,0.2,0,0.2,0C7.4,15.7,8,16.3,8,17v2.9
						C8,20,7.9,20,7.8,20H5.4z"/>
					<path class="st20" d="M6.6,15.9c0.6,0,1.2,0.5,1.2,1.2v2.8H5.5v-2.7c0-0.6,0.4-1.1,0.9-1.2C6.5,15.9,6.5,15.9,6.6,15.9
						 M6.6,15.5c-0.1,0-0.2,0-0.3,0c-0.8,0.1-1.3,0.9-1.3,1.6v2.8c0,0.2,0.1,0.3,0.3,0.3h2.5c0.2,0,0.3-0.2,0.3-0.3V17
						C8.2,16.2,7.5,15.5,6.6,15.5L6.6,15.5z"/>
				</g>
				<g>
					<path class="st9" d="M5.4,26.8c-0.1,0-0.1-0.1-0.1-0.1v-2.8c0-0.7,0.5-1.3,1.1-1.4c0.1,0,0.2,0,0.2,0C7.4,22.4,8,23,8,23.7v2.9
						c0,0.1,0,0.1-0.1,0.1H5.4z"/>
					<path class="st20" d="M6.6,22.6c0.6,0,1.2,0.5,1.2,1.1v2.8H5.5v-2.7c0-0.6,0.4-1.1,0.9-1.2C6.5,22.6,6.5,22.6,6.6,22.6
						 M6.6,22.2c-0.1,0-0.2,0-0.3,0c-0.8,0.1-1.3,0.9-1.3,1.6v2.8c0,0.2,0.1,0.3,0.3,0.3h2.5c0.2,0,0.3-0.1,0.3-0.3v-2.9
						C8.2,22.9,7.5,22.2,6.6,22.2L6.6,22.2z"/>
				</g>
			</g>
		</g>
		<g>
			<g>
				<g>
					<path class="st9" d="M25.2,20C25.1,20,25,20,25,19.9v-2.8c0-0.7,0.5-1.3,1.1-1.4c0.1,0,0.2,0,0.2,0c0.7,0,1.4,0.6,1.4,1.4v2.9
						c0,0.1,0,0.1-0.1,0.1H25.2z"/>
					<path class="st20" d="M26.4,15.9c0.6,0,1.2,0.5,1.2,1.2v2.8h-2.3v-2.7c0-0.6,0.4-1.1,0.9-1.2C26.3,15.9,26.3,15.9,26.4,15.9
						 M26.4,15.5c-0.1,0-0.2,0-0.3,0c-0.8,0.1-1.3,0.9-1.3,1.6v2.8c0,0.2,0.1,0.3,0.3,0.3h2.5c0.2,0,0.3-0.2,0.3-0.3V17
						C27.9,16.2,27.2,15.5,26.4,15.5L26.4,15.5z"/>
				</g>
				<g>
					<path class="st9" d="M25.2,26.8c-0.1,0-0.1-0.1-0.1-0.1v-2.8c0-0.7,0.5-1.3,1.1-1.4c0.1,0,0.2,0,0.2,0c0.7,0,1.4,0.6,1.4,1.3
						v2.9c0,0.1,0,0.1-0.1,0.1H25.2z"/>
					<path class="st20" d="M26.4,22.6c0.6,0,1.2,0.5,1.2,1.1v2.8h-2.3v-2.7c0-0.6,0.4-1.1,0.9-1.2C26.3,22.6,26.3,22.6,26.4,22.6
						 M26.4,22.2c-0.1,0-0.2,0-0.3,0c-0.8,0.1-1.3,0.9-1.3,1.6v2.8c0,0.2,0.1,0.3,0.3,0.3h2.5c0.2,0,0.3-0.1,0.3-0.3v-2.9
						C27.9,22.9,27.2,22.2,26.4,22.2L26.4,22.2z"/>
				</g>
			</g>
		</g>
	</g>
</g>
</svg>
