<?xml version="1.0" encoding="utf-8"?>
<!-- Generator: Adobe Illustrator 21.1.0, SVG Export Plug-In . SVG Version: 6.00 Build 0)  -->
<svg version="1.1" id="Layer_1" xmlns="http://www.w3.org/2000/svg" xmlns:xlink="http://www.w3.org/1999/xlink" x="0px" y="0px"
	 viewBox="0 0 33 33" style="enable-background:new 0 0 33 33;" xml:space="preserve">
<style type="text/css">
	.st0{fill:#DAE5EF;}
	.st1{fill:#CBD6E0;}
	.st2{fill:#D03F3F;}
	.st3{fill:#BF3333;}
	.st4{fill:#E24B4B;}
	.st5{fill:#6D4135;}
	.st6{fill:#5B331D;}
	.st7{fill:#3E4347;}
	.st8{fill:#4E99D2;}
	.st9{fill:#65B1EF;}
	.st10{fill:#FFDC97;}
	.st11{fill:#FFCD7D;}
	.st12{fill:#FFE9AB;}
	.st13{fill:#31373A;}
	.st14{fill:#8CC63E;}
	.st15{fill:#FFD93B;}
	.st16{fill:#F4C534;}
	.st17{fill:#59A5E0;}
	.st18{fill:#DEE4E9;}
	.st19{fill:#D3D9DD;}
	.st20{fill:#FFFFFF;}
	.st21{fill:#2AB4CD;}
	.st22{fill:#1DA9BF;}
	.st23{fill:#E9EFF4;}
	.st24{fill:#7FB239;}
	.st25{fill:#719D34;}
	.st26{opacity:0.5;}
	.st27{fill:#BBC7D1;}
	.st28{fill:#E84D88;}
	.st29{fill:#D23F77;}
	.st30{fill:#633B2A;}
	.st31{fill:#E9B02C;}
	.st32{fill:#38C0DC;}
	.st33{fill:#45CBEA;}
	.st34{fill:#5A5F63;}
	.st35{fill:#E18823;}
	.st36{fill:#CF7519;}
	.st37{fill:#428DC3;}
	.st38{fill:#8D9BA3;}
	.st39{fill:#7B8B92;}
	.st40{fill:#ACB9C1;}
	.st41{fill:#846144;}
	.st42{fill:#7A5B44;}
	.st43{fill:#6B503B;}
	.st44{fill:#F29A2E;}
	.st45{fill:#728389;}
	.st46{fill:#FFD68D;}
	.st47{fill:#8F6D52;}
	.st48{fill:#84939A;}
	.st49{opacity:0.1;}
	.st50{fill:#89664C;}
	.st51{opacity:0.15;}
	.st52{fill:#DE9C25;}
	.st53{fill:#2AB4CD;stroke:#FFFFFF;stroke-width:0.5;stroke-linecap:round;stroke-linejoin:round;stroke-miterlimit:10;}
	.st54{fill:#FC97B2;}
	.st55{fill:#E88EA7;}
	.st56{opacity:0.2;}
	.st57{fill:#BB3166;}
	.st58{opacity:0.35;}
	.st59{opacity:0.6;}
	.st60{fill:#F9D087;}
	.st61{fill:#A5856D;}
	.st62{fill:#5C4533;}
	.st63{fill:#9A795F;}
	.st64{fill:#512A1B;}
	.st65{fill:#492418;}
	.st66{fill:#BE630E;}
	.st67{fill:none;}
	.st68{opacity:0.5;fill:#E18823;}
	.st69{opacity:0.1;fill:#FFFFFF;}
	.st70{fill:#FCCB7C;}
	.st71{opacity:0.15;fill:#FFFFFF;}
	.st72{opacity:0.2;fill:#FFFFFF;}
	.st73{opacity:0.5;fill:#CBD6E0;}
</style>
<g>
	<g>
		<g>
			<path class="st15" d="M11.5,2.4c0.3,0.4,0.6,0.9,0.9,1.5c-1.3-1-2.6,1-3.8,0V1.4c1.3,1,2.6-1,3.8,0C12.1,1.6,11.8,1.9,11.5,2.4z"
				/>
		</g>
		<g>
			<path class="st7" d="M8.7,1.2v5.6H8.1V1.2C8.1,0.8,8.7,0.8,8.7,1.2z"/>
		</g>
	</g>
	<g>
		<g>
			<g>
				<g>
					<rect x="4.1" y="11.4" class="st1" width="8.6" height="5.5"/>
				</g>
				<g>
					<g>
						<g>
							<rect x="5.4" y="12.5" class="st7" width="1.4" height="3.2"/>
						</g>
					</g>
					<g>
						<g>
							<rect x="7.7" y="12.5" class="st7" width="1.4" height="3.2"/>
						</g>
					</g>
					<g>
						<g>
							<rect x="10.1" y="12.5" class="st7" width="1.4" height="3.2"/>
						</g>
					</g>
				</g>
			</g>
			<g>
				<path class="st2" d="M3.8,10.7c0-2.6,2.1-4.6,4.6-4.6S13,8.2,13,10.7"/>
			</g>
			<g>
				<path class="st3" d="M8.4,6.1c-1.1,0-1.9,2.1-1.9,4.6H3.8C3.8,8.2,5.9,6.1,8.4,6.1z"/>
				<path class="st4" d="M13,10.7h-2.7c0-2.5-0.9-4.6-1.9-4.6C11,6.1,13,8.2,13,10.7z"/>
			</g>
			<g>
				<path class="st0" d="M13.7,11.1L13.7,11.1c0,0.3-0.3,0.6-0.6,0.6H3.7c-0.3,0-0.6-0.3-0.6-0.6v0c0-0.3,0.3-0.6,0.6-0.6h9.5
					C13.5,10.5,13.7,10.7,13.7,11.1z"/>
			</g>
		</g>
		<g>
			<g>
				<rect x="0.8" y="16.9" class="st2" width="31.5" height="2.3"/>
			</g>
			<g>
				<rect x="1.6" y="19.2" class="st1" width="29.8" height="11.8"/>
			</g>
			<g>
				<rect x="1.6" y="29.8" class="st27" width="29.8" height="1.2"/>
			</g>
			<g>
				<g>
					<polygon class="st23" points="12.9,20.6 12.9,31 3.9,31 3.9,20.6 5.1,20.6 8.4,15.5 11.7,20.6 					"/>
				</g>
			</g>
			<g>
				<g>
					<rect x="5.5" y="25.7" class="st7" width="2.2" height="5.3"/>
				</g>
				<g>
					<rect x="9.1" y="25.7" class="st7" width="2.2" height="5.3"/>
				</g>
			</g>
			<g>
				<circle class="st7" cx="8.4" cy="23.2" r="1.2"/>
			</g>
			<g>
				<g>
					<g>
						<rect x="16" y="20.9" class="st7" width="2.1" height="7"/>
					</g>
				</g>
				<g>
					<g>
						<rect x="19.7" y="20.9" class="st7" width="2.1" height="7"/>
					</g>
				</g>
				<g>
					<g>
						<rect x="23.4" y="20.9" class="st7" width="2.1" height="7"/>
					</g>
				</g>
				<g>
					<g>
						<rect x="27.1" y="20.9" class="st7" width="2.1" height="7"/>
					</g>
				</g>
			</g>
			<g>
				<path class="st14" d="M32.5,31.5c0,0.3-0.3,0.6-0.6,0.6H1.1c-0.3,0-0.6-0.3-0.6-0.6c0-0.3,0.3-0.6,0.6-0.6h30.8
					C32.2,30.9,32.5,31.2,32.5,31.5z"/>
			</g>
			<g>
				<g>
					<g>
						<path class="st4" d="M14.3,23.9c-0.4,0.3-1,0.1-1.2-0.3l-4.7-7.2l-4.6,7.2C3.5,24,3,24.2,2.6,23.9c-0.4-0.3-0.5-0.8-0.3-1.2
							l5.4-8.4c0.3-0.5,1.2-0.5,1.5,0l5.4,8.4C14.8,23.1,14.7,23.6,14.3,23.9z"/>
					</g>
				</g>
			</g>
		</g>
	</g>
</g>
</svg>
