<?xml version="1.0" encoding="utf-8"?>
<!-- Generator: Adobe Illustrator 21.1.0, SVG Export Plug-In . SVG Version: 6.00 Build 0)  -->
<svg version="1.1" id="Layer_1" xmlns="http://www.w3.org/2000/svg" xmlns:xlink="http://www.w3.org/1999/xlink" x="0px" y="0px"
	 viewBox="0 0 33 33" style="enable-background:new 0 0 33 33;" xml:space="preserve">
<style type="text/css">
	.st0{fill:#DAE5EF;}
	.st1{fill:#CBD6E0;}
	.st2{fill:#D03F3F;}
	.st3{fill:#BF3333;}
	.st4{fill:#E24B4B;}
	.st5{fill:#6D4135;}
	.st6{fill:#5B331D;}
	.st7{fill:#3E4347;}
	.st8{fill:#4E99D2;}
	.st9{fill:#65B1EF;}
	.st10{fill:#FFDC97;}
	.st11{fill:#FFCD7D;}
	.st12{fill:#FFE9AB;}
	.st13{fill:#31373A;}
	.st14{fill:#8CC63E;}
	.st15{fill:#FFD93B;}
	.st16{fill:#F4C534;}
	.st17{fill:#59A5E0;}
	.st18{fill:#DEE4E9;}
	.st19{fill:#D3D9DD;}
	.st20{fill:#FFFFFF;}
	.st21{fill:#2AB4CD;}
	.st22{fill:#1DA9BF;}
	.st23{fill:#E9EFF4;}
	.st24{fill:#7FB239;}
	.st25{fill:#719D34;}
	.st26{opacity:0.5;}
	.st27{fill:#BBC7D1;}
	.st28{fill:#E84D88;}
	.st29{fill:#D23F77;}
	.st30{fill:#633B2A;}
	.st31{fill:#E9B02C;}
	.st32{fill:#38C0DC;}
	.st33{fill:#45CBEA;}
	.st34{fill:#5A5F63;}
	.st35{fill:#E18823;}
	.st36{fill:#CF7519;}
	.st37{fill:#428DC3;}
	.st38{fill:#8D9BA3;}
	.st39{fill:#7B8B92;}
	.st40{fill:#ACB9C1;}
	.st41{fill:#846144;}
	.st42{fill:#7A5B44;}
	.st43{fill:#6B503B;}
	.st44{fill:#F29A2E;}
	.st45{fill:#728389;}
	.st46{fill:#FFD68D;}
	.st47{fill:#8F6D52;}
	.st48{fill:#84939A;}
	.st49{opacity:0.1;}
	.st50{fill:#89664C;}
	.st51{opacity:0.15;}
	.st52{fill:#DE9C25;}
	.st53{fill:#2AB4CD;stroke:#FFFFFF;stroke-width:0.5;stroke-linecap:round;stroke-linejoin:round;stroke-miterlimit:10;}
	.st54{fill:#FC97B2;}
	.st55{fill:#E88EA7;}
	.st56{opacity:0.2;}
	.st57{fill:#BB3166;}
	.st58{opacity:0.35;}
	.st59{opacity:0.6;}
	.st60{fill:#F9D087;}
	.st61{fill:#A5856D;}
	.st62{fill:#5C4533;}
	.st63{fill:#9A795F;}
	.st64{fill:#512A1B;}
	.st65{fill:#492418;}
	.st66{fill:#BE630E;}
	.st67{fill:none;}
	.st68{opacity:0.5;fill:#E18823;}
	.st69{opacity:0.1;fill:#FFFFFF;}
	.st70{fill:#FCCB7C;}
	.st71{opacity:0.15;fill:#FFFFFF;}
	.st72{opacity:0.2;fill:#FFFFFF;}
	.st73{opacity:0.5;fill:#CBD6E0;}
</style>
<g>
	<g>
		<rect x="6.8" y="14.9" class="st7" width="19.1" height="14"/>
	</g>
	<g>
		<g>
			<path class="st0" d="M29.4,14.3l-25.8,0c-0.8,0-1.1-1-0.5-1.5l12.7-12c0.4-0.4,1.1-0.4,1.5,0l12.7,12
				C30.6,13.3,30.2,14.3,29.4,14.3z"/>
			<g>
				<polygon class="st1" points="7.1,12 16.5,3 25.9,12 				"/>
			</g>
		</g>
		<g>
			<rect x="4.9" y="14.3" class="st1" width="23.1" height="1.7"/>
		</g>
	</g>
	<g>
		<g>
			<rect x="15.3" y="16.1" class="st0" width="2.5" height="11.4"/>
		</g>
		<g>
			<g>
				<g>
					<rect x="14.4" y="15.3" class="st1" width="4.3" height="1.7"/>
				</g>
			</g>
		</g>
		<g>
			<g>
				<g>
					
						<rect x="14.4" y="26.7" transform="matrix(-1 -1.570219e-05 1.570219e-05 -1 32.9989 55.1832)" class="st1" width="4.3" height="1.7"/>
				</g>
			</g>
		</g>
	</g>
	<g>
		<rect x="24.7" y="16.1" class="st0" width="2.5" height="11.4"/>
		<g>
			<g>
				<rect x="23.8" y="15.3" class="st1" width="4.3" height="1.7"/>
			</g>
		</g>
		<g>
			<g>
				
					<rect x="23.8" y="26.7" transform="matrix(-1 -1.570219e-05 1.570219e-05 -1 51.8112 55.1836)" class="st1" width="4.3" height="1.7"/>
			</g>
		</g>
	</g>
	<g>
		<rect x="5.9" y="16.1" class="st0" width="2.5" height="11.4"/>
		<g>
			<g>
				<rect x="4.9" y="15.3" class="st1" width="4.3" height="1.7"/>
			</g>
		</g>
		<g>
			<g>
				
					<rect x="4.9" y="26.7" transform="matrix(-1 -1.570219e-05 1.570219e-05 -1 14.1783 55.1828)" class="st1" width="4.3" height="1.7"/>
			</g>
		</g>
	</g>
	<g>
		<rect x="3.8" y="28.1" class="st27" width="25.5" height="2.2"/>
	</g>
	<g>
		<rect x="2.3" y="30.3" class="st1" width="28.5" height="2.2"/>
	</g>
</g>
</svg>
