<?xml version="1.0" encoding="utf-8"?>
<!-- Generator: Adobe Illustrator 21.1.0, SVG Export Plug-In . SVG Version: 6.00 Build 0)  -->
<svg version="1.1" id="Layer_1" xmlns="http://www.w3.org/2000/svg" xmlns:xlink="http://www.w3.org/1999/xlink" x="0px" y="0px"
	 viewBox="0 0 33 33" style="enable-background:new 0 0 33 33;" xml:space="preserve">
<style type="text/css">
	.st0{fill:#CBD6E0;}
	.st1{fill:#ACB9C1;}
	.st2{opacity:0.5;}
	.st3{fill:#BBC7D1;}
	.st4{fill:#DAE5EF;}
	.st5{fill:#FFD93B;}
	.st6{fill:#5A5F63;}
	.st7{fill:#2AB4CD;}
	.st8{fill:#1DA9BF;}
	.st9{fill:#38C0DC;}
	.st10{fill:#6D4135;}
	.st11{fill:#5B331D;}
	.st12{fill:#E24B4B;}
	.st13{fill:#E9EFF4;}
	.st14{fill:#DEE4E9;}
	.st15{fill:#FFFFFF;}
	.st16{fill:#428DC3;}
	.st17{fill:#9A795F;}
	.st18{fill:#846144;}
	.st19{fill:#3E4347;}
	.st20{fill:#89664C;}
	.st21{fill:#8F6D52;}
	.st22{fill:#633B2A;}
	.st23{fill:#4E99D2;}
	.st24{fill:#8CC63E;}
	.st25{fill:#65B1EF;}
	.st26{fill:#31373A;}
</style>
<g>
	<g>
		<rect x="1.5" y="11.8" class="st0" width="30.1" height="14.7"/>
	</g>
	<g>
		<rect x="1.5" y="23.9" class="st3" width="30.1" height="2.6"/>
	</g>
	<rect x="12" y="13.1" class="st6" width="9.1" height="11.6"/>
	<g>
		<path class="st12" d="M32.3,13.1H0.7c-0.1,0-0.3-0.2-0.2-0.3l0.6-1.5c0-0.1,0.2-0.2,0.3-0.2h30.3c0.1,0,0.3,0.1,0.3,0.2l0.5,1.5
			C32.5,12.9,32.4,13.1,32.3,13.1z"/>
	</g>
	<g>
		<path class="st13" d="M23.1,12.9c-0.1-3.6-3-6.4-6.6-6.4c-3.6,0-6.5,2.9-6.6,6.4H23.1z"/>
	</g>
	<g>
		<path class="st14" d="M23.1,12.9H9.9c0-0.5,0.1-1,0.2-1.5c1.1,0.4,2.3,0.6,3.6,0.6c3.5,0,6.4-1.4,7.6-3.4
			C22.4,9.8,23.1,11.3,23.1,12.9z"/>
	</g>
	<g>
		<path class="st15" d="M23.9,13.3c0,0.3-0.3,0.6-0.6,0.6H9.7C9.3,14,9,13.7,9,13.3c0-0.3,0.3-0.6,0.6-0.6h13.6
			C23.6,12.7,23.9,13,23.9,13.3z"/>
	</g>
	<g>
		<g>
			<rect x="9.2" y="25.2" class="st0" width="14.5" height="1.3"/>
		</g>
		<g>
			<rect x="10.3" y="23.9" class="st1" width="12.4" height="1.3"/>
		</g>
	</g>
	<g>
		<g>
			<g>
				<rect x="11.3" y="14.2" class="st14" width="1.3" height="8.4"/>
			</g>
			<g>
				<g>
					<path class="st13" d="M12.6,14.5h-1.3c-0.1,0-0.3-0.1-0.3-0.3l0,0c0-0.1,0.1-0.3,0.3-0.3h1.3c0.1,0,0.3,0.1,0.3,0.3l0,0
						C12.9,14.4,12.8,14.5,12.6,14.5z"/>
				</g>
			</g>
			<g>
				<g>
					<path class="st13" d="M11.3,21.5h1.3c0.1,0,0.3,0.1,0.3,0.3l0,0c0,0.1-0.1,0.3-0.3,0.3h-1.3c-0.1,0-0.3-0.1-0.3-0.3l0,0
						C11,21.6,11.2,21.5,11.3,21.5z"/>
				</g>
			</g>
			<g>
				<path class="st14" d="M13.3,22.4v1.5h-2.6v-1.5c0-0.2,0.2-0.4,0.4-0.4h1.8C13.1,22,13.3,22.2,13.3,22.4z"/>
			</g>
		</g>
		<g>
			<g>
				<rect x="15.8" y="14.2" class="st14" width="1.3" height="8.4"/>
			</g>
			<g>
				<g>
					<path class="st13" d="M17.1,14.5h-1.3c-0.1,0-0.3-0.1-0.3-0.3l0,0c0-0.1,0.1-0.3,0.3-0.3h1.3c0.1,0,0.3,0.1,0.3,0.3l0,0
						C17.4,14.4,17.3,14.5,17.1,14.5z"/>
				</g>
			</g>
			<g>
				<g>
					<path class="st13" d="M15.8,21.5h1.3c0.1,0,0.3,0.1,0.3,0.3l0,0c0,0.1-0.1,0.3-0.3,0.3h-1.3c-0.1,0-0.3-0.1-0.3-0.3l0,0
						C15.5,21.6,15.6,21.5,15.8,21.5z"/>
				</g>
			</g>
			<g>
				<path class="st14" d="M17.7,22.4v1.5h-2.6v-1.5c0-0.2,0.2-0.4,0.4-0.4h1.8C17.6,22,17.7,22.2,17.7,22.4z"/>
			</g>
		</g>
		<g>
			<g>
				<rect x="20.4" y="14.2" class="st14" width="1.3" height="8.4"/>
			</g>
			<g>
				<g>
					<path class="st13" d="M21.7,14.5h-1.3c-0.1,0-0.3-0.1-0.3-0.3l0,0c0-0.1,0.1-0.3,0.3-0.3h1.3c0.1,0,0.3,0.1,0.3,0.3l0,0
						C22,14.4,21.8,14.5,21.7,14.5z"/>
				</g>
			</g>
			<g>
				<g>
					<path class="st13" d="M20.4,21.5h1.3c0.1,0,0.3,0.1,0.3,0.3l0,0c0,0.1-0.1,0.3-0.3,0.3h-1.3c-0.1,0-0.3-0.1-0.3-0.3l0,0
						C20.1,21.6,20.2,21.5,20.4,21.5z"/>
				</g>
			</g>
			<g>
				<path class="st14" d="M22.3,22.4v1.5h-2.6v-1.5c0-0.2,0.2-0.4,0.4-0.4H22C22.2,22,22.3,22.2,22.3,22.4z"/>
			</g>
		</g>
	</g>
	<g>
		<g>
			<g>
				<g>
					<g>
						<g>
							<g>
								<path class="st16" d="M4.3,14.5v1.8c0,0.2-0.1,0.3-0.3,0.3H3c-0.2,0-0.3-0.1-0.3-0.3v-1.8c0-0.2,0.1-0.3,0.3-0.3h1
									C4.2,14.3,4.3,14.4,4.3,14.5z"/>
							</g>
						</g>
					</g>
				</g>
				<g>
					<g>
						<g>
							<g>
								<path class="st16" d="M6.6,14.5v1.8c0,0.2-0.1,0.3-0.3,0.3h-1c-0.2,0-0.3-0.1-0.3-0.3v-1.8c0-0.2,0.1-0.3,0.3-0.3h1
									C6.4,14.3,6.6,14.4,6.6,14.5z"/>
							</g>
						</g>
					</g>
				</g>
				<g>
					<g>
						<g>
							<g>
								<path class="st16" d="M8.8,14.5v1.8c0,0.2-0.1,0.3-0.3,0.3h-1c-0.2,0-0.3-0.1-0.3-0.3v-1.8c0-0.2,0.1-0.3,0.3-0.3h1
									C8.7,14.3,8.8,14.4,8.8,14.5z"/>
							</g>
						</g>
					</g>
				</g>
			</g>
			<g>
				<g>
					<g>
						<g>
							<g>
								<path class="st16" d="M4.3,17.6v1.8c0,0.2-0.1,0.3-0.3,0.3H3c-0.2,0-0.3-0.1-0.3-0.3v-1.8c0-0.2,0.1-0.3,0.3-0.3h1
									C4.2,17.3,4.3,17.5,4.3,17.6z"/>
							</g>
						</g>
					</g>
				</g>
				<g>
					<g>
						<g>
							<g>
								<path class="st16" d="M6.6,17.6v1.8c0,0.2-0.1,0.3-0.3,0.3h-1c-0.2,0-0.3-0.1-0.3-0.3v-1.8c0-0.2,0.1-0.3,0.3-0.3h1
									C6.4,17.3,6.6,17.5,6.6,17.6z"/>
							</g>
						</g>
					</g>
				</g>
				<g>
					<g>
						<g>
							<g>
								<path class="st16" d="M8.8,17.6v1.8c0,0.2-0.1,0.3-0.3,0.3h-1c-0.2,0-0.3-0.1-0.3-0.3v-1.8c0-0.2,0.1-0.3,0.3-0.3h1
									C8.7,17.3,8.8,17.5,8.8,17.6z"/>
							</g>
						</g>
					</g>
				</g>
			</g>
			<g>
				<g>
					<g>
						<g>
							<g>
								<path class="st16" d="M4.3,20.7v1.8c0,0.2-0.1,0.3-0.3,0.3H3c-0.2,0-0.3-0.1-0.3-0.3v-1.8c0-0.2,0.1-0.3,0.3-0.3h1
									C4.2,20.4,4.3,20.5,4.3,20.7z"/>
							</g>
						</g>
					</g>
				</g>
				<g>
					<g>
						<g>
							<g>
								<path class="st16" d="M6.6,20.7v1.8c0,0.2-0.1,0.3-0.3,0.3h-1c-0.2,0-0.3-0.1-0.3-0.3v-1.8c0-0.2,0.1-0.3,0.3-0.3h1
									C6.4,20.4,6.6,20.5,6.6,20.7z"/>
							</g>
						</g>
					</g>
				</g>
				<g>
					<g>
						<g>
							<g>
								<path class="st16" d="M8.8,20.7v1.8c0,0.2-0.1,0.3-0.3,0.3h-1c-0.2,0-0.3-0.1-0.3-0.3v-1.8c0-0.2,0.1-0.3,0.3-0.3h1
									C8.7,20.4,8.8,20.5,8.8,20.7z"/>
							</g>
						</g>
					</g>
				</g>
			</g>
		</g>
		<g>
			<g>
				<g>
					<g>
						<g>
							<g>
								<path class="st16" d="M25.8,14.5v1.8c0,0.2-0.1,0.3-0.3,0.3h-1c-0.2,0-0.3-0.1-0.3-0.3v-1.8c0-0.2,0.1-0.3,0.3-0.3h1
									C25.7,14.3,25.8,14.4,25.8,14.5z"/>
							</g>
						</g>
					</g>
				</g>
				<g>
					<g>
						<g>
							<g>
								<path class="st16" d="M28.1,14.5v1.8c0,0.2-0.1,0.3-0.3,0.3h-1c-0.2,0-0.3-0.1-0.3-0.3v-1.8c0-0.2,0.1-0.3,0.3-0.3h1
									C27.9,14.3,28.1,14.4,28.1,14.5z"/>
							</g>
						</g>
					</g>
				</g>
				<g>
					<g>
						<g>
							<g>
								<path class="st16" d="M30.3,14.5v1.8c0,0.2-0.1,0.3-0.3,0.3h-1c-0.2,0-0.3-0.1-0.3-0.3v-1.8c0-0.2,0.1-0.3,0.3-0.3h1
									C30.2,14.3,30.3,14.4,30.3,14.5z"/>
							</g>
						</g>
					</g>
				</g>
			</g>
			<g>
				<g>
					<g>
						<g>
							<g>
								<path class="st16" d="M25.8,17.6v1.8c0,0.2-0.1,0.3-0.3,0.3h-1c-0.2,0-0.3-0.1-0.3-0.3v-1.8c0-0.2,0.1-0.3,0.3-0.3h1
									C25.7,17.3,25.8,17.5,25.8,17.6z"/>
							</g>
						</g>
					</g>
				</g>
				<g>
					<g>
						<g>
							<g>
								<path class="st16" d="M28.1,17.6v1.8c0,0.2-0.1,0.3-0.3,0.3h-1c-0.2,0-0.3-0.1-0.3-0.3v-1.8c0-0.2,0.1-0.3,0.3-0.3h1
									C27.9,17.3,28.1,17.5,28.1,17.6z"/>
							</g>
						</g>
					</g>
				</g>
				<g>
					<g>
						<g>
							<g>
								<path class="st16" d="M30.3,17.6v1.8c0,0.2-0.1,0.3-0.3,0.3h-1c-0.2,0-0.3-0.1-0.3-0.3v-1.8c0-0.2,0.1-0.3,0.3-0.3h1
									C30.2,17.3,30.3,17.5,30.3,17.6z"/>
							</g>
						</g>
					</g>
				</g>
			</g>
			<g>
				<g>
					<g>
						<g>
							<g>
								<path class="st16" d="M25.8,20.7v1.8c0,0.2-0.1,0.3-0.3,0.3h-1c-0.2,0-0.3-0.1-0.3-0.3v-1.8c0-0.2,0.1-0.3,0.3-0.3h1
									C25.7,20.4,25.8,20.5,25.8,20.7z"/>
							</g>
						</g>
					</g>
				</g>
				<g>
					<g>
						<g>
							<g>
								<path class="st16" d="M28.1,20.7v1.8c0,0.2-0.1,0.3-0.3,0.3h-1c-0.2,0-0.3-0.1-0.3-0.3v-1.8c0-0.2,0.1-0.3,0.3-0.3h1
									C27.9,20.4,28.1,20.5,28.1,20.7z"/>
							</g>
						</g>
					</g>
				</g>
				<g>
					<g>
						<g>
							<g>
								<path class="st16" d="M30.3,20.7v1.8c0,0.2-0.1,0.3-0.3,0.3h-1c-0.2,0-0.3-0.1-0.3-0.3v-1.8c0-0.2,0.1-0.3,0.3-0.3h1
									C30.2,20.4,30.3,20.5,30.3,20.7z"/>
							</g>
						</g>
					</g>
				</g>
			</g>
		</g>
	</g>
</g>
</svg>
