<?xml version="1.0" encoding="utf-8"?>
<!-- Generator: Adobe Illustrator 21.1.0, SVG Export Plug-In . SVG Version: 6.00 Build 0)  -->
<svg version="1.1" id="Layer_1" xmlns="http://www.w3.org/2000/svg" xmlns:xlink="http://www.w3.org/1999/xlink" x="0px" y="0px"
	 viewBox="0 0 33 33" style="enable-background:new 0 0 33 33;" xml:space="preserve">
<style type="text/css">
	.st0{fill:#CBD6E0;}
	.st1{fill:#ACB9C1;}
	.st2{opacity:0.5;}
	.st3{fill:#BBC7D1;}
	.st4{fill:#DAE5EF;}
	.st5{fill:#FFD93B;}
	.st6{fill:#5A5F63;}
	.st7{fill:#2AB4CD;}
	.st8{fill:#1DA9BF;}
	.st9{fill:#38C0DC;}
	.st10{fill:#6D4135;}
	.st11{fill:#5B331D;}
	.st12{fill:#E24B4B;}
	.st13{fill:#E9EFF4;}
	.st14{fill:#DEE4E9;}
	.st15{fill:#FFFFFF;}
	.st16{fill:#428DC3;}
	.st17{fill:#9A795F;}
	.st18{fill:#846144;}
	.st19{fill:#3E4347;}
	.st20{fill:#89664C;}
	.st21{fill:#8F6D52;}
	.st22{fill:#633B2A;}
	.st23{fill:#4E99D2;}
	.st24{fill:#8CC63E;}
	.st25{fill:#65B1EF;}
	.st26{fill:#31373A;}
</style>
<g>
	<g>
		<rect x="1.7" y="10.7" class="st17" width="29.6" height="14.9"/>
	</g>
	<g>
		<rect x="1.7" y="23.4" class="st18" width="29.6" height="2.2"/>
	</g>
	<g>
		<path class="st19" d="M32.5,26.3c0,0.5-0.4,0.9-0.9,0.9H1.4c-0.5,0-0.9-0.4-0.9-0.9c0-0.5,0.4-0.9,0.9-0.9h30.3
			C32.1,25.4,32.5,25.8,32.5,26.3z"/>
	</g>
	<g>
		<g>
			<g>
				<rect x="4.1" y="12.6" class="st19" width="1.7" height="2.3"/>
			</g>
			<g>
				<rect x="7" y="12.6" class="st19" width="1.7" height="2.3"/>
			</g>
			<g>
				<rect x="9.9" y="12.6" class="st19" width="1.7" height="2.3"/>
			</g>
			<g>
				<rect x="12.8" y="12.6" class="st19" width="1.7" height="2.3"/>
			</g>
			<g>
				<rect x="15.7" y="12.6" class="st19" width="1.7" height="2.3"/>
			</g>
			<g>
				<rect x="18.5" y="12.6" class="st19" width="1.7" height="2.3"/>
			</g>
			<g>
				<rect x="21.4" y="12.6" class="st19" width="1.7" height="2.3"/>
			</g>
			<g>
				<rect x="24.3" y="12.6" class="st19" width="1.7" height="2.3"/>
			</g>
			<g>
				<rect x="27.2" y="12.6" class="st19" width="1.7" height="2.3"/>
			</g>
		</g>
		<g>
			<g>
				<rect x="4.1" y="16.3" class="st19" width="1.7" height="2.3"/>
			</g>
			<g>
				<rect x="7" y="16.3" class="st19" width="1.7" height="2.3"/>
			</g>
			<g>
				<rect x="18.5" y="16.3" class="st19" width="1.7" height="2.3"/>
			</g>
			<g>
				<rect x="21.4" y="16.3" class="st19" width="1.7" height="2.3"/>
			</g>
			<g>
				<rect x="24.3" y="16.3" class="st19" width="1.7" height="2.3"/>
			</g>
			<g>
				<rect x="27.2" y="16.3" class="st19" width="1.7" height="2.3"/>
			</g>
		</g>
		<g>
			<g>
				<rect x="4.1" y="20.1" class="st19" width="1.7" height="2.3"/>
			</g>
			<g>
				<rect x="7" y="20.1" class="st19" width="1.7" height="2.3"/>
			</g>
			<g>
				<rect x="18.5" y="20.1" class="st19" width="1.7" height="2.3"/>
			</g>
			<g>
				<rect x="21.4" y="20.1" class="st19" width="1.7" height="2.3"/>
			</g>
			<g>
				<rect x="24.3" y="20.1" class="st19" width="1.7" height="2.3"/>
			</g>
			<g>
				<rect x="27.2" y="20.1" class="st19" width="1.7" height="2.3"/>
			</g>
		</g>
	</g>
	<g>
		<rect x="5.2" y="5.8" class="st20" width="22.6" height="4.9"/>
	</g>
	<g>
		<g>
			<g>
				<rect x="7" y="7.1" class="st19" width="1.7" height="2.3"/>
			</g>
			<g>
				<rect x="9.9" y="7.1" class="st19" width="1.7" height="2.3"/>
			</g>
			<g>
				<rect x="12.8" y="7.1" class="st19" width="1.7" height="2.3"/>
			</g>
			<g>
				<rect x="15.7" y="7.1" class="st19" width="1.7" height="2.3"/>
			</g>
			<g>
				<rect x="18.5" y="7.1" class="st19" width="1.7" height="2.3"/>
			</g>
			<g>
				<rect x="21.4" y="7.1" class="st19" width="1.7" height="2.3"/>
			</g>
			<g>
				<rect x="24.3" y="7.1" class="st19" width="1.7" height="2.3"/>
			</g>
		</g>
	</g>
	<g>
		<rect x="9.9" y="16.3" class="st21" width="7.5" height="9.1"/>
	</g>
	<g>
		<path class="st18" d="M17.8,16.3v1.4c0,0.2-0.2,0.3-0.3,0.3H9.8c-0.2,0-0.3-0.1-0.3-0.3v-1.4c0-0.2,0.1-0.3,0.3-0.3h7.6
			C17.6,15.9,17.8,16.1,17.8,16.3z"/>
	</g>
	<g>
		<rect x="10.9" y="18.8" class="st21" width="5.4" height="6.6"/>
	</g>
	<g>
		<rect x="11.6" y="19.5" class="st22" width="4.1" height="5.9"/>
	</g>
	<g>
		<g>
			<path class="st15" d="M10.7,17.5v-1.1h0.4c0.1,0,0.2,0,0.3,0c0.1,0,0.1,0.1,0.2,0.1s0.1,0.1,0.1,0.2c0,0.1,0,0.1,0,0.2
				S11.5,17,11.4,17c0,0-0.1,0-0.1,0.1c-0.1,0-0.1,0-0.2,0h-0.1v0.4H10.7z M10.9,16.6v0.3h0.1c0.1,0,0.2,0,0.2,0c0,0,0.1,0,0.1-0.1
				s0-0.1,0-0.1c0,0,0-0.1,0-0.1c0,0-0.1,0-0.1-0.1c0,0-0.1,0-0.2,0H10.9z"/>
			<path class="st15" d="M11.8,17.5v-1.1h0.5c0.1,0,0.2,0,0.3,0c0.1,0,0.1,0.1,0.1,0.1s0,0.1,0,0.2c0,0.1,0,0.2-0.1,0.2
				S12.5,17,12.4,17c0,0,0.1,0.1,0.1,0.1s0.1,0.1,0.1,0.2l0.1,0.2h-0.3l-0.2-0.2c-0.1-0.1-0.1-0.1-0.1-0.2c0,0,0,0-0.1,0
				c0,0-0.1,0-0.1,0h0v0.5H11.8z M12,16.9h0.2c0.1,0,0.2,0,0.2,0c0,0,0,0,0.1,0c0,0,0-0.1,0-0.1c0,0,0-0.1,0-0.1s0,0-0.1,0
				c0,0-0.1,0-0.2,0H12V16.9z"/>
			<path class="st15" d="M12.9,17.5v-1.1h0.2v1.1H12.9z"/>
			<path class="st15" d="M13.3,17.1l0.2,0c0,0.1,0,0.1,0.1,0.2c0,0,0.1,0.1,0.2,0.1c0.1,0,0.1,0,0.2,0c0,0,0.1-0.1,0.1-0.1
				c0,0,0,0,0-0.1c0,0,0,0-0.1,0c0,0-0.1,0-0.2,0c-0.1,0-0.2-0.1-0.3-0.1c-0.1-0.1-0.1-0.1-0.1-0.2c0-0.1,0-0.1,0-0.2
				c0-0.1,0.1-0.1,0.1-0.1c0.1,0,0.1,0,0.2,0c0.1,0,0.2,0,0.3,0.1c0.1,0.1,0.1,0.1,0.1,0.2l-0.2,0c0-0.1,0-0.1-0.1-0.1
				c0,0-0.1,0-0.1,0c-0.1,0-0.1,0-0.2,0c0,0,0,0,0,0.1c0,0,0,0,0,0.1c0,0,0.1,0,0.2,0.1c0.1,0,0.2,0.1,0.2,0.1
				c0.1,0,0.1,0.1,0.1,0.1c0,0,0,0.1,0,0.2c0,0.1,0,0.1-0.1,0.2s-0.1,0.1-0.2,0.1s-0.1,0-0.2,0c-0.1,0-0.3,0-0.3-0.1
				C13.3,17.4,13.3,17.3,13.3,17.1z"/>
			<path class="st15" d="M14.3,17c0-0.1,0-0.2,0.1-0.3c0-0.1,0.1-0.1,0.1-0.2s0.1-0.1,0.1-0.1c0.1,0,0.2,0,0.2,0
				c0.2,0,0.3,0.1,0.4,0.2c0.1,0.1,0.1,0.2,0.1,0.4c0,0.2,0,0.3-0.1,0.4c-0.1,0.1-0.2,0.2-0.4,0.2c-0.2,0-0.3-0.1-0.4-0.2
				C14.4,17.3,14.3,17.1,14.3,17z M14.6,16.9c0,0.1,0,0.2,0.1,0.3c0.1,0.1,0.1,0.1,0.2,0.1s0.2,0,0.2-0.1c0.1-0.1,0.1-0.2,0.1-0.3
				c0-0.1,0-0.2-0.1-0.3c-0.1-0.1-0.1-0.1-0.2-0.1s-0.2,0-0.2,0.1C14.6,16.7,14.6,16.8,14.6,16.9z"/>
			<path class="st15" d="M15.6,17.5v-1.1h0.2l0.5,0.8v-0.8h0.2v1.1h-0.2l-0.5-0.7v0.7H15.6z"/>
		</g>
	</g>
	<g>
		<g>
			<rect x="8.9" y="22.5" class="st12" width="9.4" height="1.2"/>
		</g>
		<g>
			<polygon class="st13" points="10.2,22.5 9.5,22.5 8.9,23.7 9.5,23.7 			"/>
		</g>
		<g>
			<polygon class="st13" points="11.5,22.5 10.9,22.5 10.3,23.7 10.9,23.7 			"/>
		</g>
		<g>
			<polygon class="st13" points="12.9,22.5 12.2,22.5 11.6,23.7 12.3,23.7 			"/>
		</g>
		<g>
			<polygon class="st13" points="14.2,22.5 13.6,22.5 13,23.7 13.6,23.7 			"/>
		</g>
		<g>
			<polygon class="st13" points="15.6,22.5 15,22.5 14.4,23.7 15,23.7 			"/>
		</g>
		<g>
			<polygon class="st13" points="17,22.5 16.3,22.5 15.7,23.7 16.4,23.7 			"/>
		</g>
		<g>
			<polygon class="st13" points="18.3,22.5 17.7,22.5 17.1,23.7 17.7,23.7 18.3,22.5 			"/>
		</g>
	</g>
</g>
</svg>
