<svg xmlns="http://www.w3.org/2000/svg" viewBox="0 0 1000 1000"><defs><style>.cls-1{fill:#f1f5fc;}.cls-2{fill:#e6eefb;}.cls-3{fill:#f4f4f4;}.cls-4,.cls-5{fill:#fff;}.cls-4{stroke:#f4f4f4;}.cls-10,.cls-11,.cls-12,.cls-13,.cls-14,.cls-15,.cls-16,.cls-18,.cls-19,.cls-4,.cls-5,.cls-6,.cls-7,.cls-8,.cls-9{stroke-miterlimit:10;}.cls-10,.cls-11,.cls-12,.cls-13,.cls-14,.cls-15,.cls-16,.cls-18,.cls-19,.cls-5,.cls-6,.cls-7,.cls-8,.cls-9{stroke:#000;}.cls-6{fill:#2d388e;}.cls-7{fill:#a6c9f5;}.cls-8{fill:#ffbe21;}.cls-9{fill:#e96181;}.cls-10{fill:#1c6685;}.cls-11{fill:#f5f6f9;}.cls-12{fill:#d8e7fa;}.cls-13{fill:#2b2726;opacity:0.84;}.cls-14{fill:#707070;}.cls-15{fill:#a6c8f7;}.cls-16{fill:#fcfcfc;}.cls-17{fill:#a5c9f4;}.cls-18{fill:#9bbce0;}.cls-19{fill:#95b5d8;}</style></defs><g id="Layer_36" data-name="Layer 36"><path class="cls-1" d="M891.26,516.65c50,24.67,83.39,79.68,82.22,135.4-.39,18.68-4.48,37.55-13.93,53.67-13.5,23-36.64,38.57-59.94,51.54-27.9,15.53-58,28.73-89.89,30.6-14.89.87-29.79-.76-44.7-1.38-30.18-1.24-61.63,2-87.69,17.32-17.43,10.23-31.87,25.49-50.51,33.3-25,10.48-54.17,5.84-79-5.09-25.49-11.22-49.56-31.08-55.38-58.32-4.08-19.09,1.5-39.28,11.55-56s24.29-30.52,38.8-43.59c12.82-11.54,26-22.73,40.48-32.15,42.23-27.54,92.78-38.75,138.88-59.15a373.07,373.07,0,0,0,86.33-53.31c10.07-8.31,20-17.35,32.33-21.76a50.35,50.35,0,0,1,49.63,9.72"/><path class="cls-1" d="M259.28,593.37c-16.65,2.66-33.44,3.83-50,.85-54.63-9.85-107.41-36.68-141.7-80.33s-47.66-105-27.64-156.77c13.79-35.64,42-64.57,75.15-83.65s70.88-28.91,108.81-33.58c28.45-3.51,57.31-4.24,85.36-10.22a233.07,233.07,0,0,0,93.27-43.15c22-17,41-37.9,64.33-53,40.58-26.34,93-32.9,139.32-18.93s85.94,47.82,108.46,90.62c8.76,16.64,15.1,34.83,16,53.6,1.65,33.25-13.73,65.18-33.45,92-42.23,57.45-104,97.06-165.6,132.91C442.3,535.62,361.29,577.1,259.28,593.37Z"/><path class="cls-2" d="M407.75,278.84c40.45,5.21,80.63,13.59,121.4,14.59,49.77,1.22,99.1-8.59,148.77-12s102,.42,144.65,26.16a155.93,155.93,0,0,1,54.88,56.52c35.64,63.1,22.89,143.07-6,209.55-17.3,39.87-40.68,78.24-74.74,105.23C773,697.72,745,710.35,716.05,719.3c-79.47,24.62-165.22,22.2-247.08,7.35-71.19-12.91-142.28-35.85-199.37-80.3s-98.51-113.14-96.89-185.48c.65-28.75,7.88-56.92,15.94-84.53,4.4-15.11,9.17-30.35,17.61-43.64,15.09-23.76,40.66-39.12,67.17-48.57A225,225,0,0,1,410.71,280"/><path class="cls-2" d="M211.16,210.77c-18.09-2.61-31.94-20.3-32.62-38.57s10.3-35.82,25.71-45.64S238.86,114,257,116.27c33.74,4.17,64.88,25.59,80.85,55.6,3.22,6,5.89,12.58,6.15,19.43s-2.22,14.08-7.7,18.19c-5,3.76-11.59,4.43-17.82,5-35.84,3.1-72.53,6.14-107.32-3.05Z"/><path class="cls-3" d="M107.53,674.58c.13-.23.26-.46.41-.68a3.62,3.62,0,0,1,.22-.32l.1-.15s.15-.18.06-.07a10.27,10.27,0,0,1,1-1.14c.18-.17.37-.33.57-.49,0,0,.18-.14.07-.06l.14-.1.33-.23a9.64,9.64,0,0,1,1.37-.77.76.76,0,0,0,.27-1,.79.79,0,0,0-1-.27,10.76,10.76,0,0,0-4.84,4.55.75.75,0,1,0,1.29.76Z"/><path class="cls-3" d="M119.87,667.24a11.65,11.65,0,0,1,6.3-2,.75.75,0,0,0,0-1.5,13.17,13.17,0,0,0-7.06,2.21.78.78,0,0,0-.27,1,.76.76,0,0,0,1,.27Z"/><path class="cls-3" d="M134.19,665.35l6.11.6a.76.76,0,0,0,.75-.75.77.77,0,0,0-.75-.75l-6.11-.6a.75.75,0,1,0,0,1.5Z"/><path class="cls-3" d="M100.81,681.65A13,13,0,0,0,98.39,689a.75.75,0,0,0,1.5,0,11.52,11.52,0,0,1,2.22-6.62.75.75,0,1,0-1.3-.76Z"/><path class="cls-3" d="M97.06,698.49a20.51,20.51,0,0,0,.44,6,.75.75,0,1,0,1.44-.4,19.5,19.5,0,0,1-.38-5.6.75.75,0,0,0-1.5,0Z"/><path class="cls-3" d="M100.05,714.88a22.83,22.83,0,0,0,3.66,6.6.75.75,0,1,0,1.06-1.06,20.53,20.53,0,0,1-3.27-5.94.78.78,0,0,0-.93-.52.75.75,0,0,0-.52.92Z"/><path class="cls-3" d="M107.79,726.38a46.17,46.17,0,0,0,4.52,5.35c.67.69,1.73-.37,1.06-1.06a43.68,43.68,0,0,1-4.28-5,.77.77,0,0,0-1-.27.75.75,0,0,0-.27,1Z"/><path class="cls-3" d="M119.4,735.75a53.69,53.69,0,0,0,7.31,3.15c.92.31,1.31-1.13.4-1.45a50.83,50.83,0,0,1-7-3c-.85-.45-1.61.85-.75,1.29Z"/><path class="cls-3" d="M136.08,739.8a23.53,23.53,0,0,1,6.26-.63c1,0,1-1.46,0-1.5a25.26,25.26,0,0,0-6.66.68c-.94.23-.54,1.67.4,1.45Z"/><path class="cls-3" d="M149.76,735.89a6.58,6.58,0,0,0,4-1.57.75.75,0,0,0,0-1.06.77.77,0,0,0-1.06,0l-.18.15c.16-.12-.05,0-.08.05s-.25.17-.38.25l-.41.22-.21.09c.18-.06,0,0-.06,0a6.5,6.5,0,0,1-.86.25l-.22,0-.12,0c.11,0,.11,0,0,0l-.46,0a.76.76,0,0,0-.75.75.77.77,0,0,0,.75.75Z"/><path class="cls-3" d="M162.4,727.24l3.42-3.57a.75.75,0,0,0,0-1.06.76.76,0,0,0-1.06,0l-3.42,3.57a.75.75,0,0,0,0,1.06.76.76,0,0,0,1.06,0Z"/><path class="cls-3" d="M170.54,712.66l.74-1.72a.66.66,0,0,0,.09-.27.61.61,0,0,0,0-.3.71.71,0,0,0-.34-.45.79.79,0,0,0-.58-.08.75.75,0,0,0-.45.35l-.73,1.71a.49.49,0,0,0-.09.28.61.61,0,0,0,0,.3.82.82,0,0,0,.35.45.73.73,0,0,0,.58.07.69.69,0,0,0,.44-.34Z"/><path class="cls-3" d="M171.08,699.57l-.91-4a.75.75,0,1,0-1.45.39l.91,4a.75.75,0,0,0,1.45-.4Z"/><path class="cls-3" d="M169.33,688.71a8.58,8.58,0,0,0-3.4-4.7.75.75,0,0,0-1,.26.76.76,0,0,0,.27,1l.27.2h0l.13.11a6.14,6.14,0,0,1,.47.42c.16.16.31.32.46.49a2.11,2.11,0,0,0,.19.23c.05.07-.06-.08,0,0a1.13,1.13,0,0,1,.1.13,8,8,0,0,1,.65,1.09l.13.27c.09.2,0-.08,0,0a.94.94,0,0,1,.06.15c.08.21.15.42.22.64a.75.75,0,1,0,1.44-.4Z"/><path class="cls-3" d="M160.19,675.8,157.35,673a.75.75,0,0,0-1.06,0,.77.77,0,0,0,0,1.06l2.83,2.82a.75.75,0,0,0,1.07-1.06Z"/><path class="cls-3" d="M151,666.91l-.52-.45a.61.61,0,0,0-.24-.15.59.59,0,0,0-.29-.07.57.57,0,0,0-.29.07.55.55,0,0,0-.24.15l-.12.15a.75.75,0,0,0-.1.38l0,.2a.7.7,0,0,0,.2.33l.52.45a.61.61,0,0,0,.24.15.64.64,0,0,0,.58,0A.61.61,0,0,0,151,668l.12-.16a.69.69,0,0,0,.1-.37l0-.2a.69.69,0,0,0-.19-.33Z"/><ellipse class="cls-4" cx="217.89" cy="727.75" rx="24.69" ry="23.63" transform="translate(-540.76 767.17) rotate(-76.31)"/><ellipse class="cls-2" cx="106.05" cy="595.98" rx="23.63" ry="24.69"/><ellipse class="cls-4" cx="851.14" cy="231.04" rx="23.63" ry="24.69"/><path class="cls-3" d="M748.23,165.68a9,9,0,0,1,1.22-2.72,9.49,9.49,0,0,1,2-2.19.76.76,0,0,0,0-1.06.75.75,0,0,0-1.06,0,10.68,10.68,0,0,0-3.63,5.57.75.75,0,0,0,1.45.4Z"/><path class="cls-3" d="M758.48,155.63a11.64,11.64,0,0,1,5.66-3.44.75.75,0,0,0-.4-1.45,13.1,13.1,0,0,0-6.32,3.83.76.76,0,0,0,0,1.06.75.75,0,0,0,1.06,0Z"/><path class="cls-3" d="M772,150.41l6.08-.86a.75.75,0,0,0,.52-.92.78.78,0,0,0-.92-.53l-6.08.87a.74.74,0,0,0-.52.92.77.77,0,0,0,.92.52Z"/><path class="cls-3" d="M743.36,174.17a13.08,13.08,0,0,0-.6,7.75c.22.94,1.66.54,1.45-.4a11.57,11.57,0,0,1,.6-7,.75.75,0,0,0-1.45-.4Z"/><path class="cls-3" d="M743.71,191.43a20.63,20.63,0,0,0,1.85,5.71.75.75,0,1,0,1.29-.76,19.39,19.39,0,0,1-1.69-5.35.75.75,0,1,0-1.45.4Z"/><path class="cls-3" d="M750.5,206.63a22.12,22.12,0,0,0,5,5.42.76.76,0,0,0,1.06,0,.75.75,0,0,0,0-1.06,21.08,21.08,0,0,1-4.73-5.11.77.77,0,0,0-1-.27.75.75,0,0,0-.27,1Z"/><path class="cls-3" d="M760.75,216a47.52,47.52,0,0,0,5.65,4.13.75.75,0,1,0,.76-1.3,43.47,43.47,0,0,1-5.35-3.89.77.77,0,0,0-1.06,0,.75.75,0,0,0,0,1.06Z"/><path class="cls-3" d="M774.25,222.32a53.52,53.52,0,0,0,7.86,1.32.76.76,0,0,0,.75-.75.78.78,0,0,0-.75-.75,51.11,51.11,0,0,1-7.47-1.26.75.75,0,0,0-.39,1.44Z"/><path class="cls-3" d="M791.41,222.29a23.42,23.42,0,0,1,5.94-2.08.75.75,0,0,0-.4-1.45,25.17,25.17,0,0,0-6.3,2.24.75.75,0,0,0-.27,1,.76.76,0,0,0,1,.27Z"/><path class="cls-3" d="M803.78,215.26a6.56,6.56,0,0,0,3.52-2.48.76.76,0,0,0-.27-1,.78.78,0,0,0-1,.27.86.86,0,0,1-.07.1c-.06.08.12-.14,0,0l-.13.17-.32.33-.34.31a.31.31,0,0,0-.09.07s.11-.09,0,0a1.33,1.33,0,0,1-.19.14,6,6,0,0,1-.77.45l-.11.05s-.16.07,0,0l-.05,0-.09,0a3.53,3.53,0,0,1-.46.15.75.75,0,0,0,.4,1.45Z"/><path class="cls-3" d="M814,203.86l2.48-4.28a.75.75,0,1,0-1.29-.76l-2.49,4.28a.75.75,0,0,0,1.3.76Z"/><path class="cls-3" d="M818.46,187.76l.31-1.84a.83.83,0,0,0-.08-.58.77.77,0,0,0-.45-.34.75.75,0,0,0-.92.52l-.31,1.84a.83.83,0,0,0,.08.58.77.77,0,0,0,.45.34.73.73,0,0,0,.92-.52Z"/><path class="cls-3" d="M815.87,174.92,814,171.23a.75.75,0,0,0-1-.27.77.77,0,0,0-.27,1l1.84,3.68a.74.74,0,0,0,1,.27.76.76,0,0,0,.27-1Z"/><path class="cls-3" d="M811.6,164.78a8.71,8.71,0,0,0-4.42-3.76.75.75,0,0,0-.92.53.77.77,0,0,0,.52.92l.17.07c-.06,0-.08,0,0,0l.31.15c.19.09.38.2.57.31l.52.34.12.09c.06.05.1.09,0,0a2.75,2.75,0,0,1,.26.22,8.5,8.5,0,0,1,.9.9l.09.13c0,.05.08.1,0,0l.18.26c.13.18.25.38.37.57a.74.74,0,0,0,1,.27.75.75,0,0,0,.27-1Z"/><path class="cls-3" d="M799.66,154.41l-3.42-2.07a.75.75,0,0,0-1,.27.76.76,0,0,0,.27,1l3.42,2.08a.75.75,0,0,0,.76-1.3Z"/><path class="cls-3" d="M788.63,147.94l-.62-.31a.66.66,0,0,0-.28-.09.74.74,0,0,0-.55.15.48.48,0,0,0-.19.21l-.08.18a.9.9,0,0,0,0,.4l.08.18a.7.7,0,0,0,.27.27l.61.31a.57.57,0,0,0,.28.08.51.51,0,0,0,.3,0,.55.55,0,0,0,.25-.13.8.8,0,0,0,.2-.21l.07-.18a.68.68,0,0,0,0-.4l-.07-.18a.87.87,0,0,0-.27-.27Z"/></g><g id="Layer_28" data-name="Layer 28"><g id="Layer_24" data-name="Layer 24"><path class="cls-5" d="M161.38,298.6A54.12,54.12,0,0,1,141.85,288a19.71,19.71,0,0,1-5.42-6.54A21,21,0,0,1,135,276a88.22,88.22,0,0,1-1.07-15.14,2.19,2.19,0,0,1-2.66-1,6.4,6.4,0,0,1-.66-3l-.39-7.56a3.63,3.63,0,0,1,.23-1.85,1.24,1.24,0,0,1,1.56-.65c.4.21.58.67.82,1.05a2.86,2.86,0,0,0,1.49,1.16,32.13,32.13,0,0,0,1.08-10.37,10.41,10.41,0,0,1,.17-3.78c.75-2.41,3.32-3.72,5.74-4.44,6.12-1.83,12.68-1.51,19-.66s12.61,2.22,19,2.45c2.81.1,5.62,0,8.42.25l.13.2c1.37,4.36,2.77,8.87,2.27,13.41-.3,2.74-1.27,5.39-1.28,8.14,1.76-.34,2.77-2.77,4.56-2.62a2.42,2.42,0,0,1,1.95,1.92,6.94,6.94,0,0,1-.12,2.9l-1.59,8.92c-.11.58-.27,1.24-.8,1.49-.84.39-1.69-.6-1.87-1.51-2.54,6.49-1.13,14.39-5.16,20.07a23.62,23.62,0,0,1-4.1,4.14,51.35,51.35,0,0,1-9.52,6.88,19.12,19.12,0,0,1-11.34,2.32"/></g><g id="Layer_26" data-name="Layer 26"><path class="cls-6" d="M165.27,461.53l-10,290.54c3.16-95.87,6.68-193.79,9.37-289.67l.13.05-52.62,5.95a3.13,3.13,0,0,0-2,.73,3.17,3.17,0,0,0-.63,2l-1.06,12.16.29-3.67q10.53,132.06,33.82,262.7c.6,3.35,1.25,6.82,3.2,9.61,2.27,2,6.94,1.34,9.55-.24"/><path class="cls-6" d="M208.34,457.06l-10,290.42c3.16-95.86,6.68-193.67,9.36-289.55l.14.05-52.62,5.95a2.39,2.39,0,0,0-2.66,2.69l-1.06,12.16.29-3.67q10.53,132.06,33.82,262.7c.6,3.35,1.25,6.82,3.2,9.61,2.27,2,6.94,1.34,9.54-.24"/><path class="cls-5" d="M148.24,753.18v2.44l4.87.2v-2.43"/><path class="cls-5" d="M191,748.9l.3,2.92-.21-.09c-.51.09-1.16.44-1,.92a.8.8,0,0,0,.47.37,6.93,6.93,0,0,0,6.46-.57.73.73,0,0,0-.88-.38l-.34.14a12.54,12.54,0,0,0,.11-3.57"/></g><g id="Layer_25" data-name="Layer 25"><path class="cls-7" d="M135,423.16c7.55,8.27,18.52,12.45,29.29,15.49,16.77,4.74,34.28,7.4,51.66,6.08,3-8.43,3.25-17.55,3.27-26.5a568.53,568.53,0,0,0-7.3-91.76c-12.12-6.65-25.83-14.11-38-20.76a18.24,18.24,0,0,0-6.67-2.58,17.37,17.37,0,0,0-6.81,1.1,185,185,0,0,0-18,6.63l10.5-5.09Q130.58,317.25,107.88,328l-.37.41a301.52,301.52,0,0,0-26.2,107.45l.31-.12a494.56,494.56,0,0,0,100.62-30.43l.5-.31a7.53,7.53,0,0,1,3-7.81l-.32-.26c-5.18-2.45-11.07-2.84-16.79-3.16q-25.86-1.46-51.75-2"/><path class="cls-7" d="M136.86,525.47c4.42-19.17,6-39.06,7.55-58.67,2.42,19,5.44,40.71,6.22,59.85,10.44-.64,22.56,3.74,33,3.57,7-.1,13.8-2,20.52-3.92,1.17-.34,2.6-1,2.46-2.24a274.2,274.2,0,0,0,1-78.29l-.52.19c-12.5-.95-24.29-1.85-36.44-4.92s-24-8.36-33.08-17a4.28,4.28,0,0,0-1.42-1,4.12,4.12,0,0,0-2.72.34,178.82,178.82,0,0,1-29.58,8l-.5.05a732.24,732.24,0,0,0-5.87,83.71,6.43,6.43,0,0,0,.6,3.46,5.93,5.93,0,0,0,2.12,1.85c10.55,6.46,24.88,8,36.77,4.62"/><path d="M185.25,398.2a1.91,1.91,0,0,1,.16.32l-.07-.18a2.66,2.66,0,0,1,.17.63l0-.2a3.21,3.21,0,0,1,0,.62l0-.2a1.2,1.2,0,0,1,0,.2.77.77,0,0,0,.07.58.75.75,0,0,0,.45.35.78.78,0,0,0,.58-.08.74.74,0,0,0,.34-.45,3.22,3.22,0,0,0-.36-2.35.81.81,0,0,0-.45-.34.78.78,0,0,0-.58.07.76.76,0,0,0-.27,1Z"/><path d="M183.23,404.18a4.62,4.62,0,0,0,3.63-3.8c.14-1.05,0-2.39-1.16-2.8a1.88,1.88,0,0,0-1.61.25,3.16,3.16,0,0,0-1,1.31,11.75,11.75,0,0,0-1,3.76.75.75,0,0,0,1.5,0,10.22,10.22,0,0,1,.6-2.47,5.86,5.86,0,0,1,.52-1.07c0-.09,0-.05.11-.14s.18-.16.12-.12l.09-.05c.1-.06-.09,0,0,0l.11,0c.13,0,0,0,.05,0h.11c-.15,0,0,0,0,0s-.09-.07,0,0-.05-.08,0,0,0,0,0,0,.05.08.07.13,0-.1,0,0a1.21,1.21,0,0,1,.05.18l0,.15s0-.11,0,0,0,.16,0,.25a1.93,1.93,0,0,1,0,.24.61.61,0,0,1,0,.14c0,.12,0-.11,0,0a2.68,2.68,0,0,1-.11.49c0,.07-.05.15-.08.23s0,.05,0,0l-.06.13a3.7,3.7,0,0,1-.25.43,1.88,1.88,0,0,1-.16.23c.07-.1-.09.1-.11.12a5.14,5.14,0,0,1-.41.4s-.11.09,0,0l-.12.09-.24.15-.25.13-.12.06c.09,0,0,0-.06,0a2.91,2.91,0,0,1-.58.15.75.75,0,0,0,.4,1.45Z"/><path d="M184.77,399.6l-1.69,2.9a.75.75,0,0,0,.27,1,.76.76,0,0,0,1-.27l1.68-2.89a.75.75,0,1,0-1.29-.76Z"/></g><g id="Layer_27" data-name="Layer 27"><path class="cls-5" d="M129.17,392c-4.08-1.57-9.2.69-12.83-1.75a45.06,45.06,0,0,1-1.31-8.16c3.17,0,7.67-.65,10.77,0a82.9,82.9,0,0,0,3.41,9.6"/><path class="cls-5" d="M201.27,408.13c.64-1.67,1.07-4.46.46-6.14l-.82-.38a15.44,15.44,0,0,0-7.31-2.41l-8.22.32c.8.53,1.12.15,1.71.9h0a7.22,7.22,0,0,1,4.27-.93l1.1.43a9.71,9.71,0,0,1,4.48,3.37A73.55,73.55,0,0,1,204.63,414l.24.55a16.25,16.25,0,0,1-5.7,5.12A43.55,43.55,0,0,1,192,422.7l-.33.21a6.3,6.3,0,0,1-3.22-2.73q-4-5.56-7.54-11.47h0a17.24,17.24,0,0,1,3.36-6.14l.43-.28c-.68-.67-.64-.91-1.32-1.58"/></g><g id="Layer_23" data-name="Layer 23"><path class="cls-8" d="M133.74,249.76c1.78-4.18,1.62-9,3.79-13,2.42-4.44,7.4-7,12.41-7.71s10.08.26,15,1.39,9.86,2.47,14.91,2.56a49.75,49.75,0,0,0,14.3-2.28c3.55-1,7.51-2.59,8.69-6.07a9.78,9.78,0,0,0,.11-4.78,26.81,26.81,0,0,0-20.42-21.08,39.52,39.52,0,0,0-13.29-.1,80.29,80.29,0,0,0-19.08,5c-7.41,3-14.75,7.44-18.28,14.6-3.18,6.44-2.75,14.24-.17,20.94,1,2.59,2.31,5.32,1.59,8-.26.95-.55,2.32.39,2.59Z"/><path class="cls-8" d="M188.51,233.45a13.49,13.49,0,0,1,.55,8.71,11.51,11.51,0,0,0-.63,2.88,2.49,2.49,0,0,0,1.37,2.41c1.33.51,2.65-.67,3.58-1.74a36.72,36.72,0,0,0,4.78-6.41,12.34,12.34,0,0,0,1.57-7.72c-.15-.9-.59-1.93-1.49-2.08a2.38,2.38,0,0,0-1.28.25c-2.74,1.11-5.39,2.78-8.34,2.71Z"/><path class="cls-5" d="M164.51,250.91c7-.68,15.3-1.06,22.31-1.58a1.19,1.19,0,0,1,1.63,1.24c.33,4.61-.61,9.21-1.54,13.73a1.3,1.3,0,0,1-.29.7,1.32,1.32,0,0,1-.72.32c-4.85,1-9.88.53-14.81,0a6.29,6.29,0,0,1-2.46-.58c-1.64-.88-2.18-2.95-2.5-4.8-.45-2.7-1-6.64-1.22-9.37"/><path class="cls-5" d="M158.06,250.52c-6.77-.67-14.87-1.11-21.66-1.62a1.51,1.51,0,0,0-1.29.3,1.46,1.46,0,0,0-.28.92c-.32,4.52.59,9,1.49,13.45a1,1,0,0,0,1,1c4.7,1,9.57.52,14.35,0A6.49,6.49,0,0,0,154,264c1.59-.87,2.11-2.9,2.42-4.71.44-2.64,1.14-6.64,1.33-9.32"/><path class="cls-5" d="M164.91,254.79q-3.78.08-7.56,0"/><path class="cls-7" d="M169.23,300.74l4.88,3.38c.4.27,2.4,2.13,1.58,1.83-.31-.11-.33.53-.42.85-.76,2.77-2.82,4.58-5.18,6.22a5,5,0,0,1-2.65,1c-1.69,0-3.05-1.32-4.2-2.56a10.58,10.58,0,0,1-2.92-4.49,13,13,0,0,0,5-2.24,24.34,24.34,0,0,0,3.69-4Z"/><path class="cls-7" d="M158.33,300.5l-3.21,1.61a31,31,0,0,0-3.14,1.74.91.91,0,0,0-.45.5,1,1,0,0,0,0,.42,12.85,12.85,0,0,0,2.2,4.63.72.72,0,0,0,.52.37.79.79,0,0,0,.35-.13,31.32,31.32,0,0,0,3.29-2.19.89.89,0,0,0,.3-.31,1,1,0,0,0,.05-.39,25.39,25.39,0,0,1,.71-5.82Z"/><path class="cls-7" d="M146.56,376.41c5-20.22,14.39-40.24,23.17-59.14a62.28,62.28,0,0,1,6.07-11l.16-.05a79.6,79.6,0,0,1,18.75,12.59l-28,36.82c-3,4-6,8-8.88,12.07s-5.38,8.2-7.79,12.48l-.42-.19a14.26,14.26,0,0,0-3-4"/><path class="cls-7" d="M142.38,311.14c-3.14,6.78-4.61,15.25-6.75,22.4a19,19,0,0,0-.87,3.71c-.22,2.45.66,4.85,1.5,7.16q5.4,14.8,9.42,30.07c.16.61.73,1,1.15,1.45l.34-.21c.67-2.16.69-4,1.36-6.14a6,6,0,0,0,.13-3.88c-1.48-7.18-3-14.4-3.38-21.73a37.42,37.42,0,0,1,.11-6.08,45.79,45.79,0,0,1,2.15-8.65q3-9.17,6.34-18.21a19.4,19.4,0,0,1-2.78-4.26l.07-.21c-3.25,1.24-5.78,3.83-9,5.09"/><path class="cls-5" d="M159.46,297.91c2.48.77,6,1.82,8.79.22h.22a16.94,16.94,0,0,0-.4,3.55l-.21.42c-2.29,1.24-4.11,2.41-6.41,3.64-.83.44-2.17,2-3,1.64l.21-1.41a32.21,32.21,0,0,0,.82-8.07"/><path class="cls-9" d="M157.74,320.65l2.22.19a.46.46,0,0,0,.26,0,.54.54,0,0,0,.23-.32l1.26-3.48a12.63,12.63,0,0,1,1.88-3.76l-.46-.76a7.26,7.26,0,0,1-2.46-3.25A2.42,2.42,0,0,0,160,308c-.7-.49-1.64,0-2.33.53l-2.94,2.14-.38.49a35.56,35.56,0,0,0-1.6,6.76,2.49,2.49,0,0,0,.07,1.38c.35.81,1.36,1.06,2.23,1.21h-.77q-4.31,11.81-8.38,23.69l-.19-1a140.94,140.94,0,0,0,3.64,21.9c1.37-1.4,2.88-5.14,3.25-7.06l.67-1.68c1.05-12.85,5.13-22.17,5.79-35.05"/></g><path class="cls-5" d="M153.65,756.08h-4l-.9-.83-54,31.3.6.67a189.29,189.29,0,0,0,19.19,1l.25.26a280,280,0,0,0,39.94-10h.08q.33-11.58.29-23.17"/><path class="cls-5" d="M195.57,754h-4l-.9-.83-54,31.3.6.68c6.37.65,12.78,1,19.19,1l.25.25a280,280,0,0,0,39.94-10h.07q.34-11.58.3-23.17"/></g><g id="Layer_59" data-name="Layer 59"><g id="Layer_31" data-name="Layer 31"><g id="Layer_57" data-name="Layer 57"><path class="cls-5" d="M882.14,744.44c.16-11.88-1.73-26.42-2.86-39.87-.71-8.43-.87-15-1.22-23.44-.18-4.23-.46-8.45-.68-12.67a365,365,0,0,1,.3-42.36l.29-.62c8.36-.68,18-3,26.12-5"/><path class="cls-5" d="M904.09,620.53C896.4,659.91,890.82,705,887.61,745"/><path class="cls-5" d="M834.36,748.48a722.15,722.15,0,0,1-.61-104c.25-3.52.54-7.05.46-10.58-.12-6-1.11-12.52-.13-18.39h0a106.52,106.52,0,0,0,27.76,8.73"/><path class="cls-5" d="M862.19,624.38c-7.48,39-15.47,84.7-21.19,124"/></g><g id="Layer_29" data-name="Layer 29"><path class="cls-10" d="M847.45,220.41c-1.31,3.63-.69,7.74.89,11.25a39.47,39.47,0,0,0,6.6,9.45c2.62,3,5.39,6,8.84,8a28.6,28.6,0,0,0,5.61,2.39,51.14,51.14,0,0,0,16.38,2.42c2.85,0,6-.25,8.22,1.48.39.31.92.67,1.32.39a1.22,1.22,0,0,0,.38-.66c.8-2.12,3.52-2.73,5.06-4.4a9.58,9.58,0,0,0,1.42-2.28c1.94-3.9,3.93-8,3.56-12.39a21.93,21.93,0,0,0-2.6-7.67,33.07,33.07,0,0,0-2.71-4.64c-2.64-3.65-6.45-6.25-10.26-8.63a45.77,45.77,0,0,0-7.71-4.06,26.74,26.74,0,0,0-16.56-.83c-4.88,1.33-14.39,1-17.79,5.84-1.33,1.89.27,3.41-.93,5.39Z"/><path class="cls-10" d="M850.58,236.19a12.28,12.28,0,0,1-6.4,14.22c-1.94.89-4.35,1.46-5.23,3.41-.44,1-.4,2.12-1,3-.89,1.39-3,1.52-4.43.73a9.55,9.55,0,0,1-3.23-3.66c-3.47-5.73-6.62-12.15-6-18.82a23.85,23.85,0,0,1,2.55-8.29,21.33,21.33,0,0,1,3-4.6,15.74,15.74,0,0,1,14.63-5.08c1,.18,4.73-.31,5.28.5.82,1.21-2.53,3.65-2.74,5.09-.37,2.5.54,5,1.44,7.36l2.54,6.69Z"/><path class="cls-5" d="M895.33,256.54a4.55,4.55,0,0,1,3.19.07,20.4,20.4,0,0,1-.91,10,4.47,4.47,0,0,1-.59,1.2,5.09,5.09,0,0,1-.71.68l-1.87,1.58.12.16a116.3,116.3,0,0,1-5.73,13.5A38.91,38.91,0,0,1,880,295.29a26.44,26.44,0,0,1-14.5,6.46h0c-2.82.51-5.5-1.26-7.78-3a76,76,0,0,1-12.51-11.31,33.79,33.79,0,0,1-7.62-14.89l-.3-.64a2.24,2.24,0,0,1-2.09-1.05,6.62,6.62,0,0,1-.88-2.3l-1.92-7.92a2.51,2.51,0,0,1,.14-2.15c.6-.76,1.79-.56,2.72-.26s2.06.61,2.77-.06.51-1.67.62-2.56a6.09,6.09,0,0,1,3.09-4.14c1.5-.95,3.2-1.57,4.68-2.56a11.42,11.42,0,0,0,4.8-11.13v.51c2.46,2.23,4.65,4.75,7.07,7a23.32,23.32,0,0,0,8.31,5.37,29.66,29.66,0,0,0,4.46,1l7.77,1.35a48,48,0,0,0,9.77,1c1.36,0,2.81-.2,4,.48,1,.55,1.8,1.65,2.88,1.42a4.29,4.29,0,0,1,.58-1.4"/><path class="cls-5" d="M929,469.34a21,21,0,0,1,2.07,5.13l-.56.6-3.39,2.23a6.5,6.5,0,0,0-1.66,1.37c-1.24,1.6-.73,4,.5,5.63.13.16.3.34.51.32a.68.68,0,0,0,.37-.22c.59-.57,1-.66,1.55-1.23h0L931,496.86a2.34,2.34,0,0,0,.32.93c.61.87,1.95.54,2.92.1,2-.88,4-1.93,5-3.81h0c1.11-7.74-2.26-14-3.35-21.74l-.45-.27c-.35.35-.55-.25-.9.1l-.62.83c-.33-1.59-1.28-2.85-1.95-4.33"/><path class="cls-9" d="M902.32,362.18c3.1,5.23.76,11.82-.63,17.73-.88,3.72,2,6.13.85,9.76-1.31,4-.85,8.28-.17,12.4,1.44,8.68,2.5,20.87-1.53,28.68-3.77,7.32.17,11.44,10.31,22.35l5.31.89c-28.18,9.65-58.69,10.05-86.31-1.75-3.32-28.53,1.52-58.09-1.68-86.63-.46-4.11-15-6.24-15.49-10.34a148.77,148.77,0,0,0-4.31-21.64c16.67-10.09,36.79-20.25,54.46-28.47l4.25-.29c18.48,6.17,33.08,18.15,50.3,27.26v3.26c8.3,45.82-.55,82.81,14.1,123.93l.91.75c-1.18,1-2.74,2.4-4.23,2.71h0c-.36.26-5.23,1.19-5.38.55-2-8.92,1.51-13.4-3.42-21.9-1.37-2.36-.61-7.95-2-10.31-1.17-2-3.94-26.83-4.35-29.14-3.72-20.67,1-2.87-3.08-23.16"/><path class="cls-11" d="M917.68,453.38a32.77,32.77,0,0,0-.34,4.53c-8,5-16.66,5.86-26.07,6.7a165,165,0,0,1-30.95.34,79.8,79.8,0,0,1-29.15-8.26c-.1-.9-.63-2.67-.73-3.57l.07,0,10.14,3.42a66.29,66.29,0,0,0,7.91,2.32,67.75,67.75,0,0,0,10.65,1l9.3.4c4,.17,8,.34,12,.28a104.56,104.56,0,0,0,36.88-7.36"/><path class="cls-6" d="M818.76,455.74c3.24,2.07,7.82,5,11.51,6,27.21,7.57,57.48,7.11,84.25-1.93l.83-.15c11.1,47.62,18.51,97.53,8.15,145.32-1.84,8.5-2.88,13.24-8.41,19.87-14,6.62-32.66,10.55-48.11,9.9s-30.86-5.86-43-15.68c-3.35-2.72-6.52-5.87-8.35-9.83a35.77,35.77,0,0,1-2.41-9.16,401.68,401.68,0,0,1-1.65-119.66c1.15-8.42,3.44-18.86,7.95-26"/><path class="cls-5" d="M803.74,466.19a20.55,20.55,0,0,0-2,5l.54.58,3.33,2.19a6.46,6.46,0,0,1,1.61,1.33c1.22,1.57.72,3.93-.48,5.5-.13.16-.3.34-.5.32a.68.68,0,0,1-.37-.22c-.57-.55-.94-.64-1.51-1.2h0l-2.57,13.37a2.19,2.19,0,0,1-.31.91c-.6.85-1.91.53-2.86.1-1.9-.86-3.89-1.88-4.89-3.72h0c-1.09-7.56,2.21-13.68,3.28-21.24l.43-.26c.34.34.54-.25.88.09l.61.82a20.32,20.32,0,0,1,1.9-4.24"/></g><g id="Layer_30" data-name="Layer 30"><path class="cls-5" d="M863,301.4a18.83,18.83,0,0,1,.5,3.08l-.29.26a.52.52,0,0,0-.24.69,1.1,1.1,0,0,0,.6.52,3.92,3.92,0,0,0,3.4-.61,1.65,1.65,0,0,0,.55-.46.63.63,0,0,0,.06-.68.4.4,0,0,0-.61-.07l-.33.42v-3"/></g><path class="cls-5" d="M841,785.07l1.23-28.72a62.23,62.23,0,0,0,.05-6.83L841,748.43a.82.82,0,0,1,1,.34,18,18,0,0,1-8.6,0c.33-.41,2.72.45,2.72.45l-2.72-.45c-1.76,1.67-3.41,3.15-5.32,4.64-13.62,10.6-28.23,19.91-41.51,30.94a28.66,28.66,0,0,0,4.52,2.38l.31.23c5.68,1.81,11.73,1.93,17.69,1.91,10,0,22.31-.53,31.64-4.16"/><path class="cls-5" d="M888.3,744.35c2.09,14.21,10.1,28.18,12.21,42.38l-3.57,1,.26,0a47.49,47.49,0,0,1-21.54.34,4.36,4.36,0,0,1-2.39-1.09,3.86,3.86,0,0,1-.78-1.63c-.84-3.14-.35-6.47.21-9.67,1.81-10.47,4.3-20.95,9.11-30.42h0c0,.43.25-.25.61,0s.58-.81.92-1.07c2.7-2,3.88.58,5,.17-.13-.14.12.15,0,0"/></g><g id="Layer_56" data-name="Layer 56"><path d="M862.27,306.26a.75.75,0,0,0,0-1.5.75.75,0,0,0,0,1.5Z"/><path class="cls-12" d="M918.75,463.66c2.26-18.1-9-34.89-12.85-52.71-2.86-13.09-1.73-26.68-.59-40q7.61,48.56,15.16,97.13l13.73-3a1.88,1.88,0,0,0,1.92-2.36q-3.61-60.27-10.53-120.3c-.48-4.15-1.06-8.53-3.62-11.84a21.47,21.47,0,0,0-5.75-4.7c-15-9.4-31.74-15.69-48.33-21.9l-.65.49a49.07,49.07,0,0,1,10.26,10.19,74.15,74.15,0,0,0-9.66,3.47,43.3,43.3,0,0,1,11.95,8.8,23.13,23.13,0,0,0-8.56,10.3c-1.89,4.12,8.38,127.73,7.41,132.15h.63c2.84,1,6,.63,9,.17a255.32,255.32,0,0,0,30.93-6.78"/><path class="cls-12" d="M811.41,465.2c-2.26-18.1,9-34.89,12.85-52.71,2.86-13.09,1.73-26.68.59-40q-7.61,48.56-15.16,97.13l-13.72-3a2.51,2.51,0,0,1-1.72-.9,2.49,2.49,0,0,1-.21-1.46Q797.66,404,804.57,344c.48-4.15,1.06-8.53,3.62-11.84a21.47,21.47,0,0,1,5.75-4.7c15-9.4,31.74-15.69,48.33-21.9l.65.49a49.07,49.07,0,0,0-10.26,10.19,73.62,73.62,0,0,1,9.66,3.47,43.45,43.45,0,0,0-12,8.8,23.13,23.13,0,0,1,8.56,10.3c1.89,4.12-8.38,127.73-7.41,132.15h-.63c-2.84,1-6,.63-8.95.17A255.73,255.73,0,0,1,811,464.31"/></g></g><g id="Layer_62" data-name="Layer 62"><g id="Layer_55" data-name="Layer 55"><g id="Layer_54" data-name="Layer 54"><path class="cls-6" d="M206.3,488.3c7.57,82.51,6.55,180.62,18.37,262.63l1.4.62c3.68-.33,5.92,0,9.25-1.75,17.35-88.47,24.4-158.24,17.68-250-8.8-29.79-10.05-3.92-13.31-6.52s-6.67-8.9-8.79-7.95-4.13,2.78-6.24,2.2c-4.43-1.24-4.94-13.91-18.36.8"/><path class="cls-5" d="M227.09,752.11l.46,7.65Z"/><path class="cls-5" d="M231.92,751.92a61.21,61.21,0,0,1-.13,7.66Z"/><path class="cls-5" d="M232.88,758.93a165.55,165.55,0,0,0,10.89,41.6,40.28,40.28,0,0,1,2.59,7.77.94.94,0,0,1-.07.7,1.48,1.48,0,0,1-.81.43,39,39,0,0,1-19.13.45l0-.07c-3.42-8.39-2.69-17.47-1.92-26.29l2.12-24.41.45-.39c-.36-.21,0,.37.21.69a1.48,1.48,0,0,0,1.11.51,12.69,12.69,0,0,0,3.08,0c.73-.09,1.63-.44,1.52-1l-.76-.28"/></g><g id="Layer_10" data-name="Layer 10"><path class="cls-5" d="M276.31,232.58a55.05,55.05,0,0,1-30.11,19.16c-4.65,1.09-9.41,1.56-14.13,2.26-1.26.18-2.74.56-3.16,1.76a3.55,3.55,0,0,0,0,1.83A65,65,0,0,0,246,290c2.94,3,6.49,5.91,10.7,6.22,4.89.37,9.3-2.79,13-6a115.16,115.16,0,0,0,17.07-18.57c2.79-3.8,5.45-8.21,4.92-12.89a3.51,3.51,0,0,0-1.14-2.48,4.48,4.48,0,0,0-1.55-.63,17.78,17.78,0,0,1-12.24-18.34c.18-1.69.31-3.67-.94-4.83"/><path d="M255.89,297.37a7.14,7.14,0,0,0,3.25-.13.75.75,0,0,0-.4-1.45,5.17,5.17,0,0,1-.68.16l-.16,0c.12,0,.13,0,.05,0h-.08l-.35,0a5.3,5.3,0,0,1-.69,0c-.11,0-.22,0-.32,0,.11,0,.12,0,0,0h-.06l-.21,0a.77.77,0,0,0-.92.53.76.76,0,0,0,.53.92Z"/><path class="cls-5" d="M255.92,297.34l.94,4.79a.51.51,0,0,0,.13.29.46.46,0,0,0,.3.08,5.36,5.36,0,0,0,1.2-.11.63.63,0,0,0,.33-.15.66.66,0,0,0,.13-.36c.26-1.71.45-3.43.57-5.15Z"/><path class="cls-5" d="M260.2,300.71a1.22,1.22,0,0,1,1.14,1.12,1.85,1.85,0,0,1-.72,1.54,4,4,0,0,1-1.58.73,4.41,4.41,0,0,1-1.76.18,2.11,2.11,0,0,1-1.5-.86,1.39,1.39,0,0,1,0-1.65.19.19,0,0,1,.1-.08c.11,0,.19.08.25.18a2,2,0,0,0,1.6.9,2,2,0,0,0,1.63-.88,5.57,5.57,0,0,1,.8-1.18Z"/><path class="cls-12" d="M246.77,338.83c-5,29-9.94,58.11-10.21,87.55-.21,22.62,2.34,45.5-1.69,67.72-9.62-.18-20.55-.75-27.88-7.35,11.65-28.57,17.21-63.75,13.27-94.58.24,40.72-16.32,79.47-20.47,120a21,21,0,0,1-5.9.6c-2.56,0-2.65-6-2.95-8.64-.55-4.77-.95-9.56-1.31-14.36q-3.52-46.61-2.8-93.45c.11-7.16.3-14.32.84-21.46a212.57,212.57,0,0,1,7.57-42.16c.85-3,1.2-6.57,3.61-8.4,5.26-4,18.72-9,22.35-9.72,7.1-1.46,5.24-1.23,11.55-3.11.72-.21,0,2.23.59,2.69A10.88,10.88,0,0,1,234.7,317c2.51,6.33,1.15,10.7-1.4,17-.73,1.83,0,2.5-.38,4.45s-.86,2.74.64,3.93c1.76,1.42,1,1.38,3,.51,4-1.69,6.73-1.17,9.79-4.39Z"/><path class="cls-9" d="M262,302.47c-1.6,1.85-4.94,2.45-6.55.6-1.78,1.46-1.52,4.16-1.46,6.46.19,7.24-3.29,14-5.29,21-.87,3-1.46,6.15-2,9.25a583,583,0,0,0-9,129.88c.19,4.21-1.18,10.7-1.62,14.89-.56,5.28-1.31,7,2.17,9.36a25.83,25.83,0,0,0,5.82,3c10.25,2.65,8,2.08,14.85,2.26,5,.14,14.89-3.56,18.86-6.55,1.26-1,3.09-1.32,3.53-2.83s-.55-4-.78-5.52q-1.38-9.14-3.17-18.21c-1.23-6.29-2.62-12.56-3.79-18.87a281.4,281.4,0,0,1-4.68-45.41c-.4-18.87,1.1-37.74,3.09-56.51,1.13-10.68,2.54-23.53,4-34.17v.07a34.08,34.08,0,0,0-5.36-3.06c-3-1.67-5.54-4.11-8.59-5.67"/><path class="cls-6" d="M259.33,500.32c7.58,82.51,4.15,166,16,248l1.4.62c3.68-.34,5.92,0,9.25-1.75,17.35-88.48,25.7-182,14.1-271.4-6.37,5-4.74,11.77-12.61,13.66a37.14,37.14,0,0,0-6.67,1.9,51,51,0,0,0-5.61,3.39A31.18,31.18,0,0,1,259,499.32"/><path class="cls-5" d="M277.71,749.46l.47,7.65Z"/><path class="cls-5" d="M282.54,749.28a61,61,0,0,1-.12,7.65Z"/><path class="cls-5" d="M283.51,756.29a162.86,162.86,0,0,0,10.88,41.22,38.43,38.43,0,0,1,2.59,7.71.87.87,0,0,1-.06.69,1.47,1.47,0,0,1-.82.43,39.31,39.31,0,0,1-19.13.44l0-.06c-3.42-8.32-2.7-17.33-1.93-26.07l2.13-24.19.44-.39c-.36-.2,0,.37.21.69a1.53,1.53,0,0,0,1.11.5,12.77,12.77,0,0,0,3.09,0c.73-.08,1.63-.43,1.52-1l-.77-.28"/><path class="cls-5" d="M200.24,521.31c2.21,8.4,1.52,17.26.83,25.92a1.24,1.24,0,0,1-.19.66,1.11,1.11,0,0,1-.68.32,106.13,106.13,0,0,1-10.48,1.93h-.47a196.91,196.91,0,0,1,1.19-33.55l.47-.7a13.53,13.53,0,0,1,3-2l.55,0V512l3.18-.18v1.95l1.07.55a2.44,2.44,0,0,1,1.21-.47l.53.28a7.57,7.57,0,0,1,2.13,3.84q.93,3.07,1.56,6.22l-.31.2c-1.41.66-1.73.33-3.14,1"/><path class="cls-12" d="M271.08,351.1l-1.81,27c-1.59,34.87,1.11,20.26,1.36,49.7.2,22.62,3.45,42.61,7.18,64.83A36.43,36.43,0,0,0,302.27,482a196.3,196.3,0,0,1-11-91.35c-.22,40.72,15.09,79.47,18.93,120a18,18,0,0,0,5.45.6c2.37,0,2.45-6,2.73-8.64.5-4.77.87-9.56,1.21-14.36q3.25-46.61,2.59-93.45c-.11-7.16-.28-14.32-.79-21.46a228,228,0,0,0-7-42.16,26.82,26.82,0,0,0-3.34-8.4c-2.1-3.06-5.25-4.9-8.4-6.34a54.49,54.49,0,0,0-17.38-4.74,2.63,2.63,0,0,0-2,.36c-.43.35-8.84-2.5-8.94-1.92-1.12,6.63-.32,18-2,26.15-.55,2.66-.48.69-.55,2.66-.09,3-.28,10.42-.77,12.17"/><path class="cls-5" d="M289.9,526c-2.09,8.41-1.44,17.27-.78,25.93a1.23,1.23,0,0,0,.17.66,1.18,1.18,0,0,0,.64.32,98.88,98.88,0,0,0,9.93,1.93h.44a207.71,207.71,0,0,0-1.12-33.55l-.44-.7a12.85,12.85,0,0,0-2.82-2l-.52,0v-1.94l-3-.18v2l-1,.55a2.31,2.31,0,0,0-1.14-.48l-.5.29a7.64,7.64,0,0,0-2,3.84c-.59,2-1.08,4.12-1.48,6.22l.3.2c1.33.66,1.63.33,3,1"/></g></g><g id="Layer_61" data-name="Layer 61"><path class="cls-8" d="M289.47,320.56c-.65-10.87,1.73-19.65,5.17-29.78,6.42-18.9,8.66-33.29,1.33-51.73-1.85-4.65-3.67-8.75-7.06-12-3.66-3.52-19.45-8.5-24.9-9-15.11,0-15.93.34-30.5,9.8-11.61,11.07-18.79,24.66-19,42.15-.09,6.75.84,13.65,3.61,19.58,2.13,4.56,5.24,8.36,7.88,12.53,7.17,11.33,10.72,27,5.48,39.69-1.11,2.68-2.6,5.66-1.62,8.4a5.84,5.84,0,0,0,1.47,2.19c3.14,3,8,2.27,11.29-.57s5.16-7.3,6.6-11.73a90.4,90.4,0,0,0,4.42-28.34c0-3.78-.32-7.74-2.08-10.91a27.19,27.19,0,0,0-3.88-4.89,64.12,64.12,0,0,1-14.87-31.32,4,4,0,0,1,.09-2.41,3,3,0,0,1,2.22-1.33c7.21-1.62,14.45-3.39,21.18-6.79a39.13,39.13,0,0,0,16.94-15.78c.13,4.15.28,8.37,1.43,12.3s3.46,7.61,6.79,9.11c1.3.59,2.74.85,3.85,1.84,1.67,1.48,2.13,4.29,1.64,6.67a18.79,18.79,0,0,1-3,6.36,150.22,150.22,0,0,1-19,23.42,10.76,10.76,0,0,0-2.31,2.91,8.64,8.64,0,0,0,0,6.48c2.08,5.77,7.64,8.48,12.68,10.63l7.25,3.09c2.22.95,5.07,1.74,6.66-.29Z"/></g></g><g id="Layer_63" data-name="Layer 63"><g id="Layer_58" data-name="Layer 58"><path class="cls-13" d="M754,768.73c-.37,2.13-.78,4.73-1.07,6.87l-2.6-.34a60.44,60.44,0,0,1,.15-7.12"/><path class="cls-5" d="M754.75,773.93q-.87,14.31-1.34,28.64l-.16.4a24.48,24.48,0,0,1-5.77,2.45l-45.71,14.85-.72.05c-4.67-2.5-5.83-3.34-9.6-7.65l57.36-39.76.62-.6c-.24,0,.22-.14,0,0a.86.86,0,0,0-.39.73,1.11,1.11,0,0,0,.87.93,6.24,6.24,0,0,0,4.24-.11.81.81,0,0,0,.48-.38.83.83,0,0,0-.27-.94,1.31,1.31,0,0,0-.86-.18"/><path class="cls-6" d="M765.07,476.41c-5,2-10.33,2.51-15.64,2.6a115.58,115.58,0,0,1-20.74-1.51,11.32,11.32,0,0,1-3.35-.94l-.19.32c-3.93,32.83-2.76,66.6.4,99.73,1.18,12.41,2.5,27.11,3.29,39.54C732,666.74,741,714.63,746.4,765l-.15.59a3.49,3.49,0,0,0,1.13,1.53,7.62,7.62,0,0,0,5.16,1.9,7.44,7.44,0,0,0,5-2.18l.27-.13c2.91-58.13,3.4-116.44,3.89-174.73.18-22.12,2.9-92.5,3.08-114.62"/><path class="cls-6" d="M766.86,473.14c5,2,10.34,2.51,15.65,2.6a114.5,114.5,0,0,0,20.73-1.51,11.38,11.38,0,0,0,3.36-.94l.19.32c3.93,32.83,2.76,66.6-.4,99.73-1.19,12.41-2.51,27.11-3.29,39.54-3.2,50.59-12.19,98.48-17.57,148.88l.15.59a3.35,3.35,0,0,1-1.13,1.53,7.67,7.67,0,0,1-5.15,1.91,7.5,7.5,0,0,1-5-2.19l-.28-.13c-2.91-58.13-3.4-116.44-3.88-174.73-.19-22.12-2.9-92.5-3.08-114.62"/><path class="cls-13" d="M778.43,765.87c.37,2.13.78,4.73,1.07,6.87l2.6-.34a62.68,62.68,0,0,0-.15-7.12"/><path class="cls-5" d="M777.63,771.07q.86,14.29,1.34,28.64l.16.4a24.48,24.48,0,0,0,5.77,2.45l45.71,14.85.72.05c4.67-2.5,5.83-3.34,9.6-7.65l-57.36-39.76-.62-.6c.24,0-.22-.14,0,0a.83.83,0,0,1,.38.73,1.1,1.1,0,0,1-.86.93,6.24,6.24,0,0,1-4.24-.11.81.81,0,0,1-.48-.38.83.83,0,0,1,.27-.94,1.31,1.31,0,0,1,.86-.18"/></g><g id="Layer_22" data-name="Layer 22"><path class="cls-14" d="M770.2,303.84C762,302.13,754.63,296,750,289s-7.14-15.11-8.94-23.27c-2.26-10.25-3.43-21.17,0-31.09a35.05,35.05,0,0,1,5.76-10.41c4.86-6.07,11.95-10.5,19.68-11.4,8.43-1,17.09,2.33,23.29,8.12a39.27,39.27,0,0,1,11.43,22.24,58.08,58.08,0,0,1-1.82,25.19,75.63,75.63,0,0,1-5.55,14.14c-5,9.77-13,19-23.68,21.31Z"/><path class="cls-15" d="M765.93,308.69l1.37-5.54c-.29,2.3-.65,3.91-.74,6l-.41-.56c-.33,0-.52.41-.37.7a1.2,1.2,0,0,0,.8.52,8.25,8.25,0,0,0,5.66-.45.36.36,0,0,0,.16-.11c.08-.13,0-.3-.17-.38a1.41,1.41,0,0,1-.39-.24h-.51a28.75,28.75,0,0,0-.56-5l1.48,5.53"/><path class="cls-14" d="M809.7,531.45a11.08,11.08,0,0,0,0,3.15,3.83,3.83,0,0,0,1.66,2.59,5.39,5.39,0,0,0,2,.57,44.64,44.64,0,0,0,10.46.26c1.74-.17,3.66-.54,4.69-1.94l.13-.24a50.73,50.73,0,0,0,2.34-9.92,17.12,17.12,0,0,0-1.68-9.93l-.23-.48c-2.56.18-5.12.43-7.66.77H821a2.61,2.61,0,0,0,0-1.11,12.15,12.15,0,0,1-.13-2l-3.23.14c0,.93.08,1.85.14,2.77l-.75.17a20.36,20.36,0,0,0-5.27.78,11,11,0,0,0-4.6,2.61l-.45.17a16,16,0,0,0,.4,10.4,1.45,1.45,0,0,0,.41.66.55.55,0,0,0,.72,0l-.21.17a26.69,26.69,0,0,0,4.08-.56c.13,0,.27-.19.15-.24l0-.35a16.28,16.28,0,0,0,.16-5.07"/><path class="cls-16" d="M723.85,481.22c13.73,4.56,28.49,5.48,42.89,4.1s28.5-5,42.29-9.4"/><path class="cls-14" d="M726.51,531.45a11.08,11.08,0,0,1,0,3.15,3.83,3.83,0,0,1-1.66,2.59,5.39,5.39,0,0,1-2,.57,44.64,44.64,0,0,1-10.46.26c-1.74-.17-3.66-.54-4.69-1.94l-.13-.24a50.73,50.73,0,0,1-2.34-9.92A17.12,17.12,0,0,1,706.9,516l.23-.48c2.56.18,5.12.43,7.66.77h.38a2.61,2.61,0,0,1,0-1.11,12.15,12.15,0,0,0,.13-2l3.23.14c0,.93-.08,1.85-.14,2.77l.75.17a20.36,20.36,0,0,1,5.27.78,11,11,0,0,1,4.6,2.61l.45.17a16,16,0,0,1-.4,10.4,1.45,1.45,0,0,1-.41.66.55.55,0,0,1-.72,0l.21.17a26.69,26.69,0,0,1-4.08-.56c-.13,0-.27-.19-.15-.24l0-.35a16.28,16.28,0,0,1-.16-5.07"/><path class="cls-10" d="M793.89,222c3.54.5,9.09,7.92,10.26,11,.12.34.4,2.76.44,3.12,1.08,10.62,1.1,11.23-.74,21.47-.64-2.7-1.29-5.4-1.74-8.14-.3-1.86-.52-3.74-.91-5.59-1-4.89-4-8.77-8.19-12-.57-.45-3.68-3-4.39-2.78a98.17,98.17,0,0,1-22.19,11.85c-7,2.46-14.64,2.62-22,1.64a2.44,2.44,0,0,1-1.93-.91,78.33,78.33,0,0,0-3.93,12.87,17.42,17.42,0,0,1-1.24-11.08A52,52,0,0,1,741,232.69l-8.6,10.78a4.33,4.33,0,0,1,.17-3.36,33.47,33.47,0,0,1,8.36-13c3.67-3.53,8.13-6.24,11.52-10-6.38.68-11.48,5.9-17.84,6.77a30.17,30.17,0,0,1,16.58-11.71,52.81,52.81,0,0,1,9.62-1.52,43.87,43.87,0,0,1,13.15.35c4.3.94,11.38,3.06,14.68,5.86,1.2,1,4.72,4.17,4.48,5.15"/><path d="M793.1,222.73a.75.75,0,0,0,0-1.5.75.75,0,0,0,0,1.5Z"/></g><g id="Layer_64" data-name="Layer 64"><path class="cls-17" d="M766.59,311.05a1.6,1.6,0,0,1-1.82-.86l.58.27a5.87,5.87,0,0,0,5.29,0l.16-.28a134.7,134.7,0,0,1,35.43,8.06c9.34,3.51,18.9,8.66,23.31,17.61,2.9,5.9,3.17,12.69,3.4,19.26q.93,27.63,1.87,55.28c.46,13.47.92,27,.07,40.42C833.53,472,829,492.88,823.72,513.5l-.15.36c-2.71,1.82-6.33,1.18-9.52.46l.4-.72c-2.05-7-2.74-14.28-3.35-21.53-3.49-41.5-4.51-83.15-5.53-124.78l4.57,108.56c-27.48,7.06-56.38,14.14-83.89,7.15l-1.48-.82.2-11.12c0-3,.11-6.08-.07-9.11-.22-3.7-.79-7.37-1.14-11.06-1-10.84-.1-21.76.81-32.61l3.72-44.16-.6-1c-1.8,22.21-3.6,44.45-4,66.74-.38,24.31,1,48.87-3.65,72.75l-1,1.22a19.63,19.63,0,0,1-6.42.76c-2.56-.19-2.39-.51-2.9-3-.87-4.34-1.62-8.71-2.35-13.07q-2.12-12.54-3.69-25.16c-4.62-36.94-5.75-74.19-6.23-111.38-.11-8.7.07-18,5-25.18,3.69-5.45,9.62-8.94,15.51-11.9a170.36,170.36,0,0,1,47.12-15.57"/><path d="M766.49,310.69a1.23,1.23,0,0,1-1.39-.69l-.51.52a7.52,7.52,0,0,0,3.8.91,6.22,6.22,0,0,0,2-.49c.17-.08.38-.27.53-.33s0-.07.19-.1a5.92,5.92,0,0,1,1,.13q6.59.66,13.07,2a125.19,125.19,0,0,1,24.33,7.34c6.56,2.79,13.08,6.55,17.39,12.39,5,6.73,5.32,15.18,5.6,23.23q.93,27.65,1.87,55.28c.62,18.17,1,36.28-1.34,54.35-1.14,9-2.78,17.93-4.68,26.79-.95,4.42-2,8.82-3,13.2q-.81,3.3-1.63,6.58c-.17.67-.22,1.55-.72,2a5.8,5.8,0,0,1-3.08.9,20.08,20.08,0,0,1-5.82-.68l.23.55a2.65,2.65,0,0,0,.44-.91,5.92,5.92,0,0,0-.39-1.47c-.17-.61-.32-1.22-.47-1.84-.54-2.31-1-4.64-1.3-7-.69-4.79-1.06-9.63-1.45-14.46q-1.19-14.62-2-29.29c-1.11-19.62-1.83-39.27-2.39-58.93-.32-11.11-.59-22.22-.87-33.33h-.75l.46,10.83L806.74,404l1.32,31.42,1.15,27.05.37,8.93.12,2.81a5,5,0,0,0,.06,1.45.59.59,0,0,1,0,.19l.27-.36c-24.86,6.38-51,13-76.75,8.62-2.49-.43-5.46-.67-7.69-1.9a1.86,1.86,0,0,1-.52-.28c-.2-.29.21.42.07-.23a11.55,11.55,0,0,1,0-2.42l.09-5.07c.06-3.29.17-6.58.09-9.87s-.44-6.41-.82-9.61c-1.56-13.34-.43-26.59.69-39.92l1.88-22.33,1-11.41.46-5.46a4.22,4.22,0,0,0,0-1.73,5,5,0,0,0-.57-.94.38.38,0,0,0-.7.19c-1.09,13.49-2.18,27-2.95,40.51s-1.08,27.05-1.08,40.6c0,13.29.06,26.62-1.07,39.88-.29,3.43-.66,6.85-1.14,10.26-.22,1.6-.47,3.2-.74,4.8-.2,1.18-.18,2.75-.92,3.7a2.33,2.33,0,0,1-.67.69,7.5,7.5,0,0,1-2,.41,14.16,14.16,0,0,1-5.11.13c-.88-.19-1.07-.63-1.26-1.47-.31-1.42-.56-2.87-.83-4.3A643.88,643.88,0,0,1,700,427.61c-.81-13.47-1.32-27-1.65-40.46Q698.12,377,698,366.9c-.08-6-.37-12.19.55-18.19.89-5.78,3.09-11.18,7.31-15.33s9.3-6.7,14.42-9.19a170.44,170.44,0,0,1,35.92-12.68q4.5-1,9-1.83c.48-.08.28-.81-.2-.72A171.2,171.2,0,0,0,727.64,320a110.59,110.59,0,0,0-16.57,8.31c-4.73,3.05-8.8,7-11.06,12.22s-2.74,10.85-2.85,16.4c-.12,6.77.12,13.56.25,20.32.26,14,.68,28,1.39,42A698.54,698.54,0,0,0,707.67,502q.89,5.17,1.91,10.31c.28,1.43.58,2.32,2.13,2.56a14,14,0,0,0,3.77,0,18,18,0,0,0,1.95-.29,5.17,5.17,0,0,0,2-.51,4.84,4.84,0,0,0,1-1.26,7.71,7.71,0,0,0,.42-2c.16-.88.31-1.75.45-2.63,2.2-13.56,2.66-27.32,2.76-41,.09-13.89,0-27.77.52-41.65s1.59-28,2.7-42q.4-5.19.83-10.37l-.7.19a4.18,4.18,0,0,1,.58.94,9.43,9.43,0,0,1-.23,2.34l-.46,5.46L726.33,393l-1.84,21.83c-.61,7.24-1.28,14.49-1.49,21.76a158,158,0,0,0,1.19,21.52c.85,8,.35,16.08.2,24.09a.39.39,0,0,0,.19.33c.44.24.89.53,1.35.74a17.54,17.54,0,0,0,3.46.87c2.79.6,5.62,1.06,8.46,1.4a110.74,110.74,0,0,0,17.37.64c11.89-.45,23.66-2.51,35.24-5.11,6.63-1.48,13.21-3.15,19.78-4.84a.37.37,0,0,0,.28-.36L810.06,465,809,439.14l-1.32-31.42-1.14-27.06-.38-8.93a31.74,31.74,0,0,0-.18-4.25c0-.06,0-.13,0-.19a.38.38,0,0,0-.75,0c.48,19.57,1,39.14,1.7,58.71s1.72,38.94,3.21,58.38c.41,5.32.8,10.66,1.43,16,.29,2.47.64,4.93,1.12,7.37.24,1.24.51,2.48.81,3.7a11.25,11.25,0,0,1,.56,1.95,1.63,1.63,0,0,1-.29.77.38.38,0,0,0,.22.55,23.82,23.82,0,0,0,5.24.74c1.36,0,3.55-.2,4.57-1.24a1.82,1.82,0,0,0,.38-.82c.32-1.07.55-2.19.82-3.28q.82-3.29,1.61-6.58c2.08-8.7,4-17.45,5.49-26.27A248.46,248.46,0,0,0,835.23,451c.59-9,.58-18.07.37-27.1-.42-18.39-1.2-36.77-1.82-55.15q-.24-6.84-.47-13.69a79.38,79.38,0,0,0-1-11.93,28,28,0,0,0-10.83-17.39c-5.78-4.42-12.68-7.17-19.52-9.48a134.65,134.65,0,0,0-25-5.82c-2-.28-4.08-.5-6.13-.69a.37.37,0,0,0-.33.19c-.45.84-2.4.79-3.2.69a7.58,7.58,0,0,1-2.31-.77c-.32-.15-.71.17-.51.51a2,2,0,0,0,2.24,1c.48-.08.27-.8-.2-.72Z"/></g></g><g id="Layer_18" data-name="Layer 18"><g id="Layer_16" data-name="Layer 16"><path class="cls-12" d="M369.21,238.14c-8.55,0-15.44,5.63-21.55,11.61-11.69,11.44-15.53,29-14.19,45.31.83,10.22,3.45,20.55,1.34,30.58A33.38,33.38,0,0,1,326,342.09c-3.69,3.72-8.6,7.19-9,12.41,3.68-3.66,6.61,2.23,10.95,5.07s10.47,2,12.48,6.8c1.81,4.3,3.3,8.93,6.56,12.28,2.86,3,6.8,4.58,10.69,5.9,10.47,3.55,21.76,5.4,32.64,3.42s21.29-8.18,26.71-17.81c2.5-4.45,4.07-9.7,8.1-12.82a4.72,4.72,0,0,0,1.48-1.47c.78-1.62-.88-3.3-2.29-4.42a40.88,40.88,0,0,1-14.53-24.6c-2.38-13.65,2.32-27.74.26-41.43-1-6.72-3.63-13.1-6.65-19.19-3.45-7-7.54-13.75-13.22-19.05S377,238.12,369.21,238.14Z"/></g><g id="Layer_60" data-name="Layer 60"><path class="cls-12" d="M317.3,352.58l-.38-.89c-7.41,5.35-13.76,11.61-16.81,20.24S295.87,389.7,295,398.8a482,482,0,0,0,3.1,120.36l1.13.46c1.89.27,3.8.45,5.71.58l-.07.43"/></g><g id="Layer_17" data-name="Layer 17"><path class="cls-6" d="M340.65,775.71C331.22,709,325,647.89,319,580.74c9.05-6.11,12-11.1,19.55-19a9,9,0,0,1,3-2.3,9.62,9.62,0,0,1,3.74-.44c2.83.06,5.61-.35,8.44-.25l1.11-.14c3.42,71.59,4.09,144.55,2,216.19l-.67.25c-5.1.33-10.22.41-15.33.24"/><path class="cls-6" d="M398.64,769.52c1.19-40.79,3.48-82.11,6.59-122.8l-.05-.31c.83-12.1,1.49-23.52,2.31-35.63,1.26-18.35,2.48-37-1.7-54.94-16.17,2.51-33.36-3.14-48.77,2.37l.74.2C372.2,627.59,372,699,381.65,769a65.32,65.32,0,0,0,17,.56"/><path class="cls-5" d="M351.59,775.32a13.18,13.18,0,0,1-.3,3.34l-5.46-.27a12.28,12.28,0,0,0-.16-2.68"/><path class="cls-5" d="M351.87,815.53l1.27-29.4a65.2,65.2,0,0,0,.05-7L351.84,778a.84.84,0,0,1,1.07.35,18.32,18.32,0,0,1-8.8,0,1,1,0,0,1,.92-.28l-.68.25c-1.8,1.7-3.74,3.25-5.69,4.78-13.94,10.85-28.9,20.38-42.49,31.67a29.18,29.18,0,0,0,4.63,2.43l.32.24c5.81,1.85,12,2,18.1,2,10.25,0,22.84-.55,32.39-4.27"/><path class="cls-5" d="M391,773.18A10.31,10.31,0,0,1,391,771l-5.28-.66-.14,3.13"/><path class="cls-5" d="M391.62,773.61c2.14,14.54,10.34,28.84,12.5,43.38l-3.66,1,.27,0a48.45,48.45,0,0,1-22.05.36,4.52,4.52,0,0,1-2.44-1.12,3.93,3.93,0,0,1-.8-1.67c-.86-3.21-.36-6.62.21-9.9,1.86-10.72,4.4-21.44,9.33-31.14l.58-1.42c0,.44-.33,1.17,0,1.41s.59-.83.95-1.09c2.76-2,4,.6,5.07.18-.13-.15.12.15,0,0"/></g><g id="Layer_15" data-name="Layer 15"><path class="cls-5" d="M340.41,292c.55-9.56,1.87-17.3,5.14-25.18a19.63,19.63,0,0,1,3.39-5.89,16.57,16.57,0,0,1,6.64-4.11,39.35,39.35,0,0,1,21.57-1.18,18.4,18.4,0,0,1,6.29,2.27A15.14,15.14,0,0,1,387,261.2c5.3,6.6,6.37,15.56,7,24,.66,8.65.88,18.07-4.17,25.12-4.29,6-11.52,9-18.37,11.74a15.7,15.7,0,0,1-3.83,1.17,12.57,12.57,0,0,1-7-1.56A35.39,35.39,0,0,1,347,309c-3.43-5.29-4.32-8.64-6.12-13.57Z"/><path class="cls-10" d="M342.86,274.64c1.08-4.75,2.37-9.64,5.37-13.49s8.15-6.42,12.82-5l.35.66a18.24,18.24,0,0,1-17.72,16.94"/><path class="cls-10" d="M361.56,257.57A13.52,13.52,0,0,0,365.8,266a28.11,28.11,0,0,0,8.09,5.21c5.7,2.6,12.3,4.32,18.17,2.15-1.24-5.75-2.82-12.05-7.63-15.44a18,18,0,0,0-5.85-2.53,37,37,0,0,0-19.18.11Z"/><path class="cls-12" d="M408.77,392.78q4.94,68.64,13,137l.1.51c2.18,0,4.36-.06,6.53-.22l1.16-.38a482.12,482.12,0,0,0,11-119.9c-.32-9.14-.9-18.35-3.38-27.15s-7-17.26-14-23.08l-.85.62c-4.4,9.11-7.61,14.3-14.53,20.63-3,2.75-8,4.28-11.94,5.18a82.87,82.87,0,0,1-38.92-.61l.72.57.89,131.13c.23,33.74.46,67.55,4.38,101.06.79,6.71,2,13.93,6.76,18.69a25.33,25.33,0,0,0,9.22,5.36,66.7,66.7,0,0,0,31,3.77l1.32,0c1.66-.81,2-3,2.17-4.81l9.35-110.4"/><path class="cls-11" d="M329.54,359.57c6.09,2,11.31,5,12,10.95"/><path class="cls-7" d="M343.45,558.41c.44-6.64.54-12.1.66-18.43,1.07-56.49.21-111.94-2.08-168.4l-.47-1.06a25.93,25.93,0,0,0,16.22,14.85c-1.24,57.06-.67,115.31.63,172.37-4.69,1.77-10.36,1.23-15.34.63"/><path class="cls-5" d="M427.89,530.4c.13,1.64.21,3.29.24,4.94l-3.24-.62c-.09-1.34-.23-2.68-.41-4"/><path class="cls-5" d="M424.87,535.34a1.28,1.28,0,0,0-1,.88,3.82,3.82,0,0,0-.17,1.39,40.17,40.17,0,0,0,.82,10,6.15,6.15,0,0,0,2.21-.92l-1,.81a46,46,0,0,0-1.13,11.63.6.6,0,0,0,.14.45.67.67,0,0,0,.31.1,56.48,56.48,0,0,0,7.12.45c.61,0,1.32-.07,1.63-.59a2,2,0,0,0,.18-.86c.28-7.88.55-15.88-1.39-23.52l-4.06.24"/><path class="cls-5" d="M299.11,520.41c-.12,1.64-.21,3.29-.24,4.94l3.24-.62c.09-1.34.23-2.68.41-4"/><path class="cls-5" d="M302.13,525.35a1.31,1.31,0,0,1,1,.88,4.05,4.05,0,0,1,.17,1.39,41.18,41.18,0,0,1-.82,10,6.07,6.07,0,0,1-2.21-.92l1,.81a46,46,0,0,1,1.13,11.63.56.56,0,0,1-.14.44.64.64,0,0,1-.31.11,56.48,56.48,0,0,1-7.12.45c-.6,0-1.32-.07-1.63-.59a1.82,1.82,0,0,1-.17-.86c-.28-7.88-.55-15.88,1.38-23.52l4.06.24"/></g><path class="cls-12" d="M317.22,351.73c1.46,2.26,4.69,2.35,7.07,3.6,2.13,1.12,3.58,3.19,5.43,4.74a23.3,23.3,0,0,0,6.6,3.53c1.68.66,3.46,1.34,4.57,2.75a5,5,0,0,1,.66,5l-.09-2.22c6.65,89.69-.62,182.83,2.89,272.7l-.06.36a39.47,39.47,0,0,1-24.68-1.57A8,8,0,0,1,316,638.3a8.73,8.73,0,0,1-1.41-4.22C303.53,560.87,301.44,486.57,303,412.56"/></g><g id="Layer_14" data-name="Layer 14"><g id="Layer_12" data-name="Layer 12"><path class="cls-5" d="M685,265.13c.93,0,.3.25.63-.62a7.93,7.93,0,0,0,.68-2.93c-.07-1.87-.2-4.62-.28-6.49,0-.35.21-.08,0-.35s.1-.93-.07-.63l-.1.11c-1-.42-1.07-1.73-1.18-2.79-.41-3.8-3-7.08-6.23-9.18s-6.91-3.23-10.57-4.32c-2.65-.79-5.3-1.58-8-2.15-4.11-.85-8.33-1.18-12.39-2.27s-8.06-3.1-10.48-6.53a5.39,5.39,0,0,1-1.2-3.76l0,.5a18.79,18.79,0,0,1,1.84,15.19c-1.68,5-5.58,9.75-10.8,10.43l.21-.49c.39-.12,1.25.32-.23,1.19-.47.29-.49.56-1.1.82s-.19,1-.22,1.67c-.15,3.35-1,6.86-.13,10.11.09.37.3.44.54.74a1.93,1.93,0,0,0,1.93.86l-.54.14-.39.4c1.24,7.41,1.42,14,2.56,20.94a28.3,28.3,0,0,0,11.06,17.57,34.59,34.59,0,0,0,5.16,3.1c3.65,1.83,7.65,3.31,11.72,3a21.25,21.25,0,0,0,5.48-1.3c8.22-2.92,15.35-8.78,18.21-17a34.5,34.5,0,0,0,1.5-7.89c.62-5.8,1.49-11.82,1.69-17.65"/></g><g id="Layer_13" data-name="Layer 13"><path class="cls-11" d="M604.15,521.45a16.14,16.14,0,0,0,2.91,6.83,3.75,3.75,0,0,0,1.8,1.48c1.16.35,1.5-1.45,2.42-2.24,2.08-1.78,3.1-4,4.33-6.44"/><path class="cls-6" d="M659.59,517.36q-22.35,131.89-37.16,265l-.47,1.22a21,21,0,0,1-13.19,1.67l0-.11C596.63,696,604.7,612.29,596.67,522.55l.51-8.7c3.09-7.05,5.7-12.62,6-20.38,1.11,2.84,2.27,5.67,3.47,8.47"/><path class="cls-5" d="M618.33,785.46l-.42,4.15-4.42.6a34.47,34.47,0,0,1-.15-4.88"/><path class="cls-5" d="M688.9,784.94a42.29,42.29,0,0,0,.27,5.51l-5.29.15a41.56,41.56,0,0,0-.63-5.51"/><path class="cls-5" d="M691.91,790.34a85,85,0,0,0,7,7.73c8.5,8.72,17,17.44,25.92,25.76l.23.35c.81.79.49,1.38,0,2.13a4.27,4.27,0,0,1-2.24,1.44,91.27,91.27,0,0,1-26.23,5.6,1.44,1.44,0,0,1-1.1-.68c-6.85-8.14-7.76-19.78-13.39-28.82l0-.55a35.29,35.29,0,0,0,.08-9.24,16.35,16.35,0,0,1,0-4.25l.49-.56c-.51.07.09.11.31.57a2,2,0,0,0,1.2.89,11.58,11.58,0,0,0,5.82.07,2.52,2.52,0,0,0,1.1-.37.94.94,0,0,0,.4-1,1.08,1.08,0,0,0-.49-.52,2.1,2.1,0,0,0-1.49-.23"/><path class="cls-6" d="M645.27,517.36q21.26,131.89,35.34,265l.44,1.22a19.09,19.09,0,0,0,12.54,1.67l0-.11c11.59-89.22,3.92-172.89,11.55-262.63l-.49-8.7c-2.94-7.05-5.42-12.62-5.74-20.38-1,2.84-2.16,5.67-3.3,8.47"/><path class="cls-5" d="M610.62,790.21a93.29,93.29,0,0,1-6.26,8.39c-7.63,9.46-15.27,18.93-23.26,28l-.21.38c-.73.86-.44,1.5,0,2.32a3.83,3.83,0,0,0,2,1.55,69.73,69.73,0,0,0,23.54,6.09c.4,0,.73-.37,1-.74,6.15-8.84,7-21.48,12-31.29l0-.59a46.8,46.8,0,0,1-.07-10,20.91,20.91,0,0,0,0-4.61L619,789c.45.07-.08.12-.28.62a1.85,1.85,0,0,1-1.08,1,8.61,8.61,0,0,1-5.22.08,2.1,2.1,0,0,1-1-.41,1.12,1.12,0,0,1-.36-1.1,1.13,1.13,0,0,1,.44-.56,1.66,1.66,0,0,1,1.34-.26"/></g><g id="Layer_11" data-name="Layer 11"><path class="cls-8" d="M635.8,223.67c1.41,5,2.53,10.28,1.38,15.34s-5.12,9.82-10.29,10.33a27.88,27.88,0,0,1-4.33-20.72,17,17,0,0,1,1.49-4.59c1.57-3,4.18-5.38,6.74-7.63,3.22-2.83,5.68-3.84,8.81-5.61a48.39,48.39,0,0,1,5.4-2.12c1.74-.7,5.71-1.06,7.59-1.15,9.6-.45,17.11,3.25,24.68,9.17s12.55,15.36,12.19,25a48.55,48.55,0,0,1-1.82,10.4,5.45,5.45,0,0,1-1,2.32,1.89,1.89,0,0,1-2.3.5,18.41,18.41,0,0,0-9-13.87c-3.38-1.95-7.28-2.76-11.1-3.53l-13.75-2.79a34,34,0,0,1-7.57-2.17,11.25,11.25,0,0,1-5.63-5.29Z"/><path class="cls-8" d="M637.2,279.55a65.64,65.64,0,0,1,11.06-6.13,21.92,21.92,0,0,1,12.39-1.48,27,27,0,0,1,8.74,3.93c1.88,1.19,3.78,2.54,4.77,4.53a3.22,3.22,0,0,1-2.88.67,12.08,12.08,0,0,1-2.86-1.13,28.18,28.18,0,0,0-24.28.28,12.62,12.62,0,0,1-4,1.59,3.32,3.32,0,0,1-3.58-1.85Z"/><path class="cls-8" d="M652.38,288.14c.8,1-.13,3.34-1.16,4.09a5.88,5.88,0,0,1-3.65.83c-4.51-.11-9.2-1.79-11.91-5.4-1.94-2.6-2.67-5.89-3.06-9.11a53.66,53.66,0,0,1-.38-8.5,5.88,5.88,0,0,0-1.57-3.72c-.86-1-1.9-1-3.22-1.16h0a19.25,19.25,0,0,0,.56,5.74c.76,4.3.77,8.68,1.32,13s1.72,8.72,4.43,12.13c1.59,2,3.21,4.43,5.27,5.95a49.44,49.44,0,0,0,8.49,5.23c3,1.37,6.33,2.55,9.59,2.18a29.47,29.47,0,0,0,5.85-1.32c3.46-1.15,7-3.64,10-5.78,5.2-3.79,8-10.13,9.24-16.43s1.37-12.79,2.44-19.13l-.42-.72c-1.49.7-1.93,2.57-2.2,4.19l-1,6.17a23.92,23.92,0,0,1-1.87,6.95,15.34,15.34,0,0,1-2.47,3.51,15,15,0,0,1-8.5,5,9.14,9.14,0,0,1-8.9-3.42l-.61-.36c-2.08-.07-4.17-.05-6.25.06"/><path class="cls-5" d="M628.5,250.43a3.67,3.67,0,0,0-2,.07,1.8,1.8,0,0,0-1,.64,2.49,2.49,0,0,0-.29,1.3l-.23,7.05a8.36,8.36,0,0,0,.12,2.18c.15.68,2.22,3,3.35,3.23"/><path class="cls-5" d="M684.21,255.75c.65.18,1.48-.25,2,.22a1.24,1.24,0,0,1,.26.46c.7,2,0,4.19.25,6.28a7.94,7.94,0,0,1,.13,1.37,1.6,1.6,0,0,1-.52,1.23,2,2,0,0,1-.62.32,11.83,11.83,0,0,1-2.22.92"/><path class="cls-5" d="M628.14,255.73a1.05,1.05,0,0,0-1,.61,2.59,2.59,0,0,0-.22,1.26,7.19,7.19,0,0,0,1.5,4.51"/><path class="cls-5" d="M683.47,258.92a5.9,5.9,0,0,1,0,5.32"/><path d="M653.39,310.09l.47,4a.75.75,0,0,0,1.5,0l-.47-4a.75.75,0,0,0-1.5,0Z"/><path d="M658.06,310.36l-.34,5.1a.75.75,0,1,0,1.5,0l.34-5.1a.75.75,0,0,0-1.5,0Z"/><path class="cls-5" d="M588.65,524.16a123.57,123.57,0,0,1,.18,23.16.86.86,0,0,1-.12.44.81.81,0,0,1-.61.2c-2.23.12-3.18.31-5.41.43a3.44,3.44,0,0,1-3.11-.78,4.45,4.45,0,0,1-.79-1.9c-2.32-10-2.51-20.19-2.54-30.4a7.08,7.08,0,0,1,.16-2.73c.36-.65,2-.25,2.75-.35v-.15q1.23-51.71,2.45-103.43c.17-7.3-.34-14.49-.34-22.45h.37a8.73,8.73,0,0,0,1.76,1.57,32.53,32.53,0,0,0,19.83,4.13l-.29.66q-6.77,60.17-15.84,120h.17c.8.28,2.25.89,3.05,1.18a25.48,25.48,0,0,0,.35,7.08,3.91,3.91,0,0,1,.09,1.52,2.15,2.15,0,0,1-1.7,1.8c-.85.07-1.87-.08-2.78,0"/><path class="cls-5" d="M714.86,517.35a124.43,124.43,0,0,0-.18,23.16.83.83,0,0,0,.12.44.79.79,0,0,0,.6.21c2.22.12,3.16.31,5.37.42a3.38,3.38,0,0,0,3.09-.78,4.56,4.56,0,0,0,.78-1.9c2.3-9.95,2.49-20.18,2.51-30.4a6.91,6.91,0,0,0-.15-2.73c-.36-.64-1.93-.24-2.73-.35v-.14q-1.21-51.72-2.42-103.44c-.18-7.3.33-14.48.33-22.44h-.37a9.17,9.17,0,0,1-1.74,1.56,32.06,32.06,0,0,1-19.67,4.13l.29.67q6.7,60.15,15.7,120h-.16c-.8.29-2.23.9-3,1.18a26,26,0,0,1-.35,7.09,3.86,3.86,0,0,0-.09,1.51,2.14,2.14,0,0,0,1.68,1.8c.85.07,1.86-.07,2.76,0"/><path class="cls-12" d="M661,315.11c16.56,4,35.33,10.52,51.71,15.16,6.9,14.42,10.52,28.49,12.7,44.2a3.94,3.94,0,0,1-.1,2.13,4,4,0,0,1-1.65,1.58c-6.27,3.95-14,8.93-21.5,8.06l-2.26-29.54c.93,33.22,2.24,66.43,3.55,99.64.3,7.59,2.84,53.61,3.44,61.17-4,4-9.94,5.3-15.52,6.36-22.41,4.27-45.54,7.66-67.93,3.3a100.19,100.19,0,0,1-10.14-2.54c-6.9-2.11-13.78-5.12-18.66-10.42l-.68-.62c.48-7.57,4.3-47.88,5.08-55.43,3.43-33.06,6.85-66.12,10.65-99.14L606,391.59c-7.08.86-17.47-1.09-23.41-5a3.83,3.83,0,0,1-1.56-1.58,4.14,4.14,0,0,1-.11-2.13,169.87,169.87,0,0,1,13.39-46.67c18.92-8.09,38.8-15.3,58.39-21.6l1.81-.06c-.34-.47-1.19,0-1.15.62s.59,1,1.11,1.26a6.71,6.71,0,0,0,4,.6,1.83,1.83,0,0,0,1.5-.92c.23-.56-.4-1.35-.92-1"/></g></g><g id="Layer_20" data-name="Layer 20"><g id="Layer_2" data-name="Layer 2"><g id="Layer_12-2" data-name="Layer 12"><path class="cls-5" d="M450.41,491.51a21.35,21.35,0,0,0,7.83,5.09c18.65,8,39.8,7.6,60,5.63,19.67-1.91,39.78-5.33,56.64-15.64l.43-.27a19,19,0,0,0-.27-10.26l-.27-.55a22.09,22.09,0,0,1-8.29,4.28c-30.2,10.16-62.89,10.87-94.57,7.44-7.49-.8-15.28-2-21.42-6.33l-.38.54A19,19,0,0,0,450,492.1"/><path class="cls-5" d="M461,830.66a20.27,20.27,0,0,0,.3,3.48l-.7.37c-1.45.23-2.91.39-4.37.51l-1,.06c-.14-.72-.34-2.46-.38-3.2"/><path class="cls-5" d="M565.8,832.37c.12,1.42.49,3.55.61,4.9v.87c-1.72,1.42-4.54,1.18-6.45.07v-.93l-.19-3.84"/><path class="cls-5" d="M636.11,877.85a423.86,423.86,0,0,1-74.85-3.55l-.1-1.13a330.18,330.18,0,0,1-1.79-34.44l.15-.43c-.43,0,0,.46.21.84a1.66,1.66,0,0,0,1.07.7,7.75,7.75,0,0,0,6-.73,1.59,1.59,0,0,0,.82-.89c.09-.4-.26-.9-.66-.78l1.41.87a26.85,26.85,0,0,0,6.36,4.45c18.42,10.23,38.64,16.7,58.58,23.48a69.74,69.74,0,0,1,13,5.5l-.62.87c-2.47,1.46-7.44,3.75-9.87,5.29"/><path class="cls-5" d="M524.05,500.82a74.3,74.3,0,0,0-.2-12.39l-23.2,1.05a53.49,53.49,0,0,0,0,13.14"/><path class="cls-5" d="M510.22,496.16a26.43,26.43,0,0,0,5.76-.33"/><path class="cls-6" d="M512,578.71c8.93,71.17,22.65,138.37,36.72,208.69l8.92,44.42.32.55a10.46,10.46,0,0,0,7.78,0l.9-.41q10.1-101.46,14.94-203.37c2.28-47.67,3.63-96-6.77-142.59l-1.35,1.33c-15.31,8.89-33.17,12.15-50.81,14-12.46,1.33-25,2-37.52.75s-24.88-4.61-35.71-10.91l.56,2.07c-4.24,35-8.5,70.14-8.73,105.42-.09,14.57.5,29.13,1.19,43.69,2.81,64.73,4.73,124.1,9.27,188.73l.5.42c3.16,1.19,9.89-.59,12.92-2q21.5-141.43,53.54-281l2.52-1.19-5.92.6"/><path class="cls-5" d="M391.12,883.62a422.11,422.11,0,0,0,73.72-13.42V869a332.1,332.1,0,0,0-2.75-34.36l-.22-.4c.45,0,.08.46-.08.87a1.8,1.8,0,0,1-1,.84,7.8,7.8,0,0,1-6.07,0,1.55,1.55,0,0,1-.93-.77c-.15-.39.14-.94.55-.87l-1.28,1.06a27,27,0,0,1-5.75,5.39c-16.93,12.51-36.14,21.58-55,30.94a69.94,69.94,0,0,0-12.26,7.17l.74.77c2.64,1.19,7.87,2.75,10.48,4"/><path d="M516.06,306c.21-.06-.07,0-.08,0h0l.13.09a1.51,1.51,0,0,1,.21.23s.13.17,0,.1c.13.12,0,0,0-.07-.07.09-.2.36-.3.52a3.34,3.34,0,0,1-2.44,1.18,5.73,5.73,0,0,1-3,0,4.57,4.57,0,0,1-1.19-.79,2,2,0,0,1-.44-.51v-.19l-.12.07a.89.89,0,1,0,0-1.78,1.76,1.76,0,0,0-1.62,1.37,2.38,2.38,0,0,0,.7,2,5.34,5.34,0,0,0,3.73,1.78,14,14,0,0,0,1.94-.17,8.84,8.84,0,0,0,2.1-.45,4,4,0,0,0,1.54-1.08,3.15,3.15,0,0,0,.92-1.75c.08-1.19-1.33-2.63-2.57-2.22a.89.89,0,1,0,.48,1.71Z"/><path class="cls-5" d="M539.36,266.69c-1.51-3.73-.51-6.29,0-10.3a42.56,42.56,0,0,0-2.61-20.57,13.21,13.21,0,0,0-1.77-3.34,15.08,15.08,0,0,0-2.62-2.43A19.36,19.36,0,0,0,519.44,225l-8.75-1v-.7a18.25,18.25,0,0,1-3.4,2,35,35,0,0,1-6.41,1.91l-14.35,3.35a1.73,1.73,0,0,0-1.7,1.59c-2.89,11.49,1.88,23.69-.27,35.41a10.6,10.6,0,0,0-.29,4.48l.12.38c4.41,11.21,12.09,21.54,22.85,27a13.06,13.06,0,0,0,4.16,1.46,11.37,11.37,0,0,0,4.91-.58,26.56,26.56,0,0,0,12.93-9.87A71.89,71.89,0,0,0,537,275.84c1.18-2.67,2.47-6.23,2.3-9.15"/><path class="cls-18" d="M557.68,536.52a27.06,27.06,0,0,1-6,6,118.36,118.36,0,0,0,10.44,8.92,9.51,9.51,0,0,0,3.55,2,2.28,2.28,0,0,0,1.88-.5A25.16,25.16,0,0,0,574,546.8c.07-.09-.08-.47.09-.34,3.47,2.7-.51-.58-.86-.78L556.61,535.5Z"/><path class="cls-7" d="M579.17,411.59q-.92-3.68-1.88-7.33c-3.36-12.76-9-24.72-15-36.43-9.77-19.07-20.8-38.38-24.62-59.55a99.78,99.78,0,0,1-13-3.94l-22.23.43c-9,3.69-32.74,11.84-49.32,19q0,14.05.81,28.1c.62,10.41,1.73,20.75,1.7,31.2v3c.27,6,.48,12.05.52,18.08a238,238,0,0,1-3.67,46.76c.65,18.39-9,36-7.3,54.88.44,5,9.2,7.78,18.58,11.85,23.19,9.21,44.55,14.69,69.42,12.74,14.1-1.09,34.72-12,48-17,5.57-35.27,1.46-65.63-1.82-101.17Z"/><path class="cls-12" d="M445.45,503.38c8.65,3.74,18.49,12.59,28,15.55,31.71,9.9,73.87,17.2,106-5.8a.76.76,0,0,1,1.19.72c-.4,3.08.75,7.5.39,10.46-.09.73.07,4.14-.63,4.74-.93.77,1,2-.5,2.2-34.35,5.57-53.88,9.48-78.42,5.54-15.48-2.5-40-10-54.27-14.21a152.61,152.61,0,0,1-1.68-19.21"/><path class="cls-18" d="M468.46,538a27.39,27.39,0,0,0,6,5.92A119.67,119.67,0,0,1,464,552.82a9.79,9.79,0,0,1-3.55,2,2.38,2.38,0,0,1-1.82-.48,25.19,25.19,0,0,1-6.46-6.15c-.07-.08.09-.47-.09-.34-3.47,2.7.51-.57.86-.79l16.58-10.17Z"/><path d="M497.4,372.71q14.93-.25,29.89-.21a.89.89,0,0,0,0-1.78q-15,0-29.89.22a.89.89,0,1,0,0,1.77Z"/><path class="cls-9" d="M496.87,365.78l28.27-.36a8,8,0,0,1,4.15.68,2.79,2.79,0,0,1,1.3,3.56,4,4,0,0,1-3.06,1.4,142.45,142.45,0,0,1-17.77.78h-8.18a11,11,0,0,1-4.27-.55,3.81,3.81,0,0,1-2.52-3.2c0-1.44.72-2.87,2.07-2.37Z"/><path d="M486.64,428.37c-.11,1.65-.14,3.31-.09,5a16.46,16.46,0,0,0,.11,2.36l.11,1.19v1c0,.13,0,.17.26-.09l.38.21-.07.37-.53.06h0c.52.24,1-.53.45-.77h0a.47.47,0,0,0-.55.07c-.5.51.26,1.3.77.75.3-.32.16-.81.11-1.18,0-.62-.12-1.18-.16-1.84a52.57,52.57,0,0,1,0-7.1.44.44,0,0,0-.88,0Z"/><path d="M487.14,433.18c0-.79.85-1.3,1.56-1.45a3.33,3.33,0,0,1,2.48.59,5.63,5.63,0,0,1,2.27,4.19,4.75,4.75,0,0,1-1.44,4.34,5.25,5.25,0,0,1-4.33,1c-.55-.13-.79.73-.23.85a5.53,5.53,0,0,0,6.77-3.94l.06-.24c.5-3.07-1-7.11-4.38-7.65-1.57-.26-3.56.54-3.65,2.37a.45.45,0,0,0,.89,0Z"/><path d="M498.17,437.73a4,4,0,0,0,5.12-1.06c1-1.37,1.3-4-.67-4.74s-3.79,1.3-4.74,2.71a4.49,4.49,0,0,0-.32,5.14c1.28,1.77,3.78,1.58,5.45.52.49-.29,0-1.06-.44-.77a3.44,3.44,0,0,1-3.86.19,3.14,3.14,0,0,1-.56-3.78,7.08,7.08,0,0,1,1.4-1.9,4.21,4.21,0,0,1,2-1.3,1.33,1.33,0,0,1,1.63.81,2.92,2.92,0,0,1-.22,2.09,3.1,3.1,0,0,1-4.17,1.32l-.09,0a.45.45,0,0,0-.58.25.43.43,0,0,0,.13.52Z"/><path d="M510.4,432.65a4,4,0,0,0-3.71,1c-.43.43-.86,1.18-.14,1.6a2.66,2.66,0,0,0,1,.2l1.32.15a10.48,10.48,0,0,1,2.37.39,1.81,1.81,0,0,1,1.08,1.25,2.36,2.36,0,0,1-1.4,2.82,3.59,3.59,0,0,1-2.07.32c-.71-.11-1.68-.6-1.37-1.46.2-.54-.67-.77-.86-.24a1.79,1.79,0,0,0,.58,1.93,3.25,3.25,0,0,0,2,.68,4.1,4.1,0,0,0,3.55-1.66,3.15,3.15,0,0,0,0-3.55c-.93-1.35-2.78-1.27-4.25-1.44a13,13,0,0,0-1.4-.17h0l.24-.25a3.14,3.14,0,0,1,.5-.38,3.17,3.17,0,0,1,2.37-.37c.55.13.79-.72.23-.85Z"/><path d="M516.35,430.51l-.33,9.6a.45.45,0,0,0,.88,0l.34-9.6A.45.45,0,0,0,516.35,430.51Z"/><path d="M527.15,433.41a2.56,2.56,0,0,0-2.74-1.19,4.17,4.17,0,0,0-3.26,1.85,2.21,2.21,0,0,0,.59,3,2.88,2.88,0,0,0,3,.09,4.94,4.94,0,0,0,2.11-3.56H526a28.56,28.56,0,0,1,.36,3.91,5.94,5.94,0,0,1-.71,3.33,2.53,2.53,0,0,1-2.37,1.3,1.57,1.57,0,0,1-1.18-.67c-.18-.32-.23-.79.15-1s.07-1-.45-.77c-1.18.53-.74,2.18.09,2.79a3,3,0,0,0,3.55-.14,5.17,5.17,0,0,0,1.78-3.66,22.32,22.32,0,0,0-.37-5.35.46.46,0,0,0-.57-.29.45.45,0,0,0-.28.29,4.23,4.23,0,0,1-1.65,3,1.86,1.86,0,0,1-2.46-.42c-.75-1.27.84-2.37,1.86-2.65s2.22-.4,2.67.59c.23.52,1,.06.76-.45Z"/><path d="M530.72,434.07a28.86,28.86,0,0,1,.09,6.95h.89a19.21,19.21,0,0,1,.24-3.63,4.19,4.19,0,0,1,1.39-2.73,2,2,0,0,1,2.49-.06,3.35,3.35,0,0,1,.95,2.37,22.83,22.83,0,0,0,.12,4,.44.44,0,0,0,.58.27.45.45,0,0,0,.28-.5,31.36,31.36,0,0,1-.12-4.11,4.12,4.12,0,0,0-1.25-2.76,2.73,2.73,0,0,0-3-.27,4.23,4.23,0,0,0-2.1,2.76,16.37,16.37,0,0,0-.44,4.63c0,.58.83.55.89,0a29.81,29.81,0,0,0-.12-7.19.45.45,0,0,0-.86.23Z"/><path d="M542.12,437.22a6,6,0,0,0,5.76-.87,2.57,2.57,0,0,0,.81-2.14,2,2,0,0,0-1.49-1.75,5.22,5.22,0,0,0-2.84.39,7.51,7.51,0,0,0-2.26,1.38c-1.32,1.18-2.46,3.08-1.28,4.73a3.78,3.78,0,0,0,2.56,1.53,9.09,9.09,0,0,0,3.73-.45.45.45,0,0,0,.26-.58.44.44,0,0,0-.5-.28c-1.52.42-3.41.91-4.74-.16a2.13,2.13,0,0,1-.9-1.7,3.55,3.55,0,0,1,1-2,6.35,6.35,0,0,1,3.7-2c.65-.11,1.48-.14,1.78.58a1.55,1.55,0,0,1-.31,1.63,3.6,3.6,0,0,1-2.08,1,6.14,6.14,0,0,1-3-.21c-.55-.18-.78.69-.24.85Z"/><path d="M551.41,433.82a32.69,32.69,0,0,1-.18,5.77.45.45,0,0,0,.88.12,22.87,22.87,0,0,1,1-4c.39-1,1.31-2.16,2.53-1.91.56.12.81-.73.24-.85a3.19,3.19,0,0,0-3.38,2,10.21,10.21,0,0,0-.71,2.08c-.2.82-.39,1.65-.56,2.48l.88.12a32.69,32.69,0,0,0,.18-5.77c0-.57-.93-.57-.89,0Z"/><path class="cls-9" d="M562.4,415.6a2.43,2.43,0,0,0-.73-1.18,2.89,2.89,0,0,0-1.19-.52,4.44,4.44,0,0,0-2.79,0,2.78,2.78,0,0,0-1.78,2.06l.13.14q-11.44.45-22.87.81a.51.51,0,0,1-.19-1c9.56-3.24,19.72-10.11,23.49-17.93a17.75,17.75,0,0,0,2-9.48l.22-.61a3.56,3.56,0,0,0,1.78-6.41,4.38,4.38,0,0,0-1.19-.63,5.13,5.13,0,0,0-3.85,0,3.57,3.57,0,0,0-2.13,3.07,2.71,2.71,0,0,0,2.37,2.69v.59c.18,7.4-4,14.45-9.84,19S531.26,414,524,415.36l.91.4a7.34,7.34,0,0,1,.17,1.4l-12.42.36a7,7,0,0,1,.17-1.76l.91-.4c-7.27-1.4-16.07-4.54-21.89-9.12s-10-11.64-9.83-19v-.59a2.71,2.71,0,0,0,2.37-2.69,3.57,3.57,0,0,0-2.13-3.07,5.13,5.13,0,0,0-3.85,0,4.38,4.38,0,0,0-1.19.63,3.56,3.56,0,0,0,1.78,6.41l.24.61a17.65,17.65,0,0,0,2,9.48c4.1,8.52,15.8,15.91,26.06,18.7a.53.53,0,0,1,.35.65.51.51,0,0,1-.47.37q-12.21.33-24.41.62l-.08-.54a5.34,5.34,0,0,0-3.17-2.26,2.89,2.89,0,0,0-3.41,4.09,3.77,3.77,0,0,0,2.63,2.37,3.07,3.07,0,0,0,3.18-1.26c.23-.37.4-.82.78-1a1.68,1.68,0,0,1,1.35.13h.15c23.69.13,47.38.26,71.08-1.19l.34-.59a3.65,3.65,0,0,0,6.85-2.52Z"/><path class="cls-9" d="M497.08,372.23q15.39.34,30.79-.67v-.28a88.35,88.35,0,0,1,9.48,9.77,23,23,0,0,0-9.58,11.66,68.72,68.72,0,0,0-3.68,14.89l-9.92.28a1.2,1.2,0,0,1-.7-.12A1.25,1.25,0,0,1,513,407c-1.19-3.71-4-9-5.76-12.47-3.55-7.22-8.75-9-15.62-13.21,1.6-2.92,3.74-7.11,5.92-9.68"/><path class="cls-5" d="M508.57,317.75h0a23.43,23.43,0,0,1,0,2.65c0,.69-.1,0-.08-1.1v29.76"/><path class="cls-5" d="M517.79,321.7c-.26-.31-1-1.85-1.28-2.16a2,2,0,1,1,1.35,2.56c1.19,11.3,2.46,13.3,2.52,24.67"/><path class="cls-7" d="M566.16,519.77c.34-5.92-.44-11.38-.1-17.27a13,13,0,0,0-1.6-8.5L546.6,456.54l-.09-1.81q-31.37,0-62.63-2.65l-.21.43a136.07,136.07,0,0,1-17.77,36.9,16.07,16.07,0,0,0-2.23,4,15.7,15.7,0,0,0-.53,4.26c-.18,6.08-.34,9.9-.52,16"/><path class="cls-19" d="M510.59,320c.25-.33,0-.8-.33-1.11-1.19-1.19-2.62-1.87-3.8-3a17.27,17.27,0,0,1-3.33-4.87c-.77-1.47-1.56-3.18-1-4.74a3.81,3.81,0,0,1,2.44-2.13,8.16,8.16,0,0,1,3.37-.26h.26a5.92,5.92,0,0,0-4.74-1.68,10,10,0,1,0,.64,19.93,9.8,9.8,0,0,0,3.25-.65,17.94,17.94,0,0,1,4.2-1.54"/><path class="cls-19" d="M517.92,319.32c3.11-3.19,6.58-6.44,7.63-10.76a5.71,5.71,0,0,0,.13-2.63,3,3,0,0,0-1.49-2.1,4.63,4.63,0,0,0-1.64-.39,30.69,30.69,0,0,0-6.21,0v-.29a15.73,15.73,0,0,1,10.61-.66,8.17,8.17,0,0,1,4.89,6.78,11.41,11.41,0,0,1-2.62,8.16c-1.51,1.91-3.75,3.56-6.18,3.33s-4.63-1.88-6.86-1.18"/><path class="cls-12" d="M515.83,303.1a7.92,7.92,0,0,1,1.38,2.37,2.73,2.73,0,0,1-.49,2.63,4.18,4.18,0,0,1-1.39.79,9.85,9.85,0,0,1-4.08.85,4.07,4.07,0,0,1-3.44-2,2.62,2.62,0,0,1,1.13-3.53l.05,0,.19-.61a17.55,17.55,0,0,1-3.55,0,4.12,4.12,0,0,0-3.25,1.12c-1.28,1.49-.45,3.79.57,5.47a24,24,0,0,0,10.77,10,2.45,2.45,0,0,0,3.16-.51,30.13,30.13,0,0,0,7.84-11.77c.51-1.19.88-2.82-.13-3.65a3,3,0,0,0-1.25-.51,20.63,20.63,0,0,0-6.6-.41"/><path class="cls-5" d="M516,301.42c-.12,1.8-.55,5.73-.66,7.53l-4.94.52-.72-8.56"/><path class="cls-7" d="M495.57,307.74a304.73,304.73,0,0,0-50.76,20.67,16.62,16.62,0,0,0-10.19,11.75,486.61,486.61,0,0,0-24.88,98.32,41.26,41.26,0,0,0-.57,10.29,43.84,43.84,0,0,0,2.56,9.41c11,31.39,22,63.05,39.3,91.49v-.11a35.1,35.1,0,0,0,20.83-11.5l-.83-2a651.43,651.43,0,0,1-20.84-78.17,46.16,46.16,0,0,1-1.18-10,47.35,47.35,0,0,1,1.27-9l6.87-32.31"/><path class="cls-7" d="M532.67,306a304.47,304.47,0,0,1,50.76,20.69,16.63,16.63,0,0,1,10.18,11.76,485.69,485.69,0,0,1,24.88,98.31,40.25,40.25,0,0,1,.57,10.28,42.18,42.18,0,0,1-2.5,9.38c-11,31.41-22,63.07-39.29,91.5l.06-.11a35.22,35.22,0,0,1-20.83-11.49l.83-2a649.18,649.18,0,0,0,20.83-78.18,46.07,46.07,0,0,0,1.18-10,47.6,47.6,0,0,0-1.31-9l-6.87-32.34"/><path class="cls-5" d="M476.89,541.72l-23.56,20.14"/><path class="cls-5" d="M550.12,540.8c3.82,2,6.25,5.92,9.66,8.56a49.55,49.55,0,0,0,4.74,3A44.07,44.07,0,0,1,571.7,558"/><path class="cls-10" d="M484.77,243.49a10.33,10.33,0,0,0-2.37,4,15,15,0,0,0-.79,5.4c0,3.42,1.29,3.93,1.45,7,.23,4.26.82,6.52,1.05,10.78-2.48-8.56-14.75-18.59-13.6-27.41s5-17.5,11.84-23.3a42,42,0,0,1,6.15-4.28A56.64,56.64,0,0,1,511,207.91a40,40,0,0,1,23.37,4.22c4.14,2.25,8.15,5.92,8.29,10.66l.57.29A26.39,26.39,0,0,1,549.75,235c1.09,4.49-3.55,11-3.67,15.59-.14,5.11-2.5,10.66-3.35,15.7-.33,1.95-.17,2.54-1.46,3.3,0,.23-1.73.44-2.11-.6a18.38,18.38,0,0,1-.65-6.8c.07-1.19,1.52-8.46.45-9.06-3.74-2.13-1.8-7.39-.22-13.53l-.49.44a58.14,58.14,0,0,1-27.43,11.36,2.77,2.77,0,0,1-2-.24,22,22,0,0,0,5-8.59l-.46-.06a108,108,0,0,1-31.5,9.85,75.85,75.85,0,0,1,2.88-8.83"/></g></g></g></svg>