<svg xmlns="http://www.w3.org/2000/svg" viewBox="0 0 1000 1000"><defs><style>.cls-1{fill:#f1f5fc;}.cls-2{fill:#e6eefb;}.cls-3{fill:#f4f4f4;}.cls-19,.cls-4,.cls-5{fill:#fff;}.cls-4{stroke:#f4f4f4;}.cls-10,.cls-11,.cls-12,.cls-13,.cls-14,.cls-15,.cls-16,.cls-20,.cls-4,.cls-5,.cls-6,.cls-7,.cls-8,.cls-9{stroke-miterlimit:10;}.cls-10,.cls-11,.cls-12,.cls-13,.cls-14,.cls-15,.cls-16,.cls-20,.cls-5,.cls-6,.cls-7,.cls-8,.cls-9{stroke:#000;}.cls-6{fill:#2d388e;}.cls-18,.cls-7{fill:#a6c9f5;}.cls-8{fill:#ffbe21;}.cls-9{fill:#e96181;}.cls-10{fill:#1c6685;}.cls-11{fill:#f5f6f9;}.cls-12{fill:#d8e7fa;}.cls-13{fill:#2b2726;opacity:0.84;}.cls-14{fill:#707070;}.cls-15{fill:#a6c8f7;}.cls-16{fill:#fcfcfc;}.cls-17{fill:#a5c9f4;}.cls-20{fill:#b7a81d;}</style></defs><g id="Layer_36" data-name="Layer 36"><path class="cls-1" d="M891.26,516.65c50,24.67,83.39,79.68,82.22,135.4-.39,18.68-4.48,37.55-13.93,53.67-13.5,23-36.64,38.57-59.94,51.54-27.9,15.53-58,28.73-89.89,30.6-14.89.87-29.79-.76-44.7-1.38-30.18-1.24-61.63,2-87.69,17.32-17.43,10.23-31.87,25.49-50.51,33.3-25,10.48-54.17,5.84-79-5.09-25.49-11.22-49.56-31.08-55.38-58.32-4.08-19.09,1.5-39.28,11.55-56s24.29-30.52,38.8-43.59c12.82-11.54,26-22.73,40.48-32.15,42.23-27.54,92.78-38.75,138.88-59.15a373.07,373.07,0,0,0,86.33-53.31c10.07-8.31,20-17.35,32.33-21.76a50.35,50.35,0,0,1,49.63,9.72"/><path class="cls-1" d="M259.28,593.37c-16.65,2.66-33.44,3.83-50,.85-54.63-9.85-107.41-36.68-141.7-80.33s-47.66-105-27.64-156.77c13.79-35.64,42-64.57,75.15-83.65s70.88-28.91,108.81-33.58c28.45-3.51,57.31-4.24,85.36-10.22a233.07,233.07,0,0,0,93.27-43.15c22-17,41-37.9,64.33-53,40.58-26.34,93-32.9,139.32-18.93s85.94,47.82,108.46,90.62c8.76,16.64,15.1,34.83,16,53.6,1.65,33.25-13.73,65.18-33.45,92-42.23,57.45-104,97.06-165.6,132.91C442.3,535.62,361.29,577.1,259.28,593.37Z"/><path class="cls-2" d="M407.75,278.84c40.45,5.21,80.63,13.59,121.4,14.59,49.77,1.22,99.1-8.59,148.77-12s102,.42,144.65,26.16a155.93,155.93,0,0,1,54.88,56.52c35.64,63.1,22.89,143.07-6,209.55-17.3,39.87-40.68,78.24-74.74,105.23C773,697.72,745,710.35,716.05,719.3c-79.47,24.62-165.22,22.2-247.08,7.35-71.19-12.91-142.28-35.85-199.37-80.3s-98.51-113.14-96.89-185.48c.65-28.75,7.88-56.92,15.94-84.53,4.4-15.11,9.17-30.35,17.61-43.64,15.09-23.76,40.66-39.12,67.17-48.57A225,225,0,0,1,410.71,280"/><path class="cls-2" d="M211.16,210.77c-18.09-2.61-31.94-20.3-32.62-38.57s10.3-35.82,25.71-45.64S238.86,114,257,116.27c33.74,4.17,64.88,25.59,80.85,55.6,3.22,6,5.89,12.58,6.15,19.43s-2.22,14.08-7.7,18.19c-5,3.76-11.59,4.43-17.82,5-35.84,3.1-72.53,6.14-107.32-3.05Z"/><path class="cls-3" d="M107.53,674.58c.13-.23.26-.46.41-.68a3.62,3.62,0,0,1,.22-.32l.1-.15s.15-.18.06-.07a10.27,10.27,0,0,1,1-1.14c.18-.17.37-.33.57-.49,0,0,.18-.14.07-.06l.14-.1.33-.23a9.64,9.64,0,0,1,1.37-.77.76.76,0,0,0,.27-1,.79.79,0,0,0-1-.27,10.76,10.76,0,0,0-4.84,4.55.75.75,0,1,0,1.29.76Z"/><path class="cls-3" d="M119.87,667.24a11.65,11.65,0,0,1,6.3-2,.75.75,0,0,0,0-1.5,13.17,13.17,0,0,0-7.06,2.21.78.78,0,0,0-.27,1,.76.76,0,0,0,1,.27Z"/><path class="cls-3" d="M134.19,665.35l6.11.6a.76.76,0,0,0,.75-.75.77.77,0,0,0-.75-.75l-6.11-.6a.75.75,0,1,0,0,1.5Z"/><path class="cls-3" d="M100.81,681.65A13,13,0,0,0,98.39,689a.75.75,0,0,0,1.5,0,11.52,11.52,0,0,1,2.22-6.62.75.75,0,1,0-1.3-.76Z"/><path class="cls-3" d="M97.06,698.49a20.51,20.51,0,0,0,.44,6,.75.75,0,1,0,1.44-.4,19.5,19.5,0,0,1-.38-5.6.75.75,0,0,0-1.5,0Z"/><path class="cls-3" d="M100.05,714.88a22.83,22.83,0,0,0,3.66,6.6.75.75,0,1,0,1.06-1.06,20.53,20.53,0,0,1-3.27-5.94.78.78,0,0,0-.93-.52.75.75,0,0,0-.52.92Z"/><path class="cls-3" d="M107.79,726.38a46.17,46.17,0,0,0,4.52,5.35c.67.69,1.73-.37,1.06-1.06a43.68,43.68,0,0,1-4.28-5,.77.77,0,0,0-1-.27.75.75,0,0,0-.27,1Z"/><path class="cls-3" d="M119.4,735.75a53.69,53.69,0,0,0,7.31,3.15c.92.31,1.31-1.13.4-1.45a50.83,50.83,0,0,1-7-3c-.85-.45-1.61.85-.75,1.29Z"/><path class="cls-3" d="M136.08,739.8a23.53,23.53,0,0,1,6.26-.63c1,0,1-1.46,0-1.5a25.26,25.26,0,0,0-6.66.68c-.94.23-.54,1.67.4,1.45Z"/><path class="cls-3" d="M149.76,735.89a6.58,6.58,0,0,0,4-1.57.75.75,0,0,0,0-1.06.77.77,0,0,0-1.06,0l-.18.15c.16-.12-.05,0-.08.05s-.25.17-.38.25l-.41.22-.21.09c.18-.06,0,0-.06,0a6.5,6.5,0,0,1-.86.25l-.22,0-.12,0c.11,0,.11,0,0,0l-.46,0a.76.76,0,0,0-.75.75.77.77,0,0,0,.75.75Z"/><path class="cls-3" d="M162.4,727.24l3.42-3.57a.75.75,0,0,0,0-1.06.76.76,0,0,0-1.06,0l-3.42,3.57a.75.75,0,0,0,0,1.06.76.76,0,0,0,1.06,0Z"/><path class="cls-3" d="M170.54,712.66l.74-1.72a.66.66,0,0,0,.09-.27.61.61,0,0,0,0-.3.71.71,0,0,0-.34-.45.79.79,0,0,0-.58-.08.75.75,0,0,0-.45.35l-.73,1.71a.49.49,0,0,0-.09.28.61.61,0,0,0,0,.3.82.82,0,0,0,.35.45.73.73,0,0,0,.58.07.69.69,0,0,0,.44-.34Z"/><path class="cls-3" d="M171.08,699.57l-.91-4a.75.75,0,1,0-1.45.39l.91,4a.75.75,0,0,0,1.45-.4Z"/><path class="cls-3" d="M169.33,688.71a8.58,8.58,0,0,0-3.4-4.7.75.75,0,0,0-1,.26.76.76,0,0,0,.27,1l.27.2h0l.13.11a6.14,6.14,0,0,1,.47.42c.16.16.31.32.46.49a2.11,2.11,0,0,0,.19.23c.05.07-.06-.08,0,0a1.13,1.13,0,0,1,.1.13,8,8,0,0,1,.65,1.09l.13.27c.09.2,0-.08,0,0a.94.94,0,0,1,.06.15c.08.21.15.42.22.64a.75.75,0,1,0,1.44-.4Z"/><path class="cls-3" d="M160.19,675.8,157.35,673a.75.75,0,0,0-1.06,0,.77.77,0,0,0,0,1.06l2.83,2.82a.75.75,0,0,0,1.07-1.06Z"/><path class="cls-3" d="M151,666.91l-.52-.45a.61.61,0,0,0-.24-.15.59.59,0,0,0-.29-.07.57.57,0,0,0-.29.07.55.55,0,0,0-.24.15l-.12.15a.75.75,0,0,0-.1.38l0,.2a.7.7,0,0,0,.2.33l.52.45a.61.61,0,0,0,.24.15.64.64,0,0,0,.58,0A.61.61,0,0,0,151,668l.12-.16a.69.69,0,0,0,.1-.37l0-.2a.69.69,0,0,0-.19-.33Z"/><ellipse class="cls-4" cx="217.89" cy="727.75" rx="24.69" ry="23.63" transform="translate(-540.76 767.17) rotate(-76.31)"/><ellipse class="cls-2" cx="106.05" cy="595.98" rx="23.63" ry="24.69"/><ellipse class="cls-4" cx="851.14" cy="231.04" rx="23.63" ry="24.69"/><path class="cls-3" d="M748.23,165.68a9,9,0,0,1,1.22-2.72,9.49,9.49,0,0,1,2-2.19.76.76,0,0,0,0-1.06.75.75,0,0,0-1.06,0,10.68,10.68,0,0,0-3.63,5.57.75.75,0,0,0,1.45.4Z"/><path class="cls-3" d="M758.48,155.63a11.64,11.64,0,0,1,5.66-3.44.75.75,0,0,0-.4-1.45,13.1,13.1,0,0,0-6.32,3.83.76.76,0,0,0,0,1.06.75.75,0,0,0,1.06,0Z"/><path class="cls-3" d="M772,150.41l6.08-.86a.75.75,0,0,0,.52-.92.78.78,0,0,0-.92-.53l-6.08.87a.74.74,0,0,0-.52.92.77.77,0,0,0,.92.52Z"/><path class="cls-3" d="M743.36,174.17a13.08,13.08,0,0,0-.6,7.75c.22.94,1.66.54,1.45-.4a11.57,11.57,0,0,1,.6-7,.75.75,0,0,0-1.45-.4Z"/><path class="cls-3" d="M743.71,191.43a20.63,20.63,0,0,0,1.85,5.71.75.75,0,1,0,1.29-.76,19.39,19.39,0,0,1-1.69-5.35.75.75,0,1,0-1.45.4Z"/><path class="cls-3" d="M750.5,206.63a22.12,22.12,0,0,0,5,5.42.76.76,0,0,0,1.06,0,.75.75,0,0,0,0-1.06,21.08,21.08,0,0,1-4.73-5.11.77.77,0,0,0-1-.27.75.75,0,0,0-.27,1Z"/><path class="cls-3" d="M760.75,216a47.52,47.52,0,0,0,5.65,4.13.75.75,0,1,0,.76-1.3,43.47,43.47,0,0,1-5.35-3.89.77.77,0,0,0-1.06,0,.75.75,0,0,0,0,1.06Z"/><path class="cls-3" d="M774.25,222.32a53.52,53.52,0,0,0,7.86,1.32.76.76,0,0,0,.75-.75.78.78,0,0,0-.75-.75,51.11,51.11,0,0,1-7.47-1.26.75.75,0,0,0-.39,1.44Z"/><path class="cls-3" d="M791.41,222.29a23.42,23.42,0,0,1,5.94-2.08.75.75,0,0,0-.4-1.45,25.17,25.17,0,0,0-6.3,2.24.75.75,0,0,0-.27,1,.76.76,0,0,0,1,.27Z"/><path class="cls-3" d="M803.78,215.26a6.56,6.56,0,0,0,3.52-2.48.76.76,0,0,0-.27-1,.78.78,0,0,0-1,.27.86.86,0,0,1-.07.1c-.06.08.12-.14,0,0l-.13.17-.32.33-.34.31a.31.31,0,0,0-.09.07s.11-.09,0,0a1.33,1.33,0,0,1-.19.14,6,6,0,0,1-.77.45l-.11.05s-.16.07,0,0l-.05,0-.09,0a3.53,3.53,0,0,1-.46.15.75.75,0,0,0,.4,1.45Z"/><path class="cls-3" d="M814,203.86l2.48-4.28a.75.75,0,1,0-1.29-.76l-2.49,4.28a.75.75,0,0,0,1.3.76Z"/><path class="cls-3" d="M818.46,187.76l.31-1.84a.83.83,0,0,0-.08-.58.77.77,0,0,0-.45-.34.75.75,0,0,0-.92.52l-.31,1.84a.83.83,0,0,0,.08.58.77.77,0,0,0,.45.34.73.73,0,0,0,.92-.52Z"/><path class="cls-3" d="M815.87,174.92,814,171.23a.75.75,0,0,0-1-.27.77.77,0,0,0-.27,1l1.84,3.68a.74.74,0,0,0,1,.27.76.76,0,0,0,.27-1Z"/><path class="cls-3" d="M811.6,164.78a8.71,8.71,0,0,0-4.42-3.76.75.75,0,0,0-.92.53.77.77,0,0,0,.52.92l.17.07c-.06,0-.08,0,0,0l.31.15c.19.09.38.2.57.31l.52.34.12.09c.06.05.1.09,0,0a2.75,2.75,0,0,1,.26.22,8.5,8.5,0,0,1,.9.9l.09.13c0,.05.08.1,0,0l.18.26c.13.18.25.38.37.57a.74.74,0,0,0,1,.27.75.75,0,0,0,.27-1Z"/><path class="cls-3" d="M799.66,154.41l-3.42-2.07a.75.75,0,0,0-1,.27.76.76,0,0,0,.27,1l3.42,2.08a.75.75,0,0,0,.76-1.3Z"/><path class="cls-3" d="M788.63,147.94l-.62-.31a.66.66,0,0,0-.28-.09.74.74,0,0,0-.55.15.48.48,0,0,0-.19.21l-.08.18a.9.9,0,0,0,0,.4l.08.18a.7.7,0,0,0,.27.27l.61.31a.57.57,0,0,0,.28.08.51.51,0,0,0,.3,0,.55.55,0,0,0,.25-.13.8.8,0,0,0,.2-.21l.07-.18a.68.68,0,0,0,0-.4l-.07-.18a.87.87,0,0,0-.27-.27Z"/></g><g id="Layer_28" data-name="Layer 28"><g id="Layer_24" data-name="Layer 24"><path class="cls-5" d="M161.38,298.6A54.12,54.12,0,0,1,141.85,288a19.71,19.71,0,0,1-5.42-6.54A21,21,0,0,1,135,276a88.22,88.22,0,0,1-1.07-15.14,2.19,2.19,0,0,1-2.66-1,6.4,6.4,0,0,1-.66-3l-.39-7.56a3.63,3.63,0,0,1,.23-1.85,1.24,1.24,0,0,1,1.56-.65c.4.21.58.67.82,1.05a2.86,2.86,0,0,0,1.49,1.16,32.13,32.13,0,0,0,1.08-10.37,10.41,10.41,0,0,1,.17-3.78c.75-2.41,3.32-3.72,5.74-4.44,6.12-1.83,12.68-1.51,19-.66s12.61,2.22,19,2.45c2.81.1,5.62,0,8.42.25l.13.2c1.37,4.36,2.77,8.87,2.27,13.41-.3,2.74-1.27,5.39-1.28,8.14,1.76-.34,2.77-2.77,4.56-2.62a2.42,2.42,0,0,1,1.95,1.92,6.94,6.94,0,0,1-.12,2.9l-1.59,8.92c-.11.58-.27,1.24-.8,1.49-.84.39-1.69-.6-1.87-1.51-2.54,6.49-1.13,14.39-5.16,20.07a23.62,23.62,0,0,1-4.1,4.14,51.35,51.35,0,0,1-9.52,6.88,19.12,19.12,0,0,1-11.34,2.32"/></g><g id="Layer_26" data-name="Layer 26"><path class="cls-6" d="M165.27,461.53l-10,290.54c3.16-95.87,6.68-193.79,9.37-289.67l.13.05-52.62,5.95a3.13,3.13,0,0,0-2,.73,3.17,3.17,0,0,0-.63,2l-1.06,12.16.29-3.67q10.53,132.06,33.82,262.7c.6,3.35,1.25,6.82,3.2,9.61,2.27,2,6.94,1.34,9.55-.24"/><path class="cls-6" d="M208.34,457.06l-10,290.42c3.16-95.86,6.68-193.67,9.36-289.55l.14.05-52.62,5.95a2.39,2.39,0,0,0-2.66,2.69l-1.06,12.16.29-3.67q10.53,132.06,33.82,262.7c.6,3.35,1.25,6.82,3.2,9.61,2.27,2,6.94,1.34,9.54-.24"/><path class="cls-5" d="M148.24,753.18v2.44l4.87.2v-2.43"/><path class="cls-5" d="M191,748.9l.3,2.92-.21-.09c-.51.09-1.16.44-1,.92a.8.8,0,0,0,.47.37,6.93,6.93,0,0,0,6.46-.57.73.73,0,0,0-.88-.38l-.34.14a12.54,12.54,0,0,0,.11-3.57"/></g><g id="Layer_25" data-name="Layer 25"><path class="cls-7" d="M135,423.16c7.55,8.27,18.52,12.45,29.29,15.49,16.77,4.74,34.28,7.4,51.66,6.08,3-8.43,3.25-17.55,3.27-26.5a568.53,568.53,0,0,0-7.3-91.76c-12.12-6.65-25.83-14.11-38-20.76a18.24,18.24,0,0,0-6.67-2.58,17.37,17.37,0,0,0-6.81,1.1,185,185,0,0,0-18,6.63l10.5-5.09Q130.58,317.25,107.88,328l-.37.41a301.52,301.52,0,0,0-26.2,107.45l.31-.12a494.56,494.56,0,0,0,100.62-30.43l.5-.31a7.53,7.53,0,0,1,3-7.81l-.32-.26c-5.18-2.45-11.07-2.84-16.79-3.16q-25.86-1.46-51.75-2"/><path class="cls-7" d="M136.86,525.47c4.42-19.17,6-39.06,7.55-58.67,2.42,19,5.44,40.71,6.22,59.85,10.44-.64,22.56,3.74,33,3.57,7-.1,13.8-2,20.52-3.92,1.17-.34,2.6-1,2.46-2.24a274.2,274.2,0,0,0,1-78.29l-.52.19c-12.5-.95-24.29-1.85-36.44-4.92s-24-8.36-33.08-17a4.28,4.28,0,0,0-1.42-1,4.12,4.12,0,0,0-2.72.34,178.82,178.82,0,0,1-29.58,8l-.5.05a732.24,732.24,0,0,0-5.87,83.71,6.43,6.43,0,0,0,.6,3.46,5.93,5.93,0,0,0,2.12,1.85c10.55,6.46,24.88,8,36.77,4.62"/><path d="M185.25,398.2a1.91,1.91,0,0,1,.16.32l-.07-.18a2.66,2.66,0,0,1,.17.63l0-.2a3.21,3.21,0,0,1,0,.62l0-.2a1.2,1.2,0,0,1,0,.2.77.77,0,0,0,.07.58.75.75,0,0,0,.45.35.78.78,0,0,0,.58-.08.74.74,0,0,0,.34-.45,3.22,3.22,0,0,0-.36-2.35.81.81,0,0,0-.45-.34.78.78,0,0,0-.58.07.76.76,0,0,0-.27,1Z"/><path d="M183.23,404.18a4.62,4.62,0,0,0,3.63-3.8c.14-1.05,0-2.39-1.16-2.8a1.88,1.88,0,0,0-1.61.25,3.16,3.16,0,0,0-1,1.31,11.75,11.75,0,0,0-1,3.76.75.75,0,0,0,1.5,0,10.22,10.22,0,0,1,.6-2.47,5.86,5.86,0,0,1,.52-1.07c0-.09,0-.05.11-.14s.18-.16.12-.12l.09-.05c.1-.06-.09,0,0,0l.11,0c.13,0,0,0,.05,0h.11c-.15,0,0,0,0,0s-.09-.07,0,0-.05-.08,0,0,0,0,0,0,.05.08.07.13,0-.1,0,0a1.21,1.21,0,0,1,.05.18l0,.15s0-.11,0,0,0,.16,0,.25a1.93,1.93,0,0,1,0,.24.61.61,0,0,1,0,.14c0,.12,0-.11,0,0a2.68,2.68,0,0,1-.11.49c0,.07-.05.15-.08.23s0,.05,0,0l-.06.13a3.7,3.7,0,0,1-.25.43,1.88,1.88,0,0,1-.16.23c.07-.1-.09.1-.11.12a5.14,5.14,0,0,1-.41.4s-.11.09,0,0l-.12.09-.24.15-.25.13-.12.06c.09,0,0,0-.06,0a2.91,2.91,0,0,1-.58.15.75.75,0,0,0,.4,1.45Z"/><path d="M184.77,399.6l-1.69,2.9a.75.75,0,0,0,.27,1,.76.76,0,0,0,1-.27l1.68-2.89a.75.75,0,1,0-1.29-.76Z"/></g><g id="Layer_27" data-name="Layer 27"><path class="cls-5" d="M129.17,392c-4.08-1.57-9.2.69-12.83-1.75a45.06,45.06,0,0,1-1.31-8.16c3.17,0,7.67-.65,10.77,0a82.9,82.9,0,0,0,3.41,9.6"/><path class="cls-5" d="M201.27,408.13c.64-1.67,1.07-4.46.46-6.14l-.82-.38a15.44,15.44,0,0,0-7.31-2.41l-8.22.32c.8.53,1.12.15,1.71.9h0a7.22,7.22,0,0,1,4.27-.93l1.1.43a9.71,9.71,0,0,1,4.48,3.37A73.55,73.55,0,0,1,204.63,414l.24.55a16.25,16.25,0,0,1-5.7,5.12A43.55,43.55,0,0,1,192,422.7l-.33.21a6.3,6.3,0,0,1-3.22-2.73q-4-5.56-7.54-11.47h0a17.24,17.24,0,0,1,3.36-6.14l.43-.28c-.68-.67-.64-.91-1.32-1.58"/></g><g id="Layer_23" data-name="Layer 23"><path class="cls-8" d="M133.74,249.76c1.78-4.18,1.62-9,3.79-13,2.42-4.44,7.4-7,12.41-7.71s10.08.26,15,1.39,9.86,2.47,14.91,2.56a49.75,49.75,0,0,0,14.3-2.28c3.55-1,7.51-2.59,8.69-6.07a9.78,9.78,0,0,0,.11-4.78,26.81,26.81,0,0,0-20.42-21.08,39.52,39.52,0,0,0-13.29-.1,80.29,80.29,0,0,0-19.08,5c-7.41,3-14.75,7.44-18.28,14.6-3.18,6.44-2.75,14.24-.17,20.94,1,2.59,2.31,5.32,1.59,8-.26.95-.55,2.32.39,2.59Z"/><path class="cls-8" d="M188.51,233.45a13.49,13.49,0,0,1,.55,8.71,11.51,11.51,0,0,0-.63,2.88,2.49,2.49,0,0,0,1.37,2.41c1.33.51,2.65-.67,3.58-1.74a36.72,36.72,0,0,0,4.78-6.41,12.34,12.34,0,0,0,1.57-7.72c-.15-.9-.59-1.93-1.49-2.08a2.38,2.38,0,0,0-1.28.25c-2.74,1.11-5.39,2.78-8.34,2.71Z"/><path class="cls-5" d="M164.51,250.91c7-.68,15.3-1.06,22.31-1.58a1.19,1.19,0,0,1,1.63,1.24c.33,4.61-.61,9.21-1.54,13.73a1.3,1.3,0,0,1-.29.7,1.32,1.32,0,0,1-.72.32c-4.85,1-9.88.53-14.81,0a6.29,6.29,0,0,1-2.46-.58c-1.64-.88-2.18-2.95-2.5-4.8-.45-2.7-1-6.64-1.22-9.37"/><path class="cls-5" d="M158.06,250.52c-6.77-.67-14.87-1.11-21.66-1.62a1.51,1.51,0,0,0-1.29.3,1.46,1.46,0,0,0-.28.92c-.32,4.52.59,9,1.49,13.45a1,1,0,0,0,1,1c4.7,1,9.57.52,14.35,0A6.49,6.49,0,0,0,154,264c1.59-.87,2.11-2.9,2.42-4.71.44-2.64,1.14-6.64,1.33-9.32"/><path class="cls-5" d="M164.91,254.79q-3.78.08-7.56,0"/><path class="cls-7" d="M169.23,300.74l4.88,3.38c.4.27,2.4,2.13,1.58,1.83-.31-.11-.33.53-.42.85-.76,2.77-2.82,4.58-5.18,6.22a5,5,0,0,1-2.65,1c-1.69,0-3.05-1.32-4.2-2.56a10.58,10.58,0,0,1-2.92-4.49,13,13,0,0,0,5-2.24,24.34,24.34,0,0,0,3.69-4Z"/><path class="cls-7" d="M158.33,300.5l-3.21,1.61a31,31,0,0,0-3.14,1.74.91.91,0,0,0-.45.5,1,1,0,0,0,0,.42,12.85,12.85,0,0,0,2.2,4.63.72.72,0,0,0,.52.37.79.79,0,0,0,.35-.13,31.32,31.32,0,0,0,3.29-2.19.89.89,0,0,0,.3-.31,1,1,0,0,0,.05-.39,25.39,25.39,0,0,1,.71-5.82Z"/><path class="cls-7" d="M146.56,376.41c5-20.22,14.39-40.24,23.17-59.14a62.28,62.28,0,0,1,6.07-11l.16-.05a79.6,79.6,0,0,1,18.75,12.59l-28,36.82c-3,4-6,8-8.88,12.07s-5.38,8.2-7.79,12.48l-.42-.19a14.26,14.26,0,0,0-3-4"/><path class="cls-7" d="M142.38,311.14c-3.14,6.78-4.61,15.25-6.75,22.4a19,19,0,0,0-.87,3.71c-.22,2.45.66,4.85,1.5,7.16q5.4,14.8,9.42,30.07c.16.61.73,1,1.15,1.45l.34-.21c.67-2.16.69-4,1.36-6.14a6,6,0,0,0,.13-3.88c-1.48-7.18-3-14.4-3.38-21.73a37.42,37.42,0,0,1,.11-6.08,45.79,45.79,0,0,1,2.15-8.65q3-9.17,6.34-18.21a19.4,19.4,0,0,1-2.78-4.26l.07-.21c-3.25,1.24-5.78,3.83-9,5.09"/><path class="cls-5" d="M159.46,297.91c2.48.77,6,1.82,8.79.22h.22a16.94,16.94,0,0,0-.4,3.55l-.21.42c-2.29,1.24-4.11,2.41-6.41,3.64-.83.44-2.17,2-3,1.64l.21-1.41a32.21,32.21,0,0,0,.82-8.07"/><path class="cls-9" d="M157.74,320.65l2.22.19a.46.46,0,0,0,.26,0,.54.54,0,0,0,.23-.32l1.26-3.48a12.63,12.63,0,0,1,1.88-3.76l-.46-.76a7.26,7.26,0,0,1-2.46-3.25A2.42,2.42,0,0,0,160,308c-.7-.49-1.64,0-2.33.53l-2.94,2.14-.38.49a35.56,35.56,0,0,0-1.6,6.76,2.49,2.49,0,0,0,.07,1.38c.35.81,1.36,1.06,2.23,1.21h-.77q-4.31,11.81-8.38,23.69l-.19-1a140.94,140.94,0,0,0,3.64,21.9c1.37-1.4,2.88-5.14,3.25-7.06l.67-1.68c1.05-12.85,5.13-22.17,5.79-35.05"/></g><path class="cls-5" d="M153.65,756.08h-4l-.9-.83-54,31.3.6.67a189.29,189.29,0,0,0,19.19,1l.25.26a280,280,0,0,0,39.94-10h.08q.33-11.58.29-23.17"/><path class="cls-5" d="M195.57,754h-4l-.9-.83-54,31.3.6.68c6.37.65,12.78,1,19.19,1l.25.25a280,280,0,0,0,39.94-10h.07q.34-11.58.3-23.17"/></g><g id="Layer_59" data-name="Layer 59"><g id="Layer_31" data-name="Layer 31"><g id="Layer_57" data-name="Layer 57"><path class="cls-5" d="M882.14,744.44c.16-11.88-1.73-26.42-2.86-39.87-.71-8.43-.87-15-1.22-23.44-.18-4.23-.46-8.45-.68-12.67a365,365,0,0,1,.3-42.36l.29-.62c8.36-.68,18-3,26.12-5"/><path class="cls-5" d="M904.09,620.53C896.4,659.91,890.82,705,887.61,745"/><path class="cls-5" d="M834.36,748.48a722.15,722.15,0,0,1-.61-104c.25-3.52.54-7.05.46-10.58-.12-6-1.11-12.52-.13-18.39h0a106.52,106.52,0,0,0,27.76,8.73"/><path class="cls-5" d="M862.19,624.38c-7.48,39-15.47,84.7-21.19,124"/></g><g id="Layer_29" data-name="Layer 29"><path class="cls-10" d="M847.45,220.41c-1.31,3.63-.69,7.74.89,11.25a39.47,39.47,0,0,0,6.6,9.45c2.62,3,5.39,6,8.84,8a28.6,28.6,0,0,0,5.61,2.39,51.14,51.14,0,0,0,16.38,2.42c2.85,0,6-.25,8.22,1.48.39.31.92.67,1.32.39a1.22,1.22,0,0,0,.38-.66c.8-2.12,3.52-2.73,5.06-4.4a9.58,9.58,0,0,0,1.42-2.28c1.94-3.9,3.93-8,3.56-12.39a21.93,21.93,0,0,0-2.6-7.67,33.07,33.07,0,0,0-2.71-4.64c-2.64-3.65-6.45-6.25-10.26-8.63a45.77,45.77,0,0,0-7.71-4.06,26.74,26.74,0,0,0-16.56-.83c-4.88,1.33-14.39,1-17.79,5.84-1.33,1.89.27,3.41-.93,5.39Z"/><path class="cls-10" d="M850.58,236.19a12.28,12.28,0,0,1-6.4,14.22c-1.94.89-4.35,1.46-5.23,3.41-.44,1-.4,2.12-1,3-.89,1.39-3,1.52-4.43.73a9.55,9.55,0,0,1-3.23-3.66c-3.47-5.73-6.62-12.15-6-18.82a23.85,23.85,0,0,1,2.55-8.29,21.33,21.33,0,0,1,3-4.6,15.74,15.74,0,0,1,14.63-5.08c1,.18,4.73-.31,5.28.5.82,1.21-2.53,3.65-2.74,5.09-.37,2.5.54,5,1.44,7.36l2.54,6.69Z"/><path class="cls-5" d="M895.33,256.54a4.55,4.55,0,0,1,3.19.07,20.4,20.4,0,0,1-.91,10,4.47,4.47,0,0,1-.59,1.2,5.09,5.09,0,0,1-.71.68l-1.87,1.58.12.16a116.3,116.3,0,0,1-5.73,13.5A38.91,38.91,0,0,1,880,295.29a26.44,26.44,0,0,1-14.5,6.46h0c-2.82.51-5.5-1.26-7.78-3a76,76,0,0,1-12.51-11.31,33.79,33.79,0,0,1-7.62-14.89l-.3-.64a2.24,2.24,0,0,1-2.09-1.05,6.62,6.62,0,0,1-.88-2.3l-1.92-7.92a2.51,2.51,0,0,1,.14-2.15c.6-.76,1.79-.56,2.72-.26s2.06.61,2.77-.06.51-1.67.62-2.56a6.09,6.09,0,0,1,3.09-4.14c1.5-.95,3.2-1.57,4.68-2.56a11.42,11.42,0,0,0,4.8-11.13v.51c2.46,2.23,4.65,4.75,7.07,7a23.32,23.32,0,0,0,8.31,5.37,29.66,29.66,0,0,0,4.46,1l7.77,1.35a48,48,0,0,0,9.77,1c1.36,0,2.81-.2,4,.48,1,.55,1.8,1.65,2.88,1.42a4.29,4.29,0,0,1,.58-1.4"/><path class="cls-5" d="M929,469.34a21,21,0,0,1,2.07,5.13l-.56.6-3.39,2.23a6.5,6.5,0,0,0-1.66,1.37c-1.24,1.6-.73,4,.5,5.63.13.16.3.34.51.32a.68.68,0,0,0,.37-.22c.59-.57,1-.66,1.55-1.23h0L931,496.86a2.34,2.34,0,0,0,.32.93c.61.87,1.95.54,2.92.1,2-.88,4-1.93,5-3.81h0c1.11-7.74-2.26-14-3.35-21.74l-.45-.27c-.35.35-.55-.25-.9.1l-.62.83c-.33-1.59-1.28-2.85-1.95-4.33"/><path class="cls-9" d="M902.32,362.18c3.1,5.23.76,11.82-.63,17.73-.88,3.72,2,6.13.85,9.76-1.31,4-.85,8.28-.17,12.4,1.44,8.68,2.5,20.87-1.53,28.68-3.77,7.32.17,11.44,10.31,22.35l5.31.89c-28.18,9.65-58.69,10.05-86.31-1.75-3.32-28.53,1.52-58.09-1.68-86.63-.46-4.11-15-6.24-15.49-10.34a148.77,148.77,0,0,0-4.31-21.64c16.67-10.09,36.79-20.25,54.46-28.47l4.25-.29c18.48,6.17,33.08,18.15,50.3,27.26v3.26c8.3,45.82-.55,82.81,14.1,123.93l.91.75c-1.18,1-2.74,2.4-4.23,2.71h0c-.36.26-5.23,1.19-5.38.55-2-8.92,1.51-13.4-3.42-21.9-1.37-2.36-.61-7.95-2-10.31-1.17-2-3.94-26.83-4.35-29.14-3.72-20.67,1-2.87-3.08-23.16"/><path class="cls-11" d="M917.68,453.38a32.77,32.77,0,0,0-.34,4.53c-8,5-16.66,5.86-26.07,6.7a165,165,0,0,1-30.95.34,79.8,79.8,0,0,1-29.15-8.26c-.1-.9-.63-2.67-.73-3.57l.07,0,10.14,3.42a66.29,66.29,0,0,0,7.91,2.32,67.75,67.75,0,0,0,10.65,1l9.3.4c4,.17,8,.34,12,.28a104.56,104.56,0,0,0,36.88-7.36"/><path class="cls-6" d="M818.76,455.74c3.24,2.07,7.82,5,11.51,6,27.21,7.57,57.48,7.11,84.25-1.93l.83-.15c11.1,47.62,18.51,97.53,8.15,145.32-1.84,8.5-2.88,13.24-8.41,19.87-14,6.62-32.66,10.55-48.11,9.9s-30.86-5.86-43-15.68c-3.35-2.72-6.52-5.87-8.35-9.83a35.77,35.77,0,0,1-2.41-9.16,401.68,401.68,0,0,1-1.65-119.66c1.15-8.42,3.44-18.86,7.95-26"/><path class="cls-5" d="M803.74,466.19a20.55,20.55,0,0,0-2,5l.54.58,3.33,2.19a6.46,6.46,0,0,1,1.61,1.33c1.22,1.57.72,3.93-.48,5.5-.13.16-.3.34-.5.32a.68.68,0,0,1-.37-.22c-.57-.55-.94-.64-1.51-1.2h0l-2.57,13.37a2.19,2.19,0,0,1-.31.91c-.6.85-1.91.53-2.86.1-1.9-.86-3.89-1.88-4.89-3.72h0c-1.09-7.56,2.21-13.68,3.28-21.24l.43-.26c.34.34.54-.25.88.09l.61.82a20.32,20.32,0,0,1,1.9-4.24"/></g><g id="Layer_30" data-name="Layer 30"><path class="cls-5" d="M863,301.4a18.83,18.83,0,0,1,.5,3.08l-.29.26a.52.52,0,0,0-.24.69,1.1,1.1,0,0,0,.6.52,3.92,3.92,0,0,0,3.4-.61,1.65,1.65,0,0,0,.55-.46.63.63,0,0,0,.06-.68.4.4,0,0,0-.61-.07l-.33.42v-3"/></g><path class="cls-5" d="M841,785.07l1.23-28.72a62.23,62.23,0,0,0,.05-6.83L841,748.43a.82.82,0,0,1,1,.34,18,18,0,0,1-8.6,0c.33-.41,2.72.45,2.72.45l-2.72-.45c-1.76,1.67-3.41,3.15-5.32,4.64-13.62,10.6-28.23,19.91-41.51,30.94a28.66,28.66,0,0,0,4.52,2.38l.31.23c5.68,1.81,11.73,1.93,17.69,1.91,10,0,22.31-.53,31.64-4.16"/><path class="cls-5" d="M888.3,744.35c2.09,14.21,10.1,28.18,12.21,42.38l-3.57,1,.26,0a47.49,47.49,0,0,1-21.54.34,4.36,4.36,0,0,1-2.39-1.09,3.86,3.86,0,0,1-.78-1.63c-.84-3.14-.35-6.47.21-9.67,1.81-10.47,4.3-20.95,9.11-30.42h0c0,.43.25-.25.61,0s.58-.81.92-1.07c2.7-2,3.88.58,5,.17-.13-.14.12.15,0,0"/></g><g id="Layer_56" data-name="Layer 56"><path d="M862.27,306.26a.75.75,0,0,0,0-1.5.75.75,0,0,0,0,1.5Z"/><path class="cls-12" d="M918.75,463.66c2.26-18.1-9-34.89-12.85-52.71-2.86-13.09-1.73-26.68-.59-40q7.61,48.56,15.16,97.13l13.73-3a1.88,1.88,0,0,0,1.92-2.36q-3.61-60.27-10.53-120.3c-.48-4.15-1.06-8.53-3.62-11.84a21.47,21.47,0,0,0-5.75-4.7c-15-9.4-31.74-15.69-48.33-21.9l-.65.49a49.07,49.07,0,0,1,10.26,10.19,74.15,74.15,0,0,0-9.66,3.47,43.3,43.3,0,0,1,11.95,8.8,23.13,23.13,0,0,0-8.56,10.3c-1.89,4.12,8.38,127.73,7.41,132.15h.63c2.84,1,6,.63,9,.17a255.32,255.32,0,0,0,30.93-6.78"/><path class="cls-12" d="M811.41,465.2c-2.26-18.1,9-34.89,12.85-52.71,2.86-13.09,1.73-26.68.59-40q-7.61,48.56-15.16,97.13l-13.72-3a2.51,2.51,0,0,1-1.72-.9,2.49,2.49,0,0,1-.21-1.46Q797.66,404,804.57,344c.48-4.15,1.06-8.53,3.62-11.84a21.47,21.47,0,0,1,5.75-4.7c15-9.4,31.74-15.69,48.33-21.9l.65.49a49.07,49.07,0,0,0-10.26,10.19,73.62,73.62,0,0,1,9.66,3.47,43.45,43.45,0,0,0-12,8.8,23.13,23.13,0,0,1,8.56,10.3c1.89,4.12-8.38,127.73-7.41,132.15h-.63c-2.84,1-6,.63-8.95.17A255.73,255.73,0,0,1,811,464.31"/></g></g><g id="Layer_62" data-name="Layer 62"><g id="Layer_55" data-name="Layer 55"><g id="Layer_54" data-name="Layer 54"><path class="cls-6" d="M206.3,488.3c7.57,82.51,6.55,180.62,18.37,262.63l1.4.62c3.68-.33,5.92,0,9.25-1.75,17.35-88.47,24.4-158.24,17.68-250-8.8-29.79-10.05-3.92-13.31-6.52s-6.67-8.9-8.79-7.95-4.13,2.78-6.24,2.2c-4.43-1.24-4.94-13.91-18.36.8"/><path class="cls-5" d="M227.09,752.11l.46,7.65Z"/><path class="cls-5" d="M231.92,751.92a61.21,61.21,0,0,1-.13,7.66Z"/><path class="cls-5" d="M232.88,758.93a165.55,165.55,0,0,0,10.89,41.6,40.28,40.28,0,0,1,2.59,7.77.94.94,0,0,1-.07.7,1.48,1.48,0,0,1-.81.43,39,39,0,0,1-19.13.45l0-.07c-3.42-8.39-2.69-17.47-1.92-26.29l2.12-24.41.45-.39c-.36-.21,0,.37.21.69a1.48,1.48,0,0,0,1.11.51,12.69,12.69,0,0,0,3.08,0c.73-.09,1.63-.44,1.52-1l-.76-.28"/></g><g id="Layer_10" data-name="Layer 10"><path class="cls-5" d="M276.31,232.58a55.05,55.05,0,0,1-30.11,19.16c-4.65,1.09-9.41,1.56-14.13,2.26-1.26.18-2.74.56-3.16,1.76a3.55,3.55,0,0,0,0,1.83A65,65,0,0,0,246,290c2.94,3,6.49,5.91,10.7,6.22,4.89.37,9.3-2.79,13-6a115.16,115.16,0,0,0,17.07-18.57c2.79-3.8,5.45-8.21,4.92-12.89a3.51,3.51,0,0,0-1.14-2.48,4.48,4.48,0,0,0-1.55-.63,17.78,17.78,0,0,1-12.24-18.34c.18-1.69.31-3.67-.94-4.83"/><path d="M255.89,297.37a7.14,7.14,0,0,0,3.25-.13.75.75,0,0,0-.4-1.45,5.17,5.17,0,0,1-.68.16l-.16,0c.12,0,.13,0,.05,0h-.08l-.35,0a5.3,5.3,0,0,1-.69,0c-.11,0-.22,0-.32,0,.11,0,.12,0,0,0h-.06l-.21,0a.77.77,0,0,0-.92.53.76.76,0,0,0,.53.92Z"/><path class="cls-5" d="M255.92,297.34l.94,4.79a.51.51,0,0,0,.13.29.46.46,0,0,0,.3.08,5.36,5.36,0,0,0,1.2-.11.63.63,0,0,0,.33-.15.66.66,0,0,0,.13-.36c.26-1.71.45-3.43.57-5.15Z"/><path class="cls-5" d="M260.2,300.71a1.22,1.22,0,0,1,1.14,1.12,1.85,1.85,0,0,1-.72,1.54,4,4,0,0,1-1.58.73,4.41,4.41,0,0,1-1.76.18,2.11,2.11,0,0,1-1.5-.86,1.39,1.39,0,0,1,0-1.65.19.19,0,0,1,.1-.08c.11,0,.19.08.25.18a2,2,0,0,0,1.6.9,2,2,0,0,0,1.63-.88,5.57,5.57,0,0,1,.8-1.18Z"/><path class="cls-12" d="M246.77,338.83c-5,29-9.94,58.11-10.21,87.55-.21,22.62,2.34,45.5-1.69,67.72-9.62-.18-20.55-.75-27.88-7.35,11.65-28.57,17.21-63.75,13.27-94.58.24,40.72-16.32,79.47-20.47,120a21,21,0,0,1-5.9.6c-2.56,0-2.65-6-2.95-8.64-.55-4.77-.95-9.56-1.31-14.36q-3.52-46.61-2.8-93.45c.11-7.16.3-14.32.84-21.46a212.57,212.57,0,0,1,7.57-42.16c.85-3,1.2-6.57,3.61-8.4,5.26-4,18.72-9,22.35-9.72,7.1-1.46,5.24-1.23,11.55-3.11.72-.21,0,2.23.59,2.69A10.88,10.88,0,0,1,234.7,317c2.51,6.33,1.15,10.7-1.4,17-.73,1.83,0,2.5-.38,4.45s-.86,2.74.64,3.93c1.76,1.42,1,1.38,3,.51,4-1.69,6.73-1.17,9.79-4.39Z"/><path class="cls-9" d="M262,302.47c-1.6,1.85-4.94,2.45-6.55.6-1.78,1.46-1.52,4.16-1.46,6.46.19,7.24-3.29,14-5.29,21-.87,3-1.46,6.15-2,9.25a583,583,0,0,0-9,129.88c.19,4.21-1.18,10.7-1.62,14.89-.56,5.28-1.31,7,2.17,9.36a25.83,25.83,0,0,0,5.82,3c10.25,2.65,8,2.08,14.85,2.26,5,.14,14.89-3.56,18.86-6.55,1.26-1,3.09-1.32,3.53-2.83s-.55-4-.78-5.52q-1.38-9.14-3.17-18.21c-1.23-6.29-2.62-12.56-3.79-18.87a281.4,281.4,0,0,1-4.68-45.41c-.4-18.87,1.1-37.74,3.09-56.51,1.13-10.68,2.54-23.53,4-34.17v.07a34.08,34.08,0,0,0-5.36-3.06c-3-1.67-5.54-4.11-8.59-5.67"/><path class="cls-6" d="M259.33,500.32c7.58,82.51,4.15,166,16,248l1.4.62c3.68-.34,5.92,0,9.25-1.75,17.35-88.48,25.7-182,14.1-271.4-6.37,5-4.74,11.77-12.61,13.66a37.14,37.14,0,0,0-6.67,1.9,51,51,0,0,0-5.61,3.39A31.18,31.18,0,0,1,259,499.32"/><path class="cls-5" d="M277.71,749.46l.47,7.65Z"/><path class="cls-5" d="M282.54,749.28a61,61,0,0,1-.12,7.65Z"/><path class="cls-5" d="M283.51,756.29a162.86,162.86,0,0,0,10.88,41.22,38.43,38.43,0,0,1,2.59,7.71.87.87,0,0,1-.06.69,1.47,1.47,0,0,1-.82.43,39.31,39.31,0,0,1-19.13.44l0-.06c-3.42-8.32-2.7-17.33-1.93-26.07l2.13-24.19.44-.39c-.36-.2,0,.37.21.69a1.53,1.53,0,0,0,1.11.5,12.77,12.77,0,0,0,3.09,0c.73-.08,1.63-.43,1.52-1l-.77-.28"/><path class="cls-5" d="M200.24,521.31c2.21,8.4,1.52,17.26.83,25.92a1.24,1.24,0,0,1-.19.66,1.11,1.11,0,0,1-.68.32,106.13,106.13,0,0,1-10.48,1.93h-.47a196.91,196.91,0,0,1,1.19-33.55l.47-.7a13.53,13.53,0,0,1,3-2l.55,0V512l3.18-.18v1.95l1.07.55a2.44,2.44,0,0,1,1.21-.47l.53.28a7.57,7.57,0,0,1,2.13,3.84q.93,3.07,1.56,6.22l-.31.2c-1.41.66-1.73.33-3.14,1"/><path class="cls-12" d="M271.08,351.1l-1.81,27c-1.59,34.87,1.11,20.26,1.36,49.7.2,22.62,3.45,42.61,7.18,64.83A36.43,36.43,0,0,0,302.27,482a196.3,196.3,0,0,1-11-91.35c-.22,40.72,15.09,79.47,18.93,120a18,18,0,0,0,5.45.6c2.37,0,2.45-6,2.73-8.64.5-4.77.87-9.56,1.21-14.36q3.25-46.61,2.59-93.45c-.11-7.16-.28-14.32-.79-21.46a228,228,0,0,0-7-42.16,26.82,26.82,0,0,0-3.34-8.4c-2.1-3.06-5.25-4.9-8.4-6.34a54.49,54.49,0,0,0-17.38-4.74,2.63,2.63,0,0,0-2,.36c-.43.35-8.84-2.5-8.94-1.92-1.12,6.63-.32,18-2,26.15-.55,2.66-.48.69-.55,2.66-.09,3-.28,10.42-.77,12.17"/><path class="cls-5" d="M289.9,526c-2.09,8.41-1.44,17.27-.78,25.93a1.23,1.23,0,0,0,.17.66,1.18,1.18,0,0,0,.64.32,98.88,98.88,0,0,0,9.93,1.93h.44a207.71,207.71,0,0,0-1.12-33.55l-.44-.7a12.85,12.85,0,0,0-2.82-2l-.52,0v-1.94l-3-.18v2l-1,.55a2.31,2.31,0,0,0-1.14-.48l-.5.29a7.64,7.64,0,0,0-2,3.84c-.59,2-1.08,4.12-1.48,6.22l.3.2c1.33.66,1.63.33,3,1"/></g></g><g id="Layer_61" data-name="Layer 61"><path class="cls-8" d="M289.47,320.56c-.65-10.87,1.73-19.65,5.17-29.78,6.42-18.9,8.66-33.29,1.33-51.73-1.85-4.65-3.67-8.75-7.06-12-3.66-3.52-19.45-8.5-24.9-9-15.11,0-15.93.34-30.5,9.8-11.61,11.07-18.79,24.66-19,42.15-.09,6.75.84,13.65,3.61,19.58,2.13,4.56,5.24,8.36,7.88,12.53,7.17,11.33,10.72,27,5.48,39.69-1.11,2.68-2.6,5.66-1.62,8.4a5.84,5.84,0,0,0,1.47,2.19c3.14,3,8,2.27,11.29-.57s5.16-7.3,6.6-11.73a90.4,90.4,0,0,0,4.42-28.34c0-3.78-.32-7.74-2.08-10.91a27.19,27.19,0,0,0-3.88-4.89,64.12,64.12,0,0,1-14.87-31.32,4,4,0,0,1,.09-2.41,3,3,0,0,1,2.22-1.33c7.21-1.62,14.45-3.39,21.18-6.79a39.13,39.13,0,0,0,16.94-15.78c.13,4.15.28,8.37,1.43,12.3s3.46,7.61,6.79,9.11c1.3.59,2.74.85,3.85,1.84,1.67,1.48,2.13,4.29,1.64,6.67a18.79,18.79,0,0,1-3,6.36,150.22,150.22,0,0,1-19,23.42,10.76,10.76,0,0,0-2.31,2.91,8.64,8.64,0,0,0,0,6.48c2.08,5.77,7.64,8.48,12.68,10.63l7.25,3.09c2.22.95,5.07,1.74,6.66-.29Z"/></g></g><g id="Layer_63" data-name="Layer 63"><g id="Layer_58" data-name="Layer 58"><path class="cls-13" d="M754,768.73c-.37,2.13-.78,4.73-1.07,6.87l-2.6-.34a60.44,60.44,0,0,1,.15-7.12"/><path class="cls-5" d="M754.75,773.93q-.87,14.31-1.34,28.64l-.16.4a24.48,24.48,0,0,1-5.77,2.45l-45.71,14.85-.72.05c-4.67-2.5-5.83-3.34-9.6-7.65l57.36-39.76.62-.6c-.24,0,.22-.14,0,0a.86.86,0,0,0-.39.73,1.11,1.11,0,0,0,.87.93,6.24,6.24,0,0,0,4.24-.11.81.81,0,0,0,.48-.38.83.83,0,0,0-.27-.94,1.31,1.31,0,0,0-.86-.18"/><path class="cls-6" d="M765.07,476.41c-5,2-10.33,2.51-15.64,2.6a115.58,115.58,0,0,1-20.74-1.51,11.32,11.32,0,0,1-3.35-.94l-.19.32c-3.93,32.83-2.76,66.6.4,99.73,1.18,12.41,2.5,27.11,3.29,39.54C732,666.74,741,714.63,746.4,765l-.15.59a3.49,3.49,0,0,0,1.13,1.53,7.62,7.62,0,0,0,5.16,1.9,7.44,7.44,0,0,0,5-2.18l.27-.13c2.91-58.13,3.4-116.44,3.89-174.73.18-22.12,2.9-92.5,3.08-114.62"/><path class="cls-6" d="M766.86,473.14c5,2,10.34,2.51,15.65,2.6a114.5,114.5,0,0,0,20.73-1.51,11.38,11.38,0,0,0,3.36-.94l.19.32c3.93,32.83,2.76,66.6-.4,99.73-1.19,12.41-2.51,27.11-3.29,39.54-3.2,50.59-12.19,98.48-17.57,148.88l.15.59a3.35,3.35,0,0,1-1.13,1.53,7.67,7.67,0,0,1-5.15,1.91,7.5,7.5,0,0,1-5-2.19l-.28-.13c-2.91-58.13-3.4-116.44-3.88-174.73-.19-22.12-2.9-92.5-3.08-114.62"/><path class="cls-13" d="M778.43,765.87c.37,2.13.78,4.73,1.07,6.87l2.6-.34a62.68,62.68,0,0,0-.15-7.12"/><path class="cls-5" d="M777.63,771.07q.86,14.29,1.34,28.64l.16.4a24.48,24.48,0,0,0,5.77,2.45l45.71,14.85.72.05c4.67-2.5,5.83-3.34,9.6-7.65l-57.36-39.76-.62-.6c.24,0-.22-.14,0,0a.83.83,0,0,1,.38.73,1.1,1.1,0,0,1-.86.93,6.24,6.24,0,0,1-4.24-.11.81.81,0,0,1-.48-.38.83.83,0,0,1,.27-.94,1.31,1.31,0,0,1,.86-.18"/></g><g id="Layer_22" data-name="Layer 22"><path class="cls-14" d="M770.2,303.84C762,302.13,754.63,296,750,289s-7.14-15.11-8.94-23.27c-2.26-10.25-3.43-21.17,0-31.09a35.05,35.05,0,0,1,5.76-10.41c4.86-6.07,11.95-10.5,19.68-11.4,8.43-1,17.09,2.33,23.29,8.12a39.27,39.27,0,0,1,11.43,22.24,58.08,58.08,0,0,1-1.82,25.19,75.63,75.63,0,0,1-5.55,14.14c-5,9.77-13,19-23.68,21.31Z"/><path class="cls-15" d="M765.93,308.69l1.37-5.54c-.29,2.3-.65,3.91-.74,6l-.41-.56c-.33,0-.52.41-.37.7a1.2,1.2,0,0,0,.8.52,8.25,8.25,0,0,0,5.66-.45.36.36,0,0,0,.16-.11c.08-.13,0-.3-.17-.38a1.41,1.41,0,0,1-.39-.24h-.51a28.75,28.75,0,0,0-.56-5l1.48,5.53"/><path class="cls-14" d="M809.7,531.45a11.08,11.08,0,0,0,0,3.15,3.83,3.83,0,0,0,1.66,2.59,5.39,5.39,0,0,0,2,.57,44.64,44.64,0,0,0,10.46.26c1.74-.17,3.66-.54,4.69-1.94l.13-.24a50.73,50.73,0,0,0,2.34-9.92,17.12,17.12,0,0,0-1.68-9.93l-.23-.48c-2.56.18-5.12.43-7.66.77H821a2.61,2.61,0,0,0,0-1.11,12.15,12.15,0,0,1-.13-2l-3.23.14c0,.93.08,1.85.14,2.77l-.75.17a20.36,20.36,0,0,0-5.27.78,11,11,0,0,0-4.6,2.61l-.45.17a16,16,0,0,0,.4,10.4,1.45,1.45,0,0,0,.41.66.55.55,0,0,0,.72,0l-.21.17a26.69,26.69,0,0,0,4.08-.56c.13,0,.27-.19.15-.24l0-.35a16.28,16.28,0,0,0,.16-5.07"/><path class="cls-16" d="M723.85,481.22c13.73,4.56,28.49,5.48,42.89,4.1s28.5-5,42.29-9.4"/><path class="cls-14" d="M726.51,531.45a11.08,11.08,0,0,1,0,3.15,3.83,3.83,0,0,1-1.66,2.59,5.39,5.39,0,0,1-2,.57,44.64,44.64,0,0,1-10.46.26c-1.74-.17-3.66-.54-4.69-1.94l-.13-.24a50.73,50.73,0,0,1-2.34-9.92A17.12,17.12,0,0,1,706.9,516l.23-.48c2.56.18,5.12.43,7.66.77h.38a2.61,2.61,0,0,1,0-1.11,12.15,12.15,0,0,0,.13-2l3.23.14c0,.93-.08,1.85-.14,2.77l.75.17a20.36,20.36,0,0,1,5.27.78,11,11,0,0,1,4.6,2.61l.45.17a16,16,0,0,1-.4,10.4,1.45,1.45,0,0,1-.41.66.55.55,0,0,1-.72,0l.21.17a26.69,26.69,0,0,1-4.08-.56c-.13,0-.27-.19-.15-.24l0-.35a16.28,16.28,0,0,1-.16-5.07"/><path class="cls-10" d="M793.89,222c3.54.5,9.09,7.92,10.26,11,.12.34.4,2.76.44,3.12,1.08,10.62,1.1,11.23-.74,21.47-.64-2.7-1.29-5.4-1.74-8.14-.3-1.86-.52-3.74-.91-5.59-1-4.89-4-8.77-8.19-12-.57-.45-3.68-3-4.39-2.78a98.17,98.17,0,0,1-22.19,11.85c-7,2.46-14.64,2.62-22,1.64a2.44,2.44,0,0,1-1.93-.91,78.33,78.33,0,0,0-3.93,12.87,17.42,17.42,0,0,1-1.24-11.08A52,52,0,0,1,741,232.69l-8.6,10.78a4.33,4.33,0,0,1,.17-3.36,33.47,33.47,0,0,1,8.36-13c3.67-3.53,8.13-6.24,11.52-10-6.38.68-11.48,5.9-17.84,6.77a30.17,30.17,0,0,1,16.58-11.71,52.81,52.81,0,0,1,9.62-1.52,43.87,43.87,0,0,1,13.15.35c4.3.94,11.38,3.06,14.68,5.86,1.2,1,4.72,4.17,4.48,5.15"/><path d="M793.1,222.73a.75.75,0,0,0,0-1.5.75.75,0,0,0,0,1.5Z"/></g><g id="Layer_64" data-name="Layer 64"><path class="cls-17" d="M766.59,311.05a1.6,1.6,0,0,1-1.82-.86l.58.27a5.87,5.87,0,0,0,5.29,0l.16-.28a134.7,134.7,0,0,1,35.43,8.06c9.34,3.51,18.9,8.66,23.31,17.61,2.9,5.9,3.17,12.69,3.4,19.26q.93,27.63,1.87,55.28c.46,13.47.92,27,.07,40.42C833.53,472,829,492.88,823.72,513.5l-.15.36c-2.71,1.82-6.33,1.18-9.52.46l.4-.72c-2.05-7-2.74-14.28-3.35-21.53-3.49-41.5-4.51-83.15-5.53-124.78l4.57,108.56c-27.48,7.06-56.38,14.14-83.89,7.15l-1.48-.82.2-11.12c0-3,.11-6.08-.07-9.11-.22-3.7-.79-7.37-1.14-11.06-1-10.84-.1-21.76.81-32.61l3.72-44.16-.6-1c-1.8,22.21-3.6,44.45-4,66.74-.38,24.31,1,48.87-3.65,72.75l-1,1.22a19.63,19.63,0,0,1-6.42.76c-2.56-.19-2.39-.51-2.9-3-.87-4.34-1.62-8.71-2.35-13.07q-2.12-12.54-3.69-25.16c-4.62-36.94-5.75-74.19-6.23-111.38-.11-8.7.07-18,5-25.18,3.69-5.45,9.62-8.94,15.51-11.9a170.36,170.36,0,0,1,47.12-15.57"/><path d="M766.49,310.69a1.23,1.23,0,0,1-1.39-.69l-.51.52a7.52,7.52,0,0,0,3.8.91,6.22,6.22,0,0,0,2-.49c.17-.08.38-.27.53-.33s0-.07.19-.1a5.92,5.92,0,0,1,1,.13q6.59.66,13.07,2a125.19,125.19,0,0,1,24.33,7.34c6.56,2.79,13.08,6.55,17.39,12.39,5,6.73,5.32,15.18,5.6,23.23q.93,27.65,1.87,55.28c.62,18.17,1,36.28-1.34,54.35-1.14,9-2.78,17.93-4.68,26.79-.95,4.42-2,8.82-3,13.2q-.81,3.3-1.63,6.58c-.17.67-.22,1.55-.72,2a5.8,5.8,0,0,1-3.08.9,20.08,20.08,0,0,1-5.82-.68l.23.55a2.65,2.65,0,0,0,.44-.91,5.92,5.92,0,0,0-.39-1.47c-.17-.61-.32-1.22-.47-1.84-.54-2.31-1-4.64-1.3-7-.69-4.79-1.06-9.63-1.45-14.46q-1.19-14.62-2-29.29c-1.11-19.62-1.83-39.27-2.39-58.93-.32-11.11-.59-22.22-.87-33.33h-.75l.46,10.83L806.74,404l1.32,31.42,1.15,27.05.37,8.93.12,2.81a5,5,0,0,0,.06,1.45.59.59,0,0,1,0,.19l.27-.36c-24.86,6.38-51,13-76.75,8.62-2.49-.43-5.46-.67-7.69-1.9a1.86,1.86,0,0,1-.52-.28c-.2-.29.21.42.07-.23a11.55,11.55,0,0,1,0-2.42l.09-5.07c.06-3.29.17-6.58.09-9.87s-.44-6.41-.82-9.61c-1.56-13.34-.43-26.59.69-39.92l1.88-22.33,1-11.41.46-5.46a4.22,4.22,0,0,0,0-1.73,5,5,0,0,0-.57-.94.38.38,0,0,0-.7.19c-1.09,13.49-2.18,27-2.95,40.51s-1.08,27.05-1.08,40.6c0,13.29.06,26.62-1.07,39.88-.29,3.43-.66,6.85-1.14,10.26-.22,1.6-.47,3.2-.74,4.8-.2,1.18-.18,2.75-.92,3.7a2.33,2.33,0,0,1-.67.69,7.5,7.5,0,0,1-2,.41,14.16,14.16,0,0,1-5.11.13c-.88-.19-1.07-.63-1.26-1.47-.31-1.42-.56-2.87-.83-4.3A643.88,643.88,0,0,1,700,427.61c-.81-13.47-1.32-27-1.65-40.46Q698.12,377,698,366.9c-.08-6-.37-12.19.55-18.19.89-5.78,3.09-11.18,7.31-15.33s9.3-6.7,14.42-9.19a170.44,170.44,0,0,1,35.92-12.68q4.5-1,9-1.83c.48-.08.28-.81-.2-.72A171.2,171.2,0,0,0,727.64,320a110.59,110.59,0,0,0-16.57,8.31c-4.73,3.05-8.8,7-11.06,12.22s-2.74,10.85-2.85,16.4c-.12,6.77.12,13.56.25,20.32.26,14,.68,28,1.39,42A698.54,698.54,0,0,0,707.67,502q.89,5.17,1.91,10.31c.28,1.43.58,2.32,2.13,2.56a14,14,0,0,0,3.77,0,18,18,0,0,0,1.95-.29,5.17,5.17,0,0,0,2-.51,4.84,4.84,0,0,0,1-1.26,7.71,7.71,0,0,0,.42-2c.16-.88.31-1.75.45-2.63,2.2-13.56,2.66-27.32,2.76-41,.09-13.89,0-27.77.52-41.65s1.59-28,2.7-42q.4-5.19.83-10.37l-.7.19a4.18,4.18,0,0,1,.58.94,9.43,9.43,0,0,1-.23,2.34l-.46,5.46L726.33,393l-1.84,21.83c-.61,7.24-1.28,14.49-1.49,21.76a158,158,0,0,0,1.19,21.52c.85,8,.35,16.08.2,24.09a.39.39,0,0,0,.19.33c.44.24.89.53,1.35.74a17.54,17.54,0,0,0,3.46.87c2.79.6,5.62,1.06,8.46,1.4a110.74,110.74,0,0,0,17.37.64c11.89-.45,23.66-2.51,35.24-5.11,6.63-1.48,13.21-3.15,19.78-4.84a.37.37,0,0,0,.28-.36L810.06,465,809,439.14l-1.32-31.42-1.14-27.06-.38-8.93a31.74,31.74,0,0,0-.18-4.25c0-.06,0-.13,0-.19a.38.38,0,0,0-.75,0c.48,19.57,1,39.14,1.7,58.71s1.72,38.94,3.21,58.38c.41,5.32.8,10.66,1.43,16,.29,2.47.64,4.93,1.12,7.37.24,1.24.51,2.48.81,3.7a11.25,11.25,0,0,1,.56,1.95,1.63,1.63,0,0,1-.29.77.38.38,0,0,0,.22.55,23.82,23.82,0,0,0,5.24.74c1.36,0,3.55-.2,4.57-1.24a1.82,1.82,0,0,0,.38-.82c.32-1.07.55-2.19.82-3.28q.82-3.29,1.61-6.58c2.08-8.7,4-17.45,5.49-26.27A248.46,248.46,0,0,0,835.23,451c.59-9,.58-18.07.37-27.1-.42-18.39-1.2-36.77-1.82-55.15q-.24-6.84-.47-13.69a79.38,79.38,0,0,0-1-11.93,28,28,0,0,0-10.83-17.39c-5.78-4.42-12.68-7.17-19.52-9.48a134.65,134.65,0,0,0-25-5.82c-2-.28-4.08-.5-6.13-.69a.37.37,0,0,0-.33.19c-.45.84-2.4.79-3.2.69a7.58,7.58,0,0,1-2.31-.77c-.32-.15-.71.17-.51.51a2,2,0,0,0,2.24,1c.48-.08.27-.8-.2-.72Z"/></g></g><g id="Layer_18" data-name="Layer 18"><g id="Layer_16" data-name="Layer 16"><path class="cls-12" d="M506.21,218.14c-8.55,0-15.44,5.63-21.55,11.61-11.69,11.44-15.53,29-14.19,45.31.83,10.22,3.45,20.55,1.34,30.58A33.38,33.38,0,0,1,463,322.09c-3.69,3.72-8.6,7.19-9,12.41,3.68-3.66,6.61,2.23,10.95,5.07s10.47,2,12.48,6.8c1.81,4.3,3.3,8.93,6.56,12.28,2.86,3,6.8,4.58,10.69,5.9,10.47,3.55,21.76,5.4,32.64,3.42s21.29-8.18,26.71-17.81c2.5-4.45,4.07-9.7,8.1-12.82a4.72,4.72,0,0,0,1.48-1.47c.78-1.62-.88-3.3-2.29-4.42a40.88,40.88,0,0,1-14.53-24.6c-2.38-13.65,2.32-27.74.26-41.43-1-6.72-3.63-13.1-6.65-19.19-3.45-7-7.54-13.75-13.22-19S514,218.12,506.21,218.14Z"/></g><g id="Layer_60" data-name="Layer 60"><path class="cls-12" d="M454.3,332.58l-.38-.89c-7.41,5.35-13.76,11.61-16.81,20.24S432.87,369.7,432,378.8a482,482,0,0,0,3.1,120.36l1.13.46c1.89.27,3.8.45,5.71.58l-.07.43"/></g><g id="Layer_17" data-name="Layer 17"><path class="cls-6" d="M477.65,755.71C468.22,689,462,627.89,456,560.74c9.05-6.11,12-11.1,19.55-19a9,9,0,0,1,3-2.3,9.62,9.62,0,0,1,3.74-.44c2.83.06,5.61-.35,8.44-.25l1.11-.14c3.42,71.59,4.09,144.55,2,216.19l-.67.25c-5.1.33-10.22.41-15.33.24"/><path class="cls-6" d="M535.64,749.52c1.19-40.79,3.48-82.11,6.59-122.8l-.05-.31c.83-12.1,1.49-23.52,2.31-35.63,1.26-18.35,2.48-37-1.7-54.94-16.17,2.51-33.36-3.14-48.77,2.37l.74.2C509.2,607.59,509,679,518.65,749a65.32,65.32,0,0,0,17,.56"/><path class="cls-5" d="M488.59,755.32a13.18,13.18,0,0,1-.3,3.34l-5.46-.27a12.28,12.28,0,0,0-.16-2.68"/><path class="cls-5" d="M488.87,795.53l1.27-29.4a65.2,65.2,0,0,0,.05-7L488.84,758a.84.84,0,0,1,1.07.35,18.32,18.32,0,0,1-8.8,0,1,1,0,0,1,.92-.28l-.68.25c-1.8,1.7-3.74,3.25-5.69,4.78-13.94,10.85-28.9,20.38-42.49,31.67a29.18,29.18,0,0,0,4.63,2.43l.32.24c5.81,1.85,12,2,18.1,2,10.25,0,22.84-.55,32.39-4.27"/><path class="cls-5" d="M528,753.18A10.31,10.31,0,0,1,528,751l-5.28-.66-.14,3.13"/><path class="cls-5" d="M528.62,753.61c2.14,14.54,10.34,28.84,12.5,43.38l-3.66,1,.27,0a48.45,48.45,0,0,1-22.05.36,4.52,4.52,0,0,1-2.44-1.12,3.93,3.93,0,0,1-.8-1.67c-.86-3.21-.36-6.62.21-9.9,1.86-10.72,4.4-21.44,9.33-31.14l.58-1.42c0,.44-.33,1.17,0,1.41s.59-.83.95-1.09c2.76-2,4,.6,5.07.18-.13-.15.12.15,0,0"/></g><g id="Layer_15" data-name="Layer 15"><path class="cls-5" d="M477.41,272c.55-9.56,1.87-17.3,5.14-25.18a19.63,19.63,0,0,1,3.39-5.89,16.57,16.57,0,0,1,6.64-4.11,39.35,39.35,0,0,1,21.57-1.18,18.4,18.4,0,0,1,6.29,2.27A15.14,15.14,0,0,1,524,241.2c5.3,6.6,6.37,15.56,7,24,.66,8.65.88,18.07-4.17,25.12-4.29,6-11.52,9-18.37,11.74a15.7,15.7,0,0,1-3.83,1.17,12.57,12.57,0,0,1-7-1.56A35.39,35.39,0,0,1,484,289c-3.43-5.29-4.32-8.64-6.12-13.57Z"/><path class="cls-10" d="M479.86,254.64c1.08-4.75,2.37-9.64,5.37-13.49s8.15-6.42,12.82-5l.35.66a18.24,18.24,0,0,1-17.72,16.94"/><path class="cls-10" d="M498.56,237.57A13.52,13.52,0,0,0,502.8,246a28.11,28.11,0,0,0,8.09,5.21c5.7,2.6,12.3,4.32,18.17,2.15-1.24-5.75-2.82-12-7.63-15.44a18,18,0,0,0-5.85-2.53,37,37,0,0,0-19.18.11Z"/><path class="cls-12" d="M545.77,372.78q4.93,68.64,13,137l.1.51c2.18,0,4.36-.06,6.53-.22l1.16-.38a482.12,482.12,0,0,0,11-119.9c-.32-9.14-.9-18.35-3.38-27.15s-7-17.26-14-23.08l-.85.62c-4.4,9.11-7.61,14.3-14.53,20.63-3,2.75-8,4.28-11.94,5.18a82.87,82.87,0,0,1-38.92-.61l.72.57.89,131.13c.23,33.74.46,67.55,4.38,101.06.79,6.71,2,13.93,6.76,18.69a25.33,25.33,0,0,0,9.22,5.36,66.7,66.7,0,0,0,31,3.77l1.32,0c1.66-.81,2-3,2.17-4.81l9.35-110.4"/><path class="cls-11" d="M466.54,339.57c6.09,2,11.31,5,12,10.95"/><path class="cls-7" d="M480.45,538.41c.44-6.64.54-12.1.66-18.43,1.07-56.49.21-111.94-2.08-168.4l-.47-1.06a25.93,25.93,0,0,0,16.22,14.85c-1.24,57.06-.67,115.31.63,172.37-4.69,1.77-10.36,1.23-15.34.63"/><path class="cls-5" d="M564.89,510.4c.13,1.64.21,3.29.24,4.94l-3.24-.62c-.09-1.34-.23-2.68-.41-4"/><path class="cls-5" d="M561.87,515.34a1.28,1.28,0,0,0-1,.88,3.82,3.82,0,0,0-.17,1.39,40.17,40.17,0,0,0,.82,10,6.15,6.15,0,0,0,2.21-.92l-1,.81a46,46,0,0,0-1.13,11.63.6.6,0,0,0,.14.45.67.67,0,0,0,.31.1,56.48,56.48,0,0,0,7.12.45c.61,0,1.32-.07,1.63-.59a2,2,0,0,0,.18-.86c.28-7.88.55-15.88-1.39-23.52l-4.06.24"/><path class="cls-5" d="M436.11,500.41c-.12,1.64-.21,3.29-.24,4.94l3.24-.62c.09-1.34.23-2.68.41-4"/><path class="cls-5" d="M439.13,505.35a1.31,1.31,0,0,1,1,.88,4.05,4.05,0,0,1,.17,1.39,41.18,41.18,0,0,1-.82,10,6.07,6.07,0,0,1-2.21-.92l1,.81a46,46,0,0,1,1.13,11.63.56.56,0,0,1-.14.44.64.64,0,0,1-.31.11,56.48,56.48,0,0,1-7.12.45c-.6,0-1.32-.07-1.63-.59a1.82,1.82,0,0,1-.17-.86c-.28-7.88-.55-15.88,1.38-23.52l4.06.24"/></g><path class="cls-12" d="M454.22,331.73c1.46,2.26,4.69,2.35,7.07,3.6,2.13,1.12,3.58,3.19,5.43,4.74a23.3,23.3,0,0,0,6.6,3.53c1.68.66,3.46,1.34,4.57,2.75a5,5,0,0,1,.66,5l-.09-2.22c6.65,89.69-.62,182.83,2.89,272.7l-.06.36a39.47,39.47,0,0,1-24.68-1.57A8,8,0,0,1,453,618.3a8.73,8.73,0,0,1-1.41-4.22C440.53,540.87,438.44,466.57,440,392.56"/></g><g id="Layer_20" data-name="Layer 20"><g id="Layer_2" data-name="Layer 2"><g id="Layer_57-2" data-name="Layer 57"><path class="cls-5" d="M368.3,266.44c.81,2.51,2.4,6.72,2.34,9.36l4.25,1.79-1.17-11.36"/><path class="cls-10" d="M384.86,181.63c-14.12-2.59-29.82-4.88-41.79,3-10.86,7.13-15.54,21.24-14.37,34.16S336,243.62,343,254.58a10,10,0,0,0,3.8-7.45v.08c-1.4-6.65.86-10,.89-16.82,0-4.24-1.17-8.1,2.05-10.8,1.8-1.5,3-6.46,5.32-6.82,6.18-1,12.46-.41,18.72-.61s12.74-1.3,17.72-5,7.92-10.8,5.36-16.48c-2.34-5.18-8.19-7.68-13.6-9.28"/><path class="cls-5" d="M366.45,275.71a11.26,11.26,0,0,0-4.45,5q7.58,4.38,15.53,8.1l-2.88-7a4.85,4.85,0,0,0-1.1-1.85c-1-.94-2.57-.87-3.91-1.17a6,6,0,0,1-3.68-3Z"/><path class="cls-5" d="M378.48,278.9c1.71,3.27,6.25,4,8.6,6.79a12.82,12.82,0,0,0-4.33-8.1,24.91,24.91,0,0,0-6.95-3.81Z"/><path d="M410.07,454.22a22.49,22.49,0,0,1-.81,11.7c-.36,1.06,1.32,1.53,1.7.47a24.45,24.45,0,0,0,.79-12.64c-.22-1.11-1.91-.64-1.68.47Z"/><path d="M404,455.32a22.65,22.65,0,0,1,.3,11.7c-.27,1.1,1.43,1.57,1.69.47a24.67,24.67,0,0,0-.3-12.65.88.88,0,1,0-1.69.47h0Z"/><path d="M409.11,453.13h-.55a.77.77,0,0,0-.34.08.53.53,0,0,0-.28.18.61.61,0,0,0-.19.28.57.57,0,0,0-.07.34v.23a.86.86,0,0,0,.23.39l.18.14a.86.86,0,0,0,.44.12h.55a.77.77,0,0,0,.34-.07.7.7,0,0,0,.28-.19.84.84,0,0,0,.18-.28A.81.81,0,0,0,410,454v-.23a.84.84,0,0,0-.22-.39l-.18-.14a1.11,1.11,0,0,0-.44-.12Z"/><path d="M409.89,464.82a7.2,7.2,0,0,0-4.57.56.91.91,0,0,0-.32,1.17.92.92,0,0,0,1.17.32s.29-.18.11-.06l.18-.07.46-.15.47-.12h.34a7.06,7.06,0,0,1,.92,0,3.84,3.84,0,0,1,.48,0h.27a.9.9,0,0,0,1.08-.61.89.89,0,0,0-.61-1.08Z"/><path class="cls-12" d="M322.57,452.45c.66,3.08,1.43,7,2.34,10.11a3.2,3.2,0,0,0,3.66,3l10.77.46a55.91,55.91,0,0,1-14-11.24Z"/><path class="cls-6" d="M361.05,702.58c16.49-51.13,35.32-100.76,46.38-152.93l1-.4Q401.13,682.53,398.65,816l-.58,1.17a11,11,0,0,1-9.93.86c-11.47-39-19.32-78.1-26.35-118.19"/><path class="cls-6" d="M357.18,466.27l27.39,2.06c11.18.83,20.82,1.54,30.82-3.51l1.6,1.32c0,20.73-.7,41.55-4.47,61.93-1.93,10.42-4.68,20.65-7.37,30.88-12,45.27-64.18,212-83.06,254.83l.4-.26a9.37,9.37,0,0,1-11.9.76v-1c2.05-55.74,4.14-111.82,15.89-166.35l.74.26.52-87.74c.2-31.68-4.05-62.35-2.84-96.95l1.4,2.47c5,1.06,8.91.65,14,1.11"/><path class="cls-5" d="M312.46,815.83l-.59,5.31,4.88,1.34c.42-1.38,1-5,1.42-6.4"/><path class="cls-5" d="M391.55,823.86c-.24-1.07-.81-4-.32-5l4.86-.64a11.57,11.57,0,0,0,.07,5"/><path class="cls-5" d="M320,821.83l57.42,32.52-1.49.44L358,858.64l-.9-.11q-26.76-1.39-53.33-5.32a236.43,236.43,0,0,1,5.85-30.77l2-1.79-1.17,1.1a16.06,16.06,0,0,0,8.19,1.24,1.9,1.9,0,0,0,.73-.2c.68-.44.46-1.58-.22-2a3.63,3.63,0,0,0-2.34-.32"/><path class="cls-5" d="M399.15,823.49c21.32,8.19,41.66,17.25,62.13,27.36a63.42,63.42,0,0,0-7.13,4.68l-1,.08q-31.28-1.17-62.47-3.92l-1-1.17a94.41,94.41,0,0,1,.31-26.17l.59-1.36c-.36-.16-.74.31-.66.69a1.49,1.49,0,0,0,.76.84,8.82,8.82,0,0,0,5.92,1.1,2.78,2.78,0,0,0,1.36-.56,1.65,1.65,0,0,0,.13-2.2,1.62,1.62,0,0,0-2.19-.17"/><path class="cls-10" d="M396.36,189a16.62,16.62,0,0,1-3.9,17.69l2.07,12.77,1.17.12a18.86,18.86,0,0,0,3.1-29.86c-.95-.86-3.36-1.41-.95-.86"/><path class="cls-5" d="M368.3,266.44a111.86,111.86,0,0,0,21.32-3.95,9.52,9.52,0,0,0,4.47-2.26c1.66-1.78,1.77-4.48,1.76-6.92a332.1,332.1,0,0,0-3-47.37l-1.17.48c-9.24,6.68-21.7,5.75-33.12,6a12.53,12.53,0,0,0-6.55,1.4c-2.17,1.39-3.31,3.92-4.15,6.35a52.49,52.49,0,0,0-.29,33.1l-1.29-.81L353,264a5.38,5.38,0,0,0,1.52,1.86,4.87,4.87,0,0,0,2,.63,41.89,41.89,0,0,0,14-.34"/><path class="cls-7" d="M395.38,296.6l13.75,35.26a78.18,78.18,0,0,1,4.57,14.39c1,5.41.83,10.94.79,16.38a404.26,404.26,0,0,0,2.78,51.12l-.73-1c5.33,5.37,11.94,11.76,17.47,16.91,30,5.25,62.37,10.53,92.42,15.77l.81-.23,1.23-8.36-1-1-79-44,.43,1q-29.22-51.67-55.17-105l-.65-.57L387,282.42"/><path class="cls-12" d="M417.86,452.83c-22.23,2.42-43.84,5-64.43,2.72l-.54.09,1.72,6.89a4.79,4.79,0,0,0,1,2.21,5.2,5.2,0,0,0,2.71,1c19.36,4.31,39.15,6,58.36-1.09a36.34,36.34,0,0,0,.42-11.77"/><path class="cls-18" d="M389.27,291.68,385,286.61l-2.12,2.75,3.41,2a1.76,1.76,0,0,0,2.13-2.79l-1.6-1.52-2.49,2.48a3.94,3.94,0,0,0,5.57-.33,4.07,4.07,0,0,0,.48-.67c.63-1.17-.46-3.2-2-2.57a6,6,0,0,1-4.3.2v3.38l2.24-.34a1.75,1.75,0,0,0,1.27-1.46,1.85,1.85,0,0,0-.84-1.76,9.53,9.53,0,0,0-4.05-1.65,1.8,1.8,0,0,0-1.85.64,1.72,1.72,0,0,0-.13,1.94,96.43,96.43,0,0,0,10.12,12.67,1.76,1.76,0,0,0,2.78-2.12L391,291.74l-2.79,2.15a17.81,17.81,0,0,1,3.79,9.9h3.51a27.73,27.73,0,0,0-5.22-13.26l-2.75,2.13a21.83,21.83,0,0,1,2.82,3.67,1.76,1.76,0,0,0,3.21-1.34,7.73,7.73,0,0,0-3.51-4.49,1.75,1.75,0,0,0-2.27.45,1.79,1.79,0,0,0,.14,2.34,9.48,9.48,0,0,1,2,4.68,1.77,1.77,0,0,0,2.17,1.17,1.8,1.8,0,0,0,1.17-2.16,12.86,12.86,0,0,0-2.89-6.24l-2,2.79a4,4,0,0,1,1.88,2.34l3.2-1.36a25.6,25.6,0,0,0-3.37-4.39c-1.33-1.41-4,.49-2.76,2.12A24.28,24.28,0,0,1,392,303.73a1.82,1.82,0,0,0,1.76,1.75,1.75,1.75,0,0,0,1.75-1.75,21.89,21.89,0,0,0-4.8-12.32,1.75,1.75,0,0,0-2.34-.14,1.81,1.81,0,0,0-.44,2.27l2.62,5.73,2.76-2.13a91.17,91.17,0,0,1-9.51-11.95l-2,2.57a7.27,7.27,0,0,1,3.22,1.3l.42-3.21-2.26.35a1.73,1.73,0,0,0-1.28,1.69,1.79,1.79,0,0,0,1.28,1.69,9,9,0,0,0,6.17-.19l-2-2.59c-.13.23,0,.2-.34.28h-.19a1.83,1.83,0,0,0-2.49,0,1.8,1.8,0,0,0,0,2.48l1.6,1.52,2.13-2.75-3.41-2c-1.8-1.05-3.36,1.29-2.13,2.76l4.23,5.07a1.76,1.76,0,0,0,2.5-2.48Z"/><path class="cls-5" d="M625.46,222.21c-8.49,2.79-12.63,17-7.6,24.37s14.9,10.14,23.8,9.36c5.41-.5,11-2.1,16.13-.39,7.07,2.34,10.84,10.22,11.83,17.62a14.18,14.18,0,0,1,8.67-6.82c2.93,2.5,2.12,7.34,0,10.53s-5.21,5.85-6.69,9.36c-1.17,3-1.17,6.27-2.05,9.36s-1.83,4.47-5.42,6.62a58,58,0,0,1-32.43,4.55c-3.61-.54-7.48-1.63-9.56-4.68a14.61,14.61,0,0,1-2-6,174.6,174.6,0,0,1-.76-47.62"/><path class="cls-5" d="M648.08,308.31l.58,4,3-.37V307.6"/><path class="cls-12" d="M609.72,365.43a96,96,0,0,1-5.2,24.56l-.29-.64-9.84-3.9a3.78,3.78,0,0,1-2.12-1.45,4,4,0,0,1-.35-1.83c-.22-17.46-.34-35.47,6.37-51.59l.09-.3q22.79-10.11,46.44-18.41l2.58-1.73a2.05,2.05,0,0,0-.56,2.34,3.73,3.73,0,0,0,1.77,1.84,3.69,3.69,0,0,0,4.29-.23c1.07-1.08.35-3.51-1.17-3.32l1.72-.22L715,340.78c4.09,12,4.14,22.41,5.36,33.6l.72.64C713.49,426.49,706,481.19,709,533.15a100,100,0,0,1-125.3-27.91h0c2.56-22.71,16.28-91,20.81-113.41"/><path class="cls-8" d="M639.15,291.41c-4.11-4.43-8.62-9.1-14.55-10.26a6.42,6.42,0,0,0-3.14,0,3.08,3.08,0,0,0-2.12,2.15v.32a3.79,3.79,0,0,0-.51,3c2.82-1.47,6.3-.25,8.92,1.56s4.91,4.18,7.88,5.29l.54.36a5.56,5.56,0,0,1,2.34-1.17"/><path class="cls-5" d="M723.2,817.81l-1,.89a3,3,0,0,0,2.71,1.85,7,7,0,0,0,3.34-.86,1.92,1.92,0,0,0,.74-.55,1.29,1.29,0,0,0-.43-1.66,3.62,3.62,0,0,0-1.79-.58"/><path class="cls-5" d="M729.25,818.69a237,237,0,0,1,3.51,26"/><path class="cls-5" d="M732.77,845.27c-18.56,2.13-38.4,3.78-57.06,4.68"/><path class="cls-5" d="M675.71,850a60.32,60.32,0,0,1-9.06-3.15"/><path class="cls-5" d="M722.23,818.7a501,501,0,0,0-55.58,28.15"/><path class="cls-8" d="M673.33,284.2a30.3,30.3,0,0,0,6.59-14.88c.17-1.24,0-2.9-1.17-3.18-.89-.21-1.7.49-2.34,1.17l-5.52,5.59c-4.85-3.78-3.7-12.27-8.66-15.9-3.15-2.34-7.46-1.67-11.32-1.06-5.57.89-11.27,1.53-16.86.72s-11.13-3.18-14.76-7.48l.67.59a18.37,18.37,0,0,1-3.58-14.85c2.44-12,15.63-16.88,26.47-17.82a50.48,50.48,0,0,1,33.19,9,33.7,33.7,0,0,1,10.22,10.83c5.1,9.28,3.66,20.64,2.07,31.12-.64,4.17-1.33,8.51-3.64,12.06S678,286.22,673.91,285"/><path class="cls-5" d="M604.79,390.51q-8.19,57.9-20,115.2l-1.09-.47c2.89-25,7-94.47,9.86-119.43l.9.29,8.67,2.57"/><path class="cls-6" d="M618.76,535.3c10.87,28.63,14.31,53.61,25,79.14l-1-.35c-11.3,63.11-15.38,129.46-27,192.51l-.7.56a20.48,20.48,0,0,1-8.71-.31l-.17-.25c-2.63-70.37-18.29-139.8-20.22-210.19-.3-11.42-.26-22.85-.21-34.28l.24-52.29.71-.1A220.09,220.09,0,0,0,620,535.42"/><path class="cls-6" d="M727.28,812.36a12.2,12.2,0,0,1-7.6.24l-.56-.54c-43.6-88.29-71.9-183.28-100-277.7l.55.23a96.26,96.26,0,0,0,81.24,2.71v.33c.52,52.53,6.93,104.8,13.34,156.94q7.17,58.27,14.31,116.56l-2.45,1.6"/><path class="cls-5" d="M726.87,818.14a24.41,24.41,0,0,1-1.68-4.53h-2.84a25.11,25.11,0,0,0,1.67,4.53"/><path class="cls-5" d="M610.27,812.68l-1,.82a3,3,0,0,0,2.57,2,6.83,6.83,0,0,0,3.39-.64,1.65,1.65,0,0,0,.77-.49,1.27,1.27,0,0,0-.3-1.68,3.59,3.59,0,0,0-1.74-.7"/><path class="cls-5" d="M616.24,813.94a238.64,238.64,0,0,1,1.65,26.18"/><path class="cls-5" d="M617.85,840.76c-18.72.8-38.61,1-57.33.63"/><path class="cls-5" d="M560.58,841.33a61.17,61.17,0,0,1-8.81-3.78"/><path class="cls-5" d="M609.24,813.45a500.16,500.16,0,0,0-57.47,24.1"/><path class="cls-5" d="M613.89,813.22a24.53,24.53,0,0,1-1.34-4.68l-2.83-.2a24.53,24.53,0,0,0,1.34,4.68"/><path class="cls-5" d="M719.93,375.46q-12.4,30.42-23.78,61.2"/><path class="cls-5" d="M696.15,436.66c-10.73-.49-23.59-5.85-32.37-12"/><path class="cls-5" d="M674.41,392.91a119.09,119.09,0,0,0-11.63,31.58"/><path class="cls-5" d="M665.17,426.54a69.44,69.44,0,0,0,27.44,10.2l-.09-.9a249,249,0,0,1-12.18,28.36l-1.44.86q-57.58-3.22-115.45-4.87l4.68-6.75a766,766,0,0,0,90.24-10.35l.2.62a78.13,78.13,0,0,0,5.31-16.82"/><path class="cls-7" d="M351.9,455.46a242.8,242.8,0,0,0,63.69-3.1l1.17-.76q.24-51.77-2.67-103.49h.48Q405.36,321,394.68,294.4L375.8,275.77c.59.16.68,1.05.28,1.52a2.76,2.76,0,0,1-1.62.76,9.09,9.09,0,0,1-4.18.14,3.36,3.36,0,0,1-2.63-2.92c0-1.41,1.59-2.71,2.83-2L366.31,275a54,54,0,0,0-11.4,5.05l-30.15,19.77-.41.43Q298.05,351.75,273.24,404l.79.93a531,531,0,0,0,79.44,71.17c1.3-1.65,3.51-5.54,4.88-7.21Q338.46,433.3,319.92,397l1.88,2.44a462.7,462.7,0,0,1,29.25-47.89"/><path class="cls-5" d="M365.93,275.32a13,13,0,0,0-4.92,2.73,153,153,0,0,1,16.83,10.07,21.7,21.7,0,0,1-1.52-9.29,12.51,12.51,0,0,1-10.22-4.37Z"/><path class="cls-19" d="M385.21,287.56l3.69,4,1.24-1.24-6.81-5.55-1.06,1.38,6.4,4.11a.88.88,0,0,0,1.2-.32,1,1,0,0,0,.09-.66,4,4,0,0,0-4.16-3.18.89.89,0,0,0-.44,1.64c5.68,3,7.46,9.84,8.84,15.61l1.7-.47-3.27-9.25-1.46.83a6.59,6.59,0,0,1,2.54,4.49l1.73-.23-1.85-5.22-.6,1.07h.1l-.68-.09c.87.39.51-1.77.41-2a1.55,1.55,0,0,0-.81-.93c-1-.48-1.9,1.05-.88,1.51.19.1.14.66.17.85a2,2,0,0,0,.42.87,1.27,1.27,0,0,0,1.61.28c1-.66.5-2.51-.81-2.14a.87.87,0,0,0-.61,1.08l1.84,5.22c.3.86,1.83.8,1.72-.24a8.31,8.31,0,0,0-3.06-5.73c-.61-.49-1.79-.07-1.46.85l3.26,9.26a.88.88,0,0,0,1.7-.47c-1.49-6.22-3.51-13.45-9.65-16.65l-.45,1.63a2.26,2.26,0,0,1,2.46,1.92l1.29-1-6.4-4.1c-.82-.54-1.85.73-1.07,1.37l6.81,5.54c.87.7,2-.4,1.24-1.24l-3.69-4c-.78-.84-2,.4-1.24,1.24Z"/><path class="cls-5" d="M357.13,472.08l1.7,1.55-.45.08-7.83,10.91A70,70,0,0,0,370,497.9a42.56,42.56,0,0,0,10.29-12.29,2.46,2.46,0,0,0,.42-1.42,2.4,2.4,0,0,0-.84-1.3,33,33,0,0,0-9.08-6.17l-1.17-1,2.92,1.62a.92.92,0,0,0,1.58-.35l1-2.16a1.3,1.3,0,0,0,.19-.66c0-.38-.37-.66-.69-.89a51.79,51.79,0,0,0-9.16-5.14,1.16,1.16,0,0,0-.75-.14,1.19,1.19,0,0,0-.54.34,25.06,25.06,0,0,0-3.19,3.63l-.41.32-2.1-1.81"/><path class="cls-5" d="M562.13,460.55a3.77,3.77,0,0,1-.67-2.34,13.74,13.74,0,0,1,.52-4.42H562a37.26,37.26,0,0,1-5.51-1.17,1.28,1.28,0,0,1-1-.88,23.08,23.08,0,0,1-1.81-5.85,1.45,1.45,0,0,0-.19-.6,1.56,1.56,0,0,0-.59-.42c-.55-.25-2.73-1.87-3.28-2.13-2.48.76-21.94,4.46-23.85,5.85a1,1,0,0,0-.4.46,1,1,0,0,0,.06.55,20.46,20.46,0,0,0,2.39,4.68q2.57,4,5.32,8a2.22,2.22,0,0,0,.58.64,2.18,2.18,0,0,0,.94.24,72,72,0,0,0,27.51-2.62"/><path class="cls-20" d="M562.08,453.82a11.83,11.83,0,0,0,.2,6.67l.5.09c1.05,0,2.12-.07,3.17-.17l.29.13a36.87,36.87,0,0,1,.27-6.3v-.14c-1.28-.14-3.72-.23-5-.28"/><path class="cls-5" d="M530,439.74c.06-.44-.2-2.06-.61-2.17a1.79,1.79,0,0,0-1.24.19,4.67,4.67,0,0,0-2.63,4.35,1,1,0,0,0,.33.84c.24.18.7,0,.66-.32v-.94c.58.8.65,1.38,1.17,2.18a1.36,1.36,0,0,1,.31.58,1.54,1.54,0,0,1-.54,1.17A24.61,24.61,0,0,1,525.1,448a.82.82,0,0,0-.22,1.26l.83,1.65c2.71-.59,12.95-5.69,15.65-6.29,1.8-.4,3.74-.77,5.4,0a1.1,1.1,0,0,1,.62.48,1.39,1.39,0,0,1,.18.63l.62,4.47a1.07,1.07,0,0,0,.19.54.94.94,0,0,0,.66.23l3.51.24a.81.81,0,0,0,.55-.1.83.83,0,0,0,.21-.62c.21-2.59.35-5.2.44-7.8a1.55,1.55,0,0,0-.08-.71,1.48,1.48,0,0,0-.6-.54l-3.81-2.34a5.76,5.76,0,0,0-2-.87,6,6,0,0,0-1.69,0q-6.86.87-13.67,2.24a2.32,2.32,0,0,1-1.17,0c-.79-.34-1.17-2.13-1.92-2.52"/><path class="cls-8" d="M627.13,296.17c.4-.81-1-3.27-.92-4.18a10.41,10.41,0,0,0-2.56-1.17c-.22,1.06-.49,2.11-.81,3.14-2-1-1.26-4.53-3.25-5.46l-.25.67c.32,4.95.81,11.63,4.62,14.82a14,14,0,0,0,5,3c7.76,2.23,16.6.2,24.56-.95a24.62,24.62,0,0,0,8.88-2.57,18.12,18.12,0,0,0,7.55-10.11,53.05,53.05,0,0,0,2-12.69h0c-.81-.44-1.93-.34-2.73-.78l-.64,1c-.51,2.62-.95,3.68-1.46,6.3a6.67,6.67,0,0,1-.94,2.67,6.3,6.3,0,0,1-2.19,1.67,60.31,60.31,0,0,1-25.58,7.12c-3.94.19-8.19-.11-11.29-2.57"/><path class="cls-18" d="M391.94,298.58a9.2,9.2,0,0,0-2.58-8.42,1.77,1.77,0,0,0-2.94,1.71,10.45,10.45,0,0,0,4.46,6.36c1.17.8,3.17-.56,2.59-2a21.47,21.47,0,0,0-9.5-10.72,1.77,1.77,0,0,0-1.78,3.06l5.16,3c1.24.72,3.13-.51,2.58-2a6.16,6.16,0,0,0-7.53-3.83,1.77,1.77,0,0,0-1.18,2.21,1.75,1.75,0,0,0,1.18,1.17,15.21,15.21,0,0,1,9.36,14.33c-.06,1.95,3.09,2.45,3.44.47a14.79,14.79,0,0,0-2.94-11.77,15.42,15.42,0,0,0-4.68-3.81c-1.51-.85-3.25-1.64-4.2-3.17l-1.92,2.55a3.25,3.25,0,0,1,2.53,2,1.78,1.78,0,0,0,2.34.63A1.81,1.81,0,0,0,387,288a6.46,6.46,0,0,0-4.62-3.59,1.78,1.78,0,0,0-2.15,1.33,1.81,1.81,0,0,0,.16,1.25c2,3.29,6,4,8.54,6.73a11,11,0,0,1,2.87,9.36l3.51.47a18.71,18.71,0,0,0-11.94-17.76v3.38a2.61,2.61,0,0,1,3.21,1.38l2.59-1.94-5.16-3-1.78,3a17.58,17.58,0,0,1,7.88,8.62l2.59-2a6.77,6.77,0,0,1-2.84-4.3l-2.94,1.71a5.6,5.6,0,0,1,1.68,5,1.8,1.8,0,0,0,1.17,2.16,1.78,1.78,0,0,0,2.16-1.17Z"/><path class="cls-18" d="M390.85,298.48l1.87,7.41a1.75,1.75,0,0,0,2.16,1.22,1.76,1.76,0,0,0,1.22-1.22,8.91,8.91,0,0,0-4.9-9.93,2,2,0,0,0-1.35-.19,1.85,1.85,0,0,0-1.05.81,1.78,1.78,0,0,0,.63,2.41,7.13,7.13,0,0,1,1,.54l.22.15c.27.18-.21-.18,0,0l.46.4.37.4.19.21h0a3.58,3.58,0,0,0,.31.45,5.64,5.64,0,0,1,.31.53,2.56,2.56,0,0,1,.11.24c0,.06.14.37,0,.09s0,0,0,.1a2.77,2.77,0,0,1,.1.26,7.67,7.67,0,0,1,.28,1.17v-.09a1.31,1.31,0,0,0,0,.28v1.14c0,.2.08-.45,0-.08v.33h3.38l-1.87-7.42a1.76,1.76,0,1,0-3.43.75,1.21,1.21,0,0,0,.05.18Z"/><path class="cls-18" d="M349.37,353.58l-4,9.64c-.79,1.86,2.24,3,3.2,1.35l5.75-10.07a1.76,1.76,0,0,0-3-1.77Q338.9,371,328,390.17c-1.58,2.78-3.64,5.7-4,9s1.24,6.34,2.72,9.15q5.44,10.16,10.83,20.35l12.07,22.72c.9,1.7,3.08.71,3.27-.87,1.39-12.1-.12-24.22-1-36.27a343.3,343.3,0,0,1-.63-36q.35-10.23,1.31-20.41l-3,1.24c2,2.34,1.65,5.93,1.17,8.8-.62,3.89-1.4,7.77-2.1,11.69l-4.34,24.11,3.38.94a276.39,276.39,0,0,0,3.63-39.38,1.76,1.76,0,0,0-3.44-.47q-4,16.59-6.64,33.49c-.34,2.17,2.88,3.18,3.38.93a244.88,244.88,0,0,0,4.95-32c.19-2.14-2.77-2.15-3.51-.47a158.15,158.15,0,0,0-9.36,33.75c-.35,2.18,2.8,3.17,3.4.94q3.74-13.74,7.13-27.52a1.76,1.76,0,0,0-3.2-1.36A94.82,94.82,0,0,0,331.7,400c-.44,1.59,1.76,3.11,2.93,1.71a47.6,47.6,0,0,0,9.83-20c.35-1.63-1.68-3.07-2.94-1.71a40.28,40.28,0,0,0-10.3,21.31c-.33,2.17,2.75,3.16,3.38.93l6.92-24.57a1.76,1.76,0,0,0-3.2-1.33A75.09,75.09,0,0,0,331,394.64a1.77,1.77,0,0,0,3.22,1.36l14.58-24.36-3-1.77a328.7,328.7,0,0,0-16.66,34.75,1.75,1.75,0,0,0,1.31,2.12,1.63,1.63,0,0,0,.85,0,10.43,10.43,0,0,0,5.76-13.58,10.1,10.1,0,0,0-1.56-2.65,1.76,1.76,0,0,0-2.51.08,1.71,1.71,0,0,0-.48,1.16,60.78,60.78,0,0,0,8.66,30.79c1,1.64,3.93.57,3.21-1.35A74.86,74.86,0,0,0,330,397.49a1.77,1.77,0,0,0-2.93,1.71l6.17,17a1.76,1.76,0,0,0,3.39-.93h0a116.2,116.2,0,0,0-4.26-17l-3.21,1.35,18.31,32.75c1,1.83,3.51.53,3.21-1.34A133.38,133.38,0,0,0,341.48,401c-.86-1.93-3.51-.47-3.21,1.34a93.6,93.6,0,0,0,10.32,28.42,1.78,1.78,0,0,0,2.46.54,1.8,1.8,0,0,0,.82-1.43,83.8,83.8,0,0,0-10.15-36.59c-.93-1.71-3.87-.55-3.2,1.35q5.72,16.38,13,32.25c.85,1.86,3.66.5,3.2-1.36q-2.69-11-5.76-22c-1.46-5.15-2.72-12.1-8.54-14a1.78,1.78,0,0,0-2.17,1.28,1.87,1.87,0,0,0,0,.88q7.37,22.08,15.84,43.76l3.21-1.36L341,412.48c-1.09-1.44-4-.68-3.21,1.36a219.13,219.13,0,0,0,10,23l3.09-1.78a141.34,141.34,0,0,1-11.41-18.37c-.89-1.73-4-.5-3.2,1.36a206.18,206.18,0,0,0,9.36,19.7c1,1.83,3.51.51,3.2-1.35a56.35,56.35,0,0,0-8.42-20.59,1.76,1.76,0,0,0-3,1.77Q343.16,428.53,348,440c.77,1.81,3.89.51,3.2-1.36l-3-8.11L345,431.84l3.63,8.6A1.78,1.78,0,0,0,351,441a1.83,1.83,0,0,0,.77-1,163.24,163.24,0,0,0-.88-49.24c-.34-1.93-3.71-1.51-3.51.45l2.07,16.21c.23,1.85,2.85,2.51,3.44.45a28.78,28.78,0,0,0-1.67-20.26,1.77,1.77,0,0,0-3.21.42l-4.78,27.17h3.38a134.37,134.37,0,0,0-4.54-19.81,1.77,1.77,0,0,0-2.19-1.21,1.85,1.85,0,0,0-.74.43A15.53,15.53,0,0,0,336,409.39a1.77,1.77,0,0,0,3.39-.94l-3.7-14.22a1.78,1.78,0,0,0-3.39,0,29,29,0,0,0-.72,10.38,1.76,1.76,0,0,0,3.51,0,66.1,66.1,0,0,0,.3-13.19c-.16-1.88-2.94-2.5-3.45-.47l-2.24,8.89,3.38.93a20.19,20.19,0,0,0,.22-8.75,1.76,1.76,0,0,0-2.93-.77,16.67,16.67,0,0,0-3.84,7.3,1.77,1.77,0,0,0,2.93,1.7l3.75-3.81c1.59-1.61-.89-4.09-2.48-2.48L327,397.77l2.93,1.71a13,13,0,0,1,2.93-5.77l-2.93-.77a16,16,0,0,1-.22,6.89c-.54,2.19,2.83,3.13,3.38.93l2.23-8.88-3.43-.47a66,66,0,0,1-.3,13.18h3.51a26.34,26.34,0,0,1,.6-9.44h-3.39l3.73,14.23,3.39-.94a11.91,11.91,0,0,1,2.25-11.33l-2.94-.79a134.5,134.5,0,0,1,4.54,19.82c.26,1.7,3.09,1.66,3.38,0L351.46,389l-3.21.42A25,25,0,0,1,349.57,407l3.51.46-2.15-16.18-3.51.47a157.15,157.15,0,0,1,.87,47.38l3.21-.41-3.65-8.61c-.77-1.81-3.89-.51-3.2,1.36l3.07,8.07,3.21-1.32q-4.81-11.4-10.53-22.36l-3,1.77a53.56,53.56,0,0,1,8.07,19.75l3.15-1.35a196.12,196.12,0,0,1-9-18.87l-3.19,1.32a141.86,141.86,0,0,0,11.41,18.38,1.78,1.78,0,1,0,3.09-1.75,210.44,210.44,0,0,1-9.68-22.16l-3.2,1.36L354.24,436c1.08,1.43,4,.67,3.21-1.36Q349,412.9,341.57,390.81L339.41,393c2.16.7,3.33,2.89,4.08,4.89,1.09,2.87,1.81,5.92,2.63,8.86q2.75,9.84,5.15,19.77l3.2-1.35q-7.05-15.37-12.62-31.4l-3.2,1.35a79.89,79.89,0,0,1,9.66,34.82l3.26-.89a90.84,90.84,0,0,1-9.92-27.61l-3.2,1.35a131,131,0,0,1,8.89,29.1l3.2-1.34-18.33-32.71c-.95-1.71-3.84-.56-3.2,1.34a116.27,116.27,0,0,1,4.24,17l3.4-.93-6.18-17L327.53,400A70.25,70.25,0,0,1,341,422.13l3.22-1.36a57.19,57.19,0,0,1-8.18-29L333,393c2.68,3.12,1.17,8.91-2.66,10.37l2.17,2.19a315.35,315.35,0,0,1,16.3-33.92,1.76,1.76,0,0,0-3-1.77l-14.57,24.36,3.21,1.34a70.23,70.23,0,0,1,6.9-17.45l-3.21-1.36-6.92,24.57,3.38.92A37.14,37.14,0,0,1,344,382.5L341,380.79a43.68,43.68,0,0,1-8.93,18.45l3,1.65a91.24,91.24,0,0,1,12.05-26.63l-3.22-1.33q-3.51,13.79-7.12,27.51l3.39.94a156.67,156.67,0,0,1,9.36-33.75l-3.44-.47a241.42,241.42,0,0,1-4.82,31l3.38.93q2.56-16.87,6.63-33.48l-3.51-.47a270.58,270.58,0,0,1-3.51,38.44c-.36,2.2,3,3.18,3.38.94l4.8-26.46c.73-4,1.67-8,2-12.1a12.58,12.58,0,0,0-2.46-9.5c-1.08-1.28-2.87-.1-3,1.25A345.83,345.83,0,0,0,347.54,394c.14,12.05,1.27,24,2,36a116.29,116.29,0,0,1-.24,20.44l3.26-.89L332,410.86c-1.56-2.94-3.68-6-4.44-9.35s1.41-6.19,2.95-8.92q5.18-9.16,10.7-18.12,6.25-10.14,12.95-20l-3-1.76-5.74,10.06,3.2,1.35,4.05-9.63a1.78,1.78,0,0,0-1.17-2.17,1.8,1.8,0,0,0-2.16,1.23Z"/><path class="cls-18" d="M343.79,375.69a15,15,0,0,0,2.25-4.4,1.76,1.76,0,0,0-3.21-1.35l-4.15,9.43a1.82,1.82,0,0,0,.63,2.41,1.78,1.78,0,0,0,2.34-.63l6.4-10.2-3-1.77a54.47,54.47,0,0,1-7.84,11,1.8,1.8,0,0,0,0,2.48,1.78,1.78,0,0,0,2.48,0,58.27,58.27,0,0,0,8.39-11.7,1.71,1.71,0,1,0-3-1.71l-6.4,10.19,3,1.78,4.15-9.44-3.2-1.35a8.92,8.92,0,0,1-.74,1.74,12.82,12.82,0,0,1-1.17,1.82,1.77,1.77,0,0,0,.63,2.4,1.8,1.8,0,0,0,2.34-.64Z"/><path class="cls-18" d="M323.69,397.38a7.68,7.68,0,0,0-.84,3.74,1.85,1.85,0,0,0,.51,1.24l.36.27a1.25,1.25,0,0,0,.65.21,1.19,1.19,0,0,0,.46,0,1.25,1.25,0,0,0,.65-.21l.37-.27a1.84,1.84,0,0,0,.44-.78l.66-1.65a1.42,1.42,0,0,0,0-.71,1.35,1.35,0,0,0-.21-.65,1.75,1.75,0,0,0-2.4-.63l-.36.28a1.82,1.82,0,0,0-.45.77l-.68,1.66,3.51.47a7.06,7.06,0,0,1,0-.92v.45a6.74,6.74,0,0,1,.4-1.48l-.18.42a4.09,4.09,0,0,1,.23-.47,1.81,1.81,0,0,0,.17-1.35,1.74,1.74,0,0,0-2.15-1.22,1.76,1.76,0,0,0-1.05.8Z"/><path class="cls-18" d="M345.81,437.15l5.67,12.65c.92,2.06,3.92.27,3-1.78l-3.23-7.36a1.77,1.77,0,0,0-2.43-.59,1.79,1.79,0,0,0-.85,1.47,26.09,26.09,0,0,0,3.1,9.8,1.76,1.76,0,0,0,2.43.59,1.72,1.72,0,0,0,.78-1,8.2,8.2,0,0,0-.77-6c-1.1-2-3.91-.25-3,1.78a14.32,14.32,0,0,1,1.07,6.78l3.51-.47a133.78,133.78,0,0,1-.72-61.11c.49-2.2-2.9-3.13-3.39-.92a137.81,137.81,0,0,0,.73,63c.49,2,3.31,1.44,3.44-.47a18.25,18.25,0,0,0-1.55-8.56l-3,1.78a4.41,4.41,0,0,1,.36,3.32l3.2-.41a21.74,21.74,0,0,1-2.62-8l-3.26.89,3.23,7.42,3-1.78-5.67-12.63c-.93-2.06-4-.28-3,1.76Z"/><path class="cls-18" d="M338.22,403.61l2.34,6.87a1.77,1.77,0,0,0,1.93,1.26,1.75,1.75,0,0,0,1.42-1.73A18.59,18.59,0,0,0,340.4,401a1.78,1.78,0,0,0-2.46-.55,1.81,1.81,0,0,0-.82,1.42,30.08,30.08,0,0,0,2,14.42l3.22-1.33a54.49,54.49,0,0,0-5.85-9.83,1.78,1.78,0,0,0-2.14-.69,1.72,1.72,0,0,0-1,2.07,47.83,47.83,0,0,0,8.35,13.89,1.73,1.73,0,0,0,2.34.14,1.76,1.76,0,0,0,.46-2.25A59.12,59.12,0,0,0,337,405.93c-1.07-1.36-3.51.11-2.94,1.71l4,10,3.21-1.35a37,37,0,0,0-5.47-7.23,1.77,1.77,0,0,0-2.92,1.71,25.22,25.22,0,0,0,6.35,12.66,1.77,1.77,0,0,0,2.94-1.71,56.18,56.18,0,0,0-4.11-11.6l-2.75,2.11a17.67,17.67,0,0,0,8.85,3.71c.93.13,1.75-.9,1.75-1.75a1.81,1.81,0,0,0-1.75-1.76,13.33,13.33,0,0,1-6.37-2.68,1.77,1.77,0,0,0-2.76,2.13,52.56,52.56,0,0,1,3.71,10.77l2.94-1.71a22,22,0,0,1-5.43-11.07l-2.87,1.71a33.21,33.21,0,0,1,4.89,6.48c1,1.66,4,.55,3.21-1.34l-4-10.09-2.94,1.71a56.58,56.58,0,0,1,6.88,11.6l2.76-2.12a42.86,42.86,0,0,1-7.46-12.36l-3.21,1.36a53.11,53.11,0,0,1,5.85,9.84c.81,1.79,3.94.49,3.21-1.36a27.6,27.6,0,0,1-1.85-13.48l-3.27.89A15.21,15.21,0,0,1,340.4,410l3.44-.46-2.27-6.86c-.71-2.14-4.11-1.17-3.39.92Z"/></g></g></g></svg>