<svg xmlns="http://www.w3.org/2000/svg" width="29.177" height="29.177" viewBox="0 0 29.177 29.177">
  <path id="add-image" d="M35.177,6.107V9.178H30.571v4.607H27.5V9.178H22.892V6.107H27.5V1.5h3.071V6.107ZM22.124,16.857a2.3,2.3,0,1,0-2.306-2.3,2.3,2.3,0,0,0,2.306,2.3ZM27.5,21.823l-.788-.875a3.071,3.071,0,0,0-4.57,0l-1.006,1.121-7.456-8.283L9.071,18.9V9.178h10.75V6.107H9.071A3.071,3.071,0,0,0,6,9.178V27.606a3.071,3.071,0,0,0,3.071,3.071H27.5a3.071,3.071,0,0,0,3.071-3.071V16.857H27.5Z" transform="translate(-6 -1.5)" fill="#bac9dc"/>
</svg>
