<svg id="calendar3" xmlns="http://www.w3.org/2000/svg" width="20.5" height="20.5" viewBox="0 0 20.5 20.5">
  <path id="Path_107" data-name="Path 107" d="M17.938,0H2.563A2.563,2.563,0,0,0,0,2.563V17.938A2.562,2.562,0,0,0,2.563,20.5H17.938A2.562,2.562,0,0,0,20.5,17.938V2.563A2.562,2.562,0,0,0,17.938,0ZM1.281,4.942a1.2,1.2,0,0,1,1.281-1.1H17.938a1.2,1.2,0,0,1,1.281,1.1V18.12a1.2,1.2,0,0,1-1.281,1.1H2.563a1.2,1.2,0,0,1-1.281-1.1Z" fill="#bac9dc" fill-rule="evenodd"/>
  <path id="Path_108" data-name="Path 108" d="M10.75,13.813a1.281,1.281,0,1,0-1.281-1.281A1.281,1.281,0,0,0,10.75,13.813Zm3.844,0a1.281,1.281,0,1,0-1.281-1.281A1.281,1.281,0,0,0,14.594,13.813Zm3.844,0a1.281,1.281,0,1,0-1.281-1.281A1.281,1.281,0,0,0,18.438,13.813ZM6.906,17.656a1.281,1.281,0,1,0-1.281-1.281A1.281,1.281,0,0,0,6.906,17.656Zm3.844,0a1.281,1.281,0,1,0-1.281-1.281A1.281,1.281,0,0,0,10.75,17.656Zm3.844,0a1.281,1.281,0,1,0-1.281-1.281A1.281,1.281,0,0,0,14.594,17.656Zm3.844,0a1.281,1.281,0,1,0-1.281-1.281A1.281,1.281,0,0,0,18.438,17.656ZM6.906,21.5a1.281,1.281,0,1,0-1.281-1.281A1.281,1.281,0,0,0,6.906,21.5Zm3.844,0a1.281,1.281,0,1,0-1.281-1.281A1.281,1.281,0,0,0,10.75,21.5Zm3.844,0a1.281,1.281,0,1,0-1.281-1.281A1.281,1.281,0,0,0,14.594,21.5Z" transform="translate(-2.422 -4.844)" fill="#bac9dc" fill-rule="evenodd"/>
</svg>
