<svg xmlns="http://www.w3.org/2000/svg" width="16" height="15.008" viewBox="0 0 16 15.008">
  <g id="gem" transform="translate(0 -1.125)">
    <path id="Path_115" data-name="Path 115" d="M3.1,1.325a.5.5,0,0,1,.4-.2h9a.5.5,0,0,1,.4.2L15.884,5.3a.524.524,0,0,1,.01.644L8.4,15.933a.5.5,0,0,1-.8,0L.1,5.928a.5.5,0,0,1,0-.6l3-4ZM14.493,5.112,12.686,2.7,11.91,5.115l2.583,0Zm-3.635,0,.961-2.99H4.188l.964,3,5.707-.006ZM5.473,6.123l5.064,0L8,14Zm-1.372-1L3.32,2.7,1.5,5.126l2.6,0Zm-2.6,1,2.922,0,2.194,6.824L1.5,6.128Zm7.893,6.82,2.195-6.832,2.93,0L9.392,12.948Z" fill="#fff" fill-rule="evenodd"/>
  </g>
</svg>
