<svg xmlns="http://www.w3.org/2000/svg" width="129.67" height="47.98" viewBox="0 0 129.67 47.98">
  <g id="Group_103" data-name="Group 103" transform="translate(-1752.931 -45)">
    <path id="at-and-t" d="M9.284,42.938a23.993,23.993,0,0,0,30.526-.906c.052-.044.028-.073-.023-.044C37.894,43.251,32.5,46.012,24,46.012c-7.383,0-12.051-1.647-14.685-3.118-.051-.025-.068.012-.029.044m16.346,1.226c5.907,0,12.4-1.611,16.279-4.8a13.035,13.035,0,0,0,2.98-3.576,23.045,23.045,0,0,0,1.447-3c.02-.051-.012-.076-.051-.02C42.674,38.085,32.222,41.4,21.429,41.4c-7.628,0-15.838-2.439-19.052-7.1-.032-.043-.061-.024-.044.024,2.994,6.364,12.076,9.839,23.3,9.839M19.177,33.608C6.894,33.608,1.1,27.887.052,23.981.04,23.925,0,23.937,0,23.989a23.854,23.854,0,0,0,.358,4.136,4.822,4.822,0,0,0,1.206,2.093c2.976,3.1,10.392,7.443,23.235,7.443,17.5,0,21.5-5.83,22.314-7.747A17.539,17.539,0,0,0,48,23.988c0-.5-.012-.906-.032-1.3,0-.064-.036-.068-.051-.007-.874,4.689-15.825,10.927-28.742,10.927M2.313,13.7A23.921,23.921,0,0,0,.6,18.671a1.576,1.576,0,0,0,.127,1.162c1.471,3.126,8.917,8.123,26.29,8.123,10.6,0,18.83-2.6,20.165-7.354a5.619,5.619,0,0,0-.059-3.043,23.373,23.373,0,0,0-1.571-4.151c-.02-.037-.051-.032-.044.012.206,6.232-17.171,10.247-25.94,10.247-9.5,0-17.421-3.783-17.421-8.562a5.8,5.8,0,0,1,.215-1.395c.012-.044-.025-.052-.044-.015M39.85,6.047A.973.973,0,0,1,40,6.6c0,2.665-8.159,7.382-21.147,7.382-9.542,0-11.327-3.541-11.327-5.791a3.884,3.884,0,0,1,.989-2.465c.036-.051.007-.068-.037-.032A24.048,24.048,0,0,0,5.1,9.2a3.061,3.061,0,0,0-.776,1.459c0,4.665,11.7,8.047,22.637,8.047,11.654,0,16.856-3.806,16.856-7.148,0-1.194-.465-1.893-1.655-3.246a28.579,28.579,0,0,0-2.276-2.3c-.037-.029-.064-.007-.037.032M36.279,3.382a23.983,23.983,0,0,0-24.727.1c-1.082.665-1.694,1.2-1.694,1.888,0,2.024,4.729,4.2,13.121,4.2,8.3,0,14.743-2.385,14.743-4.677,0-.548-.478-.93-1.447-1.508" transform="translate(1834.6 45)" fill="#fff"/>
    <text id="رای_ون" data-name="رای‌ون" transform="translate(1752.931 75)" fill="#fff" font-size="27" font-family="SegoeUI, Segoe UI"><tspan x="0" y="0">رای‌ون</tspan></text>
  </g>
</svg>
