<svg xmlns="http://www.w3.org/2000/svg" width="18.457" height="18.456" viewBox="0 0 18.457 18.456">
  <path id="plus-square-o" d="M15.1,8.809v.839a.4.4,0,0,1-.419.419H10.067v4.614a.4.4,0,0,1-.419.419H8.809a.4.4,0,0,1-.419-.419V10.067H3.775a.4.4,0,0,1-.419-.419V8.809a.4.4,0,0,1,.419-.419H8.389V3.775a.4.4,0,0,1,.419-.419h.839a.4.4,0,0,1,.419.419V8.389h4.614a.4.4,0,0,1,.419.419Zm1.678,5.873V3.775a2.018,2.018,0,0,0-.616-1.481,2.022,2.022,0,0,0-1.481-.616H3.775a2.018,2.018,0,0,0-1.481.616,2.022,2.022,0,0,0-.616,1.481V14.681a2.018,2.018,0,0,0,.616,1.481,2.022,2.022,0,0,0,1.481.616H14.681a2.1,2.1,0,0,0,2.1-2.1ZM18.457,3.775V14.681a3.782,3.782,0,0,1-3.776,3.775H3.775a3.635,3.635,0,0,1-2.667-1.108A3.639,3.639,0,0,1,0,14.681V3.775A3.635,3.635,0,0,1,1.108,1.108,3.639,3.639,0,0,1,3.775,0H14.681a3.635,3.635,0,0,1,2.667,1.108,3.637,3.637,0,0,1,1.107,2.667Z" fill="#2b7be4"/>
</svg>
