<svg xmlns="http://www.w3.org/2000/svg" width="23.927" height="27.346" viewBox="0 0 23.927 27.346">
  <path id="report" d="M22.227,27.346H1.718a1.665,1.665,0,0,1-1.2-.494,1.629,1.629,0,0,1-.507-1.215V1.736A1.631,1.631,0,0,1,.516.52a1.661,1.661,0,0,1,1.2-.494H13.682v9.4a.866.866,0,0,0,.855.855h9.4V25.637a1.686,1.686,0,0,1-1.709,1.709Zm-2.564-5.127h-.855V16.237a.866.866,0,0,0-.855-.855H16.246a.866.866,0,0,0-.855.855v5.982H13.682v-9.4a.866.866,0,0,0-.855-.855H11.118a.866.866,0,0,0-.855.855v9.4H8.555V17.946a.866.866,0,0,0-.855-.855H5.991a.866.866,0,0,0-.855.855v4.273H4.282a.855.855,0,0,0,0,1.709H19.664a.81.81,0,0,0,.615-.254.841.841,0,0,0,.24-.6.866.866,0,0,0-.855-.855ZM15.391,0a1.6,1.6,0,0,1,1.175.481l6.863,6.863a1.673,1.673,0,0,1,.507,1.228H15.391Z" transform="translate(-0.009)" fill="#fff"/>
</svg>
