<svg xmlns="http://www.w3.org/2000/svg" width="18.853" height="18.853" viewBox="0 0 18.853 18.853">
  <path id="search" d="M13.052,7.976a4.888,4.888,0,0,0-1.49-3.586A4.89,4.89,0,0,0,7.976,2.9,4.887,4.887,0,0,0,4.39,4.39,4.887,4.887,0,0,0,2.9,7.976a4.891,4.891,0,0,0,1.49,3.586,4.888,4.888,0,0,0,3.586,1.49,4.886,4.886,0,0,0,3.586-1.49A4.894,4.894,0,0,0,13.052,7.976Zm5.8,9.427a1.47,1.47,0,0,1-1.45,1.45,1.347,1.347,0,0,1-1.02-.43L12.5,14.548a7.758,7.758,0,0,1-4.521,1.405,7.835,7.835,0,0,1-3.1-.629A7.809,7.809,0,0,1,.629,11.075a7.948,7.948,0,0,1,0-6.2A7.809,7.809,0,0,1,4.878.629a7.948,7.948,0,0,1,6.2,0,7.809,7.809,0,0,1,4.249,4.249,7.825,7.825,0,0,1,.629,3.1A7.757,7.757,0,0,1,14.548,12.5l3.886,3.886A1.388,1.388,0,0,1,18.853,17.4Z" fill="#2B7BE4"/>
</svg>
