<svg xmlns="http://www.w3.org/2000/svg" width="23.929" height="24.569" viewBox="0 0 23.929 24.569">
  <path id="Path_70" data-name="Path 70" d="M25.664,16.463l-.025-.021L23.953,15.12a.861.861,0,0,1-.326-.712v-.618a.855.855,0,0,1,.327-.706l1.685-1.322.025-.021a1.425,1.425,0,0,0,.315-1.819L23.7,5.975l-.007-.011a1.435,1.435,0,0,0-1.733-.6l-.019.007-1.982.8a.852.852,0,0,1-.773-.069q-.263-.166-.534-.313a.852.852,0,0,1-.438-.631l-.3-2.115L17.908,3A1.454,1.454,0,0,0,16.5,1.828H11.93a1.438,1.438,0,0,0-1.413,1.2l0,.03-.3,2.119A.855.855,0,0,1,9.78,5.8q-.272.146-.534.311a.85.85,0,0,1-.771.068l-1.983-.8-.019-.008a1.435,1.435,0,0,0-1.735.605l-.007.011L2.447,9.939a1.427,1.427,0,0,0,.315,1.822l.025.021L4.473,13.1a.861.861,0,0,1,.326.712v.618a.855.855,0,0,1-.327.706L2.788,16.463l-.025.021A1.425,1.425,0,0,0,2.448,18.3l2.281,3.947.007.011a1.435,1.435,0,0,0,1.733.6l.019-.007,1.98-.8a.852.852,0,0,1,.773.069q.263.166.534.313a.852.852,0,0,1,.438.631l.3,2.115.006.039a1.454,1.454,0,0,0,1.414,1.17H16.5a1.438,1.438,0,0,0,1.413-1.2l0-.03.3-2.119a.855.855,0,0,1,.437-.631c.182-.1.361-.2.534-.311a.85.85,0,0,1,.771-.068l1.983.8.019.008a1.434,1.434,0,0,0,1.735-.605l.007-.011,2.281-3.946a1.426,1.426,0,0,0-.314-1.822Zm-7.183-2.149a4.284,4.284,0,1,1-1.25-3.218A4.273,4.273,0,0,1,18.481,14.314Z" transform="translate(-2.249 -1.828)" fill="#fff"/>
</svg>
