<svg xmlns="http://www.w3.org/2000/svg" width="20.49" height="19.541" viewBox="0 0 20.49 19.541">
  <path id="star" d="M20.49,7.573a.889.889,0,0,1-.32.591L15.7,12.523l1.059,6.157a1.829,1.829,0,0,1,.013.246.726.726,0,0,1-.129.437.435.435,0,0,1-.376.179.994.994,0,0,1-.492-.148l-5.529-2.906L4.716,19.393a1.045,1.045,0,0,1-.492.148.447.447,0,0,1-.388-.179.729.729,0,0,1-.13-.437,2.013,2.013,0,0,1,.024-.246L4.79,12.523.308,8.164A.938.938,0,0,1,0,7.573q0-.455.69-.566l6.182-.9L9.642.5q.234-.5.6-.5t.6.5l2.771,5.6,6.182.9q.69.111.69.566Z" fill="#bac9dc"/>
</svg>
