<svg xmlns="http://www.w3.org/2000/svg" width="19.741" height="20.5" viewBox="0 0 19.741 20.5">
  <path id="at" d="M13.244,3.374a9.808,9.808,0,0,0-9.869,9.869V14a9.869,9.869,0,0,0,9.869,9.869h5.314V22.353H13.244A8.351,8.351,0,0,1,4.893,14v-.759a8.3,8.3,0,0,1,8.351-8.351,8.078,8.078,0,0,1,8.351,8.351c0,2.726-1.063,3.8-2.778,3.8-1.2,0-1.776-.979-1.776-2.278V8.688H15.522v1.473a2.915,2.915,0,0,0-2.657-1.473,4.16,4.16,0,0,0-4.176,4.13v1.609a4.16,4.16,0,0,0,4.176,4.13A3.249,3.249,0,0,0,15.9,16.689a3.3,3.3,0,0,0,2.968,1.868c2.331,0,4.244-1.518,4.244-5.314a9.657,9.657,0,0,0-9.869-9.869Zm2.278,11.054a2.657,2.657,0,1,1-5.315,0V12.818a2.657,2.657,0,1,1,5.315,0Z" transform="translate(-3.375 -3.371)" fill="#bac9dc"/>
</svg>
