<?xml version="1.0" encoding="utf-8"?>
<!-- Generator: Adobe Illustrator 21.1.0, SVG Export Plug-In . SVG Version: 6.00 Build 0)  -->
<svg version="1.1" id="Layer_1" xmlns="http://www.w3.org/2000/svg" xmlns:xlink="http://www.w3.org/1999/xlink" x="0px" y="0px"
	 viewBox="0 0 32 32" style="enable-background:new 0 0 32 32;" xml:space="preserve">
<style type="text/css">
	.st0{fill:#45CBEA;}
	.st1{fill:#FFD93B;}
	.st2{fill:#F4C534;}
	.st3{fill:#3E4347;}
	.st4{opacity:0.2;}
	.st5{fill:#DE9C25;}
	.st6{fill:#FFFFFF;}
	.st7{fill:#E24B4B;}
	.st8{fill:#8CC63E;}
	.st9{fill:#D03F3F;}
	.st10{fill:#846144;}
	.st11{fill:#5A5F63;}
	.st12{fill:#777B7E;}
	.st13{fill:#FFDC97;}
	.st14{fill:#FFE9AB;}
	.st15{fill:#93979A;}
	.st16{fill:#FFD68D;}
	.st17{fill:#728389;}
	.st18{fill:#DAE5EF;}
	.st19{fill:#65B1EF;}
	.st20{fill:#F2F7F9;}
	.st21{fill:#8D9BA3;}
	.st22{opacity:0.2;fill:#F2F7F9;}
	.st23{fill:#E9EFF4;}
	.st24{fill:#FC97B2;}
	.st25{fill:#E84D88;}
	.st26{fill:#A5856D;}
	.st27{fill:#E9B02C;}
	.st28{fill:#7FB239;}
	.st29{fill:#CBD6E0;}
	.st30{fill:#ACB9C1;}
	.st31{fill:#8F6D52;}
	.st32{opacity:0.2;fill:#FFFFFF;}
	.st33{fill:#9A795F;}
	.st34{fill:#BBC7D1;}
	.st35{fill:#E18823;}
	.st36{fill:#F29A2E;}
	.st37{fill:#89664C;}
	.st38{fill:#D3D9DD;}
	.st39{fill:#DEE4E9;}
	.st40{fill:#AD2727;}
	.st41{fill:#719D34;}
	.st42{fill:#353A3D;}
	.st43{opacity:0.25;}
	.st44{opacity:0.2;fill:#3E4347;}
	.st45{fill:#373C3F;}
	.st46{opacity:0.1;}
	.st47{opacity:0.06;}
	.st48{fill:#7A5B44;}
	.st49{fill:#6B503B;}
	.st50{fill:#31373A;}
	.st51{fill:#59A5E0;}
	.st52{fill:#363B3F;}
	.st53{fill:#BF3333;}
	.st54{opacity:0.3;}
	.st55{fill:#4E99D2;}
	.st56{opacity:0.15;}
	.st57{opacity:0.1;fill:#3E4347;}
	.st58{fill:#64892F;}
	.st59{opacity:0.08;fill:#FFFFFF;}
	.st60{opacity:0.1;fill:#FFFFFF;}
</style>
<g>
	<path class="st37" d="M25.996,9.05c-1.056-0.414-2.072-1.056-3-1.983c-1.066-1.056-1.747-2.23-2.141-3.434
		c-1.076-3.424-4.628-5.19-8.259-3.829c-2.99,1.135-5.832,3.069-8.151,5.783c-5.516,6.444-6.207,15.552-1.608,21.463
		c5.94,7.638,17.693,7.371,25.222-0.168c0.592-0.582,1.125-1.194,1.618-1.816C34.305,19.184,32.272,11.448,25.996,9.05z
		 M18.171,17.072c-1.924,0-3.493-1.401-3.493-3.128s1.569-3.128,3.493-3.128c1.924,0,3.493,1.401,3.493,3.128
		S20.095,17.072,18.171,17.072z"/>
	<path class="st48" d="M32.144,17.072c-0.316,2.993-1.843,5.443-4.016,7.578C16.173,36.622-2.325,28.408,0.597,12.592
		c-1.549,5.072-0.849,10.49,2.24,14.456c5.94,7.638,17.693,7.371,25.222-0.168C30.808,24.177,32.544,20.868,32.144,17.072z"/>
	<g>
		
			<ellipse transform="matrix(0.7071 -0.7071 0.7071 0.7071 -7.0214 23.9414)" class="st8" cx="25.391" cy="20.447" rx="3.04" ry="3.04"/>
		<path class="st28" d="M28.43,20.449c0,1.676-1.368,3.036-3.044,3.036c-1.06,0-1.994-0.544-2.537-1.377
			c0.471,0.317,1.042,0.498,1.658,0.498c1.676,0,3.044-1.359,3.044-3.036c0-0.616-0.181-1.187-0.507-1.667
			C27.878,18.446,28.43,19.379,28.43,20.449z"/>
		
			<ellipse transform="matrix(0.7071 -0.7071 0.7071 0.7071 -6.4939 22.668)" class="st6" cx="24.117" cy="19.173" rx="1.065" ry="0.634"/>
	</g>
	<g>
		
			<ellipse transform="matrix(0.7071 -0.7071 0.7071 0.7071 -12.987 20.4324)" class="st1" cx="18.172" cy="25.894" rx="3.04" ry="3.04"/>
		<path class="st2" d="M21.212,25.896c0,1.676-1.368,3.036-3.044,3.036c-1.06,0-1.994-0.544-2.537-1.377
			c0.471,0.317,1.042,0.498,1.658,0.498c1.676,0,3.044-1.359,3.044-3.036c0-0.616-0.181-1.187-0.507-1.667
			C20.659,23.893,21.212,24.826,21.212,25.896z"/>
		
			<ellipse transform="matrix(0.7071 -0.7071 0.7071 0.7071 -12.4595 19.159)" class="st6" cx="16.898" cy="24.62" rx="1.065" ry="0.634"/>
	</g>
	<g>
		
			<ellipse transform="matrix(0.7071 -0.7071 0.7071 0.7071 -14.3939 13.6314)" class="st19" cx="9.258" cy="24.192" rx="3.04" ry="3.04"/>
		<path class="st51" d="M12.298,24.193c0,1.676-1.368,3.036-3.044,3.036c-1.06,0-1.994-0.544-2.537-1.377
			c0.471,0.317,1.042,0.498,1.658,0.498c1.676,0,3.044-1.359,3.044-3.036c0-0.616-0.181-1.187-0.507-1.667
			C11.746,22.191,12.298,23.124,12.298,24.193z"/>
		
			<ellipse transform="matrix(0.7071 -0.7071 0.7071 0.7071 -13.8664 12.358)" class="st6" cx="7.985" cy="22.918" rx="1.065" ry="0.634"/>
	</g>
	<g>
		
			<ellipse transform="matrix(0.7071 -0.7071 0.7071 0.7071 -9.7796 8.6522)" class="st18" cx="5.555" cy="16.132" rx="3.04" ry="3.04"/>
		<path class="st29" d="M8.595,16.134c0,1.676-1.368,3.036-3.044,3.036c-1.06,0-1.994-0.544-2.537-1.377
			c0.471,0.317,1.042,0.498,1.658,0.498c1.676,0,3.044-1.359,3.044-3.036c0-0.616-0.181-1.187-0.507-1.667
			C8.042,14.131,8.595,15.064,8.595,16.134z"/>
		
			<ellipse transform="matrix(0.7071 -0.7071 0.7071 0.7071 -9.2521 7.3788)" class="st6" cx="4.281" cy="14.858" rx="1.065" ry="0.634"/>
	</g>
	<g>
		
			<ellipse transform="matrix(0.7071 -0.7071 0.7071 0.7071 -3.2898 9.1545)" class="st7" cx="9.406" cy="8.549" rx="3.04" ry="3.04"/>
		<path class="st9" d="M12.446,8.55c0,1.676-1.368,3.036-3.044,3.036c-1.06,0-1.994-0.544-2.537-1.377
			c0.471,0.317,1.042,0.498,1.658,0.498c1.676,0,3.044-1.359,3.044-3.036c0-0.616-0.181-1.187-0.507-1.667
			C11.893,6.548,12.446,7.481,12.446,8.55z"/>
		
			<ellipse transform="matrix(0.7071 -0.7071 0.7071 0.7071 -2.7624 7.881)" class="st6" cx="8.133" cy="7.275" rx="1.065" ry="0.634"/>
	</g>
	<path class="st48" d="M21.664,13.352c0,0.089,0,0.187-0.02,0.276c-0.178-1.579-1.668-2.812-3.473-2.812
		c-1.806,0-3.296,1.233-3.473,2.812c-0.02-0.089-0.02-0.187-0.02-0.276c0-1.786,1.569-3.237,3.493-3.237
		C20.095,10.116,21.664,11.566,21.664,13.352z"/>
</g>
</svg>
