<?xml version="1.0" encoding="utf-8"?>
<!-- Generator: Adobe Illustrator 21.1.0, SVG Export Plug-In . SVG Version: 6.00 Build 0)  -->
<svg version="1.1" id="Layer_1" xmlns="http://www.w3.org/2000/svg" xmlns:xlink="http://www.w3.org/1999/xlink" x="0px" y="0px"
	 viewBox="0 0 32 32" style="enable-background:new 0 0 32 32;" xml:space="preserve">
<style type="text/css">
	.st0{fill:#E9EFF4;}
	.st1{fill:#BBC7D1;}
	.st2{fill:#E24B4B;}
	.st3{fill:#D23F77;}
	.st4{fill:#D3D9DD;}
	.st5{fill:#E84D88;}
	.st6{fill:#DEE4E9;}
	.st7{fill:#3E4347;}
	.st8{fill:#65B1EF;}
	.st9{fill:#FFFFFF;}
	.st10{fill:#59A5E0;}
	.st11{opacity:0.15;fill:#FFFFFF;}
	.st12{fill:#D03F3F;}
	.st13{opacity:0.15;}
	.st14{fill:#E9B02C;}
	.st15{fill:#F4C534;}
	.st16{opacity:0.5;}
	.st17{fill:#FFD93B;}
	.st18{fill:#353A3D;}
	.st19{fill:#777B7E;}
	.st20{fill:#5A5F63;}
	.st21{fill:#4E99D2;}
	.st22{fill:#CBD6E0;}
	.st23{fill:#6B503B;}
	.st24{fill:#89664C;}
	.st25{fill:#8F6D52;}
	.st26{fill:#A5856D;}
	.st27{fill:#C2CACE;}
	.st28{fill:#BF3333;}
	.st29{fill:#DAE5EF;}
	.st30{fill:#373C3F;}
	.st31{fill:#8CC63E;}
	.st32{fill:#7FB239;}
	.st33{opacity:0.7;}
	.st34{fill:#32373A;}
	.st35{opacity:0.1;fill:#FFFFFF;}
	.st36{opacity:0.5;fill:#DAE5EF;}
	.st37{fill:#8D9BA3;}
	.st38{fill:#7A5B44;}
	.st39{opacity:0.2;fill:#FFFFFF;}
	.st40{fill:#45CBEA;}
	.st41{opacity:0.1;}
	.st42{fill:#7B8B92;}
	.st43{fill:#ACB9C1;}
	.st44{fill:#846144;}
	.st45{fill:#9A795F;}
	.st46{opacity:0.2;}
	.st47{fill:#719D34;}
	.st48{fill:#31373A;}
	.st49{fill:#FFDE55;}
	.st50{fill:#CF7519;}
	.st51{fill:none;stroke:#D03F3F;stroke-width:36;stroke-miterlimit:10;}
	.st52{fill:#F29A2E;}
	.st53{opacity:0.25;}
	.st54{fill:#E18823;}
	.st55{opacity:0.5;fill:#E18823;}
	.st56{opacity:0.2;fill:#5A5F63;}
	.st57{fill:#64892F;}
</style>
<g>
	<g>
		<g>
			<g>
				<g>
					<path class="st14" d="M19.781,22.406l-6.712,6.712c-1.593,1.593-4.184,1.593-5.777,0c-1.593-1.593-1.593-4.184,0-5.777
						l6.712-6.712c1.593-1.593,4.184-1.593,5.777,0S21.375,20.813,19.781,22.406z M8.662,24.71c-0.838,0.838-0.838,2.202,0,3.04
						s2.202,0.838,3.04,0l6.712-6.712c0.838-0.838,0.838-2.202,0-3.04c-0.838-0.838-2.201-0.838-3.04,0L8.662,24.71z"/>
				</g>
			</g>
		</g>
		<g>
			<g>
				<g>
					<g>
						<path class="st6" d="M3.096,27.499l1.396,1.396c0,0-1.952,1.425-1.952,2.646l-2.08-2.08
							C1.353,29.461,3.096,27.499,3.096,27.499z"/>
					</g>
				</g>
				<g>
					<g>
						<g>
							<path class="st15" d="M20.158,1.331l10.511,10.511c-1.998-0.184-3.183-0.352-5.182-0.164
								c-2.473,0.246-4.772,1.432-6.532,3.193L4.297,29.527c-0.119,0.119-0.301,0.119-0.411,0.009l-1.423-1.423
								c-0.109-0.109-0.11-0.292,0.009-0.411L17.13,13.045c1.761-1.761,2.947-4.06,3.193-6.532
								C20.51,4.516,20.343,3.339,20.158,1.331z"/>
						</g>
					</g>
				</g>
				<g class="st16">
					<g>
						<g>
							<path class="st17" d="M21.111,7.298c-0.587,2.128-1.945,4.264-3.705,6.025L2.539,28.189l0.177,0.177l14.866-14.866
								c1.761-1.761,3.217-3.783,4.024-5.706c0.636-1.541,0.806-2.39,1.167-3.854l-1.011-1.011
								C21.612,4.604,21.57,5.579,21.111,7.298z"/>
						</g>
					</g>
				</g>
				<g>
					<g>
						<path class="st17" d="M31.128,12.255c-0.223,0-0.446-0.085-0.616-0.255L20,1.486c-0.34-0.34-0.34-0.891,0-1.232
							c0.34-0.339,0.892-0.34,1.232,0.001l10.513,10.513c0.34,0.34,0.34,0.891,0,1.232C31.575,12.17,31.351,12.255,31.128,12.255z"
							/>
					</g>
				</g>
			</g>
			<g>
				<g>
					<path class="st0" d="M0.509,29.429l2.062,2.062c0.119,0.119,0.109,0.31,0,0.42c-0.119,0.119-0.301,0.119-0.42,0l-2.062-2.062
						c-0.119-0.119-0.119-0.301,0-0.42C0.199,29.32,0.39,29.311,0.509,29.429z"/>
				</g>
			</g>
		</g>
	</g>
	<g>
		<g>
			<g>
				<g>
					
						<rect x="5.951" y="20.203" transform="matrix(0.7071 -0.7071 0.7071 0.7071 -13.2746 11.045)" class="st15" width="1.488" height="2.687"/>
				</g>
			</g>
			<g>
				<g>
					<path class="st17" d="M6.887,19.621c0.173,0.173,0.173,0.447,0,0.62L5.39,21.738c-0.174,0.174-0.447,0.173-0.62,0
						c-0.164-0.164-0.164-0.438,0.009-0.611l1.496-1.496C6.449,19.457,6.722,19.457,6.887,19.621z"/>
				</g>
			</g>
		</g>
		<g>
			<g>
				<g>
					
						<rect x="8.709" y="17.445" transform="matrix(0.7071 -0.7071 0.7071 0.7071 -10.5172 12.1871)" class="st15" width="1.488" height="2.687"/>
				</g>
			</g>
			<g>
				<g>
					<path class="st17" d="M9.644,16.864c0.173,0.173,0.173,0.447,0,0.62L8.148,18.98c-0.174,0.174-0.447,0.173-0.62,0
						c-0.164-0.164-0.164-0.438,0.009-0.611l1.496-1.496C9.206,16.699,9.48,16.699,9.644,16.864z"/>
				</g>
			</g>
		</g>
		<g>
			<g>
				<g>
					
						<rect x="11.466" y="14.688" transform="matrix(0.7071 -0.7071 0.7071 0.7071 -7.7598 13.3292)" class="st15" width="1.488" height="2.687"/>
				</g>
			</g>
			<g>
				<path class="st17" d="M8.743,19.778l1.697-1.697l3.083,3.083c0.467,0.467,0.467,1.23,0,1.697c-0.467,0.467-1.23,0.467-1.697,0
					L8.743,19.778z"/>
				<path class="st17" d="M5.985,22.536l1.697-1.697l3.083,3.083c0.467,0.467,0.467,1.23,0,1.697c-0.467,0.467-1.23,0.467-1.697,0
					L5.985,22.536z"/>
				<path class="st17" d="M13.198,15.323l3.083,3.083c0.467,0.467,0.467,1.23,0,1.697c-0.467,0.467-1.23,0.467-1.697,0l-3.083-3.083
					L13.198,15.323z"/>
			</g>
			<g>
				<g>
					<path class="st17" d="M12.401,14.106c0.173,0.173,0.173,0.447,0,0.62l-1.496,1.496c-0.174,0.174-0.447,0.173-0.62,0
						c-0.164-0.164-0.164-0.438,0.009-0.611l1.496-1.496C11.963,13.942,12.237,13.942,12.401,14.106z"/>
				</g>
			</g>
		</g>
	</g>
</g>
</svg>
