<?xml version="1.0" encoding="utf-8"?>
<!-- Generator: Adobe Illustrator 21.1.0, SVG Export Plug-In . SVG Version: 6.00 Build 0)  -->
<svg version="1.1" id="Layer_1" xmlns="http://www.w3.org/2000/svg" xmlns:xlink="http://www.w3.org/1999/xlink" x="0px" y="0px"
	 viewBox="0 0 32 32" style="enable-background:new 0 0 32 32;" xml:space="preserve">
<style type="text/css">
	.st0{fill:#E9EFF4;}
	.st1{fill:#BBC7D1;}
	.st2{fill:#E24B4B;}
	.st3{fill:#D23F77;}
	.st4{fill:#D3D9DD;}
	.st5{fill:#E84D88;}
	.st6{fill:#DEE4E9;}
	.st7{fill:#3E4347;}
	.st8{fill:#65B1EF;}
	.st9{fill:#FFFFFF;}
	.st10{fill:#59A5E0;}
	.st11{opacity:0.15;fill:#FFFFFF;}
	.st12{fill:#D03F3F;}
	.st13{opacity:0.15;}
	.st14{fill:#E9B02C;}
	.st15{fill:#F4C534;}
	.st16{opacity:0.5;}
	.st17{fill:#FFD93B;}
	.st18{fill:#353A3D;}
	.st19{fill:#777B7E;}
	.st20{fill:#5A5F63;}
	.st21{fill:#4E99D2;}
	.st22{fill:#CBD6E0;}
	.st23{fill:#6B503B;}
	.st24{fill:#89664C;}
	.st25{fill:#8F6D52;}
	.st26{fill:#A5856D;}
	.st27{fill:#C2CACE;}
	.st28{fill:#BF3333;}
	.st29{fill:#DAE5EF;}
	.st30{fill:#373C3F;}
	.st31{fill:#8CC63E;}
	.st32{fill:#7FB239;}
	.st33{opacity:0.7;}
	.st34{fill:#32373A;}
	.st35{opacity:0.1;fill:#FFFFFF;}
	.st36{opacity:0.5;fill:#DAE5EF;}
	.st37{fill:#8D9BA3;}
	.st38{fill:#7A5B44;}
	.st39{opacity:0.2;fill:#FFFFFF;}
	.st40{fill:#45CBEA;}
	.st41{opacity:0.1;}
	.st42{fill:#7B8B92;}
	.st43{fill:#ACB9C1;}
	.st44{fill:#846144;}
	.st45{fill:#9A795F;}
	.st46{opacity:0.2;}
	.st47{fill:#719D34;}
	.st48{fill:#31373A;}
	.st49{fill:#FFDE55;}
	.st50{fill:#CF7519;}
	.st51{fill:none;stroke:#D03F3F;stroke-width:36;stroke-miterlimit:10;}
	.st52{fill:#F29A2E;}
	.st53{opacity:0.25;}
	.st54{fill:#E18823;}
	.st55{opacity:0.5;fill:#E18823;}
	.st56{opacity:0.2;fill:#5A5F63;}
	.st57{fill:#64892F;}
</style>
<g>
	<g>
		<g>
			<path class="st7" d="M22.061,3.187H11.948c-1.588,0-2.88,1.292-2.88,2.88v3.688h2.693V6.066c0-0.103,0.084-0.187,0.188-0.187
				h10.113c0.743,0,1.346-0.603,1.346-1.346S22.804,3.187,22.061,3.187z"/>
		</g>
	</g>
	<g>
		<g>
			<g>
				<g>
					<g>
						<path class="st7" d="M29.69,27.365c-0.508,0.809-1.355,1.298-2.295,1.449H4.61c-0.941-0.151-1.787-0.64-2.295-1.449
							c-3.086-4.892-3.086-9.765,0-14.657c0.508-0.809,1.355-1.355,2.295-1.468h22.785c1.016,0.132,1.881,0.79,2.427,1.674
							C32.776,17.731,32.719,22.548,29.69,27.365z"/>
					</g>
				</g>
				<g>
					<path class="st18" d="M2.314,27.365c0.508,0.809,1.355,1.298,2.295,1.449h22.785c0.941-0.151,1.787-0.64,2.295-1.449
						c2.846-4.524,3.033-9.049,0.601-13.573l0,0C30.343,14.796,30.437,27.365,2.314,27.365z"/>
				</g>
				<g>
					<g>
						<path class="st19" d="M0.156,18.331c-0.233,1.627-0.138,3.253,0.307,4.88c10.358,1.803,20.715,1.803,31.072,0
							c0.445-1.627,0.544-3.253,0.314-4.88C21.284,20.213,10.72,20.213,0.156,18.331z"/>
					</g>
				</g>
				<g>
					<g>
						<path class="st20" d="M31.849,18.331c-1.056,0.188-2.113,0.343-3.17,0.494c-1.246,1.874-3.443,3.931-7.323,5.558
							c3.393-0.204,6.786-0.581,10.18-1.172C31.98,21.585,32.079,19.958,31.849,18.331z"/>
					</g>
				</g>
			</g>
		</g>
		<g>
			<g>
				<path class="st2" d="M27.245,11.242H4.608c0-1.327,1.073-2.401,2.401-2.401h17.843C26.155,8.841,27.245,9.901,27.245,11.242z"/>
			</g>
		</g>
	</g>
</g>
</svg>
