<?xml version="1.0" encoding="utf-8"?>
<!-- Generator: Adobe Illustrator 21.1.0, SVG Export Plug-In . SVG Version: 6.00 Build 0)  -->
<svg version="1.1" id="Layer_1" xmlns="http://www.w3.org/2000/svg" xmlns:xlink="http://www.w3.org/1999/xlink" x="0px" y="0px"
	 viewBox="0 0 32 32" style="enable-background:new 0 0 32 32;" xml:space="preserve">
<style type="text/css">
	.st0{fill:#E9EFF4;}
	.st1{fill:#BBC7D1;}
	.st2{fill:#E24B4B;}
	.st3{fill:#D23F77;}
	.st4{fill:#D3D9DD;}
	.st5{fill:#E84D88;}
	.st6{fill:#DEE4E9;}
	.st7{fill:#3E4347;}
	.st8{fill:#65B1EF;}
	.st9{fill:#FFFFFF;}
	.st10{fill:#59A5E0;}
	.st11{opacity:0.15;fill:#FFFFFF;}
	.st12{fill:#D03F3F;}
	.st13{opacity:0.15;}
	.st14{fill:#E9B02C;}
	.st15{fill:#F4C534;}
	.st16{opacity:0.5;}
	.st17{fill:#FFD93B;}
	.st18{fill:#353A3D;}
	.st19{fill:#777B7E;}
	.st20{fill:#5A5F63;}
	.st21{fill:#4E99D2;}
	.st22{fill:#CBD6E0;}
	.st23{fill:#6B503B;}
	.st24{fill:#89664C;}
	.st25{fill:#8F6D52;}
	.st26{fill:#A5856D;}
	.st27{fill:#C2CACE;}
	.st28{fill:#BF3333;}
	.st29{fill:#DAE5EF;}
	.st30{fill:#373C3F;}
	.st31{fill:#8CC63E;}
	.st32{fill:#7FB239;}
	.st33{opacity:0.7;}
	.st34{fill:#32373A;}
	.st35{opacity:0.1;fill:#FFFFFF;}
	.st36{opacity:0.5;fill:#DAE5EF;}
	.st37{fill:#8D9BA3;}
	.st38{fill:#7A5B44;}
	.st39{opacity:0.2;fill:#FFFFFF;}
	.st40{fill:#45CBEA;}
	.st41{opacity:0.1;}
	.st42{fill:#7B8B92;}
	.st43{fill:#ACB9C1;}
	.st44{fill:#846144;}
	.st45{fill:#9A795F;}
	.st46{opacity:0.2;}
	.st47{fill:#719D34;}
	.st48{fill:#31373A;}
	.st49{fill:#FFDE55;}
	.st50{fill:#CF7519;}
	.st51{fill:none;stroke:#D03F3F;stroke-width:36;stroke-miterlimit:10;}
	.st52{fill:#F29A2E;}
	.st53{opacity:0.25;}
	.st54{fill:#E18823;}
	.st55{opacity:0.5;fill:#E18823;}
	.st56{opacity:0.2;fill:#5A5F63;}
	.st57{fill:#64892F;}
</style>
<g>
	<g>
		<g>
			<path class="st14" d="M24.924,23.701h-0.959v3.491c1.949,0.215,2.8-0.892,2.8-0.892S25.67,24.774,24.924,23.701z"/>
		</g>
		<g>
			<g>
				<path class="st7" d="M10.557,0.624c0,1.476,2.437,2.277,5.443,2.277s5.443-0.801,5.443-2.277v5.392c0,1.602-2.437,2.9-5.443,2.9
					s-5.443-1.299-5.443-2.9V0.624z"/>
			</g>
			<g>
				<path class="st2" d="M27.361,29.356c-7.679,2.633-15.264,2.774-22.723,0c3.651-5.218,2.538-19.338,2.538-19.338L5.548,14.14
					L0,10.41L2.73,5.27c0.825-1.554,2.193-2.751,3.844-3.362l3.988-1.292c0,3.401,2.439,6.143,5.439,6.143
					c3.014,0,5.439-2.742,5.439-6.143l3.988,1.292c1.65,0.611,3.018,1.808,3.844,3.362L32,10.41l-5.548,3.73l-1.63-4.121
					C24.823,10.018,23.71,24.138,27.361,29.356z"/>
			</g>
			<g>
				<polygon class="st0" points="26.452,14.14 32,10.41 31.501,9.471 26.054,13.133 				"/>
				<polygon class="st0" points="5.945,13.133 0.499,9.471 0,10.41 5.548,14.14 				"/>
			</g>
		</g>
		<g>
			<g>
				<path class="st17" d="M26.766,26.301c-4.59-4.822-10.92-5.205-23.432-21.866C3.209,4.268,3.241,4.029,3.407,3.903
					c0.668-0.506,0.854-0.775,1.752-1.562C5.325,2.196,5.581,2.223,5.714,2.4c9.501,12.628,15.192,15.544,19.288,18.419
					c0.447,0.314,0.727,0.828,0.703,1.373C25.636,23.719,27.38,25.516,26.766,26.301z"/>
			</g>
		</g>
	</g>
	<path class="st0" d="M5.129,28.54c-0.154,0.289-0.315,0.566-0.49,0.816c7.459,2.774,15.044,2.633,22.723,0
		c-0.177-0.253-0.34-0.533-0.495-0.825C19.363,31.009,12.052,31.012,5.129,28.54z"/>
</g>
</svg>
