<?xml version="1.0" encoding="utf-8"?>
<!-- Generator: Adobe Illustrator 21.1.0, SVG Export Plug-In . SVG Version: 6.00 Build 0)  -->
<svg version="1.1" id="Layer_1" xmlns="http://www.w3.org/2000/svg" xmlns:xlink="http://www.w3.org/1999/xlink" x="0px" y="0px"
	 viewBox="0 0 32 32" style="enable-background:new 0 0 32 32;" xml:space="preserve">
<style type="text/css">
	.st0{fill:#E9EFF4;}
	.st1{fill:#BBC7D1;}
	.st2{fill:#E24B4B;}
	.st3{fill:#D23F77;}
	.st4{fill:#D3D9DD;}
	.st5{fill:#E84D88;}
	.st6{fill:#DEE4E9;}
	.st7{fill:#3E4347;}
	.st8{fill:#65B1EF;}
	.st9{fill:#FFFFFF;}
	.st10{fill:#59A5E0;}
	.st11{opacity:0.15;fill:#FFFFFF;}
	.st12{fill:#D03F3F;}
	.st13{opacity:0.15;}
	.st14{fill:#E9B02C;}
	.st15{fill:#F4C534;}
	.st16{opacity:0.5;}
	.st17{fill:#FFD93B;}
	.st18{fill:#353A3D;}
	.st19{fill:#777B7E;}
	.st20{fill:#5A5F63;}
	.st21{fill:#4E99D2;}
	.st22{fill:#CBD6E0;}
	.st23{fill:#6B503B;}
	.st24{fill:#89664C;}
	.st25{fill:#8F6D52;}
	.st26{fill:#A5856D;}
	.st27{fill:#C2CACE;}
	.st28{fill:#BF3333;}
	.st29{fill:#DAE5EF;}
	.st30{fill:#373C3F;}
	.st31{fill:#8CC63E;}
	.st32{fill:#7FB239;}
	.st33{opacity:0.7;}
	.st34{fill:#32373A;}
	.st35{opacity:0.1;fill:#FFFFFF;}
	.st36{opacity:0.5;fill:#DAE5EF;}
	.st37{fill:#8D9BA3;}
	.st38{fill:#7A5B44;}
	.st39{opacity:0.2;fill:#FFFFFF;}
	.st40{fill:#45CBEA;}
	.st41{opacity:0.1;}
	.st42{fill:#7B8B92;}
	.st43{fill:#ACB9C1;}
	.st44{fill:#846144;}
	.st45{fill:#9A795F;}
	.st46{opacity:0.2;}
	.st47{fill:#719D34;}
	.st48{fill:#31373A;}
	.st49{fill:#FFDE55;}
	.st50{fill:#CF7519;}
	.st51{fill:none;stroke:#D03F3F;stroke-width:36;stroke-miterlimit:10;}
	.st52{fill:#F29A2E;}
	.st53{opacity:0.25;}
	.st54{fill:#E18823;}
	.st55{opacity:0.5;fill:#E18823;}
	.st56{opacity:0.2;fill:#5A5F63;}
	.st57{fill:#64892F;}
</style>
<g>
	<g>
		<g>
			<g>
				<g>
					<g>
						<path class="st2" d="M31.716,9.517c0.795,2.809,0,4.473-3.384,7.834s-10.831,7.815-10.831,7.815l-8.402,6.648
							c-0.278,0.217-0.674,0.187-0.918-0.067c-2.992-3.128-5.679-6.58-8.074-10.343c-0.19-0.298-0.123-0.691,0.156-0.909
							l8.399-6.646C7.454,7.8,11.083,2.283,14.392,0.567s4.465,1.313,4.465,1.313C22.152-0.919,29.949,3.277,31.716,9.517z"/>
					</g>
					<path class="st12" d="M13.95,20.115L13.95,20.115c-1.764-2.394-3.857-5.05-5.288-6.266l-8.399,6.646
						c0,0,6.494-4.44,7.938-4.623C8.946,15.778,11.812,17.785,13.95,20.115z"/>
				</g>
				<path class="st12" d="M18.181,3.581c0.201-0.187,0.544-0.417,1.02-0.42c0,0-0.505-0.296-1.057,0.087
					c0,0,0.532-0.736,1.552-1.099c0,0-0.701-0.038-1.181,0.413c0,0,0.531-0.886,1.286-1.154c-0.339,0.075-0.656,0.228-0.945,0.473
					c0,0-0.058-0.151-0.184-0.367c0.019,0.241-0.029,0.557-0.262,0.912c-0.001-0.018-0.019-0.325-0.167-0.492
					c0,0,0.031,0.609-0.246,0.991c0,0-0.094-0.423-0.211-0.549c0,0-0.052,0.853-0.404,1.383c-0.352,0.53-0.401,0.71-0.218,0.907
					c0.183,0.197,0.697,0.287,1.208-0.329C18.686,3.959,18.427,3.714,18.181,3.581z"/>
			</g>
			<path class="st12" d="M31.716,9.517c-1.178-4.159-5.031-7.396-8.448-8.273c0.511,0.37,13.63,10.242-1.757,21.365
				c2.313-1.547,5.094-3.544,6.82-5.258C31.716,13.989,32.511,12.325,31.716,9.517z"/>
		</g>
		<path class="st35" d="M17.098,1.605c-0.007,0.116-0.071,0.219-0.14,0.311c-0.682,0.913-1.866,1.228-2.809,1.868
			c-1.857,1.261-2.182,3.836-3.335,5.621c-0.219,0.34-0.475,0.465-0.742,0.161c-1.467-1.67,2.021-7.715,5.479-8.698
			C16.449,0.612,17.123,1.209,17.098,1.605z"/>
		<g>
			<path class="st35" d="M8.184,17.983c0.64-0.049,0.922,0.236,0.566,0.635c-1.083,1.213-3.553,2.392-5.548,3.938
				c-1.167,0.904-1.962-0.77-1.908-1.274C1.348,20.768,5.629,18.177,8.184,17.983z"/>
		</g>
		<path class="st12" d="M15.485,22.013c1.899,2.859-3.62,7.338-5.874,8.106c-2.1,0.715-3.682-0.876-3.889-1.097
			c0.796,0.934,1.615,1.843,2.459,2.725c0.244,0.254,0.64,0.284,0.918,0.067l8.402-6.648c0,0,0.142-0.085,0.396-0.24
			C16.698,23.45,15.485,22.013,15.485,22.013z"/>
	</g>
</g>
</svg>
