<?xml version="1.0" encoding="utf-8"?>
<!-- Generator: Adobe Illustrator 21.1.0, SVG Export Plug-In . SVG Version: 6.00 Build 0)  -->
<svg version="1.1" id="Layer_1" xmlns="http://www.w3.org/2000/svg" xmlns:xlink="http://www.w3.org/1999/xlink" x="0px" y="0px"
	 viewBox="0 0 32 32" style="enable-background:new 0 0 32 32;" xml:space="preserve">
<style type="text/css">
	.st0{fill:#E9EFF4;}
	.st1{fill:#BBC7D1;}
	.st2{fill:#E24B4B;}
	.st3{fill:#D23F77;}
	.st4{fill:#D3D9DD;}
	.st5{fill:#E84D88;}
	.st6{fill:#DEE4E9;}
	.st7{fill:#3E4347;}
	.st8{fill:#65B1EF;}
	.st9{fill:#FFFFFF;}
	.st10{fill:#59A5E0;}
	.st11{opacity:0.15;fill:#FFFFFF;}
	.st12{fill:#D03F3F;}
	.st13{opacity:0.15;}
	.st14{fill:#E9B02C;}
	.st15{fill:#F4C534;}
	.st16{opacity:0.5;}
	.st17{fill:#FFD93B;}
	.st18{fill:#353A3D;}
	.st19{fill:#777B7E;}
	.st20{fill:#5A5F63;}
	.st21{fill:#4E99D2;}
	.st22{fill:#CBD6E0;}
	.st23{fill:#6B503B;}
	.st24{fill:#89664C;}
	.st25{fill:#8F6D52;}
	.st26{fill:#A5856D;}
	.st27{fill:#C2CACE;}
	.st28{fill:#BF3333;}
	.st29{fill:#DAE5EF;}
	.st30{fill:#373C3F;}
	.st31{fill:#8CC63E;}
	.st32{fill:#7FB239;}
	.st33{opacity:0.7;}
	.st34{fill:#32373A;}
	.st35{opacity:0.1;fill:#FFFFFF;}
	.st36{opacity:0.5;fill:#DAE5EF;}
	.st37{fill:#8D9BA3;}
	.st38{fill:#7A5B44;}
	.st39{opacity:0.2;fill:#FFFFFF;}
	.st40{fill:#45CBEA;}
	.st41{opacity:0.1;}
	.st42{fill:#7B8B92;}
	.st43{fill:#ACB9C1;}
	.st44{fill:#846144;}
	.st45{fill:#9A795F;}
	.st46{opacity:0.2;}
	.st47{fill:#719D34;}
	.st48{fill:#31373A;}
	.st49{fill:#FFDE55;}
	.st50{fill:#CF7519;}
	.st51{fill:none;stroke:#D03F3F;stroke-width:36;stroke-miterlimit:10;}
	.st52{fill:#F29A2E;}
	.st53{opacity:0.25;}
	.st54{fill:#E18823;}
	.st55{opacity:0.5;fill:#E18823;}
	.st56{opacity:0.2;fill:#5A5F63;}
	.st57{fill:#64892F;}
</style>
<g>
	<g>
		<g>
			<path class="st14" d="M8.876,32c-2.276,0-4.552-0.867-6.286-2.599c-1.675-1.675-2.594-3.905-2.59-6.278
				c0.004-2.371,0.93-4.599,2.607-6.275c1.908-1.909,5.752-4.064,9.1-5.126c1.085-3.407,3.206-7.181,5.142-9.115
				C18.525,0.931,20.753,0.005,23.123,0c0.004,0,0.011,0,0.017,0c2.367,0,4.589,0.92,6.262,2.592c3.463,3.465,3.463,9.103,0,12.568
				c-1.945,1.945-5.724,4.058-9.13,5.126c-1.043,3.348-3.193,7.196-5.11,9.115C13.428,31.133,11.152,32,8.876,32z M23.14,1.673
				c-0.004,0-0.011,0-0.015,0c-1.923,0.004-3.733,0.756-5.092,2.117c-1.544,1.542-3.77,5.163-4.855,8.839l-0.129,0.439l-0.438,0.127
				c-3.657,1.067-7.274,3.288-8.821,4.835c-1.363,1.361-2.115,3.17-2.117,5.095c-0.004,1.925,0.743,3.733,2.102,5.092
				c2.718,2.72,7.484,2.72,10.202,0c1.555-1.555,3.772-5.179,4.818-8.833l0.126-0.445l0.444-0.129
				c3.674-1.063,7.303-3.284,8.851-4.834c1.361-1.36,2.11-3.171,2.11-5.102c0-1.929-0.749-3.741-2.11-5.101
				C26.862,2.419,25.059,1.673,23.14,1.673z"/>
		</g>
	</g>
	<g>
		<g>
			<path class="st15" d="M8.876,30.506c-1.895,0-3.788-0.721-5.229-2.162c-2.873-2.874-2.866-7.558,0.015-10.44
				c1.697-1.696,5.689-4.075,9.139-5.088c1.015-3.45,3.4-7.45,5.103-9.153c2.886-2.884,7.568-2.886,10.441-0.015
				c2.881,2.883,2.881,7.573,0,10.455c-1.708,1.704-5.706,4.091-9.154,5.103c-1.013,3.448-3.391,7.439-5.086,9.138
				C12.662,29.785,10.769,30.506,8.876,30.506z M23.138,3.169c-1.466,0-2.932,0.559-4.049,1.677
				c-1.594,1.592-3.955,5.624-4.798,8.861l-0.124,0.475l-0.475,0.123c-3.239,0.843-7.261,3.197-8.845,4.782
				c-1.085,1.085-1.684,2.521-1.686,4.045c-0.002,1.52,0.592,2.952,1.671,4.03c2.224,2.228,5.854,2.231,8.091,0
				c1.583-1.587,3.938-5.61,4.778-8.846l0.124-0.475l0.475-0.123c3.236-0.842,7.266-3.204,8.862-4.797
				c2.23-2.23,2.23-5.86-0.002-8.09C26.054,3.723,24.597,3.169,23.138,3.169z"/>
		</g>
	</g>
	<g>
		<g>
			<path class="st14" d="M8.876,28.878c-1.477,0-2.953-0.562-4.077-1.686c-1.089-1.088-1.686-2.534-1.681-4.071
				c0.007-1.533,0.608-2.977,1.699-4.066c1.374-1.376,5.837-4.281,9.13-5.096c0.834-3.309,3.74-7.773,5.107-9.144
				c2.248-2.243,5.896-2.256,8.139-0.015c1.089,1.088,1.688,2.536,1.688,4.076c0,1.541-0.599,2.989-1.69,4.077
				c-1.372,1.374-5.844,4.276-9.158,5.095c-0.819,3.314-3.711,7.775-5.079,9.145C11.83,28.317,10.353,28.878,8.876,28.878z
				 M23.138,4.797c-1.048,0-2.1,0.4-2.901,1.2c-1.316,1.318-4.234,5.948-4.765,8.819l-0.107,0.568l-0.568,0.102
				c-2.899,0.521-7.44,3.393-8.797,4.751c-0.775,0.774-1.204,1.8-1.209,2.889c-0.002,1.088,0.42,2.112,1.191,2.883
				c1.594,1.596,4.193,1.595,5.787,0.001c1.35-1.35,4.212-5.895,4.737-8.814l0.102-0.573l0.573-0.102
				c2.871-0.515,7.508-3.43,8.827-4.751c0.775-0.773,1.2-1.8,1.2-2.895c0-1.093-0.425-2.12-1.198-2.893
				C25.22,5.191,24.181,4.797,23.138,4.797z"/>
		</g>
	</g>
	<g>
		<g>
			<path class="st17" d="M20.128,21.021c-0.229,0-0.457-0.087-0.632-0.261l-8.311-8.312c-0.348-0.348-0.348-0.913,0-1.261
				c0.348-0.348,0.915-0.348,1.263,0l8.311,8.312c0.348,0.348,0.348,0.913,0,1.261C20.585,20.934,20.357,21.021,20.128,21.021z"/>
		</g>
	</g>
	<g>
		<g>
			<path class="st17" d="M12.662,26.319c-0.044,0-0.087-0.003-0.131-0.009c-0.488-0.071-0.825-0.524-0.754-1.012
				c0.862-5.949,3.864-9.326,3.99-9.467c0.329-0.364,0.889-0.395,1.259-0.064c0.366,0.329,0.394,0.892,0.068,1.259
				c-0.028,0.03-2.77,3.146-3.552,8.529C13.478,25.999,13.097,26.319,12.662,26.319z"/>
		</g>
		<g>
			<path class="st17" d="M16.43,27.57c-0.137,0-0.274-0.032-0.405-0.098c-0.438-0.223-0.612-0.76-0.39-1.199
				c0.013-0.027,1.361-2.728,0.318-4.543c-2.004-3.486-0.301-5.752-0.229-5.847c0.301-0.39,0.862-0.461,1.252-0.158
				c0.39,0.302,0.46,0.861,0.159,1.251c-0.035,0.047-1.019,1.46,0.364,3.865c1.529,2.66-0.2,6.099-0.277,6.244
				C17.066,27.392,16.754,27.57,16.43,27.57z"/>
		</g>
	</g>
</g>
</svg>
