<?xml version="1.0" encoding="utf-8"?>
<!-- Generator: Adobe Illustrator 21.1.0, SVG Export Plug-In . SVG Version: 6.00 Build 0)  -->
<svg version="1.1" id="Layer_1" xmlns="http://www.w3.org/2000/svg" xmlns:xlink="http://www.w3.org/1999/xlink" x="0px" y="0px"
	 viewBox="0 0 32 32" style="enable-background:new 0 0 32 32;" xml:space="preserve">
<style type="text/css">
	.st0{fill:#45CBEA;}
	.st1{fill:#FFD93B;}
	.st2{fill:#F4C534;}
	.st3{fill:#3E4347;}
	.st4{opacity:0.2;}
	.st5{fill:#DE9C25;}
	.st6{fill:#FFFFFF;}
	.st7{fill:#E24B4B;}
	.st8{fill:#8CC63E;}
	.st9{fill:#D03F3F;}
	.st10{fill:#846144;}
	.st11{fill:#5A5F63;}
	.st12{fill:#777B7E;}
	.st13{fill:#FFDC97;}
	.st14{fill:#FFE9AB;}
	.st15{fill:#93979A;}
	.st16{fill:#FFD68D;}
	.st17{fill:#728389;}
	.st18{fill:#DAE5EF;}
	.st19{fill:#65B1EF;}
	.st20{fill:#F2F7F9;}
	.st21{fill:#8D9BA3;}
	.st22{opacity:0.2;fill:#F2F7F9;}
	.st23{fill:#E9EFF4;}
	.st24{fill:#FC97B2;}
	.st25{fill:#E84D88;}
	.st26{fill:#A5856D;}
	.st27{fill:#E9B02C;}
	.st28{fill:#7FB239;}
	.st29{fill:#CBD6E0;}
	.st30{fill:#ACB9C1;}
	.st31{fill:#8F6D52;}
	.st32{opacity:0.2;fill:#FFFFFF;}
	.st33{fill:#9A795F;}
	.st34{fill:#BBC7D1;}
	.st35{fill:#E18823;}
	.st36{fill:#F29A2E;}
	.st37{fill:#89664C;}
	.st38{fill:#D3D9DD;}
	.st39{fill:#DEE4E9;}
	.st40{fill:#AD2727;}
	.st41{fill:#719D34;}
	.st42{fill:#353A3D;}
	.st43{opacity:0.25;}
	.st44{opacity:0.2;fill:#3E4347;}
	.st45{fill:#373C3F;}
	.st46{opacity:0.1;}
	.st47{opacity:0.06;}
	.st48{fill:#7A5B44;}
	.st49{fill:#6B503B;}
	.st50{fill:#31373A;}
	.st51{fill:#59A5E0;}
	.st52{fill:#363B3F;}
	.st53{fill:#BF3333;}
	.st54{opacity:0.3;}
	.st55{fill:#4E99D2;}
	.st56{opacity:0.15;}
	.st57{opacity:0.1;fill:#3E4347;}
	.st58{fill:#64892F;}
	.st59{opacity:0.08;fill:#FFFFFF;}
	.st60{opacity:0.1;fill:#FFFFFF;}
</style>
<g>
	<g>
		<path class="st18" d="M18.045,19.815v10.002h3.223c0.597,0,1.091,0.495,1.091,1.091c0,0.596-0.495,1.091-1.091,1.091H10.545
			c-0.596,0-1.091-0.495-1.091-1.091c0-0.596,0.495-1.091,1.091-1.091h3.236V19.815C7.715,18.812,3.083,13.571,3.007,7.238h25.8
			C28.743,13.571,24.111,18.812,18.045,19.815z"/>
		<path class="st3" d="M2.96,5.298l6.524,6.524c0.188,0.188,0.188,0.493,0.009,0.673l-0.009,0.009
			C9.305,12.683,9,12.683,8.811,12.495L2.287,5.971C2.099,5.783,2.099,5.478,2.278,5.298l0.009-0.009
			C2.467,5.11,2.772,5.11,2.96,5.298z"/>
		<g>
			<path class="st19" d="M18.585,14.487c-0.434-0.155-0.66-0.634-0.504-1.067l3.964-11.058c0.09-0.252,0.295-0.445,0.551-0.519
				l6.19-1.808c0.442-0.129,0.906,0.124,1.035,0.567c0.129,0.443-0.124,0.906-0.567,1.035l-5.782,1.689l-3.821,10.658
				C19.496,14.417,19.018,14.641,18.585,14.487z"/>
		</g>
		<path class="st7" d="M4.991,11.046c1.634,4.464,5.923,7.676,10.921,7.676s9.287-3.211,10.921-7.676H4.991z"/>
		<g>
			<path class="st9" d="M20.697,11.05l-1.05,2.93c-0.143,0.404-0.576,0.671-1.06,0.51c-0.44-0.16-0.66-0.64-0.51-1.07l0.85-2.37
				H20.697z"/>
		</g>
	</g>
	<g>
		<circle class="st8" cx="5.887" cy="8.9" r="2.38"/>
	</g>
	<g>
		<path class="st28" d="M7.567,10.58c-0.93,0.93-2.44,0.93-3.36,0c-0.14-0.14-0.25-0.29-0.34-0.45c0.91,0.54,2.11,0.41,2.89-0.37
			c0.78-0.78,0.9-1.99,0.35-2.9c0.17,0.09,0.32,0.21,0.46,0.35C8.497,8.14,8.497,9.65,7.567,10.58z"/>
	</g>
	<g class="st4">
		
			<ellipse transform="matrix(0.7071 -0.7071 0.7071 0.7071 -4.1954 5.8741)" class="st6" cx="4.993" cy="8.001" rx="0.81" ry="0.525"/>
	</g>
</g>
</svg>
