<?xml version="1.0" encoding="utf-8"?>
<!-- Generator: Adobe Illustrator 21.1.0, SVG Export Plug-In . SVG Version: 6.00 Build 0)  -->
<svg version="1.1" id="Layer_1" xmlns="http://www.w3.org/2000/svg" xmlns:xlink="http://www.w3.org/1999/xlink" x="0px" y="0px"
	 viewBox="0 0 32 32" style="enable-background:new 0 0 32 32;" xml:space="preserve">
<style type="text/css">
	.st0{fill:#E9EFF4;}
	.st1{fill:#BBC7D1;}
	.st2{fill:#E24B4B;}
	.st3{fill:#D23F77;}
	.st4{fill:#D3D9DD;}
	.st5{fill:#E84D88;}
	.st6{fill:#DEE4E9;}
	.st7{fill:#3E4347;}
	.st8{fill:#65B1EF;}
	.st9{fill:#FFFFFF;}
	.st10{fill:#59A5E0;}
	.st11{opacity:0.15;fill:#FFFFFF;}
	.st12{fill:#D03F3F;}
	.st13{opacity:0.15;}
	.st14{fill:#E9B02C;}
	.st15{fill:#F4C534;}
	.st16{opacity:0.5;}
	.st17{fill:#FFD93B;}
	.st18{fill:#353A3D;}
	.st19{fill:#777B7E;}
	.st20{fill:#5A5F63;}
	.st21{fill:#4E99D2;}
	.st22{fill:#CBD6E0;}
	.st23{fill:#6B503B;}
	.st24{fill:#89664C;}
	.st25{fill:#8F6D52;}
	.st26{fill:#A5856D;}
	.st27{fill:#C2CACE;}
	.st28{fill:#BF3333;}
	.st29{fill:#DAE5EF;}
	.st30{fill:#373C3F;}
	.st31{fill:#8CC63E;}
	.st32{fill:#7FB239;}
	.st33{opacity:0.7;}
	.st34{fill:#32373A;}
	.st35{opacity:0.1;fill:#FFFFFF;}
	.st36{opacity:0.5;fill:#DAE5EF;}
	.st37{fill:#8D9BA3;}
	.st38{fill:#7A5B44;}
	.st39{opacity:0.2;fill:#FFFFFF;}
	.st40{fill:#45CBEA;}
	.st41{opacity:0.1;}
	.st42{fill:#7B8B92;}
	.st43{fill:#ACB9C1;}
	.st44{fill:#846144;}
	.st45{fill:#9A795F;}
	.st46{opacity:0.2;}
	.st47{fill:#719D34;}
	.st48{fill:#31373A;}
	.st49{fill:#FFDE55;}
	.st50{fill:#CF7519;}
	.st51{fill:none;stroke:#D03F3F;stroke-width:36;stroke-miterlimit:10;}
	.st52{fill:#F29A2E;}
	.st53{opacity:0.25;}
	.st54{fill:#E18823;}
	.st55{opacity:0.5;fill:#E18823;}
	.st56{opacity:0.2;fill:#5A5F63;}
	.st57{fill:#64892F;}
</style>
<g>
	<g>
		<g>
			<g>
				<g>
					<rect x="20.43" y="18.127" class="st30" width="1.16" height="13.873"/>
				</g>
			</g>
		</g>
		<g>
			<g>
				<path class="st7" d="M32,1.362c-0.819-0.719-1.892-1.155-3.067-1.155c-2.57,0-4.654,2.084-4.654,4.654s2.084,4.654,4.654,4.654
					c1.175,0,2.248-0.437,3.067-1.155V1.362z"/>
			</g>
		</g>
		<g>
			<g>
				<path class="st7" d="M23.588,0.276v9.253c0,0.119-0.039,0.234-0.108,0.331c-0.629,0.898-0.979,1.966-0.979,3.062
					c0,0.05,0.001,0.1,0.003,0.151c0.033,1.225,0.066,2.907,0.06,4.574c-0.002,0.396-0.261,0.744-0.639,0.862l-2.045,0.64
					c-0.35,0.11-0.71-0.155-0.701-0.522c0.073-2.928,0.481-5.999-0.629-7.729c-1.287-2.004-3.045-3.448-3.045-5.331
					c0-1.859,1.071-5.706,7.813-5.564C23.466,0.007,23.588,0.129,23.588,0.276z"/>
			</g>
		</g>
		<g>
			<g>
				<path class="st20" d="M27.37,0.481c-0.786-0.171-1.63-0.265-2.511-0.265c-4.161,0-7.533,2.08-7.533,4.645
					s3.372,4.645,7.533,4.645c0.881,0,1.725-0.094,2.511-0.265V0.481z"/>
			</g>
		</g>
		<g>
			<g>
				<path class="st0" d="M24.859,0.216c-0.433,0-0.858,0.024-1.271,0.067v9.156c0.413,0.043,0.838,0.067,1.271,0.067
					c0.335,0,0.665-0.014,0.989-0.04v-9.21C25.525,0.23,25.195,0.216,24.859,0.216z"/>
			</g>
		</g>
	</g>
	<g>
		<g>
			<g>
				<g>
					<rect x="10.41" y="25.261" class="st30" width="1.16" height="6.739"/>
				</g>
			</g>
		</g>
		<g>
			<g>
				<path class="st7" d="M0,8.497c0.819-0.719,1.892-1.155,3.067-1.155c2.57,0,4.654,2.084,4.654,4.654S5.638,16.65,3.067,16.65
					c-1.175,0-2.248-0.437-3.067-1.155L0,8.497z"/>
			</g>
		</g>
		<g>
			<g>
				<path class="st7" d="M8.412,7.41v9.253c0,0.119,0.039,0.234,0.108,0.331c0.629,0.898,0.979,1.966,0.979,3.062
					c0,0.05-0.001,0.1-0.003,0.151c-0.033,1.225-0.066,2.907-0.06,4.574c0.002,0.396,0.261,0.744,0.639,0.862l2.045,0.64
					c0.35,0.11,0.71-0.155,0.701-0.522c-0.073-2.928-0.481-5.999,0.629-7.729c1.287-2.004,3.045-3.448,3.045-5.331
					c0-1.859-1.071-5.706-7.813-5.564C8.534,7.141,8.412,7.264,8.412,7.41z"/>
			</g>
		</g>
		<g>
			<g>
				<path class="st20" d="M4.63,7.616C5.415,7.445,6.26,7.35,7.141,7.35c4.161,0,7.533,2.08,7.533,4.645s-3.372,4.645-7.533,4.645
					c-0.881,0-1.725-0.094-2.511-0.265V7.616z"/>
			</g>
		</g>
		<g>
			<g>
				<path class="st0" d="M7.141,7.35c0.433,0,0.858,0.024,1.271,0.067v9.156c-0.413,0.043-0.838,0.067-1.271,0.067
					c-0.335,0-0.665-0.014-0.989-0.04v-9.21C6.475,7.364,6.805,7.35,7.141,7.35z"/>
			</g>
		</g>
	</g>
</g>
</svg>
