<?xml version="1.0" encoding="utf-8"?>
<!-- Generator: Adobe Illustrator 21.1.0, SVG Export Plug-In . SVG Version: 6.00 Build 0)  -->
<svg version="1.1" id="Layer_1" xmlns="http://www.w3.org/2000/svg" xmlns:xlink="http://www.w3.org/1999/xlink" x="0px" y="0px"
	 viewBox="0 0 32 32" style="enable-background:new 0 0 32 32;" xml:space="preserve">
<style type="text/css">
	.st0{fill:#E9EFF4;}
	.st1{fill:#BBC7D1;}
	.st2{fill:#E24B4B;}
	.st3{fill:#D23F77;}
	.st4{fill:#D3D9DD;}
	.st5{fill:#E84D88;}
	.st6{fill:#DEE4E9;}
	.st7{fill:#3E4347;}
	.st8{fill:#65B1EF;}
	.st9{fill:#FFFFFF;}
	.st10{fill:#59A5E0;}
	.st11{opacity:0.15;fill:#FFFFFF;}
	.st12{fill:#D03F3F;}
	.st13{opacity:0.15;}
	.st14{fill:#E9B02C;}
	.st15{fill:#F4C534;}
	.st16{opacity:0.5;}
	.st17{fill:#FFD93B;}
	.st18{fill:#353A3D;}
	.st19{fill:#777B7E;}
	.st20{fill:#5A5F63;}
	.st21{fill:#4E99D2;}
	.st22{fill:#CBD6E0;}
	.st23{fill:#6B503B;}
	.st24{fill:#89664C;}
	.st25{fill:#8F6D52;}
	.st26{fill:#A5856D;}
	.st27{fill:#C2CACE;}
	.st28{fill:#BF3333;}
	.st29{fill:#DAE5EF;}
	.st30{fill:#373C3F;}
	.st31{fill:#8CC63E;}
	.st32{fill:#7FB239;}
	.st33{opacity:0.7;}
	.st34{fill:#32373A;}
	.st35{opacity:0.1;fill:#FFFFFF;}
	.st36{opacity:0.5;fill:#DAE5EF;}
	.st37{fill:#8D9BA3;}
	.st38{fill:#7A5B44;}
	.st39{opacity:0.2;fill:#FFFFFF;}
	.st40{fill:#45CBEA;}
	.st41{opacity:0.1;}
	.st42{fill:#7B8B92;}
	.st43{fill:#ACB9C1;}
	.st44{fill:#846144;}
	.st45{fill:#9A795F;}
	.st46{opacity:0.2;}
	.st47{fill:#719D34;}
	.st48{fill:#31373A;}
	.st49{fill:#FFDE55;}
	.st50{fill:#CF7519;}
	.st51{fill:none;stroke:#D03F3F;stroke-width:36;stroke-miterlimit:10;}
	.st52{fill:#F29A2E;}
	.st53{opacity:0.25;}
	.st54{fill:#E18823;}
	.st55{opacity:0.5;fill:#E18823;}
	.st56{opacity:0.2;fill:#5A5F63;}
	.st57{fill:#64892F;}
</style>
<g>
	<path class="st7" d="M26.003,17.377c0,0-0.64,8.475-2.226,12.259c-0.36,0.859-1.119,1.485-2.029,1.686
		c-4.009,0.885-8.002,0.92-11.976,0.007c-0.895-0.206-1.636-0.832-1.992-1.678c-1.59-3.776-2.232-12.273-2.232-12.273l9.73-0.844
		l0.047-0.003l0.046,0.003L26.003,17.377z"/>
	<path class="st7" d="M26.003,17.377c0,0-0.64,8.475-2.226,12.259c-0.36,0.859-1.119,1.485-2.029,1.686
		c-4.009,0.885-8.002,0.92-11.976,0.007c-0.895-0.206-1.636-0.832-1.992-1.678c-1.59-3.776-2.232-12.273-2.232-12.273l9.73-0.844
		l0.047-0.003l0.046,0.003L26.003,17.377z"/>
	<path class="st30" d="M9.772,31.329c3.974,0.914,7.967,0.879,11.976-0.007c0.909-0.201,1.669-0.827,2.029-1.686
		c1.586-3.783,2.226-12.259,2.226-12.259S24.004,30.411,7.78,29.651C8.136,30.497,8.877,31.123,9.772,31.329z"/>
	<path class="st2" d="M15.371,16.533l-0.046-0.003l-0.047,0.003l-9.73,0.844c0,0,0.1,1.319,0.318,3.148
		c6.161,1.029,12.801,1.04,19.781,0.326c0.245-1.996,0.357-3.474,0.357-3.474L15.371,16.533z"/>
	<path class="st7" d="M10.21,15.023c0,0,3.692,0.802,5.998,0.822s3.517,0.402,3.517,0.402s-9.499,2.786-12.868,0.83
		s-2.054-2.925-2.054-2.925S7.679,14.251,10.21,15.023z"/>
	<path class="st8" d="M22.824,17.116c0.181-0.36,0.364-0.722,0.582-1.071c0.892-1.476,2.066-2.745,3.029-3.58
		c0.479-0.423,0.91-0.733,1.208-0.952c0.306-0.208,0.481-0.328,0.481-0.328l-0.576-0.817c0,0-0.177,0.14-0.486,0.385
		c-0.301,0.255-0.733,0.616-1.205,1.097c-0.951,0.951-2.077,2.364-2.887,3.948c-0.229,0.434-0.418,0.877-0.596,1.317H22.824z"/>
	<path class="st8" d="M28.992,11.235c-0.047,0.044-0.066,0.106-0.056,0.169l0.175,1.009c0.025,0.156-0.137,0.278-0.278,0.203
		l-0.909-0.478c-0.056-0.028-0.122-0.028-0.178,0l-0.906,0.478c-0.141,0.075-0.306-0.047-0.278-0.203l0.172-1.009
		c0.013-0.062-0.009-0.125-0.053-0.169l-0.734-0.715c-0.112-0.112-0.05-0.303,0.106-0.328l1.012-0.147
		c0.062-0.009,0.119-0.047,0.147-0.103l0.453-0.921c0.069-0.141,0.272-0.141,0.344,0l0.453,0.921
		c0.028,0.056,0.081,0.094,0.144,0.103l1.015,0.147c0.156,0.025,0.219,0.216,0.106,0.328L28.992,11.235z"/>
	<path class="st15" d="M9.339,17.116h0.445c-0.736-2.257-1.675-4.461-2.781-6.576c-0.404-0.804-0.84-1.594-1.297-2.375L4.865,8.706
		c0.503,0.731,0.991,1.476,1.448,2.24C7.481,12.915,8.502,14.981,9.339,17.116z"/>
	<path class="st17" d="M6.225,7.619c0.018,0.064,0.067,0.11,0.127,0.133l0.987,0.35C7.49,8.161,7.519,8.371,7.385,8.457l-0.863,0.56
		C6.47,9.051,6.438,9.109,6.435,9.173C6.423,9.519,6.417,9.856,6.394,10.2c-0.009,0.16-0.198,0.239-0.316,0.136L5.3,9.697
		c-0.047-0.041-0.112-0.051-0.17-0.034L4.154,9.97C4.002,10.017,3.87,9.881,3.925,9.735L4.283,8.79
		c0.021-0.059,0.014-0.125-0.022-0.174L3.658,7.839C3.566,7.725,3.66,7.556,3.808,7.535c0,0,0.248-0.02,0.504-0.026
		c0.256-0.004,0.511-0.008,0.511-0.008c0.063-0.001,0.12-0.032,0.155-0.085L5.541,6.55c0.084-0.135,0.295-0.101,0.35,0.056
		c0,0,0.086,0.254,0.173,0.508C6.145,7.367,6.225,7.619,6.225,7.619z"/>
	<path class="st32" d="M10.869,17.116h0.568c-0.14-1.081-0.301-2.16-0.505-3.232c-0.171-0.881-0.356-1.761-0.564-2.636l-0.964,0.265
		c0.27,0.852,0.518,1.71,0.752,2.572C10.427,15.087,10.658,16.099,10.869,17.116z"/>
	<path class="st31" d="M11.029,10.884c-0.002,0.065,0.028,0.124,0.079,0.162l0.836,0.611c0.127,0.098,0.096,0.304-0.058,0.347
		L10.9,12.293c-0.06,0.019-0.107,0.065-0.128,0.124l-0.331,0.972c-0.052,0.151-0.256,0.174-0.342,0.043l-0.566-0.839
		c-0.034-0.053-0.093-0.082-0.155-0.083l-1.022,0.007c-0.159,0-0.246-0.173-0.152-0.298l0.62-0.806
		c0.038-0.05,0.051-0.116,0.031-0.174l-0.336-0.951c-0.052-0.144,0.089-0.29,0.24-0.247l0.976,0.308
		c0.06,0.019,0.124,0.007,0.174-0.031l0.812-0.632c0.126-0.096,0.307-0.007,0.311,0.155L11.029,10.884z"/>
	<path class="st15" d="M15.11,17.116h0.267c-0.192-4.289-0.752-8.571-1.829-12.767C13.351,3.47,13.114,2.6,12.857,1.731
		l-0.945,0.326c0.313,0.829,0.611,1.668,0.868,2.521C14.008,8.65,14.74,12.864,15.11,17.116z"/>
	<path class="st17" d="M13.491,1.323c0.003,0.066,0.04,0.124,0.092,0.16l0.876,0.578c0.134,0.094,0.111,0.304-0.04,0.355
		l-0.971,0.337c-0.059,0.022-0.104,0.07-0.123,0.131L13.04,3.872c-0.047,0.153-0.25,0.185-0.339,0.057l-0.603-0.807
		c-0.036-0.051-0.096-0.077-0.157-0.074l-1.021,0.067c-0.158,0.01-0.253-0.153-0.165-0.281l0.572-0.831
		c0.034-0.052,0.043-0.117,0.02-0.173c0,0-0.099-0.225-0.198-0.45c-0.102-0.218-0.205-0.437-0.205-0.437
		c-0.063-0.13,0.069-0.265,0.216-0.259c-0.006-0.024,0.994,0.193,0.994,0.193c0.061,0.014,0.124-0.004,0.171-0.046
		c0,0,0.188-0.177,0.376-0.354c0.184-0.182,0.369-0.364,0.369-0.364c0.112-0.114,0.312-0.028,0.33,0.139c0,0,0.026,0.27,0.053,0.54
		C13.471,1.057,13.491,1.323,13.491,1.323z"/>
	<path class="st32" d="M21.215,17.116c0.274-1.032,0.567-2.058,0.898-3.068c0.279-0.843,0.571-1.681,0.884-2.51l-0.948-0.316
		c-0.256,0.87-0.491,1.746-0.711,2.626c-0.267,1.08-0.49,2.172-0.692,3.269H21.215z"/>
	<path class="st31" d="M23.746,11.607c-0.038,0.051-0.043,0.114-0.021,0.173l0.378,0.932c0.058,0.144-0.074,0.291-0.227,0.247
		l-0.99-0.276c-0.061-0.016-0.125-0.002-0.174,0.037l-0.781,0.658c-0.121,0.104-0.31,0.024-0.317-0.135l-0.048-1.026
		c-0.001-0.064-0.035-0.121-0.087-0.155l-0.865-0.553c-0.133-0.088-0.107-0.292,0.042-0.35l0.97-0.351
		c0.06-0.021,0.109-0.069,0.126-0.13l0.286-0.998c0.044-0.152,0.244-0.187,0.339-0.06l0.606,0.828
		c0.038,0.05,0.097,0.077,0.16,0.075l1.026-0.029c0.158-0.001,0.254,0.172,0.163,0.298L23.746,11.607z"/>
	<path class="st12" d="M19.048,17.116c0.403-3.124,1.021-6.207,2.05-9.153c0.308-0.827,0.673-1.628,1.072-2.397L21.27,5.13
		c-0.366,0.852-0.684,1.716-0.938,2.595c-0.904,3.079-1.372,6.228-1.62,9.391H19.048z"/>
	<path class="st2" d="M22.901,5.742c-0.042,0.042-0.056,0.1-0.041,0.157c0,0,0.071,0.233,0.142,0.465
		c0.075,0.228,0.151,0.457,0.151,0.457c0.043,0.137-0.093,0.265-0.242,0.208l-0.963-0.36c-0.059-0.021-0.124-0.013-0.175,0.021
		c-0.272,0.192-0.556,0.386-0.825,0.594c-0.125,0.097-0.309,0.006-0.309-0.155l0.034-1.04c0.004-0.065-0.025-0.126-0.072-0.165
		l-0.799-0.646c-0.122-0.104-0.07-0.319,0.086-0.366c0,0,0.256-0.069,0.511-0.137c0.256-0.061,0.513-0.123,0.513-0.123
		c0.063-0.015,0.118-0.058,0.145-0.119c0,0,0.119-0.249,0.239-0.499c0.127-0.25,0.277-0.507,0.277-0.507
		c0.087-0.152,0.341-0.192,0.363,0c-0.009,0.01,0.071,0.269,0.17,0.508c0.105,0.234,0.211,0.468,0.211,0.468
		c0.027,0.055,0.081,0.094,0.142,0.104c0,0,0.251,0.048,0.502,0.097c0.246,0.057,0.491,0.115,0.491,0.115
		c0.149,0.042,0.217,0.214,0.116,0.296c0,0-0.166,0.138-0.335,0.296C23.063,5.566,22.901,5.742,22.901,5.742z"/>
	<path class="st10" d="M16.766,17.116c0.5-4.287,1.365-8.518,2.725-12.58c0.302-0.833,0.642-1.651,0.997-2.455l-0.927-0.376
		c-0.305,0.861-0.592,1.726-0.837,2.602c-1.209,4.187-1.901,8.486-2.224,12.81H16.766z"/>
	<path class="st8" d="M21.231,2.203c-0.04,0.047-0.052,0.107-0.032,0.167l0.33,0.936c0.051,0.144-0.085,0.282-0.236,0.231
		l-0.976-0.324c-0.06-0.019-0.125-0.009-0.175,0.028l-0.81,0.62c-0.123,0.1-0.309,0.011-0.312-0.149l0.002-1.031
		c0.002-0.065-0.03-0.124-0.08-0.16L18.11,1.917c-0.127-0.096-0.088-0.304,0.065-0.355l0.995-0.301
		c0.062-0.018,0.114-0.063,0.136-0.124c0,0,0.092-0.249,0.184-0.499c0.1-0.251,0.2-0.503,0.2-0.503
		c0.063-0.155,0.281-0.19,0.35-0.035c-0.014,0.02,0.513,0.901,0.513,0.901c0.033,0.053,0.09,0.085,0.153,0.089
		c0,0,0.255,0.017,0.51,0.033c0.254,0.023,0.508,0.045,0.508,0.045c0.156,0.021,0.238,0.185,0.141,0.299c0,0-0.159,0.18-0.319,0.36
		C21.388,2.015,21.231,2.203,21.231,2.203z"/>
	<path class="st17" d="M26.055,3.108c-0.019,0.019-0.028,0.044-0.024,0.071l0.079,0.456c0.011,0.066-0.058,0.116-0.117,0.085
		l-0.41-0.215c-0.023-0.012-0.051-0.012-0.074,0l-0.41,0.215c-0.059,0.031-0.128-0.019-0.117-0.085l0.078-0.456
		c0.005-0.027-0.004-0.052-0.023-0.071l-0.331-0.323c-0.048-0.047-0.022-0.128,0.044-0.137l0.457-0.067
		c0.027-0.004,0.05-0.02,0.061-0.044l0.206-0.414c0.03-0.061,0.114-0.061,0.144,0l0.204,0.414c0.012,0.024,0.035,0.04,0.061,0.044
		l0.459,0.067c0.066,0.009,0.093,0.09,0.044,0.137L26.055,3.108z"/>
	<path class="st17" d="M7.586,3.934C7.567,3.953,7.558,3.979,7.562,4.005l0.079,0.456c0.011,0.066-0.058,0.116-0.117,0.085
		l-0.41-0.215c-0.023-0.012-0.051-0.012-0.074,0L6.63,4.546C6.571,4.577,6.502,4.527,6.513,4.461l0.078-0.456
		c0.005-0.027-0.004-0.052-0.023-0.071L6.237,3.611C6.189,3.564,6.216,3.484,6.282,3.474l0.457-0.067
		c0.027-0.004,0.05-0.02,0.061-0.044l0.206-0.414c0.03-0.061,0.114-0.061,0.144,0l0.204,0.414c0.012,0.024,0.035,0.04,0.061,0.044
		l0.459,0.067c0.066,0.009,0.093,0.09,0.044,0.137L7.586,3.934z"/>
	<path class="st2" d="M30.292,5.942c-0.019,0.019-0.028,0.044-0.024,0.071l0.079,0.456c0.011,0.066-0.058,0.116-0.117,0.085
		l-0.41-0.215c-0.023-0.012-0.051-0.012-0.074,0l-0.41,0.215c-0.059,0.031-0.128-0.019-0.117-0.085l0.078-0.456
		c0.005-0.027-0.004-0.052-0.023-0.071L28.944,5.62c-0.048-0.047-0.022-0.128,0.044-0.137l0.457-0.067
		c0.027-0.004,0.05-0.02,0.061-0.044l0.206-0.414c0.03-0.061,0.114-0.061,0.144,0l0.204,0.414c0.012,0.024,0.035,0.04,0.061,0.044
		l0.459,0.067c0.066,0.009,0.093,0.09,0.044,0.137L30.292,5.942z"/>
	<path class="st2" d="M3.699,5.361C3.68,5.38,3.67,5.406,3.674,5.433l0.079,0.456c0.011,0.066-0.058,0.116-0.117,0.085l-0.41-0.215
		c-0.023-0.012-0.051-0.012-0.074,0l-0.41,0.215C2.683,6.004,2.615,5.954,2.625,5.889l0.078-0.456
		C2.709,5.406,2.699,5.38,2.681,5.361L2.35,5.039C2.301,4.992,2.328,4.911,2.394,4.902l0.457-0.067
		c0.027-0.004,0.05-0.02,0.061-0.044l0.206-0.414c0.03-0.061,0.114-0.061,0.144,0L3.466,4.79c0.012,0.024,0.035,0.04,0.061,0.044
		l0.459,0.067c0.066,0.009,0.093,0.09,0.044,0.137L3.699,5.361z"/>
	<path class="st31" d="M28.155,3.528c-0.012,0.012-0.018,0.028-0.015,0.045l0.05,0.285c0.007,0.041-0.036,0.072-0.073,0.053
		L27.86,3.776c-0.014-0.008-0.032-0.008-0.046,0L27.557,3.91c-0.037,0.019-0.08-0.012-0.073-0.053l0.049-0.285
		c0.003-0.017-0.003-0.033-0.014-0.045l-0.207-0.202c-0.03-0.029-0.013-0.08,0.028-0.086l0.286-0.042
		c0.017-0.003,0.031-0.013,0.038-0.028l0.129-0.259c0.018-0.038,0.071-0.038,0.09,0l0.128,0.259
		c0.008,0.015,0.022,0.025,0.038,0.028l0.287,0.042c0.041,0.006,0.058,0.056,0.028,0.086L28.155,3.528z"/>
	<path class="st31" d="M17.061,6.007c-0.012,0.012-0.018,0.028-0.015,0.045l0.05,0.285c0.007,0.041-0.036,0.072-0.073,0.053
		l-0.256-0.135c-0.014-0.008-0.032-0.008-0.046,0l-0.256,0.135c-0.037,0.019-0.08-0.012-0.073-0.053l0.049-0.285
		c0.003-0.017-0.003-0.033-0.014-0.045l-0.207-0.202c-0.03-0.029-0.013-0.08,0.028-0.086l0.286-0.042
		c0.017-0.003,0.031-0.013,0.038-0.028l0.129-0.259c0.018-0.038,0.071-0.038,0.09,0l0.128,0.259
		c0.008,0.015,0.022,0.025,0.038,0.028l0.287,0.042c0.041,0.006,0.058,0.056,0.028,0.086L17.061,6.007z"/>
	<path class="st17" d="M13.598,10.473c-0.012,0.012-0.018,0.028-0.015,0.045l0.05,0.285c0.007,0.041-0.036,0.072-0.073,0.053
		l-0.256-0.135c-0.014-0.008-0.032-0.008-0.046,0L13,10.856c-0.037,0.019-0.08-0.012-0.073-0.053l0.049-0.285
		c0.003-0.017-0.003-0.033-0.014-0.045l-0.207-0.202c-0.03-0.029-0.013-0.08,0.028-0.086l0.286-0.042
		c0.017-0.003,0.031-0.013,0.038-0.028l0.129-0.259c0.018-0.038,0.071-0.038,0.09,0l0.128,0.259
		c0.008,0.015,0.022,0.025,0.038,0.028l0.287,0.042c0.041,0.006,0.058,0.056,0.028,0.086L13.598,10.473z"/>
	<path class="st8" d="M10.263,8.083c-0.012,0.012-0.018,0.028-0.015,0.045l0.05,0.285c0.007,0.041-0.036,0.072-0.073,0.053
		L9.968,8.331c-0.014-0.008-0.032-0.008-0.046,0L9.665,8.466c-0.037,0.019-0.08-0.012-0.073-0.053l0.049-0.285
		c0.003-0.017-0.003-0.033-0.014-0.045L9.42,7.882c-0.03-0.029-0.013-0.08,0.028-0.086l0.286-0.042
		C9.75,7.751,9.765,7.741,9.771,7.726L9.9,7.467c0.018-0.038,0.071-0.038,0.09,0l0.128,0.259c0.008,0.015,0.022,0.025,0.038,0.028
		l0.287,0.042c0.041,0.006,0.058,0.056,0.028,0.086L10.263,8.083z"/>
	<path class="st2" d="M8.639,9.33C8.627,9.342,8.621,9.358,8.624,9.375l0.05,0.285C8.68,9.701,8.637,9.732,8.6,9.713L8.344,9.578
		c-0.014-0.008-0.032-0.008-0.046,0L8.041,9.713C8.004,9.732,7.961,9.701,7.968,9.66l0.049-0.285C8.02,9.358,8.014,9.342,8.002,9.33
		L7.795,9.129c-0.03-0.029-0.013-0.08,0.028-0.086l0.286-0.042C8.126,8.998,8.14,8.988,8.147,8.973l0.129-0.259
		c0.018-0.038,0.071-0.038,0.09,0l0.128,0.259c0.008,0.015,0.022,0.025,0.038,0.028l0.287,0.042
		c0.041,0.006,0.058,0.056,0.028,0.086L8.639,9.33z"/>
	<path class="st20" d="M26.447,14.497c-4.289,0.608-10.123,2.005-13.772,2.005s-7.149-1.134-7.247-1.923
		c-0.069-0.549,1.334-0.235,2.783-0.035l0,0c-1.798-0.404-4.482-0.83-7.085-0.166c0,0-0.825,0.08-0.612,0.782
		s4.01,3.413,8.398,3.511c4.388,0.099,15.037-1.183,15.037-1.183s6.853-0.953,7.461-2.071l0.102-0.632
		C31.512,14.786,30.736,13.889,26.447,14.497z"/>
	<path class="st19" d="M31.512,14.786c0.512,0.147,0.657,0.801,0.26,1.157c-0.553,0.495-1.611,1.187-3.407,1.48
		c-0.025,0.004-12.609,2.194-20.017,1.59c-2.04-0.166-6.286-1.035-7.962-3.143c-0.854-1.074-0.154-1.415,0.739-1.491
		c-0.218,0.053-0.459,0.187-0.388,0.524c0.097,0.462,2.099,2.847,7.755,3.252c7.017,0.501,19.054-1.567,19.897-1.754
		c1.393-0.308,2.773-0.974,3.118-1.615C31.509,14.785,31.51,14.785,31.512,14.786z"/>
	<polygon class="st19" points="15.324,16.53 15.278,16.532 15.278,16.526 	"/>
	<polygon class="st19" points="15.371,16.526 15.371,16.532 15.324,16.53 	"/>
	<path class="st12" d="M26.003,17.377c0,0-0.239,1.555-1.219,3.558c0.287-0.027,0.574-0.055,0.862-0.084
		C25.891,18.855,26.003,17.377,26.003,17.377z"/>
</g>
</svg>
