<?xml version="1.0" encoding="utf-8"?>
<!-- Generator: Adobe Illustrator 21.1.0, SVG Export Plug-In . SVG Version: 6.00 Build 0)  -->
<svg version="1.1" id="Layer_1" xmlns="http://www.w3.org/2000/svg" xmlns:xlink="http://www.w3.org/1999/xlink" x="0px" y="0px"
	 viewBox="0 0 32 32" style="enable-background:new 0 0 32 32;" xml:space="preserve">
<style type="text/css">
	.st0{fill:#E9EFF4;}
	.st1{fill:#BBC7D1;}
	.st2{fill:#E24B4B;}
	.st3{fill:#D23F77;}
	.st4{fill:#D3D9DD;}
	.st5{fill:#E84D88;}
	.st6{fill:#DEE4E9;}
	.st7{fill:#3E4347;}
	.st8{fill:#65B1EF;}
	.st9{fill:#FFFFFF;}
	.st10{fill:#59A5E0;}
	.st11{opacity:0.15;fill:#FFFFFF;}
	.st12{fill:#D03F3F;}
	.st13{opacity:0.15;}
	.st14{fill:#E9B02C;}
	.st15{fill:#F4C534;}
	.st16{opacity:0.5;}
	.st17{fill:#FFD93B;}
	.st18{fill:#353A3D;}
	.st19{fill:#777B7E;}
	.st20{fill:#5A5F63;}
	.st21{fill:#4E99D2;}
	.st22{fill:#CBD6E0;}
	.st23{fill:#6B503B;}
	.st24{fill:#89664C;}
	.st25{fill:#8F6D52;}
	.st26{fill:#A5856D;}
	.st27{fill:#C2CACE;}
	.st28{fill:#BF3333;}
	.st29{fill:#DAE5EF;}
	.st30{fill:#373C3F;}
	.st31{fill:#8CC63E;}
	.st32{fill:#7FB239;}
	.st33{opacity:0.7;}
	.st34{fill:#32373A;}
	.st35{opacity:0.1;fill:#FFFFFF;}
	.st36{opacity:0.5;fill:#DAE5EF;}
	.st37{fill:#8D9BA3;}
	.st38{fill:#7A5B44;}
	.st39{opacity:0.2;fill:#FFFFFF;}
	.st40{fill:#45CBEA;}
	.st41{opacity:0.1;}
	.st42{fill:#7B8B92;}
	.st43{fill:#ACB9C1;}
	.st44{fill:#846144;}
	.st45{fill:#9A795F;}
	.st46{opacity:0.2;}
	.st47{fill:#719D34;}
	.st48{fill:#31373A;}
	.st49{fill:#FFDE55;}
	.st50{fill:#CF7519;}
	.st51{fill:none;stroke:#D03F3F;stroke-width:36;stroke-miterlimit:10;}
	.st52{fill:#F29A2E;}
	.st53{opacity:0.25;}
	.st54{fill:#E18823;}
	.st55{opacity:0.5;fill:#E18823;}
	.st56{opacity:0.2;fill:#5A5F63;}
	.st57{fill:#64892F;}
</style>
<g>
	<g>
		<g>
			<g>
				<path class="st7" d="M26.004,5.133H6.007l1.54-4.491C7.686,0.257,8.039,0,8.445,0h15.11c0.406,0,0.77,0.257,0.909,0.642
					L26.004,5.133z"/>
			</g>
			<g>
				<path class="st7" d="M6.007,26.867l19.997,0l-1.54,4.491C24.325,31.743,23.972,32,23.566,32l-15.11,0
					c-0.406,0-0.77-0.257-0.909-0.642L6.007,26.867z"/>
			</g>
		</g>
		<g>
			<g>
				<path class="st30" d="M2.949,9.595v8.5c0,0.235-0.182,0.428-0.417,0.428H1.879c-0.235,0-0.417-0.192-0.417-0.428v-8.5
					c0-0.235,0.182-0.428,0.417-0.428h0.652C2.767,9.167,2.949,9.359,2.949,9.595z"/>
			</g>
			<g>
				<path class="st30" d="M30.538,9.595v3.24c0,0.235-0.182,0.428-0.417,0.428h-0.652c-0.235,0-0.417-0.192-0.417-0.428v-3.24
					c0-0.235,0.182-0.428,0.417-0.428h0.652C30.356,9.167,30.538,9.359,30.538,9.595z"/>
			</g>
			<g>
				<path class="st30" d="M30.538,15.747v2.134c0,0.235-0.182,0.428-0.417,0.428h-0.652c-0.235,0-0.417-0.192-0.417-0.428v-2.134
					c0-0.235,0.182-0.428,0.417-0.428h0.652C30.356,15.319,30.538,15.512,30.538,15.747z"/>
			</g>
			<g>
				<path class="st29" d="M29.875,7.916v16.767c0,1.529-1.251,2.78-2.78,2.78H5.515c-1.871,0-3.379-1.518-3.379-3.379V7.317
					c0-1.54,1.24-2.78,2.78-2.78h21.579C28.356,4.537,29.875,6.044,29.875,7.916z"/>
				<g>
					<path class="st7" d="M5.515,26.127c-1.127,0-2.043-0.916-2.043-2.043V7.317c0-0.796,0.647-1.444,1.443-1.444h21.58
						c1.126,0,2.042,0.916,2.042,2.042v16.767c0,0.796-0.647,1.444-1.443,1.444H5.515z"/>
				</g>
			</g>
		</g>
	</g>
	<path class="st30" d="M6.591,26.127h20.503c0.796,0,1.443-0.647,1.443-1.444V7.916C28.538,7.916,28.23,22.774,6.591,26.127z"/>
	<g>
		<path class="st8" d="M26.352,15.999c0,1.395-0.275,2.734-0.788,3.949H6.436c-0.513-1.215-0.788-2.554-0.788-3.949
			c0-1.405,0.275-2.743,0.788-3.958h19.128C26.077,13.256,26.352,14.594,26.352,15.999z"/>
	</g>
	<g>
		<path class="st9" d="M9.279,13.563c0.461,0,0.822,0.165,1.082,0.494c0.31,0.39,0.465,1.036,0.465,1.939
			c0,0.901-0.156,1.548-0.468,1.942c-0.258,0.325-0.617,0.487-1.078,0.487c-0.463,0-0.837-0.178-1.121-0.534
			c-0.284-0.356-0.426-0.991-0.426-1.905c0-0.897,0.156-1.542,0.468-1.936C8.458,13.726,8.818,13.563,9.279,13.563z M9.279,14.32
			c-0.11,0-0.209,0.035-0.296,0.106s-0.154,0.197-0.201,0.378c-0.063,0.236-0.094,0.633-0.094,1.192s0.028,0.943,0.084,1.152
			c0.056,0.209,0.127,0.348,0.213,0.417c0.086,0.069,0.184,0.104,0.294,0.104s0.209-0.035,0.296-0.106
			c0.087-0.07,0.154-0.197,0.201-0.378c0.063-0.234,0.094-0.63,0.094-1.189s-0.028-0.943-0.084-1.152s-0.127-0.349-0.213-0.419
			C9.488,14.355,9.39,14.32,9.279,14.32z"/>
		<path class="st9" d="M12.979,13.563c0.461,0,0.822,0.165,1.082,0.494c0.31,0.39,0.465,1.036,0.465,1.939
			c0,0.901-0.156,1.548-0.468,1.942c-0.258,0.325-0.617,0.487-1.078,0.487c-0.463,0-0.837-0.178-1.121-0.534
			c-0.284-0.356-0.426-0.991-0.426-1.905c0-0.897,0.156-1.542,0.468-1.936C12.158,13.726,12.518,13.563,12.979,13.563z
			 M12.979,14.32c-0.11,0-0.209,0.035-0.296,0.106c-0.087,0.07-0.154,0.197-0.201,0.378c-0.063,0.236-0.094,0.633-0.094,1.192
			s0.028,0.943,0.084,1.152c0.056,0.209,0.127,0.348,0.213,0.417c0.086,0.069,0.184,0.104,0.294,0.104s0.209-0.035,0.296-0.106
			c0.087-0.07,0.154-0.197,0.201-0.378c0.063-0.234,0.094-0.63,0.094-1.189s-0.028-0.943-0.084-1.152s-0.127-0.349-0.213-0.419
			C13.187,14.355,13.09,14.32,12.979,14.32z"/>
		<path class="st9" d="M15.506,15.132V14.22h0.913v0.913H15.506z M15.506,17.669v-0.913h0.913v0.913H15.506z"/>
		<path class="st9" d="M18.894,13.563c0.461,0,0.822,0.165,1.082,0.494c0.31,0.39,0.465,1.036,0.465,1.939
			c0,0.901-0.156,1.548-0.468,1.942c-0.258,0.325-0.617,0.487-1.078,0.487c-0.463,0-0.837-0.178-1.121-0.534
			c-0.284-0.356-0.426-0.991-0.426-1.905c0-0.897,0.156-1.542,0.468-1.936C18.074,13.726,18.433,13.563,18.894,13.563z
			 M18.894,14.32c-0.11,0-0.209,0.035-0.296,0.106s-0.154,0.197-0.201,0.378c-0.063,0.236-0.094,0.633-0.094,1.192
			s0.028,0.943,0.084,1.152c0.056,0.209,0.127,0.348,0.213,0.417c0.086,0.069,0.184,0.104,0.294,0.104s0.209-0.035,0.296-0.106
			c0.087-0.07,0.154-0.197,0.201-0.378c0.063-0.234,0.094-0.63,0.094-1.189s-0.028-0.943-0.084-1.152s-0.127-0.349-0.213-0.419
			S19.005,14.32,18.894,14.32z"/>
		<path class="st9" d="M21.064,17.12l0.91-0.094c0.026,0.206,0.103,0.369,0.231,0.489s0.275,0.18,0.442,0.18
			c0.191,0,0.352-0.077,0.484-0.232s0.198-0.388,0.198-0.7c0-0.292-0.066-0.512-0.197-0.658c-0.131-0.146-0.302-0.219-0.512-0.219
			c-0.262,0-0.497,0.116-0.705,0.348l-0.741-0.107l0.468-2.478h2.414v0.854h-1.722l-0.143,0.809
			c0.204-0.102,0.411-0.153,0.624-0.153c0.405,0,0.748,0.147,1.03,0.442c0.282,0.295,0.422,0.677,0.422,1.147
			c0,0.392-0.114,0.742-0.341,1.049c-0.31,0.42-0.74,0.63-1.29,0.63c-0.44,0-0.798-0.118-1.075-0.354
			C21.284,17.836,21.118,17.519,21.064,17.12z"/>
	</g>
	<g>
		<path class="st10" d="M26.352,15.999c0-0.405-0.029-0.802-0.074-1.195c-0.984,1.678-2.402,3.468-4.432,5.144h3.718
			C26.077,18.733,26.352,17.395,26.352,15.999z"/>
	</g>
</g>
</svg>
