<?xml version="1.0" encoding="utf-8"?>
<!-- Generator: Adobe Illustrator 21.1.0, SVG Export Plug-In . SVG Version: 6.00 Build 0)  -->
<svg version="1.1" id="Layer_1" xmlns="http://www.w3.org/2000/svg" xmlns:xlink="http://www.w3.org/1999/xlink" x="0px" y="0px"
	 viewBox="0 0 32 32" style="enable-background:new 0 0 32 32;" xml:space="preserve">
<style type="text/css">
	.st0{fill:#E9EFF4;}
	.st1{fill:#BBC7D1;}
	.st2{fill:#E24B4B;}
	.st3{fill:#D23F77;}
	.st4{fill:#D3D9DD;}
	.st5{fill:#E84D88;}
	.st6{fill:#DEE4E9;}
	.st7{fill:#3E4347;}
	.st8{fill:#65B1EF;}
	.st9{fill:#FFFFFF;}
	.st10{fill:#59A5E0;}
	.st11{opacity:0.15;fill:#FFFFFF;}
	.st12{fill:#D03F3F;}
	.st13{opacity:0.15;}
	.st14{fill:#E9B02C;}
	.st15{fill:#F4C534;}
	.st16{opacity:0.5;}
	.st17{fill:#FFD93B;}
	.st18{fill:#353A3D;}
	.st19{fill:#777B7E;}
	.st20{fill:#5A5F63;}
	.st21{fill:#4E99D2;}
	.st22{fill:#CBD6E0;}
	.st23{fill:#6B503B;}
	.st24{fill:#89664C;}
	.st25{fill:#8F6D52;}
	.st26{fill:#A5856D;}
	.st27{fill:#C2CACE;}
	.st28{fill:#BF3333;}
	.st29{fill:#DAE5EF;}
	.st30{fill:#373C3F;}
	.st31{fill:#8CC63E;}
	.st32{fill:#7FB239;}
	.st33{opacity:0.7;}
	.st34{fill:#32373A;}
	.st35{opacity:0.1;fill:#FFFFFF;}
	.st36{opacity:0.5;fill:#DAE5EF;}
	.st37{fill:#8D9BA3;}
	.st38{fill:#7A5B44;}
	.st39{opacity:0.2;fill:#FFFFFF;}
	.st40{fill:#45CBEA;}
	.st41{opacity:0.1;}
	.st42{fill:#7B8B92;}
	.st43{fill:#ACB9C1;}
	.st44{fill:#846144;}
	.st45{fill:#9A795F;}
	.st46{opacity:0.2;}
	.st47{fill:#719D34;}
	.st48{fill:#31373A;}
	.st49{fill:#FFDE55;}
	.st50{fill:#CF7519;}
	.st51{fill:none;stroke:#D03F3F;stroke-width:36;stroke-miterlimit:10;}
	.st52{fill:#F29A2E;}
	.st53{opacity:0.25;}
	.st54{fill:#E18823;}
	.st55{opacity:0.5;fill:#E18823;}
	.st56{opacity:0.2;fill:#5A5F63;}
	.st57{fill:#64892F;}
</style>
<g>
	<g>
		<g>
			<g>
				<path class="st6" d="M15.294,0.336h-0.01C12.39,1.179,8.797,3.93,8.076,12.274c-3.187,0.213-5.675,2.913-5.675,6.182v6.446
					h1.076v-6.446c0-2.67,2-4.893,4.588-5.116v12.709h1.076V13.37c0.129,0.013,0.3,0.046,0.426,0.071
					c14.404,3.066,19.186,0.964,20.658-1.34C33.406,7.082,22.955-1.842,15.294,0.336z M29.322,11.523h-0.01
					c-0.843,1.33-4.446,4.081-19.511,0.883c-0.223-0.061-0.467-0.091-0.65-0.112c0.528-6.091,2.751-9.867,6.426-10.933
					C22.602-0.65,31.845,7.643,29.322,11.523z"/>
			</g>
		</g>
	</g>
	<g>
		<g>
			<path class="st10" d="M4.545,26.044c0,0.598-0.487,0.598-0.487,1.197c0,0.598,0.487,0.598,0.487,1.183
				c0,0.598-0.487,0.598-0.487,1.197c0,0.598,0.487,0.598,0.487,1.197c0,0.51-0.005,0.7-0.278,1.025C4.183,31.94,4.062,32,3.932,32
				c-0.974-0.028-1.651-0.315-2.24-0.937c-0.074-0.074-0.116-0.181-0.116-0.283v-7.125h2.969c0,0.598-0.487,0.598-0.487,1.192
				C4.058,25.446,4.545,25.446,4.545,26.044z"/>
		</g>
		<g>
			<path class="st8" d="M4.891,23.518c0,0.207-0.164,0.37-0.37,0.37h-2.97c-0.199,0-0.363-0.164-0.363-0.37
				c0-0.199,0.164-0.363,0.363-0.363h2.97C4.728,23.155,4.891,23.318,4.891,23.518z"/>
		</g>
	</g>
	<g>
		<g>
			<path class="st10" d="M10.231,26.037c0,0.598-0.487,0.598-0.487,1.197s0.487,0.598,0.487,1.183c0,0.598-0.487,0.598-0.487,1.197
				c0,0.598,0.487,0.598,0.487,1.197c0,0.51-0.005,0.7-0.278,1.025c-0.083,0.097-0.204,0.158-0.334,0.158
				c-0.974-0.028-1.651-0.315-2.24-0.937c-0.074-0.074-0.116-0.181-0.116-0.283v-7.125h2.969c0,0.598-0.487,0.598-0.487,1.192
				C9.744,25.439,10.231,25.439,10.231,26.037z"/>
		</g>
		<g>
			<path class="st8" d="M10.578,23.511c0,0.207-0.164,0.37-0.37,0.37h-2.97c-0.199,0-0.363-0.164-0.363-0.37
				c0-0.199,0.164-0.363,0.363-0.363h2.97C10.414,23.148,10.578,23.311,10.578,23.511z"/>
		</g>
	</g>
</g>
</svg>
