<?xml version="1.0" encoding="utf-8"?>
<!-- Generator: Adobe Illustrator 21.1.0, SVG Export Plug-In . SVG Version: 6.00 Build 0)  -->
<svg version="1.1" id="Layer_1" xmlns="http://www.w3.org/2000/svg" xmlns:xlink="http://www.w3.org/1999/xlink" x="0px" y="0px"
	 viewBox="0 0 32 32" style="enable-background:new 0 0 32 32;" xml:space="preserve">
<style type="text/css">
	.st0{fill:#E9EFF4;}
	.st1{fill:#BBC7D1;}
	.st2{fill:#E24B4B;}
	.st3{fill:#D23F77;}
	.st4{fill:#D3D9DD;}
	.st5{fill:#E84D88;}
	.st6{fill:#DEE4E9;}
	.st7{fill:#3E4347;}
	.st8{fill:#65B1EF;}
	.st9{fill:#FFFFFF;}
	.st10{fill:#59A5E0;}
	.st11{opacity:0.15;fill:#FFFFFF;}
	.st12{fill:#D03F3F;}
	.st13{opacity:0.15;}
	.st14{fill:#E9B02C;}
	.st15{fill:#F4C534;}
	.st16{opacity:0.5;}
	.st17{fill:#FFD93B;}
	.st18{fill:#353A3D;}
	.st19{fill:#777B7E;}
	.st20{fill:#5A5F63;}
	.st21{fill:#4E99D2;}
	.st22{fill:#CBD6E0;}
	.st23{fill:#6B503B;}
	.st24{fill:#89664C;}
	.st25{fill:#8F6D52;}
	.st26{fill:#A5856D;}
	.st27{fill:#C2CACE;}
	.st28{fill:#BF3333;}
	.st29{fill:#DAE5EF;}
	.st30{fill:#373C3F;}
	.st31{fill:#8CC63E;}
	.st32{fill:#7FB239;}
	.st33{opacity:0.7;}
	.st34{fill:#32373A;}
	.st35{opacity:0.1;fill:#FFFFFF;}
	.st36{opacity:0.5;fill:#DAE5EF;}
	.st37{fill:#8D9BA3;}
	.st38{fill:#7A5B44;}
	.st39{opacity:0.2;fill:#FFFFFF;}
	.st40{fill:#45CBEA;}
	.st41{opacity:0.1;}
	.st42{fill:#7B8B92;}
	.st43{fill:#ACB9C1;}
	.st44{fill:#846144;}
	.st45{fill:#9A795F;}
	.st46{opacity:0.2;}
	.st47{fill:#719D34;}
	.st48{fill:#31373A;}
	.st49{fill:#FFDE55;}
	.st50{fill:#CF7519;}
	.st51{fill:none;stroke:#D03F3F;stroke-width:36;stroke-miterlimit:10;}
	.st52{fill:#F29A2E;}
	.st53{opacity:0.25;}
	.st54{fill:#E18823;}
	.st55{opacity:0.5;fill:#E18823;}
	.st56{opacity:0.2;fill:#5A5F63;}
	.st57{fill:#64892F;}
</style>
<g>
	<g>
		<g>
			<g>
				<path class="st7" d="M14.152,20.254v8.902c0,1.015,0.828,1.843,1.853,1.843c1.015,0,1.843-0.828,1.843-1.843v-8.902H14.152z"/>
			</g>
			<g>
				<g>
					<path class="st7" d="M8.932,21.568l-2.834,7.969c-0.34,0.956,0.162,2.014,1.128,2.357c0.956,0.34,2.014-0.163,2.354-1.119
						l3.274-9.207H8.932z"/>
				</g>
				<g>
					<path class="st7" d="M25.902,29.537l-2.834-7.969h-3.922l3.274,9.207c0.34,0.956,1.398,1.459,2.354,1.119
						C25.739,31.55,26.241,30.493,25.902,29.537z"/>
				</g>
			</g>
		</g>
		<g>
			<path class="st2" d="M16,25.487c-7.027,0-12.744-5.717-12.744-12.744S8.974,0,16,0s12.743,5.717,12.743,12.744
				S23.027,25.487,16,25.487z"/>
			<path class="st9" d="M16,22.104c-5.162,0-9.361-4.199-9.361-9.361S10.839,3.383,16,3.383c5.161,0,9.36,4.199,9.36,9.361
				S21.161,22.104,16,22.104z"/>
			<circle class="st2" cx="16" cy="12.744" r="5.978"/>
			<circle class="st9" cx="16" cy="12.744" r="2.595"/>
		</g>
	</g>
	<g>
		<g>
			<polygon class="st17" points="26.035,2.65 28.65,3.099 26.054,5.695 23.439,5.246 22.99,2.631 25.586,0.035 			"/>
		</g>
		<g>
			<path class="st7" d="M27.118,1.567c0.217,0.217,0.217,0.564,0,0.781L16.295,13.171c-0.217,0.217-0.564,0.217-0.781,0
				c-0.217-0.217-0.217-0.564,0-0.781L26.336,1.567C26.553,1.35,26.901,1.35,27.118,1.567z"/>
		</g>
	</g>
</g>
</svg>
