<?xml version="1.0" encoding="utf-8"?>
<!-- Generator: Adobe Illustrator 21.1.0, SVG Export Plug-In . SVG Version: 6.00 Build 0)  -->
<svg version="1.1" id="Layer_1" xmlns="http://www.w3.org/2000/svg" xmlns:xlink="http://www.w3.org/1999/xlink" x="0px" y="0px"
	 viewBox="0 0 32 32" style="enable-background:new 0 0 32 32;" xml:space="preserve">
<style type="text/css">
	.st0{fill:#E9EFF4;}
	.st1{fill:#BBC7D1;}
	.st2{fill:#E24B4B;}
	.st3{fill:#D23F77;}
	.st4{fill:#D3D9DD;}
	.st5{fill:#E84D88;}
	.st6{fill:#DEE4E9;}
	.st7{fill:#3E4347;}
	.st8{fill:#65B1EF;}
	.st9{fill:#FFFFFF;}
	.st10{fill:#59A5E0;}
	.st11{opacity:0.15;fill:#FFFFFF;}
	.st12{fill:#D03F3F;}
	.st13{opacity:0.15;}
	.st14{fill:#E9B02C;}
	.st15{fill:#F4C534;}
	.st16{opacity:0.5;}
	.st17{fill:#FFD93B;}
	.st18{fill:#353A3D;}
	.st19{fill:#777B7E;}
	.st20{fill:#5A5F63;}
	.st21{fill:#4E99D2;}
	.st22{fill:#CBD6E0;}
	.st23{fill:#6B503B;}
	.st24{fill:#89664C;}
	.st25{fill:#8F6D52;}
	.st26{fill:#A5856D;}
	.st27{fill:#C2CACE;}
	.st28{fill:#BF3333;}
	.st29{fill:#DAE5EF;}
	.st30{fill:#373C3F;}
	.st31{fill:#8CC63E;}
	.st32{fill:#7FB239;}
	.st33{opacity:0.7;}
	.st34{fill:#32373A;}
	.st35{opacity:0.1;fill:#FFFFFF;}
	.st36{opacity:0.5;fill:#DAE5EF;}
	.st37{fill:#8D9BA3;}
	.st38{fill:#7A5B44;}
	.st39{opacity:0.2;fill:#FFFFFF;}
	.st40{fill:#45CBEA;}
	.st41{opacity:0.1;}
	.st42{fill:#7B8B92;}
	.st43{fill:#ACB9C1;}
	.st44{fill:#846144;}
	.st45{fill:#9A795F;}
	.st46{opacity:0.2;}
	.st47{fill:#719D34;}
	.st48{fill:#31373A;}
	.st49{fill:#FFDE55;}
	.st50{fill:#CF7519;}
	.st51{fill:none;stroke:#D03F3F;stroke-width:36;stroke-miterlimit:10;}
	.st52{fill:#F29A2E;}
	.st53{opacity:0.25;}
	.st54{fill:#E18823;}
	.st55{opacity:0.5;fill:#E18823;}
	.st56{opacity:0.2;fill:#5A5F63;}
	.st57{fill:#64892F;}
</style>
<g>
	<g>
		<g>
			<path class="st29" d="M5.98,16.728c2.849,2.118,6.663,0.268,10.042-0.547c3.172-0.946,6.316-1.067,9.676-0.495
				c0.66,0.153,1.365,0.682,1.491,1.008c1.235,3.158,2.779,7.102,4.763,12.169c0.249,0.636-0.522,0.547-1.649-0.076
				c-5.61-3.624-9.584-0.519-14.284,1.173c-5.168,2.298-10.411,2.619-15.097,1.143c-0.804-0.37-1.095-1.558-0.825-2.239
				c1.982-5.066,3.526-9.01,4.763-12.169C4.978,16.39,5.465,16.429,5.98,16.728z"/>
			<g>
				<path class="st32" d="M28.601,26.248c-4.809-2.804-8.381,0.023-12.575,1.945c-4.675,2.448-9.591,3.551-13.813,1.802
					c1.296-3.927,2.632-7.972,3.916-11.858c2.858,2,6.598-0.014,9.896-1.104c3.051-1.152,6.002-1.602,9.245-0.87
					C25.959,18.249,27,21.401,28.601,26.248z"/>
			</g>
		</g>
		<g>
			<path class="st15" d="M9.739,24.52c-0.622,0.799-1.253,1.54-1.892,2.214c1.315,1.321,2.787,2.181,4.323,3.125
				c1.291-0.437,2.583-0.999,3.856-1.666c2.548-1.168,4.867-2.662,7.373-3.033c0.055-0.01,0.111-0.025,0.166-0.034
				C18.844,22.995,14.183,25.433,9.739,24.52z"/>
			<path class="st15" d="M5.03,21.466c0.476,1.758,1.142,3.206,1.981,4.308c2.113-2,4.182-4.935,5.957-7.637
				c-2.435,0.869-4.881,1.266-6.838,0C5.767,19.232,5.4,20.343,5.03,21.466z"/>
		</g>
		<g>
			<path class="st9" d="M24.687,20.349c0.009,0.011,0.014,0.02,0.016,0.029c0.017,0.05-0.04,0.084-0.13,0.076
				c-0.064-0.004-0.129-0.008-0.192-0.01c-0.102,0-0.217-0.048-0.273-0.112c-0.058-0.065-0.008-0.12,0.093-0.126
				c0.07,0.002,0.142,0.005,0.215,0.011C24.525,20.225,24.647,20.284,24.687,20.349z"/>
			<path class="st9" d="M26.708,20.798c0.015,0.019,0.025,0.038,0.034,0.057c0.013,0.042-0.03,0.058-0.119,0.027
				c-0.073-0.026-0.144-0.048-0.215-0.072c-0.115-0.036-0.256-0.129-0.319-0.203c-0.068-0.084-0.021-0.12,0.091-0.089
				c0.068,0.019,0.134,0.039,0.201,0.061C26.488,20.611,26.639,20.713,26.708,20.798z"/>
			<path class="st9" d="M19.98,20.546c-0.053,0.081-0.173,0.143-0.261,0.144c-0.053,0.002-0.113-0.002-0.159-0.004
				c-0.086,0.002-0.112-0.063-0.055-0.142c0.062-0.082,0.181-0.146,0.269-0.141c0.046,0.002,0.096,0.005,0.15,0
				c0.057,0,0.083,0.026,0.086,0.062C20.014,20.489,20,20.518,19.98,20.546z"/>
			<path class="st9" d="M17.677,20.123c0.09-0.076,0.21-0.123,0.26-0.096c0.031,0.015,0.064,0.031,0.096,0.046
				c0.015,0.009,0.026,0.022,0.026,0.039c0.003,0.039-0.027,0.089-0.093,0.148c-0.09,0.08-0.204,0.121-0.262,0.098
				c-0.032-0.015-0.064-0.031-0.097-0.046C17.559,20.285,17.588,20.203,17.677,20.123z"/>
			<path class="st9" d="M18.563,20.258c0.031,0.002,0.039,0.025,0.043,0.046c0,0.031-0.017,0.077-0.069,0.127
				c-0.081,0.079-0.205,0.136-0.268,0.119c-0.04-0.011-0.08-0.022-0.121-0.032c-0.064-0.02-0.046-0.1,0.035-0.18
				c0.079-0.079,0.204-0.131,0.267-0.114C18.49,20.236,18.527,20.247,18.563,20.258z"/>
			<path class="st9" d="M20.846,20.508c-0.036,0.071-0.147,0.133-0.249,0.143c-0.066,0.004-0.119,0.006-0.181,0.011
				c-0.095,0.008-0.14-0.051-0.095-0.122c0.036-0.077,0.149-0.139,0.248-0.148c0.055-0.001,0.108-0.001,0.164-0.007
				c0.071-0.001,0.114,0.023,0.121,0.068C20.854,20.466,20.85,20.488,20.846,20.508z"/>
			<path class="st9" d="M23.713,20.324c0.014,0.06-0.048,0.105-0.149,0.106c-0.067,0-0.136,0.002-0.204,0.004
				c-0.11,0.004-0.213-0.039-0.236-0.104c-0.027-0.06,0.05-0.121,0.161-0.125c0.062-0.003,0.126-0.005,0.186-0.006
				c0.109,0,0.217,0.051,0.239,0.115C23.711,20.319,23.711,20.32,23.713,20.324z"/>
			<path class="st9" d="M19.21,20.525c-0.072,0.082-0.193,0.142-0.265,0.132c-0.048-0.004-0.096-0.012-0.145-0.016
				c-0.081-0.006-0.078-0.083-0.006-0.161c0.072-0.083,0.193-0.139,0.272-0.132c0.038,0.008,0.088,0.012,0.128,0.021
				c0.041,0.004,0.058,0.023,0.06,0.05C19.26,20.45,19.245,20.484,19.21,20.525z"/>
			<path class="st9" d="M16.762,19.09c0.104-0.061,0.201-0.074,0.219-0.026c0.008,0.028,0.024,0.053,0.033,0.081
				c0.008,0.004,0.007,0.008,0.008,0.016c0.002,0.044-0.065,0.123-0.147,0.175c-0.107,0.067-0.202,0.082-0.228,0.04
				c-0.01-0.034-0.023-0.059-0.032-0.091C16.59,19.239,16.666,19.15,16.762,19.09z"/>
			<path class="st9" d="M22.549,20.48c-0.071,0.004-0.136,0.012-0.203,0.013c-0.11,0.012-0.199-0.035-0.193-0.097
				c0.002-0.067,0.088-0.128,0.194-0.134c0.062-0.004,0.126-0.008,0.186-0.015c0.103-0.007,0.189,0.037,0.2,0.096
				c0,0.005,0,0.004,0.002,0.009C22.742,20.417,22.658,20.472,22.549,20.48z"/>
			<path class="st9" d="M25.687,20.509c0.012,0.013,0.013,0.027,0.019,0.036c0.015,0.051-0.033,0.072-0.119,0.054
				c-0.07-0.015-0.141-0.028-0.21-0.04c-0.107-0.018-0.24-0.093-0.291-0.162c-0.049-0.069-0.001-0.113,0.106-0.097
				c0.063,0.01,0.126,0.021,0.19,0.033C25.498,20.354,25.636,20.437,25.687,20.509z"/>
			<path class="st9" d="M21.552,20.57c-0.061,0.002-0.133,0.011-0.196,0.015c-0.102,0.01-0.174-0.037-0.144-0.108
				c0.021-0.069,0.121-0.131,0.222-0.139c0.056-0.006,0.117-0.011,0.178-0.017c0.085-0.006,0.153,0.025,0.163,0.076
				c0.002,0.013-0.004,0.025-0.002,0.034C21.753,20.496,21.653,20.557,21.552,20.57z"/>
			<path class="st9" d="M17.52,19.767c0.024,0.022,0.049,0.039,0.08,0.056c0.007,0.008,0.018,0.017,0.017,0.034
				c0.002,0.038-0.041,0.1-0.117,0.159c-0.089,0.075-0.206,0.113-0.246,0.078c-0.031-0.018-0.056-0.035-0.08-0.057
				c-0.039-0.035,0.002-0.124,0.101-0.199C17.37,19.764,17.478,19.733,17.52,19.767z"/>
			<path class="st9" d="M16.963,19.494c0.108-0.069,0.202-0.09,0.236-0.049c0.013,0.025,0.04,0.042,0.056,0.067
				c0.008,0.008,0.008,0.016,0.009,0.029c0.002,0.042-0.048,0.111-0.125,0.164c-0.098,0.073-0.206,0.098-0.245,0.064
				c-0.015-0.025-0.032-0.052-0.056-0.077C16.807,19.654,16.866,19.562,16.963,19.494z"/>
			<g>
				<path class="st9" d="M20.486,16.647c-0.223,0.036-0.23-0.096-0.007-0.13c0.057-0.009,0.113-0.016,0.169-0.024
					c0.09-0.011,0.167,0.006,0.173,0.038c0,0.002,0,0.002,0.001,0.005c-0.003,0.033-0.079,0.073-0.173,0.086
					C20.596,16.63,20.541,16.639,20.486,16.647z"/>
			</g>
			<path class="st9" d="M18.939,16.847c0.095-0.026,0.174-0.016,0.178,0.024c-0.001,0.041-0.075,0.095-0.17,0.124
				c-0.054,0.016-0.11,0.033-0.164,0.05c-0.095,0.03-0.176,0.018-0.179-0.021c-0.005-0.042,0.067-0.099,0.165-0.127
				C18.825,16.88,18.882,16.863,18.939,16.847z"/>
			<path class="st9" d="M24.278,16.511c0.001,0.005,0.011,0.011,0.011,0.014c0.011,0.031-0.045,0.044-0.129,0.035
				c-0.056-0.005-0.123-0.014-0.179-0.019c-0.101-0.009-0.198-0.045-0.23-0.082c-0.022-0.033,0.032-0.059,0.124-0.05
				c0.055,0.004,0.11,0.01,0.17,0.015C24.135,16.432,24.245,16.471,24.278,16.511z"/>
			<path class="st9" d="M21.514,16.523c-0.057,0.005-0.113,0.01-0.17,0.016c-0.096,0.01-0.175-0.009-0.181-0.043
				c-0.006-0.034,0.064-0.069,0.159-0.078c0.057-0.005,0.114-0.011,0.17-0.015c0.093-0.008,0.176,0.013,0.182,0.047
				C21.681,16.483,21.607,16.515,21.514,16.523z"/>
			<path class="st9" d="M22.385,16.479c-0.06,0.001-0.119,0.002-0.179,0.005c-0.086,0.002-0.179-0.022-0.184-0.052
				c-0.014-0.033,0.056-0.064,0.152-0.066c0.055-0.002,0.109-0.003,0.164-0.004c0.096-0.003,0.185,0.024,0.199,0.057
				c0.001,0,0.001,0,0.001,0.002C22.543,16.451,22.474,16.477,22.385,16.479z"/>
			<g>
				<path class="st9" d="M19.802,16.638c0.089-0.016,0.161-0.002,0.165,0.033c0.001,0.003,0.001,0.003,0.001,0.005
					c-0.001,0.039-0.073,0.082-0.168,0.101c-0.057,0.012-0.114,0.025-0.17,0.038c-0.204,0.048-0.205-0.096-0.004-0.14
					C19.684,16.662,19.743,16.65,19.802,16.638z"/>
			</g>
			<path class="st9" d="M17.741,17.356c-0.018-0.041,0.044-0.103,0.14-0.145c0.055-0.026,0.116-0.051,0.179-0.076
				c0.09-0.034,0.183-0.033,0.192,0.008c0.001,0.003,0.001,0.006,0,0.006c0.003,0.04-0.056,0.097-0.146,0.132
				c-0.055,0.023-0.111,0.047-0.166,0.07C17.843,17.395,17.758,17.398,17.741,17.356z"/>
			<path class="st9" d="M25.149,16.634c0.011,0.011,0.013,0.019,0.016,0.027c0.009,0.028-0.029,0.04-0.103,0.027
				c-0.065-0.012-0.126-0.021-0.185-0.032c-0.094-0.016-0.208-0.06-0.246-0.101c-0.043-0.041,0.003-0.065,0.095-0.052
				c0.06,0.007,0.109,0.015,0.167,0.023C24.988,16.539,25.099,16.587,25.149,16.634z"/>
			<path class="st9" d="M23.408,16.445c0.009,0.029-0.056,0.048-0.141,0.046c-0.06-0.004-0.122-0.007-0.182-0.009
				c-0.088-0.002-0.189-0.03-0.202-0.063c-0.022-0.031,0.04-0.059,0.138-0.055c0.058,0.001,0.117,0.003,0.173,0.005
				c0.09,0.002,0.188,0.034,0.212,0.069C23.406,16.44,23.406,16.442,23.408,16.445z"/>
			<path class="st9" d="M16.789,18.102c0.085-0.031,0.147-0.016,0.147,0.024c0,0.007-0.001,0.015-0.007,0.022
				c-0.007,0.033-0.02,0.069-0.026,0.102c-0.013,0.055-0.107,0.137-0.202,0.174c-0.1,0.04-0.167,0.025-0.156-0.039
				c0.004-0.038,0.02-0.075,0.027-0.113C16.593,18.212,16.695,18.133,16.789,18.102z"/>
			<path class="st9" d="M16.683,18.628c0.102-0.05,0.192-0.049,0.194,0.005c0,0.027,0.002,0.062,0.01,0.089c0,0.001,0,0.003,0,0.004
				c0,0.051-0.071,0.13-0.175,0.186c-0.097,0.052-0.186,0.053-0.195,0.005c-0.009-0.032-0.008-0.068-0.009-0.1
				C16.514,18.753,16.578,18.678,16.683,18.628z"/>
			<path class="st9" d="M17.416,17.568c0,0.031-0.025,0.07-0.089,0.113c-0.041,0.028-0.084,0.059-0.119,0.089
				c-0.077,0.065-0.191,0.103-0.251,0.092c-0.065-0.012-0.053-0.076,0.025-0.141c0.053-0.041,0.113-0.086,0.176-0.126
				c0.084-0.058,0.189-0.083,0.242-0.062C17.413,17.541,17.414,17.554,17.416,17.568z"/>
		</g>
		<path class="st7" d="M25.95,25.211c-5.709-4.075-10.461-1.089-15.394-1.772c1.406-1.925,2.706-4.058,3.842-5.827
			c-0.334,0.123-0.669,0.247-1.007,0.369c-0.142,0.051-0.281,0.106-0.424,0.155c-1.775,2.701-3.842,5.637-5.957,7.637
			c-0.837-1.103-1.505-2.55-1.981-4.308c-0.185,0.558-0.371,1.12-0.555,1.681c1.088,4.258,3.281,5.759,5.662,7.264
			c0.641-0.135,1.279-0.311,1.916-0.513c0.089-0.029,0.177-0.057,0.266-0.088c-1.581-0.974-3.122-1.72-4.471-3.076
			c0.636-0.674,1.269-1.415,1.892-2.214c4.392,0.902,8.851-1.338,13.511,0.665C24.122,25.04,25.016,25.025,25.95,25.211z"/>
	</g>
	<g>
		<g>
			<path class="st2" d="M16.006,0C11.11,0,7.133,3.965,7.133,8.861c0,4.896,8.873,15.08,8.873,15.08s8.861-10.184,8.861-15.08
				C24.867,3.965,20.902,0,16.006,0z M16.006,12.473c-2.001,0-3.612-1.611-3.612-3.612c0-1.989,1.611-3.6,3.612-3.6
				c1.989,0,3.6,1.611,3.6,3.6C19.606,10.862,17.995,12.473,16.006,12.473z"/>
		</g>
		<g>
			<path class="st12" d="M21.582,8.86c0-3.07-2.505-5.575-5.575-5.575c-3.084,0-5.589,2.505-5.589,5.575
				c0,3.085,2.505,5.589,5.589,5.589C19.077,14.449,21.582,11.944,21.582,8.86z M12.519,8.861c0-1.92,1.555-3.475,3.487-3.475
				c1.92,0,3.475,1.555,3.475,3.475c0,1.932-1.555,3.487-3.475,3.487C14.074,12.348,12.519,10.793,12.519,8.861z"/>
		</g>
	</g>
</g>
</svg>
