<?xml version="1.0" encoding="utf-8"?>
<!-- Generator: Adobe Illustrator 21.1.0, SVG Export Plug-In . SVG Version: 6.00 Build 0)  -->
<svg version="1.1" id="Layer_1" xmlns="http://www.w3.org/2000/svg" xmlns:xlink="http://www.w3.org/1999/xlink" x="0px" y="0px"
	 viewBox="0 0 32 32" style="enable-background:new 0 0 32 32;" xml:space="preserve">
<style type="text/css">
	.st0{fill:#E9EFF4;}
	.st1{fill:#BBC7D1;}
	.st2{fill:#E24B4B;}
	.st3{fill:#D23F77;}
	.st4{fill:#D3D9DD;}
	.st5{fill:#E84D88;}
	.st6{fill:#DEE4E9;}
	.st7{fill:#3E4347;}
	.st8{fill:#65B1EF;}
	.st9{fill:#FFFFFF;}
	.st10{fill:#59A5E0;}
	.st11{opacity:0.15;fill:#FFFFFF;}
	.st12{fill:#D03F3F;}
	.st13{opacity:0.15;}
	.st14{fill:#E9B02C;}
	.st15{fill:#F4C534;}
	.st16{opacity:0.5;}
	.st17{fill:#FFD93B;}
	.st18{fill:#353A3D;}
	.st19{fill:#777B7E;}
	.st20{fill:#5A5F63;}
	.st21{fill:#4E99D2;}
	.st22{fill:#CBD6E0;}
	.st23{fill:#6B503B;}
	.st24{fill:#89664C;}
	.st25{fill:#8F6D52;}
	.st26{fill:#A5856D;}
	.st27{fill:#C2CACE;}
	.st28{fill:#BF3333;}
	.st29{fill:#DAE5EF;}
	.st30{fill:#373C3F;}
	.st31{fill:#8CC63E;}
	.st32{fill:#7FB239;}
	.st33{opacity:0.7;}
	.st34{fill:#32373A;}
	.st35{opacity:0.1;fill:#FFFFFF;}
	.st36{opacity:0.5;fill:#DAE5EF;}
	.st37{fill:#8D9BA3;}
	.st38{fill:#7A5B44;}
	.st39{opacity:0.2;fill:#FFFFFF;}
	.st40{fill:#45CBEA;}
	.st41{opacity:0.1;}
	.st42{fill:#7B8B92;}
	.st43{fill:#ACB9C1;}
	.st44{fill:#846144;}
	.st45{fill:#9A795F;}
	.st46{opacity:0.2;}
	.st47{fill:#719D34;}
	.st48{fill:#31373A;}
	.st49{fill:#FFDE55;}
	.st50{fill:#CF7519;}
	.st51{fill:none;stroke:#D03F3F;stroke-width:36;stroke-miterlimit:10;}
	.st52{fill:#F29A2E;}
	.st53{opacity:0.25;}
	.st54{fill:#E18823;}
	.st55{opacity:0.5;fill:#E18823;}
	.st56{opacity:0.2;fill:#5A5F63;}
	.st57{fill:#64892F;}
</style>
<g>
	<g>
		<g>
			<g>
				<g>
					<g>
						<path class="st47" d="M1.032,30.902c-1.409-1.442-1.363-3.762,0.063-5.188l2.911-2.911l1.486-1.761
							c1.625-1.926,3.054-4.007,4.294-6.201c1.681-2.974,4.263-6.255,7.439-9.294l9.222,9.222c-3.04,3.176-6.32,5.758-9.294,7.439
							c-2.194,1.24-4.275,2.669-6.201,4.294l-1.761,1.486l-2.944,2.944C4.805,32.373,2.462,32.365,1.032,30.902z"/>
						<path class="st32" d="M5.492,21.042l-1.486,1.761l-2.911,2.911c-0.163,0.163-0.308,0.338-0.435,0.523
							c4.109,4.463,8.288,0.036,15.009-4.121c5.085-3.146,10.778-7.346,10.778-7.346l-9.222-9.222
							c-3.176,3.04-5.758,6.32-7.439,9.294C8.546,17.035,7.116,19.116,5.492,21.042z"/>
					</g>
				</g>
				<g>
					<path class="st30" d="M20.409,20.181l-8.596-8.596c-0.091-0.091-0.102-0.234-0.026-0.337c0.901-1.219,1.898-2.426,2.981-3.611
						c0.099-0.109,0.27-0.112,0.374-0.008l9.222,9.222c0.104,0.104,0.101,0.275-0.008,0.374c-1.185,1.083-2.392,2.08-3.611,2.981
						C20.643,20.283,20.5,20.271,20.409,20.181z"/>
				</g>
				<g>
					<path class="st7" d="M16.826,4.465L16.826,4.465c0.423-0.423,1.109-0.423,1.532,0l9.17,9.17c0.423,0.423,0.423,1.109,0,1.532
						l0,0c-0.423,0.423-1.109,0.423-1.532,0l-9.17-9.17C16.403,5.574,16.403,4.888,16.826,4.465z"/>
				</g>
			</g>
			<g>
				<path class="st57" d="M7.319,23.028l3.705-3.705c0.455-0.455,1.192-0.455,1.647,0l0,0c0.455,0.455,0.455,1.192,0,1.647
					l-3.705,3.705c-0.455,0.455-1.192,0.455-1.647,0l0,0C6.864,24.22,6.864,23.483,7.319,23.028z"/>
			</g>
			<g>
				
					<ellipse transform="matrix(0.7071 -0.7071 0.7071 0.7071 -11.8574 13.8301)" class="st0" cx="10.766" cy="21.228" rx="1.872" ry="1.872"/>
			</g>
			<g>
				<circle class="st2" cx="10.766" cy="21.228" r="1.09"/>
			</g>
			<g>
				<path class="st12" d="M11.856,21.228c0,0.602-0.488,1.09-1.09,1.09c-0.424,0-0.792-0.242-0.971-0.595
					c0.149,0.077,0.317,0.12,0.496,0.12c0.602,0,1.09-0.488,1.09-1.09c0-0.179-0.043-0.347-0.12-0.496
					C11.614,20.437,11.856,20.804,11.856,21.228z"/>
			</g>
		</g>
		<path class="st7" d="M24.357,17.226c0.109-0.099,0.112-0.27,0.008-0.374l-9.222-9.222c-0.104-0.104-0.275-0.101-0.374,0.008
			c-1.066,1.166-2.048,2.354-2.938,3.553C20.037,19.818,24.357,17.226,24.357,17.226z"/>
	</g>
	<g>
		<g>
			<g>
				<path class="st17" d="M23.273,5.03c-0.096,0.441-0.532,0.721-0.973,0.625c-0.439-0.095-0.721-0.53-0.624-0.973l0.881-4.044
					c0.096-0.441,0.532-0.721,0.973-0.625c0.441,0.096,0.721,0.532,0.625,0.973L23.273,5.03z"/>
				<path class="st17" d="M29.001,4.15l-2.979,2.979c-0.319,0.319-0.837,0.319-1.156,0c-0.319-0.319-0.319-0.837,0-1.156
					l2.979-2.979c0.319-0.319,0.837-0.319,1.156,0C29.32,3.313,29.32,3.83,29.001,4.15z"/>
				<path class="st17" d="M31.356,9.437l-4.044,0.881c-0.442,0.096-0.878-0.185-0.973-0.624c-0.096-0.441,0.183-0.877,0.625-0.973
					l4.044-0.881c0.441-0.096,0.877,0.184,0.973,0.625C32.077,8.905,31.798,9.341,31.356,9.437z"/>
			</g>
		</g>
	</g>
</g>
</svg>
