<?xml version="1.0" encoding="utf-8"?>
<!-- Generator: Adobe Illustrator 21.1.0, SVG Export Plug-In . SVG Version: 6.00 Build 0)  -->
<svg version="1.1" id="Layer_1" xmlns="http://www.w3.org/2000/svg" xmlns:xlink="http://www.w3.org/1999/xlink" x="0px" y="0px"
	 viewBox="0 0 32 32" style="enable-background:new 0 0 32 32;" xml:space="preserve">
<style type="text/css">
	.st0{fill:#E9EFF4;}
	.st1{fill:#BBC7D1;}
	.st2{fill:#E24B4B;}
	.st3{fill:#D23F77;}
	.st4{fill:#D3D9DD;}
	.st5{fill:#E84D88;}
	.st6{fill:#DEE4E9;}
	.st7{fill:#3E4347;}
	.st8{fill:#65B1EF;}
	.st9{fill:#FFFFFF;}
	.st10{fill:#59A5E0;}
	.st11{opacity:0.15;fill:#FFFFFF;}
	.st12{fill:#D03F3F;}
	.st13{opacity:0.15;}
	.st14{fill:#E9B02C;}
	.st15{fill:#F4C534;}
	.st16{opacity:0.5;}
	.st17{fill:#FFD93B;}
	.st18{fill:#353A3D;}
	.st19{fill:#777B7E;}
	.st20{fill:#5A5F63;}
	.st21{fill:#4E99D2;}
	.st22{fill:#CBD6E0;}
	.st23{fill:#6B503B;}
	.st24{fill:#89664C;}
	.st25{fill:#8F6D52;}
	.st26{fill:#A5856D;}
	.st27{fill:#C2CACE;}
	.st28{fill:#BF3333;}
	.st29{fill:#DAE5EF;}
	.st30{fill:#373C3F;}
	.st31{fill:#8CC63E;}
	.st32{fill:#7FB239;}
	.st33{opacity:0.7;}
	.st34{fill:#32373A;}
	.st35{opacity:0.1;fill:#FFFFFF;}
	.st36{opacity:0.5;fill:#DAE5EF;}
	.st37{fill:#8D9BA3;}
	.st38{fill:#7A5B44;}
	.st39{opacity:0.2;fill:#FFFFFF;}
	.st40{fill:#45CBEA;}
	.st41{opacity:0.1;}
	.st42{fill:#7B8B92;}
	.st43{fill:#ACB9C1;}
	.st44{fill:#846144;}
	.st45{fill:#9A795F;}
	.st46{opacity:0.2;}
	.st47{fill:#719D34;}
	.st48{fill:#31373A;}
	.st49{fill:#FFDE55;}
	.st50{fill:#CF7519;}
	.st51{fill:none;stroke:#D03F3F;stroke-width:36;stroke-miterlimit:10;}
	.st52{fill:#F29A2E;}
	.st53{opacity:0.25;}
	.st54{fill:#E18823;}
	.st55{opacity:0.5;fill:#E18823;}
	.st56{opacity:0.2;fill:#5A5F63;}
	.st57{fill:#64892F;}
</style>
<g>
	<g>
		<g>
			<rect x="13.447" y="1.162" class="st30" width="2.08" height="1.888"/>
		</g>
		<g>
			<path class="st7" d="M15.836,1.356h-2.699c-0.199,0-0.337-0.203-0.259-0.387C13.172,0.267,13.782,0,14.487,0
				c0.705,0,1.314,0.267,1.609,0.969C16.173,1.153,16.036,1.356,15.836,1.356z"/>
		</g>
	</g>
	<g>
		<g>
			<path class="st7" d="M19.178,3.467v2.06c0,0.157-0.127,0.283-0.283,0.283h-8.816c-0.157,0-0.283-0.127-0.283-0.283V3.468
				c0-0.371,0.301-0.671,0.671-0.671h8.04C18.878,2.796,19.178,3.097,19.178,3.467z"/>
		</g>
		<g>
			<path class="st20" d="M11.113,3.65v1.089c0,0.124-0.1,0.224-0.224,0.224c-0.123,0-0.224-0.1-0.224-0.224V3.65
				c0-0.123,0.1-0.224,0.224-0.224C11.013,3.426,11.113,3.527,11.113,3.65z"/>
			<path class="st20" d="M12.312,3.65v1.089c0,0.124-0.1,0.224-0.224,0.224c-0.123,0-0.224-0.1-0.224-0.224V3.65
				c0-0.123,0.1-0.224,0.224-0.224C12.212,3.426,12.312,3.527,12.312,3.65z"/>
			<path class="st20" d="M13.511,3.65v1.089c0,0.124-0.1,0.224-0.224,0.224c-0.123,0-0.224-0.1-0.224-0.224V3.65
				c0-0.123,0.1-0.224,0.224-0.224C13.411,3.426,13.511,3.527,13.511,3.65z"/>
			<path class="st20" d="M14.711,3.65v1.089c0,0.124-0.1,0.224-0.224,0.224c-0.123,0-0.224-0.1-0.224-0.224V3.65
				c0-0.123,0.1-0.224,0.224-0.224C14.611,3.426,14.711,3.527,14.711,3.65z"/>
			<path class="st20" d="M15.91,3.65v1.089c0,0.124-0.1,0.224-0.224,0.224c-0.123,0-0.224-0.1-0.224-0.224V3.65
				c0-0.123,0.1-0.224,0.224-0.224C15.81,3.426,15.91,3.527,15.91,3.65z"/>
			<path class="st20" d="M17.109,3.65v1.089c0,0.124-0.1,0.224-0.224,0.224c-0.123,0-0.224-0.1-0.224-0.224V3.65
				c0-0.123,0.1-0.224,0.224-0.224C17.009,3.426,17.109,3.527,17.109,3.65z"/>
			<path class="st20" d="M18.308,3.65v1.089c0,0.124-0.1,0.224-0.224,0.224c-0.123,0-0.224-0.1-0.224-0.224V3.65
				c0-0.123,0.1-0.224,0.224-0.224C18.208,3.426,18.308,3.527,18.308,3.65z"/>
		</g>
	</g>
	<g>
		<path class="st2" d="M23.435,26.825C23.381,30.62,21.184,32,21.184,32h-10.55c0,0-1.616-1.652-1.162-5.702
			c0.454-4.049,2.342-4.594,1.689-8.225c-0.654-3.632-2.016-2.705-2.415-5.974c-0.399-3.268-0.2-4.648,1.126-6.01h9.206
			c0,0,2.27,0.744,1.997,3.268c-0.272,2.524-0.763,4.176,0.454,7.318S23.49,23.03,23.435,26.825z"/>
	</g>
	<path class="st7" d="M21.075,9.357c0.041-0.381,0.024-0.721-0.034-1.024c-0.262-0.152-0.635-0.324-1.122-0.441
		c-1.065-0.254-2.578,0.048-3.087,1.804c-0.508,1.755-0.496,4.854,0.793,8.34c1.289,3.486,2.996,7.941,2.754,9.418
		c-0.242,1.477-0.536,1.821,0.678,2.615c0.516,0.337,1.052,0.388,1.498,0.335c0.457-0.818,0.857-1.986,0.88-3.579
		c0.054-3.795-0.69-7.009-1.907-10.15S20.802,11.881,21.075,9.357z"/>
	<path class="st7" d="M13.89,20.191c0.363-3.05-1.876-6.597-3.535-6.791c-0.613-0.072-1.018,0.027-1.285,0.18
		c0.572,1.599,1.562,1.559,2.09,4.492c0.598,3.321-0.93,4.061-1.543,7.261C12.149,26.546,13.537,23.162,13.89,20.191z"/>
	<g>
		<path class="st20" d="M19.514,5.753c0,0.186-0.151,0.336-0.336,0.336H9.795c-0.185,0-0.336-0.15-0.336-0.336
			c0-0.186,0.15-0.336,0.336-0.336h9.382C19.363,5.416,19.514,5.566,19.514,5.753z"/>
	</g>
</g>
</svg>
