<?xml version="1.0" encoding="utf-8"?>
<!-- Generator: Adobe Illustrator 21.1.0, SVG Export Plug-In . SVG Version: 6.00 Build 0)  -->
<svg version="1.1" id="Layer_1" xmlns="http://www.w3.org/2000/svg" xmlns:xlink="http://www.w3.org/1999/xlink" x="0px" y="0px"
	 viewBox="0 0 32 32" style="enable-background:new 0 0 32 32;" xml:space="preserve">
<style type="text/css">
	.st0{fill:#45CBEA;}
	.st1{fill:#FFD93B;}
	.st2{fill:#F4C534;}
	.st3{fill:#3E4347;}
	.st4{opacity:0.2;}
	.st5{fill:#DE9C25;}
	.st6{fill:#FFFFFF;}
	.st7{fill:#E24B4B;}
	.st8{fill:#8CC63E;}
	.st9{fill:#D03F3F;}
	.st10{fill:#846144;}
	.st11{fill:#5A5F63;}
	.st12{fill:#777B7E;}
	.st13{fill:#FFDC97;}
	.st14{fill:#FFE9AB;}
	.st15{fill:#93979A;}
	.st16{fill:#FFD68D;}
	.st17{fill:#728389;}
	.st18{fill:#DAE5EF;}
	.st19{fill:#65B1EF;}
	.st20{fill:#F2F7F9;}
	.st21{fill:#8D9BA3;}
	.st22{opacity:0.2;fill:#F2F7F9;}
	.st23{fill:#E9EFF4;}
	.st24{fill:#FC97B2;}
	.st25{fill:#E84D88;}
	.st26{fill:#A5856D;}
	.st27{fill:#E9B02C;}
	.st28{fill:#7FB239;}
	.st29{fill:#CBD6E0;}
	.st30{fill:#ACB9C1;}
	.st31{fill:#8F6D52;}
	.st32{opacity:0.2;fill:#FFFFFF;}
	.st33{fill:#9A795F;}
	.st34{fill:#BBC7D1;}
	.st35{fill:#E18823;}
	.st36{fill:#F29A2E;}
	.st37{fill:#89664C;}
	.st38{fill:#D3D9DD;}
	.st39{fill:#DEE4E9;}
	.st40{fill:#AD2727;}
	.st41{fill:#719D34;}
	.st42{fill:#353A3D;}
	.st43{opacity:0.25;}
	.st44{opacity:0.2;fill:#3E4347;}
	.st45{fill:#373C3F;}
	.st46{opacity:0.1;}
	.st47{opacity:0.06;}
	.st48{fill:#7A5B44;}
	.st49{fill:#6B503B;}
	.st50{fill:#31373A;}
	.st51{fill:#59A5E0;}
	.st52{fill:#363B3F;}
	.st53{fill:#BF3333;}
	.st54{opacity:0.3;}
	.st55{fill:#4E99D2;}
	.st56{opacity:0.15;}
	.st57{opacity:0.1;fill:#3E4347;}
	.st58{fill:#64892F;}
	.st59{opacity:0.08;fill:#FFFFFF;}
	.st60{opacity:0.1;fill:#FFFFFF;}
</style>
<g>
	<polygon class="st1" points="17.806,32 14.225,32 6.831,12.892 25.2,12.892 	"/>
	<path class="st2" d="M24.64,13.479l0.164-0.587h-0.806l-0.094,0.329l-0.916-0.329H20.67l0.673,0.243l-0.454,1.589l-1.613-0.579
		l0.36-1.253h-0.814l-0.282,0.994l-1.605-0.579l0.117-0.415h-0.822l-0.039,0.149l-0.415-0.149h-2.318l0.172,0.063l-0.454,1.597
		l-1.605-0.579l0.305-1.081h-0.814l-0.227,0.814l-1.613-0.572l0.07-0.243H6.827l0.094,0.251l1.347,0.478l-0.454,1.597l-0.102-0.039
		l0.532,1.378l0.094-0.321l1.613,0.572l-0.454,1.597l-0.619-0.227l0.368,0.971l0.031,0.008L9.27,19.195l0.47,1.214l0.282-0.987
		l1.605,0.579l-0.454,1.589l-1.135-0.407l0.376,0.963l0.548,0.196l-0.204,0.705l0.814,2.106l1.065,0.376l-0.384,1.37l0.485,1.253
		l1.582,0.564l-0.454,1.597l-0.337-0.125l0.681,1.77l0.18-0.626l1.605,0.579l-0.023,0.086h1.832l0.094-0.235l-0.947-0.345
		l0.454-1.589l1.088,0.391l0.282-0.736l-1.159-0.415l0.454-1.589l1.308,0.462l0.282-0.728l-1.37-0.493l0.454-1.589l1.511,0.548
		l0.282-0.736l-1.582-0.564l0.454-1.597l1.605,0.579l-0.376,1.323l3.061-7.916l0.055-0.188l0.016,0.008l0.282-0.728l-0.078-0.031
		l0.454-1.589l0.219,0.078l0.29-0.728L24.64,13.479z M19.065,14.904l1.605,0.572l-0.446,1.597l-1.613-0.579L19.065,14.904z
		 M16.716,14.059l1.613,0.579l-0.454,1.589l-1.613-0.572L16.716,14.059z M17.656,16.987l-0.454,1.589l-1.605-0.572l0.454-1.597
		L17.656,16.987z M14.046,23.447l1.605,0.579l-0.446,1.589l-1.613-0.572L14.046,23.447z M13.522,22.429l-1.605-0.572l0.454-1.597
		l1.605,0.579L13.522,22.429z M14.258,22.695l0.454-1.589l1.613,0.572l-0.454,1.597L14.258,22.695z M14.931,20.346l0.454-1.589
		l1.605,0.572l-0.454,1.597L14.931,20.346z M14.367,13.221L15.98,13.8l-0.454,1.589l-1.605-0.579L14.367,13.221z M13.702,15.57
		l1.613,0.572l-0.454,1.597l-1.613-0.579L13.702,15.57z M14.642,18.49l-0.454,1.589l-1.605-0.572l0.454-1.589L14.642,18.49z
		 M11.353,14.724l1.613,0.579l-0.454,1.589l-1.605-0.572L11.353,14.724z M8.558,15.476l0.454-1.589l1.605,0.579l-0.454,1.589
		L8.558,15.476z M10.233,18.671l0.454-1.597l1.613,0.579l-0.454,1.589L10.233,18.671z M11.243,24.198l0.454-1.589l1.613,0.579
		l-0.454,1.589L11.243,24.198z M12.927,27.393l0.454-1.597l1.605,0.579l-0.454,1.589L12.927,27.393z M16.215,31.151l-1.613-0.572
		l0.454-1.597l1.613,0.579L16.215,31.151z M16.881,28.802l-1.605-0.572l0.446-1.589l1.613,0.572L16.881,28.802z M17.546,26.461
		l-1.605-0.579l0.454-1.589L18,24.864L17.546,26.461z M18.22,24.112l-1.613-0.579l0.454-1.589l1.605,0.579L18.22,24.112z
		 M18.885,21.763l-1.605-0.572l0.446-1.597l1.613,0.579L18.885,21.763z M17.946,18.843l0.454-1.589l1.605,0.572l-0.454,1.589
		L17.946,18.843z M21.234,22.609l-1.613-0.579l0.454-1.589l1.613,0.572L21.234,22.609z M21.9,20.26l-1.605-0.579l0.446-1.589
		l1.613,0.572L21.9,20.26z M22.565,17.911l-1.605-0.579l0.454-1.589l1.605,0.579L22.565,17.911z M23.239,15.562l-1.613-0.572
		l0.454-1.597l1.605,0.579L23.239,15.562z"/>
	<path class="st24" d="M25.681,15.139c0,1.472-1.19,2.662-2.662,2.662c-1.253,0-2.302-0.861-2.584-2.028
		c-0.47,0.454-1.112,0.728-1.824,0.728c-0.979,0-1.84-0.532-2.294-1.323c-0.102,1.378-1.253,2.466-2.654,2.466
		c-1.292,0-2.372-0.916-2.607-2.138c-0.485,0.611-1.237,0.994-2.075,0.994c-1.472,0-2.662-1.19-2.662-2.662
		c0-0.581,0.415-2.482,0.917-4.571C8.2,5.256,11.779,2.42,15.906,2.42h0c4.19,0,7.816,2.919,8.709,7.014
		C25.182,12.032,25.681,14.505,25.681,15.139z"/>
	<path class="st10" d="M25.681,12.719c0,1.472-1.19,2.662-2.662,2.662c-1.253,0-2.302-0.861-2.584-2.028
		c-0.47,0.454-1.112,0.728-1.824,0.728c-0.979,0-1.84-0.532-2.294-1.323c-0.102,1.378-1.253,2.466-2.654,2.466
		c-1.292,0-2.372-0.916-2.607-2.138c-0.485,0.611-1.237,0.994-2.075,0.994c-1.472,0-2.662-1.19-2.662-2.662
		c0-0.581,0.415-2.482,0.917-4.571C8.2,2.836,11.779,0,15.906,0h0c4.19,0,7.816,2.919,8.709,7.014
		C25.182,9.612,25.681,12.085,25.681,12.719z"/>
	<ellipse class="st19" cx="11.085" cy="4.248" rx="0.85" ry="0.853"/>
	<path class="st25" d="M20.306,4.248c0,0.532-0.423,0.971-0.963,0.971c-0.532,0-0.971-0.439-0.971-0.971
		c0-0.54,0.438-0.971,0.971-0.971C19.884,3.277,20.306,3.708,20.306,4.248z"/>
	<path class="st8" d="M12.05,9.774c0,0.532-0.423,0.971-0.963,0.971c-0.532,0-0.971-0.439-0.971-0.971
		c0-0.54,0.438-0.971,0.971-0.971C11.627,8.804,12.05,9.234,12.05,9.774z"/>
	<path class="st15" d="M21.927,9.14c0,0.532-0.423,0.971-0.963,0.971c-0.532,0-0.971-0.439-0.971-0.971
		c0-0.54,0.438-0.971,0.971-0.971C21.504,8.169,21.927,8.6,21.927,9.14z"/>
	<ellipse class="st7" cx="15.52" cy="9.169" rx="0.603" ry="0.605"/>
</g>
</svg>
