<?xml version="1.0" encoding="utf-8"?>
<!-- Generator: Adobe Illustrator 21.1.0, SVG Export Plug-In . SVG Version: 6.00 Build 0)  -->
<svg version="1.1" id="Layer_1" xmlns="http://www.w3.org/2000/svg" xmlns:xlink="http://www.w3.org/1999/xlink" x="0px" y="0px"
	 viewBox="0 0 32 32" style="enable-background:new 0 0 32 32;" xml:space="preserve">
<style type="text/css">
	.st0{fill:#E9EFF4;}
	.st1{fill:#BBC7D1;}
	.st2{fill:#E24B4B;}
	.st3{fill:#D23F77;}
	.st4{fill:#D3D9DD;}
	.st5{fill:#E84D88;}
	.st6{fill:#DEE4E9;}
	.st7{fill:#3E4347;}
	.st8{fill:#65B1EF;}
	.st9{fill:#FFFFFF;}
	.st10{fill:#59A5E0;}
	.st11{opacity:0.15;fill:#FFFFFF;}
	.st12{fill:#D03F3F;}
	.st13{opacity:0.15;}
	.st14{fill:#E9B02C;}
	.st15{fill:#F4C534;}
	.st16{opacity:0.5;}
	.st17{fill:#FFD93B;}
	.st18{fill:#353A3D;}
	.st19{fill:#777B7E;}
	.st20{fill:#5A5F63;}
	.st21{fill:#4E99D2;}
	.st22{fill:#CBD6E0;}
	.st23{fill:#6B503B;}
	.st24{fill:#89664C;}
	.st25{fill:#8F6D52;}
	.st26{fill:#A5856D;}
	.st27{fill:#C2CACE;}
	.st28{fill:#BF3333;}
	.st29{fill:#DAE5EF;}
	.st30{fill:#373C3F;}
	.st31{fill:#8CC63E;}
	.st32{fill:#7FB239;}
	.st33{opacity:0.7;}
	.st34{fill:#32373A;}
	.st35{opacity:0.1;fill:#FFFFFF;}
	.st36{opacity:0.5;fill:#DAE5EF;}
	.st37{fill:#8D9BA3;}
	.st38{fill:#7A5B44;}
	.st39{opacity:0.2;fill:#FFFFFF;}
	.st40{fill:#45CBEA;}
	.st41{opacity:0.1;}
	.st42{fill:#7B8B92;}
	.st43{fill:#ACB9C1;}
	.st44{fill:#846144;}
	.st45{fill:#9A795F;}
	.st46{opacity:0.2;}
	.st47{fill:#719D34;}
	.st48{fill:#31373A;}
	.st49{fill:#FFDE55;}
	.st50{fill:#CF7519;}
	.st51{fill:none;stroke:#D03F3F;stroke-width:36;stroke-miterlimit:10;}
	.st52{fill:#F29A2E;}
	.st53{opacity:0.25;}
	.st54{fill:#E18823;}
	.st55{opacity:0.5;fill:#E18823;}
	.st56{opacity:0.2;fill:#5A5F63;}
	.st57{fill:#64892F;}
</style>
<g>
	<g>
		<g>
			<path class="st15" d="M25.709,16.669l-0.551,1.75c0,0,0.067,1.279-0.543,1.868c-0.61,0.589-1.367,0.442-1.893,0
				c0,0,0.278,1.199-0.413,1.611c-0.691,0.412-1.43,0.304-1.745,0.001c0,0,0.314,1.199-0.425,1.635
				c-0.74,0.436-1.418,0.243-1.939-0.363c0,0,0.066,0.76-0.582,1.156c-0.697,0.426-1.217-0.096-1.653-0.387
				c-0.321-0.214-6.326-4.383-6.326-4.383s-2.231-1.503-4.389-1.625L6.681,9.98l2.983,0.679c0,0,2.085-0.752,3.383-1.867
				s2.558-0.97,3.734-0.485S25.709,16.669,25.709,16.669z"/>
		</g>
		<g>
			<path class="st17" d="M12.367,12.223c0,0,0.873,0.934,2.17,0.267s1.334-1.358,1.334-1.358l1.309-0.061
				c0,0,1.479,0.764,2.74,1.734s4.231,2.983,5.238,5.613c0,0,0.436,0.036,1.285-0.4c0.849-0.436,5.395-0.958,5.395-0.958
				l-2.498-8.22l-5.892,1.6c0,0-0.812,0.17-1.055-0.012S18.89,8.125,18.89,8.125s-0.873-0.582-1.819-0.206
				c-0.946,0.376-2.946,0.655-3.237,1.055c-0.291,0.4-0.509,0.74-0.606,1.697L12.367,12.223z"/>
		</g>
		<g>
			<g>
				<g>
					<path class="st14" d="M17.154,21.53l1.046,1.642l0,0c-0.01-0.012-1.004-1.213-1.148-1.412
						c-0.047-0.064-0.095-0.146-0.054-0.205c0.039-0.056,0.121-0.036,0.137-0.031L17.154,21.53z"/>
					<g>
						<path class="st14" d="M19.293,19.867c0.043,0.12,0.766,1.293,1.271,2.032l0,0c-0.055-0.067-1.403-1.61-1.49-1.939
							c-0.031-0.116-0.055-0.253,0.031-0.28C19.191,19.653,19.264,19.785,19.293,19.867z"/>
					</g>
					<g>
						<path class="st14" d="M22.723,20.288c0,0-1.925-2.629-1.715-2.939c0.036-0.052,0.124-0.053,0.154,0.075
							C21.162,17.424,22.28,18.952,22.723,20.288z"/>
					</g>
				</g>
			</g>
		</g>
		<g>
			<path class="st17" d="M15.205,23.417c0,0-0.031,0.478-0.822,0.496s-1.528-0.355-1.7-1.282c0,0-0.655,0.536-1.409,0
				s-0.646-1.437-0.646-1.437s-0.436,0.518-1.309,0c-0.873-0.518-0.782-1.728-0.782-1.728s-0.673,0.773-1.437,0.5
				c-0.764-0.273-0.622-1.348-0.57-1.82c0,0,1.76,0.534,2.279,0.922c0,0,0.346-0.594,0.956-0.776s1.764,0.336,1.555,1.509
				c0,0,0.333-0.782,1.049-1.082c0.715-0.3,1.516,0.7,1.397,1.309c-0.118,0.609-0.164,0.737-0.164,0.737s1.282-0.62,1.655,0.804
				c0,0,0.082,0.942-0.246,1.333C15.01,22.904,15.208,23.185,15.205,23.417z"/>
		</g>
		<path class="st14" d="M10.753,21.981c-0.29-0.866,1.133-2.946,1.141-2.957c-0.39,0.345-0.576,0.78-0.576,0.78
			c0.028-0.156,0.031-0.299,0.015-0.432c-0.101,0.771-0.446,1.424-0.963,1.993c0.171-0.068,0.257-0.17,0.257-0.17
			S10.582,21.571,10.753,21.981z"/>
		<path class="st14" d="M8.667,18.978c-0.418,0.897-1.417,1.029-1.422,1.029c0.702,0.137,1.291-0.54,1.291-0.54
			s-0.03,0.407,0.115,0.85c-0.103-0.987,0.347-1.513,0.511-1.669c-0.23,0.21-0.354,0.422-0.354,0.422L8.667,18.978L8.667,18.978z"/>
		<path class="st14" d="M14.029,20.646c-0.247,0.034-0.429,0.121-0.429,0.121s0.016-0.044,0.052-0.202c0,0-0.31,0.568-0.492,0.835
			c-0.182,0.267-0.436,0.891-0.479,1.231c0.044,0.239,0.127,0.44,0.237,0.608c-0.055-0.093-0.202-0.436,0.072-1.118
			C13.319,21.31,13.552,20.837,14.029,20.646z"/>
		<g>
			<path class="st9" d="M14.67,21.648c-0.074,0.206-0.297,0.478-0.37,0.563c-0.015,0.017-0.035,0.029-0.057,0.034
				c-0.704,0.139-0.766-0.334-0.771-0.445c-0.001-0.014,0.001-0.028,0.007-0.041l0.299-0.78c0.019-0.05,0.074-0.078,0.125-0.062
				c0.482,0.147,0.703,0.529,0.763,0.653C14.677,21.593,14.679,21.622,14.67,21.648z"/>
		</g>
		<g>
			<path class="st9" d="M12.858,20.625c-0.521,0.431-0.933,0.036-0.933,0.036s-0.293-0.236-0.291-0.497
				c0.002-0.247,0.241-0.679,0.367-0.89c0.049-0.083,0.145-0.128,0.239-0.109c0.509,0.102,0.94,0.707,0.94,0.707
				S13.38,20.195,12.858,20.625z"/>
		</g>
		<g>
			<path class="st9" d="M10.712,20c-0.071,0.111-0.212,0.291-0.437,0.394c-0.341,0.158-0.746-0.152-0.746-0.152
				c-0.499-0.394-0.246-0.95-0.119-1.165c0.033-0.057,0.101-0.083,0.164-0.063c0.454,0.14,0.942,0.623,1.121,0.813
				C10.741,19.874,10.747,19.945,10.712,20z"/>
		</g>
		<g>
			<path class="st9" d="M13.204,10.714c0,0,1.133-0.567,0.978,0.188c-0.155,0.755-0.803,1.288-1.816,1.322L13.204,10.714z"/>
		</g>
		<g>
			<path class="st14" d="M14.537,12.49c1.297-0.667,1.334-1.358,1.334-1.358l1.309-0.061c0,0,0.694,0.358,1.536,0.895l0,0
				c0,0-1.123-0.956-1.133-1.256s-0.273-0.837-0.273-0.837s0.2,0.618,0,0.864s-1.294,0.2-1.294,0.2c0.179-0.573,0-1.103,0-1.103
				c-1.103,3.819-3.649,2.388-3.649,2.388S13.24,13.157,14.537,12.49z"/>
		</g>
	</g>
	<g>
		<g>
			<g>
				<g>
					<path class="st0" d="M29.064,17.799l-2.535,0.77c-0.191,0.058-0.392-0.05-0.45-0.24l-2.458-8.091
						c-0.058-0.191,0.049-0.392,0.24-0.45l2.535-0.77L29.064,17.799z"/>
				</g>
			</g>
			<g>
				<g>
					<path class="st7" d="M31.416,18.268l-3.359,1.021c-0.435,0.132-0.894-0.113-1.027-0.548l-2.779-9.146
						c-0.132-0.435,0.113-0.894,0.548-1.027l3.359-1.021c0.435-0.132,0.894,0.113,1.027,0.548l2.779,9.146
						C32.097,17.676,31.851,18.136,31.416,18.268z"/>
				</g>
			</g>
			<g>
				<circle class="st20" cx="28.523" cy="16.92" r="0.929"/>
			</g>
		</g>
		<g>
			<g>
				<g>
					<path class="st0" d="M2.936,17.799l2.535,0.77c0.191,0.058,0.392-0.05,0.45-0.24l2.458-8.091
						c0.058-0.191-0.049-0.392-0.24-0.45l-2.535-0.77L2.936,17.799z"/>
				</g>
			</g>
			<g>
				<g>
					<path class="st7" d="M0.584,18.268l3.359,1.021c0.435,0.132,0.894-0.113,1.027-0.548l2.779-9.146
						C7.881,9.159,7.636,8.7,7.201,8.567L3.842,7.547C3.407,7.414,2.947,7.66,2.815,8.095l-2.779,9.146
						C-0.097,17.676,0.149,18.136,0.584,18.268z"/>
				</g>
			</g>
			<g>
				<circle class="st20" cx="3.477" cy="16.92" r="0.929"/>
			</g>
		</g>
	</g>
</g>
</svg>
