<?xml version="1.0" encoding="utf-8"?>
<!-- Generator: Adobe Illustrator 21.1.0, SVG Export Plug-In . SVG Version: 6.00 Build 0)  -->
<svg version="1.1" id="Layer_1" xmlns="http://www.w3.org/2000/svg" xmlns:xlink="http://www.w3.org/1999/xlink" x="0px" y="0px"
	 viewBox="0 0 32 32" style="enable-background:new 0 0 32 32;" xml:space="preserve">
<style type="text/css">
	.st0{fill:#E9EFF4;}
	.st1{fill:#BBC7D1;}
	.st2{fill:#E24B4B;}
	.st3{fill:#D23F77;}
	.st4{fill:#D3D9DD;}
	.st5{fill:#E84D88;}
	.st6{fill:#DEE4E9;}
	.st7{fill:#3E4347;}
	.st8{fill:#65B1EF;}
	.st9{fill:#FFFFFF;}
	.st10{fill:#59A5E0;}
	.st11{opacity:0.15;fill:#FFFFFF;}
	.st12{fill:#D03F3F;}
	.st13{opacity:0.15;}
	.st14{fill:#E9B02C;}
	.st15{fill:#F4C534;}
	.st16{opacity:0.5;}
	.st17{fill:#FFD93B;}
	.st18{fill:#353A3D;}
	.st19{fill:#777B7E;}
	.st20{fill:#5A5F63;}
	.st21{fill:#4E99D2;}
	.st22{fill:#CBD6E0;}
	.st23{fill:#6B503B;}
	.st24{fill:#89664C;}
	.st25{fill:#8F6D52;}
	.st26{fill:#A5856D;}
	.st27{fill:#C2CACE;}
	.st28{fill:#BF3333;}
	.st29{fill:#DAE5EF;}
	.st30{fill:#373C3F;}
	.st31{fill:#8CC63E;}
	.st32{fill:#7FB239;}
	.st33{opacity:0.7;}
	.st34{fill:#32373A;}
	.st35{opacity:0.1;fill:#FFFFFF;}
	.st36{opacity:0.5;fill:#DAE5EF;}
	.st37{fill:#8D9BA3;}
	.st38{fill:#7A5B44;}
	.st39{opacity:0.2;fill:#FFFFFF;}
	.st40{fill:#45CBEA;}
	.st41{opacity:0.1;}
	.st42{fill:#7B8B92;}
	.st43{fill:#ACB9C1;}
	.st44{fill:#846144;}
	.st45{fill:#9A795F;}
	.st46{opacity:0.2;}
	.st47{fill:#719D34;}
	.st48{fill:#31373A;}
	.st49{fill:#FFDE55;}
	.st50{fill:#CF7519;}
	.st51{fill:none;stroke:#D03F3F;stroke-width:36;stroke-miterlimit:10;}
	.st52{fill:#F29A2E;}
	.st53{opacity:0.25;}
	.st54{fill:#E18823;}
	.st55{opacity:0.5;fill:#E18823;}
	.st56{opacity:0.2;fill:#5A5F63;}
	.st57{fill:#64892F;}
</style>
<g>
	<g>
		<path class="st10" d="M16.009,0.003c-0.006,0-0.013,0-0.018,0C8.731-0.015,4.896,4.379,5.143,9.3
			C4.969,14.076,16.757,26.952,19.605,32c1.273-1.501,2.605-3.002,3.892-4.504c-1.159-1.78-2.547-3.541-3.966-5.266
			c2.197-2.851,7.184-9.789,7.326-12.93C27.103,4.38,23.269-0.015,16.009,0.003z M23.153,9.882
			c-0.242,1.942-5.491,6.701-7.144,8.263c0,0,0,0,0,0.018c-0.006,0-0.012,0-0.019,0c-0.001-0.018-0.001-0.018,0-0.018
			c-1.656-1.562-6.901-6.32-7.144-8.263c-0.316-3.051,2.66-6.121,7.144-6.138c0.006,0,0.012,0,0.017,0
			C20.494,3.761,23.469,6.831,23.153,9.882z"/>
	</g>
	<g>
		<path class="st8" d="M26.84,9.3c-0.041,1.072-0.577,2.397-1.381,3.868c-3.787,7.318-13.569,18.396-13.066,18.813
			c-1.279-1.495-2.617-2.99-3.91-4.485c2.117-3.195,4.868-6.321,7.507-9.334c-0.002-0.018-0.001-0.018,0.019-0.018
			c0.15-0.145,0.296-0.29,0.463-0.418c1.551-1.489,6.443-5.957,6.664-7.845c0.316-3.051-2.674-6.138-7.144-6.138
			c0-1.247-0.001-2.494,0-3.741C23.235-0.015,27.103,4.379,26.84,9.3z"/>
	</g>
	<path class="st21" d="M8.854,9.871c-0.306-3.044,2.659-6.114,7.134-6.133c0.007-0.001,0.014-0.001,0.023,0
		c4.474,0.019,7.442,3.087,7.134,6.133c0.006,0,0.013,0.001,0.017,0.001c2.122-6.174-1.158-10.002-7.158-9.868
		c-5.881-0.138-9.321,3.602-7.159,9.868C8.851,9.871,8.851,9.872,8.854,9.871z"/>
</g>
</svg>
