<?xml version="1.0" encoding="utf-8"?>
<!-- Generator: Adobe Illustrator 21.1.0, SVG Export Plug-In . SVG Version: 6.00 Build 0)  -->
<svg version="1.1" id="Layer_1" xmlns="http://www.w3.org/2000/svg" xmlns:xlink="http://www.w3.org/1999/xlink" x="0px" y="0px"
	 viewBox="0 0 32 32" style="enable-background:new 0 0 32 32;" xml:space="preserve">
<style type="text/css">
	.st0{fill:#E9EFF4;}
	.st1{fill:#BBC7D1;}
	.st2{fill:#E24B4B;}
	.st3{fill:#D23F77;}
	.st4{fill:#D3D9DD;}
	.st5{fill:#E84D88;}
	.st6{fill:#DEE4E9;}
	.st7{fill:#3E4347;}
	.st8{fill:#65B1EF;}
	.st9{fill:#FFFFFF;}
	.st10{fill:#59A5E0;}
	.st11{opacity:0.15;fill:#FFFFFF;}
	.st12{fill:#D03F3F;}
	.st13{opacity:0.15;}
	.st14{fill:#E9B02C;}
	.st15{fill:#F4C534;}
	.st16{opacity:0.5;}
	.st17{fill:#FFD93B;}
	.st18{fill:#353A3D;}
	.st19{fill:#777B7E;}
	.st20{fill:#5A5F63;}
	.st21{fill:#4E99D2;}
	.st22{fill:#CBD6E0;}
	.st23{fill:#6B503B;}
	.st24{fill:#89664C;}
	.st25{fill:#8F6D52;}
	.st26{fill:#A5856D;}
	.st27{fill:#C2CACE;}
	.st28{fill:#BF3333;}
	.st29{fill:#DAE5EF;}
	.st30{fill:#373C3F;}
	.st31{fill:#8CC63E;}
	.st32{fill:#7FB239;}
	.st33{opacity:0.7;}
	.st34{fill:#32373A;}
	.st35{opacity:0.1;fill:#FFFFFF;}
	.st36{opacity:0.5;fill:#DAE5EF;}
	.st37{fill:#8D9BA3;}
	.st38{fill:#7A5B44;}
	.st39{opacity:0.2;fill:#FFFFFF;}
	.st40{fill:#45CBEA;}
	.st41{opacity:0.1;}
	.st42{fill:#7B8B92;}
	.st43{fill:#ACB9C1;}
	.st44{fill:#846144;}
	.st45{fill:#9A795F;}
	.st46{opacity:0.2;}
	.st47{fill:#719D34;}
	.st48{fill:#31373A;}
	.st49{fill:#FFDE55;}
	.st50{fill:#CF7519;}
	.st51{fill:none;stroke:#D03F3F;stroke-width:36;stroke-miterlimit:10;}
	.st52{fill:#F29A2E;}
	.st53{opacity:0.25;}
	.st54{fill:#E18823;}
	.st55{opacity:0.5;fill:#E18823;}
	.st56{opacity:0.2;fill:#5A5F63;}
	.st57{fill:#64892F;}
</style>
<g>
	<g>
		<path class="st3" d="M17.493,11.318c-1.031-0.345-0.4-10.526-1.431-10.535c-1.069-0.01-0.619,10.191-1.617,10.506
			c-0.027,0.009-0.07-0.013-0.104-0.018v9.414c0.004,0.001,0.012-0.004,0.016-0.002c1.031,0.345,0.4,10.526,1.431,10.535
			c1.069,0.01,0.619-10.191,1.617-10.506c0.07-0.022,0.165,0.007,0.275,0.065v-9.485C17.611,11.313,17.542,11.334,17.493,11.318z"/>
	</g>
	<g>
		<path class="st3" d="M12.777,12.311c-0.814,0.72-9.315-4.917-9.839-4.028c-0.543,0.921,8.516,5.631,8.29,6.653
			c-0.006,0.028-0.047,0.054-0.067,0.081l8.153,4.707c0.003-0.003,0.003-0.012,0.006-0.015c0.814-0.72,9.315,4.917,9.839,4.028
			c0.543-0.921-8.516-5.631-8.29-6.653c0.016-0.071,0.089-0.14,0.193-0.206l-8.214-4.743C12.832,12.206,12.816,12.276,12.777,12.311
			z"/>
	</g>
	<g>
		<path class="st3" d="M11.279,16.891c0.216,1.065-8.916,5.609-8.408,6.507c0.526,0.93,9.135-4.559,9.907-3.853
			c0.021,0.019,0.023,0.067,0.037,0.099l8.153-4.707c-0.001-0.004-0.009-0.008-0.01-0.012c-0.217-1.065,8.916-5.609,8.408-6.507
			c-0.526-0.93-9.135,4.559-9.907,3.853c-0.054-0.049-0.077-0.146-0.081-0.27l-8.214,4.743
			C11.216,16.792,11.269,16.84,11.279,16.891z"/>
	</g>
	<g>
		<g>
			<g>
				<path class="st5" d="M30.822,15.999c0,2.724,3.21,4.891-0.968,4.945c-2.772,0.036-11.166-2.134-11.166-4.945
					s8.395-4.98,11.166-4.944C34.032,11.109,30.822,13.275,30.822,15.999z"/>
			</g>
		</g>
		<g>
			<g>
				<path class="st5" d="M23.41,3.163c2.359,1.362,5.84-0.334,3.798,3.311c-1.355,2.418-7.431,8.603-9.866,7.198
					s-0.116-9.76,1.301-12.142C20.78-2.062,21.051,1.801,23.41,3.163z"/>
			</g>
		</g>
		<g>
			<g>
				<path class="st5" d="M8.588,3.164c2.359-1.362,2.631-5.225,4.766-1.634c1.417,2.382,3.735,10.737,1.301,12.143
					s-8.51-4.78-9.865-7.198C2.748,2.829,6.229,4.526,8.588,3.164z"/>
			</g>
		</g>
		<g>
			<g>
				<path class="st5" d="M1.178,16.001c0-2.724-3.21-4.891,0.968-4.945c2.772-0.036,11.166,2.134,11.166,4.945
					s-8.395,4.98-11.166,4.944C-2.032,20.891,1.178,18.725,1.178,16.001z"/>
			</g>
		</g>
		<g>
			<g>
				<path class="st5" d="M8.59,28.837c-2.359-1.362-5.84,0.334-3.798-3.311c1.355-2.418,7.431-8.603,9.866-7.198
					c2.434,1.405,0.116,9.76-1.301,12.142C11.22,34.062,10.949,30.199,8.59,28.837z"/>
			</g>
		</g>
		<g>
			<g>
				<path class="st5" d="M23.412,28.836c-2.359,1.362-2.631,5.225-4.766,1.634c-1.417-2.382-3.735-10.737-1.301-12.143
					c2.434-1.405,8.51,4.78,9.865,7.198C29.252,29.171,25.771,27.474,23.412,28.836z"/>
			</g>
		</g>
		<g>
			<circle class="st9" cx="16" cy="16" r="5.267"/>
		</g>
		<g>
			<path class="st15" d="M18.686,16.004c0,1.48-1.199,2.679-2.693,2.679c-1.48,0-2.679-1.198-2.679-2.679
				c0-1.495,1.199-2.693,2.679-2.693C17.487,13.311,18.686,14.51,18.686,16.004z"/>
		</g>
	</g>
</g>
</svg>
