<?xml version="1.0" encoding="utf-8"?>
<!-- Generator: Adobe Illustrator 21.1.0, SVG Export Plug-In . SVG Version: 6.00 Build 0)  -->
<svg version="1.1" id="Layer_1" xmlns="http://www.w3.org/2000/svg" xmlns:xlink="http://www.w3.org/1999/xlink" x="0px" y="0px"
	 viewBox="0 0 32 32" style="enable-background:new 0 0 32 32;" xml:space="preserve">
<style type="text/css">
	.st0{fill:#E9EFF4;}
	.st1{fill:#BBC7D1;}
	.st2{fill:#E24B4B;}
	.st3{fill:#D23F77;}
	.st4{fill:#D3D9DD;}
	.st5{fill:#E84D88;}
	.st6{fill:#DEE4E9;}
	.st7{fill:#3E4347;}
	.st8{fill:#65B1EF;}
	.st9{fill:#FFFFFF;}
	.st10{fill:#59A5E0;}
	.st11{opacity:0.15;fill:#FFFFFF;}
	.st12{fill:#D03F3F;}
	.st13{opacity:0.15;}
	.st14{fill:#E9B02C;}
	.st15{fill:#F4C534;}
	.st16{opacity:0.5;}
	.st17{fill:#FFD93B;}
	.st18{fill:#353A3D;}
	.st19{fill:#777B7E;}
	.st20{fill:#5A5F63;}
	.st21{fill:#4E99D2;}
	.st22{fill:#CBD6E0;}
	.st23{fill:#6B503B;}
	.st24{fill:#89664C;}
	.st25{fill:#8F6D52;}
	.st26{fill:#A5856D;}
	.st27{fill:#C2CACE;}
	.st28{fill:#BF3333;}
	.st29{fill:#DAE5EF;}
	.st30{fill:#373C3F;}
	.st31{fill:#8CC63E;}
	.st32{fill:#7FB239;}
	.st33{opacity:0.7;}
	.st34{fill:#32373A;}
	.st35{opacity:0.1;fill:#FFFFFF;}
	.st36{opacity:0.5;fill:#DAE5EF;}
	.st37{fill:#8D9BA3;}
	.st38{fill:#7A5B44;}
	.st39{opacity:0.2;fill:#FFFFFF;}
	.st40{fill:#45CBEA;}
	.st41{opacity:0.1;}
	.st42{fill:#7B8B92;}
	.st43{fill:#ACB9C1;}
	.st44{fill:#846144;}
	.st45{fill:#9A795F;}
	.st46{opacity:0.2;}
	.st47{fill:#719D34;}
	.st48{fill:#31373A;}
	.st49{fill:#FFDE55;}
	.st50{fill:#CF7519;}
	.st51{fill:none;stroke:#D03F3F;stroke-width:36;stroke-miterlimit:10;}
	.st52{fill:#F29A2E;}
	.st53{opacity:0.25;}
	.st54{fill:#E18823;}
	.st55{opacity:0.5;fill:#E18823;}
	.st56{opacity:0.2;fill:#5A5F63;}
	.st57{fill:#64892F;}
</style>
<g>
	<g>
		<g>
			<g>
				<path class="st15" d="M13.327,15.417c-0.062,0.385-0.385,0.671-0.77,0.671c-0.037,0-0.075,0-0.099-0.012
					c-4.421-0.571-7.961-2.596-9.961-5.688c-1.329-2.062-1.851-4.471-1.341-6.16C1.739,2.22,3.455,1.214,4.931,1.706
					C6.672,2.299,7.57,4.685,5.85,6.339C5.54,6.637,5.043,6.624,4.745,6.314C4.447,6.003,4.46,5.519,4.77,5.221
					c0.806-0.733,0.458-1.786-0.335-2.037C3.63,2.902,2.89,3.842,2.634,4.674c-0.31,1.043-0.075,2.943,1.167,4.868
					c1.751,2.707,4.893,4.471,8.855,4.993C13.079,14.598,13.377,14.983,13.327,15.417z"/>
				<path class="st14" d="M29.497,10.387c-1.999,3.093-5.539,5.117-9.961,5.688c-0.025,0.012-0.062,0.012-0.099,0.012
					c-0.385,0-0.708-0.286-0.77-0.671c-0.05-0.435,0.248-0.82,0.671-0.882c3.962-0.522,7.104-2.285,8.855-4.993
					c1.242-1.925,1.478-3.825,1.168-4.868c-0.199-0.646-0.584-1.18-1.043-1.416c-0.261-0.137-0.509-0.161-0.758-0.075
					c-0.794,0.251-1.141,1.304-0.335,2.037c0.31,0.298,0.323,0.782,0.025,1.093c-0.298,0.31-0.795,0.323-1.105,0.025
					c-1.714-1.648-0.829-4.037,0.919-4.633c0.633-0.211,1.329-0.149,1.962,0.174c0.832,0.422,1.503,1.279,1.826,2.347
					C31.348,5.916,30.826,8.326,29.497,10.387z"/>
			</g>
		</g>
	</g>
	<g>
		<path class="st15" d="M23.275,12.213c-3.8,4.508-5.663,5.44-6.16,7.365c-0.174,0.869,0.385,1.726,1.242,1.95
			c0.807,0.199,1.788,0.422,2.434,0.522c1.267,0.186,1.975,0.77,2.099,1.764H9.105c0.124-0.994,0.844-1.577,2.111-1.764
			c0.633-0.099,1.615-0.323,2.422-0.522c0.869-0.224,1.416-1.08,1.242-1.95c-0.497-1.925-2.347-2.856-6.16-7.365
			C4.186,6.86,7.068,1.83,7.068,1.83h17.859C24.927,1.83,27.809,6.86,23.275,12.213z"/>
	</g>
	<g>
		<path class="st14" d="M23.275,12.213c-3.8,4.508-5.663,5.44-6.16,7.365c-0.174,0.869,0.385,1.726,1.242,1.95
			c0.807,0.199,1.788,0.422,2.434,0.522c1.267,0.186,1.975,0.77,2.099,1.764h-1.677c-0.087-0.994-0.621-1.577-1.59-1.764
			c-0.484-0.099-1.23-0.323-1.838-0.522c-0.646-0.224-1.068-1.08-0.944-1.95c0.373-1.925,1.788-2.856,4.67-7.365
			C24.94,6.86,22.754,1.83,22.754,1.83h2.173C24.927,1.83,27.809,6.86,23.275,12.213z"/>
	</g>
	<g class="st16">
		<path class="st17" d="M9.949,12.499c-0.062-0.099-0.124-0.186-0.186-0.286C6.198,6.86,8.471,1.83,8.471,1.83h1.938
			C10.409,1.83,8.459,6.512,9.949,12.499z"/>
	</g>
	<g>
		<path class="st17" d="M25.308,0L6.687,0C6.28,0,5.95,0.33,5.95,0.737v0.357C5.95,1.5,6.28,1.83,6.687,1.83h18.622
			c0.407,0,0.737-0.33,0.737-0.737V0.737C26.045,0.33,25.715,0,25.308,0z"/>
	</g>
	<g>
		<g>
			<rect x="8.807" y="24.27" class="st23" width="14.382" height="7.072"/>
		</g>
		<g>
			<g>
				<path class="st24" d="M23.335,25.117H8.66c-0.335,0-0.606-0.271-0.606-0.606v-0.293c0-0.335,0.271-0.606,0.606-0.606h14.675
					c0.335,0,0.606,0.271,0.606,0.606v0.293C23.941,24.846,23.67,25.117,23.335,25.117z"/>
			</g>
			<g>
				<path class="st24" d="M23.335,32H8.66c-0.335,0-0.606-0.271-0.606-0.606v-0.293c0-0.335,0.271-0.606,0.606-0.606h14.675
					c0.335,0,0.606,0.271,0.606,0.606v0.293C23.941,31.729,23.67,32,23.335,32z"/>
			</g>
		</g>
		<g>
			<rect x="11.459" y="26.234" class="st9" width="9.077" height="3.145"/>
		</g>
		<g>
			<g>
				<rect x="12.372" y="28.25" class="st6" width="7.251" height="0.459"/>
			</g>
			<g>
				<rect x="12.372" y="27.043" class="st6" width="7.251" height="0.459"/>
			</g>
		</g>
	</g>
</g>
</svg>
