<?xml version="1.0" encoding="utf-8"?>
<!-- Generator: Adobe Illustrator 21.1.0, SVG Export Plug-In . SVG Version: 6.00 Build 0)  -->
<svg version="1.1" id="Layer_1" xmlns="http://www.w3.org/2000/svg" xmlns:xlink="http://www.w3.org/1999/xlink" x="0px" y="0px"
	 viewBox="0 0 32 32" style="enable-background:new 0 0 32 32;" xml:space="preserve">
<style type="text/css">
	.st0{fill:#E9EFF4;}
	.st1{fill:#BBC7D1;}
	.st2{fill:#E24B4B;}
	.st3{fill:#D23F77;}
	.st4{fill:#D3D9DD;}
	.st5{fill:#E84D88;}
	.st6{fill:#DEE4E9;}
	.st7{fill:#3E4347;}
	.st8{fill:#65B1EF;}
	.st9{fill:#FFFFFF;}
	.st10{fill:#59A5E0;}
	.st11{opacity:0.15;fill:#FFFFFF;}
	.st12{fill:#D03F3F;}
	.st13{opacity:0.15;}
	.st14{fill:#E9B02C;}
	.st15{fill:#F4C534;}
	.st16{opacity:0.5;}
	.st17{fill:#FFD93B;}
	.st18{fill:#353A3D;}
	.st19{fill:#777B7E;}
	.st20{fill:#5A5F63;}
	.st21{fill:#4E99D2;}
	.st22{fill:#CBD6E0;}
	.st23{fill:#6B503B;}
	.st24{fill:#89664C;}
	.st25{fill:#8F6D52;}
	.st26{fill:#A5856D;}
	.st27{fill:#C2CACE;}
	.st28{fill:#BF3333;}
	.st29{fill:#DAE5EF;}
	.st30{fill:#373C3F;}
	.st31{fill:#8CC63E;}
	.st32{fill:#7FB239;}
	.st33{opacity:0.7;}
	.st34{fill:#32373A;}
	.st35{opacity:0.1;fill:#FFFFFF;}
	.st36{opacity:0.5;fill:#DAE5EF;}
	.st37{fill:#8D9BA3;}
	.st38{fill:#7A5B44;}
	.st39{opacity:0.2;fill:#FFFFFF;}
	.st40{fill:#45CBEA;}
	.st41{opacity:0.1;}
	.st42{fill:#7B8B92;}
	.st43{fill:#ACB9C1;}
	.st44{fill:#846144;}
	.st45{fill:#9A795F;}
	.st46{opacity:0.2;}
	.st47{fill:#719D34;}
	.st48{fill:#31373A;}
	.st49{fill:#FFDE55;}
	.st50{fill:#CF7519;}
	.st51{fill:none;stroke:#D03F3F;stroke-width:36;stroke-miterlimit:10;}
	.st52{fill:#F29A2E;}
	.st53{opacity:0.25;}
	.st54{fill:#E18823;}
	.st55{opacity:0.5;fill:#E18823;}
	.st56{opacity:0.2;fill:#5A5F63;}
	.st57{fill:#64892F;}
</style>
<g>
	<polygon class="st21" points="10.315,0 17.32,9.809 19.96,9.809 14.491,0 	"/>
	<polygon class="st22" points="6.139,0 14.68,9.809 17.32,9.809 10.315,0 	"/>
	<polygon class="st21" points="1.963,0 12.04,9.809 14.68,9.809 6.139,0 	"/>
	<ellipse class="st17" cx="16.268" cy="21.785" rx="10.209" ry="10.215"/>
	<ellipse class="st15" cx="16.269" cy="21.785" rx="7.552" ry="7.557"/>
	<path class="st14" d="M23.254,18.922c-1.225-2.176-3.576-3.651-6.277-3.651c-3.988,0-7.227,3.238-7.227,7.227
		c0,2.651,1.425,4.976,3.563,6.239c-2.701-1.15-4.601-3.826-4.601-6.952c0-4.176,3.388-7.552,7.552-7.552
		C19.428,14.233,22.129,16.171,23.254,18.922z"/>
	<path class="st17" d="M10.327,16.144v-5.678c0-0.688,0.564-1.247,1.259-1.247h9.37c0.695,0,1.259,0.56,1.259,1.247v5.678h1.492
		v-5.678c0-1.511-1.234-2.739-2.751-2.739h-9.37c-1.517,0-2.751,1.229-2.751,2.739v5.678H10.327z"/>
	<polygon class="st8" points="17.509,0 12.04,9.809 14.68,9.809 21.685,0 	"/>
	<polygon class="st0" points="21.685,0 14.68,9.809 17.32,9.809 25.861,0 	"/>
	<polygon class="st8" points="25.861,0 17.32,9.809 19.96,9.809 30.037,0 	"/>
	<path class="st17" d="M13.195,23.898l1.718-0.208c0.115,0.922,0.668,1.352,1.314,1.352c0.68,0,1.301-0.531,1.301-1.541
		c0-1.032-0.631-1.719-2.053-1.32l0.196-1.447c1.007,0.026,1.478-0.5,1.478-1.194c0-0.633-0.405-1.023-1.017-1.023
		c-0.573,0-1.071,0.387-1.169,1.238l-1.636-0.278c0.334-1.644,1.32-2.42,2.855-2.42c1.743,0,2.748,1.224,2.748,2.375
		c0,0.813-0.444,1.461-1.333,1.946c1.052,0.225,1.75,1.06,1.75,2.198c0,1.589-1.279,2.938-3.108,2.938
		C14.505,26.513,13.367,25.414,13.195,23.898z"/>
</g>
</svg>
