<?xml version="1.0" encoding="utf-8"?>
<!-- Generator: Adobe Illustrator 21.1.0, SVG Export Plug-In . SVG Version: 6.00 Build 0)  -->
<svg version="1.1" id="Layer_1" xmlns="http://www.w3.org/2000/svg" xmlns:xlink="http://www.w3.org/1999/xlink" x="0px" y="0px"
	 viewBox="0 0 32 32" style="enable-background:new 0 0 32 32;" xml:space="preserve">
<style type="text/css">
	.st0{fill:#E9EFF4;}
	.st1{fill:#BBC7D1;}
	.st2{fill:#E24B4B;}
	.st3{fill:#D23F77;}
	.st4{fill:#D3D9DD;}
	.st5{fill:#E84D88;}
	.st6{fill:#DEE4E9;}
	.st7{fill:#3E4347;}
	.st8{fill:#65B1EF;}
	.st9{fill:#FFFFFF;}
	.st10{fill:#59A5E0;}
	.st11{opacity:0.15;fill:#FFFFFF;}
	.st12{fill:#D03F3F;}
	.st13{opacity:0.15;}
	.st14{fill:#E9B02C;}
	.st15{fill:#F4C534;}
	.st16{opacity:0.5;}
	.st17{fill:#FFD93B;}
	.st18{fill:#353A3D;}
	.st19{fill:#777B7E;}
	.st20{fill:#5A5F63;}
	.st21{fill:#4E99D2;}
	.st22{fill:#CBD6E0;}
	.st23{fill:#6B503B;}
	.st24{fill:#89664C;}
	.st25{fill:#8F6D52;}
	.st26{fill:#A5856D;}
	.st27{fill:#C2CACE;}
	.st28{fill:#BF3333;}
	.st29{fill:#DAE5EF;}
	.st30{fill:#373C3F;}
	.st31{fill:#8CC63E;}
	.st32{fill:#7FB239;}
	.st33{opacity:0.7;}
	.st34{fill:#32373A;}
	.st35{opacity:0.1;fill:#FFFFFF;}
	.st36{opacity:0.5;fill:#DAE5EF;}
	.st37{fill:#8D9BA3;}
	.st38{fill:#7A5B44;}
	.st39{opacity:0.2;fill:#FFFFFF;}
	.st40{fill:#45CBEA;}
	.st41{opacity:0.1;}
	.st42{fill:#7B8B92;}
	.st43{fill:#ACB9C1;}
	.st44{fill:#846144;}
	.st45{fill:#9A795F;}
	.st46{opacity:0.2;}
	.st47{fill:#719D34;}
	.st48{fill:#31373A;}
	.st49{fill:#FFDE55;}
	.st50{fill:#CF7519;}
	.st51{fill:none;stroke:#D03F3F;stroke-width:36;stroke-miterlimit:10;}
	.st52{fill:#F29A2E;}
	.st53{opacity:0.25;}
	.st54{fill:#E18823;}
	.st55{opacity:0.5;fill:#E18823;}
	.st56{opacity:0.2;fill:#5A5F63;}
	.st57{fill:#64892F;}
</style>
<g>
	<polygon class="st25" points="3.916,0 12.894,8.176 19.452,8.176 15.046,0 	"/>
	<path class="st6" d="M19.796,10.812h-7.247c-1.06,0-1.922-0.862-1.922-1.922s0.862-1.922,1.922-1.922h7.247
		c1.06,0,1.922,0.862,1.922,1.922S20.856,10.812,19.796,10.812z M12.549,8.118c-0.426,0-0.771,0.346-0.771,0.772
		s0.346,0.772,0.771,0.772h7.247c0.426,0,0.771-0.346,0.771-0.772s-0.346-0.772-0.771-0.772H12.549z"/>
	<polygon class="st26" points="17.29,0 12.894,8.176 19.452,8.176 28.084,0 	"/>
	<path class="st27" d="M17.266,12.3V9.759c0-0.604-0.489-1.093-1.093-1.093S15.08,9.155,15.08,9.759V12.3H17.266z"/>
	<ellipse class="st6" cx="16.17" cy="21.887" rx="10.106" ry="10.113"/>
	<ellipse class="st4" cx="16.17" cy="21.887" rx="7.476" ry="7.481"/>
	<path class="st27" d="M23.086,19.053c-1.213-2.154-3.54-3.614-6.214-3.614c-3.948,0-7.154,3.206-7.154,7.154
		c0,2.624,1.411,4.926,3.527,6.177c-2.673-1.139-4.555-3.788-4.555-6.882c0-4.134,3.354-7.476,7.476-7.476
		C19.298,14.411,21.972,16.33,23.086,19.053z"/>
	<g>
		<path class="st0" d="M16.996,26.2h-1.646v-6.205c-0.602,0.563-1.311,0.979-2.127,1.248v-1.494c0.916-0.3,2.07-1.148,2.438-2.174
			h1.336V26.2z"/>
	</g>
</g>
</svg>
