<?xml version="1.0" encoding="utf-8"?>
<!-- Generator: Adobe Illustrator 21.1.0, SVG Export Plug-In . SVG Version: 6.00 Build 0)  -->
<svg version="1.1" id="Layer_1" xmlns="http://www.w3.org/2000/svg" xmlns:xlink="http://www.w3.org/1999/xlink" x="0px" y="0px"
	 viewBox="0 0 32 32" style="enable-background:new 0 0 32 32;" xml:space="preserve">
<style type="text/css">
	.st0{fill:#E9EFF4;}
	.st1{fill:#BBC7D1;}
	.st2{fill:#E24B4B;}
	.st3{fill:#D23F77;}
	.st4{fill:#D3D9DD;}
	.st5{fill:#E84D88;}
	.st6{fill:#DEE4E9;}
	.st7{fill:#3E4347;}
	.st8{fill:#65B1EF;}
	.st9{fill:#FFFFFF;}
	.st10{fill:#59A5E0;}
	.st11{opacity:0.15;fill:#FFFFFF;}
	.st12{fill:#D03F3F;}
	.st13{opacity:0.15;}
	.st14{fill:#E9B02C;}
	.st15{fill:#F4C534;}
	.st16{opacity:0.5;}
	.st17{fill:#FFD93B;}
	.st18{fill:#353A3D;}
	.st19{fill:#777B7E;}
	.st20{fill:#5A5F63;}
	.st21{fill:#4E99D2;}
	.st22{fill:#CBD6E0;}
	.st23{fill:#6B503B;}
	.st24{fill:#89664C;}
	.st25{fill:#8F6D52;}
	.st26{fill:#A5856D;}
	.st27{fill:#C2CACE;}
	.st28{fill:#BF3333;}
	.st29{fill:#DAE5EF;}
	.st30{fill:#373C3F;}
	.st31{fill:#8CC63E;}
	.st32{fill:#7FB239;}
	.st33{opacity:0.7;}
	.st34{fill:#32373A;}
	.st35{opacity:0.1;fill:#FFFFFF;}
	.st36{opacity:0.5;fill:#DAE5EF;}
	.st37{fill:#8D9BA3;}
	.st38{fill:#7A5B44;}
	.st39{opacity:0.2;fill:#FFFFFF;}
	.st40{fill:#45CBEA;}
	.st41{opacity:0.1;}
	.st42{fill:#7B8B92;}
	.st43{fill:#ACB9C1;}
	.st44{fill:#846144;}
	.st45{fill:#9A795F;}
	.st46{opacity:0.2;}
	.st47{fill:#719D34;}
	.st48{fill:#31373A;}
	.st49{fill:#FFDE55;}
	.st50{fill:#CF7519;}
	.st51{fill:none;stroke:#D03F3F;stroke-width:36;stroke-miterlimit:10;}
	.st52{fill:#F29A2E;}
	.st53{opacity:0.25;}
	.st54{fill:#E18823;}
	.st55{opacity:0.5;fill:#E18823;}
	.st56{opacity:0.2;fill:#5A5F63;}
	.st57{fill:#64892F;}
</style>
<g>
	<g>
		<path class="st3" d="M6.386,31.995c-2.129,0-4.258,0-6.386,0c4.235-5.347,5.793-10.976,6.915-15.929c1.209,0,2.417,0,3.626,0
			C9.867,21.018,8.931,26.647,6.386,31.995z"/>
	</g>
	<g>
		<path class="st4" d="M12.789,31.995c-2.129,0-4.257,0-6.386,0c2.54-5.347,3.475-10.976,4.148-15.929c1.209,0,2.417,0,3.626,0
			C13.952,21.018,13.639,26.647,12.789,31.995z"/>
	</g>
	<g>
		<path class="st3" d="M19.193,31.995c-2.129,0-4.257,0-6.386,0c0.845-5.347,1.156-10.976,1.38-15.929c1.208,0,2.417,0,3.626,0
			C18.037,21.018,18.348,26.647,19.193,31.995z"/>
	</g>
	<g>
		<path class="st4" d="M25.596,31.995c-2.129,0-4.257,0-6.386,0c-0.85-5.347-1.162-10.976-1.388-15.929c1.208,0,2.417,0,3.626,0
			C22.122,21.018,23.056,26.647,25.596,31.995z"/>
	</g>
	<g>
		<path class="st3" d="M32,31.995c-2.129,0-4.258,0-6.386,0c-2.545-5.347-3.481-10.976-4.155-15.929c1.209,0,2.417,0,3.626,0
			C26.207,21.018,27.764,26.647,32,31.995z"/>
	</g>
	<g>
		<path class="st5" d="M20.976,2.087c-0.65,3.98-4.35,0.85-4.97,3.86l0.17-4.43C17.696,0.587,18.986,3.307,20.976,2.087z"/>
	</g>
	<g>
		<g>
			<path class="st3" d="M15.596,6.866c-1.058,2.725-5.724,8.474-11.511,9.864c1.759,0.708,3.385,0.902,4.767,0
				c3.472-1.389,6.273-7.139,6.908-9.864H15.596z"/>
		</g>
		<g>
			<path class="st4" d="M15.761,6.866c-0.635,2.725-3.436,8.474-6.908,9.864c1.694,0.393,3.31,0.494,4.766,0
				c1.157-1.389,2.095-7.139,2.307-9.864H15.761z"/>
		</g>
		<g>
			<path class="st3" d="M15.925,6.866c-0.212,2.725-1.15,8.474-2.307,9.864c1.627,0.37,3.218,0.389,4.766,0
				c-1.157-1.389-2.083-7.139-2.295-9.864H15.925z"/>
		</g>
		<g>
			<path class="st4" d="M16.255,6.866H16.09c0.212,2.725,1.137,8.474,2.295,9.864c1.632,0.424,3.225,0.462,4.766,0
				C19.679,15.341,16.89,9.592,16.255,6.866z"/>
		</g>
		<g>
			<path class="st3" d="M16.42,6.866h-0.165c0.635,2.725,3.424,8.474,6.896,9.864c1.103,0.48,2.908,0.265,4.764,0
				C22.128,15.341,17.478,9.592,16.42,6.866z"/>
			<g>
				<path class="st5" d="M27.912,16.73v0.136c0,1.313-1.064,2.377-2.377,2.377h0c-1.313,0-2.384-1.064-2.384-2.377V16.73H27.912z"/>
			</g>
			<g>
				<path class="st0" d="M23.151,16.73v0.136c0,1.313-1.071,2.377-2.384,2.377h0c-1.313,0-2.382-1.064-2.382-2.377V16.73H23.151z"/>
			</g>
			<g>
				<path class="st5" d="M18.385,16.73v0.136c0,1.313-1.073,2.377-2.386,2.377h0c-1.313,0-2.38-1.064-2.38-2.377V16.73H18.385z"/>
			</g>
			<g>
				<path class="st0" d="M13.619,16.73v0.136c0,1.313-1.075,2.377-2.388,2.377h0c-1.313,0-2.378-1.064-2.378-2.377V16.73H13.619z"/>
			</g>
			<g>
				<path class="st5" d="M8.852,16.73v0.136c0,1.313-1.077,2.377-2.39,2.377h0c-1.313,0-2.377-1.064-2.377-2.377V16.73H8.852z"/>
			</g>
		</g>
	</g>
	<g>
		<rect x="15.623" y="0.682" class="st0" width="0.767" height="6.184"/>
	</g>
	<g>
		<circle class="st0" cx="15.996" cy="0.658" r="0.663"/>
	</g>
	<g>
		<path class="st6" d="M16.655,0.662c0,0.368-0.291,0.659-0.659,0.659c-0.334,0-0.608-0.248-0.651-0.574
			c0.094,0.197,0.291,0.325,0.505,0.325c0.317,0,0.565-0.248,0.565-0.556c0-0.231-0.137-0.428-0.343-0.514
			C16.407,0.037,16.655,0.319,16.655,0.662z"/>
	</g>
	<g>
		<path class="st7" d="M20.24,31.989l-8.46,0.017c1.097-3.771,2.438-7.294,4.209-10.379C17.868,24.601,19.23,28.112,20.24,31.989z"
			/>
	</g>
	<g>
		<path class="st5" d="M16,21.627l4.23,10.37c0,0,3.413-1.165,3.809-3.103C22.018,27.77,16,21.627,16,21.627z"/>
	</g>
	<g>
		<path class="st5" d="M16,21.627l-4.23,10.37c0,0-3.413-1.165-3.809-3.103C9.982,27.77,16,21.627,16,21.627z"/>
	</g>
</g>
</svg>
