<?xml version="1.0" encoding="utf-8"?>
<!-- Generator: Adobe Illustrator 21.1.0, SVG Export Plug-In . SVG Version: 6.00 Build 0)  -->
<svg version="1.1" id="Layer_1" xmlns="http://www.w3.org/2000/svg" xmlns:xlink="http://www.w3.org/1999/xlink" x="0px" y="0px"
	 viewBox="0 0 32 32" style="enable-background:new 0 0 32 32;" xml:space="preserve">
<style type="text/css">
	.st0{fill:#45CBEA;}
	.st1{fill:#FFD93B;}
	.st2{fill:#F4C534;}
	.st3{fill:#3E4347;}
	.st4{opacity:0.2;}
	.st5{fill:#DE9C25;}
	.st6{fill:#FFFFFF;}
	.st7{fill:#E24B4B;}
	.st8{fill:#8CC63E;}
	.st9{fill:#D03F3F;}
	.st10{fill:#846144;}
	.st11{fill:#5A5F63;}
	.st12{fill:#777B7E;}
	.st13{fill:#FFDC97;}
	.st14{fill:#FFE9AB;}
	.st15{fill:#93979A;}
	.st16{fill:#FFD68D;}
	.st17{fill:#728389;}
	.st18{fill:#DAE5EF;}
	.st19{fill:#65B1EF;}
	.st20{fill:#F2F7F9;}
	.st21{fill:#8D9BA3;}
	.st22{opacity:0.2;fill:#F2F7F9;}
	.st23{fill:#E9EFF4;}
	.st24{fill:#FC97B2;}
	.st25{fill:#E84D88;}
	.st26{fill:#A5856D;}
	.st27{fill:#E9B02C;}
	.st28{fill:#7FB239;}
	.st29{fill:#CBD6E0;}
	.st30{fill:#ACB9C1;}
	.st31{fill:#8F6D52;}
	.st32{opacity:0.2;fill:#FFFFFF;}
	.st33{fill:#9A795F;}
	.st34{fill:#BBC7D1;}
	.st35{fill:#E18823;}
	.st36{fill:#F29A2E;}
	.st37{fill:#89664C;}
	.st38{fill:#D3D9DD;}
	.st39{fill:#DEE4E9;}
	.st40{fill:#AD2727;}
	.st41{fill:#719D34;}
	.st42{fill:#353A3D;}
	.st43{opacity:0.25;}
	.st44{opacity:0.2;fill:#3E4347;}
	.st45{fill:#373C3F;}
	.st46{opacity:0.1;}
	.st47{opacity:0.06;}
	.st48{fill:#7A5B44;}
	.st49{fill:#6B503B;}
	.st50{fill:#31373A;}
	.st51{fill:#59A5E0;}
	.st52{fill:#363B3F;}
	.st53{fill:#BF3333;}
	.st54{opacity:0.3;}
	.st55{fill:#4E99D2;}
	.st56{opacity:0.15;}
	.st57{opacity:0.1;fill:#3E4347;}
	.st58{fill:#64892F;}
	.st59{opacity:0.08;fill:#FFFFFF;}
	.st60{opacity:0.1;fill:#FFFFFF;}
</style>
<g>
	<g>
		<path class="st21" d="M25.773,15.927L23.22,9.37c-1.005-0.12-1.999-0.317-2.979-0.572l2.835,7.279l-1.901,1.901
			c-0.501,0.501-0.502,1.314,0,1.816c0.502,0.502,1.314,0.501,1.816,0l2.494-2.494C25.844,16.941,25.958,16.402,25.773,15.927z"/>
	</g>
	<g>
		<g>
			<path class="st34" d="M12.042,10.662c-0.502-0.502-0.501-1.314,0-1.816l2.494-2.494c0.36-0.36,0.899-0.473,1.374-0.289
				l3.908,1.522c-0.527-2.071,0.058-4.286,1.584-5.811c2.375-2.375,6.25-2.364,8.638,0.024c2.389,2.389,2.399,6.263,0.024,8.638
				c-1.703,1.703-4.266,2.234-6.53,1.352l-7.774-3.028l-1.901,1.901C13.357,11.163,12.544,11.164,12.042,10.662z M28.223,3.614
				c-1.387-1.387-3.632-1.397-5.006-0.023c-0.983,0.983-1.288,2.467-0.776,3.782l0.567,1.456l1.456,0.567
				c1.314,0.512,2.8,0.208,3.783-0.775C29.621,7.247,29.61,5,28.223,3.614z"/>
		</g>
	</g>
	<g>
		<g>
			<g>
				<path class="st9" d="M0.841,18.167c-2.448,2.448,2.286,5.459,5.384,2.361l8.231-8.231l-3.873-3.873l0,0
					C9.769,9.239,9.111,8.581,8.298,9.394c-0.813,0.813-0.155,1.471-0.969,2.285c-0.812,0.812-1.47,0.154-2.282,0.966
					c-0.81,0.81-0.152,1.468-0.962,2.278c-0.811,0.811-1.469,0.153-2.281,0.965C0.993,16.699,1.651,17.357,0.841,18.167
					L0.841,18.167z"/>
			</g>
		</g>
		<g>
			<g>
				<path class="st7" d="M9.993,7.279c-0.328,0.328-0.328,0.861,0.001,1.19l4.242,4.242c0.33,0.33,0.86,0.331,1.19,0.001
					c0.328-0.328,0.328-0.861-0.001-1.19L11.182,7.28C10.853,6.95,10.321,6.95,9.993,7.279z"/>
			</g>
		</g>
	</g>
	<g>
		<g>
			<g>
				<g>
					<path class="st9" d="M23.773,21.611l-9.742,9.742c-2.451,2.451-5.82-2.642-2.724-5.738l8.235-8.235L23.773,21.611z"/>
				</g>
			</g>
		</g>
		<g>
			<g>
				<path class="st7" d="M24.558,21.845c-0.328,0.328-0.861,0.328-1.19-0.001l-4.242-4.242c-0.33-0.33-0.331-0.86-0.001-1.19
					c0.328-0.328,0.861-0.328,1.19,0.001l4.242,4.242C24.887,20.984,24.887,21.516,24.558,21.845z"/>
			</g>
		</g>
	</g>
</g>
</svg>
