<?xml version="1.0" encoding="utf-8"?>
<!-- Generator: Adobe Illustrator 21.1.0, SVG Export Plug-In . SVG Version: 6.00 Build 0)  -->
<svg version="1.1" id="Layer_1" xmlns="http://www.w3.org/2000/svg" xmlns:xlink="http://www.w3.org/1999/xlink" x="0px" y="0px"
	 viewBox="0 0 32 32" style="enable-background:new 0 0 32 32;" xml:space="preserve">
<style type="text/css">
	.st0{fill:#E9EFF4;}
	.st1{fill:#BBC7D1;}
	.st2{fill:#E24B4B;}
	.st3{fill:#D23F77;}
	.st4{fill:#D3D9DD;}
	.st5{fill:#E84D88;}
	.st6{fill:#DEE4E9;}
	.st7{fill:#3E4347;}
	.st8{fill:#65B1EF;}
	.st9{fill:#FFFFFF;}
	.st10{fill:#59A5E0;}
	.st11{opacity:0.15;fill:#FFFFFF;}
	.st12{fill:#D03F3F;}
	.st13{opacity:0.15;}
	.st14{fill:#E9B02C;}
	.st15{fill:#F4C534;}
	.st16{opacity:0.5;}
	.st17{fill:#FFD93B;}
	.st18{fill:#353A3D;}
	.st19{fill:#777B7E;}
	.st20{fill:#5A5F63;}
	.st21{fill:#4E99D2;}
	.st22{fill:#CBD6E0;}
	.st23{fill:#6B503B;}
	.st24{fill:#89664C;}
	.st25{fill:#8F6D52;}
	.st26{fill:#A5856D;}
	.st27{fill:#C2CACE;}
	.st28{fill:#BF3333;}
	.st29{fill:#DAE5EF;}
	.st30{fill:#373C3F;}
	.st31{fill:#8CC63E;}
	.st32{fill:#7FB239;}
	.st33{opacity:0.7;}
	.st34{fill:#32373A;}
	.st35{opacity:0.1;fill:#FFFFFF;}
	.st36{opacity:0.5;fill:#DAE5EF;}
	.st37{fill:#8D9BA3;}
	.st38{fill:#7A5B44;}
	.st39{opacity:0.2;fill:#FFFFFF;}
	.st40{fill:#45CBEA;}
	.st41{opacity:0.1;}
	.st42{fill:#7B8B92;}
	.st43{fill:#ACB9C1;}
	.st44{fill:#846144;}
	.st45{fill:#9A795F;}
	.st46{opacity:0.2;}
	.st47{fill:#719D34;}
	.st48{fill:#31373A;}
	.st49{fill:#FFDE55;}
	.st50{fill:#CF7519;}
	.st51{fill:none;stroke:#D03F3F;stroke-width:36;stroke-miterlimit:10;}
	.st52{fill:#F29A2E;}
	.st53{opacity:0.25;}
	.st54{fill:#E18823;}
	.st55{opacity:0.5;fill:#E18823;}
	.st56{opacity:0.2;fill:#5A5F63;}
	.st57{fill:#64892F;}
</style>
<g>
	<g>
		<g>
			<g>
				<polygon class="st7" points="31.996,22.834 31.996,26.271 8.361,26.271 21.257,5.636 				"/>
			</g>
			<g>
				<polygon class="st6" points="18.44,13.118 20.921,10.462 21.776,12.686 22.418,11.325 26.758,14.446 21.254,5.635 15.46,14.911 
					18.868,11.325 				"/>
			</g>
		</g>
		<g>
			<g>
				<polygon class="st20" points="18.791,24.206 9.516,9.359 0.241,24.206 				"/>
			</g>
			<g>
				<polygon class="st0" points="7.491,14.743 9.276,12.832 9.892,14.432 10.353,13.453 13.476,15.698 9.516,9.359 5.346,16.033 
					7.799,13.453 				"/>
			</g>
		</g>
	</g>
	<g>
		<path class="st32" d="M32,26.037c-2.772-1.989-6.472-3.213-10.549-3.213c-6.605,0-12.229,3.194-14.475,7.695H32V26.037z"/>
	</g>
	<g>
		<path class="st31" d="M7.576,22.019c-2.753,0-5.334,0.56-7.576,1.532v6.968h22.433C20.485,25.595,14.57,22.019,7.576,22.019z"/>
	</g>
	<g>
		<path class="st17" d="M11.566,4.921c0,1.9-1.54,3.44-3.43,3.44c-1.9,0-3.44-1.54-3.44-3.44s1.54-3.44,3.44-3.44
			C10.026,1.481,11.566,3.021,11.566,4.921z"/>
	</g>
</g>
</svg>
