<?xml version="1.0" encoding="utf-8"?>
<!-- Generator: Adobe Illustrator 21.1.0, SVG Export Plug-In . SVG Version: 6.00 Build 0)  -->
<svg version="1.1" id="Layer_1" xmlns="http://www.w3.org/2000/svg" xmlns:xlink="http://www.w3.org/1999/xlink" x="0px" y="0px"
	 viewBox="0 0 32 32" style="enable-background:new 0 0 32 32;" xml:space="preserve">
<style type="text/css">
	.st0{fill:#E9EFF4;}
	.st1{fill:#BBC7D1;}
	.st2{fill:#E24B4B;}
	.st3{fill:#D23F77;}
	.st4{fill:#D3D9DD;}
	.st5{fill:#E84D88;}
	.st6{fill:#DEE4E9;}
	.st7{fill:#3E4347;}
	.st8{fill:#65B1EF;}
	.st9{fill:#FFFFFF;}
	.st10{fill:#59A5E0;}
	.st11{opacity:0.15;fill:#FFFFFF;}
	.st12{fill:#D03F3F;}
	.st13{opacity:0.15;}
	.st14{fill:#E9B02C;}
	.st15{fill:#F4C534;}
	.st16{opacity:0.5;}
	.st17{fill:#FFD93B;}
	.st18{fill:#353A3D;}
	.st19{fill:#777B7E;}
	.st20{fill:#5A5F63;}
	.st21{fill:#4E99D2;}
	.st22{fill:#CBD6E0;}
	.st23{fill:#6B503B;}
	.st24{fill:#89664C;}
	.st25{fill:#8F6D52;}
	.st26{fill:#A5856D;}
	.st27{fill:#C2CACE;}
	.st28{fill:#BF3333;}
	.st29{fill:#DAE5EF;}
	.st30{fill:#373C3F;}
	.st31{fill:#8CC63E;}
	.st32{fill:#7FB239;}
	.st33{opacity:0.7;}
	.st34{fill:#32373A;}
	.st35{opacity:0.1;fill:#FFFFFF;}
	.st36{opacity:0.5;fill:#DAE5EF;}
	.st37{fill:#8D9BA3;}
	.st38{fill:#7A5B44;}
	.st39{opacity:0.2;fill:#FFFFFF;}
	.st40{fill:#45CBEA;}
	.st41{opacity:0.1;}
	.st42{fill:#7B8B92;}
	.st43{fill:#ACB9C1;}
	.st44{fill:#846144;}
	.st45{fill:#9A795F;}
	.st46{opacity:0.2;}
	.st47{fill:#719D34;}
	.st48{fill:#31373A;}
	.st49{fill:#FFDE55;}
	.st50{fill:#CF7519;}
	.st51{fill:none;stroke:#D03F3F;stroke-width:36;stroke-miterlimit:10;}
	.st52{fill:#F29A2E;}
	.st53{opacity:0.25;}
	.st54{fill:#E18823;}
	.st55{opacity:0.5;fill:#E18823;}
	.st56{opacity:0.2;fill:#5A5F63;}
	.st57{fill:#64892F;}
</style>
<g>
	<g>
		<g>
			<g>
				<g>
					<path class="st7" d="M18.381,8.976h-4.762c-0.966,0-1.754-0.787-1.754-1.754V2.145c0-0.765,0.493-1.439,1.226-1.677
						c1.93-0.624,3.885-0.625,5.817,0c0.733,0.238,1.226,0.912,1.226,1.677v5.077C20.135,8.189,19.348,8.976,18.381,8.976z
						 M16.001,1.412c-0.827,0-1.653,0.133-2.474,0.399c-0.15,0.048-0.25,0.183-0.25,0.335v5.077c0,0.189,0.154,0.343,0.342,0.343
						h4.762c0.189,0,0.342-0.154,0.342-0.343V2.145c0-0.152-0.1-0.286-0.25-0.335C17.653,1.545,16.826,1.412,16.001,1.412z"/>
				</g>
			</g>
			<g>
				<g>
					<g>
						<path class="st20" d="M28.788,21.157v4.192c0,1.774-1.441,3.215-3.215,3.215h-1.008v-8.152h3.477
							C28.455,20.411,28.788,20.744,28.788,21.157z"/>
					</g>
					<g>
						<path class="st20" d="M3.958,20.411h3.477v8.152H6.427c-1.774,0-3.215-1.441-3.215-3.215v-4.192
							C3.212,20.744,3.545,20.411,3.958,20.411z"/>
					</g>
				</g>
			</g>
			<g>
				<g>
					<g>
						<path class="st2" d="M26.611,14.547v15.468c0,1.098-0.887,1.985-1.975,1.985H7.374c-1.098,0-1.985-0.887-1.985-1.985V14.909
							c0-5.845,4.585-10.873,10.43-10.974C21.774,3.835,26.611,8.631,26.611,14.547z"/>
					</g>
					<g>
						<g>
							<path class="st20" d="M25.1,29.763v0.262c0,0.252-0.212,0.464-0.464,0.464H7.374c-0.262,0-0.474-0.212-0.474-0.474v-0.252
								c0-5.02,4.053-9.1,9.1-9.1C21.029,20.663,25.1,24.734,25.1,29.763z"/>
						</g>
					</g>
				</g>
			</g>
			<g>
				<g>
					<path class="st17" d="M27.619,14.879v0.806c0,0.625-0.423,1.189-1.038,1.34c-7.054,1.713-14.108,1.713-21.152,0
						c-0.615-0.151-1.048-0.715-1.048-1.34v-1.139c0-6.782,5.835-12.223,12.747-11.569C23.145,3.542,27.619,8.833,27.619,14.879z"/>
				</g>
			</g>
			<g>
				<g>
					<path class="st14" d="M22.607,10.173c-1.589-1.81-3.545-2.891-5.655-3.126c-2.82-0.317-5.525,0.794-7.61,3.128
						c-0.137,0.155-0.378,0.17-0.533,0.03c-0.155-0.139-0.169-0.378-0.03-0.534c2.22-2.486,5.237-3.714,8.257-3.375
						c2.3,0.256,4.422,1.424,6.139,3.378c0.137,0.157,0.122,0.396-0.035,0.533C22.982,10.346,22.744,10.329,22.607,10.173z"/>
				</g>
			</g>
			<g>
				<g>
					<path class="st7" d="M21.421,8.541c-0.504,0-0.907,1.522-0.907,2.015c0,0.504,0.403,0.907,0.907,0.907
						c0.494,0,0.897-0.403,0.897-0.907C22.318,10.062,21.915,8.541,21.421,8.541z M21.421,11.05c-0.252,0-0.443-0.201-0.443-0.443
						h0.877C21.855,10.848,21.663,11.05,21.421,11.05z"/>
				</g>
			</g>
		</g>
		<g class="st13">
			<g>
				<g>
					<path class="st30" d="M28.788,21.157v4.192c0,1.411-0.907,2.61-2.177,3.043v1.622c0,1.098-0.887,1.985-1.975,1.985H7.374
						c-0.998,0-1.824-0.736-1.965-1.703c0.746,0.121,1.522,0.191,2.308,0.191c8.727,0,16.264-8.223,16.839-18.37
						c0.111-2.046-0.061-4.011-0.494-5.855c2.207,2.207,3.557,5.301,3.557,8.616v0.806c0,0.615-0.413,1.169-1.008,1.33v3.396h1.431
						C28.455,20.411,28.788,20.744,28.788,21.157z"/>
				</g>
			</g>
		</g>
	</g>
	<g class="st13">
		<path class="st9" d="M19.285,0.65c-0.111-0.081-0.242-0.141-0.373-0.181c-1.935-0.625-3.89-0.625-5.825,0
			c-0.726,0.242-1.219,0.907-1.219,1.673v1.552C7.495,5.356,4.381,9.589,4.381,14.547v1.139c0,0.615,0.413,1.159,1.008,1.33v3.396
			H3.958c-0.413,0-0.746,0.333-0.746,0.746v4.192c0,0.584,0.161,1.129,0.423,1.592c6.389,0.232,12.949-6.49,15.186-15.972
			C19.678,7.341,19.799,3.794,19.285,0.65z M13.279,2.142c0-0.151,0.101-0.282,0.252-0.332C14.347,1.547,15.174,1.416,16,1.416
			c0.826,0,1.653,0.131,2.469,0.393c0.151,0.05,0.252,0.181,0.252,0.332V3.25c-0.524-0.131-1.048-0.222-1.592-0.272
			c-1.34-0.131-2.63-0.02-3.849,0.282V2.142z"/>
	</g>
	<g class="st41">
		<path class="st9" d="M13.595,11.695c-2.132,1.981-4.819,2.561-6,1.281c-1.189-1.273-0.415-3.91,1.717-5.89
			s4.818-2.553,5.999-1.281C16.501,7.078,15.727,9.714,13.595,11.695z"/>
	</g>
</g>
</svg>
