<?xml version="1.0" encoding="utf-8"?>
<!-- Generator: Adobe Illustrator 21.1.0, SVG Export Plug-In . SVG Version: 6.00 Build 0)  -->
<svg version="1.1" id="Layer_1" xmlns="http://www.w3.org/2000/svg" xmlns:xlink="http://www.w3.org/1999/xlink" x="0px" y="0px"
	 viewBox="0 0 32 32" style="enable-background:new 0 0 32 32;" xml:space="preserve">
<style type="text/css">
	.st0{fill:#E9EFF4;}
	.st1{fill:#BBC7D1;}
	.st2{fill:#E24B4B;}
	.st3{fill:#D23F77;}
	.st4{fill:#D3D9DD;}
	.st5{fill:#E84D88;}
	.st6{fill:#DEE4E9;}
	.st7{fill:#3E4347;}
	.st8{fill:#65B1EF;}
	.st9{fill:#FFFFFF;}
	.st10{fill:#59A5E0;}
	.st11{opacity:0.15;fill:#FFFFFF;}
	.st12{fill:#D03F3F;}
	.st13{opacity:0.15;}
	.st14{fill:#E9B02C;}
	.st15{fill:#F4C534;}
	.st16{opacity:0.5;}
	.st17{fill:#FFD93B;}
	.st18{fill:#353A3D;}
	.st19{fill:#777B7E;}
	.st20{fill:#5A5F63;}
	.st21{fill:#4E99D2;}
	.st22{fill:#CBD6E0;}
	.st23{fill:#6B503B;}
	.st24{fill:#89664C;}
	.st25{fill:#8F6D52;}
	.st26{fill:#A5856D;}
	.st27{fill:#C2CACE;}
	.st28{fill:#BF3333;}
	.st29{fill:#DAE5EF;}
	.st30{fill:#373C3F;}
	.st31{fill:#8CC63E;}
	.st32{fill:#7FB239;}
	.st33{opacity:0.7;}
	.st34{fill:#32373A;}
	.st35{opacity:0.1;fill:#FFFFFF;}
	.st36{opacity:0.5;fill:#DAE5EF;}
	.st37{fill:#8D9BA3;}
	.st38{fill:#7A5B44;}
	.st39{opacity:0.2;fill:#FFFFFF;}
	.st40{fill:#45CBEA;}
	.st41{opacity:0.1;}
	.st42{fill:#7B8B92;}
	.st43{fill:#ACB9C1;}
	.st44{fill:#846144;}
	.st45{fill:#9A795F;}
	.st46{opacity:0.2;}
	.st47{fill:#719D34;}
	.st48{fill:#31373A;}
	.st49{fill:#FFDE55;}
	.st50{fill:#CF7519;}
	.st51{fill:none;stroke:#D03F3F;stroke-width:36;stroke-miterlimit:10;}
	.st52{fill:#F29A2E;}
	.st53{opacity:0.25;}
	.st54{fill:#E18823;}
	.st55{opacity:0.5;fill:#E18823;}
	.st56{opacity:0.2;fill:#5A5F63;}
	.st57{fill:#64892F;}
</style>
<g>
	<path class="st1" d="M12.742,6.992V6.11c0-0.257-0.198-0.455-0.455-0.455H4.915c-0.257,0-0.455,0.198-0.455,0.455v0.882H12.742z"/>
	<path class="st0" d="M1.175,22.36h27.917v-6.263c0-5.219-4.27-9.489-9.489-9.489H3.021c-1.117,0-2.074,0.786-2.311,1.875
		c-0.947,4.299-0.947,8.608,0,12.908C0.79,21.755,0.955,22.081,1.175,22.36z"/>
	<path class="st12" d="M0.079,16.62c0.01,0.286,0.017,0.572,0.042,0.858h28.971V16.62H0.079z"/>
	<path class="st12" d="M1.175,22.36h27.917v-4.26H0.172c0.118,1.097,0.297,2.194,0.538,3.291C0.79,21.755,0.955,22.081,1.175,22.36z
		"/>
	<path class="st7" d="M21.363,9.524v12.993h-8.135V9.533c0-0.5,0.407-0.898,0.898-0.898h6.349
		C20.965,8.635,21.363,9.033,21.363,9.524z"/>
	<rect x="14.177" y="10.405" class="st8" width="6.241" height="3.416"/>
	<rect x="14.177" y="14.834" class="st30" width="6.241" height="6.461"/>
	<polygon class="st10" points="16.652,10.405 14.177,10.405 14.177,12.88 	"/>
	<polygon class="st10" points="14.177,13.449 17.22,10.405 16.908,10.405 14.177,13.137 	"/>
	<path class="st2" d="M31.497,22.228H0.72c-0.278,0-0.503,0.225-0.503,0.503v0.032c0,0.278,0.225,0.503,0.503,0.503h30.778
		c0.278,0,0.503-0.225,0.503-0.503V22.73C32,22.453,31.775,22.228,31.497,22.228z"/>
	<path class="st30" d="M3.123,23.265h7.921c-0.032-2.166-1.787-3.908-3.961-3.908C4.92,19.357,3.155,21.099,3.123,23.265z"/>
	<path class="st7" d="M10.104,23.324c0,1.671-1.35,3.021-3.021,3.021c-1.663,0-3.021-1.35-3.021-3.021
		c0-1.671,1.358-3.021,3.021-3.021C8.755,20.303,10.104,21.653,10.104,23.324z"/>
	<circle class="st20" cx="7.084" cy="23.324" r="1.751"/>
	<circle class="st0" cx="7.084" cy="23.324" r="0.934"/>
	<path class="st7" d="M10.559,10.632v4.205c0,0.256-0.208,0.455-0.464,0.455H3.229c-0.256,0-0.464-0.199-0.464-0.455v-4.205
		c0-0.256,0.208-0.464,0.464-0.464h6.866C10.351,10.168,10.559,10.377,10.559,10.632z"/>
	
		<rect x="5.045" y="9.782" transform="matrix(-1.836970e-16 1 -1 -1.836970e-16 19.3926 6.0707)" class="st8" width="3.233" height="5.898"/>
	<polygon class="st10" points="3.712,11.115 3.712,14.348 6.944,11.115 	"/>
	<polygon class="st10" points="7.229,11.115 3.997,14.348 4.342,14.348 7.575,11.115 	"/>
	<circle class="st7" cx="19.568" cy="15.7" r="0.352"/>
</g>
</svg>
