<?xml version="1.0" encoding="utf-8"?>
<!-- Generator: Adobe Illustrator 21.1.0, SVG Export Plug-In . SVG Version: 6.00 Build 0)  -->
<svg version="1.1" id="Layer_1" xmlns="http://www.w3.org/2000/svg" xmlns:xlink="http://www.w3.org/1999/xlink" x="0px" y="0px"
	 viewBox="0 0 32 32" style="enable-background:new 0 0 32 32;" xml:space="preserve">
<style type="text/css">
	.st0{fill:#E9EFF4;}
	.st1{fill:#BBC7D1;}
	.st2{fill:#E24B4B;}
	.st3{fill:#D23F77;}
	.st4{fill:#D3D9DD;}
	.st5{fill:#E84D88;}
	.st6{fill:#DEE4E9;}
	.st7{fill:#3E4347;}
	.st8{fill:#65B1EF;}
	.st9{fill:#FFFFFF;}
	.st10{fill:#59A5E0;}
	.st11{opacity:0.15;fill:#FFFFFF;}
	.st12{fill:#D03F3F;}
	.st13{opacity:0.15;}
	.st14{fill:#E9B02C;}
	.st15{fill:#F4C534;}
	.st16{opacity:0.5;}
	.st17{fill:#FFD93B;}
	.st18{fill:#353A3D;}
	.st19{fill:#777B7E;}
	.st20{fill:#5A5F63;}
	.st21{fill:#4E99D2;}
	.st22{fill:#CBD6E0;}
	.st23{fill:#6B503B;}
	.st24{fill:#89664C;}
	.st25{fill:#8F6D52;}
	.st26{fill:#A5856D;}
	.st27{fill:#C2CACE;}
	.st28{fill:#BF3333;}
	.st29{fill:#DAE5EF;}
	.st30{fill:#373C3F;}
	.st31{fill:#8CC63E;}
	.st32{fill:#7FB239;}
	.st33{opacity:0.7;}
	.st34{fill:#32373A;}
	.st35{opacity:0.1;fill:#FFFFFF;}
	.st36{opacity:0.5;fill:#DAE5EF;}
	.st37{fill:#8D9BA3;}
	.st38{fill:#7A5B44;}
	.st39{opacity:0.2;fill:#FFFFFF;}
	.st40{fill:#45CBEA;}
	.st41{opacity:0.1;}
	.st42{fill:#7B8B92;}
	.st43{fill:#ACB9C1;}
	.st44{fill:#846144;}
	.st45{fill:#9A795F;}
	.st46{opacity:0.2;}
	.st47{fill:#719D34;}
	.st48{fill:#31373A;}
	.st49{fill:#FFDE55;}
	.st50{fill:#CF7519;}
	.st51{fill:none;stroke:#D03F3F;stroke-width:36;stroke-miterlimit:10;}
	.st52{fill:#F29A2E;}
	.st53{opacity:0.25;}
	.st54{fill:#E18823;}
	.st55{opacity:0.5;fill:#E18823;}
	.st56{opacity:0.2;fill:#5A5F63;}
	.st57{fill:#64892F;}
</style>
<g>
	<g>
		<g>
			<g>
				<path class="st31" d="M22.411,6.63l-1.049-6.056C21.304,0.242,21.017,0,20.68,0H10.17C9.833,0,9.546,0.242,9.488,0.574
					L8.439,6.63C8.366,7.053,8.692,7.44,9.121,7.44h12.607C22.158,7.44,22.484,7.053,22.411,6.63z"/>
			</g>
		</g>
		<g>
			<g>
				<path class="st31" d="M8.439,25.37l1.049,6.056C9.546,31.758,9.833,32,10.17,32h10.51c0.337,0,0.625-0.242,0.682-0.574
					l1.049-6.056c0.073-0.423-0.253-0.81-0.682-0.81H9.121C8.692,24.56,8.366,24.947,8.439,25.37z"/>
			</g>
		</g>
	</g>
	<g>
		<g>
			<path class="st7" d="M28.206,14.37h-1.482v3.656h1.482c0.254,0,0.454-0.201,0.454-0.454v-2.747
				C28.66,14.571,28.459,14.37,28.206,14.37z"/>
		</g>
	</g>
	<g>
		<g>
			<circle class="st0" cx="15.425" cy="16.195" r="12.085"/>
		</g>
	</g>
	<g>
		<g>
			<path class="st7" d="M25.258,16.198c0,5.431-4.395,9.837-9.837,9.837c-5.431,0-9.837-4.406-9.837-9.837s4.406-9.837,9.837-9.837
				C20.862,6.361,25.258,10.767,25.258,16.198z"/>
		</g>
	</g>
	<g>
		<g>
			<path class="st30" d="M25.258,16.198c0,5.431-4.395,9.837-9.837,9.837c-3.011,0-5.706-1.352-7.502-3.487
				c1.077,0.359,2.219,0.549,3.413,0.549c6.075,0,10.989-4.924,10.989-10.989c0-1.194-0.19-2.346-0.549-3.423
				C23.905,10.481,25.258,13.186,25.258,16.198z"/>
		</g>
	</g>
	<g>
		<g>
			<path class="st9" d="M11.233,21.241c-0.109-0.097-0.119-0.264-0.022-0.373c0.097-0.109,0.264-0.117,0.372-0.021
				c0.715,0.637,2.765,2.099,3.66,1.249c1.201-1.139,0.377-2.934-0.421-4.669c-0.719-1.568-1.4-3.049-0.426-3.92
				c1.088-0.973,2.072,0.721,2.799,1.901c0.569,0.925,1.526,2.66,2.408,2.042c1.92-1.353,0.456-4.404-0.852-6.038
				c-0.09-0.115-0.071-0.281,0.043-0.371c0.115-0.09,0.28-0.071,0.371,0.043c1.306,1.663,3.113,5.127,0.743,6.798
				c-1.285,0.909-2.344-0.865-3.164-2.196c-0.466-0.756-1.343-2.369-1.997-1.785c-0.684,0.612-0.083,1.921,0.554,3.307
				c0.834,1.816,1.78,3.875,0.303,5.274C14.481,23.548,12.352,22.244,11.233,21.241z"/>
		</g>
	</g>
	<g>
		<g>
			<g>
				<path class="st2" d="M20.028,11.247c0,0.581-0.475,1.067-1.067,1.067c-0.581,0-1.067-0.486-1.067-1.067
					c0-0.592,0.486-1.067,1.067-1.067C19.553,10.18,20.028,10.655,20.028,11.247z"/>
			</g>
		</g>
		<g>
			<g>
				<circle class="st12" cx="18.961" cy="11.247" r="0.581"/>
			</g>
		</g>
	</g>
	<g>
		<g>
			<g>
				<path class="st2" d="M11.444,14.022c-1.338,0-2.428,1.083-2.428,2.428c0,1.338,2.428,4.593,2.428,4.593s2.428-3.255,2.428-4.593
					C13.873,15.104,12.79,14.022,11.444,14.022z M11.444,17.251c-0.442,0-0.801-0.359-0.801-0.801c0-0.442,0.359-0.801,0.801-0.801
					c0.442,0,0.801,0.359,0.801,0.801C12.245,16.892,11.886,17.251,11.444,17.251z"/>
			</g>
		</g>
		<g>
			<g>
				<path class="st9" d="M12.817,16.45c0-0.758-0.615-1.373-1.373-1.373c-0.758,0-1.373,0.616-1.373,1.373
					c0,0.758,0.615,1.373,1.373,1.373C12.202,17.823,12.817,17.208,12.817,16.45z M10.644,16.45c0-0.442,0.359-0.801,0.801-0.801
					c0.442,0,0.801,0.359,0.801,0.801c0,0.442-0.359,0.801-0.801,0.801C11.002,17.251,10.644,16.892,10.644,16.45z"/>
			</g>
		</g>
	</g>
</g>
</svg>
