<?xml version="1.0" encoding="utf-8"?>
<!-- Generator: Adobe Illustrator 21.1.0, SVG Export Plug-In . SVG Version: 6.00 Build 0)  -->
<svg version="1.1" id="Layer_1" xmlns="http://www.w3.org/2000/svg" xmlns:xlink="http://www.w3.org/1999/xlink" x="0px" y="0px"
	 viewBox="0 0 32 32" style="enable-background:new 0 0 32 32;" xml:space="preserve">
<style type="text/css">
	.st0{fill:#E9EFF4;}
	.st1{fill:#BBC7D1;}
	.st2{fill:#E24B4B;}
	.st3{fill:#D23F77;}
	.st4{fill:#D3D9DD;}
	.st5{fill:#E84D88;}
	.st6{fill:#DEE4E9;}
	.st7{fill:#3E4347;}
	.st8{fill:#65B1EF;}
	.st9{fill:#FFFFFF;}
	.st10{fill:#59A5E0;}
	.st11{opacity:0.15;fill:#FFFFFF;}
	.st12{fill:#D03F3F;}
	.st13{opacity:0.15;}
	.st14{fill:#E9B02C;}
	.st15{fill:#F4C534;}
	.st16{opacity:0.5;}
	.st17{fill:#FFD93B;}
	.st18{fill:#353A3D;}
	.st19{fill:#777B7E;}
	.st20{fill:#5A5F63;}
	.st21{fill:#4E99D2;}
	.st22{fill:#CBD6E0;}
	.st23{fill:#6B503B;}
	.st24{fill:#89664C;}
	.st25{fill:#8F6D52;}
	.st26{fill:#A5856D;}
	.st27{fill:#C2CACE;}
	.st28{fill:#BF3333;}
	.st29{fill:#DAE5EF;}
	.st30{fill:#373C3F;}
	.st31{fill:#8CC63E;}
	.st32{fill:#7FB239;}
	.st33{opacity:0.7;}
	.st34{fill:#32373A;}
	.st35{opacity:0.1;fill:#FFFFFF;}
	.st36{opacity:0.5;fill:#DAE5EF;}
	.st37{fill:#8D9BA3;}
	.st38{fill:#7A5B44;}
	.st39{opacity:0.2;fill:#FFFFFF;}
	.st40{fill:#45CBEA;}
	.st41{opacity:0.1;}
	.st42{fill:#7B8B92;}
	.st43{fill:#ACB9C1;}
	.st44{fill:#846144;}
	.st45{fill:#9A795F;}
	.st46{opacity:0.2;}
	.st47{fill:#719D34;}
	.st48{fill:#31373A;}
	.st49{fill:#FFDE55;}
	.st50{fill:#CF7519;}
	.st51{fill:none;stroke:#D03F3F;stroke-width:36;stroke-miterlimit:10;}
	.st52{fill:#F29A2E;}
	.st53{opacity:0.25;}
	.st54{fill:#E18823;}
	.st55{opacity:0.5;fill:#E18823;}
	.st56{opacity:0.2;fill:#5A5F63;}
	.st57{fill:#64892F;}
</style>
<g>
	<g>
		<g>
			<g>
				<path class="st43" d="M15.546,7.298v0.64c0,0.21-0.18,0.39-0.4,0.39h-8.18c-0.22,0-0.39-0.18-0.39-0.39v-0.64
					c0-0.22,0.17-0.39,0.39-0.39h8.18C15.366,6.907,15.546,7.077,15.546,7.298z"/>
			</g>
			<g>
				<g>
					<path class="st7" d="M4.737,8.622l-2.692,4.08C2.628,11.017,3.525,9.657,4.737,8.622z"/>
				</g>
				<g>
					<g>
						<path class="st29" d="M32,22.948c-0.227,0.171-0.503,0.27-0.807,0.327c-0.197,0.037-0.397,0.052-0.598,0.052H8.884
							l-8.303-0.808c0,0-0.664-0.261-0.572-1.901c0.093-1.64,0.236-2.793,0.479-3.247c0.244-0.454,0.976-0.724,0.976-1.295
							c0-0.469,0.226-2.438,0.308-3.131c0.016-0.138,0.134-0.243,0.273-0.243c0.825-1.462,1.719-2.827,2.692-4.08H4.209
							c0,0-0.088-0.28,0.946-0.513C6.19,7.876,12.912,7.44,15.807,7.764c3.829,0.429,9.539,5.956,10.599,6.208l0.797,0.2
							c1.312,0.33,2.491,1.071,3.333,2.13c0.303,0.382,0.578,0.816,0.77,1.295C31.306,17.598,32,19.465,32,22.948z"/>
					</g>
					<g>
						<polygon class="st43" points="7.666,21.905 7.666,23.208 8.884,23.326 27.103,23.326 27.103,21.905 						"/>
					</g>
					<g>
						<path class="st7" d="M22.89,13.761h1.764c-0.272-0.201-0.583-0.438-0.947-0.715c-0.259-0.197-0.532-0.405-0.817-0.62V13.761z"
							/>
						<path class="st7" d="M10.263,8.464c-0.036,0.001-0.072,0.003-0.107,0.004c-1.114,0.045-2.028,0.897-2.154,2.005l-0.293,2.584
							c-0.042,0.375,0.251,0.703,0.628,0.703h1.926V8.464z"/>
						<path class="st7" d="M22.183,11.899v1.862H11.525l-0.487-5.323c0.66-0.02,1.329-0.032,1.976-0.032
							c1.14,0,2.051,0.037,2.709,0.111c1.02,0.114,2.359,0.681,3.982,1.686C20.558,10.731,21.401,11.323,22.183,11.899z"/>
					</g>
				</g>
				<g>
					<path class="st2" d="M1.914,16.179c0.096-0.025,0.196-0.055,0.3-0.091c0.515-0.175,0.854-0.667,0.834-1.21l-0.042-1.156
						c-0.016-0.43-0.366-0.771-0.796-0.774h0c-0.249-0.002-0.46,0.185-0.489,0.432c-0.138,1.205-0.211,1.989-0.247,2.428
						C1.454,16.05,1.678,16.24,1.914,16.179z"/>
				</g>
				<g>
					<path class="st30" d="M5.553,18.315c-2.127,0-3.851,1.724-3.851,3.851c0,0.157,0.01,0.313,0.028,0.465l7.153,0.696h0.342
						c0.116-0.366,0.178-0.756,0.178-1.161C9.404,20.039,7.68,18.315,5.553,18.315z"/>
					<g>
						<circle class="st7" cx="5.553" cy="22.166" r="2.927"/>
					</g>
					<g>
						<circle class="st0" cx="5.553" cy="22.166" r="1.582"/>
					</g>
					<g>
						<circle class="st7" cx="5.553" cy="22.166" r="0.738"/>
					</g>
				</g>
				<g>
					<path class="st30" d="M30.698,22.166c0-2.127-1.724-3.851-3.851-3.851s-3.851,1.724-3.851,3.851
						c0,0.405,0.063,0.795,0.178,1.161h7.345C30.635,22.96,30.698,22.57,30.698,22.166z"/>
				</g>
				<g>
					<path class="st20" d="M16.229,8.604c-0.177-0.041-0.346-0.07-0.507-0.088c-0.658-0.073-1.569-0.111-2.709-0.111
						c-0.648,0-1.316,0.012-1.976,0.032l0.452,4.932C12.989,11.868,14.727,10.118,16.229,8.604z"/>
				</g>
				<path class="st20" d="M11.758,13.761h0.849l4.778-4.778c-0.215-0.088-0.421-0.165-0.62-0.229L11.758,13.761z"/>
			</g>
		</g>
		<g>
			<circle class="st7" cx="26.847" cy="22.166" r="2.927"/>
		</g>
		<g>
			<circle class="st0" cx="26.847" cy="22.166" r="1.582"/>
		</g>
		<g>
			<circle class="st7" cx="26.847" cy="22.166" r="0.738"/>
		</g>
	</g>
	<g>
		<path class="st14" d="M28.249,14.543c0.007,1.613,1.044,3.036,2.579,3.534l0.679,0.222c-0.112-0.456-0.201-0.702-0.201-0.702
			c-0.192-0.479-0.467-0.914-0.77-1.295C29.925,15.535,29.135,14.942,28.249,14.543z"/>
	</g>
</g>
</svg>
