<?xml version="1.0" encoding="utf-8"?>
<!-- Generator: Adobe Illustrator 21.1.0, SVG Export Plug-In . SVG Version: 6.00 Build 0)  -->
<svg version="1.1" id="Layer_1" xmlns="http://www.w3.org/2000/svg" xmlns:xlink="http://www.w3.org/1999/xlink" x="0px" y="0px"
	 viewBox="0 0 32 32" style="enable-background:new 0 0 32 32;" xml:space="preserve">
<style type="text/css">
	.st0{fill:#E9EFF4;}
	.st1{fill:#BBC7D1;}
	.st2{fill:#E24B4B;}
	.st3{fill:#D23F77;}
	.st4{fill:#D3D9DD;}
	.st5{fill:#E84D88;}
	.st6{fill:#DEE4E9;}
	.st7{fill:#3E4347;}
	.st8{fill:#65B1EF;}
	.st9{fill:#FFFFFF;}
	.st10{fill:#59A5E0;}
	.st11{opacity:0.15;fill:#FFFFFF;}
	.st12{fill:#D03F3F;}
	.st13{opacity:0.15;}
	.st14{fill:#E9B02C;}
	.st15{fill:#F4C534;}
	.st16{opacity:0.5;}
	.st17{fill:#FFD93B;}
	.st18{fill:#353A3D;}
	.st19{fill:#777B7E;}
	.st20{fill:#5A5F63;}
	.st21{fill:#4E99D2;}
	.st22{fill:#CBD6E0;}
	.st23{fill:#6B503B;}
	.st24{fill:#89664C;}
	.st25{fill:#8F6D52;}
	.st26{fill:#A5856D;}
	.st27{fill:#C2CACE;}
	.st28{fill:#BF3333;}
	.st29{fill:#DAE5EF;}
	.st30{fill:#373C3F;}
	.st31{fill:#8CC63E;}
	.st32{fill:#7FB239;}
	.st33{opacity:0.7;}
	.st34{fill:#32373A;}
	.st35{opacity:0.1;fill:#FFFFFF;}
	.st36{opacity:0.5;fill:#DAE5EF;}
	.st37{fill:#8D9BA3;}
	.st38{fill:#7A5B44;}
	.st39{opacity:0.2;fill:#FFFFFF;}
	.st40{fill:#45CBEA;}
	.st41{opacity:0.1;}
	.st42{fill:#7B8B92;}
	.st43{fill:#ACB9C1;}
	.st44{fill:#846144;}
	.st45{fill:#9A795F;}
	.st46{opacity:0.2;}
	.st47{fill:#719D34;}
	.st48{fill:#31373A;}
	.st49{fill:#FFDE55;}
	.st50{fill:#CF7519;}
	.st51{fill:none;stroke:#D03F3F;stroke-width:36;stroke-miterlimit:10;}
	.st52{fill:#F29A2E;}
	.st53{opacity:0.25;}
	.st54{fill:#E18823;}
	.st55{opacity:0.5;fill:#E18823;}
	.st56{opacity:0.2;fill:#5A5F63;}
	.st57{fill:#64892F;}
</style>
<g>
	<g>
		<path class="st24" d="M5.945,29.897c3.409-7.384,13.28-22.483,16.304-27.054c0.262-0.395,0.145-0.914-0.249-1.177l-2.276-1.52
			c-0.396-0.264-0.931-0.158-1.195,0.238L0.7,27.078c-1.036,1.551-0.763,3.55,0.608,4.466C2.848,32.573,5.07,31.792,5.945,29.897z"
			/>
	</g>
	<g>
		<path class="st38" d="M5.081,26.542c-2.985,3.766-4.598,1.362-2.832-1.782L0.7,27.078c-1.036,1.551-0.763,3.55,0.608,4.466
			c1.54,1.028,3.762,0.248,4.637-1.647C9.137,22.983,17.992,9.309,21.589,3.842l-0.478,0.338C21.112,4.181,9.006,21.59,5.081,26.542
			z"/>
	</g>
	<g>
		<g>
			<path class="st1" d="M31.928,4.672l-7.049-1.122c-2.47-0.388-4.825-1.232-6.986-2.456c-0.509-0.288-1.146-0.156-1.471,0.331
				l-2.45,3.668c-0.298,0.446-0.22,1.027,0.164,1.401c2.288,2.228,4.052,4.953,5.119,7.993l2.123,5.982
				C27.934,16.322,31.981,10.901,31.928,4.672z"/>
		</g>
	</g>
	<g>
		<g>
			<path class="st29" d="M21.377,20.471l-0.554-1.574c5.763-3.899,9.365-8.841,9.612-14.468l1.492,0.244
				C31.979,10.902,27.933,16.324,21.377,20.471z"/>
		</g>
	</g>
</g>
</svg>
