<?xml version="1.0" encoding="utf-8"?>
<!-- Generator: Adobe Illustrator 21.1.0, SVG Export Plug-In . SVG Version: 6.00 Build 0)  -->
<svg version="1.1" id="Layer_1" xmlns="http://www.w3.org/2000/svg" xmlns:xlink="http://www.w3.org/1999/xlink" x="0px" y="0px"
	 viewBox="0 0 32 32" style="enable-background:new 0 0 32 32;" xml:space="preserve">
<style type="text/css">
	.st0{fill:#E9EFF4;}
	.st1{fill:#BBC7D1;}
	.st2{fill:#E24B4B;}
	.st3{fill:#D23F77;}
	.st4{fill:#D3D9DD;}
	.st5{fill:#E84D88;}
	.st6{fill:#DEE4E9;}
	.st7{fill:#3E4347;}
	.st8{fill:#65B1EF;}
	.st9{fill:#FFFFFF;}
	.st10{fill:#59A5E0;}
	.st11{opacity:0.15;fill:#FFFFFF;}
	.st12{fill:#D03F3F;}
	.st13{opacity:0.15;}
	.st14{fill:#E9B02C;}
	.st15{fill:#F4C534;}
	.st16{opacity:0.5;}
	.st17{fill:#FFD93B;}
	.st18{fill:#353A3D;}
	.st19{fill:#777B7E;}
	.st20{fill:#5A5F63;}
	.st21{fill:#4E99D2;}
	.st22{fill:#CBD6E0;}
	.st23{fill:#6B503B;}
	.st24{fill:#89664C;}
	.st25{fill:#8F6D52;}
	.st26{fill:#A5856D;}
	.st27{fill:#C2CACE;}
	.st28{fill:#BF3333;}
	.st29{fill:#DAE5EF;}
	.st30{fill:#373C3F;}
	.st31{fill:#8CC63E;}
	.st32{fill:#7FB239;}
	.st33{opacity:0.7;}
	.st34{fill:#32373A;}
	.st35{opacity:0.1;fill:#FFFFFF;}
	.st36{opacity:0.5;fill:#DAE5EF;}
	.st37{fill:#8D9BA3;}
	.st38{fill:#7A5B44;}
	.st39{opacity:0.2;fill:#FFFFFF;}
	.st40{fill:#45CBEA;}
	.st41{opacity:0.1;}
	.st42{fill:#7B8B92;}
	.st43{fill:#ACB9C1;}
	.st44{fill:#846144;}
	.st45{fill:#9A795F;}
	.st46{opacity:0.2;}
	.st47{fill:#719D34;}
	.st48{fill:#31373A;}
	.st49{fill:#FFDE55;}
	.st50{fill:#CF7519;}
	.st51{fill:none;stroke:#D03F3F;stroke-width:36;stroke-miterlimit:10;}
	.st52{fill:#F29A2E;}
	.st53{opacity:0.25;}
	.st54{fill:#E18823;}
	.st55{opacity:0.5;fill:#E18823;}
	.st56{opacity:0.2;fill:#5A5F63;}
	.st57{fill:#64892F;}
</style>
<g>
	<g>
		<path class="st7" d="M25.77,2.05v27.9c0,1.13-0.92,2.05-2.06,2.05H8.29c-1.14,0-2.06-0.92-2.06-2.05V2.05C6.23,0.92,7.15,0,8.29,0
			h15.42C24.85,0,25.77,0.92,25.77,2.05z"/>
		<rect x="6.23" y="3.558" class="st17" width="19.54" height="22.542"/>
		<path class="st9" d="M19.374,3.558h-1.003l-0.453,5.566l-4.79-5.566h-1.319l5.661,6.579l-8.839,1.008L6.23,7.279v1.895
			l1.302,2.097L6.23,11.419v1.006l1.885-0.215l5.138,8.274L6.23,23.181v1.072l7.561-2.904l2.95,4.75h1.177l-3.177-5.115l2.918-1.121
			l8.11,0.626v-1.003l-7.646-0.59l0.644-7.901l7.002-0.799V9.191L18.851,9.98L19.374,3.558z M17.113,19.002l-2.909,1.117
			l-4.989-8.034l8.542-0.974L17.113,19.002z"/>
		<polygon class="st17" points="14.204,20.119 17.113,19.002 17.756,11.111 9.215,12.085 		"/>
		<polygon class="st31" points="6.23,9.174 6.23,11.419 7.532,11.271 		"/>
		<polygon class="st31" points="13.129,3.558 17.918,9.125 18.371,3.558 		"/>
		<polygon class="st17" points="6.23,3.558 6.23,7.279 8.631,11.146 17.471,10.137 11.809,3.558 		"/>
		<polygon class="st31" points="8.115,12.21 6.23,12.426 6.23,23.181 13.253,20.484 		"/>
		<polygon class="st31" points="6.23,24.253 6.23,26.1 16.741,26.1 13.791,21.35 		"/>
		<polygon class="st31" points="18.124,18.896 25.77,19.487 25.77,10.197 18.768,10.995 		"/>
		<polygon class="st31" points="19.374,3.558 18.851,9.98 25.77,9.191 25.77,3.558 		"/>
		<polygon class="st17" points="14.741,20.985 17.918,26.1 25.77,26.1 25.77,20.49 17.66,19.864 		"/>
		<ellipse class="st20" cx="16" cy="29.048" rx="1.43" ry="1.425"/>
		<path class="st2" d="M21.164,14.842c-0.893,0-1.614,0.721-1.614,1.611c0,1.135,1.614,3.159,1.614,3.159s1.611-2.024,1.611-3.159
			C22.775,15.563,22.054,14.842,21.164,14.842z M21.164,17.251c-0.445,0-0.798-0.353-0.798-0.798c0-0.442,0.353-0.795,0.798-0.795
			c0.442,0,0.795,0.353,0.795,0.795C21.959,16.897,21.606,17.251,21.164,17.251z"/>
		<path class="st2" d="M14.867,6.34c-0.893,0-1.614,0.721-1.614,1.611c0,1.135,1.614,3.159,1.614,3.159s1.611-2.024,1.611-3.159
			C16.479,7.061,15.757,6.34,14.867,6.34z M14.867,8.749c-0.445,0-0.798-0.353-0.798-0.798c0-0.442,0.353-0.795,0.798-0.795
			c0.442,0,0.795,0.353,0.795,0.795C15.662,8.396,15.309,8.749,14.867,8.749z"/>
		<path class="st2" d="M9.146,17.934c-0.893,0-1.614,0.721-1.614,1.611c0,1.135,1.614,3.159,1.614,3.159s1.611-2.024,1.611-3.159
			C10.757,18.655,10.036,17.934,9.146,17.934z M9.146,20.343c-0.445,0-0.798-0.353-0.798-0.798c0-0.442,0.353-0.795,0.798-0.795
			c0.442,0,0.795,0.353,0.795,0.795C9.941,19.989,9.588,20.343,9.146,20.343z"/>
	</g>
	<g>
		<path class="st20" d="M17.98,1.736c0,0.24-0.19,0.44-0.43,0.44h-3.1c-0.24,0-0.43-0.2-0.43-0.44s0.19-0.43,0.43-0.43h3.1
			C17.79,1.306,17.98,1.496,17.98,1.736z"/>
	</g>
</g>
</svg>
