<?xml version="1.0" encoding="utf-8"?>
<!-- Generator: Adobe Illustrator 21.1.0, SVG Export Plug-In . SVG Version: 6.00 Build 0)  -->
<svg version="1.1" id="Layer_1" xmlns="http://www.w3.org/2000/svg" xmlns:xlink="http://www.w3.org/1999/xlink" x="0px" y="0px"
	 viewBox="0 0 32 32" style="enable-background:new 0 0 32 32;" xml:space="preserve">
<style type="text/css">
	.st0{fill:#E9EFF4;}
	.st1{fill:#BBC7D1;}
	.st2{fill:#E24B4B;}
	.st3{fill:#D23F77;}
	.st4{fill:#D3D9DD;}
	.st5{fill:#E84D88;}
	.st6{fill:#DEE4E9;}
	.st7{fill:#3E4347;}
	.st8{fill:#65B1EF;}
	.st9{fill:#FFFFFF;}
	.st10{fill:#59A5E0;}
	.st11{opacity:0.15;fill:#FFFFFF;}
	.st12{fill:#D03F3F;}
	.st13{opacity:0.15;}
	.st14{fill:#E9B02C;}
	.st15{fill:#F4C534;}
	.st16{opacity:0.5;}
	.st17{fill:#FFD93B;}
	.st18{fill:#353A3D;}
	.st19{fill:#777B7E;}
	.st20{fill:#5A5F63;}
	.st21{fill:#4E99D2;}
	.st22{fill:#CBD6E0;}
	.st23{fill:#6B503B;}
	.st24{fill:#89664C;}
	.st25{fill:#8F6D52;}
	.st26{fill:#A5856D;}
	.st27{fill:#C2CACE;}
	.st28{fill:#BF3333;}
	.st29{fill:#DAE5EF;}
	.st30{fill:#373C3F;}
	.st31{fill:#8CC63E;}
	.st32{fill:#7FB239;}
	.st33{opacity:0.7;}
	.st34{fill:#32373A;}
	.st35{opacity:0.1;fill:#FFFFFF;}
	.st36{opacity:0.5;fill:#DAE5EF;}
	.st37{fill:#8D9BA3;}
	.st38{fill:#7A5B44;}
	.st39{opacity:0.2;fill:#FFFFFF;}
	.st40{fill:#45CBEA;}
	.st41{opacity:0.1;}
	.st42{fill:#7B8B92;}
	.st43{fill:#ACB9C1;}
	.st44{fill:#846144;}
	.st45{fill:#9A795F;}
	.st46{opacity:0.2;}
	.st47{fill:#719D34;}
	.st48{fill:#31373A;}
	.st49{fill:#FFDE55;}
	.st50{fill:#CF7519;}
	.st51{fill:none;stroke:#D03F3F;stroke-width:36;stroke-miterlimit:10;}
	.st52{fill:#F29A2E;}
	.st53{opacity:0.25;}
	.st54{fill:#E18823;}
	.st55{opacity:0.5;fill:#E18823;}
	.st56{opacity:0.2;fill:#5A5F63;}
	.st57{fill:#64892F;}
</style>
<g>
	<path class="st31" d="M16.044,4.703c0.419,1.425,0.688,2.958,0.383,4.895c-1.54-0.375-3.397-0.638-5.778-3.057
		c0.148-0.013,0.284-0.035,0.432-0.047c-0.41-0.405-0.819-0.809-1.218-1.223c0.127,0,0.263-0.022,0.392-0.024
		c-0.352-0.545-0.68-1.09-0.924-1.693c0.141,0.012,0.28,0.025,0.43,0.05C9.641,2.988,9.583,2.332,9.592,1.627
		C9.687,1.539,9.829,1.571,9.861,1.7c0.094-0.548,0.228-1.104,0.401-1.706c0.339,0.7,0.849,1.28,1.461,1.788
		c-0.037-0.123-0.057-0.257-0.075-0.392c0.384,0.368,0.828,0.711,1.297,1.019c-0.047-0.169-0.096-0.32-0.136-0.494
		c0.448,0.536,0.948,1.034,1.477,1.513c0.032-0.158,0.064-0.317,0.097-0.476c0.5,0.742,1.027,1.447,1.469,2.209
		C15.913,5.005,15.983,4.86,16.044,4.703z"/>
	<path class="st32" d="M16.586,9.547l-0.32,0.1c-0.29-0.941-1.342-2.6-2.78-3.82c-1-0.867-2.289-2.013-2.88-3.7
		c0.632,1.657,1.99,2.761,2.99,3.57C15.115,6.899,16.226,8.52,16.586,9.547z"/>
	<path class="st24" d="M22.771,3.045c-0.514-0.176,0.071-1.891-1.308-1.544c-1.28,0.322-6.074,4.965-5.927,10.481h0.666
		c0.328-1.774,1.652-5.37,6.995-8.06C23.197,3.921,23.675,3.354,22.771,3.045z"/>
	<path class="st38" d="M23.197,3.921c0,0,0.388-0.474-0.239-0.792c-0.303-0.08-0.659-0.074-1.033,0.152
		c-0.907,0.546-5.852,4.882-5.679,8.488C16.638,9.933,18.054,6.51,23.197,3.921z"/>
	<path class="st2" d="M30.327,21.173c-0.896,7.538-6.805,12.557-12.071,10.272c-1.445-0.64-3.045-0.64-4.49-0.011
		C8.554,33.75,2.563,28.771,1.673,21.173C0.901,14.675,4.211,8.97,9.077,8.441c2.56-0.276,5.031,0.927,6.929,3.089
		c1.887-2.163,4.358-3.365,6.918-3.089C27.778,8.97,31.099,14.675,30.327,21.173z"/>
	<path class="st39" d="M9.08,14.709c-1.529,1.022-3.224,1.148-3.794,0.309c-0.561-0.85,0.231-2.369,1.761-3.38
		c1.529-1.022,3.223-1.159,3.784-0.309C11.401,12.18,10.61,13.698,9.08,14.709z"/>
	<path class="st12" d="M30.327,21.173c-0.896,7.538-6.805,12.557-12.071,10.272c-1.445-0.64-3.045-0.64-4.49-0.011
		c-2.413,1.072-5.112,0.558-7.282-1.103c0.342,0.011,0.684,0.022,1.037,0.022c11.254,0,19.584-6.631,20.709-14.432
		c0.243-1.688,0.055-3.299-0.519-4.799C29.731,13.494,30.801,17.19,30.327,21.173z"/>
</g>
</svg>
