<?xml version="1.0" encoding="utf-8"?>
<!-- Generator: Adobe Illustrator 21.1.0, SVG Export Plug-In . SVG Version: 6.00 Build 0)  -->
<svg version="1.1" id="Layer_1" xmlns="http://www.w3.org/2000/svg" xmlns:xlink="http://www.w3.org/1999/xlink" x="0px" y="0px"
	 viewBox="0 0 32 32" style="enable-background:new 0 0 32 32;" xml:space="preserve">
<style type="text/css">
	.st0{fill:#E9EFF4;}
	.st1{fill:#BBC7D1;}
	.st2{fill:#E24B4B;}
	.st3{fill:#D23F77;}
	.st4{fill:#D3D9DD;}
	.st5{fill:#E84D88;}
	.st6{fill:#DEE4E9;}
	.st7{fill:#3E4347;}
	.st8{fill:#65B1EF;}
	.st9{fill:#FFFFFF;}
	.st10{fill:#59A5E0;}
	.st11{opacity:0.15;fill:#FFFFFF;}
	.st12{fill:#D03F3F;}
	.st13{opacity:0.15;}
	.st14{fill:#E9B02C;}
	.st15{fill:#F4C534;}
	.st16{opacity:0.5;}
	.st17{fill:#FFD93B;}
	.st18{fill:#353A3D;}
	.st19{fill:#777B7E;}
	.st20{fill:#5A5F63;}
	.st21{fill:#4E99D2;}
	.st22{fill:#CBD6E0;}
	.st23{fill:#6B503B;}
	.st24{fill:#89664C;}
	.st25{fill:#8F6D52;}
	.st26{fill:#A5856D;}
	.st27{fill:#C2CACE;}
	.st28{fill:#BF3333;}
	.st29{fill:#DAE5EF;}
	.st30{fill:#373C3F;}
	.st31{fill:#8CC63E;}
	.st32{fill:#7FB239;}
	.st33{opacity:0.7;}
	.st34{fill:#32373A;}
	.st35{opacity:0.1;fill:#FFFFFF;}
	.st36{opacity:0.5;fill:#DAE5EF;}
	.st37{fill:#8D9BA3;}
	.st38{fill:#7A5B44;}
	.st39{opacity:0.2;fill:#FFFFFF;}
	.st40{fill:#45CBEA;}
	.st41{opacity:0.1;}
	.st42{fill:#7B8B92;}
	.st43{fill:#ACB9C1;}
	.st44{fill:#846144;}
	.st45{fill:#9A795F;}
	.st46{opacity:0.2;}
	.st47{fill:#719D34;}
	.st48{fill:#31373A;}
	.st49{fill:#FFDE55;}
	.st50{fill:#CF7519;}
	.st51{fill:none;stroke:#D03F3F;stroke-width:36;stroke-miterlimit:10;}
	.st52{fill:#F29A2E;}
	.st53{opacity:0.25;}
	.st54{fill:#E18823;}
	.st55{opacity:0.5;fill:#E18823;}
	.st56{opacity:0.2;fill:#5A5F63;}
	.st57{fill:#64892F;}
</style>
<g>
	<g>
		<g>
			<path class="st0" d="M11.787,2.573c0,1.799,0,3.597,0,5.396C9.989,7.848,8.19,8.091,6.392,9.062c0-1.799,0-3.597,0-5.396
				C8.19,2.694,9.989,2.452,11.787,2.573z"/>
		</g>
		<g>
			<path class="st7" d="M17.183,3.666c0,1.799,0,3.597,0,5.396c-1.799-0.486-3.597-0.971-5.396-1.093c0-1.799,0-3.597,0-5.396
				C13.586,2.694,15.385,3.18,17.183,3.666z"/>
		</g>
		<g>
			<path class="st0" d="M22.58,4.758c0,1.799,0,3.597,0,5.396c-1.799-0.121-3.597-0.607-5.396-1.093c0-1.799,0-3.597,0-5.396
				C18.982,4.151,20.78,4.637,22.58,4.758z"/>
		</g>
		<g>
			<path class="st7" d="M27.975,3.666c0,1.799,0,3.597,0,5.396c-1.799,0.971-3.597,1.214-5.396,1.093c0-1.799,0-3.597,0-5.396
				C24.379,4.88,26.176,4.637,27.975,3.666z"/>
		</g>
		<g>
			<path class="st7" d="M11.787,7.969c0,1.799,0,3.597,0,5.396c-1.798-0.121-3.597,0.121-5.396,1.093c0-1.799,0-3.597,0-5.396
				C8.19,8.091,9.989,7.848,11.787,7.969z"/>
		</g>
		<g>
			<path class="st0" d="M17.183,9.062c0,1.799,0,3.597,0,5.396c-1.799-0.486-3.597-0.971-5.396-1.093c0-1.799,0-3.597,0-5.396
				C13.586,8.09,15.385,8.576,17.183,9.062z"/>
		</g>
		<g>
			<path class="st7" d="M22.58,10.154c0,1.799,0,3.597,0,5.396c-1.799-0.121-3.597-0.607-5.396-1.093c0-1.799,0-3.597,0-5.396
				C18.982,9.547,20.78,10.033,22.58,10.154z"/>
		</g>
		<g>
			<path class="st0" d="M27.975,9.062c0,1.799,0,3.597,0,5.396c-1.799,0.971-3.597,1.214-5.396,1.093c0-1.799,0-3.597,0-5.396
				C24.379,10.276,26.176,10.033,27.975,9.062z"/>
		</g>
		<g>
			<path class="st0" d="M11.787,13.365c0,1.799,0,3.597,0,5.396c-1.798-0.121-3.597,0.121-5.396,1.093c0-1.799,0-3.597,0-5.396
				C8.19,13.486,9.989,13.244,11.787,13.365z"/>
		</g>
		<g>
			<path class="st7" d="M17.183,14.458c0,1.799,0,3.597,0,5.396c-1.799-0.485-3.597-0.971-5.396-1.093c0-1.799,0-3.597,0-5.396
				C13.586,13.486,15.385,13.972,17.183,14.458z"/>
		</g>
		<g>
			<path class="st0" d="M22.58,15.55c0,1.799,0,3.597,0,5.396c-1.799-0.121-3.597-0.607-5.396-1.093c0-1.799,0-3.597,0-5.396
				C18.982,14.943,20.78,15.429,22.58,15.55z"/>
		</g>
		<g>
			<path class="st7" d="M27.975,14.458c0,1.799,0,3.597,0,5.396c-1.799,0.971-3.597,1.214-5.396,1.093c0-1.799,0-3.597,0-5.396
				C24.379,15.672,26.176,15.429,27.975,14.458z"/>
		</g>
	</g>
	<g>
		<path class="st1" d="M6.142,32H5.228c-0.664,0-1.203-0.539-1.203-1.203V1.203C4.025,0.539,4.563,0,5.228,0l0.915,0
			c0.664,0,1.203,0.539,1.203,1.203v29.594C7.346,31.461,6.807,32,6.142,32z"/>
	</g>
</g>
</svg>
