<?xml version="1.0" encoding="utf-8"?>
<!-- Generator: Adobe Illustrator 21.1.0, SVG Export Plug-In . SVG Version: 6.00 Build 0)  -->
<svg version="1.1" id="Layer_1" xmlns="http://www.w3.org/2000/svg" xmlns:xlink="http://www.w3.org/1999/xlink" x="0px" y="0px"
	 viewBox="0 0 32 32" style="enable-background:new 0 0 32 32;" xml:space="preserve">
<style type="text/css">
	.st0{fill:#E9EFF4;}
	.st1{fill:#BBC7D1;}
	.st2{fill:#E24B4B;}
	.st3{fill:#D23F77;}
	.st4{fill:#D3D9DD;}
	.st5{fill:#E84D88;}
	.st6{fill:#DEE4E9;}
	.st7{fill:#3E4347;}
	.st8{fill:#65B1EF;}
	.st9{fill:#FFFFFF;}
	.st10{fill:#59A5E0;}
	.st11{opacity:0.15;fill:#FFFFFF;}
	.st12{fill:#D03F3F;}
	.st13{opacity:0.15;}
	.st14{fill:#E9B02C;}
	.st15{fill:#F4C534;}
	.st16{opacity:0.5;}
	.st17{fill:#FFD93B;}
	.st18{fill:#353A3D;}
	.st19{fill:#777B7E;}
	.st20{fill:#5A5F63;}
	.st21{fill:#4E99D2;}
	.st22{fill:#CBD6E0;}
	.st23{fill:#6B503B;}
	.st24{fill:#89664C;}
	.st25{fill:#8F6D52;}
	.st26{fill:#A5856D;}
	.st27{fill:#C2CACE;}
	.st28{fill:#BF3333;}
	.st29{fill:#DAE5EF;}
	.st30{fill:#373C3F;}
	.st31{fill:#8CC63E;}
	.st32{fill:#7FB239;}
	.st33{opacity:0.7;}
	.st34{fill:#32373A;}
	.st35{opacity:0.1;fill:#FFFFFF;}
	.st36{opacity:0.5;fill:#DAE5EF;}
	.st37{fill:#8D9BA3;}
	.st38{fill:#7A5B44;}
	.st39{opacity:0.2;fill:#FFFFFF;}
	.st40{fill:#45CBEA;}
	.st41{opacity:0.1;}
	.st42{fill:#7B8B92;}
	.st43{fill:#ACB9C1;}
	.st44{fill:#846144;}
	.st45{fill:#9A795F;}
	.st46{opacity:0.2;}
	.st47{fill:#719D34;}
	.st48{fill:#31373A;}
	.st49{fill:#FFDE55;}
	.st50{fill:#CF7519;}
	.st51{fill:none;stroke:#D03F3F;stroke-width:36;stroke-miterlimit:10;}
	.st52{fill:#F29A2E;}
	.st53{opacity:0.25;}
	.st54{fill:#E18823;}
	.st55{opacity:0.5;fill:#E18823;}
	.st56{opacity:0.2;fill:#5A5F63;}
	.st57{fill:#64892F;}
</style>
<g>
	<g>
		<g>
			<g>
				<path class="st1" d="M32,16c0,0.701-0.556,1.257-1.257,1.257H1.268C0.567,17.257,0,16.701,0,16c0-0.701,0.567-1.268,1.268-1.268
					h29.474C31.444,14.732,32,15.299,32,16z"/>
			</g>
		</g>
	</g>
	<g>
		<path class="st7" d="M27.026,11.249v9.502c0,1.235-1.002,2.248-2.248,2.248c-1.246,0-2.248-1.013-2.248-2.248v-9.502
			c0-1.246,1.001-2.248,2.248-2.248C25.949,9.001,27.026,9.929,27.026,11.249z"/>
		<path class="st30" d="M30.231,12.773v6.442c0,0.89-0.723,1.602-1.602,1.602c-0.89,0-1.602-0.712-1.602-1.602v-6.442
			c0-0.879,0.712-1.602,1.602-1.602C29.508,11.171,30.231,11.894,30.231,12.773z"/>
		<path class="st34" d="M28.629,20.818c0.879,0,1.602-0.712,1.602-1.602v-6.442c-0.358,8.044-3.204,6.442-3.204,6.442
			C27.026,20.106,27.738,20.818,28.629,20.818z"/>
		<path class="st34" d="M24.779,22.999c1.246,0,2.248-1.013,2.248-2.248V12.16c-0.042,2.755-0.501,10.72-4.495,8.591
			C22.531,21.986,23.533,22.999,24.779,22.999z"/>
	</g>
	<g>
		<path class="st7" d="M5.341,11.249v9.502c0,1.235,1.002,2.248,2.248,2.248c1.246,0,2.248-1.013,2.248-2.248v-9.502
			c0-1.246-1.001-2.248-2.248-2.248C6.418,9.001,5.341,9.929,5.341,11.249z"/>
		<path class="st30" d="M2.136,12.773v6.442c0,0.89,0.723,1.602,1.602,1.602c0.89,0,1.602-0.712,1.602-1.602v-6.442
			c0-0.879-0.712-1.602-1.602-1.602C2.859,11.171,2.136,11.894,2.136,12.773z"/>
		<path class="st34" d="M3.739,20.818c-0.879,0-1.602-0.712-1.602-1.602v-6.442c0.358,8.044,3.204,6.442,3.204,6.442
			C5.341,20.106,4.629,20.818,3.739,20.818z"/>
		<path class="st34" d="M7.588,22.999c-1.246,0-2.248-1.013-2.248-2.248V12.16c0.042,2.755,0.501,10.72,4.495,8.591
			C9.836,21.986,8.834,22.999,7.588,22.999z"/>
	</g>
</g>
</svg>
