<?xml version="1.0" encoding="utf-8"?>
<!-- Generator: Adobe Illustrator 21.1.0, SVG Export Plug-In . SVG Version: 6.00 Build 0)  -->
<svg version="1.1" id="Layer_1" xmlns="http://www.w3.org/2000/svg" xmlns:xlink="http://www.w3.org/1999/xlink" x="0px" y="0px"
	 viewBox="0 0 32 32" style="enable-background:new 0 0 32 32;" xml:space="preserve">
<style type="text/css">
	.st0{fill:#E9EFF4;}
	.st1{fill:#BBC7D1;}
	.st2{fill:#E24B4B;}
	.st3{fill:#D23F77;}
	.st4{fill:#D3D9DD;}
	.st5{fill:#E84D88;}
	.st6{fill:#DEE4E9;}
	.st7{fill:#3E4347;}
	.st8{fill:#65B1EF;}
	.st9{fill:#FFFFFF;}
	.st10{fill:#59A5E0;}
	.st11{opacity:0.15;fill:#FFFFFF;}
	.st12{fill:#D03F3F;}
	.st13{opacity:0.15;}
	.st14{fill:#E9B02C;}
	.st15{fill:#F4C534;}
	.st16{opacity:0.5;}
	.st17{fill:#FFD93B;}
	.st18{fill:#353A3D;}
	.st19{fill:#777B7E;}
	.st20{fill:#5A5F63;}
	.st21{fill:#4E99D2;}
	.st22{fill:#CBD6E0;}
	.st23{fill:#6B503B;}
	.st24{fill:#89664C;}
	.st25{fill:#8F6D52;}
	.st26{fill:#A5856D;}
	.st27{fill:#C2CACE;}
	.st28{fill:#BF3333;}
	.st29{fill:#DAE5EF;}
	.st30{fill:#373C3F;}
	.st31{fill:#8CC63E;}
	.st32{fill:#7FB239;}
	.st33{opacity:0.7;}
	.st34{fill:#32373A;}
	.st35{opacity:0.1;fill:#FFFFFF;}
	.st36{opacity:0.5;fill:#DAE5EF;}
	.st37{fill:#8D9BA3;}
	.st38{fill:#7A5B44;}
	.st39{opacity:0.2;fill:#FFFFFF;}
	.st40{fill:#45CBEA;}
	.st41{opacity:0.1;}
	.st42{fill:#7B8B92;}
	.st43{fill:#ACB9C1;}
	.st44{fill:#846144;}
	.st45{fill:#9A795F;}
	.st46{opacity:0.2;}
	.st47{fill:#719D34;}
	.st48{fill:#31373A;}
	.st49{fill:#FFDE55;}
	.st50{fill:#CF7519;}
	.st51{fill:none;stroke:#D03F3F;stroke-width:36;stroke-miterlimit:10;}
	.st52{fill:#F29A2E;}
	.st53{opacity:0.25;}
	.st54{fill:#E18823;}
	.st55{opacity:0.5;fill:#E18823;}
	.st56{opacity:0.2;fill:#5A5F63;}
	.st57{fill:#64892F;}
</style>
<g>
	<g>
		<g>
			<path class="st30" d="M28.982,0.164l2.854,2.854c0.218,0.218,0.218,0.569,0.002,0.785l-1.595,1.595
				c-0.218,0.218-0.569,0.218-0.787,0l-2.854-2.854c-0.218-0.218-0.218-0.569,0-0.787l1.595-1.595
				C28.413-0.054,28.764-0.054,28.982,0.164z"/>
			<path class="st30" d="M2.544,26.602l2.854,2.854c0.218,0.218,0.218,0.569,0,0.787l-1.595,1.595
				c-0.216,0.216-0.567,0.216-0.785-0.002l-2.854-2.854c-0.218-0.218-0.218-0.569-0.002-0.785l1.595-1.595
				C1.974,26.384,2.325,26.384,2.544,26.602z"/>
		</g>
	</g>
	<g>
		<g>
			<path class="st7" d="M26.627,1.39L30.9,5.663c0.121,0.121,0.209,0.268,0.259,0.43c0.396,1.323,1.806,7.438-4.559,11.329
				c-4.48,2.735-6.041-2.416-8.992-1.174c-0.605,0.254-1.098,0.747-1.352,1.352c-1.262,2.967,3.902,4.519,1.165,9.001
				c-3.891,6.365-10.006,4.955-11.329,4.559c-0.162-0.049-0.308-0.137-0.43-0.259l-4.276-4.276c-0.326-0.326-0.398-0.83-0.171-1.233
				C7.048,15.129,15.147,7.116,25.39,1.223C25.793,0.992,26.301,1.064,26.627,1.39z"/>
		</g>
		<g>
			<path class="st8" d="M27.704,14.564c-0.544,0.545-1.195,1.049-1.932,1.5c-1.72,1.05-2.56,0.518-3.952-0.364
				c-1.182-0.748-2.8-1.773-4.828-0.92c-0.992,0.417-1.786,1.211-2.203,2.203c-0.865,2.033,0.163,3.658,0.914,4.844
				c0.879,1.389,1.409,2.227,0.361,3.945c-0.45,0.737-0.955,1.387-1.5,1.932c-3.033,3.033-6.808,2.271-7.876,1.973l-3.873-3.873
				C8.563,15.842,16.371,8.331,25.809,2.819l3.869,3.869C29.981,7.765,30.742,11.525,27.704,14.564z"/>
		</g>
	</g>
	<g>
		<path class="st21" d="M6.743,19.812l0,9.88c0.418,0.113,1.183,0.277,2.134,0.292l0-12.906C8.142,17.965,7.432,18.879,6.743,19.812
			z"/>
		<path class="st21" d="M11.745,13.855l0,15.66c0.243-0.088,0.487-0.189,0.731-0.309l0-16.107
			C12.229,13.349,11.987,13.602,11.745,13.855z"/>
		<path class="st21" d="M11.126,14.508c-0.428,0.462-0.851,0.93-1.265,1.406l0,14.028c0.406-0.041,0.83-0.115,1.265-0.231
			L11.126,14.508z"/>
	</g>
</g>
</svg>
