<?xml version="1.0" encoding="utf-8"?>
<!-- Generator: Adobe Illustrator 21.1.0, SVG Export Plug-In . SVG Version: 6.00 Build 0)  -->
<svg version="1.1" id="Layer_1" xmlns="http://www.w3.org/2000/svg" xmlns:xlink="http://www.w3.org/1999/xlink" x="0px" y="0px"
	 viewBox="0 0 32 32" style="enable-background:new 0 0 32 32;" xml:space="preserve">
<style type="text/css">
	.st0{fill:#E9EFF4;}
	.st1{fill:#BBC7D1;}
	.st2{fill:#E24B4B;}
	.st3{fill:#D23F77;}
	.st4{fill:#D3D9DD;}
	.st5{fill:#E84D88;}
	.st6{fill:#DEE4E9;}
	.st7{fill:#3E4347;}
	.st8{fill:#65B1EF;}
	.st9{fill:#FFFFFF;}
	.st10{fill:#59A5E0;}
	.st11{opacity:0.15;fill:#FFFFFF;}
	.st12{fill:#D03F3F;}
	.st13{opacity:0.15;}
	.st14{fill:#E9B02C;}
	.st15{fill:#F4C534;}
	.st16{opacity:0.5;}
	.st17{fill:#FFD93B;}
	.st18{fill:#353A3D;}
	.st19{fill:#777B7E;}
	.st20{fill:#5A5F63;}
	.st21{fill:#4E99D2;}
	.st22{fill:#CBD6E0;}
	.st23{fill:#6B503B;}
	.st24{fill:#89664C;}
	.st25{fill:#8F6D52;}
	.st26{fill:#A5856D;}
	.st27{fill:#C2CACE;}
	.st28{fill:#BF3333;}
	.st29{fill:#DAE5EF;}
	.st30{fill:#373C3F;}
	.st31{fill:#8CC63E;}
	.st32{fill:#7FB239;}
	.st33{opacity:0.7;}
	.st34{fill:#32373A;}
	.st35{opacity:0.1;fill:#FFFFFF;}
	.st36{opacity:0.5;fill:#DAE5EF;}
	.st37{fill:#8D9BA3;}
	.st38{fill:#7A5B44;}
	.st39{opacity:0.2;fill:#FFFFFF;}
	.st40{fill:#45CBEA;}
	.st41{opacity:0.1;}
	.st42{fill:#7B8B92;}
	.st43{fill:#ACB9C1;}
	.st44{fill:#846144;}
	.st45{fill:#9A795F;}
	.st46{opacity:0.2;}
	.st47{fill:#719D34;}
	.st48{fill:#31373A;}
	.st49{fill:#FFDE55;}
	.st50{fill:#CF7519;}
	.st51{fill:none;stroke:#D03F3F;stroke-width:36;stroke-miterlimit:10;}
	.st52{fill:#F29A2E;}
	.st53{opacity:0.25;}
	.st54{fill:#E18823;}
	.st55{opacity:0.5;fill:#E18823;}
	.st56{opacity:0.2;fill:#5A5F63;}
	.st57{fill:#64892F;}
</style>
<g>
	<g>
		<g>
			<g>
				<g>
					<path class="st52" d="M24.145,0.343c-0.068,0.023-0.137,0.046-0.205,0.069c-0.087,0.032-0.173,0.064-0.259,0.097
						C23.835,0.454,23.99,0.399,24.145,0.343z"/>
				</g>
				<g>
					<path class="st7" d="M26.668,5.752c-0.037-1.824-0.065-5.351-1.644-5.737c-0.387-0.095-0.864,0.279-1.21,0.399
						c-0.204,0.071-0.392,0.149-0.574,0.232c0.233-0.078,0.467-0.156,0.7-0.234c0.206-0.077,0.739-0.381,0.739-0.381
						s-0.854,0.973-1.188,1.479c1.618,1.981,0.662,6.861,0.434,9.035c-0.361,3.449-0.996,6.927-2.66,9.474
						c0.496-0.759,2.028,0.01,2.539-0.772C25.976,15.923,26.76,10.279,26.668,5.752z"/>
				</g>
				<g>
					<g>
						<path class="st20" d="M24.772,0.005c-0.379,0.374-0.948,1.001-1.281,1.506c-1.016,1.539-1.816,3.585-2.39,5.542
							c-0.924,3.156-0.88,6.85-1.393,10.303c-0.122,0.803-2.297,0.099-2.408,0.847c0.747-5.036,0.779-9.709,2.708-13.755
							c0.862-1.814,1.596-2.859,2.727-3.53C23.254,0.563,23.981,0.274,24.772,0.005z"/>
					</g>
				</g>
			</g>
			<g>
				<g>
					<path class="st52" d="M7.852,0.343c0.068,0.023,0.137,0.046,0.205,0.069C8.144,0.444,8.23,0.476,8.317,0.509
						C8.162,0.454,8.007,0.399,7.852,0.343z"/>
				</g>
				<g>
					<path class="st7" d="M5.33,5.752c0.037-1.824,0.065-5.351,1.644-5.737c0.387-0.095,0.864,0.279,1.21,0.399
						c0.204,0.071,0.392,0.149,0.574,0.232c-0.233-0.078-0.467-0.156-0.7-0.234C7.851,0.335,7.319,0.031,7.319,0.031
						S8.173,1.004,8.506,1.51c-1.618,1.981-0.662,6.861-0.434,9.035c0.361,3.449,0.996,6.927,2.66,9.474
						c-0.496-0.759-2.028,0.01-2.539-0.772C6.021,15.923,5.237,10.279,5.33,5.752z"/>
				</g>
				<g>
					<g>
						<path class="st20" d="M7.225,0.005c0.379,0.374,0.948,1.001,1.281,1.506c1.016,1.539,1.816,3.585,2.39,5.542
							c0.924,3.156,0.88,6.85,1.393,10.303c0.122,0.803,2.297,0.099,2.408,0.847c-0.747-5.036-0.779-9.709-2.708-13.755
							c-0.862-1.814-1.596-2.859-2.727-3.53C8.743,0.563,8.017,0.274,7.225,0.005z"/>
					</g>
				</g>
			</g>
		</g>
		<g>
			<g>
				<g>
					<path class="st52" d="M27.304,19.553h-3.361V29h0.316c2.4,0,4.344-1.954,4.344-4.353v-3.794
						C28.604,20.132,28.025,19.553,27.304,19.553z"/>
				</g>
			</g>
			<g>
				<g>
					<path class="st52" d="M4.693,19.553h3.361V29H7.738c-2.4,0-4.344-1.954-4.344-4.353v-3.794
						C3.394,20.132,3.973,19.553,4.693,19.553z"/>
				</g>
			</g>
		</g>
		<g>
			<g>
				<path class="st7" d="M13.18,6.11c0.064-2.938,1.424-3.197,2.819-3.197c1.394,0,2.754,0.259,2.818,3.197h0.999
					c-0.076-3.706-2.071-4.197-3.817-4.197c-1.747,0-3.742,0.491-3.818,4.197H13.18z"/>
			</g>
		</g>
		<g>
			<g>
				<g>
					<path class="st54" d="M18.521,5.523h-5.045c-1.216,0-2.414,0.399-3.334,1.195c-2.853,2.471-4.735,6.694-4.735,11.49
						C5.408,31.389,10.15,32,15.999,32c5.849,0,10.591-0.611,10.591-13.792c0-4.797-1.881-9.02-4.734-11.49
						C20.936,5.922,19.737,5.523,18.521,5.523z"/>
				</g>
				<g>
					<g>
						<path class="st52" d="M23.485,15.494c0.095,0.503-0.342,0.948-0.854,0.863c-4.42-0.721-8.839-0.721-13.269,0
							c-0.512,0.085-0.939-0.36-0.844-0.863c0.427-2.257,1.366-4.249,2.618-5.71c0.095-0.123,0.237-0.209,0.389-0.247
							c2.988-0.768,5.966-0.768,8.944,0c0.152,0.038,0.294,0.123,0.398,0.247C22.119,11.245,23.058,13.237,23.485,15.494z"/>
					</g>
				</g>
				<path class="st35" d="M19.522,9.324c-2.662-0.541-5.326-0.473-7.996,0.214c-0.152,0.038-0.294,0.123-0.389,0.247
					c-1.13,1.318-1.983,3.082-2.457,5.071c1.306,0.13,3.264-0.21,5.773-0.683C18.403,13.429,19.313,10.685,19.522,9.324z"/>
			</g>
			<g>
				<g>
					<path class="st52" d="M9.356,21.011c-0.595,0.153-0.979,0.741-0.914,1.352c0.714,6.786,3.439,6.792,7.557,6.792
						c4.118,0,6.843-0.006,7.556-6.792c0.064-0.611-0.32-1.199-0.914-1.352C18.213,19.869,13.785,19.869,9.356,21.011z"/>
				</g>
			</g>
			<path class="st35" d="M20.21,20.512c-3.618-0.591-7.236-0.434-10.854,0.499c-0.595,0.153-0.979,0.741-0.914,1.352
				c0.381,3.617,1.338,5.298,2.767,6.089C19.378,28.527,20.21,22.827,20.21,20.512z"/>
		</g>
		<g>
			<g>
				<path class="st9" d="M22.575,22.228c-0.028,0.123-0.161,0.199-0.284,0.161c-1.905-0.517-4.254-0.816-6.288-0.816
					c-3.111,0-5.349,0.59-6.298,0.816c-0.123,0.028-0.256-0.047-0.285-0.171c-0.028-0.123,0.047-0.256,0.171-0.285
					c1.761-0.488,4.16-0.835,6.411-0.835c2.237,0,4.663,0.347,6.402,0.835h0.009C22.537,21.962,22.613,22.095,22.575,22.228z"/>
			</g>
		</g>
		<g>
			<g>
				<path class="st7" d="M21.052,21.873c-0.3,0-0.548,1.315-0.548,1.615c0,0.3,0.248,0.548,0.548,0.548
					c0.3,0,0.548-0.248,0.548-0.548C21.6,23.189,21.352,21.873,21.052,21.873z M21.052,23.749c-0.144,0-0.26-0.115-0.26-0.26h0.519
					C21.311,23.633,21.196,23.749,21.052,23.749z"/>
			</g>
		</g>
		<g>
			<g>
				<path class="st9" d="M20.355,10.733c-0.028,0.133-0.161,0.209-0.294,0.171c-1.301-0.35-2.823-0.522-4.059-0.522
					c-1.483,0-3.095,0.244-4.069,0.522c-0.123,0.028-0.256-0.047-0.284-0.18c-0.028-0.123,0.047-0.246,0.171-0.284
					c0,0,2.058-0.55,4.183-0.531c2.125-0.019,4.183,0.531,4.183,0.531l0.009,0.009C20.317,10.477,20.393,10.61,20.355,10.733z"/>
			</g>
		</g>
		<g>
			<g>
				<path class="st7" d="M19.323,10.41c-0.3,0-0.548,1.315-0.548,1.615c0,0.3,0.248,0.548,0.548,0.548s0.548-0.248,0.548-0.548
					C19.871,11.726,19.623,10.41,19.323,10.41z M19.323,12.285c-0.144,0-0.26-0.115-0.26-0.26h0.519
					C19.583,12.17,19.467,12.285,19.323,12.285z"/>
			</g>
		</g>
	</g>
	<g class="st16">
		<path class="st50" d="M26.59,18.208c0-1.972-0.332-3.837-0.905-5.534c0.248,1.504,3.131,21.11-15.639,18.421
			C11.742,31.912,13.791,32,15.999,32C21.848,32,26.59,31.389,26.59,18.208z"/>
	</g>
	<path class="st54" d="M24.26,29c2.4,0,4.344-1.954,4.344-4.353v-3.794C28.604,20.853,28.86,26.848,24.26,29z"/>
	<path class="st55" d="M20.365,14.36c-1.943,1.031-7.063,0.875-11.002,1.998c4.429-0.721,8.849-0.721,13.269,0
		c0.512,0.085,0.948-0.36,0.854-0.863c-0.427-2.257-1.366-4.249-2.618-5.71C20.867,9.784,22.308,13.328,20.365,14.36z"/>
	<path class="st55" d="M23.555,22.363c0,0-1.348,7.464-11.908,6.3c1.184,0.483,2.646,0.492,4.351,0.492
		C20.117,29.155,22.842,29.149,23.555,22.363z"/>
</g>
</svg>
