<?xml version="1.0" encoding="utf-8"?>
<!-- Generator: Adobe Illustrator 21.1.0, SVG Export Plug-In . SVG Version: 6.00 Build 0)  -->
<svg version="1.1" id="Layer_1" xmlns="http://www.w3.org/2000/svg" xmlns:xlink="http://www.w3.org/1999/xlink" x="0px" y="0px"
	 viewBox="0 0 32 32" style="enable-background:new 0 0 32 32;" xml:space="preserve">
<style type="text/css">
	.st0{fill:#E9EFF4;}
	.st1{fill:#BBC7D1;}
	.st2{fill:#E24B4B;}
	.st3{fill:#D23F77;}
	.st4{fill:#D3D9DD;}
	.st5{fill:#E84D88;}
	.st6{fill:#DEE4E9;}
	.st7{fill:#3E4347;}
	.st8{fill:#65B1EF;}
	.st9{fill:#FFFFFF;}
	.st10{fill:#59A5E0;}
	.st11{opacity:0.15;fill:#FFFFFF;}
	.st12{fill:#D03F3F;}
	.st13{opacity:0.15;}
	.st14{fill:#E9B02C;}
	.st15{fill:#F4C534;}
	.st16{opacity:0.5;}
	.st17{fill:#FFD93B;}
	.st18{fill:#353A3D;}
	.st19{fill:#777B7E;}
	.st20{fill:#5A5F63;}
	.st21{fill:#4E99D2;}
	.st22{fill:#CBD6E0;}
	.st23{fill:#6B503B;}
	.st24{fill:#89664C;}
	.st25{fill:#8F6D52;}
	.st26{fill:#A5856D;}
	.st27{fill:#C2CACE;}
	.st28{fill:#BF3333;}
	.st29{fill:#DAE5EF;}
	.st30{fill:#373C3F;}
	.st31{fill:#8CC63E;}
	.st32{fill:#7FB239;}
	.st33{opacity:0.7;}
	.st34{fill:#32373A;}
	.st35{opacity:0.1;fill:#FFFFFF;}
	.st36{opacity:0.5;fill:#DAE5EF;}
	.st37{fill:#8D9BA3;}
	.st38{fill:#7A5B44;}
	.st39{opacity:0.2;fill:#FFFFFF;}
	.st40{fill:#45CBEA;}
	.st41{opacity:0.1;}
	.st42{fill:#7B8B92;}
	.st43{fill:#ACB9C1;}
	.st44{fill:#846144;}
	.st45{fill:#9A795F;}
	.st46{opacity:0.2;}
	.st47{fill:#719D34;}
	.st48{fill:#31373A;}
	.st49{fill:#FFDE55;}
	.st50{fill:#CF7519;}
	.st51{fill:none;stroke:#D03F3F;stroke-width:36;stroke-miterlimit:10;}
	.st52{fill:#F29A2E;}
	.st53{opacity:0.25;}
	.st54{fill:#E18823;}
	.st55{opacity:0.5;fill:#E18823;}
	.st56{opacity:0.2;fill:#5A5F63;}
	.st57{fill:#64892F;}
</style>
<g>
	<g>
		<path class="st0" d="M25.398,2.04v21.977L17.415,32H2.038c-1.13,0-2.04-0.91-2.04-2.04V2.04c0-1.13,0.91-2.04,2.04-2.04h21.32
			C24.478,0,25.398,0.91,25.398,2.04z"/>
	</g>
	<g>
		<path class="st25" d="M25.395,24.018l-6.401,0c-0.86,0-1.565,0.691-1.583,1.554l0,6.428L25.395,24.018z"/>
	</g>
	<g>
		<g>
			<path class="st1" d="M9.855,10.634H3.703c-0.389,0-0.705-0.316-0.705-0.705V3.777c0-0.389,0.316-0.705,0.705-0.705h6.152
				c0.389,0,0.705,0.316,0.705,0.705v6.152C10.56,10.318,10.244,10.634,9.855,10.634z M4.408,9.224H9.15V4.482H4.408V9.224z"/>
		</g>
		<g>
			<path class="st1" d="M9.855,19.781H3.703c-0.389,0-0.705-0.316-0.705-0.705v-6.152c0-0.389,0.316-0.705,0.705-0.705h6.152
				c0.389,0,0.705,0.316,0.705,0.705v6.152C10.56,19.466,10.244,19.781,9.855,19.781z M4.408,18.371H9.15v-4.742H4.408V18.371z"/>
		</g>
		<g>
			<path class="st1" d="M9.855,28.929H3.703c-0.389,0-0.705-0.316-0.705-0.705v-6.152c0-0.389,0.316-0.705,0.705-0.705h6.152
				c0.389,0,0.705,0.316,0.705,0.705v6.152C10.56,28.613,10.244,28.929,9.855,28.929z M4.408,27.518H9.15v-4.742H4.408V27.518z"/>
		</g>
	</g>
	<g>
		<g>
			<g>
				<path class="st31" d="M4.938,6.8c-0.25-0.24-0.25-0.64,0-0.88c0.24-0.25,0.64-0.25,0.88,0l1.38,1.38
					c0.69-0.86,2.13-2.44,4.11-3.4c0.31-0.15,0.69-0.03,0.84,0.28s0.02,0.69-0.29,0.84c-2.46,1.2-4.06,3.55-4.07,3.58
					c-0.11,0.15-0.28,0.25-0.46,0.27h-0.06c-0.17,0-0.33-0.06-0.45-0.18L4.938,6.8z"/>
				<path class="st31" d="M12.148,13.18c0.15,0.31,0.02,0.69-0.29,0.84c-2.46,1.2-4.06,3.55-4.07,3.58
					c-0.11,0.15-0.28,0.25-0.46,0.27h-0.06c-0.17,0-0.33-0.06-0.45-0.18l-1.88-1.89c-0.25-0.24-0.25-0.64,0-0.88
					c0.24-0.25,0.64-0.25,0.88,0l1.38,1.38c0.69-0.86,2.13-2.44,4.11-3.4C11.618,12.75,11.998,12.87,12.148,13.18z"/>
			</g>
		</g>
	</g>
	<g>
		<g>
			<path class="st8" d="M31.735,6.32l-2.264,2.264l-3.867-3.867l2.264-2.264c0.355-0.355,0.931-0.354,1.285,0l2.582,2.582
				C32.09,5.39,32.09,5.965,31.735,6.32z"/>
		</g>
		<g>
			<g>
				<path class="st2" d="M20.487,17.569c-5.221,1.899-4.288,1.56-5.37,1.953c-0.111,0.041-0.223,0.023-0.309-0.033
					c-0.042-0.028-0.079-0.065-0.106-0.106c-0.056-0.087-0.074-0.198-0.033-0.309c0.393-1.082,0.054-0.149,1.953-5.371l1.289,1.289
					l1.288,1.289L20.487,17.569z"/>
			</g>
			<g>
				
					<rect x="16.843" y="8.772" transform="matrix(0.7071 -0.7071 0.7071 0.7071 -1.4928 19.4087)" class="st2" width="11.678" height="5.469"/>
			</g>
			<g>
				<g>
					
						<rect x="18.133" y="11.884" transform="matrix(-0.7071 0.7071 -0.7071 -0.7071 49.9699 4.8927)" class="st21" width="11.678" height="1.823"/>
					
						<rect x="16.843" y="10.595" transform="matrix(-0.7071 0.7071 -0.7071 -0.7071 46.8578 3.6036)" class="st10" width="11.678" height="1.823"/>
					
						<rect x="15.554" y="9.306" transform="matrix(-0.7071 0.7071 -0.7071 -0.7071 43.7458 2.3146)" class="st8" width="11.678" height="1.823"/>
				</g>
				<g>
					<path class="st0" d="M29.9,8.904l-0.413,0.413c-0.203,0.203-0.532,0.204-0.735,0.001l-3.881-3.881
						c-0.203-0.203-0.202-0.532,0.001-0.735l0.413-0.413c0.203-0.203,0.531-0.203,0.734,0L29.9,8.17
						C30.103,8.373,30.103,8.701,29.9,8.904z"/>
				</g>
				<g>
					<path class="st28" d="M29.472,8.584l2.264-2.264c0.355-0.355,0.355-0.93,0-1.285l-0.647-0.647l-2.906,2.906L29.472,8.584z"/>
					
						<rect x="26.937" y="4.286" transform="matrix(0.7071 -0.7071 0.7071 0.7071 4.8164 22.0224)" class="st12" width="4.11" height="1.823"/>
					<path class="st2" d="M26.894,6.006L29.8,3.1l-0.647-0.647c-0.355-0.355-0.93-0.355-1.285,0l-2.264,2.264L26.894,6.006z"/>
				</g>
				<g>
					
						<rect x="26.574" y="5.892" transform="matrix(0.7071 -0.7071 0.7071 0.7071 3.2103 21.3572)" class="st22" width="1.624" height="1.823"/>
					<path class="st29" d="M27.315,5.585l-1.148,1.148l-1.296-1.296c-0.203-0.203-0.202-0.532,0-0.734l0.414-0.414
						c0.203-0.203,0.531-0.203,0.734,0L27.315,5.585z"/>
					<path class="st1" d="M28.752,9.318l-1.296-1.296l1.148-1.148L29.9,8.17c0.203,0.203,0.203,0.531,0,0.734l-0.414,0.414
						C29.283,9.521,28.955,9.521,28.752,9.318z"/>
				</g>
				<g>
					<path class="st14" d="M14.808,19.488l0.817-0.597l3.573-2.611l1.289,1.289l-4.535,1.649l-0.836,0.304
						C15.004,19.562,14.894,19.544,14.808,19.488z"/>
					<path class="st15" d="M14.701,19.381l0.597-0.817l2.611-3.573l1.289,1.289l-3.573,2.611l-0.817,0.597
						C14.765,19.461,14.728,19.424,14.701,19.381z"/>
					<path class="st17" d="M14.701,19.381c-0.055-0.086-0.074-0.197-0.033-0.309l0.304-0.836l1.649-4.535l1.289,1.289l-2.611,3.573
						L14.701,19.381z"/>
				</g>
				<g>
					<path class="st30" d="M14.667,19.073l0.304-0.835c0.219,0.079,0.424,0.206,0.599,0.382c0.175,0.175,0.303,0.38,0.382,0.599
						l-0.835,0.304C14.837,19.623,14.566,19.352,14.667,19.073z"/>
				</g>
			</g>
		</g>
	</g>
</g>
</svg>
