<?xml version="1.0" encoding="utf-8"?>
<!-- Generator: Adobe Illustrator 21.1.0, SVG Export Plug-In . SVG Version: 6.00 Build 0)  -->
<svg version="1.1" id="Layer_1" xmlns="http://www.w3.org/2000/svg" xmlns:xlink="http://www.w3.org/1999/xlink" x="0px" y="0px"
	 viewBox="0 0 32 32" style="enable-background:new 0 0 32 32;" xml:space="preserve">
<style type="text/css">
	.st0{fill:#E9EFF4;}
	.st1{fill:#BBC7D1;}
	.st2{fill:#E24B4B;}
	.st3{fill:#D23F77;}
	.st4{fill:#D3D9DD;}
	.st5{fill:#E84D88;}
	.st6{fill:#DEE4E9;}
	.st7{fill:#3E4347;}
	.st8{fill:#65B1EF;}
	.st9{fill:#FFFFFF;}
	.st10{fill:#59A5E0;}
	.st11{opacity:0.15;fill:#FFFFFF;}
	.st12{fill:#D03F3F;}
	.st13{opacity:0.15;}
	.st14{fill:#E9B02C;}
	.st15{fill:#F4C534;}
	.st16{opacity:0.5;}
	.st17{fill:#FFD93B;}
	.st18{fill:#353A3D;}
	.st19{fill:#777B7E;}
	.st20{fill:#5A5F63;}
	.st21{fill:#4E99D2;}
	.st22{fill:#CBD6E0;}
	.st23{fill:#6B503B;}
	.st24{fill:#89664C;}
	.st25{fill:#8F6D52;}
	.st26{fill:#A5856D;}
	.st27{fill:#C2CACE;}
	.st28{fill:#BF3333;}
	.st29{fill:#DAE5EF;}
	.st30{fill:#373C3F;}
	.st31{fill:#8CC63E;}
	.st32{fill:#7FB239;}
	.st33{opacity:0.7;}
	.st34{fill:#32373A;}
	.st35{opacity:0.1;fill:#FFFFFF;}
	.st36{opacity:0.5;fill:#DAE5EF;}
	.st37{fill:#8D9BA3;}
	.st38{fill:#7A5B44;}
	.st39{opacity:0.2;fill:#FFFFFF;}
	.st40{fill:#45CBEA;}
	.st41{opacity:0.1;}
	.st42{fill:#7B8B92;}
	.st43{fill:#ACB9C1;}
	.st44{fill:#846144;}
	.st45{fill:#9A795F;}
	.st46{opacity:0.2;}
	.st47{fill:#719D34;}
	.st48{fill:#31373A;}
	.st49{fill:#FFDE55;}
	.st50{fill:#CF7519;}
	.st51{fill:none;stroke:#D03F3F;stroke-width:36;stroke-miterlimit:10;}
	.st52{fill:#F29A2E;}
	.st53{opacity:0.25;}
	.st54{fill:#E18823;}
	.st55{opacity:0.5;fill:#E18823;}
	.st56{opacity:0.2;fill:#5A5F63;}
	.st57{fill:#64892F;}
</style>
<g>
	<g>
		<g>
			<polyline class="st7" points="5.67,18.951 2.366,15.647 0,15.647 3.283,24.45 			"/>
		</g>
	</g>
	<g>
		<g>
			<path class="st7" d="M16.213,22.891c-5.997,0-10.876-4.874-10.876-10.866c0-5.997,4.879-10.876,10.876-10.876
				s10.876,4.879,10.876,10.876C27.089,18.017,22.21,22.891,16.213,22.891z M16.213,2.684c-5.151,0-9.341,4.191-9.341,9.341
				c0,5.145,4.191,9.331,9.341,9.331s9.341-4.186,9.341-9.331C25.554,6.874,21.364,2.684,16.213,2.684z"/>
		</g>
	</g>
	<g>
		<g>
			<path class="st7" d="M17.584,11.085c0,0.757-0.614,1.361-1.371,1.361c-0.747,0-1.361-0.604-1.361-1.361s0.614-1.361,1.361-1.361
				C16.97,9.725,17.584,10.328,17.584,11.085z"/>
		</g>
	</g>
	<g>
		<g>
			<path class="st20" d="M21.712,14.368c-0.202-2.494-2.588-2.856-5.495-2.856c-2.907,0-5.292,0.363-5.495,2.856H21.712z"/>
		</g>
	</g>
	<g>
		<g>
			<path class="st29" d="M30.637,29.795c-2.088-14.842-7.453-16.498-14.42-16.498S3.885,14.953,1.797,29.795H30.637z"/>
		</g>
	</g>
	<g>
		<path class="st22" d="M23.689,14.826c0.303,0.306,14.657,14.969-21.892,14.969h28.84C29.383,20.88,26.945,16.725,23.689,14.826z"
			/>
	</g>
	<g>
		<g>
			<path class="st7" d="M32,30.708c0,0.501-0.409,0.911-0.911,0.911H1.346c-0.501,0-0.91-0.409-0.91-0.911
				c0-0.501,0.409-0.911,0.91-0.911h29.743C31.591,29.797,32,30.207,32,30.708z"/>
		</g>
	</g>
	<g>
		<g>
			<g>
				<g>
					<path class="st2" d="M23.027,3.41l-0.01,0.02l-0.726,1.34c-0.203,0.406-0.745,0.548-1.156,0.246
						c-2.885-2.036-6.937-2.046-9.863,0.01C10.9,5.305,10.35,5.2,10.125,4.75l-0.716-1.32C9.225,3.062,9.337,2.622,9.665,2.397
						c1.934-1.32,4.195-2.016,6.548-2.016c2.353,0,4.614,0.696,6.548,2.026C23.088,2.622,23.201,3.052,23.027,3.41z"/>
				</g>
			</g>
		</g>
	</g>
	<g class="st53">
		<g>
			<path class="st9" d="M5.993,20.667c0.481-3.954,5.518-6.666,8.556-5.111c0.685,0.352,1.083,1.139,0.843,1.88
				c-0.333,0.982-1.296,1.963-2.296,2.917c-1.019,0.963-2.25,1.704-3.62,2c-0.907,0.204-1.731,0.213-2.38,0.019
				C6.373,22.158,5.901,21.426,5.993,20.667z"/>
		</g>
	</g>
</g>
</svg>
