<?xml version="1.0" encoding="utf-8"?>
<!-- Generator: Adobe Illustrator 21.1.0, SVG Export Plug-In . SVG Version: 6.00 Build 0)  -->
<svg version="1.1" id="Layer_1" xmlns="http://www.w3.org/2000/svg" xmlns:xlink="http://www.w3.org/1999/xlink" x="0px" y="0px"
	 viewBox="0 0 32 32" style="enable-background:new 0 0 32 32;" xml:space="preserve">
<style type="text/css">
	.st0{fill:#45CBEA;}
	.st1{fill:#FFD93B;}
	.st2{fill:#F4C534;}
	.st3{fill:#3E4347;}
	.st4{opacity:0.2;}
	.st5{fill:#DE9C25;}
	.st6{fill:#FFFFFF;}
	.st7{fill:#E24B4B;}
	.st8{fill:#8CC63E;}
	.st9{fill:#D03F3F;}
	.st10{fill:#846144;}
	.st11{fill:#5A5F63;}
	.st12{fill:#777B7E;}
	.st13{fill:#FFDC97;}
	.st14{fill:#FFE9AB;}
	.st15{fill:#93979A;}
	.st16{fill:#FFD68D;}
	.st17{fill:#728389;}
	.st18{fill:#DAE5EF;}
	.st19{fill:#65B1EF;}
	.st20{fill:#F2F7F9;}
	.st21{fill:#8D9BA3;}
	.st22{opacity:0.2;fill:#F2F7F9;}
	.st23{fill:#E9EFF4;}
	.st24{fill:#FC97B2;}
	.st25{fill:#E84D88;}
	.st26{fill:#A5856D;}
	.st27{fill:#E9B02C;}
	.st28{fill:#7FB239;}
	.st29{fill:#CBD6E0;}
	.st30{fill:#ACB9C1;}
	.st31{fill:#8F6D52;}
	.st32{opacity:0.2;fill:#FFFFFF;}
	.st33{fill:#9A795F;}
	.st34{fill:#BBC7D1;}
	.st35{fill:#E18823;}
	.st36{fill:#F29A2E;}
	.st37{fill:#89664C;}
	.st38{fill:#D3D9DD;}
	.st39{fill:#DEE4E9;}
	.st40{fill:#AD2727;}
	.st41{fill:#719D34;}
	.st42{fill:#353A3D;}
	.st43{opacity:0.25;}
	.st44{opacity:0.2;fill:#3E4347;}
	.st45{fill:#373C3F;}
	.st46{opacity:0.1;}
	.st47{opacity:0.06;}
	.st48{fill:#7A5B44;}
	.st49{fill:#6B503B;}
	.st50{fill:#31373A;}
	.st51{fill:#59A5E0;}
	.st52{fill:#363B3F;}
	.st53{fill:#BF3333;}
	.st54{opacity:0.3;}
	.st55{fill:#4E99D2;}
	.st56{opacity:0.15;}
	.st57{opacity:0.1;fill:#3E4347;}
	.st58{fill:#64892F;}
	.st59{opacity:0.08;fill:#FFFFFF;}
	.st60{opacity:0.1;fill:#FFFFFF;}
</style>
<g>
	<path class="st11" d="M21.388,13.758l4.71,15.861c0.102,0.334-0.07,0.686-0.391,0.819l-3.647,1.51
		c-0.321,0.133-0.691,0.006-0.856-0.302L13.321,17.1L21.388,13.758z"/>
	
		<ellipse transform="matrix(0.9239 -0.3827 0.3827 0.9239 -1.9819 6.0776)" class="st18" cx="14.286" cy="8.021" rx="8.018" ry="8.018"/>
	<path class="st29" d="M22.619,4.569c0.224,0.541-0.032,1.158-0.572,1.382L7.335,12.044c-0.541,0.224-1.158-0.032-1.382-0.572
		c-0.224-0.541,0.032-1.158,0.572-1.382l14.712-6.094C21.778,3.773,22.395,4.028,22.619,4.569z"/>
	<g>
		
			<ellipse transform="matrix(0.9239 -0.3827 0.3827 0.9239 -1.2147 3.5524)" class="st30" cx="8.322" cy="4.829" rx="0.338" ry="0.338"/>
		
			<ellipse transform="matrix(0.9239 -0.3827 0.3827 0.9239 -0.8258 4.1344)" class="st30" cx="9.98" cy="4.143" rx="0.338" ry="0.338"/>
		
			<ellipse transform="matrix(0.9239 -0.3827 0.3827 0.9239 -0.4369 4.7164)" class="st30" cx="11.637" cy="3.456" rx="0.338" ry="0.338"/>
		
			<ellipse transform="matrix(0.9239 -0.3827 0.3827 0.9239 -0.048 5.2984)" class="st30" cx="13.294" cy="2.77" rx="0.338" ry="0.338"/>
		
			<ellipse transform="matrix(0.9239 -0.3827 0.3827 0.9239 0.3409 5.8804)" class="st30" cx="14.952" cy="2.083" rx="0.338" ry="0.338"/>
		
			<ellipse transform="matrix(0.9239 -0.3827 0.3827 0.9239 0.7298 6.4625)" class="st30" cx="16.609" cy="1.397" rx="0.338" ry="0.338"/>
		
			<ellipse transform="matrix(0.9239 -0.3827 0.3827 0.9239 -1.7101 3.8834)" class="st30" cx="8.907" cy="6.24" rx="0.338" ry="0.338"/>
		
			<ellipse transform="matrix(0.9239 -0.3827 0.3827 0.9239 -2.0263 3.4102)" class="st30" cx="7.559" cy="6.799" rx="0.338" ry="0.338"/>
		
			<ellipse transform="matrix(0.9239 -0.3827 0.3827 0.9239 -1.3213 4.4655)" class="st30" cx="10.564" cy="5.554" rx="0.338" ry="0.338"/>
		
			<ellipse transform="matrix(0.9239 -0.3827 0.3827 0.9239 -0.9324 5.0475)" class="st30" cx="12.222" cy="4.867" rx="0.338" ry="0.338"/>
		
			<ellipse transform="matrix(0.9239 -0.3827 0.3827 0.9239 -0.5435 5.6295)" class="st30" cx="13.879" cy="4.181" rx="0.338" ry="0.338"/>
		
			<ellipse transform="matrix(0.9239 -0.3827 0.3827 0.9239 -0.1546 6.2115)" class="st30" cx="15.536" cy="3.494" rx="0.338" ry="0.338"/>
		
			<ellipse transform="matrix(0.9239 -0.3827 0.3827 0.9239 0.2343 6.7935)" class="st30" cx="17.194" cy="2.808" rx="0.338" ry="0.338"/>
		
			<ellipse transform="matrix(0.9239 -0.3827 0.3827 0.9239 0.5302 7.2364)" class="st30" cx="18.455" cy="2.285" rx="0.338" ry="0.338"/>
		
			<ellipse transform="matrix(0.9239 -0.3827 0.3827 0.9239 -2.2056 4.2145)" class="st30" cx="9.491" cy="7.652" rx="0.338" ry="0.338"/>
		
			<ellipse transform="matrix(0.9239 -0.3827 0.3827 0.9239 -2.6004 3.6237)" class="st30" cx="7.809" cy="8.348" rx="0.338" ry="0.338"/>
		
			<ellipse transform="matrix(0.9239 -0.3827 0.3827 0.9239 -1.8168 4.7965)" class="st30" cx="11.149" cy="6.965" rx="0.338" ry="0.338"/>
		
			<ellipse transform="matrix(0.9239 -0.3827 0.3827 0.9239 -1.4279 5.3786)" class="st30" cx="12.806" cy="6.278" rx="0.338" ry="0.338"/>
		
			<ellipse transform="matrix(0.9239 -0.3827 0.3827 0.9239 -1.039 5.9606)" class="st30" cx="14.463" cy="5.592" rx="0.338" ry="0.338"/>
		
			<ellipse transform="matrix(0.9239 -0.3827 0.3827 0.9239 -0.6501 6.5426)" class="st30" cx="16.121" cy="4.905" rx="0.338" ry="0.338"/>
		
			<ellipse transform="matrix(0.9239 -0.3827 0.3827 0.9239 -0.2612 7.1246)" class="st30" cx="17.778" cy="4.219" rx="0.338" ry="0.338"/>
		
			<ellipse transform="matrix(0.9239 -0.3827 0.3827 0.9239 0.0485 7.5881)" class="st30" cx="19.098" cy="3.672" rx="0.338" ry="0.338"/>
		<g>
			
				<ellipse transform="matrix(0.9239 -0.3827 0.3827 0.9239 -0.3303 3.8033)" class="st30" cx="9.395" cy="2.732" rx="0.338" ry="0.338"/>
			
				<ellipse transform="matrix(0.9239 -0.3827 0.3827 0.9239 0.0586 4.3853)" class="st30" cx="11.053" cy="2.045" rx="0.338" ry="0.338"/>
			
				<ellipse transform="matrix(0.9239 -0.3827 0.3827 0.9239 0.4475 4.9673)" class="st30" cx="12.71" cy="1.359" rx="0.338" ry="0.338"/>
			
				<ellipse transform="matrix(0.9239 -0.3827 0.3827 0.9239 0.8364 5.5494)" class="st30" cx="14.367" cy="0.672" rx="0.338" ry="0.338"/>
		</g>
	</g>
	<path class="st3" d="M21.333,12.424l0.515,1.244c0.175,0.423-0.03,0.905-0.446,1.078l-7.392,3.062
		c-0.417,0.173-0.902-0.023-1.078-0.446l-0.515-1.244c-0.175-0.423,0.03-0.905,0.446-1.078l7.392-3.062
		C20.672,11.805,21.158,12.001,21.333,12.424z"/>
	<g>
		<path class="st18" d="M20.738,20.983l0.941,2.272c0.211,0.509-0.031,1.093-0.54,1.304l-0.005,0.002
			c-0.509,0.211-1.093-0.031-1.304-0.54l-0.941-2.272c-0.211-0.509,0.031-1.093,0.54-1.304l0.005-0.002
			C19.943,20.231,20.527,20.473,20.738,20.983z"/>
		<path class="st7" d="M21.177,22.043l-0.439-1.06c-0.211-0.509-0.795-0.751-1.304-0.54l-0.005,0.002
			c-0.509,0.211-0.751,0.795-0.54,1.304l0.439,1.06L21.177,22.043z"/>
	</g>
</g>
</svg>
