<?xml version="1.0" encoding="utf-8"?>
<!-- Generator: Adobe Illustrator 21.1.0, SVG Export Plug-In . SVG Version: 6.00 Build 0)  -->
<svg version="1.1" id="Layer_1" xmlns="http://www.w3.org/2000/svg" xmlns:xlink="http://www.w3.org/1999/xlink" x="0px" y="0px"
	 viewBox="0 0 32 32" style="enable-background:new 0 0 32 32;" xml:space="preserve">
<style type="text/css">
	.st0{fill:#E9EFF4;}
	.st1{fill:#BBC7D1;}
	.st2{fill:#E24B4B;}
	.st3{fill:#D23F77;}
	.st4{fill:#D3D9DD;}
	.st5{fill:#E84D88;}
	.st6{fill:#DEE4E9;}
	.st7{fill:#3E4347;}
	.st8{fill:#65B1EF;}
	.st9{fill:#FFFFFF;}
	.st10{fill:#59A5E0;}
	.st11{opacity:0.15;fill:#FFFFFF;}
	.st12{fill:#D03F3F;}
	.st13{opacity:0.15;}
	.st14{fill:#E9B02C;}
	.st15{fill:#F4C534;}
	.st16{opacity:0.5;}
	.st17{fill:#FFD93B;}
	.st18{fill:#353A3D;}
	.st19{fill:#777B7E;}
	.st20{fill:#5A5F63;}
	.st21{fill:#4E99D2;}
	.st22{fill:#CBD6E0;}
	.st23{fill:#6B503B;}
	.st24{fill:#89664C;}
	.st25{fill:#8F6D52;}
	.st26{fill:#A5856D;}
	.st27{fill:#C2CACE;}
	.st28{fill:#BF3333;}
	.st29{fill:#DAE5EF;}
	.st30{fill:#373C3F;}
	.st31{fill:#8CC63E;}
	.st32{fill:#7FB239;}
	.st33{opacity:0.7;}
	.st34{fill:#32373A;}
	.st35{opacity:0.1;fill:#FFFFFF;}
	.st36{opacity:0.5;fill:#DAE5EF;}
	.st37{fill:#8D9BA3;}
	.st38{fill:#7A5B44;}
	.st39{opacity:0.2;fill:#FFFFFF;}
	.st40{fill:#45CBEA;}
	.st41{opacity:0.1;}
	.st42{fill:#7B8B92;}
	.st43{fill:#ACB9C1;}
	.st44{fill:#846144;}
	.st45{fill:#9A795F;}
	.st46{opacity:0.2;}
	.st47{fill:#719D34;}
	.st48{fill:#31373A;}
	.st49{fill:#FFDE55;}
	.st50{fill:#CF7519;}
	.st51{fill:none;stroke:#D03F3F;stroke-width:36;stroke-miterlimit:10;}
	.st52{fill:#F29A2E;}
	.st53{opacity:0.25;}
	.st54{fill:#E18823;}
	.st55{opacity:0.5;fill:#E18823;}
	.st56{opacity:0.2;fill:#5A5F63;}
	.st57{fill:#64892F;}
</style>
<g>
	<path class="st7" d="M13.591,6.926V0.865C13.591,0.387,13.204,0,12.726,0h0c-0.478,0-0.865,0.387-0.865,0.865v6.061
		c0,0.478,0.387,0.865,0.865,0.865h0C13.204,7.79,13.591,7.403,13.591,6.926z"/>
	<path class="st20" d="M14.056,6.669V8c0,0.179-0.145,0.325-0.325,0.325h-2.01c-0.179,0-0.325-0.145-0.325-0.325V6.669
		c0-0.179,0.145-0.325,0.325-0.325h2.01C13.911,6.344,14.056,6.489,14.056,6.669z"/>
	<path class="st7" d="M22.378,13.413v0.961c0,2.001-0.178,4.087-0.402,5.645c-0.135,0.942-0.205,1.891-0.205,2.842v6.51
		c0,1.128-0.807,2.1-1.919,2.294c-2.567,0.447-5.135,0.447-7.702,0c-1.112-0.194-1.919-1.166-1.919-2.294v-6.563
		c0-0.961-0.073-1.92-0.21-2.872c-0.264-1.838-0.398-3.699-0.398-5.565v-1.039c0-1.945,1.331-3.647,3.225-4.091
		c2.051-0.481,4.158-0.445,6.321,0.084C21.052,9.786,22.378,11.474,22.378,13.413z"/>
	<path class="st17" d="M22.378,13.413v0.961c0,2.001-0.178,4.087-0.402,5.645c-0.055,0.384-0.099,0.769-0.132,1.156
		c-1.102,0.873-1.777,2.215-1.777,3.672v4.539c0,1.849-8.134,1.849-8.134,0v-4.539c0-1.455-0.673-2.796-1.772-3.669
		c-0.034-0.415-0.081-0.829-0.141-1.242c-0.264-1.838-0.398-3.699-0.398-5.565v-1.039c0-0.803,0.227-1.565,0.627-2.213
		c0.512-0.831,0.767-1.794,0.767-2.771V7.447c0-0.128,0.103-0.231,0.231-0.231h2.958c0.128,0,0.231,0.103,0.231,0.231v0.591
		c0,0.495,0.411,0.89,0.906,0.873c1.262-0.042,2.544,0.099,3.846,0.419C21.064,9.792,22.378,11.482,22.378,13.413z"/>
	<path class="st7" d="M20.39,12.515v3.122c0,0.463-0.375,0.838-0.838,0.838h-7.103c-0.463,0-0.838-0.376-0.838-0.838v-3.122
		c0-0.463,0.375-0.838,0.838-0.838h7.103C20.015,11.677,20.39,12.052,20.39,12.515z"/>
	<rect x="12.361" y="12.524" class="st8" width="7.278" height="3.105"/>
	<path class="st7" d="M14.123,19.069l-0.156,0.463c-0.151,0.445-0.569,0.745-1.039,0.745h-1.393c-0.149,0-0.254-0.146-0.206-0.287
		l0.156-0.462c0.151-0.446,0.569-0.746,1.039-0.746h1.393C14.065,18.782,14.17,18.928,14.123,19.069z"/>
	<path class="st7" d="M17.877,19.069l0.156,0.463c0.151,0.445,0.569,0.745,1.039,0.745h1.393c0.149,0,0.254-0.146,0.206-0.287
		l-0.156-0.462c-0.151-0.446-0.569-0.746-1.039-0.746h-1.393C17.935,18.782,17.83,18.928,17.877,19.069z"/>
	<path class="st7" d="M16.484,22.436l0.156,0.463c0.151,0.445,0.569,0.745,1.039,0.745h1.393c0.149,0,0.254-0.146,0.206-0.287
		l-0.156-0.462c-0.151-0.446-0.569-0.746-1.039-0.746H16.69C16.542,22.149,16.437,22.295,16.484,22.436z"/>
	<path class="st7" d="M15.516,22.436l-0.156,0.463c-0.151,0.445-0.569,0.745-1.039,0.745h-1.393c-0.149,0-0.254-0.146-0.206-0.287
		l0.156-0.462c0.151-0.446,0.569-0.746,1.039-0.746h1.393C15.458,22.149,15.563,22.295,15.516,22.436z"/>
	<circle class="st7" cx="16" cy="19.72" r="1.512"/>
	<path class="st30" d="M17.512,19.72c0,0.835-0.677,1.512-1.512,1.512c-0.549,0-1.029-0.292-1.294-0.729
		c0.229,0.139,0.497,0.219,0.784,0.219c0.835,0,1.512-0.677,1.512-1.512c0-0.287-0.08-0.555-0.219-0.783
		C17.22,18.692,17.512,19.172,17.512,19.72z"/>
	<circle class="st7" cx="15.577" cy="25.274" r="0.24"/>
	<circle class="st7" cx="16.423" cy="25.274" r="0.24"/>
	<circle class="st7" cx="14.73" cy="26.092" r="0.24"/>
	<circle class="st7" cx="15.577" cy="26.092" r="0.24"/>
	<circle class="st7" cx="16.423" cy="26.092" r="0.24"/>
	<circle class="st7" cx="17.27" cy="26.092" r="0.24"/>
	<circle class="st7" cx="13.883" cy="26.911" r="0.24"/>
	<circle class="st7" cx="14.73" cy="26.911" r="0.24"/>
	<circle class="st7" cx="15.577" cy="26.911" r="0.24"/>
	<circle class="st7" cx="16.423" cy="26.911" r="0.24"/>
	<circle class="st7" cx="17.27" cy="26.911" r="0.24"/>
	<circle class="st7" cx="18.117" cy="26.911" r="0.24"/>
	<circle class="st7" cx="13.883" cy="27.73" r="0.24"/>
	<circle class="st7" cx="14.73" cy="27.73" r="0.24"/>
	<circle class="st7" cx="15.577" cy="27.73" r="0.24"/>
	<circle class="st7" cx="16.423" cy="27.73" r="0.24"/>
	<circle class="st7" cx="17.27" cy="27.73" r="0.24"/>
	<circle class="st7" cx="18.117" cy="27.73" r="0.24"/>
	<circle class="st7" cx="14.73" cy="28.548" r="0.24"/>
	<circle class="st7" cx="15.577" cy="28.548" r="0.24"/>
	<circle class="st7" cx="16.423" cy="28.548" r="0.24"/>
	<circle class="st7" cx="17.27" cy="28.548" r="0.24"/>
	<circle class="st7" cx="15.577" cy="29.367" r="0.24"/>
	<circle class="st7" cx="16.423" cy="29.367" r="0.24"/>
	<polygon class="st10" points="13.965,12.524 12.361,14.128 12.361,15.598 15.435,12.524 	"/>
	<polygon class="st10" points="15.954,12.524 12.849,15.629 13.385,15.629 16.49,12.524 	"/>
</g>
</svg>
