<?xml version="1.0" encoding="utf-8"?>
<!-- Generator: Adobe Illustrator 21.1.0, SVG Export Plug-In . SVG Version: 6.00 Build 0)  -->
<svg version="1.1" id="Layer_1" xmlns="http://www.w3.org/2000/svg" xmlns:xlink="http://www.w3.org/1999/xlink" x="0px" y="0px"
	 viewBox="0 0 32 32" style="enable-background:new 0 0 32 32;" xml:space="preserve">
<style type="text/css">
	.st0{fill:#E9EFF4;}
	.st1{fill:#BBC7D1;}
	.st2{fill:#E24B4B;}
	.st3{fill:#D23F77;}
	.st4{fill:#D3D9DD;}
	.st5{fill:#E84D88;}
	.st6{fill:#DEE4E9;}
	.st7{fill:#3E4347;}
	.st8{fill:#65B1EF;}
	.st9{fill:#FFFFFF;}
	.st10{fill:#59A5E0;}
	.st11{opacity:0.15;fill:#FFFFFF;}
	.st12{fill:#D03F3F;}
	.st13{opacity:0.15;}
	.st14{fill:#E9B02C;}
	.st15{fill:#F4C534;}
	.st16{opacity:0.5;}
	.st17{fill:#FFD93B;}
	.st18{fill:#353A3D;}
	.st19{fill:#777B7E;}
	.st20{fill:#5A5F63;}
	.st21{fill:#4E99D2;}
	.st22{fill:#CBD6E0;}
	.st23{fill:#6B503B;}
	.st24{fill:#89664C;}
	.st25{fill:#8F6D52;}
	.st26{fill:#A5856D;}
	.st27{fill:#C2CACE;}
	.st28{fill:#BF3333;}
	.st29{fill:#DAE5EF;}
	.st30{fill:#373C3F;}
	.st31{fill:#8CC63E;}
	.st32{fill:#7FB239;}
	.st33{opacity:0.7;}
	.st34{fill:#32373A;}
	.st35{opacity:0.1;fill:#FFFFFF;}
	.st36{opacity:0.5;fill:#DAE5EF;}
	.st37{fill:#8D9BA3;}
	.st38{fill:#7A5B44;}
	.st39{opacity:0.2;fill:#FFFFFF;}
	.st40{fill:#45CBEA;}
	.st41{opacity:0.1;}
	.st42{fill:#7B8B92;}
	.st43{fill:#ACB9C1;}
	.st44{fill:#846144;}
	.st45{fill:#9A795F;}
	.st46{opacity:0.2;}
	.st47{fill:#719D34;}
	.st48{fill:#31373A;}
	.st49{fill:#FFDE55;}
	.st50{fill:#CF7519;}
	.st51{fill:none;stroke:#D03F3F;stroke-width:36;stroke-miterlimit:10;}
	.st52{fill:#F29A2E;}
	.st53{opacity:0.25;}
	.st54{fill:#E18823;}
	.st55{opacity:0.5;fill:#E18823;}
	.st56{opacity:0.2;fill:#5A5F63;}
	.st57{fill:#64892F;}
</style>
<g>
	<g>
		<g>
			<g>
				<path class="st22" d="M31.867,10.359l-8.131,17.875c-0.333,0.731-1.194,1.06-1.932,0.724L9.967,23.573
					c-0.731-0.333-1.057-1.201-0.724-1.932l8.131-17.875c0.336-0.738,1.201-1.057,1.932-0.724l11.837,5.385
					C31.881,8.763,32.203,9.621,31.867,10.359z"/>
			</g>
			<g>
				<g>
					<g>
						<path class="st7" d="M20.172,8.528l-0.541-0.246l0.039-0.657l-0.985-0.448l-0.458,0.467L17.7,7.404l2.08-2.027l0.526,0.239
							L20.172,8.528z M19.699,7.137l0.076-1.069l-0.749,0.763L19.699,7.137z"/>
					</g>
				</g>
				<g>
					<g>
						<path class="st7" d="M23.691,24.187l-0.541-0.246l0.039-0.657l-0.985-0.448l-0.458,0.467l-0.528-0.24l2.08-2.027l0.526,0.239
							L23.691,24.187z M23.219,22.796l0.076-1.069l-0.749,0.763L23.219,22.796z"/>
					</g>
				</g>
			</g>
		</g>
		<g>
			<path class="st7" d="M23.038,17.741c-0.347,0.764-1.262,1.106-2.032,0.756c-0.378-0.172-0.655-0.484-0.794-0.841
				c-0.206,0.572-0.245,1.321-0.065,2.084l-2.149-0.978c0.697-0.357,1.236-0.878,1.525-1.412c-0.361,0.13-0.768,0.123-1.147-0.049
				c-0.776-0.353-1.113-1.265-0.765-2.029c0.768-1.687,4.418-2.528,4.418-2.528S23.806,16.054,23.038,17.741z"/>
		</g>
		<g>
			<path class="st7" d="M19.036,10.318c-0.126,0.277-0.458,0.402-0.738,0.275c-0.137-0.063-0.238-0.176-0.289-0.306
				c-0.075,0.208-0.089,0.48-0.024,0.757l-0.781-0.355c0.253-0.13,0.449-0.319,0.554-0.513c-0.131,0.047-0.279,0.045-0.417-0.018
				c-0.282-0.128-0.404-0.459-0.278-0.737c0.279-0.613,1.605-0.918,1.605-0.918S19.315,9.705,19.036,10.318z"/>
		</g>
		<g>
			<path class="st7" d="M22.502,25.953c-0.126,0.277-0.458,0.402-0.738,0.275c-0.137-0.063-0.238-0.176-0.289-0.306
				c-0.075,0.208-0.089,0.48-0.024,0.757l-0.781-0.355c0.253-0.13,0.449-0.319,0.554-0.513c-0.131,0.047-0.279,0.045-0.417-0.018
				c-0.282-0.128-0.404-0.459-0.278-0.737c0.279-0.613,1.605-0.918,1.605-0.918S22.781,25.34,22.502,25.953z"/>
		</g>
	</g>
	<g>
		<g>
			<path class="st29" d="M15.922,7.993V27.63c0,0.803-0.648,1.459-1.459,1.459H1.459C0.655,29.089,0,28.434,0,27.63V7.993
				c0-0.811,0.655-1.459,1.459-1.459h13.005C15.274,6.534,15.922,7.183,15.922,7.993z"/>
		</g>
		<g>
			<path class="st2" d="M10.942,16.514c0,1.848-2.978,4.126-2.978,4.126S4.98,18.362,4.98,16.514c0-0.843,0.687-1.53,1.536-1.53
				c0.668,0,1.236,0.425,1.448,1.018c0.206-0.593,0.774-1.018,1.442-1.018C10.255,14.984,10.942,15.671,10.942,16.514z"/>
		</g>
		<g>
			<g>
				<g>
					<path class="st2" d="M4.453,12.471c0,0.848-1.367,1.894-1.367,1.894s-1.37-1.046-1.37-1.894c0-0.387,0.315-0.702,0.705-0.702
						c0.307,0,0.567,0.195,0.665,0.467c0.095-0.272,0.355-0.467,0.662-0.467C4.138,11.769,4.453,12.084,4.453,12.471z"/>
				</g>
				<g>
					<path class="st7" d="M4.519,11.169H3.924l-0.236-0.615H2.606l-0.223,0.615h-0.58l1.054-2.707h0.578L4.519,11.169z
						 M3.513,10.099L3.14,9.094l-0.366,1.004H3.513z"/>
				</g>
			</g>
			<g>
				<g>
					<path class="st2" d="M14.141,25.267c0,0.848-1.367,1.894-1.367,1.894s-1.37-1.046-1.37-1.894c0-0.387,0.315-0.702,0.705-0.702
						c0.307,0,0.567,0.195,0.665,0.467c0.095-0.272,0.355-0.467,0.662-0.467C13.825,24.565,14.141,24.88,14.141,25.267z"/>
				</g>
				<g>
					<path class="st7" d="M14.206,23.965h-0.594l-0.236-0.615h-1.082l-0.223,0.615h-0.58l1.054-2.707h0.578L14.206,23.965z
						 M13.2,22.895l-0.373-1.004l-0.366,1.004H13.2z"/>
				</g>
			</g>
		</g>
	</g>
</g>
</svg>
