<?xml version="1.0" encoding="utf-8"?>
<!-- Generator: Adobe Illustrator 21.1.0, SVG Export Plug-In . SVG Version: 6.00 Build 0)  -->
<svg version="1.1" id="Layer_1" xmlns="http://www.w3.org/2000/svg" xmlns:xlink="http://www.w3.org/1999/xlink" x="0px" y="0px"
	 viewBox="0 0 32 32" style="enable-background:new 0 0 32 32;" xml:space="preserve">
<style type="text/css">
	.st0{fill:#E9EFF4;}
	.st1{fill:#BBC7D1;}
	.st2{fill:#E24B4B;}
	.st3{fill:#D23F77;}
	.st4{fill:#D3D9DD;}
	.st5{fill:#E84D88;}
	.st6{fill:#DEE4E9;}
	.st7{fill:#3E4347;}
	.st8{fill:#65B1EF;}
	.st9{fill:#FFFFFF;}
	.st10{fill:#59A5E0;}
	.st11{opacity:0.15;fill:#FFFFFF;}
	.st12{fill:#D03F3F;}
	.st13{opacity:0.15;}
	.st14{fill:#E9B02C;}
	.st15{fill:#F4C534;}
	.st16{opacity:0.5;}
	.st17{fill:#FFD93B;}
	.st18{fill:#353A3D;}
	.st19{fill:#777B7E;}
	.st20{fill:#5A5F63;}
	.st21{fill:#4E99D2;}
	.st22{fill:#CBD6E0;}
	.st23{fill:#6B503B;}
	.st24{fill:#89664C;}
	.st25{fill:#8F6D52;}
	.st26{fill:#A5856D;}
	.st27{fill:#C2CACE;}
	.st28{fill:#BF3333;}
	.st29{fill:#DAE5EF;}
	.st30{fill:#373C3F;}
	.st31{fill:#8CC63E;}
	.st32{fill:#7FB239;}
	.st33{opacity:0.7;}
	.st34{fill:#32373A;}
	.st35{opacity:0.1;fill:#FFFFFF;}
	.st36{opacity:0.5;fill:#DAE5EF;}
	.st37{fill:#8D9BA3;}
	.st38{fill:#7A5B44;}
	.st39{opacity:0.2;fill:#FFFFFF;}
	.st40{fill:#45CBEA;}
	.st41{opacity:0.1;}
	.st42{fill:#7B8B92;}
	.st43{fill:#ACB9C1;}
	.st44{fill:#846144;}
	.st45{fill:#9A795F;}
	.st46{opacity:0.2;}
	.st47{fill:#719D34;}
	.st48{fill:#31373A;}
	.st49{fill:#FFDE55;}
	.st50{fill:#CF7519;}
	.st51{fill:none;stroke:#D03F3F;stroke-width:36;stroke-miterlimit:10;}
	.st52{fill:#F29A2E;}
	.st53{opacity:0.25;}
	.st54{fill:#E18823;}
	.st55{opacity:0.5;fill:#E18823;}
	.st56{opacity:0.2;fill:#5A5F63;}
	.st57{fill:#64892F;}
</style>
<g>
	<g>
		<g>
			<g>
				<polygon class="st20" points="17.534,23.304 17.04,23.304 18.312,27.295 18.76,27.153 				"/>
			</g>
			<g>
				<polygon class="st20" points="14.465,23.304 13.239,27.153 13.687,27.295 14.958,23.304 				"/>
			</g>
		</g>
		<g>
			<g>
				<rect x="15.763" y="23.304" class="st20" width="0.471" height="3.92"/>
			</g>
		</g>
	</g>
	<g>
		<g>
			<g>
				<g>
					<path class="st2" d="M13.932,23.357h4.136c0,0,8.041-8.374,8.041-13.248C26.108,4.526,21.583,0,16,0S5.892,4.526,5.892,10.108
						C5.892,14.982,13.932,23.357,13.932,23.357z"/>
				</g>
			</g>
			<g>
				<g>
					<path class="st17" d="M14.638,23.357h2.724c0,0,5.296-8.374,5.296-13.248C22.658,4.526,19.677,0,16,0S9.342,4.526,9.342,10.108
						C9.342,14.982,14.638,23.357,14.638,23.357z"/>
				</g>
			</g>
			<g>
				<g>
					<path class="st2" d="M15.483,23.357h1.034c0,0,2.011-8.374,2.011-13.248C18.528,4.526,17.396,0,16,0s-2.528,4.526-2.528,10.108
						C13.472,14.982,15.483,23.357,15.483,23.357z"/>
				</g>
			</g>
		</g>
		<g>
			<g>
				<path class="st0" d="M21.367,19.501c-1.317,1.689-2.395,3.273-2.843,3.931c-0.143,0.21-0.372,0.334-0.63,0.334h-3.788
					c-0.258,0-0.487-0.124-0.63-0.334c-0.448-0.668-1.517-2.242-2.843-3.931C14.086,20.513,17.664,20.551,21.367,19.501z"/>
			</g>
		</g>
	</g>
	<g>
		<g>
			<path class="st25" d="M19.23,27.043v3.91c0,0.574-0.473,1.047-1.047,1.047h-4.366c-0.574,0-1.047-0.473-1.047-1.047v-3.91H19.23z
				"/>
		</g>
		<g>
			<path class="st45" d="M19.863,26.834c0,0.27-0.216,0.496-0.496,0.496h-6.734c-0.27,0-0.497-0.227-0.497-0.496
				c0-0.281,0.227-0.496,0.497-0.496h6.734C19.648,26.337,19.863,26.553,19.863,26.834z"/>
		</g>
	</g>
</g>
</svg>
