<?xml version="1.0" encoding="utf-8"?>
<!-- Generator: Adobe Illustrator 21.1.0, SVG Export Plug-In . SVG Version: 6.00 Build 0)  -->
<svg version="1.1" id="Layer_1" xmlns="http://www.w3.org/2000/svg" xmlns:xlink="http://www.w3.org/1999/xlink" x="0px" y="0px"
	 viewBox="0 0 32 32" style="enable-background:new 0 0 32 32;" xml:space="preserve">
<style type="text/css">
	.st0{fill:#E9EFF4;}
	.st1{fill:#BBC7D1;}
	.st2{fill:#E24B4B;}
	.st3{fill:#D23F77;}
	.st4{fill:#D3D9DD;}
	.st5{fill:#E84D88;}
	.st6{fill:#DEE4E9;}
	.st7{fill:#3E4347;}
	.st8{fill:#65B1EF;}
	.st9{fill:#FFFFFF;}
	.st10{fill:#59A5E0;}
	.st11{opacity:0.15;fill:#FFFFFF;}
	.st12{fill:#D03F3F;}
	.st13{opacity:0.15;}
	.st14{fill:#E9B02C;}
	.st15{fill:#F4C534;}
	.st16{opacity:0.5;}
	.st17{fill:#FFD93B;}
	.st18{fill:#353A3D;}
	.st19{fill:#777B7E;}
	.st20{fill:#5A5F63;}
	.st21{fill:#4E99D2;}
	.st22{fill:#CBD6E0;}
	.st23{fill:#6B503B;}
	.st24{fill:#89664C;}
	.st25{fill:#8F6D52;}
	.st26{fill:#A5856D;}
	.st27{fill:#C2CACE;}
	.st28{fill:#BF3333;}
	.st29{fill:#DAE5EF;}
	.st30{fill:#373C3F;}
	.st31{fill:#8CC63E;}
	.st32{fill:#7FB239;}
	.st33{opacity:0.7;}
	.st34{fill:#32373A;}
	.st35{opacity:0.1;fill:#FFFFFF;}
	.st36{opacity:0.5;fill:#DAE5EF;}
	.st37{fill:#8D9BA3;}
	.st38{fill:#7A5B44;}
	.st39{opacity:0.2;fill:#FFFFFF;}
	.st40{fill:#45CBEA;}
	.st41{opacity:0.1;}
	.st42{fill:#7B8B92;}
	.st43{fill:#ACB9C1;}
	.st44{fill:#846144;}
	.st45{fill:#9A795F;}
	.st46{opacity:0.2;}
	.st47{fill:#719D34;}
	.st48{fill:#31373A;}
	.st49{fill:#FFDE55;}
	.st50{fill:#CF7519;}
	.st51{fill:none;stroke:#D03F3F;stroke-width:36;stroke-miterlimit:10;}
	.st52{fill:#F29A2E;}
	.st53{opacity:0.25;}
	.st54{fill:#E18823;}
	.st55{opacity:0.5;fill:#E18823;}
	.st56{opacity:0.2;fill:#5A5F63;}
	.st57{fill:#64892F;}
</style>
<g>
	<path class="st22" d="M16,7.241c-1.996,0-3.62-1.624-3.62-3.621S14.004,0,16,0s3.621,1.624,3.621,3.621S17.996,7.241,16,7.241z
		 M16,1.351c-1.251,0-2.269,1.018-2.269,2.27S14.749,5.89,16,5.89c1.252,0,2.27-1.018,2.27-2.27S17.252,1.351,16,1.351z"/>
	<path class="st6" d="M17.267,8.526V5.676c0-0.697-0.565-1.261-1.261-1.261c-0.696,0-1.261,0.564-1.261,1.261v2.849H17.267z"/>
	<circle class="st8" cx="16" cy="19.683" r="12.317"/>
	<circle class="st9" cx="16" cy="19.683" r="9.771"/>
	<g>
		<path class="st6" d="M13.955,11.173l0.275,1.027c0.031,0.116-0.04,0.239-0.162,0.272s-0.246-0.038-0.277-0.154l-0.275-1.027
			c-0.033-0.123,0.038-0.245,0.161-0.278C13.799,10.979,13.922,11.05,13.955,11.173z"/>
	</g>
	<g>
		<path class="st6" d="M18.211,27.054l0.275,1.027c0.031,0.116-0.04,0.239-0.162,0.272c-0.123,0.033-0.246-0.038-0.277-0.154
			l-0.275-1.027c-0.033-0.123,0.038-0.245,0.161-0.278C18.055,26.861,18.178,26.932,18.211,27.054z"/>
	</g>
	<g>
		<path class="st6" d="M11.822,11.992l0.532,0.921c0.06,0.104,0.023,0.241-0.087,0.305c-0.11,0.064-0.247,0.027-0.307-0.077
			l-0.532-0.921c-0.064-0.11-0.027-0.247,0.083-0.311C11.622,11.845,11.759,11.882,11.822,11.992z"/>
	</g>
	<g>
		<path class="st6" d="M20.043,26.231l0.532,0.921c0.06,0.104,0.023,0.241-0.087,0.305s-0.247,0.027-0.307-0.077l-0.532-0.921
			c-0.064-0.11-0.027-0.247,0.083-0.311S19.98,26.121,20.043,26.231z"/>
	</g>
	<g>
		<path class="st6" d="M8.537,15.111l0.921,0.532c0.104,0.06,0.141,0.197,0.077,0.307c-0.064,0.11-0.201,0.147-0.305,0.087
			l-0.921-0.532c-0.11-0.064-0.147-0.201-0.083-0.311C8.29,15.084,8.427,15.048,8.537,15.111z"/>
	</g>
	<g>
		<path class="st6" d="M22.776,23.332l0.921,0.532c0.104,0.06,0.141,0.197,0.077,0.307c-0.064,0.11-0.201,0.147-0.305,0.087
			l-0.921-0.532c-0.11-0.064-0.147-0.201-0.083-0.311S22.666,23.269,22.776,23.332z"/>
	</g>
	<g>
		<path class="st6" d="M7.608,17.198l1.027,0.275c0.116,0.031,0.187,0.154,0.154,0.277c-0.033,0.123-0.156,0.194-0.272,0.163
			L7.49,17.638c-0.123-0.033-0.194-0.156-0.161-0.278C7.362,17.237,7.485,17.166,7.608,17.198z"/>
	</g>
	<g>
		<path class="st6" d="M23.49,21.454l1.027,0.275c0.116,0.031,0.187,0.154,0.154,0.277c-0.033,0.123-0.156,0.194-0.272,0.163
			l-1.027-0.275c-0.123-0.033-0.194-0.156-0.161-0.278C23.244,21.492,23.367,21.421,23.49,21.454z"/>
	</g>
	<g>
		<path class="st6" d="M7.49,21.727l1.027-0.275c0.116-0.031,0.239,0.04,0.272,0.162c0.033,0.123-0.038,0.246-0.154,0.277
			l-1.027,0.275c-0.123,0.033-0.245-0.038-0.278-0.161C7.296,21.883,7.367,21.76,7.49,21.727z"/>
	</g>
	<g>
		<path class="st6" d="M23.372,17.472l1.027-0.275c0.116-0.031,0.239,0.04,0.272,0.162c0.033,0.123-0.038,0.246-0.154,0.277
			l-1.027,0.275c-0.123,0.033-0.245-0.038-0.278-0.161C23.178,17.628,23.249,17.505,23.372,17.472z"/>
	</g>
	<g>
		<path class="st6" d="M8.309,23.86l0.921-0.532c0.104-0.06,0.241-0.023,0.305,0.087c0.064,0.11,0.027,0.247-0.077,0.307
			l-0.921,0.532c-0.11,0.064-0.247,0.027-0.311-0.083C8.163,24.061,8.199,23.924,8.309,23.86z"/>
	</g>
	<g>
		<path class="st6" d="M22.548,15.639l0.921-0.532c0.104-0.06,0.241-0.023,0.305,0.087s0.027,0.247-0.077,0.307l-0.921,0.532
			c-0.11,0.064-0.247,0.027-0.311-0.083C22.402,15.84,22.438,15.703,22.548,15.639z"/>
	</g>
	<g>
		<path class="st6" d="M11.428,27.146l0.532-0.921c0.06-0.104,0.197-0.141,0.307-0.077s0.147,0.201,0.087,0.305l-0.532,0.921
			c-0.064,0.11-0.201,0.147-0.311,0.083S11.365,27.256,11.428,27.146z"/>
	</g>
	<g>
		<path class="st6" d="M19.65,12.907l0.532-0.921c0.06-0.104,0.197-0.141,0.307-0.077c0.11,0.064,0.147,0.201,0.087,0.305
			l-0.532,0.921c-0.064,0.11-0.201,0.147-0.311,0.083C19.623,13.154,19.586,13.017,19.65,12.907z"/>
	</g>
	<g>
		<path class="st6" d="M13.516,28.075l0.275-1.027c0.031-0.116,0.154-0.187,0.277-0.154c0.123,0.033,0.194,0.156,0.163,0.272
			l-0.275,1.027c-0.033,0.123-0.156,0.194-0.278,0.161C13.554,28.32,13.483,28.198,13.516,28.075z"/>
	</g>
	<g>
		<path class="st6" d="M17.771,12.193l0.275-1.027c0.031-0.116,0.154-0.187,0.277-0.154c0.123,0.033,0.194,0.156,0.163,0.272
			l-0.275,1.027c-0.033,0.123-0.156,0.194-0.278,0.161C17.81,12.438,17.739,12.316,17.771,12.193z"/>
	</g>
	<path class="st4" d="M16.227,10.933v1.896c0,0.12-0.1,0.221-0.227,0.221c-0.127,0-0.227-0.1-0.227-0.221v-1.896
		c0-0.127,0.1-0.227,0.227-0.227C16.127,10.706,16.227,10.806,16.227,10.933z"/>
	<path class="st4" d="M9.974,13.335l1.34,1.34c0.085,0.085,0.085,0.227-0.005,0.317s-0.232,0.09-0.317,0.005l-1.34-1.34
		c-0.09-0.09-0.09-0.232,0-0.321S9.884,13.245,9.974,13.335z"/>
	<path class="st4" d="M7.251,19.455h1.896c0.12,0,0.221,0.1,0.221,0.227c0,0.127-0.1,0.227-0.221,0.227H7.251
		c-0.127,0-0.227-0.1-0.227-0.227C7.023,19.556,7.124,19.455,7.251,19.455z"/>
	<path class="st4" d="M9.653,25.708l1.34-1.34c0.085-0.085,0.227-0.085,0.317,0.005c0.09,0.09,0.09,0.232,0.005,0.317l-1.34,1.34
		c-0.09,0.09-0.232,0.09-0.321,0C9.563,25.94,9.563,25.798,9.653,25.708z"/>
	<path class="st4" d="M15.773,28.432v-1.896c0-0.12,0.1-0.221,0.227-0.221s0.227,0.1,0.227,0.221v1.896
		c0,0.127-0.1,0.227-0.227,0.227S15.773,28.559,15.773,28.432z"/>
	<path class="st4" d="M22.026,26.03l-1.34-1.34c-0.085-0.085-0.085-0.227,0.005-0.317c0.09-0.09,0.232-0.09,0.317-0.005l1.34,1.34
		c0.09,0.09,0.09,0.232,0,0.321C22.258,26.12,22.116,26.12,22.026,26.03z"/>
	<path class="st4" d="M24.749,19.91h-1.896c-0.12,0-0.221-0.1-0.221-0.227c0-0.127,0.1-0.227,0.221-0.227h1.896
		c0.127,0,0.227,0.1,0.227,0.227C24.977,19.81,24.876,19.91,24.749,19.91z"/>
	<path class="st4" d="M22.347,13.657l-1.34,1.34c-0.085,0.085-0.227,0.085-0.317-0.005c-0.09-0.09-0.09-0.232-0.005-0.317l1.34-1.34
		c0.09-0.09,0.232-0.09,0.321,0C22.437,13.425,22.437,13.567,22.347,13.657z"/>
	<polyline class="st20" points="17.75,21.438 11.714,23.944 14.237,17.93 	"/>
	<polyline class="st19" points="15.315,19.002 11.715,23.943 14.24,17.928 	"/>
	<polyline class="st7" points="17.751,21.436 11.715,23.943 16.676,20.362 	"/>
	<polyline class="st12" points="14.237,17.93 20.277,15.42 17.75,21.438 	"/>
	<polyline class="st2" points="14.24,17.928 20.276,15.421 15.315,19.002 	"/>
	<polyline class="st28" points="16.676,20.362 20.276,15.421 17.751,21.436 	"/>
	
		<ellipse transform="matrix(0.7071 -0.7071 0.7071 0.7071 -9.2313 17.0789)" class="st0" cx="16" cy="19.683" rx="2.794" ry="2.794"/>
	
		<ellipse transform="matrix(0.7071 -0.7071 0.7071 0.7071 -9.2313 17.0789)" class="st1" cx="16" cy="19.683" rx="1.276" ry="1.276"/>
</g>
</svg>
