<?xml version="1.0" encoding="utf-8"?>
<!-- Generator: Adobe Illustrator 21.1.0, SVG Export Plug-In . SVG Version: 6.00 Build 0)  -->
<svg version="1.1" id="Layer_1" xmlns="http://www.w3.org/2000/svg" xmlns:xlink="http://www.w3.org/1999/xlink" x="0px" y="0px"
	 viewBox="0 0 32 32" style="enable-background:new 0 0 32 32;" xml:space="preserve">
<style type="text/css">
	.st0{fill:#E9EFF4;}
	.st1{fill:#BBC7D1;}
	.st2{fill:#E24B4B;}
	.st3{fill:#D23F77;}
	.st4{fill:#D3D9DD;}
	.st5{fill:#E84D88;}
	.st6{fill:#DEE4E9;}
	.st7{fill:#3E4347;}
	.st8{fill:#65B1EF;}
	.st9{fill:#FFFFFF;}
	.st10{fill:#59A5E0;}
	.st11{opacity:0.15;fill:#FFFFFF;}
	.st12{fill:#D03F3F;}
	.st13{opacity:0.15;}
	.st14{fill:#E9B02C;}
	.st15{fill:#F4C534;}
	.st16{opacity:0.5;}
	.st17{fill:#FFD93B;}
	.st18{fill:#353A3D;}
	.st19{fill:#777B7E;}
	.st20{fill:#5A5F63;}
	.st21{fill:#4E99D2;}
	.st22{fill:#CBD6E0;}
	.st23{fill:#6B503B;}
	.st24{fill:#89664C;}
	.st25{fill:#8F6D52;}
	.st26{fill:#A5856D;}
	.st27{fill:#C2CACE;}
	.st28{fill:#BF3333;}
	.st29{fill:#DAE5EF;}
	.st30{fill:#373C3F;}
	.st31{fill:#8CC63E;}
	.st32{fill:#7FB239;}
	.st33{opacity:0.7;}
	.st34{fill:#32373A;}
	.st35{opacity:0.1;fill:#FFFFFF;}
	.st36{opacity:0.5;fill:#DAE5EF;}
	.st37{fill:#8D9BA3;}
	.st38{fill:#7A5B44;}
	.st39{opacity:0.2;fill:#FFFFFF;}
	.st40{fill:#45CBEA;}
	.st41{opacity:0.1;}
	.st42{fill:#7B8B92;}
	.st43{fill:#ACB9C1;}
	.st44{fill:#846144;}
	.st45{fill:#9A795F;}
	.st46{opacity:0.2;}
	.st47{fill:#719D34;}
	.st48{fill:#31373A;}
	.st49{fill:#FFDE55;}
	.st50{fill:#CF7519;}
	.st51{fill:none;stroke:#D03F3F;stroke-width:36;stroke-miterlimit:10;}
	.st52{fill:#F29A2E;}
	.st53{opacity:0.25;}
	.st54{fill:#E18823;}
	.st55{opacity:0.5;fill:#E18823;}
	.st56{opacity:0.2;fill:#5A5F63;}
	.st57{fill:#64892F;}
</style>
<g>
	<g>
		<path class="st0" d="M27.992,14.66l3.962,15.705C32.178,31.253,31.564,32,30.571,32H1.4c-0.994,0-1.595-0.747-1.342-1.635
			L4.524,14.66c0.133-0.469,0.81-0.84,1.508-0.84h20.486C27.217,13.821,27.873,14.192,27.992,14.66z"/>
		<polygon class="st0" points="2.686,29.725 6.257,15.019 26.248,15.019 29.346,29.725 		"/>
		<polygon class="st26" points="21.524,15.019 14.358,15.019 19.461,17.383 		"/>
		<polygon class="st17" points="18.551,18.42 11.431,15.019 6.257,15.019 5.017,20.122 14.697,22.834 		"/>
		<polygon class="st31" points="23.466,15.019 16.555,23.355 28.721,26.759 26.248,15.019 		"/>
		<polygon class="st17" points="11.275,29.725 29.346,29.725 29.127,28.683 15.42,24.721 		"/>
		<polygon class="st31" points="4.656,21.61 2.686,29.725 8.678,29.725 13.526,24.172 		"/>
		<polygon class="st7" points="28.721,26.759 16.555,23.355 23.466,15.019 21.524,15.019 19.461,17.383 14.358,15.019 
			11.431,15.019 18.551,18.42 14.697,22.834 5.017,20.122 4.656,21.61 13.526,24.172 8.678,29.725 11.275,29.725 15.42,24.721 
			29.127,28.683 		"/>
	</g>
	<g>
		<path class="st2" d="M16.026,0c-4.207,0-7.608,3.401-7.608,7.596c0,6.193,7.608,14.893,7.608,14.893s7.596-8.7,7.596-14.893
			C23.622,3.401,20.221,0,16.026,0z M16.026,10.847c-1.812,0-3.252-1.44-3.252-3.252c0-1.8,1.44-3.239,3.252-3.239
			c1.8,0,3.239,1.44,3.239,3.239C19.266,9.408,17.826,10.847,16.026,10.847z"/>
		<path class="st17" d="M20.663,7.595c0-2.564-2.072-4.636-4.636-4.636c-2.579,0-4.651,2.072-4.651,4.636
			c0,2.579,2.072,4.651,4.651,4.651C18.591,12.245,20.663,10.173,20.663,7.595z M13.085,7.596c0-1.626,1.303-2.929,2.941-2.929
			c1.626,0,2.929,1.303,2.929,2.929c0,1.638-1.303,2.941-2.929,2.941C14.388,10.537,13.085,9.234,13.085,7.596z"/>
		<path class="st12" d="M16.026,22.489c0,0,7.596-8.7,7.596-14.893c0-1.793-0.625-3.437-1.663-4.736
			c0.102,0.24,3.229,11.101-9.735,14.507h0C14.125,20.315,16.026,22.489,16.026,22.489z"/>
	</g>
</g>
</svg>
