<?xml version="1.0" encoding="utf-8"?>
<!-- Generator: Adobe Illustrator 21.1.0, SVG Export Plug-In . SVG Version: 6.00 Build 0)  -->
<svg version="1.1" id="Layer_1" xmlns="http://www.w3.org/2000/svg" xmlns:xlink="http://www.w3.org/1999/xlink" x="0px" y="0px"
	 viewBox="0 0 32 32" style="enable-background:new 0 0 32 32;" xml:space="preserve">
<style type="text/css">
	.st0{fill:#E9EFF4;}
	.st1{fill:#BBC7D1;}
	.st2{fill:#E24B4B;}
	.st3{fill:#D23F77;}
	.st4{fill:#D3D9DD;}
	.st5{fill:#E84D88;}
	.st6{fill:#DEE4E9;}
	.st7{fill:#3E4347;}
	.st8{fill:#65B1EF;}
	.st9{fill:#FFFFFF;}
	.st10{fill:#59A5E0;}
	.st11{opacity:0.15;fill:#FFFFFF;}
	.st12{fill:#D03F3F;}
	.st13{opacity:0.15;}
	.st14{fill:#E9B02C;}
	.st15{fill:#F4C534;}
	.st16{opacity:0.5;}
	.st17{fill:#FFD93B;}
	.st18{fill:#353A3D;}
	.st19{fill:#777B7E;}
	.st20{fill:#5A5F63;}
	.st21{fill:#4E99D2;}
	.st22{fill:#CBD6E0;}
	.st23{fill:#6B503B;}
	.st24{fill:#89664C;}
	.st25{fill:#8F6D52;}
	.st26{fill:#A5856D;}
	.st27{fill:#C2CACE;}
	.st28{fill:#BF3333;}
	.st29{fill:#DAE5EF;}
	.st30{fill:#373C3F;}
	.st31{fill:#8CC63E;}
	.st32{fill:#7FB239;}
	.st33{opacity:0.7;}
	.st34{fill:#32373A;}
	.st35{opacity:0.1;fill:#FFFFFF;}
	.st36{opacity:0.5;fill:#DAE5EF;}
	.st37{fill:#8D9BA3;}
	.st38{fill:#7A5B44;}
	.st39{opacity:0.2;fill:#FFFFFF;}
	.st40{fill:#45CBEA;}
	.st41{opacity:0.1;}
	.st42{fill:#7B8B92;}
	.st43{fill:#ACB9C1;}
	.st44{fill:#846144;}
	.st45{fill:#9A795F;}
	.st46{opacity:0.2;}
	.st47{fill:#719D34;}
	.st48{fill:#31373A;}
	.st49{fill:#FFDE55;}
	.st50{fill:#CF7519;}
	.st51{fill:none;stroke:#D03F3F;stroke-width:36;stroke-miterlimit:10;}
	.st52{fill:#F29A2E;}
	.st53{opacity:0.25;}
	.st54{fill:#E18823;}
	.st55{opacity:0.5;fill:#E18823;}
	.st56{opacity:0.2;fill:#5A5F63;}
	.st57{fill:#64892F;}
</style>
<g>
	<g>
		<g>
			<g>
				<path class="st6" d="M2.073,13.707l11.516-11.61c2.773-2.796,7.258-2.796,10.04,0s2.837,7.356,0.064,10.152L12.13,23.812
					c-2.773,2.796-7.258,2.796-10.04,0C-0.685,21.023-0.702,16.505,2.073,13.707z"/>
			</g>
			<g>
				<path class="st8" d="M17.912,18.03l5.781-5.781c2.773-2.796,2.719-7.356-0.064-10.152s-7.267-2.795-10.04,0L7.831,7.902
					L17.912,18.03z"/>
			</g>
		</g>
		<g class="st46">
			<path class="st9" d="M18.603,4.962c-1.294,0-2.332-0.614-2.332-1.372c0-0.759,1.038-1.372,2.332-1.372
				c1.294,0,2.354,0.613,2.354,1.372C20.957,4.348,19.897,4.962,18.603,4.962z"/>
		</g>
		<path class="st10" d="M17.912,18.03l5.781-5.781c0,0-3.407,2.279-7.545,4.009L17.912,18.03z"/>
		<path class="st4" d="M17.906,18.031l-5.779,5.779c-2.767,2.789-7.251,2.789-10.04,0c-2.78-2.78-2.781-7.326-0.011-10.096
			c1.874,6.158,8.624,4.831,14.079,2.544L17.906,18.031z"/>
	</g>
	<g>
		<g>
			<g>
				
					<ellipse transform="matrix(0.7071 -0.7071 0.7071 0.7071 -10.6055 25.6016)" class="st0" cx="25.601" cy="25.603" rx="6.399" ry="6.404"/>
			</g>
		</g>
		<g>
			<g>
				<path class="st6" d="M30.123,30.13c-2.49,2.49-6.556,2.49-9.047,0c-0.232-0.232-0.452-0.487-0.637-0.753
					c2.352,1.668,5.954,1.17,8.421-1.297c1.645-1.645,2.409-3.776,2.247-5.722C32.567,24.813,32.231,28.022,30.123,30.13z"/>
			</g>
		</g>
		<g>
			<path class="st1" d="M29.495,20.532l-8.964,8.964c0.168,0.219,0.347,0.432,0.547,0.633c0.198,0.198,0.409,0.375,0.625,0.541
				l8.966-8.966c-0.167-0.216-0.343-0.427-0.541-0.625C29.927,20.879,29.714,20.701,29.495,20.532z"/>
		</g>
	</g>
	<g>
		<g>
			<g>
				
					<ellipse transform="matrix(0.7071 -0.7071 0.7071 0.7071 -15.2794 18.7894)" class="st17" cx="15.041" cy="27.838" rx="3.354" ry="3.357"/>
			</g>
		</g>
		<g>
			<g>
				<path class="st15" d="M17.411,30.212c-1.305,1.305-3.437,1.305-4.742,0c-0.121-0.121-0.237-0.255-0.334-0.395
					c1.233,0.874,3.121,0.613,4.414-0.68c0.862-0.862,1.263-1.979,1.178-3C18.692,27.425,18.516,29.107,17.411,30.212z"/>
			</g>
		</g>
		<g>
			<path class="st14" d="M17.082,25.181l-4.699,4.699c0.088,0.115,0.182,0.227,0.287,0.332c0.104,0.104,0.214,0.196,0.328,0.284
				l4.7-4.7c-0.087-0.113-0.18-0.224-0.284-0.328C17.309,25.362,17.197,25.269,17.082,25.181z"/>
		</g>
	</g>
</g>
</svg>
