<?xml version="1.0" encoding="utf-8"?>
<!-- Generator: Adobe Illustrator 21.1.0, SVG Export Plug-In . SVG Version: 6.00 Build 0)  -->
<svg version="1.1" id="Layer_1" xmlns="http://www.w3.org/2000/svg" xmlns:xlink="http://www.w3.org/1999/xlink" x="0px" y="0px"
	 viewBox="0 0 32 32" style="enable-background:new 0 0 32 32;" xml:space="preserve">
<style type="text/css">
	.st0{fill:#E9EFF4;}
	.st1{fill:#BBC7D1;}
	.st2{fill:#E24B4B;}
	.st3{fill:#D23F77;}
	.st4{fill:#D3D9DD;}
	.st5{fill:#E84D88;}
	.st6{fill:#DEE4E9;}
	.st7{fill:#3E4347;}
	.st8{fill:#65B1EF;}
	.st9{fill:#FFFFFF;}
	.st10{fill:#59A5E0;}
	.st11{opacity:0.15;fill:#FFFFFF;}
	.st12{fill:#D03F3F;}
	.st13{opacity:0.15;}
	.st14{fill:#E9B02C;}
	.st15{fill:#F4C534;}
	.st16{opacity:0.5;}
	.st17{fill:#FFD93B;}
	.st18{fill:#353A3D;}
	.st19{fill:#777B7E;}
	.st20{fill:#5A5F63;}
	.st21{fill:#4E99D2;}
	.st22{fill:#CBD6E0;}
	.st23{fill:#6B503B;}
	.st24{fill:#89664C;}
	.st25{fill:#8F6D52;}
	.st26{fill:#A5856D;}
	.st27{fill:#C2CACE;}
	.st28{fill:#BF3333;}
	.st29{fill:#DAE5EF;}
	.st30{fill:#373C3F;}
	.st31{fill:#8CC63E;}
	.st32{fill:#7FB239;}
	.st33{opacity:0.7;}
	.st34{fill:#32373A;}
	.st35{opacity:0.1;fill:#FFFFFF;}
	.st36{opacity:0.5;fill:#DAE5EF;}
	.st37{fill:#8D9BA3;}
	.st38{fill:#7A5B44;}
	.st39{opacity:0.2;fill:#FFFFFF;}
	.st40{fill:#45CBEA;}
	.st41{opacity:0.1;}
	.st42{fill:#7B8B92;}
	.st43{fill:#ACB9C1;}
	.st44{fill:#846144;}
	.st45{fill:#9A795F;}
	.st46{opacity:0.2;}
	.st47{fill:#719D34;}
	.st48{fill:#31373A;}
	.st49{fill:#FFDE55;}
	.st50{fill:#CF7519;}
	.st51{fill:none;stroke:#D03F3F;stroke-width:36;stroke-miterlimit:10;}
	.st52{fill:#F29A2E;}
	.st53{opacity:0.25;}
	.st54{fill:#E18823;}
	.st55{opacity:0.5;fill:#E18823;}
	.st56{opacity:0.2;fill:#5A5F63;}
	.st57{fill:#64892F;}
</style>
<g>
	<g>
		<path class="st15" d="M29.575,13.517L13.517,29.575c-2.884,2.884-8.392,3.426-11.461,0.37c-3.054-3.054-2.525-8.566,0.37-11.461
			L18.483,2.425c2.884-2.884,8.392-3.426,11.461-0.37C32.994,5.105,32.474,10.617,29.575,13.517z"/>
	</g>
	<g>
		<g>
			<g>
				
					<ellipse transform="matrix(0.7071 -0.7071 0.7071 0.7071 -2.9742 22.7487)" class="st7" cx="25.973" cy="14.965" rx="0.567" ry="0.567"/>
			</g>
			<g>
				
					<ellipse transform="matrix(0.7071 -0.7071 0.7071 0.7071 0.7284 13.8097)" class="st7" cx="17.034" cy="6.026" rx="0.567" ry="0.567"/>
			</g>
			<g>
				<path class="st0" d="M24.733,12.937l-0.748,0.748l-0.087-0.087c-0.66-0.66-1.585-0.924-2.514-0.84
					c-0.563,0.051-1.145-0.141-1.576-0.572c-0.427-0.427-0.618-1.004-0.568-1.564c0.083-0.931-0.178-1.86-0.839-2.521l-0.089-0.089
					l0.748-0.748L24.733,12.937z"/>
			</g>
			
				<ellipse transform="matrix(0.7071 -0.7071 0.7071 0.7071 -1.9852 17.9223)" class="st7" cx="20.641" cy="11.357" rx="0.555" ry="0.555"/>
			<g>
				<path class="st20" d="M20.34,6.684l-2.65,2.65c-0.16,0.16-0.406,0.189-0.601,0.07c-0.479-0.288-1.202-1.01-1.489-1.489
					c-0.115-0.192-0.089-0.441,0.07-0.601l2.65-2.65c0.16-0.16,0.409-0.185,0.601-0.07c0.479,0.288,1.202,1.01,1.489,1.489
					C20.529,6.278,20.5,6.524,20.34,6.684z"/>
			</g>
			<g>
				<path class="st20" d="M27.333,13.677l-2.65,2.65c-0.16,0.16-0.406,0.189-0.601,0.07c-0.479-0.288-1.202-1.01-1.489-1.489
					c-0.115-0.192-0.089-0.441,0.07-0.601l2.65-2.65c0.16-0.16,0.409-0.185,0.601-0.07c0.479,0.288,1.202,1.01,1.489,1.489
					C27.522,13.271,27.493,13.517,27.333,13.677z"/>
			</g>
			<g>
				
					<ellipse transform="matrix(0.7071 -0.7071 0.7071 0.7071 -10.2806 9.2515)" class="st7" cx="6.027" cy="17.036" rx="0.567" ry="0.567"/>
			</g>
			<g>
				
					<ellipse transform="matrix(0.7071 -0.7071 0.7071 0.7071 -13.9832 18.1905)" class="st7" cx="14.966" cy="25.974" rx="0.567" ry="0.567"/>
			</g>
			<path class="st0" d="M7.267,19.063l0.748-0.748l0.087,0.087c0.66,0.66,1.585,0.924,2.514,0.84
				c0.563-0.051,1.145,0.141,1.576,0.572c0.427,0.427,0.618,1.004,0.568,1.564c-0.083,0.931,0.178,1.86,0.839,2.521l0.089,0.089
				l-0.748,0.748L7.267,19.063z"/>
			<g>
				<path class="st20" d="M11.66,25.316l2.65-2.65c0.16-0.16,0.406-0.189,0.601-0.07c0.479,0.288,1.202,1.01,1.489,1.489
					c0.115,0.192,0.089,0.441-0.07,0.601l-2.65,2.65c-0.16,0.16-0.409,0.185-0.601,0.07c-0.479-0.288-1.202-1.01-1.489-1.489
					C11.472,25.722,11.5,25.476,11.66,25.316z"/>
			</g>
			<g>
				<path class="st20" d="M4.667,18.323l2.65-2.65c0.16-0.16,0.406-0.189,0.601-0.07c0.479,0.288,1.202,1.01,1.489,1.489
					c0.115,0.192,0.089,0.441-0.07,0.601l-2.65,2.65c-0.16,0.16-0.409,0.185-0.601,0.07c-0.479-0.288-1.202-1.01-1.489-1.489
					C4.479,18.729,4.507,18.483,4.667,18.323z"/>
			</g>
		</g>
		<g>
			
				<ellipse transform="matrix(0.7071 -0.7071 0.7071 0.7071 -11.27 14.0781)" class="st7" cx="11.359" cy="20.643" rx="0.556" ry="0.554"/>
		</g>
	</g>
</g>
</svg>
