<?xml version="1.0" encoding="utf-8"?>
<!-- Generator: Adobe Illustrator 21.1.0, SVG Export Plug-In . SVG Version: 6.00 Build 0)  -->
<svg version="1.1" id="Layer_1" xmlns="http://www.w3.org/2000/svg" xmlns:xlink="http://www.w3.org/1999/xlink" x="0px" y="0px"
	 viewBox="0 0 32 32" style="enable-background:new 0 0 32 32;" xml:space="preserve">
<style type="text/css">
	.st0{fill:#45CBEA;}
	.st1{fill:#FFD93B;}
	.st2{fill:#F4C534;}
	.st3{fill:#3E4347;}
	.st4{opacity:0.2;}
	.st5{fill:#DE9C25;}
	.st6{fill:#FFFFFF;}
	.st7{fill:#E24B4B;}
	.st8{fill:#8CC63E;}
	.st9{fill:#D03F3F;}
	.st10{fill:#846144;}
	.st11{fill:#5A5F63;}
	.st12{fill:#777B7E;}
	.st13{fill:#FFDC97;}
	.st14{fill:#FFE9AB;}
	.st15{fill:#93979A;}
	.st16{fill:#FFD68D;}
	.st17{fill:#728389;}
	.st18{fill:#DAE5EF;}
	.st19{fill:#65B1EF;}
	.st20{fill:#F2F7F9;}
	.st21{fill:#8D9BA3;}
	.st22{opacity:0.2;fill:#F2F7F9;}
	.st23{fill:#E9EFF4;}
	.st24{fill:#FC97B2;}
	.st25{fill:#E84D88;}
	.st26{fill:#A5856D;}
	.st27{fill:#E9B02C;}
	.st28{fill:#7FB239;}
	.st29{fill:#CBD6E0;}
	.st30{fill:#ACB9C1;}
	.st31{fill:#8F6D52;}
	.st32{opacity:0.2;fill:#FFFFFF;}
	.st33{fill:#9A795F;}
	.st34{fill:#BBC7D1;}
	.st35{fill:#E18823;}
	.st36{fill:#F29A2E;}
	.st37{fill:#89664C;}
	.st38{fill:#D3D9DD;}
	.st39{fill:#DEE4E9;}
	.st40{fill:#AD2727;}
	.st41{fill:#719D34;}
	.st42{fill:#353A3D;}
	.st43{opacity:0.25;}
	.st44{opacity:0.2;fill:#3E4347;}
	.st45{fill:#373C3F;}
	.st46{opacity:0.1;}
	.st47{opacity:0.06;}
	.st48{fill:#7A5B44;}
	.st49{fill:#6B503B;}
	.st50{fill:#31373A;}
	.st51{fill:#59A5E0;}
	.st52{fill:#363B3F;}
	.st53{fill:#BF3333;}
	.st54{opacity:0.3;}
	.st55{fill:#4E99D2;}
	.st56{opacity:0.15;}
	.st57{opacity:0.1;fill:#3E4347;}
	.st58{fill:#64892F;}
	.st59{opacity:0.08;fill:#FFFFFF;}
	.st60{opacity:0.1;fill:#FFFFFF;}
</style>
<g>
	<g>
		<g>
			
				<ellipse transform="matrix(0.7071 -0.7071 0.7071 0.7071 -10.7211 16.8186)" class="st1" cx="14.941" cy="21.351" rx="3.63" ry="3.63"/>
		</g>
		<g>
			<path class="st2" d="M17.506,18.782c1.421,1.421,1.414,3.719,0,5.134c-0.757,0.757-1.761,1.11-2.751,1.054
				c0.686-0.134,1.344-0.467,1.874-0.997c1.414-1.414,1.421-3.712,0-5.134c-0.665-0.665-1.527-1.018-2.404-1.047
				C15.371,17.566,16.615,17.891,17.506,18.782z"/>
		</g>
	</g>
	<g>
		<polygon class="st31" points="26.039,30.62 11.863,30.62 18.953,16.993 		"/>
	</g>
	<g>
		<polygon class="st10" points="32,30.62 16,30.62 24.003,15.24 		"/>
	</g>
	<g>
		<path class="st18" d="M21.016,20.958c-0.1,0.23-0.26,0.44-0.47,0.58c-0.33,0.22-0.79,0.24-1.09-0.01
			c-0.15-0.11-0.25-0.27-0.39-0.4c-0.13-0.12-0.33-0.2-0.5-0.11c-0.24,0.13-0.19,0.51-0.37,0.73c-0.21,0.28-0.68,0.17-0.91-0.1
			c-0.18-0.2-0.27-0.46-0.39-0.7l2.06-3.95L21.016,20.958z"/>
	</g>
	<g>
		<path class="st18" d="M27.016,21.038c-0.17,0.17-0.4,0.3-0.63,0.23c-0.15-0.04-0.27-0.17-0.37-0.29c-0.27-0.29-0.54-0.58-0.8-0.88
			c-0.09-0.1-0.21-0.21-0.34-0.17c-0.14,0.04-0.18,0.22-0.26,0.34c-0.2,0.3-0.67,0.26-0.94,0.02c-0.28-0.23-0.41-0.59-0.58-0.92
			c-0.04-0.08-0.09-0.16-0.16-0.2c-0.13-0.07-0.29,0.01-0.38,0.13c-0.08,0.12-0.1,0.28-0.12,0.43c-0.18,0.08-0.41-0.09-0.4-0.29
			c-0.1,0.01-0.19,0.05-0.27,0.1l2.24-4.3L27.016,21.038z"/>
	</g>
	<g>
		<g>
			<polygon class="st26" points="18.401,30.62 0,30.62 9.204,12.932 			"/>
		</g>
		<g>
			<path class="st18" d="M13.106,20.448c-0.14,0.65-0.48,1.27-1.03,1.64c-0.6,0.39-1.45,0.43-2-0.02c-0.27-0.21-0.45-0.5-0.7-0.73
				c-0.25-0.22-0.62-0.37-0.92-0.21c-0.45,0.24-0.35,0.94-0.67,1.34c-0.4,0.51-1.25,0.3-1.68-0.19c-0.41-0.48-0.58-1.12-0.9-1.66
				l4-7.69L13.106,20.448z"/>
		</g>
	</g>
	<g>
		<path class="st3" d="M10.185,3.629c-0.539-0.539-1.42-0.539-1.959,0c-0.195,0.195-0.512,0.195-0.707,0
			c-0.539-0.539-1.42-0.539-1.959,0c-0.195,0.195-0.512,0.195-0.707,0s-0.195-0.512,0-0.707c0.818-0.82,2.092-0.917,3.02-0.292
			c0.927-0.625,2.199-0.528,3.02,0.292c0.195,0.195,0.195,0.512,0,0.707C10.696,3.824,10.38,3.824,10.185,3.629z"/>
	</g>
	<g>
		<path class="st3" d="M20.714,8.783c-0.541-0.54-1.418-0.54-1.959,0c-0.195,0.195-0.512,0.195-0.707,0
			c-0.541-0.54-1.418-0.54-1.959,0c-0.195,0.195-0.512,0.195-0.707,0s-0.195-0.512,0-0.707c0.818-0.82,2.092-0.917,3.02-0.292
			c0.927-0.625,2.199-0.528,3.02,0.292c0.195,0.195,0.195,0.512,0,0.707C21.226,8.978,20.909,8.978,20.714,8.783z"/>
	</g>
	<g>
		<path class="st3" d="M29.329,2.785c-0.541-0.54-1.418-0.54-1.959,0c-0.195,0.195-0.512,0.195-0.707,0
			c-0.541-0.54-1.418-0.54-1.959,0c-0.195,0.195-0.512,0.195-0.707,0s-0.195-0.512,0-0.707c0.819-0.82,2.092-0.917,3.02-0.292
			c0.927-0.625,2.199-0.528,3.02,0.292c0.195,0.195,0.195,0.512,0,0.707C29.841,2.98,29.524,2.98,29.329,2.785z"/>
	</g>
</g>
</svg>
