<?xml version="1.0" encoding="utf-8"?>
<!-- Generator: Adobe Illustrator 21.1.0, SVG Export Plug-In . SVG Version: 6.00 Build 0)  -->
<svg version="1.1" id="Layer_1" xmlns="http://www.w3.org/2000/svg" xmlns:xlink="http://www.w3.org/1999/xlink" x="0px" y="0px"
	 viewBox="0 0 32 32" style="enable-background:new 0 0 32 32;" xml:space="preserve">
<style type="text/css">
	.st0{fill:#E9EFF4;}
	.st1{fill:#BBC7D1;}
	.st2{fill:#E24B4B;}
	.st3{fill:#D23F77;}
	.st4{fill:#D3D9DD;}
	.st5{fill:#E84D88;}
	.st6{fill:#DEE4E9;}
	.st7{fill:#3E4347;}
	.st8{fill:#65B1EF;}
	.st9{fill:#FFFFFF;}
	.st10{fill:#59A5E0;}
	.st11{opacity:0.15;fill:#FFFFFF;}
	.st12{fill:#D03F3F;}
	.st13{opacity:0.15;}
	.st14{fill:#E9B02C;}
	.st15{fill:#F4C534;}
	.st16{opacity:0.5;}
	.st17{fill:#FFD93B;}
	.st18{fill:#353A3D;}
	.st19{fill:#777B7E;}
	.st20{fill:#5A5F63;}
	.st21{fill:#4E99D2;}
	.st22{fill:#CBD6E0;}
	.st23{fill:#6B503B;}
	.st24{fill:#89664C;}
	.st25{fill:#8F6D52;}
	.st26{fill:#A5856D;}
	.st27{fill:#C2CACE;}
	.st28{fill:#BF3333;}
	.st29{fill:#DAE5EF;}
	.st30{fill:#373C3F;}
	.st31{fill:#8CC63E;}
	.st32{fill:#7FB239;}
	.st33{opacity:0.7;}
	.st34{fill:#32373A;}
	.st35{opacity:0.1;fill:#FFFFFF;}
	.st36{opacity:0.5;fill:#DAE5EF;}
	.st37{fill:#8D9BA3;}
	.st38{fill:#7A5B44;}
	.st39{opacity:0.2;fill:#FFFFFF;}
	.st40{fill:#45CBEA;}
	.st41{opacity:0.1;}
	.st42{fill:#7B8B92;}
	.st43{fill:#ACB9C1;}
	.st44{fill:#846144;}
	.st45{fill:#9A795F;}
	.st46{opacity:0.2;}
	.st47{fill:#719D34;}
	.st48{fill:#31373A;}
	.st49{fill:#FFDE55;}
	.st50{fill:#CF7519;}
	.st51{fill:none;stroke:#D03F3F;stroke-width:36;stroke-miterlimit:10;}
	.st52{fill:#F29A2E;}
	.st53{opacity:0.25;}
	.st54{fill:#E18823;}
	.st55{opacity:0.5;fill:#E18823;}
	.st56{opacity:0.2;fill:#5A5F63;}
	.st57{fill:#64892F;}
</style>
<g>
	<g>
		<g>
			<g>
				<g>
					<path class="st7" d="M4.049,23.899C1.814,23.899,0,25.71,0,27.948C0,30.189,1.814,32,4.049,32s4.049-1.811,4.049-4.052
						C8.098,25.71,6.284,23.899,4.049,23.899z M4.049,30.682c-1.509,0-2.731-1.223-2.731-2.734c0-1.508,1.223-2.731,2.731-2.731
						s2.731,1.223,2.731,2.731C6.78,29.46,5.557,30.682,4.049,30.682z"/>
				</g>
			</g>
			<g>
				<g>
					<circle class="st7" cx="4.049" cy="27.949" r="0.918"/>
				</g>
			</g>
			<g>
				<g>
					<path class="st7" d="M5.487,29.4c-0.439-0.235-1.014-0.593-1.281-1.009c-0.052,0.031-0.103,0.064-0.156,0.093v0.383
						c0,0-0.162,1.128,1.001,1.624c0.209,0.089,0.344,0.165,0.429,0.23l1.145-1.295C6.623,29.428,6.076,29.715,5.487,29.4z"/>
				</g>
			</g>
			<g>
				<g>
					<path class="st7" d="M6.024,27.43c-0.423,0.263-1.021,0.582-1.514,0.605c0,0.061,0.004,0.121,0.002,0.182l0.332,0.192
						c0,0,0.896,0.704,1.907-0.055c0.182-0.136,0.315-0.215,0.414-0.256l-0.549-1.639C6.616,26.459,6.592,27.077,6.024,27.43z"/>
				</g>
			</g>
			<g>
				<g>
					<path class="st7" d="M4.587,25.979c0.016,0.498-0.006,1.175-0.233,1.614c0.053,0.03,0.107,0.057,0.159,0.089l0.332-0.192
						c0,0,1.057-0.424,0.906-1.679c-0.027-0.225-0.029-0.38-0.015-0.486l-1.694-0.344C4.042,24.981,4.565,25.311,4.587,25.979z"/>
				</g>
			</g>
			<g>
				<g>
					<path class="st7" d="M2.611,26.498c0.439,0.235,1.014,0.593,1.281,1.009c0.052-0.031,0.103-0.064,0.156-0.093v-0.383
						c0,0,0.162-1.128-1.001-1.624c-0.209-0.089-0.344-0.165-0.429-0.23l-1.145,1.295C1.475,26.471,2.022,26.184,2.611,26.498z"/>
				</g>
			</g>
			<g>
				<g>
					<path class="st7" d="M2.073,28.469c0.423-0.263,1.021-0.582,1.514-0.605c0-0.061-0.004-0.121-0.002-0.182L3.253,27.49
						c0,0-0.896-0.704-1.907,0.055c-0.182,0.136-0.315,0.215-0.414,0.256l0.549,1.639C1.481,29.44,1.506,28.822,2.073,28.469z"/>
				</g>
			</g>
			<g>
				<g>
					<path class="st7" d="M3.511,29.92c-0.016-0.498,0.006-1.175,0.233-1.614c-0.053-0.03-0.107-0.057-0.159-0.089l-0.332,0.192
						c0,0-1.057,0.424-0.906,1.679c0.027,0.225,0.029,0.38,0.015,0.486l1.694,0.344C4.056,30.918,3.533,30.588,3.511,29.92z"/>
				</g>
			</g>
		</g>
	</g>
	<g>
		<g>
			<g>
				<g>
					
						<rect x="22.738" y="1.195" transform="matrix(0.9914 -0.1307 0.1307 0.9914 -0.8389 3.1293)" class="st0" width="1.346" height="13.516"/>
				</g>
			</g>
			<g>
				<g>
					<path class="st47" d="M25.496,16.943l-1.77,0.23l-0.63-4.76c-0.01-0.13,0.08-0.25,0.21-0.27l1.3-0.17
						c0.13-0.02,0.25,0.08,0.26,0.21L25.496,16.943z"/>
				</g>
			</g>
			<g>
				<g>
					
						<rect x="23.728" y="18.284" transform="matrix(0.9914 -0.1307 0.1307 0.9914 -2.2324 3.4068)" class="st0" width="2.2" height="0.84"/>
				</g>
			</g>
			<g>
				<g>
					<g>
						<g>
							<path class="st7" d="M27.951,23.899c-2.235,0-4.049,1.811-4.049,4.049c0,2.241,1.814,4.052,4.049,4.052S32,30.189,32,27.948
								C32,25.71,30.186,23.899,27.951,23.899z M27.951,30.682c-1.509,0-2.731-1.223-2.731-2.734c0-1.508,1.223-2.731,2.731-2.731
								s2.731,1.223,2.731,2.731C30.682,29.46,29.46,30.682,27.951,30.682z"/>
						</g>
					</g>
					<g>
						<g>
							<circle class="st7" cx="27.951" cy="27.949" r="0.918"/>
						</g>
					</g>
					<g>
						<g>
							<path class="st7" d="M29.389,29.4c-0.439-0.235-1.014-0.593-1.281-1.009c-0.052,0.031-0.103,0.064-0.156,0.093v0.383
								c0,0-0.162,1.128,1.001,1.624c0.209,0.089,0.344,0.165,0.429,0.23l1.145-1.295C30.525,29.428,29.978,29.715,29.389,29.4z"/>
						</g>
					</g>
					<g>
						<g>
							<path class="st7" d="M29.927,27.43c-0.423,0.263-1.021,0.582-1.514,0.605c0,0.061,0.004,0.121,0.002,0.182l0.332,0.192
								c0,0,0.896,0.704,1.907-0.055c0.182-0.136,0.315-0.215,0.414-0.256l-0.549-1.639C30.519,26.459,30.494,27.077,29.927,27.43z"
								/>
						</g>
					</g>
					<g>
						<g>
							<path class="st7" d="M28.489,25.979c0.016,0.498-0.006,1.175-0.233,1.614c0.053,0.03,0.107,0.057,0.159,0.089l0.332-0.192
								c0,0,1.057-0.424,0.906-1.679c-0.027-0.225-0.029-0.38-0.015-0.486l-1.694-0.344C27.944,24.981,28.467,25.311,28.489,25.979z
								"/>
						</g>
					</g>
					<g>
						<g>
							<path class="st7" d="M26.513,26.498c0.439,0.235,1.014,0.593,1.281,1.009c0.052-0.031,0.103-0.064,0.156-0.093v-0.383
								c0,0,0.162-1.128-1.001-1.624c-0.209-0.089-0.344-0.165-0.429-0.23l-1.145,1.295C25.377,26.471,25.924,26.184,26.513,26.498z
								"/>
						</g>
					</g>
					<g>
						<g>
							<path class="st7" d="M25.976,28.469c0.423-0.263,1.021-0.582,1.514-0.605c0-0.061-0.004-0.121-0.002-0.182l-0.332-0.192
								c0,0-0.896-0.704-1.907,0.055c-0.182,0.136-0.315,0.215-0.414,0.256l0.549,1.639C25.384,29.44,25.408,28.822,25.976,28.469z"
								/>
						</g>
					</g>
					<g>
						<g>
							<path class="st7" d="M27.413,29.92c-0.016-0.498,0.006-1.175,0.233-1.614c-0.053-0.03-0.107-0.057-0.159-0.089l-0.332,0.192
								c0,0-1.057,0.424-0.906,1.679c0.027,0.225,0.029,0.38,0.015,0.486l1.694,0.344C27.958,30.918,27.435,30.588,27.413,29.92z"/>
						</g>
					</g>
				</g>
				<g>
					<g>
						<path class="st6" d="M28.415,27.192c0,0-0.287-0.201-0.561-0.502c-0.514-0.502-0.847-1.244-0.961-1.484
							c-0.271-0.602-0.422-1.516-0.43-1.955h-2.119c0.015,0.228,0.021,0.211,0.055,0.464c0.045,0.261,0.19,1.324,0.711,2.324
							c0.3,0.553,0.357,0.71,1.073,1.574c0.235,0.24,0.638,0.691,1.304,1.095c0.419,0.256,0.966,0.125,1.222-0.294
							C28.965,27.995,28.834,27.448,28.415,27.192z"/>
					</g>
				</g>
				<g>
					<g>
						<ellipse class="st1" cx="27.951" cy="27.948" rx="0.461" ry="0.459"/>
					</g>
				</g>
			</g>
			<g>
				<g>
					<g>
						
							<ellipse transform="matrix(0.9914 -0.1307 0.1307 0.9914 -0.0041 2.9643)" class="st7" cx="22.572" cy="1.514" rx="1.514" ry="1.513"/>
					</g>
				</g>
				<g>
					<g>
						
							<ellipse transform="matrix(0.9914 -0.1307 0.1307 0.9914 -0.0042 2.9643)" class="st48" cx="22.572" cy="1.514" rx="0.749" ry="0.749"/>
					</g>
				</g>
			</g>
		</g>
	</g>
	<g>
		<g>
			<g>
				<path class="st31" d="M26.468,22.727l-2.181,0.288l0,0c-0.043-0.325-0.441-0.451-0.67-0.216
					c-0.979,1.004-1.706,2.605-1.706,5.149l0,0c0,0.497-0.403,0.9-0.9,0.9l-16.929,0c-0.487,0-0.922-0.367-0.945-0.853
					c-0.025-0.519,0.387-0.947,0.899-0.947h16.105c0.13-2.014,0.731-3.856,1.955-5.244c1.096-1.244,1.653-2.872,1.437-4.516
					l-0.018-0.138c-0.014-0.109,0.063-0.21,0.173-0.225l1.785-0.235c0.108-0.014,0.209,0.062,0.223,0.17L26.468,22.727z"/>
			</g>
		</g>
	</g>
	<g>
		<g>
			<g>
				<path class="st31" d="M9.112,27.829h1.803c-0.064-3.732-3.118-6.749-6.865-6.749c-0.722,0-1.438,0.114-2.126,0.338
					c-0.473,0.154-0.731,0.662-0.577,1.134c0.154,0.473,0.663,0.73,1.134,0.577c0.508-0.166,1.035-0.25,1.568-0.25
					C6.804,22.879,9.048,25.089,9.112,27.829z"/>
			</g>
		</g>
	</g>
	<g>
		<g>
			<ellipse class="st7" cx="4.049" cy="27.948" rx="0.461" ry="0.459"/>
		</g>
	</g>
	<g>
		<g>
			<path class="st20" d="M26.811,22.922l0,0.002c0.018,0.167-0.103,0.318-0.271,0.336l-2.192,0.235
				c-0.167,0.018-0.318-0.103-0.336-0.271l0-0.002c-0.018-0.167,0.103-0.315,0.271-0.333l2.192-0.235
				C26.643,22.636,26.793,22.754,26.811,22.922z"/>
		</g>
	</g>
</g>
</svg>
