<?xml version="1.0" encoding="utf-8"?>
<!-- Generator: Adobe Illustrator 21.1.0, SVG Export Plug-In . SVG Version: 6.00 Build 0)  -->
<svg version="1.1" id="Layer_1" xmlns="http://www.w3.org/2000/svg" xmlns:xlink="http://www.w3.org/1999/xlink" x="0px" y="0px"
	 viewBox="0 0 32 32" style="enable-background:new 0 0 32 32;" xml:space="preserve">
<style type="text/css">
	.st0{fill:#E9EFF4;}
	.st1{fill:#BBC7D1;}
	.st2{fill:#E24B4B;}
	.st3{fill:#D23F77;}
	.st4{fill:#D3D9DD;}
	.st5{fill:#E84D88;}
	.st6{fill:#DEE4E9;}
	.st7{fill:#3E4347;}
	.st8{fill:#65B1EF;}
	.st9{fill:#FFFFFF;}
	.st10{fill:#59A5E0;}
	.st11{opacity:0.15;fill:#FFFFFF;}
	.st12{fill:#D03F3F;}
	.st13{opacity:0.15;}
	.st14{fill:#E9B02C;}
	.st15{fill:#F4C534;}
	.st16{opacity:0.5;}
	.st17{fill:#FFD93B;}
	.st18{fill:#353A3D;}
	.st19{fill:#777B7E;}
	.st20{fill:#5A5F63;}
	.st21{fill:#4E99D2;}
	.st22{fill:#CBD6E0;}
	.st23{fill:#6B503B;}
	.st24{fill:#89664C;}
	.st25{fill:#8F6D52;}
	.st26{fill:#A5856D;}
	.st27{fill:#C2CACE;}
	.st28{fill:#BF3333;}
	.st29{fill:#DAE5EF;}
	.st30{fill:#373C3F;}
	.st31{fill:#8CC63E;}
	.st32{fill:#7FB239;}
	.st33{opacity:0.7;}
	.st34{fill:#32373A;}
	.st35{opacity:0.1;fill:#FFFFFF;}
	.st36{opacity:0.5;fill:#DAE5EF;}
	.st37{fill:#8D9BA3;}
	.st38{fill:#7A5B44;}
	.st39{opacity:0.2;fill:#FFFFFF;}
	.st40{fill:#45CBEA;}
	.st41{opacity:0.1;}
	.st42{fill:#7B8B92;}
	.st43{fill:#ACB9C1;}
	.st44{fill:#846144;}
	.st45{fill:#9A795F;}
	.st46{opacity:0.2;}
	.st47{fill:#719D34;}
	.st48{fill:#31373A;}
	.st49{fill:#FFDE55;}
	.st50{fill:#CF7519;}
	.st51{fill:none;stroke:#D03F3F;stroke-width:36;stroke-miterlimit:10;}
	.st52{fill:#F29A2E;}
	.st53{opacity:0.25;}
	.st54{fill:#E18823;}
	.st55{opacity:0.5;fill:#E18823;}
	.st56{opacity:0.2;fill:#5A5F63;}
	.st57{fill:#64892F;}
</style>
<g>
	<path class="st1" d="M7.715,15.389c2.962,5.98,7.862,10.788,13.911,13.634c0.289-0.615,0.578-1.229,0.868-1.844
		c-5.632-2.65-10.194-7.127-12.952-12.695c-0.089-0.18-0.114-0.385-0.07-0.578c-0.615,0.289-1.229,0.578-1.844,0.868
		C7.589,14.971,7.616,15.189,7.715,15.389z"/>
	<path class="st29" d="M16.259,31.945H14.28c-0.088-2.548,0.479-4.99,1.625-7.337h1.979C16.806,26.948,16.194,29.38,16.259,31.945z"
		/>
	<path class="st29" d="M25.906,14.774c-0.615-0.289-1.229-0.578-1.844-0.868c0.044,0.193,0.019,0.398-0.07,0.578
		c-1.898,3.832-4.651,7.147-8.019,9.706c0.728,0.97,0.902,1.003,1.33,1.548c3.573-2.738,6.495-6.271,8.515-10.349
		C25.917,15.189,25.944,14.971,25.906,14.774z"/>
	<path class="st17" d="M31.682,19.049c0.057-0.539,0.087-0.717,0.087-1.276c0-8.558-5.383-17.013-13.864-17.677
		S0.941,6.886,0.941,15.444c0,0.039,0.001,0.077,0.001,0.116l13.844,0c6.055-2.218,9.71-0.961,12.267,3.49L31.682,19.049z"/>
	<path class="st15" d="M31.682,19.049c0.057-0.539,0.087-0.717,0.087-1.276c0-7.335-3.963-14.58-10.434-16.922
		c2.144,1.787,4.89,4.844,6.186,9.461c1.047,3.732,1.134,6.654,0.923,8.737H31.682z"/>
	<path class="st14" d="M12.587,15.588c0,0,0.356-4.076,3.769-6.955c0,0-5.71,1.52-5.71,6.89"/>
	<path class="st14" d="M5.502,14.456c0,0,0.647-6.211,8.022-8.443c0,0-5.338,5.337-5.337,9.252s0,0.179,0,0.179L5.502,14.456z"/>
	<path class="st7" d="M0.86,14.068c0,0,2.782-0.032,6.195,0.324s4.658,0.615,5.887,0.501s2.766-1.067,4.399-1.504
		c1.634-0.437,4.707-0.404,7.052,1.148s3.688,4.513,3.688,4.513s-1.132,0.906-2.038-0.243s-1.31-1.876-2.96-2.911
		c-1.65-1.035-4.885-0.598-5.548-0.34c-0.663,0.259-3.251,1.504-4.496,1.504c-1.245,0-12.309-0.792-12.309-0.792l-0.695-1.44
		L0.86,14.068z"/>
	<path class="st30" d="M24.394,14.537c-2.345-1.553-5.418-1.585-7.052-1.148c-1.634,0.437-3.17,1.391-4.399,1.504
		s-2.475-0.146-5.887-0.501S0.86,14.068,0.86,14.068l-0.825,0.76c0,0,4.836,0.226,7.521,0.55s3.963,0.421,4.965,0.469
		s2.96-0.906,4.658-1.569s5.843-0.277,8.103,1.747s2.798,3.025,2.798,3.025S26.739,16.09,24.394,14.537z"/>
	<path class="st7" d="M28.709,18.347l3.061-0.087c0.071-0.002,0.133,0.045,0.153,0.112c0.097,0.338,0.027,0.677-0.209,1.015
		c-0.029,0.041-0.076,0.066-0.127,0.066l-2.862,0c-0.306,0-0.554-0.248-0.554-0.554v0C28.171,18.601,28.409,18.355,28.709,18.347z"
		/>
	<circle class="st7" cx="16.812" cy="24.937" r="1.747"/>
	<circle class="st30" cx="16.812" cy="24.937" r="0.961"/>
	<g>
		<path class="st49" d="M9.974,4.808c0.458-0.287,1.003-0.686,0.678-1.155c-0.257-0.372-0.756-0.224-1.143,0.003
			c-2.525,1.479-4.892,3.61-5.911,6.574c-0.176,0.511-0.144,1.128,0.33,1.387c0.434,0.238,0.938-0.006,1.367-1.019
			C5.876,9.223,7.378,6.434,9.974,4.808z"/>
	</g>
</g>
</svg>
