<?xml version="1.0" encoding="utf-8"?>
<!-- Generator: Adobe Illustrator 21.1.0, SVG Export Plug-In . SVG Version: 6.00 Build 0)  -->
<svg version="1.1" id="Layer_1" xmlns="http://www.w3.org/2000/svg" xmlns:xlink="http://www.w3.org/1999/xlink" x="0px" y="0px"
	 viewBox="0 0 32 32" style="enable-background:new 0 0 32 32;" xml:space="preserve">
<style type="text/css">
	.st0{fill:#E9EFF4;}
	.st1{fill:#BBC7D1;}
	.st2{fill:#E24B4B;}
	.st3{fill:#D23F77;}
	.st4{fill:#D3D9DD;}
	.st5{fill:#E84D88;}
	.st6{fill:#DEE4E9;}
	.st7{fill:#3E4347;}
	.st8{fill:#65B1EF;}
	.st9{fill:#FFFFFF;}
	.st10{fill:#59A5E0;}
	.st11{opacity:0.15;fill:#FFFFFF;}
	.st12{fill:#D03F3F;}
	.st13{opacity:0.15;}
	.st14{fill:#E9B02C;}
	.st15{fill:#F4C534;}
	.st16{opacity:0.5;}
	.st17{fill:#FFD93B;}
	.st18{fill:#353A3D;}
	.st19{fill:#777B7E;}
	.st20{fill:#5A5F63;}
	.st21{fill:#4E99D2;}
	.st22{fill:#CBD6E0;}
	.st23{fill:#6B503B;}
	.st24{fill:#89664C;}
	.st25{fill:#8F6D52;}
	.st26{fill:#A5856D;}
	.st27{fill:#C2CACE;}
	.st28{fill:#BF3333;}
	.st29{fill:#DAE5EF;}
	.st30{fill:#373C3F;}
	.st31{fill:#8CC63E;}
	.st32{fill:#7FB239;}
	.st33{opacity:0.7;}
	.st34{fill:#32373A;}
	.st35{opacity:0.1;fill:#FFFFFF;}
	.st36{opacity:0.5;fill:#DAE5EF;}
	.st37{fill:#8D9BA3;}
	.st38{fill:#7A5B44;}
	.st39{opacity:0.2;fill:#FFFFFF;}
	.st40{fill:#45CBEA;}
	.st41{opacity:0.1;}
	.st42{fill:#7B8B92;}
	.st43{fill:#ACB9C1;}
	.st44{fill:#846144;}
	.st45{fill:#9A795F;}
	.st46{opacity:0.2;}
	.st47{fill:#719D34;}
	.st48{fill:#31373A;}
	.st49{fill:#FFDE55;}
	.st50{fill:#CF7519;}
	.st51{fill:none;stroke:#D03F3F;stroke-width:36;stroke-miterlimit:10;}
	.st52{fill:#F29A2E;}
	.st53{opacity:0.25;}
	.st54{fill:#E18823;}
	.st55{opacity:0.5;fill:#E18823;}
	.st56{opacity:0.2;fill:#5A5F63;}
	.st57{fill:#64892F;}
</style>
<g>
	<path class="st17" d="M27.588,19.898c-0.319-1.061-0.375-1.11-0.73-2.697c-0.355-1.586-1.559-4.157-4.77-6.824
		c-3.21-2.667-6.749-6.167-6.749-6.167s-0.459-0.112-0.987-0.727s-1.458-1.86-3.006-2.562c0,0-0.58-0.458-1.277-0.44
		c0,0-0.47-0.521-1.022-0.359c0,0-0.075,0.091-0.309,0.03C8.504,0.09,8.062-0.17,7.541,0.176S6.789,0.92,6.789,0.92
		S5.287,1.785,4.836,2.125c-0.45,0.339-0.614,0.638-0.443,1.417c0.172,0.779,0.881,1.925,1.133,2.146
		c0.252,0.22,1.097,0.385,1.097,0.385s0.856,0.798,2.262,1.146c1.406,0.347,1.962-0.142,1.962-0.142s2.845,1.222,3.998,4.822
		c1.153,3.6,0.277,3.735,2.153,5.868c0,0-0.641,0.01-1.031,0.365c0,0-3.813-3.252-7.628,0.565c0,0-0.4,0.396-0.915,1.097
		c-0.752-0.661-1.649-1.168-2.647-1.467L4.752,29.907v1.947C4.762,31.902,4.771,31.951,4.78,32c1.353-0.408,2.551-1.21,3.445-2.289
		c1.401,0.403,2.945,0.396,3.838,0.397c1.935,0.003,8.901-0.274,15.16-8.291C27.223,21.817,27.907,20.959,27.588,19.898z"/>
	<path class="st15" d="M18.411,20.233c-0.607-0.343-2.562-1.632-3.218-1.986c-1.818-0.976-3.442-0.964-5.115-0.304
		c-0.522,0.192-1.517,0.871-1.586,0.915l0.002-0.003C8.494,18.856,7.646,19.5,7.646,19.5c0.778-0.993,1.653-1.692,2.199-1.969
		c1.906-1.035,3.9-0.84,5.638,0.256C16.032,18.136,17.091,18.953,18.411,20.233z"/>
	<path class="st15" d="M27.588,19.898c-0.319-1.061-0.375-1.11-0.73-2.697c-0.337-1.505-1.44-3.896-4.294-6.415
		c2.132,2.43,5.695,7.738,0.978,12.121c-6.339,5.89-15.291,5.002-15.291,5.002c-1.781,1.197-2.884,1.398-3.497,1.356l-0.001,0.642
		v1.946C4.762,31.902,4.771,31.951,4.78,32c1.353-0.408,2.551-1.21,3.445-2.289c1.401,0.403,2.945,0.396,3.838,0.397
		c1.935,0.003,8.901-0.274,15.16-8.291C27.223,21.817,27.907,20.959,27.588,19.898z"/>
	<path class="st15" d="M16.998,17.767c-1.38-1.612-1.228-1.878-1.575-3.634c-0.271-1.466-0.778-3.136-1.604-4.379
		C12.96,8.457,11.7,7.441,10.847,7.076c0.889,0.116,2.405,0.983,3.439,2.367c0.964,1.254,1.486,3.031,1.686,4.583
		C16.322,16.588,15.837,15.203,16.998,17.767z"/>
	<g class="st46">
		<path class="st9" d="M13.813,18.765c0.12,0.51-0.91,0.58-2.13,0.86c-1.23,0.29-2.19,0.7-2.32,0.19c-0.11-0.5,0.79-1.16,2.01-1.44
			C12.603,18.085,13.693,18.265,13.813,18.765z"/>
	</g>
</g>
</svg>
