<?xml version="1.0" encoding="utf-8"?>
<!-- Generator: Adobe Illustrator 21.1.0, SVG Export Plug-In . SVG Version: 6.00 Build 0)  -->
<svg version="1.1" id="Layer_1" xmlns="http://www.w3.org/2000/svg" xmlns:xlink="http://www.w3.org/1999/xlink" x="0px" y="0px"
	 viewBox="0 0 32 32" style="enable-background:new 0 0 32 32;" xml:space="preserve">
<style type="text/css">
	.st0{fill:#E9EFF4;}
	.st1{fill:#BBC7D1;}
	.st2{fill:#E24B4B;}
	.st3{fill:#D23F77;}
	.st4{fill:#D3D9DD;}
	.st5{fill:#E84D88;}
	.st6{fill:#DEE4E9;}
	.st7{fill:#3E4347;}
	.st8{fill:#65B1EF;}
	.st9{fill:#FFFFFF;}
	.st10{fill:#59A5E0;}
	.st11{opacity:0.15;fill:#FFFFFF;}
	.st12{fill:#D03F3F;}
	.st13{opacity:0.15;}
	.st14{fill:#E9B02C;}
	.st15{fill:#F4C534;}
	.st16{opacity:0.5;}
	.st17{fill:#FFD93B;}
	.st18{fill:#353A3D;}
	.st19{fill:#777B7E;}
	.st20{fill:#5A5F63;}
	.st21{fill:#4E99D2;}
	.st22{fill:#CBD6E0;}
	.st23{fill:#6B503B;}
	.st24{fill:#89664C;}
	.st25{fill:#8F6D52;}
	.st26{fill:#A5856D;}
	.st27{fill:#C2CACE;}
	.st28{fill:#BF3333;}
	.st29{fill:#DAE5EF;}
	.st30{fill:#373C3F;}
	.st31{fill:#8CC63E;}
	.st32{fill:#7FB239;}
	.st33{opacity:0.7;}
	.st34{fill:#32373A;}
	.st35{opacity:0.1;fill:#FFFFFF;}
	.st36{opacity:0.5;fill:#DAE5EF;}
	.st37{fill:#8D9BA3;}
	.st38{fill:#7A5B44;}
	.st39{opacity:0.2;fill:#FFFFFF;}
	.st40{fill:#45CBEA;}
	.st41{opacity:0.1;}
	.st42{fill:#7B8B92;}
	.st43{fill:#ACB9C1;}
	.st44{fill:#846144;}
	.st45{fill:#9A795F;}
	.st46{opacity:0.2;}
	.st47{fill:#719D34;}
	.st48{fill:#31373A;}
	.st49{fill:#FFDE55;}
	.st50{fill:#CF7519;}
	.st51{fill:none;stroke:#D03F3F;stroke-width:36;stroke-miterlimit:10;}
	.st52{fill:#F29A2E;}
	.st53{opacity:0.25;}
	.st54{fill:#E18823;}
	.st55{opacity:0.5;fill:#E18823;}
	.st56{opacity:0.2;fill:#5A5F63;}
	.st57{fill:#64892F;}
</style>
<g>
	<g>
		<circle class="st2" cx="16" cy="16" r="14.5"/>
	</g>
	<g>
		<path class="st12" d="M30.5,16c0,8.01-6.49,14.5-14.5,14.5c-4.9,0-9.24-2.43-11.86-6.16c2.36,1.67,5.24,2.64,8.34,2.64
			c8.01,0,14.5-6.49,14.5-14.5c0-3.11-0.97-5.99-2.64-8.34C28.07,6.76,30.5,11.1,30.5,16z"/>
	</g>
	<g>
		<g>
			<path class="st9" d="M24.22,17.62c0,3.831-3.11,6.94-6.94,6.94s-6.94-3.11-6.94-6.94c0-3.839,3.11-6.94,6.94-6.94
				S24.22,13.781,24.22,17.62z"/>
		</g>
		<g>
			<path class="st7" d="M15.783,21.174h-1.38v-5.201c-0.504,0.471-1.099,0.82-1.783,1.046v-1.252c0.36-0.118,0.751-0.341,1.174-0.67
				c0.422-0.329,0.712-0.713,0.869-1.152h1.12V21.174z"/>
			<path class="st7" d="M19.6,13.944c0.697,0,1.243,0.249,1.636,0.747c0.468,0.589,0.702,1.567,0.702,2.932
				c0,1.362-0.236,2.341-0.707,2.937c-0.39,0.491-0.933,0.737-1.631,0.737c-0.701,0-1.266-0.269-1.694-0.808
				c-0.429-0.539-0.643-1.499-0.643-2.881c0-1.356,0.236-2.331,0.707-2.927C18.359,14.189,18.903,13.944,19.6,13.944z M19.6,15.088
				c-0.167,0-0.316,0.053-0.447,0.16c-0.131,0.106-0.232,0.297-0.305,0.572c-0.095,0.357-0.142,0.958-0.142,1.802
				c0,0.845,0.043,1.425,0.128,1.741c0.085,0.316,0.192,0.526,0.322,0.631c0.129,0.105,0.277,0.157,0.444,0.157
				c0.167,0,0.316-0.053,0.447-0.16c0.131-0.106,0.232-0.297,0.305-0.572c0.095-0.354,0.142-0.953,0.142-1.798
				c0-0.845-0.043-1.425-0.128-1.741c-0.085-0.316-0.192-0.527-0.322-0.634C19.915,15.141,19.767,15.088,19.6,15.088z"/>
		</g>
	</g>
	<g class="st13">
		<path class="st9" d="M12.337,5.808c0.667,0.831-0.217,2.635-1.977,4.029c-1.753,1.388-3.721,1.842-4.387,1.012
			s0.217-2.635,1.97-4.023C9.702,5.431,11.67,4.977,12.337,5.808z"/>
	</g>
</g>
</svg>
