<?xml version="1.0" encoding="utf-8"?>
<!-- Generator: Adobe Illustrator 21.1.0, SVG Export Plug-In . SVG Version: 6.00 Build 0)  -->
<svg version="1.1" id="Layer_1" xmlns="http://www.w3.org/2000/svg" xmlns:xlink="http://www.w3.org/1999/xlink" x="0px" y="0px"
	 viewBox="0 0 32 32" style="enable-background:new 0 0 32 32;" xml:space="preserve">
<style type="text/css">
	.st0{fill:#E9EFF4;}
	.st1{fill:#BBC7D1;}
	.st2{fill:#E24B4B;}
	.st3{fill:#D23F77;}
	.st4{fill:#D3D9DD;}
	.st5{fill:#E84D88;}
	.st6{fill:#DEE4E9;}
	.st7{fill:#3E4347;}
	.st8{fill:#65B1EF;}
	.st9{fill:#FFFFFF;}
	.st10{fill:#59A5E0;}
	.st11{opacity:0.15;fill:#FFFFFF;}
	.st12{fill:#D03F3F;}
	.st13{opacity:0.15;}
	.st14{fill:#E9B02C;}
	.st15{fill:#F4C534;}
	.st16{opacity:0.5;}
	.st17{fill:#FFD93B;}
	.st18{fill:#353A3D;}
	.st19{fill:#777B7E;}
	.st20{fill:#5A5F63;}
	.st21{fill:#4E99D2;}
	.st22{fill:#CBD6E0;}
	.st23{fill:#6B503B;}
	.st24{fill:#89664C;}
	.st25{fill:#8F6D52;}
	.st26{fill:#A5856D;}
	.st27{fill:#C2CACE;}
	.st28{fill:#BF3333;}
	.st29{fill:#DAE5EF;}
	.st30{fill:#373C3F;}
	.st31{fill:#8CC63E;}
	.st32{fill:#7FB239;}
	.st33{opacity:0.7;}
	.st34{fill:#32373A;}
	.st35{opacity:0.1;fill:#FFFFFF;}
	.st36{opacity:0.5;fill:#DAE5EF;}
	.st37{fill:#8D9BA3;}
	.st38{fill:#7A5B44;}
	.st39{opacity:0.2;fill:#FFFFFF;}
	.st40{fill:#45CBEA;}
	.st41{opacity:0.1;}
	.st42{fill:#7B8B92;}
	.st43{fill:#ACB9C1;}
	.st44{fill:#846144;}
	.st45{fill:#9A795F;}
	.st46{opacity:0.2;}
	.st47{fill:#719D34;}
	.st48{fill:#31373A;}
	.st49{fill:#FFDE55;}
	.st50{fill:#CF7519;}
	.st51{fill:none;stroke:#D03F3F;stroke-width:36;stroke-miterlimit:10;}
	.st52{fill:#F29A2E;}
	.st53{opacity:0.25;}
	.st54{fill:#E18823;}
	.st55{opacity:0.5;fill:#E18823;}
	.st56{opacity:0.2;fill:#5A5F63;}
	.st57{fill:#64892F;}
</style>
<g>
	<path class="st8" d="M32,2.281v27.437c0,1.26-1.02,2.28-2.27,2.28H2.28c-1.26,0-2.28-1.02-2.28-2.28V2.281
		c0-1.26,1.02-2.28,2.28-2.28h27.45C30.98,0.001,32,1.021,32,2.281z"/>
	<path class="st9" d="M23.346,4.256v14.668c0,0.427-0.334,0.762-0.761,0.762h-2.86c-0.418,0-0.752-0.334-0.752-0.762V4.266
		c0-0.418,0.334-0.762,0.752-0.762h2.87C23.012,3.504,23.346,3.838,23.346,4.256z"/>
	<path class="st9" d="M13.029,4.256v14.668c0,0.427-0.334,0.762-0.752,0.762h-2.86c-0.427,0-0.761-0.334-0.761-0.762V4.266
		c0-0.418,0.334-0.762,0.761-0.762h2.87C12.694,3.504,13.029,3.838,13.029,4.256z"/>
	<path class="st9" d="M7.874,4.256v14.668c0,0.427-0.343,0.762-0.762,0.762h-2.86c-0.418,0-0.752-0.334-0.752-0.762V4.266
		c0-0.418,0.334-0.762,0.752-0.762h2.869C7.54,3.504,7.874,3.838,7.874,4.256z"/>
	<path class="st9" d="M18.192,4.256v14.668c0,0.427-0.344,0.762-0.762,0.762h-2.86c-0.418,0-0.762-0.334-0.762-0.762V4.266
		c0-0.418,0.344-0.762,0.762-0.762h2.87C17.858,3.504,18.192,3.838,18.192,4.256z"/>
	<path class="st9" d="M28.5,4.256v14.668c0,0.427-0.334,0.762-0.752,0.762h-2.86c-0.418,0-0.762-0.334-0.762-0.762V4.266
		c0-0.418,0.343-0.762,0.762-0.762h2.869C28.166,3.504,28.5,3.838,28.5,4.256z"/>
	<path class="st7" d="M25.393,4.179v9.305c0,0.371-0.307,0.678-0.678,0.678h-1.987c-0.372,0-0.678-0.306-0.678-0.678V4.179
		c0-0.371,0.307-0.678,0.678-0.678h1.987C25.087,3.501,25.393,3.808,25.393,4.179z"/>
	<path class="st30" d="M22.728,14.162h1.987c0.371,0,0.678-0.306,0.678-0.678V4.179C25.393,4.179,24.919,13.023,22.728,14.162z"/>
	<path class="st7" d="M20.246,4.179v9.305c0,0.371-0.307,0.678-0.678,0.678H17.58c-0.372,0-0.678-0.306-0.678-0.678V4.179
		c0-0.371,0.307-0.678,0.678-0.678h1.987C19.939,3.501,20.246,3.808,20.246,4.179z"/>
	<path class="st30" d="M17.58,14.162h1.987c0.371,0,0.678-0.306,0.678-0.678V4.179C20.246,4.179,19.772,13.023,17.58,14.162z"/>
	<path class="st7" d="M15.098,4.179v9.305c0,0.371-0.307,0.678-0.678,0.678h-1.987c-0.372,0-0.678-0.306-0.678-0.678V4.179
		c0-0.371,0.307-0.678,0.678-0.678h1.987C14.792,3.501,15.098,3.808,15.098,4.179z"/>
	<path class="st30" d="M12.433,14.162h1.987c0.371,0,0.678-0.306,0.678-0.678V4.179C15.098,4.179,14.624,13.023,12.433,14.162z"/>
	<path class="st7" d="M9.951,4.179v9.305c0,0.371-0.307,0.678-0.678,0.678H7.286c-0.372,0-0.678-0.306-0.678-0.678V4.179
		c0-0.371,0.307-0.678,0.678-0.678h1.987C9.644,3.501,9.951,3.808,9.951,4.179z"/>
	<path class="st30" d="M7.286,14.162h1.987c0.371,0,0.678-0.306,0.678-0.678V4.179C9.951,4.179,9.477,13.023,7.286,14.162z"/>
	<path class="st21" d="M17.272,23.378c0,0.357-0.288,0.642-0.642,0.642H4.747c-0.355,0-0.64-0.285-0.64-0.642
		c0-0.345,0.275-0.64,0.64-0.64H16.63C16.985,22.738,17.272,23.023,17.272,23.378z"/>
	<path class="st9" d="M10.137,23.374c0,0.89-0.71,1.6-1.59,1.6c-0.88,0-1.6-0.71-1.6-1.6c0-0.88,0.72-1.59,1.6-1.59
		C9.427,21.784,10.137,22.494,10.137,23.374z"/>
	<path class="st2" d="M9.29,23.375c0,0.423-0.33,0.752-0.744,0.752s-0.752-0.33-0.752-0.752c0-0.414,0.338-0.744,0.752-0.744
		S9.29,22.961,9.29,23.375z"/>
	<path class="st21" d="M17.272,27.857c0,0.357-0.288,0.642-0.642,0.642H4.747c-0.355,0-0.64-0.285-0.64-0.642
		c0-0.345,0.275-0.64,0.64-0.64H16.63C16.985,27.218,17.272,27.502,17.272,27.857z"/>
	<path class="st9" d="M12.648,27.853c0,0.89-0.71,1.6-1.59,1.6c-0.88,0-1.6-0.71-1.6-1.6c0-0.88,0.72-1.59,1.6-1.59
		C11.938,26.264,12.648,26.973,12.648,27.853z"/>
	<path class="st17" d="M11.801,27.854c0,0.423-0.33,0.752-0.744,0.752c-0.414,0-0.752-0.33-0.752-0.752
		c0-0.414,0.338-0.744,0.752-0.744C11.471,27.11,11.801,27.44,11.801,27.854z"/>
	<circle class="st20" cx="24.224" cy="25.209" r="2.629"/>
	<circle class="st7" cx="24.223" cy="25.209" r="1.763"/>
	<path class="st30" d="M25.984,25.212c0,0.972-0.785,1.757-1.757,1.757c-0.64,0-1.203-0.333-1.51-0.836
		c0.273,0.171,0.597,0.273,0.947,0.273c0.964,0,1.757-0.785,1.757-1.757c0-0.35-0.102-0.674-0.273-0.947
		C25.651,24.009,25.984,24.572,25.984,25.212z"/>
	<path class="st10" d="M24.393,21.655v0.375c0,0.094-0.068,0.171-0.171,0.171c-0.094,0-0.171-0.077-0.171-0.171v-0.375
		c0-0.102,0.077-0.171,0.171-0.171C24.325,21.484,24.393,21.552,24.393,21.655z"/>
	<path class="st10" d="M23.167,21.81l0.128,0.353c0.032,0.088-0.006,0.184-0.102,0.219c-0.088,0.032-0.187-0.014-0.219-0.102
		l-0.128-0.353c-0.035-0.096,0.014-0.187,0.102-0.219C23.045,21.674,23.132,21.714,23.167,21.81z"/>
	<path class="st10" d="M22.069,22.376l0.241,0.288c0.06,0.072,0.057,0.175-0.021,0.24c-0.072,0.06-0.18,0.051-0.241-0.021
		l-0.241-0.288c-0.066-0.078-0.051-0.18,0.021-0.24C21.907,22.289,22.003,22.298,22.069,22.376z"/>
	<path class="st10" d="M21.23,23.283l0.325,0.188c0.081,0.047,0.114,0.144,0.062,0.233c-0.047,0.081-0.152,0.11-0.233,0.063
		l-0.325-0.188c-0.089-0.051-0.109-0.152-0.062-0.233C21.049,23.257,21.142,23.232,21.23,23.283z"/>
	<path class="st10" d="M20.753,24.423l0.37,0.065c0.092,0.016,0.156,0.097,0.138,0.198c-0.016,0.093-0.105,0.155-0.198,0.139
		l-0.37-0.065c-0.101-0.018-0.155-0.105-0.138-0.198C20.573,24.46,20.652,24.405,20.753,24.423z"/>
	<path class="st10" d="M20.693,25.657l0.37-0.065c0.092-0.016,0.18,0.038,0.198,0.138c0.016,0.093-0.046,0.182-0.138,0.198
		l-0.37,0.065c-0.101,0.018-0.181-0.046-0.198-0.139C20.537,25.753,20.593,25.674,20.693,25.657z"/>
	<path class="st10" d="M21.06,26.836l0.325-0.188c0.081-0.047,0.182-0.026,0.233,0.062c0.047,0.081,0.019,0.186-0.062,0.233
		l-0.325,0.188c-0.089,0.051-0.186,0.019-0.233-0.063C20.946,26.981,20.971,26.888,21.06,26.836z"/>
	<path class="st10" d="M21.808,27.82l0.241-0.288c0.06-0.072,0.162-0.087,0.24-0.021c0.072,0.06,0.081,0.169,0.021,0.24
		l-0.241,0.288c-0.066,0.078-0.169,0.081-0.24,0.021C21.75,27.994,21.742,27.898,21.808,27.82z"/>
	<path class="st10" d="M22.847,28.488l0.128-0.353c0.032-0.088,0.123-0.137,0.219-0.102c0.088,0.032,0.134,0.131,0.102,0.219
		l-0.128,0.353c-0.035,0.096-0.131,0.134-0.219,0.102C22.852,28.672,22.812,28.584,22.847,28.488z"/>
	<path class="st10" d="M24.052,28.761v-0.375c0-0.094,0.068-0.171,0.171-0.171c0.094,0,0.171,0.077,0.171,0.171v0.375
		c0,0.102-0.077,0.171-0.171,0.171C24.12,28.931,24.052,28.863,24.052,28.761z"/>
	<path class="st10" d="M25.277,28.605l-0.128-0.353c-0.032-0.088,0.006-0.184,0.102-0.219c0.088-0.032,0.187,0.014,0.219,0.102
		l0.128,0.353c0.035,0.096-0.014,0.187-0.102,0.219C25.4,28.742,25.312,28.701,25.277,28.605z"/>
	<path class="st10" d="M26.375,28.039l-0.241-0.288c-0.06-0.072-0.057-0.175,0.021-0.24c0.072-0.06,0.18-0.051,0.241,0.021
		l0.241,0.288c0.066,0.078,0.051,0.18-0.021,0.24C26.537,28.126,26.441,28.118,26.375,28.039z"/>
	<path class="st10" d="M27.214,27.132l-0.325-0.188c-0.081-0.047-0.114-0.144-0.062-0.233c0.047-0.081,0.152-0.11,0.233-0.063
		l0.325,0.188c0.089,0.051,0.109,0.152,0.062,0.233C27.396,27.158,27.303,27.183,27.214,27.132z"/>
	<path class="st10" d="M27.692,25.993l-0.37-0.065c-0.092-0.016-0.156-0.097-0.138-0.198c0.016-0.093,0.105-0.155,0.198-0.139
		l0.37,0.065c0.101,0.018,0.155,0.105,0.138,0.198C27.871,25.955,27.792,26.01,27.692,25.993z"/>
	<path class="st10" d="M27.751,24.759l-0.37,0.065c-0.092,0.016-0.18-0.038-0.198-0.138c-0.016-0.093,0.046-0.182,0.138-0.198
		l0.37-0.065c0.101-0.018,0.181,0.046,0.198,0.139C27.907,24.662,27.852,24.741,27.751,24.759z"/>
	<path class="st10" d="M27.385,23.579l-0.325,0.188c-0.081,0.047-0.182,0.026-0.233-0.062c-0.047-0.081-0.019-0.186,0.062-0.233
		l0.325-0.188c0.089-0.051,0.186-0.019,0.233,0.063C27.498,23.434,27.473,23.528,27.385,23.579z"/>
	<path class="st10" d="M26.637,22.596l-0.241,0.288c-0.06,0.072-0.162,0.087-0.24,0.021c-0.072-0.06-0.081-0.169-0.021-0.24
		l0.241-0.288c0.066-0.078,0.169-0.081,0.24-0.021C26.694,22.421,26.703,22.517,26.637,22.596z"/>
	<path class="st10" d="M25.598,21.927l-0.128,0.353c-0.032,0.088-0.123,0.137-0.219,0.102c-0.088-0.032-0.134-0.131-0.102-0.219
		l0.128-0.353c0.035-0.096,0.131-0.134,0.219-0.102C25.592,21.744,25.633,21.831,25.598,21.927z"/>
	<path class="st9" d="M24.392,24.041v0.61c0,0.1-0.07,0.18-0.17,0.18c-0.09,0-0.17-0.08-0.17-0.18v-0.61c0-0.1,0.08-0.17,0.17-0.17
		C24.322,23.871,24.392,23.941,24.392,24.041z"/>
</g>
</svg>
