<?xml version="1.0" encoding="utf-8"?>
<!-- Generator: Adobe Illustrator 21.1.0, SVG Export Plug-In . SVG Version: 6.00 Build 0)  -->
<svg version="1.1" id="Layer_1" xmlns="http://www.w3.org/2000/svg" xmlns:xlink="http://www.w3.org/1999/xlink" x="0px" y="0px"
	 viewBox="0 0 32 32" style="enable-background:new 0 0 32 32;" xml:space="preserve">
<style type="text/css">
	.st0{fill:#E9EFF4;}
	.st1{fill:#BBC7D1;}
	.st2{fill:#E24B4B;}
	.st3{fill:#D23F77;}
	.st4{fill:#D3D9DD;}
	.st5{fill:#E84D88;}
	.st6{fill:#DEE4E9;}
	.st7{fill:#3E4347;}
	.st8{fill:#65B1EF;}
	.st9{fill:#FFFFFF;}
	.st10{fill:#59A5E0;}
	.st11{opacity:0.15;fill:#FFFFFF;}
	.st12{fill:#D03F3F;}
	.st13{opacity:0.15;}
	.st14{fill:#E9B02C;}
	.st15{fill:#F4C534;}
	.st16{opacity:0.5;}
	.st17{fill:#FFD93B;}
	.st18{fill:#353A3D;}
	.st19{fill:#777B7E;}
	.st20{fill:#5A5F63;}
	.st21{fill:#4E99D2;}
	.st22{fill:#CBD6E0;}
	.st23{fill:#6B503B;}
	.st24{fill:#89664C;}
	.st25{fill:#8F6D52;}
	.st26{fill:#A5856D;}
	.st27{fill:#C2CACE;}
	.st28{fill:#BF3333;}
	.st29{fill:#DAE5EF;}
	.st30{fill:#373C3F;}
	.st31{fill:#8CC63E;}
	.st32{fill:#7FB239;}
	.st33{opacity:0.7;}
	.st34{fill:#32373A;}
	.st35{opacity:0.1;fill:#FFFFFF;}
	.st36{opacity:0.5;fill:#DAE5EF;}
	.st37{fill:#8D9BA3;}
	.st38{fill:#7A5B44;}
	.st39{opacity:0.2;fill:#FFFFFF;}
	.st40{fill:#45CBEA;}
	.st41{opacity:0.1;}
	.st42{fill:#7B8B92;}
	.st43{fill:#ACB9C1;}
	.st44{fill:#846144;}
	.st45{fill:#9A795F;}
	.st46{opacity:0.2;}
	.st47{fill:#719D34;}
	.st48{fill:#31373A;}
	.st49{fill:#FFDE55;}
	.st50{fill:#CF7519;}
	.st51{fill:none;stroke:#D03F3F;stroke-width:36;stroke-miterlimit:10;}
	.st52{fill:#F29A2E;}
	.st53{opacity:0.25;}
	.st54{fill:#E18823;}
	.st55{opacity:0.5;fill:#E18823;}
	.st56{opacity:0.2;fill:#5A5F63;}
	.st57{fill:#64892F;}
</style>
<g>
	<g>
		<g>
			<path class="st44" d="M6.573,2.252l15.721,4.575l-0.227,0.897L6.093,4.149c-0.019-0.004-0.041-0.01-0.061-0.016
				C5.51,3.982,5.207,3.437,5.356,2.917C5.505,2.397,6.05,2.1,6.573,2.252z"/>
		</g>
		<g>
			<path class="st44" d="M20.595,6.863c-0.196,0.773,0.618,1.639,1.803,1.944c1.195,0.307,2.32-0.06,2.515-0.834
				c0.193-0.765-0.62-1.631-1.815-1.938C21.914,5.731,20.788,6.098,20.595,6.863z"/>
		</g>
	</g>
	<g>
		<g>
			<rect x="1.05" y="12.276" class="st2" width="29.89" height="17.438"/>
		</g>
		<path class="st12" d="M28.564,12.276c-0.007,2.877-1.322,16.086-27.514,16.48v0.959h29.89V12.276H28.564z"/>
		<path class="st0" d="M0,12.214c0-0.509,0.405-0.915,0.905-0.915h30.191c0.499,0,0.905,0.405,0.905,0.915
			c0,0.499-0.406,0.904-0.905,0.904H0.905C0.405,13.118,0,12.713,0,12.214z"/>
		<g>
			<g>
				<g>
					<g>
						<path class="st0" d="M6.65,16.3l-0.468,1.008c-0.114,0.25-0.374,0.405-0.645,0.405H4.28c-0.281,0-0.53-0.156-0.644-0.405
							L3.168,16.3c-0.094-0.187-0.094-0.416,0-0.603l0.468-0.998c0.114-0.26,0.364-0.416,0.644-0.416h1.258
							c0.27,0,0.53,0.156,0.645,0.416l0.468,0.998C6.744,15.884,6.744,16.113,6.65,16.3z"/>
					</g>
					<g>
						<path class="st43" d="M5.453,11.325c0-0.636-1.089-0.636-1.089,0l0,5.167h1.089L5.453,11.325z"/>
					</g>
					<g>
						<path class="st22" d="M5.891,15.999c0,0.547-0.44,0.987-0.987,0.987c-0.538,0-0.978-0.44-0.978-0.987H5.891z"/>
					</g>
				</g>
				<g>
					<path class="st22" d="M6.37,12.214c0,0.229-0.187,0.416-0.426,0.416H3.875c-0.239,0-0.426-0.187-0.426-0.416
						c0-0.239,0.187-0.426,0.426-0.426h2.069C6.183,11.788,6.37,11.975,6.37,12.214z"/>
				</g>
			</g>
			<g>
				<g>
					<g>
						<path class="st0" d="M14.044,16.3l-0.468,1.008c-0.114,0.25-0.374,0.405-0.645,0.405h-1.258c-0.281,0-0.53-0.156-0.644-0.405
							L10.561,16.3c-0.094-0.187-0.094-0.416,0-0.603l0.468-0.998c0.114-0.26,0.364-0.416,0.644-0.416h1.258
							c0.27,0,0.53,0.156,0.645,0.416l0.468,0.998C14.138,15.884,14.138,16.113,14.044,16.3z"/>
					</g>
					<g>
						<path class="st43" d="M12.847,11.325c0-0.636-1.089-0.636-1.089,0l0,5.167h1.089L12.847,11.325z"/>
					</g>
					<g>
						<path class="st22" d="M13.285,15.999c0,0.547-0.44,0.987-0.987,0.987c-0.538,0-0.978-0.44-0.978-0.987H13.285z"/>
					</g>
				</g>
				<g>
					<path class="st22" d="M13.763,12.214c0,0.229-0.187,0.416-0.426,0.416h-2.069c-0.239,0-0.426-0.187-0.426-0.416
						c0-0.239,0.187-0.426,0.426-0.426h2.069C13.576,11.788,13.763,11.975,13.763,12.214z"/>
				</g>
			</g>
			<g>
				<g>
					<g>
						<path class="st0" d="M21.437,16.3l-0.468,1.008c-0.114,0.25-0.374,0.405-0.645,0.405h-1.258c-0.281,0-0.53-0.156-0.644-0.405
							L17.955,16.3c-0.094-0.187-0.094-0.416,0-0.603l0.468-0.998c0.114-0.26,0.364-0.416,0.644-0.416h1.258
							c0.27,0,0.53,0.156,0.645,0.416l0.468,0.998C21.531,15.884,21.531,16.113,21.437,16.3z"/>
					</g>
					<g>
						<path class="st43" d="M20.24,11.325c0-0.636-1.089-0.636-1.089,0l0,5.167h1.089L20.24,11.325z"/>
					</g>
					<g>
						<path class="st22" d="M20.678,15.999c0,0.547-0.44,0.987-0.987,0.987c-0.538,0-0.978-0.44-0.978-0.987H20.678z"/>
					</g>
				</g>
				<g>
					<path class="st22" d="M21.157,12.214c0,0.229-0.187,0.416-0.426,0.416h-2.069c-0.239,0-0.426-0.187-0.426-0.416
						c0-0.239,0.187-0.426,0.426-0.426h2.069C20.97,11.788,21.157,11.975,21.157,12.214z"/>
				</g>
			</g>
			<g>
				<g>
					<g>
						<path class="st0" d="M28.831,16.3l-0.468,1.008c-0.114,0.25-0.374,0.405-0.645,0.405h-1.258c-0.281,0-0.53-0.156-0.644-0.405
							L25.348,16.3c-0.094-0.187-0.094-0.416,0-0.603l0.468-0.998c0.114-0.26,0.364-0.416,0.644-0.416h1.258
							c0.27,0,0.53,0.156,0.645,0.416l0.468,0.998C28.925,15.884,28.925,16.113,28.831,16.3z"/>
					</g>
					<g>
						<path class="st43" d="M27.634,11.325c0-0.636-1.089-0.636-1.089,0l0,5.167h1.089L27.634,11.325z"/>
					</g>
					<g>
						<path class="st22" d="M28.072,15.999c0,0.547-0.44,0.987-0.987,0.987c-0.538,0-0.978-0.44-0.978-0.987H28.072z"/>
					</g>
				</g>
				<g>
					<path class="st22" d="M28.55,12.214c0,0.229-0.187,0.416-0.426,0.416h-2.069c-0.239,0-0.426-0.187-0.426-0.416
						c0-0.239,0.187-0.426,0.426-0.426h2.069C28.363,11.788,28.55,11.975,28.55,12.214z"/>
				</g>
			</g>
		</g>
		<g>
			<g>
				<path class="st0" d="M32,29.681c0,0.509-0.406,0.915-0.905,0.915H0.905C0.405,30.596,0,30.19,0,29.681
					c0-0.499,0.405-0.904,0.905-0.904h30.191C31.594,28.776,32,29.182,32,29.681z"/>
			</g>
			<g>
				<g>
					<g>
						<g>
							<path class="st0" d="M25.348,25.597l0.468-1.008c0.114-0.25,0.374-0.405,0.645-0.405l1.258,0c0.281,0,0.53,0.156,0.644,0.405
								l0.468,1.008c0.094,0.187,0.094,0.416,0,0.603l-0.468,0.998c-0.114,0.26-0.364,0.416-0.644,0.416l-1.258,0
								c-0.27,0-0.53-0.156-0.645-0.416L25.348,26.2C25.255,26.013,25.255,25.784,25.348,25.597z"/>
						</g>
						<g>
							<path class="st43" d="M26.545,30.571c0,0.636,1.089,0.636,1.089,0l0-5.167l-1.089,0L26.545,30.571z"/>
						</g>
						<g>
							<path class="st22" d="M26.107,25.897c0-0.547,0.44-0.987,0.987-0.987c0.538,0,0.978,0.44,0.978,0.987L26.107,25.897z"/>
						</g>
					</g>
					<g>
						<path class="st22" d="M25.629,29.683c0-0.229,0.187-0.416,0.426-0.416l2.069,0c0.239,0,0.426,0.187,0.426,0.416
							c0,0.239-0.187,0.426-0.426,0.426l-2.069,0C25.816,30.109,25.629,29.922,25.629,29.683z"/>
					</g>
				</g>
				<g>
					<g>
						<g>
							<path class="st0" d="M17.955,25.597l0.468-1.008c0.114-0.25,0.374-0.405,0.645-0.405l1.258,0c0.281,0,0.53,0.156,0.644,0.405
								l0.468,1.008c0.094,0.187,0.094,0.416,0,0.603l-0.468,0.998c-0.114,0.26-0.364,0.416-0.644,0.416l-1.258,0
								c-0.27,0-0.53-0.156-0.645-0.416L17.955,26.2C17.861,26.013,17.861,25.784,17.955,25.597z"/>
						</g>
						<g>
							<path class="st43" d="M19.152,30.571c0,0.636,1.089,0.636,1.089,0l0-5.167l-1.089,0L19.152,30.571z"/>
						</g>
						<g>
							<path class="st22" d="M18.714,25.897c0-0.547,0.44-0.987,0.987-0.987c0.538,0,0.978,0.44,0.978,0.987L18.714,25.897z"/>
						</g>
					</g>
					<g>
						<path class="st22" d="M18.236,29.683c0-0.229,0.187-0.416,0.426-0.416l2.069,0c0.239,0,0.426,0.187,0.426,0.416
							c0,0.239-0.187,0.426-0.426,0.426l-2.069,0C18.423,30.109,18.236,29.922,18.236,29.683z"/>
					</g>
				</g>
				<g>
					<g>
						<g>
							<path class="st0" d="M10.561,25.597l0.468-1.008c0.114-0.25,0.374-0.405,0.645-0.405l1.258,0c0.281,0,0.53,0.156,0.644,0.405
								l0.468,1.008c0.094,0.187,0.094,0.416,0,0.603l-0.468,0.998c-0.114,0.26-0.364,0.416-0.644,0.416l-1.258,0
								c-0.27,0-0.53-0.156-0.645-0.416L10.561,26.2C10.468,26.013,10.468,25.784,10.561,25.597z"/>
						</g>
						<g>
							<path class="st43" d="M11.758,30.571c0,0.636,1.089,0.636,1.089,0l0-5.167l-1.089,0L11.758,30.571z"/>
						</g>
						<g>
							<path class="st22" d="M11.32,25.897c0-0.547,0.44-0.987,0.987-0.987c0.538,0,0.978,0.44,0.978,0.987L11.32,25.897z"/>
						</g>
					</g>
					<g>
						<path class="st22" d="M10.842,29.683c0-0.229,0.187-0.416,0.426-0.416l2.069,0c0.239,0,0.426,0.187,0.426,0.416
							c0,0.239-0.187,0.426-0.426,0.426l-2.069,0C11.029,30.109,10.842,29.922,10.842,29.683z"/>
					</g>
				</g>
				<g>
					<g>
						<g>
							<path class="st0" d="M3.168,25.597l0.468-1.008c0.114-0.25,0.374-0.405,0.645-0.405l1.258,0c0.281,0,0.53,0.156,0.644,0.405
								l0.468,1.008c0.094,0.187,0.094,0.416,0,0.603l-0.468,0.998c-0.114,0.26-0.364,0.416-0.644,0.416l-1.258,0
								c-0.27,0-0.53-0.156-0.645-0.416L3.168,26.2C3.074,26.013,3.074,25.784,3.168,25.597z"/>
						</g>
						<g>
							<path class="st43" d="M4.365,30.571c0,0.636,1.089,0.636,1.089,0l0-5.167l-1.089,0L4.365,30.571z"/>
						</g>
						<g>
							<path class="st22" d="M3.927,25.897c0-0.547,0.44-0.987,0.987-0.987c0.538,0,0.978,0.44,0.978,0.987L3.927,25.897z"/>
						</g>
					</g>
					<g>
						<path class="st22" d="M3.449,29.683c0-0.229,0.187-0.416,0.426-0.416l2.069,0c0.239,0,0.426,0.187,0.426,0.416
							c0,0.239-0.187,0.426-0.426,0.426l-2.069,0C3.636,30.109,3.449,29.922,3.449,29.683z"/>
					</g>
				</g>
			</g>
		</g>
	</g>
	<g>
		<g>
			<path class="st45" d="M26.475,1.021L11.369,7.03l0.314,0.87L27.14,2.861c0.019-0.006,0.04-0.014,0.058-0.021
				c0.502-0.2,0.747-0.769,0.548-1.271C27.546,1.067,26.977,0.822,26.475,1.021z"/>
		</g>
		<g>
			<path class="st45" d="M13.054,6.908c0.271,0.75-0.448,1.686-1.59,2.099C10.312,9.423,9.161,9.163,8.89,8.413
				c-0.268-0.742,0.451-1.678,1.602-2.094C11.635,5.906,12.786,6.167,13.054,6.908z"/>
		</g>
	</g>
</g>
</svg>
