<?xml version="1.0" encoding="utf-8"?>
<!-- Generator: Adobe Illustrator 21.1.0, SVG Export Plug-In . SVG Version: 6.00 Build 0)  -->
<svg version="1.1" id="Layer_1" xmlns="http://www.w3.org/2000/svg" xmlns:xlink="http://www.w3.org/1999/xlink" x="0px" y="0px"
	 viewBox="0 0 32 32" style="enable-background:new 0 0 32 32;" xml:space="preserve">
<style type="text/css">
	.st0{fill:#E9EFF4;}
	.st1{fill:#BBC7D1;}
	.st2{fill:#E24B4B;}
	.st3{fill:#D23F77;}
	.st4{fill:#D3D9DD;}
	.st5{fill:#E84D88;}
	.st6{fill:#DEE4E9;}
	.st7{fill:#3E4347;}
	.st8{fill:#65B1EF;}
	.st9{fill:#FFFFFF;}
	.st10{fill:#59A5E0;}
	.st11{opacity:0.15;fill:#FFFFFF;}
	.st12{fill:#D03F3F;}
	.st13{opacity:0.15;}
	.st14{fill:#E9B02C;}
	.st15{fill:#F4C534;}
	.st16{opacity:0.5;}
	.st17{fill:#FFD93B;}
	.st18{fill:#353A3D;}
	.st19{fill:#777B7E;}
	.st20{fill:#5A5F63;}
	.st21{fill:#4E99D2;}
	.st22{fill:#CBD6E0;}
	.st23{fill:#6B503B;}
	.st24{fill:#89664C;}
	.st25{fill:#8F6D52;}
	.st26{fill:#A5856D;}
	.st27{fill:#C2CACE;}
	.st28{fill:#BF3333;}
	.st29{fill:#DAE5EF;}
	.st30{fill:#373C3F;}
	.st31{fill:#8CC63E;}
	.st32{fill:#7FB239;}
	.st33{opacity:0.7;}
	.st34{fill:#32373A;}
	.st35{opacity:0.1;fill:#FFFFFF;}
	.st36{opacity:0.5;fill:#DAE5EF;}
	.st37{fill:#8D9BA3;}
	.st38{fill:#7A5B44;}
	.st39{opacity:0.2;fill:#FFFFFF;}
	.st40{fill:#45CBEA;}
	.st41{opacity:0.1;}
	.st42{fill:#7B8B92;}
	.st43{fill:#ACB9C1;}
	.st44{fill:#846144;}
	.st45{fill:#9A795F;}
	.st46{opacity:0.2;}
	.st47{fill:#719D34;}
	.st48{fill:#31373A;}
	.st49{fill:#FFDE55;}
	.st50{fill:#CF7519;}
	.st51{fill:none;stroke:#D03F3F;stroke-width:36;stroke-miterlimit:10;}
	.st52{fill:#F29A2E;}
	.st53{opacity:0.25;}
	.st54{fill:#E18823;}
	.st55{opacity:0.5;fill:#E18823;}
	.st56{opacity:0.2;fill:#5A5F63;}
	.st57{fill:#64892F;}
</style>
<g>
	<path class="st29" d="M28.478,6.079v16.015c0,0.476,0.393,0.869,0.869,0.869c0.488,0,0.869-0.393,0.869-0.869V6.079H28.478z"/>
	<path class="st30" d="M30.072,18.143h-3.467v3.249h3.467c0.904,0,1.63-0.726,1.63-1.618C31.702,18.868,30.976,18.143,30.072,18.143
		z"/>
	<path class="st7" d="M28.037,17.559v4.415c0,0.298-0.238,0.536-0.535,0.536h-1.154c-0.298,0-0.536-0.238-0.536-0.536v-4.415
		c0-0.298,0.238-0.535,0.536-0.535h1.154C27.799,17.024,28.037,17.262,28.037,17.559z"/>
	<g>
		<path class="st8" d="M26.776,11.401v16.72c0,1.222-0.987,2.209-2.201,2.209H2.209C0.988,30.33,0,29.343,0,28.121v-16.72
			C0,10.188,0.988,9.2,2.209,9.2h22.366C25.789,9.2,26.776,10.188,26.776,11.401z"/>
	</g>
	<g>
		<rect x="2.929" y="12.131" class="st7" width="20.919" height="15.271"/>
	</g>
	<g>
		<path class="st0" d="M9.826,12.129H3.902c-0.948,5.091-0.948,10.182,0,15.273h5.924C9.514,22.311,9.514,17.22,9.826,12.129z"/>
		<path class="st0" d="M10.392,27.402h5.99c0.261-5.091,0.261-10.182,0-15.273h-5.99C10.131,17.22,10.131,22.311,10.392,27.402z"/>
		<path class="st0" d="M22.873,12.129h-5.924c0.312,5.091,0.312,10.182,0,15.273h5.924C23.821,22.311,23.821,17.22,22.873,12.129z"
			/>
	</g>
	<g>
		<path class="st9" d="M9.736,14.104c0.03-0.658,0.05-1.317,0.091-1.975H3.903c-0.123,0.658-0.228,1.317-0.319,1.975H9.736z"/>
		<path class="st6" d="M3.556,25.188c0.098,0.738,0.209,1.476,0.347,2.214h5.924c-0.045-0.738-0.07-1.476-0.102-2.214H3.556z"/>
		<path class="st6" d="M10.307,25.188c0.027,0.738,0.047,1.476,0.085,2.214h5.99c0.038-0.738,0.058-1.476,0.085-2.214H10.307z"/>
		<path class="st9" d="M16.459,14.104c-0.025-0.658-0.042-1.317-0.076-1.975h-5.99c-0.034,0.658-0.051,1.317-0.076,1.975H16.459z"/>
		<path class="st9" d="M23.192,14.104c-0.091-0.658-0.196-1.317-0.319-1.975h-5.924c0.04,0.658,0.061,1.317,0.091,1.975H23.192z"/>
		<path class="st6" d="M17.051,25.188c-0.032,0.738-0.057,1.476-0.102,2.214h5.924c0.137-0.738,0.249-1.476,0.347-2.214H17.051z"/>
	</g>
	<g>
		<g>
			<path class="st2" d="M4.445,17.889c0.032-0.353,0.073-0.705,0.123-1.056c1.299,0,2.598,0,3.898,0
				c-0.022,0.274-0.041,0.549-0.057,0.825c-0.342,0.316-0.702,0.77-1.056,1.364c-0.355,0.593-0.613,1.225-0.763,1.892
				c-0.148,0.667-0.186,1.262-0.124,1.784c-0.366,0-0.733,0-1.099,0C5.28,21.88,5.39,21.04,5.703,20.184
				c0.311-0.857,0.785-1.623,1.37-2.295C6.197,17.889,5.321,17.889,4.445,17.889z"/>
		</g>
		<g>
			<path class="st2" d="M18.644,17.889c-0.018-0.353-0.041-0.705-0.069-1.056c1.299,0,2.598,0,3.898,0
				c0.039,0.274,0.073,0.549,0.101,0.825c-0.293,0.316-0.589,0.77-0.909,1.364c-0.322,0.593-0.584,1.225-0.792,1.892
				c-0.208,0.667-0.343,1.262-0.399,1.784c-0.366,0-0.733,0-1.099,0c0.095-0.818,0.312-1.657,0.653-2.514
				c0.338-0.857,0.754-1.623,1.244-2.295C20.395,17.889,19.52,17.889,18.644,17.889z"/>
		</g>
		<g>
			<path class="st2" d="M11.406,17.889c0.007-0.353,0.017-0.705,0.029-1.056c1.299,0,2.598,0,3.898,0
				c0.008,0.274,0.014,0.549,0.02,0.825c-0.319,0.316-0.647,0.77-0.984,1.364c-0.337,0.593-0.598,1.225-0.777,1.892
				c-0.178,0.667-0.263,1.262-0.258,1.784c-0.366,0-0.733,0-1.099,0c0.002-0.818,0.166-1.657,0.491-2.514
				c0.326-0.857,0.77-1.623,1.308-2.295C13.157,17.889,12.281,17.889,11.406,17.889z"/>
		</g>
	</g>
	<path class="st2" d="M31.214,6.183c-1.023,1.035-2.713,1.035-3.737,0c-1.035-1.023-1.035-2.713,0-3.737
		c1.024-1.035,2.713-1.035,3.737,0C32.25,3.469,32.25,5.159,31.214,6.183z"/>
	<path class="st12" d="M32,4.314c0,1.464-1.19,2.654-2.654,2.654c-0.964,0-1.797-0.512-2.261-1.273
		c0.405,0.25,0.881,0.393,1.38,0.393c1.464,0,2.654-1.19,2.654-2.654c0-0.5-0.143-0.976-0.393-1.38C31.488,2.517,32,3.35,32,4.314z"
		/>
	<g class="st13">
		<path class="st9" d="M28.726,3.703c-0.36,0.36-0.85,0.45-1.09,0.21c-0.25-0.24-0.15-0.73,0.21-1.1c0.37-0.36,0.86-0.46,1.1-0.21
			C29.186,2.843,29.096,3.333,28.726,3.703z"/>
	</g>
</g>
</svg>
