<?xml version="1.0" encoding="utf-8"?>
<!-- Generator: Adobe Illustrator 21.1.0, SVG Export Plug-In . SVG Version: 6.00 Build 0)  -->
<svg version="1.1" id="Layer_1" xmlns="http://www.w3.org/2000/svg" xmlns:xlink="http://www.w3.org/1999/xlink" x="0px" y="0px"
	 viewBox="0 0 32 32" style="enable-background:new 0 0 32 32;" xml:space="preserve">
<style type="text/css">
	.st0{fill:#E9EFF4;}
	.st1{fill:#BBC7D1;}
	.st2{fill:#E24B4B;}
	.st3{fill:#D23F77;}
	.st4{fill:#D3D9DD;}
	.st5{fill:#E84D88;}
	.st6{fill:#DEE4E9;}
	.st7{fill:#3E4347;}
	.st8{fill:#65B1EF;}
	.st9{fill:#FFFFFF;}
	.st10{fill:#59A5E0;}
	.st11{opacity:0.15;fill:#FFFFFF;}
	.st12{fill:#D03F3F;}
	.st13{opacity:0.15;}
	.st14{fill:#E9B02C;}
	.st15{fill:#F4C534;}
	.st16{opacity:0.5;}
	.st17{fill:#FFD93B;}
	.st18{fill:#353A3D;}
	.st19{fill:#777B7E;}
	.st20{fill:#5A5F63;}
	.st21{fill:#4E99D2;}
	.st22{fill:#CBD6E0;}
	.st23{fill:#6B503B;}
	.st24{fill:#89664C;}
	.st25{fill:#8F6D52;}
	.st26{fill:#A5856D;}
	.st27{fill:#C2CACE;}
	.st28{fill:#BF3333;}
	.st29{fill:#DAE5EF;}
	.st30{fill:#373C3F;}
	.st31{fill:#8CC63E;}
	.st32{fill:#7FB239;}
	.st33{opacity:0.7;}
	.st34{fill:#32373A;}
	.st35{opacity:0.1;fill:#FFFFFF;}
	.st36{opacity:0.5;fill:#DAE5EF;}
	.st37{fill:#8D9BA3;}
	.st38{fill:#7A5B44;}
	.st39{opacity:0.2;fill:#FFFFFF;}
	.st40{fill:#45CBEA;}
	.st41{opacity:0.1;}
	.st42{fill:#7B8B92;}
	.st43{fill:#ACB9C1;}
	.st44{fill:#846144;}
	.st45{fill:#9A795F;}
	.st46{opacity:0.2;}
	.st47{fill:#719D34;}
	.st48{fill:#31373A;}
	.st49{fill:#FFDE55;}
	.st50{fill:#CF7519;}
	.st51{fill:none;stroke:#D03F3F;stroke-width:36;stroke-miterlimit:10;}
	.st52{fill:#F29A2E;}
	.st53{opacity:0.25;}
	.st54{fill:#E18823;}
	.st55{opacity:0.5;fill:#E18823;}
	.st56{opacity:0.2;fill:#5A5F63;}
	.st57{fill:#64892F;}
</style>
<g>
	<path class="st7" d="M6.931,31.12l12.908-12.908l-6.051-6.051L0.88,25.069C-2.264,28.212,3.788,34.264,6.931,31.12z"/>
	<path class="st2" d="M6.931,31.12c0.722-0.913,1.246-1.988,1.639-3.088c0.961-2.688,1.63-2.721,3.612-4.158
		c2.063-1.498,3.228-4.367,1.773-5.822c-1.463-1.463-4.386-0.283-5.873,1.823c-1.414,2.002-1.418,2.57-4.022,3.527
		c-1.126,0.414-2.24,0.934-3.182,1.667C-2.264,28.212,3.788,34.264,6.931,31.12z"/>
	<path class="st2" d="M18.258,19.324l-5.582-5.582c-0.275-0.275-0.383-0.67-0.294-1.045c0.414-1.699,1.378-3.43,2.853-4.905
		c0.085-0.085,0.166-0.166,0.255-0.248l8.965,8.965c-1.525,1.618-3.36,2.671-5.152,3.108C18.927,19.708,18.533,19.599,18.258,19.324
		z"/>
	<path class="st7" d="M24.73,16.102L15.898,7.27l3.033-3.033c0.261-0.261,0.684-0.261,0.945,0l0.045,0.045
		c0.169,0.169,0.229,0.413,0.173,0.645c-0.083,0.351,0.078,0.818,0.443,1.183c0.366,0.366,0.832,0.526,1.183,0.443
		c0.232-0.055,0.476,0.005,0.645,0.173l0.232,0.232c0.169,0.169,0.229,0.413,0.173,0.645c-0.083,0.351,0.077,0.818,0.443,1.183
		c0.366,0.366,0.832,0.527,1.183,0.443c0.232-0.055,0.476,0.004,0.645,0.173l0.232,0.232c0.169,0.169,0.228,0.413,0.173,0.645
		c-0.083,0.351,0.077,0.818,0.443,1.183c0.366,0.366,0.832,0.527,1.183,0.443c0.232-0.055,0.476,0.004,0.645,0.173l0.045,0.045
		c0.261,0.261,0.261,0.684,0,0.945L24.73,16.102z"/>
	<path class="st20" d="M24.245,16.799l-9.043-9.043c-0.185-0.185-0.185-0.484,0-0.669c0.185-0.185,0.484-0.185,0.669,0l9.043,9.043
		c0.185,0.185,0.185,0.484,0,0.669c-0.092,0.092-0.213,0.139-0.334,0.139C24.458,16.937,24.337,16.891,24.245,16.799z"/>
	<path class="st20" d="M23.906,14.351c-0.114-0.114-0.114-0.297,0-0.411l1.376-1.376c0.114-0.114,0.297-0.114,0.411,0
		c0.113,0.113,0.114,0.297,0,0.411l-1.376,1.376C24.203,14.465,24.019,14.465,23.906,14.351z"/>
	<path class="st20" d="M22.654,13.1c-0.114-0.114-0.114-0.297,0-0.411l1.376-1.376c0.114-0.114,0.297-0.114,0.411,0
		c0.113,0.113,0.114,0.297,0,0.411L23.065,13.1C22.952,13.213,22.768,13.213,22.654,13.1z"/>
	<path class="st20" d="M21.403,11.848c-0.114-0.114-0.114-0.297,0-0.411l1.376-1.376c0.114-0.114,0.297-0.114,0.411,0
		c0.113,0.113,0.114,0.297,0,0.411l-1.376,1.376C21.7,11.962,21.517,11.962,21.403,11.848z"/>
	<path class="st20" d="M20.152,10.597c-0.114-0.114-0.114-0.297,0-0.411l1.376-1.376c0.114-0.114,0.297-0.114,0.411,0
		c0.113,0.113,0.114,0.297,0,0.411l-1.376,1.376C20.449,10.711,20.265,10.711,20.152,10.597z"/>
	<path class="st20" d="M18.9,9.346c-0.114-0.114-0.114-0.297,0-0.411l1.376-1.376c0.114-0.114,0.297-0.114,0.411,0
		c0.113,0.113,0.114,0.297,0,0.411l-1.376,1.376C19.198,9.459,19.014,9.459,18.9,9.346z"/>
	<path class="st20" d="M17.649,8.094c-0.114-0.114-0.114-0.297,0-0.411l1.376-1.376c0.114-0.114,0.297-0.114,0.411,0
		c0.113,0.113,0.114,0.297,0,0.411L18.06,8.094C17.946,8.208,17.762,8.208,17.649,8.094z"/>
	<path class="st28" d="M12.21,21.27l-2.872,2.872c-0.41,0.41-1.072,0.414-1.483,0.004c-0.41-0.41-0.406-1.072,0.004-1.483
		l2.872-2.872c0.41-0.41,1.068-0.41,1.479,0C12.62,20.202,12.62,20.86,12.21,21.27z"/>
	
		<ellipse transform="matrix(0.7071 -0.7071 0.7071 0.7071 -12.9374 13.387)" class="st0" cx="9.691" cy="22.31" rx="1.561" ry="1.561"/>
	
		<ellipse transform="matrix(0.7071 -0.7071 0.7071 0.7071 -12.9387 13.3865)" class="st7" cx="9.69" cy="22.312" rx="0.865" ry="0.865"/>
	<path class="st30" d="M10.301,22.923c-0.337,0.337-0.886,0.337-1.223,0c-0.232-0.232-0.306-0.569-0.213-0.863
		c0.043,0.105,0.108,0.209,0.193,0.294c0.348,0.348,0.914,0.348,1.262,0c0.085-0.085,0.155-0.186,0.193-0.294
		C10.607,22.354,10.537,22.687,10.301,22.923z"/>
	<path class="st17" d="M22.414,4.608l1.629-4.197c0.129-0.331,0.502-0.496,0.833-0.367c0.332,0.129,0.496,0.501,0.367,0.833
		l-1.629,4.197c-0.129,0.331-0.502,0.496-0.833,0.367C22.451,5.313,22.286,4.94,22.414,4.608z"/>
	<path class="st17" d="M25.068,6.932c-0.251-0.251-0.251-0.659,0-0.91l3.183-3.183c0.251-0.251,0.659-0.251,0.91,0
		c0.251,0.251,0.251,0.659,0,0.91l-3.183,3.183C25.727,7.183,25.319,7.183,25.068,6.932z"/>
	<path class="st17" d="M26.56,9.219c-0.129-0.332,0.035-0.705,0.367-0.833l4.196-1.629c0.332-0.128,0.705,0.035,0.833,0.367
		c0.129,0.331-0.036,0.704-0.367,0.833l-4.196,1.629C27.059,9.715,26.687,9.549,26.56,9.219z"/>
</g>
</svg>
