<?xml version="1.0" encoding="utf-8"?>
<!-- Generator: Adobe Illustrator 21.1.0, SVG Export Plug-In . SVG Version: 6.00 Build 0)  -->
<svg version="1.1" id="Layer_1" xmlns="http://www.w3.org/2000/svg" xmlns:xlink="http://www.w3.org/1999/xlink" x="0px" y="0px"
	 viewBox="0 0 32 32" style="enable-background:new 0 0 32 32;" xml:space="preserve">
<style type="text/css">
	.st0{fill:#E9EFF4;}
	.st1{fill:#BBC7D1;}
	.st2{fill:#E24B4B;}
	.st3{fill:#D23F77;}
	.st4{fill:#D3D9DD;}
	.st5{fill:#E84D88;}
	.st6{fill:#DEE4E9;}
	.st7{fill:#3E4347;}
	.st8{fill:#65B1EF;}
	.st9{fill:#FFFFFF;}
	.st10{fill:#59A5E0;}
	.st11{opacity:0.15;fill:#FFFFFF;}
	.st12{fill:#D03F3F;}
	.st13{opacity:0.15;}
	.st14{fill:#E9B02C;}
	.st15{fill:#F4C534;}
	.st16{opacity:0.5;}
	.st17{fill:#FFD93B;}
	.st18{fill:#353A3D;}
	.st19{fill:#777B7E;}
	.st20{fill:#5A5F63;}
	.st21{fill:#4E99D2;}
	.st22{fill:#CBD6E0;}
	.st23{fill:#6B503B;}
	.st24{fill:#89664C;}
	.st25{fill:#8F6D52;}
	.st26{fill:#A5856D;}
	.st27{fill:#C2CACE;}
	.st28{fill:#BF3333;}
	.st29{fill:#DAE5EF;}
	.st30{fill:#373C3F;}
	.st31{fill:#8CC63E;}
	.st32{fill:#7FB239;}
	.st33{opacity:0.7;}
	.st34{fill:#32373A;}
	.st35{opacity:0.1;fill:#FFFFFF;}
	.st36{opacity:0.5;fill:#DAE5EF;}
	.st37{fill:#8D9BA3;}
	.st38{fill:#7A5B44;}
	.st39{opacity:0.2;fill:#FFFFFF;}
	.st40{fill:#45CBEA;}
	.st41{opacity:0.1;}
	.st42{fill:#7B8B92;}
	.st43{fill:#ACB9C1;}
	.st44{fill:#846144;}
	.st45{fill:#9A795F;}
	.st46{opacity:0.2;}
	.st47{fill:#719D34;}
	.st48{fill:#31373A;}
	.st49{fill:#FFDE55;}
	.st50{fill:#CF7519;}
	.st51{fill:none;stroke:#D03F3F;stroke-width:36;stroke-miterlimit:10;}
	.st52{fill:#F29A2E;}
	.st53{opacity:0.25;}
	.st54{fill:#E18823;}
	.st55{opacity:0.5;fill:#E18823;}
	.st56{opacity:0.2;fill:#5A5F63;}
	.st57{fill:#64892F;}
</style>
<g>
	<g>
		<g>
			<g>
				<g>
					
						<rect x="12.507" y="14.086" transform="matrix(-1 -4.502988e-11 4.502988e-11 -1 28.8118 29.5197)" class="st7" width="3.797" height="1.347"/>
				</g>
				<g>
					
						<rect x="12.507" y="21.264" transform="matrix(-1 -4.502988e-11 4.502988e-11 -1 28.8118 43.8756)" class="st7" width="3.797" height="1.347"/>
				</g>
			</g>
			<g>
				<rect x="6.736" y="22.906" class="st7" width="4.851" height="4.557"/>
			</g>
			<g>
				<g>
					<path class="st7" d="M0.918,0.882v2.376l1.617,9.309c0,1.16,7.57,1.16,7.57,0l1.789-9.309V0.882
						C8.257-0.311,4.598-0.276,0.918,0.882z"/>
					<g>
						<path class="st20" d="M0.918,0.882c3.68-1.158,7.339-1.193,10.975,0v2.45c-3.636-1.193-7.295-1.158-10.975,0V0.882z"/>
					</g>
				</g>
			</g>
			<g>
				<path class="st20" d="M1.448,13.143l0.934,10.504c0.024,0.273,0.253,0.482,0.527,0.482h8.923c0.589,0,1.067-0.478,1.067-1.067
					v-8.444c0-1.133-0.919-2.052-2.052-2.052H1.975C1.664,12.567,1.421,12.834,1.448,13.143z"/>
			</g>
			<path class="st7" d="M9.121,14.837h3.778v7.024H9.121c-0.39,0-0.705-0.316-0.705-0.705v-5.614
				C8.416,15.152,8.732,14.837,9.121,14.837z"/>
			<g>
				<path class="st20" d="M5.708,27.988c0,1.403,0.336,2.682,0.887,3.649C6.722,31.86,6.958,32,7.216,32h3.891
					c0.257,0,0.493-0.14,0.621-0.363c0.552-0.966,0.887-2.246,0.887-3.649c0-0.343-0.02-0.678-0.058-1.004
					c-0.042-0.357-0.347-0.625-0.707-0.625H6.473c-0.36,0-0.665,0.268-0.707,0.625C5.727,27.31,5.708,27.646,5.708,27.988z"/>
			</g>
		</g>
		<g>
			<g>
				<g>
					<rect x="15.696" y="14.086" class="st7" width="3.797" height="1.347"/>
				</g>
				<g>
					<rect x="15.696" y="21.264" class="st7" width="3.797" height="1.347"/>
				</g>
			</g>
			<g>
				<rect x="20.414" y="22.906" class="st7" width="4.851" height="4.557"/>
			</g>
			<g>
				<g>
					<path class="st7" d="M31.082,0.882v2.376l-1.617,9.309c0,1.16-7.57,1.16-7.57,0l-1.788-9.309V0.882
						C23.743-0.311,27.402-0.276,31.082,0.882z"/>
					<g>
						<path class="st20" d="M31.082,0.882c-3.68-1.158-7.339-1.193-10.975,0v2.45c3.636-1.193,7.295-1.158,10.975,0V0.882z"/>
					</g>
				</g>
			</g>
			<g>
				<path class="st20" d="M30.552,13.143l-0.934,10.504c-0.024,0.273-0.253,0.482-0.527,0.482h-8.923
					c-0.589,0-1.067-0.478-1.067-1.067v-8.444c0-1.133,0.919-2.052,2.052-2.052h8.873C30.336,12.567,30.579,12.834,30.552,13.143z"
					/>
			</g>
			<path class="st7" d="M22.879,14.837h-3.778v7.024h3.778c0.39,0,0.705-0.316,0.705-0.705v-5.614
				C23.584,15.152,23.268,14.837,22.879,14.837z"/>
			<g>
				<path class="st20" d="M26.292,27.988c0,1.403-0.336,2.682-0.887,3.649C25.278,31.86,25.042,32,24.784,32h-3.891
					c-0.257,0-0.493-0.14-0.621-0.363c-0.552-0.966-0.887-2.246-0.887-3.649c0-0.343,0.02-0.678,0.058-1.004
					c0.042-0.357,0.347-0.625,0.707-0.625h5.376c0.36,0,0.665,0.268,0.707,0.625C26.273,27.31,26.292,27.646,26.292,27.988z"/>
			</g>
		</g>
	</g>
	<g>
		<path class="st20" d="M17.896,13.973v8.37c0,0.3-0.24,0.54-0.53,0.54h-2.73c-0.3,0-0.53-0.24-0.53-0.54v-8.37
			c0-0.3,0.23-0.54,0.53-0.54h2.73C17.656,13.433,17.896,13.673,17.896,13.973z"/>
	</g>
	<g>
		<path class="st7" d="M18.592,16.886v2.747c0,0.366-0.302,0.668-0.668,0.668h-3.846c-0.377,0-0.679-0.302-0.679-0.668v-2.747
			c0-0.377,0.302-0.679,0.679-0.679h3.846C18.29,16.207,18.592,16.509,18.592,16.886z"/>
	</g>
</g>
</svg>
