<?xml version="1.0" encoding="utf-8"?>
<!-- Generator: Adobe Illustrator 21.1.0, SVG Export Plug-In . SVG Version: 6.00 Build 0)  -->
<svg version="1.1" id="Layer_1" xmlns="http://www.w3.org/2000/svg" xmlns:xlink="http://www.w3.org/1999/xlink" x="0px" y="0px"
	 viewBox="0 0 32 32" style="enable-background:new 0 0 32 32;" xml:space="preserve">
<style type="text/css">
	.st0{fill:#E9EFF4;}
	.st1{fill:#BBC7D1;}
	.st2{fill:#E24B4B;}
	.st3{fill:#D23F77;}
	.st4{fill:#D3D9DD;}
	.st5{fill:#E84D88;}
	.st6{fill:#DEE4E9;}
	.st7{fill:#3E4347;}
	.st8{fill:#65B1EF;}
	.st9{fill:#FFFFFF;}
	.st10{fill:#59A5E0;}
	.st11{opacity:0.15;fill:#FFFFFF;}
	.st12{fill:#D03F3F;}
	.st13{opacity:0.15;}
	.st14{fill:#E9B02C;}
	.st15{fill:#F4C534;}
	.st16{opacity:0.5;}
	.st17{fill:#FFD93B;}
	.st18{fill:#353A3D;}
	.st19{fill:#777B7E;}
	.st20{fill:#5A5F63;}
	.st21{fill:#4E99D2;}
	.st22{fill:#CBD6E0;}
	.st23{fill:#6B503B;}
	.st24{fill:#89664C;}
	.st25{fill:#8F6D52;}
	.st26{fill:#A5856D;}
	.st27{fill:#C2CACE;}
	.st28{fill:#BF3333;}
	.st29{fill:#DAE5EF;}
	.st30{fill:#373C3F;}
	.st31{fill:#8CC63E;}
	.st32{fill:#7FB239;}
	.st33{opacity:0.7;}
	.st34{fill:#32373A;}
	.st35{opacity:0.1;fill:#FFFFFF;}
	.st36{opacity:0.5;fill:#DAE5EF;}
	.st37{fill:#8D9BA3;}
	.st38{fill:#7A5B44;}
	.st39{opacity:0.2;fill:#FFFFFF;}
	.st40{fill:#45CBEA;}
	.st41{opacity:0.1;}
	.st42{fill:#7B8B92;}
	.st43{fill:#ACB9C1;}
	.st44{fill:#846144;}
	.st45{fill:#9A795F;}
	.st46{opacity:0.2;}
	.st47{fill:#719D34;}
	.st48{fill:#31373A;}
	.st49{fill:#FFDE55;}
	.st50{fill:#CF7519;}
	.st51{fill:none;stroke:#D03F3F;stroke-width:36;stroke-miterlimit:10;}
	.st52{fill:#F29A2E;}
	.st53{opacity:0.25;}
	.st54{fill:#E18823;}
	.st55{opacity:0.5;fill:#E18823;}
	.st56{opacity:0.2;fill:#5A5F63;}
	.st57{fill:#64892F;}
</style>
<g>
	<g>
		<g>
			<g>
				<path class="st7" d="M26.914,16.057L3.629,15.512c4.236-3.529,8.907-5.602,14.688-3.953c0.096,0.027,0.191,0.068,0.279,0.119
					l2.49,1.44c0,0,4.168,0.719,5.058,1.232C27.033,14.864,26.914,16.057,26.914,16.057z"/>
				<g>
					<path class="st8" d="M14.164,13.716h6.65l-2.58-1.492c-1.314-0.381-2.618-0.575-3.879-0.575c-0.064,0-0.127,0.001-0.191,0.002
						V13.716z"/>
					<path class="st10" d="M13.269,11.696c-0.881,0.076-1.751,0.245-2.621,0.511v1.51h2.621V11.696z"/>
				</g>
			</g>
			<g>
				<path class="st1" d="M31.604,15.448c0,0-4.541,5.568-10.441,5.568H1.717c-0.445,0-0.805-0.36-0.805-0.805v0h0
					c-0.222,0-0.416-0.154-0.464-0.37c-0.103-0.465-0.197-1.288,0.182-2.006c0,0,2.738-1.463,5.854-1.794s4.973-1.102,9.599-1.164
					S31.604,15.448,31.604,15.448z"/>
			</g>
			<g>
				<path class="st22" d="M31.971,15.517c-0.045,0.086-0.135,0.139-0.233,0.135c-1.699-0.063-11.072-0.587-18.682,0.006
					c-8.078,0.629-11.812,2.581-11.812,2.581H0.208c-0.172,0-0.269-0.197-0.165-0.335c0.093-0.122,0.273-0.232,0.613-0.232
					c0,0,0.273-1.322,1.616-2.371h0.776l0.483-0.462c0,0,11.602-0.587,18.652-0.335c5.993,0.214,8.16,0.549,9.582,0.645
					C31.946,15.161,32.055,15.356,31.971,15.517z"/>
			</g>
		</g>
		<path class="st43" d="M21.588,20.211H0.912l0,0c0,0.445,0.36,0.805,0.805,0.805h19.446c5.244,0,9.414-4.398,10.277-5.376
			C26.847,19.78,21.588,20.211,21.588,20.211z"/>
	</g>
	<path class="st10" d="M14.354,11.649c-0.064,0-0.127,0.001-0.191,0.002v2.066h0.06l1.936-1.936
		C15.551,11.696,14.947,11.649,14.354,11.649z"/>
	<g>
		<path class="st10" d="M15.487,13.716h0.275l1.691-1.692c-0.073-0.017-0.147-0.039-0.22-0.055L15.487,13.716z"/>
		<path class="st10" d="M14.632,13.716H15.3l1.775-1.776c-0.188-0.039-0.376-0.073-0.564-0.104L14.632,13.716z"/>
	</g>
</g>
</svg>
