<?xml version="1.0" encoding="utf-8"?>
<!-- Generator: Adobe Illustrator 21.1.0, SVG Export Plug-In . SVG Version: 6.00 Build 0)  -->
<svg version="1.1" id="Layer_1" xmlns="http://www.w3.org/2000/svg" xmlns:xlink="http://www.w3.org/1999/xlink" x="0px" y="0px"
	 viewBox="0 0 32 32" style="enable-background:new 0 0 32 32;" xml:space="preserve">
<style type="text/css">
	.st0{fill:#E9EFF4;}
	.st1{fill:#BBC7D1;}
	.st2{fill:#E24B4B;}
	.st3{fill:#D23F77;}
	.st4{fill:#D3D9DD;}
	.st5{fill:#E84D88;}
	.st6{fill:#DEE4E9;}
	.st7{fill:#3E4347;}
	.st8{fill:#65B1EF;}
	.st9{fill:#FFFFFF;}
	.st10{fill:#59A5E0;}
	.st11{opacity:0.15;fill:#FFFFFF;}
	.st12{fill:#D03F3F;}
	.st13{opacity:0.15;}
	.st14{fill:#E9B02C;}
	.st15{fill:#F4C534;}
	.st16{opacity:0.5;}
	.st17{fill:#FFD93B;}
	.st18{fill:#353A3D;}
	.st19{fill:#777B7E;}
	.st20{fill:#5A5F63;}
	.st21{fill:#4E99D2;}
	.st22{fill:#CBD6E0;}
	.st23{fill:#6B503B;}
	.st24{fill:#89664C;}
	.st25{fill:#8F6D52;}
	.st26{fill:#A5856D;}
	.st27{fill:#C2CACE;}
	.st28{fill:#BF3333;}
	.st29{fill:#DAE5EF;}
	.st30{fill:#373C3F;}
	.st31{fill:#8CC63E;}
	.st32{fill:#7FB239;}
	.st33{opacity:0.7;}
	.st34{fill:#32373A;}
	.st35{opacity:0.1;fill:#FFFFFF;}
	.st36{opacity:0.5;fill:#DAE5EF;}
	.st37{fill:#8D9BA3;}
	.st38{fill:#7A5B44;}
	.st39{opacity:0.2;fill:#FFFFFF;}
	.st40{fill:#45CBEA;}
	.st41{opacity:0.1;}
	.st42{fill:#7B8B92;}
	.st43{fill:#ACB9C1;}
	.st44{fill:#846144;}
	.st45{fill:#9A795F;}
	.st46{opacity:0.2;}
	.st47{fill:#719D34;}
	.st48{fill:#31373A;}
	.st49{fill:#FFDE55;}
	.st50{fill:#CF7519;}
	.st51{fill:none;stroke:#D03F3F;stroke-width:36;stroke-miterlimit:10;}
	.st52{fill:#F29A2E;}
	.st53{opacity:0.25;}
	.st54{fill:#E18823;}
	.st55{opacity:0.5;fill:#E18823;}
	.st56{opacity:0.2;fill:#5A5F63;}
	.st57{fill:#64892F;}
</style>
<g>
	<g>
		<g>
			<g>
				<g>
					
						<ellipse transform="matrix(0.9412 -0.3378 0.3378 0.9412 -4.4461 6.3413)" class="st29" cx="15.999" cy="15.947" rx="16" ry="16"/>
				</g>
			</g>
			<g>
				<path class="st2" d="M28.9,13.316c-1.392-2.939-4.354-5.965-4.354-5.965l-5.333,4.174c0,0,3.089,2.307,4.251,5.546
					c0.853,2.376,2.157,7.252,2.27,11.56c1.96-1.502,3.609-3.47,4.735-5.858c0.141-0.298,0.252-0.603,0.373-0.905
					C30.494,19.341,29.823,15.266,28.9,13.316z"/>
				<path class="st2" d="M13.76,0.11c-2.035,1.554-5.172,4.087-6.396,5.822C5.489,8.59,4.31,12.656,4.31,12.656
					c1.686,1.84,3.698,2.883,6.257,2.591c0,0,0.49-3.824,2.739-6.428c1.638-1.897,5.201-5.392,8.868-7.611
					C19.428,0.056,16.53-0.284,13.76,0.11z"/>
				<path class="st2" d="M18.059,20.947c0,0-3.571,1.453-6.944,0.775c-2.46-0.494-7.262-1.883-10.999-3.989
					c0.322,2.837,1.388,5.551,3.112,7.841c2.348,1.008,6.159,2.526,8.296,2.741c3.236,0.327,7.356-0.647,7.356-0.647
					C19.424,25.249,19.309,22.973,18.059,20.947z"/>
				<path class="st7" d="M26.063,7.351c0.866-0.332,1.815-0.624,2.836-0.876c-0.233-0.318-0.49-0.621-0.748-0.923
					c-8.81,2.351-11.736,7.88-12.458,9.664c-0.06,0.148-0.195,0.245-0.353,0.263c-0.659,0.076-1.894,0.138-3.505-0.125
					c-0.234-0.038-0.405-0.265-0.371-0.5c0.908-6.299,6.092-10.914,11.658-13.221c-0.101-0.05-0.193-0.11-0.295-0.158
					c-0.347-0.164-0.701-0.297-1.053-0.434c-5.461,2.535-10.382,7.214-11.359,13.499c-0.04,0.26-0.288,0.436-0.54,0.361
					c-1.365-0.409-2.884-1.067-4.479-2.092c-0.143-0.092-0.23-0.265-0.212-0.434c0.561-5.091,4.665-9.475,9.471-12.36
					c-0.912,0.078-1.813,0.223-2.694,0.453c-3.707,2.678-6.85,6.335-7.7,10.76c-0.062,0.325-0.435,0.484-0.692,0.276
					c-0.723-0.586-1.454-1.265-2.186-2.027c-0.161,0.363-0.319,0.726-0.45,1.095c4.072,4.053,9.375,6.771,14.625,5.984
					c0.158-0.024,0.312,0.038,0.408,0.167c0.395,0.53,1.069,1.571,1.649,3.103c0.084,0.222-0.027,0.483-0.247,0.571
					c-5.934,2.373-12.557,0.161-17.342-3.535c0.029,0.493,0.081,0.983,0.155,1.47c5.109,3.631,11.638,5.365,17.44,3.12
					c0.245-0.095,0.485,0.044,0.58,0.289c0.597,1.527,0.687,3.187,0.43,4.937c-0.025,0.168-0.114,0.329-0.269,0.397
					c-4.72,2.073-10.614,0.682-15.535-2.073c0.52,0.758,1.109,1.471,1.761,2.137c4.288,1.94,9.051,2.779,13.246,1.326
					c0.309-0.107,0.629,0.134,0.577,0.457c-0.147,0.921-0.369,1.896-0.664,2.913c0.392-0.043,0.781-0.099,1.168-0.171
					c2.397-8.842-0.941-14.147-2.121-15.658c-0.101-0.129-0.123-0.295-0.058-0.445c0.265-0.615,0.826-1.72,1.855-2.98
					c0.15-0.183,0.432-0.218,0.618-0.071c5.02,3.946,6.42,10.773,5.621,16.76c0.409-0.27,0.804-0.559,1.188-0.867
					c0.549-6.014-1.039-12.645-6.013-16.645c-0.205-0.165-0.234-0.467-0.042-0.648c1.036-0.978,2.363-1.968,4.047-2.837
					c0.151-0.078,0.344-0.067,0.482,0.034c4.154,3.043,5.899,8.83,5.981,14.461c0.405-0.86,0.711-1.739,0.953-2.625
					c-0.464-4.551-2.061-9.105-5.47-12.054C25.705,7.872,25.754,7.47,26.063,7.351z"/>
			</g>
		</g>
		<g class="st41">
			<g>
				<path class="st7" d="M32.005,16.117c-0.033,8.83-7.219,15.973-16.059,15.941c-5.07-0.019-9.581-2.395-12.487-6.096
					c2.415,1.419,5.222,2.229,8.212,2.24c9.09,0.034,16.487-7.309,16.521-16.389c0.011-2.99-0.779-5.803-2.17-8.228
					C29.69,6.528,32.023,11.047,32.005,16.117z"/>
			</g>
		</g>
	</g>
	<path class="st39" d="M10.595,0.887C2.573,3.766-1.712,12.389,0.67,20.461c2.359,1.501,5.174,2.381,8.203,2.381
		c8.291,0,15.012-6.536,15.012-14.6c0-2.587-0.699-5.013-1.913-7.12C18.46-0.295,14.441-0.493,10.595,0.887z"/>
	<g class="st46">
		
			<ellipse transform="matrix(0.7071 -0.7071 0.7071 0.7071 -3.9607 9.6366)" class="st9" cx="9.652" cy="9.599" rx="7.632" ry="4.156"/>
	</g>
</g>
</svg>
