<?xml version="1.0" encoding="utf-8"?>
<!-- Generator: Adobe Illustrator 21.1.0, SVG Export Plug-In . SVG Version: 6.00 Build 0)  -->
<svg version="1.1" id="Layer_1" xmlns="http://www.w3.org/2000/svg" xmlns:xlink="http://www.w3.org/1999/xlink" x="0px" y="0px"
	 viewBox="0 0 32 32" style="enable-background:new 0 0 32 32;" xml:space="preserve">
<style type="text/css">
	.st0{fill:#E9EFF4;}
	.st1{fill:#BBC7D1;}
	.st2{fill:#E24B4B;}
	.st3{fill:#D23F77;}
	.st4{fill:#D3D9DD;}
	.st5{fill:#E84D88;}
	.st6{fill:#DEE4E9;}
	.st7{fill:#3E4347;}
	.st8{fill:#65B1EF;}
	.st9{fill:#FFFFFF;}
	.st10{fill:#59A5E0;}
	.st11{opacity:0.15;fill:#FFFFFF;}
	.st12{fill:#D03F3F;}
	.st13{opacity:0.15;}
	.st14{fill:#E9B02C;}
	.st15{fill:#F4C534;}
	.st16{opacity:0.5;}
	.st17{fill:#FFD93B;}
	.st18{fill:#353A3D;}
	.st19{fill:#777B7E;}
	.st20{fill:#5A5F63;}
	.st21{fill:#4E99D2;}
	.st22{fill:#CBD6E0;}
	.st23{fill:#6B503B;}
	.st24{fill:#89664C;}
	.st25{fill:#8F6D52;}
	.st26{fill:#A5856D;}
	.st27{fill:#C2CACE;}
	.st28{fill:#BF3333;}
	.st29{fill:#DAE5EF;}
	.st30{fill:#373C3F;}
	.st31{fill:#8CC63E;}
	.st32{fill:#7FB239;}
	.st33{opacity:0.7;}
	.st34{fill:#32373A;}
	.st35{opacity:0.1;fill:#FFFFFF;}
	.st36{opacity:0.5;fill:#DAE5EF;}
	.st37{fill:#8D9BA3;}
	.st38{fill:#7A5B44;}
	.st39{opacity:0.2;fill:#FFFFFF;}
	.st40{fill:#45CBEA;}
	.st41{opacity:0.1;}
	.st42{fill:#7B8B92;}
	.st43{fill:#ACB9C1;}
	.st44{fill:#846144;}
	.st45{fill:#9A795F;}
	.st46{opacity:0.2;}
	.st47{fill:#719D34;}
	.st48{fill:#31373A;}
	.st49{fill:#FFDE55;}
	.st50{fill:#CF7519;}
	.st51{fill:none;stroke:#D03F3F;stroke-width:36;stroke-miterlimit:10;}
	.st52{fill:#F29A2E;}
	.st53{opacity:0.25;}
	.st54{fill:#E18823;}
	.st55{opacity:0.5;fill:#E18823;}
	.st56{opacity:0.2;fill:#5A5F63;}
	.st57{fill:#64892F;}
</style>
<g>
	<g>
		<g>
			<g>
				<g>
					<g>
						<g>
							<path class="st12" d="M25.352,1.148L23.17,8.742l-0.655-2.778c0,0,0.155-1.443-1.109-1.443h-5.365c0,0-0.036,0-0.083,0
								h-5.353c-1.276,0-1.121,1.443-1.121,1.443L8.841,8.742L6.648,1.148l3.326-1.144h12.052L25.352,1.148z"/>
						</g>
						<g>
							<path class="st2" d="M27.832,3.926c-0.501,1.979-5.198,9.764-9.287,16.308c-0.894,1.43-1.752,2.79-2.539,4.029
								c-0.799-1.24-1.657-2.599-2.551-4.029c0.822-1.264,1.681-2.611,2.551-3.97c2.849-4.494,5.663-9.06,6.664-11.099
								c2.289-4.661-0.644-5.162-0.644-5.162C24.708-0.044,28.726,0.349,27.832,3.926z"/>
						</g>
					</g>
				</g>
				<g>
					<g>
						<g>
							<path class="st2" d="M18.545,20.234c-0.894,1.43-1.752,2.79-2.539,4.029c-0.799-1.24-1.657-2.599-2.551-4.029
								C9.366,13.689,4.669,5.904,4.168,3.926c-0.894-3.576,3.123-3.97,5.806-3.922c0,0-2.921,0.501-0.644,5.162
								c1.001,2.038,3.815,6.604,6.676,11.099C16.864,17.623,17.735,18.97,18.545,20.234z"/>
						</g>
					</g>
				</g>
			</g>
			<g>
				<path class="st29" d="M23.338,24.751c0,4.001-3.247,7.249-7.249,7.249c-4.012,0-7.249-3.248-7.249-7.249
					c0-4.012,3.237-7.26,7.249-7.26C20.091,17.491,23.338,20.739,23.338,24.751z"/>
			</g>
			<g>
				<path class="st22" d="M21.209,24.75c0,2.826-2.293,5.119-5.119,5.119c-2.833,0-5.119-2.294-5.119-5.119
					c0-2.834,2.286-5.127,5.119-5.127C18.915,19.623,21.209,21.916,21.209,24.75z"/>
			</g>
			<g>
				<path class="st1" d="M20.259,21.761c-0.836-0.596-1.863-0.951-2.979-0.951c-2.839,0-5.12,2.294-5.12,5.133
					c0,1.115,0.355,2.155,0.976,2.991c-1.318-0.925-2.167-2.459-2.167-4.183c0-2.839,2.282-5.133,5.121-5.133
					C17.801,19.619,19.322,20.468,20.259,21.761z"/>
			</g>
		</g>
	</g>
	<g>
		<path class="st29" d="M16.838,27.708h-1.131v-4.263c-0.413,0.386-0.9,0.672-1.461,0.857v-1.027c0.295-0.097,0.616-0.28,0.962-0.55
			c0.346-0.27,0.584-0.584,0.713-0.944h0.918V27.708z"/>
	</g>
</g>
</svg>
