<?xml version="1.0" encoding="utf-8"?>
<!-- Generator: Adobe Illustrator 21.1.0, SVG Export Plug-In . SVG Version: 6.00 Build 0)  -->
<svg version="1.1" id="Layer_1" xmlns="http://www.w3.org/2000/svg" xmlns:xlink="http://www.w3.org/1999/xlink" x="0px" y="0px"
	 viewBox="0 0 32 32" style="enable-background:new 0 0 32 32;" xml:space="preserve">
<style type="text/css">
	.st0{fill:#E9EFF4;}
	.st1{fill:#BBC7D1;}
	.st2{fill:#E24B4B;}
	.st3{fill:#D23F77;}
	.st4{fill:#D3D9DD;}
	.st5{fill:#E84D88;}
	.st6{fill:#DEE4E9;}
	.st7{fill:#3E4347;}
	.st8{fill:#65B1EF;}
	.st9{fill:#FFFFFF;}
	.st10{fill:#59A5E0;}
	.st11{opacity:0.15;fill:#FFFFFF;}
	.st12{fill:#D03F3F;}
	.st13{opacity:0.15;}
	.st14{fill:#E9B02C;}
	.st15{fill:#F4C534;}
	.st16{opacity:0.5;}
	.st17{fill:#FFD93B;}
	.st18{fill:#353A3D;}
	.st19{fill:#777B7E;}
	.st20{fill:#5A5F63;}
	.st21{fill:#4E99D2;}
	.st22{fill:#CBD6E0;}
	.st23{fill:#6B503B;}
	.st24{fill:#89664C;}
	.st25{fill:#8F6D52;}
	.st26{fill:#A5856D;}
	.st27{fill:#C2CACE;}
	.st28{fill:#BF3333;}
	.st29{fill:#DAE5EF;}
	.st30{fill:#373C3F;}
	.st31{fill:#8CC63E;}
	.st32{fill:#7FB239;}
	.st33{opacity:0.7;}
	.st34{fill:#32373A;}
	.st35{opacity:0.1;fill:#FFFFFF;}
	.st36{opacity:0.5;fill:#DAE5EF;}
	.st37{fill:#8D9BA3;}
	.st38{fill:#7A5B44;}
	.st39{opacity:0.2;fill:#FFFFFF;}
	.st40{fill:#45CBEA;}
	.st41{opacity:0.1;}
	.st42{fill:#7B8B92;}
	.st43{fill:#ACB9C1;}
	.st44{fill:#846144;}
	.st45{fill:#9A795F;}
	.st46{opacity:0.2;}
	.st47{fill:#719D34;}
	.st48{fill:#31373A;}
	.st49{fill:#FFDE55;}
	.st50{fill:#CF7519;}
	.st51{fill:none;stroke:#D03F3F;stroke-width:36;stroke-miterlimit:10;}
	.st52{fill:#F29A2E;}
	.st53{opacity:0.25;}
	.st54{fill:#E18823;}
	.st55{opacity:0.5;fill:#E18823;}
	.st56{opacity:0.2;fill:#5A5F63;}
	.st57{fill:#64892F;}
</style>
<g>
	<g>
		<g>
			<path class="st38" d="M24.858,24.857C12.807,36.908,1.936,30.054,1.936,30.054S-4.909,19.192,7.142,7.141
				C19.193-4.91,30.064,1.944,30.064,1.944S36.909,12.806,24.858,24.857z"/>
		</g>
	</g>
	<g>
		<g>
			<path class="st38" d="M24.858,24.857C12.807,36.908,1.936,30.054,1.936,30.054S-4.909,19.192,7.142,7.141
				C19.193-4.91,30.064,1.944,30.064,1.944S36.909,12.806,24.858,24.857z"/>
		</g>
	</g>
	<g>
		<g>
			<path class="st38" d="M24.858,24.857C12.807,36.908,1.936,30.054,1.936,30.054S-4.909,19.192,7.142,7.141
				C19.193-4.91,30.064,1.944,30.064,1.944S36.909,12.806,24.858,24.857z"/>
		</g>
	</g>
	<g>
		<g>
			<path class="st23" d="M24.858,24.857C13.314,36.401,2.85,30.603,1.992,30.09c5.718-0.084,12.767-1.536,18.937-6.645
				c13.335-11.031,9.643-20.363,9.187-21.407C30.744,3.111,36.26,13.455,24.858,24.857z"/>
		</g>
	</g>
	<g>
		<g>
			<path class="st9" d="M21.642,11.226c-3.04,3.106-7.309,7.375-10.415,10.415c-0.244,0.239-0.622,0.224-0.861-0.016
				c-0.231-0.23-0.245-0.61-0.008-0.853c3.04-3.106,7.309-7.375,10.415-10.415c0.245-0.239,0.619-0.225,0.853,0.008
				C21.867,10.603,21.88,10.983,21.642,11.226z"/>
		</g>
		<g>
			<g>
				<path class="st9" d="M20.977,14.178c-0.25,0.25-0.571,0.242-0.754-0.008c-0.636-0.872-1.531-1.766-2.404-2.401
					c-0.248-0.182-0.249-0.497,0.001-0.747c0.251-0.25,0.65-0.329,0.903-0.141c0.874,0.648,1.74,1.512,2.388,2.386
					C21.301,13.518,21.228,13.931,20.977,14.178z"/>
			</g>
			<g>
				<path class="st9" d="M18.708,16.447c-0.248,0.245-0.587,0.275-0.793,0.052c-0.707-0.781-1.643-1.716-2.423-2.422
					c-0.223-0.204-0.188-0.539,0.06-0.786c0.247-0.248,0.629-0.328,0.869-0.138c0.826,0.665,1.751,1.59,2.418,2.417
					C19.031,15.809,18.955,16.2,18.708,16.447z"/>
			</g>
			<g>
				<path class="st9" d="M16.439,18.716c-0.248,0.247-0.627,0.313-0.868,0.121c-0.827-0.666-1.752-1.592-2.417-2.418
					c-0.192-0.241-0.119-0.611,0.128-0.859c0.248-0.248,0.59-0.294,0.795-0.069c0.706,0.781,1.64,1.716,2.422,2.423
					C16.724,18.12,16.687,18.467,16.439,18.716z"/>
			</g>
			<g>
				<path class="st9" d="M14.171,20.985c-0.25,0.25-0.651,0.313-0.904,0.126c-0.874-0.649-1.739-1.514-2.386-2.388
					c-0.187-0.251-0.118-0.647,0.133-0.894c0.251-0.246,0.573-0.262,0.756-0.01c0.635,0.872,1.528,1.766,2.401,2.404
					C14.424,20.407,14.419,20.735,14.171,20.985z"/>
			</g>
		</g>
	</g>
	<g>
		<path class="st9" d="M1.895,14.33c-0.942,1.955-1.472,3.813-1.717,5.522c2.807,5.043,6.922,9.16,11.965,11.967
			c1.709-0.243,3.568-0.773,5.525-1.715C10.594,26.962,5.036,21.403,1.895,14.33z"/>
		<path class="st9" d="M19.848,0.181c-1.709,0.244-3.567,0.774-5.522,1.717c7.079,3.138,12.641,8.694,15.781,15.766
			c0.942-1.956,1.471-3.814,1.715-5.523C29.015,7.099,24.896,2.985,19.848,0.181z"/>
	</g>
	<g>
		<path class="st0" d="M13.506,27.858c-1.707,0.687-3.414,1.183-5.084,1.53c1.167,0.889,2.403,1.695,3.698,2.418
			c1.709-0.241,3.565-0.774,5.522-1.713C16.196,29.449,14.818,28.697,13.506,27.858z"/>
		<path class="st0" d="M31.807,12.113c-0.416-0.745-0.857-1.471-1.329-2.174c-0.347,1.439-0.952,3.027-1.905,4.73
			c0.555,0.957,1.067,1.944,1.523,2.968C31.035,15.679,31.567,13.823,31.807,12.113z"/>
	</g>
</g>
</svg>
