<?xml version="1.0" encoding="utf-8"?>
<!-- Generator: Adobe Illustrator 21.1.0, SVG Export Plug-In . SVG Version: 6.00 Build 0)  -->
<svg version="1.1" id="Layer_1" xmlns="http://www.w3.org/2000/svg" xmlns:xlink="http://www.w3.org/1999/xlink" x="0px" y="0px"
	 viewBox="0 0 32 32" style="enable-background:new 0 0 32 32;" xml:space="preserve">
<style type="text/css">
	.st0{fill:#45CBEA;}
	.st1{fill:#FFD93B;}
	.st2{fill:#F4C534;}
	.st3{fill:#3E4347;}
	.st4{opacity:0.2;}
	.st5{fill:#DE9C25;}
	.st6{fill:#FFFFFF;}
	.st7{fill:#E24B4B;}
	.st8{fill:#8CC63E;}
	.st9{fill:#D03F3F;}
	.st10{fill:#846144;}
	.st11{fill:#5A5F63;}
	.st12{fill:#777B7E;}
	.st13{fill:#FFDC97;}
	.st14{fill:#FFE9AB;}
	.st15{fill:#93979A;}
	.st16{fill:#FFD68D;}
	.st17{fill:#728389;}
	.st18{fill:#DAE5EF;}
	.st19{fill:#65B1EF;}
	.st20{fill:#F2F7F9;}
	.st21{fill:#8D9BA3;}
	.st22{opacity:0.2;fill:#F2F7F9;}
	.st23{fill:#E9EFF4;}
	.st24{fill:#FC97B2;}
	.st25{fill:#E84D88;}
	.st26{fill:#A5856D;}
	.st27{fill:#E9B02C;}
	.st28{fill:#7FB239;}
	.st29{fill:#CBD6E0;}
	.st30{fill:#ACB9C1;}
	.st31{fill:#8F6D52;}
	.st32{opacity:0.2;fill:#FFFFFF;}
	.st33{fill:#9A795F;}
	.st34{fill:#BBC7D1;}
	.st35{fill:#E18823;}
	.st36{fill:#F29A2E;}
	.st37{fill:#89664C;}
	.st38{fill:#D3D9DD;}
	.st39{fill:#DEE4E9;}
	.st40{fill:#AD2727;}
	.st41{fill:#719D34;}
	.st42{fill:#353A3D;}
	.st43{opacity:0.25;}
	.st44{opacity:0.2;fill:#3E4347;}
	.st45{fill:#373C3F;}
	.st46{opacity:0.1;}
	.st47{opacity:0.06;}
	.st48{fill:#7A5B44;}
	.st49{fill:#6B503B;}
	.st50{fill:#31373A;}
	.st51{fill:#59A5E0;}
	.st52{fill:#363B3F;}
	.st53{fill:#BF3333;}
	.st54{opacity:0.3;}
	.st55{fill:#4E99D2;}
	.st56{opacity:0.15;}
	.st57{opacity:0.1;fill:#3E4347;}
	.st58{fill:#64892F;}
	.st59{opacity:0.08;fill:#FFFFFF;}
	.st60{opacity:0.1;fill:#FFFFFF;}
</style>
<g>
	<rect x="12.529" y="10.326" class="st2" width="6.934" height="11.091"/>
	<path class="st8" d="M28.69,21.303v8.132c0,1.423-1.142,2.565-2.564,2.565H5.875c-1.423,0-2.565-1.142-2.565-2.565v-8.132
		c0-1.548,1.079-2.909,2.596-3.268l6.411-1.877l0.235-0.078c0.156,0.657,0.829,1.83,3.44,3.237c2.611-1.407,3.284-2.58,3.44-3.237
		l0.235,0.078l6.427,1.877C27.611,18.395,28.69,19.74,28.69,21.303z"/>
	<path class="st6" d="M19.965,22.476l0.906,2.767L15.992,32l-4.877-6.758l0.905-2.766l-1.79-0.345l0.508-5.504v-0.016l1.579-0.453
		l0.235-0.078c0.031,0.156,0.109,0.344,0.219,0.547l0.016,0.031c0.375,0.672,1.251,1.611,3.206,2.658
		c1.955-1.048,2.831-1.986,3.206-2.658l0.016-0.031c0.109-0.203,0.187-0.391,0.219-0.547l0.235,0.078l1.548,0.453l0.547,5.52
		L19.965,22.476z"/>
	<polygon class="st9" points="18.166,21.258 17.071,23.199 14.913,23.199 13.818,21.258 14.913,19.317 17.071,19.317 	"/>
	<polygon class="st7" points="18.166,27.606 17.634,29.717 15.992,32 14.35,29.732 14.35,29.717 13.818,27.606 14.491,24.869 
		14.491,24.853 14.913,23.196 17.071,23.196 17.494,24.869 	"/>
	<g>
		
			<ellipse transform="matrix(0.175 -0.9846 0.9846 0.175 8.9587 27.6102)" class="st2" cx="20.955" cy="8.459" rx="1.623" ry="0.88"/>
		
			<ellipse transform="matrix(0.9846 -0.175 0.175 0.9846 -1.3095 2.0698)" class="st2" cx="11.08" cy="8.459" rx="0.88" ry="1.623"/>
	</g>
	<path class="st1" d="M21.22,4.608l0,6.12c0,2.817-2.109,5.342-4.923,5.489c-3,0.157-5.482-2.229-5.482-5.195V4.608
		c0-0.995,0.807-1.802,1.802-1.802h6.801C20.413,2.807,21.22,3.613,21.22,4.608z"/>
	<path class="st10" d="M18.768,3.204c-1.186-0.118-4.609-0.382-6.204,0.291c-0.324,0.137-0.646,0.572-0.74,0.918
		c-0.336,1.236-1.092,4.267-0.813,5.596c0,0-1.416-5.486-0.061-7.202c0,0,2.472-4.498,7.903-2.106c0,0,3.579-0.623,3.047,6.64
		c-0.054,0.733-0.243,1.463-0.581,2.111c-0.145,0.279-0.266,0.591-0.249,0.837c0,0,0.181-4.883-1.402-6.641
		C19.468,3.427,19.062,3.233,18.768,3.204z"/>
	<polygon class="st11" points="19.463,15.504 15.992,19.317 18.116,21.857 21.22,16.612 	"/>
	<polygon class="st11" points="12.529,15.504 15.999,19.317 13.854,21.766 10.738,16.62 	"/>
	<g>
		<polygon class="st12" points="19.456,15.504 21.22,16.612 21.754,22.132 19.965,22.476 20.87,25.242 15.992,32 		"/>
		<polygon class="st12" points="12.529,15.504 10.765,16.612 10.23,22.132 12.02,22.476 11.115,25.242 15.992,32 		"/>
	</g>
</g>
</svg>
