<?xml version="1.0" encoding="utf-8"?>
<!-- Generator: Adobe Illustrator 21.1.0, SVG Export Plug-In . SVG Version: 6.00 Build 0)  -->
<svg version="1.1" id="Layer_1" xmlns="http://www.w3.org/2000/svg" xmlns:xlink="http://www.w3.org/1999/xlink" x="0px" y="0px"
	 viewBox="0 0 32 32" style="enable-background:new 0 0 32 32;" xml:space="preserve">
<style type="text/css">
	.st0{fill:#45CBEA;}
	.st1{fill:#FFD93B;}
	.st2{fill:#F4C534;}
	.st3{fill:#3E4347;}
	.st4{opacity:0.2;}
	.st5{fill:#DE9C25;}
	.st6{fill:#FFFFFF;}
	.st7{fill:#E24B4B;}
	.st8{fill:#8CC63E;}
	.st9{fill:#D03F3F;}
	.st10{fill:#846144;}
	.st11{fill:#5A5F63;}
	.st12{fill:#777B7E;}
	.st13{fill:#FFDC97;}
	.st14{fill:#FFE9AB;}
	.st15{fill:#93979A;}
	.st16{fill:#FFD68D;}
	.st17{fill:#728389;}
	.st18{fill:#DAE5EF;}
	.st19{fill:#65B1EF;}
	.st20{fill:#F2F7F9;}
	.st21{fill:#8D9BA3;}
	.st22{opacity:0.2;fill:#F2F7F9;}
	.st23{fill:#E9EFF4;}
	.st24{fill:#FC97B2;}
	.st25{fill:#E84D88;}
	.st26{fill:#A5856D;}
	.st27{fill:#E9B02C;}
	.st28{fill:#7FB239;}
	.st29{fill:#CBD6E0;}
	.st30{fill:#ACB9C1;}
	.st31{fill:#8F6D52;}
	.st32{opacity:0.2;fill:#FFFFFF;}
	.st33{fill:#9A795F;}
	.st34{fill:#BBC7D1;}
	.st35{fill:#E18823;}
	.st36{fill:#F29A2E;}
	.st37{fill:#89664C;}
	.st38{fill:#D3D9DD;}
	.st39{fill:#DEE4E9;}
	.st40{fill:#AD2727;}
	.st41{fill:#719D34;}
	.st42{fill:#353A3D;}
	.st43{opacity:0.25;}
	.st44{opacity:0.2;fill:#3E4347;}
	.st45{fill:#373C3F;}
	.st46{opacity:0.1;}
	.st47{opacity:0.06;}
	.st48{fill:#7A5B44;}
	.st49{fill:#6B503B;}
	.st50{fill:#31373A;}
	.st51{fill:#59A5E0;}
	.st52{fill:#363B3F;}
	.st53{fill:#BF3333;}
	.st54{opacity:0.3;}
	.st55{fill:#4E99D2;}
	.st56{opacity:0.15;}
	.st57{opacity:0.1;fill:#3E4347;}
	.st58{fill:#64892F;}
	.st59{opacity:0.08;fill:#FFFFFF;}
	.st60{opacity:0.1;fill:#FFFFFF;}
</style>
<g>
	<circle class="st3" cx="29.646" cy="10.052" r="2.354"/>
	<path class="st34" d="M30.24,9.083l-2.962-1.827h-0.322v3.972h2.682c0.639,0,1.157-0.518,1.157-1.158
		C30.795,9.668,30.585,9.294,30.24,9.083z"/>
	<path class="st18" d="M27.277,7.19v5.959h-6.585V7.19c0-0.242,0.195-0.439,0.437-0.439h5.71C27.082,6.752,27.277,6.948,27.277,7.19
		z"/>
	<circle class="st21" cx="29.646" cy="10.052" r="0.522"/>
	<path class="st7" d="M22.315,5.031c0-0.168-0.135-0.363-0.002-0.975c0.307-1.377,1.79-2.576,1.416-4.056
		c0.513,0.093,1.307,1.661,1.52,2.135C27.036,6.112,23.18,7.628,22.315,5.031z"/>
	<path class="st1" d="M23.107,5.642c0-0.088-0.071-0.191-0.001-0.512c0.161-0.723,0.94-1.354,0.744-2.131
		c0.27,0.049,0.687,0.873,0.799,1.122C25.588,6.21,23.562,7.006,23.107,5.642z"/>
	<path class="st29" d="M27.277,13.15V7.264c-0.004,0.074-0.293,5.333-6.585,5.333v0.553H27.277z"/>
	<g>
		<path class="st3" d="M31.286,13.328v13.999c0,1.369-1.11,2.478-2.478,2.478h-9.645c-1.369,0-2.478-1.11-2.478-2.478V13.328
			c0-0.404,0.328-0.731,0.731-0.731h13.139C30.958,12.596,31.286,12.924,31.286,13.328z"/>
		<path class="st18" d="M16.63,14.039l-5.541,4.955c-0.773,0.692-1.96,0.625-2.652-0.148L0.478,9.947
			c-0.692-0.773-0.625-1.96,0.148-2.652L6.167,2.34c0.202-0.18,0.513-0.163,0.693,0.039l9.808,10.967
			C16.849,13.547,16.831,13.858,16.63,14.039z"/>
		<path class="st34" d="M16.626,14.043l-5.54,4.95c-0.77,0.69-1.96,0.63-2.65-0.15l-7.96-8.9c-0.26-0.29-0.41-0.63-0.46-0.99
			C4.318,13.09,9.065,19.108,16.626,14.043z"/>
		<path class="st18" d="M31.832,14.088v16.034c0,1.037-0.841,1.878-1.878,1.878H18.016c-1.037,0-1.878-0.841-1.878-1.878V14.088
			c0-0.271,0.22-0.491,0.491-0.491h14.713C31.612,13.597,31.832,13.817,31.832,14.088z"/>
		<path class="st34" d="M18.016,32h11.938c1.037,0,1.878-0.841,1.878-1.878V14.088c0,0-0.205,20.381-15.695,16.034
			C16.138,31.159,16.978,32,18.016,32z"/>
	</g>
</g>
</svg>
