<?xml version="1.0" encoding="utf-8"?>
<!-- Generator: Adobe Illustrator 21.1.0, SVG Export Plug-In . SVG Version: 6.00 Build 0)  -->
<svg version="1.1" id="Layer_1" xmlns="http://www.w3.org/2000/svg" xmlns:xlink="http://www.w3.org/1999/xlink" x="0px" y="0px"
	 viewBox="0 0 32 32" style="enable-background:new 0 0 32 32;" xml:space="preserve">
<style type="text/css">
	.st0{fill:#45CBEA;}
	.st1{fill:#FFD93B;}
	.st2{fill:#F4C534;}
	.st3{fill:#3E4347;}
	.st4{opacity:0.2;}
	.st5{fill:#DE9C25;}
	.st6{fill:#FFFFFF;}
	.st7{fill:#E24B4B;}
	.st8{fill:#8CC63E;}
	.st9{fill:#D03F3F;}
	.st10{fill:#846144;}
	.st11{fill:#5A5F63;}
	.st12{fill:#777B7E;}
	.st13{fill:#FFDC97;}
	.st14{fill:#FFE9AB;}
	.st15{fill:#93979A;}
	.st16{fill:#FFD68D;}
	.st17{fill:#728389;}
	.st18{fill:#DAE5EF;}
	.st19{fill:#65B1EF;}
	.st20{fill:#F2F7F9;}
	.st21{fill:#8D9BA3;}
	.st22{opacity:0.2;fill:#F2F7F9;}
	.st23{fill:#E9EFF4;}
	.st24{fill:#FC97B2;}
	.st25{fill:#E84D88;}
	.st26{fill:#A5856D;}
	.st27{fill:#E9B02C;}
	.st28{fill:#7FB239;}
	.st29{fill:#CBD6E0;}
	.st30{fill:#ACB9C1;}
	.st31{fill:#8F6D52;}
	.st32{opacity:0.2;fill:#FFFFFF;}
	.st33{fill:#9A795F;}
	.st34{fill:#BBC7D1;}
	.st35{fill:#E18823;}
	.st36{fill:#F29A2E;}
	.st37{fill:#89664C;}
	.st38{fill:#D3D9DD;}
	.st39{fill:#DEE4E9;}
	.st40{fill:#AD2727;}
	.st41{fill:#719D34;}
	.st42{fill:#353A3D;}
	.st43{opacity:0.25;}
	.st44{opacity:0.2;fill:#3E4347;}
	.st45{fill:#373C3F;}
	.st46{opacity:0.1;}
	.st47{opacity:0.06;}
	.st48{fill:#7A5B44;}
	.st49{fill:#6B503B;}
	.st50{fill:#31373A;}
	.st51{fill:#59A5E0;}
	.st52{fill:#363B3F;}
	.st53{fill:#BF3333;}
	.st54{opacity:0.3;}
	.st55{fill:#4E99D2;}
	.st56{opacity:0.15;}
	.st57{opacity:0.1;fill:#3E4347;}
	.st58{fill:#64892F;}
	.st59{opacity:0.08;fill:#FFFFFF;}
	.st60{opacity:0.1;fill:#FFFFFF;}
</style>
<g>
	<g>
		<g>
			<polygon class="st3" points="19.516,29.52 18.534,29.213 19.117,24.066 20.098,24.373 			"/>
		</g>
		<g>
			<polygon class="st3" points="12.484,29.52 13.466,29.213 12.883,24.066 11.902,24.373 			"/>
		</g>
		<path class="st7" d="M26.693,9.543c0,5.27-4.786,14.218-10.688,14.218S5.307,14.812,5.307,9.543S10.103,0,16.005,0
			S26.693,4.273,26.693,9.543z"/>
		<path class="st20" d="M24.414,9.543c0,5.27-3.766,14.218-8.41,14.218S7.586,14.812,7.586,9.543S11.36,0,16.004,0
			S24.414,4.273,24.414,9.543z"/>
		<path class="st7" d="M21.513,9.543c0,5.27-2.468,14.218-5.511,14.218s-5.516-8.948-5.516-14.218S12.959,0,16.002,0
			S21.513,4.273,21.513,9.543z"/>
		<path class="st20" d="M18.443,9.543c0,5.27-1.093,14.218-2.442,14.218s-2.444-8.948-2.444-14.218S14.653,0,16.001,0
			S18.443,4.273,18.443,9.543z"/>
		<polygon class="st18" points="20.098,24.376 21.575,20.765 10.425,20.765 11.902,24.376 		"/>
	</g>
	<g>
		<path class="st1" d="M19.232,31.997h-6.464c-0.544,0-0.984-0.441-0.984-0.984v-5.068h8.432v5.068
			C20.216,31.556,19.775,31.997,19.232,31.997z"/>
		<path class="st2" d="M20.218,25.948v5.247c0,0.447-0.358,0.805-0.805,0.805h-4.344c3.482-1.814,4.848-5.223,5.1-5.922
			C20.202,25.988,20.218,25.948,20.218,25.948z"/>
		<path class="st2" d="M20.556,26.338c0,0.22-0.171,0.399-0.39,0.399h-8.322c-0.22,0-0.399-0.179-0.399-0.399
			c0-0.22,0.179-0.391,0.399-0.391h8.322C20.385,25.948,20.556,26.119,20.556,26.338z"/>
	</g>
</g>
</svg>
