<?xml version="1.0" encoding="utf-8"?>
<!-- Generator: Adobe Illustrator 21.1.0, SVG Export Plug-In . SVG Version: 6.00 Build 0)  -->
<svg version="1.1" id="Layer_1" xmlns="http://www.w3.org/2000/svg" xmlns:xlink="http://www.w3.org/1999/xlink" x="0px" y="0px"
	 viewBox="0 0 32 32" style="enable-background:new 0 0 32 32;" xml:space="preserve">
<style type="text/css">
	.st0{fill:#45CBEA;}
	.st1{fill:#FFD93B;}
	.st2{fill:#F4C534;}
	.st3{fill:#3E4347;}
	.st4{opacity:0.2;}
	.st5{fill:#DE9C25;}
	.st6{fill:#FFFFFF;}
	.st7{fill:#E24B4B;}
	.st8{fill:#8CC63E;}
	.st9{fill:#D03F3F;}
	.st10{fill:#846144;}
	.st11{fill:#5A5F63;}
	.st12{fill:#777B7E;}
	.st13{fill:#FFDC97;}
	.st14{fill:#FFE9AB;}
	.st15{fill:#93979A;}
	.st16{fill:#FFD68D;}
	.st17{fill:#728389;}
	.st18{fill:#DAE5EF;}
	.st19{fill:#65B1EF;}
	.st20{fill:#F2F7F9;}
	.st21{fill:#8D9BA3;}
	.st22{opacity:0.2;fill:#F2F7F9;}
	.st23{fill:#E9EFF4;}
	.st24{fill:#FC97B2;}
	.st25{fill:#E84D88;}
	.st26{fill:#A5856D;}
	.st27{fill:#E9B02C;}
	.st28{fill:#7FB239;}
	.st29{fill:#CBD6E0;}
	.st30{fill:#ACB9C1;}
	.st31{fill:#8F6D52;}
	.st32{opacity:0.2;fill:#FFFFFF;}
	.st33{fill:#9A795F;}
	.st34{fill:#BBC7D1;}
	.st35{fill:#E18823;}
	.st36{fill:#F29A2E;}
	.st37{fill:#89664C;}
	.st38{fill:#D3D9DD;}
	.st39{fill:#DEE4E9;}
	.st40{fill:#AD2727;}
	.st41{fill:#719D34;}
	.st42{fill:#353A3D;}
	.st43{opacity:0.25;}
	.st44{opacity:0.2;fill:#3E4347;}
	.st45{fill:#373C3F;}
	.st46{opacity:0.1;}
	.st47{opacity:0.06;}
	.st48{fill:#7A5B44;}
	.st49{fill:#6B503B;}
	.st50{fill:#31373A;}
	.st51{fill:#59A5E0;}
	.st52{fill:#363B3F;}
	.st53{fill:#BF3333;}
	.st54{opacity:0.3;}
	.st55{fill:#4E99D2;}
	.st56{opacity:0.15;}
	.st57{opacity:0.1;fill:#3E4347;}
	.st58{fill:#64892F;}
	.st59{opacity:0.08;fill:#FFFFFF;}
	.st60{opacity:0.1;fill:#FFFFFF;}
</style>
<g>
	<path class="st35" d="M0,31.888c2.425-6.798,2.763-13.873,2.276-20.363h27.448C29.237,18.015,29.565,25.091,32,31.888H0z"/>
	<path class="st2" d="M6.241,11.526c0.348,6.489,0.119,13.565-1.62,20.363H0c2.425-6.798,2.763-13.873,2.276-20.363H6.241z"/>
	<path class="st2" d="M32,31.888h-4.631c-1.729-6.798-1.968-13.873-1.62-20.363h3.975C29.237,18.015,29.565,25.091,32,31.888z"/>
	<polygon class="st3" points="15.997,19.634 11.01,31.888 20.985,31.888 	"/>
	<path class="st36" d="M30.057,11.928H1.936c-0.312,0-0.412-0.422-0.131-0.558C9.767,7.504,15.997,0.112,15.997,0.112
		s6.222,7.392,14.191,11.258C30.47,11.506,30.37,11.928,30.057,11.928z"/>
	<path class="st1" d="M15.99,0.132c-0.288,0.487-4.045,8.258-9.749,11.796H1.948c-0.318,0-0.407-0.427-0.129-0.566
		C9.65,7.565,15.791,0.36,15.99,0.132z"/>
	<path class="st1" d="M30.052,11.928h-4.303C20.045,8.39,16.298,0.618,16.01,0.132c0.199,0.229,6.331,7.434,14.162,11.23
		C30.46,11.501,30.37,11.928,30.052,11.928z"/>
	<polygon class="st36" points="11.01,31.888 15.997,19.634 7.55,27.562 	"/>
	<polygon class="st36" points="20.985,31.888 15.997,19.634 24.445,27.562 	"/>
</g>
</svg>
