<?xml version="1.0" encoding="utf-8"?>
<!-- Generator: Adobe Illustrator 21.1.0, SVG Export Plug-In . SVG Version: 6.00 Build 0)  -->
<svg version="1.1" id="Layer_1" xmlns="http://www.w3.org/2000/svg" xmlns:xlink="http://www.w3.org/1999/xlink" x="0px" y="0px"
	 viewBox="0 0 32 32" style="enable-background:new 0 0 32 32;" xml:space="preserve">
<style type="text/css">
	.st0{fill:#45CBEA;}
	.st1{fill:#FFD93B;}
	.st2{fill:#F4C534;}
	.st3{fill:#3E4347;}
	.st4{opacity:0.2;}
	.st5{fill:#DE9C25;}
	.st6{fill:#FFFFFF;}
	.st7{fill:#E24B4B;}
	.st8{fill:#8CC63E;}
	.st9{fill:#D03F3F;}
	.st10{fill:#846144;}
	.st11{fill:#5A5F63;}
	.st12{fill:#777B7E;}
	.st13{fill:#FFDC97;}
	.st14{fill:#FFE9AB;}
	.st15{fill:#93979A;}
	.st16{fill:#FFD68D;}
	.st17{fill:#728389;}
	.st18{fill:#DAE5EF;}
	.st19{fill:#65B1EF;}
	.st20{fill:#F2F7F9;}
	.st21{fill:#8D9BA3;}
	.st22{opacity:0.2;fill:#F2F7F9;}
	.st23{fill:#E9EFF4;}
	.st24{fill:#FC97B2;}
	.st25{fill:#E84D88;}
	.st26{fill:#A5856D;}
	.st27{fill:#E9B02C;}
	.st28{fill:#7FB239;}
	.st29{fill:#CBD6E0;}
	.st30{fill:#ACB9C1;}
	.st31{fill:#8F6D52;}
	.st32{opacity:0.2;fill:#FFFFFF;}
	.st33{fill:#9A795F;}
	.st34{fill:#BBC7D1;}
	.st35{fill:#E18823;}
	.st36{fill:#F29A2E;}
	.st37{fill:#89664C;}
	.st38{fill:#D3D9DD;}
	.st39{fill:#DEE4E9;}
	.st40{fill:#AD2727;}
	.st41{fill:#719D34;}
	.st42{fill:#353A3D;}
	.st43{opacity:0.25;}
	.st44{opacity:0.2;fill:#3E4347;}
	.st45{fill:#373C3F;}
	.st46{opacity:0.1;}
	.st47{opacity:0.06;}
	.st48{fill:#7A5B44;}
	.st49{fill:#6B503B;}
	.st50{fill:#31373A;}
	.st51{fill:#59A5E0;}
	.st52{fill:#363B3F;}
	.st53{fill:#BF3333;}
	.st54{opacity:0.3;}
	.st55{fill:#4E99D2;}
	.st56{opacity:0.15;}
	.st57{opacity:0.1;fill:#3E4347;}
	.st58{fill:#64892F;}
	.st59{opacity:0.08;fill:#FFFFFF;}
	.st60{opacity:0.1;fill:#FFFFFF;}
</style>
<g>
	<circle class="st20" cx="15.999" cy="16" r="15.999"/>
	<path class="st18" d="M32,16c0,8.837-7.165,15.999-15.999,15.999c-0.985,0-1.952-0.09-2.887-0.26
		c7.625-1.425,13.897-8.517,14.575-17.052c0.405-5.11-1.277-9.705-4.282-12.872C28.513,4.485,32,9.835,32,16z"/>
	<path class="st11" d="M15.999,0.001c-0.728,0-1.443,0.053-2.145,0.147c0.163,0.344,0.33,0.69,0.501,1.04
		c-0.693,1.202-1.438,2.467-2.276,3.864C10.691,5.095,9.285,5.15,7.897,5.217C7.883,5.189,7.87,5.161,7.856,5.132
		c-0.367-0.761-0.713-1.505-1.039-2.23C6.747,2.951,6.677,3,6.608,3.05c0.334,0.742,0.69,1.506,1.069,2.289
		c-0.813,1.283-1.63,2.56-2.444,3.827c-1.259,0.051-2.526,0.109-3.78,0.173c-0.039,0.085-0.078,0.17-0.116,0.256
		c0.578-0.03,1.158-0.059,1.741-0.086C3.181,9.504,3.283,9.5,3.385,9.496C4,9.468,4.616,9.441,5.229,9.416
		c0.593,1.149,1.232,2.343,1.951,3.646c-0.776,1.261-1.546,2.513-2.3,3.755c-1.468,0.012-2.937,0.025-4.406,0.041
		c-0.162-0.276-0.319-0.543-0.473-0.809c0.001,0.182,0.007,0.362,0.014,0.542c0.076,0.131,0.15,0.258,0.229,0.39
		c-0.064,0.103-0.124,0.201-0.188,0.302c0.215,2.702,1.099,5.213,2.49,7.37c0.816,0.022,1.632,0.047,2.448,0.066
		c0.442,0.706,0.888,1.416,1.335,2.128l1.043,1.663c-0.126,0.242-0.249,0.481-0.372,0.72c2.057,1.402,4.459,2.334,7.052,2.648
		c-0.583-0.991-1.22-2.062-1.937-3.255c0.626-1.169,1.301-2.399,2.061-3.755c1.456,0.013,2.912,0.021,4.368,0.023
		c0.817,1.42,1.527,2.67,2.167,3.816c-0.608,1.07-1.161,2.06-1.68,3.003c2.406-0.462,4.622-1.46,6.515-2.87
		c-0.031-0.058-0.06-0.113-0.092-0.171c0.754-1.279,1.514-2.555,2.273-3.827c0.541-0.007,1.081-0.018,1.622-0.026
		c1.535-2.32,2.483-5.062,2.629-8.016c-1.397-0.009-2.793-0.017-4.19-0.023c-0.413-0.702-0.828-1.405-1.244-2.11l-1.002-1.7
		c0.763-1.362,1.437-2.592,2.059-3.755c0.656,0.014,1.315,0.031,1.974,0.049c0.058,0.002,0.117,0.003,0.175,0.004
		c0.258,0.007,0.514,0.016,0.772,0.024c-0.039-0.084-0.076-0.17-0.117-0.254C29.47,9.006,28.532,8.98,27.599,8.96
		c-0.88-1.465-1.608-2.691-2.284-3.846c0.271-0.524,0.527-1.029,0.777-1.526c-0.069-0.056-0.14-0.11-0.211-0.166
		c-0.258,0.515-0.522,1.036-0.797,1.568c-1.388-0.03-2.794-0.049-4.182-0.055C20.148,3.579,19.473,2.33,18.84,1.12
		c0.144-0.266,0.282-0.526,0.42-0.786C18.207,0.116,17.117,0.001,15.999,0.001z M7.396,13.189c1.456-0.029,2.912-0.053,4.367-0.072
		c0.629,1.128,1.329,2.364,2.139,3.773c-0.741,1.269-1.478,2.533-2.202,3.792c-1.468-0.006-2.937-0.014-4.405-0.023
		c-0.832-1.388-1.552-2.606-2.198-3.716C5.851,15.701,6.62,14.449,7.396,13.189z M11.884,28.498
		c-1.423-0.031-2.868-0.07-4.297-0.118l-1.094-1.743c-0.43-0.685-0.858-1.367-1.284-2.046c0.633-1.146,1.316-2.351,2.086-3.682
		c1.468,0.009,2.936,0.017,4.404,0.023c0.415,0.705,0.832,1.412,1.25,2.12l0.996,1.689C13.184,26.1,12.509,27.33,11.884,28.498z
		 M25.225,28.541c-1.432,0.021-2.877,0.035-4.296,0.039c-0.644-1.152-1.335-2.368-2.168-3.816c0.724-1.271,1.458-2.543,2.194-3.816
		c1.468-0.001,2.935-0.004,4.403-0.008c0.811,1.411,1.512,2.646,2.14,3.773C26.739,25.986,25.979,27.262,25.225,28.541z
		 M20.946,13.067c1.456,0.003,2.911,0.011,4.367,0.024l1.056,1.791c0.398,0.674,0.795,1.347,1.19,2.018
		c-0.724,1.258-1.46,2.523-2.2,3.791c-1.468,0.004-2.936,0.007-4.404,0.008l-1.075-1.863c-0.376-0.651-0.752-1.302-1.127-1.953
		C19.488,15.61,20.221,14.338,20.946,13.067z M18.536,16.758c-1.467,0.001-2.935,0.004-4.403,0.008
		c-0.806-1.404-1.507-2.639-2.138-3.773c0.759-1.272,1.52-2.549,2.273-3.827c1.419-0.022,2.863-0.035,4.294-0.04
		c0.642,1.15,1.352,2.399,2.166,3.815C20.005,14.213,19.271,15.486,18.536,16.758z M20.685,5.061
		c-0.645,1.187-1.34,2.436-2.123,3.816c-0.715,0.002-1.434,0.007-2.151,0.013c-0.037,0-0.074,0.001-0.111,0.001
		c-0.679,0.006-1.358,0.015-2.03,0.025c-0.72-1.331-1.363-2.554-1.962-3.736c0.842-1.403,1.587-2.669,2.276-3.864
		c1.339-0.039,2.697-0.062,4.039-0.071C19.254,2.451,19.929,3.7,20.685,5.061z"/>
	<g>
		<path class="st3" d="M29.575,9.259c0.058,0.002,0.117,0.003,0.175,0.004c0.258,0.007,0.514,0.016,0.772,0.024
			c-0.039-0.084-0.076-0.17-0.117-0.254C29.47,9.006,28.532,8.98,27.599,8.96c-0.237-0.395-0.462-0.771-0.679-1.134
			c0.186,0.58,0.341,1.175,0.465,1.786c0.072-0.134,0.146-0.27,0.216-0.401C28.257,9.225,28.916,9.241,29.575,9.259z"/>
		<path class="st3" d="M26.092,3.588c-0.069-0.056-0.14-0.11-0.211-0.166C25.718,3.749,25.55,4.08,25.38,4.414
			c0.054,0.089,0.103,0.181,0.156,0.272C25.726,4.314,25.912,3.947,26.092,3.588z"/>
		<path class="st3" d="M22.434,30.649c0.044-0.019,0.087-0.039,0.131-0.059c0.215-0.097,0.427-0.198,0.637-0.304
			c0.058-0.029,0.115-0.059,0.173-0.088c0.197-0.102,0.39-0.209,0.582-0.319c0.059-0.034,0.119-0.067,0.177-0.102
			c0.198-0.117,0.393-0.239,0.585-0.364c0.045-0.029,0.09-0.057,0.134-0.086c0.235-0.157,0.467-0.319,0.694-0.487
			c-0.031-0.058-0.06-0.113-0.092-0.171c0.754-1.279,1.514-2.555,2.273-3.827c0.541-0.007,1.081-0.018,1.622-0.026
			c0.18-0.272,0.351-0.55,0.515-0.834c0.019-0.032,0.038-0.065,0.056-0.097c0.234-0.412,0.449-0.835,0.646-1.268
			c0.023-0.051,0.046-0.101,0.069-0.152c0.06-0.135,0.118-0.27,0.174-0.407c0.019-0.046,0.036-0.092,0.055-0.139
			c0.094-0.237,0.183-0.476,0.266-0.718c0.027-0.079,0.054-0.157,0.08-0.236c0.04-0.124,0.08-0.248,0.117-0.374
			c0.029-0.097,0.056-0.196,0.083-0.294c0.052-0.186,0.1-0.374,0.146-0.563c0.026-0.11,0.053-0.221,0.077-0.332
			c0.025-0.113,0.048-0.226,0.07-0.34c0.025-0.13,0.048-0.26,0.07-0.391c0.025-0.151,0.049-0.303,0.07-0.456
			c0.019-0.14,0.038-0.281,0.054-0.422c0.012-0.107,0.023-0.214,0.032-0.321c0.013-0.143,0.024-0.288,0.033-0.432
			c0.005-0.08,0.012-0.16,0.016-0.24c-1.397-0.009-2.793-0.017-4.19-0.023c-0.098-0.166-0.196-0.333-0.294-0.499
			c-0.022,0.132-0.048,0.262-0.072,0.393c0.045,0.077,0.091,0.154,0.136,0.231c-0.094,0.163-0.189,0.327-0.283,0.49
			c-0.336,1.499-0.844,2.933-1.5,4.279c0.637,1.113,1.205,2.117,1.723,3.045c-0.759,1.272-1.519,2.548-2.273,3.827
			c-1.432,0.021-2.877,0.035-4.296,0.039c-0.081-0.145-0.163-0.291-0.246-0.438c-0.066,0.054-0.131,0.107-0.198,0.16
			c0.076,0.136,0.152,0.271,0.226,0.404c-0.608,1.07-1.161,2.06-1.68,3.003c0.901-0.173,1.776-0.421,2.617-0.738
			c0.004-0.001,0.008-0.003,0.012-0.005C21.922,30.867,22.179,30.761,22.434,30.649z"/>
	</g>
</g>
</svg>
