<?xml version="1.0" encoding="utf-8"?>
<!-- Generator: Adobe Illustrator 21.1.0, SVG Export Plug-In . SVG Version: 6.00 Build 0)  -->
<svg version="1.1" id="Layer_1" xmlns="http://www.w3.org/2000/svg" xmlns:xlink="http://www.w3.org/1999/xlink" x="0px" y="0px"
	 viewBox="0 0 32 32" style="enable-background:new 0 0 32 32;" xml:space="preserve">
<style type="text/css">
	.st0{fill:#45CBEA;}
	.st1{fill:#FFD93B;}
	.st2{fill:#F4C534;}
	.st3{fill:#3E4347;}
	.st4{opacity:0.2;}
	.st5{fill:#DE9C25;}
	.st6{fill:#FFFFFF;}
	.st7{fill:#E24B4B;}
	.st8{fill:#8CC63E;}
	.st9{fill:#D03F3F;}
	.st10{fill:#846144;}
	.st11{fill:#5A5F63;}
	.st12{fill:#777B7E;}
	.st13{fill:#FFDC97;}
	.st14{fill:#FFE9AB;}
	.st15{fill:#93979A;}
	.st16{fill:#FFD68D;}
	.st17{fill:#728389;}
	.st18{fill:#DAE5EF;}
	.st19{fill:#65B1EF;}
	.st20{fill:#F2F7F9;}
	.st21{fill:#8D9BA3;}
	.st22{opacity:0.2;fill:#F2F7F9;}
	.st23{fill:#E9EFF4;}
	.st24{fill:#FC97B2;}
	.st25{fill:#E84D88;}
	.st26{fill:#A5856D;}
	.st27{fill:#E9B02C;}
	.st28{fill:#7FB239;}
	.st29{fill:#CBD6E0;}
	.st30{fill:#ACB9C1;}
	.st31{fill:#8F6D52;}
	.st32{opacity:0.2;fill:#FFFFFF;}
	.st33{fill:#9A795F;}
	.st34{fill:#BBC7D1;}
	.st35{fill:#E18823;}
	.st36{fill:#F29A2E;}
	.st37{fill:#89664C;}
	.st38{fill:#D3D9DD;}
	.st39{fill:#DEE4E9;}
	.st40{fill:#AD2727;}
	.st41{fill:#719D34;}
	.st42{fill:#353A3D;}
	.st43{opacity:0.25;}
	.st44{opacity:0.2;fill:#3E4347;}
	.st45{fill:#373C3F;}
	.st46{opacity:0.1;}
	.st47{opacity:0.06;}
	.st48{fill:#7A5B44;}
	.st49{fill:#6B503B;}
	.st50{fill:#31373A;}
	.st51{fill:#59A5E0;}
	.st52{fill:#363B3F;}
	.st53{fill:#BF3333;}
	.st54{opacity:0.3;}
	.st55{fill:#4E99D2;}
	.st56{opacity:0.15;}
	.st57{opacity:0.1;fill:#3E4347;}
	.st58{fill:#64892F;}
	.st59{opacity:0.08;fill:#FFFFFF;}
	.st60{opacity:0.1;fill:#FFFFFF;}
</style>
<g>
	<g>
		<path class="st26" d="M24.4,24.397c-4.95,4.95-12.012,7.772-20.314,7.593c-2.284-0.039-4.022-1.777-4.077-4.061
			C-0.35,11.324,11.32-0.345,27.924,0.013c2.284,0.055,4.022,1.793,4.069,4.069C32.172,12.384,29.342,19.455,24.4,24.397z"/>
	</g>
	<g>
		<path class="st26" d="M31.995,4.08c0.18,8.3-2.65,15.37-7.59,20.32c-4.95,4.95-12.02,7.77-20.32,7.59
			c-1.27-0.02-2.38-0.57-3.11-1.46h-0.01c-0.58-0.69-0.93-1.59-0.96-2.6c-0.35-16.61,11.31-28.28,27.92-27.92
			c1.69,0.04,3.08,1.01,3.71,2.44l0.01,0.01C31.865,2.95,31.985,3.5,31.995,4.08z"/>
	</g>
	<path class="st33" d="M31.995,4.08c0.18,8.3-2.65,15.37-7.59,20.32c-4.95,4.95-12.02,7.77-20.32,7.59
		c-1.27-0.02-2.38-0.57-3.11-1.46c23.51-6.66,30.66-28.08,30.66-28.08l0.01,0.01C31.865,2.95,31.985,3.5,31.995,4.08z"/>
	<g>
		<g>
			<path class="st20" d="M31.372,11.163c-2.682-0.047-5.355-1.083-7.398-3.126c-2.042-2.042-3.079-4.716-3.126-7.398
				c-0.756,0.148-1.489,0.335-2.198,0.546c0.171,3.056,1.426,6.072,3.765,8.411s5.348,3.586,8.411,3.75
				C31.044,12.644,31.216,11.912,31.372,11.163z"/>
		</g>
		<g>
			<path class="st20" d="M9.592,22.42c-2.339-2.339-5.355-3.594-8.411-3.765c-0.211,0.709-0.398,1.442-0.546,2.198
				c2.682,0.047,5.355,1.084,7.398,3.126c2.042,2.042,3.079,4.716,3.134,7.39c0.741-0.148,1.465-0.327,2.175-0.538
				C13.178,27.767,11.931,24.758,9.592,22.42z"/>
		</g>
	</g>
	<g>
		<path class="st20" d="M15.91,17.156c-0.568,0.588-1.121,1.189-1.659,1.805c0.561,0.491,1.123,0.982,1.685,1.474
			c0.34,0.299,0.372,0.827,0.081,1.174c-0.299,0.354-0.82,0.401-1.171,0.117c-0.579-0.471-1.157-0.942-1.736-1.413
			c-0.39,0.479-0.771,0.965-1.143,1.459c-0.291,0.385-0.83,0.491-1.196,0.226c-0.375-0.271-0.426-0.821-0.124-1.222
			c0.385-0.51,0.778-1.012,1.181-1.507c-0.578-0.471-1.157-0.942-1.736-1.413c-0.36-0.291-0.374-0.852-0.023-1.267
			c0.343-0.405,0.906-0.496,1.253-0.19c0.561,0.491,1.123,0.982,1.685,1.474c0.556-0.636,1.127-1.257,1.714-1.864
			c-0.537-0.518-1.073-1.036-1.61-1.555c-0.334-0.32-0.301-0.88,0.083-1.264c0.374-0.375,0.944-0.417,1.264-0.083
			c0.518,0.537,1.036,1.074,1.554,1.61c0.604-0.583,1.223-1.152,1.856-1.705c-0.491-0.561-0.983-1.123-1.474-1.685
			c-0.306-0.347-0.216-0.911,0.19-1.253c0.416-0.35,0.976-0.337,1.267,0.023c0.471,0.579,0.942,1.157,1.413,1.736
			c0.495-0.403,0.997-0.796,1.507-1.181c0.4-0.302,0.951-0.251,1.222,0.124c0.265,0.367,0.159,0.905-0.226,1.196
			c-0.494,0.372-0.98,0.753-1.459,1.143c0.471,0.579,0.942,1.157,1.413,1.736c0.284,0.352,0.236,0.872-0.117,1.171
			c-0.346,0.292-0.875,0.258-1.174-0.081c-0.491-0.561-0.982-1.123-1.474-1.685c-0.612,0.536-1.211,1.086-1.796,1.65
			c0.518,0.537,1.036,1.074,1.554,1.61c0.313,0.326,0.301,0.856-0.018,1.176c-0.327,0.327-0.849,0.331-1.176,0.017
			C16.983,18.192,16.447,17.674,15.91,17.156z"/>
	</g>
</g>
</svg>
