<?xml version="1.0" encoding="utf-8"?>
<!-- Generator: Adobe Illustrator 21.1.0, SVG Export Plug-In . SVG Version: 6.00 Build 0)  -->
<svg version="1.1" id="Layer_1" xmlns="http://www.w3.org/2000/svg" xmlns:xlink="http://www.w3.org/1999/xlink" x="0px" y="0px"
	 viewBox="0 0 32 32" style="enable-background:new 0 0 32 32;" xml:space="preserve">
<style type="text/css">
	.st0{fill:#45CBEA;}
	.st1{fill:#FFD93B;}
	.st2{fill:#F4C534;}
	.st3{fill:#3E4347;}
	.st4{opacity:0.2;}
	.st5{fill:#DE9C25;}
	.st6{fill:#FFFFFF;}
	.st7{fill:#E24B4B;}
	.st8{fill:#8CC63E;}
	.st9{fill:#D03F3F;}
	.st10{fill:#846144;}
	.st11{fill:#5A5F63;}
	.st12{fill:#777B7E;}
	.st13{fill:#FFDC97;}
	.st14{fill:#FFE9AB;}
	.st15{fill:#93979A;}
	.st16{fill:#FFD68D;}
	.st17{fill:#728389;}
	.st18{fill:#DAE5EF;}
	.st19{fill:#65B1EF;}
	.st20{fill:#F2F7F9;}
	.st21{fill:#8D9BA3;}
	.st22{opacity:0.2;fill:#F2F7F9;}
	.st23{fill:#E9EFF4;}
	.st24{fill:#FC97B2;}
	.st25{fill:#E84D88;}
	.st26{fill:#A5856D;}
	.st27{fill:#E9B02C;}
	.st28{fill:#7FB239;}
	.st29{fill:#CBD6E0;}
	.st30{fill:#ACB9C1;}
	.st31{fill:#8F6D52;}
	.st32{opacity:0.2;fill:#FFFFFF;}
	.st33{fill:#9A795F;}
	.st34{fill:#BBC7D1;}
	.st35{fill:#E18823;}
	.st36{fill:#F29A2E;}
	.st37{fill:#89664C;}
	.st38{fill:#D3D9DD;}
	.st39{fill:#DEE4E9;}
	.st40{fill:#AD2727;}
	.st41{fill:#719D34;}
	.st42{fill:#353A3D;}
	.st43{opacity:0.25;}
	.st44{opacity:0.2;fill:#3E4347;}
	.st45{fill:#373C3F;}
	.st46{opacity:0.1;}
	.st47{opacity:0.06;}
	.st48{fill:#7A5B44;}
	.st49{fill:#6B503B;}
	.st50{fill:#31373A;}
	.st51{fill:#59A5E0;}
	.st52{fill:#363B3F;}
	.st53{fill:#BF3333;}
	.st54{opacity:0.3;}
	.st55{fill:#4E99D2;}
	.st56{opacity:0.15;}
	.st57{opacity:0.1;fill:#3E4347;}
	.st58{fill:#64892F;}
	.st59{opacity:0.08;fill:#FFFFFF;}
	.st60{opacity:0.1;fill:#FFFFFF;}
</style>
<g>
	<g>
		<g>
			<rect x="10.643" y="14.24" class="st2" width="5.914" height="9.879"/>
			<g>
				<path class="st1" d="M21.038,7.297c0,4.077-3.302,10.723-7.391,10.723c-4.077,0-7.379-6.646-7.379-10.723
					c0-4.089,3.302-5.582,7.379-5.582C17.736,1.715,21.038,3.208,21.038,7.297z"/>
				<path class="st3" d="M7.925,10.481c0,0,0.694-4.8,3.289-3.59c0,0,4.458,0.831,5.153-1.776c0,0,2.997-1.927,4.093,5.366
					c0,0,3.399-8.465-6.267-10.279c0,0-9.337-2.419-7.875,9.486C6.317,9.688,6.974,12.56,7.925,10.481z"/>
			</g>
		</g>
		<path class="st0" d="M27.206,27.366c0,0.465-0.024,0.967-0.071,1.499C26.98,30.629,25.526,32,23.755,32H3.451
			c-1.771,0-3.225-1.371-3.38-3.135C0.024,28.333,0,27.831,0,27.366c0-5.893,3.735-8.02,8.969-8.669c0.799-0.09,1.291-0.16,2.15-0.2
			l2.534,3.136l2.345-3.125c0.899,0.04,1.53,0.098,2.359,0.208C23.531,19.376,27.206,21.523,27.206,27.366z"/>
		<polygon class="st9" points="15.191,22.761 14.604,24.575 12.691,24.575 12.104,22.761 13.651,21.633 		"/>
		<polygon class="st7" points="12.104,29.4 12.691,24.575 14.604,24.575 15.191,29.4 13.644,30.75 		"/>
		<g>
			<path class="st20" d="M10.648,17.901l3,3.733l-2.155,1.811c-0.222,0.189-0.567,0.1-0.678-0.167l-1.878-4.566L10.648,17.901z"/>
			<path class="st20" d="M18.358,18.712l-1.878,4.566c-0.111,0.267-0.455,0.356-0.678,0.167l-2.155-1.811l2.911-3.866L18.358,18.712
				z"/>
		</g>
	</g>
	<g>
		<g>
			<circle class="st2" cx="26.607" cy="26.607" r="5.393"/>
			<g>
				<circle class="st1" cx="26.607" cy="26.607" r="4.127"/>
			</g>
			<g>
				<path class="st2" d="M26.394,28.049v-1.278c-0.398-0.114-0.69-0.286-0.877-0.518c-0.186-0.23-0.278-0.511-0.278-0.84
					c0-0.334,0.105-0.615,0.316-0.841c0.21-0.227,0.491-0.357,0.84-0.393v-0.302h0.443v0.302c0.323,0.038,0.58,0.149,0.773,0.331
					c0.191,0.182,0.313,0.426,0.366,0.731l-0.773,0.101c-0.047-0.24-0.169-0.403-0.366-0.489v1.193
					c0.489,0.132,0.821,0.304,0.998,0.514c0.177,0.211,0.266,0.481,0.266,0.811c0,0.368-0.111,0.678-0.334,0.93
					c-0.223,0.252-0.532,0.407-0.929,0.463v0.571h-0.443v-0.555c-0.351-0.043-0.637-0.174-0.857-0.394s-0.361-0.53-0.421-0.93
					l0.797-0.085c0.032,0.162,0.093,0.303,0.182,0.42C26.184,27.911,26.284,27.997,26.394,28.049z M26.394,24.846
					c-0.12,0.041-0.216,0.11-0.286,0.207c-0.071,0.098-0.107,0.206-0.107,0.323c0,0.108,0.032,0.208,0.097,0.301
					c0.065,0.093,0.163,0.168,0.296,0.224V24.846z M26.836,28.092c0.153-0.028,0.276-0.098,0.372-0.211s0.143-0.246,0.143-0.399
					c0-0.136-0.039-0.253-0.121-0.352c-0.08-0.098-0.211-0.174-0.395-0.227V28.092z"/>
			</g>
		</g>
	</g>
</g>
</svg>
