<?xml version="1.0" encoding="utf-8"?>
<!-- Generator: Adobe Illustrator 21.1.0, SVG Export Plug-In . SVG Version: 6.00 Build 0)  -->
<svg version="1.1" id="Layer_1" xmlns="http://www.w3.org/2000/svg" xmlns:xlink="http://www.w3.org/1999/xlink" x="0px" y="0px"
	 viewBox="0 0 32 32" style="enable-background:new 0 0 32 32;" xml:space="preserve">
<style type="text/css">
	.st0{fill:#45CBEA;}
	.st1{fill:#FFD93B;}
	.st2{fill:#F4C534;}
	.st3{fill:#3E4347;}
	.st4{opacity:0.2;}
	.st5{fill:#DE9C25;}
	.st6{fill:#FFFFFF;}
	.st7{fill:#E24B4B;}
	.st8{fill:#8CC63E;}
	.st9{fill:#D03F3F;}
	.st10{fill:#846144;}
	.st11{fill:#5A5F63;}
	.st12{fill:#777B7E;}
	.st13{fill:#FFDC97;}
	.st14{fill:#FFE9AB;}
	.st15{fill:#93979A;}
	.st16{fill:#FFD68D;}
	.st17{fill:#728389;}
	.st18{fill:#DAE5EF;}
	.st19{fill:#65B1EF;}
	.st20{fill:#F2F7F9;}
	.st21{fill:#8D9BA3;}
	.st22{opacity:0.2;fill:#F2F7F9;}
	.st23{fill:#E9EFF4;}
	.st24{fill:#FC97B2;}
	.st25{fill:#E84D88;}
	.st26{fill:#A5856D;}
	.st27{fill:#E9B02C;}
	.st28{fill:#7FB239;}
	.st29{fill:#CBD6E0;}
	.st30{fill:#ACB9C1;}
	.st31{fill:#8F6D52;}
	.st32{opacity:0.2;fill:#FFFFFF;}
	.st33{fill:#9A795F;}
	.st34{fill:#BBC7D1;}
	.st35{fill:#E18823;}
	.st36{fill:#F29A2E;}
	.st37{fill:#89664C;}
	.st38{fill:#D3D9DD;}
	.st39{fill:#DEE4E9;}
	.st40{fill:#AD2727;}
	.st41{fill:#719D34;}
	.st42{fill:#353A3D;}
	.st43{opacity:0.25;}
	.st44{opacity:0.2;fill:#3E4347;}
	.st45{fill:#373C3F;}
	.st46{opacity:0.1;}
	.st47{opacity:0.06;}
	.st48{fill:#7A5B44;}
	.st49{fill:#6B503B;}
	.st50{fill:#31373A;}
	.st51{fill:#59A5E0;}
	.st52{fill:#363B3F;}
	.st53{fill:#BF3333;}
	.st54{opacity:0.3;}
	.st55{fill:#4E99D2;}
	.st56{opacity:0.15;}
	.st57{opacity:0.1;fill:#3E4347;}
	.st58{fill:#64892F;}
	.st59{opacity:0.08;fill:#FFFFFF;}
	.st60{opacity:0.1;fill:#FFFFFF;}
</style>
<g>
	<path class="st23" d="M13.842,21.143c-0.175,0.052-0.385,0.085-0.363-0.076c0.037-0.266,0.126-0.412,0.15-0.553
		c0.025-0.142,0.049-0.936,0.049-0.936C13.731,20.048,13.789,20.58,13.842,21.143z"/>
	<g>
		<path class="st2" d="M21.62,14.955c-0.217,0.775-0.631,1.356-0.925,1.297c-0.294-0.059-0.357-0.735-0.14-1.51
			c0.217-0.775,0.631-1.355,0.925-1.296C21.774,13.504,21.837,14.18,21.62,14.955z"/>
		<path class="st2" d="M12.19,14.955c0.217,0.775,0.631,1.356,0.925,1.297c0.294-0.059,0.357-0.735,0.14-1.51
			c-0.217-0.775-0.631-1.355-0.925-1.296C12.036,13.504,11.973,14.18,12.19,14.955z"/>
	</g>
	<path class="st2" d="M20.072,19.795c0.016,0.05,0.097,0.295,0.058,0.472c-0.037,0.167,0.023,0.252-0.031,0.285
		c-0.039,0.367-0.181,0.717-0.214,1.113c-0.173,2.024-2.661,3.424-2.981,3.595c-0.006,0.004-0.01,0.008-0.016,0.01h-0.002
		c-0.006-0.002-0.01-0.006-0.016-0.01c-0.32-0.171-2.808-1.571-2.981-3.595c-0.016-0.177-0.031-0.352-0.049-0.522
		c-0.052-0.563-0.111-1.095-0.165-1.565c-0.134-1.144-0.251-1.926-0.251-1.926l3.445-1.243l0.016-0.006l0.017,0.006l3.443,1.243
		C20.348,17.651,20.215,18.535,20.072,19.795z"/>
	<path class="st18" d="M16.18,24.231c0,0,0.593-1.699,2.47-2.471c0.15,0.068,1.813-0.566,1.419-1.972
		c1.474,1.966,4.384,4.779,6.631,5.78c0.371,0.165,1.555,0.956,2.116,4.431C28.985,31.047,28.185,32,27.124,32H4.879
		c-1.212,0-2.041-1.222-1.595-2.348l0.441-1.111c0.99-2.496,2.891-4.524,5.319-5.672c1-0.473,2.477-1.335,3.003-1.686
		c0.469-0.314,1.054-0.303,1.054-0.303l0.576-1.303c0,0-0.22,1.187,1.283,2.328c0,0,0.483,1.117,0.664,2.326H16.18z"/>
	<path class="st1" d="M16.902,20.267c-3.172-0.062-4.099-3.309-4.366-5.413c-0.223-1.757,0.887-3.395,2.602-3.836
		c0.956-0.246,1.764-0.196,1.764-0.196s0.938-0.058,1.989,0.259c1.589,0.479,2.586,2.062,2.385,3.709
		C21.02,16.892,20.107,20.205,16.902,20.267z"/>
	<g>
		<path class="st18" d="M23.692,5.195c0,1.291-0.8,2.394-1.93,2.843l-0.517,5.67c-1.097-2.367-4.305-2.295-4.305-2.295
			c-0.023,0-0.047,0-0.07-0.002c-0.025,0.002-0.047,0.002-0.072,0.002c0,0-3.208-0.072-4.302,2.295l-0.519-5.67
			c-1.13-0.449-1.928-1.554-1.928-2.843c0-2.022,1.931-3.488,3.872-2.948C14.275,0.952,15.461,0,16.869,0s2.595,0.952,2.948,2.247
			C21.771,1.707,23.692,3.179,23.692,5.195z"/>
		<g>
			<path class="st34" d="M14.133,11.073L14.133,11.073c-0.201,0-0.383-0.161-0.406-0.361L13.361,8.07
				c-0.023-0.199,0.121-0.361,0.322-0.361h0c0.201,0,0.383,0.161,0.406,0.361l0.366,2.642
				C14.478,10.911,14.334,11.073,14.133,11.073z"/>
			<path class="st34" d="M19.608,11.073L19.608,11.073c0.201,0,0.383-0.161,0.406-0.361L20.38,8.07
				c0.023-0.199-0.121-0.361-0.322-0.361h0c-0.201,0-0.383,0.161-0.406,0.361l-0.366,2.642
				C19.263,10.911,19.407,11.073,19.608,11.073z"/>
			<path class="st34" d="M16.87,11.073L16.87,11.073c-0.201,0-0.364-0.163-0.364-0.364V8.035c0-0.201,0.163-0.364,0.364-0.364l0,0
				c0.201,0,0.364,0.163,0.364,0.364v2.673C17.235,10.91,17.071,11.073,16.87,11.073z"/>
		</g>
	</g>
	<path class="st9" d="M16.871,24.406c0.006,0.004,0.01,0.008,0.016,0.01c-0.01,0.008-0.016,0.01-0.016,0.01V24.406z"/>
	<polygon class="st9" points="16.887,15.548 16.871,15.554 16.871,15.542 	"/>
	<polygon class="st9" points="16.904,15.542 16.904,15.554 16.887,15.548 	"/>
	<path class="st9" d="M16.889,24.415c0.006-0.002,0.01-0.006,0.016-0.01v0.019C16.904,24.425,16.899,24.423,16.889,24.415z"/>
	<circle class="st3" cx="19.8" cy="25.693" r="0.484"/>
	<circle class="st3" cx="18.562" cy="30.572" r="0.484"/>
	<circle class="st3" cx="11.158" cy="29.82" r="0.484"/>
	<circle class="st3" cx="11.838" cy="24.989" r="0.484"/>
	<path class="st23" d="M13.677,19.577l-0.643,1.454c0,0-1.129,1.497,2.292,3.212l0.297-0.012c0,0-0.121-1.639-0.595-2.323
		C15.028,21.908,13.544,20.903,13.677,19.577z"/>
	<path class="st23" d="M16.156,24.231c0,0-0.112-1.634,2.997-2.67c0,0,1.013-0.245,0.916-1.773l1.17,1.394
		C21.239,21.182,19.839,24.464,16.156,24.231z"/>
</g>
</svg>
