<?xml version="1.0" encoding="utf-8"?>
<!-- Generator: Adobe Illustrator 21.1.0, SVG Export Plug-In . SVG Version: 6.00 Build 0)  -->
<svg version="1.1" id="Layer_1" xmlns="http://www.w3.org/2000/svg" xmlns:xlink="http://www.w3.org/1999/xlink" x="0px" y="0px"
	 viewBox="0 0 32 32" style="enable-background:new 0 0 32 32;" xml:space="preserve">
<style type="text/css">
	.st0{fill:#45CBEA;}
	.st1{fill:#FFD93B;}
	.st2{fill:#F4C534;}
	.st3{fill:#3E4347;}
	.st4{opacity:0.2;}
	.st5{fill:#DE9C25;}
	.st6{fill:#FFFFFF;}
	.st7{fill:#E24B4B;}
	.st8{fill:#8CC63E;}
	.st9{fill:#D03F3F;}
	.st10{fill:#846144;}
	.st11{fill:#5A5F63;}
	.st12{fill:#777B7E;}
	.st13{fill:#FFDC97;}
	.st14{fill:#FFE9AB;}
	.st15{fill:#93979A;}
	.st16{fill:#FFD68D;}
	.st17{fill:#728389;}
	.st18{fill:#DAE5EF;}
	.st19{fill:#65B1EF;}
	.st20{fill:#F2F7F9;}
	.st21{fill:#8D9BA3;}
	.st22{opacity:0.2;fill:#F2F7F9;}
	.st23{fill:#E9EFF4;}
	.st24{fill:#FC97B2;}
	.st25{fill:#E84D88;}
	.st26{fill:#A5856D;}
	.st27{fill:#E9B02C;}
	.st28{fill:#7FB239;}
	.st29{fill:#CBD6E0;}
	.st30{fill:#ACB9C1;}
	.st31{fill:#8F6D52;}
	.st32{opacity:0.2;fill:#FFFFFF;}
	.st33{fill:#9A795F;}
	.st34{fill:#BBC7D1;}
	.st35{fill:#E18823;}
	.st36{fill:#F29A2E;}
	.st37{fill:#89664C;}
	.st38{fill:#D3D9DD;}
	.st39{fill:#DEE4E9;}
	.st40{fill:#AD2727;}
	.st41{fill:#719D34;}
	.st42{fill:#353A3D;}
	.st43{opacity:0.25;}
	.st44{opacity:0.2;fill:#3E4347;}
	.st45{fill:#373C3F;}
	.st46{opacity:0.1;}
	.st47{opacity:0.06;}
	.st48{fill:#7A5B44;}
	.st49{fill:#6B503B;}
	.st50{fill:#31373A;}
	.st51{fill:#59A5E0;}
	.st52{fill:#363B3F;}
	.st53{fill:#BF3333;}
	.st54{opacity:0.3;}
	.st55{fill:#4E99D2;}
	.st56{opacity:0.15;}
	.st57{opacity:0.1;fill:#3E4347;}
	.st58{fill:#64892F;}
	.st59{opacity:0.08;fill:#FFFFFF;}
	.st60{opacity:0.1;fill:#FFFFFF;}
</style>
<g>
	<g>
		<g>
			<g>
				<path class="st51" d="M15.591,2.366c0,4.784-3.49,25.781-7.795,25.781S0,7.15,0,2.366s3.49-0.832,7.795-0.832
					S15.591-2.419,15.591,2.366z"/>
			</g>
			<path class="st55" d="M15.545,1.528c-0.395,2.205-3.35,17.957-8.599,26.343c0.279,0.176,0.563,0.276,0.85,0.276
				c4.305,0,7.796-20.997,7.796-25.781C15.591,2.048,15.575,1.772,15.545,1.528z"/>
			<g>
				<path class="st55" d="M7.797,3.387c0.361,2.476,0.491,6.462,0.49,9.006c0,4.093-0.263,7.453-0.49,9.006
					c-0.364-2.484-0.49-6.436-0.49-9.006C7.306,8.347,7.57,4.941,7.797,3.387z"/>
			</g>
			<g>
				<path class="st3" d="M10.72,21.641v7.352C10.72,30.655,9.407,32,7.793,32c-1.614,0-2.92-1.345-2.92-3.007v-7.352
					c0-1.663,1.306-3.014,2.92-3.014C9.408,18.626,10.72,19.978,10.72,21.641z"/>
			</g>
		</g>
		<g>
			<path class="st45" d="M7.793,32c1.614,0,2.927-1.345,2.927-3.007v-7.352c0-0.424-0.087-0.827-0.241-1.193
				c-1.467,3.88-3.239,7.49-5.306,9.851C5.646,31.303,6.635,32,7.793,32z"/>
		</g>
	</g>
	<g>
		<g>
			<g>
				<path class="st51" d="M32,2.366c0,4.784-3.49,25.781-7.795,25.781S16.409,7.15,16.409,2.366s3.49-0.832,7.795-0.832
					S32-2.419,32,2.366z"/>
			</g>
			<path class="st55" d="M31.954,1.528c-0.395,2.205-3.35,17.957-8.599,26.343c0.279,0.176,0.563,0.276,0.85,0.276
				C28.51,28.147,32,7.15,32,2.366C32,2.048,31.984,1.772,31.954,1.528z"/>
			<g>
				<path class="st55" d="M24.206,3.387c0.361,2.476,0.491,6.462,0.49,9.006c0,4.093-0.263,7.453-0.49,9.006
					c-0.364-2.484-0.49-6.436-0.49-9.006C23.715,8.347,23.979,4.941,24.206,3.387z"/>
			</g>
			<g>
				<path class="st3" d="M27.129,21.641v7.352c0,1.663-1.313,3.007-2.927,3.007c-1.614,0-2.92-1.345-2.92-3.007v-7.352
					c0-1.663,1.306-3.014,2.92-3.014C25.817,18.626,27.129,19.978,27.129,21.641z"/>
			</g>
		</g>
		<g>
			<path class="st45" d="M24.202,32c1.614,0,2.927-1.345,2.927-3.007v-7.352c0-0.424-0.087-0.827-0.241-1.193
				c-1.467,3.88-3.239,7.49-5.306,9.851C22.055,31.303,23.044,32,24.202,32z"/>
		</g>
	</g>
</g>
</svg>
