<?xml version="1.0" encoding="utf-8"?>
<!-- Generator: Adobe Illustrator 21.1.0, SVG Export Plug-In . SVG Version: 6.00 Build 0)  -->
<svg version="1.1" id="Layer_1" xmlns="http://www.w3.org/2000/svg" xmlns:xlink="http://www.w3.org/1999/xlink" x="0px" y="0px"
	 viewBox="0 0 32 32" style="enable-background:new 0 0 32 32;" xml:space="preserve">
<style type="text/css">
	.st0{fill:#45CBEA;}
	.st1{fill:#FFD93B;}
	.st2{fill:#F4C534;}
	.st3{fill:#3E4347;}
	.st4{opacity:0.2;}
	.st5{fill:#DE9C25;}
	.st6{fill:#FFFFFF;}
	.st7{fill:#E24B4B;}
	.st8{fill:#8CC63E;}
	.st9{fill:#D03F3F;}
	.st10{fill:#846144;}
	.st11{fill:#5A5F63;}
	.st12{fill:#777B7E;}
	.st13{fill:#FFDC97;}
	.st14{fill:#FFE9AB;}
	.st15{fill:#93979A;}
	.st16{fill:#FFD68D;}
	.st17{fill:#728389;}
	.st18{fill:#DAE5EF;}
	.st19{fill:#65B1EF;}
	.st20{fill:#F2F7F9;}
	.st21{fill:#8D9BA3;}
	.st22{opacity:0.2;fill:#F2F7F9;}
	.st23{fill:#E9EFF4;}
	.st24{fill:#FC97B2;}
	.st25{fill:#E84D88;}
	.st26{fill:#A5856D;}
	.st27{fill:#E9B02C;}
	.st28{fill:#7FB239;}
	.st29{fill:#CBD6E0;}
	.st30{fill:#ACB9C1;}
	.st31{fill:#8F6D52;}
	.st32{opacity:0.2;fill:#FFFFFF;}
	.st33{fill:#9A795F;}
	.st34{fill:#BBC7D1;}
	.st35{fill:#E18823;}
	.st36{fill:#F29A2E;}
	.st37{fill:#89664C;}
	.st38{fill:#D3D9DD;}
	.st39{fill:#DEE4E9;}
	.st40{fill:#AD2727;}
	.st41{fill:#719D34;}
	.st42{fill:#353A3D;}
	.st43{opacity:0.25;}
	.st44{opacity:0.2;fill:#3E4347;}
	.st45{fill:#373C3F;}
	.st46{opacity:0.1;}
	.st47{opacity:0.06;}
	.st48{fill:#7A5B44;}
	.st49{fill:#6B503B;}
	.st50{fill:#31373A;}
	.st51{fill:#59A5E0;}
	.st52{fill:#363B3F;}
	.st53{fill:#BF3333;}
	.st54{opacity:0.3;}
	.st55{fill:#4E99D2;}
	.st56{opacity:0.15;}
	.st57{opacity:0.1;fill:#3E4347;}
	.st58{fill:#64892F;}
	.st59{opacity:0.08;fill:#FFFFFF;}
	.st60{opacity:0.1;fill:#FFFFFF;}
</style>
<g>
	<g>
		<g>
			<path class="st23" d="M26.465,1v30c0,0.55-0.45,1-1,1H6.535c-0.56,0-1-0.45-1-1V1c0-0.55,0.44-1,1-1h18.93
				C26.015,0,26.465,0.45,26.465,1z"/>
		</g>
		<rect x="7.535" y="2" class="st3" width="16.93" height="14"/>
		<g>
			<g>
				<rect x="9.34" y="13.533" class="st7" width="2.462" height="1.079"/>
				<rect x="9.34" y="11.785" class="st7" width="2.462" height="1.079"/>
				<rect x="9.34" y="10.038" class="st7" width="2.462" height="1.079"/>
				<rect x="9.34" y="8.291" class="st7" width="2.462" height="1.079"/>
				<rect x="9.34" y="6.543" class="st7" width="2.462" height="1.079"/>
				<rect x="9.34" y="4.796" class="st7" width="2.462" height="1.079"/>
			</g>
			<g>
				<rect x="12.959" y="13.533" class="st6" width="2.462" height="1.079"/>
				<rect x="12.959" y="11.785" class="st6" width="2.462" height="1.079"/>
				<rect x="12.959" y="10.038" class="st6" width="2.462" height="1.079"/>
				<rect x="12.959" y="8.291" class="st6" width="2.462" height="1.079"/>
				<rect x="12.959" y="6.543" class="st6" width="2.462" height="1.079"/>
			</g>
			<g>
				<rect x="16.578" y="13.533" class="st19" width="2.462" height="1.079"/>
				<rect x="16.578" y="11.785" class="st19" width="2.462" height="1.079"/>
				<rect x="16.578" y="10.038" class="st19" width="2.462" height="1.079"/>
				<rect x="16.578" y="8.291" class="st19" width="2.462" height="1.079"/>
			</g>
			<g>
				<rect x="20.197" y="13.533" class="st1" width="2.462" height="1.079"/>
				<rect x="20.197" y="11.785" class="st1" width="2.462" height="1.079"/>
				<rect x="20.197" y="10.038" class="st1" width="2.462" height="1.079"/>
				<rect x="20.197" y="8.291" class="st1" width="2.462" height="1.079"/>
				<rect x="20.197" y="6.543" class="st1" width="2.462" height="1.079"/>
				<rect x="20.197" y="4.796" class="st1" width="2.462" height="1.079"/>
			</g>
		</g>
	</g>
	<g>
		<path class="st3" d="M16.004,18.078c-2.905,0-5.259,2.346-5.259,5.251c0,2.897,2.354,5.251,5.259,5.251
			c2.897,0,5.251-2.354,5.251-5.251C21.255,20.424,18.901,18.078,16.004,18.078z M16.003,25.205c-1.052,0-1.906-0.848-1.906-1.899
			c0-1.052,0.854-1.906,1.906-1.906c1.045,0,1.899,0.854,1.899,1.906C17.903,24.358,17.048,25.205,16.003,25.205z"/>
		<polygon class="st6" points="16.656,19.654 15.841,20.232 15.841,19.076 		"/>
		<g>
			<polygon class="st6" points="11.724,22.856 11.724,23.757 11.857,23.757 11.857,23.386 12.562,23.885 12.562,23.335 
				13.334,23.885 13.334,22.728 12.562,23.273 12.562,22.728 11.857,23.227 11.857,22.856 			"/>
			<polygon class="st6" points="20.276,22.856 20.276,23.757 20.143,23.757 20.143,23.386 19.438,23.885 19.438,23.335 
				18.666,23.885 18.666,22.728 19.438,23.273 19.438,22.728 20.143,23.227 20.143,22.856 			"/>
		</g>
		<rect x="15.658" y="26.277" class="st6" width="0.87" height="0.87"/>
		<g>
			<circle class="st3" cx="16.001" cy="23.304" r="0.997"/>
		</g>
	</g>
</g>
</svg>
