<?xml version="1.0" encoding="utf-8"?>
<!-- Generator: Adobe Illustrator 21.1.0, SVG Export Plug-In . SVG Version: 6.00 Build 0)  -->
<svg version="1.1" id="Layer_1" xmlns="http://www.w3.org/2000/svg" xmlns:xlink="http://www.w3.org/1999/xlink" x="0px" y="0px"
	 viewBox="0 0 32 32" style="enable-background:new 0 0 32 32;" xml:space="preserve">
<style type="text/css">
	.st0{fill:#45CBEA;}
	.st1{fill:#FFD93B;}
	.st2{fill:#F4C534;}
	.st3{fill:#3E4347;}
	.st4{opacity:0.2;}
	.st5{fill:#DE9C25;}
	.st6{fill:#FFFFFF;}
	.st7{fill:#E24B4B;}
	.st8{fill:#8CC63E;}
	.st9{fill:#D03F3F;}
	.st10{fill:#846144;}
	.st11{fill:#5A5F63;}
	.st12{fill:#777B7E;}
	.st13{fill:#FFDC97;}
	.st14{fill:#FFE9AB;}
	.st15{fill:#93979A;}
	.st16{fill:#FFD68D;}
	.st17{fill:#728389;}
	.st18{fill:#DAE5EF;}
	.st19{fill:#65B1EF;}
	.st20{fill:#F2F7F9;}
	.st21{fill:#8D9BA3;}
	.st22{opacity:0.2;fill:#F2F7F9;}
	.st23{fill:#E9EFF4;}
	.st24{fill:#FC97B2;}
	.st25{fill:#E84D88;}
	.st26{fill:#A5856D;}
	.st27{fill:#E9B02C;}
	.st28{fill:#7FB239;}
	.st29{fill:#CBD6E0;}
	.st30{fill:#ACB9C1;}
	.st31{fill:#8F6D52;}
	.st32{opacity:0.2;fill:#FFFFFF;}
	.st33{fill:#9A795F;}
	.st34{fill:#BBC7D1;}
	.st35{fill:#E18823;}
	.st36{fill:#F29A2E;}
	.st37{fill:#89664C;}
	.st38{fill:#D3D9DD;}
	.st39{fill:#DEE4E9;}
	.st40{fill:#AD2727;}
	.st41{fill:#719D34;}
	.st42{fill:#353A3D;}
	.st43{opacity:0.25;}
	.st44{opacity:0.2;fill:#3E4347;}
	.st45{fill:#373C3F;}
	.st46{opacity:0.1;}
	.st47{opacity:0.06;}
	.st48{fill:#7A5B44;}
	.st49{fill:#6B503B;}
	.st50{fill:#31373A;}
	.st51{fill:#59A5E0;}
	.st52{fill:#363B3F;}
	.st53{fill:#BF3333;}
	.st54{opacity:0.3;}
	.st55{fill:#4E99D2;}
	.st56{opacity:0.15;}
	.st57{opacity:0.1;fill:#3E4347;}
	.st58{fill:#64892F;}
	.st59{opacity:0.08;fill:#FFFFFF;}
	.st60{opacity:0.1;fill:#FFFFFF;}
</style>
<g>
	<path class="st8" d="M32,5.448v22.71c0,0.55-0.45,1-1,1H1c-0.55,0-1-0.45-1-1V5.448c0-0.55,0.45-1,1-1h30
		C31.55,4.448,32,4.898,32,5.448z"/>
	<rect x="1.5" y="5.948" class="st13" width="13.956" height="21.71"/>
	<g>
		<polygon class="st14" points="2,24.552 2,2.842 15.456,5.948 15.456,27.658 		"/>
		<rect x="15.456" y="5.948" class="st14" width="15.044" height="21.71"/>
	</g>
	<rect x="17.54" y="8.636" class="st6" width="10.875" height="3.5"/>
	<path class="st15" d="M28.75,14.258c0,0.29-0.23,0.52-0.52,0.52h-10.5c-0.29,0-0.52-0.23-0.52-0.52c0-0.29,0.23-0.52,0.52-0.52
		h10.5C28.52,13.738,28.75,13.968,28.75,14.258z"/>
	<path class="st15" d="M28.75,16.803c0,0.29-0.23,0.52-0.52,0.52h-10.5c-0.29,0-0.52-0.23-0.52-0.52c0-0.29,0.23-0.52,0.52-0.52
		h10.5C28.52,16.283,28.75,16.513,28.75,16.803z"/>
	<path class="st15" d="M28.75,19.348c0,0.29-0.23,0.52-0.52,0.52h-10.5c-0.29,0-0.52-0.23-0.52-0.52c0-0.29,0.23-0.52,0.52-0.52
		h10.5C28.52,18.828,28.75,19.058,28.75,19.348z"/>
	<path class="st15" d="M28.75,21.893c0,0.29-0.23,0.52-0.52,0.52h-10.5c-0.29,0-0.52-0.23-0.52-0.52c0-0.29,0.23-0.52,0.52-0.52
		h10.5C28.52,21.373,28.75,21.603,28.75,21.893z"/>
	<path class="st15" d="M24.75,24.438c0,0.29-0.23,0.52-0.52,0.52h-6.5c-0.29,0-0.52-0.23-0.52-0.52c0-0.29,0.23-0.52,0.52-0.52h6.5
		C24.52,23.918,24.75,24.148,24.75,24.438z"/>
	<g>
		<polygon class="st16" points="15.96,27.658 15.96,5.948 15.46,5.948 14.96,5.828 14.96,27.538 		"/>
	</g>
</g>
</svg>
