<?xml version="1.0" encoding="utf-8"?>
<!-- Generator: Adobe Illustrator 21.1.0, SVG Export Plug-In . SVG Version: 6.00 Build 0)  -->
<svg version="1.1" id="Layer_1" xmlns="http://www.w3.org/2000/svg" xmlns:xlink="http://www.w3.org/1999/xlink" x="0px" y="0px"
	 viewBox="0 0 32 32" style="enable-background:new 0 0 32 32;" xml:space="preserve">
<style type="text/css">
	.st0{fill:#45CBEA;}
	.st1{fill:#FFD93B;}
	.st2{fill:#F4C534;}
	.st3{fill:#3E4347;}
	.st4{opacity:0.2;}
	.st5{fill:#DE9C25;}
	.st6{fill:#FFFFFF;}
	.st7{fill:#E24B4B;}
	.st8{fill:#8CC63E;}
	.st9{fill:#D03F3F;}
	.st10{fill:#846144;}
	.st11{fill:#5A5F63;}
	.st12{fill:#777B7E;}
	.st13{fill:#FFDC97;}
	.st14{fill:#FFE9AB;}
	.st15{fill:#93979A;}
	.st16{fill:#FFD68D;}
	.st17{fill:#728389;}
	.st18{fill:#DAE5EF;}
	.st19{fill:#65B1EF;}
	.st20{fill:#F2F7F9;}
	.st21{fill:#8D9BA3;}
	.st22{opacity:0.2;fill:#F2F7F9;}
	.st23{fill:#E9EFF4;}
	.st24{fill:#FC97B2;}
	.st25{fill:#E84D88;}
	.st26{fill:#A5856D;}
	.st27{fill:#E9B02C;}
	.st28{fill:#7FB239;}
	.st29{fill:#CBD6E0;}
	.st30{fill:#ACB9C1;}
	.st31{fill:#8F6D52;}
	.st32{opacity:0.2;fill:#FFFFFF;}
	.st33{fill:#9A795F;}
	.st34{fill:#BBC7D1;}
	.st35{fill:#E18823;}
	.st36{fill:#F29A2E;}
	.st37{fill:#89664C;}
	.st38{fill:#D3D9DD;}
	.st39{fill:#DEE4E9;}
	.st40{fill:#AD2727;}
	.st41{fill:#719D34;}
	.st42{fill:#353A3D;}
	.st43{opacity:0.25;}
	.st44{opacity:0.2;fill:#3E4347;}
	.st45{fill:#373C3F;}
	.st46{opacity:0.1;}
	.st47{opacity:0.06;}
	.st48{fill:#7A5B44;}
	.st49{fill:#6B503B;}
	.st50{fill:#31373A;}
	.st51{fill:#59A5E0;}
	.st52{fill:#363B3F;}
	.st53{fill:#BF3333;}
	.st54{opacity:0.3;}
	.st55{fill:#4E99D2;}
	.st56{opacity:0.15;}
	.st57{opacity:0.1;fill:#3E4347;}
	.st58{fill:#64892F;}
	.st59{opacity:0.08;fill:#FFFFFF;}
	.st60{opacity:0.1;fill:#FFFFFF;}
</style>
<g>
	<g>
		<g>
			<path class="st7" d="M8.113,19.731c-2.024,0-4.144-0.209-6.349-0.628l0.343-1.808c8.898,1.689,16.018-0.166,21.162-5.513
				c2.016-2.095,3.304-4.335,4.031-5.846c0.793-1.648,1.108-2.812,1.111-2.824l1.778,0.471c-0.014,0.052-0.347,1.297-1.196,3.077
				c-0.779,1.633-2.164,4.058-4.34,6.337c-2.457,2.573-5.397,4.438-8.737,5.542C13.514,19.333,10.904,19.731,8.113,19.731z"/>
		</g>
	</g>
	<g>
		<g>
			<path class="st2" d="M30.647,31.05L0.608,18.714c-0.501-0.206-0.74-0.778-0.534-1.279c0.206-0.501,0.779-0.74,1.279-0.534
				l30.039,12.336c0.501,0.206,0.74,0.778,0.534,1.279C31.721,31.017,31.148,31.256,30.647,31.05z"/>
		</g>
	</g>
	<g>
		<g>
			<path class="st2" d="M21.214,27.097c-0.086,0-0.173-0.011-0.26-0.035c-0.522-0.143-0.83-0.682-0.687-1.205l5.497-20.068
				c0.143-0.522,0.682-0.83,1.205-0.687c0.522,0.143,0.83,0.682,0.687,1.205l-5.497,20.068
				C22.039,26.811,21.644,27.097,21.214,27.097z"/>
		</g>
	</g>
	<g>
		<g>
			<path class="st1" d="M1.233,30.827c-0.378-0.388-0.369-1.009,0.019-1.386L30.336,1.154c0.388-0.378,1.009-0.369,1.386,0.019
				c0.378,0.388,0.369,1.009-0.019,1.386L2.619,30.846C2.231,31.224,1.611,31.215,1.233,30.827z"/>
		</g>
	</g>
	<g>
		<g>
			<circle class="st3" cx="26.71" cy="6.048" r="0.465"/>
		</g>
	</g>
	<g>
		<g>
			<circle class="st3" cx="21.213" cy="26.116" r="0.465"/>
		</g>
	</g>
	<g>
		<g>
			<circle class="st3" cx="10.642" cy="21.823" r="0.465"/>
		</g>
	</g>
</g>
</svg>
