<?xml version="1.0" encoding="utf-8"?>
<!-- Generator: Adobe Illustrator 21.1.0, SVG Export Plug-In . SVG Version: 6.00 Build 0)  -->
<svg version="1.1" id="Layer_1" xmlns="http://www.w3.org/2000/svg" xmlns:xlink="http://www.w3.org/1999/xlink" x="0px" y="0px"
	 viewBox="0 0 32 32" style="enable-background:new 0 0 32 32;" xml:space="preserve">
<style type="text/css">
	.st0{fill:#45CBEA;}
	.st1{fill:#FFD93B;}
	.st2{fill:#F4C534;}
	.st3{fill:#3E4347;}
	.st4{opacity:0.2;}
	.st5{fill:#DE9C25;}
	.st6{fill:#FFFFFF;}
	.st7{fill:#E24B4B;}
	.st8{fill:#8CC63E;}
	.st9{fill:#D03F3F;}
	.st10{fill:#846144;}
	.st11{fill:#5A5F63;}
	.st12{fill:#777B7E;}
	.st13{fill:#FFDC97;}
	.st14{fill:#FFE9AB;}
	.st15{fill:#93979A;}
	.st16{fill:#FFD68D;}
	.st17{fill:#728389;}
	.st18{fill:#DAE5EF;}
	.st19{fill:#65B1EF;}
	.st20{fill:#F2F7F9;}
	.st21{fill:#8D9BA3;}
	.st22{opacity:0.2;fill:#F2F7F9;}
	.st23{fill:#E9EFF4;}
	.st24{fill:#FC97B2;}
	.st25{fill:#E84D88;}
	.st26{fill:#A5856D;}
	.st27{fill:#E9B02C;}
	.st28{fill:#7FB239;}
	.st29{fill:#CBD6E0;}
	.st30{fill:#ACB9C1;}
	.st31{fill:#8F6D52;}
	.st32{opacity:0.2;fill:#FFFFFF;}
	.st33{fill:#9A795F;}
	.st34{fill:#BBC7D1;}
	.st35{fill:#E18823;}
	.st36{fill:#F29A2E;}
	.st37{fill:#89664C;}
	.st38{fill:#D3D9DD;}
	.st39{fill:#DEE4E9;}
	.st40{fill:#AD2727;}
	.st41{fill:#719D34;}
	.st42{fill:#353A3D;}
	.st43{opacity:0.25;}
	.st44{opacity:0.2;fill:#3E4347;}
	.st45{fill:#373C3F;}
	.st46{opacity:0.1;}
	.st47{opacity:0.06;}
	.st48{fill:#7A5B44;}
	.st49{fill:#6B503B;}
	.st50{fill:#31373A;}
	.st51{fill:#59A5E0;}
	.st52{fill:#363B3F;}
	.st53{fill:#BF3333;}
	.st54{opacity:0.3;}
	.st55{fill:#4E99D2;}
	.st56{opacity:0.15;}
	.st57{opacity:0.1;fill:#3E4347;}
	.st58{fill:#64892F;}
	.st59{opacity:0.08;fill:#FFFFFF;}
	.st60{opacity:0.1;fill:#FFFFFF;}
</style>
<g>
	<circle class="st26" cx="15.999" cy="16" r="15.999"/>
	<path class="st33" d="M32,15.995c0,8.839-7.159,16.01-15.999,16.01c-4.897,0-9.268-2.196-12.189-5.655
		c2.789,2.383,6.413,3.81,10.355,3.81c8.828,0,15.998-7.159,15.998-15.999c0-3.964-1.438-7.588-3.843-10.388
		C29.793,6.705,32,11.097,32,15.995z"/>
	<g>
		<path class="st3" d="M30.012,23.714c-0.286,0.527-0.593,1.032-0.955,1.515c-2.427,0.714-5.677,0.802-9.948-0.45
			c-2.064-0.604-4.019-0.835-5.853-0.791c0.494,2.526,1.252,5.194,2.328,8.005c-0.417,0-0.824-0.033-1.219-0.077
			c-1.021-2.756-1.735-5.391-2.218-7.884c-3.184,0.253-5.951,1.285-8.18,2.504c-0.253-0.286-0.483-0.571-0.703-0.867
			c2.35-1.307,5.282-2.438,8.675-2.723c-0.494-2.976-0.648-5.732-0.593-8.246c-4.566,0.924-8.12-0.563-10.486-3.887
			c0.143-0.406,0.296-0.813,0.472-1.208c1.428,2.328,4.392,5.205,10.058,3.975c0.351-6.511,2.185-11.222,3.305-13.517
			c0.406-0.044,0.835-0.066,1.252-0.066c-0.966,1.856-3.02,6.533-3.437,13.297c2.58-0.747,4.546-1.922,6.456-3.075
			c3.239-1.933,6.138-3.668,10.827-2.317c0.275,0.45,0.516,0.922,0.736,1.405c-4.886-1.812-7.664-0.154-10.992,1.856
			c-1.966,1.186-4.184,2.504-7.082,3.272c-0.088,2.547,0.066,5.38,0.593,8.444c1.987-0.055,4.118,0.187,6.369,0.846
			C24.27,25.152,27.674,24.746,30.012,23.714z"/>
	</g>
</g>
</svg>
