<?xml version="1.0" encoding="utf-8"?>
<!-- Generator: Adobe Illustrator 21.1.0, SVG Export Plug-In . SVG Version: 6.00 Build 0)  -->
<svg version="1.1" id="Layer_1" xmlns="http://www.w3.org/2000/svg" xmlns:xlink="http://www.w3.org/1999/xlink" x="0px" y="0px"
	 viewBox="0 0 32 32" style="enable-background:new 0 0 32 32;" xml:space="preserve">
<style type="text/css">
	.st0{fill:#45CBEA;}
	.st1{fill:#FFD93B;}
	.st2{fill:#F4C534;}
	.st3{fill:#3E4347;}
	.st4{opacity:0.2;}
	.st5{fill:#DE9C25;}
	.st6{fill:#FFFFFF;}
	.st7{fill:#E24B4B;}
	.st8{fill:#8CC63E;}
	.st9{fill:#D03F3F;}
	.st10{fill:#846144;}
	.st11{fill:#5A5F63;}
	.st12{fill:#777B7E;}
	.st13{fill:#FFDC97;}
	.st14{fill:#FFE9AB;}
	.st15{fill:#93979A;}
	.st16{fill:#FFD68D;}
	.st17{fill:#728389;}
	.st18{fill:#DAE5EF;}
	.st19{fill:#65B1EF;}
	.st20{fill:#F2F7F9;}
	.st21{fill:#8D9BA3;}
	.st22{opacity:0.2;fill:#F2F7F9;}
	.st23{fill:#E9EFF4;}
	.st24{fill:#FC97B2;}
	.st25{fill:#E84D88;}
	.st26{fill:#A5856D;}
	.st27{fill:#E9B02C;}
	.st28{fill:#7FB239;}
	.st29{fill:#CBD6E0;}
	.st30{fill:#ACB9C1;}
	.st31{fill:#8F6D52;}
	.st32{opacity:0.2;fill:#FFFFFF;}
	.st33{fill:#9A795F;}
	.st34{fill:#BBC7D1;}
	.st35{fill:#E18823;}
	.st36{fill:#F29A2E;}
	.st37{fill:#89664C;}
	.st38{fill:#D3D9DD;}
	.st39{fill:#DEE4E9;}
	.st40{fill:#AD2727;}
	.st41{fill:#719D34;}
	.st42{fill:#353A3D;}
	.st43{opacity:0.25;}
	.st44{opacity:0.2;fill:#3E4347;}
	.st45{fill:#373C3F;}
	.st46{opacity:0.1;}
	.st47{opacity:0.06;}
	.st48{fill:#7A5B44;}
	.st49{fill:#6B503B;}
	.st50{fill:#31373A;}
	.st51{fill:#59A5E0;}
	.st52{fill:#363B3F;}
	.st53{fill:#BF3333;}
	.st54{opacity:0.3;}
	.st55{fill:#4E99D2;}
	.st56{opacity:0.15;}
	.st57{opacity:0.1;fill:#3E4347;}
	.st58{fill:#64892F;}
	.st59{opacity:0.08;fill:#FFFFFF;}
	.st60{opacity:0.1;fill:#FFFFFF;}
</style>
<g>
	<g>
		<path class="st1" d="M18.451,19.622l1.153-0.987c0,0,0.544-1.103,0.544-2.223c0,0,0.348-0.609,0.588-1.687s0.849-3.34,0.707-5.93
			c0,0,0.016-0.212,0.103-0.403c0.087-0.19,0.098-0.354-0.185-0.604s-3.397-3.546-3.861-3.956c-0.464-0.409-0.464-0.409-0.464-0.409
			s-0.499-0.531-0.595-0.979c-0.098-0.461-0.287-0.715-0.319-0.834c-0.033-0.12-0.406-1.607-0.406-1.607s-0.193-0.081-0.196,0.472
			c-0.002,0.539-0.037,2.571,0.006,2.961c0.022,0.202,0.119,0.386,0.31,0.455c0.193,0.07,0.488,0.218,0.759,0.525
			c0,0,1.971,2.461,2.363,3.172s0.791,1.124,0.805,1.371c0.015,0.247-0.508,1.161-0.544,2.292c-0.036,1.132-0.196,1.406-0.53,1.929
			c-0.334,0.523-0.827,1.285-0.827,1.285l-0.044,4.302L18.451,19.622z"/>
	</g>
	<g>
		<path class="st1" d="M13.131,19.487l-1.405-0.898c0,0-0.397-1.102-0.454-2.221c0,0-0.379-0.591-0.673-1.654
			S9.583,11.42,9.592,8.826c0,0-0.036-0.243-0.123-0.433C9.382,8.203,9.371,8.04,9.654,7.789s3.397-3.546,3.861-3.956
			s0.464-0.409,0.464-0.409s0.499-0.531,0.595-0.979c0.098-0.461,0.287-0.715,0.319-0.834S15.3,0.004,15.3,0.004
			s0.268-0.076,0.196,0.472s-0.022,2.578-0.006,2.961c0.008,0.203-0.119,0.386-0.31,0.455c-0.193,0.07-0.488,0.218-0.759,0.525
			c0,0-1.971,2.461-2.363,3.172c-0.392,0.711-0.778,1.069-0.78,1.316c-0.002,0.247,0.566,1.133,0.66,2.262
			c0.094,1.128,0.267,1.394,0.627,1.899c0.36,0.505,0.998,1.286,0.998,1.286l0.155,4.249L13.131,19.487z"/>
	</g>
	<g>
		<path class="st3" d="M17.683,11.424c0.046-0.147,0.072-0.323,0.072-0.512c0-0.086-0.006-0.17-0.016-0.25h-0.485v0.762H17.683z"/>
	</g>
	<g>
		<g>
			<path class="st2" d="M18.087,11.896c-0.059,0.39-0.282,0.684-0.497,0.657c-0.215-0.027-0.341-0.366-0.282-0.756
				c0.059-0.39,0.281-0.684,0.496-0.657C18.02,11.167,18.146,11.506,18.087,11.896z"/>
		</g>
		<g>
			<path class="st2" d="M13.299,11.896c0.059,0.39,0.282,0.684,0.497,0.657c0.215-0.027,0.341-0.366,0.282-0.756
				c-0.059-0.39-0.281-0.684-0.496-0.657C13.366,11.167,13.24,11.506,13.299,11.896z"/>
		</g>
	</g>
	<g>
		<path class="st2" d="M16.884,14.431V13.49h-2.579v0.796c-0.207,0.12-0.348,0.473-0.348,0.473v3.917h3.982v-0.381l-0.272-2.916
			C17.668,15.379,17.252,14.574,16.884,14.431z"/>
	</g>
	<g>
		<path class="st19" d="M19.626,26.594l0.098-0.225c0,0,0.236,0.094,0.098-0.203c-0.831-1.793-1.139-2.912-0.218-7.53
			c0,0-0.272-1.32-0.892-2.517c-0.62-1.197-0.849-1.654-0.849-1.654s-0.155-0.109-0.242,0.065c-0.087,0.174-0.169,0.087-0.264,0.03
			c-0.095-0.057-0.473-0.129-0.473-0.129s0.237,0.085,0.297,0.444c0.06,0.359,0.378,1.2,0.389,1.488
			c0.011,0.288-0.326,1.295-1.697,1.257s-1.812-0.691-1.899-1.072c-0.087-0.381,0.131-1.104,0.18-1.344
			c0.049-0.239-0.147-0.628,0.152-0.919c0,0-0.076-0.122-0.307,0.098c0,0-0.223-0.044-0.277,0.014
			c-0.054,0.057-0.158-0.046-0.158-0.046s-0.014,0.201-0.177,0.408c-0.163,0.207-0.337,0.544-1.039,2.133
			c-0.702,1.589-0.702,1.589-0.702,1.589c0.026,2.379,1.162,4.763,0.169,7.965c-0.294,0.947,0.272,1.034,0.272,1.034h5.854
			L19.626,26.594z"/>
	</g>
	<g>
		<g>
			<path class="st2" d="M24.36,31.254l-0.773,0.603c0,0-0.131,0.321-3.667,0s-4.537-0.756-6.572-0.93s-0.723-0.838-0.498-0.925
				c0.225-0.087,4.6-0.8,4.872-0.89c0.272-0.09,2.775-1.01,2.775-1.01s3.297,1.497,3.34,1.53
				C23.881,29.666,24.36,31.254,24.36,31.254z"/>
		</g>
		<g>
			<path class="st45" d="M9.735,27.489l0.783-0.274l0.801-0.128c0,0,0.267-0.49,0.495-0.642c0,0,1.306,0.686,3.482,0.522
				c2.176-0.163,4.429-0.598,4.429-0.598s0.446,0.544,0.511,0.936c0,0,0.234,0.011,0.707,0.185c0.473,0.174,1.882,0.294,1.882,0.294
				s2.095,0.555,2.644,1.317c0.549,0.762,0.141,1.632-0.245,2.116s-1.638,0.642-1.638,0.642s0.08-0.709-0.573-1.463
				c-0.653-0.754-0.783-1.281-0.783-1.281s-0.356-0.51-1.662-0.307c-1.305,0.203-4.018,0.878-4.671,0.878
				c-0.653,0-6.282-0.609-6.282-0.609s-0.297-1.335-0.268-1.364C9.376,27.682,9.735,27.489,9.735,27.489z"/>
		</g>
		<g>
			<path class="st1" d="M22.825,27.783c0,0-0.08-0.326-0.604-0.386c-0.524-0.06-0.56-0.074-0.771-0.143
				c-0.21-0.069-0.45-0.141-1.088,0.258c-0.638,0.399-1.172,0.584-1.676,0.504s-1.03-0.145-1.349,0.588c0,0-0.9,0.165-2.885,0.105
				c-1.986-0.06-4.146-0.473-4.935-0.392s-1.589,1.121-1.589,1.681s0.528,1.518,0.794,1.67c0.267,0.152,1.24,0.408,3.482-0.169
				s3.221-0.941,4.124-1.088c0.903-0.147,0.968-0.158,1.208-0.163c0.239-0.005,0.843-0.283,1.583-0.647
				c0.74-0.365,1.567-0.919,2.127-1.104s0.838-0.18,0.898-0.19c0.06-0.011,0.131-0.06,0.25-0.147l0.408,0.065
				c0,0,0.104,0.02,0.093-0.132l0.237,0.057C23.134,28.148,23.313,27.878,22.825,27.783z"/>
		</g>
		<g>
			<path class="st6" d="M22.465,28.17c0,0-0.11-0.067-0.131-0.169c-0.022-0.102,0.06-0.18,0.185-0.156
				c0.125,0.024,0.259,0.281,0.259,0.363L22.465,28.17z"/>
		</g>
		<g>
			<path class="st2" d="M22.825,27.783l0.071,0.308l0.049,0.012C22.946,28.103,22.927,27.912,22.825,27.783z"/>
		</g>
		<path class="st2" d="M16.016,30.3c-0.73,0.116-3.55,1.131-5.494,0.987c-1.304-0.097-2.025-0.305-2.359-0.432
			c0.175,0.383,0.409,0.727,0.56,0.813c0.267,0.152,1.24,0.408,3.482-0.169s3.221-0.941,4.124-1.088
			c0.903-0.147,0.968-0.158,1.208-0.163C17.537,30.248,16.746,30.184,16.016,30.3z"/>
		<g>
			<path class="st45" d="M10.737,27.984l-0.968,0.322c-0.675,0.131-1.415,1.36-1.425,2.078c-0.011,0.718,0.466,1.325,0.466,1.325
				s-0.336-0.008-0.88-0.248s-1.208-0.675-1.589-1.839s0.696-1.969,2.187-2.209c0.759-0.122,1.472-0.175,1.99-0.198L10.737,27.984z"
				/>
		</g>
	</g>
	<g>
		<path class="st1" d="M17.616,11.723c0,1.774-1.103,2.403-1.638,2.603c-0.184,0.069-0.386,0.069-0.57,0
			c-0.535-0.2-1.638-0.829-1.638-2.603c0-1.484,0.861-2.688,1.923-2.688S17.616,10.239,17.616,11.723z"/>
	</g>
	<g>
		<path class="st3" d="M17.559,11.498c0,0,0.139-0.458-0.232-0.856c-0.399-0.428-0.575-0.424-0.631-0.841
			c0,0-0.559,0.442-1.494,0.45c0,0,0.178-0.051,0.491-0.283c0,0-0.695-0.087-1.217,0.457s-0.706,1.045-0.706,1.045
			s-0.367-0.562-0.28-1.596c0.088-1.044,0.996-1.734,2.018-1.85c1.022-0.116,2.226,0.66,2.433,1.61
			C18.147,10.584,17.559,11.498,17.559,11.498z"/>
	</g>
</g>
</svg>
