<?xml version="1.0" encoding="utf-8"?>
<!-- Generator: Adobe Illustrator 21.1.0, SVG Export Plug-In . SVG Version: 6.00 Build 0)  -->
<svg version="1.1" id="Layer_1" xmlns="http://www.w3.org/2000/svg" xmlns:xlink="http://www.w3.org/1999/xlink" x="0px" y="0px"
	 viewBox="0 0 32 32" style="enable-background:new 0 0 32 32;" xml:space="preserve">
<style type="text/css">
	.st0{fill:#45CBEA;}
	.st1{fill:#FFD93B;}
	.st2{fill:#F4C534;}
	.st3{fill:#3E4347;}
	.st4{opacity:0.2;}
	.st5{fill:#DE9C25;}
	.st6{fill:#FFFFFF;}
	.st7{fill:#E24B4B;}
	.st8{fill:#8CC63E;}
	.st9{fill:#D03F3F;}
	.st10{fill:#846144;}
	.st11{fill:#5A5F63;}
	.st12{fill:#777B7E;}
	.st13{fill:#FFDC97;}
	.st14{fill:#FFE9AB;}
	.st15{fill:#93979A;}
	.st16{fill:#FFD68D;}
	.st17{fill:#728389;}
	.st18{fill:#DAE5EF;}
	.st19{fill:#65B1EF;}
	.st20{fill:#F2F7F9;}
	.st21{fill:#8D9BA3;}
	.st22{opacity:0.2;fill:#F2F7F9;}
	.st23{fill:#E9EFF4;}
	.st24{fill:#FC97B2;}
	.st25{fill:#E84D88;}
	.st26{fill:#A5856D;}
	.st27{fill:#E9B02C;}
	.st28{fill:#7FB239;}
	.st29{fill:#CBD6E0;}
	.st30{fill:#ACB9C1;}
	.st31{fill:#8F6D52;}
	.st32{opacity:0.2;fill:#FFFFFF;}
	.st33{fill:#9A795F;}
	.st34{fill:#BBC7D1;}
	.st35{fill:#E18823;}
	.st36{fill:#F29A2E;}
	.st37{fill:#89664C;}
	.st38{fill:#D3D9DD;}
	.st39{fill:#DEE4E9;}
	.st40{fill:#AD2727;}
	.st41{fill:#719D34;}
	.st42{fill:#353A3D;}
	.st43{opacity:0.25;}
	.st44{opacity:0.2;fill:#3E4347;}
	.st45{fill:#373C3F;}
	.st46{opacity:0.1;}
	.st47{opacity:0.06;}
	.st48{fill:#7A5B44;}
	.st49{fill:#6B503B;}
	.st50{fill:#31373A;}
	.st51{fill:#59A5E0;}
	.st52{fill:#363B3F;}
	.st53{fill:#BF3333;}
	.st54{opacity:0.3;}
	.st55{fill:#4E99D2;}
	.st56{opacity:0.15;}
	.st57{opacity:0.1;fill:#3E4347;}
	.st58{fill:#64892F;}
	.st59{opacity:0.08;fill:#FFFFFF;}
	.st60{opacity:0.1;fill:#FFFFFF;}
</style>
<g>
	<g>
		<path class="st1" d="M12.011,20.642c0,0-1.416,0.058-2.358,0.04c-0.942-0.017-1.104,0.26-1.127,0.399s0.405,1.977,0.162,2.774
			C8.445,24.653,8.312,25.133,8.3,26.11s0.249,1.428,0.225,1.867c-0.023,0.439-0.243,0.613-0.59,0.618
			c-0.347,0.006-1.63-0.243-2.659,0c0,0-0.315,0.087-0.63,0c0,0-0.959,0.286-0.954-0.471l0.488-0.066c0,0,0.142-0.092,0.312-0.153
			c0.171-0.061,1.084-0.251,1.592-0.587s0.691-0.881,0.711-1.22s-0.012-1.156-0.185-2.82C6.439,21.613,6.277,20.7,6.37,20.064
			c0.092-0.636,0.254-1,0.919-1.364s2.439-1.058,2.439-1.058S11.849,19.995,12.011,20.642z"/>
	</g>
	<g>
		<path class="st1" d="M21.975,20.359c0,0,0.511,0.997,1.413,1.543c0.902,0.546,2.037,1.153,2.956,2.375
			c0.919,1.222,1.17,1.786,1.578,2.089c0.407,0.303,0.694,0.711,0.694,0.711s0.451,0.329,0.65,0.737
			c0.199,0.407,0.156,1.153,0.156,1.153s0.009,0.195-0.117,0.234c0,0-0.026,0.139-0.208,0.156c0,0,0.087,0.156-0.221,0.165
			c0,0-0.225,0.221-0.399,0.052c-0.173-0.169-0.303-0.59-0.303-0.59s0.139,0.494-0.082,0.59c-0.221,0.095-0.572-0.017-0.525-0.342
			s0.13-0.906,0.108-1.183c-0.022-0.277-0.442-0.269-0.433-0.897c0,0-0.373-0.516-1.417-1.153c-1.045-0.637-1.725-1.261-2.198-1.712
			c-0.472-0.451-1.092-0.542-1.951-1.084c-0.858-0.542-1.894-1.248-2.176-1.617C19.218,21.217,21.975,20.359,21.975,20.359z"/>
	</g>
	<g>
		<g>
			<path class="st3" d="M19.027,16.099c0,0,0.347-0.012,0.405,0.243s0.069,0.867,0.416,1.006c0.347,0.139,2.347,3.144,2.347,3.144
				s-0.185,0.439-0.879,0.89c-0.694,0.451-2.474,0.52-2.474,0.52s-1.11-1.745-3.005-1.907c0,0-0.289-0.012-0.497-0.116
				c-0.208-0.104-3.248,0.994-3.56,1.087c0,0-0.012-0.509-0.52-1.144c-0.509-0.636-1.745-2.173-1.745-2.173s0.798-0.324,1.526-0.462
				c0.728-0.139,1.769-0.358,1.988-0.624c0.22-0.266,0.266-0.318,0.266-0.318L19.027,16.099z"/>
		</g>
		<g>
			<path class="st1" d="M20.102,9.094c0,0,0.301,0.104,0.959-0.081c0.659-0.185,2.289-0.809,2.289-0.809s1.352-0.035,1.653-0.243
				c0,0,1.173-0.231,2.329-0.728c1.156-0.497,1.416-0.468,1.572-0.347c0.156,0.121,0.67,0.15,0.838,0.029
				c0.168-0.121,0.393-0.243,0.393-0.243s0.549,0.087,0.665,0c0.116-0.087,0.058-0.173,0.058-0.173s0.835-0.064,0.994-0.124
				C32.011,6.314,32,6.164,32,6.164l-1.087-0.052c0,0-0.379-0.052-0.702-0.058s-1.404-0.052-1.731-0.078
				c-0.327-0.026-0.367,0.02-0.598,0.064c-0.231,0.043-1.491,0.176-2.838,0.217c-1.347,0.04-1.549,0.329-1.549,0.329
				s-0.538,0.075-1.202,0.312S20.86,7.06,20.86,7.06L20.102,9.094z"/>
		</g>
		<g>
			<path class="st1" d="M11.898,9.094c0,0-0.301,0.104-0.959-0.081c-0.659-0.185-2.289-0.809-2.289-0.809S7.297,8.17,6.996,7.962
				c0,0-1.173-0.231-2.329-0.728S3.251,6.765,3.095,6.886c-0.156,0.121-0.67,0.15-0.838,0.029C2.09,6.794,1.864,6.673,1.864,6.673
				s-0.549,0.087-0.665,0C1.084,6.586,1.142,6.499,1.142,6.499S0.307,6.436,0.148,6.375C-0.011,6.314,0,6.164,0,6.164l1.087-0.052
				c0,0,0.379-0.052,0.702-0.058S3.193,6.002,3.52,5.976C3.847,5.95,3.887,5.996,4.118,6.04c0.231,0.043,1.491,0.176,2.838,0.217
				s1.549,0.329,1.549,0.329s0.538,0.075,1.202,0.312S11.14,7.06,11.14,7.06L11.898,9.094z"/>
		</g>
		<g>
			<g>
				<path class="st1" d="M14.615,2.591L13.93,3.163c0,0-0.243,0.23-0.338,0.646c-0.095,0.416-0.091,0.798-0.091,0.798
					s0.113,0.176,0.089,0.325c-0.024,0.15-0.243,0.429-0.225,0.62c0.017,0.191,0.204,0.212,0.262,0.195
					c0.059-0.017,0.007,0.156-0.02,0.254s0.004,0.171,0.098,0.16c0,0-0.08,0.017-0.007,0.206c0,0,0.132,0.022,0.117,0.284
					c-0.015,0.262,0.099,0.386,0.174,0.418c0.075,0.033,0.535,0.182,0.773,0.056v1.079h2.332l0.165-1.118
					c0,0-0.321-0.321-0.338-0.85c-0.017-0.529-0.216-2.011-0.485-2.462C16.166,3.323,15.369,2.647,14.615,2.591z"/>
			</g>
			<g>
				<path class="st3" d="M13.93,3.163c0,0,0.221-0.082,0.624-0.143c0.403-0.061,0.542,0.004,0.394,0.243
					c-0.147,0.238-0.243,0.603-0.009,0.759c0.234,0.156,0.412,0.312,0.412,0.746s0,0.433,0,0.433h0.299c0,0-0.048-0.251,0.121-0.564
					s0.327-0.277,0.389-0.259c0.107,0.032,0.309,0.141,0.321,0.696c0.011,0.527,0.435,1.205,0.435,1.205s0.069-0.824,0.264-1.378
					c0.195-0.555,0.295-1.383-0.442-2.029C16.002,2.227,14.498,2.062,13.93,3.163z"/>
			</g>
			<g>
				
					<ellipse transform="matrix(0.2385 -0.9711 0.9711 0.2385 7.3947 19.2713)" class="st1" cx="15.986" cy="4.92" rx="0.574" ry="0.406"/>
			</g>
			<path class="st2" d="M15.85,5.729c-0.108,0.746-1.088,1.396-1.088,1.396v0.447C16.074,6.745,15.85,5.729,15.85,5.729z"/>
		</g>
		<g>
			<path class="st7" d="M20.891,7.857c-0.087,0.581-0.433,1.387-0.433,1.387s-0.572-0.113-0.806,0.39
				c-0.234,0.503-0.416,1.084-0.624,2.696c-0.208,1.613,0,3.768,0,3.768c-0.485,0.428-2.601,0.798-3.803,0.751
				c-1.202-0.046-1.93-0.607-1.93-0.607s0-2.075-0.208-3.439c-0.208-1.364-0.63-2.774-0.89-3.22
				c-0.26-0.445-0.925-0.347-0.925-0.347s0,0,0.029-0.254c0.029-0.254-0.201-1.951-0.201-1.951c1.183-0.403,2.237,0.1,2.624,0.048
				c0.078-0.01,0.167-0.015,0.26-0.016c0.002,0.001,0.004,0.002,0.006,0.003c0.076,0.033,0.535,0.182,0.773,0.057
				c0,0,0.329,0.351,1.102,0.351c0.773,0,1.219-0.639,1.219-0.639s0.288,0.206,0.6,0.249c0.312,0.043,0.425,0.225,0.425,0.225
				s0,0,0.503-0.156c0.503-0.156,2.28-0.147,2.28-0.147S20.978,7.277,20.891,7.857z"/>
		</g>
	</g>
</g>
</svg>
