<?xml version="1.0" encoding="utf-8"?>
<!-- Generator: Adobe Illustrator 21.1.0, SVG Export Plug-In . SVG Version: 6.00 Build 0)  -->
<svg version="1.1" id="Layer_1" xmlns="http://www.w3.org/2000/svg" xmlns:xlink="http://www.w3.org/1999/xlink" x="0px" y="0px"
	 viewBox="0 0 32 32" style="enable-background:new 0 0 32 32;" xml:space="preserve">
<style type="text/css">
	.st0{fill:#45CBEA;}
	.st1{fill:#FFD93B;}
	.st2{fill:#F4C534;}
	.st3{fill:#3E4347;}
	.st4{opacity:0.2;}
	.st5{fill:#DE9C25;}
	.st6{fill:#FFFFFF;}
	.st7{fill:#E24B4B;}
	.st8{fill:#8CC63E;}
	.st9{fill:#D03F3F;}
	.st10{fill:#846144;}
	.st11{fill:#5A5F63;}
	.st12{fill:#777B7E;}
	.st13{fill:#FFDC97;}
	.st14{fill:#FFE9AB;}
	.st15{fill:#93979A;}
	.st16{fill:#FFD68D;}
	.st17{fill:#728389;}
	.st18{fill:#DAE5EF;}
	.st19{fill:#65B1EF;}
	.st20{fill:#F2F7F9;}
	.st21{fill:#8D9BA3;}
	.st22{opacity:0.2;fill:#F2F7F9;}
	.st23{fill:#E9EFF4;}
	.st24{fill:#FC97B2;}
	.st25{fill:#E84D88;}
	.st26{fill:#A5856D;}
	.st27{fill:#E9B02C;}
	.st28{fill:#7FB239;}
	.st29{fill:#CBD6E0;}
	.st30{fill:#ACB9C1;}
	.st31{fill:#8F6D52;}
	.st32{opacity:0.2;fill:#FFFFFF;}
	.st33{fill:#9A795F;}
	.st34{fill:#BBC7D1;}
	.st35{fill:#E18823;}
	.st36{fill:#F29A2E;}
	.st37{fill:#89664C;}
	.st38{fill:#D3D9DD;}
	.st39{fill:#DEE4E9;}
	.st40{fill:#AD2727;}
	.st41{fill:#719D34;}
	.st42{fill:#353A3D;}
	.st43{opacity:0.25;}
	.st44{opacity:0.2;fill:#3E4347;}
	.st45{fill:#373C3F;}
	.st46{opacity:0.1;}
	.st47{opacity:0.06;}
	.st48{fill:#7A5B44;}
	.st49{fill:#6B503B;}
	.st50{fill:#31373A;}
	.st51{fill:#59A5E0;}
	.st52{fill:#363B3F;}
	.st53{fill:#BF3333;}
	.st54{opacity:0.3;}
	.st55{fill:#4E99D2;}
	.st56{opacity:0.15;}
	.st57{opacity:0.1;fill:#3E4347;}
	.st58{fill:#64892F;}
	.st59{opacity:0.08;fill:#FFFFFF;}
	.st60{opacity:0.1;fill:#FFFFFF;}
</style>
<g>
	<g>
		<path class="st1" d="M11.177,23.761c0.366,1.316-0.173,2.427-1.095,3.003c-0.966,0.596-3.043,0.684-3.216,2.137
			c0.024-0.942,0.386-1.868,0.994-2.588c-3.083,3.083-4.704,1.487-6.585,3.148c0.129-0.845,0.616-1.63,1.312-2.133
			c0.362-0.258,0.825-0.527,0.837-0.966c-0.611-0.035-1.153,0.23-1.663,0.672C5.356,18.175,10.452,21.113,11.177,23.761z"/>
	</g>
	<g>
		<g>
			<g>
				<g>
					<path class="st7" d="M21.634,17.166l-5.966,5.966c0.58,0.372,1.138,0.807,1.652,1.322c2.155,2.155,3.071,5.019,2.678,7.546
						C24.807,27.931,25.011,21.432,21.634,17.166z"/>
				</g>
				<g>
					<path class="st7" d="M14.832,10.364l-5.966,5.966c-0.372-0.58-0.807-1.138-1.322-1.652c-2.155-2.155-5.019-3.071-7.546-2.678
						C4.068,7.191,10.567,6.988,14.832,10.364z"/>
				</g>
			</g>
			<g>
				<path class="st23" d="M16.857,25.258l10.079-10.079c3.847-3.847,5.732-9.375,4.854-14.963
					C26.305-0.657,20.735,1.147,16.812,5.07L6.74,15.142L16.857,25.258z"/>
			</g>
			<g>
				<path class="st6" d="M25.831,14.079L15.758,24.153l-0.766-0.766l10.074-10.073c3.852-3.852,6.401-8.706,6.723-13.095
					C31.96,5.101,29.683,10.227,25.831,14.079z"/>
			</g>
			<g>
				<path class="st7" d="M29.626,11.688c-1.911-4.303-5.012-7.403-9.314-9.314c3.429-1.998,7.474-2.792,11.477-2.155
					C32.425,4.278,31.602,8.309,29.626,11.688z"/>
			</g>
			<g>
				<polygon class="st3" points="16.344,26.756 16.857,25.258 6.74,15.142 5.242,15.654 				"/>
			</g>
			<g>
				
					<ellipse transform="matrix(0.7071 -0.7071 0.7071 0.7071 -3.8575 17.1442)" class="st3" cx="18.766" cy="13.229" rx="4.516" ry="4.511"/>
			</g>
			<g>
				
					<ellipse transform="matrix(0.7071 -0.7071 0.7071 0.7071 -3.8578 17.145)" class="st19" cx="18.767" cy="13.229" rx="3.107" ry="3.102"/>
			</g>
			<g>
				<path class="st51" d="M20.963,15.425c-1.217,1.217-3.179,1.217-4.396,0c-0.838-0.838-1.095-2.026-0.773-3.078
					c0.143,0.301,0.351,0.58,0.601,0.83c1.31,1.31,3.429,1.31,4.739,0c0.258-0.258,0.458-0.544,0.616-0.845
					C22.058,13.399,21.801,14.588,20.963,15.425z"/>
			</g>
		</g>
		<g class="st56">
			<path class="st6" d="M31.788,0.219c-0.218,2.968-1.472,6.144-3.442,9.084c0.184,0.297,0.373,0.589,0.543,0.9
				C30.83,7.091,31.907,3.601,31.788,0.219z"/>
		</g>
	</g>
</g>
</svg>
