<?xml version="1.0" encoding="utf-8"?>
<!-- Generator: Adobe Illustrator 21.1.0, SVG Export Plug-In . SVG Version: 6.00 Build 0)  -->
<svg version="1.1" id="Layer_1" xmlns="http://www.w3.org/2000/svg" xmlns:xlink="http://www.w3.org/1999/xlink" x="0px" y="0px"
	 viewBox="0 0 32 32" style="enable-background:new 0 0 32 32;" xml:space="preserve">
<style type="text/css">
	.st0{fill:#45CBEA;}
	.st1{fill:#FFD93B;}
	.st2{fill:#F4C534;}
	.st3{fill:#3E4347;}
	.st4{opacity:0.2;}
	.st5{fill:#DE9C25;}
	.st6{fill:#FFFFFF;}
	.st7{fill:#E24B4B;}
	.st8{fill:#8CC63E;}
	.st9{fill:#D03F3F;}
	.st10{fill:#846144;}
	.st11{fill:#5A5F63;}
	.st12{fill:#777B7E;}
	.st13{fill:#FFDC97;}
	.st14{fill:#FFE9AB;}
	.st15{fill:#93979A;}
	.st16{fill:#FFD68D;}
	.st17{fill:#728389;}
	.st18{fill:#DAE5EF;}
	.st19{fill:#65B1EF;}
	.st20{fill:#F2F7F9;}
	.st21{fill:#8D9BA3;}
	.st22{opacity:0.2;fill:#F2F7F9;}
	.st23{fill:#E9EFF4;}
	.st24{fill:#FC97B2;}
	.st25{fill:#E84D88;}
	.st26{fill:#A5856D;}
	.st27{fill:#E9B02C;}
	.st28{fill:#7FB239;}
	.st29{fill:#CBD6E0;}
	.st30{fill:#ACB9C1;}
	.st31{fill:#8F6D52;}
	.st32{opacity:0.2;fill:#FFFFFF;}
	.st33{fill:#9A795F;}
	.st34{fill:#BBC7D1;}
	.st35{fill:#E18823;}
	.st36{fill:#F29A2E;}
	.st37{fill:#89664C;}
	.st38{fill:#D3D9DD;}
	.st39{fill:#DEE4E9;}
	.st40{fill:#AD2727;}
	.st41{fill:#719D34;}
	.st42{fill:#353A3D;}
	.st43{opacity:0.25;}
	.st44{opacity:0.2;fill:#3E4347;}
	.st45{fill:#373C3F;}
	.st46{opacity:0.1;}
	.st47{opacity:0.06;}
	.st48{fill:#7A5B44;}
	.st49{fill:#6B503B;}
	.st50{fill:#31373A;}
	.st51{fill:#59A5E0;}
	.st52{fill:#363B3F;}
	.st53{fill:#BF3333;}
	.st54{opacity:0.3;}
	.st55{fill:#4E99D2;}
	.st56{opacity:0.15;}
	.st57{opacity:0.1;fill:#3E4347;}
	.st58{fill:#64892F;}
	.st59{opacity:0.08;fill:#FFFFFF;}
	.st60{opacity:0.1;fill:#FFFFFF;}
</style>
<g>
	<g>
		<g>
			<g>
				<path class="st9" d="M2.719,31.265c7.065-7.003,7.595-6.634,15.258-12.974c1.041-0.85,2.03-1.752,2.975-2.697L31.793,4.753
					c1.225-1.225-3.337-5.787-4.562-4.562L16.416,11.006c-0.971,0.971-1.899,1.986-2.767,3.044
					c-6.302,7.668-5.933,8.178-12.915,15.23L2.719,31.265z"/>
			</g>
		</g>
		<g>
			<g>
				<path class="st3" d="M5.614,24.097c-1.185,1.36-2.659,2.94-4.88,5.183l1.985,1.985c2.238-2.219,3.82-3.696,5.181-4.882
					L5.614,24.097z"/>
			</g>
		</g>
		<g>
			<g>
				<path class="st1" d="M12.824,15.062l4.096,4.096c0.341-0.278,0.683-0.558,1.056-0.867c1.041-0.85,2.03-1.752,2.975-2.697
					L31.793,4.753c1.225-1.225-3.337-5.787-4.562-4.562L16.416,11.006c-0.971,0.971-1.9,1.986-2.767,3.044
					C13.356,14.407,13.09,14.734,12.824,15.062z"/>
			</g>
		</g>
		<g>
			<g>
				<path class="st2" d="M12.824,15.062l4.096,4.096c0.341-0.278,0.683-0.558,1.056-0.867c1.041-0.85,2.03-1.752,2.975-2.697
					L31.793,4.753c1.225-1.225-3.337-5.787-4.562-4.562L16.416,11.006c-0.971,0.971-1.9,1.986-2.767,3.044
					C13.356,14.407,13.09,14.734,12.824,15.062z"/>
			</g>
		</g>
		<path class="st57" d="M17.977,18.291c1.041-0.85,2.03-1.752,2.975-2.697L31.793,4.753c0,0-10.664,10.539-31.059,24.528
			l1.985,1.985C9.784,24.262,10.313,24.631,17.977,18.291z"/>
		<path class="st45" d="M6.643,25.126c-1.877,1.348-3.829,2.727-5.909,4.154l1.985,1.984c0.022-0.022,0.04-0.038,0.061-0.06
			c1.582-1.567,3.439-3.357,5.118-4.821c0,0,0.001-0.001,0.002-0.001L6.643,25.126z"/>
		<g>
			<path class="st11" d="M0.069,29.058l0.11-0.11c0.135-0.135,0.353-0.135,0.488,0l2.369,2.369c0.135,0.135,0.135,0.353,0,0.488
				l-0.11,0.11c-0.135,0.135-0.353,0.135-0.488,0l-2.369-2.369C-0.066,29.411-0.066,29.193,0.069,29.058z"/>
		</g>
	</g>
	<g>
		<g>
			<g>
				<path class="st7" d="M29.281,31.265c-7.065-7.003-7.595-6.634-15.258-12.974c-1.041-0.85-2.03-1.752-2.975-2.697L0.207,4.753
					c-1.225-1.225,3.337-5.787,4.562-4.562l10.815,10.815c0.971,0.971,1.899,1.986,2.767,3.044
					c6.302,7.668,5.933,8.178,12.915,15.23L29.281,31.265z"/>
			</g>
		</g>
		<g>
			<g>
				<path class="st3" d="M26.386,24.097c1.185,1.36,2.659,2.94,4.88,5.183l-1.985,1.985c-2.238-2.219-3.82-3.696-5.181-4.882
					L26.386,24.097z"/>
			</g>
		</g>
		<g>
			<g>
				<path class="st1" d="M19.176,15.062l-4.096,4.096c-0.341-0.278-0.683-0.558-1.056-0.867c-1.041-0.85-2.03-1.752-2.975-2.697
					L0.207,4.753c-1.225-1.225,3.337-5.787,4.562-4.562l10.815,10.815c0.971,0.971,1.9,1.986,2.767,3.044
					C18.644,14.407,18.91,14.734,19.176,15.062z"/>
			</g>
		</g>
		<g>
			<g>
				<path class="st1" d="M19.176,15.062l-4.096,4.096c-0.341-0.278-0.683-0.558-1.056-0.867c-1.041-0.85-2.03-1.752-2.975-2.697
					L0.207,4.753c-1.225-1.225,3.337-5.787,4.562-4.562l10.815,10.815c0.971,0.971,1.9,1.986,2.767,3.044
					C18.644,14.407,18.91,14.734,19.176,15.062z"/>
			</g>
		</g>
		<path class="st57" d="M14.023,18.291c-1.041-0.85-2.03-1.752-2.975-2.697L0.207,4.753c0,0,10.664,10.539,31.059,24.528
			l-1.985,1.985C22.216,24.262,21.687,24.631,14.023,18.291z"/>
		<path class="st45" d="M25.357,25.126c1.877,1.348,3.829,2.727,5.909,4.154l-1.985,1.984c-0.022-0.022-0.04-0.038-0.061-0.06
			c-1.582-1.567-3.439-3.357-5.118-4.821c0,0-0.001-0.001-0.002-0.001L25.357,25.126z"/>
		<g>
			<path class="st11" d="M31.931,29.058l-0.11-0.11c-0.135-0.135-0.353-0.135-0.488,0l-2.369,2.369
				c-0.135,0.135-0.135,0.353,0,0.488l0.11,0.11c0.135,0.135,0.353,0.135,0.488,0l2.369-2.369
				C32.066,29.411,32.066,29.193,31.931,29.058z"/>
		</g>
	</g>
</g>
</svg>
