<?xml version="1.0" encoding="utf-8"?>
<!-- Generator: Adobe Illustrator 21.1.0, SVG Export Plug-In . SVG Version: 6.00 Build 0)  -->
<svg version="1.1" id="Layer_1" xmlns="http://www.w3.org/2000/svg" xmlns:xlink="http://www.w3.org/1999/xlink" x="0px" y="0px"
	 viewBox="0 0 32 32" style="enable-background:new 0 0 32 32;" xml:space="preserve">
<style type="text/css">
	.st0{fill:#45CBEA;}
	.st1{fill:#FFD93B;}
	.st2{fill:#F4C534;}
	.st3{fill:#3E4347;}
	.st4{opacity:0.2;}
	.st5{fill:#DE9C25;}
	.st6{fill:#FFFFFF;}
	.st7{fill:#E24B4B;}
	.st8{fill:#8CC63E;}
	.st9{fill:#D03F3F;}
	.st10{fill:#846144;}
	.st11{fill:#5A5F63;}
	.st12{fill:#777B7E;}
	.st13{fill:#FFDC97;}
	.st14{fill:#FFE9AB;}
	.st15{fill:#93979A;}
	.st16{fill:#FFD68D;}
	.st17{fill:#728389;}
	.st18{fill:#DAE5EF;}
	.st19{fill:#65B1EF;}
	.st20{fill:#F2F7F9;}
	.st21{fill:#8D9BA3;}
	.st22{opacity:0.2;fill:#F2F7F9;}
	.st23{fill:#E9EFF4;}
	.st24{fill:#FC97B2;}
	.st25{fill:#E84D88;}
	.st26{fill:#A5856D;}
	.st27{fill:#E9B02C;}
	.st28{fill:#7FB239;}
	.st29{fill:#CBD6E0;}
	.st30{fill:#ACB9C1;}
	.st31{fill:#8F6D52;}
	.st32{opacity:0.2;fill:#FFFFFF;}
	.st33{fill:#9A795F;}
	.st34{fill:#BBC7D1;}
	.st35{fill:#E18823;}
	.st36{fill:#F29A2E;}
	.st37{fill:#89664C;}
	.st38{fill:#D3D9DD;}
	.st39{fill:#DEE4E9;}
	.st40{fill:#AD2727;}
	.st41{fill:#719D34;}
	.st42{fill:#353A3D;}
	.st43{opacity:0.25;}
	.st44{opacity:0.2;fill:#3E4347;}
	.st45{fill:#373C3F;}
	.st46{opacity:0.1;}
	.st47{opacity:0.06;}
	.st48{fill:#7A5B44;}
	.st49{fill:#6B503B;}
	.st50{fill:#31373A;}
	.st51{fill:#59A5E0;}
	.st52{fill:#363B3F;}
	.st53{fill:#BF3333;}
	.st54{opacity:0.3;}
	.st55{fill:#4E99D2;}
	.st56{opacity:0.15;}
	.st57{opacity:0.1;fill:#3E4347;}
	.st58{fill:#64892F;}
	.st59{opacity:0.08;fill:#FFFFFF;}
	.st60{opacity:0.1;fill:#FFFFFF;}
</style>
<g>
	<g>
		<g>
			<path class="st23" d="M22.828,19.783c0.145,0.616,0.459,1.181,0.909,1.632l1.457,1.457l-2.129,2.129l-1.457-1.457
				c-0.45-0.45-1.016-0.764-1.632-0.909C20.862,21.54,21.806,20.577,22.828,19.783z"/>
		</g>
		<g>
			<g>
				<path class="st39" d="M19.977,22.634l2.851-2.851c-0.615-0.145-1.181-0.459-1.631-0.909L6.198,3.875
					C4.495,2.171,2.448,0.85,0.194,0l0.001,0.002C1.046,2.254,2.366,4.3,4.069,6.002l15,15
					C19.518,21.452,19.832,22.018,19.977,22.634z"/>
			</g>
		</g>
		<g>
			<g>
				<path class="st38" d="M0.194,0l21.208,21.208l1.426-1.426c-0.615-0.145-1.181-0.459-1.631-0.909L6.198,3.875
					C4.495,2.171,2.448,0.85,0.194,0z"/>
			</g>
		</g>
		<g>
			<g>
				<polygon class="st3" points="25.421,23.525 31.45,29.553 30.04,31.548 23.719,25.227 				"/>
			</g>
			<g>
				<path class="st11" d="M21.157,26.149c1.55,0.674,2.729-0.139,3.888-1.298c1.16-1.16,1.975-2.341,1.296-3.894
					c-0.064-0.146-0.264-0.166-0.359-0.039c-1.382,1.864-3.005,3.487-4.869,4.869C20.982,25.885,21.008,26.085,21.157,26.149z"/>
			</g>
			<g>
				<path class="st11" d="M30.594,31.811l1.168-2.156c0.076-0.14,0.051-0.314-0.062-0.427l0,0c-0.171-0.171-0.457-0.129-0.572,0.083
					l-1.168,2.156c-0.076,0.14-0.051,0.314,0.062,0.427h0C30.193,32.065,30.479,32.023,30.594,31.811z"/>
			</g>
		</g>
	</g>
	<g>
		<g>
			<path class="st23" d="M9.172,19.783c-0.145,0.616-0.459,1.181-0.909,1.632l-1.457,1.457l2.129,2.129l1.457-1.457
				c0.45-0.45,1.016-0.764,1.632-0.909C11.138,21.54,10.194,20.577,9.172,19.783z"/>
		</g>
		<g>
			<g>
				<path class="st29" d="M12.023,22.634l-2.851-2.851c0.615-0.145,1.181-0.459,1.631-0.909L25.802,3.875
					C27.505,2.171,29.552,0.85,31.806,0l-0.001,0.002c-0.851,2.253-2.171,4.298-3.874,6.001l-15,15
					C12.482,21.452,12.168,22.018,12.023,22.634z"/>
			</g>
		</g>
		<g>
			<g>
				<path class="st18" d="M31.806,0L10.597,21.208l-1.426-1.426c0.615-0.145,1.181-0.459,1.631-0.909L25.802,3.875
					C27.505,2.171,29.552,0.85,31.806,0z"/>
			</g>
		</g>
		<g>
			<g>
				<polygon class="st3" points="6.579,23.525 0.55,29.553 1.96,31.548 8.281,25.227 				"/>
			</g>
			<g>
				<path class="st11" d="M10.843,26.149c-1.55,0.674-2.729-0.139-3.888-1.298c-1.16-1.16-1.975-2.341-1.296-3.894
					c0.064-0.146,0.264-0.166,0.359-0.039c1.382,1.864,3.005,3.487,4.869,4.869C11.018,25.885,10.992,26.085,10.843,26.149z"/>
			</g>
			<g>
				<path class="st11" d="M1.406,31.811l-1.168-2.156c-0.076-0.14-0.051-0.314,0.062-0.427h0c0.171-0.171,0.457-0.129,0.572,0.083
					l1.168,2.156c0.076,0.14,0.051,0.314-0.062,0.427h0C1.807,32.065,1.521,32.023,1.406,31.811z"/>
			</g>
		</g>
	</g>
</g>
</svg>
