<?xml version="1.0" encoding="utf-8"?>
<!-- Generator: Adobe Illustrator 21.1.0, SVG Export Plug-In . SVG Version: 6.00 Build 0)  -->
<svg version="1.1" id="Layer_1" xmlns="http://www.w3.org/2000/svg" xmlns:xlink="http://www.w3.org/1999/xlink" x="0px" y="0px"
	 viewBox="0 0 32 32" style="enable-background:new 0 0 32 32;" xml:space="preserve">
<style type="text/css">
	.st0{fill:#45CBEA;}
	.st1{fill:#FFD93B;}
	.st2{fill:#F4C534;}
	.st3{fill:#3E4347;}
	.st4{opacity:0.2;}
	.st5{fill:#DE9C25;}
	.st6{fill:#FFFFFF;}
	.st7{fill:#E24B4B;}
	.st8{fill:#8CC63E;}
	.st9{fill:#D03F3F;}
	.st10{fill:#846144;}
	.st11{fill:#5A5F63;}
	.st12{fill:#777B7E;}
	.st13{fill:#FFDC97;}
	.st14{fill:#FFE9AB;}
	.st15{fill:#93979A;}
	.st16{fill:#FFD68D;}
	.st17{fill:#728389;}
	.st18{fill:#DAE5EF;}
	.st19{fill:#65B1EF;}
	.st20{fill:#F2F7F9;}
	.st21{fill:#8D9BA3;}
	.st22{opacity:0.2;fill:#F2F7F9;}
	.st23{fill:#E9EFF4;}
	.st24{fill:#FC97B2;}
	.st25{fill:#E84D88;}
	.st26{fill:#A5856D;}
	.st27{fill:#E9B02C;}
	.st28{fill:#7FB239;}
	.st29{fill:#CBD6E0;}
	.st30{fill:#ACB9C1;}
	.st31{fill:#8F6D52;}
	.st32{opacity:0.2;fill:#FFFFFF;}
	.st33{fill:#9A795F;}
	.st34{fill:#BBC7D1;}
	.st35{fill:#E18823;}
	.st36{fill:#F29A2E;}
	.st37{fill:#89664C;}
	.st38{fill:#D3D9DD;}
	.st39{fill:#DEE4E9;}
	.st40{fill:#AD2727;}
	.st41{fill:#719D34;}
	.st42{fill:#353A3D;}
	.st43{opacity:0.25;}
	.st44{opacity:0.2;fill:#3E4347;}
	.st45{fill:#373C3F;}
	.st46{opacity:0.1;}
	.st47{opacity:0.06;}
	.st48{fill:#7A5B44;}
	.st49{fill:#6B503B;}
	.st50{fill:#31373A;}
	.st51{fill:#59A5E0;}
	.st52{fill:#363B3F;}
	.st53{fill:#BF3333;}
	.st54{opacity:0.3;}
	.st55{fill:#4E99D2;}
	.st56{opacity:0.15;}
	.st57{opacity:0.1;fill:#3E4347;}
	.st58{fill:#64892F;}
	.st59{opacity:0.08;fill:#FFFFFF;}
	.st60{opacity:0.1;fill:#FFFFFF;}
</style>
<g>
	<g>
		<g>
			<g>
				<path class="st39" d="M20.432,19.714c-0.465-2.472-0.201-5.008,0.497-7.427c0.771-2.694,0.042-5.821-1.722-7.575
					c-0.657-0.657-1.06-1.513-1.246-2.424h-3.924c-0.188,0.906-0.588,1.759-1.243,2.413c-1.764,1.754-2.493,4.881-1.722,7.575
					c0.697,2.43,0.961,4.965,0.497,7.448c-0.539,2.8-0.803,5.652-0.803,8.515v2.493c0,0.697,0.571,1.268,1.268,1.268h7.934
					c0.697,0,1.268-0.571,1.268-1.268v-2.493C21.235,25.376,20.971,22.524,20.432,19.714z"/>
			</g>
			<g>
				<path class="st19" d="M20.929,12.286c0.203-0.71,0.296-1.448,0.299-2.185c-4.41-1.783-7.297,1.557-10.456,0
					c0.004,0.733,0.098,1.469,0.3,2.175c0.697,2.43,0.961,4.965,0.497,7.448c-0.539,2.8-0.803,5.652-0.803,8.515v2.493
					c0,0.697,0.571,1.268,1.268,1.268h7.934c0.697,0,1.268-0.571,1.268-1.268v-2.493c0-2.863-0.264-5.715-0.803-8.525
					C19.967,17.241,20.231,14.706,20.929,12.286z"/>
			</g>
			<g>
				<path class="st7" d="M18.499,0.38v1.986c0,0.211-0.169,0.38-0.38,0.38h-4.236c-0.211,0-0.38-0.169-0.38-0.38V0.38
					c0-0.211,0.169-0.38,0.38-0.38h4.236C18.329,0,18.499,0.169,18.499,0.38z"/>
			</g>
			<path class="st39" d="M20.432,19.714c-0.318-1.692-0.295-3.414-0.024-5.108h-8.814c0.27,1.697,0.293,3.42-0.025,5.119
				c-0.28,1.456-0.486,2.927-0.619,4.406h10.101C20.917,22.649,20.712,21.176,20.432,19.714z"/>
			<g>
				<circle class="st6" cx="16" cy="19.728" r="2.926"/>
			</g>
			<g>
				<path class="st19" d="M17.077,20.337c0-0.595-1.077-2.296-1.077-2.296s-1.077,1.702-1.077,2.296s0.482,1.077,1.077,1.077
					C16.595,21.414,17.077,20.932,17.077,20.337z"/>
			</g>
		</g>
		<g>
			<g>
				<path class="st9" d="M14.714,0.824v1.109c0,0.127-0.105,0.232-0.243,0.232c-0.127,0-0.243-0.106-0.243-0.232V0.824
					c0-0.137,0.116-0.243,0.243-0.243C14.609,0.581,14.714,0.687,14.714,0.824z"/>
			</g>
			<g>
				<path class="st9" d="M15.734,0.824v1.109c0,0.127-0.105,0.232-0.243,0.232c-0.127,0-0.243-0.106-0.243-0.232V0.824
					c0-0.137,0.116-0.243,0.243-0.243C15.628,0.581,15.734,0.687,15.734,0.824z"/>
			</g>
			<g>
				<path class="st9" d="M16.753,0.824v1.109c0,0.127-0.105,0.232-0.243,0.232c-0.127,0-0.243-0.106-0.243-0.232V0.824
					c0-0.137,0.116-0.243,0.243-0.243C16.647,0.581,16.753,0.687,16.753,0.824z"/>
			</g>
			<g>
				<path class="st9" d="M17.772,0.824v1.109c0,0.127-0.105,0.232-0.243,0.232c-0.127,0-0.243-0.106-0.243-0.232V0.824
					c0-0.137,0.116-0.243,0.243-0.243C17.666,0.581,17.772,0.687,17.772,0.824z"/>
			</g>
		</g>
	</g>
</g>
</svg>
