<?xml version="1.0" encoding="utf-8"?>
<!-- Generator: Adobe Illustrator 21.1.0, SVG Export Plug-In . SVG Version: 6.00 Build 0)  -->
<svg version="1.1" id="Layer_1" xmlns="http://www.w3.org/2000/svg" xmlns:xlink="http://www.w3.org/1999/xlink" x="0px" y="0px"
	 viewBox="0 0 32 32" style="enable-background:new 0 0 32 32;" xml:space="preserve">
<style type="text/css">
	.st0{fill:#45CBEA;}
	.st1{fill:#FFD93B;}
	.st2{fill:#F4C534;}
	.st3{fill:#3E4347;}
	.st4{opacity:0.2;}
	.st5{fill:#DE9C25;}
	.st6{fill:#FFFFFF;}
	.st7{fill:#E24B4B;}
	.st8{fill:#8CC63E;}
	.st9{fill:#D03F3F;}
	.st10{fill:#846144;}
	.st11{fill:#5A5F63;}
	.st12{fill:#777B7E;}
	.st13{fill:#FFDC97;}
	.st14{fill:#FFE9AB;}
	.st15{fill:#93979A;}
	.st16{fill:#FFD68D;}
	.st17{fill:#728389;}
	.st18{fill:#DAE5EF;}
	.st19{fill:#65B1EF;}
	.st20{fill:#F2F7F9;}
	.st21{fill:#8D9BA3;}
	.st22{opacity:0.2;fill:#F2F7F9;}
	.st23{fill:#E9EFF4;}
	.st24{fill:#FC97B2;}
	.st25{fill:#E84D88;}
	.st26{fill:#A5856D;}
	.st27{fill:#E9B02C;}
	.st28{fill:#7FB239;}
	.st29{fill:#CBD6E0;}
	.st30{fill:#ACB9C1;}
	.st31{fill:#8F6D52;}
	.st32{opacity:0.2;fill:#FFFFFF;}
	.st33{fill:#9A795F;}
	.st34{fill:#BBC7D1;}
	.st35{fill:#E18823;}
	.st36{fill:#F29A2E;}
	.st37{fill:#89664C;}
	.st38{fill:#D3D9DD;}
	.st39{fill:#DEE4E9;}
	.st40{fill:#AD2727;}
	.st41{fill:#719D34;}
	.st42{fill:#353A3D;}
	.st43{opacity:0.25;}
	.st44{opacity:0.2;fill:#3E4347;}
	.st45{fill:#373C3F;}
	.st46{opacity:0.1;}
	.st47{opacity:0.06;}
	.st48{fill:#7A5B44;}
	.st49{fill:#6B503B;}
	.st50{fill:#31373A;}
	.st51{fill:#59A5E0;}
	.st52{fill:#363B3F;}
	.st53{fill:#BF3333;}
	.st54{opacity:0.3;}
	.st55{fill:#4E99D2;}
	.st56{opacity:0.15;}
	.st57{opacity:0.1;fill:#3E4347;}
	.st58{fill:#64892F;}
	.st59{opacity:0.08;fill:#FFFFFF;}
	.st60{opacity:0.1;fill:#FFFFFF;}
</style>
<g>
	<g>
		<g>
			<g>
				<g>
					<path class="st3" d="M19.074,30.823C18.185,31.551,16.872,32,15.47,32c-2.526,0-4.372-1.367-4.755-3.371L3.766,3.041
						l1.339-0.403l6.86,25.283c1.78-0.28,4.036-0.343,6.283-0.037C19.667,28.081,20.18,29.906,19.074,30.823z"/>
				</g>
			</g>
		</g>
		<g>
			<g>
				<path class="st7" d="M7.153,10.305l-1.448,0.392c-0.192,0.052-0.39-0.062-0.442-0.254L2.821,1.408
					C2.66,0.812,3.013,0.199,3.609,0.039l0,0c0.596-0.16,1.208,0.193,1.368,0.788l2.43,9.036
					C7.459,10.055,7.345,10.253,7.153,10.305z"/>
			</g>
		</g>
		<path class="st45" d="M19.074,30.823c0.151-0.125,0.266-0.269,0.358-0.422c-7.063,2.456-8.717-1.771-8.717-1.771
			C11.098,30.633,12.944,32,15.47,32C16.872,32,18.185,31.551,19.074,30.823z"/>
	</g>
	<g>
		<g>
			<g>
				<g>
					<circle class="st39" cx="26.412" cy="27.309" r="2.807"/>
				</g>
				<g>
					<path class="st38" d="M29.217,27.31c0,1.546-1.258,2.804-2.804,2.804c-0.965,0-1.819-0.49-2.324-1.233
						c0.45,0.303,0.99,0.48,1.571,0.48c1.546,0,2.804-1.258,2.804-2.804c0-0.586-0.177-1.122-0.48-1.571
						C28.727,25.492,29.217,26.345,29.217,27.31z"/>
				</g>
			</g>
			<g>
				<path class="st3" d="M24.128,29.107c0.127,0.156,0.264,0.304,0.422,0.435c0.721,0.601,1.101,1.518,1.133,2.458h1.456
					c0.041-0.985,0.518-1.884,1.25-2.559c0.106-0.101,0.205-0.217,0.297-0.334H24.128z"/>
			</g>
		</g>
		<g>
			<path class="st11" d="M28.892,28.979c0,0.099-0.085,0.184-0.184,0.184H24.1c-0.099,0-0.177-0.085-0.177-0.184
				c0-0.099,0.078-0.177,0.177-0.177h4.608C28.807,28.802,28.892,28.88,28.892,28.979z"/>
		</g>
	</g>
</g>
</svg>
