<?xml version="1.0" encoding="utf-8"?>
<!-- Generator: Adobe Illustrator 21.1.0, SVG Export Plug-In . SVG Version: 6.00 Build 0)  -->
<svg version="1.1" id="Layer_1" xmlns="http://www.w3.org/2000/svg" xmlns:xlink="http://www.w3.org/1999/xlink" x="0px" y="0px"
	 viewBox="0 0 32 32" style="enable-background:new 0 0 32 32;" xml:space="preserve">
<style type="text/css">
	.st0{fill:#45CBEA;}
	.st1{fill:#FFD93B;}
	.st2{fill:#F4C534;}
	.st3{fill:#3E4347;}
	.st4{opacity:0.2;}
	.st5{fill:#DE9C25;}
	.st6{fill:#FFFFFF;}
	.st7{fill:#E24B4B;}
	.st8{fill:#8CC63E;}
	.st9{fill:#D03F3F;}
	.st10{fill:#846144;}
	.st11{fill:#5A5F63;}
	.st12{fill:#777B7E;}
	.st13{fill:#FFDC97;}
	.st14{fill:#FFE9AB;}
	.st15{fill:#93979A;}
	.st16{fill:#FFD68D;}
	.st17{fill:#728389;}
	.st18{fill:#DAE5EF;}
	.st19{fill:#65B1EF;}
	.st20{fill:#F2F7F9;}
	.st21{fill:#8D9BA3;}
	.st22{opacity:0.2;fill:#F2F7F9;}
	.st23{fill:#E9EFF4;}
	.st24{fill:#FC97B2;}
	.st25{fill:#E84D88;}
	.st26{fill:#A5856D;}
	.st27{fill:#E9B02C;}
	.st28{fill:#7FB239;}
	.st29{fill:#CBD6E0;}
	.st30{fill:#ACB9C1;}
	.st31{fill:#8F6D52;}
	.st32{opacity:0.2;fill:#FFFFFF;}
	.st33{fill:#9A795F;}
	.st34{fill:#BBC7D1;}
	.st35{fill:#E18823;}
	.st36{fill:#F29A2E;}
	.st37{fill:#89664C;}
	.st38{fill:#D3D9DD;}
	.st39{fill:#DEE4E9;}
	.st40{fill:#AD2727;}
	.st41{fill:#719D34;}
	.st42{fill:#353A3D;}
	.st43{opacity:0.25;}
	.st44{opacity:0.2;fill:#3E4347;}
	.st45{fill:#373C3F;}
	.st46{opacity:0.1;}
	.st47{opacity:0.06;}
	.st48{fill:#7A5B44;}
	.st49{fill:#6B503B;}
	.st50{fill:#31373A;}
	.st51{fill:#59A5E0;}
	.st52{fill:#363B3F;}
	.st53{fill:#BF3333;}
	.st54{opacity:0.3;}
	.st55{fill:#4E99D2;}
	.st56{opacity:0.15;}
	.st57{opacity:0.1;fill:#3E4347;}
	.st58{fill:#64892F;}
	.st59{opacity:0.08;fill:#FFFFFF;}
	.st60{opacity:0.1;fill:#FFFFFF;}
</style>
<g>
	<g>
		<path class="st2" d="M31.212,11.334L11.341,31.205c-1.058,1.058-2.76,1.058-3.811,0.007L0.787,24.47
			c-1.051-1.051-1.051-2.753,0.007-3.811L20.666,0.788c1.051-1.051,2.753-1.051,3.804,0l6.742,6.742
			C32.263,8.581,32.263,10.283,31.212,11.334z"/>
	</g>
	<g>
		<path class="st1" d="M20.666,31.212L0.795,11.341c-1.058-1.058-1.058-2.76-0.007-3.811l6.742-6.742
			c1.051-1.051,2.753-1.051,3.811,0.007l19.871,19.871c1.051,1.051,1.051,2.753,0,3.804l-6.742,6.742
			C23.419,32.263,21.717,32.263,20.666,31.212z"/>
	</g>
	<g>
		<g>
			
				<ellipse transform="matrix(0.7071 -0.7071 0.7071 0.7071 -2.633 14.2711)" class="st2" cx="15.91" cy="10.314" rx="0.798" ry="0.798"/>
			
				<ellipse transform="matrix(0.7071 -0.7071 0.7071 0.7071 -3.4304 16.1963)" class="st2" cx="17.835" cy="12.239" rx="0.798" ry="0.798"/>
			
				<ellipse transform="matrix(0.7071 -0.7071 0.7071 0.7071 -4.2279 18.1215)" class="st2" cx="19.761" cy="14.164" rx="0.798" ry="0.798"/>
			
				<ellipse transform="matrix(0.7071 -0.7071 0.7071 0.7071 -5.0253 20.0467)" class="st2" cx="21.686" cy="16.089" rx="0.798" ry="0.798"/>
		</g>
		<g>
			
				<ellipse transform="matrix(0.7071 -0.7071 0.7071 0.7071 -4.4986 13.4984)" class="st2" cx="14.045" cy="12.179" rx="0.798" ry="0.798"/>
			
				<ellipse transform="matrix(0.7071 -0.7071 0.7071 0.7071 -5.296 15.4235)" class="st2" cx="15.97" cy="14.105" rx="0.798" ry="0.798"/>
			
				<ellipse transform="matrix(0.7071 -0.7071 0.7071 0.7071 -6.0935 17.3487)" class="st2" cx="17.895" cy="16.03" rx="0.798" ry="0.798"/>
			
				<ellipse transform="matrix(0.7071 -0.7071 0.7071 0.7071 -6.8909 19.2739)" class="st2" cx="19.82" cy="17.955" rx="0.798" ry="0.798"/>
		</g>
		<g>
			
				<ellipse transform="matrix(0.7071 -0.7071 0.7071 0.7071 -6.3642 12.7256)" class="st2" cx="12.179" cy="14.045" rx="0.798" ry="0.798"/>
			
				<ellipse transform="matrix(0.7071 -0.7071 0.7071 0.7071 -7.1616 14.6508)" class="st2" cx="14.104" cy="15.97" rx="0.798" ry="0.798"/>
			
				<ellipse transform="matrix(0.7071 -0.7071 0.7071 0.7071 -7.9591 16.576)" class="st2" cx="16.029" cy="17.895" rx="0.798" ry="0.798"/>
			
				<ellipse transform="matrix(0.7071 -0.7071 0.7071 0.7071 -8.7565 18.5011)" class="st2" cx="17.955" cy="19.821" rx="0.798" ry="0.798"/>
		</g>
		<g>
			
				<ellipse transform="matrix(0.7071 -0.7071 0.7071 0.7071 -8.2298 11.9529)" class="st2" cx="10.313" cy="15.911" rx="0.798" ry="0.798"/>
			
				<ellipse transform="matrix(0.7071 -0.7071 0.7071 0.7071 -9.0273 13.878)" class="st2" cx="12.239" cy="17.836" rx="0.798" ry="0.798"/>
			
				<ellipse transform="matrix(0.7071 -0.7071 0.7071 0.7071 -9.8247 15.8032)" class="st2" cx="14.164" cy="19.761" rx="0.798" ry="0.798"/>
			
				<ellipse transform="matrix(0.7071 -0.7071 0.7071 0.7071 -10.6221 17.7284)" class="st2" cx="16.089" cy="21.686" rx="0.798" ry="0.798"/>
		</g>
	</g>
</g>
</svg>
