<?xml version="1.0" encoding="utf-8"?>
<!-- Generator: Adobe Illustrator 21.1.0, SVG Export Plug-In . SVG Version: 6.00 Build 0)  -->
<svg version="1.1" id="Layer_1" xmlns="http://www.w3.org/2000/svg" xmlns:xlink="http://www.w3.org/1999/xlink" x="0px" y="0px"
	 viewBox="0 0 32 32" style="enable-background:new 0 0 32 32;" xml:space="preserve">
<style type="text/css">
	.st0{fill:#45CBEA;}
	.st1{fill:#FFD93B;}
	.st2{fill:#F4C534;}
	.st3{fill:#3E4347;}
	.st4{opacity:0.2;}
	.st5{fill:#DE9C25;}
	.st6{fill:#FFFFFF;}
	.st7{fill:#E24B4B;}
	.st8{fill:#8CC63E;}
	.st9{fill:#D03F3F;}
	.st10{fill:#846144;}
	.st11{fill:#5A5F63;}
	.st12{fill:#777B7E;}
	.st13{fill:#FFDC97;}
	.st14{fill:#FFE9AB;}
	.st15{fill:#93979A;}
	.st16{fill:#FFD68D;}
	.st17{fill:#728389;}
	.st18{fill:#DAE5EF;}
	.st19{fill:#65B1EF;}
	.st20{fill:#F2F7F9;}
	.st21{fill:#8D9BA3;}
	.st22{opacity:0.2;fill:#F2F7F9;}
	.st23{fill:#E9EFF4;}
	.st24{fill:#FC97B2;}
	.st25{fill:#E84D88;}
	.st26{fill:#A5856D;}
	.st27{fill:#E9B02C;}
	.st28{fill:#7FB239;}
	.st29{fill:#CBD6E0;}
	.st30{fill:#ACB9C1;}
	.st31{fill:#8F6D52;}
	.st32{opacity:0.2;fill:#FFFFFF;}
	.st33{fill:#9A795F;}
	.st34{fill:#BBC7D1;}
	.st35{fill:#E18823;}
	.st36{fill:#F29A2E;}
	.st37{fill:#89664C;}
	.st38{fill:#D3D9DD;}
	.st39{fill:#DEE4E9;}
	.st40{fill:#AD2727;}
	.st41{fill:#719D34;}
	.st42{fill:#353A3D;}
	.st43{opacity:0.25;}
	.st44{opacity:0.2;fill:#3E4347;}
	.st45{fill:#373C3F;}
	.st46{opacity:0.1;}
	.st47{opacity:0.06;}
	.st48{fill:#7A5B44;}
	.st49{fill:#6B503B;}
	.st50{fill:#31373A;}
	.st51{fill:#59A5E0;}
	.st52{fill:#363B3F;}
	.st53{fill:#BF3333;}
	.st54{opacity:0.3;}
	.st55{fill:#4E99D2;}
	.st56{opacity:0.15;}
	.st57{opacity:0.1;fill:#3E4347;}
	.st58{fill:#64892F;}
	.st59{opacity:0.08;fill:#FFFFFF;}
	.st60{opacity:0.1;fill:#FFFFFF;}
</style>
<g>
	<g>
		<g>
			<g>
				<g>
					<path class="st2" d="M25.352,1.148L23.17,8.742l-0.655-2.778c0,0,0.155-1.443-1.109-1.443c-2.727,0-8.078,0-10.8,0
						c-1.276,0-1.121,1.443-1.121,1.443L8.841,8.742L6.648,1.148l3.326-1.144h12.052L25.352,1.148z"/>
				</g>
				<g>
					<path class="st1" d="M27.832,3.926c-0.501,1.979-5.198,9.764-9.287,16.308c-0.894,1.43-1.752,2.79-2.539,4.029
						c-0.799-1.24-1.657-2.599-2.551-4.029c0.822-1.264,1.681-2.611,2.551-3.97c2.849-4.494,5.663-9.06,6.664-11.099
						c2.289-4.661-0.644-5.162-0.644-5.162C24.708-0.044,28.726,0.349,27.832,3.926z"/>
				</g>
			</g>
		</g>
		<g>
			<g>
				<g>
					<path class="st1" d="M18.545,20.234c-0.894,1.43-1.752,2.79-2.539,4.029c-0.799-1.24-1.657-2.599-2.551-4.029
						C9.366,13.689,4.669,5.904,4.168,3.926c-0.894-3.576,3.123-3.97,5.806-3.922c0,0-2.921,0.501-0.644,5.162
						c1.001,2.038,3.815,6.604,6.676,11.099C16.864,17.623,17.735,18.97,18.545,20.234z"/>
				</g>
			</g>
		</g>
	</g>
	<g>
		<path class="st18" d="M23.338,24.751c0,4.001-3.247,7.249-7.249,7.249c-4.012,0-7.249-3.248-7.249-7.249
			c0-4.012,3.237-7.26,7.249-7.26C20.091,17.491,23.338,20.739,23.338,24.751z"/>
	</g>
	<g>
		<path class="st29" d="M21.209,24.75c0,2.826-2.293,5.119-5.119,5.119c-2.833,0-5.119-2.294-5.119-5.119
			c0-2.834,2.286-5.127,5.119-5.127C18.915,19.623,21.209,21.916,21.209,24.75z"/>
	</g>
	<g>
		<path class="st34" d="M20.259,21.761c-0.836-0.596-1.863-0.951-2.979-0.951c-2.839,0-5.12,2.294-5.12,5.133
			c0,1.115,0.355,2.155,0.976,2.991c-1.318-0.925-2.167-2.459-2.167-4.183c0-2.839,2.282-5.133,5.121-5.133
			C17.801,19.619,19.322,20.468,20.259,21.761z"/>
	</g>
	<g>
		<path class="st18" d="M17.859,26.453v0.938h-3.54c0.201-1.862,2.526-2.588,2.526-3.752c0-0.465-0.269-0.701-0.683-0.701
			c-0.502,0-0.687,0.33-0.719,0.823l-1.006-0.101c0.115-1.064,0.745-1.56,1.75-1.56c1.1,0,1.671,0.681,1.671,1.466
			c0,1.408-1.561,2.118-2.005,2.886H17.859z"/>
	</g>
</g>
</svg>
