<?xml version="1.0" encoding="utf-8"?>
<!-- Generator: Adobe Illustrator 21.1.0, SVG Export Plug-In . SVG Version: 6.00 Build 0)  -->
<svg version="1.1" id="Layer_1" xmlns="http://www.w3.org/2000/svg" xmlns:xlink="http://www.w3.org/1999/xlink" x="0px" y="0px"
	 viewBox="0 0 32 32" style="enable-background:new 0 0 32 32;" xml:space="preserve">
<style type="text/css">
	.st0{fill:#45CBEA;}
	.st1{fill:#FFD93B;}
	.st2{fill:#F4C534;}
	.st3{fill:#3E4347;}
	.st4{opacity:0.2;}
	.st5{fill:#DE9C25;}
	.st6{fill:#FFFFFF;}
	.st7{fill:#E24B4B;}
	.st8{fill:#8CC63E;}
	.st9{fill:#D03F3F;}
	.st10{fill:#846144;}
	.st11{fill:#5A5F63;}
	.st12{fill:#777B7E;}
	.st13{fill:#FFDC97;}
	.st14{fill:#FFE9AB;}
	.st15{fill:#93979A;}
	.st16{fill:#FFD68D;}
	.st17{fill:#728389;}
	.st18{fill:#DAE5EF;}
	.st19{fill:#65B1EF;}
	.st20{fill:#F2F7F9;}
	.st21{fill:#8D9BA3;}
	.st22{opacity:0.2;fill:#F2F7F9;}
	.st23{fill:#E9EFF4;}
	.st24{fill:#FC97B2;}
	.st25{fill:#E84D88;}
	.st26{fill:#A5856D;}
	.st27{fill:#E9B02C;}
	.st28{fill:#7FB239;}
	.st29{fill:#CBD6E0;}
	.st30{fill:#ACB9C1;}
	.st31{fill:#8F6D52;}
	.st32{opacity:0.2;fill:#FFFFFF;}
	.st33{fill:#9A795F;}
	.st34{fill:#BBC7D1;}
	.st35{fill:#E18823;}
	.st36{fill:#F29A2E;}
	.st37{fill:#89664C;}
	.st38{fill:#D3D9DD;}
	.st39{fill:#DEE4E9;}
	.st40{fill:#AD2727;}
	.st41{fill:#719D34;}
	.st42{fill:#353A3D;}
	.st43{opacity:0.25;}
	.st44{opacity:0.2;fill:#3E4347;}
	.st45{fill:#373C3F;}
	.st46{opacity:0.1;}
	.st47{opacity:0.06;}
	.st48{fill:#7A5B44;}
	.st49{fill:#6B503B;}
	.st50{fill:#31373A;}
	.st51{fill:#59A5E0;}
	.st52{fill:#363B3F;}
	.st53{fill:#BF3333;}
	.st54{opacity:0.3;}
	.st55{fill:#4E99D2;}
	.st56{opacity:0.15;}
	.st57{opacity:0.1;fill:#3E4347;}
	.st58{fill:#64892F;}
	.st59{opacity:0.08;fill:#FFFFFF;}
	.st60{opacity:0.1;fill:#FFFFFF;}
</style>
<g>
	<g>
		<g>
			<g>
				<g>
					<g>
						<g>
							<path class="st9" d="M25.352,1.148L23.17,8.742l-0.655-2.778c0,0,0.155-1.443-1.109-1.443h-5.365c0,0-0.036,0-0.083,0h-5.353
								c-1.276,0-1.121,1.443-1.121,1.443L8.841,8.742L6.648,1.148l3.326-1.144h12.052L25.352,1.148z"/>
						</g>
						<g>
							<path class="st7" d="M27.832,3.926c-0.501,1.979-5.198,9.764-9.287,16.308c-0.894,1.43-1.752,2.79-2.539,4.029
								c-0.799-1.24-1.657-2.599-2.551-4.029c0.822-1.264,1.681-2.611,2.551-3.97c2.849-4.494,5.663-9.06,6.664-11.099
								c2.289-4.661-0.644-5.162-0.644-5.162C24.708-0.044,28.726,0.349,27.832,3.926z"/>
						</g>
					</g>
				</g>
				<g>
					<g>
						<g>
							<path class="st7" d="M18.545,20.234c-0.894,1.43-1.752,2.79-2.539,4.029c-0.799-1.24-1.657-2.599-2.551-4.029
								C9.366,13.689,4.669,5.904,4.168,3.926c-0.894-3.576,3.123-3.97,5.806-3.922c0,0-2.921,0.501-0.644,5.162
								c1.001,2.038,3.815,6.604,6.676,11.099C16.864,17.623,17.735,18.97,18.545,20.234z"/>
						</g>
					</g>
				</g>
			</g>
			<g>
				<path class="st18" d="M23.338,24.751c0,4.001-3.247,7.249-7.249,7.249c-4.012,0-7.249-3.248-7.249-7.249
					c0-4.012,3.237-7.26,7.249-7.26C20.091,17.491,23.338,20.739,23.338,24.751z"/>
			</g>
			<g>
				<path class="st29" d="M21.209,24.75c0,2.826-2.293,5.119-5.119,5.119c-2.833,0-5.119-2.294-5.119-5.119
					c0-2.834,2.286-5.127,5.119-5.127C18.915,19.623,21.209,21.916,21.209,24.75z"/>
			</g>
			<g>
				<path class="st34" d="M20.259,21.761c-0.836-0.596-1.863-0.951-2.979-0.951c-2.839,0-5.12,2.294-5.12,5.133
					c0,1.115,0.355,2.155,0.976,2.991c-1.318-0.925-2.167-2.459-2.167-4.183c0-2.839,2.282-5.133,5.121-5.133
					C17.801,19.619,19.322,20.468,20.259,21.761z"/>
			</g>
		</g>
	</g>
	<g>
		<path class="st18" d="M14.318,25.962l0.989-0.12c0.032,0.252,0.116,0.445,0.255,0.578c0.138,0.133,0.305,0.2,0.502,0.2
			c0.211,0,0.389-0.08,0.533-0.24s0.216-0.376,0.216-0.647c0-0.257-0.069-0.461-0.207-0.611c-0.138-0.15-0.307-0.225-0.506-0.225
			c-0.131,0-0.287,0.025-0.469,0.076l0.113-0.833c0.276,0.007,0.487-0.053,0.633-0.18c0.145-0.127,0.218-0.296,0.218-0.507
			c0-0.179-0.053-0.322-0.16-0.429c-0.107-0.107-0.249-0.16-0.426-0.16c-0.175,0-0.324,0.061-0.447,0.182
			c-0.124,0.121-0.199,0.298-0.225,0.531l-0.942-0.16c0.065-0.322,0.164-0.58,0.296-0.773c0.132-0.193,0.316-0.344,0.553-0.455
			s0.501-0.165,0.795-0.165c0.502,0,0.904,0.16,1.207,0.48c0.25,0.262,0.375,0.558,0.375,0.887c0,0.468-0.256,0.841-0.767,1.12
			c0.305,0.065,0.55,0.212,0.733,0.44c0.183,0.228,0.275,0.503,0.275,0.826c0,0.468-0.171,0.867-0.513,1.197
			s-0.767,0.495-1.277,0.495c-0.482,0-0.883-0.139-1.2-0.416S14.369,26.411,14.318,25.962z"/>
	</g>
</g>
</svg>
