<?xml version="1.0" encoding="utf-8"?>
<!-- Generator: Adobe Illustrator 21.1.0, SVG Export Plug-In . SVG Version: 6.00 Build 0)  -->
<svg version="1.1" id="Layer_1" xmlns="http://www.w3.org/2000/svg" xmlns:xlink="http://www.w3.org/1999/xlink" x="0px" y="0px"
	 viewBox="0 0 32 32" style="enable-background:new 0 0 32 32;" xml:space="preserve">
<style type="text/css">
	.st0{fill:#45CBEA;}
	.st1{fill:#FFD93B;}
	.st2{fill:#F4C534;}
	.st3{fill:#3E4347;}
	.st4{opacity:0.2;}
	.st5{fill:#DE9C25;}
	.st6{fill:#FFFFFF;}
	.st7{fill:#E24B4B;}
	.st8{fill:#8CC63E;}
	.st9{fill:#D03F3F;}
	.st10{fill:#846144;}
	.st11{fill:#5A5F63;}
	.st12{fill:#777B7E;}
	.st13{fill:#FFDC97;}
	.st14{fill:#FFE9AB;}
	.st15{fill:#93979A;}
	.st16{fill:#FFD68D;}
	.st17{fill:#728389;}
	.st18{fill:#DAE5EF;}
	.st19{fill:#65B1EF;}
	.st20{fill:#F2F7F9;}
	.st21{fill:#8D9BA3;}
	.st22{opacity:0.2;fill:#F2F7F9;}
	.st23{fill:#E9EFF4;}
	.st24{fill:#FC97B2;}
	.st25{fill:#E84D88;}
	.st26{fill:#A5856D;}
	.st27{fill:#E9B02C;}
	.st28{fill:#7FB239;}
	.st29{fill:#CBD6E0;}
	.st30{fill:#ACB9C1;}
	.st31{fill:#8F6D52;}
	.st32{opacity:0.2;fill:#FFFFFF;}
	.st33{fill:#9A795F;}
	.st34{fill:#BBC7D1;}
	.st35{fill:#E18823;}
	.st36{fill:#F29A2E;}
	.st37{fill:#89664C;}
	.st38{fill:#D3D9DD;}
	.st39{fill:#DEE4E9;}
	.st40{fill:#AD2727;}
	.st41{fill:#719D34;}
	.st42{fill:#353A3D;}
	.st43{opacity:0.25;}
	.st44{opacity:0.2;fill:#3E4347;}
	.st45{fill:#373C3F;}
	.st46{opacity:0.1;}
	.st47{opacity:0.06;}
	.st48{fill:#7A5B44;}
	.st49{fill:#6B503B;}
	.st50{fill:#31373A;}
	.st51{fill:#59A5E0;}
	.st52{fill:#363B3F;}
	.st53{fill:#BF3333;}
	.st54{opacity:0.3;}
	.st55{fill:#4E99D2;}
	.st56{opacity:0.15;}
	.st57{opacity:0.1;fill:#3E4347;}
	.st58{fill:#64892F;}
	.st59{opacity:0.08;fill:#FFFFFF;}
	.st60{opacity:0.1;fill:#FFFFFF;}
</style>
<g>
	<g>
		<path class="st2" d="M21.961,23.068h-11.92c0.393-0.549,0.9-0.976,1.527-1.297c2.056-1.049,3.275-3.241,3.275-5.549v-3.858h2.316
			v3.863c0,2.307,1.217,4.499,3.271,5.548C21.06,22.096,21.567,22.522,21.961,23.068z"/>
	</g>
	<g>
		<g>
			<g>
				<g>
					<g>
						<circle class="st2" cx="25.244" cy="5.15" r="1.266"/>
					</g>
					<g>
						<g>
							<path class="st2" d="M30.477,7.636c-0.726,2.01-2.313,3.75-4.12,4.99c-1.784,1.311-4.024,2.018-5.06,2.38
								c-2.141,0.597-1.755,0.495-4.08,0.96c-0.3,0.06-0.59-0.13-0.64-0.43c-0.06-0.29,0.12-0.57,0.41-0.64
								c2.616-0.588,1.557-0.31,3.94-1.02c1-0.386,3.22-1.149,4.66-2.34c1.881-1.335,3.043-3.018,3.5-4.41
								c0.425-1.205,0.643-2.625-0.37-3.41c-0.969-0.795-2.489-0.384-2.91,0.73c-0.162,0.357-0.122,0.499-0.16,0.84
								c-0.02,0.48-0.42,0.86-0.9,0.84c-0.49-0.02-0.86-0.43-0.84-0.91c0,0,0-0.01,0-0.02c0.037-0.532,0.061-0.891,0.32-1.46
								c1.008-2.165,3.759-2.73,5.51-1.25C31.309,3.812,31.178,5.712,30.477,7.636z"/>
						</g>
					</g>
				</g>
				<g>
					<g>
						<circle class="st2" cx="6.756" cy="5.15" r="1.266"/>
					</g>
					<g>
						<g>
							<path class="st2" d="M1.523,7.636c0.726,2.01,2.313,3.75,4.12,4.99c1.784,1.311,4.024,2.018,5.06,2.38
								c2.141,0.597,1.755,0.495,4.08,0.96c0.3,0.06,0.59-0.13,0.64-0.43c0.06-0.29-0.12-0.57-0.41-0.64
								c-2.616-0.588-1.557-0.31-3.94-1.02c-1-0.386-3.22-1.149-4.66-2.34c-1.881-1.335-3.043-3.018-3.5-4.41
								c-0.425-1.205-0.643-2.625,0.37-3.41c0.969-0.795,2.489-0.384,2.91,0.73c0.162,0.357,0.122,0.499,0.16,0.84
								c0.02,0.48,0.42,0.86,0.9,0.84c0.49-0.02,0.86-0.43,0.84-0.91c0,0,0-0.01,0-0.02c-0.037-0.532-0.061-0.891-0.32-1.46
								c-1.008-2.165-3.759-2.73-5.51-1.25C0.691,3.812,0.822,5.712,1.523,7.636z"/>
						</g>
					</g>
				</g>
			</g>
			<g>
				<g>
					<g>
						<path class="st3" d="M23.132,30.582V23.33c0-0.293-0.234-0.526-0.526-0.526H9.396c-0.293,0-0.526,0.234-0.526,0.526v7.251
							H23.132z"/>
					</g>
					<g>
						<path class="st1" d="M7.574,1.913C7.886,11.946,11.526,17.307,16,17.307s8.114-5.361,8.426-15.395H7.574z"/>
					</g>
					<g>
						<path class="st2" d="M24.427,1.913H7.574c0.02,0.629,0.052,1.239,0.097,1.831C7.671,3.744,24.407,2.541,24.427,1.913z"/>
					</g>
				</g>
				<g>
					<path class="st11" d="M24.435,30.959c0,0.578-0.463,1.041-1.041,1.041H8.607c-0.578,0-1.041-0.463-1.041-1.041
						c0-0.569,0.463-1.041,1.041-1.041h14.787C23.973,29.918,24.435,30.39,24.435,30.959z"/>
				</g>
			</g>
			<g>
				<g>
					<path class="st1" d="M25.43,1.026c0,0.561-0.455,1.026-1.026,1.026H7.597c-0.571,0-1.026-0.465-1.026-1.026S7.026,0,7.597,0
						h16.807C24.975,0,25.43,0.465,25.43,1.026z"/>
				</g>
			</g>
		</g>
		<g>
			<path class="st2" d="M18.023,9.019c-0.1,0.1-0.145,0.233-0.122,0.367l0.267,1.544c0.056,0.333-0.289,0.589-0.589,0.433
				L16.19,10.63c-0.122-0.067-0.267-0.067-0.378,0l-1.389,0.733c-0.3,0.156-0.656-0.1-0.589-0.433l0.255-1.544
				c0.022-0.133-0.011-0.267-0.111-0.367L12.857,7.93c-0.244-0.233-0.111-0.656,0.222-0.7l1.555-0.222
				c0.133-0.022,0.244-0.1,0.311-0.222l0.689-1.411c0.145-0.3,0.578-0.3,0.733,0l0.689,1.411c0.067,0.122,0.178,0.2,0.311,0.222
				l1.544,0.222c0.344,0.044,0.478,0.467,0.233,0.7L18.023,9.019z"/>
		</g>
	</g>
</g>
</svg>
