<?xml version="1.0" encoding="utf-8"?>
<!-- Generator: Adobe Illustrator 21.1.0, SVG Export Plug-In . SVG Version: 6.00 Build 0)  -->
<svg version="1.1" id="Layer_1" xmlns="http://www.w3.org/2000/svg" xmlns:xlink="http://www.w3.org/1999/xlink" x="0px" y="0px"
	 viewBox="0 0 32 32" style="enable-background:new 0 0 32 32;" xml:space="preserve">
<style type="text/css">
	.st0{fill:#45CBEA;}
	.st1{fill:#FFD93B;}
	.st2{fill:#F4C534;}
	.st3{fill:#3E4347;}
	.st4{opacity:0.2;}
	.st5{fill:#DE9C25;}
	.st6{fill:#FFFFFF;}
	.st7{fill:#E24B4B;}
	.st8{fill:#8CC63E;}
	.st9{fill:#D03F3F;}
	.st10{fill:#846144;}
	.st11{fill:#5A5F63;}
	.st12{fill:#777B7E;}
	.st13{fill:#FFDC97;}
	.st14{fill:#FFE9AB;}
	.st15{fill:#93979A;}
	.st16{fill:#FFD68D;}
	.st17{fill:#728389;}
	.st18{fill:#DAE5EF;}
	.st19{fill:#65B1EF;}
	.st20{fill:#F2F7F9;}
	.st21{fill:#8D9BA3;}
	.st22{opacity:0.2;fill:#F2F7F9;}
	.st23{fill:#E9EFF4;}
	.st24{fill:#FC97B2;}
	.st25{fill:#E84D88;}
	.st26{fill:#A5856D;}
	.st27{fill:#E9B02C;}
	.st28{fill:#7FB239;}
	.st29{fill:#CBD6E0;}
	.st30{fill:#ACB9C1;}
	.st31{fill:#8F6D52;}
	.st32{opacity:0.2;fill:#FFFFFF;}
	.st33{fill:#9A795F;}
	.st34{fill:#BBC7D1;}
	.st35{fill:#E18823;}
	.st36{fill:#F29A2E;}
	.st37{fill:#89664C;}
	.st38{fill:#D3D9DD;}
	.st39{fill:#DEE4E9;}
	.st40{fill:#AD2727;}
	.st41{fill:#719D34;}
	.st42{fill:#353A3D;}
	.st43{opacity:0.25;}
	.st44{opacity:0.2;fill:#3E4347;}
	.st45{fill:#373C3F;}
	.st46{opacity:0.1;}
	.st47{opacity:0.06;}
	.st48{fill:#7A5B44;}
	.st49{fill:#6B503B;}
	.st50{fill:#31373A;}
	.st51{fill:#59A5E0;}
	.st52{fill:#363B3F;}
	.st53{fill:#BF3333;}
	.st54{opacity:0.3;}
	.st55{fill:#4E99D2;}
	.st56{opacity:0.15;}
	.st57{opacity:0.1;fill:#3E4347;}
	.st58{fill:#64892F;}
	.st59{opacity:0.08;fill:#FFFFFF;}
	.st60{opacity:0.1;fill:#FFFFFF;}
</style>
<g>
	<path class="st11" d="M32,8.61v18.37c0,0.55-0.45,1-1,1H1c-0.55,0-1-0.45-1-1V8.61c0-0.56,0.45-1,1-1h30
		C31.55,7.61,32,8.05,32,8.61z"/>
	<path class="st3" d="M32,10.147V8.61c0-0.56-0.45-1-1-1H1c-0.55,0-1,0.44-1,1v1.537H32z"/>
	<path class="st3" d="M0,25.443l0,1.537c0,0.56,0.45,1,1,1h30c0.55,0,1-0.44,1-1v-1.537H0z"/>
	<path class="st18" d="M22.49,10.99c-3.76,0-6.8,3.05-6.8,6.81c0,3.75,3.04,6.8,6.8,6.8s6.8-3.05,6.8-6.8
		C29.29,14.04,26.25,10.99,22.49,10.99z M22.49,23.32c-3.05,0-5.52-2.48-5.52-5.52c0-3.05,2.47-5.53,5.52-5.53s5.52,2.48,5.52,5.53
		C28.01,20.84,25.54,23.32,22.49,23.32z"/>
	<path class="st18" d="M26.49,17.8c0,2.21-1.79,4-4,4c-2.21,0-4-1.79-4-4c0-2.22,1.79-4.01,4-4.01
		C24.7,13.79,26.49,15.58,26.49,17.8z"/>
	<path class="st6" d="M24.49,17.8c0,1.1-0.9,2-2,2c-1.1,0-2-0.9-2-2c0-1.11,0.9-2.01,2-2.01C23.59,15.79,24.49,16.69,24.49,17.8z"/>
	<ellipse class="st21" cx="21.302" cy="16.609" rx="0.889" ry="0.891"/>
	<path class="st11" d="M25.525,7.61h-11.15l1.01-3.09c0.15-0.3,0.46-0.5,0.8-0.5h7.52c0.34,0,0.65,0.2,0.8,0.5L25.525,7.61z"/>
	<polygon class="st20" points="15.754,6.61 16.274,5.02 23.617,5.02 24.141,6.61 	"/>
	<path class="st11" d="M9.535,7.61H3.62l0.536-1.109C4.235,6.342,4.4,6.236,4.58,6.236h3.989c0.18,0,0.345,0.106,0.424,0.265
		L9.535,7.61z"/>
	<g>
		<circle class="st7" cx="3.768" cy="12.967" r="1.386"/>
		<path class="st22" d="M4.069,12.656c0,0.334-0.28,0.614-0.614,0.614c-0.345,0-0.614-0.28-0.614-0.614
			c0-0.345,0.269-0.614,0.614-0.614C3.789,12.042,4.069,12.311,4.069,12.656z"/>
	</g>
</g>
</svg>
