<?xml version="1.0" encoding="utf-8"?>
<!-- Generator: Adobe Illustrator 21.1.0, SVG Export Plug-In . SVG Version: 6.00 Build 0)  -->
<svg version="1.1" id="Layer_1" xmlns="http://www.w3.org/2000/svg" xmlns:xlink="http://www.w3.org/1999/xlink" x="0px" y="0px"
	 viewBox="0 0 32 32" style="enable-background:new 0 0 32 32;" xml:space="preserve">
<style type="text/css">
	.st0{fill:#45CBEA;}
	.st1{fill:#FFD93B;}
	.st2{fill:#F4C534;}
	.st3{fill:#3E4347;}
	.st4{opacity:0.2;}
	.st5{fill:#DE9C25;}
	.st6{fill:#FFFFFF;}
	.st7{fill:#E24B4B;}
	.st8{fill:#8CC63E;}
	.st9{fill:#D03F3F;}
	.st10{fill:#846144;}
	.st11{fill:#5A5F63;}
	.st12{fill:#777B7E;}
	.st13{fill:#FFDC97;}
	.st14{fill:#FFE9AB;}
	.st15{fill:#93979A;}
	.st16{fill:#FFD68D;}
	.st17{fill:#728389;}
	.st18{fill:#DAE5EF;}
	.st19{fill:#65B1EF;}
	.st20{fill:#F2F7F9;}
	.st21{fill:#8D9BA3;}
	.st22{opacity:0.2;fill:#F2F7F9;}
	.st23{fill:#E9EFF4;}
	.st24{fill:#FC97B2;}
	.st25{fill:#E84D88;}
	.st26{fill:#A5856D;}
	.st27{fill:#E9B02C;}
	.st28{fill:#7FB239;}
	.st29{fill:#CBD6E0;}
	.st30{fill:#ACB9C1;}
	.st31{fill:#8F6D52;}
	.st32{opacity:0.2;fill:#FFFFFF;}
	.st33{fill:#9A795F;}
	.st34{fill:#BBC7D1;}
	.st35{fill:#E18823;}
	.st36{fill:#F29A2E;}
	.st37{fill:#89664C;}
	.st38{fill:#D3D9DD;}
	.st39{fill:#DEE4E9;}
	.st40{fill:#AD2727;}
	.st41{fill:#719D34;}
	.st42{fill:#353A3D;}
	.st43{opacity:0.25;}
	.st44{opacity:0.2;fill:#3E4347;}
	.st45{fill:#373C3F;}
	.st46{opacity:0.1;}
	.st47{opacity:0.06;}
	.st48{fill:#7A5B44;}
	.st49{fill:#6B503B;}
	.st50{fill:#31373A;}
	.st51{fill:#59A5E0;}
	.st52{fill:#363B3F;}
	.st53{fill:#BF3333;}
	.st54{opacity:0.3;}
	.st55{fill:#4E99D2;}
	.st56{opacity:0.15;}
	.st57{opacity:0.1;fill:#3E4347;}
	.st58{fill:#64892F;}
	.st59{opacity:0.08;fill:#FFFFFF;}
	.st60{opacity:0.1;fill:#FFFFFF;}
</style>
<g>
	<g>
		<g>
			<g>
				<g>
					<ellipse class="st36" cx="16" cy="16.002" rx="15.996" ry="15.998"/>
				</g>
			</g>
		</g>
		<g>
			<g>
				<g>
					<path class="st35" d="M32,16c0,8.84-7.16,16-16,16c-6.51,0-12.11-3.89-14.6-9.47c0.17,0.19,0.35,0.38,0.53,0.56
						c5.88,5.88,15.42,5.88,21.31,0c5.88-5.89,5.88-15.43,0-21.31c-0.03-0.03-0.07-0.07-0.1-0.09C28.39,4.31,31.99,9.74,32,16z"/>
				</g>
			</g>
		</g>
		<g>
			<path class="st3" d="M25.17,16.87c0.116,3.337,0.586,7.243,2.06,10.52c-0.4,0.4-0.83,0.77-1.28,1.12
				c-1.891-3.425-2.523-7.697-2.68-11.61c-2.03,0.03-4.19,0.04-6.37,0.05c-0.02,6.24-0.17,11.86-0.35,15.02
				C16.36,31.98,16.18,32,16,32c-0.19,0-0.36-0.02-0.55-0.03c-0.18-3.16-0.33-8.78-0.35-15.01c-2.21-0.01-4.35-0.02-6.37-0.06
				c-0.157,3.841-0.785,8.178-2.68,11.61c-0.45-0.35-0.88-0.73-1.29-1.13c1.494-3.241,1.941-7.195,2.07-10.52
				c-2.58-0.05-4.9-0.12-6.8-0.21C0.03,16.43,0,16.22,0,16c0-0.22,0.03-0.43,0.03-0.65c1.9-0.09,4.22-0.16,6.8-0.21
				C6.714,11.801,6.241,7.866,4.77,4.62c0.4-0.4,0.83-0.77,1.28-1.13c1.878,3.401,2.524,7.757,2.68,11.61
				c2.02-0.04,4.17-0.05,6.38-0.06c0.028-4.97,0.071-9.974,0.34-15.01C15.64,0.02,15.82,0,16,0c0.18,0,0.36,0.03,0.54,0.03
				c0.282,4.617,0.325,10.621,0.35,15.02c2.18,0.01,4.34,0.02,6.38,0.05c0.139-3.843,0.799-8.204,2.68-11.61
				c0.45,0.35,0.88,0.73,1.28,1.13c-1.476,3.257-1.929,7.149-2.06,10.51c1,0.03,3.247,0.068,6.79,0.22C31.97,15.57,32,15.78,32,16
				c0,0.22-0.03,0.43-0.04,0.65C29.278,16.765,26.084,16.856,25.17,16.87z"/>
		</g>
	</g>
	<g>
		<path class="st45" d="M23.87,22.392c0.41,2.159,1.056,4.264,2.08,6.118c0.45-0.35,0.88-0.72,1.28-1.12
			c-0.991-2.205-1.522-4.692-1.803-7.102C24.977,21.024,24.457,21.726,23.87,22.392z"/>
		<path class="st45" d="M27.133,4.534c-0.374-0.367-0.767-0.721-1.183-1.044c-0.192,0.347-0.363,0.711-0.53,1.077
			c0.407,0.663,0.766,1.346,1.061,2.051c0.216-0.681,0.457-1.351,0.747-1.992C27.196,4.595,27.164,4.565,27.133,4.534z"/>
		<path class="st45" d="M27.392,15.188c-0.102,0.551-0.234,1.097-0.398,1.637c1.397-0.04,3.282-0.103,4.966-0.175
			C31.97,16.43,32,16.22,32,16c0-0.22-0.03-0.43-0.04-0.65C30.065,15.269,28.553,15.221,27.392,15.188z"/>
		<path class="st45" d="M4.866,27.473c0.379,0.364,0.771,0.716,1.184,1.037c0.365-0.661,0.671-1.364,0.947-2.083
			c-0.538-0.214-1.063-0.464-1.578-0.742c-0.195,0.577-0.406,1.146-0.656,1.689C4.796,27.408,4.832,27.44,4.866,27.473z"/>
		<path class="st45" d="M16.751,26.909c-0.492,0.141-0.99,0.254-1.492,0.344c0.055,1.872,0.121,3.484,0.191,4.717
			C15.64,31.98,15.81,32,16,32c0.18,0,0.36-0.02,0.55-0.03C16.625,30.662,16.694,28.929,16.751,26.909z"/>
	</g>
</g>
</svg>
