<?xml version="1.0" encoding="utf-8"?>
<!-- Generator: Adobe Illustrator 21.1.0, SVG Export Plug-In . SVG Version: 6.00 Build 0)  -->
<svg version="1.1" id="Layer_1" xmlns="http://www.w3.org/2000/svg" xmlns:xlink="http://www.w3.org/1999/xlink" x="0px" y="0px"
	 viewBox="0 0 32 32" style="enable-background:new 0 0 32 32;" xml:space="preserve">
<style type="text/css">
	.st0{fill:#45CBEA;}
	.st1{fill:#FFD93B;}
	.st2{fill:#F4C534;}
	.st3{fill:#3E4347;}
	.st4{opacity:0.2;}
	.st5{fill:#DE9C25;}
	.st6{fill:#FFFFFF;}
	.st7{fill:#E24B4B;}
	.st8{fill:#8CC63E;}
	.st9{fill:#D03F3F;}
	.st10{fill:#846144;}
	.st11{fill:#5A5F63;}
	.st12{fill:#777B7E;}
	.st13{fill:#FFDC97;}
	.st14{fill:#FFE9AB;}
	.st15{fill:#93979A;}
	.st16{fill:#FFD68D;}
	.st17{fill:#728389;}
	.st18{fill:#DAE5EF;}
	.st19{fill:#65B1EF;}
	.st20{fill:#F2F7F9;}
	.st21{fill:#8D9BA3;}
	.st22{opacity:0.2;fill:#F2F7F9;}
	.st23{fill:#E9EFF4;}
	.st24{fill:#FC97B2;}
	.st25{fill:#E84D88;}
	.st26{fill:#A5856D;}
	.st27{fill:#E9B02C;}
	.st28{fill:#7FB239;}
	.st29{fill:#CBD6E0;}
	.st30{fill:#ACB9C1;}
	.st31{fill:#8F6D52;}
	.st32{opacity:0.2;fill:#FFFFFF;}
	.st33{fill:#9A795F;}
	.st34{fill:#BBC7D1;}
	.st35{fill:#E18823;}
	.st36{fill:#F29A2E;}
	.st37{fill:#89664C;}
	.st38{fill:#D3D9DD;}
	.st39{fill:#DEE4E9;}
	.st40{fill:#AD2727;}
	.st41{fill:#719D34;}
	.st42{fill:#353A3D;}
	.st43{opacity:0.25;}
	.st44{opacity:0.2;fill:#3E4347;}
	.st45{fill:#373C3F;}
	.st46{opacity:0.1;}
	.st47{opacity:0.06;}
	.st48{fill:#7A5B44;}
	.st49{fill:#6B503B;}
	.st50{fill:#31373A;}
	.st51{fill:#59A5E0;}
	.st52{fill:#363B3F;}
	.st53{fill:#BF3333;}
	.st54{opacity:0.3;}
	.st55{fill:#4E99D2;}
	.st56{opacity:0.15;}
	.st57{opacity:0.1;fill:#3E4347;}
	.st58{fill:#64892F;}
	.st59{opacity:0.08;fill:#FFFFFF;}
	.st60{opacity:0.1;fill:#FFFFFF;}
</style>
<g>
	<g>
		<g>
			<circle class="st23" cx="16" cy="16" r="16"/>
		</g>
		<g class="st46">
			<path class="st3" d="M32,16.001C32,24.837,24.837,32,15.999,32c-5.451,0-10.265-2.726-13.155-6.889
				c2.585,1.794,5.725,2.845,9.111,2.845c8.837,0,16.001-7.163,16.001-15.999c0-3.386-1.051-6.525-2.846-9.111
				C29.274,5.734,32,10.55,32,16.001z"/>
		</g>
	</g>
	<g>
		<g>
			<g>
				<path class="st34" d="M22.757,16c-0.001-4.475,1.62-8.469,4.626-11.243c-0.177-0.18-0.359-0.355-0.545-0.526
					C23.705,7.152,22.076,11.326,22.075,16c0.001,4.674,1.63,8.848,4.763,11.769c0.186-0.171,0.367-0.347,0.545-0.526
					C24.376,24.469,22.756,20.475,22.757,16z"/>
				<g>
					<g>
						<path class="st7" d="M26.665,4.849c0.436,0.652,0.229,1.472,0.118,1.74c-0.09-0.261-0.172-0.727-0.568-1.26
							c-0.213-0.333-0.742-0.766-0.945-0.891C25.483,4.353,26.249,4.261,26.665,4.849z"/>
					</g>
					<g>
						<path class="st7" d="M25.551,6.112c0.513,0.582,0.405,1.409,0.325,1.686c-0.12-0.244-0.255-0.688-0.712-1.159
							c-0.251-0.299-0.825-0.657-1.039-0.755C24.323,5.773,25.066,5.589,25.551,6.112z"/>
					</g>
					<g>
						<path class="st7" d="M24.603,7.491c0.574,0.504,0.561,1.328,0.512,1.611c-0.145-0.223-0.329-0.641-0.832-1.043
							c-0.281-0.261-0.886-0.538-1.107-0.607C23.357,7.317,24.063,7.042,24.603,7.491z"/>
					</g>
					<g>
						<path class="st7" d="M23.824,8.974c0.621,0.419,0.696,1.23,0.676,1.516c-0.166-0.2-0.393-0.585-0.93-0.913
							c-0.305-0.218-0.928-0.411-1.151-0.449C22.582,8.969,23.244,8.603,23.824,8.974z"/>
					</g>
					<g>
						<path class="st7" d="M23.215,10.542c0.655,0.327,0.812,1.117,0.821,1.402c-0.184-0.173-0.447-0.522-1.009-0.771
							c-0.323-0.173-0.953-0.277-1.175-0.284C21.995,10.71,22.605,10.257,23.215,10.542z"/>
					</g>
					<g>
						<path class="st7" d="M22.772,12.179c0.677,0.231,0.911,0.989,0.947,1.27c-0.199-0.145-0.493-0.452-1.072-0.617
							c-0.335-0.125-0.965-0.138-1.184-0.113C21.588,12.518,22.144,11.982,22.772,12.179z"/>
					</g>
					<g>
						<path class="st7" d="M22.492,13.863c0.691,0.131,0.995,0.847,1.057,1.12c-0.211-0.115-0.531-0.376-1.119-0.456
							c-0.343-0.075-0.966,0.004-1.18,0.06C21.356,14.371,21.854,13.759,22.492,13.863z"/>
					</g>
					<g>
						<path class="st7" d="M22.373,15.574c0.696,0.028,1.066,0.695,1.153,0.957c-0.22-0.083-0.563-0.295-1.153-0.288
							c-0.347-0.024-0.958,0.145-1.165,0.233C21.294,16.245,21.732,15.565,22.373,15.574z"/>
					</g>
					<g>
						<path class="st7" d="M22.413,17.291c0.695-0.074,1.124,0.533,1.236,0.781c-0.227-0.05-0.587-0.211-1.174-0.117
							c-0.348,0.027-0.941,0.285-1.14,0.403C21.401,18.116,21.775,17.376,22.413,17.291z"/>
					</g>
					<g>
						<path class="st7" d="M22.613,18.992c0.685-0.176,1.171,0.366,1.307,0.597c-0.231-0.017-0.605-0.124-1.182,0.055
							c-0.344,0.077-0.913,0.421-1.102,0.567C21.679,19.96,21.985,19.169,22.613,18.992z"/>
					</g>
					<g>
						<path class="st7" d="M22.975,20.654c0.668-0.275,1.205,0.195,1.364,0.406c-0.232,0.017-0.616-0.036-1.175,0.225
							c-0.337,0.127-0.874,0.551-1.049,0.722C22.132,21.753,22.363,20.922,22.975,20.654z"/>
					</g>
					<g>
						<path class="st7" d="M23.501,22.259c0.641-0.369,1.224,0.023,1.405,0.211c-0.23,0.049-0.618,0.051-1.151,0.391
							c-0.324,0.174-0.819,0.672-0.978,0.867C22.768,23.472,22.916,22.613,23.501,22.259z"/>
					</g>
					<g>
						<path class="st7" d="M24.196,23.786c0.602-0.458,1.225-0.148,1.425,0.017c-0.223,0.081-0.61,0.137-1.106,0.551
							c-0.305,0.219-0.747,0.783-0.885,0.999C23.591,25.098,23.647,24.222,24.196,23.786z"/>
					</g>
					<g>
						<path class="st7" d="M25.06,25.218c0.55-0.54,1.204-0.314,1.423-0.175c-0.212,0.112-0.59,0.221-1.038,0.701
							c-0.279,0.26-0.655,0.883-0.767,1.117C24.607,26.612,24.561,25.729,25.06,25.218z"/>
					</g>
					<g>
						<path class="st7" d="M26.092,26.541c0.483-0.615,1.159-0.475,1.391-0.363c-0.197,0.14-0.558,0.3-0.943,0.842
							c-0.245,0.298-0.541,0.972-0.622,1.22C25.815,27.998,25.656,27.119,26.092,26.541z"/>
					</g>
				</g>
			</g>
			<g>
				<path class="st34" d="M4.617,4.757C7.624,7.531,9.244,11.525,9.243,16c0.001,4.475-1.62,8.469-4.627,11.243
					c0.177,0.18,0.359,0.355,0.545,0.526C8.295,24.848,9.924,20.674,9.925,16c-0.001-4.674-1.63-8.848-4.763-11.769
					C4.976,4.402,4.794,4.578,4.617,4.757z"/>
				<g>
					<g>
						<path class="st7" d="M5.336,27.151c-0.436-0.652-0.229-1.472-0.118-1.74c0.09,0.261,0.172,0.727,0.568,1.26
							c0.213,0.333,0.742,0.766,0.945,0.891C6.517,27.647,5.751,27.739,5.336,27.151z"/>
					</g>
					<g>
						<path class="st7" d="M6.449,25.888c-0.513-0.582-0.405-1.409-0.325-1.686c0.119,0.244,0.256,0.688,0.712,1.159
							c0.251,0.299,0.825,0.657,1.039,0.755C7.677,26.227,6.935,26.411,6.449,25.888z"/>
					</g>
					<g>
						<path class="st7" d="M7.397,24.509c-0.574-0.504-0.561-1.328-0.512-1.611c0.145,0.223,0.329,0.641,0.832,1.043
							c0.281,0.261,0.886,0.538,1.107,0.607C8.643,24.683,7.937,24.958,7.397,24.509z"/>
					</g>
					<g>
						<path class="st7" d="M8.176,23.026C7.555,22.608,7.48,21.796,7.5,21.51c0.166,0.2,0.393,0.585,0.93,0.913
							c0.305,0.218,0.928,0.411,1.151,0.449C9.418,23.031,8.756,23.397,8.176,23.026z"/>
					</g>
					<g>
						<path class="st7" d="M8.786,21.458c-0.655-0.327-0.812-1.117-0.821-1.402c0.184,0.173,0.447,0.522,1.009,0.771
							c0.323,0.173,0.953,0.277,1.175,0.284C10.005,21.29,9.395,21.743,8.786,21.458z"/>
					</g>
					<g>
						<path class="st7" d="M9.228,19.821c-0.677-0.231-0.911-0.989-0.947-1.27c0.199,0.145,0.493,0.452,1.072,0.617
							c0.335,0.125,0.965,0.138,1.184,0.113C10.412,19.482,9.856,20.018,9.228,19.821z"/>
					</g>
					<g>
						<path class="st7" d="M9.508,18.137c-0.691-0.131-0.995-0.847-1.057-1.12c0.211,0.115,0.531,0.376,1.119,0.456
							c0.343,0.075,0.966-0.003,1.18-0.06C10.644,17.629,10.146,18.241,9.508,18.137z"/>
					</g>
					<g>
						<path class="st7" d="M9.627,16.426c-0.696-0.028-1.066-0.695-1.153-0.957c0.22,0.083,0.563,0.295,1.153,0.288
							c0.347,0.024,0.958-0.145,1.165-0.233C10.706,15.755,10.269,16.435,9.627,16.426z"/>
					</g>
					<g>
						<path class="st7" d="M9.587,14.709c-0.695,0.074-1.124-0.533-1.236-0.781c0.227,0.05,0.587,0.21,1.174,0.117
							c0.348-0.027,0.941-0.285,1.14-0.403C10.599,13.884,10.225,14.624,9.587,14.709z"/>
					</g>
					<g>
						<path class="st7" d="M9.387,13.008c-0.685,0.176-1.171-0.366-1.307-0.597c0.231,0.017,0.605,0.124,1.182-0.055
							c0.344-0.077,0.913-0.421,1.102-0.567C10.321,12.04,10.016,12.831,9.387,13.008z"/>
					</g>
					<g>
						<path class="st7" d="M9.026,11.346c-0.668,0.275-1.205-0.195-1.364-0.406c0.232-0.017,0.616,0.036,1.175-0.225
							c0.337-0.127,0.874-0.551,1.049-0.722C9.868,10.247,9.637,11.078,9.026,11.346z"/>
					</g>
					<g>
						<path class="st7" d="M8.499,9.741C7.858,10.11,7.275,9.718,7.095,9.53c0.23-0.049,0.618-0.051,1.151-0.391
							c0.324-0.174,0.819-0.672,0.978-0.867C9.232,8.528,9.084,9.387,8.499,9.741z"/>
					</g>
					<g>
						<path class="st7" d="M7.804,8.214C7.202,8.672,6.579,8.362,6.379,8.197c0.223-0.081,0.61-0.137,1.106-0.551
							C7.79,7.428,8.233,6.864,8.37,6.648C8.409,6.902,8.353,7.778,7.804,8.214z"/>
					</g>
					<g>
						<path class="st7" d="M6.94,6.782c-0.55,0.54-1.204,0.314-1.423,0.175c0.212-0.112,0.59-0.221,1.038-0.701
							c0.279-0.26,0.655-0.883,0.767-1.117C7.393,5.388,7.44,6.271,6.94,6.782z"/>
					</g>
					<g>
						<path class="st7" d="M5.908,5.459C5.425,6.074,4.749,5.934,4.516,5.822c0.196-0.14,0.558-0.3,0.943-0.842
							C5.704,4.682,6,4.009,6.081,3.761C6.185,4.002,6.344,4.882,5.908,5.459z"/>
					</g>
				</g>
			</g>
		</g>
	</g>
</g>
</svg>
