<?xml version="1.0" encoding="utf-8"?>
<!-- Generator: Adobe Illustrator 21.1.0, SVG Export Plug-In . SVG Version: 6.00 Build 0)  -->
<svg version="1.1" id="Layer_1" xmlns="http://www.w3.org/2000/svg" xmlns:xlink="http://www.w3.org/1999/xlink" x="0px" y="0px"
	 viewBox="0 0 32 32" style="enable-background:new 0 0 32 32;" xml:space="preserve">
<style type="text/css">
	.st0{fill:#45CBEA;}
	.st1{fill:#FFD93B;}
	.st2{fill:#F4C534;}
	.st3{fill:#3E4347;}
	.st4{opacity:0.2;}
	.st5{fill:#DE9C25;}
	.st6{fill:#FFFFFF;}
	.st7{fill:#E24B4B;}
	.st8{fill:#8CC63E;}
	.st9{fill:#D03F3F;}
	.st10{fill:#846144;}
	.st11{fill:#5A5F63;}
	.st12{fill:#777B7E;}
	.st13{fill:#FFDC97;}
	.st14{fill:#FFE9AB;}
	.st15{fill:#93979A;}
	.st16{fill:#FFD68D;}
	.st17{fill:#728389;}
	.st18{fill:#DAE5EF;}
	.st19{fill:#65B1EF;}
	.st20{fill:#F2F7F9;}
	.st21{fill:#8D9BA3;}
	.st22{opacity:0.2;fill:#F2F7F9;}
	.st23{fill:#E9EFF4;}
	.st24{fill:#FC97B2;}
	.st25{fill:#E84D88;}
	.st26{fill:#A5856D;}
	.st27{fill:#E9B02C;}
	.st28{fill:#7FB239;}
	.st29{fill:#CBD6E0;}
	.st30{fill:#ACB9C1;}
	.st31{fill:#8F6D52;}
	.st32{opacity:0.2;fill:#FFFFFF;}
	.st33{fill:#9A795F;}
	.st34{fill:#BBC7D1;}
	.st35{fill:#E18823;}
	.st36{fill:#F29A2E;}
	.st37{fill:#89664C;}
	.st38{fill:#D3D9DD;}
	.st39{fill:#DEE4E9;}
	.st40{fill:#AD2727;}
	.st41{fill:#719D34;}
	.st42{fill:#353A3D;}
	.st43{opacity:0.25;}
	.st44{opacity:0.2;fill:#3E4347;}
	.st45{fill:#373C3F;}
	.st46{opacity:0.1;}
	.st47{opacity:0.06;}
	.st48{fill:#7A5B44;}
	.st49{fill:#6B503B;}
	.st50{fill:#31373A;}
	.st51{fill:#59A5E0;}
	.st52{fill:#363B3F;}
	.st53{fill:#BF3333;}
	.st54{opacity:0.3;}
	.st55{fill:#4E99D2;}
	.st56{opacity:0.15;}
	.st57{opacity:0.1;fill:#3E4347;}
	.st58{fill:#64892F;}
	.st59{opacity:0.08;fill:#FFFFFF;}
	.st60{opacity:0.1;fill:#FFFFFF;}
</style>
<g>
	<g>
		<g>
			<path class="st39" d="M22.453,18.371c0.42-0.449,0.838-0.893,1.252-1.327c0.225,0.24,0.457,0.49,0.686,0.737
				c0.202-0.093,0.402-0.195,0.601-0.301c-0.281-0.302-0.563-0.607-0.838-0.9c0.408-0.424,0.816-0.845,1.223-1.26
				c0.373,0.382,0.756,0.774,1.144,1.172c0.171-0.131,0.342-0.262,0.508-0.404c-0.407-0.418-0.807-0.827-1.198-1.227
				c0.408-0.412,0.818-0.822,1.23-1.23c0.4,0.391,0.809,0.79,1.227,1.198c0.142-0.166,0.273-0.337,0.404-0.508
				c-0.398-0.388-0.79-0.771-1.172-1.144c0.415-0.407,0.836-0.815,1.26-1.223c0.294,0.276,0.598,0.558,0.9,0.838
				c0.107-0.199,0.209-0.399,0.302-0.601c-0.246-0.229-0.496-0.461-0.737-0.686c0.434-0.414,0.877-0.832,1.326-1.252
				c0.02,0.018,0.042,0.037,0.062,0.056c0.096-0.399,0.172-0.798,0.214-1.195c-0.093,0.086-0.191,0.175-0.283,0.262
				C30.118,8.97,29.68,8.569,29.25,8.171c0.446-0.424,0.9-0.854,1.367-1.293c0.065,0.059,0.134,0.12,0.2,0.179
				c-0.051-0.368-0.124-0.729-0.227-1.08c-0.429-0.393-0.856-0.785-1.273-1.176c0.172-0.168,0.355-0.345,0.53-0.516
				c-0.114-0.185-0.237-0.366-0.37-0.54c-0.209,0.203-0.424,0.413-0.629,0.612c-0.425-0.401-0.847-0.804-1.264-1.207
				c0.207-0.211,0.425-0.433,0.637-0.649c-0.175-0.132-0.354-0.257-0.54-0.37c-0.185,0.189-0.377,0.385-0.559,0.57
				c-0.419-0.409-0.837-0.823-1.254-1.24c0.022-0.023,0.046-0.049,0.068-0.072c-0.421-0.117-0.852-0.205-1.295-0.249
				c0.109,0.111,0.218,0.224,0.327,0.334c-0.429,0.453-0.849,0.895-1.264,1.329c-0.412-0.417-0.826-0.843-1.242-1.272
				c0.111-0.119,0.225-0.243,0.336-0.363c-0.445,0.052-0.891,0.138-1.337,0.257c0.036,0.037,0.073,0.077,0.109,0.114
				c-0.401,0.427-0.799,0.849-1.194,1.262c-0.229-0.235-0.465-0.481-0.698-0.722c-0.201,0.095-0.398,0.203-0.595,0.312
				c0.283,0.294,0.568,0.59,0.844,0.874c-0.391,0.406-0.782,0.809-1.173,1.206C18.39,4.1,18.016,3.721,17.64,3.339
				c-0.17,0.132-0.34,0.264-0.505,0.407c0.394,0.4,0.784,0.795,1.166,1.181c-0.389,0.392-0.78,0.784-1.173,1.173
				c-0.386-0.382-0.781-0.772-1.181-1.166c-0.143,0.165-0.276,0.335-0.408,0.505c0.382,0.376,0.76,0.75,1.129,1.115
				c-0.397,0.39-0.8,0.781-1.206,1.172c-0.285-0.277-0.581-0.562-0.874-0.845c-0.109,0.197-0.217,0.395-0.312,0.596
				c0.241,0.233,0.487,0.469,0.722,0.698c-0.413,0.395-0.835,0.794-1.262,1.194C13.7,9.333,13.66,9.296,13.623,9.26
				c-0.119,0.446-0.205,0.893-0.257,1.337c0.12-0.112,0.245-0.226,0.364-0.337c0.43,0.416,0.855,0.83,1.272,1.242
				c-0.434,0.415-0.875,0.835-1.329,1.264c-0.11-0.109-0.224-0.218-0.335-0.327c0.044,0.444,0.132,0.875,0.249,1.296
				c0.024-0.022,0.049-0.046,0.073-0.069c0.416,0.416,0.831,0.835,1.24,1.254c-0.185,0.182-0.381,0.374-0.57,0.56
				c0.113,0.186,0.238,0.365,0.37,0.54c0.216-0.212,0.439-0.431,0.65-0.638c0.404,0.417,0.806,0.84,1.207,1.264
				c-0.199,0.204-0.409,0.42-0.612,0.629c0.174,0.133,0.355,0.256,0.54,0.37c0.171-0.175,0.348-0.358,0.516-0.53
				c0.391,0.418,0.783,0.844,1.176,1.274c0.351,0.102,0.711,0.176,1.079,0.226c-0.059-0.065-0.119-0.134-0.178-0.199
				c0.439-0.467,0.869-0.921,1.293-1.367c0.397,0.429,0.799,0.867,1.204,1.313c-0.086,0.093-0.175,0.19-0.262,0.283
				c0.397-0.043,0.795-0.118,1.194-0.214C22.49,18.412,22.471,18.391,22.453,18.371z M20.437,6.163
				c-0.405-0.407-0.814-0.819-1.229-1.237c0.389-0.396,0.779-0.797,1.168-1.202c0.414,0.425,0.823,0.841,1.227,1.25
				C21.214,5.376,20.825,5.771,20.437,6.163z M23.257,3.268c-0.405,0.422-0.806,0.837-1.202,1.245
				c-0.405-0.41-0.814-0.827-1.229-1.252c0.395-0.412,0.793-0.834,1.193-1.26C22.433,2.429,22.846,2.851,23.257,3.268z
				 M15.468,11.057c-0.416-0.41-0.84-0.824-1.268-1.238c0.426-0.401,0.849-0.799,1.261-1.194c0.425,0.415,0.843,0.824,1.252,1.229
				C16.305,10.251,15.89,10.652,15.468,11.057z M17.176,9.404c-0.409-0.404-0.826-0.813-1.25-1.227
				c0.404-0.39,0.806-0.78,1.201-1.168c0.418,0.414,0.83,0.823,1.237,1.229C17.972,8.625,17.576,9.013,17.176,9.404z M18.823,7.783
				c-0.407-0.405-0.818-0.814-1.236-1.228c0.391-0.387,0.781-0.777,1.168-1.168c0.414,0.417,0.823,0.829,1.228,1.236
				C19.597,7.011,19.211,7.397,18.823,7.783z M22.075,7.803c-0.393-0.392-0.786-0.785-1.182-1.182
				c0.388-0.392,0.776-0.787,1.166-1.187c0.208,0.21,0.418,0.422,0.625,0.629c0.189,0.189,0.376,0.375,0.564,0.561
				C22.854,7.02,22.464,7.413,22.075,7.803z M23.702,6.165c-0.395-0.393-0.793-0.791-1.193-1.194
				c0.396-0.408,0.797-0.823,1.202-1.245c0.114,0.114,0.227,0.231,0.341,0.344c0.289,0.289,0.579,0.576,0.869,0.863
				C24.509,5.35,24.103,5.761,23.702,6.165z M25.459,1.969c0.401,0.401,0.804,0.797,1.208,1.192c-0.439,0.447-0.868,0.882-1.29,1.31
				c-0.406-0.4-0.813-0.805-1.218-1.212c0.414-0.433,0.834-0.875,1.263-1.328C25.434,1.944,25.447,1.957,25.459,1.969z
				 M15.361,14.468c-0.406-0.416-0.817-0.831-1.23-1.244c0.454-0.43,0.896-0.85,1.33-1.265c0.407,0.405,0.812,0.811,1.212,1.218
				C16.244,13.599,15.808,14.028,15.361,14.468z M17.132,12.723c-0.398-0.404-0.801-0.809-1.206-1.211
				c0.422-0.405,0.838-0.806,1.246-1.203c0.403,0.4,0.801,0.798,1.194,1.193C17.961,11.903,17.549,12.31,17.132,12.723z
				 M18.824,11.047c-0.392-0.394-0.788-0.79-1.189-1.189c0.4-0.39,0.795-0.778,1.186-1.166c0.397,0.396,0.79,0.789,1.182,1.182
				C19.613,10.263,19.221,10.654,18.824,11.047z M20.46,9.418c-0.392-0.393-0.785-0.785-1.18-1.18
				c0.388-0.385,0.774-0.771,1.159-1.159c0.197,0.198,0.396,0.397,0.593,0.594c0.196,0.196,0.392,0.391,0.588,0.587
				C21.233,8.647,20.847,9.032,20.46,9.418z M28.383,4.81c-0.451,0.44-0.892,0.872-1.324,1.296c-0.41-0.393-0.819-0.787-1.222-1.182
				c0.423-0.428,0.852-0.864,1.292-1.312C27.543,4.013,27.962,4.411,28.383,4.81z M22.532,8.258c0.389-0.39,0.78-0.783,1.174-1.181
				c0.395,0.39,0.79,0.778,1.186,1.164c-0.4,0.396-0.795,0.789-1.189,1.18C23.311,9.032,22.921,8.645,22.532,8.258z M23.245,9.877
				c-0.39,0.389-0.779,0.778-1.168,1.168c-0.388-0.392-0.775-0.781-1.161-1.169c0.387-0.387,0.774-0.773,1.16-1.16
				C22.464,9.102,22.854,9.488,23.245,9.877z M20.458,10.332c0.387,0.389,0.774,0.779,1.163,1.171
				c-0.391,0.393-0.784,0.789-1.18,1.189c-0.386-0.396-0.773-0.791-1.163-1.186C19.675,11.111,20.068,10.721,20.458,10.332z
				 M24.161,6.619c0.402-0.405,0.809-0.817,1.222-1.235c0.402,0.393,0.806,0.785,1.214,1.176c-0.421,0.414-0.836,0.823-1.245,1.227
				C24.954,7.4,24.557,7.011,24.161,6.619z M18.82,11.96c0.392,0.397,0.781,0.793,1.168,1.19c-0.405,0.41-0.814,0.825-1.229,1.248
				c-0.391-0.408-0.783-0.814-1.175-1.215C18.002,12.77,18.415,12.362,18.82,11.96z M15.811,14.93
				c0.448-0.441,0.885-0.871,1.314-1.294c0.395,0.404,0.789,0.812,1.182,1.222c-0.425,0.433-0.857,0.874-1.298,1.326
				C16.611,15.763,16.211,15.344,15.811,14.93z M28.782,8.617c0.429,0.397,0.864,0.796,1.309,1.201
				c-0.446,0.417-0.886,0.833-1.317,1.244c-0.432-0.406-0.857-0.809-1.277-1.208C27.918,9.446,28.346,9.034,28.782,8.617z
				 M27.033,10.304c0.419,0.399,0.844,0.801,1.275,1.207c-0.421,0.405-0.839,0.81-1.25,1.214c-0.423-0.414-0.839-0.822-1.247-1.223
				C26.214,11.103,26.621,10.705,27.033,10.304z M28.853,5.253c0.422,0.395,0.852,0.792,1.286,1.188
				c-0.465,0.437-0.918,0.866-1.362,1.289c-0.422-0.394-0.841-0.786-1.252-1.177C27.959,6.127,28.401,5.695,28.853,5.253z
				 M27.064,7.006c0.409,0.389,0.823,0.779,1.244,1.172c-0.434,0.414-0.86,0.824-1.279,1.23c-0.409-0.391-0.813-0.78-1.215-1.17
				C26.224,7.832,26.641,7.421,27.064,7.006z M25.355,8.691c0.401,0.389,0.804,0.777,1.211,1.166
				c-0.409,0.399-0.814,0.795-1.215,1.191c-0.401-0.395-0.797-0.786-1.189-1.173C24.556,9.483,24.953,9.088,25.355,8.691z
				 M23.704,10.331c0.392,0.387,0.786,0.777,1.188,1.172c-0.398,0.395-0.794,0.791-1.188,1.188
				c-0.394-0.401-0.785-0.796-1.172-1.188C22.922,11.112,23.312,10.721,23.704,10.331z M22.076,11.961
				c0.387,0.392,0.778,0.788,1.173,1.189c-0.396,0.401-0.792,0.805-1.191,1.215c-0.39-0.407-0.778-0.81-1.166-1.211
				C21.289,12.753,21.683,12.356,22.076,11.961z M20.438,13.613c0.39,0.402,0.78,0.806,1.17,1.215
				c-0.406,0.42-0.817,0.847-1.232,1.281c-0.391-0.42-0.782-0.837-1.171-1.245C19.622,14.441,20.032,14.024,20.438,13.613z
				 M17.453,16.654c0.442-0.453,0.875-0.895,1.301-1.329c0.39,0.411,0.783,0.83,1.177,1.252c-0.423,0.445-0.852,0.898-1.29,1.363
				C18.244,17.506,17.848,17.076,17.453,16.654z M25.352,11.956c0.409,0.402,0.822,0.808,1.246,1.223
				c-0.408,0.404-0.816,0.811-1.22,1.22c-0.414-0.423-0.821-0.838-1.223-1.247C24.553,12.751,24.952,12.353,25.352,11.956z
				 M23.702,13.611c0.401,0.408,0.809,0.824,1.223,1.247c-0.404,0.412-0.809,0.829-1.214,1.25c-0.406-0.432-0.808-0.856-1.207-1.275
				C22.905,14.421,23.304,14.014,23.702,13.611z M20.818,16.582c0.417-0.436,0.828-0.865,1.236-1.286
				c0.4,0.42,0.802,0.845,1.208,1.277c-0.411,0.431-0.827,0.872-1.244,1.318C21.614,17.447,21.214,17.01,20.818,16.582z"/>
		</g>
		<path class="st36" d="M29.689,2.311c-3.509-3.509-9.768-2.959-13.952,1.225c-1.516,1.516-2.547,3.304-3.089,5.135l-0.011-0.003
			l-0.157,0.564c-0.782,2.804-1.383,4.965-1.739,6.647c-0.405,1.915-1.341,3.671-2.726,5.055l0,0l3.052,3.052l0.001-0.001
			c1.387-1.387,3.147-2.324,5.067-2.728c1.664-0.35,3.775-0.938,6.459-1.687l0.739-0.206l-0.003-0.011
			c1.831-0.542,3.619-1.573,5.135-3.089C32.648,12.079,33.198,5.82,29.689,2.311z M12.675,14.522
			c0.38,1.104,0.987,2.117,1.836,2.966c0.852,0.852,1.867,1.459,2.973,1.839c-2.829,0.714-4.683,1.002-5.244,0.44
			C11.681,19.208,11.965,17.35,12.675,14.522z M15.621,16.379c-2.897-2.897-2.348-8.16,1.225-11.733
			c3.573-3.573,8.836-4.122,11.733-1.225c2.897,2.897,2.348,8.16-1.225,11.733C23.782,18.726,18.518,19.276,15.621,16.379z"/>
		<g>
			<g>
				<path class="st3" d="M11.871,23.773c-0.772,0.772-1.134,0.409-1.905,1.181c-0.772,0.772-0.409,1.134-1.181,1.905
					c-0.77,0.77-1.133,0.408-1.903,1.178c-0.77,0.77-0.408,1.132-1.178,1.903c-0.77,0.77-1.429,0.111-2.199,0.881l0.33,0.33
					l-3.315-3.315l7.707-7.707l3.315,3.315L11.871,23.773z"/>
			</g>
			<g>
				<g>
					<path class="st11" d="M11.191,24.11L7.89,20.809c-0.326-0.326-0.326-0.855,0-1.181l0,0c0.326-0.326,0.855-0.326,1.181,0
						l3.301,3.301c0.326,0.326,0.326,0.855,0,1.181l0,0C12.047,24.436,11.518,24.436,11.191,24.11z"/>
				</g>
				<g>
					<path class="st11" d="M3.546,31.755l-3.301-3.301c-0.326-0.326-0.326-0.855,0-1.181l0,0c0.326-0.326,0.855-0.326,1.181,0
						l3.301,3.301c0.326,0.326,0.326,0.855,0,1.181l0,0C4.401,32.082,3.872,32.082,3.546,31.755z"/>
				</g>
			</g>
		</g>
	</g>
	<g>
		<g>
			<g>
				<circle class="st8" cx="25.285" cy="26.392" r="3.792"/>
			</g>
			<g>
				<path class="st28" d="M29.078,26.392c0,2.092-1.697,3.792-3.792,3.792c-1.397,0-2.621-0.759-3.277-1.887
					c0.665,0.453,1.468,0.717,2.331,0.717c2.297,0,4.154-1.863,4.154-4.154c0-0.184-0.012-0.367-0.036-0.545
					C28.851,24.91,29.078,25.624,29.078,26.392z"/>
			</g>
			<g>
				<path class="st6" d="M26.845,26.392c0-1.039,0.467-1.969,1.2-2.596c-0.078-0.083-0.16-0.162-0.245-0.237
					c-0.792,0.69-1.296,1.703-1.296,2.834c0,1.13,0.504,2.143,1.296,2.833c0.085-0.076,0.167-0.155,0.245-0.237
					C27.312,28.359,26.845,27.43,26.845,26.392z"/>
				<path class="st6" d="M22.526,23.796c0.733,0.627,1.199,1.557,1.199,2.595c0,1.038-0.466,1.967-1.199,2.595
					c0.078,0.083,0.16,0.162,0.245,0.237c0.791-0.69,1.295-1.702,1.295-2.832c0-1.13-0.504-2.143-1.296-2.833
					C22.686,23.634,22.604,23.713,22.526,23.796z"/>
			</g>
		</g>
		<g>
			<path class="st23" d="M27.8,29.224c0.085-0.076,0.167-0.155,0.245-0.237c-0.356-0.305-0.648-0.681-0.855-1.106
				c-0.085,0.08-0.174,0.157-0.265,0.23C27.144,28.535,27.442,28.913,27.8,29.224z"/>
			<path class="st23" d="M22.527,28.986c0.078,0.083,0.16,0.162,0.245,0.237c0.136-0.119,0.263-0.248,0.381-0.384
				c-0.118-0.035-0.235-0.074-0.348-0.12C22.717,28.813,22.625,28.903,22.527,28.986z"/>
		</g>
	</g>
</g>
</svg>
