<?xml version="1.0" encoding="utf-8"?>
<!-- Generator: Adobe Illustrator 21.1.0, SVG Export Plug-In . SVG Version: 6.00 Build 0)  -->
<svg version="1.1" id="Layer_1" xmlns="http://www.w3.org/2000/svg" xmlns:xlink="http://www.w3.org/1999/xlink" x="0px" y="0px"
	 viewBox="0 0 32 32" style="enable-background:new 0 0 32 32;" xml:space="preserve">
<style type="text/css">
	.st0{fill:#45CBEA;}
	.st1{fill:#FFD93B;}
	.st2{fill:#F4C534;}
	.st3{fill:#3E4347;}
	.st4{opacity:0.2;}
	.st5{fill:#DE9C25;}
	.st6{fill:#FFFFFF;}
	.st7{fill:#E24B4B;}
	.st8{fill:#8CC63E;}
	.st9{fill:#D03F3F;}
	.st10{fill:#846144;}
	.st11{fill:#5A5F63;}
	.st12{fill:#777B7E;}
	.st13{fill:#FFDC97;}
	.st14{fill:#FFE9AB;}
	.st15{fill:#93979A;}
	.st16{fill:#FFD68D;}
	.st17{fill:#728389;}
	.st18{fill:#DAE5EF;}
	.st19{fill:#65B1EF;}
	.st20{fill:#F2F7F9;}
	.st21{fill:#8D9BA3;}
	.st22{opacity:0.2;fill:#F2F7F9;}
	.st23{fill:#E9EFF4;}
	.st24{fill:#FC97B2;}
	.st25{fill:#E84D88;}
	.st26{fill:#A5856D;}
	.st27{fill:#E9B02C;}
	.st28{fill:#7FB239;}
	.st29{fill:#CBD6E0;}
	.st30{fill:#ACB9C1;}
	.st31{fill:#8F6D52;}
	.st32{opacity:0.2;fill:#FFFFFF;}
	.st33{fill:#9A795F;}
	.st34{fill:#BBC7D1;}
	.st35{fill:#E18823;}
	.st36{fill:#F29A2E;}
	.st37{fill:#89664C;}
	.st38{fill:#D3D9DD;}
	.st39{fill:#DEE4E9;}
	.st40{fill:#AD2727;}
	.st41{fill:#719D34;}
	.st42{fill:#353A3D;}
	.st43{opacity:0.25;}
	.st44{opacity:0.2;fill:#3E4347;}
	.st45{fill:#373C3F;}
	.st46{opacity:0.1;}
	.st47{opacity:0.06;}
	.st48{fill:#7A5B44;}
	.st49{fill:#6B503B;}
	.st50{fill:#31373A;}
	.st51{fill:#59A5E0;}
	.st52{fill:#363B3F;}
	.st53{fill:#BF3333;}
	.st54{opacity:0.3;}
	.st55{fill:#4E99D2;}
	.st56{opacity:0.15;}
	.st57{opacity:0.1;fill:#3E4347;}
	.st58{fill:#64892F;}
	.st59{opacity:0.08;fill:#FFFFFF;}
	.st60{opacity:0.1;fill:#FFFFFF;}
</style>
<g>
	<g>
		<g>
			<g>
				<ellipse transform="matrix(0.7071 -0.7071 0.7071 0.7071 -6.6266 15.9994)" class="st23" cx="16" cy="15.999" rx="16" ry="16"/>
			</g>
		</g>
		<g>
			<g>
				<g>
					<g>
						<polygon class="st34" points="0.166,20.581 0.166,20.572 1.166,20.572 						"/>
					</g>
				</g>
			</g>
		</g>
		<path class="st34" d="M25.398,28.926c0.582-0.424,1.144-0.885,1.676-1.397c1.903-5.021,2.593-11.181-0.378-15.805
			c1.427-0.082,3.024-0.003,4.779,0.271c-0.091-0.354-0.194-0.705-0.31-1.053c-9.735-1.364-14.389,3.345-15.373,4.515
			c-0.539-0.104-1.906-0.456-3.582-1.447c2.932-5.974,10.011-8.395,16.119-8.201c-0.287-0.346-0.591-0.682-0.911-1.008
			c-6.176,0.068-13.048,2.675-16.053,8.667c-1.214-0.838-2.52-2.021-3.755-3.675c2.354-5.152,8.873-7.846,14.895-8.398
			c-0.664-0.296-1.339-0.556-2.03-0.757C15.168,1.496,9.474,3.979,6.95,8.871c-0.785-1.196-1.518-2.62-2.158-4.282
			C4.758,4.623,4.72,4.651,4.686,4.685c-0.232,0.232-0.438,0.48-0.653,0.722c2.211,5.401,6.278,10.098,11.601,11.041
			c0.179,0.518,0.559,1.878,0.539,3.827c-6.635,0.447-12.27-4.469-15.158-9.85c-0.158,0.425-0.302,0.853-0.422,1.288
			c3.288,5.576,9.05,9.937,15.533,9.556c-0.118,1.473-0.49,3.199-1.306,5.099c-5.644,0.537-11.241-3.768-14.73-8.713
			c0.076,0.736,0.216,1.465,0.394,2.188c3.519,4.316,8.529,7.825,13.858,7.575c-0.642,1.273-1.506,2.613-2.618,3.992
			c0.353,0.097,0.707,0.187,1.065,0.26c6.077-7.78,4.295-14.171,3.782-15.577c0.366-0.421,1.353-1.436,3.041-2.387
			c3.711,5.524,2.272,12.863-0.947,18.057c0.446-0.075,0.888-0.172,1.328-0.285c3.026-5.384,4.2-12.636,0.511-18.232
			c1.333-0.632,3.01-1.177,5.058-1.419C28.854,16.439,27.93,23.433,25.398,28.926z"/>
	</g>
	<g class="st47">
		<g>
			<path class="st3" d="M31.996,16.001c0,8.83-7.16,16-16,16c-5.07,0-9.59-2.36-12.51-6.05c2.42,1.41,5.23,2.21,8.22,2.21
				c9.09,0,16.46-7.37,16.46-16.45c0-2.99-0.8-5.8-2.2-8.22C29.646,6.421,31.996,10.931,31.996,16.001z"/>
		</g>
	</g>
</g>
</svg>
