<?xml version="1.0" encoding="utf-8"?>
<!-- Generator: Adobe Illustrator 21.1.0, SVG Export Plug-In . SVG Version: 6.00 Build 0)  -->
<svg version="1.1" id="Layer_1" xmlns="http://www.w3.org/2000/svg" xmlns:xlink="http://www.w3.org/1999/xlink" x="0px" y="0px"
	 viewBox="0 0 32 32" style="enable-background:new 0 0 32 32;" xml:space="preserve">
<style type="text/css">
	.st0{fill:#45CBEA;}
	.st1{fill:#FFD93B;}
	.st2{fill:#F4C534;}
	.st3{fill:#3E4347;}
	.st4{opacity:0.2;}
	.st5{fill:#DE9C25;}
	.st6{fill:#FFFFFF;}
	.st7{fill:#E24B4B;}
	.st8{fill:#8CC63E;}
	.st9{fill:#D03F3F;}
	.st10{fill:#846144;}
	.st11{fill:#5A5F63;}
	.st12{fill:#777B7E;}
	.st13{fill:#FFDC97;}
	.st14{fill:#FFE9AB;}
	.st15{fill:#93979A;}
	.st16{fill:#FFD68D;}
	.st17{fill:#728389;}
	.st18{fill:#DAE5EF;}
	.st19{fill:#65B1EF;}
	.st20{fill:#F2F7F9;}
	.st21{fill:#8D9BA3;}
	.st22{opacity:0.2;fill:#F2F7F9;}
	.st23{fill:#E9EFF4;}
	.st24{fill:#FC97B2;}
	.st25{fill:#E84D88;}
	.st26{fill:#A5856D;}
	.st27{fill:#E9B02C;}
	.st28{fill:#7FB239;}
	.st29{fill:#CBD6E0;}
	.st30{fill:#ACB9C1;}
	.st31{fill:#8F6D52;}
	.st32{opacity:0.2;fill:#FFFFFF;}
	.st33{fill:#9A795F;}
	.st34{fill:#BBC7D1;}
	.st35{fill:#E18823;}
	.st36{fill:#F29A2E;}
	.st37{fill:#89664C;}
	.st38{fill:#D3D9DD;}
	.st39{fill:#DEE4E9;}
	.st40{fill:#AD2727;}
	.st41{fill:#719D34;}
	.st42{fill:#353A3D;}
	.st43{opacity:0.25;}
	.st44{opacity:0.2;fill:#3E4347;}
	.st45{fill:#373C3F;}
	.st46{opacity:0.1;}
	.st47{opacity:0.06;}
	.st48{fill:#7A5B44;}
	.st49{fill:#6B503B;}
	.st50{fill:#31373A;}
	.st51{fill:#59A5E0;}
	.st52{fill:#363B3F;}
	.st53{fill:#BF3333;}
	.st54{opacity:0.3;}
	.st55{fill:#4E99D2;}
	.st56{opacity:0.15;}
	.st57{opacity:0.1;fill:#3E4347;}
	.st58{fill:#64892F;}
	.st59{opacity:0.08;fill:#FFFFFF;}
	.st60{opacity:0.1;fill:#FFFFFF;}
</style>
<g>
	<g>
		<g>
			<g>
				<g>
					<g>
						<circle class="st3" cx="16" cy="15.998" r="16"/>
					</g>
				</g>
			</g>
		</g>
	</g>
	<g>
		<g>
			<g>
				<g>
					<g>
						<path class="st50" d="M31.996,16.001c0,8.83-7.16,16-16,16c-5.05,0-9.56-2.35-12.49-6.02c2.45,1.36,5.27,2.14,8.27,2.14
							c9.46,0,17.13-7.67,17.13-17.13c0-1.97-0.33-3.86-0.95-5.62C30.466,8.191,31.996,11.921,31.996,16.001z"/>
					</g>
				</g>
			</g>
		</g>
	</g>
	<g>
		<g>
			<circle class="st6" cx="16" cy="12.007" r="7.531"/>
		</g>
		<g>
			<path class="st3" d="M14.611,11.609c-0.426-0.18-0.735-0.427-0.929-0.741s-0.29-0.659-0.29-1.034c0-0.641,0.224-1.17,0.671-1.588
				s1.083-0.627,1.907-0.627c0.816,0,1.45,0.209,1.901,0.627s0.677,0.947,0.677,1.588c0,0.398-0.104,0.753-0.311,1.063
				s-0.498,0.548-0.873,0.712c0.477,0.191,0.839,0.471,1.087,0.838s0.372,0.791,0.372,1.271c0,0.793-0.253,1.438-0.759,1.934
				s-1.179,0.744-2.019,0.744c-0.781,0-1.432-0.205-1.951-0.615c-0.613-0.484-0.92-1.148-0.92-1.992c0-0.465,0.115-0.892,0.346-1.28
				S14.115,11.82,14.611,11.609z M14.799,13.63c0,0.453,0.116,0.807,0.349,1.061s0.522,0.381,0.87,0.381
				c0.34,0,0.621-0.122,0.844-0.366s0.334-0.597,0.334-1.058c0-0.402-0.113-0.726-0.34-0.97s-0.514-0.366-0.861-0.366
				c-0.402,0-0.702,0.139-0.899,0.416S14.799,13.306,14.799,13.63z M14.951,9.951c0,0.328,0.093,0.584,0.278,0.768
				s0.433,0.275,0.741,0.275c0.313,0,0.563-0.093,0.75-0.278s0.281-0.442,0.281-0.771c0-0.309-0.093-0.556-0.278-0.741
				s-0.431-0.278-0.735-0.278c-0.316,0-0.568,0.094-0.756,0.281S14.951,9.642,14.951,9.951z"/>
		</g>
	</g>
</g>
</svg>
