<?xml version="1.0" encoding="utf-8"?>
<!-- Generator: Adobe Illustrator 21.1.0, SVG Export Plug-In . SVG Version: 6.00 Build 0)  -->
<svg version="1.1" id="Layer_1" xmlns="http://www.w3.org/2000/svg" xmlns:xlink="http://www.w3.org/1999/xlink" x="0px" y="0px"
	 viewBox="0 0 32 32" style="enable-background:new 0 0 32 32;" xml:space="preserve">
<style type="text/css">
	.st0{fill:#45CBEA;}
	.st1{fill:#FFD93B;}
	.st2{fill:#F4C534;}
	.st3{fill:#3E4347;}
	.st4{opacity:0.2;}
	.st5{fill:#DE9C25;}
	.st6{fill:#FFFFFF;}
	.st7{fill:#E24B4B;}
	.st8{fill:#8CC63E;}
	.st9{fill:#D03F3F;}
	.st10{fill:#846144;}
	.st11{fill:#5A5F63;}
	.st12{fill:#777B7E;}
	.st13{fill:#FFDC97;}
	.st14{fill:#FFE9AB;}
	.st15{fill:#93979A;}
	.st16{fill:#FFD68D;}
	.st17{fill:#728389;}
	.st18{fill:#DAE5EF;}
	.st19{fill:#65B1EF;}
	.st20{fill:#F2F7F9;}
	.st21{fill:#8D9BA3;}
	.st22{opacity:0.2;fill:#F2F7F9;}
	.st23{fill:#E9EFF4;}
	.st24{fill:#FC97B2;}
	.st25{fill:#E84D88;}
	.st26{fill:#A5856D;}
	.st27{fill:#E9B02C;}
	.st28{fill:#7FB239;}
	.st29{fill:#CBD6E0;}
	.st30{fill:#ACB9C1;}
	.st31{fill:#8F6D52;}
	.st32{opacity:0.2;fill:#FFFFFF;}
	.st33{fill:#9A795F;}
	.st34{fill:#BBC7D1;}
	.st35{fill:#E18823;}
	.st36{fill:#F29A2E;}
	.st37{fill:#89664C;}
	.st38{fill:#D3D9DD;}
	.st39{fill:#DEE4E9;}
	.st40{fill:#AD2727;}
	.st41{fill:#719D34;}
	.st42{fill:#353A3D;}
	.st43{opacity:0.25;}
	.st44{opacity:0.2;fill:#3E4347;}
	.st45{fill:#373C3F;}
	.st46{opacity:0.1;}
	.st47{opacity:0.06;}
	.st48{fill:#7A5B44;}
	.st49{fill:#6B503B;}
	.st50{fill:#31373A;}
	.st51{fill:#59A5E0;}
	.st52{fill:#363B3F;}
	.st53{fill:#BF3333;}
	.st54{opacity:0.3;}
	.st55{fill:#4E99D2;}
	.st56{opacity:0.15;}
	.st57{opacity:0.1;fill:#3E4347;}
	.st58{fill:#64892F;}
	.st59{opacity:0.08;fill:#FFFFFF;}
	.st60{opacity:0.1;fill:#FFFFFF;}
</style>
<g>
	<g>
		<g>
			<g>
				<path class="st37" d="M26.576,0.841l4.909,8.684c0.468,0.829,0.172,1.875-0.652,2.34l-12.686,7.162
					c-0.824,0.465-1.874,0.179-2.342-0.65l-4.909-8.684c-0.465-0.823-0.172-1.875,0.652-2.34l12.686-7.162
					C25.058-0.274,26.111,0.018,26.576,0.841z"/>
				<g>
					
						<rect x="13.958" y="4.673" transform="matrix(0.8705 -0.4921 0.4921 0.8705 -1.9856 11.6715)" class="st19" width="14.465" height="9.873"/>
				</g>
			</g>
			<g>
				<g>
					<polygon class="st3" points="29.917,10.351 23.081,7.125 22.318,14.642 					"/>
				</g>
				<g>
					<polygon class="st23" points="23.996,9.315 24.297,9.848 24.352,8.626 24.918,8.645 24.65,8.458 26.239,8.615 26.239,8.615 
						23.081,7.125 22.676,11.115 23.159,9.895 23.256,10.788 					"/>
				</g>
			</g>
			<g>
				<polygon class="st11" points="16.54,16.08 17.321,17.463 24.985,13.136 17.211,9.467 				"/>
				<g>
					<polygon class="st6" points="18.251,11.957 18.594,12.564 18.657,11.174 19.3,11.195 18.995,10.983 20.803,11.162 
						20.803,11.162 17.211,9.467 16.75,14.005 17.299,12.618 17.41,13.632 					"/>
				</g>
			</g>
		</g>
		<g>
			<g>
				<path class="st3" d="M9.043,11.745v1.201c0,0.476-0.386,0.861-0.862,0.861H4.792c-0.476,0-0.861-0.386-0.861-0.861v-1.201
					c0-0.476,0.386-0.862,0.861-0.862h3.389C8.657,10.883,9.043,11.269,9.043,11.745z"/>
			</g>
			<g>
				<path class="st39" d="M30.112,14.52v15.34c0,1.2-0.98,2.17-2.18,2.17H2.472c-1.2,0-2.18-0.97-2.18-2.17V14.52
					c0-1.2,0.98-2.17,2.18-2.17h25.46C29.132,12.35,30.112,13.32,30.112,14.52z"/>
			</g>
			<g>
				<rect x="0.297" y="20.119" class="st7" width="29.814" height="8.248"/>
			</g>
			<g>
				<g>
					<g>
						<circle class="st3" cx="16.48" cy="22.189" r="7.567"/>
					</g>
					<g>
						<circle class="st29" cx="16.48" cy="22.189" r="5.766"/>
					</g>
					<g>
						<circle class="st6" cx="16.48" cy="22.189" r="4.782"/>
					</g>
					<g>
						<circle class="st19" cx="16.48" cy="22.189" r="2.982"/>
					</g>
				</g>
				<circle class="st6" cx="18.168" cy="20.971" r="1.218"/>
			</g>
			<g>
				<path class="st2" d="M8.236,15.81v1.525c0,0.275-0.223,0.498-0.498,0.498h-3.6c-0.275,0-0.498-0.223-0.498-0.498V15.81
					c0-0.275,0.223-0.498,0.498-0.498h3.6C8.013,15.312,8.236,15.535,8.236,15.81z"/>
			</g>
			<g>
				<g>
					<circle class="st19" cx="26.034" cy="16.793" r="1.076"/>
				</g>
				<g>
					<g>
						<path class="st51" d="M27.11,16.793c0,0.594-0.482,1.076-1.076,1.076c-0.418,0-0.781-0.239-0.959-0.588
							c0.146,0.075,0.312,0.118,0.488,0.118c0.594,0,1.076-0.482,1.076-1.076c0-0.176-0.042-0.342-0.118-0.488
							C26.871,16.011,27.11,16.374,27.11,16.793z"/>
					</g>
				</g>
				<g class="st54">
					<g>
						<g>
							
								<ellipse transform="matrix(0.7071 -0.7071 0.7071 0.7071 -4.0863 22.9343)" class="st6" cx="25.641" cy="16.4" rx="0.353" ry="0.251"/>
						</g>
					</g>
				</g>
			</g>
		</g>
	</g>
	<g>
		<ellipse class="st1" cx="20.592" cy="6.887" rx="0.98" ry="0.975"/>
	</g>
</g>
</svg>
