<?xml version="1.0" encoding="utf-8"?>
<!-- Generator: Adobe Illustrator 21.1.0, SVG Export Plug-In . SVG Version: 6.00 Build 0)  -->
<svg version="1.1" id="Layer_1" xmlns="http://www.w3.org/2000/svg" xmlns:xlink="http://www.w3.org/1999/xlink" x="0px" y="0px"
	 viewBox="0 0 32 32" style="enable-background:new 0 0 32 32;" xml:space="preserve">
<style type="text/css">
	.st0{fill:#45CBEA;}
	.st1{fill:#FFD93B;}
	.st2{fill:#F4C534;}
	.st3{fill:#3E4347;}
	.st4{opacity:0.2;}
	.st5{fill:#DE9C25;}
	.st6{fill:#FFFFFF;}
	.st7{fill:#E24B4B;}
	.st8{fill:#8CC63E;}
	.st9{fill:#D03F3F;}
	.st10{fill:#846144;}
	.st11{fill:#5A5F63;}
	.st12{fill:#777B7E;}
	.st13{fill:#FFDC97;}
	.st14{fill:#FFE9AB;}
	.st15{fill:#93979A;}
	.st16{fill:#FFD68D;}
	.st17{fill:#728389;}
	.st18{fill:#DAE5EF;}
	.st19{fill:#65B1EF;}
	.st20{fill:#F2F7F9;}
	.st21{fill:#8D9BA3;}
	.st22{opacity:0.2;fill:#F2F7F9;}
	.st23{fill:#E9EFF4;}
	.st24{fill:#FC97B2;}
	.st25{fill:#E84D88;}
	.st26{fill:#A5856D;}
	.st27{fill:#E9B02C;}
	.st28{fill:#7FB239;}
	.st29{fill:#CBD6E0;}
	.st30{fill:#ACB9C1;}
	.st31{fill:#8F6D52;}
	.st32{opacity:0.2;fill:#FFFFFF;}
	.st33{fill:#9A795F;}
	.st34{fill:#BBC7D1;}
	.st35{fill:#E18823;}
	.st36{fill:#F29A2E;}
	.st37{fill:#89664C;}
	.st38{fill:#D3D9DD;}
	.st39{fill:#DEE4E9;}
	.st40{fill:#AD2727;}
	.st41{fill:#719D34;}
	.st42{fill:#353A3D;}
	.st43{opacity:0.25;}
	.st44{opacity:0.2;fill:#3E4347;}
	.st45{fill:#373C3F;}
	.st46{opacity:0.1;}
	.st47{opacity:0.06;}
	.st48{fill:#7A5B44;}
	.st49{fill:#6B503B;}
	.st50{fill:#31373A;}
	.st51{fill:#59A5E0;}
	.st52{fill:#363B3F;}
	.st53{fill:#BF3333;}
	.st54{opacity:0.3;}
	.st55{fill:#4E99D2;}
	.st56{opacity:0.15;}
	.st57{opacity:0.1;fill:#3E4347;}
	.st58{fill:#64892F;}
	.st59{opacity:0.08;fill:#FFFFFF;}
	.st60{opacity:0.1;fill:#FFFFFF;}
</style>
<g>
	<g>
		<g>
			<path class="st23" d="M19.506,6.657c-0.609-0.89-1.019-1.562-1.019-2.737V2.436h-4.974v1.484c0,1.175-0.41,1.847-1.019,2.737
				c-1.891,2.539-2.918,5.621-2.918,8.799v14.662c0,1.036,0.846,1.882,1.882,1.882h9.084c1.036,0,1.882-0.846,1.882-1.882V15.455
				C22.424,12.278,21.397,9.195,19.506,6.657z"/>
		</g>
	</g>
	<g>
		<g>
			<rect x="9.576" y="18.212" class="st7" width="12.849" height="8.893"/>
		</g>
	</g>
	<g>
		<g>
			<rect x="9.576" y="17.936" class="st3" width="12.849" height="0.702"/>
		</g>
	</g>
	<g>
		<g>
			<rect x="9.576" y="26.679" class="st3" width="12.849" height="0.702"/>
		</g>
	</g>
	<g>
		<g>
			<path class="st7" d="M18.28,0.204v1.794c0,0.118-0.094,0.204-0.204,0.204h-4.153c-0.11,0-0.204-0.086-0.204-0.204V0.204
				C13.72,0.094,13.814,0,13.924,0h4.153C18.186,0,18.28,0.094,18.28,0.204z"/>
		</g>
		<g>
			<g>
				<path class="st9" d="M17.7,0.596v0.768c0,0.071-0.055,0.133-0.125,0.133h-0.008c-0.071,0-0.133-0.063-0.133-0.133V0.596
					c0-0.07,0.063-0.125,0.133-0.125h0.008C17.646,0.47,17.7,0.525,17.7,0.596z"/>
				<path class="st9" d="M16.447,0.596v0.768c0,0.071-0.055,0.133-0.125,0.133h-0.008c-0.078,0-0.133-0.063-0.133-0.133V0.596
					c0-0.07,0.055-0.125,0.133-0.125h0.008C16.392,0.47,16.447,0.525,16.447,0.596z"/>
				<path class="st9" d="M17.074,0.596v0.768c0,0.071-0.055,0.133-0.125,0.133H16.94c-0.071,0-0.133-0.063-0.133-0.133V0.596
					c0-0.07,0.063-0.125,0.133-0.125h0.008C17.019,0.47,17.074,0.525,17.074,0.596z"/>
				<path class="st9" d="M14.566,0.596v0.768c0,0.071-0.063,0.133-0.133,0.133h-0.008c-0.071,0-0.125-0.063-0.125-0.133V0.596
					c0-0.07,0.055-0.125,0.125-0.125h0.008C14.503,0.47,14.566,0.525,14.566,0.596z"/>
				<path class="st9" d="M15.193,0.596v0.768c0,0.071-0.063,0.133-0.133,0.133h-0.008c-0.071,0-0.125-0.063-0.125-0.133V0.596
					c0-0.07,0.055-0.125,0.125-0.125h0.008C15.13,0.47,15.193,0.525,15.193,0.596z"/>
				<path class="st9" d="M15.82,0.596v0.768c0,0.071-0.055,0.133-0.133,0.133h-0.008c-0.071,0-0.125-0.063-0.125-0.133V0.596
					c0-0.07,0.055-0.125,0.125-0.125h0.008C15.765,0.47,15.82,0.525,15.82,0.596z"/>
			</g>
		</g>
	</g>
	<g>
		<path class="st11" d="M18.515,1.909h-5.029c-0.197,0-0.358,0.16-0.358,0.358v0c0,0.197,0.16,0.358,0.358,0.358h5.029
			c0.197,0,0.358-0.16,0.358-0.358v0C18.872,2.069,18.712,1.909,18.515,1.909z"/>
	</g>
	<g>
		<circle class="st6" cx="16" cy="22.658" r="2.901"/>
	</g>
	<g>
		<path class="st19" d="M17.102,23.156c0,0.608-0.493,1.102-1.102,1.102c-0.608,0-1.102-0.493-1.102-1.102
			c0-0.608,1.102-2.171,1.102-2.171S17.102,22.547,17.102,23.156z"/>
	</g>
	<g class="st4">
		
			<ellipse transform="matrix(0.7071 -0.7071 0.7071 0.7071 -11.8705 18.5066)" class="st6" cx="16.404" cy="23.582" rx="0.352" ry="0.234"/>
	</g>
</g>
</svg>
