<?xml version="1.0" encoding="utf-8"?>
<!-- Generator: Adobe Illustrator 21.1.0, SVG Export Plug-In . SVG Version: 6.00 Build 0)  -->
<svg version="1.1" id="Layer_1" xmlns="http://www.w3.org/2000/svg" xmlns:xlink="http://www.w3.org/1999/xlink" x="0px" y="0px"
	 viewBox="0 0 32 32" style="enable-background:new 0 0 32 32;" xml:space="preserve">
<style type="text/css">
	.st0{fill:#45CBEA;}
	.st1{fill:#FFD93B;}
	.st2{fill:#F4C534;}
	.st3{fill:#3E4347;}
	.st4{opacity:0.2;}
	.st5{fill:#DE9C25;}
	.st6{fill:#FFFFFF;}
	.st7{fill:#E24B4B;}
	.st8{fill:#8CC63E;}
	.st9{fill:#D03F3F;}
	.st10{fill:#846144;}
	.st11{fill:#5A5F63;}
	.st12{fill:#777B7E;}
	.st13{fill:#FFDC97;}
	.st14{fill:#FFE9AB;}
	.st15{fill:#93979A;}
	.st16{fill:#FFD68D;}
	.st17{fill:#728389;}
	.st18{fill:#DAE5EF;}
	.st19{fill:#65B1EF;}
	.st20{fill:#F2F7F9;}
	.st21{fill:#8D9BA3;}
	.st22{opacity:0.2;fill:#F2F7F9;}
	.st23{fill:#E9EFF4;}
	.st24{fill:#FC97B2;}
	.st25{fill:#E84D88;}
	.st26{fill:#A5856D;}
	.st27{fill:#E9B02C;}
	.st28{fill:#7FB239;}
	.st29{fill:#CBD6E0;}
	.st30{fill:#ACB9C1;}
	.st31{fill:#8F6D52;}
	.st32{opacity:0.2;fill:#FFFFFF;}
	.st33{fill:#9A795F;}
	.st34{fill:#BBC7D1;}
	.st35{fill:#E18823;}
	.st36{fill:#F29A2E;}
	.st37{fill:#89664C;}
	.st38{fill:#D3D9DD;}
	.st39{fill:#DEE4E9;}
	.st40{fill:#AD2727;}
	.st41{fill:#719D34;}
	.st42{fill:#353A3D;}
	.st43{opacity:0.25;}
	.st44{opacity:0.2;fill:#3E4347;}
	.st45{fill:#373C3F;}
	.st46{opacity:0.1;}
	.st47{opacity:0.06;}
	.st48{fill:#7A5B44;}
	.st49{fill:#6B503B;}
	.st50{fill:#31373A;}
	.st51{fill:#59A5E0;}
	.st52{fill:#363B3F;}
	.st53{fill:#BF3333;}
	.st54{opacity:0.3;}
	.st55{fill:#4E99D2;}
	.st56{opacity:0.15;}
	.st57{opacity:0.1;fill:#3E4347;}
	.st58{fill:#64892F;}
	.st59{opacity:0.08;fill:#FFFFFF;}
	.st60{opacity:0.1;fill:#FFFFFF;}
</style>
<g>
	<g>
		<g>
			<path class="st7" d="M32,11.096c0,8.158-15.994,18.123-15.994,18.123S0,19.254,0,11.096C0,6.51,3.729,2.781,8.315,2.781
				c3.484,0,6.455,2.137,7.691,5.164c1.236-3.027,4.207-5.164,7.691-5.164C28.283,2.781,32,6.51,32,11.096z"/>
		</g>
		<g>
			<path class="st9" d="M31.996,11.098c0,8.16-15.99,18.12-15.99,18.12s-3.16-1.97-6.67-4.87c0.15,0.04,0.31,0.06,0.47,0.09
				c8.55,1.37,17.51-4.71,20.02-13.59c0.43-1.54,0.64-3.06,0.65-4.54C31.436,7.668,31.996,9.318,31.996,11.098z"/>
		</g>
		<g class="st4">
			<path class="st6" d="M6.66,9.033c-1.42,0.961-3.046,1.042-3.648,0.162C2.427,8.332,3.092,6.841,4.512,5.87
				c1.411-0.952,3.046-1.033,3.639-0.162C8.744,6.58,8.07,8.072,6.66,9.033z"/>
		</g>
	</g>
	<g>
		<g>
			<path class="st3" d="M31.346,17.558c0,0.28-0.22,0.5-0.5,0.5h-8.85l-2.11,3.96c-0.137,0.259-0.311,0.26-0.55,0.26
				c-0.21-0.05-0.37-0.23-0.39-0.45l-0.63-7.86l-1.36,4.2c-0.06,0.21-0.26,0.35-0.47,0.35h-3.64c-0.23,0-0.43-0.16-0.48-0.39
				l-0.16-0.73l-1.81,2.73c-0.12,0.17-0.32,0.26-0.52,0.21c-0.21-0.04-0.36-0.2-0.39-0.41l-0.72-4.35l-0.74,2.58
				c-0.06,0.21-0.26,0.36-0.48,0.36h-6.74c-0.28,0-0.5-0.23-0.5-0.5c0-0.28,0.22-0.5,0.5-0.5h6.36l1.25-4.35
				c0.06-0.22,0.27-0.37,0.5-0.36c0.24,0.01,0.43,0.19,0.47,0.42l0.88,5.29l1.75-2.65c0.11-0.17,0.31-0.25,0.51-0.22
				c0.2,0.04,0.35,0.19,0.4,0.39l0.33,1.48h2.86l2.02-6.25c0.07-0.23,0.29-0.38,0.53-0.35s0.42,0.22,0.44,0.46l0.7,8.66l1.44-2.71
				c0.09-0.17,0.26-0.27,0.45-0.27h9.15C31.126,17.058,31.346,17.278,31.346,17.558z"/>
		</g>
	</g>
</g>
</svg>
