<?xml version="1.0" encoding="utf-8"?>
<!-- Generator: Adobe Illustrator 21.1.0, SVG Export Plug-In . SVG Version: 6.00 Build 0)  -->
<svg version="1.1" id="Layer_1" xmlns="http://www.w3.org/2000/svg" xmlns:xlink="http://www.w3.org/1999/xlink" x="0px" y="0px"
	 viewBox="0 0 32 32" style="enable-background:new 0 0 32 32;" xml:space="preserve">
<style type="text/css">
	.st0{fill:#45CBEA;}
	.st1{fill:#FFD93B;}
	.st2{fill:#F4C534;}
	.st3{fill:#3E4347;}
	.st4{opacity:0.2;}
	.st5{fill:#DE9C25;}
	.st6{fill:#FFFFFF;}
	.st7{fill:#E24B4B;}
	.st8{fill:#8CC63E;}
	.st9{fill:#D03F3F;}
	.st10{fill:#846144;}
	.st11{fill:#5A5F63;}
	.st12{fill:#777B7E;}
	.st13{fill:#FFDC97;}
	.st14{fill:#FFE9AB;}
	.st15{fill:#93979A;}
	.st16{fill:#FFD68D;}
	.st17{fill:#728389;}
	.st18{fill:#DAE5EF;}
	.st19{fill:#65B1EF;}
	.st20{fill:#F2F7F9;}
	.st21{fill:#8D9BA3;}
	.st22{opacity:0.2;fill:#F2F7F9;}
	.st23{fill:#E9EFF4;}
	.st24{fill:#FC97B2;}
	.st25{fill:#E84D88;}
	.st26{fill:#A5856D;}
	.st27{fill:#E9B02C;}
	.st28{fill:#7FB239;}
	.st29{fill:#CBD6E0;}
	.st30{fill:#ACB9C1;}
	.st31{fill:#8F6D52;}
	.st32{opacity:0.2;fill:#FFFFFF;}
	.st33{fill:#9A795F;}
	.st34{fill:#BBC7D1;}
	.st35{fill:#E18823;}
	.st36{fill:#F29A2E;}
	.st37{fill:#89664C;}
	.st38{fill:#D3D9DD;}
	.st39{fill:#DEE4E9;}
	.st40{fill:#AD2727;}
	.st41{fill:#719D34;}
	.st42{fill:#353A3D;}
	.st43{opacity:0.25;}
	.st44{opacity:0.2;fill:#3E4347;}
	.st45{fill:#373C3F;}
	.st46{opacity:0.1;}
	.st47{opacity:0.06;}
	.st48{fill:#7A5B44;}
	.st49{fill:#6B503B;}
	.st50{fill:#31373A;}
	.st51{fill:#59A5E0;}
	.st52{fill:#363B3F;}
	.st53{fill:#BF3333;}
	.st54{opacity:0.3;}
	.st55{fill:#4E99D2;}
	.st56{opacity:0.15;}
	.st57{opacity:0.1;fill:#3E4347;}
	.st58{fill:#64892F;}
	.st59{opacity:0.08;fill:#FFFFFF;}
	.st60{opacity:0.1;fill:#FFFFFF;}
</style>
<g>
	<g>
		<g>
			<path class="st3" d="M29.165,20.368c0-6.77-5.894-12.887-13.165-12.887S2.835,13.598,2.835,20.368
				c0,7.92,5.894,11.63,13.165,11.63S29.165,28.288,29.165,20.368z"/>
		</g>
		<g>
			<path class="st45" d="M29.163,20.372c0,7.921-5.891,11.628-13.16,11.628c-5.162,0-9.618-1.864-11.782-5.766
				c2.292,1.358,5.15,2.015,8.264,2.015c7.465,0,13.53-3.804,13.53-11.941c0-1.907-0.452-3.761-1.262-5.442
				C27.462,13.27,29.163,16.729,29.163,20.372z"/>
		</g>
		<g>
			<path class="st3" d="M9.722,12.208h2.516c-0.513-1.406-1.347-3.695-2.413-6.791c-0.389-1.119-0.456-1.661,0.717-1.921
				c0,0.011-0.011,0.011-0.011,0.011c2.682-0.206,6.176-0.266,9.637-0.083c0.446,0.024,0.885,0.051,1.3,0.083
				c0,0-0.011,0-0.011-0.011c0.735,0.146,1.28,0.368,0.718,1.921c-1.066,3.096-1.9,5.385-2.413,6.791h2.522
				c0.664-1.894,1.226-3.542,2.147-5.992c0.972-2.819-0.095-4.587-1.921-5.301C21.51,0.552,18.784,0,16.006,0
				c-1.448,0-3.333,0.102-6.076,0.764C7.443,1.696,6.587,3.37,7.569,6.215C8.498,8.666,9.063,10.314,9.722,12.208z"/>
		</g>
		<g class="st46">
			<path class="st6" d="M11.933,15.912c-1.601,1.601-3.618,2.175-4.498,1.295c-0.89-0.89-0.316-2.906,1.285-4.498
				c1.601-1.601,3.618-2.184,4.497-1.295C14.108,12.304,13.534,14.321,11.933,15.912z"/>
		</g>
	</g>
</g>
</svg>
