<?xml version="1.0" encoding="utf-8"?>
<!-- Generator: Adobe Illustrator 21.1.0, SVG Export Plug-In . SVG Version: 6.00 Build 0)  -->
<svg version="1.1" id="Layer_1" xmlns="http://www.w3.org/2000/svg" xmlns:xlink="http://www.w3.org/1999/xlink" x="0px" y="0px"
	 viewBox="0 0 32 32" style="enable-background:new 0 0 32 32;" xml:space="preserve">
<style type="text/css">
	.st0{fill:#45CBEA;}
	.st1{fill:#FFD93B;}
	.st2{fill:#F4C534;}
	.st3{fill:#3E4347;}
	.st4{opacity:0.2;}
	.st5{fill:#DE9C25;}
	.st6{fill:#FFFFFF;}
	.st7{fill:#E24B4B;}
	.st8{fill:#8CC63E;}
	.st9{fill:#D03F3F;}
	.st10{fill:#846144;}
	.st11{fill:#5A5F63;}
	.st12{fill:#777B7E;}
	.st13{fill:#FFDC97;}
	.st14{fill:#FFE9AB;}
	.st15{fill:#93979A;}
	.st16{fill:#FFD68D;}
	.st17{fill:#728389;}
	.st18{fill:#DAE5EF;}
	.st19{fill:#65B1EF;}
	.st20{fill:#F2F7F9;}
	.st21{fill:#8D9BA3;}
	.st22{opacity:0.2;fill:#F2F7F9;}
	.st23{fill:#E9EFF4;}
	.st24{fill:#FC97B2;}
	.st25{fill:#E84D88;}
	.st26{fill:#A5856D;}
	.st27{fill:#E9B02C;}
	.st28{fill:#7FB239;}
	.st29{fill:#CBD6E0;}
	.st30{fill:#ACB9C1;}
	.st31{fill:#8F6D52;}
	.st32{opacity:0.2;fill:#FFFFFF;}
	.st33{fill:#9A795F;}
	.st34{fill:#BBC7D1;}
	.st35{fill:#E18823;}
	.st36{fill:#F29A2E;}
	.st37{fill:#89664C;}
	.st38{fill:#D3D9DD;}
	.st39{fill:#DEE4E9;}
	.st40{fill:#AD2727;}
	.st41{fill:#719D34;}
	.st42{fill:#353A3D;}
	.st43{opacity:0.25;}
	.st44{opacity:0.2;fill:#3E4347;}
	.st45{fill:#373C3F;}
	.st46{opacity:0.1;}
	.st47{opacity:0.06;}
	.st48{fill:#7A5B44;}
	.st49{fill:#6B503B;}
	.st50{fill:#31373A;}
	.st51{fill:#59A5E0;}
	.st52{fill:#363B3F;}
	.st53{fill:#BF3333;}
	.st54{opacity:0.3;}
	.st55{fill:#4E99D2;}
	.st56{opacity:0.15;}
	.st57{opacity:0.1;fill:#3E4347;}
	.st58{fill:#64892F;}
	.st59{opacity:0.08;fill:#FFFFFF;}
	.st60{opacity:0.1;fill:#FFFFFF;}
</style>
<g>
	<path class="st23" d="M26.815,3.05v25.9c0,1.69-1.36,3.05-3.04,3.05H8.235c-1.68,0-3.05-1.36-3.05-3.05V3.05
		c0-1.69,1.37-3.05,3.05-3.05h15.54C25.455,0,26.815,1.36,26.815,3.05z"/>
	<g>
		<rect x="7.189" y="4.319" class="st3" width="17.631" height="21.741"/>
		<path class="st18" d="M19.611,2.16c0,0.37-0.3,0.68-0.68,0.68h-5.85c-0.38,0-0.68-0.31-0.68-0.68s0.3-0.68,0.68-0.68h5.85
			C19.311,1.48,19.611,1.79,19.611,2.16z"/>
		<g>
			<path class="st18" d="M17.685,29.03c0,0.94-0.76,1.7-1.69,1.7c-0.94,0-1.7-0.76-1.7-1.7c0-0.93,0.76-1.7,1.7-1.7
				C16.925,27.33,17.685,28.1,17.685,29.03z"/>
		</g>
		<g>
			<path class="st7" d="M12.214,7.538c0,0.97-0.79,1.77-1.77,1.77c-0.97,0-1.77-0.8-1.77-1.77c0-0.98,0.8-1.77,1.77-1.77
				C11.424,5.768,12.214,6.558,12.214,7.538z"/>
			<path class="st19" d="M17.774,7.538c0,0.97-0.79,1.77-1.77,1.77c-0.97,0-1.77-0.8-1.77-1.77c0-0.98,0.8-1.77,1.77-1.77
				C16.984,5.768,17.774,6.558,17.774,7.538z"/>
			<path class="st1" d="M23.334,7.538c0,0.97-0.79,1.77-1.77,1.77c-0.97,0-1.77-0.8-1.77-1.77c0-0.98,0.8-1.77,1.77-1.77
				C22.544,5.768,23.334,6.558,23.334,7.538z"/>
		</g>
		<path class="st26" d="M12.214,12.413c0,0.97-0.79,1.77-1.77,1.77c-0.97,0-1.77-0.8-1.77-1.77c0-0.98,0.8-1.77,1.77-1.77
			C11.424,10.643,12.214,11.433,12.214,12.413z"/>
		<path class="st25" d="M17.774,12.413c0,0.97-0.79,1.77-1.77,1.77c-0.97,0-1.77-0.8-1.77-1.77c0-0.98,0.8-1.77,1.77-1.77
			C16.984,10.643,17.774,11.433,17.774,12.413z"/>
		<path class="st23" d="M23.334,12.413c0,0.97-0.79,1.77-1.77,1.77c-0.97,0-1.77-0.8-1.77-1.77c0-0.98,0.8-1.77,1.77-1.77
			C22.544,10.643,23.334,11.433,23.334,12.413z"/>
		<path class="st7" d="M12.214,17.288c0,0.97-0.79,1.77-1.77,1.77c-0.97,0-1.77-0.8-1.77-1.77c0-0.98,0.8-1.77,1.77-1.77
			C11.424,15.518,12.214,16.308,12.214,17.288z"/>
		<path class="st19" d="M17.774,17.288c0,0.97-0.79,1.77-1.77,1.77c-0.97,0-1.77-0.8-1.77-1.77c0-0.98,0.8-1.77,1.77-1.77
			C16.984,15.518,17.774,16.308,17.774,17.288z"/>
		<path class="st8" d="M23.334,17.288c0,0.97-0.79,1.77-1.77,1.77c-0.97,0-1.77-0.8-1.77-1.77c0-0.98,0.8-1.77,1.77-1.77
			C22.544,15.518,23.334,16.308,23.334,17.288z"/>
	</g>
</g>
</svg>
