<?xml version="1.0" encoding="utf-8"?>
<!-- Generator: Adobe Illustrator 21.1.0, SVG Export Plug-In . SVG Version: 6.00 Build 0)  -->
<svg version="1.1" id="Layer_1" xmlns="http://www.w3.org/2000/svg" xmlns:xlink="http://www.w3.org/1999/xlink" x="0px" y="0px"
	 viewBox="0 0 32 32" style="enable-background:new 0 0 32 32;" xml:space="preserve">
<style type="text/css">
	.st0{fill:#45CBEA;}
	.st1{fill:#FFD93B;}
	.st2{fill:#F4C534;}
	.st3{fill:#3E4347;}
	.st4{opacity:0.2;}
	.st5{fill:#DE9C25;}
	.st6{fill:#FFFFFF;}
	.st7{fill:#E24B4B;}
	.st8{fill:#8CC63E;}
	.st9{fill:#D03F3F;}
	.st10{fill:#846144;}
	.st11{fill:#5A5F63;}
	.st12{fill:#777B7E;}
	.st13{fill:#FFDC97;}
	.st14{fill:#FFE9AB;}
	.st15{fill:#93979A;}
	.st16{fill:#FFD68D;}
	.st17{fill:#728389;}
	.st18{fill:#DAE5EF;}
	.st19{fill:#65B1EF;}
	.st20{fill:#F2F7F9;}
	.st21{fill:#8D9BA3;}
	.st22{opacity:0.2;fill:#F2F7F9;}
	.st23{fill:#E9EFF4;}
	.st24{fill:#FC97B2;}
	.st25{fill:#E84D88;}
	.st26{fill:#A5856D;}
	.st27{fill:#E9B02C;}
	.st28{fill:#7FB239;}
	.st29{fill:#CBD6E0;}
	.st30{fill:#ACB9C1;}
	.st31{fill:#8F6D52;}
	.st32{opacity:0.2;fill:#FFFFFF;}
	.st33{fill:#9A795F;}
	.st34{fill:#BBC7D1;}
	.st35{fill:#E18823;}
	.st36{fill:#F29A2E;}
	.st37{fill:#89664C;}
	.st38{fill:#D3D9DD;}
	.st39{fill:#DEE4E9;}
	.st40{fill:#AD2727;}
	.st41{fill:#719D34;}
	.st42{fill:#353A3D;}
	.st43{opacity:0.25;}
	.st44{opacity:0.2;fill:#3E4347;}
	.st45{fill:#373C3F;}
	.st46{opacity:0.1;}
	.st47{opacity:0.06;}
	.st48{fill:#7A5B44;}
	.st49{fill:#6B503B;}
	.st50{fill:#31373A;}
	.st51{fill:#59A5E0;}
	.st52{fill:#363B3F;}
	.st53{fill:#BF3333;}
	.st54{opacity:0.3;}
	.st55{fill:#4E99D2;}
	.st56{opacity:0.15;}
	.st57{opacity:0.1;fill:#3E4347;}
	.st58{fill:#64892F;}
	.st59{opacity:0.08;fill:#FFFFFF;}
	.st60{opacity:0.1;fill:#FFFFFF;}
</style>
<g>
	<g>
		<g>
			<circle class="st3" cx="16" cy="16" r="16"/>
		</g>
	</g>
	<g class="st46">
		<path class="st6" d="M6.607,5.362C3.68,7.883,3.615,11.673,4.71,12.101c1.1,0.492,2.701-1.54,4.811-3.278
			c2.041-1.822,4.196-3.063,3.887-4.25C13.164,3.41,9.531,2.839,6.607,5.362z"/>
	</g>
	<path class="st45" d="M32,16c0,8.836-7.164,16-16,16c-5.563,0-10.463-2.839-13.33-7.147c2.535,1.687,5.579,2.67,8.853,2.67
		c8.836,0,16-7.164,16-16c0-3.274-0.983-6.318-2.67-8.853C29.161,5.537,32,10.437,32,16z"/>
	<path class="st45" d="M20.037,12.316c0,0.995-0.8,1.795-1.795,1.795c-0.983,0-1.784-0.8-1.784-1.795
		c0-0.983,0.801-1.783,1.784-1.783C19.237,10.533,20.037,11.333,20.037,12.316z"/>
	<g>
		<path class="st45" d="M18.432,7.3c0,0.995-0.8,1.795-1.795,1.795c-0.983,0-1.784-0.8-1.784-1.795c0-0.983,0.801-1.783,1.784-1.783
			C17.631,5.516,18.432,6.316,18.432,7.3z"/>
	</g>
	<g>
		<path class="st45" d="M24.107,8.933c0,0.995-0.8,1.795-1.795,1.795c-0.983,0-1.784-0.8-1.784-1.795
			c0-0.983,0.801-1.783,1.784-1.783C23.307,7.15,24.107,7.95,24.107,8.933z"/>
	</g>
</g>
</svg>
