<?xml version="1.0" encoding="utf-8"?>
<!-- Generator: Adobe Illustrator 21.1.0, SVG Export Plug-In . SVG Version: 6.00 Build 0)  -->
<svg version="1.1" id="Layer_1" xmlns="http://www.w3.org/2000/svg" xmlns:xlink="http://www.w3.org/1999/xlink" x="0px" y="0px"
	 viewBox="0 0 32 32" style="enable-background:new 0 0 32 32;" xml:space="preserve">
<style type="text/css">
	.st0{fill:#45CBEA;}
	.st1{fill:#FFD93B;}
	.st2{fill:#F4C534;}
	.st3{fill:#3E4347;}
	.st4{opacity:0.2;}
	.st5{fill:#DE9C25;}
	.st6{fill:#FFFFFF;}
	.st7{fill:#E24B4B;}
	.st8{fill:#8CC63E;}
	.st9{fill:#D03F3F;}
	.st10{fill:#846144;}
	.st11{fill:#5A5F63;}
	.st12{fill:#777B7E;}
	.st13{fill:#FFDC97;}
	.st14{fill:#FFE9AB;}
	.st15{fill:#93979A;}
	.st16{fill:#FFD68D;}
	.st17{fill:#728389;}
	.st18{fill:#DAE5EF;}
	.st19{fill:#65B1EF;}
	.st20{fill:#F2F7F9;}
	.st21{fill:#8D9BA3;}
	.st22{opacity:0.2;fill:#F2F7F9;}
	.st23{fill:#E9EFF4;}
	.st24{fill:#FC97B2;}
	.st25{fill:#E84D88;}
	.st26{fill:#A5856D;}
	.st27{fill:#E9B02C;}
	.st28{fill:#7FB239;}
	.st29{fill:#CBD6E0;}
	.st30{fill:#ACB9C1;}
	.st31{fill:#8F6D52;}
	.st32{opacity:0.2;fill:#FFFFFF;}
	.st33{fill:#9A795F;}
	.st34{fill:#BBC7D1;}
	.st35{fill:#E18823;}
	.st36{fill:#F29A2E;}
	.st37{fill:#89664C;}
	.st38{fill:#D3D9DD;}
	.st39{fill:#DEE4E9;}
	.st40{fill:#AD2727;}
	.st41{fill:#719D34;}
	.st42{fill:#353A3D;}
	.st43{opacity:0.25;}
	.st44{opacity:0.2;fill:#3E4347;}
	.st45{fill:#373C3F;}
	.st46{opacity:0.1;}
	.st47{opacity:0.06;}
	.st48{fill:#7A5B44;}
	.st49{fill:#6B503B;}
	.st50{fill:#31373A;}
	.st51{fill:#59A5E0;}
	.st52{fill:#363B3F;}
	.st53{fill:#BF3333;}
	.st54{opacity:0.3;}
	.st55{fill:#4E99D2;}
	.st56{opacity:0.15;}
	.st57{opacity:0.1;fill:#3E4347;}
	.st58{fill:#64892F;}
	.st59{opacity:0.08;fill:#FFFFFF;}
	.st60{opacity:0.1;fill:#FFFFFF;}
</style>
<g>
	<g>
		<g>
			<path class="st55" d="M14.115,15.443c0,0.505-0.118,1.011-0.341,1.464c-0.462,0.939-0.958,1.719-1.485,2.336
				c-0.527,0.617-1.084,1.072-1.67,1.359c-0.832,0.408-1.707,0.615-2.603,0.615c-1.549,0-3.047-0.634-4.219-1.785
				c-0.027-0.027-0.055-0.054-0.082-0.081c-0.568-0.577-1.012-1.255-1.318-2.014c-0.303-0.752-0.456-1.548-0.456-2.366v-0.261
				c0-0.858,0.323-1.676,0.91-2.302c0.586-0.626,1.38-1.002,2.237-1.058c1.793-0.117,3.618,0.175,5.277,0.845
				c0.801,0.323,1.634,0.71,2.476,1.149C13.627,13.753,14.115,14.558,14.115,15.443z"/>
			<path class="st55" d="M30.059,14.709v0.261c0,0.817-0.154,1.613-0.456,2.366c-0.306,0.759-0.749,1.437-1.318,2.015
				c-0.027,0.027-0.054,0.054-0.082,0.081c-1.172,1.151-2.67,1.785-4.219,1.785c-0.896,0-1.772-0.207-2.603-0.615
				c-1.17-0.574-2.231-1.817-3.155-3.694c-0.223-0.453-0.341-0.96-0.341-1.464c0-0.885,0.488-1.69,1.274-2.1
				c0.841-0.439,1.675-0.825,2.476-1.149c1.659-0.67,3.483-0.963,5.277-0.845c0.857,0.056,1.651,0.432,2.238,1.058
				C29.735,13.033,30.059,13.851,30.059,14.709z"/>
		</g>
	</g>
	<g>
		<g>
			<path class="st19" d="M7.669,11.46l-5.431,5.431c0.048,0.15,0.101,0.298,0.16,0.445c0.194,0.481,0.443,0.929,0.744,1.34
				l6.684-6.684C9.127,11.749,8.404,11.571,7.669,11.46z"/>
			<path class="st19" d="M10.366,12.194c-0.003-0.001-0.005-0.002-0.008-0.003l-6.891,6.891c0.08,0.092,0.163,0.181,0.248,0.268
				c0.027,0.027,0.054,0.055,0.082,0.081c0.106,0.104,0.215,0.204,0.326,0.299l7.15-7.15C10.967,12.444,10.664,12.315,10.366,12.194
				z"/>
		</g>
		<g>
			<path class="st19" d="M19.371,18.817l7.472-7.472c-0.955-0.057-1.919,0.002-2.86,0.172l-5.634,5.634
				C18.673,17.784,19.015,18.34,19.371,18.817z"/>
			<path class="st19" d="M27.484,11.436l-7.789,7.789c0.209,0.247,0.424,0.468,0.642,0.663l8.074-8.074
				C28.124,11.642,27.811,11.515,27.484,11.436z"/>
		</g>
	</g>
	<g>
		<path class="st3" d="M31.745,11.445h-0.548c-0.202,0-0.392-0.089-0.527-0.24c-3.17-3.557-13.438,2.419-13.464,2.429
			c-0.824,0.322-1.628,0.325-2.412,0c-0.026-0.011-10.295-5.986-13.464-2.429c-0.134,0.151-0.324,0.24-0.527,0.24H0.255
			C0.114,11.445,0,11.56,0,11.7v1.552c0,0.111,0.073,0.207,0.178,0.243c0.26,0.089,0.451,0.327,0.472,0.616
			c0.404,5.319,5.339,9.535,10.274,7.113c2.186-1.073,3.394-3.815,3.842-4.806c0.346-0.767,0.969-0.908,1.233-0.932
			c0.264,0.025,0.887,0.166,1.233,0.932c0.448,0.991,1.656,3.734,3.842,4.806c4.935,2.422,9.871-1.794,10.274-7.113
			c0.022-0.288,0.213-0.526,0.472-0.616C31.927,13.459,32,13.363,32,13.252V11.7C32,11.56,31.886,11.445,31.745,11.445z
			 M10.566,20.493c-5.51,2.703-11.002-4.399-7.625-8.002c2.156-2.303,7.042-0.501,9.844,0.961c0.742,0.387,1.208,1.155,1.208,1.992
			C13.993,16.95,12.237,19.672,10.566,20.493z M21.434,20.493c-1.655-0.812-3.427-3.528-3.427-5.049
			c0-0.837,0.466-1.605,1.208-1.992c2.801-1.461,7.688-3.264,9.844-0.961C32.105,15.74,27.307,23.373,21.434,20.493z"/>
	</g>
</g>
</svg>
