<?xml version="1.0" encoding="utf-8"?>
<!-- Generator: Adobe Illustrator 21.1.0, SVG Export Plug-In . SVG Version: 6.00 Build 0)  -->
<svg version="1.1" id="Layer_1" xmlns="http://www.w3.org/2000/svg" xmlns:xlink="http://www.w3.org/1999/xlink" x="0px" y="0px"
	 viewBox="0 0 32 32" style="enable-background:new 0 0 32 32;" xml:space="preserve">
<style type="text/css">
	.st0{fill:#45CBEA;}
	.st1{fill:#FFD93B;}
	.st2{fill:#F4C534;}
	.st3{fill:#3E4347;}
	.st4{opacity:0.2;}
	.st5{fill:#DE9C25;}
	.st6{fill:#FFFFFF;}
	.st7{fill:#E24B4B;}
	.st8{fill:#8CC63E;}
	.st9{fill:#D03F3F;}
	.st10{fill:#846144;}
	.st11{fill:#5A5F63;}
	.st12{fill:#777B7E;}
	.st13{fill:#FFDC97;}
	.st14{fill:#FFE9AB;}
	.st15{fill:#93979A;}
	.st16{fill:#FFD68D;}
	.st17{fill:#728389;}
	.st18{fill:#DAE5EF;}
	.st19{fill:#65B1EF;}
	.st20{fill:#F2F7F9;}
	.st21{fill:#8D9BA3;}
	.st22{opacity:0.2;fill:#F2F7F9;}
	.st23{fill:#E9EFF4;}
	.st24{fill:#FC97B2;}
	.st25{fill:#E84D88;}
	.st26{fill:#A5856D;}
	.st27{fill:#E9B02C;}
	.st28{fill:#7FB239;}
	.st29{fill:#CBD6E0;}
	.st30{fill:#ACB9C1;}
	.st31{fill:#8F6D52;}
	.st32{opacity:0.2;fill:#FFFFFF;}
	.st33{fill:#9A795F;}
	.st34{fill:#BBC7D1;}
	.st35{fill:#E18823;}
	.st36{fill:#F29A2E;}
	.st37{fill:#89664C;}
	.st38{fill:#D3D9DD;}
	.st39{fill:#DEE4E9;}
	.st40{fill:#AD2727;}
	.st41{fill:#719D34;}
	.st42{fill:#353A3D;}
	.st43{opacity:0.25;}
	.st44{opacity:0.2;fill:#3E4347;}
	.st45{fill:#373C3F;}
	.st46{opacity:0.1;}
	.st47{opacity:0.06;}
	.st48{fill:#7A5B44;}
	.st49{fill:#6B503B;}
	.st50{fill:#31373A;}
	.st51{fill:#59A5E0;}
	.st52{fill:#363B3F;}
	.st53{fill:#BF3333;}
	.st54{opacity:0.3;}
	.st55{fill:#4E99D2;}
	.st56{opacity:0.15;}
	.st57{opacity:0.1;fill:#3E4347;}
	.st58{fill:#64892F;}
	.st59{opacity:0.08;fill:#FFFFFF;}
	.st60{opacity:0.1;fill:#FFFFFF;}
</style>
<g>
	<g>
		<g>
			<path class="st39" d="M29.526,19.43c-0.434,0.886-2.659,3.425-5.89,2.502s-7.1,0.323-9.039,1.339
				c-1.939,1.025-6.555,0.942-9.039,0.711c-2.483-0.231-5.327-2.52-5.327-2.52c-0.028-0.932,0.194-2.825,2.964-3.314
				c2.77-0.489,9.288-2.742,12.953-5.853c3.001-2.557,3.952-7.081,4.192-8.632c0.046-0.268,0.332-0.406,0.573-0.277
				c3.231,1.68,6.721,2.696,7.866,3.01c0.222,0.065,0.332,0.277,0.268,0.489c-0.295,0.969-0.942,3.665-0.24,6.694
				C29.692,17.39,29.526,19.43,29.526,19.43z"/>
		</g>
	</g>
	<g>
		<path class="st38" d="M24.595,22.105c-0.433-0.795-0.68-1.707-0.68-2.675c0-2.87,2.167-5.239,4.95-5.568
			c-0.022-0.099-0.037-0.185-0.061-0.286c-0.033-0.144-0.05-0.283-0.077-0.426c-3.118,0.394-5.538,3.057-5.538,6.279
			c0,0.896,0.189,1.747,0.526,2.52C24.019,22.032,24.311,22.08,24.595,22.105z"/>
	</g>
	<g>
		<g>
			<path class="st39" d="M31.261,26.622h-2.234c-1.034,0-1.874-0.84-1.874-1.874v-2.53h-3.195c0.41,0.273,0.849,1.018,0.849,1.81
				c0,1.302-1.062,2.354-2.364,2.354l-9.38-0.018c-1.302,0-2.354-1.062-2.354-2.364c0-0.025,0.007-0.048,0.008-0.072H8.167
				c0.305,0.254,0.503,0.631,0.503,1.06c0,0.766-0.619,1.385-1.385,1.385H3.093c-0.766,0-1.385-0.619-1.385-1.385
				c0-0.521,0.289-0.968,0.712-1.204v-1.421c-0.336,0.007-0.683,0.014-1.054,0.022C0.573,23.178,0,23.805,0,25.081
				c0,1.683,1.297,3.075,2.954,3.185c9.454,0.646,20.788,0.446,28.362-0.166C31.704,28.068,32,27.749,32,27.361
				C32,26.955,31.677,26.622,31.261,26.622z"/>
		</g>
	</g>
	<g>
		<g>
			<path class="st3" d="M29.526,19.43c0,0-0.729,2.354-0.868,4.469c0,0-2.447,1.172-6.333,1.089c-0.142-1.554-1.639-2.5-3.058-2.16
				c-0.956,0.229-2.287,0.638-4.051,1.366c0,0-1.754,0.849-3.656,1.136c-1.902,0.286-8.734-0.323-11.328-2.225
				c0,0-0.166-0.517,0.129-0.886c0,0-0.231-0.074-0.129-0.757c0,0,2.881,2.428,11.134,1.773c0,0,1.782-0.277,3.407-1.016
				c1.634-0.739,4.755-1.597,7.875-1.597C25.768,20.621,28.778,20.27,29.526,19.43z"/>
		</g>
	</g>
	<g>
		<g>
			<g>
				<path class="st3" d="M12.358,17.067c0,0.36-0.286,0.646-0.637,0.646c-0.36,0-0.655-0.286-0.655-0.646
					c0-0.351,0.296-0.637,0.655-0.637C12.081,16.43,12.358,16.707,12.358,17.067z"/>
			</g>
			<g>
				<path class="st3" d="M14.717,15.784c0,0.36-0.286,0.646-0.637,0.646c-0.36,0-0.655-0.286-0.655-0.646
					c0-0.351,0.296-0.637,0.655-0.637C14.431,15.146,14.717,15.433,14.717,15.784z"/>
			</g>
			<g>
				<path class="st3" d="M10.036,17.972c0,0.351-0.286,0.637-0.637,0.637c-0.36,0-0.655-0.286-0.655-0.637
					c0-0.36,0.296-0.646,0.655-0.646C9.759,17.326,10.036,17.612,10.036,17.972z"/>
			</g>
			<g>
				<path class="st3" d="M16.896,14.519c0,0.351-0.286,0.637-0.637,0.637c-0.36,0-0.655-0.286-0.655-0.637s0.295-0.646,0.655-0.646
					C16.609,13.872,16.896,14.168,16.896,14.519z"/>
			</g>
			<g>
				<path class="st3" d="M18.797,12.94c0,0.36-0.286,0.646-0.646,0.646c-0.351,0-0.646-0.295-0.646-0.646
					c0-0.351,0.295-0.637,0.646-0.637C18.511,12.303,18.797,12.58,18.797,12.94z"/>
			</g>
			<g>
				<path class="st3" d="M20.136,11.121c0,0.36-0.286,0.646-0.646,0.646c-0.351,0-0.646-0.286-0.646-0.646
					c0-0.351,0.295-0.637,0.646-0.637C19.85,10.484,20.136,10.761,20.136,11.121z"/>
			</g>
		</g>
	</g>
	<g>
		<g>
			<path class="st11" d="M19.368,11.495c-0.781-0.256-2.029-0.99-1.757-2.122c0.05-0.21,0.254-0.345,0.473-0.29
				c0.21,0.05,0.34,0.262,0.289,0.473c-0.167,0.694,1.224,1.189,1.239,1.193c0.206,0.068,0.317,0.29,0.25,0.495
				C19.794,11.454,19.567,11.563,19.368,11.495z"/>
		</g>
	</g>
	<g>
		<g>
			<path class="st11" d="M17.925,13.252c-0.712-0.354-1.809-1.243-1.397-2.327c0.078-0.203,0.307-0.303,0.507-0.227
				c0.202,0.077,0.304,0.303,0.227,0.506c-0.258,0.677,1,1.338,1.013,1.345c0.194,0.096,0.273,0.332,0.177,0.526
				C18.355,13.271,18.119,13.349,17.925,13.252z"/>
		</g>
	</g>
	<g>
		<g>
			<path class="st11" d="M16.022,14.834c-0.649-0.46-1.595-1.507-1.021-2.513c0.107-0.188,0.347-0.255,0.536-0.147
				c0.188,0.107,0.253,0.347,0.146,0.535c-0.359,0.629,0.782,1.476,0.793,1.485c0.177,0.125,0.218,0.37,0.093,0.547
				C16.443,14.918,16.2,14.959,16.022,14.834z"/>
		</g>
	</g>
	<g>
		<g>
			<path class="st11" d="M13.778,16.049c-0.529-0.594-1.216-1.827-0.43-2.679c0.148-0.16,0.395-0.169,0.554-0.023
				c0.16,0.147,0.17,0.395,0.023,0.554c-0.496,0.537,0.43,1.615,0.439,1.626c0.143,0.162,0.129,0.41-0.032,0.554
				C14.17,16.225,13.921,16.211,13.778,16.049z"/>
		</g>
	</g>
	<g>
		<g>
			<path class="st11" d="M11.4,17.312c-0.486-0.63-1.084-1.909-0.24-2.703c0.158-0.148,0.406-0.141,0.554,0.017
				c0.149,0.158,0.141,0.406-0.017,0.555c-0.527,0.496,0.316,1.641,0.325,1.652c0.132,0.172,0.1,0.418-0.071,0.55
				C11.78,17.514,11.533,17.483,11.4,17.312z"/>
		</g>
	</g>
	<g>
		<g>
			<path class="st11" d="M9.045,18.171c-0.381-0.699-0.772-2.055,0.187-2.707c0.178-0.123,0.422-0.076,0.545,0.103
				c0.122,0.179,0.076,0.423-0.104,0.545c-0.604,0.412,0.054,1.671,0.06,1.683c0.104,0.19,0.033,0.429-0.157,0.532
				C9.39,18.43,9.15,18.363,9.045,18.171z"/>
		</g>
	</g>
</g>
</svg>
