<?xml version="1.0" encoding="utf-8"?>
<!-- Generator: Adobe Illustrator 21.1.0, SVG Export Plug-In . SVG Version: 6.00 Build 0)  -->
<svg version="1.1" id="Layer_1" xmlns="http://www.w3.org/2000/svg" xmlns:xlink="http://www.w3.org/1999/xlink" x="0px" y="0px"
	 viewBox="0 0 32 32" style="enable-background:new 0 0 32 32;" xml:space="preserve">
<style type="text/css">
	.st0{fill:#45CBEA;}
	.st1{fill:#FFD93B;}
	.st2{fill:#F4C534;}
	.st3{fill:#3E4347;}
	.st4{opacity:0.2;}
	.st5{fill:#DE9C25;}
	.st6{fill:#FFFFFF;}
	.st7{fill:#E24B4B;}
	.st8{fill:#8CC63E;}
	.st9{fill:#D03F3F;}
	.st10{fill:#846144;}
	.st11{fill:#5A5F63;}
	.st12{fill:#777B7E;}
	.st13{fill:#FFDC97;}
	.st14{fill:#FFE9AB;}
	.st15{fill:#93979A;}
	.st16{fill:#FFD68D;}
	.st17{fill:#728389;}
	.st18{fill:#DAE5EF;}
	.st19{fill:#65B1EF;}
	.st20{fill:#F2F7F9;}
	.st21{fill:#8D9BA3;}
	.st22{opacity:0.2;fill:#F2F7F9;}
	.st23{fill:#E9EFF4;}
	.st24{fill:#FC97B2;}
	.st25{fill:#E84D88;}
	.st26{fill:#A5856D;}
	.st27{fill:#E9B02C;}
	.st28{fill:#7FB239;}
	.st29{fill:#CBD6E0;}
	.st30{fill:#ACB9C1;}
	.st31{fill:#8F6D52;}
	.st32{opacity:0.2;fill:#FFFFFF;}
	.st33{fill:#9A795F;}
	.st34{fill:#BBC7D1;}
	.st35{fill:#E18823;}
	.st36{fill:#F29A2E;}
	.st37{fill:#89664C;}
	.st38{fill:#D3D9DD;}
	.st39{fill:#DEE4E9;}
	.st40{fill:#AD2727;}
	.st41{fill:#719D34;}
	.st42{fill:#353A3D;}
	.st43{opacity:0.25;}
	.st44{opacity:0.2;fill:#3E4347;}
	.st45{fill:#373C3F;}
	.st46{opacity:0.1;}
	.st47{opacity:0.06;}
	.st48{fill:#7A5B44;}
	.st49{fill:#6B503B;}
	.st50{fill:#31373A;}
	.st51{fill:#59A5E0;}
	.st52{fill:#363B3F;}
	.st53{fill:#BF3333;}
	.st54{opacity:0.3;}
	.st55{fill:#4E99D2;}
	.st56{opacity:0.15;}
	.st57{opacity:0.1;fill:#3E4347;}
	.st58{fill:#64892F;}
	.st59{opacity:0.08;fill:#FFFFFF;}
	.st60{opacity:0.1;fill:#FFFFFF;}
</style>
<g>
	<g>
		<g>
			<path class="st21" d="M13.56,15.141c1.627,0.475,3.253,0.475,4.88,0V2.269c-1.627,0.475-3.253,0.475-4.88,0V15.141z"/>
		</g>
	</g>
	<g>
		<g>
			<g>
				<g>
					<g>
						<path class="st39" d="M7.615,15.436C9.433,21.234,8.45,29.242,8.45,29.242c6.534,1.376,9.237-0.59,9.237-0.59l2.106-9.479
							c0.097-0.435-0.03-0.881-0.32-1.218c-5.08-5.92-5.914-15.686-5.914-15.686L6.899,3.91C5.731,4.198,4.81,5.096,4.492,6.256
							L0,22.658c0,0,3.98,0.59,5.306,2.309C6.52,21.744,7.311,18.565,7.615,15.436z"/>
					</g>
				</g>
				<g>
					<path class="st3" d="M17.687,28.652c0,0-0.43,0.307-1.345,0.593l2.322-10.424C13.659,13.08,12.552,4.03,12.403,2.56
						l1.157-0.291c0,0,0.833,9.766,5.914,15.686c0.29,0.338,0.416,0.784,0.32,1.218L17.687,28.652z"/>
				</g>
			</g>
			<g>
				<g>
					<g>
						<path class="st39" d="M25.1,3.911L18.961,2.4c-0.041,0.716-0.221,1.423-0.432,2.179c-0.611,2.183-0.982,4.415-1.592,6.596
							c-0.825,2.948-2.118,5.478-4.21,7.463c0.132,1.196,0.243,2.4,0.494,3.58c0.492,2.314,1.212,4.547,1.845,6.816
							c1.199,0.492,3.892,1.174,8.484,0.207c0,0-0.983-8.008,0.835-13.806c0.304,3.128,1.095,6.308,2.309,9.531
							C28.02,23.248,32,22.658,32,22.658L27.508,6.257C27.19,5.096,26.268,4.198,25.1,3.911z"/>
					</g>
				</g>
				<g>
					<path class="st3" d="M13.56,2.269v1.053c0.81,0.211,1.625,0.334,2.44,0.334c0.815,0,1.63-0.122,2.44-0.334V2.269
						C16.813,2.744,15.187,2.744,13.56,2.269z"/>
				</g>
				<g>
					<path class="st3" d="M14.313,28.652c0,0,0.43,0.307,1.345,0.593l-2.322-10.424c5.004-5.741,6.111-14.791,6.26-16.261
						L18.44,2.269c0,0-0.833,9.766-5.914,15.686c-0.29,0.338-0.416,0.784-0.32,1.218L14.313,28.652z"/>
				</g>
			</g>
		</g>
		<g>
			<g>
				<path class="st3" d="M24.082,18.191c0.047,0.165-0.023,0.342-0.165,0.424c-2.296,1.378-5.235,1.967-7.912,2.028
					c-2.14-0.049-3.514-0.268-5.542-0.955c-0.749-0.233-1.711-0.695-2.358-1.085c-0.177-0.106-0.236-0.33-0.13-0.507
					c0.083-0.141,0.259-0.212,0.424-0.165c0,0,0.955,0.283,2.358,0.566c1.403,0.33,3.325,0.578,5.247,0.531
					c2.537,0.047,5.147-0.412,7.605-1.097C23.811,17.873,24.023,17.991,24.082,18.191z"/>
			</g>
		</g>
		<g>
			<g>
				<g>
					<path class="st3" d="M14.782,19.595c-0.003,0.159,0.053,0.318,0.177,0.437c0.497,0.477,0.965,1.401,0.372,3.093
						c-0.259,0.737,0.853,1.128,1.112,0.39c0.687-1.961,0.215-3.206-0.313-3.921H14.782z"/>
				</g>
			</g>
			<g>
				<g>
					<path class="st3" d="M17.961,20.06c-0.77,0.021-1.038-0.284-1.138-0.465h-1.163c-0.135,0.607,0.675,1.678,2.328,1.644
						c0.525-0.02,0.747,0.09,0.806,0.193c0.138,0.243-0.117,0.899-0.347,1.26c-0.174,0.275-0.093,0.639,0.181,0.814
						c0.271,0.174,0.635,0.098,0.813-0.178C20.504,21.668,20.132,20.005,17.961,20.06z"/>
				</g>
			</g>
		</g>
		<g>
			<path class="st3" d="M0,22.658c0,0,3.979,0.589,5.306,2.309v0c0.157-0.418,0.288-0.833,0.431-1.249
				c-1.636-1.477-4.563-2.059-5.382-2.196L0,22.658z"/>
		</g>
		<g>
			<path class="st3" d="M31.645,21.521c-0.819,0.137-3.746,0.719-5.382,2.196c0.143,0.416,0.273,0.831,0.431,1.249v0
				C28.021,23.248,32,22.658,32,22.658L31.645,21.521z"/>
		</g>
	</g>
</g>
</svg>
