<?xml version="1.0" encoding="utf-8"?>
<!-- Generator: Adobe Illustrator 21.1.0, SVG Export Plug-In . SVG Version: 6.00 Build 0)  -->
<svg version="1.1" id="Layer_1" xmlns="http://www.w3.org/2000/svg" xmlns:xlink="http://www.w3.org/1999/xlink" x="0px" y="0px"
	 viewBox="0 0 32 32" style="enable-background:new 0 0 32 32;" xml:space="preserve">
<style type="text/css">
	.st0{fill:#45CBEA;}
	.st1{fill:#FFD93B;}
	.st2{fill:#F4C534;}
	.st3{fill:#3E4347;}
	.st4{opacity:0.2;}
	.st5{fill:#DE9C25;}
	.st6{fill:#FFFFFF;}
	.st7{fill:#E24B4B;}
	.st8{fill:#8CC63E;}
	.st9{fill:#D03F3F;}
	.st10{fill:#846144;}
	.st11{fill:#5A5F63;}
	.st12{fill:#777B7E;}
	.st13{fill:#FFDC97;}
	.st14{fill:#FFE9AB;}
	.st15{fill:#93979A;}
	.st16{fill:#FFD68D;}
	.st17{fill:#728389;}
	.st18{fill:#DAE5EF;}
	.st19{fill:#65B1EF;}
	.st20{fill:#F2F7F9;}
	.st21{fill:#8D9BA3;}
	.st22{opacity:0.2;fill:#F2F7F9;}
	.st23{fill:#E9EFF4;}
	.st24{fill:#FC97B2;}
	.st25{fill:#E84D88;}
	.st26{fill:#A5856D;}
	.st27{fill:#E9B02C;}
	.st28{fill:#7FB239;}
	.st29{fill:#CBD6E0;}
	.st30{fill:#ACB9C1;}
	.st31{fill:#8F6D52;}
	.st32{opacity:0.2;fill:#FFFFFF;}
	.st33{fill:#9A795F;}
	.st34{fill:#BBC7D1;}
	.st35{fill:#E18823;}
	.st36{fill:#F29A2E;}
	.st37{fill:#89664C;}
	.st38{fill:#D3D9DD;}
	.st39{fill:#DEE4E9;}
	.st40{fill:#AD2727;}
	.st41{fill:#719D34;}
	.st42{fill:#353A3D;}
	.st43{opacity:0.25;}
	.st44{opacity:0.2;fill:#3E4347;}
	.st45{fill:#373C3F;}
	.st46{opacity:0.1;}
	.st47{opacity:0.06;}
	.st48{fill:#7A5B44;}
	.st49{fill:#6B503B;}
	.st50{fill:#31373A;}
	.st51{fill:#59A5E0;}
	.st52{fill:#363B3F;}
	.st53{fill:#BF3333;}
	.st54{opacity:0.3;}
	.st55{fill:#4E99D2;}
	.st56{opacity:0.15;}
	.st57{opacity:0.1;fill:#3E4347;}
	.st58{fill:#64892F;}
	.st59{opacity:0.08;fill:#FFFFFF;}
	.st60{opacity:0.1;fill:#FFFFFF;}
</style>
<g>
	<g>
		<g>
			<g>
				<path class="st53" d="M23.728,12.842l-9.13,10.061c0.184,0.337,0.363,0.667,0.527,0.982c1.841,3.514,5.852,3.284,9.643,0.442
					C29.445,20.821,28.5,15.369,23.728,12.842z"/>
			</g>
		</g>
		<g>
			<g>
				<path class="st7" d="M14.177,27.972l-8.695-8.659c2.003-2.129,2.718-3.323,3.656-6.907c1.422-5.436,8.801-19.59,20.028-6.795
					c3.267,3.724,3.779,8.626,0.022,12.805C24.304,23.877,14.047,22.211,14.177,27.972z"/>
			</g>
		</g>
		<g>
			<g>
				<path class="st9" d="M16.121,23.946l0.82-0.149l-0.122-0.111l-0.071,0.061l-9.131-7.032l2.246,5.457l5.232,3.52
					c0,0,0.188-0.945,0.608-1.346S16.121,23.946,16.121,23.946z"/>
			</g>
		</g>
		<g>
			<g>
				<path class="st9" d="M24.897,21.531c-1.399,0.591-2.438,0.87-5.477,1.823c-4.995,1.635-4.977,2.815-5.243,4.599
					c-0.11-2.229,0.098-3.804,4.88-5.732c3.7-1.492,0.617-0.16,5.234-2.089c2.501-1.178,4.585-2.776,5.796-5.383
					c1.267-2.873,1.002-5.616-0.224-7.899c-0.586-1.12-0.216-0.384-0.697-1.239c0.308,0.342,0.66,0.727,0.913,1.079
					c1.773,2.288,2.557,5.478,1.318,8.538C30.172,18.328,27.709,20.244,24.897,21.531z"/>
			</g>
		</g>
		<g>
			<g>
				<path class="st7" d="M17.273,27.406l-2.888,3.182c-0.533,0.587-1.439,0.622-2.017,0.098l-9.558-8.674
					c-0.578-0.524-0.631-1.43-0.098-2.017l2.888-3.182c0.533-0.587,1.44-0.622,2.017-0.098l9.558,8.674
					C17.753,25.913,17.806,26.819,17.273,27.406z"/>
			</g>
		</g>
		<g>
			<g>
				<g>
					
						<ellipse transform="matrix(0.672 -0.7405 0.7405 0.672 -13.6665 13.3398)" class="st9" cx="8.227" cy="22.099" rx="1.084" ry="1.084"/>
				</g>
			</g>
			<g>
				<g>
					
						<ellipse transform="matrix(0.672 -0.7405 0.7405 0.672 -14.8812 17.0052)" class="st9" cx="11.757" cy="25.303" rx="1.084" ry="1.084"/>
				</g>
			</g>
		</g>
		<g>
			<g>
				<path class="st3" d="M0.174,25.737c-0.005-0.004-0.011-0.01-0.015-0.014c-0.208-0.203-0.213-0.536-0.01-0.744
					c0.027-0.027,2.66-2.666,5.961,0.329c1.769,1.606,3.859,1.128,5.262-0.368c0.198-0.21,0.528-0.222,0.741-0.029
					c0.002,0.002,0.005,0.004,0.007,0.006c0.213,0.2,0.224,0.535,0.024,0.748C10.406,27.51,7.67,28.151,5.4,26.091
					c-2.488-2.258-4.295-0.575-4.494-0.374C0.707,25.918,0.382,25.926,0.174,25.737z"/>
			</g>
		</g>
		<g>
			<g>
				<path class="st3" d="M4.711,31.455c-0.007-0.006-0.013-0.012-0.021-0.02c-3.359-3.389-2.845-4.167-2.675-4.423
					c0.402-0.606,1.301-0.352,2.127-0.023c0.712,0.284,1.294,0.267,1.781-0.05c1.34-0.871,1.736-3.803,1.775-4.86
					c0.011-0.292,0.256-0.52,0.548-0.509c0.293,0.012,0.52,0.257,0.508,0.549c-0.006,0.178-0.187,4.362-2.254,5.708
					c-0.785,0.511-1.71,0.56-2.749,0.147c-0.336-0.134-0.565-0.202-0.719-0.236c0.3,0.597,1.303,1.838,2.409,2.954
					c0.206,0.208,0.204,0.542-0.004,0.748C5.238,31.637,4.919,31.643,4.711,31.455z"/>
			</g>
		</g>
	</g>
	<g class="st46">
		<g>
			<path class="st6" d="M25.589,6.443c-0.743,0.418-1.588-0.098-2.384-0.369c-1.313-0.42-2.702-0.148-3.929,0.357
				c-2.338,0.962-4.975,2.991-6.045,1.342c-1.104-1.786,3.2-5.922,7.026-6.317C24.428,1.064,27.604,5.297,25.589,6.443z"/>
		</g>
	</g>
</g>
</svg>
