<?xml version="1.0" encoding="utf-8"?>
<!-- Generator: Adobe Illustrator 21.1.0, SVG Export Plug-In . SVG Version: 6.00 Build 0)  -->
<svg version="1.1" id="Layer_1" xmlns="http://www.w3.org/2000/svg" xmlns:xlink="http://www.w3.org/1999/xlink" x="0px" y="0px"
	 viewBox="0 0 32 32" style="enable-background:new 0 0 32 32;" xml:space="preserve">
<style type="text/css">
	.st0{fill:#45CBEA;}
	.st1{fill:#FFD93B;}
	.st2{fill:#F4C534;}
	.st3{fill:#3E4347;}
	.st4{opacity:0.2;}
	.st5{fill:#DE9C25;}
	.st6{fill:#FFFFFF;}
	.st7{fill:#E24B4B;}
	.st8{fill:#8CC63E;}
	.st9{fill:#D03F3F;}
	.st10{fill:#846144;}
	.st11{fill:#5A5F63;}
	.st12{fill:#777B7E;}
	.st13{fill:#FFDC97;}
	.st14{fill:#FFE9AB;}
	.st15{fill:#93979A;}
	.st16{fill:#FFD68D;}
	.st17{fill:#728389;}
	.st18{fill:#DAE5EF;}
	.st19{fill:#65B1EF;}
	.st20{fill:#F2F7F9;}
	.st21{fill:#8D9BA3;}
	.st22{opacity:0.2;fill:#F2F7F9;}
	.st23{fill:#E9EFF4;}
	.st24{fill:#FC97B2;}
	.st25{fill:#E84D88;}
	.st26{fill:#A5856D;}
	.st27{fill:#E9B02C;}
	.st28{fill:#7FB239;}
	.st29{fill:#CBD6E0;}
	.st30{fill:#ACB9C1;}
	.st31{fill:#8F6D52;}
	.st32{opacity:0.2;fill:#FFFFFF;}
	.st33{fill:#9A795F;}
	.st34{fill:#BBC7D1;}
	.st35{fill:#E18823;}
	.st36{fill:#F29A2E;}
	.st37{fill:#89664C;}
	.st38{fill:#D3D9DD;}
	.st39{fill:#DEE4E9;}
	.st40{fill:#AD2727;}
	.st41{fill:#719D34;}
	.st42{fill:#353A3D;}
	.st43{opacity:0.25;}
	.st44{opacity:0.2;fill:#3E4347;}
	.st45{fill:#373C3F;}
	.st46{opacity:0.1;}
	.st47{opacity:0.06;}
	.st48{fill:#7A5B44;}
	.st49{fill:#6B503B;}
	.st50{fill:#31373A;}
	.st51{fill:#59A5E0;}
	.st52{fill:#363B3F;}
	.st53{fill:#BF3333;}
	.st54{opacity:0.3;}
	.st55{fill:#4E99D2;}
	.st56{opacity:0.15;}
	.st57{opacity:0.1;fill:#3E4347;}
	.st58{fill:#64892F;}
	.st59{opacity:0.08;fill:#FFFFFF;}
	.st60{opacity:0.1;fill:#FFFFFF;}
</style>
<g>
	<g>
		<g>
			<polygon class="st7" points="11.95,24.787 7.895,28.842 7.654,24.337 3.149,24.096 7.204,20.041 11.7,20.291 			"/>
		</g>
	</g>
	<g>
		<g>
			<g>
				<path class="st39" d="M5.005,26.994c-0.076-0.076-0.132-0.174-0.154-0.284L0.387,5.864c-0.069-0.321,0.118-0.638,0.42-0.71
					c0.303-0.071,0.604,0.131,0.67,0.452l4.36,20.558l20.559,4.361c0.321,0.065,0.521,0.365,0.452,0.67
					c-0.072,0.302-0.39,0.489-0.71,0.42L5.289,27.148C5.18,27.126,5.082,27.071,5.005,26.994z"/>
			</g>
		</g>
	</g>
	<g>
		<g>
			<g>
				<g>
					<path class="st36" d="M27.148,31.993c-2.042,0.136-4.369-1.62-4.047-5.299c0.81-6.486,6.077-8.632,0.699-14.501
						c-0.7-0.7-1.358-1.374-1.983-2.008c-0.633-0.625-1.308-1.284-2.008-1.983C13.94,2.822,11.793,8.09,5.307,8.9
						C1.629,9.222-0.128,6.895,0.008,4.853c0.249-3.097,4.044-4.031,5.503-1.987c0.29,0.313,0.29,0.795,0,1.133
						c-0.312,0.337-0.855,0.373-1.193,0.06C3.342,3.231,2.346,3.882,2.271,4.853C2.272,5.561,3.007,6.478,4.754,6.13
						c2.296-0.473,5.031-2.435,6.672-3.373c2.287-1.479,6.442-1.744,11.154,1.254c0.469,0.318,2.411,1.863,2.973,2.438
						c0.575,0.562,2.12,2.504,2.438,2.973c2.998,4.711,2.732,8.867,1.254,11.154c-0.938,1.641-2.9,4.375-3.373,6.672
						c-0.347,1.746,0.569,2.481,1.277,2.482c0.971-0.074,1.622-1.071,0.795-2.047c-0.313-0.338-0.277-0.88,0.06-1.193
						c0.338-0.29,0.819-0.29,1.133,0C31.179,27.949,30.245,31.744,27.148,31.993z"/>
				</g>
			</g>
		</g>
	</g>
	<g>
		<path class="st35" d="M27.146,31.993c-0.237,0-0.372,0.011-0.585-0.019c-1.302-0.135-2.514-0.988-3.127-2.536
			c-0.385-1.098-0.428-2.126-0.251-3.298c0.105-0.606,0.254-1.228,0.455-1.858c0.461-1.449,1.079-2.639,1.639-3.875
			c0.263-0.586,0.639-1.474,0.767-2.121c0.389-1.64-0.041-3.082-0.966-4.482c-0.885-1.356-2.132-2.442-3.26-3.62
			c-1.179-1.13-2.265-2.377-3.621-3.261c-2.278-1.506-3.806-1.145-5.035-0.818C10.188,7.13,7.455,9.231,3.697,8.858
			c-1.364-0.21-2.075-0.705-2.785-1.415C0.176,6.507,0.007,5.865,0.008,4.855C0.103,5.907,0.484,6.579,1.144,7.24
			c0.712,0.586,1.503,0.994,2.637,1.042C4.297,8.316,4.72,8.271,5.235,8.209c-0.004,0-0.006,0-0.008,0
			c3.768-0.871,4.782-2.12,7.606-3.158c2.144-0.668,3.721-0.55,6.043,0.843c1.452,0.934,2.219,1.805,3.842,3.394
			c1.52,1.553,3.183,3.054,4.05,5.054c0.567,1.358,0.773,2.665,0.364,4.192c-0.18,0.768-0.555,1.604-0.903,2.305
			c-0.746,1.462-1.168,2.138-1.784,3.702c-0.581,1.48-0.999,3.187-0.559,4.724c0.436,1.487,1.557,2.398,2.682,2.638
			C26.731,31.945,26.993,31.979,27.146,31.993z"/>
	</g>
	<g>
		<g>
			<g>
				<path class="st11" d="M27.577,3.09L5.17,25.497c-0.82,0.82,0.514,2.154,1.334,1.334L28.911,4.423L27.577,3.09z"/>
			</g>
		</g>
		<g>
			<g>
				<polygon class="st23" points="26.973,6.362 29.597,6.424 31.999,0.002 25.577,2.403 25.639,5.028 				"/>
			</g>
		</g>
		<g>
			<g>
				<polygon class="st39" points="31.991,0 26.307,5.685 25.644,5.022 25.572,2.397 				"/>
			</g>
		</g>
	</g>
</g>
</svg>
