<?xml version="1.0" encoding="utf-8"?>
<!-- Generator: Adobe Illustrator 21.1.0, SVG Export Plug-In . SVG Version: 6.00 Build 0)  -->
<svg version="1.1" id="Layer_1" xmlns="http://www.w3.org/2000/svg" xmlns:xlink="http://www.w3.org/1999/xlink" x="0px" y="0px"
	 viewBox="0 0 32 32" style="enable-background:new 0 0 32 32;" xml:space="preserve">
<style type="text/css">
	.st0{fill:#45CBEA;}
	.st1{fill:#FFD93B;}
	.st2{fill:#F4C534;}
	.st3{fill:#3E4347;}
	.st4{opacity:0.2;}
	.st5{fill:#DE9C25;}
	.st6{fill:#FFFFFF;}
	.st7{fill:#E24B4B;}
	.st8{fill:#8CC63E;}
	.st9{fill:#D03F3F;}
	.st10{fill:#846144;}
	.st11{fill:#5A5F63;}
	.st12{fill:#777B7E;}
	.st13{fill:#FFDC97;}
	.st14{fill:#FFE9AB;}
	.st15{fill:#93979A;}
	.st16{fill:#FFD68D;}
	.st17{fill:#728389;}
	.st18{fill:#DAE5EF;}
	.st19{fill:#65B1EF;}
	.st20{fill:#F2F7F9;}
	.st21{fill:#8D9BA3;}
	.st22{opacity:0.2;fill:#F2F7F9;}
	.st23{fill:#E9EFF4;}
	.st24{fill:#FC97B2;}
	.st25{fill:#E84D88;}
	.st26{fill:#A5856D;}
	.st27{fill:#E9B02C;}
	.st28{fill:#7FB239;}
	.st29{fill:#CBD6E0;}
	.st30{fill:#ACB9C1;}
	.st31{fill:#8F6D52;}
	.st32{opacity:0.2;fill:#FFFFFF;}
	.st33{fill:#9A795F;}
	.st34{fill:#BBC7D1;}
	.st35{fill:#E18823;}
	.st36{fill:#F29A2E;}
	.st37{fill:#89664C;}
	.st38{fill:#D3D9DD;}
	.st39{fill:#DEE4E9;}
	.st40{fill:#AD2727;}
	.st41{fill:#719D34;}
	.st42{fill:#353A3D;}
	.st43{opacity:0.25;}
	.st44{opacity:0.2;fill:#3E4347;}
	.st45{fill:#373C3F;}
	.st46{opacity:0.1;}
	.st47{opacity:0.06;}
	.st48{fill:#7A5B44;}
	.st49{fill:#6B503B;}
	.st50{fill:#31373A;}
	.st51{fill:#59A5E0;}
	.st52{fill:#363B3F;}
	.st53{fill:#BF3333;}
	.st54{opacity:0.3;}
	.st55{fill:#4E99D2;}
	.st56{opacity:0.15;}
	.st57{opacity:0.1;fill:#3E4347;}
	.st58{fill:#64892F;}
	.st59{opacity:0.08;fill:#FFFFFF;}
	.st60{opacity:0.1;fill:#FFFFFF;}
</style>
<g>
	<g>
		<g>
			<path class="st41" d="M31.996,22.662v6.77H8.816c1.31-5.17,7.22-9.07,14.32-9.07C26.466,20.362,29.536,21.222,31.996,22.662z"/>
		</g>
		<g>
			<path class="st28" d="M22.334,29.429c-2.285-3.691-6.424-6.167-11.167-6.167c-4.743,0-8.882,2.476-11.167,6.167H22.334z"/>
		</g>
	</g>
	<g>
		<g>
			<g>
				<g>
					<path class="st9" d="M5.606,15.237c0-3.133,0-6.267,0-9.4c4.228-2.193,8.456,6.894,12.683,4.7
						C14.061,15.864,9.833,9.91,5.606,15.237z"/>
				</g>
				<g>
					<g>
						<g>
							<rect x="4.766" y="4.077" class="st2" width="1.286" height="24.523"/>
						</g>
					</g>
				</g>
				<g>
					<g>
						<path class="st23" d="M6.689,3.849c0,0.7-0.572,1.28-1.28,1.28c-0.708,0-1.28-0.58-1.28-1.28c0-0.708,0.572-1.28,1.28-1.28
							C6.118,2.568,6.689,3.14,6.689,3.849z"/>
					</g>
					<g>
						<path class="st39" d="M6.687,3.846c0,0.706-0.572,1.287-1.278,1.287c-0.543,0-1.01-0.343-1.182-0.829
							c0.209,0.2,0.486,0.324,0.801,0.324c0.639,0,1.163-0.524,1.163-1.163c0-0.315-0.124-0.601-0.334-0.81
							C6.344,2.835,6.687,3.303,6.687,3.846z"/>
					</g>
				</g>
			</g>
		</g>
		<g>
			<path class="st8" d="M32,29.429c-0.704-2.017-2.811-2.149-16.271-2.211C5.271,27.17,0.15,27.281,0,29.405L32,29.429z"/>
		</g>
		<g>
			<g>
				<path class="st6" d="M16.634,26.035c0,0.651-0.523,1.175-1.163,1.175c-0.652,0-1.175-0.524-1.175-1.175
					c0-0.651,0.523-1.175,1.175-1.175C16.111,24.86,16.634,25.384,16.634,26.035z"/>
			</g>
			<g>
				<path class="st23" d="M16.634,26.035c0,0.651-0.523,1.175-1.163,1.175c-0.43,0-0.814-0.233-1.012-0.582
					c0.477,0.291,1.093,0.233,1.5-0.174c0.349-0.361,0.442-0.861,0.291-1.291C16.483,25.372,16.634,25.686,16.634,26.035z"/>
			</g>
		</g>
	</g>
</g>
</svg>
