<?xml version="1.0" encoding="utf-8"?>
<!-- Generator: Adobe Illustrator 21.1.0, SVG Export Plug-In . SVG Version: 6.00 Build 0)  -->
<svg version="1.1" id="Layer_1" xmlns="http://www.w3.org/2000/svg" xmlns:xlink="http://www.w3.org/1999/xlink" x="0px" y="0px"
	 viewBox="0 0 32 32" style="enable-background:new 0 0 32 32;" xml:space="preserve">
<style type="text/css">
	.st0{fill:#45CBEA;}
	.st1{fill:#FFD93B;}
	.st2{fill:#F4C534;}
	.st3{fill:#3E4347;}
	.st4{opacity:0.2;}
	.st5{fill:#DE9C25;}
	.st6{fill:#FFFFFF;}
	.st7{fill:#E24B4B;}
	.st8{fill:#8CC63E;}
	.st9{fill:#D03F3F;}
	.st10{fill:#846144;}
	.st11{fill:#5A5F63;}
	.st12{fill:#777B7E;}
	.st13{fill:#FFDC97;}
	.st14{fill:#FFE9AB;}
	.st15{fill:#93979A;}
	.st16{fill:#FFD68D;}
	.st17{fill:#728389;}
	.st18{fill:#DAE5EF;}
	.st19{fill:#65B1EF;}
	.st20{fill:#F2F7F9;}
	.st21{fill:#8D9BA3;}
	.st22{opacity:0.2;fill:#F2F7F9;}
	.st23{fill:#E9EFF4;}
	.st24{fill:#FC97B2;}
	.st25{fill:#E84D88;}
	.st26{fill:#A5856D;}
	.st27{fill:#E9B02C;}
	.st28{fill:#7FB239;}
	.st29{fill:#CBD6E0;}
	.st30{fill:#ACB9C1;}
	.st31{fill:#8F6D52;}
	.st32{opacity:0.2;fill:#FFFFFF;}
	.st33{fill:#9A795F;}
	.st34{fill:#BBC7D1;}
	.st35{fill:#E18823;}
	.st36{fill:#F29A2E;}
	.st37{fill:#89664C;}
	.st38{fill:#D3D9DD;}
	.st39{fill:#DEE4E9;}
	.st40{fill:#AD2727;}
	.st41{fill:#719D34;}
	.st42{fill:#353A3D;}
	.st43{opacity:0.25;}
	.st44{opacity:0.2;fill:#3E4347;}
	.st45{fill:#373C3F;}
	.st46{opacity:0.1;}
	.st47{opacity:0.06;}
	.st48{fill:#7A5B44;}
	.st49{fill:#6B503B;}
	.st50{fill:#31373A;}
	.st51{fill:#59A5E0;}
	.st52{fill:#363B3F;}
	.st53{fill:#BF3333;}
	.st54{opacity:0.3;}
	.st55{fill:#4E99D2;}
	.st56{opacity:0.15;}
	.st57{opacity:0.1;fill:#3E4347;}
	.st58{fill:#64892F;}
	.st59{opacity:0.08;fill:#FFFFFF;}
	.st60{opacity:0.1;fill:#FFFFFF;}
</style>
<g>
	<g>
		<g>
			<g>
				<g>
					<ellipse class="st9" cx="18.826" cy="29.015" rx="2.983" ry="2.986"/>
				</g>
			</g>
			<g>
				<path class="st23" d="M17.96,31.7c-0.056,0.019-0.12-0.021-0.142-0.09c-0.007-0.023-0.015-0.046-0.022-0.069
					c-0.021-0.069,0.009-0.138,0.066-0.155c0.057-0.016,0.119,0.025,0.139,0.091c0.007,0.023,0.014,0.045,0.021,0.068
					C18.044,31.612,18.016,31.681,17.96,31.7z M17.797,31.15c-0.057,0.015-0.118-0.029-0.135-0.099
					c-0.006-0.023-0.011-0.047-0.017-0.07c-0.016-0.07,0.018-0.137,0.076-0.149c0.058-0.013,0.117,0.032,0.133,0.1
					c0.005,0.023,0.011,0.046,0.016,0.069C17.886,31.068,17.854,31.134,17.797,31.15z M17.671,30.592
					c-0.058,0.011-0.116-0.037-0.128-0.107c-0.004-0.024-0.008-0.047-0.012-0.071c-0.012-0.07,0.027-0.135,0.086-0.143
					c0.059-0.009,0.114,0.04,0.126,0.108c0.004,0.023,0.008,0.046,0.012,0.069C17.766,30.516,17.729,30.58,17.671,30.592z
					 M17.584,30.028c-0.059,0.007-0.113-0.044-0.121-0.115c-0.003-0.024-0.005-0.048-0.007-0.072
					c-0.007-0.071,0.036-0.132,0.095-0.137c0.059-0.005,0.111,0.047,0.118,0.116c0.002,0.023,0.005,0.047,0.007,0.07
					C17.684,29.959,17.643,30.021,17.584,30.028z M17.535,29.461c-0.059,0.003-0.11-0.052-0.113-0.123
					c-0.001-0.024-0.002-0.048-0.002-0.072c-0.002-0.071,0.045-0.129,0.104-0.13c0.059-0.001,0.108,0.055,0.11,0.124
					c0.001,0.023,0.001,0.047,0.002,0.07C17.639,29.399,17.594,29.458,17.535,29.461z M17.524,28.893
					c-0.059-0.001-0.106-0.059-0.104-0.13c0.001-0.024,0.002-0.048,0.002-0.072c0.003-0.071,0.054-0.126,0.113-0.123
					c0.059,0.003,0.104,0.062,0.101,0.131c-0.001,0.023-0.002,0.047-0.002,0.07C17.632,28.838,17.583,28.894,17.524,28.893z
					 M17.551,28.325c-0.059-0.005-0.102-0.066-0.095-0.137c0.002-0.024,0.005-0.048,0.007-0.072
					c0.007-0.071,0.062-0.122,0.121-0.115c0.059,0.007,0.1,0.069,0.092,0.138c-0.002,0.023-0.005,0.047-0.007,0.07
					C17.663,28.277,17.61,28.329,17.551,28.325z M17.617,27.759c-0.059-0.009-0.098-0.073-0.086-0.143
					c0.004-0.024,0.008-0.047,0.012-0.071c0.012-0.07,0.07-0.118,0.128-0.107c0.058,0.011,0.095,0.076,0.083,0.144
					c-0.004,0.023-0.008,0.046-0.012,0.069C17.731,27.719,17.675,27.768,17.617,27.759z M17.72,27.198
					c-0.058-0.013-0.093-0.079-0.076-0.149c0.006-0.023,0.011-0.047,0.017-0.07c0.017-0.07,0.078-0.114,0.135-0.099
					c0.057,0.015,0.089,0.082,0.073,0.15c-0.006,0.023-0.011,0.046-0.016,0.069C17.837,27.165,17.778,27.21,17.72,27.198z
					 M17.862,26.643c-0.057-0.016-0.087-0.086-0.066-0.155c0.007-0.023,0.014-0.046,0.022-0.069c0.022-0.069,0.086-0.109,0.142-0.09
					c0.056,0.019,0.083,0.088,0.062,0.155c-0.007,0.023-0.014,0.045-0.021,0.068C17.981,26.618,17.919,26.659,17.862,26.643z"/>
			</g>
			<g>
				<path class="st23" d="M19.107,31.852c-0.055,0.023-0.119-0.007-0.142-0.066c-0.008-0.02-0.016-0.04-0.023-0.06
					c-0.023-0.06,0.004-0.124,0.06-0.145c0.056-0.02,0.118,0.01,0.14,0.068c0.008,0.019,0.015,0.039,0.023,0.058
					C19.187,31.764,19.162,31.829,19.107,31.852z M18.929,31.376c-0.056,0.019-0.118-0.015-0.137-0.075
					c-0.006-0.02-0.013-0.041-0.019-0.061c-0.019-0.061,0.013-0.123,0.07-0.14c0.057-0.016,0.117,0.018,0.135,0.076
					c0.006,0.02,0.012,0.04,0.019,0.059C19.015,31.294,18.985,31.357,18.929,31.376z M18.785,30.892
					c-0.057,0.015-0.117-0.022-0.132-0.084c-0.005-0.021-0.01-0.041-0.015-0.062c-0.014-0.061,0.022-0.122,0.079-0.134
					c0.058-0.013,0.115,0.026,0.129,0.085c0.005,0.02,0.01,0.04,0.014,0.06C18.877,30.817,18.843,30.877,18.785,30.892z
					 M18.675,30.401c-0.058,0.011-0.115-0.03-0.126-0.092c-0.004-0.021-0.007-0.042-0.011-0.063c-0.01-0.062,0.03-0.12,0.088-0.128
					c0.059-0.009,0.113,0.033,0.123,0.093c0.003,0.02,0.007,0.041,0.01,0.061C18.771,30.333,18.733,30.39,18.675,30.401z
					 M18.598,29.906c-0.059,0.007-0.113-0.037-0.119-0.1c-0.002-0.021-0.004-0.042-0.006-0.063
					c-0.006-0.063,0.038-0.117,0.097-0.122c0.059-0.005,0.111,0.041,0.117,0.101c0.002,0.02,0.004,0.041,0.006,0.061
					C18.699,29.844,18.657,29.899,18.598,29.906z M18.555,29.407c-0.059,0.003-0.11-0.045-0.112-0.108
					c-0.001-0.021-0.002-0.042-0.002-0.063c-0.002-0.063,0.045-0.114,0.105-0.115c0.059-0.001,0.108,0.048,0.11,0.109
					c0.001,0.021,0.001,0.041,0.002,0.062C18.66,29.352,18.615,29.404,18.555,29.407z M18.546,28.908
					c-0.059-0.001-0.107-0.052-0.105-0.115c0.001-0.021,0.001-0.042,0.002-0.063c0.002-0.063,0.053-0.111,0.112-0.108
					c0.059,0.003,0.104,0.055,0.102,0.116c-0.001,0.021-0.001,0.041-0.002,0.062C18.653,28.86,18.605,28.908,18.546,28.908z
					 M18.57,28.408c-0.059-0.005-0.103-0.059-0.097-0.122c0.002-0.021,0.004-0.042,0.006-0.063c0.007-0.062,0.06-0.107,0.119-0.1
					c0.059,0.007,0.1,0.062,0.094,0.122c-0.002,0.02-0.004,0.041-0.006,0.061C18.68,28.367,18.629,28.413,18.57,28.408z
					 M18.627,27.911c-0.058-0.009-0.099-0.066-0.088-0.128c0.003-0.021,0.007-0.042,0.011-0.063
					c0.011-0.062,0.068-0.103,0.126-0.092c0.058,0.011,0.096,0.069,0.086,0.129c-0.004,0.02-0.007,0.041-0.01,0.061
					C18.74,27.877,18.686,27.919,18.627,27.911z M18.718,27.417c-0.058-0.013-0.094-0.073-0.079-0.134
					c0.005-0.021,0.01-0.041,0.015-0.062c0.015-0.061,0.074-0.099,0.132-0.084c0.057,0.015,0.091,0.075,0.077,0.135
					c-0.005,0.02-0.01,0.04-0.014,0.06C18.834,27.392,18.776,27.43,18.718,27.417z M18.843,26.929
					c-0.057-0.016-0.089-0.079-0.07-0.14c0.006-0.02,0.013-0.041,0.019-0.061c0.019-0.06,0.081-0.094,0.137-0.075
					c0.056,0.019,0.086,0.081,0.067,0.14c-0.006,0.02-0.012,0.04-0.019,0.059C18.96,26.911,18.9,26.946,18.843,26.929z
					 M19.001,26.448c-0.056-0.02-0.083-0.085-0.06-0.145c0.008-0.02,0.016-0.04,0.023-0.06c0.023-0.059,0.088-0.089,0.142-0.066
					c0.055,0.023,0.08,0.087,0.057,0.145c-0.008,0.019-0.015,0.039-0.023,0.058C19.119,26.438,19.057,26.469,19.001,26.448z"/>
			</g>
			<path class="st23" d="M18.714,26.032c-0.068,0.003-0.136,0.007-0.204,0.014c-0.757,1.907-0.757,4.032,0,5.938
				c0.067,0.007,0.135,0.011,0.204,0.014C17.93,30.087,17.93,27.943,18.714,26.032z"/>
		</g>
		<g class="st43">
			<g>
				<path class="st40" d="M21.81,29.015c0,1.647-1.337,2.985-2.985,2.985c-1.045,0-1.961-0.536-2.493-1.348
					c0.469,0.303,1.027,0.48,1.625,0.48c1.648,0,2.985-1.337,2.985-2.985c0-0.602-0.177-1.164-0.484-1.633
					C21.271,27.049,21.81,27.969,21.81,29.015z"/>
			</g>
		</g>
	</g>
	<g>
		<g>
			<g>
				<g>
					<path class="st2" d="M23.548,13.853L5.765,31.637c-0.29,0.29-0.742,0.445-1.152,0.318c-2.376-0.679-3.889-2.192-4.568-4.568
						c-0.127-0.41,0.028-0.863,0.318-1.153L18.146,8.451c0.17-0.17,0.438-0.17,0.601-0.007l4.808,4.808
						C23.718,13.415,23.718,13.683,23.548,13.853z"/>
				</g>
			</g>
			<g>
				<path class="st11" d="M24.243,9.386l-1.635-1.635c-0.111,0.174-0.225,0.347-0.366,0.488c-0.8,0.8-2.035,1.058-3.113,0.584
					c0.524,2.176,1.874,3.526,4.05,4.051C22.619,11.603,23.082,10.127,24.243,9.386z"/>
			</g>
			<g>
				
					<rect x="25.325" y="-0.578" transform="matrix(0.7071 0.7071 -0.7071 0.7071 11.6194 -17.2042)" class="st7" width="2.504" height="12.003"/>
			</g>
			<g>
				<polygon class="st9" points="30.431,3.339 28.027,2.203 27.338,2.892 29.743,4.027 				"/>
			</g>
			<g>
				<polygon class="st9" points="28.755,5.015 26.351,3.879 25.662,4.568 28.067,5.703 				"/>
			</g>
			<g>
				<polygon class="st9" points="27.079,6.691 24.674,5.556 23.986,6.244 26.39,7.38 				"/>
			</g>
			<g>
				<polygon class="st9" points="25.403,8.367 22.998,7.232 22.31,7.92 24.714,9.056 				"/>
			</g>
			<g>
				<path class="st11" d="M31.93,2.232l-0.577,0.577c-0.094,0.094-0.255,0.094-0.349,0l-1.813-1.813
					c-0.094-0.094-0.094-0.255,0-0.349l0.577-0.577c0.094-0.094,0.255-0.094,0.349,0l1.813,1.813
					C32.024,1.977,32.024,2.138,31.93,2.232z"/>
			</g>
		</g>
		<g>
			<polygon class="st27" points="16.892,11.84 9.569,19.164 14.957,20.309 20.159,15.107 			"/>
		</g>
		<g>
			<polygon class="st27" points="14.307,20.959 13.485,21.781 8.097,20.635 8.919,19.813 			"/>
		</g>
	</g>
</g>
</svg>
