<?xml version="1.0" encoding="utf-8"?>
<!-- Generator: Adobe Illustrator 21.1.0, SVG Export Plug-In . SVG Version: 6.00 Build 0)  -->
<svg version="1.1" id="Layer_1" xmlns="http://www.w3.org/2000/svg" xmlns:xlink="http://www.w3.org/1999/xlink" x="0px" y="0px"
	 viewBox="0 0 32 32" style="enable-background:new 0 0 32 32;" xml:space="preserve">
<style type="text/css">
	.st0{fill:#45CBEA;}
	.st1{fill:#FFD93B;}
	.st2{fill:#F4C534;}
	.st3{fill:#3E4347;}
	.st4{opacity:0.2;}
	.st5{fill:#DE9C25;}
	.st6{fill:#FFFFFF;}
	.st7{fill:#E24B4B;}
	.st8{fill:#8CC63E;}
	.st9{fill:#D03F3F;}
	.st10{fill:#846144;}
	.st11{fill:#5A5F63;}
	.st12{fill:#777B7E;}
	.st13{fill:#FFDC97;}
	.st14{fill:#FFE9AB;}
	.st15{fill:#93979A;}
	.st16{fill:#FFD68D;}
	.st17{fill:#728389;}
	.st18{fill:#DAE5EF;}
	.st19{fill:#65B1EF;}
	.st20{fill:#F2F7F9;}
	.st21{fill:#8D9BA3;}
	.st22{opacity:0.2;fill:#F2F7F9;}
	.st23{fill:#E9EFF4;}
	.st24{fill:#FC97B2;}
	.st25{fill:#E84D88;}
	.st26{fill:#A5856D;}
	.st27{fill:#E9B02C;}
	.st28{fill:#7FB239;}
	.st29{fill:#CBD6E0;}
	.st30{fill:#ACB9C1;}
	.st31{fill:#8F6D52;}
	.st32{opacity:0.2;fill:#FFFFFF;}
	.st33{fill:#9A795F;}
	.st34{fill:#BBC7D1;}
	.st35{fill:#E18823;}
	.st36{fill:#F29A2E;}
	.st37{fill:#89664C;}
	.st38{fill:#D3D9DD;}
	.st39{fill:#DEE4E9;}
	.st40{fill:#AD2727;}
	.st41{fill:#719D34;}
	.st42{fill:#353A3D;}
	.st43{opacity:0.25;}
	.st44{opacity:0.2;fill:#3E4347;}
	.st45{fill:#373C3F;}
	.st46{opacity:0.1;}
	.st47{opacity:0.06;}
	.st48{fill:#7A5B44;}
	.st49{fill:#6B503B;}
	.st50{fill:#31373A;}
	.st51{fill:#59A5E0;}
	.st52{fill:#363B3F;}
	.st53{fill:#BF3333;}
	.st54{opacity:0.3;}
	.st55{fill:#4E99D2;}
	.st56{opacity:0.15;}
	.st57{opacity:0.1;fill:#3E4347;}
	.st58{fill:#64892F;}
	.st59{opacity:0.08;fill:#FFFFFF;}
	.st60{opacity:0.1;fill:#FFFFFF;}
</style>
<g>
	<g>
		<path class="st11" d="M26.775,0l-7.225,13.73c-0.49,0.914-1.458,1.074-2.435,1.32c-4.312,1.086-12.018-0.517-14.028,0.313
			c-1.751,0.723-2.959,6.271-2.076,7.49c1.703,2.319,11.617,0.727,14.682,0.171c1.08-0.196,2.167-0.542,3.208-1.081
			c1.238-0.641,2.645-1.655,3.324-3.144C22.883,17.364,27.093,8.652,31.284,0H26.775z"/>
	</g>
	<g>
		<g>
			<path class="st7" d="M26.776,0L20.34,12.233l4.43,1.244C26.511,9.864,28.902,4.923,31.286,0H26.776z"/>
		</g>
	</g>
	<g>
		<path class="st23" d="M17.174,15.035c-0.02,0.005-0.04,0.01-0.06,0.015c-3.409,0.858-8.929,0.04-12.089,0.068
			c-1.521,3.102-2.431,6.024-2.321,8.649c3.167,0.781,9.373-0.119,12.294-0.622C16.017,20.705,16.686,17.951,17.174,15.035z"/>
	</g>
	<g>
		<path class="st39" d="M13.457,23.395c0.611-1.755,1.497-4.639,2.12-8.08c-0.129,0.015-0.261,0.028-0.393,0.039
			c-0.622,3.477-1.519,6.374-2.125,8.101C13.196,23.435,13.325,23.415,13.457,23.395z"/>
		<path class="st39" d="M6.604,15.156c-0.129-0.006-0.258-0.012-0.383-0.016c-0.611,1.681-1.657,4.901-2.349,8.826
			c0.124,0.014,0.25,0.026,0.379,0.038C4.942,20.055,5.998,16.822,6.604,15.156z"/>
		<path class="st39" d="M10.153,15.356c-0.125-0.007-0.249-0.014-0.374-0.021c-0.623,1.738-1.624,4.888-2.291,8.697
			c0.13-0.006,0.259-0.013,0.39-0.021C8.543,20.21,9.541,17.071,10.153,15.356z"/>
		<path class="st39" d="M8.379,15.253c-0.125-0.008-0.248-0.015-0.371-0.022c-0.617,1.717-1.656,4.935-2.343,8.84
			c0.126,0.001,0.255,0,0.384,0C6.728,20.166,7.765,16.955,8.379,15.253z"/>
		<path class="st39" d="M13.891,15.428c-0.128,0.004-0.254,0.008-0.384,0.01c-0.535,1.672-1.471,4.632-2.271,8.262
			c0.132-0.016,0.263-0.032,0.392-0.049C12.425,20.033,13.355,17.084,13.891,15.428z"/>
		<path class="st39" d="M12.069,15.43c-0.126-0.003-0.252-0.005-0.379-0.009c-0.55,1.725-1.49,4.761-2.303,8.477
			c0.13-0.012,0.26-0.023,0.389-0.035C10.586,20.159,11.523,17.141,12.069,15.43z"/>
	</g>
	<path class="st44" d="M8.566,21.78c-5.766,0.151-7.248-1.455-7.537-2.717c-0.38,1.585-0.447,3.198-0.018,3.789
		c1.704,2.319,11.617,0.727,14.682,0.171c1.08-0.196,2.167-0.542,3.208-1.081c1.238-0.641,2.645-1.655,3.324-3.144
		c0.274-0.597,1.168-2.464,2.416-5.057C23.706,15.203,17.204,21.554,8.566,21.78z"/>
	<g>
		<path class="st3" d="M27.801,30.114c0,1.042-2.486,1.886-5.552,1.886s-5.552-0.844-5.552-1.886v-2.905
			c0-1.042,2.486-1.886,5.552-1.886s5.552,0.844,5.552,1.886V30.114z"/>
	</g>
	<g>
		<path class="st11" d="M24.929,27.137v4.629c0.641-0.12,1.204-0.282,1.658-0.475v-4.154H24.929z"/>
	</g>
	<g>
		<path class="st11" d="M27.088,26.893v4.144c0.103-0.062,0.192-0.127,0.275-0.193v-3.952H27.088z"/>
	</g>
	<ellipse class="st11" cx="22.249" cy="27.209" rx="5.552" ry="1.886"/>
</g>
</svg>
