<?xml version="1.0" encoding="utf-8"?>
<!-- Generator: Adobe Illustrator 21.1.0, SVG Export Plug-In . SVG Version: 6.00 Build 0)  -->
<svg version="1.1" id="Layer_1" xmlns="http://www.w3.org/2000/svg" xmlns:xlink="http://www.w3.org/1999/xlink" x="0px" y="0px"
	 viewBox="0 0 32 32" style="enable-background:new 0 0 32 32;" xml:space="preserve">
<style type="text/css">
	.st0{fill:#45CBEA;}
	.st1{fill:#FFD93B;}
	.st2{fill:#F4C534;}
	.st3{fill:#3E4347;}
	.st4{opacity:0.2;}
	.st5{fill:#DE9C25;}
	.st6{fill:#FFFFFF;}
	.st7{fill:#E24B4B;}
	.st8{fill:#8CC63E;}
	.st9{fill:#D03F3F;}
	.st10{fill:#846144;}
	.st11{fill:#5A5F63;}
	.st12{fill:#777B7E;}
	.st13{fill:#FFDC97;}
	.st14{fill:#FFE9AB;}
	.st15{fill:#93979A;}
	.st16{fill:#FFD68D;}
	.st17{fill:#728389;}
	.st18{fill:#DAE5EF;}
	.st19{fill:#65B1EF;}
	.st20{fill:#F2F7F9;}
	.st21{fill:#8D9BA3;}
	.st22{opacity:0.2;fill:#F2F7F9;}
	.st23{fill:#E9EFF4;}
	.st24{fill:#FC97B2;}
	.st25{fill:#E84D88;}
	.st26{fill:#A5856D;}
	.st27{fill:#E9B02C;}
	.st28{fill:#7FB239;}
	.st29{fill:#CBD6E0;}
	.st30{fill:#ACB9C1;}
	.st31{fill:#8F6D52;}
	.st32{opacity:0.2;fill:#FFFFFF;}
	.st33{fill:#9A795F;}
	.st34{fill:#BBC7D1;}
	.st35{fill:#E18823;}
	.st36{fill:#F29A2E;}
	.st37{fill:#89664C;}
	.st38{fill:#D3D9DD;}
	.st39{fill:#DEE4E9;}
	.st40{fill:#AD2727;}
	.st41{fill:#719D34;}
	.st42{fill:#353A3D;}
	.st43{opacity:0.25;}
	.st44{opacity:0.2;fill:#3E4347;}
	.st45{fill:#373C3F;}
	.st46{opacity:0.1;}
	.st47{opacity:0.06;}
	.st48{fill:#7A5B44;}
	.st49{fill:#6B503B;}
	.st50{fill:#31373A;}
	.st51{fill:#59A5E0;}
	.st52{fill:#363B3F;}
	.st53{fill:#BF3333;}
	.st54{opacity:0.3;}
	.st55{fill:#4E99D2;}
	.st56{opacity:0.15;}
	.st57{opacity:0.1;fill:#3E4347;}
	.st58{fill:#64892F;}
	.st59{opacity:0.08;fill:#FFFFFF;}
	.st60{opacity:0.1;fill:#FFFFFF;}
</style>
<g>
	<path class="st39" d="M1.489,20.832H2.67c-0.008-0.011-0.017-0.022-0.025-0.033c0.491-0.458,0.971-0.917,1.439-1.377
		c0.094,0.122,0.189,0.243,0.283,0.364h0.962c-0.235-0.301-0.471-0.603-0.705-0.905c0.454-0.455,0.897-0.911,1.333-1.368
		c0.35,0.438,0.701,0.876,1.053,1.312c-0.317,0.321-0.642,0.641-0.968,0.961h1.081c0.123-0.121,0.248-0.242,0.367-0.364
		c0.099,0.122,0.198,0.243,0.297,0.364h0.98c-0.25-0.305-0.499-0.609-0.747-0.915c0.437-0.452,0.864-0.905,1.285-1.359
		c0.364,0.441,0.729,0.882,1.098,1.321c-0.303,0.318-0.613,0.635-0.923,0.952h1.061c0.119-0.121,0.238-0.243,0.354-0.365
		c0.103,0.122,0.207,0.243,0.312,0.365h0.999c-0.264-0.308-0.528-0.616-0.789-0.924c0.418-0.449,0.83-0.899,1.236-1.35
		c0.379,0.445,0.76,0.888,1.146,1.332c-0.289,0.315-0.583,0.629-0.878,0.942h1.04c0.114-0.122,0.228-0.243,0.34-0.365
		c0.107,0.122,0.217,0.243,0.325,0.365h1.019c-0.279-0.311-0.557-0.622-0.832-0.933c0.402-0.446,0.797-0.893,1.189-1.341
		c0.393,0.448,0.789,0.894,1.192,1.34c-0.275,0.312-0.555,0.623-0.835,0.934h1.021c0.109-0.122,0.219-0.243,0.326-0.365
		c0.111,0.122,0.225,0.243,0.339,0.365h1.039c-0.294-0.314-0.587-0.628-0.875-0.943c0.384-0.443,0.764-0.887,1.142-1.331
		c0.407,0.451,0.82,0.901,1.24,1.35c-0.262,0.309-0.527,0.616-0.792,0.924h1.001c0.104-0.122,0.209-0.243,0.312-0.365
		c0.115,0.122,0.235,0.243,0.353,0.365h1.059c-0.31-0.317-0.618-0.634-0.921-0.952c0.368-0.44,0.732-0.881,1.095-1.322
		c0.422,0.454,0.851,0.907,1.288,1.359c-0.249,0.305-0.499,0.61-0.749,0.914h0.981c0.1-0.121,0.2-0.243,0.299-0.364
		c0.119,0.122,0.243,0.243,0.366,0.364h1.08c-0.325-0.32-0.649-0.64-0.965-0.961c0.351-0.437,0.7-0.874,1.049-1.312
		c0.437,0.457,0.881,0.913,1.337,1.369c-0.236,0.302-0.471,0.604-0.707,0.905h0.962c0.095-0.121,0.19-0.242,0.284-0.364
		c0.468,0.46,0.946,0.919,1.436,1.377c-0.008,0.011-0.016,0.022-0.025,0.033h0.876c0.028-0.128,0.014-0.262-0.088-0.356
		c-0.596-0.552-1.167-1.106-1.73-1.661l1.004-1.302c0.433,0.439,0.872,0.877,1.322,1.315V17.77c-0.288-0.285-0.579-0.57-0.859-0.856
		c0.284-0.368,0.571-0.735,0.859-1.104v-1.489c-0.378-0.41-0.751-0.82-1.116-1.231c0.365-0.444,0.733-0.888,1.108-1.332
		c0.003,0.003,0.006,0.007,0.009,0.01v-1.19c-0.003,0.003-0.006,0.007-0.009,0.01c-0.374-0.444-0.743-0.888-1.108-1.331
		c0.365-0.411,0.738-0.821,1.116-1.231V6.537c-0.287-0.368-0.574-0.736-0.859-1.104c0.28-0.286,0.571-0.571,0.859-0.856V3.519
		c-0.451,0.438-0.889,0.876-1.322,1.315L28.39,3.532c0.562-0.555,1.134-1.109,1.73-1.661c0.142-0.131,0.162-0.348,0.046-0.504
		c-0.176-0.236-0.356-0.47-0.533-0.706h-0.945c0.223,0.295,0.447,0.59,0.668,0.886c-0.49,0.458-0.969,0.917-1.436,1.377
		c-0.336-0.433-0.674-0.865-1.013-1.296c0.339-0.323,0.693-0.645,1.045-0.967h-1.105c-0.135,0.126-0.272,0.252-0.409,0.378
		c-0.101-0.126-0.203-0.252-0.303-0.378h-0.966c0.24,0.299,0.482,0.598,0.719,0.898c-0.468,0.454-0.924,0.91-1.373,1.366
		c-0.355-0.437-0.711-0.873-1.072-1.308c0.322-0.319,0.656-0.638,0.988-0.956h-1.08c-0.13,0.127-0.261,0.253-0.393,0.379
		c-0.108-0.126-0.215-0.253-0.321-0.379H21.65c0.258,0.303,0.517,0.605,0.77,0.909c-0.445,0.451-0.882,0.903-1.31,1.355
		c-0.373-0.441-0.75-0.881-1.132-1.32c0.305-0.316,0.62-0.63,0.933-0.945h-1.056c-0.124,0.127-0.25,0.253-0.375,0.38
		c-0.114-0.126-0.227-0.253-0.34-0.38h-1.009c0.276,0.307,0.553,0.613,0.823,0.921c-0.424,0.447-0.84,0.895-1.249,1.344
		c-0.392-0.445-0.788-0.889-1.191-1.332c0.288-0.312,0.583-0.622,0.878-0.933h-1.033C16.24,0.788,16.121,0.915,16,1.041
		c-0.12-0.126-0.239-0.253-0.357-0.38h-1.032c0.294,0.311,0.589,0.621,0.876,0.933c-0.402,0.443-0.797,0.887-1.188,1.332
		c-0.411-0.449-0.828-0.897-1.252-1.344c0.271-0.308,0.548-0.614,0.824-0.921h-1.01c-0.113,0.127-0.226,0.253-0.34,0.38
		c-0.126-0.126-0.251-0.253-0.375-0.38h-1.055c0.313,0.314,0.626,0.629,0.93,0.944c-0.38,0.439-0.756,0.879-1.128,1.32
		c-0.43-0.453-0.867-0.905-1.314-1.355c0.255-0.304,0.514-0.607,0.773-0.91H9.364C9.257,0.788,9.149,0.914,9.041,1.041
		C8.91,0.914,8.779,0.788,8.65,0.661H7.571C7.903,0.98,8.236,1.298,8.557,1.617C8.198,2.052,7.842,2.488,7.489,2.925
		C7.04,2.469,6.582,2.014,6.112,1.559c0.238-0.3,0.48-0.599,0.721-0.897H5.867C5.766,0.788,5.664,0.914,5.562,1.04
		C5.425,0.914,5.289,0.788,5.154,0.661H4.05c0.351,0.322,0.705,0.644,1.043,0.967C4.755,2.06,4.418,2.492,4.083,2.925
		c-0.468-0.46-0.948-0.919-1.439-1.377c0.222-0.296,0.446-0.591,0.67-0.886H2.369c-0.958,1.27-0.964,0.697,1.245,2.87L2.607,4.834
		C2.48,4.705,1.055,3.244,0.893,3.162v1.024c0.425,0.416,0.843,0.831,1.25,1.248C1.807,5.869,1.469,6.306,1.128,6.743
		C1.052,6.661,0.97,6.58,0.893,6.499v1.764c0.095-0.119,0.191-0.239,0.285-0.358c0.415,0.45,0.823,0.901,1.223,1.352
		c-0.364,0.443-0.732,0.887-1.106,1.332c-0.132-0.154-0.269-0.308-0.403-0.463v2.095c0.133-0.154,0.27-0.308,0.403-0.463
		c0.373,0.444,0.742,0.888,1.106,1.332c-0.4,0.451-0.808,0.902-1.223,1.352c-0.094-0.119-0.191-0.239-0.285-0.358v1.764
		c0.077-0.081,0.158-0.162,0.235-0.244c0.341,0.437,0.679,0.873,1.015,1.309c-0.406,0.417-0.825,0.833-1.25,1.248v1.55l0.738,0.995
		C1.585,20.748,1.536,20.79,1.489,20.832z M4.158,18.282L3.143,16.97c0.438-0.454,0.868-0.909,1.291-1.365l1.048,1.316
		C5.05,17.375,4.609,17.829,4.158,18.282z M7.832,11.759c0.376,0.445,0.749,0.891,1.12,1.336c-0.39,0.449-0.785,0.899-1.185,1.347
		c-0.365-0.444-0.73-0.89-1.097-1.335C7.062,12.658,7.448,12.208,7.832,11.759z M6.177,12.515c-0.37-0.447-0.742-0.894-1.12-1.342
		c0.377-0.447,0.75-0.894,1.12-1.342c0.389,0.447,0.775,0.894,1.156,1.342C6.952,11.621,6.567,12.068,6.177,12.515z M8.326,11.174
		c0.378-0.447,0.753-0.894,1.125-1.341c0.386,0.447,0.77,0.894,1.15,1.341c-0.38,0.447-0.764,0.895-1.15,1.342
		C9.079,12.068,8.704,11.621,8.326,11.174z M11.099,11.759l1.129,1.338c-0.386,0.449-0.774,0.897-1.168,1.344l-1.115-1.337
		C10.333,12.656,10.718,12.208,11.099,11.759z M11.595,11.174c0.378-0.447,0.755-0.894,1.131-1.342
		c0.383,0.447,0.765,0.894,1.144,1.341c-0.38,0.447-0.761,0.894-1.144,1.341L11.595,11.174z M14.368,11.759l1.135,1.341
		c-0.38,0.448-0.763,0.896-1.149,1.343c-0.378-0.446-0.756-0.893-1.133-1.341C13.605,12.655,13.987,12.207,14.368,11.759z
		 M14.864,11.174L16,9.832l1.14,1.341L16,12.515L14.864,11.174z M17.637,11.758c0.379,0.448,0.76,0.896,1.143,1.344
		c-0.376,0.447-0.753,0.894-1.13,1.34c-0.387-0.447-0.771-0.895-1.153-1.343L17.637,11.758z M18.133,11.174
		c0.379-0.447,0.76-0.894,1.142-1.341c0.377,0.447,0.755,0.894,1.134,1.341c-0.379,0.447-0.756,0.894-1.134,1.341
		C18.893,12.068,18.513,11.621,18.133,11.174z M20.904,11.758c0.381,0.449,0.765,0.898,1.152,1.346l-1.113,1.338
		c-0.393-0.448-0.782-0.897-1.17-1.345C20.149,12.651,20.526,12.205,20.904,11.758z M21.402,11.174
		c0.38-0.447,0.762-0.894,1.147-1.341c0.374,0.447,0.749,0.894,1.128,1.341c-0.378,0.447-0.754,0.894-1.128,1.341
		C22.164,12.068,21.781,11.621,21.402,11.174z M24.171,11.758c0.382,0.45,0.769,0.899,1.16,1.348
		c-0.367,0.445-0.731,0.891-1.095,1.335c-0.4-0.448-0.796-0.898-1.187-1.347C23.421,12.65,23.795,12.204,24.171,11.758z
		 M24.67,11.174c0.38-0.447,0.765-0.894,1.153-1.341c0.371,0.447,0.745,0.894,1.123,1.341c-0.378,0.447-0.751,0.894-1.123,1.341
		C25.435,12.068,25.05,11.621,24.67,11.174z M27.44,11.759c0.383,0.45,0.772,0.9,1.167,1.35c-0.361,0.444-0.719,0.889-1.075,1.333
		c-0.409-0.449-0.811-0.899-1.207-1.349C26.693,12.648,27.064,12.204,27.44,11.759z M26.324,9.255c0.396-0.45,0.798-0.9,1.207-1.349
		c0.356,0.444,0.713,0.888,1.075,1.333c-0.394,0.45-0.783,0.9-1.167,1.35C27.064,10.143,26.693,9.699,26.324,9.255z M25.839,8.666
		c-0.364-0.443-0.726-0.886-1.088-1.328c0.408-0.451,0.824-0.902,1.245-1.352l1.058,1.324C26.643,7.762,26.239,8.214,25.839,8.666z
		 M25.331,9.24c-0.391,0.449-0.777,0.899-1.16,1.348c-0.376-0.446-0.751-0.891-1.122-1.337c0.391-0.449,0.786-0.899,1.187-1.347
		C24.6,8.35,24.965,8.795,25.331,9.24z M22.56,8.666l-1.108-1.333c0.398-0.45,0.803-0.899,1.213-1.348l1.09,1.329
		C23.35,7.764,22.953,8.215,22.56,8.666z M22.056,9.242c-0.387,0.449-0.771,0.898-1.152,1.346c-0.378-0.446-0.755-0.893-1.131-1.339
		c0.387-0.448,0.776-0.897,1.17-1.345L22.056,9.242z M19.281,8.666c-0.376-0.446-0.752-0.892-1.129-1.338
		c0.389-0.448,0.784-0.896,1.181-1.343c0.375,0.444,0.749,0.889,1.121,1.334C20.058,7.768,19.668,8.217,19.281,8.666z M18.78,9.245
		c-0.383,0.448-0.764,0.896-1.143,1.344l-1.14-1.341c0.382-0.448,0.766-0.896,1.153-1.343C18.027,8.351,18.403,8.798,18.78,9.245z
		 M16,8.666c-0.381-0.448-0.764-0.895-1.149-1.342c0.38-0.447,0.764-0.893,1.15-1.339c0.387,0.446,0.771,0.892,1.153,1.338
		C16.766,7.771,16.383,8.218,16,8.666z M15.503,9.248l-1.135,1.341c-0.381-0.448-0.763-0.896-1.147-1.344
		c0.377-0.447,0.754-0.894,1.133-1.34C14.741,8.352,15.123,8.8,15.503,9.248z M12.721,8.666c-0.387-0.449-0.776-0.899-1.17-1.347
		c0.371-0.445,0.744-0.89,1.118-1.334c0.399,0.447,0.794,0.895,1.185,1.343C13.474,7.774,13.097,8.22,12.721,8.666z M12.228,9.25
		c-0.375,0.446-0.751,0.892-1.128,1.339c-0.381-0.449-0.767-0.897-1.155-1.346l1.115-1.338C11.454,8.353,11.842,8.801,12.228,9.25z
		 M9.441,8.666C9.048,8.215,8.652,7.764,8.25,7.314l1.087-1.329c0.411,0.449,0.816,0.898,1.215,1.347L9.441,8.666z M8.952,9.252
		c-0.371,0.445-0.744,0.891-1.12,1.336C7.448,10.139,7.061,9.69,6.67,9.24C7.036,8.795,7.402,8.35,7.767,7.905
		C8.167,8.354,8.562,8.803,8.952,9.252z M6.161,8.666C5.763,8.214,5.36,7.761,4.95,7.31l1.055-1.324
		c0.423,0.45,0.84,0.901,1.248,1.352C6.89,7.78,6.527,8.223,6.161,8.666z M5.677,9.255c-0.368,0.444-0.738,0.889-1.112,1.334
		c-0.384-0.45-0.774-0.9-1.17-1.35c0.362-0.444,0.721-0.889,1.078-1.333C4.88,8.355,5.281,8.804,5.677,9.255z M5.677,13.093
		c-0.396,0.45-0.797,0.9-1.204,1.349c-0.357-0.444-0.716-0.888-1.078-1.333c0.395-0.45,0.784-0.901,1.17-1.351
		C4.939,12.203,5.309,12.648,5.677,13.093z M4.95,15.037c0.41-0.452,0.813-0.904,1.212-1.356c0.365,0.443,0.729,0.886,1.091,1.328
		c-0.409,0.451-0.825,0.902-1.248,1.352L4.95,15.037z M7.542,18.283c-0.354-0.439-0.706-0.879-1.058-1.32
		c0.426-0.452,0.844-0.906,1.255-1.359l1.083,1.323C8.402,17.38,7.976,17.832,7.542,18.283z M8.25,15.033
		c0.402-0.45,0.798-0.901,1.19-1.351l1.111,1.333c-0.399,0.45-0.805,0.899-1.215,1.348L8.25,15.033z M10.926,18.283
		c-0.369-0.441-0.736-0.884-1.102-1.327c0.413-0.45,0.819-0.901,1.22-1.352c0.37,0.444,0.742,0.887,1.115,1.33
		C11.754,17.385,11.343,17.834,10.926,18.283z M11.55,15.028c0.394-0.449,0.784-0.898,1.171-1.347
		c0.377,0.446,0.754,0.892,1.132,1.338c-0.39,0.448-0.786,0.896-1.185,1.343C12.294,15.918,11.921,15.473,11.55,15.028z
		 M14.31,18.283c-0.386-0.444-0.769-0.889-1.147-1.335c0.4-0.448,0.795-0.896,1.186-1.344c0.38,0.446,0.763,0.892,1.149,1.338
		C15.107,17.39,14.711,17.837,14.31,18.283z M14.851,15.023c0.386-0.447,0.769-0.894,1.149-1.342
		c0.382,0.448,0.766,0.895,1.153,1.343c-0.381,0.446-0.766,0.893-1.153,1.338C15.615,15.916,15.231,15.47,14.851,15.023z
		 M17.694,18.283c-0.402-0.447-0.799-0.894-1.191-1.342c0.387-0.445,0.771-0.891,1.152-1.338c0.39,0.448,0.784,0.897,1.183,1.344
		C18.459,17.395,18.079,17.839,17.694,18.283z M19.333,16.362c-0.397-0.447-0.792-0.895-1.181-1.343
		c0.377-0.446,0.753-0.892,1.129-1.338c0.387,0.449,0.778,0.898,1.173,1.347C20.081,15.474,19.708,15.918,19.333,16.362z
		 M21.078,18.283c-0.419-0.449-0.831-0.898-1.237-1.348c0.374-0.443,0.747-0.886,1.117-1.33c0.401,0.451,0.806,0.902,1.218,1.352
		C21.812,17.399,21.447,17.841,21.078,18.283z M22.665,16.362c-0.41-0.449-0.815-0.898-1.213-1.348l1.108-1.333
		c0.394,0.451,0.791,0.901,1.194,1.352L22.665,16.362z M24.462,18.282c-0.436-0.451-0.862-0.903-1.283-1.355l1.085-1.323
		c0.411,0.453,0.829,0.907,1.252,1.359C25.166,17.403,24.815,17.843,24.462,18.282z M25.996,16.362
		c-0.421-0.451-0.837-0.901-1.245-1.353c0.361-0.442,0.724-0.885,1.088-1.328c0.399,0.453,0.804,0.905,1.215,1.357L25.996,16.362z
		 M27.846,18.282c-0.452-0.453-0.894-0.907-1.327-1.361l1.051-1.316c0.422,0.456,0.85,0.911,1.287,1.365L27.846,18.282z
		 M30.356,15.042c-0.345,0.44-0.687,0.88-1.027,1.319c-0.434-0.452-0.86-0.904-1.277-1.356c0.353-0.441,0.709-0.882,1.067-1.323
		C29.524,14.136,29.935,14.589,30.356,15.042z M30.213,11.174c-0.377,0.447-0.749,0.894-1.117,1.341
		c-0.391-0.447-0.778-0.894-1.158-1.341c0.381-0.447,0.767-0.894,1.158-1.341C29.465,10.279,29.836,10.726,30.213,11.174z
		 M30.356,7.305c-0.421,0.453-0.832,0.907-1.237,1.361c-0.359-0.442-0.714-0.883-1.068-1.324c0.417-0.453,0.843-0.905,1.277-1.357
		C29.669,6.425,30.011,6.865,30.356,7.305z M28.857,5.377c-0.437,0.455-0.866,0.91-1.287,1.366l-1.051-1.316
		c0.434-0.455,0.875-0.908,1.327-1.361L28.857,5.377z M26.362,2.162c0.341,0.434,0.681,0.869,1.02,1.304
		c-0.456,0.455-0.9,0.912-1.337,1.369c-0.349-0.438-0.698-0.876-1.049-1.312C25.441,3.068,25.897,2.614,26.362,2.162z M25.516,5.384
		c-0.425,0.452-0.841,0.905-1.252,1.359L23.179,5.42c0.421-0.453,0.847-0.905,1.283-1.356C24.815,4.504,25.166,4.943,25.516,5.384z
		 M22.909,2.162c0.361,0.437,0.72,0.875,1.076,1.314c-0.437,0.452-0.866,0.906-1.288,1.359c-0.363-0.441-0.728-0.882-1.095-1.322
		C22.028,3.062,22.465,2.611,22.909,2.162z M22.177,5.391c-0.412,0.45-0.818,0.901-1.218,1.352c-0.371-0.444-0.743-0.888-1.117-1.33
		c0.406-0.45,0.818-0.9,1.237-1.348C21.447,4.506,21.812,4.948,22.177,5.391z M19.454,2.161c0.382,0.44,0.76,0.882,1.134,1.324
		c-0.42,0.449-0.832,0.899-1.24,1.35c-0.377-0.444-0.757-0.888-1.142-1.331C18.616,3.055,19.032,2.608,19.454,2.161z M18.838,5.399
		c-0.399,0.447-0.793,0.896-1.183,1.344c-0.381-0.446-0.765-0.892-1.152-1.338c0.392-0.448,0.789-0.895,1.191-1.342
		C18.079,4.508,18.459,4.953,18.838,5.399z M16,2.162c0.403,0.443,0.801,0.888,1.192,1.333C16.79,3.941,16.393,4.388,16,4.835
		c-0.391-0.448-0.787-0.895-1.189-1.341C15.202,3.049,15.599,2.605,16,2.162z M14.31,4.064c0.402,0.446,0.797,0.893,1.188,1.342
		C15.112,5.85,14.73,6.297,14.35,6.743c-0.391-0.449-0.786-0.897-1.186-1.344C13.543,4.953,13.924,4.508,14.31,4.064z M12.547,2.161
		c0.423,0.447,0.84,0.894,1.251,1.343c-0.386,0.443-0.767,0.887-1.146,1.331c-0.406-0.451-0.817-0.901-1.236-1.35
		C11.789,3.043,12.166,2.601,12.547,2.161z M10.926,4.064c0.418,0.449,0.829,0.898,1.234,1.348
		c-0.373,0.443-0.745,0.887-1.115,1.331c-0.401-0.451-0.807-0.902-1.22-1.352C10.189,4.948,10.556,4.506,10.926,4.064z M9.092,2.162
		c0.445,0.45,0.883,0.9,1.31,1.352c-0.369,0.44-0.734,0.88-1.098,1.321C8.883,4.381,8.456,3.928,8.019,3.476
		C8.375,3.037,8.732,2.599,9.092,2.162z M7.542,4.064c0.435,0.451,0.86,0.903,1.28,1.355L7.739,6.743
		C7.328,6.29,6.909,5.837,6.484,5.384C6.835,4.943,7.188,4.504,7.542,4.064z M5.639,2.163c0.466,0.452,0.923,0.906,1.369,1.36
		C6.656,3.959,6.306,4.397,5.956,4.835C5.52,4.378,5.077,3.922,4.623,3.466C4.96,3.031,5.299,2.596,5.639,2.163z M4.158,4.065
		c0.45,0.453,0.892,0.907,1.324,1.361L4.434,6.743C4.011,6.287,3.582,5.832,3.143,5.377L4.158,4.065z M1.648,7.304
		c0.344-0.44,0.684-0.879,1.024-1.318C3.106,6.437,3.534,6.89,3.953,7.343C3.598,7.784,3.241,8.225,2.882,8.666
		C2.478,8.212,2.068,7.758,1.648,7.304z M1.79,11.174c0.377-0.447,0.747-0.894,1.114-1.341c0.393,0.447,0.78,0.894,1.161,1.341
		c-0.382,0.447-0.769,0.894-1.161,1.341C2.537,12.068,2.166,11.621,1.79,11.174z M1.648,15.043c0.42-0.453,0.829-0.908,1.234-1.362
		c0.359,0.441,0.716,0.883,1.071,1.323c-0.419,0.453-0.846,0.905-1.281,1.357C2.333,15.922,1.992,15.483,1.648,15.043z M1.226,18.89
		c0.472-0.458,0.931-0.917,1.381-1.377l1.008,1.302c-0.465,0.457-0.942,0.913-1.429,1.368L1.226,18.89z"/>
	<path class="st34" d="M31.655,3.367C31.655,1.511,30.144,0,28.288,0H3.712C1.856,0,0.345,1.511,0.345,3.367v18.414
		c0,0.236,0.159,0.532,0.411,0.662c0.061,0.032,0.294,0.12,0.347,0.094c0.035,0.009,0.237-0.026,0.355-0.089l4.668-2.485h19.75
		l4.668,2.485c0.118,0.062,0.32,0.097,0.355,0.089c0.068,0.034,0.347-0.093,0.426-0.148c0.218-0.153,0.331-0.383,0.331-0.609V3.367z
		 M30.117,3.128c0.01,0.079,0.024,0.157,0.024,0.238v17.154l-3.321-1.768V6.425L30.117,3.128z M5.179,18.753l-3.321,1.768V3.367
		c0-0.082,0.014-0.16,0.024-0.239l3.296,3.297V18.753z M25.307,18.451H6.693V6.112c0-0.201-0.08-0.393-0.222-0.535L2.708,1.813
		c0.29-0.188,0.633-0.3,1.004-0.3h24.576c0.37,0,0.714,0.112,1.004,0.3l-3.763,3.763c-0.142,0.142-0.222,0.335-0.222,0.535V18.451z"
		/>
	
		<ellipse transform="matrix(0.7071 -0.7071 0.7071 0.7071 -14.909 19.4291)" class="st23" cx="15.999" cy="27.712" rx="4.288" ry="4.288"/>
	
		<ellipse transform="matrix(0.7071 -0.7071 0.7071 0.7071 -14.909 19.4291)" class="st23" cx="15.999" cy="27.712" rx="4.288" ry="4.288"/>
	<path class="st38" d="M20.289,27.713C20.289,30.081,18.368,32,16,32c-1.423,0-2.684-0.693-3.466-1.76
		c0.711,0.523,1.587,0.83,2.535,0.83c2.368,0,4.286-1.921,4.286-4.289c0-0.945-0.307-1.824-0.827-2.532
		C19.596,25.029,20.289,26.291,20.289,27.713z"/>
	<path class="st3" d="M12.967,24.68c-0.358,0.358-0.635,0.768-0.842,1.202c0,0.004-0.019,0.057-0.036,0.108
		c0.353-0.163,0.915-0.407,1.257-0.54c0.239,0.243,0.519,0.527,0.824,0.836c-0.146,0.506-0.076,0.216-0.398,1.399
		c-0.792,0.239-0.531,0.159-1.226,0.373c-0.227-0.269-0.561-0.705-0.781-1.008c-0.015,0.08-0.025,0.157-0.032,0.237
		c0.199,0.282,0.436,0.588,0.701,0.906c-0.184,1.006-0.127,0.734-0.191,1.268c-0.049,0.011-0.093,0.021-0.14,0.03
		c0.025,0.055,0.047,0.112,0.076,0.167c0.044-0.009,0.08-0.015,0.125-0.027c0.28,0.318,0.58,0.637,0.887,0.948
		c-0.013,0.119-0.023,0.231-0.03,0.341c0.055,0.047,0.108,0.097,0.165,0.142c0.009-0.127,0.023-0.262,0.042-0.406
		c0.36-0.042,0.771-0.108,1.209-0.193c0.335,0.32,0.675,0.625,1.003,0.904c-0.089,0.294-0.08,0.269-0.176,0.586
		c0.063,0.009,0.123,0.021,0.186,0.027c0.091-0.281,0.083-0.269,0.178-0.565c0.445-0.093,0.904-0.21,1.348-0.343
		c0.239,0.205,0.459,0.387,0.658,0.54c0.457-0.207,0.885-0.491,1.26-0.866c0.275-0.275,0.5-0.58,0.684-0.904
		c-0.169-0.222-0.375-0.478-0.614-0.754c0.298-1.071,0.21-0.798,0.341-1.349c0.307-0.095,0.58-0.182,0.834-0.265
		c-0.004-0.061-0.006-0.123-0.011-0.186c-0.262,0.08-0.546,0.167-0.87,0.263c-0.28-0.33-0.589-0.669-0.912-1.01
		c0.085-0.434,0.148-0.842,0.193-1.202c0.324-0.04,0.61-0.061,0.845-0.064c-0.036-0.051-0.074-0.104-0.114-0.155
		c-0.226-0.002-0.495,0.009-0.806,0.044c-0.307-0.307-0.627-0.605-0.942-0.885c0.049-0.25,0.076-0.387,0.091-0.474
		c-0.053-0.023-0.104-0.051-0.159-0.072c-0.028,0.146-0.063,0.301-0.102,0.478c-0.396,0.032-0.83,0.099-1.277,0.19
		c-0.32-0.263-0.627-0.502-0.91-0.701c0.03-0.08,0.061-0.152,0.093-0.226c-0.07,0.009-0.138,0.017-0.207,0.028
		c-0.023,0.057-0.045,0.11-0.072,0.167c-0.413,0.125-0.817,0.275-1.194,0.44c-0.04-0.028-0.076-0.053-0.114-0.076
		C13.511,24.208,13.224,24.422,12.967,24.68z M18.939,29.045c-0.404,0.138-0.843,0.282-1.302,0.419
		c-0.315-0.315-0.652-0.656-0.999-1.003c0.133-0.489,0.262-0.986,0.383-1.463c0.47-0.118,0.923-0.229,1.342-0.33
		c0.324,0.343,0.635,0.684,0.921,1.016C19.159,28.219,19.244,27.944,18.939,29.045z M15.04,28.99c0.474-0.121,0.963-0.25,1.45-0.381
		c0.347,0.347,0.684,0.684,1.003,0.999c-0.138,0.461-0.281,0.898-0.419,1.302c-0.451,0.133-0.914,0.25-1.361,0.345
		c-0.328-0.282-0.669-0.589-1.006-0.912C14.807,29.921,14.919,29.464,15.04,28.99z M14.356,26.327
		c0.457-0.138,0.933-0.273,1.408-0.396c0.339,0.32,0.69,0.663,1.039,1.008c-0.123,0.476-0.252,0.965-0.385,1.45
		c-0.487,0.131-0.978,0.262-1.45,0.385c-0.347-0.351-0.688-0.699-1.008-1.039C14.274,26.564,14.202,26.856,14.356,26.327z
		 M13.943,24.235c0.387-0.163,0.804-0.311,1.226-0.434c0.282,0.203,0.589,0.442,0.912,0.711c-0.121,0.375-0.248,0.79-0.379,1.236
		c-0.468,0.123-0.938,0.256-1.389,0.396c-0.307-0.307-0.591-0.588-0.834-0.826C13.632,24.925,13.789,24.563,13.943,24.235z"/>
	<path class="st45" d="M15.19,23.499c0.008-0.001,0.016-0.002,0.024-0.003C15.206,23.498,15.198,23.499,15.19,23.499L15.19,23.499z"
		/>
	<path class="st45" d="M12.808,24.855c-0.033,0.037-0.068,0.072-0.099,0.11C12.739,24.927,12.775,24.891,12.808,24.855z"/>
	<path class="st45" d="M12.178,29.657c-0.028-0.055-0.051-0.112-0.076-0.167h0c0.025,0.056,0.049,0.112,0.077,0.166
		C12.179,29.657,12.179,29.657,12.178,29.657z"/>
	<polygon class="st45" points="13.325,31.062 13.319,31.057 13.325,31.062 	"/>
	<path class="st45" d="M15.588,31.979c-0.006-0.001-0.013-0.002-0.019-0.003C15.575,31.977,15.581,31.978,15.588,31.979
		L15.588,31.979z"/>
	<path class="st45" d="M12.505,25.232c-0.006,0.009-0.013,0.017-0.019,0.026C12.492,25.249,12.499,25.241,12.505,25.232z"/>
	<path class="st45" d="M11.766,27.051c-0.009,0.059-0.019,0.119-0.026,0.178c0.007-0.06,0.013-0.12,0.024-0.18L11.766,27.051z"/>
	<path class="st45" d="M15.509,31.598c0.058,0.027,0.116,0.055,0.175,0.079c-0.024,0.079-0.045,0.145-0.095,0.301
		c-0.006-0.001-0.013-0.001-0.019-0.002c-0.056-0.006-0.111-0.015-0.167-0.024C15.462,31.755,15.481,31.69,15.509,31.598z"/>
	<path class="st45" d="M15.169,23.801c-0.423,0.123-0.84,0.271-1.226,0.434c-0.154,0.328-0.311,0.69-0.464,1.082
		c0.056,0.055,0.115,0.114,0.176,0.173c-0.034,0.056-0.069,0.113-0.101,0.17c-0.072-0.073-0.142-0.144-0.208-0.211
		c-0.341,0.133-0.904,0.377-1.257,0.54c0.017-0.051,0.036-0.104,0.036-0.108c0.102-0.215,0.222-0.424,0.361-0.624
		c0.006-0.009,0.013-0.017,0.019-0.026c0.064-0.091,0.131-0.181,0.204-0.267c0.031-0.038,0.066-0.073,0.099-0.11
		c0.052-0.059,0.103-0.118,0.159-0.174c0.258-0.258,0.544-0.472,0.843-0.65c0.038,0.023,0.074,0.047,0.114,0.076
		c0.377-0.165,0.781-0.315,1.194-0.44c0.026-0.057,0.049-0.11,0.072-0.166c0.008-0.002,0.016-0.003,0.025-0.004
		c0.06-0.009,0.12-0.017,0.182-0.025c-0.032,0.074-0.063,0.146-0.093,0.226c0.062,0.043,0.125,0.09,0.189,0.137
		c-0.056,0.026-0.112,0.054-0.167,0.083C15.273,23.877,15.22,23.838,15.169,23.801z"/>
	<path class="st45" d="M12.546,28.058c0.267-0.082,0.393-0.121,0.492-0.151c0.042,0.949,0.398,1.884,1.069,2.642
		c-0.262,0.045-0.512,0.082-0.74,0.108c-0.019,0.144-0.032,0.279-0.042,0.405c-0.002-0.002-0.004-0.003-0.006-0.005
		c-0.055-0.044-0.106-0.091-0.159-0.137c0.008-0.11,0.017-0.222,0.03-0.341c-0.307-0.311-0.606-0.629-0.887-0.948
		c-0.045,0.011-0.081,0.017-0.124,0.026c-0.028-0.055-0.052-0.111-0.077-0.166c0.047-0.009,0.091-0.019,0.14-0.03
		c0.064-0.534,0.008-0.262,0.191-1.268c-0.265-0.318-0.502-0.624-0.701-0.906c0.002-0.019,0.006-0.038,0.008-0.057
		c0.007-0.06,0.016-0.119,0.026-0.178C11.986,27.354,12.319,27.789,12.546,28.058z"/>
</g>
</svg>
