<?xml version="1.0" encoding="utf-8"?>
<!-- Generator: Adobe Illustrator 21.1.0, SVG Export Plug-In . SVG Version: 6.00 Build 0)  -->
<svg version="1.1" id="Layer_1" xmlns="http://www.w3.org/2000/svg" xmlns:xlink="http://www.w3.org/1999/xlink" x="0px" y="0px"
	 viewBox="0 0 32 32" style="enable-background:new 0 0 32 32;" xml:space="preserve">
<style type="text/css">
	.st0{fill:#45CBEA;}
	.st1{fill:#FFD93B;}
	.st2{fill:#F4C534;}
	.st3{fill:#3E4347;}
	.st4{opacity:0.2;}
	.st5{fill:#DE9C25;}
	.st6{fill:#FFFFFF;}
	.st7{fill:#E24B4B;}
	.st8{fill:#8CC63E;}
	.st9{fill:#D03F3F;}
	.st10{fill:#846144;}
	.st11{fill:#5A5F63;}
	.st12{fill:#777B7E;}
	.st13{fill:#FFDC97;}
	.st14{fill:#FFE9AB;}
	.st15{fill:#93979A;}
	.st16{fill:#FFD68D;}
	.st17{fill:#728389;}
	.st18{fill:#DAE5EF;}
	.st19{fill:#65B1EF;}
	.st20{fill:#F2F7F9;}
	.st21{fill:#8D9BA3;}
	.st22{opacity:0.2;fill:#F2F7F9;}
	.st23{fill:#E9EFF4;}
	.st24{fill:#FC97B2;}
	.st25{fill:#E84D88;}
	.st26{fill:#A5856D;}
	.st27{fill:#E9B02C;}
	.st28{fill:#7FB239;}
	.st29{fill:#CBD6E0;}
	.st30{fill:#ACB9C1;}
	.st31{fill:#8F6D52;}
	.st32{opacity:0.2;fill:#FFFFFF;}
	.st33{fill:#9A795F;}
	.st34{fill:#BBC7D1;}
	.st35{fill:#E18823;}
	.st36{fill:#F29A2E;}
	.st37{fill:#89664C;}
	.st38{fill:#D3D9DD;}
	.st39{fill:#DEE4E9;}
	.st40{fill:#AD2727;}
	.st41{fill:#719D34;}
	.st42{fill:#353A3D;}
	.st43{opacity:0.25;}
	.st44{opacity:0.2;fill:#3E4347;}
	.st45{fill:#373C3F;}
	.st46{opacity:0.1;}
	.st47{opacity:0.06;}
	.st48{fill:#7A5B44;}
	.st49{fill:#6B503B;}
	.st50{fill:#31373A;}
	.st51{fill:#59A5E0;}
	.st52{fill:#363B3F;}
	.st53{fill:#BF3333;}
	.st54{opacity:0.3;}
	.st55{fill:#4E99D2;}
	.st56{opacity:0.15;}
	.st57{opacity:0.1;fill:#3E4347;}
	.st58{fill:#64892F;}
	.st59{opacity:0.08;fill:#FFFFFF;}
	.st60{opacity:0.1;fill:#FFFFFF;}
</style>
<g>
	<g>
		<path class="st39" d="M32,5.907v21.64c0,1.48-1.2,2.68-2.68,2.68H2.69c-1.49,0-2.69-1.2-2.69-2.68V5.907
			c0-1.48,1.2-2.68,2.69-2.68h26.63C30.8,3.227,32,4.427,32,5.907z"/>
	</g>
	<g>
		<path class="st7" d="M32,10.674V5.907c0-1.48-1.2-2.68-2.68-2.68H2.69C1.2,3.227,0,4.427,0,5.907v4.767H32z"/>
	</g>
	<g>
		<g>
			<path class="st6" d="M8.989,6.951c0,0.942-0.755,1.698-1.698,1.698c-0.934,0-1.698-0.755-1.698-1.698
				c0-0.934,0.764-1.698,1.698-1.698C8.234,5.253,8.989,6.017,8.989,6.951z"/>
		</g>
		<g>
			<path class="st6" d="M26.406,6.951c0,0.942-0.755,1.698-1.698,1.698c-0.934,0-1.698-0.755-1.698-1.698
				c0-0.934,0.764-1.698,1.698-1.698C25.651,5.253,26.406,6.017,26.406,6.951z"/>
		</g>
	</g>
	<g>
		<path class="st6" d="M13.177,5.339h0.638v2.006c0,0.747-0.244,1.217-1.05,1.217c-0.615,0-0.974-0.343-0.977-1.033l0.603-0.069
			c0.012,0.302,0.08,0.555,0.396,0.555c0.364,0,0.391-0.259,0.391-0.629V5.339z"/>
		<path class="st6" d="M14.491,5.339h0.64c0,0.204-0.013,2.057,0.024,2.246c0.053,0.252,0.251,0.43,0.618,0.43
			c0.368,0,0.54-0.17,0.577-0.385c0.044-0.252,0.028-2.015,0.028-2.291h0.64c0,0.392,0.025,2.12-0.052,2.47
			c-0.122,0.555-0.6,0.752-1.174,0.752c-0.588,0-1.11-0.182-1.238-0.728C14.461,7.428,14.491,5.786,14.491,5.339z"/>
		<path class="st6" d="M17.699,8.508V5.339h0.622l1.297,2.116V5.339h0.594v3.168H19.57l-1.277-2.066v2.066H17.699z"/>
	</g>
	<g>
		<path class="st3" d="M13.417,25.33h-1.895v-7.143c-0.692,0.647-1.509,1.126-2.448,1.437v-1.72
			c0.495-0.162,1.032-0.469,1.612-0.921c0.58-0.452,0.978-0.979,1.194-1.582h1.538V25.33z"/>
		<path class="st3" d="M16.277,22.788l1.889-0.196c0.054,0.427,0.214,0.766,0.479,1.015s0.571,0.374,0.917,0.374
			c0.396,0,0.731-0.161,1.005-0.482s0.411-0.806,0.411-1.453c0-0.607-0.136-1.062-0.408-1.366c-0.272-0.304-0.626-0.455-1.062-0.455
			c-0.544,0-1.032,0.241-1.464,0.722l-1.538-0.223l0.971-5.146h5.011v1.774h-3.575l-0.297,1.679
			c0.423-0.211,0.854-0.317,1.295-0.317c0.841,0,1.554,0.306,2.138,0.917c0.585,0.612,0.877,1.405,0.877,2.381
			c0,0.814-0.236,1.54-0.708,2.179c-0.643,0.872-1.536,1.308-2.678,1.308c-0.913,0-1.657-0.245-2.232-0.735
			C16.733,24.274,16.389,23.615,16.277,22.788z"/>
	</g>
	<g>
		<path class="st3" d="M6.182,2.883v3.546c0,0.613,0.497,1.11,1.11,1.11h0c0.613,0,1.11-0.497,1.11-1.11V2.883
			c0-0.613-0.497-1.11-1.11-1.11h0C6.679,1.773,6.182,2.27,6.182,2.883z"/>
	</g>
	<g>
		<path class="st3" d="M23.598,2.883v3.546c0,0.613,0.497,1.11,1.11,1.11h0c0.613,0,1.11-0.497,1.11-1.11V2.883
			c0-0.613-0.497-1.11-1.11-1.11h0C24.095,1.773,23.598,2.27,23.598,2.883z"/>
	</g>
</g>
</svg>
