<?xml version="1.0" encoding="utf-8"?>
<!-- Generator: Adobe Illustrator 21.1.0, SVG Export Plug-In . SVG Version: 6.00 Build 0)  -->
<svg version="1.1" id="Layer_1" xmlns="http://www.w3.org/2000/svg" xmlns:xlink="http://www.w3.org/1999/xlink" x="0px" y="0px"
	 viewBox="0 0 32 32" style="enable-background:new 0 0 32 32;" xml:space="preserve">
<style type="text/css">
	.st0{fill:#45CBEA;}
	.st1{fill:#FFD93B;}
	.st2{fill:#F4C534;}
	.st3{fill:#3E4347;}
	.st4{opacity:0.2;}
	.st5{fill:#DE9C25;}
	.st6{fill:#FFFFFF;}
	.st7{fill:#E24B4B;}
	.st8{fill:#8CC63E;}
	.st9{fill:#D03F3F;}
	.st10{fill:#846144;}
	.st11{fill:#5A5F63;}
	.st12{fill:#777B7E;}
	.st13{fill:#FFDC97;}
	.st14{fill:#FFE9AB;}
	.st15{fill:#93979A;}
	.st16{fill:#FFD68D;}
	.st17{fill:#728389;}
	.st18{fill:#DAE5EF;}
	.st19{fill:#65B1EF;}
	.st20{fill:#F2F7F9;}
	.st21{fill:#8D9BA3;}
	.st22{opacity:0.2;fill:#F2F7F9;}
	.st23{fill:#E9EFF4;}
	.st24{fill:#FC97B2;}
	.st25{fill:#E84D88;}
	.st26{fill:#A5856D;}
	.st27{fill:#E9B02C;}
	.st28{fill:#7FB239;}
	.st29{fill:#CBD6E0;}
	.st30{fill:#ACB9C1;}
	.st31{fill:#8F6D52;}
	.st32{opacity:0.2;fill:#FFFFFF;}
	.st33{fill:#9A795F;}
	.st34{fill:#BBC7D1;}
	.st35{fill:#E18823;}
	.st36{fill:#F29A2E;}
	.st37{fill:#89664C;}
	.st38{fill:#D3D9DD;}
	.st39{fill:#DEE4E9;}
	.st40{fill:#AD2727;}
	.st41{fill:#719D34;}
	.st42{fill:#353A3D;}
	.st43{opacity:0.25;}
	.st44{opacity:0.2;fill:#3E4347;}
	.st45{fill:#373C3F;}
	.st46{opacity:0.1;}
	.st47{opacity:0.06;}
	.st48{fill:#7A5B44;}
	.st49{fill:#6B503B;}
	.st50{fill:#31373A;}
	.st51{fill:#59A5E0;}
	.st52{fill:#363B3F;}
	.st53{fill:#BF3333;}
	.st54{opacity:0.3;}
	.st55{fill:#4E99D2;}
	.st56{opacity:0.15;}
	.st57{opacity:0.1;fill:#3E4347;}
	.st58{fill:#64892F;}
	.st59{opacity:0.08;fill:#FFFFFF;}
	.st60{opacity:0.1;fill:#FFFFFF;}
</style>
<g>
	<g>
		<g>
			<g>
				<path class="st23" d="M2.349,26.391c-1.518,0-2.057-2.54-2.057-4.714c0-1.184,0.156-2.295,0.439-3.13
					c0.457-1.352,1.133-1.636,1.619-1.636c0.218,0,0.395,0.177,0.395,0.395c0,0.218-0.177,0.395-0.395,0.395
					c-0.317,0-0.634,0.4-0.871,1.099c-0.252,0.744-0.396,1.793-0.396,2.877c0,2.164,0.569,3.924,1.267,3.924
					c0.218,0,0.395,0.177,0.395,0.395S2.567,26.391,2.349,26.391z"/>
			</g>
		</g>
		<g>
			<g>
				<g>
					<path class="st7" d="M20.099,10.527v0.939h-2.796l-0.811-0.939H12.04c-2.103,0-4.035,0.758-5.529,2.017
						c-1.249,1.067-2.828,1.676-4.472,1.9C0.961,14.594,0,15.459,0,16.771c0,0.865,0.47,1.601,1.142,2.007
						c1.42,0.865,2.391,2.284,3.085,3.8c1.59,3.448,5.443,5.572,9.393,4.963c2.476-0.384,4.024-1.868,7.6-5.828
						c2.455-2.733,5.668-4.622,9.169-5.476L32,10.527H20.099z M1.035,16.771c0-1.751,2.626-1.729,2.626,0S1.035,18.522,1.035,16.771
						z"/>
				</g>
			</g>
		</g>
		<g>
			<g>
				<g>
					<path class="st23" d="M2.349,26.391c-0.218,0-0.395-0.177-0.395-0.395s0.177-0.395,0.395-0.395c0.453,0,0.758-0.755,0.869-1.08
						c0.249-0.731,0.391-1.767,0.391-2.844c0-2.192-0.565-3.976-1.26-3.976c-0.218,0-0.395-0.177-0.395-0.395
						c0-0.218,0.177-0.395,0.395-0.395c1.513,0,2.05,2.567,2.05,4.766c0,1.177-0.154,2.277-0.433,3.098
						C3.512,26.111,2.836,26.391,2.349,26.391z"/>
				</g>
			</g>
		</g>
		<g>
			<g>
				<g>
					<g>
						<ellipse class="st9" cx="12.037" cy="18.789" rx="4.999" ry="5.002"/>
					</g>
				</g>
			</g>
			<g>
				<g>
					<g>
						<path class="st53" d="M16.007,15.747c-0.841-0.645-1.897-1.031-3.042-1.031c-2.757,0-4.996,2.239-4.996,5.002
							c0,1.151,0.386,2.207,1.044,3.054c-1.195-0.917-1.973-2.359-1.973-3.984c0-2.764,2.239-5.002,4.996-5.002
							C13.654,13.787,15.09,14.552,16.007,15.747z"/>
					</g>
				</g>
			</g>
		</g>
	</g>
	<g>
		<g>
			<g>
				<path class="st1" d="M16.01,8.258l-1.249-2.205c-0.146-0.256-0.056-0.582,0.2-0.728c0.254-0.144,0.582-0.056,0.728,0.201
					l1.249,2.204c0.146,0.256,0.056,0.582-0.2,0.728C16.48,8.604,16.155,8.514,16.01,8.258z"/>
			</g>
		</g>
		<g>
			<g>
				<path class="st1" d="M18.224,8.033c-0.295,0-0.534-0.239-0.534-0.534V4.889c0-0.295,0.239-0.534,0.534-0.534
					c0.295,0,0.534,0.239,0.534,0.534v2.611C18.758,7.794,18.519,8.033,18.224,8.033z"/>
			</g>
		</g>
		<g>
			<g>
				<path class="st1" d="M19.711,8.459c-0.256-0.146-0.346-0.472-0.2-0.728l1.249-2.204c0.145-0.257,0.471-0.345,0.728-0.201
					c0.256,0.145,0.346,0.471,0.2,0.728l-1.249,2.205C20.293,8.514,19.968,8.604,19.711,8.459z"/>
			</g>
		</g>
	</g>
</g>
</svg>
