<?xml version="1.0" encoding="utf-8"?>
<!-- Generator: Adobe Illustrator 21.1.0, SVG Export Plug-In . SVG Version: 6.00 Build 0)  -->
<svg version="1.1" id="Layer_1" xmlns="http://www.w3.org/2000/svg" xmlns:xlink="http://www.w3.org/1999/xlink" x="0px" y="0px"
	 viewBox="0 0 32 32" style="enable-background:new 0 0 32 32;" xml:space="preserve">
<style type="text/css">
	.st0{fill:#45CBEA;}
	.st1{fill:#FFD93B;}
	.st2{fill:#F4C534;}
	.st3{fill:#3E4347;}
	.st4{opacity:0.2;}
	.st5{fill:#DE9C25;}
	.st6{fill:#FFFFFF;}
	.st7{fill:#E24B4B;}
	.st8{fill:#8CC63E;}
	.st9{fill:#D03F3F;}
	.st10{fill:#846144;}
	.st11{fill:#5A5F63;}
	.st12{fill:#777B7E;}
	.st13{fill:#FFDC97;}
	.st14{fill:#FFE9AB;}
	.st15{fill:#93979A;}
	.st16{fill:#FFD68D;}
	.st17{fill:#728389;}
	.st18{fill:#DAE5EF;}
	.st19{fill:#65B1EF;}
	.st20{fill:#F2F7F9;}
	.st21{fill:#8D9BA3;}
	.st22{opacity:0.2;fill:#F2F7F9;}
	.st23{fill:#E9EFF4;}
	.st24{fill:#FC97B2;}
	.st25{fill:#E84D88;}
	.st26{fill:#A5856D;}
	.st27{fill:#E9B02C;}
	.st28{fill:#7FB239;}
	.st29{fill:#CBD6E0;}
	.st30{fill:#ACB9C1;}
	.st31{fill:#8F6D52;}
	.st32{opacity:0.2;fill:#FFFFFF;}
	.st33{fill:#9A795F;}
	.st34{fill:#BBC7D1;}
	.st35{fill:#E18823;}
	.st36{fill:#F29A2E;}
	.st37{fill:#89664C;}
	.st38{fill:#D3D9DD;}
	.st39{fill:#DEE4E9;}
	.st40{fill:#AD2727;}
	.st41{fill:#719D34;}
	.st42{fill:#353A3D;}
	.st43{opacity:0.25;}
	.st44{opacity:0.2;fill:#3E4347;}
	.st45{fill:#373C3F;}
	.st46{opacity:0.1;}
	.st47{opacity:0.06;}
	.st48{fill:#7A5B44;}
	.st49{fill:#6B503B;}
	.st50{fill:#31373A;}
	.st51{fill:#59A5E0;}
	.st52{fill:#363B3F;}
	.st53{fill:#BF3333;}
	.st54{opacity:0.3;}
	.st55{fill:#4E99D2;}
	.st56{opacity:0.15;}
	.st57{opacity:0.1;fill:#3E4347;}
	.st58{fill:#64892F;}
	.st59{opacity:0.08;fill:#FFFFFF;}
	.st60{opacity:0.1;fill:#FFFFFF;}
</style>
<g>
	<g>
		<path class="st3" d="M16,0C7.17,0,0,7.16,0,16c0,8.83,7.17,16,16,16c8.84,0,16-7.17,16-16C32,7.16,24.84,0,16,0z M16,18.539
			c-1.401,0-2.539-1.138-2.539-2.539s1.138-2.539,2.539-2.539s2.539,1.138,2.539,2.539S17.401,18.539,16,18.539z"/>
	</g>
	<path class="st45" d="M13.919,0.151L15.8,12.203H16.2L18.081,0.15C17.398,0.062,16.707,0,16,0S14.602,0.062,13.919,0.151z"/>
	<path class="st45" d="M13.999,12.77l0.345-0.199L9.891,1.214c-0.568,0.235-1.119,0.503-1.652,0.8L13.999,12.77z"/>
	<path class="st45" d="M16,32c2.07,0,4.042-0.406,5.858-1.122l-5.658-11.08H15.8l-5.657,11.079C11.959,31.593,13.931,32,16,32z"/>
	<path class="st18" d="M16,10.142c-3.231,0-5.858,2.619-5.858,5.858c0,3.231,2.627,5.858,5.858,5.858
		c3.238,0,5.858-2.627,5.858-5.858C21.858,12.762,19.238,10.142,16,10.142z M16,18.721c-1.501,0-2.721-1.219-2.721-2.721
		s1.22-2.721,2.721-2.721s2.721,1.219,2.721,2.721S17.501,18.721,16,18.721z"/>
	<path class="st29" d="M16,10.989c-2.764,0-5.011,2.241-5.011,5.011c0,2.764,2.247,5.011,5.011,5.011
		c2.771,0,5.011-2.247,5.011-5.011C21.011,13.23,18.771,10.989,16,10.989z M16,18.125c-1.173,0-2.125-0.952-2.125-2.125
		s0.952-2.125,2.125-2.125s2.125,0.952,2.125,2.125S17.173,18.125,16,18.125z"/>
</g>
</svg>
