<?xml version="1.0" encoding="utf-8"?>
<!-- Generator: Adobe Illustrator 21.1.0, SVG Export Plug-In . SVG Version: 6.00 Build 0)  -->
<svg version="1.1" id="Layer_1" xmlns="http://www.w3.org/2000/svg" xmlns:xlink="http://www.w3.org/1999/xlink" x="0px" y="0px"
	 viewBox="0 0 32 32" style="enable-background:new 0 0 32 32;" xml:space="preserve">
<style type="text/css">
	.st0{fill:#45CBEA;}
	.st1{fill:#FFD93B;}
	.st2{fill:#F4C534;}
	.st3{fill:#3E4347;}
	.st4{opacity:0.2;}
	.st5{fill:#DE9C25;}
	.st6{fill:#FFFFFF;}
	.st7{fill:#E24B4B;}
	.st8{fill:#8CC63E;}
	.st9{fill:#D03F3F;}
	.st10{fill:#846144;}
	.st11{fill:#5A5F63;}
	.st12{fill:#777B7E;}
	.st13{fill:#FFDC97;}
	.st14{fill:#FFE9AB;}
	.st15{fill:#93979A;}
	.st16{fill:#FFD68D;}
	.st17{fill:#728389;}
	.st18{fill:#DAE5EF;}
	.st19{fill:#65B1EF;}
	.st20{fill:#F2F7F9;}
	.st21{fill:#8D9BA3;}
	.st22{opacity:0.2;fill:#F2F7F9;}
	.st23{fill:#E9EFF4;}
	.st24{fill:#FC97B2;}
	.st25{fill:#E84D88;}
	.st26{fill:#A5856D;}
	.st27{fill:#E9B02C;}
	.st28{fill:#7FB239;}
	.st29{fill:#CBD6E0;}
	.st30{fill:#ACB9C1;}
	.st31{fill:#8F6D52;}
	.st32{opacity:0.2;fill:#FFFFFF;}
	.st33{fill:#9A795F;}
	.st34{fill:#BBC7D1;}
	.st35{fill:#E18823;}
	.st36{fill:#F29A2E;}
	.st37{fill:#89664C;}
	.st38{fill:#D3D9DD;}
	.st39{fill:#DEE4E9;}
	.st40{fill:#AD2727;}
	.st41{fill:#719D34;}
	.st42{fill:#353A3D;}
	.st43{opacity:0.25;}
	.st44{opacity:0.2;fill:#3E4347;}
	.st45{fill:#373C3F;}
	.st46{opacity:0.1;}
	.st47{opacity:0.06;}
	.st48{fill:#7A5B44;}
	.st49{fill:#6B503B;}
	.st50{fill:#31373A;}
	.st51{fill:#59A5E0;}
	.st52{fill:#363B3F;}
	.st53{fill:#BF3333;}
	.st54{opacity:0.3;}
	.st55{fill:#4E99D2;}
	.st56{opacity:0.15;}
	.st57{opacity:0.1;fill:#3E4347;}
	.st58{fill:#64892F;}
	.st59{opacity:0.08;fill:#FFFFFF;}
	.st60{opacity:0.1;fill:#FFFFFF;}
</style>
<g>
	<g>
		<path class="st37" d="M17.563,32V1.558C17.563,0.702,16.862,0,16.006,0c-0.868,0-1.569,0.702-1.569,1.558V32H17.563z"/>
	</g>
	<g>
		<g>
			<g>
				<path class="st51" d="M28.655,7.614l-3.744,3.744c-0.207,0.207-0.486,0.321-0.776,0.321H5.548c-0.61,0-1.107-0.497-1.107-1.107
					V3.084c0-0.61,0.496-1.107,1.107-1.107h18.587c0.29,0,0.569,0.114,0.776,0.321l3.744,3.744C29.09,6.477,29.09,7.18,28.655,7.614
					z"/>
			</g>
			<path class="st55" d="M5.548,11.679h18.587c0.29,0,0.569-0.114,0.776-0.321l3.744-3.744c0.434-0.434,0.434-1.138,0-1.572
				l-3.744-3.744c0,0,2.665,6.532-8.2,7.566s-12.27,0.709-12.27,0.709C4.441,11.183,4.938,11.679,5.548,11.679z"/>
		</g>
		<g>
			<g>
				<path class="st1" d="M3.345,19.051l3.744,3.744c0.207,0.207,0.486,0.321,0.776,0.321h18.587c0.61,0,1.107-0.497,1.107-1.107
					v-7.489c0-0.61-0.496-1.107-1.107-1.107H7.865c-0.29,0-0.569,0.114-0.776,0.321l-3.744,3.744
					C2.91,17.913,2.91,18.617,3.345,19.051z"/>
			</g>
			<g>
				<path class="st2" d="M26.452,23.116H7.865c-0.29,0-0.569-0.114-0.776-0.321l-3.744-3.744c-0.434-0.434-0.434-1.138,0-1.572
					l3.744-3.744c0,0-2.665,6.532,8.2,7.566s12.27,0.709,12.27,0.709C27.559,22.619,27.062,23.116,26.452,23.116z"/>
			</g>
		</g>
	</g>
</g>
</svg>
