<?xml version="1.0" encoding="utf-8"?>
<!-- Generator: Adobe Illustrator 21.1.0, SVG Export Plug-In . SVG Version: 6.00 Build 0)  -->
<svg version="1.1" id="Layer_1" xmlns="http://www.w3.org/2000/svg" xmlns:xlink="http://www.w3.org/1999/xlink" x="0px" y="0px"
	 viewBox="0 0 32 32" style="enable-background:new 0 0 32 32;" xml:space="preserve">
<style type="text/css">
	.st0{fill:#45CBEA;}
	.st1{fill:#FFD93B;}
	.st2{fill:#F4C534;}
	.st3{fill:#3E4347;}
	.st4{opacity:0.2;}
	.st5{fill:#DE9C25;}
	.st6{fill:#FFFFFF;}
	.st7{fill:#E24B4B;}
	.st8{fill:#8CC63E;}
	.st9{fill:#D03F3F;}
	.st10{fill:#846144;}
	.st11{fill:#5A5F63;}
	.st12{fill:#777B7E;}
	.st13{fill:#FFDC97;}
	.st14{fill:#FFE9AB;}
	.st15{fill:#93979A;}
	.st16{fill:#FFD68D;}
	.st17{fill:#728389;}
	.st18{fill:#DAE5EF;}
	.st19{fill:#65B1EF;}
	.st20{fill:#F2F7F9;}
	.st21{fill:#8D9BA3;}
	.st22{opacity:0.2;fill:#F2F7F9;}
	.st23{fill:#E9EFF4;}
	.st24{fill:#FC97B2;}
	.st25{fill:#E84D88;}
	.st26{fill:#A5856D;}
	.st27{fill:#E9B02C;}
	.st28{fill:#7FB239;}
	.st29{fill:#CBD6E0;}
	.st30{fill:#ACB9C1;}
	.st31{fill:#8F6D52;}
	.st32{opacity:0.2;fill:#FFFFFF;}
	.st33{fill:#9A795F;}
	.st34{fill:#BBC7D1;}
	.st35{fill:#E18823;}
	.st36{fill:#F29A2E;}
	.st37{fill:#89664C;}
	.st38{fill:#D3D9DD;}
	.st39{fill:#DEE4E9;}
	.st40{fill:#AD2727;}
	.st41{fill:#719D34;}
	.st42{fill:#353A3D;}
	.st43{opacity:0.25;}
	.st44{opacity:0.2;fill:#3E4347;}
	.st45{fill:#373C3F;}
	.st46{opacity:0.1;}
	.st47{opacity:0.06;}
	.st48{fill:#7A5B44;}
	.st49{fill:#6B503B;}
	.st50{fill:#31373A;}
	.st51{fill:#59A5E0;}
	.st52{fill:#363B3F;}
	.st53{fill:#BF3333;}
	.st54{opacity:0.3;}
	.st55{fill:#4E99D2;}
	.st56{opacity:0.15;}
	.st57{opacity:0.1;fill:#3E4347;}
	.st58{fill:#64892F;}
	.st59{opacity:0.08;fill:#FFFFFF;}
	.st60{opacity:0.1;fill:#FFFFFF;}
</style>
<g>
	<path class="st19" d="M29.501,5.209L10.409,0.038C9.868-0.109,9.326,0.211,9.182,0.742L2.147,26.716
		C2,27.256,2.31,27.796,2.851,27.942l12.45,3.372h8.165l6.739-24.879C30.348,5.905,30.032,5.353,29.501,5.209z"/>
	<path class="st23" d="M23.541,4.088v26.91c0,0.56-0.45,1-1,1H2.761c-0.56,0-1-0.44-1-1V4.088c0-0.55,0.44-1,1-1h19.78
		C23.091,3.088,23.541,3.538,23.541,4.088z"/>
	<g>
		<path class="st7" d="M16.75,17.54c-2.113,1.936-2.731,3.957-4.099,5.894c-1.368-1.936-1.99-3.952-4.099-5.889
			c2.113-1.936,2.731-3.957,4.099-5.894C14.018,13.588,14.641,15.604,16.75,17.54z"/>
		<path class="st7" d="M7.221,8C6.49,8.67,6.276,9.369,5.803,10.039C5.33,9.369,5.115,8.672,4.386,8.002
			c0.731-0.67,0.945-1.369,1.418-2.038C6.276,6.633,6.492,7.33,7.221,8z"/>
		<path class="st7" d="M20.916,27.084c-0.731,0.67-0.945,1.369-1.418,2.038c-0.473-0.67-0.688-1.367-1.418-2.037
			c0.731-0.67,0.945-1.369,1.418-2.038C19.971,25.717,20.186,26.414,20.916,27.084z"/>
	</g>
</g>
</svg>
