<?xml version="1.0" encoding="utf-8"?>
<!-- Generator: Adobe Illustrator 21.1.0, SVG Export Plug-In . SVG Version: 6.00 Build 0)  -->
<svg version="1.1" id="Layer_1" xmlns="http://www.w3.org/2000/svg" xmlns:xlink="http://www.w3.org/1999/xlink" x="0px" y="0px"
	 viewBox="0 0 32 32" style="enable-background:new 0 0 32 32;" xml:space="preserve">
<style type="text/css">
	.st0{fill:#45CBEA;}
	.st1{fill:#FFD93B;}
	.st2{fill:#F4C534;}
	.st3{fill:#3E4347;}
	.st4{opacity:0.2;}
	.st5{fill:#DE9C25;}
	.st6{fill:#FFFFFF;}
	.st7{fill:#E24B4B;}
	.st8{fill:#8CC63E;}
	.st9{fill:#D03F3F;}
	.st10{fill:#846144;}
	.st11{fill:#5A5F63;}
	.st12{fill:#777B7E;}
	.st13{fill:#FFDC97;}
	.st14{fill:#FFE9AB;}
	.st15{fill:#93979A;}
	.st16{fill:#FFD68D;}
	.st17{fill:#728389;}
	.st18{fill:#DAE5EF;}
	.st19{fill:#65B1EF;}
	.st20{fill:#F2F7F9;}
	.st21{fill:#8D9BA3;}
	.st22{opacity:0.2;fill:#F2F7F9;}
	.st23{fill:#E9EFF4;}
	.st24{fill:#FC97B2;}
	.st25{fill:#E84D88;}
	.st26{fill:#A5856D;}
	.st27{fill:#E9B02C;}
	.st28{fill:#7FB239;}
	.st29{fill:#CBD6E0;}
	.st30{fill:#ACB9C1;}
	.st31{fill:#8F6D52;}
	.st32{opacity:0.2;fill:#FFFFFF;}
	.st33{fill:#9A795F;}
	.st34{fill:#BBC7D1;}
	.st35{fill:#E18823;}
	.st36{fill:#F29A2E;}
	.st37{fill:#89664C;}
	.st38{fill:#D3D9DD;}
	.st39{fill:#DEE4E9;}
	.st40{fill:#AD2727;}
	.st41{fill:#719D34;}
	.st42{fill:#353A3D;}
	.st43{opacity:0.25;}
	.st44{opacity:0.2;fill:#3E4347;}
	.st45{fill:#373C3F;}
	.st46{opacity:0.1;}
	.st47{opacity:0.06;}
	.st48{fill:#7A5B44;}
	.st49{fill:#6B503B;}
	.st50{fill:#31373A;}
	.st51{fill:#59A5E0;}
	.st52{fill:#363B3F;}
	.st53{fill:#BF3333;}
	.st54{opacity:0.3;}
	.st55{fill:#4E99D2;}
	.st56{opacity:0.15;}
	.st57{opacity:0.1;fill:#3E4347;}
	.st58{fill:#64892F;}
	.st59{opacity:0.08;fill:#FFFFFF;}
	.st60{opacity:0.1;fill:#FFFFFF;}
</style>
<g>
	<g>
		<path class="st3" d="M17.646,29.205V1.65c0-0.91-0.74-1.65-1.65-1.65c-0.91,0-1.64,0.74-1.64,1.65v27.555H17.646z"/>
	</g>
	<g>
		<g>
			<path class="st7" d="M32,6.848V13.8c0,1.21-0.98,2.2-2.19,2.2H2.2C0.99,16,0,15.01,0,13.8V6.848c0-1.21,0.99-2.19,2.2-2.19h27.61
				C31.02,4.658,32,5.638,32,6.848z"/>
		</g>
		<g>
			<path class="st6" d="M3.284,11.059l0.812-0.079c0.092,0.512,0.363,0.792,0.902,0.792c0.567,0,0.812-0.286,0.812-0.57
				c0-0.238-0.162-0.349-0.386-0.429c-0.485-0.168-1.221-0.241-1.61-0.589C3.363,9.781,3.332,9.194,3.613,8.762
				C3.893,8.332,4.426,8.2,4.942,8.2c1.075,0,1.56,0.527,1.585,1.252L5.693,9.489C5.62,9.054,5.39,8.891,4.934,8.891
				c-0.688,0-0.865,0.415-0.578,0.657c0.178,0.15,1.346,0.405,1.668,0.574c0.395,0.208,0.622,0.561,0.622,1.079
				c0,0.693-0.496,1.277-1.655,1.277C3.997,12.478,3.399,12.033,3.284,11.059z"/>
			<path class="st6" d="M7.342,8.27h0.835c0,0.266-0.017,2.684,0.031,2.93c0.069,0.329,0.327,0.561,0.807,0.561
				c0.481,0,0.704-0.222,0.753-0.502C9.825,10.93,9.804,8.631,9.804,8.27h0.835c0,0.51,0.033,2.766-0.068,3.223
				c-0.161,0.729-0.781,0.981-1.531,0.981c-0.395,0-0.694-0.046-0.898-0.137c-0.4-0.179-0.64-0.482-0.718-0.814
				C7.303,10.996,7.342,8.855,7.342,8.27z"/>
			<path class="st6" d="M11.522,12.405V8.27h1.757c0.597,0,1.136,0.022,1.444,0.508c0.12,0.19,0.18,0.407,0.18,0.651
				c0,0.604-0.346,1.042-1.091,1.151c0.604,0.352,1.029,1.189,1.427,1.825H14.24c-0.136-0.202-0.877-1.331-1.043-1.507
				c-0.234-0.247-0.493-0.219-0.84-0.219v1.726H11.522z M12.356,10.019c0.73,0,1.686,0.158,1.686-0.536
				c0-0.563-0.486-0.513-1.035-0.513h-0.651V10.019z"/>
			<path class="st6" d="M15.695,12.405V8.27h2.834V8.97H16.53v0.979h1.726v0.699H16.53v1.757H15.695z"/>
			<path class="st6" d="M19.192,12.405V8.27h0.835v4.134H19.192z"/>
			<path class="st6" d="M20.831,12.405V8.27h0.812l1.692,2.761V8.27h0.776v4.134h-0.838l-1.667-2.696v2.696H20.831z"/>
			<path class="st6" d="M26.917,10.885v-0.697h1.799v1.647c-0.938,0.908-2.978,0.937-3.624-0.41
				c-0.162-0.337-0.243-0.705-0.243-1.101c0-0.818,0.333-1.543,1.063-1.918c0.928-0.48,2.479-0.234,2.75,1.01L27.833,9.57
				c-0.298-1.037-2.124-0.942-2.124,0.719c0,1.483,1.203,1.865,2.163,1.12v-0.525H26.917z"/>
		</g>
	</g>
	<g>
		<path class="st1" d="M28.594,32C27.17,28.567,24.061,28.205,16,28.205S4.83,28.567,3.406,32H28.594z"/>
	</g>
</g>
</svg>
