<?xml version="1.0" encoding="utf-8"?>
<!-- Generator: Adobe Illustrator 21.1.0, SVG Export Plug-In . SVG Version: 6.00 Build 0)  -->
<svg version="1.1" id="Layer_1" xmlns="http://www.w3.org/2000/svg" xmlns:xlink="http://www.w3.org/1999/xlink" x="0px" y="0px"
	 viewBox="0 0 32 32" style="enable-background:new 0 0 32 32;" xml:space="preserve">
<style type="text/css">
	.st0{fill:#45CBEA;}
	.st1{fill:#FFD93B;}
	.st2{fill:#F4C534;}
	.st3{fill:#3E4347;}
	.st4{opacity:0.2;}
	.st5{fill:#DE9C25;}
	.st6{fill:#FFFFFF;}
	.st7{fill:#E24B4B;}
	.st8{fill:#8CC63E;}
	.st9{fill:#D03F3F;}
	.st10{fill:#846144;}
	.st11{fill:#5A5F63;}
	.st12{fill:#777B7E;}
	.st13{fill:#FFDC97;}
	.st14{fill:#FFE9AB;}
	.st15{fill:#93979A;}
	.st16{fill:#FFD68D;}
	.st17{fill:#728389;}
	.st18{fill:#DAE5EF;}
	.st19{fill:#65B1EF;}
	.st20{fill:#F2F7F9;}
	.st21{fill:#8D9BA3;}
	.st22{opacity:0.2;fill:#F2F7F9;}
	.st23{fill:#E9EFF4;}
	.st24{fill:#FC97B2;}
	.st25{fill:#E84D88;}
	.st26{fill:#A5856D;}
	.st27{fill:#E9B02C;}
	.st28{fill:#7FB239;}
	.st29{fill:#CBD6E0;}
	.st30{fill:#ACB9C1;}
	.st31{fill:#8F6D52;}
	.st32{opacity:0.2;fill:#FFFFFF;}
	.st33{fill:#9A795F;}
	.st34{fill:#BBC7D1;}
	.st35{fill:#E18823;}
	.st36{fill:#F29A2E;}
	.st37{fill:#89664C;}
	.st38{fill:#D3D9DD;}
	.st39{fill:#DEE4E9;}
	.st40{fill:#AD2727;}
	.st41{fill:#719D34;}
	.st42{fill:#353A3D;}
	.st43{opacity:0.25;}
	.st44{opacity:0.2;fill:#3E4347;}
	.st45{fill:#373C3F;}
	.st46{opacity:0.1;}
	.st47{opacity:0.06;}
	.st48{fill:#7A5B44;}
	.st49{fill:#6B503B;}
	.st50{fill:#31373A;}
	.st51{fill:#59A5E0;}
	.st52{fill:#363B3F;}
	.st53{fill:#BF3333;}
	.st54{opacity:0.3;}
	.st55{fill:#4E99D2;}
	.st56{opacity:0.15;}
	.st57{opacity:0.1;fill:#3E4347;}
	.st58{fill:#64892F;}
	.st59{opacity:0.08;fill:#FFFFFF;}
	.st60{opacity:0.1;fill:#FFFFFF;}
</style>
<g>
	<path class="st3" d="M26.858,7.78h-12.54l1.57-4.4c0.2-0.57,0.73-0.94,1.33-0.94h6.74c0.6,0,1.13,0.37,1.33,0.94L26.858,7.78z"/>
	<g>
		<polygon class="st1" points="24.398,5.88 16.778,5.88 17.388,4.19 23.788,4.19 		"/>
	</g>
	<g>
		<path class="st3" d="M8.696,7.931V6.288c0-0.32-0.25-0.57-0.57-0.57H3.712c-0.32,0-0.57,0.25-0.57,0.57v1.643H8.696z"/>
		<path class="st23" d="M31.998,9.27V27.6c0,1.08-0.87,1.96-1.96,1.96H1.958c-1.08,0-1.96-0.88-1.96-1.96V9.27
			c0-1.08,0.88-1.96,1.96-1.96h28.08C31.128,7.31,31.998,8.19,31.998,9.27z"/>
		<rect x="0.002" y="11.026" class="st7" width="32" height="14.813"/>
		<g>
			<path class="st1" d="M8.949,13.32v1.81c0,0.26-0.21,0.47-0.47,0.47h-5.12c-0.26,0-0.47-0.21-0.47-0.47v-1.81
				c0-0.26,0.21-0.47,0.47-0.47h5.12C8.739,12.85,8.949,13.06,8.949,13.32z"/>
		</g>
		<g>
			<path class="st3" d="M29.13,18.428c0,4.718-3.825,8.543-8.542,8.543s-8.543-3.825-8.543-8.543c0-4.708,3.825-8.533,8.543-8.533
				S29.13,13.72,29.13,18.428z"/>
			<ellipse class="st6" cx="20.588" cy="18.431" rx="6.216" ry="6.213"/>
			<ellipse class="st19" cx="20.588" cy="18.431" rx="4.294" ry="4.292"/>
			<circle class="st6" cx="22.737" cy="16.221" r="1.755"/>
		</g>
	</g>
</g>
</svg>
