<?xml version="1.0" encoding="utf-8"?>
<!-- Generator: Adobe Illustrator 21.1.0, SVG Export Plug-In . SVG Version: 6.00 Build 0)  -->
<svg version="1.1" id="Layer_1" xmlns="http://www.w3.org/2000/svg" xmlns:xlink="http://www.w3.org/1999/xlink" x="0px" y="0px"
	 viewBox="0 0 32 32" style="enable-background:new 0 0 32 32;" xml:space="preserve">
<style type="text/css">
	.st0{fill:#45CBEA;}
	.st1{fill:#FFD93B;}
	.st2{fill:#F4C534;}
	.st3{fill:#3E4347;}
	.st4{opacity:0.2;}
	.st5{fill:#DE9C25;}
	.st6{fill:#FFFFFF;}
	.st7{fill:#E24B4B;}
	.st8{fill:#8CC63E;}
	.st9{fill:#D03F3F;}
	.st10{fill:#846144;}
	.st11{fill:#5A5F63;}
	.st12{fill:#777B7E;}
	.st13{fill:#FFDC97;}
	.st14{fill:#FFE9AB;}
	.st15{fill:#93979A;}
	.st16{fill:#FFD68D;}
	.st17{fill:#728389;}
	.st18{fill:#DAE5EF;}
	.st19{fill:#65B1EF;}
	.st20{fill:#F2F7F9;}
	.st21{fill:#8D9BA3;}
	.st22{opacity:0.2;fill:#F2F7F9;}
	.st23{fill:#E9EFF4;}
	.st24{fill:#FC97B2;}
	.st25{fill:#E84D88;}
	.st26{fill:#A5856D;}
	.st27{fill:#E9B02C;}
	.st28{fill:#7FB239;}
	.st29{fill:#CBD6E0;}
	.st30{fill:#ACB9C1;}
	.st31{fill:#8F6D52;}
	.st32{opacity:0.2;fill:#FFFFFF;}
	.st33{fill:#9A795F;}
	.st34{fill:#BBC7D1;}
	.st35{fill:#E18823;}
	.st36{fill:#F29A2E;}
	.st37{fill:#89664C;}
	.st38{fill:#D3D9DD;}
	.st39{fill:#DEE4E9;}
	.st40{fill:#AD2727;}
	.st41{fill:#719D34;}
	.st42{fill:#353A3D;}
	.st43{opacity:0.25;}
	.st44{opacity:0.2;fill:#3E4347;}
	.st45{fill:#373C3F;}
	.st46{opacity:0.1;}
	.st47{opacity:0.06;}
	.st48{fill:#7A5B44;}
	.st49{fill:#6B503B;}
	.st50{fill:#31373A;}
	.st51{fill:#59A5E0;}
	.st52{fill:#363B3F;}
	.st53{fill:#BF3333;}
	.st54{opacity:0.3;}
	.st55{fill:#4E99D2;}
	.st56{opacity:0.15;}
	.st57{opacity:0.1;fill:#3E4347;}
	.st58{fill:#64892F;}
	.st59{opacity:0.08;fill:#FFFFFF;}
	.st60{opacity:0.1;fill:#FFFFFF;}
</style>
<g>
	<g>
		<g>
			<path class="st45" d="M10.91,0.198c0.375,0.5,0.004,2.213-0.336,2.951s-0.187,1.821,1.835,3.003
				c1.64,0.959,4.51,1.788,5.536,2.068c0.415,0.113,0.862,0.065,1.233-0.151c0.267-0.155,0.515-0.405,0.608-0.807
				c0.235-1.017,0.842-0.422,0.883,0.431s1.743,7.016,3.982,11.075c4.538,8.225,8.509,9.29,6.706,11.371c0,0-0.039,0.602-0.57,0.947
				c-0.531,0.345-9.016-2.136-12.97-5.647S9.138,17.065,5.947,14.12S2.574,8.451,2.574,8.451l0.532-1.1c0,0,1.584-2.741,3.208-3.602
				s2.605-2.516,3.177-3.53c0,0,0.248-0.447,0.651-0.014L10.91,0.198z"/>
		</g>
		<g>
			<path class="st3" d="M6.095,3.67c0,0,0.3,0.019-0.165,0.541C5.466,4.733,4.288,6.273,4.328,7.064
				c0.04,0.792,1.962,1.824,3.65,2.237s1.422,4.507,3.166,6.84s-0.013,1.363-2.524-0.976s-3.687-3.466-4.474-4.302
				s-2.52-3.027-2.5-3.037c0.019-0.011,1.46-0.474,1.46-0.474C3.519,5.934,4.658,4.753,6.095,3.67z"/>
		</g>
		<g>
			<path class="st18" d="M30.28,31.906c-2.036,0.694-10.752-2.572-13.116-5.413c-2.364-2.842-6.383-6.558-8.555-8.164
				c-2.172-1.606-8.295-5.136-8.408-7.91C0.088,7.644,3.106,7.352,3.106,7.352c0.938,1.848,2.336,2.148,3.263,3.338
				c0.928,1.19,3.64,4.672,6.095,6.183c0.034,0.021,0.068,0.042,0.101,0.063c1.87,1.158,3.44,2.739,4.595,4.609
				c0.881,1.425,2.171,3.277,3.682,4.723c2.857,2.734,8.304,4.401,9.283,4.528c0.98,0.127,1.232-0.657,1.232-0.657
				S31.778,31.395,30.28,31.906z"/>
		</g>
		<g>
			<path class="st3" d="M18.009,8.236L18.009,8.236c-0.021-0.005-0.043-0.01-0.064-0.016c-1.026-0.279-3.896-1.109-5.536-2.067
				c-2.022-1.182-2.175-2.265-1.835-3.003s0.711-2.451,0.336-2.951c-0.007-0.009-0.013-0.018-0.02-0.026
				c-0.266-0.33-0.801-0.155-0.829,0.268C10.03,0.932,9.946,1.843,9.728,2.844C9.403,4.338,9.936,5.331,12.614,6.78
				S17.177,8.258,18.009,8.236z"/>
		</g>
		<g>
			<g>
				<path class="st3" d="M22.844,16.773c0,0-0.25,0.001-0.244,0.595s-0.154,1.596,0.5,2.4c0.654,0.803,2.637,2.17,3.422,2.075
					l-0.895-1.396c0,0-0.497-0.431-1.135-1.375C23.579,17.722,23.418,16.763,22.844,16.773z"/>
			</g>
			<g>
				<path class="st3" d="M21.051,16.351c-0.772-0.851-1.423-1.785-1.954-2.8c-0.126-0.242,0.076-0.527,0.346-0.487
					c0.785,0.117,1.488,0.337,2.083,0.69c0.227,0.135,0.362,0.383,0.36,0.646c-0.003,0.593-0.103,1.197-0.26,1.808
					C21.56,16.467,21.231,16.55,21.051,16.351z"/>
			</g>
		</g>
		<g>
			<path class="st7" d="M15.702,13.348c2.873,0.126,5.993-1.895,5.993-1.895c0.562-0.429-0.736-3.522-0.929-3.179
				c0,0-2.982,1.931-5.799,1.901c-0.204-0.002-0.352,0.192-0.294,0.388l0.75,2.567C15.46,13.255,15.572,13.343,15.702,13.348z"/>
		</g>
		<path class="st9" d="M21.696,11.453c0,0-5.03,2.332-7.023-0.891l0.75,2.567c0.037,0.125,0.149,0.213,0.279,0.219
			C18.576,13.474,21.696,11.453,21.696,11.453z"/>
	</g>
	<g>
		<path class="st23" d="M17.874,12.476c-0.559,0.151-1.14,0.254-1.715,0.277c-0.134,0.005-0.254-0.086-0.291-0.214l-0.42-1.446
			c-0.05-0.173,0.071-0.341,0.25-0.358c0.545-0.05,1.082-0.157,1.595-0.3c0.152-0.042,0.306,0.042,0.349,0.193l0.431,1.486
			C18.118,12.269,18.03,12.434,17.874,12.476z"/>
	</g>
	<g>
		<path class="st38" d="M16.16,12.754c0.575-0.023,1.156-0.126,1.715-0.277c0.104-0.028,0.159-0.117,0.183-0.215
			c-0.865-0.004-1.747-0.184-2.477-0.715l0.288,0.993C15.906,12.668,16.026,12.759,16.16,12.754z"/>
	</g>
</g>
</svg>
