<?xml version="1.0" encoding="utf-8"?>
<!-- Generator: Adobe Illustrator 21.1.0, SVG Export Plug-In . SVG Version: 6.00 Build 0)  -->
<svg version="1.1" id="Layer_1" xmlns="http://www.w3.org/2000/svg" xmlns:xlink="http://www.w3.org/1999/xlink" x="0px" y="0px"
	 viewBox="0 0 32 32" style="enable-background:new 0 0 32 32;" xml:space="preserve">
<style type="text/css">
	.st0{fill:#45CBEA;}
	.st1{fill:#FFD93B;}
	.st2{fill:#F4C534;}
	.st3{fill:#3E4347;}
	.st4{opacity:0.2;}
	.st5{fill:#DE9C25;}
	.st6{fill:#FFFFFF;}
	.st7{fill:#E24B4B;}
	.st8{fill:#8CC63E;}
	.st9{fill:#D03F3F;}
	.st10{fill:#846144;}
	.st11{fill:#5A5F63;}
	.st12{fill:#777B7E;}
	.st13{fill:#FFDC97;}
	.st14{fill:#FFE9AB;}
	.st15{fill:#93979A;}
	.st16{fill:#FFD68D;}
	.st17{fill:#728389;}
	.st18{fill:#DAE5EF;}
	.st19{fill:#65B1EF;}
	.st20{fill:#F2F7F9;}
	.st21{fill:#8D9BA3;}
	.st22{opacity:0.2;fill:#F2F7F9;}
	.st23{fill:#E9EFF4;}
	.st24{fill:#FC97B2;}
	.st25{fill:#E84D88;}
	.st26{fill:#A5856D;}
	.st27{fill:#E9B02C;}
	.st28{fill:#7FB239;}
	.st29{fill:#CBD6E0;}
	.st30{fill:#ACB9C1;}
	.st31{fill:#8F6D52;}
	.st32{opacity:0.2;fill:#FFFFFF;}
	.st33{fill:#9A795F;}
	.st34{fill:#BBC7D1;}
	.st35{fill:#E18823;}
	.st36{fill:#F29A2E;}
	.st37{fill:#89664C;}
	.st38{fill:#D3D9DD;}
	.st39{fill:#DEE4E9;}
	.st40{fill:#AD2727;}
	.st41{fill:#719D34;}
	.st42{fill:#353A3D;}
	.st43{opacity:0.25;}
	.st44{opacity:0.2;fill:#3E4347;}
	.st45{fill:#373C3F;}
	.st46{opacity:0.1;}
	.st47{opacity:0.06;}
	.st48{fill:#7A5B44;}
	.st49{fill:#6B503B;}
	.st50{fill:#31373A;}
	.st51{fill:#59A5E0;}
	.st52{fill:#363B3F;}
	.st53{fill:#BF3333;}
	.st54{opacity:0.3;}
	.st55{fill:#4E99D2;}
	.st56{opacity:0.15;}
	.st57{opacity:0.1;fill:#3E4347;}
	.st58{fill:#64892F;}
	.st59{opacity:0.08;fill:#FFFFFF;}
	.st60{opacity:0.1;fill:#FFFFFF;}
</style>
<g>
	<g>
		<circle class="st7" cx="16" cy="16" r="16"/>
	</g>
	<path class="st3" d="M13.833,13.26c4.296,0.178,14.955,1.044,18.164,3.011C31.999,16.181,32,16.091,32,16
		c0-0.357-0.012-0.711-0.035-1.062c-4.414-2.141-14.264-2.778-18.076-2.925c-0.324-0.012-0.576-0.288-0.558-0.612
		c0.051-0.937,0.114-1.856,0.19-2.75c0.024-0.282,0.248-0.505,0.531-0.529c7.605-0.654,9.327-3.962,12.789-3.89
		c-0.437-0.403-0.896-0.781-1.375-1.133c-2.9,0.614-5.199,3.117-11.054,3.736c-0.372,0.039-0.682-0.279-0.636-0.65
		c0.187-1.496,0.591-4.234,1.226-6.154c-0.454,0.028-0.902,0.075-1.345,0.14C13,2.275,12.662,4.843,12.483,6.455
		c-0.033,0.299-0.289,0.523-0.59,0.517C8.906,6.908,6.806,5.529,5.68,3.772C5.359,4.044,5.049,4.328,4.75,4.624
		C6.098,6.575,8.51,8.13,11.69,8.222c0.332,0.01,0.588,0.296,0.561,0.627c-0.068,0.832-0.125,1.686-0.171,2.553
		c-0.017,0.312-0.276,0.555-0.588,0.55c-2.576-0.037-7.884-0.034-11.173,0.857c-0.086,0.424-0.155,0.853-0.206,1.289
		c2.737-0.757,8.816-0.902,11.29-0.895c0.327,0.001,0.589,0.271,0.579,0.598c-0.026,0.855-0.041,1.715-0.047,2.575
		c-0.002,0.32-0.264,0.579-0.584,0.577c-3.068-0.024-5.85,1.095-7.525,3.718c-0.793,1.242-1.299,2.422-1.583,3.501
		c0.305,0.512,0.637,1.006,0.996,1.479c0.119-1.209,0.595-2.672,1.639-4.308c1.447-2.267,3.866-3.159,6.492-3.141
		c0.315,0.002,0.571,0.257,0.575,0.573c0.041,2.763,0.231,9.223,1.376,13.002c0.436,0.074,0.879,0.129,1.326,0.167
		c-0.73-2.315-1.338-7.132-1.448-12.873c-0.007-0.377,0.341-0.663,0.708-0.579c5.417,1.232,8.405,6.346,12.665,9.519
		c0.319-0.281,0.628-0.575,0.924-0.881c-4.363-3.177-7.602-8.816-13.834-9.959c-0.279-0.051-0.481-0.293-0.48-0.576
		c0.004-0.925,0.02-1.851,0.048-2.77C13.238,13.5,13.51,13.247,13.833,13.26z"/>
	<g>
		<path class="st9" d="M32,16c0,8.837-7.164,16-16,16c-4.681,0-8.892-2.01-11.818-5.215c1.231,0.248,2.505,0.379,3.809,0.379
			c10.589,0,19.173-8.584,19.173-19.173c0-1.304-0.13-2.578-0.379-3.809C29.99,7.107,32,11.319,32,16z"/>
	</g>
	<g>
		<path class="st45" d="M13.636,26.319c-0.412,0.127-0.829,0.24-1.252,0.339c0.203,1.86,0.501,3.682,0.935,5.118
			c0.436,0.074,0.879,0.13,1.326,0.167C14.255,30.705,13.9,28.749,13.636,26.319z"/>
		<path class="st45" d="M26.795,4.232c0.015,0,0.03,0.001,0.045,0.001c-0.018-0.017-0.036-0.034-0.055-0.05
			C26.789,4.198,26.792,4.215,26.795,4.232z"/>
		<path class="st45" d="M31.965,14.938c-1.416-0.687-3.392-1.219-5.548-1.63c-0.117,0.406-0.247,0.807-0.39,1.202
			c2.548,0.448,4.776,1.028,5.97,1.761C31.999,16.181,32,16.09,32,16C32,15.643,31.988,15.289,31.965,14.938z"/>
		<path class="st45" d="M27.495,27.129c-2.105-1.533-3.948-3.638-5.992-5.535c-0.295,0.293-0.6,0.577-0.914,0.851
			c1.989,1.848,3.822,3.956,5.983,5.565C26.89,27.729,27.199,27.435,27.495,27.129z"/>
	</g>
	<path class="st59" d="M0,16c0,1.003,0.093,1.985,0.269,2.937c4.148,1.878,9.511,1.302,13.812-1.912
		c5.69-4.252,7.478-11.595,4.279-16.851C17.59,0.059,16.802,0,16,0C7.163,0,0,7.163,0,16z"/>
</g>
</svg>
