<?xml version="1.0" encoding="utf-8"?>
<!-- Generator: Adobe Illustrator 21.1.0, SVG Export Plug-In . SVG Version: 6.00 Build 0)  -->
<svg version="1.1" id="Layer_1" xmlns="http://www.w3.org/2000/svg" xmlns:xlink="http://www.w3.org/1999/xlink" x="0px" y="0px"
	 viewBox="0 0 32 32" style="enable-background:new 0 0 32 32;" xml:space="preserve">
<style type="text/css">
	.st0{fill:#45CBEA;}
	.st1{fill:#FFD93B;}
	.st2{fill:#F4C534;}
	.st3{fill:#3E4347;}
	.st4{opacity:0.2;}
	.st5{fill:#DE9C25;}
	.st6{fill:#FFFFFF;}
	.st7{fill:#E24B4B;}
	.st8{fill:#8CC63E;}
	.st9{fill:#D03F3F;}
	.st10{fill:#846144;}
	.st11{fill:#5A5F63;}
	.st12{fill:#777B7E;}
	.st13{fill:#FFDC97;}
	.st14{fill:#FFE9AB;}
	.st15{fill:#93979A;}
	.st16{fill:#FFD68D;}
	.st17{fill:#728389;}
	.st18{fill:#DAE5EF;}
	.st19{fill:#65B1EF;}
	.st20{fill:#F2F7F9;}
	.st21{fill:#8D9BA3;}
	.st22{opacity:0.2;fill:#F2F7F9;}
	.st23{fill:#E9EFF4;}
	.st24{fill:#FC97B2;}
	.st25{fill:#E84D88;}
	.st26{fill:#A5856D;}
	.st27{fill:#E9B02C;}
	.st28{fill:#7FB239;}
	.st29{fill:#CBD6E0;}
	.st30{fill:#ACB9C1;}
	.st31{fill:#8F6D52;}
	.st32{opacity:0.2;fill:#FFFFFF;}
	.st33{fill:#9A795F;}
	.st34{fill:#BBC7D1;}
	.st35{fill:#E18823;}
	.st36{fill:#F29A2E;}
	.st37{fill:#89664C;}
	.st38{fill:#D3D9DD;}
	.st39{fill:#DEE4E9;}
	.st40{fill:#AD2727;}
	.st41{fill:#719D34;}
	.st42{fill:#353A3D;}
	.st43{opacity:0.25;}
	.st44{opacity:0.2;fill:#3E4347;}
	.st45{fill:#373C3F;}
	.st46{opacity:0.1;}
	.st47{opacity:0.06;}
	.st48{fill:#7A5B44;}
	.st49{fill:#6B503B;}
	.st50{fill:#31373A;}
	.st51{fill:#59A5E0;}
	.st52{fill:#363B3F;}
	.st53{fill:#BF3333;}
	.st54{opacity:0.3;}
	.st55{fill:#4E99D2;}
	.st56{opacity:0.15;}
	.st57{opacity:0.1;fill:#3E4347;}
	.st58{fill:#64892F;}
	.st59{opacity:0.08;fill:#FFFFFF;}
	.st60{opacity:0.1;fill:#FFFFFF;}
</style>
<g>
	<g>
		<path class="st1" d="M25.188,4.252c8.614,0,9.058,11.914,1.332,13.142c-1.119,0.178-2.242-0.443-2.62-1.511
			c-0.038-0.108-0.052-0.172-0.052-0.172c0.3,4.366-3.488,7.809-3.488,7.809c-0.531,1.941-2.518,3.696-3.696,4.089
			c-1.178,0.393-0.901-0.116-1.756-0.601s-3.95-2.884-5.922-5.781S4.236,14.17,4.236,14.17s1.893-5.76,3.856-0.169
			c0.923,1.485,1.917,2.857,3.327,3.581c1.642,0.27,2.938,1.317,3.182,1.524c-0.421-3.282,0.877-5.617,1.947-6.167
			c-0.681-4.734,2.999-8.686,7.515-8.686L25.188,4.252z"/>
	</g>
	<g>
		<path class="st2" d="M19.336,9.785C19.314,9.64,19.305,9.55,19.305,9.55C19.31,9.628,19.321,9.706,19.336,9.785z"/>
		<path class="st2" d="M23.848,15.711c0,0,0.014,0.064,0.052,0.172c0.378,1.069,1.5,1.689,2.62,1.512
			c1.744-0.277,3.068-1.102,3.979-2.208c-4.572,2.986-6.591-0.8-8.661-2.109c-1.561-0.987-1.386-1.825-1.363-3.165
			c0,0-0.323,0.886-0.108,1.702c0,0-0.85-0.903-1.031-1.829c0.067,0.441,0.248,1.388,0.631,1.829c0,0-0.67-0.092-0.87-0.354
			c0,0,0.339,0.454,0.809,0.578c0,0-0.331,0.039-0.809-0.123c0,0,0.354,0.193,0.909,0.323c0,0,2.41,2.287,2.873,4.436
			c0.462,2.148-1.409,5.614-2.518,7.046C20.36,23.519,24.149,20.077,23.848,15.711z"/>
	</g>
	<g>
		<path class="st2" d="M16.548,12.938c-1.934,1.967-1.665,6.219-1.171,8.933C13.614,18.011,14.869,13.813,16.548,12.938z"/>
	</g>
	<g>
		<circle class="st11" cx="6.075" cy="12.353" r="6.075"/>
	</g>
	<g>
		<circle class="st3" cx="6.075" cy="12.353" r="4.357"/>
	</g>
	<g>
		<circle class="st23" cx="6.075" cy="12.353" r="1.491"/>
	</g>
	<g>
		<circle class="st34" cx="6.075" cy="12.353" r="0.843"/>
	</g>
	<g>
		<path class="st45" d="M9.422,9.564c-0.755-0.631-1.728-1.01-2.788-1.01c-2.406,0-4.357,1.951-4.357,4.357
			c0,1.061,0.379,2.033,1.01,2.788c-0.959-0.799-1.569-2.002-1.569-3.348c0-2.406,1.951-4.357,4.357-4.357
			C7.42,7.996,8.624,8.606,9.422,9.564z"/>
	</g>
</g>
</svg>
