<?xml version="1.0" encoding="utf-8"?>
<!-- Generator: Adobe Illustrator 21.1.0, SVG Export Plug-In . SVG Version: 6.00 Build 0)  -->
<svg version="1.1" id="Layer_1" xmlns="http://www.w3.org/2000/svg" xmlns:xlink="http://www.w3.org/1999/xlink" x="0px" y="0px"
	 viewBox="0 0 32 32" style="enable-background:new 0 0 32 32;" xml:space="preserve">
<style type="text/css">
	.st0{fill:#45CBEA;}
	.st1{fill:#FFD93B;}
	.st2{fill:#F4C534;}
	.st3{fill:#3E4347;}
	.st4{opacity:0.2;}
	.st5{fill:#DE9C25;}
	.st6{fill:#FFFFFF;}
	.st7{fill:#E24B4B;}
	.st8{fill:#8CC63E;}
	.st9{fill:#D03F3F;}
	.st10{fill:#846144;}
	.st11{fill:#5A5F63;}
	.st12{fill:#777B7E;}
	.st13{fill:#FFDC97;}
	.st14{fill:#FFE9AB;}
	.st15{fill:#93979A;}
	.st16{fill:#FFD68D;}
	.st17{fill:#728389;}
	.st18{fill:#DAE5EF;}
	.st19{fill:#65B1EF;}
	.st20{fill:#F2F7F9;}
	.st21{fill:#8D9BA3;}
	.st22{opacity:0.2;fill:#F2F7F9;}
	.st23{fill:#E9EFF4;}
	.st24{fill:#FC97B2;}
	.st25{fill:#E84D88;}
	.st26{fill:#A5856D;}
	.st27{fill:#E9B02C;}
	.st28{fill:#7FB239;}
	.st29{fill:#CBD6E0;}
	.st30{fill:#ACB9C1;}
	.st31{fill:#8F6D52;}
	.st32{opacity:0.2;fill:#FFFFFF;}
	.st33{fill:#9A795F;}
	.st34{fill:#BBC7D1;}
	.st35{fill:#E18823;}
	.st36{fill:#F29A2E;}
	.st37{fill:#89664C;}
	.st38{fill:#D3D9DD;}
	.st39{fill:#DEE4E9;}
	.st40{fill:#AD2727;}
	.st41{fill:#719D34;}
	.st42{fill:#353A3D;}
	.st43{opacity:0.25;}
	.st44{opacity:0.2;fill:#3E4347;}
	.st45{fill:#373C3F;}
	.st46{opacity:0.1;}
	.st47{opacity:0.06;}
	.st48{fill:#7A5B44;}
	.st49{fill:#6B503B;}
	.st50{fill:#31373A;}
	.st51{fill:#59A5E0;}
	.st52{fill:#363B3F;}
	.st53{fill:#BF3333;}
	.st54{opacity:0.3;}
	.st55{fill:#4E99D2;}
	.st56{opacity:0.15;}
	.st57{opacity:0.1;fill:#3E4347;}
	.st58{fill:#64892F;}
	.st59{opacity:0.08;fill:#FFFFFF;}
	.st60{opacity:0.1;fill:#FFFFFF;}
</style>
<g>
	<g>
		<g>
			<g>
				<g>
					<path class="st7" d="M28.844,8.764c-0.102,0.484-0.382,0.918-0.79,1.211h-0.026c-0.918,0.599-2.014,0.446-2.664-0.306
						c-1.938-2.231-4.818-3.684-7.878-3.977c-1.015-0.104-1.791-0.12-2.97,0c-3.072,0.293-5.94,1.746-7.878,3.977
						c-0.395,0.446-0.943,0.688-1.517,0.688c-0.395,0-0.79-0.128-1.16-0.37H3.949c-0.408-0.306-0.701-0.727-0.79-1.211V8.764
						C5.81,5.182,9.634,3.296,14.236,2.658c2.602-0.104,0.916-0.105,3.531,0C22.368,3.296,26.18,5.182,28.844,8.764z"/>
				</g>
			</g>
		</g>
		<g>
			<path class="st18" d="M31.764,20.622c-0.174,0.926-0.397,1.757-0.665,2.535c-0.117,0.329-0.17,0.684-0.121,1.031
				c0.314,2.138-2.403,3.698-4.099,2.002c-1.436-1.436-0.536-3.653,1.133-4.057c0.835-0.204,1.522-0.79,1.753-1.617
				c0.023-0.079,0.045-0.162,0.064-0.242c0.99-3.842,0.125-8.213-2.089-11.137c-2.629-3.706-6.554-5.527-10.105-5.75
				c-1.217-0.111-1.984-0.117-3.272,0c-3.551,0.223-7.476,2.044-10.105,5.75C2.045,12.062,1.18,16.433,2.17,20.275
				c0.019,0.079,0.042,0.162,0.064,0.242c0.23,0.827,0.918,1.413,1.753,1.617c1.67,0.404,2.569,2.622,1.133,4.057
				c-1.696,1.696-4.412,0.136-4.099-2.002c0.049-0.348-0.004-0.703-0.121-1.031c-0.268-0.778-0.491-1.609-0.665-2.535
				c-0.85-4.873,0.706-9.55,2.92-12.308c2.659-3.676,6.475-5.61,11.084-6.263c2.256-0.1,1.231-0.102,3.521,0
				c4.609,0.654,8.424,2.588,11.084,6.263C31.058,11.073,32.614,15.749,31.764,20.622z"/>
		</g>
	</g>
	<g>
		<g>
			<g>
				<g>
					<g>
						<path class="st7" d="M24.001,29.769c-0.592,0.501-1.825,0.211-2.158-0.411c-1.487-2.776,0.189-11.572,2.593-13.607
							c0.538-0.456,1.792-0.273,2.158,0.411C28.228,19.216,26.643,27.531,24.001,29.769z"/>
					</g>
				</g>
				<g>
					<path class="st3" d="M26.593,16.162l-2.593,13.607c3.956,0.585,4.243-2.411,4.947-6.108S30.487,17.073,26.593,16.162z"/>
				</g>
			</g>
		</g>
		<path class="st42" d="M28.948,23.661c0.4-2.1,0.84-3.939,0.434-5.303c0.008,0.052,0.169,1.145-0.441,3.443
			c-0.625,2.354-1.379,6.104-4.939,7.969C27.957,30.354,28.243,27.358,28.948,23.661z"/>
	</g>
	<g>
		<g>
			<g>
				<g>
					<g>
						<path class="st7" d="M7.999,29.769c0.592,0.501,1.825,0.211,2.158-0.411c1.487-2.776-0.189-11.572-2.593-13.607
							c-0.538-0.456-1.792-0.273-2.158,0.411C3.772,19.216,5.357,27.531,7.999,29.769z"/>
					</g>
				</g>
				<g>
					<path class="st3" d="M5.407,16.162l2.593,13.607c-3.956,0.585-4.243-2.411-4.947-6.108S1.513,17.073,5.407,16.162z"/>
				</g>
			</g>
		</g>
		<path class="st42" d="M3.052,23.661c-0.4-2.1-0.84-3.939-0.434-5.303C2.61,18.41,2.45,19.503,3.06,21.801
			c0.625,2.354,1.379,6.104,4.939,7.969C4.043,30.354,3.757,27.358,3.052,23.661z"/>
	</g>
</g>
</svg>
