<?xml version="1.0" encoding="utf-8"?>
<!-- Generator: Adobe Illustrator 21.1.0, SVG Export Plug-In . SVG Version: 6.00 Build 0)  -->
<svg version="1.1" id="Layer_1" xmlns="http://www.w3.org/2000/svg" xmlns:xlink="http://www.w3.org/1999/xlink" x="0px" y="0px"
	 viewBox="0 0 32 32" style="enable-background:new 0 0 32 32;" xml:space="preserve">
<style type="text/css">
	.st0{fill:#45CBEA;}
	.st1{fill:#FFD93B;}
	.st2{fill:#F4C534;}
	.st3{fill:#3E4347;}
	.st4{opacity:0.2;}
	.st5{fill:#DE9C25;}
	.st6{fill:#FFFFFF;}
	.st7{fill:#E24B4B;}
	.st8{fill:#8CC63E;}
	.st9{fill:#D03F3F;}
	.st10{fill:#846144;}
	.st11{fill:#5A5F63;}
	.st12{fill:#777B7E;}
	.st13{fill:#FFDC97;}
	.st14{fill:#FFE9AB;}
	.st15{fill:#93979A;}
	.st16{fill:#FFD68D;}
	.st17{fill:#728389;}
	.st18{fill:#DAE5EF;}
	.st19{fill:#65B1EF;}
	.st20{fill:#F2F7F9;}
	.st21{fill:#8D9BA3;}
	.st22{opacity:0.2;fill:#F2F7F9;}
	.st23{fill:#E9EFF4;}
	.st24{fill:#FC97B2;}
	.st25{fill:#E84D88;}
	.st26{fill:#A5856D;}
	.st27{fill:#E9B02C;}
	.st28{fill:#7FB239;}
	.st29{fill:#CBD6E0;}
	.st30{fill:#ACB9C1;}
	.st31{fill:#8F6D52;}
	.st32{opacity:0.2;fill:#FFFFFF;}
	.st33{fill:#9A795F;}
	.st34{fill:#BBC7D1;}
	.st35{fill:#E18823;}
	.st36{fill:#F29A2E;}
	.st37{fill:#89664C;}
	.st38{fill:#D3D9DD;}
	.st39{fill:#DEE4E9;}
	.st40{fill:#AD2727;}
	.st41{fill:#719D34;}
	.st42{fill:#353A3D;}
	.st43{opacity:0.25;}
	.st44{opacity:0.2;fill:#3E4347;}
	.st45{fill:#373C3F;}
	.st46{opacity:0.1;}
	.st47{opacity:0.06;}
	.st48{fill:#7A5B44;}
	.st49{fill:#6B503B;}
	.st50{fill:#31373A;}
	.st51{fill:#59A5E0;}
	.st52{fill:#363B3F;}
	.st53{fill:#BF3333;}
	.st54{opacity:0.3;}
	.st55{fill:#4E99D2;}
	.st56{opacity:0.15;}
	.st57{opacity:0.1;fill:#3E4347;}
	.st58{fill:#64892F;}
	.st59{opacity:0.08;fill:#FFFFFF;}
	.st60{opacity:0.1;fill:#FFFFFF;}
</style>
<g>
	<g>
		<g>
			
				<ellipse transform="matrix(0.7071 -0.7071 0.7071 0.7071 -0.0788 18.7382)" class="st18" cx="22.58" cy="9.464" rx="9.42" ry="9.42"/>
		</g>
		<g>
			<g>
				<path class="st29" d="M14.638,7.281c-0.337-0.388-0.797-0.457-1.152-0.246c-0.165,0.621-0.264,1.255-0.3,1.893
					c0.048,0.087,0.089,0.179,0.153,0.255c0.422,0.501,1.032,0.541,1.41,0.022C15.123,8.688,15.092,7.8,14.638,7.281z"/>
				<g>
					<path class="st29" d="M16.827,11.478c-0.42,0.483-1.1,0.401-1.578-0.121c-0.476-0.522-0.604-1.321-0.226-1.84
						c0.378-0.515,1.139-0.525,1.656,0.032C17.199,10.103,17.245,10.995,16.827,11.478z"/>
				</g>
				<g>
					<path class="st29" d="M19.067,13.766c-0.462,0.444-1.208,0.324-1.717-0.195c-0.51-0.52-0.64-1.289-0.218-1.773
						c0.418-0.482,1.249-0.46,1.805,0.105C19.494,12.467,19.529,13.326,19.067,13.766z"/>
				</g>
				<g>
					<path class="st29" d="M21.362,15.962c-0.504,0.397-1.289,0.268-1.813-0.229c-0.523-0.498-0.623-1.209-0.163-1.654
						c0.465-0.439,1.34-0.399,1.903,0.145C21.853,14.765,21.862,15.566,21.362,15.962z"/>
				</g>
				<g>
					<path class="st29" d="M23.604,17.961c-0.527,0.364-1.335,0.244-1.849-0.207c-0.515-0.455-0.576-1.101-0.075-1.498
						c0.502-0.397,1.394-0.355,1.936,0.137C24.158,16.881,24.129,17.6,23.604,17.961z"/>
				</g>
				<path class="st29" d="M25.799,18.285c-0.492-0.412-1.366-0.431-1.893-0.068c-0.25,0.173-0.37,0.393-0.384,0.618
					c0.779-0.078,1.548-0.261,2.291-0.532C25.807,18.298,25.805,18.291,25.799,18.285z"/>
			</g>
			<g>
				<path class="st29" d="M15.249,4.391c-0.124-0.137-0.272-0.215-0.428-0.26c-0.499,0.724-0.882,1.502-1.155,2.311
					c0.407,0.457,1.074,0.434,1.527-0.121C15.656,5.754,15.685,4.869,15.249,4.391z"/>
				<g>
					<path class="st29" d="M17.27,8.592c-0.496,0.563-1.271,0.542-1.753,0.005c-0.485-0.543-0.516-1.404-0.053-1.972
						c0.464-0.563,1.269-0.611,1.785-0.067C17.763,7.099,17.769,8.032,17.27,8.592z"/>
				</g>
				<g>
					<path class="st29" d="M19.57,10.979c-0.53,0.541-1.366,0.492-1.897-0.062c-0.532-0.556-0.59-1.433-0.093-1.997
						c0.497-0.56,1.378-0.574,1.943,0.004C20.089,9.501,20.1,10.439,19.57,10.979z"/>
				</g>
				<g>
					<path class="st29" d="M21.964,13.352c-0.552,0.515-1.425,0.454-1.981-0.093c-0.555-0.547-0.611-1.403-0.082-1.946
						c0.527-0.542,1.455-0.535,2.035,0.043C22.518,11.931,22.514,12.839,21.964,13.352z"/>
				</g>
				<g>
					<path class="st29" d="M24.323,15.584c-0.566,0.481-1.442,0.431-1.994-0.079c-0.552-0.511-0.585-1.317-0.031-1.83
						c0.551-0.514,1.49-0.506,2.054,0.04C24.917,14.26,24.888,15.104,24.323,15.584z"/>
				</g>
				<g>
					<path class="st29" d="M26.519,17.545c-0.563,0.448-1.407,0.437-1.926-0.01c-0.517-0.446-0.518-1.179,0.049-1.659
						c0.565-0.481,1.479-0.489,1.991-0.012C27.147,16.341,27.078,17.098,26.519,17.545z"/>
				</g>
			</g>
		</g>
		<g>
			<g>
				<path class="st29" d="M15.158,3.673c0.291-0.037,0.598-0.188,0.852-0.461c0.245-0.259,0.381-0.573,0.424-0.876
					c-0.175,0.151-0.351,0.301-0.517,0.467C15.642,3.079,15.393,3.372,15.158,3.673z"/>
				<g>
					<path class="st29" d="M18.037,5.324c-0.55,0.578-1.386,0.605-1.858,0.088c-0.473-0.517-0.429-1.368,0.092-1.925
						c0.519-0.557,1.343-0.624,1.844-0.127C18.619,3.857,18.587,4.747,18.037,5.324z"/>
				</g>
				<g>
					<path class="st29" d="M20.338,7.674c-0.571,0.584-1.471,0.582-2.009,0.018c-0.54-0.563-0.534-1.473,0.015-2.052
						c0.549-0.579,1.45-0.606,2.011-0.047C20.915,6.15,20.91,7.09,20.338,7.674z"/>
				</g>
				<g>
					<path class="st29" d="M22.773,10.122c-0.584,0.577-1.511,0.565-2.086-0.014c-0.572-0.577-0.587-1.513-0.015-2.095
						c0.572-0.583,1.515-0.589,2.1-0.005C23.358,8.591,23.354,9.542,22.773,10.122z"/>
				</g>
				<g>
					<path class="st29" d="M25.203,12.527c-0.582,0.563-1.509,0.556-2.085-0.006c-0.576-0.562-0.586-1.479-0.003-2.058
						c0.582-0.579,1.534-0.578,2.108-0.002C25.798,11.036,25.786,11.965,25.203,12.527z"/>
				</g>
				<g>
					<path class="st29" d="M27.487,14.749c-0.569,0.538-1.456,0.556-2.001,0.046c-0.543-0.51-0.535-1.381,0.048-1.944
						c0.582-0.563,1.503-0.579,2.034-0.042C28.101,13.346,28.056,14.211,27.487,14.749z"/>
				</g>
				<path class="st29" d="M27.785,15.036c-0.57,0.538-0.615,1.33-0.133,1.759c0.147,0.13,0.327,0.199,0.517,0.239
					c0.372-0.275,0.734-0.571,1.071-0.908c0.239-0.239,0.461-0.489,0.669-0.746c-0.042-0.172-0.115-0.334-0.247-0.467
					C29.208,14.45,28.354,14.496,27.785,15.036z"/>
			</g>
			<g>
				<path class="st29" d="M16.963,2.549c0.454,0.462,1.309,0.415,1.878-0.124c0.543-0.512,0.594-1.246,0.183-1.687
					c-0.816,0.332-1.592,0.786-2.307,1.356C16.761,2.261,16.835,2.418,16.963,2.549z"/>
				<g>
					<path class="st29" d="M21.093,4.61c-0.584,0.562-1.502,0.579-2.035,0.042c-0.531-0.536-0.489-1.403,0.081-1.94
						c0.569-0.539,1.456-0.558,2.001-0.046C21.687,3.177,21.676,4.048,21.093,4.61z"/>
				</g>
				<g>
					<path class="st29" d="M23.511,6.998c-0.583,0.578-1.535,0.579-2.108,0.002c-0.576-0.578-0.565-1.506,0.02-2.067
						c0.583-0.563,1.51-0.554,2.085,0.006C24.086,5.504,24.093,6.418,23.511,6.998z"/>
				</g>
				<g>
					<path class="st29" d="M25.954,9.448c-0.574,0.583-1.514,0.59-2.1,0.005c-0.587-0.584-0.583-1.535-0.001-2.114
						c0.581-0.579,1.515-0.564,2.086,0.014C26.513,7.931,26.525,8.864,25.954,9.448z"/>
				</g>
				<g>
					<path class="st29" d="M28.283,11.82c-0.549,0.578-1.451,0.604-2.011,0.047c-0.56-0.555-0.553-1.497,0.017-2.081
						c0.571-0.585,1.469-0.581,2.009-0.019C28.841,10.334,28.832,11.242,28.283,11.82z"/>
				</g>
				<g>
					<path class="st29" d="M30.356,13.974c-0.52,0.558-1.343,0.623-1.844,0.127c-0.504-0.497-0.474-1.39,0.078-1.964
						c0.551-0.577,1.386-0.604,1.858-0.088C30.924,12.57,30.875,13.415,30.356,13.974z"/>
				</g>
			</g>
		</g>
		<g>
			<g>
				<path class="st29" d="M22.141,0.065c-0.818,0.038-1.63,0.178-2.418,0.428c-0.127,0.38-0.061,0.795,0.271,1.103
					c0.514,0.479,1.426,0.47,1.991-0.012C22.499,1.148,22.525,0.513,22.141,0.065z"/>
				<g>
					<path class="st29" d="M24.33,3.786c-0.553,0.513-1.489,0.505-2.054-0.04c-0.564-0.543-0.537-1.389,0.029-1.869
						c0.568-0.479,1.444-0.431,1.994,0.079C24.85,2.467,24.883,3.273,24.33,3.786z"/>
				</g>
				<g>
					<path class="st29" d="M26.726,6.147c-0.527,0.543-1.455,0.534-2.035-0.043c-0.582-0.578-0.579-1.484-0.028-1.996
						c0.554-0.512,1.424-0.456,1.981,0.093C27.198,4.749,27.255,5.603,26.726,6.147z"/>
				</g>
				<g>
					<path class="st29" d="M29.046,8.54c-0.498,0.559-1.379,0.574-1.943-0.004c-0.563-0.574-0.578-1.514-0.047-2.054
						c0.531-0.54,1.365-0.495,1.897,0.062C29.486,7.101,29.543,7.977,29.046,8.54z"/>
				</g>
				<g>
					<path class="st29" d="M31.162,10.836c-0.464,0.565-1.268,0.612-1.785,0.067c-0.519-0.546-0.518-1.472-0.021-2.034
						c0.499-0.561,1.271-0.543,1.753-0.005C31.591,9.403,31.627,10.268,31.162,10.836z"/>
				</g>
				<path class="st29" d="M31.895,10.795c-0.165,0.073-0.324,0.178-0.461,0.346c-0.438,0.534-0.473,1.339-0.111,1.832
					C31.605,12.269,31.79,11.536,31.895,10.795z"/>
			</g>
			<g>
				<path class="st29" d="M23.011,1.069c0.544,0.492,1.434,0.534,1.936,0.136c0.262-0.21,0.362-0.487,0.332-0.768
					c-0.852-0.254-1.733-0.382-2.614-0.39C22.583,0.386,22.677,0.767,23.011,1.069z"/>
				<g>
					<path class="st29" d="M27.241,3.381C26.779,3.823,25.9,3.78,25.338,3.236c-0.564-0.539-0.572-1.34-0.073-1.738
						c0.503-0.4,1.289-0.267,1.813,0.229C27.601,2.224,27.705,2.939,27.241,3.381z"/>
				</g>
				<g>
					<path class="st29" d="M29.495,5.663c-0.416,0.485-1.25,0.459-1.805-0.106c-0.56-0.563-0.592-1.421-0.131-1.862
						c0.464-0.442,1.206-0.326,1.717,0.195C29.785,4.408,29.916,5.177,29.495,5.663z"/>
				</g>
				<path class="st29" d="M29.8,5.983c-0.418,0.484-0.371,1.376,0.147,1.929c0.519,0.557,1.281,0.549,1.656,0.032
					c0.093-0.128,0.154-0.273,0.188-0.426C31.69,7.036,31.55,6.563,31.373,6.1C30.896,5.581,30.219,5.501,29.8,5.983z"/>
				<path class="st29" d="M31.909,8.229C31.9,8.241,31.888,8.244,31.88,8.255c-0.369,0.506-0.339,1.365,0.088,1.888
					C32.013,9.505,31.993,8.864,31.909,8.229z"/>
			</g>
		</g>
		<g>
			<g>
				<path class="st29" d="M29.549,3.144c-0.103-0.114-0.199-0.232-0.308-0.341c-0.472-0.472-0.982-0.881-1.519-1.232
					c-0.095,0.335,0.044,0.815,0.432,1.195C28.606,3.212,29.197,3.325,29.549,3.144z"/>
				<path class="st29" d="M29.909,3.547c-0.142,0.379-0.016,0.973,0.408,1.418c0.233,0.247,0.501,0.38,0.748,0.425
					C30.754,4.744,30.375,4.123,29.909,3.547z"/>
			</g>
		</g>
		<g class="st4">
			<path class="st30" d="M29.241,16.128c-3.676,3.676-9.649,3.677-13.325,0c-2.873-2.873-3.496-7.161-1.867-10.645
				c-0.079,2.5,0.837,5.022,2.749,6.934c3.676,3.676,9.638,3.665,13.314-0.011c0.792-0.792,1.425-1.697,1.866-2.658
				C31.922,12.067,30.994,14.375,29.241,16.128z"/>
		</g>
	</g>
	<g>
		<path class="st29" d="M22.994,18.865c-0.045-0.053-0.074-0.108-0.133-0.158c-0.506-0.429-1.322-0.541-1.744-0.316
			c-0.157,0.085-0.221,0.204-0.243,0.335C21.574,18.854,22.285,18.896,22.994,18.865z"/>
	</g>
	<g>
		<g>
			<g>
				<path class="st42" d="M2.638,31.012l-0.713,0.713c-0.102,0.102-0.26,0.102-0.362,0L0.33,30.492
					c-0.113-0.113-0.113-0.272-0.011-0.373l0.713-0.713c0.102-0.102,0.271-0.113,0.385,0l1.233,1.233
					C2.751,30.741,2.74,30.911,2.638,31.012z"/>
			</g>
			<g>
				<g>
					<path class="st3" d="M19.39,20.485L3.192,31.827c-0.284,0.199-0.669,0.165-0.913-0.08l-2.069-2.069
						c-0.246-0.246-0.279-0.634-0.077-0.917l11.431-16.103L19.39,20.485z"/>
				</g>
				<g>
					<polygon class="st18" points="2.522,25.393 1.847,26.344 5.626,30.123 6.583,29.453 					"/>
				</g>
				<g>
					<polygon class="st42" points="19.39,20.485 22.832,18.892 13.173,9.232 11.563,12.657 					"/>
				</g>
			</g>
			<polygon class="st18" points="11.032,13.4 18.64,21.008 19.388,20.483 20.484,19.977 12.074,11.567 11.56,12.656 			"/>
			<g>
				<path class="st42" d="M12.518,20.824l-3.241,3.241c-0.358,0.358-0.936,0.358-1.294,0c-0.358-0.358-0.358-0.936,0-1.294
					l3.241-3.241c0.358-0.358,0.936-0.358,1.294,0C12.875,19.888,12.875,20.466,12.518,20.824z"/>
			</g>
			<g>
				<g>
					
						<ellipse transform="matrix(0.7071 -0.7071 0.7071 0.7071 -11.8757 13.8519)" class="st23" cx="10.783" cy="21.261" rx="1.594" ry="1.594"/>
				</g>
				<g>
					<path class="st34" d="M11.313,21.798c-0.296,0.296-0.771,0.297-1.067,0c-0.296-0.296-0.297-0.771,0-1.067
						s0.783-0.308,1.079-0.012C11.621,21.015,11.61,21.502,11.313,21.798z"/>
				</g>
			</g>
		</g>
		<g class="st46">
			<path class="st6" d="M0.746,30.212L0.52,29.985c-0.181-0.181-0.147-0.509,0.057-0.78l12.092-15.441l1.867-3.179l1.029,1.029
				l-2.07,2.975L0.916,29.544C0.701,29.804,0.622,30.087,0.746,30.212z"/>
		</g>
	</g>
	<g>
		<path class="st3" d="M30.592,16.491c-0.532,0.532-1.417,0.535-1.952,0L15.555,3.405c-0.544-0.544-0.544-1.408,0-1.952
			c0.272-0.272,0.624-0.4,0.976-0.4c0.352,0,0.704,0.128,0.976,0.4l13.086,13.086C31.136,15.083,31.136,15.947,30.592,16.491z"/>
	</g>
</g>
</svg>
