<?xml version="1.0" encoding="utf-8"?>
<!-- Generator: Adobe Illustrator 21.1.0, SVG Export Plug-In . SVG Version: 6.00 Build 0)  -->
<svg version="1.1" id="Layer_1" xmlns="http://www.w3.org/2000/svg" xmlns:xlink="http://www.w3.org/1999/xlink" x="0px" y="0px"
	 viewBox="0 0 32 32" style="enable-background:new 0 0 32 32;" xml:space="preserve">
<style type="text/css">
	.st0{fill:#45CBEA;}
	.st1{fill:#FFD93B;}
	.st2{fill:#F4C534;}
	.st3{fill:#3E4347;}
	.st4{opacity:0.2;}
	.st5{fill:#DE9C25;}
	.st6{fill:#FFFFFF;}
	.st7{fill:#E24B4B;}
	.st8{fill:#8CC63E;}
	.st9{fill:#D03F3F;}
	.st10{fill:#846144;}
	.st11{fill:#5A5F63;}
	.st12{fill:#777B7E;}
	.st13{fill:#FFDC97;}
	.st14{fill:#FFE9AB;}
	.st15{fill:#93979A;}
	.st16{fill:#FFD68D;}
	.st17{fill:#728389;}
	.st18{fill:#DAE5EF;}
	.st19{fill:#65B1EF;}
	.st20{fill:#F2F7F9;}
	.st21{fill:#8D9BA3;}
	.st22{opacity:0.2;fill:#F2F7F9;}
	.st23{fill:#E9EFF4;}
	.st24{fill:#FC97B2;}
	.st25{fill:#E84D88;}
	.st26{fill:#A5856D;}
	.st27{fill:#E9B02C;}
	.st28{fill:#7FB239;}
	.st29{fill:#CBD6E0;}
	.st30{fill:#ACB9C1;}
	.st31{fill:#8F6D52;}
	.st32{opacity:0.2;fill:#FFFFFF;}
	.st33{fill:#9A795F;}
	.st34{fill:#BBC7D1;}
	.st35{fill:#E18823;}
	.st36{fill:#F29A2E;}
	.st37{fill:#89664C;}
	.st38{fill:#D3D9DD;}
	.st39{fill:#DEE4E9;}
	.st40{fill:#AD2727;}
	.st41{fill:#719D34;}
	.st42{fill:#353A3D;}
	.st43{opacity:0.25;}
	.st44{opacity:0.2;fill:#3E4347;}
	.st45{fill:#373C3F;}
	.st46{opacity:0.1;}
	.st47{opacity:0.06;}
	.st48{fill:#7A5B44;}
	.st49{fill:#6B503B;}
	.st50{fill:#31373A;}
	.st51{fill:#59A5E0;}
	.st52{fill:#363B3F;}
	.st53{fill:#BF3333;}
	.st54{opacity:0.3;}
	.st55{fill:#4E99D2;}
	.st56{opacity:0.15;}
	.st57{opacity:0.1;fill:#3E4347;}
	.st58{fill:#64892F;}
	.st59{opacity:0.08;fill:#FFFFFF;}
	.st60{opacity:0.1;fill:#FFFFFF;}
</style>
<g>
	<g>
		<path class="st3" d="M1.106,5.781l0.528,3.583l28.965-4.268l-0.528-3.583c-0.138-0.94-1.013-1.589-1.952-1.451L2.557,3.828
			C1.618,3.967,0.968,4.841,1.106,5.781z"/>
		<g>
			<polygon class="st23" points="17.13,1.679 19.135,1.384 22.462,6.294 20.456,6.59 			"/>
		</g>
		<g>
			<polygon class="st23" points="13.061,2.279 15.067,1.983 18.394,6.894 16.388,7.189 			"/>
		</g>
		<g>
			<polygon class="st23" points="8.992,2.878 10.998,2.583 14.325,7.493 12.319,7.789 			"/>
		</g>
		<g>
			<polygon class="st23" points="4.924,3.478 6.93,3.182 10.257,8.093 8.251,8.388 			"/>
		</g>
		<path class="st23" d="M2.561,3.826l0.301-0.044l3.327,4.911L4.182,8.988L1.331,4.664C1.587,4.229,2.023,3.905,2.561,3.826z"/>
		<g>
			<polygon class="st23" points="25.267,0.48 27.272,0.185 30.599,5.095 28.593,5.391 			"/>
		</g>
		<g>
			<polygon class="st23" points="21.198,1.08 23.204,0.784 26.531,5.695 24.525,5.99 			"/>
		</g>
		<g>
			<path class="st29" d="M1.634,14.277v15.561c0,1.168,0.951,2.119,2.119,2.119h25.039c1.168,0,2.119-0.951,2.119-2.119V14.277
				H1.634z"/>
		</g>
		<g>
			<rect x="1.635" y="14.277" class="st34" width="29.278" height="1.79"/>
		</g>
		<path class="st3" d="M30.912,11.083v3.623H1.634V9.365h27.56C30.145,9.365,30.912,10.133,30.912,11.083z"/>
		<g>
			<polygon class="st23" points="14.462,9.363 12.435,9.363 9.859,14.706 11.887,14.706 			"/>
		</g>
		<g>
			<polygon class="st23" points="18.575,9.363 16.547,9.363 13.972,14.706 15.999,14.706 			"/>
		</g>
		<g>
			<polygon class="st23" points="22.687,9.363 20.66,9.363 18.084,14.706 20.112,14.706 			"/>
		</g>
		<g>
			<polygon class="st23" points="26.8,9.363 24.772,9.363 22.197,14.706 24.224,14.706 			"/>
		</g>
		<path class="st23" d="M29.188,9.363h-0.304l-2.575,5.343h2.027l2.19-4.693C30.211,9.62,29.732,9.363,29.188,9.363z"/>
		<g>
			<polygon class="st23" points="6.237,9.363 4.21,9.363 1.634,14.706 3.662,14.706 			"/>
		</g>
		<g>
			<polygon class="st23" points="10.35,9.363 8.322,9.363 5.747,14.706 7.774,14.706 			"/>
		</g>
		<path class="st3" d="M9.17,14.706H1.634V7.509c0-1.057,0.854-1.911,1.911-1.911c0.624,0,1.22,0.312,1.572,0.84l4.744,6.967
			C10.228,13.961,9.835,14.706,9.17,14.706z"/>
		<circle class="st23" cx="3.718" cy="7.806" r="0.688"/>
		<circle class="st23" cx="7.272" cy="13.133" r="0.688"/>
		<circle class="st23" cx="3.718" cy="13.133" r="0.688"/>
	</g>
	<rect x="3.964" y="19.089" class="st30" width="24.617" height="0.958"/>
	<rect x="3.964" y="23.298" class="st30" width="24.617" height="0.958"/>
	<g>
		<rect x="24.14" y="23.548" class="st30" width="0.958" height="4.375"/>
	</g>
	<g>
		<rect x="15.89" y="19.423" class="st30" width="0.958" height="4.583"/>
	</g>
	<g>
		<rect x="7.978" y="19.423" class="st30" width="0.958" height="8.563"/>
	</g>
	<rect x="3.964" y="27.506" class="st30" width="24.617" height="0.958"/>
</g>
</svg>
