<svg xmlns="http://www.w3.org/2000/svg" viewBox="0 0 492.94 530.52"><defs><style>.cls-1{fill:#fff;}.cls-2{fill:#262e33;}.cls-3{fill:#394f5c;}.cls-4{fill:#2c3b43;}.cls-5{fill:#4a312c;}.cls-6{fill:#b87389;}.cls-7{fill:#3a4c5a;}.cls-8{fill:#2f4351;}.cls-9{fill:#7bccf9;}.cls-10{fill:#9ed9f8;}.cls-11{fill:#222a2e;}.cls-12{fill:#ecb889;}.cls-13{fill:#382521;}.cls-14{fill:#53372e;}.cls-15{fill:#668ba1;}.cls-16{fill:#e4e4e4;}.cls-17{fill:#d4a57c;}.cls-18{fill:#c69a74;}.cls-19{fill:#5f4a37;}</style></defs><g id="Layer_2" data-name="Layer 2"><g id="Layer_1-2" data-name="Layer 1"><circle class="cls-1" cx="246.47" cy="284.05" r="246.47"/><path class="cls-2" d="M299.92,517.82A186.79,186.79,0,0,1,269.38,523c-1.16.12-2.71-.76-3.42,1h-6c-1.89-1.08-3.93-.25-5.89-.51-1.69.23-3.49-.53-5.11.51h-4c-1.64-1.05-3.47-.27-5.2-.51-2.26.24-4.59-.53-6.79.51h-7c-5.43-2.46-11.43-1.6-17.06-3-4.93-1.2-9.93-2.13-14.9-3.17-2-1.38-2.38-3.52-2.81-5.65a699.21,699.21,0,0,1-10.88-77.61c-1.12-13.16-.58-26.28-.81-39.43-.05-2.43-.45-5.05,1.5-7.1,3,.38,2.22,2.87,2.24,4.53,0,3.71,1.74,6.17,4.54,8.38,15.48,12.16,33.26,17.59,52.68,18.76a113.41,113.41,0,0,0,43.69-5.58c8.63-2.92,16.26-7.48,23.55-12.8,1.61-1.17,3.16-3.9,5.91-1.71,1.67,9.23,1.18,18.57.56,27.78a605.35,605.35,0,0,1-8.77,71.11c-.88,4.74-1.85,9.45-2.8,14.17C302.22,514.66,301.69,516.56,299.92,517.82Z"/><path class="cls-3" d="M233,524c2.08-2,4.65-.56,7-1,.35.21.47.42.36.64s-.21.33-.33.33Z"/><path class="cls-3" d="M254,523c2,.34,4.23-.91,6,1h-6c-.33-.22-.44-.44-.32-.66S253.88,523,254,523Z"/><path class="cls-4" d="M240,524c0-.32,0-.65,0-1,1.7.19,3.61-.69,5,1Z"/><path class="cls-4" d="M254,523c0,.33,0,.65,0,1h-5C250.39,522.3,252.3,523.18,254,523Z"/><path class="cls-5" d="M133,495a185.36,185.36,0,0,1-33.89-22.22c-1.68-2.1-1.7-4.6-1.69-7.11,0-23.22-.14-46.45.09-69.67-.28-3.16-.1-6.33-.1-9.49q0-118.85,0-237.7a61.12,61.12,0,0,1,.33-9.47,19.82,19.82,0,0,0,.89-6.93c1-14.74,5.31-28.64,10.76-42.24.74-1.84,2.45-3.12,3.53-4.79,13.54-29,34.25-51.49,62.24-66.74C204.45,2.7,235.81-3.44,269.08,1.86,304.92,7.57,335,23.8,358.89,51.16A138.54,138.54,0,0,1,381,85.37c7.81,11.13,10.11,24.21,13,37.06a41.9,41.9,0,0,1,1.31,9.8,18.27,18.27,0,0,0,.78,6.73c.35,9.53,1.12,19.06-.43,28.56-2.27,2.78-5.37,1.92-8.23,1.7-5.9-.46-11.63-2-17.38-3.34-16.65-5.53-31.31-14.53-44.55-25.92-20.57-17.71-35.46-39.49-45.82-64.47-.51-1.23-1-2.46-1.47-3.72-1-2.94-2.4-3.23-4.48-.77a215.92,215.92,0,0,1-34.26,31.94,311.37,311.37,0,0,1-84.57,46.39c-6.51,2.32-6.56,2.24-6.56,9.16q0,54.67,0,109.36c0,3.16.63,6.29.24,9.47.27,30.22-.29,60.43.33,90.64-.59,11.39-.19,22.79-.32,34.18-.12,19.27.5,38.55-.3,57.81a25,25,0,0,0-.87,8.6,30.76,30.76,0,0,1-1.39,8.07c-2,5.4-3.7,11-7.39,15.61C137.23,494,135.92,496.2,133,495Z"/><path class="cls-6" d="M99.17,138Q99.1,263.74,99,389.43c0,2.16,0,4.33-.08,6.49-1,2.23-3,3.47-4.72,5.05a143.94,143.94,0,0,0-26.67,33.26c-1,1.68-1.71,3.65-3.7,4.54C49.5,422.44,38.24,404.07,29,384.48a223.69,223.69,0,0,1-13.41-37.36,344.17,344.17,0,0,1-7.31-35.69,74.14,74.14,0,0,1-.4-8.45c-.67-2.25-.17-4.54-.32-6.81-.23-3.62.46-7.28-.42-10.89v-2.49c.88-3.59.19-7.25.42-10.87.15-2.27-.35-4.57.32-6.82.77-17.21,4.89-33.72,9.48-50.26A214.79,214.79,0,0,1,38,166.39a245.11,245.11,0,0,1,30.82-43,229.66,229.66,0,0,1,44.08-38c-6.55,15-11.42,30.39-13,46.72C98.94,134,100.07,136.14,99.17,138Z"/><path class="cls-6" d="M394.74,168.1l0-30.06c-.89-1.9.23-4-.73-5.95-1.69-16.31-6.69-31.7-13-46.72a242.22,242.22,0,0,1,44,38.34,230.83,230.83,0,0,1,32.36,45.89,237.17,237.17,0,0,1,21.82,55.9c2.8,11.26,5.39,22.62,5.76,34.32a29.88,29.88,0,0,0,1.1,5.28c.67,2.24.17,4.54.33,6.8.22,3.63-.47,7.29.41,10.89v2.5c-.88,3.59-.19,7.24-.41,10.86-.16,2.27.34,4.58-.33,6.82-1.87,13.6-3.48,27.25-7,40.56-8.2,31-21.54,59.55-41.18,85-2.61,3.39-5.19,6.81-7.78,10.21-4.13-3.11-5.62-8.09-8.36-12.15-7-10.39-15.52-19.37-24.5-28-1.68-1.61-3.51-3.08-3.67-5.68a42.72,42.72,0,0,1-.27-6.49q0-104.85,0-209.69C393.31,173.83,392.73,170.73,394.74,168.1Z"/><path class="cls-7" d="M394.72,394.92c14.36,12.54,26.81,26.63,35.36,43.85-16.85,20.81-37.25,37.5-60.07,51.29a186.24,186.24,0,0,1-32.08,15.88,3.44,3.44,0,0,1-.1-2.89c3.22-9.38,7.16-18.49,10.65-27.78.17-.45.68-.71,1.1-1,10.81-1.17,21.64-2.2,33.7-3.19-4.34-3.94-7.91-7-12.23-8.92-3.13-1.43-5.66.45-8.28,2-3.47,2.07-5.85,6-10.43,6.22-1.95-2.36,0-4.4.71-6.39,4.46-11.88,4.51-11.87-2.54-22.44-.73-1.1-1.39-2.28-2.22-3.31-2.34-2.93-1.59-5.23.86-7.81,8.34-8.78,8.19-8.8,1.69-18.93-9-14-17.77-28.09-26.71-42.09-1.1-1.74-2.79-3.53-1.09-5.86,3.65-1.8,7.23-.37,10.73.42a143.45,143.45,0,0,1,54.17,24.49C390.46,390.35,393.4,391.8,394.72,394.92Z"/><path class="cls-8" d="M322.9,364c1.9,6,6.17,10.55,9.34,15.76q12.17,20,25,39.55c1.74,2.67,1.07,3.95-.83,5.79-3.09,3-8,6-8.32,9.42s3.87,7.36,6.52,10.72c3.49,4.43,4.59,8.59,1.57,13.87-2,3.4-2.75,7.44-4.07,11.2,1,2.33-1,3.3-2.13,4.66l-12,31a167.73,167.73,0,0,1-38,11.88c3.44-15.11,5.92-30.39,8.1-45.73,3.44-24.25,5.6-48.57,4.9-73.09-2.71-5.07-.88-10.8-2.33-16.07-.3-1.09-.07-2.32-.34-3.46a93.77,93.77,0,0,0-1.45-12.17c-.29-1.86-1.07-3.87.41-5.65C313.88,361.84,318.91,359.89,322.9,364Z"/><path class="cls-8" d="M145,477l1-8c1.35-2.54-.29-5.44,1-8q0-29.52.07-59c5.06-10.6,12.17-20,18.22-30,1.87-3.09,3.56-6.32,6-9.07,4.49-2.14,9.19-1.52,13.88-1.08,1.45,4.63-1.11,8.9-1.17,13.39-.88,2.53-.35,5.16-.52,7.73-.11,1.77,0,3.61-1.46,5-.27.41-.78.81-.78,1.22-.06,13.14-.42,26.3.05,39.42.34,9.56,1.56,19.1,2.8,28.6,2.64,20.31,5.27,40.62,10,60.6a167.73,167.73,0,0,1-38-11.88,4.53,4.53,0,0,1-2.06-2.09c-3.23-7.6-6.18-15.31-8.95-23.09C144.62,479.69,144,478.23,145,477Z"/><path class="cls-7" d="M63.86,438.77c8.71-16.73,20-31.36,35.09-42.85q.09,38.43.16,76.86A196.07,196.07,0,0,1,63.86,438.77Z"/><path class="cls-7" d="M145,477q5.49,14.49,11,29A137.32,137.32,0,0,1,133,495c5.21-1.6,6.45-6.5,8.66-10.54C143,482.07,143.91,479.48,145,477Z"/><path class="cls-9" d="M486,296c-.11-3.61-.65-7.25.74-10.75,0,3.57,0,7.14,0,10.7C486.53,296.49,486.29,296.48,486,296Z"/><path class="cls-9" d="M7.91,272.05c.11,3.6.66,7.24-.74,10.74,0-3.57,0-7.13,0-10.7C7.42,271.61,7.65,271.58,7.91,272.05Z"/><path class="cls-9" d="M486.77,282.79c-1.39-3.5-.85-7.14-.74-10.74.26-.45.5-.46.7,0C486.74,275.66,486.76,279.22,486.77,282.79Z"/><path class="cls-9" d="M7.17,285.28c1.4,3.51.85,7.14.74,10.75-.26.47-.49.43-.7,0Z"/><path class="cls-10" d="M486,296c.23,0,.47,0,.7,0,0,2.36.71,4.78-.7,7Z"/><path class="cls-10" d="M486.73,272.09a5.48,5.48,0,0,0-.7,0V265.1C487.44,267.31,486.73,269.74,486.73,272.09Z"/><path class="cls-10" d="M7.91,272.05a5.48,5.48,0,0,0-.7,0c0-2.35-.71-4.78.7-7Z"/><path class="cls-10" d="M7.21,296c.24,0,.47,0,.7,0v7C6.5,300.76,7.21,298.34,7.21,296Z"/><path class="cls-11" d="M182,388c.46-4.3-.93-8.71.85-12.92a7.17,7.17,0,0,1,3,3.27c6.43,11.42,16.93,17.89,28.65,22.07,25.55,9.11,50.9,8.46,75.45-3.86,7.19-3.61,13.57-8.38,18.23-15.13.75-1.09,1.51-2.24,3-2.36,1.83,6.54,1.88,13.24,1.73,19.95a88.7,88.7,0,0,1-43.57,20.57c-17.39,3-34.81,2.69-52-2.28-10.82-3.13-20.41-8.29-29.74-14.61C181.59,398.6,181.93,393.59,182,388Z"/><path class="cls-12" d="M147.88,276.09c-1-2-.87-4.18-.87-6.34,0-38,.07-75.94-.1-113.91,0-4,1.14-5.59,5-7,44.37-15.83,83.71-39.7,116.47-73.87a84.58,84.58,0,0,0,5.93-6.76c2.14-2.77,3.33-2.47,4.45.78a157.89,157.89,0,0,0,16.46,33.5c15.21,23.92,34.78,43.18,60.48,55.77l14.18,6.93c7.57,3.44,9.58,10.43,10.17,17.6a189.09,189.09,0,0,1,.06,27.45c-.69,10.83-6,18.94-16.27,23.12-3,1.21-4.25,2.88-4.74,6.14-3.67,24.23-13.73,45.59-30.75,63.18a107.93,107.93,0,0,1-33.13,23.69c-31.94,14.8-63.91,15-95.92.22a112.67,112.67,0,0,1-30.31-20.83,111.36,111.36,0,0,1-20.36-26.36A5.38,5.38,0,0,1,147.88,276.09Z"/><path class="cls-13" d="M295.08,325.07c34.47-17.56,55.41-45.32,62.17-83.44.93-5.25,2-8.45,7.78-10.34,7.36-2.4,11.66-8.76,13-16.44,1.9-11.06,1.06-22.26.57-33.38-.29-6.57-3.86-11.87-8.74-16.23.88-1.47,2-.63,3-.3a72.17,72.17,0,0,0,21.89,3.16c.06,1,.16,2,.16,3q0,110.17,0,220.35c0,1.16-.11,2.32-.18,3.48-13.27-9.67-26.71-19.27-42.57-24.11-9.53-2.92-18.92-7.08-29.25-6.81-4.52-2.06-9.55-.13-14.13-1.8-3.68,2.31-7.69,1.48-11.58,1-3.13-.38-3.65-3-3.74-5.6-.2-5.46-.15-10.92,0-16.38C293.83,335.82,292,330.2,295.08,325.07Z"/><path class="cls-13" d="M147.88,276.09c10,17.77,23.13,32.53,40.61,43.22,3.37,2.07,6.92,3.85,10.38,5.76,3.07,5.11,1.23,10.71,1.61,16.09.15,5.3.25,10.59,0,15.88s-1.42,6.36-6.66,6.5c-2.91.07-6,.67-8.63-1.3-4.58,1.81-9.66-.46-14.19,1.77-7.51,2.19-14.86,5.38-23,4-1.43-1.11-1-2.71-1-4.15q0-42,0-84.07C147,278.53,146.73,277.13,147.88,276.09Z"/><path class="cls-7" d="M148.05,368c7.74-.92,15.06-4.18,23-4-1.27,5.16-5.07,8.86-7.75,13.17-5.22,8.39-9.86,17.18-16.24,24.8,0-9.56,0-19.13-.05-28.7C147,371.45,147,369.64,148.05,368Z"/><path class="cls-14" d="M147,461c-.35,2.66,1,5.52-1,8C146.44,466.34,145,463.48,147,461Z"/><path class="cls-15" d="M394,132.09c1.62,1.81.56,4,.73,5.95C393.59,136.17,394,134.1,394,132.09Z"/><path class="cls-15" d="M99.17,138c.17-2-.89-4.14.74-5.95C99.9,134.11,100.36,136.17,99.17,138Z"/><path class="cls-16" d="M350,475l2.13-4.66c3.76-2.72,7.54-5.42,11.29-8.15s7.34-2.72,11,.08c3.79,2.92,7.57,5.87,12.44,9.66C373.74,473,362,475,350,475Z"/><path class="cls-12" d="M185.23,362.24c4.4-.21,10.3,1.24,12.81-1.05,2.92-2.65.66-8.66.94-13.21.14-2.29.13-4.6.19-6.9,2.14-.74,3.88.51,5.71,1.2,14.62,5.46,29.58,8.91,45.34,8.38,13.48-.45,26.29-3.74,38.84-8.39,1.83-.67,3.57-1.93,5.71-1.19.06,5.6.29,11.2.12,16.79-.1,3.08.58,4.5,4,4.21a98.76,98.76,0,0,1,9.88.12,44.11,44.11,0,0,1,2.42,16.85c-6.81,11.74-17.63,18.54-29.91,22.79-27,9.38-53.58,8.2-78.95-5.85-8.69-4.81-15.65-11.49-19.5-20.93C183.16,370.7,183.5,366.34,185.23,362.24Z"/><path class="cls-17" d="M294.77,341.08q-47.81,22.17-95.6,0l-.3-16q48.1,22.2,96.21,0Q294.93,333.08,294.77,341.08Z"/><path class="cls-18" d="M247.06,224.06c6.82,0,13.63.07,20.45,0,3.08,0,3.72,1,2.71,3.89-1.17,3.4-3.75,5.55-6.34,7.47-10.35,7.69-28.84,5.86-37.59-3.51a14.42,14.42,0,0,1-2.26-3.21c-1.64-3.25-1-4.81,3.09-4.67C233.76,224.22,240.41,224.06,247.06,224.06Z"/><path class="cls-19" d="M247.65,282.07c-7.34,0-13.83-1.22-19.77-4.58-4.38-2.47-7.59-6-8.7-11-.58-2.64-.22-5.21,2.76-6.13s4.15,1,5.09,3.44c2.62,6.92,8.81,8.52,15.13,9.76,10.83,2.13,20-1.9,25.18-11,1-1.76,2.36-2.89,4.46-2.31a4,4,0,0,1,3.12,4.52c-.35,5.47-3.46,9.28-7.85,12.07C261,280.73,254.18,282,247.65,282.07Z"/><path class="cls-19" d="M199.62,140.14a72,72,0,0,1,15.15,1.76c2.55.56,4.58,1.88,4,4.72-.65,3-3.05,3.58-5.86,2.94-12.12-2.78-23.74-1.1-35,3.94a30.13,30.13,0,0,0-11.12,8.23c-1.76,2.13-3.94,3.39-6.4,1.14s-1.14-4.44.64-6.47C171.63,144.31,185.92,141.33,199.62,140.14Z"/><path class="cls-19" d="M291.92,148.16a43.15,43.15,0,0,0-10.87,1.4c-2.83.62-5.2.07-5.86-2.93s1.41-4.22,3.95-4.72c19.89-3.9,38-.85,53,13.78,2.07,2,4.35,4.38,1.35,7.16s-5,.27-7.08-1.83C317,151.23,304.75,148.88,291.92,148.16Z"/><path class="cls-19" d="M207,187.89a12,12,0,1,1-12.28-11.81A12.08,12.08,0,0,1,207,187.89Z"/><path class="cls-19" d="M299.17,176.08A12,12,0,1,1,287,188,12.08,12.08,0,0,1,299.17,176.08Z"/></g></g></svg>