<?xml version="1.0" encoding="utf-8"?>
<!-- Generator: Adobe Illustrator 26.0.0, SVG Export Plug-In . SVG Version: 6.00 Build 0)  -->
<svg version="1.1" id="Layer_1" xmlns="http://www.w3.org/2000/svg" xmlns:xlink="http://www.w3.org/1999/xlink" x="0px" y="0px"
	 viewBox="0 0 602.4 598.2" style="enable-background:new 0 0 602.4 598.2;" xml:space="preserve">
<style type="text/css">
	.st0{fill:#FFFFFF;}
	.st1{fill:#2E1A1A;}
	.st2{fill:#5198E3;}
	.st3{fill:#4A312C;}
	.st4{fill:#626EB1;}
	.st5{fill:#830792;}
	.st6{fill:#262A2E;}
	.st7{fill:#FEDAB3;}
	.st8{fill:#D5B796;}
	.st9{fill:#CAAE90;}
	.st10{fill:#CBAF90;}
	.st11{fill:#A89178;}
	.st12{fill:#A99278;}
	.st13{fill:#FEFEFE;}
	.st14{fill:#F8FBFD;}
	.st15{fill:#F0F6FC;}
	.st16{fill:#F3F8FC;}
	.st17{fill:#CBAE8F;}
	.st18{fill:#645646;}
	.st19{fill:#C8AC8E;}
	.st20{fill:#C8AC8D;}
	.st21{fill:#C9AD8E;}
	.st22{fill:#6A5B4B;}
	.st23{fill:#51463A;}
	.st24{fill:#C7AB8D;}
	.st25{fill:#5199E3;}
	.st26{fill:#539AE3;}
	.st27{fill:#539AE4;}
	.st28{fill:#569CE4;}
	.st29{fill:#569BE4;}
	.st30{fill:#5C9FE5;}
	.st31{fill:#589DE4;}
	.st32{fill:#5A9EE5;}
	.st33{fill:#675848;}
	.st34{fill:#675949;}
	.st35{fill:#676666;}
	.st36{fill:#4C4C4C;}
</style>
<g>
	<circle class="st0" cx="300.9" cy="339.7" r="246.5"/>
	<g id="Layer_2_00000063634029557184431960000014703600848336978057_">
		<g id="Layer_1-2">
			<path class="st1" d="M284.3,19.2h33c9,1.4,18.2,0.9,27,3.6c4.8,1.5,9.6,2.7,14.3,4.5c3.7,1.5,7.7,2.2,11.7,2.2
				c11.9-0.2,22.2,4.1,30.9,12c2.8,2.6,6.4,4.2,10.2,4.7c33.4,4.8,56.1,24.4,72.1,52.9c2.7,5.1,6.3,9.7,10.7,13.5
				c13.1,11.1,19.7,25.8,20.7,42.8c0.2,4.3,1.4,8.5,3.5,12.2c13.2,23,18.8,49.6,16,76c-0.7,7.3-2,14.5-4,21.6
				c-2,4.3-2.3,8.8-1.9,13.6c1.7,18.1-4.2,33.8-16.3,47.1c-2.9,3.2-5.4,6.7-7.4,10.6c-12.5,24.7-31.2,42.4-57.9,51
				c-7.8,2.6-15.9,3.7-24.1,3.3c-5.2-0.3-9.4,1.4-13.8,4.4c-16.7,11.5-34.7,15.6-54.4,8.3c-2.3-0.9-4.7-1.9-6.1-4.2
				c-0.3-0.8-0.4-1.6-0.2-2.4c0.9-2.5,3.2-3.2,5.3-4.1c5.1-2.1,10.2-4,15.3-6c23.4-9.1,37.3-26.2,42.5-50.7c3-14.5,4.2-29.3,5.8-44
				c0.3-2.5,0.4-5,2.2-7c9.3-6.9,12.5-16.2,11.9-27.5c-0.4-6-0.1-12,0-17.9c0.3-2.7-0.8-5.1-1.4-7.5c-0.3-1-0.2-2.1-0.4-3.1
				c2-10.3-5.1-13.9-12.7-17.1c-3.8-1.6-8.1-1.9-11.6-4.3c-10.4-12-16.5-26.4-22.4-40.9c-1.7-4-3.2-8-4.4-12.2
				c-0.9-3.2-2.8-4.1-5.9-3.8c-7.6,0.8-15.2,1.6-22.8,2.4c-24.4,2.4-48.8,2.1-73.3,1.5c-15.3-0.4-30.5-1.7-45.7-3.9
				c-3.8-0.6-5.6,0.6-6.9,4.3c-5.3,15.1-11,29.9-19.8,43.4c-2,3.3-4.3,6.4-6.9,9.1c-5.4,3.2-11.8,4.1-17.4,7.1
				c-5.1,2.8-7.6,6-6.9,11.7c0.1,0.8,0,1.7-0.1,2.5c-0.2,1.3-0.5,2.5-0.9,3.8c0.1,2.4-1.2,4.5-0.8,6.9c0.1,6,0.3,12,0,17.9
				c-0.7,11.3,2.5,20.7,11.8,27.5c1.9,2,1.9,4.5,2.2,7c1.9,16.8,3,33.7,7.5,50.2c5.7,20.9,18.8,35.1,38.4,43.5
				c5.6,2.4,11.4,4.5,17.2,6.7c2.3,0.9,4.8,1.6,5.9,4.2c0.2,0.8,0.2,1.6-0.1,2.4c-4.2,5.7-11,6.1-17,7c-15.8,2.4-30.4-1.7-43.6-10.6
				c-4.1-2.8-8-4.7-13.2-4.8c-30.8-0.3-55-13.5-72.9-38.4c-4.5-6.2-9-12.4-11.7-19.7c-0.8-1.7-1.9-3.2-3.3-4.4
				c-14.1-14.3-20-31.5-18.7-51.3c0.3-4-0.2-8-1.7-11.7c-8.3-31.8-5.3-62.4,8.9-91.9c1-2.1,2.1-4.2,3.4-6.1
				c2.3-3.2,3.1-6.8,3.3-10.8c1-18.8,8.3-34.5,23.5-46c3.1-2.3,4.9-5.3,6.6-8.6c11-21.6,26.9-38.3,49.1-48.6
				c7.1-3.3,14.7-5.6,22.4-6.6c4.8-0.5,9.3-2.4,12.9-5.6c8.1-7.5,18.7-11.5,29.6-11.3c4.2,0.1,8.3-0.7,12.2-2.2
				c12.4-4.8,25.7-7.4,39-7.6C283.5,19.7,284,19.5,284.3,19.2z"/>
			<path class="st2" d="M283.3,579c-8.8-1.3-17.7-2.4-26.4-4.1c-53.8-10.2-98.7-36.2-135.3-76.7c-1.4-1.6-2.6-3.4-3.9-5.1
				c-0.4-2.7,0.8-4.8,2.2-7c24.9-38.8,59.3-63,105.4-69.7c3.8-0.6,7.8-2.4,11.6,0.4c0.6,1,0.9,2.2,0.7,3.4
				c-1.4,12.6,4.7,21.7,13.9,29.3c7.9,6.6,17.1,10.1,26.9,12.6c20.2,5.3,39.9,3.7,59.3-3.5c7.4-2.8,14-7.1,19.6-12.6
				c6.9-6.8,11.2-14.9,10.1-25c-0.3-1.3-0.1-2.7,0.5-3.9c1.5-1.8,3.6-1.5,5.6-1.2c32.7,4.1,61.4,16.6,84.9,40.1
				c9.4,9.4,18.5,19.1,24.9,31c1,1.9,2.2,3.8,1.9,6.1c-6.3,9.1-14.4,16.6-22.5,23.9c-36.1,32.6-78.4,52.4-126.5,59.8
				c-5.5,0.9-11.2,0.6-16.6,2.2L283.3,579z"/>
			<path class="st3" d="M420.3,286.3c-1.6,4.8-1.5,9.8-2,14.7c-1.8,17-3.3,33.9-9.5,50.1c-7,18.2-20.5,29.6-38,37
				c-7.1,3-14.9,4.8-21.5,9c-4.4,4.1-10.3,5.3-15.4,7.9c-3.1,1.6-6.4,2.9-9.5,4.5c-15,7.5-30.1,7.3-45.2,0.3
				c-7-3.2-13.9-6.4-20.9-9.4c-1.9-0.7-3.6-1.8-4.9-3.3c-5.9-3.9-12.7-5.6-19.2-8c-26.6-10-41.1-29.5-45.8-57.1
				c-2.4-13.9-3.7-27.9-4.9-41.9c0-1.3-0.4-2.6-1.1-3.8c-0.8-2.9-1.1-5.9-1-8.9c0.3-13.3,1.4-26.5,2.3-39.8c0.3-1.4,0-3,1-4.2
				c1.5-1.3,2.4,0,3.2,0.9c2,2.1,3.1,4.8,3,7.7c-0.7,10.9,2.9,21.6,9.9,30c0.6,2,1,4,1.2,6.1c2.2,12.9,4.2,25.9,6.7,38.8
				c1,5.2,2.2,5.8,6.3,2.3c4.6-4,9-8.4,13.1-12.9c11.8-12.5,27.1-18.2,43.3-21.8c2.4-0.5,4.9-0.8,7.4-1c6.1-0.9,12.3-0.3,18.1,1.7
				c2.8,1.1,5.9,1.1,8.7,0c5.8-2,12-2.6,18.1-1.7c14.3,1.5,27.4,6.3,39.8,13.5c6,3.5,10.2,8.9,15.2,13.6c2.9,2.8,5.5,5.8,8.6,8.4
				c4.3,3.6,5.7,3.2,6.7-2.2c2-10.6,3.9-21.3,5.5-32c0.4-3,1.1-5.9,1.5-8.8c0.5-2.1,0.8-4.2,1.1-6.3c0.6-1.5,1.5-3,2.5-4.3
				c4.8-6.3,7.2-14.1,6.9-21.9c-0.1-2.6-0.4-5.4,1-7.8c1.1-1.9,2.6-3.5,5.2-2.4c1.1,1.2,0.9,2.8,1.4,4.2c0.6,13.4,2,26.7,2.2,40
				C421.4,280.4,421,283.4,420.3,286.3z"/>
			<path class="st4" d="M236,417.3c-21.5,1.4-42.4,7.5-61.3,17.9c-15.3,8.3-27.5,20.1-39.2,32.5c-7.2,7.6-12.6,16.5-17.9,25.5
				c-23.8-27.9-40.6-61.1-49.2-96.7C58,354.1,59.2,311.8,71.6,270c0.5-1.7,1.2-3.4,1.9-5.1c2,4.4,2,9.1,1.8,13.9
				c-0.9,19.4,5.3,36,19.7,49.4c1.6,1.5,1.9,3.4,2.7,5.2c4.4,10,10.8,19,17.8,27.1c6.8,8,15.1,14.4,24.6,18.8
				c7.7,3.8,15.8,6.7,24.1,8.8c5.6,1.4,11.4,1.8,17.1,1.2c4.8-0.6,8.4,1.3,11.7,3.9c13.3,10.1,28.5,13.6,44.6,11.7
				c5.2-0.6,10.9-2.2,15.5-5.7c3.9,5.4,2.3,11.3,1.2,17c-0.4,1.3-1.6,2.3-2.9,2.4C246.2,419.1,240.9,420.3,236,417.3z"/>
			<path class="st5" d="M485,493c-8.7-16.9-21.4-30.7-35.4-43c-17.6-15.4-38.4-25.1-61.3-30c-6.6-1.4-13.1-2.7-19.9-2.9
				c-5.6,3.4-11.5,1.9-17.4,1.2c-1-0.2-1.8-0.8-2.4-1.7c-2.3-3.2-1.6-14,1.1-17.4c10.2,6.1,21.6,7.2,32.7,5.5
				c10.6-1.4,20.6-6,28.6-13.2c1.9-1.8,4.5-2.8,7.1-2.6c7.8,0.2,15.5,0.4,23.2-1.7c16.2-4.4,30.4-11.9,42.3-23.9
				c8.8-8.9,16-19.2,21.2-30.6c1.1-2.4,2.7-4.6,4.6-6.4c12.7-12.8,19-28.2,17.6-46.2c-0.4-5.1-0.7-9.8,1.8-14.3
				c3.8,6.7,4.7,14.3,6.5,21.6c4,16.6,5.9,33.6,5.7,50.6c-0.1,34.5-6.8,67.8-21.2,99.4C510.7,457.5,499,476.1,485,493z"/>
			<path class="st6" d="M417.2,233.1c-3.5,1.9-4.4,4.9-4,8.6c1.1,11.1-3,20.3-10,28.5c-2.3,5.3-6.9,8-11.7,10.2
				c-16.8,7.7-34.3,8.4-52,3.6c-11-3-18.8-10.1-23.8-20.4c-0.6-1.2-1.5-2.2-2.2-3.3c-2.2-6.6-2.4-13.5-2.2-20.4
				c0.9-3.1-0.4-4.5-3.4-5.2c-4.6-1.1-9.1-1.4-13.7,0c-2.7,0.8-4,2.2-3.2,5c0.2,5.1,0.2,10.1-1.3,15c-8,21.4-24.8,30.3-46.4,31.9
				c-10.8,0.8-21.7,0.5-31.9-4c-4.6-2-9.8-3.7-11.3-9.5c-7.6-7-10.7-15.9-10.8-25.8c-0.1-5.2-0.1-10.2-4.2-14.1
				c-0.6,0.5-1.4,0.8-2.2,0.8c-1.6-0.3-3.3-0.4-4.9-0.4c-2.9,0.4-5.7-1.4-6.6-4.2c0-2.3,0-4.7-0.2-7c-0.3-3.9,1.7-5.8,5-7.6
				c6.4-3.6,13.2-6.2,20.4-7.9c2.4-2.3,5.4-2.9,8.6-3.3c16.6-3.2,33.3-2.9,50.1-2c1.8,0.1,3.6,0.4,5.4,0.6c3.4,0.6,6.9,0.4,10.2,1.4
				c6.2,1.1,12.2,3.1,17.9,5.9c7.4,3.7,16,3.9,23.6,0.6c6-2.5,12-4.9,18.5-5.7c3.5-1.3,7.3-1.4,10.9-2.1c15.9-1.9,31.8-1.3,47.7-0.1
				c2.7,0.2,5.2,1.1,7.8,1.5c3.2,0.1,6.2,1.3,8.6,3.3c7.8,1.4,14.8,4.8,21.7,8.5c2.5,1.2,4,3.8,3.6,6.6c-0.2,2.5-0.1,5-0.2,7.5
				c-1.3,3.1-3.7,4.4-7.1,4.1c-1.8-0.1-3.6,0-5.4,0.2C418.1,233.7,417.6,233.5,417.2,233.1z"/>
			<path class="st7" d="M349.7,399.2c-0.8,5.4-2.1,11.9,0.2,16c2.5,4.5,9.5,1,14.5,1.8c1.3,0.1,2.7,0.2,4,0.1
				c3.7,17-5.5,27.9-18,36.8c-25.3,18-73.7,17.1-98.3-1.7c-11.6-8.8-18.8-19.6-15.9-35c4.6,0,9.2-0.2,13.9-0.1
				c2.4,0,3.7-0.5,3.5-3.3c-0.2-4.9-0.2-9.9-0.3-14.9c0-0.6,0.1-1.3,0.2-2c10,2.3,18.5,7.8,27.8,11.7c13.8,5.8,27.5,6.3,41.2-0.4
				c8.8-4.2,17.2-9.1,26.9-11.3L349.7,399.2z"/>
			<path class="st8" d="M406,207l-7.7-1.8c-2.3-1.7-4.1-3.9-5.3-6.5c-5.3-10.2-9.8-20.8-13.5-31.6c-2.2-6.6-2.3-6.9-9-6
				c-27.4,3.3-55,4.6-82.6,4c-18.8-0.3-37.5-1.7-56.1-4.4c-4.7-0.7-6.7,0.8-8,5c-3.6,11.4-8.3,22.5-13.9,33.1
				c-1.2,2.6-3,4.8-5.3,6.5l-7.6,1.8c11.5-17.4,21-35.8,26.6-56c0.6-2.2,1.7-3,3.9-2.6c28.9,4.4,57.9,5.3,87.1,4.9
				c20.3-0.3,40.5-2.1,60.7-4.5c2.2-0.3,3.6-0.5,4.4,2.2C385.3,171,394.3,189.8,406,207z"/>
			<path class="st7" d="M420.3,286.3c-0.3-0.4-0.9-0.7-0.9-1.1c0.2-16.1-2-32.1-2-48.1c4-4.2,11.5-3.2,15.7,2c0,8.6,0.4,17.2,0,25.7
				C433.1,273.8,428.2,282,420.3,286.3z"/>
			<path class="st7" d="M185.2,237.2c0,16.1-2.2,32-2,48.1c0,0.4-0.6,0.7-0.9,1.1c-9.3-5.5-13.1-13.9-13-24.4
				c0.1-7.6,0.1-15.2,0.2-22.8C173.6,234,180.7,233.1,185.2,237.2z"/>
			<path class="st9" d="M185.2,237.2c-5.6-2.3-10.7-0.6-15.7,2l1.1-6.9c4.2,1.6,8.6,1,12.9,0.8l1.7,0.2
				C185.2,234.5,185.2,235.9,185.2,237.2z"/>
			<path class="st10" d="M433.1,239.2c-5-2.4-10.1-4.5-15.7-2l-0.2-4c0.3-0.1,0.6-0.1,0.9-0.1c0.7-0.4,1.6-0.6,2.4-0.3
				c3.6,1.3,7.7,1.1,11.1-0.8C432.8,234.2,432.8,236.7,433.1,239.2z"/>
			<path class="st11" d="M183.6,233c-1,0.2-2.1,0.1-2.9,0.7c-3.9,2.8-7,1.2-10-1.4l0.9-2.8C174.8,233,179.7,231.3,183.6,233z"/>
			<path class="st12" d="M431.6,231.9c-2.5,3.2-5.4,4.4-9.3,2c-1.1-0.7-2.8-0.6-4.2-0.9c4.2-1.8,9.4,0.2,13-3.5L431.6,231.9z"/>
			<path class="st13" d="M301.4,503.2c16.7-3.8,23.8,7.9,31.1,19.1c1.3,1.9,0.6,3.5-0.7,5c-10.3,10.8-20.2,22-31.1,32.3
				c-1.4,1.4-2.4,0.6-3.4-0.1c-2.5-1.6-4.7-3.7-6.5-6.2c-6.4-8.9-13.6-17.3-21.5-24.9c-2.2-2.2-5.8-4.5-4.7-8.4
				c1.8-6.5,3.4-13.4,11.6-15.1C284.5,503.2,293.2,504.1,301.4,503.2z"/>
			<path class="st14" d="M329.6,506c2.4-8.9,8.6-13.8,16.9-16.7C343.4,497.5,336.1,501.4,329.6,506z"/>
			<path class="st15" d="M295.3,495.4c-2.4-5.2-2.7-10.5-1-16.9C298.7,484.6,297.2,490,295.3,495.4z"/>
			<path class="st16" d="M250.4,494.1c4.9-0.1,8.7,1.2,11.2,5.1c0.4,0.6,0.9,1.7,0.6,2.2c-0.6,1.1-1.7,0.6-2.6,0.2
				C256,500,252.6,498.1,250.4,494.1z"/>
			<path class="st7" d="M288.1,254.9c1.2-5.2,1.2-10.5,1.2-15.8c5.1-6.6,18.9-6.6,23.9,0c0.2,7.1,0,14.2,2.1,21.1
				c1.7,5.5,4.6,10.6,8.5,14.9c1.1,1.2,2.4,2.4,1.6,4.4c-0.4,0.4-0.8,0.7-1.3,0.9c-6.2,1.4-12.5,0.5-18.8,0.7
				c-6.4,0.1-12.9,0.2-19.3,0c-3.5-0.1-6.1,0.8-7.6,4.1c-7.4,1.5-14.9,2.7-22.1,5.3c-14.6,5.3-26.2,14.8-36.2,26.3
				c-2.3,2.6-4.9,5-7.7,6.9c-2.3,1.5-4.3,0.9-4.8-2c-2.4-14.5-4.7-29-7-43.5c2-0.8,3.6,0.3,5,1.4c14.5,11.2,51.3,10.7,68.2-2.8
				C280.9,271.1,286.4,264.2,288.1,254.9z"/>
			<path class="st7" d="M287.3,346.1c-4.3,1.9-7.5,5.4-11.3,8c-6,4.2-9.9,3.4-14.2-2.6c-7.1-10-2.7-27.2,5.1-34.3
				c2.7-2.4,6.1-3.1,9.7-3.2c8.4-0.2,17,1.5,25-2.3c0.6-0.2,1.3-0.1,1.9,0.2c6.3,3,13,2.8,19.6,2.1c16.3-1.7,21.4,9.5,23.2,22.3
				c0.9,5.5-0.5,11.1-3.7,15.6c-3.8,5.5-8,6.2-13.5,2.5c-4-2.7-7.3-6.3-11.7-8.3c0.4-3.2,3.1-2.4,5-2.6c5.3-0.6,5.6-1.1,4-6.2
				c-3.3-10.7-13.8-18.5-24.8-18.4c-11.7-0.1-22.1,7.6-25.5,18.9c-1.4,4.8-0.9,5.3,4.2,5.8C282.8,343.7,286.2,342,287.3,346.1z"/>
			<path class="st7" d="M402.4,276.2c-1.5,13.6-4.1,27.1-6.5,40.6c-0.1,0.3-0.2,0.7-0.3,1c-0.7,2.2,0.7,5.7-2.4,6.4s-5.1-2-7.1-3.9
				c-4.1-3.9-7.8-8.1-11.8-12.1c-12.7-12.8-28.4-19.6-46.1-22.1c-1.3-0.3-2.6-0.6-3.8-1c-1.6-2.3-0.7-4.2,1-6l0,0c2-1,3.5,0.2,5.1,1
				c22.2,11.1,44.1,9.8,65.5-2.1c1.5-0.8,2.7-2,4.1-2.7C401,274.8,402.4,274.1,402.4,276.2z"/>
			<path class="st7" d="M287.3,346.1c-3.5-2.2-7.3-0.6-11-0.9c-2.4-0.2-3.1-0.8-2.9-3.2c0.9-13.3,13.7-24.8,28-24.9
				c14.1-0.1,27,11.5,27.9,24.9c0.2,2.4-0.5,3.1-2.9,3.2c-3,0.2-6.2-1.3-9,0.9C307.3,338.9,297.3,338.9,287.3,346.1z"/>
			<path class="st17" d="M402.4,276.2c-0.9-0.8-1.5-0.1-2.1,0.4c-14.6,12.3-31.9,13.5-49.8,12.1c-9.4-0.7-17.6-4.4-25.2-9.6
				c-4.4-5.8-9.5-11.1-10-18.9c3.7,6.2,7,12.5,13.3,16.8c12.8,8.8,27.2,8.7,41.6,7.6c12.3-0.8,24-5.9,33-14.4
				C403.1,272.3,403.8,274.4,402.4,276.2z"/>
			<path class="st17" d="M288.1,254.9c-0.6,10.7-6.8,18.2-14.8,24.1c-13.9,10.2-30.1,11.1-46.5,9.8c-9.6-0.8-18.8-4.5-26.4-10.5
				c0.2-1.7-1.6-3.3-0.2-5c7,7.1,15.6,10.3,25.3,11.3c13.6,1.4,26.9,0.9,39.6-4.7C276.4,274.8,283.9,266.3,288.1,254.9z"/>
			<path class="st8" d="M325.3,279.1c-0.3,2-0.7,4-1,6c-7.5-0.1-15-0.2-21.8,3.6c-0.7,0.4-1.6,0.4-2.4,0c-6.9-3.6-14.3-3.7-21.8-3.5
				c-1.4-6-1.4-6,4.8-6L325.3,279.1z"/>
			<path class="st7" d="M204.4,205.2c7.4-14.3,14.4-28.8,18.9-44.4c0.8-2.9,3-2.9,5.1-2.6c29.6,4.7,59.5,5.5,89.3,4.8
				c16.4-0.4,32.8-1.2,49-3.7c2.9-0.5,5.9-0.2,8.9-1s3.5,1.8,4.1,3.9c3.9,12.5,9,24.7,15.1,36.3c1.1,2.2,2.2,4.4,3.3,6.6
				c-18.9-2.4-38-2.7-57-1.1c-4.3-1.7-7-5.3-9.7-9.1c-2,3.8,2.6,7.5-0.5,10.9c-6.2,1.2-12.3,3.1-18,5.8c-8,3.6-16,3.8-24-0.3
				c-5.7-2.9-11.7-4.6-17.8-6.4c-2.1-3.2,1.4-6.4-0.2-10.1c-2.8,3.7-5.4,7.4-9.8,9C242.3,202.2,223.3,203,204.4,205.2z"/>
			<path class="st7" d="M280.3,234.1c4.3,21.3-4.6,35.7-25.6,41c-11.5,2.8-23.5,2.9-35,0.3c-12.7-2.6-20-10.7-21.8-23.4
				c-1-6-0.9-12.2,0.2-18.2c2.8-7.2,6.9-13,15.7-13c12,4.6,24,6.6,36.4,1.7c2.9-1.1,5.4-3.3,8.7-3.7c3.6,0.3,7.2,1.1,10.6,2.4
				C275.3,223.8,278.7,228.2,280.3,234.1z"/>
			<path class="st7" d="M404.2,234.1c4.3,21.3-4.6,35.7-25.6,41c-11.5,2.8-23.5,2.9-35,0.3c-12.7-2.7-20-10.7-21.8-23.4
				c-1-6-0.9-12.2,0.2-18.2c2.3-6.7,6.5-11.5,13.6-13.4c2.2-0.6,4.5-1.3,6.6,0.2c0.8,3.8-2.7,5-4.6,6.9c-6.4,6.7-8.1,14.3-5.1,22.9
				c3.9,11.2,16,17.3,27.4,13.7c11.5-3.6,18.1-15.6,14.9-27.2c-0.9-3.5-3.9-6.2-3.6-10.1c1.1-1.2,2.7-1.4,4.1-2
				c4.7-0.8,9.4-2.2,13.9-4C396.9,221.4,401.3,225.2,404.2,234.1z"/>
			<path class="st18" d="M259.2,220c-14.9,9.4-30.2,9.4-45.8,2.1c-0.3-2.6,1.6-3.1,3.4-3.1c9,0.2,17.6-2.3,26.3-3.8
				c6.2-0.4,12.4,0.3,18.3,2C261.8,219.1,260.6,219.6,259.2,220z"/>
			<path class="st19" d="M404.2,234.1c-3.2-6.2-7.5-11.1-15-12c-7.8,0.9-15.7,0.1-23.2-2.3c-2.3-1.5-6.2-0.5-6.6-4.6
				c9.4-0.1,18.9-0.3,28.1,2C398,219.8,403.4,225.2,404.2,234.1z"/>
			<path class="st20" d="M243.2,215.2c-8.1,4.1-17.2,6-26.2,5.2c-1.6-0.1-3-0.3-3.6,1.6c-7.6,0.7-11.6,6.1-15.4,11.8
				c1.1-8.7,6.5-13.4,14.5-15.9C222.5,214.9,232.8,214.9,243.2,215.2z"/>
			<path class="st21" d="M313.2,239.2c-7.9-4-15.9-4.5-23.9,0c-0.9-3,0.3-4.7,3.1-5.7c6.3-2.2,12.4-1.5,18.5,0.5
				C314,234.9,313.4,237,313.2,239.2z"/>
			<path class="st22" d="M331.1,206c-0.6-3-1.3-6.1-1.8-9.1c-0.4-2.1,0.2-4.2,1.6-5.8c2.9,4.8,6.4,9.1,10.4,13L331.1,206z"/>
			<path class="st23" d="M359.4,215.2c1.8,2.1,4.5,2.1,6.8,3.1c-1.4,4-5,1.5-7.4,2.5c-4.2,0.4-8.6-0.3-12.8,1.2
				c-0.8,0.2-1.6,0.1-2.3-0.2c-1.2-1.3-2.9-2.2-2.4-4.4C347,214.5,353.3,215.2,359.4,215.2z"/>
			<path class="st22" d="M261.3,204.1c3.8-3.9,7.5-7.9,10.4-13.2c3.2,5.4,0.6,9.8-0.4,14.2L261.3,204.1z"/>
			<path class="st24" d="M341.3,217.4c0.5,1.3,2.4,1.8,2.2,3.6c-0.2,0.3-0.6,0.5-1,0.3c0,0,0,0,0,0c-9.5-0.1-15.8,5-20.5,12.7
				C323.9,223.7,331,217.6,341.3,217.4z"/>
			<path class="st19" d="M259.2,220l2.3-2.7c10.9,0.8,17.9,7.1,18.8,16.9C276.4,224.7,267.9,222.2,259.2,220z"/>
			<path class="st25" d="M299.1,551.3c-4.1-9.2-7.8-17.5-11.7-26.3c6,0,11.5,0.1,17,0c2.4,0,2.3,1.2,1.8,2.8
				C303.9,535.4,301.6,543,299.1,551.3z"/>
			<path class="st26" d="M327.1,525.6L306.2,548c0.3-7.3,2-14.5,5-21.1c0.7-1.7,2.1-2,3.7-1.9L327.1,525.6z"/>
			<path class="st27" d="M287.8,520c0-0.7-0.1-0.9,0-1c8.4-10.9,9.3-10.8,17.3,1.5C299.2,521.3,293.6,520.4,287.8,520z"/>
			<path class="st28" d="M291,545.7c-6.4-7.4-12-14.7-19.1-21c7.9-1.3,9.8-0.5,12.9,6c2.2,4.5,4.3,8.9,6.4,13.4
				C291.2,544.3,291.1,544.7,291,545.7z"/>
			<path class="st29" d="M325.4,520.1c-1.6,1.3-2.8,0.8-3.9,0.8c-9.3-0.2-10.1-1.2-7.4-10.3c0.9-2.9,2.2-1.2,3.1-0.2
				C320,513.5,322.6,516.7,325.4,520.1z"/>
			<path class="st30" d="M290.2,508.4c-2,3.6-4.9,5.9-6.3,9.4c-2.3-2.7-4.5-5.1-6.9-7.9C281.3,508.4,285.7,507.9,290.2,508.4z"/>
			<path class="st31" d="M301.3,507.4l10.6,0.8l-3.6,9.8L301.3,507.4z"/>
			<path class="st32" d="M269.4,519c0.6-1.2,1.1-2.2,1.7-3.2c1.2-2.1,2-5.4,4.6-5.1c2,0.2,1.4,3.6,2.2,5.5c1.4,3-0.1,3.8-2.9,3.5
				C273.2,519.4,271.4,519.2,269.4,519z"/>
			<path class="st33" d="M265.3,251.1c-0.2,0.4-0.3,1.2-0.8,1.5c-1.3,0.9-2.1-0.4-3-1c-9.4-6.4-19.4-7.3-29.9-3.5
				c-2.1,0.9-4.2,2-6.1,3.2c-1.1,0.6-2.1,2.2-3.4,0.9c-1.6-1.4-0.1-2.8,0.6-3.9c7.8-13.1,27.7-15,38.5-3.7
				C263,246.5,264.4,248.7,265.3,251.1z"/>
			<path class="st13" d="M342.4,221.2l1.1-0.2l1.8,0.1c1.8-0.1,3.6,0.2,5.3,0.8c5,2.3,10.3,3.5,15.8,3.6c1.7,0.1,3.7-0.1,4.9,1.8
				c7.3,8.9,8.1,21.4,1.9,29.5c-7.9,10.1-19.4,13.5-30.5,7.8c-15-7.6-17.4-26.2-7.2-37C337.5,225.2,340.1,223.3,342.4,221.2z"/>
			<path class="st34" d="M358.3,219.2c2.6-0.4,5.4,0.8,7.9-0.9c6.8,1.2,13.4,3.6,20.5,2.1c1.3-0.3,2.2,0.5,2.6,1.7
				c-4.2,2.4-8.8,3.9-13.6,4.2C368.4,227.4,362.8,224.5,358.3,219.2z"/>
			<path class="st35" d="M358.3,219.2c6.2,1.3,10.2,7.9,17.3,7.1l-4.3,1c-9.2,0.3-18.1-0.9-26-6.3
				C349.3,218.3,353.9,219.3,358.3,219.2z"/>
			<path class="st36" d="M365.3,243.1c0,6.6-5.3,12-11.9,12.1c-6.6,0-12-5.3-12.1-11.9c0-6.6,5.2-12,11.8-12.1
				c6.6-0.1,12.1,5.2,12.2,11.8C365.3,243,365.3,243,365.3,243.1z"/>
			<path class="st0" d="M318.9,328.9l-3.1,0.5c-9.5,1.5-19.2,1.4-28.7-0.3l-1.3-0.2"/>
			<path d="M302.1,334.5c-5.3,0-10.6-0.5-15.8-1.4l-1.3-0.2c-2.2-0.4-3.6-2.5-3.2-4.7c0.4-2.1,2.4-3.5,4.5-3.2l1.3,0.2
				c9.1,1.6,18.3,1.7,27.5,0.2l3.1-0.5c2.2-0.2,4.2,1.3,4.4,3.5c0.2,2.1-1.2,4-3.2,4.4l-3.1,0.5
				C311.6,334.1,306.9,334.5,302.1,334.5z"/>
		</g>
	</g>
</g>
</svg>
