<svg xmlns="http://www.w3.org/2000/svg" viewBox="0 0 492.94 524.2"><defs><style>.cls-1{fill:#fff;}.cls-2{fill:#262e33;}.cls-3{fill:#394f5c;}.cls-4{fill:#2c3b43;}.cls-5{fill:#3c4f5c;}.cls-6{fill:#06b243;}.cls-7{fill:#3a4c5a;}.cls-8{fill:#2f4351;}.cls-9{fill:#3a5166;}.cls-10{fill:#395167;}.cls-11{fill:#385067;}.cls-12{fill:#9da6ad;}.cls-13{fill:#262a2e;}.cls-14{fill:#33444f;}.cls-15{fill:#303f4a;}.cls-16{fill:#dbdcdd;}.cls-17{fill:#3b536a;}.cls-18{fill:#487ba1;}.cls-19{fill:#3e5c76;}.cls-20{fill:#3b546c;}.cls-21{fill:#497fa6;}.cls-22{fill:#5090bc;}.cls-23{fill:#55a0cf;}.cls-24{fill:#436b8c;}.cls-25{fill:#3b536b;}.cls-26{fill:#3b546a;}.cls-27{fill:#ecb889;}.cls-28{fill:#bd936e;}.cls-29{fill:#4d3c2d;}.cls-30{fill:#4e3d2d;}.cls-31{fill:#bc936e;}.cls-32{fill:#ba916d;}.cls-33{fill:#b78f6b;}.cls-34{fill:#ba926d;}.cls-35{fill:#bb926d;}.cls-36{fill:#624c39;}.cls-37{fill:#614c38;}.cls-38{fill:#c69a74;}.cls-39{fill:#5f4a37;}</style></defs><g id="Layer_2" data-name="Layer 2"><g id="Layer_1-2" data-name="Layer 1"><circle class="cls-1" cx="246.47" cy="277.73" r="246.47"/><path class="cls-2" d="M299.44,511.56a186.93,186.93,0,0,1-30.55,5.16c-1.16.11-2.71-.77-3.42,1h-6c-1.73-1.89-4-.63-6-1-1.7.19-3.61-.69-5,1h-4c-1.42-1.66-3.33-.78-5-1-2.31.4-4.88-1-7,1h-7c-5.43-2.47-11.43-1.6-17.07-3-4.93-1.2-9.94-2.12-14.91-3.16-.67-2.29-1.35-4.58-2-6.87l-.06-6c-.64-6.74-1.32-13.48-1.89-20.23-.09-1.07-.56-2.53.66-3.19s2,.79,2.87,1.42c12,8.5,25,14.94,39.51,18.22,6.94,1.57,14,2.43,21,3.66l10.9,0h6.08l11.91,0,19.05-2C302.65,501.88,300.18,506.6,299.44,511.56Z"/><path class="cls-3" d="M232.47,517.71c2.09-2,4.66-.57,7-1,0,.32,0,.65,0,1Z"/><path class="cls-3" d="M253.5,516.74c2,.34,4.24-.92,6,1h-6C253.47,517.39,253.48,517.06,253.5,516.74Z"/><path class="cls-4" d="M239.47,517.71c0-.32,0-.65,0-1,1.7.19,3.61-.69,5,1Z"/><path class="cls-4" d="M253.5,516.74c0,.32,0,.65,0,1h-5C249.89,516.05,251.8,516.93,253.5,516.74Z"/><path class="cls-5" d="M191.47,504.71c.67,2.29,1.35,4.58,2,6.87-21.39-4-41.33-12.06-60.42-22.25a238.23,238.23,0,0,1-67.45-53.74,37.21,37.21,0,0,1-2.49-3.65c4.64-8.23,9.6-16.22,15.84-23.37,3.72-4.26,7.49-8.57,4.62-14.91,1.73-2.53.58-5.33.76-8l.05-6c-.45-10.49,1.64-20.76,3.36-31,3.95-23.39,9.59-46.44,15.44-69.43,4.83-19,7.89-38,7.45-57.79-.66-29.6-.1-59.23-.06-88.85a6.44,6.44,0,0,0,0-6.91c-.57-1.9.74-3.49.88-5.29C112.7,105,117.16,90.52,124,76.67c.78-1.59,2.69-3,1.42-5.26,4.79-5.11,7.86-11.46,12.08-17C161,23.45,192,4.73,230.67.87c56-5.6,99.81,15.91,131.07,62.79,1.83,2.75,3.77,5.43,5.65,8.13a18.48,18.48,0,0,0,1.05,3.78C379.16,96.08,382.75,118,382.55,141c-.27,29.64-1.22,59.33,3.92,88.74,1.07,6.14.55,13.14,4.83,17.89a31.06,31.06,0,0,1,8.05,18.12c-1.61,1.44-.62,3.29-.78,5,1,3.44-.06,6.78-.68,10.08-1.82,9.84-6.51,19-7.54,29a3.54,3.54,0,0,0,0,4.88c.75,5,3,9.29,5.91,13.43,4.54,6.53,10.52,11.82,15.24,18.17,4.33,5.81,8.81,11.57,9,19.32.27,2-.83,4.26.83,6.11-1.18,7.57-1.65,15.21-3.49,22.74-1.22,5-4.16,9.75-3.3,15.23-2.22,1.06-2.59,3.25-3.3,5.28-2,5.81-5,11.14-7.95,16.53-6,11-14.16,20.29-22.83,29.2a72.59,72.59,0,0,0-6,4.83c-1.71,1.67.69.92,1,1.42-1.37,1.29-3.37.82-4.94,2-8.9,6.92-18.81,12.14-29.06,16.75-3.91,1.35-7.83,2.68-11.73,4.07-9.18,3.28-18.82,4.72-28.27,6.88l-19.05,2a16.37,16.37,0,0,0-11.91,0h-6.08a13.81,13.81,0,0,0-10.9,0c-7-1.23-14-2.09-21-3.66-14.51-3.28-27.46-9.72-39.51-18.22-.89-.63-1.53-2.14-2.87-1.42s-.75,2.12-.66,3.19c.57,6.75,1.25,13.49,1.89,20.23A4.58,4.58,0,0,0,191.47,504.71Zm-75-338c.34,6.38,1.81,8,7.84,8a11.79,11.79,0,0,1,10.08,5.05l.06,12c0,4-.15,8,0,12,.66,17.06-1.54,34.19,1.88,51.2,5.82,28.91,20.71,52,44.57,68.93,20.37,14.44,43.38,20.61,68.52,20.07A112.07,112.07,0,0,0,308.7,326C328.3,313.5,342.28,296,351,274.45c4.16-10.32,7-21.19,7.35-32.32.5-17.47.12-35,.12-52.45q0-6.48,0-13c3.35-.72,6.47-2.22,10.08-2.09,6,.2,7.51-1.54,7.86-8,.33-6,1.15-12.21-6.94-14,1.44-1.35.9-3.13.89-4.72,0-16.08-2-31.85-8-46.89C347.29,63.58,320.31,38.72,281.86,27c-26.7-8.17-53.54-7-79.75,3-29.39,11.25-51.3,31-66.05,58.73-8.5,16-12.47,33.24-13.4,51.21-.22,4.22-1,8.58.79,12.71-5.46,1.44-7.93,4.83-7,10.55A23.72,23.72,0,0,1,116.51,166.68Zm261.36,211.1c-13.05,27.78-36.69,41.41-63,51.11s-53.47,13.91-81.46,1.9c1.48,4.82,3.3,8.66,6.39,11.65a50.51,50.51,0,0,0,31.7,14.09c18.69,1.49,37.1-.36,54.67-7.82,18.53-7.87,35.13-18.29,46.23-35.56C379.17,402.59,383.59,391.22,377.87,377.78Zm-114,20c7,.45,13.87-.88,20.76-2,22.7-3.51,43.87-10.6,61.2-26.39a29.35,29.35,0,0,0,9.56-19.17c.1-1,.56-2.58-1-3-1.13-.3-1.51,1-2.12,1.73-4.89,6.09-11.35,10.2-18.1,13.8C317.21,371.86,299,377,280,380c-12.78,2-25.52,2.06-38.26,1.54a69.24,69.24,0,0,1-28.76-7.1c-.93-.47-1.74-2.13-2.94-.95s-.31,2.48.24,3.71c2.57,5.79,7.32,9.33,12.66,12.25C235.7,396.42,249.74,397.42,263.9,397.73ZM85.2,405.8h-.46v8.83h.46Zm.81,19c.55-2.87.68-4.48-.07-6.57C85.27,420.35,85.36,421.91,86,424.84Zm.94,2.45c-.59,1.53-.72,2.55,0,3.58C87.69,429.83,87.6,428.82,87,427.29ZM88,437a3.37,3.37,0,0,0-.28-3.72C87.55,434.6,87.18,435.59,88,437Z"/><path class="cls-6" d="M125.37,71.41c1.27,2.21-.64,3.67-1.42,5.26-6.79,13.85-11.25,28.35-12.47,43.78-.14,1.8-1.45,3.39-.88,5.29,0,2.3,0,4.61,0,6.91,0,29.62-.6,59.25.06,88.85.44,19.77-2.62,38.82-7.45,57.79-5.85,23-11.49,46-15.44,69.43C86,358.93,84,369.2,84.4,379.69c-1.76,1.81-.67,4-.77,6q0,4,0,8c2.87,6.34-.9,10.65-4.62,14.91-6.24,7.15-11.2,15.14-15.84,23.37-13.71-15.59-24.59-33.08-33.45-51.75a228.69,228.69,0,0,1-18.76-58.12,262.62,262.62,0,0,1-3.71-31,238.92,238.92,0,0,1,57-168.91,242.07,242.07,0,0,1,57.13-48.93A32.39,32.39,0,0,1,125.37,71.41Z"/><path class="cls-6" d="M414.56,409.67c-.86-5.48,2.08-10.22,3.3-15.23,1.84-7.53,2.31-15.17,3.49-22.74-.14-2.06.93-4.27-.83-6.11-.21-7.75-4.69-13.51-9-19.32-4.72-6.35-10.7-11.64-15.24-18.17-2.88-4.14-5.16-8.42-5.91-13.43v-4.88c1-10.07,5.72-19.18,7.54-29,.62-3.3,1.67-6.64.68-10.08,1.66-1.43.65-3.29.78-5a31.06,31.06,0,0,0-8.05-18.12c-4.28-4.75-3.76-11.75-4.83-17.89-5.14-29.41-4.19-59.1-3.92-88.74.2-22.94-3.39-44.9-14.11-65.41a18.48,18.48,0,0,1-1.05-3.78c5.9,1,10.21,5.06,14.8,8.25a239.58,239.58,0,0,1,100.6,157.64,229.33,229.33,0,0,1,3.48,38.05,240.35,240.35,0,0,1-17.33,91.38,248.89,248.89,0,0,1-37.37,63.1,19.34,19.34,0,0,1-1.78,1.72C425,424.31,420.48,416.51,414.56,409.67Z"/><path class="cls-7" d="M414.56,409.67c5.92,6.84,10.45,14.64,15.23,22.26-5.83,8.79-13.63,15.79-21.28,22.86A241.84,241.84,0,0,1,339.83,499a15.87,15.87,0,0,1-2.36.66c1.18-4.7,5-8.64,4-14,10.25-4.61,20.16-9.83,29.06-16.75,1.57-1.21,3.57-.74,4.94-2,3.24-.63,6.69-.21,10-1.77l-5-4.48c8.67-8.91,16.86-18.15,22.83-29.2,2.92-5.39,5.93-10.72,7.95-16.53C412,412.92,412.34,410.73,414.56,409.67Z"/><path class="cls-8" d="M341.47,485.71c1,5.33-2.82,9.27-4,14a167.39,167.39,0,0,1-38,11.88c.74-5,3.21-9.68,2-14.9,9.45-2.16,19.09-3.6,28.27-6.88C333.64,488.39,337.56,487.06,341.47,485.71Z"/><path class="cls-9" d="M270.51,498.66a16.37,16.37,0,0,1,11.91,0Z"/><path class="cls-10" d="M253.53,498.63a13.81,13.81,0,0,1,10.9,0Z"/><path class="cls-11" d="M191.47,504.71a4.58,4.58,0,0,1-.06-6Z"/><path class="cls-12" d="M123.45,152.65c-1.84-4.13-1-8.49-.79-12.71.93-18,4.9-35.2,13.4-51.21C150.81,61,172.72,41.25,202.11,30c26.21-10,53-11.21,79.75-3,38.45,11.76,65.43,36.62,80.5,74.08,6,15,8,30.81,8,46.89,0,1.59.55,3.37-.89,4.72l-4-2.93a28.54,28.54,0,0,0-.45-5.42c-8.85-32.16-26.85-57.63-55.65-74.92-26.92-16.16-56.06-21.67-86.78-15.3-29.85,6.19-54.66,21.35-73.2,45.88-11.15,14.76-19.1,31.1-22.2,49.55Z"/><path class="cls-13" d="M365.46,149.72l4,2.93c8.09,1.82,7.27,8,6.94,14-2.35,3.6-6,3.71-9.81,4.16-3.5.42-8.47-.23-8.13,5.89q0,6.48,0,13c-1.4,2.5-1.07,5.64-3,7.93A37,37,0,0,1,342,213.91c-17.65,11.71-37,11.87-56.59,7.26-12.13-2.86-19.91-11.38-24.84-22.6-1.94-6.82-2.23-13.81-2.22-20.84.27-2.17.68-4.27-2.23-5.22-6-1.94-11.9-2.61-18-.62-2.94,1-4.6,2.52-3.62,5.82,0,5.3,0,10.58-1.19,15.79-4.62,12.35-12.9,21.16-25.29,25.86-14.62,5.53-29.66,5.79-44.68,2.37-12.21-2.77-21.13-10.07-25.92-21.92-1.95-2.36-1.44-5.6-2.93-8.13l-.06-12c0-6.13-2.41-8.62-9-9-3.59-.19-6.8-.84-8.92-4.08a23.72,23.72,0,0,0-.06-3.48c-.93-5.72,1.54-9.11,7-10.55l3.73-3.14,14.26-3.67c3.41-.72,6.8-1.63,10.24-2.11a246.8,246.8,0,0,1,63.68-.1c4.61.7,8.86,2.57,13.25,4,11.92,7.17,23.86,6.88,35.8,0,4.21-1.82,9-1.7,13.07-4,5.27-.47,10.52-1.06,15.8-1.38,19.55-1.21,39-1.07,58.22,3.55Zm-86,7.89c-7.33,2.38-11.57,7.24-12.1,15.08A46.58,46.58,0,0,0,267,191c1.92,12.49,9.08,20.35,21.61,23a76.75,76.75,0,0,0,34.61-.14c21.61-5.31,30.44-19.38,26.23-41.18q-1-12.81-14.92-16.12c-13.7-4.54-27.79-3-41.75-2.34C288.25,154.48,283.52,155.08,279.45,157.61Zm-65.95,0c-14.67-5.77-29.92-4-45.05-3.27-3.36.16-6.93.4-10,2.28-9.37,2.17-14.19,7.31-15.09,16.09A46.58,46.58,0,0,0,143,191c1.91,12.49,9.08,20.36,21.61,23a76.89,76.89,0,0,0,34.61-.15c21.6-5.3,30.39-19.29,26.24-41.18C225,164.89,220.76,160,213.5,157.59Z"/><path class="cls-14" d="M355.47,197.61c1.91-2.29,1.58-5.43,3-7.93,0,17.49.38,35-.12,52.45-.31,11.13-3.19,22-7.35,32.32C342.28,296,328.3,313.5,308.7,326a112.07,112.07,0,0,1-59.23,17.83c-25.14.54-48.15-5.63-68.52-20.07-23.86-16.92-38.75-40-44.57-68.93-3.42-17-1.22-34.14-1.88-51.2-.16-4,0-8,0-12,1.49,2.53,1,5.77,2.93,8.13-1.41.69-.9,1.9-.81,3-.31,11.49-.25,22.94,1.73,34.34,5.36,30.89,21.38,55.17,47.18,72.27,27.43,18.18,57.86,22.93,89.75,14.27,36.41-9.89,61.08-33.09,74.52-68.3,6.73-17.65,7.13-36.06,6.55-54.59C356.43,199.63,356.88,198.36,355.47,197.61Z"/><path class="cls-14" d="M377.87,377.78c5.72,13.44,1.3,24.81-5.49,35.37-11.1,17.27-27.7,27.69-46.23,35.56-17.57,7.46-36,9.31-54.67,7.82a50.51,50.51,0,0,1-31.7-14.09c-3.09-3-4.91-6.83-6.39-11.65,28,12,55,7.85,81.46-1.9S364.82,405.56,377.87,377.78Z"/><path class="cls-14" d="M263.9,397.73c-14.16-.31-28.2-1.31-41-8.3-5.34-2.92-10.09-6.46-12.66-12.25-.55-1.23-1.33-2.62-.24-3.71s2,.48,2.94.95a69.24,69.24,0,0,0,28.76,7.1c12.74.52,25.48.43,38.26-1.54,19.06-2.94,37.26-8.12,54.27-17.21,6.75-3.6,13.21-7.71,18.1-13.8.61-.76,1-2,2.12-1.73,1.54.4,1.08,1.94,1,3a29.35,29.35,0,0,1-9.56,19.17c-17.33,15.79-38.5,22.88-61.2,26.39C277.77,396.85,270.93,398.18,263.9,397.73Z"/><path class="cls-15" d="M116.51,166.68c2.12,3.24,5.33,3.89,8.92,4.08,6.59.34,9,2.83,9,9a11.79,11.79,0,0,0-10.08-5.05C118.32,174.67,116.85,173.06,116.51,166.68Z"/><path class="cls-15" d="M358.49,176.73c-.34-6.12,4.63-5.47,8.13-5.89,3.8-.45,7.46-.56,9.81-4.16-.35,6.42-1.87,8.16-7.86,8C365,174.51,361.84,176,358.49,176.73Z"/><path class="cls-16" d="M380.48,460.68l5,4.48c-3.33,1.56-6.78,1.14-10,1.77-.34-.5-2.74.25-1-1.42A72.59,72.59,0,0,1,380.48,460.68Z"/><ellipse class="cls-17" cx="84.97" cy="410.21" rx="0.32" ry="6.24"/><path class="cls-18" d="M83.59,393.66l0-8H84l.36,0C84.17,388.33,85.32,391.13,83.59,393.66Z"/><path class="cls-19" d="M110.59,132.65c0-2.3,0-4.61,0-6.91A6.44,6.44,0,0,1,110.59,132.65Z"/><path class="cls-20" d="M86,424.84c-.65-2.93-.74-4.49-.07-6.57C86.69,420.36,86.56,422,86,424.84Z"/><path class="cls-21" d="M420.52,365.59c1.76,1.84.69,4.05.83,6.11C419.69,369.85,420.79,367.63,420.52,365.59Z"/><path class="cls-22" d="M84.35,385.66l-.36,0h-.37c.11-2-1-4.18.78-6Q84.37,382.68,84.35,385.66Z"/><path class="cls-23" d="M399.35,265.73c-.13,1.67.88,3.53-.78,5C398.73,269,397.74,267.17,399.35,265.73Z"/><path class="cls-24" d="M390.35,309.79v4.88A3.54,3.54,0,0,1,390.35,309.79Z"/><path class="cls-25" d="M87,427.29c.65,1.53.74,2.54,0,3.58C86.23,429.84,86.36,428.82,87,427.29Z"/><path class="cls-26" d="M88,437c-.86-1.41-.49-2.4-.28-3.72A3.37,3.37,0,0,1,88,437Z"/><path class="cls-5" d="M141.44,145.84l-14.26,3.67c3.1-18.45,11-34.79,22.2-49.55,18.54-24.53,43.35-39.69,73.2-45.88,30.72-6.37,59.86-.86,86.78,15.3,28.8,17.29,46.8,42.76,55.65,74.92a28.54,28.54,0,0,1,.45,5.42l-14-3.88c2.27-1.87.24-3.83-.24-5.41-7.44-24.5-22.24-43.87-43.2-58.09-38.69-26.27-91.82-24.42-128.37,3.86-18,13.9-30.89,31.48-37.68,53.29C141.4,141.45,139.36,143.54,141.44,145.84Z"/><path class="cls-27" d="M356.34,200.79c.58,18.53.18,36.94-6.55,54.59-13.44,35.21-38.11,58.41-74.52,68.3-31.89,8.66-62.32,3.91-89.75-14.27-25.8-17.1-41.82-41.38-47.18-72.27-2-11.4-2-22.85-1.73-34.34,5.39,12.11,14.23,20.12,27.32,23.19a83.27,83.27,0,0,0,23.24,1.66c11.45-.56,22.45-3.14,31.66-10.28,7.75-6,14-13.31,14.48-23.87,1.18-5.21,1.19-10.49,1.19-15.79,8-4.55,15.91-3.71,23.85,0,0,7,.28,14,2.22,20.84a9.38,9.38,0,0,0,.69,4.78c1.95,5.54,5.66,9.91,9.24,14.37q-21.71,0-43.4,0c-4.84,0-5.6,1.32-3.23,5.53a12.9,12.9,0,0,0,1.91,2.29c8.77,9.35,27.26,11.19,37.62,3.51,3.74-2.77,7.16-6.06,7.06-11.37,12.55,9.49,27.1,10.91,42.05,9.92,10.3-.68,20.15-3.25,28.94-9.2C348.12,213.89,352.49,207.59,356.34,200.79Zm-109.8,74.94c7.7,0,14.94-1.82,20-5.17,4.35-2.86,7.49-6.61,7.86-12.07a4.06,4.06,0,0,0-3.09-4.55c-2.1-.6-3.47.53-4.48,2.29-5.21,9.1-14.36,13.12-25.18,11-6.32-1.25-12.52-2.84-15.15-9.75-.94-2.46-2.23-4.33-5.07-3.47-3,.9-3.38,3.47-2.8,6.11,1.06,4.84,4.08,8.28,8.26,10.77C233,274.47,239.61,275.69,246.54,275.73Z"/><path class="cls-27" d="M141.44,145.84c-2.08-2.3,0-4.39.57-6.35,6.79-21.81,19.71-39.39,37.68-53.29,36.55-28.28,89.68-30.13,128.37-3.86,21,14.22,35.76,33.59,43.2,58.09.48,1.58,2.51,3.54.24,5.41-19.2-4.62-38.67-4.76-58.22-3.55-5.28.32-10.53.91-15.8,1.38-2.43-1-5.08-1.67-7.24-3.09-4.22-2.77-5.16-.33-5.66,3.11a37.62,37.62,0,0,0-.17,4c-11.94,6.84-23.88,7.13-35.8,0-.05-.83-.08-1.66-.15-2.49-.53-6.33-1.05-6.62-6.67-4.07-2.09,1-4.28,1.71-6.43,2.56a246.8,246.8,0,0,0-63.68.1C148.24,144.21,144.85,145.12,141.44,145.84Z"/><path class="cls-27" d="M225.42,172.72c4.15,21.89-4.64,35.88-26.24,41.18a76.89,76.89,0,0,1-34.61.15c-12.53-2.67-19.7-10.54-21.61-23a46.58,46.58,0,0,1,.4-18.33,23,23,0,0,1,14.08-12.2c2-.64,4.37-.07,6-1.79l23.83-.16,11.89.24C210.28,159,220.14,161.56,225.42,172.72Zm-37.29,6c-.56,1.84-1.15,3.37-1.47,5-1,5,2,10.58,6.69,12.82a11.79,11.79,0,0,0,14.39-3.4,11.55,11.55,0,0,0,.75-13.91c-9.18-13.41-33-12.26-40.92,2-.63,1.13-1.73,2.33-.44,3.57s2.43-.16,3.44-.83C175.8,180.46,181.38,178.25,188.13,178.76Z"/><path class="cls-27" d="M349.41,172.72c4.21,21.8-4.62,35.87-26.23,41.18a76.75,76.75,0,0,1-34.61.14C276,211.37,268.88,203.51,267,191a46.58,46.58,0,0,1,.39-18.33c4-8.14,10.72-11.95,19.46-13.34,6.29-1,12.58,0,18.83-.8l23.83.15C337.86,160.89,345.68,163.91,349.41,172.72Zm-45.23,6c-.56,1.78-1.1,3.16-1.42,4.6a12.13,12.13,0,0,0,6.67,13.25,11.82,11.82,0,0,0,14.38-3.51,11.59,11.59,0,0,0,.34-14.34c-9.69-12.85-32.14-11.66-40.35,2.14-.73,1.23-2.14,2.55-.6,4,1.37,1.25,2.43-.26,3.45-.93C291.89,180.43,297.47,178.22,304.18,178.72Z"/><path class="cls-28" d="M233.31,193.5c-.51,10.56-6.73,17.87-14.48,23.87-9.21,7.14-20.21,9.72-31.66,10.28A83.27,83.27,0,0,1,163.93,226c-13.09-3.07-21.93-11.08-27.32-23.19-.09-1.09-.6-2.3.81-3,4.79,11.85,13.71,19.15,25.92,21.92,15,3.42,30.06,3.16,44.68-2.37C220.41,214.66,228.69,205.85,233.31,193.5Z"/><path class="cls-28" d="M270.5,217.72c-3.58-4.46-7.29-8.83-9.24-14.37a9.38,9.38,0,0,1-.69-4.78c4.93,11.22,12.71,19.74,24.84,22.6,19.63,4.61,38.94,4.45,56.59-7.26a37,37,0,0,0,13.47-16.3c1.41.75,1,2,.87,3.18-3.85,6.8-8.22,13.1-14.89,17.61-8.79,5.95-18.64,8.52-28.94,9.2-14.95,1-29.5-.43-42.05-9.92Z"/><path class="cls-29" d="M187.3,158.54l-23.83.16-5-2.1c3.07-1.88,6.64-2.12,10-2.28,15.13-.7,30.38-2.5,45.05,3.27-3.48.11-7,.17-10.44.33C197.81,158.17,192.5,156.9,187.3,158.54Z"/><path class="cls-30" d="M329.47,158.7l-23.83-.15c-1.64-1.2-3.52-.69-5.31-.72-7-.11-13.92-.15-20.88-.22,4.07-2.53,8.8-3.13,13.29-3.35,14-.66,28.05-2.2,41.75,2.34Z"/><path class="cls-31" d="M258.35,177.73c-7.94-3.73-15.89-4.57-23.85,0-1-3.3.68-4.86,3.62-5.82,6.1-2,12-1.32,18,.62C259,173.46,258.62,175.56,258.35,177.73Z"/><path class="cls-32" d="M279.45,157.61c7,.07,13.92.11,20.88.22,1.79,0,3.67-.48,5.31.72-6.25.8-12.54-.21-18.83.8-8.74,1.39-15.49,5.2-19.46,13.34C267.88,164.85,272.12,160,279.45,157.61Z"/><path class="cls-33" d="M187.3,158.54c5.2-1.64,10.51-.37,15.76-.62,3.48-.16,7-.22,10.44-.33,7.26,2.45,11.48,7.3,11.92,15.13-5.28-11.16-15.14-13.71-26.23-13.94Z"/><path class="cls-34" d="M329.47,158.7l5-2.1q13.9,3.32,14.92,16.12C345.68,163.91,337.86,160.89,329.47,158.7Z"/><path class="cls-35" d="M158.45,156.6l5,2.1c-1.66,1.72-4,1.15-6,1.79a23,23,0,0,0-14.08,12.2C144.26,163.91,149.08,158.77,158.45,156.6Z"/><path class="cls-36" d="M264.41,147.67a37.62,37.62,0,0,1,.17-4c.5-3.44,1.44-5.88,5.66-3.11,2.16,1.42,4.81,2.08,7.24,3.09C273.42,146,268.62,145.85,264.41,147.67Z"/><path class="cls-37" d="M215.36,143.63c2.15-.85,4.34-1.6,6.43-2.56,5.62-2.55,6.14-2.26,6.67,4.07.07.83.1,1.66.15,2.49C224.22,146.2,220,144.33,215.36,143.63Z"/><path class="cls-38" d="M270.46,217.68c.1,5.31-3.32,8.6-7.06,11.37-10.36,7.68-28.85,5.84-37.62-3.51a12.9,12.9,0,0,1-1.91-2.29c-2.37-4.21-1.61-5.52,3.23-5.53q21.69,0,43.4,0Z"/><path class="cls-39" d="M246.54,275.73c-6.93,0-13.57-1.26-19.62-4.84-4.18-2.49-7.2-5.93-8.26-10.77-.58-2.64-.2-5.21,2.8-6.11,2.84-.86,4.13,1,5.07,3.47,2.63,6.91,8.83,8.5,15.15,9.75,10.82,2.12,20-1.9,25.18-11,1-1.76,2.38-2.89,4.48-2.29a4.06,4.06,0,0,1,3.09,4.55c-.37,5.46-3.51,9.21-7.86,12.07C261.48,273.91,254.24,275.7,246.54,275.73Z"/><path class="cls-39" d="M188.13,178.76c-6.75-.51-12.33,1.7-17.56,5.18-1,.67-2,2.17-3.44.83s-.19-2.44.44-3.57c7.89-14.24,31.74-15.39,40.92-2a11.55,11.55,0,0,1-.75,13.91,11.79,11.79,0,0,1-14.39,3.4c-4.7-2.24-7.67-7.85-6.69-12.82C187,182.13,187.57,180.6,188.13,178.76Z"/><path class="cls-39" d="M304.18,178.72c-6.71-.5-12.29,1.71-17.53,5.17-1,.67-2.08,2.18-3.45.93-1.54-1.41-.13-2.73.6-4,8.21-13.8,30.66-15,40.35-2.14a11.59,11.59,0,0,1-.34,14.34,11.82,11.82,0,0,1-14.38,3.51,12.13,12.13,0,0,1-6.67-13.25C303.08,181.88,303.62,180.5,304.18,178.72Z"/></g></g></svg>