<svg xmlns="http://www.w3.org/2000/svg" viewBox="0 0 492.94 535.24"><defs><style>.cls-1{fill:#fff;}.cls-2{fill:#919497;}.cls-3{fill:#8e9da6;}.cls-4{fill:#2c1b18;}.cls-5{fill:#ddfe24;}.cls-6{fill:#cdcdcd;}.cls-7{fill:#79cef3;}.cls-8{fill:#ad5d29;}.cls-9{fill:#211512;}.cls-10{fill:#7b7d80;}.cls-11{fill:#f2f2f2;}.cls-12{fill:#7c7e81;}.cls-13{fill:#848689;}.cls-14{fill:#86888b;}.cls-15{fill:#914e22;}.cls-16{fill:#a9a2a1;}.cls-17{fill:#a8a1a0;}.cls-18{fill:#a7a09f;}.cls-19{fill:#a8a09f;}.cls-20{fill:#a69f9e;}.cls-21{fill:#a29b9a;}.cls-22{fill:#a59d9c;}.cls-23{fill:#98908f;}.cls-24{fill:#9e9695;}.cls-25{fill:#988f8e;}.cls-26{fill:#a59e9d;}.cls-27{fill:#4c768e;}.cls-28{fill:#756a68;}.cls-29{fill:#8a817f;}.cls-30{fill:#554844;}.cls-31{fill:#5492b5;}.cls-32{fill:#857b79;}.cls-33{fill:#9b5425;}.cls-34{fill:#341c0c;}.cls-35{fill:#462510;}</style></defs><g id="Layer_2" data-name="Layer 2"><g id="Layer_1-2" data-name="Layer 1"><circle class="cls-1" cx="246.47" cy="288.77" r="246.47"/><path class="cls-2" d="M226,527.68c-5.39-2.31-11.3-1.57-16.88-2.89-5.79-1.38-11.68-2.43-17.57-3.36-3.59-.56-4.71-2.17-4.68-5.89.19-24.45.1-48.92.09-73.38,0-2.16-.07-4.32-.11-6.48l.64-.52c5.47-.73,10.32,1.93,15.47,2.93,3.39.66,6.71,1.72,10.14,2.29a145.35,145.35,0,0,0,15.81,2.27c4.47,1.26,9,.2,11.87.47-2.67.33-6.93,0-11.18,0-5-1.49-10.29-1.33-15.35-2.48a134.68,134.68,0,0,1-26.88-7.93c-5-2.57-10.22-4.78-15-7.85a88.15,88.15,0,0,1-29.07-26.09c-1.72-2.4-3.71-4.79-3.14-8.13,5.29-7.11,11.31-13.63,16.77-20.61,1.23-1.56,3.4-1.93,5.32-2.46,9.78-2.21,19.78-2.47,29.71-3.27a13.94,13.94,0,0,1,6.4.64c2.55,1.73,1.79,4.43,2,6.82,1,15.18,6.7,27.9,19.2,37.23,27.18,20.29,66.88,4.74,73-28.69a55.59,55.59,0,0,0,1.19-10.38c0-1.79-.05-3.72,1.78-4.91a28.89,28.89,0,0,1,13.74-.06c2.48,2.5.24,4.64-.77,6.63-4.74,9.3-9.31,18.67-13.11,28.4a142.67,142.67,0,0,0-9,34.54c-.25,1.94-.13,4.07-2.42,5.05a142.26,142.26,0,0,1-25,3.71c-1.72.26-.69,1-1.07.47-.15-.21,0-.36.33-.37,8.57-.22,16.91-2.26,25.38-3.22,3.2,3.63,2,8.28,2.42,12.37a58,58,0,0,0,19.29,38.31,8.67,8.67,0,0,1,2.6,3.61c.74,2.94.3,5.94.47,8.92.21,3.52,1.65,6.32,5.4,6.66,3.35.31,5-2.14,5.81-5.09.35-1.26.37-2.66,1.57-3.55a4.69,4.69,0,0,1,2.92.12c7.31,2.75,14.81,2.57,22.38,1.54,1.59-.21,3.28-.7,4.64.74-17.13,9.19-35.53,14.72-54.41,18.81a185.68,185.68,0,0,1-28.06,4.17c-.54,0-1.06.6-1.59.92h-7a17,17,0,0,0-9,0h-8a19.89,19.89,0,0,0-10,0Z"/><path class="cls-3" d="M233,527.68a11.18,11.18,0,0,1,10,0Z"/><path class="cls-3" d="M251,527.68a9,9,0,0,1,9,0Z"/><path class="cls-4" d="M307,494.53c-8.76-7.87-15.79-16.92-19.51-28.29-2.73-8.31-3.18-16.9-3.55-25.52a1.27,1.27,0,0,1,.2-2c2-10.9,3.84-21.79,7.46-32.34,4.81-14.05,11.61-27.17,18.07-40.46,3.57-10,9.31-18.71,15.87-26.83,4.29-5.32,6.52-10.74,6.27-17.7-.33-9.6,2.64-18.66,6.61-27.35a18.83,18.83,0,0,0,2-6.61,20.2,20.2,0,0,1,2.51-5.41c9.71-17,14.22-35.42,14.44-54.82.31-25.59,0-51.18.08-76.76.76-4.37-.77-7.26-5.05-9-9-3.65-16.71-9.58-25-14.49a14.53,14.53,0,0,0-6.94-2.17c-8.1-.48-15.38-4-22.75-7a21.73,21.73,0,0,0-8.66-1.72q-22,.21-43.92,0c-5.35,0-10.11-.78-15.88,1.49a48.85,48.85,0,0,1-26.42,2.67,3.13,3.13,0,0,0-3.16.95c-2.53,2.83-6,3.36-9.44,4A447.89,447.89,0,0,0,142.75,137c-3.46,1.08-5.72,2.52-5.36,6.48-1.83,17.24-.75,34.53-.79,51.8,0,14.6-.87,29.22.79,43.81a111.43,111.43,0,0,0,13.34,42.5c1.14,2,2.45,4,2.93,6.29.53,5.53,3,10.5,4.62,15.7a148.15,148.15,0,0,1,7.16,42A50.88,50.88,0,0,1,162.33,364a14.3,14.3,0,0,0-1.07,4.82,10.05,10.05,0,0,0-5.62,4.39c-4.22,6.35-9.53,11.8-14.69,17.37-3,5.8-8.7,9.28-12.7,14.22-6.45,7.83-5.69,19.82,1.75,28.45,6.78,7.86,15.79,10.51,25.69,11.11a47.39,47.39,0,0,1,5.46.23c1,.29,2,.68,2.15,1.93-.77,2.56-3.05,3.32-5.16,4.29-10.18,4.7-20.57,4.63-31.11,1.38-3-.92-5.89-2-9.32-3.08,1,4.18,3.44,7,5.13,10.13.72,1.34,1.46,2.84.19,4.15-1.07,1.11-2.54.53-3.75.08a28.17,28.17,0,0,1-11.68-8.27,74.68,74.68,0,0,1-9-12.73,133.29,133.29,0,0,0-3.49,22.4c-.15,2.17.12,5.14-3.13,5.92a237.18,237.18,0,0,1-44-49,17.59,17.59,0,0,1-3.1-6.17c-1.85-5.22-1.25-10.52-.41-15.78,2.14-13.34,8.34-25.24,13.46-37.53.25-.61.53-1.22.82-1.81,4.19-8.43,4.84-15.85-2.76-23.49-6.85-6.9-13.11-14.61-17.51-23.58-11.62-23.67-8.64-47.85,8.6-67.92,8-9.34,16.48-18.31,25.1-27.11,3-3,4-6.09,3-10.34-5.09-20.93-1.5-40.94,6.63-60.49A122,122,0,0,1,98,119.6c6-7.72,9.27-16.92,13.84-25.41,1.18-2.18,2-4.62,4.06-6.22,6.81-10.77,12.74-22.08,20.39-32.36C159,25.13,188.86,7,226.53,1.84c25-3.42,49.61-2.36,73.78,5.65,27.73,9.2,47.93,27,61.87,52.45,4.4,8,7.28,16.68,11,25,3,4,3.85,8.88,5,13.47,2.74,11,7.72,20.91,12.5,31,5.36,11.28,11.38,22.24,16.34,33.72A127.85,127.85,0,0,1,416,195.24c.84,5.68-.05,11.29-1.09,16.87-.41,2-1.46,4,.45,5.84,6.46,3.76,13.33,6.8,19.53,11,17.72,12.07,28.69,28.55,29,50.17.26,17.09-7.5,31.46-20.45,42.78-2.13,1.87-4.34,3.63-6.34,5.63-1.7,2.45-.65,5.1-.56,7.68a174.17,174.17,0,0,1-10.65,51.13,43.8,43.8,0,0,1-19.66,23.13A74.75,74.75,0,0,1,395.7,414c-5.41,2.07-6.14,3.18-5,9,1.49,7.53,4,14.78,6.27,22.1,1.87,6,3.95,12,6,18,.75,2.24,1.42,4.47.13,6.74a216.8,216.8,0,0,1-52,34c-10.22,1.77-20.37,2.53-30.2-1.9C315,501.74,310.51,499,307,494.53Z"/><path class="cls-5" d="M413.74,213.07c3.71-21-3.29-39.78-11.94-58.17-6.68-14.22-14.26-28-20.41-42.46a132.44,132.44,0,0,1-8.19-27.52c8.44,3.73,15.22,9.93,22.55,15.29,9.92,7.26,18.52,16,26.9,24.94a230.13,230.13,0,0,1,33,45.17,236.62,236.62,0,0,1,23.59,59.42A232.23,232.23,0,0,1,485.06,263c.42,4.27.5,8.55,1,12.8a23,23,0,0,1,.08,8v7.89a22.94,22.94,0,0,1-.08,8,235.85,235.85,0,0,1-22,88.95,226.55,226.55,0,0,1-31.23,49.81,35.12,35.12,0,0,0-2.17,3.28c-2.09.09-2.75-1.61-3.56-3a152.26,152.26,0,0,0-19.54-26.24c-1-1.14-2.68-2.2-1.69-4.23,10.59-5.71,17-15.24,20.54-26,3.61-11.09,6.53-22.56,7.6-34.34.39-4.38,1.19-8.72,1.8-13.08a20.79,20.79,0,0,1,0-7.9c11.06-8.79,20.09-18.92,24.52-32.85,6.24-19.58,0-35.94-11.78-51.21-8-10.37-19.14-16.17-30.6-21.59a29.79,29.79,0,0,1-4-2.75A8.55,8.55,0,0,1,413.74,213.07Z"/><path class="cls-5" d="M115.92,88c-5.24,12.5-11,24.68-19.1,35.69A115.2,115.2,0,0,0,74.93,178a81.88,81.88,0,0,0,2.26,32.6c.9,3.3-.9,5.29-2.69,7.22-6.75,7.3-13.67,14.46-20.54,21.65-14.43,15.11-23.61,32.33-20.74,54A60.66,60.66,0,0,0,46.4,323.5c4.79,6,9.93,11.77,14.7,17.81,2.22,2.82,3.47,5.78,2.29,9.94a139.89,139.89,0,0,1-8.56,21.81c-6.43,13.56-10.45,27.48-10,42.56-3.48-2.32-4.76-6.24-6.61-9.61a254.39,254.39,0,0,1-22.72-56,246.39,246.39,0,0,1-5.75-25.45c-1-6.15-1.06-12.49-2.56-18.65-.38-1.59.46-3.48.74-5.24-.94-2.56.37-5.34-.77-7.89V282.72c1.14-2.54-.17-5.33.77-7.89-2.52-5.51.89-10.63,1.27-15.93a150.94,150.94,0,0,1,4.35-25.62c2-7.81,4.32-15.46,6.87-23a238.94,238.94,0,0,1,39.52-72.1c7.35-9.29,16-17.13,24-25.78C92.75,102.75,104.23,96.43,114,88,114.34,87.63,115.26,88,115.92,88Z"/><path class="cls-2" d="M91.94,470.82c2.4-2.55,1.74-5.82,2-8.83.63-7.44,1.62-14.79,4.48-22.25a83,83,0,0,0,10,14.38c3.87,4.38,8.3,8,14.94,9.23-2.06-5.83-7.11-9.87-7.88-16.71,16.15,7,32,10.34,47.6.07.09-1.66.09-1.66-2.14-1.15-10.95.74-21.09-1.37-29.53-8.85-6.78-6-9-14.08-9.28-22.71-.15-4.42,2.43-7.74,5.82-10.39,1.54-.55,2.53.46,3.51,1.33,11.32,10.07,24.52,17,38.32,22.93a6.92,6.92,0,0,1,3.25,2.2c.09.23.17.46.25.69v85.63c-5.53-2-10.61-3.72-15.56-5.75C133.67,500.82,111.54,487.9,91.94,470.82Z"/><path class="cls-2" d="M405.79,408.25c4.72,7,11.27,12.45,15.77,19.61,2.93,4.66,6,9.24,9,13.85-7.84,10.68-17.42,19.65-27.53,28.1-2.21-11.09-6.77-21.46-9.92-32.26-1.81-6.2-3.9-12.32-4.26-18.86-.16-2.78.88-4.17,3.53-5.08C397,412.05,401.34,410.06,405.79,408.25Z"/><path class="cls-6" d="M173.23,423.77l13.85,8a3.15,3.15,0,0,1,.19,4l-.44,0-13.61-4.92-.48-.1C171.78,428.29,170.89,425.91,173.23,423.77Z"/><path class="cls-7" d="M7.91,274.83c-.18,2.64,1.16,5.43-.77,7.89C7.33,280.08,6.33,277.33,7.91,274.83Z"/><path class="cls-7" d="M486.11,283.81c0-2.66-.05-5.32-.08-8A9,9,0,0,1,486.11,283.81Z"/><path class="cls-7" d="M7.14,292.78c1.93,2.47.59,5.26.77,7.89C6.33,298.17,7.33,295.42,7.14,292.78Z"/><path class="cls-7" d="M486,299.67c0-2.65.05-5.31.08-8A9,9,0,0,1,486,299.67Z"/><path class="cls-8" d="M295.06,365.72c.25,15.34-3.32,29.46-14.93,40.19-14.47,13.39-31.41,17.44-50.07,10.26-17.12-6.6-27.13-19.35-30.22-37.58-.72-4.31-.67-8.58-1-12.87-2.59-6.69-1.61-13.49-.65-20.28,2-2.3,4-.46,5.81.24,14.85,5.68,30.05,9.19,46.1,8.69,13.78-.44,26.84-3.83,39.63-8.64,1.85-.7,3.77-2.49,5.87-.39C296.74,352.17,297.64,359,295.06,365.72Z"/><path class="cls-9" d="M199.16,344.81q-.14,10.45-.28,20.91a254.8,254.8,0,0,0-37.62,3.13c-2.34-.28-2-1.51-1.26-3.13,6-12.32,4.2-25.16,2.51-38-1.59-12.05-5.39-23.49-9.28-34.93-.41-1.19-1.94-2.62-.22-4,2.18-.31,2.75,1.58,3.63,2.83,10.2,14.34,23.41,25.23,38.57,33.9,2,1.15,4.25,2,4.9,4.64C200.31,335.06,201.6,340.05,199.16,344.81Z"/><path class="cls-9" d="M295.06,365.72q-.13-10.47-.28-20.92c-2.4-4.73-1.13-9.71-1-14.61.5-2.17,2.2-3.21,4-4.19,15.73-8.79,29.35-20,39.81-34.82.8-1.13,1.39-2.79,3.35-2.43,1.82,1.79-.14,3.06-.74,4.36-4.6,9.89-7.7,20.15-7.18,31.16.21,4.58-.74,8.47-3.75,11.92-7.88,9-13.06,19.87-19.64,29.77Z"/><path class="cls-10" d="M173.23,423.77q-.24,3.45-.49,6.89c-10.19-4.79-20.72-9-30-15.55-5.1-3.65-9.94-7.65-14.9-11.5l13.06-13c.15,5.09,3.8,8.4,6.65,11.83C154.79,411.08,163,418.73,173.23,423.77Z"/><path class="cls-11" d="M307,494.53l13.87,7.35c.15,6.17-2.14,9.56-6.57,9.75-3.92.17-7-2.82-7.27-7.16-.08-1.15,0-2.32,0-3.48C306.94,498.84,307,496.69,307,494.53Z"/><path class="cls-12" d="M187.27,435.72c-.06-1.32-.13-2.65-.19-4q12,3.75,24,7.48a21.57,21.57,0,0,0,2.91.5c.23.89.06,1.38-1,1C204.17,440.28,195.87,437.26,187.27,435.72Z"/><path class="cls-13" d="M284.09,438.76c-.07.65-.14,1.31-.2,2-7,1-14,2-21,2.94a19.11,19.11,0,0,1-5.87-.32A184.42,184.42,0,0,0,284.09,438.76Z"/><path class="cls-14" d="M213,440.72l1-1c4.88,1.57,10.19,1,15,3h0C223.55,442.8,218.17,442.56,213,440.72Z"/><path class="cls-14" d="M229,442.71h12.7c-4.24.49-8.52,2.14-12.7,0Z"/><path class="cls-8" d="M340.93,288.75a119.87,119.87,0,0,1-45.87,40c-3.46,4.72-9.06,5.42-14,7-25.68,8.29-51.11,7-76.18-2.79-2.36-.93-4.6-2-6-4.22a119.87,119.87,0,0,1-45.87-40c-8.28-13.59-14.09-28.12-16.43-43.93A126,126,0,0,1,135,226q.06-35.91,0-71.81a93.74,93.74,0,0,1,1.13-11.37c2.64-2.6,6.2-3.13,9.52-4.07q20.4-5.77,41.21-9.85a2.68,2.68,0,0,1,1-.18c6.76,1.21,10.12-7.87,18.23-5.13,6,2,13.06-1,19.64-1.81,2.92-.35,5.43-1,7.08-3.85,1.45-2.46,3.72-1.91,5.64-.61,2.8,1.89,5.85,2.15,9.06,2.11,15-.21,29.92.36,44.87-.32a10.1,10.1,0,0,1,4.31,1c8.74,3.51,17.28,7.44,27,7.94,4.6.23,8.26,4.06,12.09,6.55,6.14,4,12.24,8,18.9,11.07a7.52,7.52,0,0,1,4.11,4.14c0,27.57.55,55.16-.14,82.72C358.13,252.74,351.68,271.53,340.93,288.75Z"/><path class="cls-15" d="M358.78,149.8c-9.19-5.27-18.57-10.22-27.35-16.2-8.93-6.09-20.52-4.52-29.66-9.83-6.25-3.63-12.8-3-19.39-3q-18.72,0-37.43,0c-2.56,0-4.83-.16-6.83-2.18s-4.12-2.31-5,1.18c-.41,1.6-1.11,2.7-2.9,2.93-7.53,1-15.13,1.6-22.53,3.21-3.22.7-4.69-4.44-7.87-1.48-2,1.88-3.66,4-6.83,4.59q-15.81,3-31.48,6.84c-8.52,2.06-16.92,4.59-25.38,6.91-1-4.17,1.08-5.83,4.88-6.94,16.85-4.93,33.77-9.78,51.18-12,4.84-.62,6.28-7.61,10.47-5.31,4.75,2.61,8.64.13,12.86.1,4.42,0,8.81-1.35,13.25-1.71,2.5-.21,4.14-1,4.78-3.43.8-3.05,2.17-2.94,3.94-.79,1.52,1.85,3.48,2.22,5.78,2.2,16.61-.16,33.23-.14,49.85-.42,2.23,0,3,1.7,4.7,2.23,6.48,2,12.87,4.39,19.29,6.61.47.17,1,.49,1.42.38,7.77-2.14,12.34,4.12,17.82,7.29s10.95,7,16.93,9.39C357.89,142.27,359.86,144.94,358.78,149.8Z"/><path class="cls-16" d="M135.15,301.78c-3.12,0-4.39-2-5.77-3.7-22.38-27.26-35.3-58.76-41-93.29a55.88,55.88,0,0,1,2-27A70.62,70.62,0,0,1,93,195.12a171.79,171.79,0,0,0,31.18,91.11C127.76,291.44,131.48,296.6,135.15,301.78Z"/><path class="cls-16" d="M101.3,414.75c-.59-12.19.48-24-.88-35.82A64,64,0,0,0,85.91,345a286.27,286.27,0,0,1-22.33-30.65c-1.19-1.93-2.32-3.89-4.22-7.08a45.19,45.19,0,0,1,14.77,14.35c5.28,8.31,11.45,16,17.23,23.89,14.39,19.76,16.79,41.8,12.09,65.12C103.17,412.05,103,413.62,101.3,414.75Z"/><path class="cls-16" d="M133.17,353.63c-7.95-20.1-21.37-36.22-36.78-51-10.72-10.27-16-22.94-15.13-38.12,1.57,3.73,3.61,7.33,4.61,11.2,3,11.69,9.37,21.11,18,29.33,8.94,8.51,17,17.79,23.42,28.44,3.35,5.58,6.17,11.4,6.87,18C134.39,352.5,135.09,353.69,133.17,353.63Z"/><path class="cls-16" d="M374.05,480.84c0-2.93,0-4.57,0-6.21-.08-10.07-4.44-17.52-13.47-22.17-7.26-3.74-14.44-7.57-19.67-14.19-6.37-8.06-7.93-17-5.53-26.81.58-2.35,1.38-4.8,4.41-6.75,0,4.52.19,8.57,0,12.59-.68,12.28,5,21,15,27.43,4.47,2.88,9.29,5.25,13.6,8.34C377.28,459.49,379.62,469.78,374.05,480.84Z"/><path class="cls-16" d="M69.9,421.32c5.76-15.13,14.66-29.44,11.6-47.66C93.51,387.32,81.11,411,69.9,421.32Z"/><path class="cls-17" d="M153.61,93.2c5.65-13.57,14.7-24.85,24.07-35.92C173.93,72.08,163.94,82.75,153.61,93.2Z"/><path class="cls-18" d="M364.64,363.32c14.73-7.45,34.73-2,43.73,11.28C395.48,366.1,381.06,363.25,364.64,363.32Z"/><path class="cls-19" d="M114.78,293.16c-13.15-8.75-18.68-22-21.47-36.81C101.29,268.1,106.38,281.53,114.78,293.16Z"/><path class="cls-18" d="M402.92,235.79c-2.56,4.06-5.18,8.09-7.69,12.18-4,6.47-5.44,13.8-6.76,21.4-6-9.57.4-25.89,13.23-34.8C402.69,234.4,403.2,234.7,402.92,235.79Z"/><path class="cls-19" d="M224.29,55.26c-2.84,11.11-10.39,18.41-19.54,24.39A96.83,96.83,0,0,1,224.29,55.26Z"/><path class="cls-18" d="M390,299.6c9.92,2.46,18.63,11.31,18.54,19.34-7.52-5.66-12.87-13.32-20.57-18.27C387.85,298.76,389,299.32,390,299.6Z"/><path class="cls-18" d="M435,274c8.63,1.87,13.89,14.32,11.1,27.05C442.68,291.27,439.91,282.3,435,274Z"/><path class="cls-20" d="M111.34,338.11c-7.22-7.81-12.14-15.4-15.46-24.07C104.06,319.41,108.92,327,111.34,338.11Z"/><path class="cls-20" d="M355.57,475.24,337,455.05C346.61,456.75,355.86,466.55,355.57,475.24Z"/><path class="cls-21" d="M390.64,386.05c-8.87,1.84-17.77,3.65-28.14,1.53C372.55,384,381.43,382.62,390.64,386.05Z"/><path class="cls-18" d="M375.34,248c.9-9.38,3.65-16.47,9.79-23.77C384.43,233.74,382,241,375.34,248Z"/><path class="cls-22" d="M400,329.51c-7-3.54-13.21-7.76-20.29-10.24C385.34,315.48,397,321.1,400,329.51Z"/><path class="cls-20" d="M324.22,52.73c5.31,7.12,5.52,12.08,1,17.87C324.47,64.78,323.45,59.28,324.22,52.73Z"/><path class="cls-23" d="M65.31,409.15a17.49,17.49,0,0,1,3-12.33C70.09,401.79,69.65,403.86,65.31,409.15Z"/><path class="cls-24" d="M154.9,70.49a16.15,16.15,0,0,1-6.53,11.33C148.54,76.89,150.52,73.46,154.9,70.49Z"/><path class="cls-25" d="M389.44,337.43c-5.26.77-9.08-.07-13.5-1.17C380.62,333.7,384.42,335,389.44,337.43Z"/><path class="cls-26" d="M337.38,71.71c-.93-3.41-1.51-6.25-.82-9.23C339.76,65.07,340,66.8,337.38,71.71Z"/><path class="cls-24" d="M231.74,71.35c.68-3.53,2.62-4.82,4.81-7.42C236.62,68.1,235.21,69.82,231.74,71.35Z"/><path class="cls-27" d="M435.73,326.9v7.9A8.18,8.18,0,0,1,435.73,326.9Z"/><path class="cls-28" d="M390,299.6c-.72.26-1.64.16-2,1.07l-3.44-1.36A5.23,5.23,0,0,1,390,299.6Z"/><path class="cls-29" d="M133.17,353.63c.33-.7.67-1.39,1-2.09,1.18,1.37,1,2.88.72,4.6C133.55,355.54,133.43,354.54,133.17,353.63Z"/><path class="cls-30" d="M160.88,445.56a4.64,4.64,0,0,1,4.24-.65c-.26,1.16-1.23,1.42-2.1,1.8C162.61,445.77,161.66,445.82,160.88,445.56Z"/><path class="cls-31" d="M413.74,213.07c0,1.81.07,3.62.11,5.43C412.06,216.73,412.64,214.9,413.74,213.07Z"/><path class="cls-32" d="M402.92,235.79l-1.22-1.22c.68-.83,1.59-2.21,2.52-1.32C405,234,403.69,235.07,402.92,235.79Z"/><path class="cls-33" d="M198.88,328.77q48.09,22.17,96.18,0-.13,8-.28,16-47.8,22.21-95.62,0Q199,336.79,198.88,328.77Z"/><path class="cls-34" d="M246.91,265.76c8,0,16,.13,23.92-.06,3.27-.09,4.46.87,4,4.23-1.64,12.86-14.05,23.75-27.32,23.82-14.11.06-26.65-10.43-28.45-23.7-.42-3.17.42-4.46,3.89-4.36C231,265.91,238.94,265.76,246.91,265.76Z"/><path class="cls-35" d="M158.34,164.6a12.16,12.16,0,0,1,3.85-9.45c14.94-14.41,40.05-14.36,54.88-2.29.78.63,1.85,1.22,1.58,2.32s-1.45.93-2.48.87C196.42,154.82,177.15,157,158.34,164.6Z"/><path class="cls-35" d="M337.24,164.5c-18.14-7.4-37.09-9.46-56.47-8.66-1.09,0-2.61.63-3.19-.57-.76-1.57.86-2.38,1.87-3.06,12.31-8.3,25.59-10.66,39.71-5.67,7.07,2.49,13.95,5.68,17.3,13.2C337.1,161.15,338.36,162.58,337.24,164.5Z"/><path class="cls-15" d="M247.48,227.77c6.48,0,13,.18,19.44-.06,4.29-.17,4.36,1.71,3,4.79-1.27,2.84-3.62,4.81-6,6.57-10.39,7.8-29.16,5.85-37.94-3.79a12.08,12.08,0,0,1-1.95-2.81c-1.48-3.07-1.28-4.92,3-4.76C233.84,228,240.66,227.77,247.48,227.77Z"/><path class="cls-35" d="M305.15,188.74a28.05,28.05,0,0,0-18.3,5.45c-.89.63-1.92,1.7-3.09.71-1.34-1.14-.55-2.38.19-3.54a23.51,23.51,0,0,1,20.8-11.52c8.67-.05,15.82,3.33,20.6,10.84.81,1.27,2.51,3,.92,4.41-1.38,1.26-2.66-.58-3.82-1.34A28,28,0,0,0,305.15,188.74Z"/><path class="cls-35" d="M189.61,179.68c8.48.71,15.81,3.84,20.3,11.88.6,1.08,1.76,2.42.43,3.59-1.13,1-2.16-.24-3.06-.82q-18.18-11.76-36.4-.11c-.92.58-1.93,1.68-3.09.66-1.33-1.16-.51-2.38.22-3.55C173,183.47,180.28,180.05,189.61,179.68Z"/></g></g></svg>