<svg xmlns="http://www.w3.org/2000/svg" viewBox="0 0 492.94 533.02"><defs><style>.cls-1{fill:#fff;}.cls-2{fill:#262e33;}.cls-3{fill:#97d7f9;}.cls-4{fill:#5fb0dd;}.cls-5{fill:#2c1b18;}.cls-6{fill:#3a4c5a;}.cls-7{fill:#2f4351;}.cls-8{fill:#ecb889;}.cls-9{fill:#f1f1f1;}.cls-10{fill:#d4a57c;}.cls-11{fill:#e4e4e4;}.cls-12{fill:#c69a74;}.cls-13{fill:#5f4a37;}</style></defs><g id="Layer_2" data-name="Layer 2"><g id="Layer_1-2" data-name="Layer 1"><circle class="cls-1" cx="246.47" cy="286.55" r="246.47"/><path class="cls-2" d="M228,526c-6.11-2.17-12.66-1.56-18.89-3-5-1.15-10.06-2.12-15.1-3.17-2.2-.93-2.4-3-2.78-5a685.55,685.55,0,0,1-11-78.83c-.66-8.46-.77-16.89-.8-25.35,0-2.14-.13-4.34,1.13-6.26,2.67-1.59,3.46.91,4.48,2.31a77.64,77.64,0,0,0,10.75,11.59c2.66,2.41,5.06,2.71,7.75.12,5.09-4.9,11.06-7,18.12-5.39,16.67,7.26,33.38,7.06,50.14.37,7-1.82,13.1-.42,18.2,4.73,3.21,3.24,6,2.55,8.86-.44,3.54-3.68,7.42-7,10.35-11.31.9-1.31,1.76-3.49,4.18-2,1.47,2.26,1.14,4.8,1.18,7.27.31,22.81-2.4,45.38-5.6,67.9-1.66,11.67-3.67,23.29-6.13,34.83-.44,2.07-.47,4.39-2.88,5.43-9.84,2.68-19.91,4-30,5.13-1.33.15-3-.72-4,1Z"/><path class="cls-3" d="M357.07,73.07c13.87,6.29,26.37,14.84,38.24,24.22,29.43,23.26,52.53,51.75,68.47,85.78a242.36,242.36,0,0,1,22.44,87.25c3.11,45.61-6.37,88.13-27.27,128.39A199.16,199.16,0,0,1,430.09,441c-2.41-1.21-3.24-3.7-4.51-5.78-19.25-31.53-46.38-52.91-81.74-63.79-7.33-2.25-14.87-3.5-22.3-5.29a48.7,48.7,0,0,0-12.36-3c-5.41-4.15-10.14-9.05-15.12-13.69-.88-2.16-.42-4.45-.68-6.67.11-4.92-.49-9.86.49-14.74.79-2.25,2.76-3.22,4.66-4.25,32.66-17.67,51.61-45.11,58-81.47.58-3.3,2.08-5.45,5.16-6.69,11.17-4.55,16.46-12.74,15.91-24.93-.35-8-.11-16-.06-24,.07-9.92-5-16.55-13.35-21.12-1.6-.88-3.42-1.4-4.22-3.3a33.35,33.35,0,0,1-.31-12.86,201.54,201.54,0,0,0-2.86-70.2C356.33,77.19,355.35,75,357.07,73.07Z"/><path class="cls-4" d="M63.91,440.88C33.1,404.24,14.25,362.24,9.07,314.63.48,235.55,25.3,168.08,81.79,112.31a214.81,214.81,0,0,1,55.14-39.16c1.2,1.31.79,2.8.42,4.23a212.2,212.2,0,0,0-4.55,84.77c-.37,2.09-2.15,2.76-3.71,3.7-8.11,4.91-12.94,11.67-12.7,21.59.21,8.48.1,17,0,25.45-.09,11,5.26,18.24,15.11,22.38,3.37,1.41,5.3,3.42,5.95,7.19,6,34.82,24,61.47,54.39,79.66,2.8,1.67,6.19,2.6,8,5.67,1.25,4.85.48,9.79.65,14.69-.28,1.91.08,3.9-.55,5.78-4.46,5.5-9.81,10.08-15.22,14.61-4.11,1.09-8.3,1.85-12.29,3.35-11.06,2.3-22.06,4.66-32.68,8.71-25.38,9.68-46,25.6-62.48,47A95.3,95.3,0,0,0,67.91,436C66.94,437.83,66.07,439.93,63.91,440.88Z"/><path class="cls-5" d="M132.3,163c-3-6.37-2.75-13.28-3-20-1-23.64.6-47,7.66-69.83C148.57,43.33,171.06,25.71,201,16.87c12.6-3.72,25.84-4.07,38.84-5.64s26-3.11,38-9c2.28-1.12,5-3.56,7.27-1.29,2.49,2.51-.32,5.18-1.4,7.65-.33.73-.82,1.39-1.54,2.59,3.84-.5,6.16-3.12,9.12-4.3,2.58-1,5.54-3.46,7.84-1.93,2.82,1.87,0,5.08-.46,8.18,4.85-.73,9-2.68,13.24-4.18,1.91-.67,3.94-1.77,5.55-.06s.75,3.77.14,5.69c-3.12,9.64-3.12,9.62,4.89,15.45,15.41,11.23,28.9,24,34.57,43.05,5.61,21.08,6.85,42.61,5.75,64.23-.43,8.57-2,17.11-2,25.76-2.52,3.72-4.55,1.55-6.07-.78-1.93-2.95-2.65-6.44-3.36-9.88-1.52-7.35-1.86-14.87-3-22.27-2.24-14.51-6.07-28.36-16.27-39.62-5.18-5.72-11.79-9.75-17.46-14.9a53.34,53.34,0,0,1-9.09-9.9c-2.58-3.93-6-5.26-10.72-4.36A127,127,0,0,1,268,63.55c-9.36-.21-18.61,1.54-27.93,1.07q-23.21-1.16-46.42-1.05c-4.49,0-8.21,1-11,4.57-7.82,10-18.61,17.33-25.12,28.36-10.1,17.1-14.48,36-17,55.51-.38,3-.58,6-2,8.71C137.21,163.19,135.52,165.36,132.3,163Z"/><path class="cls-6" d="M63.91,440.88c11-22.09,27.48-39.26,47.77-52.93,18.28-12.31,38.53-19.56,60.3-22.67.76,2.61-.91,4.46-2.14,6.37-9.77,15.29-19.36,30.7-29.21,45.94-3.81,5.9-3.69,6.87,1.3,12,6.34,6.49,6.33,6.89,1.49,14.34-8.28,12.76-7.62,7.6-2.15,22.5,4.47,12.19,9.45,24.19,14,36.34.63,1.68,1.64,3.34.7,5.24a222.42,222.42,0,0,1-52.75-29.79C88.72,467.26,75.33,455.11,63.91,440.88Z"/><path class="cls-6" d="M322,365.14c41,6.2,73.85,25.7,98.32,59.29A95.52,95.52,0,0,1,430.09,441c-24.8,29.64-55.38,51.41-90.69,66.75a5.79,5.79,0,0,1-1.46.24c-.74-1.29-.34-2.59.09-3.83,3-8.76,6.86-17.22,9.91-26a3.49,3.49,0,0,1,1.59-1.84c8.85-1.17,17.77-1.76,26.66-2.68,1.92-.2,4,.27,6-1.25a45.06,45.06,0,0,0-10.74-7.88c-3.09-1.57-5.72,0-8.34,1.6-3.32,2.08-5.81,5.52-10,6.18-2.25-2.08-1.19-4.49-.09-6.38,4.78-8.25,3.35-15.27-2.61-22.55-5.22-6.37-4.64-7.45,1.18-13.39,5.56-5.67,5.62-6.46,1.26-13.15-9.88-15.15-19.36-30.55-29.13-45.78C322.6,369.31,321.07,367.55,322,365.14Z"/><path class="cls-7" d="M156,508q-9.88-25.29-19.77-50.57A5.91,5.91,0,0,1,137,451c2.71-3.57,5-7.42,7.58-11.12,1.65-2.4,1.64-4.33-.64-6.53-10-9.67-9.74-8.08-1.86-20.42,10.1-15.81,20-31.76,29.94-47.65,4-2.45,8.36-3,12.87-3.08.91,2-.38,3.52-1.23,5.08-5.7,10.36-6.91,21-2.47,32.17.56,1.43,1.82,2.93.52,4.63-1.47,8.73-.83,17.54-.46,26.27.39,9.21,1.77,18.38,2.78,27.56,2,18.36,4.76,36.64,8.47,54.74.49,2.39-.09,5.05,1.53,7.21A170.72,170.72,0,0,1,156,508Z"/><path class="cls-7" d="M350,477l-12,31a170.88,170.88,0,0,1-38,11.88c2-10.35,4.06-20.69,6-31.06,3.57-19.5,5.21-39.25,6.83-59,.69-8.5,1.06-17.19-.49-25.75-1.31-1.67-.2-3.21.42-4.64,4.84-11.16,3.08-21.79-2.35-32.17-.84-1.59-2.12-3.08-1.36-5.1,4.63-.29,9.05.3,13,3q12,19.22,24,38.42c3.27,5.2,6.56,10.39,10,15.47,2.46,3.65,2,6.55-1.1,9.69-7.64,7.82-8.32,8.57-1.42,16.61,6.32,7.36,4.16,13.7.95,20.73-.84,1.84-1.68,3.63-1.47,5.71C353.14,474.2,352,475.83,350,477Z"/><path class="cls-8" d="M198.9,349.22q.14-3,.25-6.08c2.13-.82,3.9.39,5.72,1.08,14.14,5.34,28.64,8.67,43.86,8.38,13.83-.27,27-3.42,39.91-8.2,2-.73,3.85-2.16,6.16-1.13.1,2.22.2,4.43.31,6.65a4.2,4.2,0,0,1,.89,1.76c.53,11.59,1.41,23.22-.54,34.73-1,5.7-4.32,10.38-8.56,14.31-4.7,4.35-10,8.11-13.92,13.26q-26,12.33-52,0c-4.59-5.71-10.83-9.7-15.72-15.11a28.37,28.37,0,0,1-7.74-19.47c0-8,0-16,0-23.95A10.82,10.82,0,0,1,198.9,349.22Z"/><path class="cls-9" d="M198.9,349.22c0,9.11.44,18.24,0,27.32-.62,12.65,5.45,21.57,15.15,28.34,3.5,2.45,5.83,5.13,6.91,9.1-7.55-1.18-13.44,2-18.52,7.15-1.72,1.75-3.1,1.6-5.11.18a56.93,56.93,0,0,1-15.66-17.23c-7.46-14.61-5.6-28.51,3.18-41.88C189,357.26,193.25,352.49,198.9,349.22Z"/><path class="cls-9" d="M273,414c1-4.5,3.95-7.23,7.66-9.82,9.39-6.54,14.86-15.28,14.39-27.31-.35-9,0-18,.08-26.93,5.85,2.68,9.49,7.87,13.84,12.25,8.86,13.36,10.79,27.27,3.29,41.91a58.87,58.87,0,0,1-15.68,17.22c-2,1.44-3.43,1.59-5.11-.17-.57-.59-1.39-1-1.92-1.57C285.09,414.47,279.28,413.51,273,414Z"/><path class="cls-8" d="M132.3,163c4.34,1.06,5.14-2,5.68-5.06,1.71-9.63,2.8-19.35,5.12-28.88,5-20.29,14.52-37.37,29.32-52.71,9.88-10.25,18.76-15.12,33.17-14.21,27.22,1.72,54.58.85,81.85-1a55.33,55.33,0,0,0,8.79-1.58c3.65-.86,6.9,0,8.85,3,5.66,8.73,13.8,14.74,21.81,21,13.2,10.31,19,24.75,22.06,40.63,2.32,11.87,2,24.18,6,35.77,1,2.93,2.11,5.52,5.89,3.1,11.68,3.4,18.05,11.72,18.1,23.74q.06,13.47,0,26.95c-.06,10.84-6.2,19.6-16.47,23-2.68.91-4.17,2-4.58,5C355.13,262,347,279.91,334.52,296c-10.62,13.62-24.09,23.52-39.41,31.13a11.12,11.12,0,0,1-5.43,4.13q-42.67,16.9-85.34,0a10.61,10.61,0,0,1-5.46-4.1c-24.65-11.58-42.39-30-53.84-54.59A99,99,0,0,1,136,241.1c-.25-2.3-1.57-3.29-3.72-4.06-11.77-4.17-17.19-12-17.21-24.49q0-12,0-24C115,175.12,119.73,168.17,132.3,163Z"/><path class="cls-10" d="M198.88,327.14q48.12,22.08,96.23-.05-.15,8.09-.31,16.18c-17.63,8.21-36.22,12.13-55.58,10.65a104.72,104.72,0,0,1-40.07-10.78Z"/><path class="cls-11" d="M350,477a13.88,13.88,0,0,1,2.92-5.25c3.36-2.42,6.74-4.81,10.06-7.28,4-3,7.84-3.09,11.79.1,3.59,2.91,7.29,5.69,12.05,9.38C373.74,475.08,362,477.08,350,477Z"/><path class="cls-12" d="M247.19,226.12c6.65,0,13.3.15,19.94-.06,4-.13,4.1,1.53,2.87,4.52s-3.74,5.15-6.23,7c-10.46,7.6-28.8,5.7-37.56-3.7a11.16,11.16,0,0,1-2.07-2.75c-1.45-3.14-1.56-5.27,3.12-5.05C233.89,226.34,240.55,226.12,247.19,226.12Z"/><path class="cls-13" d="M246.92,284.16c-7.3-.25-14.31-1.37-20.48-5.52-4.19-2.81-7.07-6.55-7.43-11.79a4.08,4.08,0,0,1,3.13-4.53c2.09-.61,3.45.56,4.45,2.31,5,8.81,13.82,13,24.2,11.19,7.19-1.25,14.11-3.08,16.72-11.33a3.31,3.31,0,0,1,4.48-2.12,4,4,0,0,1,2.93,4.18c-.09,4.48-2.27,8-5.6,10.71C262.81,282.6,255,283.9,246.92,284.16Z"/><path class="cls-13" d="M200,142.21a71.36,71.36,0,0,1,14.52,1.69c2.71.58,5,1.84,4.2,5-.77,2.94-3.23,3.34-6,2.7-11.76-2.7-23.09-1.1-34.07,3.65a31.29,31.29,0,0,0-12,8.72c-1.8,2.17-4,3.18-6.4.84-2.16-2.14-1-4.16.61-6.12,8-9.44,18.74-13.41,30.44-15.46C194.53,142.64,197.86,142.45,200,142.21Z"/><path class="cls-13" d="M293.17,142.21c14.34,1.08,28,4,38.5,14.95.57.6,1.15,1.2,1.7,1.82,1.77,2,2.3,4.17.05,6.11-2,1.74-4,1.08-5.72-.7-12.8-13.14-28.61-15.78-45.88-12.94-2.93.49-5.69.72-6.55-2.49-1-3.86,2.19-4.76,5-5.28C284.54,142.92,288.79,142.08,293.17,142.21Z"/><path class="cls-13" d="M194.82,202.12a12,12,0,1,1,12.16-12A12.08,12.08,0,0,1,194.82,202.12Z"/><path class="cls-13" d="M299.1,178.14a12,12,0,1,1-12.14,12A12.1,12.1,0,0,1,299.1,178.14Z"/></g></g></svg>