<svg xmlns="http://www.w3.org/2000/svg" viewBox="0 0 492.94 567.39"><defs><style>.cls-1{fill:#fff;}.cls-2{fill:#fe488d;}.cls-3{fill:#a45728;}.cls-4{fill:#e661a1;}.cls-5{fill:#2a2d51;}.cls-6{fill:#ecb889;}.cls-7{fill:#fefefe;}.cls-8{fill:#db9ab4;}.cls-9{fill:#e397ae;}.cls-10{fill:#d69db7;}.cls-11{fill:#d5e9f1;}.cls-12{fill:#945836;}.cls-13{fill:#935734;}.cls-14{fill:#97552f;}.cls-15{fill:#766e6a;}.cls-16{fill:#d4a57c;}.cls-17{fill:#e3b184;}.cls-18{fill:#fe488e;}.cls-19{fill:#5f4a37;}.cls-20{fill:#604a37;}.cls-21{fill:#be946f;}.cls-22{fill:#be946e;}.cls-23{fill:#bf9570;}.cls-24{fill:#bf956f;}.cls-25{fill:#cda37c;}.cls-26{fill:#cda580;}.cls-27{fill:#d5ae8b;}.cls-28{fill:#caa07b;}.cls-29{fill:#d0a882;}.cls-30{fill:#d8ab81;}.cls-31{fill:#473729;}.cls-32{fill:#c69a74;}.cls-33{fill:#fe4f6c;}.cls-34{fill:#fefcfd;}</style></defs><g id="Layer_2" data-name="Layer 2"><g id="Layer_1-2" data-name="Layer 1"><circle class="cls-1" cx="246.47" cy="320.92" r="246.47"/><path class="cls-2" d="M429.43,474c.05,1.93-1.49,2.91-2.56,4.1-36.83,41.23-82.17,67.5-136.65,77.71a217.33,217.33,0,0,1-21.72,3c-.81.07-1.68,0-2,1h-7a17,17,0,0,0-9,0h-8a19.93,19.93,0,0,0-10,0h-7c-7.34-2.68-15.19-2.53-22.76-4-54.45-10.35-99.79-36.55-136.63-77.76-1.07-1.2-2.57-2.2-2.66-4.08-1.07-1.95,0-3.53.94-5.09,16.91-27.83,39.93-48.9,70-61.57a131.94,131.94,0,0,1,33.16-8.78,16.23,16.23,0,0,0,5.88-.6c1.77-.44,3.51-1.17,5.39-.61,2.45,1,2.92,3,3,5.33-.76,15.85,8.54,25.95,21,32.57,29.58,15.72,59.74,15.34,89.54.06,6.45-3.31,11.49-8.5,15.75-14.37,4.1-5.66,5.36-12.09,5-18.94a5.23,5.23,0,0,1,1.38-3.56c3.74-2.25,7.56-.31,11.12.28,28.06,4.68,52.81,16.1,73.82,35.71,11.17,10.43,21,21.71,28.57,34.95C428.83,470.76,430.14,472.08,429.43,474Z"/><path class="cls-3" d="M255.46,0c7.38,2.58,15,4.22,21.73,8.8,13.16,9.05,18.47,23.18,13.27,36.71-1.56,4.07-4.61,7.17-7.31,11,27.29,7.9,50.16,21.19,63.92,46.8,2.17,1,3,3,4,4.93a150.76,150.76,0,0,1,14.2,54.6c.62,9.32,1,18.57-1,27.76-.42,1.93-.61,4-2,5.56a3,3,0,0,1-3.07,1c-3.07-2.1-3-5.34-3.09-8.52-.15-5,.44-10-.41-14.9-4.93-38.93-26.94-65-61.61-81.36-9.85-4.63-20.79-5.6-31.4-7.56a144.51,144.51,0,0,0-24.26,0c-9.24,2-18.73,2.69-27.92,5-21.13,5.43-38.15,16.61-50.1,35.17-6.73,10.47-14.11,20.51-18.65,32.28-2.84,7.39-3.21,15.25-5.22,22.77-.87,3-1.07,5.93.32,8.83a9.51,9.51,0,0,1,.42,7.38c-1.17,1.8-2.78,1.9-4.6,1.2-4-3.93-3.88-9.17-4.48-14.18a14.66,14.66,0,0,0-.58-5.58c-1.2-15.47,1.77-30.33,6.75-44.87a158.83,158.83,0,0,1,10.15-23.75c1.64-3.08,3.32-6.13,6.17-8.32,7.8-12.06,16.71-23.14,28.57-31.53,9.08-6.43,19.31-10.09,30.32-12.6-2.16-3.89-5.64-6.86-7.1-11.2-4.73-14,0-27.6,13-36.33A46.67,46.67,0,0,1,236,1c.7-.08,1.28-.22,1.48-1Z"/><path class="cls-4" d="M232.47,559.81a11.2,11.2,0,0,1,10,0Z"/><path class="cls-4" d="M250.46,559.81a9.06,9.06,0,0,1,9,0Z"/><path class="cls-5" d="M150.61,100.75c-7.89,13.86-14.49,28.26-18.33,43.8-2.7,11-4.28,22.07-3.59,33.41.79,1.62-.27,3.53.78,5.11.36,4.65,1.11,9.21,3.3,13.41-.34,1.65-1.84,1.85-3,2.17A15.57,15.57,0,0,0,120.1,206a22.42,22.42,0,0,0-4.21,14c0,8.12.47,16.27-.1,24.35-.92,13.17,4.93,21.49,16.92,26.05a4.74,4.74,0,0,1,2.45,2c1.44,3.4,1.74,7.08,2.57,10.63q11.76,50.14,56.85,75c1.87,1,4.08,1.63,4.92,3.95.9,5.06.41,10.15.45,15.23.2,5,.2,9.95.08,14.93-.14,6.05-1.26,7.14-7.45,7.26a55,55,0,0,1-10.42-.29c-1.2-.45-2.45-.71-3.67-1.09l-5.08,1c-1.91.93-4.12-.31-6,.82-5.63,0-10.95,2-16.2,3.43-22.35,6-42.22,16.62-58.81,33.12-10.2,10.14-19.93,20.57-27.06,33.16-.81,1.43-1.81,2.75-1.92,4.47-8.61-9-15.44-19.31-21.88-29.85A234.93,234.93,0,0,1,10.68,363a243.47,243.47,0,0,1,14.9-135.89,237,237,0,0,1,38.84-62.86,244.46,244.46,0,0,1,73.08-57.86A64.37,64.37,0,0,1,150.61,100.75Z"/><path class="cls-5" d="M360.94,195.83c2.74-5.53,3.29-11.54,3.37-17.53a153.89,153.89,0,0,0-6.47-47.9,207.8,207.8,0,0,0-10.77-27.13c7.42,1,13.17,5.73,19.35,9.22A230.49,230.49,0,0,1,423.06,158a239,239,0,0,1,56.46,106.17,229.09,229.09,0,0,1,6.64,55.46,239.32,239.32,0,0,1-15.43,84.72,249.08,249.08,0,0,1-39.4,68.17,10.79,10.79,0,0,1-1.9,1.47,132.33,132.33,0,0,0-22.52-30.88c-13.3-13.76-28.46-25.24-46.13-33-11.42-5-23.46-8.06-35.69-10.14-3.12-.53-6.28-2-9.61-1.15-2.07-.13-4.05.72-6.13.61-3.16.08-6.31.14-9.46,0-5.75-.22-6.85-1.32-7-7.21-.11-5-.14-9.95.07-14.92,0-5.07-.44-10.16.42-15.21.77-2.32,3-3,4.82-4A114.38,114.38,0,0,0,344,312.7c6.42-11.46,9.89-23.87,12.09-36.71.25-1.47.13-3,1.08-4.3a14.12,14.12,0,0,1,3.44-1.91c9.54-3.74,17.76-11.88,16.57-24.42-.73-7.75-.09-15.63-.15-23.46,0-5.58-1-10.93-4.34-15.62a16.92,16.92,0,0,0-8.39-7.3C362.8,198.42,361.08,197.91,360.94,195.83Z"/><path class="cls-6" d="M294.27,376.93c.06,5.8.27,11.61.11,17.41-.08,2.89.91,3.69,3.68,3.58,4.14-.16,8.29.06,12.43.12,2.47,0,3.73,1.29,3.77,3.77,1.5,16.68-8.12,27.35-21.09,34.37-30.16,16.31-61.21,16.29-91.39,0-12.62-6.8-22.17-17.14-21.17-33.36,1-1.45-.36-3.38.94-4.78,4.63-.06,9.26-.24,13.88-.14,2.38,0,3.13-.77,3.1-3.12-.08-6,.07-11.9.13-17.85,2.14-.75,3.88.5,5.71,1.19,14.62,5.47,29.58,8.92,45.34,8.38,13.49-.45,26.3-3.74,38.85-8.38C290.39,377.45,292.13,376.19,294.27,376.93Z"/><path class="cls-7" d="M286.49,499.07c-.14,4.17-1,7.64-3.87,10.35-1.51,1.44-3.28,2.47-5.39,2-11.64-2.67-18.69,5-26,11.73-3.14,2.92-5.1,7.23-10.63,4.92-1.94-.81-1.9,1.16-2.2,2.4-.66,2.74-1.18,5.53-2.08,8.19a4.41,4.41,0,0,1-4.63,3.11c-2.08-.09-3.26-1.37-4.17-3.1-4.32-8.16-4.32-8.13-13-4.1-2.38,1.11-5.08,2.81-7.3.22-2.07-2.43,0-4.74,1.35-6.74a235.58,235.58,0,0,0,27.84-56.7c1.29-3.78,4.5-6.44,4.79-11,.13-2.07,5.11-3.06,8.45-2.27a39.3,39.3,0,0,1,15.1,7.45C275,473.46,283.14,482.93,286,496,286.21,497.15,286.36,498.3,286.49,499.07Z"/><path class="cls-8" d="M314.26,401.81a6.16,6.16,0,0,0-3.77-3.77c1.69,0,3.54-1,5,.73C314.17,399.42,314.47,400.72,314.26,401.81Z"/><path class="cls-9" d="M181.55,398.05c-.28,1.6.5,3.41-.94,4.79,0-1.93-.13-3.77-2.12-4.81Z"/><path class="cls-10" d="M167.41,399.82c1.79-1.77,4-.74,6-.82C171.56,400.4,169.44,399.78,167.41,399.82Z"/><path class="cls-6" d="M136.61,196c-.24-2.39.25-4.91-1.22-7.09a23.52,23.52,0,0,1,0-8.89c2.34-27.21,17-48.42,33.94-68.26,12.37-14.5,29.43-21,47.66-24.7,6.8-1.36,13.71-2.16,20.58-3.21a196.05,196.05,0,0,1,25.88,0c20.77,2.14,40,8.38,56.08,22.17,16.61,14.24,28.95,31.55,35.24,52.71,1.35,4.54,1.26,9.51,1.84,14.28,1,5.3-.45,10.74.83,16a12.21,12.21,0,0,0,1.85,7.72c-4,1.67-8.62,1.53-11.57-1-4.68-4-10-6-15.48-8.19-3.63-4.28-6.34-9.23-10.54-13.14-10.32-9.61-27.55-12.45-43.66-5,6.22.43,12,.09,17.72,1.5a57.65,57.65,0,0,1,24.18,12.27c1.17,1,4.06,1.91,1.79,4.53a19.67,19.67,0,0,1-9.38.56c-12.6-1.6-25.24-.58-37.86-.77-5-.07-9.53,1.45-12.72,5.68a5.64,5.64,0,0,1-6.54,2.32,35.06,35.06,0,0,0-17.27-.14c-2.88.66-5.21.2-7-2.34-3-4.21-7.43-5.56-12.24-5.5-12.62.15-25.26-.87-37.86.74a21.62,21.62,0,0,1-9.39-.46c-2.48-2.09,0-3.22,1.08-4.17a55.85,55.85,0,0,1,33.93-14c2.64-.15,5.3.28,8-.31-12-7.43-32-4.89-43.12,5.1-4.27,3.85-6.93,8.86-10.58,13.15-5.54,2.32-11.39,3.84-15.91,8.42C142.8,198.05,139.36,198,136.61,196Z"/><path class="cls-11" d="M332.35,186.89c5.86,1.24,11.22,3,15.63,7.7,2.74,2.89,7.51,1.25,11.27,2.16.84.2,1.31-.28,1.69-.92,4.25,2.79,9.83,3.79,12.21,9.1a5.93,5.93,0,0,1-1.39,4.15c-3.39,2.82-7.28,3.45-11.52,2.66-2.24-.41-4.4-.61-4.52,2.65-1,5.45-1.37,11.05-3.38,16.3-4.34,7.87-8.81,15.6-15.69,21.68-17.2,15.21-41.15,12.94-57.92.13-7-5.32-11.73-12.14-15.37-19.93a76.13,76.13,0,0,1-3.16-9.35c-.47-2.2-1.06-4.38-1.65-6.55-.6-2.4-.17-4.93-.94-7.31-4.52-7.69-16.24-8.05-22.24-.65-.92,4.38-1,8.91-2.31,13.22-.41,1.67-.92,3.31-1.31,5a18.34,18.34,0,0,1-1.21,3.45c-.75,1.53-1.53,3-2.22,4.61-9.25,17.2-23.62,27.06-43.1,28-13.28.64-24.78-4.76-33.55-14.9-4.23-4.89-8.17-10.13-10.39-16.36-.65-2.16-1.42-4.27-2.12-6.41a21.9,21.9,0,0,1-1-4.45c-.28-2.25-.92-4.45-1-6.73-.38-3.69-3-2.68-5.18-2.4-4,.52-7.83.39-11-2.63a6.35,6.35,0,0,1-1.41-4.21c2.66-5.53,8-6.86,13.18-8.4a3.51,3.51,0,0,0,3.85-.5c4.21.42,7.74-.17,10.86-3.81s8.43-4.07,13-5.25c3.33-1.84,6.69-2.25,10.08-.16,15.28-.27,30.56-.6,45.84-.8,6.63-.08,13.1.47,16.5,7.6.79,1.66,2.11,1,3.43.64,6.71-1.75,13.45-2.18,20.1.22,1.79.65,2.74.19,3.61-1.39,3.15-5.69,8.56-7.1,14.42-7.05,15.95.16,31.9.51,47.84.79C325.68,184.69,329,185.07,332.35,186.89Z"/><path class="cls-12" d="M263.41,83.84H237.53A78.06,78.06,0,0,1,263.41,83.84Z"/><path class="cls-13" d="M357.4,189c-1.9-5.26-.7-10.68-.83-16C358.39,178.26,357,183.69,357.4,189Z"/><path class="cls-14" d="M135.35,180c0,3,0,5.93,0,8.89A10.23,10.23,0,0,1,135.35,180Z"/><path class="cls-15" d="M129.47,183.07c-1.67-1.49-.75-3.37-.78-5.12C130,179.51,129.42,181.33,129.47,183.07Z"/><path class="cls-6" d="M351.4,230.83l3.12-17c2.42-1.88,5.07-.91,7.67-.63,4.9.52,7.32-.83,9.39-5.17.52-1,1-2.08,1.57-3.12,4.07,4.36,5.11,9.82,5.22,15.45.17,8.82-.58,17.7.2,26.45,1,11-6.57,20.32-18.06,24.13-3.08-.77-3.11-.86-2.12-6.23-1.17,2.3.27,5-.92,7.28-1,14.92-5.5,28.79-12.65,41.78a113.87,113.87,0,0,1-35.68,39.28c-4.45,3.06-9.14,6.3-14.56,7.86-3.5,4.66-9.08,5.39-14,7-25.69,8.32-51.12,7.08-76.2-2.79-2.36-.93-4.57-2-6-4.2-11.12-4.39-20.35-11.44-29-19.59a112.36,112.36,0,0,1-31-50.93,114.41,114.41,0,0,1-3.64-17.55,38.65,38.65,0,0,0,.34-6.95c-.29-1.87-1.25-1-.64-1.25.26-.12.46,0,.43.23-.31,2.42,1.92,5.69-2.26,6.83-8.52-2.82-14.89-7.87-17.38-16.88a12.94,12.94,0,0,1-.61-3.88c.5-12.86-1.22-25.76.89-38.6.51-3.09,2.24-5.27,4.12-7.48,1.18.73,1.26,2.06,1.73,3.18,1.33,4,4.38,5.7,9.48,5.15,2.56-.27,5.15-1.24,7.53.61l1,7.19c-.8,1.63,0,3,.67,4.42.21,2.36,1.23,4.48,2,6.68a58.47,58.47,0,0,0,18.87,24.55c10.18,7.59,21.69,9.5,34,6.29,15.25-4,25.78-13.72,32.92-27.47.7-1.81,2-3.41,1.9-5.5.33-1,.66-2.07,1-3.1,1-1.49,2-3,1.12-4.89l2.64-14.15a9.66,9.66,0,0,0,3.76-1.05c7.24-3.25,14-2.19,20.48,2.12,1.49,2.48.66,5.24,1,7.87.76,1.9.2,4.12,1.38,5.92a41.89,41.89,0,0,0,3,10.05c8,17.61,21,28.86,40.62,31.32,11.15,1.4,21-2.15,29.59-9.22C342,248.38,347.43,240.13,351.4,230.83Z"/><path class="cls-16" d="M198.35,360.93q48.12,22.17,96.23,0-.15,8-.31,16-47.81,22.17-95.61,0Q198.51,368.93,198.35,360.93Z"/><path class="cls-17" d="M132.56,271.72c3.26-1.81,1.13-5.37,2.83-8.69-.09,3.89.89,6.92-.7,9.83C134.32,271.84,133.36,271.94,132.56,271.72Z"/><path class="cls-17" d="M357.47,272v-8.55c2.21,2.53-1.05,6.38,3,7.5C359.85,272.35,358.49,271.67,357.47,272Z"/><path class="cls-18" d="M271.21,505.45c-4,1.6-8.06,3.06-12,4.86s-7.41,3.89-10.05,7.23-4.61,6.66-9.94,4.37c-2.31-1-4.28,1.44-4.94,3.89-.82,3-1.38,6.15-2.56,9.32-1.2-2.85-6-5.07.07-9-6.48-.61-11.5,1.24-17.32,2.58,1.75-3.17,1.9-6.66,6.66-4.94,3.12,1.13,5.48-.89,6.65-3.82,1.1-2.75,1.59-5.66-1.62-7.43-1.58-.88-1.64-1.63-.89-3.09,2.27-4.41,4.41-8.88,6.8-13.72,3,4.63,6.93,5.11,11.43,3.11,3.7-1.64,6.05-4.4,5.82-8.48-.27-4.71-2.14-8.68-7-10.62-1.07-.43-3.16-.2-2.64-2.2s1.18-4,2.5-5.28c1-.95,2,1.24,3.14,1.83C259.63,481.46,262.42,490.52,271.21,505.45Z"/><path class="cls-18" d="M276,507.48c-5.23-17-13.84-30.88-30.47-38.4-3.12-1.41-3.19-4.05-2.65-6.13.61-2.34,2.83-.36,4.18-.06,16.59,3.74,26.33,15.22,32.88,29.91C283.09,499.93,281.59,504.15,276,507.48Z"/><path class="cls-19" d="M170.57,186.76l-10.08.16c8.87-18.63,26.75-26.72,47.79-21.55,2.57.63,5.09,1.47,7.61,2.29.92.29,2.24.61,2.08,1.78-.21,1.53-1.67,1.22-2.8,1.24a91.65,91.65,0,0,0-14.87,1C188.83,173.72,179.1,179,170.57,186.76Z"/><path class="cls-19" d="M332.35,186.89l-10-.12a59.38,59.38,0,0,0-44.08-16.12c-1.24,0-2.93.58-3.3-1.2-.23-1.14,1.15-1.47,2.05-1.8C298.21,159.93,320.66,163,332.35,186.89Z"/><path class="cls-6" d="M339.39,210.92c.3,14.93-3.95,28-16.5,37s-41.71,2.52-46.38-15.29c7.18-7.85,16.34-10.31,26.56-9.53,4.67.36,9,2.18,13.28,4.24.91-1.6-.3-2.31-1-3.06-9.45-10.64-27.3-9.87-36,1.5-1.18,1.55-1.88,3.59-4.06,4.19-2.64-7.81-5-15.65-3-24.05a9.42,9.42,0,0,1,6.86-2.47c16.13.3,32.3-1,48.38,1.11C332.24,205.18,337.58,204.88,339.39,210.92Z"/><path class="cls-6" d="M220.5,207.92c5,17.25-9.14,39.35-26.85,43.08-24.78,5.22-36.69-11.65-40-31.94-.41-2.55-2.21-5.4-.2-8.13.93-3.46,3.41-5.1,6.74-5.73A100.16,100.16,0,0,1,176,203.51c12.42-.32,24.85-.11,37.27-.1C216.65,203.41,219.55,204.07,220.5,207.92Z"/><path class="cls-20" d="M275.36,230c7.32-15.49,25.91-18.17,37-10.12a15.23,15.23,0,0,1,3,2.55c1.59,2,4.95,4.06,3.17,6.51s-3.86-1.06-5.77-1.87c-11.09-4.69-21.62-3.87-31.72,2.69-1.52,1-3.07,1.94-4.6,2.9C276.13,231.75,275.75,230.86,275.36,230Z"/><path class="cls-21" d="M351.4,230.83c-2.3,14.26-20.26,31.42-34.79,34.11-24.17,4.46-47.1-12.71-53.17-32-.48-1,0-1.13.87-1,6.9,14.75,18,24.5,33.95,28.39,19.79,4.85,38.6-4.19,49.19-23.37C348.62,234.88,349,232.2,351.4,230.83Z"/><path class="cls-22" d="M228.49,234.93c-6.82,16.74-19.41,26.53-36.91,29.93-24.52,4.77-43.13-13-50.11-32.93-.48-1,0-1.11.85-.92,7,14.76,16.75,26.46,33.76,29.77,19.31,3.77,39.87-6.13,49.82-23.75.58-1,1.14-2,1.71-3.05C228.45,233.8,229,233.9,228.49,234.93Z"/><path class="cls-21" d="M220.5,207.92c-1.58-2.49-3.84-3.13-6.73-3.09-12.58.15-25.15-.08-37.72.2-5.23.11-10.43,1.22-15.66,1.71a9.67,9.67,0,0,0-6.93,4.19c-.2-5.07,2.32-7.44,7.28-8.21,18-2.79,36.06-1.81,54.12-1.86C219.43,200.84,220.71,203.89,220.5,207.92Z"/><path class="cls-21" d="M339.39,210.92c-2.88-4.69-7.87-4.35-12.33-4.95-13.7-1.83-27.5-.89-41.26-1.07-4.5-.06-9-.37-13.45,1,.46-3.28,2.3-5.12,5.64-5.09,18,.14,36.09-.91,54,1.89C337.06,203.5,339.32,206.05,339.39,210.92Z"/><path class="cls-23" d="M258.56,208.91a1.23,1.23,0,0,1-1.74.19c-6.64-3.77-13.33-4.13-20.08-.29-1.24.7-2.17.74-2.42-1,3.29-5.38,8.72-6.15,14.05-5.45C252.4,202.92,257.47,203.19,258.56,208.91Z"/><path class="cls-24" d="M138.32,213.82c-4.82-.46-9.68,2.35-14.48-.23-2.3-1.23-4.59-2.36-2.53-5.53,3.76,3.36,8.15,2.82,12.58,2C136.87,209.52,139.36,209.61,138.32,213.82Z"/><path class="cls-23" d="M371.58,208.05c.65,4.39-3.38,7.66-8.82,6.64a56.14,56.14,0,0,0-8.24-.84c-.94-4.14,1.43-4.45,4.45-3.73C363.49,211.19,367.75,211,371.58,208.05Z"/><path class="cls-25" d="M264.31,232l-.87,1c-2.05-3-2.38-6.56-3-10,.31-.48.6-.45.88,0Q262.83,227.46,264.31,232Z"/><path class="cls-26" d="M142.32,231c-.28.31-.56.62-.85.92a10.13,10.13,0,0,1-1.94-7c.24-.4.47-.38.71,0C140.93,227,141.63,229,142.32,231Z"/><path class="cls-27" d="M261.33,222.94l-.88,0c-1.2-1.91-1.05-4-.93-6.14C260.82,218.63,260.81,220.86,261.33,222.94Z"/><path class="cls-28" d="M228.49,234.93l-.88-1c.66-1.33,1.31-2.67,2-4C231,232,229.37,233.39,228.49,234.93Z"/><path class="cls-29" d="M231.68,222c1.51,2.06.91,3.64-1.12,4.89Q231.13,224.44,231.68,222Z"/><path class="cls-30" d="M140.24,224.93h-.71c-1.42-1.22-1.38-2.54-.23-3.92C139.61,222.32,139.92,223.63,140.24,224.93Z"/><path class="cls-31" d="M221.39,322.11a33.85,33.85,0,0,1-11.9-19.66c-1.61-7.27-.45-8.58,7-8.49,3.59,7.75,10.05,9,17.8,8.61a253.27,253.27,0,0,1,26.43,0c7.75.4,14.21-.86,17.79-8.61,5.08.43,6.17,1.74,5.3,6.48-1.58,8.63-5.48,15.94-12.31,21.57-1.93-.07-3.43-1.18-5-2.07a19.75,19.75,0,0,0-15.89-1.81c-2.09.63-4.21,1.2-6.35.45a21.5,21.5,0,0,0-20,2.66A6.29,6.29,0,0,1,221.39,322.11Z"/><path class="cls-32" d="M246.45,259.91c6.65,0,13.31.18,19.95-.06,4.24-.16,4.41,1.63,3,4.76-1.27,2.85-3.61,4.82-6,6.58-10.44,7.81-29.23,5.86-38-3.73a12.08,12.08,0,0,1-2.28-3.77c-1.24-3.05-.11-3.85,2.81-3.81C232.82,260,239.64,259.91,246.45,259.91Z"/><path class="cls-33" d="M221.39,322.11c6.14-5.91,13.36-7.63,21.45-5.18a11.39,11.39,0,0,0,7.14,0c8.06-2.51,15.29-.81,21.48,5-11.62,9.89-24.63,12.71-39.06,7.35C228.24,327.82,224.17,325.88,221.39,322.11Z"/><path class="cls-7" d="M278.47,294c-1.23,7-4.42,9.9-11.32,9.92q-19.68.08-39.37,0c-6.91,0-10.09-2.88-11.33-9.92Z"/><path class="cls-7" d="M240.05,503.24c6.11,0,9.46,2.45,9.54,7.08.09,5-3.8,9.44-8.28,9.53-4.69.08-9.82-4.89-9.82-9.54C231.48,506,234.81,503.28,240.05,503.24Z"/><path class="cls-34" d="M264.56,500.91c-.4,3.28-3,5.22-6.57,5.63s-6.88-3.56-6.47-7.86c.31-3.2,1.06-6.48,5.08-6.95C259.32,491.42,264.64,497.3,264.56,500.91Z"/><path class="cls-19" d="M194.67,235.91a12,12,0,1,1,11.8-12.29A12.09,12.09,0,0,1,194.67,235.91Z"/></g></g></svg>