<?xml version="1.0" encoding="utf-8"?>
<!-- Generator: Adobe Illustrator 21.1.0, SVG Export Plug-In . SVG Version: 6.00 Build 0)  -->
<svg version="1.1" id="Layer_1" xmlns="http://www.w3.org/2000/svg" xmlns:xlink="http://www.w3.org/1999/xlink" x="0px" y="0px"
	 viewBox="0 0 32 32" style="enable-background:new 0 0 32 32;" xml:space="preserve">
<style type="text/css">
	.st0{fill:#FFD93B;}
	.st1{fill:#3E4347;}
	.st2{fill:#F4C534;}
	.st3{fill:#38C0DC;}
	.st4{fill:#45CBEA;}
	.st5{fill:#FFFFFF;}
	.st6{fill:#E24B4B;}
	.st7{fill:#5A5F63;}
	.st8{opacity:0.3;}
	.st9{opacity:0.2;}
	.st10{opacity:0.1;}
	.st11{fill:#E9B02C;}
	.st12{fill:#65B1EF;}
	.st13{fill:#E9EFF4;}
	.st14{fill:#8CC63E;}
	.st15{fill:#7FB239;}
	.st16{fill:#D03F3F;}
	.st17{fill:#D23F77;}
	.st18{fill:#E84D88;}
	.st19{fill:#59A5E0;}
	.st20{fill:#DEE4E9;}
	.st21{fill:#D3D9DD;}
	.st22{opacity:0.25;fill:#FFFFFF;}
	.st23{fill:#9A795F;}
	.st24{fill:#F29A2E;}
	.st25{fill:#FC97B2;}
	.st26{fill:#89664C;}
	.st27{fill:#7A5B44;}
	.st28{opacity:0.2;fill:#FFFFFF;}
	.st29{fill:#4E99D2;}
	.st30{fill:#BBC7D1;}
	.st31{fill:#DE9C25;}
</style>
<g>
	<g>
		<g>
			<g>
				<g>
					<g>
						<g>
							<g>
								<g>
									<g>
										<g>
											<g>
												<g>
													<g>
														<g>
															<g>
																<g>
																	<g>
																		<g>
																			<g>
																				<g>
																					<g>
																						<g>
																							<g>
																								<circle class="st0" cx="16" cy="16" r="16"/>
																							</g>
																						</g>
																					</g>
																				</g>
																			</g>
																		</g>
																	</g>
																</g>
																<g>
																	<g>
																		<g>
																			<g>
																				<g>
																					<g>
																						<g>
																							<g>
																								<path class="st2" d="M32,16c0,8.84-7.165,16-16,16c-5.03,0-9.52-2.32-12.455-5.955
																									c2.745,2.22,6.24,3.545,10.045,3.545c8.835,0,16-7.16,16-16c0-3.805-1.325-7.3-3.545-10.045
																									C29.675,6.48,32,10.97,32,16z"/>
																							</g>
																						</g>
																					</g>
																				</g>
																			</g>
																		</g>
																	</g>
																</g>
															</g>
														</g>
													</g>
												</g>
											</g>
										</g>
									</g>
								</g>
							</g>
						</g>
					</g>
				</g>
			</g>
		</g>
	</g>
	<path class="st1" d="M18.964,13.823c0.35,1.442,1.625,2.45,3.103,2.45c1.48,0,2.76-1.008,3.11-2.451
		c0.097-0.402,0.5-0.648,0.905-0.552c0.402,0.098,0.649,0.503,0.552,0.906c-0.515,2.117-2.393,3.596-4.567,3.596
		c-2.173,0-4.048-1.479-4.56-3.597c-0.098-0.403,0.149-0.808,0.552-0.905C18.471,13.172,18.869,13.428,18.964,13.823z"/>
	<path class="st1" d="M6.823,13.823c0.35,1.442,1.625,2.45,3.103,2.45c1.48,0,2.76-1.008,3.11-2.451
		c0.098-0.402,0.502-0.648,0.905-0.552c0.402,0.098,0.649,0.503,0.552,0.906c-0.515,2.117-2.393,3.596-4.567,3.596
		c-2.173,0-4.048-1.479-4.56-3.597c-0.098-0.403,0.149-0.808,0.552-0.905C6.33,13.172,6.727,13.428,6.823,13.823z"/>
	<path class="st1" d="M19.727,24.106c0,2.063-1.673,3.726-3.725,3.726c-2.063,0-3.726-1.663-3.726-3.726
		c0-2.053,1.663-3.726,3.726-3.726C18.054,20.38,19.727,22.053,19.727,24.106z"/>
	<g>
		<path class="st6" d="M21.608,6.588v0.883h-3.463V6.675c0.271-0.315,1.696-1.959,1.985-2.239c-0.332,0.018-1.495,0-1.845,0V3.597
			h3.209v0.726c-1.705,1.967-1.285,1.478-2.002,2.265C20.095,6.553,19.877,6.588,21.608,6.588z"/>
		<path class="st6" d="M28.051,5.059v1.225h-4.802V5.18c0.376-0.437,2.352-2.716,2.753-3.104c-0.461,0.024-2.074,0-2.559,0V0.911
			h4.45v1.006c-2.365,2.728-1.783,2.049-2.777,3.141C25.953,5.01,25.65,5.059,28.051,5.059z"/>
	</g>
	<path class="st2" d="M26.6,12.762l-5.904-2.213c-0.349-0.131-0.526-0.52-0.395-0.869c0.131-0.349,0.519-0.526,0.869-0.395
		l5.904,2.213c0.349,0.131,0.526,0.52,0.395,0.869S26.949,12.893,26.6,12.762z"/>
	<path class="st2" d="M5.4,12.762l5.904-2.213c0.349-0.131,0.526-0.52,0.395-0.869c-0.131-0.349-0.519-0.526-0.869-0.395
		l-5.904,2.213c-0.349,0.131-0.526,0.52-0.395,0.869C4.662,12.716,5.051,12.893,5.4,12.762z"/>
</g>
</svg>
