<?xml version="1.0" encoding="utf-8"?>
<!-- Generator: Adobe Illustrator 21.1.0, SVG Export Plug-In . SVG Version: 6.00 Build 0)  -->
<svg version="1.1" id="Layer_1" xmlns="http://www.w3.org/2000/svg" xmlns:xlink="http://www.w3.org/1999/xlink" x="0px" y="0px"
	 viewBox="0 0 32 32" style="enable-background:new 0 0 32 32;" xml:space="preserve">
<style type="text/css">
	.st0{fill:#FFD93B;}
	.st1{fill:#3E4347;}
	.st2{fill:#F4C534;}
	.st3{fill:#38C0DC;}
	.st4{fill:#45CBEA;}
	.st5{fill:#FFFFFF;}
	.st6{fill:#E24B4B;}
	.st7{fill:#5A5F63;}
	.st8{opacity:0.3;}
	.st9{opacity:0.2;}
	.st10{opacity:0.1;}
	.st11{fill:#E9B02C;}
	.st12{fill:#65B1EF;}
	.st13{fill:#E9EFF4;}
	.st14{fill:#8CC63E;}
	.st15{fill:#7FB239;}
	.st16{fill:#D03F3F;}
	.st17{fill:#D23F77;}
	.st18{fill:#E84D88;}
	.st19{fill:#59A5E0;}
	.st20{fill:#DEE4E9;}
	.st21{fill:#D3D9DD;}
	.st22{opacity:0.25;fill:#FFFFFF;}
	.st23{fill:#9A795F;}
	.st24{fill:#F29A2E;}
	.st25{fill:#FC97B2;}
	.st26{fill:#89664C;}
	.st27{fill:#7A5B44;}
	.st28{opacity:0.2;fill:#FFFFFF;}
	.st29{fill:#4E99D2;}
	.st30{fill:#BBC7D1;}
	.st31{fill:#DE9C25;}
</style>
<g>
	<g>
		<g>
			<g>
				<g>
					<circle class="st0" cx="16" cy="16" r="16"/>
				</g>
			</g>
		</g>
	</g>
	<g>
		<g>
			<g>
				<g>
					<path class="st2" d="M32,16c0,8.84-7.165,16-16,16c-5.03,0-9.52-2.32-12.455-5.955c2.745,2.22,6.24,3.545,10.045,3.545
						c8.835,0,16-7.16,16-16c0-3.805-1.325-7.3-3.545-10.045C29.675,6.48,32,10.97,32,16z"/>
				</g>
			</g>
		</g>
	</g>
	<g>
		<g>
			<path class="st5" d="M25.869,8.503c1.297,0.907,2.147,2.407,2.147,4.106c0,2.777-2.237,5.014-5.014,5.014
				c-3.125,0-5.53-2.842-4.916-5.977C19.585,9.907,23.726,8.592,25.869,8.503z"/>
		</g>
	</g>
	<g>
		<g>
			<path class="st1" d="M17.675,11.486l-0.717-1.156c-0.197-0.317-0.1-0.733,0.218-0.93c0.316-0.196,0.734-0.099,0.929,0.218
				l0.34,0.547c2.338-1.524,5.53-2.255,8.707-1.96c0.371,0.034,0.645,0.363,0.61,0.734c-0.034,0.371-0.36,0.645-0.733,0.61
				c-1.17-0.108-5.24-0.274-8.37,2.116C18.343,11.907,17.885,11.827,17.675,11.486z"/>
		</g>
	</g>
	<g>
		<g>
			<g>
				<circle class="st1" cx="22.773" cy="14.473" r="2.187"/>
			</g>
		</g>
	</g>
	<g>
		<g>
			<g>
				<path class="st5" d="M21.756,13.324c-0.246,0.263-0.32,0.599-0.171,0.747c0.156,0.141,0.482,0.059,0.728-0.204
					c0.254-0.254,0.312-0.591,0.155-0.748C22.313,12.976,21.995,13.068,21.756,13.324z"/>
			</g>
		</g>
	</g>
	<g>
		<g>
			<path class="st5" d="M6.131,8.503C4.834,9.41,3.984,10.91,3.984,12.609c0,2.777,2.237,5.014,5.014,5.014
				c3.125,0,5.53-2.842,4.916-5.977C12.415,9.907,8.274,8.592,6.131,8.503z"/>
		</g>
	</g>
	<g>
		<g>
			<path class="st1" d="M13.341,11.666c-3.126-2.39-7.193-2.225-8.37-2.116C4.598,9.582,4.272,9.31,4.238,8.939
				c-0.034-0.372,0.239-0.7,0.61-0.734c3.174-0.292,6.369,0.437,8.707,1.96l0.34-0.547c0.194-0.316,0.61-0.416,0.929-0.218
				c0.317,0.197,0.415,0.613,0.218,0.93l-0.717,1.156C14.114,11.828,13.656,11.906,13.341,11.666z"/>
		</g>
	</g>
	<g>
		<g>
			<g>
				<circle class="st1" cx="9.227" cy="14.473" r="2.187"/>
			</g>
		</g>
	</g>
	<g>
		<g>
			<g>
				<path class="st5" d="M10.244,13.324c0.246,0.263,0.32,0.599,0.171,0.747c-0.156,0.141-0.482,0.059-0.728-0.204
					c-0.254-0.254-0.312-0.591-0.155-0.748C9.687,12.976,10.005,13.068,10.244,13.324z"/>
			</g>
		</g>
	</g>
	<g>
		<g>
			<g>
				<g>
					<g>
						<path class="st1" d="M22.535,26.236c-4.352-0.816-8.715-0.816-13.077,0c-0.523,0.109-0.965-0.414-0.824-0.98
							c1.055-3.984,3.878-6.105,7.296-6.105c3.418,0,6.385,2.121,7.43,6.116C23.5,25.822,23.057,26.344,22.535,26.236z"/>
					</g>
				</g>
			</g>
		</g>
	</g>
	<g>
		<path class="st5" d="M20.561,20.736c-1.305-1.045-2.91-1.586-4.632-1.586c-1.741,0-3.324,0.557-4.601,1.624
			c0.163,0.231,0.389,0.425,0.673,0.518c2.619,0.843,5.237,0.843,7.856,0C20.158,21.194,20.398,20.986,20.561,20.736z"/>
	</g>
	<g>
		<path class="st5" d="M21.082,25.997c-0.118-0.437-0.256-0.873-0.438-1.309c-0.154-0.364-0.441-0.654-0.787-0.79
			c-2.619-1.008-5.237-1.008-7.856,0c-0.345,0.135-0.633,0.426-0.787,0.79c-0.185,0.444-0.326,0.888-0.444,1.333
			C14.21,25.506,17.649,25.497,21.082,25.997z"/>
	</g>
	<path class="st2" d="M16.898,27.885c-0.513-0.14-1.111-0.138-1.835,0.01c-0.331,0.07-0.667-0.148-0.737-0.487
		c-0.069-0.338,0.149-0.668,0.487-0.737c0.917-0.188,1.708-0.185,2.415,0.01c0.333,0.091,0.529,0.435,0.438,0.768
		C17.574,27.782,17.228,27.977,16.898,27.885z"/>
</g>
</svg>
