<?xml version="1.0" encoding="utf-8"?>
<!-- Generator: Adobe Illustrator 21.1.0, SVG Export Plug-In . SVG Version: 6.00 Build 0)  -->
<svg version="1.1" id="Layer_1" xmlns="http://www.w3.org/2000/svg" xmlns:xlink="http://www.w3.org/1999/xlink" x="0px" y="0px"
	 viewBox="0 0 32 32" style="enable-background:new 0 0 32 32;" xml:space="preserve">
<style type="text/css">
	.st0{fill:#FFD93B;}
	.st1{fill:#3E4347;}
	.st2{fill:#F4C534;}
	.st3{fill:#38C0DC;}
	.st4{fill:#45CBEA;}
	.st5{fill:#FFFFFF;}
	.st6{fill:#E24B4B;}
	.st7{fill:#5A5F63;}
	.st8{opacity:0.3;}
	.st9{opacity:0.2;}
	.st10{opacity:0.1;}
	.st11{fill:#E9B02C;}
	.st12{fill:#65B1EF;}
	.st13{fill:#E9EFF4;}
	.st14{fill:#8CC63E;}
	.st15{fill:#7FB239;}
	.st16{fill:#D03F3F;}
	.st17{fill:#D23F77;}
	.st18{fill:#E84D88;}
	.st19{fill:#59A5E0;}
	.st20{fill:#DEE4E9;}
	.st21{fill:#D3D9DD;}
	.st22{opacity:0.25;fill:#FFFFFF;}
	.st23{fill:#9A795F;}
	.st24{fill:#F29A2E;}
	.st25{fill:#FC97B2;}
	.st26{fill:#89664C;}
	.st27{fill:#7A5B44;}
	.st28{opacity:0.2;fill:#FFFFFF;}
	.st29{fill:#4E99D2;}
	.st30{fill:#BBC7D1;}
	.st31{fill:#DE9C25;}
</style>
<g>
	<g>
		<g>
			<g>
				<g>
					<g>
						<circle class="st0" cx="16" cy="16" r="16"/>
					</g>
				</g>
			</g>
			<g>
				<g>
					<g>
						<path class="st2" d="M32,16c0,8.84-7.165,16-16,16c-5.03,0-9.52-2.32-12.455-5.955c2.745,2.22,6.24,3.545,10.045,3.545
							c8.835,0,16-7.16,16-16c0-3.805-1.325-7.3-3.545-10.045C29.675,6.48,32,10.97,32,16z"/>
					</g>
				</g>
			</g>
		</g>
		<g>
			<g>
				<path class="st1" d="M19.747,25.301v0.005c-0.007,0.014-0.02,0.045-0.02,0.06c-0.005,0.005-0.005,0.01-0.01,0.015
					c-0.016,0.049-0.119,0.251-0.145,0.3c-0.94,1.468-2.111,0.456-2.86-0.06c-0.619-0.429-0.047-0.082-1.56-0.99
					c0.8,0.214,2.146,0.782,2.4,0.84c0.849,0.192,1.152-0.037,1.415-0.43c0.305-0.602-0.947-1.587-1.635-1.835
					c-0.47-0.175-0.92-0.315-1.355-0.435c0.435-0.12,0.885-0.26,1.355-0.435c1.298-0.481,1.785-1.494,1.645-1.775
					c0-0.02,0-0.02,0-0.02c-0.015-0.045-0.035-0.09-0.05-0.14c-0.585-0.585-1.148-0.461-2.16-0.06
					c-0.525,0.21-1.055,0.425-1.615,0.565c0.5-0.29,1.045-0.6,1.56-0.99c0.5-0.344,2.012-1.762,2.975,0.165
					c0,0.005,0.005,0.015,0.01,0.02c0,0.005,0.005,0.005,0.005,0.01c0.01,0.025,0.02,0.05,0.03,0.07c0,0.005,0,0.01,0,0.01
					c0.01,0.025,0.015,0.05,0.025,0.07c0.195,0.979-0.057,1.814-1.16,2.51C19.515,23.337,20.074,24.321,19.747,25.301z"/>
			</g>
			<path class="st1" d="M18.972,25.021c0,0.005-0.005,0.015-0.005,0.02C18.967,25.034,18.964,25.021,18.972,25.021z"/>
			<path class="st1" d="M18.977,24.991c0,0,0,0.01-0.005,0.015C18.972,24.996,18.971,24.997,18.977,24.991z"/>
		</g>
		<g>
			<g>
				<g>
					<circle class="st1" cx="10.168" cy="12.537" r="2.665"/>
				</g>
				<g>
					
						<ellipse transform="matrix(0.7071 -0.7071 0.7071 0.7071 -4.7713 11.3235)" class="st7" cx="11.283" cy="11.421" rx="0.451" ry="0.516"/>
				</g>
			</g>
			<g>
				<path class="st1" d="M24.498,13.443c0,0.366-0.076,0.718-0.214,1.039c-0.442-1.062-1.543-1.811-2.832-1.811
					c-1.289,0-2.391,0.749-2.832,1.811c-0.138-0.321-0.214-0.674-0.214-1.039c0-1.575,1.365-2.85,3.047-2.85
					C23.133,10.593,24.498,11.868,24.498,13.443z"/>
			</g>
		</g>
		<g>
			<g>
				<path class="st6" d="M22.931,22.765c0,0.771-1.007,1.096-1.38,1.823c-0.373-0.727-1.38-1.052-1.38-1.823
					c0-0.402,0.325-0.723,0.723-0.723c0.291,0,0.546,0.173,0.657,0.424c0.111-0.251,0.365-0.424,0.657-0.424
					C22.606,22.041,22.931,22.362,22.931,22.765z"/>
			</g>
			<g>
				<path class="st6" d="M27.2,21.684c0,1.002-1.308,1.423-1.792,2.368c-0.484-0.944-1.792-1.366-1.792-2.368
					c0-0.522,0.422-0.939,0.939-0.939c0.379,0,0.709,0.225,0.853,0.551c0.144-0.326,0.474-0.551,0.853-0.551
					C26.779,20.745,27.2,21.162,27.2,21.684z"/>
			</g>
			<g>
				<path class="st6" d="M31.64,17.637c0,1.637-2.138,2.326-2.929,3.868c-0.791-1.543-2.929-2.232-2.929-3.868
					c0-0.854,0.689-1.535,1.535-1.535c0.619,0,1.159,0.368,1.394,0.9c0.235-0.532,0.775-0.9,1.394-0.9
					C30.951,16.103,31.64,16.784,31.64,17.637z"/>
			</g>
		</g>
	</g>
</g>
</svg>
