<?xml version="1.0" encoding="utf-8"?>
<!-- Generator: Adobe Illustrator 21.1.0, SVG Export Plug-In . SVG Version: 6.00 Build 0)  -->
<svg version="1.1" id="Layer_1" xmlns="http://www.w3.org/2000/svg" xmlns:xlink="http://www.w3.org/1999/xlink" x="0px" y="0px"
	 viewBox="0 0 32 32" style="enable-background:new 0 0 32 32;" xml:space="preserve">
<style type="text/css">
	.st0{fill:#FFD93B;}
	.st1{fill:#3E4347;}
	.st2{fill:#F4C534;}
	.st3{fill:#FFFFFF;}
	.st4{fill:#E24B4B;}
	.st5{opacity:0.2;}
	.st6{opacity:0.3;}
	.st7{fill:#5A5F63;}
	.st8{fill:#D03F3F;}
	.st9{fill:#E9EFF4;}
	.st10{fill:#DEE4E9;}
	.st11{fill:#777B7E;}
	.st12{fill:#45CBEA;}
	.st13{fill:#E84D88;}
	.st14{opacity:0.25;}
	.st15{fill:#E9B02C;}
	.st16{fill:none;stroke:#E9B02C;stroke-width:2;stroke-linecap:round;stroke-linejoin:round;stroke-miterlimit:10;}
	.st17{fill:#65B1EF;}
	.st18{fill:#F29A2E;}
	.st19{fill:#59A5E0;}
	.st20{fill:#4E99D2;}
	.st21{opacity:0.15;}
	.st22{fill:#8CC63E;}
	.st23{opacity:0.25;fill:#FFFFFF;}
	.st24{fill:#38C0DC;}
	.st25{fill:#D23F77;}
	.st26{fill:#DAE5EF;}
	.st27{fill:#373C3F;}
	.st28{fill:#BF3333;}
	.st29{opacity:0.2;fill:#FFFFFF;}
	.st30{opacity:0.3;fill:#FFFFFF;}
	.st31{fill:#7FB239;}
</style>
<g>
	<g>
		<g>
			<g>
				<g>
					<g>
						<g>
							<circle class="st0" cx="16" cy="16" r="16"/>
						</g>
					</g>
				</g>
				<g>
					<g>
						<g>
							<path class="st1" d="M26.595,21.011c-1.75,4.125-5.835,7.02-10.595,7.02c-4.765,0-8.845-2.895-10.595-7.02
								c-0.28-0.66,0.2-1.4,0.92-1.4h19.35C26.39,19.611,26.875,20.351,26.595,21.011z"/>
						</g>
					</g>
				</g>
				<g>
					<g>
						<g>
							<path class="st2" d="M32,16c0,8.84-7.165,16-16,16c-5.03,0-9.52-2.32-12.455-5.955c2.745,2.22,6.24,3.545,10.045,3.545
								c8.835,0,16-7.16,16-16c0-3.805-1.325-7.3-3.545-10.045C29.675,6.48,32,10.97,32,16z"/>
						</g>
					</g>
				</g>
				<g>
					<path class="st3" d="M7.79,20.86c-0.063,0.686,0.529,1.33,1.385,1.465c4.52,0.715,9.135,0.715,13.655,0
						c0.851-0.134,1.443-0.778,1.38-1.465H7.79z"/>
				</g>
				<g>
					<g>
						<path class="st4" d="M19.977,25.896C18.724,26.47,17.38,26.781,16,26.781c-1.385,0-2.724-0.312-3.977-0.885
							c0.254-0.62,0.626-1.173,1.093-1.616c0.547-0.529,1.303-0.647,2.023-0.488c0.201,0.047,0.418,0.071,0.645,0.071
							c0.33,0,0.624-0.047,0.898-0.142c0.653-0.213,1.355-0.154,1.902,0.289C19.185,24.497,19.667,25.144,19.977,25.896z"/>
					</g>
					<g class="st5">
						<path class="st3" d="M18.31,24.671c-0.056,0.191-0.338,0.278-0.637,0.185c-0.3-0.092-0.501-0.325-0.452-0.523
							c0.049-0.199,0.333-0.281,0.634-0.193C18.156,24.234,18.361,24.473,18.31,24.671z"/>
					</g>
				</g>
			</g>
			<g>
				<g>
					<g>
						<g>
							<g>
								<path class="st1" d="M23.977,10.49c-0.992-1.273-2.545-1.964-4.161-1.845c-0.41,0.027-0.772-0.28-0.802-0.694
									c-0.03-0.413,0.28-0.773,0.694-0.802c2.112-0.152,4.152,0.75,5.453,2.419c0.255,0.327,0.196,0.798-0.13,1.053
									C24.704,10.875,24.233,10.818,23.977,10.49z"/>
							</g>
						</g>
					</g>
				</g>
				<g>
					<g>
						<g>
							<g>
								<path class="st1" d="M6.97,10.621c-0.327-0.255-0.385-0.726-0.13-1.053c1.301-1.668,3.341-2.573,5.453-2.419
									c0.413,0.03,0.724,0.389,0.694,0.802c-0.03,0.413-0.385,0.721-0.803,0.694c-1.615-0.119-3.169,0.572-4.161,1.845
									C7.768,10.817,7.297,10.875,6.97,10.621z"/>
							</g>
						</g>
					</g>
				</g>
			</g>
		</g>
		<g>
			<g>
				<g>
					<path class="st4" d="M24.489,13.401c-0.354,1.827-4.04,3.353-4.04,3.353s-2.851-2.792-2.497-4.618
						c0.184-0.953,1.101-1.564,2.045-1.381c0.69,0.134,1.214,0.661,1.361,1.306c0.377-0.544,1.06-0.838,1.75-0.704
						C24.051,11.54,24.673,12.449,24.489,13.401z"/>
				</g>
			</g>
			<g>
				<g>
					<path class="st4" d="M7.512,13.401c0.354,1.827,4.04,3.353,4.04,3.353s2.851-2.792,2.497-4.618
						c-0.185-0.953-1.101-1.564-2.045-1.381c-0.69,0.134-1.214,0.661-1.361,1.306c-0.377-0.544-1.06-0.838-1.75-0.704
						C7.949,11.54,7.327,12.449,7.512,13.401z"/>
				</g>
			</g>
		</g>
	</g>
</g>
</svg>
