<?xml version="1.0" encoding="utf-8"?>
<!-- Generator: Adobe Illustrator 21.1.0, SVG Export Plug-In . SVG Version: 6.00 Build 0)  -->
<svg version="1.1" id="Layer_1" xmlns="http://www.w3.org/2000/svg" xmlns:xlink="http://www.w3.org/1999/xlink" x="0px" y="0px"
	 viewBox="0 0 32 32" style="enable-background:new 0 0 32 32;" xml:space="preserve">
<style type="text/css">
	.st0{fill:#FFD93B;}
	.st1{fill:#3E4347;}
	.st2{fill:#F4C534;}
	.st3{fill:#FFFFFF;}
	.st4{fill:#E24B4B;}
	.st5{opacity:0.2;}
	.st6{opacity:0.3;}
	.st7{fill:#5A5F63;}
	.st8{fill:#D03F3F;}
	.st9{fill:#E9EFF4;}
	.st10{fill:#DEE4E9;}
	.st11{fill:#777B7E;}
	.st12{fill:#45CBEA;}
	.st13{fill:#E84D88;}
	.st14{opacity:0.25;}
	.st15{fill:#E9B02C;}
	.st16{fill:none;stroke:#E9B02C;stroke-width:2;stroke-linecap:round;stroke-linejoin:round;stroke-miterlimit:10;}
	.st17{fill:#65B1EF;}
	.st18{fill:#F29A2E;}
	.st19{fill:#59A5E0;}
	.st20{fill:#4E99D2;}
	.st21{opacity:0.15;}
	.st22{fill:#8CC63E;}
	.st23{opacity:0.25;fill:#FFFFFF;}
	.st24{fill:#38C0DC;}
	.st25{fill:#D23F77;}
	.st26{fill:#DAE5EF;}
	.st27{fill:#373C3F;}
	.st28{fill:#BF3333;}
	.st29{opacity:0.2;fill:#FFFFFF;}
	.st30{opacity:0.3;fill:#FFFFFF;}
	.st31{fill:#7FB239;}
</style>
<g>
	<g>
		<g>
			<g>
				<g>
					<g>
						<g>
							<g>
								<g>
									<circle class="st0" cx="16" cy="16" r="16"/>
								</g>
							</g>
						</g>
					</g>
					<g>
						<g>
							<g>
								<g>
									<path class="st2" d="M32,16c0,8.84-7.165,16-16,16c-5.03,0-9.52-2.32-12.455-5.955c2.745,2.22,6.24,3.545,10.045,3.545
										c8.835,0,16-7.16,16-16c0-3.805-1.325-7.3-3.545-10.045C29.675,6.48,32,10.97,32,16z"/>
								</g>
							</g>
						</g>
					</g>
				</g>
			</g>
		</g>
	</g>
	<g>
		<g>
			<path class="st1" d="M7.797,21.571c-0.124-0.395,0.096-0.816,0.491-0.94c0.397-0.124,0.816,0.096,0.94,0.491
				c1.629,5.193,11.915,5.191,13.544,0c0.124-0.395,0.544-0.615,0.94-0.491c0.395,0.124,0.615,0.545,0.491,0.94
				C22.137,28.156,9.864,28.158,7.797,21.571z"/>
		</g>
	</g>
	<g>
		<g>
			<g>
				<g>
					<path class="st4" d="M14.133,11.862c-0.016,2.38-4.011,4.719-4.011,4.719S6.157,14.19,6.173,11.81
						c0.008-1.159,0.95-2.092,2.109-2.084c0.831,0.005,1.545,0.495,1.877,1.197c0.338-0.698,1.058-1.178,1.89-1.172
						C13.207,9.758,14.14,10.704,14.133,11.862z"/>
				</g>
			</g>
			<g class="st6">
				<g>
					<path class="st3" d="M13.101,12.126c-0.218,0.215-0.597,0.106-0.844-0.241c-0.248-0.353-0.271-0.807-0.053-1.021
						c0.218-0.215,0.598-0.101,0.845,0.247C13.296,11.458,13.319,11.912,13.101,12.126z"/>
				</g>
			</g>
		</g>
		<g>
			<g>
				<g>
					<path class="st4" d="M25.827,11.862c-0.016,2.38-4.011,4.719-4.011,4.719s-3.964-2.391-3.948-4.772
						c0.008-1.159,0.95-2.092,2.109-2.084c0.831,0.005,1.545,0.495,1.877,1.197c0.339-0.698,1.059-1.178,1.89-1.172
						C24.902,9.758,25.835,10.704,25.827,11.862z"/>
				</g>
			</g>
			<g class="st6">
				<g>
					<path class="st3" d="M24.795,12.126c-0.218,0.215-0.597,0.106-0.844-0.241c-0.249-0.353-0.271-0.807-0.053-1.021
						c0.218-0.215,0.598-0.101,0.845,0.247C24.991,11.458,25.014,11.912,24.795,12.126z"/>
				</g>
			</g>
		</g>
	</g>
</g>
</svg>
