<?xml version="1.0" encoding="utf-8"?>
<!-- Generator: Adobe Illustrator 21.1.0, SVG Export Plug-In . SVG Version: 6.00 Build 0)  -->
<svg version="1.1" id="Layer_1" xmlns="http://www.w3.org/2000/svg" xmlns:xlink="http://www.w3.org/1999/xlink" x="0px" y="0px"
	 viewBox="0 0 32 32" style="enable-background:new 0 0 32 32;" xml:space="preserve">
<style type="text/css">
	.st0{fill:#FFD93B;}
	.st1{fill:#3E4347;}
	.st2{fill:#F4C534;}
	.st3{fill:#FFFFFF;}
	.st4{fill:#E24B4B;}
	.st5{opacity:0.2;}
	.st6{opacity:0.3;}
	.st7{fill:#5A5F63;}
	.st8{fill:#D03F3F;}
	.st9{fill:#E9EFF4;}
	.st10{fill:#DEE4E9;}
	.st11{fill:#777B7E;}
	.st12{fill:#45CBEA;}
	.st13{fill:#E84D88;}
	.st14{opacity:0.25;}
	.st15{fill:#E9B02C;}
	.st16{fill:none;stroke:#E9B02C;stroke-width:2;stroke-linecap:round;stroke-linejoin:round;stroke-miterlimit:10;}
	.st17{fill:#65B1EF;}
	.st18{fill:#F29A2E;}
	.st19{fill:#59A5E0;}
	.st20{fill:#4E99D2;}
	.st21{opacity:0.15;}
	.st22{fill:#8CC63E;}
	.st23{opacity:0.25;fill:#FFFFFF;}
	.st24{fill:#38C0DC;}
	.st25{fill:#D23F77;}
	.st26{fill:#DAE5EF;}
	.st27{fill:#373C3F;}
	.st28{fill:#BF3333;}
	.st29{opacity:0.2;fill:#FFFFFF;}
	.st30{opacity:0.3;fill:#FFFFFF;}
	.st31{fill:#7FB239;}
</style>
<g>
	<g>
		<g>
			<g>
				<g>
					<g>
						<g>
							<g>
								<g>
									<g>
										<g>
											<circle class="st0" cx="16" cy="16" r="16"/>
										</g>
									</g>
								</g>
							</g>
						</g>
						<g>
							<g>
								<g>
									<g>
										<g>
											<path class="st2" d="M32,16c0,8.84-7.165,16-16,16c-5.03,0-9.52-2.32-12.455-5.955c2.745,2.22,6.24,3.545,10.045,3.545
												c8.835,0,16-7.16,16-16c0-3.805-1.325-7.3-3.545-10.045C29.675,6.48,32,10.97,32,16z"/>
										</g>
									</g>
								</g>
							</g>
						</g>
					</g>
				</g>
			</g>
		</g>
	</g>
	<g>
		<g>
			<g>
				<g>
					<ellipse class="st1" cx="10.731" cy="12.406" rx="2.492" ry="3.122"/>
				</g>
			</g>
			<g>
				<g>
					
						<ellipse transform="matrix(0.8038 -0.5948 0.5948 0.8038 -4.2846 9.1256)" class="st7" cx="11.694" cy="11.059" rx="0.426" ry="0.666"/>
				</g>
			</g>
		</g>
		<g>
			<g>
				<g>
					<ellipse class="st1" cx="21.266" cy="12.406" rx="2.492" ry="3.122"/>
				</g>
			</g>
			<g>
				<g>
					
						<ellipse transform="matrix(0.8038 -0.5948 0.5948 0.8038 -2.2179 15.3926)" class="st7" cx="22.23" cy="11.059" rx="0.426" ry="0.666"/>
				</g>
			</g>
		</g>
	</g>
	<g>
		<g>
			<g>
				<path class="st1" d="M16.495,26.409c-0.262-0.088-0.403-0.371-0.315-0.633c0.089-0.261,0.372-0.403,0.633-0.315
					c0.775,0.259,2.682,0.193,2.682-0.538c0-0.44-0.602-0.843-1.431-0.96c-0.247-0.035-0.43-0.246-0.43-0.495
					c0-0.249,0.184-0.46,0.43-0.495c0.816-0.115,1.431-0.526,1.431-0.955c0-0.04,0-0.16-0.17-0.311
					c-0.398-0.353-1.442-0.585-2.512-0.227c-0.261,0.089-0.545-0.053-0.633-0.315s0.053-0.545,0.315-0.633
					c1.854-0.623,4,0.061,4,1.486c0,0.579-0.328,1.091-0.883,1.451c0.555,0.361,0.883,0.874,0.883,1.455
					C20.495,26.403,18.251,27,16.495,26.409z"/>
			</g>
		</g>
	</g>
</g>
</svg>
