<?xml version="1.0" encoding="utf-8"?>
<!-- Generator: Adobe Illustrator 21.1.0, SVG Export Plug-In . SVG Version: 6.00 Build 0)  -->
<svg version="1.1" id="Layer_1" xmlns="http://www.w3.org/2000/svg" xmlns:xlink="http://www.w3.org/1999/xlink" x="0px" y="0px"
	 viewBox="0 0 32 32" style="enable-background:new 0 0 32 32;" xml:space="preserve">
<style type="text/css">
	.st0{fill:#FFD93B;}
	.st1{fill:#3E4347;}
	.st2{fill:#F4C534;}
	.st3{fill:#FFFFFF;}
	.st4{fill:#E24B4B;}
	.st5{opacity:0.2;}
	.st6{opacity:0.3;}
	.st7{fill:#5A5F63;}
	.st8{fill:#D03F3F;}
	.st9{fill:#E9EFF4;}
	.st10{fill:#DEE4E9;}
	.st11{fill:#777B7E;}
	.st12{fill:#45CBEA;}
	.st13{fill:#E84D88;}
	.st14{opacity:0.25;}
	.st15{fill:#E9B02C;}
	.st16{fill:none;stroke:#E9B02C;stroke-width:2;stroke-linecap:round;stroke-linejoin:round;stroke-miterlimit:10;}
	.st17{fill:#65B1EF;}
	.st18{fill:#F29A2E;}
	.st19{fill:#59A5E0;}
	.st20{fill:#4E99D2;}
	.st21{opacity:0.15;}
	.st22{fill:#8CC63E;}
	.st23{opacity:0.25;fill:#FFFFFF;}
	.st24{fill:#38C0DC;}
	.st25{fill:#D23F77;}
	.st26{fill:#DAE5EF;}
	.st27{fill:#373C3F;}
	.st28{fill:#BF3333;}
	.st29{opacity:0.2;fill:#FFFFFF;}
	.st30{opacity:0.3;fill:#FFFFFF;}
	.st31{fill:#7FB239;}
</style>
<g>
	<g>
		<g>
			<g>
				<g>
					<g>
						<g>
							<g>
								<g>
									<g>
										<g>
											<g>
												<circle class="st0" cx="16" cy="16" r="16"/>
											</g>
										</g>
									</g>
								</g>
							</g>
							<g>
								<g>
									<g>
										<g>
											<g>
												<path class="st2" d="M32,16c0,8.84-7.165,16-16,16c-5.03,0-9.52-2.32-12.455-5.955c2.745,2.22,6.24,3.545,10.045,3.545
													c8.835,0,16-7.16,16-16c0-3.805-1.325-7.3-3.545-10.045C29.675,6.48,32,10.97,32,16z"/>
											</g>
										</g>
									</g>
								</g>
							</g>
						</g>
					</g>
				</g>
			</g>
		</g>
	</g>
	<g>
		<path class="st1" d="M23.169,20.357c0.662,0.454-1.157,5.443-7.169,5.417c-6.012,0.025-7.831-4.963-7.169-5.417
			c0.51-0.545,2.88,2.053,7.169,1.951C20.289,22.41,22.659,19.812,23.169,20.357z"/>
	</g>
	<g>
		<g>
			<path class="st1" d="M24.705,12.233c-0.379-0.838-1.327-1.523-2.447-1.5c-1.818,0.032-2.467,2.1-2.135,1.433
				c-0.264,0.531-0.91,0.748-1.441,0.484c-0.532-0.264-0.748-0.91-0.484-1.441c0.497-1,2.25-2.288,4.181-1.975
				c1.699,0.284,2.825,1.5,3.132,2.667c0.092,0.223-0.014,0.478-0.237,0.569C25.052,12.562,24.797,12.456,24.705,12.233z"/>
		</g>
		<g>
			<path class="st1" d="M6.489,11.901c0.005-0.005,0.022-0.094,0.117-0.33c0.766-1.837,2.777-2.754,4.685-2.24
				c1.052,0.282,1.769,0.873,2.403,1.704c0.36,0.472,0.269,1.147-0.203,1.507c-0.472,0.36-1.146,0.269-1.507-0.203
				c-0.233-0.304-0.156-0.457-0.569-0.868c-1.234-1.335-3.49-0.698-4.121,0.761c-0.092,0.223-0.347,0.329-0.569,0.237
				C6.503,12.378,6.397,12.123,6.489,11.901z"/>
		</g>
	</g>
	<g>
		<g>
			<path class="st4" d="M26.153,18.54c-0.581,0.961-1.652,1.373-2.4,0.921c-0.741-0.451-0.88-1.588-0.3-2.549
				c0.574-0.955,1.646-1.367,2.393-0.915C26.595,16.442,26.727,17.584,26.153,18.54z"/>
		</g>
		<g>
			<path class="st4" d="M5.847,18.54c0.581,0.961,1.652,1.373,2.4,0.921c0.741-0.451,0.88-1.588,0.3-2.549
				c-0.574-0.955-1.646-1.367-2.393-0.915C5.405,16.442,5.273,17.584,5.847,18.54z"/>
		</g>
	</g>
</g>
</svg>
