<?xml version="1.0" encoding="utf-8"?>
<!-- Generator: Adobe Illustrator 21.1.0, SVG Export Plug-In . SVG Version: 6.00 Build 0)  -->
<svg version="1.1" id="Layer_1" xmlns="http://www.w3.org/2000/svg" xmlns:xlink="http://www.w3.org/1999/xlink" x="0px" y="0px"
	 viewBox="0 0 32 32" style="enable-background:new 0 0 32 32;" xml:space="preserve">
<style type="text/css">
	.st0{fill:#FFD93B;}
	.st1{fill:#3E4347;}
	.st2{fill:#F4C534;}
	.st3{fill:#FFFFFF;}
	.st4{fill:#E24B4B;}
	.st5{opacity:0.2;}
	.st6{opacity:0.3;}
	.st7{fill:#5A5F63;}
	.st8{fill:#D03F3F;}
	.st9{fill:#E9EFF4;}
	.st10{fill:#DEE4E9;}
	.st11{fill:#777B7E;}
	.st12{fill:#45CBEA;}
	.st13{fill:#E84D88;}
	.st14{opacity:0.25;}
	.st15{fill:#E9B02C;}
	.st16{fill:none;stroke:#E9B02C;stroke-width:2;stroke-linecap:round;stroke-linejoin:round;stroke-miterlimit:10;}
	.st17{fill:#65B1EF;}
	.st18{fill:#F29A2E;}
	.st19{fill:#59A5E0;}
	.st20{fill:#4E99D2;}
	.st21{opacity:0.15;}
	.st22{fill:#8CC63E;}
	.st23{opacity:0.25;fill:#FFFFFF;}
	.st24{fill:#38C0DC;}
	.st25{fill:#D23F77;}
	.st26{fill:#DAE5EF;}
	.st27{fill:#373C3F;}
	.st28{fill:#BF3333;}
	.st29{opacity:0.2;fill:#FFFFFF;}
	.st30{opacity:0.3;fill:#FFFFFF;}
	.st31{fill:#7FB239;}
</style>
<g>
	<g>
		<g>
			<g>
				<g>
					<g>
						<g>
							<g>
								<g>
									<g>
										<g>
											<g>
												<g>
													<circle class="st0" cx="16" cy="16" r="16"/>
												</g>
											</g>
										</g>
									</g>
								</g>
								<g>
									<g>
										<g>
											<g>
												<g>
													<path class="st2" d="M32,16c0,8.84-7.165,16-16,16c-5.03,0-9.52-2.32-12.455-5.955c2.745,2.22,6.24,3.545,10.045,3.545
														c8.835,0,16-7.16,16-16c0-3.805-1.325-7.3-3.545-10.045C29.675,6.48,32,10.97,32,16z"/>
												</g>
											</g>
										</g>
									</g>
								</g>
							</g>
						</g>
					</g>
				</g>
			</g>
		</g>
	</g>
	<g>
		<path class="st1" d="M24.273,19.329c1.406,0.385-0.847,7.861-8.273,7.916c-7.426-0.055-9.679-7.531-8.273-7.916
			c1.124-0.554,4.139,2.516,8.273,2.516C20.191,21.844,23.149,18.775,24.273,19.329z"/>
	</g>
	<g>
		<g>
			<path class="st4" d="M10.834,16.049c-0.087,0.107-0.233,0.133-0.353,0.067c-0.9-0.473-4.52-2.5-4.867-4.387
				c-0.22-1.193,0.567-2.34,1.76-2.56c0.86-0.16,1.693,0.207,2.18,0.88c0.207-0.8,0.86-1.44,1.72-1.593
				c1.193-0.22,2.333,0.567,2.553,1.76C14.174,12.102,11.507,15.282,10.834,16.049z"/>
		</g>
		<g>
			<path class="st8" d="M11.214,15.602c-0.153,0.187-0.287,0.34-0.38,0.447c-0.087,0.107-0.233,0.133-0.353,0.067
				c-0.9-0.473-4.52-2.5-4.867-4.387c-0.2-1.073,0.413-2.107,1.407-2.46c-0.507,0.493-0.767,1.227-0.627,1.973
				C6.734,13.102,10.247,15.095,11.214,15.602z"/>
		</g>
		<g class="st5">
			
				<ellipse transform="matrix(0.9308 -0.3654 0.3654 0.9308 -2.8682 5.1946)" class="st3" cx="12.29" cy="10.175" rx="0.584" ry="0.867"/>
		</g>
	</g>
	<g>
		<g>
			<path class="st4" d="M20.797,16.049c0.087,0.107,0.233,0.133,0.353,0.067c0.9-0.473,4.52-2.5,4.867-4.387
				c0.22-1.193-0.567-2.34-1.76-2.56c-0.86-0.16-1.693,0.207-2.18,0.88c-0.207-0.8-0.86-1.44-1.72-1.593
				c-1.193-0.22-2.333,0.567-2.553,1.76C17.457,12.102,20.123,15.282,20.797,16.049z"/>
		</g>
		<g>
			<path class="st8" d="M20.417,15.602c0.153,0.187,0.287,0.34,0.38,0.447c0.087,0.107,0.233,0.133,0.353,0.067
				c0.9-0.473,4.52-2.5,4.867-4.387c0.2-1.073-0.413-2.107-1.407-2.46c0.507,0.493,0.767,1.227,0.627,1.973
				C24.897,13.102,21.383,15.095,20.417,15.602z"/>
		</g>
		<g class="st5">
			
				<ellipse transform="matrix(0.3654 -0.9308 0.9308 0.3654 2.8014 24.4599)" class="st3" cx="19.34" cy="10.175" rx="0.867" ry="0.584"/>
		</g>
	</g>
	<path class="st4" d="M16,27.245c1.434-0.011,2.673-0.3,3.732-0.759c-0.24-0.705-0.671-1.32-1.238-1.781
		c-0.455-0.375-1.08-0.443-1.642-0.261c-0.324,0.102-0.688,0.165-1.091,0.165c-0.313,0-0.602-0.04-0.869-0.102
		c-0.608-0.153-1.244,0.028-1.687,0.472c-0.419,0.419-0.74,0.935-0.935,1.509C13.329,26.946,14.567,27.235,16,27.245z"/>
</g>
</svg>
