<?xml version="1.0" encoding="utf-8"?>
<!-- Generator: Adobe Illustrator 21.1.0, SVG Export Plug-In . SVG Version: 6.00 Build 0)  -->
<svg version="1.1" id="Layer_1" xmlns="http://www.w3.org/2000/svg" xmlns:xlink="http://www.w3.org/1999/xlink" x="0px" y="0px"
	 viewBox="0 0 32 32" style="enable-background:new 0 0 32 32;" xml:space="preserve">
<style type="text/css">
	.st0{fill:#FFD93B;}
	.st1{fill:#3E4347;}
	.st2{fill:#F4C534;}
	.st3{fill:#FFFFFF;}
	.st4{fill:#E24B4B;}
	.st5{opacity:0.2;}
	.st6{opacity:0.3;}
	.st7{fill:#5A5F63;}
	.st8{fill:#D03F3F;}
	.st9{fill:#E9EFF4;}
	.st10{fill:#DEE4E9;}
	.st11{fill:#777B7E;}
	.st12{fill:#45CBEA;}
	.st13{fill:#E84D88;}
	.st14{opacity:0.25;}
	.st15{fill:#E9B02C;}
	.st16{fill:none;stroke:#E9B02C;stroke-width:2;stroke-linecap:round;stroke-linejoin:round;stroke-miterlimit:10;}
	.st17{fill:#65B1EF;}
	.st18{fill:#F29A2E;}
	.st19{fill:#59A5E0;}
	.st20{fill:#4E99D2;}
	.st21{opacity:0.15;}
	.st22{fill:#8CC63E;}
	.st23{opacity:0.25;fill:#FFFFFF;}
	.st24{fill:#38C0DC;}
	.st25{fill:#D23F77;}
	.st26{fill:#DAE5EF;}
	.st27{fill:#373C3F;}
	.st28{fill:#BF3333;}
	.st29{opacity:0.2;fill:#FFFFFF;}
	.st30{opacity:0.3;fill:#FFFFFF;}
	.st31{fill:#7FB239;}
</style>
<g>
	<g>
		<g>
			<g>
				<g>
					<g>
						<g>
							<g>
								<g>
									<g>
										<g>
											<g>
												<g>
													<g>
														<g>
															<circle class="st0" cx="16" cy="16" r="16"/>
														</g>
													</g>
												</g>
											</g>
										</g>
									</g>
									<g>
										<g>
											<g>
												<g>
													<g>
														<g>
															<path class="st1" d="M16,26.284c-4.679,0-8.756-3.169-9.914-7.705c-0.091-0.357,0.124-0.72,0.481-0.811
																c0.355-0.093,0.719,0.124,0.81,0.481c1.008,3.946,4.553,6.702,8.622,6.702s7.615-2.756,8.622-6.702
																c0.09-0.357,0.453-0.574,0.811-0.481c0.357,0.091,0.572,0.454,0.481,0.811C24.756,23.115,20.679,26.284,16,26.284z"
																/>
														</g>
													</g>
												</g>
											</g>
										</g>
									</g>
									<g>
										<g>
											<g>
												<g>
													<g>
														<g>
															<path class="st2" d="M32,16c0,8.84-7.165,16-16,16c-5.03,0-9.52-2.32-12.455-5.955
																c2.745,2.22,6.24,3.545,10.045,3.545c8.835,0,16-7.16,16-16c0-3.805-1.325-7.3-3.545-10.045
																C29.675,6.48,32,10.97,32,16z"/>
														</g>
													</g>
												</g>
											</g>
										</g>
									</g>
								</g>
							</g>
						</g>
					</g>
				</g>
			</g>
		</g>
	</g>
	<g>
		<g>
			<g>
				<g>
					<ellipse class="st1" cx="10.833" cy="13.769" rx="2.452" ry="2.914"/>
				</g>
			</g>
			<g>
				<g>
					<path class="st7" d="M11.939,13.142c-0.191,0.15-0.505,0.076-0.706-0.168c-0.201-0.244-0.211-0.571-0.02-0.721
						c0.19-0.157,0.505-0.083,0.705,0.161C12.12,12.665,12.122,12.986,11.939,13.142z"/>
				</g>
			</g>
		</g>
		<g>
			<g>
				<g>
					<ellipse class="st1" cx="21.169" cy="13.769" rx="2.452" ry="2.914"/>
				</g>
			</g>
			<g>
				<g>
					<path class="st7" d="M22.274,13.142c-0.191,0.15-0.505,0.076-0.706-0.168c-0.201-0.244-0.211-0.571-0.02-0.721
						c0.19-0.157,0.504-0.083,0.705,0.161C22.455,12.665,22.457,12.986,22.274,13.142z"/>
				</g>
			</g>
		</g>
	</g>
</g>
</svg>
