<?xml version="1.0" encoding="utf-8"?>
<!-- Generator: Adobe Illustrator 21.1.0, SVG Export Plug-In . SVG Version: 6.00 Build 0)  -->
<svg version="1.1" id="Layer_1" xmlns="http://www.w3.org/2000/svg" xmlns:xlink="http://www.w3.org/1999/xlink" x="0px" y="0px"
	 viewBox="0 0 32 32" style="enable-background:new 0 0 32 32;" xml:space="preserve">
<style type="text/css">
	.st0{fill:#FFD93B;}
	.st1{fill:#3E4347;}
	.st2{fill:#F4C534;}
	.st3{fill:#FFFFFF;}
	.st4{fill:#E24B4B;}
	.st5{opacity:0.2;}
	.st6{opacity:0.3;}
	.st7{fill:#5A5F63;}
	.st8{fill:#D03F3F;}
	.st9{fill:#E9EFF4;}
	.st10{fill:#DEE4E9;}
	.st11{fill:#777B7E;}
	.st12{fill:#45CBEA;}
	.st13{fill:#E84D88;}
	.st14{opacity:0.25;}
	.st15{fill:#E9B02C;}
	.st16{fill:none;stroke:#E9B02C;stroke-width:2;stroke-linecap:round;stroke-linejoin:round;stroke-miterlimit:10;}
	.st17{fill:#65B1EF;}
	.st18{fill:#F29A2E;}
	.st19{fill:#59A5E0;}
	.st20{fill:#4E99D2;}
	.st21{opacity:0.15;}
	.st22{fill:#8CC63E;}
	.st23{opacity:0.25;fill:#FFFFFF;}
	.st24{fill:#38C0DC;}
	.st25{fill:#D23F77;}
	.st26{fill:#DAE5EF;}
	.st27{fill:#373C3F;}
	.st28{fill:#BF3333;}
	.st29{opacity:0.2;fill:#FFFFFF;}
	.st30{opacity:0.3;fill:#FFFFFF;}
	.st31{fill:#7FB239;}
</style>
<g>
	<g>
		<g>
			<g>
				<g>
					<g>
						<g>
							<g>
								<g>
									<g>
										<g>
											<g>
												<g>
													<g>
														<g>
															<circle class="st0" cx="16" cy="16" r="16"/>
														</g>
													</g>
												</g>
											</g>
											<g>
												<g>
													<g>
														<g>
															<path class="st2" d="M32,16c0,8.84-7.165,16-16,16c-5.03,0-9.52-2.32-12.455-5.955
																c2.745,2.22,6.24,3.545,10.045,3.545c8.835,0,16-7.16,16-16c0-3.805-1.325-7.3-3.545-10.045
																C29.675,6.48,32,10.97,32,16z"/>
														</g>
													</g>
												</g>
											</g>
										</g>
									</g>
								</g>
							</g>
						</g>
					</g>
				</g>
			</g>
		</g>
	</g>
	<g>
		<g>
			<path class="st1" d="M20.777,24.05c0,0.467-0.373,0.833-0.833,0.833h-7.887c-0.46,0-0.833-0.367-0.833-0.833
				c0-0.46,0.373-0.833,0.833-0.833h7.887C20.403,23.217,20.777,23.59,20.777,24.05z"/>
		</g>
		<g>
			<g>
				<g>
					<g>
						<path class="st1" d="M6.988,16.355c0.391-0.23,1.548,1.01,3.365,1.078c1.881,0.07,2.974-1.308,3.365-1.078
							c0.487,0.167-0.177,3.347-3.365,3.359C7.166,19.702,6.501,16.522,6.988,16.355z"/>
					</g>
				</g>
				<g>
					<g>
						<path class="st15" d="M6.238,14.957c-0.363-0.058-0.611-0.4-0.552-0.764c0.059-0.363,0.395-0.612,0.764-0.552
							c3.748,0.602,4.887-2.075,4.898-2.102c0.138-0.341,0.526-0.505,0.869-0.366c0.341,0.139,0.505,0.528,0.366,0.869
							C11.831,13.884,9.469,15.476,6.238,14.957z"/>
					</g>
				</g>
			</g>
			<g>
				<g>
					<g>
						<path class="st1" d="M25.012,16.355c-0.391-0.23-1.548,1.01-3.365,1.078c-1.881,0.07-2.974-1.308-3.365-1.078
							c-0.487,0.167,0.177,3.347,3.365,3.359C24.834,19.702,25.499,16.522,25.012,16.355z"/>
					</g>
				</g>
				<g>
					<g>
						<path class="st15" d="M19.417,12.041c-0.139-0.341,0.025-0.73,0.366-0.869c0.34-0.139,0.728,0.024,0.868,0.363
							c0.05,0.12,1.195,2.701,4.899,2.106c0.367-0.06,0.706,0.189,0.764,0.552c0.058,0.364-0.189,0.706-0.552,0.764
							C22.554,15.473,20.175,13.9,19.417,12.041z"/>
					</g>
				</g>
			</g>
		</g>
	</g>
</g>
</svg>
