<?xml version="1.0" encoding="utf-8"?>
<!-- Generator: Adobe Illustrator 21.1.0, SVG Export Plug-In . SVG Version: 6.00 Build 0)  -->
<svg version="1.1" id="Layer_1" xmlns="http://www.w3.org/2000/svg" xmlns:xlink="http://www.w3.org/1999/xlink" x="0px" y="0px"
	 viewBox="0 0 32 32" style="enable-background:new 0 0 32 32;" xml:space="preserve">
<style type="text/css">
	.st0{fill:#FFD93B;}
	.st1{fill:#3E4347;}
	.st2{fill:#F4C534;}
	.st3{fill:#FFFFFF;}
	.st4{fill:#E24B4B;}
	.st5{opacity:0.2;}
	.st6{opacity:0.3;}
	.st7{fill:#5A5F63;}
	.st8{fill:#D03F3F;}
	.st9{fill:#E9EFF4;}
	.st10{fill:#DEE4E9;}
	.st11{fill:#777B7E;}
	.st12{fill:#45CBEA;}
	.st13{fill:#E84D88;}
	.st14{opacity:0.25;}
	.st15{fill:#E9B02C;}
	.st16{fill:none;stroke:#E9B02C;stroke-width:2;stroke-linecap:round;stroke-linejoin:round;stroke-miterlimit:10;}
	.st17{fill:#65B1EF;}
	.st18{fill:#F29A2E;}
	.st19{fill:#59A5E0;}
	.st20{fill:#4E99D2;}
	.st21{opacity:0.15;}
	.st22{fill:#8CC63E;}
	.st23{opacity:0.25;fill:#FFFFFF;}
	.st24{fill:#38C0DC;}
	.st25{fill:#D23F77;}
	.st26{fill:#DAE5EF;}
	.st27{fill:#373C3F;}
	.st28{fill:#BF3333;}
	.st29{opacity:0.2;fill:#FFFFFF;}
	.st30{opacity:0.3;fill:#FFFFFF;}
	.st31{fill:#7FB239;}
</style>
<g>
	<g>
		<g>
			<g>
				<g>
					<g>
						<g>
							<g>
								<g>
									<g>
										<g>
											<g>
												<g>
													<g>
														<g>
															<g>
																<g>
																	<g>
																		<circle class="st0" cx="16" cy="16" r="16"/>
																	</g>
																</g>
															</g>
														</g>
													</g>
													<g>
														<g>
															<g>
																<g>
																	<g>
																		<path class="st2" d="M32,16c0,8.84-7.165,16-16,16c-5.03,0-9.52-2.32-12.455-5.955
																			c2.745,2.22,6.24,3.545,10.045,3.545c8.835,0,16-7.16,16-16c0-3.805-1.325-7.3-3.545-10.045
																			C29.675,6.48,32,10.97,32,16z"/>
																	</g>
																</g>
															</g>
														</g>
													</g>
												</g>
											</g>
										</g>
									</g>
								</g>
							</g>
						</g>
					</g>
				</g>
			</g>
		</g>
	</g>
	<g>
		<g>
			<g>
				<path class="st1" d="M10.679,25.265c-0.459-0.307-0.582-0.928-0.275-1.387c2.316-3.46,5.89-3.46,10.837-3.46
					c0.552,0,1,0.448,1,1s-0.448,1-1,1c-5.033,0-7.526,0.109-9.175,2.573C11.757,25.451,11.136,25.57,10.679,25.265z"/>
			</g>
		</g>
		<g>
			<g>
				<g>
					<g>
						<circle class="st1" cx="10.2" cy="13.357" r="2.566"/>
					</g>
				</g>
				<g>
					<g>
						<path class="st7" d="M11.651,12.911c-0.178,0.168-0.514,0.107-0.729-0.132c-0.222-0.238-0.26-0.576-0.073-0.739
							c0.185-0.17,0.513-0.114,0.735,0.125C11.807,12.41,11.836,12.742,11.651,12.911z"/>
					</g>
				</g>
			</g>
			<g>
				<g>
					<g>
						<circle class="st1" cx="21.804" cy="13.357" r="2.566"/>
					</g>
				</g>
				<g>
					<g>
						<path class="st7" d="M23.255,12.911c-0.178,0.168-0.514,0.107-0.729-0.132c-0.222-0.238-0.26-0.576-0.073-0.739
							c0.185-0.17,0.513-0.114,0.735,0.125C23.411,12.41,23.44,12.742,23.255,12.911z"/>
					</g>
				</g>
			</g>
		</g>
	</g>
</g>
</svg>
