<?xml version="1.0" encoding="utf-8"?>
<!-- Generator: Adobe Illustrator 21.1.0, SVG Export Plug-In . SVG Version: 6.00 Build 0)  -->
<svg version="1.1" id="Layer_1" xmlns="http://www.w3.org/2000/svg" xmlns:xlink="http://www.w3.org/1999/xlink" x="0px" y="0px"
	 viewBox="0 0 32 32" style="enable-background:new 0 0 32 32;" xml:space="preserve">
<style type="text/css">
	.st0{fill:#FFD93B;}
	.st1{fill:#3E4347;}
	.st2{fill:#F4C534;}
	.st3{fill:#38C0DC;}
	.st4{fill:#45CBEA;}
	.st5{fill:#FFFFFF;}
	.st6{fill:#E24B4B;}
	.st7{fill:#5A5F63;}
	.st8{opacity:0.3;}
	.st9{opacity:0.2;}
	.st10{opacity:0.1;}
	.st11{fill:#E9B02C;}
	.st12{fill:#65B1EF;}
	.st13{fill:#E9EFF4;}
	.st14{fill:#8CC63E;}
	.st15{fill:#7FB239;}
	.st16{fill:#D03F3F;}
	.st17{fill:#D23F77;}
	.st18{fill:#E84D88;}
	.st19{fill:#59A5E0;}
	.st20{fill:#DEE4E9;}
	.st21{fill:#D3D9DD;}
	.st22{opacity:0.25;fill:#FFFFFF;}
	.st23{fill:#9A795F;}
	.st24{fill:#F29A2E;}
	.st25{fill:#FC97B2;}
	.st26{fill:#89664C;}
	.st27{fill:#7A5B44;}
	.st28{opacity:0.2;fill:#FFFFFF;}
	.st29{fill:#4E99D2;}
	.st30{fill:#BBC7D1;}
	.st31{fill:#DE9C25;}
</style>
<g>
	<g>
		<circle class="st0" cx="16" cy="16" r="16"/>
		<path class="st2" d="M32,16c0,8.84-7.165,16-16,16c-5.03,0-9.52-2.32-12.455-5.955c2.745,2.22,6.24,3.545,10.045,3.545
			c8.835,0,16-7.16,16-16c0-3.805-1.325-7.3-3.545-10.045C29.675,6.48,32,10.97,32,16z"/>
	</g>
	<g>
		<g>
			<g>
				<g>
					<path class="st1" d="M24.807,13.835c-4.399,0-6.774-2.638-6.873-2.75c-0.229-0.259-0.203-0.654,0.056-0.882
						s0.651-0.204,0.881,0.054l0,0c0.021,0.023,2.123,2.328,5.937,2.328c0.345,0,0.625,0.28,0.625,0.625
						S25.152,13.835,24.807,13.835z"/>
				</g>
			</g>
		</g>
		<g>
			<g>
				<g>
					<path class="st1" d="M13.191,18.034c-2.273,1.42-5.279,2.015-7.58,1.75c1.199-0.498,3.768-1.293,6.14-2.54
						c-0.878-0.47-2.184-1.477-2.16-2.46C10.749,16.395,16.046,16.249,13.191,18.034z"/>
					<path class="st1" d="M25.881,19.784c-3.757,0.433-9.227-1.732-8.19-3.04c0.169-0.226,2.025-0.741,2.38-0.87
						c0.568-0.224,1.475-0.596,1.83-1.09c0.024,0.985-1.281,1.989-2.16,2.46C21.606,18.28,24.881,19.369,25.881,19.784z"/>
				</g>
			</g>
			<g>
				<g>
					<path class="st1" d="M6.683,13.835c-0.345,0-0.625-0.28-0.625-0.625s0.28-0.625,0.625-0.625c3.813,0,5.916-2.305,5.937-2.328
						c0.23-0.258,0.624-0.281,0.882-0.052s0.282,0.622,0.055,0.88C13.458,11.196,11.083,13.835,6.683,13.835z"/>
				</g>
			</g>
		</g>
	</g>
	<g>
		<path class="st1" d="M20.564,24.328c0,0.643-0.514,1.157-1.157,1.157h-6.826c-0.631,0-1.145-0.514-1.145-1.157
			c0-0.631,0.514-1.145,1.145-1.145h6.826C20.05,23.183,20.564,23.697,20.564,24.328z"/>
	</g>
</g>
</svg>
