<?xml version="1.0" encoding="utf-8"?>
<!-- Generator: Adobe Illustrator 21.1.0, SVG Export Plug-In . SVG Version: 6.00 Build 0)  -->
<svg version="1.1" id="Layer_1" xmlns="http://www.w3.org/2000/svg" xmlns:xlink="http://www.w3.org/1999/xlink" x="0px" y="0px"
	 viewBox="0 0 32 32" style="enable-background:new 0 0 32 32;" xml:space="preserve">
<style type="text/css">
	.st0{fill:#FFD93B;}
	.st1{fill:#3E4347;}
	.st2{fill:#F4C534;}
	.st3{fill:#FFFFFF;}
	.st4{fill:#E24B4B;}
	.st5{opacity:0.2;}
	.st6{opacity:0.3;}
	.st7{fill:#5A5F63;}
	.st8{fill:#D03F3F;}
	.st9{fill:#E9EFF4;}
	.st10{fill:#DEE4E9;}
	.st11{fill:#777B7E;}
	.st12{fill:#45CBEA;}
	.st13{fill:#E84D88;}
	.st14{opacity:0.25;}
	.st15{fill:#E9B02C;}
	.st16{fill:none;stroke:#E9B02C;stroke-width:2;stroke-linecap:round;stroke-linejoin:round;stroke-miterlimit:10;}
	.st17{fill:#65B1EF;}
	.st18{fill:#F29A2E;}
	.st19{fill:#59A5E0;}
	.st20{fill:#4E99D2;}
	.st21{opacity:0.15;}
	.st22{fill:#8CC63E;}
	.st23{opacity:0.25;fill:#FFFFFF;}
	.st24{fill:#38C0DC;}
	.st25{fill:#D23F77;}
	.st26{fill:#DAE5EF;}
	.st27{fill:#373C3F;}
	.st28{fill:#BF3333;}
	.st29{opacity:0.2;fill:#FFFFFF;}
	.st30{opacity:0.3;fill:#FFFFFF;}
	.st31{fill:#7FB239;}
</style>
<g>
	<g>
		<g>
			<g>
				<g>
					<g>
						<g>
							<g>
								<g>
									<g>
										<g>
											<g>
												<g>
													<g>
														<g>
															<g>
																<g>
																	<g>
																		<g>
																			<g>
																				<g>
																					<circle class="st0" cx="16" cy="15.502" r="15.502"/>
																				</g>
																			</g>
																		</g>
																	</g>
																</g>
																<g>
																	<g>
																		<g>
																			<g>
																				<g>
																					<path class="st1" d="M24.356,19.764c-1.757,2.758-4.841,4.593-8.356,4.593c-3.515,0-6.599-1.835-8.351-4.593
																						c-0.238-0.37,0.033-0.851,0.47-0.851H23.88C24.317,18.913,24.588,19.394,24.356,19.764z"/>
																				</g>
																			</g>
																		</g>
																	</g>
																</g>
																<g>
																	<g>
																		<g>
																			<g>
																				<g>
																					<path class="st2" d="M31.502,15.502c0,8.565-6.942,15.502-15.502,15.502c-4.873,0-9.224-2.248-12.067-5.77
																						c2.66,2.151,6.046,3.435,9.732,3.435c8.56,0,15.502-6.937,15.502-15.502c0-3.687-1.284-7.073-3.435-9.732
																						C29.249,6.278,31.502,10.628,31.502,15.502z"/>
																				</g>
																			</g>
																		</g>
																	</g>
																</g>
															</g>
														</g>
													</g>
												</g>
											</g>
										</g>
									</g>
								</g>
							</g>
						</g>
					</g>
				</g>
			</g>
		</g>
	</g>
	<g>
		<g>
			<path class="st1" d="M10.632,13.288V11.45c-0.573-0.164-0.993-0.411-1.261-0.743C9.104,10.375,8.97,9.973,8.97,9.499
				c0-0.479,0.151-0.882,0.454-1.208c0.303-0.326,0.705-0.514,1.208-0.563V7.293h0.636v0.434c0.465,0.056,0.835,0.214,1.109,0.476
				c0.275,0.262,0.45,0.612,0.526,1.05l-1.109,0.145c-0.067-0.345-0.243-0.579-0.526-0.702v1.715c0.702,0.19,1.18,0.436,1.434,0.739
				c0.254,0.302,0.382,0.691,0.382,1.164c0,0.529-0.16,0.975-0.48,1.337c-0.32,0.363-0.765,0.585-1.335,0.667v0.82h-0.636V14.34
				c-0.506-0.061-0.917-0.25-1.232-0.566c-0.316-0.316-0.517-0.762-0.605-1.338l1.145-0.123c0.047,0.234,0.135,0.436,0.263,0.605
				C10.331,13.089,10.474,13.212,10.632,13.288z M10.632,8.683c-0.173,0.059-0.31,0.158-0.412,0.298
				c-0.102,0.14-0.154,0.295-0.154,0.465c0,0.155,0.047,0.299,0.14,0.432c0.093,0.133,0.235,0.24,0.425,0.322V8.683z M11.268,13.349
				c0.219-0.041,0.398-0.142,0.535-0.305c0.138-0.162,0.206-0.353,0.206-0.572c0-0.196-0.058-0.365-0.173-0.507
				c-0.115-0.142-0.305-0.251-0.568-0.327V13.349z"/>
		</g>
		<g>
			<path class="st1" d="M20.754,13.288V11.45c-0.573-0.164-0.993-0.411-1.261-0.743c-0.268-0.332-0.401-0.734-0.401-1.208
				c0-0.479,0.151-0.882,0.454-1.208c0.303-0.326,0.705-0.514,1.208-0.563V7.293h0.636v0.434c0.465,0.056,0.835,0.214,1.109,0.476
				c0.275,0.262,0.45,0.612,0.526,1.05l-1.109,0.145c-0.067-0.345-0.243-0.579-0.526-0.702v1.715c0.702,0.19,1.18,0.436,1.434,0.739
				c0.254,0.302,0.381,0.691,0.381,1.164c0,0.529-0.16,0.975-0.48,1.337c-0.32,0.363-0.765,0.585-1.335,0.667v0.82h-0.636V14.34
				c-0.506-0.061-0.917-0.25-1.232-0.566c-0.316-0.316-0.518-0.762-0.605-1.338l1.145-0.123c0.047,0.234,0.134,0.436,0.263,0.605
				C20.453,13.089,20.596,13.212,20.754,13.288z M20.754,8.683c-0.173,0.059-0.31,0.158-0.412,0.298
				c-0.102,0.14-0.154,0.295-0.154,0.465c0,0.155,0.047,0.299,0.14,0.432c0.094,0.133,0.235,0.24,0.425,0.322V8.683z M21.39,13.349
				c0.219-0.041,0.398-0.142,0.535-0.305c0.137-0.162,0.206-0.353,0.206-0.572c0-0.196-0.058-0.365-0.173-0.507
				c-0.116-0.142-0.305-0.251-0.568-0.327V13.349z"/>
		</g>
	</g>
	<g>
		<g>
			<path class="st4" d="M20.024,23.685c-0.151-1.004-1.067-1.584-1.967-1.795c-0.586-0.137-1.205-0.025-1.787,0.17
				c-0.497,0.175-1.11,0.238-1.79,0.108c-0.002-0.001-0.005-0.001-0.008-0.001c-0.533-0.102-1.093-0.111-1.512,0.154
				c-0.475,0.304-0.853,0.767-0.94,1.363c-0.045,0.306-0.067,0.632-0.063,0.978c0.773,6.013,2.343,7.355,4.064,7.337
				c1.721,0.019,3.291-1.323,4.064-7.337C20.09,24.318,20.069,23.991,20.024,23.685z"/>
		</g>
		<g>
			<path class="st3" d="M15.769,28.117c-0.004-0.451-0.008-0.898-0.011-1.337c-0.495-0.122-0.868-0.313-1.114-0.562
				c-0.246-0.249-0.379-0.546-0.386-0.878c-0.007-0.337,0.131-0.6,0.407-0.799c0.275-0.198,0.638-0.296,1.085-0.32
				c0-0.094,0.001-0.188,0.001-0.281c0.188,0.003,0.375,0.003,0.563-0.001c0,0.093,0.001,0.187,0.001,0.281
				c0.413,0.029,0.746,0.11,0.996,0.267c0.249,0.157,0.411,0.381,0.475,0.681c-0.338,0.061-0.671,0.114-1.002,0.159
				c-0.058-0.236-0.215-0.386-0.468-0.465c0,0.384-0.002,0.778-0.004,1.179c0.616,0.126,1.035,0.278,1.251,0.486
				c0.216,0.207,0.312,0.486,0.29,0.836c-0.024,0.392-0.185,0.731-0.463,1.007c-0.279,0.276-0.644,0.447-1.103,0.51
				c-0.002,0.204-0.004,0.408-0.005,0.613c-0.167,0-0.334,0-0.501,0c-0.002-0.199-0.003-0.398-0.005-0.596
				c-0.407-0.047-0.742-0.192-1.013-0.432c-0.27-0.24-0.462-0.58-0.565-1.01c0.328-0.017,0.653-0.036,0.977-0.059
				c0.045,0.171,0.123,0.321,0.233,0.447C15.518,27.969,15.637,28.06,15.769,28.117z M15.748,24.855
				c-0.154,0.037-0.277,0.1-0.368,0.193c-0.091,0.092-0.136,0.196-0.135,0.313c0.001,0.106,0.044,0.208,0.128,0.303
				c0.084,0.095,0.21,0.173,0.378,0.232C15.75,25.542,15.749,25.194,15.748,24.855z M16.294,28.162
				c0.181-0.031,0.33-0.108,0.448-0.229c0.118-0.121,0.18-0.263,0.185-0.423c0.004-0.144-0.041-0.265-0.138-0.366
				c-0.097-0.101-0.258-0.176-0.484-0.229C16.302,27.326,16.298,27.742,16.294,28.162z"/>
		</g>
	</g>
	<g class="st5">
		
			<ellipse transform="matrix(0.4883 -0.8727 0.8727 0.4883 -10.7644 27.879)" class="st3" cx="18.392" cy="23.119" rx="0.37" ry="0.714"/>
	</g>
</g>
</svg>
