<?xml version="1.0" encoding="utf-8"?>
<!-- Generator: Adobe Illustrator 21.1.0, SVG Export Plug-In . SVG Version: 6.00 Build 0)  -->
<svg version="1.1" id="Layer_1" xmlns="http://www.w3.org/2000/svg" xmlns:xlink="http://www.w3.org/1999/xlink" x="0px" y="0px"
	 viewBox="0 0 32 32" style="enable-background:new 0 0 32 32;" xml:space="preserve">
<style type="text/css">
	.st0{fill:#FFD93B;}
	.st1{fill:#3E4347;}
	.st2{fill:#F4C534;}
	.st3{fill:#FFFFFF;}
	.st4{fill:#E24B4B;}
	.st5{opacity:0.2;}
	.st6{opacity:0.3;}
	.st7{fill:#5A5F63;}
	.st8{fill:#D03F3F;}
	.st9{fill:#E9EFF4;}
	.st10{fill:#DEE4E9;}
	.st11{fill:#777B7E;}
	.st12{fill:#45CBEA;}
	.st13{fill:#E84D88;}
	.st14{opacity:0.25;}
	.st15{fill:#E9B02C;}
	.st16{fill:none;stroke:#E9B02C;stroke-width:2;stroke-linecap:round;stroke-linejoin:round;stroke-miterlimit:10;}
	.st17{fill:#65B1EF;}
	.st18{fill:#F29A2E;}
	.st19{fill:#59A5E0;}
	.st20{fill:#4E99D2;}
	.st21{opacity:0.15;}
	.st22{fill:#8CC63E;}
	.st23{opacity:0.25;fill:#FFFFFF;}
	.st24{fill:#38C0DC;}
	.st25{fill:#D23F77;}
	.st26{fill:#DAE5EF;}
	.st27{fill:#373C3F;}
	.st28{fill:#BF3333;}
	.st29{opacity:0.2;fill:#FFFFFF;}
	.st30{opacity:0.3;fill:#FFFFFF;}
	.st31{fill:#7FB239;}
</style>
<g>
	<g>
		<g>
			<g>
				<g>
					<g>
						<g>
							<g>
								<g>
									<g>
										<g>
											<g>
												<g>
													<g>
														<g>
															<g>
																<g>
																	<g>
																		<g>
																			<g>
																				<g>
																					<g>
																						<g>
																							<g>
																								<circle class="st0" cx="16" cy="16" r="16"/>
																							</g>
																						</g>
																					</g>
																				</g>
																			</g>
																			<g>
																				<g>
																					<g>
																						<g>
																							<g>
																								<path class="st2" d="M32,16c0,8.84-7.165,16-16,16c-5.03,0-9.52-2.32-12.455-5.955
																									c2.745,2.22,6.24,3.545,10.045,3.545c8.835,0,16-7.16,16-16c0-3.805-1.325-7.3-3.545-10.045
																									C29.675,6.48,32,10.97,32,16z"/>
																							</g>
																						</g>
																					</g>
																				</g>
																			</g>
																		</g>
																	</g>
																</g>
															</g>
														</g>
													</g>
												</g>
											</g>
										</g>
									</g>
								</g>
							</g>
						</g>
					</g>
				</g>
			</g>
		</g>
	</g>
	<g>
		<g>
			<path class="st1" d="M22.162,25.449c-0.796,0.48-2.938-1.656-5.89-1.682c-2.909-0.026-5.094,2.163-5.89,1.682
				c-0.953-0.388,0.677-5.038,5.89-5.066C21.485,20.411,23.115,25.062,22.162,25.449z"/>
		</g>
		<g>
			<g>
				<g>
					<path class="st1" d="M24.396,13.845c0,1.409-1.153,2.562-2.568,2.562c-1.416,0-2.568-1.153-2.568-2.562
						c0-1.422,1.153-2.568,2.568-2.568C23.244,11.277,24.396,12.423,24.396,13.845z"/>
				</g>
				<g>
					
						<ellipse transform="matrix(0.6556 -0.7551 0.7551 0.6556 -1.8209 21.5266)" class="st7" cx="22.688" cy="12.759" rx="0.482" ry="0.757"/>
				</g>
			</g>
			<g>
				<g>
					<path class="st1" d="M12.74,13.845c0,1.409-1.153,2.562-2.568,2.562c-1.415,0-2.568-1.153-2.568-2.562
						c0-1.422,1.153-2.568,2.568-2.568C11.587,11.277,12.74,12.423,12.74,13.845z"/>
				</g>
				<g>
					
						<ellipse transform="matrix(0.6556 -0.7551 0.7551 0.6556 -5.8355 12.725)" class="st7" cx="11.031" cy="12.759" rx="0.482" ry="0.757"/>
				</g>
			</g>
		</g>
	</g>
</g>
</svg>
