<?xml version="1.0" encoding="utf-8"?>
<!-- Generator: Adobe Illustrator 21.1.0, SVG Export Plug-In . SVG Version: 6.00 Build 0)  -->
<svg version="1.1" id="Layer_1" xmlns="http://www.w3.org/2000/svg" xmlns:xlink="http://www.w3.org/1999/xlink" x="0px" y="0px"
	 viewBox="0 0 32 32" style="enable-background:new 0 0 32 32;" xml:space="preserve">
<style type="text/css">
	.st0{fill:#FFD93B;}
	.st1{fill:#3E4347;}
	.st2{fill:#F4C534;}
	.st3{fill:#FFFFFF;}
	.st4{fill:#E24B4B;}
	.st5{opacity:0.2;}
	.st6{opacity:0.3;}
	.st7{fill:#5A5F63;}
	.st8{fill:#D03F3F;}
	.st9{fill:#E9EFF4;}
	.st10{fill:#DEE4E9;}
	.st11{fill:#777B7E;}
	.st12{fill:#45CBEA;}
	.st13{fill:#E84D88;}
	.st14{opacity:0.25;}
	.st15{fill:#E9B02C;}
	.st16{fill:none;stroke:#E9B02C;stroke-width:2;stroke-linecap:round;stroke-linejoin:round;stroke-miterlimit:10;}
	.st17{fill:#65B1EF;}
	.st18{fill:#F29A2E;}
	.st19{fill:#59A5E0;}
	.st20{fill:#4E99D2;}
	.st21{opacity:0.15;}
	.st22{fill:#8CC63E;}
	.st23{opacity:0.25;fill:#FFFFFF;}
	.st24{fill:#38C0DC;}
	.st25{fill:#D23F77;}
	.st26{fill:#DAE5EF;}
	.st27{fill:#373C3F;}
	.st28{fill:#BF3333;}
	.st29{opacity:0.2;fill:#FFFFFF;}
	.st30{opacity:0.3;fill:#FFFFFF;}
	.st31{fill:#7FB239;}
</style>
<g>
	<g>
		<g>
			<g>
				<g>
					<g>
						<g>
							<g>
								<g>
									<g>
										<g>
											<g>
												<g>
													<g>
														<g>
															<g>
																<g>
																	<g>
																		<g>
																			<g>
																				<g>
																					<g>
																						<g>
																							<g>
																								<g>
																									<g>
																										<circle class="st0" cx="16" cy="16" r="16"/>
																									</g>
																								</g>
																							</g>
																						</g>
																					</g>
																				</g>
																				<g>
																					<g>
																						<g>
																							<g>
																								<g>
																									<g>
																										<path class="st2" d="M32,16c0,8.84-7.165,16-16,16c-5.03,0-9.52-2.32-12.455-5.955
																											c2.745,2.22,6.24,3.545,10.045,3.545c8.835,0,16-7.16,16-16c0-3.805-1.325-7.3-3.545-10.045
																											C29.675,6.48,32,10.97,32,16z"/>
																									</g>
																								</g>
																							</g>
																						</g>
																					</g>
																				</g>
																			</g>
																		</g>
																	</g>
																</g>
															</g>
														</g>
													</g>
												</g>
											</g>
										</g>
									</g>
								</g>
							</g>
						</g>
					</g>
				</g>
			</g>
		</g>
	</g>
	<g>
		<g>
			<g>
				<g>
					<g>
						<path class="st1" d="M23.339,19.134l-5.314-2.58c-0.288-0.14-0.47-0.431-0.469-0.751c0.001-0.32,0.184-0.611,0.472-0.75
							l4.725-2.274c0.415-0.199,0.913-0.025,1.112,0.39c0.2,0.415,0.025,0.913-0.389,1.112l-3.172,1.526l3.763,1.827
							c0.414,0.201,0.587,0.7,0.385,1.114C24.253,19.161,23.754,19.336,23.339,19.134z"/>
					</g>
				</g>
			</g>
			<g>
				<g>
					<path class="st15" d="M19.443,8.663c-0.25-0.386-0.139-0.902,0.247-1.152c0.388-0.25,0.903-0.139,1.152,0.247
						c1.589,2.458,3.726,1.532,3.816,1.492c0.42-0.191,0.913-0.002,1.102,0.418c0.189,0.42,0.002,0.913-0.417,1.102
						C23.682,11.518,21.094,11.216,19.443,8.663z"/>
				</g>
			</g>
		</g>
		<g>
			<g>
				<g>
					<g>
						<path class="st1" d="M7.547,18.749c-0.201-0.414-0.029-0.912,0.385-1.114l3.764-1.827l-3.172-1.526
							c-0.415-0.2-0.589-0.698-0.389-1.112c0.199-0.414,0.697-0.589,1.112-0.39l4.726,2.274c0.288,0.139,0.471,0.43,0.472,0.75
							c0.001,0.32-0.182,0.611-0.469,0.751l-5.314,2.58C8.246,19.336,7.748,19.162,7.547,18.749z"/>
					</g>
				</g>
			</g>
			<g>
				<g>
					<path class="st15" d="M6.656,10.77c-0.419-0.189-0.606-0.682-0.417-1.102c0.188-0.418,0.677-0.605,1.097-0.42
						c0.231,0.099,2.281,0.891,3.821-1.49c0.25-0.386,0.766-0.497,1.152-0.247c0.387,0.25,0.497,0.766,0.247,1.152
						C10.882,11.252,8.271,11.497,6.656,10.77z"/>
				</g>
			</g>
		</g>
	</g>
	<g>
		<g>
			<path class="st1" d="M20.629,26.014c-0.196,0-0.392-0.072-0.544-0.214l-1.772-1.649L16.542,25.8
				c-0.306,0.285-0.781,0.285-1.088,0l-1.77-1.649l-1.767,1.648c-0.284,0.266-0.719,0.287-1.028,0.051l-2.312-1.766
				c-0.35-0.268-0.417-0.768-0.15-1.118c0.268-0.35,0.769-0.417,1.118-0.15l1.777,1.357l1.818-1.696
				c0.306-0.286,0.781-0.286,1.088,0l1.77,1.649l1.771-1.649c0.306-0.285,0.782-0.285,1.087,0l1.822,1.696l1.775-1.356
				c0.351-0.267,0.851-0.2,1.118,0.149c0.267,0.35,0.201,0.851-0.15,1.119l-2.309,1.766C20.97,25.959,20.799,26.014,20.629,26.014z"
				/>
		</g>
	</g>
</g>
</svg>
