<?xml version="1.0" encoding="utf-8"?>
<!-- Generator: Adobe Illustrator 21.1.0, SVG Export Plug-In . SVG Version: 6.00 Build 0)  -->
<svg version="1.1" id="Layer_1" xmlns="http://www.w3.org/2000/svg" xmlns:xlink="http://www.w3.org/1999/xlink" x="0px" y="0px"
	 viewBox="0 0 32 32" style="enable-background:new 0 0 32 32;" xml:space="preserve">
<style type="text/css">
	.st0{fill:#FFD93B;}
	.st1{fill:#3E4347;}
	.st2{fill:#F4C534;}
	.st3{fill:#FFFFFF;}
	.st4{fill:#E24B4B;}
	.st5{opacity:0.2;}
	.st6{opacity:0.3;}
	.st7{fill:#5A5F63;}
	.st8{fill:#D03F3F;}
	.st9{fill:#E9EFF4;}
	.st10{fill:#DEE4E9;}
	.st11{fill:#777B7E;}
	.st12{fill:#45CBEA;}
	.st13{fill:#E84D88;}
	.st14{opacity:0.25;}
	.st15{fill:#E9B02C;}
	.st16{fill:none;stroke:#E9B02C;stroke-width:2;stroke-linecap:round;stroke-linejoin:round;stroke-miterlimit:10;}
	.st17{fill:#65B1EF;}
	.st18{fill:#F29A2E;}
	.st19{fill:#59A5E0;}
	.st20{fill:#4E99D2;}
	.st21{opacity:0.15;}
	.st22{fill:#8CC63E;}
	.st23{opacity:0.25;fill:#FFFFFF;}
	.st24{fill:#38C0DC;}
	.st25{fill:#D23F77;}
	.st26{fill:#DAE5EF;}
	.st27{fill:#373C3F;}
	.st28{fill:#BF3333;}
	.st29{opacity:0.2;fill:#FFFFFF;}
	.st30{opacity:0.3;fill:#FFFFFF;}
	.st31{fill:#7FB239;}
</style>
<g>
	<g>
		<g>
			<g>
				<g>
					<g>
						<g>
							<g>
								<g>
									<g>
										<g>
											<g>
												<g>
													<g>
														<g>
															<g>
																<g>
																	<g>
																		<g>
																			<g>
																				<g>
																					<g>
																						<g>
																							<g>
																								<g>
																									<g>
																										<g>
																											<g>
																												<circle class="st0" cx="16" cy="16" r="16"/>
																											</g>
																										</g>
																									</g>
																								</g>
																							</g>
																						</g>
																					</g>
																					<g>
																						<g>
																							<g>
																								<g>
																									<g>
																										<g>
																											<g>
																												<path class="st2" d="M32,16c0,8.84-7.165,16-16,16c-5.03,0-9.52-2.32-12.455-5.955
																													c2.745,2.22,6.24,3.545,10.045,3.545c8.835,0,16-7.16,16-16c0-3.805-1.325-7.3-3.545-10.045
																													C29.675,6.48,32,10.97,32,16z"/>
																											</g>
																										</g>
																									</g>
																								</g>
																							</g>
																						</g>
																					</g>
																				</g>
																			</g>
																		</g>
																	</g>
																</g>
															</g>
														</g>
													</g>
												</g>
											</g>
										</g>
									</g>
								</g>
							</g>
						</g>
					</g>
				</g>
			</g>
		</g>
	</g>
	<g>
		<g>
			<g>
				<g>
					<path class="st1" d="M13.814,15.535c0,1.707-1.617,3.087-3.608,3.087s-3.608-1.38-3.608-3.087c0-0.34,0.061-0.667,0.19-0.973
						c0.472,1.32,1.826,1.771,3.418,1.771c1.593,0,2.947-0.451,3.418-1.771C13.752,14.869,13.814,15.195,13.814,15.535z"/>
				</g>
			</g>
			<g>
			</g>
		</g>
		<g>
			<g>
				<g>
					<path class="st1" d="M18.186,15.535c0,1.707,1.617,3.087,3.608,3.087c1.991,0,3.608-1.38,3.608-3.087
						c0-0.34-0.061-0.667-0.19-0.973c-0.472,1.32-1.826,1.771-3.418,1.771c-1.593,0-2.947-0.451-3.418-1.771
						C18.248,14.869,18.186,15.195,18.186,15.535z"/>
				</g>
			</g>
		</g>
	</g>
	<g>
		<g>
			<g>
				<path class="st15" d="M23.335,13.609c-2.538-0.522-4.027-1.591-4.686-3.366c-0.128-0.345,0.048-0.729,0.393-0.857
					c0.345-0.128,0.729,0.048,0.857,0.393c0.329,0.888,1.048,1.977,3.704,2.523c0.361,0.074,0.593,0.427,0.519,0.787
					C24.047,13.457,23.688,13.683,23.335,13.609z"/>
			</g>
		</g>
		<g>
			<g>
				<path class="st15" d="M7.869,13.037c-0.044-0.366,0.216-0.698,0.581-0.742c1.835-0.223,3.131-1.116,3.65-2.514
					c0.128-0.345,0.512-0.522,0.857-0.393c0.345,0.128,0.522,0.512,0.393,0.857c-0.691,1.862-2.418,3.092-4.738,3.374
					C8.241,13.662,7.914,13.399,7.869,13.037z"/>
			</g>
		</g>
	</g>
	<g>
		<g>
			<path class="st1" d="M21.223,25.36c-3.555-1.367-6.882-1.367-10.438,0c-0.542,0.197-0.982-0.541-0.609-1.023
				c1.651-2.164,3.725-3.394,5.824-3.394s4.182,1.23,5.824,3.394C22.196,24.819,21.756,25.556,21.223,25.36z"/>
		</g>
	</g>
</g>
</svg>
