<?xml version="1.0" encoding="utf-8"?>
<!-- Generator: Adobe Illustrator 21.1.0, SVG Export Plug-In . SVG Version: 6.00 Build 0)  -->
<svg version="1.1" id="Layer_1" xmlns="http://www.w3.org/2000/svg" xmlns:xlink="http://www.w3.org/1999/xlink" x="0px" y="0px"
	 viewBox="0 0 32 32" style="enable-background:new 0 0 32 32;" xml:space="preserve">
<style type="text/css">
	.st0{fill:#FFD93B;}
	.st1{fill:#3E4347;}
	.st2{fill:#F4C534;}
	.st3{fill:#FFFFFF;}
	.st4{fill:#E24B4B;}
	.st5{opacity:0.2;}
	.st6{opacity:0.3;}
	.st7{fill:#5A5F63;}
	.st8{fill:#D03F3F;}
	.st9{fill:#E9EFF4;}
	.st10{fill:#DEE4E9;}
	.st11{fill:#777B7E;}
	.st12{fill:#45CBEA;}
	.st13{fill:#E84D88;}
	.st14{opacity:0.25;}
	.st15{fill:#E9B02C;}
	.st16{fill:none;stroke:#E9B02C;stroke-width:2;stroke-linecap:round;stroke-linejoin:round;stroke-miterlimit:10;}
	.st17{fill:#65B1EF;}
	.st18{fill:#F29A2E;}
	.st19{fill:#59A5E0;}
	.st20{fill:#4E99D2;}
	.st21{opacity:0.15;}
	.st22{fill:#8CC63E;}
	.st23{opacity:0.25;fill:#FFFFFF;}
	.st24{fill:#38C0DC;}
	.st25{fill:#D23F77;}
	.st26{fill:#DAE5EF;}
	.st27{fill:#373C3F;}
	.st28{fill:#BF3333;}
	.st29{opacity:0.2;fill:#FFFFFF;}
	.st30{opacity:0.3;fill:#FFFFFF;}
	.st31{fill:#7FB239;}
</style>
<g>
	<g>
		<g>
			<g>
				<g>
					<g>
						<g>
							<g>
								<circle class="st0" cx="16" cy="16" r="16"/>
							</g>
						</g>
					</g>
				</g>
			</g>
		</g>
	</g>
	<g>
		<g>
			<g>
				<g>
					<g>
						<g>
							<g>
								<path class="st2" d="M32,16c0,8.84-7.167,16-16,16c-5.033,0-9.52-2.32-12.453-5.953c2.74,2.22,6.24,3.547,10.04,3.547
									c8.84,0,16-7.16,16-16c0-3.807-1.32-7.3-3.54-10.047C29.673,6.48,32,10.973,32,16z"/>
							</g>
						</g>
					</g>
				</g>
			</g>
		</g>
	</g>
	<g>
		<g>
			<g>
				<path class="st15" d="M13.747,9.727c0.273,0.187,0.34,0.553,0.153,0.827c-0.18,0.273-0.553,0.34-0.827,0.16
					c-2.007-1.367-4.747-0.847-6.113,1.153c-0.185,0.267-0.541,0.343-0.833,0.16c-0.267-0.187-0.34-0.56-0.153-0.827
					C7.707,8.653,11.193,7.993,13.747,9.727z"/>
				<g>
					<path class="st15" d="M25.867,12.027c-0.264,0.176-0.633,0.119-0.827-0.16c-1.367-2-4.107-2.52-6.113-1.153
						c-0.273,0.18-0.647,0.113-0.827-0.16c-0.187-0.273-0.12-0.64,0.153-0.827c2.547-1.733,6.04-1.073,7.773,1.473
						C26.213,11.467,26.14,11.84,25.867,12.027z"/>
				</g>
			</g>
		</g>
	</g>
	<g>
		<g>
			<g>
				<g>
					<g>
						<g>
							<g>
								<g>
									<ellipse class="st1" cx="9.932" cy="14.664" rx="2.55" ry="2.547"/>
								</g>
							</g>
						</g>
					</g>
				</g>
			</g>
		</g>
	</g>
	<g>
		<g>
			<g>
				<g>
					<g>
						<g>
							<g>
								<g>
									<ellipse class="st1" cx="22.071" cy="14.664" rx="2.55" ry="2.547"/>
								</g>
							</g>
							<g>
								<g>
									
										<ellipse transform="matrix(0.6994 -0.7147 0.7147 0.6994 -2.8711 20.6182)" class="st7" cx="23.077" cy="13.723" rx="0.469" ry="0.658"/>
								</g>
								<g>
									
										<ellipse transform="matrix(0.7036 -0.7106 0.7106 0.7036 -6.5094 11.8399)" class="st7" cx="10.937" cy="13.723" rx="0.469" ry="0.658"/>
								</g>
							</g>
						</g>
					</g>
				</g>
			</g>
		</g>
	</g>
	<path class="st1" d="M21.561,24.22c-3.72-1.487-7.28-1.513-10.687-0.087c-0.647,0.273-1.24-0.467-0.86-1.06
		c1.187-1.873,3.507-3.14,6.187-3.14c2.74,0,5.107,1.333,6.267,3.273C22.821,23.793,22.194,24.466,21.561,24.22z"/>
</g>
</svg>
