<?xml version="1.0" encoding="utf-8"?>
<!-- Generator: Adobe Illustrator 21.1.0, SVG Export Plug-In . SVG Version: 6.00 Build 0)  -->
<svg version="1.1" id="Layer_1" xmlns="http://www.w3.org/2000/svg" xmlns:xlink="http://www.w3.org/1999/xlink" x="0px" y="0px"
	 viewBox="0 0 32 32" style="enable-background:new 0 0 32 32;" xml:space="preserve">
<style type="text/css">
	.st0{fill:#FFD93B;}
	.st1{fill:#3E4347;}
	.st2{fill:#F4C534;}
	.st3{fill:#FFFFFF;}
	.st4{fill:#E24B4B;}
	.st5{opacity:0.2;}
	.st6{opacity:0.3;}
	.st7{fill:#5A5F63;}
	.st8{fill:#D03F3F;}
	.st9{fill:#E9EFF4;}
	.st10{fill:#DEE4E9;}
	.st11{fill:#777B7E;}
	.st12{fill:#45CBEA;}
	.st13{fill:#E84D88;}
	.st14{opacity:0.25;}
	.st15{fill:#E9B02C;}
	.st16{fill:none;stroke:#E9B02C;stroke-width:2;stroke-linecap:round;stroke-linejoin:round;stroke-miterlimit:10;}
	.st17{fill:#65B1EF;}
	.st18{fill:#F29A2E;}
	.st19{fill:#59A5E0;}
	.st20{fill:#4E99D2;}
	.st21{opacity:0.15;}
	.st22{fill:#8CC63E;}
	.st23{opacity:0.25;fill:#FFFFFF;}
	.st24{fill:#38C0DC;}
	.st25{fill:#D23F77;}
	.st26{fill:#DAE5EF;}
	.st27{fill:#373C3F;}
	.st28{fill:#BF3333;}
	.st29{opacity:0.2;fill:#FFFFFF;}
	.st30{opacity:0.3;fill:#FFFFFF;}
	.st31{fill:#7FB239;}
</style>
<g>
	<g>
		<g>
			<g>
				<g>
					<g>
						<g>
							<g>
								<g>
									<g>
										<g>
											<circle class="st0" cx="16" cy="16" r="16"/>
										</g>
									</g>
								</g>
							</g>
						</g>
					</g>
				</g>
			</g>
			<g>
				<g>
					<g>
						<g>
							<g>
								<g>
									<g>
										<g>
											<path class="st2" d="M32,16c0,8.84-7.167,16-16,16c-5.033,0-9.52-2.32-12.453-5.953c2.74,2.22,6.24,3.547,10.04,3.547
												c8.84,0,16-7.16,16-16c0-3.807-1.32-7.3-3.54-10.047C29.673,6.48,32,10.973,32,16z"/>
										</g>
									</g>
								</g>
							</g>
						</g>
					</g>
				</g>
			</g>
			<g>
				<g>
					<g>
						<g>
							<g>
								<g>
									<g>
										<g>
											<g>
												<ellipse class="st1" cx="9.932" cy="14.664" rx="2.55" ry="2.547"/>
											</g>
										</g>
									</g>
								</g>
							</g>
						</g>
					</g>
				</g>
			</g>
			<g>
				<g>
					<g>
						<g>
							<g>
								<g>
									<g>
										<g>
											<g>
												<ellipse class="st1" cx="22.071" cy="14.664" rx="2.55" ry="2.547"/>
											</g>
										</g>
									</g>
									<g>
										<g>
											<g>
												
													<ellipse transform="matrix(0.6995 -0.7147 0.7147 0.6995 -2.8715 20.6167)" class="st7" cx="23.077" cy="13.723" rx="0.469" ry="0.658"/>
											</g>
										</g>
										<g>
											<g>
												
													<ellipse transform="matrix(0.7035 -0.7107 0.7107 0.7035 -6.5096 11.8412)" class="st7" cx="10.937" cy="13.723" rx="0.469" ry="0.658"/>
											</g>
										</g>
									</g>
								</g>
							</g>
						</g>
					</g>
				</g>
			</g>
			<g>
				<path class="st1" d="M21.561,24.22c-3.72-1.487-7.28-1.513-10.687-0.087c-0.647,0.273-1.24-0.467-0.86-1.06
					c1.187-1.873,3.507-3.14,6.187-3.14c2.74,0,5.107,1.333,6.267,3.273C22.821,23.793,22.194,24.466,21.561,24.22z"/>
			</g>
		</g>
	</g>
	<g>
		<g>
			<g>
				<g>
					<g>
						<path class="st3" d="M27.995,26.674c-1.92-0.206-3.757,0.078-5.329,0.69c-0.074-2.888-1.416-5.902-4.127-8.192l0,0
							C23.441,20.195,26.703,23.25,27.995,26.674z"/>
					</g>
				</g>
				<g>
					<g>
						<g>
							<path class="st9" d="M18.723,19.255c0,0,0.85,0.451,1.8,1.414c0.879,0.925,1.224,1.654,1.224,1.654
								c-0.353-0.439-0.96-1.135-1.421-1.588C19.755,20.141,18.723,19.255,18.723,19.255z"/>
						</g>
					</g>
					<g>
						<g>
							<path class="st9" d="M20.539,20.253c0,0,1.315,0.706,2.505,2.089c1.109,1.308,1.495,2.487,1.495,2.487
								s-0.645-1.279-1.664-2.43C21.865,21.208,20.539,20.253,20.539,20.253z"/>
						</g>
					</g>
					<g>
						<g>
							<path class="st9" d="M18.746,19.265c0,0,1.321,0.256,2.839,1.057c1.427,0.77,2.186,1.572,2.186,1.572
								s-1.115-0.851-2.337-1.478C20.207,19.754,18.746,19.265,18.746,19.265z"/>
						</g>
					</g>
				</g>
			</g>
			<g>
				<g>
					<g>
						<g>
							
								<ellipse transform="matrix(0.9533 -0.3019 0.3019 0.9533 -6.8087 9.5201)" class="st3" cx="27.39" cy="26.784" rx="2.278" ry="2.279"/>
						</g>
					</g>
				</g>
				<g>
					<g>
						<g>
							<g>
								
									<ellipse transform="matrix(0.9533 -0.3019 0.3019 0.9533 -7.3676 8.9566)" class="st3" cx="25.289" cy="28.311" rx="3.005" ry="3.004"/>
							</g>
						</g>
						<g>
							<g>
								
									<ellipse transform="matrix(0.9533 -0.3019 0.3019 0.9533 -7.4881 8.2142)" class="st3" cx="22.828" cy="28.331" rx="2.278" ry="2.279"/>
							</g>
						</g>
						<g>
							<g>
								<path class="st9" d="M23.452,30.136c-0.984,0.017-1.906-0.597-2.217-1.581c-0.256-0.802-0.042-1.641,0.493-2.221
									c-0.931,0.514-1.408,1.628-1.073,2.679c0.379,1.2,1.662,1.87,2.863,1.491c0.066-0.021,0.129-0.049,0.192-0.076
									C23.617,30.335,23.531,30.237,23.452,30.136z"/>
							</g>
						</g>
					</g>
					<g>
						<g>
							<g>
								<path class="st9" d="M28.103,28.662c-0.323,0.801-0.982,1.459-1.87,1.74c-1.584,0.503-3.275-0.376-3.772-1.957
									c-0.067-0.22-0.112-0.442-0.128-0.662c-0.084,0.466-0.057,0.953,0.092,1.431c0.503,1.584,2.193,2.463,3.769,1.963
									c1.184-0.378,1.971-1.418,2.083-2.579C28.219,28.62,28.161,28.642,28.103,28.662z"/>
							</g>
						</g>
						<g>
							<g>
								<path class="st9" d="M28.077,28.957c-0.642,0.205-1.309,0.105-1.846-0.216c0.379,0.084,0.792,0.071,1.19-0.051
									c1.2-0.379,1.867-1.657,1.483-2.86c-0.177-0.553-0.539-0.989-0.995-1.263c0.755,0.173,1.402,0.74,1.656,1.533
									C29.944,27.3,29.277,28.578,28.077,28.957z"/>
							</g>
						</g>
					</g>
				</g>
			</g>
		</g>
		<g>
			<g>
				<g>
					<g>
						<path class="st3" d="M4.005,26.674c1.919-0.206,3.757,0.078,5.329,0.69c0.074-2.888,1.416-5.902,4.127-8.192h0
							C8.559,20.195,5.297,23.25,4.005,26.674z"/>
					</g>
				</g>
				<g>
					<g>
						<g>
							<path class="st9" d="M13.277,19.255c0,0-0.85,0.451-1.8,1.414c-0.879,0.925-1.224,1.654-1.224,1.654
								c0.353-0.439,0.96-1.135,1.421-1.588C12.245,20.141,13.277,19.255,13.277,19.255z"/>
						</g>
					</g>
					<g>
						<g>
							<path class="st9" d="M11.461,20.253c0,0-1.315,0.706-2.505,2.089C7.847,23.65,7.461,24.83,7.461,24.83
								s0.645-1.279,1.665-2.43C10.135,21.208,11.461,20.253,11.461,20.253z"/>
						</g>
					</g>
					<g>
						<g>
							<path class="st9" d="M13.254,19.265c0,0-1.321,0.256-2.839,1.057c-1.427,0.77-2.186,1.572-2.186,1.572
								s1.115-0.851,2.337-1.478C11.793,19.754,13.254,19.265,13.254,19.265z"/>
						</g>
					</g>
				</g>
			</g>
			<g>
				<g>
					<g>
						<g>
							
								<ellipse transform="matrix(0.3019 -0.9533 0.9533 0.3019 -22.3162 23.0914)" class="st3" cx="4.61" cy="26.784" rx="2.279" ry="2.278"/>
						</g>
					</g>
				</g>
				<g>
					<g>
						<g>
							<g>
								
									<ellipse transform="matrix(0.3019 -0.9533 0.9533 0.3019 -22.3051 26.1611)" class="st3" cx="6.711" cy="28.311" rx="3.004" ry="3.005"/>
							</g>
						</g>
						<g>
							<g>
								
									<ellipse transform="matrix(0.3019 -0.9533 0.9533 0.3019 -20.6062 28.5209)" class="st3" cx="9.171" cy="28.331" rx="2.279" ry="2.278"/>
							</g>
						</g>
						<g>
							<g>
								<path class="st9" d="M8.547,30.136c0.984,0.017,1.906-0.597,2.217-1.581c0.256-0.802,0.042-1.641-0.493-2.221
									c0.931,0.514,1.408,1.628,1.073,2.679c-0.379,1.2-1.662,1.87-2.863,1.491c-0.066-0.021-0.129-0.049-0.192-0.076
									C8.383,30.335,8.469,30.237,8.547,30.136z"/>
							</g>
						</g>
					</g>
					<g>
						<g>
							<g>
								<path class="st9" d="M3.897,28.662c0.323,0.801,0.982,1.459,1.87,1.74c1.584,0.503,3.275-0.376,3.772-1.957
									c0.067-0.22,0.111-0.442,0.128-0.662c0.084,0.466,0.057,0.953-0.092,1.431c-0.503,1.584-2.193,2.463-3.769,1.963
									c-1.184-0.378-1.971-1.418-2.083-2.579C3.781,28.62,3.839,28.642,3.897,28.662z"/>
							</g>
						</g>
						<g>
							<g>
								<path class="st9" d="M3.923,28.957c0.642,0.205,1.309,0.105,1.846-0.216c-0.379,0.084-0.792,0.071-1.19-0.051
									c-1.2-0.379-1.867-1.657-1.483-2.86c0.177-0.553,0.539-0.989,0.995-1.263c-0.755,0.173-1.402,0.74-1.656,1.533
									C2.056,27.3,2.723,28.578,3.923,28.957z"/>
							</g>
						</g>
					</g>
				</g>
			</g>
		</g>
	</g>
	<g>
		<g>
			<g>
				<path class="st15" d="M18.448,12.428c-0.354-0.084-0.576-0.428-0.499-0.783c0.025-0.117,0.68-2.879,5.747-3.684
					c0.371-0.058,0.705,0.19,0.763,0.554c0.058,0.364-0.19,0.705-0.553,0.763c-4.091,0.65-4.635,2.58-4.657,2.662
					C19.159,12.289,18.804,12.513,18.448,12.428z"/>
			</g>
		</g>
		<g>
			<g>
				<path class="st15" d="M13.386,11.939c-0.027-0.104-0.591-2.015-4.656-2.661C8.367,9.22,8.119,8.879,8.177,8.515
					C8.235,8.151,8.571,7.903,8.94,7.961c5.066,0.805,5.721,3.567,5.747,3.684c0.078,0.36-0.15,0.715-0.51,0.793
					C13.814,12.515,13.467,12.287,13.386,11.939z"/>
			</g>
		</g>
	</g>
</g>
</svg>
