<?xml version="1.0" encoding="utf-8"?>
<!-- Generator: Adobe Illustrator 21.1.0, SVG Export Plug-In . SVG Version: 6.00 Build 0)  -->
<svg version="1.1" id="Layer_1" xmlns="http://www.w3.org/2000/svg" xmlns:xlink="http://www.w3.org/1999/xlink" x="0px" y="0px"
	 viewBox="0 0 32 32" style="enable-background:new 0 0 32 32;" xml:space="preserve">
<style type="text/css">
	.st0{fill:#FFD93B;}
	.st1{fill:#3E4347;}
	.st2{fill:#F4C534;}
	.st3{fill:#FFFFFF;}
	.st4{fill:#E24B4B;}
	.st5{opacity:0.2;}
	.st6{opacity:0.3;}
	.st7{fill:#5A5F63;}
	.st8{fill:#D03F3F;}
	.st9{fill:#E9EFF4;}
	.st10{fill:#DEE4E9;}
	.st11{fill:#777B7E;}
	.st12{fill:#45CBEA;}
	.st13{fill:#E84D88;}
	.st14{opacity:0.25;}
	.st15{fill:#E9B02C;}
	.st16{fill:none;stroke:#E9B02C;stroke-width:2;stroke-linecap:round;stroke-linejoin:round;stroke-miterlimit:10;}
	.st17{fill:#65B1EF;}
	.st18{fill:#F29A2E;}
	.st19{fill:#59A5E0;}
	.st20{fill:#4E99D2;}
	.st21{opacity:0.15;}
	.st22{fill:#8CC63E;}
	.st23{opacity:0.25;fill:#FFFFFF;}
	.st24{fill:#38C0DC;}
	.st25{fill:#D23F77;}
	.st26{fill:#DAE5EF;}
	.st27{fill:#373C3F;}
	.st28{fill:#BF3333;}
	.st29{opacity:0.2;fill:#FFFFFF;}
	.st30{opacity:0.3;fill:#FFFFFF;}
	.st31{fill:#7FB239;}
</style>
<g>
	<g>
		<g>
			<g>
				<g>
					<g>
						<g>
							<g>
								<g>
									<g>
										<g>
											<g>
												<g>
													<g>
														<g>
															<g>
																<g>
																	<g>
																		<g>
																			<circle class="st0" cx="16" cy="16" r="16"/>
																		</g>
																	</g>
																</g>
															</g>
														</g>
														<g>
															<g>
																<g>
																	<g>
																		<g>
																			<path class="st2" d="M32,16c0,8.84-7.165,16-16,16c-5.03,0-9.52-2.32-12.455-5.955
																				c2.745,2.22,6.24,3.545,10.045,3.545c8.835,0,16-7.16,16-16c0-3.805-1.325-7.3-3.545-10.045
																				C29.675,6.48,32,10.97,32,16z"/>
																		</g>
																	</g>
																</g>
															</g>
														</g>
													</g>
												</g>
											</g>
										</g>
									</g>
								</g>
							</g>
						</g>
					</g>
				</g>
			</g>
		</g>
	</g>
	<g>
		<g>
			<g>
				<g>
					<g>
						<g>
							<path class="st1" d="M23.428,25.444c-4.92-1.706-9.939-1.705-14.862,0c-0.387,0.134-0.741-0.393-0.667-0.789
								c0.628-3.449,3.678-6.391,8.098-6.391s7.477,2.943,8.105,6.391C24.175,25.052,23.815,25.579,23.428,25.444z"/>
						</g>
					</g>
				</g>
			</g>
		</g>
		<g>
			<path class="st4" d="M19.492,24.45c0.013-0.746-0.203-1.444-0.599-2.018c-0.549-0.797-1.574-1.063-2.487-0.744
				c-0.118,0.041-0.237,0.078-0.358,0.111c-0.018,0.005-0.037,0.01-0.055,0.015c-0.238,0.064-0.479,0.096-0.721,0.1
				c-1.456,0.026-2.731,1.092-2.729,2.531C14.856,24.075,17.179,24.077,19.492,24.45z"/>
		</g>
		<path class="st3" d="M21.137,19.911c-1.355-1.015-3.099-1.647-5.14-1.647c-2.04,0-3.783,0.632-5.136,1.646
			c1.403,0.54,3.072,0.715,5.139,0.715C18.066,20.625,19.734,20.45,21.137,19.911z"/>
	</g>
	<g>
		<g>
			<g>
				<g>
					<g>
						<circle class="st1" cx="20.972" cy="12.542" r="2.408"/>
					</g>
				</g>
				<g>
					<g>
						<path class="st7" d="M22.335,11.984c-0.148,0.155-0.437,0.111-0.629-0.089c-0.207-0.2-0.252-0.489-0.096-0.637
							c0.148-0.148,0.429-0.104,0.629,0.096C22.439,11.555,22.483,11.836,22.335,11.984z"/>
					</g>
				</g>
			</g>
			<g>
				<g>
					<path class="st15" d="M24.563,11.464c-0.321-1.649-1.775-2.847-3.458-2.847c-0.35,0-0.696,0.052-1.031,0.154
						c-0.315,0.095-0.652-0.081-0.749-0.399c-0.097-0.317,0.082-0.652,0.399-0.749c0.448-0.137,0.912-0.206,1.381-0.206
						c2.255,0,4.205,1.605,4.635,3.817c0.064,0.325-0.149,0.64-0.474,0.703C24.935,12.002,24.625,11.785,24.563,11.464z"/>
				</g>
			</g>
		</g>
		<g>
			<g>
				<g>
					<g>
						<circle class="st1" cx="11.028" cy="12.542" r="2.408"/>
					</g>
				</g>
				<g>
					<g>
						<path class="st7" d="M12.392,11.984c-0.148,0.155-0.437,0.111-0.629-0.089c-0.207-0.2-0.252-0.489-0.096-0.637
							c0.148-0.148,0.429-0.104,0.629,0.096C12.495,11.555,12.54,11.836,12.392,11.984z"/>
					</g>
				</g>
			</g>
			<g>
				<g>
					<path class="st15" d="M6.734,11.939c-0.325-0.063-0.538-0.378-0.474-0.703c0.43-2.212,2.38-3.817,4.635-3.817
						c0.468,0,0.933,0.069,1.381,0.206c0.317,0.097,0.495,0.432,0.399,0.749c-0.097,0.317-0.434,0.496-0.749,0.399
						c-0.334-0.102-0.681-0.154-1.031-0.154c-1.682,0-3.136,1.197-3.457,2.847C7.375,11.785,7.065,12.002,6.734,11.939z"/>
				</g>
			</g>
		</g>
	</g>
</g>
</svg>
