<?xml version="1.0" encoding="utf-8"?>
<!-- Generator: Adobe Illustrator 21.1.0, SVG Export Plug-In . SVG Version: 6.00 Build 0)  -->
<svg version="1.1" id="Layer_1" xmlns="http://www.w3.org/2000/svg" xmlns:xlink="http://www.w3.org/1999/xlink" x="0px" y="0px"
	 viewBox="0 0 32 32" style="enable-background:new 0 0 32 32;" xml:space="preserve">
<style type="text/css">
	.st0{fill:#FFD93B;}
	.st1{fill:#3E4347;}
	.st2{fill:#F4C534;}
	.st3{fill:#FFFFFF;}
	.st4{fill:#E24B4B;}
	.st5{opacity:0.2;}
	.st6{opacity:0.3;}
	.st7{fill:#5A5F63;}
	.st8{fill:#D03F3F;}
	.st9{fill:#E9EFF4;}
	.st10{fill:#DEE4E9;}
	.st11{fill:#777B7E;}
	.st12{fill:#45CBEA;}
	.st13{fill:#E84D88;}
	.st14{opacity:0.25;}
	.st15{fill:#E9B02C;}
	.st16{fill:none;stroke:#E9B02C;stroke-width:2;stroke-linecap:round;stroke-linejoin:round;stroke-miterlimit:10;}
	.st17{fill:#65B1EF;}
	.st18{fill:#F29A2E;}
	.st19{fill:#59A5E0;}
	.st20{fill:#4E99D2;}
	.st21{opacity:0.15;}
	.st22{fill:#8CC63E;}
	.st23{opacity:0.25;fill:#FFFFFF;}
	.st24{fill:#38C0DC;}
	.st25{fill:#D23F77;}
	.st26{fill:#DAE5EF;}
	.st27{fill:#373C3F;}
	.st28{fill:#BF3333;}
	.st29{opacity:0.2;fill:#FFFFFF;}
	.st30{opacity:0.3;fill:#FFFFFF;}
	.st31{fill:#7FB239;}
</style>
<g>
	<g>
		<g>
			<g>
				<g>
					<g>
						<g>
							<g>
								<g>
									<g>
										<g>
											<g>
												<g>
													<g>
														<g>
															<g>
																<g>
																	<g>
																		<g>
																			<g>
																				<g>
																					<circle class="st0" cx="16" cy="16" r="16"/>
																				</g>
																			</g>
																		</g>
																	</g>
																</g>
																<g>
																	<g>
																		<g>
																			<g>
																				<g>
																					<path class="st2" d="M32,16c0,8.84-7.165,16-16,16c-5.03,0-9.52-2.32-12.455-5.955
																						c2.745,2.22,6.24,3.545,10.045,3.545c8.835,0,16-7.16,16-16c0-3.805-1.325-7.3-3.545-10.045
																						C29.675,6.48,32,10.97,32,16z"/>
																				</g>
																			</g>
																		</g>
																	</g>
																</g>
															</g>
														</g>
													</g>
												</g>
											</g>
										</g>
									</g>
								</g>
							</g>
						</g>
					</g>
				</g>
			</g>
		</g>
		<g>
			<g>
				<g>
					<g>
						<g>
							<path class="st1" d="M21.733,25.712c-3.82-1.673-7.647-1.673-11.467,0c-0.493,0.212-1-0.27-0.893-0.84
								c0.647-3.368,3.367-5.896,6.627-5.896c3.26,0,5.98,2.528,6.627,5.896C22.733,25.442,22.226,25.924,21.733,25.712z"/>
						</g>
					</g>
				</g>
			</g>
		</g>
		<g>
			<path class="st3" d="M15.999,18.977c-1.854,0-3.531,0.819-4.754,2.143c0.066,0.477,0.515,0.858,0.809,0.692
				c2.51-1.457,5.38-1.457,7.89,0c0.293,0.166,0.743-0.215,0.809-0.692C19.53,19.795,17.853,18.977,15.999,18.977z"/>
		</g>
		<g>
			<g>
				<g>
					<g>
						<ellipse class="st1" cx="20.963" cy="12.813" rx="2.487" ry="3.187"/>
					</g>
					<g>
						
							<ellipse transform="matrix(0.8913 -0.4535 0.4535 0.8913 -2.8414 11.1722)" class="st7" cx="21.875" cy="11.511" rx="0.483" ry="0.748"/>
					</g>
				</g>
				<g>
					<g>
						<path class="st15" d="M24.824,12.327c-0.51-2.654-2.061-4.438-3.86-4.438c-0.48,0-0.947,0.121-1.389,0.36
							c-0.291,0.159-0.655,0.049-0.813-0.242c-0.158-0.292-0.05-0.656,0.242-0.813c0.619-0.335,1.279-0.505,1.96-0.505
							c2.393,0,4.418,2.174,5.039,5.411c0.063,0.325-0.151,0.64-0.476,0.702C25.206,12.866,24.887,12.657,24.824,12.327z"/>
					</g>
				</g>
			</g>
			<g>
				<g>
					<g>
						<ellipse class="st1" cx="11.037" cy="12.813" rx="2.487" ry="3.187"/>
					</g>
					<g>
						
							<ellipse transform="matrix(0.4536 -0.8912 0.8912 0.4536 -4.7258 15.3138)" class="st7" cx="10.125" cy="11.511" rx="0.748" ry="0.483"/>
					</g>
				</g>
				<g>
					<g>
						<path class="st15" d="M6.474,12.804c-0.325-0.063-0.538-0.377-0.476-0.703C6.619,8.864,8.644,6.69,11.037,6.69
							c0.681,0,1.341,0.17,1.96,0.505c0.291,0.158,0.4,0.522,0.242,0.813C13.081,8.3,12.718,8.409,12.426,8.25
							c-0.442-0.239-0.909-0.36-1.389-0.36c-1.8,0-3.351,1.783-3.861,4.438C7.114,12.654,6.797,12.867,6.474,12.804z"/>
					</g>
				</g>
			</g>
		</g>
	</g>
	<path class="st4" d="M18.809,24.762c0.082-0.228,0.139-0.464,0.139-0.715c0-0.703-0.352-1.334-0.92-1.785
		c-0.361-0.288-0.829-0.379-1.271-0.234c-0.505,0.162-1.082,0.252-1.704,0.252c-0.162,0-0.316-0.009-0.469-0.027
		c-0.433-0.036-0.847,0.171-1.1,0.514c-0.271,0.379-0.433,0.811-0.433,1.28c0,0.25,0.057,0.487,0.139,0.715
		C15.063,24.36,16.936,24.36,18.809,24.762z"/>
</g>
</svg>
