<?xml version="1.0" encoding="utf-8"?>
<!-- Generator: Adobe Illustrator 21.1.0, SVG Export Plug-In . SVG Version: 6.00 Build 0)  -->
<svg version="1.1" id="Layer_1" xmlns="http://www.w3.org/2000/svg" xmlns:xlink="http://www.w3.org/1999/xlink" x="0px" y="0px"
	 viewBox="0 0 32 32" style="enable-background:new 0 0 32 32;" xml:space="preserve">
<style type="text/css">
	.st0{fill:#FFD93B;}
	.st1{fill:#3E4347;}
	.st2{fill:#F4C534;}
	.st3{fill:#FFFFFF;}
	.st4{fill:#E24B4B;}
	.st5{opacity:0.2;}
	.st6{opacity:0.3;}
	.st7{fill:#5A5F63;}
	.st8{fill:#D03F3F;}
	.st9{fill:#E9EFF4;}
	.st10{fill:#DEE4E9;}
	.st11{fill:#777B7E;}
	.st12{fill:#45CBEA;}
	.st13{fill:#E84D88;}
	.st14{opacity:0.25;}
	.st15{fill:#E9B02C;}
	.st16{fill:none;stroke:#E9B02C;stroke-width:2;stroke-linecap:round;stroke-linejoin:round;stroke-miterlimit:10;}
	.st17{fill:#65B1EF;}
	.st18{fill:#F29A2E;}
	.st19{fill:#59A5E0;}
	.st20{fill:#4E99D2;}
	.st21{opacity:0.15;}
	.st22{fill:#8CC63E;}
	.st23{opacity:0.25;fill:#FFFFFF;}
	.st24{fill:#38C0DC;}
	.st25{fill:#D23F77;}
	.st26{fill:#DAE5EF;}
	.st27{fill:#373C3F;}
	.st28{fill:#BF3333;}
	.st29{opacity:0.2;fill:#FFFFFF;}
	.st30{opacity:0.3;fill:#FFFFFF;}
	.st31{fill:#7FB239;}
</style>
<g>
	<g>
		<g>
			<g>
				<g>
					<g>
						<g>
							<g>
								<g>
									<g>
										<g>
											<g>
												<g>
													<g>
														<g>
															<g>
																<g>
																	<g>
																		<g>
																			<g>
																				<g>
																					<g>
																						<g>
																							<circle class="st0" cx="16" cy="16" r="16"/>
																						</g>
																					</g>
																				</g>
																			</g>
																		</g>
																	</g>
																	<g>
																		<g>
																			<g>
																				<g>
																					<g>
																						<g>
																							<path class="st2" d="M32,16c0,8.84-7.165,16-16,16c-5.03,0-9.52-2.32-12.455-5.955
																								c2.745,2.22,6.24,3.545,10.045,3.545c8.835,0,16-7.16,16-16c0-3.805-1.325-7.3-3.545-10.045
																								C29.675,6.48,32,10.97,32,16z"/>
																						</g>
																					</g>
																				</g>
																			</g>
																		</g>
																	</g>
																</g>
															</g>
														</g>
													</g>
												</g>
											</g>
										</g>
									</g>
								</g>
							</g>
						</g>
					</g>
				</g>
			</g>
		</g>
	</g>
	<g>
		<g>
			<path class="st1" d="M23.051,23.273c-0.94,0.83-1.87,1.66-2.8,2.48c-0.12,0.11-0.26,0.19-0.4,0.25
				c-2.721,0.763-5.479,0.744-8.27,0c-0.14-0.06-0.28-0.14-0.4-0.25c-0.93-0.82-1.86-1.65-2.8-2.48c-0.39-0.33-0.19-0.91,0.46-1.21
				c4.35-2.04,9.38-2.04,13.73-0.01C23.241,22.363,23.441,22.944,23.051,23.273z"/>
		</g>
	</g>
	<g>
		<g>
			<g>
				<g>
					<g>
						<circle class="st3" cx="11.002" cy="14.81" r="3.361"/>
					</g>
				</g>
				<g>
					<g>
						<g>
							<circle class="st1" cx="11.001" cy="14.81" r="1.749"/>
						</g>
					</g>
					<g>
						<g>
							<path class="st7" d="M10.041,14.372c0.098,0.111,0.328,0.068,0.521-0.096c0.193-0.164,0.274-0.385,0.176-0.504
								c-0.098-0.111-0.336-0.068-0.521,0.096C10.024,14.033,9.943,14.254,10.041,14.372z"/>
						</g>
					</g>
				</g>
			</g>
			<g>
				<g>
					<path class="st15" d="M6.009,13.735c-0.372-0.029-0.649-0.354-0.62-0.726c0.196-2.491,1.953-4.6,4.37-5.248
						c0.33-0.088,0.668-0.146,1.036-0.176c0.364-0.028,0.698,0.245,0.729,0.617c0.031,0.372-0.246,0.698-0.617,0.729
						c-0.288,0.024-0.549,0.068-0.799,0.135c-1.865,0.5-3.221,2.128-3.373,4.05C6.705,13.492,6.374,13.765,6.009,13.735z"/>
				</g>
			</g>
		</g>
		<g>
			<g>
				<g>
					<g>
						<circle class="st3" cx="20.998" cy="14.81" r="3.361"/>
					</g>
				</g>
				<g>
					<g>
						<g>
							<circle class="st1" cx="20.999" cy="14.81" r="1.749"/>
						</g>
					</g>
					<g>
						<g>
							<path class="st7" d="M21.959,14.372c-0.098,0.111-0.328,0.068-0.521-0.096c-0.193-0.164-0.274-0.385-0.175-0.504
								c0.098-0.111,0.336-0.068,0.521,0.096C21.976,14.033,22.057,14.254,21.959,14.372z"/>
						</g>
					</g>
				</g>
			</g>
			<g>
				<g>
					<path class="st15" d="M25.265,13.116c-0.152-1.922-1.508-3.55-3.375-4.051c-0.25-0.066-0.511-0.11-0.798-0.134
						c-0.372-0.031-0.647-0.358-0.617-0.729c0.031-0.372,0.363-0.646,0.729-0.617c0.368,0.031,0.706,0.088,1.034,0.176
						c2.418,0.648,4.174,2.757,4.372,5.249c0.029,0.372-0.248,0.697-0.62,0.726C25.626,13.765,25.295,13.492,25.265,13.116z"/>
				</g>
			</g>
		</g>
	</g>
	<g>
		<path class="st3" d="M15.805,22.305c1.842-0.068,3.628,0.488,4.679,0.336c0.284-0.029,0.59-0.468,0.785-1.11
			c-3.535-1.29-7.404-1.318-10.949-0.064c0.194,0.679,0.512,1.144,0.806,1.174C12.177,22.793,13.963,22.237,15.805,22.305z"/>
	</g>
	<g>
		<g>
			<path class="st4" d="M19.111,26.183c-2.12,0.48-4.26,0.5-6.43,0.07c0.06-0.62,0.3-1.2,0.67-1.67c0.33-0.42,0.84-0.65,1.37-0.62
				c0.1,0,0.21,0.01,0.33,0.01c0.51,0,0.99-0.06,1.43-0.16c0.59-0.14,1.23,0,1.67,0.43C18.671,24.743,19.021,25.423,19.111,26.183z"
				/>
		</g>
	</g>
	<g class="st5">
		<g>
			<path class="st3" d="M17.965,24.913c-0.08,0.15-0.38,0.17-0.68,0.02c-0.3-0.14-0.48-0.38-0.41-0.54
				c0.08-0.15,0.38-0.17,0.68-0.02C17.855,24.514,18.035,24.753,17.965,24.913z"/>
		</g>
	</g>
</g>
</svg>
