<?xml version="1.0" encoding="utf-8"?>
<!-- Generator: Adobe Illustrator 21.1.0, SVG Export Plug-In . SVG Version: 6.00 Build 0)  -->
<svg version="1.1" id="Layer_1" xmlns="http://www.w3.org/2000/svg" xmlns:xlink="http://www.w3.org/1999/xlink" x="0px" y="0px"
	 viewBox="0 0 32 32" style="enable-background:new 0 0 32 32;" xml:space="preserve">
<style type="text/css">
	.st0{fill:#FFD93B;}
	.st1{fill:#3E4347;}
	.st2{fill:#F4C534;}
	.st3{fill:#38C0DC;}
	.st4{fill:#45CBEA;}
	.st5{fill:#FFFFFF;}
	.st6{fill:#E24B4B;}
	.st7{fill:#5A5F63;}
	.st8{opacity:0.3;}
	.st9{opacity:0.2;}
	.st10{opacity:0.1;}
	.st11{fill:#E9B02C;}
	.st12{fill:#65B1EF;}
	.st13{fill:#E9EFF4;}
	.st14{fill:#8CC63E;}
	.st15{fill:#7FB239;}
	.st16{fill:#D03F3F;}
	.st17{fill:#D23F77;}
	.st18{fill:#E84D88;}
	.st19{fill:#59A5E0;}
	.st20{fill:#DEE4E9;}
	.st21{fill:#D3D9DD;}
	.st22{opacity:0.25;fill:#FFFFFF;}
	.st23{fill:#9A795F;}
	.st24{fill:#F29A2E;}
	.st25{fill:#FC97B2;}
	.st26{fill:#89664C;}
	.st27{fill:#7A5B44;}
	.st28{opacity:0.2;fill:#FFFFFF;}
	.st29{fill:#4E99D2;}
	.st30{fill:#BBC7D1;}
	.st31{fill:#DE9C25;}
</style>
<g>
	<path class="st13" d="M28.331,19.672c0,6.808-5.519,12.327-12.327,12.327S3.677,26.48,3.677,19.672
		c0-8.141,7.063-19.673,12.327-19.673C21.614-0.001,28.331,11.531,28.331,19.672z"/>
	<path class="st21" d="M28.327,19.671c0,6.81-5.52,12.33-12.32,12.33c-1.12,0-2.2-0.15-3.23-0.43c0.13,0.01,0.25,0.01,0.38,0.01
		c7.38,0,13.36-5.97,13.36-13.35c0-5.03-2.37-11.25-5.53-15.67C24.957,6.421,28.327,13.901,28.327,19.671z"/>
	<path class="st1" d="M23.523,23.275c-1.491,3.277-4.305,5.496-7.516,5.496c-3.22,0-6.026-2.218-7.525-5.496
		c-0.238-0.524,0.132-1.137,0.6-1.037c4.614,1.014,9.228,1.014,13.851,0C23.399,22.138,23.761,22.751,23.523,23.275z"/>
	<path class="st21" d="M15.081,15.915c0,2.508-1.74,4.537-3.89,4.537c-2.14,0-3.89-2.029-3.89-4.537c0-2.507,1.75-4.537,3.89-4.537
		C13.341,11.379,15.081,13.408,15.081,15.915z"/>
	<path class="st5" d="M14.142,15.915c-0.109,2.042-1.518,3.694-3.149,3.694c-1.624,0-2.863-1.652-2.753-3.694
		c0.109-2.041,1.526-3.694,3.149-3.694C13.02,12.222,14.252,13.874,14.142,15.915z"/>
	<path class="st1" d="M13.039,16.615c0,0.959-0.782,1.74-1.74,1.74c-0.968,0-1.749-0.782-1.749-1.74c0-0.968,0.782-1.74,1.749-1.74
		C12.257,14.875,13.039,15.647,13.039,16.615z"/>
	
		<ellipse transform="matrix(0.7071 -0.7071 0.7071 0.7071 -7.7575 13.1349)" class="st5" cx="11.977" cy="15.932" rx="0.311" ry="0.477"/>
	<path class="st21" d="M16.926,15.915c0,2.508,1.74,4.537,3.89,4.537c2.14,0,3.89-2.029,3.89-4.537c0-2.507-1.75-4.537-3.89-4.537
		C18.666,11.379,16.926,13.408,16.926,15.915z"/>
	<path class="st5" d="M17.865,15.915c0.109,2.042,1.518,3.694,3.149,3.694c1.624,0,2.863-1.652,2.753-3.694
		c-0.109-2.041-1.526-3.694-3.149-3.694C18.987,12.222,17.756,13.874,17.865,15.915z"/>
	<path class="st1" d="M22.664,16.615c0,0.959-0.782,1.74-1.74,1.74c-0.968,0-1.749-0.782-1.749-1.74c0-0.968,0.782-1.74,1.749-1.74
		C21.882,14.875,22.664,15.647,22.664,16.615z"/>
	
		<ellipse transform="matrix(0.7071 -0.7071 0.7071 0.7071 -4.9385 19.9407)" class="st5" cx="21.602" cy="15.932" rx="0.311" ry="0.477"/>
	<path class="st6" d="M16.006,28.771c1.505,0,2.917-0.503,4.152-1.358c-0.024-0.108-0.036-0.214-0.069-0.322
		c-0.473-1.437-2.107-2.119-3.508-1.542c-0.613,0.246-1.288,0.308-1.905,0.23c-1.507-0.181-2.423,0.59-2.765,1.674
		C13.132,28.282,14.521,28.771,16.006,28.771z"/>
	<path class="st6" d="M6.13,1.638C5.842,1.786,5.828,1.815,6.004,2.029c0.253,0.311,0.487,0.633,0.703,0.962
		c0.126,0.195,0.154,0.195,0.387,0.127c0.012,0.022,0.025,0.045,0.037,0.067C6.884,3.276,6.643,3.38,6.41,3.498
		c-0.015-0.02-0.032-0.04-0.047-0.061c0.21-0.124,0.226-0.144,0.09-0.333c-0.111-0.151-0.226-0.3-0.346-0.446
		C5.761,2.826,5.43,3.02,5.115,3.236c0.15,0.12,0.295,0.244,0.436,0.371c0.173,0.158,0.202,0.155,0.417,0.046
		C5.985,3.672,6.003,3.691,6.021,3.71C5.801,3.839,5.59,3.98,5.388,4.133C5.367,4.117,5.347,4.101,5.326,4.084
		C5.494,3.937,5.503,3.916,5.32,3.766C5.007,3.514,4.673,3.278,4.321,3.063c-0.246-0.147-0.288-0.14-0.555,0.065
		C3.733,3.112,3.701,3.097,3.669,3.081C3.939,2.84,4.222,2.616,4.518,2.41c0.029,0.02,0.057,0.041,0.085,0.061
		c-0.232,0.19-0.237,0.218-0.004,0.379C4.738,2.948,4.874,3.048,5.006,3.15c0.322-0.224,0.66-0.423,1.013-0.597
		C5.914,2.427,5.805,2.303,5.693,2.18C5.504,1.977,5.461,1.976,5.17,2.115c-0.025-0.023-0.051-0.047-0.076-0.07
		c0.314-0.183,0.639-0.346,0.975-0.488C6.089,1.584,6.11,1.611,6.13,1.638z"/>
	<path class="st6" d="M8.151,2.929c-0.097,0.019-0.189-0.011-0.265-0.11C7.795,2.912,7.697,3.036,7.622,3.058
		C7.42,3.115,7.216,3.02,7.135,2.869C6.966,2.56,7.452,2.515,7.653,2.241C7.507,1.875,7.191,1.884,7.116,2.058
		C7.055,2.18,7.179,2.321,7.043,2.367C6.555,2.542,7.041,1.635,7.611,1.801C7.906,1.904,7.986,2.339,8.07,2.598
		c0.037,0.115,0.1,0.144,0.152,0.133c0.034-0.006,0.07-0.025,0.097-0.047c0.016,0.021,0.032,0.043,0.047,0.064
		C8.293,2.808,8.221,2.868,8.151,2.929z M7.691,2.334C7.535,2.46,7.311,2.587,7.387,2.743c0.093,0.19,0.348,0.177,0.459-0.004
		C7.797,2.604,7.745,2.469,7.691,2.334z"/>
	<path class="st6" d="M9.08,2.805C8.992,2.809,8.912,2.792,8.868,2.779C8.885,2.891,8.9,3.002,8.915,3.114
		c0.023,0.18,0.043,0.191,0.248,0.194C9.164,3.33,9.166,3.352,9.167,3.375C8.955,3.387,8.746,3.41,8.539,3.442
		C8.535,3.421,8.53,3.399,8.526,3.377c0.163-0.04,0.185-0.058,0.156-0.216C8.611,2.761,8.526,2.363,8.427,1.966
		C8.382,1.786,8.36,1.779,8.144,1.791C8.136,1.767,8.129,1.744,8.122,1.72c0.143-0.047,0.343-0.131,0.516-0.208
		c0.017,0.079,0.033,0.157,0.05,0.235C10.068,0.971,10.211,2.611,9.08,2.805z M8.84,2.591c0.832,0.624,0.998-1.573-0.133-0.744
		C8.756,2.095,8.801,2.343,8.84,2.591z"/>
	<path class="st6" d="M10.436,2.8c-0.018,0.111-0.036,0.223-0.055,0.334c-0.031,0.18-0.013,0.195,0.193,0.241
		c-0.005,0.022-0.01,0.043-0.015,0.065c-0.218-0.033-0.436-0.056-0.653-0.067C9.908,3.351,9.91,3.329,9.912,3.306
		c0.176-0.005,0.202-0.017,0.221-0.177c0.048-0.403,0.089-0.807,0.122-1.213c0.015-0.184-0.005-0.196-0.222-0.234
		c0.001-0.025,0.002-0.049,0.002-0.074c0.157-0.012,0.381-0.047,0.582-0.081c-0.01,0.079-0.021,0.158-0.031,0.238
		C12.718,1.255,11.327,3.394,10.436,2.8z M10.465,2.612c0.625,0.766,1.517-1.278,0.108-0.746C10.54,2.115,10.504,2.364,10.465,2.612
		z"/>
	<path class="st6" d="M13.642,2.659c-0.205-0.082-0.252-0.078-0.447,0.017c-0.204,0.062-1.322,0.798-1.5,1.024
		c-0.108,0.123-0.381-0.14-0.109-0.201c0.631-0.078,0.591-0.646,0.522-1.266c-0.017-0.166-0.041-0.217-0.232-0.298
		c0.009-0.025,0.018-0.051,0.028-0.076c0.265,0.076,0.529,0.165,0.79,0.268C12.683,2.151,12.671,2.175,12.66,2.2
		c-0.181-0.044-0.215-0.026-0.217,0.088c-0.002,0.246-0.012,0.491-0.031,0.733c0.173-0.118,0.496-0.343,0.663-0.458
		c0.107-0.07,0.099-0.115-0.091-0.227c0.014-0.023,0.029-0.046,0.043-0.069c0.224,0.099,0.446,0.209,0.666,0.329
		C13.676,2.616,13.659,2.638,13.642,2.659z"/>
	<path class="st4" d="M17.709,9.587c-0.515-0.044-0.746-0.721-0.452-1.056c-0.219,0.365,0.008,0.943,0.462,0.943
		c0.943,0,2.321-3.078-6.825-0.575C8.816,9.44,6.879,10.21,6.181,9.512c-0.009,0.009-0.009,0.009-0.009,0
		c-0.049-0.033-0.134-0.128-0.16-0.207c0-0.35-0.86-3.058-0.99-3.318c0,0-0.269-0.141-0.321-0.245c0-0.009-0.009-0.009-0.009-0.019
		C4.648,5.613,4.785,5.482,4.889,5.43h0.009c0.094-0.047,0.207-0.094,0.339-0.141c0.009-0.009,0.009-0.009,0.019-0.009
		c0.06-0.036,2.436-1.301,2.498-1.301C7.774,3.969,7.793,3.96,7.811,3.96c0.672-0.283,0.767,0.253,0.443,0.415
		c-0.185,0-2.318,1.017-2.479,1.178C5.681,5.638,5.653,5.76,5.7,5.892c0.107,0.295,0.125,0.871,0.264,1.15
		c0.089,0,1.915-1.057,2.008-1.093c0.62-0.227,0.616,0.255,0.311,0.424C8.089,6.485,6.244,7.391,6.19,7.608
		C6.131,7.745,6.405,8.604,6.473,8.739c0.009,0.009,0.009,0.019,0.019,0.028c0.047,0.085,0.141,0.104,0.264,0.066
		c0,0,1.979-1.148,2.083-1.188c0.056-0.019,0.132-0.019,0.217,0C9.339,7.74,9.419,8.015,8.49,8.409
		C7.858,8.67,7.317,9.06,6.784,9.38c1.127,0.141,3.248-0.912,6.862-1.584C19.699,6.701,18.861,9.767,17.709,9.587z"/>
	<path class="st4" d="M19.712,7.055c0.28,0.767,1.263,0.808,2.036,0.513c0.99-0.379,0.923-0.852,0.531-0.671
		c-0.964,0.496-2.236,0.55-2.054-0.343c0.017-0.084,0.087-0.142,0.21-0.172c5.181-1.317,0.223-3.592-0.914,0.171
		c-0.414,1.445,0.14,2.224,1.071,2.433c1.214,0.269,2.834-0.279,3.927,0.515C23.102,7.779,19.593,9.859,19.712,7.055z M22.101,5.149
		c-0.079,0.299-0.676,0.544-1.71,0.846C20.957,4.868,22.232,4.687,22.101,5.149z"/>
	<path class="st4" d="M17.274,4.621c0.005-0.079-0.363-0.042-0.447-0.04c-0.565-0.02-0.543-0.497-0.228-0.489
		c0.733,0.021,0.845,0.137,1.066-0.388c0.158-0.369,0.269-0.945,0.63-0.911c0.599,0.057,0.116,0.74-0.134,1.313
		c0.245,0.007,1.382,0.001,1.574,0.154c0.142,0.118,0.061,0.399-0.391,0.357c-1.708-0.159-1.467,0.063-1.678,0.688
		c-0.426,1.271-0.31,1.873,0.902,1.145c0.337-0.216,0.454-0.1,0.435,0.036c-0.035,0.241-0.781,0.802-1.435,0.751
		c-0.921-0.071-0.782-0.978-0.505-1.851"/>
	<path class="st4" d="M12.054,6.282c-0.392,0.702-1.199,1.81-1.88,1.39c-1.361-0.842,1.048-4.539,1.938-3.32
		c0.04,0.058,0.094,0.082,0.16,0.072c0.314-0.049,0.331,0.095,0.31,0.4c-0.038,0.563-0.113,1.906,0.422,2.083
		c0.34,0.119,0.086,0.45-0.19,0.492C12.373,7.466,12.133,6.724,12.054,6.282z M11.545,4.655c-1.451,0.271-1.708,4.324-0.023,1.692
		c0.333-0.521,0.489-0.959,0.426-1.328C11.899,4.737,11.764,4.614,11.545,4.655z"/>
	<path class="st4" d="M15.446,6.352c-0.002-0.129-0.178-0.276-0.538-0.427c-0.4-0.164-1.188-0.42-1.229-0.833
		c-0.119-1.205,2.34-2,2.336-1.119c-0.001,0.124-0.161,0.226-0.243,0.226c-0.063,0.001-0.239-0.085-0.304-0.083
		c-0.118,0.003-0.36,0.08-0.713,0.244c-0.924,0.429-0.489,0.794,0.375,1.121c2.529,0.978-1.496,2.544-1.61,1.554
		c-0.017-0.159,0.172-0.243,0.324-0.258c0.089-0.009,0.28,0.035,0.358,0.028C14.503,6.78,15.3,6.617,15.446,6.352z"/>
	<path class="st4" d="M23.876,7.316c0.865-0.642,1.687-1.484,2.707-0.986c0.192,0.095,0.326,0.222,0.397,0.377
		c0.249,0.541-0.363,0.768-0.555,0.279c-0.345-0.826-2.268,0.417-2.766,1.3c-0.126,0.227-0.243,0.316-0.485,0.226
		c-0.447-0.167,0.689-2.938,1.156-3.043c0.276-0.064,0.518,0.129,0.439,0.324c-0.029,0.072-0.091,0.166-0.189,0.281
		C24.222,6.486,24.043,6.883,23.876,7.316z"/>
</g>
</svg>
