<?xml version="1.0" encoding="utf-8"?>
<!-- Generator: Adobe Illustrator 21.1.0, SVG Export Plug-In . SVG Version: 6.00 Build 0)  -->
<svg version="1.1" id="Layer_1" xmlns="http://www.w3.org/2000/svg" xmlns:xlink="http://www.w3.org/1999/xlink" x="0px" y="0px"
	 viewBox="0 0 32 32" style="enable-background:new 0 0 32 32;" xml:space="preserve">
<style type="text/css">
	.st0{fill:#FFD93B;}
	.st1{fill:#3E4347;}
	.st2{fill:#F4C534;}
	.st3{fill:#FFFFFF;}
	.st4{fill:#E24B4B;}
	.st5{opacity:0.2;}
	.st6{opacity:0.3;}
	.st7{fill:#5A5F63;}
	.st8{fill:#D03F3F;}
	.st9{fill:#E9EFF4;}
	.st10{fill:#DEE4E9;}
	.st11{fill:#777B7E;}
	.st12{fill:#45CBEA;}
	.st13{fill:#E84D88;}
	.st14{opacity:0.25;}
	.st15{fill:#E9B02C;}
	.st16{fill:none;stroke:#E9B02C;stroke-width:2;stroke-linecap:round;stroke-linejoin:round;stroke-miterlimit:10;}
	.st17{fill:#65B1EF;}
	.st18{fill:#F29A2E;}
	.st19{fill:#59A5E0;}
	.st20{fill:#4E99D2;}
	.st21{opacity:0.15;}
	.st22{fill:#8CC63E;}
	.st23{opacity:0.25;fill:#FFFFFF;}
	.st24{fill:#38C0DC;}
	.st25{fill:#D23F77;}
	.st26{fill:#DAE5EF;}
	.st27{fill:#373C3F;}
	.st28{fill:#BF3333;}
	.st29{opacity:0.2;fill:#FFFFFF;}
	.st30{opacity:0.3;fill:#FFFFFF;}
	.st31{fill:#7FB239;}
</style>
<g>
	<g>
		<g>
			<g>
				<g>
					<g>
						<g>
							<g>
								<g>
									<g>
										<g>
											<g>
												<g>
													<g>
														<g>
															<g>
																<g>
																	<g>
																		<g>
																			<g>
																				<g>
																					<g>
																						<circle class="st0" cx="16" cy="16" r="16"/>
																					</g>
																				</g>
																			</g>
																		</g>
																	</g>
																	<g>
																		<g>
																			<g>
																				<g>
																					<g>
																						<path class="st2" d="M32,16c0,8.84-7.165,16-16,16c-5.03,0-9.52-2.32-12.455-5.955
																							c2.745,2.22,6.24,3.545,10.045,3.545c8.835,0,16-7.16,16-16c0-3.805-1.325-7.3-3.545-10.045
																							C29.675,6.48,32,10.97,32,16z"/>
																					</g>
																				</g>
																			</g>
																		</g>
																	</g>
																</g>
															</g>
														</g>
													</g>
												</g>
											</g>
										</g>
									</g>
								</g>
							</g>
						</g>
					</g>
				</g>
			</g>
		</g>
	</g>
	<g>
		<g>
			<g>
				<g>
					<g>
						<path class="st1" d="M13.035,12.861c0,1.846-1.05,3.334-2.347,3.334c-1.303,0-2.353-1.488-2.353-3.334
							c0-1.837,1.05-3.325,2.353-3.325C11.985,9.536,13.035,11.023,13.035,12.861z"/>
					</g>
				</g>
				<g>
					<g>
						
							<ellipse transform="matrix(0.7355 -0.6776 0.6776 0.7355 -4.6329 10.682)" class="st7" cx="11.363" cy="11.274" rx="0.413" ry="0.543"/>
					</g>
				</g>
			</g>
			<g>
				<g>
					<g>
						<path class="st1" d="M23.665,12.861c0,1.846-1.05,3.334-2.347,3.334c-1.303,0-2.353-1.488-2.353-3.334
							c0-1.837,1.05-3.325,2.353-3.325C22.615,9.536,23.665,11.023,23.665,12.861z"/>
					</g>
				</g>
				<g>
					<g>
						
							<ellipse transform="matrix(0.7354 -0.6776 0.6776 0.7354 -1.8204 17.886)" class="st7" cx="21.993" cy="11.274" rx="0.413" ry="0.542"/>
					</g>
				</g>
			</g>
		</g>
	</g>
	<g>
		<g>
			<g>
				<path class="st1" d="M8.019,24.932c0.047-3.63,3.148-7.17,7.977-7.16c4.837-0.011,7.938,3.53,7.984,7.16
					c0.009,0.378-0.39,0.724-0.754,0.668c-4.741-0.721-9.712-0.721-14.453,0C8.409,25.656,8.01,25.31,8.019,24.932z"/>
			</g>
			<g>
				<path class="st3" d="M15.997,19.302c3.498-0.01,6.182,2.262,6.757,5.094c-4.445-0.613-9.063-0.613-13.507,0
					C9.82,21.564,12.502,19.292,15.997,19.302z"/>
			</g>
		</g>
		<g>
			<g>
				<g>
					<g>
						<path class="st1" d="M11.62,20.208l0.798,4.472l-0.104,0.012c-0.11,0.006-0.225,0.018-0.34,0.029l-0.092,0.006l-0.881-4.458
							l0.105-0.007c0.142-0.014,0.278-0.027,0.415-0.041L11.62,20.208z"/>
						<path class="st1" d="M17.844,19.065h0.108l-0.397,5.497l-0.54-0.012l0.29-5.506l0.108,0.007
							C17.559,19.05,17.698,19.058,17.844,19.065z"/>
						<path class="st1" d="M21.025,20.106l-0.912,4.621l-0.098-0.006c-0.109-0.012-0.225-0.024-0.334-0.029l-0.104-0.012
							l0.828-4.635l0.1,0.007c0.136,0.014,0.273,0.027,0.416,0.041L21.025,20.106z"/>
						<path class="st1" d="M14.689,19.043l0.291,5.506l-0.54,0.012l-0.403-5.497h0.114c0.146-0.007,0.285-0.014,0.431-0.014
							L14.689,19.043z"/>
					</g>
				</g>
			</g>
			<g>
				<g>
					<path class="st1" d="M22.442,21.866l-0.173,0.627l-0.096-0.006c-4.12-0.537-8.348-0.53-12.466,0.013l-0.095,0.013l-0.174-0.627
						l0.107-0.019c4.22-0.561,8.56-0.567,12.782-0.013L22.442,21.866z"/>
				</g>
			</g>
		</g>
	</g>
</g>
</svg>
