<?xml version="1.0" encoding="utf-8"?>
<!-- Generator: Adobe Illustrator 21.1.0, SVG Export Plug-In . SVG Version: 6.00 Build 0)  -->
<svg version="1.1" id="Layer_1" xmlns="http://www.w3.org/2000/svg" xmlns:xlink="http://www.w3.org/1999/xlink" x="0px" y="0px"
	 viewBox="0 0 32 32" style="enable-background:new 0 0 32 32;" xml:space="preserve">
<style type="text/css">
	.st0{fill:#FFD93B;}
	.st1{fill:#3E4347;}
	.st2{fill:#F4C534;}
	.st3{fill:#FFFFFF;}
	.st4{fill:#E24B4B;}
	.st5{opacity:0.2;}
	.st6{opacity:0.3;}
	.st7{fill:#5A5F63;}
	.st8{fill:#D03F3F;}
	.st9{fill:#E9EFF4;}
	.st10{fill:#DEE4E9;}
	.st11{fill:#777B7E;}
	.st12{fill:#45CBEA;}
	.st13{fill:#E84D88;}
	.st14{opacity:0.25;}
	.st15{fill:#E9B02C;}
	.st16{fill:none;stroke:#E9B02C;stroke-width:2;stroke-linecap:round;stroke-linejoin:round;stroke-miterlimit:10;}
	.st17{fill:#65B1EF;}
	.st18{fill:#F29A2E;}
	.st19{fill:#59A5E0;}
	.st20{fill:#4E99D2;}
	.st21{opacity:0.15;}
	.st22{fill:#8CC63E;}
	.st23{opacity:0.25;fill:#FFFFFF;}
	.st24{fill:#38C0DC;}
	.st25{fill:#D23F77;}
	.st26{fill:#DAE5EF;}
	.st27{fill:#373C3F;}
	.st28{fill:#BF3333;}
	.st29{opacity:0.2;fill:#FFFFFF;}
	.st30{opacity:0.3;fill:#FFFFFF;}
	.st31{fill:#7FB239;}
</style>
<g>
	<circle class="st0" cx="16" cy="16" r="16"/>
	<path class="st2" d="M31.924,16c0,8.84-7.165,16-16,16c-5.03,0-9.52-2.32-12.455-5.955c2.745,2.22,6.24,3.545,10.045,3.545
		c8.835,0,16-7.16,16-16c0-3.805-1.325-7.3-3.545-10.045C29.599,6.48,31.924,10.97,31.924,16z"/>
	<path class="st20" d="M14.713,13.033c0,2.738-2.214,4.961-4.961,4.961c-2.737,0-4.961-2.224-4.961-4.961
		c0-2.747,2.224-4.97,4.961-4.97C12.499,8.063,14.713,10.286,14.713,13.033z"/>
	<path class="st17" d="M11.832,8.533l-6.573,6.573c0.33,0.713,0.828,1.326,1.438,1.807l6.94-6.94
		C13.157,9.362,12.546,8.864,11.832,8.533z"/>
	<path class="st17" d="M10.464,8.135l-5.602,5.601c0.044,0.31,0.117,0.608,0.216,0.897l6.281-6.281
		C11.072,8.253,10.774,8.18,10.464,8.135z"/>
	<path class="st20" d="M27.209,13.033c0,2.738-2.214,4.961-4.961,4.961c-2.737,0-4.961-2.224-4.961-4.961
		c0-2.747,2.224-4.97,4.961-4.97C24.995,8.063,27.209,10.286,27.209,13.033z"/>
	<path class="st17" d="M24.212,8.47l-6.52,6.521c0.312,0.725,0.805,1.345,1.403,1.842l6.957-6.957
		C25.556,9.276,24.937,8.783,24.212,8.47z"/>
	<path class="st17" d="M22.798,8.118l-5.456,5.456c0.035,0.318,0.098,0.625,0.191,0.922l6.187-6.187
		C23.422,8.217,23.116,8.154,22.798,8.118z"/>
	<path class="st1" d="M30.327,12.278h-2.469c-0.37-2.771-2.743-4.915-5.61-4.915c-2.122,0-3.972,1.176-4.94,2.91
		c-0.263,0.471-0.76,0.745-1.299,0.742c-0.003,0-0.006,0-0.01,0c-0.005,0-0.009,0-0.014,0c-0.537,0.004-1.032-0.271-1.293-0.74
		c-0.968-1.735-2.818-2.912-4.94-2.912c-2.866,0-5.234,2.146-5.605,4.915H1.67v1.5h2.494c0.348,2.588,2.451,4.671,5.1,4.895
		c3.352,0.284,6.215-2.389,6.143-5.759c0.057-0.282,0.295-0.498,0.592-0.498c0.304,0,0.586,0.219,0.586,0.617
		c0,3.268,2.785,5.899,6.106,5.644c2.658-0.204,4.802-2.283,5.148-4.899h2.486V12.278z M9.753,17.293
		c-2.349,0-4.261-1.912-4.261-4.26c0-2.354,1.911-4.269,4.261-4.269c2.349,0,4.26,1.915,4.26,4.269
		C14.012,15.382,12.101,17.293,9.753,17.293z M22.248,17.293c-2.349,0-4.261-1.912-4.261-4.26c0-2.354,1.911-4.269,4.261-4.269
		c2.349,0,4.26,1.915,4.26,4.269C26.508,15.382,24.597,17.293,22.248,17.293z"/>
	<path class="st1" d="M22.386,24.8c0.015,0.145-0.038,0.286-0.152,0.381c-1.616,1.377-4.238,2.908-7.743,2.753
		c-6.551-0.329-8.631-6.929-6.732-7.52c1.68-0.788,4.23,2.662,8.158,4.16c2.315,0.66,4.334,0.448,5.868-0.137
		C22.06,24.329,22.356,24.509,22.386,24.8z"/>
	<path class="st1" d="M22.63,4.814c-1.063-1.651-3.013-1.932-4.081-1.951c-0.372-0.007-0.669-0.315-0.662-0.688
		c0.007-0.368,0.308-0.662,0.675-0.662c0.004,0,0.008,0,0.013,0c1.336,0.024,3.788,0.392,5.191,2.57
		c0.202,0.313,0.111,0.731-0.202,0.933C23.255,5.215,22.834,5.13,22.63,4.814z"/>
	<path class="st1" d="M12.584,6.442c-1.563-1.19-3.491-0.787-4.502-0.443c-0.354,0.12-0.737-0.066-0.857-0.421
		c-0.121-0.352,0.068-0.736,0.42-0.856c1.265-0.433,3.695-0.922,5.756,0.647c0.297,0.226,0.354,0.649,0.128,0.946
		C13.303,6.61,12.88,6.667,12.584,6.442z"/>
</g>
</svg>
