<?xml version="1.0" encoding="utf-8"?>
<!-- Generator: Adobe Illustrator 21.1.0, SVG Export Plug-In . SVG Version: 6.00 Build 0)  -->
<svg version="1.1" id="Layer_1" xmlns="http://www.w3.org/2000/svg" xmlns:xlink="http://www.w3.org/1999/xlink" x="0px" y="0px"
	 viewBox="0 0 32 32" style="enable-background:new 0 0 32 32;" xml:space="preserve">
<style type="text/css">
	.st0{fill:#FFD93B;}
	.st1{fill:#3E4347;}
	.st2{fill:#F4C534;}
	.st3{fill:#FFFFFF;}
	.st4{fill:#E24B4B;}
	.st5{opacity:0.2;}
	.st6{opacity:0.3;}
	.st7{fill:#5A5F63;}
	.st8{fill:#D03F3F;}
	.st9{fill:#E9EFF4;}
	.st10{fill:#DEE4E9;}
	.st11{fill:#777B7E;}
	.st12{fill:#45CBEA;}
	.st13{fill:#E84D88;}
	.st14{opacity:0.25;}
	.st15{fill:#E9B02C;}
	.st16{fill:none;stroke:#E9B02C;stroke-width:2;stroke-linecap:round;stroke-linejoin:round;stroke-miterlimit:10;}
	.st17{fill:#65B1EF;}
	.st18{fill:#F29A2E;}
	.st19{fill:#59A5E0;}
	.st20{fill:#4E99D2;}
	.st21{opacity:0.15;}
	.st22{fill:#8CC63E;}
	.st23{opacity:0.25;fill:#FFFFFF;}
	.st24{fill:#38C0DC;}
	.st25{fill:#D23F77;}
	.st26{fill:#DAE5EF;}
	.st27{fill:#373C3F;}
	.st28{fill:#BF3333;}
	.st29{opacity:0.2;fill:#FFFFFF;}
	.st30{opacity:0.3;fill:#FFFFFF;}
	.st31{fill:#7FB239;}
</style>
<g>
	<g>
		<g>
			<g>
				<path class="st0" d="M32,16c0,8.84-7.17,16-16,16C7.16,32,0,24.84,0,16C0,7.17,7.16,0,16,0C24.83,0,32,7.17,32,16z"/>
			</g>
		</g>
		<g>
			<g>
				<path class="st2" d="M32,16c0,8.84-7.17,16-16,16c-5.04,0-9.54-2.33-12.46-5.97c2.74,2.2,6.21,3.51,10,3.51
					c8.83,0,16-7.16,16-16c0-3.79-1.31-7.26-3.52-10C29.67,6.47,32,10.96,32,16z"/>
			</g>
		</g>
		<g>
			<g>
				<g>
					<g>
						<g>
							<path class="st2" d="M6.41,10.661c-0.332-0.225-0.417-0.676-0.193-1.008c1.635-2.402,4.918-3.028,7.319-1.396
								c0.331,0.225,0.417,0.676,0.192,1.007c-0.226,0.331-0.678,0.417-1.007,0.193c-1.738-1.182-4.12-0.729-5.305,1.012
								C7.189,10.802,6.737,10.884,6.41,10.661z"/>
						</g>
					</g>
				</g>
			</g>
			<g>
				<g>
					<g>
						<g>
							<path class="st2" d="M24.524,10.567c-0.54-0.865-1.385-1.468-2.379-1.698c-0.994-0.229-2.018-0.058-2.882,0.482
								c-0.338,0.212-0.787,0.109-0.999-0.231c-0.212-0.34-0.109-0.787,0.231-0.999c1.192-0.744,2.604-0.982,3.977-0.665
								c1.371,0.317,2.536,1.149,3.282,2.343c0.212,0.339,0.109,0.787-0.231,0.999C25.18,11.012,24.735,10.904,24.524,10.567z"/>
						</g>
					</g>
				</g>
			</g>
		</g>
		<g>
			<g>
				<g>
					<path class="st1" d="M23.756,22.776c0.392-0.951-0.304-2.08-1.486-2.247c-0.008-0.001-0.017-0.002-0.026-0.003
						c-1.56-0.192-1.64,0.601-3.171,0.483c-1.528-0.086-1.503-0.882-3.072-0.898c-1.569,0.016-1.544,0.812-3.077,0.897
						c-1.532,0.117-1.611-0.675-3.172-0.484c-0.01,0.002-0.02,0.003-0.03,0.004c-1.182,0.169-1.878,1.295-1.485,2.247
						c1.339,3.135,4.459,5.123,7.759,5.139C19.299,27.899,22.417,25.912,23.756,22.776z"/>
				</g>
			</g>
		</g>
		<g>
			<g>
				<g>
					<path class="st4" d="M19.92,26.92c-1.2,0.63-2.54,0.98-3.92,0.99c-1.38-0.01-2.72-0.36-3.92-0.99
						c0.02-0.88,0.34-1.69,0.86-2.33c0.54-0.66,1.4-0.94,2.25-0.88c0.364,0.046,1.001-0.01,1.53-0.21c0.32-0.12,0.66-0.13,0.96,0.01
						C18.97,24.13,19.88,25.42,19.92,26.92z"/>
				</g>
			</g>
		</g>
	</g>
	<g>
		<g>
			<g>
				<path class="st1" d="M8.575,17.839c-1.129-0.528-1.924-1.623-2.127-2.928c-0.395-2.53,1.403-4.212,3.384-4.564
					c2.158-0.388,4.778,0.69,5.432,3.958c0.04,0.203-0.092,0.401-0.295,0.441c-0.202,0.041-0.4-0.091-0.441-0.294
					c-0.554-2.773-2.751-3.687-4.563-3.367c-1.572,0.28-3.111,1.56-2.775,3.71c0.165,1.058,0.803,1.942,1.705,2.364
					c0.919,0.43,1.971,0.34,2.958-0.252c1.035-0.69,1.46-1.675,1.151-2.692c-0.316-1.047-1.342-1.837-2.384-1.837
					c-0.806,0-1.587,0.657-1.857,1.562c-0.256,0.852,0.244,1.515,0.749,1.823c0.491,0.3,1.286,0.437,1.908-0.162
					c0.394-0.38,0.318-0.833,0.269-1.01c-0.098-0.342-0.346-0.603-0.631-0.664c-0.307-0.069-0.657,0.109-0.982,0.495
					c-0.134,0.159-0.37,0.178-0.529,0.045c-0.158-0.133-0.178-0.37-0.045-0.528c0.69-0.819,1.371-0.819,1.714-0.745
					c0.553,0.119,1.021,0.586,1.194,1.192c0.183,0.64,0.007,1.297-0.47,1.756c-0.765,0.736-1.87,0.839-2.818,0.262
					c-0.791-0.483-1.431-1.499-1.077-2.679c0.363-1.215,1.446-2.097,2.576-2.097c1.382,0,2.687,0.997,3.102,2.37
					c0.405,1.336-0.144,2.661-1.468,3.543C11.104,18.231,9.767,18.396,8.575,17.839z"/>
			</g>
		</g>
		<g>
			<g>
				<path class="st1" d="M18.913,17.84c-1.129-0.528-1.925-1.623-2.128-2.928c-0.396-2.531,1.403-4.212,3.385-4.565
					c2.159-0.383,4.777,0.691,5.431,3.958c0.04,0.203-0.092,0.401-0.295,0.441c-0.201,0.041-0.4-0.091-0.441-0.294
					c-0.555-2.773-2.757-3.687-4.563-3.367c-1.572,0.28-3.111,1.56-2.776,3.71c0.166,1.058,0.804,1.942,1.706,2.364
					c0.92,0.429,1.97,0.339,2.957-0.253c1.035-0.69,1.46-1.675,1.151-2.692c-0.316-1.047-1.342-1.837-2.384-1.837
					c-0.805,0-1.586,0.657-1.858,1.563c-0.256,0.852,0.244,1.515,0.75,1.823c0.492,0.299,1.284,0.438,1.907-0.162
					c0.394-0.38,0.319-0.833,0.268-1.01c-0.098-0.342-0.345-0.603-0.63-0.664c-0.305-0.069-0.658,0.109-0.982,0.495
					c-0.134,0.159-0.369,0.178-0.529,0.045c-0.158-0.133-0.178-0.37-0.045-0.528c0.691-0.819,1.37-0.819,1.715-0.745
					c0.552,0.119,1.021,0.586,1.193,1.192c0.183,0.641,0.007,1.297-0.471,1.756c-0.765,0.738-1.874,0.839-2.817,0.262
					c-0.792-0.483-1.432-1.498-1.078-2.679c0.364-1.215,1.448-2.097,2.576-2.097c1.382,0,2.687,0.997,3.101,2.37
					c0.405,1.336-0.143,2.661-1.468,3.543C21.451,18.225,20.11,18.4,18.913,17.84z"/>
			</g>
		</g>
	</g>
</g>
</svg>
