<?xml version="1.0" encoding="utf-8"?>
<!-- Generator: Adobe Illustrator 21.1.0, SVG Export Plug-In . SVG Version: 6.00 Build 0)  -->
<svg version="1.1" id="Layer_1" xmlns="http://www.w3.org/2000/svg" xmlns:xlink="http://www.w3.org/1999/xlink" x="0px" y="0px"
	 viewBox="0 0 32 32" style="enable-background:new 0 0 32 32;" xml:space="preserve">
<style type="text/css">
	.st0{fill:#FFD93B;}
	.st1{fill:#3E4347;}
	.st2{fill:#F4C534;}
	.st3{fill:#FFFFFF;}
	.st4{fill:#E24B4B;}
	.st5{opacity:0.2;}
	.st6{opacity:0.3;}
	.st7{fill:#5A5F63;}
	.st8{fill:#D03F3F;}
	.st9{fill:#E9EFF4;}
	.st10{fill:#DEE4E9;}
	.st11{fill:#777B7E;}
	.st12{fill:#45CBEA;}
	.st13{fill:#E84D88;}
	.st14{opacity:0.25;}
	.st15{fill:#E9B02C;}
	.st16{fill:none;stroke:#E9B02C;stroke-width:2;stroke-linecap:round;stroke-linejoin:round;stroke-miterlimit:10;}
	.st17{fill:#65B1EF;}
	.st18{fill:#F29A2E;}
	.st19{fill:#59A5E0;}
	.st20{fill:#4E99D2;}
	.st21{opacity:0.15;}
	.st22{fill:#8CC63E;}
	.st23{opacity:0.25;fill:#FFFFFF;}
	.st24{fill:#38C0DC;}
	.st25{fill:#D23F77;}
	.st26{fill:#DAE5EF;}
	.st27{fill:#373C3F;}
	.st28{fill:#BF3333;}
	.st29{opacity:0.2;fill:#FFFFFF;}
	.st30{opacity:0.3;fill:#FFFFFF;}
	.st31{fill:#7FB239;}
</style>
<g>
	<g>
		<g>
			<g>
				<path class="st0" d="M26.124,17.488c1.023,8.209-5.881,15.101-14.086,14.067C6.444,30.85,1.927,26.334,1.219,20.741
					C0.18,12.523,7.098,5.608,15.317,6.654C20.913,7.366,25.426,11.891,26.124,17.488z"/>
				<path class="st2" d="M26.14,20.58c-0.655,5.733-5.293,10.359-11.028,10.998c-4.523,0.504-8.635-1.397-11.215-4.592
					c2.494,2.017,5.778,3.093,9.315,2.702c5.755-0.635,10.407-5.287,11.042-11.042c0.391-3.537-0.685-6.82-2.702-9.315
					C24.751,11.917,26.659,16.043,26.14,20.58z"/>
			</g>
			<g>
				<path class="st0" d="M1.294,18.307c-0.806-0.166-1.493,0.587-1.241,1.37c1.661,5.176,6.246,9.121,11.758,9.815
					c7.163,0.903,13.45-3.498,15.475-9.812c0.252-0.785-0.433-1.54-1.24-1.373C17.795,20.011,9.545,20.011,1.294,18.307z"/>
				<g>
					<path class="st1" d="M25.388,21.216c-2.197,4.387-6.685,7.219-11.715,7.219c-0.573,0-1.146-0.039-1.718-0.11
						c-4.316-0.541-8.058-3.256-10.004-7.109c-0.361-0.714,0.243-1.53,1.036-1.388c3.547,0.62,7.14,0.934,10.687,0.934
						c3.539,0,7.133-0.314,10.687-0.934C25.153,19.686,25.749,20.502,25.388,21.216z"/>
				</g>
			</g>
			<g>
				<g>
					<path class="st1" d="M25.388,21.216c-2.197,4.387-6.685,7.219-11.715,7.219c-0.573,0-1.146-0.039-1.718-0.11
						c-4.316-0.541-8.058-3.256-10.004-7.109c-0.361-0.714,0.243-1.53,1.036-1.388c3.547,0.62,7.14,0.934,10.687,0.934
						c3.539,0,7.133-0.314,10.687-0.934C25.153,19.686,25.749,20.502,25.388,21.216z"/>
				</g>
			</g>
			<g>
				<g>
					<g>
						<ellipse class="st3" cx="9.285" cy="14.195" rx="3.819" ry="3.822"/>
					</g>
				</g>
				<g>
					<g>
						<ellipse class="st3" cx="18.059" cy="14.195" rx="3.819" ry="3.822"/>
					</g>
					<g>
						<g>
							<ellipse class="st1" cx="19.187" cy="13.067" rx="1.221" ry="1.224"/>
						</g>
						<g>
							
								<ellipse transform="matrix(0.707 -0.7072 0.7072 0.707 -3.1625 17.5857)" class="st3" cx="19.643" cy="12.61" rx="0.223" ry="0.342"/>
						</g>
					</g>
					<g>
						<g>
							<ellipse class="st1" cx="10.506" cy="13.067" rx="1.221" ry="1.224"/>
						</g>
						<g>
							
								<ellipse transform="matrix(0.707 -0.7072 0.7072 0.707 -5.7057 11.4469)" class="st3" cx="10.963" cy="12.61" rx="0.223" ry="0.342"/>
						</g>
					</g>
				</g>
			</g>
			<g>
				<g>
					<g>
						<path class="st1" d="M21.366,10.347c-1.268-2.103-3.081-2.79-4.379-2.995c-0.267-0.042-0.45-0.293-0.408-0.561
							c0.042-0.267,0.296-0.454,0.561-0.408c1.504,0.238,3.603,1.031,5.066,3.458C22.541,10.396,21.7,10.903,21.366,10.347z"/>
					</g>
				</g>
				<g>
					<g>
						<path class="st1" d="M5.974,10.347c1.268-2.103,3.081-2.79,4.379-2.995c0.267-0.042,0.45-0.293,0.408-0.561
							c-0.042-0.267-0.296-0.454-0.561-0.408C8.696,6.621,6.597,7.414,5.134,9.842C4.799,10.396,5.641,10.903,5.974,10.347z"/>
					</g>
				</g>
			</g>
			<path class="st3" d="M13.673,20.761c-2.987,0-6.007-0.236-9.005-0.677l0.278,1.729c0.074,0.47,0.454,0.813,0.931,0.875
				c5.373,0.704,10.562,0.755,15.54-0.009c0.385-0.059,0.719-0.304,0.857-0.673l0.441-1.929
				C19.7,20.523,16.668,20.761,13.673,20.761z"/>
			<path class="st3" d="M20.605,26.462c-1.91-0.262-4.315-0.336-6.935-0.336c-2.619,0-5.023,0.074-6.932,0.335
				c1.563,0.977,3.336,1.627,5.218,1.863c0.573,0.071,1.146,0.11,1.718,0.11C16.193,28.435,18.577,27.723,20.605,26.462z"/>
		</g>
	</g>
	<g>
		<g>
			<path class="st9" d="M32,4.731c0,1.472-0.797,2.769-2.033,3.566c-0.841,0.552-1.84,0.762-2.839,0.71
				c-0.167,0.823-0.885,1.437-1.752,1.437c-1.339,0-2.177-1.434-1.595-2.558c-0.017-0.009-0.026-0.017-0.044-0.027V7.85
				c-0.894-0.797-1.454-1.901-1.454-3.119c0-2.427,2.182-4.389,4.854-4.389C29.827,0.342,32,2.304,32,4.731z"/>
			<path class="st9" d="M24.097,12.757c-1.211,0-1.199-1.822,0-1.822C25.29,10.934,25.309,12.757,24.097,12.757z"/>
		</g>
		<g>
			<g>
				<g>
					<path class="st4" d="M29.853,3.995c-0.017,1.245-1.914,2.656-2.548,3.091c-0.114,0.08-0.28,0.08-0.394,0
						c-0.623-0.451-2.491-1.902-2.479-3.148c0.017-1.582,2.239-1.902,2.719-0.417c0.188-0.554,0.72-0.937,1.325-0.937
						C29.247,2.595,29.864,3.229,29.853,3.995z"/>
				</g>
			</g>
		</g>
	</g>
</g>
</svg>
