<?xml version="1.0" encoding="utf-8"?>
<!-- Generator: Adobe Illustrator 21.1.0, SVG Export Plug-In . SVG Version: 6.00 Build 0)  -->
<svg version="1.1" id="Layer_1" xmlns="http://www.w3.org/2000/svg" xmlns:xlink="http://www.w3.org/1999/xlink" x="0px" y="0px"
	 viewBox="0 0 32 32" style="enable-background:new 0 0 32 32;" xml:space="preserve">
<style type="text/css">
	.st0{fill:#FFD93B;}
	.st1{fill:#3E4347;}
	.st2{fill:#F4C534;}
	.st3{fill:#FFFFFF;}
	.st4{fill:#E24B4B;}
	.st5{opacity:0.2;}
	.st6{opacity:0.3;}
	.st7{fill:#5A5F63;}
	.st8{fill:#D03F3F;}
	.st9{fill:#E9EFF4;}
	.st10{fill:#DEE4E9;}
	.st11{fill:#777B7E;}
	.st12{fill:#45CBEA;}
	.st13{fill:#E84D88;}
	.st14{opacity:0.25;}
	.st15{fill:#E9B02C;}
	.st16{fill:none;stroke:#E9B02C;stroke-width:2;stroke-linecap:round;stroke-linejoin:round;stroke-miterlimit:10;}
	.st17{fill:#65B1EF;}
	.st18{fill:#F29A2E;}
	.st19{fill:#59A5E0;}
	.st20{fill:#4E99D2;}
	.st21{opacity:0.15;}
	.st22{fill:#8CC63E;}
	.st23{opacity:0.25;fill:#FFFFFF;}
	.st24{fill:#38C0DC;}
	.st25{fill:#D23F77;}
	.st26{fill:#DAE5EF;}
	.st27{fill:#373C3F;}
	.st28{fill:#BF3333;}
	.st29{opacity:0.2;fill:#FFFFFF;}
	.st30{opacity:0.3;fill:#FFFFFF;}
	.st31{fill:#7FB239;}
</style>
<g>
	<circle class="st0" cx="16" cy="16" r="16"/>
	<path class="st15" d="M32,16c0,8.84-7.165,16-16,16c-5.03,0-9.52-2.32-12.455-5.955c2.745,2.22,6.24,3.545,10.045,3.545
		c8.835,0,16-7.16,16-16c0-3.805-1.325-7.3-3.545-10.045C29.675,6.48,32,10.97,32,16z"/>
	<path class="st4" d="M16.404,25.885c-0.772-2.82-2.613-4.948-4.188-4.794c-1.575,0.154-2.276,2.529-1.618,5.361L16.404,25.885z"/>
	<path class="st3" d="M14.67,12.842c0,2.833-2.291,5.134-5.134,5.134c-2.833,0-5.134-2.301-5.134-5.134
		c0-2.842,2.301-5.143,5.134-5.143C12.379,7.699,14.67,10,14.67,12.842z"/>
	<path class="st3" d="M27.601,12.842c0,2.833-2.291,5.134-5.134,5.134c-2.833,0-5.134-2.301-5.134-5.134
		c0-2.842,2.301-5.143,5.134-5.143C25.31,7.699,27.601,10,27.601,12.842z"/>
	<path class="st1" d="M30.345,12.061h-2.073c-0.383-2.867-2.839-5.087-5.805-5.087c-2.195,0-4.11,1.217-5.112,3.011
		c-0.272,0.487-0.786,0.771-1.344,0.767c-0.003,0-0.007,0-0.01,0c-0.005,0-0.01,0-0.015,0.001c-0.556,0.004-1.068-0.281-1.338-0.766
		c-1.002-1.796-2.916-3.013-5.112-3.013c-2.966,0-5.416,2.22-5.8,5.087H1.655v1.552h2.099c0.36,2.678,2.537,4.833,5.278,5.065
		c3.469,0.294,6.431-2.472,6.357-5.96c0.059-0.292,0.305-0.515,0.613-0.515c0.314,0,0.607,0.227,0.607,0.639
		c0,3.381,2.881,6.104,6.319,5.84c2.751-0.211,4.969-2.362,5.327-5.069h2.091V12.061z M9.537,17.25
		c-2.431,0-4.409-1.978-4.409-4.408c0-2.436,1.978-4.418,4.409-4.418c2.431,0,4.408,1.982,4.408,4.418
		C13.945,15.272,11.968,17.25,9.537,17.25z M22.468,17.25c-2.431,0-4.409-1.978-4.409-4.408c0-2.436,1.978-4.418,4.409-4.418
		c2.431,0,4.408,1.982,4.408,4.418C26.876,15.272,24.898,17.25,22.468,17.25z"/>
	<path class="st1" d="M19.214,13.977c0-1.079,0.869-1.967,1.961-1.967c1.079,0,1.961,0.889,1.961,1.968
		c0,1.086-0.882,1.974-1.961,1.974C20.083,15.951,19.214,15.062,19.214,13.977z"/>
	
		<ellipse transform="matrix(0.7071 -0.7071 0.7071 0.7071 -4.3651 18.7862)" class="st3" cx="20.494" cy="14.662" rx="0.447" ry="0.647"/>
	<path class="st1" d="M9.439,15.366c-0.763-0.763-0.777-2.006-0.005-2.779c0.763-0.763,2.016-0.758,2.779,0.005
		c0.768,0.768,0.773,2.021,0.01,2.784C11.45,16.148,10.207,16.133,9.439,15.366z"/>
	<ellipse class="st3" cx="10.828" cy="14.945" rx="0.647" ry="0.447"/>
	<path class="st1" d="M23.85,24.942c-0.228,0.1-4.416,1.934-10.256,1.934c-1.661,0-3.449-0.155-5.31-0.529
		c-0.338-0.064-0.557-0.393-0.484-0.721c0.064-0.338,0.383-0.557,0.721-0.483c8.075,1.624,14.754-1.296,14.818-1.323
		c0.319-0.146,0.675,0,0.821,0.31C24.298,24.44,24.161,24.805,23.85,24.942z"/>
	<path class="st1" d="M25.19,6.302c-2.188-1.705-4.597-2.209-5.946-2.352c-0.412-0.043-0.554-0.583-0.22-0.831
		c3.048-2.245,5.477,1.037,6.529,2.884C25.68,6.231,25.396,6.465,25.19,6.302z"/>
	<path class="st1" d="M6.81,6.302c2.188-1.705,4.596-2.209,5.946-2.352c0.412-0.043,0.554-0.583,0.22-0.831
		C9.929,0.874,7.499,4.156,6.448,6.004C6.32,6.231,6.604,6.465,6.81,6.302z"/>
</g>
</svg>
