<?xml version="1.0" encoding="utf-8"?>
<!-- Generator: Adobe Illustrator 21.1.0, SVG Export Plug-In . SVG Version: 6.00 Build 0)  -->
<svg version="1.1" id="Layer_1" xmlns="http://www.w3.org/2000/svg" xmlns:xlink="http://www.w3.org/1999/xlink" x="0px" y="0px"
	 viewBox="0 0 32 32" style="enable-background:new 0 0 32 32;" xml:space="preserve">
<style type="text/css">
	.st0{fill:#FFD93B;}
	.st1{fill:#3E4347;}
	.st2{fill:#F4C534;}
	.st3{fill:#FFFFFF;}
	.st4{fill:#E24B4B;}
	.st5{opacity:0.2;}
	.st6{opacity:0.3;}
	.st7{fill:#5A5F63;}
	.st8{fill:#D03F3F;}
	.st9{fill:#E9EFF4;}
	.st10{fill:#DEE4E9;}
	.st11{fill:#777B7E;}
	.st12{fill:#45CBEA;}
	.st13{fill:#E84D88;}
	.st14{opacity:0.25;}
	.st15{fill:#E9B02C;}
	.st16{fill:none;stroke:#E9B02C;stroke-width:2;stroke-linecap:round;stroke-linejoin:round;stroke-miterlimit:10;}
	.st17{fill:#65B1EF;}
	.st18{fill:#F29A2E;}
	.st19{fill:#59A5E0;}
	.st20{fill:#4E99D2;}
	.st21{opacity:0.15;}
	.st22{fill:#8CC63E;}
	.st23{opacity:0.25;fill:#FFFFFF;}
	.st24{fill:#38C0DC;}
	.st25{fill:#D23F77;}
	.st26{fill:#DAE5EF;}
	.st27{fill:#373C3F;}
	.st28{fill:#BF3333;}
	.st29{opacity:0.2;fill:#FFFFFF;}
	.st30{opacity:0.3;fill:#FFFFFF;}
	.st31{fill:#7FB239;}
</style>
<g>
	<g>
		<g>
			<g>
				<g>
					<g>
						<g>
							<g>
								<g>
									<circle class="st0" cx="16" cy="16" r="16"/>
								</g>
							</g>
						</g>
						<g>
							<g>
								<g>
									<path class="st2" d="M32,16c0,8.84-7.165,16-16,16c-5.03,0-9.52-2.32-12.455-5.955c2.745,2.22,6.24,3.545,10.045,3.545
										c8.835,0,16-7.16,16-16c0-3.805-1.325-7.3-3.545-10.045C29.675,6.48,32,10.97,32,16z"/>
								</g>
							</g>
						</g>
					</g>
				</g>
			</g>
		</g>
		<g>
			<g>
				<path class="st1" d="M21.801,21.872c-4.498-3.994-9.263-1.13-9.463-1.006c-0.311,0.193-0.723,0.097-0.917-0.215
					c-0.194-0.313-0.099-0.722,0.213-0.917c0.057-0.036,5.796-3.525,11.053,1.141c0.275,0.245,0.301,0.666,0.056,0.941
					C22.498,22.091,22.076,22.116,21.801,21.872z"/>
			</g>
		</g>
		<g>
			<g>
				<path class="st3" d="M7.625,21.008c0,0,0.028-2.641,1.828-2.931c1.888-0.305,0.936,4.158,0.936,4.158S14.358,16.92,16,17.569
					c0.979,0.387,0.447,2.367-2.259,4.721c0.825-0.33,2.6,0.079,2.075,1.68c0,0,2.164-0.14,1.309,1.569c0,0,1.278-0.079,0.776,1.271
					c-0.502,1.349-4.744,4.292-8.297,4.067c-3.553-0.225-4.048-3.508-3.418-5.352C6.816,23.682,7.266,24.292,7.625,21.008z"/>
			</g>
		</g>
		<g>
			<g>
				<g>
					
						<ellipse transform="matrix(0.397 -0.9178 0.9178 0.397 1.4925 26.0734)" class="st1" cx="20.589" cy="11.901" rx="3.444" ry="2.571"/>
				</g>
			</g>
			<g>
				<g>
					<path class="st1" d="M23.432,8.148c-0.144-0.207-0.328-0.396-0.548-0.547c-1.337-0.951-3.394-0.354-4.581,1.325
						c-0.294,0.42-0.508,0.87-0.643,1.318c-0.055-0.81,0.202-1.732,0.782-2.552c1.101-1.55,2.931-2.144,4.087-1.328
						C23.084,6.756,23.387,7.405,23.432,8.148z"/>
				</g>
			</g>
			<g>
				<g>
					
						<ellipse transform="matrix(0.9406 -0.3396 0.3396 0.9406 -2.0919 7.6624)" class="st7" cx="20.849" cy="9.809" rx="0.751" ry="0.482"/>
				</g>
			</g>
		</g>
		<g>
			<g>
				<g>
					<g>
						<circle class="st1" cx="10.881" cy="13.944" r="2.083"/>
					</g>
				</g>
				<g>
					<g>
						<path class="st7" d="M11.702,13.591c-0.25,0-0.481-0.222-0.514-0.476c-0.033-0.231,0.118-0.406,0.33-0.406
							c0.212,0,0.434,0.174,0.5,0.406C12.089,13.365,11.952,13.587,11.702,13.591z"/>
					</g>
				</g>
			</g>
			<g>
				<g>
					<path class="st1" d="M14.184,12.821c0,0.365-0.074,0.713-0.217,1.038c-0.04-1.693-1.75-3.056-3.849-3.056
						c-0.872,0-1.671,0.234-2.315,0.633c0.57-0.935,1.699-1.574,2.993-1.574C12.667,9.862,14.184,11.19,14.184,12.821z"/>
				</g>
			</g>
		</g>
	</g>
	<g>
		<g>
			<path class="st9" d="M16,28.061c-1.368,0.664-7.75,3.792-10.043-1.053c0.005,1.738,0.93,3.698,3.647,3.87
				c3.553,0.225,7.795-2.718,8.297-4.067c0.169-0.456,0.134-0.746,0.015-0.934C17.916,25.889,18.146,27.019,16,28.061z"/>
		</g>
	</g>
</g>
</svg>
