<?xml version="1.0" encoding="utf-8"?>
<!-- Generator: Adobe Illustrator 21.1.0, SVG Export Plug-In . SVG Version: 6.00 Build 0)  -->
<svg version="1.1" id="Layer_1" xmlns="http://www.w3.org/2000/svg" xmlns:xlink="http://www.w3.org/1999/xlink" x="0px" y="0px"
	 viewBox="0 0 32 32" style="enable-background:new 0 0 32 32;" xml:space="preserve">
<style type="text/css">
	.st0{fill:#FFD93B;}
	.st1{fill:#3E4347;}
	.st2{fill:#F4C534;}
	.st3{fill:#FFFFFF;}
	.st4{fill:#E24B4B;}
	.st5{opacity:0.2;}
	.st6{opacity:0.3;}
	.st7{fill:#5A5F63;}
	.st8{fill:#D03F3F;}
	.st9{fill:#E9EFF4;}
	.st10{fill:#DEE4E9;}
	.st11{fill:#777B7E;}
	.st12{fill:#45CBEA;}
	.st13{fill:#E84D88;}
	.st14{opacity:0.25;}
	.st15{fill:#E9B02C;}
	.st16{fill:none;stroke:#E9B02C;stroke-width:2;stroke-linecap:round;stroke-linejoin:round;stroke-miterlimit:10;}
	.st17{fill:#65B1EF;}
	.st18{fill:#F29A2E;}
	.st19{fill:#59A5E0;}
	.st20{fill:#4E99D2;}
	.st21{opacity:0.15;}
	.st22{fill:#8CC63E;}
	.st23{opacity:0.25;fill:#FFFFFF;}
	.st24{fill:#38C0DC;}
	.st25{fill:#D23F77;}
	.st26{fill:#DAE5EF;}
	.st27{fill:#373C3F;}
	.st28{fill:#BF3333;}
	.st29{opacity:0.2;fill:#FFFFFF;}
	.st30{opacity:0.3;fill:#FFFFFF;}
	.st31{fill:#7FB239;}
</style>
<g>
	<g>
		<g>
			<g>
				<g>
					<g>
						<g>
							<g>
								<g>
									<g>
										<g>
											<circle class="st0" cx="16" cy="16" r="16"/>
										</g>
									</g>
								</g>
							</g>
							<g>
								<g>
									<g>
										<g>
											<path class="st2" d="M32,16c0,8.84-7.165,16-16,16c-5.03,0-9.52-2.32-12.455-5.955c2.745,2.22,6.24,3.545,10.045,3.545
												c8.835,0,16-7.16,16-16c0-3.805-1.325-7.3-3.545-10.045C29.675,6.48,32,10.97,32,16z"/>
										</g>
									</g>
								</g>
							</g>
						</g>
					</g>
				</g>
			</g>
		</g>
	</g>
	<g>
		<g>
			<g>
				<g>
					<g>
						<g>
							<path class="st3" d="M20.417,24.435c0,0,0.606-3.272-0.865-3.334c-0.774-0.033-1.318,1.824-1.787,4.392
								c-0.536,2.937,0.941,4.597,2.228,5.538c1.886,1.379,3.875,1.13,5.77,0.226c2.35-1.121,4.296-5.45,4.326-6.513
								c0.045-1.645-1.286-1.677-3.088,2.194c0,0-0.237,0.73,0,0c0.237-0.73,2.072-4.014,2.45-4.783
								c0.395-0.805-0.718-1.867-1.488-0.853s-3.013,4.191-3.18,4.969c0,0-0.15,0.603,0,0c0.15-0.602,3.253-5.566,3.396-6.409
								c0.17-1.007-1.244-1.261-1.721-0.545c-0.348,0.522-3.636,5.975-3.636,5.975l0,0c0,0,2.703-4.5,2.568-5.376
								c-0.112-0.726-1.04-0.862-1.483-0.402C23.415,20.023,20.417,24.435,20.417,24.435z"/>
						</g>
					</g>
				</g>
				<g>
					<g>
						<path class="st10" d="M18.175,28.969c0.463,0.92,1.164,1.584,1.817,2.062c1.886,1.379,3.875,1.13,5.77,0.226
							c2.35-1.121,4.297-5.45,4.326-6.514C30.088,24.743,26.015,34.825,18.175,28.969z"/>
					</g>
				</g>
			</g>
		</g>
		<g>
			<g>
				<g>
					<g>
						<g>
							<path class="st3" d="M11.583,24.435c0,0-0.606-3.272,0.865-3.334c0.774-0.033,1.318,1.824,1.787,4.392
								c0.536,2.937-0.941,4.597-2.228,5.538c-1.886,1.379-3.875,1.13-5.77,0.226c-2.35-1.121-4.296-5.45-4.326-6.513
								c-0.045-1.645,1.286-1.677,3.088,2.194c0,0,0.237,0.73,0,0c-0.237-0.73-2.072-4.014-2.45-4.783
								c-0.396-0.805,0.717-1.867,1.488-0.853s3.013,4.191,3.18,4.969c0,0,0.15,0.603,0,0c-0.15-0.602-3.253-5.566-3.396-6.409
								c-0.17-1.007,1.244-1.261,1.721-0.545c0.348,0.522,3.636,5.975,3.636,5.975l0,0c0,0-2.703-4.5-2.568-5.376
								c0.112-0.726,1.04-0.862,1.483-0.402C8.585,20.023,11.583,24.435,11.583,24.435z"/>
						</g>
					</g>
				</g>
				<g>
					<g>
						<path class="st10" d="M13.824,28.969c-0.463,0.92-1.164,1.584-1.817,2.062c-1.886,1.379-3.875,1.13-5.77,0.226
							c-2.35-1.121-4.296-5.45-4.326-6.514C1.912,24.743,5.985,34.825,13.824,28.969z"/>
					</g>
				</g>
			</g>
		</g>
	</g>
	<g>
		<g>
			<path class="st1" d="M21.963,14.104c0.718,0.161-0.604,5.407-5.963,5.411c-5.36-0.004-6.682-5.25-5.963-5.411
				c0.525-0.281,2.547,2.24,5.963,2.24C19.481,16.344,21.438,13.823,21.963,14.104z"/>
		</g>
	</g>
	<g>
		<g>
			<g>
				<path class="st1" d="M13.392,11.642c-0.383,0-0.71-0.292-0.746-0.681c-0.115-1.249-1.067-2.191-2.214-2.191
					c-1.147,0-2.099,0.942-2.214,2.191c-0.038,0.412-0.406,0.719-0.815,0.678c-0.413-0.038-0.716-0.403-0.678-0.815
					c0.187-2.026,1.78-3.554,3.708-3.554c1.927,0,3.521,1.528,3.707,3.554c0.038,0.412-0.266,0.778-0.678,0.815
					C13.438,11.641,13.415,11.642,13.392,11.642z"/>
			</g>
		</g>
		<g>
			<g>
				<path class="st1" d="M24.528,11.642c-0.383,0-0.71-0.292-0.746-0.681c-0.115-1.249-1.067-2.191-2.214-2.191
					c-1.147,0-2.099,0.942-2.214,2.191c-0.037,0.412-0.402,0.719-0.815,0.678c-0.413-0.038-0.716-0.403-0.678-0.815
					c0.186-2.026,1.78-3.554,3.707-3.554c1.927,0,3.521,1.528,3.707,3.554c0.038,0.412-0.266,0.778-0.678,0.815
					C24.574,11.641,24.551,11.642,24.528,11.642z"/>
			</g>
		</g>
	</g>
</g>
</svg>
