<?xml version="1.0" encoding="utf-8"?>
<!-- Generator: Adobe Illustrator 21.1.0, SVG Export Plug-In . SVG Version: 6.00 Build 0)  -->
<svg version="1.1" id="Layer_1" xmlns="http://www.w3.org/2000/svg" xmlns:xlink="http://www.w3.org/1999/xlink" x="0px" y="0px"
	 viewBox="0 0 32 32" style="enable-background:new 0 0 32 32;" xml:space="preserve">
<style type="text/css">
	.st0{fill:#FFD93B;}
	.st1{fill:#3E4347;}
	.st2{fill:#F4C534;}
	.st3{fill:#FFFFFF;}
	.st4{fill:#E24B4B;}
	.st5{opacity:0.2;}
	.st6{opacity:0.3;}
	.st7{fill:#5A5F63;}
	.st8{fill:#D03F3F;}
	.st9{fill:#E9EFF4;}
	.st10{fill:#DEE4E9;}
	.st11{fill:#777B7E;}
	.st12{fill:#45CBEA;}
	.st13{fill:#E84D88;}
	.st14{opacity:0.25;}
	.st15{fill:#E9B02C;}
	.st16{fill:none;stroke:#E9B02C;stroke-width:2;stroke-linecap:round;stroke-linejoin:round;stroke-miterlimit:10;}
	.st17{fill:#65B1EF;}
	.st18{fill:#F29A2E;}
	.st19{fill:#59A5E0;}
	.st20{fill:#4E99D2;}
	.st21{opacity:0.15;}
	.st22{fill:#8CC63E;}
	.st23{opacity:0.25;fill:#FFFFFF;}
	.st24{fill:#38C0DC;}
	.st25{fill:#D23F77;}
	.st26{fill:#DAE5EF;}
	.st27{fill:#373C3F;}
	.st28{fill:#BF3333;}
	.st29{opacity:0.2;fill:#FFFFFF;}
	.st30{opacity:0.3;fill:#FFFFFF;}
	.st31{fill:#7FB239;}
</style>
<g>
	<g>
		<g>
			<g>
				<g>
					<g>
						<g>
							<g>
								<g>
									<g>
										<g>
											<g>
												<g>
													<g>
														<g>
															<circle class="st0" cx="16" cy="16" r="16"/>
														</g>
													</g>
												</g>
											</g>
											<g>
												<g>
													<g>
														<g>
															<path class="st2" d="M32,16c0,8.84-7.165,16-16,16c-5.03,0-9.52-2.32-12.455-5.955
																c2.745,2.22,6.24,3.545,10.045,3.545c8.835,0,16-7.16,16-16c0-3.805-1.325-7.3-3.545-10.045
																C29.675,6.48,32,10.97,32,16z"/>
														</g>
													</g>
												</g>
											</g>
										</g>
									</g>
								</g>
							</g>
						</g>
					</g>
				</g>
			</g>
		</g>
	</g>
	<g>
		<g>
			
				<ellipse transform="matrix(0.5182 -0.8553 0.8553 0.5182 -5.6741 14.9073)" class="st3" cx="10.394" cy="12.49" rx="3.508" ry="3.509"/>
			
				<ellipse transform="matrix(0.518 -0.8554 0.8554 0.518 -3.9513 14.9664)" class="st1" cx="11.304" cy="10.989" rx="1.755" ry="1.753"/>
			
				<ellipse transform="matrix(0.9151 -0.4032 0.4032 0.9151 -3.1514 5.7807)" class="st7" cx="12.152" cy="10.374" rx="0.331" ry="0.501"/>
		</g>
		<g>
			
				<ellipse transform="matrix(0.5182 -0.8553 0.8553 0.5182 -0.2726 24.4959)" class="st3" cx="21.606" cy="12.49" rx="3.508" ry="3.509"/>
			
				<ellipse transform="matrix(0.518 -0.8554 0.8554 0.518 1.453 24.5567)" class="st1" cx="22.515" cy="10.989" rx="1.755" ry="1.753"/>
			
				<ellipse transform="matrix(0.9151 -0.4031 0.4031 0.9151 -2.1996 10.2989)" class="st7" cx="23.364" cy="10.374" rx="0.331" ry="0.501"/>
		</g>
	</g>
	<g>
		<g>
			<path class="st1" d="M23.16,21.525c0,0.481-0.389,0.87-0.87,0.87H9.71c-0.476,0-0.87-0.389-0.87-0.87
				c0-0.481,0.394-0.87,0.87-0.87h12.581C22.772,20.656,23.16,21.044,23.16,21.525z"/>
		</g>
	</g>
</g>
</svg>
