<?xml version="1.0" encoding="utf-8"?>
<!-- Generator: Adobe Illustrator 21.1.0, SVG Export Plug-In . SVG Version: 6.00 Build 0)  -->
<svg version="1.1" id="Layer_1" xmlns="http://www.w3.org/2000/svg" xmlns:xlink="http://www.w3.org/1999/xlink" x="0px" y="0px"
	 viewBox="0 0 32 32" style="enable-background:new 0 0 32 32;" xml:space="preserve">
<style type="text/css">
	.st0{fill:#FFD93B;}
	.st1{fill:#3E4347;}
	.st2{fill:#F4C534;}
	.st3{fill:#FFFFFF;}
	.st4{fill:#E24B4B;}
	.st5{opacity:0.2;}
	.st6{opacity:0.3;}
	.st7{fill:#5A5F63;}
	.st8{fill:#D03F3F;}
	.st9{fill:#E9EFF4;}
	.st10{fill:#DEE4E9;}
	.st11{fill:#777B7E;}
	.st12{fill:#45CBEA;}
	.st13{fill:#E84D88;}
	.st14{opacity:0.25;}
	.st15{fill:#E9B02C;}
	.st16{fill:none;stroke:#E9B02C;stroke-width:2;stroke-linecap:round;stroke-linejoin:round;stroke-miterlimit:10;}
	.st17{fill:#65B1EF;}
	.st18{fill:#F29A2E;}
	.st19{fill:#59A5E0;}
	.st20{fill:#4E99D2;}
	.st21{opacity:0.15;}
	.st22{fill:#8CC63E;}
	.st23{opacity:0.25;fill:#FFFFFF;}
	.st24{fill:#38C0DC;}
	.st25{fill:#D23F77;}
	.st26{fill:#DAE5EF;}
	.st27{fill:#373C3F;}
	.st28{fill:#BF3333;}
	.st29{opacity:0.2;fill:#FFFFFF;}
	.st30{opacity:0.3;fill:#FFFFFF;}
	.st31{fill:#7FB239;}
</style>
<g>
	<g>
		<g>
			<g>
				<g>
					<g>
						<g>
							<g>
								<g>
									<g>
										<g>
											<g>
												<g>
													<g>
														<g>
															<g>
																<circle class="st0" cx="16" cy="16" r="16"/>
															</g>
														</g>
													</g>
												</g>
												<g>
													<g>
														<g>
															<g>
																<path class="st2" d="M32,16c0,8.84-7.165,16-16,16c-5.03,0-9.52-2.32-12.455-5.955
																	c2.745,2.22,6.24,3.545,10.045,3.545c8.835,0,16-7.16,16-16c0-3.805-1.325-7.3-3.545-10.045
																	C29.675,6.48,32,10.97,32,16z"/>
															</g>
														</g>
													</g>
												</g>
											</g>
										</g>
									</g>
								</g>
							</g>
						</g>
					</g>
				</g>
			</g>
		</g>
	</g>
	<g>
		<path class="st1" d="M13.868,24.229c3.086,0.195,5.165-0.502,6.165-0.795c3.669-1.359,4.853-4.354,4.452-3.687
			c0.318-0.529,1.005-0.699,1.533-0.381c0.528,0.318,0.699,1.005,0.381,1.533c-1.406,2.335-3.515,3.463-5.899,4.098
			c-2.095,0.423-4.192,0.657-6.756,0.255c-0.282-0.044-0.474-0.308-0.43-0.59c0.042-0.265,0.278-0.451,0.54-0.435L13.868,24.229z"/>
	</g>
	<g>
		<g>
			<g>
				<g>
					<path class="st1" d="M14.295,14.097c0,1.046-0.847,1.894-1.894,1.894c-1.316,0-2.282-1.337-1.74-2.644
						c-0.313-0.017-0.631,0.011-0.955,0.085C8.659,13.67,8.022,14.04,7.55,14.91c0.188-1.444,1.257-2.664,2.758-3.031
						C12.085,11.444,14.295,12.392,14.295,14.097z"/>
				</g>
			</g>
			<g>
				<g>
					<g>
						<path class="st1" d="M24.489,14.097c0,1.046-0.847,1.894-1.894,1.894c-1.316,0-2.282-1.337-1.74-2.644
							c-0.798-0.043-2.377,0.211-3.111,1.564c0.188-1.444,1.257-2.664,2.758-3.031C22.279,11.444,24.489,12.392,24.489,14.097z"/>
					</g>
				</g>
			</g>
		</g>
		<g>
			<g>
				<g>
					<path class="st1" d="M25.713,13.606c-0.262-1.762-1.498-3.094-3.149-3.393c-0.889-0.161-1.79-0.013-2.54,0.414
						c-0.288,0.165-0.655,0.063-0.818-0.225c-0.164-0.288-0.063-0.654,0.225-0.818c0.995-0.567,2.185-0.763,3.348-0.552
						c2.165,0.393,3.783,2.119,4.122,4.398c0.048,0.328-0.178,0.633-0.505,0.682C26.075,14.16,25.764,13.94,25.713,13.606z"/>
				</g>
			</g>
			<g>
				<g>
					<g>
						<path class="st1" d="M6.005,14.112c-0.328-0.049-0.554-0.354-0.506-0.682c0.339-2.279,1.956-4.005,4.122-4.398
							c1.165-0.21,2.353-0.015,3.348,0.552c0.288,0.164,0.389,0.531,0.225,0.818c-0.163,0.288-0.529,0.39-0.818,0.225
							c-0.751-0.427-1.651-0.575-2.54-0.414c-1.651,0.299-2.887,1.631-3.148,3.393C6.638,13.937,6.328,14.161,6.005,14.112z"/>
					</g>
				</g>
			</g>
		</g>
	</g>
</g>
</svg>
