<?xml version="1.0" encoding="utf-8"?>
<!-- Generator: Adobe Illustrator 21.1.0, SVG Export Plug-In . SVG Version: 6.00 Build 0)  -->
<svg version="1.1" id="Layer_1" xmlns="http://www.w3.org/2000/svg" xmlns:xlink="http://www.w3.org/1999/xlink" x="0px" y="0px"
	 viewBox="0 0 32 32" style="enable-background:new 0 0 32 32;" xml:space="preserve">
<style type="text/css">
	.st0{fill:#FFD93B;}
	.st1{fill:#3E4347;}
	.st2{fill:#F4C534;}
	.st3{fill:#FFFFFF;}
	.st4{fill:#E24B4B;}
	.st5{opacity:0.2;}
	.st6{opacity:0.3;}
	.st7{fill:#5A5F63;}
	.st8{fill:#D03F3F;}
	.st9{fill:#E9EFF4;}
	.st10{fill:#DEE4E9;}
	.st11{fill:#777B7E;}
	.st12{fill:#45CBEA;}
	.st13{fill:#E84D88;}
	.st14{opacity:0.25;}
	.st15{fill:#E9B02C;}
	.st16{fill:none;stroke:#E9B02C;stroke-width:2;stroke-linecap:round;stroke-linejoin:round;stroke-miterlimit:10;}
	.st17{fill:#65B1EF;}
	.st18{fill:#F29A2E;}
	.st19{fill:#59A5E0;}
	.st20{fill:#4E99D2;}
	.st21{opacity:0.15;}
	.st22{fill:#8CC63E;}
	.st23{opacity:0.25;fill:#FFFFFF;}
	.st24{fill:#38C0DC;}
	.st25{fill:#D23F77;}
	.st26{fill:#DAE5EF;}
	.st27{fill:#373C3F;}
	.st28{fill:#BF3333;}
	.st29{opacity:0.2;fill:#FFFFFF;}
	.st30{opacity:0.3;fill:#FFFFFF;}
	.st31{fill:#7FB239;}
</style>
<g>
	<g>
		<g>
			<g>
				<g>
					<g>
						<g>
							<g>
								<g>
									<g>
										<g>
											<g>
												<g>
													<g>
														<g>
															<g>
																<g>
																	<g>
																		<g>
																			<circle class="st0" cx="16" cy="16" r="16"/>
																		</g>
																	</g>
																</g>
															</g>
														</g>
														<g>
															<g>
																<path class="st1" d="M21.997,25.066c-1.013,0.267-3.173-1.793-6-1.793c-2.793,0-4.98,2.06-5.993,1.793
																	c-1.287-0.133,0.26-6.56,5.993-6.627C21.731,18.506,23.284,24.933,21.997,25.066z"/>
															</g>
														</g>
														<g>
															<g>
																<g>
																	<g>
																		<g>
																			<path class="st2" d="M32,16c0,8.84-7.165,16-16,16c-5.03,0-9.52-2.32-12.455-5.955
																				c2.745,2.22,6.24,3.545,10.045,3.545c8.835,0,16-7.16,16-16c0-3.805-1.325-7.3-3.545-10.045
																				C29.675,6.48,32,10.97,32,16z"/>
																		</g>
																	</g>
																</g>
															</g>
														</g>
													</g>
												</g>
											</g>
										</g>
									</g>
								</g>
							</g>
						</g>
					</g>
				</g>
			</g>
		</g>
		<g>
			<g>
				<g>
					<path class="st1" d="M23.237,15.377c-0.456-0.467-2.165-1.942-5.027-1.321c-0.295,0.066-0.602-0.055-0.775-0.304
						c-0.173-0.248-0.18-0.576-0.017-0.832c1.555-2.44,4.488-3.714,7.845-3.411c0.413,0.038,0.717,0.402,0.679,0.815
						c-0.037,0.413-0.408,0.717-0.814,0.679c-2.075-0.189-3.941,0.327-5.274,1.412c1.718,0.069,3.304,0.734,4.457,1.913
						c0.289,0.296,0.284,0.771-0.012,1.061C24.002,15.679,23.528,15.674,23.237,15.377z"/>
				</g>
			</g>
			<g>
				<g>
					<path class="st1" d="M7.701,15.389c-0.296-0.29-0.301-0.765-0.011-1.061c1.153-1.179,2.74-1.844,4.457-1.913
						c-1.333-1.085-3.196-1.601-5.275-1.412c-0.406,0.036-0.777-0.267-0.814-0.679C6.02,9.911,6.324,9.547,6.737,9.509
						c3.359-0.303,6.291,0.97,7.846,3.411c0.163,0.256,0.156,0.584-0.018,0.832c-0.173,0.248-0.481,0.368-0.775,0.304
						c-2.857-0.623-4.571,0.854-5.029,1.321C8.476,15.671,8.001,15.681,7.701,15.389z"/>
				</g>
			</g>
		</g>
	</g>
	<path class="st3" d="M15.997,18.44c-2.149,0.025-3.709,0.943-4.753,2.089c0,0.001,0,0.002,0,0.003
		c0.012,0.469,0.158,0.797,0.389,0.842c0.755,0.264,2.255-1.245,4.497-1.245c2.26,0,3.742,1.51,4.497,1.245
		c0.18-0.035,0.306-0.246,0.36-0.559C19.947,19.542,18.32,18.467,15.997,18.44z"/>
	<g>
		<path class="st4" d="M15.997,23.273c1.442,0,2.71,0.536,3.741,1.026c-0.147-0.941-0.583-1.784-1.24-2.385
			c-0.555-0.501-1.314-0.645-1.982-0.374c-0.429,0.167-0.906,0.262-1.44,0.262c-0.148,0-0.288-0.008-0.429-0.024
			c-0.773-0.08-1.518,0.382-1.932,1.114c-0.244,0.428-0.401,0.912-0.476,1.422C13.28,23.82,14.557,23.273,15.997,23.273z"/>
		<g class="st5">
			<path class="st3" d="M18.144,22.514c-0.078,0.165-0.369,0.165-0.661,0.019c-0.282-0.136-0.447-0.389-0.369-0.544
				c0.078-0.165,0.379-0.165,0.661-0.029C18.056,22.107,18.222,22.359,18.144,22.514z"/>
		</g>
	</g>
</g>
</svg>
