<?xml version="1.0" encoding="utf-8"?>
<!-- Generator: Adobe Illustrator 21.1.0, SVG Export Plug-In . SVG Version: 6.00 Build 0)  -->
<svg version="1.1" id="Layer_1" xmlns="http://www.w3.org/2000/svg" xmlns:xlink="http://www.w3.org/1999/xlink" x="0px" y="0px"
	 viewBox="0 0 32 32" style="enable-background:new 0 0 32 32;" xml:space="preserve">
<style type="text/css">
	.st0{fill:#FFD93B;}
	.st1{fill:#3E4347;}
	.st2{fill:#F4C534;}
	.st3{fill:#FFFFFF;}
	.st4{fill:#E24B4B;}
	.st5{opacity:0.2;}
	.st6{opacity:0.3;}
	.st7{fill:#5A5F63;}
	.st8{fill:#D03F3F;}
	.st9{fill:#E9EFF4;}
	.st10{fill:#DEE4E9;}
	.st11{fill:#777B7E;}
	.st12{fill:#45CBEA;}
	.st13{fill:#E84D88;}
	.st14{opacity:0.25;}
	.st15{fill:#E9B02C;}
	.st16{fill:none;stroke:#E9B02C;stroke-width:2;stroke-linecap:round;stroke-linejoin:round;stroke-miterlimit:10;}
	.st17{fill:#65B1EF;}
	.st18{fill:#F29A2E;}
	.st19{fill:#59A5E0;}
	.st20{fill:#4E99D2;}
	.st21{opacity:0.15;}
	.st22{fill:#8CC63E;}
	.st23{opacity:0.25;fill:#FFFFFF;}
	.st24{fill:#38C0DC;}
	.st25{fill:#D23F77;}
	.st26{fill:#DAE5EF;}
	.st27{fill:#373C3F;}
	.st28{fill:#BF3333;}
	.st29{opacity:0.2;fill:#FFFFFF;}
	.st30{opacity:0.3;fill:#FFFFFF;}
	.st31{fill:#7FB239;}
</style>
<g>
	<g>
		<g>
			<g>
				<g>
					<g>
						<g>
							<g>
								<g>
									<g>
										<g>
											<g>
												<g>
													<g>
														<g>
															<g>
																<g>
																	<g>
																		<g>
																			<g>
																				<g>
																					<g>
																						<g>
																							<g>
																								<g>
																									<circle class="st0" cx="16" cy="16" r="16"/>
																								</g>
																							</g>
																						</g>
																					</g>
																				</g>
																			</g>
																			<g>
																				<g>
																					<g>
																						<g>
																							<g>
																								<g>
																									<path class="st2" d="M32,16c0,8.84-7.165,16-16,16c-5.03,0-9.52-2.32-12.455-5.955
																										c2.745,2.22,6.24,3.545,10.045,3.545c8.835,0,16-7.16,16-16c0-3.805-1.325-7.3-3.545-10.045
																										C29.675,6.48,32,10.97,32,16z"/>
																								</g>
																							</g>
																						</g>
																					</g>
																				</g>
																			</g>
																		</g>
																	</g>
																</g>
															</g>
														</g>
													</g>
												</g>
											</g>
										</g>
									</g>
								</g>
							</g>
						</g>
					</g>
					<g>
						<g>
							<g>
								<g>
									<g>
										<g>
											<g>
												<ellipse class="st1" cx="21.39" cy="14.305" rx="2.55" ry="2.547"/>
											</g>
										</g>
										<g>
											<g>
												
													<ellipse transform="matrix(0.699 -0.7152 0.7152 0.699 -2.8153 20.0386)" class="st7" cx="22.394" cy="13.363" rx="0.47" ry="0.657"/>
											</g>
										</g>
									</g>
									<g>
										<g>
											<path class="st1" d="M19.116,7.872c-0.124-0.307,0.024-0.657,0.331-0.781c0.307-0.123,0.657,0.024,0.781,0.331
												c0.378,0.935,2.363,2.273,4.82,1.496c0.317-0.1,0.653,0.075,0.753,0.391c0.1,0.316-0.076,0.653-0.391,0.753
												C22.441,11.001,19.741,9.421,19.116,7.872z"/>
										</g>
									</g>
								</g>
							</g>
						</g>
						<g>
							<g>
								<g>
									<g>
										<g>
											<g>
												<ellipse class="st1" cx="10.61" cy="14.305" rx="2.55" ry="2.547"/>
											</g>
										</g>
										<g>
											<g>
												
													<ellipse transform="matrix(0.7151 -0.699 0.699 0.7151 -6.6044 10.5212)" class="st7" cx="9.606" cy="13.363" rx="0.657" ry="0.47"/>
											</g>
										</g>
									</g>
									<g>
										<g>
											<path class="st1" d="M6.591,10.062C6.275,9.962,6.1,9.625,6.2,9.309c0.1-0.316,0.436-0.491,0.753-0.391
												c2.452,0.775,4.441-0.561,4.819-1.496c0.124-0.307,0.475-0.454,0.781-0.331c0.307,0.124,0.456,0.474,0.331,0.781
												C12.259,9.42,9.561,11.002,6.591,10.062z"/>
										</g>
									</g>
								</g>
							</g>
						</g>
					</g>
				</g>
			</g>
			<g>
				<g>
					<g>
						<path class="st12" d="M27.808,18.948c0,0.9-0.727,1.627-1.627,1.627c-0.9,0-1.627-0.727-1.627-1.627
							c0-0.893,1.627-3.477,1.627-3.477S27.808,18.055,27.808,18.948z"/>
					</g>
				</g>
				<g class="st5">
					<g>
						<path class="st3" d="M27.107,19.715c-0.183,0.221-0.439,0.303-0.577,0.193c-0.137-0.116-0.103-0.38,0.074-0.602
							c0.182-0.215,0.438-0.296,0.576-0.187C27.317,19.235,27.283,19.499,27.107,19.715z"/>
					</g>
				</g>
			</g>
			<g>
				<g>
					<g>
						<path class="st12" d="M27.437,27.332c0,1.222-0.987,2.209-2.209,2.209s-2.209-0.987-2.209-2.209
							c0-1.213,2.209-4.721,2.209-4.721S27.437,26.119,27.437,27.332z"/>
					</g>
				</g>
				<g class="st5">
					<g>
						<path class="st3" d="M26.503,28.243c-0.228,0.316-0.567,0.45-0.764,0.314c-0.196-0.144-0.173-0.506,0.045-0.823
							c0.227-0.307,0.566-0.441,0.763-0.305C26.744,27.574,26.721,27.935,26.503,28.243z"/>
					</g>
				</g>
			</g>
		</g>
	</g>
	<g>
		<g>
			<g>
				<path class="st1" d="M21.711,25.278c-3.818-0.988-7.825-0.988-11.643,0.001c-0.443,0.115-0.892-0.215-0.865-0.669
					c0.102-2.823,2.862-5.549,6.69-5.54c3.819-0.009,6.58,2.716,6.682,5.539C22.609,25.064,22.153,25.393,21.711,25.278z"/>
			</g>
		</g>
		<g>
			<path class="st13" d="M18.914,24.735c-0.007-0.334-0.068-0.659-0.19-0.963c-0.352-0.894-1.434-1.384-2.456-1.163
				c-0.393,0.084-0.814,0.138-1.276,0.155c-0.008,0-0.008,0-0.016,0.001c-1.063,0.036-1.991,0.736-2.095,1.698
				c-0.012,0.09-0.014,0.181-0.017,0.273C14.873,24.471,16.906,24.471,18.914,24.735z"/>
		</g>
		<g>
			<path class="st3" d="M21.458,21.662c-1.133-1.513-3.198-2.596-5.565-2.591c-2.357-0.005-4.413,1.063-5.551,2.561
				c1.302,0.168,3.232-0.124,5.626-0.116C18.201,21.518,20.123,21.794,21.458,21.662z"/>
		</g>
	</g>
</g>
</svg>
