<?xml version="1.0" encoding="utf-8"?>
<!-- Generator: Adobe Illustrator 21.1.0, SVG Export Plug-In . SVG Version: 6.00 Build 0)  -->
<svg version="1.1" id="Layer_1" xmlns="http://www.w3.org/2000/svg" xmlns:xlink="http://www.w3.org/1999/xlink" x="0px" y="0px"
	 viewBox="0 0 32 32" style="enable-background:new 0 0 32 32;" xml:space="preserve">
<style type="text/css">
	.st0{fill:#FFD93B;}
	.st1{fill:#3E4347;}
	.st2{fill:#F4C534;}
	.st3{fill:#FFFFFF;}
	.st4{fill:#E24B4B;}
	.st5{opacity:0.2;}
	.st6{opacity:0.3;}
	.st7{fill:#5A5F63;}
	.st8{fill:#D03F3F;}
	.st9{fill:#E9EFF4;}
	.st10{fill:#DEE4E9;}
	.st11{fill:#777B7E;}
	.st12{fill:#45CBEA;}
	.st13{fill:#E84D88;}
	.st14{opacity:0.25;}
	.st15{fill:#E9B02C;}
	.st16{fill:none;stroke:#E9B02C;stroke-width:2;stroke-linecap:round;stroke-linejoin:round;stroke-miterlimit:10;}
	.st17{fill:#65B1EF;}
	.st18{fill:#F29A2E;}
	.st19{fill:#59A5E0;}
	.st20{fill:#4E99D2;}
	.st21{opacity:0.15;}
	.st22{fill:#8CC63E;}
	.st23{opacity:0.25;fill:#FFFFFF;}
	.st24{fill:#38C0DC;}
	.st25{fill:#D23F77;}
	.st26{fill:#DAE5EF;}
	.st27{fill:#373C3F;}
	.st28{fill:#BF3333;}
	.st29{opacity:0.2;fill:#FFFFFF;}
	.st30{opacity:0.3;fill:#FFFFFF;}
	.st31{fill:#7FB239;}
</style>
<g>
	<g>
		<g>
			<g>
				<g>
					<g>
						<g>
							<g>
								<g>
									<g>
										<g>
											<g>
												<g>
													<g>
														<g>
															<g>
																<g>
																	<g>
																		<g>
																			<g>
																				<g>
																					<g>
																						<g>
																							<g>
																								<g>
																									<circle class="st0" cx="16" cy="16" r="16"/>
																								</g>
																							</g>
																						</g>
																					</g>
																				</g>
																				<g>
																					<g>
																						<g>
																							<g>
																								<g>
																									<path class="st2" d="M32,16c0,8.84-7.165,16-16,16c-5.03,0-9.52-2.32-12.455-5.955
																										c2.745,2.22,6.24,3.545,10.045,3.545c8.835,0,16-7.16,16-16c0-3.805-1.325-7.3-3.545-10.045
																										C29.675,6.48,32,10.97,32,16z"/>
																								</g>
																							</g>
																						</g>
																					</g>
																				</g>
																			</g>
																		</g>
																	</g>
																</g>
															</g>
														</g>
													</g>
												</g>
											</g>
										</g>
									</g>
								</g>
							</g>
						</g>
					</g>
				</g>
			</g>
		</g>
	</g>
	<g>
		<g>
			<g>
				<g>
					<g>
						<g>
							<g>
								<g>
									<g>
										<g>
											<g>
												<ellipse class="st1" cx="21.39" cy="11.466" rx="2.55" ry="2.547"/>
											</g>
											<g>
												
													<ellipse transform="matrix(0.699 -0.7151 0.7151 0.699 -0.7852 19.1824)" class="st7" cx="22.394" cy="10.524" rx="0.47" ry="0.657"/>
											</g>
										</g>
									</g>
								</g>
							</g>
							<g>
								<g>
									<g>
										<g>
											<g>
												<ellipse class="st1" cx="10.61" cy="11.466" rx="2.55" ry="2.547"/>
											</g>
											<g>
												
													<ellipse transform="matrix(0.7151 -0.699 0.699 0.7151 -4.6198 9.7131)" class="st7" cx="9.606" cy="10.524" rx="0.657" ry="0.47"/>
											</g>
										</g>
									</g>
								</g>
							</g>
						</g>
					</g>
				</g>
			</g>
		</g>
	</g>
	<g>
		<g>
			<g>
				<path class="st1" d="M23.253,21.678c0,0.307-0.247,0.547-0.547,0.547H9.293c-0.307,0-0.547-0.24-0.547-0.547
					c0-0.3,0.24-0.547,0.547-0.547h13.413C23.007,21.132,23.253,21.378,23.253,21.678z"/>
			</g>
			<g>
				<g>
					<g>
						<path class="st1" d="M10.09,19.4L10.09,19.4c-0.363,0-0.657,0.294-0.657,0.657v1.622h1.313v-1.622
							C10.747,19.694,10.453,19.4,10.09,19.4z"/>
					</g>
					<g>
						<path class="st1" d="M12.06,21.678h-1.313V23.3c0,0.363,0.294,0.657,0.657,0.657l0,0c0.363,0,0.657-0.294,0.657-0.657V21.678z
							"/>
					</g>
				</g>
				<g>
					<g>
						<path class="st1" d="M12.717,19.4L12.717,19.4c-0.363,0-0.657,0.294-0.657,0.657v1.622h1.313v-1.622
							C13.373,19.694,13.08,19.4,12.717,19.4z"/>
					</g>
					<g>
						<path class="st1" d="M14.687,21.678h-1.313V23.3c0,0.363,0.294,0.657,0.657,0.657l0,0c0.363,0,0.657-0.294,0.657-0.657V21.678
							z"/>
					</g>
				</g>
				<g>
					<g>
						<path class="st1" d="M15.343,19.4L15.343,19.4c-0.363,0-0.657,0.294-0.657,0.657v1.622H16v-1.622
							C16,19.694,15.706,19.4,15.343,19.4z"/>
					</g>
					<g>
						<path class="st1" d="M17.313,21.678H16V23.3c0,0.363,0.294,0.657,0.657,0.657l0,0c0.363,0,0.657-0.294,0.657-0.657V21.678z"/>
					</g>
				</g>
				<g>
					<g>
						<path class="st1" d="M17.97,19.4L17.97,19.4c-0.363,0-0.657,0.294-0.657,0.657v1.622h1.313v-1.622
							C18.627,19.694,18.333,19.4,17.97,19.4z"/>
					</g>
					<g>
						<path class="st1" d="M19.94,21.678h-1.313V23.3c0,0.363,0.294,0.657,0.657,0.657l0,0c0.363,0,0.657-0.294,0.657-0.657V21.678z
							"/>
					</g>
				</g>
				<g>
					<g>
						<path class="st1" d="M20.597,19.4L20.597,19.4c-0.363,0-0.657,0.294-0.657,0.657v1.622h1.313v-1.622
							C21.253,19.694,20.959,19.4,20.597,19.4z"/>
					</g>
				</g>
			</g>
		</g>
		<g>
			<path class="st7" d="M24.505,24.714l-1.413-2.543c-0.267-0.476-0.848-0.689-1.365-0.492c-0.511,0.195-0.802,0.741-0.684,1.274
				l0.641,2.838c0.204,0.907,1.165,1.425,2.031,1.094c0.803-0.307,1.177-1.198,0.882-1.971
				C24.57,24.846,24.544,24.777,24.505,24.714z M23.51,26.35c-0.492,0.188-1.04-0.052-1.231-0.551l1.781-0.68
				C24.251,25.617,24.008,26.159,23.51,26.35z"/>
		</g>
	</g>
</g>
</svg>
