<?xml version="1.0" encoding="utf-8"?>
<!-- Generator: Adobe Illustrator 21.1.0, SVG Export Plug-In . SVG Version: 6.00 Build 0)  -->
<svg version="1.1" id="Layer_1" xmlns="http://www.w3.org/2000/svg" xmlns:xlink="http://www.w3.org/1999/xlink" x="0px" y="0px"
	 viewBox="0 0 32 32" style="enable-background:new 0 0 32 32;" xml:space="preserve">
<style type="text/css">
	.st0{fill:#FFD93B;}
	.st1{fill:#3E4347;}
	.st2{fill:#F4C534;}
	.st3{fill:#FFFFFF;}
	.st4{fill:#E24B4B;}
	.st5{opacity:0.2;}
	.st6{opacity:0.3;}
	.st7{fill:#5A5F63;}
	.st8{fill:#D03F3F;}
	.st9{fill:#E9EFF4;}
	.st10{fill:#DEE4E9;}
	.st11{fill:#777B7E;}
	.st12{fill:#45CBEA;}
	.st13{fill:#E84D88;}
	.st14{opacity:0.25;}
	.st15{fill:#E9B02C;}
	.st16{fill:none;stroke:#E9B02C;stroke-width:2;stroke-linecap:round;stroke-linejoin:round;stroke-miterlimit:10;}
	.st17{fill:#65B1EF;}
	.st18{fill:#F29A2E;}
	.st19{fill:#59A5E0;}
	.st20{fill:#4E99D2;}
	.st21{opacity:0.15;}
	.st22{fill:#8CC63E;}
	.st23{opacity:0.25;fill:#FFFFFF;}
	.st24{fill:#38C0DC;}
	.st25{fill:#D23F77;}
	.st26{fill:#DAE5EF;}
	.st27{fill:#373C3F;}
	.st28{fill:#BF3333;}
	.st29{opacity:0.2;fill:#FFFFFF;}
	.st30{opacity:0.3;fill:#FFFFFF;}
	.st31{fill:#7FB239;}
</style>
<g>
	<g>
		<g>
			<g>
				<g>
					<g>
						<g>
							<g>
								<g>
									<g>
										<g>
											<g>
												<g>
													<g>
														<g>
															<g>
																<g>
																	<g>
																		<g>
																			<g>
																				<g>
																					<g>
																						<g>
																							<circle class="st0" cx="16" cy="16" r="16"/>
																						</g>
																					</g>
																				</g>
																			</g>
																		</g>
																	</g>
																</g>
															</g>
															<g>
																<g>
																	<g>
																		<g>
																			<g>
																				<g>
																					<g>
																						<g>
																							<path class="st2" d="M32,16c0,8.84-7.165,16-16,16c-5.03,0-9.52-2.32-12.455-5.955
																								c2.745,2.22,6.24,3.545,10.045,3.545c8.835,0,16-7.16,16-16c0-3.805-1.325-7.3-3.545-10.045
																								C29.675,6.48,32,10.97,32,16z"/>
																						</g>
																					</g>
																				</g>
																			</g>
																		</g>
																	</g>
																</g>
															</g>
														</g>
													</g>
												</g>
											</g>
										</g>
									</g>
								</g>
							</g>
						</g>
					</g>
				</g>
			</g>
		</g>
	</g>
	<g>
		<g>
			<g>
				<path class="st1" d="M9.897,24.034c1.44-3.218,3.72-3.253,6.23-3.929c2.52-0.683,4.8,1.88,6.24,3.203
					c0.446,0.312,0.024,1.159-0.802,1.547c-3.622,1.397-7.244-1.219-10.866,0.536C9.873,25.875,9.451,25.141,9.897,24.034z"/>
			</g>
		</g>
	</g>
	<g>
		<g>
			<g>
				<path class="st1" d="M9.897,24.034c1.44-3.218,3.72-3.253,6.23-3.929c2.52-0.683,4.8,1.88,6.24,3.203
					c0.446,0.312,0.024,1.159-0.802,1.547c-3.622,1.397-7.244-1.219-10.866,0.536C9.873,25.875,9.451,25.141,9.897,24.034z"/>
			</g>
		</g>
	</g>
	<g>
		<path class="st4" d="M19.656,25.261c-0.077-0.653-0.396-1.607-0.744-2.045c-0.437-0.549-1.254-0.813-1.939-0.482
			c-0.262,0.131-0.546,0.224-0.847,0.269c-0.308,0.043-0.611,0.03-0.901-0.039c-1.082-0.277-2.15,0.22-2.393,1.423
			c-0.029,0.137-0.034,0.279-0.047,0.42C15.075,24.563,17.366,25.416,19.656,25.261z"/>
	</g>
	<g class="st5">
		<g>
			<g>
				
					<ellipse transform="matrix(0.4008 -0.9162 0.9162 0.4008 -10.8787 30.5756)" class="st3" cx="17.936" cy="23.605" rx="0.382" ry="0.582"/>
			</g>
		</g>
	</g>
	<g>
		<g>
			<g>
				<g>
					<g>
						<g>
							<path class="st12" d="M29.971,30.188c0.123,0.072,0.194,0.149,0.194,0.225c0,0.141-0.217,0.269-0.592,0.378
								c0.669,0.125,1.079,0.297,1.079,0.494c0,0.394-1.736,0.715-3.871,0.715c-1.525,0-2.844-0.165-3.472-0.406c0,0,0,0-0.006,0
								c-0.123,0.004-0.258,0.004-0.387,0.004c-2.141,0-3.871-0.321-3.871-0.715c0-0.209,0.487-0.398,1.261-0.526
								c-0.686-0.128-1.114-0.305-1.114-0.502c0-0.398,1.73-0.715,3.865-0.715c0.61,0,1.185,0.024,1.695,0.072
								c0.657-0.221,1.924-0.37,3.378-0.37c2.135,0,3.871,0.322,3.871,0.715C32,29.826,31.179,30.063,29.971,30.188z"/>
						</g>
					</g>
				</g>
				<g>
					<g>
						<g>
							<g>
								<path class="st12" d="M27.827,30.677c0.644-0.11,1.102-0.684,1.056-1.336c-0.214-3.049-0.706-6.173-1.838-8.972
									c-0.949-2.573-2.227-5.059-3.977-7.44c-0.411,0.315-0.919,0.534-1.519,0.622c1.184,2.587,1.872,5.122,2.23,7.662
									c0.315,1.781,0.405,4.434-0.086,7.93c-0.079,0.563,0.236,1.119,0.766,1.324C25.348,30.809,26.442,30.913,27.827,30.677z"/>
							</g>
						</g>
					</g>
					<g class="st5">
						<g>
							<g>
								<path class="st3" d="M24.626,20.909c-0.433-2.233-1.474-5.19-2.691-7.437c-0.014,0.004-0.028,0.008-0.043,0.011
									c1.144,2.292,1.935,5.027,2.437,7.487c0.669,2.971,0.686,6.022,0.417,9.122C25.27,25.786,25.031,22.7,24.626,20.909z"/>
							</g>
						</g>
					</g>
					<g class="st5">
						<g>
							<g>
								<path class="st3" d="M25.485,20.771c-0.817-3.063-2.086-5.738-3.112-7.446c-0.007,0.003-0.014,0.005-0.021,0.008
									c1.028,1.776,2.242,4.496,2.987,7.476c0.917,3.213,0.925,6.383,0.766,9.391c-0.024,0.307,0.278,0.331,0.302,0.024
									C26.52,27.164,26.368,23.69,25.485,20.771z"/>
							</g>
						</g>
					</g>
					<g class="st5">
						<g>
							<g>
								<path class="st3" d="M26.428,20.615c-0.777-2.511-2.018-5.268-3.542-7.563c-0.077,0.051-0.158,0.099-0.241,0.143
									c1.538,2.236,2.819,4.953,3.64,7.468c1.295,3.503,1.415,6.994,1.48,9.669C27.736,27.104,27.609,24.048,26.428,20.615z"/>
							</g>
						</g>
					</g>
				</g>
			</g>
			<g>
				<g>
					<g>
						<path class="st1" d="M21.308,14.081c-1.139,0-2.277-0.451-3.206-1.353c-0.264-0.257-0.27-0.678-0.014-0.943
							c0.256-0.264,0.679-0.27,0.943-0.014c1.34,1.302,3.213,1.302,4.554,0c0.264-0.257,0.686-0.25,0.943,0.014
							c0.257,0.264,0.25,0.686-0.014,0.943C23.585,13.63,22.447,14.081,21.308,14.081z"/>
					</g>
				</g>
			</g>
		</g>
		<g>
			<g>
				<g>
					<g>
						<g>
							<path class="st12" d="M2.029,30.188c-0.123,0.072-0.193,0.149-0.193,0.225c0,0.141,0.217,0.269,0.592,0.378
								c-0.668,0.125-1.079,0.297-1.079,0.494C1.349,31.678,3.085,32,5.22,32c1.525,0,2.844-0.165,3.472-0.406c0,0,0,0,0.006,0
								c0.123,0.004,0.258,0.004,0.387,0.004c2.141,0,3.871-0.321,3.871-0.715c0-0.209-0.487-0.398-1.261-0.526
								c0.686-0.128,1.114-0.305,1.114-0.502c0-0.398-1.73-0.715-3.865-0.715c-0.61,0-1.185,0.024-1.695,0.072
								c-0.657-0.221-1.924-0.37-3.378-0.37C1.736,28.841,0,29.163,0,29.557C0,29.826,0.821,30.063,2.029,30.188z"/>
						</g>
					</g>
				</g>
				<g>
					<g>
						<g>
							<g>
								<path class="st12" d="M4.21,30.423c-0.635-0.108-1.086-0.674-1.041-1.317c0.211-3.005,0.696-6.085,1.812-8.844
									c0.935-2.536,2.195-4.987,3.921-7.334c0.405,0.31,0.905,0.526,1.497,0.614c-1.167,2.55-1.845,5.049-2.198,7.553
									c-0.31,1.756-0.399,4.37,0.085,7.816c0.078,0.555-0.233,1.103-0.755,1.305C6.654,30.554,5.576,30.656,4.21,30.423z"/>
							</g>
						</g>
					</g>
					<g class="st5">
						<g>
							<g>
								<path class="st3" d="M7.365,20.795c0.426-2.201,1.453-5.116,2.652-7.331c0.014,0.004,0.028,0.008,0.042,0.011
									c-1.127,2.259-1.908,4.955-2.402,7.38c-0.66,2.929-0.676,5.936-0.411,8.992C6.731,25.603,6.967,22.561,7.365,20.795z"/>
							</g>
						</g>
					</g>
					<g class="st5">
						<g>
							<g>
								<path class="st3" d="M6.519,20.659c0.805-3.019,2.057-5.656,3.068-7.339c0.007,0.003,0.014,0.005,0.021,0.008
									c-1.014,1.751-2.21,4.432-2.944,7.369c-0.904,3.167-0.911,6.292-0.755,9.257c0.018,0.224-0.28,0.247-0.298,0.024
									C5.499,26.961,5.649,23.537,6.519,20.659z"/>
							</g>
						</g>
					</g>
					<g class="st5">
						<g>
							<g>
								<path class="st3" d="M5.589,20.505c0.766-2.475,1.989-5.192,3.492-7.455c0.076,0.05,0.155,0.097,0.238,0.141
									c-1.516,2.205-2.778,4.882-3.588,7.362c-1.277,3.452-1.395,6.894-1.459,9.531C4.3,26.902,4.425,23.889,5.589,20.505z"/>
							</g>
						</g>
					</g>
				</g>
			</g>
			<g>
				<g>
					<g>
						<path class="st1" d="M10.692,14.081c-1.139,0-2.277-0.451-3.206-1.353c-0.264-0.257-0.27-0.678-0.014-0.943
							c0.256-0.264,0.678-0.27,0.943-0.014c1.34,1.302,3.213,1.302,4.554,0c0.264-0.257,0.686-0.25,0.943,0.014
							c0.256,0.264,0.25,0.686-0.014,0.943C12.969,13.63,11.83,14.081,10.692,14.081z"/>
					</g>
				</g>
			</g>
		</g>
	</g>
	<g>
		<g>
			<g>
				<g>
					<path class="st15" d="M18.501,6.532c-0.138-0.341,0.026-0.73,0.368-0.868c0.341-0.138,0.73,0.026,0.868,0.367
						c1.301,3.211,4.712,2.721,4.855,2.699c0.36-0.055,0.704,0.193,0.761,0.557c0.056,0.364-0.193,0.704-0.557,0.761
						C22.823,10.352,19.746,9.605,18.501,6.532z"/>
				</g>
			</g>
		</g>
		<g>
			<g>
				<g>
					<path class="st15" d="M7.204,10.048C6.84,9.992,6.591,9.651,6.647,9.287c0.057-0.363,0.397-0.613,0.76-0.557
						c0.152,0.022,3.566,0.487,4.857-2.699c0.139-0.341,0.527-0.505,0.868-0.367c0.341,0.138,0.506,0.527,0.367,0.868
						C12.338,9.396,9.442,10.393,7.204,10.048z"/>
				</g>
			</g>
		</g>
	</g>
	<g>
		<g>
			<g>
				<g>
					<path class="st12" d="M28.192,14.305c0.464,0.46,0.468,1.209,0.008,1.674c-0.46,0.464-1.209,0.468-1.674,0.008
						c-0.465-0.46-0.882-2.538-0.882-2.538S27.727,13.845,28.192,14.305z"/>
				</g>
			</g>
		</g>
		<g class="st5">
			<g>
				<g>
					
						<ellipse transform="matrix(0.9826 -0.1858 0.1858 0.9826 -2.3177 5.456)" class="st3" cx="27.943" cy="15.09" rx="0.234" ry="0.37"/>
				</g>
			</g>
		</g>
	</g>
	<g>
		<g>
			<g>
				<g>
					<path class="st12" d="M30.13,18.823c0.203,0.621-0.136,1.29-0.757,1.493c-0.621,0.203-1.29-0.136-1.493-0.757
						c-0.203-0.621,0.375-2.661,0.375-2.661S29.926,18.202,30.13,18.823z"/>
				</g>
			</g>
		</g>
		<g class="st5">
			<g>
				<g>
					
						<ellipse transform="matrix(0.2832 -0.9591 0.9591 0.2832 2.5667 42.2515)" class="st3" cx="29.55" cy="19.409" rx="0.37" ry="0.234"/>
				</g>
			</g>
		</g>
	</g>
	<g>
		<g>
			<g>
				<g>
					<path class="st12" d="M4.305,14.321c-0.413,0.507-0.336,1.252,0.171,1.665c0.507,0.413,1.252,0.336,1.665-0.171
						c0.413-0.507,0.605-2.618,0.605-2.618S4.718,13.814,4.305,14.321z"/>
				</g>
			</g>
		</g>
		<g class="st5">
			<g>
				<g>
					
						<ellipse transform="matrix(0.0799 -0.9968 0.9968 0.0799 -10.7611 18.4929)" class="st3" cx="4.636" cy="15.075" rx="0.37" ry="0.233"/>
				</g>
			</g>
		</g>
	</g>
	<g>
		<g>
			<g>
				<g>
					<path class="st12" d="M1.601,20.459c-0.075,0.649,0.39,1.237,1.04,1.312c0.649,0.075,1.237-0.39,1.312-1.04
						c0.075-0.649-0.898-2.532-0.898-2.532S1.676,19.809,1.601,20.459z"/>
				</g>
			</g>
		</g>
		<g class="st5">
			<g>
				<g>
					
						<ellipse transform="matrix(0.8832 -0.4691 0.4691 0.8832 -9.5445 3.5165)" class="st3" cx="2.286" cy="20.916" rx="0.234" ry="0.37"/>
				</g>
			</g>
		</g>
	</g>
</g>
</svg>
