<?xml version="1.0" encoding="utf-8"?>
<!-- Generator: Adobe Illustrator 21.1.0, SVG Export Plug-In . SVG Version: 6.00 Build 0)  -->
<svg version="1.1" id="Layer_1" xmlns="http://www.w3.org/2000/svg" xmlns:xlink="http://www.w3.org/1999/xlink" x="0px" y="0px"
	 viewBox="0 0 32 32" style="enable-background:new 0 0 32 32;" xml:space="preserve">
<style type="text/css">
	.st0{fill:#FFD93B;}
	.st1{fill:#3E4347;}
	.st2{fill:#F4C534;}
	.st3{fill:#FFFFFF;}
	.st4{fill:#E24B4B;}
	.st5{opacity:0.2;}
	.st6{opacity:0.3;}
	.st7{fill:#5A5F63;}
	.st8{fill:#D03F3F;}
	.st9{fill:#E9EFF4;}
	.st10{fill:#DEE4E9;}
	.st11{fill:#777B7E;}
	.st12{fill:#45CBEA;}
	.st13{fill:#E84D88;}
	.st14{opacity:0.25;}
	.st15{fill:#E9B02C;}
	.st16{fill:none;stroke:#E9B02C;stroke-width:2;stroke-linecap:round;stroke-linejoin:round;stroke-miterlimit:10;}
	.st17{fill:#65B1EF;}
	.st18{fill:#F29A2E;}
	.st19{fill:#59A5E0;}
	.st20{fill:#4E99D2;}
	.st21{opacity:0.15;}
	.st22{fill:#8CC63E;}
	.st23{opacity:0.25;fill:#FFFFFF;}
	.st24{fill:#38C0DC;}
	.st25{fill:#D23F77;}
	.st26{fill:#DAE5EF;}
	.st27{fill:#373C3F;}
	.st28{fill:#BF3333;}
	.st29{opacity:0.2;fill:#FFFFFF;}
	.st30{opacity:0.3;fill:#FFFFFF;}
	.st31{fill:#7FB239;}
</style>
<g>
	<g>
		<g>
			<g>
				<g>
					<g>
						<g>
							<g>
								<g>
									<g>
										<g>
											<g>
												<g>
													<g>
														<g>
															<g>
																<g>
																	<path class="st0" d="M32,16c0,8.84-7.17,16-16,16C7.16,32,0,24.84,0,16C0,7.17,7.16,0,16,0C24.83,0,32,7.17,32,16z
																		"/>
																</g>
															</g>
														</g>
													</g>
												</g>
												<g>
													<g>
														<g>
															<g>
																<g>
																	<path class="st2" d="M32,16c0,8.84-7.17,16-16,16c-5.04,0-9.54-2.33-12.46-5.97c2.74,2.2,6.21,3.51,10,3.51
																		c8.83,0,16-7.16,16-16c0-3.79-1.31-7.26-3.52-10C29.67,6.47,32,10.96,32,16z"/>
																</g>
															</g>
														</g>
													</g>
												</g>
											</g>
										</g>
									</g>
								</g>
							</g>
						</g>
					</g>
				</g>
			</g>
		</g>
		<g>
			<g>
				<g>
					<g>
						<path class="st3" d="M27.829,14.31c-0.001,0.006-0.001,0.011-0.002,0.016c-0.297,2.409-2.207,4.562-5.697,4.298
							c-0.663-0.05-1.761-0.218-2.826-1.176c-1.86-1.671-2.939-6.064,0.853-7.26c1.4-0.442,3.144-0.51,4.616-0.201
							C26.758,10.403,28.077,12.297,27.829,14.31z"/>
					</g>
					<g>
						<path class="st4" d="M16.142,11.711c0.299,0.013,0.516,0.285,0.471,0.581c-0.002,0.014-0.004,0.028-0.006,0.041
							c-0.493,3.747,2.002,5.9,2.002,5.9c2.125,1.84,4.743,1.423,5.218,1.338c0.493-0.085,2.362-0.446,3.69-2.087
							c1.281-1.594,1.395-3.586,1.357-4.013c-0.01-0.209,0-0.351,0.019-0.645c0.038-0.55,0.114-0.674,0.199-0.74
							c0.133-0.114,0.237-0.047,0.417-0.161h0.01c0.123-0.085,0.19-0.228,0.19-0.379v-1.214c0-0.18-0.104-0.341-0.275-0.417
							c-1.461-0.645-2.78-0.996-3.795-1.186C23.523,8.342,21.5,8.159,19.265,9.14c-1.023,0.449-2.13,0.665-3.247,0.66
							c-0.006,0-0.012,0-0.018,0c-0.009,0-0.017,0-0.026,0c-1.11,0.007-2.213-0.208-3.229-0.656
							c-2.181-0.961-4.179-0.816-6.374-0.416c-1.025,0.19-2.334,0.541-3.804,1.186c-0.161,0.076-0.275,0.237-0.275,0.417v1.214
							c0,0.152,0.076,0.294,0.199,0.379c0.18,0.114,0.294,0.047,0.427,0.161c0.076,0.066,0.161,0.19,0.199,0.74
							c0.019,0.294,0.028,0.436,0.009,0.645c-0.038,0.427,0.076,2.419,1.366,4.013c1.318,1.641,3.187,2.002,3.69,2.087
							c0.474,0.085,3.083,0.503,5.218-1.338c0,0,2.495-2.153,1.992-5.9c-0.002-0.014-0.004-0.027-0.006-0.041
							c-0.04-0.281,0.157-0.543,0.439-0.572C15.932,11.71,16.037,11.707,16.142,11.711z M12.699,17.446
							c-1.063,0.958-2.163,1.129-2.817,1.176c-3.491,0.266-5.407-1.888-5.701-4.297c0,0,0-0.009,0-0.019
							c-0.247-2.011,1.072-3.899,3.055-4.316c1.47-0.313,3.216-0.247,4.62,0.199C15.639,11.384,14.558,15.776,12.699,17.446z
							 M27.83,14.306c0,0.01,0,0.019,0,0.019c-0.304,2.41-2.21,4.563-5.701,4.297c-0.664-0.047-1.755-0.218-2.827-1.176
							c-1.859-1.67-2.941-6.062,0.854-7.257c1.404-0.446,3.149-0.512,4.62-0.199C26.758,10.407,28.076,12.295,27.83,14.306z"/>
					</g>
				</g>
				<g>
					<g>
						<path class="st3" d="M7.234,9.988c1.472-0.309,3.216-0.241,4.616,0.201c3.792,1.196,2.713,5.589,0.853,7.26
							c-1.065,0.958-2.163,1.126-2.826,1.176c-3.49,0.264-5.4-1.889-5.697-4.298c-0.001-0.005-0.001-0.011-0.002-0.016
							C3.93,12.297,5.249,10.403,7.234,9.988z"/>
					</g>
				</g>
			</g>
			<g>
				<g>
					<circle class="st1" cx="10.643" cy="14.222" r="2.518"/>
					<g>
						<path class="st7" d="M12.072,13.871c-0.192,0.114-0.486-0.028-0.661-0.32c-0.184-0.292-0.178-0.626,0.014-0.74
							c0.192-0.114,0.486,0.028,0.67,0.319C12.27,13.422,12.264,13.757,12.072,13.871z"/>
					</g>
				</g>
				<g>
					<circle class="st1" cx="21.358" cy="14.222" r="2.518"/>
					<g>
						<path class="st7" d="M22.787,13.871c-0.192,0.114-0.486-0.028-0.661-0.32c-0.184-0.292-0.178-0.626,0.014-0.74
							c0.192-0.114,0.486,0.028,0.67,0.319C22.985,13.422,22.979,13.757,22.787,13.871z"/>
					</g>
				</g>
			</g>
		</g>
		<g>
			<path class="st1" d="M10.067,21.517c-0.64-0.271-1.256,0.428-0.897,1.024c1.183,1.966,3.93,3.344,7.136,3.344
				c3.205,0,5.952-1.378,7.136-3.344c0.359-0.596-0.257-1.295-0.898-1.024C18.385,23.279,14.226,23.279,10.067,21.517z"/>
		</g>
		<g>
			<g>
				<path class="st3" d="M14.102,22.653v1.45c0,0.442,0.357,0.798,0.798,0.798h0.904c0.187,0,0.34-0.153,0.34-0.348V22.83
					C15.463,22.822,14.783,22.755,14.102,22.653z"/>
				<path class="st3" d="M16.806,24.902h0.904c0.442,0,0.798-0.357,0.798-0.798v-1.45c-0.681,0.102-1.361,0.169-2.042,0.176v1.724
					C16.466,24.749,16.619,24.902,16.806,24.902z"/>
			</g>
		</g>
	</g>
</g>
</svg>
