<?xml version="1.0" encoding="utf-8"?>
<!-- Generator: Adobe Illustrator 21.1.0, SVG Export Plug-In . SVG Version: 6.00 Build 0)  -->
<svg version="1.1" id="Layer_1" xmlns="http://www.w3.org/2000/svg" xmlns:xlink="http://www.w3.org/1999/xlink" x="0px" y="0px"
	 viewBox="0 0 32 32" style="enable-background:new 0 0 32 32;" xml:space="preserve">
<style type="text/css">
	.st0{fill:#FFD93B;}
	.st1{fill:#3E4347;}
	.st2{fill:#F4C534;}
	.st3{fill:#FFFFFF;}
	.st4{fill:#E24B4B;}
	.st5{opacity:0.2;}
	.st6{opacity:0.3;}
	.st7{fill:#5A5F63;}
	.st8{fill:#D03F3F;}
	.st9{fill:#E9EFF4;}
	.st10{fill:#DEE4E9;}
	.st11{fill:#777B7E;}
	.st12{fill:#45CBEA;}
	.st13{fill:#E84D88;}
	.st14{opacity:0.25;}
	.st15{fill:#E9B02C;}
	.st16{fill:none;stroke:#E9B02C;stroke-width:2;stroke-linecap:round;stroke-linejoin:round;stroke-miterlimit:10;}
	.st17{fill:#65B1EF;}
	.st18{fill:#F29A2E;}
	.st19{fill:#59A5E0;}
	.st20{fill:#4E99D2;}
	.st21{opacity:0.15;}
	.st22{fill:#8CC63E;}
	.st23{opacity:0.25;fill:#FFFFFF;}
	.st24{fill:#38C0DC;}
	.st25{fill:#D23F77;}
	.st26{fill:#DAE5EF;}
	.st27{fill:#373C3F;}
	.st28{fill:#BF3333;}
	.st29{opacity:0.2;fill:#FFFFFF;}
	.st30{opacity:0.3;fill:#FFFFFF;}
	.st31{fill:#7FB239;}
</style>
<g>
	<g>
		<g>
			<path class="st17" d="M2.878,4.764c-0.414,0-0.75-0.341-0.75-0.755c0-2.947,8.719-3.734,13.872-3.734
				c5.152,0,13.872,0.787,13.872,3.734c0,0.414-0.336,0.75-0.75,0.75c-0.414,0-0.75-0.336-0.75-0.75
				C28.169,3.236,23.741,1.775,16,1.775c-7.744,0-12.171,1.461-12.373,2.244C3.627,4.433,3.292,4.764,2.878,4.764z"/>
		</g>
	</g>
	<g>
		<g>
			<g>
				<g>
					<g>
						<g>
							<g>
								<g>
									<g>
										<g>
											<g>
												<g>
													<g>
														<g>
															<path class="st0" d="M32,16c0,8.84-7.17,16-16,16C7.16,32,0,24.84,0,16C0,7.17,7.16,0,16,0C24.83,0,32,7.17,32,16z"
																/>
														</g>
													</g>
												</g>
											</g>
										</g>
										<g>
											<g>
												<g>
													<g>
														<g>
															<g>
																<path class="st1" d="M16,26.599c-4.198,0-8.03-2.637-9.536-6.562c-0.164-0.429,0.05-0.909,0.478-1.073
																	c0.428-0.165,0.909,0.049,1.073,0.478c1.281,3.338,4.415,5.495,7.985,5.495c3.512,0,6.721-2.208,7.984-5.495
																	c0.165-0.429,0.648-0.641,1.074-0.478c0.429,0.165,0.642,0.646,0.478,1.074C24.027,23.962,20.195,26.599,16,26.599z
																	"/>
															</g>
														</g>
													</g>
												</g>
											</g>
										</g>
										<g>
											<g>
												<g>
													<g>
														<g>
															<path class="st2" d="M32,16c0,8.84-7.17,16-16,16c-5.04,0-9.54-2.33-12.46-5.97c2.74,2.2,6.21,3.51,10,3.51
																c8.83,0,16-7.16,16-16c0-3.79-1.31-7.26-3.52-10C29.67,6.47,32,10.96,32,16z"/>
														</g>
													</g>
												</g>
											</g>
										</g>
									</g>
								</g>
							</g>
						</g>
					</g>
				</g>
			</g>
		</g>
	</g>
	<g>
		<g>
			<g>
				<g>
					<g>
						<g>
							<g>
								<path class="st17" d="M16,7.743c-5.152,0-13.872-0.787-13.872-3.734c0-0.414,0.336-0.75,0.75-0.75
									c0.414,0,0.75,0.336,0.75,0.75C3.827,4.783,8.251,6.243,16,6.243c7.746,0,12.172-1.461,12.373-2.244
									c0-0.414,0.335-0.745,0.749-0.745c0.414,0,0.75,0.341,0.75,0.755C29.872,6.956,21.152,7.743,16,7.743z"/>
							</g>
						</g>
					</g>
				</g>
			</g>
		</g>
	</g>
	<g>
		<g>
			<g>
				<g>
					<path class="st1" d="M13.515,13.419c0,1.523-1.228,2.75-2.75,2.75c-1.513,0-2.75-1.228-2.75-2.75s1.237-2.75,2.75-2.75
						C12.287,10.669,13.515,11.896,13.515,13.419z"/>
				</g>
			</g>
			<g>
				<g>
					
						<ellipse transform="matrix(0.7857 -0.6187 0.6187 0.7857 -5.0523 10.0218)" class="st7" cx="11.937" cy="12.302" rx="0.455" ry="0.626"/>
				</g>
			</g>
		</g>
		<g>
			<g>
				<g>
					<path class="st1" d="M23.986,13.419c0,1.523-1.228,2.75-2.75,2.75c-1.513,0-2.75-1.228-2.75-2.75s1.237-2.75,2.75-2.75
						C22.758,10.669,23.986,11.896,23.986,13.419z"/>
				</g>
			</g>
			<g>
				<g>
					
						<ellipse transform="matrix(0.7856 -0.6187 0.6187 0.7856 -2.8075 16.5017)" class="st7" cx="22.408" cy="12.302" rx="0.455" ry="0.626"/>
				</g>
			</g>
		</g>
	</g>
</g>
</svg>
