<?xml version="1.0" encoding="utf-8"?>
<!-- Generator: Adobe Illustrator 21.1.0, SVG Export Plug-In . SVG Version: 6.00 Build 0)  -->
<svg version="1.1" id="Layer_1" xmlns="http://www.w3.org/2000/svg" xmlns:xlink="http://www.w3.org/1999/xlink" x="0px" y="0px"
	 viewBox="0 0 32 32" style="enable-background:new 0 0 32 32;" xml:space="preserve">
<style type="text/css">
	.st0{fill:#FFD93B;}
	.st1{fill:#3E4347;}
	.st2{fill:#F4C534;}
	.st3{fill:#FFFFFF;}
	.st4{fill:#E24B4B;}
	.st5{opacity:0.2;}
	.st6{opacity:0.3;}
	.st7{fill:#5A5F63;}
	.st8{fill:#D03F3F;}
	.st9{fill:#E9EFF4;}
	.st10{fill:#DEE4E9;}
	.st11{fill:#777B7E;}
	.st12{fill:#45CBEA;}
	.st13{fill:#E84D88;}
	.st14{opacity:0.25;}
	.st15{fill:#E9B02C;}
	.st16{fill:none;stroke:#E9B02C;stroke-width:2;stroke-linecap:round;stroke-linejoin:round;stroke-miterlimit:10;}
	.st17{fill:#65B1EF;}
	.st18{fill:#F29A2E;}
	.st19{fill:#59A5E0;}
	.st20{fill:#4E99D2;}
	.st21{opacity:0.15;}
	.st22{fill:#8CC63E;}
	.st23{opacity:0.25;fill:#FFFFFF;}
	.st24{fill:#38C0DC;}
	.st25{fill:#D23F77;}
	.st26{fill:#DAE5EF;}
	.st27{fill:#373C3F;}
	.st28{fill:#BF3333;}
	.st29{opacity:0.2;fill:#FFFFFF;}
	.st30{opacity:0.3;fill:#FFFFFF;}
	.st31{fill:#7FB239;}
</style>
<g>
	<g>
		<g>
			<g>
				<g>
					<g>
						<g>
							<g>
								<g>
									<g>
										<g>
											<g>
												<path class="st0" d="M32,16c0,8.84-7.17,16-16,16C7.16,32,0,24.84,0,16C0,7.17,7.16,0,16,0C24.83,0,32,7.17,32,16z"/>
											</g>
										</g>
									</g>
								</g>
								<g>
									<g>
										<g>
											<g>
												<path class="st2" d="M32,16c0,8.84-7.17,16-16,16c-5.04,0-9.54-2.33-12.46-5.97c2.74,2.2,6.21,3.51,10,3.51
													c8.83,0,16-7.16,16-16c0-3.79-1.31-7.26-3.52-10C29.67,6.47,32,10.96,32,16z"/>
											</g>
										</g>
									</g>
								</g>
							</g>
						</g>
					</g>
				</g>
			</g>
		</g>
		<g>
			<g>
				<path class="st1" d="M16.012,25.158c-1.311-0.033-1.886-0.766-2.307-1.301c-0.348-0.442-0.533-0.657-0.953-0.716
					c-0.464-0.087-0.733,0.059-1.216,0.347c-0.596,0.354-1.412,0.84-2.64,0.431c-1.079-0.428-1.448-1.157-1.693-1.883
					c-0.133-0.392,0.078-0.818,0.471-0.95c0.393-0.132,0.818,0.078,0.95,0.471c0.173,0.512,0.328,0.771,0.787,0.954
					c0.512,0.169,0.803,0.019,1.358-0.311c0.546-0.326,1.228-0.729,2.229-0.537c0.998,0.139,1.512,0.792,1.886,1.268
					c0.389,0.495,0.583,0.714,1.127,0.729c0.506-0.014,0.701-0.234,1.091-0.729c0.375-0.476,0.889-1.128,1.925-1.272
					c0.967-0.188,1.647,0.22,2.193,0.544c0.556,0.331,0.847,0.479,1.4,0.296c0.427-0.169,0.577-0.419,0.756-0.945
					c0.134-0.392,0.559-0.601,0.952-0.468c0.392,0.134,0.602,0.56,0.468,0.952c-0.167,0.49-0.478,1.403-1.663,1.87
					c-1.266,0.425-2.084-0.061-2.68-0.417c-0.484-0.289-0.757-0.437-1.182-0.354c-0.457,0.064-0.643,0.279-0.991,0.721
					C17.86,24.393,17.283,25.125,16.012,25.158z"/>
			</g>
		</g>
		<g>
			<g>
				<g>
					<g>
						<g>
							<path class="st1" d="M25.37,15.988l-6.657-1.475c-0.295-0.065-0.522-0.301-0.576-0.599c-0.054-0.297,0.076-0.598,0.329-0.763
								l3.827-2.488c0.347-0.226,0.812-0.128,1.038,0.22c0.226,0.347,0.127,0.812-0.22,1.038l-2.329,1.514l4.912,1.088
								c0.405,0.09,0.66,0.49,0.57,0.895C26.177,15.812,25.788,16.077,25.37,15.988z"/>
						</g>
					</g>
				</g>
			</g>
			<g>
				<g>
					<g>
						<g>
							<path class="st1" d="M5.736,15.417c-0.089-0.404,0.165-0.805,0.57-0.895l4.912-1.088l-2.329-1.514
								c-0.347-0.226-0.446-0.69-0.22-1.038c0.227-0.348,0.691-0.446,1.038-0.22l3.827,2.488c0.253,0.164,0.383,0.465,0.329,0.763
								c-0.054,0.297-0.281,0.533-0.576,0.599L6.63,15.988C6.213,16.077,5.823,15.812,5.736,15.417z"/>
						</g>
					</g>
				</g>
			</g>
		</g>
		<g>
			<g>
				<g>
					<path class="st15" d="M24.135,9.773c-5.165-0.399-6.813-2.989-6.673-4.781c0.032-0.414,0.396-0.728,0.806-0.689
						c0.41,0.032,0.716,0.387,0.69,0.796c-0.005,0.137-0.037,2.766,5.293,3.179c0.413,0.032,0.722,0.393,0.689,0.806
						C24.908,9.511,24.525,9.811,24.135,9.773z"/>
				</g>
			</g>
			<g>
				<g>
					<path class="st15" d="M7.06,9.083C7.028,8.67,7.337,8.309,7.749,8.278c5.356-0.415,5.298-3.068,5.293-3.18
						c-0.018-0.409,0.295-0.764,0.703-0.789c0.413-0.024,0.762,0.276,0.793,0.684c0.141,1.804-1.512,4.382-6.673,4.781
						C7.475,9.811,7.093,9.511,7.06,9.083z"/>
				</g>
			</g>
		</g>
	</g>
	<g>
		<g>
			<g>
				<path class="st9" d="M13.173,16.162C9.438,18.185,2.993,20.803,0,19.649c0.657,1.394-0.135,1.694,0.24,3.223
					c0.362,1.559,1.354,1.153,1.942,2.551c0.682,1.369-0.634,1.963,0.181,3.272c1.036,1.248,2.505,0.498,4.133,1.3
					c1.905,0.65,0.348,1.696,2.896,2.004c2.879,0.05,4.311-1.185,7.549-2.089c-0.529-3.097-0.607-8.574-0.707-12.166
					C16.197,16.447,14.344,15.527,13.173,16.162z"/>
			</g>
		</g>
		<g>
			<path class="st10" d="M0.199,21.38c3.392,0.797,10.373-3.015,13.802-5.421c-0.285,0.004-0.568,0.061-0.828,0.202
				c-1.654,0.896-3.838,1.907-6.02,2.657c-2.221,0.837-4.563,1.409-6.439,1.019C0.461,19.792,0.219,19.733,0,19.649
				C0.309,20.306,0.299,20.747,0.199,21.38z"/>
			<path class="st10" d="M14.816,16.115c-0.067-0.026-0.132-0.058-0.201-0.078C12,18.865,6.164,24.014,1.917,24.943
				c0.32,0.457,0.532,1.066,0.428,1.634C7.094,24.911,12.492,19.161,14.816,16.115z"/>
			<path class="st10" d="M7.106,30.287c4.204-3.812,7.171-10.427,8.336-13.86c-0.061-0.04-0.122-0.08-0.189-0.113
				c-1.539,3.377-5.38,9.961-10.282,13.274C5.902,29.692,6.724,30.027,7.106,30.287z"/>
			<path class="st10" d="M16.234,17.768c0-0.009,0-0.017-0.001-0.025c-0.009-0.304-0.114-0.585-0.28-0.83
				c-0.283,3.66-1.155,10.186-2.253,14.139c2.316-0.905,2.006-0.757,3.24-1.143C16.401,26.769,16.319,20.81,16.234,17.768z"/>
		</g>
	</g>
</g>
</svg>
