<?xml version="1.0" encoding="utf-8"?>
<!-- Generator: Adobe Illustrator 21.1.0, SVG Export Plug-In . SVG Version: 6.00 Build 0)  -->
<svg version="1.1" id="Layer_1" xmlns="http://www.w3.org/2000/svg" xmlns:xlink="http://www.w3.org/1999/xlink" x="0px" y="0px"
	 viewBox="0 0 32 32" style="enable-background:new 0 0 32 32;" xml:space="preserve">
<style type="text/css">
	.st0{fill:#FFD93B;}
	.st1{fill:#3E4347;}
	.st2{fill:#F4C534;}
	.st3{fill:#38C0DC;}
	.st4{fill:#45CBEA;}
	.st5{fill:#FFFFFF;}
	.st6{fill:#E24B4B;}
	.st7{fill:#5A5F63;}
	.st8{opacity:0.3;}
	.st9{opacity:0.2;}
	.st10{opacity:0.1;}
	.st11{fill:#E9B02C;}
	.st12{fill:#65B1EF;}
	.st13{fill:#E9EFF4;}
	.st14{fill:#8CC63E;}
	.st15{fill:#7FB239;}
	.st16{fill:#D03F3F;}
	.st17{fill:#D23F77;}
	.st18{fill:#E84D88;}
	.st19{fill:#59A5E0;}
	.st20{fill:#DEE4E9;}
	.st21{fill:#D3D9DD;}
	.st22{opacity:0.25;fill:#FFFFFF;}
	.st23{fill:#9A795F;}
	.st24{fill:#F29A2E;}
	.st25{fill:#FC97B2;}
	.st26{fill:#89664C;}
	.st27{fill:#7A5B44;}
	.st28{opacity:0.2;fill:#FFFFFF;}
	.st29{fill:#4E99D2;}
	.st30{fill:#BBC7D1;}
	.st31{fill:#DE9C25;}
</style>
<g>
	<circle class="st0" cx="16" cy="16" r="16"/>
	<path class="st1" d="M26.619,21.047c-2.306,4.478-6.204,7.424-10.618,7.424c-4.425,0-8.322-2.958-10.639-7.448
		c-0.439-0.872,0.264-1.909,1.164-1.673c6.335,1.603,12.649,1.638,18.929,0.012C26.356,19.138,27.069,20.175,26.619,21.047z"/>
	<path class="st2" d="M32,16c0,8.84-7.165,16-16,16c-5.03,0-9.52-2.32-12.455-5.955c2.745,2.22,6.24,3.545,10.045,3.545
		c8.835,0,16-7.16,16-16c0-3.805-1.325-7.3-3.545-10.045C29.675,6.48,32,10.97,32,16z"/>
	<path class="st5" d="M14.439,11.933c0,3.479-2.304,5.886-5.142,5.886c-2.838,0-5.133-2.406-5.133-5.886
		c0-3.479,2.295-6.712,5.133-6.712C12.135,5.221,14.439,8.454,14.439,11.933z"/>
	<path class="st1" d="M8.946,14.113v-2.128c-2.845-0.813-2.337-4.081,0-4.312V7.17h0.736v0.503c1.114,0.133,1.725,0.788,1.894,1.768
		l-1.285,0.168c-0.078-0.4-0.281-0.67-0.609-0.813v1.986c1.285,0.348,2.103,0.862,2.103,2.204c0,1.174-0.722,2.123-2.103,2.321v0.95
		H8.946v-0.924c-1.126-0.137-1.918-0.824-2.128-2.204l1.326-0.142C8.256,13.546,8.591,13.942,8.946,14.113z M8.946,8.78
		c-0.798,0.271-0.955,1.346,0,1.757V8.78z M9.683,14.184c0.506-0.094,0.858-0.502,0.858-1.016c0-0.538-0.348-0.818-0.858-0.965
		V14.184z"/>
	<path class="st1" d="M3.164,4.978c0.003-1.986,1.326-3.495,3.075-4.334c1.843-0.676,3.885-0.496,5.244,0.868
		c-1,0.042-2.359-0.219-4.611,0.655C4.556,3.231,4.164,4.052,3.164,4.978z"/>
	<path class="st5" d="M17.561,11.933c0,3.479,2.304,5.886,5.142,5.886c2.838,0,5.133-2.406,5.133-5.886
		c0-3.479-2.295-6.712-5.133-6.712C19.865,5.221,17.561,8.454,17.561,11.933z"/>
	<path class="st1" d="M22.343,14.113v-2.128c-2.845-0.813-2.337-4.081,0-4.312V7.17h0.736v0.503
		c1.114,0.133,1.725,0.788,1.894,1.768l-1.285,0.168c-0.078-0.4-0.281-0.67-0.609-0.813v1.986c1.285,0.348,2.103,0.862,2.103,2.204
		c0,1.174-0.722,2.123-2.103,2.321v0.95h-0.736v-0.924c-1.126-0.137-1.918-0.824-2.128-2.204l1.326-0.142
		C21.652,13.546,21.987,13.942,22.343,14.113z M22.343,8.78c-0.798,0.271-0.955,1.346,0,1.757V8.78z M23.079,14.184
		c0.506-0.094,0.858-0.502,0.858-1.016c0-0.538-0.348-0.818-0.858-0.965V14.184z"/>
	<path class="st1" d="M28.836,4.978c-1-0.926-1.384-1.742-3.708-2.811c-2.216-0.86-3.611-0.614-4.611-0.655
		c1.371-1.376,3.381-1.552,5.244-0.868C27.495,1.475,28.834,2.986,28.836,4.978z"/>
	<path class="st5" d="M6.989,19.453c1.73,3.152,3.015,3.961,9.013,3.961c5.992,0,7.275-0.803,9-3.949
		C19.024,20.936,13.017,20.905,6.989,19.453z"/>
	<path class="st6" d="M16.002,28.471c1.657,0,3.241-0.415,4.696-1.171c-0.504-2.558-2.294-3.515-4.004-2.888
		c-0.721,0.266-1.502,0.357-2.245,0.291c-1.361-0.13-2.755,0.553-3.162,2.587C12.747,28.052,14.337,28.471,16.002,28.471z"/>
</g>
</svg>
