<?xml version="1.0" encoding="utf-8"?>
<!-- Generator: Adobe Illustrator 21.1.0, SVG Export Plug-In . SVG Version: 6.00 Build 0)  -->
<svg version="1.1" id="Layer_1" xmlns="http://www.w3.org/2000/svg" xmlns:xlink="http://www.w3.org/1999/xlink" x="0px" y="0px"
	 viewBox="0 0 32 32" style="enable-background:new 0 0 32 32;" xml:space="preserve">
<style type="text/css">
	.st0{fill:#FFD93B;}
	.st1{fill:#3E4347;}
	.st2{fill:#F4C534;}
	.st3{fill:#FFFFFF;}
	.st4{fill:#E24B4B;}
	.st5{opacity:0.2;}
	.st6{opacity:0.3;}
	.st7{fill:#5A5F63;}
	.st8{fill:#D03F3F;}
	.st9{fill:#E9EFF4;}
	.st10{fill:#DEE4E9;}
	.st11{fill:#777B7E;}
	.st12{fill:#45CBEA;}
	.st13{fill:#E84D88;}
	.st14{opacity:0.25;}
	.st15{fill:#E9B02C;}
	.st16{fill:none;stroke:#E9B02C;stroke-width:2;stroke-linecap:round;stroke-linejoin:round;stroke-miterlimit:10;}
	.st17{fill:#65B1EF;}
	.st18{fill:#F29A2E;}
	.st19{fill:#59A5E0;}
	.st20{fill:#4E99D2;}
	.st21{opacity:0.15;}
	.st22{fill:#8CC63E;}
	.st23{opacity:0.25;fill:#FFFFFF;}
	.st24{fill:#38C0DC;}
	.st25{fill:#D23F77;}
	.st26{fill:#DAE5EF;}
	.st27{fill:#373C3F;}
	.st28{fill:#BF3333;}
	.st29{opacity:0.2;fill:#FFFFFF;}
	.st30{opacity:0.3;fill:#FFFFFF;}
	.st31{fill:#7FB239;}
</style>
<g>
	<g>
		<g>
			<g>
				<g>
					<g>
						<g>
							<g>
								<g>
									<g>
										<g>
											<circle class="st0" cx="16" cy="16" r="16"/>
										</g>
									</g>
								</g>
							</g>
						</g>
					</g>
					<g>
						<g>
							<g>
								<g>
									<g>
										<g>
											<path class="st2" d="M32,16c0,8.84-7.165,16-16,16c-5.03,0-9.52-2.32-12.455-5.955c2.745,2.22,6.24,3.545,10.045,3.545
												c8.835,0,16-7.16,16-16c0-3.805-1.325-7.3-3.545-10.045C29.675,6.48,32,10.97,32,16z"/>
										</g>
									</g>
								</g>
							</g>
						</g>
					</g>
				</g>
			</g>
		</g>
		<path class="st1" d="M9.697,4.558c0,0-3.251-0.457-6.664,3.494C3.033,8.052,5.24,0.974,9.697,4.558z"/>
		<path class="st1" d="M22.303,4.558c0,0,3.251-0.457,6.664,3.494C28.967,8.052,26.76,0.974,22.303,4.558z"/>
		<path class="st1" d="M23.413,25.124c-1.971-0.328-4.676-0.844-7.401-0.829c-2.772-0.03-4.902,0.388-7.389,0.829
			c2.072-1.19,3.881-1.864,7.395-1.968C17.449,23.21,20.016,23.241,23.413,25.124z"/>
		<g>
			<path class="st4" d="M24.28,26.329c-0.284-0.703-0.6-1.343-0.867-1.831c-1.685-3.085-4.385-2.417-5.366-1.515
				c-0.947-0.574-2.256,0.113-2.095,1.313c1.744,0.475,2.058,2.131,2.134,3.643c0.058,1.158,0.66,2.336,1.74,2.757
				C22.517,31.746,25.397,29.094,24.28,26.329z"/>
		</g>
		<g>
			<g>
				<ellipse class="st2" cx="9.948" cy="13.299" rx="5.388" ry="5.393"/>
			</g>
			<path class="st1" d="M10.809,13.299l3.339-3.339c0.267-0.266-0.594-1.129-0.861-0.863l-3.336,3.344L6.609,9.099
				C6.384,8.874,5.522,9.737,5.747,9.962l3.337,3.336l-3.337,3.336C5.49,16.89,6.354,17.754,6.61,17.499l3.342-3.333l3.335,3.335
				c0.192,0.192,1.054-0.672,0.861-0.864L10.809,13.299z"/>
		</g>
		<g>
			<g>
				<ellipse class="st2" cx="22.057" cy="13.299" rx="5.388" ry="5.393"/>
			</g>
			<path class="st1" d="M22.917,13.299l3.339-3.339c0.267-0.266-0.594-1.129-0.861-0.863l-3.336,3.344l-3.342-3.342
				c-0.225-0.225-1.087,0.638-0.862,0.863l3.337,3.336l-3.337,3.336c-0.256,0.255,0.607,1.119,0.863,0.864l3.342-3.333l3.335,3.335
				c0.192,0.192,1.054-0.672,0.861-0.864L22.917,13.299z"/>
		</g>
	</g>
	<path class="st8" d="M18.085,27.939c0.058,1.158,0.66,2.336,1.74,2.757c1.804,0.703,3.686-0.259,4.4-1.8
		c-3.318,1.805-4.973,0.26-5.669-2.548c-0.588-2.37-2.544-2.053-2.544-2.053l-0.018,0.017C17.696,24.804,18.01,26.44,18.085,27.939z
		"/>
	<path class="st29" d="M21.485,23.134c-0.034,0.24-0.511,0.104-1.131,0.062c-0.62-0.021-1.164,0.063-1.13-0.177
		c0.033-0.24,0.553-0.408,1.189-0.376C21.032,22.675,21.501,22.894,21.485,23.134z"/>
</g>
</svg>
