<?xml version="1.0" encoding="utf-8"?>
<!-- Generator: Adobe Illustrator 21.1.0, SVG Export Plug-In . SVG Version: 6.00 Build 0)  -->
<svg version="1.1" id="Layer_1" xmlns="http://www.w3.org/2000/svg" xmlns:xlink="http://www.w3.org/1999/xlink" x="0px" y="0px"
	 viewBox="0 0 32 32" style="enable-background:new 0 0 32 32;" xml:space="preserve">
<style type="text/css">
	.st0{fill:#FFD93B;}
	.st1{fill:#3E4347;}
	.st2{fill:#F4C534;}
	.st3{fill:#FFFFFF;}
	.st4{fill:#E24B4B;}
	.st5{opacity:0.2;}
	.st6{opacity:0.3;}
	.st7{fill:#5A5F63;}
	.st8{fill:#D03F3F;}
	.st9{fill:#E9EFF4;}
	.st10{fill:#DEE4E9;}
	.st11{fill:#777B7E;}
	.st12{fill:#45CBEA;}
	.st13{fill:#E84D88;}
	.st14{opacity:0.25;}
	.st15{fill:#E9B02C;}
	.st16{fill:none;stroke:#E9B02C;stroke-width:2;stroke-linecap:round;stroke-linejoin:round;stroke-miterlimit:10;}
	.st17{fill:#65B1EF;}
	.st18{fill:#F29A2E;}
	.st19{fill:#59A5E0;}
	.st20{fill:#4E99D2;}
	.st21{opacity:0.15;}
	.st22{fill:#8CC63E;}
	.st23{opacity:0.25;fill:#FFFFFF;}
	.st24{fill:#38C0DC;}
	.st25{fill:#D23F77;}
	.st26{fill:#DAE5EF;}
	.st27{fill:#373C3F;}
	.st28{fill:#BF3333;}
	.st29{opacity:0.2;fill:#FFFFFF;}
	.st30{opacity:0.3;fill:#FFFFFF;}
	.st31{fill:#7FB239;}
</style>
<g>
	<g>
		<g>
			<g>
				<g>
					<g>
						<g>
							<g>
								<g>
									<g>
										<g>
											<path class="st0" d="M32.078,16.065c0,8.84-7.17,16-16,16c-8.84,0-16-7.16-16-16c0-8.83,7.16-16,16-16
												C24.908,0.065,32.078,7.235,32.078,16.065z"/>
										</g>
									</g>
								</g>
							</g>
							<g>
								<g>
									<g>
										<g>
											<path class="st2" d="M32.078,16.065c0,8.84-7.17,16-16,16c-5.04,0-9.54-2.33-12.46-5.97c2.74,2.2,6.21,3.51,10,3.51
												c8.83,0,16-7.16,16-16c0-3.79-1.31-7.26-3.52-10C29.748,6.535,32.078,11.025,32.078,16.065z"/>
										</g>
									</g>
								</g>
							</g>
						</g>
					</g>
				</g>
			</g>
		</g>
	</g>
	<g>
		<g>
			<g>
				<g>
					<path class="st15" d="M25.068,13.311c-1.872-3.754-5.451-2.998-5.487-2.99c-0.405,0.09-0.806-0.164-0.896-0.567
						c-0.091-0.404,0.163-0.805,0.567-0.897c1.64-0.368,5.246-0.052,7.159,3.785c0.185,0.371,0.034,0.821-0.337,1.006
						C25.7,13.833,25.251,13.679,25.068,13.311z"/>
				</g>
			</g>
		</g>
		<g>
			<g>
				<g>
					<path class="st15" d="M6.082,13.648c-0.371-0.185-0.521-0.635-0.337-1.006c1.914-3.837,5.522-4.152,7.159-3.785
						c0.404,0.091,0.658,0.492,0.567,0.897c-0.091,0.403-0.49,0.652-0.894,0.568c-0.163-0.036-3.637-0.725-5.489,2.989
						C6.903,13.68,6.455,13.833,6.082,13.648z"/>
				</g>
			</g>
		</g>
	</g>
	<g>
		<g>
			<g>
				<path class="st9" d="M0.312,13.436c5.213-2.519,16.953-7.601,27.627-8.076c1.003-0.167-5.098-4.53-6.39-4.312
					C14.698,2.211,8.072,4.574,3.166,6.646C1.844,7.121-0.39,13.84,0.312,13.436z"/>
			</g>
		</g>
		<g>
			<g>
				<path class="st3" d="M20.339,0.662c-9.3,6.16-16.18,16.54-19.08,21.44c-0.571,0.847-1.868-6.341-1.1-7.61
					c2.9-4.25,7.01-9.48,12.13-13.96C13.199-0.428,21.429-0.118,20.339,0.662z"/>
			</g>
		</g>
	</g>
	<g>
		<g>
			<g>
				<g>
					<path class="st1" d="M13.524,14.156c0,1.311-1.06,2.371-2.371,2.371c-1.303,0-2.363-1.06-2.363-2.371s1.06-2.371,2.363-2.371
						C12.464,11.785,13.524,12.845,13.524,14.156z"/>
				</g>
			</g>
			<g>
				<g>
					
						<ellipse transform="matrix(0.707 -0.7072 0.7072 0.707 -5.839 12.3583)" class="st7" cx="11.997" cy="13.227" rx="0.416" ry="0.508"/>
				</g>
			</g>
		</g>
		<g>
			<g>
				<g>
					<path class="st1" d="M23.366,14.156c0,1.311-1.06,2.371-2.371,2.371c-1.303,0-2.363-1.06-2.363-2.371s1.06-2.371,2.363-2.371
						C22.306,11.785,23.366,12.845,23.366,14.156z"/>
				</g>
			</g>
			<g>
				<g>
					
						<ellipse transform="matrix(0.707 -0.7072 0.7072 0.707 -2.9558 19.3183)" class="st7" cx="21.838" cy="13.227" rx="0.416" ry="0.508"/>
				</g>
			</g>
		</g>
	</g>
	<g>
		<g>
			<path class="st1" d="M21.934,25.301c-0.355,0-0.698-0.189-0.88-0.523c-1.64-3.021-6.085-2.845-8.456-2.268
				c-0.535,0.133-1.078-0.197-1.208-0.734c-0.131-0.537,0.197-1.078,0.734-1.208c3.632-0.889,8.61-0.568,10.688,3.255
				c0.264,0.485,0.083,1.093-0.401,1.356C22.259,25.262,22.095,25.301,21.934,25.301z"/>
		</g>
	</g>
</g>
</svg>
