<?xml version="1.0" encoding="utf-8"?>
<!-- Generator: Adobe Illustrator 21.1.0, SVG Export Plug-In . SVG Version: 6.00 Build 0)  -->
<svg version="1.1" id="Layer_1" xmlns="http://www.w3.org/2000/svg" xmlns:xlink="http://www.w3.org/1999/xlink" x="0px" y="0px"
	 viewBox="0 0 32 32" style="enable-background:new 0 0 32 32;" xml:space="preserve">
<style type="text/css">
	.st0{fill:#FFD93B;}
	.st1{fill:#3E4347;}
	.st2{fill:#F4C534;}
	.st3{fill:#FFFFFF;}
	.st4{fill:#E24B4B;}
	.st5{opacity:0.2;}
	.st6{opacity:0.3;}
	.st7{fill:#5A5F63;}
	.st8{fill:#D03F3F;}
	.st9{fill:#E9EFF4;}
	.st10{fill:#DEE4E9;}
	.st11{fill:#777B7E;}
	.st12{fill:#45CBEA;}
	.st13{fill:#E84D88;}
	.st14{opacity:0.25;}
	.st15{fill:#E9B02C;}
	.st16{fill:none;stroke:#E9B02C;stroke-width:2;stroke-linecap:round;stroke-linejoin:round;stroke-miterlimit:10;}
	.st17{fill:#65B1EF;}
	.st18{fill:#F29A2E;}
	.st19{fill:#59A5E0;}
	.st20{fill:#4E99D2;}
	.st21{opacity:0.15;}
	.st22{fill:#8CC63E;}
	.st23{opacity:0.25;fill:#FFFFFF;}
	.st24{fill:#38C0DC;}
	.st25{fill:#D23F77;}
	.st26{fill:#DAE5EF;}
	.st27{fill:#373C3F;}
	.st28{fill:#BF3333;}
	.st29{opacity:0.2;fill:#FFFFFF;}
	.st30{opacity:0.3;fill:#FFFFFF;}
	.st31{fill:#7FB239;}
</style>
<g>
	<g>
		<g>
			<g>
				<g>
					<g>
						<g>
							<g>
								<g>
									<g>
										<g>
											<g>
												<g>
													<g>
														<g>
															<g>
																<g>
																	<g>
																		<g>
																			<g>
																				<g>
																					<g>
																						<g>
																							<g>
																								<g>
																									<circle class="st0" cx="16" cy="16" r="16"/>
																								</g>
																							</g>
																						</g>
																					</g>
																				</g>
																				<g>
																					<g>
																						<g>
																							<g>
																								<g>
																									<path class="st2" d="M32,16c0,8.84-7.165,16-16,16c-5.03,0-9.52-2.32-12.455-5.955
																										c2.745,2.22,6.24,3.545,10.045,3.545c8.835,0,16-7.16,16-16c0-3.805-1.325-7.3-3.545-10.045
																										C29.675,6.48,32,10.97,32,16z"/>
																								</g>
																							</g>
																						</g>
																					</g>
																				</g>
																			</g>
																		</g>
																	</g>
																</g>
															</g>
														</g>
													</g>
												</g>
											</g>
										</g>
									</g>
								</g>
							</g>
						</g>
					</g>
				</g>
			</g>
		</g>
	</g>
	<ellipse class="st3" cx="10.658" cy="10.822" rx="5.43" ry="5.771"/>
	<path class="st1" d="M11.929,15.583c-1.543-0.019-2.796-1.299-2.799-2.859c-0.003-1.559,1.245-2.808,2.788-2.788
		c1.543,0.019,2.796,1.299,2.799,2.859C14.72,14.354,13.472,15.603,11.929,15.583z"/>
	<path class="st7" d="M13.342,13.66c-0.284-0.029-0.479-0.447-0.437-0.933c0.043-0.486,0.307-0.857,0.591-0.827
		c0.284,0.029,0.48,0.447,0.437,0.933C13.891,13.319,13.626,13.689,13.342,13.66z"/>
	
		<ellipse transform="matrix(0.2058 -0.9786 0.9786 0.2058 7.8626 29.3701)" class="st3" cx="22.026" cy="9.841" rx="4.873" ry="4.585"/>
	<path class="st1" d="M20.148,13.554c1.278,0.252,2.536-0.588,2.81-1.876c0.274-1.288-0.541-2.537-1.819-2.789
		c-1.278-0.252-2.536,0.588-2.81,1.876C18.055,12.054,18.87,13.302,20.148,13.554z"/>
	<path class="st7" d="M19.247,11.259c0.219,0.102,0.541-0.117,0.72-0.488c0.179-0.371,0.147-0.754-0.071-0.856
		c-0.219-0.102-0.541,0.117-0.72,0.488C18.997,10.774,19.028,11.157,19.247,11.259z"/>
	<path class="st1" d="M22.276,17.083c-1.523,1.411-3.621,2.313-6.3,2.313c-2.135,0-3.893-0.579-5.293-1.522
		c-1.727,1.033-2.918,3.281-2.918,5.89c0,3.053,1.628,5.606,3.842,6.298c1.549-1.934,3.93-3.248,7.16-3.248
		c1.551,0,2.908,0.301,4.071,0.827c1.203-1.057,2.013-2.93,2.013-5.069C24.851,20.114,23.784,18.001,22.276,17.083z"/>
	<path class="st4" d="M18.339,26.672c1.403,0,2.596,0.323,3.591,0.864c0.055-0.224,0.096-0.453,0.096-0.695
		c0-1.741-1.412-3.153-3.153-3.153c-1.035,0-1.958,0.499-2.532,1.271c-0.395-0.179-0.838-0.282-1.299-0.282
		c-1.742,0-3.154,1.421-3.154,3.163c0,0.662,0.217,1.267,0.568,1.773C13.641,27.881,15.601,26.672,18.339,26.672z"/>
	<path class="st3" d="M16.845,26.427c-2.898,0.492-5.33,1.265-6.187,3.206c0.652,0.395,1.379,0.622,2.152,0.622
		c1.015,0,1.95-0.385,2.744-1.049c1.116-0.932,2.663-1.246,4.111-0.798c0.302,0.099,0.613,0.143,0.935,0.143
		c1.061,0,2.034-0.559,2.782-1.474C21.891,25.878,19.515,25.974,16.845,26.427z"/>
	<path class="st3" d="M17.607,19.53c2.176-0.369,4.114-0.88,5.428-1.845c-0.692-0.685-1.532-1.091-2.436-1.091
		c-0.683,0-1.327,0.224-1.89,0.628c-1.276,0.888-3.005,0.87-4.493,0.305c-0.442-0.17-0.925-0.26-1.407-0.26
		c-1.059,0-2.037,0.417-2.845,1.126C11.552,20.151,14.385,20.075,17.607,19.53z"/>
	<path class="st3" d="M20.213,24.839c-0.045,0.226-0.463,0.323-0.942,0.233c-0.47-0.099-0.821-0.354-0.776-0.58
		c0.045-0.226,0.472-0.332,0.942-0.233C19.907,24.348,20.258,24.613,20.213,24.839z"/>
	<path class="st1" d="M17.454,5.741c-0.301-1.084,1.512-2.097,2.515-2.476c0.981-0.381,2.148-0.531,3.516-0.306
		c-1.13,0.331-1.87,0.488-3.139,1.15C18.953,4.84,18.351,5.692,17.454,5.741z"/>
	<path class="st1" d="M15.474,5.241c-1.005-0.047-1.621-0.685-2.523-1.135c-0.857-0.443-1.798-0.824-2.913-1.094
		c-1.173-0.275-1.564-0.29-2.743-0.436c1.181-0.272,1.838-0.337,2.852-0.268c1.292,0.123,2.461,0.458,3.266,0.873
		C14.3,3.611,15.481,4.251,15.474,5.241z"/>
</g>
</svg>
