<?xml version="1.0" encoding="utf-8"?>
<!-- Generator: Adobe Illustrator 21.1.0, SVG Export Plug-In . SVG Version: 6.00 Build 0)  -->
<svg version="1.1" id="Layer_1" xmlns="http://www.w3.org/2000/svg" xmlns:xlink="http://www.w3.org/1999/xlink" x="0px" y="0px"
	 viewBox="0 0 32 32" style="enable-background:new 0 0 32 32;" xml:space="preserve">
<style type="text/css">
	.st0{fill:#FFD93B;}
	.st1{fill:#3E4347;}
	.st2{fill:#F4C534;}
	.st3{fill:#FFFFFF;}
	.st4{fill:#E24B4B;}
	.st5{opacity:0.2;}
	.st6{opacity:0.3;}
	.st7{fill:#5A5F63;}
	.st8{fill:#D03F3F;}
	.st9{fill:#E9EFF4;}
	.st10{fill:#DEE4E9;}
	.st11{fill:#777B7E;}
	.st12{fill:#45CBEA;}
	.st13{fill:#E84D88;}
	.st14{opacity:0.25;}
	.st15{fill:#E9B02C;}
	.st16{fill:none;stroke:#E9B02C;stroke-width:2;stroke-linecap:round;stroke-linejoin:round;stroke-miterlimit:10;}
	.st17{fill:#65B1EF;}
	.st18{fill:#F29A2E;}
	.st19{fill:#59A5E0;}
	.st20{fill:#4E99D2;}
	.st21{opacity:0.15;}
	.st22{fill:#8CC63E;}
	.st23{opacity:0.25;fill:#FFFFFF;}
	.st24{fill:#38C0DC;}
	.st25{fill:#D23F77;}
	.st26{fill:#DAE5EF;}
	.st27{fill:#373C3F;}
	.st28{fill:#BF3333;}
	.st29{opacity:0.2;fill:#FFFFFF;}
	.st30{opacity:0.3;fill:#FFFFFF;}
	.st31{fill:#7FB239;}
</style>
<g>
	<g>
		<g>
			<g>
				<g>
					<g>
						<g>
							<g>
								<path class="st0" d="M31.976,16c0,8.84-7.17,16-16,16c-8.84,0-16-7.16-16-16c0-8.83,7.16-16,16-16
									C24.806,0,31.976,7.17,31.976,16z"/>
							</g>
						</g>
					</g>
					<g>
						<g>
							<g>
								<path class="st2" d="M31.976,16c0,8.84-7.17,16-16,16c-5.04,0-9.54-2.33-12.46-5.97c2.74,2.2,6.21,3.51,10,3.51
									c8.83,0,16-7.16,16-16c0-3.79-1.31-7.26-3.52-10C29.646,6.47,31.976,10.96,31.976,16z"/>
							</g>
						</g>
					</g>
				</g>
			</g>
		</g>
		<g>
			<g>
				<path class="st9" d="M31.848,14.069l-8.649,6.528l0.754,0.998l8.001-6.039C32.296,15.237,32.019,13.901,31.848,14.069z"/>
			</g>
			<g>
				<path class="st9" d="M-0.001,15.556L8,21.595l0.754-0.998l-8.649-6.528C-0.082,13.949-0.228,15.364-0.001,15.556z"/>
			</g>
		</g>
		<g>
			<g>
				<path class="st9" d="M30.786,22.044l-10.913,3.638l0.394,1.186l9.788-3.263C30.742,23.367,31.113,21.938,30.786,22.044z"/>
			</g>
			<g>
				<path class="st9" d="M1.895,23.604l9.79,3.264l0.394-1.186L1.165,22.043C0.791,21.932,1.363,23.486,1.895,23.604z"/>
			</g>
		</g>
		<g>
			<g>
				<g>
					<g>
						<g>
							<g>
								<g>
									<g>
										<g>
											<path class="st2" d="M6.76,12.671c-0.331-0.098-0.521-0.446-0.423-0.777c0.741-2.507,3.238-4.015,5.805-3.503
												c0.338,0.067,0.559,0.396,0.491,0.734c-0.067,0.339-0.401,0.56-0.735,0.491c-1.924-0.377-3.805,0.748-4.361,2.631
												C7.438,12.58,7.091,12.768,6.76,12.671z"/>
										</g>
									</g>
								</g>
							</g>
						</g>
					</g>
					<g>
						<g>
							<g>
								<g>
									<g>
										<path class="st1" d="M8.552,13.818c0,1.479,1.103,2.667,2.474,2.667c1.363,0,2.466-1.189,2.466-2.667
											c0-1.469-1.103-2.667-2.466-2.667C9.655,11.151,8.552,12.349,8.552,13.818z"/>
									</g>
								</g>
							</g>
						</g>
						<g>
							<g>
								<g>
									<path class="st7" d="M9.684,13.332c0.167,0.115,0.458-0.009,0.652-0.273c0.203-0.273,0.229-0.581,0.071-0.705
										c-0.159-0.115-0.449,0-0.652,0.273C9.561,12.892,9.525,13.209,9.684,13.332z"/>
								</g>
							</g>
						</g>
					</g>
				</g>
			</g>
			<g>
				<g>
					<g>
						<g>
							<g>
								<g>
									<g>
										<path class="st1" d="M18.189,13.818c0,1.479,1.103,2.667,2.475,2.667c1.363,0,2.466-1.189,2.466-2.667
											c0-1.469-1.103-2.667-2.466-2.667C19.292,11.151,18.189,12.349,18.189,13.818z"/>
									</g>
								</g>
							</g>
						</g>
						<g>
							<g>
								<g>
									<path class="st2" d="M24.416,12.248c-0.557-1.883-2.438-3.012-4.361-2.631c-0.332,0.069-0.667-0.152-0.735-0.491
										c-0.067-0.338,0.153-0.668,0.491-0.734c2.567-0.512,5.064,0.995,5.805,3.503c0.098,0.331-0.092,0.679-0.423,0.777
										C24.862,12.767,24.515,12.581,24.416,12.248z"/>
								</g>
							</g>
						</g>
					</g>
					<g>
						<g>
							<g>
								<path class="st7" d="M19.321,13.332c0.167,0.115,0.458-0.009,0.652-0.273c0.203-0.273,0.229-0.581,0.07-0.705
									c-0.159-0.115-0.449,0-0.652,0.273C19.197,12.892,19.162,13.209,19.321,13.332z"/>
							</g>
						</g>
					</g>
				</g>
			</g>
		</g>
	</g>
	<g>
		<g>
			<g>
				<path class="st12" d="M7.218,19.114c-0.867-0.113-1.35,0.764-0.957,1.648c1.969,4.841,4.605,8.957,9.719,8.985
					c5.107-0.028,7.744-4.135,9.711-8.966c0.394-0.888-0.091-1.767-0.962-1.646C18.916,20.033,13.608,20.056,7.218,19.114z"/>
			</g>
		</g>
	</g>
</g>
</svg>
