<?xml version="1.0" encoding="utf-8"?>
<!-- Generator: Adobe Illustrator 21.1.0, SVG Export Plug-In . SVG Version: 6.00 Build 0)  -->
<svg version="1.1" id="Layer_1" xmlns="http://www.w3.org/2000/svg" xmlns:xlink="http://www.w3.org/1999/xlink" x="0px" y="0px"
	 viewBox="0 0 32 32" style="enable-background:new 0 0 32 32;" xml:space="preserve">
<style type="text/css">
	.st0{fill:#FFD93B;}
	.st1{fill:#3E4347;}
	.st2{fill:#F4C534;}
	.st3{fill:#FFFFFF;}
	.st4{fill:#E24B4B;}
	.st5{opacity:0.2;}
	.st6{opacity:0.3;}
	.st7{fill:#5A5F63;}
	.st8{fill:#D03F3F;}
	.st9{fill:#E9EFF4;}
	.st10{fill:#DEE4E9;}
	.st11{fill:#777B7E;}
	.st12{fill:#45CBEA;}
	.st13{fill:#E84D88;}
	.st14{opacity:0.25;}
	.st15{fill:#E9B02C;}
	.st16{fill:none;stroke:#E9B02C;stroke-width:2;stroke-linecap:round;stroke-linejoin:round;stroke-miterlimit:10;}
	.st17{fill:#65B1EF;}
	.st18{fill:#F29A2E;}
	.st19{fill:#59A5E0;}
	.st20{fill:#4E99D2;}
	.st21{opacity:0.15;}
	.st22{fill:#8CC63E;}
	.st23{opacity:0.25;fill:#FFFFFF;}
	.st24{fill:#38C0DC;}
	.st25{fill:#D23F77;}
	.st26{fill:#DAE5EF;}
	.st27{fill:#373C3F;}
	.st28{fill:#BF3333;}
	.st29{opacity:0.2;fill:#FFFFFF;}
	.st30{opacity:0.3;fill:#FFFFFF;}
	.st31{fill:#7FB239;}
</style>
<g>
	<g>
		<g>
			<g>
				<g>
					<g>
						<g>
							<g>
								<circle class="st0" cx="16" cy="14.147" r="14.147"/>
							</g>
						</g>
					</g>
				</g>
			</g>
		</g>
		<g>
			<g>
				<g>
					<g>
						<g>
							<g>
								<path class="st2" d="M30.147,14.147c0,7.817-6.335,14.148-14.147,14.147c-4.448,0-8.418-2.051-11.013-5.266
									c2.427,1.963,5.518,3.135,8.882,3.135c7.812,0,14.147-6.331,14.147-14.147c0-3.365-1.172-6.455-3.134-8.882
									C28.092,5.73,30.147,9.7,30.147,14.147z"/>
							</g>
						</g>
					</g>
				</g>
			</g>
		</g>
	</g>
	<path class="st1" d="M22.543,19.452c-0.896,2.759-3.487,4.748-6.541,4.748c-3.059,0-5.645-1.99-6.547-4.748
		c-0.11-0.33,0.185-0.654,0.521-0.555c2.4,0.705,9.653,0.705,12.047,0C22.358,18.799,22.653,19.123,22.543,19.452z"/>
	<path class="st4" d="M15.595,29.496c-0.052-0.691,0.629-1.93,0.32-2.653c-0.423-1.011-1.909-2.755-2.477-3.137
		c-0.082-0.557,1.259-1.176,1.971-1.217c0.815-0.051,1.641,0.268,2.208,0.846c0.052-0.505,0.454-0.929,0.939-1.094
		c0.899-0.308,2.17,0.313,3.31,1.31c3.52,3.075,1.086,9.067-3.54,8.398C16.839,31.733,15.651,30.884,15.595,29.496z"/>
	<circle class="st2" cx="10.277" cy="13.061" r="4.879"/>
	<path class="st2" d="M14.454,13.062c-0.129,2.321-2.102,4.201-4.408,4.201c-2.306,0-4.078-1.881-3.95-4.201
		c0.129-2.321,2.109-4.209,4.416-4.209C12.818,8.854,14.583,10.742,14.454,13.062z"/>
	<path class="st1" d="M11.002,4.815c0,0-2.578-0.363-5.284,2.771C5.717,7.586,7.467,1.974,11.002,4.815z"/>
	<circle class="st2" cx="21.723" cy="13.061" r="4.879"/>
	<path class="st2" d="M17.546,13.062c0.129,2.321,2.102,4.201,4.408,4.201c2.306,0,4.078-1.881,3.95-4.201
		c-0.129-2.321-2.109-4.209-4.416-4.209C19.182,8.854,17.417,10.742,17.546,13.062z"/>
	<path class="st1" d="M20.999,4.815c0,0,2.578-0.363,5.284,2.771C26.283,7.586,24.533,1.974,20.999,4.815z"/>
	<path class="st1" d="M26.601,13.059c0,0.15-0.033,0.3-0.092,0.441c-0.425-0.941-2.408-1.658-4.791-1.658
		c-2.374,0-4.357,0.716-4.782,1.658c-0.058-0.142-0.092-0.292-0.092-0.441c0-1.283,2.183-2.333,4.874-2.333
		C24.418,10.727,26.601,11.776,26.601,13.059z"/>
	<path class="st1" d="M15.153,13.059c0,0.15-0.033,0.3-0.092,0.441c-0.425-0.941-2.408-1.658-4.79-1.658
		c-2.374,0-4.357,0.716-4.782,1.658c-0.058-0.142-0.092-0.292-0.092-0.441c0-1.283,2.183-2.333,4.874-2.333
		C12.97,10.727,15.153,11.776,15.153,13.059z"/>
	<path class="st3" d="M21.746,18.969c-0.96,2.054-3.467,2.301-5.748,2.301c-2.28,0-4.771-0.254-5.748-2.301
		C12.788,19.578,19.207,19.578,21.746,18.969z"/>
	<path class="st8" d="M18.328,31.948c1.762,0.254,3.202-0.46,4.12-1.608c-2.938,2.157-5.519,0.104-5.876-2.335
		c-0.147-1.007-0.599-1.95-1.405-2.572c-0.173-0.134-0.291-0.212-0.291-0.212l-0.003,0.001c0.442,0.562,0.851,1.166,1.042,1.622
		c0.309,0.723-0.372,1.961-0.32,2.653C15.651,30.884,16.839,31.733,18.328,31.948z"/>
</g>
</svg>
