<?xml version="1.0" encoding="utf-8"?>
<!-- Generator: Adobe Illustrator 21.1.0, SVG Export Plug-In . SVG Version: 6.00 Build 0)  -->
<svg version="1.1" id="Layer_1" xmlns="http://www.w3.org/2000/svg" xmlns:xlink="http://www.w3.org/1999/xlink" x="0px" y="0px"
	 viewBox="0 0 32 32" style="enable-background:new 0 0 32 32;" xml:space="preserve">
<style type="text/css">
	.st0{fill:#FFD93B;}
	.st1{fill:#3E4347;}
	.st2{fill:#F4C534;}
	.st3{fill:#FFFFFF;}
	.st4{fill:#E24B4B;}
	.st5{opacity:0.2;}
	.st6{opacity:0.3;}
	.st7{fill:#5A5F63;}
	.st8{fill:#D03F3F;}
	.st9{fill:#E9EFF4;}
	.st10{fill:#DEE4E9;}
	.st11{fill:#777B7E;}
	.st12{fill:#45CBEA;}
	.st13{fill:#E84D88;}
	.st14{opacity:0.25;}
	.st15{fill:#E9B02C;}
	.st16{fill:none;stroke:#E9B02C;stroke-width:2;stroke-linecap:round;stroke-linejoin:round;stroke-miterlimit:10;}
	.st17{fill:#65B1EF;}
	.st18{fill:#F29A2E;}
	.st19{fill:#59A5E0;}
	.st20{fill:#4E99D2;}
	.st21{opacity:0.15;}
	.st22{fill:#8CC63E;}
	.st23{opacity:0.25;fill:#FFFFFF;}
	.st24{fill:#38C0DC;}
	.st25{fill:#D23F77;}
	.st26{fill:#DAE5EF;}
	.st27{fill:#373C3F;}
	.st28{fill:#BF3333;}
	.st29{opacity:0.2;fill:#FFFFFF;}
	.st30{opacity:0.3;fill:#FFFFFF;}
	.st31{fill:#7FB239;}
</style>
<g>
	<g>
		<g>
			<path class="st0" d="M30.935,18.246c0.144,0.335,0.211,0.696,0.181,1.07c-0.1,1.208-1.154,2.11-2.372,2.009
				c-1.208-0.1-2.099-1.164-1.999-2.371c0.031-0.374,0.156-0.719,0.354-1.025c-0.503-0.547-0.786-1.292-0.719-2.104
				c0.128-1.55,1.493-2.706,3.032-2.579c1.55,0.128,2.707,1.494,2.578,3.043C31.924,17.091,31.522,17.789,30.935,18.246z"/>
		</g>
		<g>
			<path class="st0" d="M1.065,18.246c-0.145,0.335-0.211,0.696-0.181,1.07c0.1,1.208,1.154,2.11,2.372,2.009
				c1.208-0.1,2.099-1.164,1.999-2.371c-0.031-0.374-0.156-0.719-0.354-1.025c0.503-0.547,0.786-1.292,0.719-2.104
				c-0.128-1.55-1.494-2.706-3.033-2.579c-1.55,0.128-2.707,1.494-2.578,3.043C0.076,17.091,0.478,17.789,1.065,18.246z"/>
		</g>
	</g>
	<g>
		<g>
			<g>
				<g>
					<g>
						<g>
							<g>
								<g>
									<g>
										<g>
											<g>
												<g>
													<g>
														<g>
															<g>
																<g>
																	<g>
																		<g>
																			<path class="st0" d="M29.309,16.784c0,7.353-5.964,13.309-13.309,13.309c-7.353,0-13.309-5.956-13.309-13.309
																				C2.691,9.439,8.647,3.475,16,3.475C23.345,3.475,29.309,9.439,29.309,16.784z"/>
																		</g>
																	</g>
																</g>
															</g>
														</g>
													</g>
													<g>
														<g>
															<g>
																<g>
																	<g>
																		<g>
																			<path class="st0" d="M29.309,16.784c0,7.353-5.964,13.309-13.309,13.309c-4.192,0-7.936-1.938-10.365-4.966
																				c2.279,1.83,5.166,2.92,8.318,2.92c7.345,0,13.309-5.956,13.309-13.309c0-3.153-1.09-6.039-2.928-8.318
																				C27.371,8.857,29.309,12.592,29.309,16.784z"/>
																		</g>
																	</g>
																</g>
															</g>
														</g>
													</g>
													<g class="st6">
														<g>
															<g>
																<g>
																	<g>
																		<g>
																			<g>
																				<path class="st3" d="M12.202,6.803c0,0.199-0.121,0.372-0.299,0.45c-3.102,1.336-5.44,4.139-6.111,7.485
																					c-0.049,0.244-0.283,0.431-0.58,0.372c-0.249-0.058-0.407-0.314-0.357-0.563
																					c0.733-3.654,3.28-6.731,6.668-8.193c0.063-0.028,0.128-0.04,0.191-0.04
																					C11.971,6.313,12.202,6.524,12.202,6.803z"/>
																			</g>
																		</g>
																	</g>
																</g>
															</g>
														</g>
													</g>
												</g>
											</g>
										</g>
									</g>
								</g>
							</g>
						</g>
					</g>
				</g>
			</g>
		</g>
	</g>
	<g>
		<g>
			<path class="st18" d="M12.784,2.223c1.644-0.504,3.22-0.388,4.588,0.223c1.697,0.77,2.794,2.291,3.086,3.888
				c0.59,3.18-1.755,5.848-4.523,5.79c-1.718-0.01-3.501-1.135-3.738-2.758c-0.417-2.295,2.239-3.97,4.084-2.146
				c-1.843-1.397-3.919,0.204-3.351,1.974c0.386,1.229,1.824,1.759,2.947,1.611c0.993-0.113,1.587-0.624,2.12-1.315
				c0,0,0.236-0.358,0.405-0.976c0.3-1.448-0.503-2.885-1.417-3.263c-0.009-0.027-0.593-0.278-0.593-0.248
				c-0.847-0.239-1.64-0.145-2.431,0.206c-1.154,0.546-2.036,0.148-2.416-0.656C11.135,3.688,11.457,2.649,12.784,2.223z"/>
		</g>
	</g>
	<g>
		<g>
			<g>
				<circle class="st1" cx="20.506" cy="15.857" r="2.095"/>
			</g>
			<g>
				<path class="st7" d="M21.72,15.445c-0.145,0.133-0.394,0.084-0.553-0.09c-0.168-0.184-0.185-0.435-0.049-0.559
					c0.145-0.133,0.394-0.094,0.553,0.09C21.839,15.069,21.856,15.32,21.72,15.445z"/>
			</g>
		</g>
		<g>
			<g>
				<circle class="st1" cx="11.494" cy="15.857" r="2.095"/>
			</g>
			<g>
				<path class="st7" d="M12.709,15.445c-0.145,0.133-0.394,0.084-0.553-0.09c-0.168-0.184-0.185-0.435-0.049-0.559
					c0.145-0.133,0.394-0.094,0.553,0.09C12.828,15.069,12.844,15.32,12.709,15.445z"/>
			</g>
		</g>
	</g>
	<g>
		<g>
			<g>
				<path class="st19" d="M19.3,20.543c-0.458,0-0.986,0.133-1.503,0.367c-1.169,0.531-2.426,0.531-3.595,0
					c-0.516-0.235-1.045-0.367-1.503-0.367c-2.338,0-2.797,1.473-2.797,3.314c0,1.823,0.459,3.314,2.797,3.314
					c0.458,0,0.987-0.133,1.503-0.368c1.169-0.531,2.426-0.531,3.594,0c0.517,0.235,1.045,0.368,1.503,0.368
					c2.338,0,2.797-1.473,2.797-3.314C22.097,22.034,21.639,20.543,19.3,20.543z M11.93,25.365c-0.459,0-0.814-0.579-0.814-1.315
					c0-0.736,0.355-1.333,0.814-1.333C12.211,23.524,12.285,24.401,11.93,25.365z M20.085,24.997c-0.296-0.806-0.355-1.683,0-2.648
					c0.444,0,0.814,0.579,0.814,1.315C20.899,24.401,20.529,24.997,20.085,24.997z"/>
			</g>
		</g>
		<g>
			<g>
				<path class="st17" d="M17.932,23.851c0,1.072-0.86,1.945-1.932,1.945s-1.932-0.874-1.932-1.945c0-1.059,0.86-1.932,1.932-1.932
					S17.932,22.792,17.932,23.851z"/>
			</g>
		</g>
		<g>
			<g>
				<path class="st3" d="M16,28.944c-1.502,0-2.724-1.23-2.724-2.741c0-1.502,1.222-2.725,2.724-2.725
					c1.502,0,2.725,1.222,2.725,2.725C18.725,27.714,17.502,28.944,16,28.944z M16,24.236c-1.084,0-1.966,0.882-1.966,1.966
					c0,1.093,0.882,1.983,1.966,1.983c1.084,0,1.967-0.89,1.967-1.983C17.966,25.119,17.084,24.236,16,24.236z"/>
			</g>
		</g>
		<g>
			<g>
				<ellipse class="st20" cx="16" cy="23.855" rx="1.067" ry="1.071"/>
			</g>
		</g>
	</g>
</g>
</svg>
