<?xml version="1.0" encoding="utf-8"?>
<!-- Generator: Adobe Illustrator 21.1.0, SVG Export Plug-In . SVG Version: 6.00 Build 0)  -->
<svg version="1.1" id="Layer_1" xmlns="http://www.w3.org/2000/svg" xmlns:xlink="http://www.w3.org/1999/xlink" x="0px" y="0px"
	 viewBox="0 0 32 32" style="enable-background:new 0 0 32 32;" xml:space="preserve">
<style type="text/css">
	.st0{fill:#FFD93B;}
	.st1{fill:#3E4347;}
	.st2{fill:#F4C534;}
	.st3{fill:#FFFFFF;}
	.st4{fill:#E24B4B;}
	.st5{opacity:0.2;}
	.st6{opacity:0.3;}
	.st7{fill:#5A5F63;}
	.st8{fill:#D03F3F;}
	.st9{fill:#E9EFF4;}
	.st10{fill:#DEE4E9;}
	.st11{fill:#777B7E;}
	.st12{fill:#45CBEA;}
	.st13{fill:#E84D88;}
	.st14{opacity:0.25;}
	.st15{fill:#E9B02C;}
	.st16{fill:none;stroke:#E9B02C;stroke-width:2;stroke-linecap:round;stroke-linejoin:round;stroke-miterlimit:10;}
	.st17{fill:#65B1EF;}
	.st18{fill:#F29A2E;}
	.st19{fill:#59A5E0;}
	.st20{fill:#4E99D2;}
	.st21{opacity:0.15;}
	.st22{fill:#8CC63E;}
	.st23{opacity:0.25;fill:#FFFFFF;}
	.st24{fill:#38C0DC;}
	.st25{fill:#D23F77;}
	.st26{fill:#DAE5EF;}
	.st27{fill:#373C3F;}
	.st28{fill:#BF3333;}
	.st29{opacity:0.2;fill:#FFFFFF;}
	.st30{opacity:0.3;fill:#FFFFFF;}
	.st31{fill:#7FB239;}
</style>
<g>
	<circle class="st0" cx="16" cy="17.602" r="14.398"/>
	<path class="st2" d="M30.398,17.602C30.398,25.557,23.95,32,16,32c-4.526,0-8.567-2.088-11.208-5.359
		c2.47,1.998,5.615,3.19,9.039,3.19c7.95,0,14.398-6.443,14.398-14.398c0-3.424-1.192-6.569-3.19-9.039
		C28.306,9.035,30.398,13.076,30.398,17.602z"/>
	<path class="st2" d="M15.192,15.84c0,2.948-2.382,5.33-5.319,5.33c-2.948,0-5.331-2.382-5.331-5.33
		c0-2.937,2.382-5.319,5.331-5.319C12.809,10.521,15.192,12.903,15.192,15.84z"/>
	<path class="st3" d="M14.075,15.841c0,2.33-1.883,4.213-4.204,4.213c-2.33,0-4.213-1.882-4.213-4.213
		c0-2.321,1.883-4.204,4.213-4.204C12.192,11.637,14.075,13.52,14.075,15.841z"/>
	<path class="st1" d="M13.063,17.121c-0.843,0.842-2.194,0.842-3.028,0.008c-0.842-0.842-0.842-2.193,0.001-3.036
		c0.834-0.834,2.186-0.834,3.028,0.008C13.898,14.936,13.898,16.287,13.063,17.121z"/>
	
		<ellipse transform="matrix(0.7072 -0.707 0.707 0.7072 -6.8179 13.0839)" class="st3" cx="12.388" cy="14.773" rx="0.38" ry="0.553"/>
	<path class="st2" d="M27.458,15.84c0,2.948-2.382,5.33-5.319,5.33c-2.948,0-5.331-2.382-5.331-5.33
		c0-2.937,2.382-5.319,5.331-5.319C25.076,10.521,27.458,12.903,27.458,15.84z"/>
	<path class="st3" d="M26.342,15.841c0,2.33-1.883,4.213-4.204,4.213c-2.33,0-4.213-1.882-4.213-4.213
		c0-2.321,1.883-4.204,4.213-4.204C24.459,11.637,26.342,13.52,26.342,15.841z"/>
	<path class="st1" d="M23.849,17.173c0,1.191-0.955,2.146-2.135,2.146c-1.191,0-2.146-0.955-2.146-2.146
		c0-1.179,0.955-2.135,2.146-2.135C22.894,15.038,23.849,15.993,23.849,17.173z"/>
	<path class="st3" d="M22.262,15.991c0,0.211-0.242,0.379-0.548,0.379c-0.316,0-0.559-0.169-0.559-0.379
		c0-0.211,0.242-0.38,0.559-0.38C22.02,15.611,22.262,15.78,22.262,15.991z"/>
	<path class="st2" d="M26.91,14.474c-0.565-2.117-2.477-3.685-4.771-3.685c-2.303,0-4.217,1.568-4.782,3.685
		C20.541,13.891,23.725,13.891,26.91,14.474z"/>
	<path class="st2" d="M14.74,14.474c-0.565-2.117-2.477-3.685-4.771-3.685c-2.303,0-4.217,1.568-4.782,3.685
		C8.371,13.891,11.556,13.891,14.74,14.474z"/>
	<path class="st1" d="M11.735,7.882C7.705,7.899,4.572,7.386,3.563,6.464C3.288,6.212,3.147,5.927,3.146,5.617
		C3.137,3.575,9.584,1.953,15.957,1.406c5.996-0.513,11.132-0.015,12.48,1.217c0.275,0.252,0.416,0.536,0.417,0.847
		c0.009,2.041-6.438,3.663-12.81,4.212C14.538,7.81,13.086,7.876,11.735,7.882z M20.273,1.944c-1.295,0.006-2.72,0.068-4.253,0.199
		C8.495,2.789,3.881,4.6,3.885,5.614c0,0.094,0.06,0.197,0.176,0.304c0.994,0.909,5.51,1.578,11.919,1.026
		c7.524-0.647,12.138-2.457,12.134-3.471c0-0.095-0.06-0.197-0.177-0.303C27.182,2.478,24.388,1.926,20.273,1.944z"/>
	<path class="st4" d="M24.225,6.579C24.144,6.66,24.107,6.779,24.13,6.89l0.213,1.215c0.046,0.289-0.25,0.505-0.51,0.373
		l-1.092-0.566c-0.104-0.059-0.23-0.058-0.326,0.001l-1.087,0.576c-0.259,0.134-0.564-0.079-0.513-0.368l0.202-1.216
		c0.014-0.111-0.023-0.23-0.105-0.311l-0.886-0.856c-0.209-0.199-0.091-0.556,0.197-0.601l1.215-0.183
		c0.111-0.015,0.215-0.089,0.266-0.194l0.536-1.099c0.132-0.267,0.503-0.269,0.63-0.003l0.553,1.094
		c0.052,0.104,0.149,0.177,0.268,0.191l1.216,0.173c0.289,0.043,0.402,0.398,0.195,0.6L24.225,6.579z"/>
	<path class="st12" d="M17.004,1.962c-0.051,0.051-0.074,0.126-0.06,0.196l0.134,0.764c0.029,0.181-0.157,0.317-0.32,0.234
		L16.071,2.8c-0.065-0.037-0.145-0.036-0.205,0.001l-0.683,0.362c-0.163,0.084-0.354-0.05-0.323-0.232l0.127-0.765
		c0.009-0.07-0.015-0.144-0.066-0.195l-0.557-0.538c-0.131-0.125-0.057-0.349,0.124-0.378l0.764-0.115
		c0.07-0.009,0.135-0.056,0.167-0.122l0.337-0.691c0.083-0.168,0.316-0.169,0.396-0.002L16.5,0.813
		c0.033,0.065,0.094,0.111,0.168,0.12l0.765,0.109c0.182,0.027,0.253,0.25,0.123,0.377L17.004,1.962z"/>
	<path class="st22" d="M9.712,7.896c-0.051,0.051-0.074,0.126-0.06,0.196l0.134,0.764c0.029,0.181-0.157,0.317-0.321,0.234
		L8.779,8.733C8.713,8.697,8.634,8.697,8.574,8.734L7.89,9.096c-0.163,0.084-0.354-0.05-0.322-0.232L7.695,8.1
		C7.704,8.03,7.68,7.956,7.629,7.905L7.072,7.366C6.941,7.241,7.015,7.017,7.196,6.988L7.96,6.873
		c0.07-0.009,0.135-0.056,0.167-0.122L8.464,6.06c0.083-0.168,0.316-0.169,0.396-0.002l0.348,0.688
		c0.033,0.065,0.094,0.112,0.168,0.12l0.765,0.109c0.182,0.027,0.253,0.251,0.123,0.377L9.712,7.896z"/>
	<path class="st1" d="M23.395,25.044c0,0.335-0.276,0.611-0.621,0.611c-0.986,0-1.785,1.598-3.737,0.276
		c-1.639-1.071-2.134,1.613-4.516,0c-0.536-0.35-0.938-0.412-1.568,0c-1.95,1.321-2.741-0.276-3.727-0.276
		c-0.345,0-0.621-0.276-0.621-0.611c0-0.345,0.276-0.622,0.621-0.622c1.564,0,1.763,1.376,3.037,0.493
		c0.949-0.643,1.923-0.694,2.948,0c1.593,1.104,2.121-1.622,4.516,0c1.334,0.872,1.459-0.493,3.047-0.493
		C23.119,24.422,23.395,24.699,23.395,25.044z"/>
</g>
</svg>
