<?xml version="1.0" encoding="utf-8"?>
<!-- Generator: Adobe Illustrator 21.1.0, SVG Export Plug-In . SVG Version: 6.00 Build 0)  -->
<svg version="1.1" id="Layer_1" xmlns="http://www.w3.org/2000/svg" xmlns:xlink="http://www.w3.org/1999/xlink" x="0px" y="0px"
	 viewBox="0 0 32 32" style="enable-background:new 0 0 32 32;" xml:space="preserve">
<style type="text/css">
	.st0{fill:#FFD93B;}
	.st1{fill:#3E4347;}
	.st2{fill:#F4C534;}
	.st3{fill:#FFFFFF;}
	.st4{fill:#E24B4B;}
	.st5{opacity:0.2;}
	.st6{opacity:0.3;}
	.st7{fill:#5A5F63;}
	.st8{fill:#D03F3F;}
	.st9{fill:#E9EFF4;}
	.st10{fill:#DEE4E9;}
	.st11{fill:#777B7E;}
	.st12{fill:#45CBEA;}
	.st13{fill:#E84D88;}
	.st14{opacity:0.25;}
	.st15{fill:#E9B02C;}
	.st16{fill:none;stroke:#E9B02C;stroke-width:2;stroke-linecap:round;stroke-linejoin:round;stroke-miterlimit:10;}
	.st17{fill:#65B1EF;}
	.st18{fill:#F29A2E;}
	.st19{fill:#59A5E0;}
	.st20{fill:#4E99D2;}
	.st21{opacity:0.15;}
	.st22{fill:#8CC63E;}
	.st23{opacity:0.25;fill:#FFFFFF;}
	.st24{fill:#38C0DC;}
	.st25{fill:#D23F77;}
	.st26{fill:#DAE5EF;}
	.st27{fill:#373C3F;}
	.st28{fill:#BF3333;}
	.st29{opacity:0.2;fill:#FFFFFF;}
	.st30{opacity:0.3;fill:#FFFFFF;}
	.st31{fill:#7FB239;}
</style>
<g>
	<circle class="st0" cx="16" cy="16" r="16"/>
	<path class="st2" d="M32,16c0,8.84-7.165,16-16,16c-5.03,0-9.52-2.32-12.455-5.955c2.745,2.22,6.24,3.545,10.045,3.545
		c8.835,0,16-7.16,16-16c0-3.805-1.325-7.3-3.545-10.045C29.675,6.48,32,10.97,32,16z"/>
	<g>
		<path class="st2" d="M15.363,15.759c-0.447,2.365-2.346,4.291-4.719,4.757c-3.882,0.773-7.298-2.178-7.298-5.939
			c0-1.173,0.335-2.262,0.912-3.193c0.13-0.214,0.372-0.335,0.624-0.335h9.057c0.251,0,0.493,0.121,0.624,0.335
			C15.335,12.613,15.671,14.139,15.363,15.759z"/>
		<path class="st3" d="M5.241,12.294c-0.386,0.691-0.625,1.477-0.625,2.325c0,2.65,2.149,4.79,4.79,4.79
			c2.65,0,4.799-2.14,4.799-4.79c0-0.848-0.239-1.634-0.625-2.325H5.241z"/>
		
			<ellipse transform="matrix(0.7072 -0.7071 0.7071 0.7072 -7.4375 12.355)" class="st1" cx="11.196" cy="15.156" rx="2.202" ry="2.208"/>
		<path class="st3" d="M12.422,15.785c-0.214,0-0.391-0.279-0.391-0.624c0-0.354,0.177-0.633,0.391-0.633s0.391,0.279,0.391,0.633
			C12.813,15.506,12.636,15.785,12.422,15.785z"/>
		<path class="st1" d="M13.632,6.78c0.007,0.307-0.227,0.569-0.534,0.575C10.962,7.431,8.94,8.163,7.062,9.507
			C6.816,9.694,6.45,9.629,6.285,9.384C6.099,9.134,6.159,8.783,6.408,8.606c2.06-1.486,4.289-2.284,6.649-2.361
			C13.365,6.238,13.626,6.472,13.632,6.78z"/>
		<path class="st2" d="M16.637,15.759c0.447,2.365,2.346,4.291,4.719,4.757c3.882,0.773,7.298-2.178,7.298-5.939
			c0-1.173-0.335-2.262-0.912-3.193c-0.13-0.214-0.372-0.335-0.624-0.335h-9.057c-0.251,0-0.493,0.121-0.624,0.335
			C16.665,12.613,16.329,14.139,16.637,15.759z"/>
		<path class="st3" d="M26.759,12.294c0.386,0.691,0.625,1.477,0.625,2.325c0,2.65-2.149,4.79-4.79,4.79
			c-2.65,0-4.799-2.14-4.799-4.79c0-0.848,0.239-1.634,0.625-2.325H26.759z"/>
		
			<ellipse transform="matrix(0.707 -0.7072 0.7072 0.707 -4.624 19.154)" class="st1" cx="20.804" cy="15.157" rx="2.207" ry="2.202"/>
		<path class="st3" d="M19.579,15.786c0.214,0,0.391-0.279,0.391-0.624c0-0.354-0.177-0.633-0.391-0.633
			c-0.214,0-0.391,0.279-0.391,0.633C19.188,15.507,19.365,15.786,19.579,15.786z"/>
		<path class="st1" d="M18.367,6.78c-0.007,0.307,0.227,0.569,0.535,0.575c2.136,0.076,4.158,0.808,6.036,2.152
			c0.247,0.187,0.612,0.122,0.778-0.123c0.186-0.249,0.126-0.601-0.123-0.778c-2.06-1.486-4.289-2.284-6.649-2.361
			C18.635,6.238,18.374,6.472,18.367,6.78z"/>
	</g>
	<path class="st1" d="M20.777,25.093c0,0.64-0.52,1.16-1.16,1.16h-7.234c-0.64,0-1.16-0.52-1.16-1.16c0-0.64,0.52-1.15,1.16-1.15
		h7.234C20.257,23.944,20.777,24.453,20.777,25.093z"/>
</g>
</svg>
