<?xml version="1.0" encoding="utf-8"?>
<!-- Generator: Adobe Illustrator 21.1.0, SVG Export Plug-In . SVG Version: 6.00 Build 0)  -->
<svg version="1.1" id="Layer_1" xmlns="http://www.w3.org/2000/svg" xmlns:xlink="http://www.w3.org/1999/xlink" x="0px" y="0px"
	 viewBox="0 0 32 32" style="enable-background:new 0 0 32 32;" xml:space="preserve">
<style type="text/css">
	.st0{fill:#FFD93B;}
	.st1{fill:#3E4347;}
	.st2{fill:#F4C534;}
	.st3{fill:#FFFFFF;}
	.st4{fill:#E24B4B;}
	.st5{opacity:0.2;}
	.st6{opacity:0.3;}
	.st7{fill:#5A5F63;}
	.st8{fill:#D03F3F;}
	.st9{fill:#E9EFF4;}
	.st10{fill:#DEE4E9;}
	.st11{fill:#777B7E;}
	.st12{fill:#45CBEA;}
	.st13{fill:#E84D88;}
	.st14{opacity:0.25;}
	.st15{fill:#E9B02C;}
	.st16{fill:none;stroke:#E9B02C;stroke-width:2;stroke-linecap:round;stroke-linejoin:round;stroke-miterlimit:10;}
	.st17{fill:#65B1EF;}
	.st18{fill:#F29A2E;}
	.st19{fill:#59A5E0;}
	.st20{fill:#4E99D2;}
	.st21{opacity:0.15;}
	.st22{fill:#8CC63E;}
	.st23{opacity:0.25;fill:#FFFFFF;}
	.st24{fill:#38C0DC;}
	.st25{fill:#D23F77;}
	.st26{fill:#DAE5EF;}
	.st27{fill:#373C3F;}
	.st28{fill:#BF3333;}
	.st29{opacity:0.2;fill:#FFFFFF;}
	.st30{opacity:0.3;fill:#FFFFFF;}
	.st31{fill:#7FB239;}
</style>
<g>
	<g>
		<g>
			<g>
				<g>
					<g>
						<g>
							<g>
								<g>
									<g>
										<g>
											<g>
												<g>
													<g>
														<g>
															<g>
																<g>
																	<g>
																		<g>
																			<g>
																				<g>
																					<g>
																						<g>
																							<circle class="st0" cx="16" cy="16" r="16"/>
																						</g>
																					</g>
																				</g>
																			</g>
																		</g>
																		<g>
																			<g>
																				<g>
																					<g>
																						<g>
																							<path class="st0" d="M32,16c0,8.84-7.165,16-16,16c-5.03,0-9.52-2.32-12.455-5.955
																								c2.745,2.22,6.24,3.545,10.045,3.545c8.835,0,16-7.16,16-16c0-3.805-1.325-7.3-3.545-10.045
																								C29.675,6.48,32,10.97,32,16z"/>
																						</g>
																					</g>
																				</g>
																			</g>
																		</g>
																	</g>
																</g>
															</g>
															<g>
																<g>
																	<g>
																		<g>
																			<g>
																				<g>
																					<g class="st6">
																						<g>
																							<g>
																								<path class="st3" d="M3.196,13.279c-0.302-0.08-0.482-0.391-0.402-0.693
																									c1.217-4.569,4.782-8.269,9.304-9.655c0.299-0.091,0.616,0.076,0.708,0.376
																									c0.092,0.299-0.076,0.616-0.376,0.708C8.28,5.286,5.007,8.683,3.89,12.877
																									C3.809,13.181,3.498,13.359,3.196,13.279z"/>
																							</g>
																						</g>
																					</g>
																				</g>
																			</g>
																		</g>
																	</g>
																</g>
															</g>
														</g>
													</g>
												</g>
											</g>
										</g>
									</g>
								</g>
							</g>
						</g>
					</g>
				</g>
			</g>
		</g>
	</g>
	<g>
		<g>
			<path class="st1" d="M13.862,26.706c-5.717-2.485-7.949-9.017-7.949-9.017c9.878,5.372,17.913,0.475,18.896-0.242
				c0.647,2.804,0.415,6.164-2.618,8.4C19.802,27.608,16.584,27.889,13.862,26.706z"/>
		</g>
		<g>
			<path class="st4" d="M11.152,24.637c3.998,1.917,7.839,1.386,11.798,0.021c-0.167-0.238-0.36-0.484-0.615-0.748
				c-2.988-3.099-5.119,0.486-5.119,0.486c-3.557-2.842-6.57,0.009-6.57,0.009l0.019,0.083
				C10.823,24.514,10.984,24.557,11.152,24.637z"/>
		</g>
		<path class="st3" d="M24.167,23.651c-6.889,3.222-12.285,1.191-14.627-0.082c1.136,1.223,2.563,2.372,4.322,3.137
			c2.722,1.183,5.94,0.903,8.329-0.859C23.072,25.197,23.711,24.45,24.167,23.651z"/>
		<path class="st3" d="M25.062,19.03c-0.048-0.539-0.136-1.071-0.254-1.583c-0.983,0.717-9.018,5.613-18.896,0.242
			c0,0,0.309,0.9,0.986,2.156C15.768,23.75,22.971,20.299,25.062,19.03z"/>
	</g>
	<g>
		<path class="st1" d="M25.455,11.729c-3.16,2.801-7.009,2.108-8.77,1.93c2.258-1.038,3.512-1.501,5.87-3.68
			c-0.53,1.13-1.37,2.12-2.38,2.89C21.212,12.869,23.066,12.573,25.455,11.729z"/>
	</g>
	<g>
		<g>
			<circle class="st2" cx="10.054" cy="12.638" r="4.206"/>
		</g>
		<g>
			<path class="st3" d="M13.207,12.635c0,1.741-1.405,3.157-3.157,3.157c-1.741,0-3.146-1.416-3.146-3.157s1.405-3.157,3.146-3.157
				C11.802,9.478,13.207,10.894,13.207,12.635z"/>
		</g>
		<g>
			<g>
				<ellipse class="st1" cx="10.052" cy="12.373" rx="1.955" ry="1.958"/>
			</g>
			<g>
				<path class="st7" d="M11.25,11.716c-0.103,0.168-0.394,0.177-0.646,0.028c-0.262-0.15-0.391-0.413-0.288-0.581
					c0.093-0.168,0.383-0.178,0.645-0.028C11.214,11.285,11.343,11.548,11.25,11.716z"/>
			</g>
		</g>
		<g>
			<g>
				<path class="st0" d="M16.238,15.745c-1.923-1.243-4.009-1.728-5.766-1.492c-1.164,0.157-2.381,0.679-3.517,1.492
					C6.955,20.36,16.238,20.36,16.238,15.745z"/>
			</g>
			<g>
				<path class="st2" d="M16.238,15.745c-1-0.3-2.698-1.001-4.674-1.045c-1.584-0.08-3.132,0.434-4.609,1.045
					c0.755-1,2.503-2.076,4.64-2.044C13.558,13.798,15.209,14.647,16.238,15.745z"/>
			</g>
		</g>
	</g>
</g>
</svg>
