<?xml version="1.0" encoding="utf-8"?>
<!-- Generator: Adobe Illustrator 21.1.0, SVG Export Plug-In . SVG Version: 6.00 Build 0)  -->
<svg version="1.1" id="Layer_1" xmlns="http://www.w3.org/2000/svg" xmlns:xlink="http://www.w3.org/1999/xlink" x="0px" y="0px"
	 viewBox="0 0 32 32" style="enable-background:new 0 0 32 32;" xml:space="preserve">
<style type="text/css">
	.st0{fill:#FFD93B;}
	.st1{fill:#3E4347;}
	.st2{fill:#F4C534;}
	.st3{fill:#38C0DC;}
	.st4{fill:#45CBEA;}
	.st5{fill:#FFFFFF;}
	.st6{fill:#E24B4B;}
	.st7{fill:#5A5F63;}
	.st8{opacity:0.3;}
	.st9{opacity:0.2;}
	.st10{opacity:0.1;}
	.st11{fill:#E9B02C;}
	.st12{fill:#65B1EF;}
	.st13{fill:#E9EFF4;}
	.st14{fill:#8CC63E;}
	.st15{fill:#7FB239;}
	.st16{fill:#D03F3F;}
	.st17{fill:#D23F77;}
	.st18{fill:#E84D88;}
	.st19{fill:#59A5E0;}
	.st20{fill:#DEE4E9;}
	.st21{fill:#D3D9DD;}
	.st22{opacity:0.25;fill:#FFFFFF;}
	.st23{fill:#9A795F;}
	.st24{fill:#F29A2E;}
	.st25{fill:#FC97B2;}
	.st26{fill:#89664C;}
	.st27{fill:#7A5B44;}
	.st28{opacity:0.2;fill:#FFFFFF;}
	.st29{fill:#4E99D2;}
	.st30{fill:#BBC7D1;}
	.st31{fill:#DE9C25;}
</style>
<g>
	<g>
		<g>
			<circle class="st0" cx="13.051" cy="20.784" r="11.216"/>
		</g>
		<g>
			<path class="st2" d="M24.267,20.784C24.267,26.981,19.244,32,13.051,32c-3.526,0-6.674-1.626-8.731-4.175
				c1.924,1.556,4.374,2.485,7.042,2.485c6.194,0,11.216-5.019,11.216-11.216c0-2.667-0.929-5.117-2.485-7.042
				C22.637,14.11,24.267,17.257,24.267,20.784z"/>
		</g>
	</g>
	<g>
		<g>
			<path class="st1" d="M13.051,28.431c-3.339,0-6.344-2.232-7.307-5.428c-0.084-0.278,0.073-0.571,0.351-0.655
				c0.279-0.083,0.572,0.074,0.655,0.352c0.831,2.755,3.422,4.68,6.301,4.68s5.47-1.925,6.301-4.68
				c0.084-0.278,0.375-0.434,0.655-0.352c0.278,0.084,0.435,0.377,0.351,0.655C19.395,26.198,16.389,28.431,13.051,28.431z"/>
		</g>
	</g>
	<g>
		<g>
			<g>
				<g>
					<path class="st6" d="M24.23,16.209C24.123,13.615,18.732,0,13.051,0C7.369,0,1.978,13.615,1.871,16.209
						C9.322,13.366,16.775,13.368,24.23,16.209z"/>
				</g>
			</g>
		</g>
		<g>
			<g>
				<g>
					<path class="st13" d="M0.471,17.578c-0.438-0.753-0.184-1.718,0.569-2.157c7.964-4.642,16.046-4.643,24.02,0
						c0.753,0.438,1.008,1.404,0.57,2.156c-0.438,0.753-1.403,1.008-2.156,0.57c-7.018-4.085-13.836-4.085-20.845,0
						C1.874,18.585,0.911,18.331,0.471,17.578z"/>
				</g>
			</g>
		</g>
		<g>
			<g>
				<g>
					<path class="st6" d="M13.051,0.028c0,0,5.971-0.756,11.525,5.524c4.078,4.61,5.35,6.952,5.35,6.952l-1.407,0.953
						c0,0-7.748-7.283-8.626-4.941"/>
				</g>
			</g>
		</g>
		<g>
			<g>
				<g>
					<circle class="st13" cx="28.653" cy="12.315" r="3.09"/>
				</g>
			</g>
		</g>
		<g>
			<g>
				<g>
					<path class="st20" d="M31.366,13.792c-0.525,0.964-1.545,1.613-2.713,1.613c-1.706,0-3.09-1.384-3.09-3.09
						c0-1.168,0.649-2.188,1.613-2.713c-0.235,0.439-0.371,0.939-0.371,1.471c0,1.706,1.384,3.09,3.09,3.09
						C30.427,14.163,30.928,14.027,31.366,13.792z"/>
				</g>
			</g>
		</g>
	</g>
	<g>
		<g>
			<g>
				<g>
					<circle class="st1" cx="9.009" cy="19.465" r="2.035"/>
				</g>
			</g>
			<g>
				<g>
					
						<ellipse transform="matrix(0.7071 -0.7071 0.7071 0.7071 -10.3367 12.3981)" class="st5" cx="9.797" cy="18.677" rx="0.313" ry="0.527"/>
				</g>
			</g>
		</g>
		<g>
			<g>
				<g>
					<circle class="st1" cx="17.088" cy="19.465" r="2.035"/>
				</g>
			</g>
			<g>
				<g>
					
						<ellipse transform="matrix(0.7071 -0.7071 0.7071 0.7071 -7.9705 18.1108)" class="st5" cx="17.876" cy="18.677" rx="0.313" ry="0.527"/>
				</g>
			</g>
		</g>
	</g>
</g>
</svg>
