<?xml version="1.0" encoding="utf-8"?>
<!-- Generator: Adobe Illustrator 21.1.0, SVG Export Plug-In . SVG Version: 6.00 Build 0)  -->
<svg version="1.1" id="Layer_1" xmlns="http://www.w3.org/2000/svg" xmlns:xlink="http://www.w3.org/1999/xlink" x="0px" y="0px"
	 viewBox="0 0 32 32" style="enable-background:new 0 0 32 32;" xml:space="preserve">
<style type="text/css">
	.st0{fill:#FFD93B;}
	.st1{fill:#3E4347;}
	.st2{fill:#F4C534;}
	.st3{fill:#FFFFFF;}
	.st4{fill:#E24B4B;}
	.st5{opacity:0.2;}
	.st6{opacity:0.3;}
	.st7{fill:#5A5F63;}
	.st8{fill:#D03F3F;}
	.st9{fill:#E9EFF4;}
	.st10{fill:#DEE4E9;}
	.st11{fill:#777B7E;}
	.st12{fill:#45CBEA;}
	.st13{fill:#E84D88;}
	.st14{opacity:0.25;}
	.st15{fill:#E9B02C;}
	.st16{fill:none;stroke:#E9B02C;stroke-width:2;stroke-linecap:round;stroke-linejoin:round;stroke-miterlimit:10;}
	.st17{fill:#65B1EF;}
	.st18{fill:#F29A2E;}
	.st19{fill:#59A5E0;}
	.st20{fill:#4E99D2;}
	.st21{opacity:0.15;}
	.st22{fill:#8CC63E;}
	.st23{opacity:0.25;fill:#FFFFFF;}
	.st24{fill:#38C0DC;}
	.st25{fill:#D23F77;}
	.st26{fill:#DAE5EF;}
	.st27{fill:#373C3F;}
	.st28{fill:#BF3333;}
	.st29{opacity:0.2;fill:#FFFFFF;}
	.st30{opacity:0.3;fill:#FFFFFF;}
	.st31{fill:#7FB239;}
</style>
<g>
	<g>
		<g>
			<g>
				<g>
					<g>
						<g>
							<g>
								<g>
									<g>
										<g>
											<g>
												<g>
													<g>
														<g>
															<g>
																<g>
																	<g>
																		<g>
																			<g>
																				<g>
																					<g>
																						<g>
																							<g>
																								<g>
																									<g>
																										<g>
																											<circle class="st0" cx="16" cy="16" r="16"/>
																										</g>
																									</g>
																								</g>
																							</g>
																						</g>
																						<g>
																							<g>
																								<g>
																									<g>
																										<g>
																											<path class="st0" d="M32,16c0,8.84-7.165,16-16,16c-5.03,0-9.52-2.32-12.455-5.955
																												c2.745,2.22,6.24,3.545,10.045,3.545c8.835,0,16-7.16,16-16c0-3.805-1.325-7.3-3.545-10.045
																												C29.675,6.48,32,10.97,32,16z"/>
																										</g>
																									</g>
																								</g>
																							</g>
																						</g>
																					</g>
																				</g>
																			</g>
																		</g>
																	</g>
																</g>
															</g>
														</g>
													</g>
												</g>
											</g>
										</g>
									</g>
								</g>
							</g>
						</g>
					</g>
				</g>
			</g>
		</g>
		<g>
			<g>
				<g>
					<path class="st1" d="M23.962,22.717c-0.594,3.238-3.685,5.981-7.775,5.974C12.091,28.699,9,25.955,8.406,22.717
						c-0.071-0.366,0.293-0.842,0.635-0.651c4.569,2.555,9.191,2.66,14.287,0C23.674,21.886,24.034,22.351,23.962,22.717z"/>
				</g>
			</g>
		</g>
		<g>
			<ellipse class="st1" cx="22.272" cy="14.303" rx="5.076" ry="5.734"/>
		</g>
		<g>
			<g>
				<ellipse class="st3" cx="10.33" cy="13.964" rx="4.5" ry="5.083"/>
			</g>
			<g>
				<g>
					<circle class="st1" cx="10.33" cy="14.722" r="2.352"/>
				</g>
				<g>
					<path class="st7" d="M11.792,14.582c-0.219,0.102-0.508-0.064-0.661-0.375c-0.147-0.299-0.091-0.637,0.119-0.742
						c0.219-0.102,0.52,0.058,0.664,0.366C12.067,14.142,12.014,14.471,11.792,14.582z"/>
				</g>
			</g>
		</g>
		<g>
			<path class="st1" d="M11.132,0.76c-0.101-0.276-1.064,0.076-0.962,0.352c2.041,3.11,9.775,13.921,21.355,18.699
				c0.249,0.053,0.459-0.922,0.21-0.976C20.732,14.24,13.288,4.014,11.132,0.76z"/>
		</g>
	</g>
	<g>
		<g>
			<path class="st1" d="M7.197,5.773c1-0.102,2.68-0.119,4.025,0.138c2.026,0.442,3.004,1.731,3.038,2.658
				c-0.89-0.186-2.474-1.26-3.362-1.701C9.735,6.252,8.433,6.031,7.197,5.773z"/>
		</g>
		<g>
			<path class="st1" d="M25.668,5.773c-1.222,0.255-2.533,0.476-3.7,1.095c-0.89,0.442-2.47,1.515-3.362,1.701
				c0.034-0.929,1.001-2.214,3.038-2.658C22.901,5.671,24.559,5.66,25.668,5.773z"/>
		</g>
	</g>
</g>
</svg>
