<?xml version="1.0" encoding="utf-8"?>
<!-- Generator: Adobe Illustrator 21.1.0, SVG Export Plug-In . SVG Version: 6.00 Build 0)  -->
<svg version="1.1" id="Layer_1" xmlns="http://www.w3.org/2000/svg" xmlns:xlink="http://www.w3.org/1999/xlink" x="0px" y="0px"
	 viewBox="0 0 32 32" style="enable-background:new 0 0 32 32;" xml:space="preserve">
<style type="text/css">
	.st0{fill:#FFD93B;}
	.st1{fill:#3E4347;}
	.st2{fill:#F4C534;}
	.st3{fill:#FFFFFF;}
	.st4{fill:#E24B4B;}
	.st5{opacity:0.2;}
	.st6{opacity:0.3;}
	.st7{fill:#5A5F63;}
	.st8{fill:#D03F3F;}
	.st9{fill:#E9EFF4;}
	.st10{fill:#DEE4E9;}
	.st11{fill:#777B7E;}
	.st12{fill:#45CBEA;}
	.st13{fill:#E84D88;}
	.st14{opacity:0.25;}
	.st15{fill:#E9B02C;}
	.st16{fill:none;stroke:#E9B02C;stroke-width:2;stroke-linecap:round;stroke-linejoin:round;stroke-miterlimit:10;}
	.st17{fill:#65B1EF;}
	.st18{fill:#F29A2E;}
	.st19{fill:#59A5E0;}
	.st20{fill:#4E99D2;}
	.st21{opacity:0.15;}
	.st22{fill:#8CC63E;}
	.st23{opacity:0.25;fill:#FFFFFF;}
	.st24{fill:#38C0DC;}
	.st25{fill:#D23F77;}
	.st26{fill:#DAE5EF;}
	.st27{fill:#373C3F;}
	.st28{fill:#BF3333;}
	.st29{opacity:0.2;fill:#FFFFFF;}
	.st30{opacity:0.3;fill:#FFFFFF;}
	.st31{fill:#7FB239;}
</style>
<g>
	<g>
		<g>
			<g>
				<g>
					<g>
						<g>
							<g>
								<g>
									<g>
										<g>
											<g>
												<g>
													<g>
														<g>
															<g>
																<g>
																	<g>
																		<g>
																			<g>
																				<g>
																					<g>
																						<g>
																							<g>
																								<g>
																									<g>
																										<g>
																											<g>
																												<circle class="st0" cx="16" cy="16" r="16"/>
																											</g>
																										</g>
																									</g>
																								</g>
																							</g>
																							<g>
																								<g>
																									<g>
																										<g>
																											<g>
																												<path class="st0" d="M32,16c0,8.84-7.165,16-16,16c-5.03,0-9.52-2.32-12.455-5.955
																													c2.745,2.22,6.24,3.545,10.045,3.545c8.835,0,16-7.16,16-16c0-3.805-1.325-7.3-3.545-10.045
																													C29.675,6.48,32,10.97,32,16z"/>
																											</g>
																										</g>
																									</g>
																								</g>
																							</g>
																						</g>
																					</g>
																				</g>
																			</g>
																		</g>
																	</g>
																</g>
															</g>
														</g>
													</g>
												</g>
											</g>
										</g>
									</g>
								</g>
							</g>
						</g>
					</g>
				</g>
			</g>
		</g>
		<ellipse class="st1" cx="16.001" cy="24.772" rx="3.169" ry="3.094"/>
		<g>
			<path class="st1" d="M17.986,14.354c0.081-1.103,1.146-2.584,3.158-3.31c1.486-0.411,3.078-0.346,4.574,0.475
				c-1.502,0.219-1.588-0.073-4.241,0.579C20.138,12.547,18.908,13.3,17.986,14.354z"/>
		</g>
		<g>
			<path class="st1" d="M14.014,14.354c-0.993-1.135-1.858-1.515-2.781-1.996c-1.749-0.773-3.781-0.668-4.951-0.838
				c1.304-0.716,2.879-0.944,4.574-0.475C12.876,11.773,13.934,13.268,14.014,14.354z"/>
		</g>
		<path class="st1" d="M25.428,14.708c-1.052,1.507-2.985,2.36-4.09,2.36c-0.918,0.083-1.763-0.091-2.14-0.28
			c0.16,0.48,0.39,0.96,0.67,1.42c-1.23-0.837-1.507-1.67-1.84-2.67c1.057,0.187,2.034,0.462,3.19,0.29
			C22.664,15.727,23.716,15.19,25.428,14.708z"/>
		<path class="st1" d="M14.138,15.538c-0.333,1-0.609,1.828-1.83,2.67c0.27-0.46,0.51-0.94,0.66-1.42
			c-0.818,0.41-2.538,0.471-4.03-0.25c-0.593-0.229-1.604-0.977-2.2-1.83c2.125,0.598,1.052,0.478,3.4,1
			C11.497,16.127,13.137,15.716,14.138,15.538z"/>
		<path class="st4" d="M19.798,26.576v-0.677l1.231-1.413c0.202-0.231,0.352-0.395,0.448-0.492c-0.101,0.006-0.234,0.01-0.399,0.012
			l-1.16,0.006v-0.721h2.715v0.615l-1.256,1.447l-0.442,0.479c0.241-0.014,0.391-0.022,0.448-0.022h1.345v0.764H19.798z"/>
		<path class="st4" d="M24.222,24.608V23.78l1.504-1.726c0.247-0.282,0.429-0.482,0.548-0.601c-0.123,0.008-0.286,0.013-0.487,0.015
			l-1.417,0.007v-0.88h3.317v0.752l-1.534,1.768l-0.54,0.586c0.295-0.018,0.477-0.026,0.548-0.026h1.643v0.933H24.222z"/>
		<path class="st4" d="M27.431,19.066v-0.972l1.766-2.028c0.29-0.331,0.504-0.566,0.643-0.705c-0.145,0.009-0.336,0.015-0.572,0.018
			l-1.664,0.009v-1.034h3.896v0.883l-1.801,2.076l-0.635,0.688c0.346-0.021,0.561-0.031,0.643-0.031h1.93v1.096H27.431z"/>
	</g>
	<g>
		<g>
			<g>
				<g>
					<g>
						<g>
							<g>
								<g>
									<g>
										<g>
											<g>
												<g>
													<g>
														<g>
															<g>
																<g>
																	<g>
																		<g>
																			<g>
																				<g>
																					<g class="st6">
																						<g>
																							<g>
																								<path class="st3" d="M3.196,13.279c-0.302-0.08-0.482-0.391-0.402-0.693
																									c1.217-4.569,4.782-8.269,9.304-9.655c0.299-0.091,0.617,0.076,0.708,0.376
																									c0.092,0.299-0.076,0.616-0.376,0.708C8.28,5.286,5.007,8.683,3.89,12.877
																									C3.809,13.181,3.498,13.359,3.196,13.279z"/>
																							</g>
																						</g>
																					</g>
																				</g>
																			</g>
																		</g>
																	</g>
																</g>
															</g>
														</g>
													</g>
												</g>
											</g>
										</g>
									</g>
								</g>
							</g>
						</g>
					</g>
				</g>
			</g>
		</g>
	</g>
</g>
</svg>
