<?xml version="1.0" encoding="utf-8"?>
<!-- Generator: Adobe Illustrator 21.1.0, SVG Export Plug-In . SVG Version: 6.00 Build 0)  -->
<svg version="1.1" id="Layer_1" xmlns="http://www.w3.org/2000/svg" xmlns:xlink="http://www.w3.org/1999/xlink" x="0px" y="0px"
	 viewBox="0 0 32 32" style="enable-background:new 0 0 32 32;" xml:space="preserve">
<style type="text/css">
	.st0{fill:#FFD93B;}
	.st1{fill:#3E4347;}
	.st2{fill:#F4C534;}
	.st3{fill:#FFFFFF;}
	.st4{fill:#E24B4B;}
	.st5{opacity:0.2;}
	.st6{opacity:0.3;}
	.st7{fill:#5A5F63;}
	.st8{fill:#D03F3F;}
	.st9{fill:#E9EFF4;}
	.st10{fill:#DEE4E9;}
	.st11{fill:#777B7E;}
	.st12{fill:#45CBEA;}
	.st13{fill:#E84D88;}
	.st14{opacity:0.25;}
	.st15{fill:#E9B02C;}
	.st16{fill:none;stroke:#E9B02C;stroke-width:2;stroke-linecap:round;stroke-linejoin:round;stroke-miterlimit:10;}
	.st17{fill:#65B1EF;}
	.st18{fill:#F29A2E;}
	.st19{fill:#59A5E0;}
	.st20{fill:#4E99D2;}
	.st21{opacity:0.15;}
	.st22{fill:#8CC63E;}
	.st23{opacity:0.25;fill:#FFFFFF;}
	.st24{fill:#38C0DC;}
	.st25{fill:#D23F77;}
	.st26{fill:#DAE5EF;}
	.st27{fill:#373C3F;}
	.st28{fill:#BF3333;}
	.st29{opacity:0.2;fill:#FFFFFF;}
	.st30{opacity:0.3;fill:#FFFFFF;}
	.st31{fill:#7FB239;}
</style>
<g>
	<g>
		<g>
			<g>
				<g>
					<g>
						<g>
							<g>
								<g>
									<g>
										<g>
											<g>
												<g>
													<g>
														<g>
															<g>
																<g>
																	<g>
																		<g>
																			<g>
																				<g>
																					<g>
																						<g>
																							<g>
																								<g>
																									<g>
																										<g>
																											<circle class="st0" cx="16" cy="16" r="16"/>
																										</g>
																									</g>
																								</g>
																							</g>
																						</g>
																						<g>
																							<g>
																								<g>
																									<g>
																										<g>
																											<path class="st0" d="M32,16c0,8.84-7.165,16-16,16c-5.03,0-9.52-2.32-12.455-5.955
																												c2.745,2.22,6.24,3.545,10.045,3.545c8.835,0,16-7.16,16-16c0-3.805-1.325-7.3-3.545-10.045
																												C29.675,6.48,32,10.97,32,16z"/>
																										</g>
																									</g>
																								</g>
																							</g>
																						</g>
																					</g>
																				</g>
																			</g>
																		</g>
																	</g>
																</g>
															</g>
														</g>
													</g>
												</g>
											</g>
										</g>
									</g>
								</g>
							</g>
						</g>
					</g>
				</g>
			</g>
		</g>
		<path class="st0" d="M15.187,13.208c0,2.49-2.02,4.52-4.51,4.52c-2.5,0-4.52-2.03-4.52-4.52c0-2.5,2.02-4.52,4.52-4.52
			C13.167,8.688,15.187,10.708,15.187,13.208z"/>
		<circle class="st3" cx="10.517" cy="12.824" r="4"/>
		<g>
			<path class="st4" d="M10.889,14.825c-0.082,0.09-0.21,0.115-0.321,0.066c-0.769-0.362-3.75-1.838-4.034-3.244
				c-0.197-0.978,0.432-1.924,1.406-2.122c0.752-0.152,1.492,0.189,1.875,0.806c0.115-0.715,0.666-1.32,1.418-1.472
				c0.97-0.193,1.92,0.436,2.117,1.41C13.636,11.679,11.461,14.192,10.889,14.825z"/>
		</g>
		<g>
			<path class="st8" d="M7.047,12.55c0.955,1.085,2.918,2.056,3.522,2.341c0.111,0.049,0.238,0.024,0.321-0.066
				c0.238-0.264,0.756-0.857,1.257-1.559C9.771,14.786,7.246,12.718,7.047,12.55z"/>
		</g>
		
			<ellipse transform="matrix(0.3049 -0.9524 0.9524 0.3049 -1.0202 18.1345)" class="st3" cx="11.913" cy="9.766" rx="0.367" ry="0.618"/>
		<path class="st0" d="M16.813,13.208c0,2.49,2.02,4.52,4.51,4.52c2.5,0,4.52-2.03,4.52-4.52c0-2.5-2.02-4.52-4.52-4.52
			C18.833,8.688,16.813,10.708,16.813,13.208z"/>
		<circle class="st3" cx="21.483" cy="12.824" r="4"/>
		<g>
			<path class="st4" d="M21.111,14.825c0.082,0.09,0.21,0.115,0.321,0.066c0.769-0.362,3.75-1.838,4.034-3.244
				c0.197-0.978-0.432-1.924-1.406-2.122c-0.753-0.152-1.493,0.189-1.875,0.806c-0.115-0.715-0.666-1.32-1.418-1.472
				c-0.97-0.193-1.92,0.436-2.118,1.41C18.364,11.679,20.539,14.192,21.111,14.825z"/>
		</g>
		<g>
			<path class="st8" d="M24.953,12.55c-0.955,1.085-2.918,2.056-3.521,2.341c-0.111,0.049-0.238,0.024-0.321-0.066
				c-0.238-0.264-0.756-0.857-1.257-1.559C22.229,14.786,24.754,12.718,24.953,12.55z"/>
		</g>
		
			<ellipse transform="matrix(0.9524 -0.3049 0.3049 0.9524 -2.0212 6.5889)" class="st3" cx="20.087" cy="9.766" rx="0.618" ry="0.367"/>
		<path class="st1" d="M26.059,20.847c-1.23,4.4-5.26,7.62-10.05,7.62c-4.81,0-8.84-3.24-10.07-7.66c-0.14-0.53,0.39-1,0.91-0.81
			c6.2,2.19,12.3,2.28,18.29,0.04C25.669,19.837,26.209,20.306,26.059,20.847z"/>
		<path class="st4" d="M16.009,28.467c1.25,0,2.446-0.224,3.557-0.626c-0.218-0.967-0.766-1.814-1.526-2.403
			c-0.549-0.426-1.292-0.513-1.906-0.188c-0.253,0.13-0.556,0.202-0.903,0.202c-0.202,0-0.397-0.021-0.57-0.072
			c-0.837-0.238-1.754-0.108-2.347,0.542c-0.391,0.423-0.688,0.929-0.879,1.486C12.817,28.081,14.365,28.467,16.009,28.467z"/>
		<path class="st23" d="M17.895,26.209c-0.083,0.182-0.386,0.22-0.677,0.087c-0.291-0.133-0.461-0.386-0.378-0.568
			c0.079-0.173,0.382-0.211,0.673-0.078C17.803,25.783,17.973,26.036,17.895,26.209z"/>
	</g>
	<g>
		<g>
			<path class="st1" d="M26.384,7.371c-1.26-0.325-3.031-0.566-4.497-0.471c-1.446,0.063-3.533,0.827-4.404,0.756
				c0.628-1.569,2.974-1.957,4.395-1.871C23.634,5.823,25.556,6.629,26.384,7.371z"/>
		</g>
		<g>
			<path class="st1" d="M6.221,7.371c0.828-0.742,2.75-1.548,4.506-1.586c1.563-0.094,3.802,0.389,4.395,1.871
				c-0.836,0.068-2.891-0.69-4.404-0.756C9.263,6.806,7.496,7.043,6.221,7.371z"/>
		</g>
	</g>
</g>
</svg>
