<?xml version="1.0" encoding="utf-8"?>
<!-- Generator: Adobe Illustrator 21.1.0, SVG Export Plug-In . SVG Version: 6.00 Build 0)  -->
<svg version="1.1" id="Layer_1" xmlns="http://www.w3.org/2000/svg" xmlns:xlink="http://www.w3.org/1999/xlink" x="0px" y="0px"
	 viewBox="0 0 32 32" style="enable-background:new 0 0 32 32;" xml:space="preserve">
<style type="text/css">
	.st0{fill:#FFD93B;}
	.st1{fill:#3E4347;}
	.st2{fill:#F4C534;}
	.st3{fill:#FFFFFF;}
	.st4{fill:#E24B4B;}
	.st5{opacity:0.2;}
	.st6{opacity:0.3;}
	.st7{fill:#5A5F63;}
	.st8{fill:#D03F3F;}
	.st9{fill:#E9EFF4;}
	.st10{fill:#DEE4E9;}
	.st11{fill:#777B7E;}
	.st12{fill:#45CBEA;}
	.st13{fill:#E84D88;}
	.st14{opacity:0.25;}
	.st15{fill:#E9B02C;}
	.st16{fill:none;stroke:#E9B02C;stroke-width:2;stroke-linecap:round;stroke-linejoin:round;stroke-miterlimit:10;}
	.st17{fill:#65B1EF;}
	.st18{fill:#F29A2E;}
	.st19{fill:#59A5E0;}
	.st20{fill:#4E99D2;}
	.st21{opacity:0.15;}
	.st22{fill:#8CC63E;}
	.st23{opacity:0.25;fill:#FFFFFF;}
	.st24{fill:#38C0DC;}
	.st25{fill:#D23F77;}
	.st26{fill:#DAE5EF;}
	.st27{fill:#373C3F;}
	.st28{fill:#BF3333;}
	.st29{opacity:0.2;fill:#FFFFFF;}
	.st30{opacity:0.3;fill:#FFFFFF;}
	.st31{fill:#7FB239;}
</style>
<g>
	<g>
		<g>
			<g>
				<g>
					<g>
						<g>
							<g>
								<g>
									<g>
										<g>
											<g>
												<g>
													<g>
														<g>
															<g>
																<g>
																	<g>
																		<g>
																			<g>
																				<g>
																					<g>
																						<g>
																							<g>
																								<g>
																									<g>
																										<g>
																											<g>
																												<circle class="st0" cx="16" cy="16" r="15.998"/>
																											</g>
																										</g>
																									</g>
																								</g>
																							</g>
																							<g>
																								<g>
																									<g>
																										<g>
																											<g>
																												<path class="st0" d="M31.998,16c0,8.839-7.164,15.998-15.998,15.998c-5.029,0-9.519-2.32-12.453-5.954
																													c2.745,2.22,6.239,3.545,10.044,3.545c8.834,0,15.998-7.159,15.998-15.998
																													c0-3.805-1.325-7.299-3.545-10.044C29.673,6.481,31.998,10.971,31.998,16z"/>
																											</g>
																										</g>
																									</g>
																								</g>
																							</g>
																						</g>
																					</g>
																				</g>
																			</g>
																		</g>
																	</g>
																</g>
															</g>
														</g>
													</g>
												</g>
											</g>
										</g>
									</g>
								</g>
							</g>
						</g>
					</g>
				</g>
			</g>
		</g>
	</g>
	<g>
		<g>
			<path class="st9" d="M32,6.213v10.321c0,0.685-0.554,1.239-1.23,1.239H19.08c-0.811,0-1.468-0.657-1.468-1.468v-1.329
				c0-0.805-0.554-1.548-1.349-1.671c-1.012-0.156-1.874,0.625-1.874,1.596v1.404c0,0.811-0.657,1.468-1.468,1.468H1.23
				c-0.679,0-1.23-0.551-1.23-1.23V6.213c0-0.679,0.551-1.23,1.23-1.23h29.54C31.446,4.983,32,5.528,32,6.213z"/>
			<g>
				<path class="st12" d="M12.789,8.62v5.516c0,0.799-0.641,1.44-1.441,1.44H3.637c-0.799,0-1.441-0.641-1.441-1.44V8.62
					c0-0.799,0.641-1.441,1.441-1.441h7.712C12.148,7.179,12.789,7.82,12.789,8.62z"/>
				<path class="st13" d="M29.804,8.62v5.516c0,0.799-0.641,1.44-1.441,1.44h-7.712c-0.799,0-1.441-0.641-1.441-1.44V8.62
					c0-0.799,0.641-1.441,1.441-1.441h7.712C29.163,7.179,29.804,7.82,29.804,8.62z"/>
			</g>
		</g>
		<g>
			<g>
				<polygon class="st24" points="5.949,7.179 2.196,10.932 2.196,11.883 6.901,7.179 				"/>
				<path class="st24" d="M7.706,7.179l-5.51,5.51v1.447c0,0.117,0.018,0.23,0.044,0.339l7.296-7.296H7.706z"/>
			</g>
			<g>
				<polygon class="st25" points="23.334,7.179 19.211,11.302 19.211,12.254 24.285,7.179 				"/>
				<path class="st25" d="M25.091,7.179l-5.88,5.88v1.077c0,0.221,0.053,0.427,0.14,0.613l7.57-7.57H25.091z"/>
			</g>
		</g>
	</g>
	<g>
		<g>
			<path class="st1" d="M20.593,24.701c0,2.793-2.057,5.062-4.589,5.062c-2.542,0-4.589-2.269-4.589-5.062
				c0-2.793,2.047-5.062,4.589-5.062C18.536,19.639,20.593,21.908,20.593,24.701z"/>
		</g>
		<path class="st4" d="M16.004,29.763c1.313,0,2.49-0.618,3.326-1.594c-0.012-1.185-0.978-2.137-2.157-2.137
			c-0.571,0-1.08,0.214-1.463,0.58c-0.268-0.125-0.562-0.188-0.874-0.188c-1.068,0-1.946,0.786-2.113,1.808
			C13.554,29.174,14.714,29.763,16.004,29.763z"/>
	</g>
	<g class="st5">
		<path class="st3" d="M18.141,27.178c-0.06,0.21-0.36,0.32-0.68,0.24c-0.32-0.08-0.53-0.32-0.47-0.54
			c0.05-0.21,0.36-0.32,0.67-0.24C17.981,26.728,18.191,26.968,18.141,27.178z"/>
	</g>
</g>
</svg>
