<?xml version="1.0" encoding="utf-8"?>
<!-- Generator: Adobe Illustrator 21.1.0, SVG Export Plug-In . SVG Version: 6.00 Build 0)  -->
<svg version="1.1" id="Layer_1" xmlns="http://www.w3.org/2000/svg" xmlns:xlink="http://www.w3.org/1999/xlink" x="0px" y="0px"
	 viewBox="0 0 32 32" style="enable-background:new 0 0 32 32;" xml:space="preserve">
<style type="text/css">
	.st0{fill:#FFD93B;}
	.st1{fill:#3E4347;}
	.st2{fill:#F4C534;}
	.st3{fill:#FFFFFF;}
	.st4{fill:#E24B4B;}
	.st5{opacity:0.2;}
	.st6{opacity:0.3;}
	.st7{fill:#5A5F63;}
	.st8{fill:#D03F3F;}
	.st9{fill:#E9EFF4;}
	.st10{fill:#DEE4E9;}
	.st11{fill:#777B7E;}
	.st12{fill:#45CBEA;}
	.st13{fill:#E84D88;}
	.st14{opacity:0.25;}
	.st15{fill:#E9B02C;}
	.st16{fill:none;stroke:#E9B02C;stroke-width:2;stroke-linecap:round;stroke-linejoin:round;stroke-miterlimit:10;}
	.st17{fill:#65B1EF;}
	.st18{fill:#F29A2E;}
	.st19{fill:#59A5E0;}
	.st20{fill:#4E99D2;}
	.st21{opacity:0.15;}
	.st22{fill:#8CC63E;}
	.st23{opacity:0.25;fill:#FFFFFF;}
	.st24{fill:#38C0DC;}
	.st25{fill:#D23F77;}
	.st26{fill:#DAE5EF;}
	.st27{fill:#373C3F;}
	.st28{fill:#BF3333;}
	.st29{opacity:0.2;fill:#FFFFFF;}
	.st30{opacity:0.3;fill:#FFFFFF;}
	.st31{fill:#7FB239;}
</style>
<g>
	<g>
		<g>
			<g>
				<g>
					<g>
						<g>
							<g>
								<g>
									<g>
										<g>
											<g>
												<g>
													<g>
														<g>
															<g>
																<g>
																	<g>
																		<g>
																			<g>
																				<g>
																					<g>
																						<g>
																							<g>
																								<g>
																									<g>
																										<circle class="st0" cx="16" cy="16" r="15.998"/>
																									</g>
																								</g>
																							</g>
																						</g>
																					</g>
																					<g>
																						<g>
																							<g>
																								<g>
																									<g>
																										<path class="st0" d="M31.998,16c0,8.839-7.164,15.998-15.998,15.998c-5.029,0-9.519-2.32-12.453-5.954
																											c2.745,2.22,6.239,3.545,10.044,3.545c8.834,0,15.998-7.159,15.998-15.998
																											c0-3.805-1.325-7.299-3.545-10.044C29.673,6.481,31.998,10.971,31.998,16z"/>
																									</g>
																								</g>
																							</g>
																						</g>
																					</g>
																				</g>
																			</g>
																		</g>
																	</g>
																</g>
															</g>
														</g>
													</g>
												</g>
											</g>
										</g>
									</g>
								</g>
							</g>
						</g>
					</g>
				</g>
			</g>
		</g>
	</g>
	<path class="st1" d="M23.818,25.198c0.383,1.76-0.632,3.186-2.269,3.186c-1.637,0-3.274-1.426-3.658-3.186s0.632-3.186,2.269-3.186
		S23.434,23.438,23.818,25.198z"/>
	<circle class="st3" cx="10.624" cy="14.63" r="4.132"/>
	<path class="st1" d="M5.008,12.633c0.25-2.564,2.562-4.833,5.609-5.038c1.753-0.129,2.956,0.574,3.434,1.396
		c-0.46,0.033-2.833-0.187-3.368-0.16C8.175,8.928,6.037,10.543,5.008,12.633z"/>
	<g>
		
			<ellipse transform="matrix(0.7072 -0.707 0.707 0.7072 -7.5169 11.9153)" class="st1" cx="10.626" cy="15.032" rx="2.157" ry="2.158"/>
	</g>
	<g>
		<path class="st7" d="M10.99,16.337c-0.175-0.175-0.1-0.526,0.163-0.776c0.25-0.263,0.6-0.338,0.775-0.162
			c0.163,0.162,0.088,0.513-0.163,0.775C11.503,16.424,11.153,16.499,10.99,16.337z"/>
	</g>
	<circle class="st3" cx="21.376" cy="14.63" r="4.132"/>
	<path class="st1" d="M26.992,12.633c-0.59-1.2-1.654-2.392-2.987-3.074c-2.543-1.278-4.415-0.45-6.056-0.568
		c1.149-1.976,4.683-1.689,6.593-0.311C26.018,9.699,26.854,11.221,26.992,12.633z"/>
	<g>
		
			<ellipse transform="matrix(0.707 -0.7072 0.7072 0.707 -4.3688 19.5189)" class="st1" cx="21.374" cy="15.032" rx="2.158" ry="2.158"/>
	</g>
	<g>
		<path class="st7" d="M21.01,16.337c0.175-0.175,0.1-0.526-0.163-0.776c-0.25-0.263-0.601-0.338-0.776-0.162
			c-0.163,0.162-0.088,0.513,0.163,0.775C20.497,16.424,20.847,16.499,21.01,16.337z"/>
	</g>
</g>
</svg>
