<?xml version="1.0" encoding="utf-8"?>
<!-- Generator: Adobe Illustrator 21.1.0, SVG Export Plug-In . SVG Version: 6.00 Build 0)  -->
<svg version="1.1" id="Layer_1" xmlns="http://www.w3.org/2000/svg" xmlns:xlink="http://www.w3.org/1999/xlink" x="0px" y="0px"
	 viewBox="0 0 32 32" style="enable-background:new 0 0 32 32;" xml:space="preserve">
<style type="text/css">
	.st0{fill:#FFD93B;}
	.st1{fill:#3E4347;}
	.st2{fill:#F4C534;}
	.st3{fill:#FFFFFF;}
	.st4{fill:#E24B4B;}
	.st5{opacity:0.2;}
	.st6{opacity:0.3;}
	.st7{fill:#5A5F63;}
	.st8{fill:#D03F3F;}
	.st9{fill:#E9EFF4;}
	.st10{fill:#DEE4E9;}
	.st11{fill:#777B7E;}
	.st12{fill:#45CBEA;}
	.st13{fill:#E84D88;}
	.st14{opacity:0.25;}
	.st15{fill:#E9B02C;}
	.st16{fill:none;stroke:#E9B02C;stroke-width:2;stroke-linecap:round;stroke-linejoin:round;stroke-miterlimit:10;}
	.st17{fill:#65B1EF;}
	.st18{fill:#F29A2E;}
	.st19{fill:#59A5E0;}
	.st20{fill:#4E99D2;}
	.st21{opacity:0.15;}
	.st22{fill:#8CC63E;}
	.st23{opacity:0.25;fill:#FFFFFF;}
	.st24{fill:#38C0DC;}
	.st25{fill:#D23F77;}
	.st26{fill:#DAE5EF;}
	.st27{fill:#373C3F;}
	.st28{fill:#BF3333;}
	.st29{opacity:0.2;fill:#FFFFFF;}
	.st30{opacity:0.3;fill:#FFFFFF;}
	.st31{fill:#7FB239;}
</style>
<g>
	<g>
		<g>
			<g>
				<g>
					<g>
						<g>
							<g>
								<g>
									<g>
										<g>
											<g>
												<g>
													<g>
														<g>
															<g>
																<g>
																	<g>
																		<g>
																			<g>
																				<g>
																					<g>
																						<g>
																							<g>
																								<g>
																									<g>
																										<circle class="st0" cx="16" cy="16" r="16"/>
																									</g>
																								</g>
																							</g>
																						</g>
																					</g>
																					<g>
																						<g>
																							<g>
																								<g>
																									<g>
																										<path class="st2" d="M32,16c0,8.84-7.165,16-16,16c-5.03,0-9.52-2.32-12.455-5.955
																											c2.745,2.22,6.24,3.545,10.045,3.545c8.835,0,16-7.16,16-16c0-3.805-1.325-7.3-3.545-10.045
																											C29.675,6.48,32,10.97,32,16z"/>
																									</g>
																								</g>
																							</g>
																						</g>
																					</g>
																				</g>
																			</g>
																		</g>
																	</g>
																</g>
															</g>
														</g>
													</g>
												</g>
											</g>
										</g>
									</g>
								</g>
							</g>
						</g>
					</g>
				</g>
			</g>
		</g>
	</g>
	<path class="st2" d="M16.764,14.292c0,2.977,2.302,5.397,5.166,5.397c2.847,0,5.166-2.42,5.166-5.397
		c0-2.977-2.319-5.397-5.166-5.397C19.065,8.895,16.764,11.316,16.764,14.292z"/>
	<path class="st3" d="M17.804,13.945c0,2.365,1.841,4.298,4.126,4.298c2.267,0,4.109-1.934,4.109-4.298
		c0-2.379-1.841-4.312-4.109-4.312C19.645,9.633,17.804,11.566,17.804,13.945z"/>
	<g>
		<circle class="st1" cx="20.613" cy="14.94" r="1.82"/>
	</g>
	<g>
		<path class="st7" d="M20.134,14.821c-0.147,0.319-0.44,0.488-0.659,0.391c-0.229-0.103-0.286-0.435-0.147-0.753
			c0.147-0.32,0.438-0.496,0.667-0.393C20.213,14.163,20.273,14.504,20.134,14.821z"/>
	</g>
	<path class="st1" d="M20.959,7.201c-0.362-0.076-0.751-0.023-1.078,0.148c2.721-2.494,5.516-0.365,7.158-0.398
		c-1.194-0.615-2.016-1.224-3.002-1.567c-3.942-1.372-5.034,0.462-5.286,1.605c-0.251,1.136-1.111,2.128-2.22,2.558
		c0.553-0.172,1.22,0.055,1.786-0.005C19.732,9.392,19.832,7.576,20.959,7.201z"/>
	<path class="st2" d="M15.236,14.292c0,2.977-2.302,5.397-5.166,5.397c-2.847,0-5.166-2.42-5.166-5.397
		c0-2.977,2.319-5.397,5.166-5.397C12.935,8.895,15.236,11.316,15.236,14.292z"/>
	<path class="st3" d="M14.196,13.945c0,2.365-1.841,4.298-4.126,4.298c-2.268,0-4.109-1.934-4.109-4.298
		c0-2.379,1.841-4.312,4.109-4.312C12.355,9.633,14.196,11.566,14.196,13.945z"/>
	<path class="st1" d="M11.042,7.201c0.362-0.076,0.751-0.023,1.078,0.148C9.398,4.855,6.603,6.983,4.962,6.95
		c1.194-0.615,2.016-1.224,3.002-1.567c3.942-1.372,5.034,0.462,5.286,1.605c0.251,1.136,1.111,2.128,2.22,2.558
		c-0.553-0.172-1.22,0.055-1.786-0.005C12.269,9.392,12.168,7.576,11.042,7.201z"/>
	<circle class="st1" cx="11.342" cy="14.94" r="1.82"/>
	<path class="st7" d="M11.822,14.821c0.147,0.319,0.44,0.488,0.659,0.391c0.229-0.103,0.286-0.435,0.147-0.753
		c-0.147-0.32-0.438-0.496-0.667-0.393C11.743,14.163,11.683,14.504,11.822,14.821z"/>
	<path class="st7" d="M9.094,21.682c0.157,0.91,3.469,14.257,14.151,0.531c-6.269,1.145-9.24,1.638-13.1-0.01
		C9.407,21.888,9.094,21.682,9.094,21.682z"/>
	<path class="st3" d="M16.866,25.614c0.77-0.112,0.241-0.014,2.884-0.627c0.517-0.487,1.067-1.057,1.648-1.723
		c-4.301,0.712-7.299,1.286-11.255-0.34c0.132,0.395,0.308,0.854,0.525,1.326c0.987,0.528,2.016,0.973,3.246,1.287
		c-0.811,0.008-1.736-0.076-2.714-0.279c0.783,1.292,1.932,2.433,3.548,2.415c0.994-0.011,2.459-0.469,4.422-2.164
		C17.17,25.637,17.593,25.625,16.866,25.614z"/>
	<path class="st2" d="M23.974,20.121c0.313,0.88,0.801,1.722,1.504,2.373c0.061,0.064,0.094,0.107,0.094,0.107
		C24.457,22.566,23.531,21.066,23.974,20.121z"/>
	<path class="st2" d="M8.662,20.121c0.434,0.926-0.472,2.444-1.598,2.48C7.824,21.602,8.042,21.862,8.662,20.121z"/>
</g>
</svg>
