<?xml version="1.0" encoding="utf-8"?>
<!-- Generator: Adobe Illustrator 21.1.0, SVG Export Plug-In . SVG Version: 6.00 Build 0)  -->
<svg version="1.1" id="Layer_1" xmlns="http://www.w3.org/2000/svg" xmlns:xlink="http://www.w3.org/1999/xlink" x="0px" y="0px"
	 viewBox="0 0 32 32" style="enable-background:new 0 0 32 32;" xml:space="preserve">
<style type="text/css">
	.st0{fill:#FFD93B;}
	.st1{fill:#3E4347;}
	.st2{fill:#F4C534;}
	.st3{fill:#FFFFFF;}
	.st4{fill:#E24B4B;}
	.st5{opacity:0.2;}
	.st6{opacity:0.3;}
	.st7{fill:#5A5F63;}
	.st8{fill:#D03F3F;}
	.st9{fill:#E9EFF4;}
	.st10{fill:#DEE4E9;}
	.st11{fill:#777B7E;}
	.st12{fill:#45CBEA;}
	.st13{fill:#E84D88;}
	.st14{opacity:0.25;}
	.st15{fill:#E9B02C;}
	.st16{fill:none;stroke:#E9B02C;stroke-width:2;stroke-linecap:round;stroke-linejoin:round;stroke-miterlimit:10;}
	.st17{fill:#65B1EF;}
	.st18{fill:#F29A2E;}
	.st19{fill:#59A5E0;}
	.st20{fill:#4E99D2;}
	.st21{opacity:0.15;}
	.st22{fill:#8CC63E;}
	.st23{opacity:0.25;fill:#FFFFFF;}
	.st24{fill:#38C0DC;}
	.st25{fill:#D23F77;}
	.st26{fill:#DAE5EF;}
	.st27{fill:#373C3F;}
	.st28{fill:#BF3333;}
	.st29{opacity:0.2;fill:#FFFFFF;}
	.st30{opacity:0.3;fill:#FFFFFF;}
	.st31{fill:#7FB239;}
</style>
<g>
	<g>
		<g>
			<g>
				<g>
					<g>
						<g>
							<g>
								<g>
									<g>
										<g>
											<g>
												<g>
													<g>
														<g>
															<g>
																<g>
																	<g>
																		<g>
																			<g>
																				<g>
																					<g>
																						<g>
																							<g>
																								<g>
																									<g>
																										<g>
																											<g>
																												<circle class="st0" cx="16" cy="16" r="16"/>
																											</g>
																										</g>
																									</g>
																								</g>
																							</g>
																							<g>
																								<g>
																									<g>
																										<g>
																											<g>
																												<path class="st2" d="M32,16c0,8.84-7.165,16-16,16c-5.03,0-9.52-2.32-12.455-5.955
																													c2.745,2.22,6.24,3.545,10.045,3.545c8.835,0,16-7.16,16-16c0-3.805-1.325-7.3-3.545-10.045
																													C29.675,6.48,32,10.97,32,16z"/>
																											</g>
																										</g>
																									</g>
																								</g>
																							</g>
																						</g>
																					</g>
																				</g>
																			</g>
																		</g>
																	</g>
																</g>
															</g>
														</g>
													</g>
												</g>
											</g>
										</g>
									</g>
								</g>
							</g>
						</g>
					</g>
				</g>
			</g>
		</g>
		<g>
			<g>
				<g>
					<path class="st1" d="M14.7,8.361c-2.403-1.366-5.59-0.98-8.12-0.309c0,0,2.993-1.929,4.558-1.877
						C14,6.269,14.7,8.361,14.7,8.361z"/>
				</g>
			</g>
			<g>
				<g>
					<path class="st1" d="M18.878,8.361c2.403-1.366,5.59-0.98,8.121-0.309c0,0-2.993-1.929-4.558-1.877
						C19.578,6.269,18.878,8.361,18.878,8.361z"/>
				</g>
			</g>
		</g>
	</g>
	<g>
		<g>
			<g>
				<path class="st1" d="M15.268,16.204c0,0-4.192,1.332-6.074,0.862c-1.875-0.468-3.645-2.215-3.074-4.502
					c0.525-2.105,2.93-2.976,5.052-2.446C14.032,10.832,15.268,16.204,15.268,16.204z"/>
			</g>
			<g>
				<g>
					<path class="st3" d="M15.287,16.131c0,0-3.635,1.137-5.303,0.721c-1.661-0.415-3.23-1.962-2.724-3.989
						c0.465-1.865,2.35-2.517,4.231-2.048C14.025,11.446,15.287,16.131,15.287,16.131z"/>
				</g>
				<path class="st1" d="M9.732,9.971C8.97,9.97,8.246,10.241,7.497,10.402c-0.568,0.122-1.144,0.245-1.723,0.206
					c-0.579-0.039-1.172-0.26-1.532-0.715c-0.024,0.351,0.098,0.71,0.331,0.973c0.233,0.264,0.574,0.428,0.926,0.447
					c-0.532,0.302-1.152,0.448-1.763,0.416c0.353,0.293,0.816,0.451,1.275,0.435c-0.436,0.402-1.011,0.652-1.603,0.695
					c0.506,0.29,1.14,0.346,1.69,0.149c-0.196,0.552-0.655,1.004-1.21,1.192c0.369,0.012,0.741,0.023,1.105-0.038
					c0.364-0.062,0.724-0.202,0.99-0.458c0.489-0.471,0.566-1.214,0.846-1.832c0.449-0.994,1.506-1.681,2.597-1.688"/>
				<g>
					<g>
						
							<ellipse transform="matrix(0.7071 -0.7071 0.7071 0.7071 -6.2925 12.1261)" class="st1" cx="11.491" cy="13.659" rx="1.882" ry="1.882"/>
					</g>
					<g>
						
							<ellipse transform="matrix(0.7071 -0.7071 0.7071 0.7071 -5.495 12.455)" class="st7" cx="12.287" cy="12.861" rx="0.352" ry="0.603"/>
					</g>
				</g>
			</g>
		</g>
		<g>
			<g>
				<path class="st1" d="M16.732,16.204c0,0,4.192,1.332,6.074,0.862c1.875-0.468,3.645-2.215,3.074-4.502
					c-0.525-2.105-2.93-2.976-5.052-2.446C17.968,10.832,16.732,16.204,16.732,16.204z"/>
			</g>
			<g>
				<g>
					<path class="st3" d="M16.713,16.131c0,0,3.635,1.137,5.303,0.721c1.661-0.415,3.23-1.962,2.724-3.989
						c-0.465-1.865-2.35-2.517-4.231-2.048C17.976,11.446,16.713,16.131,16.713,16.131z"/>
				</g>
				<path class="st1" d="M22.269,9.971c0.761-0.001,1.486,0.271,2.235,0.432c0.567,0.122,1.144,0.245,1.723,0.206
					c0.579-0.039,1.172-0.26,1.532-0.715c0.024,0.351-0.098,0.71-0.331,0.973c-0.233,0.264-0.574,0.428-0.926,0.447
					c0.532,0.302,1.152,0.448,1.763,0.416c-0.353,0.293-0.816,0.451-1.275,0.435c0.436,0.402,1.011,0.652,1.603,0.695
					c-0.506,0.29-1.141,0.346-1.69,0.149c0.196,0.552,0.655,1.004,1.21,1.192c-0.369,0.012-0.741,0.023-1.105-0.038
					c-0.364-0.062-0.724-0.202-0.99-0.458c-0.489-0.471-0.566-1.214-0.846-1.832c-0.449-0.994-1.507-1.681-2.597-1.688"/>
				<g>
					<g>
						
							<ellipse transform="matrix(0.7071 -0.7071 0.7071 0.7071 -3.6514 18.5024)" class="st1" cx="20.509" cy="13.659" rx="1.882" ry="1.882"/>
					</g>
					<g>
						
							<ellipse transform="matrix(0.7071 -0.7071 0.7071 0.7071 -3.3197 17.7073)" class="st7" cx="19.713" cy="12.861" rx="0.603" ry="0.352"/>
					</g>
				</g>
			</g>
		</g>
	</g>
	<g>
		<g>
			<path class="st1" d="M22.028,19.43l0.016,0.073c1.087,4.833-1.558,6.846-5.234,7.492c-3.675,0.646-6.93,0.017-7.949-4.475
				c-0.155-0.685-0.179-1.367-0.078-2.035c1.73,2.353,4.612,2.618,7.767,2.065C18.958,22.126,20.981,21.197,22.028,19.43z"/>
		</g>
		<path class="st9" d="M16.55,22.55c-1.896,0.332-3.689,0.358-5.197-0.177c-0.067,0.554-0.042,1.122,0.086,1.686
			c0.027,0.119,0.079,0.226,0.114,0.342c0.01,0.006,0.013,0.009,0.025,0.016c0.099,0.056,0.247,0.133,0.44,0.213
			c0.383,0.159,0.942,0.313,1.531,0.38c0.589,0.067,1.201,0.052,1.658-0.002c0.458-0.047,0.764-0.108,0.764-0.108
			s-0.289,0.11-0.742,0.235c-0.451,0.131-1.073,0.254-1.713,0.29c-0.557,0.031-1.116-0.012-1.569-0.093
			c0.397,0.72,0.95,1.344,1.641,1.82c0.999,0.119,2.091,0.042,3.223-0.157c3.676-0.646,6.321-2.66,5.234-7.492l-0.016-0.073
			C20.981,21.197,18.958,22.126,16.55,22.55z"/>
	</g>
	<g>
		<path class="st3" d="M23.603,22.918c0,0-0.509,0.139-1.218,0.174c-0.192,0.01-0.347,0.162-0.359,0.354
			c-0.046,0.711-0.192,1.228-0.192,1.228s-0.148-0.526-0.193-1.246c-0.012-0.187-0.159-0.337-0.345-0.353
			c-0.719-0.061-1.24-0.221-1.24-0.221s0.515-0.139,1.229-0.174c0.191-0.01,0.345-0.161,0.359-0.352
			c0.048-0.687,0.191-1.183,0.191-1.183s0.145,0.505,0.191,1.202c0.013,0.186,0.159,0.336,0.345,0.351
			C23.085,22.758,23.603,22.918,23.603,22.918z"/>
	</g>
	<g>
		<path class="st3" d="M21.578,21.512c0,0-0.23,0.063-0.551,0.079c-0.087,0.004-0.157,0.073-0.162,0.16
			c-0.021,0.322-0.087,0.556-0.087,0.556s-0.067-0.238-0.087-0.564c-0.005-0.085-0.072-0.153-0.156-0.16
			c-0.326-0.028-0.561-0.1-0.561-0.1s0.233-0.063,0.556-0.079c0.087-0.004,0.156-0.073,0.162-0.159
			c0.022-0.311,0.086-0.536,0.086-0.536s0.065,0.229,0.087,0.544c0.006,0.084,0.072,0.152,0.156,0.159
			C21.343,21.44,21.578,21.512,21.578,21.512z"/>
	</g>
	<g>
		<path class="st3" d="M24.406,21.147c0,0-0.23,0.063-0.551,0.079c-0.087,0.004-0.157,0.073-0.162,0.16
			c-0.021,0.322-0.087,0.556-0.087,0.556s-0.067-0.238-0.087-0.564c-0.005-0.084-0.072-0.153-0.156-0.16
			c-0.326-0.028-0.561-0.1-0.561-0.1s0.233-0.063,0.556-0.079c0.087-0.004,0.156-0.073,0.162-0.159
			c0.022-0.311,0.086-0.536,0.086-0.536s0.065,0.229,0.087,0.544c0.006,0.084,0.072,0.152,0.156,0.159
			C24.172,21.075,24.406,21.147,24.406,21.147z"/>
	</g>
</g>
</svg>
