<?xml version="1.0" encoding="utf-8"?>
<!-- Generator: Adobe Illustrator 21.1.0, SVG Export Plug-In . SVG Version: 6.00 Build 0)  -->
<svg version="1.1" id="Layer_1" xmlns="http://www.w3.org/2000/svg" xmlns:xlink="http://www.w3.org/1999/xlink" x="0px" y="0px"
	 viewBox="0 0 32 32" style="enable-background:new 0 0 32 32;" xml:space="preserve">
<style type="text/css">
	.st0{fill:#FFD93B;}
	.st1{fill:#3E4347;}
	.st2{fill:#F4C534;}
	.st3{fill:#FFFFFF;}
	.st4{fill:#E24B4B;}
	.st5{opacity:0.2;}
	.st6{opacity:0.3;}
	.st7{fill:#5A5F63;}
	.st8{fill:#D03F3F;}
	.st9{fill:#E9EFF4;}
	.st10{fill:#DEE4E9;}
	.st11{fill:#777B7E;}
	.st12{fill:#45CBEA;}
	.st13{fill:#E84D88;}
	.st14{opacity:0.25;}
	.st15{fill:#E9B02C;}
	.st16{fill:none;stroke:#E9B02C;stroke-width:2;stroke-linecap:round;stroke-linejoin:round;stroke-miterlimit:10;}
	.st17{fill:#65B1EF;}
	.st18{fill:#F29A2E;}
	.st19{fill:#59A5E0;}
	.st20{fill:#4E99D2;}
	.st21{opacity:0.15;}
	.st22{fill:#8CC63E;}
	.st23{opacity:0.25;fill:#FFFFFF;}
	.st24{fill:#38C0DC;}
	.st25{fill:#D23F77;}
	.st26{fill:#DAE5EF;}
	.st27{fill:#373C3F;}
	.st28{fill:#BF3333;}
	.st29{opacity:0.2;fill:#FFFFFF;}
	.st30{opacity:0.3;fill:#FFFFFF;}
	.st31{fill:#7FB239;}
</style>
<g>
	<g>
		<g>
			<g>
				<g>
					<g>
						<g>
							<g>
								<g>
									<g>
										<g>
											<g>
												<g>
													<g>
														<g>
															<g>
																<g>
																	<g>
																		<g>
																			<g>
																				<g>
																					<g>
																						<g>
																							<g>
																								<g>
																									<g>
																										<circle class="st0" cx="16" cy="15.779" r="15.779"/>
																									</g>
																								</g>
																							</g>
																						</g>
																					</g>
																					<g>
																						<g>
																							<g>
																								<g>
																									<g>
																										<path class="st2" d="M31.779,15.779c0,8.718-7.066,15.779-15.779,15.779
																											c-4.96,0-9.388-2.288-12.283-5.873c2.707,2.189,6.154,3.496,9.906,3.496
																											c8.713,0,15.779-7.061,15.779-15.779c0-3.752-1.307-7.199-3.496-9.906
																											C29.486,6.391,31.779,10.819,31.779,15.779z"/>
																									</g>
																								</g>
																							</g>
																						</g>
																					</g>
																				</g>
																			</g>
																		</g>
																	</g>
																</g>
															</g>
														</g>
													</g>
												</g>
											</g>
										</g>
									</g>
								</g>
							</g>
						</g>
					</g>
				</g>
			</g>
		</g>
	</g>
	<g>
		<path class="st4" d="M10.826,22.528c-0.297,0.493-0.566,1.036-0.789,1.638c-1.371,3.636-0.439,7.381,1.326,7.788
			c1.762,0.426,3.533-2.135,4.619-5.182c0.304-0.867,0.52-1.701,0.64-2.481c-0.663-0.075-1.292-0.251-1.901-0.483
			C13.72,23.743,11.958,23.416,10.826,22.528z"/>
	</g>
	<g>
		<g>
			<g>
				<g>
					
						<ellipse transform="matrix(0.866 -0.5001 0.5001 0.866 -5.5915 7.0638)" class="st3" cx="10.382" cy="13.963" rx="4.063" ry="4.063"/>
				</g>
				<g>
					<g>
						
							<ellipse transform="matrix(0.0438 -0.999 0.999 0.0438 -4.0593 25.4886)" class="st1" cx="11.286" cy="14.865" rx="2.121" ry="2.121"/>
					</g>
					<g>
						
							<ellipse transform="matrix(0.6763 -0.7366 0.7366 0.6763 -6.4735 13.5669)" class="st7" cx="12.201" cy="14.149" rx="0.442" ry="0.684"/>
					</g>
				</g>
			</g>
			<g>
				<path class="st1" d="M12.532,8.171c-0.606,0.449-2.43,0.237-3.567,0.618c-1.143,0.338-2.271,1.088-3.052,1.942
					c0,0,0.039-0.118,0.108-0.323c0.488-1.24,1.479-2.137,2.555-2.626C9.7,7.258,12.061,6.848,12.532,8.171z"/>
			</g>
		</g>
		<g>
			<g>
				<g>
					
						<ellipse transform="matrix(0.5001 -0.866 0.866 0.5001 -1.2849 25.7004)" class="st3" cx="21.618" cy="13.963" rx="4.063" ry="4.063"/>
				</g>
				<g>
					<g>
						
							<ellipse transform="matrix(0.999 -0.0438 0.0438 0.999 -0.6319 0.9225)" class="st1" cx="20.714" cy="14.865" rx="2.121" ry="2.121"/>
					</g>
					<g>
						
							<ellipse transform="matrix(0.7366 -0.6763 0.6763 0.7366 -4.3546 17.1176)" class="st7" cx="19.799" cy="14.149" rx="0.684" ry="0.442"/>
					</g>
				</g>
			</g>
			<g>
				<path class="st1" d="M19.468,8.171c0.472-1.322,2.835-0.912,3.956-0.389c1.243,0.565,2.19,1.537,2.663,2.949
					c-0.781-0.854-1.909-1.605-3.052-1.942c-0.413-0.138-0.843-0.192-1.24-0.24C20.846,8.446,20.254,8.753,19.468,8.171z"/>
			</g>
		</g>
	</g>
	<g>
		<path class="st1" d="M9.099,21.249c1.028,0.525,3.442,1.945,6.101,2.259c3.042,0.309,4.89-0.486,6.37-0.982
			c-1.846,1.447-3.593,2.213-6.493,1.974C12.468,24.098,10.736,22.973,9.099,21.249z"/>
	</g>
	<g>
		<g>
			<g>
				<path class="st0" d="M23.856,22.564c0,0,0.104-0.117-0.027-0.541c-0.109-0.307-0.366-0.677-0.725-0.918
					c-0.436-0.332-1.154-0.528-1.672-0.586c0,0,0.949-0.268,1.848,0.343c0.401,0.295,0.673,0.749,0.713,1.123
					C24.05,22.383,23.856,22.564,23.856,22.564z"/>
			</g>
			<g>
				<path class="st0" d="M23.047,22.715c0.123-0.229-0.265-0.779-0.543-0.961c-0.278-0.217-0.778-0.373-1.117-0.439
					c0,0,0.439-0.137,0.834-0.016c0.154,0.044,0.313,0.116,0.459,0.213c0.281,0.211,0.47,0.535,0.486,0.801
					C23.196,22.59,23.038,22.725,23.047,22.715z"/>
			</g>
		</g>
		<g>
			<g>
				<path class="st0" d="M6.851,20.823c0,0-0.153-0.216-0.016-0.595c0.225-0.706,1.149-1.293,2.24-1.092
					c0.353,0.068,0.562,0.188,0.565,0.176c-1.754-0.166-2.786,0.772-2.796,1.353C6.828,20.763,6.857,20.824,6.851,20.823z"/>
			</g>
			<g>
				<path class="st0" d="M7.613,21.135c0.006,0.012-0.12-0.152-0.035-0.418c0.147-0.541,0.811-0.925,1.56-0.763
					c0.244,0.059,0.383,0.156,0.385,0.147c-0.683-0.008-1.85,0.284-1.907,0.925C7.6,21.092,7.613,21.135,7.613,21.135z"/>
			</g>
		</g>
	</g>
</g>
</svg>
