<?xml version="1.0" encoding="utf-8"?>
<!-- Generator: Adobe Illustrator 21.1.0, SVG Export Plug-In . SVG Version: 6.00 Build 0)  -->
<svg version="1.1" id="Layer_1" xmlns="http://www.w3.org/2000/svg" xmlns:xlink="http://www.w3.org/1999/xlink" x="0px" y="0px"
	 viewBox="0 0 32 32" style="enable-background:new 0 0 32 32;" xml:space="preserve">
<style type="text/css">
	.st0{fill:#FFD93B;}
	.st1{fill:#3E4347;}
	.st2{fill:#F4C534;}
	.st3{fill:#FFFFFF;}
	.st4{fill:#E24B4B;}
	.st5{opacity:0.2;}
	.st6{opacity:0.3;}
	.st7{fill:#5A5F63;}
	.st8{fill:#D03F3F;}
	.st9{fill:#E9EFF4;}
	.st10{fill:#DEE4E9;}
	.st11{fill:#777B7E;}
	.st12{fill:#45CBEA;}
	.st13{fill:#E84D88;}
	.st14{opacity:0.25;}
	.st15{fill:#E9B02C;}
	.st16{fill:none;stroke:#E9B02C;stroke-width:2;stroke-linecap:round;stroke-linejoin:round;stroke-miterlimit:10;}
	.st17{fill:#65B1EF;}
	.st18{fill:#F29A2E;}
	.st19{fill:#59A5E0;}
	.st20{fill:#4E99D2;}
	.st21{opacity:0.15;}
	.st22{fill:#8CC63E;}
	.st23{opacity:0.25;fill:#FFFFFF;}
	.st24{fill:#38C0DC;}
	.st25{fill:#D23F77;}
	.st26{fill:#DAE5EF;}
	.st27{fill:#373C3F;}
	.st28{fill:#BF3333;}
	.st29{opacity:0.2;fill:#FFFFFF;}
	.st30{opacity:0.3;fill:#FFFFFF;}
	.st31{fill:#7FB239;}
</style>
<g>
	<g>
		<g>
			<g>
				<g>
					<g>
						<g>
							<g>
								<g>
									<g>
										<g>
											<g>
												<g>
													<g>
														<g>
															<g>
																<g>
																	<g>
																		<g>
																			<g>
																				<g>
																					<g>
																						<g>
																							<g>
																								<g>
																									<g>
																										<g>
																											<circle class="st0" cx="19.98" cy="16" r="12.02"/>
																										</g>
																									</g>
																								</g>
																							</g>
																						</g>
																						<g>
																							<g>
																								<g>
																									<g>
																										<g>
																											<path class="st2" d="M32,16c0,6.641-5.383,12.02-12.02,12.02c-3.779,0-7.152-1.743-9.357-4.474
																												c2.062,1.668,4.688,2.663,7.546,2.663c6.637,0,12.02-5.379,12.02-12.02c0-2.858-0.995-5.484-2.663-7.546
																												C30.253,8.848,32,12.221,32,16z"/>
																										</g>
																									</g>
																								</g>
																							</g>
																						</g>
																					</g>
																				</g>
																			</g>
																		</g>
																	</g>
																</g>
															</g>
														</g>
													</g>
												</g>
											</g>
										</g>
									</g>
								</g>
							</g>
						</g>
					</g>
				</g>
			</g>
		</g>
	</g>
	<g>
		<g>
			
				<ellipse transform="matrix(0.3283 -0.9446 0.9446 0.3283 0.5395 24.7349)" class="st2" cx="17.661" cy="11.988" rx="3.817" ry="2.693"/>
		</g>
		<g>
			
				<ellipse transform="matrix(0.3283 -0.9446 0.9446 0.3283 0.0453 24.8794)" class="st3" cx="17.515" cy="12.408" rx="2.976" ry="2.099"/>
		</g>
		<g>
			<g>
				<g>
					<path class="st1" d="M18.299,12.064c-0.361,0.702-1.056,1.099-1.548,0.896c-0.497-0.205-0.607-0.934-0.246-1.636
						c0.361-0.702,1.051-1.101,1.548-0.896C18.545,10.63,18.659,11.362,18.299,12.064z"/>
				</g>
			</g>
			<g>
				<path class="st7" d="M18.171,11.25c-0.067,0.184-0.252,0.305-0.413,0.271c-0.16-0.034-0.236-0.211-0.168-0.394
					c0.067-0.184,0.252-0.305,0.413-0.271C18.163,10.89,18.238,11.067,18.171,11.25z"/>
			</g>
		</g>
	</g>
	<g>
		<g>
			<ellipse transform="matrix(0.3283 -0.9446 0.9446 0.3283 5.0351 31.2798)" class="st2" cx="24.51" cy="12.1" rx="4.253" ry="3"/>
		</g>
		<g>
			
				<ellipse transform="matrix(0.3283 -0.9446 0.9446 0.3283 4.4844 31.4406)" class="st3" cx="24.348" cy="12.567" rx="3.315" ry="2.339"/>
		</g>
	</g>
	<g>
		<g>
			<path class="st0" d="M21.312,15.563c0,0,3.185-1.643,7.089-0.286s-2.333,1.952-2.333,1.952l-5.57-0.285"/>
		</g>
		<g>
			<path class="st2" d="M21.312,15.563c0.575-0.526,1.9-1.112,3.501-1.191c1.152-0.072,2.571,0.247,3.588,0.906
				c-0.762-0.019-2.07-0.24-3.557-0.145C24.156,15.142,22.705,15.29,21.312,15.563z"/>
		</g>
	</g>
	<g>
		<g>
			<path class="st0" d="M13.815,13.493c0,0,1.604-1.556,5.241,2.052c2.934,2.911-1.427,1.241-1.427,1.241l-5.078-2.308"/>
		</g>
		<g>
			<path class="st2" d="M13.815,13.493c0.185-0.689,1.683-1.14,3.208-0.101c0.987,0.627,1.825,1.523,2.312,2.434
				c-0.652-0.335-2.075-1.416-2.711-1.786C15.919,13.51,14.491,12.932,13.815,13.493z"/>
		</g>
	</g>
	<g>
		<g>
			<g>
				<path class="st1" d="M19.506,24.495c0.803,0.155,1.634,0.117,2.383-0.202c0.128-0.055,0.254-0.115,0.379-0.175
					c0.101-0.244,0.294-0.445,0.603-0.505c0.395-1.927,0.503-3.393,0.337-4.729c-0.558,0.272-1.214,0.433-1.974,0.433
					c-0.658,0-1.23-0.129-1.735-0.337c-0.025,0-0.049,0.004-0.074,0.004c-0.234,0-0.455-0.02-0.67-0.049
					c-0.836-0.004-1.547-0.201-2.137-0.529c1.044,1.777-0.02,3.373-1.631,4.392c1.04,0.466,2.849,0.997,4.34,1.682
					C19.385,24.48,19.444,24.483,19.506,24.495z"/>
			</g>
			<g>
				<path class="st3" d="M22.38,23.89c0.377-1.76,0.508-3.392,0.33-4.8c-0.44,0.145-0.932,0.226-1.475,0.226
					c-0.658,0-1.23-0.128-1.735-0.337c-0.025,0-0.049,0.004-0.074,0.004c-0.235,0-0.456-0.02-0.671-0.049
					c-0.499-0.003-0.954-0.074-1.366-0.201c0.42,0.851,0.368,1.816,0.009,2.535c1.147,0.5,2.321,1.038,2.567,1.119
					c-1.023-0.175-2.007-0.664-2.707-0.895c-0.332,0.519-1.911,1.465-1.911,1.465s3.229,1.103,4.849,1.573
					c0.312,0.032,0.905-0.095,0.905-0.095S21.897,23.983,22.38,23.89z"/>
			</g>
		</g>
		<g>
			<g>
				<path class="st2" d="M14.117,22.429c0,0,3.123,1.229,5.036,1.641c1.557,0.336,4.479-0.611,4.724-0.873
					c-1.301,1.387-3.628,1.669-4.758,1.286C17.005,23.767,15.508,23.137,14.117,22.429z"/>
			</g>
			<g>
				<path class="st2" d="M25.366,17.372c-0.617,0.779-2.631,1.99-5.904,1.509c-2.411-0.355-4.725-1.195-4.725-1.195
					c1.077,0.503,3.131,1.689,4.816,1.832C22.438,19.75,24.731,18.745,25.366,17.372z"/>
			</g>
		</g>
	</g>
	<g>
		<g>
			<g>
				<path class="st7" d="M14.871,11.248l-4.128,11.817c-0.15,0.428-0.608,0.68-1.025,0.557l-6.437-1.896
					c-0.416-0.123-0.63-0.572-0.481-1L6.929,8.91c0.152-0.434,0.61-0.685,1.026-0.562l6.437,1.896
					C14.808,10.365,15.022,10.815,14.871,11.248z"/>
			</g>
			<g>
				<path class="st1" d="M11.23,11.409l-0.534,1.529c-0.177,0.506-0.708,0.797-1.194,0.654c-0.486-0.143-0.739-0.665-0.562-1.172
					l0.534-1.529c0.177-0.506,0.715-0.801,1.201-0.658C11.161,10.377,11.406,10.903,11.23,11.409z"/>
			</g>
			<g>
				<path class="st26" d="M10.765,11.272c-0.082,0.234-0.336,0.373-0.566,0.306c-0.224-0.066-0.343-0.316-0.261-0.549
					c0.083-0.239,0.338-0.379,0.562-0.313C10.73,10.784,10.849,11.033,10.765,11.272z"/>
			</g>
		</g>
		<g>
			<g>
				<g>
					<path class="st0" d="M8.119,19.201c1.252,0.713,0.027,2.188-3.329,2.197c-0.975,0.003-1.925-0.139-2.74-0.527
						c-1.599-0.76-2.27-2.102-1.986-3.722c0.606-3.463,4.442-4.533,7.487-3.543c3.098,1.008,3.6,2.788,2.044,3.36
						C10.753,17.84,10.493,18.975,8.119,19.201z"/>
				</g>
			</g>
			<g>
				<g>
					<path class="st2" d="M10.151,18.376c0,0,0.006-0.027,0.018-0.079c0.153-0.585-0.45-1.083-0.958-1.411
						c-0.5-0.31-1.001-0.493-1.584-0.672c-0.843-0.287-2.035-0.429-2.625-0.401c0.69-0.104,1.769-0.071,2.725,0.185
						c0.356,0.077,1.095,0.322,1.658,0.653c0.977,0.555,1.096,1.298,0.813,1.653C10.168,18.351,10.151,18.376,10.151,18.376z"/>
				</g>
				<g>
					<g>
						<path class="st2" d="M10.35,16.364c0,0,0.003-0.027,0.009-0.076c0.112-0.666-0.74-1.27-1.288-1.674
							c-0.147-0.097-0.299-0.193-0.459-0.279c-0.329-0.183-1.536-0.763-2.546-0.994c-0.166-0.042-0.261-0.066-0.261-0.066
							c0.982,0.032,2.121,0.408,2.958,0.831c0.836,0.42,2.015,1.344,1.615,2.186C10.36,16.338,10.35,16.364,10.35,16.364z"/>
					</g>
				</g>
				<g>
					<g>
						<path class="st2" d="M5.125,18.645c0.388-0.026,1.018-0.064,1.702,0.033c0.305,0.048,0.628,0.111,0.937,0.214
							c0.28,0.107,0.62,0.278,0.79,0.512c0.284,0.375,0.153,0.945-0.579,1.34c-0.147,0.071-0.232,0.098-0.232,0.098
							s0.081-0.047,0.214-0.138c0.459-0.315,0.706-0.758,0.413-1.145c-0.28-0.356-1.148-0.573-1.621-0.664
							C5.512,18.678,6.473,18.842,5.125,18.645z"/>
					</g>
				</g>
			</g>
		</g>
	</g>
	<g>
		<path class="st1" d="M23.299,6.574c0,0,2.909-0.523,5.225,3.155C27.714,7.624,24.906,3.475,23.299,6.574z"/>
	</g>
	<g>
		<path class="st1" d="M20.329,6.432c0,0-2.695-1.077-5.41,1.959C15.982,6.551,19.23,3.166,20.329,6.432z"/>
	</g>
	<g>
		<g>
			<g>
				<path class="st1" d="M24.543,12.491c-0.381,0.742-1.116,1.162-1.637,0.947c-0.526-0.217-0.642-0.988-0.26-1.73
					c0.381-0.742,1.111-1.164,1.637-0.947C24.803,10.976,24.924,11.75,24.543,12.491z"/>
			</g>
		</g>
		<g>
			<path class="st7" d="M24.408,11.632c-0.071,0.194-0.267,0.322-0.436,0.286c-0.17-0.036-0.25-0.223-0.178-0.417
				c0.071-0.194,0.267-0.322,0.436-0.286C24.4,11.251,24.479,11.438,24.408,11.632z"/>
		</g>
	</g>
</g>
</svg>
