<?xml version="1.0" encoding="utf-8"?>
<!-- Generator: Adobe Illustrator 21.1.0, SVG Export Plug-In . SVG Version: 6.00 Build 0)  -->
<svg version="1.1" id="Layer_1" xmlns="http://www.w3.org/2000/svg" xmlns:xlink="http://www.w3.org/1999/xlink" x="0px" y="0px"
	 viewBox="0 0 32 32" style="enable-background:new 0 0 32 32;" xml:space="preserve">
<style type="text/css">
	.st0{fill:#FFD93B;}
	.st1{fill:#3E4347;}
	.st2{fill:#F4C534;}
	.st3{fill:#FFFFFF;}
	.st4{fill:#E24B4B;}
	.st5{opacity:0.2;}
	.st6{opacity:0.3;}
	.st7{fill:#5A5F63;}
	.st8{fill:#D03F3F;}
	.st9{fill:#E9EFF4;}
	.st10{fill:#DEE4E9;}
	.st11{fill:#777B7E;}
	.st12{fill:#45CBEA;}
	.st13{fill:#E84D88;}
	.st14{opacity:0.25;}
	.st15{fill:#E9B02C;}
	.st16{fill:none;stroke:#E9B02C;stroke-width:2;stroke-linecap:round;stroke-linejoin:round;stroke-miterlimit:10;}
	.st17{fill:#65B1EF;}
	.st18{fill:#F29A2E;}
	.st19{fill:#59A5E0;}
	.st20{fill:#4E99D2;}
	.st21{opacity:0.15;}
	.st22{fill:#8CC63E;}
	.st23{opacity:0.25;fill:#FFFFFF;}
	.st24{fill:#38C0DC;}
	.st25{fill:#D23F77;}
	.st26{fill:#DAE5EF;}
	.st27{fill:#373C3F;}
	.st28{fill:#BF3333;}
	.st29{opacity:0.2;fill:#FFFFFF;}
	.st30{opacity:0.3;fill:#FFFFFF;}
	.st31{fill:#7FB239;}
</style>
<g>
	<g>
		<g>
			<g>
				<g>
					<g>
						<g>
							<g>
								<g>
									<g>
										<g>
											<g>
												<g>
													<g>
														<g>
															<g>
																<g>
																	<g>
																		<g>
																			<g>
																				<g>
																					<g>
																						<g>
																							<g>
																								<g>
																									<g>
																										<g>
																											<g>
																												<circle class="st0" cx="16" cy="16" r="16"/>
																											</g>
																										</g>
																									</g>
																								</g>
																							</g>
																							<g>
																								<g>
																									<g>
																										<g>
																											<g>
																												<path class="st2" d="M32,16c0,8.84-7.165,16-16,16c-5.03,0-9.52-2.32-12.455-5.955
																													c2.745,2.22,6.24,3.545,10.045,3.545c8.835,0,16-7.16,16-16c0-3.805-1.325-7.3-3.545-10.045
																													C29.675,6.48,32,10.97,32,16z"/>
																											</g>
																										</g>
																									</g>
																								</g>
																							</g>
																						</g>
																					</g>
																				</g>
																			</g>
																		</g>
																	</g>
																</g>
															</g>
														</g>
													</g>
												</g>
											</g>
										</g>
									</g>
								</g>
							</g>
						</g>
					</g>
				</g>
			</g>
		</g>
	</g>
	<g>
		<g>
			<path class="st2" d="M16.77,12.302c0,1.742-1.794,3.156-3.624,3.156c-1.83,0-3.314-1.412-3.314-3.154
				c0-1.742,1.484-3.154,3.314-3.154C14.976,9.151,16.77,10.56,16.77,12.302z"/>
		</g>
		<g>
			<path class="st10" d="M29.222,10.177c0,1.628-14.256,4.842-15.884,4.842c-1.628,0-2.947-1.319-2.947-2.947
				c0-1.628,1.319-2.947,2.947-2.947C14.967,9.125,29.222,8.55,29.222,10.177z"/>
		</g>
		<g>
			<g>
				<path class="st1" d="M29.517,10.171c0.026,0.481-0.475,0.906-1.103,0.942c-0.628,0.035-1.155-0.321-1.166-0.802
					c-0.026-0.481,0.473-0.893,1.102-0.928C28.98,9.334,29.506,9.691,29.517,10.171z"/>
			</g>
			<g>
				<path class="st7" d="M29.121,9.986c-0.039,0.087-0.208,0.1-0.369,0.038c-0.174-0.079-0.267-0.21-0.228-0.297
					c0.04-0.087,0.193-0.102,0.369-0.038C29.053,9.766,29.16,9.899,29.121,9.986z"/>
			</g>
		</g>
	</g>
	<g>
		<g>
			<path class="st2" d="M15.905,12.594c0,2.263-2.331,4.1-4.708,4.1s-4.305-1.834-4.305-4.097c0-2.263,1.927-4.097,4.305-4.097
				S15.905,10.331,15.905,12.594z"/>
		</g>
		<g>
			<path class="st3" d="M24.898,10.351c0,2.114-11.336,5.773-13.45,5.773c-2.114,0-3.828-1.714-3.828-3.829
				c0-2.115,1.714-3.829,3.828-3.829C13.563,8.466,24.898,8.236,24.898,10.351z"/>
		</g>
		<g>
			<path class="st9" d="M24.877,10.488c-0.47,2.14-11.36,5.64-13.43,5.64c-2.11,0-3.83-1.72-3.83-3.83c0-0.96,0.35-1.84,0.94-2.51
				c-0.13,0.37-0.19,0.76-0.19,1.17c0,2.12,1.71,3.88,3.82,3.93C13.977,14.928,22.357,12.518,24.877,10.488z"/>
		</g>
		<g>
			<g>
				<path class="st1" d="M25.281,10.343c0.034,0.624-0.617,1.178-1.433,1.223c-0.816,0.046-1.5-0.417-1.515-1.041
					c-0.034-0.625,0.615-1.16,1.431-1.206C24.583,9.256,25.267,9.719,25.281,10.343z"/>
			</g>
			<g>
				<path class="st7" d="M24.766,10.102c-0.051,0.113-0.27,0.13-0.479,0.049c-0.226-0.102-0.347-0.273-0.296-0.386
					c0.051-0.113,0.251-0.132,0.479-0.049C24.677,9.816,24.818,9.989,24.766,10.102z"/>
			</g>
		</g>
	</g>
	<g>
		<g>
			<path class="st1" d="M6.093,7.717c0,0,3.872-3.394,8.012-1.658C14.105,6.058,12.939,0.479,6.093,7.717z"/>
		</g>
		<g>
			<path class="st1" d="M25.283,5.942c0,0-4.654-2.203-8.16,0.601C17.123,6.543,16.715,0.858,25.283,5.942z"/>
		</g>
	</g>
	<g>
		<g>
			<path class="st1" d="M21.489,29.401c-7.7,5.569-9.477-5.133-6.193-9.077c1.271-1.53,3.625-2.702,6.593-2.92l-1.719-1.401
				c0.836,0.471,2.633,1.467,2.896,1.613c-3.101,0.88-4.628,3.146-4.67,6.394C18.337,28.155,20.311,28.848,21.489,29.401z"/>
		</g>
	</g>
	<path class="st27" d="M13.811,24.078c-0.12,0.916-0.111,1.858,0.03,2.743c0.453,1.354,1.458,1.975,1.829,1.623
		c0.511-0.428,0.341-1.649,0.408-2.915c-0.01-1.326,0.239-2.742-0.308-3.27C15.361,21.809,14.261,22.57,13.811,24.078z"/>
	<g>
		<g>
			<path class="st4" d="M18.061,25.364c-0.299-0.804-0.972-1.412-1.696-1.738c-0.776-0.337-1.394,0-1.52,0.455
				c-0.015,0.053-0.052,0.09-0.109,0.113c-0.086,0.036-0.205,0.032-0.347-0.003c-0.224-0.049-0.419-0.025-0.595,0.024
				c-0.082,0.702-0.087,1.418-0.017,2.108c0.584,0.99,1.177,2.169,2.215,2.391C17.077,28.979,18.773,27.294,18.061,25.364z"/>
			<g class="st5">
				<path class="st3" d="M16.104,24.476c0.341,0.153,0.663,0.171,0.733,0.014c0.073-0.164-0.166-0.438-0.528-0.578
					c-0.37-0.145-0.701-0.105-0.741,0.042C15.522,24.106,15.769,24.32,16.104,24.476z"/>
			</g>
			<g>
				<path class="st8" d="M15.606,23.5c-0.033,0.007-0.064,0.014-0.094,0.018C15.543,23.511,15.574,23.504,15.606,23.5z"/>
				<path class="st8" d="M15.316,23.578c-0.242,0.105-0.407,0.285-0.472,0.502c-0.016,0.052-0.052,0.089-0.109,0.113
					c-0.086,0.036-0.205,0.029-0.347-0.003c-0.22-0.052-0.419-0.027-0.595,0.024c-0.002,0.014-0.002,0.027-0.004,0.041
					c0.268,0.004,0.591,0.075,0.868,0.336c0.728,0.565,1.581,1.934,1.788,2.502c0.129-0.065-0.795-1.972-1.323-2.479
					C14.806,24.119,15.04,23.73,15.316,23.578z"/>
			</g>
		</g>
		<path class="st8" d="M15.69,27.807c-0.804-0.442-1.321-1.224-1.958-2.214c0.006,0.245,0.019,0.489,0.043,0.73
			c0.584,0.989,1.177,2.169,2.215,2.391c0.581,0.097,1.278-0.239,1.759-0.925C17.688,27.853,16.682,28.384,15.69,27.807z"/>
	</g>
</g>
</svg>
