<?xml version="1.0" encoding="utf-8"?>
<!-- Generator: Adobe Illustrator 21.1.0, SVG Export Plug-In . SVG Version: 6.00 Build 0)  -->
<svg version="1.1" id="Layer_1" xmlns="http://www.w3.org/2000/svg" xmlns:xlink="http://www.w3.org/1999/xlink" x="0px" y="0px"
	 viewBox="0 0 32 32" style="enable-background:new 0 0 32 32;" xml:space="preserve">
<style type="text/css">
	.st0{fill:#FFD93B;}
	.st1{fill:#3E4347;}
	.st2{fill:#F4C534;}
	.st3{fill:#FFFFFF;}
	.st4{fill:#E24B4B;}
	.st5{opacity:0.2;}
	.st6{opacity:0.3;}
	.st7{fill:#5A5F63;}
	.st8{fill:#D03F3F;}
	.st9{fill:#E9EFF4;}
	.st10{fill:#DEE4E9;}
	.st11{fill:#777B7E;}
	.st12{fill:#45CBEA;}
	.st13{fill:#E84D88;}
	.st14{opacity:0.25;}
	.st15{fill:#E9B02C;}
	.st16{fill:none;stroke:#E9B02C;stroke-width:2;stroke-linecap:round;stroke-linejoin:round;stroke-miterlimit:10;}
	.st17{fill:#65B1EF;}
	.st18{fill:#F29A2E;}
	.st19{fill:#59A5E0;}
	.st20{fill:#4E99D2;}
	.st21{opacity:0.15;}
	.st22{fill:#8CC63E;}
	.st23{opacity:0.25;fill:#FFFFFF;}
	.st24{fill:#38C0DC;}
	.st25{fill:#D23F77;}
	.st26{fill:#DAE5EF;}
	.st27{fill:#373C3F;}
	.st28{fill:#BF3333;}
	.st29{opacity:0.2;fill:#FFFFFF;}
	.st30{opacity:0.3;fill:#FFFFFF;}
	.st31{fill:#7FB239;}
</style>
<g>
	<circle class="st0" cx="16" cy="16" r="16"/>
	<path class="st2" d="M32,16c0,8.84-7.165,16-16,16c-5.03,0-9.52-2.32-12.455-5.955c2.745,2.22,6.24,3.545,10.045,3.545
		c8.835,0,16-7.16,16-16c0-3.805-1.325-7.3-3.545-10.045C29.675,6.48,32,10.97,32,16z"/>
	<g>
		<g>
			<circle class="st3" cx="9.628" cy="12.21" r="4.86"/>
		</g>
		<g>
			<circle class="st3" cx="22.372" cy="12.21" r="4.86"/>
		</g>
		<path class="st1" d="M29.543,11.403h-1.675c-0.623-4.414-5.881-6.239-9.15-3.383c-1.67,1.458-3.98,1.265-5.45-0.012
			c-3.266-2.835-8.513-1.021-9.137,3.395H2.457v1.614h1.666c0.392,2.686,2.711,4.756,5.505,4.756c2.676,0,4.915-1.899,5.444-4.42
			h0.001l0-0.004c0.026-0.124,0.042-0.251,0.06-0.377c0.288-0.861,1.45-0.831,1.734,0.001c0.017,0.126,0.034,0.253,0.059,0.376
			c0,0.002,0,0.001,0,0.005l0.002,0c0.529,2.52,2.768,4.419,5.444,4.419c2.793,0,5.112-2.07,5.504-4.756h1.666V11.403z
			 M9.628,16.461c-2.344,0-4.251-1.907-4.251-4.251s1.907-4.251,4.251-4.251c2.344,0,4.251,1.907,4.251,4.251
			S11.972,16.461,9.628,16.461z M22.372,16.461c-2.345,0-4.251-1.907-4.251-4.251s1.907-4.251,4.251-4.251
			c2.344,0,4.251,1.907,4.251,4.251S24.716,16.461,22.372,16.461z"/>
	</g>
	<path class="st1" d="M24.688,23.909c0.155,2.964-2.821,4.469-8.688,4.393c-5.867,0.081-8.844-1.429-8.688-4.393
		c-0.155-2.969,2.822-4.47,8.688-4.393C21.867,19.443,24.843,20.942,24.688,23.909z"/>
	<g>
		<path class="st1" d="M11.775,12.212c0,1.18-0.96,2.14-2.15,2.14c-1.18,0-2.14-0.96-2.14-2.14c0-1.18,0.96-2.15,2.14-2.15
			C10.815,10.062,11.775,11.032,11.775,12.212z"/>
	</g>
	<g>
		<path class="st3" d="M10.871,11.887c-0.16,0.16-0.489,0.075-0.742-0.178c-0.254-0.254-0.338-0.583-0.179-0.742
			c0.15-0.15,0.489-0.075,0.742,0.179C10.946,11.399,11.03,11.737,10.871,11.887z"/>
	</g>
	<g>
		<path class="st1" d="M24.517,12.215c0,1.18-0.96,2.14-2.15,2.14c-1.18,0-2.14-0.96-2.14-2.14c0-1.18,0.96-2.15,2.14-2.15
			C23.557,10.065,24.517,11.035,24.517,12.215z"/>
	</g>
	<g>
		<path class="st3" d="M23.612,11.89c-0.16,0.16-0.489,0.075-0.742-0.178c-0.254-0.254-0.338-0.583-0.178-0.742
			c0.15-0.15,0.489-0.075,0.742,0.179C23.687,11.402,23.772,11.74,23.612,11.89z"/>
	</g>
	<path class="st3" d="M16,21.69c2.97,0,5.684-0.023,7.78-0.271c-1.278-1.304-3.889-1.951-7.78-1.902
		c-3.892-0.051-6.503,0.596-7.781,1.902C10.315,21.667,13.029,21.69,16,21.69z"/>
	<path class="st3" d="M8.254,26.434c1.29,1.283,3.889,1.922,7.746,1.869c3.856,0.05,6.454-0.587,7.745-1.869
		c-2.091-0.245-4.791-0.267-7.745-0.267C13.046,26.167,10.345,26.189,8.254,26.434z"/>
</g>
</svg>
