<?xml version="1.0" encoding="utf-8"?>
<!-- Generator: Adobe Illustrator 21.1.0, SVG Export Plug-In . SVG Version: 6.00 Build 0)  -->
<svg version="1.1" id="Layer_1" xmlns="http://www.w3.org/2000/svg" xmlns:xlink="http://www.w3.org/1999/xlink" x="0px" y="0px"
	 viewBox="0 0 32 32" style="enable-background:new 0 0 32 32;" xml:space="preserve">
<style type="text/css">
	.st0{fill:#FFD93B;}
	.st1{fill:#3E4347;}
	.st2{fill:#F4C534;}
	.st3{fill:#FFFFFF;}
	.st4{fill:#E24B4B;}
	.st5{opacity:0.2;}
	.st6{opacity:0.3;}
	.st7{fill:#5A5F63;}
	.st8{fill:#D03F3F;}
	.st9{fill:#E9EFF4;}
	.st10{fill:#DEE4E9;}
	.st11{fill:#777B7E;}
	.st12{fill:#45CBEA;}
	.st13{fill:#E84D88;}
	.st14{opacity:0.25;}
	.st15{fill:#E9B02C;}
	.st16{fill:none;stroke:#E9B02C;stroke-width:2;stroke-linecap:round;stroke-linejoin:round;stroke-miterlimit:10;}
	.st17{fill:#65B1EF;}
	.st18{fill:#F29A2E;}
	.st19{fill:#59A5E0;}
	.st20{fill:#4E99D2;}
	.st21{opacity:0.15;}
	.st22{fill:#8CC63E;}
	.st23{opacity:0.25;fill:#FFFFFF;}
	.st24{fill:#38C0DC;}
	.st25{fill:#D23F77;}
	.st26{fill:#DAE5EF;}
	.st27{fill:#373C3F;}
	.st28{fill:#BF3333;}
	.st29{opacity:0.2;fill:#FFFFFF;}
	.st30{opacity:0.3;fill:#FFFFFF;}
	.st31{fill:#7FB239;}
</style>
<g>
	<circle class="st0" cx="16" cy="16" r="16"/>
	<path class="st2" d="M32,16c0,8.84-7.165,16-16,16c-5.03,0-9.52-2.32-12.455-5.955c2.745,2.22,6.24,3.545,10.045,3.545
		c8.835,0,16-7.16,16-16c0-3.805-1.325-7.3-3.545-10.045C29.675,6.48,32,10.97,32,16z"/>
	<path class="st1" d="M24.729,24.577c-1.309,3.371-3.663-1.59-8.729-1.59c-5.074,0-7.421,4.962-8.73,1.59
		c-1.241-3.197,3.176-3.403,8.734-3.403C21.553,21.174,25.971,21.38,24.729,24.577z"/>
	<path class="st2" d="M15.399,13.211c0,3.14-2.54,5.68-5.68,5.68c-3.13,0-5.68-2.54-5.68-5.68c0-3.14,2.55-5.68,5.68-5.68
		C12.859,7.53,15.399,10.071,15.399,13.211z"/>
	<path class="st3" d="M14.21,13.211c0,2.483-2.009,4.491-4.492,4.491c-2.475,0-4.491-2.009-4.491-4.491
		c0-2.483,2.016-4.492,4.491-4.492C12.201,8.719,14.21,10.727,14.21,13.211z"/>
	<path class="st1" d="M13.109,13.711c0,1.309-1.08,2.39-2.39,2.39c-1.32,0-2.39-1.07-2.39-2.39c0-1.32,1.07-2.39,2.39-2.39
		S13.109,12.39,13.109,13.711z"/>
	
		<ellipse transform="matrix(0.7071 -0.7071 0.7071 0.7071 -5.7493 11.9294)" class="st3" cx="11.524" cy="12.904" rx="0.47" ry="0.71"/>
	<path class="st2" d="M27.962,13.211c0,3.14-2.54,5.68-5.68,5.68c-3.13,0-5.68-2.54-5.68-5.68c0-3.14,2.55-5.68,5.68-5.68
		C25.421,7.53,27.962,10.071,27.962,13.211z"/>
	<path class="st3" d="M26.773,13.211c0,2.483-2.009,4.491-4.492,4.491c-2.475,0-4.492-2.009-4.492-4.491
		c0-2.483,2.017-4.492,4.492-4.492C24.764,8.719,26.773,10.727,26.773,13.211z"/>
	<path class="st1" d="M18.892,13.711c0,1.309,1.08,2.39,2.39,2.39c1.32,0,2.39-1.07,2.39-2.39c0-1.32-1.07-2.39-2.39-2.39
		S18.892,12.39,18.892,13.711z"/>
	
		<ellipse transform="matrix(0.7071 -0.7071 0.7071 0.7071 -3.1278 18.2568)" class="st3" cx="20.476" cy="12.904" rx="0.71" ry="0.47"/>
</g>
</svg>
