<?xml version="1.0" encoding="utf-8"?>
<!-- Generator: Adobe Illustrator 21.1.0, SVG Export Plug-In . SVG Version: 6.00 Build 0)  -->
<svg version="1.1" id="Layer_1" xmlns="http://www.w3.org/2000/svg" xmlns:xlink="http://www.w3.org/1999/xlink" x="0px" y="0px"
	 viewBox="0 0 32 32" style="enable-background:new 0 0 32 32;" xml:space="preserve">
<style type="text/css">
	.st0{fill:#FFD93B;}
	.st1{fill:#3E4347;}
	.st2{fill:#F4C534;}
	.st3{fill:#FFFFFF;}
	.st4{fill:#E24B4B;}
	.st5{opacity:0.2;}
	.st6{opacity:0.3;}
	.st7{fill:#5A5F63;}
	.st8{fill:#D03F3F;}
	.st9{fill:#E9EFF4;}
	.st10{fill:#DEE4E9;}
	.st11{fill:#777B7E;}
	.st12{fill:#45CBEA;}
	.st13{fill:#E84D88;}
	.st14{opacity:0.25;}
	.st15{fill:#E9B02C;}
	.st16{fill:none;stroke:#E9B02C;stroke-width:2;stroke-linecap:round;stroke-linejoin:round;stroke-miterlimit:10;}
	.st17{fill:#65B1EF;}
	.st18{fill:#F29A2E;}
	.st19{fill:#59A5E0;}
	.st20{fill:#4E99D2;}
	.st21{opacity:0.15;}
	.st22{fill:#8CC63E;}
	.st23{opacity:0.25;fill:#FFFFFF;}
	.st24{fill:#38C0DC;}
	.st25{fill:#D23F77;}
	.st26{fill:#DAE5EF;}
	.st27{fill:#373C3F;}
	.st28{fill:#BF3333;}
	.st29{opacity:0.2;fill:#FFFFFF;}
	.st30{opacity:0.3;fill:#FFFFFF;}
	.st31{fill:#7FB239;}
</style>
<g>
	<g>
		<g>
			<g>
				<g>
					<g>
						<g>
							<g>
								<g>
									<g>
										<g>
											<circle class="st0" cx="16" cy="16" r="16"/>
										</g>
									</g>
								</g>
							</g>
						</g>
					</g>
					<g>
						<g>
							<g>
								<g>
									<g>
										<g>
											<path class="st2" d="M32,16c0,8.84-7.165,16-16,16c-5.03,0-9.52-2.32-12.455-5.955c2.745,2.22,6.24,3.545,10.045,3.545
												c8.835,0,16-7.16,16-16c0-3.805-1.325-7.3-3.545-10.045C29.675,6.48,32,10.97,32,16z"/>
										</g>
									</g>
								</g>
							</g>
						</g>
					</g>
				</g>
			</g>
		</g>
	</g>
	<path class="st1" d="M9.697,4.558c0,0-3.251-0.457-6.664,3.494C3.033,8.052,5.24,0.974,9.697,4.558z"/>
	<path class="st1" d="M22.303,4.558c0,0,3.251-0.457,6.664,3.494C28.967,8.052,26.76,0.974,22.303,4.558z"/>
	<g>
		<g>
			<circle class="st2" cx="9.455" cy="13.3" r="5.885"/>
			<g>
				<circle class="st3" cx="9.455" cy="13.3" r="4.817"/>
			</g>
			<g>
				<g>
					<path class="st1" d="M6.365,11.719c0,1.342,1.091,2.421,2.433,2.421s2.433-1.08,2.433-2.421c0-1.342-1.091-2.433-2.433-2.433
						S6.365,10.377,6.365,11.719z"/>
				</g>
				
					<ellipse transform="matrix(0.7071 -0.7071 0.7071 0.7071 -5.3246 8.728)" class="st3" cx="7.873" cy="10.791" rx="0.776" ry="0.468"/>
			</g>
		</g>
	</g>
	<g>
		<g>
			<circle class="st2" cx="22.545" cy="13.295" r="5.885"/>
			<g>
				<circle class="st3" cx="22.545" cy="13.295" r="4.817"/>
			</g>
			<g>
				<g>
					<path class="st1" d="M25.005,14.875c0-1.342-1.091-2.421-2.433-2.421c-1.342,0-2.433,1.08-2.433,2.421s1.091,2.433,2.433,2.433
						C23.914,17.308,25.005,16.217,25.005,14.875z"/>
				</g>
				
					<ellipse transform="matrix(0.7071 -0.7071 0.7071 0.7071 -4.2929 21.2432)" class="st3" cx="23.496" cy="15.804" rx="0.776" ry="0.468"/>
			</g>
		</g>
	</g>
	<path class="st1" d="M6.995,25.219c0.576-1.142,2.213-2.406,3.146-1.479c0.466,0.398,0.725,0.979,1.114,1.108
		c0.403,0.129,0.697-0.124,1.059-0.715c0.806-1.112,1.724-1.117,2.46-0.529c0.343,0.311,0.513,0.626,0.707,0.857
		c0.673,0.905,0.991-0.129,1.741-0.863c0.705-0.597,1.641-0.566,2.459,0.539c0.371,0.592,0.64,0.837,1.058,0.708
		c0.39-0.129,0.648-0.711,1.116-1.108c1.034-0.898,2.571,0.337,3.149,1.482c-0.647-0.744-2.09-1.857-2.754-1.125
		c-0.344,0.29-0.423,0.897-1.198,1.338c-0.358,0.175-0.865,0.187-1.333-0.068c-0.39-0.239-0.582-0.557-0.776-0.8
		c-0.45-0.626-0.745-0.569-1.049-0.349c-0.471,0.416-0.44,0.801-1.087,1.22c-0.528,0.385-1.5,0.347-2.123-0.463
		c-0.239-0.309-0.408-0.597-0.586-0.755c-0.077-0.073-0.192-0.121-0.2-0.129c-0.27-0.043-0.449-0.071-0.849,0.471
		c-0.583,0.736-1.115,1.291-2.103,0.875c-0.779-0.439-0.857-1.047-1.201-1.339C9.092,23.354,7.639,24.475,6.995,25.219z"/>
</g>
</svg>
