<?xml version="1.0" encoding="utf-8"?>
<!-- Generator: Adobe Illustrator 21.1.0, SVG Export Plug-In . SVG Version: 6.00 Build 0)  -->
<svg version="1.1" id="Layer_1" xmlns="http://www.w3.org/2000/svg" xmlns:xlink="http://www.w3.org/1999/xlink" x="0px" y="0px"
	 viewBox="0 0 32 32" style="enable-background:new 0 0 32 32;" xml:space="preserve">
<style type="text/css">
	.st0{fill:#FFD93B;}
	.st1{fill:#3E4347;}
	.st2{fill:#F4C534;}
	.st3{fill:#FFFFFF;}
	.st4{fill:#E24B4B;}
	.st5{opacity:0.2;}
	.st6{opacity:0.3;}
	.st7{fill:#5A5F63;}
	.st8{fill:#D03F3F;}
	.st9{fill:#E9EFF4;}
	.st10{fill:#DEE4E9;}
	.st11{fill:#777B7E;}
	.st12{fill:#45CBEA;}
	.st13{fill:#E84D88;}
	.st14{opacity:0.25;}
	.st15{fill:#E9B02C;}
	.st16{fill:none;stroke:#E9B02C;stroke-width:2;stroke-linecap:round;stroke-linejoin:round;stroke-miterlimit:10;}
	.st17{fill:#65B1EF;}
	.st18{fill:#F29A2E;}
	.st19{fill:#59A5E0;}
	.st20{fill:#4E99D2;}
	.st21{opacity:0.15;}
	.st22{fill:#8CC63E;}
	.st23{opacity:0.25;fill:#FFFFFF;}
	.st24{fill:#38C0DC;}
	.st25{fill:#D23F77;}
	.st26{fill:#DAE5EF;}
	.st27{fill:#373C3F;}
	.st28{fill:#BF3333;}
	.st29{opacity:0.2;fill:#FFFFFF;}
	.st30{opacity:0.3;fill:#FFFFFF;}
	.st31{fill:#7FB239;}
</style>
<g>
	<g>
		<g>
			<g>
				<g>
					<g>
						<g>
							<g>
								<g>
									<g>
										<g>
											<g>
												<g>
													<g>
														<g>
															<g>
																<circle class="st0" cx="16" cy="16" r="16"/>
															</g>
														</g>
													</g>
												</g>
											</g>
										</g>
										<g>
											<g>
												<g>
													<g>
														<g>
															<g>
																<path class="st2" d="M32,16c0,8.84-7.165,16-16,16c-5.03,0-9.52-2.32-12.455-5.955
																	c2.745,2.22,6.24,3.545,10.045,3.545c8.835,0,16-7.16,16-16c0-3.805-1.325-7.3-3.545-10.045
																	C29.675,6.48,32,10.97,32,16z"/>
															</g>
														</g>
													</g>
												</g>
											</g>
										</g>
									</g>
								</g>
							</g>
						</g>
					</g>
				</g>
			</g>
		</g>
	</g>
	<path class="st1" d="M6.121,5.748c0,0,3.266-2.615,7.056-1.57C13.177,4.178,8.496-0.303,6.121,5.748z"/>
	<path class="st1" d="M25.879,5.748c0,0-3.266-2.615-7.056-1.57C18.823,4.178,23.504-0.303,25.879,5.748z"/>
	<path class="st1" d="M31.358,8.251v2.477c0,0.128-0.05,0.246-0.123,0.351c-0.345,0.495-0.242,0.893-0.242,2.289
		c0,3.864-2.561,6.673-6.094,6.673c-3.737,0-6.937-3.16-7.891-6.314c-0.135-0.446-0.542-0.751-1.008-0.751l0,0
		c-0.466,0-0.873,0.305-1.009,0.751c-0.954,3.154-4.154,6.314-7.891,6.314c-3.532,0-6.094-2.809-6.094-6.673
		c0-1.396,0.104-1.794-0.242-2.289c-0.073-0.105-0.123-0.224-0.123-0.351V8.251c0-0.379,0.38-0.67,0.787-0.526
		c0.956,0.338,2.005,0.082,2.907-0.382c2.443-1.256,6.696-0.525,8.762,0.775c1.822,1.146,3.888,1.206,5.805,0
		c2.047-1.288,6.299-2.041,8.762-0.775c0.902,0.464,1.95,0.72,2.907,0.382C30.978,7.581,31.358,7.872,31.358,8.251z"/>
	<path class="st17" d="M17.743,11.823c0,2.967,3.457,6.914,7.152,6.914c2.967,0,4.796-2.405,4.796-5.373
		c0-2.967-1.829-5.373-4.796-5.373C21.928,7.992,17.743,8.856,17.743,11.823z"/>
	<path class="st17" d="M14.256,11.823c0,2.967-3.457,6.914-7.152,6.914c-2.967,0-4.796-2.405-4.796-5.373
		c0-2.967,1.829-5.373,4.796-5.373C10.071,7.992,14.256,8.856,14.256,11.823z"/>
	<path class="st20" d="M10.118,8.293l-7.39,7.39c0.342,0.882,0.882,1.632,1.599,2.167l8.503-8.503
		C12.088,8.844,11.129,8.505,10.118,8.293z"/>
	<path class="st20" d="M2.324,13.775c0.028,0.481,0.106,0.942,0.228,1.379l6.972-6.972C9.038,8.104,8.55,8.054,8.074,8.025
		L2.324,13.775z"/>
	<path class="st20" d="M26.272,8.188l-7.191,7.191c0.512,0.706,1.147,1.361,1.864,1.902l7.571-7.571
		C27.949,8.99,27.191,8.455,26.272,8.188z"/>
	<path class="st20" d="M18.798,14.957l6.896-6.896c-0.257-0.041-0.522-0.069-0.8-0.069c-0.245,0-0.501,0.009-0.76,0.021
		l-5.898,5.898C18.391,14.264,18.579,14.614,18.798,14.957z"/>
	<path class="st1" d="M25.946,21.475c-1.441,4.714-5.22,8.09-9.68,8.09c-4.448,0-8.24-3.376-9.68-8.101
		c-0.104-0.369,0.253-0.68,0.611-0.53c3.515,1.532,14.601,1.556,18.138,0.011C25.692,20.783,26.061,21.106,25.946,21.475z"/>
	<path class="st4" d="M16.266,29.564c1.745,0,3.383-0.523,4.82-1.434c-0.388-1.864-2.421-2.905-4.138-2.164
		c-0.539,0.232-1.136,0.26-1.699,0.093c-1.601-0.476-3.306,0.488-3.753,2.101C12.923,29.054,14.544,29.564,16.266,29.564z"/>
	<path class="st3" d="M24.912,21.091c-1.788,3-5.182,3.865-8.646,3.865c-3.464,0-6.871-0.9-8.646-3.878
		C11.364,22.41,21.155,22.424,24.912,21.091z"/>
</g>
</svg>
