<?xml version="1.0" encoding="utf-8"?>
<!-- Generator: Adobe Illustrator 21.1.0, SVG Export Plug-In . SVG Version: 6.00 Build 0)  -->
<svg version="1.1" id="Layer_1" xmlns="http://www.w3.org/2000/svg" xmlns:xlink="http://www.w3.org/1999/xlink" x="0px" y="0px"
	 viewBox="0 0 32 32" style="enable-background:new 0 0 32 32;" xml:space="preserve">
<style type="text/css">
	.st0{fill:#FFD93B;}
	.st1{fill:#3E4347;}
	.st2{fill:#F4C534;}
	.st3{fill:#FFFFFF;}
	.st4{fill:#E24B4B;}
	.st5{opacity:0.2;}
	.st6{opacity:0.3;}
	.st7{fill:#5A5F63;}
	.st8{fill:#D03F3F;}
	.st9{fill:#E9EFF4;}
	.st10{fill:#DEE4E9;}
	.st11{fill:#777B7E;}
	.st12{fill:#45CBEA;}
	.st13{fill:#E84D88;}
	.st14{opacity:0.25;}
	.st15{fill:#E9B02C;}
	.st16{fill:none;stroke:#E9B02C;stroke-width:2;stroke-linecap:round;stroke-linejoin:round;stroke-miterlimit:10;}
	.st17{fill:#65B1EF;}
	.st18{fill:#F29A2E;}
	.st19{fill:#59A5E0;}
	.st20{fill:#4E99D2;}
	.st21{opacity:0.15;}
	.st22{fill:#8CC63E;}
	.st23{opacity:0.25;fill:#FFFFFF;}
	.st24{fill:#38C0DC;}
	.st25{fill:#D23F77;}
	.st26{fill:#DAE5EF;}
	.st27{fill:#373C3F;}
	.st28{fill:#BF3333;}
	.st29{opacity:0.2;fill:#FFFFFF;}
	.st30{opacity:0.3;fill:#FFFFFF;}
	.st31{fill:#7FB239;}
</style>
<g>
	<path class="st0" d="M29.422,11.79c1.103,8.848-6.338,16.275-15.181,15.161c-6.029-0.76-10.897-5.627-11.66-11.655
		C1.461,6.438,8.917-1.014,17.775,0.113C23.806,0.881,28.67,5.757,29.422,11.79z"/>
	<path class="st2" d="M29.44,15.122c-0.706,6.179-5.705,11.165-11.885,11.853c-4.875,0.543-9.307-1.505-12.087-4.949
		c2.688,2.174,6.227,3.333,10.039,2.913c6.203-0.685,11.216-5.698,11.901-11.901c0.421-3.812-0.738-7.351-2.913-10.039
		C27.943,5.786,29.998,10.233,29.44,15.122z"/>
	<path class="st0" d="M24.522,22.674c-0.316,2.534-2.417,4.59-4.693,4.59c-2.267,0-3.855-2.056-3.539-4.59
		c0.315-2.525,2.415-4.58,4.683-4.58C23.249,18.094,24.837,20.15,24.522,22.674z"/>
	<path class="st1" d="M23.129,22.674c-0.209,1.679-1.596,3.036-3.106,3.036c-1.501,0-2.549-1.358-2.34-3.036
		c0.208-1.669,1.596-3.036,3.097-3.036C22.29,19.638,23.337,21.005,23.129,22.674z"/>
	<path class="st4" d="M26.454,11.648c-0.719,2.054-4.657,3.332-5.955,3.705c-0.233,0.065-0.504-0.028-0.653-0.224
		c-0.784-1.101-3.071-4.554-2.352-6.608c0.915-2.613,4.779-1.904,4.741,0.831c0.625-0.812,1.717-1.157,2.725-0.812
		C26.23,8.988,26.902,10.378,26.454,11.648z"/>
	<path class="st4" d="M5.546,11.648c0.719,2.054,4.657,3.332,5.955,3.705c0.233,0.065,0.504-0.028,0.653-0.224
		c0.784-1.101,3.071-4.554,2.352-6.608c-0.915-2.613-4.779-1.904-4.741,0.831C9.139,8.54,8.047,8.194,7.039,8.54
		C5.77,8.988,5.098,10.378,5.546,11.648z"/>
	<path class="st17" d="M17.657,23.474c0.688-0.286,1.415-0.396,2.112-0.173c0.697,0.223,1.364,0.802,1.794,1.711
		c0.314,0.663,0.491,1.471,0.584,2.291c0.093,0.819,0.105,1.656,0.117,2.489c0.002,0.159-0.006,0.343-0.035,0.495
		c-0.029,0.152-0.117,0.288-0.216,0.272c-0.146-0.024-0.197-0.32-0.218-0.554c-0.021-0.234-0.09-0.529-0.237-0.52
		c-0.106,0.007-0.178,0.178-0.278,0.236c-0.162,0.093-0.331-0.151-0.381-0.415c-0.05-0.264-0.025-0.55-0.051-0.823
		c-0.026-0.273-0.134-0.567-0.306-0.589c-0.146-0.019-0.275,0.178-0.322,0.4c-0.047,0.223-0.03,0.465-0.013,0.698
		c0.023,0.319,0.206,2.372,0.139,2.675c-0.042,0.191-0.157,0.356-0.282,0.329c-0.107-0.023-0.187-0.18-0.214-0.347
		c-0.137-0.854,0.369-1.599-0.075-2.49c-0.198-0.397-0.538-0.512-0.849-0.614c-0.311-0.101-0.651-0.247-0.825-0.672
		c-0.18-0.44-0.08-1.016-0.101-1.541C17.962,25.389,17.787,24.336,17.657,23.474z"/>
	<path class="st1" d="M24.532,5.873c0.021,0.558-0.852,0.678-1.117,0.182c-0.866-1.607-2.465-2.55-3.814-2.78
		c-0.342-0.056-0.432-0.522-0.119-0.671C21.664,1.57,24.441,3.496,24.532,5.873z"/>
	<path class="st1" d="M7.468,5.873C7.446,6.431,8.32,6.551,8.585,6.055c0.866-1.607,2.465-2.55,3.813-2.78
		c0.342-0.056,0.432-0.522,0.119-0.671C10.336,1.57,7.559,3.496,7.468,5.873z"/>
	<path class="st17" d="M21.188,31.319c-0.321,0-0.106-0.442-0.075-0.745c0.019-0.184,0.02-0.368,0.046-0.554
		c-0.009,0.584,0.091,0.568,0.2,0.969C21.411,31.179,21.313,31.319,21.188,31.319z"/>
</g>
</svg>
