<?xml version="1.0" encoding="utf-8"?>
<!-- Generator: Adobe Illustrator 21.1.0, SVG Export Plug-In . SVG Version: 6.00 Build 0)  -->
<svg version="1.1" id="Layer_1" xmlns="http://www.w3.org/2000/svg" xmlns:xlink="http://www.w3.org/1999/xlink" x="0px" y="0px"
	 viewBox="0 0 32 32" style="enable-background:new 0 0 32 32;" xml:space="preserve">
<style type="text/css">
	.st0{fill:#FFD93B;}
	.st1{fill:#3E4347;}
	.st2{fill:#F4C534;}
	.st3{fill:#FFFFFF;}
	.st4{fill:#E24B4B;}
	.st5{opacity:0.2;}
	.st6{opacity:0.3;}
	.st7{fill:#5A5F63;}
	.st8{fill:#D03F3F;}
	.st9{fill:#E9EFF4;}
	.st10{fill:#DEE4E9;}
	.st11{fill:#777B7E;}
	.st12{fill:#45CBEA;}
	.st13{fill:#E84D88;}
	.st14{opacity:0.25;}
	.st15{fill:#E9B02C;}
	.st16{fill:none;stroke:#E9B02C;stroke-width:2;stroke-linecap:round;stroke-linejoin:round;stroke-miterlimit:10;}
	.st17{fill:#65B1EF;}
	.st18{fill:#F29A2E;}
	.st19{fill:#59A5E0;}
	.st20{fill:#4E99D2;}
	.st21{opacity:0.15;}
	.st22{fill:#8CC63E;}
	.st23{opacity:0.25;fill:#FFFFFF;}
	.st24{fill:#38C0DC;}
	.st25{fill:#D23F77;}
	.st26{fill:#DAE5EF;}
	.st27{fill:#373C3F;}
	.st28{fill:#BF3333;}
	.st29{opacity:0.2;fill:#FFFFFF;}
	.st30{opacity:0.3;fill:#FFFFFF;}
	.st31{fill:#7FB239;}
</style>
<g>
	<circle class="st0" cx="16" cy="16" r="16"/>
	<path class="st2" d="M31.924,16c0,8.84-7.165,16-16,16c-5.03,0-9.52-2.32-12.455-5.955c2.745,2.22,6.24,3.545,10.045,3.545
		c8.835,0,16-7.16,16-16c0-3.805-1.325-7.3-3.545-10.045C29.599,6.48,31.924,10.97,31.924,16z"/>
	<path class="st2" d="M13.227,12.271H4.479c-0.271,0.598-0.44,1.251-0.44,1.951c0,2.65,2.15,4.81,4.81,4.81s4.82-2.16,4.82-4.81
		C13.669,13.522,13.499,12.869,13.227,12.271z"/>
	<path class="st3" d="M5.784,12.271c-0.372,0.574-0.594,1.257-0.594,1.993c0,2.015,1.635,3.659,3.659,3.659s3.669-1.645,3.669-3.659
		c0-0.736-0.223-1.418-0.597-1.993H5.784z"/>
	<path class="st1" d="M8.753,12.271c-0.257,0.313-0.418,0.708-0.418,1.144c0,1.001,0.812,1.812,1.812,1.812s1.812-0.812,1.812-1.812
		c0-0.437-0.161-0.832-0.418-1.144H8.753z"/>
	<path class="st2" d="M15.219,12.052c0,0.35-0.28,0.64-0.64,0.64H3.129c-0.36,0-0.64-0.29-0.64-0.64c0-0.35,0.28-0.64,0.64-0.64
		h11.45C14.939,11.412,15.219,11.702,15.219,12.052z"/>
	<path class="st2" d="M27.519,12.271h-8.748c-0.271,0.598-0.44,1.251-0.44,1.951c0,2.65,2.15,4.81,4.81,4.81s4.82-2.16,4.82-4.81
		C27.961,13.522,27.791,12.869,27.519,12.271z"/>
	<path class="st3" d="M20.076,12.271c-0.372,0.574-0.594,1.257-0.594,1.993c0,2.015,1.635,3.659,3.659,3.659
		s3.669-1.645,3.669-3.659c0-0.736-0.223-1.418-0.597-1.993H20.076z"/>
	<path class="st1" d="M23.045,12.271c-0.257,0.313-0.418,0.708-0.418,1.144c0,1.001,0.811,1.812,1.812,1.812
		c1.001,0,1.812-0.812,1.812-1.812c0-0.437-0.161-0.832-0.418-1.144H23.045z"/>
	<path class="st2" d="M29.511,12.052c0,0.35-0.28,0.64-0.64,0.64h-11.45c-0.36,0-0.64-0.29-0.64-0.64c0-0.35,0.28-0.64,0.64-0.64
		h11.45C29.231,11.412,29.511,11.702,29.511,12.052z"/>
	<path class="st1" d="M22.68,26.012c-0.286-0.625-0.884-1.341-1.62-1.79c-1.626-1.017-2.986-0.411-4.72,0.41
		c-2.295,0.983-4.397,0.704-5.94-0.34c-0.753-0.484-1.363-1.13-1.78-1.97c0.599,0.48,1.363,0.914,2.16,1.2
		c1.608,0.568,3.293,0.531,4.95-0.26c1.238-0.531,3.788-1.793,5.87,0.29C22.373,24.325,22.728,25.384,22.68,26.012z"/>
	<path class="st1" d="M17.609,8.772c-0.085-0.405,0.175-0.804,0.58-0.889c0.047-0.01,4.786-1.01,7.201-2.093
		c0.377-0.172,0.821,0,0.991,0.378c0.169,0.378,0,0.821-0.378,0.991c-2.563,1.149-7.306,2.15-7.507,2.192
		C18.095,9.436,17.694,9.181,17.609,8.772z"/>
	<path class="st1" d="M13.504,9.352C13.303,9.311,8.56,8.309,5.997,7.16C5.619,6.99,5.449,6.547,5.619,6.169
		C5.789,5.791,6.232,5.62,6.61,5.791c2.417,1.083,7.154,2.083,7.201,2.093c0.405,0.085,0.665,0.482,0.58,0.889
		C14.306,9.181,13.905,9.436,13.504,9.352z"/>
</g>
</svg>
