<?xml version="1.0" encoding="utf-8"?>
<!-- Generator: Adobe Illustrator 21.1.0, SVG Export Plug-In . SVG Version: 6.00 Build 0)  -->
<svg version="1.1" id="Layer_1" xmlns="http://www.w3.org/2000/svg" xmlns:xlink="http://www.w3.org/1999/xlink" x="0px" y="0px"
	 viewBox="0 0 32 32" style="enable-background:new 0 0 32 32;" xml:space="preserve">
<style type="text/css">
	.st0{fill:#FFD93B;}
	.st1{fill:#3E4347;}
	.st2{fill:#F4C534;}
	.st3{fill:#FFFFFF;}
	.st4{fill:#E24B4B;}
	.st5{opacity:0.2;}
	.st6{opacity:0.3;}
	.st7{fill:#5A5F63;}
	.st8{fill:#D03F3F;}
	.st9{fill:#E9EFF4;}
	.st10{fill:#DEE4E9;}
	.st11{fill:#777B7E;}
	.st12{fill:#45CBEA;}
	.st13{fill:#E84D88;}
	.st14{opacity:0.25;}
	.st15{fill:#E9B02C;}
	.st16{fill:none;stroke:#E9B02C;stroke-width:2;stroke-linecap:round;stroke-linejoin:round;stroke-miterlimit:10;}
	.st17{fill:#65B1EF;}
	.st18{fill:#F29A2E;}
	.st19{fill:#59A5E0;}
	.st20{fill:#4E99D2;}
	.st21{opacity:0.15;}
	.st22{fill:#8CC63E;}
	.st23{opacity:0.25;fill:#FFFFFF;}
	.st24{fill:#38C0DC;}
	.st25{fill:#D23F77;}
	.st26{fill:#DAE5EF;}
	.st27{fill:#373C3F;}
	.st28{fill:#BF3333;}
	.st29{opacity:0.2;fill:#FFFFFF;}
	.st30{opacity:0.3;fill:#FFFFFF;}
	.st31{fill:#7FB239;}
</style>
<g>
	<path class="st1" d="M25.923,9.672c0.116-0.28,0.294-0.848,0.376-1.074c-0.226-0.11-0.376-0.349-0.376-0.623V7.969
		c0.007-0.294,0.246-0.52,0.534-0.554V3.879h0.417v3.543c0.267,0.054,0.479,0.273,0.479,0.547v0.007
		c0,0.246-0.123,0.479-0.322,0.609c0.082,0.232,0.28,0.8,0.397,1.087H25.923z"/>
	<circle class="st0" cx="16" cy="19.533" r="12.467"/>
	<path class="st2" d="M28.467,19.533C28.467,26.421,22.884,32,16,32c-3.919,0-7.418-1.808-9.705-4.64
		c2.139,1.73,4.862,2.762,7.827,2.762c6.884,0,12.467-5.579,12.467-12.467c0-2.965-1.032-5.688-2.762-7.827
		C26.655,12.116,28.467,15.614,28.467,19.533z"/>
	<ellipse class="st3" cx="11.133" cy="17.858" rx="3.865" ry="3.869"/>
	<ellipse class="st3" cx="20.87" cy="17.858" rx="3.866" ry="3.869"/>
	<path class="st1" d="M27.164,17.271h-1.924c-0.288-2.159-2.138-3.83-4.371-3.83c-1.653,0-3.095,0.916-3.849,2.267
		c-0.205,0.367-0.592,0.581-1.012,0.578c-0.002,0-0.005,0-0.007,0c-0.004,0-0.007,0-0.011,0c-0.418,0.003-0.804-0.212-1.008-0.577
		c-0.754-1.352-2.196-2.269-3.849-2.269c-2.233,0-4.079,1.672-4.367,3.83H4.836v1.169h1.944c0.271,2.017,1.91,3.639,3.974,3.814
		c2.612,0.221,4.843-1.862,4.787-4.487c0.045-0.22,0.229-0.388,0.461-0.388c0.237,0,0.457,0.171,0.457,0.481
		c0,2.546,2.17,4.596,4.758,4.398c2.071-0.159,3.741-1.779,4.011-3.817h1.937V17.271z M11.133,21.179c-1.831,0-3.32-1.49-3.32-3.319
		c0-1.834,1.489-3.326,3.32-3.326c1.83,0,3.319,1.492,3.319,3.326C14.453,19.689,12.964,21.179,11.133,21.179z M20.87,21.179
		c-1.831,0-3.32-1.49-3.32-3.319c0-1.834,1.489-3.326,3.32-3.326c1.83,0,3.319,1.492,3.319,3.326
		C24.189,19.689,22.7,21.179,20.87,21.179z"/>
	<path class="st1" d="M21.374,18.481c0,0.812-0.654,1.482-1.477,1.482c-0.813,0-1.477-0.669-1.477-1.482
		c0-0.818,0.664-1.487,1.477-1.487C20.72,16.994,21.374,17.663,21.374,18.481z"/>
	
		<ellipse transform="matrix(0.7071 -0.7071 0.7071 0.7071 -6.7251 19.694)" class="st3" cx="20.41" cy="17.965" rx="0.337" ry="0.487"/>
	<path class="st1" d="M13.582,18.481c0,0.812-0.654,1.482-1.477,1.482c-0.813,0-1.477-0.669-1.477-1.482
		c0-0.818,0.664-1.487,1.477-1.487C12.928,16.994,13.582,17.663,13.582,18.481z"/>
	
		<ellipse transform="matrix(0.7071 -0.7071 0.7071 0.7071 -9.0073 14.1845)" class="st3" cx="12.619" cy="17.965" rx="0.337" ry="0.487"/>
	<path class="st1" d="M11.877,24.406c0.396,1.457,2.13,2.514,4.123,2.514c1.993,0,3.727-1.057,4.123-2.514
		c0.071-0.26,0.337-0.409,0.598-0.342c0.259,0.071,0.413,0.339,0.342,0.598c-0.509,1.873-2.638,3.232-5.063,3.232
		c-2.424,0-4.554-1.36-5.062-3.232c-0.071-0.26,0.083-0.527,0.342-0.598C11.54,23.995,11.807,24.147,11.877,24.406z"/>
	<path class="st1" d="M22.501,4.186v5.541c0,0.209-0.153,0.391-0.362,0.429c-4.234,0.772-8.325,0.744-12.283,0.009
		c-0.21-0.047-0.362-0.229-0.362-0.439V4.186c0-0.238,0.2-0.429,0.439-0.429h12.14C22.311,3.757,22.501,3.948,22.501,4.186z"/>
	<path class="st7" d="M28.621,4.232L16.125,7.501c-0.08,0.023-0.171,0.023-0.251,0L3.379,4.232c-0.49-0.125-0.49-0.82,0-0.946
		l12.496-3.269c0.08-0.023,0.171-0.023,0.251,0l12.496,3.269C29.111,3.411,29.111,4.107,28.621,4.232z"/>
</g>
</svg>
