<?xml version="1.0" encoding="utf-8"?>
<!-- Generator: Adobe Illustrator 21.1.0, SVG Export Plug-In . SVG Version: 6.00 Build 0)  -->
<svg version="1.1" id="Layer_1" xmlns="http://www.w3.org/2000/svg" xmlns:xlink="http://www.w3.org/1999/xlink" x="0px" y="0px"
	 viewBox="0 0 32 32" style="enable-background:new 0 0 32 32;" xml:space="preserve">
<style type="text/css">
	.st0{fill:#FFD93B;}
	.st1{fill:#3E4347;}
	.st2{fill:#F4C534;}
	.st3{fill:#FFFFFF;}
	.st4{fill:#E24B4B;}
	.st5{opacity:0.2;}
	.st6{opacity:0.3;}
	.st7{fill:#5A5F63;}
	.st8{fill:#D03F3F;}
	.st9{fill:#E9EFF4;}
	.st10{fill:#DEE4E9;}
	.st11{fill:#777B7E;}
	.st12{fill:#45CBEA;}
	.st13{fill:#E84D88;}
	.st14{opacity:0.25;}
	.st15{fill:#E9B02C;}
	.st16{fill:none;stroke:#E9B02C;stroke-width:2;stroke-linecap:round;stroke-linejoin:round;stroke-miterlimit:10;}
	.st17{fill:#65B1EF;}
	.st18{fill:#F29A2E;}
	.st19{fill:#59A5E0;}
	.st20{fill:#4E99D2;}
	.st21{opacity:0.15;}
	.st22{fill:#8CC63E;}
	.st23{opacity:0.25;fill:#FFFFFF;}
	.st24{fill:#38C0DC;}
	.st25{fill:#D23F77;}
	.st26{fill:#DAE5EF;}
	.st27{fill:#373C3F;}
	.st28{fill:#BF3333;}
	.st29{opacity:0.2;fill:#FFFFFF;}
	.st30{opacity:0.3;fill:#FFFFFF;}
	.st31{fill:#7FB239;}
</style>
<g>
	<circle class="st0" cx="16" cy="15.013" r="15.013"/>
	<path class="st2" d="M31.013,15.013c0,8.295-6.723,15.013-15.013,15.013c-4.72,0-8.933-2.177-11.687-5.588
		c2.576,2.083,5.855,3.326,9.425,3.326c8.29,0,15.013-6.718,15.013-15.013c0-3.57-1.243-6.85-3.326-9.425
		C28.831,6.08,31.013,10.293,31.013,15.013z"/>
	<ellipse class="st22" cx="16.396" cy="30.026" rx="10.341" ry="1.974"/>
	<path class="st31" d="M26.738,30.027c0,1.089-4.635,1.97-10.34,1.97c-3.903,0-7.309-0.413-9.064-1.023
		c1.82,0.225,3.988,0.357,6.324,0.357c6.418,0,11.616-0.986,11.616-2.215c0-0.037,0-0.066-0.019-0.103
		C26.193,29.305,26.738,29.652,26.738,30.027z"/>
	<g class="st5">
		<ellipse class="st3" cx="9.467" cy="30.027" rx="1.963" ry="0.488"/>
	</g>
	<path class="st2" d="M4.583,12.453c0-2.897,2.343-5.24,5.231-5.24c2.897,0,5.24,2.343,5.24,5.24c0,2.888-2.343,5.231-5.24,5.231
		C6.926,17.684,4.583,15.341,4.583,12.453z"/>
	<circle class="st3" cx="9.82" cy="12.446" r="4.076"/>
	<path class="st1" d="M11.867,12.444c0,1.135-0.917,2.052-2.043,2.052c-1.135,0-2.053-0.917-2.053-2.052
		c0-1.126,0.917-2.043,2.053-2.043C10.949,10.4,11.867,11.317,11.867,12.444z"/>
	<path class="st3" d="M11.04,12.116c-0.145,0.154-0.472,0.082-0.717-0.163c-0.254-0.255-0.327-0.581-0.173-0.727
		c0.154-0.163,0.481-0.091,0.736,0.164C11.131,11.635,11.204,11.962,11.04,12.116z"/>
	<path class="st13" d="M4.706,13.567c0.514,2.355,2.606,4.116,5.117,4.116c2.503,0,4.594-1.761,5.108-4.116H4.706z"/>
	<path class="st2" d="M14.374,10.644c-0.685-1.86-2.46-3.19-4.56-3.19c-2.094,0-3.867,1.33-4.551,3.19
		C8.3,9.817,11.337,9.817,14.374,10.644z"/>
	<path class="st2" d="M16.946,12.453c0-2.897,2.343-5.24,5.231-5.24c2.897,0,5.24,2.343,5.24,5.24c0,2.888-2.343,5.231-5.24,5.231
		C19.289,17.684,16.946,15.341,16.946,12.453z"/>
	<circle class="st3" cx="22.183" cy="12.446" r="4.076"/>
	<path class="st1" d="M24.23,12.444c0,1.135-0.917,2.052-2.043,2.052c-1.135,0-2.053-0.917-2.053-2.052
		c0-1.126,0.917-2.043,2.053-2.043C23.312,10.4,24.23,11.317,24.23,12.444z"/>
	<path class="st3" d="M23.403,12.116c-0.145,0.154-0.472,0.082-0.717-0.163c-0.254-0.255-0.327-0.581-0.173-0.727
		c0.154-0.163,0.481-0.091,0.736,0.164C23.494,11.635,23.566,11.962,23.403,12.116z"/>
	<path class="st13" d="M17.069,13.567c0.514,2.355,2.606,4.116,5.117,4.116c2.503,0,4.594-1.761,5.108-4.116H17.069z"/>
	<path class="st2" d="M26.737,10.644c-0.685-1.86-2.459-3.19-4.56-3.19c-2.094,0-3.867,1.33-4.551,3.19
		C20.663,9.817,23.7,9.817,26.737,10.644z"/>
	<path class="st1" d="M21.182,21.792c0,0.796-0.641,1.448-1.437,1.448h-7.48c-0.796,0-1.448-0.651-1.448-1.448
		c0-0.796,0.651-1.448,1.448-1.448h7.48C20.541,20.344,21.182,20.995,21.182,21.792z"/>
	<path class="st22" d="M19.903,23.159v5.93c0,0.769-0.619,1.389-1.389,1.389h-5.029c-0.769,0-1.389-0.619-1.389-1.389v-5.93
		c0-0.704,0.544-1.286,1.248-1.379c1.773-0.216,3.537-0.216,5.311,0C19.359,21.873,19.903,22.455,19.903,23.159z"/>
</g>
</svg>
