<?xml version="1.0" encoding="utf-8"?>
<!-- Generator: Adobe Illustrator 21.1.0, SVG Export Plug-In . SVG Version: 6.00 Build 0)  -->
<svg version="1.1" id="Layer_1" xmlns="http://www.w3.org/2000/svg" xmlns:xlink="http://www.w3.org/1999/xlink" x="0px" y="0px"
	 viewBox="0 0 32 32" style="enable-background:new 0 0 32 32;" xml:space="preserve">
<style type="text/css">
	.st0{fill:#FFD93B;}
	.st1{fill:#3E4347;}
	.st2{fill:#F4C534;}
	.st3{fill:#FFFFFF;}
	.st4{fill:#E24B4B;}
	.st5{opacity:0.2;}
	.st6{opacity:0.3;}
	.st7{fill:#5A5F63;}
	.st8{fill:#D03F3F;}
	.st9{fill:#E9EFF4;}
	.st10{fill:#DEE4E9;}
	.st11{fill:#777B7E;}
	.st12{fill:#45CBEA;}
	.st13{fill:#E84D88;}
	.st14{opacity:0.25;}
	.st15{fill:#E9B02C;}
	.st16{fill:none;stroke:#E9B02C;stroke-width:2;stroke-linecap:round;stroke-linejoin:round;stroke-miterlimit:10;}
	.st17{fill:#65B1EF;}
	.st18{fill:#F29A2E;}
	.st19{fill:#59A5E0;}
	.st20{fill:#4E99D2;}
	.st21{opacity:0.15;}
	.st22{fill:#8CC63E;}
	.st23{opacity:0.25;fill:#FFFFFF;}
	.st24{fill:#38C0DC;}
	.st25{fill:#D23F77;}
	.st26{fill:#DAE5EF;}
	.st27{fill:#373C3F;}
	.st28{fill:#BF3333;}
	.st29{opacity:0.2;fill:#FFFFFF;}
	.st30{opacity:0.3;fill:#FFFFFF;}
	.st31{fill:#7FB239;}
</style>
<g>
	<circle class="st0" cx="16" cy="16" r="16"/>
	<path class="st2" d="M32,16c0,8.84-7.165,16-16,16c-5.03,0-9.52-2.32-12.455-5.955c2.745,2.22,6.24,3.545,10.045,3.545
		c8.835,0,16-7.16,16-16c0-3.805-1.325-7.3-3.545-10.045C29.675,6.48,32,10.97,32,16z"/>
	<path class="st1" d="M10.377,22.031v1.48c0,0.31-0.26,0.57-0.58,0.57h-1.47c-0.32,0-0.58-0.26-0.58-0.57v-1.48
		c0-0.32,0.26-0.57,0.58-0.57h1.47C10.118,21.461,10.377,21.711,10.377,22.031z"/>
	<path class="st1" d="M12.711,24.281v1.48c0,0.31-0.26,0.57-0.58,0.57h-1.47c-0.32,0-0.58-0.26-0.58-0.57v-1.48
		c0-0.32,0.26-0.57,0.58-0.57h1.47C12.451,23.711,12.711,23.961,12.711,24.281z"/>
	<path class="st1" d="M15.002,22.031v1.48c0,0.31-0.26,0.57-0.58,0.57h-1.47c-0.32,0-0.58-0.26-0.58-0.57v-1.48
		c0-0.32,0.26-0.57,0.58-0.57h1.47C14.743,21.461,15.002,21.711,15.002,22.031z"/>
	<path class="st1" d="M17.336,24.281v1.48c0,0.31-0.26,0.57-0.58,0.57h-1.47c-0.32,0-0.58-0.26-0.58-0.57v-1.48
		c0-0.32,0.26-0.57,0.58-0.57h1.47C17.076,23.711,17.336,23.961,17.336,24.281z"/>
	<path class="st1" d="M19.628,22.031v1.48c0,0.31-0.26,0.57-0.58,0.57h-1.47c-0.32,0-0.58-0.26-0.58-0.57v-1.48
		c0-0.32,0.26-0.57,0.58-0.57h1.47C19.368,21.461,19.628,21.711,19.628,22.031z"/>
	<path class="st1" d="M21.961,24.281v1.48c0,0.31-0.26,0.57-0.58,0.57h-1.47c-0.32,0-0.58-0.26-0.58-0.57v-1.48
		c0-0.32,0.26-0.57,0.58-0.57h1.47C21.701,23.711,21.961,23.961,21.961,24.281z"/>
	<path class="st1" d="M24.253,22.031v1.48c0,0.31-0.26,0.57-0.58,0.57h-1.47c-0.32,0-0.58-0.26-0.58-0.57v-1.48
		c0-0.32,0.26-0.57,0.58-0.57h1.47C23.993,21.461,24.253,21.711,24.253,22.031z"/>
	<path class="st1" d="M23.742,23.031c-0.863,0.804,1.905,5.188,2.709,6.051c0.81,0.869,2.169,0.917,3.032,0.113
		c0.869-0.81,0.918-2.169,0.108-3.038C28.788,25.293,24.612,22.221,23.742,23.031z M28.811,28.472
		c-0.263,0.245-0.586,0.34-0.831,0.077c-0.251-0.269-0.647-1.143-0.384-1.388c0.263-0.245,1.106,0.212,1.357,0.481
		C29.198,27.906,29.08,28.222,28.811,28.472z"/>
	<path class="st2" d="M28.681,13.091c0,3.34-2.72,6.06-6.06,6.06c-3.33,0-6.05-2.72-6.05-6.06c0-3.35,2.72-6.07,6.05-6.07
		C25.961,7.022,28.681,9.742,28.681,13.091z"/>
	<path class="st2" d="M15.431,13.091c0,3.34-2.72,6.06-6.05,6.06c-3.34,0-6.06-2.72-6.06-6.06c0-3.35,2.72-6.07,6.06-6.07
		C12.711,7.022,15.431,9.742,15.431,13.091z"/>
	<circle class="st3" cx="22.625" cy="13.086" r="4.608"/>
	<path class="st1" d="M24.951,13.092c0,1.28-1.041,2.321-2.332,2.321c-1.28,0-2.321-1.041-2.321-2.321
		c0-1.28,1.041-2.333,2.321-2.333C23.91,10.76,24.951,11.812,24.951,13.092z"/>
	<path class="st3" d="M23.97,12.74c-0.173,0.173-0.53,0.082-0.805-0.193c-0.275-0.275-0.367-0.632-0.194-0.805
		c0.163-0.163,0.53-0.082,0.805,0.194C24.052,12.21,24.143,12.577,23.97,12.74z"/>
	<circle class="st3" cx="9.377" cy="13.086" r="4.608"/>
	<path class="st1" d="M11.704,13.092c0,1.28-1.041,2.321-2.332,2.321c-1.28,0-2.321-1.041-2.321-2.321
		c0-1.28,1.041-2.333,2.321-2.333C10.662,10.76,11.704,11.812,11.704,13.092z"/>
	<path class="st3" d="M10.722,12.74c-0.173,0.173-0.53,0.082-0.805-0.193c-0.275-0.275-0.367-0.632-0.194-0.805
		c0.163-0.163,0.53-0.082,0.805,0.194C10.804,12.21,10.896,12.577,10.722,12.74z"/>
</g>
</svg>
