<?xml version="1.0" encoding="utf-8"?>
<!-- Generator: Adobe Illustrator 21.1.0, SVG Export Plug-In . SVG Version: 6.00 Build 0)  -->
<svg version="1.1" id="Layer_1" xmlns="http://www.w3.org/2000/svg" xmlns:xlink="http://www.w3.org/1999/xlink" x="0px" y="0px"
	 viewBox="0 0 32 32" style="enable-background:new 0 0 32 32;" xml:space="preserve">
<style type="text/css">
	.st0{fill:#FFD93B;}
	.st1{fill:#3E4347;}
	.st2{fill:#F4C534;}
	.st3{fill:#FFFFFF;}
	.st4{fill:#E24B4B;}
	.st5{opacity:0.2;}
	.st6{opacity:0.3;}
	.st7{fill:#5A5F63;}
	.st8{fill:#D03F3F;}
	.st9{fill:#E9EFF4;}
	.st10{fill:#DEE4E9;}
	.st11{fill:#777B7E;}
	.st12{fill:#45CBEA;}
	.st13{fill:#E84D88;}
	.st14{opacity:0.25;}
	.st15{fill:#E9B02C;}
	.st16{fill:none;stroke:#E9B02C;stroke-width:2;stroke-linecap:round;stroke-linejoin:round;stroke-miterlimit:10;}
	.st17{fill:#65B1EF;}
	.st18{fill:#F29A2E;}
	.st19{fill:#59A5E0;}
	.st20{fill:#4E99D2;}
	.st21{opacity:0.15;}
	.st22{fill:#8CC63E;}
	.st23{opacity:0.25;fill:#FFFFFF;}
	.st24{fill:#38C0DC;}
	.st25{fill:#D23F77;}
	.st26{fill:#DAE5EF;}
	.st27{fill:#373C3F;}
	.st28{fill:#BF3333;}
	.st29{opacity:0.2;fill:#FFFFFF;}
	.st30{opacity:0.3;fill:#FFFFFF;}
	.st31{fill:#7FB239;}
</style>
<g>
	<g>
		<g>
			<g>
				<g>
					<g>
						<g>
							<g>
								<g>
									<g>
										<g>
											<g>
												<g>
													<g>
														<g>
															<g>
																<g>
																	<g>
																		<g>
																			<g>
																				<g>
																					<g>
																						<g>
																							<circle class="st0" cx="16" cy="16" r="16"/>
																						</g>
																					</g>
																				</g>
																			</g>
																		</g>
																		<g>
																			<g>
																				<g>
																					<g>
																						<g>
																							<path class="st2" d="M32,16c0,8.84-7.165,16-16,16c-5.03,0-9.52-2.32-12.455-5.955
																								c2.745,2.22,6.24,3.545,10.045,3.545c8.835,0,16-7.16,16-16c0-3.805-1.325-7.3-3.545-10.045
																								C29.675,6.48,32,10.97,32,16z"/>
																						</g>
																					</g>
																				</g>
																			</g>
																		</g>
																	</g>
																</g>
															</g>
															<g>
																<g>
																	<g>
																		<g>
																			<g>
																				<g>
																					<g class="st6">
																						<g>
																							<g>
																								<path class="st3" d="M3.196,13.279c-0.302-0.08-0.482-0.391-0.402-0.693
																									c1.217-4.569,4.782-8.269,9.304-9.655c0.299-0.091,0.616,0.076,0.708,0.376
																									c0.092,0.299-0.076,0.616-0.376,0.708C8.28,5.286,5.007,8.683,3.89,12.877
																									C3.809,13.181,3.497,13.359,3.196,13.279z"/>
																							</g>
																						</g>
																					</g>
																				</g>
																			</g>
																		</g>
																	</g>
																</g>
															</g>
														</g>
													</g>
												</g>
											</g>
										</g>
									</g>
								</g>
							</g>
						</g>
					</g>
				</g>
			</g>
		</g>
	</g>
	<g>
		<g>
			<circle class="st2" cx="11.262" cy="14.207" r="5.253"/>
		</g>
		<g>
			<circle class="st3" cx="11.262" cy="13.847" r="4.352"/>
		</g>
		<g>
			<g>
				
					<ellipse transform="matrix(0.7072 -0.7071 0.7071 0.7072 -6.4924 12.0176)" class="st1" cx="11.262" cy="13.847" rx="2.05" ry="2.05"/>
			</g>
			<g>
				
					<ellipse transform="matrix(0.7072 -0.707 0.707 0.7072 -5.7231 12.334)" class="st7" cx="12.029" cy="13.076" rx="0.365" ry="0.6"/>
			</g>
		</g>
	</g>
	<g>
		<g>
			<circle class="st2" cx="21.693" cy="14.207" r="3.92"/>
		</g>
		<g>
			<circle class="st3" cx="21.693" cy="13.939" r="3.248"/>
		</g>
		<g>
			<g>
				
					<ellipse transform="matrix(0.7072 -0.7071 0.7071 0.7072 -3.5024 19.4198)" class="st1" cx="21.693" cy="13.938" rx="1.53" ry="1.53"/>
			</g>
			<g>
				
					<ellipse transform="matrix(0.7072 -0.707 0.707 0.7072 -2.9288 19.6544)" class="st7" cx="22.266" cy="13.363" rx="0.272" ry="0.448"/>
			</g>
		</g>
	</g>
	<g>
		<path class="st1" d="M12.555,6.867c0,0-0.294-1.377-1.615-1.405C9.619,5.433,7.362,8.194,7.362,8.194S11.172,5.481,12.555,6.867z"
			/>
	</g>
	<g>
		<path class="st1" d="M21.224,8.468c0,0,0.662-1.072,1.962-0.89c1.299,0.181,2.755,2.773,2.755,2.773S22.954,7.558,21.224,8.468z"
			/>
	</g>
	<g>
		<circle class="st1" cx="16" cy="24.647" r="3.365"/>
	</g>
</g>
</svg>
