<?xml version="1.0" encoding="utf-8"?>
<!-- Generator: Adobe Illustrator 21.1.0, SVG Export Plug-In . SVG Version: 6.00 Build 0)  -->
<svg version="1.1" id="Layer_1" xmlns="http://www.w3.org/2000/svg" xmlns:xlink="http://www.w3.org/1999/xlink" x="0px" y="0px"
	 viewBox="0 0 32 32" style="enable-background:new 0 0 32 32;" xml:space="preserve">
<style type="text/css">
	.st0{fill:#FFD93B;}
	.st1{fill:#3E4347;}
	.st2{fill:#F4C534;}
	.st3{fill:#38C0DC;}
	.st4{fill:#45CBEA;}
	.st5{fill:#FFFFFF;}
	.st6{fill:#E24B4B;}
	.st7{fill:#5A5F63;}
	.st8{opacity:0.3;}
	.st9{opacity:0.2;}
	.st10{opacity:0.1;}
	.st11{fill:#E9B02C;}
	.st12{fill:#65B1EF;}
	.st13{fill:#E9EFF4;}
	.st14{fill:#8CC63E;}
	.st15{fill:#7FB239;}
	.st16{fill:#D03F3F;}
	.st17{fill:#D23F77;}
	.st18{fill:#E84D88;}
	.st19{fill:#59A5E0;}
	.st20{fill:#DEE4E9;}
	.st21{fill:#D3D9DD;}
	.st22{opacity:0.25;fill:#FFFFFF;}
	.st23{fill:#9A795F;}
	.st24{fill:#F29A2E;}
	.st25{fill:#FC97B2;}
	.st26{fill:#89664C;}
	.st27{fill:#7A5B44;}
	.st28{opacity:0.2;fill:#FFFFFF;}
	.st29{fill:#4E99D2;}
	.st30{fill:#BBC7D1;}
	.st31{fill:#DE9C25;}
</style>
<g>
	<polygon class="st12" points="16.746,0 16.293,11.121 15.303,0 	"/>
	<polygon class="st7" points="15.303,31.628 15.756,20.508 16.746,31.628 	"/>
	<polygon class="st12" points="31.613,1.518 20.7,11.62 30.32,0.225 	"/>
	<polygon class="st12" points="0.435,30.11 11.348,20.008 1.728,31.403 	"/>
	<polygon class="st7" points="31.839,16.538 20.718,16.084 31.839,15.091 	"/>
	<polygon class="st14" points="0.21,15.091 11.331,15.545 0.21,16.537 	"/>
	<polygon class="st24" points="30.32,31.403 20.218,20.49 31.613,30.11 	"/>
	<polygon class="st7" points="1.728,0.225 11.83,11.138 0.435,1.518 	"/>
	<polygon class="st24" points="10.261,0 14.365,11.1 8.917,0.557 	"/>
	<polygon class="st14" points="21.787,31.628 17.684,20.529 23.132,31.071 	"/>
	<polygon class="st14" points="23.132,0.557 18.185,11.307 21.787,0 	"/>
	<polygon class="st18" points="8.917,31.071 13.864,20.321 10.261,31.628 	"/>
	<polygon class="st24" points="31.838,10.051 20.739,14.155 31.282,8.707 	"/>
	<polygon class="st7" points="0.21,21.577 11.31,17.474 0.767,22.921 	"/>
	<polygon class="st18" points="31.281,22.921 20.531,17.974 31.838,21.577 	"/>
	<polygon class="st18" points="0.767,8.707 11.517,13.654 0.21,10.051 	"/>
	<circle class="st0" cx="16.024" cy="15.814" r="12.867"/>
	<path class="st1" d="M25.17,19.281c-1.394,3.691-4.962,6.315-9.145,6.315c-4.172,0-7.74-2.614-9.134-6.294
		c-0.236-0.615,0.359-1.22,0.974-0.964c5.269,2.204,10.703,2.266,16.341-0.031C24.811,18.061,25.396,18.666,25.17,19.281z"/>
	<path class="st2" d="M28.891,15.814c0,7.109-5.762,12.867-12.867,12.867c-4.045,0-7.656-1.866-10.016-4.789
		c2.207,1.785,5.018,2.851,8.078,2.851c7.105,0,12.867-5.758,12.867-12.867c0-3.06-1.066-5.87-2.851-8.078
		C27.021,8.158,28.891,11.769,28.891,15.814z"/>
	<path class="st18" d="M3.826,4.674C3.807,4.693,3.798,4.718,3.801,4.747l0.166,0.969C3.98,5.782,3.911,5.832,3.851,5.8L2.979,5.342
		c-0.025-0.013-0.053-0.013-0.075,0L2.032,5.8c-0.06,0.031-0.129-0.019-0.119-0.085l0.166-0.969
		c0.006-0.028-0.003-0.053-0.022-0.072L1.352,3.988C1.305,3.941,1.33,3.859,1.399,3.846l0.972-0.141
		c0.028-0.003,0.05-0.019,0.063-0.044L2.87,2.78c0.028-0.063,0.116-0.063,0.144,0L3.45,3.661c0.013,0.025,0.034,0.041,0.06,0.044
		l0.975,0.141c0.066,0.013,0.094,0.094,0.047,0.141L3.826,4.674z"/>
	<path class="st23" d="M7.737,29.542c-0.008,0.008-0.012,0.018-0.01,0.03l0.068,0.398c0.005,0.027-0.023,0.048-0.048,0.035
		l-0.358-0.188c-0.01-0.005-0.022-0.005-0.031,0l-0.358,0.188c-0.024,0.013-0.053-0.008-0.049-0.035l0.068-0.398
		c0.003-0.012-0.001-0.022-0.009-0.03l-0.29-0.282c-0.019-0.019-0.009-0.053,0.019-0.058l0.399-0.058
		c0.012-0.001,0.021-0.008,0.026-0.018l0.179-0.362c0.012-0.026,0.048-0.026,0.059,0l0.179,0.362
		c0.005,0.01,0.014,0.017,0.024,0.018l0.4,0.058c0.027,0.005,0.039,0.039,0.019,0.058L7.737,29.542z"/>
	<path class="st24" d="M7.075,26.653c-0.008,0.008-0.012,0.018-0.01,0.03l0.068,0.398c0.005,0.027-0.023,0.048-0.048,0.035
		l-0.358-0.188c-0.01-0.005-0.022-0.005-0.031,0l-0.358,0.188c-0.024,0.013-0.053-0.008-0.049-0.035l0.068-0.398
		c0.003-0.012-0.001-0.022-0.009-0.03l-0.29-0.282c-0.019-0.019-0.009-0.053,0.019-0.058l0.399-0.058
		c0.012-0.001,0.021-0.008,0.026-0.018l0.179-0.362c0.012-0.026,0.048-0.026,0.059,0l0.179,0.362
		c0.005,0.01,0.014,0.017,0.024,0.018l0.4,0.058c0.027,0.005,0.039,0.039,0.019,0.058L7.075,26.653z"/>
	<path class="st4" d="M14.066,30.399c-0.008,0.008-0.012,0.018-0.01,0.03l0.068,0.398c0.005,0.027-0.023,0.048-0.048,0.035
		l-0.358-0.188c-0.01-0.005-0.022-0.005-0.031,0l-0.358,0.188c-0.024,0.013-0.053-0.008-0.049-0.035l0.068-0.398
		c0.003-0.012-0.001-0.022-0.009-0.03l-0.29-0.282c-0.019-0.019-0.009-0.053,0.019-0.058l0.399-0.058
		c0.012-0.001,0.021-0.008,0.026-0.018l0.179-0.362c0.012-0.026,0.048-0.026,0.059,0l0.179,0.362
		c0.005,0.01,0.014,0.017,0.024,0.018l0.4,0.058c0.027,0.005,0.039,0.039,0.019,0.058L14.066,30.399z"/>
	<path class="st7" d="M27.187,3.735c-0.026,0.007-0.046,0.024-0.058,0.05L26.795,4.71c-0.022,0.063-0.106,0.073-0.143,0.016
		l-0.531-0.829c-0.016-0.023-0.04-0.037-0.065-0.037l-0.984-0.033c-0.067-0.002-0.103-0.08-0.062-0.133l0.624-0.76
		c0.019-0.021,0.024-0.048,0.017-0.074l-0.274-0.946c-0.018-0.064,0.045-0.123,0.111-0.099l0.915,0.358
		c0.026,0.011,0.053,0.008,0.076-0.007l0.815-0.55c0.056-0.041,0.132,0.003,0.125,0.071l-0.057,0.982
		c-0.002,0.028,0.01,0.052,0.03,0.068l0.778,0.605c0.051,0.044,0.035,0.128-0.029,0.146L27.187,3.735z"/>
	<path class="st14" d="M29.586,7.471c-0.011,0.009-0.018,0.023-0.017,0.038l0.042,0.54c0.004,0.037-0.037,0.061-0.068,0.04
		L29.09,7.793c-0.013-0.008-0.029-0.01-0.041-0.004l-0.499,0.205c-0.034,0.014-0.069-0.017-0.061-0.053l0.14-0.523
		c0.005-0.015,0.001-0.029-0.008-0.041l-0.351-0.414c-0.023-0.028-0.006-0.072,0.033-0.075l0.538-0.026
		c0.016,0,0.028-0.008,0.036-0.021l0.282-0.46c0.019-0.033,0.067-0.028,0.079,0.008l0.194,0.506c0.006,0.014,0.017,0.024,0.03,0.027
		l0.526,0.129c0.035,0.01,0.047,0.057,0.019,0.08L29.586,7.471z"/>
	<path class="st7" d="M2.218,13.675c-0.017,0.014-0.027,0.035-0.027,0.059l0.065,0.836c0.005,0.057-0.057,0.094-0.105,0.062
		l-0.702-0.46c-0.02-0.013-0.044-0.015-0.064-0.006l-0.773,0.318c-0.053,0.022-0.107-0.026-0.094-0.082l0.216-0.809
		c0.008-0.023,0.001-0.046-0.013-0.063L0.179,12.89c-0.036-0.044-0.009-0.111,0.051-0.116l0.833-0.04
		c0.024,0,0.044-0.012,0.056-0.032l0.437-0.713C1.585,11.937,1.66,11.945,1.679,12l0.3,0.784c0.009,0.022,0.026,0.037,0.047,0.042
		l0.814,0.199c0.055,0.016,0.072,0.088,0.029,0.124L2.218,13.675z"/>
	<path class="st24" d="M1.059,18.046c-0.008,0.006-0.012,0.016-0.012,0.026l0.029,0.371c0.002,0.025-0.025,0.042-0.046,0.028
		l-0.311-0.204c-0.009-0.006-0.02-0.007-0.028-0.003l-0.343,0.141c-0.023,0.01-0.048-0.012-0.042-0.036l0.096-0.359
		c0.003-0.01,0.001-0.02-0.006-0.028l-0.241-0.284c-0.016-0.019-0.004-0.049,0.023-0.051l0.37-0.018
		c0.011,0,0.019-0.005,0.025-0.014l0.194-0.316c0.013-0.023,0.046-0.019,0.054,0.005l0.133,0.348
		c0.004,0.01,0.012,0.017,0.021,0.019l0.361,0.088c0.024,0.007,0.032,0.039,0.013,0.055L1.059,18.046z"/>
	<path class="st18" d="M2.271,19.891c-0.008,0.006-0.012,0.016-0.012,0.026l0.029,0.371c0.002,0.025-0.025,0.042-0.046,0.028
		L1.93,20.112c-0.009-0.006-0.02-0.007-0.028-0.003L1.558,20.25c-0.023,0.01-0.048-0.012-0.042-0.036l0.096-0.359
		c0.003-0.01,0.001-0.02-0.006-0.028l-0.241-0.284c-0.016-0.019-0.004-0.049,0.023-0.051l0.37-0.018
		c0.011,0,0.019-0.005,0.025-0.014l0.194-0.316c0.013-0.023,0.046-0.019,0.054,0.005l0.133,0.348
		c0.004,0.01,0.012,0.017,0.021,0.019l0.361,0.088c0.024,0.007,0.032,0.039,0.013,0.055L2.271,19.891z"/>
	<path class="st25" d="M20.714,31.57c-0.008,0.006-0.012,0.016-0.012,0.026l0.029,0.371c0.002,0.025-0.025,0.042-0.046,0.028
		l-0.311-0.204c-0.009-0.006-0.02-0.007-0.028-0.003l-0.343,0.141c-0.023,0.01-0.048-0.012-0.042-0.036l0.096-0.359
		c0.003-0.01,0.001-0.02-0.006-0.028l-0.241-0.284c-0.016-0.019-0.004-0.049,0.023-0.051l0.37-0.018
		c0.011,0,0.019-0.005,0.025-0.014l0.194-0.316c0.013-0.023,0.046-0.019,0.054,0.005l0.133,0.348
		c0.004,0.01,0.012,0.017,0.021,0.019l0.361,0.088c0.024,0.007,0.032,0.039,0.013,0.055L20.714,31.57z"/>
	<path class="st26" d="M18.596,29.803c-0.008,0.006-0.012,0.016-0.012,0.026l0.029,0.371c0.002,0.025-0.025,0.042-0.046,0.028
		l-0.311-0.204c-0.009-0.006-0.02-0.007-0.028-0.003l-0.343,0.141c-0.023,0.01-0.048-0.012-0.042-0.036l0.096-0.359
		c0.003-0.01,0.001-0.02-0.006-0.028l-0.241-0.284c-0.016-0.019-0.004-0.049,0.023-0.051l0.37-0.018
		c0.011,0,0.019-0.005,0.025-0.014l0.194-0.316c0.013-0.023,0.046-0.019,0.054,0.005l0.133,0.348
		c0.004,0.01,0.012,0.017,0.021,0.019l0.361,0.088c0.024,0.007,0.032,0.039,0.013,0.055L18.596,29.803z"/>
	<path class="st14" d="M24.966,27.882c-0.008,0.006-0.012,0.016-0.012,0.026l0.029,0.371c0.002,0.025-0.025,0.042-0.046,0.028
		l-0.311-0.204c-0.009-0.006-0.02-0.007-0.028-0.003l-0.343,0.141c-0.023,0.01-0.048-0.012-0.042-0.036l0.096-0.359
		c0.003-0.01,0.001-0.02-0.006-0.028l-0.241-0.284c-0.016-0.019-0.004-0.049,0.023-0.051l0.37-0.018
		c0.011,0,0.019-0.005,0.025-0.014l0.194-0.316c0.013-0.023,0.046-0.019,0.054,0.005l0.133,0.348
		c0.004,0.01,0.012,0.017,0.021,0.019l0.361,0.088c0.024,0.007,0.032,0.039,0.013,0.055L24.966,27.882z"/>
	<path class="st12" d="M28.506,23.427c-0.008,0.006-0.012,0.016-0.012,0.026l0.029,0.371c0.002,0.025-0.025,0.042-0.046,0.028
		l-0.311-0.204c-0.009-0.006-0.02-0.007-0.028-0.003l-0.343,0.141c-0.023,0.01-0.048-0.012-0.042-0.036l0.096-0.359
		c0.003-0.01,0.001-0.02-0.006-0.028l-0.241-0.284c-0.016-0.019-0.004-0.049,0.023-0.051l0.37-0.018
		c0.011,0,0.019-0.005,0.025-0.014l0.194-0.316c0.013-0.023,0.046-0.019,0.054,0.005l0.133,0.348
		c0.004,0.01,0.012,0.017,0.021,0.019l0.361,0.088c0.024,0.007,0.032,0.039,0.013,0.055L28.506,23.427z"/>
	<path class="st6" d="M26.902,30.4c-0.008,0.006-0.012,0.016-0.012,0.026l0.029,0.371c0.002,0.025-0.025,0.042-0.046,0.028
		l-0.311-0.204c-0.009-0.006-0.02-0.007-0.028-0.003l-0.343,0.141c-0.023,0.01-0.048-0.012-0.042-0.036l0.096-0.359
		c0.003-0.01,0.001-0.02-0.006-0.028l-0.241-0.284c-0.016-0.019-0.004-0.049,0.023-0.051l0.37-0.018
		c0.011,0,0.019-0.005,0.025-0.014l0.194-0.316c0.013-0.023,0.046-0.019,0.054,0.005l0.133,0.348
		c0.004,0.01,0.012,0.017,0.021,0.019l0.361,0.088c0.024,0.007,0.032,0.039,0.013,0.055L26.902,30.4z"/>
	<path class="st18" d="M31.519,5.406c-0.009,0.004-0.015,0.011-0.017,0.021l-0.059,0.346c-0.004,0.024-0.033,0.032-0.049,0.015
		l-0.238-0.259c-0.007-0.007-0.016-0.011-0.025-0.009l-0.346,0.05c-0.024,0.003-0.041-0.022-0.03-0.043l0.171-0.306
		c0.005-0.009,0.005-0.018,0.001-0.027l-0.155-0.316c-0.01-0.021,0.008-0.046,0.033-0.042l0.342,0.069
		c0.01,0.002,0.019,0,0.026-0.007l0.251-0.244c0.017-0.018,0.046-0.007,0.048,0.017l0.041,0.349c0.001,0.01,0.007,0.018,0.015,0.022
		l0.31,0.165c0.021,0.012,0.02,0.043-0.001,0.053L31.519,5.406z"/>
	<path class="st7" d="M4.842,1.096c0.947-0.211,2.441-0.167,3.236,0.403c0.619,0.459,0.649,1.256,0.235,1.745
		C7.468,4.299,5.929,3.402,6.369,2.402C6.716,1.522,8.01,1.9,7.78,2.725c-0.09,0.299-0.286,0.36-0.274,0.362l-0.01-0.017
		c-0.01,0,0.164-0.088,0.207-0.362c0.093-0.724-0.885-0.899-1.145-0.23c-0.351,0.833,0.94,1.52,1.673,0.694
		c0.434-0.466,0.39-1.23-0.213-1.585C7.305,1.176,5.641,1.047,4.845,1.116L4.842,1.096z"/>
	<path class="st12" d="M30.018,12.391c-0.092,0.362-0.162,0.612-0.181,0.998c-0.013,0.294,0.052,0.652,0.279,0.917
		c0.623,0.778,1.631-0.146,1.039-0.64c-0.229-0.232-0.636-0.037-0.682,0.224c-0.059,0.268,0.208,0.447,0.371,0.455
		c0.177,0.018,0.26-0.078,0.259-0.07c-0.001-0.009-0.065,0.101-0.261,0.112c-0.569,0.013-0.712-0.688-0.174-0.963
		c0.179-0.1,0.453-0.081,0.626,0.076c0.647,0.548,0.014,1.539-0.8,1.302c-0.511-0.14-0.887-0.63-0.798-1.424
		C29.74,13.031,29.88,12.72,30.018,12.391z"/>
	<path class="st18" d="M17.871,0.317c-0.411,0.9,0.161,1.87,1.042,1.755c0.425-0.046,0.844-0.431,0.848-0.884
		c0.034-0.514-0.459-0.793-0.819-0.643c-0.447,0.17-0.545,0.675-0.311,0.883c0.245,0.22,0.564,0.051,0.584-0.258
		c0.008-0.233,0.012-0.366,0.012-0.366c0.05,0.324,0.129,0.562-0.112,0.784c-0.149,0.133-0.414,0.14-0.607-0.008
		c-0.423-0.318-0.252-1.11,0.324-1.319c0.596-0.249,1.324,0.228,1.279,0.942c-0.035,0.643-0.605,1.129-1.171,1.17
		C17.82,2.472,17.237,1.132,17.871,0.317z"/>
	<path class="st18" d="M2.186,26.487L1.93,25.503c0.144-0.123,0.359-0.164,0.605-0.277c1.117-0.533,1.732-1.65,1.671-2.799
		C5.374,24.15,3.211,26.477,2.186,26.487z"/>
	<path class="st24" d="M30.875,19.473c-0.26,0.13-0.41,0.31-0.52,0.49c-0.39-0.35-0.2-0.93-0.09-1.49
		c-0.233,0.609-0.544,1.186-0.02,1.67c-0.175,0.39-0.21,0.65-0.19,0.89c0,0,0.02-0.37,0.3-0.8c0.28,0.2,0.73,0.26,1.05-0.01
		C31.805,19.853,31.405,19.243,30.875,19.473z M31.235,20.043c-0.19,0.18-0.53,0.16-0.75,0.01c0.12-0.15,0.28-0.3,0.47-0.38
		C31.245,19.553,31.465,19.853,31.235,20.043z"/>
	<path class="st6" d="M16.025,25.596c1.499,0,2.917-0.342,4.186-0.944c-0.051-0.45-0.173-0.905-0.395-1.351
		c-0.526-1.056-1.83-1.397-2.899-0.887c-0.694,0.317-1.461,0.381-2.185,0.239c-1.209-0.252-2.445,0.371-2.698,1.581
		c-0.035,0.163-0.039,0.322-0.054,0.483C13.215,25.277,14.582,25.596,16.025,25.596z"/>
	<path class="st2" d="M14.978,12.854c0,2.468-1.669,4.467-3.729,4.467c-2.06,0-3.728-1.999-3.728-4.467
		c0-2.46,1.669-4.459,3.728-4.459C13.309,8.395,14.978,10.394,14.978,12.854z"/>
	<path class="st1" d="M14.933,13.504c-0.695-0.801-2.078-1.347-3.684-1.347c-1.606,0-2.989,0.546-3.683,1.347
		c0.001-1.677,1.641-2.817,3.683-2.817C13.292,10.687,14.931,11.827,14.933,13.504z"/>
	<path class="st2" d="M24.528,12.854c0,2.468-1.669,4.467-3.729,4.467c-2.06,0-3.728-1.999-3.728-4.467
		c0-2.46,1.669-4.459,3.728-4.459C22.86,8.395,24.528,10.394,24.528,12.854z"/>
	<path class="st1" d="M24.483,13.504c-0.695-0.801-2.078-1.347-3.684-1.347c-1.606,0-2.989,0.546-3.683,1.347
		c0.001-1.677,1.641-2.817,3.683-2.817C22.842,10.687,24.482,11.827,24.483,13.504z"/>
	<path class="st1" d="M24.809,9.321c-0.206,0-0.408-0.102-0.527-0.289c-1.867-2.92-5.098-3.197-5.13-3.199
		c-0.345-0.026-0.603-0.326-0.576-0.67c0.025-0.346,0.349-0.608,0.67-0.576c0.158,0.012,3.89,0.332,6.089,3.772
		c0.187,0.291,0.102,0.677-0.189,0.863C25.041,9.289,24.925,9.321,24.809,9.321z"/>
	<path class="st1" d="M7.24,9.321c-0.115,0-0.231-0.032-0.336-0.099C6.613,9.037,6.528,8.65,6.715,8.36
		c2.199-3.441,5.93-3.761,6.088-3.772c0.315-0.024,0.643,0.23,0.669,0.574c0.027,0.343-0.229,0.644-0.573,0.672
		c-0.032,0.003-3.275,0.298-5.131,3.199C7.648,9.219,7.446,9.321,7.24,9.321z"/>
	<path class="st5" d="M8.114,18.429c1.844,3.521,3.647,3.494,7.911,3.494c4.277,0,6.084,0.019,7.931-3.527
		C18.496,20.554,13.228,20.5,8.114,18.429z"/>
</g>
</svg>
