<?xml version="1.0" encoding="utf-8"?>
<!-- Generator: Adobe Illustrator 21.1.0, SVG Export Plug-In . SVG Version: 6.00 Build 0)  -->
<svg version="1.1" id="Layer_1" xmlns="http://www.w3.org/2000/svg" xmlns:xlink="http://www.w3.org/1999/xlink" x="0px" y="0px"
	 viewBox="0 0 32 32" style="enable-background:new 0 0 32 32;" xml:space="preserve">
<style type="text/css">
	.st0{fill:#FFD93B;}
	.st1{fill:#3E4347;}
	.st2{fill:#F4C534;}
	.st3{fill:#FFFFFF;}
	.st4{fill:#E24B4B;}
	.st5{opacity:0.2;}
	.st6{opacity:0.3;}
	.st7{fill:#5A5F63;}
	.st8{fill:#D03F3F;}
	.st9{fill:#E9EFF4;}
	.st10{fill:#DEE4E9;}
	.st11{fill:#777B7E;}
	.st12{fill:#45CBEA;}
	.st13{fill:#E84D88;}
	.st14{opacity:0.25;}
	.st15{fill:#E9B02C;}
	.st16{fill:none;stroke:#E9B02C;stroke-width:2;stroke-linecap:round;stroke-linejoin:round;stroke-miterlimit:10;}
	.st17{fill:#65B1EF;}
	.st18{fill:#F29A2E;}
	.st19{fill:#59A5E0;}
	.st20{fill:#4E99D2;}
	.st21{opacity:0.15;}
	.st22{fill:#8CC63E;}
	.st23{opacity:0.25;fill:#FFFFFF;}
	.st24{fill:#38C0DC;}
	.st25{fill:#D23F77;}
	.st26{fill:#DAE5EF;}
	.st27{fill:#373C3F;}
	.st28{fill:#BF3333;}
	.st29{opacity:0.2;fill:#FFFFFF;}
	.st30{opacity:0.3;fill:#FFFFFF;}
	.st31{fill:#7FB239;}
</style>
<g>
	<g>
		<g>
			<g>
				<g>
					<g>
						<g>
							<g>
								<g>
									<g>
										<g>
											<g>
												<g>
													<g>
														<g>
															<g>
																<g>
																	<g>
																		<g>
																			<g>
																				<g>
																					<g>
																						<g>
																							<g>
																								<circle class="st0" cx="16" cy="16" r="16"/>
																							</g>
																						</g>
																					</g>
																				</g>
																			</g>
																			<g>
																				<g>
																					<g>
																						<g>
																							<g>
																								<path class="st2" d="M32,16c0,8.84-7.165,16-16,16c-5.03,0-9.52-2.32-12.455-5.955
																									c2.745,2.22,6.24,3.545,10.045,3.545c8.835,0,16-7.16,16-16c0-3.805-1.325-7.3-3.545-10.045
																									C29.675,6.48,32,10.97,32,16z"/>
																							</g>
																						</g>
																					</g>
																				</g>
																			</g>
																		</g>
																	</g>
																</g>
																<g>
																	<g>
																		<g>
																			<g>
																				<g>
																					<g>
																						<g class="st6">
																							<g>
																								<g>
																									<path class="st3" d="M3.196,13.279c-0.302-0.08-0.482-0.391-0.402-0.693
																										c1.217-4.569,4.782-8.269,9.304-9.655c0.299-0.091,0.617,0.076,0.708,0.376
																										c0.092,0.299-0.076,0.616-0.376,0.708C8.28,5.286,5.007,8.683,3.89,12.877
																										C3.809,13.181,3.498,13.359,3.196,13.279z"/>
																								</g>
																							</g>
																						</g>
																					</g>
																				</g>
																			</g>
																		</g>
																	</g>
																</g>
															</g>
														</g>
													</g>
												</g>
											</g>
										</g>
									</g>
								</g>
							</g>
						</g>
					</g>
				</g>
			</g>
		</g>
	</g>
	<g>
		<path class="st1" d="M21.976,25.347c-0.751,0.566-2.903-1.985-6.001-1.873c-3.098-0.111-5.199,2.438-5.951,1.873
			c-0.88-0.495,0.545-5.313,5.976-5.328C21.431,20.034,22.857,24.85,21.976,25.347z"/>
	</g>
	<g>
		<g>
			<g>
				<path class="st3" d="M14.757,12.897c-0.226,1.843-1.53,3.476-3.301,4.087c-2.882,0.992-5.729-0.668-6.508-3.305
					c-0.12-0.389,0.107-0.787,0.51-0.896c2.855-0.735,5.011-2.282,6.479-4.28c0.248-0.32,0.709-0.394,1.017-0.131
					C14.211,9.394,14.98,11.028,14.757,12.897z"/>
			</g>
			<g>
				<g>
					
						<ellipse transform="matrix(0.7071 -0.7071 0.7071 0.7071 -6.8223 11.261)" class="st1" cx="10.182" cy="13.866" rx="2.134" ry="2.134"/>
				</g>
				<g>
					<path class="st7" d="M11.531,13.518c-0.16,0.15-0.51,0.04-0.78-0.23c-0.27-0.27-0.37-0.61-0.21-0.76
						c0.15-0.15,0.49-0.06,0.76,0.22C11.571,13.018,11.681,13.368,11.531,13.518z"/>
				</g>
			</g>
			<g>
				<path class="st17" d="M11.457,16.984c0.909-0.313,1.692-0.899,2.272-1.641c-0.373-0.2-0.597-0.502-1.266-0.502
					c-0.996,0-0.996,0.677-1.993,0.677c-0.996,0-0.996-0.677-1.992-0.677c-0.995,0-0.995,0.677-1.99,0.677
					c-0.28,0-0.478-0.056-0.645-0.133C7.099,16.958,9.266,17.738,11.457,16.984z"/>
			</g>
			<g>
				<path class="st19" d="M12.041,14.888c-0.08,0.18-0.2,0.34-0.35,0.49c-0.83,0.83-2.18,0.83-3.02,0
					c-0.16-0.16-0.28-0.34-0.37-0.53c0.06-0.01,0.12-0.01,0.18-0.01c0.99,0,0.99,0.68,1.99,0.68
					C11.301,15.518,11.441,15.048,12.041,14.888z"/>
			</g>
			<g>
				<path class="st1" d="M5.95,10.773c1.331-0.698,2.386-1.701,3.38-2.676c0.377-0.348,2.654-2.698,3.077-3.028l0.132,0.071
					c-0.225,1.51-1.19,2.911-2.415,3.856c-1.182,0.965-3.116,1.755-4.127,1.92L5.95,10.773z"/>
			</g>
			<g>
				<path class="st19" d="M8.297,22.051c0-0.934-1.69-3.935-1.69-3.935s-1.69,3.002-1.69,3.935s0.757,1.69,1.69,1.69
					C7.54,23.741,8.297,22.985,8.297,22.051z"/>
			</g>
		</g>
		<g>
			<g>
				<path class="st3" d="M17.243,12.897c0.226,1.843,1.53,3.476,3.301,4.087c2.882,0.992,5.729-0.668,6.508-3.305
					c0.12-0.389-0.107-0.787-0.51-0.896c-2.855-0.735-5.011-2.282-6.479-4.28c-0.248-0.32-0.709-0.394-1.017-0.131
					C17.789,9.394,17.02,11.028,17.243,12.897z"/>
			</g>
			<g>
				<g>
					
						<ellipse transform="matrix(0.7071 -0.7071 0.7071 0.7071 -3.4142 19.4887)" class="st1" cx="21.818" cy="13.866" rx="2.134" ry="2.134"/>
				</g>
				<g>
					<path class="st7" d="M20.469,13.518c0.16,0.15,0.51,0.04,0.78-0.23c0.27-0.27,0.37-0.61,0.21-0.76
						c-0.15-0.15-0.49-0.06-0.76,0.22C20.429,13.018,20.319,13.368,20.469,13.518z"/>
				</g>
			</g>
			<g>
				<path class="st17" d="M20.543,16.984c-0.909-0.313-1.692-0.899-2.272-1.641c0.373-0.2,0.597-0.502,1.266-0.502
					c0.996,0,0.996,0.677,1.993,0.677c0.996,0,0.996-0.677,1.993-0.677c0.995,0,0.995,0.677,1.99,0.677
					c0.28,0,0.478-0.056,0.645-0.133C24.901,16.958,22.734,17.738,20.543,16.984z"/>
			</g>
			<g>
				<path class="st19" d="M19.959,14.888c0.08,0.18,0.2,0.34,0.35,0.49c0.83,0.83,2.18,0.83,3.02,0c0.16-0.16,0.28-0.34,0.37-0.53
					c-0.06-0.01-0.12-0.01-0.18-0.01c-0.99,0-0.99,0.68-1.99,0.68C20.699,15.518,20.559,15.048,19.959,14.888z"/>
			</g>
			<g>
				<path class="st1" d="M26.05,10.773c-1.331-0.698-2.386-1.701-3.38-2.676c-0.377-0.348-2.654-2.698-3.077-3.028L19.461,5.14
					c0.225,1.51,1.19,2.911,2.414,3.856c1.182,0.965,3.116,1.755,4.127,1.92L26.05,10.773z"/>
			</g>
			<g>
				<path class="st19" d="M23.703,22.051c0-0.934,1.69-3.935,1.69-3.935s1.69,3.002,1.69,3.935s-0.757,1.69-1.69,1.69
					C24.46,23.741,23.703,22.985,23.703,22.051z"/>
			</g>
		</g>
	</g>
</g>
</svg>
