<?xml version="1.0" encoding="utf-8"?>
<!-- Generator: Adobe Illustrator 21.1.0, SVG Export Plug-In . SVG Version: 6.00 Build 0)  -->
<svg version="1.1" id="Layer_1" xmlns="http://www.w3.org/2000/svg" xmlns:xlink="http://www.w3.org/1999/xlink" x="0px" y="0px"
	 viewBox="0 0 32 32" style="enable-background:new 0 0 32 32;" xml:space="preserve">
<style type="text/css">
	.st0{fill:#FFD93B;}
	.st1{fill:#3E4347;}
	.st2{fill:#F4C534;}
	.st3{fill:#FFFFFF;}
	.st4{fill:#E24B4B;}
	.st5{opacity:0.2;}
	.st6{opacity:0.3;}
	.st7{fill:#5A5F63;}
	.st8{fill:#D03F3F;}
	.st9{fill:#E9EFF4;}
	.st10{fill:#DEE4E9;}
	.st11{fill:#777B7E;}
	.st12{fill:#45CBEA;}
	.st13{fill:#E84D88;}
	.st14{opacity:0.25;}
	.st15{fill:#E9B02C;}
	.st16{fill:none;stroke:#E9B02C;stroke-width:2;stroke-linecap:round;stroke-linejoin:round;stroke-miterlimit:10;}
	.st17{fill:#65B1EF;}
	.st18{fill:#F29A2E;}
	.st19{fill:#59A5E0;}
	.st20{fill:#4E99D2;}
	.st21{opacity:0.15;}
	.st22{fill:#8CC63E;}
	.st23{opacity:0.25;fill:#FFFFFF;}
	.st24{fill:#38C0DC;}
	.st25{fill:#D23F77;}
	.st26{fill:#DAE5EF;}
	.st27{fill:#373C3F;}
	.st28{fill:#BF3333;}
	.st29{opacity:0.2;fill:#FFFFFF;}
	.st30{opacity:0.3;fill:#FFFFFF;}
	.st31{fill:#7FB239;}
</style>
<g>
	<g>
		<g>
			<g>
				<g>
					<g>
						<g>
							<g>
								<g>
									<g>
										<g>
											<g>
												<g>
													<g>
														<g>
															<g>
																<g>
																	<g>
																		<g>
																			<g>
																				<g>
																					<g>
																						<g>
																							<g>
																								<g>
																									<g>
																										<g>
																											<circle class="st0" cx="16" cy="16" r="16"/>
																										</g>
																									</g>
																								</g>
																							</g>
																						</g>
																						<g>
																							<g>
																								<g>
																									<g>
																										<g>
																											<path class="st1" d="M25.939,21.497c-1.536,4.345-5.315,7.512-9.935,7.512
																												c-4.64,0-8.418-3.177-9.943-7.531c-0.121-0.319,0.199-0.664,0.527-0.58
																												c6.448,1.655,12.81,1.655,18.815,0.019C25.739,20.823,26.049,21.168,25.939,21.497z"/>
																										</g>
																									</g>
																								</g>
																							</g>
																						</g>
																						<g>
																							<g>
																								<path class="st3" d="M27.792,13.487c0,2.77-2.24,5.01-5.01,5.01c-2.76,0-5.01-2.24-5.01-5.01
																									s2.25-5.01,5.01-5.01C25.552,8.477,27.792,10.717,27.792,13.487z"/>
																							</g>
																						</g>
																						<g>
																							<g>
																								<path class="st3" d="M4.559,13.487c0,2.77,2.24,5.01,5.01,5.01c2.76,0,5.01-2.24,5.01-5.01
																									s-2.25-5.01-5.01-5.01C6.799,8.477,4.559,10.717,4.559,13.487z"/>
																							</g>
																						</g>
																						<g>
																							<g>
																								<g>
																									<g>
																										<g>
																											<path class="st2" d="M32,16c0,8.84-7.165,16-16,16c-5.03,0-9.52-2.32-12.455-5.955
																												c2.745,2.22,6.24,3.545,10.045,3.545c8.835,0,16-7.16,16-16c0-3.805-1.325-7.3-3.545-10.045
																												C29.675,6.48,32,10.97,32,16z"/>
																										</g>
																									</g>
																								</g>
																							</g>
																						</g>
																					</g>
																				</g>
																			</g>
																		</g>
																	</g>
																</g>
															</g>
														</g>
													</g>
												</g>
											</g>
										</g>
									</g>
								</g>
							</g>
						</g>
					</g>
				</g>
			</g>
			<g>
				<g class="st14">
					<g>
						<path class="st3" d="M28.774,16.998c-0.98,1.09-2.28,1.64-3.74,1.64c-1.035,0-1.508-0.18-4.28-0.91
							c-2.46-0.64-3.67-2.4-3.25-4.7c0.52-2.78,3.37-5.65,7.24-5.65c2.348,0,4.436,1.108,5.25,3.3
							C30.764,12.758,30.264,15.358,28.774,16.998z"/>
					</g>
				</g>
				<g class="st14">
					<g>
						<path class="st3" d="M3.227,16.998c0.98,1.09,2.28,1.64,3.74,1.64c1.035,0,1.508-0.18,4.28-0.91c2.46-0.64,3.67-2.4,3.25-4.7
							c-1.128-6.032-10.444-7.861-12.49-2.35C1.237,12.758,1.737,15.358,3.227,16.998z"/>
					</g>
				</g>
				<g>
					<path class="st1" d="M31.089,12.035c-0.723-6.199-8.32-6.941-12.254-2.963c-0.743,0.751-1.779,1.136-2.835,1.136
						c-1.057,0-2.093-0.385-2.836-1.137C9.386,5.255,2,5.717,0.966,11.646c-0.285,1.635,0.037,3.356,0.895,4.776
						c1.186,1.962,2.989,2.985,5.093,2.985c1.141,0,1.723-0.214,4.486-0.94c3.137-0.825,4.041-3.075,3.858-5.077
						c0.462-0.16,0.946-0.16,1.408,0c-0.184,2.001,0.72,4.252,3.858,5.077c2.755,0.724,3.344,0.94,4.486,0.94
						c2.08,0,3.866-1,5.052-2.917C30.918,15.168,31.269,13.578,31.089,12.035z M11.12,17.248C8.409,17.96,5.759,19.047,3.6,16.665
						c-1.371-1.513-1.832-3.904-1.122-5.817c1.867-5.028,10.508-3.225,11.526,2.269C14.383,15.161,13.331,16.666,11.12,17.248z
						 M28.404,16.665c-2.129,2.347-4.696,1.325-7.519,0.583c-2.212-0.582-3.263-2.087-2.885-4.131
						c0.492-2.653,3.259-5.235,6.746-5.235c0.257,0,0.571,0.013,0.835,0.043v0.012c1.9,0.236,3.336,1.27,3.945,2.911
						C30.235,12.761,29.774,15.152,28.404,16.665z"/>
				</g>
			</g>
		</g>
		<g>
			<g>
				<g>
					<circle class="st7" cx="21.906" cy="13.699" r="2.542"/>
				</g>
				<g>
					<path class="st11" d="M20.496,13.855c-0.264,0.015-0.428-0.308-0.367-0.722c0.061-0.414,0.325-0.762,0.589-0.777
						c0.264-0.015,0.428,0.308,0.367,0.722C21.024,13.492,20.76,13.839,20.496,13.855z"/>
				</g>
			</g>
			<g>
				<g>
					<circle class="st7" cx="10.094" cy="13.699" r="2.542"/>
				</g>
				<g>
					<path class="st11" d="M11.504,13.855c0.264,0.015,0.428-0.308,0.367-0.722c-0.061-0.414-0.325-0.762-0.589-0.777
						c-0.264-0.015-0.428,0.308-0.367,0.722C10.976,13.492,11.24,13.839,11.504,13.855z"/>
				</g>
			</g>
		</g>
		<path class="st4" d="M16.004,29.008c1.738,0,3.356-0.449,4.782-1.239c-0.343-1.317-1.455-2.358-2.887-2.533
			c-0.847-0.104-1.653,0.11-2.306,0.55c-0.344-0.182-0.729-0.302-1.143-0.353c-1.576-0.193-3.017,0.724-3.579,2.128
			C12.378,28.477,14.117,29.008,16.004,29.008z"/>
		<g class="st14">
			
				<ellipse transform="matrix(0.1031 -0.9947 0.9947 0.1031 -10.0003 41.0262)" class="st3" cx="17.749" cy="26.058" rx="0.352" ry="0.679"/>
		</g>
	</g>
	<g>
		<g>
			<path class="st1" d="M25.036,4.587c-1.103,0.112-2.694,0.626-3.773,1.434c-0.91,0.631-2.268,1.932-3.319,2.264
				c-0.025-1.06,0.931-2.579,2.857-3.174C22.506,4.526,24.187,4.431,25.036,4.587z"/>
		</g>
		<g>
			<path class="st1" d="M6.964,4.587C7.813,4.431,9.493,4.526,11.2,5.112c1.809,0.559,2.884,1.991,2.857,3.174
				c-1.063-0.336-2.4-1.627-3.319-2.264C9.634,5.194,8.026,4.695,6.964,4.587z"/>
		</g>
	</g>
</g>
</svg>
