<?xml version="1.0" encoding="utf-8"?>
<!-- Generator: Adobe Illustrator 21.1.0, SVG Export Plug-In . SVG Version: 6.00 Build 0)  -->
<svg version="1.1" id="Layer_1" xmlns="http://www.w3.org/2000/svg" xmlns:xlink="http://www.w3.org/1999/xlink" x="0px" y="0px"
	 viewBox="0 0 32 32" style="enable-background:new 0 0 32 32;" xml:space="preserve">
<style type="text/css">
	.st0{fill:#FFD93B;}
	.st1{fill:#3E4347;}
	.st2{fill:#F4C534;}
	.st3{fill:#FFFFFF;}
	.st4{fill:#E24B4B;}
	.st5{opacity:0.2;}
	.st6{opacity:0.3;}
	.st7{fill:#5A5F63;}
	.st8{fill:#D03F3F;}
	.st9{fill:#E9EFF4;}
	.st10{fill:#DEE4E9;}
	.st11{fill:#777B7E;}
	.st12{fill:#45CBEA;}
	.st13{fill:#E84D88;}
	.st14{opacity:0.25;}
	.st15{fill:#E9B02C;}
	.st16{fill:none;stroke:#E9B02C;stroke-width:2;stroke-linecap:round;stroke-linejoin:round;stroke-miterlimit:10;}
	.st17{fill:#65B1EF;}
	.st18{fill:#F29A2E;}
	.st19{fill:#59A5E0;}
	.st20{fill:#4E99D2;}
	.st21{opacity:0.15;}
	.st22{fill:#8CC63E;}
	.st23{opacity:0.25;fill:#FFFFFF;}
	.st24{fill:#38C0DC;}
	.st25{fill:#D23F77;}
	.st26{fill:#DAE5EF;}
	.st27{fill:#373C3F;}
	.st28{fill:#BF3333;}
	.st29{opacity:0.2;fill:#FFFFFF;}
	.st30{opacity:0.3;fill:#FFFFFF;}
	.st31{fill:#7FB239;}
</style>
<g>
	<g>
		<g>
			<g>
				<g>
					<g>
						<g>
							<g>
								<g>
									<g>
										<g>
											<g>
												<g>
													<g>
														<g>
															<g>
																<g>
																	<g>
																		<g>
																			<g>
																				<g>
																					<g>
																						<g>
																							<g>
																								<g>
																									<g>
																										<g>
																											<g>
																												<circle class="st0" cx="16" cy="16" r="16"/>
																											</g>
																										</g>
																									</g>
																								</g>
																							</g>
																							<g>
																								<g>
																									<g>
																										<g>
																											<g>
																												<path class="st2" d="M32,16c0,8.84-7.165,16-16,16c-5.03,0-9.52-2.32-12.455-5.955
																													c2.745,2.22,6.24,3.545,10.045,3.545c8.835,0,16-7.16,16-16c0-3.805-1.325-7.3-3.545-10.045
																													C29.675,6.48,32,10.97,32,16z"/>
																											</g>
																										</g>
																									</g>
																								</g>
																							</g>
																						</g>
																					</g>
																				</g>
																			</g>
																		</g>
																	</g>
																</g>
															</g>
														</g>
													</g>
												</g>
											</g>
										</g>
									</g>
								</g>
							</g>
						</g>
					</g>
				</g>
			</g>
		</g>
	</g>
	<g>
		<g>
			<path class="st1" d="M27.221,7.549c-1.791-1.118-2.822-1.507-3.806-1.769c-0.411-0.138-4.287-0.984-4.078-1.351
				c0.008-0.014,0.021-0.027,0.034-0.034c0.725-0.456,2.396-0.65,4.463,0.254c1.241,0.571,2.838,1.607,3.504,2.783
				c0.025,0.039,0.013,0.092-0.026,0.117C27.284,7.566,27.247,7.564,27.221,7.549z"/>
		</g>
		<g>
			<path class="st1" d="M4.663,7.432c0.665-1.176,2.261-2.212,3.504-2.783c2.048-0.895,3.687-0.717,4.463-0.254
				c0.045,0.027,0.06,0.085,0.033,0.131c-0.008,0.014-0.022,0.026-0.035,0.034C11.728,5.1,9.62,5.432,8.585,5.78
				C7.601,6.042,6.57,6.431,4.779,7.549c-0.04,0.025-0.092,0.013-0.116-0.027C4.646,7.495,4.648,7.458,4.663,7.432z"/>
		</g>
	</g>
	<g>
		<g>
			<g>
				<g>
					<ellipse class="st2" cx="9.604" cy="12.975" rx="5.127" ry="5.62"/>
				</g>
				<g>
					<ellipse class="st3" cx="9.604" cy="12.659" rx="4.051" ry="4.441"/>
				</g>
			</g>
			<g>
				<path class="st1" d="M9.364,14.319v-1.44c-0.449-0.128-0.779-0.323-0.988-0.583c-0.21-0.26-0.314-0.576-0.314-0.947
					c0-0.376,0.119-0.691,0.356-0.947C8.654,10.147,8.97,9.999,9.364,9.96V9.62h0.498v0.34c0.364,0.043,0.654,0.168,0.87,0.373
					s0.353,0.479,0.412,0.823l-0.87,0.113c-0.053-0.27-0.19-0.454-0.413-0.55v1.344c0.55,0.149,0.925,0.342,1.124,0.579
					c0.199,0.237,0.299,0.541,0.299,0.913c0,0.415-0.125,0.764-0.376,1.049c-0.251,0.284-0.6,0.458-1.047,0.523v0.643H9.364v-0.626
					c-0.396-0.048-0.719-0.196-0.966-0.443c-0.248-0.247-0.406-0.597-0.474-1.048l0.897-0.096c0.037,0.183,0.105,0.341,0.206,0.474
					C9.128,14.163,9.24,14.26,9.364,14.319z M9.364,10.71c-0.135,0.046-0.243,0.124-0.323,0.234c-0.08,0.11-0.12,0.231-0.12,0.364
					c0,0.122,0.037,0.234,0.11,0.339c0.073,0.104,0.184,0.189,0.333,0.253V10.71z M9.862,14.367
					c0.172-0.032,0.312-0.112,0.419-0.239c0.108-0.127,0.161-0.277,0.161-0.449c0-0.153-0.045-0.286-0.136-0.397
					c-0.09-0.111-0.239-0.197-0.445-0.256V14.367z"/>
			</g>
		</g>
		<g>
			<g>
				<g>
					<ellipse class="st2" cx="22.396" cy="12.975" rx="5.127" ry="5.62"/>
				</g>
				<g>
					<ellipse class="st3" cx="22.396" cy="12.659" rx="4.051" ry="4.441"/>
				</g>
			</g>
			<g>
				<path class="st1" d="M22.155,14.319v-1.44c-0.449-0.128-0.779-0.323-0.988-0.583c-0.21-0.26-0.315-0.576-0.315-0.947
					c0-0.376,0.119-0.691,0.356-0.947c0.237-0.255,0.553-0.403,0.947-0.442V9.62h0.498v0.34c0.364,0.043,0.654,0.168,0.87,0.373
					c0.215,0.205,0.353,0.479,0.413,0.823l-0.87,0.113c-0.053-0.27-0.19-0.454-0.413-0.55v1.344c0.55,0.149,0.925,0.342,1.124,0.579
					c0.199,0.237,0.299,0.541,0.299,0.913c0,0.415-0.125,0.764-0.376,1.049c-0.251,0.284-0.6,0.458-1.047,0.523v0.643h-0.498v-0.626
					c-0.397-0.048-0.719-0.196-0.966-0.443c-0.248-0.247-0.406-0.597-0.474-1.048l0.897-0.096c0.037,0.183,0.105,0.341,0.206,0.474
					C21.919,14.163,22.031,14.26,22.155,14.319z M22.155,10.71c-0.135,0.046-0.243,0.124-0.323,0.234
					c-0.08,0.11-0.12,0.231-0.12,0.364c0,0.122,0.037,0.234,0.11,0.339c0.073,0.104,0.185,0.189,0.334,0.253V10.71z M22.653,14.367
					c0.172-0.032,0.312-0.112,0.419-0.239c0.108-0.127,0.162-0.277,0.162-0.449c0-0.153-0.045-0.286-0.136-0.397
					c-0.09-0.111-0.239-0.197-0.445-0.256V14.367z"/>
			</g>
		</g>
	</g>
	<g>
		<ellipse class="st1" cx="16" cy="23.564" rx="4.54" ry="5.281"/>
	</g>
	<path class="st4" d="M12.334,26.656c0.825,1.321,2.155,2.188,3.666,2.188c1.573,0,2.959-0.932,3.773-2.346
		c-0.291-0.965-1.174-1.67-2.235-1.67c-0.759,0-1.435,0.364-1.867,0.926c-0.364-0.235-0.797-0.372-1.26-0.372
		C13.501,25.382,12.724,25.902,12.334,26.656z"/>
	<g class="st5">
		<path class="st3" d="M18.659,26.014c-0.067,0.202-0.396,0.278-0.725,0.169c-0.337-0.11-0.548-0.362-0.48-0.565
			c0.067-0.202,0.388-0.278,0.725-0.169C18.507,25.559,18.726,25.811,18.659,26.014z"/>
	</g>
</g>
</svg>
