<?xml version="1.0" encoding="utf-8"?>
<!-- Generator: Adobe Illustrator 21.1.0, SVG Export Plug-In . SVG Version: 6.00 Build 0)  -->
<svg version="1.1" id="Layer_1" xmlns="http://www.w3.org/2000/svg" xmlns:xlink="http://www.w3.org/1999/xlink" x="0px" y="0px"
	 viewBox="0 0 32 32" style="enable-background:new 0 0 32 32;" xml:space="preserve">
<style type="text/css">
	.st0{fill:#FFD93B;}
	.st1{fill:#3E4347;}
	.st2{fill:#F4C534;}
	.st3{fill:#FFFFFF;}
	.st4{fill:#E24B4B;}
	.st5{opacity:0.2;}
	.st6{opacity:0.3;}
	.st7{fill:#5A5F63;}
	.st8{fill:#D03F3F;}
	.st9{fill:#E9EFF4;}
	.st10{fill:#DEE4E9;}
	.st11{fill:#777B7E;}
	.st12{fill:#45CBEA;}
	.st13{fill:#E84D88;}
	.st14{opacity:0.25;}
	.st15{fill:#E9B02C;}
	.st16{fill:none;stroke:#E9B02C;stroke-width:2;stroke-linecap:round;stroke-linejoin:round;stroke-miterlimit:10;}
	.st17{fill:#65B1EF;}
	.st18{fill:#F29A2E;}
	.st19{fill:#59A5E0;}
	.st20{fill:#4E99D2;}
	.st21{opacity:0.15;}
	.st22{fill:#8CC63E;}
	.st23{opacity:0.25;fill:#FFFFFF;}
	.st24{fill:#38C0DC;}
	.st25{fill:#D23F77;}
	.st26{fill:#DAE5EF;}
	.st27{fill:#373C3F;}
	.st28{fill:#BF3333;}
	.st29{opacity:0.2;fill:#FFFFFF;}
	.st30{opacity:0.3;fill:#FFFFFF;}
	.st31{fill:#7FB239;}
</style>
<g>
	<circle class="st0" cx="16" cy="16" r="16"/>
	<path class="st2" d="M32,16c0,8.84-7.165,16-16,16c-5.03,0-9.52-2.32-12.455-5.955c2.745,2.22,6.24,3.545,10.045,3.545
		c8.835,0,16-7.16,16-16c0-3.805-1.325-7.3-3.545-10.045C29.675,6.48,32,10.97,32,16z"/>
	<path class="st3" d="M15.247,12.821c0,3.215-2.609,5.834-5.816,5.834c-3.215,0-5.834-2.618-5.834-5.834
		c0-3.206,2.618-5.825,5.834-5.825C12.638,6.997,15.247,9.615,15.247,12.821z"/>
	<path class="st3" d="M28.402,12.821c0,3.215-2.618,5.834-5.825,5.834c-3.215,0-5.825-2.618-5.825-5.834
		c0-3.206,2.61-5.825,5.825-5.825C25.784,6.997,28.402,9.615,28.402,12.821z"/>
	<circle class="st1" cx="10.183" cy="11.931" r="2.908"/>
	
		<ellipse transform="matrix(0.7071 -0.7071 0.7071 0.7071 -4.3861 11.1378)" class="st3" cx="11.251" cy="10.863" rx="0.51" ry="0.808"/>
	<circle class="st1" cx="22.336" cy="13.987" r="2.908"/>
	
		<ellipse transform="matrix(0.7071 -0.7071 0.7071 0.7071 -2.2809 20.3318)" class="st3" cx="23.404" cy="12.919" rx="0.51" ry="0.808"/>
	<path class="st1" d="M23.746,23.216c-0.2,1.03-3.75,4.89-7.16,2.45c-0.9-0.64-1.92-1.14-3.02-1.18c-2.93-0.1-5.41,1.72-5.31,1.21
		c0.2-1.07,3.99-6.18,7.62-3.22c0.56,0.45,1.24,0.75,1.94,0.93C21.095,24.216,23.855,22.656,23.746,23.216z"/>
</g>
</svg>
