<?xml version="1.0" encoding="utf-8"?>
<!-- Generator: Adobe Illustrator 21.1.0, SVG Export Plug-In . SVG Version: 6.00 Build 0)  -->
<svg version="1.1" id="Layer_1" xmlns="http://www.w3.org/2000/svg" xmlns:xlink="http://www.w3.org/1999/xlink" x="0px" y="0px"
	 viewBox="0 0 32 32" style="enable-background:new 0 0 32 32;" xml:space="preserve">
<style type="text/css">
	.st0{fill:#FFD93B;}
	.st1{fill:#3E4347;}
	.st2{fill:#F4C534;}
	.st3{fill:#FFFFFF;}
	.st4{fill:#E24B4B;}
	.st5{opacity:0.2;}
	.st6{opacity:0.3;}
	.st7{fill:#5A5F63;}
	.st8{fill:#D03F3F;}
	.st9{fill:#E9EFF4;}
	.st10{fill:#DEE4E9;}
	.st11{fill:#777B7E;}
	.st12{fill:#45CBEA;}
	.st13{fill:#E84D88;}
	.st14{opacity:0.25;}
	.st15{fill:#E9B02C;}
	.st16{fill:none;stroke:#E9B02C;stroke-width:2;stroke-linecap:round;stroke-linejoin:round;stroke-miterlimit:10;}
	.st17{fill:#65B1EF;}
	.st18{fill:#F29A2E;}
	.st19{fill:#59A5E0;}
	.st20{fill:#4E99D2;}
	.st21{opacity:0.15;}
	.st22{fill:#8CC63E;}
	.st23{opacity:0.25;fill:#FFFFFF;}
	.st24{fill:#38C0DC;}
	.st25{fill:#D23F77;}
	.st26{fill:#DAE5EF;}
	.st27{fill:#373C3F;}
	.st28{fill:#BF3333;}
	.st29{opacity:0.2;fill:#FFFFFF;}
	.st30{opacity:0.3;fill:#FFFFFF;}
	.st31{fill:#7FB239;}
</style>
<g>
	<g>
		<path class="st7" d="M31.045,19.894c-0.412,3.097-2.174,5.146-3.108,4.734c-1.607-0.653-1.257-2.759-0.931-5.277
			c0.351-2.517,0.569-4.638,2.292-4.845C30.308,14.359,31.466,16.797,31.045,19.894z"/>
	</g>
	<g>
		<path class="st1" d="M31.994,16.072c0.06,2.625-0.292,5.242-1.043,7.758c-0.168,0.566-0.63,0.958-1.11,0.969
			c-0.441,0.015-0.881-0.058-1.309-0.21c1.159-3.16,1.613-6.535,1.33-9.888c0.464-0.034,0.919,0.013,1.35,0.153
			C31.658,14.994,31.981,15.497,31.994,16.072z"/>
	</g>
	<g>
		<path class="st9" d="M30.202,14.418c0.341,3.572-0.143,7.174-1.415,10.53c-0.104,0.274-0.381,0.418-0.614,0.324
			c-0.232-0.098-0.334-0.381-0.234-0.646c1.222-3.225,1.688-6.689,1.36-10.122c-0.026-0.282,0.146-0.529,0.396-0.561
			C29.944,13.914,30.174,14.125,30.202,14.418z"/>
	</g>
	<g>
		<path class="st7" d="M0.955,19.894c0.412,3.097,2.174,5.146,3.108,4.734c1.607-0.653,1.257-2.759,0.931-5.277
			c-0.351-2.517-0.569-4.638-2.292-4.845C1.692,14.359,0.534,16.797,0.955,19.894z"/>
	</g>
	<g>
		<path class="st1" d="M0.006,16.072c-0.06,2.625,0.292,5.242,1.043,7.758c0.168,0.566,0.63,0.958,1.11,0.969
			c0.441,0.015,0.881-0.058,1.309-0.21c-1.159-3.16-1.613-6.535-1.33-9.888c-0.464-0.034-0.919,0.013-1.35,0.153
			C0.342,14.994,0.019,15.497,0.006,16.072z"/>
	</g>
	<g>
		<path class="st9" d="M1.798,14.418c-0.341,3.572,0.143,7.174,1.415,10.53c0.104,0.274,0.381,0.418,0.614,0.324
			c0.232-0.098,0.334-0.381,0.234-0.646c-1.222-3.225-1.688-6.689-1.36-10.122c0.026-0.282-0.146-0.529-0.396-0.561
			C2.056,13.914,1.826,14.125,1.798,14.418z"/>
	</g>
	<g>
		<g>
			<g>
				<g>
					<g>
						<g>
							<g>
								<g>
									<g>
										<g>
											<g>
												<g>
													<g>
														<g>
															<g>
																<g>
																	<g>
																		<g>
																			<g>
																				<g>
																					<circle class="st0" cx="16" cy="19.51" r="12.491"/>
																				</g>
																			</g>
																		</g>
																	</g>
																</g>
															</g>
															<g>
																<g>
																	<g>
																		<g>
																			<g>
																				<g>
																					<path class="st2" d="M28.491,19.51C28.491,26.411,22.897,32,16,32c-3.927,0-7.432-1.811-9.723-4.649
																						c2.143,1.733,4.871,2.767,7.842,2.767c6.897,0,12.49-5.59,12.49-12.49c0-2.971-1.034-5.699-2.767-7.842
																						C26.676,12.078,28.491,15.583,28.491,19.51z"/>
																				</g>
																			</g>
																		</g>
																	</g>
																</g>
															</g>
														</g>
													</g>
												</g>
											</g>
										</g>
									</g>
								</g>
							</g>
						</g>
					</g>
				</g>
			</g>
		</g>
	</g>
	<path class="st1" d="M8.288,11.506c0,0,2.549-2.042,5.508-1.226C13.796,10.281,10.142,6.782,8.288,11.506z"/>
	<path class="st1" d="M23.712,11.506c0,0-2.549-2.042-5.508-1.226C18.204,10.281,21.858,6.782,23.712,11.506z"/>
	<path class="st1" d="M23.396,22.943c-1.07,3.5-3.876,6.007-7.188,6.007c-3.303,0-6.118-2.507-7.188-6.015
		c-0.077-0.274,0.188-0.505,0.454-0.394c2.61,1.138,10.842,1.155,13.469,0.008C23.207,22.43,23.481,22.67,23.396,22.943z"/>
	<path class="st4" d="M16.208,28.95c1.296,0,2.512-0.388,3.579-1.065c-0.288-1.384-1.797-2.157-3.073-1.607
		c-0.4,0.173-0.844,0.193-1.261,0.069c-1.189-0.353-2.455,0.362-2.787,1.56C13.726,28.571,14.929,28.95,16.208,28.95z"/>
	<g>
		<path class="st3" d="M22.628,22.659c-1.328,2.228-3.848,2.87-6.42,2.87c-2.572,0-5.102-0.669-6.42-2.88
			C12.568,23.638,19.838,23.649,22.628,22.659z"/>
	</g>
	<g>
		<path class="st2" d="M14.871,16.502c0,2.165-1.754,3.919-3.91,3.919c-2.165,0-3.919-1.754-3.919-3.919
			c0-2.157,1.754-3.91,3.919-3.91C13.118,12.592,14.871,14.346,14.871,16.502z"/>
	</g>
	<g>
		<path class="st1" d="M14.68,17.799c-0.589-0.945-2.018-1.613-3.719-1.613c-1.71,0-3.139,0.668-3.728,1.613
			c-0.011-1.532,1.625-2.827,3.728-2.827C13.055,14.972,14.691,16.267,14.68,17.799z"/>
	</g>
	<g>
		<path class="st2" d="M24.958,16.502c0,2.165-1.754,3.919-3.91,3.919c-2.166,0-3.919-1.754-3.919-3.919
			c0-2.157,1.754-3.91,3.919-3.91C23.204,12.592,24.958,14.346,24.958,16.502z"/>
	</g>
	<g>
		<path class="st1" d="M24.767,17.799c-0.589-0.945-2.018-1.613-3.719-1.613c-1.71,0-3.139,0.668-3.728,1.613
			c-0.011-1.532,1.625-2.827,3.728-2.827C23.142,14.972,24.778,16.267,24.767,17.799z"/>
	</g>
	<path class="st1" d="M0.426,17.099C-0.602,7.477,6.719,0.293,16,0c10.598,0.63,16.475,8.378,15.575,17.126h-1.059
		C30.096,8.974,24.473,2.83,16,2.61C7.522,2.816,1.895,9.002,1.483,17.152L0.426,17.099z"/>
</g>
</svg>
