<?xml version="1.0" encoding="utf-8"?>
<!-- Generator: Adobe Illustrator 21.1.0, SVG Export Plug-In . SVG Version: 6.00 Build 0)  -->
<svg version="1.1" id="Layer_1" xmlns="http://www.w3.org/2000/svg" xmlns:xlink="http://www.w3.org/1999/xlink" x="0px" y="0px"
	 viewBox="0 0 32 32" style="enable-background:new 0 0 32 32;" xml:space="preserve">
<style type="text/css">
	.st0{fill:#FFD93B;}
	.st1{fill:#3E4347;}
	.st2{fill:#F4C534;}
	.st3{fill:#FFFFFF;}
	.st4{fill:#E24B4B;}
	.st5{opacity:0.2;}
	.st6{opacity:0.3;}
	.st7{fill:#5A5F63;}
	.st8{fill:#D03F3F;}
	.st9{fill:#E9EFF4;}
	.st10{fill:#DEE4E9;}
	.st11{fill:#777B7E;}
	.st12{fill:#45CBEA;}
	.st13{fill:#E84D88;}
	.st14{opacity:0.25;}
	.st15{fill:#E9B02C;}
	.st16{fill:none;stroke:#E9B02C;stroke-width:2;stroke-linecap:round;stroke-linejoin:round;stroke-miterlimit:10;}
	.st17{fill:#65B1EF;}
	.st18{fill:#F29A2E;}
	.st19{fill:#59A5E0;}
	.st20{fill:#4E99D2;}
	.st21{opacity:0.15;}
	.st22{fill:#8CC63E;}
	.st23{opacity:0.25;fill:#FFFFFF;}
	.st24{fill:#38C0DC;}
	.st25{fill:#D23F77;}
	.st26{fill:#DAE5EF;}
	.st27{fill:#373C3F;}
	.st28{fill:#BF3333;}
	.st29{opacity:0.2;fill:#FFFFFF;}
	.st30{opacity:0.3;fill:#FFFFFF;}
	.st31{fill:#7FB239;}
</style>
<g>
	<g>
		<g>
			<g>
				<g>
					<g>
						<g>
							<g>
								<g>
									<g>
										<g>
											<g>
												<g>
													<g>
														<g>
															<g>
																<g>
																	<g>
																		<g>
																			<g>
																				<g>
																					<g>
																						<g>
																							<circle class="st0" cx="16" cy="16.177" r="15.823"/>
																						</g>
																					</g>
																				</g>
																			</g>
																		</g>
																	</g>
																	<g>
																		<g>
																			<g>
																				<g>
																					<g>
																						<g>
																							<path class="st2" d="M31.823,16.177C31.823,24.919,24.737,32,16,32c-4.974,0-9.415-2.294-12.318-5.889
																								c2.715,2.195,6.171,3.506,9.934,3.506c8.738,0,15.823-7.081,15.823-15.823c0-3.763-1.31-7.22-3.506-9.934
																								C29.524,6.762,31.823,11.202,31.823,16.177z"/>
																						</g>
																					</g>
																				</g>
																			</g>
																		</g>
																	</g>
																</g>
															</g>
														</g>
													</g>
												</g>
											</g>
										</g>
									</g>
								</g>
							</g>
						</g>
					</g>
				</g>
			</g>
			<g>
				<path class="st2" d="M14.139,14.396c-1.122,2.503-4.058,3.622-6.551,2.505c-2.503-1.122-3.622-4.058-2.5-6.562
					c1.117-2.493,4.054-3.612,6.557-2.49C14.137,8.967,15.256,11.903,14.139,14.396z"/>
			</g>
			<g>
				<path class="st3" d="M13.231,13.99c-0.897,2.001-3.244,2.896-5.237,2.002c-2.001-0.897-2.896-3.244-1.999-5.246
					c0.893-1.993,3.241-2.887,5.242-1.991C13.23,9.65,14.124,11.997,13.231,13.99z"/>
			</g>
			<g>
				<g>
					
						<ellipse transform="matrix(0.409 -0.9125 0.9125 0.409 -6.7052 16.3127)" class="st1" cx="9.242" cy="13.333" rx="1.864" ry="1.864"/>
				</g>
				<g>
					<path class="st3" d="M8.509,14.117c-0.154,0.113-0.413,0.018-0.557-0.205c-0.15-0.236-0.143-0.504,0.018-0.603
						c0.164-0.109,0.413-0.017,0.567,0.208C8.677,13.75,8.669,14.018,8.509,14.117z"/>
				</g>
			</g>
			<g>
				<path class="st1" d="M28.28,12.506c-0.356,3.062-3.481,5.401-6.528,5.401c-3.06,0-5.892-2.09-5.536-5.151
					c0.354-3.049,3.15-6.625,6.209-6.625C25.473,6.131,28.634,9.457,28.28,12.506z"/>
			</g>
			<g>
				<path class="st1" d="M25.369,19.908c-1.355,6.539-4.911,5.624-9.106,7.994c-4.184,2.403-7.751-4.219-9.106-6.761
					c-0.098-0.198,0.239-0.745,0.574-0.87c3.307-1.975,13.734,4.793,17.062-0.437C25.13,19.392,25.477,19.386,25.369,19.908z"/>
				<path class="st4" d="M16.263,27.902c1.652-0.933,3.202-1.36,4.56-1.93c-0.011-0.012-0.015-0.028-0.027-0.04
					c-0.364-1.168-2.277-1.895-3.892-1.258c-0.507,0.223-1.069,0.311-1.598,0.184c-1.495-0.408-3.084,0.662-3.518,2.542
					C13.128,28.406,14.648,28.829,16.263,27.902z"/>
				<path class="st3" d="M24.302,20.458c-3.611,3.854-12.661-1.608-16.167-0.369c0,0.017-0.005,0.034-0.005,0.051
					c1.67,1.942,4.874,3.853,8.133,3.676C19.464,23.628,22.598,24.004,24.302,20.458z"/>
			</g>
		</g>
		<g>
			<path class="st2" d="M14.45,13.334c-3.475-0.394-6.518-1.53-9.108-3.441c1.167-2.018,3.629-2.997,5.904-2.215
				C13.609,8.498,14.924,10.94,14.45,13.334z"/>
		</g>
		<g>
			<path class="st1" d="M15.695,0.369c-0.315-0.626-1.68-0.362-1.579,0.107c1.067,2.422,5.935,12.333,17.042,20.232
				c0.31,0.233,0.667-1.361,0.378-1.556C21.681,11.977,17.035,3.252,15.695,0.369z"/>
		</g>
	</g>
	<g>
		<path class="st1" d="M28.573,4.729c0,0-2.865-2.985-6.717-2.448C21.857,2.281,27.024-1.51,28.573,4.729z"/>
		<g>
			<path class="st1" d="M3.427,4.729c0,0,2.865-2.985,6.717-2.448C10.143,2.281,4.976-1.51,3.427,4.729z"/>
		</g>
	</g>
</g>
</svg>
