<?xml version="1.0" encoding="utf-8"?>
<!-- Generator: Adobe Illustrator 21.1.0, SVG Export Plug-In . SVG Version: 6.00 Build 0)  -->
<svg version="1.1" id="Layer_1" xmlns="http://www.w3.org/2000/svg" xmlns:xlink="http://www.w3.org/1999/xlink" x="0px" y="0px"
	 viewBox="0 0 32 32" style="enable-background:new 0 0 32 32;" xml:space="preserve">
<style type="text/css">
	.st0{fill:#FFD93B;}
	.st1{fill:#3E4347;}
	.st2{fill:#F4C534;}
	.st3{fill:#FFFFFF;}
	.st4{fill:#E24B4B;}
	.st5{opacity:0.2;}
	.st6{opacity:0.3;}
	.st7{fill:#5A5F63;}
	.st8{fill:#D03F3F;}
	.st9{fill:#E9EFF4;}
	.st10{fill:#DEE4E9;}
	.st11{fill:#777B7E;}
	.st12{fill:#45CBEA;}
	.st13{fill:#E84D88;}
	.st14{opacity:0.25;}
	.st15{fill:#E9B02C;}
	.st16{fill:none;stroke:#E9B02C;stroke-width:2;stroke-linecap:round;stroke-linejoin:round;stroke-miterlimit:10;}
	.st17{fill:#65B1EF;}
	.st18{fill:#F29A2E;}
	.st19{fill:#59A5E0;}
	.st20{fill:#4E99D2;}
	.st21{opacity:0.15;}
	.st22{fill:#8CC63E;}
	.st23{opacity:0.25;fill:#FFFFFF;}
	.st24{fill:#38C0DC;}
	.st25{fill:#D23F77;}
	.st26{fill:#DAE5EF;}
	.st27{fill:#373C3F;}
	.st28{fill:#BF3333;}
	.st29{opacity:0.2;fill:#FFFFFF;}
	.st30{opacity:0.3;fill:#FFFFFF;}
	.st31{fill:#7FB239;}
</style>
<g>
	<g>
		<g>
			<g>
				<g>
					<g>
						<g>
							<g>
								<g>
									<g>
										<g>
											<g>
												<g>
													<g>
														<g>
															<g>
																<g>
																	<g>
																		<g>
																			<g>
																				<circle class="st0" cx="16" cy="16" r="16"/>
																			</g>
																		</g>
																	</g>
																</g>
															</g>
														</g>
														<g>
															<g>
																<g>
																	<g>
																		<g>
																			<g>
																				<path class="st2" d="M32,16c0,8.84-7.165,16-16,16c-5.03,0-9.52-2.32-12.455-5.955
																					c2.745,2.22,6.24,3.545,10.045,3.545c8.835,0,16-7.16,16-16c0-3.805-1.325-7.3-3.545-10.045
																					C29.675,6.48,32,10.97,32,16z"/>
																			</g>
																		</g>
																	</g>
																</g>
															</g>
														</g>
													</g>
												</g>
											</g>
										</g>
									</g>
								</g>
							</g>
						</g>
					</g>
				</g>
			</g>
		</g>
	</g>
	<path class="st1" d="M6.121,5.748c0,0,3.266-2.615,7.056-1.57C13.177,4.178,8.496-0.303,6.121,5.748z"/>
	<path class="st1" d="M25.879,5.748c0,0-3.265-2.615-7.056-1.57C18.823,4.178,23.504-0.303,25.879,5.748z"/>
	<g>
		<path class="st2" d="M27.827,13.042c0,3.112-2.52,5.632-5.619,5.632c-3.112,0-5.632-2.52-5.632-5.632
			c0-3.099,2.52-5.62,5.632-5.62C25.307,7.422,27.827,9.943,27.827,13.042z"/>
	</g>
	<g>
		<g>
			<path class="st3" d="M26.748,13.043c0,2.515-2.037,4.552-4.542,4.552c-2.515,0-4.552-2.037-4.552-4.552
				c0-2.505,2.037-4.542,4.552-4.542C24.711,8.501,26.748,10.538,26.748,13.043z"/>
		</g>
		<g>
			<path class="st22" d="M21.91,15.015v-1.745c-0.544-0.155-0.943-0.391-1.197-0.706c-0.254-0.315-0.381-0.697-0.381-1.147
				c0-0.455,0.144-0.838,0.431-1.147c0.287-0.309,0.67-0.488,1.147-0.535V9.324h0.604v0.412c0.441,0.053,0.792,0.203,1.053,0.452
				c0.261,0.248,0.427,0.581,0.5,0.997l-1.053,0.137c-0.064-0.327-0.23-0.55-0.5-0.666v1.628c1.054,0.285,1.724,0.707,1.724,1.807
				c0,0.502-0.152,0.926-0.456,1.27c-0.304,0.344-0.727,0.555-1.268,0.633v0.779H21.91v-0.758c-0.48-0.058-0.87-0.237-1.17-0.537
				c-0.3-0.3-0.491-0.723-0.575-1.27l1.087-0.117c0.044,0.222,0.128,0.414,0.25,0.575C21.624,14.827,21.76,14.943,21.91,15.015z
				 M21.91,10.644c-0.164,0.056-0.294,0.15-0.391,0.283c-0.097,0.133-0.146,0.28-0.146,0.441c0,0.147,0.044,0.284,0.133,0.41
				s0.223,0.228,0.404,0.306V10.644z M22.514,15.074c0.208-0.039,0.378-0.135,0.508-0.289c0.131-0.154,0.196-0.335,0.196-0.543
				c0-0.441-0.285-0.67-0.704-0.791V15.074z"/>
		</g>
	</g>
	<path class="st2" d="M15.425,13.042c0,3.112-2.52,5.632-5.619,5.632c-3.112,0-5.632-2.52-5.632-5.632c0-3.099,2.52-5.62,5.632-5.62
		C12.904,7.422,15.425,9.943,15.425,13.042z"/>
	<g>
		<path class="st3" d="M14.346,13.043c0,2.515-2.037,4.552-4.542,4.552c-2.515,0-4.552-2.037-4.552-4.552
			c0-2.505,2.037-4.542,4.552-4.542C12.309,8.501,14.346,10.538,14.346,13.043z"/>
	</g>
	<g>
		<path class="st22" d="M9.507,15.015v-1.745c-0.544-0.155-0.943-0.391-1.197-0.706c-0.254-0.315-0.381-0.697-0.381-1.147
			c0-0.455,0.144-0.838,0.431-1.147c0.287-0.309,0.67-0.488,1.147-0.535V9.324h0.604v0.412c0.441,0.053,0.793,0.203,1.053,0.452
			c0.261,0.248,0.427,0.581,0.5,0.997l-1.053,0.137c-0.064-0.327-0.23-0.55-0.5-0.666v1.628c1.054,0.285,1.724,0.707,1.724,1.807
			c0,0.502-0.152,0.926-0.456,1.27c-0.304,0.344-0.727,0.555-1.268,0.633v0.779H9.507v-0.758c-0.48-0.058-0.87-0.237-1.17-0.537
			s-0.491-0.723-0.575-1.27l1.087-0.117c0.044,0.222,0.128,0.414,0.25,0.575S9.357,14.943,9.507,15.015z M9.507,10.644
			c-0.164,0.056-0.294,0.15-0.391,0.283c-0.097,0.133-0.146,0.28-0.146,0.441c0,0.147,0.044,0.284,0.133,0.41
			c0.089,0.126,0.223,0.228,0.404,0.306V10.644z M10.111,15.074c0.208-0.039,0.378-0.135,0.508-0.289
			c0.13-0.154,0.196-0.335,0.196-0.543c0-0.441-0.285-0.67-0.704-0.791V15.074z"/>
	</g>
	<path class="st1" d="M26.529,20.462c-1.527,4.997-5.535,8.577-10.263,8.577c-4.716,0-8.736-3.579-10.263-8.589
		c-0.11-0.391,0.269-0.721,0.648-0.562c3.726,1.625,15.48,1.649,19.23,0.012C26.26,19.729,26.651,20.071,26.529,20.462z"/>
	<path class="st4" d="M16.266,29.039c1.85,0,3.586-0.554,5.11-1.521c-0.411-1.976-2.566-3.08-4.387-2.294
		c-0.571,0.246-1.205,0.276-1.801,0.099c-1.697-0.504-3.505,0.517-3.979,2.227C12.722,28.497,14.44,29.039,16.266,29.039z"/>
	<path class="st3" d="M25.432,20.056c-1.896,3.181-5.494,4.097-9.166,4.097c-3.673,0-7.284-0.954-9.167-4.112
		C11.069,21.454,21.449,21.469,25.432,20.056z"/>
</g>
</svg>
