<?xml version="1.0" encoding="utf-8"?>
<!-- Generator: Adobe Illustrator 21.1.0, SVG Export Plug-In . SVG Version: 6.00 Build 0)  -->
<svg version="1.1" id="Layer_1" xmlns="http://www.w3.org/2000/svg" xmlns:xlink="http://www.w3.org/1999/xlink" x="0px" y="0px"
	 viewBox="0 0 32 32" style="enable-background:new 0 0 32 32;" xml:space="preserve">
<style type="text/css">
	.st0{fill:#FFD93B;}
	.st1{fill:#3E4347;}
	.st2{fill:#F4C534;}
	.st3{fill:#FFFFFF;}
	.st4{fill:#E24B4B;}
	.st5{opacity:0.2;}
	.st6{opacity:0.3;}
	.st7{fill:#5A5F63;}
	.st8{fill:#D03F3F;}
	.st9{fill:#E9EFF4;}
	.st10{fill:#DEE4E9;}
	.st11{fill:#777B7E;}
	.st12{fill:#45CBEA;}
	.st13{fill:#E84D88;}
	.st14{opacity:0.25;}
	.st15{fill:#E9B02C;}
	.st16{fill:none;stroke:#E9B02C;stroke-width:2;stroke-linecap:round;stroke-linejoin:round;stroke-miterlimit:10;}
	.st17{fill:#65B1EF;}
	.st18{fill:#F29A2E;}
	.st19{fill:#59A5E0;}
	.st20{fill:#4E99D2;}
	.st21{opacity:0.15;}
	.st22{fill:#8CC63E;}
	.st23{opacity:0.25;fill:#FFFFFF;}
	.st24{fill:#38C0DC;}
	.st25{fill:#D23F77;}
	.st26{fill:#DAE5EF;}
	.st27{fill:#373C3F;}
	.st28{fill:#BF3333;}
	.st29{opacity:0.2;fill:#FFFFFF;}
	.st30{opacity:0.3;fill:#FFFFFF;}
	.st31{fill:#7FB239;}
</style>
<g>
	<g>
		<g>
			<g>
				<g>
					<g>
						<g>
							<g>
								<circle class="st0" cx="16" cy="16" r="16"/>
							</g>
						</g>
					</g>
				</g>
			</g>
		</g>
		<g>
			<g>
				<g>
					<g>
						<g>
							<g>
								<path class="st2" d="M32,16c0,8.84-7.165,16-16,16c-5.03,0-9.52-2.32-12.455-5.955c2.745,2.22,6.24,3.545,10.045,3.545
									c8.835,0,16-7.16,16-16c0-3.805-1.325-7.3-3.545-10.045C29.675,6.48,32,10.97,32,16z"/>
							</g>
						</g>
					</g>
				</g>
			</g>
		</g>
	</g>
	<path class="st1" d="M9.697,4.558c0,0-3.251-0.457-6.664,3.494C3.033,8.052,5.24,0.975,9.697,4.558z"/>
	<path class="st1" d="M22.303,4.558c0,0,3.251-0.457,6.664,3.494C28.967,8.052,26.76,0.975,22.303,4.558z"/>
	<path class="st4" d="M21.52,25.101c0,1.207-2.472,3.308-5.517,3.308c-3.045,0-5.517-2.1-5.517-3.308
		C14.162,23.643,17.84,23.644,21.52,25.101z"/>
	<path class="st28" d="M21.522,25.101c-1.242,0.298-3.716,0.694-4.844,0.079c-0.412-0.265-0.936-0.252-1.361,0
		c0,0-0.403,0.248-1.261,0.306c-0.643,0.062-2.024-0.015-3.571-0.385c0.936,0.047,3.791,0.198,4.607-0.293h0.013
		c0.266-0.292,1.152-0.438,1.773-0.014c0.013,0,0.013,0.014,0.025,0.014C17.765,25.305,20.538,25.15,21.522,25.101z"/>
	<ellipse class="st1" cx="16.003" cy="24.979" rx="1.484" ry="0.847"/>
	<path class="st4" d="M21.519,25.102c0,0-3.631,0.549-4.714-0.099c-0.007-0.007-0.013-0.01-0.019-0.014
		c-0.493-0.314-1.086-0.304-1.583,0.007c-0.003,0-0.006,0.003-0.01,0.007c-1.08,0.648-4.714,0.099-4.714,0.099s1.433-2.8,2.51-3.312
		c0.637-0.304,1.38-0.315,2.005-0.083c0.648,0.24,1.367,0.239,2.016-0.001c0.623-0.231,1.366-0.22,2.004,0.084
		C20.086,22.302,21.519,25.102,21.519,25.102z"/>
	<path class="st2" d="M16.549,14.958c0,3.725,2.752,6.743,6.148,6.743c3.396,0,6.158-3.018,6.158-6.743s-2.762-6.754-6.158-6.754
		C19.301,8.204,16.549,11.234,16.549,14.958z"/>
	<circle class="st3" cx="22.7" cy="14.956" r="5.234"/>
	<path class="st1" d="M25.139,14.955c0,1.35-1.09,2.44-2.44,2.44c-1.34,0-2.43-1.09-2.43-2.44c0-1.34,1.09-2.44,2.43-2.44
		C24.049,12.515,25.139,13.606,25.139,14.955z"/>
	<g>
		<path class="st2" d="M25.504,9.467c-2.475-0.785-4.14-0.605-5.226-0.22c-0.187,0.378-0.438,0.718-0.75,1.009
			c0.794,0.162,1.794,0.26,2.892,0.26c1.448,0,2.725-0.17,3.58-0.433C25.811,9.896,25.644,9.691,25.504,9.467z"/>
	</g>
	<g>
		<path class="st2" d="M26.267,19.409c-0.845-0.217-1.987-0.358-3.282-0.358c-1.474,0-2.77,0.176-3.625,0.448
			c0.129,0.171,0.244,0.35,0.341,0.542c3.276,1.09,5.174,0.513,6.191-0.063C25.998,19.776,26.124,19.587,26.267,19.409z"/>
	</g>
	
		<ellipse transform="matrix(0.7071 -0.7071 0.7071 0.7071 -2.9778 20.8235)" class="st3" cx="23.647" cy="14.006" rx="0.43" ry="0.695"/>
	<circle class="st2" cx="9.182" cy="14.956" r="6.035"/>
	<g>
		<path class="st1" d="M9.175,14.028c-2.252,0-4.214,0.595-5.248,1.471c-0.446,0.378-0.604,1.004-0.4,1.552l0.003,0.008
			c0.848-0.961,3.056-1.65,5.645-1.65c2.599,0,4.809,0.69,5.656,1.651c0.001-0.003,0.002-0.005,0.003-0.008
			c0.203-0.548,0.045-1.174-0.401-1.552C13.399,14.623,11.434,14.028,9.175,14.028z"/>
	</g>
</g>
</svg>
