<?xml version="1.0" encoding="utf-8"?>
<!-- Generator: Adobe Illustrator 21.1.0, SVG Export Plug-In . SVG Version: 6.00 Build 0)  -->
<svg version="1.1" id="Layer_1" xmlns="http://www.w3.org/2000/svg" xmlns:xlink="http://www.w3.org/1999/xlink" x="0px" y="0px"
	 viewBox="0 0 32 32" style="enable-background:new 0 0 32 32;" xml:space="preserve">
<style type="text/css">
	.st0{fill:#FFD93B;}
	.st1{fill:#3E4347;}
	.st2{fill:#F4C534;}
	.st3{fill:#FFFFFF;}
	.st4{fill:#E24B4B;}
	.st5{opacity:0.2;}
	.st6{opacity:0.3;}
	.st7{fill:#5A5F63;}
	.st8{fill:#D03F3F;}
	.st9{fill:#E9EFF4;}
	.st10{fill:#DEE4E9;}
	.st11{fill:#777B7E;}
	.st12{fill:#45CBEA;}
	.st13{fill:#E84D88;}
	.st14{opacity:0.25;}
	.st15{fill:#E9B02C;}
	.st16{fill:none;stroke:#E9B02C;stroke-width:2;stroke-linecap:round;stroke-linejoin:round;stroke-miterlimit:10;}
	.st17{fill:#65B1EF;}
	.st18{fill:#F29A2E;}
	.st19{fill:#59A5E0;}
	.st20{fill:#4E99D2;}
	.st21{opacity:0.15;}
	.st22{fill:#8CC63E;}
	.st23{opacity:0.25;fill:#FFFFFF;}
	.st24{fill:#38C0DC;}
	.st25{fill:#D23F77;}
	.st26{fill:#DAE5EF;}
	.st27{fill:#373C3F;}
	.st28{fill:#BF3333;}
	.st29{opacity:0.2;fill:#FFFFFF;}
	.st30{opacity:0.3;fill:#FFFFFF;}
	.st31{fill:#7FB239;}
</style>
<g>
	<circle class="st0" cx="16" cy="17.422" r="14.578"/>
	<path class="st2" d="M30.508,17.422C30.508,25.477,23.98,32,15.93,32c-4.583,0-8.674-2.114-11.348-5.426
		c2.501,2.023,5.685,3.23,9.152,3.23c8.05,0,14.578-6.524,14.578-14.578c0-3.467-1.207-6.651-3.23-9.152
		C28.39,8.749,30.508,12.84,30.508,17.422z"/>
	<ellipse class="st3" cx="10.726" cy="16.485" rx="4.188" ry="4.192"/>
	<path class="st3" d="M25.462,16.487c0,2.311-1.869,4.188-4.188,4.188c-2.311,0-4.188-1.877-4.188-4.188
		c0-2.319,1.877-4.196,4.188-4.196C23.593,12.292,25.462,14.169,25.462,16.487z"/>
	<path class="st1" d="M28.094,15.85H26.01c-0.312-2.339-2.316-4.149-4.735-4.149c-1.791,0-3.353,0.993-4.17,2.457
		c-0.222,0.397-0.641,0.629-1.096,0.626c-0.003,0-0.005,0-0.008,0c-0.004,0-0.008,0-0.012,0c-0.453,0.003-0.871-0.229-1.092-0.625
		c-0.817-1.465-2.379-2.458-4.17-2.458c-2.419,0-4.419,1.811-4.731,4.149H3.903v1.266h2.106c0.294,2.185,2.069,3.943,4.305,4.132
		c2.83,0.24,5.247-2.017,5.186-4.862c0.048-0.238,0.249-0.42,0.5-0.42c0.256,0,0.495,0.185,0.495,0.521
		c0,2.758,2.351,4.979,5.155,4.764c2.244-0.172,4.053-1.927,4.346-4.135h2.099V15.85z M10.726,20.083
		c-1.983,0-3.597-1.614-3.597-3.596c0-1.987,1.614-3.604,3.597-3.604c1.983,0,3.596,1.617,3.596,3.604
		C14.322,18.47,12.709,20.083,10.726,20.083z M21.275,20.083c-1.983,0-3.597-1.614-3.597-3.596c0-1.987,1.614-3.604,3.597-3.604
		c1.983,0,3.596,1.617,3.596,3.604C24.87,18.47,23.257,20.083,21.275,20.083z"/>
	<path class="st1" d="M13.461,8.619c0,0.329-0.287,0.626-0.665,0.541c-0.947-0.212-1.908-0.207-2.883-0.005
		c-0.35,0.073-0.683-0.162-0.683-0.537c0-0.308,0.247-0.565,0.555-0.565c1.011-0.201,2.048-0.203,3.112,0
		C13.214,8.055,13.461,8.311,13.461,8.619z"/>
	<path class="st1" d="M22.772,8.619c0,0.329-0.287,0.626-0.666,0.541c-0.947-0.212-1.909-0.207-2.883-0.005
		c-0.35,0.073-0.684-0.162-0.684-0.537c0-0.308,0.247-0.565,0.555-0.565c1.011-0.201,2.048-0.203,3.112,0
		C22.525,8.055,22.772,8.311,22.772,8.619z"/>
	<path class="st1" d="M10.726,19.354c-1.582,0-2.869-1.287-2.869-2.868c0-1.584,1.287-2.874,2.869-2.874s2.869,1.289,2.869,2.874
		C13.595,18.067,12.308,19.354,10.726,19.354z M10.726,14.457c-1.116,0-2.025,0.91-2.025,2.03c0,1.116,0.908,2.024,2.025,2.024
		s2.025-0.908,2.025-2.024C12.751,15.367,11.842,14.457,10.726,14.457z"/>
	<path class="st1" d="M10.726,17.845c-0.75,0-1.36-0.61-1.36-1.36c0-0.751,0.61-1.362,1.36-1.362c0.75,0,1.36,0.611,1.36,1.362
		C12.086,17.235,11.476,17.845,10.726,17.845z M10.726,15.967c-0.284,0-0.516,0.233-0.516,0.518c0,0.284,0.231,0.516,0.516,0.516
		s0.516-0.232,0.516-0.516C11.242,16.199,11.01,15.967,10.726,15.967z"/>
	<path class="st1" d="M21.274,19.354c-1.582,0-2.869-1.287-2.869-2.868c0-1.584,1.287-2.874,2.869-2.874
		c1.582,0,2.869,1.289,2.869,2.874C24.143,18.067,22.856,19.354,21.274,19.354z M21.274,14.457c-1.116,0-2.025,0.91-2.025,2.03
		c0,1.116,0.908,2.024,2.025,2.024c1.116,0,2.025-0.908,2.025-2.024C23.299,15.367,22.391,14.457,21.274,14.457z"/>
	<path class="st1" d="M21.274,17.845c-0.75,0-1.36-0.61-1.36-1.36c0-0.751,0.61-1.362,1.36-1.362c0.75,0,1.36,0.611,1.36,1.362
		C22.634,17.235,22.024,17.845,21.274,17.845z M21.274,15.967c-0.284,0-0.516,0.233-0.516,0.518c0,0.284,0.232,0.516,0.516,0.516
		c0.284,0,0.516-0.232,0.516-0.516C21.79,16.199,21.559,15.967,21.274,15.967z"/>
	<path class="st1" d="M7.264,23.934c4.162,2.485,12.95,2.684,17.466,0C20.577,28.735,11.454,28.771,7.264,23.934z"/>
	<polygon class="st18" points="10.932,6.033 11.225,7.739 9.693,6.933 8.161,7.739 8.454,6.033 7.214,4.828 8.933,4.571 
		9.693,3.028 10.465,4.571 12.172,4.828 	"/>
	<polygon class="st18" points="17.227,3.628 17.58,5.689 15.73,4.715 13.881,5.689 14.234,3.628 12.737,2.174 14.813,1.863 15.73,0 
		16.662,1.863 18.723,2.174 	"/>
	<polygon class="st18" points="24.748,6.135 25.023,7.739 23.583,6.981 22.143,7.739 22.417,6.135 21.252,5.002 22.868,4.761 
		23.583,3.31 24.308,4.761 25.913,5.002 	"/>
</g>
</svg>
