<?xml version="1.0" encoding="utf-8"?>
<!-- Generator: Adobe Illustrator 21.1.0, SVG Export Plug-In . SVG Version: 6.00 Build 0)  -->
<svg version="1.1" id="Layer_1" xmlns="http://www.w3.org/2000/svg" xmlns:xlink="http://www.w3.org/1999/xlink" x="0px" y="0px"
	 viewBox="0 0 32 32" style="enable-background:new 0 0 32 32;" xml:space="preserve">
<style type="text/css">
	.st0{fill:#FFD93B;}
	.st1{fill:#3E4347;}
	.st2{fill:#F4C534;}
	.st3{fill:#38C0DC;}
	.st4{fill:#45CBEA;}
	.st5{fill:#FFFFFF;}
	.st6{fill:#E24B4B;}
	.st7{fill:#5A5F63;}
	.st8{opacity:0.3;}
	.st9{opacity:0.2;}
	.st10{opacity:0.1;}
	.st11{fill:#E9B02C;}
	.st12{fill:#65B1EF;}
	.st13{fill:#E9EFF4;}
	.st14{fill:#8CC63E;}
	.st15{fill:#7FB239;}
	.st16{fill:#D03F3F;}
	.st17{fill:#D23F77;}
	.st18{fill:#E84D88;}
	.st19{fill:#59A5E0;}
	.st20{fill:#DEE4E9;}
	.st21{fill:#D3D9DD;}
	.st22{opacity:0.25;fill:#FFFFFF;}
	.st23{fill:#9A795F;}
	.st24{fill:#F29A2E;}
	.st25{fill:#FC97B2;}
	.st26{fill:#89664C;}
	.st27{fill:#7A5B44;}
	.st28{opacity:0.2;fill:#FFFFFF;}
	.st29{fill:#4E99D2;}
	.st30{fill:#BBC7D1;}
	.st31{fill:#DE9C25;}
</style>
<g>
	<g>
		<g>
			<g>
				<g>
					<g>
						<g>
							<g>
								<g>
									<g>
										<g>
											<g>
												<g>
													<g>
														<g>
															<g>
																<g>
																	<g>
																		<g>
																			<circle class="st0" cx="16" cy="16" r="16"/>
																		</g>
																	</g>
																</g>
															</g>
														</g>
													</g>
												</g>
											</g>
										</g>
										<g>
											<g>
												<g>
													<g>
														<g>
															<g>
																<g>
																	<g>
																		<g>
																			<path class="st2" d="M32,16c0,8.84-7.165,16-16,16c-5.03,0-9.52-2.32-12.455-5.955
																				c2.745,2.22,6.24,3.545,10.045,3.545c8.835,0,16-7.16,16-16c0-3.805-1.325-7.3-3.545-10.045
																				C29.675,6.48,32,10.97,32,16z"/>
																		</g>
																	</g>
																</g>
															</g>
														</g>
													</g>
												</g>
											</g>
										</g>
									</g>
								</g>
							</g>
						</g>
					</g>
				</g>
			</g>
		</g>
	</g>
	<g>
		<g>
			<g>
				<g>
					<path class="st2" d="M14.681,13.143c0,3.587-2.574,6.503-5.769,6.503c-3.183,0-5.769-2.916-5.769-6.503
						c0-3.596,2.586-6.503,5.769-6.503C12.106,6.64,14.681,9.547,14.681,13.143z"/>
				</g>
			</g>
			<g>
				<g>
					<g>
						<g>
							<path class="st5" d="M13.726,13.425c-0.405,2.944-2.884,5.211-5.55,5.055c-2.657-0.156-4.485-2.676-4.08-5.619
								c0.406-2.951,2.893-5.211,5.55-5.055C12.313,7.962,14.133,10.474,13.726,13.425z"/>
						</g>
					</g>
					<g>
						<path class="st1" d="M12.293,14.201c0,1.469-1.2,2.659-2.669,2.659s-2.669-1.19-2.669-2.659c0-1.479,1.199-2.669,2.669-2.669
							S12.293,12.721,12.293,14.201z"/>
						<path class="st5" d="M11.321,13.991c-0.199,0.199-0.656,0.075-1.013-0.282c-0.357-0.349-0.473-0.806-0.274-1.013
							c0.208-0.199,0.656-0.075,1.013,0.274C11.404,13.326,11.528,13.783,11.321,13.991z"/>
					</g>
				</g>
			</g>
		</g>
		<g>
			<g>
				<g>
					<path class="st2" d="M16.794,13.143c0,3.587,2.574,6.503,5.769,6.503c3.183,0,5.769-2.916,5.769-6.503
						c0-3.596-2.586-6.503-5.769-6.503C19.369,6.64,16.794,9.547,16.794,13.143z"/>
				</g>
			</g>
			<g>
				<g>
					<g>
						<g>
							<path class="st5" d="M17.748,13.425c0.405,2.944,2.884,5.211,5.55,5.055c2.657-0.156,4.485-2.676,4.08-5.619
								c-0.406-2.951-2.893-5.211-5.55-5.055C19.162,7.962,17.342,10.474,17.748,13.425z"/>
						</g>
					</g>
					<g>
						<path class="st1" d="M19.181,14.201c0,1.469,1.2,2.659,2.669,2.659s2.669-1.19,2.669-2.659c0-1.479-1.199-2.669-2.669-2.669
							S19.181,12.721,19.181,14.201z"/>
						<path class="st5" d="M20.154,13.991c0.199,0.199,0.656,0.075,1.013-0.282c0.357-0.349,0.473-0.806,0.274-1.013
							c-0.208-0.199-0.656-0.075-1.013,0.274C20.071,13.326,19.946,13.783,20.154,13.991z"/>
					</g>
				</g>
			</g>
		</g>
	</g>
	<g>
		<path class="st1" d="M23.173,23.812c0,0.302-0.246,0.548-0.548,0.548H9.375c-0.302,0-0.548-0.246-0.548-0.548
			s0.246-0.54,0.548-0.54h13.251C22.927,23.272,23.173,23.511,23.173,23.812z"/>
	</g>
	<g>
		<g>
			<g>
				<path class="st1" d="M11.172,21.776v1.877c0,0.136-0.111,0.246-0.246,0.246H9.617c-0.136,0-0.246-0.11-0.246-0.246v-1.877
					c0-0.136,0.111-0.246,0.246-0.246h1.308C11.061,21.529,11.172,21.64,11.172,21.776z"/>
			</g>
			<g>
				<path class="st1" d="M12.537,23.98v1.877c0,0.136-0.111,0.246-0.246,0.246h-1.308c-0.136,0-0.246-0.11-0.246-0.246V23.98
					c0-0.136,0.111-0.246,0.246-0.246h1.308C12.427,23.734,12.537,23.845,12.537,23.98z"/>
			</g>
		</g>
		<g>
			<g>
				<path class="st1" d="M14.098,21.776v1.877c0,0.136-0.111,0.246-0.246,0.246h-1.308c-0.136,0-0.246-0.11-0.246-0.246v-1.877
					c0-0.136,0.111-0.246,0.246-0.246h1.308C13.987,21.529,14.098,21.64,14.098,21.776z"/>
			</g>
			<g>
				<path class="st1" d="M15.463,23.98v1.877c0,0.136-0.111,0.246-0.246,0.246h-1.308c-0.136,0-0.246-0.11-0.246-0.246V23.98
					c0-0.136,0.111-0.246,0.246-0.246h1.308C15.353,23.734,15.463,23.845,15.463,23.98z"/>
			</g>
		</g>
		<g>
			<g>
				<path class="st1" d="M17.024,21.776v1.877c0,0.136-0.111,0.246-0.246,0.246H15.47c-0.136,0-0.246-0.11-0.246-0.246v-1.877
					c0-0.136,0.111-0.246,0.246-0.246h1.308C16.913,21.529,17.024,21.64,17.024,21.776z"/>
			</g>
			<g>
				<path class="st1" d="M18.389,23.98v1.877c0,0.136-0.111,0.246-0.246,0.246h-1.308c-0.136,0-0.246-0.11-0.246-0.246V23.98
					c0-0.136,0.111-0.246,0.246-0.246h1.308C18.279,23.734,18.389,23.845,18.389,23.98z"/>
			</g>
		</g>
		<g>
			<g>
				<path class="st1" d="M19.95,21.776v1.877c0,0.136-0.111,0.246-0.246,0.246h-1.308c-0.136,0-0.246-0.11-0.246-0.246v-1.877
					c0-0.136,0.111-0.246,0.246-0.246h1.308C19.839,21.529,19.95,21.64,19.95,21.776z"/>
			</g>
			<g>
				<path class="st1" d="M21.315,23.98v1.877c0,0.136-0.111,0.246-0.246,0.246h-1.308c-0.136,0-0.246-0.11-0.246-0.246V23.98
					c0-0.136,0.111-0.246,0.246-0.246h1.308C21.205,23.734,21.315,23.845,21.315,23.98z"/>
			</g>
		</g>
		<g>
			<g>
				<path class="st1" d="M20.88,21.767v1.877c0,0.136,0.111,0.246,0.246,0.246h1.308c0.136,0,0.246-0.11,0.246-0.246v-1.877
					c0-0.136-0.111-0.246-0.246-0.246h-1.308C20.991,21.521,20.88,21.631,20.88,21.767z"/>
			</g>
		</g>
	</g>
	<g>
		<path class="st1" d="M22.571,23.717c-0.344-0.225-0.718-0.046-0.759,0.363c-0.084,0.838-0.056,2.334,0.778,4.077
			c0.441,0.922,1.384,1.373,2.126,1.018c0.732-0.35,0.983-1.373,0.542-2.295C24.424,25.138,23.276,24.177,22.571,23.717z
			 M24.441,28.601c-0.306,0.147-0.749,0.037-1.052-0.329l1.456-0.697C24.94,28.04,24.748,28.454,24.441,28.601z"/>
	</g>
</g>
</svg>
