<?xml version="1.0" encoding="utf-8"?>
<!-- Generator: Adobe Illustrator 21.1.0, SVG Export Plug-In . SVG Version: 6.00 Build 0)  -->
<svg version="1.1" id="Layer_1" xmlns="http://www.w3.org/2000/svg" xmlns:xlink="http://www.w3.org/1999/xlink" x="0px" y="0px"
	 viewBox="0 0 32 32" style="enable-background:new 0 0 32 32;" xml:space="preserve">
<style type="text/css">
	.st0{fill:#FFD93B;}
	.st1{fill:#3E4347;}
	.st2{fill:#F4C534;}
	.st3{fill:#FFFFFF;}
	.st4{fill:#E24B4B;}
	.st5{opacity:0.2;}
	.st6{opacity:0.3;}
	.st7{fill:#5A5F63;}
	.st8{fill:#D03F3F;}
	.st9{fill:#E9EFF4;}
	.st10{fill:#DEE4E9;}
	.st11{fill:#777B7E;}
	.st12{fill:#45CBEA;}
	.st13{fill:#E84D88;}
	.st14{opacity:0.25;}
	.st15{fill:#E9B02C;}
	.st16{fill:none;stroke:#E9B02C;stroke-width:2;stroke-linecap:round;stroke-linejoin:round;stroke-miterlimit:10;}
	.st17{fill:#65B1EF;}
	.st18{fill:#F29A2E;}
	.st19{fill:#59A5E0;}
	.st20{fill:#4E99D2;}
	.st21{opacity:0.15;}
	.st22{fill:#8CC63E;}
	.st23{opacity:0.25;fill:#FFFFFF;}
	.st24{fill:#38C0DC;}
	.st25{fill:#D23F77;}
	.st26{fill:#DAE5EF;}
	.st27{fill:#373C3F;}
	.st28{fill:#BF3333;}
	.st29{opacity:0.2;fill:#FFFFFF;}
	.st30{opacity:0.3;fill:#FFFFFF;}
	.st31{fill:#7FB239;}
</style>
<g>
	<circle class="st0" cx="16" cy="16" r="16"/>
	<path class="st2" d="M32,16c0,8.84-7.165,16-16,16c-5.03,0-9.52-2.32-12.455-5.955c2.745,2.22,6.24,3.545,10.045,3.545
		c8.835,0,16-7.16,16-16c0-3.805-1.325-7.3-3.545-10.045C29.675,6.48,32,10.97,32,16z"/>
	<path class="st3" d="M14.715,13.852c0,2.738-2.214,4.961-4.961,4.961c-2.737,0-4.961-2.223-4.961-4.961
		c0-2.747,2.224-4.97,4.961-4.97C12.501,8.882,14.715,11.105,14.715,13.852z"/>
	<path class="st3" d="M27.211,13.852c0,2.738-2.214,4.961-4.961,4.961c-2.737,0-4.961-2.223-4.961-4.961
		c0-2.747,2.224-4.97,4.961-4.97C24.997,8.882,27.211,11.105,27.211,13.852z"/>
	<path class="st1" d="M30.329,13.097H27.86c-0.37-2.771-2.743-4.915-5.609-4.915c-2.122,0-3.972,1.176-4.94,2.91
		c-0.263,0.471-0.76,0.745-1.299,0.742c-0.003,0-0.006,0-0.01,0c-0.005,0-0.009,0-0.014,0.001c-0.537,0.004-1.032-0.272-1.293-0.74
		c-0.968-1.735-2.818-2.912-4.94-2.912c-2.866,0-5.234,2.145-5.605,4.915H1.671v1.5h2.494c0.348,2.588,2.451,4.671,5.1,4.895
		c3.352,0.284,6.215-2.389,6.144-5.759c0.057-0.282,0.294-0.498,0.592-0.498c0.304,0,0.586,0.219,0.586,0.617
		c0,3.268,2.785,5.899,6.106,5.644c2.658-0.204,4.802-2.283,5.148-4.899h2.486V13.097z M9.754,18.112
		c-2.349,0-4.261-1.912-4.261-4.26c0-2.354,1.911-4.269,4.261-4.269c2.349,0,4.26,1.915,4.26,4.269
		C14.014,16.2,12.103,18.112,9.754,18.112z M22.25,18.112c-2.349,0-4.261-1.912-4.261-4.26c0-2.354,1.911-4.269,4.261-4.269
		c2.349,0,4.26,1.915,4.26,4.269C26.51,16.2,24.599,18.112,22.25,18.112z"/>
	<path class="st1" d="M22.897,14.65c0,1.043-0.839,1.902-1.895,1.902c-1.043,0-1.895-0.859-1.895-1.902
		c0-1.049,0.853-1.909,1.895-1.909C22.058,12.741,22.897,13.6,22.897,14.65z"/>
	
		<ellipse transform="matrix(0.7071 -0.7071 0.7071 0.7071 -3.5466 19.4114)" class="st3" cx="21.66" cy="13.987" rx="0.432" ry="0.625"/>
	<path class="st1" d="M12.897,14.65c0,1.043-0.839,1.902-1.895,1.902c-1.043,0-1.895-0.859-1.895-1.902
		c0-1.049,0.853-1.909,1.895-1.909C12.058,12.741,12.897,13.6,12.897,14.65z"/>
	
		<ellipse transform="matrix(0.7071 -0.7071 0.7071 0.7071 -6.4752 12.3407)" class="st3" cx="11.66" cy="13.987" rx="0.432" ry="0.625"/>
	<path class="st1" d="M21.291,26.271c-0.508-1.87-2.733-3.226-5.291-3.226c-2.558,0-4.783,1.356-5.291,3.226
		c-0.091,0.334-0.432,0.525-0.767,0.44c-0.333-0.091-0.53-0.435-0.439-0.768c0.653-2.403,3.386-4.148,6.497-4.148
		c3.111,0,5.844,1.745,6.497,4.148c0.091,0.333-0.106,0.677-0.439,0.768C21.724,26.799,21.382,26.603,21.291,26.271z"/>
	<path class="st17" d="M8.432,23.271c0,1.076-0.879,1.955-1.964,1.955c-1.076,0-1.955-0.879-1.955-1.955
		c0-1.085,1.955-3.916,1.955-3.916S8.432,22.186,8.432,23.271z"/>
	<path class="st30" d="M7.439,24.293c-0.278,0.265-0.625,0.358-0.799,0.185c-0.162-0.162-0.081-0.52,0.197-0.787
		c0.278-0.277,0.625-0.37,0.799-0.197C7.797,23.656,7.716,24.015,7.439,24.293z"/>
	<path class="st17" d="M8.165,29.677c0,0.929-0.76,1.689-1.697,1.689c-0.93,0-1.689-0.76-1.689-1.689
		c0-0.938,1.689-3.384,1.689-3.384S8.165,28.739,8.165,29.677z"/>
	<path class="st30" d="M7.307,30.56c-0.24,0.229-0.54,0.31-0.69,0.16c-0.14-0.14-0.07-0.45,0.17-0.68c0.24-0.24,0.54-0.32,0.69-0.17
		C7.617,30.01,7.547,30.32,7.307,30.56z"/>
	<path class="st17" d="M29.17,22.775c0,1.075-0.879,1.955-1.964,1.955c-1.076,0-1.955-0.879-1.955-1.955
		c0-1.085,1.955-3.916,1.955-3.916S29.17,21.69,29.17,22.775z"/>
	<path class="st30" d="M28.177,23.797c-0.278,0.266-0.625,0.358-0.799,0.185c-0.162-0.162-0.081-0.52,0.197-0.787
		c0.278-0.277,0.625-0.37,0.798-0.197C28.536,23.16,28.455,23.519,28.177,23.797z"/>
</g>
</svg>
