<?xml version="1.0" encoding="utf-8"?>
<!-- Generator: Adobe Illustrator 21.1.0, SVG Export Plug-In . SVG Version: 6.00 Build 0)  -->
<svg version="1.1" id="Layer_1" xmlns="http://www.w3.org/2000/svg" xmlns:xlink="http://www.w3.org/1999/xlink" x="0px" y="0px"
	 viewBox="0 0 32 32" style="enable-background:new 0 0 32 32;" xml:space="preserve">
<style type="text/css">
	.st0{fill:#FFD93B;}
	.st1{fill:#3E4347;}
	.st2{fill:#F4C534;}
	.st3{fill:#FFFFFF;}
	.st4{fill:#E24B4B;}
	.st5{opacity:0.2;}
	.st6{opacity:0.3;}
	.st7{fill:#5A5F63;}
	.st8{fill:#D03F3F;}
	.st9{fill:#E9EFF4;}
	.st10{fill:#DEE4E9;}
	.st11{fill:#777B7E;}
	.st12{fill:#45CBEA;}
	.st13{fill:#E84D88;}
	.st14{opacity:0.25;}
	.st15{fill:#E9B02C;}
	.st16{fill:none;stroke:#E9B02C;stroke-width:2;stroke-linecap:round;stroke-linejoin:round;stroke-miterlimit:10;}
	.st17{fill:#65B1EF;}
	.st18{fill:#F29A2E;}
	.st19{fill:#59A5E0;}
	.st20{fill:#4E99D2;}
	.st21{opacity:0.15;}
	.st22{fill:#8CC63E;}
	.st23{opacity:0.25;fill:#FFFFFF;}
	.st24{fill:#38C0DC;}
	.st25{fill:#D23F77;}
	.st26{fill:#DAE5EF;}
	.st27{fill:#373C3F;}
	.st28{fill:#BF3333;}
	.st29{opacity:0.2;fill:#FFFFFF;}
	.st30{opacity:0.3;fill:#FFFFFF;}
	.st31{fill:#7FB239;}
</style>
<g>
	<circle class="st0" cx="16" cy="14.548" r="14.548"/>
	<path class="st2" d="M30.548,14.548c0,8.038-6.515,14.548-14.548,14.548c-4.573,0-8.656-2.11-11.324-5.415
		c2.496,2.019,5.674,3.223,9.133,3.223c8.033,0,14.548-6.51,14.548-14.548c0-3.46-1.205-6.637-3.223-9.133
		C28.434,5.892,30.548,9.974,30.548,14.548z"/>
	<path class="st3" d="M14.832,13.39c0,2.489-2.013,4.511-4.511,4.511c-2.489,0-4.511-2.022-4.511-4.511
		c0-2.497,2.022-4.519,4.511-4.519C12.818,8.871,14.832,10.892,14.832,13.39z"/>
	<path class="st3" d="M26.193,13.39c0,2.489-2.013,4.511-4.511,4.511c-2.489,0-4.511-2.022-4.511-4.511
		c0-2.497,2.022-4.519,4.511-4.519C24.18,8.871,26.193,10.892,26.193,13.39z"/>
	<path class="st1" d="M29.028,12.703h-2.245c-0.336-2.519-2.494-4.469-5.1-4.469c-1.929,0-3.611,1.069-4.492,2.646
		c-0.239,0.428-0.691,0.677-1.181,0.674c-0.003,0-0.006,0-0.009,0c-0.004,0-0.009,0-0.013,0c-0.488,0.004-0.938-0.247-1.176-0.673
		c-0.88-1.578-2.562-2.648-4.492-2.648c-2.606,0-4.759,1.951-5.096,4.469H2.972v1.364H5.24c0.316,2.353,2.229,4.247,4.637,4.451
		c3.048,0.258,5.651-2.172,5.586-5.237c0.052-0.256,0.268-0.453,0.538-0.453c0.276,0,0.533,0.199,0.533,0.561
		c0,2.971,2.532,5.364,5.552,5.132c2.417-0.186,4.366-2.076,4.681-4.454h2.26V12.703z M10.321,17.263
		c-2.136,0-3.874-1.738-3.874-3.873c0-2.14,1.738-3.882,3.874-3.882c2.136,0,3.873,1.741,3.873,3.882
		C14.194,15.525,12.457,17.263,10.321,17.263z M21.683,17.263c-2.136,0-3.874-1.738-3.874-3.873c0-2.14,1.738-3.882,3.874-3.882
		c2.136,0,3.873,1.741,3.873,3.882C25.556,15.525,23.819,17.263,21.683,17.263z"/>
	<path class="st1" d="M11.713,15.37c0,0.65-0.523,1.185-1.181,1.185c-0.65,0-1.181-0.535-1.181-1.185
		c0-0.654,0.531-1.189,1.181-1.189C11.19,14.181,11.713,14.716,11.713,15.37z"/>
	
		<ellipse transform="matrix(0.7071 -0.7071 0.7071 0.7071 -7.3715 12.1181)" class="st3" cx="10.942" cy="14.957" rx="0.269" ry="0.389"/>
	<path class="st1" d="M22.863,15.37c0,0.65-0.523,1.185-1.181,1.185c-0.65,0-1.181-0.535-1.181-1.185
		c0-0.654,0.531-1.189,1.181-1.189C22.34,14.181,22.863,14.716,22.863,15.37z"/>
	
		<ellipse transform="matrix(0.707 -0.7072 0.7072 0.707 -4.1051 20.0052)" class="st3" cx="22.093" cy="14.957" rx="0.269" ry="0.389"/>
	<rect x="5.945" y="12.792" class="st1" width="8.638" height="1.023"/>
	<rect x="17.367" y="12.792" class="st1" width="8.893" height="1.023"/>
	<path class="st1" d="M12.753,3.182c0.018,0.318-0.23,0.592-0.539,0.609c-0.088,0-2.12,0.168-2.738,1.74
		C9.358,5.828,9.021,5.973,8.735,5.849C8.443,5.735,8.293,5.408,8.408,5.108c0.901-2.288,3.63-2.455,3.745-2.464
		C12.452,2.606,12.735,2.851,12.753,3.182z"/>
	<path class="st1" d="M23.264,5.849c-0.284,0.123-0.623-0.021-0.742-0.318c-0.618-1.572-2.65-1.74-2.729-1.74
		c-0.318-0.017-0.565-0.291-0.548-0.609c0.018-0.298,0.298-0.578,0.609-0.539c0.115,0.009,2.835,0.177,3.736,2.464
		C23.706,5.408,23.565,5.735,23.264,5.849z"/>
	<path class="st1" d="M24.736,19.922c-0.744-0.362-4.075,2.521-8.88,2.393c-4.806,0.128-8.136-2.756-8.88-2.393
		c-1.017,0.234,1.989,5.127,8.88,5.132C22.748,25.047,25.753,20.154,24.736,19.922z"/>
	<path class="st4" d="M15.242,23.289c-1.524-0.275-3.533,0.29-3.275,2.051c0.91,6.215,1.988,6.663,3.892,6.66
		c1.891,0.004,3.099-0.445,3.898-6.742c0.219-1.723-1.788-2.229-3.283-1.968C16.065,23.341,15.651,23.338,15.242,23.289z"/>
</g>
</svg>
