<?xml version="1.0" encoding="utf-8"?>
<!-- Generator: Adobe Illustrator 21.1.0, SVG Export Plug-In . SVG Version: 6.00 Build 0)  -->
<svg version="1.1" id="Layer_1" xmlns="http://www.w3.org/2000/svg" xmlns:xlink="http://www.w3.org/1999/xlink" x="0px" y="0px"
	 viewBox="0 0 32 32" style="enable-background:new 0 0 32 32;" xml:space="preserve">
<style type="text/css">
	.st0{fill:#FFD93B;}
	.st1{fill:#3E4347;}
	.st2{fill:#F4C534;}
	.st3{fill:#FFFFFF;}
	.st4{fill:#E24B4B;}
	.st5{opacity:0.2;}
	.st6{opacity:0.3;}
	.st7{fill:#5A5F63;}
	.st8{fill:#D03F3F;}
	.st9{fill:#E9EFF4;}
	.st10{fill:#DEE4E9;}
	.st11{fill:#777B7E;}
	.st12{fill:#45CBEA;}
	.st13{fill:#E84D88;}
	.st14{opacity:0.25;}
	.st15{fill:#E9B02C;}
	.st16{fill:none;stroke:#E9B02C;stroke-width:2;stroke-linecap:round;stroke-linejoin:round;stroke-miterlimit:10;}
	.st17{fill:#65B1EF;}
	.st18{fill:#F29A2E;}
	.st19{fill:#59A5E0;}
	.st20{fill:#4E99D2;}
	.st21{opacity:0.15;}
	.st22{fill:#8CC63E;}
	.st23{opacity:0.25;fill:#FFFFFF;}
	.st24{fill:#38C0DC;}
	.st25{fill:#D23F77;}
	.st26{fill:#DAE5EF;}
	.st27{fill:#373C3F;}
	.st28{fill:#BF3333;}
	.st29{opacity:0.2;fill:#FFFFFF;}
	.st30{opacity:0.3;fill:#FFFFFF;}
	.st31{fill:#7FB239;}
</style>
<g>
	<circle class="st0" cx="16" cy="16" r="16"/>
	<path class="st2" d="M32,16c0,8.84-7.165,16-16,16c-5.03,0-9.52-2.32-12.455-5.955c2.745,2.22,6.24,3.545,10.045,3.545
		c8.835,0,16-7.16,16-16c0-3.805-1.325-7.3-3.545-10.045C29.675,6.48,32,10.97,32,16z"/>
	<path class="st3" d="M14.715,13.852c0,2.738-2.214,4.961-4.961,4.961c-2.737,0-4.961-2.223-4.961-4.961
		c0-2.747,2.224-4.97,4.961-4.97C12.501,8.882,14.715,11.105,14.715,13.852z"/>
	<path class="st1" d="M9.754,16.602c-1.279,0-2.409-0.908-2.685-2.159c-0.06-0.27,0.111-0.536,0.38-0.596
		c0.267-0.063,0.537,0.11,0.596,0.381c0.176,0.796,0.894,1.374,1.708,1.374c0.828,0,1.531-0.565,1.709-1.374
		c0.059-0.27,0.326-0.442,0.596-0.381c0.269,0.06,0.44,0.326,0.381,0.596C12.16,15.714,11.056,16.602,9.754,16.602z"/>
	<path class="st3" d="M27.211,13.852c0,2.738-2.214,4.961-4.961,4.961c-2.737,0-4.961-2.223-4.961-4.961
		c0-2.747,2.224-4.97,4.961-4.97C24.997,8.882,27.211,11.105,27.211,13.852z"/>
	<path class="st1" d="M30.329,13.097H27.86c-0.37-2.771-2.743-4.915-5.61-4.915c-2.122,0-3.972,1.176-4.94,2.91
		c-0.263,0.471-0.759,0.745-1.299,0.742c-0.003,0-0.006,0-0.01,0c-0.005,0-0.009,0-0.014,0.001c-0.537,0.004-1.032-0.272-1.293-0.74
		c-0.968-1.735-2.818-2.912-4.94-2.912c-2.866,0-5.234,2.145-5.605,4.915H1.671v1.5h2.494c0.348,2.588,2.451,4.671,5.1,4.895
		c3.352,0.284,6.215-2.389,6.144-5.759c0.057-0.282,0.294-0.498,0.592-0.498c0.304,0,0.586,0.219,0.586,0.617
		c0,3.268,2.785,5.899,6.106,5.644c2.658-0.204,4.801-2.283,5.148-4.899h2.486V13.097z M9.754,18.112
		c-2.349,0-4.261-1.912-4.261-4.26c0-2.354,1.911-4.269,4.261-4.269c2.349,0,4.26,1.915,4.26,4.269
		C14.014,16.2,12.103,18.112,9.754,18.112z M22.25,18.112c-2.349,0-4.261-1.912-4.261-4.26c0-2.354,1.911-4.269,4.261-4.269
		c2.349,0,4.26,1.915,4.26,4.269C26.51,16.2,24.599,18.112,22.25,18.112z"/>
	<g>
		<ellipse class="st1" cx="16.001" cy="24.522" rx="2.928" ry="3.86"/>
	</g>
	<path class="st4" d="M32,23.124c0,0-2.399-0.894-4.708-0.781v4.772c0,1.095-1.088,1.98-2.422,1.98s-2.422-0.885-2.422-1.98
		c0-1.103,1.087-1.987,2.422-1.987c0.472,0,0.915,0.112,1.282,0.307v-5.662c0-0.413,0.367-0.728,0.772-0.683
		C29.316,19.383,31.655,20.934,32,23.124z"/>
	<path class="st1" d="M22.25,16.602c-1.28,0-2.409-0.908-2.686-2.159c-0.059-0.27,0.111-0.536,0.38-0.596
		c0.266-0.063,0.536,0.11,0.596,0.381c0.176,0.796,0.895,1.374,1.709,1.374c0.828,0,1.53-0.565,1.709-1.374
		c0.059-0.27,0.324-0.442,0.596-0.381c0.269,0.06,0.44,0.326,0.381,0.596C24.655,15.714,23.551,16.602,22.25,16.602z"/>
	<path class="st1" d="M8.099,6.295C7.766,6.099,7.656,5.669,7.853,5.336c0.733-1.24,1.936-2.16,3.477-2.659
		c0.367-0.118,0.763,0.083,0.881,0.45c0.119,0.368-0.083,0.763-0.451,0.882c-1.228,0.398-2.138,1.084-2.703,2.04
		C8.86,6.384,8.428,6.492,8.099,6.295z"/>
	<path class="st1" d="M22.94,6.045c-0.555-0.95-1.464-1.636-2.701-2.036c-0.368-0.119-0.57-0.514-0.451-0.882
		c0.119-0.367,0.516-0.568,0.881-0.45c1.553,0.503,2.756,1.424,3.48,2.663c0.195,0.334,0.082,0.763-0.251,0.957
		C23.558,6.494,23.132,6.376,22.94,6.045z"/>
</g>
</svg>
