<?xml version="1.0" encoding="utf-8"?>
<!-- Generator: Adobe Illustrator 21.1.0, SVG Export Plug-In . SVG Version: 6.00 Build 0)  -->
<svg version="1.1" id="Layer_1" xmlns="http://www.w3.org/2000/svg" xmlns:xlink="http://www.w3.org/1999/xlink" x="0px" y="0px"
	 viewBox="0 0 32 32" style="enable-background:new 0 0 32 32;" xml:space="preserve">
<style type="text/css">
	.st0{fill:#FFD93B;}
	.st1{fill:#3E4347;}
	.st2{fill:#F4C534;}
	.st3{fill:#FFFFFF;}
	.st4{fill:#E24B4B;}
	.st5{opacity:0.2;}
	.st6{opacity:0.3;}
	.st7{fill:#5A5F63;}
	.st8{fill:#D03F3F;}
	.st9{fill:#E9EFF4;}
	.st10{fill:#DEE4E9;}
	.st11{fill:#777B7E;}
	.st12{fill:#45CBEA;}
	.st13{fill:#E84D88;}
	.st14{opacity:0.25;}
	.st15{fill:#E9B02C;}
	.st16{fill:none;stroke:#E9B02C;stroke-width:2;stroke-linecap:round;stroke-linejoin:round;stroke-miterlimit:10;}
	.st17{fill:#65B1EF;}
	.st18{fill:#F29A2E;}
	.st19{fill:#59A5E0;}
	.st20{fill:#4E99D2;}
	.st21{opacity:0.15;}
	.st22{fill:#8CC63E;}
	.st23{opacity:0.25;fill:#FFFFFF;}
	.st24{fill:#38C0DC;}
	.st25{fill:#D23F77;}
	.st26{fill:#DAE5EF;}
	.st27{fill:#373C3F;}
	.st28{fill:#BF3333;}
	.st29{opacity:0.2;fill:#FFFFFF;}
	.st30{opacity:0.3;fill:#FFFFFF;}
	.st31{fill:#7FB239;}
</style>
<g>
	<circle class="st0" cx="16" cy="16.596" r="15.404"/>
	<path class="st2" d="M31.404,16.596C31.404,25.107,24.506,32,16,32c-4.842,0-9.165-2.233-11.991-5.733
		c2.643,2.137,6.007,3.413,9.671,3.413c8.506,0,15.403-6.893,15.403-15.403c0-3.663-1.276-7.028-3.413-9.671
		C29.165,7.431,31.404,11.754,31.404,16.596z"/>
	<path class="st1" d="M26.828,22.615c-2.362,4.256-6.328,7.066-10.831,7.066c-4.503,0-8.469-2.811-10.831-7.066
		c-0.359-0.664,0.148-1.523,0.78-1.341c6.708,1.887,13.405,1.887,20.102,0C26.68,21.092,27.197,21.951,26.828,22.615z"/>
	<path class="st4" d="M15.997,29.682c2.292,0,4.443-0.732,6.316-2.008c-0.153-0.247-0.322-0.486-0.519-0.709
		c-1.236-1.403-3.477-1.823-5.425-1.255c-0.771,0.233-1.653,0.337-2.658,0.283c-0.195-0.01-0.389-0.03-0.582-0.049
		c-1.259-0.147-2.514,0.229-3.199,1.087c-0.142,0.175-0.264,0.362-0.376,0.552C11.457,28.915,13.652,29.682,15.997,29.682z"/>
	<circle class="st2" cx="22.083" cy="13.702" r="5.847"/>
	<ellipse class="st3" cx="22.083" cy="13.703" rx="4.798" ry="4.793"/>
	<path class="st2" d="M9.889,8.14c-3.217,0-5.819,2.61-5.819,5.819c0,1.646,0.684,3.128,1.78,4.186
		c0.551-0.216,1.176-0.343,1.883-0.343c1.71,0,2.958,0.71,3.756,1.747c2.429-0.696,4.209-2.93,4.209-5.59
		C15.699,10.75,13.097,8.14,9.889,8.14z"/>
	<path class="st3" d="M10.382,9.154c-2.645,0-5.006,2.155-5.278,4.805c-0.12,1.171,0.186,2.242,0.791,3.075
		c0.544-0.153,1.136-0.243,1.787-0.243c1.682,0,3.003,0.558,3.97,1.431c1.612-0.8,2.824-2.406,3.015-4.262
		C14.938,11.309,13.02,9.154,10.382,9.154z"/>
	<ellipse class="st1" cx="11.218" cy="12.367" rx="2.393" ry="2.397"/>
	
		<ellipse transform="matrix(0.7071 -0.7071 0.7071 0.7071 -4.5951 11.9135)" class="st3" cx="12.083" cy="11.504" rx="0.469" ry="0.732"/>
	<ellipse class="st1" cx="21.256" cy="15.434" rx="2.393" ry="2.397"/>
	
		<ellipse transform="matrix(0.7071 -0.7071 0.7071 0.7071 -5.6385 19.8038)" class="st3" cx="21.085" cy="16.708" rx="0.543" ry="0.848"/>
	<path class="st1" d="M30.274,8.454c-6.891-4.847-8.431-6.525-11.996-3.321c-1.998,1.687-3.5,1.141-4.005,0.212
		c-0.581-1.047-0.538-2.372-0.876-3.408c-0.267-0.877-0.766-0.567-1.627-0.087c-2.807,1.6-7.509,4.998-9.502,6.296
		c2.17-2.165,6.073-5.69,8.857-7.393c0.963-0.509,2.676-1.726,3.601,0.741c0.155,0.472,0.562,3.028,0.943,3.283
		c1.554,0.261,2.295-2.074,4.814-2.445c3.042-0.569,6.033,2.405,8.741,5.006C29.841,7.953,30.197,8.358,30.274,8.454z"/>
	<path class="st3" d="M8.767,21.942c2.291,0.472,4.573,0.713,6.855,0.732l-0.347,2.609c-0.058,0.269-0.308,0.452-0.568,0.414
		c-0.818-0.106-1.704-0.337-2.185-0.472c-0.212-0.068-0.356-0.251-0.375-0.472l-0.135-1.954l-0.433,1.829
		c-0.067,0.289-0.356,0.462-0.635,0.395c-0.799-0.193-1.665-0.568-2.128-0.79c-0.212-0.096-0.327-0.318-0.298-0.549L8.767,21.942z"
		/>
	<path class="st3" d="M22.88,22.009v2.3c0,0.202-0.115,0.385-0.299,0.472c-0.751,0.356-1.675,0.587-2.243,0.712
		c-0.289,0.068-0.568-0.135-0.616-0.424l-0.26-2.561C20.599,22.394,21.744,22.23,22.88,22.009z"/>
	<path class="st3" d="M10.086,25.783c-0.231-0.049-0.452,0.096-0.501,0.327l-0.282,1.294c1.117,0.822,2.341,1.445,3.642,1.829
		v-1.949c0-0.115-0.038-0.231-0.125-0.308C12.088,26.303,10.75,25.937,10.086,25.783z"/>
	<path class="st3" d="M22.404,26.749c-0.024-0.113-0.11-0.21-0.238-0.223c-0.983-0.113-2.365,0.134-2.911,0.24
		c-0.122,0.034-0.225,0.144-0.21,0.268l0.03,1.626l-0.184-1.501c-0.016-0.133-0.113-0.238-0.252-0.25
		c-1.112-0.135-2.69,0.145-3.307,0.269c-0.143,0.037-0.254,0.167-0.237,0.301l0.145,2.173c0.251,0.017,0.503,0.03,0.757,0.03
		c2.385,0,4.616-0.794,6.54-2.168L22.404,26.749z"/>
</g>
</svg>
