<?xml version="1.0" encoding="utf-8"?>
<!-- Generator: Adobe Illustrator 21.1.0, SVG Export Plug-In . SVG Version: 6.00 Build 0)  -->
<svg version="1.1" id="Layer_1" xmlns="http://www.w3.org/2000/svg" xmlns:xlink="http://www.w3.org/1999/xlink" x="0px" y="0px"
	 viewBox="0 0 32 32" style="enable-background:new 0 0 32 32;" xml:space="preserve">
<style type="text/css">
	.st0{fill:#FFD93B;}
	.st1{fill:#3E4347;}
	.st2{fill:#F4C534;}
	.st3{fill:#FFFFFF;}
	.st4{fill:#E24B4B;}
	.st5{opacity:0.2;}
	.st6{opacity:0.3;}
	.st7{fill:#5A5F63;}
	.st8{fill:#D03F3F;}
	.st9{fill:#E9EFF4;}
	.st10{fill:#DEE4E9;}
	.st11{fill:#777B7E;}
	.st12{fill:#45CBEA;}
	.st13{fill:#E84D88;}
	.st14{opacity:0.25;}
	.st15{fill:#E9B02C;}
	.st16{fill:none;stroke:#E9B02C;stroke-width:2;stroke-linecap:round;stroke-linejoin:round;stroke-miterlimit:10;}
	.st17{fill:#65B1EF;}
	.st18{fill:#F29A2E;}
	.st19{fill:#59A5E0;}
	.st20{fill:#4E99D2;}
	.st21{opacity:0.15;}
	.st22{fill:#8CC63E;}
	.st23{opacity:0.25;fill:#FFFFFF;}
	.st24{fill:#38C0DC;}
	.st25{fill:#D23F77;}
	.st26{fill:#DAE5EF;}
	.st27{fill:#373C3F;}
	.st28{fill:#BF3333;}
	.st29{opacity:0.2;fill:#FFFFFF;}
	.st30{opacity:0.3;fill:#FFFFFF;}
	.st31{fill:#7FB239;}
</style>
<g>
	<circle class="st0" cx="16" cy="15.323" r="13.774"/>
	<path class="st2" d="M29.774,15.323c0,7.61-6.168,13.774-13.774,13.774c-4.33,0-8.195-1.997-10.722-5.127
		c2.363,1.911,5.372,3.052,8.647,3.052c7.606,0,13.774-6.164,13.774-13.774c0-3.276-1.141-6.284-3.052-8.647
		C27.772,7.128,29.774,10.993,29.774,15.323z"/>
	<path class="st4" d="M17.607,12.04c-1.018,2.663-8.094,4.56-8.094,4.56s-4.008-6.132-2.99-8.796
		c0.602-1.575,2.369-2.361,3.944-1.759c1.244,0.475,1.996,1.674,1.958,2.934c0.812-0.964,2.177-1.354,3.421-0.878
		C17.422,8.703,18.209,10.464,17.607,12.04z"/>
	<path class="st4" d="M26.046,5.56c0.361,2.111-3.488,6.042-3.488,6.042s-4.935-2.431-5.296-4.542
		c-0.213-1.248,0.628-2.432,1.877-2.645c0.986-0.168,1.93,0.319,2.387,1.147c0.157-0.933,0.889-1.707,1.875-1.876
		C24.65,3.475,25.833,4.312,26.046,5.56z"/>
	<path class="st4" d="M17.237,3.197c-0.531,1.346-4.135,2.267-4.135,2.267S11.1,2.326,11.631,0.979
		c0.314-0.796,1.216-1.185,2.013-0.87c0.629,0.249,1.004,0.862,0.979,1.502c0.418-0.484,1.113-0.674,1.742-0.426
		C17.161,1.501,17.551,2.4,17.237,3.197z"/>
	<path class="st0" d="M20.168,23.761c0.074,4.109-1.354,6.194-4.167,6.085c-2.812,0.104-4.24-1.975-4.166-6.085
		c-0.075-4.1,1.355-6.188,4.166-6.078C18.813,17.574,20.243,19.662,20.168,23.761z"/>
	<path class="st1" d="M14.047,28.434c-1.77-1.581-1.768-7.761,0-9.342c0.884-0.789,3.011-0.804,3.909,0.001
		c1.78,1.591,1.76,7.769,0,9.344C17.029,29.266,14.907,29.203,14.047,28.434z"/>
	<path class="st3" d="M16.002,20.269c0.949,0,1.845-0.045,2.65-0.123c-0.19-0.436-0.419-0.805-0.696-1.052
		c-0.898-0.804-3.025-0.79-3.909-0.001c-0.276,0.247-0.504,0.616-0.695,1.053C14.158,20.225,15.053,20.269,16.002,20.269z"/>
	<path class="st4" d="M19.277,24.545c-0.392,4.002-1.708,6.948-3.272,6.948c-1.57,0-2.885-2.957-3.278-6.97
		c-0.083-0.857,0.713-1.515,1.548-1.321c1.161,0.26,2.311,0.276,3.449,0.022C18.569,23.036,19.365,23.688,19.277,24.545z"/>
	<path class="st17" d="M18.059,26.804v1.933c0,0.205-0.154,0.36-0.353,0.36c-0.199,0-0.36-0.154-0.36-0.36v1.156
		c0,0.206-0.161,0.36-0.36,0.36c-0.193,0-0.36-0.154-0.36-0.36v-1.156c0,0.205-0.154,0.36-0.36,0.36
		c-0.193,0-0.353-0.154-0.353-0.36v-1.285c0-0.193,0.161-0.36,0.353-0.36c0.206,0,0.36,0.167,0.36,0.36v-1.651
		c0-0.193,0.167-0.359,0.36-0.359c0.199,0,0.36,0.167,0.36,0.359v1.002c0-0.193,0.161-0.36,0.36-0.36
		C17.905,26.444,18.059,26.611,18.059,26.804z"/>
	<ellipse class="st17" cx="16.269" cy="31.64" rx="0.356" ry="0.36"/>
	<ellipse class="st17" cx="17.704" cy="30.818" rx="0.356" ry="0.36"/>
</g>
</svg>
