<?xml version="1.0" encoding="utf-8"?>
<!-- Generator: Adobe Illustrator 21.1.0, SVG Export Plug-In . SVG Version: 6.00 Build 0)  -->
<svg version="1.1" id="Layer_1" xmlns="http://www.w3.org/2000/svg" xmlns:xlink="http://www.w3.org/1999/xlink" x="0px" y="0px"
	 viewBox="0 0 32 32" style="enable-background:new 0 0 32 32;" xml:space="preserve">
<style type="text/css">
	.st0{fill:#FFD93B;}
	.st1{fill:#3E4347;}
	.st2{fill:#F4C534;}
	.st3{fill:#FFFFFF;}
	.st4{fill:#E24B4B;}
	.st5{opacity:0.2;}
	.st6{opacity:0.3;}
	.st7{fill:#5A5F63;}
	.st8{fill:#D03F3F;}
	.st9{fill:#E9EFF4;}
	.st10{fill:#DEE4E9;}
	.st11{fill:#777B7E;}
	.st12{fill:#45CBEA;}
	.st13{fill:#E84D88;}
	.st14{opacity:0.25;}
	.st15{fill:#E9B02C;}
	.st16{fill:none;stroke:#E9B02C;stroke-width:2;stroke-linecap:round;stroke-linejoin:round;stroke-miterlimit:10;}
	.st17{fill:#65B1EF;}
	.st18{fill:#F29A2E;}
	.st19{fill:#59A5E0;}
	.st20{fill:#4E99D2;}
	.st21{opacity:0.15;}
	.st22{fill:#8CC63E;}
	.st23{opacity:0.25;fill:#FFFFFF;}
	.st24{fill:#38C0DC;}
	.st25{fill:#D23F77;}
	.st26{fill:#DAE5EF;}
	.st27{fill:#373C3F;}
	.st28{fill:#BF3333;}
	.st29{opacity:0.2;fill:#FFFFFF;}
	.st30{opacity:0.3;fill:#FFFFFF;}
	.st31{fill:#7FB239;}
</style>
<g>
	<path class="st0" d="M27.962,14.104c1.144,9.179-6.576,16.885-15.75,15.729C5.958,29.044,0.907,23.994,0.116,17.74
		C-1.046,8.552,6.689,0.82,15.879,1.99C22.136,2.786,27.182,7.845,27.962,14.104z"/>
	<path class="st2" d="M27.981,17.56c-0.733,6.41-5.918,11.583-12.33,12.297c-5.058,0.563-9.655-1.561-12.54-5.135
		c2.789,2.256,6.461,3.458,10.415,3.022c6.435-0.711,11.636-5.912,12.347-12.347c0.437-3.955-0.766-7.626-3.022-10.415
		C26.428,7.875,28.56,12.488,27.981,17.56z"/>
	<path class="st0" d="M23.854,25.605c0,2.497-1.821,4.523-4.069,4.523c-2.239,0-4.061-2.026-4.061-4.523
		c0-2.488,1.822-4.513,4.061-4.513C22.033,21.092,23.854,23.117,23.854,25.605z"/>
	<path class="st1" d="M22.574,25.605c0,1.713-1.245,3.098-2.79,3.098c-1.535,0-2.78-1.385-2.78-3.098
		c0-1.704,1.245-3.099,2.78-3.099C21.329,22.507,22.574,23.902,22.574,25.605z"/>
	<path class="st1" d="M12.018,16.484c-1.066-0.569-2.346-0.897-3.732-0.897s-2.666,0.328-3.732,0.897
		c-0.498,0.266-1.04-0.258-0.782-0.764c0.844-1.635,2.541-2.746,4.514-2.746s3.669,1.111,4.514,2.746
		C13.057,16.226,12.515,16.75,12.018,16.484z"/>
	<path class="st1" d="M23.521,16.484c-1.066-0.569-2.346-0.897-3.732-0.897c-1.386,0-2.666,0.328-3.732,0.897
		c-0.498,0.266-1.04-0.258-0.782-0.764c0.844-1.635,2.541-2.746,4.514-2.746c1.972,0,3.669,1.111,4.514,2.746
		C24.561,16.226,24.019,16.75,23.521,16.484z"/>
	<path class="st4" d="M32,20.751c0,2.071-3.14,4.46-4.187,5.2c-0.193,0.136-0.467,0.136-0.66,0c-1.047-0.74-4.187-3.129-4.187-5.2
		c0-2.631,3.696-3.203,4.517-0.739c0.307-0.922,1.183-1.582,2.196-1.582C30.961,18.429,32,19.47,32,20.751z"/>
	<path class="st1" d="M21.542,8.042c-0.92-2.49-2.984-2.517-4.133-2.318c-0.37,0.069-0.708-0.179-0.772-0.54
		c-0.064-0.363,0.178-0.708,0.54-0.772c2.616-0.46,4.712,0.723,5.615,3.169c0.128,0.345-0.049,0.728-0.394,0.856
		C22.059,8.563,21.67,8.391,21.542,8.042z"/>
	<path class="st1" d="M5.678,8.436C5.332,8.308,5.156,7.926,5.284,7.58C6.188,5.134,8.283,3.948,10.9,4.412
		c0.362,0.063,0.604,0.409,0.54,0.772c-0.064,0.363-0.4,0.609-0.772,0.54C9.517,5.52,7.453,5.551,6.533,8.042
		C6.405,8.391,6.016,8.563,5.678,8.436z"/>
</g>
</svg>
