<?xml version="1.0" encoding="utf-8"?>
<!-- Generator: Adobe Illustrator 21.1.0, SVG Export Plug-In . SVG Version: 6.00 Build 0)  -->
<svg version="1.1" id="Layer_1" xmlns="http://www.w3.org/2000/svg" xmlns:xlink="http://www.w3.org/1999/xlink" x="0px" y="0px"
	 viewBox="0 0 32 32" style="enable-background:new 0 0 32 32;" xml:space="preserve">
<style type="text/css">
	.st0{fill:#FFD93B;}
	.st1{fill:#3E4347;}
	.st2{fill:#F4C534;}
	.st3{fill:#FFFFFF;}
	.st4{fill:#E24B4B;}
	.st5{opacity:0.2;}
	.st6{opacity:0.3;}
	.st7{fill:#5A5F63;}
	.st8{fill:#D03F3F;}
	.st9{fill:#E9EFF4;}
	.st10{fill:#DEE4E9;}
	.st11{fill:#777B7E;}
	.st12{fill:#45CBEA;}
	.st13{fill:#E84D88;}
	.st14{opacity:0.25;}
	.st15{fill:#E9B02C;}
	.st16{fill:none;stroke:#E9B02C;stroke-width:2;stroke-linecap:round;stroke-linejoin:round;stroke-miterlimit:10;}
	.st17{fill:#65B1EF;}
	.st18{fill:#F29A2E;}
	.st19{fill:#59A5E0;}
	.st20{fill:#4E99D2;}
	.st21{opacity:0.15;}
	.st22{fill:#8CC63E;}
	.st23{opacity:0.25;fill:#FFFFFF;}
	.st24{fill:#38C0DC;}
	.st25{fill:#D23F77;}
	.st26{fill:#DAE5EF;}
	.st27{fill:#373C3F;}
	.st28{fill:#BF3333;}
	.st29{opacity:0.2;fill:#FFFFFF;}
	.st30{opacity:0.3;fill:#FFFFFF;}
	.st31{fill:#7FB239;}
</style>
<g>
	<path class="st0" d="M30.605,13.103c1.2,9.627-6.897,17.709-16.519,16.496c-6.56-0.827-11.857-6.123-12.687-12.682
		C0.18,7.28,8.293-0.829,17.932,0.398C24.494,1.233,29.786,6.539,30.605,13.103z"/>
	<path class="st2" d="M30.624,16.729c-0.768,6.723-6.207,12.148-12.933,12.897c-5.304,0.591-10.126-1.638-13.152-5.385
		c2.925,2.366,6.776,3.627,10.924,3.169c6.749-0.745,12.204-6.201,12.95-12.95c0.458-4.148-0.803-7.998-3.169-10.924
		C28.995,6.57,31.232,11.409,30.624,16.729z"/>
	<path class="st0" d="M20.75,22.306v6.248c0,1.417-0.911,2.724-2.282,3.101c-1.647,0.46-3.294,0.46-4.941,0
		c-1.371-0.377-2.282-1.684-2.282-3.101v-6.451c0-2.779,2.383-4.996,5.217-4.729C18.938,17.613,20.75,19.821,20.75,22.306z"/>
	<path class="st1" d="M15.997,31.08c-0.736,0-1.484-0.104-2.223-0.311c-0.948-0.261-1.608-1.171-1.608-2.215v-6.45
		c0-2.113,1.72-3.831,3.835-3.831c0.124,0,0.249,0.005,0.376,0.017c1.936,0.188,3.454,1.952,3.454,4.017v6.247
		c0,1.044-0.66,1.955-1.606,2.214C17.482,30.976,16.734,31.08,15.997,31.08z"/>
	<path class="st4" d="M15.997,31.08c0.737,0,1.485-0.104,2.228-0.312c1.539-0.423,2.494-2.678,0.383-4.516
		c-0.999-0.851-1.557,0.066-3.42,0.066c-0.92,0-2.478-0.127-3.023,1.907v0.33c0,1.044,0.66,1.955,1.608,2.215
		C14.513,30.976,15.261,31.08,15.997,31.08z"/>
	<path class="st4" d="M13.987,9.148c0.638,3.482-4.897,8.414-4.897,8.414s-6.92-2.651-7.557-6.133
		C1.206,9.647,2.386,7.938,4.167,7.611C5.53,7.362,6.852,7.996,7.54,9.104c0.251-1.28,1.262-2.341,2.625-2.591
		C11.951,6.186,13.66,7.366,13.987,9.148z"/>
	<path class="st4" d="M18.013,9.148c-0.638,3.482,4.898,8.414,4.898,8.414s6.92-2.651,7.557-6.133
		c0.326-1.782-0.854-3.491-2.636-3.817c-1.363-0.25-2.684,0.384-3.373,1.492c-0.251-1.28-1.262-2.341-2.625-2.591
		C20.049,6.186,18.34,7.366,18.013,9.148z"/>
	<path class="st1" d="M18.818,0.856c0,0,4.256,0.23,6.643,4.515C25.461,5.371,23.592-2.565,18.818,0.856z"/>
	<path class="st1" d="M13.182,0.856c0,0-4.256,0.23-6.643,4.515C6.539,5.371,8.408-2.565,13.182,0.856z"/>
</g>
</svg>
