<?xml version="1.0" encoding="utf-8"?>
<!-- Generator: Adobe Illustrator 21.1.0, SVG Export Plug-In . SVG Version: 6.00 Build 0)  -->
<svg version="1.1" id="Layer_1" xmlns="http://www.w3.org/2000/svg" xmlns:xlink="http://www.w3.org/1999/xlink" x="0px" y="0px"
	 viewBox="0 0 32 32" style="enable-background:new 0 0 32 32;" xml:space="preserve">
<style type="text/css">
	.st0{fill:#FFD93B;}
	.st1{fill:#3E4347;}
	.st2{fill:#F4C534;}
	.st3{fill:#FFFFFF;}
	.st4{fill:#E24B4B;}
	.st5{opacity:0.2;}
	.st6{opacity:0.3;}
	.st7{fill:#5A5F63;}
	.st8{fill:#D03F3F;}
	.st9{fill:#E9EFF4;}
	.st10{fill:#DEE4E9;}
	.st11{fill:#777B7E;}
	.st12{fill:#45CBEA;}
	.st13{fill:#E84D88;}
	.st14{opacity:0.25;}
	.st15{fill:#E9B02C;}
	.st16{fill:none;stroke:#E9B02C;stroke-width:2;stroke-linecap:round;stroke-linejoin:round;stroke-miterlimit:10;}
	.st17{fill:#65B1EF;}
	.st18{fill:#F29A2E;}
	.st19{fill:#59A5E0;}
	.st20{fill:#4E99D2;}
	.st21{opacity:0.15;}
	.st22{fill:#8CC63E;}
	.st23{opacity:0.25;fill:#FFFFFF;}
	.st24{fill:#38C0DC;}
	.st25{fill:#D23F77;}
	.st26{fill:#DAE5EF;}
	.st27{fill:#373C3F;}
	.st28{fill:#BF3333;}
	.st29{opacity:0.2;fill:#FFFFFF;}
	.st30{opacity:0.3;fill:#FFFFFF;}
	.st31{fill:#7FB239;}
</style>
<g>
	<path class="st0" d="M30.675,13.167c1.206,9.673-6.93,17.795-16.599,16.576C7.485,28.912,2.162,23.59,1.328,16.999
		C0.103,7.315,8.256-0.833,17.941,0.4C24.534,1.239,29.853,6.571,30.675,13.167z"/>
	<path class="st1" d="M25.178,20.608c-2.66,3.014-6.561,4.731-10.835,4.153c-2.93-0.41-5.562-1.922-7.522-4.134
		c-0.355-0.411,0.019-1.092,0.513-0.924c5.767,2.006,11.544,2.016,17.33,0C25.15,19.544,25.532,20.207,25.178,20.608z"/>
	<path class="st2" d="M30.694,16.81c-0.772,6.755-6.237,12.207-12.995,12.96c-5.33,0.594-10.175-1.646-13.216-5.411
		c2.939,2.377,6.809,3.645,10.976,3.184c6.781-0.749,12.263-6.23,13.012-13.012c0.46-4.168-0.807-8.037-3.184-10.976
		C29.058,6.602,31.305,11.464,30.694,16.81z"/>
	<path class="st1" d="M18.832,0.861c0,0,4.276,0.231,6.675,4.536C25.506,5.397,23.628-2.578,18.832,0.861z"/>
	<path class="st1" d="M13.168,0.861c0,0-4.276,0.231-6.675,4.536C6.494,5.397,8.372-2.578,13.168,0.861z"/>
	<path class="st4" d="M20.786,23.331c-0.409,4.97-2.694,8.667-4.792,8.669c-2.098-0.001-4.383-3.699-4.783-8.669
		c0.002-0.996,1.016-1.545,1.936-1.257c1.864,0.554,3.841,0.55,5.705,0C19.771,21.776,20.774,22.337,20.786,23.331z"/>
	<path class="st4" d="M1.599,12.822c1.12,2.689,6.263,3.937,8.079,4.296c0.399,0.076,0.793-0.086,1.016-0.422
		c1.028-1.551,3.767-6.083,2.646-8.771c-0.45-1.058-1.377-1.763-2.424-1.965C10.298,5.837,9.642,5.894,9.02,6.153
		C7.733,6.691,6.975,7.946,7.002,9.258c-0.92-0.936-2.352-1.284-3.639-0.746c-0.831,0.353-1.453,1.004-1.769,1.789
		C1.267,11.079,1.244,11.982,1.599,12.822z"/>
	<path class="st4" d="M30.401,12.822c-1.12,2.689-6.263,3.937-8.079,4.296c-0.399,0.076-0.793-0.086-1.016-0.422
		c-1.028-1.551-3.767-6.083-2.646-8.771c0.45-1.058,1.377-1.763,2.424-1.965c0.619-0.123,1.275-0.066,1.897,0.193
		c1.287,0.538,2.045,1.792,2.018,3.104c0.92-0.936,2.352-1.284,3.639-0.746c0.83,0.353,1.453,1.004,1.769,1.789
		C30.733,11.079,30.756,11.982,30.401,12.822z"/>
</g>
</svg>
