<?xml version="1.0" encoding="utf-8"?>
<!-- Generator: Adobe Illustrator 21.1.0, SVG Export Plug-In . SVG Version: 6.00 Build 0)  -->
<svg version="1.1" id="Layer_1" xmlns="http://www.w3.org/2000/svg" xmlns:xlink="http://www.w3.org/1999/xlink" x="0px" y="0px"
	 viewBox="0 0 32 32" style="enable-background:new 0 0 32 32;" xml:space="preserve">
<style type="text/css">
	.st0{fill:#FFD93B;}
	.st1{fill:#3E4347;}
	.st2{fill:#F4C534;}
	.st3{fill:#FFFFFF;}
	.st4{fill:#E24B4B;}
	.st5{opacity:0.2;}
	.st6{opacity:0.3;}
	.st7{fill:#5A5F63;}
	.st8{fill:#D03F3F;}
	.st9{fill:#E9EFF4;}
	.st10{fill:#DEE4E9;}
	.st11{fill:#777B7E;}
	.st12{fill:#45CBEA;}
	.st13{fill:#E84D88;}
	.st14{opacity:0.25;}
	.st15{fill:#E9B02C;}
	.st16{fill:none;stroke:#E9B02C;stroke-width:2;stroke-linecap:round;stroke-linejoin:round;stroke-miterlimit:10;}
	.st17{fill:#65B1EF;}
	.st18{fill:#F29A2E;}
	.st19{fill:#59A5E0;}
	.st20{fill:#4E99D2;}
	.st21{opacity:0.15;}
	.st22{fill:#8CC63E;}
	.st23{opacity:0.25;fill:#FFFFFF;}
	.st24{fill:#38C0DC;}
	.st25{fill:#D23F77;}
	.st26{fill:#DAE5EF;}
	.st27{fill:#373C3F;}
	.st28{fill:#BF3333;}
	.st29{opacity:0.2;fill:#FFFFFF;}
	.st30{opacity:0.3;fill:#FFFFFF;}
	.st31{fill:#7FB239;}
</style>
<g>
	<circle class="st0" cx="16" cy="16" r="16"/>
	<path class="st2" d="M31.924,16c0,8.84-7.165,16-16,16c-5.03,0-9.52-2.32-12.455-5.955c2.745,2.22,6.24,3.545,10.045,3.545
		c8.835,0,16-7.16,16-16c0-3.805-1.325-7.3-3.545-10.045C29.599,6.48,31.924,10.97,31.924,16z"/>
	<path class="st3" d="M14.713,13.033c0,2.738-2.214,4.961-4.961,4.961c-2.738,0-4.961-2.223-4.961-4.961
		c0-2.747,2.223-4.97,4.961-4.97C12.499,8.063,14.713,10.287,14.713,13.033z"/>
	<path class="st3" d="M27.209,13.033c0,2.738-2.214,4.961-4.961,4.961c-2.737,0-4.961-2.223-4.961-4.961
		c0-2.747,2.224-4.97,4.961-4.97C24.995,8.063,27.209,10.287,27.209,13.033z"/>
	<path class="st1" d="M30.327,12.279h-2.469c-0.37-2.771-2.743-4.915-5.61-4.915c-2.122,0-3.972,1.176-4.94,2.91
		c-0.263,0.471-0.76,0.745-1.299,0.742c-0.003,0-0.006,0-0.01,0c-0.005,0-0.009,0-0.014,0c-0.537,0.004-1.032-0.271-1.293-0.74
		c-0.968-1.735-2.818-2.912-4.94-2.912c-2.866,0-5.234,2.146-5.605,4.915H1.67v1.5h2.495c0.348,2.588,2.451,4.671,5.1,4.895
		c3.352,0.284,6.215-2.389,6.144-5.759c0.057-0.282,0.295-0.498,0.592-0.498c0.304,0,0.586,0.219,0.586,0.617
		c0,3.268,2.784,5.899,6.106,5.644c2.658-0.204,4.802-2.283,5.148-4.899h2.486V12.279z M9.752,17.293
		c-2.349,0-4.261-1.912-4.261-4.26c0-2.354,1.911-4.269,4.261-4.269c2.349,0,4.26,1.915,4.26,4.269
		C14.012,15.382,12.101,17.293,9.752,17.293z M22.248,17.293c-2.349,0-4.261-1.912-4.261-4.26c0-2.354,1.911-4.269,4.261-4.269
		c2.349,0,4.26,1.915,4.26,4.269C26.508,15.382,24.597,17.293,22.248,17.293z"/>
	<path class="st1" d="M22.895,13.031c0,1.043-0.839,1.902-1.895,1.902c-1.043,0-1.895-0.859-1.895-1.902
		c0-1.049,0.853-1.909,1.895-1.909C22.056,11.123,22.895,11.982,22.895,13.031z"/>
	
		<ellipse transform="matrix(0.7071 -0.7071 0.7071 0.7071 -2.4025 18.9375)" class="st3" cx="21.658" cy="12.369" rx="0.432" ry="0.625"/>
	<path class="st1" d="M12.895,13.031c0,1.043-0.84,1.902-1.895,1.902c-1.043,0-1.895-0.859-1.895-1.902
		c0-1.049,0.853-1.909,1.895-1.909C12.056,11.123,12.895,11.982,12.895,13.031z"/>
	
		<ellipse transform="matrix(0.7071 -0.7071 0.7071 0.7071 -5.3314 11.8665)" class="st3" cx="11.658" cy="12.369" rx="0.432" ry="0.625"/>
	<path class="st1" d="M19.405,20.431c0.424,0.424,0.424,1.117,0,1.542l-1.86,1.86l1.86,1.86c0.424,0.424,0.424,1.117-0.007,1.549
		c-0.424,0.424-1.117,0.424-1.541,0l-1.86-1.86l-1.853,1.853c-0.431,0.431-1.118,0.424-1.541,0c-0.432-0.432-0.432-1.11,0-1.542
		l1.853-1.853l-1.86-1.86c-0.424-0.424-0.424-1.117,0-1.542c0.431-0.431,1.124-0.431,1.549-0.007l1.86,1.86l1.86-1.86
		C18.287,20.007,18.973,20,19.405,20.431z"/>
</g>
</svg>
