<?xml version="1.0" encoding="utf-8"?>
<!-- Generator: Adobe Illustrator 21.1.0, SVG Export Plug-In . SVG Version: 6.00 Build 0)  -->
<svg version="1.1" id="Layer_1" xmlns="http://www.w3.org/2000/svg" xmlns:xlink="http://www.w3.org/1999/xlink" x="0px" y="0px"
	 viewBox="0 0 32 32" style="enable-background:new 0 0 32 32;" xml:space="preserve">
<style type="text/css">
	.st0{fill:#FFD93B;}
	.st1{fill:#3E4347;}
	.st2{fill:#F4C534;}
	.st3{fill:#FFFFFF;}
	.st4{fill:#E24B4B;}
	.st5{opacity:0.2;}
	.st6{opacity:0.3;}
	.st7{fill:#5A5F63;}
	.st8{fill:#D03F3F;}
	.st9{fill:#E9EFF4;}
	.st10{fill:#DEE4E9;}
	.st11{fill:#777B7E;}
	.st12{fill:#45CBEA;}
	.st13{fill:#E84D88;}
	.st14{opacity:0.25;}
	.st15{fill:#E9B02C;}
	.st16{fill:none;stroke:#E9B02C;stroke-width:2;stroke-linecap:round;stroke-linejoin:round;stroke-miterlimit:10;}
	.st17{fill:#65B1EF;}
	.st18{fill:#F29A2E;}
	.st19{fill:#59A5E0;}
	.st20{fill:#4E99D2;}
	.st21{opacity:0.15;}
	.st22{fill:#8CC63E;}
	.st23{opacity:0.25;fill:#FFFFFF;}
	.st24{fill:#38C0DC;}
	.st25{fill:#D23F77;}
	.st26{fill:#DAE5EF;}
	.st27{fill:#373C3F;}
	.st28{fill:#BF3333;}
	.st29{opacity:0.2;fill:#FFFFFF;}
	.st30{opacity:0.3;fill:#FFFFFF;}
	.st31{fill:#7FB239;}
</style>
<g>
	<circle class="st0" cx="16.057" cy="15.14" r="15.14"/>
	<path class="st2" d="M31.099,15.14c0,8.365-6.78,15.14-15.14,15.14c-4.76,0-9.008-2.195-11.786-5.635
		C6.77,26.746,10.078,28,13.678,28c8.36,0,15.14-6.775,15.14-15.14c0-3.601-1.254-6.908-3.354-9.505
		C28.899,6.132,31.099,10.381,31.099,15.14z"/>
	<path class="st3" d="M12.054,16.871c-2.449,0.94-10.655,2.322-8.459-7.412c3.728-0.813,7.189-0.581,10.733,0.397
		C15.523,14.973,14.178,16.071,12.054,16.871z"/>
	<path class="st3" d="M19.868,16.871c2.449,0.94,10.655,2.322,8.459-7.412c-3.728-0.813-7.189-0.581-10.733,0.397
		C16.399,14.973,17.743,16.071,19.868,16.871z"/>
	<path class="st1" d="M30.57,9.024c-1.887-0.661-6.663-1.903-12.681-0.311c-0.326,0.111-0.533,0.279-0.669,0.533
		c-0.593,1.032-2.025,0.875-2.508,0c-0.143-0.255-0.35-0.422-0.685-0.533C8.01,7.121,3.234,8.363,1.347,9.024
		c-0.422,0.159-0.653,0.613-0.494,1.035c0.143,0.422,0.613,0.653,1.035,0.494c0.215-0.071,0.541-0.175,0.923-0.279
		c-0.334,1.855-0.589,5.334,1.807,6.839c3.24,2.022,8.924,0.517,10.158-1.433c0.39-0.605,0.541-1.409,0.573-2.253
		c0-0.786,1.176-0.924,1.21-0.04c0.032,0.86,0.199,1.672,0.581,2.292c1.234,1.95,6.918,3.455,10.158,1.433
		c2.396-1.505,2.141-4.984,1.807-6.839c0.382,0.104,0.708,0.207,0.923,0.279c0.422,0.159,0.892-0.071,1.035-0.494
		C31.223,9.637,30.992,9.183,30.57,9.024z M13.765,15.042c-0.892,1.393-5.763,2.77-8.51,1.051c-1.998-1.266-1.457-4.76-1.154-6.13
		c2.229-0.445,5.692-0.724,9.72,0.374C14.1,11.651,14.426,13.983,13.765,15.042z M26.662,16.093c-2.746,1.72-7.618,0.342-8.51-1.051
		c-0.661-1.059-0.334-3.391-0.056-4.705c4.028-1.098,7.491-0.82,9.72-0.374C28.118,11.333,28.66,14.827,26.662,16.093z"/>
	<path class="st1" d="M21.488,15.103c-1.188,0-2.144-0.947-2.144-2.144c0-1.18,0.956-2.153,2.144-2.144
		c1.18,0,2.144,0.964,2.144,2.144C23.641,14.147,22.668,15.103,21.488,15.103z"/>
	
		<ellipse transform="matrix(0.7071 -0.7071 0.7071 0.7071 -2.057 19.3269)" class="st3" cx="22.299" cy="12.146" rx="0.372" ry="0.629"/>
	<path class="st1" d="M12.573,12.959c0,1.188-0.947,2.144-2.144,2.144c-1.18,0-2.153-0.956-2.144-2.144
		c0-1.18,0.964-2.144,2.144-2.144C11.617,10.806,12.573,11.779,12.573,12.959z"/>
	
		<ellipse transform="matrix(0.7071 -0.7071 0.7071 0.7071 -5.7732 10.3587)" class="st3" cx="9.617" cy="12.148" rx="0.629" ry="0.372"/>
	<path class="st1" d="M22.081,24.897c0.086,0.426-0.314,0.813-0.786,0.733c-3.515-0.573-7.072-0.547-10.673,0.013
		c-0.472,0.067-0.872-0.306-0.786-0.746c0.572-2.665,3.086-4.677,6.129-4.677C18.995,20.219,21.495,22.232,22.081,24.897z"/>
	<path class="st4" d="M20.139,24.689c-0.642,4.274-2.417,7.307-4.181,7.311c-1.774-0.003-3.551-3.045-4.18-7.322
		c-0.092-1.354,1.365-2.084,2.555-1.586c0.536,0.207,1.097,0.341,1.647,0.343c0.539-0.003,1.067-0.121,1.593-0.332
		C18.766,22.618,20.232,23.333,20.139,24.689z"/>
	<path class="st1" d="M25.151,5.532c-2.049-1.739-5.434-2.028-6.722-2.071c-0.176-0.006-0.243-0.234-0.102-0.341
		c3.439-2.548,5.918,0.245,7.102,2.17C25.54,5.468,25.315,5.668,25.151,5.532z"/>
	<path class="st1" d="M6.849,5.532c2.049-1.739,5.433-2.028,6.722-2.071c0.176-0.006,0.244-0.234,0.102-0.341
		C10.234,0.572,7.755,3.365,6.57,5.29C6.46,5.468,6.685,5.668,6.849,5.532z"/>
</g>
</svg>
