<?xml version="1.0" encoding="utf-8"?>
<!-- Generator: Adobe Illustrator 21.1.0, SVG Export Plug-In . SVG Version: 6.00 Build 0)  -->
<svg version="1.1" id="Layer_1" xmlns="http://www.w3.org/2000/svg" xmlns:xlink="http://www.w3.org/1999/xlink" x="0px" y="0px"
	 viewBox="0 0 32 32" style="enable-background:new 0 0 32 32;" xml:space="preserve">
<style type="text/css">
	.st0{fill:#FFD93B;}
	.st1{fill:#3E4347;}
	.st2{fill:#F4C534;}
	.st3{fill:#38C0DC;}
	.st4{fill:#45CBEA;}
	.st5{fill:#FFFFFF;}
	.st6{fill:#E24B4B;}
	.st7{fill:#5A5F63;}
	.st8{opacity:0.3;}
	.st9{opacity:0.2;}
	.st10{opacity:0.1;}
	.st11{fill:#E9B02C;}
	.st12{fill:#65B1EF;}
	.st13{fill:#E9EFF4;}
	.st14{fill:#8CC63E;}
	.st15{fill:#7FB239;}
	.st16{fill:#D03F3F;}
	.st17{fill:#D23F77;}
	.st18{fill:#E84D88;}
	.st19{fill:#59A5E0;}
	.st20{fill:#DEE4E9;}
	.st21{fill:#D3D9DD;}
	.st22{opacity:0.25;fill:#FFFFFF;}
	.st23{fill:#9A795F;}
	.st24{fill:#F29A2E;}
	.st25{fill:#FC97B2;}
	.st26{fill:#89664C;}
	.st27{fill:#7A5B44;}
	.st28{opacity:0.2;fill:#FFFFFF;}
	.st29{fill:#4E99D2;}
	.st30{fill:#BBC7D1;}
	.st31{fill:#DE9C25;}
</style>
<g>
	<g>
		<g>
			<g>
				<g>
					<g>
						<g>
							<g>
								<g>
									<g>
										<g>
											<g>
												<g>
													<circle class="st0" cx="16" cy="16" r="16"/>
												</g>
											</g>
										</g>
									</g>
								</g>
							</g>
						</g>
					</g>
				</g>
				<g>
					<g>
						<g>
							<g>
								<g>
									<g>
										<g>
											<g>
												<g>
													<path class="st2" d="M32,16c0,8.84-7.165,16-16,16c-5.03,0-9.52-2.32-12.455-5.955c2.745,2.22,6.24,3.545,10.045,3.545
														c8.835,0,16-7.16,16-16c0-3.805-1.325-7.3-3.545-10.045C29.675,6.48,32,10.97,32,16z"/>
												</g>
											</g>
										</g>
									</g>
								</g>
							</g>
						</g>
					</g>
				</g>
			</g>
		</g>
	</g>
	<path class="st5" d="M14.611,14.211c0,2.94-1.97,5.33-4.41,5.33c-2.43,0-4.4-2.39-4.4-5.33s1.97-5.32,4.4-5.32
		C12.641,8.891,14.611,11.271,14.611,14.211z"/>
	<path class="st1" d="M13.272,15.771c0,1.221-0.995,2.206-2.206,2.206c-1.221,0-2.206-0.986-2.206-2.206
		c0-1.212,0.986-2.206,2.206-2.206C12.278,13.565,13.272,14.56,13.272,15.771z"/>
	
		<ellipse transform="matrix(0.7071 -0.7071 0.7071 0.7071 -7.1165 12.7732)" class="st5" cx="11.86" cy="14.977" rx="0.404" ry="0.708"/>
	<path class="st1" d="M4.928,10.064c0,0,2.797-3.832,6.337-3.202c1.437-0.096,1.31-1.903-0.126-1.807
		C11.139,5.055,6.976,5.162,4.928,10.064z"/>
	<path class="st5" d="M16.784,14.211c0,2.94,1.97,5.33,4.41,5.33c2.43,0,4.4-2.39,4.4-5.33s-1.97-5.32-4.4-5.32
		C18.754,8.891,16.784,11.271,16.784,14.211z"/>
	<path class="st1" d="M24.36,15.771c0,1.221-0.995,2.206-2.206,2.206c-1.221,0-2.206-0.986-2.206-2.206
		c0-1.212,0.986-2.206,2.206-2.206C23.366,13.565,24.36,14.56,24.36,15.771z"/>
	
		<ellipse transform="matrix(0.7071 -0.7071 0.7071 0.7071 -3.869 20.6134)" class="st5" cx="22.948" cy="14.977" rx="0.404" ry="0.708"/>
	<path class="st1" d="M26.466,10.064c0,0-2.797-3.832-6.337-3.202c-1.437-0.096-1.31-1.903,0.126-1.807
		C20.256,5.055,24.419,5.162,26.466,10.064z"/>
	<ellipse class="st2" cx="20.24" cy="26.758" rx="3.86" ry="4.366"/>
	<ellipse class="st1" cx="20.24" cy="26.758" rx="2.711" ry="3.067"/>
	<path class="st6" d="M27.192,25.447v2.881c0,0.406-0.381,0.735-0.849,0.735c-0.472,0-0.853-0.329-0.853-0.735
		c0-0.406,0.381-0.732,0.853-0.732c0.132,0,0.257,0.028,0.368,0.076V26.23l-1.782,0.25v2.098c0,0.406-0.381,0.735-0.849,0.735
		c-0.472,0-0.853-0.329-0.853-0.735c0-0.406,0.381-0.732,0.853-0.732c0.132,0,0.257,0.028,0.368,0.073v-2.167
		c0-0.149,0.107-0.27,0.253-0.291l2.157-0.305C27.033,25.128,27.192,25.266,27.192,25.447z"/>
	<path class="st6" d="M31.5,18.378v3.912c0,0.551-0.518,0.998-1.153,0.998c-0.64,0-1.158-0.447-1.158-0.998
		c0-0.551,0.518-0.993,1.158-0.993c0.179,0,0.348,0.038,0.499,0.104v-1.958l-2.42,0.339v2.848c0,0.551-0.518,0.998-1.153,0.998
		c-0.64,0-1.158-0.447-1.158-0.998c0-0.551,0.518-0.993,1.158-0.993c0.179,0,0.348,0.038,0.499,0.099v-2.942
		c0-0.202,0.146-0.367,0.344-0.395l2.928-0.414C31.283,17.945,31.5,18.133,31.5,18.378z"/>
</g>
</svg>
