<?xml version="1.0" encoding="utf-8"?>
<!-- Generator: Adobe Illustrator 21.1.0, SVG Export Plug-In . SVG Version: 6.00 Build 0)  -->
<svg version="1.1" id="Layer_1" xmlns="http://www.w3.org/2000/svg" xmlns:xlink="http://www.w3.org/1999/xlink" x="0px" y="0px"
	 viewBox="0 0 32 32" style="enable-background:new 0 0 32 32;" xml:space="preserve">
<style type="text/css">
	.st0{fill:#FFD93B;}
	.st1{fill:#3E4347;}
	.st2{fill:#F4C534;}
	.st3{fill:#FFFFFF;}
	.st4{fill:#E24B4B;}
	.st5{opacity:0.2;}
	.st6{opacity:0.3;}
	.st7{fill:#5A5F63;}
	.st8{fill:#D03F3F;}
	.st9{fill:#E9EFF4;}
	.st10{fill:#DEE4E9;}
	.st11{fill:#777B7E;}
	.st12{fill:#45CBEA;}
	.st13{fill:#E84D88;}
	.st14{opacity:0.25;}
	.st15{fill:#E9B02C;}
	.st16{fill:none;stroke:#E9B02C;stroke-width:2;stroke-linecap:round;stroke-linejoin:round;stroke-miterlimit:10;}
	.st17{fill:#65B1EF;}
	.st18{fill:#F29A2E;}
	.st19{fill:#59A5E0;}
	.st20{fill:#4E99D2;}
	.st21{opacity:0.15;}
	.st22{fill:#8CC63E;}
	.st23{opacity:0.25;fill:#FFFFFF;}
	.st24{fill:#38C0DC;}
	.st25{fill:#D23F77;}
	.st26{fill:#DAE5EF;}
	.st27{fill:#373C3F;}
	.st28{fill:#BF3333;}
	.st29{opacity:0.2;fill:#FFFFFF;}
	.st30{opacity:0.3;fill:#FFFFFF;}
	.st31{fill:#7FB239;}
</style>
<g>
	<circle class="st0" cx="16" cy="16" r="16"/>
	<path class="st1" d="M26.932,21.271c-1.96,4.07-6.11,6.88-10.93,6.88c-4.82,0-8.98-2.81-10.94-6.88c-0.41-0.86,0.3-1.81,1.24-1.68
		c6.47,0.88,12.93,0.88,19.4,0C26.632,19.46,27.342,20.411,26.932,21.271z"/>
	<path class="st2" d="M32,16c0,8.84-7.165,16-16,16c-5.03,0-9.52-2.32-12.455-5.955c2.745,2.22,6.24,3.545,10.045,3.545
		c8.835,0,16-7.16,16-16c0-3.805-1.325-7.3-3.545-10.045C29.675,6.48,32,10.97,32,16z"/>
	<path class="st3" d="M26.039,19.59c-0.108-0.015-0.22-0.016-0.336,0c-6.47,0.88-12.93,0.88-19.4,0
		c-0.119-0.017-0.235-0.015-0.345,0.001c1.473,2.528,5.406,3.021,10.04,3.021C20.633,22.612,24.567,22.12,26.039,19.59z"/>
	<path class="st4" d="M16.002,28.15c1.764,0,3.436-0.379,4.946-1.056c-0.193-2.271-2.043-4.786-4.405-3.642
		c-1.984,0.94-3.681-0.39-4.803,1.481c-0.421,0.698-0.634,1.434-0.69,2.16C12.563,27.771,14.238,28.15,16.002,28.15z"/>
	<path class="st1" d="M10.342,13.85V11.12c-1.501-0.429-2.47-1.312-2.47-2.9c0-1.41,0.947-2.482,2.47-2.633V4.942h0.945v0.645
		c1.429,0.171,2.213,1.011,2.431,2.268L12.069,8.07c-0.1-0.513-0.361-0.86-0.782-1.043v2.548c1.649,0.447,2.698,1.106,2.698,2.828
		c0,1.507-0.927,2.724-2.698,2.978v1.219h-0.945v-1.186c-1.444-0.175-2.461-1.057-2.731-2.828l1.701-0.182
		C9.456,13.123,9.887,13.631,10.342,13.85z M10.342,7.008C9.813,7.187,9.502,7.65,9.502,8.142c0,0.44,0.252,0.867,0.841,1.121V7.008
		z M11.287,13.942c0.649-0.121,1.101-0.644,1.101-1.303c0-0.69-0.446-1.049-1.101-1.238V13.942z"/>
	<path class="st1" d="M20.745,13.85V11.12c-1.501-0.429-2.47-1.312-2.47-2.9c0-1.41,0.947-2.482,2.47-2.633V4.942h0.945v0.645
		c1.429,0.171,2.213,1.011,2.431,2.268L22.472,8.07c-0.1-0.513-0.361-0.86-0.782-1.043v2.548c1.649,0.447,2.698,1.106,2.698,2.828
		c0,1.507-0.927,2.724-2.698,2.978v1.219h-0.945v-1.186c-1.445-0.175-2.461-1.057-2.731-2.828l1.701-0.182
		C19.859,13.123,20.289,13.631,20.745,13.85z M20.745,7.008c-0.529,0.179-0.841,0.642-0.841,1.134c0,0.44,0.252,0.867,0.841,1.121
		V7.008z M21.69,13.942c0.649-0.121,1.101-0.644,1.101-1.303c0-0.69-0.447-1.049-1.101-1.238V13.942z"/>
</g>
</svg>
