<?xml version="1.0" encoding="utf-8"?>
<!-- Generator: Adobe Illustrator 21.1.0, SVG Export Plug-In . SVG Version: 6.00 Build 0)  -->
<svg version="1.1" id="Layer_1" xmlns="http://www.w3.org/2000/svg" xmlns:xlink="http://www.w3.org/1999/xlink" x="0px" y="0px"
	 viewBox="0 0 32 32" style="enable-background:new 0 0 32 32;" xml:space="preserve">
<style type="text/css">
	.st0{fill:#FFD93B;}
	.st1{fill:#3E4347;}
	.st2{fill:#F4C534;}
	.st3{fill:#FFFFFF;}
	.st4{fill:#E24B4B;}
	.st5{opacity:0.2;}
	.st6{opacity:0.3;}
	.st7{fill:#5A5F63;}
	.st8{fill:#D03F3F;}
	.st9{fill:#E9EFF4;}
	.st10{fill:#DEE4E9;}
	.st11{fill:#777B7E;}
	.st12{fill:#45CBEA;}
	.st13{fill:#E84D88;}
	.st14{opacity:0.25;}
	.st15{fill:#E9B02C;}
	.st16{fill:none;stroke:#E9B02C;stroke-width:2;stroke-linecap:round;stroke-linejoin:round;stroke-miterlimit:10;}
	.st17{fill:#65B1EF;}
	.st18{fill:#F29A2E;}
	.st19{fill:#59A5E0;}
	.st20{fill:#4E99D2;}
	.st21{opacity:0.15;}
	.st22{fill:#8CC63E;}
	.st23{opacity:0.25;fill:#FFFFFF;}
	.st24{fill:#38C0DC;}
	.st25{fill:#D23F77;}
	.st26{fill:#DAE5EF;}
	.st27{fill:#373C3F;}
	.st28{fill:#BF3333;}
	.st29{opacity:0.2;fill:#FFFFFF;}
	.st30{opacity:0.3;fill:#FFFFFF;}
	.st31{fill:#7FB239;}
</style>
<g>
	<circle class="st0" cx="16" cy="16" r="16"/>
	<path class="st1" d="M21.996,22.951c-0.46,2.55-2.49,5.12-6,5.12s-5.54-2.57-5.99-5.12c-0.07-0.38,0.19-0.74,0.57-0.81
		c0.38-0.06,0.74,0.19,0.81,0.57c0.35,1.97,1.91,3.96,4.61,3.96c2.7,0,4.27-1.99,4.62-3.96c0.07-0.38,0.43-0.63,0.81-0.57
		C21.806,22.21,22.066,22.571,21.996,22.951z"/>
	<path class="st2" d="M32,16c0,8.84-7.165,16-16,16c-5.03,0-9.52-2.32-12.455-5.955c2.745,2.22,6.24,3.545,10.045,3.545
		c8.835,0,16-7.16,16-16c0-3.805-1.325-7.3-3.545-10.045C29.675,6.48,32,10.97,32,16z"/>
	<path class="st3" d="M14.715,14.077c0,2.738-2.214,4.961-4.961,4.961c-2.737,0-4.961-2.223-4.961-4.961
		c0-2.747,2.224-4.97,4.961-4.97C12.501,9.107,14.715,11.331,14.715,14.077z"/>
	<circle class="st1" cx="9.754" cy="14.073" r="2.26"/>
	<path class="st3" d="M17.289,14.068c0-2.738,2.214-4.961,4.961-4.961c2.738,0,4.961,2.223,4.961,4.961
		c0,2.747-2.223,4.97-4.961,4.97C19.503,19.039,17.289,16.815,17.289,14.068z"/>
	<path class="st1" d="M30.329,13.323H27.86c-0.37-2.771-2.743-4.915-5.61-4.915c-2.122,0-3.972,1.176-4.94,2.91
		c-0.263,0.471-0.76,0.745-1.299,0.742c-0.003,0-0.006,0-0.01,0c-0.005,0-0.009,0-0.014,0c-0.537,0.004-1.032-0.271-1.293-0.74
		c-0.968-1.735-2.818-2.912-4.94-2.912c-2.866,0-5.234,2.146-5.605,4.915H1.671v1.5h2.495c0.348,2.588,2.451,4.671,5.1,4.895
		c3.352,0.284,6.215-2.389,6.144-5.759c0.057-0.282,0.295-0.498,0.592-0.498c0.304,0,0.586,0.219,0.586,0.617
		c0,3.268,2.785,5.899,6.106,5.644c2.658-0.204,4.802-2.283,5.148-4.899h2.486V13.323z M9.754,18.337
		c-2.349,0-4.261-1.912-4.261-4.26c0-2.354,1.911-4.269,4.261-4.269c2.349,0,4.26,1.915,4.26,4.269
		C14.014,16.426,12.103,18.337,9.754,18.337z M22.25,18.337c-2.349,0-4.261-1.912-4.261-4.26c0-2.354,1.911-4.269,4.261-4.269
		c2.349,0,4.26,1.915,4.26,4.269C26.51,16.426,24.599,18.337,22.25,18.337z"/>
	
		<ellipse transform="matrix(0.7071 -0.7071 0.7071 0.7071 -6.2399 11.3718)" class="st3" cx="10.606" cy="13.218" rx="0.405" ry="0.625"/>
	<circle class="st1" cx="22.25" cy="14.073" r="2.26"/>
	
		<ellipse transform="matrix(0.7071 -0.7071 0.7071 0.7071 -2.5795 20.2081)" class="st3" cx="23.102" cy="13.218" rx="0.405" ry="0.625"/>
	<path class="st1" d="M25.861,6.716c-0.32,0.187-0.766,0.096-0.97-0.254c-1.667-2.853-5.142-2.222-5.179-2.213
		c-0.386,0.075-0.753-0.179-0.829-0.565c-0.066-0.386,0.179-0.754,0.565-0.829c0.179-0.028,4.492-0.81,6.667,2.891
		C26.313,6.085,26.2,6.519,25.861,6.716z"/>
	<path class="st1" d="M6.139,6.716c0.32,0.187,0.766,0.096,0.97-0.254c1.667-2.853,5.141-2.222,5.179-2.213
		c0.386,0.075,0.753-0.179,0.829-0.565c0.066-0.386-0.179-0.754-0.565-0.829c-0.179-0.028-4.492-0.81-6.667,2.891
		C5.687,6.085,5.8,6.519,6.139,6.716z"/>
</g>
</svg>
