<?xml version="1.0" encoding="utf-8"?>
<!-- Generator: Adobe Illustrator 21.1.0, SVG Export Plug-In . SVG Version: 6.00 Build 0)  -->
<svg version="1.1" id="Layer_1" xmlns="http://www.w3.org/2000/svg" xmlns:xlink="http://www.w3.org/1999/xlink" x="0px" y="0px"
	 viewBox="0 0 32 32" style="enable-background:new 0 0 32 32;" xml:space="preserve">
<style type="text/css">
	.st0{fill:#FFD93B;}
	.st1{fill:#3E4347;}
	.st2{fill:#F4C534;}
	.st3{fill:#FFFFFF;}
	.st4{fill:#E24B4B;}
	.st5{opacity:0.2;}
	.st6{opacity:0.3;}
	.st7{fill:#5A5F63;}
	.st8{fill:#D03F3F;}
	.st9{fill:#E9EFF4;}
	.st10{fill:#DEE4E9;}
	.st11{fill:#777B7E;}
	.st12{fill:#45CBEA;}
	.st13{fill:#E84D88;}
	.st14{opacity:0.25;}
	.st15{fill:#E9B02C;}
	.st16{fill:none;stroke:#E9B02C;stroke-width:2;stroke-linecap:round;stroke-linejoin:round;stroke-miterlimit:10;}
	.st17{fill:#65B1EF;}
	.st18{fill:#F29A2E;}
	.st19{fill:#59A5E0;}
	.st20{fill:#4E99D2;}
	.st21{opacity:0.15;}
	.st22{fill:#8CC63E;}
	.st23{opacity:0.25;fill:#FFFFFF;}
	.st24{fill:#38C0DC;}
	.st25{fill:#D23F77;}
	.st26{fill:#DAE5EF;}
	.st27{fill:#373C3F;}
	.st28{fill:#BF3333;}
	.st29{opacity:0.2;fill:#FFFFFF;}
	.st30{opacity:0.3;fill:#FFFFFF;}
	.st31{fill:#7FB239;}
</style>
<g>
	<circle class="st0" cx="16" cy="16" r="16"/>
	<path class="st2" d="M32,16c0,8.84-7.165,16-16,16c-5.03,0-9.52-2.32-12.455-5.955c2.745,2.22,6.24,3.545,10.045,3.545
		c8.835,0,16-7.16,16-16c0-3.805-1.325-7.3-3.545-10.045C29.675,6.48,32,10.97,32,16z"/>
	<g>
		<path class="st1" d="M21.04,25.2c-0.409,0.495-1.008,0.629-1.598,0.323c-2.15-1.141-4.736-1.141-6.885,0
			c-0.59,0.307-1.193,0.206-1.602-0.287c-0.403-0.48-0.29-1.317,0.525-1.746c2.822-1.497,6.217-1.497,9.04,0
			C21.334,23.922,21.443,24.716,21.04,25.2z"/>
	</g>
	<g>
		<path class="st3" d="M17.289,15.268c0-2.738,2.214-4.961,4.961-4.961c2.737,0,4.961,2.223,4.961,4.961
			c0,2.747-2.224,4.97-4.961,4.97C19.503,20.239,17.289,18.015,17.289,15.268z"/>
		<circle class="st1" cx="21.25" cy="16.273" r="2.26"/>
		
			<ellipse transform="matrix(0.7071 -0.7071 0.7071 0.7071 -4.9271 18.9374)" class="st3" cx="20.398" cy="15.417" rx="0.625" ry="0.405"/>
	</g>
	<g>
		<path class="st3" d="M14.492,15.268c0-2.738-2.214-4.961-4.961-4.961c-2.738,0-4.961,2.223-4.961,4.961
			c0,2.747,2.224,4.97,4.961,4.97C12.278,20.239,14.492,18.015,14.492,15.268z"/>
		<circle class="st1" cx="10.531" cy="16.273" r="2.26"/>
		
			<ellipse transform="matrix(0.7071 -0.7071 0.7071 0.7071 -7.5673 12.5657)" class="st3" cx="11.383" cy="15.417" rx="0.405" ry="0.625"/>
	</g>
</g>
</svg>
