<?xml version="1.0" encoding="utf-8"?>
<!-- Generator: Adobe Illustrator 21.1.0, SVG Export Plug-In . SVG Version: 6.00 Build 0)  -->
<svg version="1.1" id="Layer_1" xmlns="http://www.w3.org/2000/svg" xmlns:xlink="http://www.w3.org/1999/xlink" x="0px" y="0px"
	 viewBox="0 0 32 32" style="enable-background:new 0 0 32 32;" xml:space="preserve">
<style type="text/css">
	.st0{fill:#FFD93B;}
	.st1{fill:#3E4347;}
	.st2{fill:#F4C534;}
	.st3{fill:#FFFFFF;}
	.st4{fill:#E24B4B;}
	.st5{opacity:0.2;}
	.st6{opacity:0.3;}
	.st7{fill:#5A5F63;}
	.st8{fill:#D03F3F;}
	.st9{fill:#E9EFF4;}
	.st10{fill:#DEE4E9;}
	.st11{fill:#777B7E;}
	.st12{fill:#45CBEA;}
	.st13{fill:#E84D88;}
	.st14{opacity:0.25;}
	.st15{fill:#E9B02C;}
	.st16{fill:none;stroke:#E9B02C;stroke-width:2;stroke-linecap:round;stroke-linejoin:round;stroke-miterlimit:10;}
	.st17{fill:#65B1EF;}
	.st18{fill:#F29A2E;}
	.st19{fill:#59A5E0;}
	.st20{fill:#4E99D2;}
	.st21{opacity:0.15;}
	.st22{fill:#8CC63E;}
	.st23{opacity:0.25;fill:#FFFFFF;}
	.st24{fill:#38C0DC;}
	.st25{fill:#D23F77;}
	.st26{fill:#DAE5EF;}
	.st27{fill:#373C3F;}
	.st28{fill:#BF3333;}
	.st29{opacity:0.2;fill:#FFFFFF;}
	.st30{opacity:0.3;fill:#FFFFFF;}
	.st31{fill:#7FB239;}
</style>
<g>
	<g>
		<g>
			<g>
				<g>
					<g>
						<g>
							<g>
								<g>
									<g>
										<g>
											<g>
												<g>
													<g>
														<g>
															<g>
																<g>
																	<g>
																		<g>
																			<g>
																				<g>
																					<g>
																						<g>
																							<g>
																								<circle class="st0" cx="16" cy="16" r="16"/>
																							</g>
																						</g>
																					</g>
																				</g>
																			</g>
																			<g>
																				<g>
																					<g>
																						<g>
																							<g>
																								<path class="st2" d="M32,16c0,8.84-7.165,16-16,16c-5.03,0-9.52-2.32-12.455-5.955
																									c2.745,2.22,6.24,3.545,10.045,3.545c8.835,0,16-7.16,16-16c0-3.805-1.325-7.3-3.545-10.045
																									C29.675,6.48,32,10.97,32,16z"/>
																							</g>
																						</g>
																					</g>
																				</g>
																			</g>
																		</g>
																	</g>
																</g>
															</g>
														</g>
													</g>
												</g>
											</g>
										</g>
									</g>
								</g>
							</g>
						</g>
					</g>
				</g>
			</g>
		</g>
	</g>
	<g>
		<g>
			<path class="st1" d="M22.625,22.295c-0.237,0.198-3.533,2.556-3.533,2.556l-3.614-1.213l-3.552,1.258
				c0,0-3.424-2.507-3.552-2.602l3.545,1.64l3.559-1.417l3.656,1.521L22.625,22.295z"/>
		</g>
	</g>
	<g>
		<g>
			<circle class="st3" cx="9.37" cy="14.738" r="5.2"/>
		</g>
		<g>
			<g>
				<path class="st1" d="M12.016,16.941c-0.549,1.372-2.113,2.042-3.485,1.493c-1.383-0.553-2.042-2.113-1.493-3.485
					c0.549-1.372,2.102-2.046,3.485-1.493C11.895,14.005,12.565,15.57,12.016,16.941z"/>
			</g>
			<g>
				
					<ellipse transform="matrix(0.3715 -0.9284 0.9284 0.3715 -8.4355 20.5686)" class="st7" cx="10.975" cy="16.515" rx="0.779" ry="0.525"/>
			</g>
		</g>
	</g>
	<g>
		<g>
			<circle class="st3" cx="21.706" cy="14.738" r="5.2"/>
		</g>
		<g>
			<g>
				<path class="st1" d="M18.437,13.159c0.549-1.372,2.113-2.042,3.485-1.493c1.383,0.553,2.042,2.113,1.493,3.485
					c-0.549,1.372-2.102,2.046-3.485,1.493C18.558,16.095,17.888,14.531,18.437,13.159z"/>
			</g>
			<g>
				
					<ellipse transform="matrix(0.3715 -0.9284 0.9284 0.3715 -0.3707 26.6231)" class="st7" cx="19.479" cy="13.585" rx="0.779" ry="0.525"/>
			</g>
		</g>
	</g>
	<g>
		<g>
			<path class="st1" d="M5.962,7.21c1.49-0.279,3.107-0.313,4.59-0.104c1.555,0.202,3.212,0.691,4.067,2.138l-0.063,0.078
				c-0.163-0.044-4.117-1.419-4.164-1.432c-2.131-0.59-4.424-0.58-4.424-0.58L5.962,7.21z"/>
		</g>
		<g>
			<path class="st1" d="M26.032,7.309c0,0-2.293-0.01-4.424,0.58c-0.186,0.049-3.918,1.366-4.164,1.432l-0.063-0.078
				c1.025-1.735,3.067-2.008,4.067-2.138c1.482-0.208,3.098-0.175,4.59,0.104L26.032,7.309z"/>
		</g>
	</g>
	<g>
		<path class="st4" d="M15.814,25.401c0,3.012-1.41,5.45-3.143,5.45c-1.745,0-3.155-2.438-3.155-5.45
			c0-0.753,0.084-1.482,0.251-2.139c1.004,0.633,1.948,1.219,2.02,1.255c0.155-0.06,3.65-1.452,3.65-1.452
			S15.814,24.612,15.814,25.401z"/>
	</g>
</g>
</svg>
