<?xml version="1.0" encoding="utf-8"?>
<!-- Generator: Adobe Illustrator 21.1.0, SVG Export Plug-In . SVG Version: 6.00 Build 0)  -->
<svg version="1.1" id="Layer_1" xmlns="http://www.w3.org/2000/svg" xmlns:xlink="http://www.w3.org/1999/xlink" x="0px" y="0px"
	 viewBox="0 0 32 32" style="enable-background:new 0 0 32 32;" xml:space="preserve">
<style type="text/css">
	.st0{fill:#FFD93B;}
	.st1{fill:#3E4347;}
	.st2{fill:#F4C534;}
	.st3{fill:#FFFFFF;}
	.st4{fill:#E24B4B;}
	.st5{opacity:0.2;}
	.st6{opacity:0.3;}
	.st7{fill:#5A5F63;}
	.st8{fill:#D03F3F;}
	.st9{fill:#E9EFF4;}
	.st10{fill:#DEE4E9;}
	.st11{fill:#777B7E;}
	.st12{fill:#45CBEA;}
	.st13{fill:#E84D88;}
	.st14{opacity:0.25;}
	.st15{fill:#E9B02C;}
	.st16{fill:none;stroke:#E9B02C;stroke-width:2;stroke-linecap:round;stroke-linejoin:round;stroke-miterlimit:10;}
	.st17{fill:#65B1EF;}
	.st18{fill:#F29A2E;}
	.st19{fill:#59A5E0;}
	.st20{fill:#4E99D2;}
	.st21{opacity:0.15;}
	.st22{fill:#8CC63E;}
	.st23{opacity:0.25;fill:#FFFFFF;}
	.st24{fill:#38C0DC;}
	.st25{fill:#D23F77;}
	.st26{fill:#DAE5EF;}
	.st27{fill:#373C3F;}
	.st28{fill:#BF3333;}
	.st29{opacity:0.2;fill:#FFFFFF;}
	.st30{opacity:0.3;fill:#FFFFFF;}
	.st31{fill:#7FB239;}
</style>
<g>
	<g>
		<g>
			<g>
				<g>
					<g>
						<g>
							<g>
								<g>
									<g>
										<g>
											<g>
												<g>
													<g>
														<g>
															<g>
																<g>
																	<g>
																		<g>
																			<g>
																				<g>
																					<g>
																						<g>
																							<g>
																								<g>
																									<circle class="st0" cx="16" cy="16" r="16"/>
																								</g>
																							</g>
																						</g>
																					</g>
																				</g>
																				<g>
																					<g>
																						<g>
																							<g>
																								<g>
																									<path class="st2" d="M32,16c0,8.84-7.165,16-16,16c-5.03,0-9.52-2.32-12.455-5.955
																										c2.745,2.22,6.24,3.545,10.045,3.545c8.835,0,16-7.16,16-16c0-3.805-1.325-7.3-3.545-10.045
																										C29.675,6.48,32,10.97,32,16z"/>
																								</g>
																							</g>
																						</g>
																					</g>
																				</g>
																			</g>
																		</g>
																	</g>
																</g>
															</g>
														</g>
													</g>
												</g>
											</g>
										</g>
									</g>
								</g>
							</g>
						</g>
					</g>
				</g>
			</g>
		</g>
	</g>
	<g>
		<g>
			<path class="st3" d="M13.719,11.546c0.777,3.674-1.75,7.166-4.452,7.119c-2.699-0.016-4.525-2.271-4.877-4.435
				c-0.301-2.183,0.906-4.588,3.175-6.056C9.788,6.719,12.934,7.867,13.719,11.546z"/>
		</g>
		<g>
			<g>
				<path class="st1" d="M8.796,10.694c1.177-0.626,2.706,0.292,3.113,2.288c0.408,1.983-0.625,3.91-1.953,4.105
					c-1.339,0.204-2.403-1.038-2.668-2.589C7.034,12.933,7.602,11.327,8.796,10.694z"/>
			</g>
		</g>
		<g>
			<path class="st17" d="M13.721,11.547c-0.436-2.061-2.91-2.382-5.323-1.234c-2.43,1.16-4.183,2.698-4.009,3.918
				c-0.3-2.183,0.907-4.59,3.175-6.06C9.787,6.717,12.936,7.867,13.721,11.547z"/>
		</g>
		<g>
			<path class="st7" d="M13.506,10.938c0.004,0.013-0.158-0.195-0.419-0.351c-0.271-0.171-0.668-0.281-1.135-0.302
				c-0.938-0.049-2.154,0.306-3.329,0.772c-0.3,0.122-0.597,0.252-0.869,0.376c-0.283,0.132-0.561,0.264-0.825,0.404
				c-0.534,0.266-1.007,0.559-1.4,0.826c-0.388,0.273-0.691,0.533-0.87,0.757c-0.179,0.221-0.256,0.382-0.256,0.384
				c0.01,0.002-0.029-0.174,0.039-0.493c0.041-0.157,0.1-0.345,0.204-0.548c0.104-0.201,0.232-0.428,0.404-0.648
				c0.329-0.455,0.786-0.928,1.316-1.37c0.266-0.22,0.549-0.434,0.85-0.627c0.308-0.207,0.62-0.372,0.931-0.536
				c1.276-0.636,2.741-0.848,3.845-0.331c0.273,0.11,0.519,0.285,0.725,0.46c0.208,0.175,0.37,0.387,0.492,0.567
				C13.453,10.679,13.492,10.941,13.506,10.938z"/>
		</g>
	</g>
	<g>
		<g>
			<path class="st3" d="M17.416,11.547c-0.777,3.674,1.75,7.166,4.452,7.119c2.699-0.016,4.525-2.271,4.877-4.435
				c0.301-2.183-0.906-4.588-3.175-6.056C21.346,6.72,18.201,7.868,17.416,11.547z"/>
		</g>
		<g>
			<g>
				<path class="st1" d="M22.037,10.856c-1.177-0.626-2.706,0.292-3.113,2.288c-0.407,1.983,0.625,3.91,1.953,4.105
					c1.339,0.204,2.403-1.038,2.668-2.589C23.798,13.096,23.231,11.489,22.037,10.856z"/>
			</g>
			<g>
				<path class="st7" d="M21.477,13.389c0.091,0.573,0.509,1.033,0.909,1.016c0.401-0.015,0.638-0.47,0.546-1.017
					c-0.092-0.547-0.475-0.994-0.877-1.009C21.654,12.367,21.385,12.814,21.477,13.389z"/>
			</g>
		</g>
		<g>
			<path class="st17" d="M17.413,11.548c0.436-2.062,2.91-2.382,5.323-1.234c2.43,1.16,4.183,2.698,4.009,3.918
				c0.301-2.183-0.907-4.59-3.175-6.06C21.348,6.718,18.198,7.868,17.413,11.548z"/>
		</g>
		<g>
			<path class="st7" d="M17.629,10.939c-0.003,0.013,0.158-0.195,0.419-0.351c0.271-0.171,0.668-0.281,1.135-0.302
				c0.938-0.049,2.154,0.306,3.329,0.772c0.3,0.122,0.597,0.252,0.869,0.376c0.283,0.132,0.561,0.264,0.825,0.404
				c0.534,0.266,1.007,0.559,1.4,0.826c0.388,0.273,0.691,0.533,0.871,0.757c0.178,0.221,0.256,0.382,0.256,0.384
				c-0.01,0.002,0.029-0.174-0.039-0.493c-0.041-0.157-0.1-0.345-0.204-0.548c-0.104-0.201-0.232-0.428-0.404-0.648
				c-0.329-0.455-0.786-0.928-1.316-1.37c-0.266-0.22-0.549-0.434-0.85-0.627c-0.308-0.207-0.62-0.372-0.931-0.536
				c-1.276-0.636-2.741-0.848-3.845-0.331c-0.273,0.11-0.519,0.285-0.725,0.46c-0.208,0.175-0.37,0.387-0.492,0.567
				C17.681,10.68,17.643,10.942,17.629,10.939z"/>
		</g>
	</g>
	<g>
		<g>
			<path class="st1" d="M27.335,8.121c-1.265-0.913-2.647-1.668-4.076-2.16c-0.534-0.159-1.067-0.311-1.576-0.364
				c-0.673-0.115-2.047-0.064-2.886-0.361c1.128-1.282,3.22-0.864,4.835-0.247C25.278,5.684,26.782,7.121,27.335,8.121z"/>
		</g>
		<g>
			<path class="st1" d="M4.349,7.117C5.071,6.174,6.78,5.001,8.474,4.566c1.664-0.365,3.785-0.53,4.746,0.959
				c0,0-0.182,0.035-0.457,0.044c-1.519,0.075-1.709-0.322-4.063,0.014C7.135,5.873,5.523,6.51,4.349,7.117z"/>
		</g>
	</g>
	<g>
		<path class="st1" d="M21.848,26.578c-1.116,0.273-3.469-2.214-6.51-2.002c-3.018-0.224-5.396,2.263-6.51,2.002
			c-1.435-0.129,0.223-6.344,6.51-6.413C21.666,20.252,23.274,26.458,21.848,26.578z"/>
	</g>
	<g>
		<path class="st7" d="M9.73,13.035c0.091,0.573,0.509,1.033,0.909,1.017c0.401-0.015,0.638-0.47,0.546-1.017
			c-0.092-0.547-0.475-0.994-0.877-1.009C9.907,12.013,9.638,12.46,9.73,13.035z"/>
	</g>
</g>
<g>
	<g>
		<g>
			<g>
				<g>
					<g>
						<g>
							<g>
								<g>
									<g>
										<g>
											<g>
												<g>
													<g>
														<g>
															<g>
																<g>
																	<g>
																		<g>
																			<g>
																				<g>
																					<g>
																						<g>
																							<g>
																								<g>
																									<g>
																										<g>
																											<g>
																												<circle class="st0" cx="16" cy="16" r="16"/>
																											</g>
																										</g>
																									</g>
																								</g>
																							</g>
																							<g>
																								<g>
																									<g>
																										<g>
																											<g>
																												<path class="st2" d="M32,16c0,8.84-7.165,16-16,16c-5.03,0-9.52-2.32-12.455-5.955
																													c2.745,2.22,6.24,3.545,10.045,3.545c8.835,0,16-7.16,16-16c0-3.805-1.325-7.3-3.545-10.045
																													C29.675,6.48,32,10.97,32,16z"/>
																											</g>
																										</g>
																									</g>
																								</g>
																							</g>
																						</g>
																					</g>
																				</g>
																			</g>
																		</g>
																	</g>
																</g>
															</g>
														</g>
													</g>
												</g>
											</g>
										</g>
									</g>
								</g>
							</g>
						</g>
					</g>
				</g>
			</g>
		</g>
		<path class="st2" d="M14.353,12.967c0,3.132-1.976,5.679-4.434,5.679c-2.444,0-4.435-2.546-4.435-5.679
			c0-3.132,1.99-5.678,4.435-5.678C12.378,7.289,14.353,9.836,14.353,12.967z"/>
		<path class="st3" d="M13.461,12.601c0,2.488-1.581,4.522-3.542,4.522c-1.947,0-3.527-2.034-3.527-4.522
			c0-2.502,1.581-4.537,3.527-4.537C11.88,8.065,13.461,10.099,13.461,12.601z"/>
		<g>
			
				<ellipse transform="matrix(0.2104 -0.9776 0.9776 0.2104 -4.9659 21.18)" class="st1" cx="10.629" cy="13.664" rx="2.402" ry="1.911"/>
		</g>
		<g>
			<path class="st7" d="M11.831,13.127c-0.164,0.088-0.419-0.081-0.575-0.373c-0.156-0.292-0.151-0.612,0.009-0.685
				c0.164-0.088,0.423,0.067,0.579,0.359C11.996,12.734,11.995,13.04,11.831,13.127z"/>
		</g>
		<path class="st2" d="M16.725,12.967c0,3.132,1.976,5.679,4.434,5.679c2.444,0,4.435-2.546,4.435-5.679
			c0-3.132-1.99-5.678-4.435-5.678C18.701,7.289,16.725,9.836,16.725,12.967z"/>
		<path class="st3" d="M17.618,12.601c0,2.488,1.581,4.522,3.542,4.522c1.947,0,3.527-2.034,3.527-4.522
			c0-2.502-1.581-4.537-3.527-4.537C19.199,8.065,17.618,10.099,17.618,12.601z"/>
		<g>
			
				<ellipse transform="matrix(0.9776 -0.2104 0.2104 0.9776 -2.4175 4.6093)" class="st1" cx="20.45" cy="13.664" rx="1.911" ry="2.402"/>
		</g>
		<g>
			<path class="st7" d="M19.248,13.127c0.164,0.088,0.419-0.081,0.575-0.373c0.156-0.292,0.151-0.612-0.009-0.685
				c-0.164-0.088-0.423,0.067-0.579,0.359C19.083,12.734,19.083,13.04,19.248,13.127z"/>
		</g>
		<path class="st1" d="M19.939,2.517c0,0,4.09,1.118,5.974,4.929C25.913,7.445,24.023-0.298,19.939,2.517z"/>
		<path class="st1" d="M12.431,2.658c0,0-4.166,0.792-6.344,4.441C6.087,7.1,8.582-0.47,12.431,2.658z"/>
	</g>
	<g>
		<path class="st1" d="M22.925,23.938c0.132,6.065-4.488,3.873-9.917,2.097C9.11,24.76,7.19,27.361,7.233,23.937
			c-0.045-3.42,1.876-0.818,5.775-2.096C18.437,20.066,23.058,17.862,22.925,23.938z"/>
	</g>
	<g>
		<path class="st3" d="M22.473,21.253c-1.275-2.528-5.107-0.836-9.465,0.588c-2.064,0.677-3.568,0.27-4.526,0.241
			c-0.01,0.417,0.05,1.064,0.611,1.345c0.777,0.389,8.004-0.366,10.29-1.052C20.852,21.934,21.913,21.77,22.473,21.253z"/>
	</g>
	<path class="st3" d="M22.581,26.367c-0.817-0.743-2.875-0.289-3.975-0.62c-1.285-0.387-8.369-1.361-9.193-0.88
		c-0.357,0.208-0.497,0.566-0.549,0.905c0.959-0.089,2.335-0.329,4.143,0.262C17.502,27.504,21.432,29.245,22.581,26.367z"/>
</g>
</svg>
