<?xml version="1.0" encoding="utf-8"?>
<!-- Generator: Adobe Illustrator 21.1.0, SVG Export Plug-In . SVG Version: 6.00 Build 0)  -->
<svg version="1.1" id="Layer_1" xmlns="http://www.w3.org/2000/svg" xmlns:xlink="http://www.w3.org/1999/xlink" x="0px" y="0px"
	 viewBox="0 0 32 32" style="enable-background:new 0 0 32 32;" xml:space="preserve">
<style type="text/css">
	.st0{fill:#FFD93B;}
	.st1{fill:#3E4347;}
	.st2{fill:#F4C534;}
	.st3{fill:#FFFFFF;}
	.st4{fill:#E24B4B;}
	.st5{opacity:0.2;}
	.st6{opacity:0.3;}
	.st7{fill:#5A5F63;}
	.st8{fill:#D03F3F;}
	.st9{fill:#E9EFF4;}
	.st10{fill:#DEE4E9;}
	.st11{fill:#777B7E;}
	.st12{fill:#45CBEA;}
	.st13{fill:#E84D88;}
	.st14{opacity:0.25;}
	.st15{fill:#E9B02C;}
	.st16{fill:none;stroke:#E9B02C;stroke-width:2;stroke-linecap:round;stroke-linejoin:round;stroke-miterlimit:10;}
	.st17{fill:#65B1EF;}
	.st18{fill:#F29A2E;}
	.st19{fill:#59A5E0;}
	.st20{fill:#4E99D2;}
	.st21{opacity:0.15;}
	.st22{fill:#8CC63E;}
	.st23{opacity:0.25;fill:#FFFFFF;}
	.st24{fill:#38C0DC;}
	.st25{fill:#D23F77;}
	.st26{fill:#DAE5EF;}
	.st27{fill:#373C3F;}
	.st28{fill:#BF3333;}
	.st29{opacity:0.2;fill:#FFFFFF;}
	.st30{opacity:0.3;fill:#FFFFFF;}
	.st31{fill:#7FB239;}
</style>
<g>
	<g>
		<g>
			<g>
				<g>
					<g>
						<g>
							<g>
								<g>
									<g>
										<g>
											<g>
												<g>
													<g>
														<g>
															<g>
																<g>
																	<g>
																		<g>
																			<g>
																				<g>
																					<g>
																						<g>
																							<g>
																								<g>
																									<g>
																										<g>
																											<g>
																												<circle class="st0" cx="16" cy="16" r="16"/>
																											</g>
																										</g>
																									</g>
																								</g>
																							</g>
																						</g>
																						<g>
																							<g>
																								<g>
																									<g>
																										<g>
																											<g>
																												<path class="st2" d="M32,16c0,8.84-7.165,16-16,16c-5.03,0-9.52-2.32-12.455-5.955
																													c2.745,2.22,6.24,3.545,10.045,3.545c8.835,0,16-7.16,16-16c0-3.805-1.325-7.3-3.545-10.045
																													C29.675,6.48,32,10.97,32,16z"/>
																											</g>
																										</g>
																									</g>
																								</g>
																							</g>
																						</g>
																					</g>
																				</g>
																			</g>
																		</g>
																	</g>
																</g>
															</g>
														</g>
													</g>
												</g>
											</g>
										</g>
									</g>
								</g>
							</g>
						</g>
					</g>
				</g>
			</g>
		</g>
	</g>
	<g>
		<path class="st1" d="M26.234,22.945c-0.71,3.4-5.26,5.84-10.23,5.84c-4.99,0-9.53-2.44-10.24-5.84c-0.19-0.92-0.09-1.83,0.27-2.68
			c0.18-0.45,0.75-0.58,1.14-0.3c2.41,1.75,6.6,2.42,8.8,2.42c2.22,0,6.43-0.67,8.85-2.42c0.39-0.28,0.95-0.15,1.14,0.29
			C26.324,21.115,26.424,22.026,26.234,22.945z"/>
	</g>
	<g>
		<g>
			<g>
				<circle class="st3" cx="8.385" cy="11.896" r="5.257"/>
			</g>
			<g>
				<circle class="st1" cx="8.885" cy="12.396" r="2.793"/>
			</g>
			<g>
				<path class="st3" d="M10.533,12.061c-0.231,0.226-0.705,0.114-1.066-0.247c-0.361-0.361-0.468-0.831-0.238-1.056
					C9.461,10.531,9.939,10.639,10.3,11C10.661,11.361,10.764,11.835,10.533,12.061z"/>
			</g>
		</g>
		<g>
			<g>
				<circle class="st3" cx="23.615" cy="11.896" r="5.257"/>
			</g>
			<g>
				<circle class="st1" cx="23.115" cy="12.396" r="2.793"/>
			</g>
			<g>
				<path class="st3" d="M24.763,12.061c-0.231,0.226-0.705,0.114-1.066-0.247c-0.361-0.361-0.468-0.831-0.238-1.056
					c0.231-0.226,0.709-0.118,1.07,0.243C24.89,11.361,24.994,11.835,24.763,12.061z"/>
			</g>
		</g>
	</g>
	<g>
		<path class="st3" d="M12.551,24.02c0.377-0.313,0.576-1.035,0.672-1.884c-1.105-0.176-2.286-0.457-3.405-0.855
			c-0.129,1.066-0.113,2.057,0.264,2.512C10.478,24.269,12.074,24.416,12.551,24.02z"/>
		<path class="st3" d="M14.636,22.313c0.083,1.068,0.448,2.007,1.404,2.296c1.007,0.303,4.471-0.174,5.358-0.739
			c0.839-0.534,0.938-1.531,0.733-2.576c-2.177,0.765-4.634,1.092-6.158,1.092C15.587,22.386,15.125,22.357,14.636,22.313z"/>
	</g>
	<path class="st4" d="M16.004,28.786c2.278,0,4.462-0.517,6.235-1.4c-0.023-0.51-0.191-1.019-0.526-1.494
		c-1.027-1.456-2.895-0.762-5.701-0.762s-4.597-0.694-5.625,0.762c-0.347,0.491-0.514,1.02-0.527,1.547
		C11.614,28.29,13.762,28.786,16.004,28.786z"/>
</g>
</svg>
