<?xml version="1.0" encoding="utf-8"?>
<!-- Generator: Adobe Illustrator 21.1.0, SVG Export Plug-In . SVG Version: 6.00 Build 0)  -->
<svg version="1.1" id="Layer_1" xmlns="http://www.w3.org/2000/svg" xmlns:xlink="http://www.w3.org/1999/xlink" x="0px" y="0px"
	 viewBox="0 0 32 32" style="enable-background:new 0 0 32 32;" xml:space="preserve">
<style type="text/css">
	.st0{fill:#FFD93B;}
	.st1{fill:#3E4347;}
	.st2{fill:#F4C534;}
	.st3{fill:#FFFFFF;}
	.st4{fill:#E24B4B;}
	.st5{opacity:0.2;}
	.st6{opacity:0.3;}
	.st7{fill:#5A5F63;}
	.st8{fill:#D03F3F;}
	.st9{fill:#E9EFF4;}
	.st10{fill:#DEE4E9;}
	.st11{fill:#777B7E;}
	.st12{fill:#45CBEA;}
	.st13{fill:#E84D88;}
	.st14{opacity:0.25;}
	.st15{fill:#E9B02C;}
	.st16{fill:none;stroke:#E9B02C;stroke-width:2;stroke-linecap:round;stroke-linejoin:round;stroke-miterlimit:10;}
	.st17{fill:#65B1EF;}
	.st18{fill:#F29A2E;}
	.st19{fill:#59A5E0;}
	.st20{fill:#4E99D2;}
	.st21{opacity:0.15;}
	.st22{fill:#8CC63E;}
	.st23{opacity:0.25;fill:#FFFFFF;}
	.st24{fill:#38C0DC;}
	.st25{fill:#D23F77;}
	.st26{fill:#DAE5EF;}
	.st27{fill:#373C3F;}
	.st28{fill:#BF3333;}
	.st29{opacity:0.2;fill:#FFFFFF;}
	.st30{opacity:0.3;fill:#FFFFFF;}
	.st31{fill:#7FB239;}
</style>
<g>
	<circle class="st0" cx="16" cy="16" r="16"/>
	<path class="st2" d="M32,16c0,8.84-7.165,16-16,16c-5.03,0-9.52-2.32-12.455-5.955c2.745,2.22,6.24,3.545,10.045,3.545
		c8.835,0,16-7.16,16-16c0-3.805-1.325-7.3-3.545-10.045C29.675,6.48,32,10.97,32,16z"/>
	<path class="st3" d="M14.715,15.277c0,2.738-2.214,4.961-4.961,4.961c-2.737,0-4.961-2.223-4.961-4.961
		c0-2.747,2.223-4.97,4.961-4.97C12.501,10.307,14.715,12.531,14.715,15.277z"/>
	<path class="st3" d="M17.289,15.268c0-2.738,2.214-4.961,4.961-4.961c2.737,0,4.961,2.223,4.961,4.961
		c0,2.747-2.224,4.97-4.961,4.97C19.503,20.239,17.289,18.015,17.289,15.268z"/>
	<path class="st1" d="M25.776,5.722c-0.265-0.259-0.72-0.278-1.003,0.012c-2.307,2.365-5.526,0.913-5.56,0.895
		c-0.356-0.167-0.774-0.009-0.941,0.348c-0.157,0.359-0.009,0.774,0.348,0.941c0.167,0.07,4.162,1.871,7.168-1.194
		C26.062,6.443,26.057,5.996,25.776,5.722z"/>
	<path class="st1" d="M6.224,5.722c0.265-0.259,0.72-0.278,1.003,0.012c2.307,2.365,5.526,0.913,5.56,0.895
		c0.356-0.167,0.774-0.009,0.941,0.348c0.157,0.359,0.009,0.774-0.348,0.941c-0.167,0.07-4.162,1.871-7.168-1.194
		C5.938,6.443,5.943,5.996,6.224,5.722z"/>
	<path class="st1" d="M20.504,25.061c0,0.64-0.52,1.15-1.15,1.15h-6.71c-0.63,0-1.15-0.51-1.15-1.15c0-0.63,0.52-1.15,1.15-1.15
		h6.71C19.984,23.911,20.504,24.431,20.504,25.061z"/>
	<circle class="st1" cx="10.354" cy="15.273" r="2.26"/>
	
		<ellipse transform="matrix(0.7071 -0.7071 0.7071 0.7071 -6.912 12.1463)" class="st3" cx="11.206" cy="14.417" rx="0.405" ry="0.625"/>
	<circle class="st1" cx="21.65" cy="15.273" r="2.26"/>
	
		<ellipse transform="matrix(0.7071 -0.7071 0.7071 0.7071 -3.6036 20.1337)" class="st3" cx="22.502" cy="14.417" rx="0.405" ry="0.625"/>
</g>
</svg>
