<?xml version="1.0" encoding="utf-8"?>
<!-- Generator: Adobe Illustrator 21.1.0, SVG Export Plug-In . SVG Version: 6.00 Build 0)  -->
<svg version="1.1" id="Layer_1" xmlns="http://www.w3.org/2000/svg" xmlns:xlink="http://www.w3.org/1999/xlink" x="0px" y="0px"
	 viewBox="0 0 32 32" style="enable-background:new 0 0 32 32;" xml:space="preserve">
<style type="text/css">
	.st0{fill:#FFD93B;}
	.st1{fill:#3E4347;}
	.st2{fill:#F4C534;}
	.st3{fill:#FFFFFF;}
	.st4{fill:#E24B4B;}
	.st5{opacity:0.2;}
	.st6{opacity:0.3;}
	.st7{fill:#5A5F63;}
	.st8{fill:#D03F3F;}
	.st9{fill:#E9EFF4;}
	.st10{fill:#DEE4E9;}
	.st11{fill:#777B7E;}
	.st12{fill:#45CBEA;}
	.st13{fill:#E84D88;}
	.st14{opacity:0.25;}
	.st15{fill:#E9B02C;}
	.st16{fill:none;stroke:#E9B02C;stroke-width:2;stroke-linecap:round;stroke-linejoin:round;stroke-miterlimit:10;}
	.st17{fill:#65B1EF;}
	.st18{fill:#F29A2E;}
	.st19{fill:#59A5E0;}
	.st20{fill:#4E99D2;}
	.st21{opacity:0.15;}
	.st22{fill:#8CC63E;}
	.st23{opacity:0.25;fill:#FFFFFF;}
	.st24{fill:#38C0DC;}
	.st25{fill:#D23F77;}
	.st26{fill:#DAE5EF;}
	.st27{fill:#373C3F;}
	.st28{fill:#BF3333;}
	.st29{opacity:0.2;fill:#FFFFFF;}
	.st30{opacity:0.3;fill:#FFFFFF;}
	.st31{fill:#7FB239;}
</style>
<g>
	<g>
		<g>
			<g>
				<g>
					<g>
						<g>
							<g>
								<g>
									<g>
										<g>
											<g>
												<g>
													<g>
														<g>
															<g>
																<g>
																	<g>
																		<g>
																			<g>
																				<g>
																					<g>
																						<g>
																							<g>
																								<g>
																									<circle class="st0" cx="16" cy="16" r="16"/>
																								</g>
																							</g>
																						</g>
																					</g>
																				</g>
																			</g>
																			<g>
																				<g>
																					<g>
																						<g>
																							<g>
																								<g>
																									<path class="st2" d="M32,16c0,8.84-7.165,16-16,16c-5.03,0-9.52-2.32-12.455-5.955
																										c2.745,2.22,6.24,3.545,10.045,3.545c8.835,0,16-7.16,16-16c0-3.805-1.325-7.3-3.545-10.045
																										C29.675,6.48,32,10.97,32,16z"/>
																								</g>
																							</g>
																						</g>
																					</g>
																				</g>
																			</g>
																		</g>
																	</g>
																</g>
															</g>
														</g>
													</g>
												</g>
											</g>
										</g>
									</g>
								</g>
							</g>
						</g>
					</g>
				</g>
			</g>
		</g>
	</g>
	<path class="st1" d="M25.994,20.051c-1.105,4.657-5.167,7.406-9.994,7.406c-4.808,0-8.89-2.738-9.995-7.406
		C5.796,19.2,6.643,18.48,7.3,18.971c1.911,1.429,5.147,2.062,8.7,2.062c3.554,0,6.789-0.633,8.7-2.062
		C25.357,18.48,26.204,19.2,25.994,20.051z"/>
	<path class="st4" d="M16,27.457c2.261,0,4.348-0.609,6.048-1.729C22.021,22.467,19.325,23.86,16,23.86
		c-3.325,0-6.02-1.393-6.047,1.867C11.656,26.848,13.745,27.457,16,27.457z"/>
	<path class="st3" d="M18.062,20.949l0.288,1.672c0.036,0.228,0.222,0.399,0.45,0.411c0.847,0.047,1.681-0.076,2.501-0.367
		c0.23-0.079,0.384-0.299,0.384-0.533l0.016-1.79C20.603,20.65,19.373,20.85,18.062,20.949z"/>
	<path class="st3" d="M10.015,20.267l0.362,1.73c0.045,0.229,0.245,0.355,0.463,0.422c0.862,0.266,5.182,0.918,5.987,0.653
		c0.225-0.071,0.371-0.286,0.362-0.519l-0.042-1.547c-0.378,0.015-0.76,0.026-1.147,0.026
		C13.803,21.032,11.731,20.789,10.015,20.267z"/>
	<g>
		<g>
			<path class="st1" d="M13.866,13.724c0.179,0.179,0.179,0.486,0,0.665l-1.279,1.279c-0.179,0.179-0.486,0.179-0.665,0
				l-1.552-1.552l-1.552,1.552c-0.179,0.179-0.486,0.179-0.665,0L6.873,14.39c-0.179-0.179-0.179-0.486,0-0.665l1.552-1.544
				l-1.552-1.552c-0.179-0.179-0.179-0.486,0-0.665l1.279-1.279c0.179-0.179,0.486-0.179,0.665,0l1.552,1.552l1.552-1.552
				c0.179-0.179,0.486-0.179,0.665,0l1.279,1.279c0.179,0.179,0.179,0.486,0,0.665l-1.552,1.552L13.866,13.724z"/>
		</g>
	</g>
	<g>
		<g>
			<path class="st1" d="M25.127,13.724c0.179,0.179,0.179,0.486,0,0.665l-1.279,1.279c-0.179,0.179-0.486,0.179-0.665,0
				l-1.552-1.552l-1.552,1.552c-0.179,0.179-0.486,0.179-0.665,0l-1.279-1.279c-0.179-0.179-0.179-0.486,0-0.665l1.552-1.544
				l-1.552-1.552c-0.179-0.179-0.179-0.486,0-0.665l1.279-1.279c0.179-0.179,0.486-0.179,0.665,0l1.552,1.552l1.552-1.552
				c0.179-0.179,0.486-0.179,0.665,0l1.279,1.279c0.179,0.179,0.179,0.486,0,0.665l-1.552,1.552L25.127,13.724z"/>
		</g>
	</g>
</g>
</svg>
