<?xml version="1.0" encoding="utf-8"?>
<!-- Generator: Adobe Illustrator 21.1.0, SVG Export Plug-In . SVG Version: 6.00 Build 0)  -->
<svg version="1.1" id="Layer_1" xmlns="http://www.w3.org/2000/svg" xmlns:xlink="http://www.w3.org/1999/xlink" x="0px" y="0px"
	 viewBox="0 0 32 32" style="enable-background:new 0 0 32 32;" xml:space="preserve">
<style type="text/css">
	.st0{fill:#FFD93B;}
	.st1{fill:#3E4347;}
	.st2{fill:#F4C534;}
	.st3{fill:#38C0DC;}
	.st4{fill:#45CBEA;}
	.st5{fill:#FFFFFF;}
	.st6{fill:#E24B4B;}
	.st7{fill:#5A5F63;}
	.st8{opacity:0.3;}
	.st9{opacity:0.2;}
	.st10{opacity:0.1;}
	.st11{fill:#E9B02C;}
	.st12{fill:#65B1EF;}
	.st13{fill:#E9EFF4;}
	.st14{fill:#8CC63E;}
	.st15{fill:#7FB239;}
	.st16{fill:#D03F3F;}
	.st17{fill:#D23F77;}
	.st18{fill:#E84D88;}
	.st19{fill:#59A5E0;}
	.st20{fill:#DEE4E9;}
	.st21{fill:#D3D9DD;}
	.st22{opacity:0.25;fill:#FFFFFF;}
	.st23{fill:#9A795F;}
	.st24{fill:#F29A2E;}
	.st25{fill:#FC97B2;}
	.st26{fill:#89664C;}
	.st27{fill:#7A5B44;}
	.st28{opacity:0.2;fill:#FFFFFF;}
	.st29{fill:#4E99D2;}
	.st30{fill:#BBC7D1;}
	.st31{fill:#DE9C25;}
</style>
<g>
	<path class="st12" d="M30.623,4.083c-0.346,0-0.631-0.26-0.67-0.595C29.429,2.857,24.778,1.67,16.001,1.67S2.574,2.857,2.05,3.488
		C2.011,3.823,1.726,4.083,1.38,4.083c-0.373,0-0.675-0.302-0.675-0.675c0-3.001,13.73-3.088,15.296-3.088
		s15.297,0.086,15.297,3.088C31.298,3.781,30.996,4.083,30.623,4.083z M29.948,3.408L29.948,3.408
		C29.948,3.409,29.948,3.409,29.948,3.408z M2.055,3.408L2.055,3.408C2.055,3.409,2.055,3.409,2.055,3.408z"/>
	<g>
		<g>
			<g>
				<g>
					<g>
						<g>
							<g>
								<g>
									<g>
										<g>
											<g>
												<circle class="st0" cx="16" cy="16" r="16"/>
											</g>
										</g>
									</g>
								</g>
							</g>
						</g>
					</g>
				</g>
			</g>
			<g>
				<g>
					<g>
						<g>
							<g>
								<g>
									<g>
										<g>
											<g>
												<path class="st2" d="M32,16c0,8.84-7.165,16-16,16c-5.03,0-9.52-2.32-12.455-5.955c2.745,2.22,6.24,3.545,10.045,3.545
													c8.835,0,16-7.16,16-16c0-3.805-1.325-7.3-3.545-10.045C29.675,6.48,32,10.97,32,16z"/>
											</g>
										</g>
									</g>
								</g>
							</g>
						</g>
					</g>
				</g>
			</g>
		</g>
	</g>
	<path class="st12" d="M16.001,6.503c-1.565,0-15.296-0.086-15.296-3.095c0-0.373,0.302-0.675,0.675-0.675
		c0.346,0,0.631,0.26,0.67,0.595c0.523,0.633,5.174,1.825,13.951,1.825s13.428-1.192,13.952-1.825
		c0.039-0.335,0.324-0.595,0.67-0.595c0.373,0,0.675,0.302,0.675,0.675C31.298,6.416,17.566,6.503,16.001,6.503z M29.948,3.407
		L29.948,3.407C29.948,3.408,29.948,3.408,29.948,3.407z M2.055,3.407L2.055,3.407C2.055,3.408,2.055,3.408,2.055,3.407z"/>
	<path class="st5" d="M14.554,14.659c0,2.663-2.165,4.828-4.839,4.828c-2.674,0-4.839-2.165-4.839-4.828
		c0-2.674,2.165-4.839,4.839-4.839C12.39,9.82,14.554,11.985,14.554,14.659z"/>
	<path class="st1" d="M12.032,14.659c0,1.267-1.039,2.306-2.316,2.306c-1.277,0-2.317-1.039-2.317-2.306
		c0-1.277,1.039-2.316,2.317-2.316C10.993,12.342,12.032,13.381,12.032,14.659z"/>
	<path class="st5" d="M10.961,14.301c-0.173,0.173-0.509,0.108-0.758-0.141c-0.238-0.249-0.303-0.585-0.141-0.758
		c0.173-0.162,0.509-0.097,0.758,0.152C11.069,13.803,11.134,14.139,10.961,14.301z"/>
	<path class="st5" d="M27.123,14.659c0,2.663-2.165,4.828-4.839,4.828c-2.674,0-4.839-2.165-4.839-4.828
		c0-2.674,2.165-4.839,4.839-4.839C24.958,9.82,27.123,11.985,27.123,14.659z"/>
	<path class="st1" d="M24.601,14.659c0,1.267-1.039,2.306-2.316,2.306c-1.277,0-2.317-1.039-2.317-2.306
		c0-1.277,1.039-2.316,2.317-2.316C23.562,12.342,24.601,13.381,24.601,14.659z"/>
	<path class="st5" d="M23.529,14.301c-0.173,0.173-0.509,0.108-0.758-0.141c-0.238-0.249-0.303-0.585-0.141-0.758
		c0.173-0.162,0.509-0.097,0.758,0.152C23.637,13.803,23.702,14.139,23.529,14.301z"/>
	<path class="st1" d="M24.026,22.859c-1.658,3.37-4.621,5.616-8.023,5.616c-3.402,0-6.376-2.246-8.034-5.616
		c-0.225-0.46,0.15-0.984,0.663-0.92c4.91,0.62,9.82,0.62,14.741,0C23.887,21.875,24.261,22.399,24.026,22.859z"/>
	<path class="st5" d="M8.874,21.966c1.548,2.128,4.16,2.467,7.124,2.467c2.964,0,5.58-0.339,7.127-2.466
		C18.368,22.546,13.621,22.546,8.874,21.966z"/>
	<path class="st6" d="M12.141,27.426c1.18,0.664,2.482,1.049,3.862,1.049c1.38,0,2.681-0.385,3.858-1.049
		c-0.491-1.457-2.026-1.326-3.861-1.326C14.164,26.099,12.632,25.969,12.141,27.426z"/>
</g>
</svg>
