<?xml version="1.0" encoding="utf-8"?>
<!-- Generator: Adobe Illustrator 21.1.0, SVG Export Plug-In . SVG Version: 6.00 Build 0)  -->
<svg version="1.1" id="Layer_1" xmlns="http://www.w3.org/2000/svg" xmlns:xlink="http://www.w3.org/1999/xlink" x="0px" y="0px"
	 viewBox="0 0 32 32" style="enable-background:new 0 0 32 32;" xml:space="preserve">
<style type="text/css">
	.st0{fill:#FFD93B;}
	.st1{fill:#3E4347;}
	.st2{fill:#F4C534;}
	.st3{fill:#38C0DC;}
	.st4{fill:#45CBEA;}
	.st5{fill:#FFFFFF;}
	.st6{fill:#E24B4B;}
	.st7{fill:#5A5F63;}
	.st8{opacity:0.3;}
	.st9{opacity:0.2;}
	.st10{opacity:0.1;}
	.st11{fill:#E9B02C;}
	.st12{fill:#65B1EF;}
	.st13{fill:#E9EFF4;}
	.st14{fill:#8CC63E;}
	.st15{fill:#7FB239;}
	.st16{fill:#D03F3F;}
	.st17{fill:#D23F77;}
	.st18{fill:#E84D88;}
	.st19{fill:#59A5E0;}
	.st20{fill:#DEE4E9;}
	.st21{fill:#D3D9DD;}
	.st22{opacity:0.25;fill:#FFFFFF;}
	.st23{fill:#9A795F;}
	.st24{fill:#F29A2E;}
	.st25{fill:#FC97B2;}
	.st26{fill:#89664C;}
	.st27{fill:#7A5B44;}
	.st28{opacity:0.2;fill:#FFFFFF;}
	.st29{fill:#4E99D2;}
	.st30{fill:#BBC7D1;}
	.st31{fill:#DE9C25;}
</style>
<g>
	<g>
		<g>
			<g>
				<g>
					<g>
						<g>
							<g>
								<g>
									<g>
										<g>
											<g>
												<g>
													<g>
														<g>
															<g>
																<g>
																	<g>
																		<g>
																			<g>
																				<circle class="st0" cx="16" cy="16" r="16"/>
																			</g>
																		</g>
																	</g>
																</g>
															</g>
														</g>
													</g>
												</g>
											</g>
											<g>
												<g>
													<g>
														<g>
															<g>
																<g>
																	<g>
																		<g>
																			<g>
																				<path class="st2" d="M32,16c0,8.84-7.165,16-16,16c-5.03,0-9.52-2.32-12.455-5.955
																					c2.745,2.22,6.24,3.545,10.045,3.545c8.835,0,16-7.16,16-16c0-3.805-1.325-7.3-3.545-10.045
																					C29.675,6.48,32,10.97,32,16z"/>
																			</g>
																		</g>
																	</g>
																</g>
															</g>
														</g>
													</g>
												</g>
											</g>
										</g>
									</g>
								</g>
							</g>
						</g>
					</g>
				</g>
			</g>
		</g>
	</g>
	<g>
		<g>
			<path class="st1" d="M21.877,24.37c-0.157,2.188-2.727,3.937-5.877,3.937c-3.15,0-5.727-1.749-5.876-3.937
				C14.037,20.325,17.957,20.334,21.877,24.37z"/>
		</g>
		<g>
			<g>
				<path class="st27" d="M26.137,23.13c-1.936,2.459-6.383,1.948-7.249,1.674c-1.375-0.432-2.327-1.127-2.889-1.889
					c-0.561,0.762-1.516,1.457-2.891,1.889c-0.863,0.274-5.31,0.785-7.246-1.674c0.238,0.111,2.709,0.667,3.676-0.186
					c0.436-0.384,0.707-0.915,1.014-1.408c1.858-3.009,4.322-2.926,5.447-1.799c1.125-1.127,3.589-1.21,5.447,1.799
					c0.307,0.493,0.578,1.023,1.014,1.408C23.428,23.798,25.899,23.241,26.137,23.13z"/>
			</g>
		</g>
		<path class="st6" d="M16.004,28.309c1.093,0,2.113-0.215,2.991-0.581c-0.057-0.541-0.249-1.042-0.556-1.46
			c-0.493-0.67-1.398-0.892-2.169-0.582c-0.443,0.177-0.923,0.266-1.398,0.272c-0.86,0.013-1.625,0.582-1.821,1.423
			c-0.025,0.113-0.031,0.231-0.043,0.347C13.887,28.095,14.909,28.309,16.004,28.309z"/>
	</g>
	<g>
		<g>
			<g>
				<path class="st5" d="M29.66,12.776c-0.011,1.92-0.899,3.708-2.375,4.796l-0.011,0.011c-1.021,0.71-2.187,1.088-3.375,1.088
					c-0.333,0-0.666-0.033-0.999-0.089c-1.554-0.289-2.92-1.177-3.841-2.52c-1.932-2.842-0.966-5.872,0.855-7.615
					c1.765-1.687,4.729-2.509,7.371-0.533C28.805,9.057,29.671,10.833,29.66,12.776z"/>
				<path class="st5" d="M12.098,8.457c1.81,1.732,2.786,4.762,0.844,7.604c-0.921,1.343-2.287,2.231-3.841,2.52
					c-0.333,0.055-0.666,0.089-1.01,0.089c-1.177,0-2.342-0.377-3.364-1.088c-1.488-1.099-2.376-2.886-2.387-4.807
					c-0.011-1.943,0.855-3.719,2.376-4.862C7.369,5.938,10.333,6.759,12.098,8.457z"/>
			</g>
		</g>
		<g>
			<path class="st1" d="M27.961,6.859C25,4.73,21.514,5.467,19.411,7.296c-0.893,0.777-2.01,1.251-3.193,1.192
				c-0.147-0.007-0.294-0.007-0.441,0c-1.18,0.06-2.295-0.414-3.186-1.19c-2.1-1.829-5.589-2.57-8.553-0.439
				c-3.819,2.82-3.774,8.67,0.333,11.278c2.997,1.887,6.938,1.354,9.192-1.676c0.801-1.095,1.196-2.305,1.286-3.485
				c0.046-0.595,0.543-1.056,1.139-1.058c0.008,0,0.016,0,0.024,0c0.596,0.002,1.093,0.461,1.139,1.055
				c0.092,1.181,0.492,2.392,1.285,3.488c2.254,3.031,6.194,3.563,9.192,1.676C31.735,15.529,31.78,9.678,27.961,6.859z
				 M12.739,15.928c-1.751,2.55-5.182,3.349-7.873,1.457c-2.985-2.197-3.091-6.956,0-9.283C9.802,4.424,16.276,10.734,12.739,15.928
				z M27.116,17.36c-2.676,1.882-6.089,1.087-7.83-1.449c-3.506-5.165,2.922-11.441,7.83-7.783
				C30.189,10.441,30.084,15.174,27.116,17.36z"/>
		</g>
		<g>
			<g>
				<path class="st1" d="M10.953,13.464c0,1.465-1.185,2.651-2.651,2.651c-1.455,0-2.641-1.186-2.641-2.651
					c0-1.465,1.185-2.651,2.641-2.651C9.768,10.813,10.953,11.999,10.953,13.464z"/>
			</g>
			<g>
				
					<ellipse transform="matrix(0.7071 -0.7071 0.7071 0.7071 -6.1568 10.2015)" class="st5" cx="9.236" cy="12.533" rx="0.519" ry="0.774"/>
			</g>
		</g>
		<g>
			<g>
				<path class="st1" d="M26.475,13.464c0,1.465-1.185,2.651-2.651,2.651c-1.455,0-2.641-1.186-2.641-2.651
					c0-1.465,1.185-2.651,2.641-2.651C25.29,10.813,26.475,11.999,26.475,13.464z"/>
			</g>
			<g>
				
					<ellipse transform="matrix(0.7071 -0.7071 0.7071 0.7071 -1.6104 21.1773)" class="st5" cx="24.758" cy="12.533" rx="0.519" ry="0.774"/>
			</g>
		</g>
	</g>
</g>
</svg>
