<?xml version="1.0" encoding="utf-8"?>
<!-- Generator: Adobe Illustrator 21.1.0, SVG Export Plug-In . SVG Version: 6.00 Build 0)  -->
<svg version="1.1" id="Layer_1" xmlns="http://www.w3.org/2000/svg" xmlns:xlink="http://www.w3.org/1999/xlink" x="0px" y="0px"
	 viewBox="0 0 32 32" style="enable-background:new 0 0 32 32;" xml:space="preserve">
<style type="text/css">
	.st0{fill:#FFD93B;}
	.st1{fill:#3E4347;}
	.st2{fill:#F4C534;}
	.st3{fill:#FFFFFF;}
	.st4{fill:#E24B4B;}
	.st5{opacity:0.2;}
	.st6{opacity:0.3;}
	.st7{fill:#5A5F63;}
	.st8{fill:#D03F3F;}
	.st9{fill:#E9EFF4;}
	.st10{fill:#DEE4E9;}
	.st11{fill:#777B7E;}
	.st12{fill:#45CBEA;}
	.st13{fill:#E84D88;}
	.st14{opacity:0.25;}
	.st15{fill:#E9B02C;}
	.st16{fill:none;stroke:#E9B02C;stroke-width:2;stroke-linecap:round;stroke-linejoin:round;stroke-miterlimit:10;}
	.st17{fill:#65B1EF;}
	.st18{fill:#F29A2E;}
	.st19{fill:#59A5E0;}
	.st20{fill:#4E99D2;}
	.st21{opacity:0.15;}
	.st22{fill:#8CC63E;}
	.st23{opacity:0.25;fill:#FFFFFF;}
	.st24{fill:#38C0DC;}
	.st25{fill:#D23F77;}
	.st26{fill:#DAE5EF;}
	.st27{fill:#373C3F;}
	.st28{fill:#BF3333;}
	.st29{opacity:0.2;fill:#FFFFFF;}
	.st30{opacity:0.3;fill:#FFFFFF;}
	.st31{fill:#7FB239;}
</style>
<g>
	<g>
		<g>
			<g>
				<g>
					<g>
						<g>
							<g>
								<g>
									<g>
										<g>
											<g>
												<g>
													<g>
														<g>
															<g>
																<g>
																	<g>
																		<g>
																			<g>
																				<g>
																					<g>
																						<g>
																							<circle class="st0" cx="16" cy="16" r="16"/>
																						</g>
																					</g>
																				</g>
																			</g>
																		</g>
																	</g>
																	<g>
																		<path class="st1" d="M16.002,28.246c-5.44,0.012-6.93-4.657-6.23-5.185c0.61-0.59,2.71,2.224,6.2,2.224
																			c3.46,0,5.65-2.814,6.26-2.224C22.922,23.601,21.442,28.258,16.002,28.246z"/>
																	</g>
																	<g>
																		<g>
																			<g>
																				<g>
																					<g>
																						<g>
																							<path class="st2" d="M32,16c0,8.84-7.165,16-16,16c-5.03,0-9.52-2.32-12.455-5.955
																								c2.745,2.22,6.24,3.545,10.045,3.545c8.835,0,16-7.16,16-16c0-3.805-1.325-7.3-3.545-10.045
																								C29.675,6.48,32,10.97,32,16z"/>
																						</g>
																					</g>
																				</g>
																			</g>
																		</g>
																	</g>
																</g>
															</g>
														</g>
													</g>
												</g>
											</g>
										</g>
									</g>
								</g>
							</g>
						</g>
					</g>
				</g>
			</g>
		</g>
	</g>
	<g>
		<path class="st1" d="M25.69,19.189c-0.618,4.024-8.792,4.599-9.679,3.101c-0.991,1.487-9.073,0.91-9.701-3.101
			c0.653,0.864,1.838,1.373,2.924,1.44c2.314,0.155,2.979-1.617,4.086-2.193c0.908-0.465,2.104-0.078,2.691,0.974
			c0.565-1.052,1.772-1.439,2.669-0.974c1.107,0.576,1.783,2.347,4.097,2.193C23.851,20.562,25.047,20.053,25.69,19.189z"/>
	</g>
	<g>
		<g>
			<g>
				<circle class="st3" cx="22.855" cy="11.991" r="5.22"/>
			</g>
			<g>
				<g>
					<circle class="st1" cx="22.855" cy="11.99" r="2.56"/>
				</g>
				<g>
					<path class="st3" d="M21.355,11.581c0.18,0.17,0.56,0.08,0.86-0.22c0.3-0.29,0.39-0.68,0.21-0.85
						c-0.17-0.18-0.56-0.09-0.85,0.21C21.275,11.011,21.185,11.401,21.355,11.581z"/>
				</g>
			</g>
		</g>
		<g>
			<path class="st1" d="M28.236,5.691c-2.361-2.133-4.421-3.396-7.099-3.139C21.138,2.552,25.415-2.167,28.236,5.691z"/>
		</g>
	</g>
	<g>
		<g>
			<g>
				<circle class="st3" cx="9.145" cy="11.991" r="5.22"/>
			</g>
			<g>
				<g>
					<circle class="st1" cx="9.145" cy="11.99" r="2.56"/>
				</g>
				<g>
					<path class="st3" d="M10.645,11.581c-0.18,0.17-0.56,0.08-0.86-0.22c-0.3-0.29-0.39-0.68-0.21-0.85
						c0.17-0.18,0.56-0.09,0.85,0.21C10.725,11.011,10.815,11.401,10.645,11.581z"/>
				</g>
			</g>
		</g>
		<g>
			<path class="st1" d="M3.764,5.691c2.361-2.133,4.421-3.396,7.099-3.139C10.862,2.552,6.585-2.167,3.764,5.691z"/>
		</g>
	</g>
</g>
</svg>
