<?xml version="1.0" encoding="utf-8"?>
<!-- Generator: Adobe Illustrator 21.1.0, SVG Export Plug-In . SVG Version: 6.00 Build 0)  -->
<svg version="1.1" id="Layer_1" xmlns="http://www.w3.org/2000/svg" xmlns:xlink="http://www.w3.org/1999/xlink" x="0px" y="0px"
	 viewBox="0 0 32 32" style="enable-background:new 0 0 32 32;" xml:space="preserve">
<style type="text/css">
	.st0{fill:#FFD93B;}
	.st1{fill:#F4C534;}
	.st2{fill:#3E4347;}
	.st3{fill:#FFFFFF;}
	.st4{fill:#5A5F63;}
	.st5{fill:#32373A;}
	.st6{fill:#E24B4B;}
	.st7{fill:#D03F3F;}
	.st8{opacity:0.2;}
	.st9{opacity:0.3;}
	.st10{fill:#AD2727;}
	.st11{fill:#E9EFF4;}
	.st12{fill:#DEE4E9;}
	.st13{fill:#65B1EF;}
	.st14{fill:#4E99D2;}
	.st15{opacity:0.25;}
	.st16{fill:#719D34;}
	.st17{fill:#38C0DC;}
	.st18{fill:#303538;}
	.st19{fill:#777B7E;}
	.st20{opacity:0.2;fill:#FFFFFF;}
	.st21{fill:#DE9C25;}
	.st22{fill:#45CBEA;}
	.st23{fill:#7A5B44;}
	.st24{fill:#8CC63E;}
</style>
<g>
	<g>
		<g>
			<g>
				<g>
					<g>
						<g>
							<g>
								<g>
									<g>
										<g>
											<g>
												<g>
													<g>
														<g>
															<g>
																<g>
																	<circle class="st0" cx="16" cy="16" r="16"/>
																</g>
															</g>
														</g>
													</g>
												</g>
											</g>
											<g>
												<g>
													<g>
														<g>
															<g>
																<g>
																	<path class="st1" d="M32,16c0,8.84-7.165,16-16,16c-5.03,0-9.52-2.32-12.455-5.955
																		c2.745,2.22,6.24,3.545,10.045,3.545c8.835,0,16-7.16,16-16c0-3.805-1.325-7.3-3.545-10.045
																		C29.675,6.48,32,10.97,32,16z"/>
																</g>
															</g>
														</g>
													</g>
												</g>
											</g>
										</g>
									</g>
								</g>
							</g>
						</g>
					</g>
				</g>
			</g>
		</g>
	</g>
	<g>
		<g>
			<circle class="st1" cx="8.783" cy="14.956" r="6.153"/>
		</g>
		<g>
			<path class="st3" d="M14.05,14.958c-0.162,2.927-2.65,5.298-5.559,5.298c-2.908,0-5.143-2.372-4.981-5.298
				c0.162-2.927,2.66-5.307,5.568-5.307S14.212,12.031,14.05,14.958z"/>
		</g>
		<g>
			<g>
				<path class="st2" d="M11.277,13.499c0.006,1.379-1.117,2.502-2.496,2.496c-1.379,0.006-2.502-1.118-2.496-2.497
					c-0.006-1.379,1.117-2.502,2.496-2.496C10.16,10.997,11.283,12.12,11.277,13.499z"/>
			</g>
			<g>
				
					<ellipse transform="matrix(0.7071 -0.7071 0.7071 0.7071 -6.0578 10.5423)" class="st3" cx="9.698" cy="12.584" rx="0.478" ry="0.745"/>
			</g>
		</g>
	</g>
	<g>
		<path class="st2" d="M9.697,4.558c0,0-3.251-0.457-6.664,3.494C3.033,8.052,5.24,0.975,9.697,4.558z"/>
	</g>
	<g>
		<g>
			<circle class="st1" cx="23.217" cy="14.956" r="6.153"/>
		</g>
		<g>
			<path class="st3" d="M17.95,14.958c0.162,2.927,2.65,5.298,5.559,5.298c2.908,0,5.143-2.372,4.981-5.298
				c-0.162-2.927-2.66-5.307-5.568-5.307S17.788,12.031,17.95,14.958z"/>
		</g>
		<g>
			<g>
				<path class="st2" d="M20.723,13.499c-0.006,1.379,1.117,2.502,2.496,2.496c1.379,0.006,2.503-1.118,2.497-2.497
					c0.006-1.379-1.117-2.502-2.496-2.496C21.84,10.997,20.717,12.12,20.723,13.499z"/>
			</g>
			<g>
				
					<ellipse transform="matrix(0.7071 -0.7071 0.7071 0.7071 -2.3661 19.456)" class="st3" cx="22.302" cy="12.584" rx="0.745" ry="0.478"/>
			</g>
		</g>
	</g>
	<g>
		<path class="st2" d="M22.303,4.558c0,0,3.251-0.457,6.664,3.494C28.967,8.052,26.76,0.975,22.303,4.558z"/>
	</g>
	<path class="st2" d="M19.717,25.205c-0.283,2.053-0.796,2.967-2.531,3.266c-1.699,0.298-2.77-0.695-3.357-3.265
		c-0.548-2.402,0.945-3.334,2.529-3.274C17.918,21.992,19.801,22.467,19.717,25.205z"/>
	<path class="st6" d="M25.413,24.529v3.472c0,0.56-0.488,1.012-1.092,1.012c-0.604,0-1.092-0.451-1.092-1.012
		c0-0.553,0.488-1.004,1.092-1.004c0.138,0,0.277,0.022,0.4,0.073v-1.441l-2.482,0.306v2.613c0,0.561-0.488,1.012-1.092,1.012
		c-0.604,0-1.092-0.451-1.092-1.012c0-0.553,0.488-1.004,1.092-1.004c0.138,0,0.277,0.022,0.4,0.073V24.9
		c0-0.204,0.153-0.378,0.357-0.4l3.057-0.371C25.202,24.099,25.413,24.281,25.413,24.529z"/>
	<path class="st6" d="M29.329,19.983v2.538c0,0.41-0.356,0.74-0.798,0.74c-0.442,0-0.798-0.33-0.798-0.74
		c0-0.405,0.356-0.734,0.798-0.734c0.101,0,0.202,0.016,0.293,0.053v-1.054L27.01,21.01v1.91c0,0.41-0.357,0.74-0.798,0.74
		c-0.441,0-0.798-0.33-0.798-0.74c0-0.404,0.357-0.734,0.798-0.734c0.101,0,0.202,0.016,0.293,0.053v-1.985
		c0-0.149,0.112-0.276,0.261-0.293l2.235-0.271C29.175,19.67,29.329,19.803,29.329,19.983z"/>
</g>
</svg>
