<?xml version="1.0" encoding="utf-8"?>
<!-- Generator: Adobe Illustrator 21.1.0, SVG Export Plug-In . SVG Version: 6.00 Build 0)  -->
<svg version="1.1" id="Layer_1" xmlns="http://www.w3.org/2000/svg" xmlns:xlink="http://www.w3.org/1999/xlink" x="0px" y="0px"
	 viewBox="0 0 32 32" style="enable-background:new 0 0 32 32;" xml:space="preserve">
<style type="text/css">
	.st0{fill:#FFD93B;}
	.st1{fill:#F4C534;}
	.st2{fill:#3E4347;}
	.st3{fill:#FFFFFF;}
	.st4{fill:#5A5F63;}
	.st5{fill:#32373A;}
	.st6{fill:#E24B4B;}
	.st7{fill:#D03F3F;}
	.st8{opacity:0.2;}
	.st9{opacity:0.3;}
	.st10{fill:#AD2727;}
	.st11{fill:#E9EFF4;}
	.st12{fill:#DEE4E9;}
	.st13{fill:#65B1EF;}
	.st14{fill:#4E99D2;}
	.st15{opacity:0.25;}
	.st16{fill:#719D34;}
	.st17{fill:#38C0DC;}
	.st18{fill:#303538;}
	.st19{fill:#777B7E;}
	.st20{opacity:0.2;fill:#FFFFFF;}
	.st21{fill:#DE9C25;}
	.st22{fill:#45CBEA;}
	.st23{fill:#7A5B44;}
	.st24{fill:#8CC63E;}
</style>
<g>
	<g>
		<circle class="st0" cx="16" cy="16" r="16"/>
	</g>
	<g>
		<path class="st1" d="M32,16c0,8.84-7.165,16-16,16c-5.03,0-9.52-2.32-12.455-5.955c2.745,2.22,6.24,3.545,10.045,3.545
			c8.835,0,16-7.16,16-16c0-3.805-1.325-7.3-3.545-10.045C29.675,6.48,32,10.97,32,16z"/>
	</g>
	<g>
		<path class="st3" d="M14.715,13.852c0,2.738-2.214,4.961-4.961,4.961c-2.737,0-4.961-2.223-4.961-4.961
			c0-2.747,2.224-4.97,4.961-4.97C12.501,8.882,14.715,11.105,14.715,13.852z"/>
	</g>
	<g>
		<path class="st3" d="M27.211,13.852c0,2.738-2.214,4.961-4.961,4.961c-2.737,0-4.961-2.223-4.961-4.961
			c0-2.747,2.224-4.97,4.961-4.97C24.997,8.882,27.211,11.105,27.211,13.852z"/>
	</g>
	<g>
		<path class="st2" d="M30.329,13.097H27.86c-0.37-2.771-2.743-4.915-5.609-4.915c-2.122,0-3.972,1.176-4.94,2.91
			c-0.263,0.471-0.76,0.745-1.299,0.742c-0.003,0-0.006,0-0.01,0c-0.005,0-0.009,0-0.014,0.001c-0.537,0.004-1.032-0.272-1.293-0.74
			c-0.968-1.735-2.818-2.912-4.94-2.912c-2.866,0-5.234,2.145-5.605,4.915H1.671v1.5h2.494c0.348,2.588,2.451,4.671,5.1,4.895
			c3.352,0.284,6.215-2.389,6.144-5.759c0.057-0.282,0.294-0.498,0.592-0.498c0.304,0,0.586,0.219,0.586,0.617
			c0,3.268,2.785,5.899,6.106,5.644c2.658-0.204,4.802-2.283,5.148-4.899h2.486V13.097z M9.754,18.112
			c-2.349,0-4.261-1.912-4.261-4.26c0-2.354,1.911-4.269,4.261-4.269c2.349,0,4.26,1.915,4.26,4.269
			C14.014,16.2,12.103,18.112,9.754,18.112z M22.25,18.112c-2.349,0-4.261-1.912-4.261-4.26c0-2.354,1.911-4.269,4.261-4.269
			c2.349,0,4.26,1.915,4.26,4.269C26.51,16.2,24.599,18.112,22.25,18.112z"/>
	</g>
	<g>
		<path class="st2" d="M22.897,14.65c0,1.043-0.839,1.902-1.895,1.902c-1.043,0-1.895-0.859-1.895-1.902
			c0-1.049,0.853-1.909,1.895-1.909C22.058,12.741,22.897,13.6,22.897,14.65z"/>
	</g>
	<g>
		
			<ellipse transform="matrix(0.7071 -0.7071 0.7071 0.7071 -3.5467 19.4114)" class="st3" cx="21.66" cy="13.987" rx="0.432" ry="0.625"/>
	</g>
	<g>
		<path class="st2" d="M12.897,14.65c0,1.043-0.839,1.902-1.895,1.902c-1.043,0-1.895-0.859-1.895-1.902
			c0-1.049,0.853-1.909,1.895-1.909C12.058,12.741,12.897,13.6,12.897,14.65z"/>
	</g>
	<g>
		
			<ellipse transform="matrix(0.7071 -0.7071 0.7071 0.7071 -6.4752 12.3407)" class="st3" cx="11.66" cy="13.987" rx="0.432" ry="0.625"/>
	</g>
	<g>
		<path class="st2" d="M17.26,8.494c2.664-1.488,5.758-2.475,9.14-2.726c-0.452-0.785-0.94-1.561-1.464-2.32
			C21.974,4.676,19.389,6.422,17.26,8.494z"/>
	</g>
	<g>
		<path class="st2" d="M14.747,8.504C12.08,7.029,8.986,6.029,5.59,5.738c0.449-0.794,0.935-1.576,1.458-2.341
			C10.025,4.672,12.614,6.439,14.747,8.504z"/>
	</g>
	<g>
		<path class="st2" d="M8.291,24.781c-0.205-0.186-0.221-0.501-0.036-0.706c0.11-0.122,1.104-1.186,2.217-1.186
			c0.684,0,1.037,0.391,1.295,0.676c0.222,0.246,0.322,0.346,0.552,0.346c0.229,0,0.328-0.1,0.55-0.346
			c0.793-0.878,1.722-0.956,2.585,0c0.397,0.439,0.642,0.509,1.1,0c0.793-0.878,1.723-0.956,2.585,0c0.4,0.443,0.644,0.506,1.101,0
			c1.092-1.21,2.51-0.592,3.506,0.511c0.185,0.205,0.168,0.521-0.036,0.705c-0.205,0.186-0.521,0.169-0.706-0.034
			c-0.217-0.238-0.904-0.857-1.472-0.857c-0.229,0-0.328,0.1-0.55,0.346c-0.793,0.878-1.722,0.956-2.585,0
			c-0.4-0.443-0.644-0.506-1.1,0c-0.78,0.866-1.713,0.966-2.585,0c-0.4-0.443-0.644-0.506-1.101,0
			c-0.257,0.285-0.609,0.676-1.293,0.676c-0.684,0-1.036-0.391-1.294-0.676c-0.222-0.246-0.322-0.346-0.552-0.346
			c-0.572,0-1.274,0.635-1.475,0.856C8.812,24.95,8.496,24.966,8.291,24.781z"/>
	</g>
</g>
</svg>
