<?xml version="1.0" encoding="utf-8"?>
<!-- Generator: Adobe Illustrator 21.1.0, SVG Export Plug-In . SVG Version: 6.00 Build 0)  -->
<svg version="1.1" id="Layer_1" xmlns="http://www.w3.org/2000/svg" xmlns:xlink="http://www.w3.org/1999/xlink" x="0px" y="0px"
	 viewBox="0 0 32 32" style="enable-background:new 0 0 32 32;" xml:space="preserve">
<style type="text/css">
	.st0{fill:#FFD93B;}
	.st1{fill:#F4C534;}
	.st2{fill:#3E4347;}
	.st3{fill:#FFFFFF;}
	.st4{fill:#5A5F63;}
	.st5{fill:#32373A;}
	.st6{fill:#E24B4B;}
	.st7{fill:#D03F3F;}
	.st8{opacity:0.2;}
	.st9{opacity:0.3;}
	.st10{fill:#AD2727;}
	.st11{fill:#E9EFF4;}
	.st12{fill:#DEE4E9;}
	.st13{fill:#65B1EF;}
	.st14{fill:#4E99D2;}
	.st15{opacity:0.25;}
	.st16{fill:#719D34;}
	.st17{fill:#38C0DC;}
	.st18{fill:#303538;}
	.st19{fill:#777B7E;}
	.st20{opacity:0.2;fill:#FFFFFF;}
	.st21{fill:#DE9C25;}
	.st22{fill:#45CBEA;}
	.st23{fill:#7A5B44;}
	.st24{fill:#8CC63E;}
</style>
<g>
	<circle class="st0" cx="16" cy="16" r="16"/>
	<path class="st1" d="M32,16c0,8.84-7.165,16-16,16c-5.03,0-9.52-2.32-12.455-5.955c2.745,2.22,6.24,3.545,10.045,3.545
		c8.835,0,16-7.16,16-16c0-3.805-1.325-7.3-3.545-10.045C29.675,6.48,32,10.97,32,16z"/>
	<path class="st13" d="M19.03,13.619c0.378,3.024,3.071,5.484,6.013,5.484c2.942,0,5.011-2.46,4.633-5.484
		c-0.379-3.034-3.063-5.493-6.005-5.493C20.729,8.125,18.651,10.585,19.03,13.619z"/>
	<path class="st2" d="M24.956,21.714c-1.363,3.437-4.447,6.079-8.356,6.698C9.767,29.492,3.943,24.004,4.1,17.504
		c0.02-0.757,0.988-1.04,1.449-0.444c3.969,5.136,12.511,6.758,18.269,3.66C24.474,20.368,25.234,21.023,24.956,21.714z"/>
	<path class="st3" d="M7.897,19.325L7.858,22.04c0.007,0.11,0.054,0.214,0.146,0.281c0.27,0.17,0.855,0.543,1.489,0.838
		c0.197,0.09,0.42-0.036,0.457-0.244l0.369-2.139C9.456,20.371,8.647,19.882,7.897,19.325z"/>
	<path class="st3" d="M15.799,22.218l0.135,3.058c0.013,0.237,0.307,0.448,0.607,0.416c0.965-0.105,1.876-0.312,2.296-0.405
		c0.144-0.041,0.232-0.138,0.264-0.254l0.477-2.936C18.34,22.289,17.067,22.327,15.799,22.218z"/>
	<path class="st1" d="M17.164,10.313c0,3.32-2.7,6.02-6.03,6.02c-3.33,0-6.02-2.7-6.02-6.02c0-3.33,2.69-6.03,6.02-6.03
		C14.464,4.283,17.164,6.982,17.164,10.313z"/>
	<path class="st3" d="M16.107,10.313c0,2.736-2.228,4.963-4.974,4.963c-2.746,0-4.964-2.228-4.964-4.963
		c0-2.746,2.218-4.974,4.964-4.974C13.879,5.339,16.107,7.567,16.107,10.313z"/>
	<path class="st1" d="M6.681,13.208c0.999,1.382,2.613,2.292,4.452,2.292c1.839,0,3.457-0.91,4.459-2.292H6.681z"/>
	<circle class="st2" cx="11.137" cy="10.309" r="2.177"/>
	
		<ellipse transform="matrix(0.7071 -0.7071 0.7071 0.7071 -3.2798 11.2047)" class="st3" cx="11.886" cy="9.562" rx="0.522" ry="0.682"/>
	<path class="st2" d="M16.604,5.563c0,0-2.78-3.19-11.1-2.03C6.264,3.283,17.014-0.078,16.604,5.563z"/>
	<path class="st1" d="M18.219,11.516c0,3.002,2.441,5.444,5.453,5.444s5.444-2.442,5.444-5.444c0-3.011-2.433-5.453-5.444-5.453
		S18.219,8.504,18.219,11.516z"/>
	<path class="st3" d="M19.174,11.515c0,2.474,2.015,4.488,4.497,4.488c2.483,0,4.489-2.015,4.489-4.488
		c0-2.483-2.006-4.497-4.489-4.497C21.189,7.018,19.174,9.033,19.174,11.515z"/>
	<path class="st2" d="M18.725,7.22c0,0,2.514-2.885,10.037-1.836C28.075,5.159,18.354,2.12,18.725,7.22z"/>
	<path class="st14" d="M27.974,14.933l-0.07,0.08c-1.05,1.27-2.59,2-4.23,2c-1.65,0-3.19-0.729-4.24-2l-0.07-0.08H27.974z"/>
	<circle class="st2" cx="23.665" cy="11.513" r="2.177"/>
	
		<ellipse transform="matrix(0.7071 -0.7071 0.7071 0.7071 -0.4614 20.4167)" class="st3" cx="24.414" cy="10.765" rx="0.522" ry="0.682"/>
</g>
</svg>
