<?xml version="1.0" encoding="utf-8"?>
<!-- Generator: Adobe Illustrator 21.1.0, SVG Export Plug-In . SVG Version: 6.00 Build 0)  -->
<svg version="1.1" id="Layer_1" xmlns="http://www.w3.org/2000/svg" xmlns:xlink="http://www.w3.org/1999/xlink" x="0px" y="0px"
	 viewBox="0 0 32 32" style="enable-background:new 0 0 32 32;" xml:space="preserve">
<style type="text/css">
	.st0{fill:#FFD93B;}
	.st1{fill:#F4C534;}
	.st2{fill:#3E4347;}
	.st3{fill:#FFFFFF;}
	.st4{fill:#5A5F63;}
	.st5{fill:#32373A;}
	.st6{fill:#E24B4B;}
	.st7{fill:#D03F3F;}
	.st8{opacity:0.2;}
	.st9{opacity:0.3;}
	.st10{fill:#AD2727;}
	.st11{fill:#E9EFF4;}
	.st12{fill:#DEE4E9;}
	.st13{fill:#65B1EF;}
	.st14{fill:#4E99D2;}
	.st15{opacity:0.25;}
	.st16{fill:#719D34;}
	.st17{fill:#38C0DC;}
	.st18{fill:#303538;}
	.st19{fill:#777B7E;}
	.st20{opacity:0.2;fill:#FFFFFF;}
	.st21{fill:#DE9C25;}
	.st22{fill:#45CBEA;}
	.st23{fill:#7A5B44;}
	.st24{fill:#8CC63E;}
</style>
<g>
	<circle class="st0" cx="16" cy="16" r="15.943"/>
	<path class="st1" d="M31.943,16c0,8.808-7.139,15.943-15.943,15.943c-5.012,0-9.486-2.312-12.411-5.934
		c2.735,2.212,6.218,3.532,10.009,3.532c8.803,0,15.943-7.134,15.943-15.943c0-3.791-1.32-7.274-3.532-10.009
		C29.626,6.514,31.943,10.988,31.943,16z"/>
	<g>
		<circle class="st3" cx="8.472" cy="13.253" r="5.741"/>
	</g>
	<g>
		<circle class="st3" cx="23.528" cy="13.253" r="5.741"/>
	</g>
	<path class="st24" d="M8.158,15.376v-1.883c-0.587-0.168-1.018-0.422-1.292-0.762c-0.274-0.34-0.411-0.753-0.411-1.238
		c0-0.491,0.155-0.904,0.465-1.238c0.31-0.334,0.723-0.527,1.238-0.578V9.232h0.652v0.445c0.476,0.057,0.855,0.219,1.137,0.488
		c0.282,0.268,0.461,0.627,0.539,1.076L9.349,11.39C9.28,11.036,9.1,10.796,8.809,10.67v1.757c0.719,0.195,1.209,0.447,1.47,0.757
		c0.261,0.31,0.391,0.708,0.391,1.193c0,0.542-0.164,0.999-0.492,1.371c-0.328,0.372-0.784,0.599-1.369,0.683v0.84H8.158v-0.818
		c-0.518-0.063-0.939-0.256-1.263-0.58c-0.324-0.324-0.53-0.781-0.62-1.371l1.173-0.126c0.048,0.24,0.138,0.446,0.27,0.62
		C7.849,15.172,7.996,15.298,8.158,15.376z M8.158,10.657c-0.177,0.06-0.318,0.162-0.422,0.306
		c-0.105,0.144-0.157,0.303-0.157,0.476c0,0.159,0.048,0.306,0.144,0.443c0.096,0.136,0.241,0.246,0.436,0.33V10.657z M8.809,15.439
		c0.225-0.042,0.408-0.146,0.548-0.312s0.211-0.362,0.211-0.586c0-0.201-0.059-0.374-0.178-0.519
		c-0.118-0.145-0.312-0.257-0.582-0.335V15.439z"/>
	<path class="st24" d="M23.213,15.376v-1.883c-0.587-0.168-1.018-0.422-1.292-0.762c-0.274-0.34-0.411-0.753-0.411-1.238
		c0-0.491,0.155-0.904,0.465-1.238c0.31-0.334,0.723-0.527,1.238-0.578V9.232h0.652v0.445c0.476,0.057,0.855,0.219,1.137,0.488
		c0.282,0.268,0.461,0.627,0.539,1.076l-1.137,0.148c-0.069-0.354-0.249-0.593-0.539-0.719v1.757
		c0.719,0.195,1.209,0.447,1.47,0.757c0.261,0.31,0.391,0.708,0.391,1.193c0,0.542-0.164,0.999-0.492,1.371
		c-0.328,0.372-0.784,0.599-1.369,0.683v0.84h-0.652v-0.818c-0.518-0.063-0.939-0.256-1.263-0.58
		c-0.324-0.324-0.53-0.781-0.62-1.371l1.173-0.126c0.048,0.24,0.138,0.446,0.27,0.62C22.905,15.172,23.052,15.298,23.213,15.376z
		 M23.213,10.657c-0.177,0.06-0.318,0.162-0.422,0.306c-0.105,0.144-0.157,0.303-0.157,0.476c0,0.159,0.048,0.306,0.144,0.443
		c0.096,0.136,0.241,0.246,0.436,0.33V10.657z M23.865,15.439c0.225-0.042,0.408-0.146,0.548-0.312
		c0.141-0.166,0.211-0.362,0.211-0.586c0-0.201-0.059-0.374-0.178-0.519c-0.118-0.145-0.312-0.257-0.582-0.335V15.439z"/>
	<path class="st2" d="M32,12.299h-1.979c-0.736-5.215-6.948-7.371-10.81-3.997c-1.973,1.723-4.702,1.494-6.438-0.014
		C8.915,4.939,2.715,7.082,1.979,12.299H0v1.906h1.969c0.463,3.174,3.203,5.619,6.503,5.619c3.161,0,5.807-2.244,6.431-5.222h0.001
		c0-0.005,0-0.004,0-0.004c0.031-0.146,0.05-0.296,0.071-0.446c0.341-1.017,1.713-0.981,2.049,0.001
		c0.021,0.149,0.04,0.299,0.07,0.444c0,0,0,0.001,0,0.006l0.002,0c0.625,2.978,3.271,5.221,6.432,5.221
		c3.3,0,6.04-2.445,6.503-5.619H32V12.299z M8.472,18.275c-2.77,0-5.023-2.253-5.023-5.023S5.703,8.23,8.472,8.23
		c2.769,0,5.022,2.253,5.022,5.023S11.242,18.275,8.472,18.275z M23.528,18.275c-2.77,0-5.023-2.253-5.023-5.023
		s2.253-5.023,5.023-5.023c2.769,0,5.022,2.253,5.022,5.023S26.297,18.275,23.528,18.275z"/>
	<path class="st2" d="M26.473,6.357c0.024-0.188-0.55-1.056-0.637-1.175c-0.594-0.836-1.311-1.463-2.159-2.054
		c-1.149-0.757-3.168-1.529-4.213-0.642c-0.032,0.021-0.032,0.063-0.01,0.084c0.762,0.903,2.003,1.039,3.676,1.622
		c2.181,0.794,2.234,1.25,3.274,2.179C26.429,6.394,26.452,6.423,26.473,6.357z"/>
	<path class="st2" d="M5.527,6.357C5.502,6.169,6.076,5.3,6.164,5.182c0.594-0.836,1.311-1.463,2.159-2.054
		c1.149-0.757,3.168-1.529,4.213-0.642c0.032,0.021,0.032,0.063,0.01,0.084c-0.762,0.903-2.003,1.039-3.676,1.622
		C6.69,4.985,6.637,5.442,5.597,6.371C5.571,6.394,5.548,6.423,5.527,6.357z"/>
	<path class="st2" d="M24.162,22.882c-1.126,3.43-4.351,5.905-8.165,5.905c-3.806,0-7.031-2.475-8.165-5.914
		c-0.161-0.491,0.259-0.974,0.768-0.92c4.967,0.563,9.89,0.581,14.794,0.009C23.912,21.899,24.323,22.39,24.162,22.882z"/>
	<path class="st3" d="M20.889,25.997c-1.325,1.136-3.049,1.793-4.892,1.793c-1.833,0-3.547-0.658-4.883-1.784
		C14.373,25.219,17.631,25.219,20.889,25.997z"/>
	<path class="st3" d="M23.061,22.997c-0.189,0.478-0.419,0.917-0.698,1.335c-4.305,1.146-8.549,1.126-12.744-0.02
		c-0.269-0.418-0.498-0.857-0.688-1.325c2.391,0.259,4.813,0.389,7.174,0.389C18.428,23.376,20.77,23.257,23.061,22.997z"/>
</g>
</svg>
