<?xml version="1.0" encoding="utf-8"?>
<!-- Generator: Adobe Illustrator 21.1.0, SVG Export Plug-In . SVG Version: 6.00 Build 0)  -->
<svg version="1.1" id="Layer_1" xmlns="http://www.w3.org/2000/svg" xmlns:xlink="http://www.w3.org/1999/xlink" x="0px" y="0px"
	 viewBox="0 0 32 32" style="enable-background:new 0 0 32 32;" xml:space="preserve">
<style type="text/css">
	.st0{fill:#FFD93B;}
	.st1{fill:#F4C534;}
	.st2{fill:#3E4347;}
	.st3{fill:#FFFFFF;}
	.st4{fill:#5A5F63;}
	.st5{fill:#32373A;}
	.st6{fill:#E24B4B;}
	.st7{fill:#D03F3F;}
	.st8{opacity:0.2;}
	.st9{opacity:0.3;}
	.st10{fill:#AD2727;}
	.st11{fill:#E9EFF4;}
	.st12{fill:#DEE4E9;}
	.st13{fill:#65B1EF;}
	.st14{fill:#4E99D2;}
	.st15{opacity:0.25;}
	.st16{fill:#719D34;}
	.st17{fill:#38C0DC;}
	.st18{fill:#303538;}
	.st19{fill:#777B7E;}
	.st20{opacity:0.2;fill:#FFFFFF;}
	.st21{fill:#DE9C25;}
	.st22{fill:#45CBEA;}
	.st23{fill:#7A5B44;}
	.st24{fill:#8CC63E;}
</style>
<g>
	<circle class="st0" cx="16.636" cy="16.195" r="15.364"/>
	<path class="st1" d="M32,16.195c0,8.488-6.88,15.364-15.364,15.364c-4.83,0-9.141-2.228-11.96-5.718
		c2.636,2.132,5.992,3.404,9.646,3.404c8.484,0,15.364-6.875,15.364-15.364c0-3.654-1.272-7.01-3.404-9.646
		C29.768,7.054,32,11.365,32,16.195z"/>
	
		<ellipse transform="matrix(0.9823 -0.1875 0.1875 0.9823 -2.1025 1.4323)" class="st1" cx="6.521" cy="11.832" rx="6.52" ry="6.52"/>
	
		<ellipse transform="matrix(0.9823 -0.1875 0.1875 0.9823 -2.1025 1.4323)" class="st3" cx="6.521" cy="11.832" rx="5.26" ry="5.26"/>
	
		<ellipse transform="matrix(0.9823 -0.1875 0.1875 0.9823 -2.1027 1.4324)" class="st2" cx="6.521" cy="11.832" rx="2.919" ry="2.919"/>
	<path class="st3" d="M8.157,11.236c-0.191,0.281-0.725,0.246-1.186-0.067c-0.461-0.313-0.69-0.797-0.499-1.078
		c0.191-0.281,0.716-0.244,1.186,0.067C8.121,10.48,8.348,10.955,8.157,11.236z"/>
	
		<ellipse transform="matrix(0.9823 -0.1875 0.1875 0.9823 -1.2512 4.3609)" class="st1" cx="22.43" cy="8.796" rx="8.352" ry="8.353"/>
	
		<ellipse transform="matrix(0.9823 -0.1875 0.1875 0.9823 -1.2513 4.3609)" class="st3" cx="22.43" cy="8.796" rx="6.738" ry="6.738"/>
	
		<ellipse transform="matrix(0.9823 -0.1875 0.1875 0.9823 -1.2512 4.3608)" class="st2" cx="22.43" cy="8.796" rx="3.74" ry="3.74"/>
	<path class="st3" d="M24.526,8.032c-0.244,0.36-0.929,0.315-1.519-0.086c-0.59-0.401-0.884-1.021-0.639-1.381
		c0.244-0.36,0.917-0.313,1.519,0.086C24.479,7.064,24.77,7.673,24.526,8.032z"/>
	<path class="st1" d="M4.272,17.945c3.551,1.311,7.467-0.66,8.515-4.329C9.311,13.292,5.479,15.177,4.272,17.945z"/>
	<path class="st0" d="M9.646,14.646c-2.648,0.928-4.572,2.943-5.019,4.981l0.244,1.279l9.786-1.868l-0.91-4.766
		C12.523,14.033,11.094,14.134,9.646,14.646z"/>
	<path class="st2" d="M28.435,18.16c-0.673,5.499-3.722,11.122-8.675,11.14c-5.143,0.019-11.984-4.47-13.669-8.979
		c-0.2-0.534,0.355-1.093,0.933-0.944c7.373,1.877,14.336,2.024,20.319-1.927C27.902,17.078,28.513,17.529,28.435,18.16z"/>
	<path class="st6" d="M20.932,27.063c2.063-0.654,4.126-1.693,5.705-3.003c-1.904-1.749-4.972-1.988-7.076-0.291
		c-0.771,0.626-1.722,0.934-2.702,0.837c-1.791-0.191-3.498,0.558-4.626,1.842C14.734,28.171,17.93,27.622,20.932,27.063z"/>
	<path class="st3" d="M19.761,29.3c3.422-0.013,5.934-2.702,7.383-6.176c-6.059,5.557-14.306,3.231-17.415,1.96
		C12.603,27.531,16.518,29.312,19.761,29.3z"/>
	<path class="st3" d="M28.122,19.973c0.131-0.601,0.239-1.207,0.313-1.813c0.077-0.631-0.533-1.082-1.093-0.711
		C21.36,21.4,14.396,21.253,7.024,19.376c-0.578-0.149-1.132,0.411-0.933,0.944c0.149,0.398,0.351,0.795,0.575,1.19
		C14.128,23.579,21.301,23.225,28.122,19.973z"/>
</g>
</svg>
