<?xml version="1.0" encoding="utf-8"?>
<!-- Generator: Adobe Illustrator 21.1.0, SVG Export Plug-In . SVG Version: 6.00 Build 0)  -->
<svg version="1.1" id="Layer_1" xmlns="http://www.w3.org/2000/svg" xmlns:xlink="http://www.w3.org/1999/xlink" x="0px" y="0px"
	 viewBox="0 0 32 32" style="enable-background:new 0 0 32 32;" xml:space="preserve">
<style type="text/css">
	.st0{fill:#FFD93B;}
	.st1{fill:#F4C534;}
	.st2{fill:#3E4347;}
	.st3{fill:#FFFFFF;}
	.st4{fill:#5A5F63;}
	.st5{fill:#32373A;}
	.st6{fill:#E24B4B;}
	.st7{fill:#D03F3F;}
	.st8{opacity:0.2;}
	.st9{opacity:0.3;}
	.st10{fill:#AD2727;}
	.st11{fill:#E9EFF4;}
	.st12{fill:#DEE4E9;}
	.st13{fill:#65B1EF;}
	.st14{fill:#4E99D2;}
	.st15{opacity:0.25;}
	.st16{fill:#719D34;}
	.st17{fill:#38C0DC;}
	.st18{fill:#303538;}
	.st19{fill:#777B7E;}
	.st20{opacity:0.2;fill:#FFFFFF;}
	.st21{fill:#DE9C25;}
	.st22{fill:#45CBEA;}
	.st23{fill:#7A5B44;}
	.st24{fill:#8CC63E;}
</style>
<g>
	<path class="st0" d="M31.672,13.967c1.288,10.331-7.401,19.004-17.727,17.702C6.906,30.782,1.222,25.099,0.331,18.06
		C-0.977,7.718,7.73-0.983,18.073,0.333C25.114,1.229,30.794,6.923,31.672,13.967z"/>
	<path class="st1" d="M31.693,17.858c-0.824,7.214-6.661,13.036-13.878,13.84c-5.692,0.634-10.867-1.757-14.114-5.779
		c3.139,2.539,7.271,3.892,11.722,3.401c7.242-0.8,13.097-6.654,13.896-13.896c0.491-4.451-0.862-8.583-3.401-11.722
		C29.945,6.957,32.345,12.149,31.693,17.858z"/>
	<path class="st1" d="M12.628,10.842c1.02,1.1,1.65,2.57,1.65,4.19c0,3.84-3.49,6.85-7.47,6.03c-2.32-0.47-4.21-2.35-4.71-4.67
		c-0.46-2.15,0.21-4.15,1.52-5.55c0.17-0.19,0.42-0.28,0.68-0.28h7.65C12.198,10.562,12.448,10.652,12.628,10.842z"/>
	<path class="st1" d="M28.288,15.033c0,3.84-3.49,6.85-7.47,6.03c-2.33-0.47-4.21-2.35-4.71-4.67c-0.46-2.15,0.21-4.15,1.51-5.55
		c0.18-0.19,0.43-0.28,0.68-0.28h7.65c0.256,0,0.509,0.097,0.684,0.284C27.66,11.946,28.288,13.415,28.288,15.033z"/>
	<path class="st3" d="M7.295,19.748c-1.832-0.307-3.36-1.719-3.809-3.522c-0.395-1.588,0.022-3.197,1.068-4.368h7.14
		c0.785,0.877,1.215,2.002,1.215,3.179C12.909,17.943,10.297,20.252,7.295,19.748z"/>
	<path class="st3" d="M21.295,19.748c-1.832-0.307-3.359-1.719-3.808-3.522c-0.395-1.587,0.022-3.195,1.068-4.368h7.14
		c0.785,0.877,1.215,2.002,1.215,3.179C26.909,17.943,24.297,20.252,21.295,19.748z"/>
	<path class="st2" d="M11.497,16.29c-1.014,1.647-3.344,1.654-4.378,0.01c-0.488-0.776-0.498-1.808-0.029-2.595
		c1.012-1.699,3.409-1.699,4.422-0.002C11.978,14.486,11.975,15.513,11.497,16.29z"/>
	<path class="st3" d="M10.733,14.652c-0.201,0.21-0.612,0.119-0.922-0.183c-0.301-0.31-0.384-0.721-0.183-0.922
		c0.21-0.201,0.621-0.119,0.922,0.182S10.943,14.442,10.733,14.652z"/>
	<path class="st2" d="M25.498,16.29c-1.014,1.647-3.344,1.654-4.378,0.01c-0.488-0.776-0.499-1.808-0.029-2.595
		c1.012-1.699,3.408-1.699,4.422-0.002C25.979,14.486,25.976,15.513,25.498,16.29z"/>
	<path class="st3" d="M24.733,14.652c-0.201,0.21-0.612,0.119-0.922-0.183c-0.301-0.31-0.384-0.721-0.183-0.922
		c0.21-0.201,0.621-0.119,0.922,0.182C24.852,14.031,24.943,14.442,24.733,14.652z"/>
	<path class="st2" d="M26.338,7.683c-5.467-0.127-7.852,1.792-10.95,2.03c-4.927,0.325-5.155-3.782-5.57-5.14
		c-0.453-1.417-0.976-2.232-2.49-2.05C6.09,2.671,4.591,3.39,3.448,3.962c0.381-0.51,2.378-1.937,3.71-2.29
		c1.926-0.554,3.207,0.556,3.91,2.47c0.711,1.872,0.725,4.268,4.24,4.13C18.306,8.156,21.341,6.307,26.338,7.683z"/>
	<path class="st2" d="M22.808,24.533c-3.666-0.587-6.684,2.258-10.35,2.04c-2.437-0.195-3.8-1.583-4.03-2.96
		c0.871,1.278,2.468,1.716,4.03,1.64C15.605,25.022,20.03,22.308,22.808,24.533z"/>
</g>
</svg>
