<?xml version="1.0" encoding="utf-8"?>
<!-- Generator: Adobe Illustrator 21.1.0, SVG Export Plug-In . SVG Version: 6.00 Build 0)  -->
<svg version="1.1" id="Layer_1" xmlns="http://www.w3.org/2000/svg" xmlns:xlink="http://www.w3.org/1999/xlink" x="0px" y="0px"
	 viewBox="0 0 32 32" style="enable-background:new 0 0 32 32;" xml:space="preserve">
<style type="text/css">
	.st0{fill:#FFD93B;}
	.st1{fill:#3E4347;}
	.st2{fill:#F4C534;}
	.st3{fill:#38C0DC;}
	.st4{fill:#45CBEA;}
	.st5{fill:#FFFFFF;}
	.st6{fill:#E24B4B;}
	.st7{fill:#5A5F63;}
	.st8{opacity:0.3;}
	.st9{opacity:0.2;}
	.st10{opacity:0.1;}
	.st11{fill:#E9B02C;}
	.st12{fill:#65B1EF;}
	.st13{fill:#E9EFF4;}
	.st14{fill:#8CC63E;}
	.st15{fill:#7FB239;}
	.st16{fill:#D03F3F;}
	.st17{fill:#D23F77;}
	.st18{fill:#E84D88;}
	.st19{fill:#59A5E0;}
	.st20{fill:#DEE4E9;}
	.st21{fill:#D3D9DD;}
	.st22{opacity:0.25;fill:#FFFFFF;}
	.st23{fill:#9A795F;}
	.st24{fill:#F29A2E;}
	.st25{fill:#FC97B2;}
	.st26{fill:#89664C;}
	.st27{fill:#7A5B44;}
	.st28{opacity:0.2;fill:#FFFFFF;}
	.st29{fill:#4E99D2;}
	.st30{fill:#BBC7D1;}
	.st31{fill:#DE9C25;}
</style>
<g>
	<circle class="st0" cx="16" cy="16" r="16"/>
	<path class="st2" d="M32,16c0,8.84-7.165,16-16,16c-5.03,0-9.52-2.32-12.455-5.955c2.745,2.22,6.24,3.545,10.045,3.545
		c8.835,0,16-7.16,16-16c0-3.805-1.325-7.3-3.545-10.045C29.675,6.48,32,10.97,32,16z"/>
	<path class="st1" d="M16.323,27.268c-0.646-0.24-1.473-0.761-1.785-1.383c0.332,0.332,0.855,0.68,1.921,0.914
		c2.279,0.493,1.842-0.923,0.53-1.486c-0.452-0.113-0.688-0.712-0.231-1.067c0.16-0.128,0.299-0.171,0.504-0.273
		c0.422-0.244,0.863-0.674,0.794-1.153c0.026-0.077-0.256-0.273-0.606-0.273c-0.333-0.026-0.675,0.008-0.991,0.077
		c-0.604,0.134-1.536,0.441-1.921,0.922c0.184-0.551,1.224-1.183,1.785-1.392c2.797-1.076,3.266,1.447,1.349,2.553
		c0,0-0.009,0-0.009,0.009h0.009C19.612,25.834,19.108,28.339,16.323,27.268z"/>
	<path class="st6" d="M25.022,25.497c0,1.251-1.386,2.192-2.006,2.551c-0.182,0.104-0.403,0.106-0.582,0.002
		c-0.6-0.345-1.931-1.242-2.01-2.44c-0.042-0.631,0.372-1.198,0.996-1.3c0.576-0.093,1.092,0.221,1.302,0.7
		c0.184-0.421,0.604-0.715,1.096-0.715C24.484,24.295,25.022,24.833,25.022,25.497z"/>
	<path class="st6" d="M32,21.287c0,1.793-1.986,3.142-2.875,3.656c-0.26,0.149-0.577,0.152-0.835,0.003
		c-0.86-0.495-2.767-1.78-2.881-3.497c-0.06-0.904,0.533-1.717,1.428-1.863c0.825-0.133,1.564,0.317,1.866,1.003
		c0.263-0.603,0.866-1.025,1.571-1.025C31.229,19.564,32,20.335,32,21.287z"/>
	<g>
		<path class="st1" d="M27.313,7.623c-2.629-1.531-5.541-1.701-7.26-1.632c-0.54,0.019-0.797-0.665-0.37-0.998
			c3.131-2.454,6.338,0.339,7.969,2.215C27.852,7.435,27.576,7.774,27.313,7.623z"/>
	</g>
	<g>
		<path class="st1" d="M4.687,7.623c2.629-1.531,5.541-1.701,7.26-1.632c0.54,0.019,0.797-0.665,0.37-0.998
			C9.187,2.54,5.98,5.333,4.349,7.209C4.148,7.435,4.424,7.774,4.687,7.623z"/>
	</g>
	<path class="st5" d="M27.312,14.169c0,2.975-2.156,5.394-4.816,5.394c-2.652,0-4.807-2.419-4.807-5.394
		c0-2.985,2.156-5.403,4.807-5.403C25.156,8.765,27.312,11.184,27.312,14.169z"/>
	<g>
		<path class="st1" d="M24.684,15.018c0,1.343-1.099,2.441-2.451,2.441c-1.343,0-2.441-1.099-2.441-2.441
			c0-1.352,1.099-2.451,2.441-2.451C23.585,12.567,24.684,13.666,24.684,15.018z"/>
	</g>
	<g>
		<path class="st5" d="M23.649,14.613c-0.19,0.19-0.56,0.099-0.839-0.172c-0.271-0.28-0.361-0.65-0.171-0.84
			c0.181-0.181,0.56-0.099,0.83,0.171C23.749,14.053,23.83,14.432,23.649,14.613z"/>
	</g>
	<path class="st5" d="M14.312,14.169c0,2.975-2.156,5.394-4.816,5.394c-2.652,0-4.807-2.419-4.807-5.394
		c0-2.985,2.156-5.403,4.807-5.403C12.156,8.765,14.312,11.184,14.312,14.169z"/>
	<g>
		<path class="st1" d="M11.684,15.018c0,1.343-1.099,2.441-2.451,2.441c-1.343,0-2.441-1.099-2.441-2.441
			c0-1.352,1.099-2.451,2.441-2.451C10.585,12.567,11.684,13.666,11.684,15.018z"/>
	</g>
	<g>
		<path class="st5" d="M10.649,14.613c-0.19,0.19-0.56,0.099-0.839-0.172c-0.271-0.28-0.361-0.65-0.171-0.84
			c0.181-0.181,0.56-0.099,0.83,0.171C10.749,14.053,10.83,14.432,10.649,14.613z"/>
	</g>
</g>
</svg>
