<?xml version="1.0" encoding="utf-8"?>
<!-- Generator: Adobe Illustrator 21.1.0, SVG Export Plug-In . SVG Version: 6.00 Build 0)  -->
<svg version="1.1" id="Layer_1" xmlns="http://www.w3.org/2000/svg" xmlns:xlink="http://www.w3.org/1999/xlink" x="0px" y="0px"
	 viewBox="0 0 32 32" style="enable-background:new 0 0 32 32;" xml:space="preserve">
<style type="text/css">
	.st0{fill:#FFD93B;}
	.st1{fill:#F4C534;}
	.st2{fill:#3E4347;}
	.st3{fill:#FFFFFF;}
	.st4{fill:#5A5F63;}
	.st5{fill:#32373A;}
	.st6{fill:#E24B4B;}
	.st7{fill:#D03F3F;}
	.st8{opacity:0.2;}
	.st9{opacity:0.3;}
	.st10{fill:#AD2727;}
	.st11{fill:#E9EFF4;}
	.st12{fill:#DEE4E9;}
	.st13{fill:#65B1EF;}
	.st14{fill:#4E99D2;}
	.st15{opacity:0.25;}
	.st16{fill:#719D34;}
	.st17{fill:#38C0DC;}
	.st18{fill:#303538;}
	.st19{fill:#777B7E;}
	.st20{opacity:0.2;fill:#FFFFFF;}
	.st21{fill:#DE9C25;}
	.st22{fill:#45CBEA;}
	.st23{fill:#7A5B44;}
	.st24{fill:#8CC63E;}
</style>
<g>
	<path class="st0" d="M31.871,13.941c1.304,10.462-7.495,19.245-17.952,17.927C6.791,30.97,1.034,25.215,0.132,18.086
		C-1.193,7.613,7.625-1.199,18.099,0.134C25.23,1.041,30.982,6.808,31.871,13.941z"/>
	<path class="st1" d="M31.892,17.881c-0.835,7.306-6.746,13.202-14.054,14.016c-5.765,0.642-11.005-1.78-14.293-5.852
		c3.179,2.571,7.364,3.942,11.871,3.444c7.334-0.81,13.263-6.738,14.073-14.073c0.498-4.507-0.873-8.692-3.444-11.871
		C30.122,6.842,32.553,12.1,31.892,17.881z"/>
	<g>
		<ellipse class="st1" cx="7.811" cy="13.164" rx="7.562" ry="7.567"/>
	</g>
	<g>
		<path class="st3" d="M13.867,13.166c0,3.342-2.703,6.055-6.055,6.055s-6.055-2.713-6.055-6.055c0-3.352,2.703-6.066,6.055-6.066
			S13.867,9.814,13.867,13.166z"/>
	</g>
	<g>
		<path class="st2" d="M11.468,13.167c0,2.016-1.631,3.656-3.656,3.656c-2.025,0-3.656-1.641-3.656-3.656
			c0-2.025,1.631-3.666,3.656-3.666S11.468,11.142,11.468,13.167z"/>
		
			<ellipse transform="matrix(0.7071 -0.7071 0.7071 0.7071 -5.6915 9.9276)" class="st3" cx="9.138" cy="11.834" rx="0.732" ry="1.121"/>
	</g>
	<g>
		<ellipse class="st1" cx="24.189" cy="13.164" rx="7.562" ry="7.567"/>
	</g>
	<g>
		<path class="st3" d="M30.244,13.166c0,3.342-2.704,6.055-6.056,6.055c-3.352,0-6.056-2.713-6.056-6.055
			c0-3.352,2.703-6.066,6.056-6.066C27.541,7.101,30.244,9.814,30.244,13.166z"/>
	</g>
	<g>
		<path class="st2" d="M27.845,13.167c0,2.016-1.631,3.656-3.656,3.656c-2.025,0-3.656-1.641-3.656-3.656
			c0-2.025,1.631-3.666,3.656-3.666C26.214,9.501,27.845,11.142,27.845,13.167z"/>
		
			<ellipse transform="matrix(0.7071 -0.7071 0.7071 0.7071 -0.8947 21.5086)" class="st3" cx="25.516" cy="11.834" rx="0.732" ry="1.121"/>
	</g>
	<path class="st2" d="M22.15,23.355c-1.052,1.765-3.255,3.719-6.491,3.849c-2.841-0.166-5.072-1.642-6.512-3.858
		c1.741,0.911,3.595,2.196,6.522,2.339C19.004,25.599,21.137,23.77,22.15,23.355z"/>
</g>
</svg>
