<?xml version="1.0" encoding="utf-8"?>
<!-- Generator: Adobe Illustrator 21.1.0, SVG Export Plug-In . SVG Version: 6.00 Build 0)  -->
<svg version="1.1" id="Layer_1" xmlns="http://www.w3.org/2000/svg" xmlns:xlink="http://www.w3.org/1999/xlink" x="0px" y="0px"
	 viewBox="0 0 32 32" style="enable-background:new 0 0 32 32;" xml:space="preserve">
<style type="text/css">
	.st0{fill:#FFD93B;}
	.st1{fill:#F4C534;}
	.st2{fill:#3E4347;}
	.st3{fill:#FFFFFF;}
	.st4{fill:#5A5F63;}
	.st5{fill:#32373A;}
	.st6{fill:#E24B4B;}
	.st7{fill:#D03F3F;}
	.st8{opacity:0.2;}
	.st9{opacity:0.3;}
	.st10{fill:#AD2727;}
	.st11{fill:#E9EFF4;}
	.st12{fill:#DEE4E9;}
	.st13{fill:#65B1EF;}
	.st14{fill:#4E99D2;}
	.st15{opacity:0.25;}
	.st16{fill:#719D34;}
	.st17{fill:#38C0DC;}
	.st18{fill:#303538;}
	.st19{fill:#777B7E;}
	.st20{opacity:0.2;fill:#FFFFFF;}
	.st21{fill:#DE9C25;}
	.st22{fill:#45CBEA;}
	.st23{fill:#7A5B44;}
	.st24{fill:#8CC63E;}
</style>
<g>
	<circle class="st0" cx="16" cy="17.425" r="14.575"/>
	<path class="st1" d="M30.506,17.425C30.506,25.478,23.979,32,15.931,32c-4.582,0-8.672-2.113-11.346-5.425
		c2.501,2.022,5.684,3.229,9.151,3.229c8.048,0,14.575-6.522,14.575-14.575c0-3.466-1.207-6.65-3.229-9.151
		C28.388,8.752,30.506,12.843,30.506,17.425z"/>
	<path class="st3" d="M14.828,14.731c0,2.494-2.017,4.519-4.519,4.519c-2.494,0-4.519-2.025-4.519-4.519
		c0-2.502,2.026-4.528,4.519-4.528C12.811,10.204,14.828,12.229,14.828,14.731z"/>
	<path class="st3" d="M26.211,14.731c0,2.494-2.017,4.519-4.519,4.519c-2.494,0-4.519-2.025-4.519-4.519
		c0-2.502,2.026-4.528,4.519-4.528C24.194,10.204,26.211,12.229,26.211,14.731z"/>
	<path class="st2" d="M29.051,14.044h-2.249c-0.337-2.524-2.499-4.478-5.11-4.478c-1.933,0-3.618,1.071-4.5,2.651
		c-0.239,0.429-0.692,0.679-1.183,0.676c-0.003,0-0.006,0-0.009,0c-0.004,0-0.009,0-0.013,0c-0.489,0.003-0.94-0.247-1.178-0.674
		c-0.882-1.581-2.567-2.653-4.5-2.653c-2.611,0-4.768,1.955-5.106,4.478H2.946v1.366h2.272c0.317,2.358,2.233,4.255,4.646,4.459
		c3.054,0.259,5.662-2.176,5.596-5.247c0.052-0.257,0.268-0.454,0.54-0.454c0.277,0,0.534,0.2,0.534,0.562
		c0,2.977,2.537,5.374,5.563,5.142c2.421-0.186,4.374-2.08,4.69-4.463h2.265V14.044z M10.309,18.612c-2.14,0-3.881-1.741-3.881-3.88
		c0-2.144,1.741-3.889,3.881-3.889c2.14,0,3.881,1.745,3.881,3.889C14.189,16.87,12.449,18.612,10.309,18.612z M21.692,18.612
		c-2.14,0-3.881-1.741-3.881-3.88c0-2.144,1.741-3.889,3.881-3.889c2.14,0,3.881,1.745,3.881,3.889
		C25.573,16.87,23.832,18.612,21.692,18.612z"/>
	<path class="st2" d="M22.281,14.729c0,0.95-0.765,1.733-1.727,1.733c-0.95,0-1.727-0.783-1.727-1.733
		c0-0.956,0.777-1.739,1.727-1.739C21.517,12.991,22.281,13.773,22.281,14.729z"/>
	
		<ellipse transform="matrix(0.7071 -0.7071 0.7071 0.7071 -3.7924 19.096)" class="st3" cx="21.155" cy="14.126" rx="0.394" ry="0.569"/>
	<path class="st2" d="M13.172,14.729c0,0.95-0.765,1.733-1.727,1.733c-0.95,0-1.727-0.783-1.727-1.733
		c0-0.956,0.777-1.739,1.727-1.739C12.407,12.991,13.172,13.773,13.172,14.729z"/>
	
		<ellipse transform="matrix(0.7071 -0.7071 0.7071 0.7071 -6.4606 12.6545)" class="st3" cx="12.045" cy="14.126" rx="0.394" ry="0.569"/>
	<path class="st13" d="M18.746,3.025C18.746,2.248,17.339,0,17.339,0s-1.407,2.248-1.407,3.025s0.63,1.407,1.407,1.407
		S18.746,3.802,18.746,3.025z"/>
	<path class="st3" d="M18.005,3.739c-0.213,0.191-0.469,0.242-0.572,0.125c-0.103-0.117-0.015-0.359,0.191-0.55
		c0.213-0.184,0.477-0.242,0.58-0.125C18.306,3.306,18.218,3.548,18.005,3.739z"/>
	<path class="st13" d="M16.069,6.575c0-0.659-1.193-2.564-1.193-2.564s-1.193,1.906-1.193,2.564c0,0.659,0.534,1.193,1.193,1.193
		C15.535,7.768,16.069,7.234,16.069,6.575z"/>
	<path class="st3" d="M15.441,7.18c-0.18,0.162-0.398,0.205-0.485,0.106c-0.087-0.099-0.012-0.305,0.162-0.466
		c0.18-0.155,0.404-0.205,0.491-0.106C15.696,6.813,15.622,7.018,15.441,7.18z"/>
	<path class="st2" d="M24.054,7.567c0,0-3.511,0.351-5.557-2.816C18.498,4.751,19.317,10.638,24.054,7.567z"/>
	<path class="st2" d="M7.946,7.567c0,0,3.511,0.351,5.557-2.816C13.502,4.751,12.683,10.638,7.946,7.567z"/>
	<path class="st2" d="M21.659,27.12c-0.079,0.642-0.786,0.995-1.37,0.728c-2.842-1.327-5.698-1.298-8.575,0.014
		c-0.591,0.267-1.284-0.094-1.37-0.728c-0.433-3.318,2.156-6.419,5.661-6.419C19.502,20.716,22.084,23.803,21.659,27.12z"/>
	<path class="st6" d="M19.339,27.462c-0.026-0.933-0.424-1.771-1.069-2.359c-0.392-0.363-0.971-0.412-1.461-0.196
		c-0.353,0.147-0.746,0.235-1.197,0.235c-0.147,0-0.284-0.01-0.422-0.029c-0.932-0.117-1.893,0.255-2.266,1.109
		c-0.168,0.392-0.255,0.818-0.266,1.263C14.896,26.682,17.122,26.663,19.339,27.462z"/>
</g>
</svg>
