<?xml version="1.0" encoding="utf-8"?>
<!-- Generator: Adobe Illustrator 21.1.0, SVG Export Plug-In . SVG Version: 6.00 Build 0)  -->
<svg version="1.1" id="Layer_1" xmlns="http://www.w3.org/2000/svg" xmlns:xlink="http://www.w3.org/1999/xlink" x="0px" y="0px"
	 viewBox="0 0 32 32" style="enable-background:new 0 0 32 32;" xml:space="preserve">
<style type="text/css">
	.st0{fill:#FFD93B;}
	.st1{fill:#F4C534;}
	.st2{fill:#3E4347;}
	.st3{fill:#FFFFFF;}
	.st4{fill:#5A5F63;}
	.st5{fill:#32373A;}
	.st6{fill:#E24B4B;}
	.st7{fill:#D03F3F;}
	.st8{opacity:0.2;}
	.st9{opacity:0.3;}
	.st10{fill:#AD2727;}
	.st11{fill:#E9EFF4;}
	.st12{fill:#DEE4E9;}
	.st13{fill:#65B1EF;}
	.st14{fill:#4E99D2;}
	.st15{opacity:0.25;}
	.st16{fill:#719D34;}
	.st17{fill:#38C0DC;}
	.st18{fill:#303538;}
	.st19{fill:#777B7E;}
	.st20{opacity:0.2;fill:#FFFFFF;}
	.st21{fill:#DE9C25;}
	.st22{fill:#45CBEA;}
	.st23{fill:#7A5B44;}
	.st24{fill:#8CC63E;}
</style>
<g>
	<circle class="st0" cx="16" cy="16" r="16"/>
	<path class="st1" d="M31.924,16c0,8.84-7.165,16-16,16c-5.03,0-9.52-2.32-12.455-5.955c2.745,2.22,6.24,3.545,10.045,3.545
		c8.835,0,16-7.16,16-16c0-3.805-1.325-7.3-3.545-10.045C29.599,6.48,31.924,10.97,31.924,16z"/>
	<path class="st3" d="M14.713,13.043c0,2.738-2.214,4.961-4.961,4.961c-2.738,0-4.961-2.224-4.961-4.961
		c0-2.747,2.223-4.97,4.961-4.97C12.499,8.073,14.713,10.297,14.713,13.043z"/>
	<path class="st3" d="M27.209,13.043c0,2.738-2.214,4.961-4.961,4.961c-2.737,0-4.961-2.224-4.961-4.961
		c0-2.747,2.224-4.97,4.961-4.97C24.995,8.073,27.209,10.297,27.209,13.043z"/>
	<path class="st2" d="M30.327,12.289h-2.469c-0.37-2.771-2.743-4.916-5.61-4.916c-2.122,0-3.972,1.176-4.94,2.91
		c-0.263,0.471-0.76,0.745-1.299,0.742c-0.003,0-0.006,0-0.01,0c-0.005,0-0.009,0-0.014,0.001c-0.537,0.004-1.032-0.272-1.293-0.74
		c-0.968-1.735-2.818-2.912-4.94-2.912c-2.866,0-5.234,2.146-5.605,4.916H1.67v1.5h2.495c0.348,2.588,2.451,4.671,5.1,4.895
		c3.352,0.284,6.215-2.389,6.144-5.759c0.057-0.282,0.295-0.498,0.592-0.498c0.304,0,0.586,0.219,0.586,0.617
		c0,3.268,2.784,5.899,6.106,5.644c2.658-0.204,4.802-2.283,5.148-4.899h2.486V12.289z M9.752,17.303
		c-2.349,0-4.261-1.912-4.261-4.26c0-2.354,1.911-4.269,4.261-4.269c2.349,0,4.26,1.915,4.26,4.269
		C14.012,15.392,12.101,17.303,9.752,17.303z M22.248,17.303c-2.349,0-4.261-1.912-4.261-4.26c0-2.354,1.911-4.269,4.261-4.269
		c2.349,0,4.26,1.915,4.26,4.269C26.508,15.392,24.597,17.303,22.248,17.303z"/>
	<path class="st2" d="M22.895,13.041c0,1.043-0.839,1.902-1.895,1.902c-1.043,0-1.895-0.859-1.895-1.902
		c0-1.049,0.853-1.909,1.895-1.909C22.056,11.133,22.895,11.992,22.895,13.041z"/>
	
		<ellipse transform="matrix(0.7071 -0.7071 0.7071 0.7071 -2.4096 18.9405)" class="st3" cx="21.658" cy="12.379" rx="0.432" ry="0.625"/>
	<path class="st2" d="M12.895,13.041c0,1.043-0.84,1.902-1.895,1.902c-1.043,0-1.895-0.859-1.895-1.902
		c0-1.049,0.853-1.909,1.895-1.909C12.056,11.133,12.895,11.992,12.895,13.041z"/>
	
		<ellipse transform="matrix(0.7071 -0.7071 0.7071 0.7071 -5.3385 11.8694)" class="st3" cx="11.658" cy="12.379" rx="0.432" ry="0.625"/>
	<path class="st2" d="M12.992,4.302c0,0.389-0.338,0.742-0.789,0.641c-1.122-0.251-2.261-0.246-3.415-0.005
		c-0.423,0.088-0.81-0.201-0.81-0.636c0-0.365,0.292-0.669,0.657-0.669c1.197-0.238,2.426-0.241,3.687,0
		C12.7,3.633,12.992,3.938,12.992,4.302z"/>
	<path class="st2" d="M24.022,4.302c0,0.389-0.338,0.742-0.788,0.641c-1.122-0.251-2.261-0.246-3.416-0.005
		c-0.423,0.088-0.81-0.201-0.81-0.636c0-0.365,0.292-0.669,0.657-0.669c1.197-0.238,2.426-0.241,3.687,0
		C23.73,3.633,24.022,3.938,24.022,4.302z"/>
	<path class="st2" d="M21.871,24.136c0.046,6.195-11.787,6.214-11.741-0.009C10.084,17.931,21.917,17.931,21.871,24.136z"/>
	<path class="st3" d="M20.675,22.989c-0.74-1.543-2.372-2.605-4.674-2.582c-2.302-0.023-3.934,1.039-4.674,2.582
		C14.429,22.544,17.544,22.543,20.675,22.989z"/>
</g>
</svg>
