<?xml version="1.0" encoding="utf-8"?>
<!-- Generator: Adobe Illustrator 21.1.0, SVG Export Plug-In . SVG Version: 6.00 Build 0)  -->
<svg version="1.1" id="Layer_1" xmlns="http://www.w3.org/2000/svg" xmlns:xlink="http://www.w3.org/1999/xlink" x="0px" y="0px"
	 viewBox="0 0 32 32" style="enable-background:new 0 0 32 32;" xml:space="preserve">
<style type="text/css">
	.st0{fill:#FFD93B;}
	.st1{fill:#F4C534;}
	.st2{fill:#3E4347;}
	.st3{fill:#FFFFFF;}
	.st4{fill:#5A5F63;}
	.st5{fill:#32373A;}
	.st6{fill:#E24B4B;}
	.st7{fill:#D03F3F;}
	.st8{opacity:0.2;}
	.st9{opacity:0.3;}
	.st10{fill:#AD2727;}
	.st11{fill:#E9EFF4;}
	.st12{fill:#DEE4E9;}
	.st13{fill:#65B1EF;}
	.st14{fill:#4E99D2;}
	.st15{opacity:0.25;}
	.st16{fill:#719D34;}
	.st17{fill:#38C0DC;}
	.st18{fill:#303538;}
	.st19{fill:#777B7E;}
	.st20{opacity:0.2;fill:#FFFFFF;}
	.st21{fill:#DE9C25;}
	.st22{fill:#45CBEA;}
	.st23{fill:#7A5B44;}
	.st24{fill:#8CC63E;}
</style>
<g>
	<circle class="st0" cx="16" cy="16" r="16"/>
	<path class="st1" d="M32,16c0,8.84-7.165,16-16,16c-5.03,0-9.52-2.32-12.455-5.955c2.745,2.22,6.24,3.545,10.045,3.545
		c8.835,0,16-7.16,16-16c0-3.805-1.325-7.3-3.545-10.045C29.675,6.48,32,10.97,32,16z"/>
	<path class="st2" d="M23.857,22.491c0,4.647-4.588,6.207-7.859,6.207c-3.263,0-7.851-1.56-7.851-6.207
		c0-2.012,2.741-3.602,5.838-3.238c1.342,0.168,2.701,0.168,4.034,0C21.176,18.892,23.857,20.502,23.857,22.491z"/>
	<path class="st3" d="M16.002,21.905c2.917,0,5.526-0.233,7.293-0.926c-0.945-1.208-2.982-1.988-5.275-1.725
		c-1.334,0.168-2.692,0.168-4.034,0c-2.256-0.266-4.319,0.509-5.274,1.726C10.477,21.672,13.085,21.905,16.002,21.905z"/>
	<path class="st6" d="M16.337,23.856c-1.718,0.875-3.363-0.299-4.255,1.6c-0.361,0.784-0.459,1.585-0.362,2.34
		c1.377,0.632,2.938,0.902,4.278,0.902c1.344,0,2.907-0.269,4.286-0.902C20.614,25.22,18.516,22.739,16.337,23.856z"/>
	<path class="st2" d="M14.438,12.624c-1.231-1.193-2.969-1.934-4.893-1.934c-1.929,0-3.661,0.741-4.887,1.929
		c-0.164,0.158-0.431-0.027-0.349-0.245c0.795-2.114,2.839-3.618,5.236-3.618c2.392,0,4.44,1.504,5.241,3.623
		C14.868,12.597,14.601,12.782,14.438,12.624z"/>
	<path class="st2" d="M27.342,12.624c-1.231-1.193-2.969-1.934-4.893-1.934c-1.929,0-3.661,0.741-4.887,1.929
		c-0.163,0.158-0.431-0.027-0.349-0.245c0.795-2.114,2.839-3.618,5.236-3.618c2.392,0,4.441,1.504,5.241,3.623
		C27.772,12.597,27.505,12.782,27.342,12.624z"/>
	<path class="st2" d="M30.938,23.533c-0.665-0.304-1.971-0.864-2.736-0.933l-0.571,4c-0.106,0.742-1.033,1.222-2.072,1.074
		c-1.043-0.149-1.799-0.869-1.693-1.611c0.105-0.739,1.033-1.217,2.075-1.068c0.294,0.042,0.568,0.131,0.803,0.254l0.574-4.022
		c0.072-0.505,0.596-0.806,1.068-0.617c0.878,0.352,2.148,1.11,2.808,2.671C31.263,23.444,31.096,23.607,30.938,23.533z"/>
	<path class="st2" d="M30.855,15.942c-0.459-0.189-1.36-0.534-1.881-0.561l-0.28,2.729c-0.052,0.507-0.668,0.857-1.377,0.784
		c-0.711-0.073-1.243-0.542-1.192-1.049c0.052-0.504,0.668-0.853,1.379-0.78c0.201,0.021,0.389,0.074,0.551,0.151l0.281-2.744
		c0.035-0.344,0.383-0.562,0.708-0.447c0.605,0.216,1.487,0.696,1.977,1.738C31.073,15.873,30.965,15.988,30.855,15.942z"/>
</g>
</svg>
