<?xml version="1.0" encoding="utf-8"?>
<!-- Generator: Adobe Illustrator 21.1.0, SVG Export Plug-In . SVG Version: 6.00 Build 0)  -->
<svg version="1.1" id="Layer_1" xmlns="http://www.w3.org/2000/svg" xmlns:xlink="http://www.w3.org/1999/xlink" x="0px" y="0px"
	 viewBox="0 0 32 32" style="enable-background:new 0 0 32 32;" xml:space="preserve">
<style type="text/css">
	.st0{fill:#FFD93B;}
	.st1{fill:#F4C534;}
	.st2{fill:#3E4347;}
	.st3{fill:#FFFFFF;}
	.st4{fill:#5A5F63;}
	.st5{fill:#32373A;}
	.st6{fill:#E24B4B;}
	.st7{fill:#D03F3F;}
	.st8{opacity:0.2;}
	.st9{opacity:0.3;}
	.st10{fill:#AD2727;}
	.st11{fill:#E9EFF4;}
	.st12{fill:#DEE4E9;}
	.st13{fill:#65B1EF;}
	.st14{fill:#4E99D2;}
	.st15{opacity:0.25;}
	.st16{fill:#719D34;}
	.st17{fill:#38C0DC;}
	.st18{fill:#303538;}
	.st19{fill:#777B7E;}
	.st20{opacity:0.2;fill:#FFFFFF;}
	.st21{fill:#DE9C25;}
	.st22{fill:#45CBEA;}
	.st23{fill:#7A5B44;}
	.st24{fill:#8CC63E;}
</style>
<g>
	<g>
		<circle class="st0" cx="16" cy="14.095" r="14.095"/>
	</g>
	<g>
		<path class="st2" d="M23.27,19.717c-1.198,2.836-4,4.819-7.268,4.819c-3.295,0-6.114-2.017-7.294-4.88
			c-0.229-0.563,0.273-1.145,0.881-1.048c4.273,0.696,8.545,0.696,12.827,0.009C23.041,18.51,23.517,19.135,23.27,19.717z"/>
	</g>
	<g>
		<path class="st1" d="M30.095,14.095c0,7.788-6.312,14.095-14.095,14.095c-4.431,0-8.387-2.044-10.972-5.246
			c2.418,1.956,5.497,3.123,8.849,3.123c7.783,0,14.095-6.308,14.095-14.095c0-3.352-1.167-6.431-3.123-8.849
			C28.047,5.709,30.095,9.664,30.095,14.095z"/>
	</g>
	<g>
		<path class="st2" d="M18.376,6.042c-0.251-0.265-0.239-0.683,0.027-0.934c0.953-0.902,3.683-2.423,7.204-1.715
			c0.358,0.072,0.589,0.42,0.518,0.778c-0.071,0.357-0.421,0.585-0.778,0.518c-2.768-0.554-5.129,0.521-6.038,1.379
			C19.047,6.317,18.629,6.309,18.376,6.042z"/>
	</g>
	<g>
		<path class="st2" d="M12.69,6.068c-0.908-0.858-3.268-1.934-6.038-1.379c-0.36,0.066-0.706-0.161-0.778-0.518
			c-0.071-0.358,0.16-0.706,0.518-0.778c3.521-0.704,6.251,0.813,7.204,1.715c0.266,0.25,0.278,0.668,0.027,0.934
			C13.372,6.309,12.953,6.318,12.69,6.068z"/>
	</g>
	<g>
		<path class="st3" d="M15.31,12.278c-0.203,2.721-2.615,4.725-5.386,4.465c-2.771-0.26-4.861-2.685-4.658-5.406
			C5.468,8.615,7.888,6.62,10.659,6.88C13.43,7.139,15.513,9.556,15.31,12.278z"/>
	</g>
	<g>
		<ellipse class="st2" cx="11.566" cy="12.074" rx="2.434" ry="2.436"/>
	</g>
	<g>
		
			<ellipse transform="matrix(0.7071 -0.7071 0.7071 0.7071 -4.2151 12.1036)" class="st3" cx="12.502" cy="11.139" rx="0.424" ry="0.622"/>
	</g>
	<g>
		<path class="st3" d="M16.691,12.278c0.203,2.721,2.615,4.725,5.386,4.465c2.771-0.26,4.861-2.685,4.658-5.406
			S24.112,6.62,21.341,6.88C18.57,7.139,16.488,9.556,16.691,12.278z"/>
	</g>
	<g>
		<ellipse class="st2" cx="20.437" cy="12.074" rx="2.434" ry="2.436"/>
	</g>
	<g>
		
			<ellipse transform="matrix(0.7071 -0.7071 0.7071 0.7071 -1.6165 18.3767)" class="st3" cx="21.373" cy="11.139" rx="0.424" ry="0.622"/>
	</g>
	<g>
		<path class="st6" d="M13.199,22.669c-0.512-0.099-1.082,0.16-1.207,0.926C11.534,29.212,13.608,32.001,16,32
			c2.394,0.005,4.465-2.794,4.009-8.405c-0.124-0.763-0.695-1.025-1.207-0.926C17.001,23.019,14.999,23.019,13.199,22.669z"/>
	</g>
</g>
</svg>
