<?xml version="1.0" encoding="utf-8"?>
<!-- Generator: Adobe Illustrator 21.1.0, SVG Export Plug-In . SVG Version: 6.00 Build 0)  -->
<svg version="1.1" id="Layer_1" xmlns="http://www.w3.org/2000/svg" xmlns:xlink="http://www.w3.org/1999/xlink" x="0px" y="0px"
	 viewBox="0 0 32 32" style="enable-background:new 0 0 32 32;" xml:space="preserve">
<style type="text/css">
	.st0{fill:#FFD93B;}
	.st1{fill:#F4C534;}
	.st2{fill:#3E4347;}
	.st3{fill:#FFFFFF;}
	.st4{fill:#5A5F63;}
	.st5{fill:#32373A;}
	.st6{fill:#E24B4B;}
	.st7{fill:#D03F3F;}
	.st8{opacity:0.2;}
	.st9{opacity:0.3;}
	.st10{fill:#AD2727;}
	.st11{fill:#E9EFF4;}
	.st12{fill:#DEE4E9;}
	.st13{fill:#65B1EF;}
	.st14{fill:#4E99D2;}
	.st15{opacity:0.25;}
	.st16{fill:#719D34;}
	.st17{fill:#38C0DC;}
	.st18{fill:#303538;}
	.st19{fill:#777B7E;}
	.st20{opacity:0.2;fill:#FFFFFF;}
	.st21{fill:#DE9C25;}
	.st22{fill:#45CBEA;}
	.st23{fill:#7A5B44;}
	.st24{fill:#8CC63E;}
</style>
<g>
	<circle class="st0" cx="16" cy="16" r="16"/>
	<path class="st2" d="M26.062,21.123c-1.652,3.931-5.534,6.693-10.063,6.693c-4.53,0-8.402-2.762-10.054-6.693
		c-0.338-0.792,0.261-1.661,1.13-1.613c5.939,0.377,11.889,0.377,17.847,0C25.791,19.462,26.39,20.331,26.062,21.123z"/>
	<path class="st1" d="M32,16c0,8.84-7.165,16-16,16c-5.03,0-9.52-2.32-12.455-5.955c2.745,2.22,6.24,3.545,10.045,3.545
		c8.835,0,16-7.16,16-16c0-3.805-1.325-7.3-3.545-10.045C29.675,6.48,32,10.97,32,16z"/>
	<ellipse class="st3" cx="9.404" cy="11.595" rx="5.81" ry="5.815"/>
	<path class="st2" d="M13.564,11.227c0,1.63-1.32,2.95-2.95,2.94c-1.62,0-2.94-1.31-2.94-2.94c0-1.62,1.32-2.94,2.95-2.94
		C12.244,8.288,13.564,9.607,13.564,11.227z"/>
	<path class="st3" d="M12.314,10.667c-0.2,0.21-0.62,0.11-0.93-0.21c-0.31-0.31-0.41-0.72-0.21-0.93c0.21-0.2,0.62-0.1,0.93,0.21
		C12.424,10.047,12.524,10.467,12.314,10.667z"/>
	<ellipse class="st3" cx="22.596" cy="11.595" rx="5.81" ry="5.815"/>
	<path class="st2" d="M18.148,11.227c0,1.63,1.32,2.95,2.95,2.94c1.62,0,2.94-1.31,2.94-2.94c0-1.62-1.32-2.94-2.95-2.94
		C19.468,8.288,18.148,9.607,18.148,11.227z"/>
	<path class="st3" d="M19.398,10.667c0.2,0.21,0.62,0.11,0.93-0.21c0.31-0.31,0.41-0.72,0.21-0.93c-0.21-0.2-0.62-0.1-0.93,0.21
		C19.288,10.047,19.188,10.467,19.398,10.667z"/>
	<path class="st3" d="M7.074,19.51c-0.07-0.004-0.135,0.007-0.201,0.015c1.857,2.514,5.244,2.653,9.127,2.653
		c3.883,0,7.27-0.139,9.127-2.653c-0.068-0.008-0.134-0.019-0.205-0.015C18.963,19.887,13.014,19.887,7.074,19.51z"/>
	<path class="st6" d="M15.998,27.816c1.663,0,3.238-0.375,4.648-1.041c-0.069-1.161-0.539-2.214-1.313-2.998
		c-0.619-0.617-1.562-0.848-2.383-0.546c-0.747,0.268-1.561,0.406-2.442,0.415c-1.498,0-2.807,1.098-3.078,2.567
		c-0.034,0.186-0.042,0.38-0.052,0.574C12.78,27.444,14.344,27.816,15.998,27.816z"/>
</g>
</svg>
