<?xml version="1.0" encoding="utf-8"?>
<!-- Generator: Adobe Illustrator 21.1.0, SVG Export Plug-In . SVG Version: 6.00 Build 0)  -->
<svg version="1.1" id="Layer_1" xmlns="http://www.w3.org/2000/svg" xmlns:xlink="http://www.w3.org/1999/xlink" x="0px" y="0px"
	 viewBox="0 0 32 32" style="enable-background:new 0 0 32 32;" xml:space="preserve">
<style type="text/css">
	.st0{fill:#FFD93B;}
	.st1{fill:#F4C534;}
	.st2{fill:#3E4347;}
	.st3{fill:#FFFFFF;}
	.st4{fill:#5A5F63;}
	.st5{fill:#32373A;}
	.st6{fill:#E24B4B;}
	.st7{fill:#D03F3F;}
	.st8{opacity:0.2;}
	.st9{opacity:0.3;}
	.st10{fill:#AD2727;}
	.st11{fill:#E9EFF4;}
	.st12{fill:#DEE4E9;}
	.st13{fill:#65B1EF;}
	.st14{fill:#4E99D2;}
	.st15{opacity:0.25;}
	.st16{fill:#719D34;}
	.st17{fill:#38C0DC;}
	.st18{fill:#303538;}
	.st19{fill:#777B7E;}
	.st20{opacity:0.2;fill:#FFFFFF;}
	.st21{fill:#DE9C25;}
	.st22{fill:#45CBEA;}
	.st23{fill:#7A5B44;}
	.st24{fill:#8CC63E;}
</style>
<g>
	<g>
		<g>
			<g>
				<g>
					<g>
						<g>
							<g>
								<g>
									<g>
										<g>
											<g>
												<g>
													<g>
														<g>
															<g>
																<g>
																	<g>
																		<g>
																			<g>
																				<g>
																					<g>
																						<g>
																							<g>
																								<g>
																									<g>
																										<g>
																											<circle class="st0" cx="16" cy="16" r="16"/>
																										</g>
																									</g>
																								</g>
																							</g>
																						</g>
																						<g>
																							<g>
																								<g>
																									<g>
																										<g>
																											<path class="st1" d="M32,16c0,8.84-7.165,16-16,16c-5.03,0-9.52-2.32-12.455-5.955
																												c2.745,2.22,6.24,3.545,10.045,3.545c8.835,0,16-7.16,16-16c0-3.805-1.325-7.3-3.545-10.045
																												C29.675,6.48,32,10.97,32,16z"/>
																										</g>
																									</g>
																								</g>
																							</g>
																						</g>
																					</g>
																				</g>
																			</g>
																		</g>
																	</g>
																</g>
															</g>
														</g>
													</g>
												</g>
											</g>
										</g>
									</g>
								</g>
							</g>
						</g>
					</g>
				</g>
			</g>
		</g>
	</g>
	<g>
		<g>
			<g>
				<path class="st1" d="M15.381,13.849c0.226,2.804-1.405,5.076-3.644,5.076c-2.238,0-4.236-2.273-4.462-5.076
					c-0.226-2.804,1.405-5.076,3.643-5.076S15.155,11.045,15.381,13.849z"/>
				<g>
					<path class="st3" d="M14.698,13.852c0,2.435-1.508,4.416-3.374,4.416c-1.858,0-3.366-1.981-3.366-4.416
						c0-2.444,1.508-4.424,3.366-4.424C13.191,9.427,14.698,11.408,14.698,13.852z"/>
				</g>
				<g>
					<g>
						<ellipse class="st2" cx="11.683" cy="13.951" rx="2.402" ry="2.777"/>
					</g>
					<g>
						
							<ellipse transform="matrix(0.5079 -0.8614 0.8614 0.5079 -5.6904 15.5994)" class="st4" cx="10.807" cy="12.78" rx="0.853" ry="0.596"/>
					</g>
				</g>
			</g>
			<g>
				<path class="st2" d="M6.365,10.392c-0.061-0.042,3.583-4.559,6.951-3.093C12.201,5.306,9.24,3.914,6.365,10.392z"/>
			</g>
		</g>
		<g>
			<g>
				<path class="st1" d="M16.619,13.849c-0.226,2.804,1.405,5.076,3.644,5.076c2.238,0,4.236-2.273,4.462-5.076
					c0.226-2.804-1.405-5.076-3.643-5.076C18.843,8.772,16.845,11.045,16.619,13.849z"/>
				<g>
					<path class="st3" d="M17.301,13.852c0,2.435,1.508,4.416,3.374,4.416c1.858,0,3.366-1.981,3.366-4.416
						c0-2.444-1.508-4.424-3.366-4.424C18.809,9.427,17.301,11.408,17.301,13.852z"/>
				</g>
				<g>
					<g>
						<ellipse class="st2" cx="20.317" cy="13.951" rx="2.402" ry="2.777"/>
					</g>
					<g>
						
							<ellipse transform="matrix(0.8615 -0.5078 0.5078 0.8615 -3.5539 12.5325)" class="st4" cx="21.193" cy="12.78" rx="0.596" ry="0.853"/>
					</g>
				</g>
			</g>
			<g>
				<path class="st2" d="M25.635,10.392c0.061-0.042-3.583-4.559-6.951-3.093C19.799,5.306,22.76,3.914,25.635,10.392z"/>
			</g>
		</g>
	</g>
	<g>
		<g>
			<g>
				<path class="st2" d="M19.237,28.898c-2.392,0.597-4.287,0.632-6.83-0.04c-0.296-2.592,0.08-5.55,0.72-8.03
					c2.395-0.464,3.691-0.347,5.41-0.03C19.68,23.769,20.099,25.88,19.237,28.898z"/>
			</g>
		</g>
		<g>
			<path class="st6" d="M18.124,28.326c0.082-0.443,0.128-0.824,0.128-1.039c0-0.833-0.671-1.504-1.504-1.504
				c-0.359,0-0.684,0.129-0.942,0.339c-0.217-0.122-0.461-0.189-0.725-0.189c-0.833,0-1.504,0.67-1.504,1.504
				c0,0.191,0.037,0.512,0.101,0.89H18.124z"/>
		</g>
		<path class="st3" d="M18.527,22.231c-0.109-0.326-0.228-0.657-0.358-0.993c-1.544-0.298-3.087-0.293-4.631,0.015
			c-0.077,0.337-0.148,0.672-0.215,1.005C15.058,22.418,16.793,22.411,18.527,22.231z"/>
		<path class="st3" d="M12.824,27.789c0.011,0.226,0.024,0.451,0.045,0.675c1.99,0.511,3.98,0.518,5.97,0.02
			c0.069-0.239,0.118-0.475,0.167-0.71C16.945,27.556,14.884,27.559,12.824,27.789z"/>
	</g>
</g>
</svg>
