<?xml version="1.0" encoding="utf-8"?>
<!-- Generator: Adobe Illustrator 21.1.0, SVG Export Plug-In . SVG Version: 6.00 Build 0)  -->
<svg version="1.1" id="Layer_1" xmlns="http://www.w3.org/2000/svg" xmlns:xlink="http://www.w3.org/1999/xlink" x="0px" y="0px"
	 viewBox="0 0 32 32" style="enable-background:new 0 0 32 32;" xml:space="preserve">
<style type="text/css">
	.st0{fill:#FFD93B;}
	.st1{fill:#F4C534;}
	.st2{fill:#3E4347;}
	.st3{fill:#FFFFFF;}
	.st4{fill:#5A5F63;}
	.st5{fill:#32373A;}
	.st6{fill:#E24B4B;}
	.st7{fill:#D03F3F;}
	.st8{opacity:0.2;}
	.st9{opacity:0.3;}
	.st10{fill:#AD2727;}
	.st11{fill:#E9EFF4;}
	.st12{fill:#DEE4E9;}
	.st13{fill:#65B1EF;}
	.st14{fill:#4E99D2;}
	.st15{opacity:0.25;}
	.st16{fill:#719D34;}
	.st17{fill:#38C0DC;}
	.st18{fill:#303538;}
	.st19{fill:#777B7E;}
	.st20{opacity:0.2;fill:#FFFFFF;}
	.st21{fill:#DE9C25;}
	.st22{fill:#45CBEA;}
	.st23{fill:#7A5B44;}
	.st24{fill:#8CC63E;}
</style>
<g>
	<g>
		<g>
			<g>
				<g>
					<g>
						<g>
							<g>
								<g>
									<g>
										<g>
											<g>
												<g>
													<g>
														<g>
															<g>
																<g>
																	<g>
																		<g>
																			<g>
																				<g>
																					<g>
																						<g>
																							<g>
																								<g>
																									<g>
																										<g>
																											<circle class="st0" cx="16" cy="16" r="16"/>
																										</g>
																									</g>
																								</g>
																							</g>
																						</g>
																						<g>
																							<g>
																								<g>
																									<g>
																										<g>
																											<path class="st1" d="M32,16c0,8.84-7.165,16-16,16c-5.03,0-9.52-2.32-12.455-5.955
																												c2.745,2.22,6.24,3.545,10.045,3.545c8.835,0,16-7.16,16-16c0-3.805-1.325-7.3-3.545-10.045
																												C29.675,6.48,32,10.97,32,16z"/>
																										</g>
																									</g>
																								</g>
																							</g>
																						</g>
																					</g>
																				</g>
																			</g>
																		</g>
																	</g>
																</g>
															</g>
														</g>
													</g>
												</g>
											</g>
										</g>
									</g>
								</g>
							</g>
						</g>
					</g>
				</g>
			</g>
		</g>
	</g>
	<g>
		<path class="st2" d="M27.844,12.257c-0.151,0.789-0.301,1.578-0.452,2.367c-1.35-1.973-4.076-3.333-7.052-3.17
			c-0.617,0.04-1.198,0.15-1.752,0.307c-0.246-1.2-0.509-2.398-0.787-3.595c0.343,0.739,0.675,1.482,0.996,2.226
			C18.699,9.594,18.596,8.797,18.488,8c0.364-0.073,0.755-0.117,1.144-0.139c1.884-0.121,3.716,0.323,5.167,1.146
			c-0.015,0.705-0.031,1.41-0.051,2.114c0.123-0.642,0.247-1.284,0.372-1.926c0.381,0.239,0.729,0.491,1.042,0.777
			c-0.057,0.625-0.115,1.251-0.174,1.877c0.145-0.544,0.292-1.087,0.439-1.63C27.048,10.818,27.529,11.515,27.844,12.257z"/>
		<path class="st1" d="M25.199,16.671c-0.315,1.806-2.215,2.979-4.256,2.773c-2.041-0.214-3.654-1.754-3.594-3.584
			c0.059-1.824,1.977-3.244,4.274-3.006C23.92,13.089,25.514,14.871,25.199,16.671z"/>
		<g>
			<path class="st3" d="M24.84,16.613c-0.102,1.546-1.704,2.534-3.575,2.336c-1.871-0.204-3.459-1.526-3.553-3.071
				c-0.095-1.538,1.498-2.734,3.566-2.529C23.346,13.549,24.942,15.072,24.84,16.613z"/>
		</g>
		<g>
			<path class="st2" d="M22.401,16.42c-0.11,0.873-1.024,1.482-2.044,1.389c-1.01-0.097-1.797-0.858-1.747-1.736
				c0.051-0.885,0.969-1.551,2.038-1.453C21.729,14.719,22.511,15.54,22.401,16.42z"/>
			<g>
				<path class="st4" d="M19.801,15.868c-0.11,0.226-0.357,0.339-0.555,0.264c-0.191-0.072-0.252-0.313-0.13-0.533
					c0.108-0.229,0.366-0.34,0.559-0.265C19.868,15.41,19.926,15.65,19.801,15.868z"/>
			</g>
		</g>
		<path class="st2" d="M4.156,12.257c0.151,0.789,0.301,1.578,0.452,2.367c1.35-1.973,4.076-3.333,7.053-3.17
			c0.616,0.04,1.198,0.15,1.752,0.307c0.246-1.2,0.509-2.398,0.787-3.595c-0.343,0.739-0.675,1.482-0.996,2.226
			C13.301,9.594,13.404,8.797,13.511,8c-0.364-0.073-0.755-0.117-1.144-0.139C10.483,7.739,8.651,8.183,7.2,9.007
			c0.014,0.705,0.031,1.41,0.05,2.114c-0.123-0.642-0.247-1.284-0.372-1.926C6.498,9.433,6.15,9.685,5.836,9.971
			c0.057,0.625,0.115,1.251,0.174,1.877c-0.145-0.544-0.292-1.087-0.439-1.63C4.952,10.818,4.471,11.515,4.156,12.257z"/>
		<path class="st1" d="M6.8,16.671c0.315,1.806,2.215,2.979,4.256,2.773c2.041-0.214,3.654-1.754,3.594-3.584
			c-0.059-1.824-1.977-3.244-4.274-3.006C8.08,13.089,6.485,14.871,6.8,16.671z"/>
		<g>
			<path class="st3" d="M7.16,16.613c0.102,1.546,1.704,2.534,3.575,2.336c1.871-0.204,3.458-1.526,3.553-3.071
				c0.095-1.54-1.499-2.733-3.566-2.529C8.654,13.549,7.058,15.072,7.16,16.613z"/>
		</g>
		<g>
			<path class="st2" d="M9.599,16.42c0.11,0.873,1.024,1.482,2.044,1.389c1.01-0.097,1.797-0.858,1.746-1.736
				c-0.051-0.885-0.969-1.551-2.038-1.453C10.272,14.719,9.488,15.54,9.599,16.42z"/>
			<g>
				<path class="st4" d="M12.199,15.868c0.11,0.226,0.357,0.339,0.555,0.264c0.191-0.072,0.252-0.313,0.13-0.533
					c-0.108-0.229-0.366-0.34-0.559-0.265C12.132,15.41,12.074,15.65,12.199,15.868z"/>
			</g>
		</g>
	</g>
	<g>
		<path class="st2" d="M14.573,25.322c0.03-0.004,1.027,0.148,1.59,0.146c0.835,0.005,1.216-0.144,1.59-0.146
			c-0.248,0.5-0.906,0.893-1.59,0.895C15.462,26.213,14.801,25.797,14.573,25.322z"/>
		<g>
			<path class="st2" d="M21.812,23.837c0.079,0.213-11.7,0.26-11.623,0.032C10.215,23.24,21.705,23.227,21.812,23.837z"/>
		</g>
	</g>
</g>
</svg>
