<?xml version="1.0" encoding="utf-8"?>
<!-- Generator: Adobe Illustrator 21.1.0, SVG Export Plug-In . SVG Version: 6.00 Build 0)  -->
<svg version="1.1" id="Layer_1" xmlns="http://www.w3.org/2000/svg" xmlns:xlink="http://www.w3.org/1999/xlink" x="0px" y="0px"
	 viewBox="0 0 32 32" style="enable-background:new 0 0 32 32;" xml:space="preserve">
<style type="text/css">
	.st0{fill:#FFD93B;}
	.st1{fill:#3E4347;}
	.st2{fill:#F4C534;}
	.st3{fill:#38C0DC;}
	.st4{fill:#45CBEA;}
	.st5{fill:#FFFFFF;}
	.st6{fill:#E24B4B;}
	.st7{fill:#5A5F63;}
	.st8{opacity:0.3;}
	.st9{opacity:0.2;}
	.st10{opacity:0.1;}
	.st11{fill:#E9B02C;}
	.st12{fill:#65B1EF;}
	.st13{fill:#E9EFF4;}
	.st14{fill:#8CC63E;}
	.st15{fill:#7FB239;}
	.st16{fill:#D03F3F;}
	.st17{fill:#D23F77;}
	.st18{fill:#E84D88;}
	.st19{fill:#59A5E0;}
	.st20{fill:#DEE4E9;}
	.st21{fill:#D3D9DD;}
	.st22{opacity:0.25;fill:#FFFFFF;}
	.st23{fill:#9A795F;}
	.st24{fill:#F29A2E;}
	.st25{fill:#FC97B2;}
	.st26{fill:#89664C;}
	.st27{fill:#7A5B44;}
	.st28{opacity:0.2;fill:#FFFFFF;}
	.st29{fill:#4E99D2;}
	.st30{fill:#BBC7D1;}
	.st31{fill:#DE9C25;}
</style>
<g>
	<g>
		<g>
			<g>
				<g>
					<g>
						<g>
							<g>
								<g>
									<g>
										<g>
											<g>
												<g>
													<g>
														<g>
															<g>
																<g>
																	<g>
																		<g>
																			<circle class="st0" cx="16" cy="16" r="16"/>
																		</g>
																	</g>
																</g>
															</g>
														</g>
													</g>
												</g>
											</g>
										</g>
										<g>
											<g>
												<g>
													<g>
														<g>
															<g>
																<g>
																	<g>
																		<g>
																			<path class="st2" d="M32,16c0,8.84-7.165,16-16,16c-5.03,0-9.52-2.32-12.455-5.955
																				c2.745,2.22,6.24,3.545,10.045,3.545c8.835,0,16-7.16,16-16c0-3.805-1.325-7.3-3.545-10.045
																				C29.675,6.48,32,10.97,32,16z"/>
																		</g>
																	</g>
																</g>
															</g>
														</g>
													</g>
												</g>
											</g>
										</g>
									</g>
								</g>
							</g>
						</g>
					</g>
				</g>
			</g>
		</g>
	</g>
	<g>
		<g>
			<g>
				<path class="st5" d="M26.397,13.706c0.447,3.148-1.227,5.981-3.738,6.338c-2.512,0.357-4.908-1.898-5.356-5.046
					c-0.447-3.148,1.225-5.991,3.737-6.348C23.552,8.293,25.95,10.559,26.397,13.706z"/>
			</g>
			<g>
				<g>
					<path class="st1" d="M23.966,16.161c0,1.24-1,2.25-2.24,2.25c-1.25,0-2.26-1.01-2.26-2.25s1.01-2.25,2.26-2.25
						C22.966,13.911,23.966,14.921,23.966,16.161z"/>
				</g>
				<g>
					<path class="st5" d="M22.976,15.821c-0.17,0.17-0.51,0.11-0.76-0.14c-0.25-0.26-0.32-0.6-0.15-0.77
						c0.17-0.17,0.5-0.11,0.76,0.14C23.076,15.311,23.146,15.651,22.976,15.821z"/>
				</g>
			</g>
		</g>
		<g>
			<path class="st1" d="M19.096,6.94c0,0,1.681,2.418,7.373,1.724C26.469,8.664,18.388,12.315,19.096,6.94z"/>
		</g>
	</g>
	<g>
		<g>
			<g>
				<path class="st5" d="M5.603,13.706c-0.447,3.148,1.227,5.981,3.738,6.338c2.512,0.357,4.908-1.898,5.356-5.046
					c0.447-3.148-1.225-5.991-3.737-6.348C8.448,8.293,6.05,10.559,5.603,13.706z"/>
			</g>
			<g>
				<g>
					<path class="st1" d="M12.534,16.161c0,1.24-1,2.25-2.24,2.25c-1.25,0-2.26-1.01-2.26-2.25s1.01-2.25,2.26-2.25
						C11.534,13.911,12.534,14.921,12.534,16.161z"/>
				</g>
				<g>
					<path class="st5" d="M11.544,15.821c-0.17,0.17-0.51,0.11-0.76-0.14c-0.25-0.26-0.32-0.6-0.15-0.77
						c0.17-0.17,0.5-0.11,0.76,0.14C11.644,15.311,11.714,15.651,11.544,15.821z"/>
				</g>
			</g>
		</g>
		<g>
			<path class="st1" d="M11.641,5.111c0,0-0.601,2.883-6.111,4.472C5.531,9.583,14.397,9.78,11.641,5.111z"/>
		</g>
	</g>
	<path class="st1" d="M21.1,23.921c0,0.6-0.49,1.08-1.09,1.08h-8.02c-0.6,0-1.09-0.48-1.09-1.08c0-0.6,0.49-1.09,1.09-1.09h8.02
		C20.61,22.831,21.1,23.321,21.1,23.921z"/>
</g>
</svg>
