<?xml version="1.0" encoding="utf-8"?>
<!-- Generator: Adobe Illustrator 21.1.0, SVG Export Plug-In . SVG Version: 6.00 Build 0)  -->
<svg version="1.1" id="Layer_1" xmlns="http://www.w3.org/2000/svg" xmlns:xlink="http://www.w3.org/1999/xlink" x="0px" y="0px"
	 viewBox="0 0 32 32" style="enable-background:new 0 0 32 32;" xml:space="preserve">
<style type="text/css">
	.st0{fill:#FFD93B;}
	.st1{fill:#F4C534;}
	.st2{fill:#3E4347;}
	.st3{fill:#FFFFFF;}
	.st4{fill:#5A5F63;}
	.st5{fill:#32373A;}
	.st6{fill:#E24B4B;}
	.st7{fill:#D03F3F;}
	.st8{opacity:0.2;}
	.st9{opacity:0.3;}
	.st10{fill:#AD2727;}
	.st11{fill:#E9EFF4;}
	.st12{fill:#DEE4E9;}
	.st13{fill:#65B1EF;}
	.st14{fill:#4E99D2;}
	.st15{opacity:0.25;}
	.st16{fill:#719D34;}
	.st17{fill:#38C0DC;}
	.st18{fill:#303538;}
	.st19{fill:#777B7E;}
	.st20{opacity:0.2;fill:#FFFFFF;}
	.st21{fill:#DE9C25;}
	.st22{fill:#45CBEA;}
	.st23{fill:#7A5B44;}
	.st24{fill:#8CC63E;}
</style>
<g>
	<g>
		<g>
			<g>
				<g>
					<g>
						<g>
							<g>
								<g>
									<g>
										<g>
											<g>
												<g>
													<g>
														<g>
															<g>
																<g>
																	<g>
																		<g>
																			<g>
																				<g>
																					<g>
																						<g>
																							<g>
																								<g>
																									<g>
																										<g>
																											<g>
																												<circle class="st0" cx="16" cy="16" r="16"/>
																											</g>
																										</g>
																									</g>
																								</g>
																							</g>
																							<g>
																								<g>
																									<g>
																										<g>
																											<g>
																												<path class="st1" d="M32,16c0,8.84-7.165,16-16,16c-5.03,0-9.52-2.32-12.455-5.955
																													c2.745,2.22,6.24,3.545,10.045,3.545c8.835,0,16-7.16,16-16c0-3.805-1.325-7.3-3.545-10.045
																													C29.675,6.48,32,10.97,32,16z"/>
																											</g>
																										</g>
																									</g>
																								</g>
																							</g>
																						</g>
																					</g>
																				</g>
																			</g>
																		</g>
																	</g>
																</g>
															</g>
														</g>
													</g>
												</g>
											</g>
										</g>
									</g>
								</g>
							</g>
						</g>
					</g>
				</g>
			</g>
		</g>
	</g>
	<g>
		<g>
			<g>
				<path class="st2" d="M13.047,6.151c-2.136-0.824-4.183-0.525-5.471,0.933c0.839-2.369,3.127-3.381,5.256-2.867L13.047,6.151z"/>
			</g>
			<g>
				<path class="st2" d="M15.407,13.436c0.009,3.115-1.992,5.641-4.469,5.641c-2.477,0-4.491-2.525-4.5-5.641
					c-0.009-3.115,1.992-5.641,4.469-5.641C13.383,7.795,15.398,10.321,15.407,13.436z"/>
			</g>
			<g>
				<path class="st3" d="M14.605,13.436c0.207,2.721-1.274,4.927-3.308,4.927c-2.034,0-3.851-2.206-4.058-4.927
					s1.274-4.927,3.308-4.927C12.581,8.508,14.398,10.714,14.605,13.436z"/>
			</g>
			<ellipse class="st2" cx="12.25" cy="14.305" rx="1.927" ry="2.156"/>
			<g>
				<path class="st4" d="M13.298,13.961c-0.214,0.196-0.599,0.111-0.87-0.178c-0.271-0.288-0.316-0.682-0.113-0.869
					c0.214-0.196,0.599-0.121,0.86,0.177C13.447,13.38,13.501,13.774,13.298,13.961z"/>
			</g>
		</g>
		<g>
			<g>
				<path class="st2" d="M18.952,6.151c2.136-0.824,4.183-0.525,5.471,0.933c-0.839-2.369-3.127-3.381-5.256-2.867L18.952,6.151z"/>
			</g>
			<g>
				<path class="st2" d="M16.593,13.436c-0.009,3.115,1.992,5.641,4.469,5.641c2.477,0,4.491-2.525,4.5-5.641
					c0.009-3.115-1.992-5.641-4.469-5.641C18.617,7.795,16.602,10.321,16.593,13.436z"/>
			</g>
			<g>
				<path class="st3" d="M17.395,13.436c-0.207,2.721,1.274,4.927,3.308,4.927s3.851-2.206,4.058-4.927
					c0.207-2.721-1.274-4.927-3.308-4.927C19.419,8.508,17.602,10.714,17.395,13.436z"/>
			</g>
			<ellipse class="st2" cx="19.75" cy="14.305" rx="1.927" ry="2.156"/>
			<g>
				<path class="st4" d="M18.702,13.961c0.213,0.196,0.599,0.111,0.87-0.178c0.271-0.288,0.315-0.682,0.113-0.869
					c-0.213-0.196-0.599-0.121-0.86,0.177C18.553,13.38,18.499,13.774,18.702,13.961z"/>
			</g>
		</g>
	</g>
	<g>
		<g>
			<g>
				<path class="st2" d="M24.401,23.098c0,0-0.472-0.614-1.04-1.02c-0.06-0.05-0.12-0.09-0.19-0.13
					c-0.985,2.959-4.055,4.123-7.16,4.24c-4.605-0.154-6.807-2.633-7.18-4.25c-0.06,0.05-0.13,0.09-0.2,0.14
					c-0.532,0.38-1.03,1.02-1.03,1.02c-0.066-0.33,0.174-1.021,0.74-1.42c0.477-0.365,1.196-0.461,1.57-0.33
					c-0.328,0.164-0.712,0.35-1.02,0.55c0.647,1.293,2.956,3.206,7.09,3.29c4.023-0.071,6.389-1.8,7.13-3.28
					c-0.416-0.27-0.591-0.333-1.02-0.56c0.374-0.131,1.093-0.035,1.57,0.33C24.113,21.996,24.401,22.495,24.401,23.098z"/>
			</g>
		</g>
	</g>
	<g>
		<path class="st1" d="M14.051,27.566c0.339,0.053,1.408,0.537,1.745,0.517c0.89,0.042,1.843-0.517,1.843-0.517
			c-0.171,0.64-0.872,1.254-1.799,1.226C14.907,28.753,14.189,28.121,14.051,27.566z"/>
	</g>
</g>
</svg>
