<?xml version="1.0" encoding="utf-8"?>
<!-- Generator: Adobe Illustrator 21.1.0, SVG Export Plug-In . SVG Version: 6.00 Build 0)  -->
<svg version="1.1" id="Layer_1" xmlns="http://www.w3.org/2000/svg" xmlns:xlink="http://www.w3.org/1999/xlink" x="0px" y="0px"
	 viewBox="0 0 32 32" style="enable-background:new 0 0 32 32;" xml:space="preserve">
<style type="text/css">
	.st0{fill:#FFD93B;}
	.st1{fill:#F4C534;}
	.st2{fill:#3E4347;}
	.st3{fill:#FFFFFF;}
	.st4{fill:#5A5F63;}
	.st5{fill:#32373A;}
	.st6{fill:#E24B4B;}
	.st7{fill:#D03F3F;}
	.st8{opacity:0.2;}
	.st9{opacity:0.3;}
	.st10{fill:#AD2727;}
	.st11{fill:#E9EFF4;}
	.st12{fill:#DEE4E9;}
	.st13{fill:#65B1EF;}
	.st14{fill:#4E99D2;}
	.st15{opacity:0.25;}
	.st16{fill:#719D34;}
	.st17{fill:#38C0DC;}
	.st18{fill:#303538;}
	.st19{fill:#777B7E;}
	.st20{opacity:0.2;fill:#FFFFFF;}
	.st21{fill:#DE9C25;}
	.st22{fill:#45CBEA;}
	.st23{fill:#7A5B44;}
	.st24{fill:#8CC63E;}
</style>
<g>
	<g>
		<g>
			<g>
				<g>
					<g>
						<g>
							<g>
								<g>
									<g>
										<g>
											<g>
												<g>
													<g>
														<g>
															<g>
																<g>
																	<g>
																		<g>
																			<g>
																				<g>
																					<g>
																						<g>
																							<g>
																								<g>
																									<g>
																										<g>
																											<g>
																												<circle class="st0" cx="16" cy="16" r="16"/>
																											</g>
																										</g>
																									</g>
																								</g>
																							</g>
																							<g>
																								<g>
																									<g>
																										<g>
																											<g>
																												<path class="st1" d="M32,16c0,8.84-7.165,16-16,16c-5.03,0-9.52-2.32-12.455-5.955
																													c2.745,2.22,6.24,3.545,10.045,3.545c8.835,0,16-7.16,16-16c0-3.805-1.325-7.3-3.545-10.045
																													C29.675,6.48,32,10.97,32,16z"/>
																											</g>
																										</g>
																									</g>
																								</g>
																							</g>
																						</g>
																					</g>
																				</g>
																			</g>
																		</g>
																	</g>
																</g>
															</g>
														</g>
													</g>
												</g>
											</g>
										</g>
									</g>
								</g>
							</g>
						</g>
					</g>
				</g>
			</g>
		</g>
	</g>
	<g>
		<g>
			<path class="st2" d="M21.269,27.014c-0.47,0.01-1.013-0.219-1.65-0.48c-0.95-0.407-2.151-0.908-3.592-0.867
				c-1.431,0.031-2.59,0.522-3.519,0.898c-1.774,0.742-2.93,0.825-3.018-1.462c-0.043-2.764,2.988-6.202,6.38-6.307
				c2.976-0.052,6.61,2.401,6.683,5.513C22.58,25.554,22.505,26.958,21.269,27.014z"/>
		</g>
	</g>
	<g>
		<path class="st3" d="M20.402,26.304c-3.678-1.389-4.156-1.723-8.604,0.01c0.13-0.348,0.762-2.277,0.762-2.6
			c0.668-0.313,1.399-0.668,2.224-0.856c-0.794,0.084-1.535,0.313-2.193,0.543c0.047-0.852-0.22-1.47-0.553-2.381
			c2.402-2.262,5.378-2.184,7.853-0.345c-0.282,0.847-0.633,1.834-0.491,2.663c-0.459-0.157-0.919-0.292-1.848-0.449
			c1.013,0.345,1.42,0.553,1.921,0.815C19.713,24.56,20.016,25.427,20.402,26.304z"/>
	</g>
	<g>
		<g>
			<g>
				<path class="st1" d="M16.855,13.595c-0.211,2.362,1.833,3.842,4.174,4.698c2.372,0.765,4.894,0.852,6.18-1.141
					c1.286-1.948,0.167-6.059-3.296-7.254C20.447,8.71,17.037,11.268,16.855,13.595z"/>
			</g>
			<g>
				<path class="st3" d="M17.807,13.296c-0.381,2.02,1.205,3.431,3.094,4.324c1.923,0.816,4.031,1.059,5.281-0.572
					c1.247-1.592,0.663-5.208-2.137-6.467C21.242,9.327,18.161,11.303,17.807,13.296z"/>
			</g>
			<g>
				<g>
					
						<ellipse transform="matrix(0.7071 -0.7071 0.7071 0.7071 -3.7674 18.9473)" class="st2" cx="20.988" cy="14.021" rx="2.033" ry="2.029"/>
				</g>
				<g>
					<path class="st4" d="M19.696,13.712c0.156,0.165,0.485,0.101,0.724-0.137c0.229-0.238,0.293-0.559,0.137-0.714
						c-0.165-0.165-0.486-0.101-0.724,0.137C19.595,13.236,19.531,13.556,19.696,13.712z"/>
				</g>
			</g>
		</g>
	</g>
	<g>
		<g>
			<g>
				<path class="st1" d="M15.146,13.595c0.211,2.362-1.833,3.842-4.174,4.698c-2.372,0.765-4.894,0.852-6.18-1.141
					c-1.286-1.948-0.167-6.059,3.296-7.254C11.553,8.71,14.963,11.268,15.146,13.595z"/>
			</g>
			<g>
				<path class="st3" d="M14.193,13.296c0.381,2.02-1.205,3.431-3.094,4.324c-1.923,0.816-4.031,1.059-5.281-0.572
					c-1.247-1.592-0.664-5.208,2.137-6.467C10.758,9.327,13.839,11.303,14.193,13.296z"/>
			</g>
			<g>
				<g>
					
						<ellipse transform="matrix(0.7071 -0.7071 0.7071 0.7071 -6.6894 11.8939)" class="st2" cx="11.012" cy="14.021" rx="2.029" ry="2.033"/>
				</g>
				<g>
					<path class="st4" d="M12.304,13.712c-0.156,0.165-0.485,0.101-0.724-0.137c-0.229-0.238-0.293-0.559-0.137-0.714
						c0.165-0.165,0.485-0.101,0.724,0.137C12.405,13.236,12.469,13.556,12.304,13.712z"/>
				</g>
			</g>
		</g>
	</g>
	<g>
		<path class="st2" d="M26.325,8.583c0.088,0.54-0.786-0.189-0.961-0.273c-1.608-0.82-3.631-0.558-5.068,0.36
			c-0.419,0.274-0.796,0.612-1.262,0.843c-0.786,0.38-1.771,0.362-2.493,0c0.575,0.197,1.452,0.004,2.382-0.976
			c0.337-0.355,0.643-0.739,1.041-1.045C22.579,5.483,26.168,7.687,26.325,8.583z"/>
	</g>
	<g>
		<path class="st2" d="M5.675,8.583C5.587,9.123,6.461,8.394,6.636,8.31c1.608-0.82,3.631-0.558,5.068,0.36
			c0.419,0.274,0.796,0.612,1.262,0.843c0.786,0.38,1.771,0.362,2.493,0c-0.575,0.197-1.452,0.004-2.383-0.976
			c-0.337-0.355-0.643-0.739-1.041-1.045C9.421,5.483,5.832,7.687,5.675,8.583z"/>
	</g>
</g>
</svg>
