<?xml version="1.0" encoding="utf-8"?>
<!-- Generator: Adobe Illustrator 21.1.0, SVG Export Plug-In . SVG Version: 6.00 Build 0)  -->
<svg version="1.1" id="Layer_1" xmlns="http://www.w3.org/2000/svg" xmlns:xlink="http://www.w3.org/1999/xlink" x="0px" y="0px"
	 viewBox="0 0 32 32" style="enable-background:new 0 0 32 32;" xml:space="preserve">
<style type="text/css">
	.st0{fill:#FFD93B;}
	.st1{fill:#F4C534;}
	.st2{fill:#3E4347;}
	.st3{fill:#FFFFFF;}
	.st4{fill:#5A5F63;}
	.st5{fill:#32373A;}
	.st6{fill:#E24B4B;}
	.st7{fill:#D03F3F;}
	.st8{opacity:0.2;}
	.st9{opacity:0.3;}
	.st10{fill:#AD2727;}
	.st11{fill:#E9EFF4;}
	.st12{fill:#DEE4E9;}
	.st13{fill:#65B1EF;}
	.st14{fill:#4E99D2;}
	.st15{opacity:0.25;}
	.st16{fill:#719D34;}
	.st17{fill:#38C0DC;}
	.st18{fill:#303538;}
	.st19{fill:#777B7E;}
	.st20{opacity:0.2;fill:#FFFFFF;}
	.st21{fill:#DE9C25;}
	.st22{fill:#45CBEA;}
	.st23{fill:#7A5B44;}
	.st24{fill:#8CC63E;}
</style>
<g>
	<g>
		<g>
			<g>
				<g>
					<g>
						<g>
							<g>
								<g>
									<g>
										<g>
											<g>
												<g>
													<g>
														<g>
															<g>
																<g>
																	<g>
																		<g>
																			<g>
																				<g>
																					<g>
																						<g>
																							<g>
																								<g>
																									<g>
																										<circle class="st0" cx="16" cy="16" r="16"/>
																									</g>
																								</g>
																							</g>
																						</g>
																					</g>
																					<g>
																						<g>
																							<g>
																								<g>
																									<g>
																										<path class="st1" d="M32,16c0,8.84-7.165,16-16,16c-5.03,0-9.52-2.32-12.455-5.955
																											c2.745,2.22,6.24,3.545,10.045,3.545c8.835,0,16-7.16,16-16c0-3.805-1.325-7.3-3.545-10.045
																											C29.675,6.48,32,10.97,32,16z"/>
																									</g>
																								</g>
																							</g>
																						</g>
																					</g>
																				</g>
																			</g>
																		</g>
																	</g>
																</g>
															</g>
														</g>
													</g>
												</g>
											</g>
										</g>
									</g>
								</g>
							</g>
						</g>
					</g>
				</g>
			</g>
		</g>
	</g>
	<circle class="st1" cx="21.182" cy="12.983" r="4.688"/>
	<path class="st3" d="M17.203,12.983c-0.115,2.14,1.573,3.875,3.771,3.875c2.198,0,4.073-1.735,4.188-3.875
		c0.115-2.14-1.573-3.875-3.771-3.875S17.318,10.842,17.203,12.983z"/>
	<path class="st2" d="M17.854,13.764c0,1.17,0.82,2.13,1.84,2.13c1.02,0,1.84-0.96,1.84-2.13c0-1.18-0.82-2.14-1.84-2.14
		C18.674,11.625,17.854,12.584,17.854,13.764z"/>
	<path class="st4" d="M18.593,13.194c0.15,0.15,0.45,0.09,0.68-0.14c0.23-0.23,0.29-0.53,0.14-0.68c-0.14-0.14-0.45-0.08-0.67,0.15
		C18.513,12.744,18.453,13.054,18.593,13.194z"/>
	<path class="st2" d="M18.468,7.428c0,0,4.624-1.728,8.006,2.615C26.474,10.042,21.942,1.724,18.468,7.428z"/>
	<circle class="st1" cx="10.818" cy="12.983" r="4.688"/>
	<path class="st3" d="M14.797,12.983c0.115,2.14-1.573,3.875-3.771,3.875c-2.198,0-4.072-1.735-4.187-3.875
		c-0.115-2.14,1.573-3.875,3.771-3.875C12.807,9.108,14.682,10.842,14.797,12.983z"/>
	<path class="st2" d="M14.146,13.764c0,1.17-0.82,2.13-1.84,2.13s-1.84-0.96-1.84-2.13c0-1.18,0.82-2.14,1.84-2.14
		S14.146,12.584,14.146,13.764z"/>
	<path class="st4" d="M13.407,13.194c-0.15,0.15-0.45,0.09-0.68-0.14c-0.23-0.23-0.29-0.53-0.14-0.68c0.14-0.14,0.45-0.08,0.67,0.15
		C13.487,12.744,13.547,13.054,13.407,13.194z"/>
	<path class="st2" d="M13.532,7.428c0,0-4.624-1.728-8.006,2.615C5.526,10.042,10.058,1.724,13.532,7.428z"/>
	<path class="st2" d="M8.989,21.32c0.175,3.649,3.242,6.558,7.011,6.558s6.837-2.908,7.011-6.558
		C18.263,23.499,13.59,23.465,8.989,21.32z"/>
	<path class="st6" d="M16.993,25.156c-0.452,0-0.859,0.195-1.142,0.504c-0.213-0.115-0.452-0.177-0.708-0.177
		c-0.777,0-1.411,0.567-1.526,1.311c0.739,0.29,1.539,0.463,2.383,0.463c0.906,0,1.759-0.202,2.542-0.534
		c0-0.005,0.001-0.013,0.001-0.018C18.542,25.847,17.852,25.156,16.993,25.156z"/>
	<path class="st2" d="M22.034,20.471c0.811,0.774,1.51,0.9,2.277,1.312C23.281,22.1,22.05,21.239,22.034,20.471z"/>
	<path class="st2" d="M9.967,20.471C9.95,21.241,8.718,22.1,7.689,21.783C8.467,21.366,9.152,21.249,9.967,20.471z"/>
	<path class="st3" d="M20.118,23.013l-0.089,1.354l-0.549,0.204l-0.407-1.311C19.428,23.19,19.773,23.111,20.118,23.013z"/>
	<path class="st3" d="M18.215,23.403l-0.124,1.231c-0.93,0.044-1.886,0.009-2.869-0.097l-0.133-1.001
		c0.292,0.018,0.593,0.027,0.885,0.027C16.718,23.562,17.471,23.509,18.215,23.403z"/>
	<path class="st3" d="M17.586,27.06c-0.505,0.124-1.036,0.195-1.585,0.195c-0.097,0-0.204,0-0.301-0.018l0.026-0.797
		c0.602-0.027,1.213-0.009,1.842,0.062L17.586,27.06z"/>
	<path class="st3" d="M13.92,23.421l-0.469,1.116l-1.691-0.655l-0.097-0.921C12.415,23.173,13.168,23.332,13.92,23.421z"/>
</g>
</svg>
