<?xml version="1.0" encoding="utf-8"?>
<!-- Generator: Adobe Illustrator 21.1.0, SVG Export Plug-In . SVG Version: 6.00 Build 0)  -->
<svg version="1.1" id="Layer_1" xmlns="http://www.w3.org/2000/svg" xmlns:xlink="http://www.w3.org/1999/xlink" x="0px" y="0px"
	 viewBox="0 0 32 32" style="enable-background:new 0 0 32 32;" xml:space="preserve">
<style type="text/css">
	.st0{fill:#FFD93B;}
	.st1{fill:#F4C534;}
	.st2{fill:#3E4347;}
	.st3{fill:#FFFFFF;}
	.st4{fill:#5A5F63;}
	.st5{fill:#32373A;}
	.st6{fill:#E24B4B;}
	.st7{fill:#D03F3F;}
	.st8{opacity:0.2;}
	.st9{opacity:0.3;}
	.st10{fill:#AD2727;}
	.st11{fill:#E9EFF4;}
	.st12{fill:#DEE4E9;}
	.st13{fill:#65B1EF;}
	.st14{fill:#4E99D2;}
	.st15{opacity:0.25;}
	.st16{fill:#719D34;}
	.st17{fill:#38C0DC;}
	.st18{fill:#303538;}
	.st19{fill:#777B7E;}
	.st20{opacity:0.2;fill:#FFFFFF;}
	.st21{fill:#DE9C25;}
	.st22{fill:#45CBEA;}
	.st23{fill:#7A5B44;}
	.st24{fill:#8CC63E;}
</style>
<g>
	<g>
		<g>
			<g>
				<g>
					<g>
						<g>
							<g>
								<g>
									<g>
										<g>
											<g>
												<g>
													<g>
														<g>
															<g>
																<g>
																	<g>
																		<g>
																			<g>
																				<g>
																					<g>
																						<g>
																							<g>
																								<g>
																									<g>
																										<g>
																											<g>
																												<circle class="st0" cx="16" cy="16" r="16"/>
																											</g>
																										</g>
																									</g>
																								</g>
																							</g>
																							<g>
																								<g>
																									<g>
																										<g>
																											<g>
																												<path class="st1" d="M32,16c0,8.84-7.165,16-16,16c-5.03,0-9.52-2.32-12.455-5.955
																													c2.745,2.22,6.24,3.545,10.045,3.545c8.835,0,16-7.16,16-16c0-3.805-1.325-7.3-3.545-10.045
																													C29.675,6.48,32,10.97,32,16z"/>
																											</g>
																										</g>
																									</g>
																								</g>
																							</g>
																						</g>
																					</g>
																				</g>
																			</g>
																		</g>
																	</g>
																</g>
															</g>
														</g>
													</g>
												</g>
											</g>
										</g>
									</g>
								</g>
							</g>
						</g>
					</g>
				</g>
			</g>
		</g>
		<g>
			<g>
				<path class="st2" d="M26.208,7.979c0,0-3.516-5.306-8.526-3.567C17.681,4.412,21.82-1.194,26.208,7.979z"/>
			</g>
		</g>
		<g>
			<g>
				<path class="st2" d="M5.849,8.101c0,0,3.351-5.411,8.413-3.828C14.262,4.273,9.953-1.203,5.849,8.101z"/>
			</g>
		</g>
		<g>
			
				<ellipse transform="matrix(0.2779 -0.9606 0.9606 0.2779 2.9063 29.8746)" class="st1" cx="21.325" cy="13.004" rx="4.385" ry="4.382"/>
		</g>
		<g>
			<path class="st3" d="M17.712,11.957c-0.443,2.036,0.813,4.157,2.81,4.735c1.997,0.578,3.973-0.608,4.416-2.644
				c0.443-2.036-0.814-4.151-2.811-4.729C20.13,8.741,18.156,9.921,17.712,11.957z"/>
		</g>
		<g>
			
				<ellipse transform="matrix(0.9606 -0.2779 0.2779 0.9606 -3.1937 3.4793)" class="st1" cx="10.675" cy="13.004" rx="4.382" ry="4.385"/>
		</g>
		<g>
			<path class="st3" d="M14.288,11.957c0.443,2.036-0.813,4.157-2.81,4.735c-1.997,0.578-3.973-0.608-4.416-2.644
				c-0.443-2.036,0.814-4.151,2.811-4.729C11.87,8.741,13.844,9.921,14.288,11.957z"/>
		</g>
		<path class="st3" d="M10.683,26.436c0.155-0.146,0.313-0.289,0.474-0.43c-0.012,0.281-0.022,0.561-0.028,0.841
			c0.236-0.058,0.473-0.112,0.711-0.16c-0.055,0.21-0.107,0.421-0.156,0.632c0.239-0.201,0.486-0.396,0.739-0.587
			c-0.145,0.289-0.283,0.58-0.412,0.871c0.18,0.01,0.359,0.024,0.538,0.039c0,0.003-0.022,0.206-0.044,0.378
			c0.152-0.199,0.332-0.414,0.335-0.431c0.007,0.006-0.005,0.114-0.018,0.251c2.374-2.323,5.678-4.182,9.654-5.018
			c0.132-0.197,0.266-0.393,0.402-0.589c-0.289-0.083-0.58-0.161-0.872-0.234c0.167-0.158,0.336-0.315,0.509-0.47
			c-0.392,0.041-0.779,0.093-1.162,0.153c0.299-0.198,0.605-0.39,0.918-0.576c-0.217-0.105-0.437-0.207-0.658-0.307
			c0-0.003,0.126-0.178,0.239-0.317c-0.301,0.102-0.628,0.22-0.644,0.224c-0.007-0.009,0.29-0.43,0.421-0.629
			c-0.102,0.008-0.203,0.017-0.305,0.027c0.027-0.156,0.053-0.311,0.08-0.467c-4.753,1.135-8.639,3.557-11.324,6.518
			c0.192-0.117,0.386-0.231,0.583-0.342C10.669,26.021,10.675,26.229,10.683,26.436z"/>
		<path class="st3" d="M10.272,20.615c0.249,0.056,0.495,0.114,0.739,0.177c-0.373,0.127-0.742,0.261-1.108,0.404
			c0.172,0.165,0.341,0.333,0.508,0.501c-0.288,0.067-0.576,0.139-0.863,0.217c0.364,0.087,0.722,0.181,1.075,0.283
			c-0.421,0.039-0.842,0.089-1.265,0.15c0.079,0.156,0.157,0.312,0.235,0.468c0-0.001-0.258,0.107-0.471,0.188
			c0.322,0.006,0.672,0.028,0.692,0.019c-0.004,0.008-0.138,0.066-0.302,0.135c4.054,0.564,7.509,2.212,10.07,4.394
			c0.241,0.001,0.482,0.007,0.725,0.017c-0.049-0.216-0.1-0.431-0.155-0.646c0.225,0.049,0.45,0.102,0.674,0.158
			c-0.205-0.236-0.417-0.468-0.637-0.697c0.323,0.125,0.643,0.26,0.957,0.402c0.018-0.173,0.035-0.346,0.051-0.518
			c-0.001,0.002,0.234,0.029,0.424,0.064c-0.222-0.166-0.473-0.345-0.483-0.356c0.008-0.011,0.563,0.068,0.828,0.105
			c-0.047-0.064-0.094-0.128-0.142-0.191c0.177-0.021,0.356-0.04,0.536-0.057c-2.933-2.838-7.03-5.032-11.907-5.852
			c0.218,0.103,0.433,0.209,0.645,0.318C10.82,20.399,10.545,20.505,10.272,20.615z"/>
	</g>
	<g>
		<g>
			<g>
				
					<ellipse transform="matrix(0.7071 -0.7071 0.7071 0.7071 -3.2184 18.7701)" class="st2" cx="21.049" cy="13.27" rx="1.999" ry="1.996"/>
			</g>
			<g>
				
					<ellipse transform="matrix(0.7071 -0.7071 0.7071 0.7071 -2.8889 17.9749)" class="st4" cx="20.253" cy="12.475" rx="0.621" ry="0.391"/>
			</g>
		</g>
		<g>
			<g>
				
					<ellipse transform="matrix(0.7071 -0.7071 0.7071 0.7071 -6.1758 11.6304)" class="st2" cx="10.951" cy="13.27" rx="1.996" ry="1.998"/>
			</g>
			<g>
				
					<ellipse transform="matrix(0.7071 -0.7071 0.7071 0.7071 -5.3804 11.96)" class="st4" cx="11.747" cy="12.475" rx="0.391" ry="0.621"/>
			</g>
		</g>
	</g>
</g>
</svg>
