<?xml version="1.0" encoding="utf-8"?>
<!-- Generator: Adobe Illustrator 21.1.0, SVG Export Plug-In . SVG Version: 6.00 Build 0)  -->
<svg version="1.1" id="Layer_1" xmlns="http://www.w3.org/2000/svg" xmlns:xlink="http://www.w3.org/1999/xlink" x="0px" y="0px"
	 viewBox="0 0 32 32" style="enable-background:new 0 0 32 32;" xml:space="preserve">
<style type="text/css">
	.st0{fill:#FFD93B;}
	.st1{fill:#F4C534;}
	.st2{fill:#3E4347;}
	.st3{fill:#FFFFFF;}
	.st4{fill:#5A5F63;}
	.st5{fill:#32373A;}
	.st6{fill:#E24B4B;}
	.st7{fill:#D03F3F;}
	.st8{opacity:0.2;}
	.st9{opacity:0.3;}
	.st10{fill:#AD2727;}
	.st11{fill:#E9EFF4;}
	.st12{fill:#DEE4E9;}
	.st13{fill:#65B1EF;}
	.st14{fill:#4E99D2;}
	.st15{opacity:0.25;}
	.st16{fill:#719D34;}
	.st17{fill:#38C0DC;}
	.st18{fill:#303538;}
	.st19{fill:#777B7E;}
	.st20{opacity:0.2;fill:#FFFFFF;}
	.st21{fill:#DE9C25;}
	.st22{fill:#45CBEA;}
	.st23{fill:#7A5B44;}
	.st24{fill:#8CC63E;}
</style>
<g>
	<g>
		<g>
			<g>
				<g>
					<g>
						<g>
							<g>
								<g>
									<g>
										<g>
											<g>
												<g>
													<g>
														<g>
															<g>
																<g>
																	<g>
																		<g>
																			<g>
																				<g>
																					<g>
																						<g>
																							<g>
																								<g>
																									<g>
																										<circle class="st0" cx="16" cy="16" r="16"/>
																									</g>
																								</g>
																							</g>
																						</g>
																					</g>
																					<g>
																						<g>
																							<g>
																								<g>
																									<g>
																										<path class="st1" d="M32,16c0,8.84-7.165,16-16,16c-5.03,0-9.52-2.32-12.455-5.955
																											c2.745,2.22,6.24,3.545,10.045,3.545c8.835,0,16-7.16,16-16c0-3.805-1.325-7.3-3.545-10.045
																											C29.675,6.48,32,10.97,32,16z"/>
																									</g>
																								</g>
																							</g>
																						</g>
																					</g>
																				</g>
																			</g>
																		</g>
																	</g>
																</g>
															</g>
														</g>
													</g>
												</g>
											</g>
										</g>
									</g>
								</g>
							</g>
						</g>
					</g>
				</g>
			</g>
		</g>
	</g>
	<path class="st2" d="M26.957,14.671c0.716,1.541-7.59,3.136-8.35,1.359c-0.205-0.57,0.474-1.509,2.89-2.543
		c1.709-0.772,3.032-1.329,3.338-0.92c0.249,0.333-0.382,1.316-1.73,2.15C25.114,14.433,26.748,14.202,26.957,14.671z"/>
	<path class="st1" d="M15.014,14.921c0,2.772-2.236,5.007-5.007,5.007C7.247,19.928,5,17.693,5,14.921
		c0-2.76,2.247-5.007,5.007-5.007C12.778,9.914,15.014,12.161,15.014,14.921z"/>
	<path class="st3" d="M14.325,14.921c-0.139,2.221-2.182,4.016-4.57,4.016c-2.388,0-4.205-1.795-4.066-4.016
		c0.139-2.221,2.182-4.016,4.57-4.016C12.647,10.905,14.464,12.7,14.325,14.921z"/>
	<path class="st2" d="M12.916,14.784c0,1.334-1.083,2.429-2.429,2.441c-1.335,0-2.43-1.095-2.43-2.429
		c0-1.358,1.095-2.441,2.441-2.441C11.833,12.355,12.916,13.45,12.916,14.784z"/>
	<path class="st4" d="M11.89,14.316c-0.205,0.206-0.582,0.171-0.844-0.091c-0.251-0.262-0.297-0.639-0.091-0.844
		c0.217-0.205,0.593-0.171,0.856,0.091C12.061,13.735,12.106,14.111,11.89,14.316z"/>
	<path class="st2" d="M23.528,19.606c-0.526-0.41-2.535,4.163-6.582,5.314c-2.045,0.722-4.026,0.354-5.51-0.086
		c-1.098-0.423-1.304,0.539-0.183,1.494c1.603,1.046,3.842,2.355,6.395,1.528C22.728,26.263,24.165,19.813,23.528,19.606z"/>
	<path class="st2" d="M17.705,9.191c1.315-0.745,4.058-1.972,6.942-1.291c0.305,0.072,0.537-0.336,0.28-0.515
		c-3.049-2.119-5.626-1.823-7.636,1.401C17.135,9.037,17.448,9.336,17.705,9.191z"/>
	<path class="st2" d="M14.295,9.191C12.98,8.446,10.237,7.219,7.353,7.9c-0.305,0.072-0.537-0.336-0.28-0.515
		c3.049-2.119,5.626-1.823,7.636,1.401C14.865,9.037,14.552,9.336,14.295,9.191z"/>
</g>
</svg>
