<?xml version="1.0" encoding="utf-8"?>
<!-- Generator: Adobe Illustrator 21.1.0, SVG Export Plug-In . SVG Version: 6.00 Build 0)  -->
<svg version="1.1" id="Layer_1" xmlns="http://www.w3.org/2000/svg" xmlns:xlink="http://www.w3.org/1999/xlink" x="0px" y="0px"
	 viewBox="0 0 32 32" style="enable-background:new 0 0 32 32;" xml:space="preserve">
<style type="text/css">
	.st0{fill:#FFD93B;}
	.st1{fill:#F4C534;}
	.st2{fill:#3E4347;}
	.st3{fill:#FFFFFF;}
	.st4{fill:#5A5F63;}
	.st5{fill:#32373A;}
	.st6{fill:#E24B4B;}
	.st7{fill:#D03F3F;}
	.st8{opacity:0.2;}
	.st9{opacity:0.3;}
	.st10{fill:#AD2727;}
	.st11{fill:#E9EFF4;}
	.st12{fill:#DEE4E9;}
	.st13{fill:#65B1EF;}
	.st14{fill:#4E99D2;}
	.st15{opacity:0.25;}
	.st16{fill:#719D34;}
	.st17{fill:#38C0DC;}
	.st18{fill:#303538;}
	.st19{fill:#777B7E;}
	.st20{opacity:0.2;fill:#FFFFFF;}
	.st21{fill:#DE9C25;}
	.st22{fill:#45CBEA;}
	.st23{fill:#7A5B44;}
	.st24{fill:#8CC63E;}
</style>
<g>
	<g>
		<g>
			<g>
				<circle class="st0" cx="16" cy="16" r="16"/>
			</g>
		</g>
	</g>
	<g>
		<g>
			<g>
				<path class="st1" d="M32,16c0,8.84-7.165,16-16,16c-5.03,0-9.52-2.32-12.455-5.955c2.745,2.22,6.24,3.545,10.045,3.545
					c8.835,0,16-7.16,16-16c0-3.805-1.325-7.3-3.545-10.045C29.675,6.48,32,10.97,32,16z"/>
			</g>
		</g>
	</g>
	<g>
		<g>
			<g>
				<circle class="st1" cx="9.333" cy="13.194" r="5.69"/>
			</g>
			<g>
				<circle class="st3" cx="9.333" cy="13.194" r="4.627"/>
			</g>
			<g>
				<path class="st2" d="M11.705,11.394c0.002,1.36-1.055,2.512-2.363,2.563s-2.378-1.019-2.38-2.38s1.065-2.503,2.373-2.553
					C10.643,8.973,11.703,10.033,11.705,11.394z"/>
			</g>
		</g>
		<g>
			<path class="st3" d="M10.025,10.205c0,0.239-0.319,0.438-0.708,0.453c-0.389,0.015-0.709-0.159-0.71-0.399
				c0-0.239,0.319-0.448,0.709-0.464C9.705,9.782,10.025,9.967,10.025,10.205z"/>
		</g>
	</g>
	<g>
		<g>
			<g>
				<circle class="st1" cx="22.667" cy="13.194" r="5.69"/>
			</g>
			<g>
				<circle class="st3" cx="22.667" cy="13.194" r="4.627"/>
			</g>
			<g>
				<circle class="st2" cx="22.669" cy="11.487" r="2.375"/>
			</g>
		</g>
		<g>
			<ellipse class="st3" cx="22.651" cy="10.276" rx="0.71" ry="0.415"/>
		</g>
	</g>
	<path class="st2" d="M20.28,23.504c0,0.86-0.7,1.56-1.56,1.56h-5.44c-0.86,0-1.56-0.7-1.56-1.56c0-0.86,0.7-1.56,1.56-1.56h5.44
		C19.58,21.944,20.28,22.645,20.28,23.504z"/>
</g>
</svg>
