<?xml version="1.0" encoding="utf-8"?>
<!-- Generator: Adobe Illustrator 21.1.0, SVG Export Plug-In . SVG Version: 6.00 Build 0)  -->
<svg version="1.1" id="Layer_1" xmlns="http://www.w3.org/2000/svg" xmlns:xlink="http://www.w3.org/1999/xlink" x="0px" y="0px"
	 viewBox="0 0 32 32" style="enable-background:new 0 0 32 32;" xml:space="preserve">
<style type="text/css">
	.st0{fill:#FFD93B;}
	.st1{fill:#3E4347;}
	.st2{fill:#F4C534;}
	.st3{fill:#38C0DC;}
	.st4{fill:#45CBEA;}
	.st5{fill:#FFFFFF;}
	.st6{fill:#E24B4B;}
	.st7{fill:#5A5F63;}
	.st8{opacity:0.3;}
	.st9{opacity:0.2;}
	.st10{opacity:0.1;}
	.st11{fill:#E9B02C;}
	.st12{fill:#65B1EF;}
	.st13{fill:#E9EFF4;}
	.st14{fill:#8CC63E;}
	.st15{fill:#7FB239;}
	.st16{fill:#D03F3F;}
	.st17{fill:#D23F77;}
	.st18{fill:#E84D88;}
	.st19{fill:#59A5E0;}
	.st20{fill:#DEE4E9;}
	.st21{fill:#D3D9DD;}
	.st22{opacity:0.25;fill:#FFFFFF;}
	.st23{fill:#9A795F;}
	.st24{fill:#F29A2E;}
	.st25{fill:#FC97B2;}
	.st26{fill:#89664C;}
	.st27{fill:#7A5B44;}
	.st28{opacity:0.2;fill:#FFFFFF;}
	.st29{fill:#4E99D2;}
	.st30{fill:#BBC7D1;}
	.st31{fill:#DE9C25;}
</style>
<g>
	<g>
		<circle class="st0" cx="16.001" cy="16" r="15.728"/>
	</g>
	<g>
		<path class="st2" d="M16.001,31.728c-4.944,0-9.358-2.281-12.243-5.854c2.698,2.182,6.134,3.485,9.874,3.485
			c13.264,0,20.482-15.415,12.243-25.602C37.329,13.018,30.853,31.728,16.001,31.728z"/>
	</g>
	<path class="st1" d="M16.004,19.642c-4.194,2.846-13.062,0.53-15.852-6.261c-0.193-0.729-0.295-1.811,0.278-2.754
		c1.169-1.99,4.158-2.444,7.09-2.196c1.731,0.138,3.055,0.25,4.193,0.393c2.859,0.363,5.716,0.363,8.577,0
		c1.137-0.142,2.461-0.255,4.19-0.393c2.931-0.249,5.921,0.205,7.09,2.196c0.572,0.943,0.469,2.025,0.278,2.754
		C29.064,20.164,20.199,22.48,16.004,19.642z"/>
	<g>
		<path class="st1" d="M21.692,24.46c0,0.56-0.452,1.022-1.022,1.022h-9.338c-0.57,0-1.022-0.462-1.022-1.022
			c0-0.57,0.452-1.022,1.022-1.022h9.338C21.24,23.437,21.692,23.89,21.692,24.46z"/>
	</g>
	<g>
		<path class="st1" d="M26.289,7.375c-2.965-3.231-7.614-1.398-7.661-1.379c-0.337,0.138-0.727-0.025-0.865-0.365
			c-0.137-0.34,0.026-0.727,0.366-0.864c0.226-0.092,5.553-2.192,9.138,1.712c0.248,0.27,0.23,0.69-0.04,0.937
			C26.959,7.662,26.537,7.646,26.289,7.375z"/>
	</g>
	<g>
		<path class="st1" d="M4.776,7.415c-0.271-0.248-0.288-0.667-0.04-0.937c3.582-3.902,8.912-1.803,9.138-1.712
			c0.339,0.137,0.502,0.524,0.365,0.863c-0.136,0.339-0.522,0.503-0.863,0.367c-0.19-0.077-4.709-1.84-7.662,1.379
			C5.465,7.646,5.043,7.662,4.776,7.415z"/>
	</g>
	<g>
		<g>
			<g>
				<path class="st5" d="M21.539,18.697c-2.442,0.445-4.429-1.033-4.429-3.294c0-2.256,1.986-4.453,4.429-4.898
					c2.442-0.445,4.429,1.029,4.429,3.285C25.968,16.051,23.982,18.252,21.539,18.697z"/>
			</g>
		</g>
	</g>
	<g>
		<g>
			<g>
				<path class="st1" d="M23.205,14.822c0,2.514-3.784,2.517-3.784,0C19.421,12.323,23.205,12.319,23.205,14.822z"/>
			</g>
		</g>
		<g>
			<g>
				
					<ellipse transform="matrix(0.7071 -0.7071 0.7071 0.7071 -3.5915 19.6827)" class="st5" cx="21.963" cy="14.177" rx="0.36" ry="0.569"/>
			</g>
		</g>
	</g>
	<g>
		<g>
			<g>
				<path class="st5" d="M6.033,13.789c0-2.256,1.986-3.729,4.429-3.285c2.442,0.445,4.429,2.642,4.429,4.898
					c0,2.261-1.986,3.739-4.429,3.294S6.033,16.051,6.033,13.789z"/>
			</g>
		</g>
	</g>
	<g>
		<g>
			<g>
				<path class="st1" d="M12.58,14.822c0,2.514-3.784,2.517-3.784,0C8.796,12.323,12.58,12.319,12.58,14.822z"/>
			</g>
		</g>
		<g>
			<g>
				
					<ellipse transform="matrix(0.7071 -0.7071 0.7071 0.7071 -6.7035 12.1696)" class="st5" cx="11.338" cy="14.177" rx="0.36" ry="0.569"/>
			</g>
		</g>
	</g>
</g>
</svg>
