<?xml version="1.0" encoding="utf-8"?>
<!-- Generator: Adobe Illustrator 21.1.0, SVG Export Plug-In . SVG Version: 6.00 Build 0)  -->
<svg version="1.1" id="Layer_1" xmlns="http://www.w3.org/2000/svg" xmlns:xlink="http://www.w3.org/1999/xlink" x="0px" y="0px"
	 viewBox="0 0 32 32" style="enable-background:new 0 0 32 32;" xml:space="preserve">
<style type="text/css">
	.st0{fill:#FFD93B;}
	.st1{fill:#F4C534;}
	.st2{fill:#3E4347;}
	.st3{fill:#FFFFFF;}
	.st4{fill:#5A5F63;}
	.st5{fill:#32373A;}
	.st6{fill:#E24B4B;}
	.st7{fill:#D03F3F;}
	.st8{opacity:0.2;}
	.st9{opacity:0.3;}
	.st10{fill:#AD2727;}
	.st11{fill:#E9EFF4;}
	.st12{fill:#DEE4E9;}
	.st13{fill:#65B1EF;}
	.st14{fill:#4E99D2;}
	.st15{opacity:0.25;}
	.st16{fill:#719D34;}
	.st17{fill:#38C0DC;}
	.st18{fill:#303538;}
	.st19{fill:#777B7E;}
	.st20{opacity:0.2;fill:#FFFFFF;}
	.st21{fill:#DE9C25;}
	.st22{fill:#45CBEA;}
	.st23{fill:#7A5B44;}
	.st24{fill:#8CC63E;}
</style>
<g>
	<g>
		<path class="st0" d="M31.999,15.991c0,8.845-7.164,16.013-15.999,16.018c-8.835,0.005-16-7.155-16-16
			C0,7.169,7.165-0.004,15.999-0.009C24.834-0.014,31.999,7.151,31.999,15.991z"/>
		<path class="st1" d="M31.999,15.991c0,8.845-7.164,16.013-15.999,16.018c-5.03,0.003-9.52-2.316-12.455-5.951
			c2.745,2.22,6.24,3.544,10.045,3.541c8.835-0.005,15.999-7.173,15.999-16.018c0-3.807-1.325-7.304-3.545-10.049
			C29.674,6.467,31.999,10.958,31.999,15.991z"/>
	</g>
	<g>
		<g>
			<g>
				<path class="st2" d="M14.283,21.489c-1.044,1.552-2.774,2.093-4.049,2.041c-2.658-0.11-4.723-2.187-4.622-4.645
					c0.036-0.865,0.33-1.651,0.816-2.31C7.536,19.534,11.256,21.233,14.283,21.489z"/>
			</g>
		</g>
		<g>
			<g>
				<path class="st2" d="M17.77,21.489c1.044,1.552,2.774,2.093,4.05,2.041c2.658-0.11,4.723-2.187,4.622-4.645
					c-0.036-0.865-0.33-1.651-0.816-2.31C24.517,19.534,20.797,21.233,17.77,21.489z"/>
			</g>
		</g>
	</g>
	<g>
		<g>
			<path class="st2" d="M6.656,11.616c-0.89-0.276,2.239-5.974,8.964-5.965c6.725-0.007,9.854,5.688,8.964,5.965
				c-0.635,0.429-4.022-1.985-8.964-1.985C10.651,9.631,7.292,12.046,6.656,11.616z"/>
		</g>
		<g>
			<path class="st6" d="M20.839,6.963c-1.05,5.65-3.24,10.017-5.23,10.007c-1.97,0.01-4.16-4.346-5.21-9.996
				c1.38-0.77,3.13-1.32,5.22-1.32S19.449,6.193,20.839,6.963z"/>
		</g>
	</g>
</g>
</svg>
