<?xml version="1.0" encoding="utf-8"?>
<!-- Generator: Adobe Illustrator 21.1.0, SVG Export Plug-In . SVG Version: 6.00 Build 0)  -->
<svg version="1.1" id="Layer_1" xmlns="http://www.w3.org/2000/svg" xmlns:xlink="http://www.w3.org/1999/xlink" x="0px" y="0px"
	 viewBox="0 0 32 32" style="enable-background:new 0 0 32 32;" xml:space="preserve">
<style type="text/css">
	.st0{fill:#FFD93B;}
	.st1{fill:#F4C534;}
	.st2{fill:#3E4347;}
	.st3{fill:#FFFFFF;}
	.st4{fill:#5A5F63;}
	.st5{fill:#32373A;}
	.st6{fill:#E24B4B;}
	.st7{fill:#D03F3F;}
	.st8{opacity:0.2;}
	.st9{opacity:0.3;}
	.st10{fill:#AD2727;}
	.st11{fill:#E9EFF4;}
	.st12{fill:#DEE4E9;}
	.st13{fill:#65B1EF;}
	.st14{fill:#4E99D2;}
	.st15{opacity:0.25;}
	.st16{fill:#719D34;}
	.st17{fill:#38C0DC;}
	.st18{fill:#303538;}
	.st19{fill:#777B7E;}
	.st20{opacity:0.2;fill:#FFFFFF;}
	.st21{fill:#DE9C25;}
	.st22{fill:#45CBEA;}
	.st23{fill:#7A5B44;}
	.st24{fill:#8CC63E;}
</style>
<g>
	<circle class="st0" cx="15.988" cy="15.993" r="16"/>
	<path class="st1" d="M32.012,16.008c0,8.84-7.165,16-16,16c-5.03,0-9.52-2.32-12.455-5.955c2.745,2.22,6.24,3.545,10.045,3.545
		c8.835,0,16-7.16,16-16c0-3.805-1.325-7.3-3.545-10.045C29.688,6.488,32.012,10.978,32.012,16.008z"/>
	<path class="st2" d="M5.403,16.312c-0.037-0.551,0.38-1.027,0.931-1.064c1.505-0.101,2.944-0.548,4.356-1.358
		c-1.818-0.53-2.737-1.309-2.789-1.354c-0.418-0.361-0.463-0.993-0.101-1.41c0.361-0.418,0.992-0.464,1.411-0.102
		c0.006,0.005,1.347,1.097,4.101,1.313c0.407,0.032,0.753,0.309,0.875,0.698c0.122,0.389-0.004,0.814-0.32,1.072
		c-2.328,1.908-4.817,2.964-7.398,3.137C5.864,17.269,5.437,16.829,5.403,16.312z"/>
	<path class="st2" d="M25.533,17.244c-2.581-0.173-5.07-1.229-7.399-3.137c-0.316-0.259-0.442-0.684-0.32-1.072
		c0.122-0.39,0.469-0.666,0.875-0.698c2.753-0.217,4.096-1.309,4.109-1.32c0.421-0.349,1.05-0.299,1.406,0.119
		c0.354,0.418,0.31,1.041-0.105,1.399c-0.052,0.045-0.971,0.824-2.789,1.354c1.412,0.811,2.852,1.258,4.357,1.358
		c0.551,0.037,0.968,0.514,0.931,1.064C26.563,16.829,26.137,17.269,25.533,17.244z"/>
	<path class="st2" d="M23.975,26.067c-0.575,0.272-3.549-2.221-7.974-2.119c-4.426-0.099-7.399,2.39-7.974,2.119
		c-0.82-0.163,1.896-4.985,7.974-4.979C22.078,21.085,24.795,25.904,23.975,26.067z"/>
</g>
</svg>
