<?xml version="1.0" encoding="utf-8"?>
<!-- Generator: Adobe Illustrator 21.1.0, SVG Export Plug-In . SVG Version: 6.00 Build 0)  -->
<svg version="1.1" id="Layer_1" xmlns="http://www.w3.org/2000/svg" xmlns:xlink="http://www.w3.org/1999/xlink" x="0px" y="0px"
	 viewBox="0 0 32 32" style="enable-background:new 0 0 32 32;" xml:space="preserve">
<style type="text/css">
	.st0{fill:#FFD93B;}
	.st1{fill:#F4C534;}
	.st2{fill:#3E4347;}
	.st3{fill:#FFFFFF;}
	.st4{fill:#5A5F63;}
	.st5{fill:#32373A;}
	.st6{fill:#E24B4B;}
	.st7{fill:#D03F3F;}
	.st8{opacity:0.2;}
	.st9{opacity:0.3;}
	.st10{fill:#AD2727;}
	.st11{fill:#E9EFF4;}
	.st12{fill:#DEE4E9;}
	.st13{fill:#65B1EF;}
	.st14{fill:#4E99D2;}
	.st15{opacity:0.25;}
	.st16{fill:#719D34;}
	.st17{fill:#38C0DC;}
	.st18{fill:#303538;}
	.st19{fill:#777B7E;}
	.st20{opacity:0.2;fill:#FFFFFF;}
	.st21{fill:#DE9C25;}
	.st22{fill:#45CBEA;}
	.st23{fill:#7A5B44;}
	.st24{fill:#8CC63E;}
</style>
<g>
	<circle class="st0" cx="15.988" cy="15.993" r="16"/>
	<path class="st1" d="M32.012,16.008c0,8.84-7.165,16-16,16c-5.03,0-9.52-2.32-12.455-5.955c2.745,2.22,6.24,3.545,10.045,3.545
		c8.835,0,16-7.16,16-16c0-3.805-1.325-7.3-3.545-10.045C29.687,6.488,32.012,10.978,32.012,16.008z"/>
	<path class="st2" d="M5.522,22.192c1.442,3.146,7.769,2.95,10.669,2.569c3.266-0.385,9.176-1.675,10.256-4.819
		c0.215,3.987-6.052,6.291-9.997,6.801C12.05,27.288,5.733,26.129,5.522,22.192z"/>
	<path class="st1" d="M15.251,13.955c0,2.98-2.22,5.39-4.96,5.39c-2.73,0-4.95-2.41-4.95-5.39c0-2.97,2.22-5.39,4.95-5.39
		C13.031,8.564,15.251,10.984,15.251,13.955z"/>
	<path class="st3" d="M14.384,13.955c0,2.459-1.832,4.447-4.092,4.447c-2.252,0-4.084-1.988-4.084-4.447
		c0-2.451,1.832-4.447,4.084-4.447C12.552,9.507,14.384,11.504,14.384,13.955z"/>
	<ellipse class="st2" cx="11.664" cy="14.183" rx="2.12" ry="2.37"/>
	<path class="st4" d="M10.394,13.523c0.16,0.14,0.47,0.04,0.7-0.22c0.24-0.25,0.31-0.57,0.16-0.71c-0.16-0.13-0.47-0.05-0.7,0.21
		C10.324,13.063,10.254,13.393,10.394,13.523z"/>
	<path class="st1" d="M16.749,13.955c0,2.98,2.22,5.39,4.96,5.39c2.73,0,4.95-2.41,4.95-5.39c0-2.97-2.22-5.39-4.95-5.39
		C18.969,8.564,16.749,10.984,16.749,13.955z"/>
	<path class="st3" d="M17.616,13.955c0,2.459,1.832,4.447,4.092,4.447c2.252,0,4.084-1.988,4.084-4.447
		c0-2.451-1.832-4.447-4.084-4.447C19.448,9.507,17.616,11.504,17.616,13.955z"/>
	<ellipse class="st2" cx="20.336" cy="14.183" rx="2.12" ry="2.37"/>
	<path class="st4" d="M19.066,13.523c0.16,0.14,0.47,0.04,0.7-0.22c0.24-0.25,0.31-0.57,0.16-0.71c-0.16-0.13-0.47-0.05-0.7,0.21
		C18.996,13.063,18.926,13.393,19.066,13.523z"/>
	<path class="st2" d="M23.896,6.794c-8.25,1.15-5.06-2.92-5.06-2.92C19.816,5.924,23.896,6.794,23.896,6.794z"/>
	<path class="st2" d="M8.104,6.794c8.25,1.15,5.06-2.92,5.06-2.92C12.184,5.924,8.104,6.794,8.104,6.794z"/>
</g>
</svg>
