<?xml version="1.0" encoding="utf-8"?>
<!-- Generator: Adobe Illustrator 21.1.0, SVG Export Plug-In . SVG Version: 6.00 Build 0)  -->
<svg version="1.1" id="Layer_1" xmlns="http://www.w3.org/2000/svg" xmlns:xlink="http://www.w3.org/1999/xlink" x="0px" y="0px"
	 viewBox="0 0 32 32" style="enable-background:new 0 0 32 32;" xml:space="preserve">
<style type="text/css">
	.st0{fill:#FFD93B;}
	.st1{fill:#F4C534;}
	.st2{fill:#3E4347;}
	.st3{fill:#FFFFFF;}
	.st4{fill:#5A5F63;}
	.st5{fill:#32373A;}
	.st6{fill:#E24B4B;}
	.st7{fill:#D03F3F;}
	.st8{opacity:0.2;}
	.st9{opacity:0.3;}
	.st10{fill:#AD2727;}
	.st11{fill:#E9EFF4;}
	.st12{fill:#DEE4E9;}
	.st13{fill:#65B1EF;}
	.st14{fill:#4E99D2;}
	.st15{opacity:0.25;}
	.st16{fill:#719D34;}
	.st17{fill:#38C0DC;}
	.st18{fill:#303538;}
	.st19{fill:#777B7E;}
	.st20{opacity:0.2;fill:#FFFFFF;}
	.st21{fill:#DE9C25;}
	.st22{fill:#45CBEA;}
	.st23{fill:#7A5B44;}
	.st24{fill:#8CC63E;}
</style>
<g>
	<g>
		<g>
			<g>
				<circle class="st0" cx="16" cy="16" r="16"/>
			</g>
		</g>
	</g>
	<g>
		<g>
			<g>
				<path class="st1" d="M32,16c0,8.84-7.165,16-16,16c-5.03,0-9.52-2.32-12.455-5.955c2.745,2.22,6.24,3.545,10.045,3.545
					c8.835,0,16-7.16,16-16c0-3.805-1.325-7.3-3.545-10.045C29.675,6.48,32,10.97,32,16z"/>
			</g>
		</g>
	</g>
	<path class="st2" d="M24.037,21c0.984,0.554-1.378,5.699-8.037,5.702C9.341,26.699,6.979,21.555,7.963,21
		c0.811-0.68,3.501,2.019,8.037,1.936C20.536,23.02,23.226,20.319,24.037,21z"/>
	<path class="st6" d="M9.76,24.648c1.351,1.116,3.401,2.053,6.24,2.054c2.963-0.001,5.071-1.022,6.416-2.202
		c-1.118-0.288-3.443,0.105-6.139,0.105C13.229,24.606,10.65,24.101,9.76,24.648z"/>
	<path class="st3" d="M19.848,24.397c0.038,0.112,0.152,0.177,0.251,0.141l1.405-0.514c0.084-0.03,0.124-0.126,0.095-0.223
		l-0.46-1.956c-0.532,0.222-1.134,0.446-1.804,0.635L19.848,24.397z"/>
	<path class="st3" d="M17.343,25.301c0.049,0.141,0.189,0.227,0.32,0.189l1.587-0.455c0.144-0.043,0.211-0.211,0.155-0.365
		l-0.236-2.14c-0.706,0.19-1.479,0.335-2.313,0.386L17.343,25.301z"/>
	<path class="st3" d="M11.137,21.959l-0.434,1.906c-0.028,0.098,0.013,0.193,0.097,0.224l1.102,0.449
		c0.098,0.036,0.213-0.029,0.25-0.141l0.514-1.916C12.11,22.324,11.599,22.143,11.137,21.959z"/>
	<path class="st3" d="M12.832,22.529l-0.236,2.141c-0.056,0.154,0.012,0.322,0.155,0.365l2.368,0.559
		c0.131,0.038,0.271-0.049,0.317-0.19l0.458-2.471C14.774,22.943,13.746,22.775,12.832,22.529z"/>
	<path class="st1" d="M26.59,22.451c0.177-0.962-0.011-2.212-0.706-2.941c-0.781-0.935-1.732-1.011-2.821-1.052
		c1.249-0.348,2.268-0.224,3.157,0.753C27.059,20.193,27.09,21.606,26.59,22.451z"/>
	<path class="st1" d="M5.41,22.451c-0.177-0.962,0.011-2.212,0.706-2.941c0.781-0.935,1.732-1.011,2.821-1.052
		c-1.249-0.348-2.268-0.224-3.157,0.753C4.941,20.193,4.911,21.606,5.41,22.451z"/>
	<g>
		<path class="st2" d="M14.313,14.931c0.021,0.205,0.029,0.399,0.012,0.596c-1.042-1.303-2.831-2.194-4.704-2.192
			c-1.032,0.005-1.933,0.283-2.611,0.745c0.416-1.502,1.62-2.651,3.158-2.812C12.235,11.05,14.078,12.693,14.313,14.931z"/>
	</g>
	<path class="st2" d="M24.317,13.459c0,1.972-1.217,3.576-2.726,3.576c-1.508,0-2.726-1.605-2.726-3.576s1.217-3.566,2.726-3.566
		C23.1,9.893,24.317,11.488,24.317,13.459z"/>
	<path class="st4" d="M23.184,12.458c-0.222,0.141-0.592-0.015-0.803-0.369c-0.211-0.344-0.184-0.73,0.049-0.871
		c0.222-0.141,0.581,0.025,0.782,0.368C23.434,11.93,23.417,12.318,23.184,12.458z"/>
	<g>
		<path class="st2" d="M6.821,7.347c0,0,3.433-0.604,7.18,3.417C14.001,10.764,11.776,4.181,6.821,7.347z"/>
	</g>
	<g>
		<path class="st2" d="M25.628,9.77c-0.17-0.22-2.02-2.6-7.04-0.92C18.588,8.85,23.444,3.649,25.628,9.77z"/>
	</g>
</g>
</svg>
