<?xml version="1.0" encoding="utf-8"?>
<!-- Generator: Adobe Illustrator 21.1.0, SVG Export Plug-In . SVG Version: 6.00 Build 0)  -->
<svg version="1.1" id="Layer_1" xmlns="http://www.w3.org/2000/svg" xmlns:xlink="http://www.w3.org/1999/xlink" x="0px" y="0px"
	 viewBox="0 0 32 32" style="enable-background:new 0 0 32 32;" xml:space="preserve">
<style type="text/css">
	.st0{fill:#FFD93B;}
	.st1{fill:#F4C534;}
	.st2{fill:#3E4347;}
	.st3{fill:#FFFFFF;}
	.st4{fill:#5A5F63;}
	.st5{fill:#32373A;}
	.st6{fill:#E24B4B;}
	.st7{fill:#D03F3F;}
	.st8{opacity:0.2;}
	.st9{opacity:0.3;}
	.st10{fill:#AD2727;}
	.st11{fill:#E9EFF4;}
	.st12{fill:#DEE4E9;}
	.st13{fill:#65B1EF;}
	.st14{fill:#4E99D2;}
	.st15{opacity:0.25;}
	.st16{fill:#719D34;}
	.st17{fill:#38C0DC;}
	.st18{fill:#303538;}
	.st19{fill:#777B7E;}
	.st20{opacity:0.2;fill:#FFFFFF;}
	.st21{fill:#DE9C25;}
	.st22{fill:#45CBEA;}
	.st23{fill:#7A5B44;}
	.st24{fill:#8CC63E;}
</style>
<g>
	<circle class="st0" cx="16" cy="16" r="16"/>
	<path class="st1" d="M32,16c0,8.84-7.165,16-16,16c-5.03,0-9.52-2.32-12.455-5.955c2.745,2.22,6.24,3.545,10.045,3.545
		c8.835,0,16-7.16,16-16c0-3.805-1.325-7.3-3.545-10.045C29.675,6.48,32,10.97,32,16z"/>
	<path class="st1" d="M16.309,14.104c0,3.376-2.735,6.111-6.101,6.111c-3.376,0-6.111-2.735-6.111-6.111
		c0-3.367,2.735-6.101,6.111-6.101C13.574,8.003,16.309,10.738,16.309,14.104z"/>
	<path class="st3" d="M15.146,14.105c0,2.734-2.214,4.957-4.938,4.957c-2.734,0-4.948-2.223-4.948-4.957
		c0-2.725,2.214-4.948,4.948-4.948C12.932,9.157,15.146,11.38,15.146,14.105z"/>
	<g>
		<path class="st2" d="M5.953,14.105c0,1.287,1.029,2.325,2.307,2.325c1.287,0,2.316-1.038,2.316-2.325
			c0-1.278-1.029-2.316-2.316-2.316C6.983,11.789,5.954,12.827,5.953,14.105z"/>
	</g>
	<g>
		
			<ellipse transform="matrix(0.7071 -0.7071 0.7071 0.7071 -6.5235 10.4062)" class="st3" cx="9.299" cy="13.077" rx="0.327" ry="0.641"/>
	</g>
	<path class="st1" d="M4.433,13.178c0.446-2.785,2.856-4.919,5.766-4.919c2.918,0,5.329,2.134,5.775,4.919
		C12.748,10.285,10.908,14.109,4.433,13.178z"/>
	<path class="st1" d="M17.438,14.113c0-2.879,2.332-5.212,5.203-5.212c2.879,0,5.211,2.332,5.211,5.211
		c0,2.871-2.332,5.203-5.211,5.204C19.77,19.316,17.438,16.984,17.438,14.113z"/>
	<path class="st3" d="M18.43,14.113c0-2.332,1.888-4.227,4.211-4.227c2.331,0,4.219,1.895,4.219,4.227
		c0,2.324-1.888,4.219-4.219,4.219C20.318,18.332,18.43,16.437,18.43,14.113z"/>
	<g>
		<ellipse class="st2" cx="24.615" cy="14.263" rx="1.972" ry="1.979"/>
	</g>
	<g>
		
			<ellipse transform="matrix(0.7071 -0.7071 0.7071 0.7071 -1.9962 21.9498)" class="st3" cx="25.498" cy="13.385" rx="0.279" ry="0.547"/>
	</g>
	<path class="st1" d="M27.566,14.903c-0.38,2.375-2.435,4.195-4.917,4.196c-2.489,0-4.544-1.819-4.925-4.195
		C20.475,17.37,22.044,14.109,27.566,14.903z"/>
	<path class="st2" d="M22.888,23.903v0.045c0.045,0.578-0.216,1.157-0.704,1.452c-3.461,2.133-7.433-1.509-10.985-0.465
		c-0.987,0.295-1.997-0.318-2.088-1.328v-0.045c-0.045-0.579,0.216-1.158,0.703-1.464c3.461-2.122,7.433,1.521,10.985,0.477
		C21.788,22.28,22.798,22.882,22.888,23.903z"/>
	<path class="st6" d="M11.786,24.81c3.01-0.472,6.277,1.924,9.258,1.083c-0.094-0.922-0.71-1.758-1.648-2.355
		c-0.634-0.406-1.512-0.608-2.305-0.449c-0.406,0.08-0.86,0.112-1.379,0.077c-0.14-0.01-0.269-0.025-0.398-0.042
		c-0.923-0.127-1.885,0.007-2.518,0.476C12.345,23.938,11.996,24.348,11.786,24.81z"/>
	<path class="st3" d="M14.416,23.893l0.475-2.061c-0.854-0.224-1.703-0.397-2.537-0.403l-0.147,1.955c-0.02,0.17,0.1,0.33,0.26,0.37
		l1.51,0.41C14.176,24.213,14.376,24.093,14.416,23.893z"/>
	<path class="st3" d="M15.606,24.372l2.01,0.35c0.13,0.02,0.26-0.07,0.29-0.21l0.288-1.853c-0.858-0.139-1.727-0.392-2.595-0.636
		l-0.203,2.079C15.386,24.232,15.476,24.353,15.606,24.372z"/>
	<path class="st3" d="M20.8,22.575c-0.631,0.186-1.276,0.218-1.928,0.167l-0.098,1.982c-0.01,0.19,0.14,0.33,0.32,0.32l1.97-0.18
		c0.17-0.01,0.3-0.17,0.27-0.34l-0.266-2C20.979,22.537,20.89,22.548,20.8,22.575z"/>
	<path class="st2" d="M11.786,4.904c-4.133-1.94-7.193-0.07-7.835,3.998C5.513,6.381,8.697,4.916,11.786,4.904z"/>
	<path class="st2" d="M26.61,6.923c-3.539-2.884-6.962-1.812-8.57,1.979C20.166,6.835,23.61,6.185,26.61,6.923z"/>
</g>
</svg>
