<?xml version="1.0" encoding="utf-8"?>
<!-- Generator: Adobe Illustrator 21.1.0, SVG Export Plug-In . SVG Version: 6.00 Build 0)  -->
<svg version="1.1" id="Layer_1" xmlns="http://www.w3.org/2000/svg" xmlns:xlink="http://www.w3.org/1999/xlink" x="0px" y="0px"
	 viewBox="0 0 32 32" style="enable-background:new 0 0 32 32;" xml:space="preserve">
<style type="text/css">
	.st0{fill:#FFD93B;}
	.st1{fill:#F4C534;}
	.st2{fill:#3E4347;}
	.st3{fill:#FFFFFF;}
	.st4{fill:#5A5F63;}
	.st5{fill:#32373A;}
	.st6{fill:#E24B4B;}
	.st7{fill:#D03F3F;}
	.st8{opacity:0.2;}
	.st9{opacity:0.3;}
	.st10{fill:#AD2727;}
	.st11{fill:#E9EFF4;}
	.st12{fill:#DEE4E9;}
	.st13{fill:#65B1EF;}
	.st14{fill:#4E99D2;}
	.st15{opacity:0.25;}
	.st16{fill:#719D34;}
	.st17{fill:#38C0DC;}
	.st18{fill:#303538;}
	.st19{fill:#777B7E;}
	.st20{opacity:0.2;fill:#FFFFFF;}
	.st21{fill:#DE9C25;}
	.st22{fill:#45CBEA;}
	.st23{fill:#7A5B44;}
	.st24{fill:#8CC63E;}
</style>
<g>
	<circle class="st0" cx="16" cy="16" r="16"/>
	<path class="st1" d="M32,16c0,8.84-7.165,16-16,16c-5.03,0-9.52-2.32-12.455-5.955c2.745,2.22,6.24,3.545,10.045,3.545
		c8.835,0,16-7.16,16-16c0-3.805-1.325-7.3-3.545-10.045C29.675,6.48,32,10.97,32,16z"/>
	<path class="st2" d="M30.9,9.301c0.046,0.124,0,0.265-0.107,0.351c-0.207,0.165-0.415,0.328-0.624,0.489
		c-0.28,0.215-0.424,0.55-0.405,0.886c0.083,1.414-0.149,2.873-0.508,4.292c-0.33,1.193-0.973,1.425-2.193,1.679
		c-3.327,0.714-7.062,0.748-7.767,0.649c-0.669-0.085-1.236-0.484-1.486-1.102c-0.305-0.75-0.611-1.777-0.87-2.757
		c-0.102-0.405-0.494-0.687-0.935-0.688c-0.448,0.002-0.84,0.283-0.942,0.688c-0.259,0.981-0.564,2.009-0.87,2.757
		c-0.256,0.618-0.817,1.021-1.486,1.102c-0.706,0.099-4.438,0.065-7.767-0.649c-1.22-0.253-1.871-0.486-2.193-1.679
		c-0.365-1.454-0.603-2.956-0.496-4.405c0.026-0.345-0.118-0.685-0.402-0.905C1.644,9.85,1.442,9.691,1.24,9.53
		C1.134,9.442,1.089,9.303,1.134,9.179c0.128-0.393,0.255-0.785,0.381-1.178C1.574,7.816,1.781,7.727,1.96,7.806
		C2.615,8.09,3.276,8.363,3.943,8.624c0.08,0.034,0.166,0.051,0.252,0.062c4.779,0.468,7.007,1.864,11.803,1.94
		c1.616-0.002,3.223-0.195,4.778-0.575c2.529-0.608,4.903-1.149,7.494-1.414c0.09-0.012,0.179-0.028,0.263-0.064
		c0.517-0.208,1.031-0.424,1.541-0.646c0.178-0.073,0.386,0.012,0.445,0.195C30.645,8.514,30.773,8.908,30.9,9.301z"/>
	<path class="st4" d="M13.106,16.145c-0.099,0.234-0.289,0.396-0.533,0.48c-0.723,0.28-5.608-0.212-7.279-0.633
		c-0.684-0.145-1.115-0.168-1.291-0.888c-0.378-1.413-0.737-3.891-0.246-5.23c3.422,0.46,7.408,1.401,10.471,2.136
		C14.004,13.409,13.633,14.812,13.106,16.145z"/>
	<path class="st4" d="M17.772,12.01c3.07-0.736,7.046-1.679,10.471-2.136c0.49,1.338,0.131,3.816-0.247,5.23
		c-0.176,0.717-0.607,0.743-1.291,0.887c-1.664,0.424-6.555,0.912-7.279,0.633c-0.244-0.082-0.434-0.247-0.533-0.48
		C18.367,14.813,17.997,13.409,17.772,12.01z"/>
	<path class="st19" d="M28.243,9.874c-0.891,0.119-1.821,0.272-2.761,0.444l-6.215,6.215c0.054,0.03,0.099,0.071,0.16,0.091
		c0.273,0.105,1.142,0.101,2.205,0.033l6.647-6.647C28.265,9.967,28.258,9.915,28.243,9.874z"/>
	<path class="st19" d="M22.957,10.82l-4.398,4.398c0.095,0.283,0.196,0.564,0.304,0.841l5.535-5.535
		C23.916,10.62,23.435,10.718,22.957,10.82z"/>
	<path class="st19" d="M8.161,10.639l-4.217,4.217c0.02,0.082,0.04,0.172,0.06,0.249c0.176,0.72,0.607,0.743,1.291,0.888
		c0,0,0.002,0,0.003,0l4.917-4.917C9.537,10.925,8.851,10.779,8.161,10.639z"/>
	<path class="st19" d="M6.467,10.309l-2.84,2.84c0.044,0.342,0.1,0.67,0.16,0.985l3.642-3.642
		C7.108,10.43,6.787,10.368,6.467,10.309z"/>
	<path class="st2" d="M24.577,22.058c0.611,0.351-2.842,5.363-8.577,5.363c-5.858,0-9.189-5.011-8.578-5.363
		c0.459-0.465,3.902,2.655,8.578,2.655C20.673,24.713,24.118,21.591,24.577,22.058z"/>
</g>
</svg>
