<?xml version="1.0" encoding="utf-8"?>
<!-- Generator: Adobe Illustrator 21.1.0, SVG Export Plug-In . SVG Version: 6.00 Build 0)  -->
<svg version="1.1" id="Layer_1" xmlns="http://www.w3.org/2000/svg" xmlns:xlink="http://www.w3.org/1999/xlink" x="0px" y="0px"
	 viewBox="0 0 32 32" style="enable-background:new 0 0 32 32;" xml:space="preserve">
<style type="text/css">
	.st0{fill:#FFD93B;}
	.st1{fill:#F4C534;}
	.st2{fill:#3E4347;}
	.st3{fill:#FFFFFF;}
	.st4{fill:#5A5F63;}
	.st5{fill:#32373A;}
	.st6{fill:#E24B4B;}
	.st7{fill:#D03F3F;}
	.st8{opacity:0.2;}
	.st9{opacity:0.3;}
	.st10{fill:#AD2727;}
	.st11{fill:#E9EFF4;}
	.st12{fill:#DEE4E9;}
	.st13{fill:#65B1EF;}
	.st14{fill:#4E99D2;}
	.st15{opacity:0.25;}
	.st16{fill:#719D34;}
	.st17{fill:#38C0DC;}
	.st18{fill:#303538;}
	.st19{fill:#777B7E;}
	.st20{opacity:0.2;fill:#FFFFFF;}
	.st21{fill:#DE9C25;}
	.st22{fill:#45CBEA;}
	.st23{fill:#7A5B44;}
	.st24{fill:#8CC63E;}
</style>
<g>
	<circle class="st0" cx="16" cy="16" r="16"/>
	<path class="st1" d="M31.924,16c0,8.84-7.165,16-16,16c-5.03,0-9.52-2.32-12.455-5.955c2.745,2.22,6.24,3.545,10.045,3.545
		c8.835,0,16-7.16,16-16c0-3.805-1.325-7.3-3.545-10.045C29.599,6.48,31.924,10.97,31.924,16z"/>
	<path class="st2" d="M18.324,11.413c3.229-0.422,6.624,0.286,8.722,1.874c0.487,0.374,1.161-0.093,0.988-0.683
		c-1.222-4.243-6.996-5.66-10.236-2.201C17.409,10.83,17.757,11.487,18.324,11.413z"/>
	<path class="st2" d="M13.675,11.413c-3.229-0.422-6.624,0.286-8.722,1.874c-0.487,0.374-1.161-0.093-0.988-0.683
		c1.222-4.243,6.996-5.66,10.236-2.201C14.591,10.83,14.243,11.487,13.675,11.413z"/>
	<path class="st2" d="M26.653,7.228c0,0-2.346-2.243-4.405-2.877c-0.808-0.324-1.428-0.217-2.271-0.954
		c-0.101-0.102,0.851-0.9,2.807-0.279C25.182,3.879,26.951,7.029,26.653,7.228z"/>
	<path class="st2" d="M5.347,7.228c0,0,2.346-2.243,4.405-2.877c0.808-0.324,1.428-0.217,2.271-0.954
		c0.101-0.102-0.851-0.9-2.807-0.279C6.818,3.879,5.049,7.029,5.347,7.228z"/>
	<path class="st2" d="M26.039,20.654C24.77,25,20.766,28.188,16,28.188c-4.765,0-8.781-3.188-10.038-7.556
		c-0.353-1.214,0.32-2.515,1.5-2.979c5.582-2.184,11.263-2.228,17.054,0.011C25.708,18.128,26.392,19.418,26.039,20.654z"/>
	<path class="st6" d="M22.581,25.526c-0.636-2.703-2.653-4.425-5.275-3.446c-2.87,1.077-4.463-0.741-5.872,1.066
		c-0.543,0.69-0.931,1.498-1.145,2.379C13.933,27.533,18.071,27.353,22.581,25.526z"/>
	<path class="st3" d="M16,21.432c4.407,0,8.194-0.372,9.931-2.38c-0.258-0.615-0.754-1.13-1.414-1.387
		c-5.791-2.24-11.472-2.196-17.054-0.012c-0.655,0.258-1.145,0.777-1.399,1.393C7.798,21.058,11.588,21.432,16,21.432z"/>
	<path class="st3" d="M16,25.81c-3.934,0-7.381-2.738-9.311-3.352c1.725,3.4,5.242,5.73,9.312,5.73c4.077,0,7.59-2.337,9.317-5.732
		C23.388,23.067,19.938,25.81,16,25.81z"/>
</g>
</svg>
