<?xml version="1.0" encoding="utf-8"?>
<!-- Generator: Adobe Illustrator 21.1.0, SVG Export Plug-In . SVG Version: 6.00 Build 0)  -->
<svg version="1.1" id="Layer_1" xmlns="http://www.w3.org/2000/svg" xmlns:xlink="http://www.w3.org/1999/xlink" x="0px" y="0px"
	 viewBox="0 0 32 32" style="enable-background:new 0 0 32 32;" xml:space="preserve">
<style type="text/css">
	.st0{fill:#FFD93B;}
	.st1{fill:#F4C534;}
	.st2{fill:#3E4347;}
	.st3{fill:#FFFFFF;}
	.st4{fill:#5A5F63;}
	.st5{fill:#32373A;}
	.st6{fill:#E24B4B;}
	.st7{fill:#D03F3F;}
	.st8{opacity:0.2;}
	.st9{opacity:0.3;}
	.st10{fill:#AD2727;}
	.st11{fill:#E9EFF4;}
	.st12{fill:#DEE4E9;}
	.st13{fill:#65B1EF;}
	.st14{fill:#4E99D2;}
	.st15{opacity:0.25;}
	.st16{fill:#719D34;}
	.st17{fill:#38C0DC;}
	.st18{fill:#303538;}
	.st19{fill:#777B7E;}
	.st20{opacity:0.2;fill:#FFFFFF;}
	.st21{fill:#DE9C25;}
	.st22{fill:#45CBEA;}
	.st23{fill:#7A5B44;}
	.st24{fill:#8CC63E;}
</style>
<g>
	<circle class="st0" cx="16" cy="16" r="16"/>
	<path class="st1" d="M31.924,16c0,8.84-7.165,16-16,16c-5.03,0-9.52-2.32-12.455-5.955c2.745,2.22,6.24,3.545,10.045,3.545
		c8.835,0,16-7.16,16-16c0-3.805-1.325-7.3-3.545-10.045C29.599,6.48,31.924,10.97,31.924,16z"/>
	<path class="st1" d="M28.517,14.482c0,2.86-2.616,5.18-5.852,5.18c-3.227,0-5.852-2.32-5.852-5.18c0-2.86,2.625-5.18,5.852-5.18
		C25.901,9.302,28.517,11.622,28.517,14.482z"/>
	<ellipse class="st3" cx="22.665" cy="14.482" rx="4.614" ry="4.082"/>
	<path class="st2" d="M23.342,14.587c0,1.195-0.964,2.159-2.159,2.159c-1.195,0-2.159-0.964-2.159-2.159
		c0-1.187,0.964-2.159,2.159-2.159C22.378,12.428,23.342,13.4,23.342,14.587z"/>
	
		<ellipse transform="matrix(0.7071 -0.7071 0.7071 0.7071 -3.3793 19.5537)" class="st3" cx="21.914" cy="13.856" rx="0.422" ry="0.629"/>
	<path class="st2" d="M23.726,8.685c-2.469,1.317-4.923,3.055-7.27,5.171c1.736-3.044,3.589-5.632,5.642-7.484
		c0.304-0.28,0.691-0.395,1.073-0.362c0.348,0.03,0.692,0.192,0.948,0.477C24.733,7.171,24.542,8.257,23.726,8.685z"/>
	<path class="st1" d="M3.483,14.482c0,2.86,2.616,5.18,5.852,5.18c3.227,0,5.852-2.32,5.852-5.18c0-2.86-2.625-5.18-5.852-5.18
		C6.099,9.302,3.483,11.622,3.483,14.482z"/>
	<ellipse class="st3" cx="9.335" cy="14.482" rx="4.614" ry="4.082"/>
	<path class="st2" d="M12.976,14.587c0,1.195-0.964,2.159-2.159,2.159c-1.195,0-2.159-0.964-2.159-2.159
		c0-1.187,0.964-2.159,2.159-2.159C12.012,12.428,12.976,13.4,12.976,14.587z"/>
	
		<ellipse transform="matrix(0.7071 -0.7071 0.7071 0.7071 -6.4152 12.2244)" class="st3" cx="11.549" cy="13.856" rx="0.422" ry="0.629"/>
	<path class="st2" d="M8.274,8.685c2.47,1.317,4.923,3.055,7.27,5.171c-1.736-3.044-3.589-5.632-5.642-7.484
		C9.598,6.092,9.212,5.977,8.829,6.01c-0.348,0.03-0.692,0.192-0.948,0.477C7.267,7.171,7.458,8.257,8.274,8.685z"/>
	<path class="st2" d="M20.734,24.192c-2.572-2.236-7.626,0.291-10.879,2.363c-0.409,0.264-0.836-0.282-0.5-0.627
		c8.589-8.807,11.225-4.853,12.025-2.163C21.489,24.137,21.034,24.447,20.734,24.192z"/>
</g>
</svg>
