<?xml version="1.0" encoding="utf-8"?>
<!-- Generator: Adobe Illustrator 21.1.0, SVG Export Plug-In . SVG Version: 6.00 Build 0)  -->
<svg version="1.1" id="Layer_1" xmlns="http://www.w3.org/2000/svg" xmlns:xlink="http://www.w3.org/1999/xlink" x="0px" y="0px"
	 viewBox="0 0 32 32" style="enable-background:new 0 0 32 32;" xml:space="preserve">
<style type="text/css">
	.st0{fill:#FFD93B;}
	.st1{fill:#F4C534;}
	.st2{fill:#3E4347;}
	.st3{fill:#FFFFFF;}
	.st4{fill:#5A5F63;}
	.st5{fill:#32373A;}
	.st6{fill:#E24B4B;}
	.st7{fill:#D03F3F;}
	.st8{opacity:0.2;}
	.st9{opacity:0.3;}
	.st10{fill:#AD2727;}
	.st11{fill:#E9EFF4;}
	.st12{fill:#DEE4E9;}
	.st13{fill:#65B1EF;}
	.st14{fill:#4E99D2;}
	.st15{opacity:0.25;}
	.st16{fill:#719D34;}
	.st17{fill:#38C0DC;}
	.st18{fill:#303538;}
	.st19{fill:#777B7E;}
	.st20{opacity:0.2;fill:#FFFFFF;}
	.st21{fill:#DE9C25;}
	.st22{fill:#45CBEA;}
	.st23{fill:#7A5B44;}
	.st24{fill:#8CC63E;}
</style>
<g>
	<circle class="st0" cx="16" cy="16" r="16"/>
	<path class="st1" d="M32,16c0,8.84-7.165,16-16,16c-5.03,0-9.52-2.32-12.455-5.955c2.745,2.22,6.24,3.545,10.045,3.545
		c8.835,0,16-7.16,16-16c0-3.805-1.325-7.3-3.545-10.045C29.675,6.48,32,10.97,32,16z"/>
	<path class="st1" d="M17.028,14.517c-1.035,2.734,0.669,5.912,3.807,7.101c3.13,1.185,6.512-0.066,7.547-2.8
		c1.032-2.727-0.671-5.905-3.802-7.09C21.442,10.538,18.06,11.79,17.028,14.517z"/>
	<circle class="st3" cx="21.983" cy="16.368" r="4.264"/>
	<path class="st2" d="M23.529,16.636c0.008,1.391-1.113,2.512-2.504,2.504c-1.383,0-2.512-1.113-2.512-2.504
		c0-1.391,1.129-2.504,2.512-2.504C22.416,14.123,23.529,15.252,23.529,16.636z"/>
	
		<ellipse transform="matrix(0.7071 -0.7071 0.7071 0.7071 -4.7322 20.1023)" class="st3" cx="21.898" cy="15.763" rx="0.465" ry="0.684"/>
	<path class="st1" d="M14.972,14.517c1.035,2.734-0.669,5.912-3.807,7.101c-3.13,1.185-6.512-0.066-7.547-2.8
		c-1.033-2.727,0.671-5.905,3.801-7.09C10.558,10.538,13.94,11.79,14.972,14.517z"/>
	<circle class="st3" cx="10.017" cy="16.368" r="4.264"/>
	<path class="st2" d="M13.487,16.636c0.008,1.391-1.113,2.512-2.504,2.504c-1.384,0-2.512-1.113-2.512-2.504
		c0-1.391,1.129-2.504,2.512-2.504C12.374,14.123,13.487,15.252,13.487,16.636z"/>
	
		<ellipse transform="matrix(0.7071 -0.7071 0.7071 0.7071 -7.6739 13.001)" class="st3" cx="11.856" cy="15.763" rx="0.465" ry="0.684"/>
	<path class="st2" d="M26.705,7.99c-2.309,1.336-7.181,3.497-9.092-0.649c-0.092-0.2,0.139-0.393,0.32-0.272
		c1.076,0.699,3.643,1.732,8.603,0.516C26.786,7.524,26.926,7.857,26.705,7.99z"/>
	<path class="st2" d="M5.164,9.318c2.649,0.353,7.984,0.491,8.151-4.074c0.008-0.22-0.28-0.31-0.401-0.129
		c-0.724,1.057-2.699,2.994-7.751,3.764C4.909,8.918,4.908,9.28,5.164,9.318z"/>
	<path class="st2" d="M22.704,27.776c-0.291-0.928-1.343-2.194-4.307-3.182c-1.519-0.582-4.666-1.169-5.543-1.39
		c1.285-0.32,3.849-1.18,6.12-0.403C21.058,23.612,22.704,25.443,22.704,27.776z"/>
</g>
</svg>
