<?xml version="1.0" encoding="utf-8"?>
<!-- Generator: Adobe Illustrator 21.1.0, SVG Export Plug-In . SVG Version: 6.00 Build 0)  -->
<svg version="1.1" id="Layer_1" xmlns="http://www.w3.org/2000/svg" xmlns:xlink="http://www.w3.org/1999/xlink" x="0px" y="0px"
	 viewBox="0 0 32 32" style="enable-background:new 0 0 32 32;" xml:space="preserve">
<style type="text/css">
	.st0{fill:#FFD93B;}
	.st1{fill:#3E4347;}
	.st2{fill:#F4C534;}
	.st3{fill:#38C0DC;}
	.st4{fill:#45CBEA;}
	.st5{fill:#FFFFFF;}
	.st6{fill:#E24B4B;}
	.st7{fill:#5A5F63;}
	.st8{opacity:0.3;}
	.st9{opacity:0.2;}
	.st10{opacity:0.1;}
	.st11{fill:#E9B02C;}
	.st12{fill:#65B1EF;}
	.st13{fill:#E9EFF4;}
	.st14{fill:#8CC63E;}
	.st15{fill:#7FB239;}
	.st16{fill:#D03F3F;}
	.st17{fill:#D23F77;}
	.st18{fill:#E84D88;}
	.st19{fill:#59A5E0;}
	.st20{fill:#DEE4E9;}
	.st21{fill:#D3D9DD;}
	.st22{opacity:0.25;fill:#FFFFFF;}
	.st23{fill:#9A795F;}
	.st24{fill:#F29A2E;}
	.st25{fill:#FC97B2;}
	.st26{fill:#89664C;}
	.st27{fill:#7A5B44;}
	.st28{opacity:0.2;fill:#FFFFFF;}
	.st29{fill:#4E99D2;}
	.st30{fill:#BBC7D1;}
	.st31{fill:#DE9C25;}
</style>
<g>
	<g>
		<g>
			<g>
				<g>
					<g>
						<g>
							<g>
								<g>
									<g>
										<g>
											<g>
												<g>
													<g>
														<circle class="st0" cx="16" cy="16" r="16"/>
													</g>
												</g>
											</g>
										</g>
									</g>
								</g>
							</g>
						</g>
					</g>
					<g>
						<g>
							<g>
								<g>
									<g>
										<g>
											<g>
												<g>
													<g>
														<path class="st2" d="M32,16c0,8.84-7.165,16-16,16c-5.03,0-9.52-2.32-12.455-5.955
															c2.745,2.22,6.24,3.545,10.045,3.545c8.835,0,16-7.16,16-16c0-3.805-1.325-7.3-3.545-10.045
															C29.675,6.48,32,10.97,32,16z"/>
													</g>
												</g>
											</g>
										</g>
									</g>
								</g>
							</g>
						</g>
					</g>
				</g>
			</g>
		</g>
	</g>
	<path class="st12" d="M28.72,7.899c0.163,0.865-0.402,1.7-1.266,1.863c-0.864,0.162-1.702-0.41-1.864-1.274
		s0.899-3.861,0.899-3.861S28.557,7.035,28.72,7.899z"/>
	<path class="st12" d="M26.209,19.753c0.065,0.574-0.344,1.094-0.918,1.16c-0.574,0.065-1.095-0.349-1.16-0.923
		c-0.065-0.574,0.772-2.486,0.772-2.486S26.144,19.179,26.209,19.753z"/>
	<path class="st12" d="M31.324,15.094c0.061,0.523-0.31,0.999-0.834,1.061c-0.523,0.061-1-0.315-1.061-0.839
		c-0.061-0.523,0.697-2.27,0.697-2.27S31.262,14.57,31.324,15.094z"/>
	<path class="st12" d="M31.286,24.493c-0.02,0.945-0.797,1.7-1.743,1.681c-0.945-0.019-1.7-0.806-1.68-1.751
		c0.02-0.945,1.796-3.864,1.796-3.864S31.306,23.548,31.286,24.493z"/>
	<path class="st12" d="M3.113,8.144c-0.175,0.929,0.432,1.827,1.361,2.002c0.929,0.175,1.829-0.44,2.004-1.37
		c0.175-0.929-0.966-4.15-0.966-4.15S3.287,7.215,3.113,8.144z"/>
	<path class="st12" d="M0.681,15.1C0.62,15.62,0.99,16.093,1.51,16.154c0.52,0.061,0.994-0.313,1.055-0.834
		c0.061-0.52-0.693-2.256-0.693-2.256S0.742,14.58,0.681,15.1z"/>
	<path class="st12" d="M0.714,24.493c0.02,0.945,0.797,1.7,1.743,1.681c0.945-0.019,1.7-0.806,1.68-1.751
		c-0.02-0.945-1.796-3.864-1.796-3.864S0.694,23.548,0.714,24.493z"/>
	<ellipse class="st5" cx="11.063" cy="14.882" rx="3.97" ry="5.018"/>
	<circle class="st1" cx="11.653" cy="16.32" r="1.952"/>
	
		<ellipse transform="matrix(0.7071 -0.7071 0.7071 0.7071 -7.3681 13.3341)" class="st5" cx="12.412" cy="15.561" rx="0.391" ry="0.585"/>
	<ellipse class="st5" cx="20.938" cy="14.882" rx="3.97" ry="5.018"/>
	<circle class="st1" cx="20.347" cy="16.32" r="1.952"/>
	
		<ellipse transform="matrix(0.7071 -0.7071 0.7071 0.7071 -5.2661 18.4087)" class="st5" cx="19.588" cy="15.561" rx="0.585" ry="0.391"/>
	<path class="st1" d="M23.3,27.093c0.156,0.616-0.385,1.178-0.951,1.018c-4.226-1.165-8.464-1.165-12.701,0
		c-0.566,0.161-1.095-0.402-0.951-1.018c0.867-3.589,3.804-6.228,7.308-6.228C19.496,20.866,22.433,23.504,23.3,27.093z"/>
	<path class="st5" d="M21.768,23.843c-3.813-1.034-7.7-1.034-11.523,0c1.379-1.818,3.437-2.977,5.756-2.977
		C18.31,20.866,20.378,22.025,21.768,23.843z"/>
	<path class="st6" d="M20.295,27.652c-0.616,2.319-2.131,4.346-4.283,4.346c-2.173,0-3.677-2.037-4.283-4.356
		c-0.376-1.4,0.836-2.674,2.257-2.424c1.348,0.23,2.695,0.23,4.043,0C19.459,24.967,20.66,26.241,20.295,27.652z"/>
	<path class="st1" d="M24.711,9.046c-1.115-0.67-0.13-0.582-5.69-3.15C20.695,5.363,24.004,6.454,24.711,9.046z"/>
	<path class="st1" d="M12.981,5.896c-5.672,2.619-4.088,2.188-5.69,3.15C7.982,6.512,11.194,5.327,12.981,5.896z"/>
</g>
</svg>
