<?xml version="1.0" encoding="utf-8"?>
<!-- Generator: Adobe Illustrator 21.1.0, SVG Export Plug-In . SVG Version: 6.00 Build 0)  -->
<svg version="1.1" id="Layer_1" xmlns="http://www.w3.org/2000/svg" xmlns:xlink="http://www.w3.org/1999/xlink" x="0px" y="0px"
	 viewBox="0 0 32 32" style="enable-background:new 0 0 32 32;" xml:space="preserve">
<style type="text/css">
	.st0{fill:#FFD93B;}
	.st1{fill:#F4C534;}
	.st2{fill:#3E4347;}
	.st3{fill:#FFFFFF;}
	.st4{fill:#5A5F63;}
	.st5{fill:#32373A;}
	.st6{fill:#E24B4B;}
	.st7{fill:#D03F3F;}
	.st8{opacity:0.2;}
	.st9{opacity:0.3;}
	.st10{fill:#AD2727;}
	.st11{fill:#E9EFF4;}
	.st12{fill:#DEE4E9;}
	.st13{fill:#65B1EF;}
	.st14{fill:#4E99D2;}
	.st15{opacity:0.25;}
	.st16{fill:#719D34;}
	.st17{fill:#38C0DC;}
	.st18{fill:#303538;}
	.st19{fill:#777B7E;}
	.st20{opacity:0.2;fill:#FFFFFF;}
	.st21{fill:#DE9C25;}
	.st22{fill:#45CBEA;}
	.st23{fill:#7A5B44;}
	.st24{fill:#8CC63E;}
</style>
<g>
	<circle class="st0" cx="16" cy="16" r="16"/>
	<path class="st1" d="M32,16c0,8.84-7.165,16-16,16c-5.03,0-9.52-2.32-12.455-5.955c2.745,2.22,6.24,3.545,10.045,3.545
		c8.835,0,16-7.16,16-16c0-3.805-1.325-7.3-3.545-10.045C29.675,6.48,32,10.97,32,16z"/>
	<path class="st1" d="M17.139,12.688c-1.035,2.734,0.669,5.912,3.807,7.101c3.13,1.186,6.512-0.066,7.547-2.8
		c1.033-2.727-0.671-5.905-3.802-7.09C21.554,8.71,18.172,9.962,17.139,12.688z"/>
	<circle class="st3" cx="22.095" cy="14.539" r="4.264"/>
	<path class="st2" d="M23.641,14.807c0.008,1.391-1.113,2.513-2.504,2.504c-1.383,0-2.512-1.113-2.512-2.504
		c0-1.391,1.129-2.504,2.512-2.504C22.528,12.295,23.641,13.424,23.641,14.807z"/>
	
		<ellipse transform="matrix(0.7071 -0.7071 0.7071 0.7071 -3.4066 19.6458)" class="st3" cx="22.01" cy="13.935" rx="0.465" ry="0.684"/>
	<path class="st2" d="M26.902,8.237c-2.626,0.469-7.943,0.842-8.327-3.708c-0.019-0.219,0.264-0.322,0.394-0.147
		c0.773,1.024,2.835,2.87,7.913,3.416C27.137,7.826,27.155,8.188,26.902,8.237z"/>
	<path class="st1" d="M14.701,12.688c1.035,2.734-0.669,5.912-3.807,7.101c-3.13,1.186-6.512-0.066-7.547-2.8
		c-1.033-2.727,0.671-5.905,3.802-7.09C10.287,8.71,13.668,9.962,14.701,12.688z"/>
	<circle class="st3" cx="9.746" cy="14.539" r="4.264"/>
	<path class="st2" d="M13.216,14.807c0.008,1.391-1.113,2.513-2.504,2.504c-1.384,0-2.512-1.113-2.512-2.504
		c0-1.391,1.129-2.504,2.512-2.504C12.103,12.295,13.216,13.424,13.216,14.807z"/>
	
		<ellipse transform="matrix(0.7071 -0.7071 0.7071 0.7071 -6.4605 12.2735)" class="st3" cx="11.584" cy="13.935" rx="0.465" ry="0.684"/>
	<path class="st2" d="M4.938,8.237c2.626,0.469,7.943,0.842,8.327-3.708c0.019-0.219-0.264-0.322-0.394-0.147
		c-0.773,1.024-2.835,2.87-7.912,3.416C4.703,7.826,4.685,8.188,4.938,8.237z"/>
	<path class="st2" d="M24.014,26.849c-1.205,2.555-8.067,1.282-15.057-0.077c-0.479-0.094-0.795-0.547-0.718-1.026
		c0.53-3.222,3.324-5.683,6.691-5.683c3.529,0,8.563,2.837,9.144,6.298C24.099,26.524,24.082,26.704,24.014,26.849z"/>
	<path class="st6" d="M21.479,28.222c0-0.02,0.003-0.039,0.003-0.058c0-1.139-0.361-2.202-0.975-3.067
		c-0.822-1.15-2.29-1.578-3.659-1.249c-0.438,0.099-0.898,0.153-1.391,0.153c-0.219,0-0.427-0.01-0.625-0.022
		c-1.304-0.131-2.607,0.384-3.276,1.512c-0.299,0.505-0.506,1.066-0.622,1.661C15.083,27.937,18.994,28.561,21.479,28.222z"/>
</g>
</svg>
