<?xml version="1.0" encoding="utf-8"?>
<!-- Generator: Adobe Illustrator 21.1.0, SVG Export Plug-In . SVG Version: 6.00 Build 0)  -->
<svg version="1.1" id="Layer_1" xmlns="http://www.w3.org/2000/svg" xmlns:xlink="http://www.w3.org/1999/xlink" x="0px" y="0px"
	 viewBox="0 0 32 32" style="enable-background:new 0 0 32 32;" xml:space="preserve">
<style type="text/css">
	.st0{fill:#FFD93B;}
	.st1{fill:#F4C534;}
	.st2{fill:#3E4347;}
	.st3{fill:#FFFFFF;}
	.st4{fill:#5A5F63;}
	.st5{fill:#32373A;}
	.st6{fill:#E24B4B;}
	.st7{fill:#D03F3F;}
	.st8{opacity:0.2;}
	.st9{opacity:0.3;}
	.st10{fill:#AD2727;}
	.st11{fill:#E9EFF4;}
	.st12{fill:#DEE4E9;}
	.st13{fill:#65B1EF;}
	.st14{fill:#4E99D2;}
	.st15{opacity:0.25;}
	.st16{fill:#719D34;}
	.st17{fill:#38C0DC;}
	.st18{fill:#303538;}
	.st19{fill:#777B7E;}
	.st20{opacity:0.2;fill:#FFFFFF;}
	.st21{fill:#DE9C25;}
	.st22{fill:#45CBEA;}
	.st23{fill:#7A5B44;}
	.st24{fill:#8CC63E;}
</style>
<g>
	<g>
		<g>
			<g>
				<g>
					<g>
						<g>
							<g>
								<g>
									<g>
										<g>
											<g>
												<g>
													<g>
														<g>
															<g>
																<g>
																	<g>
																		<g>
																			<g>
																				<g>
																					<g>
																						<g>
																							<g>
																								<g>
																									<g>
																										<g>
																											<g>
																												<circle class="st0" cx="16" cy="16" r="16"/>
																											</g>
																										</g>
																									</g>
																								</g>
																							</g>
																							<g>
																								<g>
																									<g>
																										<g>
																											<g>
																												<path class="st1" d="M32,16c0,8.84-7.165,16-16,16c-5.03,0-9.52-2.32-12.455-5.955
																													c2.745,2.22,6.24,3.545,10.045,3.545c8.835,0,16-7.16,16-16c0-3.805-1.325-7.3-3.545-10.045
																													C29.675,6.48,32,10.97,32,16z"/>
																											</g>
																										</g>
																									</g>
																								</g>
																							</g>
																						</g>
																					</g>
																				</g>
																			</g>
																		</g>
																	</g>
																</g>
															</g>
														</g>
													</g>
												</g>
											</g>
										</g>
									</g>
								</g>
							</g>
						</g>
					</g>
				</g>
			</g>
		</g>
	</g>
	<g>
		<g>
			<g>
				<g>
					<path class="st1" d="M14.449,11.237c0,3.795-3.069,6.874-6.864,6.874c-3.805,0-6.874-3.08-6.874-6.874
						c0-3.795,3.069-6.874,6.874-6.874C11.38,4.363,14.449,7.443,14.449,11.237z"/>
				</g>
				<g>
					<path class="st3" d="M13.818,11.237c-0.21,3.248-3.164,5.887-6.601,5.887c-3.448,0-6.076-2.639-5.876-5.887
						c0.21-3.259,3.164-5.886,6.601-5.886C11.39,5.351,14.018,7.979,13.818,11.237z"/>
				</g>
			</g>
			<g>
				<path class="st2" d="M7.285,6.759c5.165,0.316,5.407,5.186,3.495,7.417c-0.682,0.794-1.663,1.359-2.763,1.496
					c-4.061,0.543-6.492-4.031-3.794-6.643c1.592-1.606,4.348-0.863,4.886,1.057c0.653,2.223-2.048,3.745-3.115,2.178
					c1.182,1.019,2.919-0.411,2.259-1.883C7.808,9.33,6.143,8.971,5.216,9.999c-1.575,1.706,0.034,4.453,2.616,4.163
					c0.959-0.115,1.771-0.664,1.925-0.92c0.977-1.035,1.224-2.602,0.811-3.837C9.888,7.31,7.285,6.759,7.285,6.759z"/>
			</g>
		</g>
		<g>
			<g>
				<g>
					<path class="st1" d="M31.29,11.237c0,3.795-3.069,6.874-6.864,6.874c-3.805,0-6.874-3.08-6.874-6.874
						c0-3.795,3.069-6.874,6.874-6.874C28.22,4.363,31.29,7.443,31.29,11.237z"/>
				</g>
				<g>
					<path class="st3" d="M30.659,11.237c-0.21,3.248-3.164,5.887-6.601,5.887c-3.448,0-6.076-2.639-5.876-5.887
						c0.21-3.259,3.164-5.886,6.601-5.886C28.231,5.351,30.859,7.979,30.659,11.237z"/>
				</g>
			</g>
			<g>
				<path class="st2" d="M24.126,6.759c5.165,0.316,5.407,5.186,3.495,7.417c-0.682,0.794-1.663,1.359-2.763,1.496
					c-4.061,0.543-6.492-4.031-3.794-6.643c1.592-1.606,4.348-0.863,4.886,1.057c0.653,2.223-2.048,3.745-3.115,2.178
					c1.182,1.019,2.92-0.411,2.259-1.883c-0.446-1.051-2.11-1.41-3.037-0.382c-1.575,1.706,0.034,4.453,2.616,4.163
					c0.959-0.115,1.771-0.664,1.925-0.92c0.977-1.035,1.224-2.602,0.811-3.837C26.729,7.31,24.126,6.759,24.126,6.759z"/>
			</g>
		</g>
	</g>
	<g>
		<g>
			<path class="st2" d="M21.506,26.21c-3.604-1.425-7.336-1.945-11.01,0.57c-0.606,0.437-1.267-0.178-1.021-0.981
				c1-3.263,3.673-5.147,6.71-4.632c3.033,0.506,5.48,2.59,6.4,4.423C22.819,26.053,22.108,26.441,21.506,26.21z"/>
		</g>
		<path class="st6" d="M18.979,25.401c-0.132-0.647-0.535-1.235-1.124-1.684c-0.313-0.238-0.739-0.326-1.126-0.236
			c-0.336,0.082-0.705,0.12-1.116,0.101c-0.086-0.005-0.173-0.01-0.255-0.018c-0.877-0.102-1.763,0.27-2.192,1.12
			c-0.138,0.275-0.236,0.576-0.301,0.893C14.912,24.85,16.962,24.909,18.979,25.401z"/>
	</g>
</g>
</svg>
