<?xml version="1.0" encoding="utf-8"?>
<!-- Generator: Adobe Illustrator 21.1.0, SVG Export Plug-In . SVG Version: 6.00 Build 0)  -->
<svg version="1.1" id="Layer_1" xmlns="http://www.w3.org/2000/svg" xmlns:xlink="http://www.w3.org/1999/xlink" x="0px" y="0px"
	 viewBox="0 0 32 32" style="enable-background:new 0 0 32 32;" xml:space="preserve">
<style type="text/css">
	.st0{fill:#FFD93B;}
	.st1{fill:#F4C534;}
	.st2{fill:#3E4347;}
	.st3{fill:#FFFFFF;}
	.st4{fill:#5A5F63;}
	.st5{fill:#32373A;}
	.st6{fill:#E24B4B;}
	.st7{fill:#D03F3F;}
	.st8{opacity:0.2;}
	.st9{opacity:0.3;}
	.st10{fill:#AD2727;}
	.st11{fill:#E9EFF4;}
	.st12{fill:#DEE4E9;}
	.st13{fill:#65B1EF;}
	.st14{fill:#4E99D2;}
	.st15{opacity:0.25;}
	.st16{fill:#719D34;}
	.st17{fill:#38C0DC;}
	.st18{fill:#303538;}
	.st19{fill:#777B7E;}
	.st20{opacity:0.2;fill:#FFFFFF;}
	.st21{fill:#DE9C25;}
	.st22{fill:#45CBEA;}
	.st23{fill:#7A5B44;}
	.st24{fill:#8CC63E;}
</style>
<g>
	<g>
		<g>
			<g>
				<g>
					<g>
						<g>
							<g>
								<g>
									<g>
										<g>
											<g>
												<g>
													<g>
														<g>
															<g>
																<g>
																	<g>
																		<g>
																			<g>
																				<g>
																					<g>
																						<g>
																							<g>
																								<g>
																									<g>
																										<g>
																											<g>
																												<circle class="st0" cx="16" cy="16" r="16"/>
																											</g>
																										</g>
																									</g>
																								</g>
																							</g>
																						</g>
																						<g>
																							<g>
																								<g>
																									<g>
																										<g>
																											<g>
																												<path class="st1" d="M32,16c0,8.84-7.165,16-16,16c-5.03,0-9.52-2.32-12.455-5.955
																													c2.745,2.22,6.24,3.545,10.045,3.545c8.835,0,16-7.16,16-16c0-3.805-1.325-7.3-3.545-10.045
																													C29.675,6.48,32,10.97,32,16z"/>
																											</g>
																										</g>
																									</g>
																								</g>
																							</g>
																						</g>
																					</g>
																				</g>
																			</g>
																		</g>
																	</g>
																</g>
															</g>
														</g>
													</g>
												</g>
											</g>
										</g>
									</g>
								</g>
							</g>
						</g>
					</g>
				</g>
			</g>
		</g>
	</g>
	<g>
		<ellipse class="st2" cx="15.998" cy="23.103" rx="3.28" ry="3.532"/>
	</g>
	<g>
		<g>
			<g>
				<path class="st2" d="M13.867,15.737c0.04,0.32-0.1,0.65-0.37,0.84c-0.361,0.265-0.889,0.2-1.2-0.18
					c-0.28-0.23-1.26-0.91-2.41-1.65c-0.78,1.01-1.47,1.99-1.72,2.52c-0.201,0.415-0.721,0.634-1.17,0.41
					c-0.44-0.2-0.62-0.72-0.42-1.16c0.32-0.66,1.08-1.73,1.82-2.69c-1.06-0.64-2.09-1.2-2.71-1.43c-0.46-0.17-0.69-0.67-0.53-1.12
					c0.17-0.46,0.67-0.69,1.13-0.53c0.26,0.09,1.65,0.82,3.17,1.71c2.55-3.19,2.67-3.14,3.3-2.86c0.45,0.19,0.65,0.71,0.45,1.15
					c0,0-1.117,1.252-2.24,2.62C12.487,14.327,13.807,15.267,13.867,15.737z"/>
				<path class="st2" d="M26.657,12.177c0,0-1.511,0.766-3.04,1.66c1.07,1.43,1.97,2.79,1.87,3.24c-0.07,0.31-0.31,0.57-0.62,0.66
					c-0.501,0.125-0.946-0.161-1.07-0.59c-0.18-0.31-0.87-1.29-1.7-2.39c-1.09,0.67-2.07,1.33-2.48,1.73
					c-0.338,0.338-0.905,0.335-1.24-0.02c-0.34-0.34-0.33-0.89,0.02-1.23c0.52-0.51,1.61-1.24,2.63-1.88
					c-0.76-0.97-1.51-1.86-2.01-2.3c-0.37-0.32-0.4-0.87-0.09-1.23c0.32-0.37,0.87-0.41,1.24-0.09c0.21,0.18,1.25,1.35,2.35,2.71
					c3.51-2.07,3.61-1.97,4.1-1.51C26.967,11.267,26.987,11.817,26.657,12.177z"/>
			</g>
		</g>
	</g>
</g>
</svg>
