<?xml version="1.0" encoding="utf-8"?>
<!-- Generator: Adobe Illustrator 21.1.0, SVG Export Plug-In . SVG Version: 6.00 Build 0)  -->
<svg version="1.1" id="Layer_1" xmlns="http://www.w3.org/2000/svg" xmlns:xlink="http://www.w3.org/1999/xlink" x="0px" y="0px"
	 viewBox="0 0 32 32" style="enable-background:new 0 0 32 32;" xml:space="preserve">
<style type="text/css">
	.st0{fill:#FFD93B;}
	.st1{fill:#F4C534;}
	.st2{fill:#3E4347;}
	.st3{fill:#FFFFFF;}
	.st4{fill:#5A5F63;}
	.st5{fill:#32373A;}
	.st6{fill:#E24B4B;}
	.st7{fill:#D03F3F;}
	.st8{opacity:0.2;}
	.st9{opacity:0.3;}
	.st10{fill:#AD2727;}
	.st11{fill:#E9EFF4;}
	.st12{fill:#DEE4E9;}
	.st13{fill:#65B1EF;}
	.st14{fill:#4E99D2;}
	.st15{opacity:0.25;}
	.st16{fill:#719D34;}
	.st17{fill:#38C0DC;}
	.st18{fill:#303538;}
	.st19{fill:#777B7E;}
	.st20{opacity:0.2;fill:#FFFFFF;}
	.st21{fill:#DE9C25;}
	.st22{fill:#45CBEA;}
	.st23{fill:#7A5B44;}
	.st24{fill:#8CC63E;}
</style>
<g>
	<g>
		<g>
			<g>
				<g>
					<g>
						<g>
							<g>
								<g>
									<g>
										<g>
											<g>
												<g>
													<g>
														<g>
															<g>
																<g>
																	<g>
																		<g>
																			<g>
																				<g>
																					<g>
																						<g>
																							<g>
																								<g>
																									<g>
																										<g>
																											<g>
																												<circle class="st0" cx="16" cy="16" r="16"/>
																											</g>
																										</g>
																									</g>
																								</g>
																							</g>
																						</g>
																						<g>
																							<g>
																								<g>
																									<g>
																										<g>
																											<g>
																												<path class="st1" d="M32,16c0,8.84-7.165,16-16,16c-5.03,0-9.52-2.32-12.455-5.955
																													c2.745,2.22,6.24,3.545,10.045,3.545c8.835,0,16-7.16,16-16c0-3.805-1.325-7.3-3.545-10.045
																													C29.675,6.48,32,10.97,32,16z"/>
																											</g>
																										</g>
																									</g>
																								</g>
																							</g>
																						</g>
																					</g>
																				</g>
																			</g>
																		</g>
																	</g>
																</g>
															</g>
														</g>
													</g>
												</g>
											</g>
										</g>
									</g>
								</g>
							</g>
						</g>
					</g>
				</g>
			</g>
		</g>
		<g>
			<path class="st2" d="M20.481,24.617c0,1.873-2.009,3.397-4.478,3.397c-2.477,0-4.486-1.524-4.486-3.397
				c0-1.873,2.009-3.388,4.486-3.388C18.472,21.229,20.481,22.744,20.481,24.617z"/>
		</g>
		<g>
			<g>
				<g>
					<g>
						<path class="st1" d="M15.124,14.427c0,2.71-2.19,4.9-4.89,4.9c-2.7,0-4.9-2.19-4.9-4.9c0-2.7,2.2-4.89,4.9-4.89
							C12.934,9.537,15.124,11.727,15.124,14.427z"/>
					</g>
					<g>
						<path class="st3" d="M6.187,13.461c-0.103,0.312-0.182,0.633-0.212,0.967c-0.209,2.323,1.534,4.201,3.881,4.201
							c2.347,0,4.419-1.878,4.628-4.201c0.03-0.334,0.009-0.655-0.038-0.967C11.739,12.496,8.986,12.509,6.187,13.461z"/>
					</g>
				</g>
				<g>
					<g>
						
							<ellipse transform="matrix(0.7071 -0.7071 0.7071 0.7071 -7.609 12.3607)" class="st2" cx="11.116" cy="15.365" rx="1.934" ry="1.934"/>
					</g>
					<g>
						
							<ellipse transform="matrix(0.7071 -0.7071 0.7071 0.7071 -6.8692 12.6668)" class="st4" cx="11.856" cy="14.625" rx="0.43" ry="0.578"/>
					</g>
				</g>
			</g>
			<g>
				<g>
					<g>
						<path class="st1" d="M17.373,14.427c0,2.71,2.19,4.9,4.89,4.9s4.9-2.19,4.9-4.9c0-2.7-2.2-4.89-4.9-4.89
							S17.373,11.727,17.373,14.427z"/>
					</g>
					<g>
						<path class="st3" d="M26.309,13.461c0.103,0.312,0.182,0.633,0.212,0.967c0.209,2.323-1.534,4.201-3.881,4.201
							c-2.347,0-4.419-1.878-4.628-4.201c-0.03-0.334-0.009-0.655,0.038-0.967C20.757,12.496,23.511,12.509,26.309,13.461z"/>
					</g>
				</g>
				<g>
					<g>
						
							<ellipse transform="matrix(0.7071 -0.7071 0.7071 0.7071 -4.6024 19.6188)" class="st2" cx="21.381" cy="15.365" rx="1.934" ry="1.934"/>
					</g>
					<g>
						
							<ellipse transform="matrix(0.7071 -0.7071 0.7071 0.7071 -4.296 18.879)" class="st4" cx="20.641" cy="14.625" rx="0.578" ry="0.43"/>
					</g>
				</g>
			</g>
		</g>
	</g>
	<g>
		<g>
			<path class="st2" d="M25.642,7.493c-3.313-1.59-6.217-0.948-7.848-0.298c-0.341,0.134-0.622-0.294-0.374-0.56
				c3.542-3.776,6.887-1.472,8.623,0.313C26.312,7.228,25.988,7.661,25.642,7.493z"/>
		</g>
		<g>
			<path class="st2" d="M6.358,7.493c3.313-1.59,6.217-0.948,7.848-0.298c0.341,0.134,0.622-0.294,0.374-0.56
				c-3.542-3.776-6.887-1.472-8.623,0.313C5.688,7.228,6.012,7.661,6.358,7.493z"/>
		</g>
	</g>
</g>
</svg>
