<?xml version="1.0" encoding="utf-8"?>
<!-- Generator: Adobe Illustrator 21.1.0, SVG Export Plug-In . SVG Version: 6.00 Build 0)  -->
<svg version="1.1" id="Layer_1" xmlns="http://www.w3.org/2000/svg" xmlns:xlink="http://www.w3.org/1999/xlink" x="0px" y="0px"
	 viewBox="0 0 32 32" style="enable-background:new 0 0 32 32;" xml:space="preserve">
<style type="text/css">
	.st0{fill:#FFD93B;}
	.st1{fill:#F4C534;}
	.st2{fill:#3E4347;}
	.st3{fill:#FFFFFF;}
	.st4{fill:#5A5F63;}
	.st5{fill:#32373A;}
	.st6{fill:#E24B4B;}
	.st7{fill:#D03F3F;}
	.st8{opacity:0.2;}
	.st9{opacity:0.3;}
	.st10{fill:#AD2727;}
	.st11{fill:#E9EFF4;}
	.st12{fill:#DEE4E9;}
	.st13{fill:#65B1EF;}
	.st14{fill:#4E99D2;}
	.st15{opacity:0.25;}
	.st16{fill:#719D34;}
	.st17{fill:#38C0DC;}
	.st18{fill:#303538;}
	.st19{fill:#777B7E;}
	.st20{opacity:0.2;fill:#FFFFFF;}
	.st21{fill:#DE9C25;}
	.st22{fill:#45CBEA;}
	.st23{fill:#7A5B44;}
	.st24{fill:#8CC63E;}
</style>
<g>
	<g>
		<g>
			<g>
				<g>
					<g>
						<g>
							<g>
								<g>
									<g>
										<g>
											<g>
												<g>
													<g>
														<g>
															<g>
																<g>
																	<g>
																		<g>
																			<g>
																				<g>
																					<g>
																						<g>
																							<g>
																								<g>
																									<circle class="st0" cx="16" cy="16" r="16"/>
																								</g>
																							</g>
																						</g>
																					</g>
																				</g>
																			</g>
																			<g>
																				<g>
																					<g>
																						<g>
																							<g>
																								<g>
																									<path class="st1" d="M32,16c0,8.84-7.165,16-16,16c-5.03,0-9.52-2.32-12.455-5.955
																										c2.745,2.22,6.24,3.545,10.045,3.545c8.835,0,16-7.16,16-16c0-3.805-1.325-7.3-3.545-10.045
																										C29.675,6.48,32,10.97,32,16z"/>
																								</g>
																							</g>
																						</g>
																					</g>
																				</g>
																			</g>
																		</g>
																	</g>
																</g>
															</g>
														</g>
													</g>
												</g>
											</g>
										</g>
									</g>
								</g>
							</g>
						</g>
					</g>
				</g>
			</g>
		</g>
	</g>
	<path class="st1" d="M15.193,14.882c0,2.921-2.373,5.303-5.303,5.303c-2.921,0-5.303-2.382-5.303-5.303
		c0-2.93,2.382-5.303,5.303-5.303C12.82,9.58,15.193,11.952,15.193,14.882z"/>
	<path class="st3" d="M14.372,14.882c-0.256,2.468-2.47,4.48-4.947,4.48c-2.469,0-4.274-2.012-4.018-4.48
		c0.257-2.476,2.478-4.481,4.947-4.481C12.831,10.402,14.629,12.407,14.372,14.882z"/>
	
		<ellipse transform="matrix(0.7071 -0.7071 0.7071 0.7071 -7.412 11.679)" class="st2" cx="10.392" cy="14.786" rx="2.193" ry="2.193"/>
	
		<ellipse transform="matrix(0.7071 -0.7071 0.7071 0.7071 -6.5438 12.0383)" class="st4" cx="11.26" cy="13.918" rx="0.425" ry="0.723"/>
	<path class="st2" d="M5.383,9.364c-0.14-0.84,0.891-2.72,2.6-3.515c2.586-1.088,4.772-0.452,6.124,1.151
		c-1.795-0.237-2.859-0.86-5.582,0.101C7.617,7.508,5.851,8.486,5.383,9.364z"/>
	<path class="st1" d="M16.807,14.882c0,2.921,2.373,5.303,5.303,5.303c2.921,0,5.303-2.382,5.303-5.303
		c0-2.93-2.382-5.303-5.303-5.303C19.18,9.58,16.807,11.952,16.807,14.882z"/>
	<path class="st3" d="M17.628,14.882c0.256,2.468,2.47,4.48,4.947,4.48c2.469,0,4.274-2.012,4.019-4.48
		c-0.257-2.476-2.478-4.481-4.947-4.481C19.169,10.402,17.371,12.407,17.628,14.882z"/>
	
		<ellipse transform="matrix(0.7071 -0.7071 0.7071 0.7071 -4.1266 19.6103)" class="st2" cx="21.608" cy="14.786" rx="2.193" ry="2.193"/>
	
		<ellipse transform="matrix(0.7071 -0.7071 0.7071 0.7071 -3.7672 18.741)" class="st4" cx="20.74" cy="13.918" rx="0.723" ry="0.425"/>
	<path class="st2" d="M26.617,9.364C26.228,8.829,24.686,8,24.077,7.695c-0.354-0.206-1.526-0.607-2.278-0.691
		c-1.399-0.264-2.906,0.02-3.906-0.004c1-0.821,3.069-1.748,5.037-1.202c0.51,0.106,1.329,0.48,1.813,0.848
		C25.407,7.083,26.749,8.684,26.617,9.364z"/>
	
		<ellipse transform="matrix(0.9727 -0.2319 0.2319 0.9727 -5.3228 5.1269)" class="st2" cx="19.149" cy="25.208" rx="3.175" ry="2.448"/>
</g>
</svg>
