<?xml version="1.0" encoding="utf-8"?>
<!-- Generator: Adobe Illustrator 21.1.0, SVG Export Plug-In . SVG Version: 6.00 Build 0)  -->
<svg version="1.1" id="Layer_1" xmlns="http://www.w3.org/2000/svg" xmlns:xlink="http://www.w3.org/1999/xlink" x="0px" y="0px"
	 viewBox="0 0 32 32" style="enable-background:new 0 0 32 32;" xml:space="preserve">
<style type="text/css">
	.st0{fill:#FFD93B;}
	.st1{fill:#F4C534;}
	.st2{fill:#3E4347;}
	.st3{fill:#FFFFFF;}
	.st4{fill:#5A5F63;}
	.st5{fill:#32373A;}
	.st6{fill:#E24B4B;}
	.st7{fill:#D03F3F;}
	.st8{opacity:0.2;}
	.st9{opacity:0.3;}
	.st10{fill:#AD2727;}
	.st11{fill:#E9EFF4;}
	.st12{fill:#DEE4E9;}
	.st13{fill:#65B1EF;}
	.st14{fill:#4E99D2;}
	.st15{opacity:0.25;}
	.st16{fill:#719D34;}
	.st17{fill:#38C0DC;}
	.st18{fill:#303538;}
	.st19{fill:#777B7E;}
	.st20{opacity:0.2;fill:#FFFFFF;}
	.st21{fill:#DE9C25;}
	.st22{fill:#45CBEA;}
	.st23{fill:#7A5B44;}
	.st24{fill:#8CC63E;}
</style>
<g>
	<g>
		<g>
			<g>
				<g>
					<g>
						<g>
							<g>
								<g>
									<g>
										<g>
											<g>
												<g>
													<g>
														<g>
															<g>
																<g>
																	<g>
																		<g>
																			<g>
																				<g>
																					<g>
																						<g>
																							<g>
																								<g>
																									<circle class="st0" cx="16" cy="16" r="16"/>
																								</g>
																							</g>
																						</g>
																					</g>
																				</g>
																			</g>
																			<g>
																				<g>
																					<g>
																						<g>
																							<g>
																								<g>
																									<path class="st1" d="M32,16c0,8.84-7.165,16-16,16c-5.03,0-9.52-2.32-12.455-5.955
																										c2.745,2.22,6.24,3.545,10.045,3.545c8.835,0,16-7.16,16-16c0-3.805-1.325-7.3-3.545-10.045
																										C29.675,6.48,32,10.97,32,16z"/>
																								</g>
																							</g>
																						</g>
																					</g>
																				</g>
																			</g>
																		</g>
																	</g>
																</g>
															</g>
														</g>
													</g>
												</g>
											</g>
										</g>
									</g>
								</g>
							</g>
						</g>
					</g>
				</g>
			</g>
		</g>
	</g>
	<g>
		<g>
			<path class="st2" d="M26.562,15.269c0.699,1.335-8.462,3.204-9.197,1.662c-0.193-0.497,0.736-1.073,3.295-2.422
				c1.925-1.015,3.779-1.756,4.092-1.408c0.255,0.284-0.883,1.601-2.401,2.418C24.562,15.157,26.359,14.862,26.562,15.269z"/>
		</g>
		<g>
			<path class="st2" d="M26.887,10.184c-0.933-0.182-2.001-0.4-3.612-0.176c-1.042,0.152-2.015,0.495-2.849,0.987
				c-1.12,0.672-1.647,1.319-2.107,2.078c-0.099,0.165-0.359,0.111-0.37-0.081c-0.057-1.008,0.471-2.54,1.949-3.453
				c0.084-0.057,0.171-0.108,0.261-0.158c0.579-0.317,1.243-0.541,1.944-0.649c1.719-0.278,3.556,0.028,4.955,1.121
				C27.248,10.003,27.124,10.234,26.887,10.184z"/>
		</g>
	</g>
	<g>
		<g>
			<path class="st2" d="M5.438,15.269c-0.699,1.335,8.462,3.204,9.197,1.662c0.193-0.497-0.736-1.073-3.295-2.422
				c-1.925-1.015-3.779-1.756-4.092-1.408c-0.255,0.284,0.883,1.601,2.401,2.418C7.439,15.157,5.642,14.862,5.438,15.269z"/>
		</g>
		<g>
			<path class="st2" d="M5.113,10.184c0.933-0.182,2.001-0.4,3.612-0.176c1.042,0.152,2.015,0.495,2.849,0.987
				c1.12,0.672,1.647,1.319,2.107,2.078c0.098,0.165,0.359,0.111,0.37-0.081c0.057-1.008-0.471-2.54-1.949-3.453
				c-0.084-0.057-0.171-0.108-0.261-0.158c-0.579-0.317-1.244-0.541-1.944-0.649C8.178,8.455,6.341,8.761,4.942,9.853
				C4.752,10.003,4.876,10.234,5.113,10.184z"/>
		</g>
	</g>
	<g>
		<g>
			<g>
				<g>
					<g>
						<path class="st2" d="M24.603,23.223c-2.113,3.243-5.184,5.277-8.605,5.277c-3.422,0-6.492-2.035-8.597-5.277
							c-0.154-0.236,0.043-0.545,0.308-0.5c5.517,0.981,11.052,0.981,16.586,0C24.56,22.678,24.757,22.986,24.603,23.223z"/>
						<path class="st3" d="M23.96,22.775c-5.311,0.903-10.622,0.904-15.917,0l0.819,1.003c0.3,0.368,0.721,0.614,1.175,0.68
							c4.117,0.605,7.801,0.605,11.928,0c0.455-0.067,0.875-0.312,1.176-0.68L23.96,22.775z"/>
					</g>
				</g>
			</g>
		</g>
	</g>
	<g>
		<path class="st6" d="M20.309,27.328v0.027c-1.326,0.736-2.789,1.145-4.311,1.145c-1.523,0-2.968-0.4-4.294-1.135
			c0.103-1.026,1.3-1.817,2.763-1.817c0.488,0,0.941,0.082,1.334,0.245c0.47-0.273,1.078-0.427,1.728-0.427
			C19.06,25.366,20.309,26.247,20.309,27.328z"/>
	</g>
	<g class="st9">
		<path class="st3" d="M19.056,26.491c-0.104,0.247-0.649,0.354-1.217,0.239c-0.568-0.124-0.939-0.42-0.835-0.675
			c0.104-0.247,0.649-0.354,1.217-0.239C18.778,25.939,19.16,26.236,19.056,26.491z"/>
	</g>
</g>
</svg>
