<?xml version="1.0" encoding="utf-8"?>
<!-- Generator: Adobe Illustrator 21.1.0, SVG Export Plug-In . SVG Version: 6.00 Build 0)  -->
<svg version="1.1" id="Layer_1" xmlns="http://www.w3.org/2000/svg" xmlns:xlink="http://www.w3.org/1999/xlink" x="0px" y="0px"
	 viewBox="0 0 32 32" style="enable-background:new 0 0 32 32;" xml:space="preserve">
<style type="text/css">
	.st0{fill:#FFD93B;}
	.st1{fill:#F4C534;}
	.st2{fill:#3E4347;}
	.st3{fill:#FFFFFF;}
	.st4{fill:#5A5F63;}
	.st5{fill:#32373A;}
	.st6{fill:#E24B4B;}
	.st7{fill:#D03F3F;}
	.st8{opacity:0.2;}
	.st9{opacity:0.3;}
	.st10{fill:#AD2727;}
	.st11{fill:#E9EFF4;}
	.st12{fill:#DEE4E9;}
	.st13{fill:#65B1EF;}
	.st14{fill:#4E99D2;}
	.st15{opacity:0.25;}
	.st16{fill:#719D34;}
	.st17{fill:#38C0DC;}
	.st18{fill:#303538;}
	.st19{fill:#777B7E;}
	.st20{opacity:0.2;fill:#FFFFFF;}
	.st21{fill:#DE9C25;}
	.st22{fill:#45CBEA;}
	.st23{fill:#7A5B44;}
	.st24{fill:#8CC63E;}
</style>
<g>
	<g>
		<g>
			<g>
				<g>
					<g>
						<g>
							<g>
								<g>
									<g>
										<g>
											<g>
												<g>
													<g>
														<g>
															<g>
																<g>
																	<g>
																		<g>
																			<g>
																				<g>
																					<g>
																						<g>
																							<g>
																								<g>
																									<g>
																										<path class="st0" d="M23.468,15.049c2.599,6.236-0.339,13.399-6.557,16.002
																											c-6.218,2.603-13.366-0.337-15.965-6.573C-1.652,18.246,1.285,11.08,7.503,8.476
																											C13.721,5.873,20.87,8.817,23.468,15.049z"/>
																									</g>
																								</g>
																							</g>
																						</g>
																					</g>
																				</g>
																				<path class="st1" d="M23.468,15.049c-0.511-1.227-1.204-2.321-2.027-3.276c0.975,1.795,1.534,3.851,1.534,6.039
																					c0,6.991-5.653,12.653-12.624,12.653c-2.411,0-4.658-0.685-6.574-1.86c3.399,3.253,8.52,4.377,13.133,2.446
																					C23.128,28.448,26.066,21.286,23.468,15.049z"/>
																			</g>
																		</g>
																	</g>
																</g>
															</g>
														</g>
													</g>
												</g>
											</g>
										</g>
									</g>
								</g>
							</g>
						</g>
					</g>
				</g>
			</g>
			<g>
				<g>
					<g>
						<g>
							<ellipse class="st1" cx="7.628" cy="18.049" rx="4.253" ry="4.263"/>
						</g>
						<g>
							<path class="st3" d="M11.152,18.043c0,1.949-1.575,3.532-3.524,3.532c-1.944,0-3.523-1.583-3.523-3.532
								c0-1.949,1.579-3,3.523-3C9.577,15.044,11.152,16.095,11.152,18.043z"/>
						</g>
						<g>
							<g>
								<circle class="st2" cx="7.916" cy="19.621" r="1.466"/>
							</g>
							<g>
								
									<ellipse transform="matrix(0.9587 -0.2845 0.2845 0.9587 -5.1414 3.2641)" class="st4" cx="8.664" cy="19.329" rx="0.272" ry="0.387"/>
							</g>
						</g>
						<g>
							<path class="st1" d="M10.416,18.545c-1.857,0.534-3.718,0.534-5.575,0c-0.508-0.145-0.846-0.649-0.752-1.167
								c0.294-1.651,1.727-2.974,3.539-2.974c1.822,0,3.245,1.327,3.539,2.974C11.262,17.897,10.923,18.401,10.416,18.545z"/>
						</g>
					</g>
					<g>
						<path class="st2" d="M11.281,13.931c-2.333-1.479-5.041-1.176-6.217-0.932c-0.148,0.031-0.25-0.174-0.135-0.267
							c3.371-2.743,5.752-0.194,6.55,0.994C11.558,13.845,11.401,14.007,11.281,13.931z"/>
					</g>
				</g>
				<g>
					<g>
						<g>
							<ellipse class="st1" cx="16.97" cy="18.049" rx="4.253" ry="4.263"/>
						</g>
						<g>
							<path class="st3" d="M13.447,18.043c0,1.949,1.575,3.532,3.524,3.532c1.944,0,3.524-1.583,3.524-3.532
								c0-1.949-1.58-3-3.524-3C15.021,15.044,13.447,16.095,13.447,18.043z"/>
						</g>
						<g>
							<g>
								<circle class="st2" cx="16.682" cy="19.621" r="1.466"/>
							</g>
							<g>
								
									<ellipse transform="matrix(0.2845 -0.9587 0.9587 0.2845 -7.1294 29.1047)" class="st4" cx="15.934" cy="19.329" rx="0.387" ry="0.272"/>
							</g>
						</g>
						<g>
							<path class="st1" d="M14.183,18.545c1.857,0.534,3.718,0.534,5.575,0c0.508-0.145,0.846-0.649,0.752-1.167
								c-0.294-1.651-1.727-2.974-3.539-2.974c-1.822,0-3.245,1.327-3.539,2.974C13.337,17.897,13.675,18.401,14.183,18.545z"/>
						</g>
					</g>
					<g>
						<path class="st2" d="M13.317,13.931c2.333-1.479,5.041-1.176,6.217-0.932c0.148,0.031,0.251-0.174,0.135-0.267
							c-3.371-2.743-5.752-0.194-6.55,0.994C13.041,13.845,13.198,14.007,13.317,13.931z"/>
					</g>
				</g>
			</g>
			<g>
				<path class="st2" d="M16.658,26.235c0.184,1.378-0.703,2.495-1.982,2.495c-1.279,0-2.465-1.117-2.65-2.495
					c-0.184-1.378,0.703-2.494,1.982-2.494C15.287,23.741,16.474,24.857,16.658,26.235z"/>
			</g>
		</g>
	</g>
	<g>
		<g>
			<g>
				<path class="st7" d="M24.228,12.17c0.564-7.617,3.262-8.891,6.512-5.63C30.047-1.18,14.151,0.865,9.627,6.191L24.228,12.17z"/>
			</g>
			<g>
				<path class="st10" d="M9.629,6.195c4.523-5.331,21.369-10.912,21.116,0.346c-1.861-7.635-14.068-4.642-17.63,1.082L9.629,6.195z
					"/>
				<path class="st6" d="M24.225,12.172l-3.487-1.428c1.607-7.192,6.799-9.51,10.008-4.204C28.072,5.076,24.794,4.555,24.225,12.172
					z"/>
			</g>
			<g>
				<g>
					<path class="st11" d="M23.134,14.095c-4.436-2.488-9.168-4.436-14.066-5.791C8.458,8.128,8.08,7.486,8.251,6.861
						c0.172-0.625,0.816-0.991,1.44-0.819c5.079,1.405,9.987,3.426,14.587,6.006c0.564,0.317,0.766,1.031,0.45,1.597
						C24.418,14.198,23.714,14.417,23.134,14.095z"/>
				</g>
			</g>
		</g>
		<g>
			
				<ellipse transform="matrix(0.1189 -0.9929 0.9929 0.1189 20.9681 35.3288)" class="st11" cx="30.389" cy="5.85" rx="1.608" ry="1.609"/>
		</g>
		<g>
			<path class="st12" d="M30.197,7.447c-0.879-0.106-1.507-0.907-1.402-1.789c0.026-0.22,0.092-0.422,0.19-0.599
				c-0.082,0.863,0.542,1.643,1.407,1.747c0.673,0.081,1.292-0.257,1.602-0.813l-0.006,0.048
				C31.882,6.924,31.082,7.554,30.197,7.447z"/>
		</g>
	</g>
</g>
</svg>
