<?xml version="1.0" encoding="utf-8"?>
<!-- Generator: Adobe Illustrator 21.1.0, SVG Export Plug-In . SVG Version: 6.00 Build 0)  -->
<svg version="1.1" id="Layer_1" xmlns="http://www.w3.org/2000/svg" xmlns:xlink="http://www.w3.org/1999/xlink" x="0px" y="0px"
	 viewBox="0 0 32 32" style="enable-background:new 0 0 32 32;" xml:space="preserve">
<style type="text/css">
	.st0{fill:#FFD93B;}
	.st1{fill:#F4C534;}
	.st2{fill:#3E4347;}
	.st3{fill:#FFFFFF;}
	.st4{fill:#5A5F63;}
	.st5{fill:#32373A;}
	.st6{fill:#E24B4B;}
	.st7{fill:#D03F3F;}
	.st8{opacity:0.2;}
	.st9{opacity:0.3;}
	.st10{fill:#AD2727;}
	.st11{fill:#E9EFF4;}
	.st12{fill:#DEE4E9;}
	.st13{fill:#65B1EF;}
	.st14{fill:#4E99D2;}
	.st15{opacity:0.25;}
	.st16{fill:#719D34;}
	.st17{fill:#38C0DC;}
	.st18{fill:#303538;}
	.st19{fill:#777B7E;}
	.st20{opacity:0.2;fill:#FFFFFF;}
	.st21{fill:#DE9C25;}
	.st22{fill:#45CBEA;}
	.st23{fill:#7A5B44;}
	.st24{fill:#8CC63E;}
</style>
<g>
	<g>
		<g>
			<g>
				<g>
					<g>
						<g>
							<g>
								<g>
									<g>
										<g>
											<g>
												<g>
													<g>
														<g>
															<g>
																<g>
																	<g>
																		<g>
																			<g>
																				<g>
																					<g>
																						<g>
																							<g>
																								<g>
																									<circle class="st0" cx="16" cy="16" r="16"/>
																								</g>
																							</g>
																						</g>
																					</g>
																				</g>
																			</g>
																			<g>
																				<g>
																					<g>
																						<g>
																							<g>
																								<g>
																									<path class="st1" d="M32,16c0,8.84-7.165,16-16,16c-5.03,0-9.52-2.32-12.455-5.955
																										c2.745,2.22,6.24,3.545,10.045,3.545c8.835,0,16-7.16,16-16c0-3.805-1.325-7.3-3.545-10.045
																										C29.675,6.48,32,10.97,32,16z"/>
																								</g>
																							</g>
																						</g>
																					</g>
																				</g>
																			</g>
																		</g>
																	</g>
																</g>
															</g>
														</g>
													</g>
												</g>
											</g>
										</g>
									</g>
								</g>
							</g>
						</g>
					</g>
				</g>
			</g>
		</g>
	</g>
	<g>
		<g>
			<g>
				<path class="st1" d="M14.642,14.518c0,2.65-2.146,4.789-4.797,4.789c-2.642,0-4.789-2.138-4.789-4.789s2.146-4.797,4.789-4.797
					C12.496,9.722,14.642,11.868,14.642,14.518z"/>
			</g>
			<g>
				<path class="st3" d="M13.821,14.518c0,2.195-1.781,3.967-3.976,3.967c-2.187,0-3.967-1.772-3.967-3.967s1.78-3.967,3.967-3.967
					C12.041,10.551,13.821,12.323,13.821,14.518z"/>
			</g>
			<g>
				<g>
					<ellipse class="st2" cx="9.848" cy="14.518" rx="2.376" ry="2.374"/>
				</g>
				<g>
					<path class="st4" d="M11.39,14.071c-0.163,0.22-0.593,0.171-0.943-0.106c-0.358-0.276-0.504-0.675-0.341-0.886
						c0.171-0.219,0.593-0.171,0.951,0.106C11.415,13.461,11.561,13.86,11.39,14.071z"/>
				</g>
			</g>
		</g>
		<g>
			<path class="st2" d="M14.643,9.291c-3.564-2.164-7.288-0.728-9.137,0.365c-0.214,0.13-0.536-0.191-0.374-0.377
				c5.243-6.021,8.877-1.674,9.773-0.298C15.017,9.154,14.809,9.392,14.643,9.291z"/>
		</g>
	</g>
	<g>
		<g>
			<g>
				<path class="st1" d="M17.358,14.518c0,2.65,2.146,4.789,4.797,4.789c2.642,0,4.789-2.138,4.789-4.789s-2.146-4.797-4.789-4.797
					C19.504,9.722,17.358,11.868,17.358,14.518z"/>
			</g>
			<g>
				<path class="st3" d="M18.179,14.518c0,2.195,1.78,3.967,3.976,3.967c2.187,0,3.968-1.772,3.968-3.967s-1.781-3.967-3.968-3.967
					C19.959,10.551,18.179,12.323,18.179,14.518z"/>
			</g>
			<g>
				<g>
					<ellipse class="st2" cx="22.152" cy="14.518" rx="2.376" ry="2.374"/>
				</g>
				<g>
					<path class="st4" d="M20.61,14.071c0.163,0.22,0.593,0.171,0.943-0.106c0.358-0.276,0.504-0.675,0.341-0.886
						c-0.171-0.219-0.593-0.171-0.951,0.106C20.585,13.461,20.439,13.86,20.61,14.071z"/>
				</g>
			</g>
		</g>
		<g>
			<path class="st2" d="M17.357,9.291c3.564-2.164,7.288-0.728,9.137,0.365c0.214,0.13,0.536-0.191,0.374-0.377
				c-5.243-6.021-8.877-1.674-9.773-0.298C16.983,9.154,17.191,9.392,17.357,9.291z"/>
		</g>
	</g>
	<g>
		<g>
			<path class="st2" d="M23.27,24.248c-1.42,2.29-3.97,3.82-6.86,3.82c-3.87,0-7.1-2.72-7.9-6.34c-0.04-0.16,0.1-0.3,0.27-0.28
				l14.33,2.44C23.27,23.918,23.36,24.108,23.27,24.248z"/>
		</g>
		<path class="st3" d="M22.881,23.854L8.729,21.445C10.276,24.244,21.946,26.395,22.881,23.854z"/>
	</g>
	<path class="st6" d="M17.857,26.128c-0.565-0.448-1.29-0.617-2.009-0.568c-0.074,0.005-0.151,0.008-0.228,0.008
		c-0.519,0-0.977-0.094-1.376-0.258c-0.707-0.291-1.512-0.243-2.213,0.062c-0.371,0.162-0.72,0.362-1.045,0.597
		c1.435,1.298,3.332,2.094,5.423,2.094c0.963,0,1.879-0.185,2.737-0.496C18.802,27.015,18.364,26.529,17.857,26.128z"/>
</g>
</svg>
