<?xml version="1.0" encoding="utf-8"?>
<!-- Generator: Adobe Illustrator 21.1.0, SVG Export Plug-In . SVG Version: 6.00 Build 0)  -->
<svg version="1.1" id="Layer_1" xmlns="http://www.w3.org/2000/svg" xmlns:xlink="http://www.w3.org/1999/xlink" x="0px" y="0px"
	 viewBox="0 0 32 32" style="enable-background:new 0 0 32 32;" xml:space="preserve">
<style type="text/css">
	.st0{fill:#FFD93B;}
	.st1{fill:#F4C534;}
	.st2{fill:#3E4347;}
	.st3{fill:#FFFFFF;}
	.st4{fill:#5A5F63;}
	.st5{fill:#32373A;}
	.st6{fill:#E24B4B;}
	.st7{fill:#D03F3F;}
	.st8{opacity:0.2;}
	.st9{opacity:0.3;}
	.st10{fill:#AD2727;}
	.st11{fill:#E9EFF4;}
	.st12{fill:#DEE4E9;}
	.st13{fill:#65B1EF;}
	.st14{fill:#4E99D2;}
	.st15{opacity:0.25;}
	.st16{fill:#719D34;}
	.st17{fill:#38C0DC;}
	.st18{fill:#303538;}
	.st19{fill:#777B7E;}
	.st20{opacity:0.2;fill:#FFFFFF;}
	.st21{fill:#DE9C25;}
	.st22{fill:#45CBEA;}
	.st23{fill:#7A5B44;}
	.st24{fill:#8CC63E;}
</style>
<g>
	<g>
		<g>
			<g>
				<g>
					<g>
						<g>
							<g>
								<g>
									<g>
										<g>
											<g>
												<g>
													<g>
														<g>
															<g>
																<g>
																	<g>
																		<g>
																			<g>
																				<g>
																					<g>
																						<g>
																							<g>
																								<g>
																									<g>
																										<g>
																											<circle class="st0" cx="16" cy="16" r="16"/>
																										</g>
																									</g>
																								</g>
																							</g>
																						</g>
																					</g>
																					<g>
																						<g>
																							<g>
																								<g>
																									<g>
																										<g>
																											<path class="st1" d="M32,16c0,8.84-7.165,16-16,16c-5.03,0-9.52-2.32-12.455-5.955
																												c2.745,2.22,6.24,3.545,10.045,3.545c8.835,0,16-7.16,16-16c0-3.805-1.325-7.3-3.545-10.045
																												C29.675,6.48,32,10.97,32,16z"/>
																										</g>
																									</g>
																								</g>
																							</g>
																						</g>
																					</g>
																				</g>
																			</g>
																		</g>
																	</g>
																</g>
															</g>
														</g>
													</g>
												</g>
											</g>
										</g>
									</g>
								</g>
							</g>
						</g>
					</g>
				</g>
			</g>
		</g>
		<g>
			<g>
				<g>
					<g>
						<g>
							<path class="st1" d="M15.176,14.693c0,2.818-2.292,5.11-5.121,5.11c-2.829,0-5.121-2.292-5.121-5.11
								c0-2.829,2.292-5.121,5.121-5.121C12.885,9.573,15.176,11.864,15.176,14.693z"/>
						</g>
						<g>
							<path class="st3" d="M14.201,14.692c0.292,2.307-1.326,4.184-3.616,4.184c-2.29,0-4.382-1.877-4.674-4.184
								C5.618,12.376,7.236,10.5,9.526,10.5C11.816,10.5,13.908,12.376,14.201,14.692z"/>
						</g>
						<g>
							<path class="st2" d="M13.315,14.497c0,1.41-0.962,2.557-2.142,2.557c-1.18,0-2.142-1.147-2.142-2.557
								c0-1.399,0.962-2.546,2.142-2.546C12.354,11.951,13.315,13.099,13.315,14.497z"/>
						</g>
						<path class="st13" d="M10.586,18.876c1.658,0,2.951-0.99,3.435-2.408c-0.165-0.037-0.328-0.092-0.484-0.166l-0.007-0.003
							c-0.625-0.296-1.35-0.296-1.974,0.001L11.554,16.3c-0.625,0.297-1.351,0.297-1.976,0l-0.001,0
							c-0.625-0.297-1.351-0.297-1.976,0c-0.324,0.154-0.676,0.225-1.026,0.219C7.424,17.908,8.948,18.876,10.586,18.876z"/>
						<g>
							<g>
								<path class="st3" d="M10.58,15.074c0,0.185-0.15,0.347-0.347,0.347c-0.197,0-0.347-0.162-0.347-0.347
									c0-0.196,0.15-0.358,0.347-0.358C10.43,14.716,10.58,14.878,10.58,15.074z"/>
								<path class="st3" d="M12.245,13.467c0,0.428-0.347,0.763-0.763,0.763c-0.428,0-0.763-0.335-0.763-0.763
									c0-0.416,0.335-0.751,0.763-0.751C11.898,12.716,12.245,13.051,12.245,13.467z"/>
							</g>
						</g>
					</g>
					<g>
						<path class="st14" d="M12.831,16.093c-0.382,0.59-0.983,0.96-1.653,0.96c-0.567,0-1.075-0.266-1.457-0.694
							c0.266,0.116,0.555,0.174,0.844,0.174c0.335,0,0.671-0.081,0.994-0.231c0.312-0.15,0.647-0.231,0.983-0.231
							C12.634,16.069,12.738,16.081,12.831,16.093z"/>
					</g>
				</g>
				<g>
					<path class="st13" d="M8.127,19.651c-0.815,0.55-1.503,1.348-1.735,2.304C6.33,22.212,6.3,22.479,6.205,22.726
						c-0.095,0.248-0.271,0.482-0.523,0.562c-0.251,0.079-0.534-0.013-0.73-0.189c-0.196-0.176-0.314-0.424-0.385-0.677
						C4.299,21.476,4.65,20.42,5.323,19.7c0.673-0.719,1.626-1.129,2.596-1.3c0.512-0.09,1.033-0.119,1.552-0.114
						c0.185,0.002,1.212-0.066,1.1,0.215c-0.086,0.213-0.984,0.396-1.207,0.491C8.934,19.176,8.515,19.389,8.127,19.651z"/>
				</g>
				<g>
					<path class="st13" d="M4.211,19.981c-0.114,0.228-0.224,0.497-0.413,0.747c-0.212,0.28-0.543,0.526-0.832,0.483
						c-0.294-0.043-0.416-0.369-0.371-0.695c0.039-0.29,0.187-0.566,0.339-0.796c0.437-0.663,0.989-1.068,1.51-1.224
						c0.283-0.085,0.584-0.107,0.88-0.076c0.247,0.026,0.541,0.156,0.256,0.253C5.079,18.844,4.587,19.225,4.211,19.981z"/>
				</g>
				<g>
					<path class="st13" d="M4.483,16.643c-0.523-0.153-1.102-0.102-1.589,0.141c-0.191,0.095-0.375,0.225-0.477,0.413
						c-0.103,0.187-0.105,0.441,0.038,0.6c0.129,0.142,0.344,0.178,0.533,0.145c0.189-0.032,0.364-0.121,0.542-0.193
						c0.306-0.124,0.631-0.199,0.959-0.225c0.331-0.026,0.73,0.13,1.036,0.084c0.337-0.051-0.079-0.392-0.234-0.524
						C5.057,16.883,4.78,16.73,4.483,16.643z"/>
				</g>
				<g>
					<path class="st2" d="M6.482,8.335C6.226,8.308,6.199,7.943,6.45,7.883c2.055-0.47,5.763-1.836,6.964-5.622
						c0.073-0.228,0.411-0.206,0.443,0.032C14.533,7.075,11.953,8.984,6.482,8.335z"/>
				</g>
			</g>
			<g>
				<g>
					<g>
						<g>
							<path class="st1" d="M16.824,14.693c0,2.818,2.292,5.11,5.121,5.11c2.829,0,5.121-2.292,5.121-5.11
								c0-2.829-2.292-5.121-5.121-5.121C19.115,9.573,16.824,11.864,16.824,14.693z"/>
						</g>
						<g>
							<path class="st3" d="M17.799,14.692c-0.292,2.307,1.326,4.184,3.616,4.184c2.29,0,4.383-1.877,4.674-4.184
								c0.293-2.316-1.325-4.193-3.615-4.193C20.184,10.5,18.092,12.376,17.799,14.692z"/>
						</g>
						<g>
							<path class="st2" d="M22.969,14.497c0,1.41-0.962,2.557-2.142,2.557c-1.18,0-2.142-1.147-2.142-2.557
								c0-1.399,0.962-2.546,2.142-2.546C22.007,11.951,22.969,13.099,22.969,14.497z"/>
						</g>
						<path class="st13" d="M21.414,18.876c-1.658,0-2.951-0.99-3.435-2.408c0.165-0.037,0.328-0.092,0.483-0.166l0.007-0.003
							c0.625-0.296,1.35-0.296,1.974,0.001l0.003,0.001c0.625,0.297,1.351,0.297,1.976,0l0.001,0c0.625-0.297,1.351-0.297,1.976,0
							c0.324,0.154,0.676,0.225,1.026,0.219C24.576,17.908,23.052,18.876,21.414,18.876z"/>
						<g>
							<g>
								<path class="st3" d="M20.233,15.074c0,0.185-0.15,0.347-0.347,0.347c-0.197,0-0.347-0.162-0.347-0.347
									c0-0.196,0.15-0.358,0.347-0.358C20.083,14.716,20.233,14.878,20.233,15.074z"/>
								<path class="st3" d="M21.898,13.467c0,0.428-0.347,0.763-0.763,0.763c-0.428,0-0.763-0.335-0.763-0.763
									c0-0.416,0.335-0.751,0.763-0.751C21.551,12.716,21.898,13.051,21.898,13.467z"/>
							</g>
						</g>
					</g>
					<g>
						<path class="st14" d="M19.169,16.093c0.382,0.59,0.983,0.96,1.653,0.96c0.566,0,1.075-0.266,1.457-0.694
							c-0.266,0.116-0.555,0.174-0.844,0.174c-0.335,0-0.671-0.081-0.994-0.231c-0.312-0.15-0.647-0.231-0.983-0.231
							C19.366,16.069,19.262,16.081,19.169,16.093z"/>
					</g>
				</g>
				<g>
					<path class="st13" d="M23.873,19.651c0.815,0.55,1.502,1.348,1.735,2.304c0.063,0.257,0.092,0.524,0.187,0.772
						c0.095,0.248,0.271,0.482,0.523,0.562c0.251,0.079,0.534-0.013,0.73-0.189c0.196-0.176,0.314-0.424,0.385-0.677
						c0.268-0.948-0.083-2.004-0.756-2.723c-0.673-0.719-1.626-1.129-2.596-1.3c-0.512-0.09-1.033-0.119-1.552-0.114
						c-0.185,0.002-1.212-0.066-1.1,0.215c0.086,0.213,0.984,0.396,1.207,0.491C23.066,19.176,23.485,19.389,23.873,19.651z"/>
				</g>
				<g>
					<path class="st13" d="M27.789,19.981c0.114,0.228,0.224,0.497,0.413,0.747c0.212,0.28,0.542,0.526,0.833,0.483
						c0.294-0.043,0.416-0.369,0.371-0.695c-0.04-0.29-0.187-0.566-0.339-0.796c-0.437-0.663-0.989-1.068-1.51-1.224
						c-0.283-0.085-0.584-0.107-0.88-0.076c-0.247,0.026-0.541,0.156-0.256,0.253C26.921,18.844,27.413,19.225,27.789,19.981z"/>
				</g>
				<g>
					<path class="st13" d="M27.517,16.643c0.523-0.153,1.102-0.102,1.589,0.141c0.191,0.095,0.375,0.225,0.477,0.413
						c0.103,0.187,0.105,0.441-0.038,0.6c-0.129,0.142-0.344,0.178-0.533,0.145c-0.189-0.032-0.364-0.121-0.542-0.193
						c-0.306-0.124-0.63-0.199-0.959-0.225c-0.331-0.026-0.73,0.13-1.036,0.084c-0.337-0.051,0.079-0.392,0.234-0.524
						C26.944,16.883,27.22,16.73,27.517,16.643z"/>
				</g>
				<g>
					<path class="st2" d="M25.518,8.335c0.256-0.027,0.283-0.393,0.032-0.452c-2.055-0.47-5.763-1.836-6.964-5.622
						c-0.073-0.228-0.411-0.206-0.443,0.032C17.467,7.075,20.048,8.984,25.518,8.335z"/>
				</g>
			</g>
		</g>
	</g>
	<g>
		<path class="st2" d="M15.995,28.219c-3.213,0-5.54-2.494-5.35-5.076c0.02-0.274,0.425-0.344,0.557-0.097
			c0.87,1.584,2.69,2.673,4.793,2.673c2.113,0,3.934-1.089,4.803-2.673c0.132-0.246,0.537-0.176,0.557,0.097
			C21.545,25.722,19.225,28.219,15.995,28.219z"/>
	</g>
</g>
</svg>
