<?xml version="1.0" encoding="utf-8"?>
<!-- Generator: Adobe Illustrator 21.1.0, SVG Export Plug-In . SVG Version: 6.00 Build 0)  -->
<svg version="1.1" id="Layer_1" xmlns="http://www.w3.org/2000/svg" xmlns:xlink="http://www.w3.org/1999/xlink" x="0px" y="0px"
	 viewBox="0 0 32 32" style="enable-background:new 0 0 32 32;" xml:space="preserve">
<style type="text/css">
	.st0{fill:#FFD93B;}
	.st1{fill:#F4C534;}
	.st2{fill:#3E4347;}
	.st3{fill:#FFFFFF;}
	.st4{fill:#5A5F63;}
	.st5{fill:#32373A;}
	.st6{fill:#E24B4B;}
	.st7{fill:#D03F3F;}
	.st8{opacity:0.2;}
	.st9{opacity:0.3;}
	.st10{fill:#AD2727;}
	.st11{fill:#E9EFF4;}
	.st12{fill:#DEE4E9;}
	.st13{fill:#65B1EF;}
	.st14{fill:#4E99D2;}
	.st15{opacity:0.25;}
	.st16{fill:#719D34;}
	.st17{fill:#38C0DC;}
	.st18{fill:#303538;}
	.st19{fill:#777B7E;}
	.st20{opacity:0.2;fill:#FFFFFF;}
	.st21{fill:#DE9C25;}
	.st22{fill:#45CBEA;}
	.st23{fill:#7A5B44;}
	.st24{fill:#8CC63E;}
</style>
<g>
	<g>
		<g>
			<g>
				<g>
					<g>
						<g>
							<g>
								<g>
									<g>
										<g>
											<g>
												<g>
													<g>
														<g>
															<g>
																<g>
																	<g>
																		<g>
																			<g>
																				<g>
																					<g>
																						<g>
																							<g>
																								<g>
																									<g>
																										<g>
																											<g>
																												<circle class="st0" cx="16" cy="16" r="16"/>
																											</g>
																										</g>
																									</g>
																								</g>
																							</g>
																						</g>
																						<g>
																							<g>
																								<g>
																									<g>
																										<g>
																											<g>
																												<path class="st1" d="M32,16c0,8.84-7.165,16-16,16c-5.03,0-9.52-2.32-12.455-5.955
																													c2.745,2.22,6.24,3.545,10.045,3.545c8.835,0,16-7.16,16-16c0-3.805-1.325-7.3-3.545-10.045
																													C29.675,6.48,32,10.97,32,16z"/>
																											</g>
																										</g>
																									</g>
																								</g>
																							</g>
																						</g>
																					</g>
																				</g>
																			</g>
																		</g>
																	</g>
																</g>
															</g>
														</g>
													</g>
												</g>
											</g>
										</g>
									</g>
								</g>
							</g>
						</g>
					</g>
				</g>
			</g>
		</g>
	</g>
	<g>
		<g>
			<g>
				
					<ellipse transform="matrix(0.1347 -0.9909 0.9909 0.1347 -6.1585 22.867)" class="st1" cx="10.014" cy="14.96" rx="5.347" ry="5.342"/>
			</g>
			<g>
				<path class="st3" d="M14.441,15.562c-0.477,2.488-2.845,4.24-5.291,3.907c-2.446-0.333-4.046-2.624-3.568-5.112
					c0.477-2.488,2.853-4.239,5.299-3.907C13.327,10.783,14.919,13.074,14.441,15.562z"/>
			</g>
			<g>
				<g>
					
						<ellipse transform="matrix(0.1347 -0.9909 0.9909 0.1347 -5.4208 24.3762)" class="st13" cx="11.247" cy="15.292" rx="2.888" ry="2.412"/>
				</g>
				<g>
					
						<ellipse transform="matrix(0.1347 -0.9909 0.9909 0.1347 -5.6552 24.535)" class="st2" cx="11.221" cy="15.506" rx="2.089" ry="1.741"/>
				</g>
				<g>
					
						<ellipse transform="matrix(0.1347 -0.9909 0.9909 0.1347 -3.5315 24.434)" class="st3" cx="12.225" cy="14.239" rx="0.59" ry="0.59"/>
				</g>
			</g>
		</g>
		<g>
			<g>
				
					<ellipse transform="matrix(0.1347 -0.9909 0.9909 0.1347 6.5717 32.5753)" class="st1" cx="21.938" cy="12.525" rx="5.347" ry="5.342"/>
			</g>
			<g>
				<path class="st3" d="M26.365,13.127c-0.477,2.488-2.845,4.24-5.291,3.907c-2.446-0.333-4.045-2.624-3.568-5.112
					c0.477-2.488,2.853-4.239,5.299-3.907C25.251,8.348,26.843,10.639,26.365,13.127z"/>
			</g>
			<g>
				<g>
					
						<ellipse transform="matrix(0.1347 -0.9909 0.9909 0.1347 6.3327 31.1084)" class="st13" cx="20.979" cy="11.928" rx="2.888" ry="2.412"/>
				</g>
				<g>
					
						<ellipse transform="matrix(0.1347 -0.9909 0.9909 0.1347 6.0984 31.2671)" class="st2" cx="20.952" cy="12.142" rx="2.089" ry="1.741"/>
				</g>
				<g>
					
						<ellipse transform="matrix(0.1347 -0.9909 0.9909 0.1347 8.2123 31.5358)" class="st3" cx="22.163" cy="11.066" rx="0.59" ry="0.59"/>
				</g>
			</g>
		</g>
	</g>
	<g>
		<path class="st1" d="M10.321,24.172c0.672,0.534,1.354,0.909,2.086,1.184c1.783,0.611,3.445,0.442,4.72-0.194
			c2.074-0.973,4.406-3.858,7.255-2.504c-2.912,0.022-4.088,2.613-6.612,3.858c-1.988,0.917-4.197,0.686-5.759-0.4
			C11.121,25.507,10.727,24.941,10.321,24.172z"/>
	</g>
</g>
</svg>
