<?xml version="1.0" encoding="utf-8"?>
<!-- Generator: Adobe Illustrator 21.1.0, SVG Export Plug-In . SVG Version: 6.00 Build 0)  -->
<svg version="1.1" id="Layer_1" xmlns="http://www.w3.org/2000/svg" xmlns:xlink="http://www.w3.org/1999/xlink" x="0px" y="0px"
	 viewBox="0 0 32 32" style="enable-background:new 0 0 32 32;" xml:space="preserve">
<style type="text/css">
	.st0{fill:#FFD93B;}
	.st1{fill:#3E4347;}
	.st2{fill:#F4C534;}
	.st3{fill:#38C0DC;}
	.st4{fill:#45CBEA;}
	.st5{fill:#FFFFFF;}
	.st6{fill:#E24B4B;}
	.st7{fill:#5A5F63;}
	.st8{opacity:0.3;}
	.st9{opacity:0.2;}
	.st10{opacity:0.1;}
	.st11{fill:#E9B02C;}
	.st12{fill:#65B1EF;}
	.st13{fill:#E9EFF4;}
	.st14{fill:#8CC63E;}
	.st15{fill:#7FB239;}
	.st16{fill:#D03F3F;}
	.st17{fill:#D23F77;}
	.st18{fill:#E84D88;}
	.st19{fill:#59A5E0;}
	.st20{fill:#DEE4E9;}
	.st21{fill:#D3D9DD;}
	.st22{opacity:0.25;fill:#FFFFFF;}
	.st23{fill:#9A795F;}
	.st24{fill:#F29A2E;}
	.st25{fill:#FC97B2;}
	.st26{fill:#89664C;}
	.st27{fill:#7A5B44;}
	.st28{opacity:0.2;fill:#FFFFFF;}
	.st29{fill:#4E99D2;}
	.st30{fill:#BBC7D1;}
	.st31{fill:#DE9C25;}
</style>
<g>
	<g>
		<g>
			<g>
				<g>
					<g>
						<g>
							<g>
								<g>
									<g>
										<g>
											<g>
												<g>
													<g>
														<g>
															<circle class="st0" cx="16" cy="16" r="16"/>
														</g>
													</g>
												</g>
											</g>
										</g>
									</g>
								</g>
							</g>
							<g>
								<g>
									<g>
										<g>
											<g>
												<g>
													<g>
														<g>
															<path class="st2" d="M32,16c0,8.84-7.165,16-16,16c-5.03,0-9.52-2.32-12.455-5.955
																c2.745,2.22,6.24,3.545,10.045,3.545c8.835,0,16-7.16,16-16c0-3.805-1.325-7.3-3.545-10.045
																C29.675,6.48,32,10.97,32,16z"/>
														</g>
													</g>
												</g>
											</g>
										</g>
									</g>
								</g>
							</g>
						</g>
					</g>
				</g>
			</g>
		</g>
	</g>
	<path class="st1" d="M19.727,28.765c-0.204,0.174-0.483,0.309-0.778,0.369c-2.026,0.45-3.866,0.45-5.9,0
		c-0.284-0.06-0.564-0.195-0.768-0.369c-1.651-1.452-4.497-4.163-3.875-6.988c0.107-0.402,0.56-0.626,1.155-0.579
		c4.645,0.7,8.231,0.708,12.892-0.016c0.578-0.031,1.049,0.189,1.138,0.596C24.212,24.602,21.382,27.313,19.727,28.765z"/>
	<path class="st6" d="M19.728,28.765c0.488-0.428,1.077-0.968,1.65-1.585c-0.484-2.394-2.95-2.47-4.437-1.919
		c-0.94,0.347-1.927,0.435-2.924,0.323c-1.465-0.178-3.11,0.08-3.408,1.575c0.581,0.626,1.179,1.173,1.671,1.606
		c0.204,0.174,0.484,0.309,0.768,0.369c2.035,0.45,3.875,0.45,5.9,0C19.245,29.075,19.524,28.94,19.728,28.765z"/>
	<path class="st5" d="M22.453,21.182c-4.662,0.724-8.245,0.716-12.892,0.016c-0.465-0.034-0.836,0.093-1.032,0.346
		c2.16,2.105,3.965,2.316,7.468,2.325c3.506-0.01,5.32-0.221,7.478-2.328C23.283,21.287,22.901,21.16,22.453,21.182z"/>
	<path class="st5" d="M19.728,28.765c0.165-0.145,0.344-0.306,0.528-0.475c-0.49-0.734-2.247-0.673-4.256-0.677
		c-2.004,0.003-3.76-0.057-4.253,0.672c0.186,0.171,0.367,0.334,0.534,0.48c0.204,0.174,0.484,0.309,0.768,0.369
		c2.035,0.45,3.875,0.45,5.9,0C19.245,29.075,19.524,28.94,19.728,28.765z"/>
	<path class="st5" d="M22.458,11.326c0,3.561-2.897,6.446-6.458,6.446s-6.458-2.885-6.458-6.446c0-3.573,2.897-6.458,6.458-6.458
		S22.458,7.753,22.458,11.326z"/>
	<ellipse class="st1" cx="15.999" cy="11.321" rx="2.89" ry="2.892"/>
	
		<ellipse transform="matrix(0.7071 -0.7071 0.7071 0.7071 -2.3216 15.0423)" class="st5" cx="16.997" cy="10.324" rx="0.573" ry="0.925"/>
</g>
</svg>
