<?xml version="1.0" encoding="utf-8"?>
<!-- Generator: Adobe Illustrator 21.1.0, SVG Export Plug-In . SVG Version: 6.00 Build 0)  -->
<svg version="1.1" id="Layer_1" xmlns="http://www.w3.org/2000/svg" xmlns:xlink="http://www.w3.org/1999/xlink" x="0px" y="0px"
	 viewBox="0 0 32 32" style="enable-background:new 0 0 32 32;" xml:space="preserve">
<style type="text/css">
	.st0{fill:#FFD93B;}
	.st1{fill:#F4C534;}
	.st2{fill:#3E4347;}
	.st3{fill:#FFFFFF;}
	.st4{fill:#5A5F63;}
	.st5{fill:#32373A;}
	.st6{fill:#E24B4B;}
	.st7{fill:#D03F3F;}
	.st8{opacity:0.2;}
	.st9{opacity:0.3;}
	.st10{fill:#AD2727;}
	.st11{fill:#E9EFF4;}
	.st12{fill:#DEE4E9;}
	.st13{fill:#65B1EF;}
	.st14{fill:#4E99D2;}
	.st15{opacity:0.25;}
	.st16{fill:#719D34;}
	.st17{fill:#38C0DC;}
	.st18{fill:#303538;}
	.st19{fill:#777B7E;}
	.st20{opacity:0.2;fill:#FFFFFF;}
	.st21{fill:#DE9C25;}
	.st22{fill:#45CBEA;}
	.st23{fill:#7A5B44;}
	.st24{fill:#8CC63E;}
</style>
<g>
	<g>
		<g>
			<g>
				<g>
					<g>
						<g>
							<g>
								<g>
									<g>
										<g>
											<g>
												<g>
													<g>
														<g>
															<g>
																<g>
																	<g>
																		<g>
																			<g>
																				<g>
																					<g>
																						<g>
																							<g>
																								<g>
																									<g>
																										<circle class="st0" cx="16" cy="16" r="16"/>
																									</g>
																								</g>
																							</g>
																						</g>
																					</g>
																				</g>
																				<g>
																					<g>
																						<g>
																							<g>
																								<g>
																									<g>
																										<path class="st1" d="M32,16c0,8.84-7.165,16-16,16c-5.03,0-9.52-2.32-12.455-5.955
																											c2.745,2.22,6.24,3.545,10.045,3.545c8.835,0,16-7.16,16-16c0-3.805-1.325-7.3-3.545-10.045
																											C29.675,6.48,32,10.97,32,16z"/>
																									</g>
																								</g>
																							</g>
																						</g>
																					</g>
																				</g>
																			</g>
																		</g>
																	</g>
																</g>
															</g>
														</g>
													</g>
												</g>
											</g>
										</g>
									</g>
								</g>
							</g>
						</g>
					</g>
				</g>
			</g>
		</g>
	</g>
	<path class="st1" d="M12.218,10.117c-1.352-0.211-2.689-0.46-3.731-1.42c-0.036-0.033-0.06-0.073-0.093-0.108
		C7.343,8.756,6.376,9.106,5.691,9.646c-1.868,1.662-1.874,5.287,0,6.949c1.985,1.57,6.313,1.57,8.297,0
		c1.76-1.561,1.867-4.852,0.322-6.623C13.708,10.186,13.002,10.24,12.218,10.117z"/>
	<g>
		<path class="st3" d="M12.907,10.175c-0.223-0.006-0.451-0.021-0.689-0.058c-0.849-0.133-1.692-0.281-2.46-0.61
			c-1.408,0.014-2.684,0.365-3.38,0.911c-0.663,0.59-1.058,1.604-1.057,2.711c0.001,1.102,0.396,2.108,1.011,2.655
			c0.756,0.598,2.067,0.955,3.507,0.955c1.44,0,2.751-0.357,3.463-0.917c0.663-0.588,1.059-1.598,1.059-2.701
			c0-1.104-0.396-2.114-1.014-2.664C13.217,10.355,13.066,10.262,12.907,10.175z"/>
	</g>
	<path class="st2" d="M14.454,7.909c0.776,0.742,0.948,2.432-0.881,2.713c-1.136,0.2-2.507-0.188-3.589-0.568
		c-2.53-1.007-4.401-2.275-5.472-3.373c1.428,0.251,4.623,1.49,5.977,2.001c0.669,0.249,2.271,0.832,3.001,0.855
		C14.118,9.561,14.732,9.444,14.454,7.909z"/>
	<g>
		<ellipse class="st2" cx="11.786" cy="13.529" rx="1.947" ry="2.273"/>
	</g>
	<g>
		
			<ellipse transform="matrix(0.7905 -0.6125 0.6125 0.7905 -5.1272 10.2229)" class="st4" cx="12.378" cy="12.605" rx="0.504" ry="0.617"/>
	</g>
	<path class="st1" d="M19.782,10.117c1.353-0.211,2.689-0.46,3.731-1.42c0.036-0.033,0.06-0.073,0.093-0.108
		c1.051,0.168,2.018,0.517,2.703,1.058c1.868,1.662,1.875,5.287,0,6.949c-1.985,1.57-6.313,1.57-8.297,0
		c-1.76-1.561-1.867-4.852-0.322-6.623C18.292,10.186,18.998,10.24,19.782,10.117z"/>
	<g>
		<path class="st3" d="M19.094,10.175c0.223-0.006,0.451-0.021,0.689-0.058c0.849-0.133,1.692-0.281,2.46-0.61
			c1.408,0.014,2.684,0.365,3.38,0.911c0.663,0.59,1.058,1.604,1.057,2.711c-0.001,1.102-0.396,2.108-1.011,2.655
			c-0.756,0.598-2.067,0.955-3.507,0.955c-1.44,0-2.751-0.357-3.463-0.917c-0.663-0.588-1.059-1.598-1.059-2.701
			c0-1.104,0.396-2.114,1.014-2.664C18.783,10.355,18.934,10.262,19.094,10.175z"/>
	</g>
	<path class="st2" d="M17.546,7.909c-0.775,0.742-0.948,2.432,0.881,2.713c1.136,0.2,2.507-0.188,3.589-0.568
		c2.531-1.007,4.402-2.275,5.472-3.373c-1.428,0.251-4.623,1.49-5.977,2.001c-0.669,0.249-2.271,0.832-3.001,0.855
		C17.882,9.561,17.268,9.444,17.546,7.909z"/>
	<g>
		<ellipse class="st2" cx="20.214" cy="13.529" rx="1.947" ry="2.273"/>
	</g>
	<g>
		
			<ellipse transform="matrix(0.6125 -0.7905 0.7905 0.6125 -2.3606 20.3948)" class="st4" cx="19.622" cy="12.605" rx="0.617" ry="0.504"/>
	</g>
	<path class="st2" d="M23.841,22.012c-1.49,2.808-4.417,4.725-7.824,4.725c-3.424,0-6.352-1.935-7.858-4.76
		c-0.222-0.411,0.24-0.873,0.668-0.667c4.948,2.225,9.724,2.157,14.347,0.034C23.601,21.139,24.064,21.584,23.841,22.012z"/>
</g>
</svg>
