<?xml version="1.0" encoding="utf-8"?>
<!-- Generator: Adobe Illustrator 21.1.0, SVG Export Plug-In . SVG Version: 6.00 Build 0)  -->
<svg version="1.1" id="Layer_1" xmlns="http://www.w3.org/2000/svg" xmlns:xlink="http://www.w3.org/1999/xlink" x="0px" y="0px"
	 viewBox="0 0 32 32" style="enable-background:new 0 0 32 32;" xml:space="preserve">
<style type="text/css">
	.st0{fill:#FFD93B;}
	.st1{fill:#F4C534;}
	.st2{fill:#3E4347;}
	.st3{fill:#FFFFFF;}
	.st4{fill:#5A5F63;}
	.st5{fill:#32373A;}
	.st6{fill:#E24B4B;}
	.st7{fill:#D03F3F;}
	.st8{opacity:0.2;}
	.st9{opacity:0.3;}
	.st10{fill:#AD2727;}
	.st11{fill:#E9EFF4;}
	.st12{fill:#DEE4E9;}
	.st13{fill:#65B1EF;}
	.st14{fill:#4E99D2;}
	.st15{opacity:0.25;}
	.st16{fill:#719D34;}
	.st17{fill:#38C0DC;}
	.st18{fill:#303538;}
	.st19{fill:#777B7E;}
	.st20{opacity:0.2;fill:#FFFFFF;}
	.st21{fill:#DE9C25;}
	.st22{fill:#45CBEA;}
	.st23{fill:#7A5B44;}
	.st24{fill:#8CC63E;}
</style>
<g>
	<circle class="st0" cx="16" cy="16" r="16"/>
	<path class="st1" d="M31.924,16c0,8.84-7.165,16-16,16c-5.03,0-9.52-2.32-12.455-5.955c2.745,2.22,6.24,3.545,10.045,3.545
		c8.835,0,16-7.16,16-16c0-3.805-1.325-7.3-3.545-10.045C29.599,6.48,31.924,10.97,31.924,16z"/>
	<path class="st1" d="M14.989,14.941c0,3.171-2.565,5.736-5.736,5.736s-5.736-2.565-5.736-5.736c0-3.162,2.565-5.736,5.736-5.736
		S14.989,11.779,14.989,14.941z"/>
	<path class="st3" d="M13.891,14.941c0,2.565-2.073,4.638-4.638,4.638c-2.565,0-4.638-2.073-4.638-4.638
		c0-2.556,2.073-4.638,4.638-4.638C11.818,10.304,13.891,12.385,13.891,14.941z"/>
	<path class="st2" d="M11.783,14.941c0,1.397-1.124,2.53-2.53,2.53c-1.405,0-2.53-1.133-2.53-2.53c0-1.397,1.124-2.53,2.53-2.53
		C10.659,12.412,11.783,13.545,11.783,14.941z"/>
	
		<ellipse transform="matrix(0.7071 -0.7071 0.7071 0.7071 -6.9523 11.294)" class="st3" cx="10.156" cy="14.039" rx="0.504" ry="0.777"/>
	<path class="st1" d="M28.33,14.941c0,3.171-2.565,5.736-5.736,5.736c-3.171,0-5.736-2.565-5.736-5.736
		c0-3.162,2.565-5.736,5.736-5.736C25.765,9.205,28.33,11.779,28.33,14.941z"/>
	<path class="st3" d="M27.232,14.941c0,2.565-2.073,4.638-4.638,4.638c-2.565,0-4.638-2.073-4.638-4.638
		c0-2.556,2.073-4.638,4.638-4.638C25.159,10.304,27.232,12.385,27.232,14.941z"/>
	<path class="st2" d="M25.124,14.941c0,1.397-1.124,2.53-2.53,2.53c-1.405,0-2.53-1.133-2.53-2.53c0-1.397,1.124-2.53,2.53-2.53
		C23.999,12.412,25.124,13.545,25.124,14.941z"/>
	
		<ellipse transform="matrix(0.7071 -0.7071 0.7071 0.7071 -3.0445 20.7277)" class="st3" cx="23.497" cy="14.039" rx="0.504" ry="0.777"/>
	<path class="st2" d="M12.968,4.438c0,0-3.344,0.094-6.281,2.938C6.687,7.375,7.968,2.25,12.968,4.438z"/>
	<path class="st2" d="M18.879,4.438c0,0,3.344,0.094,6.281,2.938C25.16,7.375,23.879,2.25,18.879,4.438z"/>
	<ellipse class="st2" cx="16.001" cy="24.832" rx="6.038" ry="2.113"/>
</g>
</svg>
