<?xml version="1.0" encoding="utf-8"?>
<!-- Generator: Adobe Illustrator 21.1.0, SVG Export Plug-In . SVG Version: 6.00 Build 0)  -->
<svg version="1.1" id="Layer_1" xmlns="http://www.w3.org/2000/svg" xmlns:xlink="http://www.w3.org/1999/xlink" x="0px" y="0px"
	 viewBox="0 0 32 32" style="enable-background:new 0 0 32 32;" xml:space="preserve">
<style type="text/css">
	.st0{fill:#FFD93B;}
	.st1{fill:#F4C534;}
	.st2{fill:#3E4347;}
	.st3{fill:#FFFFFF;}
	.st4{fill:#5A5F63;}
	.st5{fill:#32373A;}
	.st6{fill:#E24B4B;}
	.st7{fill:#D03F3F;}
	.st8{opacity:0.2;}
	.st9{opacity:0.3;}
	.st10{fill:#AD2727;}
	.st11{fill:#E9EFF4;}
	.st12{fill:#DEE4E9;}
	.st13{fill:#65B1EF;}
	.st14{fill:#4E99D2;}
	.st15{opacity:0.25;}
	.st16{fill:#719D34;}
	.st17{fill:#38C0DC;}
	.st18{fill:#303538;}
	.st19{fill:#777B7E;}
	.st20{opacity:0.2;fill:#FFFFFF;}
	.st21{fill:#DE9C25;}
	.st22{fill:#45CBEA;}
	.st23{fill:#7A5B44;}
	.st24{fill:#8CC63E;}
</style>
<g>
	<circle class="st0" cx="16" cy="16" r="16"/>
	<path class="st1" d="M31.924,16c0,8.84-7.165,16-16,16c-5.03,0-9.52-2.32-12.455-5.955c2.745,2.22,6.24,3.545,10.045,3.545
		c8.835,0,16-7.16,16-16c0-3.805-1.325-7.3-3.545-10.045C29.599,6.48,31.924,10.97,31.924,16z"/>
	<path class="st2" d="M22.695,25.254C22.05,25.659,19.667,22.9,16,22.9c-3.637,0-6.05,2.758-6.695,2.354
		c-0.816-0.298,1.123-4.736,6.695-4.743C21.573,20.516,23.511,24.955,22.695,25.254z"/>
	<path class="st2" d="M26.094,18.524c-0.09,0.53-0.8,0.62-1.06,0.17c-1.529-2.626-4.705-4.029-7.27-3.58
		c-0.55,0.09-0.91-0.55-0.53-0.96C20.756,10.483,26.89,13.573,26.094,18.524z"/>
	<path class="st2" d="M14.764,14.154c0.38,0.41,0.03,1.05-0.52,0.96c-2.608-0.452-5.766,0.979-7.28,3.58
		c-0.26,0.45-0.97,0.36-1.05-0.17C5.118,13.58,11.237,10.479,14.764,14.154z"/>
</g>
</svg>
