<?xml version="1.0" encoding="utf-8"?>
<!-- Generator: Adobe Illustrator 21.1.0, SVG Export Plug-In . SVG Version: 6.00 Build 0)  -->
<svg version="1.1" id="Layer_1" xmlns="http://www.w3.org/2000/svg" xmlns:xlink="http://www.w3.org/1999/xlink" x="0px" y="0px"
	 viewBox="0 0 32 32" style="enable-background:new 0 0 32 32;" xml:space="preserve">
<style type="text/css">
	.st0{fill:#FFD93B;}
	.st1{fill:#F4C534;}
	.st2{fill:#3E4347;}
	.st3{fill:#FFFFFF;}
	.st4{fill:#5A5F63;}
	.st5{fill:#32373A;}
	.st6{fill:#E24B4B;}
	.st7{fill:#D03F3F;}
	.st8{opacity:0.2;}
	.st9{opacity:0.3;}
	.st10{fill:#AD2727;}
	.st11{fill:#E9EFF4;}
	.st12{fill:#DEE4E9;}
	.st13{fill:#65B1EF;}
	.st14{fill:#4E99D2;}
	.st15{opacity:0.25;}
	.st16{fill:#719D34;}
	.st17{fill:#38C0DC;}
	.st18{fill:#303538;}
	.st19{fill:#777B7E;}
	.st20{opacity:0.2;fill:#FFFFFF;}
	.st21{fill:#DE9C25;}
	.st22{fill:#45CBEA;}
	.st23{fill:#7A5B44;}
	.st24{fill:#8CC63E;}
</style>
<g>
	<circle class="st0" cx="16" cy="16" r="16"/>
	<path class="st1" d="M31.924,16c0,8.84-7.165,16-16,16c-5.03,0-9.52-2.32-12.455-5.955c2.745,2.22,6.24,3.545,10.045,3.545
		c8.835,0,16-7.16,16-16c0-3.805-1.325-7.3-3.545-10.045C29.599,6.48,31.924,10.97,31.924,16z"/>
	<path class="st2" d="M17.763,16.844c-0.21,0.441,0.249,0.884,0.685,0.665c2.058-1.059,5.066-0.689,7.008,1.084
		c0.334,0.307,0.903,0.047,0.832-0.416C25.659,13.845,19.744,12.856,17.763,16.844z"/>
	<path class="st2" d="M24.686,11.748c0.077,0.287-4.623-0.163-8.125,3.458C16.561,15.206,18.17,8.374,24.686,11.748z"/>
	<path class="st2" d="M13.831,9.289c0.077,0.287-4.623-0.163-8.125,3.458C5.706,12.747,7.315,5.916,13.831,9.289z"/>
	<g>
		<ellipse class="st2" cx="10.988" cy="14.888" rx="2.844" ry="3.5"/>
	</g>
	<path class="st2" d="M24.188,21.684c-0.482-0.218-3.274,3.315-8.255,3.153c-4.981,0.164-7.773-3.369-8.255-3.153
		c-0.847,0.041,1.587,6.327,8.255,6.315C22.601,28.012,25.035,21.726,24.188,21.684z"/>
</g>
</svg>
