<?xml version="1.0" encoding="utf-8"?>
<!-- Generator: Adobe Illustrator 21.1.0, SVG Export Plug-In . SVG Version: 6.00 Build 0)  -->
<svg version="1.1" id="Layer_1" xmlns="http://www.w3.org/2000/svg" xmlns:xlink="http://www.w3.org/1999/xlink" x="0px" y="0px"
	 viewBox="0 0 32 32" style="enable-background:new 0 0 32 32;" xml:space="preserve">
<style type="text/css">
	.st0{fill:#FFD93B;}
	.st1{fill:#F4C534;}
	.st2{fill:#3E4347;}
	.st3{fill:#FFFFFF;}
	.st4{fill:#5A5F63;}
	.st5{fill:#32373A;}
	.st6{fill:#E24B4B;}
	.st7{fill:#D03F3F;}
	.st8{opacity:0.2;}
	.st9{opacity:0.3;}
	.st10{fill:#AD2727;}
	.st11{fill:#E9EFF4;}
	.st12{fill:#DEE4E9;}
	.st13{fill:#65B1EF;}
	.st14{fill:#4E99D2;}
	.st15{opacity:0.25;}
	.st16{fill:#719D34;}
	.st17{fill:#38C0DC;}
	.st18{fill:#303538;}
	.st19{fill:#777B7E;}
	.st20{opacity:0.2;fill:#FFFFFF;}
	.st21{fill:#DE9C25;}
	.st22{fill:#45CBEA;}
	.st23{fill:#7A5B44;}
	.st24{fill:#8CC63E;}
</style>
<g>
	<circle class="st0" cx="16" cy="16" r="16"/>
	<path class="st1" d="M31.924,16c0,8.84-7.165,16-16,16c-5.03,0-9.52-2.32-12.455-5.955c2.745,2.22,6.24,3.545,10.045,3.545
		c8.835,0,16-7.16,16-16c0-3.805-1.325-7.3-3.545-10.045C29.599,6.48,31.924,10.97,31.924,16z"/>
	<path class="st2" d="M20.905,4.764c-5.46-3.24-9.48-0.27-9.81-0.02C16-2.125,20.905,4.764,20.905,4.764z"/>
	<circle class="st1" cx="16" cy="12.964" r="7.38"/>
	<ellipse class="st21" cx="16" cy="12.964" rx="7.38" ry="5.412"/>
	<path class="st3" d="M23.377,12.964c0,1.54-3.3,2.79-7.38,2.79s-7.38-1.25-7.38-2.79c0-2.99,3.3-5.41,7.38-5.41
		S23.377,9.974,23.377,12.964z"/>
	<path class="st2" d="M18.37,15.604c-0.74,0.1-1.54,0.15-2.37,0.15s-1.63-0.05-2.37-0.15c-2.02-2.055-0.539-5.58,2.37-5.58
		C18.901,10.024,20.397,13.542,18.37,15.604z"/>
	
		<ellipse transform="matrix(0.7071 -0.7071 0.7071 0.7071 -3.4638 15.7397)" class="st3" cx="17.268" cy="12.051" rx="0.55" ry="0.991"/>
	<g>
		<path class="st2" d="M20.329,25.111c0,0.732-0.598,1.33-1.33,1.33h-6.03c-0.742,0-1.33-0.598-1.33-1.33s0.588-1.33,1.33-1.33H19
			C19.732,23.782,20.329,24.38,20.329,25.111z"/>
	</g>
</g>
</svg>
