<?xml version="1.0" encoding="utf-8"?>
<!-- Generator: Adobe Illustrator 21.1.0, SVG Export Plug-In . SVG Version: 6.00 Build 0)  -->
<svg version="1.1" id="Layer_1" xmlns="http://www.w3.org/2000/svg" xmlns:xlink="http://www.w3.org/1999/xlink" x="0px" y="0px"
	 viewBox="0 0 32 32" style="enable-background:new 0 0 32 32;" xml:space="preserve">
<style type="text/css">
	.st0{fill:#FFD93B;}
	.st1{fill:#F4C534;}
	.st2{fill:#3E4347;}
	.st3{fill:#FFFFFF;}
	.st4{fill:#5A5F63;}
	.st5{fill:#32373A;}
	.st6{fill:#E24B4B;}
	.st7{fill:#D03F3F;}
	.st8{opacity:0.2;}
	.st9{opacity:0.3;}
	.st10{fill:#AD2727;}
	.st11{fill:#E9EFF4;}
	.st12{fill:#DEE4E9;}
	.st13{fill:#65B1EF;}
	.st14{fill:#4E99D2;}
	.st15{opacity:0.25;}
	.st16{fill:#719D34;}
	.st17{fill:#38C0DC;}
	.st18{fill:#303538;}
	.st19{fill:#777B7E;}
	.st20{opacity:0.2;fill:#FFFFFF;}
	.st21{fill:#DE9C25;}
	.st22{fill:#45CBEA;}
	.st23{fill:#7A5B44;}
	.st24{fill:#8CC63E;}
</style>
<g>
	<circle class="st0" cx="16" cy="16" r="16"/>
	<path class="st1" d="M32,16c0,8.84-7.165,16-16,16c-5.03,0-9.52-2.32-12.455-5.955c2.745,2.22,6.24,3.545,10.045,3.545
		c8.835,0,16-7.16,16-16c0-3.805-1.325-7.3-3.545-10.045C29.675,6.48,32,10.97,32,16z"/>
	<path class="st2" d="M14.446,16.563c-1.957-1.653-6.371-1.087-7.589,1.005c-0.759-1.946,0.779-4.576,3.165-4.895
		C12.728,12.317,14.566,14.563,14.446,16.563z"/>
	<path class="st2" d="M17.554,16.563c1.957-1.653,6.371-1.087,7.589,1.005c0.759-1.946-0.779-4.576-3.165-4.895
		C19.272,12.317,17.434,14.563,17.554,16.563z"/>
	<path class="st2" d="M26.893,20.331c-1.677,5.171-6.224,9.062-10.888,9.079c-4.673-0.017-9.22-3.913-10.897-9.079
		c-0.203-0.65,0.617-1.254,1.411-1.018c6.604,1.994,12.37,1.985,18.974,0C26.276,19.079,27.096,19.676,26.893,20.331z"/>
	<path class="st3" d="M22.733,22.642c0.138-0.895,0.275-1.803,0.411-2.701c-4.82,1.137-9.28,1.149-14.091,0.043
		c0.152,0.885,0.305,1.769,0.457,2.652c0.049,0.278,0.321,0.473,0.654,0.531c3.976,0.684,7.933,0.68,11.911,0.017
		C22.414,23.128,22.689,22.931,22.733,22.642z"/>
	<path class="st6" d="M15.284,24.609c0.586,0.224,1.261,0.153,1.835-0.097c1.23-0.534,2.809-0.343,3.157,1.33
		c0.003,0.012,0.005,0.025,0.008,0.041c0.322,1.83-1.371,3.461-3.364,3.523c-0.087,0.008-0.175,0.003-0.263,0.004
		c-0.507,0.003-1.003-0.05-1.491-0.133c-0.974-0.177-1.842-0.767-2.29-1.586c-0.261-0.478-0.449-1.01-0.518-1.588
		C12.144,24.387,13.693,24.001,15.284,24.609z"/>
	<path class="st20" d="M19.327,25.928c-0.132,0.16-0.311,0.183-0.501,0.017c-0.079-0.062-0.145-0.138-0.193-0.224
		c-0.095-0.167-0.268-0.287-0.472-0.343c-0.09-0.027-0.17-0.082-0.2-0.187c-0.024-0.089,0.039-0.217,0.222-0.317
		C18.961,24.456,19.788,25.338,19.327,25.928z"/>
	<path class="st2" d="M24.921,9.252c-0.62-1.314-3.351-4.432-5.89-3.013C21.141,3.058,24.498,4.483,24.921,9.252z"/>
	<path class="st2" d="M7.079,9.252c0.62-1.314,3.351-4.432,5.89-3.013C10.859,3.058,7.502,4.483,7.079,9.252z"/>
	<path class="st13" d="M31.011,25.657c-0.314-1.092-3.407-4.41-3.407-4.41s-0.863,4.452-0.549,5.545
		c0.314,1.092,1.453,1.724,2.546,1.41S31.325,26.75,31.011,25.657z"/>
	<path class="st13" d="M0.989,25.657c0.313-1.092,3.407-4.41,3.407-4.41s0.863,4.452,0.549,5.545
		c-0.313,1.092-1.453,1.724-2.546,1.41C1.307,27.889,0.675,26.75,0.989,25.657z"/>
</g>
</svg>
