<?xml version="1.0" encoding="utf-8"?>
<!-- Generator: Adobe Illustrator 21.1.0, SVG Export Plug-In . SVG Version: 6.00 Build 0)  -->
<svg version="1.1" id="Layer_1" xmlns="http://www.w3.org/2000/svg" xmlns:xlink="http://www.w3.org/1999/xlink" x="0px" y="0px"
	 viewBox="0 0 32 32" style="enable-background:new 0 0 32 32;" xml:space="preserve">
<style type="text/css">
	.st0{fill:#FFD93B;}
	.st1{fill:#F4C534;}
	.st2{fill:#3E4347;}
	.st3{fill:#FFFFFF;}
	.st4{fill:#5A5F63;}
	.st5{fill:#32373A;}
	.st6{fill:#E24B4B;}
	.st7{fill:#D03F3F;}
	.st8{opacity:0.2;}
	.st9{opacity:0.3;}
	.st10{fill:#AD2727;}
	.st11{fill:#E9EFF4;}
	.st12{fill:#DEE4E9;}
	.st13{fill:#65B1EF;}
	.st14{fill:#4E99D2;}
	.st15{opacity:0.25;}
	.st16{fill:#719D34;}
	.st17{fill:#38C0DC;}
	.st18{fill:#303538;}
	.st19{fill:#777B7E;}
	.st20{opacity:0.2;fill:#FFFFFF;}
	.st21{fill:#DE9C25;}
	.st22{fill:#45CBEA;}
	.st23{fill:#7A5B44;}
	.st24{fill:#8CC63E;}
</style>
<g>
	<circle class="st0" cx="16" cy="16" r="16"/>
	<path class="st1" d="M31.924,16c0,8.84-7.165,16-16,16c-5.03,0-9.52-2.32-12.455-5.955c2.745,2.22,6.24,3.545,10.045,3.545
		c8.835,0,16-7.16,16-16c0-3.805-1.325-7.3-3.545-10.045C29.599,6.48,31.924,10.97,31.924,16z"/>
	<path class="st2" d="M24.425,20.82c0.857,0.438-1.758,5.525-8.331,5.515c-6.573,0.009-9.188-5.077-8.331-5.515
		c0.699-0.546,3.771,2.116,8.331,1.996C20.654,22.934,23.726,20.276,24.425,20.82z"/>
	<path class="st3" d="M20.205,27.156c0.406-1.76-0.347-3.774-0.787-4.73v-0.009c0.88-0.22,1.659-0.508,2.327-0.778
		C22.329,24.965,20.205,27.156,20.205,27.156z"/>
	<path class="st3" d="M12.767,22.427c-0.431,0.956-1.193,2.978-0.787,4.73c0,0-2.116-2.191-1.54-5.517
		c0.669,0.271,1.447,0.558,2.327,0.778V22.427z"/>
	<path class="st1" d="M25.712,22.946c0.262-0.812,0.541-1.989,0.117-2.73c-0.576-1.342-2.306-1.098-3.603-0.812
		c2.107-1.07,3.536-0.378,3.94,0.654C26.474,20.666,26.524,21.655,25.712,22.946z"/>
	<path class="st1" d="M24.467,23.284c0.393-0.735,0.985-2.131,0.467-2.788c-0.628-0.833-1.676-0.397-2.725-0.103
		c1.003-0.704,2.297-1.101,3.048-0.132C25.871,21.135,25.238,22.557,24.467,23.284z"/>
	<path class="st1" d="M6.288,22.946c-0.262-0.812-0.541-1.989-0.117-2.73c0.576-1.342,2.306-1.098,3.603-0.812
		c-2.107-1.07-3.536-0.378-3.94,0.654C5.526,20.666,5.477,21.655,6.288,22.946z"/>
	<path class="st1" d="M7.533,23.284c-0.393-0.735-0.985-2.131-0.466-2.788c0.628-0.833,1.676-0.397,2.725-0.103
		c-1.003-0.704-2.297-1.101-3.048-0.132C6.129,21.135,6.762,22.557,7.533,23.284z"/>
	<path class="st2" d="M12.067,11.986c-1.184,0-2.167-0.309-2.958-0.816c-0.426,0.66-0.692,1.544-0.692,2.522
		c0,2.037,1.132,3.687,2.529,3.687c1.396,0,2.529-1.651,2.529-3.687c0-0.658-0.128-1.267-0.335-1.802
		C12.8,11.948,12.446,11.986,12.067,11.986z"/>
	<path class="st2" d="M19.933,11.986c1.184,0,2.167-0.309,2.958-0.816c0.426,0.66,0.692,1.544,0.692,2.522
		c0,2.037-1.132,3.687-2.529,3.687s-2.529-1.651-2.529-3.687c0-0.658,0.128-1.267,0.335-1.802
		C19.2,11.948,19.555,11.986,19.933,11.986z"/>
</g>
</svg>
