<?xml version="1.0" encoding="utf-8"?>
<!-- Generator: Adobe Illustrator 21.1.0, SVG Export Plug-In . SVG Version: 6.00 Build 0)  -->
<svg version="1.1" id="Layer_1" xmlns="http://www.w3.org/2000/svg" xmlns:xlink="http://www.w3.org/1999/xlink" x="0px" y="0px"
	 viewBox="0 0 32 32" style="enable-background:new 0 0 32 32;" xml:space="preserve">
<style type="text/css">
	.st0{fill:#FFD93B;}
	.st1{fill:#F4C534;}
	.st2{fill:#3E4347;}
	.st3{fill:#FFFFFF;}
	.st4{fill:#5A5F63;}
	.st5{fill:#32373A;}
	.st6{fill:#E24B4B;}
	.st7{fill:#D03F3F;}
	.st8{opacity:0.2;}
	.st9{opacity:0.3;}
	.st10{fill:#AD2727;}
	.st11{fill:#E9EFF4;}
	.st12{fill:#DEE4E9;}
	.st13{fill:#65B1EF;}
	.st14{fill:#4E99D2;}
	.st15{opacity:0.25;}
	.st16{fill:#719D34;}
	.st17{fill:#38C0DC;}
	.st18{fill:#303538;}
	.st19{fill:#777B7E;}
	.st20{opacity:0.2;fill:#FFFFFF;}
	.st21{fill:#DE9C25;}
	.st22{fill:#45CBEA;}
	.st23{fill:#7A5B44;}
	.st24{fill:#8CC63E;}
</style>
<g>
	<circle class="st0" cx="16" cy="16" r="16"/>
	<path class="st1" d="M31.924,16c0,8.84-7.165,16-16,16c-5.03,0-9.52-2.32-12.455-5.955c2.745,2.22,6.24,3.545,10.045,3.545
		c8.835,0,16-7.16,16-16c0-3.805-1.325-7.3-3.545-10.045C29.599,6.48,31.924,10.97,31.924,16z"/>
	<ellipse class="st1" cx="10.023" cy="14.876" rx="4.91" ry="4.905"/>
	<ellipse class="st3" cx="10.02" cy="14.874" rx="3.845" ry="3.84"/>
	<path class="st2" d="M12.733,14.874c0,1.051-0.848,1.908-1.899,1.908c-1.051,0-1.916-0.857-1.916-1.908s0.865-1.907,1.916-1.907
		C11.885,12.967,12.733,13.823,12.733,14.874z"/>
	<path class="st4" d="M11.931,14.474c-0.137,0.137-0.412,0.098-0.608-0.098c-0.196-0.196-0.235-0.471-0.098-0.608
		c0.137-0.137,0.412-0.088,0.598,0.108C12.019,14.063,12.068,14.337,11.931,14.474z"/>
	<path class="st22" d="M11.043,17.424c-0.8,0-0.8-0.26-1.6-0.26s-0.8,0.26-1.59,0.26c-0.4,0-0.59-0.06-0.79-0.12v11.969
		c1.778,1.199,3.812,2.039,6,2.446V17.194c-0.11-0.02-0.25-0.03-0.42-0.03C11.842,17.164,11.842,17.424,11.043,17.424z"/>
	<path class="st17" d="M7.063,28.229v1.076c1.781,1.189,3.813,2.018,6,2.414v-2.149C10.932,29.511,8.906,29.042,7.063,28.229z"/>
	<path class="st17" d="M10.508,17.369l0.535,12.987V17.411C10.808,17.411,10.645,17.393,10.508,17.369z"/>
	<path class="st17" d="M12.304,23.062c0.146,2.688,0.146,5.375,0,8.063C12.14,28.396,12.135,25.707,12.304,23.062z"/>
	<path class="st17" d="M9.878,17.855c0.105,3.525,0.105,7.049,0,10.574C9.76,24.851,9.756,21.324,9.878,17.855z"/>
	<path class="st17" d="M8.097,18.291c-0.146,3.774-0.146,7.548,0,11.321C8.261,25.781,8.266,22.005,8.097,18.291z"/>
	<ellipse class="st1" cx="21.977" cy="14.876" rx="4.91" ry="4.905"/>
	<ellipse class="st3" cx="21.975" cy="14.874" rx="3.845" ry="3.84"/>
	<path class="st2" d="M24.688,14.874c0,1.051-0.848,1.908-1.899,1.908c-1.051,0-1.916-0.857-1.916-1.908s0.865-1.907,1.916-1.907
		C23.84,12.967,24.688,13.823,24.688,14.874z"/>
	<path class="st4" d="M23.886,14.474c-0.137,0.137-0.412,0.098-0.608-0.098c-0.196-0.196-0.235-0.471-0.098-0.608
		c0.137-0.137,0.412-0.088,0.598,0.108C23.974,14.063,24.023,14.337,23.886,14.474z"/>
	<path class="st22" d="M22.997,17.424c-0.8,0-0.8-0.26-1.6-0.26s-0.8,0.26-1.59,0.26c-0.4,0-0.59-0.06-0.79-0.12v14.402
		c2.191-0.418,4.224-1.278,6-2.492v-12.02c-0.11-0.02-0.25-0.03-0.42-0.03C23.797,17.164,23.797,17.424,22.997,17.424z"/>
	<path class="st17" d="M19.017,28.598v3.097c2.195-0.43,4.226-1.31,6-2.538v-4.462C23.355,26.417,21.309,27.757,19.017,28.598z"/>
	<path class="st17" d="M22.463,17.369l0.535,12.391V17.409C22.763,17.409,22.6,17.392,22.463,17.369z"/>
	<path class="st17" d="M24.259,21.475c0.146,1.938,0.146,3.877,0,5.815C24.095,25.322,24.089,23.383,24.259,21.475z"/>
	<path class="st17" d="M21.833,17.833c0.105,3.363,0.105,6.726,0,10.089C21.715,24.507,21.711,21.142,21.833,17.833z"/>
	<path class="st17" d="M20.052,18.291c-0.146,3.774-0.146,7.548,0,11.321C20.216,25.781,20.221,22.005,20.052,18.291z"/>
	<path class="st2" d="M4.828,10.6c0,0,2.098-3.583,6.672-3.991C7.644,5.848,5.245,6.941,4.828,10.6z"/>
	<path class="st2" d="M27.172,10.6c0,0-2.098-3.583-6.671-3.991C24.356,5.848,26.755,6.941,27.172,10.6z"/>
</g>
</svg>
