<?xml version="1.0" encoding="utf-8"?>
<!-- Generator: Adobe Illustrator 21.1.0, SVG Export Plug-In . SVG Version: 6.00 Build 0)  -->
<svg version="1.1" id="Layer_1" xmlns="http://www.w3.org/2000/svg" xmlns:xlink="http://www.w3.org/1999/xlink" x="0px" y="0px"
	 viewBox="0 0 32 32" style="enable-background:new 0 0 32 32;" xml:space="preserve">
<style type="text/css">
	.st0{fill:#FFD93B;}
	.st1{fill:#F4C534;}
	.st2{fill:#3E4347;}
	.st3{fill:#FFFFFF;}
	.st4{fill:#5A5F63;}
	.st5{fill:#32373A;}
	.st6{fill:#E24B4B;}
	.st7{fill:#D03F3F;}
	.st8{opacity:0.2;}
	.st9{opacity:0.3;}
	.st10{fill:#AD2727;}
	.st11{fill:#E9EFF4;}
	.st12{fill:#DEE4E9;}
	.st13{fill:#65B1EF;}
	.st14{fill:#4E99D2;}
	.st15{opacity:0.25;}
	.st16{fill:#719D34;}
	.st17{fill:#38C0DC;}
	.st18{fill:#303538;}
	.st19{fill:#777B7E;}
	.st20{opacity:0.2;fill:#FFFFFF;}
	.st21{fill:#DE9C25;}
	.st22{fill:#45CBEA;}
	.st23{fill:#7A5B44;}
	.st24{fill:#8CC63E;}
</style>
<g>
	<circle class="st0" cx="16" cy="16" r="16"/>
	<path class="st1" d="M31.924,16c0,8.84-7.165,16-16,16c-5.03,0-9.52-2.32-12.455-5.955c2.745,2.22,6.24,3.545,10.045,3.545
		c8.835,0,16-7.16,16-16c0-3.805-1.325-7.3-3.545-10.045C29.599,6.48,31.924,10.97,31.924,16z"/>
	<path class="st2" d="M23.227,22.69c0.162,3.305-2.149,4.685-7.232,4.685c-5.073,0-7.383-1.376-7.222-4.685
		c-0.163-3.323,2.105-4.684,7.222-4.684C21.078,18.006,23.39,19.369,23.227,22.69z"/>
	<path class="st3" d="M14.915,22.879c0.723,0.031,1.447,0.032,2.169,0c-0.095-1.34-0.137-2.676-0.165-4.011
		c-0.303-0.015-0.611-0.028-0.925-0.027c-0.31,0-0.615,0.009-0.915,0.027C15.053,20.203,15.011,21.539,14.915,22.879z"/>
	<path class="st3" d="M20.691,19.724c0.002,0.866,0.062,1.746,0.21,2.641c0.471-0.11,0.941-0.252,1.415-0.409
		C22.133,21.013,21.613,20.235,20.691,19.724z"/>
	<path class="st3" d="M20.264,23.414c-0.75,0.124-1.509,0.206-2.273,0.255c0.09,0.895,0.225,1.794,0.416,2.694
		c1.036-0.159,1.892-0.44,2.522-0.852C20.648,24.802,20.431,24.103,20.264,23.414z"/>
	<path class="st3" d="M17.918,22.824c0.722-0.055,1.443-0.149,2.16-0.283c-0.201-1.09-0.288-2.159-0.314-3.213
		c-0.554-0.182-1.196-0.306-1.902-0.384C17.819,20.234,17.826,21.526,17.918,22.824z"/>
	<path class="st3" d="M21.078,23.259c0.129,0.559,0.294,1.123,0.503,1.695c0.49-0.548,0.748-1.256,0.796-2.027
		C21.945,23.057,21.513,23.168,21.078,23.259z"/>
	<path class="st3" d="M11.309,19.722c-0.922,0.508-1.443,1.287-1.624,2.233c0.473,0.159,0.943,0.297,1.414,0.409
		C11.248,21.469,11.308,20.59,11.309,19.722z"/>
	<path class="st3" d="M9.624,22.927c0.048,0.772,0.305,1.477,0.795,2.028c0.209-0.571,0.375-1.137,0.503-1.696
		C10.488,23.164,10.055,23.055,9.624,22.927z"/>
	<path class="st3" d="M17.152,23.716c-0.383,0.015-0.767,0.022-1.152,0.022c-0.384,0.001-0.767-0.009-1.151-0.022
		c-0.082,0.919-0.192,1.838-0.344,2.76c0.477,0.038,0.978,0.062,1.49,0.063c0.516,0,1.019-0.022,1.5-0.064
		C17.344,25.553,17.233,24.634,17.152,23.716z"/>
	<path class="st3" d="M12.236,19.326c-0.026,1.055-0.113,2.125-0.314,3.215c0.718,0.136,1.438,0.224,2.16,0.283
		c0.092-1.297,0.099-2.59,0.055-3.88C13.431,19.02,12.79,19.149,12.236,19.326z"/>
	<path class="st3" d="M14.009,23.669c-0.765-0.054-1.523-0.129-2.273-0.255c-0.167,0.691-0.384,1.39-0.665,2.098
		c0.63,0.416,1.486,0.693,2.523,0.853C13.784,25.464,13.919,24.565,14.009,23.669z"/>
	<path class="st2" d="M14.356,15.024c0,0.07,0,0.15-0.01,0.22c-0.65-0.65-2.06-1.1-3.7-1.1c-1.64,0-3.05,0.45-3.7,1.1
		c-0.01-0.07-0.01-0.15-0.01-0.22c0-2.7,1.66-4.88,3.71-4.88C12.696,10.144,14.356,12.324,14.356,15.024z"/>
	<path class="st2" d="M25.064,15.024c0,0.07,0,0.15-0.01,0.22c-0.65-0.65-2.06-1.1-3.7-1.1c-1.64,0-3.05,0.45-3.7,1.1
		c-0.01-0.07-0.01-0.15-0.01-0.22c0-2.7,1.66-4.88,3.71-4.88C23.404,10.144,25.064,12.324,25.064,15.024z"/>
</g>
</svg>
