<?xml version="1.0" encoding="utf-8"?>
<!-- Generator: Adobe Illustrator 21.1.0, SVG Export Plug-In . SVG Version: 6.00 Build 0)  -->
<svg version="1.1" id="Layer_1" xmlns="http://www.w3.org/2000/svg" xmlns:xlink="http://www.w3.org/1999/xlink" x="0px" y="0px"
	 viewBox="0 0 32 32" style="enable-background:new 0 0 32 32;" xml:space="preserve">
<style type="text/css">
	.st0{fill:#FFD93B;}
	.st1{fill:#3E4347;}
	.st2{fill:#F4C534;}
	.st3{fill:#38C0DC;}
	.st4{fill:#45CBEA;}
	.st5{fill:#FFFFFF;}
	.st6{fill:#E24B4B;}
	.st7{fill:#5A5F63;}
	.st8{opacity:0.3;}
	.st9{opacity:0.2;}
	.st10{opacity:0.1;}
	.st11{fill:#E9B02C;}
	.st12{fill:#65B1EF;}
	.st13{fill:#E9EFF4;}
	.st14{fill:#8CC63E;}
	.st15{fill:#7FB239;}
	.st16{fill:#D03F3F;}
	.st17{fill:#D23F77;}
	.st18{fill:#E84D88;}
	.st19{fill:#59A5E0;}
	.st20{fill:#DEE4E9;}
	.st21{fill:#D3D9DD;}
	.st22{opacity:0.25;fill:#FFFFFF;}
	.st23{fill:#9A795F;}
	.st24{fill:#F29A2E;}
	.st25{fill:#FC97B2;}
	.st26{fill:#89664C;}
	.st27{fill:#7A5B44;}
	.st28{opacity:0.2;fill:#FFFFFF;}
	.st29{fill:#4E99D2;}
	.st30{fill:#BBC7D1;}
	.st31{fill:#DE9C25;}
</style>
<g>
	<g>
		<g>
			<g>
				<g>
					<g>
						<g>
							<g>
								<g>
									<g>
										<g>
											<g>
												<g>
													<g>
														<g>
															<g>
																<g>
																	<g>
																		<g>
																			<g>
																				<circle class="st0" cx="16" cy="16" r="16"/>
																			</g>
																		</g>
																	</g>
																</g>
															</g>
														</g>
													</g>
												</g>
												<g>
													<g>
														<g>
															<g>
																<g>
																	<g>
																		<g>
																			<g>
																				<path class="st2" d="M32,16c0,8.84-7.165,16-16,16c-5.03,0-9.52-2.32-12.455-5.955
																					c2.745,2.22,6.24,3.545,10.045,3.545c8.835,0,16-7.16,16-16c0-3.805-1.325-7.3-3.545-10.045
																					C29.675,6.48,32,10.97,32,16z"/>
																			</g>
																		</g>
																	</g>
																</g>
															</g>
														</g>
													</g>
												</g>
											</g>
										</g>
									</g>
								</g>
							</g>
						</g>
					</g>
				</g>
			</g>
		</g>
	</g>
	<path class="st1" d="M23.794,24.839c-0.149,0.507-0.691,0.897-1.361,0.93c-4.285,0.233-8.581,0.233-12.866,0
		c-0.67-0.033-1.212-0.424-1.361-0.93c-0.383-1.345-0.383-2.691,0-4.036c0.149-0.507,0.691-0.897,1.361-0.93
		c4.285-0.233,8.581-0.233,12.866,0c0.67,0.033,1.212,0.424,1.361,0.93C24.177,22.149,24.177,23.494,23.794,24.839z"/>
	<path class="st5" d="M16,22.01c3.244,0,6.046-0.02,7.404-1.76c-0.251-0.211-0.584-0.358-0.971-0.377
		c-4.285-0.233-8.581-0.233-12.866,0c-0.387,0.019-0.72,0.166-0.971,0.378C9.955,21.99,12.757,22.01,16,22.01z"/>
	<path class="st5" d="M22.433,25.77c0.375-0.019,0.701-0.156,0.949-0.357c-1.367-1.714-4.156-1.73-7.382-1.73
		c-3.226,0-6.015,0.017-7.382,1.73c0.248,0.2,0.574,0.338,0.949,0.357C13.852,26.002,18.148,26.002,22.433,25.77z"/>
	<path class="st1" d="M25.725,16.547c-0.638-1.385-2.029-2.281-3.545-2.281c-0.935,0-1.839,0.337-2.546,0.95
		c-0.366,0.316-0.917,0.278-1.234-0.088c-0.316-0.365-0.277-0.918,0.088-1.234c1.025-0.889,2.337-1.378,3.692-1.378
		c2.197,0,4.213,1.295,5.135,3.299c0.202,0.439,0.01,0.958-0.429,1.161C26.446,17.178,25.926,16.984,25.725,16.547z"/>
	<path class="st1" d="M5.114,16.976c-0.438-0.202-0.631-0.722-0.429-1.161c0.922-2.004,2.938-3.299,5.135-3.299
		c1.355,0,2.667,0.489,3.692,1.378c0.365,0.316,0.404,0.869,0.088,1.234c-0.316,0.366-0.869,0.404-1.234,0.088
		c-0.707-0.613-1.611-0.95-2.546-0.95c-1.516,0-2.907,0.896-3.545,2.281C6.074,16.984,5.554,17.178,5.114,16.976z"/>
	<g>
		<path class="st1" d="M14.184,10.018c0.064,0.407-0.216,0.791-0.632,0.853c-1.824,0.301-4.592-0.407-6.465-2.478
			c-0.275-0.305-0.26-0.785,0.055-1.058C7.446,7.06,7.917,7.073,8.199,7.39c2.179,2.401,5.11,2,5.131,1.995
			C13.748,9.323,14.132,9.603,14.184,10.018z"/>
	</g>
	<g>
		<path class="st1" d="M24.784,10.446c-2.538,0.621-5.08-0.132-6.751-1.578c-0.301-0.282-0.317-0.757-0.045-1.061
			c0.285-0.31,0.76-0.327,1.061-0.045c1.516,1.217,3.439,1.7,5.377,1.23c0.411-0.104,0.808,0.149,0.906,0.548
			C25.43,9.938,25.182,10.348,24.784,10.446z"/>
	</g>
</g>
</svg>
