<?xml version="1.0" encoding="utf-8"?>
<!-- Generator: Adobe Illustrator 21.1.0, SVG Export Plug-In . SVG Version: 6.00 Build 0)  -->
<svg version="1.1" id="Layer_1" xmlns="http://www.w3.org/2000/svg" xmlns:xlink="http://www.w3.org/1999/xlink" x="0px" y="0px"
	 viewBox="0 0 32 32" style="enable-background:new 0 0 32 32;" xml:space="preserve">
<style type="text/css">
	.st0{fill:#FFD93B;}
	.st1{fill:#F4C534;}
	.st2{fill:#3E4347;}
	.st3{fill:#FFFFFF;}
	.st4{fill:#5A5F63;}
	.st5{fill:#32373A;}
	.st6{fill:#E24B4B;}
	.st7{fill:#D03F3F;}
	.st8{opacity:0.2;}
	.st9{opacity:0.3;}
	.st10{fill:#AD2727;}
	.st11{fill:#E9EFF4;}
	.st12{fill:#DEE4E9;}
	.st13{fill:#65B1EF;}
	.st14{fill:#4E99D2;}
	.st15{opacity:0.25;}
	.st16{fill:#719D34;}
	.st17{fill:#38C0DC;}
	.st18{fill:#303538;}
	.st19{fill:#777B7E;}
	.st20{opacity:0.2;fill:#FFFFFF;}
	.st21{fill:#DE9C25;}
	.st22{fill:#45CBEA;}
	.st23{fill:#7A5B44;}
	.st24{fill:#8CC63E;}
</style>
<g>
	<circle class="st0" cx="16" cy="16" r="16"/>
	<path class="st1" d="M32,16c0,8.84-7.165,16-16,16c-5.03,0-9.52-2.32-12.455-5.955c2.745,2.22,6.24,3.545,10.045,3.545
		c8.835,0,16-7.16,16-16c0-3.805-1.325-7.3-3.545-10.045C29.675,6.48,32,10.97,32,16z"/>
	<path class="st6" d="M21.282,23.527c-0.048,0.125-0.636,1.888-0.983,2.449c-0.781,1.263-2.451,2.436-4.302,2.436
		c-1.851,0-3.498-1.099-4.296-2.436c-0.338-0.567-0.935-2.324-0.983-2.449c0.763,0.37,5.279,0.625,5.279,0.625
		S20.525,23.897,21.282,23.527z"/>
	<path class="st7" d="M19.679,24.629c-0.704,0.559-1.646,0.748-3.679,0.748c-2.025,0-3.092-0.281-3.679-0.748
		c-0.674-0.535,1.65-1.365,3.675-1.365C18.029,23.265,20.353,24.094,19.679,24.629z"/>
	<path class="st6" d="M21.288,23.521c-0.524,1.037-2.646,1.466-3.754,1.466c-0.351,0-0.685-0.083-0.971-0.226
		c-0.358-0.179-0.763-0.179-1.12,0c-0.286,0.143-0.62,0.226-0.977,0.226c-1.108,0-3.235-0.429-3.754-1.466
		c1.692-0.012,2.646-2.109,3.754-2.109c0.62,0,1.168,0.251,1.537,0.644c0.369-0.393,0.918-0.644,1.531-0.644
		C18.643,21.412,19.59,23.509,21.288,23.521z"/>
	<path class="st1" d="M15.015,15.687c0,2.84-2.3,5.15-5.14,5.15c-2.84,0-5.14-2.31-5.14-5.15c0-2.83,2.3-5.14,5.14-5.14
		C12.715,10.547,15.015,12.857,15.015,15.687z"/>
	<path class="st3" d="M13.955,15.687c0,2.258-1.831,4.08-4.08,4.08c-2.249,0-4.08-1.822-4.08-4.08c0-2.249,1.831-4.071,4.08-4.071
		C12.124,11.617,13.955,13.439,13.955,15.687z"/>
	<path class="st1" d="M9.875,14.227c2.328,0,4.221,0.66,4.221,1.46v-2.763c-0.917-1.306-2.464-2.168-4.221-2.168
		c-1.756,0-3.303,0.862-4.22,2.168v2.763C5.654,14.887,7.547,14.227,9.875,14.227z"/>
	<path class="st2" d="M11.805,16.817c0,1.07-0.86,1.94-1.93,1.94c-1.07,0-1.93-0.87-1.93-1.94c0-1.06,0.86-1.93,1.93-1.93
		C10.945,14.888,11.805,15.757,11.805,16.817z"/>
	
		<ellipse transform="matrix(0.7071 -0.7071 0.7071 0.7071 -8.2514 12.2211)" class="st3" cx="10.626" cy="16.071" rx="0.365" ry="0.57"/>
	<path class="st2" d="M14.545,15.797c-1.413-1.667-8.173-1.517-9.34,0c0,0,0.153-0.507,0.86-0.97c0-0.01-0.01-0.01-0.01-0.02
		c-0.368-0.636-0.231-1.411,0.05-1.69c0,0.629-0.069,0.943,0.57,1.37c0.35-0.17,0.76-0.3,1.2-0.4
		c-0.307-0.618-0.454-2.084-0.13-3.17c-0.087,1.119,0.266,2.251,0.83,3.04c0.29-0.05,0.6-0.08,0.91-0.09
		c0.596-1.193,0.927-2.621,0.95-3.89c0.228,1.369,0.031,3.233-0.23,3.89c0.52,0.02,1.02,0.08,1.5,0.18
		c0.657-0.764,1.054-2.242,0.71-3.47c0.558,1.069,0.463,2.824-0.03,3.65c0.17,0.05,0.33,0.11,0.48,0.18
		c0.686-0.515,1.24-1.518,1.24-2.55c0.228,0.916-0.028,2.111-0.59,2.86C14.396,15.252,14.545,15.797,14.545,15.797z"/>
	<path class="st2" d="M14.335,10.27c-2.926-3.586-5.827-3.586-8.68,0C8.385,8.853,11.285,8.853,14.335,10.27z"/>
	<path class="st1" d="M27.265,15.687c0,2.84-2.3,5.15-5.14,5.15c-2.84,0-5.14-2.31-5.14-5.15c0-2.83,2.3-5.14,5.14-5.14
		C24.965,10.547,27.265,12.857,27.265,15.687z"/>
	<path class="st3" d="M26.205,15.687c0,2.258-1.831,4.08-4.08,4.08c-2.249,0-4.08-1.822-4.08-4.08c0-2.249,1.831-4.071,4.08-4.071
		C24.374,11.617,26.205,13.439,26.205,15.687z"/>
	<path class="st1" d="M22.125,14.227c2.328,0,4.221,0.66,4.221,1.46v-2.763c-0.917-1.306-2.465-2.168-4.221-2.168
		c-1.756,0-3.303,0.862-4.22,2.168v2.763C17.904,14.887,19.797,14.227,22.125,14.227z"/>
	<path class="st2" d="M24.055,16.817c0,1.07-0.86,1.94-1.93,1.94c-1.07,0-1.93-0.87-1.93-1.94c0-1.06,0.86-1.93,1.93-1.93
		C23.195,14.888,24.055,15.757,24.055,16.817z"/>
	
		<ellipse transform="matrix(0.7071 -0.7071 0.7071 0.7071 -4.6635 20.8831)" class="st3" cx="22.876" cy="16.071" rx="0.365" ry="0.57"/>
	<path class="st2" d="M26.795,15.797c-1.413-1.667-8.173-1.517-9.34,0c0,0,0.153-0.507,0.86-0.97c0-0.01-0.01-0.01-0.01-0.02
		c-0.368-0.636-0.231-1.411,0.05-1.69c0,0.629-0.069,0.943,0.57,1.37c0.35-0.17,0.76-0.3,1.2-0.4
		c-0.307-0.618-0.454-2.084-0.13-3.17c-0.087,1.119,0.266,2.251,0.83,3.04c0.29-0.05,0.6-0.08,0.91-0.09
		c0.596-1.193,0.927-2.621,0.95-3.89c0.228,1.369,0.032,3.233-0.23,3.89c0.52,0.02,1.02,0.08,1.5,0.18
		c0.657-0.764,1.054-2.242,0.71-3.47c0.558,1.069,0.463,2.824-0.03,3.65c0.17,0.05,0.33,0.11,0.48,0.18
		c0.686-0.515,1.24-1.518,1.24-2.55c0.228,0.916-0.028,2.111-0.59,2.86C26.646,15.252,26.795,15.797,26.795,15.797z"/>
	<path class="st2" d="M26.585,10.27c-2.926-3.586-5.826-3.586-8.68,0C20.635,8.853,23.535,8.853,26.585,10.27z"/>
</g>
</svg>
