<?xml version="1.0" encoding="utf-8"?>
<!-- Generator: Adobe Illustrator 21.1.0, SVG Export Plug-In . SVG Version: 6.00 Build 0)  -->
<svg version="1.1" id="Layer_1" xmlns="http://www.w3.org/2000/svg" xmlns:xlink="http://www.w3.org/1999/xlink" x="0px" y="0px"
	 viewBox="0 0 32 32" style="enable-background:new 0 0 32 32;" xml:space="preserve">
<style type="text/css">
	.st0{fill:#FFD93B;}
	.st1{fill:#F4C534;}
	.st2{fill:#3E4347;}
	.st3{fill:#FFFFFF;}
	.st4{fill:#5A5F63;}
	.st5{fill:#32373A;}
	.st6{fill:#E24B4B;}
	.st7{fill:#D03F3F;}
	.st8{opacity:0.2;}
	.st9{opacity:0.3;}
	.st10{fill:#AD2727;}
	.st11{fill:#E9EFF4;}
	.st12{fill:#DEE4E9;}
	.st13{fill:#65B1EF;}
	.st14{fill:#4E99D2;}
	.st15{opacity:0.25;}
	.st16{fill:#719D34;}
	.st17{fill:#38C0DC;}
	.st18{fill:#303538;}
	.st19{fill:#777B7E;}
	.st20{opacity:0.2;fill:#FFFFFF;}
	.st21{fill:#DE9C25;}
	.st22{fill:#45CBEA;}
	.st23{fill:#7A5B44;}
	.st24{fill:#8CC63E;}
</style>
<g>
	<circle class="st0" cx="16" cy="16" r="16"/>
	<path class="st1" d="M32,16c0,8.84-7.165,16-16,16c-5.03,0-9.52-2.32-12.455-5.955c2.745,2.22,6.24,3.545,10.045,3.545
		c8.835,0,16-7.16,16-16c0-3.805-1.325-7.3-3.545-10.045C29.675,6.48,32,10.97,32,16z"/>
	<path class="st2" d="M14.694,14c-0.865,1.689-2.945,2.88-5.357,2.88c-2.418,0-4.486-1.185-5.357-2.868
		c-0.124-0.243,0.172-0.498,0.397-0.338c1.28,0.931,3.028,1.499,4.96,1.499c1.932,0,3.686-0.575,4.966-1.511
		C14.522,13.502,14.824,13.757,14.694,14z"/>
	<path class="st2" d="M28.017,14c-0.865,1.689-2.945,2.88-5.357,2.88c-2.418,0-4.486-1.185-5.357-2.868
		c-0.124-0.243,0.172-0.498,0.397-0.338c1.28,0.931,3.028,1.499,4.96,1.499c1.932,0,3.686-0.575,4.966-1.511
		C27.846,13.502,28.148,13.757,28.017,14z"/>
	<path class="st2" d="M29.062,9.846c-5.201-3.443-10.129-2.348-12.677-0.819c-0.259,0.156-0.547,0.13-0.795-0.024
		c-2.526-1.57-7.476-2.588-12.653,0.843C2.516,10.135,2.36,9.594,2.733,9.28C6.369,6.187,12.28,3.316,16,8.553
		c3.72-5.237,9.631-2.367,13.267,0.727C29.64,9.594,29.483,10.135,29.062,9.846z"/>
	<path class="st2" d="M19.92,23.471c0,2.17-1.75,3.93-3.92,3.93s-3.92-1.76-3.92-3.93c0-2.16,1.75-3.92,3.92-3.92
		S19.92,21.311,19.92,23.471z"/>
	<polygon class="st6" points="23.79,27.611 26.24,27.611 26.24,28.661 22.07,28.661 22.07,27.661 22.12,27.611 24.32,25.211 
		22.35,25.211 22.35,24.151 26.14,24.151 26.14,25.051 	"/>
	<polygon class="st6" points="31.87,23.031 31.87,24.301 26.51,24.301 26.51,23.061 26.56,23.011 29.53,19.751 26.88,19.751 
		26.88,18.481 31.74,18.481 31.74,19.581 28.59,23.031 	"/>
</g>
</svg>
