<?xml version="1.0" encoding="utf-8"?>
<!-- Generator: Adobe Illustrator 21.1.0, SVG Export Plug-In . SVG Version: 6.00 Build 0)  -->
<svg version="1.1" id="Layer_1" xmlns="http://www.w3.org/2000/svg" xmlns:xlink="http://www.w3.org/1999/xlink" x="0px" y="0px"
	 viewBox="0 0 32 32" style="enable-background:new 0 0 32 32;" xml:space="preserve">
<style type="text/css">
	.st0{fill:#FFD93B;}
	.st1{fill:#F4C534;}
	.st2{fill:#3E4347;}
	.st3{fill:#FFFFFF;}
	.st4{fill:#5A5F63;}
	.st5{fill:#32373A;}
	.st6{fill:#E24B4B;}
	.st7{fill:#D03F3F;}
	.st8{opacity:0.2;}
	.st9{opacity:0.3;}
	.st10{fill:#AD2727;}
	.st11{fill:#E9EFF4;}
	.st12{fill:#DEE4E9;}
	.st13{fill:#65B1EF;}
	.st14{fill:#4E99D2;}
	.st15{opacity:0.25;}
	.st16{fill:#719D34;}
	.st17{fill:#38C0DC;}
	.st18{fill:#303538;}
	.st19{fill:#777B7E;}
	.st20{opacity:0.2;fill:#FFFFFF;}
	.st21{fill:#DE9C25;}
	.st22{fill:#45CBEA;}
	.st23{fill:#7A5B44;}
	.st24{fill:#8CC63E;}
</style>
<g>
	<circle class="st0" cx="16" cy="16" r="16"/>
	<path class="st1" d="M32,16c0,8.84-7.165,16-16,16c-5.03,0-9.52-2.32-12.455-5.955c2.745,2.22,6.24,3.545,10.045,3.545
		c8.835,0,16-7.16,16-16c0-3.805-1.325-7.3-3.545-10.045C29.675,6.48,32,10.97,32,16z"/>
	<path class="st3" d="M12.601,16.659c-2.535,0.797-5.118-0.032-6.78-2.007c-2.825-3.346-1.589-7.964,1.998-8.898
		C13.985,4.16,19.377,14.542,12.601,16.659z"/>
	<path class="st3" d="M17.456,13.11c-0.83-1.843-0.429-3.87,1.059-5.293c3.266-3.102,8.895-0.945,9.208,3.796
		C28.094,17.208,19.552,17.735,17.456,13.11z"/>
	<circle class="st2" cx="11.318" cy="10.867" r="2.766"/>
	
		<ellipse transform="matrix(0.7071 -0.7071 0.7071 0.7071 -3.3213 11.6204)" class="st3" cx="12.366" cy="9.819" rx="0.493" ry="0.726"/>
	<circle class="st2" cx="21.779" cy="12.403" r="2.766"/>
	
		<ellipse transform="matrix(0.7071 -0.7071 0.7071 0.7071 -1.3435 19.4676)" class="st3" cx="22.826" cy="11.355" rx="0.493" ry="0.726"/>
	<path class="st2" d="M23.115,22.907c-0.245,2.798-2.972,3.825-6.162,4.285c-3.835,0.553-7.727-0.583-7.412-4.173
		c0.155-1.771,1.488-3.194,3.258-3.711c0.897-0.262,1.785-0.556,2.573-1.016C18.704,16.347,23.478,18.774,23.115,22.907z"/>
	<path class="st6" d="M16.953,27.192c1.694-0.244,3.253-0.652,4.383-1.396c-0.2-1.465-1.026-2.727-2.206-3.516
		c-0.684-0.459-1.586-0.5-2.303-0.097c-0.733,0.419-1.554,0.58-2.327,0.555c-1.296-0.032-2.488,0.806-2.931,2.029
		c-0.188,0.519-0.285,1.082-0.29,1.669C12.714,27.285,14.841,27.496,16.953,27.192z"/>
	<path class="st3" d="M11.755,19.757l0.146,3.008c0.009,0.145,0.163,0.229,0.287,0.163l1.266-0.706
		c0.044-0.026,0.084-0.071,0.101-0.119l0.203-0.499c0.018-0.04,0.022-0.088,0.022-0.132l-0.074-2.452
		c-0.299,0.102-0.602,0.198-0.907,0.287C12.427,19.417,12.081,19.573,11.755,19.757z"/>
	<path class="st3" d="M19.059,21.099l1.295-0.278c0.045-0.012,0.087-0.042,0.108-0.085l0.233-0.429
		c0.02-0.034,0.028-0.081,0.03-0.125l0.063-1.759c-0.592-0.361-1.254-0.611-1.946-0.729l-0.056,3.145
		C18.786,20.988,18.933,21.123,19.059,21.099z"/>
	<path class="st3" d="M17.004,19.757l0.358-2.116c-0.679,0.074-1.35,0.283-1.972,0.643l-0.262,1.75
		c-0.018,0.132,0.102,0.276,0.222,0.274l1.235-0.041c0.043-0.003,0.086-0.024,0.11-0.058l0.266-0.344
		C16.983,19.836,16.996,19.795,17.004,19.757z"/>
	<path class="st3" d="M16.953,27.192c0.647-0.093,1.274-0.212,1.866-0.362l0.212-2.423c0.01-0.133-0.119-0.269-0.239-0.26
		l-1.23,0.118c-0.043,0.006-0.084,0.029-0.106,0.065l-0.244,0.36c-0.021,0.028-0.031,0.07-0.036,0.109l-0.255,2.398
		C16.931,27.194,16.942,27.193,16.953,27.192z"/>
	<path class="st3" d="M15.617,25.096c-0.018-0.038-0.056-0.066-0.099-0.076l-1.21-0.251c-0.118-0.022-0.261,0.1-0.266,0.233
		l-0.049,2.258c0.593,0.064,1.215,0.075,1.847,0.039l0.005-1.707c-0.001-0.039-0.007-0.081-0.024-0.112L15.617,25.096z"/>
</g>
</svg>
