<?xml version="1.0" encoding="utf-8"?>
<!-- Generator: Adobe Illustrator 21.1.0, SVG Export Plug-In . SVG Version: 6.00 Build 0)  -->
<svg version="1.1" id="Layer_1" xmlns="http://www.w3.org/2000/svg" xmlns:xlink="http://www.w3.org/1999/xlink" x="0px" y="0px"
	 viewBox="0 0 32 32" style="enable-background:new 0 0 32 32;" xml:space="preserve">
<style type="text/css">
	.st0{fill:#FFD93B;}
	.st1{fill:#F4C534;}
	.st2{fill:#3E4347;}
	.st3{fill:#FFFFFF;}
	.st4{fill:#5A5F63;}
	.st5{fill:#32373A;}
	.st6{fill:#E24B4B;}
	.st7{fill:#D03F3F;}
	.st8{opacity:0.2;}
	.st9{opacity:0.3;}
	.st10{fill:#AD2727;}
	.st11{fill:#E9EFF4;}
	.st12{fill:#DEE4E9;}
	.st13{fill:#65B1EF;}
	.st14{fill:#4E99D2;}
	.st15{opacity:0.25;}
	.st16{fill:#719D34;}
	.st17{fill:#38C0DC;}
	.st18{fill:#303538;}
	.st19{fill:#777B7E;}
	.st20{opacity:0.2;fill:#FFFFFF;}
	.st21{fill:#DE9C25;}
	.st22{fill:#45CBEA;}
	.st23{fill:#7A5B44;}
	.st24{fill:#8CC63E;}
</style>
<g>
	<circle class="st0" cx="16" cy="14.718" r="14.718"/>
	<path class="st1" d="M30.718,14.718c0,8.132-6.591,14.718-14.718,14.718c-4.627,0-8.757-2.134-11.457-5.478
		c2.525,2.042,5.74,3.261,9.24,3.261c8.127,0,14.718-6.586,14.718-14.718c0-3.5-1.219-6.715-3.261-9.24
		C28.579,5.961,30.718,10.091,30.718,14.718z"/>
	<path class="st3" d="M13.995,12.388c0,2.474-1.995,4.478-4.468,4.478c-2.464,0-4.468-2.004-4.468-4.478
		c0-2.464,2.004-4.468,4.468-4.468C12.001,7.92,13.995,9.924,13.995,12.388z"/>
	<circle class="st2" cx="10.351" cy="12.393" r="2.061"/>
	
		<ellipse transform="matrix(0.7071 -0.7072 0.7072 0.7071 -4.9537 11.2725)" class="st3" cx="11.129" cy="11.615" rx="0.391" ry="0.568"/>
	<path class="st3" d="M18.005,12.388c0,2.474,1.995,4.478,4.468,4.478c2.464,0,4.468-2.004,4.468-4.478
		c0-2.464-2.004-4.468-4.468-4.468C20,7.92,18.005,9.924,18.005,12.388z"/>
	<circle class="st2" cx="21.649" cy="12.393" r="2.061"/>
	
		<ellipse transform="matrix(0.707 -0.7072 0.7072 0.707 -1.6438 19.2629)" class="st3" cx="22.426" cy="11.615" rx="0.391" ry="0.568"/>
	<path class="st2" d="M29.479,8.325h-0.459c-0.244-0.493-0.736-0.845-1.312-0.88c-2.772-0.168-5.651-0.061-8.805,0.327
		c-0.652,0.079-0.983,0.396-1.186,0.821C17.403,9.251,16.73,9.663,16,9.663c-0.73,0-1.403-0.411-1.718-1.07
		c-0.203-0.425-0.534-0.742-1.185-0.821C9.943,7.385,7.062,7.277,4.292,7.445c-0.587,0.035-1.081,0.386-1.321,0.88H2.521
		c-0.23,0-0.423,0.193-0.423,0.423v1.591c0,0.239,0.193,0.423,0.423,0.423H2.85c0.099,1.47,0.38,3.035,0.871,4.75
		c0.184,0.643,0.771,1.1,1.44,1.126c2.879,0.116,5.729-0.066,8.621-0.459c0.761-0.103,1.335-0.727,1.365-1.484
		c0.02-0.523,0.011-1.057-0.023-1.601C15.091,12.596,15.5,12.178,16,12.178c0.5,0,0.909,0.418,0.877,0.918
		c-0.035,0.544-0.044,1.078-0.023,1.601c0.03,0.757,0.604,1.381,1.365,1.484c2.91,0.394,5.77,0.576,8.654,0.457
		c0.666-0.027,1.227-0.5,1.411-1.142c0.488-1.709,0.768-3.269,0.867-4.734h0.329c0.23,0,0.423-0.193,0.423-0.423V8.748
		C29.903,8.509,29.709,8.325,29.479,8.325z M13.601,14.849c-3.005,0.408-5.747,0.553-8.378,0.449
		c-0.098-0.004-0.188-0.075-0.215-0.17c-0.657-2.297-0.935-4.306-0.85-6.139c0.005-0.103,0.103-0.196,0.215-0.202
		c2.868-0.176,5.721-0.03,8.56,0.319c0.094,0.012,0.177,0.082,0.2,0.172c0.514,1.962,0.733,3.718,0.669,5.367
		C13.799,14.744,13.711,14.834,13.601,14.849z M26.992,15.128c-0.027,0.095-0.117,0.165-0.215,0.17
		c-2.632,0.104-5.373-0.041-8.378-0.449c-0.11-0.015-0.198-0.105-0.202-0.205c-0.064-1.649,0.155-3.405,0.669-5.367
		c0.023-0.089,0.106-0.159,0.201-0.172c2.834-0.348,5.687-0.495,8.56-0.319c0.112,0.006,0.21,0.099,0.215,0.202
		C27.927,10.821,27.649,12.83,26.992,15.128z"/>
	<path class="st2" d="M25.72,5.417c-2.038,0.146-8.144,0.318-7.555-2.831c0.053-0.278,0.39-0.39,0.609-0.218
		c0.893,0.688,3.162,2.17,6.946,2.884C25.819,5.272,25.819,5.411,25.72,5.417z"/>
	<path class="st2" d="M6.28,5.417c2.038,0.146,8.144,0.318,7.555-2.831c-0.053-0.278-0.39-0.39-0.609-0.218
		c-0.893,0.688-3.162,2.17-6.946,2.884C6.181,5.272,6.181,5.411,6.28,5.417z"/>
	<path class="st0" d="M22.504,24.398c0,1.702-1.273,3.089-2.837,3.089c-1.557,0-2.824-1.387-2.824-3.089
		c0-1.696,1.267-3.076,2.824-3.076C21.231,21.322,22.504,22.703,22.504,24.398z"/>
	<ellipse class="st2" cx="19.672" cy="24.403" rx="1.891" ry="2.079"/>
	<path class="st11" d="M29.669,31.163c-0.468,0.798-1.5,1.064-2.297,0.596c-0.266-0.148-0.457-0.361-0.606-0.616l-0.01,0.032
		c-0.468,0.798-1.5,1.063-2.297,0.596c-0.383-0.234-0.649-0.596-0.766-1c-0.17-0.021-0.34-0.075-0.489-0.17
		c-0.628-0.361-0.83-1.159-0.468-1.776c0.16-0.277,0.404-0.468,0.681-0.564l-2.478-2.967c-0.415-0.457-0.181-0.872,0.362-0.617
		l3.573,1.138c0.361-0.34,0.904-0.447,1.372-0.266c0.521-0.521,1.361-0.649,2.021-0.255c0.723,0.425,1.01,1.308,0.712,2.052
		c0.372,0.458,0.479,1.085,0.277,1.648C29.913,29.493,30.105,30.429,29.669,31.163z"/>
</g>
</svg>
