<?xml version="1.0" encoding="utf-8"?>
<!-- Generator: Adobe Illustrator 21.1.0, SVG Export Plug-In . SVG Version: 6.00 Build 0)  -->
<svg version="1.1" id="Layer_1" xmlns="http://www.w3.org/2000/svg" xmlns:xlink="http://www.w3.org/1999/xlink" x="0px" y="0px"
	 viewBox="0 0 32 32" style="enable-background:new 0 0 32 32;" xml:space="preserve">
<style type="text/css">
	.st0{fill:#FFD93B;}
	.st1{fill:#F4C534;}
	.st2{fill:#3E4347;}
	.st3{fill:#FFFFFF;}
	.st4{fill:#5A5F63;}
	.st5{fill:#32373A;}
	.st6{fill:#E24B4B;}
	.st7{fill:#D03F3F;}
	.st8{opacity:0.2;}
	.st9{opacity:0.3;}
	.st10{fill:#AD2727;}
	.st11{fill:#E9EFF4;}
	.st12{fill:#DEE4E9;}
	.st13{fill:#65B1EF;}
	.st14{fill:#4E99D2;}
	.st15{opacity:0.25;}
	.st16{fill:#719D34;}
	.st17{fill:#38C0DC;}
	.st18{fill:#303538;}
	.st19{fill:#777B7E;}
	.st20{opacity:0.2;fill:#FFFFFF;}
	.st21{fill:#DE9C25;}
	.st22{fill:#45CBEA;}
	.st23{fill:#7A5B44;}
	.st24{fill:#8CC63E;}
</style>
<g>
	<circle class="st0" cx="16" cy="15.414" r="15.414"/>
	<path class="st1" d="M31.414,15.414c0,8.516-6.902,15.414-15.414,15.414c-4.846,0-9.171-2.235-11.998-5.737
		c2.644,2.139,6.011,3.415,9.677,3.415c8.511,0,15.414-6.898,15.414-15.414c0-3.665-1.276-7.033-3.415-9.677
		C29.174,6.243,31.414,10.568,31.414,15.414z"/>
	<path class="st0" d="M22.6,29.528c-0.352,1.65-2.023,2.889-3.844,2.341c-1.821-0.53-3.69-0.52-5.539,0
		c-1.727,0.5-3.443-0.607-3.815-2.351c-1.301-6.267,1.592-13.468,6.589-13.468C21.099,16.05,23.879,23.353,22.6,29.528z"/>
	<path class="st2" d="M21.271,29.253c-0.203,0.963-1.175,1.597-2.122,1.318c-2.105-0.608-4.201-0.608-6.298,0
		c-0.947,0.279-1.919-0.355-2.122-1.327c-1.158-5.596,1.369-11.834,5.266-11.834C19.927,17.41,22.421,23.673,21.271,29.253z"/>
	<path class="st6" d="M19.83,29.571c0.455-1.2,0.374-2.604-0.479-3.799c-0.576-0.819-1.632-1.125-2.562-0.766
		c-0.627,0.242-1.323,0.318-1.992,0.264c-2.58-0.21-3.428,2.241-2.669,4.301C14.666,28.801,17.234,28.839,19.83,29.571z"/>
	<path class="st3" d="M16,27.965c-2.297,0-4.274,0.632-5.186,1.544c0.31,0.816,1.181,1.315,2.037,1.062
		c2.096-0.608,4.193-0.608,6.298,0c0.858,0.253,1.73-0.247,2.039-1.06C20.278,28.597,18.299,27.965,16,27.965z"/>
	<path class="st3" d="M8.577,14.894c-2.736-0.279-4.412-2.215-3.718-4.951c0.703-2.736,3.497-4.952,6.252-4.952
		c2.746,0,3.837,2.148,4.03,4.97C15.372,13.42,11.746,15.222,8.577,14.894z"/>
	<path class="st2" d="M13.226,9.958c0,1.366-1.105,2.487-2.471,2.487c-1.374-0.008-2.479-1.121-2.479-2.487
		c0-1.366,1.105-2.479,2.479-2.479C12.121,7.479,13.226,8.592,13.226,9.958z"/>
	
		<ellipse transform="matrix(0.7071 -0.7071 0.7071 0.7071 -2.9989 10.8866)" class="st3" cx="11.643" cy="9.064" rx="0.447" ry="0.734"/>
	<path class="st3" d="M22.884,14.984c2.773-0.284,4.707-2.256,4.378-5.041c-0.339-2.785-2.837-5.042-5.592-5.042
		c-2.746,0-4.123,2.187-4.692,5.061C16.285,13.483,19.67,15.318,22.884,14.984z"/>
	<path class="st2" d="M23.842,9.958c0,1.366-1.105,2.487-2.471,2.487c-1.374-0.008-2.479-1.121-2.479-2.487
		c0-1.366,1.105-2.479,2.479-2.479C22.737,7.479,23.842,8.592,23.842,9.958z"/>
	
		<ellipse transform="matrix(0.7071 -0.7071 0.7071 0.7071 0.1104 18.3937)" class="st3" cx="22.258" cy="9.064" rx="0.447" ry="0.734"/>
</g>
</svg>
