<?xml version="1.0" encoding="utf-8"?>
<!-- Generator: Adobe Illustrator 21.1.0, SVG Export Plug-In . SVG Version: 6.00 Build 0)  -->
<svg version="1.1" id="Layer_1" xmlns="http://www.w3.org/2000/svg" xmlns:xlink="http://www.w3.org/1999/xlink" x="0px" y="0px"
	 viewBox="0 0 32 32" style="enable-background:new 0 0 32 32;" xml:space="preserve">
<style type="text/css">
	.st0{fill:#FFD93B;}
	.st1{fill:#F4C534;}
	.st2{fill:#3E4347;}
	.st3{fill:#FFFFFF;}
	.st4{fill:#5A5F63;}
	.st5{fill:#32373A;}
	.st6{fill:#E24B4B;}
	.st7{fill:#D03F3F;}
	.st8{opacity:0.2;}
	.st9{opacity:0.3;}
	.st10{fill:#AD2727;}
	.st11{fill:#E9EFF4;}
	.st12{fill:#DEE4E9;}
	.st13{fill:#65B1EF;}
	.st14{fill:#4E99D2;}
	.st15{opacity:0.25;}
	.st16{fill:#719D34;}
	.st17{fill:#38C0DC;}
	.st18{fill:#303538;}
	.st19{fill:#777B7E;}
	.st20{opacity:0.2;fill:#FFFFFF;}
	.st21{fill:#DE9C25;}
	.st22{fill:#45CBEA;}
	.st23{fill:#7A5B44;}
	.st24{fill:#8CC63E;}
</style>
<g>
	<g>
		<g>
			<g>
				<g>
					<g>
						<g>
							<g>
								<g>
									<g>
										<g>
											<g>
												<g>
													<g>
														<g>
															<g>
																<g>
																	<g>
																		<g>
																			<g>
																				<g>
																					<g>
																						<g>
																							<g>
																								<g>
																									<g>
																										<g>
																											<circle class="st0" cx="16" cy="14.245" r="14.245"/>
																										</g>
																									</g>
																								</g>
																							</g>
																						</g>
																						<g>
																							<g>
																								<g>
																									<g>
																										<g>
																											<path class="st1" d="M30.245,14.245c0,7.87-6.379,14.245-14.245,14.245
																												c-4.478,0-8.476-2.066-11.089-5.302c2.444,1.976,5.555,3.156,8.943,3.156
																												c7.866,0,14.245-6.375,14.245-14.245c0-3.388-1.18-6.499-3.156-8.943
																												C28.175,5.769,30.245,9.767,30.245,14.245z"/>
																										</g>
																									</g>
																								</g>
																							</g>
																						</g>
																					</g>
																				</g>
																			</g>
																		</g>
																	</g>
																</g>
															</g>
														</g>
													</g>
												</g>
											</g>
										</g>
									</g>
								</g>
							</g>
						</g>
					</g>
				</g>
			</g>
		</g>
		<path class="st2" d="M25.091,12.734c0,3.099-1.952,5.604-4.36,5.604c-2.399,0-4.351-2.505-4.351-5.604
			c0-3.099,1.952-5.612,4.351-5.612C23.139,7.122,25.091,9.635,25.091,12.734z"/>
		<path class="st3" d="M24.343,12.734c0,2.725-1.716,4.929-3.831,4.929c-2.107,0-3.823-2.204-3.823-4.929s1.716-4.937,3.823-4.937
			C22.626,7.797,24.343,10.009,24.343,12.734z"/>
		<path class="st2" d="M21.236,13.328c0,1.298-0.862,2.351-1.924,2.351c-1.054,0-1.916-1.054-1.916-2.351
			c0-1.297,0.862-2.351,1.916-2.351C20.375,10.977,21.236,12.03,21.236,13.328z"/>
		<path class="st4" d="M20.386,12.915c-0.197,0.108-0.502-0.074-0.685-0.4c-0.181-0.334-0.172-0.685,0.024-0.793
			c0.189-0.11,0.504,0.066,0.685,0.4C20.594,12.448,20.583,12.807,20.386,12.915z"/>
		<path class="st2" d="M25.154,8.649c0,0-1.745-3.581-5.263-3.304c-1.108,0.086-1.99,0.332-2.572,0.73
			C19.325,1.366,24.528,6.005,25.154,8.649z"/>
		<path class="st2" d="M6.909,12.734c0,3.099,1.952,5.604,4.36,5.604c2.399,0,4.351-2.505,4.351-5.604
			c0-3.099-1.952-5.612-4.351-5.612C8.861,7.122,6.909,9.635,6.909,12.734z"/>
		<path class="st3" d="M7.657,12.734c0,2.725,1.716,4.929,3.831,4.929c2.107,0,3.823-2.204,3.823-4.929s-1.716-4.937-3.823-4.937
			C9.373,7.797,7.657,10.009,7.657,12.734z"/>
		<path class="st2" d="M10.764,13.328c0,1.298,0.862,2.351,1.924,2.351c1.054,0,1.916-1.054,1.916-2.351
			c0-1.297-0.862-2.351-1.916-2.351C11.625,10.977,10.764,12.03,10.764,13.328z"/>
		<g>
			<path class="st4" d="M11.551,12.884c0.187,0.124,0.507-0.03,0.717-0.338c0.21-0.316,0.232-0.667,0.045-0.791
				c-0.179-0.126-0.508,0.022-0.718,0.338C11.385,12.401,11.364,12.759,11.551,12.884z"/>
		</g>
		<path class="st2" d="M6.846,8.649c0,0,1.745-3.581,5.263-3.304c1.108,0.086,1.99,0.332,2.572,0.73
			C12.675,1.366,7.472,6.005,6.846,8.649z"/>
		<path class="st2" d="M21.594,20.214c1.032,0.099-0.562,5.097-5.698,4.936c-5.132-0.252-6.319-5.362-5.282-5.379
			c0.798-0.083,2.957,1.172,5.447,1.272C18.561,21.144,20.806,20.067,21.594,20.214z"/>
		<path class="st5" d="M15.897,25.15c1.065,0.034,1.969-0.163,2.737-0.483c-0.144-1.378-1.424-2.461-3-2.461
			c-1.387,0-2.543,0.84-2.902,1.979C13.554,24.711,14.598,25.087,15.897,25.15z"/>
		<g>
			<path class="st6" d="M14.042,28.327c-0.004,2.008,0.55,4.014,2.844,3.624c0.765-0.13,1.403-0.532,1.868-1.084
				c0.759-0.9,0.926-2.173,0.567-3.294c-0.02-0.061-0.04-0.122-0.061-0.182c-0.421-1.191-0.949-2.653-1.8-3.226
				c-0.636-0.429-1.565-0.515-2.137-0.003c-0.624-0.877-1.916-0.906-2.473-0.293c-0.214,0.235-0.047,0.47,0.076,0.71
				C13.855,26.399,14.06,27.527,14.042,28.327z"/>
		</g>
		<path class="st7" d="M15.531,24.615c0,0,0.222,0.322,0.475,0.856c0.257,0.531,0.506,1.282,0.666,2.053
			c0.144,0.774,0.199,1.564,0.154,2.153c-0.039,0.589-0.137,0.97-0.137,0.97s0.033-0.391,0.012-0.972
			c-0.015-0.581-0.091-1.352-0.247-2.108c-0.142-0.759-0.365-1.502-0.563-2.048C15.698,24.972,15.531,24.615,15.531,24.615z"/>
	</g>
	<g>
		<path class="st3" d="M16.15,21.042l0.379,1.175c0.023,0.068,0.104,0.113,0.187,0.1l0.904-0.139
			c0.083-0.013,0.147-0.08,0.148-0.152l0.008-1.081C17.257,21.018,16.711,21.059,16.15,21.042z"/>
		<path class="st3" d="M14.038,20.729l0.01,1.297c0.001,0.072,0.065,0.139,0.148,0.152l0.904,0.139
			c0.083,0.013,0.164-0.032,0.187-0.1l0.391-1.21C15.105,20.957,14.555,20.859,14.038,20.729z"/>
	</g>
</g>
</svg>
