<?xml version="1.0" encoding="utf-8"?>
<!-- Generator: Adobe Illustrator 21.1.0, SVG Export Plug-In . SVG Version: 6.00 Build 0)  -->
<svg version="1.1" id="Layer_1" xmlns="http://www.w3.org/2000/svg" xmlns:xlink="http://www.w3.org/1999/xlink" x="0px" y="0px"
	 viewBox="0 0 32 32" style="enable-background:new 0 0 32 32;" xml:space="preserve">
<style type="text/css">
	.st0{fill:#FFD93B;}
	.st1{fill:#F4C534;}
	.st2{fill:#3E4347;}
	.st3{fill:#FFFFFF;}
	.st4{fill:#5A5F63;}
	.st5{fill:#32373A;}
	.st6{fill:#E24B4B;}
	.st7{fill:#D03F3F;}
	.st8{opacity:0.2;}
	.st9{opacity:0.3;}
	.st10{fill:#AD2727;}
	.st11{fill:#E9EFF4;}
	.st12{fill:#DEE4E9;}
	.st13{fill:#65B1EF;}
	.st14{fill:#4E99D2;}
	.st15{opacity:0.25;}
	.st16{fill:#719D34;}
	.st17{fill:#38C0DC;}
	.st18{fill:#303538;}
	.st19{fill:#777B7E;}
	.st20{opacity:0.2;fill:#FFFFFF;}
	.st21{fill:#DE9C25;}
	.st22{fill:#45CBEA;}
	.st23{fill:#7A5B44;}
	.st24{fill:#8CC63E;}
</style>
<g>
	<g>
		<g>
			<g>
				<g>
					<g>
						<g>
							<g>
								<g>
									<g>
										<g>
											<g>
												<g>
													<g>
														<g>
															<g>
																<g>
																	<g>
																		<g>
																			<g>
																				<g>
																					<g>
																						<g>
																							<g>
																								<g>
																									<circle class="st0" cx="16" cy="16" r="16"/>
																								</g>
																							</g>
																						</g>
																					</g>
																				</g>
																			</g>
																			<g>
																				<g>
																					<g>
																						<g>
																							<g>
																								<g>
																									<path class="st1" d="M32,16c0,8.84-7.165,16-16,16c-5.03,0-9.52-2.32-12.455-5.955
																										c2.745,2.22,6.24,3.545,10.045,3.545c8.835,0,16-7.16,16-16c0-3.805-1.325-7.3-3.545-10.045
																										C29.675,6.48,32,10.97,32,16z"/>
																								</g>
																							</g>
																						</g>
																					</g>
																				</g>
																			</g>
																		</g>
																	</g>
																</g>
															</g>
														</g>
													</g>
												</g>
											</g>
										</g>
									</g>
								</g>
							</g>
						</g>
					</g>
				</g>
			</g>
		</g>
	</g>
	<path class="st2" d="M14.377,5.977c0,2.323-1.037,3.867-2.63,5.24c-1.458,1.257-4.029,2.063-5.57,1.86
		c1.279-0.583,3.947-2.022,4.79-2.83C13.009,8.598,13.579,7.255,14.377,5.977z"/>
	<path class="st2" d="M17.627,5.977c0.625,1,1.213,2.496,3.41,4.27c0.392,0.376,2.278,1.672,4.78,2.83
		c-1.496,0.2-4.109-0.601-5.57-1.86C18.554,9.757,17.627,8.161,17.627,5.977z"/>
	<path class="st2" d="M26.717,14.387c-2.068,1.275-5.026,2.138-7.41,2.52c-0.34,0.64-0.74,1.27-1.28,1.83
		c-0.065-1.001,0.113-1.924,0.33-2.9C22.31,14.518,24.901,14.271,26.717,14.387z"/>
	<path class="st2" d="M13.977,18.737c-0.54-0.56-0.93-1.18-1.29-1.82c-2.393-0.405-5.324-1.25-7.4-2.53
		c2.818-0.181,5.721,0.592,8.36,1.45C13.832,16.837,14.037,17.631,13.977,18.737z"/>
	<g>
		<path class="st2" d="M22.373,27.642c-1.601-2.796-2.248-4.012-6.011-3.853c-3.709,0.062-4.319,1.229-5.798,4.173
			c-0.023-3.905,2.052-5.497,5.758-5.671C19.976,22.273,22.159,23.644,22.373,27.642z"/>
	</g>
</g>
</svg>
