<?xml version="1.0" encoding="utf-8"?>
<!-- Generator: Adobe Illustrator 21.1.0, SVG Export Plug-In . SVG Version: 6.00 Build 0)  -->
<svg version="1.1" id="Layer_1" xmlns="http://www.w3.org/2000/svg" xmlns:xlink="http://www.w3.org/1999/xlink" x="0px" y="0px"
	 viewBox="0 0 32 32" style="enable-background:new 0 0 32 32;" xml:space="preserve">
<style type="text/css">
	.st0{fill:#FFD93B;}
	.st1{fill:#F4C534;}
	.st2{fill:#3E4347;}
	.st3{fill:#FFFFFF;}
	.st4{fill:#5A5F63;}
	.st5{fill:#32373A;}
	.st6{fill:#E24B4B;}
	.st7{fill:#D03F3F;}
	.st8{opacity:0.2;}
	.st9{opacity:0.3;}
	.st10{fill:#AD2727;}
	.st11{fill:#E9EFF4;}
	.st12{fill:#DEE4E9;}
	.st13{fill:#65B1EF;}
	.st14{fill:#4E99D2;}
	.st15{opacity:0.25;}
	.st16{fill:#719D34;}
	.st17{fill:#38C0DC;}
	.st18{fill:#303538;}
	.st19{fill:#777B7E;}
	.st20{opacity:0.2;fill:#FFFFFF;}
	.st21{fill:#DE9C25;}
	.st22{fill:#45CBEA;}
	.st23{fill:#7A5B44;}
	.st24{fill:#8CC63E;}
</style>
<g>
	<g>
		<g>
			<g>
				<g>
					<g>
						<g>
							<g>
								<g>
									<g>
										<g>
											<g>
												<g>
													<g>
														<g>
															<g>
																<g>
																	<g>
																		<g>
																			<g>
																				<g>
																					<g>
																						<g>
																							<g>
																								<g>
																									<g>
																										<g>
																											<circle class="st0" cx="16" cy="16" r="16"/>
																										</g>
																									</g>
																								</g>
																							</g>
																						</g>
																					</g>
																					<g>
																						<g>
																							<g>
																								<g>
																									<g>
																										<g>
																											<path class="st1" d="M32,16c0,8.84-7.165,16-16,16c-5.03,0-9.52-2.32-12.455-5.955
																												c2.745,2.22,6.24,3.545,10.045,3.545c8.835,0,16-7.16,16-16c0-3.805-1.325-7.3-3.545-10.045
																												C29.675,6.48,32,10.97,32,16z"/>
																										</g>
																									</g>
																								</g>
																							</g>
																						</g>
																					</g>
																				</g>
																			</g>
																		</g>
																	</g>
																</g>
															</g>
														</g>
													</g>
												</g>
											</g>
										</g>
									</g>
								</g>
							</g>
						</g>
					</g>
				</g>
			</g>
		</g>
		<g>
			<path class="st2" d="M25.074,20.897c-1.13,3.87-4.7,6.7-8.95,6.7c-4.23,0-7.8-2.82-8.93-6.69c-0.1-0.34,0.18-0.67,0.53-0.59
				c5.43,1.13,11.04,1.13,16.82-0.01C24.884,20.237,25.174,20.557,25.074,20.897z"/>
		</g>
		<path class="st3" d="M9.287,20.606c0.747,1.757,3.589,2.863,6.883,2.847c3.319,0.017,6.181-1.107,6.9-2.888
			C18.359,21.342,13.765,21.357,9.287,20.606z"/>
		<path class="st6" d="M16.124,27.597c1.353,0,2.635-0.292,3.795-0.809c-0.012-1.424-1.162-2.569-2.588-2.569
			c-0.782,0-1.487,0.348-1.956,0.895c-0.348-0.182-0.739-0.278-1.156-0.278c-1.114,0-2.052,0.706-2.419,1.687
			C13.091,27.205,14.56,27.597,16.124,27.597z"/>
		<g class="st15">
			<path class="st3" d="M18.669,25.59c-0.122,0.187-0.56,0.183-0.969-0.007c-0.418-0.191-0.649-0.495-0.517-0.68
				c0.122-0.187,0.55-0.185,0.957,0.012C18.561,25.1,18.792,25.403,18.669,25.59z"/>
		</g>
	</g>
	<g>
		<g>
			<path class="st16" d="M20.315,14.058l0.718-2.678c-1.36-0.815-2.078-1.936-1.66-3.493c0.371-1.383,1.581-2.186,3.114-1.933
				l0.17-0.633l0.927,0.248l-0.17,0.633c1.357,0.543,1.905,1.573,1.788,2.863l-1.674-0.222c0.037-0.529-0.128-0.939-0.493-1.228
				l-0.67,2.499c3.809,2.213,1.635,6.073-1.526,5.695l-0.32,1.195l-0.927-0.248l0.312-1.163c-1.371-0.552-2.136-1.683-1.935-3.491
				l1.716,0.268C19.637,13.111,19.925,13.723,20.315,14.058z M22.113,7.346c-1.096,0.071-1.656,1.372-0.593,2.211L22.113,7.346z
				 M21.218,14.396c1.311,0.101,2.203-1.567,0.668-2.493L21.218,14.396z"/>
		</g>
		<g>
			<path class="st16" d="M10.788,14.311l-0.718-2.678c-1.585-0.026-2.767-0.638-3.185-2.195C6.515,8.054,7.162,6.754,8.616,6.206
				l-0.17-0.633l0.927-0.248l0.17,0.633c1.446-0.208,2.436,0.41,2.98,1.585l-1.561,0.644c-0.233-0.477-0.58-0.749-1.041-0.817
				l0.67,2.499c4.405,0.012,4.452,4.443,1.526,5.695l0.32,1.195l-0.927,0.248l-0.312-1.163c-1.463,0.208-2.691-0.39-3.421-2.056
				l1.62-0.626C9.728,13.83,10.283,14.215,10.788,14.311z M8.99,7.6c-0.913,0.61-0.748,2.016,0.593,2.212L8.99,7.6z M11.739,14.152
				c1.187-0.568,1.124-2.458-0.668-2.493L11.739,14.152z"/>
		</g>
	</g>
</g>
</svg>
