<?xml version="1.0" encoding="utf-8"?>
<!-- Generator: Adobe Illustrator 21.1.0, SVG Export Plug-In . SVG Version: 6.00 Build 0)  -->
<svg version="1.1" id="Layer_1" xmlns="http://www.w3.org/2000/svg" xmlns:xlink="http://www.w3.org/1999/xlink" x="0px" y="0px"
	 viewBox="0 0 32 32" style="enable-background:new 0 0 32 32;" xml:space="preserve">
<style type="text/css">
	.st0{fill:#FFD93B;}
	.st1{fill:#F4C534;}
	.st2{fill:#3E4347;}
	.st3{fill:#FFFFFF;}
	.st4{fill:#5A5F63;}
	.st5{fill:#32373A;}
	.st6{fill:#E24B4B;}
	.st7{fill:#D03F3F;}
	.st8{opacity:0.2;}
	.st9{opacity:0.3;}
	.st10{fill:#AD2727;}
	.st11{fill:#E9EFF4;}
	.st12{fill:#DEE4E9;}
	.st13{fill:#65B1EF;}
	.st14{fill:#4E99D2;}
	.st15{opacity:0.25;}
	.st16{fill:#719D34;}
	.st17{fill:#38C0DC;}
	.st18{fill:#303538;}
	.st19{fill:#777B7E;}
	.st20{opacity:0.2;fill:#FFFFFF;}
	.st21{fill:#DE9C25;}
	.st22{fill:#45CBEA;}
	.st23{fill:#7A5B44;}
	.st24{fill:#8CC63E;}
</style>
<g>
	<g>
		<g>
			<g>
				<g>
					<g>
						<g>
							<g>
								<g>
									<g>
										<g>
											<g>
												<g>
													<g>
														<g>
															<g>
																<g>
																	<g>
																		<g>
																			<g>
																				<g>
																					<g>
																						<g>
																							<g>
																								<g>
																									<g>
																										<g>
																											<circle class="st0" cx="16" cy="16" r="16"/>
																										</g>
																									</g>
																								</g>
																							</g>
																						</g>
																					</g>
																					<g>
																						<g>
																							<g>
																								<g>
																									<g>
																										<g>
																											<path class="st1" d="M32,16c0,8.84-7.165,16-16,16c-5.03,0-9.52-2.32-12.455-5.955
																												c2.745,2.22,6.24,3.545,10.045,3.545c8.835,0,16-7.16,16-16c0-3.805-1.325-7.3-3.545-10.045
																												C29.675,6.48,32,10.97,32,16z"/>
																										</g>
																									</g>
																								</g>
																							</g>
																						</g>
																					</g>
																				</g>
																			</g>
																		</g>
																	</g>
																</g>
															</g>
														</g>
													</g>
												</g>
											</g>
										</g>
									</g>
								</g>
							</g>
						</g>
					</g>
				</g>
			</g>
		</g>
	</g>
	<path class="st2" d="M22.097,23.709l-11.74,2.8c-0.33,0.08-0.59-0.29-0.4-0.57c1.84-2.77,8.31-11.39,12.4-2.76
		C22.457,23.39,22.327,23.649,22.097,23.709z"/>
	<path class="st3" d="M20.067,23.419l-8.93,2.13c1.37-1.91,4.22-5.36,6.82-5.36c0.13,0,0.25,0.01,0.37,0.03L20.067,23.419z"/>
	<g>
		<g>
			<circle class="st2" cx="10.758" cy="13.973" r="2.845"/>
		</g>
		<g>
			<path class="st4" d="M12.618,13.279c-0.193,0.23-0.679,0.143-1.082-0.195c-0.405-0.329-0.576-0.795-0.374-1.024
				c0.195-0.24,0.672-0.153,1.075,0.184C12.649,12.584,12.812,13.049,12.618,13.279z"/>
		</g>
	</g>
	<g>
		<g>
			<circle class="st2" cx="21.242" cy="13.973" r="2.845"/>
		</g>
		<g>
			<path class="st4" d="M23.102,13.279c-0.193,0.23-0.679,0.143-1.082-0.195c-0.405-0.329-0.576-0.795-0.374-1.024
				c0.195-0.24,0.672-0.153,1.075,0.184C23.132,12.584,23.295,13.049,23.102,13.279z"/>
		</g>
	</g>
	<path class="st2" d="M5.624,11.39c-0.067-1,0.617-3.068,3.209-4.219c1.822-0.519,3.439-0.627,5.329,0.331
		c-1.508,0.246-1.944-0.06-4.872,0.832C7.812,8.955,6.546,9.927,5.624,11.39z"/>
	<path class="st2" d="M19.086,5.704c0.913,1.447,2.167,2.427,3.666,3.056c2.914,0.89,3.367,0.587,4.872,0.832
		c-1.864,0.945-3.468,0.861-5.329,0.331C19.881,8.851,19.011,6.827,19.086,5.704z"/>
</g>
</svg>
