<?xml version="1.0" encoding="utf-8"?>
<!-- Generator: Adobe Illustrator 21.1.0, SVG Export Plug-In . SVG Version: 6.00 Build 0)  -->
<svg version="1.1" id="Layer_1" xmlns="http://www.w3.org/2000/svg" xmlns:xlink="http://www.w3.org/1999/xlink" x="0px" y="0px"
	 viewBox="0 0 32 32" style="enable-background:new 0 0 32 32;" xml:space="preserve">
<style type="text/css">
	.st0{fill:#FFD93B;}
	.st1{fill:#3E4347;}
	.st2{fill:#F4C534;}
	.st3{fill:#38C0DC;}
	.st4{fill:#45CBEA;}
	.st5{fill:#FFFFFF;}
	.st6{fill:#E24B4B;}
	.st7{fill:#5A5F63;}
	.st8{opacity:0.3;}
	.st9{opacity:0.2;}
	.st10{opacity:0.1;}
	.st11{fill:#E9B02C;}
	.st12{fill:#65B1EF;}
	.st13{fill:#E9EFF4;}
	.st14{fill:#8CC63E;}
	.st15{fill:#7FB239;}
	.st16{fill:#D03F3F;}
	.st17{fill:#D23F77;}
	.st18{fill:#E84D88;}
	.st19{fill:#59A5E0;}
	.st20{fill:#DEE4E9;}
	.st21{fill:#D3D9DD;}
	.st22{opacity:0.25;fill:#FFFFFF;}
	.st23{fill:#9A795F;}
	.st24{fill:#F29A2E;}
	.st25{fill:#FC97B2;}
	.st26{fill:#89664C;}
	.st27{fill:#7A5B44;}
	.st28{opacity:0.2;fill:#FFFFFF;}
	.st29{fill:#4E99D2;}
	.st30{fill:#BBC7D1;}
	.st31{fill:#DE9C25;}
</style>
<g>
	<g>
		<path class="st6" d="M15.83,2.188c-0.404,0.012-0.803-0.061-1.197-0.902c-0.695-1.163-1.374,0.015-2.035-0.538
			c-0.66,0.311-3.147,1.417-3.726,1.857c-0.29,0.413-1.404,1.808-1.671,1.904C6.667,4.886,5.353,5.316,4.296,5.629
			C3.304,5.923,2.715,7.221,2.542,7.867c-0.386,1.563-1.8,4.709-2.012,5.575c-0.102,0.281-0.039,0.579,0.096,0.861H15.83V2.188z"/>
	</g>
	<g>
		<g>
			<g>
				<g>
					<g>
						<g>
							<g>
								<g>
									<g>
										<g>
											<g>
												<g>
													<g>
														<g>
															<g>
																<g>
																	<g>
																		<g>
																			<g>
																				<g>
																					<path class="st14" d="M31.981,16.761c-0.38,8.15-7.09,14.86-15.24,15.22c-9.18,0.42-16.74-6.89-16.74-15.98
																						c0-1.04,0.1-2.07,0.29-3.05c0.06-0.34,0.31-0.61,0.63-0.73c5.46-2.06,9.29-6.24,11.54-11.39
																						c0.14-0.31,0.4-0.53,0.73-0.59c0.91-0.16,1.85-0.24,2.81-0.24C25.081,0.001,32.41,7.581,31.981,16.761z"/>
																				</g>
																			</g>
																		</g>
																	</g>
																</g>
															</g>
														</g>
													</g>
													<g>
														<g>
															<g>
																<g>
																	<g>
																		<g>
																			<g>
																				<g>
																					<path class="st15" d="M31.999,15.999c0,8.84-7.165,16-16,16c-5.03,0-9.52-2.32-12.455-5.955
																						c2.745,2.22,6.24,3.545,10.045,3.545c8.835,0,16-7.16,16-16c0-3.805-1.325-7.3-3.545-10.045
																						C29.674,6.479,31.999,10.969,31.999,15.999z"/>
																				</g>
																			</g>
																		</g>
																	</g>
																</g>
															</g>
														</g>
													</g>
												</g>
											</g>
										</g>
									</g>
								</g>
							</g>
						</g>
					</g>
				</g>
			</g>
		</g>
	</g>
	<g>
		<g>
			<g>
				<path class="st1" d="M21.715,26.774c-3.81-1.017-7.621-1.017-11.431,0c-0.548,0.149-1.049-0.329-0.931-0.884
					c0.634-3.083,3.372-5.406,6.643-5.406c3.278,0,6.009,2.324,6.651,5.406C22.763,26.445,22.263,26.923,21.715,26.774z"/>
			</g>
			<path class="st6" d="M19.873,26.371c-0.056-0.783-0.34-1.513-0.804-2.103c-0.516-0.668-1.447-0.94-2.215-0.595
				c-0.514,0.225-1.112,0.335-1.798,0.274l-0.02-0.002c-1.302-0.122-2.548,0.655-2.804,1.939c-0.03,0.155-0.044,0.316-0.056,0.478
				C14.742,25.905,17.308,25.907,19.873,26.371z"/>
			<path class="st5" d="M21.623,23.485c-1.22-1.807-3.281-3.001-5.628-3.001c-2.342,0-4.406,1.195-5.625,3.003
				C14.122,21.99,17.873,21.99,21.623,23.485z"/>
			<g>
				<g>
					<path class="st5" d="M19.519,24.275c-0.016-1.307-1.189-2.637-1.189-2.637l1.463,0.094
						C20.41,23.375,19.519,24.275,19.519,24.275z"/>
				</g>
				<g>
					<path class="st5" d="M12.48,24.275c0.016-1.307,1.189-2.637,1.189-2.637l-1.463,0.094C11.588,23.375,12.48,24.275,12.48,24.275
						z"/>
				</g>
			</g>
		</g>
		<g>
			<path class="st5" d="M11.698,24.529c0,0-0.696,0.709-0.425,2.014c0.343-0.076,0.685-0.142,1.028-0.201
				C12.005,25.846,11.706,25.185,11.698,24.529z"/>
			<path class="st5" d="M19.697,26.342c0.343,0.059,0.685,0.125,1.028,0.201c0.271-1.304-0.425-2.014-0.425-2.014
				C20.293,25.185,19.994,25.846,19.697,26.342z"/>
		</g>
		<path class="st5" d="M15.938,25.202c-1.787,0-3.398,0.159-4.548,0.538c0.08,0.238,0.134,0.485,0.175,0.734
			c2.945-0.61,5.889-0.613,8.834-0.008c0.081-0.225,0.169-0.448,0.286-0.655C19.525,25.382,17.831,25.202,15.938,25.202z"/>
		<g>
			<path class="st6" d="M20.288,29.352c-0.061-0.264,0.157-1.95,0.149-1.979c-0.038-0.133-0.121-0.117-0.235-0.094
				c-0.133,0.023-0.266-0.086-0.266-0.219c-0.043,0.248-0.065,0.834-0.305,0.861c-0.094,0.008-0.18-0.063-0.211-0.156
				c-0.062-0.137,0.153-2.656,0.157-2.668c0.086-0.243,0.243,0.117,0.383,0.117c0.094,0,0.172-0.102,0.258-0.063
				c0.097,0.049,0.023,0.187,0.023,0.289c0,0.125,0.117,0.211,0.211,0.297c1.065,0.958-0.135,2.176,0.415,3.122
				c0.07,0.133,0.172,0.243,0.25,0.368C21.538,29.943,20.448,30.216,20.288,29.352z"/>
		</g>
	</g>
	<g>
		<g>
			<g>
				<ellipse class="st5" cx="9.866" cy="14.874" rx="4.051" ry="4.055"/>
			</g>
		</g>
		<g>
			<g>
				<ellipse class="st5" cx="22.133" cy="14.874" rx="4.051" ry="4.055"/>
			</g>
		</g>
	</g>
	<g>
		<path class="st6" d="M2.449,10.818v0.087v5.813c0,0,0.441,1.066,1.096,0.189s-0.221-0.795-0.221-2.034s-0.229-2.176,0.75-2.759
			s1.708-0.5,2.188-1.688s0.958-0.167,0.5,0.875c-0.458,1.042-0.317,1.917,0.185,1.917s0.752-0.25,0.523-0.938
			S7.178,9.863,7.449,9.155c0.271-0.708,5.214-5.864,5.024-8.349l-5.44,5.869"/>
	</g>
	<g>
		<g>
			<path class="st1" d="M24.241,13.671c0,1.12-0.91,2.03-2.03,2.03c-1.12,0-2.03-0.91-2.03-2.03c0-1.13,0.91-2.04,2.03-2.04
				C23.331,11.631,24.241,12.541,24.241,13.671z"/>
		</g>
		<g>
			<path class="st5" d="M23.44,13.444c-0.138,0.138-0.483,0.03-0.758-0.246c-0.276-0.276-0.384-0.62-0.246-0.758
				c0.148-0.148,0.492-0.04,0.768,0.236C23.48,12.952,23.588,13.297,23.44,13.444z"/>
		</g>
	</g>
	<g>
		<g>
			<path class="st1" d="M11.708,16.103c0,1.12-0.91,2.03-2.03,2.03c-1.12,0-2.03-0.91-2.03-2.03c0-1.13,0.91-2.04,2.03-2.04
				C10.799,14.063,11.708,14.973,11.708,16.103z"/>
		</g>
		<g>
			<path class="st5" d="M10.908,15.876c-0.138,0.138-0.483,0.03-0.758-0.246c-0.276-0.276-0.384-0.62-0.246-0.758
				c0.148-0.148,0.492-0.04,0.768,0.236C10.948,15.384,11.056,15.728,10.908,15.876z"/>
		</g>
	</g>
	<g>
		<path class="st1" d="M15.241,2.707c2.686-0.014,8.906,1.8,12.063,6.875C25.745,8.297,23.161,5.768,15.241,2.707z"/>
	</g>
	<g>
		<path class="st6" d="M24.701,7.029c0.056-0.12-5.779-3.338-5.928-3.271C20.672,4.22,23.379,5.71,24.701,7.029z"/>
		<g>
			<path class="st6" d="M21.011,4.712c0,0,0.368,1.106,0.261,1.918c-0.108,0.812-0.049,1.753,0.21,2.365s0.879,0.2,0.651-0.188
				c-0.228-0.388-0.416-0.671-0.169-1.212c0.247-0.541,0.377-0.8,0.412-1.035c0.035-0.235,0.353,0,0.259,0.329
				c-0.094,0.329-0.212,0.659-0.118,0.882c0.094,0.224,0.271,0.024,0.529,0.165s0.261,0.265,0.46,0.45
				c0.199,0.185,0.375,0.173,0.375,0.585c0,0.412-0.188,0.871-0.094,1.471c0.094,0.6-0.059,0.931,0.453,1.189
				c0.512,0.258,0.676-0.377,0.3-0.906c-0.376-0.529-0.612-1.318-0.365-2.071s0.788-1.318,0.447-1.706
				C24.282,6.56,21.011,4.712,21.011,4.712z"/>
		</g>
	</g>
	<g>
		<path class="st1" d="M17.361,2.161c-0.383,0.465-0.849,1.429-1.362,1.925C16.06,3.303,16.789,2.257,17.361,2.161z"/>
	</g>
	<g>
		<path class="st1" d="M25.444,9.37c0.355-0.461,0.81-1.461,1.3-1.968C26.706,8.223,25.98,9.262,25.444,9.37z"/>
	</g>
	<g>
		<path class="st1" d="M19.463,2.707c-1.051,0.588-1.52,1.533-2.102,2.506C17.386,3.944,18.546,2.701,19.463,2.707z"/>
	</g>
	<g>
		<path class="st1" d="M23.646,8.386c1.013-0.567,1.519-1.531,2.102-2.506C25.723,7.142,24.565,8.392,23.646,8.386z"/>
	</g>
	<g>
		<path class="st1" d="M21.098,3.415c-1,0.597-1.457,1.403-2.071,2.289C19.094,4.49,20.288,3.407,21.098,3.415z"/>
	</g>
	<g>
		<path class="st1" d="M21.906,7.066c1-0.597,1.47-1.421,2.071-2.289C23.907,6.053,22.674,7.073,21.906,7.066z"/>
	</g>
</g>
</svg>
