<?xml version="1.0" encoding="utf-8"?>
<!-- Generator: Adobe Illustrator 21.1.0, SVG Export Plug-In . SVG Version: 6.00 Build 0)  -->
<svg version="1.1" id="Layer_1" xmlns="http://www.w3.org/2000/svg" xmlns:xlink="http://www.w3.org/1999/xlink" x="0px" y="0px"
	 viewBox="0 0 32 32" style="enable-background:new 0 0 32 32;" xml:space="preserve">
<style type="text/css">
	.st0{fill:#FFD93B;}
	.st1{fill:#F4C534;}
	.st2{fill:#3E4347;}
	.st3{fill:#FFFFFF;}
	.st4{fill:#5A5F63;}
	.st5{fill:#32373A;}
	.st6{fill:#E24B4B;}
	.st7{fill:#D03F3F;}
	.st8{opacity:0.2;}
	.st9{opacity:0.3;}
	.st10{fill:#AD2727;}
	.st11{fill:#E9EFF4;}
	.st12{fill:#DEE4E9;}
	.st13{fill:#65B1EF;}
	.st14{fill:#4E99D2;}
	.st15{opacity:0.25;}
	.st16{fill:#719D34;}
	.st17{fill:#38C0DC;}
	.st18{fill:#303538;}
	.st19{fill:#777B7E;}
	.st20{opacity:0.2;fill:#FFFFFF;}
	.st21{fill:#DE9C25;}
	.st22{fill:#45CBEA;}
	.st23{fill:#7A5B44;}
	.st24{fill:#8CC63E;}
</style>
<g>
	<g>
		<g>
			<g>
				<g>
					<g>
						<g>
							<g>
								<g>
									<g>
										<g>
											<g>
												<g>
													<g>
														<g>
															<g>
																<g>
																	<g>
																		<g>
																			<g>
																				<g>
																					<g>
																						<g>
																							<g>
																								<g>
																									<g>
																										<circle class="st0" cx="16" cy="16" r="16"/>
																									</g>
																								</g>
																							</g>
																						</g>
																					</g>
																				</g>
																				<g>
																					<g>
																						<g>
																							<g>
																								<g>
																									<g>
																										<path class="st1" d="M32,16c0,8.84-7.165,16-16,16c-5.03,0-9.52-2.32-12.455-5.955
																											c2.745,2.22,6.24,3.545,10.045,3.545c8.835,0,16-7.16,16-16c0-3.805-1.325-7.3-3.545-10.045
																											C29.675,6.48,32,10.97,32,16z"/>
																									</g>
																								</g>
																							</g>
																						</g>
																					</g>
																				</g>
																			</g>
																		</g>
																	</g>
																</g>
															</g>
														</g>
													</g>
												</g>
											</g>
										</g>
									</g>
								</g>
							</g>
						</g>
					</g>
				</g>
			</g>
		</g>
	</g>
	<ellipse class="st1" cx="9.293" cy="13.537" rx="5.75" ry="6.298"/>
	<g>
		<path class="st3" d="M14.368,13.537c0.206,2.887-1.899,5.227-4.702,5.227c-2.803,0-5.243-2.34-5.449-5.227
			C4.011,10.65,6.116,8.31,8.92,8.31C11.723,8.31,14.162,10.65,14.368,13.537z"/>
	</g>
	<g>
		<g>
			<path class="st2" d="M12.744,15.472c-0.925,0.925-2.421,0.925-3.354,0c-0.925-0.933-0.925-2.429,0-3.363
				c0.933-0.925,2.429-0.925,3.354,0C13.677,13.042,13.677,14.539,12.744,15.472z"/>
		</g>
		<g>
			<path class="st4" d="M12.694,13.438c-0.193,0.168-0.555,0.05-0.815-0.252c-0.252-0.303-0.303-0.681-0.109-0.841
				c0.193-0.168,0.555-0.05,0.816,0.252C12.837,12.899,12.887,13.278,12.694,13.438z"/>
		</g>
	</g>
	<ellipse class="st1" cx="22.707" cy="13.537" rx="5.75" ry="6.298"/>
	<g>
		<path class="st3" d="M17.631,13.537c-0.206,2.887,1.899,5.227,4.702,5.227c2.803,0,5.243-2.34,5.449-5.227
			c0.206-2.887-1.899-5.227-4.702-5.227S17.838,10.65,17.631,13.537z"/>
	</g>
	<g>
		<g>
			<path class="st2" d="M19.256,15.472c0.925,0.925,2.421,0.925,3.354,0c0.925-0.933,0.925-2.429,0-3.363
				c-0.933-0.925-2.43-0.925-3.354,0C18.322,13.042,18.322,14.539,19.256,15.472z"/>
		</g>
		<g>
			<path class="st4" d="M19.306,13.438c0.193,0.168,0.555,0.05,0.815-0.252c0.252-0.303,0.303-0.681,0.109-0.841
				c-0.193-0.168-0.555-0.05-0.815,0.252C19.163,12.899,19.113,13.278,19.306,13.438z"/>
		</g>
	</g>
	<ellipse class="st2" cx="16" cy="24.131" rx="3.344" ry="3.74"/>
</g>
</svg>
