<?xml version="1.0" encoding="utf-8"?>
<!-- Generator: Adobe Illustrator 21.1.0, SVG Export Plug-In . SVG Version: 6.00 Build 0)  -->
<svg version="1.1" id="Layer_1" xmlns="http://www.w3.org/2000/svg" xmlns:xlink="http://www.w3.org/1999/xlink" x="0px" y="0px"
	 viewBox="0 0 32 32" style="enable-background:new 0 0 32 32;" xml:space="preserve">
<style type="text/css">
	.st0{fill:#FFD93B;}
	.st1{fill:#F4C534;}
	.st2{fill:#3E4347;}
	.st3{fill:#FFFFFF;}
	.st4{fill:#5A5F63;}
	.st5{fill:#32373A;}
	.st6{fill:#E24B4B;}
	.st7{fill:#D03F3F;}
	.st8{opacity:0.2;}
	.st9{opacity:0.3;}
	.st10{fill:#AD2727;}
	.st11{fill:#E9EFF4;}
	.st12{fill:#DEE4E9;}
	.st13{fill:#65B1EF;}
	.st14{fill:#4E99D2;}
	.st15{opacity:0.25;}
	.st16{fill:#719D34;}
	.st17{fill:#38C0DC;}
	.st18{fill:#303538;}
	.st19{fill:#777B7E;}
	.st20{opacity:0.2;fill:#FFFFFF;}
	.st21{fill:#DE9C25;}
	.st22{fill:#45CBEA;}
	.st23{fill:#7A5B44;}
	.st24{fill:#8CC63E;}
</style>
<g>
	<g>
		<g>
			<g>
				<g>
					<g>
						<g>
							<g>
								<g>
									<g>
										<g>
											<g>
												<g>
													<g>
														<g>
															<g>
																<g>
																	<g>
																		<g>
																			<g>
																				<g>
																					<g>
																						<g>
																							<g>
																								<g>
																									<circle class="st0" cx="16" cy="16" r="16"/>
																								</g>
																							</g>
																						</g>
																					</g>
																				</g>
																			</g>
																			<g>
																				<g>
																					<g>
																						<g>
																							<g>
																								<g>
																									<path class="st1" d="M32,16c0,8.84-7.165,16-16,16c-5.03,0-9.52-2.32-12.455-5.955
																										c2.745,2.22,6.24,3.545,10.045,3.545c8.835,0,16-7.16,16-16c0-3.805-1.325-7.3-3.545-10.045
																										C29.675,6.48,32,10.97,32,16z"/>
																								</g>
																							</g>
																						</g>
																					</g>
																				</g>
																			</g>
																		</g>
																	</g>
																</g>
															</g>
														</g>
													</g>
												</g>
											</g>
										</g>
									</g>
								</g>
							</g>
						</g>
					</g>
				</g>
			</g>
		</g>
	</g>
	<path class="st0" d="M23.758,25.186c-0.88,1.449-1.865,1.576-3.14,0.75c-0.485-0.294-1.461-0.78-2.573-1.099
		c-1.685-0.526-3.715-0.396-5.506,0.56c-1.157,0.622-2.198,1.079-2.791,1.139c-1.563,0.107-2.966-1.284-3.24-2.71
		c-0.297-1.391,0.633-3.768,2.728-4.468c0.753-0.24,2.21-0.23,3.602,0.264c2.149,0.724,4.245,1.249,6.283,1.661
		c1.318,0.271,2.546,0.637,3.2,0.833C24.122,22.617,24.638,23.77,23.758,25.186z"/>
	<g>
		<path class="st2" d="M23.758,25.186c-0.88,1.449-1.865,1.576-3.14,0.75c-0.485-0.294-1.461-0.78-2.573-1.099
			c-1.685-0.526-3.715-0.396-5.506,0.56c-1.157,0.622-2.198,1.079-2.791,1.139c-1.563,0.107-2.966-1.284-3.24-2.71
			c-0.297-1.391,0.633-3.768,2.728-4.468c0.753-0.24,2.21-0.23,3.602,0.264c2.149,0.724,4.245,1.249,6.283,1.661
			c1.318,0.271,2.546,0.637,3.2,0.833C24.122,22.617,24.638,23.77,23.758,25.186z"/>
	</g>
	<path class="st3" d="M19.85,23.625c1.168,0.102,2.279,0.32,3.494,0.398c0.049-0.586-0.296-1.112-1.257-1.432
		c-0.504-0.165-1.601-0.49-2.949-0.722c-1.07-0.177-2.159-0.371-3.265-0.59c-1.105-0.219-2.22-0.483-3.341-0.809
		c-1.41-0.424-2.727-0.363-3.288-0.191c-1.131,0.324-1.692,1.307-1.868,2.131c1.261,0.023,2.517,0.322,3.724,0.594
		c-1.208,0.275-2.43,0.569-3.689,0.897c0.263,0.919,1.016,1.897,2.216,1.743c0.48-0.063,1.47-0.449,2.726-1.06
		c0.987-0.468,2.045-0.715,3.077-0.735c1.032-0.021,2.034,0.155,2.935,0.489c1.165,0.415,2.051,0.888,2.448,1.108
		c0.989,0.567,1.648,0.285,2.13-0.384C21.95,24.497,20.913,24.023,19.85,23.625z"/>
	<g>
		<g>
			<circle class="st1" cx="9.907" cy="11.438" r="5.378"/>
		</g>
		<g>
			<path class="st3" d="M14.668,11.438c-0.143,2.584-2.391,4.678-5.02,4.678s-4.644-2.094-4.501-4.678
				C5.29,8.855,7.538,6.76,10.167,6.76C12.796,6.76,14.811,8.855,14.668,11.438z"/>
		</g>
		<g>
			<g>
				
					<ellipse transform="matrix(0.7071 -0.7071 0.7071 0.7071 -4.8114 11.3195)" class="st2" cx="11.259" cy="11.468" rx="2.674" ry="2.674"/>
			</g>
			<g>
				<path class="st4" d="M12.857,10.88c-0.205,0.205-0.604,0.151-0.885-0.13c-0.27-0.28-0.334-0.669-0.129-0.884
					c0.216-0.205,0.604-0.14,0.885,0.129C13.008,10.276,13.062,10.675,12.857,10.88z"/>
			</g>
		</g>
	</g>
	<g>
		<g>
			<circle class="st1" cx="22.045" cy="11.438" r="5.378"/>
		</g>
		<g>
			<path class="st3" d="M17.285,11.438c0.143,2.584,2.391,4.678,5.02,4.678c2.629,0,4.644-2.094,4.501-4.678
				s-2.391-4.678-5.02-4.678C19.156,6.76,17.141,8.855,17.285,11.438z"/>
		</g>
		<g>
			<g>
				
					<ellipse transform="matrix(0.7071 -0.7071 0.7071 0.7071 -2.0485 17.9902)" class="st2" cx="20.694" cy="11.468" rx="2.674" ry="2.674"/>
			</g>
			<g>
				<path class="st4" d="M22.292,10.88c-0.205,0.205-0.604,0.151-0.884-0.13c-0.27-0.28-0.334-0.669-0.129-0.884
					c0.216-0.205,0.604-0.14,0.884,0.129C22.443,10.276,22.497,10.675,22.292,10.88z"/>
			</g>
		</g>
	</g>
	<g>
		<path class="st0" d="M3.78,16.522c3.808,1.629,7.506,1.74,11.073,0c-4.121-2.248-8.941-0.919-11.073-0.116V16.522z"/>
	</g>
	<g>
		<path class="st1" d="M14.613,16.383c-1-0.179-2.368-0.641-4.985-0.61c-1.815-0.005-3.631,0.243-5.065,0.359
			c1.002-0.673,3.034-1.354,5.062-1.358C11.463,14.81,13.185,15.217,14.613,16.383z"/>
	</g>
</g>
</svg>
