<?xml version="1.0" encoding="utf-8"?>
<!-- Generator: Adobe Illustrator 21.1.0, SVG Export Plug-In . SVG Version: 6.00 Build 0)  -->
<svg version="1.1" id="Layer_1" xmlns="http://www.w3.org/2000/svg" xmlns:xlink="http://www.w3.org/1999/xlink" x="0px" y="0px"
	 viewBox="0 0 32 32" style="enable-background:new 0 0 32 32;" xml:space="preserve">
<style type="text/css">
	.st0{fill:#FFD93B;}
	.st1{fill:#F4C534;}
	.st2{fill:#3E4347;}
	.st3{fill:#FFFFFF;}
	.st4{fill:#5A5F63;}
	.st5{fill:#32373A;}
	.st6{fill:#E24B4B;}
	.st7{fill:#D03F3F;}
	.st8{opacity:0.2;}
	.st9{opacity:0.3;}
	.st10{fill:#AD2727;}
	.st11{fill:#E9EFF4;}
	.st12{fill:#DEE4E9;}
	.st13{fill:#65B1EF;}
	.st14{fill:#4E99D2;}
	.st15{opacity:0.25;}
	.st16{fill:#719D34;}
	.st17{fill:#38C0DC;}
	.st18{fill:#303538;}
	.st19{fill:#777B7E;}
	.st20{opacity:0.2;fill:#FFFFFF;}
	.st21{fill:#DE9C25;}
	.st22{fill:#45CBEA;}
	.st23{fill:#7A5B44;}
	.st24{fill:#8CC63E;}
</style>
<g>
	<g>
		<g>
			<g>
				<g>
					<g>
						<g>
							<g>
								<g>
									<g>
										<g>
											<g>
												<g>
													<g>
														<g>
															<g>
																<g>
																	<g>
																		<g>
																			<g>
																				<g>
																					<g>
																						<g>
																							<g>
																								<g>
																									<g>
																										<g>
																											<circle class="st0" cx="16" cy="16" r="16"/>
																										</g>
																									</g>
																								</g>
																							</g>
																						</g>
																					</g>
																					<g>
																						<g>
																							<g>
																								<g>
																									<g>
																										<g>
																											<path class="st1" d="M32,16c0,8.84-7.165,16-16,16c-5.03,0-9.52-2.32-12.455-5.955
																												c2.745,2.22,6.24,3.545,10.045,3.545c8.835,0,16-7.16,16-16c0-3.805-1.325-7.3-3.545-10.045
																												C29.675,6.48,32,10.97,32,16z"/>
																										</g>
																									</g>
																								</g>
																							</g>
																						</g>
																					</g>
																				</g>
																			</g>
																		</g>
																	</g>
																</g>
															</g>
														</g>
													</g>
												</g>
											</g>
										</g>
									</g>
								</g>
							</g>
						</g>
					</g>
				</g>
			</g>
		</g>
	</g>
	<g>
		<g>
			<path class="st2" d="M24.622,21.797c0.891,1.857-1.136,5.035-8.623,5.261c-7.486-0.229-9.512-3.406-8.623-5.261
				c0.871-1.971,3.321-1.903,8.623-1.786C21.302,19.895,23.749,19.824,24.622,21.797z"/>
		</g>
		<path class="st3" d="M20.741,23.419c1.286-0.179,2.332-1.094,2.78-1.6c-0.966-0.958-3.507-0.736-7.526-0.713
			c-2.612-0.006-4.56-0.126-5.931,0.087c-0.87,0.128-1.323,0.37-1.575,0.611c0.438,0.499,1.496,1.441,2.806,1.621
			c0.004,0.002-1.634-0.125-3.181-0.849c-0.149,1.341,2.516,3.342,7.886,3.401c0.004,0,0.008,0,0.012,0
			c5.359-0.057,8.02-2.055,7.875-3.396C22.351,23.293,20.737,23.42,20.741,23.419z"/>
	</g>
	<g>
		<g>
			<path class="st2" d="M27.066,14.782c-0.878-1.252-2.409-2.079-4.157-2.079c-2.27,0-4.175,1.392-4.758,3.297
				c-0.148-0.374-0.217-0.766-0.217-1.183c0-2.183,2.044-3.949,4.566-3.949C25.005,10.868,27.04,12.616,27.066,14.782z"/>
		</g>
		<g>
			<path class="st2" d="M4.934,14.782c0.878-1.252,2.409-2.079,4.157-2.079c2.27,0,4.175,1.392,4.758,3.297
				c0.148-0.374,0.217-0.766,0.217-1.183c0-2.183-2.044-3.949-4.566-3.949C6.995,10.868,4.96,12.616,4.934,14.782z"/>
		</g>
	</g>
</g>
</svg>
