<?xml version="1.0" encoding="utf-8"?>
<!-- Generator: Adobe Illustrator 21.1.0, SVG Export Plug-In . SVG Version: 6.00 Build 0)  -->
<svg version="1.1" id="Layer_1" xmlns="http://www.w3.org/2000/svg" xmlns:xlink="http://www.w3.org/1999/xlink" x="0px" y="0px"
	 viewBox="0 0 32 32" style="enable-background:new 0 0 32 32;" xml:space="preserve">
<style type="text/css">
	.st0{fill:#FFD93B;}
	.st1{fill:#F4C534;}
	.st2{fill:#3E4347;}
	.st3{fill:#FFFFFF;}
	.st4{fill:#5A5F63;}
	.st5{fill:#32373A;}
	.st6{fill:#E24B4B;}
	.st7{fill:#D03F3F;}
	.st8{opacity:0.2;}
	.st9{opacity:0.3;}
	.st10{fill:#AD2727;}
	.st11{fill:#E9EFF4;}
	.st12{fill:#DEE4E9;}
	.st13{fill:#65B1EF;}
	.st14{fill:#4E99D2;}
	.st15{opacity:0.25;}
	.st16{fill:#719D34;}
	.st17{fill:#38C0DC;}
	.st18{fill:#303538;}
	.st19{fill:#777B7E;}
	.st20{opacity:0.2;fill:#FFFFFF;}
	.st21{fill:#DE9C25;}
	.st22{fill:#45CBEA;}
	.st23{fill:#7A5B44;}
	.st24{fill:#8CC63E;}
</style>
<g>
	<g>
		<g>
			<g>
				<g>
					<g>
						<g>
							<g>
								<g>
									<g>
										<circle class="st0" cx="16" cy="16" r="16"/>
									</g>
								</g>
							</g>
						</g>
					</g>
				</g>
				<g>
					<g>
						<g>
							<g>
								<g>
									<g>
										<path class="st1" d="M32,16c0,8.84-7.165,16-16,16c-5.03,0-9.52-2.32-12.455-5.955c2.745,2.22,6.24,3.545,10.045,3.545
											c8.835,0,16-7.16,16-16c0-3.805-1.325-7.3-3.545-10.045C29.675,6.48,32,10.97,32,16z"/>
									</g>
								</g>
							</g>
						</g>
					</g>
				</g>
			</g>
		</g>
	</g>
	<g>
		<g>
			<path class="st2" d="M26.957,20.205c-1.18,4.96-5.63,8.66-10.96,8.66c-5.33,0-9.78-3.7-10.96-8.67c-0.09-0.38,0.26-0.71,0.63-0.6
				c6.94,2.07,13.83,2.11,20.66,0.01C26.707,19.485,27.047,19.825,26.957,20.205z"/>
		</g>
	</g>
	<path class="st6" d="M15.353,24.67c-4.096,0-7.014-1.205-6.446,1.643c0.003,0.015,0.009,0.029,0.012,0.044
		c1.933,1.567,4.393,2.507,7.078,2.507c2.685,0,5.145-0.941,7.078-2.506c0.003-0.016,0.009-0.03,0.012-0.045
		C23.655,23.465,19.45,24.67,15.353,24.67z"/>
	<path class="st3" d="M5.827,19.637c0.605,2.17,4.915,3.844,10.15,3.844c5.216,0,9.512-1.662,10.142-3.821
		C19.41,21.68,12.643,21.639,5.827,19.637z"/>
	<circle class="st1" cx="22.675" cy="13.413" r="6.153"/>
	<path class="st3" d="M27.942,13.415c-0.162,2.927-2.65,5.298-5.559,5.298c-2.908,0-5.143-2.372-4.981-5.298
		c0.162-2.927,2.66-5.307,5.568-5.307S28.104,10.489,27.942,13.415z"/>
	<path class="st2" d="M25.168,13.411c0.006,1.379-1.117,2.502-2.496,2.496c-1.379,0.006-2.503-1.118-2.496-2.497
		c-0.006-1.379,1.117-2.502,2.496-2.496C24.051,10.908,25.174,12.032,25.168,13.411z"/>
	
		<ellipse transform="matrix(0.7071 -0.7071 0.7071 0.7071 -1.9275 20.3381)" class="st3" cx="23.588" cy="12.496" rx="0.478" ry="0.745"/>
	<circle class="st1" cx="9.326" cy="13.413" r="6.153"/>
	<path class="st3" d="M4.059,13.415c0.162,2.927,2.65,5.298,5.559,5.298c2.908,0,5.143-2.372,4.981-5.298
		c-0.162-2.927-2.66-5.307-5.568-5.307C6.122,8.108,3.897,10.489,4.059,13.415z"/>
	<path class="st2" d="M6.832,13.411c-0.006,1.379,1.117,2.502,2.496,2.496c1.379,0.006,2.502-1.118,2.496-2.497
		c0.006-1.379-1.117-2.502-2.496-2.496C7.95,10.908,6.826,12.032,6.832,13.411z"/>
	
		<ellipse transform="matrix(0.7071 -0.7071 0.7071 0.7071 -6.3723 9.6086)" class="st3" cx="8.412" cy="12.496" rx="0.745" ry="0.478"/>
	<path class="st2" d="M9.697,4.558c0,0-3.251-0.457-6.664,3.494C3.033,8.052,5.24,0.974,9.697,4.558z"/>
	<path class="st2" d="M22.303,4.558c0,0,3.251-0.457,6.664,3.494C28.967,8.052,26.76,0.974,22.303,4.558z"/>
</g>
</svg>
