<?xml version="1.0" encoding="utf-8"?>
<!-- Generator: Adobe Illustrator 21.1.0, SVG Export Plug-In . SVG Version: 6.00 Build 0)  -->
<svg version="1.1" id="Layer_1" xmlns="http://www.w3.org/2000/svg" xmlns:xlink="http://www.w3.org/1999/xlink" x="0px" y="0px"
	 viewBox="0 0 32 32" style="enable-background:new 0 0 32 32;" xml:space="preserve">
<style type="text/css">
	.st0{fill:#FFD93B;}
	.st1{fill:#F4C534;}
	.st2{fill:#3E4347;}
	.st3{fill:#FFFFFF;}
	.st4{fill:#5A5F63;}
	.st5{fill:#32373A;}
	.st6{fill:#E24B4B;}
	.st7{fill:#D03F3F;}
	.st8{opacity:0.2;}
	.st9{opacity:0.3;}
	.st10{fill:#AD2727;}
	.st11{fill:#E9EFF4;}
	.st12{fill:#DEE4E9;}
	.st13{fill:#65B1EF;}
	.st14{fill:#4E99D2;}
	.st15{opacity:0.25;}
	.st16{fill:#719D34;}
	.st17{fill:#38C0DC;}
	.st18{fill:#303538;}
	.st19{fill:#777B7E;}
	.st20{opacity:0.2;fill:#FFFFFF;}
	.st21{fill:#DE9C25;}
	.st22{fill:#45CBEA;}
	.st23{fill:#7A5B44;}
	.st24{fill:#8CC63E;}
</style>
<g>
	<g>
		<g>
			<g>
				<g>
					<g>
						<circle class="st0" cx="16" cy="16" r="16"/>
					</g>
				</g>
			</g>
		</g>
	</g>
	<g>
		<g>
			<g>
				<g>
					<g>
						<path class="st1" d="M32,16c0,8.84-7.165,16-16,16c-5.03,0-9.52-2.32-12.455-5.955c2.745,2.22,6.24,3.545,10.045,3.545
							c8.835,0,16-7.16,16-16c0-3.805-1.325-7.3-3.545-10.045C29.675,6.48,32,10.97,32,16z"/>
					</g>
				</g>
			</g>
		</g>
	</g>
	<path class="st2" d="M25.011,26.09c-1-0.763-2.78-2.183-5.507-2.955c-2.189-0.664-5.011-0.608-7.008,0.001
		c-2.593,0.735-4.29,2.028-5.508,2.953c0.995-1.571,2.912-3.179,5.166-4c2.587-0.942,5.274-0.88,7.691,0.001
		C22.108,22.918,24.017,24.525,25.011,26.09z"/>
	
		<ellipse transform="matrix(0.7071 -0.7071 0.7071 0.7071 -2.7553 20.1697)" class="st1" cx="22.969" cy="13.411" rx="6.153" ry="6.153"/>
	<path class="st3" d="M28.234,13.415c-0.162,2.927-2.65,5.298-5.559,5.298s-5.143-2.372-4.981-5.298s2.66-5.307,5.568-5.307
		S28.397,10.489,28.234,13.415z"/>
	<path class="st2" d="M25.461,13.411c0.006,1.379-1.117,2.502-2.496,2.496c-1.379,0.006-2.502-1.118-2.496-2.497
		c-0.006-1.379,1.117-2.502,2.496-2.496C24.344,10.908,25.467,12.032,25.461,13.411z"/>
	
		<ellipse transform="matrix(0.7071 -0.7071 0.7071 0.7071 -1.8416 20.5455)" class="st3" cx="23.881" cy="12.496" rx="0.478" ry="0.745"/>
	<path class="st1" d="M25.604,7.86c-2.284-1.084-5.097-0.693-6.986,1.196c-1.889,1.889-2.285,4.707-1.203,6.993
		C20.727,13.991,23.497,11.307,25.604,7.86z"/>
	
		<ellipse transform="matrix(0.7071 -0.7071 0.7071 0.7071 -6.8376 10.3137)" class="st1" cx="9.031" cy="13.411" rx="6.153" ry="6.153"/>
	<path class="st3" d="M3.766,13.415c0.162,2.927,2.65,5.298,5.559,5.298s5.143-2.372,4.981-5.298
		c-0.162-2.927-2.66-5.307-5.568-5.307C5.828,8.108,3.603,10.489,3.766,13.415z"/>
	<path class="st2" d="M6.539,13.411c-0.006,1.379,1.117,2.502,2.496,2.496c1.379,0.006,2.502-1.118,2.497-2.497
		c0.006-1.379-1.117-2.502-2.496-2.496C7.656,10.908,6.533,12.032,6.539,13.411z"/>
	
		<ellipse transform="matrix(0.7071 -0.7071 0.7071 0.7071 -6.4582 9.4013)" class="st3" cx="8.119" cy="12.496" rx="0.745" ry="0.478"/>
	<path class="st1" d="M6.396,7.86c2.284-1.084,5.097-0.693,6.986,1.196c1.889,1.889,2.285,4.707,1.203,6.993
		C11.273,13.991,8.503,11.307,6.396,7.86z"/>
	<path class="st2" d="M17.377,6.977c0,0,2.797-0.651,5.406-3.432C22.783,3.545,19.564,10.008,17.377,6.977z"/>
	<path class="st2" d="M14.623,6.977c0,0-2.797-0.651-5.406-3.432C9.217,3.545,12.436,10.008,14.623,6.977z"/>
</g>
</svg>
