<?xml version="1.0" encoding="utf-8"?>
<!-- Generator: Adobe Illustrator 21.1.0, SVG Export Plug-In . SVG Version: 6.00 Build 0)  -->
<svg version="1.1" id="Layer_1" xmlns="http://www.w3.org/2000/svg" xmlns:xlink="http://www.w3.org/1999/xlink" x="0px" y="0px"
	 viewBox="0 0 32 32" style="enable-background:new 0 0 32 32;" xml:space="preserve">
<style type="text/css">
	.st0{fill:#FFD93B;}
	.st1{fill:#F4C534;}
	.st2{fill:#3E4347;}
	.st3{fill:#FFFFFF;}
	.st4{fill:#5A5F63;}
	.st5{fill:#32373A;}
	.st6{fill:#E24B4B;}
	.st7{fill:#D03F3F;}
	.st8{opacity:0.2;}
	.st9{opacity:0.3;}
	.st10{fill:#AD2727;}
	.st11{fill:#E9EFF4;}
	.st12{fill:#DEE4E9;}
	.st13{fill:#65B1EF;}
	.st14{fill:#4E99D2;}
	.st15{opacity:0.25;}
	.st16{fill:#719D34;}
	.st17{fill:#38C0DC;}
	.st18{fill:#303538;}
	.st19{fill:#777B7E;}
	.st20{opacity:0.2;fill:#FFFFFF;}
	.st21{fill:#DE9C25;}
	.st22{fill:#45CBEA;}
	.st23{fill:#7A5B44;}
	.st24{fill:#8CC63E;}
</style>
<g>
	<g>
		<g>
			<g>
				<circle class="st0" cx="15.463" cy="15.851" r="15.463"/>
			</g>
		</g>
	</g>
	<g>
		<g>
			<g>
				<path class="st1" d="M30.925,15.851c0,8.543-6.924,15.463-15.463,15.463c-4.861,0-9.2-2.242-12.037-5.755
					c2.653,2.146,6.031,3.426,9.708,3.426c8.538,0,15.463-6.92,15.463-15.463c0-3.677-1.28-7.055-3.426-9.708
					C28.679,6.65,30.925,10.989,30.925,15.851z"/>
			</g>
		</g>
	</g>
	<path class="st2" d="M23.171,25.144c-5.342-2.508-10.327-2.381-15.416,0C10.815,21.128,19.491,20.965,23.171,25.144z"/>
	<g>
		<g>
			<g>
				<path class="st11" d="M31.469,13.457c-0.701-0.692-1.831-0.684-2.522,0.016l-7.766,7.87c-0.517,0.524-0.65,1.29-0.382,1.929
					l-0.738,0.748c0.482,0.136,0.904,0.388,1.258,0.722l0.478-0.484c0.641,0.259,1.406,0.116,1.923-0.408l7.766-7.87
					C32.178,15.277,32.17,14.149,31.469,13.457z"/>
			</g>
		</g>
		<g>
			<path class="st6" d="M29.894,14.408l-4.378,4.436c-0.493,0.5,0.151,1.136,0.644,0.636l4.378-4.436
				c0.175-0.178,0.173-0.464-0.004-0.64C30.357,14.229,30.07,14.23,29.894,14.408z"/>
		</g>
		<g>
			<path class="st2" d="M22.297,21.471c-0.034,0.035-0.09,0.036-0.125,0.001l-0.28-0.276c-0.035-0.035-0.035-0.09-0.001-0.125
				c0.034-0.035,0.09-0.036,0.125-0.001l0.28,0.276C22.331,21.38,22.331,21.436,22.297,21.471z"/>
		</g>
		<g>
			<path class="st2" d="M22.99,21.085c-0.034,0.035-0.09,0.036-0.125,0.001l-0.439-0.433c-0.035-0.035-0.035-0.09-0.001-0.125
				c0.034-0.035,0.09-0.036,0.125-0.001l0.439,0.433C23.025,20.995,23.025,21.051,22.99,21.085z"/>
		</g>
		<g>
			<path class="st2" d="M23.366,20.387c-0.034,0.035-0.09,0.036-0.125,0.001l-0.28-0.276c-0.035-0.035-0.035-0.09,0-0.125
				c0.034-0.035,0.09-0.036,0.125-0.001l0.28,0.276C23.401,20.297,23.401,20.352,23.366,20.387z"/>
		</g>
		<g>
			<path class="st2" d="M24.06,20.001c-0.034,0.035-0.09,0.036-0.125,0.001l-0.439-0.433c-0.035-0.035-0.035-0.09,0-0.125
				c0.034-0.035,0.09-0.036,0.125-0.001l0.439,0.433C24.094,19.911,24.094,19.966,24.06,20.001z"/>
		</g>
		<g>
			<path class="st2" d="M24.436,19.303c-0.034,0.035-0.09,0.036-0.125,0.001l-0.28-0.276c-0.035-0.035-0.035-0.09-0.001-0.125
				c0.034-0.035,0.09-0.036,0.125-0.001l0.28,0.276C24.471,19.213,24.47,19.268,24.436,19.303z"/>
		</g>
		<g>
			<path class="st2" d="M25.13,18.917c-0.034,0.035-0.09,0.036-0.125,0.001l-0.439-0.433c-0.035-0.035-0.035-0.09,0-0.125
				c0.034-0.035,0.09-0.036,0.125-0.001l0.439,0.433C25.164,18.827,25.164,18.883,25.13,18.917z"/>
		</g>
		<g>
			<path class="st2" d="M25.506,18.219c-0.034,0.035-0.09,0.036-0.125,0.001l-0.28-0.276c-0.035-0.035-0.035-0.09,0-0.125
				c0.034-0.035,0.09-0.036,0.125-0.001l0.28,0.276C25.541,18.128,25.54,18.184,25.506,18.219z"/>
		</g>
		<g>
			<path class="st2" d="M26.199,17.833c-0.034,0.035-0.09,0.036-0.125,0.001l-0.439-0.433c-0.035-0.035-0.035-0.09-0.001-0.125
				c0.034-0.035,0.09-0.036,0.125-0.001l0.439,0.433C26.234,17.743,26.234,17.799,26.199,17.833z"/>
		</g>
		<g>
			<path class="st2" d="M26.576,17.135c-0.034,0.035-0.09,0.036-0.125,0.001l-0.28-0.276c-0.035-0.035-0.035-0.09-0.001-0.125
				c0.034-0.035,0.09-0.036,0.125-0.001l0.28,0.276C26.61,17.044,26.61,17.1,26.576,17.135z"/>
		</g>
		<g>
			<path class="st2" d="M27.269,16.749c-0.034,0.035-0.09,0.036-0.125,0.001l-0.439-0.433c-0.035-0.035-0.035-0.09,0-0.125
				c0.034-0.035,0.09-0.036,0.125-0.001l0.439,0.433C27.303,16.659,27.303,16.714,27.269,16.749z"/>
		</g>
		<g>
			<path class="st2" d="M27.645,16.051c-0.034,0.035-0.09,0.036-0.125,0.001l-0.28-0.276c-0.035-0.035-0.035-0.09,0-0.125
				c0.034-0.035,0.09-0.036,0.125-0.001l0.28,0.276C27.68,15.96,27.68,16.016,27.645,16.051z"/>
		</g>
		<g>
			<path class="st2" d="M28.339,15.665c-0.034,0.035-0.09,0.036-0.125,0.001l-0.438-0.433c-0.035-0.035-0.035-0.09-0.001-0.125
				c0.034-0.035,0.09-0.036,0.125-0.001l0.439,0.433C28.373,15.574,28.373,15.63,28.339,15.665z"/>
		</g>
		<g>
			<path class="st2" d="M28.715,14.967c-0.034,0.035-0.09,0.036-0.125,0.001l-0.28-0.276c-0.035-0.035-0.035-0.09,0-0.125
				c0.034-0.035,0.09-0.036,0.125-0.001l0.28,0.276C28.75,14.876,28.749,14.932,28.715,14.967z"/>
		</g>
		<g>
			<path class="st2" d="M29.408,14.581c-0.034,0.035-0.09,0.036-0.125,0.001l-0.439-0.433c-0.035-0.035-0.035-0.09,0-0.125
				c0.034-0.035,0.09-0.036,0.125-0.001l0.439,0.433C29.443,14.49,29.443,14.546,29.408,14.581z"/>
		</g>
	</g>
	
		<ellipse transform="matrix(0.4415 -0.8972 0.8972 0.4415 -6.6646 18.2199)" class="st1" cx="11.304" cy="14.464" rx="5.254" ry="5.254"/>
	<path class="st3" d="M6.808,14.468c0.138,2.499,2.263,4.524,4.746,4.524s4.391-2.025,4.253-4.524
		c-0.138-2.499-2.271-4.532-4.754-4.532C8.569,9.936,6.669,11.969,6.808,14.468z"/>
	<g>
		<path class="st2" d="M9.176,14.464c-0.005,1.177,0.954,2.136,2.132,2.131c1.178,0.005,2.137-0.954,2.132-2.132
			c0.005-1.178-0.954-2.136-2.132-2.131C10.13,12.327,9.171,13.286,9.176,14.464z"/>
		
			<ellipse transform="matrix(0.7071 -0.7071 0.7071 0.7071 -6.5925 11.4496)" class="st3" cx="10.525" cy="13.683" rx="0.636" ry="0.408"/>
	</g>
	<g>
		<path class="st1" d="M14.994,10.758c-3.36-0.173-6.319,0.834-8.875,3.021c0.075-0.548,0.212-1.1,0.473-1.631
			c1.28-2.6,4.429-3.681,7.03-2.402C14.152,10.007,14.597,10.361,14.994,10.758z"/>
	</g>
	<g>
		<path class="st1" d="M8.487,18.865c0.164,0.105,0.318,0.222,0.497,0.31c2.602,1.28,5.756,0.214,7.036-2.388
			c0.089-0.181,0.141-0.37,0.207-0.556C13.845,17.696,11.265,18.575,8.487,18.865z"/>
	</g>
	
		<ellipse transform="matrix(0.8285 -0.56 0.56 0.8285 -4.8342 14.3401)" class="st1" cx="20.992" cy="15.062" rx="3.997" ry="3.997"/>
	<path class="st3" d="M24.413,15.065c-0.105,1.901-1.722,3.441-3.611,3.441c-1.889,0-3.341-1.54-3.235-3.441
		c0.105-1.901,1.728-3.447,3.617-3.447C23.073,11.617,24.518,13.164,24.413,15.065z"/>
	<g>
		<circle class="st2" cx="20.99" cy="15.062" r="1.622"/>
		
			<ellipse transform="matrix(0.7071 -0.7071 0.7071 0.7071 -3.9079 19.5002)" class="st3" cx="21.585" cy="14.467" rx="0.311" ry="0.484"/>
	</g>
	<g>
		<path class="st1" d="M17.826,12.652c2.514-0.48,4.848-0.028,7.002,1.354c-0.113-0.405-0.274-0.807-0.526-1.18
			c-1.235-1.826-3.721-2.314-5.547-1.079C18.382,11.999,18.084,12.312,17.826,12.652z"/>
	</g>
	<g>
		<path class="st1" d="M23.573,18.085c-0.113,0.096-0.216,0.2-0.342,0.285c-1.827,1.235-4.315,0.76-5.55-1.068
			c-0.086-0.127-0.144-0.264-0.214-0.398C19.414,17.762,21.449,18.156,23.573,18.085z"/>
	</g>
	<path class="st2" d="M19.461,6.96c0,0,4.491,0.303,6.968,3.422C26.429,10.382,22.936,3.183,19.461,6.96z"/>
	<path class="st2" d="M11.464,6.96c0,0-4.491,0.303-6.968,3.422C4.497,10.382,7.989,3.183,11.464,6.96z"/>
	<path class="st6" d="M22.247,28.493c-0.541,2.659-2.763,3.622-4.26,2.874c-2.842-1.421-0.784-5.875-1.651-7.553
		c-0.219-0.425-0.817-0.503-0.817-0.503c0-1.679,2.044-2.213,2.758-1.43c0.396,0.476,0.377,0.522,1.035,0.265
		C21.857,21.152,22.849,25.659,22.247,28.493z"/>
</g>
</svg>
