<?xml version="1.0" encoding="utf-8"?>
<!-- Generator: Adobe Illustrator 21.1.0, SVG Export Plug-In . SVG Version: 6.00 Build 0)  -->
<svg version="1.1" id="Layer_1" xmlns="http://www.w3.org/2000/svg" xmlns:xlink="http://www.w3.org/1999/xlink" x="0px" y="0px"
	 viewBox="0 0 32 32" style="enable-background:new 0 0 32 32;" xml:space="preserve">
<style type="text/css">
	.st0{fill:#FFD93B;}
	.st1{fill:#3E4347;}
	.st2{fill:#F4C534;}
	.st3{fill:#38C0DC;}
	.st4{fill:#45CBEA;}
	.st5{fill:#FFFFFF;}
	.st6{fill:#E24B4B;}
	.st7{fill:#5A5F63;}
	.st8{opacity:0.3;}
	.st9{opacity:0.2;}
	.st10{opacity:0.1;}
	.st11{fill:#E9B02C;}
	.st12{fill:#65B1EF;}
	.st13{fill:#E9EFF4;}
	.st14{fill:#8CC63E;}
	.st15{fill:#7FB239;}
	.st16{fill:#D03F3F;}
	.st17{fill:#D23F77;}
	.st18{fill:#E84D88;}
	.st19{fill:#59A5E0;}
	.st20{fill:#DEE4E9;}
	.st21{fill:#D3D9DD;}
	.st22{opacity:0.25;fill:#FFFFFF;}
	.st23{fill:#9A795F;}
	.st24{fill:#F29A2E;}
	.st25{fill:#FC97B2;}
	.st26{fill:#89664C;}
	.st27{fill:#7A5B44;}
	.st28{opacity:0.2;fill:#FFFFFF;}
	.st29{fill:#4E99D2;}
	.st30{fill:#BBC7D1;}
	.st31{fill:#DE9C25;}
</style>
<g>
	<circle class="st0" cx="16" cy="16" r="16"/>
	<path class="st2" d="M32,16c0,8.84-7.165,16-16,16c-5.03,0-9.52-2.32-12.455-5.955c2.745,2.22,6.24,3.545,10.045,3.545
		c8.835,0,16-7.16,16-16c0-3.805-1.325-7.3-3.545-10.045C29.675,6.48,32,10.97,32,16z"/>
	<path class="st5" d="M14.382,12.968c-0.498,3.766-2.45,5.46-5.46,5.46s-5.46-2.45-5.46-5.46c0-3.02,5.797-8.151,8.807-8.151
		S14.778,9.974,14.382,12.968z"/>
	<path class="st1" d="M11.706,13.311c0.009,1.24-1.002,2.251-2.242,2.242c-1.24,0.009-2.251-1.002-2.242-2.242
		c-0.008-1.24,1.002-2.251,2.242-2.242C10.704,11.06,11.715,12.071,11.706,13.311z"/>
	
		<ellipse transform="matrix(0.7071 -0.7071 0.7071 0.7071 -5.7874 10.9441)" class="st5" cx="10.317" cy="12.458" rx="0.412" ry="0.698"/>
	<path class="st12" d="M13.203,17.648c-0.229,0.424-2.145,1.318-2.69,1.3c-1.476-0.042-1.212-0.835-2.29,2.94
		c-0.23,0.76-0.45,1.59-0.21,2.35c0.05,0.18,0.13,0.35,0.14,0.53c0.028,0.496-0.527,0.628-0.72,0.17c-0.07-0.18-0.06-0.38-0.04-0.58
		c0.11-1.12,0.21-2.24,0.31-3.36c0.04-0.37,0.06-0.78-0.17-1.07c-0.021,0.21-0.056,1.143-0.24,1.21
		c-0.194,0.075-0.406-0.137-0.18-0.59c-0.17,0.03-0.32-0.16-0.33-0.33c-0.04-0.356,0.29-0.725,0.05-1.03
		c-0.393,0.254-0.871,1.381-0.58,2.56c0.317,1.162-0.703,1.586-0.76,0.79c0.23-1.58,0.7-3.101-0.09-5.13
		c-0.127-0.326-0.5-0.46-0.5-0.74c0.24-0.34,0.75-0.53,1.69-0.03c1.601,0.828,1.756,0.121,3,0.05c0.83-0.06,1.66,0.37,2.45,0.17
		c0.457-0.133,1.035-0.414,1.25,0.07l0.01,0.01v0.01C13.375,17.021,13.274,17.531,13.203,17.648z"/>
	<path class="st5" d="M16.762,12.968c0.498,3.766,2.45,5.46,5.46,5.46s5.46-2.45,5.46-5.46c0-3.02-5.797-8.151-8.807-8.151
		S16.367,9.974,16.762,12.968z"/>
	<path class="st1" d="M19.438,13.311c-0.009,1.24,1.002,2.251,2.242,2.242c1.24,0.009,2.251-1.002,2.242-2.242
		c0.008-1.24-1.002-2.251-2.242-2.242C20.441,11.06,19.43,12.071,19.438,13.311z"/>
	
		<ellipse transform="matrix(0.7071 -0.7071 0.7071 0.7071 -2.7089 18.3761)" class="st5" cx="20.828" cy="12.458" rx="0.698" ry="0.412"/>
	<path class="st12" d="M26.205,16.88c-0.436,0.852-0.799,1.739-0.837,2.695c-0.05,1.268-0.004,2.761,0.085,3.694
		c0.135,1.348-0.97,1.219-0.97,0.39c0-0.33,0.17-0.62,0.29-0.92c0.536-1.301,0.081-2.651-0.5-3c-0.36-0.227-1.424-0.365-1.61,0.04
		c-0.092,0.221,0.097,0.574-0.01,0.77c-0.06,0.12-0.288,0.218-0.33,0.09c-0.311-0.956,0.1-1.41-1.96-1.94
		c-0.338-0.087-2.21-0.685-2.42-1.05c-0.07-0.12-0.17-0.63-0.1-0.7v-0.01l0.01-0.01c0.21-0.48,0.79-0.2,1.25-0.07
		c0.79,0.2,1.62-0.23,2.45-0.17c1.24,0.07,1.4,0.78,3-0.05c0.94-0.5,1.45-0.31,1.69,0.03C26.263,16.728,26.245,16.801,26.205,16.88z
		"/>
	<path class="st1" d="M21.65,27.088c-3.77-0.87-7.53-0.87-11.3,0c-0.67,0.15-1.31-0.38-1.21-1.06c0.61-3.87,3.45-6.8,6.86-6.8
		s6.25,2.93,6.86,6.8C22.96,26.708,22.32,27.239,21.65,27.088z"/>
	<path class="st1" d="M21.65,27.088c-3.77-0.87-7.53-0.87-11.3,0c-0.67,0.15-1.31-0.38-1.21-1.06c0.61-3.87,3.45-6.8,6.86-6.8
		s6.25,2.93,6.86,6.8C22.96,26.708,22.32,27.239,21.65,27.088z"/>
	<path class="st6" d="M20.197,26.797c0.042-0.193,0.074-0.389,0.089-0.591l0.004-0.056c0.131-2.318-2.325-3.915-4.465-3.019
		c-0.668,0.28-1.399,0.396-2.138,0.361c-0.796-0.03-1.524,0.434-1.748,1.187c-0.16,0.523-0.22,1.092-0.152,1.697
		c0.015,0.14,0.048,0.275,0.077,0.412C14.643,26.319,17.418,26.321,20.197,26.797z"/>
	<path class="st5" d="M16.027,21.348c2.451,0,4.198,0.469,5.491,1.131c-1.277-1.974-3.271-3.251-5.518-3.251
		s-4.241,1.276-5.518,3.251C11.775,21.818,13.576,21.348,16.027,21.348z"/>
</g>
</svg>
