<?xml version="1.0" encoding="utf-8"?>
<!-- Generator: Adobe Illustrator 21.1.0, SVG Export Plug-In . SVG Version: 6.00 Build 0)  -->
<svg version="1.1" id="Layer_1" xmlns="http://www.w3.org/2000/svg" xmlns:xlink="http://www.w3.org/1999/xlink" x="0px" y="0px"
	 viewBox="0 0 32 32" style="enable-background:new 0 0 32 32;" xml:space="preserve">
<style type="text/css">
	.st0{fill:#FFD93B;}
	.st1{fill:#F4C534;}
	.st2{fill:#3E4347;}
	.st3{fill:#FFFFFF;}
	.st4{fill:#5A5F63;}
	.st5{fill:#32373A;}
	.st6{fill:#E24B4B;}
	.st7{fill:#D03F3F;}
	.st8{opacity:0.2;}
	.st9{opacity:0.3;}
	.st10{fill:#AD2727;}
	.st11{fill:#E9EFF4;}
	.st12{fill:#DEE4E9;}
	.st13{fill:#65B1EF;}
	.st14{fill:#4E99D2;}
	.st15{opacity:0.25;}
	.st16{fill:#719D34;}
	.st17{fill:#38C0DC;}
	.st18{fill:#303538;}
	.st19{fill:#777B7E;}
	.st20{opacity:0.2;fill:#FFFFFF;}
	.st21{fill:#DE9C25;}
	.st22{fill:#45CBEA;}
	.st23{fill:#7A5B44;}
	.st24{fill:#8CC63E;}
</style>
<g>
	<circle class="st0" cx="16" cy="16" r="16"/>
	<path class="st1" d="M31.924,16c0,8.84-7.165,16-16,16c-5.03,0-9.52-2.32-12.455-5.955c2.745,2.22,6.24,3.545,10.045,3.545
		c8.835,0,16-7.16,16-16c0-3.805-1.325-7.3-3.545-10.045C29.599,6.48,31.924,10.97,31.924,16z"/>
	<g>
		<path class="st1" d="M15.384,16.605c0,2.799-2.266,5.074-5.064,5.074c-2.808,0-5.073-2.275-5.073-5.074
			c0-2.808,2.265-5.074,5.073-5.074C13.119,11.531,15.384,13.797,15.384,16.605z"/>
	</g>
	<ellipse class="st3" cx="10.318" cy="16.605" rx="4.126" ry="4.13"/>
	<path class="st2" d="M8.352,16.604c0,1.085,0.87,1.966,1.955,1.966c1.096,0,1.965-0.88,1.965-1.966c0-1.085-0.87-1.966-1.965-1.966
		C9.222,14.638,8.352,15.519,8.352,16.604z"/>
	<path class="st3" d="M9.219,16.326c0.146,0.146,0.437,0.079,0.661-0.146c0.224-0.224,0.291-0.526,0.146-0.661
		c-0.134-0.145-0.426-0.078-0.65,0.146C9.151,15.89,9.084,16.181,9.219,16.326z"/>
	<path class="st2" d="M6.066,10.558c-0.111-0.244,8.277,0.188,7.808-3.815L6.066,10.558z"/>
	<g>
		<path class="st1" d="M16.616,16.605c0,2.799,2.265,5.074,5.064,5.074c2.808,0,5.074-2.275,5.074-5.074
			c0-2.808-2.266-5.074-5.074-5.074C18.881,11.531,16.616,13.797,16.616,16.605z"/>
	</g>
	<ellipse class="st3" cx="21.682" cy="16.605" rx="4.126" ry="4.13"/>
	<path class="st2" d="M19.728,16.604c0,1.085,0.87,1.966,1.955,1.966c1.096,0,1.966-0.88,1.966-1.966
		c0-1.085-0.87-1.966-1.966-1.966C20.598,14.638,19.728,15.519,19.728,16.604z"/>
	<path class="st3" d="M20.595,16.326c0.146,0.146,0.437,0.079,0.661-0.146c0.224-0.224,0.291-0.526,0.146-0.661
		c-0.134-0.145-0.426-0.078-0.65,0.146C20.527,15.89,20.46,16.181,20.595,16.326z"/>
	<path class="st2" d="M25.934,10.558c0.111-0.244-8.277,0.188-7.808-3.815L25.934,10.558z"/>
	<path class="st2" d="M24.796,23.042c0.845,0.381-2.442,5.063-8.796,5.058c-6.354,0.005-9.641-4.677-8.796-5.058
		c0.658-0.501,4.135,2.42,8.796,2.42C20.67,25.463,24.138,22.545,24.796,23.042z"/>
</g>
</svg>
