<?xml version="1.0" encoding="utf-8"?>
<!-- Generator: Adobe Illustrator 21.1.0, SVG Export Plug-In . SVG Version: 6.00 Build 0)  -->
<svg version="1.1" id="Layer_1" xmlns="http://www.w3.org/2000/svg" xmlns:xlink="http://www.w3.org/1999/xlink" x="0px" y="0px"
	 viewBox="0 0 32 32" style="enable-background:new 0 0 32 32;" xml:space="preserve">
<style type="text/css">
	.st0{fill:#FFD93B;}
	.st1{fill:#F4C534;}
	.st2{fill:#3E4347;}
	.st3{fill:#FFFFFF;}
	.st4{fill:#5A5F63;}
	.st5{fill:#32373A;}
	.st6{fill:#E24B4B;}
	.st7{fill:#D03F3F;}
	.st8{opacity:0.2;}
	.st9{opacity:0.3;}
	.st10{fill:#AD2727;}
	.st11{fill:#E9EFF4;}
	.st12{fill:#DEE4E9;}
	.st13{fill:#65B1EF;}
	.st14{fill:#4E99D2;}
	.st15{opacity:0.25;}
	.st16{fill:#719D34;}
	.st17{fill:#38C0DC;}
	.st18{fill:#303538;}
	.st19{fill:#777B7E;}
	.st20{opacity:0.2;fill:#FFFFFF;}
	.st21{fill:#DE9C25;}
	.st22{fill:#45CBEA;}
	.st23{fill:#7A5B44;}
	.st24{fill:#8CC63E;}
</style>
<g>
	<path class="st1" d="M11.418,5.069C9.017,2.024,5.012-1.071,2.823,0.36C0.947,1.587,2.172,7.951,4.282,11.333
		C5.833,8.493,8.386,6.242,11.418,5.069z"/>
	<path class="st1" d="M27.814,11.172c2.05-3.419,3.21-9.604,1.363-10.812c-2.175-1.422-6.146,1.626-8.552,4.652
		C23.669,6.146,26.235,8.358,27.814,11.172z"/>
	<circle class="st0" cx="16" cy="17.204" r="14.796"/>
	<path class="st1" d="M30.796,17.204C30.796,25.379,24.17,32,16,32c-4.651,0-8.804-2.146-11.518-5.507
		c2.538,2.053,5.77,3.278,9.289,3.278c8.17,0,14.796-6.621,14.796-14.796c0-3.519-1.225-6.751-3.278-9.289
		C28.646,8.4,30.796,12.552,30.796,17.204z"/>
	<path class="st2" d="M21.343,24.083c-0.288-0.105-0.605,0.049-0.706,0.338c-0.297,0.843-1.091,1.409-1.978,1.409
		c-1.16,0-2.104-0.944-2.104-2.104c0-0.371,0.102-0.725,0.284-1.036h-1.213c-0.114,0.329-0.179,0.676-0.179,1.036
		c0,1.771,1.441,3.212,3.213,3.212c1.356,0,2.571-0.864,3.023-2.149C21.783,24.501,21.632,24.184,21.343,24.083z"/>
	<path class="st2" d="M15.162,22.691c0.181,0.311,0.283,0.664,0.283,1.036c0,1.16-0.943,2.104-2.103,2.104
		c-0.887,0-1.682-0.566-1.979-1.409c-0.102-0.289-0.42-0.443-0.707-0.338c-0.289,0.101-0.44,0.418-0.339,0.707
		c0.452,1.285,1.667,2.149,3.024,2.149c1.771,0,3.212-1.441,3.212-3.212c0-0.359-0.066-0.707-0.179-1.036H15.162z"/>
	<path class="st23" d="M19.184,21.68c-0.335,0.93-1.224,1.727-1.978,2.263c-0.352,0.251-0.771,0.394-1.207,0.394
		c-0.436,0-0.855-0.142-1.215-0.394c-0.746-0.537-1.634-1.333-1.961-2.255c-0.117-0.31,0.034-0.671,0.302-0.78
		c1.945-0.813,3.864-0.805,5.758,0C19.15,21.018,19.293,21.378,19.184,21.68z"/>
	<path class="st1" d="M20.584,22.661c0,0,0.853-0.903,1.969-0.272c0.66,0.481,0.683,1.307,0.439,1.948
		c-0.168-0.566-0.162-1.248-0.694-1.563C21.778,22.471,20.936,22.484,20.584,22.661z"/>
	<path class="st1" d="M11.418,22.661c-0.356-0.178-1.19-0.192-1.714,0.113c-0.522,0.309-0.536,1.031-0.694,1.563
		c-0.26-0.68-0.185-1.493,0.439-1.948C10.566,21.758,11.415,22.663,11.418,22.661z"/>
	<path class="st2" d="M23.914,16.462c-0.01,0.281-0.321,0.442-0.552,0.281c-1.285-0.914-4.387-0.914-5.672,0
		c-0.231,0.16-0.542,0-0.552-0.281c-0.05-2.42,1.476-4.427,3.383-4.427C22.438,12.034,23.964,14.042,23.914,16.462z"/>
	<path class="st2" d="M13.604,17.466c-0.924-0.612-2.128-0.973-3.443-0.973c-1.044,0-2.018,0.231-2.841,0.642
		c-0.361,0.181-0.743-0.18-0.582-0.542c0.642-1.455,2.038-2.47,3.654-2.47c1.777,0,3.273,1.195,3.825,2.861
		C14.347,17.355,13.935,17.677,13.604,17.466z"/>
	<path class="st2" d="M18.369,8.886c0,0,4.79,0.042,6.923,3.712C25.292,12.598,24.957,5.874,18.369,8.886z"/>
	<path class="st2" d="M7.313,12.395c0,0,4.715-0.844,7.489,2.37C14.802,14.765,13.232,8.218,7.313,12.395z"/>
</g>
</svg>
