<?xml version="1.0" encoding="utf-8"?>
<!-- Generator: Adobe Illustrator 21.1.0, SVG Export Plug-In . SVG Version: 6.00 Build 0)  -->
<svg version="1.1" id="Layer_1" xmlns="http://www.w3.org/2000/svg" xmlns:xlink="http://www.w3.org/1999/xlink" x="0px" y="0px"
	 viewBox="0 0 32 32" style="enable-background:new 0 0 32 32;" xml:space="preserve">
<style type="text/css">
	.st0{fill:#FFD93B;}
	.st1{fill:#F4C534;}
	.st2{fill:#3E4347;}
	.st3{fill:#FFFFFF;}
	.st4{fill:#5A5F63;}
	.st5{fill:#32373A;}
	.st6{fill:#E24B4B;}
	.st7{fill:#D03F3F;}
	.st8{opacity:0.2;}
	.st9{opacity:0.3;}
	.st10{fill:#AD2727;}
	.st11{fill:#E9EFF4;}
	.st12{fill:#DEE4E9;}
	.st13{fill:#65B1EF;}
	.st14{fill:#4E99D2;}
	.st15{opacity:0.25;}
	.st16{fill:#719D34;}
	.st17{fill:#38C0DC;}
	.st18{fill:#303538;}
	.st19{fill:#777B7E;}
	.st20{opacity:0.2;fill:#FFFFFF;}
	.st21{fill:#DE9C25;}
	.st22{fill:#45CBEA;}
	.st23{fill:#7A5B44;}
	.st24{fill:#8CC63E;}
</style>
<g>
	<circle class="st0" cx="16" cy="16" r="16"/>
	<path class="st1" d="M32,16c0,8.84-7.165,16-16,16c-5.03,0-9.52-2.32-12.455-5.955c2.745,2.22,6.24,3.545,10.045,3.545
		c8.835,0,16-7.16,16-16c0-3.805-1.325-7.3-3.545-10.045C29.675,6.48,32,10.97,32,16z"/>
	<path class="st1" d="M23.501,7.526c-1.587,1.701-3.561,3.031-5.765,3.836c-0.153,0.504-0.237,1.04-0.237,1.596
		c0,3.01,2.44,5.45,5.45,5.45c3.02,0,5.46-2.44,5.46-5.45C28.408,10.125,26.26,7.802,23.501,7.526z"/>
	<path class="st3" d="M23.527,8.814c-1.265,0.894-2.675,1.58-4.18,2.019c-0.367,0.625-0.592,1.345-0.592,2.126
		c0,2.319,1.874,4.194,4.194,4.194c2.329,0,4.203-1.874,4.203-4.194C27.152,10.828,25.577,9.097,23.527,8.814z"/>
	<path class="st2" d="M25.819,8.479l-8.907,3.446c0.671-0.456,4.812-3.513,7.215-6.01c0.738-0.766,2.068-0.591,2.484,0.376
		c0.04,0.067,0.067,0.134,0.08,0.201C26.987,7.284,26.584,8.157,25.819,8.479z"/>
	<path class="st2" d="M25.104,12.988c0,1.187-0.958,2.155-2.156,2.156c-1.187,0-2.145-0.968-2.145-2.155
		c0-1.197,0.958-2.156,2.145-2.156C24.146,10.833,25.104,11.791,25.104,12.988z"/>
	
		<ellipse transform="matrix(0.7071 -0.7071 0.7071 0.7071 -1.6201 20.3841)" class="st3" cx="23.794" cy="12.148" rx="0.375" ry="0.6"/>
	<path class="st1" d="M8.499,7.526c1.587,1.701,3.561,3.031,5.765,3.836c0.154,0.504,0.237,1.04,0.237,1.596
		c0,3.01-2.44,5.45-5.45,5.45c-3.02,0-5.46-2.44-5.46-5.45C3.592,10.125,5.74,7.802,8.499,7.526z"/>
	<path class="st3" d="M8.473,8.814c1.265,0.894,2.675,1.58,4.18,2.019c0.367,0.625,0.592,1.345,0.592,2.126
		c0,2.319-1.874,4.194-4.194,4.194c-2.329,0-4.203-1.874-4.203-4.194C4.848,10.828,6.423,9.097,8.473,8.814z"/>
	<path class="st2" d="M6.181,8.479l8.907,3.446c-0.671-0.456-4.812-3.513-7.215-6.01C7.134,5.149,5.805,5.324,5.389,6.29
		c-0.04,0.067-0.067,0.134-0.08,0.201C5.013,7.284,5.416,8.157,6.181,8.479z"/>
	<path class="st2" d="M6.897,12.988c0,1.187,0.958,2.155,2.155,2.156c1.187,0,2.145-0.968,2.145-2.155
		c0-1.197-0.958-2.156-2.145-2.156C7.855,10.833,6.897,11.791,6.897,12.988z"/>
	
		<ellipse transform="matrix(0.7071 -0.7071 0.7071 0.7071 -6.1859 9.3598)" class="st3" cx="8.206" cy="12.148" rx="0.6" ry="0.375"/>
	<path class="st2" d="M16.002,28.884c-7.247-0.057-11.608-4.085-10.237-8.857c0.114-0.39,0.533-0.581,0.895-0.4
		c5.876,2.961,12.808,2.961,18.684,0c0.352-0.181,0.781,0.01,0.895,0.4C27.601,24.799,23.249,28.836,16.002,28.884z"/>
	<path class="st6" d="M16.002,28.884c2.906-0.019,5.334-0.688,7.127-1.779c-1.028-2.478-5.259-3.456-7.813-1.407
		c-2.37-1.272-5.433-0.528-6.71,1.238C10.422,28.126,12.952,28.86,16.002,28.884z"/>
	<path class="st3" d="M9.967,20.949l-0.585,2.529c-0.034,0.146,0.026,0.299,0.145,0.385c0.701,0.47,1.496,0.786,2.376,0.94
		c0.171,0.025,0.342-0.078,0.402-0.24l1.044-2.891C12.209,21.525,11.077,21.287,9.967,20.949z"/>
	<path class="st3" d="M14.007,21.745v2.853c0,0.188,0.145,0.351,0.342,0.359c1.351,0.06,2.701-0.026,4.052-0.282
		c0.188-0.034,0.316-0.213,0.291-0.402l-0.361-2.557C16.894,21.878,15.445,21.883,14.007,21.745z"/>
</g>
</svg>
