<?xml version="1.0" encoding="utf-8"?>
<!-- Generator: Adobe Illustrator 21.1.0, SVG Export Plug-In . SVG Version: 6.00 Build 0)  -->
<svg version="1.1" id="Layer_1" xmlns="http://www.w3.org/2000/svg" xmlns:xlink="http://www.w3.org/1999/xlink" x="0px" y="0px"
	 viewBox="0 0 32 32" style="enable-background:new 0 0 32 32;" xml:space="preserve">
<style type="text/css">
	.st0{fill:#FFD93B;}
	.st1{fill:#F4C534;}
	.st2{fill:#3E4347;}
	.st3{fill:#FFFFFF;}
	.st4{fill:#5A5F63;}
	.st5{fill:#32373A;}
	.st6{fill:#E24B4B;}
	.st7{fill:#D03F3F;}
	.st8{opacity:0.2;}
	.st9{opacity:0.3;}
	.st10{fill:#AD2727;}
	.st11{fill:#E9EFF4;}
	.st12{fill:#DEE4E9;}
	.st13{fill:#65B1EF;}
	.st14{fill:#4E99D2;}
	.st15{opacity:0.25;}
	.st16{fill:#719D34;}
	.st17{fill:#38C0DC;}
	.st18{fill:#303538;}
	.st19{fill:#777B7E;}
	.st20{opacity:0.2;fill:#FFFFFF;}
	.st21{fill:#DE9C25;}
	.st22{fill:#45CBEA;}
	.st23{fill:#7A5B44;}
	.st24{fill:#8CC63E;}
</style>
<g>
	<circle class="st0" cx="16" cy="16" r="16"/>
	<path class="st1" d="M32,16c0,8.84-7.165,16-16,16c-5.03,0-9.52-2.32-12.455-5.955c2.745,2.22,6.24,3.545,10.045,3.545
		c8.835,0,16-7.16,16-16c0-3.805-1.325-7.3-3.545-10.045C29.675,6.48,32,10.97,32,16z"/>
	<path class="st1" d="M23.184,10.251c-1.587,1.701-3.561,3.031-5.765,3.836c-0.154,0.504-0.237,1.04-0.237,1.596
		c0,3.01,2.44,5.45,5.45,5.45c3.02,0,5.46-2.44,5.46-5.45C28.091,12.85,25.943,10.528,23.184,10.251z"/>
	<path class="st3" d="M23.21,11.539c-1.265,0.894-2.675,1.58-4.18,2.019c-0.367,0.625-0.592,1.345-0.592,2.126
		c0,2.319,1.874,4.194,4.194,4.194c2.329,0,4.203-1.874,4.203-4.194C26.834,13.554,25.26,11.822,23.21,11.539z"/>
	<path class="st2" d="M26.507,10.677l-9.91,3.972c0.69-0.47,4.99-3.64,7.48-6.231L26.507,10.677z"/>
	<path class="st2" d="M24.786,15.713c0,1.187-0.958,2.155-2.156,2.156c-1.187,0-2.145-0.968-2.145-2.155
		c0-1.198,0.958-2.156,2.145-2.156C23.828,13.558,24.786,14.516,24.786,15.713z"/>
	
		<ellipse transform="matrix(0.7071 -0.7071 0.7071 0.7071 -3.6402 20.958)" class="st3" cx="23.476" cy="14.873" rx="0.375" ry="0.6"/>
	<path class="st1" d="M8.817,10.251c1.588,1.701,3.561,3.031,5.765,3.836c0.154,0.504,0.237,1.04,0.237,1.596
		c0,3.01-2.44,5.45-5.45,5.45c-3.02,0-5.46-2.44-5.46-5.45C3.909,12.85,6.057,10.528,8.817,10.251z"/>
	<path class="st3" d="M8.79,11.539c1.265,0.894,2.675,1.58,4.18,2.019c0.367,0.625,0.592,1.345,0.592,2.126
		c0,2.319-1.874,4.194-4.194,4.194c-2.329,0-4.203-1.874-4.203-4.194C5.166,13.554,6.74,11.822,8.79,11.539z"/>
	<path class="st2" d="M5.494,10.677l9.91,3.972c-0.69-0.47-4.99-3.64-7.48-6.231L5.494,10.677z"/>
	<path class="st2" d="M7.214,15.713c0,1.187,0.958,2.155,2.155,2.156c1.187,0,2.145-0.968,2.145-2.155
		c0-1.198-0.958-2.156-2.145-2.156C8.172,13.558,7.214,14.516,7.214,15.713z"/>
	
		<ellipse transform="matrix(0.7071 -0.7071 0.7071 0.7071 -8.0198 10.3824)" class="st3" cx="8.524" cy="14.873" rx="0.6" ry="0.375"/>
	<path class="st2" d="M18.944,24.794c0,1.63-1.32,2.94-2.94,2.94c-1.63,0-2.94-1.31-2.94-2.94c0-1.62,1.31-2.94,2.94-2.94
		C17.624,21.854,18.944,23.174,18.944,24.794z"/>
</g>
</svg>
