<?xml version="1.0" encoding="utf-8"?>
<!-- Generator: Adobe Illustrator 21.1.0, SVG Export Plug-In . SVG Version: 6.00 Build 0)  -->
<svg version="1.1" id="Layer_1" xmlns="http://www.w3.org/2000/svg" xmlns:xlink="http://www.w3.org/1999/xlink" x="0px" y="0px"
	 viewBox="0 0 32 32" style="enable-background:new 0 0 32 32;" xml:space="preserve">
<style type="text/css">
	.st0{fill:#FFD93B;}
	.st1{fill:#F4C534;}
	.st2{fill:#3E4347;}
	.st3{fill:#FFFFFF;}
	.st4{fill:#5A5F63;}
	.st5{fill:#32373A;}
	.st6{fill:#E24B4B;}
	.st7{fill:#D03F3F;}
	.st8{opacity:0.2;}
	.st9{opacity:0.3;}
	.st10{fill:#AD2727;}
	.st11{fill:#E9EFF4;}
	.st12{fill:#DEE4E9;}
	.st13{fill:#65B1EF;}
	.st14{fill:#4E99D2;}
	.st15{opacity:0.25;}
	.st16{fill:#719D34;}
	.st17{fill:#38C0DC;}
	.st18{fill:#303538;}
	.st19{fill:#777B7E;}
	.st20{opacity:0.2;fill:#FFFFFF;}
	.st21{fill:#DE9C25;}
	.st22{fill:#45CBEA;}
	.st23{fill:#7A5B44;}
	.st24{fill:#8CC63E;}
</style>
<g>
	<circle class="st0" cx="16" cy="16" r="16"/>
	<path class="st1" d="M32,16c0,8.84-7.165,16-16,16c-5.03,0-9.52-2.32-12.455-5.955c2.745,2.22,6.24,3.545,10.045,3.545
		c8.835,0,16-7.16,16-16c0-3.805-1.325-7.3-3.545-10.045C29.675,6.48,32,10.97,32,16z"/>
	<path class="st2" d="M18.944,24.794c0,1.63-1.32,2.94-2.94,2.94c-1.63,0-2.94-1.31-2.94-2.94c0-1.62,1.31-2.94,2.94-2.94
		C17.624,21.854,18.944,23.174,18.944,24.794z"/>
	<g>
		<g>
			<path class="st2" d="M12.734,13.66l-1.35,1.35l1.35,1.35c0.43,0.43,0.43,1.15,0,1.58l-0.01,0.01c-0.43,0.43-1.15,0.43-1.58,0
				l-1.35-1.35l-1.35,1.35c-0.43,0.43-1.15,0.43-1.58,0l-0.01-0.01c-0.43-0.43-0.43-1.15,0-1.58l1.35-1.35l-1.35-1.35
				c-0.43-0.43-0.43-1.15,0-1.59c0.438-0.437,1.192-0.416,1.59,0l1.35,1.35l1.35-1.35c0.43-0.43,1.15-0.43,1.58,0h0.01
				C13.164,12.51,13.164,13.23,12.734,13.66z"/>
			<path class="st2" d="M25.146,17.94v0.01c-0.44,0.43-1.16,0.43-1.59,0l-1.35-1.35l-1.34,1.35c-0.44,0.43-1.16,0.43-1.59,0v-0.01
				c-0.44-0.43-0.44-1.15,0-1.58l1.34-1.35l-1.34-1.35c-0.44-0.43-0.44-1.15,0-1.59c0.442-0.442,1.176-0.413,1.59,0l1.34,1.35
				l1.35-1.35c0.43-0.43,1.15-0.43,1.59,0c0.429,0.45,0.425,1.165,0,1.59l-1.35,1.35l1.35,1.35
				C25.576,16.79,25.576,17.51,25.146,17.94z"/>
		</g>
	</g>
</g>
</svg>
