<?xml version="1.0" encoding="utf-8"?>
<!-- Generator: Adobe Illustrator 21.1.0, SVG Export Plug-In . SVG Version: 6.00 Build 0)  -->
<svg version="1.1" id="Layer_1" xmlns="http://www.w3.org/2000/svg" xmlns:xlink="http://www.w3.org/1999/xlink" x="0px" y="0px"
	 viewBox="0 0 32 32" style="enable-background:new 0 0 32 32;" xml:space="preserve">
<style type="text/css">
	.st0{fill:#FFD93B;}
	.st1{fill:#F4C534;}
	.st2{fill:#3E4347;}
	.st3{fill:#FFFFFF;}
	.st4{fill:#5A5F63;}
	.st5{fill:#32373A;}
	.st6{fill:#E24B4B;}
	.st7{fill:#D03F3F;}
	.st8{opacity:0.2;}
	.st9{opacity:0.3;}
	.st10{fill:#AD2727;}
	.st11{fill:#E9EFF4;}
	.st12{fill:#DEE4E9;}
	.st13{fill:#65B1EF;}
	.st14{fill:#4E99D2;}
	.st15{opacity:0.25;}
	.st16{fill:#719D34;}
	.st17{fill:#38C0DC;}
	.st18{fill:#303538;}
	.st19{fill:#777B7E;}
	.st20{opacity:0.2;fill:#FFFFFF;}
	.st21{fill:#DE9C25;}
	.st22{fill:#45CBEA;}
	.st23{fill:#7A5B44;}
	.st24{fill:#8CC63E;}
</style>
<g>
	<circle class="st0" cx="16" cy="15.417" r="15.417"/>
	<path class="st1" d="M31.417,15.417c0,8.518-6.904,15.417-15.417,15.417c-4.847,0-9.173-2.236-12.001-5.738
		c2.645,2.139,6.013,3.416,9.679,3.416c8.513,0,15.417-6.899,15.417-15.417c0-3.666-1.277-7.034-3.416-9.679
		C29.177,6.244,31.417,10.57,31.417,15.417z"/>
	<path class="st3" d="M14.67,12.685c0,2.833-2.291,5.134-5.134,5.134c-2.833,0-5.134-2.301-5.134-5.134
		c0-2.842,2.301-5.143,5.134-5.143C12.379,7.542,14.67,9.842,14.67,12.685z"/>
	<path class="st3" d="M27.601,12.685c0,2.833-2.291,5.134-5.133,5.134c-2.833,0-5.134-2.301-5.134-5.134
		c0-2.842,2.301-5.143,5.134-5.143C25.31,7.542,27.601,9.842,27.601,12.685z"/>
	<path class="st2" d="M30.345,11.904h-2.073c-0.382-2.867-2.839-5.087-5.805-5.087c-2.195,0-4.11,1.217-5.112,3.011
		c-0.272,0.487-0.786,0.771-1.344,0.767c-0.003,0-0.007,0-0.01,0c-0.005,0-0.01,0-0.015,0c-0.555,0.004-1.068-0.281-1.338-0.766
		c-1.002-1.796-2.916-3.013-5.112-3.013c-2.966,0-5.417,2.22-5.8,5.087H1.655v1.552h2.099c0.36,2.678,2.537,4.833,5.277,5.065
		c3.469,0.294,6.432-2.472,6.357-5.96c0.059-0.292,0.305-0.515,0.613-0.515c0.314,0,0.607,0.227,0.607,0.639
		c0,3.381,2.881,6.104,6.319,5.84c2.751-0.211,4.968-2.362,5.327-5.069h2.091V11.904z M9.537,17.093
		c-2.431,0-4.409-1.978-4.409-4.408c0-2.436,1.978-4.418,4.409-4.418c2.431,0,4.408,1.982,4.408,4.418
		C13.945,15.115,11.968,17.093,9.537,17.093z M22.468,17.093c-2.431,0-4.409-1.978-4.409-4.408c0-2.436,1.978-4.418,4.409-4.418
		c2.431,0,4.408,1.982,4.408,4.418C26.876,15.115,24.898,17.093,22.468,17.093z"/>
	<path class="st2" d="M23.137,11.855c0,1.079-0.869,1.968-1.961,1.968c-1.079,0-1.961-0.889-1.961-1.968
		c0-1.086,0.882-1.975,1.961-1.975C22.268,9.88,23.137,10.769,23.137,11.855z"/>
	
		<ellipse transform="matrix(0.7071 -0.7071 0.7071 0.7071 -1.4961 18.7267)" class="st3" cx="21.857" cy="11.169" rx="0.447" ry="0.647"/>
	<path class="st2" d="M12.789,11.855c0,1.079-0.869,1.968-1.961,1.968c-1.079,0-1.961-0.889-1.961-1.968
		c0-1.086,0.882-1.975,1.961-1.975C11.92,9.88,12.789,10.769,12.789,11.855z"/>
	
		<ellipse transform="matrix(0.7071 -0.7071 0.7071 0.7071 -4.527 11.4094)" class="st3" cx="11.509" cy="11.169" rx="0.447" ry="0.647"/>
	<path class="st2" d="M29.249,5.855c-0.418,0.252-0.894,0.112-1.11-0.238c-3.338-5.107-8.574-2.586-8.794-2.476
		c-0.403,0.202-0.88,0.037-1.082-0.357c-0.192-0.403-0.037-0.881,0.367-1.082c0.064-0.028,6.749-3.255,10.848,3.035
		C29.725,5.112,29.615,5.607,29.249,5.855z"/>
	<path class="st2" d="M2.752,5.855C3.17,6.106,3.645,5.967,3.861,5.616c3.338-5.107,8.574-2.586,8.794-2.476
		c0.403,0.202,0.88,0.037,1.082-0.357c0.193-0.403,0.037-0.881-0.367-1.082C13.306,1.673,6.621-1.554,2.522,4.736
		C2.275,5.112,2.385,5.607,2.752,5.855z"/>
	<ellipse class="st0" cx="16" cy="25.15" rx="5.577" ry="6.848"/>
	<ellipse class="st2" cx="16" cy="25.15" rx="4.352" ry="5.48"/>
</g>
</svg>
