<?xml version="1.0" encoding="utf-8"?>
<!-- Generator: Adobe Illustrator 21.1.0, SVG Export Plug-In . SVG Version: 6.00 Build 0)  -->
<svg version="1.1" id="Layer_1" xmlns="http://www.w3.org/2000/svg" xmlns:xlink="http://www.w3.org/1999/xlink" x="0px" y="0px"
	 viewBox="0 0 32 32" style="enable-background:new 0 0 32 32;" xml:space="preserve">
<style type="text/css">
	.st0{fill:#FFD93B;}
	.st1{fill:#F4C534;}
	.st2{fill:#3E4347;}
	.st3{fill:#FFFFFF;}
	.st4{fill:#5A5F63;}
	.st5{fill:#32373A;}
	.st6{fill:#E24B4B;}
	.st7{fill:#D03F3F;}
	.st8{opacity:0.2;}
	.st9{opacity:0.3;}
	.st10{fill:#AD2727;}
	.st11{fill:#E9EFF4;}
	.st12{fill:#DEE4E9;}
	.st13{fill:#65B1EF;}
	.st14{fill:#4E99D2;}
	.st15{opacity:0.25;}
	.st16{fill:#719D34;}
	.st17{fill:#38C0DC;}
	.st18{fill:#303538;}
	.st19{fill:#777B7E;}
	.st20{opacity:0.2;fill:#FFFFFF;}
	.st21{fill:#DE9C25;}
	.st22{fill:#45CBEA;}
	.st23{fill:#7A5B44;}
	.st24{fill:#8CC63E;}
</style>
<g>
	<g>
		<circle class="st0" cx="16" cy="16" r="16"/>
		<path class="st1" d="M32,16c0,8.84-7.165,16-16,16c-5.03,0-9.52-2.32-12.455-5.955c2.745,2.22,6.24,3.545,10.045,3.545
			c8.835,0,16-7.16,16-16c0-3.805-1.325-7.3-3.545-10.045C29.675,6.48,32,10.97,32,16z"/>
		<path class="st2" d="M25.374,20.89c-0.143,1-1.711,5.295-6.75,7.03c-3.593,1.179-7.095,0.473-9.62-1.55
			c1,0.139,4.606,1.755,9.14,0.13C21.133,25.56,23.872,23.146,25.374,20.89z"/>
		<path class="st1" d="M14.57,12.991c0,2.64-2.14,4.78-4.78,4.78c-2.65,0-4.79-2.14-4.79-4.78c0-2.64,2.14-4.79,4.79-4.79
			C12.43,8.201,14.57,10.351,14.57,12.991z"/>
		<circle class="st3" cx="9.787" cy="12.988" r="3.696"/>
		<path class="st2" d="M11.69,12.991c0,1.06-0.85,1.9-1.9,1.9c-1.06,0-1.91-0.84-1.91-1.9c0-1.05,0.85-1.91,1.91-1.91
			C10.84,11.08,11.69,11.94,11.69,12.991z"/>
		<path class="st3" d="M10.93,12.61c-0.13,0.13-0.41,0.07-0.62-0.14c-0.22-0.22-0.29-0.5-0.16-0.63c0.13-0.13,0.41-0.07,0.63,0.15
			C10.99,12.21,11.06,12.48,10.93,12.61z"/>
		<path class="st2" d="M23.235,14.591c-1.421-0.761-3.967-0.749-5.556-0.622c-0.441,0.042-0.671-0.498-0.353-0.816
			c2.483-2.115,5.95-2.677,8.723-1.937c-1.254,0.121-3.888,0.076-6.944,1.876C20.507,13.161,22.236,13.591,23.235,14.591z"/>
		<path class="st2" d="M27,11.911c-0.256,0.073-4.417,0.716-5.738,0.804C22.676,12.03,25.517,11.509,27,11.911z"/>
	</g>
</g>
</svg>
