<?xml version="1.0" encoding="utf-8"?>
<!-- Generator: Adobe Illustrator 21.1.0, SVG Export Plug-In . SVG Version: 6.00 Build 0)  -->
<svg version="1.1" id="Layer_1" xmlns="http://www.w3.org/2000/svg" xmlns:xlink="http://www.w3.org/1999/xlink" x="0px" y="0px"
	 viewBox="0 0 32 32" style="enable-background:new 0 0 32 32;" xml:space="preserve">
<style type="text/css">
	.st0{fill:#FFD93B;}
	.st1{fill:#F4C534;}
	.st2{fill:#3E4347;}
	.st3{fill:#FFFFFF;}
	.st4{fill:#5A5F63;}
	.st5{fill:#32373A;}
	.st6{fill:#E24B4B;}
	.st7{fill:#D03F3F;}
	.st8{opacity:0.2;}
	.st9{opacity:0.3;}
	.st10{fill:#AD2727;}
	.st11{fill:#E9EFF4;}
	.st12{fill:#DEE4E9;}
	.st13{fill:#65B1EF;}
	.st14{fill:#4E99D2;}
	.st15{opacity:0.25;}
	.st16{fill:#719D34;}
	.st17{fill:#38C0DC;}
	.st18{fill:#303538;}
	.st19{fill:#777B7E;}
	.st20{opacity:0.2;fill:#FFFFFF;}
	.st21{fill:#DE9C25;}
	.st22{fill:#45CBEA;}
	.st23{fill:#7A5B44;}
	.st24{fill:#8CC63E;}
</style>
<g>
	<circle class="st0" cx="16" cy="16" r="16"/>
	<path class="st1" d="M32,16c0,8.84-7.165,16-16,16c-5.03,0-9.52-2.32-12.455-5.955c2.745,2.22,6.24,3.545,10.045,3.545
		c8.835,0,16-7.16,16-16c0-3.805-1.325-7.3-3.545-10.045C29.675,6.48,32,10.97,32,16z"/>
	<path class="st3" d="M14.78,12.92c0,2.6-2.103,4.711-4.711,4.711c-2.6,0-4.711-2.112-4.711-4.711c0-2.608,2.112-4.72,4.711-4.72
		C12.677,8.2,14.78,10.312,14.78,12.92z"/>
	<circle class="st2" cx="10.069" cy="12.916" r="2.146"/>
	<path class="st3" d="M17.224,12.911c0-2.6,2.103-4.711,4.711-4.711c2.6,0,4.711,2.111,4.711,4.711c0,2.608-2.112,4.72-4.711,4.72
		C19.327,17.631,17.224,15.52,17.224,12.911z"/>
	<path class="st2" d="M24.247,12.554c0.048,0.352-0.199,0.675-0.551,0.722c-0.253,0.082-0.663-0.142-0.722-0.542
		c-0.066-0.522-0.522-0.912-1.035-0.912c-0.532,0-0.969,0.38-1.045,0.912c-0.047,0.351-0.37,0.599-0.722,0.542
		c-0.351-0.047-0.598-0.37-0.551-0.722c0.161-1.149,1.159-2.013,2.317-2.013C23.088,10.542,24.085,11.406,24.247,12.554z"/>
	<path class="st2" d="M29.607,12.203h-2.345c-0.351-2.631-2.605-4.668-5.327-4.668c-2.015,0-3.772,1.117-4.691,2.764
		c-0.25,0.447-0.721,0.708-1.233,0.704c-0.003,0-0.006,0-0.009,0c-0.005,0-0.009,0-0.013,0c-0.51,0.004-0.98-0.258-1.228-0.703
		c-0.92-1.648-2.676-2.766-4.691-2.766c-2.722,0-4.971,2.037-5.323,4.668H2.393v1.424h2.369c0.331,2.458,2.328,4.436,4.843,4.648
		c3.183,0.27,5.902-2.269,5.834-5.469c0.054-0.267,0.28-0.473,0.562-0.473c0.288,0,0.557,0.208,0.557,0.586
		c0,3.103,2.644,5.602,5.799,5.36c2.524-0.194,4.56-2.168,4.889-4.652h2.361V12.203z M10.069,16.965
		c-2.231,0-4.046-1.815-4.046-4.045c0-2.236,1.815-4.054,4.046-4.054c2.231,0,4.045,1.819,4.045,4.054
		C14.114,15.15,12.299,16.965,10.069,16.965z M21.935,16.965c-2.231,0-4.046-1.815-4.046-4.045c0-2.236,1.815-4.054,4.046-4.054
		c2.231,0,4.045,1.819,4.045,4.054C25.981,15.15,24.166,16.965,21.935,16.965z"/>
	
		<ellipse transform="matrix(0.7071 -0.7071 0.7071 0.7071 -5.3724 11.2367)" class="st3" cx="10.878" cy="12.103" rx="0.384" ry="0.594"/>
	<path class="st2" d="M25.396,4.793c-0.01,0.313-0.275,0.57-0.589,0.57c-0.01,0-0.019,0-0.019,0
		c-4.074-0.123-5.878,1.605-5.897,1.624c-0.248,0.248-0.621,0.233-0.836,0c-0.228-0.228-0.237-0.598-0.01-0.826
		c0.086-0.095,2.118-2.118,6.78-1.985C25.149,4.185,25.405,4.46,25.396,4.793z"/>
	<path class="st2" d="M7.046,4.514C7.161,4.806,7.499,4.957,7.793,4.85c0.009-0.003,0.018-0.007,0.018-0.007
		c3.79-1.5,6.074-0.488,6.098-0.477c0.318,0.149,0.663,0.008,0.786-0.284c0.137-0.292,0.02-0.643-0.272-0.78
		c-0.113-0.06-2.711-1.272-7.051,0.438C7.072,3.859,6.924,4.205,7.046,4.514z"/>
	<path class="st2" d="M24.834,19.75c-0.5,2.71-1.55,4.83-3.95,6.46c-0.84,0.56-1.77,0.98-2.75,1.24c-2.83,0.72-5.28,0.14-7.42-1.35
		c2.92,0.63,4.5,1.05,7.14,0.19c0.87-0.28,1.71-0.68,2.47-1.18C23.154,23.261,24.174,20.88,24.834,19.75z"/>
</g>
</svg>
