<?xml version="1.0" encoding="utf-8"?>
<!-- Generator: Adobe Illustrator 21.1.0, SVG Export Plug-In . SVG Version: 6.00 Build 0)  -->
<svg version="1.1" id="Layer_1" xmlns="http://www.w3.org/2000/svg" xmlns:xlink="http://www.w3.org/1999/xlink" x="0px" y="0px"
	 viewBox="0 0 32 32" style="enable-background:new 0 0 32 32;" xml:space="preserve">
<style type="text/css">
	.st0{fill:#FFD93B;}
	.st1{fill:#F4C534;}
	.st2{fill:#3E4347;}
	.st3{fill:#FFFFFF;}
	.st4{fill:#5A5F63;}
	.st5{fill:#32373A;}
	.st6{fill:#E24B4B;}
	.st7{fill:#D03F3F;}
	.st8{opacity:0.2;}
	.st9{opacity:0.3;}
	.st10{fill:#AD2727;}
	.st11{fill:#E9EFF4;}
	.st12{fill:#DEE4E9;}
	.st13{fill:#65B1EF;}
	.st14{fill:#4E99D2;}
	.st15{opacity:0.25;}
	.st16{fill:#719D34;}
	.st17{fill:#38C0DC;}
	.st18{fill:#303538;}
	.st19{fill:#777B7E;}
	.st20{opacity:0.2;fill:#FFFFFF;}
	.st21{fill:#DE9C25;}
	.st22{fill:#45CBEA;}
	.st23{fill:#7A5B44;}
	.st24{fill:#8CC63E;}
</style>
<g>
	<g>
		<g>
			<g>
				<g>
					<g>
						<g>
							<g>
								<g>
									<g>
										<g>
											<g>
												<g>
													<g>
														<g>
															<g>
																<g>
																	<g>
																		<g>
																			<g>
																				<g>
																					<g>
																						<g>
																							<g>
																								<g>
																									<g>
																										<g>
																											<g>
																												<circle class="st0" cx="16" cy="16" r="16"/>
																											</g>
																										</g>
																									</g>
																								</g>
																							</g>
																						</g>
																						<g>
																							<g>
																								<g>
																									<g>
																										<g>
																											<g>
																												<path class="st1" d="M32,16c0,8.84-7.165,16-16,16c-5.03,0-9.52-2.32-12.455-5.955
																													c2.745,2.22,6.24,3.545,10.045,3.545c8.835,0,16-7.16,16-16c0-3.805-1.325-7.3-3.545-10.045
																													C29.675,6.48,32,10.97,32,16z"/>
																											</g>
																										</g>
																									</g>
																								</g>
																							</g>
																						</g>
																					</g>
																				</g>
																			</g>
																		</g>
																	</g>
																</g>
															</g>
														</g>
													</g>
												</g>
											</g>
										</g>
									</g>
								</g>
							</g>
						</g>
					</g>
				</g>
			</g>
		</g>
	</g>
	<g>
		<g>
			<path class="st2" d="M21.036,25.26c0.78,0.202,1.552-0.385,1.521-1.19c-0.132-3.432-2.963-6.297-6.557-6.297
				c-3.601,0-6.431,2.873-6.557,6.308c-0.029,0.801,0.736,1.39,1.512,1.191C14.401,24.392,17.759,24.41,21.036,25.26z"/>
		</g>
		<path class="st6" d="M19.68,24.96c0.036-0.166,0.058-0.337,0.058-0.515c0-1.339-1.084-2.423-2.418-2.423
			c-0.662,0-1.256,0.26-1.687,0.686c-0.294-0.123-0.613-0.191-0.952-0.191c-1.334,0-2.418,1.084-2.418,2.418
			c0,0.015,0.004,0.029,0.005,0.044C14.784,24.501,17.254,24.504,19.68,24.96z"/>
	</g>
	<g>
		<path class="st13" d="M28.121,21.875c0-1.14-2.064-4.644-2.064-4.644s-2.064,3.504-2.064,4.644s0.924,2.064,2.064,2.064
			S28.121,23.015,28.121,21.875z"/>
	</g>
	<g>
		<g>
			<g>
				<g>
					<path class="st2" d="M26.277,16.957l-1.787-1.949c-2.055-2.234-5.751-2.299-5.792-2.299l-1.015-0.008l0.747-0.691
						c0.95-0.893,1.958-1.243,2.973-1.04c2.25,0.439,3.696,3.46,3.753,3.59L26.277,16.957z"/>
				</g>
			</g>
			<g>
				<path class="st2" d="M17.252,2.943c4.098,4.609,5.349,4.837,6.76,6.1c-1.364-0.002-3.114-0.619-4.47-1.843
					C17.869,5.624,17.237,3.967,17.252,2.943z"/>
			</g>
		</g>
		<g>
			<g>
				<g>
					<path class="st2" d="M5.617,16.957l1.787-1.949c2.055-2.234,5.751-2.299,5.792-2.299l1.015-0.008l-0.747-0.691
						c-0.95-0.893-1.958-1.243-2.973-1.04c-2.25,0.439-3.696,3.46-3.753,3.59L5.617,16.957z"/>
				</g>
			</g>
			<g>
				<path class="st2" d="M14.642,2.943c-4.098,4.609-5.349,4.837-6.76,6.1c1.364-0.002,3.114-0.619,4.47-1.843
					C14.026,5.624,14.657,3.967,14.642,2.943z"/>
			</g>
		</g>
	</g>
	<g class="st8">
		<path class="st3" d="M27.171,22.796c-0.289,0.344-0.71,0.485-0.918,0.296c-0.218-0.179-0.15-0.609,0.148-0.954
			c0.29-0.353,0.701-0.485,0.918-0.296C27.537,22.022,27.469,22.452,27.171,22.796z"/>
	</g>
</g>
</svg>
