<?xml version="1.0" encoding="utf-8"?>
<!-- Generator: Adobe Illustrator 21.1.0, SVG Export Plug-In . SVG Version: 6.00 Build 0)  -->
<svg version="1.1" id="Layer_1" xmlns="http://www.w3.org/2000/svg" xmlns:xlink="http://www.w3.org/1999/xlink" x="0px" y="0px"
	 viewBox="0 0 32 32" style="enable-background:new 0 0 32 32;" xml:space="preserve">
<style type="text/css">
	.st0{fill:#FFD93B;}
	.st1{fill:#3E4347;}
	.st2{fill:#F4C534;}
	.st3{fill:#38C0DC;}
	.st4{fill:#45CBEA;}
	.st5{fill:#FFFFFF;}
	.st6{fill:#E24B4B;}
	.st7{fill:#5A5F63;}
	.st8{opacity:0.3;}
	.st9{opacity:0.2;}
	.st10{opacity:0.1;}
	.st11{fill:#E9B02C;}
	.st12{fill:#65B1EF;}
	.st13{fill:#E9EFF4;}
	.st14{fill:#8CC63E;}
	.st15{fill:#7FB239;}
	.st16{fill:#D03F3F;}
	.st17{fill:#D23F77;}
	.st18{fill:#E84D88;}
	.st19{fill:#59A5E0;}
	.st20{fill:#DEE4E9;}
	.st21{fill:#D3D9DD;}
	.st22{opacity:0.25;fill:#FFFFFF;}
	.st23{fill:#9A795F;}
	.st24{fill:#F29A2E;}
	.st25{fill:#FC97B2;}
	.st26{fill:#89664C;}
	.st27{fill:#7A5B44;}
	.st28{opacity:0.2;fill:#FFFFFF;}
	.st29{fill:#4E99D2;}
	.st30{fill:#BBC7D1;}
	.st31{fill:#DE9C25;}
</style>
<g>
	<circle class="st0" cx="16" cy="16" r="16"/>
	<path class="st2" d="M32,16c0,8.84-7.165,16-16,16c-5.03,0-9.52-2.32-12.455-5.955c2.745,2.22,6.24,3.545,10.045,3.545
		c8.835,0,16-7.16,16-16c0-3.805-1.325-7.3-3.545-10.045C29.675,6.48,32,10.97,32,16z"/>
	<path class="st4" d="M29.915,13.17c-0.002,0.028-0.004,0.056-0.005,0.083c-0.044,1.785-0.522,3.055-2.878,4.035
		c-0.895,0.383-1.838,0.635-2.768,0.747c-1.001,0.121-1.987,0.08-2.903-0.122c-0.814-0.18-1.905-0.61-2.531-1.524
		c-0.624-0.921-0.93-1.907-0.868-2.782c0.044-2.577,2.059-3.192,4.219-3.627c1.642-0.264,6.103-0.966,7.334,0.525
		C30.021,11.135,29.959,12.31,29.915,13.17z"/>
	<path class="st4" d="M13.428,14.309c-0.225,1.665-1.259,2.954-2.861,3.476C9.577,18.099,8.45,18.132,7.399,18
		c-0.959-0.12-1.843-0.371-2.507-0.68c-2.593-1.098-2.815-2.589-2.846-4.075c-0.078-1.144-0.149-2.327,0.656-3.023
		c0.722-0.627,2.022-0.774,4.108-0.619c3.542,0.227,5.289,1.343,5.749,1.718C13.243,11.837,13.6,13.04,13.428,14.309z"/>
	<path class="st3" d="M24.352,9.637l-5.98,6.885c0.637,0.814,1.641,1.223,2.411,1.393c0.077,0.017,0.157,0.026,0.235,0.041
		l6.989-8.047C27.036,9.555,25.644,9.54,24.352,9.637z"/>
	<path class="st3" d="M21.747,9.959l-4.223,4.861c0.103,0.383,0.267,0.768,0.482,1.15l5.424-6.245
		C22.769,9.8,22.182,9.889,21.747,9.959z"/>
	<path class="st3" d="M2.928,16.007c0.421,0.476,1.036,0.92,1.964,1.314c0.178,0.083,0.375,0.161,0.582,0.234l5.983-6.888
		c-0.699-0.326-1.73-0.674-3.118-0.89L2.928,16.007z"/>
	<path class="st3" d="M2.126,14.252c0.066,0.419,0.188,0.83,0.416,1.226L7.54,9.725C6.878,9.8,6.29,9.889,5.856,9.959L2.126,14.252z
		"/>
	<path d="M29.743,14.777c0,0,0-0.012,0-0.014C29.743,14.768,29.743,14.772,29.743,14.777z"/>
	<path class="st1" d="M31.905,9.324c-0.018-0.204-0.112-0.39-0.26-0.511c-0.172-0.148-0.434-0.196-0.623-0.158
		c-4.773,0.713-9.784,0.166-12.517,1.682c-1.868,1.143-3.736,1.134-5.566-0.019C11.098,9.256,6.154,8.98,4.966,8.98
		c-3.72,0-4.811-0.855-4.916,0.344c-0.198,3.248,0.214,1.444,0.855,3.262c0.056,0.139,0.093,0.307,0.102,0.502
		c0.132,5.508,7.375,5.922,9.757,5.445c2.147-0.455,3.141-1.747,3.606-2.751c0.251-0.539,0.762-0.892,1.329-0.892
		c0.549,0,1.092,0.322,1.329,0.836c1.632,3.62,6.518,3.485,10.203,2.147c4.921-1.85,2.808-4.827,4.46-6.31
		c0.205-0.177,0.325-0.446,0.307-0.716L31.905,9.324z M12.93,14.351c-0.575,3.715-5.149,3.8-7.862,2.555
		c-2.305-0.976-2.518-2.221-2.546-3.643c-0.125-2.131-0.263-3.626,4.284-3.197c3.475,0.232,5.046,1.282,5.455,1.608
		C12.818,12.093,13.115,13.245,12.93,14.351z M29.433,13.282c-0.046,1.654-0.465,2.713-2.565,3.578
		c-3.789,1.627-8.663,0.802-8.428-3.243c0.028-2.054,1.366-2.704,3.81-3.187C30.286,9.122,29.433,11.239,29.433,13.282z"/>
	<path d="M2.21,14.763c-0.001,0.007,0.001,0.005,0.001,0.014C2.21,14.772,2.21,14.767,2.21,14.763z"/>
	<path class="st1" d="M23.127,23.259c-1.79,2.205-4.32,3.582-7.13,3.582s-5.34-1.377-7.13-3.582c-0.52-0.642,0.13-1.657,0.83-1.295
		c4.2,2.194,8.41,2.194,12.61,0C23.007,21.602,23.657,22.617,23.127,23.259z"/>
</g>
</svg>
