<?xml version="1.0" encoding="utf-8"?>
<!-- Generator: Adobe Illustrator 21.1.0, SVG Export Plug-In . SVG Version: 6.00 Build 0)  -->
<svg version="1.1" id="Layer_1" xmlns="http://www.w3.org/2000/svg" xmlns:xlink="http://www.w3.org/1999/xlink" x="0px" y="0px"
	 viewBox="0 0 32 32" style="enable-background:new 0 0 32 32;" xml:space="preserve">
<style type="text/css">
	.st0{fill:#FFD93B;}
	.st1{fill:#F4C534;}
	.st2{fill:#3E4347;}
	.st3{fill:#FFFFFF;}
	.st4{fill:#5A5F63;}
	.st5{fill:#32373A;}
	.st6{fill:#E24B4B;}
	.st7{fill:#D03F3F;}
	.st8{opacity:0.2;}
	.st9{opacity:0.3;}
	.st10{fill:#AD2727;}
	.st11{fill:#E9EFF4;}
	.st12{fill:#DEE4E9;}
	.st13{fill:#65B1EF;}
	.st14{fill:#4E99D2;}
	.st15{opacity:0.25;}
	.st16{fill:#719D34;}
	.st17{fill:#38C0DC;}
	.st18{fill:#303538;}
	.st19{fill:#777B7E;}
	.st20{opacity:0.2;fill:#FFFFFF;}
	.st21{fill:#DE9C25;}
	.st22{fill:#45CBEA;}
	.st23{fill:#7A5B44;}
	.st24{fill:#8CC63E;}
</style>
<g>
	<g>
		<g>
			<g>
				<g>
					<g>
						<g>
							<g>
								<g>
									<g>
										<g>
											<g>
												<g>
													<g>
														<g>
															<g>
																<g>
																	<g>
																		<g>
																			<g>
																				<g>
																					<g>
																						<g>
																							<g>
																								<g>
																									<g>
																										<g>
																											<g>
																												<circle class="st0" cx="16" cy="16" r="16"/>
																											</g>
																										</g>
																									</g>
																								</g>
																							</g>
																						</g>
																						<g>
																							<g>
																								<g>
																									<g>
																										<g>
																											<g>
																												<path class="st1" d="M32,16c0,8.84-7.165,16-16,16c-5.03,0-9.52-2.32-12.455-5.955
																													c2.745,2.22,6.24,3.545,10.045,3.545c8.835,0,16-7.16,16-16c0-3.805-1.325-7.3-3.545-10.045
																													C29.675,6.48,32,10.97,32,16z"/>
																											</g>
																										</g>
																									</g>
																								</g>
																							</g>
																						</g>
																					</g>
																				</g>
																			</g>
																		</g>
																	</g>
																</g>
															</g>
														</g>
													</g>
												</g>
											</g>
										</g>
									</g>
								</g>
							</g>
						</g>
					</g>
				</g>
			</g>
		</g>
	</g>
	<g>
		<g>
			<path class="st3" d="M15.379,13.755c0,3.365-2.34,6.09-5.225,6.09c-2.895,0-5.235-2.725-5.235-6.09c0-3.365,2.34-6.09,5.235-6.09
				C13.039,7.665,15.379,10.39,15.379,13.755z"/>
		</g>
		<g>
			<g>
				<ellipse class="st2" cx="11.707" cy="13.575" rx="2.422" ry="2.679"/>
			</g>
			<g>
				<path class="st4" d="M13.174,12.692c-0.142,0.222-0.494,0.263-0.78,0.077c-0.287-0.176-0.407-0.505-0.265-0.727
					c0.134-0.232,0.484-0.264,0.771-0.078C13.186,12.141,13.306,12.47,13.174,12.692z"/>
			</g>
		</g>
	</g>
	<g>
		<g>
			<path class="st3" d="M16.919,13.755c0,3.365,2.34,6.09,5.225,6.09c2.895,0,5.235-2.725,5.235-6.09c0-3.365-2.34-6.09-5.235-6.09
				C19.259,7.665,16.919,10.39,16.919,13.755z"/>
		</g>
		<g>
			<g>
				<ellipse class="st2" cx="20.591" cy="13.575" rx="2.422" ry="2.679"/>
			</g>
			<g>
				<path class="st4" d="M22.057,12.692c-0.142,0.222-0.494,0.263-0.78,0.077c-0.287-0.176-0.407-0.505-0.265-0.727
					c0.134-0.232,0.484-0.264,0.771-0.078C22.07,12.141,22.19,12.47,22.057,12.692z"/>
			</g>
		</g>
	</g>
	<g>
		<path class="st2" d="M20.955,24.335c-0.814-1.469-2.038-2.792-4.268-2.792s-4.829,1.323-5.643,2.792
			C13.515,22.669,16.818,22.669,20.955,24.335z"/>
	</g>
</g>
</svg>
