<?xml version="1.0" encoding="utf-8"?>
<!-- Generator: Adobe Illustrator 21.1.0, SVG Export Plug-In . SVG Version: 6.00 Build 0)  -->
<svg version="1.1" id="Layer_1" xmlns="http://www.w3.org/2000/svg" xmlns:xlink="http://www.w3.org/1999/xlink" x="0px" y="0px"
	 viewBox="0 0 32 32" style="enable-background:new 0 0 32 32;" xml:space="preserve">
<style type="text/css">
	.st0{fill:#FFD93B;}
	.st1{fill:#F4C534;}
	.st2{fill:#3E4347;}
	.st3{fill:#FFFFFF;}
	.st4{fill:#5A5F63;}
	.st5{fill:#32373A;}
	.st6{fill:#E24B4B;}
	.st7{fill:#D03F3F;}
	.st8{opacity:0.2;}
	.st9{opacity:0.3;}
	.st10{fill:#AD2727;}
	.st11{fill:#E9EFF4;}
	.st12{fill:#DEE4E9;}
	.st13{fill:#65B1EF;}
	.st14{fill:#4E99D2;}
	.st15{opacity:0.25;}
	.st16{fill:#719D34;}
	.st17{fill:#38C0DC;}
	.st18{fill:#303538;}
	.st19{fill:#777B7E;}
	.st20{opacity:0.2;fill:#FFFFFF;}
	.st21{fill:#DE9C25;}
	.st22{fill:#45CBEA;}
	.st23{fill:#7A5B44;}
	.st24{fill:#8CC63E;}
</style>
<g>
	<g>
		<g>
			<g>
				<g>
					<g>
						<g>
							<g>
								<g>
									<g>
										<g>
											<g>
												<g>
													<g>
														<g>
															<g>
																<g>
																	<g>
																		<g>
																			<g>
																				<g>
																					<g>
																						<g>
																							<g>
																								<g>
																									<g>
																										<g>
																											<circle class="st0" cx="16" cy="16" r="16"/>
																										</g>
																									</g>
																								</g>
																							</g>
																						</g>
																					</g>
																					<g>
																						<g>
																							<g>
																								<g>
																									<g>
																										<g>
																											<path class="st1" d="M32,16c0,8.84-7.165,16-16,16c-5.03,0-9.52-2.32-12.455-5.955
																												c2.745,2.22,6.24,3.545,10.045,3.545c8.835,0,16-7.16,16-16c0-3.805-1.325-7.3-3.545-10.045
																												C29.675,6.48,32,10.97,32,16z"/>
																										</g>
																									</g>
																								</g>
																							</g>
																						</g>
																					</g>
																				</g>
																			</g>
																		</g>
																	</g>
																</g>
															</g>
														</g>
													</g>
												</g>
											</g>
										</g>
									</g>
								</g>
							</g>
						</g>
					</g>
				</g>
			</g>
		</g>
	</g>
	<g>
		<path class="st2" d="M27.859,7.793c0,0-4.049-3.37-9.344-2.161c0.76-1.13,3.156-2.258,4.846-2.016
			C26.065,4.003,27.859,7.793,27.859,7.793z"/>
	</g>
	<g>
		<path class="st2" d="M8.985,20.005c0,0,5.87,4.886,13.547,3.133c-1.102,1.638-6.855,2.706-9.306,2.355
			C9.306,24.932,8.985,20.005,8.985,20.005z"/>
	</g>
	<g>
		<path class="st2" d="M4.141,7.793c0,0,4.049-3.37,9.344-2.161c-0.76-1.13-3.156-2.258-4.846-2.016
			C5.935,4.003,4.141,7.793,4.141,7.793z"/>
	</g>
	<g>
		<ellipse class="st1" cx="22.021" cy="12.366" rx="5.061" ry="4.573"/>
	</g>
	<g>
		<path class="st3" d="M26.247,12.545c0,2.175-1.892,3.859-4.226,3.76c-2.334-0.099-4.226-1.942-4.226-4.118s1.892-3.859,4.226-3.76
			S26.247,10.369,26.247,12.545z"/>
	</g>
	<path class="st2" d="M23.091,12.323c0.004,1.237-0.962,2.271-2.157,2.309c-1.195,0.038-2.167-0.934-2.171-2.171
		c-0.004-1.237,0.962-2.271,2.157-2.309C22.115,10.114,23.087,11.086,23.091,12.323z"/>
	<path class="st4" d="M22.31,11.966c-0.174,0.165-0.523,0.092-0.79-0.174c-0.257-0.257-0.34-0.615-0.165-0.781
		c0.165-0.174,0.524-0.092,0.781,0.165C22.402,11.442,22.476,11.791,22.31,11.966z"/>
	<g>
		<ellipse class="st1" cx="10.238" cy="12.366" rx="5.061" ry="4.573"/>
	</g>
	<g>
		<path class="st3" d="M14.463,12.545c0,2.175-1.892,3.859-4.225,3.76c-2.334-0.099-4.226-1.942-4.226-4.118s1.892-3.859,4.226-3.76
			C12.572,8.526,14.463,10.369,14.463,12.545z"/>
	</g>
	<path class="st2" d="M11.308,12.323c0.004,1.237-0.962,2.271-2.157,2.309c-1.195,0.038-2.167-0.934-2.171-2.171
		c-0.004-1.237,0.962-2.271,2.157-2.309C10.332,10.114,11.304,11.086,11.308,12.323z"/>
	<path class="st4" d="M10.527,11.966c-0.175,0.165-0.524,0.092-0.79-0.174c-0.257-0.257-0.34-0.615-0.165-0.781
		c0.165-0.174,0.524-0.092,0.781,0.165C10.619,11.442,10.692,11.791,10.527,11.966z"/>
</g>
</svg>
