<?xml version="1.0" encoding="utf-8"?>
<!-- Generator: Adobe Illustrator 21.1.0, SVG Export Plug-In . SVG Version: 6.00 Build 0)  -->
<svg version="1.1" id="Layer_1" xmlns="http://www.w3.org/2000/svg" xmlns:xlink="http://www.w3.org/1999/xlink" x="0px" y="0px"
	 viewBox="0 0 32 32" style="enable-background:new 0 0 32 32;" xml:space="preserve">
<style type="text/css">
	.st0{fill:#FFD93B;}
	.st1{fill:#F4C534;}
	.st2{fill:#3E4347;}
	.st3{fill:#FFFFFF;}
	.st4{fill:#5A5F63;}
	.st5{fill:#32373A;}
	.st6{fill:#E24B4B;}
	.st7{fill:#D03F3F;}
	.st8{opacity:0.2;}
	.st9{opacity:0.3;}
	.st10{fill:#AD2727;}
	.st11{fill:#E9EFF4;}
	.st12{fill:#DEE4E9;}
	.st13{fill:#65B1EF;}
	.st14{fill:#4E99D2;}
	.st15{opacity:0.25;}
	.st16{fill:#719D34;}
	.st17{fill:#38C0DC;}
	.st18{fill:#303538;}
	.st19{fill:#777B7E;}
	.st20{opacity:0.2;fill:#FFFFFF;}
	.st21{fill:#DE9C25;}
	.st22{fill:#45CBEA;}
	.st23{fill:#7A5B44;}
	.st24{fill:#8CC63E;}
</style>
<g>
	<g>
		<g>
			<g>
				<g>
					<g>
						<g>
							<g>
								<g>
									<g>
										<g>
											<g>
												<g>
													<g>
														<g>
															<g>
																<g>
																	<g>
																		<g>
																			<g>
																				<g>
																					<g>
																						<g>
																							<g>
																								<g>
																									<g>
																										<g>
																											<circle class="st0" cx="16" cy="14.039" r="14.039"/>
																										</g>
																									</g>
																								</g>
																							</g>
																						</g>
																					</g>
																					<g>
																						<g>
																							<g>
																								<g>
																									<g>
																										<g>
																											<path class="st1" d="M30.039,14.039c0,7.756-6.287,14.039-14.039,14.039
																												c-4.413,0-8.353-2.036-10.928-5.225c2.408,1.948,5.475,3.11,8.814,3.11
																												c7.752,0,14.039-6.282,14.039-14.038c0-3.339-1.163-6.405-3.11-8.814
																												C27.999,5.686,30.039,9.625,30.039,14.039z"/>
																										</g>
																									</g>
																								</g>
																							</g>
																						</g>
																					</g>
																				</g>
																			</g>
																		</g>
																	</g>
																</g>
															</g>
														</g>
													</g>
												</g>
											</g>
										</g>
									</g>
								</g>
							</g>
						</g>
					</g>
				</g>
			</g>
		</g>
	</g>
	<g>
		<path class="st2" d="M24.489,19.99c-1.663,2.971-4.844,4.981-8.485,4.981c-3.649,0-6.83-2.01-8.493-4.981
			c-0.605-1.082,0.476-2.325,1.647-1.93c4.561,1.542,9.122,1.542,13.684,0C24.012,17.665,25.094,18.908,24.489,19.99z"/>
	</g>
	<path class="st3" d="M14.529,19.155c-0.116,0.538-0.256,1.462,0.097,1.744c0.505,0.404,6.635-0.429,7.745-1.186
		c0.629-0.429,0.545-1.109,0.354-1.618C19.993,19.003,17.261,19.353,14.529,19.155z"/>
	<path class="st3" d="M12.381,20.849c0.174,0,0.643-1.01,0.795-1.845c-1.046-0.146-2.092-0.375-3.138-0.683
		c-0.144,0.547-0.358,1.438-0.307,1.746C9.807,20.521,12.154,20.849,12.381,20.849z"/>
	<g>
		<path class="st6" d="M20.801,29.954c-0.21,2.397-4.093,2.333-5.829,1.59c-2.68-1.155-3.607-4.025-4.055-6.886
			c-0.471-2.865,1.651-2.624,3.179-1.446c0.848-0.783,2.278-0.983,3.263-0.538c1.954,0.888,0.737,2.324,0.6,3.131
			C17.435,28.948,21.035,27.293,20.801,29.954z"/>
	</g>
	<g class="st15">
		
			<ellipse transform="matrix(0.1615 -0.9869 0.9869 0.1615 -9.2559 35.8916)" class="st3" cx="16.494" cy="23.393" rx="0.465" ry="0.99"/>
	</g>
	<path class="st2" d="M11.759,12.342c0,1.062-0.86,1.913-1.922,1.913c-1.053,0-1.913-0.851-1.913-1.913s0.86-1.912,1.913-1.912
		C10.899,10.43,11.759,11.281,11.759,12.342z"/>
	
		<ellipse transform="matrix(0.7071 -0.7071 0.7071 0.7071 -5.0847 10.89)" class="st4" cx="10.604" cy="11.583" rx="0.399" ry="0.654"/>
	<g>
		<g>
			<g>
				<circle class="st1" cx="10.566" cy="11.656" r="4.548"/>
			</g>
			<g>
				<path class="st3" d="M14.152,11.659c-0.128,2.143-1.838,3.883-3.815,3.883c-1.987,0-3.488-1.74-3.36-3.883
					c0.129-2.153,1.839-3.894,3.826-3.894C12.78,7.766,14.281,9.506,14.152,11.659z"/>
			</g>
		</g>
		<g>
			<g>
				<path class="st2" d="M13.371,12.071c0,1.169-0.947,2.106-2.116,2.106c-1.159,0-2.106-0.937-2.106-2.106
					c0-1.169,0.947-2.106,2.106-2.106C12.424,9.965,13.371,10.902,13.371,12.071z"/>
			</g>
			
				<ellipse transform="matrix(0.7071 -0.7071 0.7071 0.7071 -4.4023 11.8503)" class="st4" cx="12.103" cy="11.239" rx="0.44" ry="0.72"/>
		</g>
	</g>
	<g>
		<g>
			<g>
				<circle class="st1" cx="21.434" cy="11.835" r="4.548"/>
			</g>
			<g>
				<path class="st3" d="M25.019,11.839c-0.128,2.143-1.838,3.883-3.815,3.883c-1.987,0-3.488-1.74-3.36-3.883
					c0.129-2.153,1.839-3.894,3.826-3.894C23.647,7.945,25.148,9.685,25.019,11.839z"/>
			</g>
		</g>
		<g>
			<g>
				<path class="st2" d="M22.968,10.952c0,1.169-0.947,2.106-2.116,2.106c-1.159,0-2.106-0.937-2.106-2.106
					c0-1.169,0.947-2.106,2.106-2.106C22.022,8.846,22.968,9.783,22.968,10.952z"/>
			</g>
			
				<ellipse transform="matrix(0.7071 -0.7071 0.7071 0.7071 -0.8001 18.3099)" class="st4" cx="21.701" cy="10.121" rx="0.44" ry="0.72"/>
		</g>
	</g>
	<path class="st2" d="M14.163,4.332C9.855,8.236,5.547,2.919,5.354,2.673C9.469,4.855,14.163,4.633,14.163,4.332z"/>
	<path class="st2" d="M17.555,5.449c4.308-3.904,8.616,1.413,8.809,1.659C22.448,4.894,17.666,5.139,17.555,5.449z"/>
	<path class="st7" d="M20.801,29.954c0.005-0.062-0.001-0.11,0-0.167c-0.109,0.366-0.342,0.701-0.652,0.93
		c-0.465,0.344-1.053,0.483-1.631,0.516c-1.855,0.105-3.653-0.83-4.969-2.142c-1.02-1.018-1.789-2.248-2.468-3.525
		c0.504,2.542,1.495,4.946,3.891,5.978C16.708,32.287,20.591,32.352,20.801,29.954z"/>
</g>
</svg>
