<?xml version="1.0" encoding="utf-8"?>
<!-- Generator: Adobe Illustrator 21.1.0, SVG Export Plug-In . SVG Version: 6.00 Build 0)  -->
<svg version="1.1" id="Layer_1" xmlns="http://www.w3.org/2000/svg" xmlns:xlink="http://www.w3.org/1999/xlink" x="0px" y="0px"
	 viewBox="0 0 32 32" style="enable-background:new 0 0 32 32;" xml:space="preserve">
<style type="text/css">
	.st0{fill:#FFD93B;}
	.st1{fill:#F4C534;}
	.st2{fill:#3E4347;}
	.st3{fill:#FFFFFF;}
	.st4{fill:#5A5F63;}
	.st5{fill:#32373A;}
	.st6{fill:#E24B4B;}
	.st7{fill:#D03F3F;}
	.st8{opacity:0.2;}
	.st9{opacity:0.3;}
	.st10{fill:#AD2727;}
	.st11{fill:#E9EFF4;}
	.st12{fill:#DEE4E9;}
	.st13{fill:#65B1EF;}
	.st14{fill:#4E99D2;}
	.st15{opacity:0.25;}
	.st16{fill:#719D34;}
	.st17{fill:#38C0DC;}
	.st18{fill:#303538;}
	.st19{fill:#777B7E;}
	.st20{opacity:0.2;fill:#FFFFFF;}
	.st21{fill:#DE9C25;}
	.st22{fill:#45CBEA;}
	.st23{fill:#7A5B44;}
	.st24{fill:#8CC63E;}
</style>
<g>
	<g>
		<g>
			<g>
				<g>
					<g>
						<g>
							<g>
								<g>
									<g>
										<g>
											<g>
												<g>
													<g>
														<g>
															<g>
																<g>
																	<g>
																		<g>
																			<g>
																				<g>
																					<g>
																						<g>
																							<g>
																								<g>
																									<g>
																										<circle class="st0" cx="16" cy="16" r="16"/>
																									</g>
																								</g>
																							</g>
																						</g>
																					</g>
																				</g>
																				<g>
																					<g>
																						<g>
																							<g>
																								<g>
																									<g>
																										<path class="st2" d="M27.542,18.537c-1.16,5.32-5.88,9.3-11.54,9.3s-10.39-3.98-11.55-9.3
																											c-0.09-0.42,0.28-0.8,0.7-0.7c7.23,1.72,14.46,1.72,21.69,0C27.272,17.736,27.642,18.117,27.542,18.537z"
																											/>
																									</g>
																								</g>
																							</g>
																						</g>
																					</g>
																				</g>
																				<g>
																					<g>
																						<path class="st6" d="M21.644,25.783c0.002-0.04,0.012-0.077,0.012-0.118c0-2.09-1.69-3.79-3.79-3.79
																							c-1.03,0-1.96,0.41-2.63,1.07c-0.54-0.31-1.17-0.48-1.84-0.48c-1.925,0-3.502,1.448-3.741,3.317H21.644z"/>
																					</g>
																				</g>
																				<g>
																					<g>
																						<g>
																							<g>
																								<g>
																									<g>
																										<path class="st1" d="M32,16c0,8.84-7.165,16-16,16c-5.03,0-9.52-2.32-12.455-5.955
																											c2.745,2.22,6.24,3.545,10.045,3.545c8.835,0,16-7.16,16-16c0-3.805-1.325-7.3-3.545-10.045
																											C29.675,6.48,32,10.97,32,16z"/>
																									</g>
																								</g>
																							</g>
																						</g>
																					</g>
																				</g>
																			</g>
																		</g>
																	</g>
																</g>
															</g>
														</g>
													</g>
												</g>
											</g>
										</g>
									</g>
								</g>
							</g>
						</g>
					</g>
				</g>
			</g>
		</g>
	</g>
	<path class="st3" d="M5.883,17.984c1.766,2.604,5.581,3.424,10.117,3.424s8.351-0.82,10.117-3.424
		C19.372,19.477,12.628,19.477,5.883,17.984z"/>
	<path class="st3" d="M7.194,23.877c2.163,2.423,5.301,3.956,8.806,3.956c3.528,0,6.683-1.553,8.848-4.003
		C18.91,25.528,12.883,25.615,7.194,23.877z"/>
	<g class="st8">
		<path class="st3" d="M19.692,23.457c-0.09,0.4-0.71,0.59-1.38,0.43c-0.66-0.16-1.13-0.61-1.03-1.01c0.09-0.4,0.71-0.59,1.38-0.43
			C19.322,22.607,19.792,23.057,19.692,23.457z"/>
	</g>
	<g>
		<g>
			<g>
				<path class="st2" d="M26.211,11.744c-0.051,0.094-0.111,0.184-0.173,0.275c-0.554-1.316-2.071-2.443-3.87-3.246
					c-1.796-0.78-3.535-1.061-5.072-0.854c0.056-0.077,0.113-0.155,0.174-0.227c1.523-1.608,3.882-2.027,6.038-1.166
					C25.454,7.465,27.289,9.545,26.211,11.744z"/>
			</g>
		</g>
		<g>
			<g>
				<path class="st2" d="M5.789,11.744c0.051,0.094,0.111,0.184,0.173,0.275c0.554-1.316,2.071-2.443,3.87-3.246
					c1.796-0.78,3.535-1.061,5.072-0.854c-0.056-0.077-0.113-0.155-0.174-0.227c-1.523-1.608-3.882-2.027-6.038-1.166
					C6.546,7.465,4.711,9.545,5.789,11.744z"/>
			</g>
		</g>
	</g>
	<g>
		<g>
			<path class="st17" d="M31.173,15.699c-0.411-0.978-3.474-3.308-3.474-3.308s-0.479,3.819-0.068,4.797
				c0.411,0.978,1.537,1.438,2.515,1.027C31.125,17.804,31.584,16.678,31.173,15.699z"/>
		</g>
		<g>
			<path class="st17" d="M0.827,15.699c0.411-0.978,3.474-3.308,3.474-3.308s0.479,3.819,0.068,4.797
				c-0.411,0.978-1.537,1.438-2.515,1.027C0.876,17.804,0.416,16.678,0.827,15.699z"/>
		</g>
	</g>
</g>
</svg>
