<?xml version="1.0" encoding="utf-8"?>
<!-- Generator: Adobe Illustrator 21.1.0, SVG Export Plug-In . SVG Version: 6.00 Build 0)  -->
<svg version="1.1" id="Layer_1" xmlns="http://www.w3.org/2000/svg" xmlns:xlink="http://www.w3.org/1999/xlink" x="0px" y="0px"
	 viewBox="0 0 32 32" style="enable-background:new 0 0 32 32;" xml:space="preserve">
<style type="text/css">
	.st0{fill:#FFD93B;}
	.st1{fill:#F4C534;}
	.st2{fill:#3E4347;}
	.st3{fill:#FFFFFF;}
	.st4{fill:#5A5F63;}
	.st5{fill:#32373A;}
	.st6{fill:#E24B4B;}
	.st7{fill:#D03F3F;}
	.st8{opacity:0.2;}
	.st9{opacity:0.3;}
	.st10{fill:#AD2727;}
	.st11{fill:#E9EFF4;}
	.st12{fill:#DEE4E9;}
	.st13{fill:#65B1EF;}
	.st14{fill:#4E99D2;}
	.st15{opacity:0.25;}
	.st16{fill:#719D34;}
	.st17{fill:#38C0DC;}
	.st18{fill:#303538;}
	.st19{fill:#777B7E;}
	.st20{opacity:0.2;fill:#FFFFFF;}
	.st21{fill:#DE9C25;}
	.st22{fill:#45CBEA;}
	.st23{fill:#7A5B44;}
	.st24{fill:#8CC63E;}
</style>
<g>
	<g>
		<g>
			<g>
				<g>
					<g>
						<g>
							<g>
								<g>
									<g>
										<g>
											<g>
												<g>
													<g>
														<g>
															<g>
																<g>
																	<g>
																		<g>
																			<g>
																				<g>
																					<g>
																						<g>
																							<g>
																								<g>
																									<g>
																										<g>
																											<circle class="st0" cx="16" cy="16" r="16"/>
																										</g>
																									</g>
																								</g>
																							</g>
																						</g>
																					</g>
																					<g>
																						<g>
																							<g>
																								<g>
																									<g>
																										<g>
																											<path class="st1" d="M32,16c0,8.84-7.165,16-16,16c-5.03,0-9.52-2.32-12.455-5.955
																												c2.745,2.22,6.24,3.545,10.045,3.545c8.835,0,16-7.16,16-16c0-3.805-1.325-7.3-3.545-10.045
																												C29.675,6.48,32,10.97,32,16z"/>
																										</g>
																									</g>
																								</g>
																							</g>
																						</g>
																					</g>
																				</g>
																			</g>
																		</g>
																	</g>
																</g>
															</g>
														</g>
													</g>
												</g>
											</g>
										</g>
									</g>
								</g>
							</g>
						</g>
					</g>
				</g>
			</g>
		</g>
	</g>
	<g>
		<g>
			<path class="st2" d="M8.13,23.651c-0.036,1.326,1.464,1.98,3.37,2.25c0.766,0.106,1.498,0.172,2.165,0.124
				c1.476-0.095,3.168,0.176,4.705,0.805c0.693,0.283,1.468,0.447,2.263,0.374c2.007-0.183,3.278-2.235,3.232-3.524
				c-0.047-2.232-1.714-5.602-4.188-4.727c-1.466,0.698-5.865,1.931-7.502,1.257C9.642,19.095,8.288,20.897,8.13,23.651z"/>
		</g>
		<g>
			<path class="st3" d="M12.175,20.209c-0.343-0.151-0.662-0.244-0.962-0.293c0.005,0.021,0.012,0.046,0.017,0.067
				c0.598,1.55,2.557,1.832,4.769,1.58c2.177-0.237,4.023-0.821,4.562-2.751c-0.281-0.012-0.576,0.03-0.884,0.139
				C18.211,19.65,13.812,20.883,12.175,20.209z"/>
		</g>
		<path class="st6" d="M11.682,25.721c0.1-0.91,0.785-1.619,1.731-2.09c0.508-0.252,1.179-0.292,1.748-0.054
			c0.329,0.141,0.723,0.238,1.173,0.25c0.105-0.002,0.212,0.005,0.312-0.005c1.488-0.124,2.996,0.623,3.547,2.111
			c0.121,0.321,0.198,0.664,0.236,1.024c0.008,0.085,0.008,0.17,0.011,0.254c-0.727,0.039-1.433-0.122-2.07-0.381
			c-1.537-0.626-3.228-0.902-4.705-0.805c-0.616,0.045-1.287-0.015-1.989-0.103C11.677,25.851,11.675,25.791,11.682,25.721z"/>
	</g>
	<g>
		<g>
			<g>
				<g>
					<ellipse class="st1" cx="10.121" cy="12.961" rx="5.38" ry="4.997"/>
				</g>
				<g>
					<path class="st3" d="M14.693,12.961c-0.14,2.278-2.3,4.124-4.825,4.124c-2.525,0-4.459-1.847-4.319-4.124
						c0.14-2.278,2.3-4.125,4.825-4.125S14.833,10.683,14.693,12.961z"/>
				</g>
			</g>
			<g>
				<ellipse class="st2" cx="11.603" cy="12.981" rx="2.26" ry="2.37"/>
			</g>
			<path class="st4" d="M12.976,12.079c-0.115,0.186-0.416,0.194-0.681,0.026c-0.257-0.159-0.38-0.442-0.265-0.619
				c0.106-0.177,0.416-0.194,0.672-0.027C12.967,11.619,13.091,11.901,12.976,12.079z"/>
		</g>
		<g>
			<g>
				<g>
					<ellipse class="st1" cx="21.879" cy="11.807" rx="5.38" ry="4.997"/>
				</g>
				<g>
					<path class="st3" d="M26.451,11.807c-0.14,2.277-2.3,4.124-4.825,4.124c-2.525,0-4.459-1.847-4.319-4.124
						c0.14-2.278,2.3-4.125,4.825-4.125C24.656,7.683,26.59,9.53,26.451,11.807z"/>
				</g>
			</g>
			<g>
				<ellipse class="st2" cx="20.476" cy="11.409" rx="2.26" ry="2.37"/>
			</g>
			<path class="st4" d="M21.849,10.507c-0.115,0.186-0.416,0.195-0.681,0.026c-0.256-0.159-0.38-0.442-0.265-0.619
				c0.106-0.177,0.416-0.195,0.672-0.027C21.84,10.047,21.964,10.33,21.849,10.507z"/>
		</g>
	</g>
</g>
</svg>
