<?xml version="1.0" encoding="utf-8"?>
<!-- Generator: Adobe Illustrator 21.1.0, SVG Export Plug-In . SVG Version: 6.00 Build 0)  -->
<svg version="1.1" id="Layer_1" xmlns="http://www.w3.org/2000/svg" xmlns:xlink="http://www.w3.org/1999/xlink" x="0px" y="0px"
	 viewBox="0 0 32 32" style="enable-background:new 0 0 32 32;" xml:space="preserve">
<style type="text/css">
	.st0{fill:#FFD93B;}
	.st1{fill:#F4C534;}
	.st2{fill:#3E4347;}
	.st3{fill:#FFFFFF;}
	.st4{fill:#5A5F63;}
	.st5{fill:#32373A;}
	.st6{fill:#E24B4B;}
	.st7{fill:#D03F3F;}
	.st8{opacity:0.2;}
	.st9{opacity:0.3;}
	.st10{fill:#AD2727;}
	.st11{fill:#E9EFF4;}
	.st12{fill:#DEE4E9;}
	.st13{fill:#65B1EF;}
	.st14{fill:#4E99D2;}
	.st15{opacity:0.25;}
	.st16{fill:#719D34;}
	.st17{fill:#38C0DC;}
	.st18{fill:#303538;}
	.st19{fill:#777B7E;}
	.st20{opacity:0.2;fill:#FFFFFF;}
	.st21{fill:#DE9C25;}
	.st22{fill:#45CBEA;}
	.st23{fill:#7A5B44;}
	.st24{fill:#8CC63E;}
</style>
<g>
	<g>
		<g>
			<g>
				<g>
					<g>
						<g>
							<g>
								<g>
									<g>
										<g>
											<g>
												<g>
													<g>
														<g>
															<g>
																<g>
																	<g>
																		<g>
																			<g>
																				<g>
																					<g>
																						<g>
																							<g>
																								<g>
																									<g>
																										<g>
																											<g>
																												<circle class="st0" cx="16" cy="16" r="16"/>
																											</g>
																										</g>
																									</g>
																								</g>
																							</g>
																						</g>
																						<g>
																							<g>
																								<g>
																									<g>
																										<g>
																											<g>
																												<path class="st1" d="M32,16c0,8.84-7.165,16-16,16c-5.03,0-9.52-2.32-12.455-5.955
																													c2.745,2.22,6.24,3.545,10.045,3.545c8.835,0,16-7.16,16-16c0-3.805-1.325-7.3-3.545-10.045
																													C29.675,6.48,32,10.97,32,16z"/>
																											</g>
																										</g>
																									</g>
																								</g>
																							</g>
																						</g>
																					</g>
																				</g>
																			</g>
																		</g>
																	</g>
																</g>
															</g>
														</g>
													</g>
												</g>
											</g>
										</g>
									</g>
								</g>
							</g>
						</g>
					</g>
				</g>
			</g>
		</g>
	</g>
	<g>
		<g>
			<g>
				<path class="st18" d="M31.158,11.415c0,3.554-2.567,7.119-7.023,7.119c-2.864,0-5.538-1.634-6.631-4.276
					c-0.382-0.923-0.881-1.559-1.507-1.559c-0.626,0-1.125,0.636-1.506,1.57c-1.072,2.631-3.734,4.265-6.588,4.265H7.871
					c-7.766,0-9.792-10.779-2.536-13.559c3.257-1.242,7.151-1.761,10.662-1.761c3.522,0,7.416,0.52,10.673,1.772
					C29.747,6.164,31.158,8.795,31.158,11.415z"/>
			</g>
			<g>
				<path class="st2" d="M24.135,17.208c-2.415,0-4.537-1.357-5.405-3.456c-0.812-1.967-1.934-2.379-2.732-2.379
					c-0.8,0-1.924,0.415-2.734,2.393c-0.838,2.06-2.992,3.442-5.361,3.442c-3.528,0-5.234-2.515-5.632-4.669
					C1.875,10.398,2.564,7.457,5.81,6.213C8.642,5.135,12.26,4.54,15.998,4.54c3.751,0,7.373,0.598,10.198,1.684
					c2.277,0.872,3.637,2.813,3.637,5.192C29.832,14.223,27.835,17.208,24.135,17.208z"/>
			</g>
		</g>
		<g>
			<path class="st4" d="M8.972,5.285l-6.769,6.768c0.017,0.165,0.038,0.327,0.067,0.485c0.063,0.339,0.161,0.686,0.291,1.031
				l8.696-8.696C10.472,4.984,9.709,5.121,8.972,5.285z"/>
			<path class="st4" d="M12.372,4.736l-9.511,9.511c0.537,1.032,1.406,1.973,2.667,2.505L17.694,4.586
				c-0.562-0.027-1.127-0.046-1.697-0.046C14.767,4.54,13.553,4.611,12.372,4.736z"/>
		</g>
		<g>
			<path class="st4" d="M26.195,6.224c-0.046-0.018-0.096-0.032-0.142-0.05l-7.406,7.406c0.027,0.06,0.056,0.108,0.082,0.172
				c0.154,0.372,0.359,0.711,0.587,1.033l7.989-7.989C26.962,6.577,26.599,6.378,26.195,6.224z"/>
			<path class="st4" d="M23.129,17.121l6.628-6.628c-0.208-1.321-0.868-2.456-1.882-3.29l-8.125,8.125
				C20.614,16.268,21.797,16.906,23.129,17.121z"/>
		</g>
	</g>
	<g>
		<g>
			<path class="st2" d="M23.263,24.54c-0.983,1.611-2.816,3.114-7.461,4.076c-4.7,1.098-6.155-0.953-7.116-4.395
				c-1.031-3.483,0.042-5.756,7.561-4.063C23.712,21.637,24.272,22.921,23.263,24.54z"/>
		</g>
		<g>
			<path class="st3" d="M19.401,24.622c0.945,0.197,1.915,0.284,2.919,0.213c-1.917,1.479-4.655,2.731-6.489,2.886
				c-4.67,0.9-5.69-1.46-6.11-2.87c1.88,0.21,3.27-0.12,3.27-0.12c-1.24-0.26-2.73-0.89-3.61-1.29c-0.26-1.44-0.11-3.59,6.46-2.31
				c3.31,0.55,5.858,1.485,6.688,1.995C21.466,24.127,19.401,24.622,19.401,24.622z"/>
		</g>
	</g>
</g>
</svg>
