<?xml version="1.0" encoding="utf-8"?>
<!-- Generator: Adobe Illustrator 21.1.0, SVG Export Plug-In . SVG Version: 6.00 Build 0)  -->
<svg version="1.1" id="Layer_1" xmlns="http://www.w3.org/2000/svg" xmlns:xlink="http://www.w3.org/1999/xlink" x="0px" y="0px"
	 viewBox="0 0 32 32" style="enable-background:new 0 0 32 32;" xml:space="preserve">
<style type="text/css">
	.st0{fill:#FFD93B;}
	.st1{fill:#F4C534;}
	.st2{fill:#3E4347;}
	.st3{fill:#FFFFFF;}
	.st4{fill:#5A5F63;}
	.st5{fill:#32373A;}
	.st6{fill:#E24B4B;}
	.st7{fill:#D03F3F;}
	.st8{opacity:0.2;}
	.st9{opacity:0.3;}
	.st10{fill:#AD2727;}
	.st11{fill:#E9EFF4;}
	.st12{fill:#DEE4E9;}
	.st13{fill:#65B1EF;}
	.st14{fill:#4E99D2;}
	.st15{opacity:0.25;}
	.st16{fill:#719D34;}
	.st17{fill:#38C0DC;}
	.st18{fill:#303538;}
	.st19{fill:#777B7E;}
	.st20{opacity:0.2;fill:#FFFFFF;}
	.st21{fill:#DE9C25;}
	.st22{fill:#45CBEA;}
	.st23{fill:#7A5B44;}
	.st24{fill:#8CC63E;}
</style>
<g>
	<g>
		<g>
			<g>
				<g>
					<g>
						<g>
							<g>
								<g>
									<g>
										<g>
											<g>
												<g>
													<g>
														<g>
															<g>
																<g>
																	<g>
																		<g>
																			<g>
																				<g>
																					<g>
																						<g>
																							<g>
																								<g>
																									<g>
																										<g>
																											<circle class="st0" cx="16" cy="16" r="16"/>
																										</g>
																									</g>
																								</g>
																							</g>
																						</g>
																					</g>
																					<g>
																						<g>
																							<g>
																								<g>
																									<g>
																										<g>
																											<path class="st1" d="M32,16c0,8.84-7.165,16-16,16c-5.03,0-9.52-2.32-12.455-5.955
																												c2.745,2.22,6.24,3.545,10.045,3.545c8.835,0,16-7.16,16-16c0-3.805-1.325-7.3-3.545-10.045
																												C29.675,6.48,32,10.97,32,16z"/>
																										</g>
																									</g>
																								</g>
																							</g>
																						</g>
																					</g>
																				</g>
																			</g>
																		</g>
																	</g>
																</g>
															</g>
														</g>
													</g>
												</g>
											</g>
										</g>
									</g>
								</g>
							</g>
						</g>
					</g>
				</g>
			</g>
		</g>
	</g>
	<g>
		<g>
			<path class="st1" d="M15.212,12.126c0,2.708-2.628,4.905-5.867,4.905c-3.239,0-5.867-2.197-5.867-4.905
				c0-2.717,2.628-4.913,5.867-4.913C12.585,7.213,15.212,9.409,15.212,12.126z"/>
		</g>
		<g>
			<path class="st3" d="M9.847,16.226c-2.708,0-5.135-1.836-5.406-4.1C4.16,9.854,6.136,8.017,8.844,8.017
				c2.708,0,5.125,1.836,5.406,4.108C14.531,14.39,12.555,16.226,9.847,16.226z"/>
		</g>
	</g>
	<g>
		<g>
			<path class="st2" d="M13.186,12.439c-0.006,1.215-0.978,2.187-2.193,2.193c-1.203-0.006-2.176-0.978-2.182-2.193
				c0.006-1.203,0.978-2.176,2.181-2.182C12.208,10.263,13.18,11.236,13.186,12.439z"/>
		</g>
		
			<ellipse transform="matrix(0.7071 -0.7071 0.7071 0.7071 -4.774 11.7551)" class="st4" cx="11.803" cy="11.64" rx="0.457" ry="0.622"/>
	</g>
	<g>
		<g>
			<path class="st1" d="M16.779,12.127c0,3.242,2.63,5.871,5.871,5.871c3.242,0,5.871-2.63,5.871-5.871
				c0-3.252-2.629-5.881-5.871-5.881C19.409,6.246,16.779,8.875,16.779,12.127z"/>
		</g>
		<g>
			<path class="st3" d="M22.149,17.035c2.71,0,5.139-2.198,5.41-4.908c0.281-2.72-1.696-4.918-4.406-4.918
				c-2.71,0-5.128,2.198-5.409,4.918C17.462,14.836,19.439,17.035,22.149,17.035z"/>
		</g>
	</g>
	<g>
		<g>
			<path class="st2" d="M24.371,12.021c-0.006,1.215-0.979,2.187-2.193,2.193c-1.203-0.006-2.176-0.978-2.181-2.193
				c0.006-1.203,0.978-2.176,2.181-2.182C23.392,9.845,24.365,10.818,24.371,12.021z"/>
		</g>
		
			<ellipse transform="matrix(0.7071 -0.7071 0.7071 0.7071 -1.2033 19.5404)" class="st4" cx="22.987" cy="11.223" rx="0.457" ry="0.623"/>
	</g>
	<path class="st2" d="M21.801,26.099c-0.347,0.217-0.799,0.173-1.115-0.142c-2.541-2.569-6.296-3.558-9.773-2.569
		c-0.878,0.254-1.571-0.87-0.856-1.525c4.007-3.627,10.442-2.008,12.136,3.184C22.327,25.457,22.166,25.876,21.801,26.099z"/>
</g>
</svg>
