<?xml version="1.0" encoding="utf-8"?>
<!-- Generator: Adobe Illustrator 21.1.0, SVG Export Plug-In . SVG Version: 6.00 Build 0)  -->
<svg version="1.1" id="Layer_1" xmlns="http://www.w3.org/2000/svg" xmlns:xlink="http://www.w3.org/1999/xlink" x="0px" y="0px"
	 viewBox="0 0 32 32" style="enable-background:new 0 0 32 32;" xml:space="preserve">
<style type="text/css">
	.st0{fill:#FFD93B;}
	.st1{fill:#F4C534;}
	.st2{fill:#3E4347;}
	.st3{fill:#FFFFFF;}
	.st4{fill:#5A5F63;}
	.st5{fill:#32373A;}
	.st6{fill:#E24B4B;}
	.st7{fill:#D03F3F;}
	.st8{opacity:0.2;}
	.st9{opacity:0.3;}
	.st10{fill:#AD2727;}
	.st11{fill:#E9EFF4;}
	.st12{fill:#DEE4E9;}
	.st13{fill:#65B1EF;}
	.st14{fill:#4E99D2;}
	.st15{opacity:0.25;}
	.st16{fill:#719D34;}
	.st17{fill:#38C0DC;}
	.st18{fill:#303538;}
	.st19{fill:#777B7E;}
	.st20{opacity:0.2;fill:#FFFFFF;}
	.st21{fill:#DE9C25;}
	.st22{fill:#45CBEA;}
	.st23{fill:#7A5B44;}
	.st24{fill:#8CC63E;}
</style>
<g>
	<g>
		<g>
			<g>
				<g>
					<g>
						<g>
							<g>
								<g>
									<g>
										<g>
											<g>
												<g>
													<g>
														<g>
															<g>
																<g>
																	<g>
																		<g>
																			<g>
																				<g>
																					<g>
																						<g>
																							<g>
																								<g>
																									<g>
																										<circle class="st0" cx="16" cy="16" r="16"/>
																									</g>
																								</g>
																							</g>
																						</g>
																					</g>
																				</g>
																				<g>
																					<g>
																						<path class="st3" d="M29.576,15.937l-0.05,0.11c-0.22,0.54-0.81,0.91-1.48,0.91h-0.11l-8.51-0.86
																							c-0.58-0.07-1.54-0.47-1.59-2.31c-0.04-1.82,0.94-5.47,2.59-5.74l6.54-0.86c0.03-0.01,0.12-0.01,0.18-0.01
																							c0.58,0,1.12,0.32,1.42,0.83C30.106,10.597,30.476,13.567,29.576,15.937z"/>
																						<path class="st3" d="M12.845,9.067c0.9,1.32,1.6,3.8,1.14,5.79c-0.15,0.66-0.69,1.15-1.39,1.24l-8.48,0.86
																							c-0.09,0-0.14,0.01-0.21,0.01c-0.65,0-1.24-0.4-1.46-0.99c-0.93-2.36-0.56-5.35,0.99-7.98
																							c0.19-0.36,0.6-0.81,1.47-0.81l6.63,0.85C12.026,8.137,12.446,8.467,12.845,9.067z"/>
																					</g>
																				</g>
																				<g>
																					<g>
																						<g>
																							<g>
																								<g>
																									<g>
																										<path class="st1" d="M32,16c0,8.84-7.165,16-16,16c-5.03,0-9.52-2.32-12.455-5.955
																											c2.745,2.22,6.24,3.545,10.045,3.545c8.835,0,16-7.16,16-16c0-3.805-1.325-7.3-3.545-10.045
																											C29.675,6.48,32,10.97,32,16z"/>
																									</g>
																								</g>
																							</g>
																						</g>
																					</g>
																				</g>
																			</g>
																		</g>
																	</g>
																</g>
															</g>
														</g>
													</g>
												</g>
											</g>
										</g>
									</g>
								</g>
							</g>
						</g>
					</g>
				</g>
			</g>
		</g>
	</g>
	<path class="st2" d="M29.366,7.527c-0.52-0.89-1.51-1.4-2.53-1.25c-6.4,0.85-7,0.74-7.75,1.38c-1.8,1.56-4.59,1.36-6.16,0
		c-0.32-0.27-0.7-0.45-1.26-0.52l-6.5-0.86c-1.01-0.13-2.01,0.36-2.52,1.25c-1.71,2.88-2.09,6.17-1.04,8.82
		c0.43,1.08,1.61,1.66,2.58,1.52l8.49-0.87c1.02-0.1,1.91-0.79,2.18-1.79c0.17-0.66,0.24-1.37,0.2-2.11
		c-0.03-0.53,0.4-1.02,0.94-1.02h0.01c1.33,0,0.7,1.45,1.14,3.13c0.26,1,1.16,1.69,2.18,1.79c0.22,0.03,8.53,0.88,8.75,0.88
		c1.02,0,1.96-0.61,2.32-1.53C31.435,13.697,31.066,10.407,29.366,7.527z M13.496,14.747c-0.1,0.46-0.48,0.79-0.96,0.85l-8.47,0.86
		c-0.04,0-0.08,0.01-0.16,0.01c-0.43,0-0.84-0.27-0.99-0.67c-0.88-2.23-0.52-5.05,0.95-7.55c0.2-0.38,0.55-0.56,1.04-0.56l6.57,0.85
		c0.31,0.06,0.63,0.32,0.96,0.81C13.276,10.587,13.925,12.907,13.496,14.747z M29.106,15.757l-0.03,0.06
		c-0.16,0.39-0.57,0.64-1.03,0.64h-0.06l-8.51-0.86c-0.72-0.09-1.11-0.72-1.14-1.82c-0.04-1.84,0.96-5.04,2.17-5.24l6.52-0.85
		c0.04-0.01,0.08-0.01,0.12-0.01c0.4,0,0.78,0.22,0.99,0.58C29.595,10.727,29.955,13.536,29.106,15.757z"/>
	<circle class="st2" cx="21.942" cy="12.732" r="2.211"/>
	<path class="st3" d="M21.389,12.392c-0.118,0.333-0.421,0.538-0.685,0.45c-0.274-0.088-0.401-0.431-0.284-0.773
		c0.108-0.333,0.411-0.538,0.675-0.45C21.369,11.707,21.496,12.05,21.389,12.392z"/>
	<circle class="st2" cx="10.075" cy="12.732" r="2.211"/>
	<path class="st3" d="M10.04,12.07c-0.108,0.333-0.411,0.538-0.685,0.45c-0.264-0.088-0.391-0.431-0.284-0.773
		c0.108-0.333,0.421-0.538,0.685-0.45C10.02,11.385,10.147,11.727,10.04,12.07z"/>
	<path class="st2" d="M24.328,22.122c-1.248,3.476-4.506,5.965-8.33,5.965c-3.813,0-7.071-2.489-8.33-5.965
		c-0.182-0.5,0.181-1.043,0.624-0.945c5.141,1.056,10.282,1.056,15.423,0C24.157,21.079,24.521,21.622,24.328,22.122z"/>
	<path class="st3" d="M15.998,22.966c0.62,0,1.24-0.01,1.87-0.04l-0.08,1.78c-0.6,0.06-1.2,0.08-1.79,0.08
		c-1.35,0-2.7-0.13-4.06-0.38c-0.44-0.08-0.87-0.18-1.3-0.28c-0.3-0.07-0.59-0.15-0.89-0.24c-0.36-0.48-0.68-1.02-0.93-1.59
		c0.57,0.11,1.14,0.2,1.71,0.28c0.38,0.06,0.77,0.11,1.15,0.15C13.128,22.886,14.568,22.966,15.998,22.966z"/>
	<path class="st3" d="M23.178,22.297c-0.25,0.58-0.57,1.11-0.94,1.6c-1.05,0.3-2.1,0.52-3.15,0.67l-0.08-1.72
		C20.408,22.736,21.798,22.557,23.178,22.297z"/>
	<path class="st6" d="M15.997,28.087c1.199,0,2.342-0.245,3.386-0.688c-0.045-0.221-0.111-0.435-0.197-0.638
		c-0.418-0.992-1.542-1.544-2.574-1.238c-0.26,0.077-0.547,0.12-0.863,0.12c-0.108,0-0.212-0.005-0.313-0.015
		c-1.276-0.122-2.46,0.625-2.79,1.782C13.68,27.845,14.812,28.087,15.997,28.087z"/>
</g>
</svg>
