<?xml version="1.0" encoding="utf-8"?>
<!-- Generator: Adobe Illustrator 21.1.0, SVG Export Plug-In . SVG Version: 6.00 Build 0)  -->
<svg version="1.1" id="Layer_1" xmlns="http://www.w3.org/2000/svg" xmlns:xlink="http://www.w3.org/1999/xlink" x="0px" y="0px"
	 viewBox="0 0 32 32" style="enable-background:new 0 0 32 32;" xml:space="preserve">
<style type="text/css">
	.st0{fill:#FFD93B;}
	.st1{fill:#F4C534;}
	.st2{fill:#3E4347;}
	.st3{fill:#FFFFFF;}
	.st4{fill:#5A5F63;}
	.st5{fill:#32373A;}
	.st6{fill:#E24B4B;}
	.st7{fill:#D03F3F;}
	.st8{opacity:0.2;}
	.st9{opacity:0.3;}
	.st10{fill:#AD2727;}
	.st11{fill:#E9EFF4;}
	.st12{fill:#DEE4E9;}
	.st13{fill:#65B1EF;}
	.st14{fill:#4E99D2;}
	.st15{opacity:0.25;}
	.st16{fill:#719D34;}
	.st17{fill:#38C0DC;}
	.st18{fill:#303538;}
	.st19{fill:#777B7E;}
	.st20{opacity:0.2;fill:#FFFFFF;}
	.st21{fill:#DE9C25;}
	.st22{fill:#45CBEA;}
	.st23{fill:#7A5B44;}
	.st24{fill:#8CC63E;}
</style>
<g>
	<circle class="st0" cx="16" cy="16" r="16"/>
	<path class="st1" d="M31.924,16c0,8.84-7.165,16-16,16c-5.03,0-9.52-2.32-12.455-5.955c2.745,2.22,6.24,3.545,10.045,3.545
		c8.835,0,16-7.16,16-16c0-3.805-1.325-7.3-3.545-10.045C29.599,6.48,31.924,10.97,31.924,16z"/>
	<path class="st2" d="M20.905,4.764c-5.46-3.24-9.48-0.27-9.81-0.02C16-2.125,20.905,4.764,20.905,4.764z"/>
	<circle class="st1" cx="16" cy="12.964" r="7.38"/>
	<ellipse class="st21" cx="16" cy="12.964" rx="7.38" ry="5.412"/>
	<path class="st3" d="M23.377,12.964c0,1.54-3.3,2.79-7.38,2.79c-4.08,0-7.38-1.25-7.38-2.79c0-2.99,3.3-5.41,7.38-5.41
		C20.077,7.554,23.377,9.974,23.377,12.964z"/>
	<path class="st2" d="M18.37,15.604c-0.74,0.1-1.54,0.15-2.37,0.15s-1.63-0.05-2.37-0.15c-2.02-2.055-0.539-5.58,2.37-5.58
		C18.901,10.024,20.397,13.542,18.37,15.604z"/>
	
		<ellipse transform="matrix(0.7071 -0.7071 0.7071 0.7071 -3.464 15.7389)" class="st3" cx="17.267" cy="12.051" rx="0.55" ry="0.991"/>
	<path class="st2" d="M24.037,22.202c0.984,0.554-1.378,5.699-8.037,5.702c-6.659-0.003-9.021-5.147-8.037-5.702
		c0.81-0.68,3.501,2.019,8.037,1.936C20.536,24.222,23.226,21.521,24.037,22.202z"/>
	<path class="st3" d="M19.848,25.599c0.038,0.113,0.152,0.177,0.251,0.141l1.405-0.514c0.084-0.03,0.124-0.126,0.095-0.223
		l-0.46-1.956c-0.532,0.222-1.134,0.446-1.804,0.635L19.848,25.599z"/>
	<path class="st3" d="M17.343,26.503c0.049,0.141,0.189,0.227,0.32,0.189l1.587-0.455c0.143-0.043,0.211-0.211,0.155-0.365
		l-0.236-2.141c-0.706,0.19-1.479,0.335-2.313,0.386L17.343,26.503z"/>
	<path class="st3" d="M11.137,23.16l-0.434,1.906c-0.028,0.098,0.013,0.193,0.097,0.224l1.102,0.449
		c0.098,0.036,0.212-0.029,0.25-0.141l0.514-1.916C12.11,23.525,11.599,23.345,11.137,23.16z"/>
	<path class="st3" d="M12.832,23.731l-0.236,2.141c-0.056,0.154,0.011,0.322,0.155,0.365l2.368,0.559
		c0.132,0.038,0.271-0.049,0.317-0.19l0.459-2.471C14.774,24.144,13.746,23.976,12.832,23.731z"/>
	<path class="st1" d="M25.11,24.04c0.106-0.743,0.432-1.52,0.035-2.218c-0.217-0.48-0.722-0.789-1.124-0.88
		c-0.528-0.093-0.267-0.005-0.735-0.062c1.024-0.428,1.86-0.035,2.261,0.741C25.963,22.493,25.642,23.277,25.11,24.04z"/>
	<path class="st1" d="M6.89,24.04c-0.106-0.743-0.432-1.52-0.035-2.218c0.217-0.48,0.721-0.789,1.124-0.88
		c0.528-0.093,0.267-0.005,0.735-0.062c-1.024-0.428-1.86-0.035-2.261,0.741C6.037,22.493,6.358,23.277,6.89,24.04z"/>
</g>
</svg>
