<?xml version="1.0" encoding="utf-8"?>
<!-- Generator: Adobe Illustrator 21.1.0, SVG Export Plug-In . SVG Version: 6.00 Build 0)  -->
<svg version="1.1" id="Layer_1" xmlns="http://www.w3.org/2000/svg" xmlns:xlink="http://www.w3.org/1999/xlink" x="0px" y="0px"
	 viewBox="0 0 32 32" style="enable-background:new 0 0 32 32;" xml:space="preserve">
<style type="text/css">
	.st0{fill:#FFD93B;}
	.st1{fill:#3E4347;}
	.st2{fill:#F4C534;}
	.st3{fill:#38C0DC;}
	.st4{fill:#45CBEA;}
	.st5{fill:#FFFFFF;}
	.st6{fill:#E24B4B;}
	.st7{fill:#5A5F63;}
	.st8{opacity:0.3;}
	.st9{opacity:0.2;}
	.st10{opacity:0.1;}
	.st11{fill:#E9B02C;}
	.st12{fill:#65B1EF;}
	.st13{fill:#E9EFF4;}
	.st14{fill:#8CC63E;}
	.st15{fill:#7FB239;}
	.st16{fill:#D03F3F;}
	.st17{fill:#D23F77;}
	.st18{fill:#E84D88;}
	.st19{fill:#59A5E0;}
	.st20{fill:#DEE4E9;}
	.st21{fill:#D3D9DD;}
	.st22{opacity:0.25;fill:#FFFFFF;}
	.st23{fill:#9A795F;}
	.st24{fill:#F29A2E;}
	.st25{fill:#FC97B2;}
	.st26{fill:#89664C;}
	.st27{fill:#7A5B44;}
	.st28{opacity:0.2;fill:#FFFFFF;}
	.st29{fill:#4E99D2;}
	.st30{fill:#BBC7D1;}
	.st31{fill:#DE9C25;}
</style>
<g>
	<g>
		<g>
			<g>
				<g>
					<g>
						<g>
							<g>
								<g>
									<g>
										<g>
											<g>
												<g>
													<g>
														<g>
															<g>
																<g>
																	<circle class="st0" cx="16" cy="16" r="16"/>
																</g>
															</g>
														</g>
													</g>
												</g>
											</g>
										</g>
									</g>
								</g>
								<g>
									<g>
										<g>
											<g>
												<g>
													<g>
														<g>
															<g>
																<g>
																	<path class="st2" d="M32,16c0,8.84-7.165,16-16,16c-5.03,0-9.52-2.32-12.455-5.955
																		c2.745,2.22,6.24,3.545,10.045,3.545c8.835,0,16-7.16,16-16c0-3.805-1.325-7.3-3.545-10.045
																		C29.675,6.48,32,10.97,32,16z"/>
																</g>
															</g>
														</g>
													</g>
												</g>
											</g>
										</g>
									</g>
								</g>
							</g>
						</g>
					</g>
				</g>
			</g>
		</g>
	</g>
	
		<ellipse transform="matrix(0.9189 -0.3946 0.3946 0.9189 -3.2398 4.4444)" class="st5" cx="9.187" cy="10.1" rx="4.814" ry="4.811"/>
	<path class="st1" d="M11.7,11.225c0.263,1.162-0.466,2.318-1.636,2.582c-1.162,0.263-2.318-0.466-2.58-1.629
		C7.221,11.017,7.95,9.861,9.112,9.598C10.282,9.334,11.438,10.063,11.7,11.225z"/>
	
		<ellipse transform="matrix(0.5337 -0.8457 0.8457 0.5337 -4.3318 13.6306)" class="st5" cx="10.195" cy="10.743" rx="0.42" ry="0.673"/>
	<path class="st1" d="M2.379,8.698C1.985,8.572,1.768,8.149,1.895,7.755c0.678-2.11,2.234-3.821,4.265-4.694
		c1.4-0.601,2.924-0.772,4.413-0.497c0.406,0.075,0.676,0.467,0.601,0.874c-0.076,0.408-0.467,0.675-0.874,0.602
		c-1.194-0.221-2.424-0.081-3.548,0.4c-1.634,0.701-2.883,2.077-3.43,3.775C3.197,8.606,2.776,8.826,2.379,8.698z"/>
	
		<ellipse transform="matrix(0.3608 -0.9327 0.9327 0.3608 4.2067 28.1565)" class="st5" cx="22.644" cy="11.009" rx="4.811" ry="4.814"/>
	<path class="st1" d="M19.466,9.311c-0.22,1.171,0.551,2.299,1.73,2.521c1.171,0.22,2.299-0.551,2.519-1.722
		c0.22-1.171-0.551-2.299-1.722-2.519C20.814,7.369,19.686,8.14,19.466,9.311z"/>
	
		<ellipse transform="matrix(0.8256 -0.5642 0.5642 0.8256 -1.297 13.3523)" class="st5" cx="20.953" cy="8.775" rx="0.673" ry="0.42"/>
	<path class="st1" d="M29.397,9.36c0.389-0.141,0.59-0.571,0.449-0.96c-0.755-2.084-2.372-3.737-4.434-4.535
		c-1.421-0.549-2.95-0.665-4.428-0.336c-0.403,0.09-0.659,0.491-0.569,0.895c0.091,0.405,0.491,0.658,0.896,0.569
		c1.186-0.265,2.42-0.17,3.56,0.27c1.658,0.641,2.957,1.971,3.565,3.647C28.576,9.298,29.004,9.502,29.397,9.36z"/>
	<path class="st1" d="M21.652,24.527c0.326,1.912,0.531,3.616-2.396,4.956c-1.896,0.868-4.102,0.954-6.024,0.144
		c-2.77-1.167-2.623-2.985-2.423-4.921c0.119-1.154-0.021-2.324-0.407-3.418c-0.735-2.085-1.268-3.609,3.061-5.023
		c1.599-0.522,3.34-0.514,4.933,0.025c4.258,1.442,3.92,2.981,3.402,4.985C21.523,22.337,21.468,23.447,21.652,24.527z"/>
	<path class="st6" d="M20.375,28.571c0.13-0.354,0.221-0.727,0.257-1.121c0.1-1.21-0.3-2.34-1.02-3.19
		c-0.62-0.73-1.62-0.89-2.51-0.56c-0.75,0.28-1.57,0.34-2.36,0.23c-0.85-0.12-1.75,0.15-2.2,0.88c-0.51,0.84-0.75,1.87-0.58,3
		c0.042,0.262,0.117,0.514,0.207,0.761H20.375z"/>
	<path class="st5" d="M18.396,16.29c-1.593-0.539-3.334-0.547-4.933-0.025c-3.065,1.001-3.689,2.058-3.534,3.329
		c1.614-0.307,3.765-0.712,6.071-0.713c2.35,0.001,4.481,0.422,6.092,0.731C22.111,18.37,21.395,17.305,18.396,16.29z"/>
	<path class="st5" d="M21.811,26.552c-1.632,0.273-3.595,0.728-5.82,0.729c-1.902-0.001-3.73-0.4-5.249-0.634
		c0.117,1.172,0.678,2.215,2.49,2.979c1.922,0.81,4.127,0.725,6.023-0.144C21.102,28.638,21.701,27.648,21.811,26.552z"/>
</g>
</svg>
