<?xml version="1.0" encoding="utf-8"?>
<!-- Generator: Adobe Illustrator 21.1.0, SVG Export Plug-In . SVG Version: 6.00 Build 0)  -->
<svg version="1.1" id="Layer_1" xmlns="http://www.w3.org/2000/svg" xmlns:xlink="http://www.w3.org/1999/xlink" x="0px" y="0px"
	 viewBox="0 0 32 32" style="enable-background:new 0 0 32 32;" xml:space="preserve">
<style type="text/css">
	.st0{fill:#FFD93B;}
	.st1{fill:#3E4347;}
	.st2{fill:#F4C534;}
	.st3{fill:#38C0DC;}
	.st4{fill:#45CBEA;}
	.st5{fill:#FFFFFF;}
	.st6{fill:#E24B4B;}
	.st7{fill:#5A5F63;}
	.st8{opacity:0.3;}
	.st9{opacity:0.2;}
	.st10{opacity:0.1;}
	.st11{fill:#E9B02C;}
	.st12{fill:#65B1EF;}
	.st13{fill:#E9EFF4;}
	.st14{fill:#8CC63E;}
	.st15{fill:#7FB239;}
	.st16{fill:#D03F3F;}
	.st17{fill:#D23F77;}
	.st18{fill:#E84D88;}
	.st19{fill:#59A5E0;}
	.st20{fill:#DEE4E9;}
	.st21{fill:#D3D9DD;}
	.st22{opacity:0.25;fill:#FFFFFF;}
	.st23{fill:#9A795F;}
	.st24{fill:#F29A2E;}
	.st25{fill:#FC97B2;}
	.st26{fill:#89664C;}
	.st27{fill:#7A5B44;}
	.st28{opacity:0.2;fill:#FFFFFF;}
	.st29{fill:#4E99D2;}
	.st30{fill:#BBC7D1;}
	.st31{fill:#DE9C25;}
</style>
<g>
	<circle class="st0" cx="16" cy="16" r="16"/>
	<path class="st2" d="M32,16c0,8.84-7.165,16-16,16c-5.03,0-9.52-2.32-12.455-5.955c2.745,2.22,6.24,3.545,10.045,3.545
		c8.835,0,16-7.16,16-16c0-3.805-1.325-7.3-3.545-10.045C29.675,6.48,32,10.97,32,16z"/>
	<g>
		<path class="st2" d="M14.94,14.627c0,2.595-1.74,4.688-3.887,4.688c-2.156,0-3.895-2.094-3.895-4.688
			c0-2.585,1.739-4.678,3.895-4.678C13.201,9.948,14.94,12.042,14.94,14.627z"/>
	</g>
	<g>
		<g>
			<path class="st1" d="M14.83,15.817c-0.216-0.783-1.821-1.381-3.777-1.381c-1.964,0-3.569,0.599-3.785,1.381
				c0.216-1.749,1.821-3.106,3.785-3.106C13.01,12.711,14.615,14.069,14.83,15.817z"/>
		</g>
	</g>
	<g>
		<path class="st1" d="M6.77,9.351C6.654,9.033,6.817,8.681,7.136,8.565l5.988-2.185c0.32-0.115,0.67,0.048,0.785,0.365
			c0.116,0.318-0.047,0.669-0.365,0.786L7.555,9.716C7.234,9.832,6.885,9.666,6.77,9.351z"/>
	</g>
	<g>
		<path class="st2" d="M17.06,14.627c0,2.595,1.74,4.688,3.887,4.688c2.156,0,3.895-2.094,3.895-4.688
			c0-2.585-1.739-4.678-3.895-4.678C18.799,9.948,17.06,12.042,17.06,14.627z"/>
	</g>
	<g>
		<g>
			<path class="st1" d="M17.17,15.817c0.216-0.783,1.821-1.381,3.777-1.381c1.964,0,3.569,0.599,3.785,1.381
				c-0.216-1.749-1.821-3.106-3.785-3.106C18.99,12.711,17.385,14.069,17.17,15.817z"/>
		</g>
	</g>
	<g>
		<path class="st1" d="M24.445,9.716l-5.988-2.185c-0.318-0.116-0.482-0.468-0.365-0.786c0.116-0.317,0.467-0.48,0.785-0.365
			l5.988,2.185c0.318,0.116,0.482,0.468,0.365,0.786C25.116,9.666,24.766,9.832,24.445,9.716z"/>
	</g>
	<path class="st1" d="M25.431,22.261c-0.375,0.094-0.839-0.062-1.12-0.33c-0.01,0.01-0.01,0.02-0.02,0.03
		c-1.565,2.904-4.523,4.9-8.29,4.96c-3.633-0.028-6.687-1.986-8.29-4.96c-0.01-0.01-0.01-0.02-0.02-0.03
		c-0.304,0.291-0.788,0.419-1.12,0.33c0-0.02,0.44-0.39,0.78-0.7c0.34-0.29,0.66-0.74,0.68-0.75c0.116,0.272,0.018,0.776-0.31,1.09
		c2.589,2.852,5.376,3.799,8.278,3.799c3.403-0.055,5.981-1.271,8.282-3.799c-0.329-0.314-0.427-0.819-0.31-1.09
		c0.02,0.01,0.34,0.46,0.68,0.75C24.991,21.871,25.431,22.241,25.431,22.261z"/>
</g>
</svg>
