<?xml version="1.0" encoding="utf-8"?>
<!-- Generator: Adobe Illustrator 21.1.0, SVG Export Plug-In . SVG Version: 6.00 Build 0)  -->
<svg version="1.1" id="Layer_1" xmlns="http://www.w3.org/2000/svg" xmlns:xlink="http://www.w3.org/1999/xlink" x="0px" y="0px"
	 viewBox="0 0 32 32" style="enable-background:new 0 0 32 32;" xml:space="preserve">
<style type="text/css">
	.st0{fill:#FFD93B;}
	.st1{fill:#F4C534;}
	.st2{fill:#3E4347;}
	.st3{fill:#FFFFFF;}
	.st4{fill:#5A5F63;}
	.st5{fill:#32373A;}
	.st6{fill:#E24B4B;}
	.st7{fill:#D03F3F;}
	.st8{opacity:0.2;}
	.st9{opacity:0.3;}
	.st10{fill:#AD2727;}
	.st11{fill:#E9EFF4;}
	.st12{fill:#DEE4E9;}
	.st13{fill:#65B1EF;}
	.st14{fill:#4E99D2;}
	.st15{opacity:0.25;}
	.st16{fill:#719D34;}
	.st17{fill:#38C0DC;}
	.st18{fill:#303538;}
	.st19{fill:#777B7E;}
	.st20{opacity:0.2;fill:#FFFFFF;}
	.st21{fill:#DE9C25;}
	.st22{fill:#45CBEA;}
	.st23{fill:#7A5B44;}
	.st24{fill:#8CC63E;}
</style>
<g>
	<circle class="st0" cx="16" cy="14.521" r="14.521"/>
	<path class="st1" d="M30.521,14.521c0,8.023-6.503,14.521-14.521,14.521c-4.565,0-8.64-2.106-11.304-5.405
		c2.491,2.015,5.663,3.217,9.116,3.217c8.018,0,14.521-6.498,14.521-14.521c0-3.453-1.202-6.625-3.217-9.116
		C28.411,5.881,30.521,9.956,30.521,14.521z"/>
	<g>
		<path class="st2" d="M13.036,12.397l-1.225,1.225l1.225,1.225c0.39,0.39,0.39,1.044,0,1.434l-0.009,0.009
			c-0.39,0.39-1.044,0.39-1.434,0l-1.225-1.225l-1.225,1.225c-0.39,0.39-1.044,0.39-1.434,0l-0.009-0.009
			c-0.39-0.39-0.39-1.044,0-1.434l1.225-1.225l-1.225-1.225c-0.39-0.39-0.39-1.044,0-1.443c0.398-0.397,1.082-0.378,1.443,0
			l1.225,1.225l1.225-1.225c0.39-0.39,1.044-0.39,1.434,0h0.009C13.426,11.354,13.426,12.007,13.036,12.397z"/>
		<path class="st2" d="M24.301,16.282v0.009c-0.399,0.39-1.053,0.39-1.443,0l-1.225-1.225l-1.216,1.225
			c-0.399,0.39-1.053,0.39-1.443,0v-0.009c-0.399-0.39-0.399-1.044,0-1.434l1.216-1.225l-1.216-1.225
			c-0.399-0.39-0.399-1.044,0-1.443c0.402-0.401,1.068-0.375,1.443,0l1.216,1.225l1.225-1.225c0.39-0.39,1.044-0.39,1.443,0
			c0.389,0.408,0.386,1.057,0,1.443l-1.225,1.225l1.225,1.225C24.691,15.238,24.691,15.892,24.301,16.282z"/>
	</g>
	<path class="st2" d="M24.545,19.509c0.752,0.191-1.734,5.912-8.455,5.898c-6.723,0.026-9.214-5.698-8.448-5.898
		c0.529-0.347,3.432,3.257,8.455,3.257C21.124,22.767,24.03,19.173,24.545,19.509z"/>
	<g>
		<path class="st1" d="M23.493,18.379c0,0,2.601-0.24,2.376,1.722C25.869,20.101,26.969,17.093,23.493,18.379z"/>
	</g>
	<g>
		<path class="st1" d="M8.507,18.379c0,0-2.601-0.24-2.376,1.722C6.131,20.101,5.031,17.093,8.507,18.379z"/>
	</g>
	<path class="st2" d="M7.866,19.507H7.639C7.693,19.471,7.766,19.48,7.866,19.507z"/>
	<path class="st6" d="M16.088,32c-1.961,0.035-4.079-3.425-4.035-7.726c0.068-0.749,0.861-1.111,1.544-0.858
		c1.608,0.562,3.366,0.58,4.993,0.056c0.682-0.235,1.473,0.136,1.54,0.869C20.168,28.551,18.048,31.971,16.088,32z"/>
</g>
</svg>
