<?xml version="1.0" encoding="utf-8"?>
<!-- Generator: Adobe Illustrator 21.1.0, SVG Export Plug-In . SVG Version: 6.00 Build 0)  -->
<svg version="1.1" id="Layer_1" xmlns="http://www.w3.org/2000/svg" xmlns:xlink="http://www.w3.org/1999/xlink" x="0px" y="0px"
	 viewBox="0 0 32 32" style="enable-background:new 0 0 32 32;" xml:space="preserve">
<style type="text/css">
	.st0{fill:#FFD93B;}
	.st1{fill:#FFFFFF;}
	.st2{fill:#89664C;}
	.st3{fill:#3E4347;}
	.st4{fill:#E24B4B;}
	.st5{fill:#F29A2E;}
	.st6{fill:#5A5F63;}
	.st7{fill:#E18823;}
	.st8{fill:#65B1EF;}
	.st9{fill:#D03F3F;}
	.st10{opacity:0.2;}
	.st11{fill:#DEE4E9;}
	.st12{fill:#45CBEA;}
	.st13{fill:#F4C534;}
	.st14{fill:#BF3333;}
	.st15{fill:#D23F77;}
	.st16{fill:#E84D88;}
	.st17{fill:#7A5B44;}
	.st18{fill:#6B503B;}
	.st19{opacity:0.2;fill:#FFFFFF;}
	.st20{fill:#4E99D2;}
	.st21{fill:none;}
	.st22{opacity:0.15;fill:#FFFFFF;}
	.st23{fill:#8CC63E;}
	.st24{fill:#9A795F;}
	.st25{fill:#E9EFF4;}
</style>
<g>
	<circle class="st0" cx="16" cy="16" r="16"/>
	<path class="st13" d="M32,16c0,8.84-7.165,16-16,16c-5.03,0-9.52-2.32-12.455-5.955c2.745,2.22,6.24,3.545,10.045,3.545
		c8.835,0,16-7.16,16-16c0-3.805-1.325-7.3-3.545-10.045C29.675,6.48,32,10.97,32,16z"/>
	<path class="st3" d="M24.232,9.372c-0.572-1.212-3.092-4.09-5.435-2.781C20.744,3.656,23.842,4.97,24.232,9.372z"/>
	<path class="st3" d="M7.768,9.372c0.572-1.212,3.093-4.09,5.435-2.781C11.256,3.656,8.158,4.97,7.768,9.372z"/>
	<g>
		<path class="st3" d="M14.454,13.894c-0.51,1.67-2.34,3.11-4.61,2.57c-1.99-0.48-3.19-2.59-2.89-4.34
			c0.06-0.32,0.49-0.39,0.71-0.14c1.3,1.52,4.3,2.21,6.26,1.45C14.234,13.314,14.554,13.583,14.454,13.894z"/>
		<path class="st3" d="M22.154,16.463c-2.27,0.54-4.1-0.9-4.61-2.57c-0.1-0.31,0.23-0.58,0.53-0.46c1.96,0.76,4.96,0.07,6.27-1.45
			c0.21-0.25,0.64-0.18,0.7,0.14C25.354,13.873,24.154,15.983,22.154,16.463z"/>
	</g>
	<path class="st3" d="M8.011,25.431c1.23-3.792,4.565-6.646,7.986-6.659c3.428,0.013,6.762,2.87,7.992,6.659
		c0.149,0.477-0.452,0.92-1.035,0.746c-4.844-1.462-9.072-1.456-13.916,0C8.463,26.35,7.862,25.912,8.011,25.431z"/>
	<path class="st1" d="M11.586,20.37c1.331,0.233,2.826,0.367,4.414,0.367c1.587,0,3.082-0.134,4.412-0.367
		c-1.329-0.997-2.861-1.592-4.416-1.598C14.445,18.778,12.913,19.372,11.586,20.37z"/>
	<path class="st4" d="M19.025,22.808c-0.613-0.248-1.291-0.212-1.904,0.044c-0.576,0.233-1.24,0.372-1.992,0.372
		c-0.387,0-0.744-0.036-1.087-0.102c-1.014-0.197-2.101,0.058-2.795,0.824c-0.423,0.46-0.664,0.992-0.664,1.561
		c0,0.085,0.01,0.168,0.021,0.252c3.694-0.89,7.099-0.893,10.793,0.001c0.011-0.084,0.021-0.167,0.021-0.253
		C21.418,24.376,20.469,23.392,19.025,22.808z"/>
</g>
</svg>
