<?xml version="1.0" encoding="utf-8"?>
<!-- Generator: Adobe Illustrator 21.1.0, SVG Export Plug-In . SVG Version: 6.00 Build 0)  -->
<svg version="1.1" id="Layer_1" xmlns="http://www.w3.org/2000/svg" xmlns:xlink="http://www.w3.org/1999/xlink" x="0px" y="0px"
	 viewBox="0 0 32 32" style="enable-background:new 0 0 32 32;" xml:space="preserve">
<style type="text/css">
	.st0{fill:#FFD93B;}
	.st1{fill:#FFFFFF;}
	.st2{fill:#89664C;}
	.st3{fill:#3E4347;}
	.st4{fill:#E24B4B;}
	.st5{fill:#F29A2E;}
	.st6{fill:#5A5F63;}
	.st7{fill:#E18823;}
	.st8{fill:#65B1EF;}
	.st9{fill:#D03F3F;}
	.st10{opacity:0.2;}
	.st11{fill:#DEE4E9;}
	.st12{fill:#45CBEA;}
	.st13{fill:#F4C534;}
	.st14{fill:#BF3333;}
	.st15{fill:#D23F77;}
	.st16{fill:#E84D88;}
	.st17{fill:#7A5B44;}
	.st18{fill:#6B503B;}
	.st19{opacity:0.2;fill:#FFFFFF;}
	.st20{fill:#4E99D2;}
	.st21{fill:none;}
	.st22{opacity:0.15;fill:#FFFFFF;}
	.st23{fill:#8CC63E;}
	.st24{fill:#9A795F;}
	.st25{fill:#E9EFF4;}
</style>
<g>
	<circle class="st0" cx="16" cy="15.102" r="15.102"/>
	<path class="st13" d="M31.102,15.102c0,8.344-6.763,15.102-15.102,15.102c-4.748,0-8.986-2.19-11.756-5.621
		c2.591,2.095,5.89,3.346,9.481,3.346c8.339,0,15.102-6.758,15.102-15.102c0-3.591-1.251-6.89-3.346-9.481
		C28.907,6.116,31.102,10.354,31.102,15.102z"/>
	<path class="st3" d="M24.561,22.933c-0.593,0.399-3.703-2.851-8.216-2.709c-4.502-0.124-7.607,3.115-8.215,2.709
		c-0.841-0.267,2.025-6.165,8.205-6.159C22.526,16.773,25.386,22.679,24.561,22.933z"/>
	<path class="st3" d="M14.073,12.612c-0.698-0.212-1.453-0.306-2.234-0.247c-1.525,0.116-2.857,0.775-3.806,1.746
		c-0.325,0.328-0.859,0.037-0.789-0.413c0.267-1.847,1.783-3.334,3.731-3.482c1.468-0.111,2.817,0.572,3.611,1.686
		C14.841,12.251,14.49,12.742,14.073,12.612z"/>
	<path class="st3" d="M17.927,12.612c0.698-0.212,1.453-0.306,2.234-0.247c1.525,0.116,2.857,0.775,3.806,1.746
		c0.325,0.328,0.859,0.037,0.789-0.413c-0.267-1.847-1.783-3.334-3.731-3.482c-1.468-0.111-2.817,0.572-3.611,1.686
		C17.159,12.251,17.51,12.742,17.927,12.612z"/>
	<path class="st23" d="M21.041,21.25v9.646c0,1.463-9.401,1.482-9.401,0v-9.637C12.246,18.545,20.328,18.575,21.041,21.25z"/>
</g>
</svg>
