<?xml version="1.0" encoding="utf-8"?>
<!-- Generator: Adobe Illustrator 21.1.0, SVG Export Plug-In . SVG Version: 6.00 Build 0)  -->
<svg version="1.1" id="Layer_1" xmlns="http://www.w3.org/2000/svg" xmlns:xlink="http://www.w3.org/1999/xlink" x="0px" y="0px"
	 viewBox="0 0 32 32" style="enable-background:new 0 0 32 32;" xml:space="preserve">
<style type="text/css">
	.st0{fill:#FFD93B;}
	.st1{fill:#FFFFFF;}
	.st2{fill:#89664C;}
	.st3{fill:#3E4347;}
	.st4{fill:#E24B4B;}
	.st5{fill:#F29A2E;}
	.st6{fill:#5A5F63;}
	.st7{fill:#E18823;}
	.st8{fill:#65B1EF;}
	.st9{fill:#D03F3F;}
	.st10{opacity:0.2;}
	.st11{fill:#DEE4E9;}
	.st12{fill:#45CBEA;}
	.st13{fill:#F4C534;}
	.st14{fill:#BF3333;}
	.st15{fill:#D23F77;}
	.st16{fill:#E84D88;}
	.st17{fill:#7A5B44;}
	.st18{fill:#6B503B;}
	.st19{opacity:0.2;fill:#FFFFFF;}
	.st20{fill:#4E99D2;}
	.st21{fill:none;}
	.st22{opacity:0.15;fill:#FFFFFF;}
	.st23{fill:#8CC63E;}
	.st24{fill:#9A795F;}
	.st25{fill:#E9EFF4;}
</style>
<g>
	<circle class="st0" cx="16" cy="16" r="16"/>
	<path class="st13" d="M32,16c0,8.84-7.165,16-16,16c-5.03,0-9.52-2.32-12.455-5.955c2.745,2.22,6.24,3.545,10.045,3.545
		c8.835,0,16-7.16,16-16c0-3.805-1.325-7.3-3.545-10.045C29.675,6.48,32,10.97,32,16z"/>
	<path class="st3" d="M26.348,21.664c-1.557,3.804-5.605,6.516-10.351,6.516c-4.746,0-8.783-2.712-10.351-6.516
		c-0.169-0.424,0.074-0.9,0.519-0.985c6.579-1.197,13.137-1.187,19.664,0C26.274,20.764,26.517,21.24,26.348,21.664z"/>
	<path class="st1" d="M6.558,20.616c2.409,3.5,4.643,3.059,9.415,3.365c4.608,0.295,7.237,0.73,9.419-3.372
		C19.14,19.523,12.859,19.516,6.558,20.616z"/>
	<path class="st3" d="M14.137,12.518c-3.077-0.517-6.754,1.071-8.546,3.714c-0.268,0.397-0.896,0.221-0.933-0.25
		c-0.194-3.169,2.328-6.098,5.756-6.098c1.645,0,3.123,0.693,4.176,1.802C14.923,12.028,14.599,12.592,14.137,12.518z"/>
	<path class="st3" d="M17.862,12.518c3.077-0.517,6.754,1.071,8.546,3.714c0.268,0.397,0.896,0.221,0.933-0.25
		c0.194-3.169-2.328-6.098-5.756-6.098c-1.644,0-3.123,0.693-4.176,1.802C17.077,12.028,17.401,12.592,17.862,12.518z"/>
</g>
</svg>
