<?xml version="1.0" encoding="utf-8"?>
<!-- Generator: Adobe Illustrator 21.1.0, SVG Export Plug-In . SVG Version: 6.00 Build 0)  -->
<svg version="1.1" id="Layer_1" xmlns="http://www.w3.org/2000/svg" xmlns:xlink="http://www.w3.org/1999/xlink" x="0px" y="0px"
	 viewBox="0 0 32 32" style="enable-background:new 0 0 32 32;" xml:space="preserve">
<style type="text/css">
	.st0{fill:#FFD93B;}
	.st1{fill:#FFFFFF;}
	.st2{fill:#89664C;}
	.st3{fill:#3E4347;}
	.st4{fill:#E24B4B;}
	.st5{fill:#F29A2E;}
	.st6{fill:#5A5F63;}
	.st7{fill:#E18823;}
	.st8{fill:#65B1EF;}
	.st9{fill:#D03F3F;}
	.st10{opacity:0.2;}
	.st11{fill:#DEE4E9;}
	.st12{fill:#45CBEA;}
	.st13{fill:#F4C534;}
	.st14{fill:#BF3333;}
	.st15{fill:#D23F77;}
	.st16{fill:#E84D88;}
	.st17{fill:#7A5B44;}
	.st18{fill:#6B503B;}
	.st19{opacity:0.2;fill:#FFFFFF;}
	.st20{fill:#4E99D2;}
	.st21{fill:none;}
	.st22{opacity:0.15;fill:#FFFFFF;}
	.st23{fill:#8CC63E;}
	.st24{fill:#9A795F;}
	.st25{fill:#E9EFF4;}
</style>
<g>
	<circle class="st0" cx="16" cy="16" r="16"/>
	<path class="st13" d="M32,16c0,8.84-7.165,16-16,16c-5.03,0-9.52-2.32-12.455-5.955c2.745,2.22,6.24,3.545,10.045,3.545
		c8.835,0,16-7.16,16-16c0-3.805-1.325-7.3-3.545-10.045C29.675,6.48,32,10.97,32,16z"/>
	<path class="st13" d="M15.295,14.152c0,2.781-2.254,5.035-5.026,5.035c-2.781,0-5.034-2.253-5.034-5.035
		c0-2.773,2.254-5.026,5.034-5.026C13.041,9.126,15.295,11.379,15.295,14.152z"/>
	<circle class="st1" cx="10.266" cy="14.155" r="3.979"/>
	<path class="st3" d="M12.267,14.152c0,1.097-0.901,2.007-1.999,1.999c-1.097,0-1.998-0.902-1.998-1.999
		c0-1.097,0.901-1.999,1.998-1.999C11.366,12.153,12.267,13.055,12.267,14.152z"/>
	<path class="st13" d="M15.261,14.696c-0.264,2.526-2.407,4.491-4.992,4.491c-2.594,0-4.737-1.965-5-4.491
		C8.602,15.955,11.927,15.955,15.261,14.696z"/>
	
		<ellipse transform="matrix(0.7071 -0.7071 0.7071 0.7071 -6.2656 11.71)" class="st1" cx="11.002" cy="13.418" rx="0.374" ry="0.544"/>
	<path class="st13" d="M16.705,14.152c0,2.781,2.254,5.035,5.026,5.035c2.781,0,5.035-2.253,5.035-5.035
		c0-2.773-2.254-5.026-5.035-5.026C18.959,9.126,16.705,11.379,16.705,14.152z"/>
	<circle class="st1" cx="21.734" cy="14.155" r="3.979"/>
	<path class="st3" d="M19.733,14.152c0,1.097,0.901,2.007,1.999,1.999c1.097,0,1.998-0.902,1.998-1.999
		c0-1.097-0.901-1.999-1.998-1.999C20.634,12.153,19.733,13.055,19.733,14.152z"/>
	<path class="st13" d="M16.739,14.696c0.264,2.526,2.407,4.491,4.992,4.491c2.594,0,4.737-1.965,5.001-4.491
		C23.398,15.955,20.073,15.955,16.739,14.696z"/>
	
		<ellipse transform="matrix(0.7071 -0.7071 0.7071 0.7071 -3.3381 18.7776)" class="st1" cx="20.997" cy="13.418" rx="0.544" ry="0.374"/>
	<path class="st3" d="M24.425,21.764c0.857,0.438-1.758,5.525-8.331,5.515c-6.573,0.009-9.188-5.077-8.331-5.515
		c0.699-0.546,3.771,2.116,8.331,1.996C20.654,23.878,23.726,21.22,24.425,21.764z"/>
	<path class="st13" d="M24.467,24.228c0.393-0.735,0.985-2.131,0.467-2.788c-0.628-0.833-1.676-0.397-2.725-0.103
		c1.003-0.704,2.297-1.101,3.048-0.132C25.871,22.079,25.238,23.5,24.467,24.228z"/>
	<path class="st13" d="M7.533,24.228c-0.393-0.735-0.985-2.131-0.466-2.788c0.628-0.833,1.676-0.397,2.725-0.103
		c-1.003-0.704-2.297-1.101-3.048-0.132C6.129,22.079,6.762,23.5,7.533,24.228z"/>
	<path class="st3" d="M3.683,8.098c0,0,2.939-3.338,6.875-2.903C10.557,5.195,6.248,1.629,3.683,8.098z"/>
	<path class="st3" d="M28.317,8.098c0,0-2.939-3.338-6.875-2.903C21.443,5.195,25.752,1.629,28.317,8.098z"/>
	<path class="st1" d="M16.208,23.759l0.244,2.207c0.016,0.193,0.153,0.343,0.327,0.364c0.893,0.058,1.879-0.226,2.323-0.375
		c0.142-0.039,0.24-0.188,0.251-0.351l0.161-2.261C18.53,23.601,17.424,23.778,16.208,23.759z"/>
	<path class="st1" d="M12.646,23.337l0.161,2.268c0.011,0.162,0.109,0.312,0.251,0.351c0.444,0.148,1.43,0.433,2.323,0.375
		c0.175-0.021,0.311-0.17,0.327-0.364l0.244-2.207C14.736,23.775,13.63,23.597,12.646,23.337z"/>
</g>
</svg>
