<?xml version="1.0" encoding="utf-8"?>
<!-- Generator: Adobe Illustrator 21.1.0, SVG Export Plug-In . SVG Version: 6.00 Build 0)  -->
<svg version="1.1" id="Layer_1" xmlns="http://www.w3.org/2000/svg" xmlns:xlink="http://www.w3.org/1999/xlink" x="0px" y="0px"
	 viewBox="0 0 32 32" style="enable-background:new 0 0 32 32;" xml:space="preserve">
<style type="text/css">
	.st0{fill:#FFD93B;}
	.st1{fill:#FFFFFF;}
	.st2{fill:#89664C;}
	.st3{fill:#3E4347;}
	.st4{fill:#E24B4B;}
	.st5{fill:#F29A2E;}
	.st6{fill:#5A5F63;}
	.st7{fill:#E18823;}
	.st8{fill:#65B1EF;}
	.st9{fill:#D03F3F;}
	.st10{opacity:0.2;}
	.st11{fill:#DEE4E9;}
	.st12{fill:#45CBEA;}
	.st13{fill:#F4C534;}
	.st14{fill:#BF3333;}
	.st15{fill:#D23F77;}
	.st16{fill:#E84D88;}
	.st17{fill:#7A5B44;}
	.st18{fill:#6B503B;}
	.st19{opacity:0.2;fill:#FFFFFF;}
	.st20{fill:#4E99D2;}
	.st21{fill:none;}
	.st22{opacity:0.15;fill:#FFFFFF;}
	.st23{fill:#8CC63E;}
	.st24{fill:#9A795F;}
	.st25{fill:#E9EFF4;}
</style>
<g>
	<circle class="st0" cx="16" cy="16" r="16"/>
	<path class="st13" d="M32,16c0,8.84-7.165,16-16,16c-5.03,0-9.52-2.32-12.455-5.955c2.745,2.22,6.24,3.545,10.045,3.545
		c8.835,0,16-7.16,16-16c0-3.805-1.325-7.3-3.545-10.045C29.675,6.48,32,10.97,32,16z"/>
	<path class="st3" d="M24.488,23.443c-0.72,2.6-3.01,4.58-5.76,4.9c-1.82,0.21-3.64,0.21-5.47,0c-2.74-0.32-5.03-2.3-5.75-4.9
		c-0.09-0.33,0.18-0.64,0.51-0.58c5.32,0.88,10.64,0.88,15.96,0C24.308,22.803,24.578,23.113,24.488,23.443z"/>
	<path class="st1" d="M8.599,22.947c0.351,0.623,0.856,1.055,1.464,1.536c0.615,0.477,1.334,0.825,2.124,0.931
		c2.524,0.353,5.081,0.353,7.624,0c0.78-0.106,1.5-0.442,2.106-0.92c0.613-0.486,1.124-0.918,1.478-1.546
		C18.463,23.704,13.531,23.704,8.599,22.947z"/>
	<path class="st13" d="M19.621,13.424c0,4.696-3.83,8.526-8.538,8.526c-4.696,0-8.526-3.831-8.526-8.526
		c0-4.707,3.83-8.538,8.526-8.538C15.79,4.887,19.621,8.717,19.621,13.424z"/>
	<path class="st1" d="M17.654,13.423c0,3.616-2.94,6.556-6.566,6.556c-3.616,0-6.556-2.94-6.556-6.556
		c0-3.626,2.94-6.566,6.556-6.566C14.714,6.858,17.654,9.798,17.654,13.423z"/>
	<path class="st3" d="M14.872,13.424c0,2.077-1.696,3.773-3.784,3.773c-2.077,0-3.761-1.696-3.761-3.773
		c0-2.076,1.684-3.773,3.761-3.773C13.176,9.651,14.872,11.348,14.872,13.424z"/>
	<path class="st13" d="M29.443,13.653c0,3.113-2.535,5.648-5.659,5.648c-3.113,0-5.648-2.535-5.648-5.648
		c0-3.113,2.535-5.648,5.648-5.648C26.908,8.006,29.443,10.541,29.443,13.653z"/>
	<circle class="st1" cx="23.791" cy="13.655" r="4.006"/>
	<path class="st3" d="M26.402,13.653c0,1.434-1.178,2.601-2.613,2.601c-1.434,0-2.59-1.167-2.59-2.601s1.156-2.601,2.59-2.601
		C25.223,11.052,26.402,12.219,26.402,13.653z"/>
	<circle class="st1" cx="22.844" cy="12.653" r="0.745"/>
	<path class="st1" d="M10.742,11.97c0,0.566-0.45,1.015-1.015,1.015c-0.554,0-1.015-0.45-1.015-1.015
		c0-0.554,0.461-1.015,1.015-1.015C10.292,10.955,10.742,11.417,10.742,11.97z"/>
	<circle class="st1" cx="23.792" cy="13.509" r="0.345"/>
	<circle class="st1" cx="11.044" cy="13.194" r="0.577"/>
</g>
</svg>
