<?xml version="1.0" encoding="utf-8"?>
<!-- Generator: Adobe Illustrator 21.1.0, SVG Export Plug-In . SVG Version: 6.00 Build 0)  -->
<svg version="1.1" id="Layer_1" xmlns="http://www.w3.org/2000/svg" xmlns:xlink="http://www.w3.org/1999/xlink" x="0px" y="0px"
	 viewBox="0 0 32 32" style="enable-background:new 0 0 32 32;" xml:space="preserve">
<style type="text/css">
	.st0{fill:#FFD93B;}
	.st1{fill:#FFFFFF;}
	.st2{fill:#89664C;}
	.st3{fill:#3E4347;}
	.st4{fill:#E24B4B;}
	.st5{fill:#F29A2E;}
	.st6{fill:#5A5F63;}
	.st7{fill:#E18823;}
	.st8{fill:#65B1EF;}
	.st9{fill:#D03F3F;}
	.st10{opacity:0.2;}
	.st11{fill:#DEE4E9;}
	.st12{fill:#45CBEA;}
	.st13{fill:#F4C534;}
	.st14{fill:#BF3333;}
	.st15{fill:#D23F77;}
	.st16{fill:#E84D88;}
	.st17{fill:#7A5B44;}
	.st18{fill:#6B503B;}
	.st19{opacity:0.2;fill:#FFFFFF;}
	.st20{fill:#4E99D2;}
	.st21{fill:none;}
	.st22{opacity:0.15;fill:#FFFFFF;}
	.st23{fill:#8CC63E;}
	.st24{fill:#9A795F;}
	.st25{fill:#E9EFF4;}
</style>
<g>
	<circle class="st0" cx="16" cy="15.698" r="15.698"/>
	<path class="st13" d="M31.698,15.698c0,8.673-7.03,15.698-15.698,15.698c-4.935,0-9.341-2.276-12.22-5.843
		c2.693,2.178,6.122,3.478,9.856,3.478c8.668,0,15.699-7.025,15.699-15.698c0-3.733-1.3-7.162-3.478-9.856
		C29.417,6.358,31.698,10.763,31.698,15.698z"/>
	<path class="st4" d="M20.29,31.999c-3.302,0.096-3.515-4.617-5.732-8.827l7.842-2.221C24.411,26.612,22.223,32.057,20.29,31.999z"
		/>
	<ellipse class="st1" cx="8.72" cy="12.866" rx="5.195" ry="5.19"/>
	<ellipse class="st1" cx="23.28" cy="12.866" rx="5.195" ry="5.19"/>
	<path class="st3" d="M29.461,12.151c-0.323-2.909-2.717-5.233-5.633-5.482c-1.531-0.131-2.96,0.297-4.105,1.1
		c-1.093,0.767-2.375,1.186-3.711,1.189c-0.019,0-0.038,0-0.058,0.003c-1.323,0.029-2.608-0.448-3.695-1.205
		c-1.004-0.7-2.222-1.109-3.535-1.109c-3.398,0-6.17,2.73-6.227,6.109c-0.054,3.277,2.525,6.096,5.792,6.32
		c3.529,0.243,6.569-2.509,6.643-6.074c0.006-0.339,0.144-0.678,0.422-0.876c0.074-0.051,0.153-0.096,0.233-0.128
		c0.694-0.275,1.464,0.268,1.48,1.013c0.074,3.404,2.867,6.077,6.218,6.077C26.948,19.088,29.88,15.901,29.461,12.151z M8.724,17.57
		c-2.596,0-4.709-2.113-4.709-4.705c0-2.593,2.113-4.699,4.709-4.699c2.589,0,4.696,2.106,4.696,4.699
		C13.42,15.457,11.313,17.57,8.724,17.57z M23.285,17.57c-2.596,0-4.709-2.113-4.709-4.705c0-2.593,2.113-4.699,4.709-4.699
		c2.589,0,4.696,2.106,4.696,4.699C27.981,15.457,25.874,17.57,23.285,17.57z"/>
	<path class="st3" d="M11.284,14.696c0,1.006-0.815,1.821-1.829,1.821c-1.006,0-1.821-0.815-1.821-1.821
		c0-1.015,0.815-1.83,1.821-1.829C10.469,12.866,11.284,13.681,11.284,14.696z"/>
	<path class="st1" d="M10.562,14.434c-0.14,0.14-0.429,0.053-0.666-0.185c-0.237-0.228-0.316-0.525-0.184-0.657
		c0.14-0.14,0.429-0.052,0.666,0.175C10.615,14.004,10.693,14.302,10.562,14.434z"/>
	<path class="st3" d="M24.366,14.696c0,1.006-0.815,1.821-1.829,1.821c-1.006,0-1.821-0.815-1.821-1.821
		c0-1.015,0.815-1.83,1.821-1.829C23.551,12.866,24.366,13.681,24.366,14.696z"/>
	<path class="st1" d="M23.644,14.434c-0.14,0.14-0.43,0.053-0.666-0.185c-0.237-0.228-0.316-0.525-0.184-0.657
		c0.14-0.14,0.429-0.052,0.666,0.175C23.696,14.004,23.775,14.302,23.644,14.434z"/>
	<path class="st3" d="M25.245,21.039c-1.94,0.277-3.539,0.187-8.458,1.697c-3.171,0.936-7.074,2.732-8.055,3.149
		c1.412-1.223,4.303-2.993,7.761-4.081C19.397,20.917,22.247,20.486,25.245,21.039z"/>
</g>
</svg>
