<?xml version="1.0" encoding="utf-8"?>
<!-- Generator: Adobe Illustrator 21.1.0, SVG Export Plug-In . SVG Version: 6.00 Build 0)  -->
<svg version="1.1" id="Layer_1" xmlns="http://www.w3.org/2000/svg" xmlns:xlink="http://www.w3.org/1999/xlink" x="0px" y="0px"
	 viewBox="0 0 32 32" style="enable-background:new 0 0 32 32;" xml:space="preserve">
<style type="text/css">
	.st0{fill:#FFD93B;}
	.st1{fill:#FFFFFF;}
	.st2{fill:#89664C;}
	.st3{fill:#3E4347;}
	.st4{fill:#E24B4B;}
	.st5{fill:#F29A2E;}
	.st6{fill:#5A5F63;}
	.st7{fill:#E18823;}
	.st8{fill:#65B1EF;}
	.st9{fill:#D03F3F;}
	.st10{opacity:0.2;}
	.st11{fill:#DEE4E9;}
	.st12{fill:#45CBEA;}
	.st13{fill:#F4C534;}
	.st14{fill:#BF3333;}
	.st15{fill:#D23F77;}
	.st16{fill:#E84D88;}
	.st17{fill:#7A5B44;}
	.st18{fill:#6B503B;}
	.st19{opacity:0.2;fill:#FFFFFF;}
	.st20{fill:#4E99D2;}
	.st21{fill:none;}
	.st22{opacity:0.15;fill:#FFFFFF;}
	.st23{fill:#8CC63E;}
	.st24{fill:#9A795F;}
	.st25{fill:#E9EFF4;}
</style>
<g>
	<circle class="st0" cx="16" cy="16" r="16"/>
	<path class="st13" d="M32,16c0,8.84-7.165,16-16,16c-5.03,0-9.52-2.32-12.455-5.955c2.745,2.22,6.24,3.545,10.045,3.545
		c8.835,0,16-7.16,16-16c0-3.805-1.325-7.3-3.545-10.045C29.675,6.48,32,10.97,32,16z"/>
	<ellipse class="st13" cx="9.472" cy="16.693" rx="4.916" ry="4.921"/>
	<path class="st1" d="M14.388,16.693c0,0-2.202,2.436-4.916,2.436s-4.916-2.436-4.916-2.436s2.202-2.432,4.916-2.432
		S14.388,16.693,14.388,16.693z"/>
	<path class="st3" d="M10.754,15.851c-1.114,0-2.016,0.902-2.016,2.016c0,0.473,0.169,0.902,0.442,1.246
		c0.097,0.007,0.193,0.016,0.292,0.016c1.262,0,2.41-0.527,3.281-1.091c0.005-0.057,0.017-0.112,0.017-0.171
		C12.77,16.752,11.868,15.851,10.754,15.851z"/>
	<path class="st1" d="M11.877,16.965c-0.071,0.123-0.327,0.123-0.575-0.018c-0.239-0.133-0.38-0.345-0.31-0.478
		c0.071-0.124,0.327-0.115,0.575,0.018C11.806,16.629,11.948,16.841,11.877,16.965z"/>
	<path class="st3" d="M5.752,10.026c0,0,3.896-1.934,8.759,1.658C14.511,11.684,10.421,5.136,5.752,10.026z"/>
	<ellipse class="st13" cx="22.406" cy="16.693" rx="4.916" ry="4.921"/>
	<path class="st1" d="M27.322,16.693c0,0-2.202,2.436-4.916,2.436c-2.715,0-4.916-2.436-4.916-2.436s2.202-2.432,4.916-2.432
		C25.12,14.261,27.322,16.693,27.322,16.693z"/>
	<path class="st3" d="M23.688,15.851c-1.114,0-2.016,0.902-2.016,2.016c0,0.473,0.17,0.902,0.442,1.246
		c0.097,0.007,0.193,0.016,0.292,0.016c1.262,0,2.41-0.527,3.281-1.091c0.005-0.057,0.017-0.112,0.017-0.171
		C25.704,16.752,24.802,15.851,23.688,15.851z"/>
	<path class="st1" d="M24.81,16.965c-0.071,0.123-0.327,0.123-0.575-0.018c-0.239-0.133-0.38-0.345-0.309-0.478
		c0.071-0.124,0.327-0.115,0.575,0.018C24.74,16.629,24.881,16.841,24.81,16.965z"/>
	<path class="st3" d="M27.444,10.026c0,0-3.896-1.934-8.759,1.658C18.685,11.684,22.775,5.136,27.444,10.026z"/>
	<path class="st3" d="M20.365,25c0,0.76-0.62,1.38-1.38,1.38h-5.98c-0.76,0-1.37-0.62-1.37-1.38c0-0.76,0.61-1.37,1.37-1.37h5.98
		C19.745,23.63,20.365,24.24,20.365,25z"/>
</g>
</svg>
