<?xml version="1.0" encoding="utf-8"?>
<!-- Generator: Adobe Illustrator 21.1.0, SVG Export Plug-In . SVG Version: 6.00 Build 0)  -->
<svg version="1.1" id="Layer_1" xmlns="http://www.w3.org/2000/svg" xmlns:xlink="http://www.w3.org/1999/xlink" x="0px" y="0px"
	 viewBox="0 0 32 32" style="enable-background:new 0 0 32 32;" xml:space="preserve">
<style type="text/css">
	.st0{fill:#FFD93B;}
	.st1{fill:#FFFFFF;}
	.st2{fill:#89664C;}
	.st3{fill:#3E4347;}
	.st4{fill:#E24B4B;}
	.st5{fill:#F29A2E;}
	.st6{fill:#5A5F63;}
	.st7{fill:#E18823;}
	.st8{fill:#65B1EF;}
	.st9{fill:#D03F3F;}
	.st10{opacity:0.2;}
	.st11{fill:#DEE4E9;}
	.st12{fill:#45CBEA;}
	.st13{fill:#F4C534;}
	.st14{fill:#BF3333;}
	.st15{fill:#D23F77;}
	.st16{fill:#E84D88;}
	.st17{fill:#7A5B44;}
	.st18{fill:#6B503B;}
	.st19{opacity:0.2;fill:#FFFFFF;}
	.st20{fill:#4E99D2;}
	.st21{fill:none;}
	.st22{opacity:0.15;fill:#FFFFFF;}
	.st23{fill:#8CC63E;}
	.st24{fill:#9A795F;}
	.st25{fill:#E9EFF4;}
</style>
<g>
	<circle class="st0" cx="12.251" cy="16" r="12.251"/>
	<path class="st13" d="M24.502,16c0,6.769-5.486,12.251-12.251,12.251c-3.851,0-7.289-1.776-9.537-4.56
		c2.102,1.7,4.778,2.714,7.691,2.714c6.765,0,12.251-5.482,12.251-12.251c0-2.913-1.014-5.59-2.714-7.691
		C22.722,8.711,24.502,12.149,24.502,16z"/>
	<circle class="st1" cx="7.372" cy="13.098" r="3.721"/>
	<circle class="st1" cx="17.13" cy="13.098" r="3.721"/>
	<path class="st3" d="M6.197,23.867c3.136,3.22,8.995,3.134,12.108,0c0.462-0.465,0.637-1.095,0.599-1.811
		c0.119-2.272-2.16-3.42-6.653-3.364c-4.492-0.059-6.771,1.091-6.653,3.364C5.561,22.772,5.74,23.397,6.197,23.867z"/>
	<circle class="st3" cx="8.137" cy="13.098" r="1.642"/>
	
		<ellipse transform="matrix(0.7071 -0.7071 0.7071 0.7071 -6.2789 9.8384)" class="st1" cx="8.737" cy="12.498" rx="0.305" ry="0.499"/>
	<circle class="st3" cx="16.362" cy="13.1" r="1.642"/>
	
		<ellipse transform="matrix(0.7071 -0.7071 0.7071 0.7071 -3.8715 15.6549)" class="st1" cx="16.961" cy="12.501" rx="0.305" ry="0.499"/>
	<path class="st1" d="M12.251,20.357c2.274,0,4.352-0.018,5.957-0.208c-0.979-0.999-2.978-1.494-5.957-1.457
		c-2.98-0.039-4.979,0.456-5.958,1.456C7.898,20.339,9.976,20.357,12.251,20.357z"/>
	<path class="st3" d="M20.161,8.842c-0.008,0.269-0.354,0.389-0.54,0.193c-1.347-1.423-2.972-2.493-4.388-2.916
		c-0.285-0.083-0.293-0.486-0.01-0.598C17.483,4.635,20.264,6.444,20.161,8.842z"/>
	<path class="st3" d="M4.341,8.842c0.008,0.269,0.354,0.389,0.54,0.193c1.348-1.423,2.972-2.493,4.388-2.916
		c0.285-0.083,0.293-0.486,0.01-0.598C7.019,4.635,4.238,6.444,4.341,8.842z"/>
	<path class="st4" d="M17.19,24.776c-0.14-0.249-0.294-0.488-0.469-0.711c-0.886-1.14-2.439-1.649-3.786-1.127
		c-0.453,0.178-0.969,0.275-1.553,0.275c-0.137,0-0.268-0.007-0.398-0.014c-1.441-0.122-2.86,0.466-3.643,1.613
		C10.206,26.752,14.347,26.699,17.19,24.776z"/>
	<path class="st4" d="M31.985,17.205c-0.225,2.567-2.946,4.436-6.086,4.16c-0.223-0.02-0.438-0.046-0.652-0.087L21.3,22.671
		c-0.302,0.109-0.597-0.21-0.458-0.505l1.166-2.522c-0.953-0.931-1.491-2.148-1.378-3.435c0.226-2.575,2.953-4.435,6.086-4.16
		C29.856,12.324,32.211,14.63,31.985,17.205z"/>
	<g>
		<g>
			<path class="st1" d="M29.138,16.093c-0.018,1.336-2.052,2.849-2.732,3.314c-0.122,0.086-0.3,0.086-0.423,0
				c-0.668-0.484-2.671-2.04-2.659-3.376c0.018-1.697,2.402-2.04,2.916-0.447c0.202-0.594,0.772-1.005,1.421-1.005
				C28.489,14.591,29.151,15.272,29.138,16.093z"/>
		</g>
	</g>
</g>
</svg>
