<?xml version="1.0" encoding="utf-8"?>
<!-- Generator: Adobe Illustrator 21.1.0, SVG Export Plug-In . SVG Version: 6.00 Build 0)  -->
<svg version="1.1" id="Layer_1" xmlns="http://www.w3.org/2000/svg" xmlns:xlink="http://www.w3.org/1999/xlink" x="0px" y="0px"
	 viewBox="0 0 32 32" style="enable-background:new 0 0 32 32;" xml:space="preserve">
<style type="text/css">
	.st0{fill:#FFD93B;}
	.st1{fill:#3E4347;}
	.st2{fill:#F4C534;}
	.st3{fill:#38C0DC;}
	.st4{fill:#45CBEA;}
	.st5{fill:#FFFFFF;}
	.st6{fill:#E24B4B;}
	.st7{fill:#5A5F63;}
	.st8{opacity:0.3;}
	.st9{opacity:0.2;}
	.st10{opacity:0.1;}
	.st11{fill:#E9B02C;}
	.st12{fill:#65B1EF;}
	.st13{fill:#E9EFF4;}
	.st14{fill:#8CC63E;}
	.st15{fill:#7FB239;}
	.st16{fill:#D03F3F;}
	.st17{fill:#D23F77;}
	.st18{fill:#E84D88;}
	.st19{fill:#59A5E0;}
	.st20{fill:#DEE4E9;}
	.st21{fill:#D3D9DD;}
	.st22{opacity:0.25;fill:#FFFFFF;}
	.st23{fill:#9A795F;}
	.st24{fill:#F29A2E;}
	.st25{fill:#FC97B2;}
	.st26{fill:#89664C;}
	.st27{fill:#7A5B44;}
	.st28{opacity:0.2;fill:#FFFFFF;}
	.st29{fill:#4E99D2;}
	.st30{fill:#BBC7D1;}
	.st31{fill:#DE9C25;}
</style>
<g>
	<circle class="st0" cx="16" cy="15.606" r="15.606"/>
	<path class="st2" d="M31.606,15.606c0,8.623-6.989,15.606-15.606,15.606c-4.906,0-9.286-2.263-12.149-5.809
		c2.677,2.165,6.087,3.458,9.798,3.458c8.618,0,15.606-6.984,15.606-15.606c0-3.711-1.292-7.12-3.458-9.798
		C29.339,6.321,31.606,10.7,31.606,15.606z"/>
	<path class="st5" d="M14.303,14.57c0,2.744-1.861,4.978-4.167,4.978c-2.297,0-4.159-2.234-4.159-4.978s1.862-4.978,4.159-4.978
		C12.442,9.592,14.303,11.826,14.303,14.57z"/>
	<path class="st1" d="M12.084,15.816c0,1.077-0.871,1.948-1.948,1.948c-1.068,0-1.939-0.871-1.939-1.948s0.871-1.948,1.939-1.948
		C11.213,13.868,12.084,14.738,12.084,15.816z"/>
	
		<ellipse transform="matrix(0.7071 -0.7071 0.7071 0.7071 -7.4401 12.123)" class="st5" cx="10.914" cy="15.042" rx="0.337" ry="0.576"/>
	<path class="st5" d="M27.276,13.56c0,3.301-2.239,5.988-5.012,5.988c-2.763,0-5.002-2.687-5.002-5.988s2.239-5.988,5.002-5.988
		C25.036,7.572,27.276,10.259,27.276,13.56z"/>
	<path class="st1" d="M24.606,15.058c0,1.296-1.047,2.343-2.343,2.343c-1.285,0-2.332-1.047-2.332-2.343s1.048-2.343,2.332-2.343
		C23.559,12.715,24.606,13.763,24.606,15.058z"/>
	
		<ellipse transform="matrix(0.7071 -0.7071 0.7071 0.7071 -3.1957 20.5416)" class="st5" cx="23.198" cy="14.128" rx="0.405" ry="0.693"/>
	<path class="st1" d="M5.274,9.671c-0.205-0.398-0.047-0.886,0.35-1.09l7.212-3.703c0.398-0.205,0.887-0.047,1.09,0.35
		c0.205,0.398,0.047,0.886-0.35,1.09l-7.212,3.703C5.973,10.224,5.48,10.072,5.274,9.671z"/>
	<path class="st1" d="M27.134,7.01c0.205-0.398,0.047-0.886-0.35-1.09l-7.212-3.703c-0.398-0.205-0.887-0.047-1.09,0.35
		c-0.205,0.398-0.047,0.886,0.35,1.09l7.212,3.703C26.436,7.563,26.929,7.411,27.134,7.01z"/>
	<path class="st2" d="M21.007,26.577C21.007,31.851,18.765,32,16,32s-5.007-0.149-5.007-5.423c0-3.866,2.242-7.385,5.008-7.385
		S21.007,22.712,21.007,26.577z"/>
	<path class="st1" d="M19.786,26.581c0,4.204-1.268,4.204-3.785,4.204c-2.526,0-3.784,0-3.784-4.204
		c0-3.229,1.805-6.174,3.784-6.174C17.981,20.407,19.786,23.353,19.786,26.581z"/>
	<path class="st6" d="M12.412,28.82c0.439,1.956,1.632,1.965,3.589,1.965c2.052,0,3.274-0.002,3.655-2.282
		c-0.698-1.19-2.198-1.831-3.557-1.3c-0.393,0.151-0.801,0.234-1.208,0.257C13.68,27.521,12.864,28.068,12.412,28.82z"/>
</g>
</svg>
