<?xml version="1.0" encoding="utf-8"?>
<!-- Generator: Adobe Illustrator 21.1.0, SVG Export Plug-In . SVG Version: 6.00 Build 0)  -->
<svg version="1.1" id="Layer_1" xmlns="http://www.w3.org/2000/svg" xmlns:xlink="http://www.w3.org/1999/xlink" x="0px" y="0px"
	 viewBox="0 0 32 32" style="enable-background:new 0 0 32 32;" xml:space="preserve">
<style type="text/css">
	.st0{fill:#FFD93B;}
	.st1{fill:#FFFFFF;}
	.st2{fill:#89664C;}
	.st3{fill:#3E4347;}
	.st4{fill:#E24B4B;}
	.st5{fill:#F29A2E;}
	.st6{fill:#5A5F63;}
	.st7{fill:#E18823;}
	.st8{fill:#65B1EF;}
	.st9{fill:#D03F3F;}
	.st10{opacity:0.2;}
	.st11{fill:#DEE4E9;}
	.st12{fill:#45CBEA;}
	.st13{fill:#F4C534;}
	.st14{fill:#BF3333;}
	.st15{fill:#D23F77;}
	.st16{fill:#E84D88;}
	.st17{fill:#7A5B44;}
	.st18{fill:#6B503B;}
	.st19{opacity:0.2;fill:#FFFFFF;}
	.st20{fill:#4E99D2;}
	.st21{fill:none;}
	.st22{opacity:0.15;fill:#FFFFFF;}
	.st23{fill:#8CC63E;}
	.st24{fill:#9A795F;}
	.st25{fill:#E9EFF4;}
</style>
<g>
	<path class="st0" d="M31.754,13.838c1.294,10.384-7.44,19.102-17.819,17.794C6.859,30.74,1.145,25.028,0.25,17.952
		C-1.065,7.557,7.687-1.19,18.084,0.133C25.162,1.034,30.871,6.757,31.754,13.838z"/>
	<path class="st13" d="M31.774,17.749c-0.829,7.252-6.696,13.104-13.95,13.912c-5.722,0.637-10.923-1.767-14.187-5.809
		c3.155,2.552,7.309,3.912,11.783,3.418c7.28-0.804,13.165-6.688,13.968-13.968c0.494-4.474-0.867-8.628-3.418-11.783
		C30.017,6.791,32.43,12.01,31.774,17.749z"/>
	<path class="st0" d="M26.003,26.613C25.632,29.587,23.166,32,20.495,32c-2.661,0-4.525-2.413-4.154-5.387
		c0.369-2.963,2.835-5.376,5.496-5.376C24.508,21.237,26.372,23.65,26.003,26.613z"/>
	<path class="st3" d="M24.368,26.613c-0.246,1.97-1.873,3.564-3.646,3.564c-1.762,0-2.992-1.594-2.746-3.564
		c0.244-1.959,1.873-3.564,3.635-3.564C23.383,23.049,24.612,24.653,24.368,26.613z"/>
	<path class="st3" d="M13.836,15.978c-1.11-0.34-2.36-0.53-3.69-0.53s-2.59,0.19-3.7,0.53c-0.43,0.13-0.78-0.34-0.54-0.72
		c0.89-1.39,2.46-2.31,4.24-2.31c1.77,0,3.34,0.92,4.23,2.31C14.616,15.638,14.266,16.108,13.836,15.978z"/>
	<path class="st3" d="M25.554,15.978c-1.11-0.34-2.36-0.53-3.69-0.53c-1.33,0-2.59,0.19-3.7,0.53c-0.43,0.13-0.78-0.34-0.54-0.72
		c0.89-1.39,2.46-2.31,4.24-2.31c1.77,0,3.34,0.92,4.23,2.31C26.334,15.638,25.984,16.108,25.554,15.978z"/>
	<path class="st8" d="M27.018,5.479c0,1.03-0.83,1.86-1.86,1.86c-1.02,0-1.85-0.83-1.85-1.86c0-1.03,1.85-4.22,1.85-4.22
		S27.018,4.449,27.018,5.479z"/>
	<path class="st8" d="M31.288,11.212c0,1.333-1.075,2.408-2.408,2.408c-1.32,0-2.395-1.075-2.395-2.408
		c0-1.334,2.395-5.463,2.395-5.463S31.288,9.879,31.288,11.212z"/>
</g>
</svg>
