<?xml version="1.0" encoding="utf-8"?>
<!-- Generator: Adobe Illustrator 21.1.0, SVG Export Plug-In . SVG Version: 6.00 Build 0)  -->
<svg version="1.1" id="Layer_1" xmlns="http://www.w3.org/2000/svg" xmlns:xlink="http://www.w3.org/1999/xlink" x="0px" y="0px"
	 viewBox="0 0 32 32" style="enable-background:new 0 0 32 32;" xml:space="preserve">
<style type="text/css">
	.st0{fill:#FFD93B;}
	.st1{fill:#FFFFFF;}
	.st2{fill:#89664C;}
	.st3{fill:#3E4347;}
	.st4{fill:#E24B4B;}
	.st5{fill:#F29A2E;}
	.st6{fill:#5A5F63;}
	.st7{fill:#E18823;}
	.st8{fill:#65B1EF;}
	.st9{fill:#D03F3F;}
	.st10{opacity:0.2;}
	.st11{fill:#DEE4E9;}
	.st12{fill:#45CBEA;}
	.st13{fill:#F4C534;}
	.st14{fill:#BF3333;}
	.st15{fill:#D23F77;}
	.st16{fill:#E84D88;}
	.st17{fill:#7A5B44;}
	.st18{fill:#6B503B;}
	.st19{opacity:0.2;fill:#FFFFFF;}
	.st20{fill:#4E99D2;}
	.st21{fill:none;}
	.st22{opacity:0.15;fill:#FFFFFF;}
	.st23{fill:#8CC63E;}
	.st24{fill:#9A795F;}
	.st25{fill:#E9EFF4;}
</style>
<g>
	<circle class="st0" cx="16" cy="16" r="16"/>
	<path class="st13" d="M31.924,16c0,8.84-7.165,16-16,16c-5.03,0-9.52-2.32-12.455-5.955c2.745,2.22,6.24,3.545,10.045,3.545
		c8.835,0,16-7.16,16-16c0-3.805-1.325-7.3-3.545-10.045C29.599,6.48,31.924,10.97,31.924,16z"/>
	<path class="st1" d="M14.713,13.033c0,2.737-2.214,4.961-4.961,4.961c-2.737,0-4.961-2.224-4.961-4.961
		c0-2.747,2.224-4.97,4.961-4.97C12.499,8.063,14.713,10.287,14.713,13.033z"/>
	<path class="st1" d="M27.209,13.033c0,2.737-2.214,4.961-4.961,4.961c-2.737,0-4.961-2.224-4.961-4.961
		c0-2.747,2.223-4.97,4.961-4.97C24.995,8.063,27.209,10.287,27.209,13.033z"/>
	<path class="st3" d="M30.327,12.279h-2.469c-0.37-2.771-2.743-4.915-5.61-4.915c-2.122,0-3.972,1.176-4.94,2.91
		c-0.263,0.471-0.76,0.745-1.299,0.742c-0.003,0-0.006,0-0.01,0c-0.005,0-0.009,0-0.014,0c-0.537,0.004-1.032-0.271-1.293-0.74
		c-0.968-1.735-2.818-2.912-4.94-2.912c-2.866,0-5.234,2.146-5.605,4.915H1.67v1.5h2.494c0.348,2.588,2.451,4.671,5.1,4.895
		c3.352,0.284,6.215-2.389,6.143-5.759c0.057-0.282,0.295-0.498,0.592-0.498c0.304,0,0.586,0.219,0.586,0.617
		c0,3.268,2.785,5.899,6.106,5.644c2.658-0.204,4.802-2.283,5.148-4.899h2.486V12.279z M9.752,17.293
		c-2.349,0-4.261-1.912-4.261-4.26c0-2.354,1.911-4.269,4.261-4.269c2.349,0,4.26,1.915,4.26,4.269
		C14.012,15.382,12.101,17.293,9.752,17.293z M22.248,17.293c-2.349,0-4.261-1.912-4.261-4.26c0-2.354,1.911-4.269,4.261-4.269
		c2.349,0,4.26,1.915,4.26,4.269C26.508,15.382,24.597,17.293,22.248,17.293z"/>
	<path class="st3" d="M22.895,13.031c0,1.043-0.839,1.902-1.895,1.902c-1.043,0-1.895-0.859-1.895-1.902
		c0-1.049,0.853-1.909,1.895-1.909C22.056,11.123,22.895,11.982,22.895,13.031z"/>
	
		<ellipse transform="matrix(0.7071 -0.7071 0.7071 0.7071 -2.4024 18.9376)" class="st1" cx="21.658" cy="12.369" rx="0.432" ry="0.625"/>
	<path class="st3" d="M12.895,13.031c0,1.043-0.839,1.902-1.895,1.902c-1.043,0-1.895-0.859-1.895-1.902
		c0-1.049,0.853-1.909,1.895-1.909C12.056,11.123,12.895,11.982,12.895,13.031z"/>
	
		<ellipse transform="matrix(0.7071 -0.7071 0.7071 0.7071 -5.3314 11.8665)" class="st1" cx="11.658" cy="12.369" rx="0.432" ry="0.625"/>
	<path class="st3" d="M24.512,5.61c-2.343-2.046-5.169-1.729-5.196-1.726c-0.355,0.033-0.685-0.212-0.731-0.57
		c-0.045-0.359,0.209-0.686,0.568-0.732c0.139-0.018,3.426-0.403,6.223,2.039c0.272,0.238,0.301,0.653,0.063,0.926
		C25.2,5.819,24.786,5.848,24.512,5.61z"/>
	<path class="st3" d="M7.488,5.61c2.343-2.046,5.169-1.729,5.197-1.726c0.355,0.033,0.685-0.212,0.731-0.57
		c0.045-0.359-0.209-0.686-0.567-0.732c-0.139-0.018-3.426-0.403-6.223,2.039C6.352,4.86,6.323,5.274,6.562,5.548
		C6.8,5.819,7.214,5.848,7.488,5.61z"/>
	<path class="st3" d="M23.524,27.164c-4.91-1.6-9.93-1.59-15.06,0.02c-0.65,0.2-1.25-0.4-1.11-1.06c0.87-3.98,4.41-6.96,8.65-6.96
		c4.23,0,7.76,2.97,8.64,6.94C24.794,26.774,24.174,27.374,23.524,27.164z"/>
	<path class="st4" d="M20.888,26.481c-0.269-1.166-0.942-2.187-1.89-2.884c-0.598-0.447-1.404-0.529-2.09-0.21
		c-0.592,0.265-1.295,0.402-2.112,0.34l-0.01-0.001c-1.376-0.105-2.757,0.511-3.344,1.76c-0.148,0.322-0.256,0.668-0.336,1.027
		C14.413,25.825,17.673,25.814,20.888,26.481z"/>
</g>
</svg>
