<?xml version="1.0" encoding="utf-8"?>
<!-- Generator: Adobe Illustrator 21.1.0, SVG Export Plug-In . SVG Version: 6.00 Build 0)  -->
<svg version="1.1" id="Layer_1" xmlns="http://www.w3.org/2000/svg" xmlns:xlink="http://www.w3.org/1999/xlink" x="0px" y="0px"
	 viewBox="0 0 32 32" style="enable-background:new 0 0 32 32;" xml:space="preserve">
<style type="text/css">
	.st0{fill:#FFD93B;}
	.st1{fill:#FFFFFF;}
	.st2{fill:#89664C;}
	.st3{fill:#3E4347;}
	.st4{fill:#E24B4B;}
	.st5{fill:#F29A2E;}
	.st6{fill:#5A5F63;}
	.st7{fill:#E18823;}
	.st8{fill:#65B1EF;}
	.st9{fill:#D03F3F;}
	.st10{opacity:0.2;}
	.st11{fill:#DEE4E9;}
	.st12{fill:#45CBEA;}
	.st13{fill:#F4C534;}
	.st14{fill:#BF3333;}
	.st15{fill:#D23F77;}
	.st16{fill:#E84D88;}
	.st17{fill:#7A5B44;}
	.st18{fill:#6B503B;}
	.st19{opacity:0.2;fill:#FFFFFF;}
	.st20{fill:#4E99D2;}
	.st21{fill:none;}
	.st22{opacity:0.15;fill:#FFFFFF;}
	.st23{fill:#8CC63E;}
	.st24{fill:#9A795F;}
	.st25{fill:#E9EFF4;}
</style>
<g>
	<g>
		<g>
			<g>
				<g>
					<g>
						<g>
							<g>
								<g>
									<g>
										<g>
											<g>
												<g>
													<g>
														<g>
															<g>
																<g>
																	<g>
																		<g>
																			<g>
																				<g>
																					<g>
																						<g>
																							<g>
																								<g>
																									<g>
																										<g>
																											<circle class="st0" cx="16" cy="16" r="16"/>
																										</g>
																									</g>
																								</g>
																							</g>
																						</g>
																					</g>
																					<g>
																						<g>
																							<g>
																								<g>
																									<g>
																										<g>
																											<path class="st13" d="M32,16c0,8.84-7.165,16-16,16c-5.03,0-9.52-2.32-12.455-5.955
																												c2.745,2.22,6.24,3.545,10.045,3.545c8.835,0,16-7.16,16-16c0-3.805-1.325-7.3-3.545-10.045
																												C29.675,6.48,32,10.97,32,16z"/>
																										</g>
																									</g>
																								</g>
																							</g>
																						</g>
																					</g>
																				</g>
																			</g>
																		</g>
																	</g>
																</g>
															</g>
														</g>
													</g>
												</g>
											</g>
										</g>
									</g>
								</g>
							</g>
						</g>
					</g>
				</g>
			</g>
		</g>
	</g>
	<path class="st3" d="M12.149,27.711c1.315,0.667,6.18,0.18,7.951-0.88c1.057-0.774,0.35-2.491,2.052-4.148
		c1.483-1.611-0.296-3.163-2.979-4.301c-0.54-0.254-0.955-0.422-1.237-0.448c-1.323-0.139-2.646-0.276-3.969-0.414
		c-0.281-0.032-0.792,0.081-1.46,0.317c-3.325,1.028-4.966,2.831-2.778,4.99C12.241,25.09,11.522,27.278,12.149,27.711z"/>
	<path class="st1" d="M19.173,18.382c-0.54-0.254-0.955-0.422-1.237-0.448c-1.323-0.139-2.646-0.276-3.969-0.414
		c-0.281-0.032-0.792,0.081-1.46,0.317c-0.83,0.257-1.555,0.561-2.141,0.908c0.635,0.87,2.907,1.1,5.266,1.208
		c2.429,0.106,4.707,0.052,5.377-0.626C20.48,18.99,19.857,18.672,19.173,18.382z"/>
	<path class="st4" d="M20.099,26.831c0.253-0.144,0.396-0.338,0.492-0.55c-0.022-0.028-0.037-0.056-0.059-0.084
		c-1.151-1.549-1.143-2.899-2.819-2.886c-0.396,0.01-0.767,0.132-1.059,0.346c-0.482,0.351-1.006,0.469-1.599,0.319
		c-0.177-0.045-0.359-0.065-0.536-0.059c-1.477,0.034-1.061,1.507-2.695,3.289c0.035,0.227,0.11,0.409,0.325,0.505
		C13.464,28.378,18.329,27.891,20.099,26.831z"/>
	<path class="st1" d="M18.954,24.646c-0.057,0.245-0.395,0.341-0.772,0.203c-0.367-0.145-0.61-0.469-0.538-0.723
		c0.071-0.263,0.451-0.334,0.807-0.186C18.811,24.088,19.011,24.403,18.954,24.646z"/>
	<g>
		<path class="st13" d="M28.011,11.343c0,2.36-2.57,4.28-5.74,4.28s-5.74-1.92-5.74-4.28c0-2.37,2.57-4.28,5.74-4.28
			S28.011,8.973,28.011,11.343z"/>
	</g>
	<g>
		<g>
			<path class="st1" d="M27.321,11.343c-0.259,1.959-2.729,3.552-5.519,3.552c-2.79,0-4.84-1.592-4.581-3.552
				c0.258-1.959,2.729-3.551,5.519-3.551C25.53,7.792,27.58,9.384,27.321,11.343z"/>
		</g>
		<g>
			<path class="st3" d="M22.881,11.646c-0.007,1.308-1.061,2.362-2.369,2.369c-1.323-0.007-2.376-1.061-2.383-2.369
				c0.007-1.322,1.061-2.376,2.383-2.383C21.82,9.269,22.873,10.323,22.881,11.646z"/>
		</g>
		<g>
			<path class="st6" d="M20.096,11.235c-0.389,0.389-0.898,0.516-1.139,0.276c-0.24-0.24-0.113-0.75,0.276-1.138
				c0.396-0.396,0.905-0.523,1.146-0.283S20.492,10.839,20.096,11.235z"/>
		</g>
	</g>
	<g>
		<path class="st13" d="M3.989,11.343c0,2.36,2.57,4.28,5.74,4.28s5.74-1.92,5.74-4.28c0-2.37-2.57-4.28-5.74-4.28
			S3.989,8.973,3.989,11.343z"/>
	</g>
	<g>
		<g>
			<path class="st1" d="M4.679,11.343c0.259,1.959,2.729,3.552,5.519,3.552c2.79,0,4.84-1.592,4.581-3.552
				C14.521,9.384,12.05,7.792,9.26,7.792C6.47,7.792,4.42,9.384,4.679,11.343z"/>
		</g>
		<g>
			<path class="st3" d="M9.119,11.646c0.007,1.308,1.061,2.362,2.369,2.369c1.323-0.007,2.376-1.061,2.383-2.369
				c-0.007-1.322-1.061-2.376-2.383-2.383C10.18,9.269,9.127,10.323,9.119,11.646z"/>
		</g>
		<g>
			<path class="st6" d="M11.904,11.235c0.389,0.389,0.898,0.516,1.138,0.276c0.24-0.24,0.113-0.75-0.276-1.138
				c-0.396-0.396-0.905-0.523-1.146-0.283C11.381,10.33,11.508,10.839,11.904,11.235z"/>
		</g>
	</g>
	<path class="st3" d="M16.865,7.792c0,0,3.027-4.208,8.944-3.708C25.809,4.084,17.63,0.917,16.865,7.792z"/>
	<path class="st3" d="M15.135,7.792c0,0-3.027-4.208-8.944-3.708C6.192,4.084,14.37,0.917,15.135,7.792z"/>
</g>
</svg>
