<?xml version="1.0" encoding="utf-8"?>
<!-- Generator: Adobe Illustrator 21.1.0, SVG Export Plug-In . SVG Version: 6.00 Build 0)  -->
<svg version="1.1" id="Layer_1" xmlns="http://www.w3.org/2000/svg" xmlns:xlink="http://www.w3.org/1999/xlink" x="0px" y="0px"
	 viewBox="0 0 32 32" style="enable-background:new 0 0 32 32;" xml:space="preserve">
<style type="text/css">
	.st0{fill:#FFD93B;}
	.st1{fill:#FFFFFF;}
	.st2{fill:#89664C;}
	.st3{fill:#3E4347;}
	.st4{fill:#E24B4B;}
	.st5{fill:#F29A2E;}
	.st6{fill:#5A5F63;}
	.st7{fill:#E18823;}
	.st8{fill:#65B1EF;}
	.st9{fill:#D03F3F;}
	.st10{opacity:0.2;}
	.st11{fill:#DEE4E9;}
	.st12{fill:#45CBEA;}
	.st13{fill:#F4C534;}
	.st14{fill:#BF3333;}
	.st15{fill:#D23F77;}
	.st16{fill:#E84D88;}
	.st17{fill:#7A5B44;}
	.st18{fill:#6B503B;}
	.st19{opacity:0.2;fill:#FFFFFF;}
	.st20{fill:#4E99D2;}
	.st21{fill:none;}
	.st22{opacity:0.15;fill:#FFFFFF;}
	.st23{fill:#8CC63E;}
	.st24{fill:#9A795F;}
	.st25{fill:#E9EFF4;}
</style>
<g>
	<g>
		<g>
			<g>
				<g>
					<g>
						<g>
							<g>
								<g>
									<g>
										<g>
											<g>
												<g>
													<g>
														<g>
															<g>
																<g>
																	<g>
																		<g>
																			<g>
																				<g>
																					<g>
																						<g>
																							<g>
																								<g>
																									<g>
																										<g>
																											<circle class="st0" cx="16" cy="16" r="16"/>
																										</g>
																									</g>
																								</g>
																							</g>
																						</g>
																					</g>
																					<g>
																						<g>
																							<g>
																								<g>
																									<g>
																										<g>
																											<path class="st13" d="M32,16c0,8.84-7.165,16-16,16c-5.03,0-9.52-2.32-12.455-5.955
																												c2.745,2.22,6.24,3.545,10.045,3.545c8.835,0,16-7.16,16-16c0-3.805-1.325-7.3-3.545-10.045
																												C29.675,6.48,32,10.97,32,16z"/>
																										</g>
																									</g>
																								</g>
																							</g>
																						</g>
																					</g>
																				</g>
																			</g>
																		</g>
																	</g>
																</g>
															</g>
														</g>
													</g>
												</g>
											</g>
										</g>
									</g>
								</g>
							</g>
						</g>
					</g>
				</g>
			</g>
		</g>
	</g>
	<g>
		<path class="st3" d="M22.617,26.382c-4.417-0.857-8.834-0.857-13.23-0.013c-0.493,0.098-0.892-0.453-0.724-1.003
			c1.353-4.369,4.323-7.097,7.334-7.097c3.022,0,5.991,2.729,7.344,7.097C23.509,25.916,23.11,26.467,22.617,26.382z"/>
	</g>
	<g>
		<g>
			<g>
				<path class="st13" d="M15.107,11.556c0,2.94-2.37,5.32-5.31,5.32c-2.93,0-5.31-2.38-5.31-5.32c0-2.93,2.38-5.31,5.31-5.31
					C12.737,6.246,15.107,8.627,15.107,11.556z"/>
			</g>
			<g>
				<path class="st1" d="M14.232,11.557c-0.191,2.587-2.325,4.682-4.78,4.682c-2.447,0-4.28-2.095-4.089-4.682
					c0.19-2.578,2.332-4.673,4.779-4.673C12.597,6.884,14.422,8.979,14.232,11.557z"/>
			</g>
		</g>
		<g>
			<g>
				
					<ellipse transform="matrix(0.7071 -0.7071 0.7071 0.7071 -5.1003 10.6596)" class="st3" cx="10.317" cy="11.486" rx="2.89" ry="2.89"/>
			</g>
			
				<ellipse transform="matrix(0.7071 -0.7071 0.7071 0.7071 -4.0121 11.1103)" class="st1" cx="11.405" cy="10.398" rx="0.614" ry="0.918"/>
		</g>
	</g>
	<g>
		<g>
			<g>
				<path class="st13" d="M27.482,11.556c0,2.94-2.37,5.32-5.31,5.32c-2.93,0-5.31-2.38-5.31-5.32c0-2.93,2.38-5.31,5.31-5.31
					C25.112,6.246,27.482,8.627,27.482,11.556z"/>
			</g>
			<g>
				<path class="st1" d="M26.607,11.557c-0.191,2.587-2.325,4.682-4.78,4.682c-2.447,0-4.28-2.095-4.089-4.682
					c0.19-2.578,2.332-4.673,4.779-4.673C24.972,6.884,26.797,8.979,26.607,11.557z"/>
			</g>
		</g>
		<g>
			<g>
				
					<ellipse transform="matrix(0.7071 -0.7071 0.7071 0.7071 -1.4757 19.41)" class="st3" cx="22.692" cy="11.486" rx="2.89" ry="2.89"/>
			</g>
			
				<ellipse transform="matrix(0.7071 -0.7071 0.7071 0.7071 -0.3876 19.8608)" class="st1" cx="23.78" cy="10.398" rx="0.614" ry="0.918"/>
		</g>
	</g>
	<path class="st1" d="M10.116,26.247c3.915-0.668,7.846-0.667,11.778,0.012c-1.064-2.336-3.299-2.824-5.892-2.824
		C13.414,23.435,11.182,23.921,10.116,26.247z"/>
</g>
</svg>
