<?xml version="1.0" encoding="utf-8"?>
<!-- Generator: Adobe Illustrator 21.1.0, SVG Export Plug-In . SVG Version: 6.00 Build 0)  -->
<svg version="1.1" id="Layer_1" xmlns="http://www.w3.org/2000/svg" xmlns:xlink="http://www.w3.org/1999/xlink" x="0px" y="0px"
	 viewBox="0 0 32 32" style="enable-background:new 0 0 32 32;" xml:space="preserve">
<style type="text/css">
	.st0{fill:#FFD93B;}
	.st1{fill:#FFFFFF;}
	.st2{fill:#89664C;}
	.st3{fill:#3E4347;}
	.st4{fill:#E24B4B;}
	.st5{fill:#F29A2E;}
	.st6{fill:#5A5F63;}
	.st7{fill:#E18823;}
	.st8{fill:#65B1EF;}
	.st9{fill:#D03F3F;}
	.st10{opacity:0.2;}
	.st11{fill:#DEE4E9;}
	.st12{fill:#45CBEA;}
	.st13{fill:#F4C534;}
	.st14{fill:#BF3333;}
	.st15{fill:#D23F77;}
	.st16{fill:#E84D88;}
	.st17{fill:#7A5B44;}
	.st18{fill:#6B503B;}
	.st19{opacity:0.2;fill:#FFFFFF;}
	.st20{fill:#4E99D2;}
	.st21{fill:none;}
	.st22{opacity:0.15;fill:#FFFFFF;}
	.st23{fill:#8CC63E;}
	.st24{fill:#9A795F;}
	.st25{fill:#E9EFF4;}
</style>
<g>
	<g>
		<g>
			<g>
				<g>
					<g>
						<g>
							<g>
								<g>
									<g>
										<g>
											<g>
												<g>
													<g>
														<g>
															<g>
																<g>
																	<g>
																		<g>
																			<g>
																				<g>
																					<g>
																						<g>
																							<g>
																								<g>
																									<g>
																										<g>
																											<g>
																												<circle class="st0" cx="16" cy="16" r="16"/>
																											</g>
																										</g>
																									</g>
																								</g>
																							</g>
																						</g>
																						<g>
																							<g>
																								<g>
																									<g>
																										<g>
																											<g>
																												<path class="st13" d="M32,16c0,8.84-7.165,16-16,16c-5.03,0-9.52-2.32-12.455-5.955
																													c2.745,2.22,6.24,3.545,10.045,3.545c8.835,0,16-7.16,16-16c0-3.805-1.325-7.3-3.545-10.045
																													C29.675,6.48,32,10.97,32,16z"/>
																											</g>
																										</g>
																									</g>
																								</g>
																							</g>
																						</g>
																					</g>
																				</g>
																			</g>
																		</g>
																	</g>
																</g>
															</g>
														</g>
													</g>
												</g>
											</g>
										</g>
									</g>
								</g>
							</g>
						</g>
					</g>
				</g>
			</g>
		</g>
	</g>
	<g>
		<path class="st3" d="M16.509,26.356c-2.868-1.578-4.445-5.629-8.774-5.621c4.355-1.299,8.012,1.888,10.109,2.984
			c1.29,0.68,2.939,1.001,4.23,0.212C22.29,25.909,19.691,28.106,16.509,26.356z"/>
	</g>
	<g>
		<g>
			<g>
				<g>
					<path class="st13" d="M15.218,16.269c-0.433,1.769-3.312,3.207-6.707,3.135c-3.373-0.065-5.367-2.956-4.863-6.59
						c0.501-3.621,3.686-4.98,6.696-3.139C13.353,11.519,15.65,14.508,15.218,16.269z"/>
				</g>
				<g>
					<path class="st1" d="M14.166,15.953c-0.6,1.396-3.209,2.521-5.929,2.351c-2.711-0.158-4.188-2.506-3.533-5.176
						c0.658-2.659,3.373-3.55,5.888-2.156C13.105,12.373,14.769,14.561,14.166,15.953z"/>
				</g>
			</g>
			<g>
				<g>
					<path class="st3" d="M10.154,14.855c0.002,1.345-1.095,2.437-2.44,2.44c-1.345,0.002-2.445-1.087-2.447-2.432
						c-0.002-1.354,1.095-2.446,2.44-2.448C9.051,12.413,10.152,13.502,10.154,14.855z"/>
				</g>
				<g>
					
						<ellipse transform="matrix(0.706 -0.7082 0.7082 0.706 -7.3002 10.2226)" class="st6" cx="8.662" cy="13.903" rx="0.509" ry="0.856"/>
				</g>
			</g>
		</g>
		<g>
			<g>
				<g>
					<path class="st13" d="M17.287,16.914c0.487,1.755,3.408,3.106,6.799,2.931c3.369-0.167,5.274-3.118,4.66-6.736
						c-0.612-3.604-3.836-4.866-6.788-2.934C19.007,12.109,16.802,15.166,17.287,16.914z"/>
				</g>
				<g>
					<path class="st1" d="M18.329,16.566c0.642,1.377,3.284,2.423,5.998,2.17c2.705-0.24,4.11-2.632,3.373-5.282
						c-0.738-2.638-3.48-3.446-5.951-1.977C19.28,12.955,17.684,15.192,18.329,16.566z"/>
				</g>
			</g>
			<g>
				<g>
					<path class="st3" d="M23.709,14.336c0.62,1.193,0.148,2.668-1.045,3.288c-1.193,0.62-2.671,0.159-3.291-1.034
						c-0.624-1.201-0.152-2.675,1.041-3.295C21.607,12.674,23.085,13.135,23.709,14.336z"/>
				</g>
				<g>
					
						<ellipse transform="matrix(0.3013 -0.9535 0.9535 0.3013 1.8153 30.8315)" class="st6" cx="21.946" cy="14.177" rx="0.509" ry="0.856"/>
				</g>
			</g>
		</g>
	</g>
	<g>
		<path class="st3" d="M28.304,9.136c-1.071-0.93-2.443-1.58-3.905-1.84c-1.461-0.26-3.012-0.13-4.395,0.37
			C23.202,3.783,27.298,5.354,28.304,9.136z"/>
	</g>
	<g>
		<path class="st3" d="M6.149,6.483c1.181-0.849,3.495-1.365,5.159-0.19c1.364,0.978,1.576,2.486,3.648,2.81
			c0,0-0.132,0.098-0.408,0.201c-2.025,0.717-3.107-1.094-4.107-1.787C9.201,6.62,7.216,6.692,6.149,6.483z"/>
	</g>
</g>
</svg>
