<?xml version="1.0" encoding="utf-8"?>
<!-- Generator: Adobe Illustrator 21.1.0, SVG Export Plug-In . SVG Version: 6.00 Build 0)  -->
<svg version="1.1" id="Layer_1" xmlns="http://www.w3.org/2000/svg" xmlns:xlink="http://www.w3.org/1999/xlink" x="0px" y="0px"
	 viewBox="0 0 32 32" style="enable-background:new 0 0 32 32;" xml:space="preserve">
<style type="text/css">
	.st0{fill:#FFD93B;}
	.st1{fill:#FFFFFF;}
	.st2{fill:#89664C;}
	.st3{fill:#3E4347;}
	.st4{fill:#E24B4B;}
	.st5{fill:#F29A2E;}
	.st6{fill:#5A5F63;}
	.st7{fill:#E18823;}
	.st8{fill:#65B1EF;}
	.st9{fill:#D03F3F;}
	.st10{opacity:0.2;}
	.st11{fill:#DEE4E9;}
	.st12{fill:#45CBEA;}
	.st13{fill:#F4C534;}
	.st14{fill:#BF3333;}
	.st15{fill:#D23F77;}
	.st16{fill:#E84D88;}
	.st17{fill:#7A5B44;}
	.st18{fill:#6B503B;}
	.st19{opacity:0.2;fill:#FFFFFF;}
	.st20{fill:#4E99D2;}
	.st21{fill:none;}
	.st22{opacity:0.15;fill:#FFFFFF;}
	.st23{fill:#8CC63E;}
	.st24{fill:#9A795F;}
	.st25{fill:#E9EFF4;}
</style>
<g>
	<g>
		<g>
			<g>
				<g>
					<g>
						<g>
							<g>
								<g>
									<g>
										<g>
											<g>
												<g>
													<g>
														<g>
															<g>
																<g>
																	<g>
																		<g>
																			<g>
																				<g>
																					<g>
																						<g>
																							<g>
																								<g>
																									<g>
																										<circle class="st0" cx="16" cy="16" r="16"/>
																									</g>
																								</g>
																							</g>
																						</g>
																					</g>
																				</g>
																				<g>
																					<g>
																						<g>
																							<g>
																								<g>
																									<g>
																										<path class="st13" d="M32,16c0,8.84-7.165,16-16,16c-5.03,0-9.52-2.32-12.455-5.955
																											c2.745,2.22,6.24,3.545,10.045,3.545c8.835,0,16-7.16,16-16c0-3.805-1.325-7.3-3.545-10.045
																											C29.675,6.48,32,10.97,32,16z"/>
																									</g>
																								</g>
																							</g>
																						</g>
																					</g>
																				</g>
																			</g>
																		</g>
																	</g>
																</g>
															</g>
														</g>
													</g>
												</g>
											</g>
										</g>
									</g>
								</g>
							</g>
						</g>
					</g>
				</g>
			</g>
		</g>
	</g>
	<path class="st3" d="M15.741,8.293c-0.954-1.729-2.824-2.979-5.001-3.008c-0.423,0-1.382,0.329-1.645-0.132
		c-0.524-0.94,2.991-2.9,5.352,0.014C15.208,6.098,15.863,7.09,15.741,8.293z"/>
	<path class="st3" d="M20.254,13.007c1.208-1.562,3.249-2.511,5.403-2.205c0.418,0.065,1.315,0.537,1.646,0.122
		c0.662-0.848-2.51-3.325-5.291-0.808C21.117,10.92,20.318,11.799,20.254,13.007z"/>
	<g>
		<path class="st13" d="M16.253,13.882c-0.453,2.637-4.49,3.368-7.126,2.915c-2.636-0.453-4.414-2.959-3.962-5.595
			C5.618,8.566,8.13,6.797,10.767,7.25C13.403,7.703,16.705,11.246,16.253,13.882z"/>
	</g>
	<g>
		<path class="st1" d="M15.455,13.632c-0.556,2.223-4.128,2.827-6.403,2.436c-2.276-0.391-3.676-2.511-3.12-4.734
			c0.556-2.223,2.859-3.707,5.135-3.316C13.343,8.408,16.012,11.409,15.455,13.632z"/>
	</g>
	<g>
		<ellipse class="st3" cx="12.34" cy="13.122" rx="2.363" ry="2.359"/>
	</g>
	<g>
		
			<ellipse transform="matrix(0.7071 -0.7071 0.7071 0.7071 -4.845 12.9044)" class="st6" cx="13.156" cy="12.301" rx="0.544" ry="0.685"/>
	</g>
	<path class="st3" d="M5.094,8.251c0.36,0.179,0.777,0.242,1.174,0.175C5.65,8.994,4.947,9.468,4.189,9.827
		c0.372,0.116,0.795,0.061,1.125-0.146c-0.478,0.514-0.956,1.029-1.434,1.543c2.772,0.072,3.996-3.487,8.67-2.984
		c0.42,0.045,1.299,0.675,1.299,0.675s-0.971-1.766-4.408-1.766C7.53,7.148,6.546,8.3,5.094,8.251z"/>
	<path class="st3" d="M27.355,16.034c-1.142,1.008-2.603,0.401-3.982-0.134c-0.648-0.247-1.317-0.514-2.017-0.525
		c-0.885-0.051-2.14,0.422-2.706,1.224c0.895-1.646,2.119-2.356,3.745-2.459c0.412-0.021,0.823-0.103,1.204-0.288
		c0.833-0.391,1.224-0.946,1.337-1.44c0.175,0.844,0.134,1.378-0.658,1.729c0.689-0.072,0.895,0,1.389-0.463
		c0.494-0.484,0.823-1.132,0.905-1.8c0.34,0.669,0.247,1.533-0.185,2.161c0.71-0.185,1.327-0.556,1.667-1.245
		C28.168,13.956,28.23,15.272,27.355,16.034z"/>
	<path class="st3" d="M24.657,22.39c-1.46,3.61-4.64,6.11-8.33,6.11c-4.45,0-8.16-3.64-9.02-8.47c-0.08-0.48,0.41-0.85,0.85-0.65
		c6.16,2.8,11.45,3.61,15.77,2.22C24.407,21.45,24.847,21.93,24.657,22.39z"/>
	<path class="st1" d="M24.033,21.583c-0.035,0.004-0.07,0.005-0.106,0.017c-4.057,1.306-8.979,0.647-14.664-1.754
		c0.805,3.136,3.874,4.697,7.551,4.904C20.102,24.936,22.907,23.977,24.033,21.583z"/>
	<path class="st9" d="M16.327,28.5c1.661,0,3.216-0.51,4.56-1.396c-0.644-1.262-2.332-2.168-4.334-2.168
		c-2.114,0-3.877,1.012-4.429,2.387C13.385,28.069,14.811,28.5,16.327,28.5z"/>
</g>
</svg>
