<?xml version="1.0" encoding="utf-8"?>
<!-- Generator: Adobe Illustrator 21.1.0, SVG Export Plug-In . SVG Version: 6.00 Build 0)  -->
<svg version="1.1" id="Layer_1" xmlns="http://www.w3.org/2000/svg" xmlns:xlink="http://www.w3.org/1999/xlink" x="0px" y="0px"
	 viewBox="0 0 32 32" style="enable-background:new 0 0 32 32;" xml:space="preserve">
<style type="text/css">
	.st0{fill:#FFD93B;}
	.st1{fill:#FFFFFF;}
	.st2{fill:#89664C;}
	.st3{fill:#3E4347;}
	.st4{fill:#E24B4B;}
	.st5{fill:#F29A2E;}
	.st6{fill:#5A5F63;}
	.st7{fill:#E18823;}
	.st8{fill:#65B1EF;}
	.st9{fill:#D03F3F;}
	.st10{opacity:0.2;}
	.st11{fill:#DEE4E9;}
	.st12{fill:#45CBEA;}
	.st13{fill:#F4C534;}
	.st14{fill:#BF3333;}
	.st15{fill:#D23F77;}
	.st16{fill:#E84D88;}
	.st17{fill:#7A5B44;}
	.st18{fill:#6B503B;}
	.st19{opacity:0.2;fill:#FFFFFF;}
	.st20{fill:#4E99D2;}
	.st21{fill:none;}
	.st22{opacity:0.15;fill:#FFFFFF;}
	.st23{fill:#8CC63E;}
	.st24{fill:#9A795F;}
	.st25{fill:#E9EFF4;}
</style>
<g>
	<g>
		<g>
			<g>
				<g>
					<g>
						<g>
							<g>
								<g>
									<g>
										<g>
											<g>
												<g>
													<g>
														<g>
															<g>
																<g>
																	<g>
																		<g>
																			<g>
																				<g>
																					<g>
																						<g>
																							<g>
																								<g>
																									<g>
																										<g>
																											<circle class="st0" cx="16" cy="16" r="16"/>
																										</g>
																									</g>
																								</g>
																							</g>
																						</g>
																					</g>
																					<g>
																						<g>
																							<g>
																								<g>
																									<g>
																										<g>
																											<path class="st13" d="M32,16c0,8.84-7.165,16-16,16c-5.03,0-9.52-2.32-12.455-5.955
																												c2.745,2.22,6.24,3.545,10.045,3.545c8.835,0,16-7.16,16-16c0-3.805-1.325-7.3-3.545-10.045
																												C29.675,6.48,32,10.97,32,16z"/>
																										</g>
																									</g>
																								</g>
																							</g>
																						</g>
																					</g>
																				</g>
																			</g>
																		</g>
																	</g>
																</g>
															</g>
														</g>
													</g>
												</g>
											</g>
										</g>
									</g>
								</g>
							</g>
						</g>
					</g>
				</g>
			</g>
		</g>
	</g>
	<g>
		<path class="st3" d="M9.014,25.338c0.085,1.302,3.05-1.613,6.994-1.734c3.852-0.153,6.975,4.653,6.969,2.516
			c0.364-2.268-2.686-5.157-6.96-4.741C11.826,21.793,8.712,24.242,9.014,25.338z"/>
	</g>
	<g>
		<g>
			<g>
				<g>
					
						<ellipse transform="matrix(0.9551 -0.2963 0.2963 0.9551 -3.625 3.2247)" class="st13" cx="8.827" cy="13.572" rx="4.945" ry="6.081"/>
				</g>
				<g>
					<path class="st1" d="M12.925,12.301c0.62,2.7-0.71,5.46-2.976,6.162s-4.601-0.92-5.221-3.62c-0.62-2.7,0.71-5.46,2.976-6.163
						C9.97,7.978,12.306,9.601,12.925,12.301z"/>
				</g>
			</g>
			<g>
				<g>
					<path class="st3" d="M12.589,13.568c0,1.517-1.025,2.744-2.271,2.744c-1.256,0-2.271-1.226-2.271-2.744
						c0-1.508,1.015-2.734,2.271-2.734C11.564,10.834,12.589,12.06,12.589,13.568z"/>
				</g>
				<g>
					<path class="st6" d="M11.549,12.696c-0.179,0.184-0.557,0.118-0.844-0.153c-0.277-0.269-0.362-0.641-0.182-0.836
						c0.179-0.184,0.557-0.118,0.844,0.153C11.644,12.128,11.729,12.501,11.549,12.696z"/>
				</g>
			</g>
		</g>
		<g>
			<g>
				<g>
					
						<ellipse transform="matrix(0.2963 -0.9551 0.9551 0.2963 3.3443 31.6839)" class="st13" cx="23.173" cy="13.572" rx="6.081" ry="4.945"/>
				</g>
				<g>
					<path class="st1" d="M19.075,12.301c-0.62,2.7,0.71,5.46,2.976,6.162c2.266,0.703,4.601-0.92,5.221-3.62
						c0.62-2.7-0.71-5.46-2.976-6.163C22.03,7.978,19.694,9.601,19.075,12.301z"/>
				</g>
			</g>
			<g>
				<g>
					<path class="st3" d="M23.954,13.568c0,1.517-1.025,2.744-2.271,2.744c-1.256,0-2.271-1.226-2.271-2.744
						c0-1.508,1.015-2.734,2.271-2.734C22.928,10.834,23.954,12.06,23.954,13.568z"/>
				</g>
				<g>
					<path class="st6" d="M22.913,12.696c-0.179,0.184-0.557,0.118-0.844-0.153c-0.277-0.269-0.362-0.641-0.182-0.836
						c0.179-0.184,0.557-0.118,0.844,0.153C23.009,12.128,23.094,12.501,22.913,12.696z"/>
				</g>
			</g>
		</g>
	</g>
</g>
</svg>
