<?xml version="1.0" encoding="utf-8"?>
<!-- Generator: Adobe Illustrator 21.1.0, SVG Export Plug-In . SVG Version: 6.00 Build 0)  -->
<svg version="1.1" id="Layer_1" xmlns="http://www.w3.org/2000/svg" xmlns:xlink="http://www.w3.org/1999/xlink" x="0px" y="0px"
	 viewBox="0 0 32 32" style="enable-background:new 0 0 32 32;" xml:space="preserve">
<style type="text/css">
	.st0{fill:#FFD93B;}
	.st1{fill:#FFFFFF;}
	.st2{fill:#89664C;}
	.st3{fill:#3E4347;}
	.st4{fill:#E24B4B;}
	.st5{fill:#F29A2E;}
	.st6{fill:#5A5F63;}
	.st7{fill:#E18823;}
	.st8{fill:#65B1EF;}
	.st9{fill:#D03F3F;}
	.st10{opacity:0.2;}
	.st11{fill:#DEE4E9;}
	.st12{fill:#45CBEA;}
	.st13{fill:#F4C534;}
	.st14{fill:#BF3333;}
	.st15{fill:#D23F77;}
	.st16{fill:#E84D88;}
	.st17{fill:#7A5B44;}
	.st18{fill:#6B503B;}
	.st19{opacity:0.2;fill:#FFFFFF;}
	.st20{fill:#4E99D2;}
	.st21{fill:none;}
	.st22{opacity:0.15;fill:#FFFFFF;}
	.st23{fill:#8CC63E;}
	.st24{fill:#9A795F;}
	.st25{fill:#E9EFF4;}
</style>
<g>
	<g>
		<g>
			<g>
				<g>
					<g>
						<g>
							<g>
								<g>
									<g>
										<g>
											<g>
												<g>
													<g>
														<g>
															<g>
																<g>
																	<g>
																		<g>
																			<g>
																				<g>
																					<g>
																						<g>
																							<g>
																								<g>
																									<circle class="st0" cx="16" cy="14.661" r="14.661"/>
																								</g>
																							</g>
																						</g>
																					</g>
																				</g>
																			</g>
																			<g>
																				<g>
																					<g>
																						<g>
																							<g>
																								<g>
																									<path class="st13" d="M30.661,14.661c0,8.1-6.565,14.661-14.661,14.661c-4.609,0-8.723-2.126-11.412-5.457
																										c2.515,2.034,5.718,3.248,9.204,3.248c8.095,0,14.661-6.561,14.661-14.661
																										c0-3.487-1.214-6.689-3.248-9.204C28.53,5.938,30.661,10.052,30.661,14.661z"/>
																								</g>
																							</g>
																						</g>
																					</g>
																				</g>
																			</g>
																		</g>
																	</g>
																</g>
															</g>
														</g>
													</g>
												</g>
											</g>
										</g>
									</g>
								</g>
							</g>
						</g>
					</g>
				</g>
			</g>
		</g>
	</g>
	<path class="st4" d="M16.255,26.597c0.037,0.861,0.22,1.722,0.073,2.575c-0.559,3.271-4.948,3.839-6.157,0.999
		c-0.366-0.871-0.293-1.841-0.202-2.776c0.449-4.499,0.797-5.892,1.494-6.9c1.054-1.512,3.042-2.089,4.746-1.347l2.877,1.054
		C17.226,21.749,16.154,24.187,16.255,26.597z"/>
	<path class="st9" d="M16.209,19.147c-0.657-0.286-1.355-0.372-2.026-0.288c0.115,0.094,0.218,0.203,0.288,0.332
		c0.239,0.439,0.212,0.98,0.066,1.458c-0.147,0.477-0.402,0.913-0.614,1.365c-0.531,1.136-0.785,2.452-0.434,3.656
		c0.363-2.386,1.702-4.607,3.643-6.041l1.051,0.241L16.209,19.147z"/>
	<g>
		<g>
			<path class="st13" d="M14.908,12.878c-0.756,1.921-3.34,3.313-5.946,3.102C6.243,15.658,3.7,12.047,4.946,8.71
				c1.36-3.302,4.468-3.71,6.934-1.81C14.297,8.556,15.669,10.781,14.908,12.878z"/>
			<path class="st1" d="M14.255,12.641c-0.861,1.655-3.259,2.941-5.536,2.63c-2.391-0.372-4.162-3.44-2.891-6.107
				c1.311-2.654,4.09-2.947,6.219-1.516C14.121,8.932,15.109,10.874,14.255,12.641z"/>
		</g>
		<g>
			<ellipse class="st3" cx="11.288" cy="11.397" rx="2.443" ry="2.447"/>
			
				<ellipse transform="matrix(0.7071 -0.7071 0.7071 0.7071 -3.8792 11.685)" class="st6" cx="12.165" cy="10.525" rx="0.518" ry="0.779"/>
		</g>
	</g>
	<g>
		<g>
			<path class="st13" d="M17.106,12.908c0.768,1.917,3.36,3.293,5.965,3.066c2.717-0.339,5.237-3.965,3.971-7.294
				c-1.38-3.294-4.49-3.683-6.945-1.768C17.691,8.583,16.333,10.816,17.106,12.908z"/>
			<path class="st1" d="M17.758,12.668c0.872,1.65,3.277,2.922,5.552,2.597c2.389-0.386,4.141-3.465,2.854-6.124
				c-1.327-2.646-4.108-2.922-6.228-1.478C17.869,8.958,16.894,10.906,17.758,12.668z"/>
		</g>
		<g>
			<ellipse class="st3" cx="20.712" cy="11.397" rx="2.443" ry="2.447"/>
			
				<ellipse transform="matrix(0.7071 -0.7071 0.7071 0.7071 -1.1187 18.3489)" class="st6" cx="21.588" cy="10.525" rx="0.518" ry="0.779"/>
		</g>
	</g>
	<path class="st3" d="M22.25,23.802v0.66c-1.819-4.288-8.46-6.368-12.849-2.685C9.401,16.076,22.25,15.475,22.25,23.802z"/>
	<g>
		<path class="st9" d="M14.49,30.703c-1.677,1.192-4.036-0.158-4.155-0.224c1.391,2.474,5.456,1.835,5.993-1.307
			c0.139-0.806-0.014-1.619-0.063-2.433C16.168,28.062,15.577,29.93,14.49,30.703z"/>
	</g>
	<path class="st9" d="M16.301,25.472c0.002-0.018,0.005-0.036,0.007-0.054L16.3,25.412C16.3,25.412,16.3,25.436,16.301,25.472z"/>
</g>
</svg>
