<?xml version="1.0" encoding="utf-8"?>
<!-- Generator: Adobe Illustrator 21.1.0, SVG Export Plug-In . SVG Version: 6.00 Build 0)  -->
<svg version="1.1" id="Layer_1" xmlns="http://www.w3.org/2000/svg" xmlns:xlink="http://www.w3.org/1999/xlink" x="0px" y="0px"
	 viewBox="0 0 32 32" style="enable-background:new 0 0 32 32;" xml:space="preserve">
<style type="text/css">
	.st0{fill:#FFD93B;}
	.st1{fill:#3E4347;}
	.st2{fill:#F4C534;}
	.st3{fill:#38C0DC;}
	.st4{fill:#45CBEA;}
	.st5{fill:#FFFFFF;}
	.st6{fill:#E24B4B;}
	.st7{fill:#5A5F63;}
	.st8{opacity:0.3;}
	.st9{opacity:0.2;}
	.st10{opacity:0.1;}
	.st11{fill:#E9B02C;}
	.st12{fill:#65B1EF;}
	.st13{fill:#E9EFF4;}
	.st14{fill:#8CC63E;}
	.st15{fill:#7FB239;}
	.st16{fill:#D03F3F;}
	.st17{fill:#D23F77;}
	.st18{fill:#E84D88;}
	.st19{fill:#59A5E0;}
	.st20{fill:#DEE4E9;}
	.st21{fill:#D3D9DD;}
	.st22{opacity:0.25;fill:#FFFFFF;}
	.st23{fill:#9A795F;}
	.st24{fill:#F29A2E;}
	.st25{fill:#FC97B2;}
	.st26{fill:#89664C;}
	.st27{fill:#7A5B44;}
	.st28{opacity:0.2;fill:#FFFFFF;}
	.st29{fill:#4E99D2;}
	.st30{fill:#BBC7D1;}
	.st31{fill:#DE9C25;}
</style>
<g>
	<circle class="st0" cx="16" cy="16" r="16"/>
	<path class="st2" d="M32,16c0,8.84-7.165,16-16,16c-5.03,0-9.52-2.32-12.455-5.955c2.745,2.22,6.24,3.545,10.045,3.545
		c8.835,0,16-7.16,16-16c0-3.805-1.325-7.3-3.545-10.045C29.675,6.48,32,10.97,32,16z"/>
	<path class="st6" d="M14.516,12.581c0,3.074-4.644,5.886-4.644,5.886s-4.644-2.812-4.644-5.886c0-1.313,1.061-2.373,2.373-2.373
		c1.074,0,1.975,0.709,2.274,1.677c0.292-0.968,1.193-1.677,2.267-1.677C13.448,10.208,14.516,11.269,14.516,12.581z"/>
	<path class="st16" d="M6.009,10.832c-0.477,0.434-0.78,1.053-0.78,1.75c0,3.074,4.644,5.886,4.644,5.886
		C5.01,14.361,5.973,10.951,6.009,10.832z"/>
	<path class="st5" d="M13.45,12.502c-0.226,0.183-0.61,0.061-0.862-0.261c-0.261-0.322-0.288-0.714-0.078-0.88
		c0.226-0.174,0.61-0.044,0.871,0.279C13.633,11.961,13.668,12.353,13.45,12.502z"/>
	<path class="st6" d="M26.772,12.581c0,3.074-4.644,5.886-4.644,5.886s-4.644-2.812-4.644-5.886c0-1.313,1.061-2.373,2.373-2.373
		c1.074,0,1.975,0.709,2.274,1.677c0.292-0.968,1.193-1.677,2.267-1.677C25.704,10.208,26.772,11.269,26.772,12.581z"/>
	<path class="st16" d="M18.265,10.832c-0.477,0.434-0.78,1.053-0.78,1.75c0,3.074,4.644,5.886,4.644,5.886
		C17.266,14.361,18.229,10.951,18.265,10.832z"/>
	<path class="st5" d="M25.706,12.502c-0.226,0.183-0.61,0.061-0.862-0.261c-0.261-0.322-0.288-0.714-0.078-0.88
		c0.226-0.174,0.61-0.044,0.871,0.279C25.889,11.961,25.924,12.353,25.706,12.502z"/>
	<path class="st1" d="M23.858,23.382c-1.89,2.24-4.707,4.026-7.857,4.026s-5.963-1.786-7.863-4.016c-0.66-0.78,0.01-1.97,1.03-1.79
		c4.5,0.79,9.05,0.8,13.67-0.01C23.848,21.422,24.528,22.602,23.858,23.382z"/>
	<path class="st6" d="M16.001,27.408c1.607,0,3.126-0.469,4.481-1.222c-0.568-2.107-2.547-2.707-3.915-1.98
		c-1.853,0.989-3.926-0.291-4.726,2.144C13.114,27.002,14.517,27.408,16.001,27.408z"/>
</g>
</svg>
