<?xml version="1.0" encoding="utf-8"?>
<!-- Generator: Adobe Illustrator 21.1.0, SVG Export Plug-In . SVG Version: 6.00 Build 0)  -->
<svg version="1.1" id="Layer_1" xmlns="http://www.w3.org/2000/svg" xmlns:xlink="http://www.w3.org/1999/xlink" x="0px" y="0px"
	 viewBox="0 0 32 32" style="enable-background:new 0 0 32 32;" xml:space="preserve">
<style type="text/css">
	.st0{fill:#FFD93B;}
	.st1{fill:#FFFFFF;}
	.st2{fill:#89664C;}
	.st3{fill:#3E4347;}
	.st4{fill:#E24B4B;}
	.st5{fill:#F29A2E;}
	.st6{fill:#5A5F63;}
	.st7{fill:#E18823;}
	.st8{fill:#65B1EF;}
	.st9{fill:#D03F3F;}
	.st10{opacity:0.2;}
	.st11{fill:#DEE4E9;}
	.st12{fill:#45CBEA;}
	.st13{fill:#F4C534;}
	.st14{fill:#BF3333;}
	.st15{fill:#D23F77;}
	.st16{fill:#E84D88;}
	.st17{fill:#7A5B44;}
	.st18{fill:#6B503B;}
	.st19{opacity:0.2;fill:#FFFFFF;}
	.st20{fill:#4E99D2;}
	.st21{fill:none;}
	.st22{opacity:0.15;fill:#FFFFFF;}
	.st23{fill:#8CC63E;}
	.st24{fill:#9A795F;}
	.st25{fill:#E9EFF4;}
</style>
<g>
	<g>
		<g>
			<g>
				<g>
					<g>
						<g>
							<g>
								<g>
									<g>
										<g>
											<g>
												<g>
													<g>
														<g>
															<g>
																<g>
																	<g>
																		<g>
																			<g>
																				<g>
																					<g>
																						<g>
																							<g>
																								<g>
																									<g>
																										<g>
																											<circle class="st0" cx="16" cy="16" r="16"/>
																										</g>
																									</g>
																								</g>
																							</g>
																						</g>
																					</g>
																					<g>
																						<g>
																							<g>
																								<g>
																									<g>
																										<g>
																											<path class="st13" d="M32,16c0,8.84-7.165,16-16,16c-5.03,0-9.52-2.32-12.455-5.955
																												c2.745,2.22,6.24,3.545,10.045,3.545c8.835,0,16-7.16,16-16c0-3.805-1.325-7.3-3.545-10.045
																												C29.675,6.48,32,10.97,32,16z"/>
																										</g>
																									</g>
																								</g>
																							</g>
																						</g>
																					</g>
																				</g>
																			</g>
																		</g>
																	</g>
																</g>
															</g>
														</g>
													</g>
												</g>
											</g>
										</g>
									</g>
								</g>
							</g>
						</g>
					</g>
				</g>
			</g>
		</g>
	</g>
	<g>
		<g>
			<g>
				<g>
					<g>
						<path class="st3" d="M25.802,20.366c-0.51,2.26-1.76,4.18-3.46,5.53c-1.7,1.35-3.85,2.14-6.17,2.14
							c-4.66,0-8.62-3.17-9.64-7.71c-0.06-0.28,0.02-0.57,0.22-0.79c0.22-0.22,0.53-0.32,0.82-0.26c6.11,1.11,11.89,1.13,17.17,0.04
							c0.31-0.07,0.61,0.02,0.82,0.24C25.782,19.766,25.862,20.066,25.802,20.366z"/>
					</g>
				</g>
			</g>
		</g>
	</g>
	<g>
		<path class="st1" d="M24.515,20.577c-1.07,3.715-4.434,6.266-8.338,6.266c-3.938,0-7.311-2.577-8.364-6.318
			c2.988,0.531,5.95,0.796,8.766,0.796C19.302,21.321,21.964,21.073,24.515,20.577z"/>
	</g>
	<g>
		<g>
			<path class="st13" d="M15.202,11.731c0,3.06-2.48,5.54-5.54,5.54c-3.05,0-5.53-2.48-5.53-5.54c0-3.05,2.48-5.53,5.53-5.53
				C12.722,6.201,15.202,8.681,15.202,11.731z"/>
		</g>
		<g>
			<path class="st1" d="M14.272,11.731c-0.19,2.568-2.404,4.642-4.954,4.642c-2.54,0-4.446-2.074-4.256-4.642
				C5.252,9.174,7.465,7.1,10.005,7.1C12.555,7.1,14.462,9.174,14.272,11.731z"/>
		</g>
		<g>
			<g>
				<path class="st3" d="M13.042,12.411c0,1.36-1.1,2.47-2.47,2.47c-1.35-0.01-2.46-1.12-2.46-2.47c0.01-1.36,1.11-2.47,2.46-2.47
					C11.952,9.941,13.042,11.052,13.042,12.411z"/>
			</g>
			<path class="st6" d="M12.104,11.97c-0.202,0.202-0.614,0.129-0.921-0.178c-0.299-0.299-0.372-0.711-0.17-0.913
				c0.202-0.202,0.614-0.129,0.913,0.17C12.234,11.356,12.306,11.768,12.104,11.97z"/>
		</g>
	</g>
	<g>
		<g>
			<path class="st13" d="M16.798,11.731c0,3.06,2.48,5.54,5.54,5.54c3.05,0,5.53-2.48,5.53-5.54c0-3.05-2.48-5.53-5.53-5.53
				C19.278,6.201,16.798,8.681,16.798,11.731z"/>
		</g>
		<g>
			<path class="st1" d="M17.728,11.731c0.19,2.568,2.404,4.642,4.954,4.642c2.54,0,4.446-2.074,4.256-4.642
				C26.748,9.174,24.535,7.1,21.995,7.1C19.445,7.1,17.538,9.174,17.728,11.731z"/>
		</g>
		<g>
			<g>
				<path class="st3" d="M23.888,12.411c0,1.36-1.1,2.47-2.47,2.47c-1.35-0.01-2.46-1.12-2.46-2.47c0.01-1.36,1.11-2.47,2.46-2.47
					C22.798,9.941,23.888,11.052,23.888,12.411z"/>
			</g>
			<path class="st6" d="M22.951,11.97c-0.202,0.202-0.614,0.129-0.921-0.178c-0.299-0.299-0.372-0.711-0.17-0.913
				c0.202-0.202,0.614-0.129,0.913,0.17C23.08,11.356,23.153,11.768,22.951,11.97z"/>
		</g>
	</g>
</g>
</svg>
