<?xml version="1.0" encoding="utf-8"?>
<!-- Generator: Adobe Illustrator 21.1.0, SVG Export Plug-In . SVG Version: 6.00 Build 0)  -->
<svg version="1.1" id="Layer_1" xmlns="http://www.w3.org/2000/svg" xmlns:xlink="http://www.w3.org/1999/xlink" x="0px" y="0px"
	 viewBox="0 0 32 32" style="enable-background:new 0 0 32 32;" xml:space="preserve">
<style type="text/css">
	.st0{fill:#FFD93B;}
	.st1{fill:#FFFFFF;}
	.st2{fill:#89664C;}
	.st3{fill:#3E4347;}
	.st4{fill:#E24B4B;}
	.st5{fill:#F29A2E;}
	.st6{fill:#5A5F63;}
	.st7{fill:#E18823;}
	.st8{fill:#65B1EF;}
	.st9{fill:#D03F3F;}
	.st10{opacity:0.2;}
	.st11{fill:#DEE4E9;}
	.st12{fill:#45CBEA;}
	.st13{fill:#F4C534;}
	.st14{fill:#BF3333;}
	.st15{fill:#D23F77;}
	.st16{fill:#E84D88;}
	.st17{fill:#7A5B44;}
	.st18{fill:#6B503B;}
	.st19{opacity:0.2;fill:#FFFFFF;}
	.st20{fill:#4E99D2;}
	.st21{fill:none;}
	.st22{opacity:0.15;fill:#FFFFFF;}
	.st23{fill:#8CC63E;}
	.st24{fill:#9A795F;}
	.st25{fill:#E9EFF4;}
</style>
<g>
	<g>
		<g>
			<g>
				<g>
					<g>
						<g>
							<g>
								<g>
									<g>
										<g>
											<g>
												<g>
													<g>
														<g>
															<g>
																<g>
																	<g>
																		<g>
																			<g>
																				<g>
																					<g>
																						<g>
																							<g>
																								<g>
																									<g>
																										<g>
																											<g>
																												<circle class="st0" cx="16" cy="16" r="16"/>
																											</g>
																										</g>
																									</g>
																								</g>
																							</g>
																						</g>
																						<g>
																							<g>
																								<g>
																									<g>
																										<g>
																											<g>
																												<path class="st13" d="M32,16c0,8.84-7.165,16-16,16c-5.03,0-9.52-2.32-12.455-5.955
																													c2.745,2.22,6.24,3.545,10.045,3.545c8.835,0,16-7.16,16-16c0-3.805-1.325-7.3-3.545-10.045
																													C29.675,6.48,32,10.97,32,16z"/>
																											</g>
																										</g>
																									</g>
																								</g>
																							</g>
																						</g>
																					</g>
																				</g>
																			</g>
																		</g>
																	</g>
																</g>
															</g>
														</g>
													</g>
												</g>
											</g>
										</g>
									</g>
								</g>
							</g>
						</g>
					</g>
				</g>
			</g>
		</g>
	</g>
	<g>
		<path class="st3" d="M11.592,20.906c-0.166,0.432-0.263,0.894-0.263,1.375c0,2.363,2.089,4.262,4.689,4.262
			c2.516,0,4.545-1.802,4.653-4.077C17.698,23.583,14.149,22.84,11.592,20.906z"/>
	</g>
	<g>
		<ellipse class="st13" cx="9.853" cy="13.393" rx="5.425" ry="4.617"/>
		<path class="st1" d="M14.514,13.393c-0.178,2.14-2.409,3.875-4.984,3.875s-4.516-1.735-4.338-3.875
			c0.178-2.141,2.409-3.875,4.984-3.875C12.751,9.518,14.693,11.252,14.514,13.393z"/>
		<g>
			<path class="st3" d="M13.897,12.792c0,1.213-0.991,2.204-2.213,2.204c-1.213,0-2.204-0.991-2.204-2.204
				c0-1.222,0.991-2.213,2.204-2.213C12.906,10.579,13.897,11.571,13.897,12.792z"/>
		</g>
		<g>
			
				<ellipse transform="matrix(0.7071 -0.7071 0.7071 0.7071 -4.8609 12.3257)" class="st6" cx="12.448" cy="12.031" rx="0.537" ry="0.728"/>
		</g>
		<path class="st3" d="M13.206,5.412C13.15,5.147,9.447,8.846,5.181,9.739C9.037,11.294,12.046,9.703,13.206,5.412z"/>
		<ellipse class="st13" cx="22.146" cy="14.361" rx="5.425" ry="4.617"/>
		<path class="st1" d="M17.485,14.361c0.178,2.141,2.409,3.875,4.984,3.875s4.516-1.735,4.338-3.875
			c-0.178-2.141-2.409-3.875-4.984-3.875C19.249,10.486,17.307,12.22,17.485,14.361z"/>
		<g>
			<path class="st3" d="M18.103,13.76c0,1.213,0.991,2.204,2.213,2.204c1.213,0,2.204-0.991,2.204-2.204
				c0-1.222-0.991-2.213-2.204-2.213C19.094,11.547,18.103,12.539,18.103,13.76z"/>
		</g>
		<g>
			
				<ellipse transform="matrix(0.7071 -0.7071 0.7071 0.7071 -3.4646 17.6324)" class="st6" cx="19.552" cy="12.998" rx="0.728" ry="0.537"/>
		</g>
		<path class="st3" d="M18.794,6.379c0.056-0.265,3.759,3.434,8.025,4.327C22.963,12.262,19.954,10.671,18.794,6.379z"/>
	</g>
</g>
</svg>
