<?xml version="1.0" encoding="utf-8"?>
<!-- Generator: Adobe Illustrator 21.1.0, SVG Export Plug-In . SVG Version: 6.00 Build 0)  -->
<svg version="1.1" id="Layer_1" xmlns="http://www.w3.org/2000/svg" xmlns:xlink="http://www.w3.org/1999/xlink" x="0px" y="0px"
	 viewBox="0 0 32 32" style="enable-background:new 0 0 32 32;" xml:space="preserve">
<style type="text/css">
	.st0{fill:#FFD93B;}
	.st1{fill:#FFFFFF;}
	.st2{fill:#89664C;}
	.st3{fill:#3E4347;}
	.st4{fill:#E24B4B;}
	.st5{fill:#F29A2E;}
	.st6{fill:#5A5F63;}
	.st7{fill:#E18823;}
	.st8{fill:#65B1EF;}
	.st9{fill:#D03F3F;}
	.st10{opacity:0.2;}
	.st11{fill:#DEE4E9;}
	.st12{fill:#45CBEA;}
	.st13{fill:#F4C534;}
	.st14{fill:#BF3333;}
	.st15{fill:#D23F77;}
	.st16{fill:#E84D88;}
	.st17{fill:#7A5B44;}
	.st18{fill:#6B503B;}
	.st19{opacity:0.2;fill:#FFFFFF;}
	.st20{fill:#4E99D2;}
	.st21{fill:none;}
	.st22{opacity:0.15;fill:#FFFFFF;}
	.st23{fill:#8CC63E;}
	.st24{fill:#9A795F;}
	.st25{fill:#E9EFF4;}
</style>
<g>
	<circle class="st0" cx="16" cy="16" r="16"/>
	<path class="st13" d="M31.924,16c0,8.84-7.165,16-16,16c-5.03,0-9.52-2.32-12.455-5.955c2.745,2.22,6.24,3.545,10.045,3.545
		c8.835,0,16-7.16,16-16c0-3.805-1.325-7.3-3.545-10.045C29.599,6.48,31.924,10.97,31.924,16z"/>
	<g>
		<path class="st1" d="M14.713,13.243c0,2.738-2.214,4.961-4.961,4.961c-2.738,0-4.961-2.223-4.961-4.961
			c0-2.747,2.224-4.97,4.961-4.97C12.499,8.273,14.713,10.497,14.713,13.243z"/>
	</g>
	<g>
		<path class="st1" d="M27.209,13.243c0,2.738-2.214,4.961-4.961,4.961c-2.737,0-4.961-2.223-4.961-4.961
			c0-2.747,2.224-4.97,4.961-4.97C24.995,8.273,27.209,10.497,27.209,13.243z"/>
	</g>
	<g>
		<g>
			<g>
				<g>
					<path class="st3" d="M12.64,13.243c0,1.59-1.28,2.9-2.89,2.9c-1.59,0-2.88-1.31-2.88-2.9c0-1.6,1.29-2.91,2.88-2.91
						C11.36,10.333,12.64,11.643,12.64,13.243z"/>
					<path class="st3" d="M25.14,13.243c0,1.59-1.28,2.9-2.89,2.9c-1.59,0-2.89-1.31-2.89-2.9c0-1.6,1.3-2.91,2.89-2.91
						C23.86,10.333,25.14,11.643,25.14,13.243z"/>
				</g>
			</g>
		</g>
		<g>
			<g>
				<g>
					
						<ellipse transform="matrix(0.7071 -0.7071 0.7071 0.7071 -1.8391 20.026)" class="st1" cx="23.254" cy="12.233" rx="0.659" ry="0.953"/>
				</g>
			</g>
		</g>
	</g>
	<path class="st3" d="M30.327,12.489h-2.469c-0.37-2.771-2.743-4.915-5.61-4.915c-2.122,0-3.972,1.176-4.94,2.91
		c-0.263,0.471-0.76,0.745-1.299,0.742c-0.003,0-0.006,0-0.01,0c-0.005,0-0.009,0-0.014,0c-0.537,0.004-1.032-0.271-1.293-0.74
		c-0.968-1.735-2.818-2.912-4.94-2.912c-2.866,0-5.234,2.146-5.605,4.915H1.67v1.5h2.494c0.348,2.588,2.451,4.671,5.1,4.895
		c3.352,0.284,6.215-2.389,6.144-5.759c0.057-0.282,0.295-0.498,0.592-0.498c0.304,0,0.586,0.219,0.586,0.617
		c0,3.268,2.785,5.899,6.106,5.644c2.658-0.204,4.801-2.283,5.148-4.899h2.486V12.489z M9.753,17.503
		c-2.349,0-4.261-1.912-4.261-4.26c0-2.354,1.911-4.269,4.261-4.269c2.349,0,4.26,1.915,4.26,4.269
		C14.012,15.592,12.101,17.503,9.753,17.503z M22.248,17.503c-2.349,0-4.261-1.912-4.261-4.26c0-2.354,1.911-4.269,4.261-4.269
		c2.349,0,4.26,1.915,4.26,4.269C26.508,15.592,24.597,17.503,22.248,17.503z"/>
	<g>
		
			<ellipse transform="matrix(0.7071 -0.7071 0.7071 0.7071 -5.4991 11.1901)" class="st1" cx="10.758" cy="12.233" rx="0.659" ry="0.953"/>
	</g>
	<path class="st3" d="M25.642,5.504c-2.11,0.244-6.065,0.917-7.389-0.754c-0.58-0.728-0.401-1.33-0.143-2.072l0.267,0.382
		C19.64,4.892,24.063,5.305,25.642,5.504z"/>
	<path class="st3" d="M13.747,4.75c-1.323,1.671-5.276,0.999-7.389,0.754c2.763-0.349,6.008-0.65,7.532-2.826
		C14.148,3.42,14.328,4.022,13.747,4.75z"/>
	<path class="st3" d="M22.288,27.886c-4.192-1.496-8.371-1.496-12.563,0c-0.699,0.251-1.439-0.377-1.258-1.104
		c0.978-3.885,3.983-6.722,7.532-6.722c3.563,0,6.568,2.837,7.532,6.722C23.714,27.508,22.987,28.137,22.288,27.886z"/>
	<path class="st4" d="M20.408,27.326c0.039-0.189,0.061-0.385,0.061-0.586c0-1.586-1.287-2.872-2.872-2.872
		c-0.747,0-1.428,0.282-1.934,0.755c-0.39-0.207-0.838-0.324-1.32-0.324c-1.585,0-2.864,1.286-2.864,2.872
		c0,0.061,0.014,0.118,0.018,0.178C14.469,26.588,17.436,26.582,20.408,27.326z"/>
</g>
</svg>
