<?xml version="1.0" encoding="utf-8"?>
<!-- Generator: Adobe Illustrator 21.1.0, SVG Export Plug-In . SVG Version: 6.00 Build 0)  -->
<svg version="1.1" id="Layer_1" xmlns="http://www.w3.org/2000/svg" xmlns:xlink="http://www.w3.org/1999/xlink" x="0px" y="0px"
	 viewBox="0 0 32 32" style="enable-background:new 0 0 32 32;" xml:space="preserve">
<style type="text/css">
	.st0{fill:#FFD93B;}
	.st1{fill:#FFFFFF;}
	.st2{fill:#89664C;}
	.st3{fill:#3E4347;}
	.st4{fill:#E24B4B;}
	.st5{fill:#F29A2E;}
	.st6{fill:#5A5F63;}
	.st7{fill:#E18823;}
	.st8{fill:#65B1EF;}
	.st9{fill:#D03F3F;}
	.st10{opacity:0.2;}
	.st11{fill:#DEE4E9;}
	.st12{fill:#45CBEA;}
	.st13{fill:#F4C534;}
	.st14{fill:#BF3333;}
	.st15{fill:#D23F77;}
	.st16{fill:#E84D88;}
	.st17{fill:#7A5B44;}
	.st18{fill:#6B503B;}
	.st19{opacity:0.2;fill:#FFFFFF;}
	.st20{fill:#4E99D2;}
	.st21{fill:none;}
	.st22{opacity:0.15;fill:#FFFFFF;}
	.st23{fill:#8CC63E;}
	.st24{fill:#9A795F;}
	.st25{fill:#E9EFF4;}
</style>
<g>
	<circle class="st0" cx="16" cy="16" r="16"/>
	<path class="st13" d="M31.924,16c0,8.84-7.165,16-16,16c-5.03,0-9.52-2.32-12.455-5.955c2.745,2.22,6.24,3.545,10.045,3.545
		c8.835,0,16-7.16,16-16c0-3.805-1.325-7.3-3.545-10.045C29.599,6.48,31.924,10.97,31.924,16z"/>
	<path class="st1" d="M14.713,13.043c0,2.738-2.214,4.961-4.961,4.961c-2.738,0-4.961-2.223-4.961-4.961
		c0-2.747,2.223-4.97,4.961-4.97C12.499,8.073,14.713,10.297,14.713,13.043z"/>
	<path class="st1" d="M27.209,13.043c0,2.738-2.214,4.961-4.961,4.961c-2.737,0-4.961-2.223-4.961-4.961
		c0-2.747,2.224-4.97,4.961-4.97C24.995,8.073,27.209,10.297,27.209,13.043z"/>
	<path class="st3" d="M30.327,12.289h-2.469c-0.37-2.771-2.743-4.916-5.61-4.916c-2.122,0-3.972,1.176-4.94,2.91
		c-0.263,0.471-0.76,0.745-1.299,0.742c-0.003,0-0.006,0-0.01,0c-0.005,0-0.009,0-0.014,0c-0.537,0.004-1.032-0.271-1.293-0.74
		c-0.968-1.735-2.818-2.912-4.94-2.912c-2.866,0-5.234,2.146-5.605,4.916H1.67v1.5h2.494c0.348,2.588,2.451,4.671,5.1,4.895
		c3.352,0.284,6.215-2.389,6.144-5.759c0.057-0.282,0.295-0.498,0.592-0.498c0.304,0,0.586,0.219,0.586,0.617
		c0,3.268,2.785,5.899,6.106,5.644c2.658-0.204,4.802-2.283,5.148-4.899h2.486V12.289z M9.753,17.303
		c-2.349,0-4.261-1.912-4.261-4.26c0-2.354,1.911-4.269,4.261-4.269c2.349,0,4.26,1.915,4.26,4.269
		C14.012,15.392,12.101,17.303,9.753,17.303z M22.248,17.303c-2.349,0-4.261-1.912-4.261-4.26c0-2.354,1.911-4.269,4.261-4.269
		c2.349,0,4.26,1.915,4.26,4.269C26.508,15.392,24.597,17.303,22.248,17.303z"/>
	<path class="st3" d="M22.895,13.041c0,1.043-0.84,1.902-1.895,1.902c-1.043,0-1.895-0.859-1.895-1.902
		c0-1.049,0.853-1.909,1.895-1.909C22.056,11.133,22.895,11.992,22.895,13.041z"/>
	
		<ellipse transform="matrix(0.7071 -0.7071 0.7071 0.7071 -2.4095 18.9407)" class="st1" cx="21.658" cy="12.379" rx="0.432" ry="0.625"/>
	<path class="st3" d="M12.895,13.041c0,1.043-0.84,1.902-1.895,1.902c-1.043,0-1.895-0.859-1.895-1.902
		c0-1.049,0.853-1.909,1.895-1.909C12.056,11.133,12.895,11.992,12.895,13.041z"/>
	
		<ellipse transform="matrix(0.7071 -0.7071 0.7071 0.7071 -5.3385 11.8696)" class="st1" cx="11.658" cy="12.379" rx="0.432" ry="0.625"/>
	<path class="st3" d="M20.154,4.8c0,0,3.75-0.969,6.5,2.125C26.654,6.925,24.779,0.675,20.154,4.8z"/>
	<path class="st3" d="M11.846,4.8c0,0-3.75-0.969-6.5,2.125C5.346,6.925,7.221,0.675,11.846,4.8z"/>
	<path class="st3" d="M21.136,24.342c0,2.552-2.408,4.619-5.383,4.619c-2.983,0-5.392-2.067-5.392-4.619
		c0-2.552,2.408-4.619,5.392-4.619C18.728,19.723,21.136,21.79,21.136,24.342z"/>
	<path class="st1" d="M11.677,21.347c1.179,0.095,2.583,0.109,4.07,0.113c1.481-0.014,2.881-0.035,4.056-0.131
		c-0.987-0.976-2.425-1.606-4.051-1.606C14.113,19.723,12.665,20.361,11.677,21.347z"/>
</g>
</svg>
