<?xml version="1.0" encoding="utf-8"?>
<!-- Generator: Adobe Illustrator 21.1.0, SVG Export Plug-In . SVG Version: 6.00 Build 0)  -->
<svg version="1.1" id="Layer_1" xmlns="http://www.w3.org/2000/svg" xmlns:xlink="http://www.w3.org/1999/xlink" x="0px" y="0px"
	 viewBox="0 0 32 32" style="enable-background:new 0 0 32 32;" xml:space="preserve">
<style type="text/css">
	.st0{fill:#FFD93B;}
	.st1{fill:#FFFFFF;}
	.st2{fill:#89664C;}
	.st3{fill:#3E4347;}
	.st4{fill:#E24B4B;}
	.st5{fill:#F29A2E;}
	.st6{fill:#5A5F63;}
	.st7{fill:#E18823;}
	.st8{fill:#65B1EF;}
	.st9{fill:#D03F3F;}
	.st10{opacity:0.2;}
	.st11{fill:#DEE4E9;}
	.st12{fill:#45CBEA;}
	.st13{fill:#F4C534;}
	.st14{fill:#BF3333;}
	.st15{fill:#D23F77;}
	.st16{fill:#E84D88;}
	.st17{fill:#7A5B44;}
	.st18{fill:#6B503B;}
	.st19{opacity:0.2;fill:#FFFFFF;}
	.st20{fill:#4E99D2;}
	.st21{fill:none;}
	.st22{opacity:0.15;fill:#FFFFFF;}
	.st23{fill:#8CC63E;}
	.st24{fill:#9A795F;}
	.st25{fill:#E9EFF4;}
</style>
<g>
	<circle class="st0" cx="16" cy="16" r="16"/>
	<path class="st13" d="M31.924,16c0,8.84-7.165,16-16,16c-5.03,0-9.52-2.32-12.455-5.955c2.745,2.22,6.24,3.545,10.045,3.545
		c8.835,0,16-7.16,16-16c0-3.805-1.325-7.3-3.545-10.045C29.599,6.48,31.924,10.97,31.924,16z"/>
	<path class="st3" d="M16.017,26.526c-1.53,0-2.776-1.12-2.785-2.504c-0.009-1.384,1.222-2.508,2.751-2.508
		c1.53,0,2.776,1.125,2.785,2.509C18.778,25.406,17.547,26.526,16.017,26.526z"/>
	<ellipse class="st1" cx="22.814" cy="14.881" rx="4.809" ry="4.806"/>
	<ellipse class="st3" cx="22.812" cy="14.882" rx="2.622" ry="2.624"/>
	
		<ellipse transform="matrix(0.7072 -0.7071 0.7071 0.7072 -2.7909 20.9817)" class="st1" cx="23.934" cy="13.86" rx="0.478" ry="0.709"/>
	<ellipse class="st1" cx="9.189" cy="14.881" rx="4.809" ry="4.806"/>
	<ellipse class="st3" cx="9.187" cy="14.882" rx="2.622" ry="2.624"/>
	
		<ellipse transform="matrix(0.7072 -0.7071 0.7071 0.7072 -6.7807 11.3483)" class="st1" cx="10.31" cy="13.86" rx="0.478" ry="0.709"/>
</g>
</svg>
