<?xml version="1.0" encoding="utf-8"?>
<!-- Generator: Adobe Illustrator 21.1.0, SVG Export Plug-In . SVG Version: 6.00 Build 0)  -->
<svg version="1.1" id="Layer_1" xmlns="http://www.w3.org/2000/svg" xmlns:xlink="http://www.w3.org/1999/xlink" x="0px" y="0px"
	 viewBox="0 0 32 32" style="enable-background:new 0 0 32 32;" xml:space="preserve">
<style type="text/css">
	.st0{fill:#FFD93B;}
	.st1{fill:#3E4347;}
	.st2{fill:#F4C534;}
	.st3{fill:#38C0DC;}
	.st4{fill:#45CBEA;}
	.st5{fill:#FFFFFF;}
	.st6{fill:#E24B4B;}
	.st7{fill:#5A5F63;}
	.st8{opacity:0.3;}
	.st9{opacity:0.2;}
	.st10{opacity:0.1;}
	.st11{fill:#E9B02C;}
	.st12{fill:#65B1EF;}
	.st13{fill:#E9EFF4;}
	.st14{fill:#8CC63E;}
	.st15{fill:#7FB239;}
	.st16{fill:#D03F3F;}
	.st17{fill:#D23F77;}
	.st18{fill:#E84D88;}
	.st19{fill:#59A5E0;}
	.st20{fill:#DEE4E9;}
	.st21{fill:#D3D9DD;}
	.st22{opacity:0.25;fill:#FFFFFF;}
	.st23{fill:#9A795F;}
	.st24{fill:#F29A2E;}
	.st25{fill:#FC97B2;}
	.st26{fill:#89664C;}
	.st27{fill:#7A5B44;}
	.st28{opacity:0.2;fill:#FFFFFF;}
	.st29{fill:#4E99D2;}
	.st30{fill:#BBC7D1;}
	.st31{fill:#DE9C25;}
</style>
<g>
	<circle class="st0" cx="16" cy="16" r="16"/>
	<path class="st2" d="M32,16c0,8.84-7.165,16-16,16c-5.03,0-9.52-2.32-12.455-5.955c2.745,2.22,6.24,3.545,10.045,3.545
		c8.835,0,16-7.16,16-16c0-3.805-1.325-7.3-3.545-10.045C29.675,6.48,32,10.97,32,16z"/>
	<g>
		<g>
			<g>
				<circle class="st5" cx="9.418" cy="17" r="5.06"/>
			</g>
		</g>
		<g>
			<g>
				<circle class="st1" cx="9.418" cy="17" r="2.48"/>
			</g>
		</g>
		<g>
			<g>
				<g>
					<path class="st5" d="M9.148,16.03c0,0.36-0.29,0.65-0.66,0.65c-0.36,0-0.65-0.29-0.65-0.65c0-0.37,0.29-0.66,0.65-0.66
						C8.858,15.37,9.148,15.66,9.148,16.03z"/>
				</g>
			</g>
			<g>
				<g>
					<circle class="st5" cx="10.191" cy="18.327" r="0.396"/>
				</g>
			</g>
		</g>
	</g>
	<g>
		<g>
			<g>
				<circle class="st5" cx="22.582" cy="17" r="5.06"/>
			</g>
		</g>
		<g>
			<g>
				<circle class="st1" cx="22.582" cy="17" r="2.48"/>
			</g>
		</g>
		<g>
			<g>
				<g>
					<path class="st5" d="M22.312,16.03c0,0.36-0.29,0.65-0.66,0.65c-0.36,0-0.65-0.29-0.65-0.65c0-0.37,0.29-0.66,0.65-0.66
						C22.022,15.37,22.312,15.66,22.312,16.03z"/>
				</g>
			</g>
			<g>
				<g>
					<circle class="st5" cx="23.356" cy="18.327" r="0.396"/>
				</g>
			</g>
		</g>
	</g>
	<g>
		<g>
			<path class="st1" d="M25.434,11.5c-2.868-0.64-5.121-1.846-6.695-3.586c-0.278-0.307-0.255-0.781,0.053-1.06
				c0.308-0.277,0.782-0.254,1.059,0.053c1.362,1.505,3.352,2.558,5.91,3.129c0.404,0.09,0.659,0.491,0.569,0.895
				C26.239,11.339,25.834,11.589,25.434,11.5z"/>
		</g>
	</g>
	<g>
		<g>
			<path class="st1" d="M5.673,10.931c-0.09-0.404,0.165-0.805,0.569-0.896c2.559-0.571,4.547-1.624,5.909-3.129
				c0.276-0.308,0.751-0.331,1.059-0.053c0.308,0.278,0.331,0.752,0.053,1.06C11.688,9.653,9.436,10.86,6.568,11.5
				C6.165,11.59,5.763,11.337,5.673,10.931z"/>
		</g>
	</g>
	<g>
		<path class="st1" d="M20.811,24.214c0.94,0.714-0.89,3.901-4.817,3.943c-3.926-0.018-5.767-3.209-4.806-3.943
			c0.882-0.797,2.885-0.227,4.816-0.307C17.937,24.011,19.95,23.438,20.811,24.214z"/>
	</g>
	<path class="st5" d="M20.328,23.952c-1.004-0.346-2.688,0.042-4.323-0.045c-1.653,0.068-3.352-0.333-4.362,0.047
		c0.864,1.159,1.789,1.331,4.352,1.343C18.56,25.27,19.463,25.104,20.328,23.952z"/>
	<path class="st6" d="M15.995,28.157c1.061-0.011,1.963-0.256,2.705-0.616c-0.016-0.144-0.021-0.287-0.063-0.431
		c-0.287-1.082-1.483-1.584-2.547-1.237c-0.281,0.096-0.574,0.143-0.855,0.155c-1.168,0.049-1.774,0.728-1.91,1.545
		C14.061,27.92,14.952,28.152,15.995,28.157z"/>
</g>
</svg>
