<?xml version="1.0" encoding="utf-8"?>
<!-- Generator: Adobe Illustrator 21.1.0, SVG Export Plug-In . SVG Version: 6.00 Build 0)  -->
<svg version="1.1" id="Layer_1" xmlns="http://www.w3.org/2000/svg" xmlns:xlink="http://www.w3.org/1999/xlink" x="0px" y="0px"
	 viewBox="0 0 32 32" style="enable-background:new 0 0 32 32;" xml:space="preserve">
<style type="text/css">
	.st0{fill:#FFD93B;}
	.st1{fill:#FFFFFF;}
	.st2{fill:#89664C;}
	.st3{fill:#3E4347;}
	.st4{fill:#E24B4B;}
	.st5{fill:#F29A2E;}
	.st6{fill:#5A5F63;}
	.st7{fill:#E18823;}
	.st8{fill:#65B1EF;}
	.st9{fill:#D03F3F;}
	.st10{opacity:0.2;}
	.st11{fill:#DEE4E9;}
	.st12{fill:#45CBEA;}
	.st13{fill:#F4C534;}
	.st14{fill:#BF3333;}
	.st15{fill:#D23F77;}
	.st16{fill:#E84D88;}
	.st17{fill:#7A5B44;}
	.st18{fill:#6B503B;}
	.st19{opacity:0.2;fill:#FFFFFF;}
	.st20{fill:#4E99D2;}
	.st21{fill:none;}
	.st22{opacity:0.15;fill:#FFFFFF;}
	.st23{fill:#8CC63E;}
	.st24{fill:#9A795F;}
	.st25{fill:#E9EFF4;}
</style>
<g>
	<circle class="st0" cx="16" cy="14.659" r="14.659"/>
	<path class="st13" d="M30.589,14.659c0,8.099-6.564,14.659-14.659,14.659c-4.608,0-8.722-2.125-11.411-5.456
		c2.515,2.034,5.717,3.248,9.203,3.248c8.094,0,14.659-6.56,14.659-14.659c0-3.486-1.214-6.688-3.248-9.203
		C28.459,5.937,30.589,10.05,30.589,14.659z"/>
	<ellipse class="st1" cx="22.545" cy="12.439" rx="4.62" ry="4.617"/>
	<ellipse class="st3" cx="22.544" cy="12.44" rx="2.518" ry="2.521"/>
	
		<ellipse transform="matrix(0.7072 -0.707 0.707 0.7072 -1.1848 20.0558)" class="st1" cx="23.622" cy="11.458" rx="0.459" ry="0.681"/>
	<ellipse class="st1" cx="9.457" cy="12.439" rx="4.62" ry="4.617"/>
	<ellipse class="st3" cx="9.456" cy="12.44" rx="2.518" ry="2.521"/>
	
		<ellipse transform="matrix(0.7072 -0.707 0.707 0.7072 -5.0169 10.8024)" class="st1" cx="10.534" cy="11.458" rx="0.459" ry="0.681"/>
	<path class="st3" d="M24.83,20.577c-1.789,3.358-5.069,5.609-8.833,5.609s-7.044-2.25-8.823-5.609
		c-0.36-0.663,0.319-1.416,0.946-1.063c5.255,2.982,10.509,2.982,15.764,0C24.501,19.161,25.18,19.915,24.83,20.577z"/>
	<path class="st4" d="M14.432,23.113c-1.247-0.408-2.74,0.258-2.666,1.682c0.714,4.25,2.549,7.235,4.237,7.205
		c1.69-0.027,3.519-3.004,4.23-7.154c0.077-1.39-1.411-2.063-2.66-1.697C16.544,23.41,15.462,23.404,14.432,23.113z"/>
</g>
</svg>
