<?xml version="1.0" encoding="utf-8"?>
<!-- Generator: Adobe Illustrator 21.1.0, SVG Export Plug-In . SVG Version: 6.00 Build 0)  -->
<svg version="1.1" id="Layer_1" xmlns="http://www.w3.org/2000/svg" xmlns:xlink="http://www.w3.org/1999/xlink" x="0px" y="0px"
	 viewBox="0 0 32 32" style="enable-background:new 0 0 32 32;" xml:space="preserve">
<style type="text/css">
	.st0{fill:#FFD93B;}
	.st1{fill:#FFFFFF;}
	.st2{fill:#89664C;}
	.st3{fill:#3E4347;}
	.st4{fill:#E24B4B;}
	.st5{fill:#F29A2E;}
	.st6{fill:#5A5F63;}
	.st7{fill:#E18823;}
	.st8{fill:#65B1EF;}
	.st9{fill:#D03F3F;}
	.st10{opacity:0.2;}
	.st11{fill:#DEE4E9;}
	.st12{fill:#45CBEA;}
	.st13{fill:#F4C534;}
	.st14{fill:#BF3333;}
	.st15{fill:#D23F77;}
	.st16{fill:#E84D88;}
	.st17{fill:#7A5B44;}
	.st18{fill:#6B503B;}
	.st19{opacity:0.2;fill:#FFFFFF;}
	.st20{fill:#4E99D2;}
	.st21{fill:none;}
	.st22{opacity:0.15;fill:#FFFFFF;}
	.st23{fill:#8CC63E;}
	.st24{fill:#9A795F;}
	.st25{fill:#E9EFF4;}
</style>
<g>
	<g>
		<circle class="st0" cx="16" cy="15.162" r="15.162"/>
		<path class="st13" d="M31.09,15.162c0,8.377-6.79,15.162-15.162,15.162c-4.767,0-9.022-2.198-11.803-5.643
			c2.601,2.104,5.913,3.359,9.519,3.36c8.372,0,15.162-6.785,15.162-15.162c0-3.606-1.256-6.918-3.359-9.519
			C28.887,6.141,31.09,10.396,31.09,15.162z"/>
		<path class="st3" d="M25.086,20.167c-0.72,2.966-4.52,5.231-9.107,5.231c-4.596,0-8.396-2.265-9.116-5.231
			c-0.076-0.351,0.284-0.635,0.607-0.493c5.743,2.407,11.41,2.379,17.01,0C24.811,19.532,25.171,19.816,25.086,20.167z"/>
		<path class="st4" d="M20.738,24.377c-1.221,4.816-3.447,7.609-4.886,7.623c-1.433,0.028-3.664-2.756-4.903-7.698
			c-0.129-1.553,1.63-2.118,3.098-1.598c1.189,0.356,2.437,0.375,3.611,0.049C19.123,22.288,20.865,22.869,20.738,24.377z"/>
	</g>
	<g>
		<ellipse class="st1" cx="16.002" cy="11.431" rx="7.611" ry="7.607"/>
		<ellipse class="st3" cx="16" cy="11.432" rx="4.474" ry="4.478"/>
		
			<ellipse transform="matrix(0.7071 -0.7071 0.7071 0.7071 -1.6042 15.5048)" class="st1" cx="17.915" cy="9.689" rx="0.816" ry="1.211"/>
	</g>
</g>
</svg>
