<?xml version="1.0" encoding="utf-8"?>
<!-- Generator: Adobe Illustrator 21.1.0, SVG Export Plug-In . SVG Version: 6.00 Build 0)  -->
<svg version="1.1" id="Layer_1" xmlns="http://www.w3.org/2000/svg" xmlns:xlink="http://www.w3.org/1999/xlink" x="0px" y="0px"
	 viewBox="0 0 32 32" style="enable-background:new 0 0 32 32;" xml:space="preserve">
<style type="text/css">
	.st0{fill:#FFD93B;}
	.st1{fill:#FFFFFF;}
	.st2{fill:#89664C;}
	.st3{fill:#3E4347;}
	.st4{fill:#E24B4B;}
	.st5{fill:#F29A2E;}
	.st6{fill:#5A5F63;}
	.st7{fill:#E18823;}
	.st8{fill:#65B1EF;}
	.st9{fill:#D03F3F;}
	.st10{opacity:0.2;}
	.st11{fill:#DEE4E9;}
	.st12{fill:#45CBEA;}
	.st13{fill:#F4C534;}
	.st14{fill:#BF3333;}
	.st15{fill:#D23F77;}
	.st16{fill:#E84D88;}
	.st17{fill:#7A5B44;}
	.st18{fill:#6B503B;}
	.st19{opacity:0.2;fill:#FFFFFF;}
	.st20{fill:#4E99D2;}
	.st21{fill:none;}
	.st22{opacity:0.15;fill:#FFFFFF;}
	.st23{fill:#8CC63E;}
	.st24{fill:#9A795F;}
	.st25{fill:#E9EFF4;}
</style>
<g>
	<circle class="st0" cx="16" cy="16" r="16"/>
	<path class="st13" d="M32,16c0,8.84-7.165,16-16,16c-5.03,0-9.52-2.32-12.455-5.955c2.745,2.22,6.24,3.545,10.045,3.545
		c8.835,0,16-7.16,16-16c0-3.805-1.325-7.3-3.545-10.045C29.675,6.48,32,10.97,32,16z"/>
	<path class="st13" d="M13.648,14.162l1,0.39c-2.437,0.575-5.175,0.778-8.6-0.43c2.493,0.079,4.636,0.227,6.48,0.1
		c-0.829-0.679-1.48-1.8-1.8-2.85C11.442,12.47,12.429,13.665,13.648,14.162z"/>
	<path class="st13" d="M25.958,14.122c-2.633,0.921-5.403,1.179-8.61,0.43c1.073-0.414,2.346-0.694,3.92-3.18
		c-0.313,1.027-0.957,2.185-1.8,2.85C21.306,14.349,23.71,14.192,25.958,14.122z"/>
	<path class="st3" d="M5.778,9.432c0.139,0.108,1.746,1.502,2.49,2.09c0.835,0.66,1.837,1.378,2.59,1.98
		C9.116,13.656,6.202,11.756,5.778,9.432z"/>
	<path class="st3" d="M26.218,9.432c-0.426,2.346-3.333,4.222-5.08,4.07c1.026-0.82,2.989-2.17,4.84-3.88
		C26.128,9.502,26.218,9.432,26.218,9.432z"/>
	<path class="st3" d="M18.981,9.416c0.402-1.472,4.362-4.656,6.977-3.363c-3.617-0.119-5.12,3.953-6.984,3.866
		C18.859,9.913,18.95,9.526,18.981,9.416z"/>
	<path class="st3" d="M13.019,9.416C12.617,7.944,8.657,4.76,6.042,6.054c3.617-0.119,5.12,3.953,6.984,3.866
		C13.141,9.913,13.05,9.526,13.019,9.416z"/>
	<path class="st3" d="M23.964,19.886c-1.184-1.082-2.555-2.018-4.225-2.701c-0.336-0.137-0.706-0.23-1.089-0.267
		c-1.688-0.161-3.404,0.009-5.006,0.436c-0.752,0.201-1.485,0.57-2.147,1.059c-1.32,0.975-2.377,1.918-3.232,2.832
		c-1.904,2.036-2.198,4.849-0.62,6.389c1.413,1.379,3.777,2.251,6.648,2.251c3.53,0,6.831-1.3,8.917-3.175
		C25.485,24.666,25.748,21.516,23.964,19.886z"/>
	<path class="st4" d="M9.746,29.007c1.267,0.557,2.812,0.879,4.547,0.879c3.115,0,6.048-1.014,8.129-2.54
		c-0.013-0.229-0.031-0.461-0.071-0.699c-0.361-2.176-1.792-3.69-3.471-3.592c-0.789,0.053-1.478,0.415-2.026,0.991
		c-0.863,0.894-1.986,1.274-3.07,1.009c-0.689-0.168-1.438-0.062-2.147,0.407C10.541,26.158,9.868,27.504,9.746,29.007z"/>
	<path class="st1" d="M13.644,17.354c-0.752,0.201-1.485,0.57-2.147,1.06c-0.014,0.01-0.026,0.02-0.039,0.03l0.08,1.926
		c0.01,0.2,0.17,0.36,0.37,0.37l1.04,0.07c0.19,0.01,0.37-0.12,0.41-0.31l0.751-3.249C13.954,17.288,13.797,17.314,13.644,17.354z"
		/>
	<path class="st1" d="M19.739,17.185c-0.336-0.138-0.706-0.23-1.089-0.267c-0.46-0.044-0.923-0.059-1.384-0.055l-0.092,2.937
		c-0.012,0.231,0.156,0.435,0.378,0.481l1.218,0.236c0.233,0.049,0.466-0.086,0.538-0.314l0.87-2.815
		C20.029,17.323,19.891,17.248,19.739,17.185z"/>
	<path class="st1" d="M20.635,26.132c-0.087-0.215-0.326-0.329-0.546-0.276l-1.203,0.303c-0.232,0.054-0.385,0.275-0.354,0.512
		l0.343,2.464c0.92-0.305,1.787-0.685,2.564-1.14L20.635,26.132z"/>
	<path class="st1" d="M14.293,29.886c0.382,0,0.759-0.022,1.134-0.051l0.038-2.023c0.009-0.231-0.161-0.434-0.383-0.476
		l-1.221-0.221c-0.234-0.046-0.465,0.092-0.534,0.32l-0.691,2.34C13.167,29.842,13.717,29.886,14.293,29.886z"/>
</g>
</svg>
