<?xml version="1.0" encoding="utf-8"?>
<!-- Generator: Adobe Illustrator 21.1.0, SVG Export Plug-In . SVG Version: 6.00 Build 0)  -->
<svg version="1.1" id="Layer_1" xmlns="http://www.w3.org/2000/svg" xmlns:xlink="http://www.w3.org/1999/xlink" x="0px" y="0px"
	 viewBox="0 0 32 32" style="enable-background:new 0 0 32 32;" xml:space="preserve">
<style type="text/css">
	.st0{fill:#FFD93B;}
	.st1{fill:#FFFFFF;}
	.st2{fill:#89664C;}
	.st3{fill:#3E4347;}
	.st4{fill:#E24B4B;}
	.st5{fill:#F29A2E;}
	.st6{fill:#5A5F63;}
	.st7{fill:#E18823;}
	.st8{fill:#65B1EF;}
	.st9{fill:#D03F3F;}
	.st10{opacity:0.2;}
	.st11{fill:#DEE4E9;}
	.st12{fill:#45CBEA;}
	.st13{fill:#F4C534;}
	.st14{fill:#BF3333;}
	.st15{fill:#D23F77;}
	.st16{fill:#E84D88;}
	.st17{fill:#7A5B44;}
	.st18{fill:#6B503B;}
	.st19{opacity:0.2;fill:#FFFFFF;}
	.st20{fill:#4E99D2;}
	.st21{fill:none;}
	.st22{opacity:0.15;fill:#FFFFFF;}
	.st23{fill:#8CC63E;}
	.st24{fill:#9A795F;}
	.st25{fill:#E9EFF4;}
</style>
<g>
	<circle class="st0" cx="16" cy="16" r="16"/>
	<path class="st13" d="M31.924,16c0,8.84-7.165,16-16,16c-5.03,0-9.52-2.32-12.455-5.955c2.745,2.22,6.24,3.545,10.045,3.545
		c8.835,0,16-7.16,16-16c0-3.805-1.325-7.3-3.545-10.045C29.599,6.48,31.924,10.97,31.924,16z"/>
	<path class="st1" d="M14.713,13.635c0,2.738-2.214,4.961-4.961,4.961c-2.737,0-4.961-2.224-4.961-4.961
		c0-2.747,2.224-4.97,4.961-4.97C12.499,8.665,14.713,10.889,14.713,13.635z"/>
	<path class="st1" d="M27.209,13.033c0,2.738-2.214,4.961-4.961,4.961c-2.737,0-4.961-2.223-4.961-4.961
		c0-2.747,2.223-4.97,4.961-4.97C24.995,8.063,27.209,10.287,27.209,13.033z"/>
	<path class="st8" d="M27.81,13.034c0,3.069-2.483,5.562-5.562,5.562c-3.069,0-5.562-2.493-5.562-5.562
		c0-3.08,2.493-5.573,5.562-5.573C25.328,7.461,27.81,9.954,27.81,13.034z"/>
	<path class="st3" d="M22.249,19.347c-3.48,0-6.312-2.832-6.312-6.313c0-3.486,2.832-6.323,6.312-6.323
		c3.48,0,6.312,2.837,6.312,6.323C28.56,16.515,25.729,19.347,22.249,19.347z M22.249,8.211c-2.653,0-4.813,2.164-4.813,4.823
		c0,2.653,2.159,4.813,4.813,4.813c2.653,0,4.812-2.159,4.812-4.813C27.06,10.375,24.902,8.211,22.249,8.211z"/>
	<path class="st3" d="M22.895,13.031c0,1.043-0.839,1.902-1.895,1.902c-1.043,0-1.895-0.859-1.895-1.902
		c0-1.049,0.853-1.909,1.895-1.909C22.056,11.123,22.895,11.982,22.895,13.031z"/>
	
		<ellipse transform="matrix(0.7071 -0.7071 0.7071 0.7071 -2.4028 18.9362)" class="st1" cx="21.658" cy="12.369" rx="0.432" ry="0.625"/>
	<path class="st3" d="M12.895,13.633c0,1.043-0.839,1.902-1.895,1.902c-1.043,0-1.895-0.859-1.895-1.902
		c0-1.049,0.853-1.909,1.895-1.909C12.056,11.724,12.895,12.584,12.895,13.633z"/>
	
		<ellipse transform="matrix(0.7071 -0.7071 0.7071 0.7071 -5.757 12.0428)" class="st1" cx="11.658" cy="12.971" rx="0.432" ry="0.625"/>
	<path class="st3" d="M24.115,18.125c-0.437,0.159-0.857,0.24-1.256,0.259l2.731,7.511c0.238,0.653,0.961,0.99,1.607,0.756
		c0.653-0.237,0.99-0.96,0.753-1.613l-2.729-7.505C24.908,17.767,24.543,17.969,24.115,18.125z"/>
	<path class="st3" d="M26.192,3.602c-0.03,0.41-0.38,0.71-0.81,0.69c-3.68-0.29-7.25,1.91-7.29,1.94
		c-0.309,0.207-0.806,0.128-1.03-0.24c-0.22-0.35-0.12-0.81,0.23-1.03c0.16-0.1,4-2.49,8.21-2.16
		C25.912,2.832,26.222,3.191,26.192,3.602z"/>
	<path class="st3" d="M14.142,9.861c-1.277,0.645-3.719,0.645-5.7-1.13c-2.18-1.93-4.08-1.88-4.17-1.87
		c-0.38,0.01-0.71-0.27-0.73-0.66c-0.02-0.38,0.27-0.71,0.65-0.73c0.11-0.01,2.53-0.13,5.18,2.22c2.06,1.83,4.09,0.94,4.18,0.9
		c0.35-0.16,0.76,0,0.92,0.34C14.632,9.281,14.492,9.702,14.142,9.861z"/>
	<path class="st3" d="M21.826,24.649c-3.268,1.415-11.579,4.685-11.517,1.162c0,0-0.06-5.193,3.5-3.76
		c3.116,1.261,4.861,2.031,7.894,2.046C22.016,24.106,22.108,24.522,21.826,24.649z"/>
	<path class="st1" d="M10.444,24.43c2.351-1.152,5.114,1.324,10.409-0.194c0.149-0.046,0.298-0.099,0.445-0.153
		c-2.782-0.089-4.518-0.832-7.489-2.032C11.482,21.114,10.705,23.005,10.444,24.43z"/>
	<path class="st1" d="M19.064,25.766c-1.709,0.343-3.496,0.333-5.208-0.064c-1.162-0.27-2.337-0.708-3.505-0.642
		c-0.045,0.442-0.043,0.75-0.043,0.75C10.26,28.556,15.292,27.18,19.064,25.766z"/>
</g>
</svg>
