<?xml version="1.0" encoding="utf-8"?>
<!-- Generator: Adobe Illustrator 21.1.0, SVG Export Plug-In . SVG Version: 6.00 Build 0)  -->
<svg version="1.1" id="Layer_1" xmlns="http://www.w3.org/2000/svg" xmlns:xlink="http://www.w3.org/1999/xlink" x="0px" y="0px"
	 viewBox="0 0 32 32" style="enable-background:new 0 0 32 32;" xml:space="preserve">
<style type="text/css">
	.st0{fill:#FFD93B;}
	.st1{fill:#FFFFFF;}
	.st2{fill:#89664C;}
	.st3{fill:#3E4347;}
	.st4{fill:#E24B4B;}
	.st5{fill:#F29A2E;}
	.st6{fill:#5A5F63;}
	.st7{fill:#E18823;}
	.st8{fill:#65B1EF;}
	.st9{fill:#D03F3F;}
	.st10{opacity:0.2;}
	.st11{fill:#DEE4E9;}
	.st12{fill:#45CBEA;}
	.st13{fill:#F4C534;}
	.st14{fill:#BF3333;}
	.st15{fill:#D23F77;}
	.st16{fill:#E84D88;}
	.st17{fill:#7A5B44;}
	.st18{fill:#6B503B;}
	.st19{opacity:0.2;fill:#FFFFFF;}
	.st20{fill:#4E99D2;}
	.st21{fill:none;}
	.st22{opacity:0.15;fill:#FFFFFF;}
	.st23{fill:#8CC63E;}
	.st24{fill:#9A795F;}
	.st25{fill:#E9EFF4;}
</style>
<g>
	<g>
		<g>
			<g>
				<g>
					<g>
						<g>
							<g>
								<g>
									<g>
										<g>
											<g>
												<g>
													<g>
														<g>
															<g>
																<g>
																	<g>
																		<g>
																			<g>
																				<g>
																					<g>
																						<g>
																							<g>
																								<g>
																									<g>
																										<g>
																											<circle class="st0" cx="16" cy="16" r="16"/>
																										</g>
																									</g>
																								</g>
																							</g>
																						</g>
																					</g>
																					<g>
																						<g>
																							<g>
																								<g>
																									<g>
																										<g>
																											<path class="st13" d="M32,16c0,8.84-7.165,16-16,16c-5.03,0-9.52-2.32-12.455-5.955
																												c2.745,2.22,6.24,3.545,10.045,3.545c8.835,0,16-7.16,16-16c0-3.805-1.325-7.3-3.545-10.045
																												C29.675,6.48,32,10.97,32,16z"/>
																										</g>
																									</g>
																								</g>
																							</g>
																						</g>
																					</g>
																				</g>
																			</g>
																		</g>
																	</g>
																</g>
															</g>
														</g>
													</g>
												</g>
											</g>
										</g>
									</g>
								</g>
							</g>
						</g>
					</g>
				</g>
			</g>
		</g>
	</g>
	<g>
		<g>
			<path class="st1" d="M16.633,12.915c0,3.746-3.04,6.786-6.777,6.786c-3.746,0-6.786-3.04-6.786-6.786s3.04-6.777,6.786-6.777
				C13.593,6.137,16.633,9.168,16.633,12.915z"/>
		</g>
		<g>
			<g>
				<ellipse class="st3" cx="9.85" cy="12.917" rx="3.706" ry="3.702"/>
			</g>
			<g>
				
					<ellipse transform="matrix(0.7071 -0.7071 0.7071 0.7071 -5.0326 11.2511)" class="st6" cx="11.065" cy="11.7" rx="0.983" ry="1.472"/>
			</g>
		</g>
	</g>
	<g>
		<g>
			<circle class="st1" cx="23.22" cy="12.917" r="5.712"/>
		</g>
		<g>
			<g>
				<ellipse class="st3" cx="23.217" cy="12.917" rx="3.122" ry="3.118"/>
			</g>
			<g>
				
					<ellipse transform="matrix(0.7071 -0.7071 0.7071 0.7071 -1.309 20.6248)" class="st6" cx="24.241" cy="11.892" rx="0.828" ry="1.24"/>
			</g>
		</g>
	</g>
	<path class="st3" d="M23.044,26.432c0.057,0.4-0.2,0.781-0.6,0.838c-4.296,0.676-8.591,0.676-12.887,0
		c-0.4-0.057-0.657-0.438-0.6-0.838c0.495-3.448,3.458-6.106,7.039-6.106C19.586,20.327,22.548,22.984,23.044,26.432z"/>
	<path class="st1" d="M9.981,27.329c4.013,0.59,8.026,0.59,12.039,0c-1.014-2.233-3.325-2.805-6.02-2.805
		S10.995,25.096,9.981,27.329z"/>
</g>
</svg>
