<?xml version="1.0" encoding="utf-8"?>
<!-- Generator: Adobe Illustrator 21.1.0, SVG Export Plug-In . SVG Version: 6.00 Build 0)  -->
<svg version="1.1" id="Layer_1" xmlns="http://www.w3.org/2000/svg" xmlns:xlink="http://www.w3.org/1999/xlink" x="0px" y="0px"
	 viewBox="0 0 32 32" style="enable-background:new 0 0 32 32;" xml:space="preserve">
<style type="text/css">
	.st0{fill:#FFD93B;}
	.st1{fill:#FFFFFF;}
	.st2{fill:#89664C;}
	.st3{fill:#3E4347;}
	.st4{fill:#E24B4B;}
	.st5{fill:#F29A2E;}
	.st6{fill:#5A5F63;}
	.st7{fill:#E18823;}
	.st8{fill:#65B1EF;}
	.st9{fill:#D03F3F;}
	.st10{opacity:0.2;}
	.st11{fill:#DEE4E9;}
	.st12{fill:#45CBEA;}
	.st13{fill:#F4C534;}
	.st14{fill:#BF3333;}
	.st15{fill:#D23F77;}
	.st16{fill:#E84D88;}
	.st17{fill:#7A5B44;}
	.st18{fill:#6B503B;}
	.st19{opacity:0.2;fill:#FFFFFF;}
	.st20{fill:#4E99D2;}
	.st21{fill:none;}
	.st22{opacity:0.15;fill:#FFFFFF;}
	.st23{fill:#8CC63E;}
	.st24{fill:#9A795F;}
	.st25{fill:#E9EFF4;}
</style>
<g>
	<g>
		<g>
			<g>
				<g>
					<g>
						<g>
							<g>
								<g>
									<g>
										<g>
											<g>
												<g>
													<g>
														<g>
															<g>
																<g>
																	<g>
																		<g>
																			<g>
																				<g>
																					<g>
																						<g>
																							<g>
																								<g>
																									<g>
																										<g>
																											<circle class="st0" cx="16" cy="16" r="16"/>
																										</g>
																									</g>
																								</g>
																							</g>
																						</g>
																					</g>
																					<g>
																						<g>
																							<g>
																								<g>
																									<g>
																										<g>
																											<path class="st13" d="M32,16c0,8.84-7.165,16-16,16c-5.03,0-9.52-2.32-12.455-5.955
																												c2.745,2.22,6.24,3.545,10.045,3.545c8.835,0,16-7.16,16-16c0-3.805-1.325-7.3-3.545-10.045
																												C29.675,6.48,32,10.97,32,16z"/>
																										</g>
																									</g>
																								</g>
																							</g>
																						</g>
																					</g>
																				</g>
																			</g>
																		</g>
																	</g>
																</g>
															</g>
														</g>
													</g>
												</g>
											</g>
										</g>
									</g>
								</g>
							</g>
						</g>
					</g>
				</g>
			</g>
		</g>
	</g>
	<g>
		<path class="st4" d="M17.684,26.716c-0.956,0.767-2.236,0.877-2.37,0.74c-0.9-0.08-1.67-0.61-2.21-1.33
			c-0.01,0-0.01-0.01-0.01-0.01c-1.113-1.501-2.369-2.709-1.05-4.03c1.888-1.805,3.001,0.266,4.62,0.421
			c0.87,0.079,2.09,0.62,3.13,1.09C21.14,24.298,19.427,25.326,17.684,26.716z"/>
	</g>
	<g>
		<path class="st14" d="M19.714,24.649c-0.327,0.153-1.283,0.481-2.059,0.623c-0.521,0.111-1.038,0.231-1.502,0.387
			c-0.029,0.013-0.058,0.018-0.087,0.03c-0.212,0.078-0.424,0.071-0.611-0.009c-0.494-0.218-1.028-0.448-1.561-0.7
			c-0.693-0.287-1.561-0.937-1.766-1.15c-0.363-0.356-0.218-0.494-0.219-0.493c1.152,0.793,2.054,0.879,2.571,0.915
			c0.392,0.03,0.883,0.116,1.317,0.222c0.051,0.01,0.019,0.007,0.071,0.016c0.393,0.083,0.787,0.178,1.161,0.267
			c0.776,0.26,2.562-0.093,3.059-0.362C20.089,24.391,20.169,24.448,19.714,24.649z"/>
	</g>
	<g>
		<path class="st4" d="M25.961,25.32c0,1.449-2.409,2.955-2.409,2.955s-2.409-1.506-2.409-2.955c0-0.718,0.581-1.303,1.298-1.303
			c0.471,0,0.887,0.251,1.111,0.631c0.219-0.379,0.635-0.631,1.106-0.631C25.38,24.017,25.961,24.602,25.961,25.32z"/>
	</g>
	<g>
		<g>
			<path class="st13" d="M15.31,13.748c-0.245,1.838-2.682,3.247-5.384,3.718c-2.69,0.452-5.081-0.951-5.437-3.718
				C4.131,11.001,6.567,8.569,9.874,9.04C13.169,9.503,15.558,11.927,15.31,13.748z"/>
		</g>
		<g>
			<path class="st1" d="M14.75,13.675c-0.057,1.559-2.1,2.755-4.46,3.155c-2.352,0.384-4.6-0.807-5.158-3.155
				C4.573,11.344,6.525,9.28,9.506,9.68C12.475,10.072,14.811,12.13,14.75,13.675z"/>
		</g>
		<path class="st3" d="M11.258,14.056c0,1.116-0.907,2.023-2.032,2.023c-1.116,0-2.023-0.907-2.023-2.023
			c0-1.125,0.908-2.032,2.023-2.032C10.351,12.024,11.258,12.931,11.258,14.056z"/>
		
			<ellipse transform="matrix(0.7071 -0.7071 0.7071 0.7071 -6.4474 10.9685)" class="st1" cx="10.015" cy="13.266" rx="0.399" ry="0.62"/>
		<path class="st3" d="M13.125,10.279c0.053,0.266-0.819-0.108-1.08-0.18c-3.336-0.835-3.642,1.134-5.06,1.75
			c-0.99,0.404-2.378,0.117-2.79,1.18c-0.18-0.77,0.12-1.63,0.74-2.12c-0.45,0.13-0.94,0.12-1.38-0.03
			c0.53-0.02,1.05-0.22,1.45-0.57c-0.41,0.03-0.83-0.07-1.18-0.3c1.48-0.28,2.84-1.04,4.33-1.26c1.448-0.2,2.957,0.146,4.13,0.89
			C12.359,9.685,13.11,10.193,13.125,10.279z"/>
		<g>
			<path class="st13" d="M17.855,13.565c0.718,1.709,3.44,2.429,6.172,2.175c2.715-0.27,4.653-2.252,4.27-5.015
				c-0.375-2.745-3.364-4.451-6.431-3.129C18.807,8.906,17.138,11.873,17.855,13.565z"/>
		</g>
		<g>
			<path class="st1" d="M18.376,13.347c0.464,1.49,2.749,2.107,5.132,1.874c2.37-0.247,4.227-1.986,4.149-4.399
				c-0.073-2.396-2.498-3.875-5.269-2.707C19.626,9.274,17.912,11.872,18.376,13.347z"/>
		</g>
		<path class="st3" d="M20.016,10.7c-1.077,0.293-1.714,1.407-1.419,2.492c0.293,1.077,1.406,1.714,2.483,1.421
			c1.085-0.295,1.723-1.409,1.43-2.486C22.215,11.042,21.101,10.405,20.016,10.7z"/>
		
			<ellipse transform="matrix(0.4968 -0.8679 0.8679 0.4968 0.4718 24.1984)" class="st1" cx="21.104" cy="11.692" rx="0.399" ry="0.62"/>
		<path class="st3" d="M19.053,9.644c0.018,0.27,0.762-0.319,0.995-0.457c3-1.681,3.812,0.138,5.342,0.36
			c1.062,0.129,2.325-0.511,3.002,0.406c-0.028-0.79-0.544-1.541-1.27-1.851c0.468,0.007,0.938-0.131,1.324-0.391
			c-0.517,0.12-1.071,0.064-1.549-0.169c0.403-0.079,0.782-0.286,1.06-0.6c-1.502,0.119-3.013-0.258-4.509-0.079
			c-1.45,0.187-2.815,0.917-3.752,1.943C19.636,8.87,19.045,9.557,19.053,9.644z"/>
	</g>
</g>
</svg>
