<?xml version="1.0" encoding="utf-8"?>
<!-- Generator: Adobe Illustrator 21.1.0, SVG Export Plug-In . SVG Version: 6.00 Build 0)  -->
<svg version="1.1" id="Layer_1" xmlns="http://www.w3.org/2000/svg" xmlns:xlink="http://www.w3.org/1999/xlink" x="0px" y="0px"
	 viewBox="0 0 32 32" style="enable-background:new 0 0 32 32;" xml:space="preserve">
<style type="text/css">
	.st0{fill:#FFD93B;}
	.st1{fill:#3E4347;}
	.st2{fill:#F4C534;}
	.st3{fill:#38C0DC;}
	.st4{fill:#45CBEA;}
	.st5{fill:#FFFFFF;}
	.st6{fill:#E24B4B;}
	.st7{fill:#5A5F63;}
	.st8{opacity:0.3;}
	.st9{opacity:0.2;}
	.st10{opacity:0.1;}
	.st11{fill:#E9B02C;}
	.st12{fill:#65B1EF;}
	.st13{fill:#E9EFF4;}
	.st14{fill:#8CC63E;}
	.st15{fill:#7FB239;}
	.st16{fill:#D03F3F;}
	.st17{fill:#D23F77;}
	.st18{fill:#E84D88;}
	.st19{fill:#59A5E0;}
	.st20{fill:#DEE4E9;}
	.st21{fill:#D3D9DD;}
	.st22{opacity:0.25;fill:#FFFFFF;}
	.st23{fill:#9A795F;}
	.st24{fill:#F29A2E;}
	.st25{fill:#FC97B2;}
	.st26{fill:#89664C;}
	.st27{fill:#7A5B44;}
	.st28{opacity:0.2;fill:#FFFFFF;}
	.st29{fill:#4E99D2;}
	.st30{fill:#BBC7D1;}
	.st31{fill:#DE9C25;}
</style>
<g>
	<circle class="st0" cx="16" cy="13.664" r="13.664"/>
	<path class="st2" d="M29.664,13.664c0,7.549-6.119,13.664-13.664,13.664c-4.295,0-8.13-1.981-10.636-5.085
		c2.344,1.896,5.329,3.027,8.578,3.027c7.545,0,13.664-6.114,13.664-13.664c0-3.249-1.132-6.234-3.027-8.578
		C27.678,5.534,29.664,9.368,29.664,13.664z"/>
	<path class="st1" d="M22.235,21.615c0.094,0.444-0.307,0.854-0.768,0.786c-3.612-0.478-7.327-0.478-10.948,0
		c-0.453,0.06-0.846-0.342-0.752-0.786c0.546-2.69,2.912-4.919,6.226-4.919C19.314,16.696,21.671,18.925,22.235,21.615z"/>
	<path class="st1" d="M10.625,15.516c-1.869,0-3.469-1.337-3.805-3.179c-0.073-0.406,0.196-0.795,0.602-0.869
		c0.409-0.075,0.795,0.196,0.869,0.601c0.205,1.132,1.187,1.953,2.333,1.953c1.022,0,1.922-0.663,2.241-1.649
		c0.128-0.392,0.547-0.608,0.942-0.481c0.393,0.127,0.608,0.548,0.481,0.941C13.769,14.438,12.297,15.516,10.625,15.516z"/>
	<path class="st1" d="M12.329,10.379L7.103,8.937C6.762,8.842,6.562,8.49,6.656,8.149c0.094-0.34,0.445-0.541,0.787-0.447
		l4.963,1.37l1.507-0.895c0.304-0.181,0.697-0.08,0.877,0.224c0.181,0.304,0.081,0.697-0.224,0.878l-1.741,1.034
		C12.67,10.404,12.49,10.423,12.329,10.379z"/>
	<path class="st1" d="M21.375,15.516c-1.673,0-3.144-1.078-3.663-2.684c-0.127-0.392,0.089-0.814,0.482-0.94
		c0.394-0.127,0.814,0.089,0.941,0.482c0.318,0.986,1.218,1.648,2.24,1.648c1.147,0,2.128-0.821,2.333-1.952
		c0.074-0.406,0.46-0.676,0.869-0.602c0.406,0.073,0.676,0.462,0.602,0.869C24.845,14.179,23.244,15.516,21.375,15.516z"/>
	<path class="st1" d="M19.175,10.312l-1.742-1.034c-0.304-0.181-0.404-0.574-0.224-0.878c0.18-0.304,0.573-0.404,0.877-0.224
		l1.508,0.895l4.963-1.37c0.343-0.094,0.693,0.107,0.787,0.447c0.094,0.341-0.106,0.694-0.447,0.788l-5.226,1.442
		C19.511,10.423,19.33,10.404,19.175,10.312z"/>
	<path class="st5" d="M12.219,17.86c1.15,0.248,2.431,0.391,3.787,0.391c1.351,0,2.625-0.141,3.769-0.387
		c-1.022-0.725-2.307-1.167-3.783-1.167C14.522,16.696,13.24,17.137,12.219,17.86z"/>
	<path class="st14" d="M20.31,24.433c-1.069,2.957,0.16,4.702,0.043,5.559c-0.06,0.384-0.393,0.752-0.768,0.692
		c-1.378-0.23,0.263-4.422-0.683-4.936c-0.854-0.446-1.352,1.351-1.179,2.485c0.034,0.222,0.094,0.461,0.009,0.683
		c-0.077,0.213-0.376,0.359-0.546,0.213c-0.12-0.102-0.145-0.299-0.29-0.35c-0.145-0.043-0.273,0.102-0.324,0.239
		c-0.043,0.145-0.034,0.307-0.111,0.436c-0.169,0.277-0.603,0.257-0.709-0.085c0.045,1.542,0.216,2.356-0.23,2.579
		c-0.854,0.427-1.524-1.897-1.272-3.365c0.228-1.138-0.773-0.996-0.615-0.256c0.051,0.239,0.18,0.461,0.145,0.709
		c-0.043,0.376-0.495,0.598-0.854,0.504c-1.477-0.412-0.217-2.724-1.744-7.257c-0.009-0.028-0.007-0.061,0.006-0.087
		c0.978-1.902,2.796-1.862,4.761-1.606C20.512,21.227,21.632,20.843,20.31,24.433z"/>
	<path class="st15" d="M17,25.663c-0.009,0.12-0.077,0.248-0.196,0.273c-0.12,0.026-0.231-0.06-0.282-0.162
		c-0.051-0.111-0.051-0.231-0.051-0.35c0.017-0.504,0.12-0.999,0.29-1.477c-0.043,0.461,0.017,0.922,0.162,1.358
		C16.957,25.424,17.009,25.544,17,25.663z"/>
	<path class="st15" d="M13.299,25.919c0.004,0.146-0.088,0.301-0.235,0.313c-0.656,0.048-0.173-2.407,0.016-3.35
		C13.064,25.646,13.328,25.064,13.299,25.919z"/>
	<path class="st14" d="M20.249,21.354c0,0,1.25,1.618,0.684,2.882c-0.423,0.946-0.039,1.338,0.494,1.468s0.949-0.763,0.72-1.819
		C21.916,22.83,20.249,21.354,20.249,21.354z"/>
	<path class="st14" d="M21.159,27.586c0.009-0.026,0.205-0.803,0.273-1.05c0.094,0.359,0.188,0.709,0.282,1.067
		C22.004,28.654,20.877,28.662,21.159,27.586z"/>
	<path class="st15" d="M15.085,28.879c0.009,0.077,0.124,0.95,0.192,1.219C15.521,31.194,14.239,30.779,15.085,28.879z"/>
</g>
</svg>
