<?xml version="1.0" encoding="utf-8"?>
<!-- Generator: Adobe Illustrator 21.1.0, SVG Export Plug-In . SVG Version: 6.00 Build 0)  -->
<svg version="1.1" id="Layer_1" xmlns="http://www.w3.org/2000/svg" xmlns:xlink="http://www.w3.org/1999/xlink" x="0px" y="0px"
	 viewBox="0 0 32 32" style="enable-background:new 0 0 32 32;" xml:space="preserve">
<style type="text/css">
	.st0{fill:#FFD93B;}
	.st1{fill:#FFFFFF;}
	.st2{fill:#89664C;}
	.st3{fill:#3E4347;}
	.st4{fill:#E24B4B;}
	.st5{fill:#F29A2E;}
	.st6{fill:#5A5F63;}
	.st7{fill:#E18823;}
	.st8{fill:#65B1EF;}
	.st9{fill:#D03F3F;}
	.st10{opacity:0.2;}
	.st11{fill:#DEE4E9;}
	.st12{fill:#45CBEA;}
	.st13{fill:#F4C534;}
	.st14{fill:#BF3333;}
	.st15{fill:#D23F77;}
	.st16{fill:#E84D88;}
	.st17{fill:#7A5B44;}
	.st18{fill:#6B503B;}
	.st19{opacity:0.2;fill:#FFFFFF;}
	.st20{fill:#4E99D2;}
	.st21{fill:none;}
	.st22{opacity:0.15;fill:#FFFFFF;}
	.st23{fill:#8CC63E;}
	.st24{fill:#9A795F;}
	.st25{fill:#E9EFF4;}
</style>
<g>
	<g>
		<g>
			<g>
				<g>
					<g>
						<g>
							<g>
								<g>
									<g>
										<g>
											<g>
												<g>
													<g>
														<g>
															<g>
																<g>
																	<g>
																		<g>
																			<g>
																				<g>
																					<g>
																						<g>
																							<g>
																								<g>
																									<g>
																										<circle class="st0" cx="16" cy="16" r="16"/>
																									</g>
																								</g>
																							</g>
																						</g>
																					</g>
																				</g>
																				<g>
																					<g>
																						<g>
																							<g>
																								<g>
																									<g>
																										<path class="st13" d="M32,16c0,8.84-7.165,16-16,16c-5.03,0-9.52-2.32-12.455-5.955
																											c2.745,2.22,6.24,3.545,10.045,3.545c8.835,0,16-7.16,16-16c0-3.805-1.325-7.3-3.545-10.045
																											C29.675,6.48,32,10.97,32,16z"/>
																									</g>
																								</g>
																							</g>
																						</g>
																					</g>
																				</g>
																			</g>
																		</g>
																	</g>
																</g>
															</g>
														</g>
													</g>
												</g>
											</g>
										</g>
									</g>
								</g>
							</g>
						</g>
					</g>
				</g>
			</g>
		</g>
	</g>
	<g>
		<g>
			<path class="st13" d="M24.234,19.45c-2.631,0.827-5.432-0.638-6.25-3.271c-0.827-2.621-1.602-7.649,1.03-8.467
				c2.621-0.827,7.662,2.867,8.489,5.488C28.322,15.833,26.867,18.632,24.234,19.45z"/>
		</g>
		<g>
			<path class="st1" d="M23.58,18.592c-2.213,0.7-4.431-0.56-4.95-2.811c-0.527-2.242-0.872-6.54,1.342-7.232
				c2.205-0.7,6.136,2.47,6.663,4.712C27.154,15.512,25.793,17.899,23.58,18.592z"/>
		</g>
	</g>
	<g>
		<ellipse class="st3" cx="21.552" cy="13.517" rx="2.576" ry="2.571"/>
	</g>
	<g>
		
			<ellipse transform="matrix(0.7071 -0.7071 0.7071 0.7071 -2.3327 19.5743)" class="st1" cx="22.463" cy="12.603" rx="0.52" ry="0.834"/>
	</g>
	<g>
		<g>
			<path class="st13" d="M7.766,19.45c2.631,0.827,5.431-0.638,6.25-3.271c0.827-2.621,1.602-7.649-1.03-8.467
				c-2.621-0.827-7.662,2.867-8.489,5.488C3.678,15.833,5.133,18.632,7.766,19.45z"/>
		</g>
		<g>
			<path class="st1" d="M8.42,18.592c2.213,0.7,4.431-0.56,4.95-2.811c0.527-2.242,0.872-6.54-1.342-7.232
				c-2.205-0.7-6.136,2.47-6.663,4.712C4.846,15.512,6.207,17.899,8.42,18.592z"/>
		</g>
	</g>
	<g>
		<ellipse class="st3" cx="10.448" cy="13.517" rx="2.576" ry="2.571"/>
	</g>
	<g>
		
			<ellipse transform="matrix(0.7071 -0.7071 0.7071 0.7071 -5.5847 11.7236)" class="st1" cx="11.359" cy="12.603" rx="0.52" ry="0.834"/>
	</g>
	<path class="st3" d="M22.392,25.592c0,2.672-2.862,3.658-6.392,3.658c-3.53,0-6.392-0.986-6.392-3.658
		c0-2.672,2.862-4.839,6.392-4.839C19.53,20.753,22.392,22.92,22.392,25.592z"/>
	<path class="st4" d="M20.485,27.339c-1.164,0.801-3.128,0.954-4.483,0.954c-1.364,0-3.338-0.153-4.492-0.963
		c0.4-1.469,2.26-2.585,4.492-2.585C18.234,24.744,20.094,25.861,20.485,27.339z"/>
</g>
</svg>
