<?xml version="1.0" encoding="utf-8"?>
<!-- Generator: Adobe Illustrator 21.1.0, SVG Export Plug-In . SVG Version: 6.00 Build 0)  -->
<svg version="1.1" id="Layer_1" xmlns="http://www.w3.org/2000/svg" xmlns:xlink="http://www.w3.org/1999/xlink" x="0px" y="0px"
	 viewBox="0 0 32 32" style="enable-background:new 0 0 32 32;" xml:space="preserve">
<style type="text/css">
	.st0{fill:#FFD93B;}
	.st1{fill:#FFFFFF;}
	.st2{fill:#89664C;}
	.st3{fill:#3E4347;}
	.st4{fill:#E24B4B;}
	.st5{fill:#F29A2E;}
	.st6{fill:#5A5F63;}
	.st7{fill:#E18823;}
	.st8{fill:#65B1EF;}
	.st9{fill:#D03F3F;}
	.st10{opacity:0.2;}
	.st11{fill:#DEE4E9;}
	.st12{fill:#45CBEA;}
	.st13{fill:#F4C534;}
	.st14{fill:#BF3333;}
	.st15{fill:#D23F77;}
	.st16{fill:#E84D88;}
	.st17{fill:#7A5B44;}
	.st18{fill:#6B503B;}
	.st19{opacity:0.2;fill:#FFFFFF;}
	.st20{fill:#4E99D2;}
	.st21{fill:none;}
	.st22{opacity:0.15;fill:#FFFFFF;}
	.st23{fill:#8CC63E;}
	.st24{fill:#9A795F;}
	.st25{fill:#E9EFF4;}
</style>
<g>
	<g>
		<g>
			<g>
				<g>
					<g>
						<g>
							<g>
								<g>
									<g>
										<g>
											<g>
												<g>
													<g>
														<g>
															<g>
																<g>
																	<g>
																		<g>
																			<g>
																				<g>
																					<g>
																						<g>
																							<g>
																								<g>
																									<g>
																										<g>
																											<circle class="st0" cx="16" cy="16" r="16"/>
																										</g>
																									</g>
																								</g>
																							</g>
																						</g>
																					</g>
																					<g>
																						<g>
																							<g>
																								<g>
																									<g>
																										<g>
																											<path class="st13" d="M32,16c0,8.84-7.165,16-16,16c-5.03,0-9.52-2.32-12.455-5.955
																												c2.745,2.22,6.24,3.545,10.045,3.545c8.835,0,16-7.16,16-16c0-3.805-1.325-7.3-3.545-10.045
																												C29.675,6.48,32,10.97,32,16z"/>
																										</g>
																									</g>
																								</g>
																							</g>
																						</g>
																					</g>
																				</g>
																			</g>
																		</g>
																	</g>
																</g>
															</g>
														</g>
													</g>
												</g>
											</g>
										</g>
									</g>
								</g>
							</g>
						</g>
					</g>
				</g>
			</g>
		</g>
	</g>
	<path class="st3" d="M16.002,28.061c-6.821,0-11.537-4.42-10.246-8.744c0.268-0.899,1.359-1.243,2.095-0.66
		c4.085,3.234,12.178,3.253,16.302,0c0.737-0.583,1.827-0.23,2.095,0.67C27.53,23.689,22.766,28.061,16.002,28.061z"/>
	<path class="st4" d="M16.002,28.061c2.508,0,4.738-0.603,6.49-1.582c-0.49-0.968-1.403-1.797-2.596-2.368
		c-0.99-0.474-2.113-0.463-3.177-0.199c-0.267,0.066-0.556,0.102-0.869,0.102c-0.45,0-0.849-0.076-1.203-0.208
		c-0.656-0.246-1.392-0.175-2.043,0.083c-1.435,0.568-2.535,1.49-3.091,2.591C11.26,27.456,13.486,28.061,16.002,28.061z"/>
	<g>
		<g>
			<path class="st1" d="M23.657,11.026c0,4.231-3.43,7.65-7.65,7.65c-4.24,0-7.67-3.42-7.67-7.65c0-4.229,3.43-7.66,7.67-7.66
				C20.227,3.366,23.657,6.796,23.657,11.026z"/>
		</g>
		<g>
			<g>
				<path class="st3" d="M20.377,10.966c0,2.46-1.95,4.47-4.36,4.5c-2.44,0.04-4.4-1.92-4.4-4.38c0-2.46,1.95-4.47,4.38-4.5
					C18.417,6.546,20.377,8.506,20.377,10.966z"/>
			</g>
			<g>
				<path class="st1" d="M18.637,9.966c-0.29,0.29-0.89,0.17-1.32-0.26c-0.44-0.44-0.55-1.03-0.26-1.32
					c0.29-0.29,0.88-0.18,1.32,0.26C18.807,9.076,18.927,9.676,18.637,9.966z"/>
			</g>
		</g>
	</g>
	<g>
		<path class="st1" d="M16.721,22.784l0.249-1.727c-2.775,0.157-5.626-0.368-7.813-1.559l-0.221,1.536
			c-0.062,0.432,0.159,0.874,0.53,1.035c2.156,0.939,4.318,1.438,6.485,1.457C16.337,23.53,16.659,23.21,16.721,22.784z"/>
		<path class="st1" d="M18.534,22.789c0.014,0.397,0.306,0.762,0.701,0.793c1.976,0.152,1.493,0.059,3.209-0.219
			c0.387-0.063,0.644-0.445,0.631-0.836l-0.106-3.097c-1.31,0.737-2.861,1.229-4.5,1.473L18.534,22.789z"/>
	</g>
</g>
</svg>
