<?xml version="1.0" encoding="utf-8"?>
<!-- Generator: Adobe Illustrator 21.1.0, SVG Export Plug-In . SVG Version: 6.00 Build 0)  -->
<svg version="1.1" id="Layer_1" xmlns="http://www.w3.org/2000/svg" xmlns:xlink="http://www.w3.org/1999/xlink" x="0px" y="0px"
	 viewBox="0 0 32 32" style="enable-background:new 0 0 32 32;" xml:space="preserve">
<style type="text/css">
	.st0{fill:#FFD93B;}
	.st1{fill:#FFFFFF;}
	.st2{fill:#89664C;}
	.st3{fill:#3E4347;}
	.st4{fill:#E24B4B;}
	.st5{fill:#F29A2E;}
	.st6{fill:#5A5F63;}
	.st7{fill:#E18823;}
	.st8{fill:#65B1EF;}
	.st9{fill:#D03F3F;}
	.st10{opacity:0.2;}
	.st11{fill:#DEE4E9;}
	.st12{fill:#45CBEA;}
	.st13{fill:#F4C534;}
	.st14{fill:#BF3333;}
	.st15{fill:#D23F77;}
	.st16{fill:#E84D88;}
	.st17{fill:#7A5B44;}
	.st18{fill:#6B503B;}
	.st19{opacity:0.2;fill:#FFFFFF;}
	.st20{fill:#4E99D2;}
	.st21{fill:none;}
	.st22{opacity:0.15;fill:#FFFFFF;}
	.st23{fill:#8CC63E;}
	.st24{fill:#9A795F;}
	.st25{fill:#E9EFF4;}
</style>
<g>
	<g>
		<g>
			<g>
				<g>
					<g>
						<g>
							<g>
								<g>
									<g>
										<g>
											<g>
												<g>
													<g>
														<g>
															<g>
																<g>
																	<g>
																		<g>
																			<g>
																				<g>
																					<g>
																						<g>
																							<g>
																								<g>
																									<g>
																										<g>
																											<g>
																												<circle class="st0" cx="16" cy="16" r="16"/>
																											</g>
																										</g>
																									</g>
																								</g>
																							</g>
																						</g>
																						<g>
																							<g>
																								<g>
																									<g>
																										<g>
																											<g>
																												<path class="st13" d="M32,16c0,8.84-7.165,16-16,16c-5.03,0-9.52-2.32-12.455-5.955
																													c2.745,2.22,6.24,3.545,10.045,3.545c8.835,0,16-7.16,16-16c0-3.805-1.325-7.3-3.545-10.045
																													C29.675,6.48,32,10.97,32,16z"/>
																											</g>
																										</g>
																									</g>
																								</g>
																							</g>
																						</g>
																					</g>
																				</g>
																			</g>
																		</g>
																	</g>
																</g>
															</g>
														</g>
													</g>
												</g>
											</g>
										</g>
									</g>
								</g>
							</g>
						</g>
					</g>
				</g>
			</g>
		</g>
	</g>
	<g>
		<g>
			<g>
				<path class="st3" d="M5.173,12.615l-0.585,1.212l1.253-0.501c0.157-0.063,3.947-1.504,8.083,1.88l1.326,1.076
					C13.675,11.052,7.551,7.692,5.173,12.615z"/>
			</g>
		</g>
		<g>
			<path class="st13" d="M27.412,13.806c0,2.92-2.379,5.299-5.299,5.299c-2.931,0-5.299-2.379-5.299-5.299
				c0-2.92,2.369-5.299,5.299-5.299C25.033,8.507,27.412,10.886,27.412,13.806z"/>
			<path class="st1" d="M26.447,13.806c-0.102,2.468-2.132,4.479-4.52,4.479c-2.397,0-4.251-2.011-4.149-4.479
				c0.102-2.468,2.123-4.479,4.52-4.479C24.687,9.327,26.549,11.338,26.447,13.806z"/>
		</g>
		<g>
			<path class="st3" d="M23.153,14.172c0,1.292-1.05,2.342-2.343,2.342c-1.292,0-2.333-1.05-2.333-2.342
				c0-1.283,1.041-2.333,2.334-2.333C22.103,11.839,23.153,12.889,23.153,14.172z"/>
			<g>
				<path class="st1" d="M22.112,13.795c-0.18,0.171-0.521,0.117-0.772-0.135c-0.26-0.26-0.314-0.601-0.144-0.781
					c0.17-0.171,0.521-0.108,0.772,0.143C22.22,13.275,22.282,13.616,22.112,13.795z"/>
			</g>
		</g>
	</g>
	<g>
		<path class="st3" d="M26.233,21.376c-1.38,4.33-5.44,7.47-10.23,7.47c-4.8,0-8.85-3.14-10.24-7.47c-0.18-0.58,0.34-1.13,0.93-1.01
			c6.21,1.25,12.41,1.25,18.61,0C25.903,20.246,26.423,20.796,26.233,21.376z"/>
		<path class="st1" d="M23.868,20.619c-5.243,0.894-10.486,0.894-15.736,0c0.991,2.674,4.135,3.4,7.868,3.4
			C19.733,24.02,22.877,23.294,23.868,20.619z"/>
		<path class="st4" d="M16.003,28.846c2.052,0,3.969-0.58,5.599-1.58c-0.709-1.537-3.083-2.669-5.909-2.669
			c-2.64,0-4.884,0.988-5.747,2.371C11.67,28.149,13.752,28.846,16.003,28.846z"/>
	</g>
</g>
</svg>
