<?xml version="1.0" encoding="utf-8"?>
<!-- Generator: Adobe Illustrator 21.1.0, SVG Export Plug-In . SVG Version: 6.00 Build 0)  -->
<svg version="1.1" id="Layer_1" xmlns="http://www.w3.org/2000/svg" xmlns:xlink="http://www.w3.org/1999/xlink" x="0px" y="0px"
	 viewBox="0 0 32 32" style="enable-background:new 0 0 32 32;" xml:space="preserve">
<style type="text/css">
	.st0{fill:#FFD93B;}
	.st1{fill:#FFFFFF;}
	.st2{fill:#89664C;}
	.st3{fill:#3E4347;}
	.st4{fill:#E24B4B;}
	.st5{fill:#F29A2E;}
	.st6{fill:#5A5F63;}
	.st7{fill:#E18823;}
	.st8{fill:#65B1EF;}
	.st9{fill:#D03F3F;}
	.st10{opacity:0.2;}
	.st11{fill:#DEE4E9;}
	.st12{fill:#45CBEA;}
	.st13{fill:#F4C534;}
	.st14{fill:#BF3333;}
	.st15{fill:#D23F77;}
	.st16{fill:#E84D88;}
	.st17{fill:#7A5B44;}
	.st18{fill:#6B503B;}
	.st19{opacity:0.2;fill:#FFFFFF;}
	.st20{fill:#4E99D2;}
	.st21{fill:none;}
	.st22{opacity:0.15;fill:#FFFFFF;}
	.st23{fill:#8CC63E;}
	.st24{fill:#9A795F;}
	.st25{fill:#E9EFF4;}
</style>
<g>
	<g>
		<g>
			<g>
				<g>
					<g>
						<g>
							<g>
								<g>
									<g>
										<g>
											<g>
												<g>
													<g>
														<g>
															<g>
																<g>
																	<g>
																		<g>
																			<g>
																				<g>
																					<g>
																						<g>
																							<g>
																								<g>
																									<g>
																										<circle class="st0" cx="16" cy="16" r="16"/>
																									</g>
																								</g>
																							</g>
																						</g>
																					</g>
																				</g>
																				<g>
																					<g>
																						<g>
																							<g>
																								<g>
																									<g>
																										<path class="st13" d="M32,16c0,8.84-7.165,16-16,16c-5.03,0-9.52-2.32-12.455-5.955
																											c2.745,2.22,6.24,3.545,10.045,3.545c8.835,0,16-7.16,16-16c0-3.805-1.325-7.3-3.545-10.045
																											C29.675,6.48,32,10.97,32,16z"/>
																									</g>
																								</g>
																							</g>
																						</g>
																					</g>
																				</g>
																			</g>
																		</g>
																	</g>
																</g>
															</g>
														</g>
													</g>
												</g>
											</g>
										</g>
									</g>
								</g>
							</g>
						</g>
					</g>
				</g>
			</g>
		</g>
	</g>
	<g>
		<path class="st13" d="M3.252,15.021C3.781,18.263,6,18.651,8.526,17.915c2.602-1.033,5.379-1.696,6.281-2.895
			c0.906-1.135-1.217-3.585-5.015-4.649C5.91,9.526,2.737,11.81,3.252,15.021z"/>
	</g>
	<g>
		<path class="st1" d="M4.034,15.001c0.666,2.465,2.667,2.627,4.938,2.109c2.306-0.752,4.587-1.067,5.051-2.108
			c0.476-1-1.592-3.132-4.882-3.868C5.814,10.573,3.362,12.567,4.034,15.001z"/>
	</g>
	<g>
		<path class="st3" d="M12.111,14.058c-0.007,1.097-0.932,1.955-2.06,1.932c-1.128-0.03-2.037-0.94-2.037-2.037
			c0.007-1.105,0.925-1.962,2.052-1.939C11.194,12.043,12.111,12.953,12.111,14.058z"/>
	</g>
	
		<ellipse transform="matrix(0.707 -0.7072 0.7072 0.707 -6.2416 11.5144)" class="st1" cx="10.776" cy="13.29" rx="0.428" ry="0.635"/>
	<path class="st3" d="M14.189,11.08c-0.57-0.639-1.857-1.631-3.032-2.191C9.387,8.04,8.24,8.04,7.432,8.019
		c0.808-0.105,1.97-0.29,3.946,0.306c2.081,0.621,3.629,1.86,3.629,1.86c0.247,0.226,0.264,0.609,0.038,0.856
		C14.819,11.289,14.436,11.306,14.189,11.08z"/>
	<g>
		<path class="st13" d="M28.748,15.021c-0.529,3.242-2.749,3.629-5.274,2.894c-2.602-1.033-5.379-1.696-6.281-2.895
			c-0.906-1.135,1.217-3.585,5.015-4.649C26.09,9.526,29.262,11.81,28.748,15.021z"/>
	</g>
	<g>
		<path class="st1" d="M27.965,15.001c-0.666,2.465-2.667,2.627-4.938,2.109c-2.306-0.752-4.587-1.067-5.051-2.108
			c-0.476-1,1.592-3.132,4.882-3.868C26.186,10.573,28.638,12.567,27.965,15.001z"/>
	</g>
	<g>
		<path class="st3" d="M19.889,14.058c0.007,1.097,0.932,1.955,2.06,1.932c1.128-0.03,2.037-0.94,2.037-2.037
			c-0.007-1.105-0.925-1.962-2.052-1.939C20.806,12.043,19.889,12.953,19.889,14.058z"/>
	</g>
	
		<ellipse transform="matrix(0.7072 -0.707 0.707 0.7072 -3.182 18.8974)" class="st1" cx="21.224" cy="13.29" rx="0.635" ry="0.428"/>
	<path class="st3" d="M17.811,11.08c0.57-0.639,1.857-1.631,3.032-2.191c1.769-0.849,2.917-0.849,3.725-0.87
		c-0.808-0.105-1.97-0.29-3.946,0.306c-2.081,0.621-3.629,1.86-3.629,1.86c-0.247,0.226-0.264,0.609-0.038,0.856
		C17.181,11.289,17.564,11.306,17.811,11.08z"/>
	<path class="st3" d="M22.32,25.724c-0.683,3.161-1.35,0.917-6.324-0.332c-4.966-0.964-5.633,2.339-6.316,0.134
		c-0.345-1.178-0.345-2.813,0-3.999c0.683-2.189,1.35,1.099,6.316,0.142c4.974-1.249,5.641-3.493,6.324-0.34
		C22.665,22.903,22.665,24.159,22.32,25.724z"/>
	<path class="st1" d="M21.765,23.606c0,0.696-0.072,1.399-0.225,2.126c-0.064,0.316-0.128,0.522-0.161,0.64
		c-0.153-0.024-0.362-0.094-0.538-0.174c-0.9-0.348-2.403-1.28-4.821-1.596c-2.459-0.174-3.961,0.213-4.861,0.664
		c-0.177,0.079-0.386,0.198-0.53,0.277c-0.048-0.063-0.104-0.19-0.169-0.395c-0.153-0.482-0.225-1.019-0.233-1.557
		c0.08,0.008,0.161,0.016,0.241,0.024c0.804,0.055,1.583,0.008,1.687,0.008c-0.088-0.032-0.844-0.198-1.511-0.514
		c-0.137-0.063-0.257-0.127-0.378-0.198c0.032-0.348,0.088-0.688,0.193-0.995c0.064-0.206,0.121-0.324,0.169-0.395
		c0.137,0.071,0.354,0.189,0.53,0.276c0.9,0.451,2.403,0.838,4.813,0.664c2.467-0.316,3.969-1.257,4.869-1.612
		c0.177-0.063,0.386-0.134,0.53-0.166c0.04,0.118,0.104,0.332,0.169,0.648c0.097,0.466,0.153,0.933,0.185,1.383
		c-0.121,0.071-0.241,0.142-0.37,0.221c-0.715,0.403-1.503,0.743-1.519,0.743c0,0,0.828,0.079,1.696-0.032
		C21.613,23.63,21.685,23.614,21.765,23.606z"/>
</g>
</svg>
