<?xml version="1.0" encoding="utf-8"?>
<!-- Generator: Adobe Illustrator 21.1.0, SVG Export Plug-In . SVG Version: 6.00 Build 0)  -->
<svg version="1.1" id="Layer_1" xmlns="http://www.w3.org/2000/svg" xmlns:xlink="http://www.w3.org/1999/xlink" x="0px" y="0px"
	 viewBox="0 0 32 32" style="enable-background:new 0 0 32 32;" xml:space="preserve">
<style type="text/css">
	.st0{fill:#FFD93B;}
	.st1{fill:#FFFFFF;}
	.st2{fill:#89664C;}
	.st3{fill:#3E4347;}
	.st4{fill:#E24B4B;}
	.st5{fill:#F29A2E;}
	.st6{fill:#5A5F63;}
	.st7{fill:#E18823;}
	.st8{fill:#65B1EF;}
	.st9{fill:#D03F3F;}
	.st10{opacity:0.2;}
	.st11{fill:#DEE4E9;}
	.st12{fill:#45CBEA;}
	.st13{fill:#F4C534;}
	.st14{fill:#BF3333;}
	.st15{fill:#D23F77;}
	.st16{fill:#E84D88;}
	.st17{fill:#7A5B44;}
	.st18{fill:#6B503B;}
	.st19{opacity:0.2;fill:#FFFFFF;}
	.st20{fill:#4E99D2;}
	.st21{fill:none;}
	.st22{opacity:0.15;fill:#FFFFFF;}
	.st23{fill:#8CC63E;}
	.st24{fill:#9A795F;}
	.st25{fill:#E9EFF4;}
</style>
<g>
	<g>
		<g>
			<g>
				<g>
					<g>
						<g>
							<g>
								<g>
									<g>
										<g>
											<g>
												<g>
													<g>
														<g>
															<g>
																<g>
																	<g>
																		<g>
																			<g>
																				<g>
																					<g>
																						<g>
																							<g>
																								<g>
																									<g>
																										<g>
																											<circle class="st0" cx="16" cy="16" r="16"/>
																										</g>
																									</g>
																								</g>
																							</g>
																						</g>
																					</g>
																					<g>
																						<g>
																							<g>
																								<g>
																									<g>
																										<g>
																											<path class="st13" d="M32,16c0,8.84-7.165,16-16,16c-5.03,0-9.52-2.32-12.455-5.955
																												c2.745,2.22,6.24,3.545,10.045,3.545c8.835,0,16-7.16,16-16c0-3.805-1.325-7.3-3.545-10.045
																												C29.675,6.48,32,10.97,32,16z"/>
																										</g>
																									</g>
																								</g>
																							</g>
																						</g>
																					</g>
																				</g>
																			</g>
																		</g>
																	</g>
																</g>
															</g>
														</g>
													</g>
												</g>
											</g>
										</g>
									</g>
								</g>
							</g>
						</g>
					</g>
				</g>
			</g>
		</g>
	</g>
	<g>
		<g>
			<path class="st15" d="M26.932,15.116c0,2.613-2.113,4.725-4.725,4.725s-4.725-2.113-4.725-4.725c0-2.604,2.113-4.725,4.725-4.725
				S26.932,12.512,26.932,15.116z"/>
		</g>
		<g>
			<ellipse class="st16" cx="22.207" cy="15.116" rx="4.725" ry="3.447"/>
		</g>
		<g>
			<ellipse class="st1" cx="22.207" cy="15.116" rx="4.725" ry="2.01"/>
		</g>
		<path class="st3" d="M20.833,13.193c-0.6,0.43-0.995,1.129-0.995,1.923c0,0.794,0.395,1.493,0.996,1.923
			c0.435,0.056,0.896,0.087,1.374,0.087s0.939-0.031,1.374-0.087c0.6-0.43,0.996-1.13,0.996-1.923c0-0.794-0.395-1.493-0.995-1.923
			c-0.435-0.057-0.896-0.087-1.374-0.087C21.729,13.106,21.268,13.137,20.833,13.193z"/>
		<path class="st1" d="M23.649,14.719c-0.181,0.181-0.552,0.095-0.845-0.19c-0.285-0.285-0.371-0.664-0.19-0.845
			c0.181-0.181,0.552-0.086,0.836,0.198C23.744,14.167,23.831,14.538,23.649,14.719z"/>
	</g>
	<g>
		<g>
			<g>
				<path class="st13" d="M15.304,15.116c0,2.613-2.113,4.725-4.725,4.725c-2.613,0-4.725-2.113-4.725-4.725
					c0-2.604,2.113-4.725,4.725-4.725C13.192,10.391,15.304,12.512,15.304,15.116z"/>
			</g>
		</g>
		<g>
			<g>
				<circle class="st1" cx="10.579" cy="15.116" r="3.92"/>
			</g>
		</g>
		<g>
			<g>
				<circle class="st3" cx="10.579" cy="15.116" r="2.138"/>
			</g>
		</g>
		<g>
			<path class="st1" d="M11.837,14.719c-0.181,0.181-0.552,0.095-0.845-0.19c-0.285-0.285-0.371-0.664-0.19-0.845
				c0.181-0.181,0.552-0.086,0.836,0.198C11.932,14.167,12.018,14.538,11.837,14.719z"/>
		</g>
	</g>
	<g>
		<path class="st3" d="M20.79,23.976c0,0.76-0.62,1.37-1.38,1.37h-6.83c-0.76,0-1.37-0.61-1.37-1.37c0-0.76,0.61-1.38,1.37-1.38
			h6.83C20.17,22.596,20.79,23.216,20.79,23.976z"/>
	</g>
	<g>
		<g>
			<path class="st3" d="M19.791,6.077c2.406-1.498,5.946,0.527,6.026,3.269C21.898,6.148,22.573,6.916,19.791,6.077z"/>
		</g>
		<g>
			<path class="st3" d="M12.209,6.077C8.313,7.251,9.321,6.784,6.183,9.346C6.262,6.625,9.84,4.604,12.209,6.077z"/>
		</g>
	</g>
</g>
</svg>
