<?xml version="1.0" encoding="utf-8"?>
<!-- Generator: Adobe Illustrator 21.1.0, SVG Export Plug-In . SVG Version: 6.00 Build 0)  -->
<svg version="1.1" id="Layer_1" xmlns="http://www.w3.org/2000/svg" xmlns:xlink="http://www.w3.org/1999/xlink" x="0px" y="0px"
	 viewBox="0 0 32 32" style="enable-background:new 0 0 32 32;" xml:space="preserve">
<style type="text/css">
	.st0{fill:#FFD93B;}
	.st1{fill:#FFFFFF;}
	.st2{fill:#89664C;}
	.st3{fill:#3E4347;}
	.st4{fill:#E24B4B;}
	.st5{fill:#F29A2E;}
	.st6{fill:#5A5F63;}
	.st7{fill:#E18823;}
	.st8{fill:#65B1EF;}
	.st9{fill:#D03F3F;}
	.st10{opacity:0.2;}
	.st11{fill:#DEE4E9;}
	.st12{fill:#45CBEA;}
	.st13{fill:#F4C534;}
	.st14{fill:#BF3333;}
	.st15{fill:#D23F77;}
	.st16{fill:#E84D88;}
	.st17{fill:#7A5B44;}
	.st18{fill:#6B503B;}
	.st19{opacity:0.2;fill:#FFFFFF;}
	.st20{fill:#4E99D2;}
	.st21{fill:none;}
	.st22{opacity:0.15;fill:#FFFFFF;}
	.st23{fill:#8CC63E;}
	.st24{fill:#9A795F;}
	.st25{fill:#E9EFF4;}
</style>
<g>
	<g>
		<g>
			<g>
				<g>
					<g>
						<g>
							<g>
								<g>
									<g>
										<g>
											<g>
												<g>
													<g>
														<g>
															<g>
																<g>
																	<g>
																		<g>
																			<g>
																				<g>
																					<g>
																						<g>
																							<g>
																								<g>
																									<g>
																										<g>
																											<g>
																												<circle class="st0" cx="16" cy="14.802" r="14.802"/>
																											</g>
																										</g>
																									</g>
																								</g>
																							</g>
																						</g>
																						<g>
																							<g>
																								<g>
																									<g>
																										<g>
																											<g>
																												<path class="st13" d="M30.802,14.802c0,8.178-6.628,14.802-14.802,14.802
																													c-4.653,0-8.807-2.146-11.522-5.509c2.539,2.054,5.773,3.28,9.293,3.28
																													c8.174,0,14.802-6.624,14.802-14.802c0-3.52-1.226-6.753-3.28-9.293
																													C28.651,5.995,30.802,10.149,30.802,14.802z"/>
																											</g>
																										</g>
																									</g>
																								</g>
																							</g>
																						</g>
																					</g>
																				</g>
																			</g>
																		</g>
																	</g>
																</g>
															</g>
														</g>
													</g>
												</g>
											</g>
										</g>
									</g>
								</g>
							</g>
						</g>
					</g>
				</g>
			</g>
		</g>
	</g>
	<g>
		<g>
			<path class="st13" d="M14.403,12.791c0,2.526-2.054,4.579-4.589,4.579c-2.526,0-4.579-2.054-4.579-4.579
				c0-2.535,2.054-4.589,4.579-4.589C12.349,8.202,14.403,10.256,14.403,12.791z"/>
		</g>
		<g>
			<path class="st1" d="M13.679,12.79c-0.147,2.127-1.997,3.856-4.131,3.856c-2.127,0-3.736-1.729-3.589-3.856
				c0.148-2.135,1.997-3.864,4.124-3.864C12.217,8.926,13.827,10.655,13.679,12.79z"/>
		</g>
		<g>
			<g>
				<path class="st3" d="M12.868,13.346c0,1.267-1.027,2.303-2.304,2.303c-1.267,0-2.304-1.036-2.304-2.313
					c0-1.267,1.036-2.294,2.304-2.294C11.841,11.042,12.868,12.069,12.868,13.346z"/>
			</g>
			<g>
				
					<ellipse transform="matrix(0.7071 -0.7071 0.7071 0.7071 -5.5016 11.7204)" class="st1" cx="11.397" cy="12.501" rx="0.423" ry="0.6"/>
			</g>
		</g>
	</g>
	<g>
		<g>
			<path class="st13" d="M26.141,12.791c0,2.526-2.054,4.579-4.589,4.579c-2.526,0-4.579-2.054-4.579-4.579
				c0-2.535,2.054-4.589,4.579-4.589C24.087,8.202,26.141,10.256,26.141,12.791z"/>
		</g>
		<g>
			<path class="st1" d="M25.417,12.79c-0.147,2.127-1.997,3.856-4.131,3.856c-2.127,0-3.736-1.729-3.589-3.856
				c0.148-2.135,1.997-3.864,4.124-3.864C23.955,8.926,25.564,10.655,25.417,12.79z"/>
		</g>
		<g>
			<g>
				<path class="st3" d="M22.94,13.161c0,1.268-1.027,2.303-2.304,2.303c-1.267,0-2.303-1.036-2.303-2.313
					c0-1.267,1.036-2.294,2.303-2.294C21.913,10.857,22.94,11.884,22.94,13.161z"/>
			</g>
			<g>
				
					<ellipse transform="matrix(0.7071 -0.7071 0.7071 0.7071 -2.4207 18.7884)" class="st1" cx="21.469" cy="12.316" rx="0.423" ry="0.6"/>
			</g>
		</g>
	</g>
	<g>
		<path class="st3" d="M24.469,19.413c-0.231,2.998-3.932,5.384-8.465,5.384c-4.542,0-8.243-2.387-8.474-5.384
			c1.563,1.508,4.764,2.535,8.474,2.535C19.705,21.948,22.906,20.921,24.469,19.413z"/>
	</g>
	<g>
		<path class="st4" d="M20.061,26.641c-1.17,3.174-2.327,5.35-4.058,5.359c-1.736-0.003-2.894-2.185-4.063-5.359
			c-0.354-1.242-0.189-2.462,0.439-3.384c0.47-0.669,1.401-0.792,2.169-0.52c0.932,0.327,1.972,0.327,2.905,0
			c0.769-0.271,1.698-0.154,2.169,0.52C20.25,24.181,20.416,25.398,20.061,26.641z"/>
	</g>
</g>
</svg>
