<?xml version="1.0" encoding="utf-8"?>
<!-- Generator: Adobe Illustrator 21.1.0, SVG Export Plug-In . SVG Version: 6.00 Build 0)  -->
<svg version="1.1" id="Layer_1" xmlns="http://www.w3.org/2000/svg" xmlns:xlink="http://www.w3.org/1999/xlink" x="0px" y="0px"
	 viewBox="0 0 32 32" style="enable-background:new 0 0 32 32;" xml:space="preserve">
<style type="text/css">
	.st0{fill:#FFD93B;}
	.st1{fill:#FFFFFF;}
	.st2{fill:#89664C;}
	.st3{fill:#3E4347;}
	.st4{fill:#E24B4B;}
	.st5{fill:#F29A2E;}
	.st6{fill:#5A5F63;}
	.st7{fill:#E18823;}
	.st8{fill:#65B1EF;}
	.st9{fill:#D03F3F;}
	.st10{opacity:0.2;}
	.st11{fill:#DEE4E9;}
	.st12{fill:#45CBEA;}
	.st13{fill:#F4C534;}
	.st14{fill:#BF3333;}
	.st15{fill:#D23F77;}
	.st16{fill:#E84D88;}
	.st17{fill:#7A5B44;}
	.st18{fill:#6B503B;}
	.st19{opacity:0.2;fill:#FFFFFF;}
	.st20{fill:#4E99D2;}
	.st21{fill:none;}
	.st22{opacity:0.15;fill:#FFFFFF;}
	.st23{fill:#8CC63E;}
	.st24{fill:#9A795F;}
	.st25{fill:#E9EFF4;}
</style>
<g>
	<g>
		<g>
			<g>
				<g>
					<g>
						<g>
							<g>
								<g>
									<g>
										<g>
											<g>
												<g>
													<g>
														<g>
															<g>
																<g>
																	<g>
																		<g>
																			<g>
																				<g>
																					<g>
																						<g>
																							<g>
																								<g>
																									<g>
																										<g>
																											<circle class="st0" cx="16" cy="16" r="16"/>
																										</g>
																									</g>
																								</g>
																							</g>
																						</g>
																					</g>
																					<g>
																						<g>
																							<g>
																								<g>
																									<g>
																										<g>
																											<path class="st13" d="M32,16c0,8.84-7.165,16-16,16c-5.03,0-9.52-2.32-12.455-5.955
																												c2.745,2.22,6.24,3.545,10.045,3.545c8.835,0,16-7.16,16-16c0-3.805-1.325-7.3-3.545-10.045
																												C29.675,6.48,32,10.97,32,16z"/>
																										</g>
																									</g>
																								</g>
																							</g>
																						</g>
																					</g>
																				</g>
																			</g>
																		</g>
																	</g>
																</g>
															</g>
														</g>
													</g>
												</g>
											</g>
										</g>
									</g>
								</g>
							</g>
						</g>
					</g>
				</g>
			</g>
		</g>
	</g>
	<path class="st13" d="M26,18.805c0.388,5.292-3.768,10.259-10,10.266C9.768,29.065,5.619,24.093,6,18.797
		c0.033-0.516,0.558-0.839,1.046-0.663c5.811,2.201,12.097,2.247,17.902,0.014C25.434,17.958,25.967,18.289,26,18.805z"/>
	<path class="st3" d="M16,28.183c-5.377,0.001-9.353-4.17-9.116-9.167c2.958,1.108,6.086,1.677,9.184,1.675
		c3.071,0,6.141-0.564,9.05-1.658C25.357,24.022,21.383,28.184,16,28.183z"/>
	<path class="st1" d="M25.12,19.035c0.019,0.573-0.014,1.138-0.099,1.684c-1.655,0.962-2.927,1.642-4.449,2.077
		c-0.067-0.518-0.134-1.036-0.2-1.553c-0.113,0.565-0.228,1.13-0.344,1.695c-1.112,0.255-2.387,0.388-4.028,0.39
		c-1.509-0.001-2.709-0.116-3.743-0.333c0.024-0.621,0.047-1.242,0.071-1.863c-0.127,0.597-0.255,1.194-0.384,1.792
		c-1.765-0.422-3.127-1.147-4.97-2.24c-0.079-0.537-0.111-1.093-0.092-1.669c2.957,1.11,6.091,1.681,9.183,1.681
		C19.136,20.694,22.211,20.128,25.12,19.035z"/>
	<path class="st4" d="M15.608,24.775c-3.286-0.005-5.797-1.375-6.256,0.51c-0.014,0.059-0.017,0.12-0.027,0.182
		c1.633,1.67,4.005,2.719,6.675,2.717c2.257,0,4.298-0.749,5.861-1.987c0.046-0.288,0.042-0.583-0.028-0.881
		C21.382,23.427,18.895,24.781,15.608,24.775z"/>
	<path class="st3" d="M14.304,14.368c-1.129-1.265-2.756-2.223-4.554-2.55c-1.797-0.327-3.424,0.039-4.553,0.894
		c0.455-2.36,2.323-3.858,4.553-3.452C11.981,9.666,13.849,11.844,14.304,14.368z"/>
	<path class="st3" d="M17.697,14.368c1.129-1.265,2.756-2.223,4.553-2.55c1.797-0.327,3.424,0.039,4.553,0.894
		c-0.455-2.36-2.323-3.858-4.553-3.452C20.019,9.666,18.151,11.844,17.697,14.368z"/>
</g>
</svg>
