<?xml version="1.0" encoding="utf-8"?>
<!-- Generator: Adobe Illustrator 21.1.0, SVG Export Plug-In . SVG Version: 6.00 Build 0)  -->
<svg version="1.1" id="Layer_1" xmlns="http://www.w3.org/2000/svg" xmlns:xlink="http://www.w3.org/1999/xlink" x="0px" y="0px"
	 viewBox="0 0 32 32" style="enable-background:new 0 0 32 32;" xml:space="preserve">
<style type="text/css">
	.st0{fill:#FFD93B;}
	.st1{fill:#FFFFFF;}
	.st2{fill:#89664C;}
	.st3{fill:#3E4347;}
	.st4{fill:#E24B4B;}
	.st5{fill:#F29A2E;}
	.st6{fill:#5A5F63;}
	.st7{fill:#E18823;}
	.st8{fill:#65B1EF;}
	.st9{fill:#D03F3F;}
	.st10{opacity:0.2;}
	.st11{fill:#DEE4E9;}
	.st12{fill:#45CBEA;}
	.st13{fill:#F4C534;}
	.st14{fill:#BF3333;}
	.st15{fill:#D23F77;}
	.st16{fill:#E84D88;}
	.st17{fill:#7A5B44;}
	.st18{fill:#6B503B;}
	.st19{opacity:0.2;fill:#FFFFFF;}
	.st20{fill:#4E99D2;}
	.st21{fill:none;}
	.st22{opacity:0.15;fill:#FFFFFF;}
	.st23{fill:#8CC63E;}
	.st24{fill:#9A795F;}
	.st25{fill:#E9EFF4;}
</style>
<g>
	<circle class="st0" cx="16" cy="16" r="16"/>
	<path class="st8" d="M28.377,15.863c0,3.25-2.63,5.88-5.89,5.88c-3.25,0-5.88-2.63-5.88-5.88c0-3.26,2.63-5.89,5.88-5.89
		C25.747,9.973,28.377,12.603,28.377,15.863z"/>
	<path class="st13" d="M31.924,16c0,8.84-7.165,16-16,16c-5.03,0-9.52-2.32-12.455-5.955c2.745,2.22,6.24,3.545,10.045,3.545
		c8.835,0,16-7.16,16-16c0-3.805-1.325-7.3-3.545-10.045C29.599,6.48,31.924,10.97,31.924,16z"/>
	<circle class="st3" cx="16" cy="25.537" r="2.918"/>
	<path class="st1" d="M15.24,13.986c0,2.882-2.332,5.214-5.213,5.214c-2.891,0-5.222-2.332-5.222-5.214
		c0-2.891,2.332-5.222,5.222-5.222C12.908,8.764,15.24,11.095,15.24,13.986z"/>
	<path class="st3" d="M12.402,13.986c0,1.319-1.057,2.384-2.375,2.384c-1.327,0-2.393-1.065-2.393-2.384
		c0-1.327,1.066-2.392,2.393-2.393C11.345,11.594,12.402,12.659,12.402,13.986z"/>
	
		<ellipse transform="matrix(0.7071 -0.7071 0.7071 0.7071 -6.0858 11.5378)" class="st1" cx="10.884" cy="13.115" rx="0.467" ry="0.705"/>
	<path class="st3" d="M13.534,5.741c0,0-5.24,3.493-9.242,4.567C4.292,10.307,14.608,10.453,13.534,5.741z"/>
	<path class="st1" d="M16.76,13.986c0,2.882,2.332,5.214,5.213,5.214c2.891,0,5.222-2.332,5.222-5.214
		c0-2.891-2.332-5.222-5.222-5.222C19.092,8.764,16.76,11.095,16.76,13.986z"/>
	<path class="st11" d="M17.44,16.515c0.891,1.595,2.575,2.685,4.534,2.685c1.965,0,3.65-1.09,4.542-2.685H17.44z"/>
	<path class="st13" d="M14.647,16.462l-0.04,0.08c-0.94,1.67-2.69,2.71-4.58,2.71c-1.89,0-3.65-1.04-4.59-2.71l-0.04-0.08H14.647z"
		/>
	<path class="st3" d="M19.598,13.986c0,1.319,1.057,2.384,2.375,2.384c1.327,0,2.393-1.065,2.393-2.384
		c0-1.327-1.066-2.392-2.393-2.393C20.655,11.594,19.598,12.659,19.598,13.986z"/>
	
		<ellipse transform="matrix(0.7071 -0.7071 0.7071 0.7071 -3.0893 18.7714)" class="st1" cx="21.116" cy="13.115" rx="0.705" ry="0.467"/>
	<path class="st3" d="M18.466,3.72c0,0,5.24,3.493,9.242,4.567C27.708,8.287,17.393,8.432,18.466,3.72z"/>
</g>
</svg>
