<?xml version="1.0" encoding="utf-8"?>
<!-- Generator: Adobe Illustrator 21.1.0, SVG Export Plug-In . SVG Version: 6.00 Build 0)  -->
<svg version="1.1" id="Layer_1" xmlns="http://www.w3.org/2000/svg" xmlns:xlink="http://www.w3.org/1999/xlink" x="0px" y="0px"
	 viewBox="0 0 32 32" style="enable-background:new 0 0 32 32;" xml:space="preserve">
<style type="text/css">
	.st0{fill:#FFD93B;}
	.st1{fill:#3E4347;}
	.st2{fill:#F4C534;}
	.st3{fill:#38C0DC;}
	.st4{fill:#45CBEA;}
	.st5{fill:#FFFFFF;}
	.st6{fill:#E24B4B;}
	.st7{fill:#5A5F63;}
	.st8{opacity:0.3;}
	.st9{opacity:0.2;}
	.st10{opacity:0.1;}
	.st11{fill:#E9B02C;}
	.st12{fill:#65B1EF;}
	.st13{fill:#E9EFF4;}
	.st14{fill:#8CC63E;}
	.st15{fill:#7FB239;}
	.st16{fill:#D03F3F;}
	.st17{fill:#D23F77;}
	.st18{fill:#E84D88;}
	.st19{fill:#59A5E0;}
	.st20{fill:#DEE4E9;}
	.st21{fill:#D3D9DD;}
	.st22{opacity:0.25;fill:#FFFFFF;}
	.st23{fill:#9A795F;}
	.st24{fill:#F29A2E;}
	.st25{fill:#FC97B2;}
	.st26{fill:#89664C;}
	.st27{fill:#7A5B44;}
	.st28{opacity:0.2;fill:#FFFFFF;}
	.st29{fill:#4E99D2;}
	.st30{fill:#BBC7D1;}
	.st31{fill:#DE9C25;}
</style>
<g>
	<g>
		<g>
			<g>
				<g>
					<g>
						<g>
							<g>
								<path class="st6" d="M17.405,29.453c-0.842,0.59-1.965,0.59-2.806,0C9.363,25.805-6.373,14.133,2.831,4.659
									c1.5-1.548,3.513-2.555,5.671-2.555c3.445,0,6.378,2.187,7.5,5.245c1.123-3.058,4.055-5.245,7.5-5.245
									c2.158,0,4.171,1.016,5.671,2.565C38.367,14.153,22.641,25.805,17.405,29.453z"/>
							</g>
						</g>
					</g>
				</g>
			</g>
		</g>
	</g>
	<g>
		<g>
			<g>
				<g>
					<g>
						<g>
							<g>
								<path class="st16" d="M17.405,29.453c-0.571,0.397-1.268,0.532-1.916,0.377c7.507-4.454,15.996-14.737,13.684-25.162
									C38.367,14.153,22.641,25.805,17.405,29.453z"/>
							</g>
						</g>
					</g>
				</g>
			</g>
		</g>
	</g>
	<g>
		
			<ellipse transform="matrix(0.3257 -0.9455 0.9455 0.3257 2.5624 28.8131)" class="st16" cx="21.482" cy="12.61" rx="5.371" ry="4.185"/>
	</g>
	<g>
		<path class="st5" d="M18.24,11.494c-0.574,2.308,0.41,4.679,2.204,5.297c1.787,0.616,3.703-0.756,4.277-3.064
			c0.576-2.314-0.409-4.685-2.196-5.301C20.732,7.808,18.816,9.18,18.24,11.494z"/>
	</g>
	<g>
		<g>
			<path class="st1" d="M22.996,13.395c0,1.154-0.933,2.087-2.087,2.087c-1.146,0-2.079-0.933-2.079-2.087
				c0-1.146,0.933-2.087,2.079-2.087C22.064,11.309,22.996,12.249,22.996,13.395z"/>
		</g>
		<g>
			
				<ellipse transform="matrix(0.7071 -0.7071 0.7071 0.7071 -2.5595 19.0368)" class="st5" cx="21.7" cy="12.608" rx="0.365" ry="0.538"/>
		</g>
	</g>
	<g>
		
			<ellipse transform="matrix(0.9455 -0.3257 0.3257 0.9455 -3.5464 4.0397)" class="st16" cx="10.29" cy="12.61" rx="4.185" ry="5.371"/>
	</g>
	<g>
		<path class="st5" d="M13.533,11.494c0.574,2.308-0.41,4.679-2.204,5.297c-1.787,0.616-3.703-0.756-4.277-3.064
			c-0.576-2.314,0.409-4.685,2.196-5.301C11.041,7.808,12.957,9.18,13.533,11.494z"/>
	</g>
	<g>
		<g>
			<path class="st1" d="M12.944,13.395c0,1.154-0.933,2.087-2.087,2.087c-1.146,0-2.079-0.933-2.079-2.087
				c0-1.146,0.933-2.087,2.079-2.087C12.011,11.309,12.944,12.249,12.944,13.395z"/>
		</g>
		<g>
			
				<ellipse transform="matrix(0.7071 -0.7071 0.7071 0.7071 -5.5037 11.9286)" class="st5" cx="11.647" cy="12.608" rx="0.365" ry="0.538"/>
		</g>
	</g>
	<path class="st28" d="M4.996,7.212C3.67,8.387,3.679,9.998,3.037,9.286C2.407,8.575,2.424,6.908,3.75,5.744
		c1.315-1.176,2.847-1.001,3.478-0.29C7.858,6.166,6.311,6.035,4.996,7.212z"/>
	<path class="st1" d="M20.713,20.656c-0.89,1.974-2.652,3.329-4.713,3.329s-3.823-1.355-4.713-3.329
		c-0.136-0.3,0.184-0.6,0.484-0.474c2.816,1.19,5.642,1.19,8.468,0C20.539,20.056,20.848,20.356,20.713,20.656z"/>
</g>
</svg>
