<?xml version="1.0" encoding="utf-8"?>
<!-- Generator: Adobe Illustrator 21.1.0, SVG Export Plug-In . SVG Version: 6.00 Build 0)  -->
<svg version="1.1" id="Layer_1" xmlns="http://www.w3.org/2000/svg" xmlns:xlink="http://www.w3.org/1999/xlink" x="0px" y="0px"
	 viewBox="0 0 32 32" style="enable-background:new 0 0 32 32;" xml:space="preserve">
<style type="text/css">
	.st0{fill:#FFD93B;}
	.st1{fill:#FFFFFF;}
	.st2{fill:#89664C;}
	.st3{fill:#3E4347;}
	.st4{fill:#E24B4B;}
	.st5{fill:#F29A2E;}
	.st6{fill:#5A5F63;}
	.st7{fill:#E18823;}
	.st8{fill:#65B1EF;}
	.st9{fill:#D03F3F;}
	.st10{opacity:0.2;}
	.st11{fill:#DEE4E9;}
	.st12{fill:#45CBEA;}
	.st13{fill:#F4C534;}
	.st14{fill:#BF3333;}
	.st15{fill:#D23F77;}
	.st16{fill:#E84D88;}
	.st17{fill:#7A5B44;}
	.st18{fill:#6B503B;}
	.st19{opacity:0.2;fill:#FFFFFF;}
	.st20{fill:#4E99D2;}
	.st21{fill:none;}
	.st22{opacity:0.15;fill:#FFFFFF;}
	.st23{fill:#8CC63E;}
	.st24{fill:#9A795F;}
	.st25{fill:#E9EFF4;}
</style>
<g>
	<circle class="st0" cx="16" cy="16" r="16"/>
	<path class="st3" d="M26.326,21.486c-1.67,4.065-5.661,6.922-10.325,6.922c-4.664,0-8.655-2.857-10.335-6.922
		c-0.158-0.378,0.105-0.819,0.515-0.903c6.544-1.219,13.098-1.219,19.631,0C26.221,20.667,26.484,21.108,26.326,21.486z"/>
	<path class="st13" d="M32,16c0,8.84-7.165,16-16,16c-5.03,0-9.52-2.32-12.455-5.955c2.745,2.22,6.24,3.545,10.045,3.545
		c8.835,0,16-7.16,16-16c0-3.805-1.325-7.3-3.545-10.045C29.675,6.48,32,10.97,32,16z"/>
	<path class="st13" d="M23.501,6.89c-1.587,1.701-3.561,3.031-5.765,3.836c-0.153,0.504-0.237,1.04-0.237,1.596
		c0,3.01,2.44,5.45,5.45,5.45c3.02,0,5.46-2.44,5.46-5.45C28.408,9.489,26.26,7.167,23.501,6.89z"/>
	<path class="st1" d="M23.527,8.178c-1.265,0.894-2.675,1.58-4.18,2.019c-0.367,0.625-0.592,1.345-0.592,2.126
		c0,2.319,1.874,4.194,4.194,4.194c2.329,0,4.203-1.874,4.203-4.194C27.152,10.193,25.577,8.461,23.527,8.178z"/>
	<path class="st3" d="M25.819,7.843l-8.907,3.446c0.671-0.456,4.812-3.513,7.215-6.01c0.739-0.766,2.068-0.591,2.484,0.376
		c0.04,0.067,0.067,0.134,0.081,0.201C26.987,6.648,26.585,7.521,25.819,7.843z"/>
	<path class="st3" d="M25.104,12.352c0,1.187-0.958,2.156-2.156,2.156c-1.187,0-2.145-0.968-2.145-2.155
		c0-1.197,0.958-2.156,2.145-2.156C24.146,10.197,25.104,11.155,25.104,12.352z"/>
	
		<ellipse transform="matrix(0.7071 -0.7071 0.7071 0.7071 -1.1706 20.1979)" class="st1" cx="23.794" cy="11.512" rx="0.375" ry="0.6"/>
	<path class="st13" d="M8.499,6.89c1.588,1.701,3.561,3.031,5.765,3.836c0.154,0.504,0.237,1.04,0.237,1.596
		c0,3.01-2.44,5.45-5.45,5.45c-3.02,0-5.46-2.44-5.46-5.45C3.592,9.489,5.74,7.167,8.499,6.89z"/>
	<path class="st1" d="M8.473,8.178c1.265,0.894,2.675,1.58,4.18,2.019c0.367,0.625,0.592,1.345,0.592,2.126
		c0,2.319-1.874,4.194-4.194,4.194c-2.329,0-4.203-1.874-4.203-4.194C4.848,10.193,6.423,8.461,8.473,8.178z"/>
	<path class="st3" d="M6.181,7.843l8.907,3.446c-0.671-0.456-4.812-3.513-7.215-6.01C7.134,4.513,5.805,4.688,5.389,5.654
		c-0.04,0.067-0.067,0.134-0.081,0.201C5.013,6.648,5.416,7.521,6.181,7.843z"/>
	<path class="st3" d="M6.896,12.352c0,1.187,0.958,2.156,2.155,2.156c1.187,0,2.145-0.968,2.145-2.155
		c0-1.197-0.958-2.156-2.145-2.156C7.855,10.197,6.897,11.155,6.896,12.352z"/>
	
		<ellipse transform="matrix(0.7071 -0.7071 0.7071 0.7071 -5.7364 9.1737)" class="st1" cx="8.206" cy="11.512" rx="0.6" ry="0.375"/>
	<path class="st1" d="M6.419,20.544c1.239,2.018,5.118,2.234,9.746,2.234c4.567,0,8.454-0.216,9.746-2.15
		c-0.035-0.013-0.063-0.038-0.1-0.045C19.358,19.379,12.884,19.369,6.419,20.544z"/>
</g>
</svg>
