<?xml version="1.0" encoding="utf-8"?>
<!-- Generator: Adobe Illustrator 21.1.0, SVG Export Plug-In . SVG Version: 6.00 Build 0)  -->
<svg version="1.1" id="Layer_1" xmlns="http://www.w3.org/2000/svg" xmlns:xlink="http://www.w3.org/1999/xlink" x="0px" y="0px"
	 viewBox="0 0 32 32" style="enable-background:new 0 0 32 32;" xml:space="preserve">
<style type="text/css">
	.st0{fill:#FFD93B;}
	.st1{fill:#FFFFFF;}
	.st2{fill:#89664C;}
	.st3{fill:#3E4347;}
	.st4{fill:#E24B4B;}
	.st5{fill:#F29A2E;}
	.st6{fill:#5A5F63;}
	.st7{fill:#E18823;}
	.st8{fill:#65B1EF;}
	.st9{fill:#D03F3F;}
	.st10{opacity:0.2;}
	.st11{fill:#DEE4E9;}
	.st12{fill:#45CBEA;}
	.st13{fill:#F4C534;}
	.st14{fill:#BF3333;}
	.st15{fill:#D23F77;}
	.st16{fill:#E84D88;}
	.st17{fill:#7A5B44;}
	.st18{fill:#6B503B;}
	.st19{opacity:0.2;fill:#FFFFFF;}
	.st20{fill:#4E99D2;}
	.st21{fill:none;}
	.st22{opacity:0.15;fill:#FFFFFF;}
	.st23{fill:#8CC63E;}
	.st24{fill:#9A795F;}
	.st25{fill:#E9EFF4;}
</style>
<g>
	<circle class="st0" cx="16" cy="16" r="16"/>
	
		<ellipse transform="matrix(0.1665 -0.986 0.986 0.1665 -6.0389 21.2417)" class="st13" cx="9.545" cy="14.193" rx="5.845" ry="5.844"/>
	<circle class="st1" cx="9.545" cy="14.193" r="4.519"/>
	<circle class="st3" cx="9.545" cy="14.193" r="2.549"/>
	<path class="st1" d="M10.947,13.725c-0.167,0.167-0.523,0.1-0.779-0.156c-0.256-0.256-0.323-0.612-0.156-0.779
		c0.178-0.178,0.534-0.111,0.79,0.145C11.059,13.191,11.125,13.547,10.947,13.725z"/>
	<path class="st13" d="M9.701,13.267c2.247,0.379,4.284,0.073,5.445-0.678c-0.602-2.093-2.336-3.772-4.628-4.159
		s-4.481,0.629-5.737,2.409C5.631,11.929,7.455,12.887,9.701,13.267z"/>
	<path class="st0" d="M16.598,10.811c-0.206,1.647-3.016,2.565-6.276,2.049c-3.26-0.516-5.735-2.269-5.529-3.916
		c0.207-1.647,3.016-2.564,6.277-2.049S16.804,9.164,16.598,10.811z"/>
	
		<ellipse transform="matrix(0.986 -0.1665 0.1665 0.986 -2.0492 3.9359)" class="st13" cx="22.455" cy="14.193" rx="5.844" ry="5.845"/>
	<circle class="st1" cx="22.455" cy="14.193" r="4.519"/>
	<circle class="st3" cx="22.455" cy="14.193" r="2.549"/>
	<path class="st1" d="M21.053,13.725c0.167,0.167,0.523,0.1,0.779-0.156c0.256-0.256,0.323-0.612,0.156-0.779
		c-0.178-0.178-0.534-0.111-0.79,0.145C20.941,13.191,20.875,13.547,21.053,13.725z"/>
	<path class="st13" d="M22.299,13.267c-2.247,0.379-4.284,0.073-5.444-0.678c0.602-2.093,2.336-3.772,4.628-4.159
		s4.481,0.629,5.737,2.409C26.369,11.929,24.545,12.887,22.299,13.267z"/>
	<path class="st0" d="M15.402,10.811c0.206,1.647,3.016,2.565,6.276,2.049s5.735-2.269,5.529-3.916
		c-0.207-1.647-3.016-2.564-6.276-2.049C17.67,7.411,15.196,9.164,15.402,10.811z"/>
	<path class="st13" d="M32,16c0,8.84-7.165,16-16,16c-5.03,0-9.52-2.32-12.455-5.955c2.745,2.22,6.24,3.545,10.045,3.545
		c8.835,0,16-7.16,16-16c0-3.805-1.325-7.3-3.545-10.045C29.675,6.48,32,10.97,32,16z"/>
	<path class="st3" d="M23.33,23.943c0,0.886-3.28,3.634-7.33,2.043c-4.05-1.587-7.33-0.67-7.33-2.043c0-1.378,3.28-0.457,7.33-2.044
		C20.05,20.312,23.33,23.055,23.33,23.943z"/>
	<path class="st1" d="M16,21.899c-2.342,0.917-4.421,0.997-5.763,1.167c1.46,0.668,3.499,0.461,5.763,0.236
		c2.19-0.219,4.887-0.457,6.511-0.489C21.293,21.801,18.838,20.787,16,21.899z"/>
	<path class="st1" d="M16,25.986c2.427,0.953,4.57,0.347,5.904-0.482c-1.462,0.075-3.77-0.207-5.904-0.564
		c-1.994-0.337-3.812-0.556-5.215-0.059C12.113,25.023,13.958,25.186,16,25.986z"/>
</g>
</svg>
