<?xml version="1.0" encoding="utf-8"?>
<!-- Generator: Adobe Illustrator 21.1.0, SVG Export Plug-In . SVG Version: 6.00 Build 0)  -->
<svg version="1.1" id="Layer_1" xmlns="http://www.w3.org/2000/svg" xmlns:xlink="http://www.w3.org/1999/xlink" x="0px" y="0px"
	 viewBox="0 0 32 32" style="enable-background:new 0 0 32 32;" xml:space="preserve">
<style type="text/css">
	.st0{fill:#FFD93B;}
	.st1{fill:#FFFFFF;}
	.st2{fill:#89664C;}
	.st3{fill:#3E4347;}
	.st4{fill:#E24B4B;}
	.st5{fill:#F29A2E;}
	.st6{fill:#5A5F63;}
	.st7{fill:#E18823;}
	.st8{fill:#65B1EF;}
	.st9{fill:#D03F3F;}
	.st10{opacity:0.2;}
	.st11{fill:#DEE4E9;}
	.st12{fill:#45CBEA;}
	.st13{fill:#F4C534;}
	.st14{fill:#BF3333;}
	.st15{fill:#D23F77;}
	.st16{fill:#E84D88;}
	.st17{fill:#7A5B44;}
	.st18{fill:#6B503B;}
	.st19{opacity:0.2;fill:#FFFFFF;}
	.st20{fill:#4E99D2;}
	.st21{fill:none;}
	.st22{opacity:0.15;fill:#FFFFFF;}
	.st23{fill:#8CC63E;}
	.st24{fill:#9A795F;}
	.st25{fill:#E9EFF4;}
</style>
<g>
	<g>
		<circle class="st0" cx="16" cy="16" r="16"/>
		<path class="st13" d="M32,15.999c0,8.84-7.16,16-16,16c-5.07,0-9.59-2.36-12.53-6.04c2.73,2.18,6.2,3.48,9.97,3.48
			c8.84,0,16-7.16,16-16c0-3.77-1.3-7.24-3.48-9.97C29.64,6.409,32,10.929,32,15.999z"/>
		<ellipse class="st3" cx="10.079" cy="14.036" rx="2.974" ry="3.445"/>
		<ellipse class="st3" cx="21.92" cy="14.036" rx="2.974" ry="3.445"/>
		<path class="st1" d="M23.081,12.206c0.257-0.091,0.58,0.182,0.729,0.605c0.149,0.431,0.066,0.845-0.191,0.937
			c-0.257,0.083-0.588-0.182-0.738-0.613C22.733,12.711,22.824,12.297,23.081,12.206z"/>
		<path class="st1" d="M11.656,13.745c-0.257,0.091-0.58-0.182-0.729-0.605c-0.149-0.431-0.066-0.845,0.191-0.937
			c0.257-0.083,0.588,0.182,0.738,0.613C12.004,13.239,11.913,13.654,11.656,13.745z"/>
	</g>
	<g>
		<path class="st3" d="M16.097,24.851c-4.925,0.124-7.117-3.085-7.637-2.741c-0.66,0.236,0.66,5.738,7.637,5.704
			c6.977,0.034,8.297-5.468,7.637-5.704C23.213,21.766,21.023,24.975,16.097,24.851z"/>
		<path class="st3" d="M24.741,20.8c-0.573-0.573-1.548-0.673-2.082-0.444c0,0,1.04,0.28,1.684,0.888
			c0.441,0.392,0.85,1.037,1.129,1.555C25.601,22.262,25.355,21.349,24.741,20.8z"/>
		<path class="st3" d="M7.253,20.799c-0.606,0.542-0.858,1.434-0.722,1.999c0.24-0.481,0.692-1.177,1.129-1.555
			c0.603-0.587,1.675-0.888,1.675-0.888C8.807,20.128,7.827,20.225,7.253,20.799z"/>
	</g>
</g>
</svg>
