<?xml version="1.0" encoding="utf-8"?>
<!-- Generator: Adobe Illustrator 21.1.0, SVG Export Plug-In . SVG Version: 6.00 Build 0)  -->
<svg version="1.1" id="Layer_1" xmlns="http://www.w3.org/2000/svg" xmlns:xlink="http://www.w3.org/1999/xlink" x="0px" y="0px"
	 viewBox="0 0 32 32" style="enable-background:new 0 0 32 32;" xml:space="preserve">
<style type="text/css">
	.st0{fill:#FFD93B;}
	.st1{fill:#FFFFFF;}
	.st2{fill:#89664C;}
	.st3{fill:#3E4347;}
	.st4{fill:#E24B4B;}
	.st5{fill:#F29A2E;}
	.st6{fill:#5A5F63;}
	.st7{fill:#E18823;}
	.st8{fill:#65B1EF;}
	.st9{fill:#D03F3F;}
	.st10{opacity:0.2;}
	.st11{fill:#DEE4E9;}
	.st12{fill:#45CBEA;}
	.st13{fill:#F4C534;}
	.st14{fill:#BF3333;}
	.st15{fill:#D23F77;}
	.st16{fill:#E84D88;}
	.st17{fill:#7A5B44;}
	.st18{fill:#6B503B;}
	.st19{opacity:0.2;fill:#FFFFFF;}
	.st20{fill:#4E99D2;}
	.st21{fill:none;}
	.st22{opacity:0.15;fill:#FFFFFF;}
	.st23{fill:#8CC63E;}
	.st24{fill:#9A795F;}
	.st25{fill:#E9EFF4;}
</style>
<g>
	<g>
		<circle class="st0" cx="16" cy="16" r="16"/>
		<path class="st13" d="M32,15.999c0,8.84-7.16,16-16,16c-5.07,0-9.59-2.36-12.53-6.04c2.73,2.18,6.2,3.48,9.97,3.48
			c8.84,0,16-7.16,16-16c0-3.77-1.3-7.24-3.48-9.97C29.64,6.409,32,10.929,32,15.999z"/>
		<ellipse class="st3" cx="10.079" cy="12.985" rx="2.974" ry="3.445"/>
		<ellipse class="st3" cx="21.92" cy="12.985" rx="2.974" ry="3.445"/>
		<path class="st1" d="M23.081,11.155c0.257-0.091,0.58,0.182,0.729,0.605c0.149,0.431,0.066,0.845-0.191,0.937
			c-0.257,0.083-0.588-0.182-0.738-0.613C22.733,11.66,22.824,11.246,23.081,11.155z"/>
		<path class="st1" d="M11.656,12.694c-0.257,0.091-0.58-0.182-0.729-0.605c-0.149-0.431-0.066-0.845,0.191-0.937
			c0.257-0.083,0.589,0.182,0.738,0.613C12.004,12.189,11.913,12.603,11.656,12.694z"/>
	</g>
	<path class="st3" d="M15.917,19.192c-5.958-0.029-7.085,4.669-6.521,4.87c0.444,0.293,2.315-2.447,6.521-2.34
		c4.205-0.106,6.077,2.634,6.521,2.34C23.002,23.861,21.875,19.162,15.917,19.192z"/>
</g>
</svg>
