<?xml version="1.0" encoding="utf-8"?>
<!-- Generator: Adobe Illustrator 21.1.0, SVG Export Plug-In . SVG Version: 6.00 Build 0)  -->
<svg version="1.1" id="Layer_1" xmlns="http://www.w3.org/2000/svg" xmlns:xlink="http://www.w3.org/1999/xlink" x="0px" y="0px"
	 viewBox="0 0 32 32" style="enable-background:new 0 0 32 32;" xml:space="preserve">
<style type="text/css">
	.st0{fill:#FFD93B;}
	.st1{fill:#FFFFFF;}
	.st2{fill:#89664C;}
	.st3{fill:#3E4347;}
	.st4{fill:#E24B4B;}
	.st5{fill:#F29A2E;}
	.st6{fill:#5A5F63;}
	.st7{fill:#E18823;}
	.st8{fill:#65B1EF;}
	.st9{fill:#D03F3F;}
	.st10{opacity:0.2;}
	.st11{fill:#DEE4E9;}
	.st12{fill:#45CBEA;}
	.st13{fill:#F4C534;}
	.st14{fill:#BF3333;}
	.st15{fill:#D23F77;}
	.st16{fill:#E84D88;}
	.st17{fill:#7A5B44;}
	.st18{fill:#6B503B;}
	.st19{opacity:0.2;fill:#FFFFFF;}
	.st20{fill:#4E99D2;}
	.st21{fill:none;}
	.st22{opacity:0.15;fill:#FFFFFF;}
	.st23{fill:#8CC63E;}
	.st24{fill:#9A795F;}
	.st25{fill:#E9EFF4;}
</style>
<g>
	<circle class="st0" cx="16" cy="16" r="16"/>
	<path class="st13" d="M32,16c0,8.84-7.165,16-16,16c-5.03,0-9.52-2.32-12.455-5.955c2.745,2.22,6.24,3.545,10.045,3.545
		c8.835,0,16-7.16,16-16c0-3.805-1.325-7.3-3.545-10.045C29.675,6.48,32,10.97,32,16z"/>
	<path class="st1" d="M4.803,12.939c0.282-2.713,3.602-5.413,6.367-5.315c2.765,0.098,4.774,2.373,4.492,5.086
		c-0.282,2.713-2.75,4.839-5.514,4.741C7.383,17.353,4.521,15.653,4.803,12.939z"/>
	<ellipse class="st3" cx="11.259" cy="12.635" rx="2.596" ry="2.599"/>
	
		<ellipse transform="matrix(0.7073 -0.707 0.707 0.7073 -4.6213 12.0786)" class="st1" cx="12.274" cy="11.619" rx="0.413" ry="0.685"/>
	<path class="st13" d="M13.432,6.769c-1.005-0.849-3.066-3.201-8.656-2.721C6.921,2.566,11.88,2.103,13.432,6.769z"/>
	<path class="st13" d="M18.031,9.833c0.776-0.961,2.276-3.562,7.386-3.566C23.418,5.144,18.927,5.171,18.031,9.833z"/>
	<path class="st3" d="M27.545,12.247c-2.425,0-6.675-0.582-8.78,1.62C19.231,11.539,24.113,10.135,27.545,12.247z"/>
	<path class="st13" d="M25.075,13.866c-1,0-2.442-0.598-5.72,0.34C20.358,13.198,23.272,12.743,25.075,13.866z"/>
	<path class="st13" d="M18.665,13.207c-0.498-1.384,0.749-3.49,1.72-3.49C19.79,10.716,19.494,10.364,18.665,13.207z"/>
	<g>
		<path class="st3" d="M23.292,20.582c-2.805,5.128-8.373,12.425-13.578,2.326c-0.187-0.377,0.125-0.785,0.54-0.701
			c2.306,0.444,8.103,1.135,12.259-2.264C22.929,19.588,23.552,20.101,23.292,20.582z"/>
	</g>
</g>
</svg>
