<?xml version="1.0" encoding="utf-8"?>
<!-- Generator: Adobe Illustrator 21.1.0, SVG Export Plug-In . SVG Version: 6.00 Build 0)  -->
<svg version="1.1" id="Layer_1" xmlns="http://www.w3.org/2000/svg" xmlns:xlink="http://www.w3.org/1999/xlink" x="0px" y="0px"
	 viewBox="0 0 32 32" style="enable-background:new 0 0 32 32;" xml:space="preserve">
<style type="text/css">
	.st0{fill:#FFD93B;}
	.st1{fill:#FFFFFF;}
	.st2{fill:#89664C;}
	.st3{fill:#3E4347;}
	.st4{fill:#E24B4B;}
	.st5{fill:#F29A2E;}
	.st6{fill:#5A5F63;}
	.st7{fill:#E18823;}
	.st8{fill:#65B1EF;}
	.st9{fill:#D03F3F;}
	.st10{opacity:0.2;}
	.st11{fill:#DEE4E9;}
	.st12{fill:#45CBEA;}
	.st13{fill:#F4C534;}
	.st14{fill:#BF3333;}
	.st15{fill:#D23F77;}
	.st16{fill:#E84D88;}
	.st17{fill:#7A5B44;}
	.st18{fill:#6B503B;}
	.st19{opacity:0.2;fill:#FFFFFF;}
	.st20{fill:#4E99D2;}
	.st21{fill:none;}
	.st22{opacity:0.15;fill:#FFFFFF;}
	.st23{fill:#8CC63E;}
	.st24{fill:#9A795F;}
	.st25{fill:#E9EFF4;}
</style>
<g>
	<g>
		<g>
			<g>
				<g>
					<circle class="st0" cx="16" cy="16" r="16"/>
				</g>
				<g>
					<path class="st13" d="M32,16c0,8.84-7.165,16-16,16c-5.03,0-9.52-2.32-12.455-5.955c2.745,2.22,6.24,3.545,10.045,3.545
						c8.835,0,16-7.16,16-16c0-3.805-1.325-7.3-3.545-10.045C29.675,6.48,32,10.97,32,16z"/>
				</g>
			</g>
		</g>
	</g>
	<g>
		<g>
			<g>
				<g>
					<path class="st3" d="M14.778,16.348c0.091,0.366-0.137,0.741-0.512,0.823c-0.264,0.106-0.726-0.09-0.823-0.503
						c-0.256-1.07-1.197-1.819-2.285-1.819c-1.097,0-2.029,0.75-2.285,1.819c-0.091,0.366-0.457,0.594-0.832,0.503
						c-0.366-0.082-0.594-0.457-0.503-0.823c0.402-1.691,1.892-2.87,3.62-2.87S14.375,14.657,14.778,16.348z"/>
					<path class="st3" d="M7.227,10.269c-0.027-0.338,0.229-0.64,0.567-0.667c3.611-0.311,6.244,1.152,6.353,1.216
						c0.293,0.174,0.402,0.549,0.229,0.841c-0.165,0.304-0.555,0.394-0.841,0.238c-0.018-0.018-2.423-1.344-5.64-1.07
						C7.556,10.863,7.254,10.607,7.227,10.269z"/>
					<path class="st3" d="M28.403,20.003c-0.526-0.443-0.802-0.622-1.02-0.76c-1.82,4.85-6.45,8.2-11.38,8.2
						c-4.93,0-9.56-3.35-11.39-8.2c-0.377,0.238-0.669,0.479-1.02,0.76c-0.477-1.337,1.657-2.819,2.88-1.75
						c0.08,0.08,0.13,0.14,0.13,0.14c0,0-1.098,0.369-1.1,0.37c1.65,4.53,5.94,7.68,10.5,7.68c4.56,0,8.85-3.15,10.5-7.68h-0.01
						c-0.836-0.295-1.1-0.37-1.1-0.37C26.459,17.111,28.959,18.587,28.403,20.003z"/>
					<path class="st3" d="M17.228,16.348c0.402-1.691,1.892-2.87,3.62-2.87s3.218,1.179,3.62,2.87
						c0.082,0.366-0.146,0.741-0.512,0.823c-0.294,0.098-0.729-0.102-0.823-0.503c-0.256-1.07-1.198-1.819-2.285-1.819
						c-1.097,0-2.039,0.75-2.295,1.819c-0.082,0.366-0.457,0.594-0.823,0.503C17.365,17.089,17.136,16.714,17.228,16.348z"/>
					<path class="st3" d="M17.621,11.659c-0.165-0.292-0.064-0.667,0.228-0.841c0.11-0.064,2.743-1.527,6.363-1.216
						c0.338,0.027,0.585,0.329,0.558,0.667c-0.027,0.338-0.329,0.594-0.667,0.557c-3.218-0.274-5.622,1.051-5.64,1.07
						C18.182,12.049,17.788,11.965,17.621,11.659z"/>
				</g>
			</g>
		</g>
	</g>
</g>
</svg>
