<?xml version="1.0" encoding="utf-8"?>
<!-- Generator: Adobe Illustrator 21.1.0, SVG Export Plug-In . SVG Version: 6.00 Build 0)  -->
<svg version="1.1" id="Layer_1" xmlns="http://www.w3.org/2000/svg" xmlns:xlink="http://www.w3.org/1999/xlink" x="0px" y="0px"
	 viewBox="0 0 32 32" style="enable-background:new 0 0 32 32;" xml:space="preserve">
<style type="text/css">
	.st0{fill:#FFD93B;}
	.st1{fill:#FFFFFF;}
	.st2{fill:#89664C;}
	.st3{fill:#3E4347;}
	.st4{fill:#E24B4B;}
	.st5{fill:#F29A2E;}
	.st6{fill:#5A5F63;}
	.st7{fill:#E18823;}
	.st8{fill:#65B1EF;}
	.st9{fill:#D03F3F;}
	.st10{opacity:0.2;}
	.st11{fill:#DEE4E9;}
	.st12{fill:#45CBEA;}
	.st13{fill:#F4C534;}
	.st14{fill:#BF3333;}
	.st15{fill:#D23F77;}
	.st16{fill:#E84D88;}
	.st17{fill:#7A5B44;}
	.st18{fill:#6B503B;}
	.st19{opacity:0.2;fill:#FFFFFF;}
	.st20{fill:#4E99D2;}
	.st21{fill:none;}
	.st22{opacity:0.15;fill:#FFFFFF;}
	.st23{fill:#8CC63E;}
	.st24{fill:#9A795F;}
	.st25{fill:#E9EFF4;}
</style>
<g>
	<g>
		<g>
			<g>
				<circle class="st0" cx="16" cy="16" r="16"/>
			</g>
			<g>
				<path class="st13" d="M32,16c0,8.84-7.165,16-16,16c-5.03,0-9.52-2.32-12.455-5.955c2.745,2.22,6.24,3.545,10.045,3.545
					c8.835,0,16-7.16,16-16c0-3.805-1.325-7.3-3.545-10.045C29.675,6.48,32,10.97,32,16z"/>
			</g>
		</g>
	</g>
	<g>
		<g>
			<g>
				<g>
					<g>
						<g>
							<path class="st3" d="M25.25,14.001c-2.037-3.224-5.468-2.58-5.614-2.553c-0.333,0.066-0.66-0.149-0.728-0.483
								c-0.068-0.334,0.146-0.66,0.48-0.729c0.044-0.009,4.403-0.858,6.908,3.104c0.183,0.289,0.096,0.671-0.192,0.854
								C25.816,14.375,25.434,14.29,25.25,14.001z"/>
						</g>
					</g>
				</g>
				<g>
					<g>
						<g>
							<path class="st3" d="M5.896,14.049c-0.289-0.183-0.375-0.564-0.192-0.854c2.504-3.961,6.862-3.113,6.908-3.104
								c0.335,0.069,0.55,0.396,0.481,0.731c-0.069,0.334-0.395,0.552-0.729,0.481l0,0c-0.145-0.028-3.576-0.671-5.614,2.553
								C6.566,14.146,6.184,14.231,5.896,14.049z"/>
						</g>
					</g>
				</g>
			</g>
			<g>
				<path class="st3" d="M19.923,27.112c-2.604-0.743-5.276-0.733-8.018,0.02c-0.525,0.139-0.97-0.386-0.782-0.891
					c0.742-1.93,2.594-3.316,4.791-3.316c2.188,0,4.049,1.376,4.791,3.296C20.893,26.726,20.438,27.26,19.923,27.112z"/>
			</g>
		</g>
		<g>
			<g>
				<g>
					<g>
						<g>
							<ellipse class="st1" cx="20.748" cy="17.419" rx="3.832" ry="4.298"/>
						</g>
					</g>
				</g>
				<g>
					<g>
						<circle class="st3" cx="20.748" cy="18.577" r="1.866"/>
					</g>
					<g>
						
							<ellipse transform="matrix(0.7071 -0.7071 0.7071 0.7071 -6.3973 20.3847)" class="st1" cx="21.41" cy="17.915" rx="0.38" ry="0.586"/>
					</g>
				</g>
			</g>
			<g>
				<g>
					<g>
						<g>
							<ellipse class="st1" cx="11.094" cy="17.419" rx="3.832" ry="4.298"/>
						</g>
					</g>
				</g>
				<g>
					<g>
						<circle class="st3" cx="11.094" cy="18.577" r="1.866"/>
					</g>
					<g>
						
							<ellipse transform="matrix(0.7071 -0.7071 0.7071 0.7071 -9.2245 13.5587)" class="st1" cx="11.756" cy="17.915" rx="0.38" ry="0.586"/>
					</g>
				</g>
			</g>
		</g>
	</g>
	<g>
		<g>
			<path class="st25" d="M26.922,4.686c-0.211,0.087-0.422,0.173-0.634,0.26c0.206,0.056,0.412,0.112,0.619,0.172
				c-0.31,0.014-0.62,0.029-0.931,0.043c0.305,0.093,0.611,0.189,0.917,0.288c-0.164,0.128-0.327,0.254-0.49,0.38
				c0.162,0.03,0.324,0.063,0.486,0.094c-0.068,0.067-0.136,0.133-0.204,0.2c0.069,0.036,0.138,0.072,0.206,0.108
				c-0.326,0.108-0.651,0.21-0.974,0.31c0.001-0.002,0.924,0.204,0.989,0.276c0.065,0.073-0.613,0.193-0.613,0.191
				c0.212,0.101,0.424,0.203,0.633,0.302c-3.274-0.197-6.813-0.18-10.066,0.062c0.364-0.144,0.736-0.292,1.109-0.436
				c-0.367,0.016-0.732,0.031-1.094,0.043c0.234-0.088,0.471-0.176,0.708-0.263c-0.232-0.059-0.463-0.122-0.695-0.186
				c0-0.004,0-0.008,0-0.012c0.344-0.008,0.689-0.015,1.034-0.025c-0.342-0.101-0.685-0.207-1.029-0.318
				c0.184-0.129,0.367-0.256,0.549-0.38c-0.183-0.037-0.366-0.074-0.549-0.112c0.078-0.069,0.155-0.138,0.233-0.206
				c-0.079-0.042-0.158-0.084-0.237-0.126c0.365-0.1,0.729-0.196,1.094-0.286c0,0.002-1.038-0.248-1.11-0.324
				c-0.068-0.078,0.69-0.177,0.691-0.175c-0.239-0.117-0.478-0.235-0.712-0.352c3.266,0.257,6.805,0.273,10.091,0.061
				c-0.33,0.153-0.666,0.311-1.001,0.466C26.27,4.721,26.596,4.702,26.922,4.686z"/>
		</g>
		<g>
			<path class="st1" d="M26.298,8.771c-0.197-0.093-0.402-0.194-0.611-0.298c0.127,0.191,0.251,0.376,0.371,0.551
				c-0.233-0.202-0.48-0.423-0.729-0.649c0.184,0.29,0.369,0.574,0.542,0.834c-0.19-0.034-0.386-0.073-0.586-0.114
				c0.11,0.132,0.218,0.26,0.323,0.381c-0.089-0.006-0.18-0.013-0.271-0.02c0.033,0.065,0.065,0.13,0.097,0.193
				c-0.313-0.145-0.645-0.311-0.98-0.482c0.002,0.01,0.637,0.752,0.637,0.817c0.014,0.089-0.627-0.284-0.631-0.289
				c0.111,0.201,0.221,0.397,0.325,0.581c-2.926-2.333-4.896-4.562-7.536-7.314c0.334,0.195,0.691,0.411,1.051,0.624
				c-0.286-0.294-0.573-0.587-0.838-0.857c0.212,0.126,0.435,0.259,0.662,0.397c-0.145-0.224-0.288-0.444-0.422-0.652
				c0.002-0.003,0.004-0.005,0.006-0.007c0.252,0.249,0.525,0.519,0.797,0.792c-0.209-0.34-0.421-0.674-0.615-0.982
				c0.202,0.059,0.411,0.124,0.625,0.191c-0.124-0.159-0.246-0.312-0.363-0.459c0.096,0.017,0.193,0.034,0.292,0.052
				c-0.038-0.078-0.076-0.155-0.113-0.232c0.336,0.194,0.697,0.414,1.059,0.634c-0.002-0.007-0.715-0.896-0.718-0.966
				c-0.017-0.091,0.68,0.379,0.685,0.386c-0.128-0.235-0.255-0.464-0.374-0.68c2.926,2.494,4.906,4.721,7.548,7.314
				c-0.318-0.139-0.655-0.293-0.995-0.449C25.796,8.314,26.055,8.553,26.298,8.771z"/>
		</g>
	</g>
</g>
</svg>
