<?xml version="1.0" encoding="utf-8"?>
<!-- Generator: Adobe Illustrator 21.1.0, SVG Export Plug-In . SVG Version: 6.00 Build 0)  -->
<svg version="1.1" id="Layer_1" xmlns="http://www.w3.org/2000/svg" xmlns:xlink="http://www.w3.org/1999/xlink" x="0px" y="0px"
	 viewBox="0 0 32 32" style="enable-background:new 0 0 32 32;" xml:space="preserve">
<style type="text/css">
	.st0{fill:#FFD93B;}
	.st1{fill:#FFFFFF;}
	.st2{fill:#89664C;}
	.st3{fill:#3E4347;}
	.st4{fill:#E24B4B;}
	.st5{fill:#F29A2E;}
	.st6{fill:#5A5F63;}
	.st7{fill:#E18823;}
	.st8{fill:#65B1EF;}
	.st9{fill:#D03F3F;}
	.st10{opacity:0.2;}
	.st11{fill:#DEE4E9;}
	.st12{fill:#45CBEA;}
	.st13{fill:#F4C534;}
	.st14{fill:#BF3333;}
	.st15{fill:#D23F77;}
	.st16{fill:#E84D88;}
	.st17{fill:#7A5B44;}
	.st18{fill:#6B503B;}
	.st19{opacity:0.2;fill:#FFFFFF;}
	.st20{fill:#4E99D2;}
	.st21{fill:none;}
	.st22{opacity:0.15;fill:#FFFFFF;}
	.st23{fill:#8CC63E;}
	.st24{fill:#9A795F;}
	.st25{fill:#E9EFF4;}
</style>
<g>
	<g>
		<g>
			<circle class="st0" cx="16" cy="16" r="16"/>
		</g>
		<g>
			<path class="st13" d="M32,16c0,8.84-7.165,16-16,16c-5.03,0-9.52-2.32-12.455-5.955c2.745,2.22,6.24,3.545,10.045,3.545
				c8.835,0,16-7.16,16-16c0-3.805-1.325-7.3-3.545-10.045C29.675,6.48,32,10.97,32,16z"/>
		</g>
	</g>
	<g>
		<g>
			<path class="st3" d="M16.775,24.417c-0.903-0.881-1.381-0.791-1.875-0.507c-1.307,0.747-2.543,0.278-3.368-1.047
				c-0.524-0.838-0.902-0.847-1.759-0.382c-0.477,0.259-1.068,0.58-1.991,0.516c-0.331-0.024-0.579-0.311-0.556-0.642
				c0.024-0.33,0.3-0.579,0.642-0.556c1.252,0.092,1.716-1.08,3.219-0.768c0.858,0.227,1.194,0.765,1.463,1.197
				c0.443,0.71,0.967,1.089,1.754,0.64c1.265-0.723,2.316-0.276,3.308,0.689c0.75,0.731,1.402,0.964,2.117,0.113
				c0.829-0.987,1.823-1.354,3.062-1.067c0.41,0.096,0.58,0.134,0.986-0.226c0.248-0.22,0.627-0.196,0.847,0.05
				c0.22,0.248,0.197,0.627-0.05,0.847c-0.871,0.772-1.555,0.612-2.053,0.498c-0.813-0.187-1.358,0.058-1.873,0.669
				C19.495,25.816,18.034,25.643,16.775,24.417z"/>
		</g>
	</g>
	<g>
		<g>
			<g>
				<g>
					<ellipse class="st1" cx="9.828" cy="12.913" rx="5.024" ry="5.56"/>
				</g>
			</g>
			<g>
				<g>
					<g>
						<path class="st3" d="M10.019,17.053c-1.234,0-2.241-1.007-2.241-2.241c0-1.243,1.007-2.25,2.241-2.25
							c1.243,0,2.25,1.007,2.25,2.25C12.269,16.046,11.262,17.053,10.019,17.053z"/>
					</g>
				</g>
				<g>
					<g>
						
							<ellipse transform="matrix(0.7071 -0.7071 0.7071 0.7071 -7.8841 12.2641)" class="st1" cx="10.862" cy="15.649" rx="0.67" ry="0.391"/>
					</g>
				</g>
			</g>
		</g>
		<g>
			<g>
				<g>
					<ellipse class="st1" cx="22.172" cy="12.913" rx="5.024" ry="5.56"/>
				</g>
			</g>
			<g>
				<g>
					<g>
						<circle class="st3" cx="21.586" cy="11.17" r="2.245"/>
					</g>
				</g>
				<g>
					<g>
						
							<ellipse transform="matrix(0.7071 -0.7071 0.7071 0.7071 -0.7378 18.8848)" class="st1" cx="22.427" cy="10.333" rx="0.391" ry="0.67"/>
					</g>
				</g>
			</g>
		</g>
	</g>
</g>
</svg>
