<?xml version="1.0" encoding="utf-8"?>
<!-- Generator: Adobe Illustrator 21.1.0, SVG Export Plug-In . SVG Version: 6.00 Build 0)  -->
<svg version="1.1" id="Layer_1" xmlns="http://www.w3.org/2000/svg" xmlns:xlink="http://www.w3.org/1999/xlink" x="0px" y="0px"
	 viewBox="0 0 32 32" style="enable-background:new 0 0 32 32;" xml:space="preserve">
<style type="text/css">
	.st0{fill:#FFD93B;}
	.st1{fill:#3E4347;}
	.st2{fill:#F4C534;}
	.st3{fill:#38C0DC;}
	.st4{fill:#45CBEA;}
	.st5{fill:#FFFFFF;}
	.st6{fill:#E24B4B;}
	.st7{fill:#5A5F63;}
	.st8{opacity:0.3;}
	.st9{opacity:0.2;}
	.st10{opacity:0.1;}
	.st11{fill:#E9B02C;}
	.st12{fill:#65B1EF;}
	.st13{fill:#E9EFF4;}
	.st14{fill:#8CC63E;}
	.st15{fill:#7FB239;}
	.st16{fill:#D03F3F;}
	.st17{fill:#D23F77;}
	.st18{fill:#E84D88;}
	.st19{fill:#59A5E0;}
	.st20{fill:#DEE4E9;}
	.st21{fill:#D3D9DD;}
	.st22{opacity:0.25;fill:#FFFFFF;}
	.st23{fill:#9A795F;}
	.st24{fill:#F29A2E;}
	.st25{fill:#FC97B2;}
	.st26{fill:#89664C;}
	.st27{fill:#7A5B44;}
	.st28{opacity:0.2;fill:#FFFFFF;}
	.st29{fill:#4E99D2;}
	.st30{fill:#BBC7D1;}
	.st31{fill:#DE9C25;}
</style>
<g>
	<circle class="st0" cx="15.999" cy="15.999" r="16"/>
	<path class="st2" d="M31.999,15.999c0,8.84-7.165,16-16,16c-5.03,0-9.52-2.32-12.455-5.955c2.745,2.22,6.24,3.545,10.045,3.545
		c8.835,0,16-7.16,16-16c0-3.805-1.325-7.3-3.545-10.045C29.674,6.479,31.999,10.969,31.999,15.999z"/>
	<path class="st6" d="M32.001,25.426c0,3.628-2.947,6.575-6.575,6.575c-3.637,0-6.584-2.947-6.584-6.575
		c0-3.637,2.947-6.584,6.584-6.584C29.054,18.842,32.001,21.789,32.001,25.426z"/>
	<circle class="st5" cx="25.423" cy="25.423" r="5.246"/>
	<path class="st12" d="M25.791,26.036v-4.045c0-0.202-0.168-0.37-0.37-0.37c-0.202,0-0.37,0.168-0.37,0.37v4.045H25.791z"/>
	<path class="st2" d="M27.213,27.642l-2.221-2.221c-0.117-0.117-0.117-0.313,0-0.43c0.117-0.117,0.313-0.117,0.43,0l2.221,2.221
		c0.117,0.117,0.117,0.313,0,0.43S27.33,27.76,27.213,27.642z"/>
	<path class="st1" d="M26.525,25.426c0,0.6-0.499,1.099-1.099,1.099c-0.609,0-1.108-0.499-1.108-1.099
		c0-0.609,0.498-1.108,1.108-1.108C26.026,24.318,26.525,24.817,26.525,25.426z"/>
	<circle class="st7" cx="25.422" cy="25.422" r="0.43"/>
	<path class="st1" d="M15.753,24.189c0,2.291-1.681,4.157-3.742,4.157c-2.073,0-3.742-1.865-3.742-4.157s1.67-4.145,3.742-4.145
		C14.072,20.043,15.753,21.897,15.753,24.189z"/>
	<path class="st5" d="M17.187,12.051c0,2.99,2.214,5.42,4.948,5.42s4.957-2.43,4.957-5.42c0-2.99-3-7.08-5.735-7.08
		S17.187,9.061,17.187,12.051z"/>
	<path class="st1" d="M18.682,12.865c0,1.425,1.149,2.593,2.593,2.593c1.434,0,2.593-1.168,2.593-2.593
		c0-1.434-1.159-2.593-2.593-2.593C19.831,10.271,18.682,11.43,18.682,12.865z"/>
	
		<ellipse transform="matrix(0.7071 -0.7071 0.7071 0.7071 -2.484 17.8903)" class="st5" cx="20.354" cy="11.944" rx="0.794" ry="0.488"/>
	<path class="st5" d="M14.813,12.051c0,2.99-2.214,5.42-4.948,5.42s-4.957-2.43-4.957-5.42c0-2.99,3-7.08,5.735-7.08
		S14.813,9.061,14.813,12.051z"/>
	<path class="st1" d="M13.318,12.865c0,1.425-1.149,2.593-2.593,2.593c-1.434,0-2.593-1.168-2.593-2.593
		c0-1.434,1.159-2.593,2.593-2.593C12.169,10.271,13.318,11.43,13.318,12.865z"/>
	
		<ellipse transform="matrix(0.7071 -0.7071 0.7071 0.7071 -5.0345 11.7334)" class="st5" cx="11.646" cy="11.944" rx="0.488" ry="0.794"/>
</g>
</svg>
