<?xml version="1.0" encoding="utf-8"?>
<!-- Generator: Adobe Illustrator 21.1.0, SVG Export Plug-In . SVG Version: 6.00 Build 0)  -->
<svg version="1.1" id="Layer_1" xmlns="http://www.w3.org/2000/svg" xmlns:xlink="http://www.w3.org/1999/xlink" x="0px" y="0px"
	 viewBox="0 0 32 32" style="enable-background:new 0 0 32 32;" xml:space="preserve">
<style type="text/css">
	.st0{fill:#FFD93B;}
	.st1{fill:#FFFFFF;}
	.st2{fill:#89664C;}
	.st3{fill:#3E4347;}
	.st4{fill:#E24B4B;}
	.st5{fill:#F29A2E;}
	.st6{fill:#5A5F63;}
	.st7{fill:#E18823;}
	.st8{fill:#65B1EF;}
	.st9{fill:#D03F3F;}
	.st10{opacity:0.2;}
	.st11{fill:#DEE4E9;}
	.st12{fill:#45CBEA;}
	.st13{fill:#F4C534;}
	.st14{fill:#BF3333;}
	.st15{fill:#D23F77;}
	.st16{fill:#E84D88;}
	.st17{fill:#7A5B44;}
	.st18{fill:#6B503B;}
	.st19{opacity:0.2;fill:#FFFFFF;}
	.st20{fill:#4E99D2;}
	.st21{fill:none;}
	.st22{opacity:0.15;fill:#FFFFFF;}
	.st23{fill:#8CC63E;}
	.st24{fill:#9A795F;}
	.st25{fill:#E9EFF4;}
</style>
<g>
	<circle class="st0" cx="16" cy="16" r="16"/>
	<path class="st13" d="M32,16c0,8.84-7.165,16-16,16c-5.03,0-9.52-2.32-12.455-5.955c2.745,2.22,6.24,3.545,10.045,3.545
		c8.835,0,16-7.16,16-16c0-3.805-1.325-7.3-3.545-10.045C29.675,6.48,32,10.97,32,16z"/>
	<path class="st3" d="M15.484,28.233c-7.68,0-12.402-5.321-9.815-9.914c0.362-0.637,0.952-0.879,1.457-0.691
		c5.524,1.955,11.182,1.955,16.706,0c0.505-0.188,1.095,0.054,1.457,0.691C27.876,22.912,23.154,28.233,15.484,28.233z"/>
	<path class="st4" d="M23.034,25.667c-0.056-0.139-0.107-0.28-0.17-0.415c-1.271-2.76-4.357-3.904-6.937-2.744
		c-1.075,0.485-2.26,0.72-3.464,0.64c-1.334-0.086-2.671,0.594-3.3,1.885c-0.1,0.203-0.177,0.42-0.261,0.634
		C13.276,27.27,18.049,27.228,23.034,25.667z"/>
	<path class="st1" d="M5.616,18.434c1.213,2.364,5.153,3.114,9.864,3.114c4.71,0,8.651-0.75,9.864-3.114
		c-0.02-0.038-0.032-0.077-0.053-0.115c-0.362-0.637-0.952-0.879-1.457-0.691c-5.524,1.955-11.183,1.955-16.706,0
		c-0.505-0.188-1.095,0.054-1.457,0.691C5.647,18.357,5.636,18.395,5.616,18.434z"/>
	<path class="st1" d="M15.479,25.56c-3.971,0-9.278-1.218-9.278-1.218s0.033,0.052,0.083,0.13c1.725,2.179,5.018,3.761,9.199,3.761
		c4.176,0,7.466-1.583,9.19-3.761c0.05-0.078,0.083-0.13,0.083-0.13S19.451,25.56,15.479,25.56z"/>
	<path class="st3" d="M13.247,7.157c-1.553-0.625-4.14,0.339-6.311,5.518c-0.149,0.355-0.697,0.191-0.615-0.191
		c0.956-4.357,3.21-11.31,7.335-6.201C13.944,6.638,13.653,7.32,13.247,7.157z"/>
	<path class="st3" d="M18.753,7.157c1.715-0.393,4.226,0.58,6.31,5.518c0.149,0.354,0.697,0.191,0.615-0.191
		c-0.956-4.357-3.21-11.31-7.335-6.201C18.056,6.638,18.326,7.255,18.753,7.157z"/>
</g>
</svg>
