<?xml version="1.0" encoding="utf-8"?>
<!-- Generator: Adobe Illustrator 21.1.0, SVG Export Plug-In . SVG Version: 6.00 Build 0)  -->
<svg version="1.1" id="Layer_1" xmlns="http://www.w3.org/2000/svg" xmlns:xlink="http://www.w3.org/1999/xlink" x="0px" y="0px"
	 viewBox="0 0 32 32" style="enable-background:new 0 0 32 32;" xml:space="preserve">
<style type="text/css">
	.st0{fill:#FFD93B;}
	.st1{fill:#FFFFFF;}
	.st2{fill:#89664C;}
	.st3{fill:#3E4347;}
	.st4{fill:#E24B4B;}
	.st5{fill:#F29A2E;}
	.st6{fill:#5A5F63;}
	.st7{fill:#E18823;}
	.st8{fill:#65B1EF;}
	.st9{fill:#D03F3F;}
	.st10{opacity:0.2;}
	.st11{fill:#DEE4E9;}
	.st12{fill:#45CBEA;}
	.st13{fill:#F4C534;}
	.st14{fill:#BF3333;}
	.st15{fill:#D23F77;}
	.st16{fill:#E84D88;}
	.st17{fill:#7A5B44;}
	.st18{fill:#6B503B;}
	.st19{opacity:0.2;fill:#FFFFFF;}
	.st20{fill:#4E99D2;}
	.st21{fill:none;}
	.st22{opacity:0.15;fill:#FFFFFF;}
	.st23{fill:#8CC63E;}
	.st24{fill:#9A795F;}
	.st25{fill:#E9EFF4;}
</style>
<g>
	<circle class="st0" cx="16" cy="16" r="16"/>
	<path class="st13" d="M32,16c0,8.84-7.165,16-16,16c-5.03,0-9.52-2.32-12.455-5.955c2.745,2.22,6.24,3.545,10.045,3.545
		c8.835,0,16-7.16,16-16c0-3.805-1.325-7.3-3.545-10.045C29.675,6.48,32,10.97,32,16z"/>
	<path class="st3" d="M22.249,26.738c-0.145,0.133-0.36,0.148-0.511,0.035l-0.01,0.001c-1.582-1.197-3.905-2.877-6.942-2.515
		c-0.744,0.092-1.651,0.349-2.555,1.099c-0.613,0.494-1.493,0.4-1.986-0.203c-1.096-1.312,0.431-2.865,3.458-3.061
		c3.733-0.244,6.27,1.565,8.568,4.069C22.427,26.326,22.414,26.583,22.249,26.738z"/>
	<path class="st1" d="M27.103,15.144c0,3.099-2.209,5.609-4.938,5.609c-2.729,0-4.938-2.509-4.938-5.609
		c0-3.099,2.209-5.62,4.938-5.62C24.894,9.524,27.103,12.045,27.103,15.144z"/>
	<g>
		<path class="st3" d="M24.75,16.663c0,1.42-1.15,2.58-2.58,2.58s-2.59-1.16-2.59-2.58c0-1.43,1.16-2.59,2.59-2.59
			S24.75,15.233,24.75,16.663z"/>
	</g>
	<g>
		
			<ellipse transform="matrix(0.7071 -0.7071 0.7071 0.7071 -4.313 20.9526)" class="st1" cx="23.136" cy="15.683" rx="0.42" ry="0.765"/>
	</g>
	<path class="st1" d="M4.897,15.144c0,3.099,2.209,5.609,4.938,5.609c2.729,0,4.938-2.509,4.938-5.609
		c0-3.099-2.209-5.62-4.938-5.62C7.106,9.524,4.897,12.045,4.897,15.144z"/>
	<g>
		<path class="st3" d="M7.25,16.663c0,1.42,1.15,2.58,2.58,2.58s2.59-1.16,2.59-2.58c0-1.43-1.16-2.59-2.59-2.59
			S7.25,15.233,7.25,16.663z"/>
	</g>
	<g>
		
			<ellipse transform="matrix(0.7071 -0.7071 0.7071 0.7071 -8.4929 10.8614)" class="st1" cx="8.864" cy="15.683" rx="0.765" ry="0.42"/>
	</g>
	<path class="st3" d="M26.103,7.686c-5.142,2.351-6.43,3.904-7.43,4.76c-0.21,0.19-0.54,0.17-0.73-0.04
		c-0.588-0.672,0.541-3.216,1.26-4c-0.205,0.808-0.336,1.472-0.39,2.29C21.383,8.422,24.011,7.578,26.103,7.686z"/>
	<path class="st3" d="M14.183,12.116c-0.03,0.28-0.28,0.49-0.56,0.46c-0.12-0.01-0.22-0.06-0.3-0.13
		c-0.497-0.425-1.157-1.076-1.7-1.47c-1.717-1.326-3.762-2.39-5.73-3.29c2.562-0.131,5.49,1.389,6.49,2.32
		c0.28,0.21,0.55,0.45,0.8,0.69c-0.036-0.543-0.06-0.946-0.38-2.29C13.81,9.53,14.27,11.116,14.183,12.116z"/>
</g>
</svg>
