<?xml version="1.0" encoding="utf-8"?>
<!-- Generator: Adobe Illustrator 21.1.0, SVG Export Plug-In . SVG Version: 6.00 Build 0)  -->
<svg version="1.1" id="Layer_1" xmlns="http://www.w3.org/2000/svg" xmlns:xlink="http://www.w3.org/1999/xlink" x="0px" y="0px"
	 viewBox="0 0 32 32" style="enable-background:new 0 0 32 32;" xml:space="preserve">
<style type="text/css">
	.st0{fill:#FFD93B;}
	.st1{fill:#FFFFFF;}
	.st2{fill:#89664C;}
	.st3{fill:#3E4347;}
	.st4{fill:#E24B4B;}
	.st5{fill:#F29A2E;}
	.st6{fill:#5A5F63;}
	.st7{fill:#E18823;}
	.st8{fill:#65B1EF;}
	.st9{fill:#D03F3F;}
	.st10{opacity:0.2;}
	.st11{fill:#DEE4E9;}
	.st12{fill:#45CBEA;}
	.st13{fill:#F4C534;}
	.st14{fill:#BF3333;}
	.st15{fill:#D23F77;}
	.st16{fill:#E84D88;}
	.st17{fill:#7A5B44;}
	.st18{fill:#6B503B;}
	.st19{opacity:0.2;fill:#FFFFFF;}
	.st20{fill:#4E99D2;}
	.st21{fill:none;}
	.st22{opacity:0.15;fill:#FFFFFF;}
	.st23{fill:#8CC63E;}
	.st24{fill:#9A795F;}
	.st25{fill:#E9EFF4;}
</style>
<g>
	<circle class="st0" cx="16" cy="16" r="16"/>
	<path class="st13" d="M32,16c0,8.84-7.165,16-16,16c-5.03,0-9.52-2.32-12.455-5.955c2.745,2.22,6.24,3.545,10.045,3.545
		c8.835,0,16-7.16,16-16c0-3.805-1.325-7.3-3.545-10.045C29.675,6.48,32,10.97,32,16z"/>
	<path class="st1" d="M15.044,13.418c-0.53,2.765-3.395,4.83-6.4,4.604c-3.016-0.227-5.02-2.659-4.49-5.424
		c0.531-2.774,3.395-4.83,6.41-4.603C13.569,8.221,15.575,10.644,15.044,13.418z"/>
	<circle class="st3" cx="10.949" cy="12.651" r="2.483"/>
	
		<ellipse transform="matrix(0.7071 -0.7071 0.7071 0.7071 -4.8499 11.8161)" class="st1" cx="11.838" cy="11.762" rx="0.495" ry="0.802"/>
	<path class="st1" d="M16.956,13.418c0.53,2.765,3.395,4.83,6.4,4.604c3.016-0.227,5.02-2.659,4.49-5.424
		c-0.531-2.774-3.395-4.83-6.41-4.603C18.431,8.221,16.425,10.644,16.956,13.418z"/>
	<circle class="st3" cx="21.05" cy="12.651" r="2.483"/>
	
		<ellipse transform="matrix(0.7071 -0.7071 0.7071 0.7071 -1.8917 18.9575)" class="st1" cx="21.939" cy="11.762" rx="0.495" ry="0.802"/>
	<path class="st3" d="M18.288,6.478c0,0,5.223-1.667,9.76,2.132C26.763,4.632,23.509,3.922,18.288,6.478z"/>
	<path class="st3" d="M14.479,2.498c0,0-5.223-1.667-9.76,2.132C6.005,0.653,9.258-0.058,14.479,2.498z"/>
	<path class="st3" d="M14.139,15.439c0,1.874-1.221,4.791-1.97,6.52c-3.072,0-7.114-0.52-9.67-1.03
		c-0.302-2.056-0.119-4.972,0.13-7.09C7.111,14.519,9.376,14.911,14.139,15.439z"/>
	<path class="st3" d="M17.861,15.439c0,1.874,1.221,4.791,1.97,6.52c3.072,0,7.114-0.52,9.67-1.03
		c0.302-2.056,0.119-4.972-0.13-7.09C24.889,14.519,22.624,14.911,17.861,15.439z"/>
	<path class="st6" d="M7.183,14.535l-4.82,4.82c0.016,0.39,0.046,0.761,0.085,1.119l5.784-5.784
		C7.883,14.639,7.535,14.587,7.183,14.535z"/>
	<path class="st6" d="M11.023,15.07c-0.795-0.101-1.533-0.201-2.254-0.303L2.59,20.946c0.649,0.128,1.388,0.256,2.182,0.376
		L11.023,15.07z"/>
	<path class="st6" d="M21.844,14.957l-3.404,3.404c0.096,0.301,0.197,0.6,0.305,0.899l4.494-4.494
		C22.784,14.829,22.323,14.893,21.844,14.957z"/>
	<path class="st6" d="M26.969,14.207c-1.072,0.165-2.042,0.313-3.013,0.455l-5.048,5.048c0.249,0.658,0.505,1.276,0.738,1.82
		L26.969,14.207z"/>
	<path class="st4" d="M30.621,13.369c-0.524-1.117-0.804-1.202-9.89,0.221c-1.563,0.245-3.149,0.369-4.731,0.369l0,0
		c-1.582,0-3.168-0.124-4.731-0.369c-9.085-1.424-9.366-1.338-9.89-0.221c-0.351,0.807-0.278,5.179-0.22,6.06
		c0.199,3.022-0.441,2.906,10.81,3.59c0.54-0.01,1.01-0.32,1.25-0.79c0.497-0.948,0.925-1.948,1.288-2.944
		c0.227-0.621,0.831-1.024,1.493-1.024l0,0c0.662,0,1.266,0.403,1.493,1.024c0.363,0.996,0.792,1.996,1.288,2.944
		c0.24,0.47,0.71,0.78,1.25,0.79c11.251-0.684,10.611-0.567,10.81-3.59C30.899,18.548,30.972,14.176,30.621,13.369z M12.068,21.683
		c-2.946,0-7.429-0.616-9.465-1.01c-0.239-1.437-0.054-4.888,0.138-6.488c1.548,0.238,6.956,1.109,11.241,1.574
		C13.983,16.88,12.707,20.247,12.068,21.683z M29.397,20.673c-2.037,0.395-6.519,1.01-9.465,1.01
		c-0.639-1.436-1.914-4.803-1.914-5.924c4.286-0.465,9.694-1.336,11.242-1.574C29.451,15.785,29.636,19.236,29.397,20.673z"/>
	<path class="st3" d="M11.017,27.64c-0.148-0.043-0.094-0.406,0.064-0.397c2.264,0.057,6.442-0.328,9.878-3.41
		c0.249-0.223,0.518-0.019,0.507,0.39C21.417,26.154,20.34,30.585,11.017,27.64z"/>
</g>
</svg>
