<?xml version="1.0" encoding="utf-8"?>
<!-- Generator: Adobe Illustrator 21.1.0, SVG Export Plug-In . SVG Version: 6.00 Build 0)  -->
<svg version="1.1" id="Layer_1" xmlns="http://www.w3.org/2000/svg" xmlns:xlink="http://www.w3.org/1999/xlink" x="0px" y="0px"
	 viewBox="0 0 32 32" style="enable-background:new 0 0 32 32;" xml:space="preserve">
<style type="text/css">
	.st0{fill:#FFD93B;}
	.st1{fill:#FFFFFF;}
	.st2{fill:#89664C;}
	.st3{fill:#3E4347;}
	.st4{fill:#E24B4B;}
	.st5{fill:#F29A2E;}
	.st6{fill:#5A5F63;}
	.st7{fill:#E18823;}
	.st8{fill:#65B1EF;}
	.st9{fill:#D03F3F;}
	.st10{opacity:0.2;}
	.st11{fill:#DEE4E9;}
	.st12{fill:#45CBEA;}
	.st13{fill:#F4C534;}
	.st14{fill:#BF3333;}
	.st15{fill:#D23F77;}
	.st16{fill:#E84D88;}
	.st17{fill:#7A5B44;}
	.st18{fill:#6B503B;}
	.st19{opacity:0.2;fill:#FFFFFF;}
	.st20{fill:#4E99D2;}
	.st21{fill:none;}
	.st22{opacity:0.15;fill:#FFFFFF;}
	.st23{fill:#8CC63E;}
	.st24{fill:#9A795F;}
	.st25{fill:#E9EFF4;}
</style>
<g>
	<circle class="st0" cx="16" cy="16" r="16"/>
	<path class="st13" d="M32,16c0,8.84-7.165,16-16,16c-5.03,0-9.52-2.32-12.455-5.955c2.745,2.22,6.24,3.545,10.045,3.545
		c8.835,0,16-7.16,16-16c0-3.805-1.325-7.3-3.545-10.045C29.675,6.48,32,10.97,32,16z"/>
	<g>
		<ellipse class="st1" cx="10.139" cy="13.311" rx="5.034" ry="5.03"/>
	</g>
	<g>
		<path class="st3" d="M10.138,17.103c-2.094,0-3.797-1.7-3.797-3.79c0-2.094,1.703-3.797,3.797-3.797s3.798,1.703,3.798,3.797
			C13.936,15.403,12.233,17.103,10.138,17.103z M10.138,10.339c-1.64,0-2.974,1.334-2.974,2.974c0,1.636,1.334,2.966,2.974,2.966
			c1.64,0,2.974-1.331,2.974-2.966C13.113,11.673,11.779,10.339,10.138,10.339z"/>
	</g>
	<g>
		<path class="st3" d="M10.138,15.289c-1.093,0-1.982-0.887-1.982-1.978c0-1.093,0.889-1.982,1.982-1.982
			c1.093,0,1.982,0.889,1.982,1.982C12.121,14.402,11.232,15.289,10.138,15.289z M10.138,12.152c-0.638,0-1.158,0.52-1.158,1.159
			c0,0.636,0.52,1.155,1.158,1.155c0.639,0,1.158-0.518,1.158-1.155C11.297,12.672,10.777,12.152,10.138,12.152z"/>
	</g>
	<path class="st13" d="M12.121,4.22c-1.455,0.32-3.551,0.93-4.826,1.7c-1.544,0.74-3.133,2.6-3.957,3.308
		c0.496-1.91,1.932-3.549,3.376-4.29C8.72,3.8,11.01,3.769,12.121,4.22z"/>
	<g>
		<ellipse class="st1" cx="21.861" cy="13.311" rx="5.034" ry="5.03"/>
	</g>
	<g>
		<path class="st3" d="M18.064,13.313c0-2.094,1.704-3.797,3.798-3.797s3.797,1.703,3.797,3.797c0,2.09-1.703,3.79-3.797,3.79
			S18.064,15.403,18.064,13.313z M18.887,13.313c0,1.636,1.334,2.966,2.974,2.966c1.64,0,2.974-1.331,2.974-2.966
			c0-1.64-1.334-2.974-2.974-2.974C20.221,10.339,18.887,11.673,18.887,13.313z"/>
	</g>
	<g>
		<path class="st3" d="M19.879,13.311c0-1.093,0.889-1.982,1.982-1.982c1.093,0,1.982,0.889,1.982,1.982
			c0,1.091-0.889,1.978-1.982,1.978C20.768,15.289,19.879,14.402,19.879,13.311z M20.703,13.311c0,0.636,0.52,1.155,1.158,1.155
			c0.638,0,1.158-0.518,1.158-1.155c0-0.639-0.52-1.159-1.158-1.159C21.223,12.152,20.703,12.672,20.703,13.311z"/>
	</g>
	<path class="st13" d="M19.879,4.22c1.455,0.32,3.551,0.93,4.826,1.7c1.544,0.74,3.133,2.6,3.957,3.308
		c-0.496-1.91-1.932-3.549-3.376-4.29C23.28,3.8,20.99,3.769,19.879,4.22z"/>
	<path class="st3" d="M13.303,27.09c-2-0.635-3.23-1.224-3.97-1.712c-0.78-0.51-0.74-1.779,0.07-2.221
		c2.58-1.394,8.88-4.352,12.4-1.994C26.303,24.177,19.233,29.006,13.303,27.09z"/>
	<path class="st4" d="M13.303,27.09c2.466,0.796,5.127,0.425,7.073-0.496c-0.396-1.746-1.85-3.295-3.715-2.456
		c-1.785,0.797-3.196-0.263-4.081,1.294c-0.22,0.384-0.372,0.808-0.462,1.253C12.481,26.818,12.871,26.953,13.303,27.09z"/>
</g>
</svg>
