<?xml version="1.0" encoding="utf-8"?>
<!-- Generator: Adobe Illustrator 21.1.0, SVG Export Plug-In . SVG Version: 6.00 Build 0)  -->
<svg version="1.1" id="Layer_1" xmlns="http://www.w3.org/2000/svg" xmlns:xlink="http://www.w3.org/1999/xlink" x="0px" y="0px"
	 viewBox="0 0 32 32" style="enable-background:new 0 0 32 32;" xml:space="preserve">
<style type="text/css">
	.st0{fill:#FFD93B;}
	.st1{fill:#FFFFFF;}
	.st2{fill:#89664C;}
	.st3{fill:#3E4347;}
	.st4{fill:#E24B4B;}
	.st5{fill:#F29A2E;}
	.st6{fill:#5A5F63;}
	.st7{fill:#E18823;}
	.st8{fill:#65B1EF;}
	.st9{fill:#D03F3F;}
	.st10{opacity:0.2;}
	.st11{fill:#DEE4E9;}
	.st12{fill:#45CBEA;}
	.st13{fill:#F4C534;}
	.st14{fill:#BF3333;}
	.st15{fill:#D23F77;}
	.st16{fill:#E84D88;}
	.st17{fill:#7A5B44;}
	.st18{fill:#6B503B;}
	.st19{opacity:0.2;fill:#FFFFFF;}
	.st20{fill:#4E99D2;}
	.st21{fill:none;}
	.st22{opacity:0.15;fill:#FFFFFF;}
	.st23{fill:#8CC63E;}
	.st24{fill:#9A795F;}
	.st25{fill:#E9EFF4;}
</style>
<g>
	<circle class="st0" cx="16" cy="16" r="16"/>
	<path class="st13" d="M31.924,16c0,8.84-7.165,16-16,16c-5.03,0-9.52-2.32-12.455-5.955c2.745,2.22,6.24,3.545,10.045,3.545
		c8.835,0,16-7.16,16-16c0-3.805-1.325-7.3-3.545-10.045C29.599,6.48,31.924,10.97,31.924,16z"/>
	<path class="st1" d="M27.732,13.034c0,2.905-2.35,5.265-5.265,5.265c-2.905,0-5.265-2.36-5.265-5.265
		c0-2.915,2.36-5.275,5.265-5.275C25.382,7.759,27.732,10.119,27.732,13.034z"/>
	<path class="st3" d="M24.308,13.032c0,1.424-1.147,2.597-2.589,2.597c-1.424,0-2.589-1.173-2.589-2.597
		c0-1.433,1.164-2.607,2.589-2.607C23.161,10.426,24.308,11.599,24.308,13.032z"/>
	
		<ellipse transform="matrix(0.7071 -0.7071 0.7071 0.7071 -1.8979 19.5689)" class="st1" cx="22.671" cy="12.075" rx="0.516" ry="0.746"/>
	<path class="st1" d="M4.268,13.034c0,2.905,2.35,5.265,5.265,5.265c2.905,0,5.265-2.36,5.265-5.265c0-2.915-2.36-5.275-5.265-5.275
		C6.618,7.759,4.268,10.119,4.268,13.034z"/>
	<path class="st3" d="M12.869,13.032c0,1.424-1.146,2.597-2.589,2.597c-1.424,0-2.589-1.173-2.589-2.597
		c0-1.433,1.164-2.607,2.589-2.607C11.723,10.426,12.869,11.599,12.869,13.032z"/>
	
		<ellipse transform="matrix(0.7071 -0.7071 0.7071 0.7071 -5.2487 11.4792)" class="st1" cx="11.232" cy="12.075" rx="0.516" ry="0.746"/>
	<g>
		<path class="st25" d="M21.382,22.407c0.643-0.38-10.358,6.111-9.838,5.804c-0.584,0.345,0.106-0.062-0.283,0.167
			c0.42-0.248,0.047-0.09-0.028-0.154c-0.854,0.395-0.372-0.045-0.207-0.329c-0.241-0.045-0.668-0.01-0.281-0.472
			c-0.979,0.344-0.16-0.388-0.236-0.592c-0.07-0.208,0.287-0.667-0.202-0.612c0.357-0.444,0.102-0.511-0.315-0.452
			c-0.143-0.102-0.295-0.168-0.181-0.344c0.302-0.287-0.361,0.042-0.054-0.139c-0.213,0.126,10.736-6.334,9.902-5.842
			c0.226-0.133,0.782-0.462,0.219-0.129c0.42-0.248-0.2,0.18,0.035,0.15c-0.296,0.284-0.262,0.419,0.2,0.333
			c-0.216,0.314-0.134,0.483,0.185,0.528c0.05,0.204,0.702,0.068,0.332,0.535c0.036,0.228,0.288,0.328,0.314,0.546
			c0.381,0.009,0.383,0.225,0.204,0.517c-0.084,0.236-0.517,0.647,0.183,0.343C21.432,22.315,21.92,22.09,21.382,22.407z"/>
	</g>
	<path class="st1" d="M9.92,22.407c-0.643-0.38,10.358,6.111,9.838,5.804c0.585,0.345-0.106-0.062,0.283,0.167
		c-0.42-0.248-0.047-0.09,0.028-0.154c0.854,0.395,0.372-0.045,0.207-0.329c0.241-0.045,0.668-0.01,0.281-0.472
		c0.979,0.344,0.16-0.388,0.236-0.592c0.069-0.208-0.288-0.667,0.202-0.612c-0.357-0.444-0.102-0.511,0.315-0.452
		c0.143-0.102,0.295-0.168,0.181-0.344c-0.302-0.287,0.361,0.042,0.054-0.139c0.213,0.126-10.736-6.334-9.902-5.842
		c-0.226-0.133-0.782-0.462-0.219-0.129c-0.42-0.248,0.2,0.18-0.036,0.15c0.296,0.284,0.262,0.419-0.2,0.333
		c0.216,0.314,0.134,0.483-0.185,0.528c-0.05,0.204-0.701,0.068-0.332,0.535c-0.036,0.228-0.288,0.328-0.314,0.546
		c-0.381,0.009-0.383,0.225-0.204,0.517c0.084,0.236,0.517,0.647-0.183,0.343C9.87,22.315,9.382,22.09,9.92,22.407z"/>
	<path class="st3" d="M26.381,6.882c0.04,0.245-0.258,0.391-0.437,0.225c-1.795-1.669-4.1-2.935-6.267-3.378
		c-0.245-0.046-0.285-0.377-0.06-0.484C22.466,1.907,25.917,3.709,26.381,6.882z"/>
	<path class="st3" d="M5.619,6.882c-0.04,0.245,0.258,0.391,0.437,0.225c1.795-1.669,4.1-2.935,6.267-3.378
		c0.245-0.046,0.285-0.377,0.06-0.484C9.534,1.907,6.083,3.709,5.619,6.882z"/>
</g>
</svg>
