<?xml version="1.0" encoding="utf-8"?>
<!-- Generator: Adobe Illustrator 21.1.0, SVG Export Plug-In . SVG Version: 6.00 Build 0)  -->
<svg version="1.1" id="Layer_1" xmlns="http://www.w3.org/2000/svg" xmlns:xlink="http://www.w3.org/1999/xlink" x="0px" y="0px"
	 viewBox="0 0 32 32" style="enable-background:new 0 0 32 32;" xml:space="preserve">
<style type="text/css">
	.st0{fill:#FFD93B;}
	.st1{fill:#FFFFFF;}
	.st2{fill:#89664C;}
	.st3{fill:#3E4347;}
	.st4{fill:#E24B4B;}
	.st5{fill:#F29A2E;}
	.st6{fill:#5A5F63;}
	.st7{fill:#E18823;}
	.st8{fill:#65B1EF;}
	.st9{fill:#D03F3F;}
	.st10{opacity:0.2;}
	.st11{fill:#DEE4E9;}
	.st12{fill:#45CBEA;}
	.st13{fill:#F4C534;}
	.st14{fill:#BF3333;}
	.st15{fill:#D23F77;}
	.st16{fill:#E84D88;}
	.st17{fill:#7A5B44;}
	.st18{fill:#6B503B;}
	.st19{opacity:0.2;fill:#FFFFFF;}
	.st20{fill:#4E99D2;}
	.st21{fill:none;}
	.st22{opacity:0.15;fill:#FFFFFF;}
	.st23{fill:#8CC63E;}
	.st24{fill:#9A795F;}
	.st25{fill:#E9EFF4;}
</style>
<g>
	<circle class="st0" cx="16" cy="16" r="14.869"/>
	
		<ellipse transform="matrix(0.7071 -0.7071 0.7071 0.7071 -3.8135 19.7404)" class="st13" cx="21.922" cy="14.474" rx="5.27" ry="5.265"/>
	<circle class="st1" cx="21.921" cy="14.471" r="4.177"/>
	<path class="st3" d="M19.296,15.633c0,1.213,0.987,2.199,2.21,2.199c1.213,0,2.2-0.987,2.2-2.2c0-1.213-0.986-2.21-2.199-2.21
		C20.283,13.422,19.296,14.42,19.296,15.633z"/>
	<path class="st1" d="M20.368,16.297c0.232,0,0.41-0.301,0.41-0.669c0-0.369-0.178-0.669-0.41-0.669c-0.219,0-0.41,0.3-0.41,0.669
		C19.958,15.997,20.142,16.304,20.368,16.297z"/>
	<path class="st13" d="M4.64,14.005c-0.258,2.899,1.883,5.459,4.771,5.716c2.898,0.258,5.459-1.883,5.717-4.782
		c0.258-2.899-1.883-5.459-4.781-5.717C7.458,8.965,4.898,11.107,4.64,14.005z"/>
	<circle class="st1" cx="9.882" cy="14.471" r="4.177"/>
	<path class="st3" d="M8.798,15.109c0,1.206,0.981,2.186,2.197,2.186c1.206,0,2.187-0.982,2.187-2.187
		c0-1.206-0.981-2.197-2.187-2.197C9.779,12.911,8.798,13.903,8.798,15.109z"/>
	<path class="st1" d="M9.861,15.77c0.231,0,0.407-0.299,0.407-0.665c0-0.367-0.177-0.666-0.407-0.666
		c-0.217,0-0.407,0.299-0.407,0.666C9.454,15.472,9.637,15.777,9.861,15.77z"/>
	<path class="st13" d="M14.855,14.11c-0.171-2.42-2.035-4.436-4.529-4.659c-2.486-0.222-4.676,1.433-5.272,3.785
		C8.171,14.405,11.442,14.673,14.855,14.11z"/>
	<path class="st13" d="M25.968,17.384c1.422-1.966,1.285-4.708-0.486-6.479c-1.765-1.765-4.506-1.901-6.472-0.479
		C20.65,13.322,22.988,15.625,25.968,17.384z"/>
	<path class="st13" d="M30.869,16c0,8.215-6.659,14.869-14.869,14.869c-4.675,0-8.847-2.156-11.575-5.534
		c2.551,2.063,5.799,3.295,9.335,3.295c8.211,0,14.869-6.654,14.869-14.869c0-3.536-1.231-6.784-3.295-9.335
		C28.708,7.153,30.869,11.326,30.869,16z"/>
	<path class="st0" d="M31.457,21.847c-3.754,5.065-9.535,8.094-15.455,8.094c-5.929,0-11.709-3.029-15.455-8.094
		c-0.92-1.245-0.65-2.992,0.586-3.903s2.983-0.651,3.894,0.585c2.704,3.652,6.812,5.836,10.975,5.836
		c4.163,0,8.262-2.184,10.966-5.836c0.92-1.236,2.667-1.496,3.903-0.585C32.107,18.855,32.367,20.602,31.457,21.847z"/>
	<path class="st3" d="M30.146,20.88c-3.448,4.656-8.736,7.435-14.144,7.435c-5.418,0-10.706-2.778-14.144-7.435
		c-0.39-0.52-0.279-1.245,0.242-1.626c0.511-0.381,1.245-0.269,1.626,0.242c3.002,4.07,7.593,6.496,12.276,6.496
		c4.674,0,9.265-2.425,12.276-6.496c0.381-0.521,1.106-0.632,1.626-0.242C30.416,19.635,30.527,20.36,30.146,20.88z"/>
	<path class="st3" d="M24.953,7.846c-1.248-3.486-4.693-2.925-4.839-2.899c-0.379,0.067-0.741-0.186-0.807-0.565
		c-0.067-0.379,0.186-0.741,0.565-0.807c1.637-0.286,5.081,0.135,6.393,3.801c0.13,0.363-0.059,0.761-0.421,0.891
		C25.488,8.395,25.084,8.213,24.953,7.846z"/>
	<path class="st3" d="M6.156,8.267c-0.362-0.13-0.551-0.528-0.421-0.891c1.312-3.667,4.758-4.093,6.393-3.801
		c0.379,0.066,0.633,0.427,0.565,0.807c-0.065,0.378-0.425,0.625-0.804,0.566l0,0C11.74,4.923,8.286,4.381,7.047,7.846
		C6.916,8.213,6.512,8.395,6.156,8.267z"/>
</g>
</svg>
