<?xml version="1.0" encoding="utf-8"?>
<!-- Generator: Adobe Illustrator 21.1.0, SVG Export Plug-In . SVG Version: 6.00 Build 0)  -->
<svg version="1.1" id="Layer_1" xmlns="http://www.w3.org/2000/svg" xmlns:xlink="http://www.w3.org/1999/xlink" x="0px" y="0px"
	 viewBox="0 0 32 32" style="enable-background:new 0 0 32 32;" xml:space="preserve">
<style type="text/css">
	.st0{fill:#FFD93B;}
	.st1{fill:#FFFFFF;}
	.st2{fill:#89664C;}
	.st3{fill:#3E4347;}
	.st4{fill:#E24B4B;}
	.st5{fill:#F29A2E;}
	.st6{fill:#5A5F63;}
	.st7{fill:#E18823;}
	.st8{fill:#65B1EF;}
	.st9{fill:#D03F3F;}
	.st10{opacity:0.2;}
	.st11{fill:#DEE4E9;}
	.st12{fill:#45CBEA;}
	.st13{fill:#F4C534;}
	.st14{fill:#BF3333;}
	.st15{fill:#D23F77;}
	.st16{fill:#E84D88;}
	.st17{fill:#7A5B44;}
	.st18{fill:#6B503B;}
	.st19{opacity:0.2;fill:#FFFFFF;}
	.st20{fill:#4E99D2;}
	.st21{fill:none;}
	.st22{opacity:0.15;fill:#FFFFFF;}
	.st23{fill:#8CC63E;}
	.st24{fill:#9A795F;}
	.st25{fill:#E9EFF4;}
</style>
<g>
	<circle class="st0" cx="16" cy="16" r="16"/>
	<path class="st13" d="M32,16c0,8.84-7.165,16-16,16c-5.03,0-9.52-2.32-12.455-5.955c2.745,2.22,6.24,3.545,10.045,3.545
		c8.835,0,16-7.16,16-16c0-3.805-1.325-7.3-3.545-10.045C29.675,6.48,32,10.97,32,16z"/>
	<path class="st3" d="M21.979,17.969c-2.381,0-4.317-1.936-4.317-4.317c0-0.359,0.291-0.649,0.649-0.649
		c0.358,0,0.649,0.291,0.649,0.649c0,1.665,1.354,3.019,3.019,3.019c0.914,0,1.769-0.408,2.345-1.118
		c0.225-0.279,0.637-0.32,0.913-0.095c0.279,0.226,0.322,0.635,0.095,0.913C24.509,17.386,23.286,17.969,21.979,17.969z"/>
	<path class="st3" d="M17.706,10.034c-0.242-0.263-0.226-0.67,0.035-0.913c0.099-0.091,2.494-2.247,7.698-1.861
		c0.357,0.026,0.625,0.338,0.598,0.695c-0.026,0.358-0.318,0.626-0.696,0.599c-4.595-0.341-6.699,1.503-6.72,1.522
		C18.363,10.311,17.951,10.3,17.706,10.034z"/>
	<path class="st3" d="M9.972,17.969c-1.308,0-2.53-0.583-3.354-1.599c-0.226-0.278-0.184-0.687,0.095-0.913
		c0.276-0.225,0.687-0.184,0.913,0.095c0.576,0.711,1.431,1.118,2.345,1.118c1.665,0,3.019-1.354,3.019-3.019
		c0-0.359,0.291-0.649,0.649-0.649c0.358,0,0.649,0.291,0.649,0.649C14.289,16.033,12.352,17.969,9.972,17.969z"/>
	<path class="st3" d="M13.254,10.241c-0.033-0.032-2.071-1.966-6.63-1.875c-0.005,0-0.01,0-0.014,0
		c-0.352,0-0.641-0.281-0.649-0.636C5.954,7.372,6.238,7.075,6.596,7.068c5.264-0.104,7.494,2.17,7.589,2.267
		c0.25,0.257,0.242,0.668-0.015,0.918C13.913,10.501,13.503,10.496,13.254,10.241z"/>
	<path class="st3" d="M19.836,24.701c0,2.69-1.724,4.872-3.864,4.872c-2.129,0-3.864-2.181-3.864-4.872
		c0-2.69,1.735-4.872,3.864-4.872C18.112,19.83,19.836,22.011,19.836,24.701z"/>
</g>
</svg>
