<?xml version="1.0" encoding="utf-8"?>
<!-- Generator: Adobe Illustrator 21.1.0, SVG Export Plug-In . SVG Version: 6.00 Build 0)  -->
<svg version="1.1" id="Layer_1" xmlns="http://www.w3.org/2000/svg" xmlns:xlink="http://www.w3.org/1999/xlink" x="0px" y="0px"
	 viewBox="0 0 32 32" style="enable-background:new 0 0 32 32;" xml:space="preserve">
<style type="text/css">
	.st0{fill:#FFD93B;}
	.st1{fill:#FFFFFF;}
	.st2{fill:#89664C;}
	.st3{fill:#3E4347;}
	.st4{fill:#E24B4B;}
	.st5{fill:#F29A2E;}
	.st6{fill:#5A5F63;}
	.st7{fill:#E18823;}
	.st8{fill:#65B1EF;}
	.st9{fill:#D03F3F;}
	.st10{opacity:0.2;}
	.st11{fill:#DEE4E9;}
	.st12{fill:#45CBEA;}
	.st13{fill:#F4C534;}
	.st14{fill:#BF3333;}
	.st15{fill:#D23F77;}
	.st16{fill:#E84D88;}
	.st17{fill:#7A5B44;}
	.st18{fill:#6B503B;}
	.st19{opacity:0.2;fill:#FFFFFF;}
	.st20{fill:#4E99D2;}
	.st21{fill:none;}
	.st22{opacity:0.15;fill:#FFFFFF;}
	.st23{fill:#8CC63E;}
	.st24{fill:#9A795F;}
	.st25{fill:#E9EFF4;}
</style>
<g>
	<g>
		<circle class="st0" cx="16" cy="16" r="16"/>
		<path class="st13" d="M32,16c0,8.84-7.165,16-16,16c-5.03,0-9.52-2.32-12.455-5.955c2.745,2.22,6.24,3.545,10.045,3.545
			c8.835,0,16-7.16,16-16c0-3.805-1.325-7.3-3.545-10.045C29.675,6.48,32,10.97,32,16z"/>
	</g>
	<g>
		<g>
			<g>
				<g>
					<circle class="st1" cx="9.647" cy="13.962" r="4.936"/>
				</g>
				<g>
					<circle class="st3" cx="9.649" cy="13.96" r="2.22"/>
				</g>
				<g>
					<path class="st1" d="M10.897,13.628c-0.19,0.19-0.553,0.142-0.806-0.111c-0.253-0.253-0.3-0.616-0.111-0.806
						c0.197-0.198,0.561-0.15,0.813,0.103C11.047,13.067,11.095,13.43,10.897,13.628z"/>
				</g>
			</g>
			<g>
				<g>
					<circle class="st1" cx="22.353" cy="13.962" r="4.936"/>
				</g>
				<g>
					<circle class="st3" cx="22.355" cy="13.96" r="2.22"/>
				</g>
				<g>
					<path class="st1" d="M23.604,13.628c-0.19,0.19-0.553,0.142-0.806-0.111c-0.253-0.253-0.3-0.616-0.111-0.806
						c0.198-0.198,0.561-0.15,0.813,0.103C23.754,13.067,23.801,13.43,23.604,13.628z"/>
				</g>
			</g>
		</g>
		<g>
			<path class="st3" d="M24.032,25.495c0,2.134-1.73,3.865-3.865,3.865s-3.656-1.417-3.865-3.865
				c-0.181-2.127-0.044-4.885,1.208-5.296C20.431,19.241,24.032,23.36,24.032,25.495z"/>
		</g>
		<g>
			<g>
				<g>
					<path class="st3" d="M26.517,8.69c-3.929-3.214-7.319-2.85-7.352-2.849c-0.355,0.041-0.654-0.203-0.696-0.543
						c-0.042-0.342,0.198-0.653,0.54-0.697c0.159-0.018,3.929-0.455,8.3,3.121c0.268,0.219,0.307,0.612,0.088,0.88
						C27.18,8.867,26.787,8.91,26.517,8.69z"/>
				</g>
			</g>
			<g>
				<g>
					<path class="st3" d="M4.604,8.602c-0.219-0.268-0.18-0.661,0.088-0.88c4.369-3.575,8.142-3.14,8.3-3.121
						c0.343,0.044,0.585,0.357,0.541,0.7c-0.045,0.342-0.36,0.582-0.697,0.541c-0.064-0.008-3.443-0.35-7.353,2.849
						C5.213,8.91,4.819,8.867,4.604,8.602z"/>
				</g>
			</g>
		</g>
	</g>
</g>
</svg>
