<?xml version="1.0" encoding="utf-8"?>
<!-- Generator: Adobe Illustrator 21.1.0, SVG Export Plug-In . SVG Version: 6.00 Build 0)  -->
<svg version="1.1" id="Layer_1" xmlns="http://www.w3.org/2000/svg" xmlns:xlink="http://www.w3.org/1999/xlink" x="0px" y="0px"
	 viewBox="0 0 32 32" style="enable-background:new 0 0 32 32;" xml:space="preserve">
<style type="text/css">
	.st0{fill:#FFD93B;}
	.st1{fill:#3E4347;}
	.st2{fill:#F4C534;}
	.st3{fill:#38C0DC;}
	.st4{fill:#45CBEA;}
	.st5{fill:#FFFFFF;}
	.st6{fill:#E24B4B;}
	.st7{fill:#5A5F63;}
	.st8{opacity:0.3;}
	.st9{opacity:0.2;}
	.st10{opacity:0.1;}
	.st11{fill:#E9B02C;}
	.st12{fill:#65B1EF;}
	.st13{fill:#E9EFF4;}
	.st14{fill:#8CC63E;}
	.st15{fill:#7FB239;}
	.st16{fill:#D03F3F;}
	.st17{fill:#D23F77;}
	.st18{fill:#E84D88;}
	.st19{fill:#59A5E0;}
	.st20{fill:#DEE4E9;}
	.st21{fill:#D3D9DD;}
	.st22{opacity:0.25;fill:#FFFFFF;}
	.st23{fill:#9A795F;}
	.st24{fill:#F29A2E;}
	.st25{fill:#FC97B2;}
	.st26{fill:#89664C;}
	.st27{fill:#7A5B44;}
	.st28{opacity:0.2;fill:#FFFFFF;}
	.st29{fill:#4E99D2;}
	.st30{fill:#BBC7D1;}
	.st31{fill:#DE9C25;}
</style>
<g>
	<path class="st0" d="M28.937,17.531C28.937,25.525,22.454,32,14.469,32C6.475,32,0,25.525,0,17.531
		C0,9.537,6.475,3.063,14.469,3.063C22.454,3.063,28.937,9.537,28.937,17.531z"/>
	<path class="st2" d="M28.936,17.53c0,7.994-6.479,14.469-14.469,14.469c-4.549,0-8.609-2.098-11.263-5.385
		c2.482,2.008,5.643,3.206,9.084,3.206c7.989,0,14.469-6.475,14.469-14.469c0-3.441-1.198-6.601-3.206-9.084
		C26.834,8.921,28.936,12.981,28.936,17.53z"/>
	<path class="st5" d="M13.535,14.195c0,2.767-1.664,5.002-3.727,5.002c-2.055,0-3.719-2.236-3.719-5.002
		c0-2.759,1.664-4.995,3.719-4.995C11.871,9.201,13.535,11.436,13.535,14.195z"/>
	<circle class="st1" cx="9.941" cy="15.335" r="2.148"/>
	<path class="st5" d="M11.201,14.932c-0.122,0.191-0.435,0.154-0.707-0.077c-0.272-0.232-0.394-0.565-0.272-0.756
		c0.119-0.186,0.435-0.154,0.707,0.077C11.201,14.407,11.32,14.746,11.201,14.932z"/>
	<path class="st5" d="M15.4,14.195c0,2.767,1.664,5.002,3.727,5.002c2.055,0,3.719-2.236,3.719-5.002
		c0-2.759-1.664-4.995-3.719-4.995C17.064,9.201,15.4,11.436,15.4,14.195z"/>
	<circle class="st1" cx="18.994" cy="15.335" r="2.148"/>
	<path class="st5" d="M20.253,14.932c-0.122,0.191-0.435,0.154-0.707-0.077c-0.272-0.232-0.394-0.565-0.272-0.756
		c0.119-0.186,0.435-0.154,0.707,0.077C20.253,14.407,20.372,14.746,20.253,14.932z"/>
	<path class="st1" d="M25.194,20.696c-1.338,4.666-5.634,8.075-10.725,8.075c-5.082,0-9.368-3.391-10.725-8.039
		c-0.217-0.76,0.625-1.627,1.257-1.158c6.253,4.642,12.577,4.927,18.963-0.036C24.576,19.063,25.411,19.946,25.194,20.696z"/>
	<path class="st1" d="M25.194,20.696c-1.338,4.666-5.634,8.075-10.725,8.075c-5.082,0-9.368-3.391-10.725-8.039
		c-0.217-0.76,0.625-1.627,1.257-1.158c6.253,4.642,12.577,4.927,18.963-0.036C24.576,19.063,25.411,19.946,25.194,20.696z"/>
	<path class="st6" d="M14.469,28.772c1.793,0,3.482-0.43,4.983-1.181c-0.114-0.408-0.268-0.814-0.497-1.212
		c-0.787-1.377-2.466-2.068-3.972-1.55c-0.57,0.189-1.186,0.231-1.752,0.153c-1.547-0.221-3.073,0.735-3.613,2.207
		c-0.049,0.136-0.085,0.273-0.122,0.41C10.995,28.344,12.68,28.772,14.469,28.772z"/>
	<path class="st5" d="M23.833,19.634c-6.303,4.828-12.545,4.55-18.718,0.02c2.71,4.628,4.047,5.72,9.277,5.72
		C19.613,25.375,21.136,24.271,23.833,19.634z"/>
	<g>
		<path class="st12" d="M32,4.2c0,2.25-2.29,4.09-5.18,4.2l-3.34,2.41c-0.21,0.15-0.52,0-0.52-0.26V7.37
			c-1.15-0.76-1.87-1.9-1.87-3.17c0-2.32,2.44-4.2,5.45-4.2C29.56,0,32,1.88,32,4.2z"/>
	</g>
	<g>
		<path class="st5" d="M24.657,3.597h-0.264c0.006-0.206,0.01-0.384,0.01-0.535h-0.469c0,0.135,0.003,0.314,0.009,0.535h-0.263
			c0.015-0.379,0.018-0.844,0-1.213h0.263c-0.007,0.174-0.011,0.336-0.011,0.484h0.473c0-0.131-0.004-0.292-0.011-0.484h0.264
			C24.638,2.72,24.64,3.254,24.657,3.597z"/>
		<path class="st5" d="M25.653,3.596l-0.22,0.007c-0.01-0.026-0.015-0.05-0.015-0.071h-0.012c-0.452,0.386-0.971-0.459-0.007-0.477
			c0.006-0.055,0-0.134-0.047-0.164c-0.088-0.059-0.346-0.025-0.453,0.005l0.02-0.171c0.144-0.05,0.479-0.081,0.618,0.027
			c0.131,0.101,0.085,0.358,0.085,0.528C25.623,3.409,25.633,3.514,25.653,3.596z M25.404,3.402
			c-0.004-0.084-0.006-0.156-0.006-0.217C24.846,3.185,25.112,3.62,25.404,3.402z"/>
		<path class="st5" d="M26.637,2.712c0,0.095-0.333,0.791-0.333,0.885h-0.254c0-0.08-0.296-0.837-0.296-0.885h0.272
			c0,0.065,0.184,0.58,0.184,0.655h0.012c0-0.054,0.175-0.559,0.175-0.655H26.637z"/>
		<path class="st5" d="M27.569,3.183l-0.6,0.01c0.035,0.279,0.318,0.276,0.591,0.203l-0.019,0.181
			c-0.968,0.35-1.054-0.904-0.356-0.904C27.499,2.674,27.591,2.874,27.569,3.183z M27.356,3.051c0-0.288-0.344-0.299-0.389,0.007
			L27.356,3.051z"/>
		<path class="st5" d="M23.957,5.434h-0.23c0-0.025-0.085-0.16-0.256-0.403c-0.179-0.256-0.281-0.432-0.306-0.526H23.15
			c0.028,0.244,0.018,0.47,0.036,0.93h-0.229c0.017-0.349,0.02-0.869,0-1.213h0.277c0,0.033,0.077,0.164,0.23,0.394
			c0.163,0.244,0.257,0.41,0.281,0.496h0.014c-0.038-0.35-0.01-0.376-0.036-0.89h0.233C23.938,4.564,23.941,5.088,23.957,5.434z"/>
		<path class="st5" d="M24.459,5.434h-0.25c0.017-0.256,0.024-0.622-0.019-0.877l0.268-0.027C24.444,4.746,24.44,5.134,24.459,5.434
			z M24.236,4.386c-0.137-0.153,0.108-0.352,0.23-0.215C24.601,4.323,24.358,4.521,24.236,4.386z"/>
		<path class="st5" d="M25.375,5.239l-0.016,0.178c-0.056,0.03-0.133,0.045-0.23,0.045c-0.69,0-0.641-0.944,0.006-0.944
			c0.077,0,0.145,0.009,0.204,0.026l-0.032,0.19C24.742,4.501,24.678,5.45,25.375,5.239z"/>
		<path class="st5" d="M26.323,5.021l-0.6,0.01c0.035,0.277,0.32,0.275,0.591,0.203l-0.019,0.181
			c-0.972,0.352-1.051-0.904-0.356-0.904c0.132,0,0.229,0.036,0.294,0.107C26.337,4.735,26.334,4.867,26.323,5.021z M26.111,4.889
			c0-0.143-0.061-0.214-0.183-0.214c-0.116,0-0.185,0.074-0.207,0.222L26.111,4.889z"/>
		<path class="st5" d="M27.965,4.786c0,0.176-0.056,0.33-0.17,0.462c-0.213,0.248-0.517,0.202-0.855,0.186
			c0.015-0.356,0.018-0.861,0-1.213C27.226,4.222,27.965,4.107,27.965,4.786z M27.178,4.411c0.017,0.329,0.002,0.444,0.019,0.831
			C27.871,5.377,27.913,4.323,27.178,4.411z"/>
		<path class="st5" d="M28.899,5.433l-0.22,0.007c-0.01-0.026-0.015-0.05-0.015-0.071h-0.012c-0.115,0.098-0.346,0.127-0.47,0.023
			c-0.051-0.043-0.077-0.1-0.077-0.172c0-0.094,0.04-0.172,0.119-0.232c0.08-0.06,0.22-0.092,0.42-0.096
			c0.029-0.245-0.267-0.224-0.499-0.159l0.02-0.171c0.144-0.05,0.479-0.081,0.618,0.027c0.11,0.085,0.093,0.252,0.089,0.39
			c-0.002,0.069-0.003,0.115-0.003,0.138C28.869,5.246,28.879,5.351,28.899,5.433z M28.65,5.24
			c-0.004-0.084-0.006-0.156-0.006-0.217C28.093,5.023,28.359,5.457,28.65,5.24z"/>
		<path class="st5" d="M29.876,4.549c0,0.056-0.295,0.793-0.32,0.89c-0.083,0.317-0.205,0.407-0.459,0.407l-0.019-0.18
			c0.151,0,0.265-0.09,0.265-0.241c0-0.145-0.335-0.874-0.335-0.877h0.288c0,0.034,0.17,0.583,0.17,0.662h0.013
			c0-0.071,0.154-0.554,0.154-0.662H29.876z"/>
		<path class="st5" d="M30.173,5.444c-0.115,0-0.146-0.133-0.077-0.206c0.044-0.047,0.14-0.054,0.183-0.005
			C30.343,5.307,30.301,5.444,30.173,5.444z M30.223,5.055H30.15c-0.049-0.247-0.141-0.809,0.053-0.809
			C30.39,4.246,30.273,4.873,30.223,5.055z"/>
		<path class="st5" d="M29.006,3.596l-0.22,0.007c-0.01-0.026-0.015-0.05-0.015-0.071h-0.012c-0.452,0.386-0.971-0.459-0.007-0.477
			c0.006-0.055,0-0.134-0.047-0.164c-0.088-0.059-0.346-0.025-0.453,0.005l0.02-0.171c0.144-0.05,0.479-0.081,0.618,0.027
			c0.131,0.101,0.085,0.358,0.085,0.528C28.977,3.409,28.986,3.514,29.006,3.596z M28.758,3.402
			c-0.004-0.084-0.006-0.156-0.006-0.217C28.2,3.185,28.466,3.62,28.758,3.402z"/>
	</g>
</g>
</svg>
