<?xml version="1.0" encoding="utf-8"?>
<!-- Generator: Adobe Illustrator 21.1.0, SVG Export Plug-In . SVG Version: 6.00 Build 0)  -->
<svg version="1.1" id="Layer_1" xmlns="http://www.w3.org/2000/svg" xmlns:xlink="http://www.w3.org/1999/xlink" x="0px" y="0px"
	 viewBox="0 0 32 32" style="enable-background:new 0 0 32 32;" xml:space="preserve">
<style type="text/css">
	.st0{fill:#FFD93B;}
	.st1{fill:#FFFFFF;}
	.st2{fill:#89664C;}
	.st3{fill:#3E4347;}
	.st4{fill:#E24B4B;}
	.st5{fill:#F29A2E;}
	.st6{fill:#5A5F63;}
	.st7{fill:#E18823;}
	.st8{fill:#65B1EF;}
	.st9{fill:#D03F3F;}
	.st10{opacity:0.2;}
	.st11{fill:#DEE4E9;}
	.st12{fill:#45CBEA;}
	.st13{fill:#F4C534;}
	.st14{fill:#BF3333;}
	.st15{fill:#D23F77;}
	.st16{fill:#E84D88;}
	.st17{fill:#7A5B44;}
	.st18{fill:#6B503B;}
	.st19{opacity:0.2;fill:#FFFFFF;}
	.st20{fill:#4E99D2;}
	.st21{fill:none;}
	.st22{opacity:0.15;fill:#FFFFFF;}
	.st23{fill:#8CC63E;}
	.st24{fill:#9A795F;}
	.st25{fill:#E9EFF4;}
</style>
<g>
	<g>
		<g>
			<circle class="st0" cx="16" cy="16" r="16"/>
			<path class="st13" d="M32,16c0,8.84-7.165,16-16,16c-5.03,0-9.52-2.32-12.455-5.955c2.745,2.22,6.24,3.545,10.045,3.545
				c8.835,0,16-7.16,16-16c0-3.805-1.325-7.3-3.545-10.045C29.675,6.48,32,10.97,32,16z"/>
		</g>
		<g>
			<g>
				<g>
					<g>
						<path class="st3" d="M8.098,24.412c0,0.61,1.615,0.26,2.325,0.522c0.498,0.183,0.485,0.879,1.236,0.996
							c0.614,0.096,1.626-0.415,2.362-0.362c0.658,0.047,1.255,0.667,1.978,0.667c0.724,0,1.321-0.62,1.979-0.667
							c0.736-0.053,1.748,0.458,2.362,0.362c0.751-0.117,0.737-0.813,1.235-0.996c0.71-0.261,2.326,0.088,2.326-0.522
							c0-1.698-3.538-3.074-7.902-3.074C11.636,21.338,8.098,22.714,8.098,24.412z"/>
					</g>
				</g>
			</g>
			<g>
				<g>
					<g>
						<path class="st3" d="M17.661,5.741c-0.271-0.256-0.284-0.683-0.028-0.954c0.257-0.271,0.685-0.283,0.954-0.027
							c1.542,1.454,3.963,1.973,6.648,1.423c0.364-0.073,0.722,0.16,0.797,0.525c0.075,0.365-0.16,0.722-0.525,0.797
							C22.729,8.074,19.721,7.686,17.661,5.741z"/>
					</g>
				</g>
				<g>
					<g>
						<path class="st3" d="M4.863,7.505C4.497,7.43,4.262,7.073,4.337,6.708c0.074-0.365,0.429-0.599,0.797-0.525
							c2.686,0.55,5.107,0.031,6.649-1.423c0.271-0.256,0.699-0.243,0.954,0.027c0.256,0.271,0.243,0.699-0.028,0.954
							C10.651,7.683,7.645,8.075,4.863,7.505z"/>
					</g>
				</g>
			</g>
		</g>
	</g>
	<g>
		<g>
			<g>
				<g>
					<g>
						<circle class="st13" cx="9.631" cy="13.812" r="4.936"/>
					</g>
				</g>
				<g>
					<g>
						<path class="st1" d="M13.434,13.814c-0.259,2.079-2.175,3.759-4.275,3.759s-3.588-1.68-3.329-3.759
							c0.259-2.079,2.167-3.768,4.267-3.768S13.693,11.735,13.434,13.814z"/>
					</g>
				</g>
				<g>
					<g>
						<circle class="st3" cx="9.633" cy="13.81" r="2.22"/>
					</g>
				</g>
				<g>
					<g>
						<path class="st1" d="M10.881,13.478c-0.19,0.19-0.553,0.142-0.806-0.111c-0.253-0.253-0.3-0.616-0.11-0.806
							c0.197-0.197,0.561-0.15,0.813,0.103C11.031,12.917,11.079,13.28,10.881,13.478z"/>
					</g>
				</g>
			</g>
		</g>
		<g>
			<g>
				<g>
					<g>
						<circle class="st13" cx="22.369" cy="13.812" r="4.936"/>
					</g>
				</g>
				<g>
					<g>
						<path class="st1" d="M18.566,13.814c0.259,2.079,2.175,3.759,4.275,3.759c2.1,0,3.588-1.68,3.329-3.759
							c-0.259-2.079-2.167-3.768-4.267-3.768S18.307,11.735,18.566,13.814z"/>
					</g>
				</g>
				<g>
					<g>
						<circle class="st3" cx="22.371" cy="13.81" r="2.22"/>
					</g>
				</g>
				<g>
					<g>
						<path class="st1" d="M23.62,13.478c-0.19,0.19-0.553,0.142-0.806-0.111c-0.253-0.253-0.3-0.616-0.111-0.806
							c0.197-0.197,0.561-0.15,0.813,0.103C23.77,12.917,23.817,13.28,23.62,13.478z"/>
					</g>
				</g>
			</g>
		</g>
	</g>
</g>
</svg>
