<?xml version="1.0" encoding="utf-8"?>
<!-- Generator: Adobe Illustrator 21.1.0, SVG Export Plug-In . SVG Version: 6.00 Build 0)  -->
<svg version="1.1" id="Layer_1" xmlns="http://www.w3.org/2000/svg" xmlns:xlink="http://www.w3.org/1999/xlink" x="0px" y="0px"
	 viewBox="0 0 32 32" style="enable-background:new 0 0 32 32;" xml:space="preserve">
<style type="text/css">
	.st0{fill:#FFD93B;}
	.st1{fill:#FFFFFF;}
	.st2{fill:#89664C;}
	.st3{fill:#3E4347;}
	.st4{fill:#E24B4B;}
	.st5{fill:#F29A2E;}
	.st6{fill:#5A5F63;}
	.st7{fill:#E18823;}
	.st8{fill:#65B1EF;}
	.st9{fill:#D03F3F;}
	.st10{opacity:0.2;}
	.st11{fill:#DEE4E9;}
	.st12{fill:#45CBEA;}
	.st13{fill:#F4C534;}
	.st14{fill:#BF3333;}
	.st15{fill:#D23F77;}
	.st16{fill:#E84D88;}
	.st17{fill:#7A5B44;}
	.st18{fill:#6B503B;}
	.st19{opacity:0.2;fill:#FFFFFF;}
	.st20{fill:#4E99D2;}
	.st21{fill:none;}
	.st22{opacity:0.15;fill:#FFFFFF;}
	.st23{fill:#8CC63E;}
	.st24{fill:#9A795F;}
	.st25{fill:#E9EFF4;}
</style>
<g>
	<g>
		<circle class="st0" cx="16" cy="16" r="16"/>
		<path class="st13" d="M32,16c0,8.84-7.165,16-16,16c-5.03,0-9.52-2.32-12.455-5.955c2.745,2.22,6.24,3.545,10.045,3.545
			c8.835,0,16-7.16,16-16c0-3.805-1.325-7.3-3.545-10.045C29.675,6.48,32,10.97,32,16z"/>
	</g>
	<g>
		<g>
			<g>
				<g>
					<g>
						<path class="st1" d="M14.582,15.279c-0.311,2.467-2.772,4.467-5.498,4.467s-4.684-2-4.373-4.467
							c0.311-2.467,2.772-4.467,5.498-4.467S14.893,12.812,14.582,15.279z"/>
					</g>
				</g>
				<g>
					<g>
						<path class="st1" d="M17.42,15.279c0.311,2.467,2.772,4.467,5.498,4.467c2.726,0,4.684-2,4.373-4.467
							c-0.311-2.467-2.772-4.467-5.498-4.467C19.067,10.812,17.109,12.812,17.42,15.279z"/>
					</g>
				</g>
				<g>
					<g>
						<circle class="st3" cx="9.649" cy="15.277" r="2.22"/>
					</g>
				</g>
				<g>
					<g>
						<path class="st1" d="M10.897,14.945c-0.19,0.19-0.553,0.142-0.806-0.11c-0.253-0.253-0.3-0.616-0.111-0.806
							c0.197-0.197,0.561-0.15,0.813,0.103C11.047,14.384,11.095,14.748,10.897,14.945z"/>
					</g>
				</g>
			</g>
			<g>
				<g>
					<g>
						<circle class="st3" cx="22.355" cy="15.277" r="2.22"/>
					</g>
				</g>
				<g>
					<g>
						<path class="st1" d="M21.107,14.945c0.19,0.19,0.553,0.142,0.806-0.11c0.253-0.253,0.3-0.616,0.111-0.806
							c-0.197-0.197-0.561-0.15-0.813,0.103C20.957,14.384,20.91,14.748,21.107,14.945z"/>
					</g>
				</g>
			</g>
		</g>
		<g>
			<g>
				<g>
					<path class="st3" d="M7.394,24.409c0,0.664,1.759,0.284,2.532,0.568c0.542,0.199,0.528,0.957,1.347,1.085
						c0.669,0.104,1.771-0.452,2.573-0.394c0.716,0.051,1.367,0.726,2.154,0.726c0.788,0,1.439-0.675,2.156-0.726
						c0.802-0.058,1.904,0.498,2.573,0.394c0.818-0.128,0.803-0.885,1.345-1.085c0.773-0.284,2.533,0.096,2.533-0.568
						c0-1.849-3.853-3.348-8.606-3.348C11.247,21.061,7.394,22.56,7.394,24.409z"/>
				</g>
			</g>
		</g>
		<g>
			<g>
				<g>
					<path class="st3" d="M17.661,7.208c-0.271-0.256-0.284-0.683-0.028-0.954c0.257-0.272,0.684-0.283,0.954-0.027
						C20.129,7.681,22.55,8.2,25.236,7.65c0.364-0.073,0.722,0.16,0.797,0.525c0.075,0.365-0.16,0.722-0.525,0.797
						C22.729,9.542,19.721,9.153,17.661,7.208z"/>
				</g>
			</g>
			<g>
				<g>
					<path class="st3" d="M4.863,8.972C4.497,8.898,4.262,8.54,4.337,8.175C4.411,7.81,4.766,7.577,5.134,7.65
						c2.686,0.55,5.107,0.031,6.649-1.423c0.27-0.256,0.699-0.243,0.954,0.027c0.256,0.272,0.243,0.699-0.028,0.954
						C10.651,9.151,7.645,9.542,4.863,8.972z"/>
				</g>
			</g>
		</g>
	</g>
</g>
</svg>
