<?xml version="1.0" encoding="utf-8"?>
<!-- Generator: Adobe Illustrator 21.1.0, SVG Export Plug-In . SVG Version: 6.00 Build 0)  -->
<svg version="1.1" id="Layer_1" xmlns="http://www.w3.org/2000/svg" xmlns:xlink="http://www.w3.org/1999/xlink" x="0px" y="0px"
	 viewBox="0 0 32 32" style="enable-background:new 0 0 32 32;" xml:space="preserve">
<style type="text/css">
	.st0{fill:#FFD93B;}
	.st1{fill:#FFFFFF;}
	.st2{fill:#89664C;}
	.st3{fill:#3E4347;}
	.st4{fill:#E24B4B;}
	.st5{fill:#F29A2E;}
	.st6{fill:#5A5F63;}
	.st7{fill:#E18823;}
	.st8{fill:#65B1EF;}
	.st9{fill:#D03F3F;}
	.st10{opacity:0.2;}
	.st11{fill:#DEE4E9;}
	.st12{fill:#45CBEA;}
	.st13{fill:#F4C534;}
	.st14{fill:#BF3333;}
	.st15{fill:#D23F77;}
	.st16{fill:#E84D88;}
	.st17{fill:#7A5B44;}
	.st18{fill:#6B503B;}
	.st19{opacity:0.2;fill:#FFFFFF;}
	.st20{fill:#4E99D2;}
	.st21{fill:none;}
	.st22{opacity:0.15;fill:#FFFFFF;}
	.st23{fill:#8CC63E;}
	.st24{fill:#9A795F;}
	.st25{fill:#E9EFF4;}
</style>
<g>
	<circle class="st0" cx="16" cy="16" r="16"/>
	<circle class="st0" cx="16" cy="16" r="16"/>
	<path class="st13" d="M32,16c0,8.84-7.165,16-16,16c-5.03,0-9.52-2.32-12.455-5.955c2.745,2.22,6.24,3.545,10.045,3.545
		c8.835,0,16-7.16,16-16c0-3.805-1.325-7.3-3.545-10.045C29.675,6.48,32,10.97,32,16z"/>
	<path class="st1" d="M4.599,14.915c-0.035,2.544,2.147,4.606,4.873,4.606c2.726,0,4.964-2.062,4.998-4.606
		c0.035-2.544-2.147-4.606-4.873-4.606C6.871,10.309,4.633,12.371,4.599,14.915z"/>
	<path class="st1" d="M17.409,24.144l-0.22,2.2c-0.02,0.15-0.14,0.26-0.29,0.26h-1.8c-0.15,0-0.27-0.11-0.29-0.26l-0.22-2.2
		c0.46,0.08,0.93,0.12,1.41,0.12S16.949,24.224,17.409,24.144z"/>
	<path class="st1" d="M14.178,23.761c-1.096,0-1.995-0.118-2.706-0.61l0.017,2.583c0,0.15,0.11,0.27,0.26,0.29l1.79,0.18
		c0.15,0.01,0.28-0.09,0.31-0.23l0.448-2.219C14.256,23.756,14.219,23.761,14.178,23.761z"/>
	<path class="st1" d="M17.95,23.86c-0.079,0-0.153-0.008-0.23-0.011l0.429,2.126c0.03,0.14,0.17,0.24,0.31,0.23l1.79-0.18
		c0.15-0.02,0.26-0.14,0.26-0.29l0.016-2.583C19.835,23.592,18.979,23.86,17.95,23.86z"/>
	<path class="st3" d="M8.148,20.956c2.28,2.004,4.85,2.627,7.841,2.641c2.962,0.017,5.626-0.684,7.863-2.641
		c-1.883,2.707-4.603,3.565-7.841,3.64C12.734,24.519,10.036,23.667,8.148,20.956z"/>
	<g>
		<path class="st1" d="M17.305,14.915c-0.035,2.544,2.147,4.606,4.873,4.606c2.726,0,4.964-2.062,4.998-4.606
			s-2.147-4.606-4.873-4.606C19.578,10.309,17.34,12.371,17.305,14.915z"/>
	</g>
	<g>
		<circle class="st3" cx="9.534" cy="14.913" r="2.22"/>
	</g>
	<g>
		<path class="st1" d="M10.783,14.581c-0.19,0.19-0.553,0.142-0.806-0.111c-0.253-0.253-0.3-0.616-0.111-0.806
			c0.198-0.197,0.561-0.15,0.814,0.103C10.933,14.02,10.98,14.384,10.783,14.581z"/>
	</g>
	<g>
		<circle class="st3" cx="22.241" cy="14.913" r="2.22"/>
	</g>
	<g>
		<path class="st1" d="M20.993,14.581c0.19,0.19,0.553,0.142,0.806-0.111c0.253-0.253,0.3-0.616,0.111-0.806
			c-0.198-0.197-0.561-0.15-0.813,0.103C20.843,14.02,20.795,14.384,20.993,14.581z"/>
	</g>
	<path class="st3" d="M26.706,10.624c-2.3-3.027-6.581-3.858-6.624-3.866c-0.339-0.063-0.563-0.39-0.5-0.728
		c0.064-0.339,0.395-0.559,0.728-0.501c0.195,0.036,4.794,0.921,7.393,4.338c0.208,0.275,0.155,0.667-0.12,0.876
		C27.313,10.949,26.918,10.902,26.706,10.624z"/>
	<path class="st3" d="M4.418,10.743c-0.275-0.209-0.328-0.601-0.12-0.876c2.599-3.418,7.197-4.302,7.393-4.338
		c0.332-0.059,0.664,0.161,0.727,0.501c0.063,0.339-0.161,0.665-0.5,0.728c-0.043,0.008-4.324,0.839-6.624,3.866
		C5.082,10.902,4.688,10.949,4.418,10.743z"/>
</g>
</svg>
