<?xml version="1.0" encoding="utf-8"?>
<!-- Generator: Adobe Illustrator 21.1.0, SVG Export Plug-In . SVG Version: 6.00 Build 0)  -->
<svg version="1.1" id="Layer_1" xmlns="http://www.w3.org/2000/svg" xmlns:xlink="http://www.w3.org/1999/xlink" x="0px" y="0px"
	 viewBox="0 0 32 32" style="enable-background:new 0 0 32 32;" xml:space="preserve">
<style type="text/css">
	.st0{fill:#FFD93B;}
	.st1{fill:#FFFFFF;}
	.st2{fill:#89664C;}
	.st3{fill:#3E4347;}
	.st4{fill:#E24B4B;}
	.st5{fill:#F29A2E;}
	.st6{fill:#5A5F63;}
	.st7{fill:#E18823;}
	.st8{fill:#65B1EF;}
	.st9{fill:#D03F3F;}
	.st10{opacity:0.2;}
	.st11{fill:#DEE4E9;}
	.st12{fill:#45CBEA;}
	.st13{fill:#F4C534;}
	.st14{fill:#BF3333;}
	.st15{fill:#D23F77;}
	.st16{fill:#E84D88;}
	.st17{fill:#7A5B44;}
	.st18{fill:#6B503B;}
	.st19{opacity:0.2;fill:#FFFFFF;}
	.st20{fill:#4E99D2;}
	.st21{fill:none;}
	.st22{opacity:0.15;fill:#FFFFFF;}
	.st23{fill:#8CC63E;}
	.st24{fill:#9A795F;}
	.st25{fill:#E9EFF4;}
</style>
<g>
	<g>
		<g>
			<circle class="st0" cx="16" cy="16" r="16"/>
			<circle class="st0" cx="16" cy="16" r="16"/>
			<path class="st13" d="M32,16c0,8.84-7.165,16-16,16c-5.03,0-9.52-2.32-12.455-5.955c2.745,2.22,6.24,3.545,10.045,3.545
				c8.835,0,16-7.16,16-16c0-3.805-1.325-7.3-3.545-10.045C29.675,6.48,32,10.97,32,16z"/>
		</g>
		<g>
			<g>
				<path class="st3" d="M6.608,23.867c-0.137,1.283,3.161,3.788,9.151,2.384c5.991-1.333,9.287-0.547,9.151-2.384
					c0.135-1.838-3.16-1.051-9.151-2.384C9.769,20.08,6.472,22.584,6.608,23.867z"/>
			</g>
			<g>
				<path class="st1" d="M8.221,23.148c0.868-0.866,3.478-1.54,7.538-0.906c4.06,0.597,6.671,0.645,7.539,1.129
					C18.365,23.797,13.342,23.428,8.221,23.148z"/>
				<g>
					<path class="st1" d="M23.545,24.156c-0.486,0.704-3.225,0.658-7.786,1.336c-4.56,0.722-7.299-0.241-7.786-1.224
						C13.164,25.261,18.354,24.301,23.545,24.156z"/>
				</g>
			</g>
		</g>
		<g>
			<g>
				<g>
					<g>
						<path class="st13" d="M14.934,14.443c0,2.755-2.244,4.999-4.999,4.999c-2.765,0-4.999-2.244-4.999-4.999
							c0-2.765,2.234-4.999,4.999-4.999C12.69,9.444,14.934,11.678,14.934,14.443z"/>
					</g>
				</g>
				<g>
					<g>
						<path class="st1" d="M13.884,14.443c0,2.182-1.767,3.949-3.949,3.949c-2.193,0-3.96-1.767-3.96-3.949
							c0-2.182,1.767-3.96,3.96-3.96C12.117,10.483,13.884,12.261,13.884,14.443z"/>
					</g>
				</g>
				<g>
					<g>
						<g>
							<circle class="st3" cx="11.183" cy="14.063" r="2.097"/>
						</g>
					</g>
					<g>
						<g>
							<path class="st1" d="M12.389,13.661c-0.13,0.13-0.401,0.09-0.601-0.1c-0.19-0.2-0.23-0.461-0.1-0.601
								c0.14-0.14,0.411-0.1,0.601,0.1C12.489,13.25,12.529,13.52,12.389,13.661z"/>
						</g>
					</g>
				</g>
			</g>
			<g>
				<g>
					<g>
						<path class="st13" d="M27.064,14.443c0,2.755-2.244,4.999-4.999,4.999c-2.765,0-4.999-2.244-4.999-4.999
							c0-2.765,2.234-4.999,4.999-4.999C24.82,9.444,27.064,11.678,27.064,14.443z"/>
					</g>
				</g>
				<g>
					<g>
						<path class="st1" d="M26.015,14.443c0,2.182-1.767,3.949-3.949,3.949c-2.193,0-3.96-1.767-3.96-3.949
							c0-2.182,1.767-3.96,3.96-3.96C24.248,10.483,26.015,12.261,26.015,14.443z"/>
					</g>
				</g>
				<g>
					<g>
						<g>
							<circle class="st3" cx="23.314" cy="14.063" r="2.097"/>
						</g>
					</g>
					<g>
						<g>
							<path class="st1" d="M24.519,13.661c-0.13,0.13-0.401,0.09-0.601-0.1c-0.19-0.2-0.23-0.461-0.1-0.601
								c0.14-0.14,0.411-0.1,0.601,0.1C24.619,13.25,24.66,13.52,24.519,13.661z"/>
						</g>
					</g>
				</g>
			</g>
		</g>
	</g>
	<g>
		<g>
			<g>
				<path class="st3" d="M16.651,9.182c-0.146-0.235-0.073-0.544,0.161-0.69c1.566-0.974,4.045-2.21,7.487-1.699
					c0.274,0.041,0.463,0.295,0.422,0.569c-0.039,0.273-0.301,0.462-0.568,0.422c-3.082-0.461-5.258,0.592-6.812,1.559
					C17.105,9.489,16.797,9.418,16.651,9.182z"/>
			</g>
		</g>
		<g>
			<g>
				<path class="st3" d="M5.746,9.182C5.6,8.948,5.671,8.639,5.907,8.493c1.565-0.974,4.044-2.213,7.486-1.699
					c0.274,0.041,0.463,0.295,0.422,0.569c-0.04,0.273-0.299,0.462-0.568,0.422c-3.081-0.459-5.258,0.592-6.811,1.559
					C6.201,9.49,5.891,9.417,5.746,9.182z"/>
			</g>
		</g>
	</g>
</g>
</svg>
