<?xml version="1.0" encoding="utf-8"?>
<!-- Generator: Adobe Illustrator 21.1.0, SVG Export Plug-In . SVG Version: 6.00 Build 0)  -->
<svg version="1.1" id="Layer_1" xmlns="http://www.w3.org/2000/svg" xmlns:xlink="http://www.w3.org/1999/xlink" x="0px" y="0px"
	 viewBox="0 0 32 32" style="enable-background:new 0 0 32 32;" xml:space="preserve">
<style type="text/css">
	.st0{fill:#FFD93B;}
	.st1{fill:#FFFFFF;}
	.st2{fill:#89664C;}
	.st3{fill:#3E4347;}
	.st4{fill:#E24B4B;}
	.st5{fill:#F29A2E;}
	.st6{fill:#5A5F63;}
	.st7{fill:#E18823;}
	.st8{fill:#65B1EF;}
	.st9{fill:#D03F3F;}
	.st10{opacity:0.2;}
	.st11{fill:#DEE4E9;}
	.st12{fill:#45CBEA;}
	.st13{fill:#F4C534;}
	.st14{fill:#BF3333;}
	.st15{fill:#D23F77;}
	.st16{fill:#E84D88;}
	.st17{fill:#7A5B44;}
	.st18{fill:#6B503B;}
	.st19{opacity:0.2;fill:#FFFFFF;}
	.st20{fill:#4E99D2;}
	.st21{fill:none;}
	.st22{opacity:0.15;fill:#FFFFFF;}
	.st23{fill:#8CC63E;}
	.st24{fill:#9A795F;}
	.st25{fill:#E9EFF4;}
</style>
<g>
	<g>
		<circle class="st0" cx="13.787" cy="18.213" r="13.787"/>
		<circle class="st0" cx="13.787" cy="18.213" r="13.787"/>
		<path class="st13" d="M27.575,18.213C27.575,25.83,21.401,32,13.787,32c-4.334,0-8.203-1.999-10.733-5.132
			c2.365,1.913,5.377,3.055,8.656,3.055c7.613,0,13.787-6.17,13.787-13.787c0-3.279-1.142-6.29-3.055-8.656
			C25.571,10.009,27.575,13.878,27.575,18.213z"/>
	</g>
	<g>
		<path class="st25" d="M32,3.986c0,2.196-2.071,3.986-4.61,3.986c-2.552,0-4.61-1.791-4.61-3.986C22.779,1.78,24.838,0,27.39,0
			C29.929,0,32,1.78,32,3.986z"/>
	</g>
	<g>
		
			<ellipse transform="matrix(0.1314 -0.9913 0.9913 0.1314 16.1416 31.092)" class="st25" cx="25.813" cy="6.335" rx="2.636" ry="2.636"/>
	</g>
	<g>
		
			<ellipse transform="matrix(0.1314 -0.9913 0.9913 0.1314 10.2637 31.0475)" class="st25" cx="22.848" cy="9.667" rx="0.817" ry="0.817"/>
		
			<ellipse transform="matrix(0.1314 -0.9913 0.9913 0.1314 7.2963 31.4442)" class="st25" cx="21.591" cy="11.559" rx="0.635" ry="0.635"/>
	</g>
	<path class="st4" d="M27.747,5.076h-0.766c-0.012-0.632,0.034-0.885,0.613-1.356c0.263-0.214,0.553-0.401,0.553-0.718
		c0-0.305-0.25-0.598-0.727-0.598c-0.414,0-0.724,0.226-0.836,0.742L25.809,3.05c0.042-0.675,0.598-1.289,1.575-1.289
		c1.034,0,1.587,0.64,1.587,1.265c0,0.52-0.423,0.868-0.833,1.208C27.785,4.528,27.74,4.623,27.747,5.076z M26.981,6.212V5.368
		h0.845v0.845H26.981z"/>
	<g>
		<path class="st1" d="M12.863,16.692c0,2.32-1.87,4.19-4.18,4.19c-2.32,0-4.19-1.87-4.19-4.19c0-2.31,1.87-4.18,4.19-4.18
			C10.993,12.512,12.863,14.382,12.863,16.692z"/>
	</g>
	<g>
		<g>
			<path class="st3" d="M11.546,15.85c0,0.905-0.727,1.632-1.624,1.632c-0.905,0-1.632-0.727-1.632-1.632
				c0-0.897,0.727-1.624,1.632-1.624C10.819,14.227,11.546,14.954,11.546,15.85z"/>
		</g>
		<g>
			<path class="st1" d="M10.854,15.621c-0.138,0.127-0.39,0.061-0.58-0.135c-0.179-0.207-0.223-0.463-0.085-0.59
				c0.138-0.127,0.401-0.071,0.581,0.124C10.959,15.227,10.992,15.494,10.854,15.621z"/>
		</g>
	</g>
	<g>
		<path class="st1" d="M23.082,16.692c0,2.32-1.87,4.19-4.18,4.19c-2.32,0-4.19-1.87-4.19-4.19c0-2.31,1.87-4.18,4.19-4.18
			C21.212,12.512,23.082,14.382,23.082,16.692z"/>
	</g>
	<g>
		<g>
			<path class="st3" d="M21.764,15.85c0,0.905-0.727,1.632-1.624,1.632c-0.905,0-1.632-0.727-1.632-1.632
				c0-0.897,0.727-1.624,1.632-1.624C21.037,14.227,21.764,14.954,21.764,15.85z"/>
		</g>
		<g>
			<path class="st1" d="M21.072,15.621c-0.138,0.127-0.39,0.061-0.58-0.135c-0.179-0.207-0.223-0.463-0.085-0.59
				c0.138-0.127,0.401-0.071,0.581,0.124C21.178,15.227,21.211,15.494,21.072,15.621z"/>
		</g>
	</g>
	<path class="st3" d="M19.339,26.216c-0.205,0.486-1.101,0.507-1.436,0.248c-1.695-0.659-5.073-0.162-7.254,0.993
		c-0.82,0.432-1.857,0.216-2.31-0.594c-0.043-0.076-0.076-0.14-0.108-0.205c-0.874-2.461,1.619-6.347,5.559-3.962
		C17.719,25.115,20.224,24.748,19.339,26.216z"/>
	<path class="st4" d="M15.295,26.007c-0.051-0.84-0.511-1.57-1.199-1.972c-0.348-0.202-0.772-0.179-1.135-0.003
		c-0.256,0.124-0.556,0.196-0.905,0.196c0,0-0.003,0-0.006,0c-0.545,0-1.063,0.259-1.331,0.735
		c-0.173,0.313-0.272,0.668-0.295,1.045H15.295z"/>
	<path class="st1" d="M17.903,26.464c0.314,0.243,1.113,0.234,1.382-0.168c-1.025-0.735-3.165-0.649-5.648-0.649
		c-2.383,0-4.456-0.084-5.525,0.56c0.029,0.154,0.066,0.305,0.118,0.451c0.032,0.065,0.065,0.129,0.108,0.205
		c0.454,0.81,1.49,1.025,2.31,0.594C12.83,26.302,16.208,25.806,17.903,26.464z"/>
	<path class="st1" d="M13.021,23.3c0.616,0,1.209-0.009,1.771-0.031c-0.324-0.173-0.655-0.358-1.002-0.572
		c-2.097-1.27-3.777-0.756-4.765,0.367C10.11,23.249,11.502,23.3,13.021,23.3z"/>
</g>
</svg>
