<?xml version="1.0" encoding="utf-8"?>
<!-- Generator: Adobe Illustrator 21.1.0, SVG Export Plug-In . SVG Version: 6.00 Build 0)  -->
<svg version="1.1" id="Layer_1" xmlns="http://www.w3.org/2000/svg" xmlns:xlink="http://www.w3.org/1999/xlink" x="0px" y="0px"
	 viewBox="0 0 32 32" style="enable-background:new 0 0 32 32;" xml:space="preserve">
<style type="text/css">
	.st0{fill:#FFD93B;}
	.st1{fill:#FFFFFF;}
	.st2{fill:#89664C;}
	.st3{fill:#3E4347;}
	.st4{fill:#E24B4B;}
	.st5{fill:#F29A2E;}
	.st6{fill:#5A5F63;}
	.st7{fill:#E18823;}
	.st8{fill:#65B1EF;}
	.st9{fill:#D03F3F;}
	.st10{opacity:0.2;}
	.st11{fill:#DEE4E9;}
	.st12{fill:#45CBEA;}
	.st13{fill:#F4C534;}
	.st14{fill:#BF3333;}
	.st15{fill:#D23F77;}
	.st16{fill:#E84D88;}
	.st17{fill:#7A5B44;}
	.st18{fill:#6B503B;}
	.st19{opacity:0.2;fill:#FFFFFF;}
	.st20{fill:#4E99D2;}
	.st21{fill:none;}
	.st22{opacity:0.15;fill:#FFFFFF;}
	.st23{fill:#8CC63E;}
	.st24{fill:#9A795F;}
	.st25{fill:#E9EFF4;}
</style>
<g>
	<g>
		<circle class="st0" cx="16" cy="16" r="16"/>
	</g>
	<g>
		<circle class="st0" cx="16" cy="16" r="16"/>
	</g>
	<g>
		<path class="st13" d="M32,16c0,8.84-7.165,16-16,16c-5.03,0-9.52-2.32-12.455-5.955c2.745,2.22,6.24,3.545,10.045,3.545
			c8.835,0,16-7.16,16-16c0-3.805-1.325-7.3-3.545-10.045C29.675,6.48,32,10.97,32,16z"/>
	</g>
	<g>
		<path class="st13" d="M27.465,14.172c0,2.99-2.44,5.43-5.43,5.43c-3,0-5.44-2.44-5.44-5.43c0-3,2.44-5.44,5.44-5.44
			C25.025,8.732,27.465,11.172,27.465,14.172z"/>
	</g>
	<g>
		<path class="st13" d="M15.405,14.172c0,2.99-2.44,5.43-5.43,5.43c-3,0-5.44-2.44-5.44-5.43c0-3,2.44-5.44,5.44-5.44
			C12.965,8.732,15.405,11.172,15.405,14.172z"/>
	</g>
	<g>
		<g>
			<path class="st1" d="M14.151,14.173c0-2.32-1.87-4.19-4.18-4.19c-2.32,0-4.19,1.87-4.19,4.19c0,2.31,1.87,4.18,4.19,4.18
				C12.281,18.353,14.151,16.483,14.151,14.173z"/>
		</g>
	</g>
	<g>
		<g>
			<g>
				<path class="st3" d="M12.833,15.015c0-0.905-0.727-1.632-1.623-1.632c-0.905,0-1.632,0.727-1.632,1.632
					c0,0.897,0.727,1.624,1.632,1.624C12.106,16.639,12.833,15.911,12.833,15.015z"/>
			</g>
		</g>
		<g>
			<g>
				<path class="st1" d="M12.142,15.244c-0.138-0.127-0.39-0.061-0.58,0.135c-0.179,0.207-0.223,0.463-0.085,0.59
					c0.138,0.127,0.401,0.071,0.581-0.124C12.247,15.638,12.28,15.371,12.142,15.244z"/>
			</g>
		</g>
	</g>
	<g>
		<g>
			<path class="st1" d="M26.219,14.173c0-2.32-1.87-4.19-4.18-4.19c-2.32,0-4.19,1.87-4.19,4.19c0,2.31,1.87,4.18,4.19,4.18
				C24.349,18.353,26.219,16.483,26.219,14.173z"/>
		</g>
	</g>
	<g>
		<g>
			<g>
				<path class="st3" d="M24.902,15.015c0-0.905-0.727-1.632-1.623-1.632c-0.905,0-1.632,0.727-1.632,1.632
					c0,0.897,0.727,1.624,1.632,1.624C24.175,16.639,24.902,15.911,24.902,15.015z"/>
			</g>
		</g>
		<g>
			<g>
				<path class="st1" d="M24.21,15.244c-0.138-0.127-0.39-0.061-0.58,0.135c-0.179,0.207-0.223,0.463-0.085,0.59
					c0.138,0.127,0.401,0.071,0.581-0.124C24.315,15.638,24.348,15.371,24.21,15.244z"/>
			</g>
		</g>
	</g>
	<g>
		<path class="st3" d="M26.156,8.242c-2.801-2.77-6.299-2.207-6.443-2.18c-0.341,0.061-0.662-0.168-0.723-0.508
			c-0.059-0.339,0.167-0.663,0.506-0.723c0.173-0.031,4.269-0.712,7.539,2.522c0.245,0.243,0.248,0.639,0.005,0.884
			C26.801,8.479,26.405,8.488,26.156,8.242z"/>
	</g>
	<g>
		<path class="st3" d="M4.961,8.238C4.717,7.992,4.72,7.596,4.965,7.354c3.27-3.235,7.367-2.555,7.539-2.522
			c0.339,0.06,0.564,0.383,0.506,0.723c-0.061,0.339-0.382,0.565-0.723,0.508c-0.148-0.027-3.644-0.59-6.443,2.18
			C5.595,8.488,5.2,8.479,4.961,8.238z"/>
	</g>
	<g>
		<path class="st3" d="M21.474,25.122c-0.299,0.563-1.017,0.815-1.662,0.557h-0.008c-2.455-1.012-5.154-1.012-7.609,0
			c-0.641,0.253-1.367,0.008-1.67-0.557c-0.347-0.637,0.051-1.433,0.734-1.713c3.062-1.257,6.428-1.257,9.482,0
			C21.442,23.696,21.82,24.486,21.474,25.122z"/>
	</g>
</g>
</svg>
