<?xml version="1.0" encoding="utf-8"?>
<!-- Generator: Adobe Illustrator 21.1.0, SVG Export Plug-In . SVG Version: 6.00 Build 0)  -->
<svg version="1.1" id="Layer_1" xmlns="http://www.w3.org/2000/svg" xmlns:xlink="http://www.w3.org/1999/xlink" x="0px" y="0px"
	 viewBox="0 0 32 32" style="enable-background:new 0 0 32 32;" xml:space="preserve">
<style type="text/css">
	.st0{fill:#FFD93B;}
	.st1{fill:#FFFFFF;}
	.st2{fill:#89664C;}
	.st3{fill:#3E4347;}
	.st4{fill:#E24B4B;}
	.st5{fill:#F29A2E;}
	.st6{fill:#5A5F63;}
	.st7{fill:#E18823;}
	.st8{fill:#65B1EF;}
	.st9{fill:#D03F3F;}
	.st10{opacity:0.2;}
	.st11{fill:#DEE4E9;}
	.st12{fill:#45CBEA;}
	.st13{fill:#F4C534;}
	.st14{fill:#BF3333;}
	.st15{fill:#D23F77;}
	.st16{fill:#E84D88;}
	.st17{fill:#7A5B44;}
	.st18{fill:#6B503B;}
	.st19{opacity:0.2;fill:#FFFFFF;}
	.st20{fill:#4E99D2;}
	.st21{fill:none;}
	.st22{opacity:0.15;fill:#FFFFFF;}
	.st23{fill:#8CC63E;}
	.st24{fill:#9A795F;}
	.st25{fill:#E9EFF4;}
</style>
<g>
	<g>
		<g>
			<circle class="st0" cx="16" cy="16" r="16"/>
		</g>
	</g>
	<g>
		<g>
			<circle class="st0" cx="16" cy="16" r="16"/>
		</g>
	</g>
	<g>
		<g>
			<path class="st13" d="M32,16c0,8.84-7.165,16-16,16c-5.03,0-9.52-2.32-12.455-5.955c2.745,2.22,6.24,3.545,10.045,3.545
				c8.835,0,16-7.16,16-16c0-3.805-1.325-7.3-3.545-10.045C29.675,6.48,32,10.97,32,16z"/>
		</g>
	</g>
	<g>
		<path class="st4" d="M15.846,24.094c-0.902,0-1.711-0.142-2.435-0.391c-1.437-0.07-2.642-0.488-3.598-1.16
			c-0.756,4.073,0.334,6.635,2.302,7.092c2.027,0.471,4.213-1.449,5.301-5.695C16.926,24.04,16.404,24.094,15.846,24.094z"/>
	</g>
	<g>
		<g>
			<g>
				<path class="st13" d="M27.465,12.507c0-2.99-2.44-5.43-5.43-5.43c-3,0-5.44,2.44-5.44,5.43c0,3,2.44,5.44,5.44,5.44
					C25.025,17.947,27.465,15.507,27.465,12.507z"/>
			</g>
		</g>
		<g>
			<g>
				<g>
					<path class="st1" d="M26.219,12.506c0,2.32-1.87,4.19-4.18,4.19c-2.32,0-4.19-1.87-4.19-4.19c0-2.31,1.87-4.18,4.19-4.18
						C24.349,8.326,26.219,10.196,26.219,12.506z"/>
				</g>
			</g>
		</g>
		<g>
			<g>
				<g>
					<g>
						<g>
							<circle class="st3" cx="23.076" cy="11.866" r="2.13"/>
						</g>
					</g>
				</g>
			</g>
			<g>
				<g>
					<g>
						<path class="st1" d="M24.21,11.435c-0.138,0.127-0.39,0.061-0.58-0.135c-0.179-0.207-0.223-0.463-0.085-0.59
							c0.138-0.127,0.401-0.071,0.581,0.125C24.315,11.041,24.348,11.308,24.21,11.435z"/>
					</g>
				</g>
			</g>
		</g>
	</g>
	<g>
		<g>
			<path class="st13" d="M15.405,14.162c0-2.99-2.44-5.43-5.43-5.43c-3,0-5.44,2.44-5.44,5.43c0,3,2.44,5.44,5.44,5.44
				C12.965,19.602,15.405,17.162,15.405,14.162z"/>
		</g>
	</g>
	<g>
		<g>
			<g>
				<path class="st1" d="M14.151,14.161c0,2.32-1.87,4.19-4.18,4.19c-2.32,0-4.19-1.87-4.19-4.19c0-2.31,1.87-4.18,4.19-4.18
					C12.281,9.981,14.151,11.851,14.151,14.161z"/>
			</g>
		</g>
	</g>
	<g>
		<path class="st3" d="M13.136,13.521c0,1.17-0.95,2.13-2.13,2.13c-1.17,0-2.13-0.96-2.13-2.13s0.96-2.13,2.13-2.13
			C12.186,11.391,13.136,12.351,13.136,13.521z"/>
	</g>
	<g>
		<g>
			<g>
				<g>
					<path class="st1" d="M12.142,13.09c-0.138,0.127-0.39,0.061-0.58-0.135c-0.179-0.207-0.223-0.463-0.085-0.59
						c0.138-0.127,0.401-0.071,0.581,0.125C12.247,12.696,12.28,12.963,12.142,13.09z"/>
				</g>
			</g>
		</g>
	</g>
	<g>
		<path class="st3" d="M16.82,6.66c-0.258-0.229-0.28-0.624-0.051-0.882c0.137-0.153,3.381-3.707,8.642-1.883
			c0.326,0.113,0.498,0.469,0.386,0.795c-0.113,0.327-0.469,0.5-0.796,0.386c-4.482-1.555-7.27,1.503-7.298,1.534
			C17.475,6.865,17.079,6.89,16.82,6.66z"/>
	</g>
	<g>
		<path class="st3" d="M13.588,8.51C9.964,5.453,6.264,7.303,6.226,7.323C5.92,7.482,5.542,7.359,5.384,7.054
			C5.226,6.747,5.346,6.37,5.654,6.212c0.181-0.093,4.482-2.249,8.741,1.344c0.264,0.222,0.297,0.617,0.074,0.88
			C14.247,8.7,13.851,8.733,13.588,8.51z"/>
	</g>
	<g>
		<path class="st3" d="M7.159,20.484c1,0.625,3.297,2.358,7.079,2.815c3.039,0.447,6.41,0.111,7.796,0.123
			c-2.189,0.95-5.076,1.472-7.97,1.114C11.235,24.108,8.792,22.883,7.159,20.484z"/>
	</g>
</g>
</svg>
