<?xml version="1.0" encoding="utf-8"?>
<!-- Generator: Adobe Illustrator 21.1.0, SVG Export Plug-In . SVG Version: 6.00 Build 0)  -->
<svg version="1.1" id="Layer_1" xmlns="http://www.w3.org/2000/svg" xmlns:xlink="http://www.w3.org/1999/xlink" x="0px" y="0px"
	 viewBox="0 0 32 32" style="enable-background:new 0 0 32 32;" xml:space="preserve">
<style type="text/css">
	.st0{fill:#FFD93B;}
	.st1{fill:#FFFFFF;}
	.st2{fill:#89664C;}
	.st3{fill:#3E4347;}
	.st4{fill:#E24B4B;}
	.st5{fill:#F29A2E;}
	.st6{fill:#5A5F63;}
	.st7{fill:#E18823;}
	.st8{fill:#65B1EF;}
	.st9{fill:#D03F3F;}
	.st10{opacity:0.2;}
	.st11{fill:#DEE4E9;}
	.st12{fill:#45CBEA;}
	.st13{fill:#F4C534;}
	.st14{fill:#BF3333;}
	.st15{fill:#D23F77;}
	.st16{fill:#E84D88;}
	.st17{fill:#7A5B44;}
	.st18{fill:#6B503B;}
	.st19{opacity:0.2;fill:#FFFFFF;}
	.st20{fill:#4E99D2;}
	.st21{fill:none;}
	.st22{opacity:0.15;fill:#FFFFFF;}
	.st23{fill:#8CC63E;}
	.st24{fill:#9A795F;}
	.st25{fill:#E9EFF4;}
</style>
<g>
	<circle class="st0" cx="16" cy="16" r="16"/>
	<path class="st13" d="M32,16c0,8.84-7.165,16-16,16c-5.03,0-9.52-2.32-12.455-5.955c2.745,2.22,6.24,3.545,10.045,3.545
		c8.835,0,16-7.16,16-16c0-3.805-1.325-7.3-3.545-10.045C29.675,6.48,32,10.97,32,16z"/>
	<path class="st4" d="M17.532,11.413c-1.346,2.794-0.375,5.787,3.024,6.708c3.002,0.814,6.497-0.436,7.294-2.795
		c0.758-2.243-1.036-5.124-3.545-6.339C21.502,7.63,18.797,8.789,17.532,11.413z"/>
	<circle class="st3" cx="20.025" cy="13.972" r="1.819"/>
	
		<ellipse transform="matrix(0.7071 -0.7071 0.7071 0.7071 -3.3357 18.5331)" class="st1" cx="20.704" cy="13.293" rx="0.344" ry="0.521"/>
	<path class="st4" d="M14.468,11.413c1.346,2.794,0.375,5.787-3.024,6.708c-3.002,0.814-6.497-0.436-7.294-2.795
		c-0.758-2.243,1.037-5.124,3.545-6.339C10.498,7.63,13.203,8.789,14.468,11.413z"/>
	<circle class="st3" cx="11.975" cy="13.972" r="1.819"/>
	
		<ellipse transform="matrix(0.7071 -0.7072 0.7072 0.7071 -5.6934 12.8424)" class="st1" cx="12.654" cy="13.293" rx="0.344" ry="0.521"/>
	<path class="st3" d="M22.656,25.991c-0.513,0.832-1.959,1.432-3.206,1.735c-2.241,0.533-10.754,0.871-10.516-2.639
		c0.086-1.196,1.383-2.561,3.083-3.431C17.288,18.957,24.935,22.297,22.656,25.991z"/>
	<path class="st4" d="M19.451,27.726c0.435-0.106,0.894-0.25,1.329-0.426c-0.285-1.322-1.158-2.428-2.347-3.006
		c-0.498-0.243-1.077-0.17-1.572,0.089c-0.369,0.19-0.807,0.3-1.319,0.293c-0.181-0.002-0.356-0.02-0.521-0.052
		c-0.53-0.098-1.085,0.055-1.481,0.426c-0.735,0.693-1.206,1.641-1.32,2.702C14.801,28.271,18.162,28.033,19.451,27.726z"/>
	<path class="st1" d="M12.519,21.42l-0.16,1.675c-0.007,0.07,0.029,0.139,0.093,0.172l0.402,0.214
		c0.053,0.029,0.119,0.026,0.172-0.004l0.929-0.568c0.042-0.024,0.073-0.068,0.082-0.117l0.354-1.937
		C13.753,20.977,13.123,21.16,12.519,21.42z"/>
	<path class="st1" d="M20.177,23.386l1.235-1.292c-0.474-0.321-1.028-0.599-1.641-0.822l-1.162,1.445
		c-0.045,0.056-0.053,0.132-0.017,0.195l0.218,0.4c0.029,0.053,0.085,0.088,0.147,0.091l1.088,0.036
		C20.093,23.442,20.143,23.422,20.177,23.386z"/>
	<path class="st1" d="M17.664,26.061c-0.008-0.071-0.056-0.131-0.126-0.15l-0.437-0.129c-0.058-0.017-0.122-0.002-0.168,0.04
		l-0.794,0.744c-0.036,0.032-0.058,0.082-0.057,0.131l0.031,1.357c0.633-0.011,1.226-0.046,1.757-0.096L17.664,26.061z"/>
</g>
</svg>
