<?xml version="1.0" encoding="utf-8"?>
<!-- Generator: Adobe Illustrator 21.1.0, SVG Export Plug-In . SVG Version: 6.00 Build 0)  -->
<svg version="1.1" id="Layer_1" xmlns="http://www.w3.org/2000/svg" xmlns:xlink="http://www.w3.org/1999/xlink" x="0px" y="0px"
	 viewBox="0 0 32 32" style="enable-background:new 0 0 32 32;" xml:space="preserve">
<style type="text/css">
	.st0{fill:#FFD93B;}
	.st1{fill:#FFFFFF;}
	.st2{fill:#89664C;}
	.st3{fill:#3E4347;}
	.st4{fill:#E24B4B;}
	.st5{fill:#F29A2E;}
	.st6{fill:#5A5F63;}
	.st7{fill:#E18823;}
	.st8{fill:#65B1EF;}
	.st9{fill:#D03F3F;}
	.st10{opacity:0.2;}
	.st11{fill:#DEE4E9;}
	.st12{fill:#45CBEA;}
	.st13{fill:#F4C534;}
	.st14{fill:#BF3333;}
	.st15{fill:#D23F77;}
	.st16{fill:#E84D88;}
	.st17{fill:#7A5B44;}
	.st18{fill:#6B503B;}
	.st19{opacity:0.2;fill:#FFFFFF;}
	.st20{fill:#4E99D2;}
	.st21{fill:none;}
	.st22{opacity:0.15;fill:#FFFFFF;}
	.st23{fill:#8CC63E;}
	.st24{fill:#9A795F;}
	.st25{fill:#E9EFF4;}
</style>
<g>
	<g>
		<circle class="st0" cx="16" cy="16" r="16"/>
		<path class="st13" d="M32,16c0,8.84-7.165,16-16,16c-5.03,0-9.52-2.32-12.455-5.955c2.745,2.22,6.24,3.545,10.045,3.545
			c8.835,0,16-7.16,16-16c0-3.805-1.325-7.3-3.545-10.045C29.675,6.48,32,10.97,32,16z"/>
	</g>
	<g>
		<path class="st1" d="M24.871,15.909c0,2.6-1.769,4.717-3.935,4.717c-2.174,0-3.935-2.117-3.935-4.717s1.761-4.717,3.935-4.717
			C23.102,11.192,24.871,13.309,24.871,15.909z"/>
		<path class="st1" d="M14.998,15.909c0,2.6-1.769,4.717-3.935,4.717c-2.174,0-3.935-2.117-3.935-4.717s1.761-4.717,3.935-4.717
			C13.229,11.192,14.998,13.309,14.998,15.909z"/>
		<path class="st3" d="M13.003,16.687c0,1.071-0.864,1.935-1.944,1.935c-1.071,0-1.935-0.864-1.935-1.935
			c0-1.071,0.864-1.935,1.935-1.935C12.139,14.752,13.003,15.616,13.003,16.687z"/>
		
			<ellipse transform="matrix(0.7071 -0.7072 0.7072 0.7071 -7.8514 13.0062)" class="st1" cx="11.773" cy="15.98" rx="0.337" ry="0.557"/>
		<path class="st3" d="M22.946,16.687c0,1.071-0.864,1.935-1.944,1.935c-1.071,0-1.935-0.864-1.935-1.935
			c0-1.071,0.864-1.935,1.935-1.935C22.082,14.752,22.946,15.616,22.946,16.687z"/>
		
			<ellipse transform="matrix(0.7071 -0.7071 0.7071 0.7071 -4.9388 20.037)" class="st1" cx="21.716" cy="15.98" rx="0.337" ry="0.557"/>
		<path class="st3" d="M24.766,10.009c-0.19,0.233-0.544,0.296-0.812,0.095c-1.849-1.46-3.551-1.667-5.192-0.639
			c-0.276,0.173-0.639,0.087-0.803-0.181c-0.173-0.277-0.095-0.639,0.181-0.812c2.082-1.305,4.285-1.063,6.531,0.717
			C24.921,9.387,24.965,9.75,24.766,10.009z"/>
		<path class="st3" d="M7.234,10.009c0.19,0.233,0.544,0.296,0.812,0.095c1.849-1.46,3.551-1.667,5.192-0.639
			c0.276,0.173,0.639,0.087,0.803-0.181c0.173-0.277,0.095-0.639-0.181-0.812c-2.082-1.305-4.285-1.063-6.531,0.717
			C7.079,9.387,7.036,9.75,7.234,10.009z"/>
	</g>
	<g>
		<path class="st3" d="M27.361,17.924c1.354-0.806-1.305,9.433-11.297,9.632C6.062,27.402,3.435,17.098,4.825,17.892
			c0.276-0.309,3.499,7.58,11.255,7.473C23.825,25.471,27.104,17.621,27.361,17.924z"/>
		<path class="st1" d="M19.883,24.725c-0.047,0.577-0.109,1.156-0.187,1.735c-0.021,0.141-0.254,0.291-0.54,0.335
			c-0.76,0.118-1.526,0.192-2.293,0.223c-0.274,0.011-0.518-0.091-0.531-0.219c-0.05-0.479-0.096-0.957-0.139-1.436
			C17.513,25.371,18.769,25.131,19.883,24.725z"/>
		<path class="st1" d="M15.96,25.363c-0.05,0.479-0.104,0.958-0.161,1.436c-0.014,0.127-0.258,0.231-0.532,0.22
			c-0.762-0.03-1.523-0.102-2.279-0.218c-0.3-0.045-0.533-0.196-0.553-0.337c-0.069-0.583-0.123-1.165-0.162-1.747
			C13.385,25.125,14.641,25.372,15.96,25.363z"/>
	</g>
</g>
</svg>
