<?xml version="1.0" encoding="utf-8"?>
<!-- Generator: Adobe Illustrator 21.1.0, SVG Export Plug-In . SVG Version: 6.00 Build 0)  -->
<svg version="1.1" id="Layer_1" xmlns="http://www.w3.org/2000/svg" xmlns:xlink="http://www.w3.org/1999/xlink" x="0px" y="0px"
	 viewBox="0 0 32 32" style="enable-background:new 0 0 32 32;" xml:space="preserve">
<style type="text/css">
	.st0{fill:#FFD93B;}
	.st1{fill:#FFFFFF;}
	.st2{fill:#89664C;}
	.st3{fill:#3E4347;}
	.st4{fill:#E24B4B;}
	.st5{fill:#F29A2E;}
	.st6{fill:#5A5F63;}
	.st7{fill:#E18823;}
	.st8{fill:#65B1EF;}
	.st9{fill:#D03F3F;}
	.st10{opacity:0.2;}
	.st11{fill:#DEE4E9;}
	.st12{fill:#45CBEA;}
	.st13{fill:#F4C534;}
	.st14{fill:#BF3333;}
	.st15{fill:#D23F77;}
	.st16{fill:#E84D88;}
	.st17{fill:#7A5B44;}
	.st18{fill:#6B503B;}
	.st19{opacity:0.2;fill:#FFFFFF;}
	.st20{fill:#4E99D2;}
	.st21{fill:none;}
	.st22{opacity:0.15;fill:#FFFFFF;}
	.st23{fill:#8CC63E;}
	.st24{fill:#9A795F;}
	.st25{fill:#E9EFF4;}
</style>
<g>
	<g>
		<g>
			<g>
				<g>
					<ellipse class="st0" cx="15.999" cy="15.674" rx="14.305" ry="14.3"/>
				</g>
				<g>
					<g>
						<path class="st0" d="M31.308,17.206l-1.302,4.367c-0.93,3.094-2.82,5.698-5.277,7.529C22.261,30.943,19.226,32,16.005,32
							c-6.462,0-12.15-4.239-14.01-10.427l-1.302-4.367c-0.176-0.587,0.264-1.185,0.881-1.185h28.853
							C31.043,16.022,31.484,16.619,31.308,17.206z"/>
					</g>
					<g>
						<path class="st1" d="M23.419,22.816c0,4.097-3.321,7.855-7.418,7.855c-4.097,0-7.418-3.759-7.418-7.855
							c0-4.097,3.321-6.227,7.418-6.227C20.098,16.59,23.419,18.72,23.419,22.816z"/>
					</g>
					<g>
						<path class="st7" d="M18.493,19.223c0,0.919-1.095,1.717-1.838,2.153c-0.408,0.232-0.9,0.232-1.309,0
							c-0.733-0.436-1.838-1.235-1.838-2.153c0-1.374,1.114-1.912,2.497-1.912C17.38,17.311,18.493,17.85,18.493,19.223z"/>
					</g>
					<g>
						<g>
							<g>
								<path class="st0" d="M12.365,3.093l0.693,7.221l-11.096,4.12V1.459c0-1.054,1.085-1.759,2.048-1.332l7.049,3.129
									L12.365,3.093z"/>
							</g>
							<g>
								<path class="st7" d="M9.441,5.766L4.748,3.281C4.553,3.178,4.319,3.319,4.319,3.539v5.729c0,0.236,0.265,0.375,0.459,0.241
									l4.694-3.244C9.651,6.14,9.635,5.868,9.441,5.766z"/>
							</g>
						</g>
						<g>
							<g>
								<path class="st0" d="M19.637,3.093l-0.694,7.221l11.096,4.12V1.459c0-1.054-1.085-1.759-2.048-1.332l-7.049,3.129
									L19.637,3.093z"/>
							</g>
							<g>
								<path class="st7" d="M22.561,5.766l4.694-2.485c0.195-0.103,0.429,0.038,0.429,0.258v5.729c0,0.236-0.265,0.375-0.458,0.241
									l-4.694-3.244C22.351,6.14,22.367,5.868,22.561,5.766z"/>
							</g>
						</g>
					</g>
				</g>
				<g>
					<path class="st3" d="M21.957,23.754c-0.38,3-2.9,5.59-5.96,5.59c-3.05,0-5.57-2.58-5.95-5.59c-0.03-0.24,0.19-0.44,0.44-0.4
						c3.49,0.56,7.17,0.56,11.03-0.01C21.767,23.304,21.987,23.504,21.957,23.754z"/>
				</g>
				<g>
					<path class="st1" d="M15.997,28.551c-2.365,0-4.485-1.842-5.022-4.275c1.554,0.226,3.202,0.342,4.866,0.342h0
						c1.686,0,3.429-0.119,5.19-0.354C20.499,26.701,18.371,28.551,15.997,28.551z"/>
				</g>
				<g>
					<path class="st3" d="M18.741,26.71c0.384-0.028,0.768-0.065,1.151-0.105c0.177-0.217,0.34-0.446,0.484-0.689l-0.161-1.57
						c-0.117,0.013-0.232,0.023-0.349,0.035l0.19,1.858c-0.445,0.048-0.891,0.09-1.338,0.122l-0.114-1.852
						c-0.117,0.008-0.233,0.018-0.349,0.025l0.114,1.848c-0.448,0.028-0.896,0.049-1.344,0.061l-0.038-1.865
						c-0.116,0.004-0.234,0.01-0.349,0.012l0.038,1.86c-0.449,0.008-0.898,0.008-1.347,0l0.038-1.849
						c-0.117-0.002-0.233-0.009-0.35-0.012l-0.038,1.854c-0.448-0.012-0.896-0.033-1.344-0.061l0.113-1.837
						c-0.116-0.007-0.235-0.004-0.35-0.012l-0.112,1.828c-0.446-0.032-0.892-0.074-1.338-0.122l0.189-1.839
						c-0.116-0.012-0.233-0.023-0.349-0.037l-0.16,1.558c0.143,0.242,0.305,0.468,0.48,0.684c0.385,0.04,0.77,0.077,1.156,0.105
						l-0.056,0.912c0.112,0.079,0.219,0.166,0.337,0.236l0.069-1.127c0.453,0.028,0.906,0.049,1.359,0.062l-0.033,1.622
						c0.115,0.027,0.231,0.051,0.348,0.069l0.034-1.684c0.227,0.004,0.454,0.014,0.681,0.014c0.227,0,0.454-0.01,0.68-0.014
						l0.034,1.682c0.118-0.019,0.233-0.043,0.348-0.071l-0.033-1.618c0.453-0.012,0.906-0.033,1.358-0.062l0.069,1.122
						c0.118-0.07,0.224-0.157,0.336-0.236L18.741,26.71z"/>
				</g>
			</g>
		</g>
		<g>
			<g>
				<path class="st3" d="M14.16,12.902c0.108,0.333,0.165,0.672,0.159,1.01c-0.823-1.079-2.406-1.554-3.938-1.057
					c-1.522,0.493-2.526,1.807-2.559,3.163c-0.203-0.27-0.356-0.578-0.464-0.911c-0.589-1.817,0.455-3.785,2.329-4.392
					C11.571,10.104,13.571,11.085,14.16,12.902z"/>
			</g>
			<g>
				<path class="st3" d="M17.84,12.902c-0.108,0.333-0.165,0.672-0.159,1.01c0.823-1.079,2.406-1.554,3.938-1.057
					c1.522,0.493,2.526,1.807,2.559,3.163c0.203-0.27,0.356-0.578,0.464-0.911c0.589-1.817-0.455-3.785-2.329-4.392
					C20.429,10.104,18.428,11.085,17.84,12.902z"/>
			</g>
		</g>
	</g>
	<g>
		<g>
			<g>
				<path class="st8" d="M28.984,15.315c0.556,0.601,0.519,1.537-0.083,2.092c-0.602,0.555-1.54,0.517-2.096-0.083
					c-0.556-0.601-1.151-3.524-1.151-3.524S28.428,14.715,28.984,15.315z"/>
			</g>
			<g>
				<path class="st8" d="M28.758,23.683c0.118,1.186-0.748,2.243-1.936,2.361c-1.188,0.118-2.246-0.749-2.364-1.935
					c-0.118-1.186,1.761-5.11,1.761-5.11S28.64,22.497,28.758,23.683z"/>
			</g>
		</g>
		<g>
			<g>
				<path class="st8" d="M3.016,15.315c-0.556,0.601-0.519,1.537,0.083,2.092c0.602,0.555,1.54,0.517,2.096-0.083
					c0.556-0.601,1.151-3.524,1.151-3.524S3.572,14.715,3.016,15.315z"/>
			</g>
			<g>
				<path class="st8" d="M3.242,23.683c-0.118,1.186,0.749,2.243,1.936,2.361c1.188,0.118,2.246-0.749,2.364-1.935
					c0.118-1.186-1.761-5.11-1.761-5.11S3.36,22.497,3.242,23.683z"/>
			</g>
		</g>
	</g>
</g>
</svg>
