<?xml version="1.0" encoding="utf-8"?>
<!-- Generator: Adobe Illustrator 21.1.0, SVG Export Plug-In . SVG Version: 6.00 Build 0)  -->
<svg version="1.1" id="Layer_1" xmlns="http://www.w3.org/2000/svg" xmlns:xlink="http://www.w3.org/1999/xlink" x="0px" y="0px"
	 viewBox="0 0 32 32" style="enable-background:new 0 0 32 32;" xml:space="preserve">
<style type="text/css">
	.st0{fill:#FFD93B;}
	.st1{fill:#3E4347;}
	.st2{fill:#F4C534;}
	.st3{fill:#38C0DC;}
	.st4{fill:#45CBEA;}
	.st5{fill:#FFFFFF;}
	.st6{fill:#E24B4B;}
	.st7{fill:#5A5F63;}
	.st8{opacity:0.3;}
	.st9{opacity:0.2;}
	.st10{opacity:0.1;}
	.st11{fill:#E9B02C;}
	.st12{fill:#65B1EF;}
	.st13{fill:#E9EFF4;}
	.st14{fill:#8CC63E;}
	.st15{fill:#7FB239;}
	.st16{fill:#D03F3F;}
	.st17{fill:#D23F77;}
	.st18{fill:#E84D88;}
	.st19{fill:#59A5E0;}
	.st20{fill:#DEE4E9;}
	.st21{fill:#D3D9DD;}
	.st22{opacity:0.25;fill:#FFFFFF;}
	.st23{fill:#9A795F;}
	.st24{fill:#F29A2E;}
	.st25{fill:#FC97B2;}
	.st26{fill:#89664C;}
	.st27{fill:#7A5B44;}
	.st28{opacity:0.2;fill:#FFFFFF;}
	.st29{fill:#4E99D2;}
	.st30{fill:#BBC7D1;}
	.st31{fill:#DE9C25;}
</style>
<g>
	<g>
		<circle class="st0" cx="16" cy="17.918" r="14.082"/>
		<path class="st2" d="M30.082,17.918C30.082,25.699,23.776,32,16,32c-4.427,0-8.378-2.042-10.962-5.241
			c2.416,1.954,5.492,3.12,8.841,3.12c7.776,0,14.082-6.301,14.082-14.082c0-3.349-1.166-6.425-3.12-8.841
			C28.035,9.54,30.082,13.492,30.082,17.918z"/>
	</g>
	<g>
		<path class="st1" d="M9.435,21.462c-0.076,0.304-0.119,0.617-0.119,0.937c0,2.79,2.993,5.052,6.685,5.052
			c3.692,0,6.686-2.262,6.686-5.052c0-0.321-0.044-0.633-0.12-0.937H9.435z"/>
	</g>
	<g>
		<path class="st26" d="M26.815,4.7c-4.223-3.352-6.592,4.778-14.284,3.261c-4.297-0.823-3.826-5.748,0.535-7.274
			C14.37,0.232,15.761,0.112,17.136,0c-0.312,0.432-0.631,0.863-0.943,1.295c1.511-0.943,3.437-1.175,5.132-0.615
			c-0.504,0.096-0.935,0.48-1.079,0.967C22.899,0.155,26.247,1.721,26.815,4.7z"/>
	</g>
	<g>
		<g>
			<g>
				<path class="st5" d="M14.786,15.103c0,2.763-1.857,5.016-4.128,5.016c-2.279,0-4.136-2.253-4.136-5.016
					c0-2.764,1.857-5.008,4.136-5.008C12.928,10.096,14.786,12.34,14.786,15.103z"/>
				<ellipse class="st5" cx="21.351" cy="15.106" rx="4.128" ry="5.012"/>
			</g>
		</g>
		<g>
			<g>
				<g>
					<circle class="st1" cx="10.973" cy="16.433" r="1.883"/>
				</g>
				<g>
					
						<ellipse transform="matrix(0.7071 -0.7071 0.7071 0.7071 -7.7431 12.846)" class="st5" cx="11.636" cy="15.77" rx="0.373" ry="0.575"/>
				</g>
			</g>
		</g>
		<g>
			<g>
				<g>
					<circle class="st1" cx="21.033" cy="16.433" r="1.883"/>
				</g>
				<g>
					
						<ellipse transform="matrix(0.7071 -0.7071 0.7071 0.7071 -5.1848 19.0234)" class="st5" cx="20.37" cy="15.77" rx="0.575" ry="0.373"/>
				</g>
			</g>
		</g>
	</g>
	<g>
		<g>
			<g>
				<path class="st26" d="M19.615,24.078c-2.027-0.273-3.127-0.918-3.615-1.679c-0.496,0.761-1.589,1.406-3.615,1.679
					c-9.357,1.349-8.852-3.293-7.628-4.501c0.381-0.372,1.034-0.463,1.423-0.116c-0.405,0-0.711,0.422-0.711,0.827
					c0.016,0.852,0.505,1.787,1.696,1.828c2.473,0.074,3.102-2.126,4.219-3.094c0.819-0.728,1.994-0.985,2.97-0.571
					c0.629,0.273,1.274,0.885,1.646,1.605c0.372-0.728,1.009-1.332,1.638-1.605c0.984-0.414,2.151-0.157,2.978,0.571
					c1.109,0.968,1.737,3.169,4.219,3.094c1.191-0.041,1.679-0.976,1.688-1.828c0.008-0.405-0.306-0.827-0.712-0.827
					c0.397-0.347,1.051-0.256,1.431,0.116C28.468,20.786,28.972,25.427,19.615,24.078z"/>
			</g>
		</g>
	</g>
	<g>
		<path class="st6" d="M15.982,24.616c-0.398,0.199-0.841,0.288-1.267,0.282c-1.123-0.015-2.13,0.658-2.451,1.69
			c1.067,0.544,2.353,0.862,3.737,0.862c1.394,0,2.688-0.323,3.76-0.875C19.229,24.381,17.414,23.914,15.982,24.616z"/>
	</g>
</g>
</svg>
