<?xml version="1.0" encoding="utf-8"?>
<!-- Generator: Adobe Illustrator 21.1.0, SVG Export Plug-In . SVG Version: 6.00 Build 0)  -->
<svg version="1.1" id="Layer_1" xmlns="http://www.w3.org/2000/svg" xmlns:xlink="http://www.w3.org/1999/xlink" x="0px" y="0px"
	 viewBox="0 0 32 32" style="enable-background:new 0 0 32 32;" xml:space="preserve">
<style type="text/css">
	.st0{fill:#FFD93B;}
	.st1{fill:#FFFFFF;}
	.st2{fill:#89664C;}
	.st3{fill:#3E4347;}
	.st4{fill:#E24B4B;}
	.st5{fill:#F29A2E;}
	.st6{fill:#5A5F63;}
	.st7{fill:#E18823;}
	.st8{fill:#65B1EF;}
	.st9{fill:#D03F3F;}
	.st10{opacity:0.2;}
	.st11{fill:#DEE4E9;}
	.st12{fill:#45CBEA;}
	.st13{fill:#F4C534;}
	.st14{fill:#BF3333;}
	.st15{fill:#D23F77;}
	.st16{fill:#E84D88;}
	.st17{fill:#7A5B44;}
	.st18{fill:#6B503B;}
	.st19{opacity:0.2;fill:#FFFFFF;}
	.st20{fill:#4E99D2;}
	.st21{fill:none;}
	.st22{opacity:0.15;fill:#FFFFFF;}
	.st23{fill:#8CC63E;}
	.st24{fill:#9A795F;}
	.st25{fill:#E9EFF4;}
</style>
<g>
	<g>
		<g>
			<g>
				<path class="st0" d="M30.299,15.674c0,7.89-6.4,14.29-14.3,14.29c-7.9,0-14.3-6.4-14.3-14.29c0-7.9,6.4-14.3,14.3-14.3
					C23.899,1.374,30.299,7.774,30.299,15.674z"/>
			</g>
		</g>
		<g>
			<g>
				<g>
					<path class="st0" d="M31.308,17.206l-1.302,4.367c-0.93,3.094-2.82,5.698-5.277,7.529C22.261,30.943,19.226,32,16.005,32
						c-6.462,0-12.15-4.239-14.01-10.427l-1.302-4.367c-0.176-0.587,0.264-1.185,0.881-1.185h28.853
						C31.043,16.022,31.484,16.619,31.308,17.206z"/>
				</g>
			</g>
			<g>
				<g>
					<path class="st1" d="M23.419,22.816c0,4.097-3.321,7.855-7.418,7.855s-7.418-3.759-7.418-7.855
						c0-4.097,3.321-6.227,7.418-6.227S23.419,18.72,23.419,22.816z"/>
				</g>
			</g>
			<g>
				<g>
					<path class="st7" d="M18.567,19.311c0,0.946-1.128,1.768-1.892,2.217c-0.42,0.239-0.927,0.239-1.347,0
						c-0.755-0.449-1.892-1.271-1.892-2.217c0-1.414,1.147-1.969,2.57-1.969C17.42,17.342,18.567,17.897,18.567,19.311z"/>
				</g>
			</g>
			<g>
				<g>
					<g>
						<g>
							<path class="st0" d="M12.365,3.093l0.694,7.221l-11.096,4.12V1.459c0-1.054,1.085-1.759,2.048-1.332l7.049,3.129"/>
						</g>
					</g>
					<g>
						<g>
							<path class="st7" d="M9.441,5.766L4.748,3.281C4.553,3.178,4.319,3.319,4.319,3.539v5.729c0,0.236,0.265,0.375,0.458,0.241
								l4.694-3.244C9.651,6.14,9.635,5.868,9.441,5.766z"/>
						</g>
					</g>
				</g>
				<g>
					<g>
						<g>
							<path class="st0" d="M19.637,3.093l-0.694,7.221l11.096,4.12V1.459c0-1.054-1.085-1.759-2.048-1.332l-7.049,3.129"/>
						</g>
					</g>
					<g>
						<g>
							<path class="st7" d="M22.561,5.766l4.694-2.485c0.195-0.103,0.429,0.038,0.429,0.258v5.729c0,0.236-0.265,0.375-0.458,0.241
								l-4.694-3.244C22.351,6.14,22.367,5.868,22.561,5.766z"/>
						</g>
					</g>
				</g>
			</g>
		</g>
	</g>
	<g>
		<g>
			<g>
				<g>
					<g>
						<g>
							<g>
								<path class="st3" d="M10.806,15.415c-1.13,0-2.176-0.699-2.586-1.781c-0.123-0.323,0.039-0.684,0.362-0.806
									c0.322-0.121,0.683,0.039,0.806,0.363c0.255,0.668,0.943,1.07,1.66,0.955c0.701-0.115,1.231-0.717,1.259-1.432
									c0.015-0.344,0.289-0.626,0.649-0.6c0.345,0.014,0.613,0.304,0.601,0.649c-0.052,1.307-1.023,2.407-2.308,2.617
									C11.101,15.403,10.953,15.415,10.806,15.415z"/>
							</g>
						</g>
					</g>
				</g>
			</g>
		</g>
		<g>
			<g>
				<g>
					<path class="st7" d="M12.479,9.754c0-0.315-0.265-0.571-0.58-0.556c-3.071,0.142-4.232,1.997-4.284,2.083
						c-0.155,0.259-0.071,0.592,0.187,0.75c0.088,0.055,0.187,0.08,0.284,0.08c0.185,0,0.365-0.093,0.47-0.26
						c0.04-0.064,0.94-1.42,3.388-1.543C12.241,10.293,12.479,10.052,12.479,9.754L12.479,9.754z"/>
				</g>
			</g>
		</g>
	</g>
	<g>
		<g>
			<g>
				<g>
					<g>
						<g>
							<g>
								<path class="st3" d="M21.194,15.415c-0.148,0-0.295-0.012-0.443-0.036c-1.287-0.21-2.257-1.311-2.308-2.617
									c-0.013-0.345,0.256-0.635,0.602-0.649c0.36-0.013,0.635,0.256,0.648,0.601c0.027,0.715,0.557,1.317,1.259,1.432
									c0.708,0.115,1.404-0.287,1.659-0.955c0.122-0.324,0.483-0.485,0.806-0.363c0.323,0.123,0.485,0.483,0.362,0.806
									C23.369,14.715,22.324,15.415,21.194,15.415z"/>
							</g>
						</g>
					</g>
				</g>
			</g>
		</g>
		<g>
			<g>
				<g>
					<path class="st7" d="M24.385,11.281c-0.051-0.085-1.164-1.868-4.095-2.075c-0.319-0.023-0.591,0.235-0.591,0.555V9.77
						c0,0.291,0.228,0.53,0.518,0.552c2.323,0.174,3.188,1.466,3.227,1.529c0.105,0.168,0.285,0.26,0.47,0.26
						c0.097,0,0.196-0.026,0.284-0.08C24.457,11.873,24.541,11.54,24.385,11.281z"/>
				</g>
			</g>
		</g>
	</g>
	<g>
		<path class="st11" d="M12.03,26.484c-0.318-0.235-0.387-0.684-0.151-1.003c0.982-1.331,2.484-2.095,4.121-2.095
			c1.639,0,3.142,0.764,4.121,2.095c0.235,0.319,0.167,0.768-0.152,1.003c-0.321,0.235-0.769,0.165-1.002-0.152
			C18.26,25.371,17.178,24.82,16,24.82c-1.177,0-2.258,0.551-2.967,1.512C12.803,26.646,12.355,26.722,12.03,26.484z"/>
	</g>
	<g>
		<g>
			<path class="st12" d="M26.459,18.07c-0.135-0.797-2.009-3.109-2.009-3.109s-1.012,2.799-0.878,3.596
				c0.134,0.797,0.889,1.334,1.687,1.2C26.056,19.622,26.594,18.867,26.459,18.07z"/>
		</g>
		<g>
			<path class="st12" d="M27.723,26.542c0-1.149-2.081-4.835-2.081-4.835s-2.081,3.686-2.081,4.835c0,1.149,0.932,2.081,2.081,2.081
				C26.791,28.623,27.723,27.691,27.723,26.542z"/>
		</g>
	</g>
	<g>
		<g>
			<path class="st12" d="M5.541,18.07c0.134-0.797,2.009-3.109,2.009-3.109s1.012,2.799,0.877,3.596
				c-0.134,0.797-0.889,1.334-1.686,1.2C5.944,19.622,5.406,18.867,5.541,18.07z"/>
		</g>
		<g>
			<path class="st12" d="M4.277,26.542c0-1.149,2.081-4.835,2.081-4.835s2.081,3.686,2.081,4.835c0,1.149-0.932,2.081-2.081,2.081
				C5.209,28.623,4.277,27.691,4.277,26.542z"/>
		</g>
	</g>
	<path class="st1" d="M26.86,27.394c-0.16,0.27-0.45,0.4-0.64,0.3c-0.19-0.11-0.21-0.41-0.05-0.68c0.17-0.27,0.46-0.41,0.65-0.3
		C27.01,26.814,27.03,27.124,26.86,27.394z"/>
	<path class="st1" d="M25.818,18.675c-0.16,0.27-0.45,0.4-0.64,0.3c-0.19-0.11-0.21-0.41-0.05-0.68c0.17-0.27,0.46-0.41,0.65-0.3
		C25.968,18.095,25.988,18.405,25.818,18.675z"/>
	<path class="st1" d="M7.813,18.928c-0.163,0.268-0.454,0.395-0.643,0.294c-0.189-0.112-0.206-0.412-0.043-0.681
		c0.173-0.268,0.464-0.405,0.653-0.293C7.969,18.35,7.986,18.66,7.813,18.928z"/>
	<path class="st1" d="M7.485,27.343c-0.163,0.268-0.454,0.395-0.643,0.294c-0.189-0.112-0.206-0.412-0.043-0.681
		c0.173-0.268,0.464-0.405,0.653-0.294C7.641,26.765,7.658,27.075,7.485,27.343z"/>
</g>
</svg>
