<?xml version="1.0" encoding="utf-8"?>
<!-- Generator: Adobe Illustrator 21.1.0, SVG Export Plug-In . SVG Version: 6.00 Build 0)  -->
<svg version="1.1" id="Layer_1" xmlns="http://www.w3.org/2000/svg" xmlns:xlink="http://www.w3.org/1999/xlink" x="0px" y="0px"
	 viewBox="0 0 32 32" style="enable-background:new 0 0 32 32;" xml:space="preserve">
<style type="text/css">
	.st0{fill:#FFD93B;}
	.st1{fill:#FFFFFF;}
	.st2{fill:#89664C;}
	.st3{fill:#3E4347;}
	.st4{fill:#E24B4B;}
	.st5{fill:#F29A2E;}
	.st6{fill:#5A5F63;}
	.st7{fill:#E18823;}
	.st8{fill:#65B1EF;}
	.st9{fill:#D03F3F;}
	.st10{opacity:0.2;}
	.st11{fill:#DEE4E9;}
	.st12{fill:#45CBEA;}
	.st13{fill:#F4C534;}
	.st14{fill:#BF3333;}
	.st15{fill:#D23F77;}
	.st16{fill:#E84D88;}
	.st17{fill:#7A5B44;}
	.st18{fill:#6B503B;}
	.st19{opacity:0.2;fill:#FFFFFF;}
	.st20{fill:#4E99D2;}
	.st21{fill:none;}
	.st22{opacity:0.15;fill:#FFFFFF;}
	.st23{fill:#8CC63E;}
	.st24{fill:#9A795F;}
	.st25{fill:#E9EFF4;}
</style>
<g>
	<g>
		<path class="st0" d="M31.305,17.202l-1.3,4.37c-0.93,3.09-2.82,5.7-5.28,7.53c-2.46,1.84-5.5,2.9-8.72,2.9
			c-6.46,0-12.15-4.24-14.01-10.43l-1.3-4.37c-0.18-0.58,0.26-1.18,0.88-1.18h0.16c-0.03-0.33-0.04-0.66-0.04-1
			c0-0.91,0.09-1.79,0.27-2.65V1.452c0-1.05,1.08-1.75,2.05-1.33l5.82,2.59c1.87-0.86,3.96-1.34,6.17-1.34s4.3,0.48,6.17,1.34
			l5.82-2.59c0.96-0.42,2.05,0.28,2.05,1.33v10.97c0.17,0.84,0.26,1.71,0.26,2.6c0,0.34-0.01,0.67-0.04,1h0.16
			C31.045,16.022,31.485,16.622,31.305,17.202z"/>
	</g>
	<g>
		<g>
			<path class="st1" d="M23.42,22.815c0,4.097-3.321,7.855-7.418,7.855c-4.097,0-7.418-3.759-7.418-7.855
				c0-4.097,3.321-6.227,7.418-6.227C20.099,16.588,23.42,18.718,23.42,22.815z"/>
		</g>
		<g>
			<path class="st2" d="M18.68,19.204c0,0.988-1.177,1.845-1.975,2.314c-0.439,0.249-0.967,0.249-1.406,0
				c-0.788-0.469-1.975-1.327-1.975-2.314c0-1.476,1.197-2.055,2.683-2.055C17.483,17.149,18.68,17.728,18.68,19.204z"/>
		</g>
		<g>
			<path class="st3" d="M20.989,24.637c-0.391,2.414-2.462,4.26-4.982,4.26c-2.533,0-4.604-1.846-4.994-4.26
				c-0.047-0.249,0.189-0.462,0.438-0.438c3.042,0.379,6.071,0.379,9.101,0C20.8,24.175,21.036,24.388,20.989,24.637z"/>
		</g>
		<path class="st4" d="M16.007,28.897c0.97,0,1.87-0.278,2.636-0.751c-0.055-0.589-0.29-1.124-0.666-1.538
			c-0.329-0.362-0.97-0.486-1.396-0.247c-0.27,0.15-0.594,0.239-0.975,0.239c-0.106,0-0.207-0.007-0.305-0.019
			c-0.862-0.117-1.709,0.383-1.899,1.232c-0.025,0.109-0.023,0.226-0.034,0.339C14.135,28.622,15.036,28.897,16.007,28.897z"/>
		<g>
			<g>
				<g>
					<path class="st5" d="M9.442,5.764L4.748,3.279C4.554,3.176,4.319,3.317,4.319,3.538v5.729c0,0.236,0.265,0.375,0.458,0.241
						l4.694-3.244C9.652,6.138,9.636,5.867,9.442,5.764z"/>
				</g>
			</g>
			<g>
				<g>
					<path class="st5" d="M22.562,5.764l4.694-2.485c0.195-0.103,0.429,0.038,0.429,0.258v5.729c0,0.236-0.265,0.375-0.458,0.241
						l-4.694-3.244C22.352,6.138,22.368,5.867,22.562,5.764z"/>
				</g>
			</g>
		</g>
		<g>
			<g>
				<g>
					<circle class="st3" cx="10.128" cy="13.149" r="2.08"/>
				</g>
				<g>
					<path class="st6" d="M11.22,12.985c-0.186,0.117-0.47-0.01-0.646-0.284c-0.167-0.274-0.157-0.587,0.029-0.705
						c0.186-0.118,0.47,0.01,0.646,0.284C11.416,12.544,11.406,12.867,11.22,12.985z"/>
				</g>
			</g>
			<g>
				<g>
					<circle class="st3" cx="21.876" cy="13.149" r="2.08"/>
				</g>
				<g>
					<path class="st6" d="M22.969,12.985c-0.186,0.117-0.47-0.01-0.646-0.284c-0.166-0.274-0.157-0.587,0.029-0.705
						c0.186-0.118,0.47,0.01,0.646,0.284C23.165,12.544,23.155,12.867,22.969,12.985z"/>
				</g>
			</g>
		</g>
	</g>
</g>
</svg>
