<?xml version="1.0" encoding="utf-8"?>
<!-- Generator: Adobe Illustrator 21.1.0, SVG Export Plug-In . SVG Version: 6.00 Build 0)  -->
<svg version="1.1" id="Layer_1" xmlns="http://www.w3.org/2000/svg" xmlns:xlink="http://www.w3.org/1999/xlink" x="0px" y="0px"
	 viewBox="0 0 32 32" style="enable-background:new 0 0 32 32;" xml:space="preserve">
<style type="text/css">
	.st0{fill:#FFD93B;}
	.st1{fill:#FFFFFF;}
	.st2{fill:#89664C;}
	.st3{fill:#3E4347;}
	.st4{fill:#E24B4B;}
	.st5{fill:#F29A2E;}
	.st6{fill:#5A5F63;}
	.st7{fill:#E18823;}
	.st8{fill:#65B1EF;}
	.st9{fill:#D03F3F;}
	.st10{opacity:0.2;}
	.st11{fill:#DEE4E9;}
	.st12{fill:#45CBEA;}
	.st13{fill:#F4C534;}
	.st14{fill:#BF3333;}
	.st15{fill:#D23F77;}
	.st16{fill:#E84D88;}
	.st17{fill:#7A5B44;}
	.st18{fill:#6B503B;}
	.st19{opacity:0.2;fill:#FFFFFF;}
	.st20{fill:#4E99D2;}
	.st21{fill:none;}
	.st22{opacity:0.15;fill:#FFFFFF;}
	.st23{fill:#8CC63E;}
	.st24{fill:#9A795F;}
	.st25{fill:#E9EFF4;}
</style>
<g>
	<path class="st0" d="M14.123,6.483C9.846,3.546,5.848,1.051,2.795,0.056C2.027-0.186,1.26,0.389,1.26,1.187v16.071l12.864-4.16
		V6.483z"/>
	<path class="st0" d="M17.881,6.483c4.277-2.937,8.275-5.432,11.328-6.427c0.768-0.242,1.535,0.333,1.535,1.132v16.071l-12.864-4.16
		V6.483z"/>
	<path class="st13" d="M8.709,5.912C6.715,4.617,4.878,3.573,3.373,3.056v7.697C4.884,8.84,6.716,7.16,8.709,5.912z"/>
	<path class="st13" d="M26.38,8.999c0.775,0.675,1.586,1.402,2.247,2.227V3.056c-1.597,0.549-3.571,1.696-5.708,3.101
		C24.156,6.984,25.252,8.017,26.38,8.999z"/>
	<g>
		<g>
			<g>
				<g>
					<g>
						<g>
							<g>
								<g>
									<g>
										<g>
											<g>
												<g>
													<g>
														<g>
															<g>
																<g>
																	<g>
																		<g>
																			<g>
																				<g>
																					<g>
																						<circle class="st0" cx="16" cy="17.255" r="14.745"/>
																					</g>
																				</g>
																			</g>
																		</g>
																	</g>
																</g>
																<g>
																	<g>
																		<g>
																			<g>
																				<g>
																					<g>
																						<path class="st13" d="M30.745,17.255C30.745,25.402,24.142,32,16,32c-4.635,0-8.773-2.138-11.478-5.488
																							c2.53,2.046,5.75,3.267,9.257,3.267c8.142,0,14.745-6.598,14.745-14.745c0-3.506-1.221-6.727-3.267-9.257
																							C28.602,8.482,30.745,12.62,30.745,17.255z"/>
																					</g>
																				</g>
																			</g>
																		</g>
																	</g>
																</g>
															</g>
														</g>
													</g>
												</g>
											</g>
										</g>
									</g>
								</g>
							</g>
						</g>
					</g>
				</g>
			</g>
		</g>
	</g>
	<path class="st3" d="M6.896,7.808c0,0,3.009-2.41,6.503-1.447C13.399,6.361,9.085,2.231,6.896,7.808z"/>
	<path class="st3" d="M25.104,7.808c0,0-3.009-2.41-6.503-1.447C18.601,6.361,22.916,2.231,25.104,7.808z"/>
	<path class="st4" d="M17.904,11.482c-0.629,1.782,1.047,5.144,1.835,6.57c0.217,0.392,0.686,0.559,1.102,0.391
		c1.515-0.612,4.953-2.173,5.582-3.957c0.43-1.22-0.207-2.551-1.427-2.982c-0.943-0.332-1.947-0.025-2.56,0.695
		c-0.019-0.942-0.608-1.812-1.558-2.147C19.665,9.625,18.334,10.262,17.904,11.482z"/>
	<path class="st9" d="M26.427,14.482c-0.63,1.79-4.07,3.35-5.59,3.96c-0.41,0.17-0.88,0-1.1-0.39c-0.1-0.18-0.21-0.39-0.33-0.62
		c0.01,0,1.31,0.53,4.11-1.72c2.71-2.17,1.77-3.98,1.7-4.1C26.288,12.122,26.827,13.342,26.427,14.482z"/>
	<ellipse class="st19" cx="20.107" cy="11.412" rx="0.95" ry="0.66"/>
	<path class="st4" d="M14.096,11.482c0.628,1.782-1.047,5.144-1.835,6.57c-0.217,0.392-0.686,0.559-1.102,0.391
		c-1.515-0.612-4.953-2.173-5.582-3.957c-0.43-1.22,0.207-2.551,1.427-2.982c0.943-0.332,1.948-0.025,2.56,0.695
		c0.019-0.942,0.608-1.812,1.558-2.147C12.335,9.625,13.666,10.262,14.096,11.482z"/>
	<path class="st9" d="M5.573,14.482c0.63,1.79,4.07,3.35,5.59,3.96c0.41,0.17,0.88,0,1.1-0.39c0.1-0.18,0.21-0.39,0.33-0.62
		c-0.01,0-1.31,0.53-4.11-1.72c-2.71-2.17-1.77-3.98-1.7-4.1C5.713,12.122,5.173,13.342,5.573,14.482z"/>
	<ellipse class="st19" cx="11.893" cy="11.412" rx="0.95" ry="0.66"/>
	<g>
		<path class="st3" d="M24.73,22.498c-1.263,4.132-4.576,7.091-8.485,7.091c-3.899,0-7.222-2.959-8.485-7.101
			c-0.091-0.324,0.222-0.596,0.535-0.465c3.081,1.343,12.798,1.364,15.899,0.01C24.508,21.892,24.831,22.175,24.73,22.498z"/>
	</g>
	<path class="st4" d="M16.245,29.59c1.529,0,2.965-0.458,4.225-1.257c-0.34-1.634-2.122-2.546-3.627-1.897
		c-0.472,0.204-0.996,0.228-1.489,0.082c-1.403-0.417-2.898,0.428-3.29,1.841C13.315,29.142,14.736,29.59,16.245,29.59z"/>
	<path class="st1" d="M23.827,22.166c-0.7,1.16-1.66,1.95-2.79,2.49l-0.34,1.68l-0.54-1.34c-1.18,0.39-2.51,0.55-3.91,0.55
		c-1.41,0-2.74-0.16-3.92-0.559l-0.53,1.35l-0.34-1.69c-1.13-0.53-2.09-1.33-2.79-2.49C11.947,23.316,20.527,23.336,23.827,22.166z"
		/>
	<g>
		<path class="st3" d="M9.854,21.988c-0.996-0.711-2.358-1.135-3.75-1.109C2.924,20.936,0.438,23.401,0,26.159
			c0.575-4.776,6.264-7.167,10.114-4.589c0.147,0.096,0.16,0.247,0.088,0.354C10.121,22.046,9.955,22.066,9.854,21.988z"/>
	</g>
	<g>
		<path class="st3" d="M9.939,19.931c-0.645-0.544-1.595-1.079-2.59-1.4c-1.012-0.325-2.125-0.444-2.961-0.375
			c0.819-0.136,1.956-0.112,3.026,0.138c1.065,0.25,2.12,0.739,2.81,1.236c0.14,0.099,0.15,0.251,0.074,0.357
			C10.218,19.998,10.056,20.027,9.939,19.931z"/>
	</g>
	<path class="st3" d="M8.426,20.025c-1.083-0.314-2.551-0.432-3.944-0.245c-1.416,0.192-2.826,0.71-3.778,1.298
		c0.918-0.648,2.312-1.258,3.737-1.541c1.451-0.286,2.999-0.243,4.085,0.006c0.172,0.04,0.237,0.174,0.208,0.3
		C8.701,19.99,8.547,20.066,8.426,20.025z"/>
	<g>
		<path class="st3" d="M22.146,21.988c0.996-0.711,2.357-1.135,3.75-1.109c3.18,0.058,5.665,2.523,6.104,5.281
			c-0.575-4.776-6.264-7.167-10.114-4.589c-0.147,0.096-0.16,0.247-0.088,0.354C21.879,22.046,22.045,22.066,22.146,21.988z"/>
	</g>
	<g>
		<path class="st3" d="M22.061,19.931c0.645-0.544,1.595-1.079,2.59-1.4c1.012-0.325,2.125-0.444,2.961-0.375
			c-0.819-0.136-1.956-0.112-3.026,0.138c-1.065,0.25-2.12,0.739-2.81,1.236c-0.14,0.099-0.15,0.251-0.074,0.357
			C21.782,19.998,21.944,20.027,22.061,19.931z"/>
	</g>
	<path class="st3" d="M23.574,20.025c1.083-0.314,2.551-0.432,3.944-0.245c1.416,0.192,2.826,0.71,3.778,1.298
		c-0.918-0.648-2.313-1.258-3.737-1.541c-1.451-0.286-2.999-0.243-4.085,0.006c-0.172,0.04-0.237,0.174-0.208,0.3
		C23.299,19.99,23.453,20.066,23.574,20.025z"/>
</g>
</svg>
