<?xml version="1.0" encoding="utf-8"?>
<!-- Generator: Adobe Illustrator 21.1.0, SVG Export Plug-In . SVG Version: 6.00 Build 0)  -->
<svg version="1.1" id="Layer_1" xmlns="http://www.w3.org/2000/svg" xmlns:xlink="http://www.w3.org/1999/xlink" x="0px" y="0px"
	 viewBox="0 0 32 32" style="enable-background:new 0 0 32 32;" xml:space="preserve">
<style type="text/css">
	.st0{fill:#FFD93B;}
	.st1{fill:#FFFFFF;}
	.st2{fill:#89664C;}
	.st3{fill:#3E4347;}
	.st4{fill:#E24B4B;}
	.st5{fill:#F29A2E;}
	.st6{fill:#5A5F63;}
	.st7{fill:#E18823;}
	.st8{fill:#65B1EF;}
	.st9{fill:#D03F3F;}
	.st10{opacity:0.2;}
	.st11{fill:#DEE4E9;}
	.st12{fill:#45CBEA;}
	.st13{fill:#F4C534;}
	.st14{fill:#BF3333;}
	.st15{fill:#D23F77;}
	.st16{fill:#E84D88;}
	.st17{fill:#7A5B44;}
	.st18{fill:#6B503B;}
	.st19{opacity:0.2;fill:#FFFFFF;}
	.st20{fill:#4E99D2;}
	.st21{fill:none;}
	.st22{opacity:0.15;fill:#FFFFFF;}
	.st23{fill:#8CC63E;}
	.st24{fill:#9A795F;}
	.st25{fill:#E9EFF4;}
</style>
<g>
	<g>
		<path class="st0" d="M14.123,6.483C9.846,3.546,5.848,1.051,2.795,0.056C2.027-0.186,1.26,0.389,1.26,1.187v16.071l12.864-4.16
			V6.483z"/>
		<path class="st0" d="M17.881,6.483c4.277-2.937,8.275-5.432,11.328-6.427c0.768-0.242,1.535,0.333,1.535,1.132v16.071
			l-12.864-4.16V6.483z"/>
		<path class="st13" d="M8.709,5.912C6.715,4.617,4.878,3.573,3.373,3.056v7.697C4.884,8.84,6.716,7.16,8.709,5.912z"/>
		<path class="st13" d="M26.38,8.999c0.775,0.675,1.586,1.402,2.247,2.227V3.056c-1.597,0.549-3.571,1.696-5.708,3.101
			C24.156,6.984,25.252,8.017,26.38,8.999z"/>
		<g>
			<g>
				<g>
					<g>
						<g>
							<g>
								<g>
									<g>
										<g>
											<g>
												<g>
													<g>
														<g>
															<g>
																<g>
																	<g>
																		<g>
																			<g>
																				<g>
																					<g>
																						<g>
																							<g>
																								<circle class="st0" cx="16" cy="17.255" r="14.745"/>
																							</g>
																						</g>
																					</g>
																				</g>
																			</g>
																		</g>
																		<g>
																			<g>
																				<g>
																					<g>
																						<g>
																							<g>
																								<path class="st13" d="M30.745,17.255C30.745,25.402,24.142,32,16,32c-4.635,0-8.773-2.138-11.478-5.488
																									c2.53,2.046,5.75,3.267,9.257,3.267c8.142,0,14.745-6.598,14.745-14.745c0-3.506-1.221-6.727-3.267-9.257
																									C28.602,8.482,30.745,12.62,30.745,17.255z"/>
																							</g>
																						</g>
																					</g>
																				</g>
																			</g>
																		</g>
																	</g>
																</g>
															</g>
														</g>
													</g>
												</g>
											</g>
										</g>
									</g>
								</g>
							</g>
						</g>
					</g>
				</g>
			</g>
		</g>
		<path class="st3" d="M6.896,7.808c0,0,3.009-2.41,6.503-1.447C13.399,6.361,9.085,2.231,6.896,7.808z"/>
		<path class="st3" d="M25.104,7.808c0,0-3.009-2.41-6.503-1.447C18.601,6.361,22.915,2.231,25.104,7.808z"/>
	</g>
	<g>
		<g>
			<path class="st3" d="M24.73,21.32c-1.263,4.936-4.576,4.873-8.485,7.08c-3.899,2.21-7.222-3.777-8.485-7.111
				c-0.091-0.254,0.222-0.767,0.535-0.812c3.08-1.062,12.798,4.476,15.899,0.726C24.508,20.887,24.831,20.922,24.73,21.32z"/>
		</g>
		<path class="st4" d="M16.245,28.4c1.539-0.869,2.983-1.387,4.248-1.996c-0.009-0.01-0.013-0.021-0.023-0.031
			c-0.34-1.065-2.122-1.797-3.627-1.163c-0.472,0.221-0.996,0.305-1.489,0.179c-1.394-0.405-2.877,0.644-3.28,2.523
			C13.322,28.878,14.74,29.253,16.245,28.4z"/>
		<path class="st1" d="M8.67,20.404c-0.001,0.008-0.002,0.015-0.003,0.022c0.7,0.992,1.66,1.972,2.79,2.672
			c0.113,0.739,0.227,1.479,0.34,2.214c0.177-0.59,0.353-1.176,0.53-1.754c1.18,0.558,2.51,0.768,3.92,0.796
			c1.4,0.027,2.73-0.08,3.91-0.316c0.18,0.321,0.36,0.631,0.54,0.938c0.113-0.388,0.227-0.774,0.34-1.159
			c1.113-0.359,2.06-0.96,2.757-2.251C20.474,24.406,11.948,19.841,8.67,20.404z"/>
	</g>
	<g>
		<g>
			<path class="st1" d="M15.105,14.085c0,2.322-1.892,4.205-4.214,4.205s-4.205-1.883-4.205-4.205c0-2.331,1.883-4.214,4.205-4.214
				S15.105,11.755,15.105,14.085z"/>
		</g>
		<g>
			<g>
				<path class="st3" d="M13.049,14.085c0,1.179-0.978,2.148-2.157,2.148s-2.139-0.969-2.139-2.148c0-1.188,0.96-2.148,2.139-2.148
					S13.049,12.897,13.049,14.085z"/>
			</g>
			<g>
				
					<ellipse transform="matrix(0.7071 -0.7071 0.7071 0.7071 -6.0111 12.1455)" class="st1" cx="11.657" cy="13.329" rx="0.425" ry="0.622"/>
			</g>
		</g>
	</g>
	<g>
		<path class="st3" d="M25.742,14.815c-1.091,2.889-3.465,4.882-5.623,4.104c-2.14-0.823-3.499-3.681-3.44-6.077
			c0.006-2.395,2.442-4.456,5.683-4.178C25.599,9.005,26.897,11.934,25.742,14.815z"/>
	</g>
	<g>
		<path class="st3" d="M29.759,22.523c-1.095-3.423-3.73-6.781-7.543-9.506c-3.117-2.228-6.757-7.548-8.526-10.308
			c-0.292-0.423-1.476-0.078-1.315,0.27c1.686,2.675,5.622,8.559,9.115,11.056c4.143,2.961,6.801,6.671,7.438,10.313
			C28.927,24.974,30.173,23.458,29.759,22.523z"/>
	</g>
</g>
</svg>
