<?xml version="1.0" encoding="utf-8"?>
<!-- Generator: Adobe Illustrator 21.1.0, SVG Export Plug-In . SVG Version: 6.00 Build 0)  -->
<svg version="1.1" id="Layer_1" xmlns="http://www.w3.org/2000/svg" xmlns:xlink="http://www.w3.org/1999/xlink" x="0px" y="0px"
	 viewBox="0 0 32 32" style="enable-background:new 0 0 32 32;" xml:space="preserve">
<style type="text/css">
	.st0{fill:#FFD93B;}
	.st1{fill:#3E4347;}
	.st2{fill:#F4C534;}
	.st3{fill:#38C0DC;}
	.st4{fill:#45CBEA;}
	.st5{fill:#FFFFFF;}
	.st6{fill:#E24B4B;}
	.st7{fill:#5A5F63;}
	.st8{opacity:0.3;}
	.st9{opacity:0.2;}
	.st10{opacity:0.1;}
	.st11{fill:#E9B02C;}
	.st12{fill:#65B1EF;}
	.st13{fill:#E9EFF4;}
	.st14{fill:#8CC63E;}
	.st15{fill:#7FB239;}
	.st16{fill:#D03F3F;}
	.st17{fill:#D23F77;}
	.st18{fill:#E84D88;}
	.st19{fill:#59A5E0;}
	.st20{fill:#DEE4E9;}
	.st21{fill:#D3D9DD;}
	.st22{opacity:0.25;fill:#FFFFFF;}
	.st23{fill:#9A795F;}
	.st24{fill:#F29A2E;}
	.st25{fill:#FC97B2;}
	.st26{fill:#89664C;}
	.st27{fill:#7A5B44;}
	.st28{opacity:0.2;fill:#FFFFFF;}
	.st29{fill:#4E99D2;}
	.st30{fill:#BBC7D1;}
	.st31{fill:#DE9C25;}
</style>
<g>
	<path class="st2" d="M19.957,10.319c-0.411-2.791-1.3-8.457-3.55-10.179c-0.236-0.186-0.591-0.186-0.831,0
		c-2.25,1.722-3.138,7.384-3.55,10.179H19.957z"/>
	<path class="st2" d="M12.08,21.695c0.402,2.788,1.271,8.447,3.51,10.166c0.235,0.186,0.588,0.185,0.829-0.001
		c2.248-1.723,3.151-7.38,3.57-10.173L12.08,21.695z"/>
	<path class="st2" d="M22.817,14.776c1.683-2.264,5.061-6.899,4.687-9.708c-0.035-0.299-0.286-0.549-0.588-0.588
		c-2.809-0.373-7.44,3.002-9.708,4.687L22.817,14.776z"/>
	<path class="st2" d="M9.203,17.25c-1.687,2.255-5.074,6.872-4.707,9.67c0.035,0.297,0.285,0.547,0.586,0.585
		c2.808,0.372,7.446-2.99,9.718-4.669L9.203,17.25z"/>
	<path class="st2" d="M21.681,19.953c2.791-0.411,8.457-1.3,10.179-3.551c0.186-0.236,0.186-0.591,0-0.831
		c-1.722-2.25-7.384-3.138-10.179-3.55L21.681,19.953z"/>
	<path class="st2" d="M10.305,12.075c-2.788,0.402-8.447,1.271-10.166,3.51c-0.186,0.235-0.185,0.588,0.001,0.829
		c1.723,2.248,7.38,3.151,10.173,3.57L10.305,12.075z"/>
	<path class="st2" d="M17.223,22.813c2.264,1.682,6.899,5.061,9.708,4.687c0.299-0.035,0.549-0.286,0.588-0.588
		c0.373-2.809-3.002-7.44-4.687-9.708L17.223,22.813z"/>
	<path class="st2" d="M14.749,9.198c-2.255-1.687-6.872-5.074-9.67-4.707C4.782,4.527,4.532,4.777,4.494,5.078
		c-0.372,2.808,2.99,7.446,4.669,9.718L14.749,9.198z"/>
	<circle class="st0" cx="16.007" cy="16" r="11.849"/>
	<path class="st1" d="M23.107,20.211c-1.44,2.43-4.08,4.06-7.11,4.06c-3.01,0-5.64-1.6-7.09-4c-0.34-0.58,0.13-1.32,0.79-1.21
		c4.03,0.67,8.23,0.59,12.61-0.05C22.977,18.921,23.447,19.631,23.107,20.211z"/>
	<path class="st2" d="M27.855,15.999c0,6.547-5.306,11.849-11.849,11.849c-3.725,0-7.05-1.718-9.224-4.41
		c2.033,1.644,4.621,2.625,7.439,2.625c6.543,0,11.849-5.303,11.849-11.849c0-2.818-0.981-5.406-2.625-7.439
		C26.133,8.948,27.855,12.274,27.855,15.999z"/>
	<path class="st5" d="M17.249,12.529c0,2.098,1.394,3.814,3.119,3.819c1.712,0.005,3.106-1.703,3.106-3.801
		c0-2.109-1.394-3.825-3.106-3.83C18.643,8.712,17.249,10.419,17.249,12.529z"/>
	<g>
		<circle class="st1" cx="20.352" cy="12.978" r="1.647"/>
	</g>
	<g>
		
			<ellipse transform="matrix(0.7071 -0.7071 0.7071 0.7071 -2.9702 17.5873)" class="st5" cx="19.745" cy="12.379" rx="0.52" ry="0.333"/>
	</g>
	<path class="st0" d="M16.128,16.966h7.384c-0.776-0.511-3.453-2.09-6.28-1.611C15.339,15.676,15.568,16.398,16.128,16.966z"/>
	<path class="st2" d="M23.743,17.125c-1.115-0.451-2.19-0.896-3.191-1.183c-1.666-0.514-2.32-0.447-3.32-0.587
		c1.149-0.462,2.346-0.355,3.506-0.036C22.005,15.691,23.198,16.485,23.743,17.125z"/>
	<path class="st5" d="M14.751,12.529c0,2.098-1.394,3.814-3.119,3.819c-1.712,0.005-3.106-1.703-3.106-3.801
		c0-2.109,1.394-3.825,3.106-3.83C13.357,8.712,14.751,10.419,14.751,12.529z"/>
	<g>
		<circle class="st1" cx="11.648" cy="12.978" r="1.647"/>
	</g>
	<g>
		
			<ellipse transform="matrix(0.7071 -0.7071 0.7071 0.7071 -5.1639 12.2915)" class="st5" cx="12.255" cy="12.379" rx="0.333" ry="0.52"/>
	</g>
	<path class="st0" d="M15.872,16.966c0.56-0.569,0.789-1.29-1.104-1.611c-2.828-0.479-5.504,1.1-6.28,1.611H15.872z"/>
	<path class="st2" d="M8.257,17.125c0.546-0.641,1.74-1.435,3.005-1.805c1.175-0.324,2.373-0.42,3.506,0.036
		c-1,0.14-1.533,0.035-3.32,0.587C10.446,16.229,9.371,16.674,8.257,17.125z"/>
	<path class="st6" d="M15.997,24.271c1.198,0,2.331-0.263,3.358-0.722c-0.548-1.395-1.989-1.921-3.287-1.424
		c-0.381,0.152-0.782,0.222-1.177,0.235c-1.006,0.032-1.738,0.536-2.134,1.25C13.752,24.034,14.846,24.271,15.997,24.271z"/>
	<path class="st5" d="M9.697,19.061c-0.009-0.001-0.016,0.001-0.025,0c1.601,1.682,3.289,2.215,6.347,2.215
		c3.069,0,4.733-0.552,6.339-2.264c-0.017,0.001-0.033-0.003-0.051,0C17.927,19.651,13.727,19.731,9.697,19.061z"/>
</g>
</svg>
