<?xml version="1.0" encoding="utf-8"?>
<!-- Generator: Adobe Illustrator 21.1.0, SVG Export Plug-In . SVG Version: 6.00 Build 0)  -->
<svg version="1.1" id="Layer_1" xmlns="http://www.w3.org/2000/svg" xmlns:xlink="http://www.w3.org/1999/xlink" x="0px" y="0px"
	 viewBox="0 0 32 32" style="enable-background:new 0 0 32 32;" xml:space="preserve">
<style type="text/css">
	.st0{fill:#FFD93B;}
	.st1{fill:#FFFFFF;}
	.st2{fill:#89664C;}
	.st3{fill:#3E4347;}
	.st4{fill:#E24B4B;}
	.st5{fill:#F29A2E;}
	.st6{fill:#5A5F63;}
	.st7{fill:#E18823;}
	.st8{fill:#65B1EF;}
	.st9{fill:#D03F3F;}
	.st10{opacity:0.2;}
	.st11{fill:#DEE4E9;}
	.st12{fill:#45CBEA;}
	.st13{fill:#F4C534;}
	.st14{fill:#BF3333;}
	.st15{fill:#D23F77;}
	.st16{fill:#E84D88;}
	.st17{fill:#7A5B44;}
	.st18{fill:#6B503B;}
	.st19{opacity:0.2;fill:#FFFFFF;}
	.st20{fill:#4E99D2;}
	.st21{fill:none;}
	.st22{opacity:0.15;fill:#FFFFFF;}
	.st23{fill:#8CC63E;}
	.st24{fill:#9A795F;}
	.st25{fill:#E9EFF4;}
</style>
<g>
	<path class="st0" d="M14.218,6.159C10.155,3.369,6.358,1,3.459,0.055C2.73-0.175,2.001,0.371,2.001,1.129v15.263l12.217-3.951
		V6.159z"/>
	<path class="st0" d="M17.786,6.159C21.848,3.369,25.645,1,28.545,0.055c0.729-0.23,1.458,0.317,1.458,1.075v15.263l-12.217-3.951
		V6.159z"/>
	<path class="st13" d="M9.076,5.616c-1.894-1.23-3.639-2.222-5.068-2.713v7.31C5.443,8.397,7.183,6.801,9.076,5.616z"/>
	<path class="st13" d="M25.858,8.548c0.736,0.641,1.506,1.331,2.134,2.115v-7.76c-1.517,0.521-3.391,1.61-5.421,2.946
		C23.745,6.634,24.787,7.616,25.858,8.548z"/>
	<g>
		<g>
			<g>
				<g>
					<g>
						<g>
							<g>
								<g>
									<g>
										<g>
											<circle class="st0" cx="16" cy="15.449" r="14.027"/>
										</g>
									</g>
								</g>
							</g>
						</g>
					</g>
					<g>
						<g>
							<g>
								<g>
									<g>
										<g>
											<path class="st13" d="M30.027,15.45c0,7.75-6.282,14.027-14.027,14.027c-4.41,0-8.346-2.034-10.919-5.221
												c2.407,1.946,5.471,3.108,8.806,3.108c7.746,0,14.027-6.277,14.027-14.027c0-3.336-1.162-6.4-3.108-8.806
												C27.989,7.103,30.027,11.04,30.027,15.45z"/>
										</g>
									</g>
								</g>
							</g>
						</g>
					</g>
				</g>
			</g>
		</g>
	</g>
	<circle class="st13" cx="9.673" cy="14.534" r="5.394"/>
	<path class="st13" d="M14.291,14.536c-0.142,2.566-2.324,4.645-4.873,4.645c-2.55,0-4.509-2.079-4.367-4.645
		c0.142-2.566,2.332-4.653,4.882-4.653C12.482,9.883,14.433,11.97,14.291,14.536z"/>
	<path class="st3" d="M10.474,5.418c0,0-2.85-0.401-5.842,3.063C4.632,8.481,6.566,2.277,10.474,5.418z"/>
	<circle class="st13" cx="22.327" cy="14.534" r="5.394"/>
	<path class="st13" d="M17.709,14.536c0.142,2.566,2.324,4.645,4.873,4.645c2.55,0,4.509-2.079,4.367-4.645
		c-0.142-2.566-2.332-4.653-4.882-4.653S17.567,11.97,17.709,14.536z"/>
	<path class="st3" d="M21.526,5.418c0,0,2.85-0.401,5.842,3.063C27.368,8.481,25.433,2.277,21.526,5.418z"/>
	<path class="st17" d="M17.732,19.101c0,0.617-0.7,1.151-1.207,1.455c-0.332,0.193-0.718,0.193-1.05,0
		c-0.497-0.304-1.207-0.838-1.207-1.455c0-0.958,0.783-1.059,1.732-1.059C16.958,18.042,17.732,18.143,17.732,19.101z"/>
	<path class="st18" d="M17.732,19.101c0,0.617-0.7,1.151-1.207,1.455c-0.332,0.193-0.718,0.193-1.05,0
		c-0.304-0.184-0.7-0.461-0.949-0.792c0.147,0.111,0.295,0.203,0.424,0.286c0.378,0.221,0.82,0.221,1.197,0
		c0.571-0.34,1.345-0.939,1.372-1.621C17.658,18.585,17.732,18.806,17.732,19.101z"/>
	<path class="st3" d="M27.72,14.532c0,0.165-0.037,0.332-0.101,0.488c-0.47-1.041-2.662-1.833-5.296-1.833
		c-2.625,0-4.817,0.792-5.287,1.833c-0.065-0.156-0.101-0.323-0.101-0.488c0-1.418,2.413-2.579,5.388-2.579
		C25.306,11.953,27.72,13.114,27.72,14.532z"/>
	<path class="st3" d="M15.064,14.532c0,0.165-0.037,0.332-0.101,0.488c-0.47-1.041-2.662-1.833-5.296-1.833
		c-2.625,0-4.817,0.792-5.287,1.833c-0.064-0.156-0.101-0.323-0.101-0.488c0-1.418,2.413-2.579,5.388-2.579
		C12.651,11.953,15.064,13.114,15.064,14.532z"/>
	<path class="st4" d="M20.421,24.695c0,0.909-1.98,2.489-4.419,2.489s-4.419-1.58-4.419-2.489
		C14.528,23.598,17.474,23.599,20.421,24.695z"/>
	<path class="st14" d="M20.422,24.695c-0.995,0.224-2.976,0.523-3.88,0.06c-0.33-0.2-0.75-0.19-1.09,0c0,0-0.323,0.186-1.01,0.23
		c-0.515,0.046-1.621-0.011-2.86-0.29c0.75,0.035,3.037,0.149,3.69-0.22h0.01c0.213-0.22,0.923-0.33,1.42-0.01
		c0.01,0,0.01,0.01,0.02,0.01C17.413,24.849,19.634,24.732,20.422,24.695z"/>
	<ellipse class="st3" cx="16.002" cy="24.604" rx="1.188" ry="0.637"/>
	<path class="st4" d="M20.42,24.696c0,0-2.908,0.413-3.776-0.074c-0.005-0.005-0.01-0.008-0.015-0.01
		c-0.395-0.236-0.87-0.229-1.268,0.005c-0.002,0-0.005,0.003-0.008,0.005c-0.865,0.488-3.776,0.074-3.776,0.074
		s1.147-2.107,2.01-2.492c0.51-0.229,1.105-0.237,1.606-0.063c0.519,0.181,1.095,0.18,1.614-0.001
		c0.499-0.174,1.094-0.165,1.605,0.063C19.273,22.589,20.42,24.696,20.42,24.696z"/>
	<path class="st3" d="M21.748,23.015c0,0,0.723,0.245,1.64,0.843c3.344,2.089,4.334,4.937,4.756,8.141
		c-0.517-2.874-1.454-5.775-4.988-7.761c-0.916-0.535-1.575-0.722-1.575-0.722c-0.14-0.039-0.222-0.185-0.182-0.326
		c0.04-0.14,0.186-0.222,0.326-0.182c0.004,0.001,0.008,0.003,0.012,0.004L21.748,23.015z"/>
	<path class="st3" d="M22.566,22.073c1.99,0.244,4.477,1.635,6.32,4.495c-1.987-2.673-4.505-3.877-6.371-3.97
		c-0.146-0.007-0.258-0.131-0.251-0.276c0.007-0.146,0.131-0.258,0.277-0.251c0.006,0,0.012,0.001,0.018,0.002L22.566,22.073z"/>
	<path class="st3" d="M22.879,20.705c0,0,0.15,0.009,0.413,0.026c0.256,0.015,0.657,0.053,1.106,0.14
		c0.455,0.075,0.978,0.227,1.511,0.449c0.267,0.112,0.531,0.252,0.79,0.41c0.253,0.167,0.509,0.34,0.734,0.549
		c0.938,0.806,1.527,1.907,1.874,2.734c0.163,0.422,0.296,0.774,0.368,1.029c0.078,0.251,0.123,0.395,0.123,0.395
		s-0.052-0.141-0.142-0.389c-0.083-0.25-0.233-0.595-0.414-1.006c-0.384-0.806-1.019-1.858-1.956-2.586
		c-0.918-0.756-2.083-1.093-2.951-1.202c-0.44-0.062-0.792-0.08-1.061-0.083c-0.263-0.004-0.414-0.006-0.414-0.006
		c-0.127-0.002-0.229-0.107-0.227-0.233c0.002-0.127,0.106-0.229,0.234-0.227C22.871,20.705,22.876,20.705,22.879,20.705z"/>
	<path class="st3" d="M10.252,23.015c0,0-0.723,0.245-1.641,0.843c-3.344,2.089-4.334,4.937-4.756,8.141
		c0.517-2.874,1.453-5.775,4.988-7.761c0.916-0.535,1.575-0.722,1.575-0.722c0.14-0.039,0.222-0.185,0.182-0.326
		c-0.04-0.14-0.186-0.222-0.326-0.182c-0.004,0.001-0.008,0.003-0.012,0.004L10.252,23.015z"/>
	<path class="st3" d="M9.434,22.073c-1.99,0.244-4.477,1.635-6.32,4.495c1.987-2.673,4.505-3.877,6.371-3.97
		c0.146-0.007,0.258-0.131,0.251-0.276c-0.007-0.146-0.131-0.258-0.277-0.251c-0.006,0-0.012,0.001-0.018,0.002L9.434,22.073z"/>
	<path class="st3" d="M9.121,20.705c0,0-0.15,0.009-0.413,0.026c-0.257,0.015-0.657,0.053-1.106,0.14
		c-0.455,0.075-0.978,0.227-1.511,0.449c-0.267,0.112-0.531,0.252-0.79,0.41c-0.253,0.167-0.509,0.34-0.734,0.549
		c-0.938,0.806-1.526,1.907-1.874,2.734c-0.163,0.422-0.296,0.774-0.367,1.029c-0.078,0.251-0.123,0.395-0.123,0.395
		s0.052-0.141,0.142-0.389c0.083-0.25,0.233-0.595,0.415-1.006c0.384-0.806,1.019-1.858,1.956-2.586
		c0.918-0.756,2.083-1.093,2.951-1.202c0.44-0.062,0.792-0.08,1.061-0.083c0.263-0.004,0.413-0.006,0.413-0.006
		c0.127-0.002,0.229-0.107,0.227-0.233c-0.002-0.127-0.106-0.229-0.234-0.227C9.129,20.705,9.124,20.705,9.121,20.705z"/>
</g>
</svg>
