<?xml version="1.0" encoding="utf-8"?>
<!-- Generator: Adobe Illustrator 21.1.0, SVG Export Plug-In . SVG Version: 6.00 Build 0)  -->
<svg version="1.1" id="Layer_1" xmlns="http://www.w3.org/2000/svg" xmlns:xlink="http://www.w3.org/1999/xlink" x="0px" y="0px"
	 viewBox="0 0 32 32" style="enable-background:new 0 0 32 32;" xml:space="preserve">
<style type="text/css">
	.st0{fill:#FFD93B;}
	.st1{fill:#F4C534;}
	.st2{fill:#7A5B44;}
	.st3{fill:#6B503B;}
	.st4{fill:#3E4347;}
	.st5{fill:#E24B4B;}
	.st6{fill:#D03F3F;}
	.st7{opacity:0.15;fill:#FFFFFF;enable-background:new    ;}
</style>
<g>
	<path class="st0" d="M14.105,5.611C9.786,2.646,5.749,0.127,2.667-0.878c-0.775-0.244-1.55,0.337-1.55,1.142v16.227l12.989-4.201
		V5.611H14.105z"/>
	<path class="st0" d="M17.899,5.611c4.319-2.966,8.356-5.485,11.438-6.49c0.775-0.244,1.55,0.337,1.55,1.142V16.49l-12.989-4.201
		V5.611H17.899z"/>
	<path class="st1" d="M8.639,5.035C6.624,3.727,4.77,2.673,3.251,2.151v7.771C4.776,7.991,6.626,6.295,8.639,5.035z"/>
	<path class="st1" d="M26.481,8.152c0.783,0.681,1.601,1.415,2.269,2.249v-8.25c-1.612,0.554-3.606,1.712-5.764,3.132
		C24.235,6.117,25.342,7.161,26.481,8.152z"/>
	<circle class="st0" cx="16" cy="15.489" r="14.914"/>
	<path class="st1" d="M30.914,15.489c0,8.24-6.678,14.914-14.914,14.914c-4.688,0-8.874-2.162-11.609-5.551
		c2.559,2.069,5.816,3.304,9.363,3.304c8.235,0,14.913-6.674,14.913-14.914c0-3.547-1.235-6.804-3.304-9.363
		C28.747,6.616,30.914,10.801,30.914,15.489z"/>
	<path class="st2" d="M17.841,19.372c0,0.656-0.744,1.224-1.283,1.547c-0.352,0.206-0.764,0.206-1.116,0
		c-0.529-0.323-1.283-0.891-1.283-1.547c0-1.018,0.832-1.126,1.841-1.126C17.018,18.245,17.841,18.353,17.841,19.372z"/>
	<path class="st3" d="M17.841,19.372c0,0.656-0.744,1.224-1.283,1.547c-0.352,0.206-0.764,0.206-1.116,0
		c-0.323-0.196-0.744-0.49-1.009-0.843c0.157,0.118,0.313,0.216,0.451,0.304c0.401,0.235,0.871,0.235,1.273,0
		c0.607-0.362,1.43-0.999,1.459-1.723C17.763,18.823,17.841,19.058,17.841,19.372z"/>
	<path class="st4" d="M23.895,22.879c-4.254,4.053-11.761,3.805-15.824-0.072C10.816,24.221,21.352,24.211,23.895,22.879z"/>
	<path class="st4" d="M20.611,4.601c0,0,2.841,0.126,5.195,3.397C25.806,7.997,24.549,2.364,20.611,4.601z"/>
	<path class="st4" d="M11.389,4.601c0,0-2.841,0.126-5.195,3.397C6.194,7.997,7.452,2.364,11.389,4.601z"/>
	<path class="st4" d="M23.341,21.502c0,0,0.768,0.26,1.744,0.896c3.556,2.221,4.608,5.249,5.057,8.655
		c-0.549-3.056-1.545-6.14-5.303-8.251c-0.974-0.569-1.675-0.768-1.675-0.768c-0.149-0.042-0.236-0.197-0.193-0.346
		c0.042-0.149,0.198-0.236,0.347-0.193c0.004,0.001,0.008,0.003,0.013,0.004L23.341,21.502z"/>
	<path class="st4" d="M22.643,20.195c2.116,0.259,4.759,1.738,6.719,4.779c-2.112-2.841-4.79-4.122-6.773-4.221
		c-0.155-0.008-0.274-0.139-0.267-0.294c0.008-0.155,0.139-0.274,0.294-0.267c0.007,0.001,0.013,0.001,0.02,0.002L22.643,20.195z"/>
	<path class="st4" d="M24.643,19.865c1.699,0.107,3.529,0.453,4.842,1.673c1.358,1.167,2.004,2.782,2.515,4.42
		c-0.562-1.537-1.266-3.14-2.671-4.232c-1.366-1.124-3.01-1.347-4.705-1.372c-0.135-0.002-0.243-0.113-0.241-0.248
		c0.002-0.135,0.113-0.243,0.249-0.241C24.635,19.865,24.64,19.865,24.643,19.865z"/>
	<path class="st4" d="M8.659,21.502c0,0-0.769,0.26-1.744,0.896c-3.556,2.221-4.608,5.249-5.057,8.655
		c0.549-3.056,1.545-6.14,5.303-8.251c0.974-0.569,1.675-0.768,1.675-0.768c0.149-0.042,0.236-0.197,0.193-0.346
		c-0.042-0.149-0.198-0.236-0.347-0.193c-0.004,0.001-0.008,0.003-0.013,0.004L8.659,21.502z"/>
	<path class="st4" d="M9.357,20.195c-2.116,0.259-4.76,1.738-6.719,4.779c2.112-2.841,4.79-4.122,6.773-4.221
		c0.155-0.008,0.274-0.139,0.267-0.294c-0.008-0.155-0.139-0.274-0.294-0.267c-0.007,0.001-0.013,0.001-0.019,0.002L9.357,20.195z"
		/>
	<path class="st4" d="M7.357,19.865c-1.699,0.107-3.529,0.453-4.842,1.673C1.157,22.705,0.51,24.32,0,25.959
		c0.562-1.537,1.266-3.14,2.671-4.232c1.366-1.124,3.01-1.347,4.705-1.372c0.135-0.002,0.243-0.113,0.241-0.248
		c-0.002-0.135-0.113-0.243-0.248-0.241C7.365,19.865,7.36,19.865,7.357,19.865z"/>
	<ellipse class="st1" cx="10.201" cy="13.012" rx="4.915" ry="5.234"/>
	<path class="st4" d="M13.361,9.035l-3.158,3.163L7.041,9.036c-0.188-0.168-0.96,0.698-0.772,0.866l3.115,3.115l-3.113,3.108
		c-0.242,0.216,0.531,1.082,0.773,0.866l3.159-3.154l3.155,3.155c0.208,0.186,0.98-0.681,0.772-0.867l-3.108-3.108l3.11-3.115
		C14.334,9.722,13.563,8.855,13.361,9.035z"/>
	<ellipse class="st1" cx="21.804" cy="13.012" rx="4.915" ry="5.234"/>
	<path class="st4" d="M24.964,9.035l-3.158,3.163l-3.162-3.162c-0.188-0.168-0.961,0.698-0.772,0.866l3.115,3.115l-3.113,3.108
		c-0.242,0.216,0.531,1.082,0.773,0.866l3.16-3.154l3.155,3.155c0.208,0.186,0.98-0.681,0.772-0.867l-3.108-3.108l3.11-3.115
		C25.937,9.722,25.166,8.855,24.964,9.035z"/>
	<path class="st5" d="M16.445,25.818c0.558,0.089,1.206,0.976,1.377,1.76c0.17,0.783,0.116,1.596,0.177,2.395
		c0.154,2.014,1.117,2.962,3.246,2.962c2.054,0,3.112-1.13,3.174-2.977c0,0-0.022-5.837-2.617-6.809
		c-2.319-0.868-2.909,0.844-2.909,0.844S16.445,23.632,16.445,25.818z"/>
	<path class="st6" d="M17.822,27.577c0.17,0.783,0.116,1.596,0.177,2.395c0.154,2.014,1.117,2.962,3.246,2.962
		c1.73,0,2.746-0.81,3.062-2.167c-0.572,1.119-1.929,1.53-3.524,1.101c-1.354-0.365-1.891-2.172-2.453-4.094
		c-0.563-1.922-1.884-1.957-1.884-1.957C17.003,25.907,17.652,26.794,17.822,27.577z"/>
	<path class="st7" d="M21.635,23.937c-0.124,0.161-0.468,0.11-0.82,0.08c-0.344-0.036-0.695-0.059-0.783-0.234
		c-0.102-0.176,0.278-0.542,0.856-0.483C21.46,23.359,21.76,23.784,21.635,23.937z"/>
</g>
</svg>
