<?xml version="1.0" encoding="utf-8"?>
<!-- Generator: Adobe Illustrator 21.1.0, SVG Export Plug-In . SVG Version: 6.00 Build 0)  -->
<svg version="1.1" id="Layer_1" xmlns="http://www.w3.org/2000/svg" xmlns:xlink="http://www.w3.org/1999/xlink" x="0px" y="0px"
	 viewBox="0 0 32 32" style="enable-background:new 0 0 32 32;" xml:space="preserve">
<style type="text/css">
	.st0{fill:#FFD93B;}
	.st1{fill:#FFFFFF;}
	.st2{fill:#89664C;}
	.st3{fill:#3E4347;}
	.st4{fill:#E24B4B;}
	.st5{fill:#F29A2E;}
	.st6{fill:#5A5F63;}
	.st7{fill:#E18823;}
	.st8{fill:#65B1EF;}
	.st9{fill:#D03F3F;}
	.st10{opacity:0.2;}
	.st11{fill:#DEE4E9;}
	.st12{fill:#45CBEA;}
	.st13{fill:#F4C534;}
	.st14{fill:#BF3333;}
	.st15{fill:#D23F77;}
	.st16{fill:#E84D88;}
	.st17{fill:#7A5B44;}
	.st18{fill:#6B503B;}
	.st19{opacity:0.2;fill:#FFFFFF;}
	.st20{fill:#4E99D2;}
	.st21{fill:none;}
	.st22{opacity:0.15;fill:#FFFFFF;}
	.st23{fill:#8CC63E;}
	.st24{fill:#9A795F;}
	.st25{fill:#E9EFF4;}
</style>
<g>
	<path class="st0" d="M14.067,6.696C9.663,3.671,5.545,1.102,2.402,0.077c-0.79-0.249-1.581,0.343-1.581,1.165v16.55l13.247-4.284
		V6.696z"/>
	<path class="st0" d="M17.937,6.696c4.405-3.025,8.522-5.594,11.666-6.619c0.791-0.249,1.581,0.343,1.581,1.165v16.55l-13.247-4.284
		V6.696z"/>
	<path class="st13" d="M8.492,6.108C6.438,4.774,4.546,3.699,2.997,3.166v7.926C4.553,9.123,6.439,7.392,8.492,6.108z"/>
	<path class="st13" d="M26.689,9.287c0.799,0.695,1.633,1.444,2.314,2.293V3.166c-1.645,0.565-3.677,1.746-5.879,3.194
		C24.399,7.211,25.528,8.276,26.689,9.287z"/>
	<circle class="st0" cx="16" cy="16.77" r="15.21"/>
	<path class="st13" d="M31.21,16.77c0,8.404-6.811,15.21-15.21,15.21c-4.782,0-9.05-2.206-11.84-5.661
		c2.609,2.11,5.932,3.37,9.549,3.37c8.399,0,15.21-6.806,15.21-15.21c0-3.617-1.259-6.94-3.37-9.549
		C29,7.72,31.21,11.989,31.21,16.77z"/>
	<path class="st17" d="M18.147,20.895c0,0.765-0.868,1.428-1.496,1.805c-0.411,0.24-0.891,0.24-1.302,0
		c-0.617-0.377-1.496-1.04-1.496-1.805c0-1.188,0.971-1.314,2.147-1.314C17.188,19.581,18.147,19.707,18.147,20.895z"/>
	<path class="st18" d="M18.147,20.895c0,0.765-0.868,1.428-1.496,1.805c-0.411,0.24-0.891,0.24-1.302,0
		c-0.377-0.229-0.868-0.571-1.177-0.983c0.183,0.137,0.366,0.251,0.525,0.354c0.468,0.274,1.017,0.274,1.485,0
		c0.708-0.422,1.668-1.165,1.702-2.01C18.056,20.255,18.147,20.529,18.147,20.895z"/>
	<path class="st3" d="M20.703,5.665c0,0,2.897,0.129,5.299,3.464C26.001,9.129,24.719,3.383,20.703,5.665z"/>
	<path class="st3" d="M11.297,5.665c0,0-2.897,0.129-5.299,3.464C5.999,9.129,7.282,3.383,11.297,5.665z"/>
	<circle class="st13" cx="9.921" cy="14.482" r="5.062"/>
	<circle class="st1" cx="9.921" cy="14.481" r="4.125"/>
	
		<ellipse transform="matrix(0.7072 -0.707 0.707 0.7072 -7.3328 11.2537)" class="st3" cx="9.92" cy="14.479" rx="1.902" ry="1.902"/>
	<path class="st13" d="M14.224,17.124c-2.837-1.852-5.15-4.165-6.949-6.949c1.949-1.189,4.54-0.964,6.232,0.728
		C15.188,12.595,15.413,15.175,14.224,17.124z"/>
	<path class="st1" d="M9.463,13.329c0.122,0.127,0.072,0.384-0.128,0.577c-0.193,0.186-0.46,0.233-0.582,0.106
		c-0.131-0.136-0.074-0.401,0.119-0.587C9.073,13.233,9.34,13.186,9.463,13.329z"/>
	<circle class="st13" cx="22.079" cy="14.482" r="5.062"/>
	<circle class="st1" cx="22.079" cy="14.481" r="4.125"/>
	
		<ellipse transform="matrix(0.707 -0.7072 0.7072 0.707 -3.7708 19.8569)" class="st3" cx="22.08" cy="14.479" rx="1.902" ry="1.902"/>
	<path class="st13" d="M17.776,17.124c2.837-1.852,5.15-4.165,6.949-6.949c-1.949-1.189-4.54-0.964-6.232,0.728
		C16.812,12.595,16.587,15.175,17.776,17.124z"/>
	<path class="st1" d="M22.537,13.329c-0.122,0.127-0.072,0.384,0.128,0.577c0.193,0.186,0.46,0.233,0.581,0.106
		c0.131-0.136,0.074-0.401-0.119-0.587C22.927,13.233,22.66,13.186,22.537,13.329z"/>
	<path class="st3" d="M21.851,22.733c1.903-0.367,3.315,0.277,4.466,1.557c1.462,1.715,1.936,4.002,2.333,6.511
		c-0.489-2.385-1.066-4.691-2.57-6.299c-1.112-1.125-2.378-1.659-4.136-1.241c-0.144,0.034-0.289-0.055-0.323-0.199
		c-0.034-0.144,0.055-0.289,0.199-0.323c0.003,0,0.007-0.002,0.01-0.002L21.851,22.733z"/>
	<path class="st3" d="M21.087,21.879c1.464-0.427,4.133-0.218,6.709,1.436c0.697,0.465,1.097,0.745,2.439,2.058
		c-1.391-1.226-1.814-1.489-2.528-1.914c-2.632-1.498-5.209-1.518-6.46-1.069c-0.139,0.05-0.293-0.023-0.343-0.162
		c-0.05-0.139,0.022-0.293,0.162-0.343c0.005-0.002,0.01-0.003,0.015-0.005L21.087,21.879z"/>
	<path class="st3" d="M23.086,20.713c1.072-0.174,2.958-0.155,4.668,0.234c1.735,0.369,2.949,0.995,4.246,1.813
		c-1.252-0.689-2.488-1.273-4.297-1.55c-1.651-0.276-3.5-0.201-4.52,0.03c-0.145,0.033-0.288-0.058-0.321-0.202
		c-0.033-0.145,0.058-0.288,0.202-0.321c0.005-0.001,0.01-0.002,0.015-0.003L23.086,20.713z"/>
	<path class="st3" d="M10.149,22.733c-1.903-0.367-3.315,0.277-4.466,1.557c-1.462,1.715-1.936,4.002-2.333,6.511
		c0.489-2.385,1.066-4.691,2.57-6.299c1.112-1.125,2.379-1.659,4.136-1.241c0.144,0.034,0.289-0.055,0.323-0.199
		c0.034-0.144-0.055-0.289-0.199-0.323c-0.003,0-0.007-0.002-0.01-0.002L10.149,22.733z"/>
	<path class="st3" d="M10.913,21.879c-1.464-0.427-4.133-0.218-6.709,1.436c-0.696,0.465-1.097,0.745-2.439,2.058
		c1.391-1.226,1.814-1.489,2.528-1.914c2.631-1.498,5.209-1.518,6.46-1.069c0.139,0.05,0.293-0.023,0.343-0.162
		c0.05-0.139-0.022-0.293-0.162-0.343c-0.005-0.002-0.01-0.003-0.015-0.005L10.913,21.879z"/>
	<path class="st3" d="M8.914,20.713c-1.072-0.174-2.958-0.155-4.668,0.234C2.512,21.316,1.297,21.942,0,22.76
		c1.252-0.689,2.488-1.273,4.296-1.55c1.651-0.276,3.5-0.201,4.521,0.03c0.145,0.033,0.288-0.058,0.321-0.202
		c0.033-0.145-0.058-0.288-0.203-0.321c-0.005-0.001-0.01-0.002-0.015-0.003L8.914,20.713z"/>
	<path class="st3" d="M23.078,25.241C21.66,27.72,19.019,27.507,16,28.893c-3.029,1.387-5.66-1.791-7.078-3.709
		c-0.245-0.266,0.153-0.952,0.642-1.079c4.284-0.353,8.587,2.77,12.871,0.705C22.925,24.502,23.323,24.736,23.078,25.241z"/>
	<path class="st4" d="M15.915,26.773c-0.345,0.112-0.726,0.163-1.105,0.103c-1.245-0.216-2.519,0.452-2.766,1.548
		c1.315,0.393,2.516,0.304,3.956-0.027c1.151-0.252,1.966-0.453,3.24-0.653c0.012-0.037,0.038-0.069,0.04-0.108
		C19.322,26.948,17.385,26.386,15.915,26.773z"/>
	<path class="st1" d="M10.321,24.08c0.776,1.823,3.058,2.4,5.762,2.405c2.751,0.003,5.069,0.053,5.805-1.409
		c-0.016-0.007-0.032-0.014-0.048-0.021C18.006,26.489,14.156,24.103,10.321,24.08z"/>
	<path class="st1" d="M16,28.893c1.3-0.597,2.529-0.897,3.621-1.244c-0.01-0.01-0.014-0.023-0.026-0.033
		c-1.071,0.05-2.295,0.288-3.595,0.292c-1.67-0.012-3.209-0.002-4.464,0.124C12.818,29.046,14.349,29.649,16,28.893z"/>
</g>
</svg>
