<?xml version="1.0" encoding="utf-8"?>
<!-- Generator: Adobe Illustrator 21.1.0, SVG Export Plug-In . SVG Version: 6.00 Build 0)  -->
<svg version="1.1" id="Layer_1" xmlns="http://www.w3.org/2000/svg" xmlns:xlink="http://www.w3.org/1999/xlink" x="0px" y="0px"
	 viewBox="0 0 32 32" style="enable-background:new 0 0 32 32;" xml:space="preserve">
<style type="text/css">
	.st0{fill:#FFD93B;}
	.st1{fill:#FFFFFF;}
	.st2{fill:#89664C;}
	.st3{fill:#3E4347;}
	.st4{fill:#E24B4B;}
	.st5{fill:#F29A2E;}
	.st6{fill:#5A5F63;}
	.st7{fill:#E18823;}
	.st8{fill:#65B1EF;}
	.st9{fill:#D03F3F;}
	.st10{opacity:0.2;}
	.st11{fill:#DEE4E9;}
	.st12{fill:#45CBEA;}
	.st13{fill:#F4C534;}
	.st14{fill:#BF3333;}
	.st15{fill:#D23F77;}
	.st16{fill:#E84D88;}
	.st17{fill:#7A5B44;}
	.st18{fill:#6B503B;}
	.st19{opacity:0.2;fill:#FFFFFF;}
	.st20{fill:#4E99D2;}
	.st21{fill:none;}
	.st22{opacity:0.15;fill:#FFFFFF;}
	.st23{fill:#8CC63E;}
	.st24{fill:#9A795F;}
	.st25{fill:#E9EFF4;}
</style>
<g>
	<path class="st0" d="M14.123,6.483C9.846,3.546,5.848,1.051,2.795,0.056C2.027-0.186,1.26,0.389,1.26,1.187v16.071l12.864-4.16
		V6.483z"/>
	<path class="st0" d="M17.881,6.483c4.277-2.937,8.275-5.432,11.328-6.427c0.768-0.242,1.535,0.333,1.535,1.132v16.071l-12.864-4.16
		V6.483z"/>
	<path class="st13" d="M8.709,5.912C6.715,4.617,4.878,3.573,3.373,3.056v7.697C4.884,8.84,6.716,7.16,8.709,5.912z"/>
	<path class="st13" d="M26.38,8.999c0.775,0.675,1.586,1.402,2.247,2.227V3.056c-1.597,0.549-3.571,1.696-5.708,3.101
		C24.156,6.984,25.252,8.017,26.38,8.999z"/>
	<g>
		<g>
			<g>
				<g>
					<g>
						<g>
							<g>
								<g>
									<g>
										<g>
											<g>
												<g>
													<g>
														<g>
															<g>
																<g>
																	<g>
																		<circle class="st0" cx="16" cy="17.255" r="14.745"/>
																	</g>
																</g>
															</g>
														</g>
													</g>
												</g>
												<g>
													<g>
														<g>
															<g>
																<g>
																	<g>
																		<path class="st13" d="M30.745,17.255C30.745,25.402,24.142,32,16,32c-4.635,0-8.773-2.138-11.478-5.488
																			c2.53,2.046,5.75,3.267,9.257,3.267c8.142,0,14.745-6.598,14.745-14.745c0-3.506-1.221-6.727-3.267-9.257
																			C28.602,8.482,30.745,12.62,30.745,17.255z"/>
																	</g>
																</g>
															</g>
														</g>
													</g>
												</g>
											</g>
										</g>
									</g>
								</g>
							</g>
						</g>
					</g>
				</g>
			</g>
		</g>
	</g>
	<path class="st3" d="M6.896,7.237c0,0,3.009-2.41,6.503-1.447C13.399,5.79,9.085,1.66,6.896,7.237z"/>
	<path class="st3" d="M25.104,7.237c0,0-3.009-2.41-6.503-1.447C18.601,5.79,22.915,1.66,25.104,7.237z"/>
	<path class="st3" d="M31.358,9.368l0,2.476c0,0.128-0.05,0.246-0.123,0.351c-0.345,0.495-0.242,0.893-0.242,2.288
		c0,3.865-2.561,6.674-6.094,6.674c-3.737,0-6.937-3.16-7.891-6.314c-0.135-0.446-0.542-0.751-1.009-0.751l0,0
		c-0.466,0-0.873,0.305-1.008,0.751c-0.954,3.154-4.154,6.314-7.891,6.314c-3.532,0-6.094-2.809-6.094-6.674
		c0-1.396,0.104-1.794-0.242-2.289c-0.073-0.105-0.123-0.223-0.123-0.351V9.368c0-0.379,0.38-0.67,0.787-0.527
		c0.956,0.338,2.005,0.082,2.907-0.382c2.443-1.256,6.696-0.525,8.762,0.775c1.822,1.146,3.888,1.206,5.805,0
		c2.047-1.288,6.299-2.041,8.762-0.775c0.902,0.464,1.951,0.72,2.907,0.382C30.978,8.697,31.358,8.988,31.358,9.368z"/>
	<path class="st8" d="M17.743,12.94c0,2.967,3.457,6.914,7.152,6.914c2.967,0,4.797-2.406,4.797-5.373
		c0-2.967-1.829-5.373-4.797-5.373C21.928,9.108,17.743,9.972,17.743,12.94z"/>
	<path class="st8" d="M14.256,12.94c0,2.967-3.457,6.914-7.152,6.914c-2.967,0-4.796-2.406-4.796-5.373
		c0-2.967,1.829-5.373,4.796-5.373C10.071,9.108,14.256,9.972,14.256,12.94z"/>
	<path class="st20" d="M10.118,9.409L2.728,16.8c0.342,0.882,0.882,1.632,1.599,2.167l8.503-8.503
		C12.088,9.961,11.129,9.621,10.118,9.409z"/>
	<path class="st20" d="M2.323,14.892c0.028,0.481,0.106,0.942,0.228,1.379l6.972-6.972C9.037,9.221,8.55,9.17,8.074,9.141
		L2.323,14.892z"/>
	<path class="st20" d="M26.272,9.304l-7.191,7.191c0.512,0.706,1.147,1.361,1.864,1.902l7.571-7.571
		C27.949,10.106,27.191,9.572,26.272,9.304z"/>
	<path class="st20" d="M18.798,16.073l6.896-6.897c-0.257-0.041-0.522-0.068-0.8-0.068c-0.246,0-0.501,0.009-0.76,0.021
		l-5.898,5.898C18.391,15.381,18.579,15.73,18.798,16.073z"/>
	<path class="st17" d="M18.388,20.427c0,0.851-0.965,1.588-1.664,2.007c-0.457,0.267-0.991,0.267-1.448,0
		c-0.686-0.419-1.664-1.156-1.664-2.007c0-1.321,1.08-1.461,2.388-1.461C17.321,18.967,18.388,19.106,18.388,20.427z"/>
	<path class="st18" d="M18.388,20.427c0,0.851-0.965,1.588-1.664,2.007c-0.457,0.267-0.991,0.267-1.448,0
		c-0.419-0.254-0.965-0.635-1.308-1.093c0.203,0.153,0.406,0.28,0.584,0.394c0.521,0.305,1.13,0.305,1.651,0
		c0.788-0.469,1.854-1.296,1.893-2.235C18.286,19.716,18.388,20.021,18.388,20.427z"/>
	<g>
		<path class="st3" d="M24.241,23.802c-1.19,3.237-4.312,5.556-7.995,5.556c-3.674,0-6.805-2.319-7.995-5.563
			c-0.086-0.253,0.209-0.467,0.504-0.364c2.903,1.052,12.06,1.068,14.982,0.008C24.031,23.327,24.336,23.549,24.241,23.802z"/>
		<path class="st4" d="M16.245,29.358c1.441,0,2.794-0.359,3.981-0.985c-0.32-1.28-1.999-1.995-3.418-1.486
			c-0.445,0.16-0.938,0.179-1.403,0.064c-1.322-0.327-2.731,0.335-3.1,1.443C13.484,29.008,14.823,29.358,16.245,29.358z"/>
		<path class="st1" d="M23.39,23.542c-0.66,0.909-1.564,1.528-2.629,1.951l-0.32,1.316l-0.509-1.05
			c-1.112,0.306-2.365,0.431-3.684,0.431c-1.329,0-2.582-0.125-3.694-0.438l-0.499,1.057l-0.32-1.324
			c-1.065-0.415-1.969-1.042-2.629-1.951C12.195,24.442,20.28,24.458,23.39,23.542z"/>
	</g>
	<path class="st3" d="M22.698,22.316c1.435,0.275,3.578,1.252,5.54,2.934c1.723,1.492,2.686,2.986,3.728,4.969
		c-1.105-1.91-2.127-3.371-3.888-4.777c-1.968-1.554-4.124-2.435-5.468-2.633c-0.137-0.02-0.231-0.147-0.211-0.284
		c0.02-0.137,0.147-0.231,0.284-0.211C22.686,22.314,22.695,22.316,22.698,22.316z"/>
	<path class="st3" d="M24.451,21.984c0.94,0.079,2.534,0.488,3.753,1.076c1.445,0.675,2.251,1.405,3.075,2.316
		c-0.893-0.866-1.716-1.516-3.174-2.086c-1.22-0.494-2.799-0.791-3.685-0.806c-0.138-0.002-0.248-0.116-0.246-0.254
		c0.002-0.138,0.116-0.248,0.254-0.246c0.006,0,0.011,0,0.016,0.001L24.451,21.984z"/>
	<path class="st3" d="M25.823,21.396c0.808-0.183,2.117-0.218,3.134,0c1.895,0.428,2.684,1.469,2.684,1.469
		c-0.005,0.006-0.826-0.951-2.725-1.223c-0.997-0.13-2.236,0.007-2.968,0.238c-0.132,0.042-0.272-0.031-0.314-0.163
		c-0.042-0.132,0.031-0.272,0.163-0.314c0.007-0.002,0.013-0.004,0.02-0.005L25.823,21.396z"/>
	<path class="st3" d="M9.302,22.316c-1.436,0.275-3.578,1.252-5.54,2.934c-1.723,1.492-2.686,2.986-3.728,4.969
		c1.105-1.91,2.127-3.371,3.888-4.777c1.969-1.554,4.124-2.435,5.468-2.633c0.137-0.02,0.231-0.147,0.211-0.284
		c-0.02-0.137-0.147-0.231-0.284-0.211C9.314,22.314,9.305,22.316,9.302,22.316z"/>
	<path class="st3" d="M7.549,21.984c-0.94,0.079-2.534,0.488-3.753,1.076c-1.445,0.675-2.251,1.405-3.075,2.316
		c0.893-0.866,1.715-1.516,3.174-2.086c1.22-0.494,2.799-0.791,3.685-0.806c0.138-0.002,0.248-0.116,0.246-0.254
		C7.824,22.09,7.71,21.98,7.572,21.982c-0.005,0-0.011,0-0.016,0.001L7.549,21.984z"/>
	<path class="st3" d="M6.177,21.396c-0.808-0.183-2.117-0.218-3.134,0c-1.895,0.428-2.684,1.469-2.684,1.469
		c0.005,0.006,0.827-0.951,2.726-1.223c0.997-0.13,2.235,0.007,2.968,0.238c0.132,0.042,0.273-0.031,0.314-0.163
		c0.042-0.132-0.031-0.272-0.163-0.314c-0.007-0.002-0.013-0.004-0.02-0.005L6.177,21.396z"/>
</g>
</svg>
