<?xml version="1.0" encoding="utf-8"?>
<!-- Generator: Adobe Illustrator 21.1.0, SVG Export Plug-In . SVG Version: 6.00 Build 0)  -->
<svg version="1.1" id="Layer_1" xmlns="http://www.w3.org/2000/svg" xmlns:xlink="http://www.w3.org/1999/xlink" x="0px" y="0px"
	 viewBox="0 0 32 32" style="enable-background:new 0 0 32 32;" xml:space="preserve">
<style type="text/css">
	.st0{fill:#FFD93B;}
	.st1{fill:#FFFFFF;}
	.st2{fill:#89664C;}
	.st3{fill:#3E4347;}
	.st4{fill:#E24B4B;}
	.st5{fill:#F29A2E;}
	.st6{fill:#5A5F63;}
	.st7{fill:#E18823;}
	.st8{fill:#65B1EF;}
	.st9{fill:#D03F3F;}
	.st10{opacity:0.2;}
	.st11{fill:#DEE4E9;}
	.st12{fill:#45CBEA;}
	.st13{fill:#F4C534;}
	.st14{fill:#BF3333;}
	.st15{fill:#D23F77;}
	.st16{fill:#E84D88;}
	.st17{fill:#7A5B44;}
	.st18{fill:#6B503B;}
	.st19{opacity:0.2;fill:#FFFFFF;}
	.st20{fill:#4E99D2;}
	.st21{fill:none;}
	.st22{opacity:0.15;fill:#FFFFFF;}
	.st23{fill:#8CC63E;}
	.st24{fill:#9A795F;}
	.st25{fill:#E9EFF4;}
</style>
<g>
	<path class="st0" d="M14.196,6.265C10.085,3.441,6.242,1.043,3.307,0.087C2.569-0.146,1.831,0.407,1.831,1.174v15.448l12.365-3.999
		V6.265z"/>
	<path class="st0" d="M17.808,6.265c4.112-2.823,7.955-5.221,10.889-6.178c0.738-0.233,1.476,0.321,1.476,1.088v15.448
		l-12.365-3.999V6.265z"/>
	<path class="st13" d="M8.992,5.716C7.075,4.471,5.309,3.467,3.863,2.97v7.398C5.315,8.53,7.076,6.915,8.992,5.716z"/>
	<path class="st13" d="M25.977,8.683c0.745,0.649,1.525,1.347,2.16,2.141V2.97c-1.535,0.528-3.432,1.63-5.487,2.981
		C23.839,6.746,24.893,7.739,25.977,8.683z"/>
	<g>
		<g>
			<g>
				<g>
					<g>
						<g>
							<g>
								<circle class="st0" cx="16" cy="15.668" r="14.197"/>
							</g>
						</g>
					</g>
				</g>
			</g>
		</g>
		<g>
			<g>
				<g>
					<g>
						<g>
							<g>
								<path class="st13" d="M30.197,15.668c0,7.844-6.358,14.197-14.197,14.197c-4.463,0-8.448-2.059-11.052-5.284
									c2.436,1.97,5.537,3.146,8.913,3.146c7.84,0,14.198-6.353,14.198-14.197c0-3.376-1.176-6.477-3.146-8.913
									C28.134,7.221,30.197,11.205,30.197,15.668z"/>
							</g>
						</g>
					</g>
				</g>
			</g>
		</g>
	</g>
	<path class="st17" d="M17.753,19.364c0,0.625-0.708,1.165-1.221,1.473c-0.336,0.196-0.727,0.196-1.063,0
		c-0.503-0.308-1.221-0.848-1.221-1.473c0-0.97,0.792-1.072,1.753-1.072C16.97,18.292,17.753,18.394,17.753,19.364z"/>
	<path class="st18" d="M17.753,19.364c0,0.625-0.708,1.165-1.221,1.473c-0.336,0.196-0.727,0.196-1.063,0
		c-0.308-0.187-0.709-0.466-0.96-0.802c0.149,0.112,0.298,0.205,0.429,0.289c0.382,0.224,0.83,0.224,1.212,0
		c0.578-0.345,1.361-0.951,1.389-1.641C17.678,18.842,17.753,19.066,17.753,19.364z"/>
	<path class="st3" d="M9.25,25.654c0.675-1.689,2.085-2.793,3.75-3.389c1.994-0.713,4.092-0.679,5.996-0.001
		c1.666,0.594,3.079,1.708,3.751,3.389c-0.912-1.157-2.519-2.018-4.057-2.42c-1.509-0.431-3.781-0.46-5.385-0.002
		C11.421,23.722,9.974,24.725,9.25,25.654z"/>
	<path class="st3" d="M23.074,22.875c0,0,0.732,0.248,1.66,0.853c3.385,2.115,4.387,4.997,4.814,8.24
		c-0.523-2.909-1.471-5.845-5.048-7.855c-0.927-0.541-1.594-0.731-1.594-0.731c-0.142-0.04-0.224-0.188-0.184-0.33
		c0.04-0.142,0.188-0.224,0.33-0.184c0.004,0.001,0.008,0.003,0.012,0.004L23.074,22.875z"/>
	<path class="st3" d="M23.084,21.38c2.015,0.247,4.531,1.655,6.396,4.55c-2.011-2.705-4.56-3.924-6.448-4.018
		c-0.147-0.007-0.261-0.133-0.254-0.28c0.007-0.148,0.133-0.261,0.28-0.254c0.006,0,0.012,0.001,0.018,0.002L23.084,21.38z"/>
	<path class="st3" d="M24.997,20.753c0.587,0.037,0.93,0.05,1.537,0.168c1.063,0.177,2.294,0.702,3.072,1.425
		c1.285,1.104,1.905,2.638,2.394,4.208c-0.537-1.469-1.209-2.992-2.543-4.029c-0.929-0.765-2.108-1.106-2.987-1.216
		c-0.598-0.084-0.906-0.081-1.492-0.09c-0.129-0.002-0.232-0.108-0.23-0.236c0.002-0.129,0.108-0.232,0.236-0.23
		C24.989,20.753,24.993,20.753,24.997,20.753z"/>
	<path class="st3" d="M8.926,22.875c0,0-0.732,0.248-1.66,0.853c-3.385,2.115-4.387,4.997-4.814,8.24
		c0.523-2.909,1.471-5.845,5.048-7.855c0.927-0.541,1.594-0.731,1.594-0.731c0.142-0.04,0.224-0.188,0.184-0.33
		c-0.04-0.142-0.188-0.224-0.33-0.184c-0.004,0.001-0.008,0.003-0.012,0.004L8.926,22.875z"/>
	<path class="st3" d="M8.916,21.38c-2.015,0.247-4.531,1.655-6.396,4.55c2.011-2.705,4.56-3.924,6.448-4.018
		c0.147-0.007,0.261-0.133,0.254-0.28c-0.007-0.148-0.133-0.261-0.28-0.254c-0.006,0-0.012,0.001-0.019,0.002L8.916,21.38z"/>
	<path class="st3" d="M7.003,20.753c-0.587,0.037-0.93,0.05-1.537,0.168c-1.055,0.175-2.288,0.696-3.072,1.425
		C1.109,23.45,0.489,24.984,0,26.554c0.537-1.469,1.209-2.992,2.543-4.029c0.929-0.765,2.108-1.106,2.987-1.216
		c0.598-0.084,0.906-0.081,1.492-0.09c0.129-0.002,0.232-0.108,0.23-0.236c-0.002-0.129-0.108-0.232-0.237-0.23
		C7.012,20.753,7.007,20.753,7.003,20.753z"/>
	<path class="st3" d="M14.643,10.366c0,0-0.283-1.155-5.168-3.339C9.475,7.026,16.005,6.737,14.643,10.366z"/>
	<path class="st3" d="M17.357,10.366c0,0,0.283-1.155,5.168-3.339C22.525,7.026,15.995,6.737,17.357,10.366z"/>
	<circle class="st13" cx="22.146" cy="14.379" r="5.243"/>
	<path class="st1" d="M26.14,15.917c-0.925,2.385-3.927,3.742-6.774,1.83c-0.288-0.195-0.535-0.463-0.72-0.761
		c-1.717-2.837-0.35-5.746,2.025-6.61c0.154-0.052,0.339-0.031,0.483,0.072c1.85,1.244,3.495,2.878,4.914,4.965
		C26.171,15.557,26.201,15.753,26.14,15.917z"/>
	<ellipse transform="matrix(0.707 -0.7072 0.7072 0.707 -3.6798 19.8772)" class="st3" cx="22.15" cy="14.38" rx="1.97" ry="1.97"/>
	<path class="st1" d="M22.623,13.189c-0.126,0.131-0.075,0.398,0.133,0.597c0.2,0.192,0.476,0.241,0.602,0.11
		c0.136-0.141,0.076-0.415-0.123-0.608C23.027,13.088,22.751,13.04,22.623,13.189z"/>
	<circle class="st13" cx="9.854" cy="14.379" r="5.243"/>
	<path class="st1" d="M5.86,15.917c0.925,2.385,3.927,3.742,6.774,1.83c0.288-0.195,0.535-0.463,0.72-0.761
		c1.717-2.837,0.35-5.746-2.025-6.61c-0.154-0.052-0.339-0.031-0.483,0.072c-1.85,1.244-3.495,2.878-4.914,4.965
		C5.829,15.557,5.799,15.753,5.86,15.917z"/>
	<ellipse transform="matrix(0.7072 -0.707 0.707 0.7072 -7.2828 11.1748)" class="st3" cx="9.85" cy="14.38" rx="1.97" ry="1.97"/>
	<path class="st1" d="M9.377,13.189c0.126,0.131,0.075,0.398-0.133,0.597c-0.2,0.192-0.476,0.241-0.602,0.11
		c-0.136-0.141-0.076-0.415,0.123-0.608C8.973,13.088,9.249,13.04,9.377,13.189z"/>
</g>
</svg>
