<?xml version="1.0" encoding="utf-8"?>
<!-- Generator: Adobe Illustrator 21.1.0, SVG Export Plug-In . SVG Version: 6.00 Build 0)  -->
<svg version="1.1" id="Layer_1" xmlns="http://www.w3.org/2000/svg" xmlns:xlink="http://www.w3.org/1999/xlink" x="0px" y="0px"
	 viewBox="0 0 32 32" style="enable-background:new 0 0 32 32;" xml:space="preserve">
<style type="text/css">
	.st0{fill:#FFD93B;}
	.st1{fill:#3E4347;}
	.st2{fill:#F4C534;}
	.st3{fill:#38C0DC;}
	.st4{fill:#45CBEA;}
	.st5{fill:#FFFFFF;}
	.st6{fill:#E24B4B;}
	.st7{fill:#5A5F63;}
	.st8{opacity:0.3;}
	.st9{opacity:0.2;}
	.st10{opacity:0.1;}
	.st11{fill:#E9B02C;}
	.st12{fill:#65B1EF;}
	.st13{fill:#E9EFF4;}
	.st14{fill:#8CC63E;}
	.st15{fill:#7FB239;}
	.st16{fill:#D03F3F;}
	.st17{fill:#D23F77;}
	.st18{fill:#E84D88;}
	.st19{fill:#59A5E0;}
	.st20{fill:#DEE4E9;}
	.st21{fill:#D3D9DD;}
	.st22{opacity:0.25;fill:#FFFFFF;}
	.st23{fill:#9A795F;}
	.st24{fill:#F29A2E;}
	.st25{fill:#FC97B2;}
	.st26{fill:#89664C;}
	.st27{fill:#7A5B44;}
	.st28{opacity:0.2;fill:#FFFFFF;}
	.st29{fill:#4E99D2;}
	.st30{fill:#BBC7D1;}
	.st31{fill:#DE9C25;}
</style>
<g>
	<g>
		<g>
			<g>
				<g>
					<g>
						<g>
							<g>
								<g>
									<circle class="st0" cx="16" cy="16" r="16"/>
								</g>
							</g>
						</g>
					</g>
				</g>
			</g>
		</g>
	</g>
	<g>
		<g>
			<g>
				<g>
					<g>
						<g>
							<g>
								<g>
									<path class="st1" d="M23.871,23.711c-1.36,2.81-4.2,4.88-7.87,4.88s-6.51-2.07-7.87-4.88c-0.38-0.78,0.16-1.7,0.96-1.65
										c4.58,0.31,9.24,0.31,13.82,0C23.701,22.011,24.231,22.931,23.871,23.711z"/>
								</g>
							</g>
						</g>
					</g>
				</g>
			</g>
		</g>
	</g>
	<g>
		<g>
			<g>
				<g>
					<g>
						<g>
							<g>
								<g>
									<path class="st2" d="M32,16c0,8.84-7.165,16-16,16c-5.03,0-9.52-2.32-12.455-5.955c2.745,2.22,6.24,3.545,10.045,3.545
										c8.835,0,16-7.16,16-16c0-3.805-1.325-7.3-3.545-10.045C29.675,6.48,32,10.97,32,16z"/>
								</g>
							</g>
						</g>
					</g>
				</g>
			</g>
		</g>
	</g>
	<circle class="st5" cx="9.664" cy="14.771" r="5.05"/>
	<circle class="st1" cx="9.664" cy="14.771" r="2.468"/>
	
		<ellipse transform="matrix(0.7071 -0.7071 0.7071 0.7071 -6.7608 11.5135)" class="st5" cx="10.518" cy="13.918" rx="0.512" ry="0.743"/>
	<circle class="st5" cx="22.336" cy="14.771" r="5.05"/>
	<circle class="st1" cx="22.336" cy="14.771" r="2.468"/>
	
		<ellipse transform="matrix(0.7071 -0.7071 0.7071 0.7071 -3.0492 20.4741)" class="st5" cx="23.19" cy="13.918" rx="0.512" ry="0.743"/>
	<path class="st1" d="M28.019,9.755c-0.234,0.323-0.72,0.399-1.054,0.149c-3.611-2.755-7.321-2.402-7.36-2.393
		c-0.41,0.047-0.781-0.255-0.828-0.666c-0.047-0.41,0.245-0.779,0.656-0.825c0.18-0.022,4.334-0.451,8.439,2.69
		C28.208,8.959,28.269,9.428,28.019,9.755z"/>
	<path class="st1" d="M3.981,9.755c0.234,0.323,0.72,0.399,1.054,0.149c3.611-2.755,7.321-2.402,7.36-2.393
		c0.41,0.047,0.781-0.255,0.828-0.666c0.047-0.41-0.245-0.779-0.656-0.825c-0.18-0.022-4.334-0.451-8.439,2.69
		C3.792,8.959,3.731,9.428,3.981,9.755z"/>
	<path class="st5" d="M10.331,22.124c1.042,2.415,3.186,2.282,5.665,2.282s4.623,0.133,5.665-2.282
		C17.898,22.333,14.095,22.333,10.331,22.124z"/>
	<path class="st5" d="M20.922,27.115c-1.229-0.936-2.979-0.866-4.926-0.866c-1.944,0-3.692-0.07-4.921,0.863
		c1.363,0.921,3.031,1.48,4.926,1.48C17.894,28.591,19.56,28.034,20.922,27.115z"/>
</g>
</svg>
