<?xml version="1.0" encoding="utf-8"?>
<!-- Generator: Adobe Illustrator 21.1.0, SVG Export Plug-In . SVG Version: 6.00 Build 0)  -->
<svg version="1.1" id="Layer_1" xmlns="http://www.w3.org/2000/svg" xmlns:xlink="http://www.w3.org/1999/xlink" x="0px" y="0px"
	 viewBox="0 0 32 32" style="enable-background:new 0 0 32 32;" xml:space="preserve">
<style type="text/css">
	.st0{fill:#FFD93B;}
	.st1{fill:#3E4347;}
	.st2{fill:#F4C534;}
	.st3{fill:#38C0DC;}
	.st4{fill:#45CBEA;}
	.st5{fill:#FFFFFF;}
	.st6{fill:#E24B4B;}
	.st7{fill:#5A5F63;}
	.st8{opacity:0.3;}
	.st9{opacity:0.2;}
	.st10{opacity:0.1;}
	.st11{fill:#E9B02C;}
	.st12{fill:#65B1EF;}
	.st13{fill:#E9EFF4;}
	.st14{fill:#8CC63E;}
	.st15{fill:#7FB239;}
	.st16{fill:#D03F3F;}
	.st17{fill:#D23F77;}
	.st18{fill:#E84D88;}
	.st19{fill:#59A5E0;}
	.st20{fill:#DEE4E9;}
	.st21{fill:#D3D9DD;}
	.st22{opacity:0.25;fill:#FFFFFF;}
	.st23{fill:#9A795F;}
	.st24{fill:#F29A2E;}
	.st25{fill:#FC97B2;}
	.st26{fill:#89664C;}
	.st27{fill:#7A5B44;}
	.st28{opacity:0.2;fill:#FFFFFF;}
	.st29{fill:#4E99D2;}
	.st30{fill:#BBC7D1;}
	.st31{fill:#DE9C25;}
</style>
<g>
	<circle class="st0" cx="16" cy="16" r="16"/>
	<path class="st2" d="M32,16c0,8.84-7.165,16-16,16c-5.03,0-9.52-2.32-12.455-5.955c2.745,2.22,6.24,3.545,10.045,3.545
		c8.835,0,16-7.16,16-16c0-3.805-1.325-7.3-3.545-10.045C29.675,6.48,32,10.97,32,16z"/>
	<ellipse class="st5" cx="22.161" cy="13.491" rx="4.444" ry="5.579"/>
	<ellipse class="st5" cx="22.161" cy="13.491" rx="4.444" ry="5.579"/>
	<ellipse class="st5" cx="22.161" cy="13.491" rx="4.444" ry="5.579"/>
	<path class="st1" d="M19.381,14.449c0,1.318,1.067,2.376,2.376,2.376c1.318,0,2.386-1.058,2.386-2.376s-1.068-2.385-2.385-2.385
		C20.449,12.064,19.381,13.131,19.381,14.449z"/>
	<path class="st5" d="M20.36,14.142c0.183,0.183,0.577,0.087,0.885-0.221c0.298-0.298,0.404-0.702,0.212-0.885
		c-0.173-0.173-0.577-0.067-0.875,0.231C20.274,13.564,20.187,13.959,20.36,14.142z"/>
	<path class="st12" d="M25.199,15.101c-0.804,0.188-0.941-0.427-1.745-0.248c-0.804,0.188-0.667,0.795-1.47,0.975
		c-0.804,0.18-0.941-0.428-1.745-0.248c-0.804,0.179-0.667,0.795-1.471,0.975c-0.116,0.026-0.213,0.028-0.305,0.026
		c0.797,1.501,2.155,2.492,3.698,2.492c2.266,0,4.138-2.14,4.411-4.896C25.919,14.391,25.961,14.932,25.199,15.101z"/>
	<path class="st0" d="M18.848,19.71c4.878,0.888,7.844-0.804,9.141-4.729C27.989,14.981,21.63,15.322,18.848,19.71z"/>
	<path class="st2" d="M27.991,14.982c-1.636-0.298-4.572,0.302-6.231,1.414c-1.333,0.81-2.328,1.864-2.914,3.317
		c1.727-1.573,1.264-1.227,3.378-2.513C23.506,16.391,26.837,15.345,27.991,14.982z"/>
	<path class="st12" d="M26.39,14.721c0,0,0.077,0.321-0.398,0.474c-1,0.324-2.036,0.573-1.782,2.539
		c0.103,0.795,0.577,1.662,0.615,1.979c0.121,0.992-1.421,1.362-1.154-0.209c0.115-0.68,0.276-1.571-0.253-2.042
		c-0.529-0.471-0.721-0.048-1.08,0.414c-0.359,0.462-0.667,0.282-0.731,0.846s-0.436,0.962-0.782,0.449s-0.064-1.013-0.064-1.308
		c0-0.295-0.002,0.026-0.488,0.449c-1.341,1.167,0.082,2.128-0.14,3.129c-0.103,0.462-0.18,0.667-0.487,0.641
		c-0.308-0.026-0.361-0.192-0.264-0.91c0.178-1.317,0.31-1.638-0.918-4.59l0.553,0.329l3.308-1.035
		c1.602-0.696,0.895-0.483,2.847-0.801c0.628-0.103,1.148-0.629,1.148-0.629"/>
	<ellipse class="st5" cx="9.839" cy="13.491" rx="4.444" ry="5.579"/>
	<ellipse class="st5" cx="9.839" cy="13.491" rx="4.444" ry="5.579"/>
	<ellipse class="st5" cx="9.839" cy="13.491" rx="4.444" ry="5.579"/>
	<path class="st1" d="M12.619,14.449c0,1.318-1.067,2.376-2.376,2.376c-1.318,0-2.386-1.058-2.386-2.376s1.068-2.385,2.385-2.385
		C11.551,12.064,12.619,13.131,12.619,14.449z"/>
	<path class="st5" d="M11.64,14.142c-0.183,0.183-0.577,0.087-0.885-0.221c-0.298-0.298-0.404-0.702-0.212-0.885
		c0.173-0.173,0.577-0.067,0.875,0.231C11.726,13.564,11.813,13.959,11.64,14.142z"/>
	<path class="st12" d="M6.801,15.101c0.804,0.188,0.941-0.427,1.745-0.248c0.804,0.188,0.667,0.795,1.47,0.975
		c0.804,0.18,0.941-0.428,1.745-0.248c0.804,0.179,0.667,0.795,1.471,0.975c0.116,0.026,0.213,0.028,0.305,0.026
		c-0.797,1.501-2.155,2.492-3.698,2.492c-2.266,0-4.138-2.14-4.411-4.896C6.081,14.391,6.039,14.932,6.801,15.101z"/>
	<path class="st0" d="M13.152,19.71c-4.878,0.888-7.844-0.804-9.141-4.729C4.011,14.981,10.37,15.322,13.152,19.71z"/>
	<path class="st2" d="M4.009,14.982c1.636-0.298,4.572,0.302,6.231,1.414c1.333,0.81,2.328,1.864,2.914,3.317
		c-1.727-1.573-1.264-1.227-3.378-2.513C8.494,16.391,5.163,15.345,4.009,14.982z"/>
	<path class="st12" d="M13.361,16.921l0.03,0.01c-0.04,0.11-0.1,0.25-0.15,0.39c-0.3,2.246-1.584,1.706-1.66,3.77
		c0,0.833-0.76,0.65-0.61,0.08c0.05-0.19,0.19-0.35,0.26-0.54c0.171-0.466-0.258-2.338-0.41-2.49c-0.29-0.29-0.83,0.08-1.19-0.13
		c-0.14-0.08-0.22-0.25-0.29-0.4c-0.264-0.603-0.616-0.572-0.72-0.35c-0.07,0.15,0.01,0.39-0.15,0.45
		c-0.13,0.06-0.24-0.12-0.24-0.27c0-0.14,0.04-0.31-0.06-0.41c-0.14-0.15-0.38-0.03-0.58-0.06c-0.24-0.04-0.36-0.29-0.52-0.47
		c-0.513-0.592-1.682-0.754-1.45-1.63c-0.041-0.109,0.027-0.298,0.06-0.43c0.673,0.686,1.341,0.66,2.72,0.88
		c1.423,0.616,1.168,0.526,1.93,0.76c0.15,0,0.3,0,0.45-0.01l2.36,0.78c0.14-0.09,0.34-0.23,0.4-0.27
		C13.491,16.701,13.411,16.811,13.361,16.921z"/>
	<path class="st1" d="M10.42,26.206c0,0,4.212-4.828,11.257-2.932c1.335,0.359,0.79,2.665-0.702,2.031
		c-4.2-1.784-7.776-0.571-9.787,1.697c-0.204,0.228-0.541,0.236-0.753,0.016C10.223,26.798,10.216,26.434,10.42,26.206z"/>
	<path class="st2" d="M17.885,26.631l0.144,0.331c0.126,0.288-0.151,0.589-0.421,0.456c-0.908-0.45-1.798-0.485-2.823,0.003
		c-0.252,0.12-0.51-0.155-0.405-0.427C15.13,25.055,17.365,25.438,17.885,26.631z"/>
	<path class="st1" d="M25.941,5.64c0,0-2.612,0.426-3.83,0.71c-0.34,0.091-3.65,1.36-3.65,1.02c0.172-1.287,2.052-1.968,3.43-2.13
		c1.457-0.214,3.146-0.004,4.01,0.32C25.931,5.57,25.951,5.61,25.941,5.64z"/>
	<path class="st1" d="M13.541,7.37c0,0.043-0.033,0.09-0.09,0.09c-0.509-0.032-2.56-0.843-3.56-1.11
		c-2.713-0.633-5.474-0.648-2.57-1.08c0.75-0.12,1.76-0.18,2.78-0.03C11.51,5.406,13.268,6.004,13.541,7.37z"/>
</g>
</svg>
