<?xml version="1.0" encoding="utf-8"?>
<!-- Generator: Adobe Illustrator 21.1.0, SVG Export Plug-In . SVG Version: 6.00 Build 0)  -->
<svg version="1.1" id="Layer_1" xmlns="http://www.w3.org/2000/svg" xmlns:xlink="http://www.w3.org/1999/xlink" x="0px" y="0px"
	 viewBox="0 0 32 32" style="enable-background:new 0 0 32 32;" xml:space="preserve">
<style type="text/css">
	.st0{fill:#DEE4E9;}
	.st1{fill:#CBD6E0;}
	.st2{fill:#5A5F63;}
	.st3{fill:#3E4347;}
	.st4{fill:#F2F8FC;}
	.st5{fill:#E9EFF4;}
	.st6{fill:#E24B4B;}
	.st7{fill:none;stroke:#E9B02C;stroke-width:1.4;stroke-linecap:round;stroke-linejoin:round;stroke-miterlimit:10;}
	.st8{fill:#FFFFFF;}
	.st9{fill:#D3D9DD;}
	.st10{opacity:0.2;}
	.st11{fill:#FFD93B;}
	.st12{fill:#32373A;}
	.st13{fill:#F4C534;}
	.st14{fill:#7A5B44;}
	.st15{fill:#6B503B;}
	.st16{fill:#65B1EF;}
	.st17{fill:#D03F3F;}
	.st18{fill:#E84D88;}
	.st19{fill:none;}
	.st20{fill:#8CC63E;}
	.st21{fill:#7FB239;}
	.st22{opacity:0.3;}
	.st23{fill:#89664C;}
	.st24{fill:#846144;}
	.st25{fill:#E88EA7;}
	.st26{fill:#FC97B2;}
	.st27{fill:#8F6D52;}
</style>
<g>
	<path class="st11" d="M8.006,12.138C9.6,9.901,11.36,7.74,11.987,5.044C8.526,2.753,5.332,0.883,2.795,0.056
		C2.027-0.186,1.26,0.389,1.26,1.187v16.071l4.183-1.353C6.284,14.641,7.124,13.375,8.006,12.138z"/>
	<path class="st11" d="M29.209,0.056c-2.949,0.961-6.782,3.326-10.894,6.133c1.765,1.636,3.026,3.816,4.436,5.754
		c0.878,1.207,1.842,2.401,2.764,3.624l5.23,1.691V1.187C30.745,0.389,29.977-0.186,29.209,0.056z"/>
	<path class="st13" d="M8.709,5.912C6.715,4.617,4.878,3.573,3.373,3.056v7.697C4.884,8.84,6.716,7.16,8.709,5.912z"/>
	<path class="st13" d="M26.38,8.999c0.775,0.675,1.586,1.402,2.247,2.227V3.056c-1.597,0.549-3.571,1.696-5.708,3.102
		C24.156,6.984,25.252,8.017,26.38,8.999z"/>
	<g>
		<g>
			<g>
				<g>
					<g>
						<g>
							<circle class="st11" cx="16" cy="17.255" r="14.745"/>
						</g>
					</g>
				</g>
			</g>
		</g>
	</g>
	<g>
		<g>
			<g>
				<g>
					<g>
						<g>
							<path class="st13" d="M30.745,17.255C30.745,25.402,24.142,32,16,32c-4.635,0-8.773-2.138-11.478-5.488
								c2.53,2.046,5.75,3.267,9.257,3.267c8.142,0,14.745-6.598,14.745-14.745c0-3.507-1.221-6.727-3.267-9.257
								C28.602,8.482,30.745,12.62,30.745,17.255z"/>
						</g>
					</g>
				</g>
			</g>
		</g>
	</g>
	<path class="st3" d="M6.896,7.237c0,0,3.009-2.41,6.503-1.447C13.399,5.79,9.084,1.66,6.896,7.237z"/>
	<path class="st3" d="M25.104,7.237c0,0-3.009-2.41-6.503-1.447C18.601,5.79,22.915,1.66,25.104,7.237z"/>
	<path class="st14" d="M18.388,20.427c0,0.851-0.965,1.588-1.664,2.007c-0.457,0.267-0.991,0.267-1.448,0
		c-0.686-0.419-1.664-1.156-1.664-2.007c0-1.321,1.08-1.461,2.388-1.461C17.321,18.967,18.388,19.106,18.388,20.427z"/>
	<path class="st15" d="M18.388,20.427c0,0.851-0.965,1.588-1.664,2.007c-0.457,0.267-0.991,0.267-1.448,0
		c-0.419-0.254-0.965-0.635-1.308-1.093c0.203,0.153,0.407,0.28,0.584,0.394c0.521,0.305,1.13,0.305,1.651,0
		c0.787-0.469,1.854-1.296,1.892-2.235C18.286,19.716,18.388,20.021,18.388,20.427z"/>
	<path class="st13" d="M15.296,14.062c0,3.094-2.513,5.596-5.596,5.596c-3.083,0-5.585-2.501-5.585-5.596
		c0-3.083,2.502-5.585,5.585-5.585C12.783,8.477,15.296,10.979,15.296,14.062z"/>
	<path class="st8" d="M14.157,14.063c0,2.464-2.001,4.456-4.456,4.456s-4.447-1.992-4.447-4.456c0-2.455,1.992-4.447,4.447-4.447
		S14.157,11.608,14.157,14.063z"/>
	<path class="st3" d="M11.771,14.061c0,1.155-0.924,2.079-2.072,2.071c-1.141,0-2.057-0.917-2.057-2.072
		c0-1.141,0.917-2.057,2.058-2.057C10.847,11.996,11.771,12.92,11.771,14.061z"/>
	<path class="st8" d="M10.895,13.634c-0.133,0.133-0.419,0.082-0.623-0.123c-0.215-0.214-0.266-0.5-0.133-0.633
		c0.133-0.143,0.419-0.082,0.623,0.133C10.977,13.215,11.038,13.501,10.895,13.634z"/>
	<path class="st13" d="M27.885,14.062c0,3.094-2.513,5.596-5.596,5.596s-5.585-2.501-5.585-5.596c0-3.083,2.502-5.585,5.585-5.585
		S27.885,10.979,27.885,14.062z"/>
	<path class="st8" d="M26.746,14.063c0,2.464-2.001,4.456-4.456,4.456c-2.455,0-4.447-1.992-4.447-4.456
		c0-2.455,1.992-4.447,4.447-4.447C24.745,9.616,26.746,11.608,26.746,14.063z"/>
	<path class="st3" d="M24.36,14.061c0,1.155-0.924,2.079-2.072,2.071c-1.141,0-2.057-0.917-2.057-2.072
		c0-1.141,0.917-2.057,2.057-2.057C23.436,11.996,24.36,12.92,24.36,14.061z"/>
	<path class="st8" d="M23.484,13.634c-0.133,0.133-0.419,0.082-0.623-0.123c-0.214-0.214-0.265-0.5-0.133-0.633
		c0.133-0.143,0.418-0.082,0.623,0.133C23.566,13.215,23.627,13.501,23.484,13.634z"/>
	<path class="st3" d="M23.356,27.323c-1.177-0.947-3.063-1.487-4.546-1.739c-1.876-0.297-3.724-0.296-5.619,0.001
		c-2.314,0.396-3.788,1.132-4.547,1.738c1.076-1.407,2.656-2.174,4.369-2.6c1.769-0.452,4.069-0.481,5.975,0.001
		C20.688,25.148,22.287,25.925,23.356,27.323z"/>
	<path class="st3" d="M22.057,23.316c1.436,0.275,3.578,1.252,5.54,2.934c1.723,1.492,2.686,2.986,3.728,4.969
		c-1.105-1.91-2.127-3.371-3.889-4.777c-1.968-1.554-4.124-2.435-5.468-2.633c-0.137-0.02-0.231-0.147-0.211-0.284
		c0.02-0.137,0.147-0.231,0.284-0.211C22.045,23.314,22.054,23.316,22.057,23.316z"/>
	<path class="st3" d="M22.789,22.484c0.94,0.079,2.534,0.488,3.753,1.076c1.445,0.675,2.251,1.405,3.075,2.315
		c-0.893-0.866-1.715-1.516-3.174-2.086c-1.22-0.494-2.799-0.791-3.685-0.806c-0.138-0.002-0.248-0.116-0.246-0.254
		c0.002-0.138,0.116-0.249,0.255-0.246c0.005,0,0.011,0,0.016,0.001L22.789,22.484z"/>
	<path class="st3" d="M24.39,21.586c0.808-0.183,2.117-0.218,3.134-0.001c1.894,0.428,2.684,1.469,2.684,1.469
		c-0.005,0.006-0.827-0.951-2.726-1.223c-0.997-0.13-2.235,0.007-2.968,0.238c-0.132,0.042-0.272-0.031-0.314-0.163
		c-0.042-0.132,0.031-0.272,0.163-0.314c0.007-0.002,0.013-0.004,0.02-0.005L24.39,21.586z"/>
	<path class="st3" d="M9.943,23.316c-1.436,0.275-3.578,1.252-5.54,2.934c-1.723,1.492-2.686,2.986-3.728,4.969
		c1.105-1.91,2.127-3.371,3.888-4.777c1.968-1.554,4.124-2.435,5.468-2.633c0.137-0.02,0.231-0.147,0.211-0.284
		c-0.02-0.137-0.147-0.231-0.284-0.211C9.955,23.314,9.946,23.316,9.943,23.316z"/>
	<path class="st3" d="M9.211,22.484c-0.94,0.079-2.534,0.488-3.753,1.076c-1.445,0.675-2.251,1.405-3.075,2.315
		c0.893-0.866,1.716-1.516,3.174-2.086c1.22-0.494,2.799-0.791,3.685-0.806c0.138-0.002,0.248-0.116,0.246-0.254
		c-0.002-0.138-0.116-0.249-0.254-0.246c-0.005,0-0.011,0-0.016,0.001L9.211,22.484z"/>
	<path class="st3" d="M7.61,21.586c-0.808-0.183-2.117-0.218-3.134-0.001c-1.895,0.428-2.684,1.469-2.684,1.469
		c0.005,0.006,0.827-0.951,2.726-1.223c0.997-0.13,2.235,0.007,2.968,0.238c0.132,0.042,0.273-0.031,0.314-0.163
		c0.042-0.132-0.031-0.272-0.163-0.314c-0.007-0.002-0.013-0.004-0.02-0.005L7.61,21.586z"/>
</g>
</svg>
