<?xml version="1.0" encoding="utf-8"?>
<!-- Generator: Adobe Illustrator 21.1.0, SVG Export Plug-In . SVG Version: 6.00 Build 0)  -->
<svg version="1.1" id="Layer_1" xmlns="http://www.w3.org/2000/svg" xmlns:xlink="http://www.w3.org/1999/xlink" x="0px" y="0px"
	 viewBox="0 0 32 32" style="enable-background:new 0 0 32 32;" xml:space="preserve">
<style type="text/css">
	.st0{fill:#DEE4E9;}
	.st1{fill:#CBD6E0;}
	.st2{fill:#5A5F63;}
	.st3{fill:#3E4347;}
	.st4{fill:#F2F8FC;}
	.st5{fill:#E9EFF4;}
	.st6{fill:#E24B4B;}
	.st7{fill:none;stroke:#E9B02C;stroke-width:1.4;stroke-linecap:round;stroke-linejoin:round;stroke-miterlimit:10;}
	.st8{fill:#FFFFFF;}
	.st9{fill:#D3D9DD;}
	.st10{opacity:0.2;}
	.st11{fill:#FFD93B;}
	.st12{fill:#32373A;}
	.st13{fill:#F4C534;}
	.st14{fill:#7A5B44;}
	.st15{fill:#6B503B;}
	.st16{fill:#65B1EF;}
	.st17{fill:#D03F3F;}
	.st18{fill:#E84D88;}
	.st19{fill:none;}
	.st20{fill:#8CC63E;}
	.st21{fill:#7FB239;}
	.st22{opacity:0.3;}
	.st23{fill:#89664C;}
	.st24{fill:#846144;}
	.st25{fill:#E88EA7;}
	.st26{fill:#FC97B2;}
	.st27{fill:#8F6D52;}
</style>
<g>
	<path class="st11" d="M14.217,7.418c-4.063-2.79-7.86-5.159-10.76-6.105C2.728,1.084,1.999,1.63,1.999,2.388v15.265l12.218-3.952
		V7.418z"/>
	<path class="st11" d="M17.786,7.418c4.063-2.79,7.86-5.159,10.76-6.105c0.729-0.23,1.458,0.317,1.458,1.075v15.265l-12.219-3.952
		V7.418z"/>
	<path class="st13" d="M9.075,6.876c-1.895-1.23-3.64-2.222-5.068-2.713v7.311C5.442,9.657,7.182,8.061,9.075,6.876z"/>
	<path class="st13" d="M25.859,9.808c0.736,0.641,1.506,1.332,2.134,2.115V4.163c-1.517,0.521-3.392,1.611-5.422,2.946
		C23.747,7.894,24.788,8.876,25.859,9.808z"/>
	<g>
		<g>
			<g>
				<g>
					<g>
						<g>
							<circle class="st11" cx="16" cy="16.71" r="14.029"/>
						</g>
					</g>
				</g>
			</g>
		</g>
	</g>
	<g>
		<g>
			<g>
				<g>
					<g>
						<g>
							<path class="st13" d="M30.029,16.71c0,7.751-6.282,14.029-14.029,14.029c-4.41,0-8.347-2.034-10.921-5.222
								c2.407,1.947,5.471,3.108,8.808,3.108c7.747,0,14.029-6.278,14.029-14.029c0-3.336-1.162-6.401-3.108-8.808
								C27.991,8.363,30.029,12.3,30.029,16.71z"/>
						</g>
					</g>
				</g>
			</g>
		</g>
	</g>
	<path class="st3" d="M22.33,23.256c-0.867,2.669-3.374,4.593-6.328,4.593c-2.96,0-5.461-1.925-6.333-4.593
		c-0.106-0.319,0.179-0.632,0.504-0.537c2.322,0.682,9.338,0.682,11.654,0C22.15,22.624,22.436,22.937,22.33,23.256z"/>
	<path class="st6" d="M15.999,25.686c-2.079,0-3.765-0.927-3.765,0.873c0,0.039,0.012,0.076,0.013,0.115
		c1.07,0.734,2.357,1.174,3.755,1.174c1.394,0,2.679-0.44,3.749-1.172c0.002-0.04,0.014-0.077,0.014-0.117
		C19.764,24.759,18.078,25.686,15.999,25.686z"/>
	<circle class="st13" cx="9.672" cy="15.795" r="5.395"/>
	<path class="st13" d="M14.291,15.797c-0.142,2.566-2.324,4.646-4.874,4.646s-4.509-2.079-4.367-4.646
		c0.142-2.566,2.332-4.654,4.882-4.654C12.482,11.143,14.433,13.231,14.291,15.797z"/>
	<path class="st3" d="M10.473,6.678c0,0-2.85-0.401-5.843,3.064C4.63,9.741,6.565,3.536,10.473,6.678z"/>
	<circle class="st13" cx="22.328" cy="15.795" r="5.395"/>
	<path class="st13" d="M17.709,15.797c0.142,2.566,2.324,4.646,4.874,4.646s4.509-2.079,4.367-4.646
		c-0.142-2.566-2.332-4.654-4.882-4.654C19.518,11.143,17.567,13.231,17.709,15.797z"/>
	<path class="st3" d="M21.527,6.678c0,0,2.85-0.401,5.843,3.064C27.37,9.741,25.435,3.536,21.527,6.678z"/>
	<path class="st14" d="M17.732,20.362c0,0.617-0.7,1.152-1.207,1.456c-0.332,0.193-0.719,0.193-1.05,0
		c-0.498-0.304-1.207-0.838-1.207-1.456c0-0.958,0.783-1.059,1.732-1.059C16.958,19.303,17.732,19.404,17.732,20.362z"/>
	<path class="st15" d="M17.732,20.362c0,0.617-0.7,1.152-1.207,1.456c-0.332,0.193-0.719,0.193-1.05,0
		c-0.304-0.184-0.7-0.461-0.949-0.793c0.147,0.111,0.295,0.203,0.424,0.286c0.378,0.221,0.82,0.221,1.198,0
		c0.571-0.34,1.345-0.94,1.373-1.621C17.658,19.846,17.732,20.068,17.732,20.362z"/>
	<path class="st3" d="M27.721,15.793c0,0.166-0.037,0.332-0.101,0.488c-0.47-1.041-2.662-1.833-5.297-1.833
		c-2.626,0-4.818,0.792-5.288,1.833c-0.064-0.157-0.101-0.322-0.101-0.488c0-1.419,2.414-2.579,5.389-2.579
		C25.308,13.214,27.721,14.374,27.721,15.793z"/>
	<path class="st3" d="M15.064,15.793c0,0.166-0.037,0.332-0.101,0.488c-0.47-1.041-2.662-1.833-5.297-1.833
		c-2.625,0-4.818,0.792-5.288,1.833c-0.064-0.157-0.101-0.322-0.101-0.488c0-1.419,2.414-2.579,5.389-2.579
		C12.65,13.214,15.064,14.374,15.064,15.793z"/>
	<path class="st8" d="M21.556,22.786c-0.403,0.887-1.104,1.435-2.007,1.765c-0.153,0.847-0.564,1.58-1.104,2.096
		c0.193-0.628,0.185-1.265,0.032-1.813c-0.758,0.145-1.596,0.185-2.482,0.185c-0.886,0-1.725-0.04-2.474-0.185
		c-0.153,0.548-0.161,1.185,0.032,1.813c-0.54-0.516-0.951-1.249-1.104-2.096c-0.895-0.33-1.596-0.878-2.007-1.765
		C12.892,23.374,19.106,23.374,21.556,22.786z"/>
	<path class="st3" d="M22.813,23.521c0,0,2.202,0.342,4.254,1.875c1.931,1.403,2.749,3.226,2.749,3.226
		c-0.728-1.173-1.514-2.152-2.895-3.054c-0.914-0.608-1.968-1.064-2.798-1.304c-0.833-0.25-1.41-0.31-1.409-0.312
		c-0.139-0.022-0.235-0.125-0.215-0.247c0.021-0.121,0.154-0.203,0.295-0.187C22.8,23.519,22.809,23.52,22.813,23.521z"/>
	<path class="st3" d="M24.183,22.892c-0.001,0.001,0.483,0.035,1.167,0.173c0.686,0.138,1.581,0.391,2.4,0.766
		c0.823,0.374,1.553,0.87,2.018,1.303c0.048,0.046,0.739,0.778,0.696,0.774c0.005-0.052-0.698-0.684-0.749-0.726
		c-0.492-0.402-1.244-0.842-2.071-1.154c-1.786-0.684-3.498-0.699-3.498-0.699c-0.143-0.003-0.258-0.101-0.255-0.223
		c0.002-0.122,0.124-0.217,0.269-0.216C24.166,22.889,24.177,22.894,24.183,22.892z"/>
	<path class="st3" d="M23.054,22.095c0,0,2.328-0.496,4.917,0.223C30.636,23.02,32,24.59,32,24.59
		c-1.073-0.919-2.221-1.654-4.096-2.062c-1.164-0.268-2.379-0.297-3.267-0.225c-0.897,0.066-1.454,0.216-1.454,0.216
		c-0.141,0.034-0.29-0.028-0.333-0.144c-0.042-0.116,0.039-0.241,0.182-0.275c0.004,0,0.009-0.001,0.014-0.004
		C23.049,22.096,23.051,22.095,23.054,22.095z"/>
	<path class="st3" d="M9.187,23.521c0,0-2.202,0.342-4.254,1.875c-1.931,1.403-2.748,3.226-2.748,3.226
		c0.728-1.173,1.514-2.152,2.895-3.054c2.095-1.392,4.207-1.616,4.207-1.616c0.139-0.022,0.235-0.125,0.215-0.247
		c-0.021-0.121-0.154-0.203-0.296-0.187C9.2,23.519,9.191,23.52,9.187,23.521z"/>
	<path class="st3" d="M7.817,22.892c0.001,0.001-0.483,0.035-1.167,0.173c-0.686,0.138-1.581,0.391-2.4,0.766
		c-0.875,0.398-1.978,1.105-2.537,1.856c-0.113,0.141-0.178,0.221-0.178,0.221s0.07-0.074,0.194-0.21c0.6-0.7,1.727-1.33,2.626-1.67
		c1.786-0.684,3.498-0.699,3.498-0.699c0.143-0.003,0.258-0.101,0.255-0.223c-0.002-0.122-0.124-0.217-0.269-0.216
		C7.834,22.889,7.823,22.894,7.817,22.892z"/>
	<path class="st3" d="M8.946,22.095c0,0-2.328-0.496-4.918,0.223C1.364,23.02,0,24.59,0,24.59c1.073-0.919,2.221-1.654,4.096-2.062
		c1.164-0.268,2.379-0.297,3.267-0.225c0.897,0.066,1.454,0.216,1.454,0.216c0.141,0.034,0.29-0.028,0.333-0.144
		c0.042-0.116-0.039-0.241-0.182-0.275c-0.004,0-0.009-0.001-0.014-0.004C8.951,22.096,8.949,22.095,8.946,22.095z"/>
</g>
</svg>
