<?xml version="1.0" encoding="utf-8"?>
<!-- Generator: Adobe Illustrator 21.1.0, SVG Export Plug-In . SVG Version: 6.00 Build 0)  -->
<svg version="1.1" id="Layer_1" xmlns="http://www.w3.org/2000/svg" xmlns:xlink="http://www.w3.org/1999/xlink" x="0px" y="0px"
	 viewBox="0 0 32 32" style="enable-background:new 0 0 32 32;" xml:space="preserve">
<style type="text/css">
	.st0{fill:#DEE4E9;}
	.st1{fill:#CBD6E0;}
	.st2{fill:#5A5F63;}
	.st3{fill:#3E4347;}
	.st4{fill:#F2F8FC;}
	.st5{fill:#E9EFF4;}
	.st6{fill:#E24B4B;}
	.st7{fill:none;stroke:#E9B02C;stroke-width:1.4;stroke-linecap:round;stroke-linejoin:round;stroke-miterlimit:10;}
	.st8{fill:#FFFFFF;}
	.st9{fill:#D3D9DD;}
	.st10{opacity:0.2;}
	.st11{fill:#FFD93B;}
	.st12{fill:#32373A;}
	.st13{fill:#F4C534;}
	.st14{fill:#7A5B44;}
	.st15{fill:#6B503B;}
	.st16{fill:#65B1EF;}
	.st17{fill:#D03F3F;}
	.st18{fill:#E84D88;}
	.st19{fill:none;}
	.st20{fill:#8CC63E;}
	.st21{fill:#7FB239;}
	.st22{opacity:0.3;}
	.st23{fill:#89664C;}
	.st24{fill:#846144;}
	.st25{fill:#E88EA7;}
	.st26{fill:#FC97B2;}
	.st27{fill:#8F6D52;}
</style>
<g>
	<path class="st11" d="M14.218,7.419C10.155,4.63,6.358,2.261,3.459,1.316C2.73,1.086,2.001,1.632,2.001,2.39v15.263l12.217-3.951
		V7.419z"/>
	<path class="st11" d="M17.786,7.419c4.062-2.789,7.859-5.158,10.759-6.104c0.729-0.23,1.458,0.317,1.458,1.075v15.263
		l-12.217-3.951V7.419z"/>
	<path class="st13" d="M9.076,6.877c-1.894-1.23-3.639-2.222-5.068-2.713v7.31C5.443,9.658,7.183,8.062,9.076,6.877z"/>
	<path class="st13" d="M25.858,9.809c0.736,0.641,1.506,1.331,2.134,2.115v-7.76C26.475,4.686,24.6,5.775,22.57,7.11
		C23.745,7.895,24.787,8.877,25.858,9.809z"/>
	<circle class="st11" cx="16" cy="16.71" r="14.027"/>
	<path class="st13" d="M30.027,16.71c0,7.75-6.281,14.027-14.027,14.027c-4.41,0-8.346-2.034-10.919-5.221
		c2.406,1.946,5.47,3.108,8.806,3.108c7.746,0,14.027-6.277,14.027-14.027c0-3.336-1.162-6.4-3.108-8.806
		C27.989,8.364,30.027,12.301,30.027,16.71z"/>
	<circle class="st13" cx="9.673" cy="15.795" r="5.394"/>
	<path class="st13" d="M17.707,15.789c0.142-2.566,2.324-4.645,4.873-4.645s4.509,2.079,4.367,4.645
		c-0.142,2.566-2.332,4.653-4.882,4.653C19.515,20.442,17.565,18.354,17.707,15.789z"/>
	<path class="st3" d="M10.474,6.679c0,0-2.85-0.401-5.842,3.063C4.632,9.742,6.566,3.537,10.474,6.679z"/>
	<circle class="st13" cx="22.327" cy="15.795" r="5.394"/>
	<path class="st13" d="M14.288,15.789c-0.142-2.566-2.324-4.645-4.873-4.645s-4.509,2.079-4.367,4.645
		c0.142,2.566,2.332,4.653,4.882,4.653C12.48,20.442,14.431,18.354,14.288,15.789z"/>
	<path class="st3" d="M21.526,6.679c0,0,2.85-0.401,5.842,3.063C27.368,9.742,25.433,3.537,21.526,6.679z"/>
	<path class="st14" d="M17.732,20.362c0,0.617-0.7,1.151-1.207,1.455c-0.332,0.193-0.718,0.193-1.05,0
		c-0.497-0.304-1.207-0.838-1.207-1.455c0-0.958,0.783-1.059,1.732-1.059C16.958,19.303,17.732,19.404,17.732,20.362z"/>
	<path class="st15" d="M17.732,20.362c0,0.617-0.7,1.151-1.207,1.455c-0.332,0.193-0.718,0.193-1.05,0
		c-0.304-0.184-0.7-0.46-0.949-0.792c0.147,0.111,0.295,0.203,0.424,0.286c0.378,0.221,0.82,0.221,1.197,0
		c0.571-0.34,1.345-0.94,1.372-1.621C17.658,19.846,17.732,20.067,17.732,20.362z"/>
	<path class="st3" d="M4.278,15.792c0-0.165,0.037-0.332,0.101-0.488c0.47,1.041,2.662,1.833,5.296,1.833
		c2.625,0,4.817-0.792,5.287-1.833c0.064,0.156,0.101,0.323,0.101,0.488c0,1.418-2.413,2.579-5.388,2.579
		C6.691,18.371,4.278,17.211,4.278,15.792z"/>
	<path class="st3" d="M16.934,15.792c0-0.165,0.037-0.332,0.101-0.488c0.47,1.041,2.662,1.833,5.296,1.833
		c2.625,0,4.817-0.792,5.287-1.833c0.064,0.156,0.101,0.323,0.101,0.488c0,1.418-2.413,2.579-5.388,2.579
		C19.347,18.371,16.934,17.211,16.934,15.792z"/>
	<path class="st3" d="M21.501,24.307c0,0,2.517,0.391,4.862,2.143c2.207,1.603,3.141,3.687,3.141,3.687
		c-0.832-1.34-1.73-2.459-3.308-3.49c-1.045-0.694-2.249-1.216-3.198-1.49c-0.952-0.285-1.612-0.354-1.61-0.357
		c-0.158-0.025-0.269-0.143-0.245-0.282c0.024-0.138,0.176-0.233,0.338-0.214C21.486,24.304,21.496,24.305,21.501,24.307z"/>
	<path class="st3" d="M23.066,23.588c-0.001,0.001,0.552,0.04,1.334,0.198c0.784,0.158,1.807,0.447,2.743,0.875
		c0.94,0.427,1.775,0.994,2.306,1.489c0.055,0.053,0.845,0.889,0.795,0.885c0.005-0.06-0.798-0.782-0.856-0.83
		c-0.562-0.46-1.421-0.962-2.367-1.319c-2.041-0.782-3.998-0.798-3.998-0.798c-0.164-0.004-0.295-0.115-0.291-0.255
		c0.003-0.139,0.141-0.248,0.307-0.246C23.047,23.585,23.06,23.59,23.066,23.588z"/>
	<path class="st3" d="M21.776,22.677c0,0,2.661-0.567,5.62,0.255C30.441,23.734,32,25.529,32,25.529
		c-1.226-1.05-2.539-1.89-4.681-2.356c-1.33-0.307-2.719-0.34-3.734-0.257c-1.025,0.076-1.662,0.247-1.662,0.247
		c-0.161,0.039-0.331-0.032-0.38-0.164c-0.049-0.133,0.044-0.275,0.208-0.315c0.005,0,0.011-0.001,0.016-0.004
		C21.77,22.678,21.773,22.677,21.776,22.677z"/>
	<path class="st3" d="M10.499,24.307c0,0-2.516,0.391-4.862,2.143c-2.207,1.603-3.141,3.687-3.141,3.687
		c0.832-1.34,1.73-2.459,3.308-3.49c2.394-1.591,4.808-1.847,4.808-1.847c0.158-0.025,0.269-0.143,0.245-0.282
		c-0.024-0.138-0.176-0.233-0.338-0.214C10.514,24.304,10.504,24.305,10.499,24.307z"/>
	<path class="st3" d="M8.933,23.588c0.001,0.001-0.552,0.04-1.334,0.198c-0.784,0.158-1.806,0.447-2.743,0.875
		c-1,0.454-2.26,1.263-2.899,2.121c-0.13,0.161-0.203,0.253-0.203,0.253s0.08-0.084,0.222-0.24c0.685-0.801,1.974-1.52,3.001-1.909
		c2.041-0.782,3.998-0.798,3.998-0.798c0.164-0.004,0.295-0.115,0.291-0.255c-0.003-0.139-0.141-0.248-0.307-0.246
		C8.953,23.585,8.94,23.59,8.933,23.588z"/>
	<path class="st3" d="M10.224,22.677c0,0-2.661-0.567-5.62,0.255C1.559,23.734,0,25.529,0,25.529c1.226-1.05,2.539-1.89,4.681-2.356
		c1.33-0.307,2.719-0.34,3.734-0.257c1.026,0.076,1.662,0.247,1.662,0.247c0.161,0.039,0.331-0.032,0.38-0.164
		c0.048-0.133-0.044-0.275-0.208-0.315c-0.005,0-0.011-0.001-0.016-0.004C10.23,22.678,10.227,22.677,10.224,22.677z"/>
	<path class="st3" d="M18.595,25.495c0,1.431-1.158,2.59-2.59,2.59c-1.443,0-2.601-1.158-2.601-2.59
		c0-1.442,1.158-2.601,2.601-2.601C17.436,22.894,18.595,24.053,18.595,25.495z"/>
	<path class="st6" d="M18.595,29.647v-0.609c0.208-0.239,1.291-1.494,1.509-1.712c-0.247,0.015-1.135,0.015-1.401,0.017v-0.647h2.44
		v0.553c-1.325,1.527-1.018,1.181-1.526,1.731c0.465-0.028,0.288-0.02,1.612-0.02v0.686H18.595z"/>
	<path class="st6" d="M22.327,27.925v-0.837c0.286-0.328,1.775-2.054,2.075-2.354c-0.34,0.021-1.561,0.021-1.926,0.023v-0.89h3.355
		v0.76c-1.822,2.1-1.4,1.625-2.098,2.381c0.639-0.038,0.396-0.027,2.216-0.027v0.944H22.327z"/>
	<path class="st6" d="M26.765,23.547v-1.122c0.383-0.44,2.38-2.754,2.783-3.157c-0.456,0.028-2.094,0.028-2.583,0.031v-1.194h4.5
		v1.02c-2.444,2.817-1.878,2.179-2.814,3.193c0.857-0.051,0.531-0.036,2.973-0.036v1.266H26.765z"/>
</g>
</svg>
