<?xml version="1.0" encoding="utf-8"?>
<!-- Generator: Adobe Illustrator 21.1.0, SVG Export Plug-In . SVG Version: 6.00 Build 0)  -->
<svg version="1.1" id="Layer_1" xmlns="http://www.w3.org/2000/svg" xmlns:xlink="http://www.w3.org/1999/xlink" x="0px" y="0px"
	 viewBox="0 0 32 32" style="enable-background:new 0 0 32 32;" xml:space="preserve">
<style type="text/css">
	.st0{fill:#DEE4E9;}
	.st1{fill:#CBD6E0;}
	.st2{fill:#5A5F63;}
	.st3{fill:#3E4347;}
	.st4{fill:#F2F8FC;}
	.st5{fill:#E9EFF4;}
	.st6{fill:#E24B4B;}
	.st7{fill:none;stroke:#E9B02C;stroke-width:1.4;stroke-linecap:round;stroke-linejoin:round;stroke-miterlimit:10;}
	.st8{fill:#FFFFFF;}
	.st9{fill:#D3D9DD;}
	.st10{opacity:0.2;}
	.st11{fill:#FFD93B;}
	.st12{fill:#32373A;}
	.st13{fill:#F4C534;}
	.st14{fill:#7A5B44;}
	.st15{fill:#6B503B;}
	.st16{fill:#65B1EF;}
	.st17{fill:#D03F3F;}
	.st18{fill:#E84D88;}
	.st19{fill:none;}
	.st20{fill:#8CC63E;}
	.st21{fill:#7FB239;}
	.st22{opacity:0.3;}
	.st23{fill:#89664C;}
	.st24{fill:#846144;}
	.st25{fill:#E88EA7;}
	.st26{fill:#FC97B2;}
	.st27{fill:#8F6D52;}
</style>
<g>
	<path class="st11" d="M14.123,6.483C9.846,3.546,5.848,1.051,2.795,0.056C2.027-0.186,1.26,0.389,1.26,1.187v16.071l12.864-4.16
		V6.483z"/>
	<path class="st11" d="M17.881,6.483c4.277-2.937,8.275-5.432,11.328-6.427c0.768-0.242,1.535,0.333,1.535,1.132v16.071
		l-12.864-4.16V6.483z"/>
	<path class="st13" d="M8.709,5.912C6.715,4.617,4.878,3.573,3.373,3.056v7.697C4.884,8.84,6.716,7.16,8.709,5.912z"/>
	<path class="st13" d="M26.38,8.999c0.775,0.675,1.586,1.402,2.247,2.227V3.056c-1.597,0.549-3.571,1.696-5.708,3.101
		C24.156,6.984,25.252,8.017,26.38,8.999z"/>
	<g>
		<g>
			<g>
				<g>
					<g>
						<g>
							<g>
								<g>
									<g>
										<g>
											<g>
												<g>
													<g>
														<g>
															<g>
																<circle class="st11" cx="16" cy="17.255" r="14.745"/>
															</g>
														</g>
													</g>
												</g>
											</g>
										</g>
										<g>
											<g>
												<g>
													<g>
														<g>
															<g>
																<path class="st13" d="M30.745,17.255C30.745,25.402,24.142,32,16,32c-4.635,0-8.773-2.138-11.478-5.488
																	c2.53,2.046,5.75,3.267,9.257,3.267c8.142,0,14.745-6.598,14.745-14.745c0-3.506-1.221-6.727-3.267-9.257
																	C28.602,8.482,30.745,12.62,30.745,17.255z"/>
															</g>
														</g>
													</g>
												</g>
											</g>
										</g>
									</g>
								</g>
							</g>
						</g>
					</g>
				</g>
			</g>
		</g>
	</g>
	<path class="st3" d="M6.896,7.237c0,0,3.009-2.41,6.503-1.447C13.399,5.79,9.085,1.66,6.896,7.237z"/>
	<path class="st3" d="M25.104,7.237c0,0-3.009-2.41-6.503-1.447C18.601,5.79,22.915,1.66,25.104,7.237z"/>
	<path class="st14" d="M18.388,20.427c0,0.851-0.965,1.588-1.664,2.007c-0.457,0.267-0.991,0.267-1.448,0
		c-0.686-0.419-1.664-1.156-1.664-2.007c0-1.321,1.08-1.461,2.388-1.461C17.321,18.967,18.388,19.106,18.388,20.427z"/>
	<path class="st15" d="M18.388,20.427c0,0.851-0.965,1.588-1.664,2.007c-0.457,0.267-0.991,0.267-1.448,0
		c-0.419-0.254-0.965-0.635-1.308-1.093c0.203,0.153,0.406,0.28,0.584,0.394c0.521,0.305,1.13,0.305,1.651,0
		c0.788-0.469,1.854-1.296,1.893-2.235C18.286,19.716,18.388,20.021,18.388,20.427z"/>
	<path class="st3" d="M24.365,22.77c-0.059,4.001-3.421,7.671-8.12,7.663c-4.688,0.009-8.062-3.661-8.117-7.673
		c-0.005-0.314,0.351-0.476,0.61-0.285c2.471,2.441,12.522,2.468,15.016,0.01C24.012,22.285,24.379,22.455,24.365,22.77z"/>
	<path class="st6" d="M16.245,30.434c1.794,0.003,3.464-0.559,4.785-1.482c-0.612-1.439-2.546-2.063-4.139-1.448
		c-0.506,0.199-1.08,0.218-1.61,0.069c-1.491-0.421-3.141,0.175-3.774,1.409C12.821,29.888,14.474,30.434,16.245,30.434z"/>
	<path class="st8" d="M23.441,22.69c-0.4,1.204-1.204,2.131-2.283,2.799c-0.038,0.531-0.081,1.062-0.13,1.593
		c-0.25-0.383-0.493-0.769-0.73-1.156c-1.173,0.509-2.575,0.763-4.051,0.758c-1.486,0.001-2.888-0.248-4.06-0.769
		c-0.233,0.392-0.474,0.78-0.72,1.167c-0.049-0.535-0.092-1.069-0.129-1.602c-1.08-0.662-1.883-1.592-2.282-2.799
		C11.809,24.86,20.666,24.879,23.441,22.69z"/>
	<g>
		<path class="st13" d="M15.358,14.062c0,2.82-2.29,5.1-5.1,5.1s-5.09-2.28-5.09-5.1c0-2.81,2.28-5.09,5.09-5.09
			S15.358,11.252,15.358,14.062z"/>
	</g>
	<g>
		<path class="st8" d="M14.32,14.064c0,2.246-1.823,4.061-4.061,4.061s-4.053-1.815-4.053-4.061c0-2.238,1.815-4.053,4.053-4.053
			S14.32,11.826,14.32,14.064z"/>
	</g>
	<g>
		<g>
			<path class="st3" d="M12.146,14.061c0,1.052-0.842,1.894-1.888,1.888c-1.04,0-1.875-0.836-1.875-1.888
				c0-1.04,0.836-1.875,1.875-1.875C11.304,12.18,12.146,13.022,12.146,14.061z"/>
		</g>
		<g>
			<path class="st8" d="M11.347,13.672c-0.121,0.121-0.382,0.075-0.568-0.112c-0.195-0.195-0.242-0.456-0.121-0.576
				c0.121-0.13,0.382-0.075,0.568,0.121C11.422,13.29,11.477,13.551,11.347,13.672z"/>
		</g>
	</g>
	<g>
		<path class="st13" d="M26.832,14.062c0,2.82-2.29,5.1-5.1,5.1c-2.81,0-5.09-2.28-5.09-5.1c0-2.81,2.28-5.09,5.09-5.09
			C24.542,8.973,26.832,11.252,26.832,14.062z"/>
	</g>
	<g>
		<path class="st8" d="M25.794,14.064c0,2.246-1.823,4.061-4.061,4.061c-2.238,0-4.053-1.815-4.053-4.061
			c0-2.238,1.815-4.053,4.053-4.053C23.97,10.011,25.794,11.826,25.794,14.064z"/>
	</g>
	<g>
		<g>
			<path class="st3" d="M23.619,14.061c0,1.052-0.842,1.894-1.888,1.888c-1.04,0-1.875-0.836-1.875-1.888
				c0-1.04,0.836-1.875,1.875-1.875C22.777,12.18,23.62,13.022,23.619,14.061z"/>
		</g>
		<g>
			<path class="st8" d="M22.821,13.672c-0.121,0.121-0.382,0.075-0.568-0.112c-0.195-0.195-0.242-0.456-0.121-0.576
				c0.121-0.13,0.381-0.075,0.568,0.121C22.895,13.29,22.951,13.551,22.821,13.672z"/>
		</g>
	</g>
	<path class="st3" d="M23.146,20.916c1.435,0.275,3.578,1.252,5.54,2.934c1.722,1.492,2.686,2.986,3.728,4.969
		c-1.105-1.91-2.127-3.371-3.889-4.777c-1.968-1.554-4.124-2.435-5.468-2.633c-0.137-0.02-0.231-0.147-0.211-0.284
		c0.02-0.137,0.147-0.231,0.284-0.211C23.133,20.914,23.142,20.916,23.146,20.916z"/>
	<path class="st3" d="M23.878,20.084c0.94,0.079,2.534,0.488,3.753,1.076c1.445,0.675,2.251,1.405,3.075,2.315
		c-0.893-0.866-1.716-1.516-3.174-2.086c-1.22-0.494-2.799-0.791-3.685-0.806c-0.138-0.003-0.248-0.116-0.246-0.254
		c0.002-0.138,0.116-0.248,0.254-0.246c0.006,0,0.011,0,0.016,0.001L23.878,20.084z"/>
	<path class="st3" d="M25.478,19.186c0.808-0.183,2.117-0.218,3.134,0c1.895,0.428,2.684,1.469,2.684,1.469
		c-0.005,0.006-0.827-0.951-2.726-1.223c-0.997-0.13-2.235,0.007-2.968,0.238c-0.132,0.042-0.272-0.031-0.314-0.163
		c-0.042-0.132,0.031-0.273,0.163-0.314c0.007-0.002,0.013-0.004,0.02-0.005L25.478,19.186z"/>
	<path class="st3" d="M8.854,20.916c-1.435,0.275-3.578,1.252-5.54,2.934c-1.723,1.492-2.686,2.986-3.728,4.969
		c1.105-1.91,2.127-3.371,3.888-4.777c1.968-1.554,4.124-2.435,5.468-2.633c0.137-0.02,0.231-0.147,0.211-0.284
		c-0.02-0.137-0.147-0.231-0.284-0.211C8.867,20.914,8.858,20.916,8.854,20.916z"/>
	<path class="st3" d="M8.122,20.084c-0.94,0.079-2.534,0.488-3.753,1.076c-1.445,0.675-2.25,1.405-3.075,2.315
		c0.893-0.866,1.716-1.516,3.175-2.086c1.22-0.494,2.799-0.791,3.685-0.806c0.138-0.003,0.248-0.116,0.246-0.254
		c-0.002-0.138-0.116-0.248-0.254-0.246c-0.005,0-0.011,0-0.016,0.001L8.122,20.084z"/>
	<path class="st3" d="M6.522,19.186c-0.808-0.183-2.117-0.218-3.134,0c-1.894,0.428-2.684,1.469-2.684,1.469
		c0.005,0.006,0.827-0.951,2.726-1.223c0.997-0.13,2.235,0.007,2.968,0.238c0.132,0.042,0.273-0.031,0.314-0.163
		c0.042-0.132-0.031-0.273-0.163-0.314c-0.007-0.002-0.013-0.004-0.02-0.005L6.522,19.186z"/>
</g>
</svg>
