<?xml version="1.0" encoding="utf-8"?>
<!-- Generator: Adobe Illustrator 21.1.0, SVG Export Plug-In . SVG Version: 6.00 Build 0)  -->
<svg version="1.1" id="Layer_1" xmlns="http://www.w3.org/2000/svg" xmlns:xlink="http://www.w3.org/1999/xlink" x="0px" y="0px"
	 viewBox="0 0 32 32" style="enable-background:new 0 0 32 32;" xml:space="preserve">
<style type="text/css">
	.st0{fill:#DEE4E9;}
	.st1{fill:#CBD6E0;}
	.st2{fill:#5A5F63;}
	.st3{fill:#3E4347;}
	.st4{fill:#F2F8FC;}
	.st5{fill:#E9EFF4;}
	.st6{fill:#E24B4B;}
	.st7{fill:none;stroke:#E9B02C;stroke-width:1.4;stroke-linecap:round;stroke-linejoin:round;stroke-miterlimit:10;}
	.st8{fill:#FFFFFF;}
	.st9{fill:#D3D9DD;}
	.st10{opacity:0.2;}
	.st11{fill:#FFD93B;}
	.st12{fill:#32373A;}
	.st13{fill:#F4C534;}
	.st14{fill:#7A5B44;}
	.st15{fill:#6B503B;}
	.st16{fill:#65B1EF;}
	.st17{fill:#D03F3F;}
	.st18{fill:#E84D88;}
	.st19{fill:none;}
	.st20{fill:#8CC63E;}
	.st21{fill:#7FB239;}
	.st22{opacity:0.3;}
	.st23{fill:#89664C;}
	.st24{fill:#846144;}
	.st25{fill:#E88EA7;}
	.st26{fill:#FC97B2;}
	.st27{fill:#8F6D52;}
</style>
<g>
	<path class="st11" d="M14.218,6.649C10.156,3.86,6.359,1.49,3.459,0.545C2.73,0.315,2.001,0.862,2.001,1.62v15.263l12.217-3.951
		V6.649z"/>
	<path class="st11" d="M17.786,6.649c4.062-2.789,7.859-5.159,10.759-6.104c0.729-0.23,1.458,0.317,1.458,1.075v15.263
		l-12.217-3.951V6.649z"/>
	<path class="st13" d="M9.076,6.107c-1.894-1.23-3.639-2.222-5.068-2.713v7.31C5.443,8.887,7.183,7.291,9.076,6.107z"/>
	<path class="st13" d="M25.858,9.039c0.736,0.641,1.506,1.331,2.134,2.115v-7.76c-1.517,0.521-3.391,1.61-5.421,2.946
		C23.745,7.125,24.787,8.106,25.858,9.039z"/>
	<g>
		<g>
			<g>
				<g>
					<g>
						<g>
							<g>
								<g>
									<g>
										<g>
											<g>
												<circle class="st11" cx="16" cy="15.94" r="14.027"/>
											</g>
										</g>
									</g>
								</g>
							</g>
						</g>
						<g>
							<g>
								<g>
									<g>
										<g>
											<g>
												<path class="st13" d="M30.027,15.94c0,7.75-6.281,14.027-14.027,14.027c-4.41,0-8.346-2.034-10.919-5.221
													c2.406,1.946,5.47,3.108,8.806,3.108c7.746,0,14.027-6.277,14.027-14.027c0-3.336-1.162-6.4-3.108-8.806
													C27.989,7.594,30.027,11.53,30.027,15.94z"/>
											</g>
										</g>
									</g>
								</g>
							</g>
						</g>
					</g>
				</g>
			</g>
		</g>
	</g>
	<g>
		<g>
			<path class="st3" d="M23.234,22.091c-0.991,3.05-3.856,5.25-7.232,5.25c-3.382,0-6.241-2.2-7.238-5.25
				c-0.122-0.364,0.205-0.722,0.576-0.614c2.653,0.78,10.672,0.78,13.319,0C23.029,21.368,23.355,21.726,23.234,22.091z"/>
		</g>
	</g>
	<path class="st6" d="M15.999,24.868c-2.377,0-4.303-1.06-4.303,0.998c0,0.045,0.014,0.087,0.015,0.132
		c1.223,0.839,2.694,1.342,4.291,1.342c1.593,0,3.062-0.502,4.284-1.34c0.002-0.045,0.016-0.088,0.016-0.134
		C20.302,23.809,18.375,24.868,15.999,24.868z"/>
	<circle class="st13" cx="9.673" cy="15.025" r="5.394"/>
	<path class="st13" d="M14.291,15.026c-0.142,2.566-2.324,4.645-4.873,4.645s-4.509-2.079-4.367-4.645
		c0.142-2.566,2.332-4.653,4.882-4.653S14.433,12.46,14.291,15.026z"/>
	<path class="st3" d="M10.474,5.908c0,0-2.85-0.401-5.842,3.063C4.632,8.972,6.567,2.767,10.474,5.908z"/>
	<circle class="st13" cx="22.327" cy="15.025" r="5.394"/>
	<path class="st13" d="M17.709,15.026c0.142,2.566,2.324,4.645,4.873,4.645s4.509-2.079,4.367-4.645
		c-0.142-2.566-2.332-4.653-4.882-4.653S17.567,12.46,17.709,15.026z"/>
	<path class="st3" d="M21.526,5.908c0,0,2.85-0.401,5.842,3.063C27.368,8.972,25.434,2.767,21.526,5.908z"/>
	<path class="st14" d="M17.732,19.591c0,0.617-0.7,1.151-1.207,1.455c-0.332,0.193-0.719,0.193-1.05,0
		c-0.497-0.304-1.207-0.838-1.207-1.455c0-0.958,0.783-1.059,1.732-1.059C16.958,18.532,17.732,18.633,17.732,19.591z"/>
	<path class="st15" d="M17.732,19.591c0,0.617-0.7,1.151-1.207,1.455c-0.332,0.193-0.719,0.193-1.05,0
		c-0.304-0.184-0.7-0.461-0.949-0.792c0.147,0.111,0.295,0.203,0.424,0.285c0.378,0.221,0.82,0.221,1.197,0
		c0.571-0.34,1.345-0.939,1.372-1.621C17.658,19.075,17.732,19.297,17.732,19.591z"/>
	<path class="st3" d="M27.72,15.023c0,0.166-0.037,0.332-0.101,0.488c-0.47-1.041-2.662-1.833-5.296-1.833
		c-2.625,0-4.817,0.792-5.287,1.833c-0.065-0.156-0.101-0.322-0.101-0.488c0-1.418,2.413-2.579,5.388-2.579
		C25.306,12.444,27.72,13.604,27.72,15.023z"/>
	<path class="st3" d="M15.064,15.023c0,0.166-0.037,0.332-0.101,0.488c-0.47-1.041-2.662-1.833-5.296-1.833
		c-2.625,0-4.817,0.792-5.287,1.833c-0.065-0.156-0.101-0.322-0.101-0.488c0-1.418,2.413-2.579,5.388-2.579
		C12.651,12.444,15.064,13.604,15.064,15.023z"/>
	<path class="st8" d="M22.35,21.553c-0.461,1.013-1.262,1.64-2.294,2.017c-0.175,0.967-0.645,1.805-1.262,2.395
		c0.221-0.718,0.212-1.446,0.037-2.073c-0.866,0.166-1.824,0.212-2.837,0.212s-1.971-0.046-2.828-0.212
		c-0.175,0.627-0.184,1.354,0.037,2.073c-0.617-0.59-1.087-1.428-1.262-2.395c-1.023-0.377-1.824-1.004-2.294-2.017
		C12.448,22.225,19.55,22.225,22.35,21.553z"/>
	<g>
		<path class="st3" d="M23.949,22.524c0,0,0.723,0.245,1.64,0.843c3.344,2.089,4.334,4.937,4.756,8.141
			c-0.517-2.874-1.454-5.775-4.988-7.761c-0.916-0.535-1.575-0.722-1.575-0.722c-0.14-0.04-0.222-0.186-0.182-0.326
			c0.04-0.14,0.186-0.222,0.326-0.182c0.004,0.001,0.008,0.003,0.012,0.004L23.949,22.524z"/>
	</g>
	<g>
		<path class="st3" d="M24.767,21.583c1.99,0.244,4.476,1.635,6.319,4.495c-1.987-2.673-4.505-3.877-6.371-3.97
			c-0.146-0.007-0.258-0.131-0.251-0.276c0.007-0.146,0.131-0.258,0.277-0.251c0.006,0,0.012,0.001,0.018,0.002L24.767,21.583z"/>
	</g>
	<path class="st3" d="M25.081,20.215c0,0,0.15,0.009,0.413,0.026c0.257,0.015,0.657,0.053,1.106,0.14
		c0.455,0.076,0.978,0.227,1.511,0.449c0.267,0.112,0.531,0.252,0.79,0.41c0.253,0.167,0.509,0.339,0.734,0.549
		c0.938,0.806,1.527,1.907,1.874,2.734c0.163,0.422,0.296,0.774,0.368,1.029C31.955,25.802,32,25.946,32,25.946
		s-0.052-0.141-0.142-0.389c-0.083-0.25-0.233-0.595-0.414-1.006c-0.384-0.806-1.019-1.858-1.956-2.586
		c-0.918-0.756-2.083-1.092-2.951-1.202c-0.44-0.062-0.792-0.08-1.061-0.083c-0.263-0.004-0.414-0.006-0.414-0.006
		c-0.127-0.002-0.229-0.107-0.227-0.233c0.002-0.127,0.106-0.229,0.234-0.227C25.073,20.214,25.077,20.214,25.081,20.215z"/>
	<g>
		<path class="st3" d="M8.051,22.524c0,0-0.723,0.245-1.641,0.843c-3.344,2.089-4.334,4.937-4.756,8.141
			c0.517-2.874,1.454-5.775,4.988-7.761c0.916-0.535,1.575-0.722,1.575-0.722c0.14-0.04,0.222-0.186,0.182-0.326
			c-0.04-0.14-0.186-0.222-0.326-0.182c-0.004,0.001-0.008,0.003-0.012,0.004L8.051,22.524z"/>
	</g>
	<g>
		<path class="st3" d="M7.233,21.583c-1.99,0.244-4.477,1.635-6.32,4.495c1.987-2.673,4.505-3.877,6.371-3.97
			c0.146-0.007,0.258-0.131,0.251-0.276c-0.007-0.146-0.131-0.258-0.277-0.251c-0.006,0-0.012,0.001-0.018,0.002L7.233,21.583z"/>
	</g>
	<path class="st3" d="M6.919,20.215c0,0-0.15,0.009-0.413,0.026C6.25,20.255,5.85,20.293,5.4,20.38
		c-0.455,0.076-0.978,0.227-1.511,0.449c-0.267,0.112-0.531,0.252-0.79,0.41c-0.253,0.167-0.509,0.339-0.734,0.549
		c-0.938,0.806-1.526,1.907-1.874,2.734c-0.163,0.422-0.296,0.774-0.368,1.029C0.045,25.802,0,25.946,0,25.946
		s0.052-0.141,0.142-0.389c0.083-0.25,0.233-0.595,0.415-1.006c0.384-0.806,1.019-1.858,1.956-2.586
		c0.918-0.756,2.083-1.092,2.951-1.202c0.44-0.062,0.792-0.08,1.061-0.083c0.263-0.004,0.413-0.006,0.413-0.006
		c0.127-0.002,0.229-0.107,0.227-0.233c-0.002-0.127-0.107-0.229-0.234-0.227C6.927,20.214,6.923,20.214,6.919,20.215z"/>
	<path class="st16" d="M31.383,21.701c-0.292-1.072-3.096-3.713-3.096-3.713s-1.078,3.698-0.786,4.77
		c0.292,1.072,1.398,1.705,2.47,1.413C31.043,23.879,31.675,22.773,31.383,21.701z"/>
	<path class="st8" d="M29.594,23.445c-0.15,0.23-0.58,0.22-0.98-0.02c-0.39-0.25-0.6-0.63-0.45-0.87
		c0.14-0.23,0.323,0.205,0.713,0.445C29.277,23.25,29.734,23.205,29.594,23.445z"/>
	<path class="st16" d="M0.617,21.701c0.292-1.072,3.096-3.713,3.096-3.713s1.078,3.698,0.786,4.77
		c-0.292,1.072-1.398,1.705-2.47,1.413C0.957,23.879,0.325,22.773,0.617,21.701z"/>
	<path class="st8" d="M2.406,23.445c0.15,0.23,0.58,0.22,0.98-0.02c0.39-0.25,0.6-0.63,0.45-0.87
		c-0.14-0.23-0.323,0.205-0.713,0.445C2.723,23.25,2.266,23.205,2.406,23.445z"/>
</g>
</svg>
