<?xml version="1.0" encoding="utf-8"?>
<!-- Generator: Adobe Illustrator 21.1.0, SVG Export Plug-In . SVG Version: 6.00 Build 0)  -->
<svg version="1.1" id="Layer_1" xmlns="http://www.w3.org/2000/svg" xmlns:xlink="http://www.w3.org/1999/xlink" x="0px" y="0px"
	 viewBox="0 0 32 32" style="enable-background:new 0 0 32 32;" xml:space="preserve">
<style type="text/css">
	.st0{fill:#DEE4E9;}
	.st1{fill:#CBD6E0;}
	.st2{fill:#5A5F63;}
	.st3{fill:#3E4347;}
	.st4{fill:#F2F8FC;}
	.st5{fill:#E9EFF4;}
	.st6{fill:#E24B4B;}
	.st7{fill:none;stroke:#E9B02C;stroke-width:1.4;stroke-linecap:round;stroke-linejoin:round;stroke-miterlimit:10;}
	.st8{fill:#FFFFFF;}
	.st9{fill:#D3D9DD;}
	.st10{opacity:0.2;}
	.st11{fill:#FFD93B;}
	.st12{fill:#32373A;}
	.st13{fill:#F4C534;}
	.st14{fill:#7A5B44;}
	.st15{fill:#6B503B;}
	.st16{fill:#65B1EF;}
	.st17{fill:#D03F3F;}
	.st18{fill:#E84D88;}
	.st19{fill:none;}
	.st20{fill:#8CC63E;}
	.st21{fill:#7FB239;}
	.st22{opacity:0.3;}
	.st23{fill:#89664C;}
	.st24{fill:#846144;}
	.st25{fill:#E88EA7;}
	.st26{fill:#FC97B2;}
	.st27{fill:#8F6D52;}
</style>
<g>
	<path class="st11" d="M14.218,6.649C10.156,3.86,6.359,1.49,3.459,0.545C2.73,0.315,2.001,0.862,2.001,1.62v15.263l12.217-3.951
		V6.649z"/>
	<path class="st11" d="M17.786,6.649c4.062-2.789,7.859-5.159,10.759-6.104c0.729-0.23,1.458,0.317,1.458,1.074v15.263
		l-12.217-3.951V6.649z"/>
	<path class="st13" d="M9.076,6.107c-1.894-1.23-3.639-2.222-5.068-2.713v7.31C5.443,8.887,7.183,7.291,9.076,6.107z"/>
	<path class="st13" d="M25.858,9.039c0.736,0.641,1.506,1.331,2.134,2.115v-7.76c-1.517,0.521-3.391,1.61-5.421,2.945
		C23.745,7.124,24.787,8.106,25.858,9.039z"/>
	<g>
		<g>
			<g>
				<g>
					<g>
						<g>
							<g>
								<g>
									<g>
										<circle class="st11" cx="16" cy="15.94" r="14.027"/>
									</g>
								</g>
							</g>
						</g>
					</g>
				</g>
				<g>
					<g>
						<g>
							<g>
								<g>
									<g>
										<path class="st13" d="M30.027,15.94c0,7.75-6.282,14.027-14.027,14.027c-4.41,0-8.346-2.034-10.919-5.221
											c2.407,1.946,5.471,3.108,8.807,3.108c7.746,0,14.027-6.277,14.027-14.027c0-3.336-1.162-6.4-3.108-8.806
											C27.989,7.594,30.027,11.53,30.027,15.94z"/>
									</g>
								</g>
							</g>
						</g>
					</g>
				</g>
			</g>
		</g>
	</g>
	<path class="st3" d="M10.474,5.908c0,0-2.85-0.401-5.842,3.063C4.632,8.972,6.567,2.767,10.474,5.908z"/>
	<path class="st3" d="M21.526,5.908c0,0,2.85-0.401,5.842,3.063C27.368,8.972,25.434,2.767,21.526,5.908z"/>
	<path class="st14" d="M17.732,19.591c0,0.617-0.7,1.151-1.207,1.455c-0.331,0.193-0.718,0.193-1.05,0
		c-0.497-0.304-1.207-0.838-1.207-1.455c0-0.958,0.783-1.059,1.732-1.059C16.958,18.532,17.732,18.633,17.732,19.591z"/>
	<path class="st15" d="M17.732,19.591c0,0.617-0.7,1.151-1.207,1.455c-0.331,0.193-0.718,0.193-1.05,0
		c-0.304-0.184-0.7-0.461-0.949-0.793c0.147,0.111,0.295,0.203,0.424,0.286c0.378,0.221,0.82,0.221,1.197,0
		c0.571-0.34,1.345-0.94,1.372-1.621C17.658,19.075,17.732,19.297,17.732,19.591z"/>
	<path class="st3" d="M23.949,22.524c0,0,0.723,0.245,1.64,0.843c3.344,2.089,4.334,4.937,4.756,8.141
		c-0.517-2.874-1.453-5.775-4.988-7.761c-0.916-0.535-1.575-0.722-1.575-0.722c-0.14-0.039-0.222-0.185-0.182-0.326
		c0.04-0.14,0.186-0.222,0.326-0.182c0.004,0.001,0.008,0.003,0.012,0.004L23.949,22.524z"/>
	<path class="st3" d="M24.767,21.583c1.99,0.244,4.476,1.635,6.319,4.495c-1.987-2.673-4.505-3.877-6.371-3.97
		c-0.146-0.007-0.258-0.131-0.251-0.276c0.007-0.146,0.131-0.258,0.277-0.251c0.006,0,0.012,0.001,0.018,0.002L24.767,21.583z"/>
	<path class="st3" d="M25.081,20.215c0.58,0.036,0.918,0.049,1.519,0.165c1.05,0.175,2.266,0.694,3.035,1.408
		c1.272,1.093,1.884,2.612,2.365,4.157c-0.529-1.447-1.192-2.955-2.513-3.98c-0.918-0.756-2.083-1.093-2.951-1.202
		c-0.591-0.083-0.895-0.08-1.474-0.089c-0.127-0.002-0.229-0.107-0.227-0.233c0.002-0.127,0.106-0.229,0.234-0.227
		C25.073,20.214,25.077,20.214,25.081,20.215z"/>
	<path class="st3" d="M8.051,22.524c0,0-0.723,0.245-1.641,0.843c-3.344,2.089-4.334,4.937-4.756,8.141
		c0.517-2.874,1.454-5.775,4.988-7.761c0.916-0.535,1.575-0.722,1.575-0.722c0.14-0.039,0.222-0.185,0.182-0.326
		c-0.04-0.14-0.186-0.222-0.326-0.182c-0.004,0.001-0.008,0.003-0.012,0.004L8.051,22.524z"/>
	<path class="st3" d="M7.233,21.583c-1.99,0.244-4.477,1.635-6.319,4.495c1.987-2.673,4.505-3.877,6.371-3.97
		c0.146-0.007,0.258-0.131,0.251-0.276c-0.007-0.146-0.131-0.258-0.277-0.251c-0.006,0-0.012,0.001-0.018,0.002L7.233,21.583z"/>
	<path class="st3" d="M6.919,20.215c-0.58,0.036-0.918,0.049-1.519,0.165c-1.05,0.175-2.266,0.694-3.035,1.408
		C1.093,22.881,0.481,24.4,0,25.946c0.529-1.447,1.192-2.955,2.513-3.98c0.918-0.756,2.083-1.093,2.951-1.202
		c0.591-0.083,0.895-0.08,1.474-0.089c0.127-0.002,0.229-0.107,0.227-0.233c-0.002-0.127-0.107-0.229-0.234-0.227
		C6.927,20.214,6.923,20.214,6.919,20.215z"/>
	<circle class="st13" cx="10.477" cy="13.573" r="5.394"/>
	<g>
		<circle class="st8" cx="10.477" cy="13.572" r="4.416"/>
	</g>
	<g>
		<g>
			<ellipse class="st3" cx="11.413" cy="12.967" rx="2.23" ry="2.225"/>
		</g>
		<circle class="st13" cx="10.914" cy="13.573" r="5.851"/>
		<g>
			<circle class="st8" cx="10.913" cy="13.573" r="4.79"/>
		</g>
		<g>
			<ellipse class="st3" cx="11.928" cy="12.916" rx="2.419" ry="2.413"/>
		</g>
		
			<ellipse transform="matrix(0.7071 -0.7071 0.7071 0.7071 -4.7129 12.6138)" class="st8" cx="12.87" cy="11.996" rx="0.466" ry="0.772"/>
	</g>
	<circle class="st13" cx="20.67" cy="13.572" r="4.421"/>
	<g>
		<circle class="st8" cx="20.669" cy="13.572" r="3.619"/>
	</g>
	<g>
		<g>
			<ellipse class="st3" cx="20.668" cy="13.573" rx="1.736" ry="1.732"/>
		</g>
		
			<ellipse transform="matrix(0.7071 -0.7071 0.7071 0.7071 -2.8837 18.8625)" class="st8" cx="21.327" cy="12.912" rx="0.334" ry="0.554"/>
	</g>
	<path class="st3" d="M9.516,21.477c1.728,0.288,4.099,0.74,6.489,0.727c2.43,0.026,4.298-0.34,6.478-0.727
		c-1.816,1.043-3.402,1.634-6.483,1.726C14.744,23.155,12.494,23.128,9.516,21.477z"/>
	<path class="st6" d="M17.794,22.062c0.86-0.791,2.529-0.638,3.825,1.596c0.696,1.2,1.178,2.523,1.419,3.888
		c0.459,2.603-0.963,3.612-2.249,3.672c-1.41,0.065-2.782-0.921-2.92-3.403c-0.082-1.465,0.203-4.026-1.913-4.602
		C15.816,22.161,16.964,21.558,17.794,22.062z"/>
	<path class="st17" d="M23.117,28.351c-0.007,1.173-1.104,2.473-2.251,2.26c-2.998-0.557-2.161-3.223-3.143-5.143
		c0.138,0.819,0.111,1.692,0.147,2.348c0.138,2.481,1.51,3.468,2.92,3.403C21.933,31.164,23.174,30.354,23.117,28.351z"/>
</g>
</svg>
