<?xml version="1.0" encoding="utf-8"?>
<!-- Generator: Adobe Illustrator 21.1.0, SVG Export Plug-In . SVG Version: 6.00 Build 0)  -->
<svg version="1.1" id="Layer_1" xmlns="http://www.w3.org/2000/svg" xmlns:xlink="http://www.w3.org/1999/xlink" x="0px" y="0px"
	 viewBox="0 0 32 32" style="enable-background:new 0 0 32 32;" xml:space="preserve">
<style type="text/css">
	.st0{fill:#FFD93B;}
	.st1{fill:#3E4347;}
	.st2{fill:#F4C534;}
	.st3{fill:#38C0DC;}
	.st4{fill:#45CBEA;}
	.st5{fill:#FFFFFF;}
	.st6{fill:#E24B4B;}
	.st7{fill:#5A5F63;}
	.st8{opacity:0.3;}
	.st9{opacity:0.2;}
	.st10{opacity:0.1;}
	.st11{fill:#E9B02C;}
	.st12{fill:#65B1EF;}
	.st13{fill:#E9EFF4;}
	.st14{fill:#8CC63E;}
	.st15{fill:#7FB239;}
	.st16{fill:#D03F3F;}
	.st17{fill:#D23F77;}
	.st18{fill:#E84D88;}
	.st19{fill:#59A5E0;}
	.st20{fill:#DEE4E9;}
	.st21{fill:#D3D9DD;}
	.st22{opacity:0.25;fill:#FFFFFF;}
	.st23{fill:#9A795F;}
	.st24{fill:#F29A2E;}
	.st25{fill:#FC97B2;}
	.st26{fill:#89664C;}
	.st27{fill:#7A5B44;}
	.st28{opacity:0.2;fill:#FFFFFF;}
	.st29{fill:#4E99D2;}
	.st30{fill:#BBC7D1;}
	.st31{fill:#DE9C25;}
</style>
<g>
	<path class="st1" d="M30.557,7.94c0,4.386-6.307,4.937-14.35,4.937c-8.036,0-14.763-0.551-14.763-4.937
		C11.14,5.453,20.844,5.457,30.557,7.94z"/>
	<g>
		<g>
			<g>
				<g>
					<g>
						<g>
							<g>
								<g>
									<g>
										<g>
											<g>
												<g>
													<g>
														<circle class="st0" cx="16" cy="18.118" r="13.882"/>
													</g>
												</g>
											</g>
										</g>
									</g>
								</g>
							</g>
						</g>
					</g>
					<g>
						<g>
							<g>
								<g>
									<g>
										<g>
											<g>
												<g>
													<g>
														<path class="st1" d="M24.498,23.551c-1.787,2.802-4.919,4.659-8.494,4.659c-3.574,0-6.707-1.857-8.503-4.659
															c-0.356-0.555,0.165-1.267,0.798-1.085c5.136,1.449,10.264,1.449,15.4,0C24.333,22.284,24.854,22.995,24.498,23.551z"
															/>
													</g>
												</g>
											</g>
										</g>
									</g>
								</g>
							</g>
						</g>
					</g>
					<g>
						<g>
							<g>
								<g>
									<g>
										<g>
											<g>
												<g>
													<g>
														<path class="st2" d="M29.882,18.118C29.882,25.788,23.665,32,16,32c-4.364,0-8.26-2.013-10.806-5.167
															c2.382,1.926,5.414,3.076,8.715,3.076c7.665,0,13.882-6.212,13.882-13.882c0-3.301-1.15-6.334-3.076-8.715
															C27.865,9.858,29.882,13.754,29.882,18.118z"/>
													</g>
												</g>
											</g>
										</g>
									</g>
								</g>
							</g>
						</g>
					</g>
					<g>
						<g>
							<path class="st5" d="M15.147,17.547c0,2.291-1.783,4.151-3.97,4.151c-2.195,0-3.97-1.86-3.97-4.151
								c0-2.291,1.775-4.151,3.97-4.151C13.364,13.396,15.147,15.256,15.147,17.547z"/>
						</g>
						<g>
							<g>
								<path class="st1" d="M12.935,18.502c-0.007,1.032-0.839,1.856-1.856,1.863c-1.032,0-1.848-0.824-1.841-1.856
									c0-1.017,0.831-1.841,1.856-1.848C12.111,16.662,12.942,17.486,12.935,18.502z"/>
							</g>
							<g>
								
									<ellipse transform="matrix(0.7101 -0.7041 0.7041 0.7101 -9.1783 13.4542)" class="st5" cx="11.749" cy="17.873" rx="0.337" ry="0.609"/>
							</g>
						</g>
						<g>
							<path class="st5" d="M24.793,17.547c0,2.291-1.783,4.151-3.97,4.151c-2.195,0-3.97-1.86-3.97-4.151
								c0-2.291,1.775-4.151,3.97-4.151C23.01,13.396,24.793,15.256,24.793,17.547z"/>
						</g>
						<g>
							<g>
								<path class="st1" d="M22.581,18.502c-0.007,1.032-0.839,1.856-1.856,1.863c-1.032,0-1.848-0.824-1.841-1.856
									c0-1.017,0.831-1.841,1.856-1.848C21.757,16.662,22.588,17.486,22.581,18.502z"/>
							</g>
							<g>
								
									<ellipse transform="matrix(0.7101 -0.7041 0.7041 0.7101 -6.3818 20.2461)" class="st5" cx="21.395" cy="17.873" rx="0.337" ry="0.609"/>
							</g>
						</g>
					</g>
					<g>
						<g>
							<path class="st20" d="M4.143,7.939c1.376,6.529,6.182,7.795,11.861,7.795c5.679,0,10.441-1.266,11.816-7.795H4.143z"/>
						</g>
						<g>
							<path class="st1" d="M5.727,11.829c2.19,3.177,5.982,3.905,10.277,3.905c4.285,0,8.046-0.724,10.226-3.883
								C19.321,13.477,12.669,13.501,5.727,11.829z"/>
						</g>
					</g>
				</g>
			</g>
		</g>
	</g>
	<path class="st1" d="M1.443,7.939C1.443,3.554,7.96,0,16,0s14.557,3.554,14.557,7.939"/>
	<path class="st1" d="M30.557,7.939c0,3.07-6.511,3.15-14.554,3.15c-8.036,0-14.559-0.08-14.559-3.15
		C11.14,6.198,20.844,6.201,30.557,7.939z"/>
	<path class="st12" d="M19.18,3.062v1.896c0,1.946-1.229,3.688-3.056,4.34c-0.08,0.025-0.169,0.025-0.249,0
		c-1.827-0.652-3.056-2.394-3.056-4.34V3.062c0-0.189,0.149-0.338,0.338-0.348c1.409-0.075,2.265-0.607,2.633-0.901
		c0.124-0.1,0.294-0.1,0.418,0c0.368,0.294,1.224,0.826,2.633,0.901C19.031,2.724,19.18,2.873,19.18,3.062z"/>
	<path class="st5" d="M17.137,5.537c-0.063,0.061-0.092,0.149-0.077,0.234l0.131,0.76C17.227,6.747,17,6.912,16.806,6.81
		l-0.683-0.358c-0.077-0.041-0.169-0.041-0.246,0L15.194,6.81C15,6.912,14.772,6.747,14.81,6.531l0.128-0.76
		c0.016-0.086-0.014-0.174-0.074-0.234l-0.552-0.539c-0.158-0.153-0.072-0.422,0.147-0.453l0.762-0.11
		c0.088-0.011,0.162-0.068,0.201-0.144l0.34-0.692c0.097-0.196,0.379-0.196,0.476,0l0.34,0.692c0.041,0.077,0.115,0.133,0.201,0.144
		l0.762,0.11c0.219,0.032,0.304,0.3,0.149,0.453L17.137,5.537z"/>
	<path class="st5" d="M8.949,22.626c1.841,2.105,3.749,2.697,7.056,2.697c3.306,0,5.217-0.593,7.054-2.699
		C18.353,23.842,13.654,23.842,8.949,22.626z"/>
</g>
</svg>
