<?xml version="1.0" encoding="utf-8"?>
<!-- Generator: Adobe Illustrator 21.1.0, SVG Export Plug-In . SVG Version: 6.00 Build 0)  -->
<svg version="1.1" id="Layer_1" xmlns="http://www.w3.org/2000/svg" xmlns:xlink="http://www.w3.org/1999/xlink" x="0px" y="0px"
	 viewBox="0 0 32 32" style="enable-background:new 0 0 32 32;" xml:space="preserve">
<style type="text/css">
	.st0{fill:#DEE4E9;}
	.st1{fill:#CBD6E0;}
	.st2{fill:#5A5F63;}
	.st3{fill:#3E4347;}
	.st4{fill:#F2F8FC;}
	.st5{fill:#E9EFF4;}
	.st6{fill:#E24B4B;}
	.st7{fill:none;stroke:#E9B02C;stroke-width:1.4;stroke-linecap:round;stroke-linejoin:round;stroke-miterlimit:10;}
	.st8{fill:#FFFFFF;}
	.st9{fill:#D3D9DD;}
	.st10{opacity:0.2;}
	.st11{fill:#FFD93B;}
	.st12{fill:#32373A;}
	.st13{fill:#F4C534;}
	.st14{fill:#7A5B44;}
	.st15{fill:#6B503B;}
	.st16{fill:#65B1EF;}
	.st17{fill:#D03F3F;}
	.st18{fill:#E84D88;}
	.st19{fill:none;}
	.st20{fill:#8CC63E;}
	.st21{fill:#7FB239;}
	.st22{opacity:0.3;}
	.st23{fill:#89664C;}
	.st24{fill:#846144;}
	.st25{fill:#E88EA7;}
	.st26{fill:#FC97B2;}
	.st27{fill:#8F6D52;}
</style>
<g>
	<g>
		<path class="st11" d="M14.096,6.835C9.757,3.856,5.702,1.325,2.605,0.316C1.826,0.07,1.048,0.654,1.048,1.463v16.302l13.049-4.22
			V6.835z"/>
		<path class="st11" d="M17.908,6.835c4.339-2.979,8.394-5.51,11.491-6.519c0.779-0.246,1.557,0.338,1.557,1.148v16.302
			l-13.049-4.22V6.835z"/>
		<path class="st13" d="M8.604,6.256C6.581,4.942,4.718,3.883,3.192,3.358v7.807C4.724,9.226,6.582,7.521,8.604,6.256z"/>
		<path class="st13" d="M26.529,9.388c0.786,0.685,1.609,1.422,2.279,2.259V3.358c-1.62,0.557-3.622,1.72-5.791,3.146
			C24.273,7.343,25.385,8.392,26.529,9.388z"/>
		<g>
			<g>
				<g>
					<g>
						<g>
							<g>
								<g>
									<g>
										<g>
											<g>
												<g>
													<circle class="st11" cx="16" cy="16.759" r="14.982"/>
												</g>
											</g>
										</g>
									</g>
								</g>
							</g>
							<g>
								<g>
									<g>
										<g>
											<g>
												<g>
													<path class="st13" d="M30.982,16.759c0,8.278-6.709,14.982-14.983,14.982c-4.71,0-8.914-2.173-11.663-5.576
														c2.57,2.079,5.843,3.32,9.406,3.32c8.273,0,14.982-6.705,14.982-14.982c0-3.563-1.241-6.836-3.319-9.406
														C28.805,7.844,30.982,12.049,30.982,16.759z"/>
												</g>
											</g>
										</g>
									</g>
								</g>
							</g>
						</g>
					</g>
				</g>
			</g>
		</g>
		<path class="st3" d="M10.097,6.044c0,0-3.044-0.428-6.24,3.272C3.858,9.316,5.924,2.689,10.097,6.044z"/>
		<path class="st3" d="M21.902,6.044c0,0,3.044-0.428,6.24,3.272C28.142,9.316,26.076,2.689,21.902,6.044z"/>
		<path class="st14" d="M17.849,20.659c0,0.659-0.748,1.23-1.289,1.554c-0.354,0.207-0.767,0.207-1.122,0
			c-0.531-0.325-1.289-0.895-1.289-1.554c0-1.023,0.836-1.131,1.85-1.131C17.023,19.527,17.849,19.636,17.849,20.659z"/>
		<path class="st15" d="M17.849,20.659c0,0.659-0.748,1.23-1.289,1.554c-0.354,0.207-0.767,0.207-1.122,0
			c-0.325-0.197-0.748-0.492-1.013-0.846c0.157,0.118,0.315,0.217,0.453,0.305c0.403,0.236,0.876,0.236,1.279,0
			c0.61-0.364,1.436-1.003,1.466-1.731C17.771,20.108,17.849,20.344,17.849,20.659z"/>
		<g>
			<g>
				<g>
					<circle class="st13" cx="9.871" cy="14.23" r="5.511"/>
					<g>
						<circle class="st8" cx="9.871" cy="14.23" r="4.511"/>
					</g>
					<g>
						<g>
							<ellipse class="st3" cx="8.915" cy="13.611" rx="2.278" ry="2.273"/>
						</g>
						
							<ellipse transform="matrix(0.7071 -0.7071 0.7071 0.7071 -6.6544 9.425)" class="st8" cx="8.05" cy="12.745" rx="0.727" ry="0.439"/>
					</g>
				</g>
			</g>
			<g>
				<g>
					<circle class="st13" cx="22.129" cy="14.226" r="5.511"/>
					<g>
						<circle class="st8" cx="22.129" cy="14.226" r="4.511"/>
					</g>
					<g>
						<g>
							<ellipse class="st3" cx="23.085" cy="14.845" rx="2.278" ry="2.273"/>
						</g>
						
							<ellipse transform="matrix(0.7071 -0.7071 0.7071 0.7071 -4.0942 21.5383)" class="st8" cx="23.95" cy="15.711" rx="0.727" ry="0.439"/>
					</g>
				</g>
			</g>
		</g>
	</g>
	<g>
		<path class="st3" d="M8.776,25.361c0.462-1.025,1.775-2.162,2.524-1.328c0.373,0.357,0.581,0.879,0.894,0.995
			c0.323,0.116,0.559-0.111,0.849-0.643c0.646-0.999,1.383-1.003,1.973-0.475c0.275,0.28,0.411,0.562,0.567,0.77
			c0.54,0.813,0.795-0.116,1.397-0.775c0.565-0.536,1.316-0.508,1.973,0.484c0.297,0.532,0.514,0.752,0.848,0.636
			c0.313-0.116,0.52-0.639,0.896-0.995c0.83-0.807,2.063,0.303,2.526,1.331c-0.519-0.668-1.677-1.668-2.209-1.011
			c-0.276,0.26-0.339,0.806-0.962,1.202c-0.287,0.157-0.694,0.168-1.069-0.061c-0.313-0.214-0.467-0.501-0.622-0.719
			c-0.361-0.563-0.598-0.511-0.841-0.313c-0.378,0.374-0.353,0.72-0.872,1.096c-0.424,0.346-1.203,0.312-1.703-0.416
			c-0.191-0.278-0.327-0.536-0.47-0.679c-0.062-0.066-0.154-0.108-0.16-0.116c-0.217-0.039-0.36-0.064-0.681,0.423
			c-0.455,0.644-0.886,1.164-1.687,0.786c-0.625-0.394-0.688-0.941-0.963-1.203C10.458,23.687,9.293,24.694,8.776,25.361z"/>
	</g>
	<g>
		<g>
			<g>
				<path class="st3" d="M9.009,22.501c0,0-0.798,0.167-1.848,0.683c-3.814,1.786-5.23,4.678-6.089,8.021
					c0.917-2.981,2.283-5.937,6.286-7.589c1.04-0.449,1.763-0.563,1.763-0.563c0.154-0.024,0.259-0.168,0.235-0.322
					c-0.024-0.154-0.169-0.259-0.322-0.235c-0.004,0.001-0.009,0.002-0.013,0.002L9.009,22.501z"/>
			</g>
			<g>
				<path class="st3" d="M7.553,21.547c-2.142,0.003-4.957,1.159-7.278,3.955c2.45-2.579,5.275-3.532,7.265-3.392
					c0.155,0.011,0.29-0.106,0.301-0.261c0.011-0.156-0.106-0.291-0.261-0.302c-0.007,0-0.013-0.001-0.02,0L7.553,21.547z"/>
			</g>
			<g>
				<path class="st3" d="M8.709,20.484c-0.609-0.121-0.962-0.199-1.614-0.243c-1.124-0.105-2.522,0.094-3.519,0.626
					C1.965,21.649,0.919,23.051,0,24.515c0.697-1,1.849-2.646,3.681-3.425c1.154-0.53,2.449-0.56,3.375-0.436
					c0.633,0.075,0.946,0.161,1.547,0.31c0.132,0.033,0.265-0.048,0.298-0.179c0.033-0.132-0.047-0.265-0.179-0.298
					C8.717,20.486,8.713,20.485,8.709,20.484z"/>
			</g>
		</g>
		<g>
			<g>
				<path class="st3" d="M22.991,22.501c0,0,0.798,0.167,1.848,0.683c3.815,1.786,5.23,4.678,6.089,8.021
					c-0.917-2.981-2.283-5.937-6.286-7.589c-1.04-0.449-1.763-0.563-1.763-0.563c-0.154-0.024-0.259-0.168-0.235-0.322
					c0.024-0.154,0.169-0.259,0.322-0.235c0.004,0.001,0.009,0.002,0.013,0.002L22.991,22.501z"/>
			</g>
			<g>
				<path class="st3" d="M24.447,21.547c2.142,0.003,4.957,1.159,7.278,3.955c-2.45-2.579-5.275-3.532-7.265-3.392
					c-0.155,0.011-0.29-0.106-0.301-0.261c-0.011-0.156,0.106-0.291,0.261-0.302c0.007,0,0.013-0.001,0.02,0L24.447,21.547z"/>
			</g>
			<g>
				<path class="st3" d="M23.291,20.484c0.609-0.121,0.962-0.199,1.614-0.243c1.132-0.106,2.53,0.098,3.519,0.626
					c1.612,0.782,2.658,2.184,3.577,3.648c-0.698-1-1.849-2.646-3.681-3.425c-1.154-0.53-2.449-0.56-3.375-0.436
					c-0.633,0.075-0.946,0.161-1.547,0.31c-0.132,0.033-0.265-0.048-0.298-0.179c-0.033-0.132,0.048-0.265,0.179-0.298
					C23.283,20.486,23.287,20.485,23.291,20.484z"/>
			</g>
		</g>
	</g>
</g>
</svg>
