<?xml version="1.0" encoding="utf-8"?>
<!-- Generator: Adobe Illustrator 21.1.0, SVG Export Plug-In . SVG Version: 6.00 Build 0)  -->
<svg version="1.1" id="Layer_1" xmlns="http://www.w3.org/2000/svg" xmlns:xlink="http://www.w3.org/1999/xlink" x="0px" y="0px"
	 viewBox="0 0 32 32" style="enable-background:new 0 0 32 32;" xml:space="preserve">
<style type="text/css">
	.st0{fill:#DEE4E9;}
	.st1{fill:#CBD6E0;}
	.st2{fill:#5A5F63;}
	.st3{fill:#3E4347;}
	.st4{fill:#F2F8FC;}
	.st5{fill:#E9EFF4;}
	.st6{fill:#E24B4B;}
	.st7{fill:none;stroke:#E9B02C;stroke-width:1.4;stroke-linecap:round;stroke-linejoin:round;stroke-miterlimit:10;}
	.st8{fill:#FFFFFF;}
	.st9{fill:#D3D9DD;}
	.st10{opacity:0.2;}
	.st11{fill:#FFD93B;}
	.st12{fill:#32373A;}
	.st13{fill:#F4C534;}
	.st14{fill:#7A5B44;}
	.st15{fill:#6B503B;}
	.st16{fill:#65B1EF;}
	.st17{fill:#D03F3F;}
	.st18{fill:#E84D88;}
	.st19{fill:none;}
	.st20{fill:#8CC63E;}
	.st21{fill:#7FB239;}
	.st22{opacity:0.3;}
	.st23{fill:#89664C;}
	.st24{fill:#846144;}
	.st25{fill:#E88EA7;}
	.st26{fill:#FC97B2;}
	.st27{fill:#8F6D52;}
</style>
<g>
	<path class="st11" d="M14.153,6.632C9.942,3.741,6.007,1.285,3.001,0.305C2.246,0.067,1.49,0.633,1.49,1.419v15.82l12.663-4.095
		V6.632z"/>
	<path class="st11" d="M17.851,6.632c4.211-2.891,8.146-5.347,11.151-6.327c0.756-0.238,1.511,0.328,1.511,1.114v15.82
		l-12.663-4.095V6.632z"/>
	<path class="st13" d="M8.823,6.07C6.86,4.795,5.051,3.767,3.571,3.258v7.576C5.058,8.952,6.861,7.298,8.823,6.07z"/>
	<path class="st13" d="M26.218,9.109c0.763,0.664,1.561,1.38,2.212,2.192V3.258c-1.572,0.54-3.515,1.669-5.619,3.053
		C24.028,7.125,25.108,8.142,26.218,9.109z"/>
	<g>
		<g>
			<g>
				<g>
					<g>
						<g>
							<g>
								<g>
									<g>
										<g>
											<g>
												<g>
													<g>
														<g>
															<g>
																<g>
																	<g>
																		<g>
																			<circle class="st11" cx="16" cy="17.236" r="14.514"/>
																		</g>
																	</g>
																</g>
															</g>
														</g>
													</g>
													<g>
														<g>
															<g>
																<g>
																	<g>
																		<g>
																			<path class="st13" d="M30.514,17.236c0,8.019-6.5,14.514-14.514,14.514c-4.563,0-8.636-2.105-11.298-5.402
																				c2.49,2.014,5.66,3.216,9.112,3.216c8.015,0,14.514-6.495,14.514-14.514c0-3.452-1.202-6.622-3.216-9.112
																				C28.405,8.6,30.514,12.673,30.514,17.236z"/>
																		</g>
																	</g>
																</g>
															</g>
														</g>
													</g>
												</g>
											</g>
										</g>
									</g>
								</g>
							</g>
						</g>
					</g>
				</g>
			</g>
		</g>
	</g>
	<path class="st3" d="M24.786,21.194c0.522,4.215-3.081,8.69-8.545,8.676c-5.45,0.009-9.067-4.459-8.54-8.685
		c0.036-0.327,0.434-0.454,0.684-0.22c2.307,3.167,13.385,3.198,15.717,0.01C24.348,20.733,24.759,20.864,24.786,21.194z"/>
	<path class="st6" d="M16.234,29.029c2.017,0.013,4.086-0.798,5.193-2.118c-1.081-1.277-3.132-1.677-4.575-1.003
		c-0.472,0.229-1.035,0.243-1.529,0.057c-1.362-0.499-3.253-0.107-4.284,0.959C12.144,28.23,14.244,29.036,16.234,29.029z"/>
	<path class="st8" d="M23.525,21.564c-2.958,2.396-11.61,2.374-14.559-0.007c0.331,1.034,0.981,1.921,1.907,2.6
		c-0.011,0.569-0.011,1.14-0.003,1.711c0.311-0.382,0.611-0.769,0.9-1.162c1.253,0.662,2.816,1.006,4.474,1.004
		c1.646-0.001,3.209-0.343,4.465-0.993c0.291,0.389,0.594,0.772,0.909,1.151c0.01-0.569,0.01-1.136,0-1.702
		C22.541,23.479,23.193,22.595,23.525,21.564z"/>
	<circle class="st8" cx="15.658" cy="13.141" r="6.646"/>
	
		<ellipse transform="matrix(0.7071 -0.7071 0.7071 0.7071 -4.7062 14.92)" class="st3" cx="15.657" cy="13.141" rx="3.45" ry="3.45"/>
	<path class="st8" d="M17.784,12.681c-0.264,0.275-0.825,0.161-1.238-0.252c-0.413-0.424-0.539-0.974-0.264-1.25
		c0.275-0.264,0.825-0.149,1.238,0.264C17.944,11.856,18.059,12.417,17.784,12.681z"/>
	<g>
		<g>
			<path class="st3" d="M9.854,20.697c-0.996-0.711-2.357-1.135-3.75-1.109C2.924,19.646,0.438,22.111,0,24.868
				c0.575-4.776,6.264-7.167,10.114-4.589c0.147,0.096,0.16,0.247,0.088,0.354C10.121,20.755,9.955,20.776,9.854,20.697z"/>
		</g>
		<g>
			<path class="st3" d="M9.939,18.64c-0.645-0.544-1.595-1.079-2.59-1.4c-1.012-0.325-2.125-0.444-2.961-0.375
				c0.819-0.136,1.956-0.112,3.026,0.138c1.065,0.25,2.12,0.739,2.81,1.236c0.14,0.099,0.15,0.251,0.074,0.357
				C10.218,18.707,10.056,18.737,9.939,18.64z"/>
		</g>
	</g>
	<g>
		<path class="st3" d="M8.426,18.734c-1.083-0.314-2.551-0.432-3.944-0.245c-1.416,0.192-2.826,0.71-3.778,1.298
			c0.918-0.648,2.313-1.258,3.737-1.541c1.451-0.286,2.999-0.243,4.085,0.006c0.172,0.04,0.237,0.174,0.208,0.3
			C8.701,18.699,8.547,18.775,8.426,18.734z"/>
	</g>
	<g>
		<g>
			<path class="st3" d="M22.146,20.697c0.996-0.711,2.358-1.135,3.75-1.109c3.18,0.058,5.665,2.523,6.104,5.281
				c-0.575-4.776-6.264-7.167-10.114-4.589c-0.146,0.096-0.16,0.247-0.088,0.354C21.879,20.755,22.045,20.776,22.146,20.697z"/>
		</g>
		<g>
			<path class="st3" d="M22.061,18.64c0.645-0.544,1.595-1.079,2.59-1.4c1.012-0.325,2.125-0.444,2.961-0.375
				c-0.819-0.136-1.956-0.112-3.026,0.138c-1.065,0.25-2.12,0.739-2.81,1.236c-0.14,0.099-0.15,0.251-0.074,0.357
				C21.782,18.707,21.944,18.737,22.061,18.64z"/>
		</g>
	</g>
	<g>
		<path class="st3" d="M23.574,18.734c1.083-0.314,2.551-0.432,3.944-0.245c1.416,0.192,2.826,0.71,3.778,1.298
			c-0.918-0.648-2.312-1.258-3.737-1.541c-1.451-0.286-2.999-0.243-4.085,0.006c-0.172,0.04-0.237,0.174-0.208,0.3
			C23.299,18.699,23.453,18.775,23.574,18.734z"/>
	</g>
</g>
</svg>
