<?xml version="1.0" encoding="utf-8"?>
<!-- Generator: Adobe Illustrator 21.1.0, SVG Export Plug-In . SVG Version: 6.00 Build 0)  -->
<svg version="1.1" id="Layer_1" xmlns="http://www.w3.org/2000/svg" xmlns:xlink="http://www.w3.org/1999/xlink" x="0px" y="0px"
	 viewBox="0 0 32 32" style="enable-background:new 0 0 32 32;" xml:space="preserve">
<style type="text/css">
	.st0{fill:#DEE4E9;}
	.st1{fill:#CBD6E0;}
	.st2{fill:#5A5F63;}
	.st3{fill:#3E4347;}
	.st4{fill:#F2F8FC;}
	.st5{fill:#E9EFF4;}
	.st6{fill:#E24B4B;}
	.st7{fill:none;stroke:#E9B02C;stroke-width:1.4;stroke-linecap:round;stroke-linejoin:round;stroke-miterlimit:10;}
	.st8{fill:#FFFFFF;}
	.st9{fill:#D3D9DD;}
	.st10{opacity:0.2;}
	.st11{fill:#FFD93B;}
	.st12{fill:#32373A;}
	.st13{fill:#F4C534;}
	.st14{fill:#7A5B44;}
	.st15{fill:#6B503B;}
	.st16{fill:#65B1EF;}
	.st17{fill:#D03F3F;}
	.st18{fill:#E84D88;}
	.st19{fill:none;}
	.st20{fill:#8CC63E;}
	.st21{fill:#7FB239;}
	.st22{opacity:0.3;}
	.st23{fill:#89664C;}
	.st24{fill:#846144;}
	.st25{fill:#E88EA7;}
	.st26{fill:#FC97B2;}
	.st27{fill:#8F6D52;}
</style>
<g>
	<g>
		<path class="st2" d="M31.045,19.894c-0.412,3.097-2.174,5.146-3.108,4.734c-1.607-0.653-1.257-2.759-0.931-5.277
			c0.351-2.517,0.569-4.638,2.292-4.845C30.308,14.359,31.466,16.797,31.045,19.894z"/>
	</g>
	<g>
		<path class="st3" d="M31.993,16.072c0.06,2.624-0.292,5.242-1.043,7.758c-0.168,0.566-0.63,0.958-1.11,0.969
			c-0.441,0.015-0.881-0.058-1.308-0.21c1.159-3.159,1.613-6.534,1.33-9.888c0.464-0.034,0.918,0.013,1.35,0.153
			C31.658,14.994,31.981,15.497,31.993,16.072z"/>
	</g>
	<g>
		<path class="st5" d="M30.202,14.418c0.341,3.572-0.143,7.174-1.415,10.53c-0.104,0.274-0.381,0.418-0.614,0.324
			c-0.232-0.097-0.333-0.381-0.234-0.645c1.222-3.225,1.688-6.689,1.36-10.122c-0.026-0.282,0.146-0.529,0.396-0.561
			C29.944,13.914,30.174,14.125,30.202,14.418z"/>
	</g>
	<g>
		<path class="st2" d="M0.955,19.894c0.412,3.097,2.174,5.146,3.108,4.734c1.607-0.653,1.257-2.759,0.931-5.277
			c-0.351-2.517-0.569-4.638-2.292-4.845C1.692,14.359,0.534,16.797,0.955,19.894z"/>
	</g>
	<g>
		<path class="st3" d="M0.007,16.072c-0.06,2.624,0.292,5.242,1.043,7.758c0.168,0.566,0.63,0.958,1.11,0.969
			c0.441,0.015,0.881-0.058,1.309-0.21c-1.159-3.159-1.613-6.534-1.33-9.888c-0.464-0.034-0.919,0.013-1.35,0.153
			C0.342,14.994,0.019,15.497,0.007,16.072z"/>
	</g>
	<g>
		<path class="st5" d="M1.798,14.418c-0.341,3.572,0.143,7.174,1.415,10.53c0.104,0.274,0.381,0.418,0.614,0.324
			c0.232-0.097,0.333-0.381,0.234-0.645c-1.222-3.225-1.688-6.689-1.36-10.122c0.026-0.282-0.146-0.529-0.396-0.561
			C2.056,13.914,1.826,14.125,1.798,14.418z"/>
	</g>
	<path class="st11" d="M14.41,10.384C10.787,7.896,7.4,5.783,4.814,4.939c-0.65-0.205-1.301,0.282-1.301,0.958v13.614l10.897-3.524
		V10.384z"/>
	<path class="st11" d="M17.593,10.384c3.624-2.488,7.01-4.601,9.597-5.445c0.65-0.205,1.301,0.282,1.301,0.958v13.614l-10.897-3.524
		V10.384z"/>
	<path class="st13" d="M9.824,9.9c-1.69-1.097-3.246-1.982-4.52-2.42v6.52C6.584,12.38,8.135,10.957,9.824,9.9z"/>
	<path class="st13" d="M24.793,12.516c0.657,0.572,1.344,1.188,1.903,1.887V7.481c-1.353,0.465-3.025,1.436-4.836,2.627
		C22.909,10.808,23.838,11.684,24.793,12.516z"/>
	<g>
		<g>
			<g>
				<g>
					<g>
						<g>
							<g>
								<g>
									<g>
										<g>
											<g>
												<g>
													<g>
														<g>
															<g>
																<g>
																	<g>
																		<g>
																			<g>
																				<g>
																					<circle class="st11" cx="16" cy="19.509" r="12.491"/>
																				</g>
																			</g>
																		</g>
																	</g>
																</g>
															</g>
															<g>
																<g>
																	<g>
																		<g>
																			<g>
																				<g>
																					<path class="st13" d="M28.49,19.51C28.49,26.41,22.897,32,16,32c-3.927,0-7.432-1.811-9.723-4.649
																						c2.143,1.733,4.871,2.767,7.842,2.767c6.897,0,12.49-5.59,12.491-12.491c0-2.97-1.034-5.699-2.767-7.842
																						C26.676,12.078,28.49,15.583,28.49,19.51z"/>
																				</g>
																			</g>
																		</g>
																	</g>
																</g>
															</g>
														</g>
													</g>
												</g>
											</g>
										</g>
									</g>
								</g>
							</g>
						</g>
					</g>
				</g>
			</g>
		</g>
	</g>
	<path class="st3" d="M8.288,11.506c0,0,2.549-2.042,5.509-1.226C13.796,10.281,10.142,6.782,8.288,11.506z"/>
	<path class="st3" d="M23.712,11.506c0,0-2.549-2.042-5.508-1.226C18.204,10.281,21.858,6.782,23.712,11.506z"/>
	<path class="st3" d="M23.396,22.943c-1.07,3.5-3.876,6.007-7.188,6.007c-3.303,0-6.118-2.507-7.188-6.015
		c-0.077-0.274,0.188-0.505,0.453-0.394c2.61,1.138,10.842,1.155,13.469,0.008C23.207,22.43,23.481,22.67,23.396,22.943z"/>
	<path class="st6" d="M16.208,28.95c1.296,0,2.512-0.388,3.579-1.065c-0.288-1.384-1.798-2.157-3.073-1.607
		c-0.4,0.173-0.844,0.194-1.261,0.069c-1.189-0.353-2.455,0.362-2.787,1.56C13.726,28.571,14.929,28.95,16.208,28.95z"/>
	<path class="st8" d="M22.631,22.661c-0.593,0.983-1.406,1.652-2.363,2.11l-0.288,1.423l-0.458-1.135
		c-1,0.33-2.126,0.466-3.312,0.466c-1.194,0-2.321-0.135-3.321-0.474l-0.449,1.143l-0.288-1.432
		c-0.957-0.449-1.771-1.127-2.363-2.109C12.567,23.635,19.835,23.652,22.631,22.661z"/>
	<g>
		<path class="st13" d="M14.871,16.502c0,2.165-1.754,3.919-3.91,3.919c-2.165,0-3.919-1.754-3.919-3.919
			c0-2.157,1.754-3.911,3.919-3.911C13.118,12.592,14.871,14.346,14.871,16.502z"/>
	</g>
	<g>
		<path class="st3" d="M14.68,17.799c-0.589-0.945-2.018-1.613-3.719-1.613c-1.71,0-3.139,0.669-3.728,1.613
			c-0.011-1.532,1.625-2.827,3.728-2.827C13.055,14.972,14.691,16.267,14.68,17.799z"/>
	</g>
	<g>
		<path class="st13" d="M24.958,16.502c0,2.165-1.754,3.919-3.91,3.919c-2.166,0-3.919-1.754-3.919-3.919
			c0-2.157,1.754-3.911,3.919-3.911C23.204,12.592,24.958,14.346,24.958,16.502z"/>
	</g>
	<g>
		<path class="st3" d="M24.767,17.799c-0.589-0.945-2.018-1.613-3.719-1.613c-1.71,0-3.139,0.669-3.728,1.613
			c-0.011-1.532,1.625-2.827,3.728-2.827C23.142,14.972,24.778,16.267,24.767,17.799z"/>
	</g>
	<path class="st3" d="M0.426,17.099C-0.602,7.477,6.719,0.293,16,0c10.598,0.63,16.475,8.378,15.575,17.126h-1.059
		C30.096,8.974,24.473,2.83,16,2.61C7.522,2.816,1.895,9.002,1.483,17.152L0.426,17.099z"/>
</g>
</svg>
