<?xml version="1.0" encoding="utf-8"?>
<!-- Generator: Adobe Illustrator 21.1.0, SVG Export Plug-In . SVG Version: 6.00 Build 0)  -->
<svg version="1.1" id="Layer_1" xmlns="http://www.w3.org/2000/svg" xmlns:xlink="http://www.w3.org/1999/xlink" x="0px" y="0px"
	 viewBox="0 0 32 32" style="enable-background:new 0 0 32 32;" xml:space="preserve">
<style type="text/css">
	.st0{fill:#DEE4E9;}
	.st1{fill:#CBD6E0;}
	.st2{fill:#5A5F63;}
	.st3{fill:#3E4347;}
	.st4{fill:#F2F8FC;}
	.st5{fill:#E9EFF4;}
	.st6{fill:#E24B4B;}
	.st7{fill:none;stroke:#E9B02C;stroke-width:1.4;stroke-linecap:round;stroke-linejoin:round;stroke-miterlimit:10;}
	.st8{fill:#FFFFFF;}
	.st9{fill:#D3D9DD;}
	.st10{opacity:0.2;}
	.st11{fill:#FFD93B;}
	.st12{fill:#32373A;}
	.st13{fill:#F4C534;}
	.st14{fill:#7A5B44;}
	.st15{fill:#6B503B;}
	.st16{fill:#65B1EF;}
	.st17{fill:#D03F3F;}
	.st18{fill:#E84D88;}
	.st19{fill:none;}
	.st20{fill:#8CC63E;}
	.st21{fill:#7FB239;}
	.st22{opacity:0.3;}
	.st23{fill:#89664C;}
	.st24{fill:#846144;}
	.st25{fill:#E88EA7;}
	.st26{fill:#FC97B2;}
	.st27{fill:#8F6D52;}
</style>
<g>
	<g>
		<g>
			<g>
				<g>
					<path class="st14" d="M16,20.506C3.473,20.392-1.213,11.327,1.914,10.273c0.883-0.402,2.075-0.424,3.475-0.265
						C17.559,11.299,7.872,11.894,26.696,10l0.019-0.008c1.352-0.144,2.507-0.114,3.371,0.28C33.214,11.327,28.528,20.392,16,20.506
						z"/>
				</g>
				<g>
					<g>
						<g>
							<g>
								<g>
									<g>
										<g>
											<g>
												<g>
													<g>
														<g>
															<g>
																<g>
																	<g>
																		<g>
																			<path class="st11" d="M20.811,9.653h-9.628c-4.056,1.838-6.881,5.912-6.881,10.65
																				C4.302,26.766,9.536,32,15.998,32c6.455,0,11.696-5.234,11.696-11.696C27.695,15.566,24.866,11.491,20.811,9.653
																				z"/>
																		</g>
																	</g>
																</g>
															</g>
														</g>
														<g>
															<g>
																<g>
																	<g>
																		<g>
																			<path class="st13" d="M27.695,20.304C27.695,26.766,22.453,32,15.998,32c-3.684,0-6.974-1.703-9.109-4.364
																				c2.003,1.608,4.54,2.566,7.31,2.566c6.455,0,11.696-5.234,11.696-11.696c0-2.771-0.958-5.307-2.573-7.31
																				C25.991,13.337,27.695,16.619,27.695,20.304z"/>
																		</g>
																	</g>
																</g>
															</g>
														</g>
														<g class="st22">
															<g>
																<g>
																	<g>
																		<g>
																			<g>
																				<path class="st8" d="M6.617,18.842c-0.028,0-0.056-0.003-0.083-0.008c-0.228-0.046-0.375-0.267-0.329-0.495
																					c0.734-3.659,3.539-6.663,7.147-7.654c0.228-0.061,0.456,0.071,0.517,0.294
																					c0.061,0.224-0.071,0.455-0.294,0.517c-3.305,0.907-5.874,3.658-6.546,7.008
																					C6.988,18.704,6.813,18.842,6.617,18.842z"/>
																			</g>
																		</g>
																	</g>
																</g>
															</g>
														</g>
														<g>
															<g>
																<path class="st14" d="M22.957,0.877c-2.05-3.972-6.302,7.187-9.513,1.296C12.73,0.876,9.895-0.782,9.04,0.877
																	c-1.599,2.997-2.453,6.16-2.967,9.398c2.177,0.125,4.274,0.753,6.385,1.315c0.318-0.167,0.69-0.273,1.134-0.272
																	c7.781,0.015,9.39,0.026,10.834-0.717c0.524-0.269,1.036-0.341,1.506-0.274C25.419,7.071,24.565,3.89,22.957,0.877z
																	"/>
															</g>
															<g>
																<path class="st15" d="M16.96,11.323c4.881-0.013,6.231-0.086,7.467-0.721c0.524-0.269,1.036-0.341,1.506-0.274
																	c-0.513-3.257-1.368-6.438-2.976-9.451C22.922,0.808,22.865,0.759,22.82,0.7
																	C22.859,1.288,23.253,9.112,16.96,11.323z"/>
															</g>
														</g>
													</g>
												</g>
											</g>
										</g>
									</g>
								</g>
							</g>
						</g>
					</g>
				</g>
				<g>
					<path class="st23" d="M29.444,10.064l-0.453,0.185c-2.121,0.885-3.922,2.543-5.518,4.53c-1.596,2.007-4.354,3.099-7.484,3.099
						s-5.878-1.091-7.484-3.078c-1.606-2.007-3.418-3.696-5.569-4.591l-0.35-0.155C2.875,9.982,3.184,9.941,3.513,9.93h0.062
						C4.192,9.961,4.8,9.992,5.366,10.013h0.031c19.075,0.813,14.371-0.731,22.987-0.093c0.154,0.01,0.319,0.031,0.494,0.041h0.01
						C29.084,9.982,29.269,10.013,29.444,10.064z"/>
				</g>
			</g>
			<g>
				<g>
					<g>
						<path class="st3" d="M13.73,19.73c0,1.033-0.771,1.864-1.724,1.864c-0.944,0-1.715-0.831-1.715-1.864
							c0-1.041,0.771-1.872,1.715-1.872C12.96,17.857,13.73,18.689,13.73,19.73z"/>
					</g>
					<g>
						<path class="st2" d="M12.858,19.513c-0.148,0.069-0.345-0.049-0.444-0.256c-0.099-0.217-0.049-0.444,0.099-0.513
							c0.158-0.069,0.355,0.049,0.454,0.266C13.066,19.217,13.016,19.444,12.858,19.513z"/>
					</g>
				</g>
				<g>
					<g>
						<path class="st3" d="M21.708,19.73c0,1.033-0.771,1.864-1.724,1.864c-0.944,0-1.715-0.831-1.715-1.864
							c0-1.041,0.771-1.872,1.715-1.872C20.937,17.857,21.708,18.689,21.708,19.73z"/>
					</g>
					<g>
						<path class="st2" d="M21.027,19.513c-0.148,0.069-0.345-0.049-0.444-0.256c-0.099-0.217-0.049-0.444,0.099-0.513
							c0.158-0.069,0.355,0.049,0.454,0.266C21.234,19.217,21.184,19.444,21.027,19.513z"/>
					</g>
				</g>
			</g>
			<g>
				<g>
					<path class="st3" d="M21.78,24.622c0.027,2.397-2.373,4.881-5.781,4.872c-3.407,0.01-5.809-2.473-5.79-4.873
						c-0.003-0.407,0.488-0.615,0.836-0.391c2.93,1.963,6.977,1.963,9.907-0.002C21.3,24.005,21.791,24.212,21.78,24.622z"/>
				</g>
				<path class="st8" d="M11.526,24.5c0.611,1.547,2.324,2.396,4.473,2.388c2.147,0.007,3.861-0.842,4.47-2.388
					C17.748,26.073,14.248,26.073,11.526,24.5z"/>
			</g>
		</g>
	</g>
	<g>
		<path class="st6" d="M18.666,28.934c-0.782,0.35-1.678,0.556-2.666,0.556c-0.988,0-1.894-0.206-2.677-0.566
			c0.062-0.134,0.124-0.268,0.206-0.391c0.309-0.453,0.834-0.659,1.359-0.618c0.052,0.01,0.113,0.01,0.175,0.01
			c0.35,0,0.659-0.072,0.916-0.206c0.669-0.319,1.441-0.288,1.997,0.237C18.275,28.224,18.502,28.564,18.666,28.934z"/>
		<g class="st10">
			<path class="st8" d="M17.692,28.385c-0.048,0.123-0.279,0.164-0.53,0.072c-0.241-0.092-0.414-0.266-0.366-0.399
				c0.038-0.133,0.27-0.164,0.52-0.072C17.567,28.068,17.731,28.252,17.692,28.385z"/>
		</g>
	</g>
</g>
</svg>
