<?xml version="1.0" encoding="utf-8"?>
<!-- Generator: Adobe Illustrator 21.1.0, SVG Export Plug-In . SVG Version: 6.00 Build 0)  -->
<svg version="1.1" id="Layer_1" xmlns="http://www.w3.org/2000/svg" xmlns:xlink="http://www.w3.org/1999/xlink" x="0px" y="0px"
	 viewBox="0 0 32 32" style="enable-background:new 0 0 32 32;" xml:space="preserve">
<style type="text/css">
	.st0{fill:#DEE4E9;}
	.st1{fill:#CBD6E0;}
	.st2{fill:#5A5F63;}
	.st3{fill:#3E4347;}
	.st4{fill:#F2F8FC;}
	.st5{fill:#E9EFF4;}
	.st6{fill:#E24B4B;}
	.st7{fill:none;stroke:#E9B02C;stroke-width:1.4;stroke-linecap:round;stroke-linejoin:round;stroke-miterlimit:10;}
	.st8{fill:#FFFFFF;}
	.st9{fill:#D3D9DD;}
	.st10{opacity:0.2;}
	.st11{fill:#FFD93B;}
	.st12{fill:#32373A;}
	.st13{fill:#F4C534;}
	.st14{fill:#7A5B44;}
	.st15{fill:#6B503B;}
	.st16{fill:#65B1EF;}
	.st17{fill:#D03F3F;}
	.st18{fill:#E84D88;}
	.st19{fill:none;}
	.st20{fill:#8CC63E;}
	.st21{fill:#7FB239;}
	.st22{opacity:0.3;}
	.st23{fill:#89664C;}
	.st24{fill:#846144;}
	.st25{fill:#E88EA7;}
	.st26{fill:#FC97B2;}
	.st27{fill:#8F6D52;}
</style>
<g>
	<g>
		<g>
			<g>
				<path class="st11" d="M5.978,18.874c0,2.064-1.004,3.737-2.243,3.737c-1.321,0-2.243-1.673-2.243-3.737s0.921-3.737,2.243-3.737
					C4.974,15.137,5.978,16.81,5.978,18.874z"/>
			</g>
		</g>
		<g>
			<g>
				<path class="st13" d="M30.508,18.874c0,2.064-1.004,3.737-2.243,3.737c-1.321,0-2.243-1.673-2.243-3.737
					s0.921-3.737,2.243-3.737C29.503,15.137,30.508,16.81,30.508,18.874z"/>
			</g>
		</g>
	</g>
	<g>
		<g>
			<g>
				<g>
					<g>
						<g>
							<g>
								<g>
									<g>
										<g>
											<g>
												<g>
													<g>
														<g>
															<g>
																<g>
																	<g>
																		<g>
																			<g>
																				<path class="st11" d="M28.571,18.269C28.571,25.856,22.937,32,16,32C9.055,32,3.429,25.856,3.429,18.269
																					C3.429,10.691,9.055,4.538,16,4.538C22.937,4.538,28.571,10.691,28.571,18.269z"/>
																			</g>
																		</g>
																	</g>
																</g>
															</g>
														</g>
													</g>
													<g>
														<g>
															<g>
																<g>
																	<g>
																		<g>
																			<g>
																				<path class="st13" d="M28.571,18.269C28.571,25.856,22.937,32,16,32c-3.96,0-7.495-2-9.789-5.123
																					c2.153,1.888,4.879,3.012,7.857,3.012c6.937,0,12.57-6.145,12.57-13.731c0-3.253-1.029-6.23-2.765-8.582
																					C26.74,10.091,28.571,13.944,28.571,18.269z"/>
																			</g>
																		</g>
																	</g>
																</g>
															</g>
														</g>
													</g>
												</g>
											</g>
										</g>
									</g>
								</g>
							</g>
						</g>
					</g>
				</g>
			</g>
		</g>
	</g>
	<g>
		<g>
			<path class="st24" d="M3.993,10.493c-0.237,0.855-0.41,1.732-0.465,2.576c-0.32,4.876,0.273,6.441,0.343,6.72l0,0
				c0.165-0.343,1.39-2.298,1.838-4.943c0.506-2.985,4.492-4.951,4.492-4.951S9.18,10.742,8.974,12.17c0,0,3.196-1.83,6.778-2.097
				l-0.847,1.455c11.631-4.913,12.07,2.864,13.07,8.26l0,0c0.374-1.385,2.489-11.445-1.001-14.962
				c-0.713-0.718-1.86-0.681-2.767-0.338c-0.094,0.035-0.185,0.085-0.277,0.135C21.402-2.648,7.649-1.811,3.993,10.493z"/>
		</g>
	</g>
	<g>
		<g>
			<g>
				<g>
					
						<ellipse transform="matrix(0.8478 -0.5302 0.5302 0.8478 -7.4443 8.7248)" class="st3" cx="11.48" cy="17.334" rx="2.075" ry="2.075"/>
				</g>
			</g>
			<g>
				<g>
					<path class="st2" d="M12.678,16.992c-0.147,0.13-0.404,0.063-0.583-0.142c-0.169-0.21-0.193-0.481-0.046-0.61
						c0.147-0.13,0.404-0.063,0.582,0.142C12.801,16.592,12.824,16.862,12.678,16.992z"/>
				</g>
			</g>
		</g>
		<g>
			<g>
				<g>
					
						<ellipse transform="matrix(0.8478 -0.5302 0.5302 0.8478 -6.0689 13.5176)" class="st3" cx="20.519" cy="17.334" rx="2.075" ry="2.075"/>
				</g>
			</g>
			<g>
				<g>
					<path class="st2" d="M21.717,16.992c-0.147,0.13-0.404,0.063-0.583-0.142c-0.169-0.21-0.193-0.481-0.046-0.61
						c0.147-0.13,0.404-0.063,0.582,0.142C21.84,16.592,21.863,16.862,21.717,16.992z"/>
				</g>
			</g>
		</g>
	</g>
	<g>
		<g>
			<path class="st3" d="M15.772,27.511c-2.346,0-4.555-1.3-5.67-3.456c-0.218-0.421-0.053-0.939,0.368-1.156
				c0.422-0.22,0.939-0.053,1.156,0.368c0.979,1.894,3.113,2.884,5.189,2.41c0.201-0.046,0.409-0.112,0.657-0.21
				c0.441-0.174,0.939,0.044,1.113,0.485c0.174,0.441-0.044,0.939-0.485,1.113c-0.33,0.129-0.616,0.22-0.903,0.285
				C16.722,27.458,16.244,27.511,15.772,27.511z"/>
		</g>
	</g>
</g>
</svg>
