<?xml version="1.0" encoding="utf-8"?>
<!-- Generator: Adobe Illustrator 21.1.0, SVG Export Plug-In . SVG Version: 6.00 Build 0)  -->
<svg version="1.1" id="Layer_1" xmlns="http://www.w3.org/2000/svg" xmlns:xlink="http://www.w3.org/1999/xlink" x="0px" y="0px"
	 viewBox="0 0 32 32" style="enable-background:new 0 0 32 32;" xml:space="preserve">
<style type="text/css">
	.st0{fill:#DEE4E9;}
	.st1{fill:#CBD6E0;}
	.st2{fill:#5A5F63;}
	.st3{fill:#3E4347;}
	.st4{fill:#F2F8FC;}
	.st5{fill:#E9EFF4;}
	.st6{fill:#E24B4B;}
	.st7{fill:none;stroke:#E9B02C;stroke-width:1.4;stroke-linecap:round;stroke-linejoin:round;stroke-miterlimit:10;}
	.st8{fill:#FFFFFF;}
	.st9{fill:#D3D9DD;}
	.st10{opacity:0.2;}
	.st11{fill:#FFD93B;}
	.st12{fill:#32373A;}
	.st13{fill:#F4C534;}
	.st14{fill:#7A5B44;}
	.st15{fill:#6B503B;}
	.st16{fill:#65B1EF;}
	.st17{fill:#D03F3F;}
	.st18{fill:#E84D88;}
	.st19{fill:none;}
	.st20{fill:#8CC63E;}
	.st21{fill:#7FB239;}
	.st22{opacity:0.3;}
	.st23{fill:#89664C;}
	.st24{fill:#846144;}
	.st25{fill:#E88EA7;}
	.st26{fill:#FC97B2;}
	.st27{fill:#8F6D52;}
</style>
<g>
	<g>
		<g>
			<g>
				<path class="st24" d="M28.404,9.916l1.068,17.802c0.098,1.641,0.836,3.178,2.055,4.282l0,0l0,0
					c-4.846,0-9.464-2.059-12.703-5.664l-0.252-0.28C18.572,26.055,14.701,8.804,28.404,9.916z"/>
			</g>
			<g>
				<path class="st24" d="M3.596,9.916L2.528,27.718C2.43,29.359,1.692,30.896,0.473,32l0,0l0,0c4.846,0,9.464-2.059,12.703-5.664
					l0.252-0.28C13.428,26.055,17.299,8.804,3.596,9.916z"/>
			</g>
		</g>
		<g>
			<g>
				<g>
					<g>
						<path class="st11" d="M6.042,18.231c0,2.051-0.998,3.713-2.228,3.713c-1.313,0-2.228-1.662-2.228-3.713
							c0-2.05,0.915-3.713,2.228-3.713C5.045,14.518,6.042,16.18,6.042,18.231z"/>
					</g>
				</g>
				<g>
					<g>
						<path class="st13" d="M30.414,18.231c0,2.051-0.998,3.713-2.228,3.713c-1.313,0-2.228-1.662-2.228-3.713
							c0-2.05,0.916-3.713,2.228-3.713C29.417,14.518,30.414,16.18,30.414,18.231z"/>
					</g>
				</g>
			</g>
			<g>
				<g>
					<g>
						<g>
							<g>
								<g>
									<g>
										<g>
											<g>
												<g>
													<g>
														<g>
															<g>
																<g>
																	<g>
																		<g>
																			<g>
																				<g>
																					<g>
																						<path class="st11" d="M28.49,17.63c0,7.538-5.597,13.643-12.49,13.643c-6.901,0-12.49-6.105-12.49-13.643
																							C3.51,10.101,9.099,3.987,16,3.987C22.893,3.987,28.49,10.101,28.49,17.63z"/>
																					</g>
																				</g>
																			</g>
																		</g>
																	</g>
																</g>
															</g>
															<g>
																<g>
																	<g>
																		<g>
																			<g>
																				<g>
																					<g>
																						<path class="st13" d="M28.49,17.63c0,7.538-5.597,13.643-12.49,13.643c-3.934,0-7.447-1.987-9.727-5.09
																							c2.139,1.876,4.848,2.993,7.806,2.993c6.893,0,12.49-6.105,12.49-13.643c0-3.232-1.023-6.19-2.748-8.527
																							C26.671,9.504,28.49,13.332,28.49,17.63z"/>
																					</g>
																				</g>
																			</g>
																		</g>
																	</g>
																</g>
															</g>
														</g>
													</g>
												</g>
											</g>
										</g>
									</g>
								</g>
							</g>
						</g>
					</g>
				</g>
			</g>
			<g>
				<g>
					<g>
						<g>
							
								<ellipse transform="matrix(0.8478 -0.5303 0.5303 0.8478 -7.1043 8.6443)" class="st3" cx="11.509" cy="16.7" rx="2.062" ry="2.062"/>
						</g>
					</g>
					<g>
						<g>
							<path class="st2" d="M12.699,16.361c-0.146,0.129-0.401,0.062-0.579-0.141c-0.168-0.209-0.192-0.478-0.046-0.606
								c0.146-0.129,0.401-0.062,0.579,0.141C12.821,15.963,12.845,16.232,12.699,16.361z"/>
						</g>
					</g>
				</g>
				<g>
					<g>
						<g>
							
								<ellipse transform="matrix(0.8478 -0.5303 0.5303 0.8478 -5.7376 13.4067)" class="st3" cx="20.49" cy="16.7" rx="2.062" ry="2.062"/>
						</g>
					</g>
					<g>
						<g>
							<path class="st2" d="M21.68,16.361c-0.146,0.129-0.401,0.062-0.579-0.141c-0.168-0.209-0.192-0.478-0.046-0.606
								c0.146-0.129,0.401-0.062,0.579,0.141C21.802,15.963,21.826,16.232,21.68,16.361z"/>
						</g>
					</g>
				</g>
			</g>
			<g>
				<g>
					<path class="st6" d="M15.774,26.812c-2.331,0-4.526-1.292-5.634-3.434c-0.216-0.418-0.052-0.933,0.366-1.149
						c0.42-0.219,0.933-0.053,1.149,0.366c0.973,1.882,3.093,2.866,5.155,2.394c0.199-0.045,0.406-0.112,0.652-0.208
						c0.438-0.172,0.933,0.043,1.105,0.482c0.172,0.438-0.043,0.933-0.482,1.105c-0.328,0.129-0.612,0.219-0.897,0.284
						C16.717,26.759,16.243,26.812,15.774,26.812z"/>
				</g>
			</g>
		</g>
		<g>
			<path class="st24" d="M17.08,9.563c0,0,2.233,2.642,6.337,4.004l-1.114-2.518c0,0,1.683,2.311,3.519,3.261
				c1.836,0.949,2.365,3.921,2.365,3.921s1.84-5.325-0.086-11.191C25.636-0.463,9.925-2.505,10.136,3.543
				c0,0-4.118-1.448-5.644,1.964c-2.266,5.067-0.288,12.724-0.288,12.724s0.377-3.178,1.672-4.746
				c1.295-1.568,1.373-2.889,1.373-2.889s0.52,0.66,0.139,1.61C7.389,12.205,9.815,6.261,17.08,9.563z"/>
		</g>
	</g>
	<g>
		<g>
			<g>
				<path class="st25" d="M13.837,4.86c-0.86,0.53-2.11,0.42-2.91,0.25c-0.34,0.77-0.99,1.82-1.92,2.19
					c-1.19,0.64-1.05-0.12-1.54-1.17c-0.56-1.02-1.25-1.36-0.03-1.94c0.86-0.53,2.12-0.42,2.91-0.24c0.33-0.76,0.98-1.83,1.92-2.2
					c1.19-0.64,1.06,0.12,1.54,1.17C14.367,3.94,15.057,4.28,13.837,4.86z"/>
			</g>
		</g>
		<g>
			<circle class="st26" cx="10.637" cy="4.525" r="1.178"/>
		</g>
	</g>
</g>
</svg>
