<?xml version="1.0" encoding="utf-8"?>
<!-- Generator: Adobe Illustrator 21.1.0, SVG Export Plug-In . SVG Version: 6.00 Build 0)  -->
<svg version="1.1" id="Layer_1" xmlns="http://www.w3.org/2000/svg" xmlns:xlink="http://www.w3.org/1999/xlink" x="0px" y="0px"
	 viewBox="0 0 32 32" style="enable-background:new 0 0 32 32;" xml:space="preserve">
<style type="text/css">
	.st0{fill:#DEE4E9;}
	.st1{fill:#CBD6E0;}
	.st2{fill:#5A5F63;}
	.st3{fill:#3E4347;}
	.st4{fill:#F2F8FC;}
	.st5{fill:#E9EFF4;}
	.st6{fill:#E24B4B;}
	.st7{fill:none;stroke:#E9B02C;stroke-width:1.4;stroke-linecap:round;stroke-linejoin:round;stroke-miterlimit:10;}
	.st8{fill:#FFFFFF;}
	.st9{fill:#D3D9DD;}
	.st10{opacity:0.2;}
	.st11{fill:#FFD93B;}
	.st12{fill:#32373A;}
	.st13{fill:#F4C534;}
	.st14{fill:#7A5B44;}
	.st15{fill:#6B503B;}
	.st16{fill:#65B1EF;}
	.st17{fill:#D03F3F;}
	.st18{fill:#E84D88;}
	.st19{fill:none;}
	.st20{fill:#8CC63E;}
	.st21{fill:#7FB239;}
	.st22{opacity:0.3;}
	.st23{fill:#89664C;}
	.st24{fill:#846144;}
	.st25{fill:#E88EA7;}
	.st26{fill:#FC97B2;}
	.st27{fill:#8F6D52;}
</style>
<g>
	<g>
		<g>
			<g>
				<g>
					<g>
						<g>
							<g>
								<path class="st11" d="M6.441,19.482c0,1.968-0.958,3.564-2.139,3.564c-1.26,0-2.139-1.596-2.139-3.564
									s0.879-3.564,2.139-3.564C5.483,15.918,6.441,17.514,6.441,19.482z"/>
							</g>
						</g>
						<g>
							<g>
								<path class="st13" d="M29.837,19.482c0,1.968-0.958,3.564-2.139,3.564c-1.26,0-2.139-1.596-2.139-3.564
									s0.879-3.564,2.139-3.564C28.879,15.918,29.837,17.514,29.837,19.482z"/>
							</g>
						</g>
					</g>
					<g>
						<g>
							<g>
								<g>
									<g>
										<g>
											<g>
												<g>
													<g>
														<g>
															<g>
																<g>
																	<g>
																		<g>
																			<g>
																				<g>
																					<g>
																						<g>
																							<g>
																								<path class="st11" d="M27.99,18.905c0,7.236-5.373,13.096-11.99,13.096c-6.624,0-11.99-5.861-11.99-13.096
																									C4.01,11.678,9.376,5.809,16,5.809C22.617,5.809,27.99,11.678,27.99,18.905z"/>
																							</g>
																						</g>
																					</g>
																				</g>
																			</g>
																		</g>
																	</g>
																	<g>
																		<g>
																			<g>
																				<g>
																					<g>
																						<g>
																							<g>
																								<path class="st13" d="M27.99,18.905c0,7.236-5.373,13.096-11.99,13.096c-3.777,0-7.149-1.907-9.337-4.886
																									c2.053,1.801,4.653,2.873,7.493,2.873c6.617,0,11.99-5.861,11.99-13.096c0-3.102-0.982-5.942-2.638-8.185
																									C26.244,11.105,27.99,14.78,27.99,18.905z"/>
																							</g>
																						</g>
																					</g>
																				</g>
																			</g>
																		</g>
																	</g>
																	<g>
																		<path class="st3" d="M12.262,23.473c-0.354,0.543-0.572,1.162-0.572,1.83c0,2.069,1.935,3.747,4.321,3.747
																			s4.321-1.678,4.321-3.747c0-0.668-0.219-1.287-0.572-1.83H12.262z"/>
																	</g>
																</g>
															</g>
														</g>
													</g>
												</g>
											</g>
										</g>
									</g>
								</g>
							</g>
						</g>
					</g>
				</g>
			</g>
		</g>
		<g>
			<path class="st27" d="M25.307,22.053c-0.084-0.675-1.149,4.59-7.555,3.605c-0.669-0.103-1.288-0.436-1.742-0.939L16,24.707
				l-0.009,0.01c-0.453,0.503-1.072,0.837-1.741,0.94c-6.415,0.987-7.473-4.28-7.557-3.611c0.075-0.043,1.168,1.09,3.184,1.09
				c1.661-0.042,2.125-0.891,4.082-1.09C14.574,21.978,16,22.458,16,22.458s1.426-0.482,2.042-0.411
				c1.95,0.198,2.42,1.046,4.082,1.09C24.139,23.136,25.233,22.003,25.307,22.053z"/>
		</g>
		<path class="st6" d="M15.798,26.914c-0.237,0-0.447-0.041-0.631-0.113c-0.243-0.096-0.52-0.099-0.733,0.053
			c-0.484,0.346-0.84,0.849-1.014,1.431c0.724,0.473,1.614,0.765,2.59,0.765c0.978,0,1.87-0.293,2.595-0.768
			c-0.092-0.307-0.232-0.594-0.42-0.844c-0.447-0.594-1.232-0.76-1.953-0.576C16.099,26.896,15.955,26.914,15.798,26.914z"/>
		<g>
			<g>
				<g>
					<circle class="st3" cx="11.59" cy="17.919" r="2.001"/>
				</g>
				<g>
					<path class="st2" d="M12.674,17.51c-0.152,0.09-0.372-0.025-0.509-0.238c-0.129-0.224-0.115-0.468,0.027-0.556
						c0.152-0.09,0.371,0.015,0.508,0.228C12.829,17.168,12.817,17.422,12.674,17.51z"/>
				</g>
			</g>
			<g>
				<g>
					<circle class="st3" cx="20.41" cy="17.919" r="2.001"/>
				</g>
				<g>
					<path class="st2" d="M21.494,17.51c-0.152,0.09-0.372-0.025-0.509-0.238c-0.129-0.224-0.115-0.468,0.027-0.556
						c0.152-0.09,0.371,0.015,0.508,0.228C21.649,17.168,21.636,17.422,21.494,17.51z"/>
				</g>
			</g>
		</g>
	</g>
	<g>
		<path class="st27" d="M28.585,12.368l-0.61,5.97h-1.22l-0.24-3.07c0,0-2.23-0.6-2.71-3.6c0,0-9.19,3.22-14.71-1.41
			c0,0-2.84,1.24-2.84,3.91c0,2.68-1.39,4.17-1.39,4.17h-0.85l-0.61-5.97c-1.01-9.99,4.83-12.33,12.45-12.37h0.28
			C23.755,0.039,29.595,2.378,28.585,12.368z"/>
	</g>
</g>
</svg>
