<?xml version="1.0" encoding="utf-8"?>
<!-- Generator: Adobe Illustrator 21.1.0, SVG Export Plug-In . SVG Version: 6.00 Build 0)  -->
<svg version="1.1" id="Layer_1" xmlns="http://www.w3.org/2000/svg" xmlns:xlink="http://www.w3.org/1999/xlink" x="0px" y="0px"
	 viewBox="0 0 32 32" style="enable-background:new 0 0 32 32;" xml:space="preserve">
<style type="text/css">
	.st0{fill:#DEE4E9;}
	.st1{fill:#CBD6E0;}
	.st2{fill:#5A5F63;}
	.st3{fill:#3E4347;}
	.st4{fill:#F2F8FC;}
	.st5{fill:#E9EFF4;}
	.st6{fill:#E24B4B;}
	.st7{fill:none;stroke:#E9B02C;stroke-width:1.4;stroke-linecap:round;stroke-linejoin:round;stroke-miterlimit:10;}
	.st8{fill:#FFFFFF;}
	.st9{fill:#D3D9DD;}
	.st10{opacity:0.2;}
	.st11{fill:#FFD93B;}
	.st12{fill:#32373A;}
	.st13{fill:#F4C534;}
	.st14{fill:#7A5B44;}
	.st15{fill:#6B503B;}
	.st16{fill:#65B1EF;}
	.st17{fill:#D03F3F;}
	.st18{fill:#E84D88;}
	.st19{fill:none;}
	.st20{fill:#8CC63E;}
	.st21{fill:#7FB239;}
	.st22{opacity:0.3;}
	.st23{fill:#89664C;}
	.st24{fill:#846144;}
	.st25{fill:#E88EA7;}
	.st26{fill:#FC97B2;}
	.st27{fill:#8F6D52;}
</style>
<g>
	<g>
		<g>
			<g>
				<path class="st27" d="M26.228,31.707c-6.875-2.293-13.639-2.542-20.31-0.248c-2.314,0.796-4.73-0.867-4.73-3.313V14.811
					C1.189,6.631,7.82,0,16,0l0,0c8.18,0,14.812,6.631,14.812,14.811v13.531C30.812,30.723,28.487,32.46,26.228,31.707z"/>
			</g>
		</g>
		<g>
			<g>
				<g>
					<g>
						<g>
							<g>
								<g>
									<g>
										<g>
											<g>
												<g>
													<g>
														<g>
															<g>
																<g>
																	<g>
																		<g>
																			<g>
																				<g>
																					<g>
																						<g>
																							<g>
																								<g>
																									<g>
																										<g>
																											<path class="st11" d="M28.221,18.651C28.221,26.026,22.744,32,16,32C9.248,32,3.779,26.026,3.779,18.651
																												C3.779,11.284,9.248,5.302,16,5.302C22.744,5.302,28.221,11.284,28.221,18.651z"/>
																										</g>
																									</g>
																								</g>
																							</g>
																						</g>
																					</g>
																				</g>
																			</g>
																			<g>
																				<g>
																					<g>
																						<g>
																							<g>
																								<g>
																									<g>
																										<g>
																											<path class="st13" d="M26.14,18.958c-1.022,6.247-6.012,10.99-12.019,10.99
																												c-2.895,0-5.545-1.093-7.638-2.928C8.713,30.056,12.151,32,16,32c6.65,0,12.056-5.81,12.207-13.042
																												H26.14z"/>
																										</g>
																									</g>
																								</g>
																							</g>
																						</g>
																					</g>
																				</g>
																			</g>
																		</g>
																	</g>
																</g>
															</g>
														</g>
													</g>
												</g>
											</g>
										</g>
									</g>
								</g>
							</g>
						</g>
					</g>
				</g>
			</g>
		</g>
		<g>
			<g>
				<path class="st3" d="M16,28.105c-1.587,0-3.115-0.653-4.301-1.84c-0.299-0.299-0.299-0.782,0-1.081
					c0.299-0.299,0.782-0.299,1.081,0c1.794,1.794,4.641,1.796,6.438,0c0.299-0.299,0.782-0.299,1.081,0
					c0.299,0.299,0.299,0.783,0,1.081C19.112,27.452,17.585,28.105,16,28.105z"/>
			</g>
		</g>
		<g>
			<g>
				<g>
					<g>
						<g>
							<path class="st13" d="M29.729,19.239c0,2.006-0.94,3.633-2.1,3.633c-1.237,0-2.1-1.626-2.1-3.633
								c0-2.006,0.863-3.633,2.1-3.633C28.788,15.606,29.729,17.233,29.729,19.239z"/>
						</g>
					</g>
				</g>
			</g>
			<g>
				<g>
					<g>
						<g>
							<path class="st11" d="M6.472,19.239c0,2.006-0.94,3.633-2.1,3.633c-1.237,0-2.1-1.626-2.1-3.633
								c0-2.006,0.863-3.633,2.1-3.633C5.531,15.606,6.472,17.233,6.472,19.239z"/>
						</g>
					</g>
				</g>
			</g>
		</g>
		<g>
			<g>
				<path class="st27" d="M4.841,21.145c0,0,1.245-3.61,1.642-6.073c0.397-2.463,6.851,0.594,9.57-3.95
					c0,0,2.251,4.459,10.448,3.865l0.077,6.158l0,0c0,0,0.517-3.822,1.494-5.946c0.977-2.123,1.444-2.208,1.02-3.228
					c-0.425-1.019-3.483-5.946-5.436-7.093c-1.954-1.147-3.44-1.996-5.479-2.208c-2.039-0.212-3.185-0.85-5.224,0.382
					C10.915,4.284,8.706,6.45,7.602,7.767s-3.992,4.332-4.12,4.969c-0.127,0.637,0.617,2.87,0.617,2.87
					C4.791,16.843,4.847,18.951,4.841,21.145L4.841,21.145z"/>
			</g>
		</g>
	</g>
	<g>
		<g>
			<g>
				<g>
					<circle class="st3" cx="11.505" cy="19.569" r="2.04"/>
				</g>
			</g>
			<g>
				<g>
					<path class="st2" d="M12.61,19.152c-0.155,0.091-0.379-0.025-0.519-0.242c-0.131-0.228-0.117-0.477,0.028-0.567
						c0.155-0.091,0.378,0.016,0.517,0.233C12.768,18.804,12.755,19.063,12.61,19.152z"/>
				</g>
			</g>
		</g>
		<g>
			<g>
				<g>
					<circle class="st3" cx="20.495" cy="19.569" r="2.04"/>
				</g>
			</g>
			<g>
				<g>
					<path class="st2" d="M21.6,19.152c-0.155,0.091-0.379-0.025-0.519-0.242c-0.131-0.228-0.117-0.477,0.028-0.567
						c0.155-0.091,0.378,0.016,0.517,0.233C21.758,18.804,21.745,19.063,21.6,19.152z"/>
				</g>
			</g>
		</g>
	</g>
</g>
</svg>
