<?xml version="1.0" encoding="utf-8"?>
<!-- Generator: Adobe Illustrator 21.1.0, SVG Export Plug-In . SVG Version: 6.00 Build 0)  -->
<svg version="1.1" id="Layer_1" xmlns="http://www.w3.org/2000/svg" xmlns:xlink="http://www.w3.org/1999/xlink" x="0px" y="0px"
	 viewBox="0 0 32 32" style="enable-background:new 0 0 32 32;" xml:space="preserve">
<style type="text/css">
	.st0{fill:#DEE4E9;}
	.st1{fill:#CBD6E0;}
	.st2{fill:#5A5F63;}
	.st3{fill:#3E4347;}
	.st4{fill:#F2F8FC;}
	.st5{fill:#E9EFF4;}
	.st6{fill:#E24B4B;}
	.st7{fill:none;stroke:#E9B02C;stroke-width:1.4;stroke-linecap:round;stroke-linejoin:round;stroke-miterlimit:10;}
	.st8{fill:#FFFFFF;}
	.st9{fill:#D3D9DD;}
	.st10{opacity:0.2;}
	.st11{fill:#FFD93B;}
	.st12{fill:#32373A;}
	.st13{fill:#F4C534;}
	.st14{fill:#7A5B44;}
	.st15{fill:#6B503B;}
	.st16{fill:#65B1EF;}
	.st17{fill:#D03F3F;}
	.st18{fill:#E84D88;}
	.st19{fill:none;}
	.st20{fill:#8CC63E;}
	.st21{fill:#7FB239;}
	.st22{opacity:0.3;}
	.st23{fill:#89664C;}
	.st24{fill:#846144;}
	.st25{fill:#E88EA7;}
	.st26{fill:#FC97B2;}
	.st27{fill:#8F6D52;}
</style>
<g>
	<g>
		<g>
			<path class="st5" d="M29.809,10.744c0.413,4.539-5.759,8.422-13.809,8.422c-8.049,0-14.222-3.883-13.811-8.422
				c0.768-8.464,6.66-9.513,13.809-9.513C23.148,1.232,29.039,2.28,29.809,10.744z"/>
		</g>
	</g>
	<g>
		<g>
			<g>
				<path class="st11" d="M4.947,16.667c0,2.276-1.107,4.121-2.473,4.121C1.016,20.788,0,18.943,0,16.667s1.016-4.121,2.473-4.121
					C3.839,12.546,4.947,14.391,4.947,16.667z"/>
			</g>
		</g>
	</g>
	<g>
		<g>
			<g>
				<path class="st13" d="M32,16.667c0,2.276-1.107,4.121-2.474,4.121c-1.457,0-2.473-1.845-2.473-4.121s1.016-4.121,2.473-4.121
					C30.893,12.546,32,14.391,32,16.667z"/>
			</g>
		</g>
	</g>
	<g>
		<g>
			<g>
				<g>
					<g>
						<g>
							<g>
								<g>
									<g>
										<g>
											<g>
												<g>
													<g>
														<g>
															<path class="st11" d="M29.864,16c0,8.367-6.213,15.143-13.864,15.143C8.34,31.143,2.136,24.367,2.136,16
																C2.136,7.643,8.34,0.857,16,0.857C23.651,0.857,29.864,7.643,29.864,16z"/>
														</g>
													</g>
												</g>
											</g>
										</g>
									</g>
								</g>
							</g>
						</g>
					</g>
				</g>
			</g>
		</g>
	</g>
	<g>
		<g>
			<g>
				<g>
					<g>
						<g>
							<g>
								<g>
									<path class="st13" d="M29.864,16c0,8.367-6.213,15.143-13.864,15.143c-4.367,0-8.266-2.205-10.797-5.65
										c2.374,2.082,5.381,3.322,8.665,3.322c7.651,0,13.864-6.777,13.864-15.144c0-3.587-1.135-6.871-3.05-9.465
										C27.845,6.98,29.864,11.23,29.864,16z"/>
								</g>
							</g>
						</g>
					</g>
				</g>
			</g>
		</g>
	</g>
	<g>
		<g>
			<path class="st5" d="M29.598,11.321c0.011,0.312,0.023,0.636,0,0.948c0.011,0.127-0.06-0.655-0.072-0.539
				c-0.116,2.128-1.03,4.933-1.03,4.933c-0.219,0.903-0.818,1.35-0.818,0c0.012-0.416-0.069-0.925-0.185-1.48
				c-0.011-0.023-0.011-0.046-0.023-0.069c-0.035-0.162-0.069-0.335-0.116-0.497c0-0.012-0.012-0.023-0.012-0.035
				c-0.555-2.104-1.63-4.533-1.735-4.776c-0.011-0.012-0.011-0.023-0.011-0.023c-0.567-1.445-1.307-2.972-1.584-4.44
				c-0.173-0.937-0.382-1.873-0.74-2.752l-0.116-0.289l2.197,0.59l0.335,1.075c0.74,0.844,1.873,2.926,2.787,4.822
				C29.031,9.355,29.529,10.176,29.598,11.321z"/>
		</g>
	</g>
	<g>
		<g>
			<path class="st5" d="M2.4,11.321c-0.011,0.312-0.023,0.636,0,0.948c-0.011,0.127,0.06-0.655,0.072-0.539
				c0.116,2.128,1.03,4.933,1.03,4.933H4.32c-0.011-0.416,0.069-0.925,0.185-1.48c0.011-0.023,0.011-0.046,0.023-0.069
				c0.035-0.162,0.069-0.335,0.116-0.497c0-0.012,0.012-0.023,0.012-0.035c0.555-2.104,1.63-4.533,1.734-4.776
				c0.011-0.012,0.011-0.023,0.011-0.023c0.567-1.445,1.307-2.972,1.584-4.44c0.173-0.937,0.381-1.873,0.74-2.752l0.116-0.289
				l-2.197,0.59L6.309,3.966c-0.74,0.844-1.873,2.926-2.787,4.822C2.967,9.355,2.47,10.176,2.4,11.321z"/>
		</g>
	</g>
	<g>
		<g>
			<path class="st3" d="M16,26.417c-2.029,0-3.958-0.991-5.16-2.651c-0.281-0.388-0.194-0.931,0.194-1.211
				c0.387-0.282,0.929-0.195,1.21,0.194c0.89,1.229,2.258,1.934,3.755,1.934c1.496,0,2.864-0.705,3.753-1.934
				c0.28-0.389,0.824-0.474,1.211-0.194c0.389,0.281,0.475,0.823,0.194,1.211C19.957,25.426,18.028,26.417,16,26.417z"/>
		</g>
	</g>
	<g>
		<g>
			<g>
				<g>
					<path class="st13" d="M20.351,7.21c-2.887-0.953-5.813-0.953-8.703,0c-0.227,0.077-0.472-0.048-0.548-0.276
						c-0.075-0.227,0.049-0.473,0.277-0.548c3.066-1.012,6.177-1.013,9.245,0c0.228,0.075,0.351,0.32,0.277,0.548
						C20.821,7.167,20.571,7.284,20.351,7.21z"/>
				</g>
			</g>
		</g>
		<g>
			<g>
				<g>
					<path class="st13" d="M20.351,5.359c-2.887-0.953-5.813-0.953-8.703,0c-0.227,0.075-0.472-0.049-0.548-0.276
						c-0.075-0.227,0.049-0.473,0.277-0.548c3.066-1.012,6.177-1.013,9.245,0c0.228,0.075,0.351,0.32,0.277,0.548
						C20.821,5.317,20.571,5.433,20.351,5.359z"/>
				</g>
			</g>
		</g>
	</g>
	<g>
		<g>
			<g>
				<g>
					<g>
						<g>
							<path class="st8" d="M14.691,15.449c-0.201,2.277-2.055,4.331-5.111,4.66c-3.039,0.335-4.832-1.751-5.154-4.697
								c-0.076-3.116,2.965-4.144,5.124-3.786C11.721,11.716,14.662,13.021,14.691,15.449z"/>
						</g>
					</g>
				</g>
			</g>
			<g>
				<g>
					<g>
						<g>
							<path class="st8" d="M17.31,15.449c0.2,2.277,2.055,4.331,5.111,4.66c3.039,0.335,4.832-1.751,5.154-4.697
								c0.076-3.116-2.965-4.144-5.124-3.786C20.28,11.716,17.338,13.021,17.31,15.449z"/>
						</g>
					</g>
					<g>
						<g>
							<path class="st3" d="M26.82,12.164c-1.12-0.99-2.83-1.45-4.46-1.2c-0.924,0.055-2.014,0.324-2.992,0.82
								c-1.045,0.53-2.197,0.81-3.368,0.81l0,0c-1.171,0-2.324-0.28-3.369-0.81c-0.978-0.496-2.068-0.765-2.991-0.82
								c-1.63-0.25-3.33,0.21-4.46,1.2c-0.93,0.83-1.41,1.96-1.37,3.33c0.17,1.8,0.9,3.3,2.04,4.22c0.85,0.7,1.92,1.06,3.11,1.06
								c0.22,0,0.45-0.02,0.69-0.04c2.521-0.274,4.517-1.708,5.308-3.685c0.162-0.404,0.561-0.686,0.996-0.701
								c0.019-0.001,0.038-0.001,0.057-0.002c0.453-0.008,0.872,0.289,1.04,0.71c0.786,1.969,2.774,3.405,5.299,3.677
								c0.24,0.02,0.47,0.04,0.69,0.04c1.19,0,2.26-0.36,3.11-1.06c1.14-0.92,1.87-2.42,2.04-4.22
								C28.23,14.124,27.75,12.994,26.82,12.164z M9.51,19.484c-1.14,0.13-2.11-0.12-2.87-0.74c-0.88-0.71-1.44-1.91-1.58-3.33
								c-0.03-0.95,0.29-1.73,0.95-2.31c0.69-0.61,1.72-0.95,2.79-0.95c0.23,0,0.47,0.01,0.71,0.05c1.82,0.11,4.5,1.21,4.55,3.24
								C13.89,17.564,12.03,19.224,9.51,19.484z M25.36,18.744c-0.76,0.62-1.73,0.87-2.87,0.74c-2.52-0.26-4.38-1.92-4.55-4.04
								c0.05-2.03,2.74-3.13,4.55-3.24c0.24-0.04,0.48-0.05,0.71-0.05c1.07,0,2.1,0.34,2.79,0.95c0.66,0.58,0.98,1.36,0.95,2.31
								C26.8,16.834,26.24,18.034,25.36,18.744z"/>
						</g>
					</g>
				</g>
			</g>
		</g>
		<g>
			<g>
				<g>
					<g>
						<circle class="st3" cx="21.211" cy="16.162" r="1.777"/>
					</g>
				</g>
				<g>
					<g>
						<path class="st2" d="M22.174,15.798c-0.135,0.079-0.33-0.022-0.452-0.211c-0.114-0.199-0.102-0.416,0.024-0.494
							c0.135-0.079,0.329,0.014,0.451,0.203C22.311,15.495,22.3,15.72,22.174,15.798z"/>
					</g>
				</g>
			</g>
			<g>
				<g>
					<g>
						<circle class="st3" cx="10.788" cy="16.162" r="1.777"/>
					</g>
				</g>
				<g>
					<g>
						<path class="st2" d="M11.751,15.798c-0.135,0.079-0.33-0.022-0.452-0.211c-0.114-0.199-0.102-0.416,0.024-0.494
							c0.135-0.079,0.329,0.014,0.451,0.203C11.888,15.495,11.877,15.72,11.751,15.798z"/>
					</g>
				</g>
			</g>
		</g>
	</g>
</g>
</svg>
