<?xml version="1.0" encoding="utf-8"?>
<!-- Generator: Adobe Illustrator 21.1.0, SVG Export Plug-In . SVG Version: 6.00 Build 0)  -->
<svg version="1.1" id="Layer_1" xmlns="http://www.w3.org/2000/svg" xmlns:xlink="http://www.w3.org/1999/xlink" x="0px" y="0px"
	 viewBox="0 0 32 32" style="enable-background:new 0 0 32 32;" xml:space="preserve">
<style type="text/css">
	.st0{fill:#DEE4E9;}
	.st1{fill:#CBD6E0;}
	.st2{fill:#5A5F63;}
	.st3{fill:#3E4347;}
	.st4{fill:#F2F8FC;}
	.st5{fill:#E9EFF4;}
	.st6{fill:#E24B4B;}
	.st7{fill:none;stroke:#E9B02C;stroke-width:1.4;stroke-linecap:round;stroke-linejoin:round;stroke-miterlimit:10;}
	.st8{fill:#FFFFFF;}
	.st9{fill:#D3D9DD;}
	.st10{opacity:0.2;}
	.st11{fill:#FFD93B;}
	.st12{fill:#32373A;}
	.st13{fill:#F4C534;}
	.st14{fill:#7A5B44;}
	.st15{fill:#6B503B;}
	.st16{fill:#65B1EF;}
	.st17{fill:#D03F3F;}
	.st18{fill:#E84D88;}
	.st19{fill:none;}
	.st20{fill:#8CC63E;}
	.st21{fill:#7FB239;}
	.st22{opacity:0.3;}
	.st23{fill:#89664C;}
	.st24{fill:#846144;}
	.st25{fill:#E88EA7;}
	.st26{fill:#FC97B2;}
	.st27{fill:#8F6D52;}
</style>
<g>
	<g>
		<g>
			<g>
				<g>
					<g>
						<g>
							<g>
								<g>
									<g>
										<g>
											<g>
												<g>
													<g>
														<g>
															<g>
																<g>
																	<g>
																		<g>
																			<path class="st20" d="M32,16c0,8.84-7.17,16-16,16C7.16,32,0,24.84,0,16C0,7.17,7.16,0,16,0
																				C24.83,0,32,7.17,32,16z"/>
																		</g>
																	</g>
																</g>
															</g>
														</g>
													</g>
													<g>
														<g>
															<g>
																<g>
																	<g>
																		<g>
																			<path class="st3" d="M16.001,26.512c-2.122,0-4.167-0.94-5.914-2.72C9.7,23.397,9.706,22.764,10.1,22.377
																				c0.392-0.387,1.025-0.381,1.414,0.013c2.724,2.775,6.247,2.776,8.971,0c0.388-0.396,1.021-0.4,1.414-0.014
																				c0.395,0.387,0.4,1.02,0.014,1.414C20.167,25.571,18.122,26.512,16.001,26.512z"/>
																		</g>
																	</g>
																</g>
															</g>
														</g>
													</g>
													<g>
														<g>
															<g>
																<g>
																	<g>
																		<g>
																			<path class="st21" d="M32,16c0,8.84-7.17,16-16,16c-5.04,0-9.54-2.33-12.46-5.97c2.74,2.2,6.21,3.51,10,3.51
																				c8.83,0,16-7.16,16-16c0-3.79-1.31-7.26-3.52-10C29.67,6.47,32,10.96,32,16z"/>
																		</g>
																	</g>
																</g>
															</g>
														</g>
													</g>
												</g>
											</g>
										</g>
									</g>
								</g>
							</g>
						</g>
					</g>
				</g>
			</g>
		</g>
	</g>
	<g>
		<g>
			<g>
				<g>
					<g>
						<g>
							<path class="st3" d="M25.092,13.191c0.094,1.65-0.319,3.061-1.183,4.107c-0.849,1.032-2.118,1.686-3.73,1.87
								c-1.22,0.124-2.461-0.962-2.547-2.221c-0.212-3.31,1.694-5.632,4.906-5.969C23.773,10.854,25.021,11.932,25.092,13.191z"/>
						</g>
					</g>
					<g>
						<g>
							<path class="st2" d="M20.667,13.203c0.15,0.277,0.675,0.279,1.168,0.003c0.492-0.285,0.763-0.733,0.605-1.001
								c-0.159-0.277-0.684-0.278-1.168-0.003C20.779,12.478,20.508,12.926,20.667,13.203z"/>
						</g>
					</g>
				</g>
			</g>
		</g>
		<g>
			<g>
				<g>
					<g>
						<g>
							<path class="st3" d="M6.909,13.191c-0.095,1.65,0.319,3.061,1.183,4.107c0.849,1.032,2.118,1.686,3.73,1.87
								c1.22,0.124,2.461-0.962,2.547-2.221c0.212-3.31-1.694-5.632-4.906-5.969C8.227,10.854,6.979,11.932,6.909,13.191z"/>
						</g>
					</g>
					<g>
						<g>
							<path class="st2" d="M11.333,13.203c-0.15,0.277-0.675,0.279-1.168,0.003c-0.492-0.285-0.763-0.733-0.605-1.001
								c0.159-0.277,0.684-0.278,1.168-0.003C11.221,12.478,11.492,12.926,11.333,13.203z"/>
						</g>
					</g>
				</g>
			</g>
		</g>
	</g>
</g>
</svg>
