<?xml version="1.0" encoding="utf-8"?>
<!-- Generator: Adobe Illustrator 21.1.0, SVG Export Plug-In . SVG Version: 6.00 Build 0)  -->
<svg version="1.1" id="Layer_1" xmlns="http://www.w3.org/2000/svg" xmlns:xlink="http://www.w3.org/1999/xlink" x="0px" y="0px"
	 viewBox="0 0 32 32" style="enable-background:new 0 0 32 32;" xml:space="preserve">
<style type="text/css">
	.st0{fill:#DEE4E9;}
	.st1{fill:#CBD6E0;}
	.st2{fill:#5A5F63;}
	.st3{fill:#3E4347;}
	.st4{fill:#F2F8FC;}
	.st5{fill:#E9EFF4;}
	.st6{fill:#E24B4B;}
	.st7{fill:none;stroke:#E9B02C;stroke-width:1.4;stroke-linecap:round;stroke-linejoin:round;stroke-miterlimit:10;}
	.st8{fill:#FFFFFF;}
	.st9{fill:#D3D9DD;}
	.st10{opacity:0.2;}
	.st11{fill:#FFD93B;}
	.st12{fill:#32373A;}
	.st13{fill:#F4C534;}
	.st14{fill:#7A5B44;}
	.st15{fill:#6B503B;}
	.st16{fill:#65B1EF;}
	.st17{fill:#D03F3F;}
	.st18{fill:#E84D88;}
	.st19{fill:none;}
	.st20{fill:#8CC63E;}
	.st21{fill:#7FB239;}
	.st22{opacity:0.3;}
	.st23{fill:#89664C;}
	.st24{fill:#846144;}
	.st25{fill:#E88EA7;}
	.st26{fill:#FC97B2;}
	.st27{fill:#8F6D52;}
</style>
<g>
	<g>
		<g>
			<g>
				<g>
					<g>
						<g>
							<g>
								<g>
									<g>
										<g>
											<g>
												<path class="st20" d="M32,16c0,8.84-7.17,16-16,16C7.16,32,0,24.84,0,16C0,7.17,7.16,0,16,0C24.83,0,32,7.17,32,16z"/>
											</g>
										</g>
									</g>
								</g>
								<g>
									<g>
										<g>
											<g>
												<path class="st21" d="M32,16c0,8.84-7.17,16-16,16c-5.04,0-9.54-2.33-12.46-5.97c2.74,2.2,6.21,3.51,10,3.51
													c8.83,0,16-7.16,16-16c0-3.79-1.31-7.26-3.52-10C29.67,6.47,32,10.96,32,16z"/>
											</g>
										</g>
									</g>
								</g>
							</g>
						</g>
					</g>
				</g>
			</g>
		</g>
		<g>
			<g>
				<g>
					<g>
						<g>
							<g>
								<path class="st3" d="M13.429,13.358c0,1.549-1.001,2.802-2.219,2.802c-1.227,0-2.219-1.253-2.219-2.802
									c0-1.549,0.992-2.802,2.219-2.802C12.429,10.557,13.429,11.81,13.429,13.358z"/>
							</g>
						</g>
					</g>
					<g>
						<g>
							<g>
								<path class="st21" d="M6.526,11.141c-0.322,0-0.602-0.239-0.644-0.567c-0.046-0.356,0.205-0.682,0.562-0.727
									c3.933-0.508,5.44-3.395,5.503-3.518c0.162-0.319,0.554-0.447,0.872-0.288c0.32,0.161,0.45,0.549,0.29,0.87
									c-0.073,0.147-1.857,3.625-6.499,4.225C6.582,11.139,6.553,11.141,6.526,11.141z"/>
							</g>
						</g>
					</g>
				</g>
				<g>
					<g>
						<path class="st2" d="M12.49,12.727c-0.19,0.099-0.454-0.061-0.607-0.345c-0.153-0.284-0.133-0.598,0.047-0.697
							c0.181-0.09,0.454,0.061,0.607,0.345C12.691,12.314,12.671,12.627,12.49,12.727z"/>
					</g>
				</g>
			</g>
			<g>
				<g>
					<g>
						<g>
							<g>
								<path class="st21" d="M25.403,11.141c0.322,0,0.602-0.239,0.644-0.567c0.046-0.356-0.205-0.682-0.562-0.727
									c-3.933-0.508-5.44-3.395-5.503-3.518c-0.162-0.319-0.554-0.447-0.872-0.288c-0.32,0.161-0.45,0.549-0.29,0.87
									c0.073,0.147,1.857,3.625,6.499,4.225C25.347,11.139,25.375,11.141,25.403,11.141z"/>
							</g>
						</g>
					</g>
				</g>
			</g>
		</g>
		<g>
			<g>
				<path class="st21" d="M8.447,22.02c0.39,1.12,0.09,2.25-0.68,2.52c-0.76,0.26-1.7-0.42-2.09-1.54c-0.4-1.12-0.09-2.24,0.67-2.51
					C7.117,20.22,8.047,20.91,8.447,22.02z"/>
			</g>
			<g>
				<path class="st21" d="M26.257,23c-0.4,1.12-1.33,1.8-2.1,1.54c-0.76-0.27-1.07-1.4-0.67-2.52c0.39-1.11,1.33-1.8,2.09-1.53
					C26.347,20.76,26.647,21.88,26.257,23z"/>
			</g>
		</g>
		<g>
			<path class="st3" d="M19.01,24c0.617,0.262,1.143-0.669,0.738-1.299c-0.89-1.382-2.257-2.27-3.801-2.27
				c-1.464,0-2.768,0.798-3.659,2.059c-0.464,0.658,0.053,1.626,0.722,1.345C14.948,23.02,16.951,23.126,19.01,24z"/>
		</g>
		<g>
			<g>
				<path class="st3" d="M19.366,25.317c-0.451-0.897-0.475-2.013-0.065-3.062c0.5-1.277,1.573-2.205,2.735-2.363
					c0.273-0.035,0.525,0.154,0.563,0.428c0.037,0.274-0.154,0.525-0.428,0.563c-0.808,0.11-1.568,0.792-1.938,1.736
					c-0.303,0.774-0.292,1.614,0.027,2.249c0.124,0.247,0.024,0.547-0.222,0.671C19.793,25.662,19.491,25.566,19.366,25.317z"/>
			</g>
			<g>
				<g>
					<path class="st3" d="M11.963,25.539c-0.247-0.124-0.346-0.425-0.222-0.671c0.319-0.635,0.33-1.475,0.027-2.249
						c-0.37-0.944-1.13-1.626-1.938-1.736c-0.274-0.038-0.465-0.289-0.428-0.563c0.037-0.274,0.287-0.462,0.563-0.428
						c1.162,0.158,2.235,1.085,2.735,2.363c0.41,1.049,0.386,2.165-0.065,3.062C12.509,25.566,12.207,25.662,11.963,25.539z"/>
				</g>
			</g>
		</g>
	</g>
	<g>
		<g>
			<g>
				<g>
					<path class="st3" d="M22.937,13.358c0,1.549-1.001,2.802-2.219,2.802c-1.227,0-2.219-1.253-2.219-2.802
						c0-1.549,0.992-2.802,2.219-2.802C21.936,10.557,22.937,11.81,22.937,13.358z"/>
				</g>
			</g>
		</g>
		<g>
			<g>
				<path class="st2" d="M21.998,12.727c-0.189,0.099-0.454-0.061-0.607-0.345c-0.153-0.284-0.133-0.598,0.048-0.697
					c0.181-0.09,0.454,0.061,0.607,0.345C22.199,12.314,22.179,12.627,21.998,12.727z"/>
			</g>
		</g>
	</g>
</g>
</svg>
