<?xml version="1.0" encoding="utf-8"?>
<!-- Generator: Adobe Illustrator 21.1.0, SVG Export Plug-In . SVG Version: 6.00 Build 0)  -->
<svg version="1.1" id="Layer_1" xmlns="http://www.w3.org/2000/svg" xmlns:xlink="http://www.w3.org/1999/xlink" x="0px" y="0px"
	 viewBox="0 0 32 32" style="enable-background:new 0 0 32 32;" xml:space="preserve">
<style type="text/css">
	.st0{fill:#DEE4E9;}
	.st1{fill:#CBD6E0;}
	.st2{fill:#5A5F63;}
	.st3{fill:#3E4347;}
	.st4{fill:#F2F8FC;}
	.st5{fill:#E9EFF4;}
	.st6{fill:#E24B4B;}
	.st7{fill:none;stroke:#E9B02C;stroke-width:1.4;stroke-linecap:round;stroke-linejoin:round;stroke-miterlimit:10;}
	.st8{fill:#FFFFFF;}
	.st9{fill:#D3D9DD;}
	.st10{opacity:0.2;}
	.st11{fill:#FFD93B;}
	.st12{fill:#32373A;}
	.st13{fill:#F4C534;}
	.st14{fill:#7A5B44;}
	.st15{fill:#6B503B;}
	.st16{fill:#65B1EF;}
	.st17{fill:#D03F3F;}
	.st18{fill:#E84D88;}
	.st19{fill:none;}
	.st20{fill:#8CC63E;}
	.st21{fill:#7FB239;}
	.st22{opacity:0.3;}
	.st23{fill:#89664C;}
	.st24{fill:#846144;}
	.st25{fill:#E88EA7;}
	.st26{fill:#FC97B2;}
	.st27{fill:#8F6D52;}
</style>
<g>
	<g>
		<g>
			<g>
				<g>
					<g>
						<g>
							<g>
								<g>
									<g>
										<g>
											<g>
												<g>
													<g>
														<g>
															<g>
																<g>
																	<g>
																		<g>
																			<g>
																				<path class="st6" d="M31.616,16.384C31.616,25.012,24.618,32,16,32C7.372,32,0.384,25.012,0.384,16.384
																					C0.384,7.766,7.372,0.768,16,0.768C24.618,0.768,31.616,7.766,31.616,16.384z"/>
																			</g>
																		</g>
																	</g>
																</g>
															</g>
															<g>
																<g>
																	<g>
																		<g>
																			<g>
																				<path class="st17" d="M31.616,16.384C31.616,25.012,24.618,32,16,32c-4.919,0-9.311-2.274-12.161-5.827
																					c2.674,2.147,6.061,3.426,9.76,3.426c8.618,0,15.616-6.988,15.616-15.616c0-3.699-1.279-7.086-3.436-9.76
																					C29.342,7.083,31.616,11.465,31.616,16.384z"/>
																			</g>
																		</g>
																	</g>
																</g>
															</g>
														</g>
													</g>
												</g>
											</g>
										</g>
									</g>
								</g>
							</g>
						</g>
					</g>
				</g>
			</g>
		</g>
		<g>
			<g>
				<path class="st3" d="M21.546,26.681c-3.62-1.445-7.471-1.444-11.092,0c-0.692,0.282-1.384-0.372-1.276-1.118
					c0.304-3.655,3.619-2.939,6.822-2.448c3.203-0.493,6.518-1.207,6.821,2.448C22.93,26.309,22.238,26.963,21.546,26.681z"/>
			</g>
			<g>
				<g>
					<path class="st8" d="M22.367,23.96c-0.28-0.499-0.719-0.834-1.25-1.016c-0.045,0.518-0.273,1.319-0.618,2.039
						c-0.071,0.175-0.161,0.346-0.251,0.495c-0.082,0.126-0.038,0.29,0.085,0.358c0.008,0.013,0.017,0.016,0.017,0.016
						c0.107,0.053,0.228,0.027,0.31-0.043c0.217-0.196,0.635-0.586,1.123-1.163C21.948,24.456,22.194,24.195,22.367,23.96z"/>
				</g>
				<g>
					<path class="st8" d="M9.652,23.929c0.172,0.236,0.4,0.525,0.565,0.717c0.487,0.577,0.906,0.967,1.123,1.163
						c0.082,0.071,0.203,0.094,0.309,0.043c-0.001-0.001,0.01-0.002,0.017-0.016c0.122-0.068,0.168-0.229,0.085-0.358
						c-0.09-0.149-0.179-0.32-0.251-0.495c-0.345-0.721-0.578-1.517-0.622-2.037C10.377,23.122,9.931,23.431,9.652,23.929z"/>
				</g>
			</g>
			<g>
				<path class="st8" d="M13.857,23.929c0.025-0.09-0.073-0.179-0.206-0.205c-0.01-0.007-0.021-0.008-0.021-0.008
					c-0.113-0.017-0.212,0.009-0.26,0.061c-0.122,0.142-0.339,0.443-0.49,0.957c-0.107,0.332-0.185,0.767-0.232,1.265
					c0.46-0.108,0.923-0.193,1.387-0.254c-0.111-0.509-0.211-1.041-0.204-1.453C13.822,24.16,13.833,24.032,13.857,23.929z"/>
				<path class="st8" d="M19.355,26c-0.1-1.275-0.502-2.002-0.721-2.223c-0.057-0.052-0.157-0.078-0.26-0.06
					c-0.01,0-0.01,0-0.031,0.008c-0.134,0.027-0.221,0.114-0.196,0.205c0.099,0.431-0.034,1.138-0.184,1.816
					C18.43,25.807,18.893,25.891,19.355,26z"/>
			</g>
		</g>
		<g>
			<g>
				<path class="st17" d="M17.702,16.758c0,4.333-0.764,4.713-1.702,4.713c-0.938,0-1.702-0.379-1.702-4.713
					c0-2.604,0.764-4.726,1.702-4.726C16.938,12.032,17.702,14.154,17.702,16.758z"/>
			</g>
			<g>
				<g>
					<circle class="st17" cx="17.136" cy="19.09" r="1.599"/>
				</g>
				<g>
					<circle class="st17" cx="14.864" cy="19.09" r="1.599"/>
				</g>
			</g>
		</g>
	</g>
	<g>
		<g>
			<g>
				<path class="st3" d="M21.808,5.389c0.643,0.416,1.48,0.954,2.236,1.44c1.643,1.056,2.995,2.541,3.74,4.346
					c0.069,0.167,0.13,0.332,0.183,0.494c2.254-3.31,2.61-8.18,2.183-10.313c-0.355-1.919-1.878-1.519-1.859-0.527
					C27.926,3.914,23.934,4.948,21.808,5.389z"/>
			</g>
			<g>
				<path class="st17" d="M21.04,5.253c1.269,0.102,3.646,1.158,5.155,2.837c1.317,1.375,2.224,3.301,2.285,5.419
					c-0.493-1-1.402-3.108-3.017-4.738C24.475,7.627,22.341,6.022,21.04,5.253z"/>
			</g>
		</g>
		<g>
			<g>
				<path class="st3" d="M10.192,5.389c-0.643,0.416-1.48,0.954-2.236,1.44c-1.643,1.056-2.995,2.541-3.74,4.346
					c-0.069,0.167-0.131,0.332-0.183,0.494c-2.254-3.31-2.61-8.18-2.183-10.313c0.355-1.919,1.878-1.519,1.858-0.527
					C4.074,3.914,8.066,4.948,10.192,5.389z"/>
			</g>
			<g>
				<path class="st17" d="M10.96,5.253C8.986,6.419,7.2,8.004,6.537,8.77c-1.615,1.63-2.525,3.738-3.017,4.738
					C3.581,11.392,4.5,9.452,5.805,8.09C7.294,6.432,9.672,5.356,10.96,5.253z"/>
			</g>
		</g>
	</g>
	<g>
		<g>
			<circle class="st8" cx="10.198" cy="14.754" r="3.24"/>
			<g>
				<g>
					<ellipse class="st3" cx="10.198" cy="14.752" rx="1.756" ry="1.752"/>
				</g>
				<g>
					<path class="st2" d="M11.118,14.395c-0.127,0.103-0.331,0.06-0.471-0.1c-0.139-0.151-0.15-0.371-0.023-0.474
						c0.118-0.111,0.331-0.069,0.47,0.091C11.234,14.073,11.244,14.284,11.118,14.395z"/>
				</g>
			</g>
		</g>
		<g>
			<circle class="st8" cx="21.802" cy="14.754" r="3.24"/>
			<g>
				<g>
					<ellipse class="st3" cx="21.802" cy="14.752" rx="1.756" ry="1.752"/>
				</g>
				<g>
					<path class="st2" d="M22.722,14.395c-0.127,0.103-0.331,0.06-0.471-0.1c-0.139-0.151-0.15-0.371-0.023-0.474
						c0.118-0.111,0.331-0.069,0.47,0.091C22.838,14.073,22.848,14.284,22.722,14.395z"/>
				</g>
			</g>
		</g>
	</g>
</g>
</svg>
