<?xml version="1.0" encoding="utf-8"?>
<!-- Generator: Adobe Illustrator 21.1.0, SVG Export Plug-In . SVG Version: 6.00 Build 0)  -->
<svg version="1.1" id="Layer_1" xmlns="http://www.w3.org/2000/svg" xmlns:xlink="http://www.w3.org/1999/xlink" x="0px" y="0px"
	 viewBox="0 0 32 32" style="enable-background:new 0 0 32 32;" xml:space="preserve">
<style type="text/css">
	.st0{fill:#DEE4E9;}
	.st1{fill:#CBD6E0;}
	.st2{fill:#5A5F63;}
	.st3{fill:#3E4347;}
	.st4{fill:#F2F8FC;}
	.st5{fill:#E9EFF4;}
	.st6{fill:#E24B4B;}
	.st7{fill:none;stroke:#E9B02C;stroke-width:1.4;stroke-linecap:round;stroke-linejoin:round;stroke-miterlimit:10;}
	.st8{fill:#FFFFFF;}
	.st9{fill:#D3D9DD;}
	.st10{opacity:0.2;}
	.st11{fill:#FFD93B;}
	.st12{fill:#32373A;}
	.st13{fill:#F4C534;}
	.st14{fill:#7A5B44;}
	.st15{fill:#6B503B;}
	.st16{fill:#65B1EF;}
	.st17{fill:#D03F3F;}
	.st18{fill:#E84D88;}
	.st19{fill:none;}
	.st20{fill:#8CC63E;}
	.st21{fill:#7FB239;}
	.st22{opacity:0.3;}
	.st23{fill:#89664C;}
	.st24{fill:#846144;}
	.st25{fill:#E88EA7;}
	.st26{fill:#FC97B2;}
	.st27{fill:#8F6D52;}
</style>
<g>
	<g>
		<g>
			<path class="st3" d="M29.367,1.232c-0.528-1.911-1.697-1.27-1.586-0.277c-0.081,3.642-4.743,4.767-6.476,5.059
				c0.578,1.016,1.726,1.859,2.476,2.736c0.823,0.964,1.529,1.979,2.062,3.131c0.136,0.295,0.26,0.592,0.376,0.892
				c0.759,0.29,1.479,0.168,2.067-0.652C30.649,8.826,30.004,3.419,29.367,1.232z"/>
		</g>
		<g>
			<path class="st3" d="M4.697,12.862c1.368-2.461,3.585-4.518,5.498-6.943C8.203,5.511,4.293,4.288,4.219,0.955
				c0.112-0.993-1.057-1.634-1.586,0.277C1.996,3.419,1.351,8.826,3.714,12.12C4.012,12.535,4.344,12.766,4.697,12.862z"/>
		</g>
	</g>
	<g>
		<g>
			<g>
				<g>
					<g>
						<g>
							<g>
								<g>
									<g>
										<g>
											<g>
												<g>
													<g>
														<g>
															<g>
																<g>
																	<path class="st6" d="M30.446,17.554C30.446,25.535,23.972,32,16,32C8.019,32,1.554,25.535,1.554,17.554
																		C1.554,9.582,8.019,3.108,16,3.108C23.972,3.108,30.446,9.582,30.446,17.554z"/>
																</g>
															</g>
														</g>
													</g>
												</g>
												<g>
													<g>
														<g>
															<g>
																<g>
																	<path class="st17" d="M30.446,17.554C30.446,25.535,23.972,32,16,32c-4.55,0-8.613-2.104-11.25-5.39
																		c2.474,1.986,5.607,3.169,9.029,3.169c7.972,0,14.446-6.465,14.446-14.446c0-3.422-1.183-6.555-3.178-9.029
																		C28.342,8.95,30.446,13.004,30.446,17.554z"/>
																</g>
															</g>
														</g>
													</g>
												</g>
											</g>
										</g>
									</g>
								</g>
							</g>
						</g>
					</g>
				</g>
			</g>
		</g>
	</g>
	<g>
		<g>
			<g>
				<g>
					<g>
						<circle class="st3" cx="20.689" cy="15.651" r="2.06"/>
					</g>
					<g>
						
							<ellipse transform="matrix(0.908 -0.4191 0.4191 0.908 -4.2743 10.4662)" class="st2" cx="21.688" cy="14.963" rx="0.328" ry="0.477"/>
					</g>
				</g>
			</g>
			<g>
				<path class="st3" d="M23.262,13.186c-0.911-0.834-2.143-1.135-3.156-0.763c-0.247,0.092-0.507,0.233-0.744,0.397
					c-0.414,0.287-0.696,0.712-0.873,1.183c-0.264,0.706-1.244,0.56-1.244-0.259c0-0.006,0-0.006,0-0.013
					c0-0.5,0.302-1.187,1.155-1.706c0.411-0.25,0.872-0.398,1.347-0.462C22.171,11.261,23.262,13.186,23.262,13.186z"/>
			</g>
		</g>
		<g>
			<g>
				<g>
					<g>
						<circle class="st3" cx="11.311" cy="15.651" r="2.06"/>
					</g>
					<g>
						
							<ellipse transform="matrix(0.4191 -0.908 0.908 0.4191 -7.5957 18.055)" class="st2" cx="10.311" cy="14.963" rx="0.477" ry="0.328"/>
					</g>
				</g>
			</g>
			<g>
				<path class="st3" d="M8.738,13.186c0.911-0.834,2.143-1.135,3.156-0.763c0.247,0.092,0.507,0.233,0.744,0.397
					c0.413,0.287,0.696,0.712,0.873,1.183c0.264,0.706,1.244,0.56,1.244-0.259c0-0.006,0-0.006,0-0.013
					c0-0.5-0.302-1.187-1.155-1.706c-0.411-0.25-0.873-0.398-1.347-0.462C9.829,11.261,8.738,13.186,8.738,13.186z"/>
			</g>
		</g>
	</g>
	<g>
		<path class="st3" d="M22.792,24.574c-1.514,2.11-3.986,3.469-6.782,3.469c-2.809,0-5.281-1.372-6.808-3.482
			c-0.401-0.557,0.142-1.307,0.79-1.1c4.116,1.281,8.115,1.255,12.011,0.026C22.662,23.266,23.206,24.017,22.792,24.574z"/>
	</g>
	<g>
		<g>
			<path class="st8" d="M20.945,25.176c-0.07,0.58-0.21,1.09-0.36,1.51c-0.2,0.59-0.44,1.02-0.57,1.24
				c-0.05,0.08-0.15,0.13-0.26,0.11c0,0-0.01,0-0.02-0.01c-0.13-0.03-0.22-0.16-0.19-0.29c0.03-0.15,0.05-0.32,0.05-0.49
				c0.07-1.09-0.28-2.44-0.46-3.07c0.63-0.11,1.26-0.24,1.89-0.41C21.045,24.016,21.035,24.456,20.945,25.176z"/>
		</g>
		<g>
			<path class="st8" d="M12.455,27.736c0.03,0.13-0.05,0.26-0.18,0.29c-0.02,0.01-0.02,0.01-0.03,0.01c-0.1,0.02-0.2-0.03-0.26-0.11
				c-0.23-0.38-0.76-1.37-0.93-2.75c-0.09-0.75-0.1-1.18-0.07-1.44c0.63,0.18,1.27,0.31,1.9,0.41
				C12.675,24.846,12.225,26.586,12.455,27.736z"/>
		</g>
	</g>
</g>
</svg>
