<?xml version="1.0" encoding="utf-8"?>
<!-- Generator: Adobe Illustrator 21.1.0, SVG Export Plug-In . SVG Version: 6.00 Build 0)  -->
<svg version="1.1" id="Layer_1" xmlns="http://www.w3.org/2000/svg" xmlns:xlink="http://www.w3.org/1999/xlink" x="0px" y="0px"
	 viewBox="0 0 32 32" style="enable-background:new 0 0 32 32;" xml:space="preserve">
<style type="text/css">
	.st0{fill:#DEE4E9;}
	.st1{fill:#CBD6E0;}
	.st2{fill:#5A5F63;}
	.st3{fill:#3E4347;}
	.st4{fill:#F2F8FC;}
	.st5{fill:#E9EFF4;}
	.st6{fill:#E24B4B;}
	.st7{fill:none;stroke:#E9B02C;stroke-width:1.4;stroke-linecap:round;stroke-linejoin:round;stroke-miterlimit:10;}
	.st8{fill:#FFFFFF;}
	.st9{fill:#D3D9DD;}
	.st10{opacity:0.2;}
	.st11{fill:#FFD93B;}
	.st12{fill:#32373A;}
	.st13{fill:#F4C534;}
	.st14{fill:#7A5B44;}
	.st15{fill:#6B503B;}
	.st16{fill:#65B1EF;}
	.st17{fill:#D03F3F;}
	.st18{fill:#E84D88;}
	.st19{fill:none;}
	.st20{fill:#8CC63E;}
	.st21{fill:#7FB239;}
	.st22{opacity:0.3;}
	.st23{fill:#89664C;}
	.st24{fill:#846144;}
	.st25{fill:#E88EA7;}
	.st26{fill:#FC97B2;}
	.st27{fill:#8F6D52;}
</style>
<g>
	<g>
		<g>
			<g>
				<g>
					<g>
						<path class="st6" d="M32,16c0,8.84-7.17,16-16,16C7.16,32,0,24.84,0,16C0,7.17,7.16,0,16,0C24.83,0,32,7.17,32,16z"/>
					</g>
				</g>
				<g>
					<g>
						<path class="st17" d="M32,16c0,8.84-7.17,16-16,16c-5.04,0-9.54-2.33-12.46-5.97c2.74,2.2,6.21,3.51,10,3.51
							c8.83,0,16-7.16,16-16c0-3.79-1.31-7.26-3.52-10C29.67,6.47,32,10.96,32,16z"/>
					</g>
				</g>
			</g>
		</g>
		<g>
			<g>
				<g>
					<g>
						<path class="st3" d="M12.717,12.847c-0.202,0-0.393-0.098-0.51-0.264C11.1,11.021,9.589,10.025,7.45,9.451
							C7.117,9.361,6.919,9.018,7.009,8.685c0.09-0.334,0.431-0.529,0.766-0.441c2.067,0.556,3.677,1.509,4.893,2.905l0.877-1.356
							c0.186-0.29,0.575-0.373,0.863-0.186c0.29,0.188,0.373,0.574,0.186,0.864l-1.352,2.09c-0.112,0.174-0.304,0.281-0.511,0.286
							C12.725,12.847,12.72,12.847,12.717,12.847z"/>
					</g>
				</g>
				<g>
					<g>
						<g>
							<ellipse class="st3" cx="10.138" cy="15.659" rx="2.526" ry="2.872"/>
						</g>
					</g>
				</g>
			</g>
			<g>
				<g>
					<g>
						<path class="st3" d="M19.283,12.847c-0.005,0-0.009,0-0.014,0c-0.207-0.004-0.398-0.112-0.512-0.286l-1.351-2.09
							c-0.187-0.29-0.104-0.677,0.186-0.864c0.289-0.188,0.677-0.104,0.864,0.186l0.875,1.355c1.217-1.395,2.826-2.349,4.894-2.904
							c0.335-0.091,0.676,0.107,0.766,0.441c0.09,0.333-0.108,0.676-0.441,0.766c-2.139,0.575-3.65,1.57-4.758,3.133
							C19.676,12.749,19.485,12.847,19.283,12.847z"/>
					</g>
				</g>
				<g>
					<g>
						<g>
							<ellipse class="st3" cx="21.862" cy="15.659" rx="2.526" ry="2.872"/>
						</g>
					</g>
				</g>
			</g>
		</g>
		<g>
			<g>
				<path class="st3" d="M20.601,25.089c-1.179-1.233-2.865-1.939-4.628-1.939s-3.449,0.707-4.628,1.939
					c-0.383,0.4-1.017,0.412-1.414,0.031c-0.399-0.382-0.413-1.015-0.031-1.414c1.555-1.625,3.768-2.556,6.073-2.556
					c2.306,0,4.519,0.932,6.073,2.556c0.382,0.399,0.368,1.032-0.031,1.414C21.618,25.501,20.984,25.489,20.601,25.089z"/>
			</g>
		</g>
	</g>
	<g>
		<path class="st2" d="M23.267,15.264c-0.216,0.087-0.491-0.094-0.621-0.406c-0.122-0.313-0.053-0.635,0.163-0.722
			c0.224-0.088,0.5,0.093,0.621,0.406C23.56,14.853,23.483,15.177,23.267,15.264z"/>
	</g>
	<g>
		<path class="st2" d="M11.439,15.264c-0.216,0.087-0.491-0.094-0.621-0.406c-0.121-0.313-0.053-0.635,0.164-0.722
			c0.224-0.088,0.5,0.093,0.621,0.406C11.732,14.853,11.655,15.177,11.439,15.264z"/>
	</g>
</g>
</svg>
