<?xml version="1.0" encoding="utf-8"?>
<!-- Generator: Adobe Illustrator 21.1.0, SVG Export Plug-In . SVG Version: 6.00 Build 0)  -->
<svg version="1.1" id="Layer_1" xmlns="http://www.w3.org/2000/svg" xmlns:xlink="http://www.w3.org/1999/xlink" x="0px" y="0px"
	 viewBox="0 0 32 32" style="enable-background:new 0 0 32 32;" xml:space="preserve">
<style type="text/css">
	.st0{fill:#DEE4E9;}
	.st1{fill:#CBD6E0;}
	.st2{fill:#5A5F63;}
	.st3{fill:#3E4347;}
	.st4{fill:#F2F8FC;}
	.st5{fill:#E9EFF4;}
	.st6{fill:#E24B4B;}
	.st7{fill:none;stroke:#E9B02C;stroke-width:1.4;stroke-linecap:round;stroke-linejoin:round;stroke-miterlimit:10;}
	.st8{fill:#FFFFFF;}
	.st9{fill:#D3D9DD;}
	.st10{opacity:0.2;}
	.st11{fill:#FFD93B;}
	.st12{fill:#32373A;}
	.st13{fill:#F4C534;}
	.st14{fill:#7A5B44;}
	.st15{fill:#6B503B;}
	.st16{fill:#65B1EF;}
	.st17{fill:#D03F3F;}
	.st18{fill:#E84D88;}
	.st19{fill:none;}
	.st20{fill:#8CC63E;}
	.st21{fill:#7FB239;}
	.st22{opacity:0.3;}
	.st23{fill:#89664C;}
	.st24{fill:#846144;}
	.st25{fill:#E88EA7;}
	.st26{fill:#FC97B2;}
	.st27{fill:#8F6D52;}
</style>
<g>
	<g>
		<g>
			<g>
				<path class="st6" d="M32,16c0,8.84-7.17,16-16,16C7.16,32,0,24.84,0,16C0,7.17,7.16,0,16,0C24.83,0,32,7.17,32,16z"/>
			</g>
			<g>
				<path class="st17" d="M32,16c0,8.84-7.17,16-16,16c-5.04,0-9.54-2.33-12.46-5.97c2.74,2.2,6.21,3.51,10,3.51
					c8.83,0,16-7.16,16-16c0-3.79-1.31-7.26-3.52-10C29.67,6.47,32,10.96,32,16z"/>
			</g>
		</g>
		<g>
			<g>
				<g>
					<g>
						<g>
							<path class="st3" d="M23.016,17.394c1.093-0.926,1.233-2.557,0.307-3.65c-0.356-0.428-0.823-0.703-1.311-0.819
								c0.711-0.4,1.518-0.531,2.322-0.473c0.411,0.029,0.772-0.279,0.797-0.698c0.029-0.41-0.279-0.772-0.698-0.797
								c-2.953-0.22-5.348,1.74-5.715,3.712C18.329,17.123,21.101,19.016,23.016,17.394z"/>
						</g>
					</g>
				</g>
			</g>
			<g>
				<g>
					<g>
						<g>
							<path class="st3" d="M8.984,17.394c-1.093-0.926-1.233-2.557-0.307-3.65c0.356-0.428,0.823-0.703,1.311-0.819
								c-0.711-0.4-1.518-0.531-2.322-0.473c-0.411,0.029-0.772-0.279-0.797-0.698c-0.029-0.41,0.279-0.772,0.698-0.797
								c2.953-0.22,5.348,1.74,5.715,3.712C13.671,17.123,10.899,19.016,8.984,17.394z"/>
						</g>
					</g>
				</g>
			</g>
		</g>
		<g>
			<path class="st3" d="M21.048,25.49c-3.36-1.17-6.73-1.17-10.1,0c-0.87,0.31-1.65-0.68-1.08-1.41c1.22-1.59,3.51-2.66,6.13-2.66
				c2.63,0,4.91,1.07,6.14,2.66C22.698,24.81,21.918,25.8,21.048,25.49z"/>
		</g>
	</g>
	<g>
		<g>
			<path class="st2" d="M22.813,15.106c-0.197,0.125-0.501-0.006-0.686-0.291c-0.177-0.287-0.168-0.618,0.029-0.742
				c0.205-0.127,0.509,0.003,0.686,0.291C23.027,14.648,23.01,14.981,22.813,15.106z"/>
		</g>
		<g>
			<path class="st2" d="M12.224,15.034c-0.216,0.087-0.491-0.094-0.621-0.406c-0.121-0.313-0.053-0.635,0.163-0.722
				c0.224-0.088,0.5,0.093,0.621,0.406C12.517,14.623,12.44,14.947,12.224,15.034z"/>
		</g>
	</g>
</g>
</svg>
