<?xml version="1.0" encoding="utf-8"?>
<!-- Generator: Adobe Illustrator 21.1.0, SVG Export Plug-In . SVG Version: 6.00 Build 0)  -->
<svg version="1.1" id="Layer_1" xmlns="http://www.w3.org/2000/svg" xmlns:xlink="http://www.w3.org/1999/xlink" x="0px" y="0px"
	 viewBox="0 0 32 32" style="enable-background:new 0 0 32 32;" xml:space="preserve">
<style type="text/css">
	.st0{fill:#FFD93B;}
	.st1{fill:#3E4347;}
	.st2{fill:#F4C534;}
	.st3{fill:#38C0DC;}
	.st4{fill:#45CBEA;}
	.st5{fill:#FFFFFF;}
	.st6{fill:#E24B4B;}
	.st7{fill:#5A5F63;}
	.st8{opacity:0.3;}
	.st9{opacity:0.2;}
	.st10{opacity:0.1;}
	.st11{fill:#E9B02C;}
	.st12{fill:#65B1EF;}
	.st13{fill:#E9EFF4;}
	.st14{fill:#8CC63E;}
	.st15{fill:#7FB239;}
	.st16{fill:#D03F3F;}
	.st17{fill:#D23F77;}
	.st18{fill:#E84D88;}
	.st19{fill:#59A5E0;}
	.st20{fill:#DEE4E9;}
	.st21{fill:#D3D9DD;}
	.st22{opacity:0.25;fill:#FFFFFF;}
	.st23{fill:#9A795F;}
	.st24{fill:#F29A2E;}
	.st25{fill:#FC97B2;}
	.st26{fill:#89664C;}
	.st27{fill:#7A5B44;}
	.st28{opacity:0.2;fill:#FFFFFF;}
	.st29{fill:#4E99D2;}
	.st30{fill:#BBC7D1;}
	.st31{fill:#DE9C25;}
</style>
<g>
	<circle class="st0" cx="16" cy="16" r="16"/>
	<path class="st2" d="M32,16c0,8.84-7.165,16-16,16c-5.03,0-9.52-2.32-12.455-5.955c2.745,2.22,6.24,3.545,10.045,3.545
		c8.835,0,16-7.16,16-16c0-3.805-1.325-7.3-3.545-10.045C29.675,6.48,32,10.97,32,16z"/>
	<path class="st5" d="M14.909,11.98c-0.433,7.434-2.343,6.702-5.24,6.702c-2.67,0-4.665-3.001-4.449-6.702
		c0.216-3.701,2.561-6.702,5.231-6.702C13.129,5.278,15.124,8.279,14.909,11.98z"/>
	<path class="st1" d="M12.969,14.264c0,1.18-0.946,2.137-2.126,2.137c-1.17,0-2.126-0.957-2.126-2.137
		c0-1.169,0.957-2.126,2.126-2.126C12.022,12.138,12.969,13.095,12.969,14.264z"/>
	
		<ellipse transform="matrix(0.7071 -0.7071 0.7071 0.7071 -6.1172 12.176)" class="st5" cx="11.639" cy="13.472" rx="0.415" ry="0.61"/>
	<path class="st5" d="M17.091,11.98c0.433,7.434,2.343,6.702,5.24,6.702c2.67,0,4.665-3.001,4.449-6.702s-2.561-6.702-5.231-6.702
		C18.871,5.278,16.876,8.279,17.091,11.98z"/>
	<path class="st1" d="M23.284,14.264c0,1.18-0.946,2.137-2.126,2.137c-1.17,0-2.126-0.957-2.126-2.137
		c0-1.169,0.957-2.126,2.126-2.126C22.337,12.138,23.284,13.095,23.284,14.264z"/>
	
		<ellipse transform="matrix(0.7071 -0.7071 0.7071 0.7071 -3.0961 19.4696)" class="st5" cx="21.954" cy="13.472" rx="0.415" ry="0.61"/>
	<path class="st1" d="M27.061,21.832c-0.45,0.15-1.437,0.072-1.82-0.31c-2.124,3.939-5.022,5.422-8.13,5.91
		c-3.076,0.543-7.664-1.381-9.23-3.84c-0.263,0.343-0.532,0.485-0.9,0.6c-0.34,0.09-0.6-0.01-0.58-0.03
		c0.087,0.087,1.204-0.843,1.61-1.98c0.13-0.28,0.25-0.48,0.25-0.48c0.204,0.509,0.006,1.484-0.3,1.79
		c3.022,2.265,7.622,2.769,8.99,2.45c4.394-0.599,6.486-2.93,8.2-4.49c-0.264-0.204-0.49-0.514-0.58-0.9
		c-0.09-0.34,0-0.59,0.02-0.56C24.591,20.625,26.501,21.538,27.061,21.832z"/>
</g>
</svg>
