<?xml version="1.0" encoding="utf-8"?>
<!-- Generator: Adobe Illustrator 21.1.0, SVG Export Plug-In . SVG Version: 6.00 Build 0)  -->
<svg version="1.1" id="Layer_1" xmlns="http://www.w3.org/2000/svg" xmlns:xlink="http://www.w3.org/1999/xlink" x="0px" y="0px"
	 viewBox="0 0 32 32" style="enable-background:new 0 0 32 32;" xml:space="preserve">
<style type="text/css">
	.st0{fill:#DEE4E9;}
	.st1{fill:#CBD6E0;}
	.st2{fill:#5A5F63;}
	.st3{fill:#3E4347;}
	.st4{fill:#F2F8FC;}
	.st5{fill:#E9EFF4;}
	.st6{fill:#E24B4B;}
	.st7{fill:none;stroke:#E9B02C;stroke-width:1.4;stroke-linecap:round;stroke-linejoin:round;stroke-miterlimit:10;}
	.st8{fill:#FFFFFF;}
	.st9{fill:#D3D9DD;}
	.st10{opacity:0.2;}
	.st11{fill:#FFD93B;}
	.st12{fill:#32373A;}
	.st13{fill:#F4C534;}
	.st14{fill:#7A5B44;}
	.st15{fill:#6B503B;}
	.st16{fill:#65B1EF;}
	.st17{fill:#D03F3F;}
	.st18{fill:#E84D88;}
	.st19{fill:none;}
	.st20{fill:#8CC63E;}
	.st21{fill:#7FB239;}
	.st22{opacity:0.3;}
	.st23{fill:#89664C;}
	.st24{fill:#846144;}
	.st25{fill:#E88EA7;}
	.st26{fill:#FC97B2;}
	.st27{fill:#8F6D52;}
</style>
<g>
	<g>
		<g>
			<path class="st0" d="M22.035,30.27c-0.545-2.643-0.446-5.726,0-9.048H9.975c0.31,3.464,0.478,6.723,0,9.048
				C13.995,31.633,18.015,31.633,22.035,30.27z"/>
		</g>
		<g>
			<path class="st0" d="M29.438,13.439c0,7.673-6.431,13.844-14.196,13.418c-7.374-0.405-12.98-7.195-12.657-14.573
				C3.01,2.591,8.853,0,15.999,0C23.422,0,29.438,2.796,29.438,13.439z"/>
		</g>
		<g>
			<g>
				<g>
					<path class="st0" d="M29.841,21.958c0,8.631-13.069,8.642-13.069,0c0-3.609,2.926-6.535,6.535-6.535
						C26.915,15.423,29.841,18.349,29.841,21.958z"/>
				</g>
				<g>
					<path class="st1" d="M23.306,28.435c3.009-0.273,5.405-2.445,5.94-5.117c0.97-4.89-4.308-7.112-1.497-12.144
						c-1.699,6.113,3.598,6.727,2.349,12.339C29.595,25.917,27.274,28.632,23.306,28.435z"/>
				</g>
			</g>
			<g>
				<g>
					<circle class="st0" cx="8.693" cy="21.958" r="6.535"/>
				</g>
				<g>
					<path class="st1" d="M8.692,28.493c-3.419,0.17-6.193-2.116-6.792-4.98c-0.708-3.18,0.729-4.906,1.363-5.954
						c1.168-1.944,1.6-4.179,0.987-6.385c0.775,1.388,1.127,4.169-0.3,6.791c-0.589,1.048-1.747,2.583-1.198,5.354
						C3.258,25.844,5.528,28.206,8.692,28.493z"/>
				</g>
			</g>
		</g>
	</g>
	<g>
		<g>
			<g>
				<path class="st2" d="M14.158,12.963c-0.086,2.336-1.76,2.913-3.818,2.913c-1.931,0-3.244-3.248-2.914-5.557
					c0.33-2.309,2.701-1.6,4.604-1.236C13.937,9.448,14.248,10.519,14.158,12.963z"/>
			</g>
			<g>
				<path class="st3" d="M14.082,11.04c-0.282-0.178-0.649-0.302-1.102-0.384c-1.898-0.37-4.274-1.069-4.592,1.234
					c-0.147,1.028,0.024,2.235,0.441,3.263c-1.041-1.083-1.641-3.195-1.408-4.84c0.331-2.303,2.706-1.59,4.604-1.234
					C13.335,9.326,13.886,9.915,14.082,11.04z"/>
			</g>
		</g>
		<g>
			<g>
				<g>
					<path class="st2" d="M17.845,12.963c0.086,2.336,1.76,2.913,3.818,2.913c1.931,0,3.244-3.248,2.914-5.557
						s-2.701-1.6-4.604-1.236C18.065,9.448,17.755,10.519,17.845,12.963z"/>
				</g>
			</g>
			<g>
				<g>
					<path class="st3" d="M24.491,9.956c-0.943-0.356-2.327,0.014-3.527,0.247c-1.898,0.356-2.216,1.426-2.131,3.88
						c0.012,0.493,0.11,0.919,0.257,1.261c-0.735-0.439-1.2-1.179-1.249-2.386c-0.086-2.441,0.221-3.51,2.131-3.88
						C21.761,8.736,23.977,8.092,24.491,9.956z"/>
				</g>
			</g>
		</g>
	</g>
	<g>
		<g>
			<path class="st4" d="M12.055,29.226c-0.175,0.577-0.349,1.153-0.524,1.73c-0.061,0.206-0.325,0.314-0.578,0.228
				c-0.343-0.116-0.684-0.243-1.021-0.383c-0.249-0.104-0.369-0.355-0.279-0.55c0.248-0.549,0.496-1.098,0.744-1.647
				c0.09-0.195,0.325-0.284,0.531-0.199c0.282,0.117,0.566,0.224,0.853,0.32C11.991,28.795,12.116,29.02,12.055,29.226z"/>
		</g>
		<g>
			<path class="st4" d="M13.961,29.656c-0.09,0.596-0.18,1.191-0.271,1.787c-0.031,0.212-0.275,0.358-0.536,0.31
				c-0.353-0.065-0.705-0.141-1.054-0.23c-0.258-0.065-0.41-0.296-0.35-0.502c0.166-0.579,0.332-1.158,0.498-1.737
				c0.06-0.206,0.278-0.329,0.491-0.275c0.292,0.074,0.586,0.138,0.881,0.192C13.837,29.24,13.992,29.444,13.961,29.656z"/>
		</g>
		<g>
			<path class="st4" d="M15.9,29.809c-0.004,0.602-0.009,1.205-0.013,1.807c0,0.215-0.221,0.393-0.485,0.383
				c-0.357-0.014-0.715-0.039-1.071-0.077c-0.263-0.028-0.445-0.234-0.415-0.447c0.081-0.597,0.163-1.194,0.244-1.791
				c0.031-0.213,0.227-0.366,0.445-0.343c0.298,0.032,0.596,0.053,0.895,0.064C15.718,29.415,15.9,29.594,15.9,29.809z"/>
		</g>
		<g>
			<path class="st4" d="M17.84,29.685c0.081,0.597,0.163,1.194,0.244,1.791c0.03,0.212-0.163,0.42-0.426,0.448
				c-0.356,0.038-0.714,0.063-1.071,0.076c-0.264,0.01-0.473-0.168-0.474-0.383c-0.004-0.602-0.009-1.205-0.013-1.807
				c-0.001-0.215,0.172-0.393,0.391-0.402c0.299-0.011,0.598-0.032,0.895-0.064C17.604,29.32,17.81,29.472,17.84,29.685z"/>
		</g>
		<g>
			<path class="st4" d="M19.751,29.283c0.166,0.579,0.332,1.158,0.498,1.737c0.06,0.206-0.103,0.441-0.361,0.505
				c-0.349,0.089-0.701,0.165-1.054,0.229c-0.261,0.048-0.494-0.099-0.525-0.312c-0.09-0.596-0.18-1.191-0.271-1.787
				c-0.031-0.213,0.115-0.414,0.331-0.454c0.295-0.054,0.589-0.118,0.881-0.192C19.464,28.956,19.691,29.077,19.751,29.283z"/>
		</g>
		<g>
			<path class="st4" d="M21.603,28.603c0.248,0.549,0.496,1.098,0.744,1.647c0.09,0.196-0.041,0.451-0.289,0.554
				c-0.337,0.14-0.677,0.267-1.021,0.383c-0.254,0.085-0.507-0.026-0.568-0.232c-0.175-0.576-0.349-1.153-0.524-1.73
				c-0.061-0.206,0.055-0.428,0.265-0.498c0.287-0.097,0.572-0.203,0.853-0.32C21.27,28.323,21.514,28.408,21.603,28.603z"/>
		</g>
	</g>
	<g>
		<g>
			<path class="st2" d="M18.297,22.907c0.133,1.042-0.952,1.902-2.128,1.902c-1.177,0-2.262-0.86-2.129-1.902
				c0.598-4.84,1.602-4.247,2.129-3.155C16.695,18.66,17.699,18.067,18.297,22.907z"/>
		</g>
		<g>
			<path class="st3" d="M17.391,19.297v0.013c0,0-2.841,2.802-2.502,5.143c-0.559-0.342-0.927-0.908-0.854-1.552
				c0.604-4.84,1.605-4.235,2.134-3.144C16.478,19.126,16.934,18.666,17.391,19.297z"/>
		</g>
	</g>
</g>
</svg>
