<?xml version="1.0" encoding="utf-8"?>
<!-- Generator: Adobe Illustrator 21.1.0, SVG Export Plug-In . SVG Version: 6.00 Build 0)  -->
<svg version="1.1" id="Layer_1" xmlns="http://www.w3.org/2000/svg" xmlns:xlink="http://www.w3.org/1999/xlink" x="0px" y="0px"
	 viewBox="0 0 32 32" style="enable-background:new 0 0 32 32;" xml:space="preserve">
<style type="text/css">
	.st0{fill:#DEE4E9;}
	.st1{fill:#CBD6E0;}
	.st2{fill:#5A5F63;}
	.st3{fill:#3E4347;}
	.st4{fill:#F2F8FC;}
	.st5{fill:#E9EFF4;}
	.st6{fill:#E24B4B;}
	.st7{fill:none;stroke:#E9B02C;stroke-width:1.4;stroke-linecap:round;stroke-linejoin:round;stroke-miterlimit:10;}
	.st8{fill:#FFFFFF;}
	.st9{fill:#D3D9DD;}
	.st10{opacity:0.2;}
	.st11{fill:#FFD93B;}
	.st12{fill:#32373A;}
	.st13{fill:#F4C534;}
	.st14{fill:#7A5B44;}
	.st15{fill:#6B503B;}
	.st16{fill:#65B1EF;}
	.st17{fill:#D03F3F;}
	.st18{fill:#E84D88;}
	.st19{fill:none;}
	.st20{fill:#8CC63E;}
	.st21{fill:#7FB239;}
	.st22{opacity:0.3;}
	.st23{fill:#89664C;}
	.st24{fill:#846144;}
	.st25{fill:#E88EA7;}
	.st26{fill:#FC97B2;}
	.st27{fill:#8F6D52;}
</style>
<g>
	<g>
		<g>
			<g>
				<g>
					<g>
						<g>
							<g>
								<g>
									<g>
										<g>
											<g>
												<g>
													<g>
														<g>
															<g>
																<g>
																	<g>
																		<g>
																			<g>
																				<g>
																					<g>
																						<g>
																							<g>
																								<g>
																									<g>
																										<path class="st11" d="M29.857,20.366H3.356c0.81,1.325,0.65,3.233-0.47,4.329
																											C5.614,29.077,10.457,32,16,32c5.11,0,9.621-2.487,12.432-6.309C27.12,24.032,27.6,21.076,29.857,20.366z
																											"/>
																									</g>
																								</g>
																							</g>
																						</g>
																						<g>
																							<g>
																								<path class="st3" d="M16.262,15.433H2.557c-0.662,0-1.199-0.537-1.199-1.198V1.2
																									c0-0.874,0.905-1.454,1.699-1.089l13.706,6.296c0.425,0.195,0.698,0.621,0.698,1.089v6.739
																									C17.461,14.896,16.924,15.433,16.262,15.433z"/>
																							</g>
																							<g>
																								<path class="st12" d="M15.738,15.433h13.706c0.662,0,1.198-0.537,1.198-1.198V1.2
																									c0-0.874-0.905-1.454-1.699-1.089L15.238,6.407c-0.425,0.195-0.698,0.621-0.698,1.089v6.739
																									C14.539,14.896,15.076,15.433,15.738,15.433z"/>
																							</g>
																						</g>
																					</g>
																				</g>
																			</g>
																		</g>
																	</g>
																</g>
															</g>
														</g>
													</g>
												</g>
											</g>
										</g>
									</g>
								</g>
							</g>
						</g>
					</g>
				</g>
			</g>
		</g>
	</g>
	<g>
		<g>
			<g>
				<g>
					<g>
						<g>
							<path class="st13" d="M27.48,21.152c-2.55,5.049-7.77,8.517-13.811,8.516c-3.681,0-7.062-1.282-9.718-3.429
								C6.79,29.756,11.134,32,16,32c6.413,0,11.917-3.9,14.265-9.46C29.179,22.539,28.101,22.07,27.48,21.152z"/>
						</g>
					</g>
				</g>
			</g>
		</g>
	</g>
	<g>
		<g>
			<g>
				<g>
					<g>
						<g>
							<path class="st3" d="M31.479,16.518c0,6.501-4.005,12.064-9.684,14.357c0.445-1.141,1.2-2.331,2.428-3.512
								c5.031-4.344-2.061-6.008-3.966-5.833c-1.142,0.106-2.786,1.035-3.957,1.035c-1.161,0-2.806-0.938-3.947-1.045
								c-1.906-0.174-9.016,1.5-3.967,5.843c1.325,1.267,2.09,2.554,2.535,3.773c-6.056-2.09-10.4-7.846-10.4-14.618
								C0.521,7.976,7.448,1.04,16,1.04S31.479,7.976,31.479,16.518z"/>
						</g>
					</g>
				</g>
			</g>
		</g>
	</g>
	<g>
		<path class="st12" d="M31.479,16.521c0-4.866-2.249-9.21-5.761-12.049c2.148,2.655,3.43,6.037,3.43,9.718
			c0,3.625-1.255,6.952-3.342,9.589c0.447,0.897,0.16,2.079-1.582,3.584c-1.226,1.178-1.979,2.365-2.425,3.504
			c0.058-0.024,0.12-0.041,0.178-0.065c0.024-0.009,0.047-0.019,0.071-0.029C27.59,28.418,31.479,22.926,31.479,16.521z"/>
	</g>
	<g>
		<g>
			<g>
				<g>
					<g>
						<path class="st8" d="M26.638,10.617c0,0-6.345,0.074-7.932,1.192c-2.041,1.438-2.279,3.531-1.161,5.117
							c1.118,1.586,3.169,2.066,5.209,0.627C24.34,16.436,26.638,10.617,26.638,10.617z"/>
					</g>
				</g>
				<g>
					<g>
						<path class="st3" d="M21.678,16.567c-0.793,0.793-2.08,0.793-2.873,0c-0.793-0.793-0.793-2.09,0-2.883
							c0.793-0.793,2.08-0.793,2.873,0C22.481,14.477,22.481,15.773,21.678,16.567z"/>
					</g>
					<g>
						<path class="st2" d="M21.484,14.709c-0.145,0.145-0.445,0.078-0.677-0.145c-0.232-0.232-0.3-0.532-0.155-0.677
							c0.145-0.145,0.445-0.078,0.677,0.155C21.562,14.264,21.629,14.574,21.484,14.709z"/>
					</g>
				</g>
			</g>
		</g>
		<g>
			<g>
				<g>
					<g>
						<path class="st8" d="M5.362,10.617c0,0,6.345,0.074,7.932,1.192c2.041,1.438,2.279,3.531,1.161,5.117
							s-3.168,2.066-5.209,0.627C7.66,16.436,5.362,10.617,5.362,10.617z"/>
					</g>
				</g>
				<g>
					<g>
						<path class="st3" d="M10.322,16.567c0.793,0.793,2.08,0.793,2.873,0c0.793-0.793,0.793-2.09,0-2.883
							c-0.793-0.793-2.08-0.793-2.873,0C9.519,14.477,9.519,15.773,10.322,16.567z"/>
					</g>
					<g>
						<path class="st2" d="M10.516,14.709c0.145,0.145,0.445,0.078,0.677-0.145c0.232-0.232,0.3-0.532,0.155-0.677
							c-0.145-0.145-0.445-0.078-0.677,0.155C10.438,14.264,10.37,14.574,10.516,14.709z"/>
					</g>
				</g>
			</g>
		</g>
	</g>
	<g>
		<path class="st3" d="M22.011,24.547c-0.444-0.46-2.89,1.111-5.975,1.04c-3.086,0.07-5.532-1.501-5.976-1.04
			c-0.536,0.385,1.82,3.373,5.976,3.368C20.191,27.919,22.547,24.932,22.011,24.547z"/>
	</g>
</g>
</svg>
