<?xml version="1.0" encoding="utf-8"?>
<!-- Generator: Adobe Illustrator 21.1.0, SVG Export Plug-In . SVG Version: 6.00 Build 0)  -->
<svg version="1.1" id="Layer_1" xmlns="http://www.w3.org/2000/svg" xmlns:xlink="http://www.w3.org/1999/xlink" x="0px" y="0px"
	 viewBox="0 0 32 32" style="enable-background:new 0 0 32 32;" xml:space="preserve">
<style type="text/css">
	.st0{fill:#DEE4E9;}
	.st1{fill:#CBD6E0;}
	.st2{fill:#5A5F63;}
	.st3{fill:#3E4347;}
	.st4{fill:#F2F8FC;}
	.st5{fill:#E9EFF4;}
	.st6{fill:#E24B4B;}
	.st7{fill:none;stroke:#E9B02C;stroke-width:1.4;stroke-linecap:round;stroke-linejoin:round;stroke-miterlimit:10;}
	.st8{fill:#FFFFFF;}
	.st9{fill:#D3D9DD;}
	.st10{opacity:0.2;}
	.st11{fill:#FFD93B;}
	.st12{fill:#32373A;}
	.st13{fill:#F4C534;}
	.st14{fill:#7A5B44;}
	.st15{fill:#6B503B;}
	.st16{fill:#65B1EF;}
	.st17{fill:#D03F3F;}
	.st18{fill:#E84D88;}
	.st19{fill:none;}
	.st20{fill:#8CC63E;}
	.st21{fill:#7FB239;}
	.st22{opacity:0.3;}
	.st23{fill:#89664C;}
	.st24{fill:#846144;}
	.st25{fill:#E88EA7;}
	.st26{fill:#FC97B2;}
	.st27{fill:#8F6D52;}
</style>
<g>
	<circle class="st2" cx="15.494" cy="16" r="15.494"/>
	<path class="st2" d="M21.503,4.789c3.211,0.402,4.561,2.271,5.529,3.051c0.397,0.32,0.852,0.591,1.356,0.668
		C30.162,8.797,31.269,6.997,32,5.477c-1.288-0.378-2.634-0.542-3.97-0.484c1.782-0.799,2.904-2.68,3.728-3.99
		C29.066,1.206,26.422,2,24.069,3.318L21.503,4.789z"/>
	<path class="st3" d="M0,16c0,8.56,6.938,15.494,15.494,15.493c4.871,0,9.219-2.247,12.061-5.766
		c-2.658,2.15-6.042,3.433-9.727,3.433c-8.555,0-15.494-6.933-15.494-15.493c0-3.685,1.283-7.069,3.433-9.727
		C2.251,6.781,0,11.129,0,16z"/>
	<path class="st11" d="M3.049,16.029c0.76,2.88,3.502,4.302,6.126,3.154c1.227-0.537,2.985-1.29,4.408-2.249
		c1.268-0.841,2.846-1.053,4.288-0.589c1.616,0.52,3.482,0.775,4.814,0.957c2.83,0.387,5.094-1.717,5.043-4.704
		c-0.052-2.976-2.392-5.709-5.222-6.096c-1.499-0.205-3.651,0.846-5.357,2.312c-1.404,1.207-3.367,1.43-5.045,0.656
		c-2.02-0.927-4.327-1.317-5.689-0.724C3.793,9.883,2.279,13.147,3.049,16.029z"/>
	<path class="st13" d="M7.715,9.683c0.628,0.795,1.459,1.431,2.476,1.83c0.734,0.613,1.638,1.06,2.708,1.267
		c0.072,0.282,0.116,0.575,0.127,0.877c0.088,2.35-1.753,4.335-4.104,4.423c-2.351,0.088-4.335-1.754-4.423-4.104
		C4.423,11.93,5.807,10.166,7.715,9.683z"/>
	<path class="st8" d="M8.412,10.445c0.105-0.004,0.207,0.014,0.311,0.021c0.727,0.879,1.699,1.568,2.919,1.921
		c0.21,0.399,0.349,0.84,0.398,1.307c0.194,1.858-1.118,3.425-2.925,3.493c-1.806,0.068-3.433-1.39-3.627-3.248
		C5.293,12.079,6.605,10.512,8.412,10.445z"/>
	
		<ellipse transform="matrix(0.9993 -0.0373 0.0373 0.9993 -0.5086 0.3361)" class="st3" cx="8.763" cy="13.815" rx="1.931" ry="1.931"/>
	
		<ellipse transform="matrix(0.6803 -0.733 0.733 0.6803 -7.06 10.0849)" class="st8" cx="8.029" cy="13.135" rx="0.551" ry="0.361"/>
	<path class="st13" d="M21.685,8.248c-0.598,0.756-1.404,1.372-2.406,1.776c-0.711,0.591-1.597,1.035-2.659,1.264
		c-0.061,0.263-0.094,0.535-0.094,0.814c0,2.174,1.914,3.943,4.266,3.943s4.266-1.769,4.266-3.943
		C25.059,10.211,23.61,8.629,21.685,8.248z"/>
	<path class="st8" d="M21.018,8.976c-0.105,0-0.206,0.021-0.31,0.03c-0.694,0.837-1.639,1.507-2.845,1.875
		c-0.195,0.375-0.318,0.787-0.349,1.221c-0.124,1.723,1.245,3.125,3.053,3.125c1.807,0,3.379-1.403,3.504-3.125
		C24.195,10.378,22.825,8.976,21.018,8.976z"/>
	<circle class="st3" cx="20.792" cy="12.097" r="1.931"/>
	
		<ellipse transform="matrix(0.7071 -0.7072 0.7072 0.7071 -1.7558 18.5402)" class="st8" cx="21.5" cy="11.389" rx="0.361" ry="0.551"/>
	<g>
		<path class="st3" d="M13.645,12.966c-1.31-0.403-2.485-1.517-3.729-2.403C7.72,9.1,6.18,9.324,5.406,9.954
			c1.464-0.173,2.765,0.55,3.961,1.406C10.335,12.002,12.112,13.343,13.645,12.966z"/>
		<path class="st3" d="M15.882,11.485c1.544,0.33,3.247-0.961,4.215-1.602c1.183-0.843,2.451-1.544,3.906-1.465
			c-0.8-0.578-2.334-0.742-4.454,0.668C18.317,9.963,17.195,11.032,15.882,11.485z"/>
	</g>
</g>
</svg>
