<?xml version="1.0" encoding="utf-8"?>
<!-- Generator: Adobe Illustrator 21.1.0, SVG Export Plug-In . SVG Version: 6.00 Build 0)  -->
<svg version="1.1" id="Layer_1" xmlns="http://www.w3.org/2000/svg" xmlns:xlink="http://www.w3.org/1999/xlink" x="0px" y="0px"
	 viewBox="0 0 32 32" style="enable-background:new 0 0 32 32;" xml:space="preserve">
<style type="text/css">
	.st0{fill:#FFD93B;}
	.st1{fill:#3E4347;}
	.st2{fill:#F4C534;}
	.st3{fill:#38C0DC;}
	.st4{fill:#45CBEA;}
	.st5{fill:#FFFFFF;}
	.st6{fill:#E24B4B;}
	.st7{fill:#5A5F63;}
	.st8{opacity:0.3;}
	.st9{opacity:0.2;}
	.st10{opacity:0.1;}
	.st11{fill:#E9B02C;}
	.st12{fill:#65B1EF;}
	.st13{fill:#E9EFF4;}
	.st14{fill:#8CC63E;}
	.st15{fill:#7FB239;}
	.st16{fill:#D03F3F;}
	.st17{fill:#D23F77;}
	.st18{fill:#E84D88;}
	.st19{fill:#59A5E0;}
	.st20{fill:#DEE4E9;}
	.st21{fill:#D3D9DD;}
	.st22{opacity:0.25;fill:#FFFFFF;}
	.st23{fill:#9A795F;}
	.st24{fill:#F29A2E;}
	.st25{fill:#FC97B2;}
	.st26{fill:#89664C;}
	.st27{fill:#7A5B44;}
	.st28{opacity:0.2;fill:#FFFFFF;}
	.st29{fill:#4E99D2;}
	.st30{fill:#BBC7D1;}
	.st31{fill:#DE9C25;}
</style>
<g>
	<circle class="st0" cx="16" cy="16" r="16"/>
	<path class="st2" d="M32,16c0,8.84-7.165,16-16,16c-5.03,0-9.52-2.32-12.455-5.955c2.745,2.22,6.24,3.545,10.045,3.545
		c8.835,0,16-7.16,16-16c0-3.805-1.325-7.3-3.545-10.045C29.675,6.48,32,10.97,32,16z"/>
	<g>
		<path class="st5" d="M14.912,17.802c0,2.848-2.309,4.383-5.156,4.383S4.6,20.649,4.6,17.802s3.626-8.393,6.474-8.393
			S14.912,14.954,14.912,17.802z"/>
	</g>
	<g>
		<g>
			<circle class="st1" cx="10.82" cy="17.601" r="2.52"/>
		</g>
		
			<ellipse transform="matrix(0.7071 -0.7071 0.7071 0.7071 -8.3382 13.1951)" class="st5" cx="11.759" cy="16.663" rx="0.485" ry="0.81"/>
	</g>
	<path class="st1" d="M9.605,6.769c0.224-0.396,2.109-0.594,3.781,0.628c2.077,1.796,1.402,3.594,1.402,3.594
		c-0.43-1-0.813-1.833-2.042-2.776C11.651,7.297,9.957,6.721,9.605,6.769z"/>
	<g>
		<path class="st5" d="M17.088,17.802c0,2.848,2.309,4.383,5.156,4.383s5.156-1.535,5.156-4.383s-3.626-8.393-6.474-8.393
			S17.088,14.954,17.088,17.802z"/>
	</g>
	<g>
		<g>
			<circle class="st1" cx="21.18" cy="17.601" r="2.52"/>
		</g>
		
			<ellipse transform="matrix(0.7071 -0.7071 0.7071 0.7071 -5.8537 19.1931)" class="st5" cx="20.241" cy="16.663" rx="0.81" ry="0.485"/>
	</g>
	<path class="st1" d="M22.395,6.769c-0.224-0.396-2.109-0.594-3.781,0.628c-2.077,1.796-1.402,3.594-1.402,3.594
		c0.43-1,0.813-1.833,2.042-2.776C20.349,7.297,22.043,6.721,22.395,6.769z"/>
	<path class="st1" d="M21.251,26.221c-0.264,0.606-1.085,0.757-1.54,0.2l-0.01-0.01c-0.82-1.024-1.981-1.67-3.46-1.67
		c-1.389,0.028-2.594,0.723-3.58,1.71c-0.34,0.37-0.91,0.38-1.27,0.04c-0.36-0.34-0.38-0.91-0.04-1.27
		c0.292-0.321,3.007-1.439,4.87-1.47c2.112-0.053,3.56,0.851,4.56,1.28C21.241,25.231,21.451,25.771,21.251,26.221z"/>
	<path class="st2" d="M17.591,26.331h-2.38C15.674,25.683,17.014,25.596,17.591,26.331z"/>
</g>
</svg>
