<?xml version="1.0" encoding="utf-8"?>
<!-- Generator: Adobe Illustrator 21.1.0, SVG Export Plug-In . SVG Version: 6.00 Build 0)  -->
<svg version="1.1" id="Layer_1" xmlns="http://www.w3.org/2000/svg" xmlns:xlink="http://www.w3.org/1999/xlink" x="0px" y="0px"
	 viewBox="0 0 32 32" style="enable-background:new 0 0 32 32;" xml:space="preserve">
<style type="text/css">
	.st0{fill:#FFD93B;}
	.st1{fill:#3E4347;}
	.st2{fill:#F4C534;}
	.st3{fill:#38C0DC;}
	.st4{fill:#45CBEA;}
	.st5{fill:#FFFFFF;}
	.st6{fill:#E24B4B;}
	.st7{fill:#5A5F63;}
	.st8{opacity:0.3;}
	.st9{opacity:0.2;}
	.st10{opacity:0.1;}
	.st11{fill:#E9B02C;}
	.st12{fill:#65B1EF;}
	.st13{fill:#E9EFF4;}
	.st14{fill:#8CC63E;}
	.st15{fill:#7FB239;}
	.st16{fill:#D03F3F;}
	.st17{fill:#D23F77;}
	.st18{fill:#E84D88;}
	.st19{fill:#59A5E0;}
	.st20{fill:#DEE4E9;}
	.st21{fill:#D3D9DD;}
	.st22{opacity:0.25;fill:#FFFFFF;}
	.st23{fill:#9A795F;}
	.st24{fill:#F29A2E;}
	.st25{fill:#FC97B2;}
	.st26{fill:#89664C;}
	.st27{fill:#7A5B44;}
	.st28{opacity:0.2;fill:#FFFFFF;}
	.st29{fill:#4E99D2;}
	.st30{fill:#BBC7D1;}
	.st31{fill:#DE9C25;}
</style>
<g>
	<circle class="st0" cx="16" cy="18.724" r="13.276"/>
	<path class="st1" d="M8.092,23.824c1.677,2.925,4.589,4.865,7.908,4.865c3.319,0,6.231-1.94,7.908-4.865H8.092z"/>
	<path class="st2" d="M16,32c-4.174,0-7.899-1.925-10.334-4.941C7.943,28.901,10.843,30,14,30C25.197,30,31.289,16.989,24.335,8.39
		C34.004,16.207,28.537,32,16,32z"/>
	<path class="st13" d="M28.937,5.856l-2.414,4.746c-7.011,1.336-14.031,1.336-21.042,0L3.057,5.839
		c-0.29-0.564-0.124-1.261,0.39-1.618c8.14-5.592,16.495-5.667,25.075,0.008C29.053,4.578,29.227,5.283,28.937,5.856z"/>
	<circle class="st12" cx="16" cy="6.082" r="3.509"/>
	<path class="st5" d="M18.15,6.076v0.006c0,0.289-0.239,0.528-0.528,0.528h-1.094v1.094c0,0.289-0.239,0.528-0.528,0.528
		c-0.296,0-0.534-0.239-0.534-0.528V6.611h-1.094c-0.289,0-0.528-0.239-0.528-0.528V6.076c0-0.289,0.239-0.528,0.528-0.528h1.094
		V4.46c0-0.289,0.239-0.528,0.534-0.528c0.289,0,0.528,0.239,0.528,0.528v1.088h1.094C17.911,5.548,18.15,5.787,18.15,6.076z"/>
	<g>
		<path class="st5" d="M14.81,16.984c0.054,2.472-1.582,4.508-3.652,4.553c-2.079,0.045-3.793-1.918-3.846-4.39
			s1.573-4.516,3.652-4.561C13.033,12.541,14.756,14.512,14.81,16.984z"/>
	</g>
	<g>
		<g>
			<path class="st1" d="M13.34,18.195c0,1.037-0.838,1.884-1.884,1.884c-1.037,0-1.884-0.846-1.884-1.884
				c0-1.045,0.846-1.884,1.884-1.884C12.502,16.312,13.34,17.15,13.34,18.195z"/>
		</g>
		<g>
			
				<ellipse transform="matrix(0.7071 -0.7071 0.7071 0.7071 -8.7197 13.7577)" class="st5" cx="12.247" cy="17.404" rx="0.328" ry="0.503"/>
		</g>
	</g>
	<g>
		<path class="st5" d="M17.19,16.984c-0.054,2.472,1.582,4.508,3.652,4.553c2.079,0.045,3.793-1.918,3.846-4.39
			s-1.573-4.516-3.652-4.561C18.967,12.541,17.244,14.512,17.19,16.984z"/>
	</g>
	<g>
		<g>
			<path class="st1" d="M22.427,18.195c0,1.037-0.838,1.884-1.884,1.884c-1.037,0-1.884-0.846-1.884-1.884
				c0-1.045,0.846-1.884,1.884-1.884C21.589,16.312,22.427,17.15,22.427,18.195z"/>
		</g>
		<g>
			
				<ellipse transform="matrix(0.7071 -0.7071 0.7071 0.7071 -6.058 20.1835)" class="st5" cx="21.335" cy="17.404" rx="0.328" ry="0.503"/>
		</g>
	</g>
	<path class="st5" d="M9.223,25.406h13.554c0.416-0.489,0.803-1.01,1.131-1.582H8.092C8.42,24.396,8.807,24.916,9.223,25.406z"/>
	<path class="st6" d="M13.157,28.174c0.899,0.322,1.849,0.515,2.843,0.515c1.151,0,2.248-0.247,3.267-0.674
		c-0.399-1.095-1.392-1.85-2.696-1.85C15.205,26.165,13.899,26.992,13.157,28.174z"/>
</g>
</svg>
