<?xml version="1.0" encoding="utf-8"?>
<!-- Generator: Adobe Illustrator 21.1.0, SVG Export Plug-In . SVG Version: 6.00 Build 0)  -->
<svg version="1.1" id="Layer_1" xmlns="http://www.w3.org/2000/svg" xmlns:xlink="http://www.w3.org/1999/xlink" x="0px" y="0px"
	 viewBox="0 0 32 32" style="enable-background:new 0 0 32 32;" xml:space="preserve">
<style type="text/css">
	.st0{fill:#FFD93B;}
	.st1{fill:#3E4347;}
	.st2{fill:#F4C534;}
	.st3{fill:#38C0DC;}
	.st4{fill:#45CBEA;}
	.st5{fill:#FFFFFF;}
	.st6{fill:#E24B4B;}
	.st7{fill:#5A5F63;}
	.st8{opacity:0.3;}
	.st9{opacity:0.2;}
	.st10{opacity:0.1;}
	.st11{fill:#E9B02C;}
	.st12{fill:#65B1EF;}
	.st13{fill:#E9EFF4;}
	.st14{fill:#8CC63E;}
	.st15{fill:#7FB239;}
	.st16{fill:#D03F3F;}
	.st17{fill:#D23F77;}
	.st18{fill:#E84D88;}
	.st19{fill:#59A5E0;}
	.st20{fill:#DEE4E9;}
	.st21{fill:#D3D9DD;}
	.st22{opacity:0.25;fill:#FFFFFF;}
	.st23{fill:#9A795F;}
	.st24{fill:#F29A2E;}
	.st25{fill:#FC97B2;}
	.st26{fill:#89664C;}
	.st27{fill:#7A5B44;}
	.st28{opacity:0.2;fill:#FFFFFF;}
	.st29{fill:#4E99D2;}
	.st30{fill:#BBC7D1;}
	.st31{fill:#DE9C25;}
</style>
<g>
	<g>
		<g>
			<path class="st0" d="M26.845,13.709c-3.681,1.67-4.428,0.876-7.199,1.087c-1.827,0.121-1.861,0.539-3.631,0.569
				c-1.77-0.013-1.807-0.432-3.624-0.537c-1.807-0.086-3.743,0.561-7.189-1.02c-0.553-1.06-0.952-1.774-1.02-2.808
				c0.111-1.448,0.593-1.495,1.08-2.714c0.24-0.359,0.452-1.2,0.701-1.532C6.576,5.288,7.14,5.207,8.404,4.101
				c0.609-0.779,1.072-0.708,1.558-1.069c0.583-0.745,1.006-0.834,1.493-1.232c0.587-0.988,0.89-0.279,1.474-0.988
				c0.506-0.156,1.043-0.535,1.536-0.329c0.513-0.044,1.034,0.223,1.559,0.028c0.514-0.112,1.059,0.276,1.559-0.014
				c0.503-0.15,1.005-0.017,1.533,0.341c0.512,0.278,0.945,0.368,1.466,0.994c0.499,0.494,1.058,1.356,1.483,1.233
				c0.437,0.111,0.966,0.404,1.549,1.067c0.782,0.204,2.108,1.926,2.427,2.633C26.276,7,26.507,7.642,26.739,8.279
				c0.251,0.87,1.091,1.436,1.09,2.669C27.807,11.849,27.37,12.708,26.845,13.709z"/>
			<path class="st2" d="M18.611,9.601c-0.121,0.285-0.149,0.198-0.035,0.579c0.041,0.148-0.099,1.017-0.405,1.112
				c-0.208,0.074-0.423-0.027-0.582-0.175c-0.392-0.325-0.413-0.54-0.952-0.591c-0.313,0.249-0.349,0.798-0.714,0.984
				c-0.871,0.494-1.393-1.381-0.523-1.919C15.213,9.12,15.975,8.087,16.435,8.3c0.185,0.062,0.272,0.256,0.44,0.353
				c0.291,0.149,0.635-0.09,0.971-0.126C18.419,8.449,18.881,9.035,18.611,9.601z"/>
			<path class="st31" d="M17.563,9.47c-0.012,0.15-0.118,0.292-0.25,0.354c-0.062,0.045-0.133,0.063-0.193,0.054
				c-0.079,0.009-0.148-0.026-0.218-0.025c-0.148-0.026-0.305,0.01-0.445,0.081c-0.113,0.062-0.209,0.16-0.323,0.222
				c-0.062,0.044-0.174,0.035-0.261,0.036c-0.017-0.142,0.06-0.309,0.121-0.442c0.078-0.133,0.166-0.274,0.219-0.416
				c0.062-0.151,0.088-0.319,0.036-0.46c0.202,0.239,0.535,0.361,0.843,0.298c0.071-0.019,0.141-0.036,0.211-0.019
				C17.454,9.162,17.566,9.311,17.563,9.47z"/>
			<path class="st11" d="M17.847,8.526c-0.052,0.005-0.102,0.021-0.154,0.034c0.156,0.127,0.306,0.26,0.43,0.416
				c0.19,0.238,0.323,0.534,0.306,0.841c-0.015,0.307-0.202,0.624-0.487,0.74c-0.281,0.115-0.593,0.022-0.865-0.102
				c-0.271-0.124-0.601-0.47-0.845-0.289c-0.209,0.156-0.143,0.513-0.301,0.719c-0.157,0.206-0.42,0.347-0.665,0.274
				c-0.089-0.026-0.164-0.086-0.23-0.154c0.146,0.435,0.467,0.739,0.885,0.505c0.364-0.186,0.401-0.735,0.714-0.984
				c0.539,0.051,0.56,0.266,0.952,0.591c0.159,0.148,0.375,0.249,0.582,0.175c0.306-0.095,0.446-0.964,0.405-1.112
				c-0.113-0.38-0.086-0.294,0.035-0.579C18.881,9.035,18.419,8.449,17.847,8.526z"/>
			<path class="st2" d="M25.584,11.959c-0.036-0.221,0.027-0.196-0.249-0.314c-0.099-0.048-0.444-0.584-0.264-0.835
				c0.122-0.174,0.348-0.26,0.552-0.285c0.483-0.08,0.611,0.017,1.057-0.294c0.111-0.324-0.167-0.64-0.003-0.971
				c0.362-0.813,1.836-0.08,1.44,0.694c0.401,0.131,0.276,1.075-0.204,1.258c-0.177,0.086-0.332,0.048-0.51,0.106
				c-0.3,0.109-0.475,0.442-0.734,0.675C26.231,12.397,25.629,12.419,25.584,11.959z"/>
			<path class="st31" d="M26.483,11.352c-0.061-0.081-0.045-0.221,0.028-0.336c0.027-0.061,0.073-0.114,0.125-0.149
				c0.057-0.054,0.129-0.08,0.184-0.124c0.129-0.08,0.234-0.196,0.307-0.319c0.056-0.102,0.081-0.211,0.135-0.313
				c0.024-0.06,0.115-0.125,0.181-0.178c0.089,0.062,0.117,0.196,0.136,0.301c0.007,0.115,0.008,0.24,0.036,0.342
				c0.025,0.113,0.083,0.211,0.191,0.247c-0.273,0.008-0.594,0.153-0.81,0.378c-0.048,0.053-0.097,0.106-0.16,0.142
				C26.713,11.434,26.555,11.432,26.483,11.352z"/>
			<path class="st11" d="M26.67,11.993c0.039-0.036,0.074-0.076,0.112-0.115c-0.18,0.039-0.358,0.071-0.525,0.074
				c-0.258,0.006-0.494-0.054-0.628-0.219c-0.133-0.165-0.146-0.446,0.018-0.69c0.163-0.24,0.454-0.391,0.73-0.498
				c0.276-0.107,0.71-0.134,0.805-0.378c0.079-0.208-0.162-0.355-0.158-0.563c0.005-0.207,0.12-0.447,0.341-0.556
				c0.081-0.039,0.169-0.052,0.256-0.055c-0.356-0.15-0.768-0.124-0.943,0.267c-0.164,0.331,0.114,0.647,0.003,0.971
				c-0.445,0.311-0.574,0.214-1.057,0.294c-0.204,0.024-0.431,0.111-0.552,0.285c-0.182,0.251,0.165,0.787,0.264,0.835
				c0.276,0.118,0.213,0.092,0.249,0.314C25.63,12.418,26.231,12.398,26.67,11.993z"/>
			<path class="st2" d="M24.986,7.428c-0.338,0.132-0.289,0.039-0.508,0.44c-0.088,0.149-0.938,0.77-1.272,0.598
				c-0.236-0.11-0.333-0.379-0.347-0.636c-0.07-0.601,0.086-0.789-0.355-1.286c-0.479-0.067-0.959,0.346-1.442,0.182
				c-1.188-0.373-0.136-2.308,1.04-1.966C22.286,4.235,23.71,4.116,24,4.66c0.133,0.2,0.077,0.417,0.162,0.629
				c0.16,0.352,0.657,0.455,0.993,0.698C25.748,6.389,25.689,7.187,24.986,7.428z"/>
			<path class="st31" d="M24.171,6.479c-0.128,0.108-0.335,0.132-0.503,0.073c-0.09-0.015-0.167-0.059-0.215-0.117
				c-0.078-0.058-0.113-0.143-0.176-0.201c-0.113-0.144-0.285-0.247-0.467-0.309c-0.151-0.046-0.315-0.051-0.466-0.098
				c-0.09-0.017-0.186-0.12-0.265-0.194c0.093-0.126,0.295-0.192,0.452-0.243c0.172-0.037,0.36-0.072,0.515-0.136
				c0.169-0.064,0.318-0.17,0.371-0.32c0.017,0.35,0.229,0.724,0.558,0.929c0.079,0.044,0.157,0.089,0.207,0.159
				C24.312,6.15,24.298,6.357,24.171,6.479z"/>
			<path class="st11" d="M25.155,5.987c-0.051-0.037-0.111-0.067-0.168-0.099c0.048,0.221,0.082,0.443,0.072,0.661
				c-0.016,0.336-0.139,0.672-0.406,0.907c-0.265,0.234-0.686,0.345-1.026,0.206c-0.335-0.138-0.531-0.475-0.672-0.802
				c-0.139-0.327-0.165-0.879-0.529-0.942c-0.31-0.055-0.534,0.285-0.844,0.315c-0.309,0.03-0.663-0.085-0.828-0.356
				c-0.061-0.099-0.079-0.21-0.085-0.322c-0.218,0.471-0.18,0.998,0.393,1.172c0.483,0.164,0.962-0.248,1.442-0.182
				c0.441,0.497,0.285,0.685,0.355,1.286c0.013,0.256,0.112,0.526,0.347,0.636c0.335,0.171,1.183-0.449,1.272-0.598
				c0.22-0.401,0.17-0.307,0.508-0.44C25.688,7.187,25.747,6.389,25.155,5.987z"/>
			<path class="st2" d="M15.509,3.617c-0.328,0.147-0.279,0.046-0.499,0.482c-0.088,0.165-0.915,0.825-1.244,0.641
				c-0.23-0.116-0.317-0.398-0.317-0.666c-0.028-0.627,0.136-0.833-0.218-1.334c-0.439-0.045-0.948,0.401-1.382,0.258
				c-1.084-0.298,0.355-2.318,1.336-2.094c0.294-0.563,1.588-0.84,1.736-0.266c0.079,0.208-0.011,0.449,0.031,0.674
				c0.09,0.373,0.533,0.459,0.817,0.715C16.267,2.449,16.184,3.35,15.509,3.617z"/>
			<path class="st31" d="M14.801,2.602c-0.13,0.121-0.327,0.154-0.479,0.097c-0.083-0.014-0.149-0.057-0.188-0.116
				c-0.065-0.058-0.088-0.147-0.139-0.206c-0.087-0.147-0.229-0.248-0.389-0.303c-0.133-0.04-0.283-0.035-0.415-0.075
				c-0.081-0.012-0.151-0.113-0.21-0.184c0.111-0.137,0.308-0.22,0.461-0.285c0.166-0.05,0.343-0.101,0.497-0.181
				c0.167-0.08,0.322-0.203,0.4-0.369c-0.055,0.375,0.077,0.759,0.354,0.965c0.066,0.044,0.133,0.089,0.17,0.162
				C14.967,2.241,14.932,2.466,14.801,2.602z"/>
			<path class="st11" d="M15.77,2.026c-0.043-0.039-0.094-0.07-0.144-0.102c0.018,0.242,0.029,0.484,0.001,0.726
				c-0.042,0.37-0.174,0.743-0.437,1c-0.263,0.258-0.671,0.377-0.992,0.233c-0.318-0.142-0.48-0.494-0.579-0.833
				c-0.099-0.339-0.041-0.919-0.367-0.963c-0.278-0.037-0.543,0.327-0.837,0.376c-0.293,0.049-0.607-0.047-0.703-0.308
				c-0.035-0.095-0.03-0.206-0.011-0.318C11.395,2.33,11.334,2.85,11.85,2.997c0.433,0.144,0.943-0.303,1.382-0.258
				c0.352,0.501,0.189,0.707,0.218,1.334c-0.001,0.268,0.088,0.55,0.317,0.666c0.329,0.185,1.157-0.475,1.244-0.641
				c0.219-0.437,0.171-0.335,0.499-0.482C16.184,3.351,16.267,2.448,15.77,2.026z"/>
			<path class="st2" d="M9.429,5.042c-0.26,0.017-0.196-0.036-0.475,0.193C8.844,5.322,8.109,5.552,7.959,5.357
				c-0.11-0.129-0.077-0.33,0.009-0.504c0.18-0.416,0.348-0.512,0.29-0.928C8,3.79,7.545,3.968,7.333,3.773
				c-0.537-0.446,0.96-1.509,1.488-1.097c0.355-0.314,1.277-0.159,1.193,0.262c-0.016,0.16-0.155,0.297-0.201,0.457
				c-0.064,0.27,0.197,0.435,0.302,0.673C10.305,4.467,9.953,5.031,9.429,5.042z"/>
			<path class="st31" d="M9.295,4.21C9.172,4.259,9.034,4.232,8.957,4.159C8.909,4.13,8.879,4.086,8.874,4.037
				c-0.023-0.054-0.009-0.118-0.022-0.17c-0.008-0.119-0.066-0.22-0.147-0.296C8.636,3.512,8.54,3.479,8.472,3.42
				c-0.047-0.027-0.057-0.112-0.07-0.175c0.112-0.066,0.261-0.073,0.377-0.079c0.119,0.007,0.248,0.016,0.37,0.002
				c0.132-0.012,0.27-0.056,0.375-0.148C9.366,3.257,9.326,3.547,9.438,3.751c0.029,0.045,0.056,0.09,0.057,0.149
				C9.519,4.013,9.424,4.152,9.295,4.21z"/>
			<path class="st11" d="M10.115,4.068c-0.016-0.036-0.041-0.069-0.061-0.102C9.986,4.129,9.913,4.29,9.817,4.441
				C9.669,4.673,9.464,4.883,9.211,4.987C8.959,5.092,8.659,5.073,8.5,4.904C8.344,4.737,8.351,4.47,8.399,4.223
				C8.446,3.976,8.668,3.604,8.48,3.495C8.321,3.403,8.04,3.584,7.846,3.547C7.653,3.51,7.499,3.373,7.527,3.171
				c0.01-0.073,0.051-0.149,0.098-0.221C7.286,3.216,7.073,3.556,7.333,3.773C7.544,3.968,8,3.79,8.258,3.925
				c0.06,0.416-0.109,0.512-0.29,0.928C7.882,5.026,7.849,5.229,7.959,5.357c0.151,0.194,0.886-0.035,0.995-0.121
				c0.279-0.23,0.216-0.177,0.475-0.193C9.953,5.031,10.306,4.466,10.115,4.068z"/>
			<path class="st2" d="M21.129,1.751c-0.223,0.139-0.218,0.088-0.201,0.355c-0.033,0.088-0.277,0.664-0.467,0.737
				c-0.159,0.044-0.337-0.043-0.469-0.165c-0.327-0.267-0.356-0.447-0.817-0.511c-0.23,0.196-0.179,0.622-0.457,0.762
				c-0.473,0.304-1.444-0.991-0.939-1.483c-0.436-0.224,0.06-1.588,0.758-1.432c0.256,0.064,0.408,0.298,0.628,0.421
				c0.368,0.193,0.771,0.019,1.23,0.158C21.198,0.882,21.67,1.579,21.129,1.751z"/>
			<path class="st31" d="M19.993,1.361c-0.019,0.127-0.131,0.229-0.26,0.266c-0.06,0.031-0.125,0.039-0.184,0.026
				c-0.074,0.001-0.145-0.034-0.21-0.04c-0.144-0.033-0.291-0.008-0.41,0.053c-0.096,0.052-0.166,0.135-0.253,0.188
				c-0.046,0.036-0.148,0.031-0.228,0.034c-0.052-0.113-0.03-0.256-0.006-0.374c0.042-0.118,0.091-0.25,0.111-0.387
				c0.025-0.145,0.016-0.314-0.085-0.457c0.308,0.227,0.676,0.35,1.009,0.334c0.075-0.007,0.159-0.013,0.235,0.017
				C19.883,1.059,20.004,1.226,19.993,1.361z"/>
			<path class="st11" d="M20.393,0.591c-0.067-0.02-0.139-0.029-0.204-0.037c0.197,0.193,0.375,0.383,0.503,0.563
				c0.2,0.281,0.272,0.52,0.175,0.719c-0.1,0.197-0.335,0.383-0.582,0.444c-0.25,0.058-0.502-0.033-0.743-0.15
				c-0.229-0.115-0.587-0.423-0.776-0.268c-0.152,0.132-0.023,0.417-0.118,0.576c-0.092,0.16-0.279,0.263-0.484,0.206
				c-0.074-0.02-0.147-0.068-0.216-0.117c0.221,0.326,0.446,0.584,0.769,0.402c0.275-0.139,0.228-0.567,0.457-0.762
				c0.463,0.064,0.488,0.243,0.817,0.511C20.125,2.8,20.3,2.886,20.46,2.842c0.189-0.071,0.434-0.649,0.467-0.737
				c-0.018-0.268-0.019-0.216,0.201-0.355C21.668,1.578,21.194,0.884,20.393,0.591z"/>
			<path class="st2" d="M8.055,10.553c-0.37,0.191-0.35,0.093-0.504,0.447c-0.036,0.159-0.932,0.75-1.66,0.281
				c-0.459-0.27-0.651-0.629-0.634-0.854c0.04-0.559,0.239-0.563,0.16-1.233C5.124,8.778,4.51,8.381,4.876,7.659
				C6.304,6.031,6.8,7.643,6.783,8.195c0.465,0.087,1.19,0.586,1.112,0.792C7.861,9.09,7.678,9.168,7.631,9.286
				c-0.054,0.21,0.414,0.324,0.718,0.4C8.882,9.795,8.804,10.099,8.055,10.553z"/>
			<path class="st31" d="M7.135,9.969c-0.167,0.057-0.416,0.03-0.58-0.072C6.462,9.855,6.393,9.793,6.368,9.734
				c-0.056-0.073-0.049-0.144-0.08-0.212C6.256,9.377,6.175,9.226,6.087,9.079C6.011,8.959,5.912,8.84,5.876,8.703
				C5.844,8.626,5.898,8.506,5.943,8.419c0.144,0.033,0.279,0.159,0.403,0.238C6.464,8.754,6.606,8.843,6.76,8.891
				c0.163,0.055,0.35,0.066,0.502,0.025c-0.262,0.14-0.344,0.43-0.108,0.631C7.21,9.591,7.269,9.632,7.294,9.682
				C7.379,9.778,7.307,9.902,7.135,9.969z"/>
			<path class="st11" d="M8.349,9.686C8.302,9.673,8.248,9.662,8.195,9.649C8.178,9.757,8.17,9.869,8.127,9.994
				c-0.063,0.189-0.186,0.437-0.463,0.661c-0.27,0.226-0.796,0.348-1.304,0.09c-0.493-0.248-0.708-0.68-0.703-1
				c-0.006-0.34,0.341-0.65,0.185-0.94C5.73,8.547,5.337,8.48,5.278,8.152C5.215,7.829,5.524,7.361,5.936,7.181
				c0.144-0.068,0.27-0.083,0.381-0.084C6.111,6.851,5.42,6.819,4.876,7.659C4.509,8.38,5.122,8.777,5.417,9.195
				c0.079,0.67-0.12,0.674-0.16,1.233c-0.017,0.224,0.176,0.585,0.634,0.854C6.619,11.75,7.515,11.159,7.552,11
				c0.154-0.354,0.134-0.255,0.504-0.447C8.805,10.098,8.881,9.795,8.349,9.686z"/>
			<path class="st2" d="M12.827,8.475c-0.259-0.075-0.2-0.102-0.447-0.037c-0.087,0.044-0.835-0.108-0.92-0.543
				c-0.062-0.265,0.06-0.463,0.191-0.539c0.325-0.193,0.412-0.117,0.72-0.414c0.083-0.281,0.047-0.68,0.527-0.867
				c1.268-0.185,0.756,0.769,0.503,0.982c0.146,0.221,0.217,0.709,0.093,0.759c-0.061,0.028-0.173-0.012-0.247,0.016
				c-0.12,0.061,0.023,0.287,0.117,0.435C13.537,8.517,13.376,8.602,12.827,8.475z"/>
			<path class="st31" d="M12.712,7.902c-0.1-0.043-0.194-0.148-0.214-0.25C12.479,7.601,12.481,7.55,12.5,7.518
				c0.012-0.05,0.051-0.075,0.072-0.113c0.059-0.069,0.099-0.16,0.134-0.253c0.027-0.078,0.044-0.165,0.095-0.235
				c0.025-0.045,0.102-0.073,0.162-0.093C13.004,6.896,13,7,13.013,7.08c0.002,0.085,0.018,0.177,0.059,0.256
				c0.04,0.085,0.113,0.162,0.195,0.205c-0.172-0.046-0.344,0.039-0.342,0.207c0.003,0.039,0.009,0.077-0.005,0.106
				C12.91,7.924,12.818,7.944,12.712,7.902z"/>
			<path class="st11" d="M13.365,8.267c-0.014-0.024-0.032-0.049-0.048-0.074c-0.057,0.034-0.114,0.074-0.191,0.104
				c-0.117,0.046-0.288,0.09-0.522,0.063c-0.23-0.023-0.538-0.186-0.63-0.47c-0.09-0.276,0.051-0.515,0.218-0.638
				c0.174-0.134,0.471-0.126,0.547-0.304c0.077-0.151-0.047-0.331,0.086-0.496c0.129-0.165,0.463-0.258,0.697-0.175
				c0.085,0.027,0.14,0.07,0.183,0.115c0.022-0.197-0.213-0.49-0.805-0.315c-0.48,0.186-0.444,0.586-0.527,0.867
				c-0.307,0.297-0.395,0.222-0.72,0.414c-0.132,0.076-0.254,0.275-0.191,0.539c0.084,0.434,0.831,0.586,0.92,0.543
				c0.249-0.065,0.19-0.038,0.447,0.037C13.376,8.603,13.537,8.516,13.365,8.267z"/>
		</g>
		<g>
			<path class="st13" d="M8.913,32c-1.368,0-2.543-0.981-2.788-2.323L3.311,14.148h3.163L8.913,32z"/>
		</g>
		<g>
			<polygon class="st3" points="11.272,31.997 9.653,14.144 6.481,14.144 8.909,31.997 			"/>
		</g>
		<g>
			<polygon class="st13" points="13.635,31.997 12.825,14.144 9.653,14.144 11.272,31.997 			"/>
		</g>
		<g>
			<polygon class="st3" points="15.998,31.997 15.998,14.144 12.825,14.144 13.635,31.997 			"/>
		</g>
		<g>
			<polygon class="st13" points="18.361,31.997 19.17,14.144 15.998,14.144 15.998,31.997 			"/>
		</g>
		<g>
			<polygon class="st3" points="20.724,31.997 22.343,14.144 19.17,14.144 18.361,31.997 			"/>
		</g>
		<g>
			<polygon class="st13" points="23.087,31.997 25.515,14.144 22.343,14.144 20.724,31.997 			"/>
		</g>
		<g>
			<path class="st3" d="M28.689,14.148l-2.814,15.529C25.629,31.019,24.455,32,23.087,32l2.427-17.852H28.689z"/>
		</g>
		<g>
			<path class="st4" d="M29.988,13.101c0,0.768-0.63,1.388-1.398,1.388H3.41c-0.768,0-1.398-0.62-1.398-1.388
				c0-0.768,0.63-1.388,1.398-1.388H28.59C29.358,11.714,29.988,12.334,29.988,13.101z"/>
		</g>
		<path class="st6" d="M23.965,28.448c-0.11-0.916-0.746-1.764-2.045-3.946c-0.543,0.459-1.221,0.79-2.022,0.953
			c-0.757,0.585-1.745,0.948-2.967,0.948c-0.364,0-0.704-0.036-1.027-0.096c1.579,2.902,3.367,6.291,6.442,4.92
			C23.395,30.749,24.124,29.587,23.965,28.448z"/>
		<path class="st1" d="M8.748,23.074c1.622,1.937,4.663,2.744,7.24,2.772c2.607-0.033,5.6-0.794,7.265-2.772
			c-1.364,2.652-4.284,3.671-7.24,3.756C12.939,26.743,10.071,25.639,8.748,23.074z"/>
		<g>
			<g>
				<g>
					<path class="st5" d="M15.132,19.516c0.118,1.781-1.01,3.223-2.518,3.223s-2.826-1.442-2.944-3.223
						c-0.118-1.781,1.009-3.223,2.518-3.223S15.015,17.735,15.132,19.516z"/>
				</g>
				<g>
					<g>
						<ellipse class="st1" cx="12.612" cy="18.682" rx="1.233" ry="1.338"/>
					</g>
					<g>
						<path class="st5" d="M13.14,18.125c-0.055,0.122-0.265,0.136-0.456,0.041c-0.191-0.095-0.299-0.274-0.242-0.389
							c0.057-0.115,0.265-0.136,0.456-0.041C13.09,17.831,13.205,18.008,13.14,18.125z"/>
					</g>
				</g>
			</g>
			<g>
				<g>
					<path class="st5" d="M16.869,19.516c-0.118,1.781,1.01,3.223,2.518,3.223c1.509,0,2.826-1.442,2.944-3.223
						s-1.009-3.223-2.518-3.223C18.304,16.293,16.986,17.735,16.869,19.516z"/>
				</g>
				<g>
					<g>
						<ellipse class="st1" cx="19.389" cy="18.682" rx="1.233" ry="1.338"/>
					</g>
					<g>
						<path class="st5" d="M18.861,18.125c0.055,0.122,0.265,0.136,0.456,0.041c0.191-0.095,0.299-0.274,0.242-0.389
							c-0.057-0.115-0.265-0.136-0.456-0.041C18.911,17.831,18.797,18.008,18.861,18.125z"/>
					</g>
				</g>
			</g>
		</g>
		<g>
			<g>
				<path class="st1" d="M24.079,19.513c-0.484-1.288-0.743-1.643-1.085-2.053c-0.52-0.594-1.341-1.034-1.712-1.56
					c0.773-0.313,1.729,0.504,2.188,1.192C23.969,17.805,24.182,18.815,24.079,19.513z"/>
				<path class="st1" d="M10.719,15.9c-0.376,0.533-1.169,0.94-1.712,1.56c-0.378,0.453-0.595,0.744-1.085,2.053
					c-0.109-0.737,0.119-1.72,0.61-2.421C8.992,16.401,9.949,15.589,10.719,15.9z"/>
			</g>
		</g>
	</g>
	<g>
		<g>
			<path class="st1" d="M17.011,29.331c-0.36,0.08-0.68,0.03-1.01,0.06c-0.35-0.03-0.63,0.02-1.01-0.06
				c0.18-0.25,0.467-0.534,0.977-0.574C16.479,28.798,16.831,29.081,17.011,29.331z"/>
		</g>
	</g>
</g>
</svg>
