<?xml version="1.0" encoding="utf-8"?>
<!-- Generator: Adobe Illustrator 21.1.0, SVG Export Plug-In . SVG Version: 6.00 Build 0)  -->
<svg version="1.1" id="Layer_1" xmlns="http://www.w3.org/2000/svg" xmlns:xlink="http://www.w3.org/1999/xlink" x="0px" y="0px"
	 viewBox="0 0 32 32" style="enable-background:new 0 0 32 32;" xml:space="preserve">
<style type="text/css">
	.st0{fill:#FFD93B;}
	.st1{fill:#3E4347;}
	.st2{fill:#F4C534;}
	.st3{fill:#38C0DC;}
	.st4{fill:#45CBEA;}
	.st5{fill:#FFFFFF;}
	.st6{fill:#E24B4B;}
	.st7{fill:#5A5F63;}
	.st8{opacity:0.3;}
	.st9{opacity:0.2;}
	.st10{opacity:0.1;}
	.st11{fill:#E9B02C;}
	.st12{fill:#65B1EF;}
	.st13{fill:#E9EFF4;}
	.st14{fill:#8CC63E;}
	.st15{fill:#7FB239;}
	.st16{fill:#D03F3F;}
	.st17{fill:#D23F77;}
	.st18{fill:#E84D88;}
	.st19{fill:#59A5E0;}
	.st20{fill:#DEE4E9;}
	.st21{fill:#D3D9DD;}
	.st22{opacity:0.25;fill:#FFFFFF;}
	.st23{fill:#9A795F;}
	.st24{fill:#F29A2E;}
	.st25{fill:#FC97B2;}
	.st26{fill:#89664C;}
	.st27{fill:#7A5B44;}
	.st28{opacity:0.2;fill:#FFFFFF;}
	.st29{fill:#4E99D2;}
	.st30{fill:#BBC7D1;}
	.st31{fill:#DE9C25;}
</style>
<g>
	<g>
		<g>
			<g>
				<g>
					<path class="st30" d="M27.894,8.737c1.766,2.477,2.461,5.323,2.02,8.014c0.698,0.416,1.235,1.004,1.612,1.684
						c1.058-3.596,0.325-7.528-2.044-10.852C26.514,3.441,21.602,1.055,16,1.055c-5.602,0-10.514,2.387-13.482,6.529
						c-2.379,3.338-3.11,7.289-2.033,10.897c0.375-0.681,0.91-1.27,1.606-1.689c-0.455-2.705,0.24-5.573,2.015-8.054
						C6.7,5.108,11.04,3.027,16,3.027C20.961,3.027,25.301,5.108,27.894,8.737z"/>
				</g>
			</g>
		</g>
		<g>
			<g>
				<g>
					<g>
						<g>
							<g>
								<g>
									<g>
										<g>
											<g>
												<g>
													<g>
														<g>
															<path class="st1" d="M0.007,19.921c-0.213-6.546,5.331-4.799,4.335-2.232c-0.396,1.069-0.465,2.543-0.06,3.757
																C5.225,24.279,0.179,25.935,0.007,19.921z"/>
															<path class="st1" d="M31.994,19.921c-0.175,6.132-5.187,4.095-4.355,1.764v-0.01c0.494-1.411,0.432-2.876,0.01-3.986
																C26.698,15.098,32.205,13.425,31.994,19.921z"/>
														</g>
													</g>
												</g>
											</g>
										</g>
									</g>
								</g>
							</g>
						</g>
					</g>
				</g>
			</g>
		</g>
		<g>
			<g>
				<g>
					<g>
						<path class="st1" d="M25.573,2.975c0.321,0.181,0.419,0.642,0.213,0.971l-1.123,1.73c-0.221,0.34-0.654,0.395-0.941,0.213
							c-4.481-2.803-10.864-2.844-15.452,0c-0.311,0.2-0.716,0.11-0.931-0.213l-1.133-1.73c-0.26-0.351-0.375-0.814,0-1.142
							C13.173-1.118,19.513-0.574,25.573,2.975z"/>
					</g>
				</g>
			</g>
		</g>
	</g>
	<g>
		<g>
			<g>
				<g>
					<g>
						<g>
							<g>
								<g>
									<g>
										<g>
											<g>
												<g>
													<g>
														<g>
															<g>
																<g>
																	<path class="st7" d="M1.792,19.67c0-1.662,0.266-3.285,0.791-4.825c0.498-1.458,2.087-2.237,3.541-1.74
																		c1.459,0.497,2.238,2.082,1.741,3.541c-0.327,0.959-0.493,1.977-0.493,3.024c0,1.051,0.167,2.062,0.496,3.007
																		C9.204,26.512,1.792,29.736,1.792,19.67z"/>
																</g>
															</g>
														</g>
													</g>
												</g>
											</g>
										</g>
									</g>
								</g>
							</g>
						</g>
					</g>
				</g>
			</g>
			<g>
				<g>
					<g>
						<g>
							<g>
								<g>
									<g>
										<g>
											<g>
												<g>
													<g>
														<g>
															<g>
																<g>
																	<path class="st7" d="M30.206,19.67c0-1.662-0.266-3.285-0.791-4.825c-0.498-1.458-2.087-2.237-3.541-1.74
																		c-1.459,0.497-2.238,2.082-1.741,3.541c0.327,0.959,0.493,1.977,0.493,3.024c0,1.051-0.167,2.062-0.496,3.007
																		C22.795,26.512,30.206,29.736,30.206,19.67z"/>
																</g>
															</g>
														</g>
													</g>
												</g>
											</g>
										</g>
									</g>
								</g>
							</g>
						</g>
					</g>
				</g>
			</g>
		</g>
		<g>
			<g>
				<g>
					<g>
						<g>
							<g>
								<g>
									<g>
										<g>
											<g>
												<g>
													<g>
														<g>
															<g>
																<g>
																	<g>
																		<g>
																			<g>
																				<g>
																					<g>
																						<circle class="st0" cx="15.999" cy="19.669" r="12.25"/>
																					</g>
																				</g>
																			</g>
																		</g>
																	</g>
																</g>
															</g>
														</g>
													</g>
												</g>
												<g>
													<g>
														<g>
															<g>
																<g>
																	<g>
																		<g>
																			<g>
																				<g>
																					<g>
																						<path class="st1" d="M22.486,24.289c-1.283,2.632-3.701,4.408-6.482,4.408s-5.199-1.776-6.491-4.408
																							c-0.214-0.446,0.186-0.93,0.67-0.828c3.878,0.837,7.756,0.837,11.634,0C22.3,23.36,22.7,23.843,22.486,24.289
																							z"/>
																					</g>
																				</g>
																			</g>
																		</g>
																	</g>
																</g>
															</g>
														</g>
													</g>
												</g>
												<g>
													<g>
														<g>
															<g>
																<g>
																	<g>
																		<g>
																			<g>
																				<g>
																					<g>
																						<path class="st2" d="M28.249,19.669c0,6.768-5.485,12.25-12.25,12.25c-3.851,0-7.288-1.776-9.535-4.559
																							c2.102,1.7,4.777,2.714,7.69,2.714c6.764,0,12.25-5.482,12.25-12.25c0-2.913-1.014-5.589-2.714-7.69
																							C26.469,12.38,28.249,15.818,28.249,19.669z"/>
																					</g>
																				</g>
																			</g>
																		</g>
																	</g>
																</g>
															</g>
														</g>
													</g>
												</g>
											</g>
										</g>
									</g>
								</g>
							</g>
						</g>
					</g>
				</g>
			</g>
			<g>
				<g>
					<g>
						<g>
							<path class="st5" d="M15.003,17.422c0,2.045-1.659,3.704-3.704,3.704c-2.045,0-3.691-1.659-3.691-3.704
								c0-2.032,1.646-3.691,3.691-3.691C13.344,13.731,15.003,15.39,15.003,17.422z"/>
						</g>
					</g>
					<g>
						<g>
							<g>
								<path class="st1" d="M12.99,17.423c0,0.931-0.757,1.688-1.688,1.688c-0.931,0-1.679-0.757-1.679-1.688
									c0-0.922,0.748-1.679,1.679-1.679C12.233,15.744,12.99,16.501,12.99,17.423z"/>
							</g>
						</g>
						<g>
							<g>
								
									<ellipse transform="matrix(0.7071 -0.7071 0.7071 0.7071 -8.4184 13.3465)" class="st5" cx="11.901" cy="16.835" rx="0.322" ry="0.535"/>
							</g>
						</g>
					</g>
				</g>
				<g>
					<g>
						<g>
							<path class="st5" d="M24.39,17.422c0,2.045-1.659,3.704-3.704,3.704c-2.045,0-3.691-1.659-3.691-3.704
								c0-2.032,1.646-3.691,3.691-3.691C22.731,13.731,24.39,15.39,24.39,17.422z"/>
						</g>
					</g>
					<g>
						<g>
							<g>
								<path class="st1" d="M22.376,17.423c0,0.931-0.757,1.688-1.688,1.688c-0.931,0-1.679-0.757-1.679-1.688
									c0-0.922,0.748-1.679,1.679-1.679C21.619,15.744,22.376,16.501,22.376,17.423z"/>
							</g>
						</g>
						<g>
							<g>
								
									<ellipse transform="matrix(0.7071 -0.7071 0.7071 0.7071 -5.6691 19.9839)" class="st5" cx="21.288" cy="16.835" rx="0.322" ry="0.535"/>
							</g>
						</g>
					</g>
				</g>
			</g>
			<g>
				<g>
					<path class="st5" d="M10.409,23.505c1.221,2.333,2.241,2.4,5.589,2.4c3.343,0,4.382-0.067,5.598-2.401
						C17.868,24.278,14.139,24.278,10.409,23.505z"/>
				</g>
			</g>
			<g>
				<path class="st6" d="M16.004,28.698c1.474,0,2.84-0.51,3.996-1.372c-0.277-0.414-0.624-0.78-1.036-1.071
					c-0.376-0.263-0.879-0.227-1.267,0.022c-0.968,0.623-2.129,0.674-3.106,0.418c-0.427-0.12-0.901-0.001-1.176,0.342
					c-0.21,0.258-0.384,0.546-0.524,0.854C13.839,28.402,14.889,28.698,16.004,28.698z"/>
			</g>
		</g>
	</g>
</g>
</svg>
