<?xml version="1.0" encoding="utf-8"?>
<!-- Generator: Adobe Illustrator 21.1.0, SVG Export Plug-In . SVG Version: 6.00 Build 0)  -->
<svg version="1.1" id="Layer_1" xmlns="http://www.w3.org/2000/svg" xmlns:xlink="http://www.w3.org/1999/xlink" x="0px" y="0px"
	 viewBox="0 0 32 32" style="enable-background:new 0 0 32 32;" xml:space="preserve">
<style type="text/css">
	.st0{fill:#FFD93B;}
	.st1{fill:#3E4347;}
	.st2{fill:#F4C534;}
	.st3{fill:#38C0DC;}
	.st4{fill:#45CBEA;}
	.st5{fill:#FFFFFF;}
	.st6{fill:#E24B4B;}
	.st7{fill:#5A5F63;}
	.st8{opacity:0.3;}
	.st9{opacity:0.2;}
	.st10{opacity:0.1;}
	.st11{fill:#E9B02C;}
	.st12{fill:#65B1EF;}
	.st13{fill:#E9EFF4;}
	.st14{fill:#8CC63E;}
	.st15{fill:#7FB239;}
	.st16{fill:#D03F3F;}
	.st17{fill:#D23F77;}
	.st18{fill:#E84D88;}
	.st19{fill:#59A5E0;}
	.st20{fill:#DEE4E9;}
	.st21{fill:#D3D9DD;}
	.st22{opacity:0.25;fill:#FFFFFF;}
	.st23{fill:#9A795F;}
	.st24{fill:#F29A2E;}
	.st25{fill:#FC97B2;}
	.st26{fill:#89664C;}
	.st27{fill:#7A5B44;}
	.st28{opacity:0.2;fill:#FFFFFF;}
	.st29{fill:#4E99D2;}
	.st30{fill:#BBC7D1;}
	.st31{fill:#DE9C25;}
</style>
<g>
	<circle class="st6" cx="16" cy="16" r="16"/>
	<path class="st16" d="M32,16c0,8.84-7.165,16-16,16c-5.03,0-9.52-2.32-12.455-5.955c2.745,2.22,6.24,3.545,10.045,3.545
		c8.835,0,16-7.16,16-16c0-3.805-1.325-7.3-3.545-10.045C29.675,6.48,32,10.97,32,16z"/>
	<path class="st5" d="M14.595,16.125c-0.634,3.294-4.325,5.021-7.299,3.294c-4.087-2.357-2.055-8.379-0.472-6.939
		c2.496,2.247,4.709,2.796,6.707,2.53C14.167,14.916,14.715,15.499,14.595,16.125z"/>
	<path class="st1" d="M11.832,17.418c0.008,1.034-0.821,1.869-1.837,1.87c-1.025,0.001-1.857-0.83-1.865-1.865
		c-0.008-1.025,0.811-1.869,1.837-1.87C10.983,15.552,11.824,16.393,11.832,17.418z"/>
	
		<ellipse transform="matrix(0.7071 -0.7071 0.7071 0.7071 -8.7098 12.4429)" class="st5" cx="10.666" cy="16.736" rx="0.347" ry="0.592"/>
	<path class="st1" d="M12.96,13.437c-4.091-0.335-6.749-2.868-6.86-2.976c-0.23-0.222-0.235-0.588-0.013-0.818
		c0.223-0.23,0.589-0.237,0.818-0.015c0.024,0.023,2.398,2.272,5.955,2.636l1.261-0.82c0.271-0.175,0.627-0.098,0.802,0.17
		c0.174,0.268,0.098,0.627-0.17,0.801l-1.43,0.929C13.213,13.416,13.083,13.447,12.96,13.437z"/>
	<path class="st5" d="M17.405,16.125c0.634,3.294,4.325,5.021,7.299,3.294c4.087-2.357,2.055-8.379,0.472-6.939
		c-2.496,2.247-4.709,2.796-6.707,2.53C17.833,14.916,17.285,15.499,17.405,16.125z"/>
	<path class="st1" d="M23.87,17.418c0.008,1.034-0.821,1.869-1.837,1.87c-1.025,0.001-1.857-0.83-1.865-1.865
		c-0.008-1.025,0.811-1.869,1.837-1.87C23.021,15.552,23.862,16.393,23.87,17.418z"/>
	
		<ellipse transform="matrix(0.7071 -0.7071 0.7071 0.7071 -5.1842 20.9549)" class="st5" cx="22.704" cy="16.736" rx="0.347" ry="0.592"/>
	<path class="st1" d="M19.04,13.437c4.091-0.335,6.749-2.868,6.86-2.976c0.23-0.222,0.235-0.588,0.013-0.818
		c-0.223-0.23-0.589-0.237-0.818-0.015c-0.024,0.023-2.398,2.272-5.955,2.636l-1.261-0.82c-0.271-0.175-0.627-0.098-0.802,0.17
		c-0.174,0.268-0.098,0.627,0.17,0.801l1.43,0.929C18.787,13.416,18.917,13.447,19.04,13.437z"/>
	<path class="st5" d="M22.211,28.311l-1.95-3.36l0.14-0.05c0.49-0.17,0.94-0.41,1.33-0.71l0.19-0.14L22.211,28.311z"/>
	<path class="st5" d="M11.571,24.931l0.15,0.05l-1.93,3.33l0.28-4.17l0.18,0.13C10.651,24.561,11.091,24.781,11.571,24.931z"/>
	<path class="st1" d="M25.501,20.871c-1.897,3.593-5.49,5.337-9.5,5.401c-4.096-0.109-7.622-1.825-9.5-5.401
		c2.009,2.332,5.291,3.811,9.5,3.868C20.135,24.697,23.456,23.255,25.501,20.871z"/>
</g>
</svg>
