<?xml version="1.0" encoding="utf-8"?>
<!-- Generator: Adobe Illustrator 21.1.0, SVG Export Plug-In . SVG Version: 6.00 Build 0)  -->
<svg version="1.1" id="Layer_1" xmlns="http://www.w3.org/2000/svg" xmlns:xlink="http://www.w3.org/1999/xlink" x="0px" y="0px"
	 viewBox="0 0 32 32" style="enable-background:new 0 0 32 32;" xml:space="preserve">
<style type="text/css">
	.st0{fill:#FFD93B;}
	.st1{fill:#3E4347;}
	.st2{fill:#F4C534;}
	.st3{fill:#38C0DC;}
	.st4{fill:#45CBEA;}
	.st5{fill:#FFFFFF;}
	.st6{fill:#E24B4B;}
	.st7{fill:#5A5F63;}
	.st8{opacity:0.3;}
	.st9{opacity:0.2;}
	.st10{opacity:0.1;}
	.st11{fill:#E9B02C;}
	.st12{fill:#65B1EF;}
	.st13{fill:#E9EFF4;}
	.st14{fill:#8CC63E;}
	.st15{fill:#7FB239;}
	.st16{fill:#D03F3F;}
	.st17{fill:#D23F77;}
	.st18{fill:#E84D88;}
	.st19{fill:#59A5E0;}
	.st20{fill:#DEE4E9;}
	.st21{fill:#D3D9DD;}
	.st22{opacity:0.25;fill:#FFFFFF;}
	.st23{fill:#9A795F;}
	.st24{fill:#F29A2E;}
	.st25{fill:#FC97B2;}
	.st26{fill:#89664C;}
	.st27{fill:#7A5B44;}
	.st28{opacity:0.2;fill:#FFFFFF;}
	.st29{fill:#4E99D2;}
	.st30{fill:#BBC7D1;}
	.st31{fill:#DE9C25;}
</style>
<g>
	<circle class="st0" cx="16" cy="16" r="16"/>
	<path class="st2" d="M32,16c0,8.84-7.165,16-16,16c-5.03,0-9.52-2.32-12.455-5.955c2.745,2.22,6.24,3.545,10.045,3.545
		c8.835,0,16-7.16,16-16c0-3.805-1.325-7.3-3.545-10.045C29.675,6.48,32,10.97,32,16z"/>
	<ellipse class="st5" cx="22.37" cy="13.021" rx="4.811" ry="4.815"/>
	<circle class="st1" cx="23.29" cy="11.483" r="2.14"/>
	
		<ellipse transform="matrix(0.7071 -0.7071 0.7071 0.7071 -0.5606 20.1374)" class="st5" cx="24.028" cy="10.745" rx="0.412" ry="0.586"/>
	<ellipse class="st5" cx="10.057" cy="14.421" rx="4.811" ry="4.815"/>
	<circle class="st1" cx="9.136" cy="15.959" r="2.14"/>
	
		<ellipse transform="matrix(0.7071 -0.7071 0.7071 0.7071 -7.8716 11.4401)" class="st5" cx="9.874" cy="15.222" rx="0.412" ry="0.586"/>
	<path class="st1" d="M15.407,9.151c0.062,0.241-0.054,0.491-0.268,0.616c-0.21,0.117-0.467,0.096-0.661-0.098
		c-0.098-0.089-2.475-2.323-7.54-1.474C6.634,8.249,6.349,8.044,6.304,7.74C6.25,7.436,6.456,7.141,6.759,7.097
		c3.529-0.599,5.914,0.197,7.236,0.911l-0.304-1.322c-0.072-0.295,0.116-0.599,0.42-0.67c0.304-0.063,0.599,0.116,0.67,0.42
		L15.407,9.151z"/>
	<path class="st1" d="M26.378,6.382c-0.054,0.304-0.34,0.5-0.643,0.456c-5.066-0.858-7.433,1.385-7.531,1.483
		c-0.187,0.172-0.474,0.198-0.67,0.08c-0.214-0.116-0.321-0.366-0.268-0.607L17.9,5.078c0.062-0.304,0.366-0.482,0.67-0.42
		c0.295,0.071,0.482,0.375,0.411,0.67L18.677,6.65c1.331-0.715,3.716-1.51,7.245-0.911C26.226,5.783,26.431,6.078,26.378,6.382z"/>
	<path class="st1" d="M22.054,24.391c-0.477,2.41-3.11,5.524-6.058,5.517c-2.94-0.106-5.573-3.202-6.05-5.496
		c-0.487-2.32,2.23-4.376,6.048-4.511C19.822,19.9,22.542,21.953,22.054,24.391z"/>
	<path class="st6" d="M19.747,27.998c0.034-0.169,0.072-0.336,0.09-0.506c0.061-0.627,0.009-1.195-0.156-1.701
		c-0.401-1.32-1.972-1.974-3.299-1.312c-0.617,0.313-1.309,0.479-2.105,0.442c-0.147-0.007-0.294-0.025-0.432-0.042
		c-0.674-0.096-1.295,0.258-1.5,0.856c-0.221,0.637-0.251,1.369-0.091,2.194C14.718,28.462,17.282,28.487,19.747,27.998z"/>
	<path class="st5" d="M20.245,27.008c-2.761,0.169-5.719,0.161-8.494-0.05c-0.191-0.014-0.348,0.049-0.468,0.157
		c1.146,1.483,2.869,2.727,4.713,2.793c1.849,0.004,3.574-1.219,4.721-2.727C20.595,27.066,20.437,26.996,20.245,27.008z"/>
	<path class="st5" d="M15.198,22.831c0.271,0.001,0.509-0.216,0.531-0.515c0.063-0.802,0.13-1.606,0.2-2.409
		c-1.396,0.058-2.642,0.371-3.635,0.861c0.036,0.487,0.073,0.974,0.108,1.461c0.022,0.299,0.278,0.552,0.572,0.562
		C13.715,22.815,14.456,22.828,15.198,22.831z"/>
	<path class="st5" d="M16.07,19.904c0.07,0.802,0.137,1.604,0.201,2.406c0.021,0.299,0.26,0.513,0.531,0.508
		c0.742-0.014,1.483-0.039,2.223-0.075c0.292-0.015,0.551-0.276,0.573-0.581c0.036-0.497,0.072-0.994,0.108-1.491
		C18.713,20.195,17.467,19.914,16.07,19.904z"/>
</g>
</svg>
