<?xml version="1.0" encoding="utf-8"?>
<!-- Generator: Adobe Illustrator 21.1.0, SVG Export Plug-In . SVG Version: 6.00 Build 0)  -->
<svg version="1.1" id="Layer_1" xmlns="http://www.w3.org/2000/svg" xmlns:xlink="http://www.w3.org/1999/xlink" x="0px" y="0px"
	 viewBox="0 0 32 32" style="enable-background:new 0 0 32 32;" xml:space="preserve">
<style type="text/css">
	.st0{fill:#FFD93B;}
	.st1{fill:#3E4347;}
	.st2{fill:#F4C534;}
	.st3{fill:#38C0DC;}
	.st4{fill:#45CBEA;}
	.st5{fill:#FFFFFF;}
	.st6{fill:#E24B4B;}
	.st7{fill:#5A5F63;}
	.st8{opacity:0.3;}
	.st9{opacity:0.2;}
	.st10{opacity:0.1;}
	.st11{fill:#E9B02C;}
	.st12{fill:#65B1EF;}
	.st13{fill:#E9EFF4;}
	.st14{fill:#8CC63E;}
	.st15{fill:#7FB239;}
	.st16{fill:#D03F3F;}
	.st17{fill:#D23F77;}
	.st18{fill:#E84D88;}
	.st19{fill:#59A5E0;}
	.st20{fill:#DEE4E9;}
	.st21{fill:#D3D9DD;}
	.st22{opacity:0.25;fill:#FFFFFF;}
	.st23{fill:#9A795F;}
	.st24{fill:#F29A2E;}
	.st25{fill:#FC97B2;}
	.st26{fill:#89664C;}
	.st27{fill:#7A5B44;}
	.st28{opacity:0.2;fill:#FFFFFF;}
	.st29{fill:#4E99D2;}
	.st30{fill:#BBC7D1;}
	.st31{fill:#DE9C25;}
</style>
<g>
	<circle class="st0" cx="16" cy="16" r="16"/>
	<path class="st2" d="M32,16c0,8.84-7.165,16-16,16c-5.03,0-9.52-2.32-12.455-5.955c2.745,2.22,6.24,3.545,10.045,3.545
		c8.835,0,16-7.16,16-16c0-3.805-1.325-7.3-3.545-10.045C29.675,6.48,32,10.97,32,16z"/>
	<path class="st1" d="M22.765,23.924c0.086,2.298-2.373,3.582-6.764,3.528c-4.391,0.054-6.861-1.23-6.764-3.528
		C9.15,21.615,11.61,20.331,16,20.385C20.391,20.331,22.851,21.615,22.765,23.924z"/>
	<path class="st5" d="M17.641,14.273c0,2.493,2.02,4.514,4.522,4.514c2.493,0,4.514-2.02,4.514-4.514
		c0-2.501-2.02-4.522-4.514-4.522C19.661,9.751,17.641,11.771,17.641,14.273z"/>
	<path class="st1" d="M19.962,14.273c0,1.214,0.978,2.192,2.201,2.192c1.214,0,2.192-0.978,2.192-2.192
		c0-1.223-0.978-2.201-2.192-2.201C20.94,12.073,19.962,13.051,19.962,14.273z"/>
	
		<ellipse transform="matrix(0.7071 -0.7071 0.7071 0.7071 -3.2612 19.0352)" class="st5" cx="21.347" cy="13.454" rx="0.709" ry="0.421"/>
	<path class="st1" d="M28.164,13.165c0.325-0.09,0.516-0.426,0.426-0.752c-0.96-3.477-4.62-5.688-8.267-4.697
		c-0.325,0.089-0.517,0.425-0.429,0.751c0.088,0.325,0.425,0.516,0.751,0.429c3.01-0.822,5.982,0.999,6.767,3.843
		C27.502,13.066,27.843,13.256,28.164,13.165z"/>
	<path class="st2" d="M15.116,14.273c0,2.493-2.02,4.514-4.522,4.514c-2.493,0-4.514-2.02-4.514-4.514
		c0-2.501,2.02-4.522,4.514-4.522C13.096,9.751,15.116,11.771,15.116,14.273z"/>
	<path class="st5" d="M15.116,14.271c0,0.947-2.02,1.713-4.521,1.713c-2.493,0-4.514-0.767-4.514-1.713
		c0-0.95,2.02-1.717,4.514-1.717C13.096,12.554,15.116,13.321,15.116,14.271z"/>
	<path class="st1" d="M12.083,12.657c0.436,0.401,0.712,0.972,0.712,1.617c0,0.639-0.276,1.208-0.712,1.608
		c-0.468,0.062-0.964,0.102-1.488,0.102c-0.522,0-1.015-0.04-1.481-0.102c-0.435-0.4-0.711-0.969-0.711-1.609
		c0-0.644,0.276-1.216,0.711-1.617c0.466-0.062,0.959-0.102,1.481-0.102C11.119,12.554,11.614,12.595,12.083,12.657z"/>
	
		<ellipse transform="matrix(0.7071 -0.7071 0.7071 0.7071 -6.1716 12.0087)" class="st5" cx="11.41" cy="13.454" rx="0.421" ry="0.709"/>
	<path class="st1" d="M4.593,13.165c-0.325-0.09-0.516-0.426-0.426-0.752c0.96-3.477,4.62-5.688,8.267-4.697
		c0.325,0.089,0.517,0.425,0.429,0.751c-0.088,0.325-0.425,0.516-0.751,0.429c-3.01-0.822-5.982,0.999-6.767,3.843
		C5.255,13.066,4.914,13.256,4.593,13.165z"/>
	<path class="st5" d="M16,20.385c-2.043-0.025-3.661,0.243-4.806,0.765c0.01,0.203,0.025,0.403,0.05,0.593
		c0.057,0.433,0.399,0.775,0.832,0.832c2.623,0.353,5.245,0.353,7.868,0.011c0.445-0.057,0.787-0.422,0.833-0.867
		c0.017-0.181,0.027-0.374,0.034-0.569C19.665,20.628,18.046,20.36,16,20.385z"/>
	<path class="st6" d="M16.452,23.597c-0.669,0.384-1.445,0.52-2.178,0.47c-0.954-0.064-1.865,0.541-2.107,1.467
		c-0.125,0.461-0.165,0.96-0.109,1.473c2.086,0.614,5.8,0.614,7.885-0.001c0.017-0.149,0.026-0.301,0.026-0.455
		c0-0.918-0.306-1.751-0.826-2.428C18.509,23.305,17.356,23.084,16.452,23.597z"/>
</g>
</svg>
