<?xml version="1.0" encoding="utf-8"?>
<!-- Generator: Adobe Illustrator 21.1.0, SVG Export Plug-In . SVG Version: 6.00 Build 0)  -->
<svg version="1.1" id="Layer_1" xmlns="http://www.w3.org/2000/svg" xmlns:xlink="http://www.w3.org/1999/xlink" x="0px" y="0px"
	 viewBox="0 0 32 32" style="enable-background:new 0 0 32 32;" xml:space="preserve">
<style type="text/css">
	.st0{fill:#FFD93B;}
	.st1{fill:#3E4347;}
	.st2{fill:#F4C534;}
	.st3{fill:#38C0DC;}
	.st4{fill:#45CBEA;}
	.st5{fill:#FFFFFF;}
	.st6{fill:#E24B4B;}
	.st7{fill:#5A5F63;}
	.st8{opacity:0.3;}
	.st9{opacity:0.2;}
	.st10{opacity:0.1;}
	.st11{fill:#E9B02C;}
	.st12{fill:#65B1EF;}
	.st13{fill:#E9EFF4;}
	.st14{fill:#8CC63E;}
	.st15{fill:#7FB239;}
	.st16{fill:#D03F3F;}
	.st17{fill:#D23F77;}
	.st18{fill:#E84D88;}
	.st19{fill:#59A5E0;}
	.st20{fill:#DEE4E9;}
	.st21{fill:#D3D9DD;}
	.st22{opacity:0.25;fill:#FFFFFF;}
	.st23{fill:#9A795F;}
	.st24{fill:#F29A2E;}
	.st25{fill:#FC97B2;}
	.st26{fill:#89664C;}
	.st27{fill:#7A5B44;}
	.st28{opacity:0.2;fill:#FFFFFF;}
	.st29{fill:#4E99D2;}
	.st30{fill:#BBC7D1;}
	.st31{fill:#DE9C25;}
</style>
<g>
	<g>
		<circle class="st0" cx="16" cy="16" r="16"/>
		<path class="st2" d="M32,16c0,8.84-7.165,16-16,16c-5.03,0-9.52-2.32-12.455-5.955c2.745,2.22,6.24,3.545,10.045,3.545
			c8.835,0,16-7.16,16-16c0-3.805-1.325-7.3-3.545-10.045C29.675,6.48,32,10.97,32,16z"/>
		<path class="st1" d="M25.147,22.481c-1.674,3.357-5.14,5.67-9.145,5.67c-3.996,0-7.453-2.297-9.128-5.636
			c-0.337-0.656,0.421-1.338,1.043-0.934c5.409,3.516,10.802,3.432,16.186-0.034C24.726,21.144,25.475,21.825,25.147,22.481z"/>
		<path class="st5" d="M17.356,12.051c-0.543,3.69,1.412,7.03,4.37,7.466s5.792-2.2,6.335-5.891c0.541-3.68-1.412-7.03-4.37-7.466
			C20.733,5.725,17.897,8.37,17.356,12.051z"/>
		<g>
			<circle class="st1" cx="22.021" cy="14.762" r="2.677"/>
		</g>
		<g>
			
				<ellipse transform="matrix(0.7071 -0.7071 0.7071 0.7071 -3.0719 20.2745)" class="st5" cx="22.938" cy="13.845" rx="0.534" ry="0.876"/>
		</g>
		<path class="st5" d="M14.644,12.051c0.543,3.69-1.412,7.03-4.37,7.466s-5.792-2.2-6.335-5.891c-0.541-3.68,1.412-7.03,4.37-7.466
			C11.267,5.725,14.103,8.37,14.644,12.051z"/>
		<g>
			<circle class="st1" cx="9.979" cy="14.762" r="2.677"/>
		</g>
		<g>
			
				<ellipse transform="matrix(0.7071 -0.7071 0.7071 0.7071 -6.5989 11.7595)" class="st5" cx="10.896" cy="13.845" rx="0.534" ry="0.876"/>
		</g>
		<path class="st6" d="M16.002,28.151c1.827,0,3.531-0.5,5.014-1.343c-0.29-0.425-0.628-0.814-1.019-1.148
			c-0.863-0.745-2.08-0.804-3.129-0.353c-0.618,0.275-1.344,0.432-2.158,0.432c-0.981,0-2.332-0.291-3.276,1.157
			c-0.025,0.038-0.041,0.082-0.065,0.121C12.763,27.73,14.33,28.151,16.002,28.151z"/>
	</g>
</g>
</svg>
