<?xml version="1.0" encoding="utf-8"?>
<!-- Generator: Adobe Illustrator 21.1.0, SVG Export Plug-In . SVG Version: 6.00 Build 0)  -->
<svg version="1.1" id="Layer_1" xmlns="http://www.w3.org/2000/svg" xmlns:xlink="http://www.w3.org/1999/xlink" x="0px" y="0px"
	 viewBox="0 0 32 32" style="enable-background:new 0 0 32 32;" xml:space="preserve">
<style type="text/css">
	.st0{fill:#FFD93B;}
	.st1{fill:#3E4347;}
	.st2{fill:#F4C534;}
	.st3{fill:#38C0DC;}
	.st4{fill:#45CBEA;}
	.st5{fill:#FFFFFF;}
	.st6{fill:#E24B4B;}
	.st7{fill:#5A5F63;}
	.st8{opacity:0.3;}
	.st9{opacity:0.2;}
	.st10{opacity:0.1;}
	.st11{fill:#E9B02C;}
	.st12{fill:#65B1EF;}
	.st13{fill:#E9EFF4;}
	.st14{fill:#8CC63E;}
	.st15{fill:#7FB239;}
	.st16{fill:#D03F3F;}
	.st17{fill:#D23F77;}
	.st18{fill:#E84D88;}
	.st19{fill:#59A5E0;}
	.st20{fill:#DEE4E9;}
	.st21{fill:#D3D9DD;}
	.st22{opacity:0.25;fill:#FFFFFF;}
	.st23{fill:#9A795F;}
	.st24{fill:#F29A2E;}
	.st25{fill:#FC97B2;}
	.st26{fill:#89664C;}
	.st27{fill:#7A5B44;}
	.st28{opacity:0.2;fill:#FFFFFF;}
	.st29{fill:#4E99D2;}
	.st30{fill:#BBC7D1;}
	.st31{fill:#DE9C25;}
</style>
<g>
	<g>
		<g>
			<g>
				<g>
					<g>
						<g>
							<g>
								<g>
									<g>
										<g>
											<g>
												<g>
													<g>
														<g>
															<g>
																<circle class="st6" cx="16" cy="16" r="16"/>
															</g>
														</g>
													</g>
												</g>
											</g>
										</g>
									</g>
								</g>
								<g>
									<g>
										<g>
											<g>
												<g>
													<g>
														<g>
															<g>
																<path class="st16" d="M32,16c0,8.84-7.165,16-16,16c-5.03,0-9.52-2.32-12.455-5.955
																	c2.745,2.22,6.24,3.545,10.045,3.545c8.835,0,16-7.16,16-16c0-3.805-1.325-7.3-3.545-10.045
																	C29.675,6.48,32,10.97,32,16z"/>
															</g>
														</g>
													</g>
												</g>
											</g>
										</g>
									</g>
								</g>
							</g>
						</g>
					</g>
				</g>
			</g>
		</g>
	</g>
	<g>
		<g>
			<g>
				<path class="st5" d="M14.756,12.861c0,2.5-2.04,4.54-4.55,4.54c-2.5,0-4.54-2.04-4.54-4.54c0-2.51,2.04-4.55,4.54-4.55
					C12.716,8.311,14.756,10.351,14.756,12.861z"/>
			</g>
			<g>
				<g>
					<path class="st1" d="M12.456,12.861c0,1.23-1.01,2.24-2.25,2.24c-1.23,0-2.24-1.01-2.24-2.24c0-1.24,1.01-2.25,2.24-2.25
						C11.446,10.611,12.456,11.621,12.456,12.861z"/>
				</g>
				<g>
					<path class="st5" d="M11.542,12.486c-0.149,0.149-0.463,0.075-0.689-0.151c-0.234-0.234-0.3-0.54-0.151-0.689
						c0.148-0.148,0.455-0.083,0.689,0.151C11.617,12.023,11.69,12.337,11.542,12.486z"/>
				</g>
			</g>
		</g>
		<g>
			<g>
				<path class="st5" d="M26.334,12.861c0,2.5-2.04,4.54-4.55,4.54c-2.5,0-4.54-2.04-4.54-4.54c0-2.51,2.04-4.55,4.54-4.55
					C24.294,8.311,26.334,10.351,26.334,12.861z"/>
			</g>
			<g>
				<g>
					<path class="st1" d="M24.034,12.861c0,1.23-1.01,2.24-2.25,2.24c-1.23,0-2.24-1.01-2.24-2.24c0-1.24,1.01-2.25,2.24-2.25
						C23.024,10.611,24.034,11.621,24.034,12.861z"/>
				</g>
				<g>
					<path class="st5" d="M23.12,12.486c-0.149,0.149-0.463,0.075-0.689-0.151c-0.234-0.234-0.3-0.54-0.151-0.689
						c0.148-0.148,0.455-0.083,0.689,0.151C23.195,12.023,23.268,12.337,23.12,12.486z"/>
				</g>
			</g>
		</g>
	</g>
	<g>
		<g>
			<g>
				<path class="st1" d="M24.601,22.311c0,0.503-0.31,0.932-0.746,1.111c-0.527,0.216-1.05,0.444-1.467,0.831
					c-1.721,1.594-3.99,2.499-6.386,2.499c-2.394,0-4.66-0.903-6.381-2.493C9.2,23.87,8.675,23.64,8.146,23.421
					c-0.436-0.18-0.744-0.611-0.744-1.11c0-0.66,0.54-1.2,1.2-1.2c0.557,0,0.998,0.373,1.147,0.848
					c0.327,1.046,0.933,1.99,1.869,2.56c1.301,0.794,2.812,1.231,4.385,1.231c1.574,0,3.086-0.438,4.388-1.236
					c0.944-0.579,1.507-1.552,1.877-2.596c0.16-0.45,0.584-0.808,1.134-0.808C24.061,21.111,24.601,21.651,24.601,22.311z"/>
			</g>
		</g>
	</g>
</g>
</svg>
