<?xml version="1.0" encoding="utf-8"?>
<!-- Generator: Adobe Illustrator 21.1.0, SVG Export Plug-In . SVG Version: 6.00 Build 0)  -->
<svg version="1.1" id="Layer_1" xmlns="http://www.w3.org/2000/svg" xmlns:xlink="http://www.w3.org/1999/xlink" x="0px" y="0px"
	 viewBox="0 0 32 32" style="enable-background:new 0 0 32 32;" xml:space="preserve">
<style type="text/css">
	.st0{fill:#FFD93B;}
	.st1{fill:#3E4347;}
	.st2{fill:#F4C534;}
	.st3{fill:#38C0DC;}
	.st4{fill:#45CBEA;}
	.st5{fill:#FFFFFF;}
	.st6{fill:#E24B4B;}
	.st7{fill:#5A5F63;}
	.st8{opacity:0.3;}
	.st9{opacity:0.2;}
	.st10{opacity:0.1;}
	.st11{fill:#E9B02C;}
	.st12{fill:#65B1EF;}
	.st13{fill:#E9EFF4;}
	.st14{fill:#8CC63E;}
	.st15{fill:#7FB239;}
	.st16{fill:#D03F3F;}
	.st17{fill:#D23F77;}
	.st18{fill:#E84D88;}
	.st19{fill:#59A5E0;}
	.st20{fill:#DEE4E9;}
	.st21{fill:#D3D9DD;}
	.st22{opacity:0.25;fill:#FFFFFF;}
	.st23{fill:#9A795F;}
	.st24{fill:#F29A2E;}
	.st25{fill:#FC97B2;}
	.st26{fill:#89664C;}
	.st27{fill:#7A5B44;}
	.st28{opacity:0.2;fill:#FFFFFF;}
	.st29{fill:#4E99D2;}
	.st30{fill:#BBC7D1;}
	.st31{fill:#DE9C25;}
</style>
<g>
	<path class="st17" d="M21.49,10.304c0.112-0.283,0.223-0.566,0.334-0.848c1.081-2.784,1.251-4.106,1.064-5.059
		c-0.41-1.91-2.421-2.966-3.835-1.854c-0.702,0.552-1.39,1.716-2.532,4.572c-0.116,0.29-0.233,0.58-0.351,0.87
		C17.922,8.74,19.699,9.521,21.49,10.304z"/>
	<path class="st17" d="M10.524,21.739c-0.112,0.286-0.223,0.572-0.333,0.858c-1.081,2.818-1.247,4.161-1.058,5.121
		c0.414,1.926,2.426,2.945,3.838,1.798c0.701-0.568,1.388-1.751,2.527-4.624c0.116-0.291,0.233-0.583,0.35-0.875
		C14.094,23.28,12.316,22.513,10.524,21.739z"/>
	<path class="st17" d="M24.021,15.84c0.291-0.117,0.582-0.233,0.872-0.348c2.873-1.136,4.044-1.814,4.601-2.515
		c1.121-1.393,0.084-3.387-1.841-3.803c-0.952-0.182-2.285-0.025-5.076,1.036c-0.284,0.108-0.568,0.218-0.853,0.328
		C22.502,12.326,23.276,14.096,24.021,15.84z"/>
	<path class="st17" d="M7.989,16.161c-0.291,0.118-0.582,0.236-0.873,0.353c-2.874,1.153-4.05,1.851-4.605,2.567
		c-1.122,1.428-0.082,3.458,1.846,3.859c0.955,0.175,2.285-0.003,5.079-1.098c0.284-0.112,0.568-0.224,0.853-0.338
		C9.51,19.708,8.735,17.924,7.989,16.161z"/>
	<path class="st17" d="M21.724,21.461c0.285,0.11,0.569,0.22,0.853,0.328c2.801,1.064,4.133,1.221,5.089,1.03
		c1.916-0.42,2.953-2.413,1.823-3.809c-0.559-0.693-1.733-1.371-4.596-2.504c-0.291-0.115-0.581-0.231-0.872-0.348
		C23.275,17.903,22.502,19.674,21.724,21.461z"/>
	<path class="st17" d="M10.289,10.496c-0.285-0.114-0.569-0.226-0.853-0.338C6.634,9.059,5.302,8.881,4.344,9.066
		c-1.919,0.404-2.959,2.434-1.829,3.865c0.559,0.708,1.734,1.407,4.6,2.556c0.291,0.117,0.582,0.234,0.873,0.353
		C8.735,14.075,9.51,12.291,10.289,10.496z"/>
	<path class="st17" d="M16.168,24.015c0.118,0.29,0.234,0.581,0.351,0.87c1.146,2.866,1.835,4.029,2.544,4.577
		c1.412,1.103,3.423,0.047,3.829-1.871c0.178-0.95,0.01-2.271-1.07-5.046c-0.11-0.282-0.221-0.565-0.333-0.848
		C19.699,22.479,17.922,23.26,16.168,24.015z"/>
	<path class="st17" d="M15.848,7.983c-0.117-0.292-0.234-0.583-0.35-0.875c-1.143-2.882-1.829-4.065-2.539-4.629
		C11.55,1.34,9.538,2.36,9.127,4.295c-0.18,0.956-0.014,2.299,1.064,5.108c0.11,0.286,0.221,0.572,0.333,0.858
		C12.316,9.486,14.094,8.719,15.848,7.983z"/>
	<path class="st18" d="M19.055,8.086c-0.005-0.334-0.01-0.668-0.015-1.002c-0.055-3.3-0.365-4.795-0.876-5.699
		c-1.04-1.828-3.274-1.854-4.316-0.028c-0.503,0.897-0.813,2.393-0.873,5.696c-0.005,0.335-0.011,0.67-0.016,1.006
		C14.992,8.037,17.023,8.046,19.055,8.086z"/>
	<path class="st18" d="M12.96,23.943c0.005,0.335,0.01,0.67,0.016,1.006c0.059,3.313,0.371,4.809,0.882,5.706
		c1.042,1.815,3.276,1.789,4.316-0.05c0.499-0.904,0.811-2.398,0.866-5.689c0.005-0.334,0.01-0.668,0.015-1.002
		C17.023,23.953,14.992,23.963,12.96,23.943z"/>
	<path class="st18" d="M23.795,12.649c0.233-0.228,0.465-0.455,0.696-0.68c2.282-2.224,3.043-3.341,3.237-4.286
		c0.369-1.873-1.458-3.703-3.356-3.346c-0.945,0.194-2.078,0.94-4.313,3.197c-0.227,0.229-0.456,0.46-0.685,0.691
		C20.833,9.71,22.315,11.193,23.795,12.649z"/>
	<path class="st18" d="M8.214,19.382c-0.233,0.231-0.465,0.461-0.696,0.69c-2.283,2.26-3.043,3.406-3.236,4.366
		c-0.367,1.909,1.464,3.738,3.362,3.346c0.944-0.209,2.077-0.984,4.311-3.277c0.227-0.233,0.456-0.467,0.685-0.701
		C11.18,22.328,9.696,20.846,8.214,19.382z"/>
	<path class="st18" d="M23.933,19.033c0.335-0.005,0.669-0.011,1.003-0.017c3.306-0.063,4.8-0.376,5.7-0.882
		c1.82-1.034,1.82-3.241-0.011-4.277c-0.9-0.498-2.394-0.809-5.689-0.873c-0.334-0.006-0.669-0.012-1.003-0.017
		C23.962,14.989,23.962,17.011,23.933,19.033z"/>
	<path class="st18" d="M8.076,12.938c-0.335,0.004-0.67,0.009-1.004,0.014c-3.307,0.051-4.804,0.362-5.706,0.876
		c-1.823,1.048-1.822,3.307,0.011,4.355c0.901,0.504,2.398,0.815,5.695,0.866c0.335,0.005,0.67,0.009,1.004,0.014
		C8.046,17.02,8.046,14.979,8.076,12.938z"/>
	<path class="st18" d="M19.373,23.775c0.229,0.231,0.458,0.462,0.685,0.691c2.244,2.264,3.374,3.01,4.327,3.196
		c1.891,0.35,3.718-1.48,3.343-3.359c-0.201-0.937-0.964-2.055-3.238-4.272c-0.231-0.226-0.463-0.453-0.696-0.68
		C22.315,20.807,20.833,22.29,19.373,23.775z"/>
	<path class="st18" d="M12.64,8.194c-0.229-0.234-0.458-0.468-0.685-0.701c-2.242-2.3-3.372-3.075-4.325-3.276
		C5.74,3.831,3.908,5.659,4.282,7.575c0.2,0.952,0.961,2.1,3.237,4.352c0.231,0.229,0.463,0.459,0.696,0.69
		C9.696,11.154,11.18,9.671,12.64,8.194z"/>
	<g>
		<g>
			<g>
				<g>
					<g>
						<g>
							<g>
								<g>
									<circle class="st0" cx="16.012" cy="16" r="10.548"/>
								</g>
							</g>
						</g>
					</g>
				</g>
			</g>
		</g>
	</g>
	<g>
		<g>
			<g>
				<g>
					<g>
						<g>
							<g>
								<g>
									<path class="st1" d="M23.067,18.721c-1.251,2.634-3.941,4.468-7.054,4.468c-3.104,0-5.785-1.825-7.045-4.449
										c-0.198-0.423,0.216-0.884,0.658-0.743c4.223,1.392,8.493,1.345,12.782-0.019C22.851,17.837,23.264,18.307,23.067,18.721z"
										/>
								</g>
							</g>
						</g>
					</g>
				</g>
			</g>
		</g>
	</g>
	<g>
		<g>
			<g>
				<g>
					<g>
						<g>
							<g>
								<g>
									<path class="st2" d="M26.56,16c0,5.828-4.723,10.548-10.548,10.548c-3.316,0-6.276-1.529-8.211-3.926
										c1.81,1.463,4.114,2.337,6.622,2.337c5.824,0,10.548-4.72,10.548-10.548c0-2.508-0.873-4.812-2.337-6.622
										C25.027,9.724,26.56,12.684,26.56,16z"/>
								</g>
							</g>
						</g>
					</g>
				</g>
			</g>
		</g>
	</g>
	<path class="st5" d="M22.357,17.992c-4.251,1.341-8.483,1.388-12.669,0.022c1.115,2.039,2.563,2.556,6.161,2.556
		C19.452,20.57,21.244,20.046,22.357,17.992z"/>
	<path class="st6" d="M16.013,23.188c1.126,0,2.193-0.246,3.16-0.677c-0.241-1.696-1.772-2.063-2.845-1.543
		c-0.458,0.218-1.003,0.297-1.417,0.259c-0.905-0.05-1.702,0.519-1.978,1.314C13.879,22.951,14.917,23.188,16.013,23.188z"/>
	<path class="st2" d="M15.028,13.79c0,2.135-1.317,3.866-2.935,3.866c-1.627,0-2.944-1.731-2.944-3.866
		c0-2.126,1.317-3.856,2.944-3.856C13.711,9.934,15.028,11.664,15.028,13.79z"/>
	<path class="st5" d="M14.502,14.201c0,1.792-1.082,3.065-2.408,2.84c-1.336-0.225-2.417-1.861-2.417-3.663
		c0-1.782,1.082-3.056,2.417-2.83C13.42,10.773,14.502,12.409,14.502,14.201z"/>
	<circle class="st1" cx="12.555" cy="14.767" r="1.221"/>
	
		<ellipse transform="matrix(0.7071 -0.7071 0.7071 0.7071 -6.3441 13.4276)" class="st5" cx="13.037" cy="14.372" rx="0.235" ry="0.412"/>
	<path class="st2" d="M16.995,13.79c0,2.135,1.317,3.866,2.935,3.866c1.627,0,2.944-1.731,2.944-3.866
		c0-2.126-1.317-3.856-2.944-3.856C18.312,9.934,16.995,11.664,16.995,13.79z"/>
	<path class="st5" d="M17.522,14.201c0,1.792,1.082,3.065,2.408,2.84c1.336-0.225,2.417-1.861,2.417-3.663
		c0-1.782-1.082-3.056-2.417-2.83C18.603,10.773,17.522,12.409,17.522,14.201z"/>
	<circle class="st1" cx="19.468" cy="14.767" r="1.221"/>
	
		<ellipse transform="matrix(0.7071 -0.7071 0.7071 0.7071 -4.3194 18.3156)" class="st5" cx="19.949" cy="14.372" rx="0.235" ry="0.412"/>
</g>
</svg>
