<?xml version="1.0" encoding="utf-8"?>
<!-- Generator: Adobe Illustrator 21.1.0, SVG Export Plug-In . SVG Version: 6.00 Build 0)  -->
<svg version="1.1" id="Layer_1" xmlns="http://www.w3.org/2000/svg" xmlns:xlink="http://www.w3.org/1999/xlink" x="0px" y="0px"
	 viewBox="0 0 32 32" style="enable-background:new 0 0 32 32;" xml:space="preserve">
<style type="text/css">
	.st0{fill:#FFD93B;}
	.st1{fill:#3E4347;}
	.st2{fill:#F4C534;}
	.st3{fill:#38C0DC;}
	.st4{fill:#45CBEA;}
	.st5{fill:#FFFFFF;}
	.st6{fill:#E24B4B;}
	.st7{fill:#5A5F63;}
	.st8{opacity:0.3;}
	.st9{opacity:0.2;}
	.st10{opacity:0.1;}
	.st11{fill:#E9B02C;}
	.st12{fill:#65B1EF;}
	.st13{fill:#E9EFF4;}
	.st14{fill:#8CC63E;}
	.st15{fill:#7FB239;}
	.st16{fill:#D03F3F;}
	.st17{fill:#D23F77;}
	.st18{fill:#E84D88;}
	.st19{fill:#59A5E0;}
	.st20{fill:#DEE4E9;}
	.st21{fill:#D3D9DD;}
	.st22{opacity:0.25;fill:#FFFFFF;}
	.st23{fill:#9A795F;}
	.st24{fill:#F29A2E;}
	.st25{fill:#FC97B2;}
	.st26{fill:#89664C;}
	.st27{fill:#7A5B44;}
	.st28{opacity:0.2;fill:#FFFFFF;}
	.st29{fill:#4E99D2;}
	.st30{fill:#BBC7D1;}
	.st31{fill:#DE9C25;}
</style>
<g>
	<polygon class="st1" points="2.776,16.85 0.546,16.85 1.346,1.76 1.976,1.76 	"/>
	<ellipse class="st0" cx="1.663" cy="1.387" rx="1.391" ry="1.387"/>
	<ellipse class="st12" cx="1.663" cy="1.387" rx="1.391" ry="1.387"/>
	<path class="st19" d="M2.926,1.971c-0.22,0.47-0.71,0.8-1.26,0.8c-0.77,0-1.4-0.62-1.4-1.38c0-0.55,0.32-1.03,0.79-1.24
		c-0.09,0.18-0.14,0.38-0.14,0.59c0,0.76,0.62,1.38,1.4,1.38C2.536,2.121,2.746,2.071,2.926,1.971z"/>
	<g>
		<path class="st7" d="M31.991,15.129v5.42c0,0.45-0.37,0.81-0.82,0.81h-1.66c-0.45,0-0.82-0.36-0.82-0.81v-5.42
			c0-0.45,0.37-0.81,0.82-0.81h1.66C31.621,14.319,31.991,14.679,31.991,15.129z"/>
	</g>
	<g>
		<path class="st7" d="M3.309,15.129v5.42c0,0.45-0.37,0.81-0.82,0.81h-1.66c-0.45,0-0.82-0.36-0.82-0.81v-5.42
			c0-0.45,0.37-0.81,0.82-0.81h1.66C2.939,14.319,3.309,14.679,3.309,15.129z"/>
	</g>
	<g>
		<g>
			<g>
				<g>
					<g>
						<g>
							<g>
								<g>
									<g>
										<g>
											<g>
												<g>
													<circle class="st20" cx="16" cy="17.839" r="14.161"/>
												</g>
											</g>
										</g>
									</g>
								</g>
							</g>
						</g>
					</g>
				</g>
				<g>
					<g>
						<g>
							<g>
								<g>
									<g>
										<g>
											<g>
												<g>
													<path class="st21" d="M30.161,17.839C30.161,25.663,23.819,32,16,32c-4.452,0-8.426-2.053-11.023-5.27
														c2.429,1.965,5.523,3.137,8.89,3.137c7.819,0,14.161-6.337,14.161-14.161c0-3.368-1.173-6.461-3.137-8.89
														C28.103,9.414,30.161,13.388,30.161,17.839z"/>
												</g>
											</g>
										</g>
									</g>
								</g>
							</g>
						</g>
					</g>
				</g>
			</g>
		</g>
	</g>
	<g>
		<path class="st13" d="M16,3.679c-3.81,0-7.262,1.513-9.808,3.962v11.654c0,5.325,4.324,7.466,9.659,7.466
			c5.334,0,9.659-2.142,9.659-7.466V7.369C22.994,5.084,19.665,3.679,16,3.679z"/>
	</g>
	<g>
		<path class="st5" d="M15.181,14.319c0,1.915-1.555,3.461-3.461,3.461c-1.915,0-3.47-1.546-3.47-3.461
			c0-1.915,1.555-3.461,3.47-3.461C13.626,10.859,15.181,12.404,15.181,14.319z"/>
		<path class="st1" d="M13.305,14.319c0,0.875-0.71,1.585-1.585,1.585c-0.885,0-1.594-0.71-1.594-1.585
			c0-0.875,0.71-1.585,1.594-1.585C12.596,12.735,13.305,13.444,13.305,14.319z"/>
		
			<ellipse transform="matrix(0.7071 -0.7071 0.7071 0.7071 -6.0883 12.7294)" class="st5" cx="12.321" cy="13.714" rx="0.267" ry="0.457"/>
	</g>
	<g>
		<path class="st5" d="M23.75,14.319c0,1.915-1.555,3.461-3.461,3.461c-1.915,0-3.47-1.546-3.47-3.461
			c0-1.915,1.555-3.461,3.47-3.461C22.194,10.859,23.75,12.404,23.75,14.319z"/>
		<path class="st1" d="M21.873,14.319c0,0.875-0.71,1.585-1.585,1.585c-0.885,0-1.594-0.71-1.594-1.585
			c0-0.875,0.71-1.585,1.594-1.585C21.164,12.735,21.873,13.444,21.873,14.319z"/>
		
			<ellipse transform="matrix(0.7071 -0.7071 0.7071 0.7071 -3.5788 18.788)" class="st5" cx="20.889" cy="13.714" rx="0.267" ry="0.457"/>
	</g>
	<path class="st1" d="M21.975,20.981c-1.36,1.81-3.53,2.98-5.97,2.98c-2.45,0-4.61-1.17-5.98-2.98c-0.34-0.46,0.16-1.07,0.69-0.86
		c3.53,1.37,7.05,1.37,10.57,0C21.815,19.911,22.315,20.521,21.975,20.981z"/>
</g>
</svg>
