<?xml version="1.0" encoding="utf-8"?>
<!-- Generator: Adobe Illustrator 21.1.0, SVG Export Plug-In . SVG Version: 6.00 Build 0)  -->
<svg version="1.1" id="Layer_1" xmlns="http://www.w3.org/2000/svg" xmlns:xlink="http://www.w3.org/1999/xlink" x="0px" y="0px"
	 viewBox="0 0 32 32" style="enable-background:new 0 0 32 32;" xml:space="preserve">
<style type="text/css">
	.st0{fill:#FFD93B;}
	.st1{fill:#3E4347;}
	.st2{fill:#F4C534;}
	.st3{fill:#38C0DC;}
	.st4{fill:#45CBEA;}
	.st5{fill:#FFFFFF;}
	.st6{fill:#E24B4B;}
	.st7{fill:#5A5F63;}
	.st8{opacity:0.3;}
	.st9{opacity:0.2;}
	.st10{opacity:0.1;}
	.st11{fill:#E9B02C;}
	.st12{fill:#65B1EF;}
	.st13{fill:#E9EFF4;}
	.st14{fill:#8CC63E;}
	.st15{fill:#7FB239;}
	.st16{fill:#D03F3F;}
	.st17{fill:#D23F77;}
	.st18{fill:#E84D88;}
	.st19{fill:#59A5E0;}
	.st20{fill:#DEE4E9;}
	.st21{fill:#D3D9DD;}
	.st22{opacity:0.25;fill:#FFFFFF;}
	.st23{fill:#9A795F;}
	.st24{fill:#F29A2E;}
	.st25{fill:#FC97B2;}
	.st26{fill:#89664C;}
	.st27{fill:#7A5B44;}
	.st28{opacity:0.2;fill:#FFFFFF;}
	.st29{fill:#4E99D2;}
	.st30{fill:#BBC7D1;}
	.st31{fill:#DE9C25;}
</style>
<g>
	<g>
		<g>
			<g>
				<g>
					<g>
						<g>
							<g>
								<g>
									<g>
										<circle class="st0" cx="16" cy="16" r="16"/>
									</g>
								</g>
							</g>
						</g>
					</g>
				</g>
			</g>
		</g>
	</g>
	<g>
		<g>
			<g>
				<g>
					<g>
						<g>
							<g>
								<g>
									<g>
										<path class="st2" d="M32,16c0,8.84-7.165,16-16,16c-5.03,0-9.52-2.32-12.455-5.955c2.745,2.22,6.24,3.545,10.045,3.545
											c8.835,0,16-7.16,16-16c0-3.805-1.325-7.3-3.545-10.045C29.675,6.48,32,10.97,32,16z"/>
									</g>
								</g>
							</g>
						</g>
					</g>
				</g>
			</g>
		</g>
	</g>
	<path class="st2" d="M11.018,6.954c-0.126,1.704-1.554,3.129-3.241,3.236c-1.686,0.1-2.9-1.043-2.592-2.606
		c0.311-1.559,1.879-3.111,3.376-3.358C10.061,3.982,11.138,5.253,11.018,6.954z"/>
	<path class="st11" d="M10.67,5.256C10.254,4.953,9.733,4.814,9.144,4.89c-1.526,0.209-3.07,1.741-3.337,3.323
		C5.709,8.822,5.828,9.366,6.114,9.801C5.382,9.353,5,8.557,5.185,7.584c0.311-1.559,1.879-3.111,3.376-3.358
		C9.498,4.08,10.251,4.5,10.67,5.256z"/>
	<path class="st2" d="M8.002,23.818c0.135,1.218-0.645,2.085-1.795,1.887c-1.147-0.2-2.324-1.308-2.552-2.429
		c-0.229-1.121,0.647-1.926,1.887-1.827C6.784,21.551,7.861,22.599,8.002,23.818z"/>
	<path class="st11" d="M7.471,22.541c-0.378-0.276-0.833-0.453-1.299-0.496c-1.231-0.103-2.097,0.706-1.862,1.841
		c0.085,0.436,0.317,0.864,0.626,1.241c-0.633-0.47-1.142-1.152-1.281-1.849c-0.229-1.121,0.647-1.926,1.887-1.827
		C6.307,21.515,7.019,21.935,7.471,22.541z"/>
	<path class="st2" d="M29.254,14.481c0.046,1.106-1.014,2.024-2.29,2.047c-1.278,0.021-2.301-0.95-2.328-2.165
		c-0.026-1.216,0.938-2.146,2.199-2.059C28.094,12.392,29.209,13.376,29.254,14.481z"/>
	<path class="st11" d="M28.782,13.313c-0.383-0.249-0.842-0.413-1.327-0.439c-1.267-0.078-2.235,0.848-2.22,2.055
		c0.007,0.458,0.161,0.885,0.42,1.229c-0.603-0.381-1.001-1.046-1.019-1.794c-0.026-1.216,0.938-2.146,2.199-2.059
		C27.614,12.353,28.335,12.758,28.782,13.313z"/>
	<path class="st2" d="M15.864,18.82c0,0.94-0.746,1.704-1.669,1.695c-0.924-0.009-1.694-0.783-1.711-1.715
		c-0.018-0.932,0.739-1.684,1.679-1.683C15.102,17.118,15.862,17.879,15.864,18.82z"/>
	<path class="st11" d="M15.56,17.854c-0.271-0.191-0.605-0.304-0.964-0.304c-0.938-0.001-1.695,0.751-1.676,1.686
		c0.007,0.356,0.123,0.691,0.318,0.965c-0.444-0.309-0.746-0.824-0.755-1.401c-0.018-0.932,0.739-1.684,1.679-1.683
		C14.744,17.118,15.255,17.409,15.56,17.854z"/>
	<path class="st2" d="M20.709,6.52c0.076,0.945-0.621,1.664-1.545,1.628c-0.924-0.037-1.681-0.832-1.698-1.798
		c-0.015-0.965,0.668-1.725,1.53-1.668C19.859,4.739,20.634,5.576,20.709,6.52z"/>
	<path class="st11" d="M20.348,5.524c-0.269-0.214-0.588-0.352-0.923-0.375c-0.87-0.062-1.552,0.693-1.533,1.657
		c0.009,0.367,0.124,0.713,0.32,0.997C17.77,7.48,17.48,6.947,17.467,6.35c-0.015-0.965,0.668-1.725,1.53-1.668
		C19.532,4.717,20.028,5.052,20.348,5.524z"/>
	<path class="st2" d="M24.323,23.727c-0.243,1.602-1.733,3.149-3.233,3.349c-1.501,0.196-2.655-1.123-2.602-2.84
		c0.06-1.719,1.454-3.14,3.141-3.227C23.314,20.929,24.563,22.123,24.323,23.727z"/>
	<path class="st11" d="M24,22.12c-0.445-0.286-1.019-0.435-1.654-0.39c-1.675,0.111-3.073,1.541-3.16,3.254
		c-0.037,0.651,0.112,1.245,0.386,1.711c-0.684-0.486-1.125-1.4-1.085-2.459c0.06-1.719,1.454-3.14,3.141-3.227
		C22.667,20.954,23.552,21.402,24,22.12z"/>
	<path class="st5" d="M14.351,14.128c0,2.842-1.91,5.142-4.274,5.142c-2.363,0-4.285-2.3-4.285-5.142
		c0-2.831,1.921-5.132,4.285-5.132C12.44,8.996,14.351,11.297,14.351,14.128z"/>
	<g>
		<path class="st1" d="M12.23,15.366c0,1.223-0.993,2.216-2.216,2.216c-1.235,0-2.228-0.993-2.228-2.216
			c0-1.235,0.993-2.228,2.228-2.228C11.237,13.139,12.23,14.131,12.23,15.366z"/>
	</g>
	<g>
		
			<ellipse transform="matrix(0.7071 -0.7071 0.7071 0.7071 -7.078 11.9037)" class="st5" cx="10.83" cy="14.496" rx="0.418" ry="0.714"/>
	</g>
	<path class="st5" d="M26.207,14.128c0,2.842-1.91,5.142-4.274,5.142c-2.363,0-4.285-2.3-4.285-5.142
		c0-2.831,1.921-5.132,4.285-5.132C24.297,8.996,26.207,11.297,26.207,14.128z"/>
	<g>
		<path class="st1" d="M24.087,15.366c0,1.223-0.993,2.216-2.216,2.216c-1.235,0-2.228-0.993-2.228-2.216
			c0-1.235,0.993-2.228,2.228-2.228C23.094,13.139,24.087,14.131,24.087,15.366z"/>
	</g>
	<g>
		
			<ellipse transform="matrix(0.7071 -0.7071 0.7071 0.7071 -3.6053 20.2876)" class="st5" cx="22.687" cy="14.496" rx="0.418" ry="0.714"/>
	</g>
	<g>
		<g>
			<g>
				<g>
					<g>
						<g>
							<g>
								<path class="st1" d="M24.191,22.964c-1.53,2.97-4.62,5-8.19,5c-3.57,0-6.67-2.03-8.19-5c-0.3-0.58,0.19-1.24,0.83-1.1
									c4.9,1.05,9.81,1.05,14.72,0C24.001,21.724,24.491,22.384,24.191,22.964z"/>
							</g>
						</g>
					</g>
				</g>
			</g>
		</g>
	</g>
	<path class="st5" d="M23.361,21.864c-4.91,1.05-9.82,1.05-14.72,0c-0.015-0.003-0.028-0.001-0.042-0.003
		c1.337,2.968,2.649,2.732,7.4,2.732c4.76,0,6.055,0.236,7.396-2.731C23.383,21.863,23.373,21.861,23.361,21.864z"/>
	<path class="st6" d="M16.001,27.964c1.519,0,2.941-0.385,4.203-1.036c-0.808-1.515-2.479-2.287-4.389-1.562
		c-0.404,0.15-0.823,0.224-1.234,0.239c-1.259,0.046-2.137,0.597-2.675,1.382C13.142,27.602,14.527,27.964,16.001,27.964z"/>
</g>
</svg>
