<?xml version="1.0" encoding="utf-8"?>
<!-- Generator: Adobe Illustrator 21.1.0, SVG Export Plug-In . SVG Version: 6.00 Build 0)  -->
<svg version="1.1" id="Layer_1" xmlns="http://www.w3.org/2000/svg" xmlns:xlink="http://www.w3.org/1999/xlink" x="0px" y="0px"
	 viewBox="0 0 32 32" style="enable-background:new 0 0 32 32;" xml:space="preserve">
<style type="text/css">
	.st0{fill:#FFD93B;}
	.st1{fill:#3E4347;}
	.st2{fill:#F4C534;}
	.st3{fill:#38C0DC;}
	.st4{fill:#45CBEA;}
	.st5{fill:#FFFFFF;}
	.st6{fill:#E24B4B;}
	.st7{fill:#5A5F63;}
	.st8{opacity:0.3;}
	.st9{opacity:0.2;}
	.st10{opacity:0.1;}
	.st11{fill:#E9B02C;}
	.st12{fill:#65B1EF;}
	.st13{fill:#E9EFF4;}
	.st14{fill:#8CC63E;}
	.st15{fill:#7FB239;}
	.st16{fill:#D03F3F;}
	.st17{fill:#D23F77;}
	.st18{fill:#E84D88;}
	.st19{fill:#59A5E0;}
	.st20{fill:#DEE4E9;}
	.st21{fill:#D3D9DD;}
	.st22{opacity:0.25;fill:#FFFFFF;}
	.st23{fill:#9A795F;}
	.st24{fill:#F29A2E;}
	.st25{fill:#FC97B2;}
	.st26{fill:#89664C;}
	.st27{fill:#7A5B44;}
	.st28{opacity:0.2;fill:#FFFFFF;}
	.st29{fill:#4E99D2;}
	.st30{fill:#BBC7D1;}
	.st31{fill:#DE9C25;}
</style>
<g>
	<circle class="st0" cx="17.807" cy="15.501" r="14.193"/>
	<path class="st2" d="M32,15.501c0,7.842-6.356,14.193-14.193,14.193c-4.462,0-8.445-2.058-11.048-5.282
		c2.435,1.969,5.535,3.145,8.911,3.145c7.837,0,14.193-6.351,14.193-14.193c0-3.375-1.175-6.476-3.145-8.911
		C29.938,7.056,32,11.039,32,15.501z"/>
	<g>
		<g>
			<path class="st16" d="M6.877,23.606l3.795,6.572c0,0-1.192,0.602-2.803,0.503c-0.62-0.038-1.2-0.315-1.624-0.769
				C1.229,24.531-0.679,18.11,0.523,10.649c0.1-0.623,0.438-1.186,0.946-1.561c1.292-0.954,2.61-1.1,2.61-1.1l0.41,7.578
				c0,0-0.735-0.082-1.196-0.115c-0.309-0.022-0.462,0.161-0.529,0.285c0.151,3.145,0.99,6.043,2.577,8.672
				c0.124,0.067,0.352,0.137,0.599-0.051C6.306,24.076,6.877,23.606,6.877,23.606z"/>
		</g>
	</g>
	<g>
		<g>
			<path class="st6" d="M5.84,8.487l0.355,6.563c0.004,0.063-0.023,0.124-0.072,0.165c-0.459,0.388-0.971,0.551-1.523,0.542
				c-0.106-0.002-0.193-0.084-0.198-0.19L3.997,8.075C3.991,7.959,4.084,7.863,4.199,7.863c0.636,0.004,1.197,0.117,1.58,0.49
				C5.815,8.389,5.837,8.436,5.84,8.487z"/>
		</g>
	</g>
	<g>
		<path class="st6" d="M11.875,28.797l-3.287-5.692c-0.032-0.055-0.087-0.091-0.15-0.099c-0.596-0.074-1.114,0.069-1.572,0.377
			c-0.088,0.059-0.115,0.176-0.062,0.268l3.752,6.498c0.058,0.1,0.188,0.13,0.285,0.067c0.531-0.351,0.938-0.752,1.056-1.273
			C11.908,28.894,11.901,28.841,11.875,28.797z"/>
	</g>
	<path class="st5" d="M14.893,12.769c0,2.284-1.406,4.13-3.152,4.13c-1.736,0-3.143-1.845-3.143-4.13c0-2.284,1.407-4.13,3.143-4.13
		C13.486,8.639,14.893,10.485,14.893,12.769z"/>
	<g>
		<circle class="st1" cx="11.743" cy="13.687" r="1.617"/>
	</g>
	<g>
		
			<ellipse transform="matrix(0.7071 -0.7071 0.7071 0.7071 -5.6351 12.5966)" class="st5" cx="12.388" cy="13.101" rx="0.315" ry="0.525"/>
	</g>
	<path class="st1" d="M26.325,12.29c-0.791,0.708-1.057,0.479-1.935,0.648c-5.532,0.179-6.757,4.963-4.768-1.686
		c-0.07,0.828-0.16,1.646-0.249,2.464C20.989,12.101,24.931,10.479,26.325,12.29z"/>
	<path class="st1" d="M11.963,20.984c-0.49,0.373,0.555,2,2.827,3.111c2.835,1.385,6.777,1.803,8.62-0.758
		c1.764-2.453,0.606-6.014-0.124-5.393c-0.702,0.635-2.302,2.39-4.122,3.455C15.256,23.686,12.278,20.379,11.963,20.984z"/>
	<g>
		<path class="st1" d="M26.824,8.519c-0.07,0.369-0.419,0.609-0.788,0.539c-3.372-0.648-6.943,1.237-6.983,1.257
			c-0.283,0.17-0.72,0.075-0.908-0.269c-0.179-0.329-0.06-0.738,0.269-0.918c0.17-0.08,4.03-2.125,7.871-1.397
			C26.654,7.801,26.894,8.15,26.824,8.519z"/>
	</g>
	<path class="st1" d="M1.775,7.028L0.053,4.327c-0.1-0.157-0.054-0.366,0.104-0.467c0.157-0.099,0.366-0.055,0.466,0.103
		l1.722,2.701c0.1,0.157,0.054,0.366-0.104,0.467C2.08,7.233,1.872,7.181,1.775,7.028z"/>
	<path class="st1" d="M3.169,6.522L2.814,2.769c-0.018-0.186,0.119-0.35,0.304-0.368C3.303,2.387,3.47,2.519,3.486,2.705
		l0.354,3.753c0.018,0.186-0.119,0.35-0.304,0.368C3.344,6.842,3.185,6.702,3.169,6.522z"/>
	<path class="st1" d="M4.88,6.697C4.709,6.625,4.628,6.427,4.7,6.255l1.428-3.403c0.073-0.172,0.27-0.254,0.442-0.181
		c0.172,0.072,0.252,0.27,0.18,0.442L5.323,6.516C5.25,6.689,5.053,6.769,4.88,6.697z"/>
	<path class="st1" d="M16.07,5.148c-0.09,0.359-0.449,0.579-0.818,0.489c-4.768-1.187-6.674,2.205-6.743,2.354
		C8.301,8.341,7.869,8.427,7.59,8.26C7.261,8.09,7.142,7.681,7.311,7.352c0.03-0.04,2.454-4.469,8.27-3.023
		C15.94,4.419,16.16,4.778,16.07,5.148z"/>
	<path class="st6" d="M16.683,24.814c2.494,0.706,5.259,0.549,6.719-1.468c-0.665-0.844-1.762-1.222-3.007-0.783
		c-0.414,0.149-0.857,0.221-1.295,0.234C17.682,22.839,16.896,23.723,16.683,24.814z"/>
</g>
</svg>
