<?xml version="1.0" encoding="utf-8"?>
<!-- Generator: Adobe Illustrator 21.1.0, SVG Export Plug-In . SVG Version: 6.00 Build 0)  -->
<svg version="1.1" id="Layer_1" xmlns="http://www.w3.org/2000/svg" xmlns:xlink="http://www.w3.org/1999/xlink" x="0px" y="0px"
	 viewBox="0 0 32 32" style="enable-background:new 0 0 32 32;" xml:space="preserve">
<style type="text/css">
	.st0{fill:#FFD93B;}
	.st1{fill:#3E4347;}
	.st2{fill:#F4C534;}
	.st3{fill:#38C0DC;}
	.st4{fill:#45CBEA;}
	.st5{fill:#FFFFFF;}
	.st6{fill:#E24B4B;}
	.st7{fill:#5A5F63;}
	.st8{opacity:0.3;}
	.st9{opacity:0.2;}
	.st10{opacity:0.1;}
	.st11{fill:#E9B02C;}
	.st12{fill:#65B1EF;}
	.st13{fill:#E9EFF4;}
	.st14{fill:#8CC63E;}
	.st15{fill:#7FB239;}
	.st16{fill:#D03F3F;}
	.st17{fill:#D23F77;}
	.st18{fill:#E84D88;}
	.st19{fill:#59A5E0;}
	.st20{fill:#DEE4E9;}
	.st21{fill:#D3D9DD;}
	.st22{opacity:0.25;fill:#FFFFFF;}
	.st23{fill:#9A795F;}
	.st24{fill:#F29A2E;}
	.st25{fill:#FC97B2;}
	.st26{fill:#89664C;}
	.st27{fill:#7A5B44;}
	.st28{opacity:0.2;fill:#FFFFFF;}
	.st29{fill:#4E99D2;}
	.st30{fill:#BBC7D1;}
	.st31{fill:#DE9C25;}
</style>
<g>
	<g>
		<g>
			<g>
				<g>
					<circle class="st0" cx="16" cy="16.699" r="15.301"/>
				</g>
			</g>
			<g>
				<g>
					<path class="st1" d="M24.158,23.003c-1.482,3.012-4.581,5.078-8.157,5.078c-3.586,0-6.684-2.075-8.167-5.097
						c-0.373-0.746,0.268-1.587,1.1-1.463c4.705,0.727,9.41,0.756,14.124,0.019C23.881,21.406,24.531,22.247,24.158,23.003z"/>
				</g>
			</g>
			<g>
				<g>
					<path class="st1" d="M24.158,23.003c-1.482,3.012-4.581,5.078-8.157,5.078c-3.586,0-6.684-2.075-8.167-5.097
						c-0.373-0.746,0.268-1.587,1.1-1.463c4.705,0.727,9.41,0.756,14.124,0.019C23.881,21.406,24.531,22.247,24.158,23.003z"/>
				</g>
			</g>
			<g>
				<g>
					<path class="st2" d="M31.301,16.699C31.301,25.153,24.449,32,16,32c-4.81,0-9.104-2.219-11.911-5.695
						c2.625,2.123,5.967,3.39,9.606,3.39c8.449,0,15.301-6.847,15.301-15.301c0-3.639-1.267-6.981-3.39-9.606
						C29.077,7.596,31.301,11.889,31.301,16.699z"/>
				</g>
			</g>
			<path class="st5" d="M22.769,21.579c-4.526,0.677-9.043,0.65-13.559-0.021c1.061,1.68,4.222,2.288,6.78,2.288
				C18.545,23.845,21.707,23.24,22.769,21.579z"/>
			<path class="st6" d="M16.001,28.081c1.503,0,2.911-0.382,4.16-1.028c-0.109-0.638-0.359-1.226-0.73-1.73
				c-0.65-0.899-1.855-1.138-2.878-0.717c-0.583,0.239-1.253,0.373-2.008,0.373c-0.01,0-0.01,0-0.01,0
				c-1.291,0-2.486,0.794-2.706,2.056c-0.001,0.004,0,0.008-0.001,0.011C13.08,27.696,14.492,28.081,16.001,28.081z"/>
		</g>
		<g>
			<path class="st5" d="M17.52,15.874c-0.459-2.395-0.196-6.593,2.351-6.884c2.547-0.291,6.415,3.436,6.874,5.831
				s-1.234,4.573-3.782,4.864C20.416,19.974,17.979,18.269,17.52,15.874z"/>
			<path class="st5" d="M14.48,15.874c0.459-2.395,0.196-6.593-2.351-6.884c-2.547-0.291-6.415,3.436-6.874,5.831
				c-0.459,2.395,1.234,4.573,3.782,4.864C11.584,19.974,14.021,18.269,14.48,15.874z"/>
		</g>
		<g>
			
				<ellipse transform="matrix(0.7071 -0.7071 0.7071 0.7071 -6.5509 12.0317)" class="st1" cx="11.248" cy="13.924" rx="2.066" ry="2.066"/>
			<ellipse class="st5" cx="11.322" cy="12.818" rx="0.661" ry="0.416"/>
			
				<ellipse transform="matrix(0.7071 -0.7071 0.7071 0.7071 -3.7667 18.7536)" class="st1" cx="20.754" cy="13.924" rx="2.066" ry="2.066"/>
			<ellipse class="st5" cx="20.827" cy="12.818" rx="0.661" ry="0.416"/>
		</g>
	</g>
	<g>
		<g>
			<g>
				<rect x="15.37" y="5.721" class="st12" width="1.299" height="1.299"/>
				<path class="st12" d="M18.425,2.132c0,1.562-1.911,1.463-1.874,3.141H15.37c0-0.435-0.015-0.849,0.189-1.244
					c0.367-0.733,1.606-1.239,1.606-1.937c0-1.081-2.023-1.462-2.401,0.22l-1.189-0.15C13.748-0.816,18.425-0.614,18.425,2.132z"/>
			</g>
		</g>
		<g>
			<g>
				
					<rect x="21.752" y="6.51" transform="matrix(0.7071 -0.7071 0.7071 0.7071 1.5477 17.8195)" class="st12" width="1.064" height="1.064"/>
				<path class="st12" d="M26.131,5.98c-0.904,0.904-1.953-0.26-2.903,0.734L22.544,6.03c0.252-0.252,0.483-0.5,0.83-0.611
					c0.637-0.212,1.647,0.212,2.051-0.191c0.626-0.626-0.325-2.018-1.518-1.263L23.305,3.19C25.13,1.565,27.72,4.39,26.131,5.98z"/>
			</g>
			<g>
				
					<rect x="9.182" y="6.487" transform="matrix(0.7071 -0.7071 0.7071 0.7071 -2.118 8.9243)" class="st12" width="1.064" height="1.064"/>
				<path class="st12" d="M8.652,3.172c0.904,0.904-0.26,1.953,0.734,2.903L8.702,6.759c-0.252-0.252-0.5-0.483-0.611-0.83
					C7.879,5.293,8.303,4.282,7.9,3.879C7.274,3.253,5.881,4.203,6.637,5.396L5.862,5.998C4.237,4.173,7.062,1.583,8.652,3.172z"/>
			</g>
		</g>
	</g>
</g>
</svg>
