<?xml version="1.0" encoding="utf-8"?>
<!-- Generator: Adobe Illustrator 21.1.0, SVG Export Plug-In . SVG Version: 6.00 Build 0)  -->
<svg version="1.1" id="Layer_1" xmlns="http://www.w3.org/2000/svg" xmlns:xlink="http://www.w3.org/1999/xlink" x="0px" y="0px"
	 viewBox="0 0 32 32" style="enable-background:new 0 0 32 32;" xml:space="preserve">
<style type="text/css">
	.st0{fill:#FFD93B;}
	.st1{fill:#3E4347;}
	.st2{fill:#F4C534;}
	.st3{fill:#38C0DC;}
	.st4{fill:#45CBEA;}
	.st5{fill:#FFFFFF;}
	.st6{fill:#E24B4B;}
	.st7{fill:#5A5F63;}
	.st8{opacity:0.3;}
	.st9{opacity:0.2;}
	.st10{opacity:0.1;}
	.st11{fill:#E9B02C;}
	.st12{fill:#65B1EF;}
	.st13{fill:#E9EFF4;}
	.st14{fill:#8CC63E;}
	.st15{fill:#7FB239;}
	.st16{fill:#D03F3F;}
	.st17{fill:#D23F77;}
	.st18{fill:#E84D88;}
	.st19{fill:#59A5E0;}
	.st20{fill:#DEE4E9;}
	.st21{fill:#D3D9DD;}
	.st22{opacity:0.25;fill:#FFFFFF;}
	.st23{fill:#9A795F;}
	.st24{fill:#F29A2E;}
	.st25{fill:#FC97B2;}
	.st26{fill:#89664C;}
	.st27{fill:#7A5B44;}
	.st28{opacity:0.2;fill:#FFFFFF;}
	.st29{fill:#4E99D2;}
	.st30{fill:#BBC7D1;}
	.st31{fill:#DE9C25;}
</style>
<g>
	<g>
		<path class="st0" d="M26.717,19.396c-0.676,0.653-0.986,1.606-0.82,2.536l1.041,6.081c0.399,2.326-2.049,4.109-4.153,3.013
			l-5.46-2.88c-0.831-0.432-1.828-0.432-2.658,0l-5.46,2.88c-2.093,1.096-4.552-0.687-4.142-3.013l1.041-6.081
			c0.155-0.93-0.155-1.883-0.82-2.536l-4.419-4.308c-1.695-1.65-0.764-4.53,1.584-4.873l6.103-0.886
			c0.93-0.133,1.739-0.72,2.149-1.562l2.736-5.538c1.041-2.115,4.076-2.115,5.128,0l2.725,5.538
			c0.421,0.842,1.218,1.429,2.149,1.562l6.114,0.886c2.337,0.343,3.278,3.223,1.584,4.873L26.717,19.396z"/>
	</g>
	<g>
		<g>
			<g>
				<g>
					<path class="st5" d="M14.961,15.13c0,2.021-1.344,3.663-2.992,3.663c-1.66,0-3.003-1.643-3.003-3.663
						c0-2.021,1.344-3.663,3.003-3.663C13.617,11.466,14.961,13.109,14.961,15.13z"/>
				</g>
				<g>
					<g>
						<ellipse class="st1" cx="12.33" cy="16.161" rx="1.52" ry="1.516"/>
					</g>
					<g>
						
							<ellipse transform="matrix(0.7071 -0.7071 0.7071 0.7071 -7.239 13.6928)" class="st5" cx="12.909" cy="15.585" rx="0.31" ry="0.441"/>
					</g>
				</g>
			</g>
			<g>
				<g>
					<path class="st5" d="M17.039,15.13c0,2.021,1.344,3.663,2.992,3.663c1.66,0,3.003-1.643,3.003-3.663
						c0-2.021-1.344-3.663-3.003-3.663C18.383,11.466,17.039,13.109,17.039,15.13z"/>
				</g>
				<g>
					<g>
						<ellipse class="st1" cx="19.67" cy="16.161" rx="1.52" ry="1.516"/>
					</g>
					<g>
						
							<ellipse transform="matrix(0.7071 -0.7071 0.7071 0.7071 -5.0891 18.8829)" class="st5" cx="20.249" cy="15.585" rx="0.31" ry="0.441"/>
					</g>
				</g>
			</g>
		</g>
		<g>
			<g>
				<path class="st1" d="M21.414,21.434c-1.749,2.074-2.792,3.232-5.413,3.232c-2.63,0-3.666-1.158-5.415-3.232
					c-0.38-0.445,0.037-1.123,0.612-0.993c3.201,0.733,6.411,0.742,9.603,0.009C21.377,20.32,21.794,20.988,21.414,21.434z"/>
			</g>
			<path class="st5" d="M20.761,20.458c-3.168,0.721-6.355,0.712-9.532-0.011c1.169,1.41,1.596,1.739,4.776,1.739
				C19.167,22.186,19.6,21.858,20.761,20.458z"/>
		</g>
	</g>
</g>
</svg>
