<?xml version="1.0" encoding="utf-8"?>
<!-- Generator: Adobe Illustrator 21.1.0, SVG Export Plug-In . SVG Version: 6.00 Build 0)  -->
<svg version="1.1" id="Layer_1" xmlns="http://www.w3.org/2000/svg" xmlns:xlink="http://www.w3.org/1999/xlink" x="0px" y="0px"
	 viewBox="0 0 32 32" style="enable-background:new 0 0 32 32;" xml:space="preserve">
<style type="text/css">
	.st0{fill:#FFD93B;}
	.st1{fill:#3E4347;}
	.st2{fill:#F4C534;}
	.st3{fill:#38C0DC;}
	.st4{fill:#45CBEA;}
	.st5{fill:#FFFFFF;}
	.st6{fill:#E24B4B;}
	.st7{fill:#5A5F63;}
	.st8{opacity:0.3;}
	.st9{opacity:0.2;}
	.st10{opacity:0.1;}
	.st11{fill:#E9B02C;}
	.st12{fill:#65B1EF;}
	.st13{fill:#E9EFF4;}
	.st14{fill:#8CC63E;}
	.st15{fill:#7FB239;}
	.st16{fill:#D03F3F;}
	.st17{fill:#D23F77;}
	.st18{fill:#E84D88;}
	.st19{fill:#59A5E0;}
	.st20{fill:#DEE4E9;}
	.st21{fill:#D3D9DD;}
	.st22{opacity:0.25;fill:#FFFFFF;}
	.st23{fill:#9A795F;}
	.st24{fill:#F29A2E;}
	.st25{fill:#FC97B2;}
	.st26{fill:#89664C;}
	.st27{fill:#7A5B44;}
	.st28{opacity:0.2;fill:#FFFFFF;}
	.st29{fill:#4E99D2;}
	.st30{fill:#BBC7D1;}
	.st31{fill:#DE9C25;}
</style>
<g>
	<g>
		<g>
			<g>
				<g>
					<g>
						<g>
							<g>
								<g>
									<g>
										<g>
											<circle class="st0" cx="16" cy="15.646" r="15.646"/>
										</g>
									</g>
								</g>
							</g>
						</g>
					</g>
				</g>
			</g>
		</g>
		<g>
			<g>
				<g>
					<g>
						<g>
							<g>
								<g>
									<g>
										<g>
											<path class="st2" d="M31.646,15.646c0,8.644-7.006,15.646-15.646,15.646c-4.919,0-9.309-2.269-12.179-5.823
												c2.684,2.171,6.102,3.467,9.823,3.467c8.64,0,15.646-7.002,15.646-15.646c0-3.721-1.296-7.139-3.467-9.823
												C29.372,6.337,31.646,10.727,31.646,15.646z"/>
										</g>
									</g>
								</g>
							</g>
						</g>
					</g>
				</g>
			</g>
		</g>
	</g>
	<g>
		<g>
			<g>
				<g>
					<g>
						<g>
							<g>
								<g>
									<g>
										<path class="st1" d="M22.91,26.542c-4.609-0.824-9.21-0.824-13.819,0c-0.942,0.163-1.657-0.851-1.168-1.675
											c1.974-3.323,4.863-5.415,8.078-5.415c3.215,0,6.103,2.092,8.078,5.415C24.568,25.691,23.852,26.705,22.91,26.542z"/>
									</g>
								</g>
							</g>
						</g>
					</g>
				</g>
			</g>
		</g>
	</g>
	<g>
		<g>
			<path class="st6" d="M11.805,21.119c-0.001,0.095-0.006,0.188-0.006,0.284c0,5.853,1.881,10.597,4.202,10.597
				s4.202-4.745,4.202-10.597c0-0.096-0.005-0.188-0.006-0.284H11.805z"/>
		</g>
	</g>
	<g>
		<path class="st5" d="M10.569,21.638c1.62,0.093,3.468,0.121,5.432,0.121s3.812-0.028,5.432-0.121
			c-1.596-1.387-3.451-2.187-5.432-2.187S12.165,20.251,10.569,21.638z"/>
	</g>
	<g>
		<g>
			<g>
				<g>
					<g>
						<path class="st1" d="M26.111,11.749c-0.319,0.298-0.76,0.276-1.036,0c-1.437-1.418-3.159-1.975-5.281-1.721
							c-0.401,0.039-0.773-0.244-0.812-0.645c-0.049-0.401,0.235-0.763,0.636-0.812c2.552-0.313,4.743,0.411,6.493,2.142
							C26.395,10.996,26.395,11.456,26.111,11.749z"/>
						<path class="st1" d="M12.9,14.037l-1.164,1.154l1.164,1.164c0.332,0.333,0.332,0.87,0,1.203c-0.375,0.354-0.888,0.325-1.213,0
							l-1.154-1.154L9.37,17.558c-0.346,0.345-0.87,0.333-1.203,0c-0.333-0.333-0.333-0.87,0-1.203l1.154-1.164l-1.154-1.154
							c-0.333-0.332-0.333-0.87,0-1.213c0.333-0.332,0.87-0.332,1.203,0l1.164,1.164l1.154-1.164c0.333-0.332,0.87-0.332,1.213,0
							C13.233,13.167,13.233,13.705,12.9,14.037z"/>
						<path class="st1" d="M6.925,11.749c-0.297,0.297-0.76,0.276-1.037,0c-0.284-0.293-0.284-0.753,0-1.037
							c1.75-1.731,3.941-2.454,6.493-2.142c0.401,0.049,0.685,0.411,0.636,0.812c-0.049,0.401-0.42,0.685-0.812,0.645
							C10.084,9.774,8.353,10.331,6.925,11.749z"/>
						<path class="st1" d="M23.833,14.037l-1.154,1.154l1.154,1.164c0.332,0.333,0.332,0.87,0,1.203
							c-0.344,0.344-0.878,0.334-1.213,0l-1.154-1.154l-1.154,1.154c-0.345,0.345-0.879,0.333-1.213,0
							c-0.332-0.333-0.332-0.87,0-1.203l1.154-1.164L19.1,14.037c-0.332-0.332-0.332-0.87,0-1.213c0.333-0.332,0.88-0.332,1.213,0
							l1.154,1.154l1.154-1.154c0.332-0.332,0.88-0.332,1.213,0C24.165,13.167,24.165,13.705,23.833,14.037z"/>
					</g>
				</g>
			</g>
		</g>
	</g>
</g>
</svg>
