<?xml version="1.0" encoding="utf-8"?>
<!-- Generator: Adobe Illustrator 21.1.0, SVG Export Plug-In . SVG Version: 6.00 Build 0)  -->
<svg version="1.1" id="Layer_1" xmlns="http://www.w3.org/2000/svg" xmlns:xlink="http://www.w3.org/1999/xlink" x="0px" y="0px"
	 viewBox="0 0 32 32" style="enable-background:new 0 0 32 32;" xml:space="preserve">
<style type="text/css">
	.st0{fill:#FFD93B;}
	.st1{fill:#3E4347;}
	.st2{fill:#F4C534;}
	.st3{fill:#38C0DC;}
	.st4{fill:#45CBEA;}
	.st5{fill:#FFFFFF;}
	.st6{fill:#E24B4B;}
	.st7{fill:#5A5F63;}
	.st8{opacity:0.3;}
	.st9{opacity:0.2;}
	.st10{opacity:0.1;}
	.st11{fill:#E9B02C;}
	.st12{fill:#65B1EF;}
	.st13{fill:#E9EFF4;}
	.st14{fill:#8CC63E;}
	.st15{fill:#7FB239;}
	.st16{fill:#D03F3F;}
	.st17{fill:#D23F77;}
	.st18{fill:#E84D88;}
	.st19{fill:#59A5E0;}
	.st20{fill:#DEE4E9;}
	.st21{fill:#D3D9DD;}
	.st22{opacity:0.25;fill:#FFFFFF;}
	.st23{fill:#9A795F;}
	.st24{fill:#F29A2E;}
	.st25{fill:#FC97B2;}
	.st26{fill:#89664C;}
	.st27{fill:#7A5B44;}
	.st28{opacity:0.2;fill:#FFFFFF;}
	.st29{fill:#4E99D2;}
	.st30{fill:#BBC7D1;}
	.st31{fill:#DE9C25;}
</style>
<g>
	<g>
		<g>
			<g>
				<g>
					<g>
						<g>
							<g>
								<g>
									<g>
										<g>
											<g>
												<g>
													<g>
														<circle class="st0" cx="16" cy="15.936" r="14.863"/>
													</g>
												</g>
											</g>
										</g>
									</g>
								</g>
							</g>
						</g>
					</g>
				</g>
				<g>
					<g>
						<g>
							<g>
								<g>
									<g>
										<g>
											<g>
												<g>
													<g>
														<path class="st2" d="M30.863,15.936c0,8.212-6.656,14.863-14.863,14.863c-4.672,0-8.843-2.155-11.57-5.532
															c2.55,2.062,5.796,3.293,9.331,3.293c8.207,0,14.863-6.651,14.863-14.863c0-3.535-1.231-6.781-3.293-9.331
															C28.703,7.093,30.863,11.264,30.863,15.936z"/>
													</g>
												</g>
											</g>
										</g>
									</g>
								</g>
							</g>
						</g>
					</g>
				</g>
			</g>
		</g>
	</g>
	<path class="st19" d="M15.839,20.929c-4.61,0.01-7.58,3.1-6.76,5.4c0.8,2.33,3.8,3.44,6.76,3.48c2.97-0.04,5.96-1.15,6.76-3.48
		C23.419,24.029,20.449,20.939,15.839,20.929z M10.429,25.979c-0.16-0.7,0.49-1.46,1.51-1.69c-0.2,0.96-0.02,1.86,0.42,2.72
		C11.439,27.079,10.599,26.679,10.429,25.979z M21.249,25.979c-0.17,0.7-1.01,1.1-1.92,1.03c0.44-0.86,0.62-1.76,0.42-2.72
		C20.769,24.519,21.419,25.279,21.249,25.979z"/>
	<g>
		<g>
			<g>
				<g>
					<path class="st5" d="M14.703,13.364c0,3.047-1.858,5.518-4.152,5.518c-2.285,0-4.152-2.471-4.152-5.518
						c0-3.047,1.867-5.518,4.152-5.518C12.845,7.847,14.703,10.317,14.703,13.364z"/>
				</g>
			</g>
			<g>
				<g>
					<path class="st1" d="M12.752,14.219c0,1.393-1.143,2.527-2.536,2.527c-1.403,0-2.536-1.133-2.536-2.527
						c0-1.403,1.133-2.536,2.536-2.536C11.61,11.683,12.752,12.816,12.752,14.219z"/>
				</g>
			</g>
			<g>
				<g>
					
						<ellipse transform="matrix(0.7071 -0.7071 0.7071 0.7071 -6.1198 11.778)" class="st5" cx="11.157" cy="13.276" rx="0.481" ry="0.855"/>
				</g>
			</g>
		</g>
		<g>
			<g>
				<g>
					<path class="st5" d="M25.601,13.364c0,3.047-1.858,5.518-4.152,5.518c-2.285,0-4.152-2.471-4.152-5.518
						c0-3.047,1.867-5.518,4.152-5.518C23.743,7.847,25.601,10.317,25.601,13.364z"/>
				</g>
			</g>
			<g>
				<g>
					<path class="st1" d="M23.65,14.219c0,1.393-1.143,2.527-2.536,2.527c-1.403,0-2.536-1.133-2.536-2.527
						c0-1.403,1.133-2.536,2.536-2.536C22.508,11.683,23.65,12.816,23.65,14.219z"/>
				</g>
			</g>
			<g>
				<g>
					
						<ellipse transform="matrix(0.7071 -0.7071 0.7071 0.7071 -2.9279 19.4841)" class="st5" cx="22.055" cy="13.276" rx="0.481" ry="0.855"/>
				</g>
			</g>
		</g>
	</g>
	<g>
		<g>
			<path class="st1" d="M17.645,6.175c-1.409,0.87-3.166,0.795-4.329,0.13c1.197,0.435,2.833,0.234,3.892-0.715
				c2.038-1.827,0.084-4.269-1.17-3.641c-0.265,0.183-0.392,0.388-0.418,0.548c-0.017,0.008-0.122,0.436-0.13,0.455
				c-0.416,1.618-2.891,0.698-2.164-0.752V2.189c0.391-0.651,0.227-0.778,0.957-1.44c0.288-0.279,0.697-0.511,1.18-0.65
				C18.766-0.758,20.928,4.163,17.645,6.175z"/>
		</g>
	</g>
	<g>
		<path class="st29" d="M18.736,26.242c-0.392,1.135-1.618,1.755-2.77,1.771c-1.151-0.016-2.377-0.636-2.77-1.771
			c-0.4-1.122,0.818-2.557,2.77-2.56C17.92,23.686,19.133,25.12,18.736,26.242z"/>
	</g>
	<g>
		<g>
			<path class="st13" d="M15.967,32c-1.738,0-3.152-1.414-3.152-3.152c0-1.738,1.414-3.151,3.152-3.151
				c1.738,0,3.151,1.414,3.151,3.151C19.118,30.586,17.705,32,15.967,32z M15.967,26.615c-1.232,0-2.234,1.002-2.234,2.233
				c0,1.231,1.002,2.233,2.234,2.233c1.231,0,2.233-1.002,2.233-2.233C18.2,27.617,17.199,26.615,15.967,26.615z"/>
		</g>
	</g>
	<g>
		<path class="st12" d="M17.631,26.208c-0.234,0.681-0.975,1.054-1.664,1.065c-0.691-0.01-1.43-0.383-1.665-1.065
			c-0.239-0.673,0.493-1.537,1.665-1.538C17.14,24.671,17.872,25.535,17.631,26.208z"/>
	</g>
</g>
</svg>
