<?xml version="1.0" encoding="utf-8"?>
<!-- Generator: Adobe Illustrator 21.1.0, SVG Export Plug-In . SVG Version: 6.00 Build 0)  -->
<svg version="1.1" id="Layer_1" xmlns="http://www.w3.org/2000/svg" xmlns:xlink="http://www.w3.org/1999/xlink" x="0px" y="0px"
	 viewBox="0 0 32 32" style="enable-background:new 0 0 32 32;" xml:space="preserve">
<style type="text/css">
	.st0{fill:#FFD93B;}
	.st1{fill:#3E4347;}
	.st2{fill:#F4C534;}
	.st3{fill:#38C0DC;}
	.st4{fill:#45CBEA;}
	.st5{fill:#FFFFFF;}
	.st6{fill:#E24B4B;}
	.st7{fill:#5A5F63;}
	.st8{opacity:0.3;}
	.st9{opacity:0.2;}
	.st10{opacity:0.1;}
	.st11{fill:#E9B02C;}
	.st12{fill:#65B1EF;}
	.st13{fill:#E9EFF4;}
	.st14{fill:#8CC63E;}
	.st15{fill:#7FB239;}
	.st16{fill:#D03F3F;}
	.st17{fill:#D23F77;}
	.st18{fill:#E84D88;}
	.st19{fill:#59A5E0;}
	.st20{fill:#DEE4E9;}
	.st21{fill:#D3D9DD;}
	.st22{opacity:0.25;fill:#FFFFFF;}
	.st23{fill:#9A795F;}
	.st24{fill:#F29A2E;}
	.st25{fill:#FC97B2;}
	.st26{fill:#89664C;}
	.st27{fill:#7A5B44;}
	.st28{opacity:0.2;fill:#FFFFFF;}
	.st29{fill:#4E99D2;}
	.st30{fill:#BBC7D1;}
	.st31{fill:#DE9C25;}
</style>
<g>
	<path class="st2" d="M3.218,26.158l26.29-0.135V0.782c0-0.43-0.353-0.783-0.783-0.783H4.653c-1.193,0-2.158,0.964-2.158,2.158V28.4
		c0,0.634,0.282,1.199,0.722,1.593V26.158z"/>
	<path class="st1" d="M3.662,26.364h4.421V-0.001H4.653c-1.193,0-2.158,0.964-2.158,2.158V28.4c0,0.827,0.476,1.538,1.166,1.897
		V26.364z"/>
	<path class="st13" d="M29.507,26.023c-0.838,1.582-0.984,3.679-0.146,5.26c0,0.43-0.207,0.339-0.637,0.339H4.653
		c-1.193,0-1.529-1.026-1.529-2.21v-2.005c0-1.193,0.335-1.287,1.529-1.287h24.072C29.154,26.121,29.507,25.594,29.507,26.023z"/>
	<ellipse class="st5" cx="14.622" cy="9.455" rx="3.186" ry="3.962"/>
	<path class="st1" d="M16.264,10.299c-0.006,0.878-0.74,1.597-1.637,1.593c-0.896-0.004-1.612-0.728-1.606-1.606
		c0.006-0.887,0.732-1.605,1.628-1.602C15.546,8.688,16.27,9.412,16.264,10.299z"/>
	<path class="st5" d="M15.599,10.061c-0.123,0.123-0.379,0.066-0.576-0.132c-0.198-0.198-0.255-0.453-0.14-0.576
		c0.123-0.123,0.387-0.066,0.584,0.132C15.665,9.683,15.723,9.938,15.599,10.061z"/>
	<ellipse class="st5" cx="22.941" cy="9.455" rx="3.186" ry="3.962"/>
	<path class="st1" d="M24.583,10.299c-0.006,0.878-0.74,1.597-1.637,1.593c-0.896-0.004-1.612-0.728-1.606-1.606
		c0.006-0.887,0.732-1.605,1.628-1.602C23.865,8.688,24.589,9.412,24.583,10.299z"/>
	<path class="st5" d="M23.918,10.061c-0.123,0.123-0.379,0.066-0.576-0.132c-0.198-0.198-0.255-0.453-0.14-0.576
		c0.123-0.123,0.387-0.066,0.584,0.132C23.984,9.683,24.042,9.938,23.918,10.061z"/>
	<path class="st1" d="M25.431,16.352c-0.663,2.432-2.844,4.552-6.009,5.025c-3.859,0.422-6.301-1.588-7.235-3.065
		c-0.231-0.382,0.07-0.864,0.513-0.854c1.718,0.06,5.266,0.1,10.049-1.236c0.744-0.211,1.437-0.402,1.98-0.563
		C25.149,15.538,25.551,15.93,25.431,16.352z"/>
	<path class="st5" d="M19.128,18.619c3.189-0.476,4.726-0.988,5.529-2.941c-0.533,0.157-1.195,0.34-1.91,0.543
		c-4.386,1.225-7.714,1.292-9.564,1.249C14.479,18.502,16.446,18.916,19.128,18.619z"/>
	<path class="st6" d="M19.421,21.376c1.306-0.195,2.432-0.681,3.365-1.343c-0.577-1.159-1.887-1.576-2.919-1.067
		c-0.406,0.2-0.843,0.309-1.298,0.339c-1.296,0.073-1.941,0.914-2.033,1.908C17.391,21.41,18.345,21.494,19.421,21.376z"/>
	<path class="st0" d="M8.082,26.739h20.709c0.391,0,0.716-0.325,0.716-0.716c0-0.391-0.325-0.716-0.716-0.716H8.082V26.739z"/>
	<path class="st0" d="M28.792,30.567H8.082v1.432h20.709c0.391,0,0.716-0.325,0.716-0.716S29.183,30.567,28.792,30.567z"/>
	<path class="st7" d="M3.923,27.471v2.38c0,0.39,0.33,0.72,0.73,0.72h3.43v1.43h-3.43c-1.19,0-2.16-0.97-2.16-2.15v-2.39
		c0-1.19,0.97-2.15,2.16-2.15h3.43v1.43h-3.42C4.263,26.741,3.923,27.071,3.923,27.471z"/>
</g>
</svg>
