<?xml version="1.0" encoding="utf-8"?>
<!-- Generator: Adobe Illustrator 21.1.0, SVG Export Plug-In . SVG Version: 6.00 Build 0)  -->
<svg version="1.1" id="Layer_1" xmlns="http://www.w3.org/2000/svg" xmlns:xlink="http://www.w3.org/1999/xlink" x="0px" y="0px"
	 viewBox="0 0 32 32" style="enable-background:new 0 0 32 32;" xml:space="preserve">
<style type="text/css">
	.st0{fill:#FFD93B;}
	.st1{fill:#3E4347;}
	.st2{fill:#F4C534;}
	.st3{fill:#38C0DC;}
	.st4{fill:#45CBEA;}
	.st5{fill:#FFFFFF;}
	.st6{fill:#E24B4B;}
	.st7{fill:#5A5F63;}
	.st8{opacity:0.3;}
	.st9{opacity:0.2;}
	.st10{opacity:0.1;}
	.st11{fill:#E9B02C;}
	.st12{fill:#65B1EF;}
	.st13{fill:#E9EFF4;}
	.st14{fill:#8CC63E;}
	.st15{fill:#7FB239;}
	.st16{fill:#D03F3F;}
	.st17{fill:#D23F77;}
	.st18{fill:#E84D88;}
	.st19{fill:#59A5E0;}
	.st20{fill:#DEE4E9;}
	.st21{fill:#D3D9DD;}
	.st22{opacity:0.25;fill:#FFFFFF;}
	.st23{fill:#9A795F;}
	.st24{fill:#F29A2E;}
	.st25{fill:#FC97B2;}
	.st26{fill:#89664C;}
	.st27{fill:#7A5B44;}
	.st28{opacity:0.2;fill:#FFFFFF;}
	.st29{fill:#4E99D2;}
	.st30{fill:#BBC7D1;}
	.st31{fill:#DE9C25;}
</style>
<g>
	<g>
		<g>
			<circle class="st0" cx="16" cy="16" r="16"/>
		</g>
		<g>
			<path class="st2" d="M16,32c-5.03,0-9.52-2.32-12.455-5.955c2.745,2.22,6.24,3.545,10.045,3.545
				c13.494,0,20.837-15.681,12.455-26.045C37.698,12.967,31.109,32,16,32z"/>
		</g>
	</g>
	<g>
		<g>
			<g>
				<path class="st5" d="M15.088,14.712c0,2.971-2.413,5.383-5.391,5.383c-2.971,0-5.383-2.413-5.383-5.383
					c0-2.979,2.413-5.383,5.383-5.383C12.676,9.329,15.088,11.733,15.088,14.712z"/>
			</g>
			<g>
				<path class="st1" d="M13.501,8.162c-0.706,1.783-2.136-1.112-5.864,0.017C6.196,8.588,4.85,9.566,3.885,11.172
					c-0.122,0.243-0.411,0.305-0.62,0.175c-0.394-0.233-0.139-0.603,0.061-1.004c0.929-1.695,2.368-2.857,3.874-3.429
					C9.798,5.914,14.171,6.472,13.501,8.162z"/>
			</g>
			<g>
				<g>
					<path class="st1" d="M11.211,12.753c0,1.335-1.082,2.417-2.425,2.417c-1.335,0-2.417-1.082-2.417-2.417
						c0-1.335,1.082-2.417,2.417-2.417C10.129,10.336,11.211,11.418,11.211,12.753z"/>
				</g>
				<g>
					
						<ellipse transform="matrix(0.7071 -0.7071 0.7071 0.7071 -5.5843 10.3058)" class="st5" cx="9.649" cy="11.894" rx="0.449" ry="0.716"/>
				</g>
			</g>
		</g>
		<g>
			<g>
				<path class="st5" d="M16.912,14.712c0,2.971,2.413,5.383,5.391,5.383c2.971,0,5.383-2.413,5.383-5.383
					c0-2.979-2.413-5.383-5.383-5.383C19.324,9.329,16.912,11.733,16.912,14.712z"/>
			</g>
			<g>
				<path class="st1" d="M18.499,8.162c0.706,1.783,2.136-1.112,5.864,0.017c1.442,0.409,2.788,1.387,3.752,2.993
					c0.122,0.243,0.411,0.305,0.62,0.175c0.394-0.233,0.139-0.603-0.061-1.004c-0.929-1.695-2.368-2.857-3.874-3.429
					C22.202,5.914,17.829,6.472,18.499,8.162z"/>
			</g>
			<g>
				<g>
					<path class="st1" d="M23.809,12.753c0,1.335-1.082,2.417-2.425,2.417c-1.335,0-2.417-1.082-2.417-2.417
						c0-1.335,1.082-2.417,2.417-2.417C22.727,10.336,23.809,11.418,23.809,12.753z"/>
				</g>
				<g>
					
						<ellipse transform="matrix(0.7071 -0.7071 0.7071 0.7071 -1.8948 19.2134)" class="st5" cx="22.246" cy="11.894" rx="0.449" ry="0.716"/>
				</g>
			</g>
		</g>
	</g>
	<g>
		<path class="st1" d="M22.491,24.291c-0.628-0.444-1.31-0.487-1.93-0.59c-8.453-0.562-10.27,2.27-10.27,2.27
			c-0.781,0.592-1.691-0.593-0.89-1.2c2.248,0,3.49-5.661,11.38-2.53c0.586,0.192,1.563,0.6,2.18,0.6
			C24.297,22.872,23.691,25.091,22.491,24.291z"/>
	</g>
</g>
</svg>
