<?xml version="1.0" encoding="utf-8"?>
<!-- Generator: Adobe Illustrator 21.1.0, SVG Export Plug-In . SVG Version: 6.00 Build 0)  -->
<svg version="1.1" id="Layer_1" xmlns="http://www.w3.org/2000/svg" xmlns:xlink="http://www.w3.org/1999/xlink" x="0px" y="0px"
	 viewBox="0 0 32 32" style="enable-background:new 0 0 32 32;" xml:space="preserve">
<style type="text/css">
	.st0{fill:#FFD93B;}
	.st1{fill:#3E4347;}
	.st2{fill:#F4C534;}
	.st3{fill:#38C0DC;}
	.st4{fill:#45CBEA;}
	.st5{fill:#FFFFFF;}
	.st6{fill:#E24B4B;}
	.st7{fill:#5A5F63;}
	.st8{opacity:0.3;}
	.st9{opacity:0.2;}
	.st10{opacity:0.1;}
	.st11{fill:#E9B02C;}
	.st12{fill:#65B1EF;}
	.st13{fill:#E9EFF4;}
	.st14{fill:#8CC63E;}
	.st15{fill:#7FB239;}
	.st16{fill:#D03F3F;}
	.st17{fill:#D23F77;}
	.st18{fill:#E84D88;}
	.st19{fill:#59A5E0;}
	.st20{fill:#DEE4E9;}
	.st21{fill:#D3D9DD;}
	.st22{opacity:0.25;fill:#FFFFFF;}
	.st23{fill:#9A795F;}
	.st24{fill:#F29A2E;}
	.st25{fill:#FC97B2;}
	.st26{fill:#89664C;}
	.st27{fill:#7A5B44;}
	.st28{opacity:0.2;fill:#FFFFFF;}
	.st29{fill:#4E99D2;}
	.st30{fill:#BBC7D1;}
	.st31{fill:#DE9C25;}
</style>
<g>
	<g>
		<g>
			<g>
				<g>
					<g>
						<g>
							<g>
								<g>
									<g>
										<g>
											<g>
												<g>
													<circle class="st0" cx="14.883" cy="17.167" r="14.833"/>
												</g>
											</g>
										</g>
									</g>
								</g>
							</g>
						</g>
					</g>
				</g>
				<g>
					<g>
						<g>
							<g>
								<g>
									<g>
										<g>
											<g>
												<g>
													<path class="st2" d="M29.716,17.167C29.716,25.362,23.074,32,14.883,32c-4.663,0-8.826-2.151-11.547-5.521
														c2.545,2.058,5.785,3.286,9.312,3.286c8.191,0,14.833-6.638,14.833-14.833c0-3.527-1.228-6.768-3.286-9.312
														C27.561,8.341,29.716,12.504,29.716,17.167z"/>
												</g>
											</g>
										</g>
									</g>
								</g>
							</g>
						</g>
					</g>
				</g>
			</g>
		</g>
	</g>
	<path class="st13" d="M31.95,4.506c0,2.472-2.461,4.471-5.522,4.517l-3.373,1.433c-0.289,0.127-0.612-0.093-0.612-0.404V7.763
		c-1.074-0.82-1.744-1.975-1.744-3.258C20.698,2.01,23.216,0,26.324,0C29.432,0,31.95,2.01,31.95,4.506z"/>
	<path class="st16" d="M23.456,3.391c1.429,0,1.429,2.245,0.006,2.245C22.017,5.636,22.051,3.391,23.456,3.391z M23.461,5.261
		c0.794,0,0.832-1.496,0-1.496C22.631,3.766,22.655,5.261,23.461,5.261z"/>
	<path class="st16" d="M24.849,5.599V3.428h0.656l0.394,1.481l0.389-1.481h0.658v2.171h-0.407V3.89l-0.431,1.709h-0.422l-0.43-1.709
		v1.709H24.849z"/>
	<path class="st16" d="M28.391,4.801V4.435h0.945V5.3c-0.686,0.663-2.031,0.416-2.031-0.794c0-1.401,1.797-1.417,2.002-0.477
		l-0.435,0.081c-0.153-0.535-1.115-0.52-1.115,0.378c0,0.808,0.652,0.963,1.136,0.588V4.801H28.391z"/>
	<path class="st16" d="M29.9,5.039c-0.136-1.387-0.108-1.172-0.108-1.611h0.45c0,0.44,0.028,0.224-0.107,1.611H29.9z M29.81,5.599
		V5.183h0.416v0.416H29.81z"/>
	<path class="st1" d="M19.977,27.933c-0.052,0.826-0.909,1.327-1.683,1.056c-2.341-0.846-4.682-0.846-7.023,0
		c-0.773,0.272-1.63-0.23-1.683-1.056c-0.178-2.916,2.163-5.476,5.194-5.476C17.814,22.457,20.155,25.017,19.977,27.933z"/>
	<path class="st5" d="M11.236,23.856c0.922,0.475,2.104,0.617,3.357,0.617c1.364,0,2.64-0.171,3.591-0.753
		c-0.905-0.782-2.088-1.264-3.402-1.264C13.397,22.457,12.159,22.996,11.236,23.856z"/>
	<path class="st6" d="M14.844,26.036c-0.391,0.169-0.805,0.261-1.227,0.291c-1.397,0.108-2.078,1.261-1.791,2.485
		c1.921-0.585,3.843-0.603,5.764-0.047C17.966,27.043,16.746,25.237,14.844,26.036z"/>
	<path class="st5" d="M18.778,12.413c-0.273-0.106-0.525-0.235-0.76-0.382c-1.124,0.909-1.878,2.556-1.878,4.439
		c0,2.87,1.737,5.196,3.874,5.196c2.137,0,3.875-2.326,3.875-5.196c0-1.047-0.234-2.021-0.634-2.837
		C20.56,13.51,18.588,12.348,18.778,12.413z"/>
	<path class="st1" d="M24.138,13.301c0.045,0.279-0.143,0.536-0.415,0.582c-2.44,0.422-5.478-0.697-7.167-2.069
		c-0.219-0.181-0.257-0.498-0.083-0.718c0.174-0.219,0.498-0.257,0.718-0.083c0.03,0.023,3.074,2.394,6.367,1.866
		C23.836,12.833,24.1,13.021,24.138,13.301z"/>
	<circle class="st1" cx="19.752" cy="18.035" r="1.857"/>
	
		<ellipse transform="matrix(0.7071 -0.7071 0.7071 0.7071 -6.2464 19.5285)" class="st5" cx="20.45" cy="17.304" rx="0.346" ry="0.578"/>
	<path class="st5" d="M10.988,12.413c0.273-0.106,0.525-0.235,0.76-0.382c1.124,0.909,1.878,2.556,1.878,4.439
		c0,2.87-1.737,5.196-3.874,5.196c-2.137,0-3.875-2.326-3.875-5.196c0-1.047,0.234-2.021,0.634-2.837
		C9.206,13.51,11.178,12.348,10.988,12.413z"/>
	<path class="st1" d="M5.628,13.301c-0.045,0.279,0.143,0.536,0.415,0.582c2.44,0.422,5.478-0.697,7.167-2.069
		c0.219-0.181,0.257-0.498,0.083-0.718c-0.174-0.219-0.498-0.257-0.718-0.083c-0.03,0.023-3.074,2.394-6.367,1.866
		C5.93,12.833,5.666,13.021,5.628,13.301z"/>
	<circle class="st1" cx="10.014" cy="18.035" r="1.857"/>
	
		<ellipse transform="matrix(0.7071 -0.7071 0.7071 0.7071 -9.5074 11.6558)" class="st5" cx="9.316" cy="17.304" rx="0.578" ry="0.346"/>
</g>
</svg>
