<?xml version="1.0" encoding="utf-8"?>
<!-- Generator: Adobe Illustrator 21.1.0, SVG Export Plug-In . SVG Version: 6.00 Build 0)  -->
<svg version="1.1" id="Layer_1" xmlns="http://www.w3.org/2000/svg" xmlns:xlink="http://www.w3.org/1999/xlink" x="0px" y="0px"
	 viewBox="0 0 32 32" style="enable-background:new 0 0 32 32;" xml:space="preserve">
<style type="text/css">
	.st0{fill:#FFD93B;}
	.st1{fill:#3E4347;}
	.st2{fill:#F4C534;}
	.st3{fill:#38C0DC;}
	.st4{fill:#45CBEA;}
	.st5{fill:#FFFFFF;}
	.st6{fill:#E24B4B;}
	.st7{fill:#5A5F63;}
	.st8{opacity:0.3;}
	.st9{opacity:0.2;}
	.st10{opacity:0.1;}
	.st11{fill:#E9B02C;}
	.st12{fill:#65B1EF;}
	.st13{fill:#E9EFF4;}
	.st14{fill:#8CC63E;}
	.st15{fill:#7FB239;}
	.st16{fill:#D03F3F;}
	.st17{fill:#D23F77;}
	.st18{fill:#E84D88;}
	.st19{fill:#59A5E0;}
	.st20{fill:#DEE4E9;}
	.st21{fill:#D3D9DD;}
	.st22{opacity:0.25;fill:#FFFFFF;}
	.st23{fill:#9A795F;}
	.st24{fill:#F29A2E;}
	.st25{fill:#FC97B2;}
	.st26{fill:#89664C;}
	.st27{fill:#7A5B44;}
	.st28{opacity:0.2;fill:#FFFFFF;}
	.st29{fill:#4E99D2;}
	.st30{fill:#BBC7D1;}
	.st31{fill:#DE9C25;}
</style>
<g>
	<circle class="st0" cx="16" cy="16" r="16"/>
	<path class="st2" d="M31.924,16c0,8.84-7.165,16-16,16c-5.03,0-9.52-2.32-12.455-5.955c2.745,2.22,6.24,3.545,10.045,3.545
		c8.835,0,16-7.16,16-16c0-3.805-1.325-7.3-3.545-10.045C29.599,6.48,31.924,10.97,31.924,16z"/>
	<ellipse class="st5" cx="16.002" cy="11.075" rx="7.132" ry="7.128"/>
	<ellipse class="st1" cx="16" cy="11.077" rx="4.192" ry="4.196"/>
	
		<ellipse transform="matrix(0.7072 -0.7071 0.7071 0.7072 -1.466 15.3467)" class="st5" cx="17.794" cy="9.443" rx="0.765" ry="1.134"/>
	<path class="st1" d="M25.301,22.173c-1.504,3.661-5.099,6.235-9.3,6.235s-7.796-2.573-9.309-6.235
		c-0.142-0.34,0.095-0.738,0.464-0.813c5.894-1.098,11.798-1.098,17.682,0C25.206,21.435,25.443,21.832,25.301,22.173z"/>
	<path class="st5" d="M7.37,21.324c1.116,1.817,4.61,2.012,8.779,2.012c4.114,0,7.615-0.195,8.779-1.937
		c-0.031-0.012-0.057-0.034-0.09-0.041C19.024,20.275,13.193,20.266,7.37,21.324z"/>
</g>
</svg>
