<?xml version="1.0" encoding="utf-8"?>
<!-- Generator: Adobe Illustrator 21.1.0, SVG Export Plug-In . SVG Version: 6.00 Build 0)  -->
<svg version="1.1" id="Layer_1" xmlns="http://www.w3.org/2000/svg" xmlns:xlink="http://www.w3.org/1999/xlink" x="0px" y="0px"
	 viewBox="0 0 32 32" style="enable-background:new 0 0 32 32;" xml:space="preserve">
<style type="text/css">
	.st0{fill:#FFD93B;}
	.st1{fill:#3E4347;}
	.st2{fill:#F4C534;}
	.st3{fill:#38C0DC;}
	.st4{fill:#45CBEA;}
	.st5{fill:#FFFFFF;}
	.st6{fill:#E24B4B;}
	.st7{fill:#5A5F63;}
	.st8{opacity:0.3;}
	.st9{opacity:0.2;}
	.st10{opacity:0.1;}
	.st11{fill:#E9B02C;}
	.st12{fill:#65B1EF;}
	.st13{fill:#E9EFF4;}
	.st14{fill:#8CC63E;}
	.st15{fill:#7FB239;}
	.st16{fill:#D03F3F;}
	.st17{fill:#D23F77;}
	.st18{fill:#E84D88;}
	.st19{fill:#59A5E0;}
	.st20{fill:#DEE4E9;}
	.st21{fill:#D3D9DD;}
	.st22{opacity:0.25;fill:#FFFFFF;}
	.st23{fill:#9A795F;}
	.st24{fill:#F29A2E;}
	.st25{fill:#FC97B2;}
	.st26{fill:#89664C;}
	.st27{fill:#7A5B44;}
	.st28{opacity:0.2;fill:#FFFFFF;}
	.st29{fill:#4E99D2;}
	.st30{fill:#BBC7D1;}
	.st31{fill:#DE9C25;}
</style>
<g>
	<circle class="st0" cx="16" cy="16" r="16"/>
	
		<ellipse transform="matrix(0.1665 -0.986 0.986 0.1665 -6.0389 21.2418)" class="st2" cx="9.545" cy="14.193" rx="5.845" ry="5.844"/>
	<circle class="st5" cx="9.545" cy="14.193" r="4.519"/>
	<circle class="st1" cx="9.545" cy="14.193" r="2.549"/>
	<path class="st5" d="M10.947,13.725c-0.167,0.167-0.523,0.1-0.779-0.156c-0.256-0.256-0.323-0.612-0.156-0.779
		c0.178-0.178,0.534-0.111,0.79,0.145C11.059,13.191,11.125,13.547,10.947,13.725z"/>
	<path class="st2" d="M9.701,13.267c2.246,0.379,4.284,0.073,5.445-0.678c-0.602-2.093-2.336-3.772-4.628-4.159
		s-4.481,0.629-5.737,2.409C5.631,11.93,7.455,12.887,9.701,13.267z"/>
	<path class="st0" d="M16.598,10.812c-0.206,1.647-3.016,2.565-6.276,2.049c-3.26-0.516-5.735-2.269-5.529-3.916
		c0.206-1.647,3.016-2.564,6.276-2.049C14.33,7.411,16.804,9.164,16.598,10.812z"/>
	
		<ellipse transform="matrix(0.986 -0.1665 0.1665 0.986 -2.0492 3.9358)" class="st2" cx="22.455" cy="14.193" rx="6.309" ry="6.309"/>
	<circle class="st5" cx="22.455" cy="14.193" r="4.878"/>
	<circle class="st1" cx="22.455" cy="14.193" r="2.752"/>
	<path class="st5" d="M20.941,13.688c0.18,0.18,0.565,0.108,0.841-0.168c0.276-0.276,0.348-0.661,0.168-0.841
		c-0.192-0.192-0.577-0.12-0.853,0.156C20.821,13.111,20.749,13.496,20.941,13.688z"/>
	<path class="st2" d="M32,16c0,8.84-7.165,16-16,16c-5.03,0-9.52-2.32-12.455-5.955c2.745,2.22,6.24,3.545,10.045,3.545
		c8.835,0,16-7.16,16-16c0-3.805-1.325-7.3-3.545-10.045C29.675,6.48,32,10.97,32,16z"/>
	<path class="st1" d="M23.33,23.943c0,1.146-3.28,4.702-7.33,2.643c-4.051-2.053-7.33-0.866-7.33-2.643
		c0-1.784,3.28-0.591,7.33-2.644C20.05,19.245,23.33,22.794,23.33,23.943z"/>
	<path class="st5" d="M16,21.299c-2.342,1.187-4.422,1.29-5.763,1.51c1.46,0.864,3.499,0.596,5.763,0.305
		c2.19-0.284,4.887-0.591,6.511-0.633C21.293,21.172,18.838,19.86,16,21.299z"/>
	<path class="st6" d="M16,26.587c1.882,0.957,3.593,0.695,4.89,0.032c0.048-1.359-0.85-2.627-2.185-2.976
		c-0.741-0.194-1.476-0.095-2.098,0.216c-0.473,0.242-1.018,0.283-1.529,0.137c-1.118-0.318-2.396,0.252-2.908,1.368
		C13.286,25.555,14.594,25.874,16,26.587z"/>
	<g class="st9">
		
			<ellipse transform="matrix(0.2601 -0.9656 0.9656 0.2601 -10.2241 36.1033)" class="st5" cx="18.445" cy="24.723" rx="0.46" ry="0.88"/>
	</g>
</g>
</svg>
