<?xml version="1.0" encoding="utf-8"?>
<!-- Generator: Adobe Illustrator 21.1.0, SVG Export Plug-In . SVG Version: 6.00 Build 0)  -->
<svg version="1.1" id="Layer_1" xmlns="http://www.w3.org/2000/svg" xmlns:xlink="http://www.w3.org/1999/xlink" x="0px" y="0px"
	 viewBox="0 0 32 32" style="enable-background:new 0 0 32 32;" xml:space="preserve">
<style type="text/css">
	.st0{fill:#FFD93B;}
	.st1{fill:#3E4347;}
	.st2{fill:#F4C534;}
	.st3{fill:#38C0DC;}
	.st4{fill:#45CBEA;}
	.st5{fill:#FFFFFF;}
	.st6{fill:#E24B4B;}
	.st7{fill:#5A5F63;}
	.st8{opacity:0.3;}
	.st9{opacity:0.2;}
	.st10{opacity:0.1;}
	.st11{fill:#E9B02C;}
	.st12{fill:#65B1EF;}
	.st13{fill:#E9EFF4;}
	.st14{fill:#8CC63E;}
	.st15{fill:#7FB239;}
	.st16{fill:#D03F3F;}
	.st17{fill:#D23F77;}
	.st18{fill:#E84D88;}
	.st19{fill:#59A5E0;}
	.st20{fill:#DEE4E9;}
	.st21{fill:#D3D9DD;}
	.st22{opacity:0.25;fill:#FFFFFF;}
	.st23{fill:#9A795F;}
	.st24{fill:#F29A2E;}
	.st25{fill:#FC97B2;}
	.st26{fill:#89664C;}
	.st27{fill:#7A5B44;}
	.st28{opacity:0.2;fill:#FFFFFF;}
	.st29{fill:#4E99D2;}
	.st30{fill:#BBC7D1;}
	.st31{fill:#DE9C25;}
</style>
<g>
	<g>
		<g>
			<g>
				<g>
					<g>
						<g>
							<g>
								<g>
									<g>
										<g>
											<g>
												<g>
													<g>
														<g>
															<g>
																<g>
																	<g>
																		<g>
																			<g>
																				<g>
																					<g>
																						<g>
																							<g>
																								<g>
																									<circle class="st0" cx="16" cy="16" r="16"/>
																								</g>
																							</g>
																						</g>
																					</g>
																				</g>
																				<g>
																					<g>
																						<g>
																							<g>
																								<g>
																									<path class="st2" d="M32,16c0,8.84-7.165,16-16,16c-5.03,0-9.52-2.32-12.455-5.955
																										c2.745,2.22,6.24,3.545,10.045,3.545c8.835,0,16-7.16,16-16c0-3.805-1.325-7.3-3.545-10.045
																										C29.675,6.48,32,10.97,32,16z"/>
																								</g>
																							</g>
																						</g>
																					</g>
																				</g>
																			</g>
																		</g>
																	</g>
																</g>
															</g>
														</g>
													</g>
												</g>
											</g>
										</g>
									</g>
								</g>
							</g>
						</g>
					</g>
				</g>
			</g>
		</g>
	</g>
	<g>
		<g>
			<ellipse class="st2" cx="21.941" cy="13.986" rx="4.911" ry="3.603"/>
		</g>
		<g>
			<path class="st5" d="M26.852,13.986c0,1.99-2.049,3.412-4.577,3.177c-2.528-0.235-4.577-2.039-4.577-4.029
				s2.049-3.412,4.577-3.177C24.803,10.193,26.852,11.996,26.852,13.986z"/>
		</g>
	</g>
	<g>
		<g>
			<path class="st1" d="M26.988,13.985c-0.315-1.144-2.3-3.503-3.491-3.456c-1.705,0.082-3.398,2.826-7.006,1.798l0.747-1.214
				c1.168-0.058,2.254-0.374,3.772-1.822C23.392,6.991,27.28,7.925,26.988,13.985z"/>
		</g>
	</g>
	<g>
		<ellipse class="st1" cx="21.31" cy="14.46" rx="1.436" ry="1.642"/>
	</g>
	<g>
		<path class="st7" d="M22.154,14.044c-0.105,0.094-0.315,0.035-0.479-0.152c-0.152-0.175-0.187-0.397-0.07-0.491
			c0.105-0.093,0.327-0.035,0.479,0.152C22.236,13.728,22.271,13.95,22.154,14.044z"/>
	</g>
	<g>
		<g>
			<ellipse class="st2" cx="10.059" cy="13.986" rx="4.911" ry="3.603"/>
		</g>
		<g>
			<path class="st5" d="M5.148,13.986c0,1.99,2.049,3.412,4.577,3.177c2.528-0.235,4.577-2.039,4.577-4.029
				s-2.049-3.412-4.577-3.177C7.197,10.193,5.148,11.996,5.148,13.986z"/>
		</g>
	</g>
	<g>
		<g>
			<path class="st1" d="M5.012,13.985c0.315-1.144,2.3-3.503,3.491-3.456c1.705,0.082,3.398,2.826,7.006,1.798l-0.747-1.214
				c-1.168-0.058-2.254-0.374-3.772-1.822C8.608,6.991,4.72,7.925,5.012,13.985z"/>
		</g>
	</g>
	<g>
		<ellipse class="st1" cx="10.69" cy="14.46" rx="1.436" ry="1.642"/>
	</g>
	<g>
		<path class="st7" d="M9.846,14.044c0.105,0.094,0.315,0.035,0.479-0.152c0.152-0.175,0.187-0.397,0.07-0.491
			c-0.105-0.093-0.327-0.035-0.479,0.152C9.764,13.728,9.729,13.95,9.846,14.044z"/>
	</g>
	<path class="st2" d="M22.144,25.912c0.041-3.503-1.699-9.078-5.374-7.202c-3.702,2.284-7.185,5.516-7.102,6.98
		C14.15,27.019,18.628,22.129,22.144,25.912z"/>
	<path class="st1" d="M10.463,25.344c0.581-1.292,3.395-4.416,6.301-5.938c2.66-1.25,4.301,1.914,4.642,5.019
		c-1.423-0.914-3.004-0.86-4.766-0.362C14.763,24.547,12.711,25.621,10.463,25.344z"/>
	<path class="st2" d="M23.095,26.181c0-0.001-0.124-0.044-0.289-0.094c-0.163-0.04-0.375-0.108-0.553-0.075
		c-0.365-0.011-0.672,0.345-0.692,0.339c0.005,0.009-0.013-0.167,0.065-0.363c0.039-0.096,0.095-0.212,0.188-0.282
		c0.089-0.078,0.203-0.126,0.323-0.149c0.25-0.015,0.507,0.12,0.683,0.287C22.999,26.011,23.096,26.183,23.095,26.181z"/>
	<path class="st2" d="M10.235,26.56c0-0.001-0.085-0.115-0.2-0.271c-0.119-0.156-0.255-0.358-0.422-0.541
		c-0.291-0.357-0.753-0.758-0.765-0.784c0,0.004,0.1,0.025,0.289,0.136c0.091,0.058,0.211,0.127,0.328,0.229
		c0.12,0.098,0.239,0.213,0.348,0.328c0.206,0.238,0.335,0.475,0.384,0.643C10.25,26.467,10.235,26.558,10.235,26.56z"/>
	<path class="st6" d="M11.727,25.381c1.757-0.156,3.395-0.912,4.912-1.317c0.737-0.204,1.435-0.329,2.111-0.345
		c-0.048-0.155-0.087-0.311-0.146-0.467c-1.058-2.71-2.902-0.294-2.882-0.361C15.192,22.17,12.413,23.837,11.727,25.381z"/>
	<path class="st5" d="M17.526,19.188l-0.012-0.025c-0.242,0.042-0.488,0.121-0.75,0.244c-1.31,0.687-2.598,1.695-3.675,2.718
		l0.017,0.014C14.516,21.868,17.986,20.458,17.526,19.188z"/>
</g>
</svg>
