<?xml version="1.0" encoding="utf-8"?>
<!-- Generator: Adobe Illustrator 21.1.0, SVG Export Plug-In . SVG Version: 6.00 Build 0)  -->
<svg version="1.1" id="Layer_1" xmlns="http://www.w3.org/2000/svg" xmlns:xlink="http://www.w3.org/1999/xlink" x="0px" y="0px"
	 viewBox="0 0 32 32" style="enable-background:new 0 0 32 32;" xml:space="preserve">
<style type="text/css">
	.st0{fill:#FFD93B;}
	.st1{fill:#3E4347;}
	.st2{fill:#F4C534;}
	.st3{fill:#38C0DC;}
	.st4{fill:#45CBEA;}
	.st5{fill:#FFFFFF;}
	.st6{fill:#E24B4B;}
	.st7{fill:#5A5F63;}
	.st8{opacity:0.3;}
	.st9{opacity:0.2;}
	.st10{opacity:0.1;}
	.st11{fill:#E9B02C;}
	.st12{fill:#65B1EF;}
	.st13{fill:#E9EFF4;}
	.st14{fill:#8CC63E;}
	.st15{fill:#7FB239;}
	.st16{fill:#D03F3F;}
	.st17{fill:#D23F77;}
	.st18{fill:#E84D88;}
	.st19{fill:#59A5E0;}
	.st20{fill:#DEE4E9;}
	.st21{fill:#D3D9DD;}
	.st22{opacity:0.25;fill:#FFFFFF;}
	.st23{fill:#9A795F;}
	.st24{fill:#F29A2E;}
	.st25{fill:#FC97B2;}
	.st26{fill:#89664C;}
	.st27{fill:#7A5B44;}
	.st28{opacity:0.2;fill:#FFFFFF;}
	.st29{fill:#4E99D2;}
	.st30{fill:#BBC7D1;}
	.st31{fill:#DE9C25;}
</style>
<g>
	<circle class="st0" cx="16" cy="16" r="16"/>
	<path class="st2" d="M32,16c0,8.84-7.165,16-16,16c-5.03,0-9.52-2.32-12.455-5.955c2.745,2.22,6.24,3.545,10.045,3.545
		c8.835,0,16-7.16,16-16c0-3.805-1.325-7.3-3.545-10.045C29.675,6.48,32,10.97,32,16z"/>
	<path class="st1" d="M20.526,26.751c-1.07-1.33-2.7-2.18-4.53-2.18s-3.46,0.85-4.53,2.17c-0.29,0.36-0.84,0.1-0.75-0.36
		c0.47-2.3,2.54-4.31,5.28-4.31c2.76,0,4.84,2.04,5.29,4.36C21.366,26.862,20.806,27.092,20.526,26.751z"/>
	<path class="st2" d="M16.826,13.895c0.33,3.924,3.253,7.115,6.547,7.115c3.273,0,5.679-3.191,5.349-7.115
		c-0.124-1.559-0.671-2.994-1.477-4.172c-0.258-0.382-0.764-0.496-1.157-0.258c-1.012,0.63-2.261,1.012-3.758,1.012
		c-1.425,0-2.633-0.351-3.614-0.929c-0.423-0.248-0.96-0.093-1.177,0.341C16.98,11.024,16.712,12.408,16.826,13.895z"/>
	<path class="st5" d="M22.31,11.841c1.612,0,2.936-0.443,3.985-1.163c0.625,0.912,1.067,2.003,1.167,3.219
		c0.256,3.1-1.631,5.608-4.218,5.608c-2.598,0-4.898-2.508-5.154-5.608c-0.093-1.127,0.125-2.148,0.532-3.021
		C19.622,11.48,20.85,11.841,22.31,11.841z"/>
	<path class="st1" d="M24.763,15.384c0,1.337-1.074,2.411-2.422,2.411c-1.337,0-2.411-1.074-2.411-2.412
		c0-1.348,1.074-2.422,2.411-2.422C23.688,12.962,24.763,14.036,24.763,15.384z"/>
	<path class="st5" d="M23.776,15.069c-0.2,0.2-0.62,0.109-0.93-0.201c-0.301-0.301-0.392-0.72-0.191-0.921
		c0.21-0.21,0.629-0.119,0.93,0.182C23.894,14.44,23.985,14.86,23.776,15.069z"/>
	<path class="st2" d="M15.174,13.895c-0.33,3.924-3.253,7.115-6.547,7.115c-3.273,0-5.679-3.191-5.349-7.115
		c0.124-1.559,0.671-2.994,1.477-4.172C5.014,9.341,5.52,9.228,5.912,9.465c1.012,0.63,2.261,1.012,3.758,1.012
		c1.425,0,2.633-0.351,3.614-0.929c0.423-0.248,0.96-0.093,1.177,0.341C15.02,11.024,15.288,12.408,15.174,13.895z"/>
	<path class="st5" d="M9.69,11.841c-1.612,0-2.936-0.443-3.985-1.163c-0.625,0.912-1.067,2.003-1.167,3.219
		c-0.256,3.1,1.631,5.608,4.218,5.608c2.598,0,4.898-2.508,5.154-5.608c0.093-1.127-0.125-2.148-0.532-3.021
		C12.378,11.48,11.15,11.841,9.69,11.841z"/>
	<path class="st1" d="M7.237,15.384c0,1.337,1.074,2.411,2.422,2.411c1.337,0,2.411-1.074,2.411-2.412
		c0-1.348-1.074-2.422-2.411-2.422C8.312,12.962,7.237,14.036,7.237,15.384z"/>
	<path class="st5" d="M8.224,15.069c0.2,0.2,0.62,0.109,0.93-0.201c0.301-0.301,0.392-0.72,0.191-0.921
		c-0.21-0.21-0.629-0.119-0.93,0.182C8.106,14.44,8.015,14.86,8.224,15.069z"/>
</g>
</svg>
