<?xml version="1.0" encoding="utf-8"?>
<!-- Generator: Adobe Illustrator 21.1.0, SVG Export Plug-In . SVG Version: 6.00 Build 0)  -->
<svg version="1.1" id="Layer_1" xmlns="http://www.w3.org/2000/svg" xmlns:xlink="http://www.w3.org/1999/xlink" x="0px" y="0px"
	 viewBox="0 0 32 32" style="enable-background:new 0 0 32 32;" xml:space="preserve">
<style type="text/css">
	.st0{fill:#FFD93B;}
	.st1{fill:#3E4347;}
	.st2{fill:#F4C534;}
	.st3{fill:#38C0DC;}
	.st4{fill:#45CBEA;}
	.st5{fill:#FFFFFF;}
	.st6{fill:#E24B4B;}
	.st7{fill:#5A5F63;}
	.st8{opacity:0.3;}
	.st9{opacity:0.2;}
	.st10{opacity:0.1;}
	.st11{fill:#E9B02C;}
	.st12{fill:#65B1EF;}
	.st13{fill:#E9EFF4;}
	.st14{fill:#8CC63E;}
	.st15{fill:#7FB239;}
	.st16{fill:#D03F3F;}
	.st17{fill:#D23F77;}
	.st18{fill:#E84D88;}
	.st19{fill:#59A5E0;}
	.st20{fill:#DEE4E9;}
	.st21{fill:#D3D9DD;}
	.st22{opacity:0.25;fill:#FFFFFF;}
	.st23{fill:#9A795F;}
	.st24{fill:#F29A2E;}
	.st25{fill:#FC97B2;}
	.st26{fill:#89664C;}
	.st27{fill:#7A5B44;}
	.st28{opacity:0.2;fill:#FFFFFF;}
	.st29{fill:#4E99D2;}
	.st30{fill:#BBC7D1;}
	.st31{fill:#DE9C25;}
</style>
<g>
	<circle class="st0" cx="16" cy="16" r="16"/>
	<path class="st2" d="M32,16c0,8.84-7.165,16-16,16c-5.03,0-9.52-2.32-12.455-5.955c2.745,2.22,6.24,3.545,10.045,3.545
		c8.835,0,16-7.16,16-16c0-3.805-1.325-7.3-3.545-10.045C29.675,6.48,32,10.97,32,16z"/>
	<path class="st5" d="M14.957,14.969c0,1.176-2.357,2.125-5.259,2.125c-2.91,0-5.267-0.95-5.267-2.125
		c0-1.17,2.357-2.119,5.267-2.119C12.6,12.85,14.957,13.799,14.957,14.969z"/>
	<path class="st1" d="M9.462,14.968c0,0.895,0.441,1.67,1.09,2.096c1.101-0.073,2.089-0.282,2.848-0.586
		c0.299-0.417,0.486-0.937,0.486-1.51c0-0.57-0.186-1.087-0.485-1.503c-0.759-0.304-1.747-0.512-2.849-0.585
		C9.903,13.305,9.462,14.078,9.462,14.968z"/>
	<path class="st5" d="M13.137,15.219c-0.195,0.061-0.434-0.188-0.526-0.549c-0.092-0.362-0.002-0.705,0.193-0.766
		c0.195-0.061,0.434,0.188,0.526,0.55C13.416,14.816,13.333,15.158,13.137,15.219z"/>
	<path class="st5" d="M17.043,14.969c0,1.176,2.357,2.125,5.259,2.125c2.91,0,5.267-0.95,5.267-2.125
		c0-1.17-2.357-2.119-5.267-2.119C19.4,12.85,17.043,13.799,17.043,14.969z"/>
	<path class="st1" d="M22.538,14.968c0,0.895-0.441,1.67-1.09,2.096c-1.101-0.073-2.089-0.282-2.848-0.586
		c-0.299-0.417-0.486-0.937-0.486-1.51c0-0.57,0.186-1.087,0.485-1.503c0.759-0.304,1.747-0.512,2.849-0.585
		C22.097,13.305,22.538,14.078,22.538,14.968z"/>
	<path class="st5" d="M21.751,15.219c-0.195,0.061-0.434-0.188-0.526-0.549c-0.092-0.362-0.002-0.705,0.193-0.766
		c0.195-0.061,0.434,0.188,0.526,0.55C22.03,14.816,21.946,15.158,21.751,15.219z"/>
	<path class="st1" d="M14.767,11.371c0.29,0.23,0.34,0.66,0.1,0.95c-0.244,0.299-0.668,0.327-0.94,0.1
		c-2.16-1.729-4.35-2.76-6.7-3.14c-0.37-0.05-0.62-0.4-0.56-0.77s0.41-0.62,0.78-0.56C10.027,8.371,12.427,9.481,14.767,11.371z"/>
	<path class="st1" d="M26.187,7.131c0.02,0.37-0.26,0.69-0.63,0.71c-2.77,0.16-5.08,0.86-7.08,2.15
		c-0.286,0.181-0.722,0.12-0.93-0.2c-0.2-0.32-0.11-0.74,0.2-0.94c2.2-1.42,4.73-2.19,7.73-2.35
		C25.837,6.471,26.167,6.761,26.187,7.131z"/>
	<path class="st1" d="M21.188,24.44c0,0.784-0.63,1.427-1.414,1.427h-7.549c-0.784,0-1.414-0.643-1.414-1.427
		s0.63-1.414,1.414-1.414h7.549C20.558,23.026,21.188,23.656,21.188,24.44z"/>
</g>
</svg>
