<?xml version="1.0" encoding="utf-8"?>
<!-- Generator: Adobe Illustrator 21.1.0, SVG Export Plug-In . SVG Version: 6.00 Build 0)  -->
<svg version="1.1" id="Layer_1" xmlns="http://www.w3.org/2000/svg" xmlns:xlink="http://www.w3.org/1999/xlink" x="0px" y="0px"
	 viewBox="0 0 32 32" style="enable-background:new 0 0 32 32;" xml:space="preserve">
<style type="text/css">
	.st0{fill:#FFD93B;}
	.st1{fill:#3E4347;}
	.st2{fill:#F4C534;}
	.st3{fill:#38C0DC;}
	.st4{fill:#45CBEA;}
	.st5{fill:#FFFFFF;}
	.st6{fill:#E24B4B;}
	.st7{fill:#5A5F63;}
	.st8{opacity:0.3;}
	.st9{opacity:0.2;}
	.st10{opacity:0.1;}
	.st11{fill:#E9B02C;}
	.st12{fill:#65B1EF;}
	.st13{fill:#E9EFF4;}
	.st14{fill:#8CC63E;}
	.st15{fill:#7FB239;}
	.st16{fill:#D03F3F;}
	.st17{fill:#D23F77;}
	.st18{fill:#E84D88;}
	.st19{fill:#59A5E0;}
	.st20{fill:#DEE4E9;}
	.st21{fill:#D3D9DD;}
	.st22{opacity:0.25;fill:#FFFFFF;}
	.st23{fill:#9A795F;}
	.st24{fill:#F29A2E;}
	.st25{fill:#FC97B2;}
	.st26{fill:#89664C;}
	.st27{fill:#7A5B44;}
	.st28{opacity:0.2;fill:#FFFFFF;}
	.st29{fill:#4E99D2;}
	.st30{fill:#BBC7D1;}
	.st31{fill:#DE9C25;}
</style>
<g>
	<g>
		<circle class="st0" cx="16" cy="16" r="16"/>
	</g>
	<g>
		<path class="st2" d="M32,16c0,8.84-7.165,16-16,16c-5.03,0-9.52-2.32-12.455-5.955c2.745,2.22,6.24,3.545,10.045,3.545
			c8.835,0,16-7.16,16-16c0-3.805-1.325-7.3-3.545-10.045C29.675,6.48,32,10.97,32,16z"/>
	</g>
	<path class="st1" d="M14.567,12.616c0,0-0.293,6.14-6.44,6.712c-6.14,0.565-8.494-2.24-6.44-9.159
		C1.686,10.169,9.443,8.952,14.567,12.616z"/>
	<path class="st1" d="M17.433,12.616c0,0,0.293,6.14,6.44,6.712c6.14,0.565,8.494-2.24,6.44-9.159
		C30.313,10.169,22.557,8.952,17.433,12.616z"/>
	<path class="st7" d="M26.668,9.983l-7.263,7.263c0.542,0.585,1.235,1.106,2.115,1.488l8.598-8.592
		C29.661,10.083,28.371,9.943,26.668,9.983z"/>
	<path class="st7" d="M23.723,10.238l-5.421,5.421c0.195,0.386,0.437,0.774,0.729,1.151l6.794-6.794
		C25.159,10.056,24.452,10.126,23.723,10.238z"/>
	<path class="st7" d="M5.974,10.009l-4.98,4.98c0.043,0.579,0.15,1.098,0.321,1.559L7.7,10.163
		C7.101,10.087,6.522,10.036,5.974,10.009z"/>
	<path class="st7" d="M8.411,10.263l-6.846,6.846c0.417,0.765,1.045,1.338,1.888,1.715l7.853-7.848
		C10.34,10.645,9.36,10.416,8.411,10.263z"/>
	<path class="st13" d="M31.461,9.81h-0.519c-0.088-0.174-0.254-0.296-0.443-0.336c-0.801-0.146-1.917-0.913-7.012-0.157
		c-2.47,0.432-4.154,1.196-5.599,2.125c-1.12,0.721-2.568,0.777-3.777,0c-1.444-0.928-3.129-1.693-5.598-2.125
		C3.418,8.562,2.302,9.328,1.5,9.474C1.31,9.514,1.146,9.636,1.057,9.81H0.538C0.24,9.81,0,10.05,0,10.348v1.496
		c0,0.297,0.24,0.538,0.538,0.538c-0.089,0.606-0.149,1.22-0.149,1.83c0,1.296,0.268,2.57,1.09,3.699
		c2.173,2.685,7.303,2.097,9.231,1.26c1.312-0.51,2.627-1.681,3.525-3.322c0.784-1.435,2.804-1.326,3.537,0.01
		c0.897,1.636,2.21,2.803,3.519,3.312c1.929,0.837,7.058,1.425,9.231-1.26c1.208-1.661,1.22-3.637,0.941-5.53
		c0.149,0,0.284-0.06,0.381-0.157C31.94,12.126,32,11.992,32,11.844v-1.496C32,10.05,31.759,9.81,31.461,9.81z M6.008,18.906
		c-4.649-0.479-5.243-3.47-3.807-7.993c2.007,0.145,2.718-0.129,6.011,0.271c3.461,0.616,4.321,1.099,5.602,1.831
		C13.413,17.342,10.353,18.968,6.008,18.906z M25.992,18.906c-4.346,0.062-7.405-1.564-7.808-5.89
		c1.281-0.732,2.141-1.215,5.603-1.831c3.293-0.401,4.004-0.126,6.01-0.271C31.233,15.436,30.64,18.428,25.992,18.906z"/>
	<path class="st2" d="M19.406,8.749l-1.342-1.05c-0.326-0.255-0.384-0.727-0.129-1.053c0.255-0.325,0.726-0.384,1.053-0.128
		l0.917,0.718c1.899-1.208,4.074-2.044,6.63-2.553c0.408-0.085,0.801,0.182,0.882,0.589c0.081,0.406-0.183,0.801-0.589,0.882
		c-2.563,0.511-4.701,1.369-6.536,2.625C20.023,8.961,19.663,8.951,19.406,8.749z"/>
	<path class="st2" d="M11.709,8.777C9.874,7.522,7.735,6.663,5.172,6.152c-0.406-0.081-0.67-0.476-0.589-0.882
		C4.666,4.864,5.063,4.6,5.465,4.682c2.556,0.509,4.73,1.346,6.63,2.553l0.917-0.718c0.326-0.256,0.797-0.197,1.053,0.128
		c0.255,0.326,0.197,0.798-0.129,1.053l-1.342,1.05C12.343,8.947,11.985,8.964,11.709,8.777z"/>
	<path class="st2" d="M16.656,26.131c-0.171,0-0.343-0.063-0.478-0.188c-0.481-0.449-1.522-0.427-1.85-0.385
		c-0.368,0.056-0.734-0.219-0.785-0.603c-0.05-0.383,0.22-0.735,0.604-0.785c0.193-0.026,1.943-0.224,2.986,0.748
		c0.282,0.264,0.298,0.707,0.034,0.989C17.03,26.056,16.843,26.131,16.656,26.131z"/>
	<path class="st1" d="M23.331,26.921c-0.286,0.243-0.727,0.231-0.99-0.07c-4.68-5.37-11.11-3.92-12.58-3.49l0.12,0.56
		c0.09,0.37-0.15,0.75-0.53,0.83c-0.422,0.084-0.755-0.178-0.83-0.53l-0.54-2.36c-0.08-0.38,0.16-0.75,0.53-0.84
		c0.38-0.08,0.76,0.16,0.84,0.53l0.1,0.44c1.83-0.49,8.88-1.86,13.95,3.94C23.651,26.221,23.621,26.661,23.331,26.921z"/>
</g>
</svg>
