<?xml version="1.0" encoding="utf-8"?>
<!-- Generator: Adobe Illustrator 21.1.0, SVG Export Plug-In . SVG Version: 6.00 Build 0)  -->
<svg version="1.1" id="Layer_1" xmlns="http://www.w3.org/2000/svg" xmlns:xlink="http://www.w3.org/1999/xlink" x="0px" y="0px"
	 viewBox="0 0 32 32" style="enable-background:new 0 0 32 32;" xml:space="preserve">
<style type="text/css">
	.st0{fill:#FFD93B;}
	.st1{fill:#3E4347;}
	.st2{fill:#F4C534;}
	.st3{fill:#38C0DC;}
	.st4{fill:#45CBEA;}
	.st5{fill:#FFFFFF;}
	.st6{fill:#E24B4B;}
	.st7{fill:#5A5F63;}
	.st8{opacity:0.3;}
	.st9{opacity:0.2;}
	.st10{opacity:0.1;}
	.st11{fill:#E9B02C;}
	.st12{fill:#65B1EF;}
	.st13{fill:#E9EFF4;}
	.st14{fill:#8CC63E;}
	.st15{fill:#7FB239;}
	.st16{fill:#D03F3F;}
	.st17{fill:#D23F77;}
	.st18{fill:#E84D88;}
	.st19{fill:#59A5E0;}
	.st20{fill:#DEE4E9;}
	.st21{fill:#D3D9DD;}
	.st22{opacity:0.25;fill:#FFFFFF;}
	.st23{fill:#9A795F;}
	.st24{fill:#F29A2E;}
	.st25{fill:#FC97B2;}
	.st26{fill:#89664C;}
	.st27{fill:#7A5B44;}
	.st28{opacity:0.2;fill:#FFFFFF;}
	.st29{fill:#4E99D2;}
	.st30{fill:#BBC7D1;}
	.st31{fill:#DE9C25;}
</style>
<g>
	<ellipse transform="matrix(1 -0.0017 0.0017 1 -0.0279 0.0279)" class="st0" cx="15.99" cy="16" rx="15.489" ry="15.489"/>
	<path class="st2" d="M31.479,15.973c0.015,8.558-6.909,15.501-15.462,15.516c-4.869,0.008-9.22-2.23-12.067-5.744
		c2.661,2.144,6.047,3.421,9.73,3.415c8.553-0.015,15.477-6.958,15.462-15.516c-0.006-3.683-1.295-7.065-3.449-9.718
		C29.212,6.761,31.47,11.104,31.479,15.973z"/>
	<path class="st2" d="M25.563,13.974c-3.079,1.282-5.898,0.711-8.656-1.307c1.104-0.535,3.266-1.595,4.039-2.626
		c-0.317,0.967-1.758,2.136-2.568,2.66C21.133,14.221,24.473,13.937,25.563,13.974z"/>
	<path class="st1" d="M19.758,12.652c0.661-0.562,2.171-1.137,3.776-1.093c1.335,0.065,2.699,0.427,3.701,1.403
		c0,0-2.483-0.169-3.726-0.191C22.419,12.7,21.025,12.765,19.758,12.652z"/>
	<path class="st2" d="M6.41,14.008c3.083,1.271,5.9,0.691,8.652-1.337c-1.106-0.531-3.272-1.584-4.048-2.612
		c0.32,0.966,1.766,2.13,2.577,2.651C10.84,14.239,7.5,13.967,6.41,14.008z"/>
	<path class="st1" d="M12.21,12.665c-0.663-0.559-2.175-1.13-3.78-1.08c-1.335,0.07-2.698,0.436-3.696,1.416
		c0,0,2.482-0.177,3.725-0.204C9.549,12.723,10.944,12.783,12.21,12.665z"/>
	<path class="st12" d="M30.547,17.235c-0.581,0.052-1.168-0.325-1.353-0.875c-0.17-0.492-0.029-1.038-0.133-1.548
		c-0.118-0.584-0.551-1.108-1.242-1.296c1.735-0.351,3.032,0.337,3.65,1.493C32.146,16.288,31.333,17.168,30.547,17.235z"/>
	<path class="st12" d="M28.293,21.405c-0.821,0.69-1.954,0.164-1.913-1.091c0.015-0.954,1.629-3.606-0.075-4.596
		C29.009,17.05,29.516,20.429,28.293,21.405z"/>
	<path class="st22" d="M28.283,20.838c-0.135,0.213-0.348,0.31-0.464,0.233c-0.126-0.077-0.117-0.309,0.018-0.523
		c0.135-0.213,0.348-0.31,0.474-0.233C28.437,20.393,28.418,20.625,28.283,20.838z"/>
	<path class="st22" d="M31.251,16.37c-0.135,0.213-0.348,0.31-0.464,0.233c-0.126-0.077-0.117-0.309,0.018-0.523
		c0.135-0.213,0.348-0.31,0.474-0.233C31.405,15.924,31.386,16.157,31.251,16.37z"/>
	<path class="st12" d="M30.045,22.33c-0.191-0.435-0.002-0.935,0.059-1.41c0.044-0.45-0.038-0.915-0.236-1.322
		C34.176,21.728,30.737,23.916,30.045,22.33z"/>
	<path class="st22" d="M30.301,22.069c-0.031-0.225,0.202-0.343,0.3-0.04c0,0,0.006,0.002,0.011,0.01
		c0.138,0.105,0.396,0.057,0.471,0.213C31.336,22.697,30.364,22.677,30.301,22.069z"/>
	<path class="st12" d="M1.437,17.286c0.581,0.05,1.166-0.329,1.35-0.88c0.168-0.492,0.025-1.038,0.128-1.549
		c0.116-0.584,0.547-1.11,1.237-1.3c-1.737-0.345-3.031,0.347-3.645,1.505C-0.165,16.345,0.651,17.221,1.437,17.286z"/>
	<path class="st12" d="M3.706,21.448c0.824,0.687,1.955,0.157,1.909-1.098c-0.018-0.954-1.641-3.6,0.059-4.597
		C2.974,17.095,2.479,20.476,3.706,21.448z"/>
	<path class="st22" d="M3.714,20.881c0.136,0.212,0.349,0.309,0.465,0.231c0.126-0.078,0.116-0.31-0.02-0.523
		c-0.136-0.212-0.349-0.309-0.475-0.231C3.558,20.436,3.578,20.668,3.714,20.881z"/>
	<path class="st22" d="M0.73,16.423c0.136,0.212,0.349,0.309,0.465,0.231c0.126-0.078,0.116-0.31-0.02-0.523
		C1.039,15.919,0.826,15.823,0.7,15.9C0.575,15.978,0.594,16.21,0.73,16.423z"/>
	<path class="st12" d="M1.957,22.38c0.189-0.435-0.001-0.935-0.064-1.41c-0.046-0.45,0.035-0.915,0.232-1.322
		C-2.177,21.791,1.27,23.967,1.957,22.38z"/>
	<path class="st22" d="M1.7,22.119c0.03-0.225-0.203-0.343-0.3-0.039c0,0-0.006,0.002-0.011,0.01
		c-0.138,0.106-0.395,0.058-0.47,0.215C0.668,22.751,1.64,22.727,1.7,22.119z"/>
	<path class="st1" d="M22.106,28.137c-3.918,1.643-7.408-1.1-9.433-2.549c-1.231-0.879-2.633-0.218-3.562,0.442
		c-0.512,0.369-1.229,0.07-1.356-0.54c-1.797-8.816,5.82-9.671,11.953-7.01C25.152,20.842,26.014,26.504,22.106,28.137z"/>
	<path class="st6" d="M16.616,22.729c-0.649,0.151-1.363,0.149-2.147-0.028l-0.028-0.007c-1.832-0.414-3.776,0.417-4.434,2.184
		c-0.087,0.234-0.15,0.479-0.206,0.727c0.86-0.452,1.916-0.7,2.871-0.018c1.688,1.207,4.393,3.303,7.514,3.022
		c0.074-0.206,0.137-0.417,0.187-0.635c0.28-1.237,0.118-2.455-0.388-3.512C19.388,23.197,17.985,22.423,16.616,22.729z"/>
</g>
</svg>
