<?xml version="1.0" encoding="utf-8"?>
<!-- Generator: Adobe Illustrator 21.1.0, SVG Export Plug-In . SVG Version: 6.00 Build 0)  -->
<svg version="1.1" id="Layer_1" xmlns="http://www.w3.org/2000/svg" xmlns:xlink="http://www.w3.org/1999/xlink" x="0px" y="0px"
	 viewBox="0 0 32 32" style="enable-background:new 0 0 32 32;" xml:space="preserve">
<style type="text/css">
	.st0{fill:#FFD93B;}
	.st1{fill:#3E4347;}
	.st2{fill:#F4C534;}
	.st3{fill:#38C0DC;}
	.st4{fill:#45CBEA;}
	.st5{fill:#FFFFFF;}
	.st6{fill:#E24B4B;}
	.st7{fill:#5A5F63;}
	.st8{opacity:0.3;}
	.st9{opacity:0.2;}
	.st10{opacity:0.1;}
	.st11{fill:#E9B02C;}
	.st12{fill:#65B1EF;}
	.st13{fill:#E9EFF4;}
	.st14{fill:#8CC63E;}
	.st15{fill:#7FB239;}
	.st16{fill:#D03F3F;}
	.st17{fill:#D23F77;}
	.st18{fill:#E84D88;}
	.st19{fill:#59A5E0;}
	.st20{fill:#DEE4E9;}
	.st21{fill:#D3D9DD;}
	.st22{opacity:0.25;fill:#FFFFFF;}
	.st23{fill:#9A795F;}
	.st24{fill:#F29A2E;}
	.st25{fill:#FC97B2;}
	.st26{fill:#89664C;}
	.st27{fill:#7A5B44;}
	.st28{opacity:0.2;fill:#FFFFFF;}
	.st29{fill:#4E99D2;}
	.st30{fill:#BBC7D1;}
	.st31{fill:#DE9C25;}
</style>
<g>
	<circle class="st0" cx="16" cy="16" r="16"/>
	<path class="st2" d="M32,16c0,8.84-7.165,16-16,16c-5.03,0-9.52-2.32-12.455-5.955c2.745,2.22,6.24,3.545,10.045,3.545
		c8.835,0,16-7.16,16-16c0-3.805-1.325-7.3-3.545-10.045C29.675,6.48,32,10.97,32,16z"/>
	<path class="st5" d="M16.956,13.418c0.529,2.765,3.395,4.83,6.4,4.604c3.016-0.227,5.02-2.659,4.49-5.424
		c-0.531-2.774-3.395-4.83-6.41-4.603C18.43,8.221,16.425,10.644,16.956,13.418z"/>
	<circle class="st1" cx="21.051" cy="12.651" r="2.483"/>
	
		<ellipse transform="matrix(0.7071 -0.7071 0.7071 0.7071 -2.4119 17.7022)" class="st5" cx="20.162" cy="11.762" rx="0.802" ry="0.495"/>
	<path class="st5" d="M15.044,13.418c-0.529,2.765-3.395,4.83-6.4,4.604c-3.016-0.227-5.02-2.659-4.49-5.424
		c0.531-2.774,3.395-4.83,6.41-4.603C13.57,8.221,15.575,10.644,15.044,13.418z"/>
	<circle class="st1" cx="10.949" cy="12.651" r="2.483"/>
	
		<ellipse transform="matrix(0.7071 -0.7071 0.7071 0.7071 -5.3706 10.5595)" class="st5" cx="10.061" cy="11.762" rx="0.802" ry="0.495"/>
	<path class="st1" d="M4.799,7.967c0,0,5.366,1.102,9.399-2.183C13.403,9.06,10.27,9.788,4.799,7.967z"/>
	<path class="st1" d="M27.201,7.967c0,0-5.366,1.102-9.399-2.183C18.597,9.06,21.73,9.788,27.201,7.967z"/>
	<path class="st1" d="M10.819,25.611c1.07-1.98,2.99-3.3,5.19-3.3c2.19,0,4.11,1.31,5.17,3.28c0.36,0.67,1.37,0.28,1.18-0.46
		c-0.69-2.77-3.17-4.98-6.35-4.98c-3.19,0-5.68,2.22-6.37,4.99C9.459,25.881,10.459,26.271,10.819,25.611z"/>
	<path class="st19" d="M4.688,15.71c0.104-0.022,0.218-0.039,0.364-0.039c0.83,0,0.83,0.435,1.659,0.435
		c0.828,0,0.828-0.435,1.657-0.435c0.828,0,0.828,0.435,1.656,0.435c0.828,0,0.828-0.435,1.656-0.435
		c0.827,0,0.827,0.435,1.654,0.435c0.116,0,0.212-0.01,0.3-0.024c-1.233,1.298-3.081,2.083-4.99,1.939
		C6.87,17.888,5.452,16.989,4.688,15.71z"/>
	<path class="st19" d="M4.356,18.459c0.05,0.578,0.417,0.986,0.977,0.986c0.576,0,0.842-0.706,0.677-1.129
		C5.571,17.197,5.318,16.1,5.318,16.1S4.397,17.565,4.356,18.459z"/>
	<path class="st19" d="M4.622,22.041c0.028,0.325,0.238,0.605,0.553,0.605c0.323,0,0.513-0.367,0.376-0.685
		c-0.268-0.62-0.392-1.101-0.392-1.101S4.645,21.539,4.622,22.041z"/>
	<path class="st5" d="M5.402,22.191c0.05,0.03,0.03,0.11-0.04,0.19s-0.16,0.11-0.21,0.08c-0.05-0.03-0.03-0.12,0.04-0.19
		C5.262,22.191,5.352,22.151,5.402,22.191z"/>
	<path class="st5" d="M5.632,19.031c-0.13,0.14-0.29,0.21-0.37,0.15c-0.09-0.05-0.07-0.21,0.06-0.35c0.12-0.14,0.29-0.2,0.38-0.14
		C5.782,18.751,5.752,18.901,5.632,19.031z"/>
</g>
</svg>
