<?xml version="1.0" encoding="utf-8"?>
<!-- Generator: Adobe Illustrator 21.1.0, SVG Export Plug-In . SVG Version: 6.00 Build 0)  -->
<svg version="1.1" id="Layer_1" xmlns="http://www.w3.org/2000/svg" xmlns:xlink="http://www.w3.org/1999/xlink" x="0px" y="0px"
	 viewBox="0 0 32 32" style="enable-background:new 0 0 32 32;" xml:space="preserve">
<style type="text/css">
	.st0{fill:#FFD93B;}
	.st1{fill:#3E4347;}
	.st2{fill:#F4C534;}
	.st3{fill:#38C0DC;}
	.st4{fill:#45CBEA;}
	.st5{fill:#FFFFFF;}
	.st6{fill:#E24B4B;}
	.st7{fill:#5A5F63;}
	.st8{opacity:0.3;}
	.st9{opacity:0.2;}
	.st10{opacity:0.1;}
	.st11{fill:#E9B02C;}
	.st12{fill:#65B1EF;}
	.st13{fill:#E9EFF4;}
	.st14{fill:#8CC63E;}
	.st15{fill:#7FB239;}
	.st16{fill:#D03F3F;}
	.st17{fill:#D23F77;}
	.st18{fill:#E84D88;}
	.st19{fill:#59A5E0;}
	.st20{fill:#DEE4E9;}
	.st21{fill:#D3D9DD;}
	.st22{opacity:0.25;fill:#FFFFFF;}
	.st23{fill:#9A795F;}
	.st24{fill:#F29A2E;}
	.st25{fill:#FC97B2;}
	.st26{fill:#89664C;}
	.st27{fill:#7A5B44;}
	.st28{opacity:0.2;fill:#FFFFFF;}
	.st29{fill:#4E99D2;}
	.st30{fill:#BBC7D1;}
	.st31{fill:#DE9C25;}
</style>
<g>
	<g>
		<g>
			<g>
				<g>
					<g>
						<g>
							<circle class="st0" cx="16" cy="16" r="16"/>
						</g>
						<g>
							<path class="st2" d="M32,16c0,8.84-7.165,16-16,16c-5.03,0-9.52-2.32-12.455-5.955c2.745,2.22,6.24,3.545,10.045,3.545
								c8.835,0,16-7.16,16-16c0-3.805-1.325-7.3-3.545-10.045C29.675,6.48,32,10.97,32,16z"/>
						</g>
					</g>
				</g>
				<g>
					<g>
						<g>
							<path class="st1" d="M12.134,14.984c-0.184-0.818-0.818-1.535-1.358-1.535s-1.174,0.717-1.358,1.535
								c-0.106,0.472-0.572,0.767-1.046,0.662C7.901,15.539,7.604,15.071,7.71,14.6c0.316-1.406,1.498-2.901,3.066-2.901
								s2.75,1.495,3.066,2.901c0.106,0.471-0.19,0.939-0.662,1.046C12.704,15.752,12.24,15.453,12.134,14.984z"/>
						</g>
					</g>
					<g>
						<g>
							<path class="st1" d="M22.582,14.984c-0.184-0.818-0.819-1.535-1.358-1.535s-1.174,0.717-1.358,1.535
								c-0.106,0.471-0.573,0.767-1.046,0.662c-0.471-0.106-0.768-0.574-0.662-1.046c0.317-1.406,1.499-2.901,3.066-2.901
								c1.567,0,2.749,1.494,3.066,2.901c0.106,0.471-0.19,0.94-0.662,1.046C23.15,15.752,22.687,15.45,22.582,14.984z"/>
						</g>
					</g>
				</g>
			</g>
		</g>
	</g>
	<g>
		<g>
			<g>
				<path class="st1" d="M25.388,20.481c-0.581,3.904-4.233,7.301-9.207,7.291c-4.982,0.01-8.634-3.388-9.214-7.291
					c-0.069-0.434,0.342-0.836,0.776-0.771c5.569,0.831,11.301,0.831,16.87,0C25.046,19.644,25.457,20.047,25.388,20.481z"/>
			</g>
			<g>
				<path class="st5" d="M16.181,26.349c-3.688,0.01-6.752-2.231-7.728-5.263c5.11,0.68,10.339,0.68,15.449,0
					C22.927,24.118,19.865,26.358,16.181,26.349z"/>
			</g>
		</g>
		<g>
			<g>
				<g>
					<g>
						<path class="st1" d="M20.86,25.474l-0.567-4.707l0.12-0.013c0.127-0.007,0.26-0.02,0.393-0.033l0.107-0.007l0.613,4.7
							l-0.113,0.007c-0.153,0.013-0.3,0.027-0.447,0.04L20.86,25.474z"/>
						<path class="st1" d="M14.24,26.574h-0.113l0.267-5.673l0.62,0.013l-0.207,5.68l-0.113-0.007
							C14.54,26.587,14.394,26.58,14.24,26.574z"/>
						<path class="st1" d="M10.814,25.574l0.633-4.86l0.113,0.007c0.127,0.013,0.26,0.027,0.387,0.033l0.12,0.013l-0.587,4.867
							l-0.107-0.007c-0.147-0.013-0.293-0.027-0.447-0.04L10.814,25.574z"/>
						<path class="st1" d="M17.554,26.594l-0.207-5.68l0.62-0.013l0.273,5.673h-0.12c-0.153,0.007-0.3,0.013-0.453,0.013
							L17.554,26.594z"/>
					</g>
				</g>
			</g>
			<g>
				<g>
					<path class="st1" d="M9.107,23.807l0.12-0.653l0.107,0.007c4.587,0.56,9.233,0.553,13.82-0.013l0.107-0.013l0.12,0.653
						l-0.12,0.02c-4.653,0.573-9.373,0.58-14.027,0.013L9.107,23.807z"/>
				</g>
			</g>
		</g>
	</g>
</g>
</svg>
