<?xml version="1.0" encoding="utf-8"?>
<!-- Generator: Adobe Illustrator 21.1.0, SVG Export Plug-In . SVG Version: 6.00 Build 0)  -->
<svg version="1.1" id="Layer_1" xmlns="http://www.w3.org/2000/svg" xmlns:xlink="http://www.w3.org/1999/xlink" x="0px" y="0px"
	 viewBox="0 0 32 32" style="enable-background:new 0 0 32 32;" xml:space="preserve">
<style type="text/css">
	.st0{fill:#FFD93B;}
	.st1{fill:#3E4347;}
	.st2{fill:#F4C534;}
	.st3{fill:#38C0DC;}
	.st4{fill:#45CBEA;}
	.st5{fill:#FFFFFF;}
	.st6{fill:#E24B4B;}
	.st7{fill:#5A5F63;}
	.st8{opacity:0.3;}
	.st9{opacity:0.2;}
	.st10{opacity:0.1;}
	.st11{fill:#E9B02C;}
	.st12{fill:#65B1EF;}
	.st13{fill:#E9EFF4;}
	.st14{fill:#8CC63E;}
	.st15{fill:#7FB239;}
	.st16{fill:#D03F3F;}
	.st17{fill:#D23F77;}
	.st18{fill:#E84D88;}
	.st19{fill:#59A5E0;}
	.st20{fill:#DEE4E9;}
	.st21{fill:#D3D9DD;}
	.st22{opacity:0.25;fill:#FFFFFF;}
	.st23{fill:#9A795F;}
	.st24{fill:#F29A2E;}
	.st25{fill:#FC97B2;}
	.st26{fill:#89664C;}
	.st27{fill:#7A5B44;}
	.st28{opacity:0.2;fill:#FFFFFF;}
	.st29{fill:#4E99D2;}
	.st30{fill:#BBC7D1;}
	.st31{fill:#DE9C25;}
</style>
<g>
	<g>
		<g>
			<g>
				<g>
					<g>
						<g>
							<g>
								<circle class="st0" cx="16" cy="16" r="16"/>
							</g>
						</g>
						<g>
							<g>
								<path class="st2" d="M32,16c0,8.84-7.165,16-16,16c-5.03,0-9.52-2.32-12.455-5.955c2.745,2.22,6.24,3.545,10.045,3.545
									c8.835,0,16-7.16,16-16c0-3.805-1.325-7.3-3.545-10.045C29.675,6.48,32,10.97,32,16z"/>
							</g>
						</g>
					</g>
				</g>
			</g>
			<g>
				<g>
					<g>
						<path class="st7" d="M23.633,21.482c-0.919,3.671-3.915,6.634-7.634,6.622c-3.715,0.013-6.716-2.951-7.63-6.622
							c-0.161-0.623,0.277-1.22,0.771-1.088c4.528,1.197,9.195,1.197,13.723,0C23.352,20.263,23.794,20.859,23.633,21.482z"/>
					</g>
				</g>
				<g>
					<g>
						<path class="st1" d="M15.999,26.818c-2.802,0.013-5.311-2.056-6.321-4.981c4.181,0.986,8.464,0.986,12.644,0
							C21.309,24.763,18.798,26.832,15.999,26.818z"/>
					</g>
				</g>
				<path class="st6" d="M15.999,26.818c1.314,0.007,2.561-0.45,3.623-1.234c-0.047-0.162-0.099-0.321-0.162-0.473
					c-0.522-1.245-1.788-1.588-2.843-1.026c-0.179,0.099-0.379,0.156-0.584,0.166c-0.221,0.013-0.435-0.031-0.631-0.117
					c-1.125-0.509-2.389,0.268-2.784,1.626C13.624,26.437,14.784,26.824,15.999,26.818z"/>
			</g>
			<g>
				<g>
					<g>
						<g>
							<path class="st1" d="M13.518,16.166c-0.346,0-0.65-0.253-0.703-0.605c-0.115-0.756-0.792-1.326-1.573-1.326
								c-0.782,0-1.458,0.57-1.573,1.326c-0.059,0.389-0.424,0.656-0.812,0.597c-0.389-0.059-0.656-0.423-0.597-0.812
								c0.22-1.446,1.502-2.537,2.982-2.537s2.762,1.09,2.982,2.537c0.059,0.389-0.208,0.752-0.597,0.812
								C13.59,16.163,13.554,16.166,13.518,16.166z"/>
						</g>
					</g>
					<g>
						<g>
							<path class="st1" d="M23.036,16.166c-0.346,0-0.65-0.253-0.703-0.605c-0.115-0.756-0.792-1.326-1.573-1.326
								c-0.782,0-1.458,0.57-1.573,1.326c-0.059,0.389-0.423,0.656-0.812,0.597c-0.389-0.059-0.656-0.423-0.597-0.812
								c0.22-1.446,1.502-2.537,2.982-2.537c1.48,0,2.762,1.09,2.982,2.536c0.059,0.389-0.208,0.752-0.597,0.812
								C23.108,16.163,23.072,16.166,23.036,16.166z"/>
						</g>
					</g>
				</g>
				<g>
					<g>
						<g>
							<path class="st1" d="M6.897,12.494c-0.015,0-0.031,0-0.046,0c-0.394-0.002-0.71-0.323-0.708-0.717
								c0.002-0.392,0.321-0.708,0.712-0.708c0.014,0,0.028,0,0.042,0c2.206,0,4.231-1.198,5.293-3.134
								c0.189-0.345,0.622-0.472,0.967-0.282c0.345,0.189,0.471,0.622,0.282,0.967C12.127,11.012,9.623,12.494,6.897,12.494z"/>
						</g>
					</g>
					<g>
						<g>
							<path class="st1" d="M25.103,12.494c-2.727,0-5.23-1.481-6.542-3.874c-0.189-0.345-0.063-0.778,0.282-0.967
								c0.345-0.189,0.778-0.063,0.967,0.282c1.067,1.947,3.103,3.142,5.33,3.134c0.001,0,0.003,0,0.004,0
								c0.392,0,0.71,0.316,0.712,0.708c0.002,0.394-0.314,0.715-0.708,0.717C25.134,12.494,25.119,12.494,25.103,12.494z"/>
						</g>
					</g>
				</g>
			</g>
			<g>
				<g>
					<g>
						<g>
							<path class="st4" d="M7.514,20.344c-0.361,0.923-1.402,1.378-2.325,1.017s-1.378-1.402-1.017-2.325
								c0.361-0.923,2.964-2.65,2.964-2.65S7.875,19.421,7.514,20.344z"/>
						</g>
					</g>
					<g class="st8">
						<g>
							<path class="st5" d="M4.604,20.007c-0.073-0.4,0.075-0.757,0.317-0.799c0.237-0.036,0.494,0.253,0.556,0.653
								c0.068,0.394-0.08,0.752-0.322,0.793C4.919,20.691,4.667,20.407,4.604,20.007z"/>
						</g>
					</g>
				</g>
				<g>
					<g>
						<g>
							<path class="st4" d="M24.486,20.344c0.361,0.923,1.402,1.378,2.325,1.017s1.378-1.402,1.017-2.325
								c-0.361-0.923-2.964-2.65-2.964-2.65S24.125,19.421,24.486,20.344z"/>
						</g>
					</g>
					<g class="st8">
						<g>
							<path class="st5" d="M27.396,20.007c0.073-0.4-0.075-0.757-0.317-0.799c-0.237-0.036-0.494,0.253-0.556,0.653
								c-0.068,0.394,0.08,0.752,0.322,0.793C27.081,20.691,27.333,20.407,27.396,20.007z"/>
						</g>
					</g>
				</g>
			</g>
		</g>
		<g class="st9">
			
				<ellipse transform="matrix(0.4541 -0.8909 0.8909 0.4541 -12.1165 29.5341)" class="st5" cx="18.044" cy="24.655" rx="0.302" ry="0.557"/>
		</g>
	</g>
</g>
</svg>
