<?xml version="1.0" encoding="utf-8"?>
<!-- Generator: Adobe Illustrator 21.1.0, SVG Export Plug-In . SVG Version: 6.00 Build 0)  -->
<svg version="1.1" id="Layer_1" xmlns="http://www.w3.org/2000/svg" xmlns:xlink="http://www.w3.org/1999/xlink" x="0px" y="0px"
	 viewBox="0 0 32 32" style="enable-background:new 0 0 32 32;" xml:space="preserve">
<style type="text/css">
	.st0{fill:#FFD93B;}
	.st1{fill:#3E4347;}
	.st2{fill:#F4C534;}
	.st3{fill:#38C0DC;}
	.st4{fill:#45CBEA;}
	.st5{fill:#FFFFFF;}
	.st6{fill:#E24B4B;}
	.st7{fill:#5A5F63;}
	.st8{opacity:0.3;}
	.st9{opacity:0.2;}
	.st10{opacity:0.1;}
	.st11{fill:#E9B02C;}
	.st12{fill:#65B1EF;}
	.st13{fill:#E9EFF4;}
	.st14{fill:#8CC63E;}
	.st15{fill:#7FB239;}
	.st16{fill:#D03F3F;}
	.st17{fill:#D23F77;}
	.st18{fill:#E84D88;}
	.st19{fill:#59A5E0;}
	.st20{fill:#DEE4E9;}
	.st21{fill:#D3D9DD;}
	.st22{opacity:0.25;fill:#FFFFFF;}
	.st23{fill:#9A795F;}
	.st24{fill:#F29A2E;}
	.st25{fill:#FC97B2;}
	.st26{fill:#89664C;}
	.st27{fill:#7A5B44;}
	.st28{opacity:0.2;fill:#FFFFFF;}
	.st29{fill:#4E99D2;}
	.st30{fill:#BBC7D1;}
	.st31{fill:#DE9C25;}
</style>
<g>
	<g>
		<g class="st10">
			
				<ellipse transform="matrix(0.4035 -0.915 0.915 0.4035 -15.2095 34.4976)" class="st5" cx="18.854" cy="28.914" rx="0.513" ry="0.834"/>
		</g>
		<g>
			<g>
				<g>
					<g>
						<g>
							<g>
								<g>
									<g>
										<circle class="st0" cx="16" cy="16" r="16"/>
									</g>
								</g>
								<g>
									<g>
										<path class="st2" d="M32,16c0,8.84-7.165,16-16,16c-5.03,0-9.52-2.32-12.455-5.955c2.745,2.22,6.24,3.545,10.045,3.545
											c8.835,0,16-7.16,16-16c0-3.805-1.325-7.3-3.545-10.045C29.675,6.48,32,10.97,32,16z"/>
									</g>
								</g>
							</g>
						</g>
					</g>
				</g>
				<g>
					<g>
						<g>
							<path class="st1" d="M24.964,13.073c-1.784,0-3.879-0.81-6.1-1.491c-0.248-0.076-0.439-0.274-0.505-0.524
								c-0.066-0.25,0.001-0.517,0.178-0.706c0.938-1,1.876-1.928,2.766-3.029C21.562,7,22.035,6.95,22.357,7.211
								s0.373,0.733,0.112,1.055c-0.637,0.789-1.375,1.576-2.013,2.246c0.046,0.015,0.091,0.029,0.137,0.044
								c1.667,0.536,3.238,1.035,4.46,1.017c0.405-0.02,0.757,0.32,0.765,0.734C25.827,12.72,25.538,13.073,24.964,13.073z"/>
						</g>
					</g>
					<g>
						<g>
							<path class="st1" d="M7.036,13.073c-0.574,0-0.863-0.352-0.854-0.767c0.009-0.414,0.349-0.751,0.765-0.734
								c1.226,0.019,2.793-0.481,4.46-1.017c0.045-0.015,0.091-0.029,0.137-0.044c-0.639-0.67-1.377-1.458-2.014-2.246
								c-0.26-0.322-0.21-0.794,0.112-1.055c0.322-0.26,0.795-0.21,1.055,0.112c0.887,1.098,1.828,2.029,2.766,3.029
								c0.177,0.189,0.244,0.456,0.178,0.706c-0.067,0.25-0.258,0.448-0.505,0.524C10.916,12.263,8.82,13.073,7.036,13.073z"/>
						</g>
					</g>
				</g>
				<g>
					<g>
						<g>
							<path class="st1" d="M27.806,18.317c-1.085,5.533-5.957,9.703-11.804,9.703c-5.856,0-10.737-4.184-11.808-9.725
								c-0.128-0.656,0.46-1.235,1.112-1.085c7.305,1.677,14.433,1.714,21.374,0.023C27.332,17.073,27.933,17.656,27.806,18.317z"/>
						</g>
					</g>
					<g>
						<g>
							<path class="st1" d="M27.806,18.317c-1.085,5.533-5.957,9.703-11.804,9.703c-5.856,0-10.737-4.184-11.808-9.725
								c-0.128-0.656,0.46-1.235,1.112-1.085c7.305,1.677,14.433,1.714,21.374,0.023C27.332,17.073,27.933,17.656,27.806,18.317z"/>
						</g>
					</g>
					<g>
						<path class="st5" d="M24.357,19.255c-0.975,3.765-4.03,3.95-8.375,3.95c-4.355,0-7.25-0.315-8.36-4
							c2.9,0.52,5.785,0.78,8.6,0.78C18.957,19.985,21.682,19.74,24.357,19.255z"/>
					</g>
				</g>
				<path class="st6" d="M16.002,28.02c1.819,0,3.544-0.405,5.09-1.128c-0.284-0.673-0.702-1.275-1.223-1.768
					c-0.789-0.746-1.932-0.88-2.935-0.477c-0.404,0.165-0.862,0.257-1.388,0.257c-0.257,0-0.501-0.024-0.728-0.061
					c-1.058-0.196-2.171,0.116-2.807,0.978c-0.28,0.38-0.506,0.801-0.677,1.247C12.772,27.675,14.345,28.02,16.002,28.02z"/>
			</g>
		</g>
	</g>
</g>
</svg>
