<?xml version="1.0" encoding="utf-8"?>
<!-- Generator: Adobe Illustrator 21.1.0, SVG Export Plug-In . SVG Version: 6.00 Build 0)  -->
<svg version="1.1" id="Layer_1" xmlns="http://www.w3.org/2000/svg" xmlns:xlink="http://www.w3.org/1999/xlink" x="0px" y="0px"
	 viewBox="0 0 32 32" style="enable-background:new 0 0 32 32;" xml:space="preserve">
<style type="text/css">
	.st0{fill:#FFD93B;}
	.st1{fill:#3E4347;}
	.st2{fill:#F4C534;}
	.st3{fill:#38C0DC;}
	.st4{fill:#45CBEA;}
	.st5{fill:#FFFFFF;}
	.st6{fill:#E24B4B;}
	.st7{fill:#5A5F63;}
	.st8{opacity:0.3;}
	.st9{opacity:0.2;}
	.st10{opacity:0.1;}
	.st11{fill:#E9B02C;}
	.st12{fill:#65B1EF;}
	.st13{fill:#E9EFF4;}
	.st14{fill:#8CC63E;}
	.st15{fill:#7FB239;}
	.st16{fill:#D03F3F;}
	.st17{fill:#D23F77;}
	.st18{fill:#E84D88;}
	.st19{fill:#59A5E0;}
	.st20{fill:#DEE4E9;}
	.st21{fill:#D3D9DD;}
	.st22{opacity:0.25;fill:#FFFFFF;}
	.st23{fill:#9A795F;}
	.st24{fill:#F29A2E;}
	.st25{fill:#FC97B2;}
	.st26{fill:#89664C;}
	.st27{fill:#7A5B44;}
	.st28{opacity:0.2;fill:#FFFFFF;}
	.st29{fill:#4E99D2;}
	.st30{fill:#BBC7D1;}
	.st31{fill:#DE9C25;}
</style>
<g>
	<g>
		<g>
			<g>
				<g>
					<g>
						<g>
							<g>
								<g>
									<g>
										<g>
											<circle class="st0" cx="16" cy="16" r="16"/>
										</g>
									</g>
									<g>
										<g>
											<path class="st2" d="M32,16c0,8.84-7.165,16-16,16c-5.03,0-9.52-2.32-12.455-5.955c2.745,2.22,6.24,3.545,10.045,3.545
												c8.835,0,16-7.16,16-16c0-3.805-1.325-7.3-3.545-10.045C29.675,6.48,32,10.97,32,16z"/>
										</g>
									</g>
								</g>
							</g>
						</g>
					</g>
				</g>
			</g>
			<g>
				<g>
					<g>
						<path class="st1" d="M26.22,19.998c-1.6,4.085-5.57,6.975-10.22,6.975s-8.62-2.89-10.22-6.975
							c-0.215-0.545,0.21-1.135,0.8-1.135h18.84C26.01,18.863,26.435,19.453,26.22,19.998z"/>
					</g>
				</g>
				<g>
					<path class="st5" d="M24.01,20.238c-0.055,0.44-0.34,0.865-0.78,0.99c-4.48,1.279-9.395,1.29-13.875,0
						c-0.439-0.126-0.725-0.55-0.78-0.99H24.01z"/>
				</g>
			</g>
			<g>
				<path class="st6" d="M19.95,26.238c-1.225,0.475-2.555,0.735-3.95,0.735c-1.185,0-2.32-0.19-3.39-0.535
					c0.065-0.37,0.185-0.72,0.35-1.04c0.48-0.94,1.525-1.395,2.575-1.305c0.1,0.01,0.2,0.015,0.3,0.015
					c0.305,0,0.58-0.04,0.835-0.105c1.075-0.295,2.245,0.195,2.83,1.145C19.705,25.483,19.86,25.848,19.95,26.238z"/>
			</g>
			<g>
				<g>
					<g>
						<g>
							<g>
								<g>
									
										<ellipse transform="matrix(0.9029 -0.4298 0.4298 0.9029 -3.3439 10.1391)" class="st1" cx="20.772" cy="12.471" rx="2.35" ry="2.35"/>
								</g>
								<g>
									
										<ellipse transform="matrix(0.7071 -0.7071 0.7071 0.7071 -1.8502 18.6782)" class="st7" cx="21.622" cy="11.572" rx="0.398" ry="0.6"/>
								</g>
							</g>
						</g>
						<g>
							<path class="st1" d="M24.968,11.96c-1.705-3.45-2.515-2.745-6.145-3.955c0.54-0.29,1.18-0.445,1.845-0.445
								C22.583,7.56,24.673,8.85,24.968,11.96z"/>
						</g>
					</g>
				</g>
				<g>
					<g>
						<g>
							<g>
								<g>
									
										<ellipse transform="matrix(0.4298 -0.9029 0.9029 0.4298 -4.8586 17.249)" class="st1" cx="11.228" cy="12.471" rx="2.35" ry="2.35"/>
								</g>
								<g>
									
										<ellipse transform="matrix(0.7071 -0.7071 0.7071 0.7071 -5.1432 10.7282)" class="st7" cx="10.378" cy="11.572" rx="0.6" ry="0.398"/>
								</g>
							</g>
						</g>
						<g>
							<path class="st1" d="M7.032,11.96c1.705-3.45,2.515-2.745,6.145-3.955c-0.54-0.29-1.18-0.445-1.845-0.445
								C9.417,7.56,7.327,8.85,7.032,11.96z"/>
						</g>
					</g>
				</g>
			</g>
		</g>
	</g>
</g>
</svg>
