<?xml version="1.0" encoding="utf-8"?>
<!-- Generator: Adobe Illustrator 21.1.0, SVG Export Plug-In . SVG Version: 6.00 Build 0)  -->
<svg version="1.1" id="Layer_1" xmlns="http://www.w3.org/2000/svg" xmlns:xlink="http://www.w3.org/1999/xlink" x="0px" y="0px"
	 viewBox="0 0 32 32" style="enable-background:new 0 0 32 32;" xml:space="preserve">
<style type="text/css">
	.st0{fill:#FFD93B;}
	.st1{fill:#3E4347;}
	.st2{fill:#F4C534;}
	.st3{fill:#38C0DC;}
	.st4{fill:#45CBEA;}
	.st5{fill:#FFFFFF;}
	.st6{fill:#E24B4B;}
	.st7{fill:#5A5F63;}
	.st8{opacity:0.3;}
	.st9{opacity:0.2;}
	.st10{opacity:0.1;}
	.st11{fill:#E9B02C;}
	.st12{fill:#65B1EF;}
	.st13{fill:#E9EFF4;}
	.st14{fill:#8CC63E;}
	.st15{fill:#7FB239;}
	.st16{fill:#D03F3F;}
	.st17{fill:#D23F77;}
	.st18{fill:#E84D88;}
	.st19{fill:#59A5E0;}
	.st20{fill:#DEE4E9;}
	.st21{fill:#D3D9DD;}
	.st22{opacity:0.25;fill:#FFFFFF;}
	.st23{fill:#9A795F;}
	.st24{fill:#F29A2E;}
	.st25{fill:#FC97B2;}
	.st26{fill:#89664C;}
	.st27{fill:#7A5B44;}
	.st28{opacity:0.2;fill:#FFFFFF;}
	.st29{fill:#4E99D2;}
	.st30{fill:#BBC7D1;}
	.st31{fill:#DE9C25;}
</style>
<g>
	<g>
		<g>
			<g>
				<g>
					<g>
						<g>
							<g>
								<g>
									<g>
										<g>
											<g>
												<g>
													<circle class="st0" cx="16" cy="16" r="16"/>
												</g>
											</g>
										</g>
										<g>
											<g>
												<g>
													<path class="st1" d="M26.349,20.778c-1.56,4.2-5.605,7.19-10.35,7.19s-8.785-2.99-10.35-7.19
														c-0.19-0.52,0.18-1.07,0.735-1.07c6.41,0.925,12.825,0.925,19.23,0C26.169,19.708,26.544,20.258,26.349,20.778z"/>
												</g>
											</g>
										</g>
										<g>
											<g>
												<g>
													<path class="st2" d="M32,16c0,8.84-7.165,16-16,16c-5.03,0-9.52-2.32-12.455-5.955c2.745,2.22,6.24,3.545,10.045,3.545
														c8.835,0,16-7.16,16-16c0-3.805-1.325-7.3-3.545-10.045C29.675,6.48,32,10.97,32,16z"/>
												</g>
											</g>
										</g>
									</g>
								</g>
							</g>
						</g>
					</g>
				</g>
			</g>
			<g>
				<path class="st5" d="M23.105,20.021c-4.733,0.505-9.471,0.505-14.207,0c0.219,2.037,3.312,2.742,7.1,2.742
					C19.793,22.763,22.886,22.059,23.105,20.021z"/>
			</g>
			<g>
				<path class="st6" d="M15.999,27.968c1.357,0,2.654-0.252,3.854-0.699c-0.194-0.738-0.615-1.384-1.189-1.851
					c-0.535-0.435-1.28-0.56-1.895-0.255c-0.375,0.185-0.82,0.295-1.33,0.295c-0.1,0-0.2-0.005-0.295-0.015
					c-0.635-0.055-1.275,0.165-1.645,0.685c-0.287,0.411-0.487,0.885-0.581,1.396C13.896,27.809,14.928,27.968,15.999,27.968z"/>
			</g>
			<g>
				<g>
					<g>
						<path class="st1" d="M13.396,14.585c-0.414,0-0.75-0.336-0.75-0.75c0-1.05-0.854-1.904-1.903-1.904s-1.903,0.854-1.903,1.904
							c0,0.414-0.336,0.75-0.75,0.75c-0.414,0-0.75-0.336-0.75-0.75c0-1.877,1.527-3.404,3.403-3.404s3.403,1.527,3.403,3.404
							C14.146,14.249,13.81,14.585,13.396,14.585z"/>
					</g>
				</g>
				<g>
					<g>
						<path class="st1" d="M23.911,14.585c-0.414,0-0.75-0.336-0.75-0.75c0-1.05-0.854-1.904-1.903-1.904
							c-1.05,0-1.904,0.854-1.904,1.904c0,0.414-0.336,0.75-0.75,0.75c-0.414,0-0.75-0.336-0.75-0.75
							c0-1.877,1.527-3.404,3.404-3.404c1.876,0,3.403,1.527,3.403,3.404C24.661,14.249,24.325,14.585,23.911,14.585z"/>
					</g>
				</g>
			</g>
		</g>
		<g>
			<g>
				<g>
					<g>
						<path class="st3" d="M22.723,6.314c0-0.666-1.205-2.632-1.205-2.632s-1.205,1.967-1.205,2.632s0.54,1.205,1.205,1.205
							C22.184,7.519,22.723,6.98,22.723,6.314z"/>
					</g>
				</g>
			</g>
			<g>
				<g>
					
						<ellipse transform="matrix(0.6269 -0.7791 0.7791 0.6269 2.9839 19.6807)" class="st4" cx="22.04" cy="6.725" rx="0.404" ry="0.251"/>
				</g>
			</g>
		</g>
		<g>
			<g>
				<g>
					<g>
						<path class="st3" d="M28.188,10.524c0-1.095-1.984-4.333-1.984-4.333s-1.984,3.238-1.984,4.333s0.888,1.984,1.984,1.984
							S28.188,11.62,28.188,10.524z"/>
					</g>
				</g>
			</g>
			<g>
				<g>
					<path class="st4" d="M27.382,11.459c-0.229,0.288-0.554,0.399-0.732,0.259c-0.185-0.14-0.14-0.495,0.089-0.776
						c0.237-0.288,0.562-0.407,0.747-0.259C27.663,10.823,27.618,11.178,27.382,11.459z"/>
				</g>
			</g>
		</g>
	</g>
</g>
</svg>
