<?xml version="1.0" encoding="utf-8"?>
<!-- Generator: Adobe Illustrator 21.1.0, SVG Export Plug-In . SVG Version: 6.00 Build 0)  -->
<svg version="1.1" id="Layer_1" xmlns="http://www.w3.org/2000/svg" xmlns:xlink="http://www.w3.org/1999/xlink" x="0px" y="0px"
	 viewBox="0 0 32 32" style="enable-background:new 0 0 32 32;" xml:space="preserve">
<style type="text/css">
	.st0{fill:#FFD93B;}
	.st1{fill:#3E4347;}
	.st2{fill:#F4C534;}
	.st3{fill:#38C0DC;}
	.st4{fill:#45CBEA;}
	.st5{fill:#FFFFFF;}
	.st6{fill:#E24B4B;}
	.st7{fill:#5A5F63;}
	.st8{opacity:0.3;}
	.st9{opacity:0.2;}
	.st10{opacity:0.1;}
	.st11{fill:#E9B02C;}
	.st12{fill:#65B1EF;}
	.st13{fill:#E9EFF4;}
	.st14{fill:#8CC63E;}
	.st15{fill:#7FB239;}
	.st16{fill:#D03F3F;}
	.st17{fill:#D23F77;}
	.st18{fill:#E84D88;}
	.st19{fill:#59A5E0;}
	.st20{fill:#DEE4E9;}
	.st21{fill:#D3D9DD;}
	.st22{opacity:0.25;fill:#FFFFFF;}
	.st23{fill:#9A795F;}
	.st24{fill:#F29A2E;}
	.st25{fill:#FC97B2;}
	.st26{fill:#89664C;}
	.st27{fill:#7A5B44;}
	.st28{opacity:0.2;fill:#FFFFFF;}
	.st29{fill:#4E99D2;}
	.st30{fill:#BBC7D1;}
	.st31{fill:#DE9C25;}
</style>
<g>
	<g>
		<g>
			<g>
				<g>
					<g>
						<g>
							<g>
								<g>
									<g>
										<g>
											<g>
												<g>
													<g>
														<g>
															<g>
																<circle class="st0" cx="16" cy="16" r="16"/>
															</g>
														</g>
													</g>
												</g>
												<g>
													<g>
														<g>
															<g>
																<path class="st1" d="M26.137,21.173c-1.61,4.025-5.54,6.865-10.135,6.865c-4.6,0-8.53-2.84-10.14-6.865
																	c-0.225-0.565,0.175-1.185,0.785-1.185h18.705C25.962,19.988,26.362,20.608,26.137,21.173z"/>
															</g>
															<g>
																<path class="st1" d="M26.137,21.173c-1.61,4.025-5.54,6.865-10.135,6.865c-4.6,0-8.53-2.84-10.14-6.865
																	c-0.225-0.565,0.175-1.185,0.785-1.185h18.705C25.962,19.988,26.362,20.608,26.137,21.173z"/>
															</g>
														</g>
													</g>
												</g>
												<g>
													<g>
														<g>
															<g>
																<path class="st2" d="M32,16c0,8.84-7.165,16-16,16c-5.03,0-9.52-2.32-12.455-5.955
																	c2.745,2.22,6.24,3.545,10.045,3.545c8.835,0,16-7.16,16-16c0-3.805-1.325-7.3-3.545-10.045
																	C29.675,6.48,32,10.97,32,16z"/>
															</g>
														</g>
													</g>
												</g>
											</g>
										</g>
									</g>
								</g>
							</g>
						</g>
					</g>
				</g>
			</g>
			<g>
				<g>
					<g>
						<path class="st1" d="M7.291,15.484c-0.188-0.369-0.042-0.821,0.327-1.009l3.661-1.869l-2.9-1.481
							c-0.369-0.188-0.515-0.64-0.327-1.009s0.64-0.515,1.009-0.327l4.208,2.149c0.251,0.128,0.409,0.386,0.409,0.668
							s-0.158,0.54-0.409,0.668L8.3,15.811C7.927,16.001,7.477,15.849,7.291,15.484z"/>
					</g>
				</g>
				<g>
					<g>
						<path class="st1" d="M23.7,15.811l-4.969-2.537c-0.251-0.128-0.409-0.386-0.409-0.668s0.158-0.54,0.409-0.668l4.208-2.149
							c0.37-0.188,0.821-0.042,1.009,0.327s0.042,0.821-0.327,1.009l-2.9,1.481l3.66,1.869c0.369,0.188,0.516,0.64,0.327,1.009
							C24.519,15.855,24.067,15.998,23.7,15.811z"/>
					</g>
				</g>
			</g>
			<g>
				<g>
					<path class="st5" d="M24.547,21.363l-0.024,0.05c-0.484,0.985-1.454,1.633-2.548,1.72c-3.984,0.317-7.968,0.311-11.952-0.019
						c-1.1-0.091-2.074-0.743-2.562-1.733l-0.008-0.017H24.547z"/>
				</g>
			</g>
			<g>
				<path class="st6" d="M16.433,25.063c-0.423,0.209-0.926,0.333-1.502,0.333c-0.113,0-0.226-0.006-0.333-0.017
					c-0.717-0.062-1.44,0.186-1.857,0.773c-0.251,0.358-0.44,0.76-0.563,1.19c1.191,0.446,2.478,0.695,3.825,0.695
					c1.365,0,2.668-0.256,3.872-0.713c-0.232-0.783-0.685-1.472-1.303-1.974C17.968,24.86,17.127,24.719,16.433,25.063z"/>
			</g>
			<g class="st9">
				<g>
					
						<ellipse transform="matrix(0.6347 -0.7727 0.7727 0.6347 -13.4951 23.278)" class="st5" cx="17.876" cy="25.914" rx="0.366" ry="0.627"/>
				</g>
			</g>
		</g>
	</g>
</g>
</svg>
