<?xml version="1.0" encoding="utf-8"?>
<!-- Generator: Adobe Illustrator 21.1.0, SVG Export Plug-In . SVG Version: 6.00 Build 0)  -->
<svg version="1.1" id="Layer_1" xmlns="http://www.w3.org/2000/svg" xmlns:xlink="http://www.w3.org/1999/xlink" x="0px" y="0px"
	 viewBox="0 0 32 32" style="enable-background:new 0 0 32 32;" xml:space="preserve">
<style type="text/css">
	.st0{fill:#FFD93B;}
	.st1{fill:#3E4347;}
	.st2{fill:#F4C534;}
	.st3{fill:#38C0DC;}
	.st4{fill:#45CBEA;}
	.st5{fill:#FFFFFF;}
	.st6{fill:#E24B4B;}
	.st7{fill:#5A5F63;}
	.st8{opacity:0.3;}
	.st9{opacity:0.2;}
	.st10{opacity:0.1;}
	.st11{fill:#E9B02C;}
	.st12{fill:#65B1EF;}
	.st13{fill:#E9EFF4;}
	.st14{fill:#8CC63E;}
	.st15{fill:#7FB239;}
	.st16{fill:#D03F3F;}
	.st17{fill:#D23F77;}
	.st18{fill:#E84D88;}
	.st19{fill:#59A5E0;}
	.st20{fill:#DEE4E9;}
	.st21{fill:#D3D9DD;}
	.st22{opacity:0.25;fill:#FFFFFF;}
	.st23{fill:#9A795F;}
	.st24{fill:#F29A2E;}
	.st25{fill:#FC97B2;}
	.st26{fill:#89664C;}
	.st27{fill:#7A5B44;}
	.st28{opacity:0.2;fill:#FFFFFF;}
	.st29{fill:#4E99D2;}
	.st30{fill:#BBC7D1;}
	.st31{fill:#DE9C25;}
</style>
<g>
	<g>
		<g>
			<g>
				<g>
					<g>
						<g>
							<circle class="st0" cx="16" cy="16" r="16"/>
						</g>
					</g>
				</g>
			</g>
		</g>
		<g>
			<g>
				<g>
					<g>
						<g>
							<path class="st2" d="M32,16c0,8.84-7.165,16-16,16c-5.03,0-9.52-2.32-12.455-5.955c2.745,2.22,6.24,3.545,10.045,3.545
								c8.835,0,16-7.16,16-16c0-3.805-1.325-7.3-3.545-10.045C29.675,6.48,32,10.97,32,16z"/>
						</g>
					</g>
				</g>
			</g>
		</g>
	</g>
	<g>
		<g>
			<g>
				<g>
					<g>
						<g>
							<g>
								<path class="st1" d="M24.714,22.674c-1.499,4.323-4.833,6.675-8.713,6.675s-7.214-2.352-8.713-6.675
									c-0.266-0.771,0.242-1.624,0.874-1.421c5.223,1.624,10.446,1.624,15.669,0C24.464,21.051,24.979,21.903,24.714,22.674z"/>
							</g>
						</g>
					</g>
				</g>
			</g>
			<g>
				<path class="st5" d="M23.832,21.254c-5.223,1.624-10.446,1.624-15.669,0c-0.151-0.048-0.294-0.034-0.422,0.023
					c1.495,2.914,4.174,3.755,8.259,3.755c4.085,0,6.764-0.84,8.26-3.754C24.13,21.22,23.984,21.205,23.832,21.254z"/>
			</g>
		</g>
		<path class="st6" d="M16.001,29.349c1.456,0,2.835-0.331,4.069-0.974c-0.318-0.956-0.954-1.765-1.795-2.293
			c-0.622-0.389-1.399-0.346-2.042,0.007c-0.481,0.261-1.025,0.353-1.548,0.29c-1.025-0.113-2.028,0.466-2.502,1.378
			c-0.102,0.196-0.186,0.403-0.257,0.615C13.162,29.017,14.543,29.349,16.001,29.349z"/>
	</g>
	<g>
		<g>
			<g>
				<path class="st1" d="M13.642,14.139c-0.384,0-0.736-0.255-0.843-0.644c-0.346-1.263-1.495-2.146-2.796-2.146
					c-1.294,0-2.439,0.882-2.785,2.146c-0.128,0.467-0.612,0.742-1.074,0.613c-0.467-0.127-0.741-0.608-0.613-1.075
					c0.553-2.021,2.393-3.434,4.473-3.434c2.087,0,3.931,1.412,4.483,3.434c0.128,0.466-0.146,0.947-0.613,1.075
					C13.796,14.129,13.719,14.139,13.642,14.139z"/>
			</g>
		</g>
		<g>
			<g>
				<path class="st1" d="M25.625,14.139c-0.384,0-0.736-0.255-0.843-0.644c-0.346-1.263-1.495-2.146-2.796-2.146
					c-1.294,0-2.439,0.882-2.785,2.146c-0.128,0.467-0.611,0.742-1.074,0.613c-0.467-0.127-0.741-0.608-0.613-1.075
					c0.553-2.021,2.393-3.434,4.473-3.434c2.087,0,3.931,1.412,4.483,3.434c0.128,0.466-0.146,0.947-0.613,1.075
					C25.779,14.129,25.702,14.139,25.625,14.139z"/>
			</g>
		</g>
	</g>
	<g>
		<g>
			<path class="st12" d="M29.424,19.735c0.033,0.809-0.595,1.49-1.4,1.523c-0.809,0.033-1.512-0.594-1.522-1.404
				c-0.02-1.619-0.321-5.307-0.321-5.307S29.359,18.138,29.424,19.735z"/>
		</g>
		<g>
			<path class="st12" d="M2.576,19.735c-0.033,0.809,0.595,1.49,1.4,1.523c0.809,0.033,1.512-0.594,1.522-1.404
				c0.02-1.619,0.321-5.307,0.321-5.307S2.641,18.138,2.576,19.735z"/>
		</g>
	</g>
</g>
</svg>
