<?xml version="1.0" encoding="utf-8"?>
<!-- Generator: Adobe Illustrator 21.1.0, SVG Export Plug-In . SVG Version: 6.00 Build 0)  -->
<svg version="1.1" id="Layer_1" xmlns="http://www.w3.org/2000/svg" xmlns:xlink="http://www.w3.org/1999/xlink" x="0px" y="0px"
	 viewBox="0 0 32 32" style="enable-background:new 0 0 32 32;" xml:space="preserve">
<style type="text/css">
	.st0{fill:#FFD93B;}
	.st1{fill:#3E4347;}
	.st2{fill:#F4C534;}
	.st3{fill:#38C0DC;}
	.st4{fill:#45CBEA;}
	.st5{fill:#FFFFFF;}
	.st6{fill:#E24B4B;}
	.st7{fill:#5A5F63;}
	.st8{opacity:0.3;}
	.st9{opacity:0.2;}
	.st10{opacity:0.1;}
	.st11{fill:#E9B02C;}
	.st12{fill:#65B1EF;}
	.st13{fill:#E9EFF4;}
	.st14{fill:#8CC63E;}
	.st15{fill:#7FB239;}
	.st16{fill:#D03F3F;}
	.st17{fill:#D23F77;}
	.st18{fill:#E84D88;}
	.st19{fill:#59A5E0;}
	.st20{fill:#DEE4E9;}
	.st21{fill:#D3D9DD;}
	.st22{opacity:0.25;fill:#FFFFFF;}
	.st23{fill:#9A795F;}
	.st24{fill:#F29A2E;}
	.st25{fill:#FC97B2;}
	.st26{fill:#89664C;}
	.st27{fill:#7A5B44;}
	.st28{opacity:0.2;fill:#FFFFFF;}
	.st29{fill:#4E99D2;}
	.st30{fill:#BBC7D1;}
	.st31{fill:#DE9C25;}
</style>
<g>
	<g>
		<g>
			<g>
				<g>
					<g>
						<g>
							<g>
								<g>
									<g>
										<g>
											<g>
												<g>
													<g>
														<g>
															<g>
																<g>
																	<g>
																		<g>
																			<g>
																				<g>
																					<g>
																						<g>
																							<circle class="st0" cx="16" cy="16" r="16"/>
																						</g>
																					</g>
																				</g>
																			</g>
																		</g>
																		<g>
																			<g>
																				<g>
																					<g>
																						<g>
																							<path class="st2" d="M32,16c0,8.84-7.165,16-16,16c-5.03,0-9.52-2.32-12.455-5.955
																								c2.745,2.22,6.24,3.545,10.045,3.545c8.835,0,16-7.16,16-16c0-3.805-1.325-7.3-3.545-10.045
																								C29.675,6.48,32,10.97,32,16z"/>
																						</g>
																					</g>
																				</g>
																			</g>
																		</g>
																	</g>
																</g>
															</g>
														</g>
													</g>
												</g>
											</g>
										</g>
									</g>
								</g>
							</g>
						</g>
					</g>
				</g>
				<g>
					<path class="st6" d="M20.761,21.527c-1.713,1.096-3.885,1.745-5.861,1.757c0.198,0.61,0.347,1.236,0.438,1.874
						c0.258,1.645,1.209,3.436,2.884,3.752c1.652,0.327,3.873-1.39,3.186-4.617C21.21,23.363,21.05,22.429,20.761,21.527z"/>
				</g>
				<g>
					<g>
						<g>
							<g>
								<g>
									<path class="st1" d="M22.444,19.561c-0.202,0-0.391,0.085-0.534,0.227c-1.532,1.532-3.633,2.448-5.909,2.448
										c-2.277,0-4.377-0.916-5.91-2.448c-0.143-0.143-0.332-0.227-0.534-0.227h0c-0.675,0-1.003,0.815-0.526,1.293
										c1.806,1.806,4.285,2.883,6.97,2.883c2.684,0,5.163-1.076,6.97-2.883C23.447,20.376,23.118,19.561,22.444,19.561
										L22.444,19.561z"/>
								</g>
							</g>
						</g>
					</g>
				</g>
				<g class="st9">
					
						<ellipse transform="matrix(0.4534 -0.8913 0.8913 0.4534 -13.1884 32.4493)" class="st5" cx="19.862" cy="26.977" rx="0.924" ry="0.587"/>
				</g>
			</g>
			<g>
				<g>
					<g>
						<g>
							<g>
								<g>
									<path class="st1" d="M13.561,13.678c-0.752-1.026-2.108-1.708-3.654-1.708c-1.553,0.007-2.909,0.689-3.661,1.715
										c0.035-1.989,1.659-3.591,3.661-3.591C11.895,10.094,13.526,11.689,13.561,13.678z"/>
								</g>
							</g>
						</g>
					</g>
				</g>
				<g>
					<g>
						<g>
							<g>
								<g>
									<path class="st1" d="M25.755,13.678c-0.752-1.026-2.108-1.708-3.654-1.708c-1.553,0.007-2.909,0.689-3.661,1.715
										c0.035-1.989,1.659-3.591,3.661-3.591C24.089,10.094,25.72,11.689,25.755,13.678z"/>
								</g>
							</g>
						</g>
					</g>
				</g>
			</g>
		</g>
	</g>
</g>
</svg>
