<?xml version="1.0" encoding="utf-8"?>
<!-- Generator: Adobe Illustrator 21.1.0, SVG Export Plug-In . SVG Version: 6.00 Build 0)  -->
<svg version="1.1" id="Layer_1" xmlns="http://www.w3.org/2000/svg" xmlns:xlink="http://www.w3.org/1999/xlink" x="0px" y="0px"
	 viewBox="0 0 32 32" style="enable-background:new 0 0 32 32;" xml:space="preserve">
<style type="text/css">
	.st0{fill:#FFD93B;}
	.st1{fill:#3E4347;}
	.st2{fill:#F4C534;}
	.st3{fill:#38C0DC;}
	.st4{fill:#45CBEA;}
	.st5{fill:#FFFFFF;}
	.st6{fill:#E24B4B;}
	.st7{fill:#5A5F63;}
	.st8{opacity:0.3;}
	.st9{opacity:0.2;}
	.st10{opacity:0.1;}
	.st11{fill:#E9B02C;}
	.st12{fill:#65B1EF;}
	.st13{fill:#E9EFF4;}
	.st14{fill:#8CC63E;}
	.st15{fill:#7FB239;}
	.st16{fill:#D03F3F;}
	.st17{fill:#D23F77;}
	.st18{fill:#E84D88;}
	.st19{fill:#59A5E0;}
	.st20{fill:#DEE4E9;}
	.st21{fill:#D3D9DD;}
	.st22{opacity:0.25;fill:#FFFFFF;}
	.st23{fill:#9A795F;}
	.st24{fill:#F29A2E;}
	.st25{fill:#FC97B2;}
	.st26{fill:#89664C;}
	.st27{fill:#7A5B44;}
	.st28{opacity:0.2;fill:#FFFFFF;}
	.st29{fill:#4E99D2;}
	.st30{fill:#BBC7D1;}
	.st31{fill:#DE9C25;}
</style>
<g>
	<g>
		<g>
			<g>
				<g>
					<g>
						<g>
							<g>
								<g>
									<g>
										<g>
											<g>
												<g>
													<g>
														<circle class="st0" cx="16" cy="16" r="16"/>
													</g>
												</g>
											</g>
										</g>
										<g>
											<g>
												<g>
													<g>
														<path class="st2" d="M32,16c0,8.84-7.165,16-16,16c-5.03,0-9.52-2.32-12.455-5.955
															c2.745,2.22,6.24,3.545,10.045,3.545c8.835,0,16-7.16,16-16c0-3.805-1.325-7.3-3.545-10.045
															C29.675,6.48,32,10.97,32,16z"/>
													</g>
												</g>
											</g>
										</g>
									</g>
								</g>
							</g>
						</g>
					</g>
				</g>
			</g>
		</g>
	</g>
	<g>
		<g>
			<ellipse class="st1" cx="15.603" cy="23.169" rx="3.361" ry="3.673"/>
		</g>
		<g>
			<g>
				<g>
					<g>
						<circle class="st1" cx="21.14" cy="13.789" r="2.384"/>
					</g>
					<g>
						<g>
							
								<ellipse transform="matrix(0.8022 -0.597 0.597 0.8022 -3.27 15.7584)" class="st7" cx="22.15" cy="12.815" rx="0.405" ry="0.626"/>
						</g>
					</g>
				</g>
				<g>
					<g>
						<path class="st1" d="M24.997,13.114c-0.375-2.158-2.487-3.693-4.806-3.112c-0.314,0.08-0.63-0.111-0.708-0.424
							c-0.078-0.313,0.111-0.63,0.424-0.708c2.987-0.75,5.75,1.226,6.24,4.043c0.055,0.317-0.158,0.619-0.475,0.675
							C25.357,13.643,25.053,13.433,24.997,13.114z"/>
					</g>
				</g>
			</g>
			<g>
				<g>
					<g>
						<circle class="st1" cx="10.86" cy="13.789" r="2.384"/>
					</g>
					<g>
						<g>
							
								<ellipse transform="matrix(0.597 -0.8022 0.8022 0.597 -6.311 13.066)" class="st7" cx="9.85" cy="12.815" rx="0.626" ry="0.405"/>
						</g>
					</g>
				</g>
				<g>
					<g>
						<path class="st1" d="M6.328,13.588c-0.317-0.055-0.53-0.357-0.475-0.675c0.49-2.82,3.255-4.793,6.24-4.043
							c0.312,0.078,0.502,0.396,0.424,0.708c-0.078,0.312-0.393,0.504-0.708,0.424c-2.315-0.581-4.43,0.95-4.806,3.112
							C6.947,13.433,6.643,13.643,6.328,13.588z"/>
					</g>
				</g>
			</g>
		</g>
	</g>
</g>
</svg>
