<?xml version="1.0" encoding="utf-8"?>
<!-- Generator: Adobe Illustrator 21.1.0, SVG Export Plug-In . SVG Version: 6.00 Build 0)  -->
<svg version="1.1" id="Layer_1" xmlns="http://www.w3.org/2000/svg" xmlns:xlink="http://www.w3.org/1999/xlink" x="0px" y="0px"
	 viewBox="0 0 32 32" style="enable-background:new 0 0 32 32;" xml:space="preserve">
<style type="text/css">
	.st0{fill:#FFD93B;}
	.st1{fill:#3E4347;}
	.st2{fill:#F4C534;}
	.st3{fill:#38C0DC;}
	.st4{fill:#45CBEA;}
	.st5{fill:#FFFFFF;}
	.st6{fill:#E24B4B;}
	.st7{fill:#5A5F63;}
	.st8{opacity:0.3;}
	.st9{opacity:0.2;}
	.st10{opacity:0.1;}
	.st11{fill:#E9B02C;}
	.st12{fill:#65B1EF;}
	.st13{fill:#E9EFF4;}
	.st14{fill:#8CC63E;}
	.st15{fill:#7FB239;}
	.st16{fill:#D03F3F;}
	.st17{fill:#D23F77;}
	.st18{fill:#E84D88;}
	.st19{fill:#59A5E0;}
	.st20{fill:#DEE4E9;}
	.st21{fill:#D3D9DD;}
	.st22{opacity:0.25;fill:#FFFFFF;}
	.st23{fill:#9A795F;}
	.st24{fill:#F29A2E;}
	.st25{fill:#FC97B2;}
	.st26{fill:#89664C;}
	.st27{fill:#7A5B44;}
	.st28{opacity:0.2;fill:#FFFFFF;}
	.st29{fill:#4E99D2;}
	.st30{fill:#BBC7D1;}
	.st31{fill:#DE9C25;}
</style>
<g>
	<g>
		<g>
			<g>
				<g>
					<g>
						<g>
							<g>
								<g>
									<g>
										<g>
											<g>
												<g>
													<g>
														<g>
															<circle class="st0" cx="16" cy="16" r="16"/>
														</g>
													</g>
												</g>
											</g>
											<g>
												<g>
													<g>
														<g>
															<path class="st2" d="M32,16c0,8.84-7.165,16-16,16c-5.03,0-9.52-2.32-12.455-5.955
																c2.745,2.22,6.24,3.545,10.045,3.545c8.835,0,16-7.16,16-16c0-3.805-1.325-7.3-3.545-10.045
																C29.675,6.48,32,10.97,32,16z"/>
														</g>
													</g>
												</g>
											</g>
										</g>
									</g>
								</g>
							</g>
						</g>
					</g>
				</g>
			</g>
		</g>
	</g>
	<g>
		<path class="st1" d="M20.654,27.277c-1.569,0.274-2.856-0.832-3.333-2.357c-0.764-2.44-4.199-2.874-4.462-4.216
			c0.155-1.623,10.158-0.613,10.158,3.24C23.285,25.513,22.229,27.009,20.654,27.277z"/>
	</g>
	<g>
		<g>
			<path class="st4" d="M27.184,7.068c0-0.93-1.685-3.523-1.685-3.523s-1.685,2.592-1.685,3.523s0.754,1.685,1.685,1.685
				C26.43,8.752,27.184,7.998,27.184,7.068z"/>
		</g>
		<g class="st9">
			<path class="st5" d="M26.463,7.903c-0.174,0.203-0.414,0.274-0.547,0.163c-0.134-0.111-0.102-0.366,0.062-0.569
				c0.169-0.198,0.414-0.274,0.547-0.163C26.659,7.45,26.627,7.7,26.463,7.903z"/>
		</g>
	</g>
	<g>
		<g>
			<path class="st4" d="M31.172,13.711c0-1.332-2.412-5.044-2.412-5.044s-2.412,3.712-2.412,5.044s1.08,2.412,2.412,2.412
				S31.172,15.044,31.172,13.711z"/>
		</g>
		<g class="st9">
			<path class="st5" d="M30.139,14.907c-0.249,0.291-0.592,0.393-0.783,0.233c-0.191-0.159-0.146-0.525,0.089-0.815
				c0.242-0.283,0.592-0.393,0.783-0.233C30.42,14.258,30.375,14.617,30.139,14.907z"/>
		</g>
	</g>
	<g>
		<g>
			<g>
				<g>
					<g>
						<g>
							<path class="st1" d="M7.338,16.836c-0.233-0.285-0.19-0.705,0.095-0.938c1.151-0.939,2.555-1.594,4.07-1.912
								c-1.019-0.588-2.158-1.008-3.364-1.235c-0.362-0.068-0.6-0.417-0.532-0.779c0.069-0.362,0.415-0.598,0.779-0.532
								c2.009,0.379,3.86,1.238,5.353,2.485c0.212,0.177,0.293,0.467,0.203,0.729c-0.09,0.261-0.332,0.44-0.608,0.45
								c-1.894,0.063-3.69,0.712-5.058,1.828C7.992,17.163,7.571,17.122,7.338,16.836z"/>
						</g>
					</g>
				</g>
			</g>
			<g>
				<g>
					<path class="st1" d="M8.226,10.374c-0.322,0-0.583-0.261-0.583-0.583c0-0.322,0.261-0.584,0.583-0.584
						c1.316-0.001,3.662-0.329,4.581-2.519c0.125-0.297,0.465-0.437,0.764-0.312c0.297,0.125,0.437,0.466,0.312,0.764
						C12.658,10.056,9.519,10.373,8.226,10.374L8.226,10.374z"/>
				</g>
			</g>
		</g>
		<g>
			<g>
				<g>
					<g>
						<g>
							<path class="st1" d="M24.662,16.836c0.233-0.285,0.19-0.705-0.095-0.938c-1.151-0.939-2.555-1.594-4.07-1.912
								c1.019-0.588,2.158-1.008,3.364-1.235c0.362-0.068,0.6-0.417,0.532-0.779c-0.069-0.362-0.415-0.598-0.779-0.532
								c-2.009,0.379-3.86,1.238-5.353,2.485c-0.212,0.177-0.293,0.467-0.203,0.729c0.09,0.261,0.332,0.44,0.608,0.45
								c1.894,0.063,3.69,0.712,5.058,1.828C24.008,17.163,24.429,17.122,24.662,16.836z"/>
						</g>
					</g>
				</g>
			</g>
			<g>
				<g>
					<path class="st1" d="M23.774,10.374c0.322,0,0.583-0.261,0.583-0.583c0-0.322-0.261-0.584-0.583-0.584
						c-1.316-0.001-3.662-0.329-4.581-2.519c-0.125-0.297-0.465-0.437-0.764-0.312c-0.297,0.125-0.437,0.466-0.312,0.764
						C19.342,10.056,22.481,10.373,23.774,10.374L23.774,10.374z"/>
				</g>
			</g>
		</g>
	</g>
</g>
</svg>
