<?xml version="1.0" encoding="utf-8"?>
<!-- Generator: Adobe Illustrator 21.1.0, SVG Export Plug-In . SVG Version: 6.00 Build 0)  -->
<svg version="1.1" id="Layer_1" xmlns="http://www.w3.org/2000/svg" xmlns:xlink="http://www.w3.org/1999/xlink" x="0px" y="0px"
	 viewBox="0 0 32 32" style="enable-background:new 0 0 32 32;" xml:space="preserve">
<style type="text/css">
	.st0{fill:#FFD93B;}
	.st1{fill:#3E4347;}
	.st2{fill:#F4C534;}
	.st3{fill:#38C0DC;}
	.st4{fill:#45CBEA;}
	.st5{fill:#FFFFFF;}
	.st6{fill:#E24B4B;}
	.st7{fill:#5A5F63;}
	.st8{opacity:0.3;}
	.st9{opacity:0.2;}
	.st10{opacity:0.1;}
	.st11{fill:#E9B02C;}
	.st12{fill:#65B1EF;}
	.st13{fill:#E9EFF4;}
	.st14{fill:#8CC63E;}
	.st15{fill:#7FB239;}
	.st16{fill:#D03F3F;}
	.st17{fill:#D23F77;}
	.st18{fill:#E84D88;}
	.st19{fill:#59A5E0;}
	.st20{fill:#DEE4E9;}
	.st21{fill:#D3D9DD;}
	.st22{opacity:0.25;fill:#FFFFFF;}
	.st23{fill:#9A795F;}
	.st24{fill:#F29A2E;}
	.st25{fill:#FC97B2;}
	.st26{fill:#89664C;}
	.st27{fill:#7A5B44;}
	.st28{opacity:0.2;fill:#FFFFFF;}
	.st29{fill:#4E99D2;}
	.st30{fill:#BBC7D1;}
	.st31{fill:#DE9C25;}
</style>
<g>
	<g>
		<g>
			<g>
				<g>
					<g>
						<g>
							<g>
								<g>
									<g>
										<g>
											<g>
												<g>
													<g>
														<g>
															<g>
																<g>
																	<circle class="st0" cx="16" cy="16" r="16"/>
																</g>
															</g>
														</g>
													</g>
												</g>
												<g>
													<g>
														<g>
															<g>
																<g>
																	<path class="st2" d="M32,16c0,8.84-7.165,16-16,16c-5.03,0-9.52-2.32-12.455-5.955
																		c2.745,2.22,6.24,3.545,10.045,3.545c8.835,0,16-7.16,16-16c0-3.805-1.325-7.3-3.545-10.045
																		C29.675,6.48,32,10.97,32,16z"/>
																</g>
															</g>
														</g>
													</g>
												</g>
											</g>
										</g>
									</g>
								</g>
							</g>
						</g>
					</g>
				</g>
			</g>
		</g>
	</g>
	<g>
		<g>
			<g>
				<path class="st1" d="M7.136,14.299c-0.143-0.339,0.016-0.73,0.355-0.873c0.34-0.143,0.73,0.016,0.873,0.355
					c0.349,0.828,1.178,1.318,2.061,1.222c0.883-0.097,1.585-0.756,1.746-1.64c0.066-0.362,0.414-0.602,0.775-0.536
					c0.362,0.066,0.603,0.413,0.536,0.775c-0.268,1.469-1.438,2.564-2.912,2.726C9.102,16.49,7.718,15.678,7.136,14.299z"/>
			</g>
		</g>
		<g>
			<g>
				<path class="st1" d="M21.429,16.328c-1.474-0.162-2.644-1.257-2.912-2.726c-0.066-0.362,0.174-0.71,0.536-0.776
					c0.362-0.065,0.709,0.174,0.776,0.536c0.161,0.884,0.863,1.543,1.746,1.64c0.886,0.096,1.712-0.394,2.061-1.222
					c0.143-0.339,0.534-0.498,0.873-0.355c0.339,0.143,0.498,0.534,0.355,0.873C24.281,15.681,22.895,16.49,21.429,16.328z"/>
			</g>
		</g>
	</g>
	<g>
		<g>
			<circle class="st1" cx="16" cy="23.028" r="3.394"/>
		</g>
	</g>
	<g>
		<g>
			<g>
				<path class="st6" d="M24.149,8.935v1.121h-4.358V9.052c0.345-0.4,2.132-2.469,2.493-2.83c-0.408,0.024-1.873-0.008-2.312,0V5.18
					H24v0.909c-2.187,2.524-1.678,1.936-2.516,2.845H24.149z"/>
			</g>
		</g>
		<g>
			<g>
				<path class="st6" d="M31.691,6.062v1.711h-6.653V6.241c0.527-0.61,3.255-3.769,3.805-4.32c-0.622,0.036-2.86-0.012-3.53,0V0.33
					h6.151v1.388c-3.339,3.853-2.561,2.956-3.841,4.344H31.691z"/>
			</g>
		</g>
	</g>
</g>
</svg>
