<?xml version="1.0" encoding="utf-8"?>
<!-- Generator: Adobe Illustrator 21.1.0, SVG Export Plug-In . SVG Version: 6.00 Build 0)  -->
<svg version="1.1" id="Layer_1" xmlns="http://www.w3.org/2000/svg" xmlns:xlink="http://www.w3.org/1999/xlink" x="0px" y="0px"
	 viewBox="0 0 32 32" style="enable-background:new 0 0 32 32;" xml:space="preserve">
<style type="text/css">
	.st0{fill:#FFD93B;}
	.st1{fill:#3E4347;}
	.st2{fill:#F4C534;}
	.st3{fill:#38C0DC;}
	.st4{fill:#45CBEA;}
	.st5{fill:#FFFFFF;}
	.st6{fill:#E24B4B;}
	.st7{fill:#5A5F63;}
	.st8{opacity:0.3;}
	.st9{opacity:0.2;}
	.st10{opacity:0.1;}
	.st11{fill:#E9B02C;}
	.st12{fill:#65B1EF;}
	.st13{fill:#E9EFF4;}
	.st14{fill:#8CC63E;}
	.st15{fill:#7FB239;}
	.st16{fill:#D03F3F;}
	.st17{fill:#D23F77;}
	.st18{fill:#E84D88;}
	.st19{fill:#59A5E0;}
	.st20{fill:#DEE4E9;}
	.st21{fill:#D3D9DD;}
	.st22{opacity:0.25;fill:#FFFFFF;}
	.st23{fill:#9A795F;}
	.st24{fill:#F29A2E;}
	.st25{fill:#FC97B2;}
	.st26{fill:#89664C;}
	.st27{fill:#7A5B44;}
	.st28{opacity:0.2;fill:#FFFFFF;}
	.st29{fill:#4E99D2;}
	.st30{fill:#BBC7D1;}
	.st31{fill:#DE9C25;}
</style>
<g>
	<g>
		<g>
			<g>
				<g>
					<g>
						<g>
							<g>
								<g>
									<g>
										<g>
											<g>
												<g>
													<g>
														<g>
															<g>
																<g>
																	<g>
																		<g>
																			<g>
																				<g>
																					<circle class="st0" cx="16" cy="16" r="16"/>
																				</g>
																			</g>
																		</g>
																	</g>
																</g>
															</g>
															<g>
																<g>
																	<g>
																		<g>
																			<g>
																				<g>
																					<path class="st2" d="M32,16c0,8.84-7.165,16-16,16c-5.03,0-9.52-2.32-12.455-5.955
																						c2.745,2.22,6.24,3.545,10.045,3.545c8.835,0,16-7.16,16-16c0-3.805-1.325-7.3-3.545-10.045
																						C29.675,6.48,32,10.97,32,16z"/>
																				</g>
																			</g>
																		</g>
																	</g>
																</g>
															</g>
														</g>
													</g>
												</g>
											</g>
										</g>
									</g>
								</g>
							</g>
						</g>
					</g>
				</g>
			</g>
		</g>
	</g>
	<g>
		<g>
			<g>
				<path class="st1" d="M9.586,21.567c0.604-0.189,2.736,1.997,6.26,1.872c3.523,0.126,5.812-2.06,6.416-1.871
					c0.882,0.075-0.935,4.101-6.341,4.115C10.516,25.669,8.704,21.643,9.586,21.567z"/>
			</g>
		</g>
		<g>
			<g>
				<g>
					<g>
						<g>
							<g>
								<path class="st11" d="M24.712,12.019c-1.943-2.553-4.569-2.167-5.075-2.063c-0.363,0.073-0.713-0.16-0.786-0.52
									c-0.074-0.361,0.16-0.713,0.52-0.786c1.862-0.379,4.523,0.094,6.403,2.562c0.223,0.293,0.166,0.711-0.127,0.935
									C25.353,12.369,24.934,12.311,24.712,12.019z"/>
							</g>
						</g>
					</g>
					<g>
						<g>
							<path class="st1" d="M21.159,16.773c-1.434,0-2.705-0.923-3.164-2.297c-0.117-0.349,0.072-0.727,0.422-0.843
								c0.349-0.116,0.727,0.072,0.843,0.422c0.276,0.828,1.039,1.385,1.899,1.385s1.622-0.557,1.899-1.385
								c0.117-0.349,0.495-0.536,0.843-0.422c0.349,0.117,0.538,0.494,0.422,0.843C23.864,15.85,22.593,16.773,21.159,16.773z"/>
						</g>
					</g>
				</g>
			</g>
			<g>
				<g>
					<g>
						<g>
							<g>
								<path class="st11" d="M6.354,12.146c-0.293-0.223-0.35-0.641-0.127-0.934c1.879-2.469,4.538-2.941,6.402-2.563
									c0.361,0.074,0.594,0.426,0.52,0.786c-0.074,0.361-0.426,0.593-0.786,0.52c-0.507-0.103-3.133-0.489-5.075,2.063
									C7.065,12.313,6.646,12.368,6.354,12.146z"/>
							</g>
						</g>
					</g>
					<g>
						<g>
							<path class="st1" d="M10.841,16.773c-1.434,0-2.705-0.923-3.163-2.297c-0.117-0.349,0.072-0.727,0.422-0.843
								c0.35-0.118,0.727,0.073,0.843,0.422c0.276,0.828,1.039,1.385,1.898,1.385s1.622-0.557,1.899-1.385
								c0.117-0.349,0.495-0.536,0.843-0.422c0.349,0.117,0.538,0.494,0.422,0.843C13.547,15.85,12.275,16.773,10.841,16.773z"/>
						</g>
					</g>
				</g>
			</g>
		</g>
	</g>
</g>
</svg>
