<?xml version="1.0" encoding="utf-8"?>
<!-- Generator: Adobe Illustrator 21.1.0, SVG Export Plug-In . SVG Version: 6.00 Build 0)  -->
<svg version="1.1" id="Layer_1" xmlns="http://www.w3.org/2000/svg" xmlns:xlink="http://www.w3.org/1999/xlink" x="0px" y="0px"
	 viewBox="0 0 32 32" style="enable-background:new 0 0 32 32;" xml:space="preserve">
<style type="text/css">
	.st0{fill:#FFD93B;}
	.st1{fill:#3E4347;}
	.st2{fill:#F4C534;}
	.st3{fill:#38C0DC;}
	.st4{fill:#45CBEA;}
	.st5{fill:#FFFFFF;}
	.st6{fill:#E24B4B;}
	.st7{fill:#5A5F63;}
	.st8{opacity:0.3;}
	.st9{opacity:0.2;}
	.st10{opacity:0.1;}
	.st11{fill:#E9B02C;}
	.st12{fill:#65B1EF;}
	.st13{fill:#E9EFF4;}
	.st14{fill:#8CC63E;}
	.st15{fill:#7FB239;}
	.st16{fill:#D03F3F;}
	.st17{fill:#D23F77;}
	.st18{fill:#E84D88;}
	.st19{fill:#59A5E0;}
	.st20{fill:#DEE4E9;}
	.st21{fill:#D3D9DD;}
	.st22{opacity:0.25;fill:#FFFFFF;}
	.st23{fill:#9A795F;}
	.st24{fill:#F29A2E;}
	.st25{fill:#FC97B2;}
	.st26{fill:#89664C;}
	.st27{fill:#7A5B44;}
	.st28{opacity:0.2;fill:#FFFFFF;}
	.st29{fill:#4E99D2;}
	.st30{fill:#BBC7D1;}
	.st31{fill:#DE9C25;}
</style>
<g>
	<g>
		<g>
			<g>
				<g>
					<g>
						<g>
							<g>
								<g>
									<g>
										<g>
											<g>
												<g>
													<g>
														<g>
															<g>
																<g>
																	<g>
																		<g>
																			<g>
																				<g>
																					<g>
																						<circle class="st0" cx="16" cy="15.014" r="15.014"/>
																					</g>
																				</g>
																			</g>
																		</g>
																	</g>
																</g>
																<g>
																	<g>
																		<g>
																			<g>
																				<g>
																					<g>
																						<path class="st2" d="M31.014,15.014c0,8.295-6.724,15.014-15.014,15.014c-4.72,0-8.934-2.177-11.688-5.588
																							c2.576,2.083,5.856,3.327,9.426,3.327c8.291,0,15.014-6.719,15.014-15.014c0-3.571-1.243-6.85-3.327-9.426
																							C28.833,6.081,31.014,10.294,31.014,15.014z"/>
																					</g>
																				</g>
																			</g>
																		</g>
																	</g>
																</g>
															</g>
														</g>
													</g>
												</g>
											</g>
										</g>
									</g>
								</g>
							</g>
						</g>
					</g>
				</g>
			</g>
		</g>
	</g>
	<g>
		<g>
			<g>
				<circle class="st5" cx="11.225" cy="11.93" r="3.599"/>
			</g>
			<g>
				<g>
					<circle class="st1" cx="11.225" cy="11.931" r="1.964"/>
				</g>
				<g>
					
						<ellipse transform="matrix(0.794 -0.6079 0.6079 0.794 -4.2883 9.634)" class="st7" cx="12.071" cy="11.144" rx="0.325" ry="0.453"/>
				</g>
			</g>
		</g>
		<g>
			<path class="st1" d="M23.81,12.021c0,0.407-0.327,0.733-0.733,0.733H18.61c-0.407,0-0.733-0.327-0.733-0.733
				c0-0.4,0.327-0.733,0.733-0.733h4.467C23.484,11.288,23.81,11.621,23.81,12.021z"/>
		</g>
	</g>
	<g>
		<path class="st1" d="M23.156,18.58c1.3,0.603-0.668,6.678-7.124,6.729c-6.456-0.05-8.424-6.126-7.124-6.729
			c1.111-0.715,3.802,1.149,7.124,1.173C19.383,19.779,22.046,17.865,23.156,18.58z"/>
	</g>
	<g>
		<g>
			<path class="st6" d="M19.022,22.727c-0.72-0.161-1.508,0.207-2.234,0.46c-0.488,0.189-1.113,0.261-1.791,0.117
				c-0.012-0.003-0.025-0.005-0.037-0.008c-1.169-0.291-2.689-0.629-3.001,0.453c-0.001,0.008-0.003,0.015-0.004,0.023
				c-0.262,1.417,0.135,3.119,0.506,4.81c0.498,1.822,1.706,3.263,3.271,3.404c1.827,0.174,3.291-1.222,3.842-3.258
				c0.379-1.739,0.808-3.498,0.538-4.956C20.009,23.205,19.547,22.859,19.022,22.727z"/>
		</g>
	</g>
	<g class="st9">
		
			<ellipse transform="matrix(0.5365 -0.8439 0.8439 0.5365 -11.2804 27.0208)" class="st5" cx="18.959" cy="23.78" rx="0.34" ry="0.596"/>
	</g>
</g>
</svg>
