<?xml version="1.0" encoding="utf-8"?>
<!-- Generator: Adobe Illustrator 21.1.0, SVG Export Plug-In . SVG Version: 6.00 Build 0)  -->
<svg version="1.1" id="Layer_1" xmlns="http://www.w3.org/2000/svg" xmlns:xlink="http://www.w3.org/1999/xlink" x="0px" y="0px"
	 viewBox="0 0 32 32" style="enable-background:new 0 0 32 32;" xml:space="preserve">
<style type="text/css">
	.st0{fill:#FFD93B;}
	.st1{fill:#3E4347;}
	.st2{fill:#F4C534;}
	.st3{fill:#38C0DC;}
	.st4{fill:#45CBEA;}
	.st5{fill:#FFFFFF;}
	.st6{fill:#E24B4B;}
	.st7{fill:#5A5F63;}
	.st8{opacity:0.3;}
	.st9{opacity:0.2;}
	.st10{opacity:0.1;}
	.st11{fill:#E9B02C;}
	.st12{fill:#65B1EF;}
	.st13{fill:#E9EFF4;}
	.st14{fill:#8CC63E;}
	.st15{fill:#7FB239;}
	.st16{fill:#D03F3F;}
	.st17{fill:#D23F77;}
	.st18{fill:#E84D88;}
	.st19{fill:#59A5E0;}
	.st20{fill:#DEE4E9;}
	.st21{fill:#D3D9DD;}
	.st22{opacity:0.25;fill:#FFFFFF;}
	.st23{fill:#9A795F;}
	.st24{fill:#F29A2E;}
	.st25{fill:#FC97B2;}
	.st26{fill:#89664C;}
	.st27{fill:#7A5B44;}
	.st28{opacity:0.2;fill:#FFFFFF;}
	.st29{fill:#4E99D2;}
	.st30{fill:#BBC7D1;}
	.st31{fill:#DE9C25;}
</style>
<g>
	<g>
		<g>
			<g>
				<g>
					<g>
						<g>
							<g>
								<g>
									<g>
										<g>
											<g>
												<g>
													<g>
														<g>
															<g>
																<g>
																	<g>
																		<g>
																			<g>
																				<g>
																					<g>
																						<g>
																							<g>
																								<circle class="st0" cx="16" cy="15.014" r="15.014"/>
																							</g>
																						</g>
																					</g>
																				</g>
																			</g>
																		</g>
																	</g>
																	<g>
																		<g>
																			<g>
																				<g>
																					<g>
																						<g>
																							<g>
																								<path class="st2" d="M31.014,15.014c0,8.295-6.724,15.014-15.014,15.014c-4.72,0-8.934-2.177-11.688-5.588
																									c2.576,2.083,5.856,3.327,9.426,3.327c8.291,0,15.014-6.719,15.014-15.014c0-3.571-1.243-6.85-3.327-9.426
																									C28.833,6.081,31.014,10.294,31.014,15.014z"/>
																							</g>
																						</g>
																					</g>
																				</g>
																			</g>
																		</g>
																	</g>
																</g>
															</g>
														</g>
													</g>
												</g>
											</g>
										</g>
									</g>
								</g>
							</g>
						</g>
					</g>
				</g>
			</g>
		</g>
		<g>
			<g>
				<path class="st1" d="M23.156,18.58c1.3,0.603-0.668,6.678-7.124,6.729c-6.456-0.05-8.424-6.126-7.124-6.729
					c1.111-0.715,3.802,1.149,7.124,1.173C19.383,19.779,22.046,17.865,23.156,18.58z"/>
			</g>
		</g>
		<g>
			<g>
				<g>
					<path class="st6" d="M19.022,22.727c-0.72-0.161-1.509,0.207-2.234,0.459c-0.488,0.189-1.113,0.261-1.791,0.117
						c-0.013-0.002-0.025-0.005-0.037-0.008c-1.169-0.291-2.689-0.629-3.001,0.453c-0.002,0.007-0.003,0.015-0.004,0.023
						c-0.262,1.417,0.135,3.119,0.506,4.81c0.498,1.822,1.706,3.263,3.271,3.404c1.828,0.174,3.291-1.222,3.842-3.258
						c0.379-1.739,0.808-3.498,0.538-4.956C20.008,23.205,19.547,22.859,19.022,22.727z"/>
				</g>
			</g>
			<g class="st9">
				<g>
					<path class="st5" d="M19.149,23.956c-0.224,0.17-0.622,0.154-0.867-0.005c-0.254-0.159-0.284-0.37-0.082-0.502
						c0.194-0.133,0.559-0.172,0.836-0.047C19.322,23.523,19.384,23.789,19.149,23.956z"/>
				</g>
			</g>
		</g>
	</g>
	<g>
		<g>
			<g>
				<path class="st1" d="M6.638,14.593c-0.188-0.316-0.085-0.726,0.232-0.914c1.464-0.87,3.058-1.494,4.756-1.861
					c-0.885-0.63-1.842-1.179-2.861-1.64C8.43,10.027,8.28,9.632,8.432,9.296c0.152-0.336,0.546-0.484,0.882-0.333
					c1.599,0.724,3.061,1.65,4.345,2.754c0.2,0.172,0.279,0.446,0.203,0.699s-0.294,0.436-0.557,0.469
					c-2.057,0.254-4.046,0.924-5.755,1.94C7.232,15.015,6.823,14.906,6.638,14.593z"/>
			</g>
		</g>
		<g>
			<g>
				<path class="st1" d="M24.448,14.825c-1.732-1.03-3.669-1.683-5.754-1.94c-0.262-0.033-0.48-0.216-0.557-0.469
					s0.003-0.526,0.203-0.699c1.284-1.104,2.746-2.031,4.344-2.754c0.337-0.151,0.73-0.003,0.882,0.333
					c0.152,0.335,0.003,0.73-0.333,0.882c-1.018,0.461-1.976,1.01-2.861,1.64c1.698,0.367,3.292,0.991,4.755,1.861
					c0.317,0.188,0.421,0.597,0.232,0.914C25.176,14.906,24.768,15.015,24.448,14.825z"/>
			</g>
		</g>
	</g>
</g>
</svg>
