<?xml version="1.0" encoding="utf-8"?>
<!-- Generator: Adobe Illustrator 21.1.0, SVG Export Plug-In . SVG Version: 6.00 Build 0)  -->
<svg version="1.1" id="Layer_1" xmlns="http://www.w3.org/2000/svg" xmlns:xlink="http://www.w3.org/1999/xlink" x="0px" y="0px"
	 viewBox="0 0 32 32" style="enable-background:new 0 0 32 32;" xml:space="preserve">
<style type="text/css">
	.st0{fill:#FFD93B;}
	.st1{fill:#3E4347;}
	.st2{fill:#F4C534;}
	.st3{fill:#38C0DC;}
	.st4{fill:#45CBEA;}
	.st5{fill:#FFFFFF;}
	.st6{fill:#E24B4B;}
	.st7{fill:#5A5F63;}
	.st8{opacity:0.3;}
	.st9{opacity:0.2;}
	.st10{opacity:0.1;}
	.st11{fill:#E9B02C;}
	.st12{fill:#65B1EF;}
	.st13{fill:#E9EFF4;}
	.st14{fill:#8CC63E;}
	.st15{fill:#7FB239;}
	.st16{fill:#D03F3F;}
	.st17{fill:#D23F77;}
	.st18{fill:#E84D88;}
	.st19{fill:#59A5E0;}
	.st20{fill:#DEE4E9;}
	.st21{fill:#D3D9DD;}
	.st22{opacity:0.25;fill:#FFFFFF;}
	.st23{fill:#9A795F;}
	.st24{fill:#F29A2E;}
	.st25{fill:#FC97B2;}
	.st26{fill:#89664C;}
	.st27{fill:#7A5B44;}
	.st28{opacity:0.2;fill:#FFFFFF;}
	.st29{fill:#4E99D2;}
	.st30{fill:#BBC7D1;}
	.st31{fill:#DE9C25;}
</style>
<g>
	<circle class="st0" cx="16" cy="14.853" r="14.853"/>
	<path class="st2" d="M30.853,14.853c0,8.206-6.651,14.853-14.853,14.853c-4.669,0-8.838-2.154-11.562-5.528
		c2.548,2.061,5.793,3.291,9.325,3.291c8.202,0,14.853-6.647,14.853-14.853c0-3.532-1.23-6.777-3.291-9.325
		C28.695,6.015,30.853,10.184,30.853,14.853z"/>
	<path class="st1" d="M20.332,22.73c0,2.389-1.94,4.323-4.326,4.323c-2.398,0-4.338-1.934-4.338-4.323
		c0-2.389,1.94-4.323,4.338-4.323C18.392,18.407,20.332,20.341,20.332,22.73z"/>
	<path class="st1" d="M6.163,15.378c-0.422-0.153-0.64-0.619-0.487-1.04c0.662-1.828,2.405-3.056,4.339-3.056
		c1.932,0,3.676,1.228,4.339,3.056c0.153,0.422-0.064,0.888-0.486,1.041c-0.419,0.152-0.888-0.064-1.041-0.487
		c-0.432-1.188-1.561-1.985-2.812-1.985c-1.252,0-2.382,0.798-2.812,1.985C7.049,15.314,6.582,15.53,6.163,15.378z"/>
	<path class="st1" d="M18.134,15.378c-0.422-0.153-0.64-0.619-0.487-1.04c0.662-1.828,2.405-3.056,4.339-3.056
		c1.932,0,3.676,1.228,4.339,3.056c0.153,0.422-0.064,0.888-0.486,1.041c-0.419,0.152-0.888-0.064-1.041-0.487
		c-0.432-1.188-1.561-1.985-2.812-1.985c-1.252,0-2.382,0.798-2.812,1.985C19.02,15.314,18.553,15.53,18.134,15.378z"/>
	<path class="st12" d="M30.853,10.577c0-1.192-2.157-4.623-2.157-4.623s-2.157,3.432-2.157,4.623s0.966,2.157,2.157,2.157
		S30.853,11.768,30.853,10.577z"/>
	<path class="st12" d="M26.706,3.213c0-0.828-1.5-3.213-1.5-3.213s-1.5,2.385-1.5,3.213s0.671,1.5,1.5,1.5
		S26.706,4.042,26.706,3.213z"/>
	<path class="st6" d="M13.423,24.48c-0.439-0.137-0.93,0.094-1.008,0.552C12.226,30.171,14.523,32.014,16,32
		c1.479,0.014,3.772-1.83,3.585-6.968c-0.078-0.458-0.57-0.688-1.008-0.552C16.9,24.965,15.1,24.965,13.423,24.48z"/>
	<path class="st5" d="M12.349,20.42c1.012,0.242,2.275,0.387,3.651,0.387c1.376,0,2.639-0.145,3.651-0.387
		c-0.768-1.207-2.11-2.013-3.645-2.013C14.463,18.407,13.118,19.213,12.349,20.42z"/>
</g>
</svg>
