<?xml version="1.0" encoding="utf-8"?>
<!-- Generator: Adobe Illustrator 21.1.0, SVG Export Plug-In . SVG Version: 6.00 Build 0)  -->
<svg version="1.1" id="Layer_1" xmlns="http://www.w3.org/2000/svg" xmlns:xlink="http://www.w3.org/1999/xlink" x="0px" y="0px"
	 viewBox="0 0 32 32" style="enable-background:new 0 0 32 32;" xml:space="preserve">
<style type="text/css">
	.st0{fill:#FFD93B;}
	.st1{fill:#3E4347;}
	.st2{fill:#F4C534;}
	.st3{fill:#38C0DC;}
	.st4{fill:#45CBEA;}
	.st5{fill:#FFFFFF;}
	.st6{fill:#E24B4B;}
	.st7{fill:#5A5F63;}
	.st8{opacity:0.3;}
	.st9{opacity:0.2;}
	.st10{opacity:0.1;}
	.st11{fill:#E9B02C;}
	.st12{fill:#65B1EF;}
	.st13{fill:#E9EFF4;}
	.st14{fill:#8CC63E;}
	.st15{fill:#7FB239;}
	.st16{fill:#D03F3F;}
	.st17{fill:#D23F77;}
	.st18{fill:#E84D88;}
	.st19{fill:#59A5E0;}
	.st20{fill:#DEE4E9;}
	.st21{fill:#D3D9DD;}
	.st22{opacity:0.25;fill:#FFFFFF;}
	.st23{fill:#9A795F;}
	.st24{fill:#F29A2E;}
	.st25{fill:#FC97B2;}
	.st26{fill:#89664C;}
	.st27{fill:#7A5B44;}
	.st28{opacity:0.2;fill:#FFFFFF;}
	.st29{fill:#4E99D2;}
	.st30{fill:#BBC7D1;}
	.st31{fill:#DE9C25;}
</style>
<g>
	<g>
		<g>
			<g>
				<g>
					<g>
						<g>
							<g>
								<g>
									<g>
										<g>
											<g>
												<g>
													<g>
														<g>
															<g>
																<g>
																	<g>
																		<g>
																			<g>
																				<g>
																					<g>
																						<g>
																							<g>
																								<g>
																									<g>
																										<g>
																											<circle class="st0" cx="16" cy="16" r="16"/>
																										</g>
																									</g>
																								</g>
																							</g>
																						</g>
																					</g>
																				</g>
																				<g>
																					<g>
																						<g>
																							<g>
																								<g>
																									<g>
																										<g>
																											<path class="st2" d="M32,16c0,8.84-7.165,16-16,16c-5.03,0-9.52-2.32-12.455-5.955
																												c2.745,2.22,6.24,3.545,10.045,3.545c8.835,0,16-7.16,16-16c0-3.805-1.325-7.3-3.545-10.045
																												C29.675,6.48,32,10.97,32,16z"/>
																										</g>
																									</g>
																								</g>
																							</g>
																						</g>
																					</g>
																				</g>
																			</g>
																		</g>
																	</g>
																</g>
															</g>
														</g>
													</g>
												</g>
											</g>
										</g>
									</g>
								</g>
							</g>
						</g>
					</g>
				</g>
			</g>
		</g>
		<g>
			<g>
				<g>
					<g>
						<path class="st1" d="M10.026,24.08c1.094-1.976,3.265-3.477,5.952-3.469c2.653-0.007,4.783,1.463,5.862,3.41
							c0.428,0.773-0.319,1.701-1.07,1.359c-3.19-1.426-6.424-1.359-9.7,0.067C10.314,25.781,9.6,24.853,10.026,24.08z"/>
					</g>
				</g>
			</g>
		</g>
	</g>
	<g>
		<g>
			<g>
				<path class="st5" d="M21.442,25.147v4.86c0,0.31-0.25,0.56-0.56,0.56s-0.55-0.25-0.55-0.56v-2.82c0,0.31-0.26,0.56-0.57,0.56
					c-0.3,0-0.56-0.25-0.56-0.56v0.84c0,0.32-0.25,0.56-0.56,0.56s-0.56-0.24-0.56-0.56v1.98c0,0.31-0.25,0.56-0.56,0.56
					s-0.56-0.25-0.56-0.56v-3.93c0,0.31-0.25,0.56-0.56,0.56s-0.56-0.25-0.56-0.56v2.41c0,0.31-0.25,0.56-0.56,0.56
					s-0.56-0.25-0.56-0.56v-4.062l1.718-0.346c1.495-0.301,3.052-0.196,4.482,0.333c0.004,0.001,0.007,0.003,0.01,0.004
					C21.232,24.517,21.442,24.827,21.442,25.147z"/>
			</g>
		</g>
		<g>
			<g>
				<circle class="st5" cx="19.763" cy="30.992" r="0.558"/>
			</g>
		</g>
	</g>
	<g>
		<g>
			<g>
				<path class="st1" d="M13.505,14.727c-0.021,0.332-0.113,0.648-0.268,0.936c-0.4-0.961-1.52-1.183-2.844-1.183
					c-1.316,0-2.444,0.222-2.837,1.183c-0.155-0.288-0.254-0.604-0.275-0.936c-0.094-1.493,1.306-2.516,3.112-2.516
					C12.206,12.21,13.598,13.234,13.505,14.727z"/>
			</g>
		</g>
		<g>
			<g>
				<path class="st1" d="M24.94,14.727c-0.021,0.332-0.113,0.648-0.268,0.936c-0.4-0.961-1.52-1.183-2.844-1.183
					c-1.316,0-2.444,0.222-2.837,1.183c-0.155-0.288-0.254-0.604-0.275-0.936c-0.094-1.493,1.306-2.516,3.112-2.516
					C23.641,12.21,25.033,13.234,24.94,14.727z"/>
			</g>
		</g>
	</g>
	<g>
		<g>
			<g>
				<g>
					<path class="st11" d="M20.528,9.12c-0.038-0.365,0.225-0.693,0.59-0.732c0.135-0.015,3.314-0.326,5.205,2.325
						c0.214,0.3,0.144,0.716-0.156,0.93c-0.3,0.215-0.716,0.145-0.93-0.156c-1.431-2.005-3.874-1.784-3.978-1.773
						C20.893,9.75,20.565,9.485,20.528,9.12z"/>
				</g>
			</g>
		</g>
		<g>
			<g>
				<g>
					<path class="st11" d="M12.373,10.944L12.373,10.944c-0.078-0.068-1.943-1.661-4.271-0.854
						c-0.349,0.121-0.728-0.062-0.849-0.411C7.132,9.331,7.316,8.951,7.663,8.831c3.077-1.068,5.49,1.023,5.591,1.113
						c0.276,0.244,0.302,0.665,0.057,0.941C13.068,11.16,12.648,11.186,12.373,10.944z"/>
				</g>
			</g>
		</g>
	</g>
</g>
</svg>
