<?xml version="1.0" encoding="utf-8"?>
<!-- Generator: Adobe Illustrator 21.1.0, SVG Export Plug-In . SVG Version: 6.00 Build 0)  -->
<svg version="1.1" id="Layer_1" xmlns="http://www.w3.org/2000/svg" xmlns:xlink="http://www.w3.org/1999/xlink" x="0px" y="0px"
	 viewBox="0 0 32 32" style="enable-background:new 0 0 32 32;" xml:space="preserve">
<style type="text/css">
	.st0{fill:#FFD93B;}
	.st1{fill:#3E4347;}
	.st2{fill:#F4C534;}
	.st3{fill:#38C0DC;}
	.st4{fill:#45CBEA;}
	.st5{fill:#FFFFFF;}
	.st6{fill:#E24B4B;}
	.st7{fill:#5A5F63;}
	.st8{opacity:0.3;}
	.st9{opacity:0.2;}
	.st10{opacity:0.1;}
	.st11{fill:#E9B02C;}
	.st12{fill:#65B1EF;}
	.st13{fill:#E9EFF4;}
	.st14{fill:#8CC63E;}
	.st15{fill:#7FB239;}
	.st16{fill:#D03F3F;}
	.st17{fill:#D23F77;}
	.st18{fill:#E84D88;}
	.st19{fill:#59A5E0;}
	.st20{fill:#DEE4E9;}
	.st21{fill:#D3D9DD;}
	.st22{opacity:0.25;fill:#FFFFFF;}
	.st23{fill:#9A795F;}
	.st24{fill:#F29A2E;}
	.st25{fill:#FC97B2;}
	.st26{fill:#89664C;}
	.st27{fill:#7A5B44;}
	.st28{opacity:0.2;fill:#FFFFFF;}
	.st29{fill:#4E99D2;}
	.st30{fill:#BBC7D1;}
	.st31{fill:#DE9C25;}
</style>
<g>
	<g>
		<g>
			<g>
				<g>
					<g>
						<g>
							<g>
								<g>
									<g>
										<g>
											<g>
												<g>
													<circle class="st0" cx="16" cy="16" r="16"/>
												</g>
											</g>
										</g>
									</g>
								</g>
							</g>
						</g>
						<g>
							<g>
								<g>
									<g>
										<g>
											<g>
												<g>
													<path class="st2" d="M32,16c0,8.84-7.167,16-16,16c-5.033,0-9.52-2.32-12.453-5.953c2.74,2.22,6.24,3.547,10.04,3.547
														c8.84,0,16-7.16,16-16c0-3.807-1.32-7.3-3.54-10.047C29.673,6.48,32,10.973,32,16z"/>
												</g>
											</g>
										</g>
									</g>
								</g>
							</g>
						</g>
					</g>
				</g>
			</g>
			<g>
				<g>
					<g>
						<g>
							<g>
								<g>
									<path class="st1" d="M13.853,14.933c0,1.12-0.9,2.033-2.027,2.033s-2.033-0.913-2.033-2.033
										c0-0.187,0.027-0.373,0.073-0.54h-2.26c-0.413,0-0.747-0.333-0.747-0.747S7.193,12.9,7.607,12.9h4.22
										C12.953,12.9,13.853,13.807,13.853,14.933z"/>
									<path class="st1" d="M25.14,14.933c0,1.12-0.9,2.033-2.027,2.033c-1.12,0-2.033-0.913-2.033-2.033
										c0-0.187,0.027-0.373,0.073-0.54h-2.26c-0.413,0-0.747-0.333-0.747-0.747S18.48,12.9,18.893,12.9h4.22
										C24.24,12.9,25.14,13.807,25.14,14.933z"/>
									<path class="st11" d="M13.747,9.727c0.273,0.187,0.34,0.553,0.153,0.827c-0.18,0.273-0.553,0.34-0.827,0.16
										c-2.007-1.367-4.747-0.847-6.113,1.153c-0.185,0.267-0.541,0.343-0.833,0.16c-0.267-0.187-0.34-0.56-0.153-0.827
										C7.707,8.653,11.193,7.993,13.747,9.727z"/>
									<path class="st11" d="M25.867,12.027c-0.264,0.176-0.633,0.119-0.827-0.16c-1.367-2-4.107-2.52-6.113-1.153
										c-0.273,0.18-0.647,0.113-0.827-0.16c-0.187-0.273-0.12-0.64,0.153-0.827c2.547-1.733,6.04-1.073,7.773,1.473
										C26.213,11.467,26.14,11.84,25.867,12.027z"/>
								</g>
							</g>
						</g>
					</g>
				</g>
			</g>
		</g>
	</g>
	<g>
		<path class="st1" d="M22.473,24.901c-0.674,0.392-2.999-1.433-6.294-1.334c-3.296-0.1-5.62,1.725-6.294,1.334
			c-0.825-0.309,1.063-4.167,6.294-4.176C21.41,20.734,23.299,24.593,22.473,24.901z"/>
	</g>
</g>
</svg>
