<?xml version="1.0" encoding="utf-8"?>
<!-- Generator: Adobe Illustrator 21.1.0, SVG Export Plug-In . SVG Version: 6.00 Build 0)  -->
<svg version="1.1" id="Layer_1" xmlns="http://www.w3.org/2000/svg" xmlns:xlink="http://www.w3.org/1999/xlink" x="0px" y="0px"
	 viewBox="0 0 32 32" style="enable-background:new 0 0 32 32;" xml:space="preserve">
<style type="text/css">
	.st0{fill:#FFD93B;}
	.st1{fill:#3E4347;}
	.st2{fill:#F4C534;}
	.st3{fill:#38C0DC;}
	.st4{fill:#45CBEA;}
	.st5{fill:#FFFFFF;}
	.st6{fill:#E24B4B;}
	.st7{fill:#5A5F63;}
	.st8{opacity:0.3;}
	.st9{opacity:0.2;}
	.st10{opacity:0.1;}
	.st11{fill:#E9B02C;}
	.st12{fill:#65B1EF;}
	.st13{fill:#E9EFF4;}
	.st14{fill:#8CC63E;}
	.st15{fill:#7FB239;}
	.st16{fill:#D03F3F;}
	.st17{fill:#D23F77;}
	.st18{fill:#E84D88;}
	.st19{fill:#59A5E0;}
	.st20{fill:#DEE4E9;}
	.st21{fill:#D3D9DD;}
	.st22{opacity:0.25;fill:#FFFFFF;}
	.st23{fill:#9A795F;}
	.st24{fill:#F29A2E;}
	.st25{fill:#FC97B2;}
	.st26{fill:#89664C;}
	.st27{fill:#7A5B44;}
	.st28{opacity:0.2;fill:#FFFFFF;}
	.st29{fill:#4E99D2;}
	.st30{fill:#BBC7D1;}
	.st31{fill:#DE9C25;}
</style>
<g>
	<g>
		<g>
			<g>
				<g>
					<g>
						<g>
							<g>
								<g>
									<g>
										<g>
											<g>
												<g>
													<g>
														<g>
															<circle class="st0" cx="16" cy="16" r="16"/>
														</g>
													</g>
												</g>
											</g>
										</g>
									</g>
								</g>
								<g>
									<g>
										<g>
											<g>
												<g>
													<g>
														<g>
															<path class="st2" d="M32,16c0,8.84-7.167,16-16,16c-5.033,0-9.52-2.32-12.453-5.953
																c2.74,2.22,6.24,3.547,10.04,3.547c8.84,0,16-7.16,16-16c0-3.807-1.32-7.3-3.54-10.047C29.673,6.48,32,10.973,32,16z
																"/>
														</g>
													</g>
												</g>
											</g>
										</g>
									</g>
								</g>
							</g>
						</g>
					</g>
				</g>
			</g>
			<g>
				<path class="st1" d="M22.473,24.901c-0.674,0.392-2.999-1.433-6.294-1.334c-3.296-0.1-5.62,1.725-6.294,1.334
					c-0.825-0.309,1.063-4.167,6.294-4.176C21.41,20.734,23.299,24.593,22.473,24.901z"/>
			</g>
		</g>
		<g>
			<g>
				<path class="st1" d="M6.624,15.816c0.597-0.871,2.208-1.472,3.629-1.472c1.416,0,3.025,0.601,3.623,1.472l0,0
					c-0.111-2.201-1.688-3.386-3.623-3.386C8.313,12.43,6.736,13.615,6.624,15.816L6.624,15.816z"/>
			</g>
			<g>
				<path class="st1" d="M18.124,15.816c0.597-0.871,2.208-1.472,3.629-1.472c1.416,0,3.025,0.601,3.623,1.472l0,0
					c-0.111-2.201-1.688-3.386-3.623-3.386C19.813,12.43,18.236,13.615,18.124,15.816L18.124,15.816z"/>
			</g>
		</g>
		<g>
			<g>
				<g>
					<path class="st4" d="M29.783,10.474c0-1.386-2.51-4.844-2.51-4.844s-2.51,3.458-2.51,4.844s1.124,2.51,2.51,2.51
						S29.783,11.861,29.783,10.474z"/>
				</g>
				<g class="st9">
					<path class="st5" d="M28.636,11.538c-0.243,0.342-0.631,0.494-0.851,0.342c-0.228-0.152-0.213-0.563,0.038-0.905
						c0.243-0.342,0.631-0.502,0.859-0.342C28.902,10.785,28.887,11.188,28.636,11.538z"/>
				</g>
			</g>
			<g>
				<g>
					<path class="st4" d="M24.52,4.327c0-0.981-1.775-3.426-1.775-3.426s-1.775,2.445-1.775,3.426s0.795,1.775,1.775,1.775
						C23.725,6.102,24.52,5.308,24.52,4.327z"/>
				</g>
				<g class="st9">
					<path class="st5" d="M23.709,5.079c-0.172,0.242-0.446,0.349-0.602,0.242c-0.161-0.108-0.151-0.398,0.027-0.64
						c0.172-0.242,0.446-0.355,0.608-0.242C23.897,4.547,23.886,4.832,23.709,5.079z"/>
				</g>
			</g>
		</g>
	</g>
</g>
</svg>
