<?xml version="1.0" encoding="utf-8"?>
<!-- Generator: Adobe Illustrator 21.1.0, SVG Export Plug-In . SVG Version: 6.00 Build 0)  -->
<svg version="1.1" id="Layer_1" xmlns="http://www.w3.org/2000/svg" xmlns:xlink="http://www.w3.org/1999/xlink" x="0px" y="0px"
	 viewBox="0 0 32 32" style="enable-background:new 0 0 32 32;" xml:space="preserve">
<style type="text/css">
	.st0{fill:#FFD93B;}
	.st1{fill:#3E4347;}
	.st2{fill:#F4C534;}
	.st3{fill:#38C0DC;}
	.st4{fill:#45CBEA;}
	.st5{fill:#FFFFFF;}
	.st6{fill:#E24B4B;}
	.st7{fill:#5A5F63;}
	.st8{opacity:0.3;}
	.st9{opacity:0.2;}
	.st10{opacity:0.1;}
	.st11{fill:#E9B02C;}
	.st12{fill:#65B1EF;}
	.st13{fill:#E9EFF4;}
	.st14{fill:#8CC63E;}
	.st15{fill:#7FB239;}
	.st16{fill:#D03F3F;}
	.st17{fill:#D23F77;}
	.st18{fill:#E84D88;}
	.st19{fill:#59A5E0;}
	.st20{fill:#DEE4E9;}
	.st21{fill:#D3D9DD;}
	.st22{opacity:0.25;fill:#FFFFFF;}
	.st23{fill:#9A795F;}
	.st24{fill:#F29A2E;}
	.st25{fill:#FC97B2;}
	.st26{fill:#89664C;}
	.st27{fill:#7A5B44;}
	.st28{opacity:0.2;fill:#FFFFFF;}
	.st29{fill:#4E99D2;}
	.st30{fill:#BBC7D1;}
	.st31{fill:#DE9C25;}
</style>
<g>
	<g>
		<g>
			<g>
				<g>
					<g>
						<g>
							<g>
								<g>
									<g>
										<g>
											<g>
												<g>
													<g>
														<g>
															<g>
																<g>
																	<g>
																		<g>
																			<g>
																				<g>
																					<g>
																						<g>
																							<g>
																								<g>
																									<circle class="st0" cx="16" cy="16" r="16"/>
																								</g>
																							</g>
																						</g>
																					</g>
																				</g>
																			</g>
																		</g>
																		<g>
																			<g>
																				<g>
																					<g>
																						<g>
																							<g>
																								<g>
																									<path class="st2" d="M32,16c0,8.84-7.165,16-16,16c-5.03,0-9.52-2.32-12.455-5.955
																										c2.745,2.22,6.24,3.545,10.045,3.545c8.835,0,16-7.16,16-16c0-3.805-1.325-7.3-3.545-10.045
																										C29.675,6.48,32,10.97,32,16z"/>
																								</g>
																							</g>
																						</g>
																					</g>
																				</g>
																			</g>
																		</g>
																	</g>
																</g>
															</g>
														</g>
													</g>
												</g>
											</g>
										</g>
									</g>
								</g>
							</g>
						</g>
					</g>
				</g>
			</g>
		</g>
	</g>
	<g>
		<g>
			<g>
				<g>
					<g>
						<g>
							<g>
								<path class="st1" d="M22.726,25.763c-4.484-1.243-8.967-1.244-13.45,0c-0.65,0-1.15-0.62-0.97-1.25
									c0.98-3.33,4.05-5.76,7.69-5.76c3.65,0,6.72,2.43,7.7,5.76C23.876,25.143,23.376,25.763,22.726,25.763z"/>
							</g>
						</g>
					</g>
				</g>
			</g>
		</g>
	</g>
	<g>
		<path class="st6" d="M19.24,25.051c0.066-0.92-0.233-1.805-0.826-2.47c-0.386-0.414-0.96-0.57-1.499-0.354
			c-0.646,0.249-1.356,0.389-2.147,0.389c0,0,0,0-0.01,0c-0.885,0-1.675,0.479-1.906,1.335c-0.096,0.351-0.111,0.723-0.082,1.099
			C14.926,24.763,17.083,24.763,19.24,25.051z"/>
	</g>
	<g>
		<g>
			<g>
				<g>
					<g>
						<g>
							<g>
								<g>
									<ellipse class="st1" cx="11.217" cy="14.817" rx="1.906" ry="2.699"/>
								</g>
							</g>
						</g>
						<g>
							<g>
								<g>
									
										<ellipse transform="matrix(0.7354 -0.6776 0.6776 0.7354 -6.0539 11.5517)" class="st7" cx="11.766" cy="13.528" rx="0.335" ry="0.44"/>
								</g>
							</g>
						</g>
					</g>
					<g>
						<g>
							<g>
								<g>
									<ellipse class="st1" cx="20.785" cy="14.817" rx="1.906" ry="2.699"/>
								</g>
							</g>
						</g>
						<g>
							<g>
								<g>
									
										<ellipse transform="matrix(0.7354 -0.6776 0.6776 0.7354 -3.5225 18.0349)" class="st7" cx="21.334" cy="13.528" rx="0.335" ry="0.44"/>
								</g>
							</g>
						</g>
					</g>
				</g>
			</g>
		</g>
		<g>
			<g>
				<g>
					<path class="st11" d="M25.106,11.503c-0.023,0-0.048-0.001-0.072-0.004c-3.928-0.415-5.207-4.044-5.26-4.198
						c-0.12-0.353,0.068-0.736,0.421-0.857c0.352-0.12,0.734,0.068,0.856,0.42c0.045,0.13,1.073,2.97,4.125,3.292
						c0.37,0.039,0.639,0.372,0.6,0.742C25.74,11.246,25.447,11.503,25.106,11.503z"/>
				</g>
			</g>
			<g>
				<g>
					<path class="st11" d="M6.893,11.503c-0.341,0-0.634-0.258-0.67-0.604c-0.039-0.371,0.229-0.703,0.6-0.742
						c3.058-0.323,4.084-3.172,4.127-3.293c0.122-0.352,0.504-0.537,0.857-0.417c0.352,0.121,0.539,0.503,0.419,0.855
						c-0.053,0.154-1.332,3.783-5.261,4.198C6.941,11.502,6.917,11.503,6.893,11.503z"/>
				</g>
			</g>
		</g>
	</g>
	<g>
		<path class="st5" d="M11.791,19.951c0.862,0.642,2.416,1.076,4.21,1.076c1.793,0,3.347-0.434,4.209-1.075
			c-1.224-0.758-2.666-1.198-4.214-1.198C14.453,18.753,13.014,19.194,11.791,19.951z"/>
	</g>
	<g>
		<g>
			<g>
				<path class="st4" d="M8.12,20.042c0-0.905-1.638-3.321-1.638-3.321s-1.638,2.416-1.638,3.321s0.733,1.638,1.638,1.638
					S8.12,20.946,8.12,20.042z"/>
			</g>
		</g>
		<g class="st9">
			<g>
				<path class="st5" d="M7.42,20.74C7.227,21,6.919,21.116,6.746,20.99c-0.173-0.125-0.154-0.443,0.039-0.713
					c0.193-0.27,0.492-0.385,0.665-0.26C7.632,20.142,7.613,20.47,7.42,20.74z"/>
			</g>
		</g>
	</g>
	<g>
		<g>
			<g>
				<path class="st4" d="M7.967,29.413c0-1.429-2.587-5.245-2.587-5.245s-2.587,3.816-2.587,5.245S3.951,32,5.38,32
					S7.967,30.842,7.967,29.413z"/>
			</g>
		</g>
		<g class="st9">
			<g>
				<path class="st5" d="M6.862,30.515c-0.304,0.411-0.792,0.594-1.066,0.396c-0.274-0.198-0.244-0.7,0.061-1.126
					c0.304-0.426,0.776-0.609,1.05-0.411C7.196,29.572,7.166,30.089,6.862,30.515z"/>
			</g>
		</g>
	</g>
</g>
</svg>
