<?xml version="1.0" encoding="utf-8"?>
<!-- Generator: Adobe Illustrator 21.1.0, SVG Export Plug-In . SVG Version: 6.00 Build 0)  -->
<svg version="1.1" id="Layer_1" xmlns="http://www.w3.org/2000/svg" xmlns:xlink="http://www.w3.org/1999/xlink" x="0px" y="0px"
	 viewBox="0 0 32 32" style="enable-background:new 0 0 32 32;" xml:space="preserve">
<style type="text/css">
	.st0{fill:#FFD93B;}
	.st1{fill:#3E4347;}
	.st2{fill:#F4C534;}
	.st3{fill:#38C0DC;}
	.st4{fill:#45CBEA;}
	.st5{fill:#FFFFFF;}
	.st6{fill:#E24B4B;}
	.st7{fill:#5A5F63;}
	.st8{opacity:0.3;}
	.st9{opacity:0.2;}
	.st10{opacity:0.1;}
	.st11{fill:#E9B02C;}
	.st12{fill:#65B1EF;}
	.st13{fill:#E9EFF4;}
	.st14{fill:#8CC63E;}
	.st15{fill:#7FB239;}
	.st16{fill:#D03F3F;}
	.st17{fill:#D23F77;}
	.st18{fill:#E84D88;}
	.st19{fill:#59A5E0;}
	.st20{fill:#DEE4E9;}
	.st21{fill:#D3D9DD;}
	.st22{opacity:0.25;fill:#FFFFFF;}
	.st23{fill:#9A795F;}
	.st24{fill:#F29A2E;}
	.st25{fill:#FC97B2;}
	.st26{fill:#89664C;}
	.st27{fill:#7A5B44;}
	.st28{opacity:0.2;fill:#FFFFFF;}
	.st29{fill:#4E99D2;}
	.st30{fill:#BBC7D1;}
	.st31{fill:#DE9C25;}
</style>
<g>
	<g>
		<g>
			<g>
				<g>
					<g>
						<g>
							<g>
								<g>
									<g>
										<g>
											<g>
												<g>
													<g>
														<g>
															<g>
																<g>
																	<g>
																		<g>
																			<g>
																				<g>
																					<g>
																						<g>
																							<g>
																								<g>
																									<g>
																										<g>
																											<circle class="st0" cx="16" cy="14.219" r="14.219"/>
																										</g>
																									</g>
																								</g>
																							</g>
																						</g>
																					</g>
																				</g>
																				<g>
																					<g>
																						<g>
																							<g>
																								<g>
																									<g>
																										<g>
																											<path class="st11" d="M30.219,14.219c0,7.856-6.368,14.219-14.219,14.219
																												c-4.47,0-8.461-2.062-11.069-5.292c2.44,1.973,5.546,3.151,8.927,3.151
																												c7.852,0,14.219-6.363,14.219-14.219c0-3.382-1.178-6.488-3.151-8.927
																												C28.153,5.759,30.219,9.749,30.219,14.219z"/>
																										</g>
																									</g>
																								</g>
																							</g>
																						</g>
																					</g>
																				</g>
																			</g>
																		</g>
																	</g>
																</g>
															</g>
														</g>
													</g>
												</g>
											</g>
										</g>
									</g>
								</g>
							</g>
						</g>
					</g>
				</g>
			</g>
		</g>
		<g>
			<g>
				<g>
					<path class="st5" d="M13.866,12.631c0,1.965-1.593,3.557-3.557,3.557s-3.557-1.593-3.557-3.557s3.183-4.342,5.145-4.237
						C13.858,8.498,13.866,10.666,13.866,12.631z"/>
				</g>
				<g>
					<g>
						<circle class="st1" cx="10.691" cy="13.205" r="1.775"/>
					</g>
					<g>
						<path class="st7" d="M11.779,12.902c-0.141,0.105-0.392,0.032-0.544-0.171s-0.157-0.462-0.006-0.569
							c0.149-0.116,0.391-0.041,0.542,0.161C11.923,12.526,11.928,12.786,11.779,12.902z"/>
					</g>
				</g>
			</g>
		</g>
		<g>
			<g>
				<g>
					<path class="st5" d="M17.575,12.631c0,1.965,1.593,3.557,3.557,3.557s3.557-1.593,3.557-3.557s-3.183-4.342-5.145-4.237
						C17.583,8.498,17.575,10.666,17.575,12.631z"/>
				</g>
				<g>
					<g>
						<circle class="st1" cx="20.75" cy="13.205" r="1.775"/>
					</g>
					<g>
						<path class="st7" d="M21.839,12.902c-0.141,0.105-0.392,0.032-0.544-0.171c-0.152-0.202-0.157-0.462-0.006-0.569
							c0.149-0.116,0.391-0.041,0.542,0.161C21.983,12.526,21.988,12.786,21.839,12.902z"/>
					</g>
				</g>
			</g>
		</g>
	</g>
	<g>
		<path class="st1" d="M18.888,21.113c0,1.93-1.29,3.5-2.89,3.5c-1.6,0-2.89-1.57-2.89-3.5c0-1.94,1.29-3.5,2.89-3.5
			C17.598,17.613,18.888,19.173,18.888,21.113z"/>
	</g>
	<g>
		<g>
			<g>
				<path class="st0" d="M31.971,21.464c-0.297,0.78-3.526,3.241-4.425,6.121c-0.405,1.393-0.658,2.447-0.901,3.295
					c-0.188,0.673-0.815,1.131-1.508,1.119c-1.466-0.027-2.891-0.414-4.298-1.176c-0.618-0.327-0.937-1.035-0.783-1.717
					c0.17-0.813,0.467-1.729,0.901-2.753c0.697-1.641,1.78-3.135,3.244-4.157C28.057,19.486,32.395,20.718,31.971,21.464z"/>
			</g>
			<g>
				<path class="st2" d="M26.955,26.212c-1.992,3.086-1.357,5.726-6.546,4.265c0.121,0.138,0.261,0.259,0.43,0.348
					c1.407,0.762,2.832,1.148,4.298,1.176c0.693,0.012,1.32-0.445,1.508-1.119c0.243-0.849,0.495-1.903,0.901-3.296
					c0.801-2.567,3.449-4.799,4.226-5.806C31.756,21.787,28.941,23.136,26.955,26.212z"/>
			</g>
		</g>
		<g>
			<g>
				<path class="st0" d="M0.029,21.464c0.297,0.78,3.526,3.241,4.425,6.121c0.405,1.393,0.658,2.447,0.901,3.295
					C5.542,31.554,6.169,32.012,6.862,32c1.466-0.027,2.891-0.414,4.298-1.176c0.618-0.327,0.937-1.035,0.783-1.717
					c-0.17-0.813-0.467-1.729-0.901-2.753c-0.697-1.641-1.78-3.135-3.244-4.157C3.943,19.486-0.395,20.718,0.029,21.464z"/>
			</g>
			<g>
				<path class="st2" d="M5.045,26.212c1.992,3.086,1.357,5.726,6.546,4.265c-0.121,0.138-0.261,0.259-0.43,0.348
					C9.753,31.586,8.328,31.973,6.862,32c-0.693,0.012-1.32-0.445-1.508-1.119c-0.243-0.849-0.495-1.903-0.901-3.296
					c-0.801-2.567-3.449-4.799-4.226-5.806C0.244,21.787,3.059,23.136,5.045,26.212z"/>
			</g>
		</g>
	</g>
	<path class="st6" d="M15.998,24.613c0.97,0,1.821-0.582,2.345-1.467c-0.202-0.541-0.576-0.996-1.073-1.272
		c-0.283-0.159-0.735-0.103-1.018,0.053c-0.191,0.106-0.424,0.17-0.696,0.17c-0.057,0-0.11-0.004-0.163-0.007
		c-0.491-0.049-0.993,0.113-1.276,0.516c-0.152,0.215-0.265,0.46-0.339,0.722C14.307,24.106,15.098,24.613,15.998,24.613z"/>
</g>
</svg>
