<?xml version="1.0" encoding="utf-8"?>
<!-- Generator: Adobe Illustrator 21.1.0, SVG Export Plug-In . SVG Version: 6.00 Build 0)  -->
<svg version="1.1" id="Layer_1" xmlns="http://www.w3.org/2000/svg" xmlns:xlink="http://www.w3.org/1999/xlink" x="0px" y="0px"
	 viewBox="0 0 32 32" style="enable-background:new 0 0 32 32;" xml:space="preserve">
<style type="text/css">
	.st0{fill:#FFD93B;}
	.st1{fill:#3E4347;}
	.st2{fill:#F4C534;}
	.st3{fill:#38C0DC;}
	.st4{fill:#45CBEA;}
	.st5{fill:#FFFFFF;}
	.st6{fill:#E24B4B;}
	.st7{fill:#5A5F63;}
	.st8{opacity:0.3;}
	.st9{opacity:0.2;}
	.st10{opacity:0.1;}
	.st11{fill:#E9B02C;}
	.st12{fill:#65B1EF;}
	.st13{fill:#E9EFF4;}
	.st14{fill:#8CC63E;}
	.st15{fill:#7FB239;}
	.st16{fill:#D03F3F;}
	.st17{fill:#D23F77;}
	.st18{fill:#E84D88;}
	.st19{fill:#59A5E0;}
	.st20{fill:#DEE4E9;}
	.st21{fill:#D3D9DD;}
	.st22{opacity:0.25;fill:#FFFFFF;}
	.st23{fill:#9A795F;}
	.st24{fill:#F29A2E;}
	.st25{fill:#FC97B2;}
	.st26{fill:#89664C;}
	.st27{fill:#7A5B44;}
	.st28{opacity:0.2;fill:#FFFFFF;}
	.st29{fill:#4E99D2;}
	.st30{fill:#BBC7D1;}
	.st31{fill:#DE9C25;}
</style>
<g>
	<g>
		<g>
			<g>
				<g>
					<g>
						<g>
							<g>
								<g>
									<g>
										<g>
											<g>
												<g>
													<g>
														<g>
															<g>
																<g>
																	<g>
																		<g>
																			<g>
																				<g>
																					<g>
																						<g>
																							<g>
																								<g>
																									<g>
																										<circle class="st0" cx="16" cy="16" r="16"/>
																									</g>
																								</g>
																							</g>
																						</g>
																					</g>
																				</g>
																			</g>
																			<g>
																				<g>
																					<g>
																						<g>
																							<g>
																								<path class="st2" d="M7.629,18.584c-0.325,1.05,0.269,2.175,1.319,2.5c1.057,0.327,2.175-0.269,2.5-1.319
																									c0.327-1.057-0.119-2.637-1.176-2.964C9.223,16.477,7.956,17.527,7.629,18.584z"/>
																							</g>
																						</g>
																					</g>
																				</g>
																				<g>
																					<g>
																						<g>
																							<g>
																								<path class="st2" d="M24.371,18.584c0.325,1.05-0.269,2.175-1.319,2.5c-1.057,0.327-2.175-0.269-2.5-1.319
																									c-0.327-1.057,0.119-2.637,1.176-2.964C22.777,16.477,24.044,17.527,24.371,18.584z"/>
																							</g>
																						</g>
																					</g>
																				</g>
																			</g>
																			<g>
																				<g>
																					<g>
																						<g>
																							<g>
																								<g>
																									<g>
																										<path class="st2" d="M32,16c0,8.84-7.165,16-16,16c-5.03,0-9.52-2.32-12.455-5.955
																											c2.745,2.22,6.24,3.545,10.045,3.545c8.835,0,16-7.16,16-16c0-3.805-1.325-7.3-3.545-10.045
																											C29.675,6.48,32,10.97,32,16z"/>
																									</g>
																								</g>
																							</g>
																						</g>
																					</g>
																				</g>
																			</g>
																		</g>
																	</g>
																</g>
															</g>
														</g>
													</g>
												</g>
											</g>
										</g>
									</g>
								</g>
							</g>
						</g>
					</g>
				</g>
			</g>
		</g>
	</g>
	<g>
		<path class="st1" d="M21.011,23.943c0,0.51-0.41,0.92-0.92,0.92h-8.18c-0.51,0-0.92-0.41-0.92-0.92s0.41-0.92,0.92-0.92h8.18
			C20.601,23.023,21.011,23.433,21.011,23.943z"/>
	</g>
	<g>
		<g>
			<g>
				<g>
					<g>
						<g>
							<circle class="st5" cx="21.101" cy="15.307" r="3.357"/>
						</g>
					</g>
					<g>
						<g>
							<g>
								<circle class="st1" cx="21.099" cy="15.309" r="1.811"/>
							</g>
						</g>
						<g>
							<g>
								<path class="st7" d="M22.079,15.136c-0.162,0.107-0.419,0.021-0.567-0.193c-0.148-0.214-0.131-0.474,0.032-0.582
									c0.162-0.107,0.419-0.021,0.567,0.193C22.252,14.769,22.242,15.029,22.079,15.136z"/>
							</g>
						</g>
					</g>
				</g>
				<g>
					<g>
						<path class="st11" d="M25.39,13.974c-0.653-2.1-2.708-3.469-4.976-3.121c-0.363,0.053-0.713-0.197-0.769-0.565
							c-0.057-0.369,0.196-0.713,0.565-0.77c2.967-0.45,5.625,1.345,6.468,4.056c0.11,0.356-0.088,0.734-0.444,0.845
							C25.888,14.528,25.503,14.336,25.39,13.974z"/>
					</g>
				</g>
			</g>
			<g>
				<g>
					<g>
						<g>
							<circle class="st5" cx="10.899" cy="15.307" r="3.357"/>
						</g>
					</g>
					<g>
						<g>
							<g>
								<circle class="st1" cx="10.901" cy="15.309" r="1.811"/>
							</g>
						</g>
						<g>
							<g>
								<path class="st7" d="M9.921,15.136c0.162,0.107,0.419,0.021,0.567-0.193c0.148-0.214,0.131-0.474-0.032-0.582
									c-0.162-0.107-0.419-0.021-0.567,0.193C9.748,14.769,9.758,15.029,9.921,15.136z"/>
							</g>
						</g>
					</g>
				</g>
				<g>
					<g>
						<path class="st11" d="M5.764,14.418c-0.356-0.111-0.555-0.489-0.444-0.845c0.848-2.726,3.516-4.501,6.469-4.055
							c0.368,0.056,0.622,0.4,0.565,0.769s-0.409,0.619-0.769,0.566c-2.284-0.349-4.327,1.034-4.977,3.122
							C6.498,14.332,6.116,14.529,5.764,14.418z"/>
					</g>
				</g>
			</g>
		</g>
	</g>
</g>
</svg>
