<?xml version="1.0" encoding="utf-8"?>
<!-- Generator: Adobe Illustrator 21.1.0, SVG Export Plug-In . SVG Version: 6.00 Build 0)  -->
<svg version="1.1" id="Layer_1" xmlns="http://www.w3.org/2000/svg" xmlns:xlink="http://www.w3.org/1999/xlink" x="0px" y="0px"
	 viewBox="0 0 32 32" style="enable-background:new 0 0 32 32;" xml:space="preserve">
<style type="text/css">
	.st0{fill:#FFD93B;}
	.st1{fill:#3E4347;}
	.st2{fill:#F4C534;}
	.st3{fill:#38C0DC;}
	.st4{fill:#45CBEA;}
	.st5{fill:#FFFFFF;}
	.st6{fill:#E24B4B;}
	.st7{fill:#5A5F63;}
	.st8{opacity:0.3;}
	.st9{opacity:0.2;}
	.st10{opacity:0.1;}
	.st11{fill:#E9B02C;}
	.st12{fill:#65B1EF;}
	.st13{fill:#E9EFF4;}
	.st14{fill:#8CC63E;}
	.st15{fill:#7FB239;}
	.st16{fill:#D03F3F;}
	.st17{fill:#D23F77;}
	.st18{fill:#E84D88;}
	.st19{fill:#59A5E0;}
	.st20{fill:#DEE4E9;}
	.st21{fill:#D3D9DD;}
	.st22{opacity:0.25;fill:#FFFFFF;}
	.st23{fill:#9A795F;}
	.st24{fill:#F29A2E;}
	.st25{fill:#FC97B2;}
	.st26{fill:#89664C;}
	.st27{fill:#7A5B44;}
	.st28{opacity:0.2;fill:#FFFFFF;}
	.st29{fill:#4E99D2;}
	.st30{fill:#BBC7D1;}
	.st31{fill:#DE9C25;}
</style>
<g>
	<g>
		<g>
			<g>
				<g>
					<g>
						<g>
							<g>
								<g>
									<g>
										<g>
											<g>
												<g>
													<g>
														<g>
															<g>
																<g>
																	<g>
																		<g>
																			<g>
																				<g>
																					<g>
																						<g>
																							<g>
																								<g>
																									<g>
																										<g>
																											<g>
																												<circle class="st0" cx="16" cy="16" r="16"/>
																											</g>
																										</g>
																									</g>
																								</g>
																							</g>
																						</g>
																					</g>
																					<g>
																						<g>
																							<g>
																								<g>
																									<g>
																										<g>
																											<g>
																												<path class="st2" d="M32,16c0,8.84-7.165,16-16,16c-5.03,0-9.52-2.32-12.455-5.955
																													c2.745,2.22,6.24,3.545,10.045,3.545c8.835,0,16-7.16,16-16c0-3.805-1.325-7.3-3.545-10.045
																													C29.675,6.48,32,10.97,32,16z"/>
																											</g>
																										</g>
																									</g>
																								</g>
																							</g>
																						</g>
																					</g>
																				</g>
																			</g>
																		</g>
																	</g>
																</g>
															</g>
														</g>
													</g>
												</g>
											</g>
										</g>
									</g>
								</g>
							</g>
						</g>
					</g>
				</g>
			</g>
		</g>
		<g>
			<g>
				<circle class="st1" cx="16" cy="24.924" r="2.801"/>
			</g>
		</g>
		<g>
			<g>
				<g>
					<g>
						<g>
							<g>
								<g>
									<g>
										<g>
											<path class="st5" d="M25.002,15.634c0,1.996-1.63,3.618-3.626,3.618c-1.996,0-3.626-1.622-3.626-3.618
												c0-2.004,1.63-3.634,3.626-3.634C23.372,12,25.002,13.63,25.002,15.634z"/>
										</g>
									</g>
								</g>
								<g>
									<g>
										<g>
											<circle class="st1" cx="21.373" cy="15.631" r="1.677"/>
										</g>
									</g>
									<g>
										<g>
											<path class="st7" d="M22.28,15.471c-0.15,0.099-0.388,0.02-0.525-0.178c-0.137-0.198-0.121-0.439,0.029-0.538
												c0.15-0.099,0.388-0.02,0.525,0.178C22.44,15.131,22.431,15.372,22.28,15.471z"/>
										</g>
									</g>
								</g>
							</g>
						</g>
					</g>
				</g>
				<g>
					<g>
						<path class="st11" d="M25.911,11.032c0.118,0.589,0.089,1.161-0.064,1.694c-0.71-1.978-2.757-3.206-4.887-2.822l-0.026,0.005
							c-0.763,0.141-1.172-0.857-0.508-1.264c0.528-0.324,1.157-0.523,1.841-0.542C24.011,8.057,25.572,9.326,25.911,11.032z"/>
					</g>
				</g>
			</g>
			<g>
				<g>
					<g>
						<g>
							<g>
								<g>
									<g>
										<g>
											<path class="st5" d="M6.998,15.634c0,1.996,1.63,3.618,3.626,3.618c1.996,0,3.626-1.622,3.626-3.618
												c0-2.004-1.63-3.634-3.626-3.634C8.628,12,6.998,13.63,6.998,15.634z"/>
										</g>
									</g>
								</g>
								<g>
									<g>
										<g>
											<circle class="st1" cx="10.627" cy="15.631" r="1.677"/>
										</g>
									</g>
									<g>
										<g>
											<path class="st7" d="M9.72,15.471c0.15,0.099,0.388,0.02,0.525-0.178c0.137-0.198,0.121-0.439-0.029-0.538
												c-0.15-0.099-0.388-0.02-0.525,0.178C9.56,15.131,9.569,15.372,9.72,15.471z"/>
										</g>
									</g>
								</g>
							</g>
						</g>
					</g>
				</g>
				<g>
					<g>
						<path class="st11" d="M6.089,11.032C5.971,11.621,6,12.194,6.153,12.726c0.71-1.978,2.757-3.206,4.887-2.822l0.026,0.005
							c0.763,0.141,1.172-0.857,0.508-1.264c-0.528-0.324-1.157-0.523-1.841-0.542C7.989,8.057,6.428,9.326,6.089,11.032z"/>
					</g>
				</g>
			</g>
		</g>
	</g>
</g>
</svg>
