<?xml version="1.0" encoding="utf-8"?>
<!-- Generator: Adobe Illustrator 21.1.0, SVG Export Plug-In . SVG Version: 6.00 Build 0)  -->
<svg version="1.1" id="Layer_1" xmlns="http://www.w3.org/2000/svg" xmlns:xlink="http://www.w3.org/1999/xlink" x="0px" y="0px"
	 viewBox="0 0 32 32" style="enable-background:new 0 0 32 32;" xml:space="preserve">
<style type="text/css">
	.st0{fill:#FFD93B;}
	.st1{fill:#3E4347;}
	.st2{fill:#F4C534;}
	.st3{fill:#38C0DC;}
	.st4{fill:#45CBEA;}
	.st5{fill:#FFFFFF;}
	.st6{fill:#E24B4B;}
	.st7{fill:#5A5F63;}
	.st8{opacity:0.3;}
	.st9{opacity:0.2;}
	.st10{opacity:0.1;}
	.st11{fill:#E9B02C;}
	.st12{fill:#65B1EF;}
	.st13{fill:#E9EFF4;}
	.st14{fill:#8CC63E;}
	.st15{fill:#7FB239;}
	.st16{fill:#D03F3F;}
	.st17{fill:#D23F77;}
	.st18{fill:#E84D88;}
	.st19{fill:#59A5E0;}
	.st20{fill:#DEE4E9;}
	.st21{fill:#D3D9DD;}
	.st22{opacity:0.25;fill:#FFFFFF;}
	.st23{fill:#9A795F;}
	.st24{fill:#F29A2E;}
	.st25{fill:#FC97B2;}
	.st26{fill:#89664C;}
	.st27{fill:#7A5B44;}
	.st28{opacity:0.2;fill:#FFFFFF;}
	.st29{fill:#4E99D2;}
	.st30{fill:#BBC7D1;}
	.st31{fill:#DE9C25;}
</style>
<g>
	<g>
		<g>
			<g>
				<g>
					<g>
						<g>
							<circle class="st0" cx="16" cy="16" r="16"/>
						</g>
					</g>
				</g>
				<g>
					<g>
						<g>
							<path class="st1" d="M9.689,24.223c-0.333-0.246-0.405-0.715-0.159-1.049c0.246-0.334,0.716-0.404,1.049-0.159
								c3.091,2.277,7.752,2.277,10.842,0c0.333-0.245,0.803-0.175,1.049,0.159c0.246,0.333,0.175,0.803-0.159,1.049
								C18.654,26.918,13.346,26.918,9.689,24.223z"/>
						</g>
					</g>
				</g>
				<g>
					<g>
						<g>
							<path class="st2" d="M32,16c0,8.84-7.165,16-16,16c-5.03,0-9.52-2.32-12.455-5.955c2.745,2.22,6.24,3.545,10.045,3.545
								c8.835,0,16-7.16,16-16c0-3.805-1.325-7.3-3.545-10.045C29.675,6.48,32,10.97,32,16z"/>
						</g>
					</g>
				</g>
			</g>
		</g>
	</g>
	<g>
		<g>
			<path class="st3" d="M8.235,19.911c2.757,0.291,5.425-1.532,5.464-3.767c0.022-1.211-0.794-2.168-1.93-2.838l-5.831,5.831
				C6.589,19.544,7.369,19.822,8.235,19.911z"/>
		</g>
		<g>
			<g>
				<path class="st3" d="M4.231,17.204l4.864-4.864c-0.19-0.035-0.38-0.066-0.567-0.088c-0.089-0.01-0.175-0.014-0.262-0.021
					l-4.259,4.259C4.055,16.734,4.131,16.973,4.231,17.204z"/>
			</g>
			<g>
				<path class="st3" d="M10.567,12.743c-0.345-0.127-0.7-0.234-1.058-0.317l-5.113,5.113c0.156,0.283,0.349,0.551,0.576,0.799
					L10.567,12.743z"/>
			</g>
		</g>
	</g>
	<g>
		<g>
			<g>
				<g>
					<path class="st1" d="M31.666,11.099c0.107,0.445,0.214,0.89,0.321,1.335c0.064,0.267-0.1,0.535-0.377,0.647
						c-1.051,0.427-1.812,1.345-1.974,2.418c-0.278,1.866-1.542,3.601-3.618,4.492c-4.847,2.055-9.626-1.061-9.53-5.077
						c-0.001-0.081,0.001-0.161,0.003-0.239c0.008-0.257-0.215-0.465-0.491-0.465l0,0c-0.276,0-0.499,0.208-0.491,0.465
						c0.003,0.078,0.004,0.158,0.003,0.239c0.096,4.016-4.683,7.131-9.53,5.077c-2.076-0.892-3.34-2.626-3.618-4.492
						c-0.162-1.073-0.922-1.991-1.974-2.418c-0.277-0.112-0.441-0.38-0.377-0.646c0.096-0.399,0.191-0.798,0.287-1.196
						c0.106-0.439,0.418-0.619,0.733-0.546c0.325,0.075,0.65,0.147,0.976,0.218c0.796,0.172,1.597-0.056,2.225-0.528
						C4.943,9.85,5.814,9.554,6.829,9.469c0.99-0.083,1.983,0.1,2.918,0.438c1.53,0.553,2.769,0.963,3.697,1.469
						c0.775,0.422,1.66,0.63,2.556,0.63h0c0.895,0,1.781-0.208,2.556-0.63c0.928-0.505,2.167-0.915,3.697-1.469
						c0.935-0.338,1.928-0.52,2.918-0.438c1.016,0.085,1.886,0.381,2.595,0.913c0.628,0.472,1.428,0.7,2.225,0.528
						c0.281-0.06,0.562-0.123,0.843-0.187C31.285,10.619,31.593,10.8,31.666,11.099z"/>
				</g>
			</g>
			<g>
				<g>
					<g>
						<path class="st4" d="M13.775,15.237c-0.037,2.161-2.617,3.923-5.283,3.642c-2.658-0.272-4.488-2.385-4.101-4.508
							c0.378-2.133,2.036-3.159,4.383-2.897C11.12,11.75,13.813,13.083,13.775,15.237z"/>
					</g>
				</g>
				<g>
					<g>
						<path class="st4" d="M13.775,15.237c-0.037,2.161-2.617,3.923-5.283,3.642c-2.658-0.272-4.488-2.385-4.101-4.508
							c0.378-2.133,2.036-3.159,4.383-2.897C11.12,11.75,13.813,13.083,13.775,15.237z"/>
					</g>
				</g>
				<g>
					<g>
						<path class="st4" d="M18.227,15.237c0.037,2.161,2.617,3.923,5.283,3.642c2.658-0.272,4.488-2.385,4.1-4.508
							c-0.379-2.133-2.036-3.159-4.383-2.897C20.882,11.75,18.189,13.083,18.227,15.237z"/>
					</g>
				</g>
			</g>
		</g>
	</g>
	<g>
		<g>
			<path class="st3" d="M4.376,15.385l5.357-3.741c-0.321-0.075-0.643-0.133-0.958-0.17c-0.04-0.005-0.079-0.006-0.119-0.009
				L4.382,14.45C4.332,14.765,4.333,15.078,4.376,15.385z"/>
		</g>
		<g>
			<path class="st3" d="M10.409,11.832l-5.906,4.125c0.189,0.581,0.537,1.12,1.006,1.576l6.821-4.764
				C11.777,12.371,11.11,12.056,10.409,11.832z"/>
		</g>
	</g>
	<g>
		<g>
			<path class="st3" d="M18.227,15.237c0.005,0.269,0.049,0.531,0.127,0.784l6.457-4.51c-0.384-0.069-0.8-0.09-1.242-0.064
				l-5.339,3.729C18.231,15.197,18.227,15.216,18.227,15.237z"/>
		</g>
		<g>
			<path class="st3" d="M25.493,11.696l-6.922,4.835c0.279,0.537,0.714,1.017,1.257,1.401l7.209-5.035
				C26.662,12.339,26.139,11.935,25.493,11.696z"/>
		</g>
	</g>
</g>
</svg>
