<?xml version="1.0" encoding="utf-8"?>
<!-- Generator: Adobe Illustrator 21.1.0, SVG Export Plug-In . SVG Version: 6.00 Build 0)  -->
<svg version="1.1" id="Layer_1" xmlns="http://www.w3.org/2000/svg" xmlns:xlink="http://www.w3.org/1999/xlink" x="0px" y="0px"
	 viewBox="0 0 32 32" style="enable-background:new 0 0 32 32;" xml:space="preserve">
<style type="text/css">
	.st0{fill:#FFD93B;}
	.st1{fill:#3E4347;}
	.st2{fill:#F4C534;}
	.st3{fill:#38C0DC;}
	.st4{fill:#45CBEA;}
	.st5{fill:#FFFFFF;}
	.st6{fill:#E24B4B;}
	.st7{fill:#5A5F63;}
	.st8{opacity:0.3;}
	.st9{opacity:0.2;}
	.st10{opacity:0.1;}
	.st11{fill:#E9B02C;}
	.st12{fill:#65B1EF;}
	.st13{fill:#E9EFF4;}
	.st14{fill:#8CC63E;}
	.st15{fill:#7FB239;}
	.st16{fill:#D03F3F;}
	.st17{fill:#D23F77;}
	.st18{fill:#E84D88;}
	.st19{fill:#59A5E0;}
	.st20{fill:#DEE4E9;}
	.st21{fill:#D3D9DD;}
	.st22{opacity:0.25;fill:#FFFFFF;}
	.st23{fill:#9A795F;}
	.st24{fill:#F29A2E;}
	.st25{fill:#FC97B2;}
	.st26{fill:#89664C;}
	.st27{fill:#7A5B44;}
	.st28{opacity:0.2;fill:#FFFFFF;}
	.st29{fill:#4E99D2;}
	.st30{fill:#BBC7D1;}
	.st31{fill:#DE9C25;}
</style>
<g>
	<g>
		<g>
			<g>
				<g>
					<g>
						<g>
							<g>
								<g>
									<g>
										<g>
											<circle class="st0" cx="16" cy="16" r="16"/>
										</g>
									</g>
								</g>
							</g>
							<g>
								<g>
									<g>
										<g>
											<path class="st2" d="M32,16c0,8.84-7.165,16-16,16c-5.03,0-9.52-2.32-12.455-5.955c2.745,2.22,6.24,3.545,10.045,3.545
												c8.835,0,16-7.16,16-16c0-3.805-1.325-7.3-3.545-10.045C29.675,6.48,32,10.97,32,16z"/>
										</g>
									</g>
								</g>
							</g>
						</g>
					</g>
				</g>
			</g>
			<g>
				<g>
					<g>
						<path class="st1" d="M13.413,13.668c0,0.254-0.031,0.503-0.089,0.739c-0.632-1.068-1.793-1.784-3.124-1.784
							c-1.33,0-2.492,0.716-3.124,1.784c-0.058-0.236-0.089-0.485-0.089-0.739c0-1.771,1.437-3.213,3.213-3.213
							C11.976,10.456,13.413,11.898,13.413,13.668z"/>
					</g>
				</g>
				<g>
					<g>
						<path class="st1" d="M25.012,13.668c0,0.254-0.031,0.503-0.089,0.739c-0.632-1.068-1.793-1.784-3.124-1.784
							c-1.33,0-2.492,0.716-3.124,1.784c-0.058-0.236-0.089-0.485-0.089-0.739c0-1.771,1.437-3.213,3.213-3.213
							C23.575,10.456,25.012,11.898,25.012,13.668z"/>
					</g>
				</g>
			</g>
			<g>
				<g>
					<path class="st1" d="M8.712,22.206c-0.286-0.3-0.274-0.775,0.026-1.061c0.3-0.285,0.775-0.274,1.061,0.026
						c2.981,3.131,9.422,3.131,12.403,0c0.286-0.3,0.76-0.311,1.061-0.026c0.3,0.286,0.312,0.76,0.026,1.061
						C19.717,25.955,12.284,25.956,8.712,22.206z"/>
				</g>
			</g>
			<g>
				<g>
					<g>
						
							<ellipse transform="matrix(0.6678 -0.7443 0.7443 0.6678 -5.9822 24.9288)" class="st6" cx="24.939" cy="19.167" rx="2.021" ry="1.488"/>
					</g>
				</g>
				<g>
					<g>
						
							<ellipse transform="matrix(0.7156 -0.6985 0.6985 0.7156 -11.3805 10.3846)" class="st6" cx="7.061" cy="19.167" rx="1.488" ry="2.021"/>
					</g>
				</g>
			</g>
			<g>
				<g>
					<g>
						<path class="st11" d="M18.924,7.551L18.924,7.551c0.062,0.499,0.483,0.816,0.957,0.743c1.8-0.275,4.438-0.155,5.99,2.105
							c-0.044-0.188-1.115-3.408-5.846-4.02C19.403,6.298,18.842,6.895,18.924,7.551z"/>
					</g>
				</g>
				<g>
					<g>
						<path class="st11" d="M13.077,7.551L13.077,7.551c-0.062,0.499-0.483,0.816-0.957,0.743c-1.8-0.275-4.438-0.155-5.99,2.105
							c0.044-0.188,1.115-3.408,5.846-4.02C12.597,6.298,13.158,6.895,13.077,7.551z"/>
					</g>
				</g>
			</g>
		</g>
	</g>
</g>
</svg>
