<svg xmlns="http://www.w3.org/2000/svg" viewBox="0 0 1000 1000"><defs><style>.cls-1{fill:#f1f5fc;}.cls-2{fill:#e6eefb;}.cls-3{fill:#f4f4f4;}.cls-4,.cls-7{fill:#fff;}.cls-4{stroke:#f4f4f4;}.cls-10,.cls-11,.cls-12,.cls-13,.cls-4,.cls-5,.cls-6,.cls-7,.cls-8,.cls-9{stroke-miterlimit:10;}.cls-5{fill:#d8e7fa;}.cls-10,.cls-11,.cls-12,.cls-13,.cls-5,.cls-6,.cls-7,.cls-8,.cls-9{stroke:#000;}.cls-6{fill:#2d388e;}.cls-8{fill:#1c6685;}.cls-9{fill:#f5f6f9;}.cls-10{fill:#a6c9f5;}.cls-11{fill:#ffbe21;}.cls-12{fill:#e96181;}.cls-13{fill:#707070;}</style></defs><g id="Layer_36" data-name="Layer 36"><path class="cls-1" d="M891.26,516.65c50,24.67,83.39,79.68,82.22,135.4-.39,18.68-4.48,37.55-13.93,53.67-13.5,23-36.64,38.57-59.94,51.54-27.9,15.53-58,28.73-89.89,30.6-14.89.87-29.79-.76-44.7-1.38-30.18-1.24-61.63,2-87.69,17.32-17.43,10.23-31.87,25.49-50.51,33.3-25,10.48-54.17,5.84-79-5.09-25.49-11.22-49.56-31.08-55.38-58.32-4.08-19.09,1.5-39.28,11.55-56s24.29-30.52,38.8-43.59c12.82-11.54,26-22.73,40.48-32.15,42.23-27.54,92.78-38.75,138.88-59.15a373.07,373.07,0,0,0,86.33-53.31c10.07-8.31,20-17.35,32.33-21.76a50.35,50.35,0,0,1,49.63,9.72"/><path class="cls-1" d="M259.28,593.37c-16.65,2.66-33.44,3.83-50,.85-54.63-9.85-107.41-36.68-141.7-80.33s-47.66-105-27.64-156.77c13.79-35.64,42-64.57,75.15-83.65s70.88-28.91,108.81-33.58c28.45-3.51,57.31-4.24,85.36-10.22a233.07,233.07,0,0,0,93.27-43.15c22-17,41-37.9,64.33-53,40.58-26.34,93-32.9,139.32-18.93s85.94,47.82,108.46,90.62c8.76,16.64,15.1,34.83,16,53.6,1.65,33.25-13.73,65.18-33.45,92-42.23,57.45-104,97.06-165.6,132.91C442.3,535.62,361.29,577.1,259.28,593.37Z"/><path class="cls-2" d="M407.75,278.84c40.45,5.21,80.63,13.59,121.4,14.59,49.77,1.22,99.1-8.59,148.77-12s102,.42,144.65,26.16a155.93,155.93,0,0,1,54.88,56.52c35.64,63.1,22.89,143.07-6,209.55-17.3,39.87-40.68,78.24-74.74,105.23C773,697.72,745,710.35,716.05,719.3c-79.47,24.62-165.22,22.2-247.08,7.35-71.19-12.91-142.28-35.85-199.37-80.3s-98.51-113.14-96.89-185.48c.65-28.75,7.88-56.92,15.94-84.53,4.4-15.11,9.17-30.35,17.61-43.64,15.09-23.76,40.66-39.12,67.17-48.57A225,225,0,0,1,410.71,280"/><path class="cls-2" d="M211.16,210.77c-18.09-2.61-31.94-20.3-32.62-38.57s10.3-35.82,25.71-45.64S238.86,114,257,116.27c33.74,4.17,64.88,25.59,80.85,55.6,3.22,6,5.89,12.58,6.15,19.43s-2.22,14.08-7.7,18.19c-5,3.76-11.59,4.43-17.82,5-35.84,3.1-72.53,6.14-107.32-3.05Z"/><path class="cls-3" d="M107.53,674.58c.13-.23.26-.46.41-.68a3.62,3.62,0,0,1,.22-.32l.1-.15s.15-.18.06-.07a10.27,10.27,0,0,1,1-1.14c.18-.17.37-.33.57-.49,0,0,.18-.14.07-.06l.14-.1.33-.23a9.64,9.64,0,0,1,1.37-.77.76.76,0,0,0,.27-1,.79.79,0,0,0-1-.27,10.76,10.76,0,0,0-4.84,4.55.75.75,0,1,0,1.29.76Z"/><path class="cls-3" d="M119.87,667.24a11.65,11.65,0,0,1,6.3-2,.75.75,0,0,0,0-1.5,13.17,13.17,0,0,0-7.06,2.21.78.78,0,0,0-.27,1,.76.76,0,0,0,1,.27Z"/><path class="cls-3" d="M134.19,665.35l6.11.6a.76.76,0,0,0,.75-.75.77.77,0,0,0-.75-.75l-6.11-.6a.75.75,0,1,0,0,1.5Z"/><path class="cls-3" d="M100.81,681.65A13,13,0,0,0,98.39,689a.75.75,0,0,0,1.5,0,11.52,11.52,0,0,1,2.22-6.62.75.75,0,1,0-1.3-.76Z"/><path class="cls-3" d="M97.06,698.49a20.51,20.51,0,0,0,.44,6,.75.75,0,1,0,1.44-.4,19.5,19.5,0,0,1-.38-5.6.75.75,0,0,0-1.5,0Z"/><path class="cls-3" d="M100.05,714.88a22.83,22.83,0,0,0,3.66,6.6.75.75,0,1,0,1.06-1.06,20.53,20.53,0,0,1-3.27-5.94.78.78,0,0,0-.93-.52.75.75,0,0,0-.52.92Z"/><path class="cls-3" d="M107.79,726.38a46.17,46.17,0,0,0,4.52,5.35c.67.69,1.73-.37,1.06-1.06a43.68,43.68,0,0,1-4.28-5,.77.77,0,0,0-1-.27.75.75,0,0,0-.27,1Z"/><path class="cls-3" d="M119.4,735.75a53.69,53.69,0,0,0,7.31,3.15c.92.31,1.31-1.13.4-1.45a50.83,50.83,0,0,1-7-3c-.85-.45-1.61.85-.75,1.29Z"/><path class="cls-3" d="M136.08,739.8a23.53,23.53,0,0,1,6.26-.63c1,0,1-1.46,0-1.5a25.26,25.26,0,0,0-6.66.68c-.94.23-.54,1.67.4,1.45Z"/><path class="cls-3" d="M149.76,735.89a6.58,6.58,0,0,0,4-1.57.75.75,0,0,0,0-1.06.77.77,0,0,0-1.06,0l-.18.15c.16-.12-.05,0-.08.05s-.25.17-.38.25l-.41.22-.21.09c.18-.06,0,0-.06,0a6.5,6.5,0,0,1-.86.25l-.22,0-.12,0c.11,0,.11,0,0,0l-.46,0a.76.76,0,0,0-.75.75.77.77,0,0,0,.75.75Z"/><path class="cls-3" d="M162.4,727.24l3.42-3.57a.75.75,0,0,0,0-1.06.76.76,0,0,0-1.06,0l-3.42,3.57a.75.75,0,0,0,0,1.06.76.76,0,0,0,1.06,0Z"/><path class="cls-3" d="M170.54,712.66l.74-1.72a.66.66,0,0,0,.09-.27.61.61,0,0,0,0-.3.71.71,0,0,0-.34-.45.79.79,0,0,0-.58-.08.75.75,0,0,0-.45.35l-.73,1.71a.49.49,0,0,0-.09.28.61.61,0,0,0,0,.3.82.82,0,0,0,.35.45.73.73,0,0,0,.58.07.69.69,0,0,0,.44-.34Z"/><path class="cls-3" d="M171.08,699.57l-.91-4a.75.75,0,1,0-1.45.39l.91,4a.75.75,0,0,0,1.45-.4Z"/><path class="cls-3" d="M169.33,688.71a8.58,8.58,0,0,0-3.4-4.7.75.75,0,0,0-1,.26.76.76,0,0,0,.27,1l.27.2h0l.13.11a6.14,6.14,0,0,1,.47.42c.16.16.31.32.46.49a2.11,2.11,0,0,0,.19.23c.05.07-.06-.08,0,0a1.13,1.13,0,0,1,.1.13,8,8,0,0,1,.65,1.09l.13.27c.09.2,0-.08,0,0a.94.94,0,0,1,.06.15c.08.21.15.42.22.64a.75.75,0,1,0,1.44-.4Z"/><path class="cls-3" d="M160.19,675.8,157.35,673a.75.75,0,0,0-1.06,0,.77.77,0,0,0,0,1.06l2.83,2.82a.75.75,0,0,0,1.07-1.06Z"/><path class="cls-3" d="M151,666.91l-.52-.45a.61.61,0,0,0-.24-.15.59.59,0,0,0-.29-.07.57.57,0,0,0-.29.07.55.55,0,0,0-.24.15l-.12.15a.75.75,0,0,0-.1.38l0,.2a.7.7,0,0,0,.2.33l.52.45a.61.61,0,0,0,.24.15.64.64,0,0,0,.58,0A.61.61,0,0,0,151,668l.12-.16a.69.69,0,0,0,.1-.37l0-.2a.69.69,0,0,0-.19-.33Z"/><ellipse class="cls-4" cx="217.89" cy="727.75" rx="24.69" ry="23.63" transform="translate(-540.76 767.17) rotate(-76.31)"/><ellipse class="cls-2" cx="106.05" cy="595.98" rx="23.63" ry="24.69"/><ellipse class="cls-4" cx="851.14" cy="231.04" rx="23.63" ry="24.69"/><path class="cls-3" d="M748.23,165.68a9,9,0,0,1,1.22-2.72,9.49,9.49,0,0,1,2-2.19.76.76,0,0,0,0-1.06.75.75,0,0,0-1.06,0,10.68,10.68,0,0,0-3.63,5.57.75.75,0,0,0,1.45.4Z"/><path class="cls-3" d="M758.48,155.63a11.64,11.64,0,0,1,5.66-3.44.75.75,0,0,0-.4-1.45,13.1,13.1,0,0,0-6.32,3.83.76.76,0,0,0,0,1.06.75.75,0,0,0,1.06,0Z"/><path class="cls-3" d="M772,150.41l6.08-.86a.75.75,0,0,0,.52-.92.78.78,0,0,0-.92-.53l-6.08.87a.74.74,0,0,0-.52.92.77.77,0,0,0,.92.52Z"/><path class="cls-3" d="M743.36,174.17a13.08,13.08,0,0,0-.6,7.75c.22.94,1.66.54,1.45-.4a11.57,11.57,0,0,1,.6-7,.75.75,0,0,0-1.45-.4Z"/><path class="cls-3" d="M743.71,191.43a20.63,20.63,0,0,0,1.85,5.71.75.75,0,1,0,1.29-.76,19.39,19.39,0,0,1-1.69-5.35.75.75,0,1,0-1.45.4Z"/><path class="cls-3" d="M750.5,206.63a22.12,22.12,0,0,0,5,5.42.76.76,0,0,0,1.06,0,.75.75,0,0,0,0-1.06,21.08,21.08,0,0,1-4.73-5.11.77.77,0,0,0-1-.27.75.75,0,0,0-.27,1Z"/><path class="cls-3" d="M760.75,216a47.52,47.52,0,0,0,5.65,4.13.75.75,0,1,0,.76-1.3,43.47,43.47,0,0,1-5.35-3.89.77.77,0,0,0-1.06,0,.75.75,0,0,0,0,1.06Z"/><path class="cls-3" d="M774.25,222.32a53.52,53.52,0,0,0,7.86,1.32.76.76,0,0,0,.75-.75.78.78,0,0,0-.75-.75,51.11,51.11,0,0,1-7.47-1.26.75.75,0,0,0-.39,1.44Z"/><path class="cls-3" d="M791.41,222.29a23.42,23.42,0,0,1,5.94-2.08.75.75,0,0,0-.4-1.45,25.17,25.17,0,0,0-6.3,2.24.75.75,0,0,0-.27,1,.76.76,0,0,0,1,.27Z"/><path class="cls-3" d="M803.78,215.26a6.56,6.56,0,0,0,3.52-2.48.76.76,0,0,0-.27-1,.78.78,0,0,0-1,.27.86.86,0,0,1-.07.1c-.06.08.12-.14,0,0l-.13.17-.32.33-.34.31a.31.31,0,0,0-.09.07s.11-.09,0,0a1.33,1.33,0,0,1-.19.14,6,6,0,0,1-.77.45l-.11.05s-.16.07,0,0l-.05,0-.09,0a3.53,3.53,0,0,1-.46.15.75.75,0,0,0,.4,1.45Z"/><path class="cls-3" d="M814,203.86l2.48-4.28a.75.75,0,1,0-1.29-.76l-2.49,4.28a.75.75,0,0,0,1.3.76Z"/><path class="cls-3" d="M818.46,187.76l.31-1.84a.83.83,0,0,0-.08-.58.77.77,0,0,0-.45-.34.75.75,0,0,0-.92.52l-.31,1.84a.83.83,0,0,0,.08.58.77.77,0,0,0,.45.34.73.73,0,0,0,.92-.52Z"/><path class="cls-3" d="M815.87,174.92,814,171.23a.75.75,0,0,0-1-.27.77.77,0,0,0-.27,1l1.84,3.68a.74.74,0,0,0,1,.27.76.76,0,0,0,.27-1Z"/><path class="cls-3" d="M811.6,164.78a8.71,8.71,0,0,0-4.42-3.76.75.75,0,0,0-.92.53.77.77,0,0,0,.52.92l.17.07c-.06,0-.08,0,0,0l.31.15c.19.09.38.2.57.31l.52.34.12.09c.06.05.1.09,0,0a2.75,2.75,0,0,1,.26.22,8.5,8.5,0,0,1,.9.9l.09.13c0,.05.08.1,0,0l.18.26c.13.18.25.38.37.57a.74.74,0,0,0,1,.27.75.75,0,0,0,.27-1Z"/><path class="cls-3" d="M799.66,154.41l-3.42-2.07a.75.75,0,0,0-1,.27.76.76,0,0,0,.27,1l3.42,2.08a.75.75,0,0,0,.76-1.3Z"/><path class="cls-3" d="M788.63,147.94l-.62-.31a.66.66,0,0,0-.28-.09.74.74,0,0,0-.55.15.48.48,0,0,0-.19.21l-.08.18a.9.9,0,0,0,0,.4l.08.18a.7.7,0,0,0,.27.27l.61.31a.57.57,0,0,0,.28.08.51.51,0,0,0,.3,0,.55.55,0,0,0,.25-.13.8.8,0,0,0,.2-.21l.07-.18a.68.68,0,0,0,0-.4l-.07-.18a.87.87,0,0,0-.27-.27Z"/></g><g id="Layer_18" data-name="Layer 18"><g id="Layer_16" data-name="Layer 16"><path class="cls-5" d="M369.21,238.14c-8.55,0-15.44,5.63-21.55,11.61-11.69,11.44-15.53,29-14.19,45.31.83,10.22,3.45,20.55,1.34,30.58A33.38,33.38,0,0,1,326,342.09c-3.69,3.72-8.6,7.19-9,12.41,3.68-3.66,6.61,2.23,10.95,5.07s10.47,2,12.48,6.8c1.81,4.3,3.3,8.93,6.56,12.28,2.86,3,6.8,4.58,10.69,5.9,10.47,3.55,21.76,5.4,32.64,3.42s21.29-8.18,26.71-17.81c2.5-4.45,4.07-9.7,8.1-12.82a4.72,4.72,0,0,0,1.48-1.47c.78-1.62-.88-3.3-2.29-4.42a40.88,40.88,0,0,1-14.53-24.6c-2.38-13.65,2.32-27.74.26-41.43-1-6.72-3.63-13.1-6.65-19.19-3.45-7-7.54-13.75-13.22-19.05S377,238.12,369.21,238.14Z"/></g><g id="Layer_60" data-name="Layer 60"><path class="cls-5" d="M317.3,352.58l-.38-.89c-7.41,5.35-13.76,11.61-16.81,20.24S295.87,389.7,295,398.8a482,482,0,0,0,3.1,120.36l1.13.46c1.89.27,3.8.45,5.71.58l-.07.43"/></g><g id="Layer_17" data-name="Layer 17"><path class="cls-6" d="M340.65,775.71C331.22,709,325,647.89,319,580.74c9.05-6.11,12-11.1,19.55-19a9,9,0,0,1,3-2.3,9.62,9.62,0,0,1,3.74-.44c2.83.06,5.61-.35,8.44-.25l1.11-.14c3.42,71.59,4.09,144.55,2,216.19l-.67.25c-5.1.33-10.22.41-15.33.24"/><path class="cls-6" d="M398.64,769.52c1.19-40.79,3.48-82.11,6.59-122.8l-.05-.31c.83-12.1,1.49-23.52,2.31-35.63,1.26-18.35,2.48-37-1.7-54.94-16.17,2.51-33.36-3.14-48.77,2.37l.74.2C372.2,627.59,372,699,381.65,769a65.32,65.32,0,0,0,17,.56"/><path class="cls-7" d="M351.59,775.32a13.18,13.18,0,0,1-.3,3.34l-5.46-.27a12.28,12.28,0,0,0-.16-2.68"/><path class="cls-7" d="M351.87,815.53l1.27-29.4a65.2,65.2,0,0,0,.05-7L351.84,778a.84.84,0,0,1,1.07.35,18.32,18.32,0,0,1-8.8,0,1,1,0,0,1,.92-.28l-.68.25c-1.8,1.7-3.74,3.25-5.69,4.78-13.94,10.85-28.9,20.38-42.49,31.67a29.18,29.18,0,0,0,4.63,2.43l.32.24c5.81,1.85,12,2,18.1,2,10.25,0,22.84-.55,32.39-4.27"/><path class="cls-7" d="M391,773.18A10.31,10.31,0,0,1,391,771l-5.28-.66-.14,3.13"/><path class="cls-7" d="M391.62,773.61c2.14,14.54,10.34,28.84,12.5,43.38l-3.66,1,.27,0a48.45,48.45,0,0,1-22.05.36,4.52,4.52,0,0,1-2.44-1.12,3.93,3.93,0,0,1-.8-1.67c-.86-3.21-.36-6.62.21-9.9,1.86-10.72,4.4-21.44,9.33-31.14l.58-1.42c0,.44-.33,1.17,0,1.41s.59-.83.95-1.09c2.76-2,4,.6,5.07.18-.13-.15.12.15,0,0"/></g><g id="Layer_15" data-name="Layer 15"><path class="cls-7" d="M340.41,292c.55-9.56,1.87-17.3,5.14-25.18a19.63,19.63,0,0,1,3.39-5.89,16.57,16.57,0,0,1,6.64-4.11,39.35,39.35,0,0,1,21.57-1.18,18.4,18.4,0,0,1,6.29,2.27A15.14,15.14,0,0,1,387,261.2c5.3,6.6,6.37,15.56,7,24,.66,8.65.88,18.07-4.17,25.12-4.29,6-11.52,9-18.37,11.74a15.7,15.7,0,0,1-3.83,1.17,12.57,12.57,0,0,1-7-1.56A35.39,35.39,0,0,1,347,309c-3.43-5.29-4.32-8.64-6.12-13.57Z"/><path class="cls-8" d="M342.86,274.64c1.08-4.75,2.37-9.64,5.37-13.49s8.15-6.42,12.82-5l.35.66a18.24,18.24,0,0,1-17.72,16.94"/><path class="cls-8" d="M361.56,257.57A13.52,13.52,0,0,0,365.8,266a28.11,28.11,0,0,0,8.09,5.21c5.7,2.6,12.3,4.32,18.17,2.15-1.24-5.75-2.82-12.05-7.63-15.44a18,18,0,0,0-5.85-2.53,37,37,0,0,0-19.18.11Z"/><path class="cls-5" d="M408.77,392.78q4.94,68.64,13,137l.1.51c2.18,0,4.36-.06,6.53-.22l1.16-.38a482.12,482.12,0,0,0,11-119.9c-.32-9.14-.9-18.35-3.38-27.15s-7-17.26-14-23.08l-.85.62c-4.4,9.11-7.61,14.3-14.53,20.63-3,2.75-8,4.28-11.94,5.18a82.87,82.87,0,0,1-38.92-.61l.72.57.89,131.13c.23,33.74.46,67.55,4.38,101.06.79,6.71,2,13.93,6.76,18.69a25.33,25.33,0,0,0,9.22,5.36,66.7,66.7,0,0,0,31,3.77l1.32,0c1.66-.81,2-3,2.17-4.81l9.35-110.4"/><path class="cls-9" d="M329.54,359.57c6.09,2,11.31,5,12,10.95"/><path class="cls-10" d="M343.45,558.41c.44-6.64.54-12.1.66-18.43,1.07-56.49.21-111.94-2.08-168.4l-.47-1.06a25.93,25.93,0,0,0,16.22,14.85c-1.24,57.06-.67,115.31.63,172.37-4.69,1.77-10.36,1.23-15.34.63"/><path class="cls-7" d="M427.89,530.4c.13,1.64.21,3.29.24,4.94l-3.24-.62c-.09-1.34-.23-2.68-.41-4"/><path class="cls-7" d="M424.87,535.34a1.28,1.28,0,0,0-1,.88,3.82,3.82,0,0,0-.17,1.39,40.17,40.17,0,0,0,.82,10,6.15,6.15,0,0,0,2.21-.92l-1,.81a46,46,0,0,0-1.13,11.63.6.6,0,0,0,.14.45.67.67,0,0,0,.31.1,56.48,56.48,0,0,0,7.12.45c.61,0,1.32-.07,1.63-.59a2,2,0,0,0,.18-.86c.28-7.88.55-15.88-1.39-23.52l-4.06.24"/><path class="cls-7" d="M299.11,520.41c-.12,1.64-.21,3.29-.24,4.94l3.24-.62c.09-1.34.23-2.68.41-4"/><path class="cls-7" d="M302.13,525.35a1.31,1.31,0,0,1,1,.88,4.05,4.05,0,0,1,.17,1.39,41.18,41.18,0,0,1-.82,10,6.07,6.07,0,0,1-2.21-.92l1,.81a46,46,0,0,1,1.13,11.63.56.56,0,0,1-.14.44.64.64,0,0,1-.31.11,56.48,56.48,0,0,1-7.12.45c-.6,0-1.32-.07-1.63-.59a1.82,1.82,0,0,1-.17-.86c-.28-7.88-.55-15.88,1.38-23.52l4.06.24"/></g><path class="cls-5" d="M317.22,351.73c1.46,2.26,4.69,2.35,7.07,3.6,2.13,1.12,3.58,3.19,5.43,4.74a23.3,23.3,0,0,0,6.6,3.53c1.68.66,3.46,1.34,4.57,2.75a5,5,0,0,1,.66,5l-.09-2.22c6.65,89.69-.62,182.83,2.89,272.7l-.06.36a39.47,39.47,0,0,1-24.68-1.57A8,8,0,0,1,316,638.3a8.73,8.73,0,0,1-1.41-4.22C303.53,560.87,301.44,486.57,303,412.56"/></g><g id="Layer_14" data-name="Layer 14"><g id="Layer_12" data-name="Layer 12"><path class="cls-7" d="M685,265.13c.93,0,.3.25.63-.62a7.93,7.93,0,0,0,.68-2.93c-.07-1.87-.2-4.62-.28-6.49,0-.35.21-.08,0-.35s.1-.93-.07-.63l-.1.11c-1-.42-1.07-1.73-1.18-2.79-.41-3.8-3-7.08-6.23-9.18s-6.91-3.23-10.57-4.32c-2.65-.79-5.3-1.58-8-2.15-4.11-.85-8.33-1.18-12.39-2.27s-8.06-3.1-10.48-6.53a5.39,5.39,0,0,1-1.2-3.76l0,.5a18.79,18.79,0,0,1,1.84,15.19c-1.68,5-5.58,9.75-10.8,10.43l.21-.49c.39-.12,1.25.32-.23,1.19-.47.29-.49.56-1.1.82s-.19,1-.22,1.67c-.15,3.35-1,6.86-.13,10.11.09.37.3.44.54.74a1.93,1.93,0,0,0,1.93.86l-.54.14-.39.4c1.24,7.41,1.42,14,2.56,20.94a28.3,28.3,0,0,0,11.06,17.57,34.59,34.59,0,0,0,5.16,3.1c3.65,1.83,7.65,3.31,11.72,3a21.25,21.25,0,0,0,5.48-1.3c8.22-2.92,15.35-8.78,18.21-17a34.5,34.5,0,0,0,1.5-7.89c.62-5.8,1.49-11.82,1.69-17.65"/></g><g id="Layer_13" data-name="Layer 13"><path class="cls-9" d="M604.15,521.45a16.14,16.14,0,0,0,2.91,6.83,3.75,3.75,0,0,0,1.8,1.48c1.16.35,1.5-1.45,2.42-2.24,2.08-1.78,3.1-4,4.33-6.44"/><path class="cls-6" d="M659.59,517.36q-22.35,131.89-37.16,265l-.47,1.22a21,21,0,0,1-13.19,1.67l0-.11C596.63,696,604.7,612.29,596.67,522.55l.51-8.7c3.09-7.05,5.7-12.62,6-20.38,1.11,2.84,2.27,5.67,3.47,8.47"/><path class="cls-7" d="M618.33,785.46l-.42,4.15-4.42.6a34.47,34.47,0,0,1-.15-4.88"/><path class="cls-7" d="M688.9,784.94a42.29,42.29,0,0,0,.27,5.51l-5.29.15a41.56,41.56,0,0,0-.63-5.51"/><path class="cls-7" d="M691.91,790.34a85,85,0,0,0,7,7.73c8.5,8.72,17,17.44,25.92,25.76l.23.35c.81.79.49,1.38,0,2.13a4.27,4.27,0,0,1-2.24,1.44,91.27,91.27,0,0,1-26.23,5.6,1.44,1.44,0,0,1-1.1-.68c-6.85-8.14-7.76-19.78-13.39-28.82l0-.55a35.29,35.29,0,0,0,.08-9.24,16.35,16.35,0,0,1,0-4.25l.49-.56c-.51.07.09.11.31.57a2,2,0,0,0,1.2.89,11.58,11.58,0,0,0,5.82.07,2.52,2.52,0,0,0,1.1-.37.94.94,0,0,0,.4-1,1.08,1.08,0,0,0-.49-.52,2.1,2.1,0,0,0-1.49-.23"/><path class="cls-6" d="M645.27,517.36q21.26,131.89,35.34,265l.44,1.22a19.09,19.09,0,0,0,12.54,1.67l0-.11c11.59-89.22,3.92-172.89,11.55-262.63l-.49-8.7c-2.94-7.05-5.42-12.62-5.74-20.38-1,2.84-2.16,5.67-3.3,8.47"/><path class="cls-7" d="M610.62,790.21a93.29,93.29,0,0,1-6.26,8.39c-7.63,9.46-15.27,18.93-23.26,28l-.21.38c-.73.86-.44,1.5,0,2.32a3.83,3.83,0,0,0,2,1.55,69.73,69.73,0,0,0,23.54,6.09c.4,0,.73-.37,1-.74,6.15-8.84,7-21.48,12-31.29l0-.59a46.8,46.8,0,0,1-.07-10,20.91,20.91,0,0,0,0-4.61L619,789c.45.07-.08.12-.28.62a1.85,1.85,0,0,1-1.08,1,8.61,8.61,0,0,1-5.22.08,2.1,2.1,0,0,1-1-.41,1.12,1.12,0,0,1-.36-1.1,1.13,1.13,0,0,1,.44-.56,1.66,1.66,0,0,1,1.34-.26"/></g><g id="Layer_11" data-name="Layer 11"><path class="cls-11" d="M635.8,223.67c1.41,5,2.53,10.28,1.38,15.34s-5.12,9.82-10.29,10.33a27.88,27.88,0,0,1-4.33-20.72,17,17,0,0,1,1.49-4.59c1.57-3,4.18-5.38,6.74-7.63,3.22-2.83,5.68-3.84,8.81-5.61a48.39,48.39,0,0,1,5.4-2.12c1.74-.7,5.71-1.06,7.59-1.15,9.6-.45,17.11,3.25,24.68,9.17s12.55,15.36,12.19,25a48.55,48.55,0,0,1-1.82,10.4,5.45,5.45,0,0,1-1,2.32,1.89,1.89,0,0,1-2.3.5,18.41,18.41,0,0,0-9-13.87c-3.38-1.95-7.28-2.76-11.1-3.53l-13.75-2.79a34,34,0,0,1-7.57-2.17,11.25,11.25,0,0,1-5.63-5.29Z"/><path class="cls-11" d="M637.2,279.55a65.64,65.64,0,0,1,11.06-6.13,21.92,21.92,0,0,1,12.39-1.48,27,27,0,0,1,8.74,3.93c1.88,1.19,3.78,2.54,4.77,4.53a3.22,3.22,0,0,1-2.88.67,12.08,12.08,0,0,1-2.86-1.13,28.18,28.18,0,0,0-24.28.28,12.62,12.62,0,0,1-4,1.59,3.32,3.32,0,0,1-3.58-1.85Z"/><path class="cls-11" d="M652.38,288.14c.8,1-.13,3.34-1.16,4.09a5.88,5.88,0,0,1-3.65.83c-4.51-.11-9.2-1.79-11.91-5.4-1.94-2.6-2.67-5.89-3.06-9.11a53.66,53.66,0,0,1-.38-8.5,5.88,5.88,0,0,0-1.57-3.72c-.86-1-1.9-1-3.22-1.16h0a19.25,19.25,0,0,0,.56,5.74c.76,4.3.77,8.68,1.32,13s1.72,8.72,4.43,12.13c1.59,2,3.21,4.43,5.27,5.95a49.44,49.44,0,0,0,8.49,5.23c3,1.37,6.33,2.55,9.59,2.18a29.47,29.47,0,0,0,5.85-1.32c3.46-1.15,7-3.64,10-5.78,5.2-3.79,8-10.13,9.24-16.43s1.37-12.79,2.44-19.13l-.42-.72c-1.49.7-1.93,2.57-2.2,4.19l-1,6.17a23.92,23.92,0,0,1-1.87,6.95,15.34,15.34,0,0,1-2.47,3.51,15,15,0,0,1-8.5,5,9.14,9.14,0,0,1-8.9-3.42l-.61-.36c-2.08-.07-4.17-.05-6.25.06"/><path class="cls-7" d="M628.5,250.43a3.67,3.67,0,0,0-2,.07,1.8,1.8,0,0,0-1,.64,2.49,2.49,0,0,0-.29,1.3l-.23,7.05a8.36,8.36,0,0,0,.12,2.18c.15.68,2.22,3,3.35,3.23"/><path class="cls-7" d="M684.21,255.75c.65.18,1.48-.25,2,.22a1.24,1.24,0,0,1,.26.46c.7,2,0,4.19.25,6.28a7.94,7.94,0,0,1,.13,1.37,1.6,1.6,0,0,1-.52,1.23,2,2,0,0,1-.62.32,11.83,11.83,0,0,1-2.22.92"/><path class="cls-7" d="M628.14,255.73a1.05,1.05,0,0,0-1,.61,2.59,2.59,0,0,0-.22,1.26,7.19,7.19,0,0,0,1.5,4.51"/><path class="cls-7" d="M683.47,258.92a5.9,5.9,0,0,1,0,5.32"/><path d="M653.39,310.09l.47,4a.75.75,0,0,0,1.5,0l-.47-4a.75.75,0,0,0-1.5,0Z"/><path d="M658.06,310.36l-.34,5.1a.75.75,0,1,0,1.5,0l.34-5.1a.75.75,0,0,0-1.5,0Z"/><path class="cls-7" d="M588.65,524.16a123.57,123.57,0,0,1,.18,23.16.86.86,0,0,1-.12.44.81.81,0,0,1-.61.2c-2.23.12-3.18.31-5.41.43a3.44,3.44,0,0,1-3.11-.78,4.45,4.45,0,0,1-.79-1.9c-2.32-10-2.51-20.19-2.54-30.4a7.08,7.08,0,0,1,.16-2.73c.36-.65,2-.25,2.75-.35v-.15q1.23-51.71,2.45-103.43c.17-7.3-.34-14.49-.34-22.45h.37a8.73,8.73,0,0,0,1.76,1.57,32.53,32.53,0,0,0,19.83,4.13l-.29.66q-6.77,60.17-15.84,120h.17c.8.28,2.25.89,3.05,1.18a25.48,25.48,0,0,0,.35,7.08,3.91,3.91,0,0,1,.09,1.52,2.15,2.15,0,0,1-1.7,1.8c-.85.07-1.87-.08-2.78,0"/><path class="cls-7" d="M714.86,517.35a124.43,124.43,0,0,0-.18,23.16.83.83,0,0,0,.12.44.79.79,0,0,0,.6.21c2.22.12,3.16.31,5.37.42a3.38,3.38,0,0,0,3.09-.78,4.56,4.56,0,0,0,.78-1.9c2.3-9.95,2.49-20.18,2.51-30.4a6.91,6.91,0,0,0-.15-2.73c-.36-.64-1.93-.24-2.73-.35v-.14q-1.21-51.72-2.42-103.44c-.18-7.3.33-14.48.33-22.44h-.37a9.17,9.17,0,0,1-1.74,1.56,32.06,32.06,0,0,1-19.67,4.13l.29.67q6.7,60.15,15.7,120h-.16c-.8.29-2.23.9-3,1.18a26,26,0,0,1-.35,7.09,3.86,3.86,0,0,0-.09,1.51,2.14,2.14,0,0,0,1.68,1.8c.85.07,1.86-.07,2.76,0"/><path class="cls-5" d="M661,315.11c16.56,4,35.33,10.52,51.71,15.16,6.9,14.42,10.52,28.49,12.7,44.2a3.94,3.94,0,0,1-.1,2.13,4,4,0,0,1-1.65,1.58c-6.27,3.95-14,8.93-21.5,8.06l-2.26-29.54c.93,33.22,2.24,66.43,3.55,99.64.3,7.59,2.84,53.61,3.44,61.17-4,4-9.94,5.3-15.52,6.36-22.41,4.27-45.54,7.66-67.93,3.3a100.19,100.19,0,0,1-10.14-2.54c-6.9-2.11-13.78-5.12-18.66-10.42l-.68-.62c.48-7.57,4.3-47.88,5.08-55.43,3.43-33.06,6.85-66.12,10.65-99.14L606,391.59c-7.08.86-17.47-1.09-23.41-5a3.83,3.83,0,0,1-1.56-1.58,4.14,4.14,0,0,1-.11-2.13,169.87,169.87,0,0,1,13.39-46.67c18.92-8.09,38.8-15.3,58.39-21.6l1.81-.06c-.34-.47-1.19,0-1.15.62s.59,1,1.11,1.26a6.71,6.71,0,0,0,4,.6,1.83,1.83,0,0,0,1.5-.92c.23-.56-.4-1.35-.92-1"/></g></g><g id="Layer_20" data-name="Layer 20"><g id="Layer_2" data-name="Layer 2"><g id="Layer_14-2" data-name="Layer 14"><rect class="cls-7" x="371.38" y="645.33" width="200.19" height="200.87"/><polygon class="cls-7" points="383.47 611.55 591.98 619.77 571.77 645.58 371.38 645.58 383.47 611.55"/><polygon class="cls-7" points="589.61 810.08 591.98 619.77 571.52 645.68 571.26 846.2 589.61 810.08"/><path class="cls-7" d="M426.53,773.41c1.29,2.1,3.67,4.78,5,6.88l-5,3.05L420.73,775"/><path class="cls-7" d="M433.63,778.34c4.51,5.77,10.87,13.09,14.95,19.12l-.91,1.2c-10.2,11.7-22.72,21.05-35.22,30.29-5,3.75-10.76,9.17-15.86,12.91-3.24,1.08-7.32,1-10.76,1.1a479.17,479.17,0,0,1,38.5-59.89l1.7-.4c-.77.15-.59,1.47.16,1.75a2.82,2.82,0,0,0,2.23-.48,10.32,10.32,0,0,0,3.59-2.61,3.58,3.58,0,0,0,.28-4.14,4.2,4.2,0,0,0-2.05,1"/><path class="cls-7" d="M481.83,842.08c.38,2.39,1.52,5.84,1.89,8.27l-5.81.84-2-10"/><path class="cls-7" d="M486.47,849.39c1.89,7.07,4.89,16.3,6.27,23.48l-1.32.79c-13.95,6.79-29.17,10.48-44.23,14.13-6.11,1.48-13.53,4.22-19.64,5.69-3.41-.28-7.17-1.89-10.31-3.17a478.86,478.86,0,0,1,58.84-40.09l1.72.27c-.76-.14-1.11,1.14-.54,1.68a2.81,2.81,0,0,0,2.25.44,10.21,10.21,0,0,0,4.28-1,3.52,3.52,0,0,0,1.87-3.69,4,4,0,0,0-2.28.12"/><path class="cls-6" d="M499,595.47c23.37,10.67,50.28,10.12,75.74,13.6l1.61-.52q.46,7.88.43,15.75c0,2.47-.07,5.07-1.31,7.17a14.22,14.22,0,0,1-4.14,4,232.78,232.78,0,0,1-79.74,37l1.12.46-3.33,52.47c-2,31.36-3.44,82.33-2.4,113.73l-.33.71c-4.43,2.77-10.17,1.61-15.26.37l-.23-.37c-9.57-61.71-29.11-124.32-29-186.61,2.51-6.36,9.46-11.41,14.24-16.28q23-23.09,46.75-45.43"/><path d="M471.3,841.41a8.83,8.83,0,0,0,3.48,1.66.89.89,0,1,0,.48-1.72l-.8-.24-.4-.13-.2-.09h-.1c.15.06.16.07.07,0s-.5-.24-.74-.38l-.34-.23-.09-.06h0l-.15-.13a1,1,0,0,0-.64-.26.88.88,0,0,0-.63.26.9.9,0,0,0,0,1.27Z"/><path d="M486.13,840c-.09.16-.21.3-.31.45,0-.05.1-.13,0,0l-.08.11-.19.21c-.12.13-.25.25-.38.37l-.22.18c-.08.07.19-.14,0,0l-.12.08a7.9,7.9,0,0,1-.94.54h0c.18-.09,0,0-.06,0l-.25.09-.54.15a.9.9,0,0,0-.64,1.09h0a.92.92,0,0,0,1.1.63,6.62,6.62,0,0,0,4.16-3,.87.87,0,0,0-1.51-.87Z"/><path class="cls-6" d="M460.41,632.38c12.2-9,22.47-23.68,34.47-33,1.07-.83,3.38-3,3.11-4.32-.13-.65-3-1.19-3.45-1.6-3.12-2.89-7.33-4.36-10.56-7.17s-5.21-8-2.39-11.21l-.89-.73c-15.71,1.19-31.43,2.32-47.17,2.79-15.29.46-30.64.27-45.81,2.18s-30.68,5.45-43.42,13.9c-4.78,9.76-4.09,20.22.66,30.11l-.34-1c10.85,25.27,20.33,42,33.3,66.18,15.44,28.69,27.07,59.3,42.66,87.91l.81.36a12.54,12.54,0,0,0,6.52.14c2.08-.69,3.85-2.84,3.36-5h.28Q417,702.52,399,633.77l1.31.19,49.55-.43c3.73,0,7.54-.08,11.05-1.34"/><path class="cls-12" d="M540,611.89c-49,0-97.64-1-146.6-1.07a3,3,0,0,0-2,.74h0a3,3,0,0,0-1,2.3c0,2.23.16,4.65.18,6.87a3.68,3.68,0,0,0,.66,2l.43.64a2.89,2.89,0,0,0,2.39,1.26c47.81-.06,95.8-1.36,143.58-1.41a2.67,2.67,0,0,0,2.66-2.69,3.11,3.11,0,0,0,0-.43h0c0-2.81-.25-5.69-.25-8.5"/><path class="cls-7" d="M539.27,425c1.25,2.19,3.07,5.58,4.21,7.84l-4.37,1.81a40.61,40.61,0,0,0-4.16-7.56"/><path class="cls-10" d="M592.42,549.66a259.76,259.76,0,0,0,.63-26.47l-27.3-43q18.9,28.33,36.5,57.62c.79,1.31,1.5,3.21.32,4.19l.68-.86L520.1,613.49l.55.79a8.41,8.41,0,0,1,2.09,8.65l.44.51C570.94,605.89,619,577.26,658,544.54v-.64c-18.7-35.19-43.56-68.13-67.11-100.16l.08-.43c-14.26-6-30.37-6.18-44.86-11.61l-3.22-1.45c.45-.31.4-.57.92-.7a1.5,1.5,0,0,1,1.52.38,1.62,1.62,0,0,1,.32.87,4.06,4.06,0,0,1-2.77,3.94,9.74,9.74,0,0,1-5.11.13,3.8,3.8,0,0,1-1.32-.43c-.39-.25-.49-.72-.67-1.2s1.2-1.78,1.28-1.19l-2.27,2.39q-23.11,4.88-46,10.67h-.64l-26,43.68c-3.14,5.26-6.28,10.53-9.81,15.54-7.87,11.23-18.75,23.33-28.46,33l.84.5c9.35.68,18.52.31,27.88,1,2.39.18,5.64-.13,8.08,0l.39-.16c6.62-1.87,14.09-6.27,19.67-10.32l2.09-33.47c-2,29.24-2.18,59.84-1.34,89.14,5.26,6.35,13.49,9.22,21.31,11.82l26.3,8.73"/><path class="cls-10" d="M560.91,608a225.33,225.33,0,0,1,26.77-14.09l.19-.71-1,8.57a5.85,5.85,0,0,1-1.25,3.52,5.46,5.46,0,0,1-2.27,1.19,58.65,58.65,0,0,1-24.41,2.27"/><path class="cls-7" d="M522.25,619.85l-5.71.78-.07.29c-.63,2.16-3.43,2.64-5.69,2.71l-24.54.77a1.65,1.65,0,0,1-.85-.12,1.73,1.73,0,0,1-.65-1.5l-.66-8.21v-1.06c7.05-4.79,17.13-6.73,25.65-6.66a32,32,0,0,1,6,9.93l.78.29a11.58,11.58,0,0,1,5.39-2.56"/><path class="cls-7" d="M522.25,623.65a4.47,4.47,0,0,1-4.35-2.51"/><path class="cls-12" d="M363.42,538.9l92.49-1.47c9.57,0,11.23,0,13.81,10.21l16,53.79a8.84,8.84,0,0,1-5.77,11.1,9.32,9.32,0,0,1-.91.23c-6.69,1.44-14.68.73-23.05,1.48h-.25l-63.59.52h-.32c-9-.87-12.76,2.52-17.55-9.86,0-.13-.1-.26-.13-.4l-12.75-46.19C358.63,548,353.91,538.9,363.42,538.9Z"/><path class="cls-7" d="M535.73,429.32c-5.25-.18-9.06-.74-13.47-3.59a59.87,59.87,0,0,1-26.4-54.11,35.16,35.16,0,0,1,4-14.35,28.52,28.52,0,0,1,10.09-10.12,33,33,0,0,1,27-3.23,31.47,31.47,0,0,1,19.54,18.76c1.84,5.08,2.28,10.55,2.62,15.94a101.92,101.92,0,0,1,.12,13.76,58,58,0,0,1-9.41,27.39C546.53,424.72,541.65,429.52,535.73,429.32Z"/><path class="cls-7" d="M527.48,383.72a6.13,6.13,0,0,1,1.86-2.8,5.89,5.89,0,0,1,2.67-.83l10.86-1.56a8.14,8.14,0,0,1,3.11-.06,2.82,2.82,0,0,1,2.2,2l.63.49a16.27,16.27,0,0,1,0,8.37,1.38,1.38,0,0,1-1.2,1.2,57.85,57.85,0,0,1-13.29,2.62,5,5,0,0,1-3.73-.77,4.64,4.64,0,0,1-1.11-1.92,23.59,23.59,0,0,1-1.3-6l2.3.66c.13.68-.28.22-.27.92l-.25-.58a3.13,3.13,0,0,0-.47-.86,3.21,3.21,0,0,0-2.93-.54l-6,.88a7.89,7.89,0,0,0-3.59,1.19c-1,.74-2.26,1.08-1.66,2.2-.31-2.57.28-1.44.28-1.44l1.91-1.76a4,4,0,0,0-2-2.76,3.78,3.78,0,0,0-1.67-.07l-12.16,1.19a10.89,10.89,0,0,0-3.14.63,3.58,3.58,0,0,0-2.12,2.28l.2.29,1.75,8.59a2,2,0,0,0,.5,1.19,2.07,2.07,0,0,0,1.59.29Q508,396,515.41,395a2.16,2.16,0,0,0,1.05-.33,2.19,2.19,0,0,0,.63-1.2,26.79,26.79,0,0,0,1.1-7.17"/><path class="cls-13" d="M552.32,401.23l1.77-1.2c.21-.42.76-2.87,1-3.25,1.19-1.65,3-6.55,4.31-8.28"/><path class="cls-13" d="M559.35,389.8c.32-5.38-.39,2.14-.74,7.52-.2,3-.88,6.3-1.05,9.3-.67,12.65-2.12,17.93-10.53,28.07-.78.94-10.13,5.5-11.32,5.72-7.71,1.44-9.86.23-13.67-1.19-8.88-3.31-11.64-12.79-16.19-22-2.24-4.52-3.35-12-5.31-16.64l-.42-2c1.41,1.56.83,4.66,2.25,5.39s4.32,4.16,5.53,6.7a22.08,22.08,0,0,0,4.44,6.88c4.93,4.89,6.7,4.13,10.83,5.28.61.17,2.82-3.51,3.45-3.59s6.6,2.46,7.17,2.15c6.23-3.11,8.77-6.94,13.74-12.79.27-.31,11-17.93,10.9-17.48"/><path class="cls-7" d="M549.92,384.53l8.37-6.24"/><path class="cls-13" d="M514.67,416.23a11.54,11.54,0,0,1,5.26-8,20.53,20.53,0,0,1,10.76-3.05,11.69,11.69,0,0,1,6.46,1.92,7.43,7.43,0,0,1,3.17,6.23c-4.6-1.19-9.37-2.39-14-1.47a29.23,29.23,0,0,0-4.49,1.41c-2.47,1-3.66,1.45-6.06,2.62Z"/></g></g></g></svg>