<svg xmlns="http://www.w3.org/2000/svg" viewBox="0 0 1000 1000"><defs><style>.cls-1{fill:#f1f5fc;}.cls-2{fill:#e6eefb;}.cls-3{fill:#f4f4f4;}.cls-4,.cls-7{fill:#fff;}.cls-4{stroke:#f4f4f4;}.cls-10,.cls-11,.cls-12,.cls-14,.cls-4,.cls-5,.cls-6,.cls-7,.cls-8,.cls-9{stroke-miterlimit:10;}.cls-5{fill:#d8e7fa;}.cls-10,.cls-11,.cls-12,.cls-14,.cls-5,.cls-6,.cls-7,.cls-8,.cls-9{stroke:#000;}.cls-6{fill:#2d388e;}.cls-8{fill:#1c6685;}.cls-9{fill:#f5f6f9;}.cls-10{fill:#a6c9f5;}.cls-11{fill:#ffbe21;}.cls-12{fill:#e96181;}.cls-13{fill:#fcfcfc;}.cls-14{fill:#92b1d3;}</style></defs><g id="Layer_36" data-name="Layer 36"><path class="cls-1" d="M891.26,516.65c50,24.67,83.39,79.68,82.22,135.4-.39,18.68-4.48,37.55-13.93,53.67-13.5,23-36.64,38.57-59.94,51.54-27.9,15.53-58,28.73-89.89,30.6-14.89.87-29.79-.76-44.7-1.38-30.18-1.24-61.63,2-87.69,17.32-17.43,10.23-31.87,25.49-50.51,33.3-25,10.48-54.17,5.84-79-5.09-25.49-11.22-49.56-31.08-55.38-58.32-4.08-19.09,1.5-39.28,11.55-56s24.29-30.52,38.8-43.59c12.82-11.54,26-22.73,40.48-32.15,42.23-27.54,92.78-38.75,138.88-59.15a373.07,373.07,0,0,0,86.33-53.31c10.07-8.31,20-17.35,32.33-21.76a50.35,50.35,0,0,1,49.63,9.72"/><path class="cls-1" d="M259.28,593.37c-16.65,2.66-33.44,3.83-50,.85-54.63-9.85-107.41-36.68-141.7-80.33s-47.66-105-27.64-156.77c13.79-35.64,42-64.57,75.15-83.65s70.88-28.91,108.81-33.58c28.45-3.51,57.31-4.24,85.36-10.22a233.07,233.07,0,0,0,93.27-43.15c22-17,41-37.9,64.33-53,40.58-26.34,93-32.9,139.32-18.93s85.94,47.82,108.46,90.62c8.76,16.64,15.1,34.83,16,53.6,1.65,33.25-13.73,65.18-33.45,92-42.23,57.45-104,97.06-165.6,132.91C442.3,535.62,361.29,577.1,259.28,593.37Z"/><path class="cls-2" d="M407.75,278.84c40.45,5.21,80.63,13.59,121.4,14.59,49.77,1.22,99.1-8.59,148.77-12s102,.42,144.65,26.16a155.93,155.93,0,0,1,54.88,56.52c35.64,63.1,22.89,143.07-6,209.55-17.3,39.87-40.68,78.24-74.74,105.23C773,697.72,745,710.35,716.05,719.3c-79.47,24.62-165.22,22.2-247.08,7.35-71.19-12.91-142.28-35.85-199.37-80.3s-98.51-113.14-96.89-185.48c.65-28.75,7.88-56.92,15.94-84.53,4.4-15.11,9.17-30.35,17.61-43.64,15.09-23.76,40.66-39.12,67.17-48.57A225,225,0,0,1,410.71,280"/><path class="cls-2" d="M211.16,210.77c-18.09-2.61-31.94-20.3-32.62-38.57s10.3-35.82,25.71-45.64S238.86,114,257,116.27c33.74,4.17,64.88,25.59,80.85,55.6,3.22,6,5.89,12.58,6.15,19.43s-2.22,14.08-7.7,18.19c-5,3.76-11.59,4.43-17.82,5-35.84,3.1-72.53,6.14-107.32-3.05Z"/><path class="cls-3" d="M107.53,674.58c.13-.23.26-.46.41-.68a3.62,3.62,0,0,1,.22-.32l.1-.15s.15-.18.06-.07a10.27,10.27,0,0,1,1-1.14c.18-.17.37-.33.57-.49,0,0,.18-.14.07-.06l.14-.1.33-.23a9.64,9.64,0,0,1,1.37-.77.76.76,0,0,0,.27-1,.79.79,0,0,0-1-.27,10.76,10.76,0,0,0-4.84,4.55.75.75,0,1,0,1.29.76Z"/><path class="cls-3" d="M119.87,667.24a11.65,11.65,0,0,1,6.3-2,.75.75,0,0,0,0-1.5,13.17,13.17,0,0,0-7.06,2.21.78.78,0,0,0-.27,1,.76.76,0,0,0,1,.27Z"/><path class="cls-3" d="M134.19,665.35l6.11.6a.76.76,0,0,0,.75-.75.77.77,0,0,0-.75-.75l-6.11-.6a.75.75,0,1,0,0,1.5Z"/><path class="cls-3" d="M100.81,681.65A13,13,0,0,0,98.39,689a.75.75,0,0,0,1.5,0,11.52,11.52,0,0,1,2.22-6.62.75.75,0,1,0-1.3-.76Z"/><path class="cls-3" d="M97.06,698.49a20.51,20.51,0,0,0,.44,6,.75.75,0,1,0,1.44-.4,19.5,19.5,0,0,1-.38-5.6.75.75,0,0,0-1.5,0Z"/><path class="cls-3" d="M100.05,714.88a22.83,22.83,0,0,0,3.66,6.6.75.75,0,1,0,1.06-1.06,20.53,20.53,0,0,1-3.27-5.94.78.78,0,0,0-.93-.52.75.75,0,0,0-.52.92Z"/><path class="cls-3" d="M107.79,726.38a46.17,46.17,0,0,0,4.52,5.35c.67.69,1.73-.37,1.06-1.06a43.68,43.68,0,0,1-4.28-5,.77.77,0,0,0-1-.27.75.75,0,0,0-.27,1Z"/><path class="cls-3" d="M119.4,735.75a53.69,53.69,0,0,0,7.31,3.15c.92.31,1.31-1.13.4-1.45a50.83,50.83,0,0,1-7-3c-.85-.45-1.61.85-.75,1.29Z"/><path class="cls-3" d="M136.08,739.8a23.53,23.53,0,0,1,6.26-.63c1,0,1-1.46,0-1.5a25.26,25.26,0,0,0-6.66.68c-.94.23-.54,1.67.4,1.45Z"/><path class="cls-3" d="M149.76,735.89a6.58,6.58,0,0,0,4-1.57.75.75,0,0,0,0-1.06.77.77,0,0,0-1.06,0l-.18.15c.16-.12-.05,0-.08.05s-.25.17-.38.25l-.41.22-.21.09c.18-.06,0,0-.06,0a6.5,6.5,0,0,1-.86.25l-.22,0-.12,0c.11,0,.11,0,0,0l-.46,0a.76.76,0,0,0-.75.75.77.77,0,0,0,.75.75Z"/><path class="cls-3" d="M162.4,727.24l3.42-3.57a.75.75,0,0,0,0-1.06.76.76,0,0,0-1.06,0l-3.42,3.57a.75.75,0,0,0,0,1.06.76.76,0,0,0,1.06,0Z"/><path class="cls-3" d="M170.54,712.66l.74-1.72a.66.66,0,0,0,.09-.27.61.61,0,0,0,0-.3.71.71,0,0,0-.34-.45.79.79,0,0,0-.58-.08.75.75,0,0,0-.45.35l-.73,1.71a.49.49,0,0,0-.09.28.61.61,0,0,0,0,.3.82.82,0,0,0,.35.45.73.73,0,0,0,.58.07.69.69,0,0,0,.44-.34Z"/><path class="cls-3" d="M171.08,699.57l-.91-4a.75.75,0,1,0-1.45.39l.91,4a.75.75,0,0,0,1.45-.4Z"/><path class="cls-3" d="M169.33,688.71a8.58,8.58,0,0,0-3.4-4.7.75.75,0,0,0-1,.26.76.76,0,0,0,.27,1l.27.2h0l.13.11a6.14,6.14,0,0,1,.47.42c.16.16.31.32.46.49a2.11,2.11,0,0,0,.19.23c.05.07-.06-.08,0,0a1.13,1.13,0,0,1,.1.13,8,8,0,0,1,.65,1.09l.13.27c.09.2,0-.08,0,0a.94.94,0,0,1,.06.15c.08.21.15.42.22.64a.75.75,0,1,0,1.44-.4Z"/><path class="cls-3" d="M160.19,675.8,157.35,673a.75.75,0,0,0-1.06,0,.77.77,0,0,0,0,1.06l2.83,2.82a.75.75,0,0,0,1.07-1.06Z"/><path class="cls-3" d="M151,666.91l-.52-.45a.61.61,0,0,0-.24-.15.59.59,0,0,0-.29-.07.57.57,0,0,0-.29.07.55.55,0,0,0-.24.15l-.12.15a.75.75,0,0,0-.1.38l0,.2a.7.7,0,0,0,.2.33l.52.45a.61.61,0,0,0,.24.15.64.64,0,0,0,.58,0A.61.61,0,0,0,151,668l.12-.16a.69.69,0,0,0,.1-.37l0-.2a.69.69,0,0,0-.19-.33Z"/><ellipse class="cls-4" cx="217.89" cy="727.75" rx="24.69" ry="23.63" transform="translate(-540.76 767.17) rotate(-76.31)"/><ellipse class="cls-2" cx="106.05" cy="595.98" rx="23.63" ry="24.69"/><ellipse class="cls-4" cx="851.14" cy="231.04" rx="23.63" ry="24.69"/><path class="cls-3" d="M748.23,165.68a9,9,0,0,1,1.22-2.72,9.49,9.49,0,0,1,2-2.19.76.76,0,0,0,0-1.06.75.75,0,0,0-1.06,0,10.68,10.68,0,0,0-3.63,5.57.75.75,0,0,0,1.45.4Z"/><path class="cls-3" d="M758.48,155.63a11.64,11.64,0,0,1,5.66-3.44.75.75,0,0,0-.4-1.45,13.1,13.1,0,0,0-6.32,3.83.76.76,0,0,0,0,1.06.75.75,0,0,0,1.06,0Z"/><path class="cls-3" d="M772,150.41l6.08-.86a.75.75,0,0,0,.52-.92.78.78,0,0,0-.92-.53l-6.08.87a.74.74,0,0,0-.52.92.77.77,0,0,0,.92.52Z"/><path class="cls-3" d="M743.36,174.17a13.08,13.08,0,0,0-.6,7.75c.22.94,1.66.54,1.45-.4a11.57,11.57,0,0,1,.6-7,.75.75,0,0,0-1.45-.4Z"/><path class="cls-3" d="M743.71,191.43a20.63,20.63,0,0,0,1.85,5.71.75.75,0,1,0,1.29-.76,19.39,19.39,0,0,1-1.69-5.35.75.75,0,1,0-1.45.4Z"/><path class="cls-3" d="M750.5,206.63a22.12,22.12,0,0,0,5,5.42.76.76,0,0,0,1.06,0,.75.75,0,0,0,0-1.06,21.08,21.08,0,0,1-4.73-5.11.77.77,0,0,0-1-.27.75.75,0,0,0-.27,1Z"/><path class="cls-3" d="M760.75,216a47.52,47.52,0,0,0,5.65,4.13.75.75,0,1,0,.76-1.3,43.47,43.47,0,0,1-5.35-3.89.77.77,0,0,0-1.06,0,.75.75,0,0,0,0,1.06Z"/><path class="cls-3" d="M774.25,222.32a53.52,53.52,0,0,0,7.86,1.32.76.76,0,0,0,.75-.75.78.78,0,0,0-.75-.75,51.11,51.11,0,0,1-7.47-1.26.75.75,0,0,0-.39,1.44Z"/><path class="cls-3" d="M791.41,222.29a23.42,23.42,0,0,1,5.94-2.08.75.75,0,0,0-.4-1.45,25.17,25.17,0,0,0-6.3,2.24.75.75,0,0,0-.27,1,.76.76,0,0,0,1,.27Z"/><path class="cls-3" d="M803.78,215.26a6.56,6.56,0,0,0,3.52-2.48.76.76,0,0,0-.27-1,.78.78,0,0,0-1,.27.86.86,0,0,1-.07.1c-.06.08.12-.14,0,0l-.13.17-.32.33-.34.31a.31.31,0,0,0-.09.07s.11-.09,0,0a1.33,1.33,0,0,1-.19.14,6,6,0,0,1-.77.45l-.11.05s-.16.07,0,0l-.05,0-.09,0a3.53,3.53,0,0,1-.46.15.75.75,0,0,0,.4,1.45Z"/><path class="cls-3" d="M814,203.86l2.48-4.28a.75.75,0,1,0-1.29-.76l-2.49,4.28a.75.75,0,0,0,1.3.76Z"/><path class="cls-3" d="M818.46,187.76l.31-1.84a.83.83,0,0,0-.08-.58.77.77,0,0,0-.45-.34.75.75,0,0,0-.92.52l-.31,1.84a.83.83,0,0,0,.08.58.77.77,0,0,0,.45.34.73.73,0,0,0,.92-.52Z"/><path class="cls-3" d="M815.87,174.92,814,171.23a.75.75,0,0,0-1-.27.77.77,0,0,0-.27,1l1.84,3.68a.74.74,0,0,0,1,.27.76.76,0,0,0,.27-1Z"/><path class="cls-3" d="M811.6,164.78a8.71,8.71,0,0,0-4.42-3.76.75.75,0,0,0-.92.53.77.77,0,0,0,.52.92l.17.07c-.06,0-.08,0,0,0l.31.15c.19.09.38.2.57.31l.52.34.12.09c.06.05.1.09,0,0a2.75,2.75,0,0,1,.26.22,8.5,8.5,0,0,1,.9.9l.09.13c0,.05.08.1,0,0l.18.26c.13.18.25.38.37.57a.74.74,0,0,0,1,.27.75.75,0,0,0,.27-1Z"/><path class="cls-3" d="M799.66,154.41l-3.42-2.07a.75.75,0,0,0-1,.27.76.76,0,0,0,.27,1l3.42,2.08a.75.75,0,0,0,.76-1.3Z"/><path class="cls-3" d="M788.63,147.94l-.62-.31a.66.66,0,0,0-.28-.09.74.74,0,0,0-.55.15.48.48,0,0,0-.19.21l-.08.18a.9.9,0,0,0,0,.4l.08.18a.7.7,0,0,0,.27.27l.61.31a.57.57,0,0,0,.28.08.51.51,0,0,0,.3,0,.55.55,0,0,0,.25-.13.8.8,0,0,0,.2-.21l.07-.18a.68.68,0,0,0,0-.4l-.07-.18a.87.87,0,0,0-.27-.27Z"/></g><g id="Layer_18" data-name="Layer 18"><g id="Layer_16" data-name="Layer 16"><path class="cls-5" d="M369.21,238.14c-8.55,0-15.44,5.63-21.55,11.61-11.69,11.44-15.53,29-14.19,45.31.83,10.22,3.45,20.55,1.34,30.58A33.38,33.38,0,0,1,326,342.09c-3.69,3.72-8.6,7.19-9,12.41,3.68-3.66,6.61,2.23,10.95,5.07s10.47,2,12.48,6.8c1.81,4.3,3.3,8.93,6.56,12.28,2.86,3,6.8,4.58,10.69,5.9,10.47,3.55,21.76,5.4,32.64,3.42s21.29-8.18,26.71-17.81c2.5-4.45,4.07-9.7,8.1-12.82a4.72,4.72,0,0,0,1.48-1.47c.78-1.62-.88-3.3-2.29-4.42a40.88,40.88,0,0,1-14.53-24.6c-2.38-13.65,2.32-27.74.26-41.43-1-6.72-3.63-13.1-6.65-19.19-3.45-7-7.54-13.75-13.22-19.05S377,238.12,369.21,238.14Z"/></g><g id="Layer_60" data-name="Layer 60"><path class="cls-5" d="M317.3,352.58l-.38-.89c-7.41,5.35-13.76,11.61-16.81,20.24S295.87,389.7,295,398.8a482,482,0,0,0,3.1,120.36l1.13.46c1.89.27,3.8.45,5.71.58l-.07.43"/></g><g id="Layer_17" data-name="Layer 17"><path class="cls-6" d="M340.65,775.71C331.22,709,325,647.89,319,580.74c9.05-6.11,12-11.1,19.55-19a9,9,0,0,1,3-2.3,9.62,9.62,0,0,1,3.74-.44c2.83.06,5.61-.35,8.44-.25l1.11-.14c3.42,71.59,4.09,144.55,2,216.19l-.67.25c-5.1.33-10.22.41-15.33.24"/><path class="cls-6" d="M398.64,769.52c1.19-40.79,3.48-82.11,6.59-122.8l-.05-.31c.83-12.1,1.49-23.52,2.31-35.63,1.26-18.35,2.48-37-1.7-54.94-16.17,2.51-33.36-3.14-48.77,2.37l.74.2C372.2,627.59,372,699,381.65,769a65.32,65.32,0,0,0,17,.56"/><path class="cls-7" d="M351.59,775.32a13.18,13.18,0,0,1-.3,3.34l-5.46-.27a12.28,12.28,0,0,0-.16-2.68"/><path class="cls-7" d="M351.87,815.53l1.27-29.4a65.2,65.2,0,0,0,.05-7L351.84,778a.84.84,0,0,1,1.07.35,18.32,18.32,0,0,1-8.8,0,1,1,0,0,1,.92-.28l-.68.25c-1.8,1.7-3.74,3.25-5.69,4.78-13.94,10.85-28.9,20.38-42.49,31.67a29.18,29.18,0,0,0,4.63,2.43l.32.24c5.81,1.85,12,2,18.1,2,10.25,0,22.84-.55,32.39-4.27"/><path class="cls-7" d="M391,773.18A10.31,10.31,0,0,1,391,771l-5.28-.66-.14,3.13"/><path class="cls-7" d="M391.62,773.61c2.14,14.54,10.34,28.84,12.5,43.38l-3.66,1,.27,0a48.45,48.45,0,0,1-22.05.36,4.52,4.52,0,0,1-2.44-1.12,3.93,3.93,0,0,1-.8-1.67c-.86-3.21-.36-6.62.21-9.9,1.86-10.72,4.4-21.44,9.33-31.14l.58-1.42c0,.44-.33,1.17,0,1.41s.59-.83.95-1.09c2.76-2,4,.6,5.07.18-.13-.15.12.15,0,0"/></g><g id="Layer_15" data-name="Layer 15"><path class="cls-7" d="M340.41,292c.55-9.56,1.87-17.3,5.14-25.18a19.63,19.63,0,0,1,3.39-5.89,16.57,16.57,0,0,1,6.64-4.11,39.35,39.35,0,0,1,21.57-1.18,18.4,18.4,0,0,1,6.29,2.27A15.14,15.14,0,0,1,387,261.2c5.3,6.6,6.37,15.56,7,24,.66,8.65.88,18.07-4.17,25.12-4.29,6-11.52,9-18.37,11.74a15.7,15.7,0,0,1-3.83,1.17,12.57,12.57,0,0,1-7-1.56A35.39,35.39,0,0,1,347,309c-3.43-5.29-4.32-8.64-6.12-13.57Z"/><path class="cls-8" d="M342.86,274.64c1.08-4.75,2.37-9.64,5.37-13.49s8.15-6.42,12.82-5l.35.66a18.24,18.24,0,0,1-17.72,16.94"/><path class="cls-8" d="M361.56,257.57A13.52,13.52,0,0,0,365.8,266a28.11,28.11,0,0,0,8.09,5.21c5.7,2.6,12.3,4.32,18.17,2.15-1.24-5.75-2.82-12.05-7.63-15.44a18,18,0,0,0-5.85-2.53,37,37,0,0,0-19.18.11Z"/><path class="cls-5" d="M408.77,392.78q4.94,68.64,13,137l.1.51c2.18,0,4.36-.06,6.53-.22l1.16-.38a482.12,482.12,0,0,0,11-119.9c-.32-9.14-.9-18.35-3.38-27.15s-7-17.26-14-23.08l-.85.62c-4.4,9.11-7.61,14.3-14.53,20.63-3,2.75-8,4.28-11.94,5.18a82.87,82.87,0,0,1-38.92-.61l.72.57.89,131.13c.23,33.74.46,67.55,4.38,101.06.79,6.71,2,13.93,6.76,18.69a25.33,25.33,0,0,0,9.22,5.36,66.7,66.7,0,0,0,31,3.77l1.32,0c1.66-.81,2-3,2.17-4.81l9.35-110.4"/><path class="cls-9" d="M329.54,359.57c6.09,2,11.31,5,12,10.95"/><path class="cls-10" d="M343.45,558.41c.44-6.64.54-12.1.66-18.43,1.07-56.49.21-111.94-2.08-168.4l-.47-1.06a25.93,25.93,0,0,0,16.22,14.85c-1.24,57.06-.67,115.31.63,172.37-4.69,1.77-10.36,1.23-15.34.63"/><path class="cls-7" d="M427.89,530.4c.13,1.64.21,3.29.24,4.94l-3.24-.62c-.09-1.34-.23-2.68-.41-4"/><path class="cls-7" d="M424.87,535.34a1.28,1.28,0,0,0-1,.88,3.82,3.82,0,0,0-.17,1.39,40.17,40.17,0,0,0,.82,10,6.15,6.15,0,0,0,2.21-.92l-1,.81a46,46,0,0,0-1.13,11.63.6.6,0,0,0,.14.45.67.67,0,0,0,.31.1,56.48,56.48,0,0,0,7.12.45c.61,0,1.32-.07,1.63-.59a2,2,0,0,0,.18-.86c.28-7.88.55-15.88-1.39-23.52l-4.06.24"/><path class="cls-7" d="M299.11,520.41c-.12,1.64-.21,3.29-.24,4.94l3.24-.62c.09-1.34.23-2.68.41-4"/><path class="cls-7" d="M302.13,525.35a1.31,1.31,0,0,1,1,.88,4.05,4.05,0,0,1,.17,1.39,41.18,41.18,0,0,1-.82,10,6.07,6.07,0,0,1-2.21-.92l1,.81a46,46,0,0,1,1.13,11.63.56.56,0,0,1-.14.44.64.64,0,0,1-.31.11,56.48,56.48,0,0,1-7.12.45c-.6,0-1.32-.07-1.63-.59a1.82,1.82,0,0,1-.17-.86c-.28-7.88-.55-15.88,1.38-23.52l4.06.24"/></g><path class="cls-5" d="M317.22,351.73c1.46,2.26,4.69,2.35,7.07,3.6,2.13,1.12,3.58,3.19,5.43,4.74a23.3,23.3,0,0,0,6.6,3.53c1.68.66,3.46,1.34,4.57,2.75a5,5,0,0,1,.66,5l-.09-2.22c6.65,89.69-.62,182.83,2.89,272.7l-.06.36a39.47,39.47,0,0,1-24.68-1.57A8,8,0,0,1,316,638.3a8.73,8.73,0,0,1-1.41-4.22C303.53,560.87,301.44,486.57,303,412.56"/></g><g id="Layer_14" data-name="Layer 14"><g id="Layer_12" data-name="Layer 12"><path class="cls-7" d="M685,265.13c.93,0,.3.25.63-.62a7.93,7.93,0,0,0,.68-2.93c-.07-1.87-.2-4.62-.28-6.49,0-.35.21-.08,0-.35s.1-.93-.07-.63l-.1.11c-1-.42-1.07-1.73-1.18-2.79-.41-3.8-3-7.08-6.23-9.18s-6.91-3.23-10.57-4.32c-2.65-.79-5.3-1.58-8-2.15-4.11-.85-8.33-1.18-12.39-2.27s-8.06-3.1-10.48-6.53a5.39,5.39,0,0,1-1.2-3.76l0,.5a18.79,18.79,0,0,1,1.84,15.19c-1.68,5-5.58,9.75-10.8,10.43l.21-.49c.39-.12,1.25.32-.23,1.19-.47.29-.49.56-1.1.82s-.19,1-.22,1.67c-.15,3.35-1,6.86-.13,10.11.09.37.3.44.54.74a1.93,1.93,0,0,0,1.93.86l-.54.14-.39.4c1.24,7.41,1.42,14,2.56,20.94a28.3,28.3,0,0,0,11.06,17.57,34.59,34.59,0,0,0,5.16,3.1c3.65,1.83,7.65,3.31,11.72,3a21.25,21.25,0,0,0,5.48-1.3c8.22-2.92,15.35-8.78,18.21-17a34.5,34.5,0,0,0,1.5-7.89c.62-5.8,1.49-11.82,1.69-17.65"/></g><g id="Layer_13" data-name="Layer 13"><path class="cls-9" d="M604.15,521.45a16.14,16.14,0,0,0,2.91,6.83,3.75,3.75,0,0,0,1.8,1.48c1.16.35,1.5-1.45,2.42-2.24,2.08-1.78,3.1-4,4.33-6.44"/><path class="cls-6" d="M659.59,517.36q-22.35,131.89-37.16,265l-.47,1.22a21,21,0,0,1-13.19,1.67l0-.11C596.63,696,604.7,612.29,596.67,522.55l.51-8.7c3.09-7.05,5.7-12.62,6-20.38,1.11,2.84,2.27,5.67,3.47,8.47"/><path class="cls-7" d="M618.33,785.46l-.42,4.15-4.42.6a34.47,34.47,0,0,1-.15-4.88"/><path class="cls-7" d="M688.9,784.94a42.29,42.29,0,0,0,.27,5.51l-5.29.15a41.56,41.56,0,0,0-.63-5.51"/><path class="cls-7" d="M691.91,790.34a85,85,0,0,0,7,7.73c8.5,8.72,17,17.44,25.92,25.76l.23.35c.81.79.49,1.38,0,2.13a4.27,4.27,0,0,1-2.24,1.44,91.27,91.27,0,0,1-26.23,5.6,1.44,1.44,0,0,1-1.1-.68c-6.85-8.14-7.76-19.78-13.39-28.82l0-.55a35.29,35.29,0,0,0,.08-9.24,16.35,16.35,0,0,1,0-4.25l.49-.56c-.51.07.09.11.31.57a2,2,0,0,0,1.2.89,11.58,11.58,0,0,0,5.82.07,2.52,2.52,0,0,0,1.1-.37.94.94,0,0,0,.4-1,1.08,1.08,0,0,0-.49-.52,2.1,2.1,0,0,0-1.49-.23"/><path class="cls-6" d="M645.27,517.36q21.26,131.89,35.34,265l.44,1.22a19.09,19.09,0,0,0,12.54,1.67l0-.11c11.59-89.22,3.92-172.89,11.55-262.63l-.49-8.7c-2.94-7.05-5.42-12.62-5.74-20.38-1,2.84-2.16,5.67-3.3,8.47"/><path class="cls-7" d="M610.62,790.21a93.29,93.29,0,0,1-6.26,8.39c-7.63,9.46-15.27,18.93-23.26,28l-.21.38c-.73.86-.44,1.5,0,2.32a3.83,3.83,0,0,0,2,1.55,69.73,69.73,0,0,0,23.54,6.09c.4,0,.73-.37,1-.74,6.15-8.84,7-21.48,12-31.29l0-.59a46.8,46.8,0,0,1-.07-10,20.91,20.91,0,0,0,0-4.61L619,789c.45.07-.08.12-.28.62a1.85,1.85,0,0,1-1.08,1,8.61,8.61,0,0,1-5.22.08,2.1,2.1,0,0,1-1-.41,1.12,1.12,0,0,1-.36-1.1,1.13,1.13,0,0,1,.44-.56,1.66,1.66,0,0,1,1.34-.26"/></g><g id="Layer_11" data-name="Layer 11"><path class="cls-11" d="M635.8,223.67c1.41,5,2.53,10.28,1.38,15.34s-5.12,9.82-10.29,10.33a27.88,27.88,0,0,1-4.33-20.72,17,17,0,0,1,1.49-4.59c1.57-3,4.18-5.38,6.74-7.63,3.22-2.83,5.68-3.84,8.81-5.61a48.39,48.39,0,0,1,5.4-2.12c1.74-.7,5.71-1.06,7.59-1.15,9.6-.45,17.11,3.25,24.68,9.17s12.55,15.36,12.19,25a48.55,48.55,0,0,1-1.82,10.4,5.45,5.45,0,0,1-1,2.32,1.89,1.89,0,0,1-2.3.5,18.41,18.41,0,0,0-9-13.87c-3.38-1.95-7.28-2.76-11.1-3.53l-13.75-2.79a34,34,0,0,1-7.57-2.17,11.25,11.25,0,0,1-5.63-5.29Z"/><path class="cls-11" d="M637.2,279.55a65.64,65.64,0,0,1,11.06-6.13,21.92,21.92,0,0,1,12.39-1.48,27,27,0,0,1,8.74,3.93c1.88,1.19,3.78,2.54,4.77,4.53a3.22,3.22,0,0,1-2.88.67,12.08,12.08,0,0,1-2.86-1.13,28.18,28.18,0,0,0-24.28.28,12.62,12.62,0,0,1-4,1.59,3.32,3.32,0,0,1-3.58-1.85Z"/><path class="cls-11" d="M652.38,288.14c.8,1-.13,3.34-1.16,4.09a5.88,5.88,0,0,1-3.65.83c-4.51-.11-9.2-1.79-11.91-5.4-1.94-2.6-2.67-5.89-3.06-9.11a53.66,53.66,0,0,1-.38-8.5,5.88,5.88,0,0,0-1.57-3.72c-.86-1-1.9-1-3.22-1.16h0a19.25,19.25,0,0,0,.56,5.74c.76,4.3.77,8.68,1.32,13s1.72,8.72,4.43,12.13c1.59,2,3.21,4.43,5.27,5.95a49.44,49.44,0,0,0,8.49,5.23c3,1.37,6.33,2.55,9.59,2.18a29.47,29.47,0,0,0,5.85-1.32c3.46-1.15,7-3.64,10-5.78,5.2-3.79,8-10.13,9.24-16.43s1.37-12.79,2.44-19.13l-.42-.72c-1.49.7-1.93,2.57-2.2,4.19l-1,6.17a23.92,23.92,0,0,1-1.87,6.95,15.34,15.34,0,0,1-2.47,3.51,15,15,0,0,1-8.5,5,9.14,9.14,0,0,1-8.9-3.42l-.61-.36c-2.08-.07-4.17-.05-6.25.06"/><path class="cls-7" d="M628.5,250.43a3.67,3.67,0,0,0-2,.07,1.8,1.8,0,0,0-1,.64,2.49,2.49,0,0,0-.29,1.3l-.23,7.05a8.36,8.36,0,0,0,.12,2.18c.15.68,2.22,3,3.35,3.23"/><path class="cls-7" d="M684.21,255.75c.65.18,1.48-.25,2,.22a1.24,1.24,0,0,1,.26.46c.7,2,0,4.19.25,6.28a7.94,7.94,0,0,1,.13,1.37,1.6,1.6,0,0,1-.52,1.23,2,2,0,0,1-.62.32,11.83,11.83,0,0,1-2.22.92"/><path class="cls-7" d="M628.14,255.73a1.05,1.05,0,0,0-1,.61,2.59,2.59,0,0,0-.22,1.26,7.19,7.19,0,0,0,1.5,4.51"/><path class="cls-7" d="M683.47,258.92a5.9,5.9,0,0,1,0,5.32"/><path d="M653.39,310.09l.47,4a.75.75,0,0,0,1.5,0l-.47-4a.75.75,0,0,0-1.5,0Z"/><path d="M658.06,310.36l-.34,5.1a.75.75,0,1,0,1.5,0l.34-5.1a.75.75,0,0,0-1.5,0Z"/><path class="cls-7" d="M588.65,524.16a123.57,123.57,0,0,1,.18,23.16.86.86,0,0,1-.12.44.81.81,0,0,1-.61.2c-2.23.12-3.18.31-5.41.43a3.44,3.44,0,0,1-3.11-.78,4.45,4.45,0,0,1-.79-1.9c-2.32-10-2.51-20.19-2.54-30.4a7.08,7.08,0,0,1,.16-2.73c.36-.65,2-.25,2.75-.35v-.15q1.23-51.71,2.45-103.43c.17-7.3-.34-14.49-.34-22.45h.37a8.73,8.73,0,0,0,1.76,1.57,32.53,32.53,0,0,0,19.83,4.13l-.29.66q-6.77,60.17-15.84,120h.17c.8.28,2.25.89,3.05,1.18a25.48,25.48,0,0,0,.35,7.08,3.91,3.91,0,0,1,.09,1.52,2.15,2.15,0,0,1-1.7,1.8c-.85.07-1.87-.08-2.78,0"/><path class="cls-7" d="M714.86,517.35a124.43,124.43,0,0,0-.18,23.16.83.83,0,0,0,.12.44.79.79,0,0,0,.6.21c2.22.12,3.16.31,5.37.42a3.38,3.38,0,0,0,3.09-.78,4.56,4.56,0,0,0,.78-1.9c2.3-9.95,2.49-20.18,2.51-30.4a6.91,6.91,0,0,0-.15-2.73c-.36-.64-1.93-.24-2.73-.35v-.14q-1.21-51.72-2.42-103.44c-.18-7.3.33-14.48.33-22.44h-.37a9.17,9.17,0,0,1-1.74,1.56,32.06,32.06,0,0,1-19.67,4.13l.29.67q6.7,60.15,15.7,120h-.16c-.8.29-2.23.9-3,1.18a26,26,0,0,1-.35,7.09,3.86,3.86,0,0,0-.09,1.51,2.14,2.14,0,0,0,1.68,1.8c.85.07,1.86-.07,2.76,0"/><path class="cls-5" d="M661,315.11c16.56,4,35.33,10.52,51.71,15.16,6.9,14.42,10.52,28.49,12.7,44.2a3.94,3.94,0,0,1-.1,2.13,4,4,0,0,1-1.65,1.58c-6.27,3.95-14,8.93-21.5,8.06l-2.26-29.54c.93,33.22,2.24,66.43,3.55,99.64.3,7.59,2.84,53.61,3.44,61.17-4,4-9.94,5.3-15.52,6.36-22.41,4.27-45.54,7.66-67.93,3.3a100.19,100.19,0,0,1-10.14-2.54c-6.9-2.11-13.78-5.12-18.66-10.42l-.68-.62c.48-7.57,4.3-47.88,5.08-55.43,3.43-33.06,6.85-66.12,10.65-99.14L606,391.59c-7.08.86-17.47-1.09-23.41-5a3.83,3.83,0,0,1-1.56-1.58,4.14,4.14,0,0,1-.11-2.13,169.87,169.87,0,0,1,13.39-46.67c18.92-8.09,38.8-15.3,58.39-21.6l1.81-.06c-.34-.47-1.19,0-1.15.62s.59,1,1.11,1.26a6.71,6.71,0,0,0,4,.6,1.83,1.83,0,0,0,1.5-.92c.23-.56-.4-1.35-.92-1"/></g></g><g id="Layer_20" data-name="Layer 20"><path class="cls-7" d="M470.45,394.73c-1.43-2-1.29-4.65-1.08-7.09l.48-5.83c0-.34,0-.75-.27-.92a1,1,0,0,0-.45-.07,23.55,23.55,0,0,0-11.44,3.07,1.22,1.22,0,0,0-.59.53,1.34,1.34,0,0,0,0,.84l1.17,5.45a13,13,0,0,0,1.55,4.49,1.68,1.68,0,0,0,.66.66,1.88,1.88,0,0,0,1,.12c2.82-.13,5.64-.37,8.44-.72Z"/><path class="cls-7" d="M558.36,385.3a44.5,44.5,0,0,1,.88,12.29l-3.08-4.31a.93.93,0,0,1-.25-.83,1,1,0,0,1,.44-.42l2.6-1.53Z"/><path class="cls-7" d="M514,300.1c-.49,1.2.14,1.55.11,3.17-.06,3.83-3.07,9.37-4.78,12.79-3.13-5.23-5.14-8.89-5.67-15.33,2.59-.93,1.17-.77.73.15-.68,1.4.68,2.52,2.07,3.21a6.33,6.33,0,0,0,5.59-.26c1-.66.89-.73,1.36-1.81.85-2-.26,0,.59-1.92Z"/><path class="cls-7" d="M508.79,330.19a2.11,2.11,0,0,1-1.7.11,1.63,1.63,0,0,1-.61-2.66,2.42,2.42,0,0,1,1.24-.73,1.82,1.82,0,0,1,.57-.07,1.77,1.77,0,0,1,1.69,1.53,1.78,1.78,0,0,1-1.32,1.86Z"/><path class="cls-7" d="M509.27,352.38a2,2,0,0,1-1.69.11,1.7,1.7,0,0,1-1.06-1.33,1.72,1.72,0,0,1,.45-1.33,2.39,2.39,0,0,1,1.23-.73,1.86,1.86,0,0,1,.57-.07,1.72,1.72,0,0,1,.38,3.39Z"/><path class="cls-7" d="M509.59,376.35a2,2,0,0,1-1.69.11,1.68,1.68,0,0,1-1-1.32,1.74,1.74,0,0,1,.44-1.34,2.48,2.48,0,0,1,1.24-.72,2.12,2.12,0,0,1,.57-.08,1.72,1.72,0,0,1,.37,3.39Z"/><g id="Layer_21" data-name="Layer 21"><path class="cls-12" d="M450.69,468.81c-.45-.53-1.18,0-1.16-.7a21.24,21.24,0,0,0,0,9.22,5.41,5.41,0,0,0,.61,1.7,5.8,5.8,0,0,0,1.91,1.7c5.68,3.62,12.2,5.73,18.75,7.3,32.76,7.85,68.39,3.07,97.36-14.13a7.79,7.79,0,0,0,2.66-2.95,5.94,5.94,0,0,0,.4-2.44c.07-3.05-.93-4.82-.86-7.86-1.17,2.49-2.59,2.9-4.91,4.38a25.15,25.15,0,0,1-7.19,3,262.1,262.1,0,0,1-33.6,6.92,117.38,117.38,0,0,1-13.35,1.32c-7.16.17-13.53.64-20.65-.18-13.49-1.56-27.95-1-41-7.79Z"/><path class="cls-12" d="M523.75,475.4c-7.3.33-15.05.66-22.36,1a67.38,67.38,0,0,1-13.4-.29l-.35.38a55.73,55.73,0,0,0,.37,14.25l.4.25a117.16,117.16,0,0,0,36.94-1.42l-.15-.14a58,58,0,0,0-1.45-14"/><path class="cls-7" d="M507.49,486.38a3.1,3.1,0,0,1-3.87-.67,2.53,2.53,0,0,1,.73-3.67,4.1,4.1,0,0,1,3.16-.07,2.45,2.45,0,0,1,1.17,2.57,3,3,0,0,1-1.89,2.17Z"/><path d="M449.56,468.57a5.31,5.31,0,0,0,.9-1.89.37.37,0,1,0-.72-.2,15,15,0,0,1-.75,2.26.39.39,0,0,0,.14.52.38.38,0,0,0,.51-.14,15.21,15.21,0,0,0,.82-2.44l-.72-.2a2.75,2.75,0,0,1-.13.47,4.18,4.18,0,0,1-.18.39,9.1,9.1,0,0,1-.51.85.37.37,0,0,0,.13.51.38.38,0,0,0,.51-.13Z"/><path class="cls-13" d="M496.7,476.79A34.31,34.31,0,0,0,498,491.92"/><path d="M496,476.79a35.38,35.38,0,0,0,1.33,15.33c.29.91,1.74.52,1.45-.4a34.46,34.46,0,0,1-1.28-14.93c.12-1-1.38-.94-1.5,0Z"/><path class="cls-13" d="M514,476.07a32.85,32.85,0,0,1,1.19,14.87"/><path d="M513.3,476.27a32.52,32.52,0,0,1,1.19,14.47c-.14.94,1.3,1.35,1.44.4a34.32,34.32,0,0,0-1.18-15.27c-.29-.92-1.74-.53-1.45.4Z"/><path d="M552,807a38.69,38.69,0,0,0,12.69-.78c.94-.22.54-1.67-.4-1.45a37.34,37.34,0,0,1-12.29.73c-1-.1-1,1.4,0,1.5Z"/><path d="M505.88,531.11a48.92,48.92,0,0,0,12.21-.14.75.75,0,0,0,.52-.92.77.77,0,0,0-.92-.52,48.12,48.12,0,0,1-11.81.08c-1-.12-.95,1.38,0,1.5Z"/><path class="cls-6" d="M511.15,529.93,485.27,687.18l-4.85,29.48c-4.84,29.43-9.69,58.92-17.28,87.77l-1,.62c-3.78,1.49-7.14,1.46-11.14.73h0c-.54-34.89-1.07-69.78-2.53-104.65-3.08-74-10.26-148.47.14-221.79l.62-1.25a67,67,0,0,0,8.39,4.93c10.94,5.61,23.35,7.85,35.63,8.2s24.54-1.13,36.74-2.6A53.27,53.27,0,0,0,540.06,486a94.62,94.62,0,0,0,9.6-3.47c7.39-3.31,15.75-5.33,21.32-11.21l.26-2.32c8.47,75.64,1,152.6-2.62,228.79-1.68,35.91-2.55,71.85-3.41,107.79l-15.1,1.13q-17.73-122.1-45-242.55"/><path class="cls-7" d="M459.46,806.09c.07,1.92.06,3.49.22,6.46l-5.71.15c-.19-2.81-.28-4.59-.57-6.34"/><path class="cls-7" d="M462.37,811.3V844l0,.37a21.07,21.07,0,0,1-7,1.84c-21.66,3.08-43.48,6.17-65.34,5.2l-.78-.39a68.09,68.09,0,0,1-7.25-2.35h0q35.34-18.51,70.43-37.38v-.12c-.45.07.94-.57-.28-.12-.21.08-.47.09-.57.29s0,.5.22.68a4.73,4.73,0,0,0,3.15,1,12.27,12.27,0,0,0,6-.56c.43-.19.88-.49,1-1a1.12,1.12,0,0,0-.85-1.16,3.18,3.18,0,0,0-1.56.06"/><path class="cls-7" d="M562.13,807.16a42.49,42.49,0,0,1,.09,5.17l-6.38-.15a16.3,16.3,0,0,0-.43-4.72"/><path class="cls-7" d="M553.45,811.3V844l0,.37a20.62,20.62,0,0,0,6.94,1.84c21.47,3.08,43.08,6.17,64.74,5.2l.77-.39a67.07,67.07,0,0,0,7.19-2.35h0q-35-18.51-69.78-37.38v-.12c.44.07-.17-.18.27-.12.22,0,.47.09.57.29a.64.64,0,0,1-.22.68,4.65,4.65,0,0,1-3.12,1,12.07,12.07,0,0,1-5.92-.56c-.42-.19-.87-.49-1-1a1.12,1.12,0,0,1,.85-1.16,3.1,3.1,0,0,1,1.54.06"/><g id="Layer_2" data-name="Layer 2"><g id="Layer_14-2" data-name="Layer 14"><path class="cls-7" d="M449.13,486.58a21.39,21.39,0,0,0,7.82,5.09c18.64,8,39.77,7.58,60,5.62,19.66-1.88,39.78-5.33,56.6-15.64l.43-.27a19.19,19.19,0,0,0-.27-10.25l-.27-.54a22.25,22.25,0,0,1-8.28,4.27C535,485,502.3,485.73,470.63,482.31c-7.48-.82-15.26-2-21.4-6.34l-.37.55a18.92,18.92,0,0,0-.18,10.65"/><path class="cls-7" d="M459.73,825.48A20.27,20.27,0,0,0,460,829l-.7.37c-1.44.21-2.9.38-4.37.49l-1,.08c-.14-.73-.34-2.48-.38-3.21"/><path class="cls-7" d="M564.44,827.18c.12,1.41.48,3.56.6,4.91V833c-1.71,1.41-4.53,1.18-6.44.07v-.92l-.19-3.85"/><path class="cls-7" d="M634.7,872.64a423.09,423.09,0,0,1-74.79-3.55L559.8,868A332.75,332.75,0,0,1,558,833.54l.16-.43c-.44.06,0,.48.2.86a1.81,1.81,0,0,0,1.07.7,7.76,7.76,0,0,0,6-.74,1.56,1.56,0,0,0,.82-.89c.09-.4-.27-.91-.67-.79l1.41.88a26.85,26.85,0,0,0,6.36,4.45c18.4,10.21,38.61,16.69,58.54,23.47a69.23,69.23,0,0,1,13,5.49l-.63.85c-2.46,1.48-7.43,3.77-9.86,5.29"/><path class="cls-7" d="M522.71,495.86a72.08,72.08,0,0,0-.2-12.38l-23.17,1.06a52.45,52.45,0,0,0,0,13.13"/><path class="cls-7" d="M508.9,491.22a27,27,0,0,0,5.75-.32"/><path class="cls-6" d="M510.69,573.72c8.92,71.11,22.63,138.26,36.69,208.53l8.92,44.39.31.54a10.37,10.37,0,0,0,7.78,0l.9-.4q10.08-101.4,14.93-203.22c2.27-47.64,3.62-95.87-6.77-142.49l-1.35,1.32c-15.3,8.88-33.15,12.14-50.77,14-12.45,1.33-25,2-37.5.73s-24.85-4.59-35.67-10.89l.6,2.08c-4.24,35-8.5,70.08-8.72,105.34-.1,14.56.49,29.12,1.18,43.67,2.82,64.68,4.74,124,9.27,188.59l.5.41c3.16,1.18,9.88-.59,12.91-2Q485.38,683,517.4,543.54l2.52-1.19-5.92.59"/><path class="cls-7" d="M389.89,878.4A422.66,422.66,0,0,0,463.56,865v-1.11a334.1,334.1,0,0,0-2.76-34.33l-.21-.4c.45,0,.08.45-.09.86a1.75,1.75,0,0,1-1,.83,7.69,7.69,0,0,1-6.06.07,1.6,1.6,0,0,1-.94-.77c-.14-.39.15-.93.56-.87l-1.28,1a26.52,26.52,0,0,1-5.7,5.24c-17,12.59-36.16,21.6-55,31a69.63,69.63,0,0,0-12.26,7.16l.74.77c2.64,1.18,7.87,2.74,10.47,3.95"/><path class="cls-7" d="M508.18,296l.72,8.56"/><path class="cls-7" d="M514.45,296.56c-.12,1.79-.55,5.72-.66,7.52"/><path d="M514.74,301.22h-.09l.13.07a2.62,2.62,0,0,1,.22.25s.13.16,0,.08h0c-.07.1-.2.37-.31.52a3.39,3.39,0,0,1-2.44,1.19,5.94,5.94,0,0,1-3,0,4.47,4.47,0,0,1-1.18-.8,1.66,1.66,0,0,1-.44-.51v-.19l-.12.08c1.19-.06,1.19-1.84,0-1.78a1.71,1.71,0,0,0-1.58,1.16,2.33,2.33,0,0,0,.7,2.06,5.33,5.33,0,0,0,3.72,1.79,16.06,16.06,0,0,0,1.95-.18,9.41,9.41,0,0,0,2.09-.46,3.63,3.63,0,0,0,1.54-1.08,3.06,3.06,0,0,0,.92-1.75c.07-1.19-1.34-2.62-2.57-2.22a.89.89,0,1,0,.48,1.72Z"/><path class="cls-7" d="M538,261.92c-1.52-3.73-.51-6.3,0-10.28a42.41,42.41,0,0,0-2.62-20.56,12.71,12.71,0,0,0-1.76-3.34,14.73,14.73,0,0,0-2.62-2.43,24.29,24.29,0,0,0-4.9-3.32,25.48,25.48,0,0,0-8-1.79l-8.77-1v-.7a17.35,17.35,0,0,1-3.39,2,35.44,35.44,0,0,1-6.47,1.94l-14.33,3.32a1.75,1.75,0,0,0-1.66,1.58c-2.89,11.5-9.18,8.94-.27,35.39.49,1.44-.65,3-.28,4.48l.11.38c4.47,11.17,12.15,21.53,22.9,27a13.6,13.6,0,0,0,4.15,1.46,11.68,11.68,0,0,0,4.91-.58A26.62,26.62,0,0,0,528,285.61a71.54,71.54,0,0,0,7.77-14.54c1.19-2.67,2.48-6.22,2.3-9.15"/><path class="cls-8" d="M483,234.09a10.15,10.15,0,0,0-2.27,4,15.1,15.1,0,0,0-.79,5.29c0,3.36,1.27,3.86,1.44,6.89.22,4.19.8,6.4,1,10.59-2.37-8.4-14.48-18.25-13.36-26.91s5-17.19,11.59-22.88a41.15,41.15,0,0,1,6-4.2,55.91,55.91,0,0,1,22.11-7.7,39.42,39.42,0,0,1,22.87,4.15c4.08,2.21,8,5.84,8.14,10.48l.56.3a25.83,25.83,0,0,1,6.4,11.72c1.06,4.4-3.48,10.77-3.61,15.3-.13,5-2.46,10.48-3.29,15.39-.32,1.92-.16,2.5-1.43,3.24,0,.21-1.71.43-2.07-.58a18,18,0,0,1-.63-6.69c0-1.18,1.48-8.28.44-8.9-3.69-2.09-1.78-7.25-.23-13.28l-.47.44a57.27,57.27,0,0,1-26.94,11.15,2.62,2.62,0,0,1-1.94-.24,21.59,21.59,0,0,0,5-8.49l-.45-.06a106.73,106.73,0,0,1-30.93,9.67,75.17,75.17,0,0,1,2.83-8.68"/><path d="M479.58,506.26Q468,477.85,458.93,448.59q-2.56-8.28-4.93-16.66a.89.89,0,0,0-1.7.47q8.28,29.49,19.19,58.17,3.09,8.13,6.39,16.17C478.3,507.78,480,507.33,479.58,506.26Z"/><path d="M583,477.65c1.51,6.51,4.41,12.64,5.41,19.27.17,1.13,1.88.65,1.72-.47-1-6.63-3.91-12.76-5.42-19.27C584.47,476.07,582.76,476.54,583,477.65Z"/><path class="cls-10" d="M559.85,512a374.26,374.26,0,0,0,23.41-34.11l6,19.81c-15,13.39-44.31,21.57-63,14.3a1582.14,1582.14,0,0,1-7.88-210.81c14.65,5.4,27.51,10.65,42.17,16,4.33,1.59,17,4.47,21.31,6.07"/><path class="cls-10" d="M451.81,509.13a141.26,141.26,0,0,1-11.74-15.07L439,492.2c-.14,4.83-.43,9.67-.85,14.49,15.86,5.92,39.71,7.8,56.6,8.71,4.93.26,10.26.43,14.37-2.31v-.33C508.05,443,507,370.9,505.81,301.17c-21.59,8.94-51.69,17.87-74,24.86"/><path class="cls-10" d="M505.3,302q-36.09,13.14-73,23.81l-.4.1c-7.51,44.39-17,72-18.49,117,13.41,32.66,26.66,52.56,46.53,75.9,7.1.78,14-6.9,18.83-12.41v-1.18a584.29,584.29,0,0,1-26.45-67.47"/><path class="cls-10" d="M518.35,300.71q36.09,13.11,73,23.81l.41.09c7.51,44.41,17,72,18.49,117-13.42,32.64-26.65,52.59-46.54,75.89-7,.78-14-6.9-18.82-12.4v-1.19a586.67,586.67,0,0,0,26.45-67.46"/><path class="cls-12" d="M493.06,534.24h-1.69l-.31-.06c-3.25,3.2-7.94,7.72-11.19,10.92H464.48v3.83l.43.43h18.41l.54-.53c2.36-2.37,5.65-6.72,8-9.06l.4-.21h1.28"/><path class="cls-12" d="M537.16,539.35h1.27c2.7,2.69,7,6.78,9.72,9.46l.5.32h16.19l.64-.21c0-1.06-.21-3-.21-4H551c-3.39-3.41-7.4-7.29-10.79-10.65l-.49-.37h-2.55"/><path d="M535.4,531.2v10.44a.89.89,0,1,0,1.78,0V531.2a.89.89,0,0,0-1.78,0Z"/><path class="cls-12" d="M536.3,541.9H493.49c0-3.11.21-7.73.21-10.85h42.62"/><path class="cls-12" d="M599.77,550.64c.9,1.18,5.35,15.21,5.75,16.65,0,31.73.26,77.19.26,108.9-1.32,2.73-4,7.37-6.66,8.8-55.71,0-114.21.43-169.94.43a54.63,54.63,0,0,1-6.39-8.29c0-33.43-1.06-76.24-1.06-109.67.51-1.55,3.4-15.24,3.91-16.8l.56-.66H599.12"/><path class="cls-12" d="M607.83,570.16c-2.2-5.53-5.4-14.8-8-20.13-57.42,0-117.25,1.19-174.67,1.19-1.58,7.1-2.44,12-4.5,19,0,10.65-.93,25.3-.93,36,7.1,6.76,16.64,10.09,26,12.69a262.16,262.16,0,0,0,137.59.44c8.13-2.2,17.6-5.61,23.82-11.27C607.22,596.72,607.83,581.44,607.83,570.16Z"/><path class="cls-7" d="M500.45,621.56v17.89h26.67V621.87c-8.65-.26-18-.38-26.67-.31"/><path class="cls-7" d="M477,516.29a6.15,6.15,0,0,1,.26,1.6h.58c2.65-.79,5.32-1.56,8-2.29a1.27,1.27,0,0,1,.9,0,1.31,1.31,0,0,1,.46.53,28.08,28.08,0,0,1,3.46,10l-.37.68a18.49,18.49,0,0,1-4.09.92l-.31-.61c0-.24.31.67,0-.24v.24a91.6,91.6,0,0,0,2.9,11.05A5.22,5.22,0,0,0,490,540.4a1.83,1.83,0,0,0,2.29.26,1.54,1.54,0,0,1-.2,2.18l0,0a4.46,4.46,0,0,1-2.31.85l-15,2.59a7.11,7.11,0,0,1-3.55,0c-1.18-.37-2.24-1-2-2.17l-.12-.46c-1.35-7.66-2.75-14.15-4.1-21.74a.7.7,0,0,1,.49-.78c2.61-.65,5.24-1.18,7.89-1.64l.29-.36a5.13,5.13,0,0,0-.34-1.68"/><path class="cls-7" d="M551.41,516.29a5.75,5.75,0,0,0-.25,1.6h-.59c-2.66-.79-5.32-1.56-8-2.29a1.33,1.33,0,0,0-.88,0,1.13,1.13,0,0,0-.46.53,27.87,27.87,0,0,0-3.45,10l.37.68a18.49,18.49,0,0,0,4.09.92l.31-.61c0-.24-.31.67,0-.24v.24a89.78,89.78,0,0,1-2.9,11.05,5.22,5.22,0,0,1-1.18,2.18,1.83,1.83,0,0,1-2.29.26,1.57,1.57,0,0,0,.21,2.2h0a4.48,4.48,0,0,0,2.36.85l15,2.59a7.11,7.11,0,0,0,3.55,0c1.18-.37,2.25-1,2-2.17l.12-.46c1.35-7.66,2.75-14.15,4.1-21.74a.69.69,0,0,0-.49-.78c-2.6-.65-5.24-1.18-7.89-1.64l-.29-.36a5.39,5.39,0,0,1,.33-1.68"/><path class="cls-14" d="M498.71,313.94a29.49,29.49,0,0,1-6.4-3.73c2.92-3.55,8.28-7,12.44-9l3.24-.47a876.84,876.84,0,0,1-.07,132.86h-1.18c.29-37.5-7.85-76.83-18.19-112.87v-.15a26.27,26.27,0,0,1,9.3-6.23"/><path class="cls-14" d="M525.79,313.56a29.55,29.55,0,0,0,6.28-4c-3.06-3.45-8.59-6.67-12.78-8.58l-3.25-.36a875.1,875.1,0,0,0,5,132.78h1.18c-1.67-37.46,5-77.06,14-113.47v-.14a25.87,25.87,0,0,0-9.47-5.92"/><path class="cls-7" d="M473.5,518.16l-1.68-3.81v-.51a9.4,9.4,0,0,1,2.5-2.37l.55-.32a26.44,26.44,0,0,1,2.06,5.2"/><path class="cls-7" d="M551.41,516.71l1.05-3.19.27-.13a11.12,11.12,0,0,1,2.87,1.88l.43.56-.82,2.36"/></g></g></g></g></svg>