<svg xmlns="http://www.w3.org/2000/svg" viewBox="0 0 1000 1000"><defs><style>.cls-1{fill:#f1f5fc;}.cls-2{fill:#e6eefb;}.cls-3{fill:#f4f4f4;}.cls-4,.cls-7{fill:#fff;}.cls-4{stroke:#f4f4f4;}.cls-10,.cls-11,.cls-12,.cls-13,.cls-14,.cls-4,.cls-5,.cls-6,.cls-7,.cls-8,.cls-9{stroke-miterlimit:10;}.cls-5{fill:#d8e7fa;}.cls-10,.cls-11,.cls-12,.cls-13,.cls-14,.cls-5,.cls-6,.cls-7,.cls-8,.cls-9{stroke:#000;}.cls-6{fill:#2d388e;}.cls-8{fill:#1c6685;}.cls-9{fill:#f5f6f9;}.cls-10{fill:#a6c9f5;}.cls-11{fill:#ffbe21;}.cls-12{fill:#97b9dd;}.cls-13{fill:#e96181;}.cls-14{fill:#ce5978;}</style></defs><g id="Layer_36" data-name="Layer 36"><path class="cls-1" d="M891.26,516.65c50,24.67,83.39,79.68,82.22,135.4-.39,18.68-4.48,37.55-13.93,53.67-13.5,23-36.64,38.57-59.94,51.54-27.9,15.53-58,28.73-89.89,30.6-14.89.87-29.79-.76-44.7-1.38-30.18-1.24-61.63,2-87.69,17.32-17.43,10.23-31.87,25.49-50.51,33.3-25,10.48-54.17,5.84-79-5.09-25.49-11.22-49.56-31.08-55.38-58.32-4.08-19.09,1.5-39.28,11.55-56s24.29-30.52,38.8-43.59c12.82-11.54,26-22.73,40.48-32.15,42.23-27.54,92.78-38.75,138.88-59.15a373.07,373.07,0,0,0,86.33-53.31c10.07-8.31,20-17.35,32.33-21.76a50.35,50.35,0,0,1,49.63,9.72"/><path class="cls-1" d="M259.28,593.37c-16.65,2.66-33.44,3.83-50,.85-54.63-9.85-107.41-36.68-141.7-80.33s-47.66-105-27.64-156.77c13.79-35.64,42-64.57,75.15-83.65s70.88-28.91,108.81-33.58c28.45-3.51,57.31-4.24,85.36-10.22a233.07,233.07,0,0,0,93.27-43.15c22-17,41-37.9,64.33-53,40.58-26.34,93-32.9,139.32-18.93s85.94,47.82,108.46,90.62c8.76,16.64,15.1,34.83,16,53.6,1.65,33.25-13.73,65.18-33.45,92-42.23,57.45-104,97.06-165.6,132.91C442.3,535.62,361.29,577.1,259.28,593.37Z"/><path class="cls-2" d="M407.75,278.84c40.45,5.21,80.63,13.59,121.4,14.59,49.77,1.22,99.1-8.59,148.77-12s102,.42,144.65,26.16a155.93,155.93,0,0,1,54.88,56.52c35.64,63.1,22.89,143.07-6,209.55-17.3,39.87-40.68,78.24-74.74,105.23C773,697.72,745,710.35,716.05,719.3c-79.47,24.62-165.22,22.2-247.08,7.35-71.19-12.91-142.28-35.85-199.37-80.3s-98.51-113.14-96.89-185.48c.65-28.75,7.88-56.92,15.94-84.53,4.4-15.11,9.17-30.35,17.61-43.64,15.09-23.76,40.66-39.12,67.17-48.57A225,225,0,0,1,410.71,280"/><path class="cls-2" d="M211.16,210.77c-18.09-2.61-31.94-20.3-32.62-38.57s10.3-35.82,25.71-45.64S238.86,114,257,116.27c33.74,4.17,64.88,25.59,80.85,55.6,3.22,6,5.89,12.58,6.15,19.43s-2.22,14.08-7.7,18.19c-5,3.76-11.59,4.43-17.82,5-35.84,3.1-72.53,6.14-107.32-3.05Z"/><path class="cls-3" d="M107.53,674.58c.13-.23.26-.46.41-.68a3.62,3.62,0,0,1,.22-.32l.1-.15s.15-.18.06-.07a10.27,10.27,0,0,1,1-1.14c.18-.17.37-.33.57-.49,0,0,.18-.14.07-.06l.14-.1.33-.23a9.64,9.64,0,0,1,1.37-.77.76.76,0,0,0,.27-1,.79.79,0,0,0-1-.27,10.76,10.76,0,0,0-4.84,4.55.75.75,0,1,0,1.29.76Z"/><path class="cls-3" d="M119.87,667.24a11.65,11.65,0,0,1,6.3-2,.75.75,0,0,0,0-1.5,13.17,13.17,0,0,0-7.06,2.21.78.78,0,0,0-.27,1,.76.76,0,0,0,1,.27Z"/><path class="cls-3" d="M134.19,665.35l6.11.6a.76.76,0,0,0,.75-.75.77.77,0,0,0-.75-.75l-6.11-.6a.75.75,0,1,0,0,1.5Z"/><path class="cls-3" d="M100.81,681.65A13,13,0,0,0,98.39,689a.75.75,0,0,0,1.5,0,11.52,11.52,0,0,1,2.22-6.62.75.75,0,1,0-1.3-.76Z"/><path class="cls-3" d="M97.06,698.49a20.51,20.51,0,0,0,.44,6,.75.75,0,1,0,1.44-.4,19.5,19.5,0,0,1-.38-5.6.75.75,0,0,0-1.5,0Z"/><path class="cls-3" d="M100.05,714.88a22.83,22.83,0,0,0,3.66,6.6.75.75,0,1,0,1.06-1.06,20.53,20.53,0,0,1-3.27-5.94.78.78,0,0,0-.93-.52.75.75,0,0,0-.52.92Z"/><path class="cls-3" d="M107.79,726.38a46.17,46.17,0,0,0,4.52,5.35c.67.69,1.73-.37,1.06-1.06a43.68,43.68,0,0,1-4.28-5,.77.77,0,0,0-1-.27.75.75,0,0,0-.27,1Z"/><path class="cls-3" d="M119.4,735.75a53.69,53.69,0,0,0,7.31,3.15c.92.31,1.31-1.13.4-1.45a50.83,50.83,0,0,1-7-3c-.85-.45-1.61.85-.75,1.29Z"/><path class="cls-3" d="M136.08,739.8a23.53,23.53,0,0,1,6.26-.63c1,0,1-1.46,0-1.5a25.26,25.26,0,0,0-6.66.68c-.94.23-.54,1.67.4,1.45Z"/><path class="cls-3" d="M149.76,735.89a6.58,6.58,0,0,0,4-1.57.75.75,0,0,0,0-1.06.77.77,0,0,0-1.06,0l-.18.15c.16-.12-.05,0-.08.05s-.25.17-.38.25l-.41.22-.21.09c.18-.06,0,0-.06,0a6.5,6.5,0,0,1-.86.25l-.22,0-.12,0c.11,0,.11,0,0,0l-.46,0a.76.76,0,0,0-.75.75.77.77,0,0,0,.75.75Z"/><path class="cls-3" d="M162.4,727.24l3.42-3.57a.75.75,0,0,0,0-1.06.76.76,0,0,0-1.06,0l-3.42,3.57a.75.75,0,0,0,0,1.06.76.76,0,0,0,1.06,0Z"/><path class="cls-3" d="M170.54,712.66l.74-1.72a.66.66,0,0,0,.09-.27.61.61,0,0,0,0-.3.71.71,0,0,0-.34-.45.79.79,0,0,0-.58-.08.75.75,0,0,0-.45.35l-.73,1.71a.49.49,0,0,0-.09.28.61.61,0,0,0,0,.3.82.82,0,0,0,.35.45.73.73,0,0,0,.58.07.69.69,0,0,0,.44-.34Z"/><path class="cls-3" d="M171.08,699.57l-.91-4a.75.75,0,1,0-1.45.39l.91,4a.75.75,0,0,0,1.45-.4Z"/><path class="cls-3" d="M169.33,688.71a8.58,8.58,0,0,0-3.4-4.7.75.75,0,0,0-1,.26.76.76,0,0,0,.27,1l.27.2h0l.13.11a6.14,6.14,0,0,1,.47.42c.16.16.31.32.46.49a2.11,2.11,0,0,0,.19.23c.05.07-.06-.08,0,0a1.13,1.13,0,0,1,.1.13,8,8,0,0,1,.65,1.09l.13.27c.09.2,0-.08,0,0a.94.94,0,0,1,.06.15c.08.21.15.42.22.64a.75.75,0,1,0,1.44-.4Z"/><path class="cls-3" d="M160.19,675.8,157.35,673a.75.75,0,0,0-1.06,0,.77.77,0,0,0,0,1.06l2.83,2.82a.75.75,0,0,0,1.07-1.06Z"/><path class="cls-3" d="M151,666.91l-.52-.45a.61.61,0,0,0-.24-.15.59.59,0,0,0-.29-.07.57.57,0,0,0-.29.07.55.55,0,0,0-.24.15l-.12.15a.75.75,0,0,0-.1.38l0,.2a.7.7,0,0,0,.2.33l.52.45a.61.61,0,0,0,.24.15.64.64,0,0,0,.58,0A.61.61,0,0,0,151,668l.12-.16a.69.69,0,0,0,.1-.37l0-.2a.69.69,0,0,0-.19-.33Z"/><ellipse class="cls-4" cx="217.89" cy="727.75" rx="24.69" ry="23.63" transform="translate(-540.76 767.17) rotate(-76.31)"/><ellipse class="cls-2" cx="106.05" cy="595.98" rx="23.63" ry="24.69"/><ellipse class="cls-4" cx="851.14" cy="231.04" rx="23.63" ry="24.69"/><path class="cls-3" d="M748.23,165.68a9,9,0,0,1,1.22-2.72,9.49,9.49,0,0,1,2-2.19.76.76,0,0,0,0-1.06.75.75,0,0,0-1.06,0,10.68,10.68,0,0,0-3.63,5.57.75.75,0,0,0,1.45.4Z"/><path class="cls-3" d="M758.48,155.63a11.64,11.64,0,0,1,5.66-3.44.75.75,0,0,0-.4-1.45,13.1,13.1,0,0,0-6.32,3.83.76.76,0,0,0,0,1.06.75.75,0,0,0,1.06,0Z"/><path class="cls-3" d="M772,150.41l6.08-.86a.75.75,0,0,0,.52-.92.78.78,0,0,0-.92-.53l-6.08.87a.74.74,0,0,0-.52.92.77.77,0,0,0,.92.52Z"/><path class="cls-3" d="M743.36,174.17a13.08,13.08,0,0,0-.6,7.75c.22.94,1.66.54,1.45-.4a11.57,11.57,0,0,1,.6-7,.75.75,0,0,0-1.45-.4Z"/><path class="cls-3" d="M743.71,191.43a20.63,20.63,0,0,0,1.85,5.71.75.75,0,1,0,1.29-.76,19.39,19.39,0,0,1-1.69-5.35.75.75,0,1,0-1.45.4Z"/><path class="cls-3" d="M750.5,206.63a22.12,22.12,0,0,0,5,5.42.76.76,0,0,0,1.06,0,.75.75,0,0,0,0-1.06,21.08,21.08,0,0,1-4.73-5.11.77.77,0,0,0-1-.27.75.75,0,0,0-.27,1Z"/><path class="cls-3" d="M760.75,216a47.52,47.52,0,0,0,5.65,4.13.75.75,0,1,0,.76-1.3,43.47,43.47,0,0,1-5.35-3.89.77.77,0,0,0-1.06,0,.75.75,0,0,0,0,1.06Z"/><path class="cls-3" d="M774.25,222.32a53.52,53.52,0,0,0,7.86,1.32.76.76,0,0,0,.75-.75.78.78,0,0,0-.75-.75,51.11,51.11,0,0,1-7.47-1.26.75.75,0,0,0-.39,1.44Z"/><path class="cls-3" d="M791.41,222.29a23.42,23.42,0,0,1,5.94-2.08.75.75,0,0,0-.4-1.45,25.17,25.17,0,0,0-6.3,2.24.75.75,0,0,0-.27,1,.76.76,0,0,0,1,.27Z"/><path class="cls-3" d="M803.78,215.26a6.56,6.56,0,0,0,3.52-2.48.76.76,0,0,0-.27-1,.78.78,0,0,0-1,.27.86.86,0,0,1-.07.1c-.06.08.12-.14,0,0l-.13.17-.32.33-.34.31a.31.31,0,0,0-.09.07s.11-.09,0,0a1.33,1.33,0,0,1-.19.14,6,6,0,0,1-.77.45l-.11.05s-.16.07,0,0l-.05,0-.09,0a3.53,3.53,0,0,1-.46.15.75.75,0,0,0,.4,1.45Z"/><path class="cls-3" d="M814,203.86l2.48-4.28a.75.75,0,1,0-1.29-.76l-2.49,4.28a.75.75,0,0,0,1.3.76Z"/><path class="cls-3" d="M818.46,187.76l.31-1.84a.83.83,0,0,0-.08-.58.77.77,0,0,0-.45-.34.75.75,0,0,0-.92.52l-.31,1.84a.83.83,0,0,0,.08.58.77.77,0,0,0,.45.34.73.73,0,0,0,.92-.52Z"/><path class="cls-3" d="M815.87,174.92,814,171.23a.75.75,0,0,0-1-.27.77.77,0,0,0-.27,1l1.84,3.68a.74.74,0,0,0,1,.27.76.76,0,0,0,.27-1Z"/><path class="cls-3" d="M811.6,164.78a8.71,8.71,0,0,0-4.42-3.76.75.75,0,0,0-.92.53.77.77,0,0,0,.52.92l.17.07c-.06,0-.08,0,0,0l.31.15c.19.09.38.2.57.31l.52.34.12.09c.06.05.1.09,0,0a2.75,2.75,0,0,1,.26.22,8.5,8.5,0,0,1,.9.9l.09.13c0,.05.08.1,0,0l.18.26c.13.18.25.38.37.57a.74.74,0,0,0,1,.27.75.75,0,0,0,.27-1Z"/><path class="cls-3" d="M799.66,154.41l-3.42-2.07a.75.75,0,0,0-1,.27.76.76,0,0,0,.27,1l3.42,2.08a.75.75,0,0,0,.76-1.3Z"/><path class="cls-3" d="M788.63,147.94l-.62-.31a.66.66,0,0,0-.28-.09.74.74,0,0,0-.55.15.48.48,0,0,0-.19.21l-.08.18a.9.9,0,0,0,0,.4l.08.18a.7.7,0,0,0,.27.27l.61.31a.57.57,0,0,0,.28.08.51.51,0,0,0,.3,0,.55.55,0,0,0,.25-.13.8.8,0,0,0,.2-.21l.07-.18a.68.68,0,0,0,0-.4l-.07-.18a.87.87,0,0,0-.27-.27Z"/></g><g id="Layer_18" data-name="Layer 18"><g id="Layer_16" data-name="Layer 16"><path class="cls-5" d="M369.21,238.14c-8.55,0-15.44,5.63-21.55,11.61-11.69,11.44-15.53,29-14.19,45.31.83,10.22,3.45,20.55,1.34,30.58A33.38,33.38,0,0,1,326,342.09c-3.69,3.72-8.6,7.19-9,12.41,3.68-3.66,6.61,2.23,10.95,5.07s10.47,2,12.48,6.8c1.81,4.3,3.3,8.93,6.56,12.28,2.86,3,6.8,4.58,10.69,5.9,10.47,3.55,21.76,5.4,32.64,3.42s21.29-8.18,26.71-17.81c2.5-4.45,4.07-9.7,8.1-12.82a4.72,4.72,0,0,0,1.48-1.47c.78-1.62-.88-3.3-2.29-4.42a40.88,40.88,0,0,1-14.53-24.6c-2.38-13.65,2.32-27.74.26-41.43-1-6.72-3.63-13.1-6.65-19.19-3.45-7-7.54-13.75-13.22-19.05S377,238.12,369.21,238.14Z"/></g><g id="Layer_60" data-name="Layer 60"><path class="cls-5" d="M317.3,352.58l-.38-.89c-7.41,5.35-13.76,11.61-16.81,20.24S295.87,389.7,295,398.8a482,482,0,0,0,3.1,120.36l1.13.46c1.89.27,3.8.45,5.71.58l-.07.43"/></g><g id="Layer_17" data-name="Layer 17"><path class="cls-6" d="M340.65,775.71C331.22,709,325,647.89,319,580.74c9.05-6.11,12-11.1,19.55-19a9,9,0,0,1,3-2.3,9.62,9.62,0,0,1,3.74-.44c2.83.06,5.61-.35,8.44-.25l1.11-.14c3.42,71.59,4.09,144.55,2,216.19l-.67.25c-5.1.33-10.22.41-15.33.24"/><path class="cls-6" d="M398.64,769.52c1.19-40.79,3.48-82.11,6.59-122.8l-.05-.31c.83-12.1,1.49-23.52,2.31-35.63,1.26-18.35,2.48-37-1.7-54.94-16.17,2.51-33.36-3.14-48.77,2.37l.74.2C372.2,627.59,372,699,381.65,769a65.32,65.32,0,0,0,17,.56"/><path class="cls-7" d="M351.59,775.32a13.18,13.18,0,0,1-.3,3.34l-5.46-.27a12.28,12.28,0,0,0-.16-2.68"/><path class="cls-7" d="M351.87,815.53l1.27-29.4a65.2,65.2,0,0,0,.05-7L351.84,778a.84.84,0,0,1,1.07.35,18.32,18.32,0,0,1-8.8,0,1,1,0,0,1,.92-.28l-.68.25c-1.8,1.7-3.74,3.25-5.69,4.78-13.94,10.85-28.9,20.38-42.49,31.67a29.18,29.18,0,0,0,4.63,2.43l.32.24c5.81,1.85,12,2,18.1,2,10.25,0,22.84-.55,32.39-4.27"/><path class="cls-7" d="M391,773.18A10.31,10.31,0,0,1,391,771l-5.28-.66-.14,3.13"/><path class="cls-7" d="M391.62,773.61c2.14,14.54,10.34,28.84,12.5,43.38l-3.66,1,.27,0a48.45,48.45,0,0,1-22.05.36,4.52,4.52,0,0,1-2.44-1.12,3.93,3.93,0,0,1-.8-1.67c-.86-3.21-.36-6.62.21-9.9,1.86-10.72,4.4-21.44,9.33-31.14l.58-1.42c0,.44-.33,1.17,0,1.41s.59-.83.95-1.09c2.76-2,4,.6,5.07.18-.13-.15.12.15,0,0"/></g><g id="Layer_15" data-name="Layer 15"><path class="cls-7" d="M340.41,292c.55-9.56,1.87-17.3,5.14-25.18a19.63,19.63,0,0,1,3.39-5.89,16.57,16.57,0,0,1,6.64-4.11,39.35,39.35,0,0,1,21.57-1.18,18.4,18.4,0,0,1,6.29,2.27A15.14,15.14,0,0,1,387,261.2c5.3,6.6,6.37,15.56,7,24,.66,8.65.88,18.07-4.17,25.12-4.29,6-11.52,9-18.37,11.74a15.7,15.7,0,0,1-3.83,1.17,12.57,12.57,0,0,1-7-1.56A35.39,35.39,0,0,1,347,309c-3.43-5.29-4.32-8.64-6.12-13.57Z"/><path class="cls-8" d="M342.86,274.64c1.08-4.75,2.37-9.64,5.37-13.49s8.15-6.42,12.82-5l.35.66a18.24,18.24,0,0,1-17.72,16.94"/><path class="cls-8" d="M361.56,257.57A13.52,13.52,0,0,0,365.8,266a28.11,28.11,0,0,0,8.09,5.21c5.7,2.6,12.3,4.32,18.17,2.15-1.24-5.75-2.82-12.05-7.63-15.44a18,18,0,0,0-5.85-2.53,37,37,0,0,0-19.18.11Z"/><path class="cls-5" d="M408.77,392.78q4.94,68.64,13,137l.1.51c2.18,0,4.36-.06,6.53-.22l1.16-.38a482.12,482.12,0,0,0,11-119.9c-.32-9.14-.9-18.35-3.38-27.15s-7-17.26-14-23.08l-.85.62c-4.4,9.11-7.61,14.3-14.53,20.63-3,2.75-8,4.28-11.94,5.18a82.87,82.87,0,0,1-38.92-.61l.72.57.89,131.13c.23,33.74.46,67.55,4.38,101.06.79,6.71,2,13.93,6.76,18.69a25.33,25.33,0,0,0,9.22,5.36,66.7,66.7,0,0,0,31,3.77l1.32,0c1.66-.81,2-3,2.17-4.81l9.35-110.4"/><path class="cls-9" d="M329.54,359.57c6.09,2,11.31,5,12,10.95"/><path class="cls-10" d="M343.45,558.41c.44-6.64.54-12.1.66-18.43,1.07-56.49.21-111.94-2.08-168.4l-.47-1.06a25.93,25.93,0,0,0,16.22,14.85c-1.24,57.06-.67,115.31.63,172.37-4.69,1.77-10.36,1.23-15.34.63"/><path class="cls-7" d="M427.89,530.4c.13,1.64.21,3.29.24,4.94l-3.24-.62c-.09-1.34-.23-2.68-.41-4"/><path class="cls-7" d="M424.87,535.34a1.28,1.28,0,0,0-1,.88,3.82,3.82,0,0,0-.17,1.39,40.17,40.17,0,0,0,.82,10,6.15,6.15,0,0,0,2.21-.92l-1,.81a46,46,0,0,0-1.13,11.63.6.6,0,0,0,.14.45.67.67,0,0,0,.31.1,56.48,56.48,0,0,0,7.12.45c.61,0,1.32-.07,1.63-.59a2,2,0,0,0,.18-.86c.28-7.88.55-15.88-1.39-23.52l-4.06.24"/><path class="cls-7" d="M299.11,520.41c-.12,1.64-.21,3.29-.24,4.94l3.24-.62c.09-1.34.23-2.68.41-4"/><path class="cls-7" d="M302.13,525.35a1.31,1.31,0,0,1,1,.88,4.05,4.05,0,0,1,.17,1.39,41.18,41.18,0,0,1-.82,10,6.07,6.07,0,0,1-2.21-.92l1,.81a46,46,0,0,1,1.13,11.63.56.56,0,0,1-.14.44.64.64,0,0,1-.31.11,56.48,56.48,0,0,1-7.12.45c-.6,0-1.32-.07-1.63-.59a1.82,1.82,0,0,1-.17-.86c-.28-7.88-.55-15.88,1.38-23.52l4.06.24"/></g><path class="cls-5" d="M317.22,351.73c1.46,2.26,4.69,2.35,7.07,3.6,2.13,1.12,3.58,3.19,5.43,4.74a23.3,23.3,0,0,0,6.6,3.53c1.68.66,3.46,1.34,4.57,2.75a5,5,0,0,1,.66,5l-.09-2.22c6.65,89.69-.62,182.83,2.89,272.7l-.06.36a39.47,39.47,0,0,1-24.68-1.57A8,8,0,0,1,316,638.3a8.73,8.73,0,0,1-1.41-4.22C303.53,560.87,301.44,486.57,303,412.56"/></g><g id="Layer_14" data-name="Layer 14"><g id="Layer_12" data-name="Layer 12"><path class="cls-7" d="M685,265.13c.93,0,.3.25.63-.62a7.93,7.93,0,0,0,.68-2.93c-.07-1.87-.2-4.62-.28-6.49,0-.35.21-.08,0-.35s.1-.93-.07-.63l-.1.11c-1-.42-1.07-1.73-1.18-2.79-.41-3.8-3-7.08-6.23-9.18s-6.91-3.23-10.57-4.32c-2.65-.79-5.3-1.58-8-2.15-4.11-.85-8.33-1.18-12.39-2.27s-8.06-3.1-10.48-6.53a5.39,5.39,0,0,1-1.2-3.76l0,.5a18.79,18.79,0,0,1,1.84,15.19c-1.68,5-5.58,9.75-10.8,10.43l.21-.49c.39-.12,1.25.32-.23,1.19-.47.29-.49.56-1.1.82s-.19,1-.22,1.67c-.15,3.35-1,6.86-.13,10.11.09.37.3.44.54.74a1.93,1.93,0,0,0,1.93.86l-.54.14-.39.4c1.24,7.41,1.42,14,2.56,20.94a28.3,28.3,0,0,0,11.06,17.57,34.59,34.59,0,0,0,5.16,3.1c3.65,1.83,7.65,3.31,11.72,3a21.25,21.25,0,0,0,5.48-1.3c8.22-2.92,15.35-8.78,18.21-17a34.5,34.5,0,0,0,1.5-7.89c.62-5.8,1.49-11.82,1.69-17.65"/></g><g id="Layer_13" data-name="Layer 13"><path class="cls-9" d="M604.15,521.45a16.14,16.14,0,0,0,2.91,6.83,3.75,3.75,0,0,0,1.8,1.48c1.16.35,1.5-1.45,2.42-2.24,2.08-1.78,3.1-4,4.33-6.44"/><path class="cls-6" d="M659.59,517.36q-22.35,131.89-37.16,265l-.47,1.22a21,21,0,0,1-13.19,1.67l0-.11C596.63,696,604.7,612.29,596.67,522.55l.51-8.7c3.09-7.05,5.7-12.62,6-20.38,1.11,2.84,2.27,5.67,3.47,8.47"/><path class="cls-7" d="M618.33,785.46l-.42,4.15-4.42.6a34.47,34.47,0,0,1-.15-4.88"/><path class="cls-7" d="M688.9,784.94a42.29,42.29,0,0,0,.27,5.51l-5.29.15a41.56,41.56,0,0,0-.63-5.51"/><path class="cls-7" d="M691.91,790.34a85,85,0,0,0,7,7.73c8.5,8.72,17,17.44,25.92,25.76l.23.35c.81.79.49,1.38,0,2.13a4.27,4.27,0,0,1-2.24,1.44,91.27,91.27,0,0,1-26.23,5.6,1.44,1.44,0,0,1-1.1-.68c-6.85-8.14-7.76-19.78-13.39-28.82l0-.55a35.29,35.29,0,0,0,.08-9.24,16.35,16.35,0,0,1,0-4.25l.49-.56c-.51.07.09.11.31.57a2,2,0,0,0,1.2.89,11.58,11.58,0,0,0,5.82.07,2.52,2.52,0,0,0,1.1-.37.94.94,0,0,0,.4-1,1.08,1.08,0,0,0-.49-.52,2.1,2.1,0,0,0-1.49-.23"/><path class="cls-6" d="M645.27,517.36q21.26,131.89,35.34,265l.44,1.22a19.09,19.09,0,0,0,12.54,1.67l0-.11c11.59-89.22,3.92-172.89,11.55-262.63l-.49-8.7c-2.94-7.05-5.42-12.62-5.74-20.38-1,2.84-2.16,5.67-3.3,8.47"/><path class="cls-7" d="M610.62,790.21a93.29,93.29,0,0,1-6.26,8.39c-7.63,9.46-15.27,18.93-23.26,28l-.21.38c-.73.86-.44,1.5,0,2.32a3.83,3.83,0,0,0,2,1.55,69.73,69.73,0,0,0,23.54,6.09c.4,0,.73-.37,1-.74,6.15-8.84,7-21.48,12-31.29l0-.59a46.8,46.8,0,0,1-.07-10,20.91,20.91,0,0,0,0-4.61L619,789c.45.07-.08.12-.28.62a1.85,1.85,0,0,1-1.08,1,8.61,8.61,0,0,1-5.22.08,2.1,2.1,0,0,1-1-.41,1.12,1.12,0,0,1-.36-1.1,1.13,1.13,0,0,1,.44-.56,1.66,1.66,0,0,1,1.34-.26"/></g><g id="Layer_11" data-name="Layer 11"><path class="cls-11" d="M635.8,223.67c1.41,5,2.53,10.28,1.38,15.34s-5.12,9.82-10.29,10.33a27.88,27.88,0,0,1-4.33-20.72,17,17,0,0,1,1.49-4.59c1.57-3,4.18-5.38,6.74-7.63,3.22-2.83,5.68-3.84,8.81-5.61a48.39,48.39,0,0,1,5.4-2.12c1.74-.7,5.71-1.06,7.59-1.15,9.6-.45,17.11,3.25,24.68,9.17s12.55,15.36,12.19,25a48.55,48.55,0,0,1-1.82,10.4,5.45,5.45,0,0,1-1,2.32,1.89,1.89,0,0,1-2.3.5,18.41,18.41,0,0,0-9-13.87c-3.38-1.95-7.28-2.76-11.1-3.53l-13.75-2.79a34,34,0,0,1-7.57-2.17,11.25,11.25,0,0,1-5.63-5.29Z"/><path class="cls-11" d="M637.2,279.55a65.64,65.64,0,0,1,11.06-6.13,21.92,21.92,0,0,1,12.39-1.48,27,27,0,0,1,8.74,3.93c1.88,1.19,3.78,2.54,4.77,4.53a3.22,3.22,0,0,1-2.88.67,12.08,12.08,0,0,1-2.86-1.13,28.18,28.18,0,0,0-24.28.28,12.62,12.62,0,0,1-4,1.59,3.32,3.32,0,0,1-3.58-1.85Z"/><path class="cls-11" d="M652.38,288.14c.8,1-.13,3.34-1.16,4.09a5.88,5.88,0,0,1-3.65.83c-4.51-.11-9.2-1.79-11.91-5.4-1.94-2.6-2.67-5.89-3.06-9.11a53.66,53.66,0,0,1-.38-8.5,5.88,5.88,0,0,0-1.57-3.72c-.86-1-1.9-1-3.22-1.16h0a19.25,19.25,0,0,0,.56,5.74c.76,4.3.77,8.68,1.32,13s1.72,8.72,4.43,12.13c1.59,2,3.21,4.43,5.27,5.95a49.44,49.44,0,0,0,8.49,5.23c3,1.37,6.33,2.55,9.59,2.18a29.47,29.47,0,0,0,5.85-1.32c3.46-1.15,7-3.64,10-5.78,5.2-3.79,8-10.13,9.24-16.43s1.37-12.79,2.44-19.13l-.42-.72c-1.49.7-1.93,2.57-2.2,4.19l-1,6.17a23.92,23.92,0,0,1-1.87,6.95,15.34,15.34,0,0,1-2.47,3.51,15,15,0,0,1-8.5,5,9.14,9.14,0,0,1-8.9-3.42l-.61-.36c-2.08-.07-4.17-.05-6.25.06"/><path class="cls-7" d="M628.5,250.43a3.67,3.67,0,0,0-2,.07,1.8,1.8,0,0,0-1,.64,2.49,2.49,0,0,0-.29,1.3l-.23,7.05a8.36,8.36,0,0,0,.12,2.18c.15.68,2.22,3,3.35,3.23"/><path class="cls-7" d="M684.21,255.75c.65.18,1.48-.25,2,.22a1.24,1.24,0,0,1,.26.46c.7,2,0,4.19.25,6.28a7.94,7.94,0,0,1,.13,1.37,1.6,1.6,0,0,1-.52,1.23,2,2,0,0,1-.62.32,11.83,11.83,0,0,1-2.22.92"/><path class="cls-7" d="M628.14,255.73a1.05,1.05,0,0,0-1,.61,2.59,2.59,0,0,0-.22,1.26,7.19,7.19,0,0,0,1.5,4.51"/><path class="cls-7" d="M683.47,258.92a5.9,5.9,0,0,1,0,5.32"/><path d="M653.39,310.09l.47,4a.75.75,0,0,0,1.5,0l-.47-4a.75.75,0,0,0-1.5,0Z"/><path d="M658.06,310.36l-.34,5.1a.75.75,0,1,0,1.5,0l.34-5.1a.75.75,0,0,0-1.5,0Z"/><path class="cls-7" d="M588.65,524.16a123.57,123.57,0,0,1,.18,23.16.86.86,0,0,1-.12.44.81.81,0,0,1-.61.2c-2.23.12-3.18.31-5.41.43a3.44,3.44,0,0,1-3.11-.78,4.45,4.45,0,0,1-.79-1.9c-2.32-10-2.51-20.19-2.54-30.4a7.08,7.08,0,0,1,.16-2.73c.36-.65,2-.25,2.75-.35v-.15q1.23-51.71,2.45-103.43c.17-7.3-.34-14.49-.34-22.45h.37a8.73,8.73,0,0,0,1.76,1.57,32.53,32.53,0,0,0,19.83,4.13l-.29.66q-6.77,60.17-15.84,120h.17c.8.28,2.25.89,3.05,1.18a25.48,25.48,0,0,0,.35,7.08,3.91,3.91,0,0,1,.09,1.52,2.15,2.15,0,0,1-1.7,1.8c-.85.07-1.87-.08-2.78,0"/><path class="cls-7" d="M714.86,517.35a124.43,124.43,0,0,0-.18,23.16.83.83,0,0,0,.12.44.79.79,0,0,0,.6.21c2.22.12,3.16.31,5.37.42a3.38,3.38,0,0,0,3.09-.78,4.56,4.56,0,0,0,.78-1.9c2.3-9.95,2.49-20.18,2.51-30.4a6.91,6.91,0,0,0-.15-2.73c-.36-.64-1.93-.24-2.73-.35v-.14q-1.21-51.72-2.42-103.44c-.18-7.3.33-14.48.33-22.44h-.37a9.17,9.17,0,0,1-1.74,1.56,32.06,32.06,0,0,1-19.67,4.13l.29.67q6.7,60.15,15.7,120h-.16c-.8.29-2.23.9-3,1.18a26,26,0,0,1-.35,7.09,3.86,3.86,0,0,0-.09,1.51,2.14,2.14,0,0,0,1.68,1.8c.85.07,1.86-.07,2.76,0"/><path class="cls-5" d="M661,315.11c16.56,4,35.33,10.52,51.71,15.16,6.9,14.42,10.52,28.49,12.7,44.2a3.94,3.94,0,0,1-.1,2.13,4,4,0,0,1-1.65,1.58c-6.27,3.95-14,8.93-21.5,8.06l-2.26-29.54c.93,33.22,2.24,66.43,3.55,99.64.3,7.59,2.84,53.61,3.44,61.17-4,4-9.94,5.3-15.52,6.36-22.41,4.27-45.54,7.66-67.93,3.3a100.19,100.19,0,0,1-10.14-2.54c-6.9-2.11-13.78-5.12-18.66-10.42l-.68-.62c.48-7.57,4.3-47.88,5.08-55.43,3.43-33.06,6.85-66.12,10.65-99.14L606,391.59c-7.08.86-17.47-1.09-23.41-5a3.83,3.83,0,0,1-1.56-1.58,4.14,4.14,0,0,1-.11-2.13,169.87,169.87,0,0,1,13.39-46.67c18.92-8.09,38.8-15.3,58.39-21.6l1.81-.06c-.34-.47-1.19,0-1.15.62s.59,1,1.11,1.26a6.71,6.71,0,0,0,4,.6,1.83,1.83,0,0,0,1.5-.92c.23-.56-.4-1.35-.92-1"/></g></g><g id="Layer_20" data-name="Layer 20"><g id="Layer_2" data-name="Layer 2"><g id="Layer_11-2" data-name="Layer 11"><path class="cls-7" d="M448.57,487.62a21.19,21.19,0,0,0,7.8,5.07c18.58,8,39.65,7.55,59.79,5.61,19.59-1.92,39.64-5.32,56.44-15.59l.42-.28a19,19,0,0,0-.26-10.22l-.28-.54a22.14,22.14,0,0,1-8.26,4.26c-30.1,10.12-62.66,10.84-94.22,7.42-7.46-.81-15.23-2-21.35-6.31l-.37.54a18.94,18.94,0,0,0-.17,10.63"/><path class="cls-7" d="M459.14,825.51a19.28,19.28,0,0,0,.29,3.47l-.69.36c-1.46.21-2.91.38-4.36.5l-1,.07a28.76,28.76,0,0,1-.37-3.2"/><path class="cls-7" d="M563.53,827.21c.12,1.4.49,3.48.6,4.88V833c-1.71,1.41-4.52,1.18-6.43.07v-.92l-.19-3.83"/><path class="cls-7" d="M633.58,872.52A420.82,420.82,0,0,1,559,869l-.09-1.11a330.68,330.68,0,0,1-1.79-34.33l.16-.42c-.44.06,0,.47.2.85a1.71,1.71,0,0,0,1.07.69,7.66,7.66,0,0,0,6-.73,1.53,1.53,0,0,0,.81-.88c.1-.4-.26-.91-.66-.79l1.4.87a27.35,27.35,0,0,0,6.33,4.44c18.37,10.18,38.51,16.64,58.38,23.4a70,70,0,0,1,13,5.47l-.62.85c-2.46,1.48-7.41,3.76-9.83,5.28"/><path class="cls-7" d="M478.6,869.84a51.32,51.32,0,0,1,0,9.44c-12.08,1.8-27.05,1.93-39.2,1.64a48.73,48.73,0,0,1-.24-9.66c4.2-13.93,9.68-27.21,13.88-41.13l.23.18c-.14.39-.26.61.11.8a2.51,2.51,0,0,0,1.18.19,6.38,6.38,0,0,0,4.56-1.38,1.75,1.75,0,0,0,.2-.35c-.2.35,0,.36,0,0l-.26.1c7,13,13.64,26.7,19.63,40.48"/><path class="cls-7" d="M521.92,496.87a72.77,72.77,0,0,0-.19-12.35l-23.1,1.07a52.05,52.05,0,0,0,0,13.08"/><path class="cls-7" d="M508.16,492.24a26.82,26.82,0,0,0,5.73-.32"/><path class="cls-6" d="M509.94,574.5c8.9,70.9,22.57,137.84,36.59,207.91l8.88,44.25.32.55a10.41,10.41,0,0,0,7.76,0l.89-.41q10.07-101.1,14.88-202.61c2.26-47.51,3.61-95.65-6.75-142.06l-1.34,1.32c-15.25,8.85-33,12.11-50.62,14-12.41,1.32-25,2-37.38.73s-24.79-4.58-35.57-10.86l.55,2.07c-4.23,34.9-8.47,69.87-8.69,105-.1,14.52.49,29,1.18,43.53,2.82,64.5,4.72,123.63,9.25,188l.48.42c3.16,1.18,9.87-.59,12.89-2q21.42-140.9,53.34-279.92l2.51-1.18-5.9.59"/><path class="cls-5" d="M447.85,454.94a122.13,122.13,0,0,1,1.53,22h0c24,11.11,54,8.46,81.43,5.9a169.77,169.77,0,0,0,17.11-2.29,107.64,107.64,0,0,0,24.18-7.78v-.92c.86-8.58,0-46.13,0-54.75L550.78,381c22.69,41.3,11.1,70.51-6.06,105l16.74,2.71c41.88,6.09,13.18,3.37,12.09,3.1-13.16-3.26,0,6.75-6.88-9.8l-17.56.08c26.64-51.83,49.24-102,26.26-156.65h0q-14.29-6.28-29-11.38c-10.06-3.54-20.25-6.54-30.45-9.6l-10.7-1.45c-16.89,7.08-49.33,14.56-66.76,22C421.71,362.83,424,385,415.94,425.6c38.08,12,61,31.46,98.23,16.92h.53a9.38,9.38,0,0,0-.53-6h-.78c-19.89-6.79-57.66-18-78-23.21"/><path class="cls-7" d="M570.93,519.86a2.82,2.82,0,0,1-.53,1.86l-.57.41c-2.65-.26-5-1.86-7.67-2.23a1.63,1.63,0,0,0-1.18.16,1.79,1.79,0,0,0-.48.7,39.9,39.9,0,0,0-2.84,8.83.67.67,0,0,0,0,.52.7.7,0,0,0,.46.26l2.63.71a1.2,1.2,0,0,0,.75,0,1.14,1.14,0,0,0,.5-.54l1.6-2.75h.17c.66.09.71,1,.54,1.68-1.18,4.72-2.74,8.21-1,3.65,2.15-5.79.91-4-.92,2.75,0,.2-1.52.53,1.3,1.86a130.52,130.52,0,0,1,11.67,6.66c3.17-6,3.05-6.11,6.22-12.12a8.6,8.6,0,0,0,1-2.54,2.94,2.94,0,0,0-.63-2.56,4.3,4.3,0,0,0-1.18-.75l-4.72-2.5-.66-.89.72-2.28"/><path class="cls-7" d="M507.39,297.64l.72,8.53"/><path class="cls-7" d="M513.66,298.15c-.11,1.79-.54,5.71-.66,7.5"/><path d="M514,302.81c.19-.07-.07,0-.08,0h0l.12.07a2.62,2.62,0,0,1,.22.25s.13.16.06.08c.12.13,0,0,0-.06a5.48,5.48,0,0,1-.31.52,3.29,3.29,0,0,1-2.42,1.18,5.69,5.69,0,0,1-3,0,4.69,4.69,0,0,1-1.18-.79,1.42,1.42,0,0,1-.43-.51.6.6,0,0,1,0-.19l-.12.07a.89.89,0,1,0,0-1.77,1.72,1.72,0,0,0-1.62,1.35,2.37,2.37,0,0,0,.7,2.05,5.29,5.29,0,0,0,3.7,1.78,15.64,15.64,0,0,0,1.92-.3,9.12,9.12,0,0,0,2.13-.41,3.63,3.63,0,0,0,1.54-1.08,3.24,3.24,0,0,0,.92-1.75c0-1.18-1.35-2.6-2.57-2.2a.89.89,0,1,0,.48,1.71Z"/><path d="M505.28,304.18a11.28,11.28,0,0,0,4.37,2.36.89.89,0,0,0,.47-1.71h0c-.34-.1-.68-.2-1-.33l-.24-.11h0l-.13-.06-.51-.26a8.73,8.73,0,0,1-.93-.55l-.45-.31h0l-.11-.08-.14-.13a.91.91,0,0,0-1.25,0,.88.88,0,0,0,0,1.25Z"/><path class="cls-10" d="M449.23,399.15c40.12-22.1,31.77-14,53.1-27.14h0c2.15,2,5.51,4.53,8.72,20.16h0c-29.16,19-62.12,59.52-100.06,66.45l-12.57-1.18c-1.81-8.4-.91-24.36,1.64-32.58q15.69-50.75,36.35-99.78a133.18,133.18,0,0,1,15.34-5.57c17.35-5.41,37-12.2,54.36-17.61l-2.7,1.4a1128.16,1128.16,0,0,1,13.82,210.18,99.47,99.47,0,0,1-68.89-4,4.51,4.51,0,0,1-3.47-4.86c-1-16.66-.89-42-1.92-58.66"/><path class="cls-10" d="M572.17,411.89c8.73,21,12.92,43.45-8.34,103.52,5.72,4.72,8.73,5.51,14,9.64l4.36,4.19c14.81-42.7,23.11-54.49,31.31-96.88,3.12-16.08-27.85-93.31-38.26-109h-.5a365.33,365.33,0,0,0-48.38-16.52c-2.65-.7-9.28-4.91-11.38-4.91,2.36,68.6,11.6,143.55,21.82,211.43,3.78-.72,7.22,0,13.68,0,13.38,0,6.27,3,13.84-1.45,1.18-.66,1.5-2.11,1.87-3.39,9.63-34,15.77-57.43,11.1-80.92"/><path d="M497,317.43a26.88,26.88,0,0,0-8.72,7.32.91.91,0,0,0,0,1.25.89.89,0,0,0,1.25,0,25.71,25.71,0,0,1,8.37-7.08c1-.53.12-2.07-.9-1.54Z"/><path class="cls-12" d="M488.69,325.42c22.33,26.22,22.2,41.87,25.71,79.07l-.1-5c-1-43.38-.71-53.17-8.39-95.88l-3.16.8c-3.89,2.47-8.89,6.41-11.43,10.24a29.86,29.86,0,0,0,6.74,3.05"/><path class="cls-12" d="M516.09,302.76c-1.1,22.67.55,45.38,2.2,68,.52,7.14.79,11.62,1.35,18.75,1.35,16.65-1.08,6.91,1.18,16.45l1.81-1.47c-1.18-38.27,3.47-48.54,9.15-86.41a41.51,41.51,0,0,0-9.92-5.76l-.59-.13a14.54,14.54,0,0,0,6.55-4.12,21.28,21.28,0,0,0-10.71-6.17"/><path class="cls-13" d="M505.72,364c4,13.79,8.11,27.43,12.13,41.2h0a25.29,25.29,0,0,0,17.94,5.48,10.63,10.63,0,0,0,9.12-5.9,23.79,23.79,0,0,0,2.51-5.62l-.13-.17a41.77,41.77,0,0,1-9.09-6.77,27.16,27.16,0,0,1-6.49-8.12,28.51,28.51,0,0,1-2.11-8.33,138.86,138.86,0,0,1-1.23-19.54l-.1-.13-2.51-.13a2.2,2.2,0,0,0-.92.07,2.41,2.41,0,0,0-.86.61,26.19,26.19,0,0,1-18,7.08"/><path class="cls-7" d="M565.28,273.93a154.85,154.85,0,0,1,24.58,37A106.81,106.81,0,0,1,600.1,354l-.72-.26c-6-2.28-10.93-6.9-14.59-12.19s-8.69-10.22-11.13-16.12c-6.63-16.14-10.42-34.22-9.17-51.67"/><path class="cls-13" d="M563.72,274.47c.45,4.1.34,6.72.62,10.15,1.18,14.91,4.37,29.7,11.22,43a81.88,81.88,0,0,0,5.43,9.15,64.64,64.64,0,0,0,18.7,17.88l.1.67L541,357.11c-5.36.16-10.76.34-15.94,1.72-7.89,2.1-15.75,7-23.61,4.79a14.25,14.25,0,0,1-10.11-13.42c0-5.9,3.8-11.2,8.37-14.93s9.95-6.31,14.83-9.61c19.9-13.42,30-38,49.73-51.72"/><path class="cls-7" d="M578,330.55c-6-9.15-9.32-19.34-11.8-30l1.27-1.18a13.54,13.54,0,0,1,11.6-1.18,18.41,18.41,0,0,1,9.18,7.41,18.11,18.11,0,0,1,2.87,14.16c-1.18,4.79-8.26,9.88-13.16,10.79"/><path class="cls-14" d="M512.06,327.28c-4.16,1.26-8,4.73-11.68,7.09l-.34.25c2.36,10.19,4.65,19.94,9.55,29.18h0c5.18-.39,11.71-2.14,15.44-4.94l-.78-1c-3-9.44-7.6-21.82-12.19-30.54"/><path class="cls-7" d="M597,307.62q14.79-5.58,29.62-11a3,3,0,0,1,1.69-.26,1,1,0,0,1,.82,1.22.24.24,0,0,1,0,.08,1.52,1.52,0,0,1-.76.61,221.52,221.52,0,0,1-29.91,11.91c-1,.31-2.36.48-2.82-.41s.59-2.12,1.67-2.45Z"/><path class="cls-7" d="M583.89,284q8.13-8.1,16.34-16.08a1.71,1.71,0,0,1,1-.6.94.94,0,0,1,.86.94,1.19,1.19,0,0,1-.34.71,140.2,140.2,0,0,1-16.27,17c-.57.48-1.38.93-2,.27a1.94,1.94,0,0,1,.45-2.48Z"/><path class="cls-7" d="M605.33,340q11.45.43,22.86,1a1.83,1.83,0,0,1,1.18.33.86.86,0,0,1,0,1.18,1.16,1.16,0,0,1-.72.22,144,144,0,0,1-23.4-.4c-.74-.07-1.64-.35-1.61-1.18s1.19-1.38,2-1.3Z"/><path class="cls-7" d="M506.66,378.11a6.06,6.06,0,0,1,1.55-.43v-.59q-1.66-3.79-3.19-7.65a1.37,1.37,0,0,1-.12-.89,1.33,1.33,0,0,1,.48-.52,28.12,28.12,0,0,1,9.56-4.6l.7.3a18.85,18.85,0,0,1,1.4,3.94l-.58.38c-.24.07.64-.38-.24.07l.24-.07a90.24,90.24,0,0,0,10.62-4.16,5.3,5.3,0,0,0,2-1.45,1.84,1.84,0,0,0,0-2.36,1.54,1.54,0,0,1,2.18,0l0,0a4.53,4.53,0,0,1,1.18,2.18l4.3,14.64a7.36,7.36,0,0,1,.45,3.54c-.25,1.18-.79,2.36-1.93,2.26l-.44.17c-7.43,2.23-13.68,4.36-21.05,6.58a.68.68,0,0,1-.82-.4c-1-2.5-1.81-5.05-2.55-7.62l-.38-.25a5.92,5.92,0,0,0-1.64.52"/><path class="cls-7" d="M537.19,263.63c-1.51-3.72-.52-6.28,0-10.26a42.12,42.12,0,0,0-2.56-20.49,12.81,12.81,0,0,0-1.76-3.33,14.9,14.9,0,0,0-2.6-2.42,25.18,25.18,0,0,0-4.91-3.28,25.47,25.47,0,0,0-8-1.78l-8.72-1v-.7a17,17,0,0,1-3.38,2,35.24,35.24,0,0,1-6.45,1.94l-14.28,3.3a2.33,2.33,0,0,0-1.18.49,2.26,2.26,0,0,0-.52,1.09c-2.88,11.46,1.88,23.68-.27,35.29a10.51,10.51,0,0,0-.3,4.46l.12.38c4.4,11.16,12,21.45,22.77,26.88a13.32,13.32,0,0,0,4.15,1.45,11.49,11.49,0,0,0,4.94-.55,26.52,26.52,0,0,0,12.88-9.83,72.07,72.07,0,0,0,7.75-14.52c1.18-2.67,2.46-6.22,2.29-9.12"/><path class="cls-7" d="M553.7,533.12a42.94,42.94,0,0,0,7.08,3.54,112.79,112.79,0,0,1,17.47,9.61"/><path class="cls-8" d="M482.08,231.91a10.36,10.36,0,0,0-2.36,4,15.37,15.37,0,0,0-.79,5.38c0,3.4,1.29,3.91,1.45,7,.24,4.25.82,6.5,1.05,10.74-2.46-8.52-14.69-18.52-13.55-27.31s5-17.43,11.81-23.21a41,41,0,0,1,6.11-4.26,56.5,56.5,0,0,1,22.43-7.8,39.85,39.85,0,0,1,23.2,4.2c4.15,2.24,8.12,5.9,8.26,10.62l.57.29a26.1,26.1,0,0,1,6.5,11.9c1.09,4.47-3.54,10.93-3.65,15.53-.15,5.09-2.51,10.62-3.34,15.64-.34,1.94-.17,2.53-1.47,3.29,0,.22-1.72.44-2.09-.6a18.27,18.27,0,0,1-.65-6.78c0-1.18,1.5-8.42.44-9-3.72-2.13-1.79-7.37-.21-13.48l-.49.44A57.87,57.87,0,0,1,508,239.8a2.75,2.75,0,0,1-2-.23,21.81,21.81,0,0,0,5-8.56l-.46-.06a107.64,107.64,0,0,1-31.37,9.81,74.57,74.57,0,0,1,2.87-8.79"/></g></g></g></svg>