<svg xmlns="http://www.w3.org/2000/svg" viewBox="0 0 1000 1000"><defs><style>.cls-1{fill:#f1f5fc;}.cls-2{fill:#e6eefb;}.cls-3{fill:#f4f4f4;}.cls-4,.cls-5{fill:#fff;}.cls-4{stroke:#f4f4f4;}.cls-10,.cls-11,.cls-12,.cls-13,.cls-14,.cls-15,.cls-16,.cls-4,.cls-5,.cls-6,.cls-7,.cls-8,.cls-9{stroke-miterlimit:10;}.cls-10,.cls-11,.cls-12,.cls-13,.cls-14,.cls-15,.cls-16,.cls-5,.cls-6,.cls-7,.cls-8,.cls-9{stroke:#000;}.cls-6{fill:#2d388e;}.cls-7{fill:#a6c9f5;}.cls-8{fill:#ffbe21;}.cls-9{fill:#e96181;}.cls-10{fill:#d8e7fa;}.cls-11{fill:#1c6685;}.cls-12{fill:#f5f6f9;}.cls-13{fill:#2b2726;opacity:0.84;}.cls-14{fill:#707070;}.cls-15{fill:#a6c8f7;}.cls-16,.cls-18{fill:#fcfcfc;}.cls-17{fill:#a5c9f4;}</style></defs><g id="Layer_20" data-name="Layer 20"><path class="cls-1" d="M889.23,537.18c50,24.66,83.39,79.68,82.22,135.4-.39,18.68-4.47,37.55-13.93,53.67-13.5,23-36.63,38.57-59.94,51.54-27.89,15.53-58,28.73-89.88,30.6-14.89.87-29.8-.76-44.7-1.38-30.19-1.24-61.64,2-87.7,17.32-17.43,10.22-31.86,25.49-50.51,33.3-25,10.48-54.17,5.84-79-5.09-25.49-11.22-49.57-31.09-55.39-58.32-4.08-19.09,1.5-39.28,11.56-56s24.28-30.52,38.79-43.58c12.82-11.54,26-22.73,40.49-32.15,42.23-27.54,92.77-38.75,138.88-59.15A373.22,373.22,0,0,0,806.44,550c10.08-8.31,20-17.35,32.33-21.77A50.4,50.4,0,0,1,888.41,538"/><path class="cls-1" d="M257.26,613.9c-16.65,2.66-33.45,3.83-50,.84-54.63-9.84-107.41-36.67-141.69-80.32s-47.67-105-27.64-156.77C51.67,342,79.93,313.08,113,294s70.88-28.91,108.8-33.58c28.46-3.51,57.32-4.24,85.36-10.22a233.07,233.07,0,0,0,93.27-43.15c22-17,41-37.9,64.34-53,40.57-26.34,93-32.9,139.31-18.93s85.94,47.82,108.47,90.62c8.75,16.64,15.1,34.83,16,53.6,1.65,33.25-13.74,65.18-33.45,92-42.23,57.45-104,97.06-165.61,132.91C440.27,556.15,359.26,597.63,257.26,613.9Z"/><path class="cls-2" d="M405.73,299.37c40.45,5.21,80.63,13.59,121.4,14.59,49.77,1.22,99.1-8.59,148.77-12s102,.42,144.64,26.16a156,156,0,0,1,54.89,56.52c35.63,63.1,22.89,143.07-6,209.55-17.3,39.87-40.67,78.23-74.74,105.23C771,718.25,742.92,730.88,714,739.83c-79.47,24.62-165.21,22.2-247.08,7.35-71.19-12.91-142.28-35.85-199.37-80.3S169.06,553.74,170.69,481.4c.65-28.75,7.88-56.92,15.93-84.53,4.41-15.11,9.17-30.35,17.61-43.64,15.09-23.76,40.66-39.12,67.18-48.57a225,225,0,0,1,137.28-4.11"/><path class="cls-2" d="M209.14,231.3c-18.09-2.61-31.95-20.31-32.63-38.57s10.3-35.82,25.71-45.64S236.84,134.55,255,136.8c33.74,4.17,64.89,25.59,80.86,55.6,3.21,6,5.88,12.58,6.15,19.43s-2.23,14.08-7.7,18.19c-5,3.76-11.6,4.43-17.83,5-35.84,3.1-72.53,6.14-107.31-3.05Z"/><path class="cls-3" d="M105.51,695.11c.12-.23.26-.46.4-.68l.22-.32.11-.15s.14-.18.05-.07a10.27,10.27,0,0,1,1-1.14l.57-.49.08-.06.14-.11.32-.22a10.89,10.89,0,0,1,1.37-.77.75.75,0,0,0,.27-1,.77.77,0,0,0-1-.27,10.74,10.74,0,0,0-4.85,4.55.75.75,0,0,0,1.3.76Z"/><path class="cls-3" d="M117.84,687.77a11.75,11.75,0,0,1,6.31-2,.75.75,0,0,0,0-1.5,13.15,13.15,0,0,0-7.06,2.22.76.76,0,0,0-.27,1,.75.75,0,0,0,1,.27Z"/><path class="cls-3" d="M132.17,685.88l6.1.6a.75.75,0,0,0,.75-.75.76.76,0,0,0-.75-.75l-6.1-.6a.75.75,0,1,0,0,1.5Z"/><path class="cls-3" d="M98.78,702.18a13,13,0,0,0-2.42,7.38.75.75,0,0,0,1.5,0,11.59,11.59,0,0,1,2.22-6.62.75.75,0,0,0-.27-1,.77.77,0,0,0-1,.27Z"/><path class="cls-3" d="M95,719a20.86,20.86,0,0,0,.44,6,.75.75,0,0,0,1.45-.4,19.15,19.15,0,0,1-.39-5.6.75.75,0,0,0-1.5,0Z"/><path class="cls-3" d="M98,735.41a22.86,22.86,0,0,0,3.67,6.6.75.75,0,0,0,1.06,0,.77.77,0,0,0,0-1.06A20.79,20.79,0,0,1,99.47,735a.75.75,0,0,0-1.45.4Z"/><path class="cls-3" d="M105.76,746.91a48.07,48.07,0,0,0,4.52,5.35c.68.69,1.74-.37,1.06-1.06a44.7,44.7,0,0,1-4.28-5,.77.77,0,0,0-1-.27.76.76,0,0,0-.27,1Z"/><path class="cls-3" d="M117.37,756.28a54.35,54.35,0,0,0,7.32,3.15c.91.31,1.31-1.14.4-1.45a51.54,51.54,0,0,1-7-3c-.86-.45-1.62.85-.76,1.29Z"/><path class="cls-3" d="M134.05,760.33a23.53,23.53,0,0,1,6.26-.63c1,0,1-1.47,0-1.5a25.3,25.3,0,0,0-6.66.68c-.94.22-.54,1.67.4,1.45Z"/><path class="cls-3" d="M147.73,756.41a6.52,6.52,0,0,0,4-1.56.75.75,0,0,0,0-1.06.77.77,0,0,0-1.06,0l-.18.15c.16-.12,0,0-.08,0l-.39.25c-.13.08-.27.15-.41.22a1,1,0,0,1-.21.09c.18-.06,0,0-.06,0a6.36,6.36,0,0,1-.85.25l-.23,0-.11,0c.1,0,.11,0,0,0a3.44,3.44,0,0,1-.46,0,.77.77,0,0,0-.75.75.76.76,0,0,0,.75.75Z"/><path class="cls-3" d="M160.37,747.77l3.43-3.57a.76.76,0,0,0,0-1.06.75.75,0,0,0-1.06,0l-3.43,3.57a.75.75,0,0,0,1.06,1.06Z"/><path class="cls-3" d="M168.52,733.19l.73-1.72a.47.47,0,0,0,.09-.28.57.57,0,0,0,0-.29.72.72,0,0,0-.35-.45.72.72,0,0,0-.57-.08.7.7,0,0,0-.45.35l-.74,1.71a.71.71,0,0,0-.09.28.61.61,0,0,0,0,.3.76.76,0,0,0,.34.45.77.77,0,0,0,1-.27Z"/><path class="cls-3" d="M169.05,720.1l-.91-4a.76.76,0,0,0-.92-.52.77.77,0,0,0-.53.92l.92,4a.75.75,0,0,0,1.44-.4Z"/><path class="cls-3" d="M167.31,709.24a8.74,8.74,0,0,0-3.4-4.71.76.76,0,0,0-1,.27.77.77,0,0,0,.27,1l.27.2c-.06,0,0,0,0,0l.13.11c.16.13.31.27.47.42s.31.32.45.49l.19.23c.05.07,0-.08,0,0l.09.13a7.13,7.13,0,0,1,.65,1.09c.05.09.09.18.13.27s0-.08,0,0l.06.15c.08.21.15.42.21.64a.75.75,0,0,0,1.45-.4Z"/><path class="cls-3" d="M158.16,696.33l-2.83-2.82a.75.75,0,1,0-1.06,1.06l2.83,2.82a.75.75,0,0,0,1.06,0,.76.76,0,0,0,0-1.06Z"/><path class="cls-3" d="M149,687.43l-.52-.44a.61.61,0,0,0-.24-.15.64.64,0,0,0-.58,0,.61.61,0,0,0-.24.15l-.12.15a.86.86,0,0,0-.1.38l0,.2a.69.69,0,0,0,.19.33l.52.44a.51.51,0,0,0,.25.16.45.45,0,0,0,.28.06.48.48,0,0,0,.29-.06.45.45,0,0,0,.24-.16l.12-.15a.7.7,0,0,0,.1-.38l0-.19a.79.79,0,0,0-.2-.34Z"/><ellipse class="cls-4" cx="215.86" cy="748.28" rx="24.69" ry="23.63" transform="translate(-562.25 780.87) rotate(-76.31)"/><ellipse class="cls-2" cx="104.02" cy="616.51" rx="23.63" ry="24.69"/><ellipse class="cls-4" cx="849.11" cy="251.57" rx="23.63" ry="24.69"/><path class="cls-3" d="M746.2,186.21a9,9,0,0,1,1.22-2.72,9.49,9.49,0,0,1,2-2.19.75.75,0,1,0-1.06-1.06,10.74,10.74,0,0,0-3.63,5.57.75.75,0,0,0,1.45.4Z"/><path class="cls-3" d="M756.45,176.16a11.62,11.62,0,0,1,5.67-3.44.75.75,0,0,0-.4-1.45,13.18,13.18,0,0,0-6.33,3.83.77.77,0,0,0,0,1.06.75.75,0,0,0,1.06,0Z"/><path class="cls-3" d="M769.94,170.94l6.07-.86a.75.75,0,1,0-.4-1.45l-6.07.87a.76.76,0,0,0-.53.92.77.77,0,0,0,.93.52Z"/><path class="cls-3" d="M741.33,194.7a13,13,0,0,0-.59,7.75c.21.94,1.66.54,1.44-.4a11.72,11.72,0,0,1,.6-7,.76.76,0,0,0-.52-.93.79.79,0,0,0-.93.53Z"/><path class="cls-3" d="M741.68,212a21,21,0,0,0,1.85,5.71.75.75,0,0,0,1.3-.76,19.41,19.41,0,0,1-1.7-5.35.76.76,0,0,0-.92-.53.78.78,0,0,0-.53.93Z"/><path class="cls-3" d="M748.47,227.16a22.16,22.16,0,0,0,5,5.42.77.77,0,0,0,1.06,0,.75.75,0,0,0,0-1.06,20.92,20.92,0,0,1-4.74-5.11.75.75,0,0,0-1.3.75Z"/><path class="cls-3" d="M758.72,236.5a47.52,47.52,0,0,0,5.65,4.13.75.75,0,1,0,.76-1.3,44.24,44.24,0,0,1-5.35-3.89.77.77,0,0,0-1.06,0,.75.75,0,0,0,0,1.06Z"/><path class="cls-3" d="M772.22,242.85a53.52,53.52,0,0,0,7.86,1.32.75.75,0,0,0,.75-.75.77.77,0,0,0-.75-.75,50.75,50.75,0,0,1-7.46-1.26c-.94-.23-1.34,1.21-.4,1.44Z"/><path class="cls-3" d="M789.38,242.82a23.69,23.69,0,0,1,5.94-2.08.75.75,0,1,0-.39-1.45,25.1,25.1,0,0,0-6.31,2.24.75.75,0,1,0,.76,1.29Z"/><path class="cls-3" d="M801.76,235.78a6.51,6.51,0,0,0,3.51-2.47.75.75,0,0,0-.27-1,.77.77,0,0,0-1,.27l-.07.1c-.06.08.11-.15,0,0l-.14.17-.31.33a3.27,3.27,0,0,1-.35.3l-.09.08,0,0-.2.14a5.35,5.35,0,0,1-.77.45l-.11.05,0,0,0,0-.09,0a4.11,4.11,0,0,1-.46.15.75.75,0,1,0,.4,1.44Z"/><path class="cls-3" d="M812,224.38l2.49-4.27a.75.75,0,1,0-1.3-.76l-2.48,4.28a.75.75,0,0,0,1.29.75Z"/><path class="cls-3" d="M816.44,208.29l.3-1.84a.78.78,0,0,0-.07-.58.75.75,0,0,0-1.37.18l-.31,1.84a.84.84,0,0,0,.07.58.81.81,0,0,0,.45.34.74.74,0,0,0,.58-.07.79.79,0,0,0,.35-.45Z"/><path class="cls-3" d="M813.84,195.45,812,191.76a.76.76,0,0,0-1-.27.77.77,0,0,0-.27,1l1.84,3.68a.75.75,0,1,0,1.29-.75Z"/><path class="cls-3" d="M809.58,185.31a8.73,8.73,0,0,0-4.43-3.76.76.76,0,0,0-.92.53.77.77,0,0,0,.52.92l.18.07c-.06,0-.08,0,0,0l.31.15c.19.09.38.2.57.31l.52.34.12.09,0,0,.26.22a7.57,7.57,0,0,1,.89.9l.1.12c0,.06.08.11,0,0l.18.26c.13.18.25.38.36.57a.75.75,0,0,0,1.3-.75Z"/><path class="cls-3" d="M797.63,174.94l-3.42-2.07a.76.76,0,0,0-1,.26.78.78,0,0,0,.27,1l3.42,2.07a.76.76,0,0,0,1-.26.77.77,0,0,0-.27-1Z"/><path class="cls-3" d="M786.6,168.47l-.61-.31a.71.71,0,0,0-.28-.09.61.61,0,0,0-.3,0,.53.53,0,0,0-.26.13.55.55,0,0,0-.19.21l-.07.18a.68.68,0,0,0,0,.4l.07.18a.87.87,0,0,0,.27.27l.61.3a.49.49,0,0,0,.28.09.51.51,0,0,0,.3,0,.64.64,0,0,0,.26-.13.76.76,0,0,0,.19-.21l.08-.18a.9.9,0,0,0,0-.4l-.08-.18a.87.87,0,0,0-.27-.27Z"/><path class="cls-5" d="M159.35,319.13a54,54,0,0,1-19.52-10.61A19.61,19.61,0,0,1,134.4,302a21.1,21.1,0,0,1-1.44-5.48,87.3,87.3,0,0,1-1.08-15.14,2.19,2.19,0,0,1-2.65-1,6.46,6.46,0,0,1-.67-3l-.39-7.56a3.61,3.61,0,0,1,.23-1.85,1.24,1.24,0,0,1,1.57-.65c.39.21.57.67.81,1.05a2.88,2.88,0,0,0,1.5,1.16,32.69,32.69,0,0,0,1.08-10.37,10.41,10.41,0,0,1,.16-3.78c.76-2.41,3.33-3.72,5.75-4.44,6.12-1.83,12.67-1.51,19-.66s12.62,2.22,19,2.45c2.81.1,5.63,0,8.42.25l.13.2c1.38,4.36,2.77,8.87,2.28,13.41-.3,2.74-1.28,5.39-1.29,8.13,1.77-.33,2.77-2.76,4.56-2.61a2.42,2.42,0,0,1,1.95,1.92,7.1,7.1,0,0,1-.11,2.9l-1.6,8.92a1.88,1.88,0,0,1-.8,1.49c-.83.39-1.69-.6-1.87-1.51-2.54,6.49-1.13,14.39-5.16,20.06a23.28,23.28,0,0,1-4.09,4.15,51.69,51.69,0,0,1-9.52,6.88,19.13,19.13,0,0,1-11.35,2.32"/><path class="cls-6" d="M163.25,482.06l-10,290.54c3.16-95.87,6.67-193.79,9.36-289.67l.14.05-52.63,5.95a2.37,2.37,0,0,0-2.65,2.69l-1.07,12.16.29-3.67q10.55,132.06,33.83,262.7c.6,3.35,1.25,6.82,3.19,9.61,2.27,2,6.94,1.34,9.55-.24"/><path class="cls-6" d="M206.32,477.59,196.34,768c3.16-95.86,6.67-193.67,9.36-289.55l.13.05-52.62,5.95a2.39,2.39,0,0,0-2.66,2.69l-1.06,12.16.29-3.67q10.53,132.06,33.83,262.7c.59,3.35,1.24,6.82,3.19,9.61,2.27,2,6.94,1.34,9.55-.24"/><path class="cls-5" d="M146.21,773.71v2.44l4.87.2v-2.43"/><path class="cls-5" d="M188.94,769.43l.31,2.92-.22-.09c-.5.09-1.16.44-1,.91a.82.82,0,0,0,.47.38A7,7,0,0,0,195,773a.7.7,0,0,0-.87-.38l-.35.14a12.19,12.19,0,0,0,.12-3.57"/><path class="cls-7" d="M133,443.69c7.54,8.27,18.51,12.45,29.28,15.49,16.78,4.74,34.29,7.4,51.67,6.08,3-8.43,3.24-17.55,3.26-26.5a567.39,567.39,0,0,0-7.3-91.76c-12.12-6.65-25.82-14.11-37.94-20.76a18.37,18.37,0,0,0-6.67-2.58,17.21,17.21,0,0,0-6.82,1.1,186.94,186.94,0,0,0-18,6.63l10.5-5.09q-22.36,11.47-45.07,22.26l-.37.41a301.52,301.52,0,0,0-26.2,107.45l.31-.12a494.37,494.37,0,0,0,100.62-30.43l.5-.31a7.56,7.56,0,0,1,3-7.81l-.31-.26c-5.19-2.45-11.07-2.84-16.8-3.17q-25.85-1.44-51.75-2"/><path class="cls-7" d="M134.84,546c4.42-19.17,6-39.06,7.54-58.67,2.42,19,5.45,40.71,6.23,59.85,10.43-.64,22.55,3.74,33,3.57,7-.1,13.79-2,20.51-3.93,1.17-.33,2.6-1,2.47-2.23a274.57,274.57,0,0,0,1-78.29l-.52.19c-12.49-.95-24.28-1.86-36.44-4.92s-24-8.36-33.07-17a4.22,4.22,0,0,0-1.43-1,4.09,4.09,0,0,0-2.71.34,179.2,179.2,0,0,1-29.59,8l-.5.05a732.08,732.08,0,0,0-5.87,83.71,6.54,6.54,0,0,0,.6,3.46A6,6,0,0,0,98.15,541c10.55,6.46,24.89,8,36.77,4.62"/><path d="M183.22,418.73a2,2,0,0,1,.17.32l-.08-.18a2.66,2.66,0,0,1,.17.63l0-.2a2.15,2.15,0,0,1,0,.62l0-.2a1.18,1.18,0,0,1,0,.2.78.78,0,0,0,.08.58.75.75,0,0,0,.45.35.76.76,0,0,0,.57-.08.75.75,0,0,0,.35-.45,3.22,3.22,0,0,0-.37-2.35.77.77,0,0,0-1-.27.78.78,0,0,0-.27,1Z"/><path d="M181.2,424.71a4.61,4.61,0,0,0,3.63-3.8c.15-1.05,0-2.39-1.15-2.8a1.9,1.9,0,0,0-1.62.25,3.16,3.16,0,0,0-1,1.31,12,12,0,0,0-1,3.76.75.75,0,1,0,1.5,0,10.62,10.62,0,0,1,.61-2.47,6.22,6.22,0,0,1,.51-1.08c0-.08,0,0,.11-.13s.19-.16.12-.12l.1-.05c.1-.07-.09,0,0,0l.1,0c.13,0,0,0,.06,0h.11c-.16,0,0,0,0,0s-.09-.07,0,0-.06-.08,0,0,0,0,0,0a.54.54,0,0,1,.07.13s0-.1,0,0,0,.12,0,.18a.77.77,0,0,1,0,.15s0-.11,0,0a1.93,1.93,0,0,1,0,.24,2.08,2.08,0,0,1,0,.25c0,.05,0,.1,0,.14s0-.11,0,0-.07.33-.11.48a2.25,2.25,0,0,0-.08.24c-.05.14,0,.05,0,0l-.06.13a4.63,4.63,0,0,1-.24.43,2,2,0,0,1-.17.23c.08-.1-.09.1-.11.12a3.78,3.78,0,0,1-.4.4s-.12.08,0,0l-.11.08-.24.16-.25.13-.13.06c.1,0,0,0-.05,0a3.1,3.1,0,0,1-.58.15.75.75,0,0,0,.39,1.45Z"/><path d="M182.74,420.13l-1.69,2.9a.75.75,0,0,0,1.3.75l1.69-2.89a.75.75,0,0,0-1.3-.76Z"/><path class="cls-5" d="M127.14,412.57c-4.08-1.57-9.2.69-12.83-1.75a45.18,45.18,0,0,1-1.3-8.16c3.17,0,7.66-.65,10.76,0a82.9,82.9,0,0,0,3.41,9.6"/><path class="cls-5" d="M199.24,428.66c.64-1.67,1.07-4.46.47-6.14l-.83-.38a15.37,15.37,0,0,0-7.31-2.41l-8.22.32c.81.52,1.12.15,1.71.9h0a7.26,7.26,0,0,1,4.28-.93l1.1.43a9.69,9.69,0,0,1,4.47,3.37,72.8,72.8,0,0,1,7.69,10.66l.25.55a16.34,16.34,0,0,1-5.7,5.12,44.53,44.53,0,0,1-7.16,3.08l-.33.21a6.25,6.25,0,0,1-3.21-2.74q-4-5.55-7.54-11.46h0a17.07,17.07,0,0,1,3.35-6.14l.43-.28c-.67-.67-.64-.91-1.32-1.58"/><path class="cls-8" d="M131.71,270.29c1.78-4.18,1.63-9.05,3.8-13,2.41-4.44,7.4-7,12.4-7.71s10.09.25,15,1.39,9.86,2.47,14.91,2.56a49.86,49.86,0,0,0,14.3-2.28c3.54-1,7.5-2.59,8.68-6.07a9.78,9.78,0,0,0,.11-4.78,26.8,26.8,0,0,0-20.41-21.08,39.52,39.52,0,0,0-13.29-.1,79.77,79.77,0,0,0-19.09,5c-7.4,3-14.74,7.44-18.28,14.6-3.18,6.44-2.75,14.24-.17,20.94,1,2.59,2.31,5.32,1.59,8-.25.94-.54,2.32.4,2.59Z"/><path class="cls-8" d="M186.48,254a13.56,13.56,0,0,1,.56,8.71,11.53,11.53,0,0,0-.64,2.88,2.5,2.5,0,0,0,1.37,2.41c1.33.51,2.65-.67,3.58-1.74a35.75,35.75,0,0,0,4.78-6.41,12.34,12.34,0,0,0,1.58-7.72c-.15-.9-.6-1.93-1.5-2.08a2.32,2.32,0,0,0-1.28.25c-2.73,1.1-5.39,2.78-8.34,2.71Z"/><path class="cls-5" d="M162.49,271.44c7-.68,15.3-1.06,22.31-1.58a1.54,1.54,0,0,1,1.33.31,1.43,1.43,0,0,1,.29.93c.33,4.61-.61,9.21-1.54,13.73a1.4,1.4,0,0,1-.28.7,1.35,1.35,0,0,1-.72.32c-4.86,1-9.88.53-14.82,0a6.2,6.2,0,0,1-2.45-.58c-1.65-.89-2.19-2.95-2.5-4.8-.46-2.7-1-6.64-1.22-9.37"/><path class="cls-5" d="M156,271.05c-6.78-.67-14.88-1.11-21.67-1.62a1.52,1.52,0,0,0-1.29.3,1.46,1.46,0,0,0-.28.92c-.32,4.51.59,9,1.49,13.45a1.41,1.41,0,0,0,.28.69,1.31,1.31,0,0,0,.7.3c4.7,1,9.56.53,14.34.05a6.4,6.4,0,0,0,2.38-.57c1.6-.87,2.12-2.9,2.42-4.71.44-2.64,1.15-6.64,1.33-9.32"/><path class="cls-5" d="M162.89,275.32q-3.78.07-7.56,0"/><path class="cls-7" d="M167.2,321.27l4.89,3.38c.39.27,2.39,2.13,1.58,1.83-.31-.11-.34.53-.42.85-.77,2.77-2.83,4.58-5.18,6.22a4.89,4.89,0,0,1-2.66,1c-1.69,0-3-1.31-4.19-2.55a10.6,10.6,0,0,1-2.93-4.49,13,13,0,0,0,5-2.24,24.28,24.28,0,0,0,3.68-4Z"/><path class="cls-7" d="M156.3,321l-3.21,1.61a34,34,0,0,0-3.13,1.73,1,1,0,0,0-.46.51.85.85,0,0,0,0,.42,12.83,12.83,0,0,0,2.19,4.63.72.72,0,0,0,.52.37.78.78,0,0,0,.36-.13A31.32,31.32,0,0,0,155.9,328a1,1,0,0,0,.29-.31,1,1,0,0,0,.06-.39,24.84,24.84,0,0,1,.7-5.82Z"/><path class="cls-7" d="M144.53,396.94c5.05-20.22,14.39-40.24,23.17-59.14a62,62,0,0,1,6.08-11l.16-.05a79.75,79.75,0,0,1,18.74,12.59l-28,36.82c-3,4-6,7.95-8.87,12.06s-5.39,8.21-7.79,12.48l-.42-.18a14.49,14.49,0,0,0-3-4"/><path class="cls-7" d="M140.36,331.67c-3.14,6.78-4.62,15.25-6.75,22.4a18.37,18.37,0,0,0-.88,3.71c-.21,2.45.67,4.85,1.51,7.16q5.38,14.81,9.41,30.07c.16.61.73,1,1.16,1.45l.34-.21c.67-2.16.68-4,1.35-6.15a5.8,5.8,0,0,0,.13-3.87c-1.47-7.18-3-14.4-3.37-21.73a35.29,35.29,0,0,1,.11-6.08,45.76,45.76,0,0,1,2.14-8.65q3-9.16,6.34-18.21a20,20,0,0,1-2.78-4.26l.07-.21c-3.24,1.24-5.78,3.83-9,5.09"/><path class="cls-5" d="M157.43,318.44c2.49.77,6,1.82,8.79.22h.22a16.94,16.94,0,0,0-.4,3.55l-.2.41c-2.3,1.24-4.12,2.42-6.42,3.65-.82.44-2.16,2-3,1.64l.2-1.41a31.75,31.75,0,0,0,.82-8.07"/><path class="cls-9" d="M155.72,341.17l2.21.2a.49.49,0,0,0,.27,0,.52.52,0,0,0,.22-.32l1.27-3.48a12.61,12.61,0,0,1,1.87-3.76l-.46-.76a7.24,7.24,0,0,1-2.45-3.25,2.49,2.49,0,0,0-.71-1.23c-.7-.49-1.65,0-2.34.53l-2.93,2.14-.39.49a36.33,36.33,0,0,0-1.6,6.76,2.68,2.68,0,0,0,.07,1.38c.35.81,1.36,1.06,2.24,1.21h-.78q-4.31,11.81-8.38,23.69l-.18-1a139.76,139.76,0,0,0,3.64,21.9c1.36-1.4,2.88-5.14,3.24-7.07l.68-1.67c1-12.85,5.12-22.18,5.79-35.05"/><path class="cls-5" d="M151.62,776.61h-4l-.89-.83-54,31.3.6.67a189.09,189.09,0,0,0,19.18,1l.25.26a280.14,280.14,0,0,0,39.95-10h.07q.34-11.58.3-23.17"/><path class="cls-5" d="M193.55,774.5h-4l-.89-.83-54,31.3.59.68q9.57,1,19.19,1l.25.26a280.14,280.14,0,0,0,39.95-10h.07q.35-11.58.3-23.17"/><path class="cls-6" d="M204.27,508.83c7.58,82.51,6.56,180.62,18.37,262.63l1.4.62c3.68-.33,5.92,0,9.25-1.75,17.35-88.47,24.4-158.24,17.69-250-8.81-29.79-10.06-3.92-13.31-6.52s-6.68-8.9-8.79-7.95-4.14,2.78-6.24,2.2c-4.44-1.24-4.95-13.91-18.37.8"/><path class="cls-5" d="M225.06,772.64l.47,7.64Z"/><path class="cls-5" d="M229.89,772.45a61.2,61.2,0,0,1-.12,7.66Z"/><path class="cls-5" d="M230.86,779.46a165.53,165.53,0,0,0,10.88,41.6,39,39,0,0,1,2.59,7.77.9.9,0,0,1-.06.7,1.47,1.47,0,0,1-.82.43,39.07,39.07,0,0,1-19.13.45l0-.07c-3.42-8.39-2.7-17.47-1.93-26.29l2.13-24.41.44-.39c-.36-.21,0,.37.21.69s.68.44,1.11.51a12.77,12.77,0,0,0,3.09,0c.73-.09,1.63-.44,1.52-1l-.77-.28"/><path class="cls-5" d="M274.29,253.11a55.12,55.12,0,0,1-30.12,19.16c-4.65,1.09-9.41,1.56-14.13,2.26-1.26.18-2.73.56-3.15,1.76a3.45,3.45,0,0,0,0,1.83,65,65,0,0,0,17,32.36c2.94,3,6.49,5.91,10.7,6.22,4.89.37,9.29-2.79,13-6a115.1,115.1,0,0,0,17.06-18.57c2.79-3.8,5.46-8.21,4.92-12.89a3.51,3.51,0,0,0-1.14-2.48,4.52,4.52,0,0,0-1.54-.63,17.77,17.77,0,0,1-12.25-18.34c.18-1.69.31-3.67-.94-4.83"/><path d="M253.86,317.9a7.14,7.14,0,0,0,3.25-.13.75.75,0,1,0-.4-1.45c-.22.06-.44.12-.67.16l-.16,0c.11,0,.12,0,0,0h-.08l-.35,0a5.3,5.3,0,0,1-.69,0l-.32,0c.11,0,.13,0,0,0h-.05l-.21,0a.76.76,0,0,0-.92.53.75.75,0,0,0,.52.92Z"/><path class="cls-5" d="M253.9,317.87l.94,4.79a.46.46,0,0,0,.13.29.43.43,0,0,0,.29.08,5.45,5.45,0,0,0,1.21-.11.67.67,0,0,0,.33-.15.75.75,0,0,0,.13-.36c.26-1.71.45-3.43.56-5.15Z"/><path class="cls-5" d="M258.17,321.24a1.21,1.21,0,0,1,1.14,1.12,1.84,1.84,0,0,1-.71,1.54,4.13,4.13,0,0,1-1.59.73,4.38,4.38,0,0,1-1.76.18,2.11,2.11,0,0,1-1.5-.86,1.39,1.39,0,0,1,0-1.65.21.21,0,0,1,.11-.08c.1,0,.18.08.24.17a1.9,1.9,0,0,0,3.23,0,5.57,5.57,0,0,1,.8-1.18Z"/><path class="cls-10" d="M244.74,359.36c-5,29-9.94,58.11-10.21,87.55-.21,22.62,2.35,45.5-1.69,67.71-9.61-.17-20.55-.74-27.87-7.34,11.64-28.57,17.2-63.75,13.27-94.58.23,40.72-16.33,79.47-20.48,120a21,21,0,0,1-5.9.6c-2.56,0-2.65-6-3-8.64-.55-4.77-.94-9.56-1.31-14.36q-3.53-46.62-2.8-93.45c.11-7.16.3-14.32.85-21.46a211.85,211.85,0,0,1,7.57-42.16c.85-3,1.19-6.57,3.6-8.41,5.26-4,18.73-9,22.35-9.71,7.1-1.46,5.24-1.23,11.56-3.11.71-.21,0,2.23.59,2.69a10.86,10.86,0,0,1,1.35,2.85c2.51,6.33,1.15,10.7-1.39,17-.74,1.83,0,2.5-.38,4.45s-.86,2.74.63,3.93c1.77,1.42,1,1.38,3.05.51,4-1.69,6.73-1.17,9.79-4.4Z"/><path class="cls-9" d="M260,323c-1.6,1.85-4.93,2.45-6.54.6-1.79,1.46-1.52,4.16-1.46,6.45.18,7.25-3.29,14-5.29,21-.87,3-1.47,6.15-2,9.25a583,583,0,0,0-9,129.88c.18,4.21-1.19,10.7-1.63,14.89-.55,5.27-1.3,7,2.18,9.36a25.56,25.56,0,0,0,5.81,3c10.26,2.64,8.06,2.07,14.85,2.26,5,.14,14.89-3.56,18.86-6.55,1.26-1,3.1-1.32,3.53-2.84s-.55-4-.78-5.51q-1.38-9.13-3.16-18.21c-1.24-6.3-2.63-12.56-3.8-18.87a281.39,281.39,0,0,1-4.67-45.41c-.41-18.87,1.09-37.74,3.08-56.51,1.14-10.68,2.55-23.53,4-34.17v.07c-1.58-1.32-3.56-2.05-5.36-3.06-3-1.67-5.53-4.11-8.59-5.67"/><path class="cls-6" d="M257.31,520.85c7.57,82.51,4.14,166,16,248l1.4.61c3.68-.33,5.91,0,9.25-1.74,17.34-88.48,25.69-182,14.09-271.4-6.36,5-4.74,11.76-12.6,13.66a37,37,0,0,0-6.68,1.9,50.85,50.85,0,0,0-5.6,3.39A31.24,31.24,0,0,1,257,519.85"/><path class="cls-5" d="M275.69,770l.46,7.65Z"/><path class="cls-5" d="M280.51,769.81a61,61,0,0,1-.12,7.65Z"/><path class="cls-5" d="M281.48,776.81A163.25,163.25,0,0,0,292.36,818a39.24,39.24,0,0,1,2.6,7.7.91.91,0,0,1-.07.69,1.43,1.43,0,0,1-.81.44,39.44,39.44,0,0,1-19.13.44l0-.06c-3.42-8.32-2.69-17.33-1.92-26.07L275.11,777l.45-.39c-.36-.2,0,.37.21.69s.67.44,1.1.5a12.78,12.78,0,0,0,3.09,0c.73-.08,1.63-.43,1.52-1l-.76-.27"/><path class="cls-5" d="M198.21,541.83c2.21,8.41,1.53,17.27.83,25.93a1.16,1.16,0,0,1-.19.66,1.09,1.09,0,0,1-.67.32Q193,570,187.7,570.67h-.47a197.94,197.94,0,0,1,1.18-33.55l.47-.7a13.77,13.77,0,0,1,3-2l.55,0v-1.94l3.18-.18v1.95l1.08.55a2.41,2.41,0,0,1,1.2-.47l.53.28a7.5,7.5,0,0,1,2.13,3.84,63.54,63.54,0,0,1,1.56,6.22l-.3.2c-1.41.66-1.73.33-3.14,1"/><path class="cls-10" d="M269.05,371.63l-1.81,27c-1.58,34.86,1.11,20.26,1.37,49.7.19,22.62,3.44,42.61,7.17,64.83a36.41,36.41,0,0,0,24.46-10.58,196.56,196.56,0,0,1-11-91.35c-.21,40.72,15.1,79.47,18.93,120a18,18,0,0,0,5.46.6c2.36,0,2.44-6,2.72-8.64.51-4.77.87-9.56,1.21-14.36q3.25-46.61,2.59-93.45c-.1-7.16-.28-14.32-.78-21.46a227.15,227.15,0,0,0-7-42.16,26.8,26.8,0,0,0-3.33-8.4c-2.1-3.06-5.25-4.9-8.4-6.34a54.56,54.56,0,0,0-17.38-4.74,2.65,2.65,0,0,0-2,.36c-.42.35-8.84-2.5-8.94-1.92-1.11,6.63-.31,18-2,26.15-.54,2.66-.48.69-.54,2.66-.09,3-.28,10.42-.78,12.17"/><path class="cls-5" d="M287.88,546.51c-2.1,8.41-1.45,17.27-.79,25.93a1.23,1.23,0,0,0,.18.66,1.12,1.12,0,0,0,.64.32,98.68,98.68,0,0,0,9.92,1.93h.45a207.72,207.72,0,0,0-1.13-33.55l-.44-.7a12.69,12.69,0,0,0-2.81-2l-.52,0V537.2l-3-.18V539l-1,.56a2.31,2.31,0,0,0-1.15-.48l-.5.29a7.7,7.7,0,0,0-2,3.84c-.59,2-1.09,4.12-1.48,6.22l.29.2c1.33.66,1.64.33,3,1"/><path class="cls-8" d="M287.45,341.09c-.65-10.87,1.73-19.65,5.17-29.78,6.41-18.9,8.65-33.29,1.32-51.73-1.85-4.65-3.67-8.75-7.06-12-3.65-3.52-19.45-8.5-24.9-9-15.11,0-15.92.34-30.5,9.8-11.6,11.07-18.78,24.66-19,42.14-.09,6.76.84,13.66,3.61,19.59,2.12,4.56,5.23,8.36,7.87,12.52,7.18,11.34,10.72,27,5.48,39.7-1.1,2.68-2.6,5.66-1.61,8.4a5.82,5.82,0,0,0,1.46,2.19c3.14,3,8,2.27,11.3-.57s5.15-7.3,6.6-11.73a90.39,90.39,0,0,0,4.41-28.34c0-3.78-.32-7.74-2.07-10.91a27.64,27.64,0,0,0-3.88-4.89,64,64,0,0,1-14.88-31.32,4.06,4.06,0,0,1,.09-2.42,3,3,0,0,1,2.23-1.32c7.2-1.62,14.44-3.39,21.17-6.79a39.08,39.08,0,0,0,16.94-15.78c.14,4.15.28,8.37,1.43,12.3s3.47,7.61,6.79,9.11c1.3.59,2.75.85,3.86,1.84,1.67,1.48,2.12,4.29,1.63,6.66a18.57,18.57,0,0,1-3,6.37,149.65,149.65,0,0,1-19,23.42,11,11,0,0,0-2.31,2.91,8.69,8.69,0,0,0,0,6.48c2.09,5.77,7.65,8.48,12.69,10.63l7.25,3.09c2.22.95,5.06,1.74,6.65-.3Z"/><path class="cls-5" d="M880.12,765c.15-11.88-1.74-26.42-2.87-39.88-.71-8.42-.87-15-1.22-23.43-.17-4.23-.46-8.45-.68-12.67a362.82,362.82,0,0,1,.31-42.36l.28-.63c8.36-.67,18-3,26.12-4.94"/><path class="cls-5" d="M902.06,641.06c-7.68,39.37-13.26,84.45-16.47,124.44"/><path class="cls-5" d="M832.33,769a725.06,725.06,0,0,1-.61-104c.26-3.52.54-7,.47-10.58-.12-6-1.12-12.52-.14-18.39h0a106.36,106.36,0,0,0,27.76,8.72"/><path class="cls-5" d="M860.16,644.91C852.68,684,844.7,729.61,839,769"/><path class="cls-11" d="M845.43,240.94a15.23,15.23,0,0,0,.88,11.25,39.51,39.51,0,0,0,6.61,9.45c2.62,3,5.38,6,8.83,8a29.3,29.3,0,0,0,5.62,2.39,51.1,51.1,0,0,0,16.38,2.42c2.84-.05,6-.25,8.22,1.48.39.3.91.67,1.32.39a1.31,1.31,0,0,0,.37-.66c.8-2.13,3.53-2.73,5.07-4.4a9.87,9.87,0,0,0,1.41-2.28c1.94-3.9,3.93-8.05,3.56-12.39a21.47,21.47,0,0,0-2.6-7.67,33,33,0,0,0-2.7-4.64c-2.65-3.65-6.45-6.25-10.27-8.63a45.39,45.39,0,0,0-7.71-4.06,26.73,26.73,0,0,0-16.56-.83c-4.87,1.33-14.38,1-17.79,5.84-1.33,1.89.28,3.41-.92,5.38Z"/><path class="cls-11" d="M848.56,256.72a12.28,12.28,0,0,1-6.4,14.22c-1.95.89-4.36,1.46-5.24,3.41-.44,1-.4,2.12-1,3-.9,1.38-3,1.52-4.43.73a9.65,9.65,0,0,1-3.24-3.66c-3.47-5.73-6.62-12.15-6-18.82a23.87,23.87,0,0,1,2.56-8.29,21.67,21.67,0,0,1,2.94-4.6,15.77,15.77,0,0,1,14.64-5.08c1,.18,4.73-.31,5.28.5.81,1.21-2.54,3.65-2.75,5.09-.37,2.5.54,5,1.44,7.36l2.54,6.68Z"/><path class="cls-5" d="M893.3,277.07a4.58,4.58,0,0,1,3.2.07,20.4,20.4,0,0,1-.92,10,4,4,0,0,1-.59,1.19,4.57,4.57,0,0,1-.7.69l-1.87,1.58.11.16a116.3,116.3,0,0,1-5.73,13.5,38.58,38.58,0,0,1-8.88,11.58,26.41,26.41,0,0,1-14.5,6.46h0c-2.82.51-5.5-1.26-7.78-3A76.83,76.83,0,0,1,843.13,308a33.77,33.77,0,0,1-7.61-14.89l-.3-.65a2.23,2.23,0,0,1-2.1-1,6.6,6.6,0,0,1-.87-2.3l-1.92-7.92a2.51,2.51,0,0,1,.13-2.15c.6-.76,1.8-.56,2.72-.26s2.06.6,2.77-.06.51-1.67.62-2.56a6.15,6.15,0,0,1,3.09-4.14c1.51-.95,3.2-1.58,4.69-2.56a11.43,11.43,0,0,0,4.8-11.13v.51c2.46,2.23,4.65,4.75,7.08,7a23.19,23.19,0,0,0,8.3,5.37,29.51,29.51,0,0,0,4.47,1l7.77,1.35a47.28,47.28,0,0,0,9.76,1c1.36,0,2.81-.19,4,.49,1,.55,1.8,1.65,2.88,1.42a4.51,4.51,0,0,1,.58-1.4"/><path class="cls-5" d="M927,489.87A20.59,20.59,0,0,1,929,495l-.55.6-3.4,2.23a6.86,6.86,0,0,0-1.66,1.37c-1.24,1.6-.73,4,.5,5.63.13.16.3.34.51.32a.67.67,0,0,0,.38-.22c.58-.57,1-.66,1.55-1.23h0L929,517.39a2.34,2.34,0,0,0,.32.93c.61.87,2,.54,2.93.1,1.94-.88,4-1.93,5-3.81h0c1.12-7.74-2.26-14-3.35-21.74l-.44-.27c-.35.35-.56-.25-.91.1l-.62.83c-.33-1.59-1.27-2.85-1.94-4.33"/><path class="cls-9" d="M900.3,382.71c3.09,5.22.76,11.82-.64,17.72-.88,3.73,2.06,6.13.86,9.77-1.31,4-.86,8.28-.18,12.4,1.44,8.68,2.5,20.87-1.53,28.68-3.76,7.32.18,11.44,10.32,22.35l5.3.89c-28.17,9.65-58.69,10.05-86.3-1.75-3.32-28.53,1.51-58.09-1.69-86.63-.46-4.11-15-6.24-15.48-10.34a149.17,149.17,0,0,0-4.31-21.65c16.67-10.08,36.79-20.24,54.45-28.46l4.26-.29c18.48,6.17,33.08,18.15,50.3,27.26v3.26c8.29,45.82-.55,82.81,14.1,123.93l.9.75c-1.17,1-2.73,2.4-4.23,2.71h0c-.36.26-5.23,1.19-5.38.55-2-8.93,1.51-13.4-3.42-21.9-1.37-2.36-.6-7.95-2-10.31-1.18-2-3.95-26.83-4.36-29.14-3.71-20.67,1-2.87-3.08-23.16"/><path class="cls-12" d="M915.66,473.91a32.78,32.78,0,0,0-.35,4.53c-8,5-16.66,5.86-26.06,6.7a165,165,0,0,1-31,.34,79.85,79.85,0,0,1-29.16-8.26c-.09-.9-.63-2.67-.72-3.57l.06,0,10.14,3.42a68.36,68.36,0,0,0,7.92,2.32,67.62,67.62,0,0,0,10.64,1l9.31.4c4,.17,8,.34,11.94.28a104.47,104.47,0,0,0,36.88-7.36"/><path class="cls-6" d="M816.73,476.26c3.25,2.08,7.82,5,11.52,6,27.21,7.57,57.47,7.11,84.25-1.93l.83-.15c11.09,47.62,18.51,97.53,8.15,145.32-1.84,8.5-2.89,13.24-8.41,19.87-14,6.62-32.66,10.55-48.12,9.89s-30.85-5.86-43-15.67c-3.36-2.72-6.52-5.87-8.35-9.83a35,35,0,0,1-2.41-9.16A401.35,401.35,0,0,1,809.57,501c1.15-8.42,3.45-18.86,7.95-26"/><path class="cls-5" d="M801.72,486.72a20.16,20.16,0,0,0-2,5l.54.58,3.32,2.19a6.33,6.33,0,0,1,1.62,1.33c1.21,1.57.71,3.93-.49,5.5-.13.16-.29.34-.5.32a.63.63,0,0,1-.36-.22c-.58-.55-1-.65-1.52-1.2h0l-2.56,13.37a2.34,2.34,0,0,1-.31.91c-.6.85-1.92.53-2.86.1-1.91-.86-3.9-1.89-4.89-3.72h0c-1.09-7.56,2.2-13.68,3.27-21.24l.43-.27c.35.35.54-.24.89.1l.61.81c.31-1.55,1.24-2.78,1.89-4.23"/><path class="cls-5" d="M861,321.93a18.82,18.82,0,0,1,.49,3.08l-.29.26a.54.54,0,0,0-.24.69,1.12,1.12,0,0,0,.61.52,3.93,3.93,0,0,0,3.4-.61,1.88,1.88,0,0,0,.55-.46.64.64,0,0,0,0-.68.4.4,0,0,0-.61-.07l-.32.42v-3"/><path class="cls-5" d="M839,805.6l1.24-28.72a64.82,64.82,0,0,0,0-6.83L839,769a.83.83,0,0,1,1,.35,18,18,0,0,1-8.59,0c.33-.41,2.72.45,2.72.45l-2.72-.45c-1.76,1.66-3.42,3.15-5.33,4.63-13.62,10.61-28.23,19.92-41.51,31a28.32,28.32,0,0,0,4.53,2.38l.31.23c5.67,1.81,11.73,1.93,17.68,1.91,10,0,22.31-.53,31.65-4.16"/><path class="cls-5" d="M886.27,764.88c2.09,14.21,10.11,28.18,12.22,42.38l-3.58,1,.26,0a47.35,47.35,0,0,1-21.54.35,4.44,4.44,0,0,1-2.38-1.09,3.88,3.88,0,0,1-.79-1.63c-.84-3.14-.35-6.47.21-9.67,1.82-10.47,4.3-21,9.12-30.42h0c0,.43.24-.25.6,0s.58-.8.93-1.06c2.69-2,3.87.58,4.95.17h0"/><path d="M860.25,326.78a.75.75,0,0,0,0-1.5.75.75,0,0,0,0,1.5Z"/><path class="cls-10" d="M916.73,484.19c2.25-18.1-9-34.9-12.85-52.71-2.86-13.09-1.74-26.68-.59-40q7.59,48.56,15.15,97.13l13.73-3a1.88,1.88,0,0,0,1.92-2.36q-3.62-60.28-10.52-120.3c-.48-4.15-1.06-8.53-3.63-11.84a21.32,21.32,0,0,0-5.75-4.7c-15-9.4-31.74-15.69-48.33-21.91l-.64.5a49.06,49.06,0,0,1,10.26,10.19,73.76,73.76,0,0,0-9.67,3.47,42.76,42.76,0,0,1,12,8.8,23.2,23.2,0,0,0-8.56,10.3c-1.89,4.12,8.38,127.73,7.42,132.15h.62c2.84,1,6,.63,9,.17a254.9,254.9,0,0,0,30.93-6.78"/><path class="cls-10" d="M809.38,485.73c-2.25-18.1,9-34.9,12.85-52.71,2.86-13.09,1.73-26.68.59-40q-7.59,48.56-15.16,97.13l-13.72-3a1.88,1.88,0,0,1-1.92-2.36q3.62-60.28,10.52-120.3c.48-4.15,1.06-8.53,3.62-11.84a21.52,21.52,0,0,1,5.76-4.7c15-9.4,31.74-15.69,48.33-21.91l.64.5a49.07,49.07,0,0,0-10.26,10.19,73.11,73.11,0,0,1,9.66,3.47,43.05,43.05,0,0,0-11.95,8.8,23.15,23.15,0,0,1,8.57,10.3c1.89,4.12-8.39,127.73-7.42,132.15h-.62c-2.84,1-6,.63-9,.17A255.47,255.47,0,0,1,809,484.84"/><path class="cls-13" d="M751.93,789.26c-.38,2.13-.79,4.73-1.08,6.87l-2.59-.34a60.4,60.4,0,0,1,.14-7.12"/><path class="cls-5" d="M752.73,794.46q-.87,14.29-1.35,28.64l-.16.4a24.41,24.41,0,0,1-5.76,2.45L699.74,840.8l-.72.05c-4.67-2.5-5.82-3.34-9.6-7.65l57.36-39.76.63-.6c-.25,0,.22-.14,0,0a.83.83,0,0,0-.39.73,1.1,1.1,0,0,0,.86.93,6.24,6.24,0,0,0,4.24-.11.79.79,0,0,0,.48-.38.84.84,0,0,0-.27-1,1.34,1.34,0,0,0-.86-.17"/><path class="cls-6" d="M763.05,496.94c-5,2-10.34,2.51-15.65,2.6A115.41,115.41,0,0,1,726.67,498a11.38,11.38,0,0,1-3.36-.94l-.19.32c-3.93,32.82-2.76,66.6.4,99.73,1.19,12.4,2.51,27.11,3.29,39.54,3.2,50.59,12.19,98.48,17.57,148.88l-.15.59a3.45,3.45,0,0,0,1.13,1.53,7.64,7.64,0,0,0,5.15,1.9,7.44,7.44,0,0,0,5-2.18l.28-.13c2.91-58.13,3.39-116.44,3.88-174.73.19-22.12,2.9-92.5,3.08-114.62"/><path class="cls-6" d="M764.84,493.67c5,2,10.33,2.51,15.64,2.6a115.58,115.58,0,0,0,20.74-1.51,11.32,11.32,0,0,0,3.35-.94l.19.32c3.93,32.82,2.76,66.6-.4,99.73-1.18,12.4-2.5,27.11-3.29,39.54-3.19,50.59-12.18,98.48-17.56,148.88l.15.59a3.55,3.55,0,0,1-1.13,1.53,7.62,7.62,0,0,1-5.16,1.9,7.44,7.44,0,0,1-5-2.18l-.27-.13c-2.91-58.13-3.4-116.44-3.89-174.73-.18-22.12-2.9-92.5-3.08-114.62"/><path class="cls-13" d="M776.4,786.4c.38,2.13.79,4.73,1.08,6.87l2.59-.34a60.4,60.4,0,0,0-.14-7.12"/><path class="cls-5" d="M775.6,791.6q.87,14.29,1.35,28.64l.16.4a24.23,24.23,0,0,0,5.76,2.45l45.71,14.85.73,0c4.67-2.5,5.82-3.34,9.59-7.65l-57.35-39.76-.63-.6c.24,0-.22-.14,0,0a.83.83,0,0,1,.39.73,1.1,1.1,0,0,1-.86.93,6.27,6.27,0,0,1-4.25-.11.77.77,0,0,1-.47-.38.82.82,0,0,1,.27-.95,1.33,1.33,0,0,1,.85-.17"/><path class="cls-14" d="M768.17,324.37c-8.18-1.71-15.57-7.86-20.19-14.83s-7.14-15.11-8.94-23.27c-2.26-10.25-3.42-21.17,0-31.09a35.28,35.28,0,0,1,5.76-10.41c4.86-6.07,12-10.5,19.68-11.4,8.43-1,17.09,2.33,23.29,8.12s10,13.87,11.43,22.24a58.08,58.08,0,0,1-1.82,25.19,76.57,76.57,0,0,1-5.54,14.14c-5,9.77-13,19-23.69,21.31Z"/><path class="cls-15" d="M763.91,329.22l1.36-5.54c-.28,2.3-.65,3.91-.73,6l-.42-.56c-.32,0-.52.41-.37.7a1.26,1.26,0,0,0,.81.52,8.22,8.22,0,0,0,5.65-.45.31.31,0,0,0,.16-.11c.08-.13,0-.3-.16-.38a1.33,1.33,0,0,1-.4-.24h-.51a28.68,28.68,0,0,0-.55-5l1.47,5.53"/><path class="cls-14" d="M807.67,552a11.07,11.07,0,0,0,0,3.15,3.8,3.8,0,0,0,1.66,2.59,5.34,5.34,0,0,0,2,.57,45.26,45.26,0,0,0,10.47.26c1.73-.17,3.65-.54,4.68-1.95l.13-.23a50.86,50.86,0,0,0,2.35-9.93,17.18,17.18,0,0,0-1.69-9.92l-.22-.48c-2.57.18-5.12.43-7.67.77H819a2.78,2.78,0,0,0,0-1.11,10.29,10.29,0,0,1-.13-2l-3.23.14c0,.92.07,1.85.14,2.77l-.75.17a20.93,20.93,0,0,0-5.28.77,11.19,11.19,0,0,0-4.6,2.62l-.44.17a16.05,16.05,0,0,0,.39,10.4,1.47,1.47,0,0,0,.42.66.53.53,0,0,0,.71,0l-.21.17a26.82,26.82,0,0,0,4.09-.56c.12,0,.26-.19.15-.24l0-.35a16.33,16.33,0,0,0,.16-5.08"/><path class="cls-16" d="M721.82,501.75c13.73,4.56,28.49,5.48,42.89,4.1s28.5-5,42.29-9.4"/><path class="cls-14" d="M724.49,552a11.45,11.45,0,0,1,0,3.15,3.83,3.83,0,0,1-1.66,2.59,5.34,5.34,0,0,1-2,.57,45.28,45.28,0,0,1-10.47.26c-1.74-.17-3.65-.54-4.68-1.95l-.14-.23a51.56,51.56,0,0,1-2.34-9.93,17.25,17.25,0,0,1,1.68-9.92l.23-.48c2.56.18,5.12.43,7.67.77h.37a2.78,2.78,0,0,1,0-1.11,11.14,11.14,0,0,0,.13-2l3.23.14c0,.92-.08,1.85-.14,2.77l.75.17a20.93,20.93,0,0,1,5.28.77,11.19,11.19,0,0,1,4.6,2.62l.44.17a16,16,0,0,1-.4,10.4,1.37,1.37,0,0,1-.41.66.53.53,0,0,1-.71,0l.2.17a26.69,26.69,0,0,1-4.08-.56c-.12,0-.27-.19-.15-.24l0-.35a16.33,16.33,0,0,1-.15-5.08"/><path class="cls-11" d="M791.86,242.51c3.55.5,9.09,7.92,10.26,11,.13.34.4,2.76.44,3.12,1.08,10.62,1.1,11.23-.73,21.47-.65-2.7-1.29-5.4-1.74-8.14-.31-1.86-.52-3.74-.91-5.59-1-4.89-4-8.77-8.19-12-.57-.45-3.69-3-4.39-2.78a98.64,98.64,0,0,1-22.2,11.85c-7,2.46-14.63,2.62-22,1.64a2.44,2.44,0,0,1-1.93-.91A77.52,77.52,0,0,0,736.56,275,17.32,17.32,0,0,1,735.31,264,52.59,52.59,0,0,1,739,253.22q-4.29,5.4-8.6,10.78a4.4,4.4,0,0,1,.17-3.37,33.53,33.53,0,0,1,8.37-13c3.66-3.53,8.13-6.24,11.52-10-6.39.68-11.49,5.89-17.84,6.76a30.18,30.18,0,0,1,16.57-11.7,52.79,52.79,0,0,1,9.63-1.52,43.57,43.57,0,0,1,13.15.35c4.29.94,11.38,3.06,14.68,5.86,1.19,1,4.72,4.16,4.48,5.15"/><path d="M791.08,243.26a.75.75,0,0,0,0-1.5.75.75,0,0,0,0,1.5Z"/><path class="cls-17" d="M764.56,331.58a1.59,1.59,0,0,1-1.81-.86l.57.27a5.9,5.9,0,0,0,5.29,0l.16-.28a134.86,134.86,0,0,1,35.44,8.06c9.34,3.51,18.89,8.66,23.3,17.61,2.9,5.9,3.18,12.69,3.4,19.26q.95,27.63,1.88,55.28c.45,13.47.91,27,.06,40.42-1.34,21.23-5.93,42.11-11.16,62.73l-.14.35c-2.72,1.83-6.33,1.19-9.52.47l.39-.72c-2-7-2.74-14.28-3.35-21.53-3.48-41.5-4.51-83.16-5.53-124.78l4.58,108.56c-27.49,7.06-56.39,14.14-83.89,7.15l-1.49-.82.2-11.12c0-3,.11-6.08-.07-9.11-.22-3.7-.79-7.37-1.14-11.07-1-10.83-.1-21.75.82-32.6l3.72-44.16-.61-1c-1.8,22.21-3.6,44.45-3.95,66.74-.38,24.31.95,48.87-3.65,72.75l-1,1.22a19.6,19.6,0,0,1-6.41.76c-2.57-.19-2.4-.51-2.9-3-.87-4.34-1.62-8.71-2.36-13.07q-2.11-12.54-3.68-25.16c-4.62-36.95-5.76-74.19-6.24-111.39-.11-8.69.07-18,5-25.17,3.7-5.45,9.62-8.94,15.51-11.9a170.42,170.42,0,0,1,47.13-15.57"/><path d="M764.46,331.21a1.21,1.21,0,0,1-1.39-.68l-.51.52a7.53,7.53,0,0,0,3.81.91,6.28,6.28,0,0,0,2-.49c.17-.08.37-.27.53-.33s0-.07.19-.1a6.16,6.16,0,0,1,1,.13q6.57.66,13.06,2a125.19,125.19,0,0,1,24.33,7.34c6.56,2.79,13.09,6.55,17.39,12.38,5,6.74,5.33,15.19,5.6,23.24q.94,27.65,1.88,55.28c.61,18.17,1,36.28-1.34,54.35-1.15,9-2.78,17.93-4.69,26.79-.95,4.42-2,8.82-3,13.2q-.79,3.3-1.63,6.58c-.16.67-.22,1.55-.71,2a5.84,5.84,0,0,1-3.09.9,20,20,0,0,1-5.81-.68l.22.55a2.87,2.87,0,0,0,.45-.91,5.94,5.94,0,0,0-.4-1.47c-.16-.61-.32-1.22-.46-1.84-.54-2.31-1-4.64-1.3-7-.7-4.79-1.07-9.63-1.46-14.46q-1.18-14.62-2-29.29c-1.12-19.63-1.83-39.27-2.4-58.93q-.48-16.66-.86-33.33h-.75l.45,10.83,1.09,25.88L806,456,807.18,483l.38,8.93.11,2.8a5.05,5.05,0,0,0,.06,1.46s0,.14,0,.19L808,496c-24.86,6.38-51,13-76.75,8.61-2.49-.42-5.47-.67-7.7-1.89a2,2,0,0,1-.51-.28c-.21-.29.21.42.06-.23a11.55,11.55,0,0,1,0-2.42l.09-5.07c.06-3.29.16-6.58.08-9.87s-.44-6.41-.81-9.61c-1.56-13.34-.44-26.59.68-39.92L725.1,413l1-11.41.46-5.46a4.4,4.4,0,0,0,0-1.73,5.6,5.6,0,0,0-.57-.94.38.38,0,0,0-.7.19c-1.1,13.49-2.19,27-3,40.51s-1.07,27.05-1.07,40.59c0,13.3.06,26.62-1.07,39.89-.3,3.43-.67,6.85-1.14,10.26-.23,1.6-.47,3.2-.75,4.79-.2,1.19-.17,2.76-.91,3.71a2.36,2.36,0,0,1-.68.69,7.51,7.51,0,0,1-2,.41,14.16,14.16,0,0,1-5.11.13c-.88-.19-1.08-.63-1.26-1.47-.32-1.42-.57-2.87-.84-4.3A645.75,645.75,0,0,1,698,448.14c-.81-13.47-1.31-27-1.65-40.46q-.24-10.12-.38-20.25c-.09-6.05-.37-12.19.55-18.19.89-5.78,3.08-11.18,7.3-15.33s9.31-6.71,14.42-9.19A170.72,170.72,0,0,1,754.16,332c3-.69,6-1.3,9-1.83.47-.08.27-.81-.2-.72a171.56,171.56,0,0,0-37.38,11.05,110.64,110.64,0,0,0-16.57,8.32c-4.74,3.05-8.8,7-11.06,12.22s-2.75,10.85-2.85,16.4c-.12,6.77.11,13.56.24,20.32.27,14,.68,28,1.4,42a696.45,696.45,0,0,0,8.87,82.77q.89,5.16,1.9,10.31c.28,1.43.59,2.31,2.13,2.56a14.49,14.49,0,0,0,3.78,0c.65-.06,1.3-.17,1.95-.29a5.17,5.17,0,0,0,2-.51,4.64,4.64,0,0,0,1-1.26,8.14,8.14,0,0,0,.43-2l.45-2.63c2.19-13.56,2.66-27.32,2.75-41,.1-13.88,0-27.76.52-41.64s1.59-28,2.7-42l.84-10.37-.7.19a4.14,4.14,0,0,1,.57.94,9,9,0,0,1-.23,2.34l-.46,5.46-.92,10.92-1.84,21.83c-.61,7.24-1.28,14.49-1.49,21.75a159.66,159.66,0,0,0,1.19,21.53c.85,8,.35,16.08.2,24.09a.41.41,0,0,0,.19.33c.45.24.89.53,1.36.74a18.36,18.36,0,0,0,3.45.87q4.2.89,8.47,1.4a110.61,110.61,0,0,0,17.36.64c11.89-.45,23.66-2.51,35.25-5.11,6.62-1.48,13.2-3.15,19.78-4.84a.38.38,0,0,0,.27-.36L808,485.55,807,459.67l-1.33-31.42-1.14-27.06-.38-8.93a30.15,30.15,0,0,0-.17-4.25.61.61,0,0,1,0-.19.38.38,0,0,0-.75,0c.48,19.57,1,39.14,1.69,58.71s1.72,38.94,3.22,58.38c.41,5.32.79,10.66,1.42,16,.29,2.47.65,4.93,1.12,7.37.24,1.24.51,2.48.82,3.7a11.2,11.2,0,0,1,.55,1.95,1.53,1.53,0,0,1-.29.77.38.38,0,0,0,.23.55,23.73,23.73,0,0,0,5.23.74c1.36,0,3.55-.2,4.58-1.24a1.86,1.86,0,0,0,.37-.82c.33-1.07.56-2.19.83-3.28q.81-3.29,1.61-6.58c2.08-8.7,4-17.45,5.48-26.27a251.14,251.14,0,0,0,3.18-26.22c.58-9,.57-18.07.36-27.1-.42-18.39-1.2-36.77-1.82-55.15q-.24-6.84-.47-13.69a78.09,78.09,0,0,0-1-11.93,28,28,0,0,0-10.83-17.39c-5.78-4.42-12.68-7.17-19.53-9.48a134.74,134.74,0,0,0-25-5.82c-2-.28-4.09-.5-6.14-.69a.35.35,0,0,0-.32.19c-.46.84-2.4.79-3.21.69a7.52,7.52,0,0,1-2.3-.77c-.33-.15-.72.17-.52.51a2.07,2.07,0,0,0,2.24,1c.48-.08.28-.8-.2-.73Z"/><path class="cls-10" d="M367.19,258.67c-8.56,0-15.45,5.62-21.56,11.61-11.68,11.44-15.52,29-14.19,45.31.84,10.22,3.45,20.55,1.34,30.58a33.27,33.27,0,0,1-8.86,16.44c-3.69,3.73-8.59,7.2-9,12.42,3.67-3.66,6.6,2.23,11,5.07s10.47,2,12.48,6.79c1.8,4.31,3.29,8.94,6.55,12.29,2.87,2.95,6.8,4.58,10.7,5.9,10.47,3.55,21.75,5.4,32.63,3.42s21.3-8.18,26.72-17.81c2.49-4.45,4.06-9.7,8.09-12.82a4.52,4.52,0,0,0,1.48-1.47c.78-1.63-.88-3.3-2.28-4.42a40.87,40.87,0,0,1-14.54-24.61c-2.38-13.64,2.32-27.73.26-41.42-1-6.72-3.62-13.1-6.65-19.2-3.45-7-7.54-13.74-13.21-19S375,258.65,367.19,258.67Z"/><path class="cls-10" d="M315.27,373.11l-.37-.9c-7.42,5.35-13.77,11.62-16.82,20.25s-4.23,17.77-5.14,26.87A481.1,481.1,0,0,0,296,539.69l1.12.46c1.9.27,3.81.45,5.72.58l-.07.43"/><path class="cls-6" d="M338.62,796.24c-9.42-66.75-15.69-127.82-21.62-195,9-6.11,12-11.1,19.54-19a8.89,8.89,0,0,1,3-2.3,9.58,9.58,0,0,1,3.74-.44c2.83.06,5.61-.35,8.44-.25l1.11-.14c3.41,71.59,4.09,144.55,2,216.19l-.67.25c-5.1.33-10.22.41-15.33.24"/><path class="cls-6" d="M396.62,790c1.18-40.79,3.47-82.1,6.58-122.79l0-.31c.82-12.11,1.48-23.52,2.31-35.63,1.25-18.35,2.48-37-1.71-54.94-16.17,2.51-33.36-3.14-48.77,2.36l.74.21c14.45,69.18,14.23,140.54,23.89,210.55a65,65,0,0,0,17,.55"/><path class="cls-5" d="M349.57,795.85a12.82,12.82,0,0,1-.31,3.34l-5.46-.27a12.43,12.43,0,0,0-.15-2.68"/><path class="cls-5" d="M349.85,836.06l1.26-29.4a65.2,65.2,0,0,0,.05-7l-1.35-1.12a.84.84,0,0,1,1.07.35,18.32,18.32,0,0,1-8.8,0,1,1,0,0,1,.93-.28l-.69.25c-1.79,1.7-3.73,3.25-5.69,4.77-13.94,10.86-28.89,20.39-42.49,31.68a28.85,28.85,0,0,0,4.64,2.43l.31.24c5.81,1.85,12,2,18.1,2,10.26,0,22.84-.55,32.4-4.27"/><path class="cls-5" d="M389,793.71a10.31,10.31,0,0,1-.05-2.22l-5.28-.66-.15,3.13"/><path class="cls-5" d="M389.59,794.14c2.14,14.54,10.35,28.84,12.51,43.38l-3.66,1,.26,0a48.27,48.27,0,0,1-22,.35,4.5,4.5,0,0,1-2.45-1.11,3.93,3.93,0,0,1-.8-1.67c-.86-3.21-.36-6.62.21-9.9,1.86-10.72,4.41-21.44,9.33-31.14l.58-1.42c0,.44-.33,1.17.05,1.41s.59-.83.94-1.09c2.76-2.05,4,.6,5.07.18h0"/><path class="cls-5" d="M338.39,312.49c.54-9.56,1.87-17.3,5.13-25.18a19.66,19.66,0,0,1,3.4-5.89,16.74,16.74,0,0,1,6.63-4.12,39.44,39.44,0,0,1,21.57-1.17,18.33,18.33,0,0,1,6.29,2.27,15,15,0,0,1,3.59,3.33c5.3,6.6,6.38,15.56,7,24,.67,8.65.89,18.07-4.16,25.12-4.3,6-11.52,9-18.37,11.74a15.91,15.91,0,0,1-3.84,1.17,12.52,12.52,0,0,1-7-1.56A35.33,35.33,0,0,1,345,329.5c-3.44-5.29-4.33-8.64-6.13-13.57Z"/><path class="cls-11" d="M340.83,295.17c1.09-4.76,2.37-9.64,5.37-13.49s8.16-6.42,12.82-5l.35.66a18.24,18.24,0,0,1-17.71,16.94"/><path class="cls-11" d="M359.53,278.1a13.52,13.52,0,0,0,4.24,8.46,28.16,28.16,0,0,0,8.1,5.21c5.69,2.6,12.29,4.32,18.16,2.15-1.24-5.75-2.82-12.05-7.62-15.45a18.2,18.2,0,0,0-5.86-2.52,36.91,36.91,0,0,0-19.18.11Z"/><path class="cls-10" d="M406.75,413.31q4.94,68.64,13,137l.1.52c2.18,0,4.36-.06,6.54-.22l1.15-.38a481.65,481.65,0,0,0,11-119.9c-.31-9.14-.9-18.35-3.38-27.15s-7-17.26-14-23.08l-.84.62c-4.41,9.11-7.61,14.3-14.54,20.63-3,2.74-8,4.28-11.93,5.18a82.91,82.91,0,0,1-38.93-.61l.73.57.88,131.13c.23,33.73.46,67.55,4.39,101.06.79,6.71,2,13.92,6.76,18.69a25.25,25.25,0,0,0,9.22,5.36,66.82,66.82,0,0,0,31,3.77l1.32,0c1.65-.82,2-3,2.17-4.81l9.35-110.4"/><path class="cls-12" d="M327.51,380.1c6.1,2,11.32,5,12,10.95"/><path class="cls-7" d="M341.42,578.94c.44-6.64.54-12.1.66-18.43,1.07-56.49.21-111.95-2.08-168.4l-.46-1.06a26,26,0,0,0,16.22,14.85c-1.25,57.06-.67,115.31.63,172.37-4.7,1.77-10.37,1.23-15.34.62"/><path class="cls-5" d="M425.86,550.93c.13,1.64.21,3.29.25,4.94l-3.24-.62c-.09-1.34-.23-2.68-.42-4"/><path class="cls-5" d="M422.84,555.87a1.31,1.31,0,0,0-1,.88,3.82,3.82,0,0,0-.17,1.39,40.69,40.69,0,0,0,.82,10,6.07,6.07,0,0,0,2.21-.92l-1,.81a46,46,0,0,0-1.13,11.63.57.57,0,0,0,.15.44.54.54,0,0,0,.3.1,54.68,54.68,0,0,0,7.12.46c.61,0,1.32-.07,1.63-.59a1.82,1.82,0,0,0,.18-.86c.28-7.88.55-15.88-1.38-23.52l-4.06.24"/><path class="cls-5" d="M297.09,540.94c-.13,1.64-.21,3.29-.25,4.93l3.25-.61c.09-1.35.22-2.68.41-4"/><path class="cls-5" d="M300.11,545.88a1.31,1.31,0,0,1,1,.88,3.8,3.8,0,0,1,.17,1.38,40.73,40.73,0,0,1-.82,10,6.15,6.15,0,0,1-2.21-.92l1,.81a46,46,0,0,1,1.13,11.63.57.57,0,0,1-.15.44.51.51,0,0,1-.3.1,54.68,54.68,0,0,1-7.12.46c-.61,0-1.32-.07-1.63-.59a1.82,1.82,0,0,1-.18-.86c-.28-7.88-.55-15.88,1.38-23.52l4.06.24"/><path class="cls-10" d="M315.19,372.26c1.46,2.26,4.69,2.35,7.08,3.6,2.13,1.12,3.57,3.19,5.42,4.74a23.44,23.44,0,0,0,6.6,3.53c1.68.66,3.46,1.34,4.58,2.75a5,5,0,0,1,.66,5l-.1-2.22c6.66,89.69-.62,182.82,2.9,272.7l-.07.36a39.48,39.48,0,0,1-24.68-1.57,8,8,0,0,1-3.62-2.28,8.94,8.94,0,0,1-1.41-4.23C301.5,581.4,299.42,507.1,301,433.09"/><path class="cls-5" d="M683,285.66c.93,0,.3.25.64-.62a8.35,8.35,0,0,0,.68-2.93c-.08-1.87-.21-4.62-.29-6.5,0-.34.21-.07,0-.34s.11-.93-.06-.63l-.11.11c-1-.42-1.07-1.73-1.18-2.79-.41-3.8-3-7.08-6.23-9.18s-6.91-3.23-10.57-4.32c-2.64-.79-5.3-1.58-8-2.15-4.12-.85-8.34-1.18-12.4-2.27s-8.06-3.1-10.48-6.53a5.39,5.39,0,0,1-1.2-3.76l0,.5a18.83,18.83,0,0,1,1.84,15.19c-1.69,5-5.59,9.75-10.8,10.43l.2-.49c.39-.12,1.25.32-.22,1.19-.48.29-.5.56-1.1.82s-.19,1-.22,1.67c-.16,3.35-1,6.86-.14,10.11.09.37.31.44.54.74a1.94,1.94,0,0,0,1.93.86l-.53.14-.4.4c1.24,7.41,1.43,14,2.57,20.94a28.22,28.22,0,0,0,11.06,17.57,34.49,34.49,0,0,0,5.15,3.1c3.65,1.83,7.65,3.31,11.72,3a21.15,21.15,0,0,0,5.48-1.3c8.22-2.92,15.36-8.78,18.22-17a34.58,34.58,0,0,0,1.49-7.89c.63-5.8,1.49-11.82,1.69-17.65"/><path class="cls-12" d="M602.12,542a16.39,16.39,0,0,0,2.91,6.83,3.75,3.75,0,0,0,1.8,1.48c1.17.35,1.5-1.45,2.42-2.24,2.08-1.78,3.11-4,4.34-6.44"/><path class="cls-6" d="M657.56,537.89q-22.35,131.88-37.16,265l-.46,1.22a21,21,0,0,1-13.19,1.67l0-.11c-12.19-89.22-4.12-172.89-12.15-262.63l.51-8.7c3.1-7,5.71-12.62,6-20.38q1.66,4.26,3.48,8.47"/><path class="cls-5" d="M616.3,806l-.42,4.15-4.41.6a33,33,0,0,1-.15-4.88"/><path class="cls-5" d="M686.88,805.47a38.88,38.88,0,0,0,.27,5.51l-5.29.14a41.28,41.28,0,0,0-.64-5.51"/><path class="cls-5" d="M689.88,810.87a87.93,87.93,0,0,0,7,7.73c8.51,8.72,17,17.44,25.92,25.75l.24.36c.8.79.49,1.38,0,2.13a4.3,4.3,0,0,1-2.23,1.44,91.35,91.35,0,0,1-26.23,5.6,1.49,1.49,0,0,1-1.11-.68c-6.85-8.14-7.76-19.78-13.38-28.82l0-.55a35.72,35.72,0,0,0,.07-9.24,16.8,16.8,0,0,1,0-4.25l.48-.56c-.51.07.09.11.31.57a2,2,0,0,0,1.21.89,11.54,11.54,0,0,0,5.81.07,2.76,2.76,0,0,0,1.1-.37,1,1,0,0,0,.4-1,1.05,1.05,0,0,0-.49-.51,2.08,2.08,0,0,0-1.49-.23"/><path class="cls-6" d="M643.25,537.89q21.25,131.88,35.33,265l.44,1.22a19.12,19.12,0,0,0,12.55,1.67l0-.11c11.58-89.22,3.91-172.89,11.54-262.63l-.48-8.7c-2.94-7-5.42-12.62-5.74-20.38q-1.59,4.26-3.31,8.47"/><path class="cls-5" d="M608.59,810.73a92.26,92.26,0,0,1-6.25,8.39c-7.64,9.47-15.28,18.94-23.27,28l-.21.38c-.73.86-.44,1.5,0,2.32a3.88,3.88,0,0,0,2,1.55,70,70,0,0,0,23.54,6.09c.41,0,.73-.37,1-.74,6.16-8.84,7-21.48,12-31.29l0-.59a46.8,46.8,0,0,1-.06-10,22.21,22.21,0,0,0,0-4.61l-.44-.61c.46.07-.08.12-.28.62a1.82,1.82,0,0,1-1.08,1,8.57,8.57,0,0,1-5.21.08,2,2,0,0,1-1-.41,1.1,1.1,0,0,1-.36-1.1,1,1,0,0,1,.44-.56,1.63,1.63,0,0,1,1.33-.26"/><path class="cls-8" d="M633.77,244.2c1.42,5,2.53,10.28,1.38,15.34s-5.12,9.82-10.28,10.33a27.83,27.83,0,0,1-4.33-20.72,16.68,16.68,0,0,1,1.49-4.59c1.56-3,4.17-5.38,6.74-7.63,3.22-2.83,5.68-3.84,8.8-5.61a49.17,49.17,0,0,1,5.4-2.12c1.74-.7,5.72-1.06,7.59-1.15,9.6-.45,17.12,3.25,24.68,9.17s12.55,15.35,12.2,25a49.18,49.18,0,0,1-1.82,10.4,5.47,5.47,0,0,1-1,2.32,1.88,1.88,0,0,1-2.29.5,18.44,18.44,0,0,0-9-13.87c-3.38-1.95-7.28-2.76-11.1-3.53l-13.75-2.79a33.42,33.42,0,0,1-7.56-2.18,11.21,11.21,0,0,1-5.64-5.28Z"/><path class="cls-8" d="M635.18,300.08A65.94,65.94,0,0,1,646.23,294a21.92,21.92,0,0,1,12.39-1.48,26.9,26.9,0,0,1,8.74,3.93c1.88,1.19,3.78,2.54,4.78,4.53a3.24,3.24,0,0,1-2.89.67,12.53,12.53,0,0,1-2.86-1.13,28.16,28.16,0,0,0-24.27.28,12.71,12.71,0,0,1-4,1.59,3.34,3.34,0,0,1-3.59-1.85Z"/><path class="cls-8" d="M650.35,308.67c.8,1-.13,3.34-1.15,4.09a5.89,5.89,0,0,1-3.65.83c-4.51-.11-9.21-1.79-11.91-5.4-1.95-2.6-2.68-5.9-3.07-9.11a54.87,54.87,0,0,1-.38-8.5,5.82,5.82,0,0,0-1.57-3.72c-.86-1-1.89-1-3.21-1.16h0a18.65,18.65,0,0,0,.56,5.74c.75,4.3.77,8.68,1.32,13s1.71,8.72,4.42,12.13c1.6,2,3.22,4.43,5.28,5.95a48.32,48.32,0,0,0,8.48,5.22c3,1.38,6.33,2.55,9.6,2.19a29.22,29.22,0,0,0,5.84-1.32c3.46-1.15,7-3.64,10-5.78,5.2-3.79,8-10.13,9.25-16.43s1.36-12.79,2.43-19.13l-.42-.72c-1.49.7-1.93,2.57-2.19,4.19l-1,6.17a24.22,24.22,0,0,1-1.86,6.95,15.66,15.66,0,0,1-2.47,3.51,15,15,0,0,1-8.5,5,9.13,9.13,0,0,1-8.9-3.42l-.61-.36c-2.09-.07-4.17-.05-6.26.06"/><path class="cls-5" d="M626.47,271a3.63,3.63,0,0,0-2,.07,1.8,1.8,0,0,0-.95.64,2.39,2.39,0,0,0-.3,1.29L623,280a8.82,8.82,0,0,0,.12,2.18c.16.68,2.22,3,3.36,3.23"/><path class="cls-5" d="M682.19,276.28c.65.18,1.48-.26,2,.22a1.4,1.4,0,0,1,.26.46c.7,2,0,4.19.25,6.28a9.07,9.07,0,0,1,.13,1.37,1.65,1.65,0,0,1-.53,1.23,2,2,0,0,1-.62.32,12.44,12.44,0,0,1-2.21.92"/><path class="cls-5" d="M626.11,276.26a1.06,1.06,0,0,0-1,.61,2.57,2.57,0,0,0-.22,1.26,7.19,7.19,0,0,0,1.51,4.51"/><path class="cls-5" d="M681.44,279.45a5.93,5.93,0,0,1,0,5.32"/><path d="M651.37,330.62l.46,4a.76.76,0,0,0,.75.75c.37,0,.8-.33.75-.75l-.46-4a.78.78,0,0,0-.75-.75c-.37,0-.8.33-.75.75Z"/><path d="M656,330.89l-.33,5.1a.75.75,0,0,0,.75.75.76.76,0,0,0,.75-.75l.33-5.1a.75.75,0,0,0-.75-.75.76.76,0,0,0-.75.75Z"/><path class="cls-5" d="M586.62,544.68a122.84,122.84,0,0,1,.19,23.17.73.73,0,0,1-.13.43.76.76,0,0,1-.6.21c-2.23.12-3.18.31-5.41.43a3.49,3.49,0,0,1-3.12-.78,4.43,4.43,0,0,1-.78-1.9c-2.33-10-2.52-20.19-2.54-30.4a6.89,6.89,0,0,1,.16-2.73c.35-.65,1.94-.25,2.75-.35v-.15q1.22-51.72,2.44-103.43c.17-7.3-.33-14.49-.33-22.45h.37a9,9,0,0,0,1.75,1.57,32.56,32.56,0,0,0,19.84,4.13l-.29.66q-6.78,60.15-15.84,120h.17c.8.28,2.24.89,3,1.18a25.86,25.86,0,0,0,.35,7.08,3.52,3.52,0,0,1,.09,1.51,2.13,2.13,0,0,1-1.69,1.8c-.85.08-1.88-.07-2.79,0"/><path class="cls-5" d="M712.84,537.88a124.43,124.43,0,0,0-.19,23.16.76.76,0,0,0,.13.44.82.82,0,0,0,.6.21c2.21.11,3.15.31,5.36.42a3.37,3.37,0,0,0,3.09-.78,4.56,4.56,0,0,0,.78-1.9c2.3-9.95,2.49-20.18,2.52-30.4a7.1,7.1,0,0,0-.16-2.73c-.35-.65-1.93-.24-2.73-.35v-.14q-1.22-51.72-2.42-103.44c-.17-7.3.33-14.48.33-22.44h-.37a9.12,9.12,0,0,1-1.73,1.56,32.09,32.09,0,0,1-19.68,4.13l.29.67q6.72,60.15,15.71,120h-.17c-.79.28-2.22.89-3,1.18a25.86,25.86,0,0,1-.35,7.08,3.72,3.72,0,0,0-.08,1.52,2.12,2.12,0,0,0,1.68,1.8c.84.07,1.85-.07,2.76,0"/><path class="cls-10" d="M658.94,335.64c16.56,4,35.33,10.52,51.72,15.16,6.89,14.42,10.52,28.49,12.7,44.2a3.85,3.85,0,0,1-.11,2.13,4,4,0,0,1-1.64,1.58c-6.27,4-14,8.93-21.51,8.06l-2.26-29.54c.94,33.22,2.24,66.43,3.55,99.64.3,7.58,2.84,53.61,3.44,61.17-4,4-9.94,5.3-15.51,6.36-22.42,4.27-45.55,7.66-67.94,3.3a100.86,100.86,0,0,1-10.14-2.54c-6.89-2.11-13.77-5.12-18.65-10.42l-.69-.62c.48-7.57,4.31-47.88,5.09-55.43,3.42-33.06,6.85-66.12,10.64-99.14L604,412.12c-7.09.86-17.47-1.1-23.42-5A3.89,3.89,0,0,1,579,405.5a4.08,4.08,0,0,1-.1-2.14A169.89,169.89,0,0,1,592.3,356.7c18.92-8.09,38.8-15.3,58.39-21.6l1.81-.06c-.34-.47-1.19,0-1.14.62a1.74,1.74,0,0,0,1.1,1.26,6.82,6.82,0,0,0,4,.6,1.83,1.83,0,0,0,1.49-.92c.23-.56-.4-1.35-.92-1"/><path class="cls-5" d="M509.86,316.62a34.68,34.68,0,0,1-.1,3.95l-4.17.28c-.07,0-.11-.09-.11-.16l.06-3.68"/><path class="cls-7" d="M493.76,447.44q24.76,6,50,10c12.16,1.91,27.08,3.19,38.66-1-.16.47-.14-2.76,0-8.57.43-19-1.71-35.46-2.76-55.26-.74-13.87-3.94-33.41-7.21-46.92a8.26,8.26,0,0,0-1.87-4.07,8.45,8.45,0,0,0-3.2-1.7L511.78,320.1l-1.48-.35c.72.18,1.48.72,1.43,1.45a1.58,1.58,0,0,1-.39.87,6,6,0,0,1-6.15,1.79,2.64,2.64,0,0,1-1.76-1.13,1.61,1.61,0,0,1,.07-1.59,1.59,1.59,0,0,1,1.43-.71l-1.28-.2a434.94,434.94,0,0,0-55.33,19.93,13.13,13.13,0,0,0-4.58,2.84,12.46,12.46,0,0,0-2.25,4.28,87.2,87.2,0,0,0-3.37,12.18c-1.95,9.78-2.2,19.8-2.45,29.77-.55,22.53-1.1,45.16,1.57,67.54a2.93,2.93,0,0,0,4.07,3.05c40.29-5.24,78.55-21.3,113.69-41.7,0-2.78-.67-4.79-2.2-5.76-28.81,1.89-54.67-2.73-92.44,4.11"/><path class="cls-7" d="M494.06,447.35c-12.65,4.85-25.91,7.87-39.12,10.87a65.91,65.91,0,0,1-9,1.6l.25.34a171,171,0,0,1,2,30.91l.06.4c10.92,1.35,21.15,3.07,32.11,4,7,.61,14,1.15,21,1.19,19.09.11,38.08-3.49,56.36-9,3.71-1.11,7.52-2.38,10.38-5l.17-.32.66-21.63,0-.59a241.16,241.16,0,0,1-54.71-7.55A103.31,103.31,0,0,0,502.44,450a35.46,35.46,0,0,1-9.44-2.59"/><path class="cls-5" d="M533.83,283.08c-1.46-3.59-.5-6.07,0-9.92a41,41,0,0,0-2.48-19.85,12.57,12.57,0,0,0-1.7-3.22,14.43,14.43,0,0,0-2.53-2.34,24.28,24.28,0,0,0-4.75-3.17,24.91,24.91,0,0,0-7.71-1.73l-8.44-1,0-.67a16.8,16.8,0,0,1-3.26,1.94,33.1,33.1,0,0,1-6.25,1.88l-13.83,3.2a2.27,2.27,0,0,0-1.1.47c-.28.28-.31.71-.49,1.06-7.25,13.9-2.87,17.79-.27,34.16.23,1.43-.63,2.9-.28,4.32l.12.36c4.25,10.81,11.66,20.77,22,26a12.84,12.84,0,0,0,4,1.41,11,11,0,0,0,4.74-.57c5.07-1.59,9.29-5.24,12.46-9.51s5.39-9.15,7.51-14c1.12-2.59,2.38-6,2.21-8.84"/><path class="cls-11" d="M481.48,256a10.2,10.2,0,0,0-2.24,3.91,14.79,14.79,0,0,0-.76,5.2c0,3.29,1.25,3.78,1.41,6.76.22,4.11.79,6.29,1,10.4-2.39-8.25-14.23-17.92-13.12-26.43s4.87-16.88,11.38-22.47a41.81,41.81,0,0,1,5.92-4.13,54.94,54.94,0,0,1,21.72-7.55,38.65,38.65,0,0,1,22.46,4.07c4,2.16,7.86,5.74,8,10.29l.54.29a25.31,25.31,0,0,1,6.29,11.51c1,4.33-3.42,10.58-3.54,15-.13,4.92-2.42,10.29-3.23,15.14-.32,1.88-.16,2.45-1.41,3.18,0,.22-1.67.43-2-.57a17.5,17.5,0,0,1-.63-6.57c.06-1.18,1.46-8.15.43-8.73-3.6-2.06-1.74-7.14-.21-13.05l-.47.43a56.21,56.21,0,0,1-26.45,11,2.68,2.68,0,0,1-1.92-.23,21.08,21.08,0,0,0,4.89-8.35l-.44,0a104.6,104.6,0,0,1-30.37,9.49,71.16,71.16,0,0,1,2.77-8.52"/><path class="cls-9" d="M448.66,489.34c-.45-.53-1.18,0-1.15-.7a20.94,20.94,0,0,0,0,9.22,5.65,5.65,0,0,0,.6,1.7,6,6,0,0,0,1.91,1.7c5.69,3.62,12.2,5.73,18.75,7.3,32.77,7.85,68.39,3.07,97.36-14.13a8,8,0,0,0,2.67-2.95,6.11,6.11,0,0,0,.4-2.44c.07-3.05-.93-4.82-.86-7.86-1.18,2.49-2.6,2.9-4.92,4.38a25,25,0,0,1-7.19,3,261.4,261.4,0,0,1-33.6,6.92,114.91,114.91,0,0,1-13.35,1.31c-7.16.18-13.53.65-20.65-.17-13.49-1.56-27.95-1-41-7.79Z"/><path class="cls-9" d="M521.73,495.93l-22.36,1a67.5,67.5,0,0,1-13.41-.29l-.35.38a55.28,55.28,0,0,0,.38,14.25l.39.25a117.15,117.15,0,0,0,36.94-1.42l-.14-.14a59,59,0,0,0-1.45-14"/><path class="cls-5" d="M505.46,506.91a3.09,3.09,0,0,1-3.86-.67,2.54,2.54,0,0,1,.72-3.67,3.23,3.23,0,0,1,1-.29,3.42,3.42,0,0,1,2.21.22,2.48,2.48,0,0,1,1.17,2.57,3,3,0,0,1-1.9,2.17Z"/><path d="M447.54,489.1a5.29,5.29,0,0,0,.89-1.89.37.37,0,1,0-.72-.2,16.6,16.6,0,0,1-.74,2.26.4.4,0,0,0,.13.52.38.38,0,0,0,.51-.14,15.21,15.21,0,0,0,.82-2.44l-.72-.2a2.75,2.75,0,0,1-.13.47,2.58,2.58,0,0,1-.18.39c-.15.29-.33.57-.51.85a.37.37,0,0,0,.14.51.39.39,0,0,0,.51-.13Z"/><path class="cls-18" d="M494.67,497.32A34.31,34.31,0,0,0,496,512.45"/><path d="M493.92,497.32a35.32,35.32,0,0,0,1.34,15.32c.28.92,1.73.53,1.44-.39a34.46,34.46,0,0,1-1.28-14.93c.13-.95-1.37-.94-1.5,0Z"/><path class="cls-18" d="M512,496.6a33,33,0,0,1,1.18,14.87"/><path d="M511.27,496.79a32.58,32.58,0,0,1,1.19,14.48c-.14.94,1.31,1.35,1.45.4a34.32,34.32,0,0,0-1.19-15.27c-.29-.92-1.74-.53-1.45.39Z"/><path d="M550,827.56a38.39,38.39,0,0,0,12.69-.79c.94-.21.55-1.66-.39-1.44a37.4,37.4,0,0,1-12.3.73c-1-.1-1,1.4,0,1.5Z"/><path d="M503.85,551.63a48.44,48.44,0,0,0,12.21-.13.75.75,0,0,0,.52-.92.76.76,0,0,0-.92-.52,47.62,47.62,0,0,1-11.81.07c-1-.11-1,1.39,0,1.5Z"/><path class="cls-6" d="M509.12,550.46,483.25,707.71l-4.85,29.47c-4.85,29.44-9.7,58.93-17.28,87.78l-1,.62c-3.78,1.49-7.14,1.46-11.14.73h0c-.53-34.89-1.07-69.78-2.52-104.65-3.08-74-10.26-148.47.13-221.79l.62-1.25a67,67,0,0,0,8.39,4.93c10.94,5.61,23.35,7.85,35.64,8.2s24.54-1.13,36.74-2.6A53.46,53.46,0,0,0,538,506.57a95.33,95.33,0,0,0,9.59-3.47c7.39-3.31,15.76-5.33,21.33-11.21l.25-2.32c8.47,75.64,1,152.6-2.61,228.79-1.69,35.91-2.55,71.85-3.42,107.79l-15.09,1.13q-17.73-122.1-45-242.55"/><path class="cls-5" d="M457.43,826.61c.08,1.93.06,3.5.22,6.47l-5.71.15c-.18-2.81-.28-4.59-.57-6.35"/><path class="cls-5" d="M460.34,831.83v32.66l0,.37a20.94,20.94,0,0,1-7,1.84c-21.66,3.08-43.47,6.17-65.33,5.2l-.79-.39a68.83,68.83,0,0,1-7.25-2.35h0c23.56-12.35,47-24.75,70.43-37.38v-.12c-.45.07.94-.57-.27-.12-.21.08-.48.09-.58.29a.64.64,0,0,0,.22.68,4.8,4.8,0,0,0,3.15,1,12.5,12.5,0,0,0,6-.56c.43-.19.89-.49,1-1a1.13,1.13,0,0,0-.86-1.16,3.26,3.26,0,0,0-1.55,0"/><path class="cls-5" d="M560.1,827.69a40.56,40.56,0,0,1,.09,5.17l-6.38-.15a16.3,16.3,0,0,0-.42-4.72"/><path class="cls-5" d="M551.42,831.83v32.66l0,.37a20.67,20.67,0,0,0,7,1.84c21.46,3.08,43.07,6.17,64.73,5.2l.78-.39a67.64,67.64,0,0,0,7.18-2.35h0c-23.34-12.35-46.59-24.75-69.78-37.38v-.12c.45.07-.17-.18.28-.12.21,0,.47.09.57.29s-.05.5-.22.68a4.74,4.74,0,0,1-3.13,1,12.28,12.28,0,0,1-5.91-.56c-.43-.19-.88-.49-1-1a1.12,1.12,0,0,1,.85-1.16,3.22,3.22,0,0,1,1.54,0"/><path class="cls-5" d="M468.43,415.25c-1.43-2-1.29-4.65-1.09-7.08l.49-5.83c0-.34,0-.75-.28-.92a.82.82,0,0,0-.44-.07,23.45,23.45,0,0,0-11.45,3.07,1.27,1.27,0,0,0-.59.53,1.34,1.34,0,0,0,0,.84l1.16,5.45a13,13,0,0,0,1.55,4.49,1.82,1.82,0,0,0,.66.66,1.88,1.88,0,0,0,1,.12q4.24-.19,8.44-.72Z"/><path class="cls-5" d="M556.33,405.83a44.45,44.45,0,0,1,.88,12.28l-3.08-4.3c-.17-.25-.36-.55-.25-.83a1,1,0,0,1,.44-.42l2.6-1.53Z"/><path class="cls-5" d="M511.93,320.63c-.5,1.2.13,1.55.1,3.17-.06,3.83-3.06,9.36-4.77,12.79-3.14-5.23-5.14-8.89-5.67-15.33,2.58-.93,1.16-.77.72.15-.67,1.4.69,2.52,2.07,3.21a6.35,6.35,0,0,0,5.6-.26c1-.66.89-.73,1.35-1.81.85-2-.25,0,.6-1.92Z"/><path class="cls-5" d="M506.76,350.72a2.08,2.08,0,0,1-1.69.11A1.7,1.7,0,0,1,504,349.5a1.76,1.76,0,0,1,.45-1.33,2.39,2.39,0,0,1,1.23-.73,2.24,2.24,0,0,1,.57-.08,1.72,1.72,0,0,1,.38,3.4Z"/><path class="cls-5" d="M507.24,372.91a2.08,2.08,0,0,1-1.69.11,1.69,1.69,0,0,1-1.05-1.33,1.72,1.72,0,0,1,.44-1.33,2.43,2.43,0,0,1,1.23-.73,2.25,2.25,0,0,1,.58-.08,1.72,1.72,0,0,1,.37,3.4Z"/><path class="cls-5" d="M507.57,396.88a2,2,0,0,1-1.69.11,1.71,1.71,0,0,1-1.06-1.32,1.75,1.75,0,0,1,.45-1.34,2.54,2.54,0,0,1,1.23-.73,2.78,2.78,0,0,1,.57-.07,1.72,1.72,0,0,1,.38,3.39Z"/></g></svg>