<?xml version="1.0" encoding="utf-8"?>
<!-- Generator: Adobe Illustrator 18.0.0, SVG Export Plug-In . SVG Version: 6.00 Build 0)  -->
<!DOCTYPE svg PUBLIC "-//W3C//DTD SVG 1.1//EN" "http://www.w3.org/Graphics/SVG/1.1/DTD/svg11.dtd">
<svg version="1.1" id="Layer_1" xmlns="http://www.w3.org/2000/svg" xmlns:xlink="http://www.w3.org/1999/xlink" x="0px" y="0px"
	 viewBox="0 0 36 36" enable-background="new 0 0 36 36" xml:space="preserve">
<g>
	<g>
		<g>
			<g>
				
					<rect x="4.6" y="7.5" transform="matrix(-0.7071 -0.7071 0.7071 -0.7071 8.5899 20.7444)" fill="#D3D9DD" width="7.9" height="2.2"/>
			</g>
			<g>
				
					<rect x="23.4" y="7.5" transform="matrix(0.7071 -0.7071 0.7071 0.7071 1.9524 21.8998)" fill="#D3D9DD" width="7.9" height="2.2"/>
			</g>
		</g>
	</g>
	<g>
		<g>
			<g>
				<rect x="16.9" y="3.5" fill="#D3D9DD" width="2.1" height="2.4"/>
			</g>
		</g>
		<g>
			<g>
				<g>
					<g>
						<path fill="#3E4347" d="M23.3,26l7.1,7.1c0.4,0.4,0.1,1-0.4,1h-4.7c-0.8,0-1.6-0.3-2.2-0.9l-4.4-4.4"/>
					</g>
				</g>
				<g>
					<g>
						<path fill="#3E4347" d="M12.7,26L5.6,33c-0.4,0.4-0.1,1,0.4,1h4.7c0.8,0,1.6-0.3,2.2-0.9l4.4-4.4"/>
					</g>
				</g>
			</g>
			<g>
				<g>
					<g>
						<path fill="#D3D9DD" d="M4.6,2.8c0.5,0.5,0.5,1.3,0,1.8c-0.5,0.5-1.3,0.5-1.8,0c-0.5-0.5-0.5-1.3,0-1.8
							C3.3,2.3,4.1,2.3,4.6,2.8z"/>
					</g>
				</g>
				<g>
					<g>
						<path fill="#E9EFF4" d="M11,3.1c0.3,0.2,0.4,0.6,0.2,0.9C9.5,7.1,7.1,9.5,4,11.2c-0.3,0.2-0.7,0.1-0.9-0.2
							C1.5,8.8,1.7,5.7,3.7,3.7C5.7,1.7,8.8,1.5,11,3.1z"/>
					</g>
				</g>
			</g>
			<g>
				<g>
					<g>
						<path fill="#D3D9DD" d="M31.4,2.8c-0.5,0.5-0.5,1.3,0,1.8c0.5,0.5,1.3,0.5,1.8,0c0.5-0.5,0.5-1.3,0-1.8
							C32.7,2.3,31.9,2.3,31.4,2.8z"/>
					</g>
				</g>
				<g>
					<g>
						<path fill="#E9EFF4" d="M25,3.1c-0.3,0.2-0.4,0.6-0.2,0.9c1.7,3.1,4.1,5.5,7.2,7.2c0.3,0.2,0.7,0.1,0.9-0.2
							c1.6-2.2,1.4-5.4-0.6-7.4C30.3,1.7,27.2,1.5,25,3.1z"/>
					</g>
				</g>
			</g>
			<g>
				<g>
					<g>
						<g>
							<path fill="#65B1EF" d="M32,19c0,7.7-6.3,14-14,14S4,26.7,4,19c0-7.7,6.3-14,14-14S32,11.2,32,19z"/>
						</g>
					</g>
				</g>
				<g>
					<g>
						<g>
							<path fill="#FFFFFF" d="M29,19c0,6.1-4.9,11-11,11C11.9,30,7,25,7,19c0-6.1,4.9-11,11-11C24.1,7.9,29,12.9,29,19z"/>
						</g>
					</g>
				</g>
				<g>
					<g>
						<path fill="#E84D88" d="M18,19.5c-0.3,0-0.6-0.3-0.6-0.6l0-6.8c0-0.3,0.3-0.6,0.6-0.6c0.3,0,0.6,0.3,0.6,0.6l0,6.8
							C18.6,19.3,18.3,19.5,18,19.5z"/>
					</g>
				</g>
				<g>
					<g>
						<g>
							<path fill="#FFD93B" d="M13.8,23.1c-0.2-0.2-0.2-0.4,0-0.6l3.9-3.9c0.2-0.2,0.4-0.2,0.6,0c0.2,0.2,0.2,0.4,0,0.6l-3.9,3.9
								C14.2,23.3,14,23.3,13.8,23.1z"/>
						</g>
					</g>
				</g>
				<g>
					<g>
						<g>
							<path fill="#5A5F63" d="M21.1,22.9l-3.5-3.5c-0.2-0.2-0.2-0.6,0-0.8c0.2-0.2,0.6-0.2,0.8,0l3.5,3.5c0.2,0.2,0.2,0.6,0,0.8
								C21.7,23.1,21.3,23.1,21.1,22.9z"/>
						</g>
					</g>
				</g>
				<g>
					<g>
						<g>
							<circle fill="#3E4347" cx="18" cy="19" r="1.8"/>
						</g>
					</g>
				</g>
				<g>
					<g>
						<g>
							<circle fill="#5A5F63" cx="18" cy="19" r="0.8"/>
						</g>
					</g>
				</g>
				<g>
					<g>
						<g>
							<g>
								<circle fill="#D3D9DD" cx="18" cy="10.3" r="0.6"/>
							</g>
						</g>
					</g>
					<g>
						<g>
							<g>
								<circle fill="#D3D9DD" cx="11.9" cy="12.8" r="0.6"/>
							</g>
						</g>
					</g>
					<g>
						<g>
							<g>
								<circle fill="#D3D9DD" cx="9.3" cy="19" r="0.6"/>
							</g>
						</g>
					</g>
					<g>
						<g>
							<g>
								<circle fill="#D3D9DD" cx="11.9" cy="25.1" r="0.6"/>
							</g>
						</g>
					</g>
					<g>
						<g>
							<g>
								<circle fill="#D3D9DD" cx="18" cy="27.6" r="0.6"/>
							</g>
						</g>
					</g>
					<g>
						<g>
							<g>
								<circle fill="#D3D9DD" cx="24.1" cy="25.1" r="0.6"/>
							</g>
						</g>
					</g>
					<g>
						<g>
							<g>
								<circle fill="#D3D9DD" cx="26.7" cy="19" r="0.6"/>
							</g>
						</g>
					</g>
					<g>
						<g>
							<g>
								<circle fill="#D3D9DD" cx="24.1" cy="12.8" r="0.6"/>
							</g>
						</g>
					</g>
				</g>
			</g>
		</g>
		<g>
			<g>
				<path fill="#E9EFF4" d="M20.1,2.4v1.3c0,0.2-0.2,0.4-0.4,0.4h-3.4c-0.2,0-0.4-0.2-0.4-0.4V2.4c0-0.2,0.2-0.4,0.4-0.4h3.4
					C19.9,2,20.1,2.2,20.1,2.4z"/>
			</g>
		</g>
	</g>
</g>
</svg>
