<?xml version="1.0" encoding="utf-8"?>
<!-- Generator: Adobe Illustrator 18.0.0, SVG Export Plug-In . SVG Version: 6.00 Build 0)  -->
<!DOCTYPE svg PUBLIC "-//W3C//DTD SVG 1.1//EN" "http://www.w3.org/Graphics/SVG/1.1/DTD/svg11.dtd">
<svg version="1.1" id="Layer_1" xmlns="http://www.w3.org/2000/svg" xmlns:xlink="http://www.w3.org/1999/xlink" x="0px" y="0px"
	 viewBox="0 0 36 36" enable-background="new 0 0 36 36" xml:space="preserve">
<g>
	<g>
		<g>
			<g>
				<path fill="#E9EFF4" d="M18,9.5c-2.1,0-3.8-1.7-3.8-3.8C14.2,3.7,15.9,2,18,2c2.1,0,3.8,1.7,3.8,3.8C21.8,7.8,20.1,9.5,18,9.5z
					 M18,3c-1.5,0-2.8,1.3-2.8,2.8s1.3,2.8,2.8,2.8c1.5,0,2.8-1.3,2.8-2.8S19.5,3,18,3z"/>
			</g>
		</g>
	</g>
	<g>
		<g>
			<g>
				<rect x="17.2" y="6.6" fill="#CBD6E0" width="1.7" height="3"/>
			</g>
		</g>
	</g>
	<g>
		<g>
			<g>
				<g>
					<g>
						<polygon fill="#CBD6E0" points="25.4,13 24.2,12.2 25.8,10.1 27,11 						"/>
					</g>
				</g>
			</g>
			<g>
				<g>
					<g>
						<path fill="#E9EFF4" d="M26.9,11.7l-1.8-1.4C25,10.2,24.9,10,25,9.8L26.5,8c0.1-0.2,0.3-0.2,0.5-0.1l1.8,1.4
							c0.2,0.1,0.2,0.3,0.1,0.5l-1.4,1.8C27.3,11.8,27.1,11.9,26.9,11.7z"/>
					</g>
				</g>
			</g>
			<g>
				<g>
					<g>
						<g>
							<path fill="#CBD6E0" d="M26.9,8.9l-0.9,1.1c-0.1,0.1-0.2,0.1-0.2,0c-0.1-0.1-0.1-0.2,0-0.2l0.9-1.1c0.1-0.1,0.2-0.1,0.2,0
								C27,8.8,27,8.9,26.9,8.9z"/>
						</g>
					</g>
				</g>
				<g>
					<g>
						<g>
							<path fill="#CBD6E0" d="M27.5,9.4l-0.9,1.1c-0.1,0.1-0.2,0.1-0.2,0c-0.1-0.1-0.1-0.2,0-0.2l0.9-1.1c0.1-0.1,0.2-0.1,0.2,0
								C27.6,9.2,27.6,9.3,27.5,9.4z"/>
						</g>
					</g>
				</g>
				<g>
					<g>
						<g>
							<path fill="#CBD6E0" d="M28.1,9.8l-0.9,1.1C27.2,11,27.1,11,27,11c-0.1-0.1-0.1-0.2,0-0.2l0.9-1.1c0.1-0.1,0.2-0.1,0.2,0
								C28.1,9.6,28.1,9.7,28.1,9.8z"/>
						</g>
					</g>
				</g>
			</g>
		</g>
		<g>
			<g>
				<g>
					<g>
						<polygon fill="#CBD6E0" points="10.6,13 11.8,12.2 10.2,10.1 9,11 						"/>
					</g>
				</g>
			</g>
			<g>
				<g>
					<g>
						<path fill="#E9EFF4" d="M9.1,11.7l1.8-1.4C11,10.2,11.1,10,11,9.8L9.5,8C9.4,7.8,9.2,7.8,9,7.9L7.2,9.3C7.1,9.5,7,9.7,7.2,9.8
							l1.4,1.8C8.7,11.8,8.9,11.9,9.1,11.7z"/>
					</g>
				</g>
			</g>
			<g>
				<g>
					<g>
						<g>
							<path fill="#CBD6E0" d="M9.1,8.9l0.9,1.1c0.1,0.1,0.2,0.1,0.2,0c0.1-0.1,0.1-0.2,0-0.2L9.3,8.7c-0.1-0.1-0.2-0.1-0.2,0
								C9,8.8,9,8.9,9.1,8.9z"/>
						</g>
					</g>
				</g>
				<g>
					<g>
						<g>
							<path fill="#CBD6E0" d="M8.5,9.4l0.9,1.1c0.1,0.1,0.2,0.1,0.2,0c0.1-0.1,0.1-0.2,0-0.2L8.7,9.2c-0.1-0.1-0.2-0.1-0.2,0
								C8.4,9.2,8.4,9.3,8.5,9.4z"/>
						</g>
					</g>
				</g>
				<g>
					<g>
						<g>
							<path fill="#CBD6E0" d="M7.9,9.8l0.9,1.1C8.8,11,8.9,11,9,11c0.1-0.1,0.1-0.2,0-0.2L8.2,9.6C8.1,9.5,8,9.5,7.9,9.6
								C7.9,9.6,7.9,9.7,7.9,9.8z"/>
						</g>
					</g>
				</g>
			</g>
		</g>
	</g>
	<g>
		<g>
			<g>
				<circle fill="#E24B4B" cx="18" cy="21.3" r="12.7"/>
			</g>
		</g>
	</g>
	<g>
		<g>
			<g>
				<circle fill="#FFFFFF" cx="18" cy="21.3" r="10.2"/>
			</g>
		</g>
	</g>
	<g>
		<g>
			<g>
				<path fill="#FFD93B" d="M26.8,16.1l-9,4.2V11H18C21.8,11,25.1,13.1,26.8,16.1z"/>
			</g>
		</g>
	</g>
	<g>
		<g>
			<g>
				<path fill="#3E4347" d="M18.2,12.6v1.5c0,0.1-0.1,0.2-0.2,0.2s-0.2-0.1-0.2-0.2v-1.5c0-0.1,0.1-0.2,0.2-0.2S18.2,12.5,18.2,12.6
					z"/>
			</g>
		</g>
	</g>
	<g>
		<g>
			<g>
				<path fill="#3E4347" d="M12.1,15l1.1,1.1c0.1,0.1,0.1,0.2,0,0.3c-0.1,0.1-0.2,0.1-0.3,0l-1.1-1.1c-0.1-0.1-0.1-0.2,0-0.3
					C11.8,14.9,12,14.9,12.1,15z"/>
			</g>
		</g>
	</g>
	<g>
		<g>
			<g>
				<path fill="#3E4347" d="M9.4,21h1.5c0.1,0,0.2,0.1,0.2,0.2c0,0.1-0.1,0.2-0.2,0.2H9.4c-0.1,0-0.2-0.1-0.2-0.2
					C9.2,21.1,9.3,21,9.4,21z"/>
			</g>
		</g>
	</g>
	<g>
		<g>
			<g>
				<path fill="#3E4347" d="M11.8,27.2l1.1-1.1c0.1-0.1,0.2-0.1,0.3,0c0.1,0.1,0.1,0.2,0,0.3l-1.1,1.1c-0.1,0.1-0.2,0.1-0.3,0
					C11.7,27.4,11.7,27.3,11.8,27.2z"/>
			</g>
		</g>
	</g>
	<g>
		<g>
			<g>
				<path fill="#3E4347" d="M17.8,29.9v-1.5c0-0.1,0.1-0.2,0.2-0.2c0.1,0,0.2,0.1,0.2,0.2v1.5c0,0.1-0.1,0.2-0.2,0.2
					C17.9,30.1,17.8,30,17.8,29.9z"/>
			</g>
		</g>
	</g>
	<g>
		<g>
			<g>
				<path fill="#3E4347" d="M23.9,27.5l-1.1-1.1c-0.1-0.1-0.1-0.2,0-0.3c0.1-0.1,0.2-0.1,0.3,0l1.1,1.1c0.1,0.1,0.1,0.2,0,0.3
					C24.2,27.6,24,27.6,23.9,27.5z"/>
			</g>
		</g>
	</g>
	<g>
		<g>
			<g>
				<path fill="#3E4347" d="M26.6,21.5h-1.5c-0.1,0-0.2-0.1-0.2-0.2c0-0.1,0.1-0.2,0.2-0.2h1.5c0.1,0,0.2,0.1,0.2,0.2
					C26.8,21.4,26.7,21.5,26.6,21.5z"/>
			</g>
		</g>
	</g>
	<g>
		<g>
			<g>
				<path fill="#3E4347" d="M24.2,15.3l-1.1,1.1c-0.1,0.1-0.2,0.1-0.3,0c-0.1-0.1-0.1-0.2,0-0.3l1.1-1.1c0.1-0.1,0.2-0.1,0.3,0
					C24.3,15.1,24.3,15.2,24.2,15.3z"/>
			</g>
		</g>
	</g>
	<g>
		<g>
			<g>
				<path fill="#3E4347" d="M14.9,13.2l0.3,0.7c0,0.1,0,0.2-0.1,0.3c-0.1,0-0.2,0-0.3-0.1l-0.3-0.7c0-0.1,0-0.2,0.1-0.3
					C14.7,13.1,14.9,13.1,14.9,13.2z"/>
			</g>
		</g>
	</g>
	<g>
		<g>
			<g>
				<path fill="#3E4347" d="M10.1,17.8l0.7,0.3c0.1,0,0.2,0.2,0.1,0.3c0,0.1-0.2,0.2-0.3,0.1L10,18.2c-0.1,0-0.2-0.2-0.1-0.3
					C9.9,17.8,10,17.7,10.1,17.8z"/>
			</g>
		</g>
	</g>
	<g>
		<g>
			<g>
				<path fill="#3E4347" d="M10,24.4l0.7-0.3c0.1,0,0.2,0,0.3,0.1c0,0.1,0,0.2-0.1,0.3l-0.7,0.3c-0.1,0-0.2,0-0.3-0.1
					C9.8,24.5,9.8,24.4,10,24.4z"/>
			</g>
		</g>
	</g>
	<g>
		<g>
			<g>
				<path fill="#3E4347" d="M14.5,29.1l0.3-0.7c0-0.1,0.2-0.2,0.3-0.1c0.1,0,0.2,0.2,0.1,0.3l-0.3,0.7c0,0.1-0.2,0.2-0.3,0.1
					C14.5,29.4,14.5,29.2,14.5,29.1z"/>
			</g>
		</g>
	</g>
	<g>
		<g>
			<g>
				<path fill="#3E4347" d="M21.1,29.3l-0.3-0.7c0-0.1,0-0.2,0.1-0.3c0.1,0,0.2,0,0.3,0.1l0.3,0.7c0,0.1,0,0.2-0.1,0.3
					C21.3,29.5,21.1,29.4,21.1,29.3z"/>
			</g>
		</g>
	</g>
	<g>
		<g>
			<g>
				<path fill="#3E4347" d="M25.9,24.8l-0.7-0.3c-0.1,0-0.2-0.2-0.1-0.3c0-0.1,0.2-0.2,0.3-0.1l0.7,0.3c0.1,0,0.2,0.2,0.1,0.3
					C26.1,24.7,26,24.8,25.9,24.8z"/>
			</g>
		</g>
	</g>
	<g>
		<g>
			<g>
				<path fill="#3E4347" d="M26,18.2l-0.7,0.3c-0.1,0-0.2,0-0.3-0.1c0-0.1,0-0.2,0.1-0.3l0.7-0.3c0.1,0,0.2,0,0.3,0.1
					C26.2,18,26.2,18.1,26,18.2z"/>
			</g>
		</g>
	</g>
	<g>
		<g>
			<g>
				<path fill="#3E4347" d="M21.5,13.4l-0.3,0.7c0,0.1-0.2,0.2-0.3,0.1c-0.1,0-0.2-0.2-0.1-0.3l0.3-0.7c0-0.1,0.2-0.2,0.3-0.1
					C21.5,13.1,21.5,13.3,21.5,13.4z"/>
			</g>
		</g>
	</g>
	<g>
		<g>
			<g>
				<g>
					<path fill="#3E4347" d="M19.5,21.6c-0.2,0.8-1,1.4-1.8,1.2c-0.8-0.2-1.4-1-1.2-1.8c0.2-0.8,1-1.4,1.8-1.2
						C19.1,19.9,19.7,20.7,19.5,21.6z"/>
				</g>
			</g>
		</g>
		<g>
			<g>
				<g>
					<polygon fill="#3E4347" points="23.1,17.8 23.1,17.8 17.9,20.3 18.8,21.8 					"/>
				</g>
			</g>
		</g>
	</g>
	<g>
		<g>
			<g>
				<g>
					<path fill="#E9EFF4" d="M19.7,4.9v2.6c0,0.3-0.2,0.5-0.5,0.5h-2.4c-0.3,0-0.5-0.2-0.5-0.5V4.9c0-0.3,0.2-0.5,0.5-0.5h2.4
						C19.5,4.4,19.7,4.6,19.7,4.9z"/>
				</g>
			</g>
		</g>
		<g>
			<g>
				<g>
					<path fill="#CBD6E0" d="M17.1,7.4L17.1,7.4c-0.1,0-0.2-0.1-0.2-0.2V5.3c0-0.1,0.1-0.2,0.2-0.2l0,0c0.1,0,0.2,0.1,0.2,0.2v1.9
						C17.3,7.3,17.2,7.4,17.1,7.4z"/>
				</g>
			</g>
			<g>
				<g>
					<path fill="#CBD6E0" d="M18,7.4L18,7.4c-0.1,0-0.2-0.1-0.2-0.2V5.3c0-0.1,0.1-0.2,0.2-0.2l0,0c0.1,0,0.2,0.1,0.2,0.2v1.9
						C18.2,7.3,18.1,7.4,18,7.4z"/>
				</g>
			</g>
			<g>
				<g>
					<path fill="#CBD6E0" d="M18.9,7.4L18.9,7.4c-0.1,0-0.2-0.1-0.2-0.2V5.3c0-0.1,0.1-0.2,0.2-0.2l0,0C19,5.1,19,5.1,19,5.3v1.9
						C19,7.3,19,7.4,18.9,7.4z"/>
				</g>
			</g>
		</g>
	</g>
</g>
</svg>
