<?xml version="1.0" encoding="utf-8"?>
<!-- Generator: Adobe Illustrator 18.0.0, SVG Export Plug-In . SVG Version: 6.00 Build 0)  -->
<!DOCTYPE svg PUBLIC "-//W3C//DTD SVG 1.1//EN" "http://www.w3.org/Graphics/SVG/1.1/DTD/svg11.dtd">
<svg version="1.1" id="Layer_1" xmlns="http://www.w3.org/2000/svg" xmlns:xlink="http://www.w3.org/1999/xlink" x="0px" y="0px"
	 viewBox="0 0 36 36" enable-background="new 0 0 36 36" xml:space="preserve">
<g>
	<g>
		<g>
			<g>
				<g>
					<path fill="#8F6D52" d="M31.4,24.6c-2.2-1.2-3.8-2.8-4.9-4.7h-17c-1,1.9-2.7,3.5-4.9,4.7c-0.8,0.5-1.3,1.3-1.3,2.2v1.3h29.4
						v-1.3C32.7,25.9,32.2,25.1,31.4,24.6z"/>
				</g>
			</g>
			<g>
				<g>
					<path fill="#846144" d="M24.5,20H11.5c-1.2,2.6-3.4,4.9-6.4,6.4v0h25.9v0C28,24.9,25.7,22.6,24.5,20z"/>
				</g>
			</g>
		</g>
		<g>
			<g>
				<circle fill="#A5856D" cx="18" cy="15.5" r="11.1"/>
			</g>
		</g>
		<g>
			<g>
				<circle fill="#FFFFFF" cx="18" cy="15.5" r="8.9"/>
			</g>
		</g>
		<g>
			<g>
				<g>
					<polygon fill="#3E4347" points="21.9,19.4 21.1,17.8 20.8,18 18.3,15.5 18,15.8 20.5,18.4 20.2,18.6 					"/>
				</g>
			</g>
			<g>
				<g>
					<path fill="#3E4347" d="M18.7,11.6c0,0.3-0.2,0.5-0.4,0.6v3.5h-0.5v-3.5c-0.3-0.1-0.4-0.3-0.4-0.6c0-0.7,0.4-1.1,0.7-2.1
						C18.2,10.5,18.7,10.9,18.7,11.6z"/>
				</g>
			</g>
			<g>
				<g>
					<circle fill="#5A5F63" cx="18" cy="15.5" r="1.1"/>
				</g>
			</g>
			<g>
				<g>
					<circle fill="#3E4347" cx="18" cy="15.5" r="0.5"/>
				</g>
			</g>
		</g>
		<g>
			<g>
				<g>
					<path fill="#BBC7D1" d="M18,9L18,9c-0.1,0-0.2-0.1-0.2-0.2V8c0-0.1,0.1-0.2,0.2-0.2l0,0c0.1,0,0.2,0.1,0.2,0.2v0.7
						C18.2,8.9,18.1,9,18,9z"/>
				</g>
			</g>
			<g>
				<g>
					<path fill="#BBC7D1" d="M18.2,8v0.7C18.2,8.9,18.1,9,18,9c-0.1,0-0.2-0.1-0.2-0.2V8c0-0.1,0.1-0.2,0.2-0.2
						C18.1,7.8,18.2,7.9,18.2,8z"/>
				</g>
			</g>
			<g>
				<g>
					<path fill="#DEE4E9" d="M15.3,9c-0.1,0-0.2,0-0.3-0.1l-0.1-0.2c-0.1-0.1,0-0.2,0.1-0.3c0.1,0,0.2,0,0.3,0.1l0.1,0.2
						C15.5,8.9,15.4,9,15.3,9z"/>
				</g>
			</g>
			<g>
				<g>
					<path fill="#BBC7D1" d="M12.9,10.1l0.5,0.5c0.1,0.1,0.1,0.2,0,0.3c-0.1,0.1-0.2,0.1-0.3,0l-0.5-0.5c-0.1-0.1-0.1-0.2,0-0.3
						S12.8,10,12.9,10.1z"/>
				</g>
			</g>
			<g>
				<g>
					<path fill="#DEE4E9" d="M11.5,12.8C11.5,13,11.3,13,11.2,13L11,12.9c-0.1,0-0.2-0.2-0.1-0.3c0.1-0.1,0.2-0.2,0.3-0.1l0.2,0.1
						C11.5,12.6,11.6,12.7,11.5,12.8z"/>
				</g>
			</g>
			<g>
				<g>
					<path fill="#BBC7D1" d="M10.5,15.3h0.7c0.1,0,0.2,0.1,0.2,0.2c0,0.1-0.1,0.2-0.2,0.2h-0.7c-0.1,0-0.2-0.1-0.2-0.2
						C10.3,15.4,10.4,15.3,10.5,15.3z"/>
				</g>
			</g>
			<g>
				<g>
					<path fill="#DEE4E9" d="M11.5,18.2c0,0.1,0,0.2-0.1,0.3l-0.2,0.1c-0.1,0.1-0.2,0-0.3-0.1c0-0.1,0-0.2,0.1-0.3l0.2-0.1
						C11.3,18,11.5,18.1,11.5,18.2z"/>
				</g>
			</g>
			<g>
				<g>
					<path fill="#BBC7D1" d="M12.5,20.7l0.5-0.5c0.1-0.1,0.2-0.1,0.3,0s0.1,0.2,0,0.3L12.9,21c-0.1,0.1-0.2,0.1-0.3,0
						S12.4,20.7,12.5,20.7z"/>
				</g>
			</g>
			<g>
				<g>
					<path fill="#DEE4E9" d="M15.3,22c0.1,0.1,0.2,0.2,0.1,0.3l-0.1,0.2c0,0.1-0.2,0.2-0.3,0.1c-0.1-0.1-0.2-0.2-0.1-0.3l0.1-0.2
						C15.1,22,15.2,22,15.3,22z"/>
				</g>
			</g>
			<g>
				<g>
					<path fill="#BBC7D1" d="M17.8,23v-0.7c0-0.1,0.1-0.2,0.2-0.2c0.1,0,0.2,0.1,0.2,0.2V23c0,0.1-0.1,0.2-0.2,0.2
						C17.9,23.2,17.8,23.1,17.8,23z"/>
				</g>
			</g>
			<g>
				<g>
					<path fill="#DEE4E9" d="M20.7,22c0.1,0,0.2,0,0.3,0.1l0.1,0.2c0.1,0.1,0,0.2-0.1,0.3c-0.1,0-0.2,0-0.3-0.1l-0.1-0.2
						C20.5,22.2,20.6,22.1,20.7,22z"/>
				</g>
			</g>
			<g>
				<g>
					<path fill="#BBC7D1" d="M23.1,21l-0.5-0.5c-0.1-0.1-0.1-0.2,0-0.3c0.1-0.1,0.2-0.1,0.3,0l0.5,0.5c0.1,0.1,0.1,0.2,0,0.3
						S23.2,21.1,23.1,21z"/>
				</g>
			</g>
			<g>
				<g>
					<path fill="#DEE4E9" d="M24.5,18.2c0.1-0.1,0.2-0.2,0.3-0.1l0.2,0.1c0.1,0,0.2,0.2,0.1,0.3c-0.1,0.1-0.2,0.2-0.3,0.1l-0.2-0.1
						C24.5,18.5,24.4,18.3,24.5,18.2z"/>
				</g>
			</g>
			<g>
				<g>
					<path fill="#BBC7D1" d="M25.5,15.8h-0.7c-0.1,0-0.2-0.1-0.2-0.2c0-0.1,0.1-0.2,0.2-0.2h0.7c0.1,0,0.2,0.1,0.2,0.2
						C25.7,15.7,25.6,15.8,25.5,15.8z"/>
				</g>
			</g>
			<g>
				<g>
					<path fill="#DEE4E9" d="M24.5,12.8c0-0.1,0-0.2,0.1-0.3l0.2-0.1c0.1-0.1,0.2,0,0.3,0.1c0,0.1,0,0.2-0.1,0.3L24.8,13
						C24.7,13,24.5,13,24.5,12.8z"/>
				</g>
			</g>
			<g>
				<g>
					<path fill="#BBC7D1" d="M23.5,10.4l-0.5,0.5c-0.1,0.1-0.2,0.1-0.3,0c-0.1-0.1-0.1-0.2,0-0.3l0.5-0.5c0.1-0.1,0.2-0.1,0.3,0
						S23.6,10.3,23.5,10.4z"/>
				</g>
			</g>
			<g>
				<g>
					<path fill="#DEE4E9" d="M20.7,9c-0.1-0.1-0.2-0.2-0.1-0.3l0.1-0.2c0-0.1,0.2-0.2,0.3-0.1c0.1,0.1,0.2,0.2,0.1,0.3L21,8.9
						C20.9,9,20.8,9.1,20.7,9z"/>
				</g>
			</g>
		</g>
	</g>
	<g>
		<g>
			<path fill="#A5856D" d="M34,28.9c0,0.5-0.4,0.9-0.9,0.9h-0.4v1c0,0.4-0.3,0.8-0.8,0.8h-5.6c-0.3,0-0.5-0.1-0.7-0.4
				c-0.5-0.9-1.5-1.4-2.5-1.4H12.9c-1,0-2,0.5-2.5,1.4c-0.1,0.2-0.4,0.4-0.7,0.4H4.1c-0.4,0-0.8-0.4-0.8-0.8v-1H2.9
				c-0.5,0-0.9-0.4-0.9-0.9S2.4,28,2.9,28h30.2C33.6,28,34,28.4,34,28.9z"/>
		</g>
	</g>
</g>
</svg>
