<?xml version="1.0" encoding="utf-8"?>
<!-- Generator: Adobe Illustrator 18.0.0, SVG Export Plug-In . SVG Version: 6.00 Build 0)  -->
<!DOCTYPE svg PUBLIC "-//W3C//DTD SVG 1.1//EN" "http://www.w3.org/Graphics/SVG/1.1/DTD/svg11.dtd">
<svg version="1.1" id="Layer_1" xmlns="http://www.w3.org/2000/svg" xmlns:xlink="http://www.w3.org/1999/xlink" x="0px" y="0px"
	 viewBox="0 0 36 36" enable-background="new 0 0 36 36" xml:space="preserve">
<g>
	<g>
		<g>
			<path fill="#E9EFF4" d="M26.5,25.5c0,4.7-3.8,8.5-8.5,8.5c-4.7,0-8.5-3.8-8.5-8.5c0-3.3,1.9-6.2,4.6-7.6v-12
				C14.1,3.7,15.9,2,18,2c2.1,0,3.9,1.7,3.9,3.9v12C24.6,19.3,26.5,22.2,26.5,25.5z"/>
		</g>
	</g>
	<g>
		<g>
			<path fill="#E24B4B" d="M24.1,25.5c0,3.4-2.8,6.1-6.1,6.1c-3.4,0-6.1-2.8-6.1-6.1c0-2.9,2-5.3,4.6-5.9V9h3v10.5
				C22.1,20.2,24.1,22.6,24.1,25.5z"/>
		</g>
	</g>
	<g>
		<g>
			<path fill="#D03F3F" d="M23.8,27.5c-0.8,2.4-3.1,4.1-5.8,4.1c-3.4,0-6.1-2.7-6.1-6.1c0-1.8,0.8-3.4,2-4.5c-0.2,0.6-0.4,1.3-0.4,2
				c0,3.4,2.7,6.1,6.1,6.1C21.2,29.1,22.7,28.5,23.8,27.5z"/>
		</g>
	</g>
	<g>
		<g>
			
				<ellipse transform="matrix(0.7071 0.7071 -0.7071 0.7071 22.2663 -7.7248)" fill="#FFFFFF" cx="20.5" cy="23" rx="1.5" ry="1.1"/>
		</g>
	</g>
</g>
</svg>
