<?xml version="1.0" encoding="utf-8"?>
<!-- Generator: Adobe Illustrator 18.0.0, SVG Export Plug-In . SVG Version: 6.00 Build 0)  -->
<!DOCTYPE svg PUBLIC "-//W3C//DTD SVG 1.1//EN" "http://www.w3.org/Graphics/SVG/1.1/DTD/svg11.dtd">
<svg version="1.1" id="Layer_1" xmlns="http://www.w3.org/2000/svg" xmlns:xlink="http://www.w3.org/1999/xlink" x="0px" y="0px"
	 viewBox="0 0 36 36" enable-background="new 0 0 36 36" xml:space="preserve">
<g>
	<g>
		<g>
			<g>
				<g>
					<path fill="#DEE4E9" d="M27.6,2.9c-0.4-0.2-0.8-0.1-1,0.3L9.9,30.7h1.8L27.9,4C28.1,3.6,28,3.1,27.6,2.9z"/>
				</g>
			</g>
		</g>
		<g>
			<g>
				<g>
					<g>
						<path fill="#3E4347" d="M31.9,24.5c-0.1-1.3-0.8-2.6-2.1-3.4c-1.4-0.8-3.1-0.8-4.4-0.1c0-1.5-0.7-3-2.1-3.9
							c-1.4-0.8-3.1-0.8-4.4-0.1c0.1-1.5-0.7-3-2.1-3.8c-1.4-0.8-3.1-0.8-4.4-0.1c0-1.5-0.7-3-2.1-3.9C9.2,8.6,7.8,8.5,6.5,9.1
							c4.3-6.9,13.4-9.1,20.3-4.9S36.1,17.5,31.9,24.5z"/>
					</g>
				</g>
			</g>
			<g>
				<g>
					<g>
						<g>
							<path fill="#FFD93B" d="M26.9,4.2L19,17.1c0.1-1.5-0.7-3-2.1-3.8c-1.4-0.8-3.1-0.8-4.4-0.1c0-1.5-0.7-3-2.1-3.9
								C9.2,8.6,7.8,8.5,6.5,9.1C10.8,2.1,19.9-0.1,26.9,4.2z"/>
						</g>
					</g>
				</g>
			</g>
			<g>
				<g>
					<g>
						<path fill="#E24B4B" d="M26.9,4.2c-7-4.2-16.1-2.1-20.3,4.9c1.2-0.5,2.7-0.5,3.9,0.3c1.4,0.8,2.1,2.3,2.1,3.8
							C16.8,6.2,23.3,2,26.9,4.2z"/>
					</g>
				</g>
				<g>
					<g>
						<path fill="#65B1EF" d="M26.9,4.2c3.6,2.2,2.8,9.9-1.4,16.9c1.3-0.7,3-0.8,4.4,0.1c1.2,0.8,2,2,2.1,3.4
							C36.1,17.5,33.8,8.4,26.9,4.2z"/>
					</g>
				</g>
			</g>
		</g>
	</g>
	<g>
		<g>
			<g>
				<path fill="#FFDC97" d="M34,29.6c-25.5,2.9-21.4-4-32-0.6v5h32V29.6z"/>
			</g>
		</g>
	</g>
</g>
</svg>
