<?xml version="1.0" encoding="utf-8"?>
<!-- Generator: Adobe Illustrator 18.0.0, SVG Export Plug-In . SVG Version: 6.00 Build 0)  -->
<!DOCTYPE svg PUBLIC "-//W3C//DTD SVG 1.1//EN" "http://www.w3.org/Graphics/SVG/1.1/DTD/svg11.dtd">
<svg version="1.1" id="Layer_1" xmlns="http://www.w3.org/2000/svg" xmlns:xlink="http://www.w3.org/1999/xlink" x="0px" y="0px"
	 viewBox="0 0 36 36" enable-background="new 0 0 36 36" xml:space="preserve">
<g>
	<g>
		<path fill="#E9EFF4" d="M34,7.4v23.2c0,1.5-1.2,2.7-2.7,2.7H4.7c-1.5,0-2.7-1.2-2.7-2.7V7.4c0-1.5,1.2-2.7,2.7-2.7h26.6
			C32.8,4.7,34,5.9,34,7.4z"/>
	</g>
	<g>
		<path fill="#F29A2E" d="M34,12.3V7.4c0-1.5-1.2-2.7-2.7-2.7H4.7C3.2,4.7,2,5.9,2,7.4v4.8H34z"/>
	</g>
	<g>
		<path fill="#E9EFF4" d="M34,12.3v18.3c0,1.5-1.2,2.7-2.7,2.7H4.7c-1.5,0-2.7-1.2-2.7-2.7V12.3H34z"/>
	</g>
	<g>
		<circle fill="#3E4347" cx="7.4" cy="8.3" r="1.5"/>
	</g>
	<g>
		<path fill="#DAE5EF" d="M8.2,3.5c0-0.5-0.4-0.8-0.8-0.8c-0.5,0-0.8,0.4-0.8,0.8v4.6C6.6,8.6,6.9,9,7.4,9c0.5,0,0.8-0.4,0.8-0.8
			V3.5z"/>
	</g>
	<g>
		<circle fill="#3E4347" cx="12.7" cy="8.3" r="1.5"/>
	</g>
	<g>
		<path fill="#DAE5EF" d="M13.5,3.5c0-0.5-0.4-0.8-0.8-0.8c-0.5,0-0.8,0.4-0.8,0.8v4.6c0,0.5,0.4,0.8,0.8,0.8c0.5,0,0.8-0.4,0.8-0.8
			V3.5z"/>
	</g>
	<g>
		<circle fill="#3E4347" cx="18" cy="8.3" r="1.5"/>
	</g>
	<g>
		<path fill="#DAE5EF" d="M18.8,3.5c0-0.5-0.4-0.8-0.8-0.8c-0.5,0-0.8,0.4-0.8,0.8v4.6C17.2,8.6,17.5,9,18,9c0.5,0,0.8-0.4,0.8-0.8
			V3.5z"/>
	</g>
	<g>
		<circle fill="#3E4347" cx="23.3" cy="8.3" r="1.5"/>
	</g>
	<g>
		<path fill="#DAE5EF" d="M24.1,3.5c0-0.5-0.4-0.8-0.8-0.8c-0.5,0-0.8,0.4-0.8,0.8v4.6c0,0.5,0.4,0.8,0.8,0.8c0.5,0,0.8-0.4,0.8-0.8
			V3.5z"/>
	</g>
	<g>
		<circle fill="#3E4347" cx="28.6" cy="8.3" r="1.5"/>
	</g>
	<g>
		<path fill="#DAE5EF" d="M29.4,3.5c0-0.5-0.4-0.8-0.8-0.8c-0.5,0-0.8,0.4-0.8,0.8v4.6c0,0.5,0.4,0.8,0.8,0.8c0.5,0,0.8-0.4,0.8-0.8
			V3.5z"/>
	</g>
	<g>
		<path fill="#3E4347" d="M17.2,26.2V28h-7.1c0.1-0.7,0.3-1.4,0.7-2c0.4-0.6,1.2-1.5,2.3-2.5c0.9-0.9,1.5-1.4,1.7-1.7
			c0.3-0.4,0.4-0.8,0.4-1.2c0-0.9-0.5-1.4-1.4-1.4c-1,0-1.4,0.7-1.4,1.7l-2-0.2c0.1-1.1,0.5-1.9,1.1-2.4c0.6-0.5,1.4-0.7,2.4-0.7
			c1,0,1.9,0.3,2.5,0.8c1,0.9,1.1,2.3,0.6,3.5c-0.4,1.1-1.3,1.9-2.1,2.7c-0.5,0.5-1.3,1.2-1.6,1.7H17.2z"/>
	</g>
	<g>
		<path fill="#3E4347" d="M22.5,17.4c2.8,0,3.5,2.6,3.5,5.4c0,2.8-0.7,5.4-3.5,5.4c-2.9,0-3.5-2.7-3.5-5.4
			C19,20,19.7,17.4,22.5,17.4z M22.5,19.1c-1.4,0-1.3,2.2-1.3,3.7c0,1.5,0,3.7,1.3,3.7c1.4,0,1.3-2.3,1.3-3.7
			C23.8,21.4,23.8,19.1,22.5,19.1z"/>
	</g>
</g>
</svg>
