<?xml version="1.0" encoding="utf-8"?>
<!-- Generator: Adobe Illustrator 18.0.0, SVG Export Plug-In . SVG Version: 6.00 Build 0)  -->
<!DOCTYPE svg PUBLIC "-//W3C//DTD SVG 1.1//EN" "http://www.w3.org/Graphics/SVG/1.1/DTD/svg11.dtd">
<svg version="1.1" id="Layer_1" xmlns="http://www.w3.org/2000/svg" xmlns:xlink="http://www.w3.org/1999/xlink" x="0px" y="0px"
	 viewBox="0 0 36 36" enable-background="new 0 0 36 36" xml:space="preserve">
<g>
	<g>
		<g>
			<g>
				<g>
					<path fill="#3E4347" d="M9.7,11.4c0.4,0.4,0.4,1.3,0.3,1.6c-0.1,0.3-0.4,0.3-0.8-0.2c-0.4-0.5-1.9-1.8-2.4-1.7
						c-0.6,0.1-1,0.6-2.1,2.2s-1.3,3.2-1.3,3.2l-0.4-0.1l-0.8-0.1c0.6-2.8,2.2-4.9,3.1-5.6c0.9-0.7,1.5-0.8,2.1-0.5
						C7.8,10.5,9.3,11,9.7,11.4z"/>
				</g>
				<g>
					<path fill="#3E4347" d="M33.9,16.4l-0.8,0.1l-0.4,0.1c0,0-0.2-1.6-1.3-3.2c-1.1-1.7-1.6-2.2-2.1-2.2c-0.6-0.1-2,1.2-2.4,1.7
						c-0.4,0.5-0.7,0.5-0.8,0.2c-0.1-0.3-0.1-1.2,0.3-1.6c0.4-0.4,1.9-0.9,2.5-1.1c0.6-0.2,1.2-0.1,2.1,0.5
						C31.8,11.5,33.3,13.6,33.9,16.4z"/>
				</g>
			</g>
		</g>
	</g>
	<g>
		<g>
			<path fill="#5A5F63" d="M13.5,24.1C11,25,6.5,24.8,5.3,22.8c-0.4-0.6-1-3.3-1-4.3c0.1-0.9,1.5-1.3,1.5-1.3c3.7-0.8,8.4,0.1,9,0.6
				C16.5,19,14.8,23.6,13.5,24.1z M30.7,22.8c-1.2,2.1-5.6,2.2-8.1,1.3c-1.3-0.5-3-5-1.4-6.2c0.6-0.5,5.4-1.4,9-0.6
				c0,0,1.4,0.3,1.5,1.3C31.7,19.4,31,22.1,30.7,22.8z M33.9,16.4c-0.2-0.4-8.2-0.9-11.3-0.2c-3,0.8-5.3,1-9.3,0
				c-3.1-0.8-11.1-0.3-11.3,0.2c-0.2,0.4,0,1.8,0.2,2.2c0.2,0.5,1,0.5,1.1,1.1c0.2,0.6,0.6,2.6,1.5,4.2c1.4,2.3,8.8,2.6,10.1,0.3
				c1.1-1.8,1.5-3.5,1.7-4.3c0-0.2,0-0.4-0.1-0.5c0,0,0-0.1,0-0.1c0-0.4,0.7-0.7,1.5-0.7c0.8,0,1.5,0.3,1.5,0.7c0,0.1,0,0.1,0,0.1
				c-0.1,0.2-0.1,0.4-0.1,0.5c0.2,0.8,0.6,2.5,1.7,4.3c1.4,2.3,8.7,2,10.1-0.3c0.9-1.5,1.3-3.6,1.5-4.2c0.2-0.6,0.9-0.6,1.1-1.1
				C34,18.2,34.1,16.8,33.9,16.4z"/>
		</g>
	</g>
	<g>
		<g>
			<g>
				<path fill="#65B1EF" d="M13.5,24.1C11,25,6.5,24.8,5.3,22.8c-0.4-0.6-1-3.3-1-4.3c0.1-0.9,1.5-1.3,1.5-1.3
					c3.7-0.8,8.4,0.1,9,0.6C16.5,19,14.8,23.6,13.5,24.1z"/>
			</g>
		</g>
		<g>
			<path fill="#65B1EF" d="M30.7,22.8c-1.2,2.1-5.6,2.2-8.1,1.3c-1.3-0.5-3-5-1.4-6.2c0.6-0.5,5.4-1.4,9-0.6c0,0,1.4,0.3,1.5,1.3
				C31.7,19.4,31,22.1,30.7,22.8z"/>
		</g>
	</g>
	<g>
		<path fill="#4E99D2" d="M31.6,18.5c0-0.2-0.1-0.4-0.3-0.6c-0.3,2-1.9,6.6-9,6.1c0,0,0.1,0,0.1,0.1c2.5,0.9,6.9,0.8,8.1-1.3
			C31,22.1,31.7,19.4,31.6,18.5z"/>
	</g>
	<g>
		<g>
			<path fill="#4E99D2" d="M15.5,19.1c-0.3,0.5-2.7,6.3-9.1,4.6c1.8,1.1,5.1,1,7.1,0.3C14.5,23.7,15.7,20.9,15.5,19.1z"/>
		</g>
	</g>
</g>
</svg>
