<?xml version="1.0" encoding="utf-8"?>
<!-- Generator: Adobe Illustrator 18.0.0, SVG Export Plug-In . SVG Version: 6.00 Build 0)  -->
<!DOCTYPE svg PUBLIC "-//W3C//DTD SVG 1.1//EN" "http://www.w3.org/Graphics/SVG/1.1/DTD/svg11.dtd">
<svg version="1.1" id="Layer_1" xmlns="http://www.w3.org/2000/svg" xmlns:xlink="http://www.w3.org/1999/xlink" x="0px" y="0px"
	 viewBox="0 0 36 36" enable-background="new 0 0 36 36" xml:space="preserve">
<g>
	<g>
		<path fill="#5A5F63" d="M34,29.5c0,0.9-0.7,1.7-1.7,1.7H3.7c-0.9,0-1.6-0.7-1.6-1.7c0-0.9,0.7-1.6,1.6-1.6h28.7
			C33.3,27.8,34,28.6,34,29.5z"/>
	</g>
	<g>
		<path fill="#E84D88" d="M9.9,21.1v6.8H4.9v-6.8c0-0.7,0.5-1.2,1.2-1.2h2.6C9.3,19.9,9.9,20.4,9.9,21.1z"/>
	</g>
	<g>
		<path fill="#8CC63E" d="M17.1,12.4v15.4h-4.9V12.4c0-0.7,0.5-1.2,1.2-1.2h2.6C16.5,11.3,17.1,11.8,17.1,12.4z"/>
	</g>
	<g>
		<path fill="#FFD93B" d="M24.3,17.9v9.9h-4.9v-9.9c0-0.7,0.5-1.2,1.2-1.2h2.6C23.8,16.7,24.3,17.2,24.3,17.9z"/>
	</g>
	<g>
		<path fill="#65B1EF" d="M31.5,6.1v21.8h-4.9V6.1c0-0.7,0.5-1.2,1.2-1.2h2.6C31,4.9,31.5,5.4,31.5,6.1z"/>
	</g>
	<g>
		<path fill="#59A5E0" d="M31.5,6.1c0,0-0.6,21.8-4.9,21.8h4.9V6.1z"/>
	</g>
	<g>
		<path fill="#F4C534" d="M24.3,17.9c0,0-0.1,9.9-4.9,9.9h4.9V17.9z"/>
	</g>
	<g>
		<path fill="#7FB239" d="M17.1,12.4c0,0-0.6,15.4-4.9,15.4h4.9V12.4z"/>
	</g>
	<g>
		<path fill="#D23F77" d="M9.9,21.1c0,0-0.5,6.8-4.9,6.8h4.9V21.1z"/>
	</g>
</g>
</svg>
