<?xml version="1.0" encoding="utf-8"?>
<!-- Generator: Adobe Illustrator 18.0.0, SVG Export Plug-In . SVG Version: 6.00 Build 0)  -->
<!DOCTYPE svg PUBLIC "-//W3C//DTD SVG 1.1//EN" "http://www.w3.org/Graphics/SVG/1.1/DTD/svg11.dtd">
<svg version="1.1" id="Layer_1" xmlns="http://www.w3.org/2000/svg" xmlns:xlink="http://www.w3.org/1999/xlink" x="0px" y="0px"
	 viewBox="0 0 36 36" enable-background="new 0 0 36 36" xml:space="preserve">
<g>
	<g>
		<g>
			<path fill="#84939A" d="M32,30.6c-3.1,3.9-8.8,4.5-12.6,1.4L7.6,22.6c-0.5-0.4-0.5-1-0.2-1.5c0.4-0.4,1-0.5,1.5-0.2l11.8,9.4
				c3,2.4,7.3,1.9,9.7-1.1c2.4-3,1.9-7.3-1.1-9.7L11,5C9.2,3.6,6.5,3.9,5,5.7c-1.4,1.8-1.2,4.4,0.7,6l17.5,14
				c0.7,0.5,1.7,0.4,2.2-0.2c0.5-0.7,0.4-1.7-0.3-2.2l-11-8.8c-0.5-0.4-0.5-1-0.2-1.5c0.4-0.5,1-0.5,1.5-0.2l11,8.8
				c1.6,1.3,1.8,3.6,0.6,5.2c-1.2,1.5-3.7,1.8-5.2,0.6l-17.5-14c-2.7-2.2-3.2-6.1-1-8.9c2.2-2.7,6.2-3.2,8.9-1L30.6,18
				C34.5,21.1,35.1,26.8,32,30.6z"/>
		</g>
	</g>
</g>
</svg>
