<?xml version="1.0" encoding="utf-8"?>
<!-- Generator: Adobe Illustrator 18.0.0, SVG Export Plug-In . SVG Version: 6.00 Build 0)  -->
<!DOCTYPE svg PUBLIC "-//W3C//DTD SVG 1.1//EN" "http://www.w3.org/Graphics/SVG/1.1/DTD/svg11.dtd">
<svg version="1.1" id="Layer_1" xmlns="http://www.w3.org/2000/svg" xmlns:xlink="http://www.w3.org/1999/xlink" x="0px" y="0px"
	 viewBox="0 0 36 36" enable-background="new 0 0 36 36" xml:space="preserve">
<g>
	<g>
		<path fill="#FFD93B" d="M27.8,3.8c-6.6,0.4-13.1,0.4-19.7,0C7.9,3.9,7.6,4,7.3,4.1v2.2c0.3,0.1,0.5,0.2,0.9,0.3
			c6.6-0.4,13.1-0.4,19.7,0c0.3-0.1,0.6-0.2,0.9-0.3V4.1C28.4,4,28.2,3.9,27.8,3.8z"/>
	</g>
	<g>
		<path fill="#3E4347" d="M5.2,6H2.7C2.3,6,2,5.7,2,5.3V5.1c0-0.4,0.3-0.7,0.7-0.7h2.4V6z"/>
	</g>
	<g>
		<path fill="#BF3333" d="M7.3,4.1C7,3.7,6.5,3.5,6,3.5c-0.9,0-1.9,0.7-1.9,1.7c0,0.9,1,1.7,1.9,1.7c0.5,0,0.9-0.2,1.2-0.6V4.1z"/>
	</g>
	<g>
		<path fill="#E24B4B" d="M4.4,6.7H4.2c-0.3,0-0.5-0.2-0.5-0.5v-2c0-0.3,0.2-0.5,0.5-0.5h0.1c0.3,0,0.5,0.2,0.5,0.5v2
			C4.9,6.5,4.7,6.7,4.4,6.7z"/>
	</g>
	<g>
		<path fill="#E24B4B" d="M7.7,7.1H7.5C7.2,7.1,7,6.9,7,6.6V3.7c0-0.3,0.2-0.5,0.5-0.5h0.1c0.3,0,0.5,0.2,0.5,0.5v2.9
			C8.2,6.9,7.9,7.1,7.7,7.1z"/>
	</g>
	<g>
		<path fill="#3E4347" d="M30.8,4.3h2.4c0.4,0,0.7,0.3,0.7,0.7v0.2C34,5.7,33.7,6,33.3,6l-2.4,0V4.3z"/>
	</g>
	<g>
		<path fill="#BF3333" d="M28.7,6.3C29,6.6,29.5,6.8,30,6.8c0.9,0,1.9-0.7,1.9-1.7c0-0.9-1-1.7-1.9-1.7c-0.5,0-0.9,0.2-1.2,0.6V6.3z
			"/>
	</g>
	<g>
		<path fill="#E24B4B" d="M31.6,3.6h0.1c0.3,0,0.5,0.2,0.5,0.5v2c0,0.3-0.2,0.5-0.5,0.5h-0.1c-0.3,0-0.5-0.2-0.5-0.5v-2
			C31.1,3.9,31.3,3.6,31.6,3.6z"/>
	</g>
	<g>
		<path fill="#E24B4B" d="M28.3,3.2h0.1c0.3,0,0.5,0.2,0.5,0.5v2.9c0,0.3-0.2,0.5-0.5,0.5h-0.1c-0.3,0-0.5-0.2-0.5-0.5V3.7
			C27.8,3.4,28.1,3.2,28.3,3.2z"/>
	</g>
	<g>
		<path fill="#F4C534" d="M27.8,31.5V6.5c-6.6-1.3-13.1-1.5-19.7,0v24.9H27.8z"/>
	</g>
	<g>
		<path fill="#FFD93B" d="M27.8,29.5c-6.6,1.5-13.1,1.5-19.7,0c-0.3,0.1-0.6,0.2-0.9,0.3v2.2c0.3,0.1,0.5,0.2,0.9,0.3
			c6.6-0.4,13.1-0.4,19.7,0c0.3-0.1,0.6-0.2,0.9-0.3v-2.2C28.4,29.7,28.2,29.6,27.8,29.5z"/>
	</g>
	<g>
		<path fill="#3E4347" d="M5.2,31.7H2.7c-0.4,0-0.7-0.3-0.7-0.7v-0.2C2,30.3,2.3,30,2.7,30h2.4V31.7z"/>
	</g>
	<g>
		<path fill="#BF3333" d="M7.3,29.7C7,29.4,6.5,29.2,6,29.2c-0.9,0-1.9,0.7-1.9,1.7c0,0.9,1,1.7,1.9,1.7c0.5,0,0.9-0.2,1.2-0.6V29.7
			z"/>
	</g>
	<g>
		<path fill="#E24B4B" d="M4.4,32.4H4.2c-0.3,0-0.5-0.2-0.5-0.5v-2c0-0.3,0.2-0.5,0.5-0.5h0.1c0.3,0,0.5,0.2,0.5,0.5v2
			C4.9,32.1,4.7,32.4,4.4,32.4z"/>
	</g>
	<g>
		<path fill="#E24B4B" d="M7.7,32.8H7.5c-0.3,0-0.5-0.2-0.5-0.5v-2.9c0-0.3,0.2-0.5,0.5-0.5h0.1c0.3,0,0.5,0.2,0.5,0.5v2.9
			C8.2,32.6,7.9,32.8,7.7,32.8z"/>
	</g>
	<g>
		<path fill="#3E4347" d="M30.8,30l2.4,0c0.4,0,0.7,0.3,0.7,0.7v0.2c0,0.4-0.3,0.7-0.7,0.7l-2.4,0V30z"/>
	</g>
	<g>
		<path fill="#BF3333" d="M28.7,31.9c0.3,0.3,0.7,0.6,1.2,0.6c0.9,0,1.9-0.7,1.9-1.7c0-0.9-1-1.7-1.9-1.7c-0.5,0-0.9,0.2-1.2,0.6
			V31.9z"/>
	</g>
	<g>
		<path fill="#E24B4B" d="M31.6,29.3h0.1c0.3,0,0.5,0.2,0.5,0.5v2c0,0.3-0.2,0.5-0.5,0.5h-0.1c-0.3,0-0.5-0.2-0.5-0.5v-2
			C31.1,29.5,31.3,29.3,31.6,29.3z"/>
	</g>
	<g>
		<path fill="#E24B4B" d="M28.3,28.9h0.1c0.3,0,0.5,0.2,0.5,0.5v2.9c0,0.3-0.2,0.5-0.5,0.5h-0.1c-0.3,0-0.5-0.2-0.5-0.5v-2.9
			C27.8,29.1,28.1,28.9,28.3,28.9z"/>
	</g>
	<g>
		<path fill="#E18823" d="M24.7,10.6c0,0.3-0.3,0.6-0.6,0.6H11.9c-0.3,0-0.6-0.3-0.6-0.6c0-0.3,0.3-0.6,0.6-0.6h12.2
			C24.4,10,24.7,10.3,24.7,10.6z"/>
	</g>
	<g>
		<path fill="#E18823" d="M24.7,14.5c0,0.3-0.3,0.6-0.6,0.6H11.9c-0.3,0-0.6-0.3-0.6-0.6c0-0.3,0.3-0.6,0.6-0.6h12.2
			C24.4,13.9,24.7,14.2,24.7,14.5z"/>
	</g>
	<g>
		<path fill="#E18823" d="M24.7,18.5c0,0.3-0.3,0.6-0.6,0.6H11.9c-0.3,0-0.6-0.3-0.6-0.6c0-0.3,0.3-0.6,0.6-0.6h12.2
			C24.4,17.9,24.7,18.2,24.7,18.5z"/>
	</g>
	<g>
		<path fill="#E18823" d="M24.7,22.5c0,0.3-0.3,0.6-0.6,0.6H11.9c-0.3,0-0.6-0.3-0.6-0.6c0-0.3,0.3-0.6,0.6-0.6h12.2
			C24.4,21.8,24.7,22.1,24.7,22.5z"/>
	</g>
	<g>
		<path fill="#E18823" d="M24.7,26.4c0,0.3-0.3,0.6-0.6,0.6H11.9c-0.3,0-0.6-0.3-0.6-0.6c0-0.3,0.3-0.6,0.6-0.6h12.2
			C24.4,25.8,24.7,26.1,24.7,26.4z"/>
	</g>
</g>
</svg>
