<?xml version="1.0" encoding="utf-8"?>
<!-- Generator: Adobe Illustrator 18.0.0, SVG Export Plug-In . SVG Version: 6.00 Build 0)  -->
<!DOCTYPE svg PUBLIC "-//W3C//DTD SVG 1.1//EN" "http://www.w3.org/Graphics/SVG/1.1/DTD/svg11.dtd">
<svg version="1.1" id="Layer_1" xmlns="http://www.w3.org/2000/svg" xmlns:xlink="http://www.w3.org/1999/xlink" x="0px" y="0px"
	 viewBox="0 0 36 36" enable-background="new 0 0 36 36" xml:space="preserve">
<g>
	<g>
		<rect x="4.6" y="15.1" fill="#3E4347" width="2.8" height="4.6"/>
	</g>
	<g>
		<path fill="#5A5F63" d="M2,20.6v-6.5c0-0.3,0.4-0.6,0.7-0.4l2.9,1.4v4.6l-2.9,1.4C2.4,21.2,2,21,2,20.6z"/>
	</g>
	<g>
		<path fill="#3E4347" d="M31.1,9.4v6.7h-6.4c-1.8,0-3.3-1.5-3.3-3.3c0-0.9,0.4-1.8,1-2.4c0.6-0.6,1.4-1,2.4-1H31.1z"/>
	</g>
	<g>
		<path fill="#5A5F63" d="M34,8.4v8.8c0,0.4-0.4,0.6-0.7,0.5l-3.2-1.5V9.4l3.2-1.5C33.6,7.8,34,8,34,8.4z"/>
	</g>
	<g>
		<path fill="#5A5F63" d="M27.8,13.4v13.7c0,0.6-0.5,1-1,1H8c-0.6,0-1.1-0.5-1.1-1.1V13.4c0-0.6,0.5-1,1.1-1h18.8
			C27.3,12.3,27.8,12.8,27.8,13.4z"/>
	</g>
	<g>
		<path fill="#3E4347" d="M20.6,20.9v4.5c0,0.4-0.3,0.7-0.7,0.7h-9.5c-0.4,0-0.7-0.3-0.7-0.7v-4.5c0-0.4,0.3-0.7,0.7-0.7H20
			C20.3,20.2,20.6,20.5,20.6,20.9z"/>
	</g>
	<g>
		<path fill="#32373A" d="M20,20.2h-9.5c-0.4,0-0.7,0.3-0.7,0.7v4.5c0,0.4,0.3,0.7,0.7,0.7H11v-4.7h9.7v-0.5
			C20.6,20.5,20.3,20.2,20,20.2z"/>
	</g>
	<g>
		<path fill="#FFD93B" d="M13.9,23.3c0,0.5-0.4,0.9-0.9,0.9c-0.5,0-0.9-0.4-0.9-0.9s0.4-0.9,0.9-0.9C13.5,22.4,13.9,22.8,13.9,23.3z
			"/>
	</g>
	<g>
		<path fill="#F4C534" d="M13.9,23.3c0,0.5-0.4,0.9-0.9,0.9c-0.4,0-0.7-0.2-0.8-0.5c0.1,0.1,0.3,0.1,0.4,0.1c0.5,0,0.9-0.4,0.9-0.9
			c0-0.1,0-0.3-0.1-0.4C13.7,22.7,13.9,23,13.9,23.3z"/>
	</g>
	<g>
		<path fill="#FFFFFF" d="M12.8,23.1c-0.1,0.1-0.3,0.1-0.3,0.1c-0.1-0.1,0-0.2,0.1-0.3c0.1-0.1,0.3-0.1,0.3-0.1
			C12.9,22.8,12.9,23,12.8,23.1z"/>
	</g>
	<g>
		<path fill="#E24B4B" d="M16.5,23.3c0,0.5-0.4,0.9-0.9,0.9c-0.5,0-0.9-0.4-0.9-0.9s0.4-0.9,0.9-0.9C16.1,22.4,16.5,22.8,16.5,23.3z
			"/>
	</g>
	<g>
		<path fill="#D03F3F" d="M16.5,23.3c0,0.5-0.4,0.9-0.9,0.9c-0.4,0-0.7-0.2-0.8-0.5c0.1,0.1,0.3,0.1,0.4,0.1c0.5,0,0.9-0.4,0.9-0.9
			c0-0.1,0-0.3-0.1-0.4C16.3,22.7,16.5,23,16.5,23.3z"/>
	</g>
	<g>
		<path fill="#FFFFFF" d="M15.4,23.1c-0.1,0.1-0.3,0.1-0.3,0.1c-0.1-0.1,0-0.2,0.1-0.3c0.1-0.1,0.3-0.1,0.3-0.1
			C15.6,22.8,15.5,23,15.4,23.1z"/>
	</g>
</g>
</svg>
