<?xml version="1.0" encoding="utf-8"?>
<!-- Generator: Adobe Illustrator 18.0.0, SVG Export Plug-In . SVG Version: 6.00 Build 0)  -->
<!DOCTYPE svg PUBLIC "-//W3C//DTD SVG 1.1//EN" "http://www.w3.org/Graphics/SVG/1.1/DTD/svg11.dtd">
<svg version="1.1" id="Layer_1" xmlns="http://www.w3.org/2000/svg" xmlns:xlink="http://www.w3.org/1999/xlink" x="0px" y="0px"
	 viewBox="0 0 36 36" enable-background="new 0 0 36 36" xml:space="preserve">
<g>
	<g>
		<g>
			<g>
				<ellipse fill="none" cx="26.2" cy="18.6" rx="6.6" ry="6.2"/>
			</g>
		</g>
		<g>
			<g>
				<path fill="#3E4347" d="M34,12v2.4c0,0.1,0,0.2-0.1,0.3c-0.4,0.7-0.5,1.8-0.3,2.6c0.1,0.4,0.1,0.7,0.1,1.1c0,0.5,0,0.9-0.5,0.9
					c-0.3,0-0.5-0.2-0.5-0.5c0-0.1,0-0.1,0-0.2c0-3.4-2.9-6.2-6.6-6.2c-3.6,0-6.6,2.8-6.6,6.2v0.3c0,0.2-0.2,0.4-0.4,0.4
					c-0.2,0-0.4-0.2-0.4-0.4c-0.1-0.6-0.1-1.3,0.1-2c0.1-0.5-0.3-1-0.8-1c-0.5,0-0.9,0.5-0.8,1c0.1,0.7,0.1,1.4,0.1,2
					c0,0.2-0.2,0.4-0.4,0.4c-0.2,0-0.4-0.2-0.4-0.4c0-0.1,0-0.2,0-0.3c0-3.4-2.9-6.2-6.6-6.2c-3.6,0-6.6,2.8-6.6,6.2v0.2
					c0,0.3-0.2,0.5-0.5,0.5c-0.5,0-0.5-0.4-0.5-0.9c0-0.4,0-0.7,0.1-1.1c0.2-1.1,0-2-0.3-2.6C2,14.6,2,14.5,2,14.4V12
					c0-0.3,0.2-0.5,0.5-0.5h2.1c1.5,0,2.9-0.1,4.4-0.3c1.9-0.2,3.9,0.2,5.5,1.4c1,0.8,2.2,1.1,3.5,1.1c1.3,0,2.4-0.3,3.6-1.1
					c1.6-1.2,3.6-1.6,5.5-1.4c1.5,0.2,2.9,0.3,4.4,0.3h2.1C33.8,11.5,34,11.8,34,12z"/>
			</g>
		</g>
		<g>
			<g>
				<ellipse fill="#45CBEA" cx="26.2" cy="18.6" rx="6.6" ry="6.2"/>
			</g>
		</g>
		<g>
			<g>
				<path fill="#38C0DC" d="M21.8,23.3c1.2,1,2.7,1.5,4.3,1.5c3.6,0,6.6-2.8,6.6-6.2c0-1.6-0.7-3.1-1.8-4.3
					C30.6,17.7,28.9,24.2,21.8,23.3z"/>
			</g>
		</g>
	</g>
	<g>
		<g>
			<g>
				<ellipse fill="none" cx="9.8" cy="18.6" rx="6.6" ry="6.2"/>
			</g>
		</g>
		<g>
			<g>
				<ellipse fill="#45CBEA" cx="9.8" cy="18.6" rx="6.6" ry="6.2"/>
			</g>
		</g>
		<g>
			<g>
				<path fill="#38C0DC" d="M14.1,23.3c-1.2,1-2.7,1.5-4.3,1.5c-3.6,0-6.6-2.8-6.6-6.2c0-1.6,0.7-3.1,1.8-4.3
					C5.4,17.7,7.1,24.2,14.1,23.3z"/>
			</g>
		</g>
	</g>
</g>
</svg>
