<?xml version="1.0" encoding="utf-8"?>
<!-- Generator: Adobe Illustrator 18.0.0, SVG Export Plug-In . SVG Version: 6.00 Build 0)  -->
<!DOCTYPE svg PUBLIC "-//W3C//DTD SVG 1.1//EN" "http://www.w3.org/Graphics/SVG/1.1/DTD/svg11.dtd">
<svg version="1.1" id="Layer_1" xmlns="http://www.w3.org/2000/svg" xmlns:xlink="http://www.w3.org/1999/xlink" x="0px" y="0px"
	 viewBox="0 0 36 36" enable-background="new 0 0 36 36" xml:space="preserve">
<g>
	<g>
		<g>
			<circle fill="#E9B02C" cx="13.1" cy="12.7" r="0.6"/>
		</g>
	</g>
	<g>
		<g>
			<circle fill="#E9B02C" cx="26.9" cy="11" r="0.5"/>
		</g>
	</g>
	<g>
		<g>
			<g>
				<circle fill="#E9B02C" cx="20.2" cy="18.7" r="0.8"/>
			</g>
		</g>
	</g>
	<g>
		<g>
			<g>
				<circle fill="#45CBEA" cx="19.7" cy="20.9" r="0.5"/>
			</g>
		</g>
	</g>
	<g>
		<g>
			<circle fill="#FC97B2" cx="16.2" cy="18" r="0.9"/>
		</g>
	</g>
	<g>
		<g>
			<circle fill="#E24B4B" cx="21" cy="22.9" r="0.9"/>
		</g>
	</g>
	<g>
		<g>
			<circle fill="#E9B02C" cx="19.7" cy="6.6" r="0.8"/>
		</g>
	</g>
	<g>
		<g>
			<circle fill="#E84D88" cx="29.9" cy="14.4" r="0.8"/>
		</g>
	</g>
	<g>
		<g>
			<circle fill="#E9B02C" cx="25.5" cy="23.3" r="0.3"/>
		</g>
	</g>
	<g>
		<g>
			<g>
				<circle fill="#E88EA7" cx="22.8" cy="15.5" r="0.6"/>
			</g>
		</g>
	</g>
	<g>
		<g>
			<g>
				<circle fill="#84939A" cx="27.6" cy="15.6" r="0.7"/>
			</g>
		</g>
	</g>
	<g>
		<g>
			<g>
				<path fill="#8CC63E" d="M16.3,24.5C16.3,24.5,16.3,24.5,16.3,24.5c-0.1-0.2-0.1-0.4,0-0.5c2.3-2,5.2-3.5,8.2-4.2
					c1.6-0.4,3.2-0.5,4.6-0.4c1.6,0.2,3.1,0.7,4.4,1.5c0.2,0.1,0.2,0.3,0.1,0.5c-0.1,0.2-0.3,0.2-0.5,0.1c-1.1-0.8-2.5-1.2-4-1.4
					c-1.3-0.1-2.8,0-4.3,0.4c-2.9,0.7-5.7,2.1-7.9,4.1C16.6,24.7,16.4,24.6,16.3,24.5z"/>
			</g>
		</g>
	</g>
	<g>
		<g>
			<g>
				<path fill="#7FB239" d="M17.3,13.1c0-0.1,0.1-0.2,0.2-0.2c0.9-0.1,1.7-0.5,2.4-1.1c-0.3-0.1-0.5-0.4-0.6-0.7
					c-0.1-0.4,0.1-0.8,0.5-0.9c0.4-0.2,0.8,0,1,0.4c0.1,0.3,0.1,0.6-0.1,0.9c0.1,0,0.2-0.1,0.4-0.1c0.9-0.4,1.7-1.2,1.5-2.2
					c-0.1-0.5-0.6-0.9-1.1-1c-0.1,0-0.2-0.1-0.2-0.2c0-0.1,0.1-0.2,0.2-0.2c0.7,0.1,1.4,0.6,1.5,1.3c0.2,0.9-0.3,2-1.7,2.7
					c-0.2,0.1-0.6,0.2-0.9,0.2c-0.7,0.8-1.8,1.3-2.8,1.4C17.4,13.3,17.3,13.2,17.3,13.1z M20.3,10.7c-0.1-0.1-0.3-0.1-0.4-0.1
					c-0.2,0.1-0.3,0.3-0.2,0.4c0,0.2,0.3,0.4,0.5,0.4C20.3,11.3,20.4,11,20.3,10.7C20.3,10.7,20.3,10.7,20.3,10.7z"/>
			</g>
		</g>
	</g>
	<g>
		<g>
			<g>
				<path fill="#E24B4B" d="M10,17.9C10,17.9,10,17.9,10,17.9c-0.1-0.2-0.1-0.4,0-0.5c1.9-1.4,4.1-3.1,5.3-5.3c1.6-3,1.1-7-1.3-9.6
					c-0.1-0.1-0.1-0.3,0-0.5c0.1-0.1,0.4-0.1,0.5,0c2.5,2.7,3.1,7,1.4,10.3c-1.2,2.4-3.5,4.1-5.4,5.5C10.3,18.1,10.1,18,10,17.9z"/>
			</g>
		</g>
	</g>
	<g>
		<g>
			<g>
				<path fill="#45CBEA" d="M18.1,18.6c-0.1-0.1-0.1-0.1-0.1-0.2c-0.1-1.2,0.5-2.5,1.4-3.5c1-0.9,2.3-1.5,3.5-1.4
					c0.4,0,0.8,0.1,1.1,0.2c0.3,0.1,0.5,0.1,0.8,0.2c1,0.1,2.1-0.1,3.1-0.8c1-0.6,1.8-1.6,2.1-2.7c0.1-0.2,0.3-0.3,0.4-0.2
					c0.2,0.1,0.3,0.3,0.2,0.4c-0.4,1.2-1.3,2.3-2.4,3c-1.1,0.7-2.4,1.1-3.6,0.9c-0.3,0-0.6-0.1-0.9-0.2c-0.3-0.1-0.7-0.2-1-0.2
					c-1-0.1-2.1,0.4-3,1.2c-0.8,0.8-1.3,1.9-1.2,3c0,0.2-0.1,0.3-0.3,0.4C18.3,18.7,18.2,18.6,18.1,18.6z"/>
			</g>
		</g>
	</g>
	<g>
		<g>
			<g>
				<path fill="#E24B4B" d="M21.9,19.9c-0.1-0.1-0.1-0.3,0-0.3c0.4-0.2,0.7-0.6,0.9-1c-0.3,0-0.7,0-0.9-0.2
					c-0.3-0.2-0.5-0.6-0.4-0.9c0.1-0.3,0.4-0.5,0.7-0.5c0.3,0,0.5,0.1,0.7,0.3c0.2,0.2,0.3,0.5,0.3,0.7c0.5-0.2,1-0.5,1.4-0.9
					c0.1-0.1,0.2-0.1,0.3,0c0.1,0.1,0.1,0.2,0,0.3c-0.4,0.6-1.1,0.9-1.7,1.1c0,0.1-0.1,0.2-0.1,0.3c-0.2,0.4-0.5,0.8-1,1.1
					C22.1,20,22,20,21.9,19.9z M22.6,17.6c-0.1-0.1-0.3-0.2-0.4-0.2c-0.1,0-0.3,0.1-0.3,0.2c-0.1,0.1,0.1,0.3,0.2,0.4
					c0.2,0.1,0.5,0.1,0.7,0.1C22.8,17.9,22.7,17.7,22.6,17.6C22.6,17.6,22.6,17.6,22.6,17.6z"/>
			</g>
		</g>
	</g>
	<g>
		<g>
			<g>
				<g>
					<g>
						<path fill="#F4C534" d="M3.3,34l18.5-7.2L9.6,14.6L2.4,33.1C2.2,33.6,2.8,34.2,3.3,34z"/>
					</g>
				</g>
			</g>
		</g>
		<g>
			<g>
				<path fill="#E9B02C" d="M11.8,16.8l-2.2-2.2L2.4,33.1c-0.1,0.2,0,0.3,0,0.4L11.8,16.8z"/>
			</g>
		</g>
		<g>
			<g>
				<g>
					<path fill="#FFD93B" d="M23.7,27.1c-0.6,0.6-1.5,0.6-2,0L9.3,14.8c-0.6-0.6-0.6-1.5,0-2.1c0.6-0.6,1.5-0.6,2.1,0l12.4,12.4
						C24.3,25.7,24.3,26.6,23.7,27.1z"/>
				</g>
			</g>
		</g>
	</g>
	<g>
		<g>
			<g>
				<path fill="#8CC63E" d="M21.3,13.1l-0.4,0.2c0,0-0.1,0-0.1-0.1l0.2-0.4c0,0,0.1,0,0.1,0L21.3,13.1C21.3,13,21.3,13.1,21.3,13.1z
					"/>
			</g>
		</g>
	</g>
	<g>
		<g>
			<g>
				<path fill="#E84D88" d="M25.4,9.2L25.1,10c0,0.1-0.2,0.1-0.2,0l-0.3-0.8c0-0.1,0-0.1,0.1-0.1h0.6C25.4,9,25.4,9.1,25.4,9.2z"/>
			</g>
		</g>
	</g>
	<g>
		<g>
			<g>
				<path fill="#E9B02C" d="M14.9,16.2l0.3-0.8c0-0.1,0.2-0.1,0.2,0l0.3,0.8c0,0.1,0,0.1-0.1,0.1H15C14.9,16.4,14.9,16.3,14.9,16.2z
					"/>
			</g>
		</g>
	</g>
	<g>
		<g>
			<g>
				<path fill="#45CBEA" d="M19.7,8.9l-0.5,0.7c-0.1,0.1-0.2,0-0.2-0.1l0-0.8c0-0.1,0.1-0.1,0.1-0.1l0.5,0.2
					C19.7,8.7,19.8,8.8,19.7,8.9z"/>
			</g>
		</g>
	</g>
	<g>
		<g>
			<g>
				<path fill="#E9B02C" d="M27.3,17.7l-0.9,0c-0.1,0-0.2-0.1-0.1-0.2l0.7-0.6c0.1,0,0.1,0,0.2,0l0.2,0.6
					C27.4,17.6,27.4,17.7,27.3,17.7z"/>
			</g>
		</g>
	</g>
</g>
</svg>
