<?xml version="1.0" encoding="utf-8"?>
<!-- Generator: Adobe Illustrator 18.0.0, SVG Export Plug-In . SVG Version: 6.00 Build 0)  -->
<!DOCTYPE svg PUBLIC "-//W3C//DTD SVG 1.1//EN" "http://www.w3.org/Graphics/SVG/1.1/DTD/svg11.dtd">
<svg version="1.1" id="Layer_1" xmlns="http://www.w3.org/2000/svg" xmlns:xlink="http://www.w3.org/1999/xlink" x="0px" y="0px"
	 viewBox="0 0 36 36" enable-background="new 0 0 36 36" xml:space="preserve">
<g>
	<g>
		<g>
			<g>
				<g>
					<line fill="#F4C534" x1="16.9" y1="34" x2="3.6" y2="34"/>
				</g>
			</g>
			<g>
				<g>
					<g>
						<path fill="#3E4347" d="M18.4,12.4v7.8c0,1.3-1.3,2.2-2.5,1.8c-3.5-1.2-7.2-1.2-10.9,0c-1.2,0.4-2.5-0.5-2.5-1.8v-7.9
							c0-4.4,3.6-8,8-8C14.8,4.5,18.4,8,18.4,12.4z"/>
					</g>
				</g>
				<g>
					<g>
						<rect x="7.4" y="17.9" fill="#F4C534" width="5.6" height="6.7"/>
					</g>
				</g>
				<g>
					<g>
						<path fill="#D03F3F" d="M16.9,24.3V34H3.6v-9.7c0-2.7,1.7-4.3,4-5.1l2.7,4.2l2.7-4.2C15.1,19.9,16.9,21.6,16.9,24.3z"/>
					</g>
				</g>
				<g>
					<g>
						<g>
							<g>
								<g>
									<path fill="#FFD93B" d="M11.9,27.5l-0.6,0.4c0,0-0.5,0-1.1,0.2c0,0-0.2,1.3-1,1.3c-0.7,0.1,0,0.7,1.1,0.5
										C11.5,29.7,12,29,12,29l0.7-0.5"/>
								</g>
							</g>
							<g>
								<g>
									<g>
										<path fill="#E24B4B" d="M11.3,27.5c0,0,1.1,2.4,3.9,3.9c0,0,2.1-4.1,1.6-7.8C16.5,21,14.6,20,14.6,20S14.4,25.8,11.3,27.5
											z"/>
									</g>
								</g>
								<g>
									<g>
										<path fill="#FFFFFF" d="M15.6,30.4c-0.2,0.7-0.4,1.1-0.4,1.1c-2.9-1.5-3.9-3.9-3.9-3.9c0.3-0.1,0.5-0.3,0.8-0.5
											C12.5,27.8,13.7,29.5,15.6,30.4z"/>
									</g>
								</g>
							</g>
						</g>
					</g>
					<g>
						<g>
							<g>
								<g>
									<path fill="#FFD93B" d="M8.6,27.5l0.6,0.4c0,0,0.5,0,1.1,0.2c0,0,0.2,1.3,1,1.3c0.7,0.1,0,0.7-1.1,0.5
										C9,29.7,8.4,29,8.4,29l-0.7-0.5"/>
								</g>
							</g>
							<g>
								<g>
									<g>
										<path fill="#E24B4B" d="M9.1,27.5c0,0-1.1,2.4-3.9,3.9c0,0-2.1-4.1-1.6-7.8C3.9,21,5.9,20,5.9,20S6,25.8,9.1,27.5z"/>
									</g>
								</g>
								<g>
									<g>
										<path fill="#FFFFFF" d="M4.9,30.4c0.2,0.7,0.4,1.1,0.4,1.1c2.9-1.5,3.9-3.9,3.9-3.9c-0.3-0.1-0.5-0.3-0.8-0.5
											C7.9,27.8,6.7,29.5,4.9,30.4z"/>
									</g>
								</g>
							</g>
						</g>
					</g>
				</g>
				<g>
					<path fill="#FFFFFF" d="M10.2,25.1l3.5-5.6c-0.3-0.1-0.5-0.2-0.8-0.3l-2.7,4.2l-2.7-4.2c-0.3,0.1-0.6,0.2-0.8,0.3L10.2,25.1z"
						/>
				</g>
				<g>
					<g>
						<path fill="#FFD93B" d="M4.6,13.5c-0.2,3.9,2.4,7.2,5.8,7.2c3.5,0,6-3.4,5.8-7.2C12.4,14.1,8.5,14.1,4.6,13.5z"/>
					</g>
				</g>
			</g>
		</g>
		<g>
			<g>
				<g>
					<g>
						<path fill="#3E4347" d="M9,15.5c0,0.4-0.4,0.8-0.8,0.8c-0.4,0-0.8-0.4-0.8-0.8c0-0.4,0.4-0.8,0.8-0.8C8.6,14.6,9,15,9,15.5z"
							/>
					</g>
				</g>
				<g>
					<g>
						<path fill="#5A5F63" d="M8.7,15.2c0,0.1-0.2,0-0.3,0c-0.1-0.1-0.1-0.2-0.1-0.2c0-0.1,0.2,0,0.2,0C8.7,15.1,8.7,15.2,8.7,15.2z
							"/>
					</g>
				</g>
			</g>
			<g>
				<g>
					<g>
						<path fill="#3E4347" d="M13.5,15.5c0,0.4-0.4,0.8-0.8,0.8c-0.4,0-0.8-0.4-0.8-0.8c0-0.4,0.4-0.8,0.8-0.8
							C13.1,14.6,13.5,15,13.5,15.5z"/>
					</g>
				</g>
				<g>
					<g>
						<path fill="#5A5F63" d="M13.1,15.2c0,0.1-0.2,0-0.3,0c-0.1-0.1-0.1-0.2-0.1-0.2c0-0.1,0.2,0,0.2,0
							C13.2,15.1,13.2,15.2,13.1,15.2z"/>
					</g>
				</g>
			</g>
		</g>
		<g>
			<g>
				<g>
					<path fill="#3E4347" d="M10.4,19.4c-0.7,0-1.5-0.3-2-0.8c-0.1-0.1-0.1-0.3,0-0.4c0.1-0.1,0.3-0.1,0.4,0c0.9,0.9,2.3,0.9,3.2,0
						c0.1-0.1,0.3-0.1,0.4,0c0.1,0.1,0.1,0.3,0,0.4C11.9,19.2,11.1,19.4,10.4,19.4z"/>
				</g>
			</g>
		</g>
	</g>
	<g>
		<g>
			<g>
				<g>
					<g>
						<line fill="#F4C534" x1="33.2" y1="34" x2="19.9" y2="34"/>
					</g>
				</g>
				<g>
					<g>
						<g>
							<rect x="23.7" y="17.9" fill="#F4C534" width="5.6" height="6.7"/>
						</g>
					</g>
					<g>
						<g>
							<path fill="#D03F3F" d="M33.2,24.3V34H19.9v-9.7c0-2.7,1.7-4.3,4-5.1l2.7,4.2l2.7-4.2C31.4,19.9,33.2,21.6,33.2,24.3z"/>
						</g>
					</g>
					<g>
						<g>
							<g>
								<g>
									<g>
										<path fill="#FFD93B" d="M28.2,27.5l-0.6,0.4c0,0-0.5,0-1.1,0.2c0,0-0.2,1.3-1,1.3c-0.7,0.1,0,0.7,1.1,0.5
											c1.1-0.2,1.6-0.9,1.6-0.9l0.7-0.5"/>
									</g>
								</g>
								<g>
									<g>
										<g>
											<path fill="#E24B4B" d="M27.6,27.5c0,0,1.1,2.4,3.9,3.9c0,0,2.1-4.1,1.6-7.8C32.8,21,30.9,20,30.9,20
												S30.7,25.8,27.6,27.5z"/>
										</g>
									</g>
									<g>
										<g>
											<path fill="#FFFFFF" d="M31.9,30.4c-0.2,0.7-0.4,1.1-0.4,1.1c-2.9-1.5-3.9-3.9-3.9-3.9c0.3-0.1,0.5-0.3,0.8-0.5
												C28.8,27.8,30,29.5,31.9,30.4z"/>
										</g>
									</g>
								</g>
							</g>
						</g>
						<g>
							<g>
								<g>
									<g>
										<path fill="#FFD93B" d="M24.9,27.5l0.6,0.4c0,0,0.5,0,1.1,0.2c0,0,0.2,1.3,1,1.3c0.7,0.1,0,0.7-1.1,0.5
											c-1.1-0.2-1.6-0.9-1.6-0.9L24,28.5"/>
									</g>
								</g>
								<g>
									<g>
										<g>
											<path fill="#E24B4B" d="M25.4,27.5c0,0-1.1,2.4-3.9,3.9c0,0-2.1-4.1-1.6-7.8c0.3-2.7,2.3-3.6,2.3-3.6
												S22.3,25.8,25.4,27.5z"/>
										</g>
									</g>
									<g>
										<g>
											<path fill="#FFFFFF" d="M21.2,30.4c0.2,0.7,0.4,1.1,0.4,1.1c2.9-1.5,3.9-3.9,3.9-3.9c-0.3-0.1-0.5-0.3-0.8-0.5
												C24.2,27.8,23,29.5,21.2,30.4z"/>
										</g>
									</g>
								</g>
							</g>
						</g>
					</g>
					<g>
						<path fill="#FFFFFF" d="M26.5,25.1l3.5-5.6c-0.3-0.1-0.5-0.2-0.8-0.3l-2.7,4.2l-2.7-4.2c-0.3,0.1-0.6,0.2-0.8,0.3L26.5,25.1z"
							/>
					</g>
				</g>
			</g>
		</g>
		<g>
			<g>
				<path fill="#3E4347" d="M33.6,12.3c0,3.9-3.2,7.5-7,7.5c-3.9,0-7-3.6-7-7.5s3.2-7,7-7C30.4,5.2,33.6,8.4,33.6,12.3z"/>
			</g>
		</g>
		<g>
			<g>
				<path fill="#FFD93B" d="M31.9,14.2c0,3.6-2.3,6.5-5.2,6.5c-2.9,0-5.2-2.9-5.2-6.5c0-1.1,0.2-2.2,0.6-3.1c0.3-0.8,1.2-1.1,2-0.9
					c1.7,0.5,3.5,0.5,5.2,0c0.8-0.2,1.7,0.2,2,0.9C31.7,12,31.9,13.1,31.9,14.2z"/>
			</g>
		</g>
		<g>
			<g>
				<g>
					<g>
						<path fill="#3E4347" d="M25.3,14.1c0,0.4-0.4,0.8-0.8,0.8s-0.8-0.4-0.8-0.8c0-0.4,0.4-0.8,0.8-0.8S25.3,13.7,25.3,14.1z"/>
					</g>
				</g>
				<g>
					<g>
						<path fill="#5A5F63" d="M25,13.9c0,0.1-0.2,0-0.3,0c-0.1-0.1-0.1-0.2-0.1-0.2c0-0.1,0.2,0,0.2,0C25,13.7,25,13.8,25,13.9z"/>
					</g>
				</g>
			</g>
			<g>
				<g>
					<g>
						<path fill="#3E4347" d="M29.8,14.1c0,0.4-0.4,0.8-0.8,0.8c-0.4,0-0.8-0.4-0.8-0.8c0-0.4,0.4-0.8,0.8-0.8
							C29.4,13.3,29.8,13.7,29.8,14.1z"/>
					</g>
				</g>
				<g>
					<g>
						<path fill="#5A5F63" d="M29.5,13.9c0,0.1-0.2,0-0.3,0c-0.1-0.1-0.1-0.2-0.1-0.2c0-0.1,0.2,0,0.2,0
							C29.5,13.7,29.5,13.8,29.5,13.9z"/>
					</g>
				</g>
			</g>
		</g>
		<g>
			<g>
				<g>
					<path fill="#3E4347" d="M26.7,18.5c-0.7,0-1.5-0.3-2-0.8c-0.1-0.1-0.1-0.3,0-0.4c0.1-0.1,0.3-0.1,0.4,0c0.9,0.9,2.3,0.9,3.2,0
						c0.1-0.1,0.3-0.1,0.4,0c0.1,0.1,0.1,0.3,0,0.4C28.2,18.3,27.4,18.5,26.7,18.5z"/>
				</g>
			</g>
		</g>
		<g>
			<g>
				<path fill="#3E4347" d="M28.6,3.9c0,1.1-0.9,3.3-1.9,3.3c-1.1,0-1.9-2.2-1.9-3.3c0-1.1,0.9-1.9,1.9-1.9
					C27.8,2,28.6,2.9,28.6,3.9z"/>
			</g>
		</g>
	</g>
</g>
</svg>
