<?xml version="1.0" encoding="utf-8"?>
<!-- Generator: Adobe Illustrator 18.0.0, SVG Export Plug-In . SVG Version: 6.00 Build 0)  -->
<!DOCTYPE svg PUBLIC "-//W3C//DTD SVG 1.1//EN" "http://www.w3.org/Graphics/SVG/1.1/DTD/svg11.dtd">
<svg version="1.1" id="Layer_1" xmlns="http://www.w3.org/2000/svg" xmlns:xlink="http://www.w3.org/1999/xlink" x="0px" y="0px"
	 viewBox="0 0 36 36" enable-background="new 0 0 36 36" xml:space="preserve">
<g>
	<g>
		<g>
			<g>
				<g>
					<g>
						<g>
							<g>
								<rect x="16" y="10.2" fill="#DEE4E9" width="0.4" height="10.8"/>
							</g>
							<g>
								<polygon fill="#DEE4E9" points="14.1,10.2 14.5,10.2 14.2,22.9 13.8,22.9 								"/>
							</g>
							<g>
								<polygon fill="#DEE4E9" points="12.3,10.2 12.7,10.3 12.2,21.1 11.9,21.1 								"/>
							</g>
							<g>
								
									<rect x="17.8" y="10.2" transform="matrix(-0.9998 -2.017233e-002 2.017233e-002 -0.9998 35.5699 33.5338)" fill="#DEE4E9" width="0.4" height="12.7"/>
							</g>
							<g>
								<rect x="21.6" y="10.2" fill="#DEE4E9" width="0.4" height="12.7"/>
							</g>
							<g>
								<polygon fill="#DEE4E9" points="23.8,10.2 24.2,21.1 23.8,21.1 23.4,10.2 								"/>
							</g>
							<g>
								<rect x="19.7" y="10.2" fill="#DEE4E9" width="0.4" height="10.8"/>
							</g>
						</g>
					</g>
				</g>
			</g>
		</g>
		<g>
			<path fill="#F4C534" d="M25.1,11.3H10.9c0.4-4.7,3.2-6.5,7.1-6.5S24.7,6.6,25.1,11.3z"/>
		</g>
		<g>
			<path fill="#FFD93B" d="M26.1,11.7c0,0.4-0.4,0.8-0.8,0.8H10.7c-0.4,0-0.8-0.4-0.8-0.8s0.4-0.8,0.8-0.8h14.7
				C25.8,10.9,26.1,11.3,26.1,11.7z"/>
		</g>
		<g>
			<g>
				<g>
					<path fill="#E84D88" d="M12.6,20.6L12,31.6c0,0.3-0.3,0.6-0.6,0.5c-0.3,0-0.6-0.3-0.5-0.6l0.6-10.9c0-0.3,0.3-0.6,0.6-0.5
						C12.4,20.1,12.7,20.3,12.6,20.6z"/>
				</g>
			</g>
		</g>
		<g>
			<g>
				<g>
					<path fill="#89664C" d="M14.6,22.5l-0.4,10.9c0,0.3-0.3,0.6-0.6,0.6c-0.3,0-0.6-0.3-0.6-0.6l0.4-10.9c0-0.3,0.3-0.6,0.6-0.6
						C14.3,21.9,14.6,22.2,14.6,22.5z"/>
				</g>
			</g>
		</g>
		<g>
			<g>
				<g>
					<path fill="#8CC63E" d="M16.8,20.6l0.1,10.9c0,0.3-0.3,0.6-0.6,0.6c-0.3,0-0.6-0.2-0.6-0.6l-0.1-10.9c0-0.3,0.3-0.6,0.6-0.6
						C16.5,20,16.8,20.3,16.8,20.6z"/>
				</g>
			</g>
		</g>
		<g>
			<g>
				<g>
					<path fill="#F29A2E" d="M18.4,22.5l-0.2,10.9c0,0.3-0.3,0.6-0.6,0.6c-0.3,0-0.6-0.3-0.6-0.6l0.2-10.9c0-0.3,0.3-0.6,0.6-0.6
						C18.2,21.9,18.5,22.2,18.4,22.5z"/>
				</g>
			</g>
		</g>
		<g>
			<g>
				<g>
					<path fill="#45CBEA" d="M20.5,20.6v10.9c0,0.3-0.3,0.6-0.6,0.6c-0.3,0-0.6-0.3-0.6-0.6V20.6c0-0.3,0.3-0.6,0.6-0.6
						C20.2,20,20.5,20.3,20.5,20.6z"/>
				</g>
			</g>
		</g>
		<g>
			<g>
				<g>
					<path fill="#E24B4B" d="M22.3,22.5v10.9c0,0.3-0.3,0.6-0.6,0.6c-0.3,0-0.6-0.3-0.6-0.6V22.5c0-0.3,0.3-0.6,0.6-0.6
						C22.1,21.9,22.3,22.2,22.3,22.5z"/>
				</g>
			</g>
		</g>
		<g>
			<g>
				<path fill="#FFD93B" d="M24.5,20.6l0.6,10.9c0,0.3-0.2,0.6-0.5,0.6c-0.3,0-0.6-0.2-0.6-0.5l-0.6-10.9c0-0.3,0.2-0.6,0.5-0.6
					C24.2,20,24.5,20.3,24.5,20.6z"/>
			</g>
		</g>
		<g>
			<path fill="#F4C534" d="M18,5.9c-1.1,0-2-0.9-2-2c0-1.1,0.9-2,2-2c1.1,0,2,0.9,2,2C20,5,19.1,5.9,18,5.9z M18,2.8
				c-0.6,0-1.2,0.5-1.2,1.2c0,0.6,0.5,1.2,1.2,1.2c0.6,0,1.2-0.5,1.2-1.2C19.2,3.3,18.6,2.8,18,2.8z"/>
		</g>
	</g>
</g>
</svg>
