<?xml version="1.0" encoding="utf-8"?>
<!-- Generator: Adobe Illustrator 18.0.0, SVG Export Plug-In . SVG Version: 6.00 Build 0)  -->
<!DOCTYPE svg PUBLIC "-//W3C//DTD SVG 1.1//EN" "http://www.w3.org/Graphics/SVG/1.1/DTD/svg11.dtd">
<svg version="1.1" id="Layer_1" xmlns="http://www.w3.org/2000/svg" xmlns:xlink="http://www.w3.org/1999/xlink" x="0px" y="0px"
	 viewBox="0 0 36 36" enable-background="new 0 0 36 36" xml:space="preserve">
<g>
	<g>
		<g>
			<g>
				<path fill="#D23F77" d="M27.3,6.2c-0.9,2.9-9.3,3-9.1,0.7c0.1-1.5,4.6-5.2,6.9-4.8c0.7,0.1,0.1,2,0.3,2.6
					C25.7,5.2,27.6,5.4,27.3,6.2z"/>
			</g>
		</g>
		<g>
			<g>
				<path fill="#D23F77" d="M10.9,2c1.7-0.5,6.8,2.9,6.9,4.8c0.1,2.3-8.2,2.3-9.1-0.7c-0.3-0.8,1.7-0.9,1.9-1.5
					C10.8,4.1,10.2,2.1,10.9,2z"/>
			</g>
		</g>
	</g>
	<g>
		<g>
			<path fill="#CBD6E0" d="M31.9,13.1v19.1c0,1-0.8,1.9-1.9,1.9H6c-1,0-1.9-0.8-1.9-1.9V13.1c0-0.5,0.4-0.9,0.9-0.9H31
				C31.5,12.1,31.9,12.5,31.9,13.1z"/>
		</g>
	</g>
	<g>
		<rect x="4.1" y="20.8" fill="#D23F77" width="27.8" height="4.6"/>
	</g>
	<g>
		<g>
			<path fill="#DAE5EF" d="M33.4,9v5.4c0,0.6-0.5,1-1,1H3.7c-0.6,0-1-0.5-1-1V9c0-0.6,0.5-1,1-1h28.7C32.9,7.9,33.4,8.4,33.4,9z"/>
		</g>
	</g>
	<g>
		<g>
			<path fill="#E84D88" d="M15.7,4.2V34h4.6V4.2C18.8,3.7,17.2,3.7,15.7,4.2z"/>
		</g>
	</g>
</g>
</svg>
