<?xml version="1.0" encoding="utf-8"?>
<!-- Generator: Adobe Illustrator 18.0.0, SVG Export Plug-In . SVG Version: 6.00 Build 0)  -->
<!DOCTYPE svg PUBLIC "-//W3C//DTD SVG 1.1//EN" "http://www.w3.org/Graphics/SVG/1.1/DTD/svg11.dtd">
<svg version="1.1" id="Layer_1" xmlns="http://www.w3.org/2000/svg" xmlns:xlink="http://www.w3.org/1999/xlink" x="0px" y="0px"
	 viewBox="0 0 36 36" enable-background="new 0 0 36 36" xml:space="preserve">
<g>
	<g>
		<g>
			<g>
				<g>
					<g>
						<path fill="#D03F3F" d="M22.6,29.5L18,34c0,0-0.6-0.6-1.4-1.4l-0.4-0.4c-0.5-0.5-1.2-1.1-1.9-1.8c-0.1-0.1-0.3-0.3-0.4-0.4
							c-0.2-0.1-0.3-0.3-0.5-0.5c0.8-8.8,1.9-19.6,2.2-20.4c0.5-1.4,1.1-1.9,1.4-2.9c0.1-0.4,0.5-0.4,1-0.3c0.5-0.1,0.9-0.1,1,0.3
							c0.3,1,0.9,1.5,1.4,2.9C20.8,10,22,22.7,22.6,29.5z"/>
					</g>
				</g>
			</g>
			<g>
				<g>
					<path fill="#BF3333" d="M18.1,6.3c0,0-1.1,9.4-1.2,13.5c-0.1,4.1-1.4,3.3-0.9-0.3C16.5,15.9,18.1,6.3,18.1,6.3z"/>
				</g>
			</g>
			<g>
				<g>
					<path fill="#BF3333" d="M18.1,6.3c0,0,1.3,4.1,1.5,5.5c0.2,1.5,0.8,1.1,0.7,0.1C20.2,10.9,19.4,8.4,18.1,6.3z"/>
				</g>
			</g>
			<g>
				<g>
					<path fill="#FFD93B" d="M22,22.7l-7.7,7.7c-0.1-0.1-0.3-0.3-0.4-0.4l8.1-8.1C21.9,22.2,22,22.4,22,22.7z"/>
				</g>
				<g>
					<path fill="#FFD93B" d="M22.4,26.8l-5.8,5.8l-0.4-0.4l6.2-6.2C22.3,26.3,22.4,26.5,22.4,26.8z"/>
				</g>
				<g>
					<path fill="#FFD93B" d="M14.7,15.6c0,0.3-0.1,0.6-0.1,1l6.1-6.1c0-0.3-0.1-0.5-0.1-0.8L14.7,15.6z"/>
				</g>
				<g>
					<path fill="#FFD93B" d="M15.3,10.5c0,0.3-0.1,0.6-0.1,1l4.3-4.3c-0.1-0.2-0.2-0.4-0.3-0.6L15.3,10.5z"/>
				</g>
				<g>
					<path fill="#FFD93B" d="M13.7,25.6c0,0.3-0.1,0.6-0.1,1l7.9-7.9c0-0.3-0.1-0.5-0.1-0.8L13.7,25.6z"/>
				</g>
				<g>
					<path fill="#FFD93B" d="M14.2,20.6c0,0.3-0.1,0.6-0.1,1l7-7c0-0.3-0.1-0.5-0.1-0.8L14.2,20.6z"/>
				</g>
				<g>
					<g>
						<path fill="#E9B02C" d="M17,17.8c0,0.3,0,0.6-0.1,0.9l-1,1c0-0.1,0-0.1,0-0.2c0-0.3,0.1-0.5,0.1-0.8L17,17.8z"/>
					</g>
				</g>
			</g>
			<g>
				<g>
					<path fill="#E24B4B" d="M21.6,3.9c-0.4,1.4-1.9,3.7-1.9,3.7C19.2,7,18.5,6.8,18,6.8c-0.5,0-1.1,0.2-1.7,0.7
						c0,0-1.5-2.3-1.9-3.7C14.1,2.7,16.3,2.2,18,2C19.7,2.2,21.9,2.7,21.6,3.9z"/>
				</g>
			</g>
		</g>
		<g>
			<g>
				<path fill="#E9B02C" d="M19.9,10.4l-0.5,0.5c0.1,0.3,0.1,0.5,0.2,0.7l0.5-0.5C20.1,10.8,20,10.6,19.9,10.4z"/>
			</g>
			<g>
				<path fill="#E9B02C" d="M17,13.3c-0.1,0.3-0.1,0.7-0.2,1l0.5-0.5c0-0.3,0.1-0.6,0.1-1L17,13.3z"/>
			</g>
			<g>
				<path fill="#E9B02C" d="M18.7,8l0.2-0.2c-0.1-0.2-0.2-0.4-0.3-0.6l-0.2,0.2C18.5,7.6,18.6,7.8,18.7,8z"/>
			</g>
			<g>
				<path fill="#E9B02C" d="M18,7.9L18,7.9c-0.1,0.4-0.2,0.8-0.3,1.1l0.2-0.2C17.9,8.5,17.9,8.1,18,7.9z"/>
			</g>
		</g>
	</g>
	<g>
		<path fill="#FFD93B" d="M21,5.2c0.1-0.2,0.2-0.4,0.3-0.6l-2.5-2.5C18.5,2.1,18.3,2,18,2c-0.1,0-0.1,0-0.2,0L21,5.2z"/>
	</g>
	<g>
		<path fill="#FFD93B" d="M15.6,2.5l4.4,4.4c0.1-0.2,0.2-0.3,0.3-0.5l-4.1-4.1C16.1,2.3,15.9,2.4,15.6,2.5z"/>
	</g>
	<g>
		<path fill="#FFD93B" d="M14.6,3.2c-0.2,0.2-0.2,0.4-0.1,0.7c0,0,0,0,0,0l3,3c0.2-0.1,0.4-0.1,0.6-0.1c0.1,0,0.1,0,0.2,0L14.6,3.2z
			"/>
	</g>
</g>
</svg>
