<?xml version="1.0" encoding="utf-8"?>
<!-- Generator: Adobe Illustrator 18.0.0, SVG Export Plug-In . SVG Version: 6.00 Build 0)  -->
<!DOCTYPE svg PUBLIC "-//W3C//DTD SVG 1.1//EN" "http://www.w3.org/Graphics/SVG/1.1/DTD/svg11.dtd">
<svg version="1.1" id="Layer_1" xmlns="http://www.w3.org/2000/svg" xmlns:xlink="http://www.w3.org/1999/xlink" x="0px" y="0px"
	 viewBox="0 0 36 36" enable-background="new 0 0 36 36" xml:space="preserve">
<g>
	<g>
		<g>
			<g>
				<rect x="10.6" y="10.6" fill="#BBC7D1" width="4.4" height="16.5"/>
			</g>
		</g>
		<g>
			<g>
				<path fill="#38C0DC" d="M17,12.6c-2.4,2.4-6.3,2.4-8.8,0c-2.4-2.4-2.4-6.3,0-8.8c2.4-2.4,6.3-2.4,8.8,0
					C19.4,6.2,19.4,10.2,17,12.6z"/>
			</g>
		</g>
		<g>
			<g>
				<path fill="#45CBEA" d="M17,9.2c-1.5,1.5-3.9,1.5-5.4,0c-1.5-1.5-1.5-3.9,0-5.4c1.5-1.5,3.9-1.5,5.4,0C18.5,5.3,18.5,7.7,17,9.2
					z"/>
			</g>
		</g>
	</g>
	<g>
		<g>
			<g>
				<path fill="#E24B4B" d="M28.6,30.9V28c0-0.5-0.3-0.9-0.8-1c-1.7-0.4-3.3-0.4-4.8,0c-0.4,0.1-0.7,0.5-0.7,1v2.9H28.6z"/>
			</g>
		</g>
		<g>
			<g>
				<path fill="#3E4347" d="M19.7,29.4H5.5l1.3-2.5c0.3-0.6,1-1,1.7-1h8.3c0.7,0,1.3,0.4,1.7,1L19.7,29.4z"/>
			</g>
		</g>
	</g>
	<g>
		<g>
			<path fill="#5A5F63" d="M31.6,29.2H4.4c-1.3,0-2.4,1.1-2.4,2.4l0,0C2,32.9,3.1,34,4.4,34h27.2c1.3,0,2.4-1.1,2.4-2.4l0,0
				C34,30.3,32.9,29.2,31.6,29.2z"/>
		</g>
	</g>
</g>
</svg>
