<?xml version="1.0" encoding="utf-8"?>
<!-- Generator: Adobe Illustrator 18.0.0, SVG Export Plug-In . SVG Version: 6.00 Build 0)  -->
<!DOCTYPE svg PUBLIC "-//W3C//DTD SVG 1.1//EN" "http://www.w3.org/Graphics/SVG/1.1/DTD/svg11.dtd">
<svg version="1.1" id="Layer_1" xmlns="http://www.w3.org/2000/svg" xmlns:xlink="http://www.w3.org/1999/xlink" x="0px" y="0px"
	 viewBox="0 0 36 36" enable-background="new 0 0 36 36" xml:space="preserve">
<g>
	<g>
		<g>
			<path fill="#FFD93B" d="M7.1,2.4L2.4,7.1c-0.6,0.6-0.6,1.4,0,2l24.4,24.4c0.6,0.6,1.5,0.6,2,0l4.7-4.7c0.6-0.6,0.6-1.5,0-2
				L9.2,2.4C8.6,1.9,7.7,1.9,7.1,2.4z M7.5,7.5C7.1,7.9,6.4,8,6,7.5C5.6,7.1,5.6,6.4,6,6c0.4-0.4,1.1-0.4,1.5,0C8,6.4,8,7.1,7.5,7.5
				z"/>
		</g>
	</g>
	<g>
		
			<rect x="14.6" y="20.8" transform="matrix(0.7071 -0.7071 0.7071 0.7071 -10.3553 17.071)" fill="#3E4347" width="1.6" height="0.6"/>
	</g>
	<g>
		
			<rect x="12.6" y="18.7" transform="matrix(0.7071 -0.7071 0.7071 0.7071 -9.5136 15.039)" fill="#3E4347" width="1.6" height="0.6"/>
	</g>
	<g>
		
			<rect x="15.6" y="21.8" transform="matrix(0.7071 -0.7071 0.7071 0.7071 -10.7769 18.089)" fill="#3E4347" width="1.6" height="0.6"/>
	</g>
	<g>
		
			<rect x="16.7" y="22.8" transform="matrix(0.7071 -0.7071 0.7071 0.7071 -11.197 19.103)" fill="#3E4347" width="1.6" height="0.6"/>
	</g>
	<g>
		
			<rect x="19.7" y="25.8" transform="matrix(0.7071 -0.7071 0.7071 0.7071 -12.4589 22.1493)" fill="#3E4347" width="1.6" height="0.6"/>
	</g>
	<g>
		
			<rect x="21.7" y="27.9" transform="matrix(0.7071 -0.7071 0.7071 0.7071 -13.3005 24.1813)" fill="#3E4347" width="1.6" height="0.6"/>
	</g>
	<g>
		
			<rect x="22.8" y="28.9" transform="matrix(0.7071 -0.7071 0.7071 0.7071 -13.7222 25.1993)" fill="#3E4347" width="1.6" height="0.6"/>
	</g>
	<g>
		
			<rect x="23.8" y="29.9" transform="matrix(0.7071 -0.7071 0.7071 0.7071 -14.1423 26.2134)" fill="#3E4347" width="1.6" height="0.6"/>
	</g>
	<g>
		
			<rect x="18.7" y="24.8" transform="matrix(0.7071 -0.7071 0.7071 0.7071 -12.0386 21.1338)" fill="#3E4347" width="1.6" height="0.6"/>
	</g>
	<g>
		
			<rect x="25.8" y="31.9" transform="matrix(-0.7071 0.7071 -0.7071 -0.7071 68.1905 36.1767)" fill="#3E4347" width="1.6" height="0.6"/>
	</g>
	<g>
		
			<rect x="4.5" y="10.6" transform="matrix(0.7071 -0.7071 0.7071 0.7071 -6.1481 6.914)" fill="#3E4347" width="1.6" height="0.6"/>
	</g>
	<g>
		<rect x="6.5" y="12.6" transform="matrix(0.7071 -0.7071 0.7071 0.7071 -6.99 8.9465)" fill="#3E4347" width="1.6" height="0.6"/>
	</g>
	<g>
		
			<rect x="7.5" y="13.6" transform="matrix(0.7071 -0.7071 0.7071 0.7071 -7.4102 9.9615)" fill="#3E4347" width="1.6" height="0.6"/>
	</g>
	<g>
		
			<rect x="10.6" y="16.7" transform="matrix(0.7071 -0.7071 0.7071 0.7071 -8.6719 13.0069)" fill="#3E4347" width="1.6" height="0.6"/>
	</g>
	<g>
		
			<rect x="11.6" y="17.7" transform="matrix(0.7071 -0.7071 0.7071 0.7071 -9.0935 14.0248)" fill="#3E4347" width="1.6" height="0.6"/>
	</g>
	<g>
		
			<rect x="8.5" y="14.7" transform="matrix(0.7071 -0.7071 0.7071 0.7071 -7.8317 10.9786)" fill="#3E4347" width="1.6" height="0.6"/>
	</g>
	<g>
		
			<rect x="24.5" y="30.2" transform="matrix(-0.7071 0.7071 -0.7071 -0.7071 66.3929 33.5637)" fill="#3E4347" width="3.5" height="0.6"/>
	</g>
	<g>
		
			<rect x="13.3" y="19.1" transform="matrix(-0.7071 0.7071 -0.7071 -0.7071 39.4244 22.3929)" fill="#3E4347" width="3.5" height="0.6"/>
	</g>
	<g>
		
			<rect x="6.7" y="9.5" transform="matrix(-0.7071 -0.7071 0.7071 -0.7071 3.9187 24.0972)" fill="#3E4347" width="0.6" height="3.5"/>
	</g>
	<g>
		
			<rect x="17.4" y="23.1" transform="matrix(-0.7071 0.7071 -0.7071 -0.7071 49.2271 26.4534)" fill="#3E4347" width="3.5" height="0.6"/>
	</g>
	<g>
		
			<rect x="9.3" y="15" transform="matrix(-0.7071 0.7071 -0.7071 -0.7071 29.613 18.3289)" fill="#3E4347" width="3.5" height="0.6"/>
	</g>
	<g>
		
			<rect x="20.4" y="26.2" transform="matrix(-0.7071 0.7071 -0.7071 -0.7071 56.5812 29.5004)" fill="#3E4347" width="3.5" height="0.6"/>
	</g>
</g>
</svg>
