<?xml version="1.0" encoding="utf-8"?>
<!-- Generator: Adobe Illustrator 18.0.0, SVG Export Plug-In . SVG Version: 6.00 Build 0)  -->
<!DOCTYPE svg PUBLIC "-//W3C//DTD SVG 1.1//EN" "http://www.w3.org/Graphics/SVG/1.1/DTD/svg11.dtd">
<svg version="1.1" id="Layer_1" xmlns="http://www.w3.org/2000/svg" xmlns:xlink="http://www.w3.org/1999/xlink" x="0px" y="0px"
	 viewBox="0 0 36 36" enable-background="new 0 0 36 36" xml:space="preserve">
<g>
	<g>
		<g>
			<g>
				<g>
					<path fill="#DEE4E9" d="M23.5,22.1l-1.8,1.1l-1.6-2.8l-3.8-1.9l-0.1-0.2C13.7,13.2,12.3,7.7,11,2.8c-0.1-0.3,0.1-0.6,0.3-0.8
						c0.3-0.2,0.6-0.1,0.8,0.2L23.5,22.1z"/>
				</g>
			</g>
		</g>
		<g>
			<g>
				<g>
					<g>
						<g>
							<path fill="#E9EFF4" d="M25,2.8c-1.3,4.9-2.7,10.3-5.2,15.4l-0.1,0.2l-3.8,1.9l-1.6,2.8l-1.8-1.1L23.9,2.3
								c0.2-0.3,0.5-0.4,0.8-0.2C25,2.2,25.1,2.6,25,2.8z"/>
						</g>
					</g>
				</g>
				<g>
					<g>
						<path fill="#65B1EF" d="M30.9,26.8c-1.1-2.2-2.7-3.2-4.2-4c-1.1-0.7-2.1-1-5-5.2c-0.2-0.2-0.5-0.4-0.7-0.3
							c-0.3,0-0.5,0.3-0.6,0.5L19.8,20c-0.1,0.2-0.1,0.5,0,0.7l1.1,3.2c0.2,0.5,0.6,0.8,1.1,0.9l3.4,7.2c1,2,3.5,2.5,5.1,1.2
							C31.7,32.2,32.3,29.6,30.9,26.8z M29.4,31.8c-0.8,0.7-2.1,0.4-2.5-0.6l-1.9-4c-0.4-0.8-0.1-1.7,0.7-2.1c0,0,0,0,0,0
							c1.4-0.8,3.2,1.2,3.8,2.5C30.5,29.6,30,31.3,29.4,31.8z"/>
					</g>
					<g>
						<path fill="#65B1EF" d="M15.6,17.9c-0.1-0.3-0.3-0.5-0.6-0.5c-0.3-0.1-0.6,0.1-0.7,0.3c-3,4.2-3.8,4.4-5,5.2
							c-1.5,0.9-3,1.8-4.2,4c-1.4,2.8-0.8,5.4,0.4,6.4c1.6,1.4,4.1,0.8,5.1-1.2l3.4-7.2c0.5-0.1,0.9-0.4,1.1-0.9l1.1-3.2
							c0.1-0.2,0.1-0.5,0-0.7L15.6,17.9z M11.1,27.2l-1.9,4c-0.5,1-1.7,1.3-2.5,0.6c-0.6-0.5-1.1-2.2-0.1-4.3
							c0.6-1.3,2.4-3.3,3.8-2.5c0,0,0,0,0,0C11.1,25.5,11.4,26.4,11.1,27.2z"/>
					</g>
				</g>
			</g>
		</g>
	</g>
	<g>
		<g>
			<path fill="#CBD6E0" d="M18.8,17.3L17.5,16c0.3-0.2,0.8-0.2,1.1,0.1C18.9,16.5,19,16.9,18.8,17.3z"/>
		</g>
		<g>
			<path fill="#CBD6E0" d="M18.5,17.6c-0.3,0.2-0.8,0.2-1.1-0.1c-0.3-0.3-0.3-0.8-0.1-1.1L18.5,17.6z"/>
		</g>
	</g>
</g>
</svg>
