<?xml version="1.0" encoding="utf-8"?>
<!-- Generator: Adobe Illustrator 18.0.0, SVG Export Plug-In . SVG Version: 6.00 Build 0)  -->
<!DOCTYPE svg PUBLIC "-//W3C//DTD SVG 1.1//EN" "http://www.w3.org/Graphics/SVG/1.1/DTD/svg11.dtd">
<svg version="1.1" id="Layer_1" xmlns="http://www.w3.org/2000/svg" xmlns:xlink="http://www.w3.org/1999/xlink" x="0px" y="0px"
	 viewBox="0 0 36 36" enable-background="new 0 0 36 36" xml:space="preserve">
<g>
	<g>
		<path fill="#BBC7D1" d="M13.2,32.4v1c0,0.3-0.2,0.6-0.6,0.6h-1.8c-0.3,0-0.6-0.2-0.6-0.6v-1c0-0.3,0.3-0.6,0.6-0.6h1.8
			C12.9,31.9,13.2,32.1,13.2,32.4z"/>
	</g>
	<g>
		<path fill="#BBC7D1" d="M25.7,32.4v1c0,0.3-0.2,0.6-0.6,0.6h-1.8c-0.3,0-0.6-0.2-0.6-0.6v-1c0-0.3,0.3-0.6,0.6-0.6h1.8
			C25.5,31.9,25.7,32.1,25.7,32.4z"/>
	</g>
	<g>
		<path fill="#E9EFF4" d="M28.1,4.5v25.8c0,1.4-1.1,2.5-2.5,2.5H10.4c-1.4,0-2.5-1.1-2.5-2.5V4.5C7.9,3.1,9,2,10.4,2h15.2
			C27,2,28.1,3.1,28.1,4.5z"/>
	</g>
	<g>
		<polygon fill="#D3D9DD" points="25.2,15.9 10.8,15.9 10.8,4.9 15,4.9 15.7,6 20.3,6 21,4.9 25.1,4.9 		"/>
	</g>
	<g>
		<polygon fill="#D3D9DD" points="25.2,29.9 10.8,29.9 10.8,18.9 15,18.9 15.7,20 20.3,20 21,18.9 25.1,18.9 		"/>
	</g>
	<g>
		<polygon fill="#BBC7D1" points="21,18.9 20.3,20 15.7,20 15,18.9 		"/>
	</g>
	<g>
		<polygon fill="#BBC7D1" points="21,4.9 20.3,6 15.7,6 15,4.9 		"/>
	</g>
</g>
</svg>
