<?xml version="1.0" encoding="utf-8"?>
<!-- Generator: Adobe Illustrator 18.0.0, SVG Export Plug-In . SVG Version: 6.00 Build 0)  -->
<!DOCTYPE svg PUBLIC "-//W3C//DTD SVG 1.1//EN" "http://www.w3.org/Graphics/SVG/1.1/DTD/svg11.dtd">
<svg version="1.1" id="Layer_1" xmlns="http://www.w3.org/2000/svg" xmlns:xlink="http://www.w3.org/1999/xlink" x="0px" y="0px"
	 viewBox="0 0 36 36" enable-background="new 0 0 36 36" xml:space="preserve">
<g>
	<g>
		<path fill="#3E4347" d="M17.4,2c-4.5,0.3-7.9,4.3-7.9,8.8v1c0,0.9,0.7,1.6,1.6,1.6l0,0c0.9,0,1.6-0.7,1.6-1.6v-1
			c0-2.7,2-5.2,4.7-5.5c3.1-0.3,5.8,2.2,5.8,5.2v6.9h3.3v-6.9C26.5,5.6,22.4,1.7,17.4,2z"/>
	</g>
	<g>
		<path fill="#DEE4E9" d="M30.7,28c0.2,2.7-0.2,6-2.9,6H8.2c-2.5,0-3-2.6-3-5.1c0-1.3,0.2-2.6,0.6-3.8c-0.3-0.9-0.5-1.9-0.6-2.9
			c-0.2-2.7,0.2-6,3-6h19.5c2.5,0,3,2.7,3,5.2c0,1.3-0.2,2.6-0.6,3.8C30.5,26,30.6,27,30.7,28z"/>
	</g>
	<g>
		<path fill="#3E4347" d="M19.8,28.4c0.1,0.4-0.2,0.8-0.6,0.8h-2.3c-0.4,0-0.7-0.4-0.6-0.8l0.7-2.7c-0.8-0.4-1.4-1.3-1.4-2.3
			c0-1.4,1.1-2.5,2.5-2.5c1.4,0,2.5,1.1,2.5,2.5c0,1-0.6,1.9-1.4,2.3L19.8,28.4z"/>
	</g>
	<g>
		<path fill="#BBC7D1" d="M10,19.2c0,0.7-0.6,1.3-1.3,1.3c-0.7,0-1.3-0.6-1.3-1.3c0-0.7,0.6-1.3,1.3-1.3C9.4,17.9,10,18.5,10,19.2z"
			/>
	</g>
	<g>
		<path fill="#BBC7D1" d="M28.6,19.2c0,0.7-0.6,1.3-1.3,1.3c-0.7,0-1.3-0.6-1.3-1.3c0-0.7,0.6-1.3,1.3-1.3
			C28,17.9,28.6,18.5,28.6,19.2z"/>
	</g>
	<g>
		<path fill="#BBC7D1" d="M10,30.9c0,0.7-0.6,1.3-1.3,1.3c-0.7,0-1.3-0.6-1.3-1.3c0-0.7,0.6-1.3,1.3-1.3C9.4,29.6,10,30.1,10,30.9z"
			/>
	</g>
	<g>
		<path fill="#BBC7D1" d="M28.6,30.9c0,0.7-0.6,1.3-1.3,1.3c-0.7,0-1.3-0.6-1.3-1.3c0-0.7,0.6-1.3,1.3-1.3
			C28,29.6,28.6,30.1,28.6,30.9z"/>
	</g>
</g>
</svg>
