<?xml version="1.0" encoding="utf-8"?>
<!-- Generator: Adobe Illustrator 18.0.0, SVG Export Plug-In . SVG Version: 6.00 Build 0)  -->
<!DOCTYPE svg PUBLIC "-//W3C//DTD SVG 1.1//EN" "http://www.w3.org/Graphics/SVG/1.1/DTD/svg11.dtd">
<svg version="1.1" id="Layer_1" xmlns="http://www.w3.org/2000/svg" xmlns:xlink="http://www.w3.org/1999/xlink" x="0px" y="0px"
	 viewBox="0 0 36 36" enable-background="new 0 0 36 36" xml:space="preserve">
<g>
	<g>
		<g>
			<g>
				<g>
					<path fill="#D03F3F" d="M22.8,3.1C21.7,4.8,18,5.3,18,5.3s-3.7-0.5-4.8-2.2L13.6,2c0,0-0.1-0.1,0.5,0.2
						c0.7,0.4,2.3,0.4,3.8,0.4s3.2-0.1,3.8-0.4C22.5,1.9,22.4,2,22.4,2L22.8,3.1z"/>
				</g>
			</g>
			<g>
				<g>
					<path fill="#DEE4E9" d="M21.7,3.1c-1.3,0.5-6.2,0.5-7.4,0v2.4h7.4V3.1z"/>
				</g>
			</g>
			<g>
				<g>
					<g>
						<g>
							<path fill="#E24B4B" d="M33.4,14.4c0,0-2.1,1.8-5.8,1.7l-0.9-4.4H9.3l-0.9,4.4c-3.8,0.1-5.8-1.7-5.8-1.7
								c1.9-9,4.1-9.7,7-10.6c2.9-1,4.1-1.7,4.1-1.7C15.1,4.3,18,4.5,18,4.5s2.9-0.2,4.4-2.5c0,0,1.2,0.8,4.1,1.7
								C29.4,4.7,31.5,5.4,33.4,14.4z"/>
						</g>
					</g>
					<g>
						<g>
							<path fill="#DEE4E9" d="M8.7,32.7c6.1,1.8,12.5,1.8,18.6,0c0,0,0-16.2,0-20.3c0-4.9-5.5-8.4-5.5-8.4C20.1,5.5,18,5.4,18,5.4
								s-2.1,0.1-3.8-1.5c0,0-5.6,3.5-5.5,8.4C8.7,16.4,8.7,32.7,8.7,32.7z"/>
						</g>
					</g>
				</g>
			</g>
		</g>
	</g>
	<g>
		<path fill="#E24B4B" d="M27.3,32.7c0,0,0-0.4,0-1.1c-6.1,1.7-12.5,1.7-18.6,0c0,0.7,0,1.1,0,1.1C14.8,34.4,21.2,34.4,27.3,32.7z"
			/>
	</g>
</g>
</svg>
