<?xml version="1.0" encoding="utf-8"?>
<!-- Generator: Adobe Illustrator 18.0.0, SVG Export Plug-In . SVG Version: 6.00 Build 0)  -->
<!DOCTYPE svg PUBLIC "-//W3C//DTD SVG 1.1//EN" "http://www.w3.org/Graphics/SVG/1.1/DTD/svg11.dtd">
<svg version="1.1" id="Layer_1" xmlns="http://www.w3.org/2000/svg" xmlns:xlink="http://www.w3.org/1999/xlink" x="0px" y="0px"
	 viewBox="0 0 36 36" enable-background="new 0 0 36 36" xml:space="preserve">
<g>
	<g>
		<g>
			<g>
				<path fill="#3E4347" d="M8.6,31.9c-0.4-0.2-0.6-0.7-0.3-1.1l2.7-5.1c0.2-0.4,0.7-0.6,1.1-0.3c0.4,0.2,0.6,0.7,0.3,1.1l-2.7,5.1
					C9.5,32,9,32.1,8.6,31.9z"/>
			</g>
		</g>
		<g>
			<g>
				<g>
					<path fill="#5A5F63" d="M17,18.8l-4.1,7.8c-0.1,0.2-0.3,0.2-0.4,0.1l-1.5-0.8c-0.2-0.1-0.2-0.3-0.1-0.4l4.1-7.8
						c0.3-0.6,1-0.8,1.6-0.5C17.1,17.5,17.3,18.2,17,18.8z"/>
				</g>
			</g>
		</g>
	</g>
	<g>
		<g>
			<g>
				<path fill="#3E4347" d="M27.4,31.9c0.4-0.2,0.6-0.7,0.3-1.1L25,25.8c-0.2-0.4-0.7-0.6-1.1-0.3c-0.4,0.2-0.6,0.7-0.3,1.1l2.7,5.1
					C26.5,32,27,32.1,27.4,31.9z"/>
			</g>
		</g>
		<g>
			<g>
				<g>
					<path fill="#5A5F63" d="M19,18.8l4.1,7.8c0.1,0.2,0.3,0.2,0.4,0.1l1.5-0.8c0.2-0.1,0.2-0.3,0.1-0.4l-4.1-7.8
						c-0.3-0.6-1-0.8-1.6-0.5C18.9,17.5,18.7,18.2,19,18.8z"/>
				</g>
			</g>
		</g>
	</g>
	<g>
		<path fill="#BBC7D1" d="M21.8,16.2c0,2.1-1.7,3.8-3.8,3.8c-2.1,0-3.8-1.7-3.8-3.8c0-2.1,1.7-3.8,3.8-3.8
			C20.1,12.4,21.8,14.1,21.8,16.2z"/>
	</g>
	<g>
		<path fill="#3E4347" d="M18,34c-0.5,0-0.9-0.4-0.9-0.9v-6c0-0.5,0.4-0.9,0.9-0.9s0.9,0.4,0.9,0.9v6C18.9,33.6,18.5,34,18,34z"/>
	</g>
	<g>
		<g>
			<path fill="#5A5F63" d="M19.2,18.3v8.8c0,0.2-0.1,0.3-0.3,0.3h-1.7c-0.2,0-0.3-0.2-0.3-0.3v-8.8c0-0.7,0.5-1.2,1.2-1.2
				C18.7,17.2,19.2,17.7,19.2,18.3z"/>
		</g>
	</g>
	<g>
		<path fill="#DAE5EF" d="M20.8,9.1l-2.6,7c-0.1,0.4-0.6,0.6-0.9,0.4L4.4,11.8l3.1-8.4l12.9,4.7C20.8,8.3,21,8.8,20.8,9.1z"/>
	</g>
	<g>
		<path fill="#65B1EF" d="M5.7,3.5C4.2,3.8,2.9,4.8,2.4,6.3c-0.6,1.5-0.2,3.2,0.7,4.4L5.7,3.5z"/>
	</g>
	<g>
		<path fill="#CBD6E0" d="M27.6,13l-1.7,4.6c-0.2,0.5-0.8,0.8-1.4,0.6l-6.2-2.3l2.4-6.6l6.2,2.3C27.5,11.8,27.8,12.4,27.6,13z"/>
	</g>
	<g>
		
			<rect x="26.6" y="14" transform="matrix(-0.9387 -0.3447 0.3447 -0.9387 51.1411 41.4922)" fill="#BBC7D1" width="5.4" height="4.3"/>
	</g>
	<g>
		<path fill="#3E4347" d="M7.9,3.6L4.9,12c-0.2,0.6-0.9,1-1.6,0.7c-0.6-0.2-1-0.9-0.7-1.6l3.1-8.3c0.2-0.6,0.9-1,1.6-0.7
			C7.8,2.3,8.1,3,7.9,3.6z"/>
	</g>
	<g>
		<path fill="#3E4347" d="M33.8,15.5l-1.5,4.1c-0.2,0.5-0.8,0.8-1.3,0.6c-0.5-0.2-0.8-0.8-0.6-1.3l1.5-4.1c0.2-0.5,0.8-0.8,1.3-0.6
			C33.8,14.4,34,15,33.8,15.5z"/>
	</g>
</g>
</svg>
