<?xml version="1.0" encoding="utf-8"?>
<!-- Generator: Adobe Illustrator 18.0.0, SVG Export Plug-In . SVG Version: 6.00 Build 0)  -->
<!DOCTYPE svg PUBLIC "-//W3C//DTD SVG 1.1//EN" "http://www.w3.org/Graphics/SVG/1.1/DTD/svg11.dtd">
<svg version="1.1" id="Layer_1" xmlns="http://www.w3.org/2000/svg" xmlns:xlink="http://www.w3.org/1999/xlink" x="0px" y="0px"
	 viewBox="0 0 36 36" enable-background="new 0 0 36 36" xml:space="preserve">
<g>
	<g>
		<path fill="#59A5E0" d="M30.7,4.7v23H12.9v2.8H5.3V5.5C5.3,3.6,6.9,2,8.9,2H28C29.5,2,30.7,3.2,30.7,4.7z"/>
	</g>
	<g>
		<path fill="#3E4347" d="M12.3,2H8.9C6.9,2,5.3,3.6,5.3,5.5v24.9h7V2z"/>
	</g>
	<g>
		<path fill="#DEE4E9" d="M30.2,33.3v-5.8H8.9c-2,0-2.9,2.1-2.6,3.9c0.2,1.1,1.1,1.9,2.3,1.9H30.2z"/>
	</g>
	<g>
		<path fill="#65B1EF" d="M29.9,28.4H12.3v-1.5h17.6c0.2,0,0.4,0.1,0.5,0.2c0.1,0.1,0.2,0.3,0.2,0.5C30.7,28.1,30.3,28.4,29.9,28.4z
			"/>
	</g>
	<g>
		<path fill="#65B1EF" d="M30.7,33.2c0,0.4-0.3,0.8-0.8,0.8H11.7v-1.5h18.3C30.3,32.5,30.7,32.8,30.7,33.2z"/>
	</g>
	<g>
		<path fill="#5A5F63" d="M8.9,28.4h3.4v-1.5H8.9c-2.2,0-4,2.1-3.4,4.4c0.4,1.6,2,2.7,3.6,2.7h3.2v-1.5H9.1c-1,0-1.9-0.6-2.2-1.5
			C6.6,29.7,7.6,28.4,8.9,28.4z"/>
	</g>
</g>
</svg>
