<?xml version="1.0" encoding="utf-8"?>
<!-- Generator: Adobe Illustrator 18.0.0, SVG Export Plug-In . SVG Version: 6.00 Build 0)  -->
<!DOCTYPE svg PUBLIC "-//W3C//DTD SVG 1.1//EN" "http://www.w3.org/Graphics/SVG/1.1/DTD/svg11.dtd">
<svg version="1.1" id="Layer_1" xmlns="http://www.w3.org/2000/svg" xmlns:xlink="http://www.w3.org/1999/xlink" x="0px" y="0px"
	 viewBox="0 0 36 36" enable-background="new 0 0 36 36" xml:space="preserve">
<g>
	<g>
		<rect x="16.5" y="26.2" fill="#3E4347" width="2.9" height="4.9"/>
	</g>
	<g>
		<path fill="#5A5F63" d="M28.5,10.8h-21c-0.8,0-1.5,0.7-1.5,1.5v9.3c0,3.2,2.6,5.7,5.7,5.7h12.7c3.2,0,5.7-2.6,5.7-5.7v-9.3
			C30.1,11.5,29.4,10.8,28.5,10.8z M27.5,21.6c0,1.7-1.4,3.2-3.2,3.2H11.7c-1.7,0-3.2-1.4-3.2-3.2v-8.2h19V21.6z"/>
	</g>
	<g>
		<path fill="#DAE5EF" d="M25.9,3.6v18c0,0.9-0.7,1.6-1.6,1.6H11.7c-0.9,0-1.6-0.7-1.6-1.6v-18c0-0.9,0.7-1.6,1.6-1.6h12.7
			C25.2,2,25.9,2.7,25.9,3.6z"/>
	</g>
	<g>
		<path fill="#BBC7D1" d="M15.3,8.6c0,0.5-0.4,0.8-0.8,0.8H10V7.8h4.4C14.9,7.8,15.3,8.1,15.3,8.6z"/>
	</g>
	<g>
		<path fill="#BBC7D1" d="M15.3,12.1c0,0.5-0.4,0.8-0.8,0.8H10v-1.7h4.4C14.9,11.3,15.3,11.6,15.3,12.1z"/>
	</g>
	<g>
		<path fill="#BBC7D1" d="M15.3,15.6c0,0.5-0.4,0.8-0.8,0.8H10v-1.7h4.4C14.9,14.7,15.3,15.1,15.3,15.6z"/>
	</g>
	<g>
		<path fill="#BBC7D1" d="M15.3,19c0,0.5-0.4,0.8-0.8,0.8H10v-1.7h4.4C14.9,18.2,15.3,18.6,15.3,19z"/>
	</g>
	<g>
		<path fill="#BBC7D1" d="M25.9,7.8v1.7h-4.4c-0.5,0-0.8-0.4-0.8-0.8c0-0.5,0.4-0.8,0.8-0.8H25.9z"/>
	</g>
	<g>
		<path fill="#BBC7D1" d="M25.9,11.3v1.7h-4.4c-0.5,0-0.8-0.4-0.8-0.8c0-0.5,0.4-0.8,0.8-0.8H25.9z"/>
	</g>
	<g>
		<path fill="#BBC7D1" d="M25.9,14.7v1.7h-4.4c-0.5,0-0.8-0.4-0.8-0.8s0.4-0.8,0.8-0.8H25.9z"/>
	</g>
	<g>
		<path fill="#BBC7D1" d="M25.9,18.2v1.7h-4.4c-0.5,0-0.8-0.4-0.8-0.8s0.4-0.8,0.8-0.8H25.9z"/>
	</g>
	<g>
		<path fill="#BBC7D1" d="M22.2,2v2.7c0,0.5-0.4,0.9-0.9,0.9c-0.5,0-0.9-0.4-0.9-0.9V2H22.2z"/>
	</g>
	<g>
		<path fill="#BBC7D1" d="M18.9,2v2.7c0,0.5-0.4,0.9-0.9,0.9c-0.5,0-0.9-0.4-0.9-0.9V2H18.9z"/>
	</g>
	<g>
		<path fill="#BBC7D1" d="M15.5,2v2.7c0,0.5-0.4,0.9-0.9,0.9c-0.5,0-0.9-0.4-0.9-0.9V2H15.5z"/>
	</g>
	<g>
		<path fill="#5A5F63" d="M26.4,34H9.6c-0.6,0-1-0.6-0.8-1.2c0.8-1.9,2.6-3.2,4.7-3.2h9.1c2.1,0,3.9,1.3,4.7,3.2
			C27.5,33.4,27,34,26.4,34z"/>
	</g>
</g>
</svg>
