<?xml version="1.0" encoding="utf-8"?>
<!-- Generator: Adobe Illustrator 18.0.0, SVG Export Plug-In . SVG Version: 6.00 Build 0)  -->
<!DOCTYPE svg PUBLIC "-//W3C//DTD SVG 1.1//EN" "http://www.w3.org/Graphics/SVG/1.1/DTD/svg11.dtd">
<svg version="1.1" id="Layer_1" xmlns="http://www.w3.org/2000/svg" xmlns:xlink="http://www.w3.org/1999/xlink" x="0px" y="0px"
	 viewBox="0 0 36 36" enable-background="new 0 0 36 36" xml:space="preserve">
<g>
	<g>
		<path fill="#3E4347" d="M8.3,4.2v27.7c0,1-0.8,1.8-1.8,1.8c-1,0-1.8-0.8-1.8-1.8V4.2c0-1,0.8-1.8,1.8-1.8C7.5,2.4,8.3,3.2,8.3,4.2
			z"/>
	</g>
	<g>
		<path fill="#E9EFF4" d="M11,11.4c0,2.5-2,4.5-4.5,4.5c-2.5,0-4.5-2-4.5-4.5c0-2.5,2-4.5,4.5-4.5C9,6.9,11,8.9,11,11.4z"/>
	</g>
	<g>
		<path fill="#E24B4B" d="M8.7,11.4c0,1.2-1,2.2-2.3,2.2c-1.3,0-2.3-1-2.3-2.2c0-1.3,1-2.3,2.3-2.3C7.7,9.1,8.7,10.1,8.7,11.4z"/>
	</g>
	<g>
		<path fill="#D03F3F" d="M8.4,10.3c-0.3-0.2-0.7-0.3-1.1-0.3C6,9.9,5,10.9,5,12.2c0,0.4,0.1,0.8,0.3,1.1c-0.7-0.4-1.1-1.1-1.1-1.9
			c0-1.3,1-2.3,2.3-2.3C7.3,9.1,8,9.6,8.4,10.3z"/>
	</g>
	<g>
		<path fill="#3E4347" d="M31.3,4.2v27.7c0,1-0.8,1.8-1.8,1.8c-1,0-1.8-0.8-1.8-1.8V4.2c0-1,0.8-1.8,1.8-1.8
			C30.5,2.4,31.3,3.2,31.3,4.2z"/>
	</g>
	<g>
		<path fill="#E9EFF4" d="M34,11.4c0,2.5-2,4.5-4.5,4.5c-2.5,0-4.5-2-4.5-4.5c0-2.5,2-4.5,4.5-4.5C32,6.9,34,8.9,34,11.4z"/>
	</g>
	<g>
		<path fill="#8CC63E" d="M31.8,11.4c0,1.2-1,2.2-2.3,2.2c-1.3,0-2.3-1-2.3-2.2c0-1.3,1-2.3,2.3-2.3C30.8,9.1,31.8,10.1,31.8,11.4z"
			/>
	</g>
	<g>
		<path fill="#7FB239" d="M31.4,10.3c-0.3-0.2-0.7-0.3-1.1-0.3c-1.3,0-2.3,1-2.3,2.3c0,0.4,0.1,0.8,0.3,1.1
			c-0.7-0.4-1.1-1.1-1.1-1.9c0-1.3,1-2.3,2.3-2.3C30.3,9.1,31,9.6,31.4,10.3z"/>
	</g>
	<g>
		<path fill="#3E4347" d="M19.8,4.2v27.7c0,1-0.8,1.8-1.8,1.8c-1,0-1.8-0.8-1.8-1.8V4.2c0-1,0.8-1.8,1.8-1.8
			C19,2.4,19.8,3.2,19.8,4.2z"/>
	</g>
	<g>
		<path fill="#E9EFF4" d="M22.5,22.3c0,2.5-2,4.5-4.5,4.5s-4.5-2-4.5-4.5c0-2.5,2-4.5,4.5-4.5S22.5,19.9,22.5,22.3z"/>
	</g>
	<g>
		<path fill="#FFD93B" d="M20.3,22.3c0,1.2-1,2.2-2.3,2.2c-1.3,0-2.3-1-2.3-2.2c0-1.3,1-2.3,2.3-2.3C19.3,20.1,20.3,21.1,20.3,22.3z
			"/>
	</g>
	<g>
		<path fill="#F4C534" d="M19.9,21.2c-0.3-0.2-0.7-0.3-1.1-0.3c-1.3,0-2.3,1-2.3,2.3c0,0.4,0.1,0.8,0.3,1.1
			c-0.7-0.4-1.1-1.1-1.1-1.9c0-1.3,1-2.3,2.3-2.3C18.8,20.1,19.5,20.5,19.9,21.2z"/>
	</g>
</g>
</svg>
