<?xml version="1.0" encoding="utf-8"?>
<!-- Generator: Adobe Illustrator 18.0.0, SVG Export Plug-In . SVG Version: 6.00 Build 0)  -->
<!DOCTYPE svg PUBLIC "-//W3C//DTD SVG 1.1//EN" "http://www.w3.org/Graphics/SVG/1.1/DTD/svg11.dtd">
<svg version="1.1" id="Layer_1" xmlns="http://www.w3.org/2000/svg" xmlns:xlink="http://www.w3.org/1999/xlink" x="0px" y="0px"
	 viewBox="0 0 36 36" enable-background="new 0 0 36 36" xml:space="preserve">
<g>
	<g>
		<path fill="#5A5F63" d="M5.1,31v1.1c0,0.3,0.2,0.5,0.5,0.5c1.3,0.1,1.7,0.1,3,0c0.3,0,0.5-0.2,0.5-0.5V31H5.1z"/>
	</g>
	<g>
		<path fill="#5A5F63" d="M26.9,31v1.1c0,0.3,0.2,0.5,0.5,0.5c1.3,0.1,1.7,0.1,3,0c0.3,0,0.5-0.2,0.5-0.5V31H26.9z"/>
	</g>
	<g>
		<path fill="#BBC7D1" d="M28.2,3.3L13.3,5.8l0.1,0.8L28.4,4c0.2,0,0.4-0.2,0.3-0.5C28.7,3.4,28.5,3.2,28.2,3.3z"/>
	</g>
	<g>
		<path fill="#CBD6E0" d="M13.7,5.7l0.1,0.7c0,0.2-0.1,0.3-0.2,0.3L6.3,8C5.9,8.1,5.6,7.8,5.5,7.5C5.4,7.1,5.7,6.8,6,6.7l7.3-1.2
			C13.5,5.5,13.7,5.6,13.7,5.7z"/>
	</g>
	<g>
		<path fill="#DAE5EF" d="M8.8,8.5v-2c0-0.5-0.4-0.9-0.9-0.9C7.4,5.5,7,5.9,7,6.4v2H8.8z"/>
	</g>
	<g>
		<path fill="#F4C534" d="M10.8,9.6C10.8,9.6,10.8,9.5,10.8,9.6c0-1.3-1.3-1.4-2.8-1.4c-1.6,0-2.8,0.1-2.8,1.4c0,0,0,0,0,0L10.8,9.6
			z"/>
	</g>
	<g>
		<path fill="#FFD93B" d="M33.2,29.1c-0.2,1.2-1.2,2.2-2.5,2.3c-8.5,0.9-16.9,0.9-25.4,0C4,31.3,3,30.3,2.8,29.1
			c-1.1-5.8-1.1-11.5,0-17.3C3,10.6,4,9.6,5.3,9.5c8.5-0.9,16.9-0.9,25.4,0c1.3,0.1,2.3,1.1,2.5,2.3C34.3,17.6,34.3,23.3,33.2,29.1z
			"/>
	</g>
	<g>
		<path fill="#FFFFFF" d="M31.3,16.6c0,0.5-0.4,0.9-0.9,0.9H5.6c-0.5,0-0.9-0.4-0.9-0.9c0.1-1.4,0.3-2.9,0.6-4.3
			c0-0.2,0.2-0.3,0.3-0.3c4.1-0.4,8.3-0.7,12.4-0.7c4.1,0,8.3,0.2,12.4,0.7c0.1,0,0.3,0.1,0.3,0.3C31,13.7,31.2,15.1,31.3,16.6z"/>
	</g>
	<g>
		<rect x="6.7" y="15.3" fill="#DEE4E9" width="0.6" height="1.5"/>
	</g>
	<g>
		<rect x="8" y="14.5" fill="#DEE4E9" width="0.6" height="2.2"/>
	</g>
	<g>
		<rect x="9.3" y="15.3" fill="#DEE4E9" width="0.6" height="1.5"/>
	</g>
	<g>
		<rect x="10.6" y="14.5" fill="#DEE4E9" width="0.6" height="2.2"/>
	</g>
	<g>
		<rect x="11.9" y="15.3" fill="#DEE4E9" width="0.6" height="1.5"/>
	</g>
	<g>
		<rect x="13.2" y="14.5" fill="#DEE4E9" width="0.6" height="2.2"/>
	</g>
	<g>
		<rect x="14.5" y="15.3" fill="#DEE4E9" width="0.6" height="1.5"/>
	</g>
	<g>
		<rect x="15.8" y="14.5" fill="#DEE4E9" width="0.6" height="2.2"/>
	</g>
	<g>
		<rect x="17.1" y="15.3" fill="#DEE4E9" width="0.6" height="1.5"/>
	</g>
	<g>
		<g>
			<path fill="#E24B4B" d="M18.9,13.2v3.5h-0.6v-3.5C18.4,12.9,18.9,12.9,18.9,13.2z"/>
		</g>
	</g>
	<g>
		<rect x="19.7" y="15.3" fill="#DEE4E9" width="0.6" height="1.5"/>
	</g>
	<g>
		<rect x="21" y="14.5" fill="#DEE4E9" width="0.6" height="2.2"/>
	</g>
	<g>
		<rect x="22.2" y="15.3" fill="#DEE4E9" width="0.6" height="1.5"/>
	</g>
	<g>
		<rect x="23.6" y="14.5" fill="#DEE4E9" width="0.6" height="2.2"/>
	</g>
	<g>
		<rect x="24.8" y="15.3" fill="#DEE4E9" width="0.6" height="1.5"/>
	</g>
	<g>
		<rect x="26.1" y="14.5" fill="#DEE4E9" width="0.6" height="2.2"/>
	</g>
	<g>
		<rect x="27.4" y="15.3" fill="#DEE4E9" width="0.6" height="1.5"/>
	</g>
	<g>
		<rect x="28.7" y="14.5" fill="#DEE4E9" width="0.6" height="2.2"/>
	</g>
	<g>
		<path fill="#FFFFFF" d="M30.5,24.5c0,2.9-2.3,5.2-5.2,5.2c-2.9,0-5.2-2.3-5.2-5.2c0-2.9,2.3-5.2,5.2-5.2
			C28.2,19.3,30.5,21.6,30.5,24.5z"/>
	</g>
	<g>
		<path fill="#3E4347" d="M29.5,24.5c0,2.3-1.8,4.1-4.1,4.1c-2.3,0-4.1-1.8-4.1-4.1c0-2.3,1.8-4.1,4.1-4.1
			C27.6,20.3,29.5,22.2,29.5,24.5z"/>
	</g>
	<g>
		<path fill="#93979A" d="M28.4,24.5c0,1.7-1.4,3.1-3.1,3.1c-1.7,0-3.1-1.4-3.1-3.1c0-1.7,1.4-3.1,3.1-3.1
			C27.1,21.4,28.4,22.8,28.4,24.5z"/>
	</g>
	<g>
		<circle fill="#3E4347" cx="25.4" cy="24.5" r="1.3"/>
	</g>
	<g>
		<path fill="#363B3F" d="M26.7,24.5c0,0.7-0.6,1.3-1.3,1.3c-0.5,0-1-0.3-1.2-0.7c0.2,0.1,0.4,0.1,0.6,0.1c0.7,0,1.3-0.6,1.3-1.3
			c0-0.2,0-0.4-0.1-0.6C26.4,23.5,26.7,23.9,26.7,24.5z"/>
	</g>
	<g>
		<path fill="#F4C534" d="M8.4,22.9V28c0,0.5-0.4,1-1,1c-0.5,0-1-0.4-1-1v-5.1c0-0.5,0.4-1,1-1C7.9,21.9,8.4,22.3,8.4,22.9z"/>
	</g>
	<g>
		<path fill="#E9B02C" d="M8.3,22.6c-0.6-0.2-1.2,0.3-1.2,0.9v5.1c0,0.1,0,0.2,0,0.2c-0.4-0.1-0.8-0.5-0.8-1v-5.1c0-0.5,0.4-1,1-1
			C7.9,21.9,8.3,22.2,8.3,22.6z"/>
	</g>
	<g>
		<path fill="#F4C534" d="M12.2,22.9V28c0,0.5-0.4,1-1,1c-0.5,0-1-0.4-1-1v-5.1c0-0.5,0.4-1,1-1C11.8,21.9,12.2,22.3,12.2,22.9z"/>
	</g>
	<g>
		<path fill="#E9B02C" d="M12.2,22.6c-0.6-0.2-1.2,0.3-1.2,0.9v5.1c0,0.1,0,0.2,0,0.2c-0.4-0.1-0.8-0.5-0.8-1v-5.1c0-0.5,0.4-1,1-1
			C11.7,21.9,12.1,22.2,12.2,22.6z"/>
	</g>
	<g>
		<path fill="#F4C534" d="M16,22.9V28c0,0.5-0.4,1-1,1c-0.5,0-1-0.4-1-1v-5.1c0-0.5,0.4-1,1-1C15.6,21.9,16,22.3,16,22.9z"/>
	</g>
	<g>
		<path fill="#E9B02C" d="M16,22.6c-0.6-0.2-1.2,0.3-1.2,0.9v5.1c0,0.1,0,0.2,0,0.2c-0.4-0.1-0.8-0.5-0.8-1v-5.1c0-0.5,0.4-1,1-1
			C15.5,21.9,15.9,22.2,16,22.6z"/>
	</g>
	<g>
		<path fill="#5A5F63" d="M8.1,6.7L7.7,7.2c-0.1-0.1-0.1-0.3,0-0.4C7.8,6.7,8,6.6,8.1,6.7z"/>
	</g>
	<g>
		<path fill="#5A5F63" d="M8.2,7.2C8,7.3,7.9,7.4,7.8,7.3l0.5-0.5C8.3,7,8.3,7.1,8.2,7.2z"/>
	</g>
</g>
</svg>
