<?xml version="1.0" encoding="utf-8"?>
<!-- Generator: Adobe Illustrator 18.0.0, SVG Export Plug-In . SVG Version: 6.00 Build 0)  -->
<!DOCTYPE svg PUBLIC "-//W3C//DTD SVG 1.1//EN" "http://www.w3.org/Graphics/SVG/1.1/DTD/svg11.dtd">
<svg version="1.1" id="Layer_1" xmlns="http://www.w3.org/2000/svg" xmlns:xlink="http://www.w3.org/1999/xlink" x="0px" y="0px"
	 viewBox="0 0 36 36" enable-background="new 0 0 36 36" xml:space="preserve">
<g>
	<g>
		<path fill="#DEE4E9" d="M29.4,4.6v26.8c0,1.4-1.2,2.6-2.6,2.6H9.2c-1.4,0-2.6-1.2-2.6-2.6V4.6C6.6,3.2,7.8,2,9.2,2h17.5
			C28.2,2,29.4,3.2,29.4,4.6z"/>
	</g>
	<g>
		<rect x="8.6" y="5.8" fill="#3E4347" width="18.8" height="21.5"/>
	</g>
	<g>
		<path fill="#3E4347" d="M19.7,30.6c0,1-0.8,1.7-1.7,1.7c-1,0-1.7-0.8-1.7-1.7c0-1,0.8-1.7,1.7-1.7C19,28.9,19.7,29.7,19.7,30.6z"
			/>
	</g>
	<g>
		<path fill="#FC97B2" d="M18.5,8v2c0,0.3,0.3,0.6,0.6,0.6h2c0.3,0,0.6-0.3,0.6-0.6V8c0-0.3-0.3-0.6-0.6-0.6h-2
			C18.8,7.5,18.5,7.7,18.5,8z"/>
	</g>
	<g>
		<path fill="#FFFFFF" d="M17.5,8v2c0,0.3-0.3,0.6-0.6,0.6h-2c-0.3,0-0.6-0.3-0.6-0.6V8c0-0.3,0.3-0.6,0.6-0.6h2
			C17.2,7.5,17.5,7.7,17.5,8z"/>
	</g>
	<g>
		<path fill="#8CC63E" d="M10.2,8v2c0,0.3,0.3,0.6,0.6,0.6h2c0.3,0,0.6-0.3,0.6-0.6V8c0-0.3-0.3-0.6-0.6-0.6h-2
			C10.5,7.5,10.2,7.7,10.2,8z"/>
	</g>
	<g>
		<path fill="#E18823" d="M25.8,8v2c0,0.3-0.3,0.6-0.6,0.6h-2c-0.3,0-0.6-0.3-0.6-0.6V8c0-0.3,0.3-0.6,0.6-0.6h2
			C25.5,7.5,25.8,7.7,25.8,8z"/>
	</g>
	<g>
		<path fill="#89664C" d="M13.4,12.3v2c0,0.3-0.3,0.6-0.6,0.6h-2c-0.3,0-0.6-0.3-0.6-0.6v-2c0-0.3,0.3-0.6,0.6-0.6h2
			C13.1,11.7,13.4,11.9,13.4,12.3z"/>
	</g>
	<g>
		<path fill="#FFFFFF" d="M22.6,12.3v2c0,0.3,0.3,0.6,0.6,0.6h2c0.3,0,0.6-0.3,0.6-0.6v-2c0-0.3-0.3-0.6-0.6-0.6h-2
			C22.9,11.7,22.6,11.9,22.6,12.3z"/>
	</g>
	<g>
		<path fill="#65B1EF" d="M21.6,12.3v2c0,0.3-0.3,0.6-0.6,0.6h-2c-0.3,0-0.6-0.3-0.6-0.6v-2c0-0.3,0.3-0.6,0.6-0.6h2
			C21.4,11.7,21.6,11.9,21.6,12.3z"/>
	</g>
	<g>
		<path fill="#FFD93B" d="M13.4,16.5v2c0,0.3-0.3,0.6-0.6,0.6h-2c-0.3,0-0.6-0.3-0.6-0.6v-2c0-0.3,0.3-0.6,0.6-0.6h2
			C13.1,15.9,13.4,16.2,13.4,16.5z"/>
	</g>
	<g>
		<path fill="#FFFFFF" d="M17.5,16.5v2c0,0.3-0.3,0.6-0.6,0.6h-2c-0.3,0-0.6-0.3-0.6-0.6v-2c0-0.3,0.3-0.6,0.6-0.6h2
			C17.2,15.9,17.5,16.2,17.5,16.5z"/>
	</g>
	<g>
		<path fill="#E84D88" d="M14.4,12.3v2c0,0.3,0.3,0.6,0.6,0.6h2c0.3,0,0.6-0.3,0.6-0.6v-2c0-0.3-0.3-0.6-0.6-0.6h-2
			C14.6,11.7,14.4,11.9,14.4,12.3z"/>
	</g>
	<g>
		<path fill="#FFD93B" d="M22.6,22.7v2c0,0.3,0.3,0.6,0.6,0.6h2c0.3,0,0.6-0.3,0.6-0.6v-2c0-0.3-0.3-0.6-0.6-0.6h-2
			C22.9,22.2,22.6,22.4,22.6,22.7z"/>
	</g>
	<g>
		<path fill="#A5856D" d="M18.5,22.7v2c0,0.3,0.3,0.6,0.6,0.6h2c0.3,0,0.6-0.3,0.6-0.6v-2c0-0.3-0.3-0.6-0.6-0.6h-2
			C18.8,22.2,18.5,22.4,18.5,22.7z"/>
	</g>
	<g>
		<path fill="#59A5E0" d="M14.4,22.7v2c0,0.3,0.3,0.6,0.6,0.6h2c0.3,0,0.6-0.3,0.6-0.6v-2c0-0.3-0.3-0.6-0.6-0.6h-2
			C14.6,22.2,14.4,22.4,14.4,22.7z"/>
	</g>
	<g>
		<path fill="#E84D88" d="M10.2,22.7v2c0,0.3,0.3,0.6,0.6,0.6h2c0.3,0,0.6-0.3,0.6-0.6v-2c0-0.3-0.3-0.6-0.6-0.6h-2
			C10.5,22.2,10.2,22.4,10.2,22.7z"/>
	</g>
</g>
</svg>
