<?xml version="1.0" encoding="utf-8"?>
<!-- Generator: Adobe Illustrator 18.0.0, SVG Export Plug-In . SVG Version: 6.00 Build 0)  -->
<!DOCTYPE svg PUBLIC "-//W3C//DTD SVG 1.1//EN" "http://www.w3.org/Graphics/SVG/1.1/DTD/svg11.dtd">
<svg version="1.1" id="Layer_1" xmlns="http://www.w3.org/2000/svg" xmlns:xlink="http://www.w3.org/1999/xlink" x="0px" y="0px"
	 viewBox="0 0 36 36" enable-background="new 0 0 36 36" xml:space="preserve">
<g>
	<g>
		<g>
			<g>
				<g>
					<g>
						<path fill="#4E99D2" d="M24.5,2c-4.3,1.6-8.8,1.6-13.1,0l-0.3,1.4c0,5.1,13.7,5.1,13.7,0L24.5,2z"/>
					</g>
				</g>
				<g>
					<g>
						<path fill="#428DC3" d="M28.9,33.8c-1.9,0.3-3.9,0.2-6,0c-0.1,0-0.2-0.1-0.2-0.2L18,13.2l-4.6,20.4c0,0.1-0.1,0.2-0.2,0.2
							c-2,0.3-4,0.3-6,0c-0.1,0-0.2-0.1-0.2-0.3c0.3-2.4,3-20.9,3-24.2c0-3.5,0.5-4.8,1.2-6c4.6,1.6,9.2,1.6,13.7,0
							c0.6,1.2,1.1,2.5,1.2,6c0,3.3,2.7,21.8,3,24.2C29.1,33.7,29,33.8,28.9,33.8z"/>
					</g>
				</g>
				<g>
					<g>
						<path fill="#5A5F63" d="M25.9,7c-0.2,0-1.7-0.3-3.5-0.4c-1.7-0.1-1.7-1.7-1.6-2.2c1.4-0.2,2.7-0.5,4.1-1
							C25.3,4.2,25.7,5.2,25.9,7z"/>
					</g>
					<g>
						<path fill="#3E4347" d="M20.8,4.4c0.2,0,0.3,0,0.5-0.1l0,0.1c0,0.2,0,0.9,0.3,1.3c0.2,0.2,0.5,0.4,0.9,0.4
							c1.6,0.1,3,0.3,3.4,0.4c0,0.2,0,0.3,0.1,0.5c-0.2,0-1.7-0.3-3.5-0.4C20.7,6.4,20.7,4.9,20.8,4.4z"/>
					</g>
				</g>
				<g>
					<g>
						<path fill="#5A5F63" d="M10.1,7c0.2,0,1.7-0.3,3.5-0.4c1.7-0.1,1.7-1.7,1.6-2.2c-1.4-0.2-2.7-0.5-4.1-1
							C10.7,4.2,10.3,5.2,10.1,7z"/>
					</g>
					<g>
						<path fill="#3E4347" d="M15.2,4.4c-0.2,0-0.3,0-0.5-0.1l0,0.1c0,0.2,0,0.9-0.3,1.3c-0.2,0.2-0.5,0.4-0.9,0.4
							c-1.6,0.1-3,0.3-3.4,0.4c0,0.2,0,0.3-0.1,0.5c0.2,0,1.7-0.3,3.5-0.4C15.3,6.4,15.3,4.9,15.2,4.4z"/>
					</g>
				</g>
			</g>
			<g>
				<g>
					<g>
						<g>
							<path fill="#59A5E0" d="M15.4,4.4c0,0.1-0.5,0-0.5-0.1c0.2-0.4,0.4-0.9,0.4-1.3c0-0.1,0.5,0,0.5,0.1
								C15.8,3.6,15.7,4,15.4,4.4z"/>
						</g>
					</g>
					<g>
						<g>
							<path fill="#59A5E0" d="M12.2,3.7c0,0.1-0.5,0-0.5-0.1c0.2-0.4,0.4-0.9,0.4-1.3c0-0.1,0.5,0,0.5,0.1
								C12.6,2.8,12.5,3.3,12.2,3.7z"/>
						</g>
					</g>
				</g>
				<g>
					<g>
						<g>
							<path fill="#59A5E0" d="M20.6,4.4c0,0.1,0.5,0,0.5-0.1c-0.2-0.4-0.4-0.9-0.4-1.3c0-0.1-0.5,0-0.5,0.1
								C20.2,3.6,20.3,4,20.6,4.4z"/>
						</g>
					</g>
					<g>
						<g>
							<path fill="#59A5E0" d="M23.8,3.7c0,0.1,0.5,0,0.5-0.1c-0.2-0.4-0.4-0.9-0.4-1.3c0-0.1-0.5,0-0.5,0.1
								C23.4,2.8,23.5,3.3,23.8,3.7z"/>
						</g>
					</g>
				</g>
			</g>
		</g>
		<g>
			<g>
				<path fill="#59A5E0" d="M28.9,33.8c-1.9,0.3-3.9,0.2-6,0c-0.1,0-0.2-0.1-0.2-0.2l-0.2-0.7l0.3,0c2.2,0.3,4.3,0.3,6.2,0l0,0
					c0,0.2,0.1,0.4,0.1,0.6C29.1,33.7,29,33.8,28.9,33.8z"/>
			</g>
			<g>
				<path fill="#59A5E0" d="M13.2,33l0.3,0l-0.2,0.7c0,0.1-0.1,0.2-0.2,0.2c-2,0.3-4,0.3-6,0c-0.1,0-0.2-0.1-0.2-0.3
					c0-0.1,0-0.3,0.1-0.6C9.2,33.3,11.3,33.3,13.2,33z"/>
			</g>
		</g>
	</g>
	<g>
		<polygon fill="#4E99D2" points="17.5,8.5 17.5,15.3 18,13.2 18,8.5 		"/>
	</g>
	<g>
		<g>
			<path fill="#4E99D2" d="M18.9,4.1h-1.4v7l0,0c0.8,0,1.4-0.6,1.4-1.4V4.1z"/>
		</g>
	</g>
</g>
</svg>
