<?xml version="1.0" encoding="utf-8"?>
<!-- Generator: Adobe Illustrator 18.0.0, SVG Export Plug-In . SVG Version: 6.00 Build 0)  -->
<!DOCTYPE svg PUBLIC "-//W3C//DTD SVG 1.1//EN" "http://www.w3.org/Graphics/SVG/1.1/DTD/svg11.dtd">
<svg version="1.1" id="Layer_1" xmlns="http://www.w3.org/2000/svg" xmlns:xlink="http://www.w3.org/1999/xlink" x="0px" y="0px"
	 viewBox="0 0 36 36" enable-background="new 0 0 36 36" xml:space="preserve">
<g>
	<g>
		<path fill="#363A3D" d="M23,7.8c-0.1,0.6-0.4,1.1-0.6,1.6c-0.2,0.2-0.4,0.4-0.7,0.4c-2.4,0.3-4.8,0.3-7.2,0
			c-0.3,0-0.6-0.2-0.7-0.4c-0.3-0.4-0.5-1-0.6-1.6h-2.6c0.6,4.3,3.8,6,7.6,6c3.8,0,6.9-1.7,7.6-6H23z"/>
	</g>
	<g>
		<path fill="#3E4347" d="M31.1,26.4v2.9c0,0.6-0.5,1.1-1.1,1.2c-8,0.5-16,0.5-24,0c-0.6,0-1.1-0.6-1.1-1.2v-2.9H31.1z"/>
	</g>
	<g>
		<path fill="#5A5F63" d="M31.1,26.4c-8.8,0.9-17.5,0.9-26.3,0c0-2.1,1.7-3,4.1-5.5s2.3-5.7,2.3-5.7l6.7-0.8l6.7,0.8
			c0,0-0.2,3.2,2.3,5.7C29.5,23.5,31.1,24.3,31.1,26.4z"/>
	</g>
	<g>
		<path fill="#3E4347" d="M24.7,15.3c0-2.8-3-5-6.7-5c-3.7,0-6.7,2.3-6.7,5v1.4c0,2.8,3,5,6.7,5c3.7,0,6.7-2.3,6.7-5V15.3z"/>
	</g>
	<g>
		<ellipse fill="#5A5F63" cx="18" cy="15.3" rx="6.7" ry="5"/>
	</g>
	<g>
		<path fill="#3E4347" d="M18.1,17.2c-1.5,0-2.8-0.9-2.8-2.1c0-1.2,1.3-2.1,2.8-2.1c1.5,0,2.8,0.9,2.8,2.1
			C20.9,16.3,19.6,17.2,18.1,17.2z M18.1,13.4c-1.3,0-2.4,0.8-2.4,1.7c0,0.9,1.1,1.7,2.4,1.7c1.3,0,2.4-0.8,2.4-1.7
			C20.4,14.2,19.4,13.4,18.1,13.4z"/>
	</g>
	<g>
		<ellipse fill="#3E4347" cx="18.1" cy="15.1" rx="1.2" ry="0.9"/>
	</g>
	<g>
		<ellipse fill="#3E4347" cx="20.3" cy="11.8" rx="1" ry="0.7"/>
	</g>
	<g>
		<ellipse fill="#3E4347" cx="18.1" cy="11.4" rx="1" ry="0.6"/>
	</g>
	<g>
		<ellipse fill="#3E4347" cx="15.8" cy="11.7" rx="1" ry="0.7"/>
	</g>
	<g>
		<path fill="#3E4347" d="M14.9,12.6c0,0.4-0.5,0.7-1,0.7c-0.6,0-1-0.2-1-0.6c0-0.4,0.5-0.7,1-0.7C14.4,12,14.9,12.2,14.9,12.6z"/>
	</g>
	<g>
		<path fill="#3E4347" d="M13.9,14.2c0,0.4-0.5,0.8-1,0.9c-0.6,0-1-0.3-1-0.7c0-0.4,0.5-0.8,1-0.9C13.4,13.4,13.9,13.7,13.9,14.2z"
			/>
	</g>
	<g>
		<path fill="#3E4347" d="M14.2,16.1c0,0.5-0.5,0.9-1.1,0.9c-0.6,0-1.1-0.3-1.1-0.8c0-0.5,0.5-0.9,1.1-0.9
			C13.7,15.3,14.2,15.6,14.2,16.1z"/>
	</g>
	<g>
		<path fill="#3E4347" d="M15.6,17.6c0,0.5-0.5,1-1.1,1c-0.6,0.1-1.1-0.3-1.1-0.8c0-0.5,0.5-1,1.1-1C15.1,16.7,15.6,17.1,15.6,17.6z
			"/>
	</g>
	<g>
		<path fill="#3E4347" d="M17.8,18.6c0,0.6-0.5,1.1-1.1,1.1c-0.6,0.1-1.1-0.3-1.2-0.9c0-0.6,0.5-1.1,1.1-1.1
			C17.2,17.6,17.8,18,17.8,18.6z"/>
	</g>
	<g>
		<path fill="#3E4347" d="M20.4,18.6c0.1,0.6-0.3,1-1,1.1c-0.6,0.1-1.2-0.3-1.3-0.9c-0.1-0.6,0.3-1,1-1.1
			C19.7,17.7,20.3,18.1,20.4,18.6z"/>
	</g>
	<g>
		<path fill="#3E4347" d="M22.9,17.7c0.1,0.6-0.3,1-1,1.1c-0.6,0.1-1.2-0.3-1.3-0.9c-0.1-0.6,0.3-1,1-1.1
			C22.2,16.7,22.8,17.1,22.9,17.7z"/>
	</g>
	<g>
		<path fill="#3E4347" d="M34,12.6c-0.1,0.7-0.3,1.5-0.3,1.5l-0.1,0.2l-2.9-0.7l-4.5-2.1l0.3-0.7c0.1-0.8-0.5-1.6-1.4-1.6L18,8.8
			l-7.2,0.4c-0.8,0-1.5,0.8-1.4,1.6l0.3,0.7l-4.5,2.1l-2.9,0.7l-0.1-0.2c0,0-0.2-0.8-0.3-1.5c-0.1-0.7,0.1-1.4,0.6-1.9
			c2.5-2.6,5.9-4.2,9.8-5c3.7-0.8,7.5-0.8,11.1,0c4,0.8,7.3,2.4,9.8,5C33.9,11.2,34.1,11.9,34,12.6z"/>
	</g>
	<g>
		<path fill="#5A5F63" d="M33,15.3l0.8-0.6l-0.1-0.7c-2.6-0.7-5.1-1.6-7.4-2.6l-0.7,0.4l0.7,1.4L33,15.3z"/>
	</g>
	<g>
		<path fill="#3E4347" d="M33.8,14.8l-0.7,1.2c-0.1,0.2-0.4,0.3-0.6,0.3c-2.3-0.5-4.5-1.4-6.7-2.5c-0.2-0.1-0.3-0.3-0.3-0.6l0.2-1.3
			C28.4,13.1,31.1,14.1,33.8,14.8z"/>
	</g>
	<g>
		<path fill="#5A5F63" d="M3,15.3l-0.8-0.6l0.1-0.7c2.6-0.7,5.1-1.6,7.4-2.6l0.7,0.4l-0.7,1.4L3,15.3z"/>
	</g>
	<g>
		<path fill="#3E4347" d="M2.2,14.8l0.7,1.2c0.1,0.2,0.4,0.3,0.6,0.3c2.3-0.5,4.5-1.4,6.7-2.5c0.2-0.1,0.3-0.3,0.3-0.6l-0.2-1.3
			C7.6,13.1,4.9,14.1,2.2,14.8z"/>
	</g>
</g>
</svg>
