<?xml version="1.0" encoding="utf-8"?>
<!-- Generator: Adobe Illustrator 18.0.0, SVG Export Plug-In . SVG Version: 6.00 Build 0)  -->
<!DOCTYPE svg PUBLIC "-//W3C//DTD SVG 1.1//EN" "http://www.w3.org/Graphics/SVG/1.1/DTD/svg11.dtd">
<svg version="1.1" id="Layer_1" xmlns="http://www.w3.org/2000/svg" xmlns:xlink="http://www.w3.org/1999/xlink" x="0px" y="0px"
	 viewBox="0 0 36 36" enable-background="new 0 0 36 36" xml:space="preserve">
<g>
	<g>
		<path fill="#3E4347" d="M9.6,16.2V10c0-2.6,2.1-4.8,4.8-4.8c2.6,0,4.8,2.1,4.8,4.8v6.2h3.3V10c0-4.4-3.6-8-8-8c-4.4,0-8,3.6-8,8
			v6.2H9.6z"/>
	</g>
	<g>
		<path fill="#FFD93B" d="M25.7,18.8V30c0,2.2-1.8,4-4,4H7.1c-2.2,0-4-1.8-4-4V18.8c0-2.2,1.8-4,4-4h14.7
			C24,14.9,25.7,16.6,25.7,18.8z"/>
	</g>
	<g>
		<path fill="#3E4347" d="M16.3,27.8c0.1,0.4-0.2,0.8-0.6,0.8h-2.5c-0.4,0-0.7-0.4-0.6-0.8l0.9-2.7c-0.9-0.4-1.6-1.3-1.6-2.4
			c0-1.4,1.1-2.5,2.5-2.5c1.4,0,2.5,1.1,2.5,2.5c0,1.1-0.7,2-1.6,2.4L16.3,27.8z"/>
	</g>
	<g>
		<path fill="#3E4347" d="M2,28.2c0,0.5,0.4,0.9,1,0.9h3c0.5,0,0.9-0.4,0.9-0.9c0-0.5-0.4-1-0.9-1H3C2.4,27.3,2,27.7,2,28.2z"/>
	</g>
	<g>
		<path fill="#3E4347" d="M2,25.2c0,0.5,0.4,0.9,1,0.9h3c0.5,0,0.9-0.4,0.9-0.9s-0.4-1-0.9-1H3C2.4,24.2,2,24.7,2,25.2z"/>
	</g>
	<g>
		<path fill="#3E4347" d="M6.9,22.2c0-0.5-0.4-0.9-0.9-0.9H3c-0.5,0-1,0.4-1,0.9s0.4,0.9,1,0.9h3C6.5,23.1,6.9,22.7,6.9,22.2z"/>
	</g>
	<g>
		<path fill="#D3D9DD" d="M31,23.2v3.4h-4V15.8c0-0.1,0-0.2,0.1-0.3l1.4-1.4c0.1-0.1,0.4-0.1,0.5,0l1.6,1.6c0.1,0.1,0.1,0.4,0,0.5
			L30,16.9l0.4,0.4l-0.4,0.4l0.4,0.4l-0.5,0.5v1.6l0.6,1.4v1.5H31z"/>
	</g>
	<g>
		<path fill="#ACB9C1" d="M28.4,26.3h-0.6v-6.6c0-3.4,0.6-3.4,0.6,0V26.3z"/>
	</g>
	<g>
		<path fill="#3E4347" d="M32.7,25.6h-7.5c-0.8,0-1.3,0.7-1.3,1.4l0.7,5.9c0.1,0.6,0.6,1.1,1.3,1.1h6.1c0.6,0,1.2-0.5,1.3-1.1L34,27
			C34.1,26.3,33.5,25.6,32.7,25.6z M31.6,31.2c-0.1,0.4-0.4,0.6-0.8,0.6h-3.6c-0.4,0-0.8-0.4-0.8-0.8c0-0.4,0.3-0.8,0.8-0.8h3.6
			C31.3,30.3,31.7,30.7,31.6,31.2z"/>
	</g>
</g>
</svg>
