<?xml version="1.0" encoding="utf-8"?>
<!-- Generator: Adobe Illustrator 18.0.0, SVG Export Plug-In . SVG Version: 6.00 Build 0)  -->
<!DOCTYPE svg PUBLIC "-//W3C//DTD SVG 1.1//EN" "http://www.w3.org/Graphics/SVG/1.1/DTD/svg11.dtd">
<svg version="1.1" id="Layer_1" xmlns="http://www.w3.org/2000/svg" xmlns:xlink="http://www.w3.org/1999/xlink" x="0px" y="0px"
	 viewBox="0 0 36 36" enable-background="new 0 0 36 36" xml:space="preserve">
<g>
	<g>
		<rect x="6.8" y="16.2" fill="#3E4347" width="2.7" height="15.7"/>
	</g>
	<g>
		<path fill="#5A5F63" d="M7.6,33.5c-1.7,0.6-3.3,0.6-5,0C2.2,33.4,2,33,2,32.6c0.3-5.6,0.3-11.3,0-16.9c0-0.4,0.2-0.8,0.6-1
			c1.6-0.6,3.3-0.6,4.9,0c0.4,0.2,0.7,0.5,0.6,1c-0.3,5.6-0.3,11.3,0,16.9C8.2,33,8,33.4,7.6,33.5z"/>
	</g>
	<g>
		<path fill="#5A5F63" d="M33.8,32.9c0,0.6-0.5,1.1-1.1,1.1H9.9c-0.6,0-1.1-0.5-1.1-1.1L9.1,15c0-0.6,0.5-1.1,1.1-1.1h22.2
			c0.6,0,1,0.4,1.1,1C34.1,20.1,34.1,26.3,33.8,32.9z"/>
	</g>
	<g>
		<path fill="#777B7E" d="M22.7,18.7v6.8c0,0.5-0.5,0.8-1,0.6c-1.3-0.6-3.1-1-5.1-1s-3.7,0.4-5.1,1c-0.5,0.2-1-0.1-1-0.6v-6.8
			c0-0.4,0.3-0.7,0.7-0.7H22C22.4,18,22.7,18.3,22.7,18.7z"/>
	</g>
	<g>
		<path fill="#3E4347" d="M21.5,19.3v3.1c0,0.1-0.1,0.2-0.2,0.2h-9.4c-0.1,0-0.2-0.1-0.2-0.2v-3.1c0-0.1,0.1-0.2,0.2-0.2h9.4
			C21.4,19.1,21.5,19.2,21.5,19.3z"/>
	</g>
	<g>
		<rect x="12.4" y="19.8" fill="#65B1EF" width="8.5" height="2.3"/>
	</g>
	<g>
		<path fill="#FFFFFF" d="M15.3,29.4c0-0.2,0.1-0.5,0.2-0.7c0.1-0.1,0-0.2,0-0.3l-0.9-0.9c-0.1-0.1-0.3-0.1-0.4,0
			c-0.4,0.5-0.6,1.2-0.6,1.9c0,0.7,0.2,1.3,0.6,1.9c0.1,0.1,0.3,0.1,0.4,0l0.9-0.9c0.1-0.1,0.1-0.2,0-0.3
			C15.4,29.9,15.3,29.7,15.3,29.4z"/>
	</g>
	<g>
		<path fill="#E24B4B" d="M18.7,27.6l-0.9,0.9c-0.1,0.1-0.1,0.2,0,0.3c0.1,0.2,0.2,0.4,0.2,0.7c0,0.2-0.1,0.5-0.2,0.7
			c-0.1,0.1,0,0.2,0,0.3l0.9,0.9c0.1,0.1,0.3,0.1,0.4,0c0.4-0.5,0.6-1.2,0.6-1.9c0-0.7-0.2-1.3-0.6-1.9C19,27.5,18.8,27.4,18.7,27.6
			z"/>
	</g>
	<g>
		<path fill="#65B1EF" d="M17.6,30.6c-0.1-0.1-0.2-0.1-0.3,0c-0.2,0.1-0.4,0.2-0.7,0.2c-0.2,0-0.5-0.1-0.7-0.2c-0.1-0.1-0.2,0-0.3,0
			l-0.9,0.9c-0.1,0.1-0.1,0.3,0,0.4c0.5,0.4,1.2,0.6,1.9,0.6c0.7,0,1.3-0.2,1.9-0.6c0.1-0.1,0.1-0.3,0-0.4L17.6,30.6z"/>
	</g>
	<g>
		<path fill="#8CC63E" d="M15.7,28.3c0.1,0.1,0.2,0.1,0.3,0c0.2-0.1,0.4-0.2,0.7-0.2c0.2,0,0.5,0.1,0.7,0.2c0.1,0.1,0.2,0,0.3,0
			l0.9-0.9c0.1-0.1,0.1-0.3,0-0.4c-0.5-0.4-1.2-0.6-1.9-0.6c-0.7,0-1.3,0.2-1.9,0.6c-0.1,0.1-0.1,0.3,0,0.4L15.7,28.3z"/>
	</g>
	<g>
		<circle fill="#3E4347" cx="16.6" cy="29.4" r="0.9"/>
	</g>
	<g>
		<circle fill="#FFD93B" cx="25.3" cy="22.4" r="1"/>
	</g>
	<g>
		<circle fill="#65B1EF" cx="27.8" cy="22.4" r="1"/>
	</g>
	<g>
		<circle fill="#E24B4B" cx="30.3" cy="22.4" r="1"/>
	</g>
	<g>
		<circle fill="#FFFFFF" cx="25.3" cy="24.7" r="1"/>
	</g>
	<g>
		<circle fill="#FFFFFF" cx="27.8" cy="24.7" r="1"/>
	</g>
	<g>
		<circle fill="#FFFFFF" cx="30.3" cy="24.7" r="1"/>
	</g>
	<g>
		<circle fill="#FFFFFF" cx="25.3" cy="27.1" r="1"/>
	</g>
	<g>
		<circle fill="#FFFFFF" cx="27.8" cy="27.1" r="1"/>
	</g>
	<g>
		<circle fill="#FFFFFF" cx="30.3" cy="27.1" r="1"/>
	</g>
	<g>
		<circle fill="#FFFFFF" cx="24.1" cy="30.6" r="0.7"/>
	</g>
	<g>
		<circle fill="#FFFFFF" cx="26.6" cy="30.6" r="0.7"/>
	</g>
	<g>
		<circle fill="#FFFFFF" cx="29" cy="30.6" r="0.7"/>
	</g>
	<g>
		<circle fill="#FFFFFF" cx="31.4" cy="30.6" r="0.7"/>
	</g>
	<g>
		<path fill="#3E4347" d="M31.4,11.5v5H11.3v-5c0-0.4,0.3-0.7,0.7-0.7h18.6C31.1,10.7,31.4,11,31.4,11.5z"/>
	</g>
	<g>
		<path fill="#E9EFF4" d="M17.2,2l-4.4,4.4v8.7H30V3.3C30,2.6,29.4,2,28.7,2H17.2z"/>
	</g>
	<g>
		<path fill="#E84D88" d="M17.2,2v3.1c0,0.7-0.6,1.3-1.3,1.3h-3.1L17.2,2z"/>
	</g>
</g>
</svg>
