<?xml version="1.0" encoding="utf-8"?>
<!-- Generator: Adobe Illustrator 18.0.0, SVG Export Plug-In . SVG Version: 6.00 Build 0)  -->
<!DOCTYPE svg PUBLIC "-//W3C//DTD SVG 1.1//EN" "http://www.w3.org/Graphics/SVG/1.1/DTD/svg11.dtd">
<svg version="1.1" id="Layer_1" xmlns="http://www.w3.org/2000/svg" xmlns:xlink="http://www.w3.org/1999/xlink" x="0px" y="0px"
	 viewBox="0 0 36 36" enable-background="new 0 0 36 36" xml:space="preserve">
<g>
	<g>
		<g>
			<g>
				<path fill="#5A5F63" d="M31.2,16.1c-0.2,0.1-0.4,0.1-0.6,0l-1.9-1.5c0.2-1.6-2.3-3.5-3.2-3.2c-0.7,0.2-1.9,1.2-2.4,1.7
					c-0.2,0.1-0.4,0.1-0.6,0L18.7,10c-0.2-0.2-0.2-0.4-0.1-0.6l2-2.5c0,0,0.9-1.3-1.7-2.2c-2.6-0.9-6.1-0.1-7.1-0.2c0,0,0,0,0,0
					c-0.4,0-0.5-0.6-0.1-0.7C15.3,2.5,18.4,2,21,2.3c1.7,0.2,3.3,0.9,4.6,1.9l3.7,3c0.4,3.1,2.6,3.4,2.6,3.4l1.9,1.5
					c0.2,0.1,0.2,0.4,0.1,0.6C33.3,14,32.4,15.1,31.2,16.1z"/>
			</g>
		</g>
		<g>
			<path fill="#777B7E" d="M29.8,13.3l-1.2,0.3c-0.6-1.3-2.3-2.4-3.1-2.2c-0.7,0.2-1.9,1.2-2.4,1.7c-0.2,0.1-0.4,0.1-0.6,0l-3.4-2.7
				l3.1-3.8c0,0,0.9-1.1-0.9-2c-1.8-0.8-6.8-0.6-9.4-0.1c-0.4,0-0.5-0.6-0.1-0.7C15.3,2.5,18.4,2,21,2.3c1.7,0.2,3.3,0.9,4.6,1.9
				l3.7,3c0.2,1.8,1.1,2.7,1.8,3.1l0.1,1.3C31.1,11.7,31.3,13.1,29.8,13.3z"/>
		</g>
		<g>
			<path fill="#3E4347" d="M31.1,11.7c0.9-0.2,0.8-1,0.8-1s-2.2-0.3-2.6-3.4C28.5,9.6,31.1,11.7,31.1,11.7z"/>
		</g>
		<g>
			<path fill="#3E4347" d="M29.8,13.3c0,0-2.6-2.7-4.3-1.9c0.9-0.3,3.4,1.6,3.2,3.2C28.7,14.6,29.9,14.2,29.8,13.3z"/>
		</g>
	</g>
	<g>
		<g>
			<path fill="#A5856D" d="M22.4,12.9L5.9,33.4c-0.4,0.5-1.1,0.6-1.6,0.2c-1.2-1-1.9-2.2-2.2-3.6c-0.1-0.3,0-0.7,0.3-1l16.4-19
				L22.4,12.9z"/>
		</g>
	</g>
	<g>
		<g>
			<path fill="#E24B4B" d="M10.3,19.7"/>
		</g>
		<g>
			<g>
				<path fill="#E24B4B" d="M17.4,19.1L5.9,33.4c-0.4,0.5-1.1,0.6-1.6,0.2c-1.2-1-1.9-2.2-2.2-3.6c-0.1-0.3,0-0.7,0.3-1l8-9.2
					C12.6,19.9,15,19.7,17.4,19.1z"/>
			</g>
		</g>
		<g>
			<g>
				<path fill="#E24B4B" d="M17.4,19.1L5.9,33.4c-0.4,0.5-1.1,0.6-1.6,0.2c-1.2-1-1.9-2.2-2.2-3.6c-0.1-0.3,0-0.7,0.3-1l8-9.2
					C12.6,19.9,15,19.7,17.4,19.1z"/>
			</g>
			<g>
				<path fill="#FFFFFF" d="M16.6,20l1.3-1.6c-2.5,0.6-4.9,0.9-7.2,0.8l-1.1,1.2C11.9,20.6,14.2,20.5,16.6,20z"/>
			</g>
		</g>
	</g>
</g>
</svg>
