<?xml version="1.0" encoding="utf-8"?>
<!-- Generator: Adobe Illustrator 18.0.0, SVG Export Plug-In . SVG Version: 6.00 Build 0)  -->
<!DOCTYPE svg PUBLIC "-//W3C//DTD SVG 1.1//EN" "http://www.w3.org/Graphics/SVG/1.1/DTD/svg11.dtd">
<svg version="1.1" id="Layer_1" xmlns="http://www.w3.org/2000/svg" xmlns:xlink="http://www.w3.org/1999/xlink" x="0px" y="0px"
	 viewBox="0 0 36 36" enable-background="new 0 0 36 36" xml:space="preserve">
<g>
	<g>
		<g>
			<path fill="#A5856D" d="M30,9L5.7,33.4c-0.8,0.8-2.2,0.8-3.1,0c-0.8-0.8-0.8-2.2,0-3.1L27,6c0.8-0.8,2.2-0.8,3,0
				C30.9,6.8,30.9,8.2,30,9z"/>
		</g>
	</g>
	<g>
		<g>
			<path fill="#CBD6E0" d="M34,24.6C28.1,15.4,20.6,7.9,11.4,2C25.4,2.7,33.1,10,34,24.6z"/>
		</g>
	</g>
	<g>
		<g>
			<path fill="#DAE5EF" d="M30.1,10.5l-5.7,5.7c-0.3,0.3-0.8,0.3-1,0l-3.5-3.5c-0.3-0.3-0.3-0.8,0-1l5.7-5.7c0.3-0.3,0.8-0.3,1,0
				l3.5,3.5C30.3,9.7,30.4,10.2,30.1,10.5z"/>
		</g>
	</g>
</g>
</svg>
