<?xml version="1.0" encoding="utf-8"?>
<!-- Generator: Adobe Illustrator 18.0.0, SVG Export Plug-In . SVG Version: 6.00 Build 0)  -->
<!DOCTYPE svg PUBLIC "-//W3C//DTD SVG 1.1//EN" "http://www.w3.org/Graphics/SVG/1.1/DTD/svg11.dtd">
<svg version="1.1" id="Layer_1" xmlns="http://www.w3.org/2000/svg" xmlns:xlink="http://www.w3.org/1999/xlink" x="0px" y="0px"
	 viewBox="0 0 36 36" enable-background="new 0 0 36 36" xml:space="preserve">
<g>
	<g>
		<g>
			<path fill="#719D34" d="M21.4,8.1V2c-2.3,1.3-4.5,1.3-6.8,0v6.1C14.6,11.5,21.4,11.5,21.4,8.1z"/>
		</g>
	</g>
	<g>
		<g>
			<g>
				<g>
					<path fill="#8CC63E" d="M31.3,29.9l-5.2,1.7l0.3,0.5c0.1,0.1,0,0.3-0.1,0.3l-4.1,1l0.1,0.4c0,0.1,0,0.3-0.2,0.3h-8.2
						c-0.1,0-0.2-0.1-0.2-0.3l0.1-0.4l-4.1-1c-0.1,0-0.2-0.2-0.1-0.3l0.3-0.5l-5.2-1.7c-0.1,0-0.2-0.2-0.1-0.3
						c10.9-14.9,6.5-20.3,6.5-20.3c1.2-3.2-0.3-4.9-0.3-4.9L14.6,2c0,1.3,0.7,2.3,1.8,2.9v1.7c0,0.9,0.8,1.7,1.7,1.7
						c0.9,0,1.6-0.7,1.6-1.6V4.9c1-0.6,1.7-1.7,1.8-2.9l3.8,2.4c0,0-1.4,1.8-0.3,4.9c0,0-4.4,5.3,6.5,20.3
						C31.5,29.7,31.5,29.9,31.3,29.9z"/>
				</g>
			</g>
			<g>
				<g>
					<path fill="#7FB239" d="M27.9,31.1c-2.4-3.6-6.5-14-6.5-14c0.9,6.6,4.7,14.6,4.7,14.6L27.9,31.1L27.9,31.1z"/>
				</g>
				<g>
					<path fill="#7FB239" d="M23.5,33.1c-4.2-9.7-5-18.2-5-18.2c0.1,7.7,3.7,18.5,3.7,18.5L23.5,33.1L23.5,33.1z"/>
				</g>
				<g>
					<path fill="#7FB239" d="M8.1,31.1c2.4-3.6,6.5-14,6.5-14c-0.9,6.6-4.7,14.6-4.7,14.6L8.1,31.1L8.1,31.1z"/>
				</g>
				<g>
					<path fill="#7FB239" d="M12.5,33.1c4.2-9.7,5-18.2,5-18.2c-0.1,7.7-3.7,18.5-3.7,18.5L12.5,33.1L12.5,33.1z"/>
				</g>
			</g>
		</g>
		<g>
			<g>
				<path fill="#7FB239" d="M15.7,5.3v1.4C15.7,8,16.7,9,18,9c1.3,0,2.3-1,2.3-2.3V5.3c1-0.7,1.6-1.7,1.7-2.9L21.4,2
					c0,1.3-0.7,2.3-1.8,2.9v1.8c0,0.9-0.7,1.6-1.6,1.6c0,0,0,0,0,0c0,0,0,0,0,0c-0.9,0-1.6-0.7-1.6-1.6v0V4.9
					c-1-0.6-1.7-1.7-1.8-2.9L14,2.4C14.1,3.6,14.7,4.6,15.7,5.3z"/>
			</g>
		</g>
	</g>
</g>
</svg>
