<?xml version="1.0" encoding="utf-8"?>
<!-- Generator: Adobe Illustrator 18.0.0, SVG Export Plug-In . SVG Version: 6.00 Build 0)  -->
<!DOCTYPE svg PUBLIC "-//W3C//DTD SVG 1.1//EN" "http://www.w3.org/Graphics/SVG/1.1/DTD/svg11.dtd">
<svg version="1.1" id="Layer_1" xmlns="http://www.w3.org/2000/svg" xmlns:xlink="http://www.w3.org/1999/xlink" x="0px" y="0px"
	 viewBox="0 0 36 36" enable-background="new 0 0 36 36" xml:space="preserve">
<g>
	<g>
		<g>
			<path fill="#F4C534" d="M31.3,8.7L6.8,33.2c-1.1,1.1-2.9,1.1-4,0l0,0c-1.1-1.1-1.1-2.9,0-4L27.3,4.7c1.1-1.1,2.9-1.1,4,0l0,0
				C32.4,5.8,32.4,7.6,31.3,8.7z"/>
		</g>
	</g>
	<g>
		<g>
			<g>
				<path fill="#5A5F63" d="M33.4,16.5l-3.6,3.6c-0.4,0.4-0.8,0.6-1.3,0.6c-0.8,0-1.4,0-2.2,0c-0.5,0-1-0.2-1.4-0.6L15.9,11
					c-0.4-0.4-0.6-0.9-0.6-1.4c0-0.8,0-1.4,0-2.2c0-0.5,0.2-1,0.6-1.3l3.6-3.6C19.8,2.2,20.3,2,20.8,2c0.8,0,1.4,0,2.2,0
					c0.5,0,1,0.2,1.4,0.6l9.1,9.1C33.8,12,34,12.5,34,13c0,0.8,0,1.4,0,2.2C34,15.7,33.8,16.2,33.4,16.5z"/>
			</g>
		</g>
		<g>
			<path fill="#3E4347" d="M34,13c0-0.2-0.1-0.3-0.1-0.5c-2.7,1.1-13.1,4.7-18.6-5c0,0,0,0,0,0c0,0.8,0,1.4,0,2.2
				c0,0.5,0.2,1,0.6,1.4l9.1,9.1c0.4,0.4,0.9,0.6,1.4,0.6c0.8,0,1.4,0,2.2,0c0.5,0,1-0.2,1.3-0.6l3.6-3.6c0.4-0.4,0.6-0.8,0.6-1.3
				C34,14.4,34,13.8,34,13z"/>
		</g>
	</g>
</g>
</svg>
