<?xml version="1.0" encoding="utf-8"?>
<!-- Generator: Adobe Illustrator 18.0.0, SVG Export Plug-In . SVG Version: 6.00 Build 0)  -->
<!DOCTYPE svg PUBLIC "-//W3C//DTD SVG 1.1//EN" "http://www.w3.org/Graphics/SVG/1.1/DTD/svg11.dtd">
<svg version="1.1" id="Layer_1" xmlns="http://www.w3.org/2000/svg" xmlns:xlink="http://www.w3.org/1999/xlink" x="0px" y="0px"
	 viewBox="0 0 36 36" enable-background="new 0 0 36 36" xml:space="preserve">
<g>
	<g>
		<g>
			<g>
				<path fill="#BBC7D1" d="M25.7,14.2l-9.5,9.5l-3.9-3.9l9.5-9.5C25.3,6.8,29.5,4,34,2l0,0c-1,2.3-2.2,4.4-3.6,6.5
					C29,10.5,27.5,12.4,25.7,14.2z"/>
			</g>
		</g>
		<g>
			<g>
				<path fill="#CBD6E0" d="M25.7,14.2l-9.5,9.5l-1.9-1.9L34,2l0,0c-1,2.3-2.2,4.4-3.6,6.5S27.5,12.4,25.7,14.2z"/>
			</g>
		</g>
		<g>
			<g>
				<path fill="#DEE4E9" d="M17.8,26.6L17.8,26.6l-1.5-1.5c-0.7-0.7-1.8-0.8-2.7-0.2l-2.5-2.5c0.3-0.4,0.4-0.9,0.4-1.4
					c0-0.5-0.2-0.9-0.6-1.3l-1.5-1.5C9.5,18.1,9.7,18,9.9,18c0.2,0,0.4,0,0.6,0.1c3.3,1.7,5.7,4.1,7.4,7.4
					C18.1,25.9,18.1,26.3,17.8,26.6z"/>
			</g>
		</g>
		<g>
			<g>
				<g>
					<path fill="#5A5F63" d="M9.4,29.8c-0.8,0.8-0.2,1.5-1,2.3c-0.7,0.7-1.3,0.3-2,0.8c-0.2,0.1-0.5,0.1-0.6-0.1l-2.7-2.7
						c-0.2-0.2-0.2-0.5,0-0.7l7.5-7.5c0.2-0.2,0.5-0.2,0.7,0l3.2,3.2c0.3,0.3,0.2,0.7-0.2,0.8c-0.5,0.2-1.1,0-1.7,0.6
						c-0.8,0.8-0.2,1.5-1,2.3C10.9,29.6,10.2,28.9,9.4,29.8z"/>
				</g>
			</g>
		</g>
	</g>
	<g>
		<g>
			<path fill="#DEE4E9" d="M7,33.8c-0.3,0.3-0.8,0.3-1.1,0L2.2,30c-0.3-0.3-0.3-0.8,0-1.1c0.3-0.3,0.8-0.3,1.1,0L7,32.7
				C7.3,33,7.3,33.5,7,33.8z"/>
		</g>
	</g>
</g>
</svg>
