<?xml version="1.0" encoding="utf-8"?>
<!-- Generator: Adobe Illustrator 18.0.0, SVG Export Plug-In . SVG Version: 6.00 Build 0)  -->
<!DOCTYPE svg PUBLIC "-//W3C//DTD SVG 1.1//EN" "http://www.w3.org/Graphics/SVG/1.1/DTD/svg11.dtd">
<svg version="1.1" id="Layer_1" xmlns="http://www.w3.org/2000/svg" xmlns:xlink="http://www.w3.org/1999/xlink" x="0px" y="0px"
	 viewBox="0 0 36 36" enable-background="new 0 0 36 36" xml:space="preserve">
<g>
	<g>
		<g>
			<g>
				<g>
					<path fill="#3E4347" d="M17.7,20.6c-0.2-1.2,1.2-2,1.2-2l-0.4-0.5c0-0.2,0-0.4-0.1-0.6h-3.2c-0.1,0.2-0.1,0.4-0.1,0.6
						c0,0.8,0.6,1.5,1.4,1.7c0.3,1.8,1.3,2.5,2.5,2.8c0.8,0.1,0.5-0.3,0.5-0.3S17.9,21.8,17.7,20.6z"/>
				</g>
			</g>
			<g>
				<g>
					<g>
						<path fill="#3E4347" d="M14.5,10.2c0,0-0.3-0.5-1.1-0.2c-0.8,0.3-1.3,0.4-2.4-0.6C9.9,8.5,9.6,9.1,9.6,9.3
							c0.1,0.2,1.2,0.4,1.4,1.2c0.2,0.8,1.1,1,1.6,1.1c0.5,0.2,0.8,0.7,0.7,1.1c-0.1,0.3,1.3-0.3,1.4-0.3c0,0,0.2-1.6,0.2-1.6
							L14.5,10.2z"/>
					</g>
				</g>
				<g>
					<g>
						<g>
							<path fill="#3E4347" d="M31.8,9.6v0.2c0,0,0,0.1,0,0.1h-4.3c0-0.1,0-0.2,0-0.4c0-0.1,0-0.2,0.1-0.3c0.1-0.1,0.1-0.2,0.2-0.2
								l2.5-1c0.5-0.2,1,0.2,1,0.7v0.5c0,0,0,0,0,0C31.6,9.1,31.8,9.3,31.8,9.6z"/>
						</g>
					</g>
					<g>
						<g>
							<rect x="15.2" y="12.7" fill="#3E4347" width="7.1" height="1.8"/>
						</g>
					</g>
					<g>
						<g>
							<g>
								<g>
									<path fill="#5A5F63" d="M33,9.8l-0.7,0c0,0,0,0,0,0h-3.7c0,0,0,0,0,0h-1.6c0,0,0,0,0,0l-0.2-0.3c-0.1-0.1-0.2-0.2-0.4-0.2
										h-7.9c-0.2,0-0.4-0.1-0.5-0.2c-0.1-0.1-0.2-0.2-0.2-0.3c-0.1-0.1-0.2-0.2-0.4-0.2h-2.4c-0.2,0-0.4,0.2-0.5,0.4
										c0,0.5-0.2,0.9-0.4,1.3c-0.8,1.9-2.3,3-4.3,3.3c-0.8,0.1-1.4,0.6-1.7,1.3c-0.2,0.4-0.3,0.9-0.3,1.3v0l0.9,11.5c0,0,0,0,0,0
										c0.1,0.1,1.7,0.9,1.4-0.6c-0.3-1.6-0.6-3.4-0.2-4.9c0.4-1.5,1.4-2,2.5-2.2c1.1-0.2,1.5,0.9,1.5,0.9c0,0,0,0,0,0
										c0,0.1,0,2.9,3,3.1c3.1,0.2,5.1-1.8,5.3-3c0.2-1.1,0.3-1.8,0.3-1.8c0,0,0,0,0,0l1.7-0.3c0.4-0.1,0.6-0.4,0.6-0.7
										c0,0,0-2,0-2.5c0-0.1,0-0.1,0-0.2c0.1-0.3,0.4-0.6,0.7-0.7c0.1-0.1,0.2-0.2,0.2-0.4v-1.8c0,0,0,0,0,0H33V9.8z M21.4,20.4
										c0,0.2-0.1,0.4-0.1,0.5c-0.2,1-2.1,2.5-4.6,2.4c-1-0.1-1.6-0.4-2-1.1c-0.2-0.4-0.3-1.4-0.3-1.4c0-1.2,1-2.2,2.2-2.2H20
										C21,18.6,21.7,19.5,21.4,20.4z M21.3,16.7h-4.6c-0.2,0-0.4-0.2-0.4-0.4v-5.1c0-0.2,0.2-0.4,0.4-0.4h4.6
										c0.2,0,0.4,0.2,0.4,0.4v5.1C21.7,16.5,21.5,16.7,21.3,16.7z"/>
								</g>
							</g>
						</g>
					</g>
					<g>
						<g>
							<path fill="#777B7E" d="M33.8,12.4c0.3-0.8,0.3-1.6,0-2.4c-0.1-0.1-0.2-0.2-0.3-0.2h-1.2c0.4,0.9,0.4,1.9,0,2.9h1.2
								C33.6,12.7,33.7,12.6,33.8,12.4z"/>
						</g>
					</g>
					<g>
						<g>
							<g>
								<path fill="#777B7E" d="M21.5,11.2v4.9c0,0.2-0.2,0.4-0.4,0.4h-3.8c-0.2,0-0.4-0.2-0.4-0.4v-4.9c0-0.2,0.2-0.4,0.4-0.4h3.8
									C21.3,10.8,21.5,11,21.5,11.2z"/>
							</g>
						</g>
						<g>
							<g>
								<path fill="#5A5F63" d="M17,11.2v4.6c-0.1,0-0.3-0.1-0.4-0.2c-0.1-0.1-0.2-0.2-0.2-0.4v-3.5C16.4,11.4,16.7,11.2,17,11.2z"
									/>
							</g>
						</g>
						<g>
							<g>
								<g>
									<path fill="#5A5F63" d="M21.5,11.3v1.3h-2.4c-1.8,0-0.9-1.3,0-1.3H21.5z"/>
								</g>
							</g>
							<g>
								<g>
									<path fill="#5A5F63" d="M18.8,14.7c-1,0-1.1,1.3,0,1.3l2.7,0l0-1.3L18.8,14.7z"/>
								</g>
							</g>
						</g>
					</g>
				</g>
			</g>
		</g>
		<g>
			<g>
				<path fill="#9A795F" d="M12.2,19.2c0,0.2-0.1,0.4-0.3,0.5c-1.4,0.6-2.5,1.7-2.7,3.6c-0.1,1.3,0,2.6,0.3,3.9c0,0,0,0.1,0,0.1
					c0,0,0,0,0,0C9.7,27.6,9.4,28,9,28L2.4,28C2.2,28,2,27.8,2,27.6c0.4-4.6,1.9-8.3,4.8-10.8c0.7-0.6,1.2-1.3,1.6-2.1
					c0.1-0.2,0.3-0.3,0.6-0.3C11.2,14.9,12.2,16.5,12.2,19.2z"/>
			</g>
		</g>
		<g>
			<path fill="#DAE5EF" d="M9.2,16.9c-0.3,0.1-0.6-0.1-0.7-0.4c-0.1-0.3,0.1-0.6,0.4-0.7c0.3-0.1,0.6,0.1,0.7,0.4
				C9.6,16.6,9.5,16.9,9.2,16.9z"/>
		</g>
	</g>
	<g>
		<path fill="#8F6D52" d="M11.9,19.6C11.9,19.6,11.9,19.6,11.9,19.6c-0.2,0-2.8,0.1-4.3,3.6c-1.2,3-3.6,4.1-5.6,3.6
			c0,0.2-0.1,0.5-0.1,0.7C2,27.8,2.2,28,2.4,28L9,28c0.4,0,0.6-0.4,0.5-0.7c0,0,0,0,0,0c0,0,0-0.1,0-0.1c-0.3-1.3-0.4-2.6-0.3-3.9
			C9.4,21.3,10.5,20.2,11.9,19.6z"/>
	</g>
	<g>
		<g>
			<path fill="#DAE5EF" d="M7.8,26.5c-0.3,0.1-0.6-0.1-0.7-0.4c-0.1-0.3,0.1-0.6,0.4-0.7c0.3-0.1,0.6,0.1,0.7,0.4
				C8.2,26.1,8.1,26.4,7.8,26.5z"/>
		</g>
		<g>
			<path fill="#DAE5EF" d="M4,26.5c-0.3,0.1-0.6-0.1-0.7-0.4c-0.1-0.3,0.1-0.6,0.4-0.7c0.3-0.1,0.6,0.1,0.7,0.4
				C4.5,26.1,4.3,26.4,4,26.5z"/>
		</g>
	</g>
</g>
</svg>
