<?xml version="1.0" encoding="utf-8"?>
<!-- Generator: Adobe Illustrator 18.0.0, SVG Export Plug-In . SVG Version: 6.00 Build 0)  -->
<!DOCTYPE svg PUBLIC "-//W3C//DTD SVG 1.1//EN" "http://www.w3.org/Graphics/SVG/1.1/DTD/svg11.dtd">
<svg version="1.1" id="Layer_1" xmlns="http://www.w3.org/2000/svg" xmlns:xlink="http://www.w3.org/1999/xlink" x="0px" y="0px"
	 viewBox="0 0 36 36" enable-background="new 0 0 36 36" xml:space="preserve">
<g>
	<g>
		<path fill="#3E4347" d="M9.5,17.4v-6.9c0-2.9,2.4-5.2,5.2-5.2S20,7.6,20,10.5v6.9h3.3v-6.9c0-4.7-3.8-8.5-8.5-8.5
			c-4.7,0-8.5,3.8-8.5,8.5v6.9H9.5z"/>
	</g>
	<g>
		<path fill="#FFD93B" d="M27.1,32c-0.3,1.2-1.4,2-2.6,2H5c-1.2,0-2.3-0.8-2.6-2c-0.6-2.4-0.5-4.8,0.2-7c-0.7-2.1-0.8-4.5-0.2-6.9
			c0.3-1.2,1.4-2,2.6-2h19.5c1.2,0,2.3,0.8,2.6,2c0.6,2.3,0.5,4.7-0.2,7v0C27.6,27.1,27.7,29.5,27.1,32z"/>
	</g>
	<g>
		<path fill="#3E4347" d="M16.5,28.4c0.1,0.4-0.2,0.8-0.6,0.8h-2.3c-0.4,0-0.7-0.4-0.6-0.8l0.7-2.7c-0.8-0.4-1.4-1.3-1.4-2.3
			c0-1.4,1.1-2.5,2.5-2.5c1.4,0,2.5,1.1,2.5,2.5c0,1-0.6,1.9-1.4,2.3L16.5,28.4z"/>
	</g>
	<g>
		<path fill="#E9B02C" d="M6.8,19.3c0,0.7-0.6,1.3-1.3,1.3c-0.7,0-1.3-0.6-1.3-1.3c0-0.7,0.6-1.3,1.3-1.3C6.3,18,6.8,18.6,6.8,19.3z
			"/>
	</g>
	<g>
		<path fill="#E9B02C" d="M25.5,19.3c0,0.7-0.6,1.3-1.3,1.3c-0.7,0-1.3-0.6-1.3-1.3c0-0.7,0.6-1.3,1.3-1.3
			C24.9,18,25.5,18.6,25.5,19.3z"/>
	</g>
	<g>
		<path fill="#E9EFF4" d="M28.7,14.2l-5.3,10.1l1.9,5.3h6.8l1.9-5.3L28.7,14.2z M28.7,26.1c-0.5,0-1-0.4-1-1c0-0.5,0.4-1,1-1
			c0.5,0,1,0.4,1,1C29.7,25.7,29.3,26.1,28.7,26.1z"/>
	</g>
	<g>
		<g>
			<rect x="24.9" y="31" fill="#D03F3F" width="7.7" height="3"/>
		</g>
	</g>
	<g>
		<path fill="#E24B4B" d="M33.6,30.3L33.6,30.3c0-0.5-0.4-1-1-1h-7.7c-0.5,0-1,0.4-1,1l0,0c0,0.5,0.4,1,1,1h7.7
			C33.1,31.3,33.6,30.9,33.6,30.3z"/>
	</g>
</g>
</svg>
