<?xml version="1.0" encoding="utf-8"?>
<!-- Generator: Adobe Illustrator 18.0.0, SVG Export Plug-In . SVG Version: 6.00 Build 0)  -->
<!DOCTYPE svg PUBLIC "-//W3C//DTD SVG 1.1//EN" "http://www.w3.org/Graphics/SVG/1.1/DTD/svg11.dtd">
<svg version="1.1" id="Layer_1" xmlns="http://www.w3.org/2000/svg" xmlns:xlink="http://www.w3.org/1999/xlink" x="0px" y="0px"
	 viewBox="0 0 36 36" enable-background="new 0 0 36 36" xml:space="preserve">
<g>
	<g>
		<g>
			<path fill="#D3D9DD" d="M34,26.2c0.1,1.9-31.9,1.9-32,0l4.2-3h23.5L34,26.2z"/>
		</g>
	</g>
	<g>
		<g>
			<path fill="#E9EFF4" d="M34,26.2v0.4c0,0.8-0.7,1.5-1.5,1.6c0,0,0,0-0.1,0H3.6c0,0,0,0-0.1,0c-0.8,0-1.5-0.7-1.5-1.6v-0.4
				c0.4,0.3,0.9,0.4,1.3,0.4h29.4C33.1,26.6,33.6,26.5,34,26.2z"/>
		</g>
	</g>
	<g>
		<g>
			<polygon fill="#DEE4E9" points="34,26.2 34,26.2 34,26.2 			"/>
		</g>
		<g>
			<g>
				<polygon fill="#3E4347" points="13.3,25.5 15.1,24.2 20.9,24.2 22.7,25.5 				"/>
			</g>
		</g>
	</g>
	<g>
		<g>
			<path fill="#3E4347" d="M29.8,8.5v14.7H6.2V8.5c0-0.4,0.3-0.7,0.7-0.7h22.2C29.5,7.9,29.8,8.2,29.8,8.5z"/>
		</g>
		<g>
			<g>
				<rect x="7.7" y="9.3" fill="#65B1EF" width="20.6" height="12.2"/>
			</g>
		</g>
	</g>
	<g>
		<polygon fill="#59A5E0" points="15.4,9.3 7.7,17 7.7,18.8 17.2,9.3 		"/>
	</g>
	<g>
		<polygon fill="#59A5E0" points="18.1,9.3 7.7,19.8 7.7,21.5 9.6,21.5 21.8,9.3 		"/>
	</g>
</g>
</svg>
