<?xml version="1.0" encoding="utf-8"?>
<!-- Generator: Adobe Illustrator 18.0.0, SVG Export Plug-In . SVG Version: 6.00 Build 0)  -->
<!DOCTYPE svg PUBLIC "-//W3C//DTD SVG 1.1//EN" "http://www.w3.org/Graphics/SVG/1.1/DTD/svg11.dtd">
<svg version="1.1" id="Layer_1" xmlns="http://www.w3.org/2000/svg" xmlns:xlink="http://www.w3.org/1999/xlink" x="0px" y="0px"
	 viewBox="0 0 36 36" enable-background="new 0 0 36 36" xml:space="preserve">
<g>
	<g>
		<path fill="#5A5F63" d="M26.8,3.7v28.5c0,1-0.8,1.7-1.7,1.7H10.9c-1,0-1.7-0.8-1.7-1.7V3.7c0-1,0.8-1.7,1.7-1.7h14.1
			C26,2,26.8,2.8,26.8,3.7z"/>
	</g>
	<g>
		<rect x="11.7" y="4.9" fill="#93979A" width="12.7" height="3.6"/>
	</g>
	<g>
		<polygon fill="#777B7E" points="24.3,4.9 24.3,5.7 12.5,5.7 12.5,8.5 11.7,8.5 11.7,4.9 		"/>
	</g>
	<g>
		<rect x="11.7" y="10.3" fill="#93979A" width="12.7" height="3.6"/>
	</g>
	<g>
		<polygon fill="#777B7E" points="24.3,10.4 24.3,11.1 12.5,11.1 12.5,14 11.7,14 11.7,10.4 		"/>
	</g>
	<g>
		<circle fill="#777B7E" cx="18" cy="24.5" r="2.7"/>
	</g>
	<g>
		<circle fill="#3E4347" cx="18" cy="24.5" r="2.1"/>
	</g>
	<g>
		
			<ellipse transform="matrix(1 5.479079e-003 -5.479079e-003 1 0.1347 -9.824557e-002)" fill="#E24B4B" cx="18" cy="24.5" rx="1.4" ry="1.4"/>
	</g>
	<g>
		<path fill="#D03F3F" d="M19.3,25.2c-0.2,0.5-0.7,0.8-1.3,0.8c-0.8,0-1.4-0.6-1.4-1.4c0-0.5,0.3-1,0.8-1.3
			c-0.1,0.2-0.2,0.4-0.2,0.6c0,0.8,0.6,1.4,1.4,1.4C18.8,25.3,19.1,25.3,19.3,25.2z"/>
	</g>
	<g>
		
			<ellipse transform="matrix(0.7071 0.7071 -0.7071 0.7071 22.3627 -6.1599)" fill="#FFFFFF" cx="18.6" cy="23.9" rx="0.3" ry="0.2"/>
	</g>
	<g>
		<circle fill="#FFD93B" cx="20.3" cy="18" r="0.6"/>
	</g>
	<g>
		<circle fill="#8CC63E" cx="22.1" cy="18" r="0.6"/>
	</g>
	<g>
		<circle fill="#E24B4B" cx="24" cy="18" r="0.6"/>
	</g>
</g>
</svg>
