<?xml version="1.0" encoding="utf-8"?>
<!-- Generator: Adobe Illustrator 18.0.0, SVG Export Plug-In . SVG Version: 6.00 Build 0)  -->
<!DOCTYPE svg PUBLIC "-//W3C//DTD SVG 1.1//EN" "http://www.w3.org/Graphics/SVG/1.1/DTD/svg11.dtd">
<svg version="1.1" id="Layer_1" xmlns="http://www.w3.org/2000/svg" xmlns:xlink="http://www.w3.org/1999/xlink" x="0px" y="0px"
	 viewBox="0 0 36 36" enable-background="new 0 0 36 36" xml:space="preserve">
<g>
	<g>
		<g>
			<g>
				<g>
					<path fill="#CBD6E0" d="M7.2,32.9l-4.1-4.1c-1.1-1.1-1.4-2.8-0.6-4.2c2-3.8,4.9-6.7,8.6-8.6c1.4-0.7,3.1-0.5,4.2,0.6l4.1,4.1
						c1.1,1.1,1.4,2.8,0.6,4.2c-2,3.8-4.9,6.7-8.6,8.6l0,0C10,34.3,8.3,34.1,7.2,32.9z M12.8,19.1c-3.2,1.6-5.6,4-7.2,7.1l4.1,4.2
						l0.1,0c3.1-1.6,5.5-4,7.1-7.1L12.8,19.1z"/>
				</g>
			</g>
		</g>
		<g>
			<g>
				<g>
					<path fill="#CBD6E0" d="M23.3,20.5c-0.9,0-1.8-0.4-2.5-1.1l-4.1-4.1c-1.1-1.1-1.4-2.8-0.6-4.2c2-3.8,4.9-6.7,8.6-8.6
						c1.4-0.7,3.1-0.5,4.2,0.6l4.1,4.1c1.1,1.1,1.4,2.8,0.6,4.2c-2,3.8-4.9,6.7-8.6,8.6l0,0C24.4,20.3,23.8,20.5,23.3,20.5z
						 M26.3,5.6c-3.2,1.6-5.6,4-7.2,7.1l4.1,4.2l0.1,0c3.1-1.6,5.5-4,7.1-7.1L26.3,5.6z"/>
				</g>
			</g>
		</g>
	</g>
	<g>
		<g>
			<g>
				<g>
					<path fill="#DAE5EF" d="M12.7,23.3c-0.7-0.7-0.7-1.8,0-2.5l8.1-8.1c0.7-0.7,1.8-0.7,2.5,0c0.7,0.7,0.7,1.8,0,2.5l-8.1,8.1
						C14.5,24,13.4,24,12.7,23.3z"/>
				</g>
			</g>
		</g>
	</g>
</g>
</svg>
