<?xml version="1.0" encoding="utf-8"?>
<!-- Generator: Adobe Illustrator 18.0.0, SVG Export Plug-In . SVG Version: 6.00 Build 0)  -->
<!DOCTYPE svg PUBLIC "-//W3C//DTD SVG 1.1//EN" "http://www.w3.org/Graphics/SVG/1.1/DTD/svg11.dtd">
<svg version="1.1" id="Layer_1" xmlns="http://www.w3.org/2000/svg" xmlns:xlink="http://www.w3.org/1999/xlink" x="0px" y="0px"
	 viewBox="0 0 36 36" enable-background="new 0 0 36 36" xml:space="preserve">
<g>
	<g>
		<g>
			<g>
				<path fill="#3E4347" d="M7.5,17.7L7.5,17.7c0,2,1.6,3.7,3.5,3.7h14.1c2,0,3.5-1.6,3.5-3.7l0,0c0-2-1.6-3.7-3.5-3.7H11.1
					C9.1,14,7.5,15.7,7.5,17.7z"/>
			</g>
		</g>
		<g>
			<g>
				<path fill="#E9EFF4" d="M29.1,20.5l-0.6-2.1c-1-0.2-2-0.3-2.9-0.2c-0.1,0-0.2,0.1-0.2,0.2l-0.1,0.3l-0.1-0.5
					c0-0.1-0.1-0.2-0.2-0.2c-0.9-0.1-1.8-0.2-2.7-0.2l-0.3,0c-0.1,0-0.2,0.1-0.2,0.2v0.3l-0.2-0.3c0,0-0.1-0.1-0.2-0.1
					c-1.1-0.1-2.1-0.1-3.1,0c-0.1,0-0.2,0.1-0.2,0.3l0,0l-0.2-0.2c0,0-0.1-0.1-0.1-0.1c-0.9-0.2-1.9-0.2-2.9,0c-0.1,0-0.1,0-0.1,0.1
					l-0.2,0.2L14.3,18c0-0.1-2,0-3.3,0.4l-0.3,0.1l-0.2-0.1c-0.9-0.1-1.9,0.1-3,0.4l-0.8,2l21.3,0.5L29.1,20.5z"/>
			</g>
		</g>
		<g>
			<g>
				<path fill="#D3D9DD" d="M10.7,20.3c0,0.1,0,0.1,0,0.1S10.6,20.4,10.7,20.3z"/>
			</g>
			<g>
				<path fill="#D3D9DD" d="M25.4,20.6C25.4,20.7,25.4,20.7,25.4,20.6C25.4,20.7,25.4,20.7,25.4,20.6z"/>
			</g>
			<g>
				<g>
					<path fill="#D3D9DD" d="M28.5,18.4c-1-0.2-2-0.3-2.9-0.2c-0.1,0-0.2,0.1-0.2,0.2l-0.1,0.3l-0.1-0.5c0-0.1-0.1-0.2-0.2-0.2
						c-0.9-0.1-1.8-0.2-2.7-0.2l-0.3,0c-0.1,0-0.1,0.1-0.1,0.1v0.4l-0.2-0.3c0,0-0.1-0.1-0.2-0.1c-1.1-0.1-2.1-0.1-3.1,0
						c-0.1,0-0.2,0.1-0.2,0.3l0,0l-0.2-0.2c0,0-0.1-0.1-0.1-0.1c-0.9-0.2-1.9-0.2-2.9,0c-0.1,0-0.1,0-0.1,0.1l-0.2,0.2L14.3,18
						c0-0.1-2,0-3.3,0.4l-0.3,0.1l-0.2-0.1c-0.9-0.1-1.9,0.1-3,0.4l-0.6,1.6c0.1,0,0.1,0,0.2,0c1.8-0.1,0.1-0.9,0.4-1.2
						c0.3-0.3,2.6-0.7,3-0.6c0.3,0.1,0.2,1.2,0.2,1.6c0-0.3,0.1-1,0.2-1.3c0.1-0.3,2.5-1,3.1-0.8c0.7,0.2,0.5,2.5,0.6,2
						c0.1-0.5,0.3-1.4,0.6-1.7c0.2-0.3,2.3-0.4,2.6-0.1c0.3,0.3,0.5,2.3,0.5,2.2c0-0.1,0-2,0.3-2.3c0.3-0.3,2.8-0.2,3,0
						c0.2,0.2,0.3,2,0.3,2s0.1-1.4,0.3-2c0.2-0.5,2.3-0.5,2.8-0.2c0.4,0.2,0.5,2,0.5,2.5c0-0.2,0-0.8,0.1-1.5
						c0.2-0.9,1.8-0.7,2.6-0.5c0.3,0.1,0.6,0.5,0.8,0.9L28.5,18.4z"/>
				</g>
			</g>
		</g>
		<g>
			<g>
				<path fill="#E9EFF4" d="M27.1,17L27,17.8l-1.6-0.3c-0.1,0-0.1,0-0.2-0.1L24.5,17l-0.2,0.5c-0.1,0.1-0.2,0.2-0.3,0.2
					c-1.8,0.2-3.5,0.3-5,0.1c-0.2,0-0.3-0.2-0.4-0.4l0-0.5c0-0.1-0.1-0.1-0.1-0.1c-0.1,0-0.1,0-0.1,0.1c0,0.2-0.1,0.8-0.4,0.8
					c-0.3,0.1-4.3,0-5.2,0c-0.1,0-0.2-0.1-0.3-0.2l-0.3-0.4l-0.5,0.6c-0.1,0.1-0.2,0.1-0.3,0.1l-3,0.4v-2.1c0,0,9.2-3.1,9.3-3.2
					c0.1-0.1,8.4,0.8,8.5,0.9C26.2,13.9,27.1,17,27.1,17z"/>
			</g>
		</g>
		<g>
			<g>
				<path fill="#DEE4E9" d="M24.3,15.9c0-0.1,0-0.1,0-0.1S24.3,15.8,24.3,15.9z"/>
			</g>
			<g>
				<path fill="#DEE4E9" d="M18.6,15.1C18.6,15.1,18.6,15.1,18.6,15.1C18.6,15,18.6,14.9,18.6,15.1z"/>
			</g>
			<g>
				<g>
					<path fill="#D3D9DD" d="M27.1,17.3c-0.3,0-0.8,0-1.3-0.2c-0.9-0.3-1.3-1-1.4-1.2c0.1,0.2,0.2,0.8-0.4,1.3
						c-0.8,0.6-3.5,0.9-4.5,0.3c-0.9-0.6-1-1.7-0.9-2.3c-0.1,0.4-0.4,1.3-0.6,1.7c-0.3,0.7-1.5,1-3,0.6c-1.5-0.3-2.2-0.2-2.4-0.9
						c-0.2-0.8-0.2-1.6-0.2-1.6s-0.6,2.3-1.1,2.6c-0.5,0.3-2.2,1-2.8,0c0,0,0,0,0,0v0.7l3-0.4c0.1,0,0.2-0.1,0.3-0.1l0.5-0.6
						l0.3,0.4c0.1,0.1,0.2,0.2,0.3,0.2c0.9,0,4.9,0.2,5.2,0c0.3-0.1,0.4-0.6,0.4-0.8c0-0.1,0.1-0.1,0.1-0.1c0.1,0,0.1,0,0.1,0.1
						l0,0.5c0,0.2,0.2,0.3,0.4,0.4c1.5,0.2,3.3,0,5-0.1c0.1,0,0.3-0.1,0.3-0.2l0.2-0.5l0.7,0.5c0.1,0,0.1,0.1,0.2,0.1l1.6,0.3
						L27.1,17.3z"/>
				</g>
			</g>
		</g>
		<g>
			<g>
				<g>
					<path fill="#D03F3F" d="M34,20.7c-0.4-1.1-0.8-3.2-2.7-5.8c-2.3-3.2-6.9-6.2-8.7-6.4C20.7,8.3,19.6,9,19,9.3
						c-0.6,0.3-1.3,0.2-1.3,0.2c-2.3-0.5-2.2-2.2-5.6-0.8c-4.2,1.6-7.8,6.2-8.5,8.3c-0.5,1.4-1.1,2.8-1.5,3.5
						c-0.2,0.4-0.1,0.8,0.2,1.1c0.2,0.2,0.5,0.5,0.9,0.9c1.3,1.3,4.6,5.3,14,5.3c9.4,0,14.1-3.7,14.8-4.6c0.4-0.6,1.1-1.1,1.6-1.5
						C34,21.5,34.1,21.1,34,20.7z M19.9,20c0,0-1.3,0.6-2.9,0.2c-1.6-0.4-5.9-0.9-9.7-0.3c0,0,0.7-1.1,2.3-2.2
						c1.6-1.1,3.4-2.2,4.1-2.3c1.7-0.2,2.7,0.3,4.1,0.5c0.3,0,0.6,0,0.9-0.1c0.3-0.1,0.8-0.3,1.6-0.4c1.3-0.1,5.4,0.2,8.4,4.5
						C28.7,19.9,23.3,19.3,19.9,20z"/>
				</g>
			</g>
			<g>
				<g>
					<path fill="#E24B4B" d="M28.1,20.2c0.2,0,1.6,0.2,2.4,0.7s1.7,0.5,2.3,0.5c0.6,0.1-4.4,5.8-14.7,5.7C7.7,27,3.6,21.7,3.6,21.7
						s2.1-1.4,3.8-1.4c1.7,0,3.1-0.3,4.3-0.3c1.4,0,4.7,0.7,6.4,0.8c1.7,0.1,3.4-0.7,5.7-0.8C26.1,19.9,28.1,20.2,28.1,20.2z"/>
				</g>
			</g>
			<g>
				<g>
					<path fill="#E24B4B" d="M33.1,20.2c0,0.3-0.1,0.3-0.4,0.3c-1,0-1.9-0.3-2.8-0.7c-0.5-0.3-1-0.6-1.4-1c-0.5-0.5-0.9-1-1.4-1.5
						c-1.9-2-4.8-3.3-7.5-2.6c-0.4,0.1-0.8,0.3-1.3,0.3c-0.9,0-1.6-0.5-2.5-0.6c-1.3-0.2-2.6,0.4-3.8,1.1c-1.3,0.7-2.7,1.5-3.7,2.6
						c-0.4,0.4-0.8,0.9-1.2,1.2c-0.5,0.4-1,0.5-4,1.4c-0.1,0-0.2,0-0.2,0c-0.1-0.1-0.1-0.2-0.1-0.4C4,15.1,8.1,10.5,13.2,9
						c0.6-0.2,1.3-0.3,1.9,0c0.4,0.2,0.6,0.6,1,0.9c0.6,0.6,1.5,0.9,2.3,0.7c1.3-0.3,2.1-1.9,4.8-1.4c0.6,0.1,1.2,0.5,1.7,0.9
						c2.4,1.8,4.5,3.8,6.5,6c0.5,0.6,1,1.2,1.4,1.9c0.2,0.5,0.4,1,0.4,1.5C33.2,19.7,33.2,20,33.1,20.2z"/>
				</g>
			</g>
		</g>
	</g>
	<g opacity="0.2">
		<g>
			<path fill="#FFFFFF" d="M17.4,13.6c0-0.1,0-0.2,0-0.2C17.5,13.5,17.5,13.6,17.4,13.6z"/>
		</g>
		<g>
			<path fill="#FFFFFF" d="M17.8,13.6c0-0.1,0-0.2,0-0.2C17.8,13.4,17.8,13.5,17.8,13.6z"/>
		</g>
	</g>
	<g>
		<g opacity="8.000000e-002">
			<path fill="#FFFFFF" d="M29.3,21.8c0.2,0,0.4,0.1,0.4,0.5c0,0.4-0.2,0.7-0.4,1c-0.2,0.3-0.5,0.4-0.8,0.6
				c-1.5,0.9-3.1,1.6-4.7,1.9c-0.2,0-0.4,0.1-0.7,0c-0.2-0.1-0.4-0.2-0.5-0.5c-0.1-0.2,0-0.5,0.1-0.7c0.5-1.2,1.9-1.6,2.8-1.9
				C26.8,22.2,28,21.8,29.3,21.8z"/>
		</g>
		<g opacity="8.000000e-002">
			<path fill="#FFFFFF" d="M9.7,20.9c0.5,0,1,0,1.5,0c2.5,0.2,4.8,1.6,6.1,3.7c0.3,0.6,0.2,1-0.3,1.3c-0.3,0.2-0.7,0.3-1,0.3
				c-0.8,0.1-1.5,0-2.3-0.1c-0.5-0.1-0.9-0.2-1.4-0.4c-0.3-0.1-0.7-0.2-1-0.3c-1.9-0.6-3.8-1.2-5.2-2.6c-0.2-0.2-0.4-0.5-0.5-0.8
				c-0.1-0.8,0.6-1.1,1.2-1.1C7.8,20.9,8.8,20.9,9.7,20.9z"/>
		</g>
		<g opacity="8.000000e-002">
			<path fill="#FFFFFF" d="M16.4,10.2c-0.1-0.1-0.2-0.1-0.3-0.2c-0.3-0.3-0.6-0.7-1-0.9c-0.6-0.3-1.2-0.2-1.9,0
				c-2.8,0.8-5.3,2.6-7.1,4.8c1.8-1.6,4.1-2.7,6.4-3.1c0.3,0,0.5-0.1,0.8-0.1c0.7,0,1.3,0.2,2,0.2c0.2,0,0.5,0,0.7-0.1
				C16.1,10.5,16.3,10.3,16.4,10.2z"/>
		</g>
		<g opacity="8.000000e-002">
			<path fill="#FFFFFF" d="M24.9,10.1c-0.5-0.4-1.1-0.8-1.7-0.9c-2.1-0.4-3.1,0.5-4,1.1c0,0.1,0,0.2,0,0.3c0.1,0.4,0.6,0.6,1.1,0.6
				c1.1,0,2.3-0.7,3.4-0.4c0.3,0.1,0.6,0.2,0.9,0.3c1.2,0.6,2.4,1.1,3.6,1.7C27.1,11.8,26,10.9,24.9,10.1z"/>
		</g>
	</g>
</g>
</svg>
