<?xml version="1.0" encoding="utf-8"?>
<!-- Generator: Adobe Illustrator 18.0.0, SVG Export Plug-In . SVG Version: 6.00 Build 0)  -->
<!DOCTYPE svg PUBLIC "-//W3C//DTD SVG 1.1//EN" "http://www.w3.org/Graphics/SVG/1.1/DTD/svg11.dtd">
<svg version="1.1" id="Layer_1" xmlns="http://www.w3.org/2000/svg" xmlns:xlink="http://www.w3.org/1999/xlink" x="0px" y="0px"
	 viewBox="0 0 36 36" enable-background="new 0 0 36 36" xml:space="preserve">
<g>
	<g>
		<g>
			<g>
				<g>
					<path fill="#D3D9DD" d="M27.9,22.2l-6,6l-0.3-0.7c-0.7-1.8-1.8-3.4-3.2-4.7L13.6,18c-3.4-3.3-4.4-2.7-6.8-3.7l6.1-6.5L14.7,6
						c1,2.5,1.3,6.3,3.6,8.6l4.1,4.1c1.4,1.4,3,2.4,4.7,3.2L27.9,22.2z"/>
				</g>
			</g>
			<g>
				<g>
					<path fill="#DEE4E9" d="M13.3,11.5c-2,2.8-5,4.2-7.8,2.1C4,12.6,2.8,10.7,2.4,8.8C2.3,8.3,2.9,7.9,3.3,8.2l3.5,2.5
						c0.3,0.2,0.8,0.2,1.1,0C9,9.8,9.7,8.6,10.3,7.2c0.2-0.4,0-0.8-0.3-1.1L6,3.3C5.6,3,5.8,2.3,6.3,2.2c2.2-0.5,4.8-0.1,6.5,1.2
						C15.6,5.4,15.3,8.7,13.3,11.5z"/>
				</g>
			</g>
		</g>
		<g>
			<g>
				<path fill="#DEE4E9" d="M31.8,23.7c-2.4-2.4-6.2-2.4-8.5,0c-2.4,2.4-2.4,6.2,0,8.5c2.4,2.4,6.2,2.4,8.5,0
					C34.2,29.9,34.2,26.1,31.8,23.7z M28.4,31.2c-0.3,0.1-0.6-0.3-0.9-0.3c-0.3,0-0.6,0.4-0.9,0.3c-0.3-0.1-0.4-0.5-0.6-0.7
					c-0.2-0.1-0.7,0-0.9-0.2c-0.2-0.2,0-0.7-0.2-0.9c-0.1-0.2-0.6-0.3-0.7-0.6c-0.1-0.3,0.3-0.6,0.3-0.9c0-0.3-0.4-0.6-0.3-0.9
					c0.1-0.3,0.5-0.4,0.7-0.6c0.1-0.2,0-0.7,0.2-0.9c0.2-0.2,0.7,0,0.9-0.2c0.2-0.1,0.3-0.6,0.6-0.7c0.3-0.1,0.6,0.3,0.9,0.3
					c0.3,0,0.6-0.4,0.9-0.3c0.3,0.1,0.4,0.5,0.6,0.7c0.2,0.1,0.7,0,0.9,0.2s0,0.7,0.2,0.9c0.1,0.2,0.6,0.3,0.7,0.6
					c0.1,0.3-0.3,0.6-0.3,0.9c0,0.3,0.4,0.6,0.3,0.9c-0.1,0.3-0.5,0.4-0.7,0.6c-0.1,0.2,0,0.7-0.2,0.9c-0.2,0.2-0.7,0-0.9,0.2
					C28.8,30.6,28.7,31.1,28.4,31.2z"/>
			</g>
		</g>
		<g>
			<path fill="#D3D9DD" d="M30.6,24.9c-1.7-1.7-4.4-1.7-6.1,0c-1.7,1.7-1.7,4.4,0,6.1c1.7,1.7,4.4,1.7,6.1,0
				C32.3,29.3,32.3,26.6,30.6,24.9z M28.4,31.2c-0.3,0.1-0.6-0.3-0.9-0.3c-0.3,0-0.6,0.4-0.9,0.3c-0.3-0.1-0.4-0.5-0.6-0.7
				c-0.2-0.1-0.7,0-0.9-0.2c-0.2-0.2,0-0.7-0.2-0.9c-0.1-0.2-0.6-0.3-0.7-0.6c-0.1-0.3,0.3-0.6,0.3-0.9c0-0.3-0.4-0.6-0.3-0.9
				c0.1-0.3,0.5-0.4,0.7-0.6c0.1-0.2,0-0.7,0.2-0.9c0.2-0.2,0.7,0,0.9-0.2c0.2-0.1,0.3-0.6,0.6-0.7c0.3-0.1,0.6,0.3,0.9,0.3
				c0.3,0,0.6-0.4,0.9-0.3c0.3,0.1,0.4,0.5,0.6,0.7c0.2,0.1,0.7,0,0.9,0.2s0,0.7,0.2,0.9c0.1,0.2,0.6,0.3,0.7,0.6
				c0.1,0.3-0.3,0.6-0.3,0.9c0,0.3,0.4,0.6,0.3,0.9c-0.1,0.3-0.5,0.4-0.7,0.6c-0.1,0.2,0,0.7-0.2,0.9c-0.2,0.2-0.7,0-0.9,0.2
				C28.8,30.6,28.7,31.1,28.4,31.2z"/>
		</g>
	</g>
	<g>
		<g>
			<path fill="#E84D88" d="M21.1,21.5c-0.2,0.2-0.5,0.3-0.8,0.3c-0.3,0-0.6-0.1-0.8-0.3l-4.9-4.9c-0.5-0.5-0.5-1.2,0-1.6
				c0.2-0.2,0.5-0.3,0.8-0.3c0.3,0,0.6,0.1,0.8,0.3l4.9,4.9C21.5,20.3,21.5,21,21.1,21.5z"/>
		</g>
	</g>
	<g>
		<g>
			<path fill="#D23F77" d="M21.1,21.5C21.1,21.5,21.1,21.4,21.1,21.5l-5-5c-0.2-0.2-0.5-0.3-0.8-0.3c-0.3,0-0.6,0.1-0.8,0.3
				c0,0,0,0,0,0c-0.4-0.5-0.4-1.2,0-1.6c0.2-0.2,0.5-0.3,0.8-0.3c0.3,0,0.6,0.1,0.8,0.3l4.9,4.9C21.5,20.3,21.5,21,21.1,21.5z"/>
		</g>
	</g>
</g>
</svg>
