<?xml version="1.0" encoding="utf-8"?>
<!-- Generator: Adobe Illustrator 18.0.0, SVG Export Plug-In . SVG Version: 6.00 Build 0)  -->
<!DOCTYPE svg PUBLIC "-//W3C//DTD SVG 1.1//EN" "http://www.w3.org/Graphics/SVG/1.1/DTD/svg11.dtd">
<svg version="1.1" id="Layer_1" xmlns="http://www.w3.org/2000/svg" xmlns:xlink="http://www.w3.org/1999/xlink" x="0px" y="0px"
	 viewBox="0 0 36 36" enable-background="new 0 0 36 36" xml:space="preserve">
<g>
	<g>
		<g>
			<g>
				<path fill="#BBC7D1" d="M27.5,17.2L10.8,33.8c-0.3,0.3-0.8,0.2-1.1-0.1l-7.4-7.4C2,26,1.9,25.5,2.2,25.2L18.8,8.6L27.5,17.2z"/>
			</g>
		</g>
		<g>
			<g>
				<g>
					<g>
						
							<rect x="17.4" y="7.1" transform="matrix(0.7071 -0.7071 0.7071 0.7071 -3.057 19.8059)" fill="#DEE4E9" width="10" height="13"/>
					</g>
				</g>
			</g>
			<g>
				<g>
					<path fill="#E9EFF4" d="M21.9,6l-7.1,7.1L11,9.3c-0.4-0.4-0.4-0.9,0-1.2l5.8-5.8c0.4-0.4,0.9-0.4,1.3,0L21.9,6z"/>
				</g>
			</g>
			<g>
				<g>
					<path fill="#D3D9DD" d="M33.7,19.1L27.9,25c-0.3,0.3-0.9,0.3-1.2,0l-3.8-3.8l7.1-7.1l3.8,3.8C34.1,18.2,34.1,18.8,33.7,19.1z"
						/>
				</g>
			</g>
		</g>
	</g>
	<g>
		<g>
			<path fill="#CBD6E0" d="M2.8,24.6c-1.4-0.8,0.7-2.4,1.8-1.8c0,0,8.1,7.2,10.9,6.3c0,0,1.2,0.8-1.4,1.4C11.8,31,2.8,24.6,2.8,24.6
				z"/>
		</g>
	</g>
	<g>
		<g>
			<path fill="#CBD6E0" d="M5.7,21.7c-1.4-0.8,0.7-2.4,1.8-1.8c0,0,8.1,7.2,10.9,6.3c0,0,1.2,0.8-1.4,1.4
				C14.7,28.1,5.7,21.7,5.7,21.7z"/>
		</g>
	</g>
	<g>
		<g>
			<path fill="#CBD6E0" d="M8.5,18.8C7.1,18,9.3,16.5,10.3,17c0,0,8.1,7.2,10.9,6.3c0,0,1.2,0.8-1.4,1.4
				C17.6,25.2,8.5,18.8,8.5,18.8z"/>
		</g>
	</g>
</g>
</svg>
