<?xml version="1.0" encoding="utf-8"?>
<!-- Generator: Adobe Illustrator 18.0.0, SVG Export Plug-In . SVG Version: 6.00 Build 0)  -->
<!DOCTYPE svg PUBLIC "-//W3C//DTD SVG 1.1//EN" "http://www.w3.org/Graphics/SVG/1.1/DTD/svg11.dtd">
<svg version="1.1" id="Layer_1" xmlns="http://www.w3.org/2000/svg" xmlns:xlink="http://www.w3.org/1999/xlink" x="0px" y="0px"
	 viewBox="0 0 36 36" enable-background="new 0 0 36 36" xml:space="preserve">
<g>
	<g>
		<rect x="20.5" y="17" fill="#CBD6E0" width="3.3" height="15.8"/>
	</g>
	<g>
		<path fill="#38C0DC" d="M22.2,26.9C9,26.9,8.5,20.5,8.5,14.5C8.5,8.4,9,2,22.2,2c1.4,0,2.5,1.1,2.5,2.5v6.2h-5V7.1
			c-4.7,0.6-4.9,3-4.9,7.3c0,5,0.3,7.4,7.4,7.4V26.9z"/>
	</g>
	<g>
		<g>
			<path fill="#45CBEA" d="M12.8,18c0.1,0.6-0.4,1.2-1,1.2h0c-0.5,0-0.9-0.4-1-0.9c-0.2-1.7-0.2-6.1,0-7.8c0.1-0.5,0.5-0.9,1-0.9
				l0,0c0.6,0,1.1,0.6,1,1.2C12.5,12.6,12.5,16.3,12.8,18z"/>
		</g>
	</g>
	<g>
		<path fill="#45CBEA" d="M26.2,10.4c0,0.7-0.6,1.3-1.3,1.3h-5.4c-0.7,0-1.3-0.6-1.3-1.3c0-0.7,0.6-1.3,1.3-1.3h5.4
			C25.6,9.2,26.2,9.7,26.2,10.4z"/>
	</g>
	<g>
		<path fill="#DAE5EF" d="M26.2,16.1c0,0.7-0.6,1.3-1.3,1.3h-5.4c-0.7,0-1.3-0.6-1.3-1.3c0-0.7,0.6-1.3,1.3-1.3h5.4
			C25.6,14.8,26.2,15.4,26.2,16.1z"/>
	</g>
	<g>
		<path fill="#45CBEA" d="M25.6,20.2v6.9c0,0.6-0.5,1-1,1h-4.9c-0.6,0-1-0.4-1-1v-6.9c0-0.6,0.4-1,1-1h4.9
			C25.2,19.2,25.6,19.7,25.6,20.2z"/>
	</g>
	<g>
		<path fill="#DAE5EF" d="M27.5,32.6c0,1.2-1.3,1.7-2.1,1.3c-0.8-0.4-1.7-0.7-2.6-0.7h-1.1c-0.9,0-1.8,0.3-2.6,0.7
			c-0.9,0.5-2.1-0.1-2.1-1.3c0-1.2,1.3-1.7,2.1-1.3c0.8,0.4,1.7,0.7,2.6,0.7h1.2c0.9,0,1.8-0.3,2.6-0.7
			C26.2,30.8,27.5,31.4,27.5,32.6z"/>
	</g>
</g>
</svg>
