<?xml version="1.0" encoding="utf-8"?>
<!-- Generator: Adobe Illustrator 18.0.0, SVG Export Plug-In . SVG Version: 6.00 Build 0)  -->
<!DOCTYPE svg PUBLIC "-//W3C//DTD SVG 1.1//EN" "http://www.w3.org/Graphics/SVG/1.1/DTD/svg11.dtd">
<svg version="1.1" id="Layer_1" xmlns="http://www.w3.org/2000/svg" xmlns:xlink="http://www.w3.org/1999/xlink" x="0px" y="0px"
	 viewBox="0 0 36 36" enable-background="new 0 0 36 36" xml:space="preserve">
<g>
	<g>
		
			<rect x="5.7" y="25.7" transform="matrix(-0.7071 0.7071 -0.7071 -0.7071 33.9531 39.8494)" fill="#BBC7D1" width="6.1" height="2.5"/>
	</g>
	<g>
		<polygon fill="#ACB9C1" points="32.9,3.4 25.9,10.4 25.3,9.8 32.8,2.3 		"/>
	</g>
	<g>
		<path fill="#BBC7D1" d="M27.4,11.7l-0.7,0.7L23.3,9L24,8.3c0.2-0.2,0.6-0.2,0.9,0l2.5,2.5C27.6,11,27.6,11.4,27.4,11.7z"/>
	</g>
	<g>
		<g>
			<path fill="#D3D9DD" d="M27.3,14.5L14.7,27.1L8.6,21L21.2,8.4c0.4-0.4,1.1-0.4,1.5,0l4.6,4.6C27.7,13.4,27.7,14.1,27.3,14.5z"/>
		</g>
		<g>
			<path fill="#BBC7D1" d="M27.3,14.5c0.4-0.4,0.4-1.1,0-1.5c0,0-11.2,9.5-18.7,8l6.1,6.1L27.3,14.5z"/>
		</g>
		<g>
			<g>
				<polygon fill="#E84D88" points="17.4,14.4 10.9,21 14.7,24.8 23.6,15.9 				"/>
			</g>
		</g>
	</g>
	<g>
		<g>
			<path fill="#DEE4E9" d="M15.2,28.8c-0.4,0.4-1.1,0.4-1.5,0l-6.9-6.9c-0.4-0.4-0.4-1.1,0-1.5c0.4-0.4,1.1-0.4,1.5,0l6.9,6.9
				C15.6,27.8,15.6,28.4,15.2,28.8z"/>
		</g>
	</g>
	<g>
		<path fill="#DEE4E9" d="M10.8,33.3L10.8,33.3c-0.5,0.5-1.3,0.5-1.8,0l-6.6-6.6c-0.5-0.5-0.5-1.3,0-1.8l0,0c0.5-0.5,1.3-0.5,1.8,0
			l6.6,6.6C11.3,32,11.3,32.8,10.8,33.3z"/>
	</g>
	<g>
		<path fill="#E84D88" d="M34,7c-0.1,0.6-0.6,1.1-1.2,1c-0.4-0.1-0.7-0.5-0.8-1c-0.1-0.7,0.3-1.5,0.9-3.7C33.6,5.2,34.1,6.2,34,7z"
			/>
	</g>
	<g>
		<path fill="#D23F77" d="M14.7,24.8l8.9-8.9l-0.2,0c-3.3,2.2-8.1,4.9-12.4,5.2L14.7,24.8z"/>
	</g>
	<g>
		<path fill="#FFFFFF" d="M33.6,7.3c-0.1,0.2-0.3,0.4-0.4,0.3c-0.1-0.1-0.2-0.3,0-0.5c0.1-0.2,0.3-0.3,0.4-0.3
			C33.7,6.8,33.7,7,33.6,7.3z"/>
	</g>
</g>
</svg>
