<?xml version="1.0" encoding="utf-8"?>
<!-- Generator: Adobe Illustrator 18.0.0, SVG Export Plug-In . SVG Version: 6.00 Build 0)  -->
<!DOCTYPE svg PUBLIC "-//W3C//DTD SVG 1.1//EN" "http://www.w3.org/Graphics/SVG/1.1/DTD/svg11.dtd">
<svg version="1.1" id="Layer_1" xmlns="http://www.w3.org/2000/svg" xmlns:xlink="http://www.w3.org/1999/xlink" x="0px" y="0px"
	 viewBox="0 0 36 36" enable-background="new 0 0 36 36" xml:space="preserve">
<g>
	<g>
		<path fill="#3E4347" d="M34,8.5v23c0,1.4-1.1,2.5-2.5,2.5h-27C3.1,34,2,32.9,2,31.5v-27C2,3.1,3.1,2,4.5,2h23L34,8.5z"/>
	</g>
	<g>
		<rect x="6.8" y="2" fill="#DAE5EF" width="18.4" height="7"/>
	</g>
	<g>
		<g>
			<rect x="9.4" y="3.6" fill="#3E4347" width="2.2" height="3.7"/>
		</g>
	</g>
	<g>
		<path fill="#5A5F63" d="M26.6,21.9c0,4.8-3.9,8.6-8.6,8.6s-8.6-3.9-8.6-8.6c0-4.8,3.9-8.6,8.6-8.6S26.6,17.2,26.6,21.9z"/>
	</g>
	<g>
		<path fill="#E9EFF4" d="M23.1,27.1c-2.8,2.8-7.4,2.8-10.2,0c-2.8-2.8-2.8-7.4,0-10.2c2.8-2.8,7.4-2.8,10.2,0
			C25.9,19.7,25.9,24.2,23.1,27.1z"/>
	</g>
	<g>
		<circle fill="#3E4347" cx="18" cy="21.9" r="1.5"/>
	</g>
	<g>
		<g>
			<path fill="#3E4347" d="M22.1,19.4l-0.9,0.9c-0.1,0.1-0.3,0.1-0.3,0l-1.2-1.2c-0.1-0.1-0.1-0.3,0-0.3l0.9-0.9
				c0.1-0.1,0.3-0.1,0.3,0l1.2,1.2C22.2,19.2,22.2,19.3,22.1,19.4z"/>
		</g>
	</g>
</g>
</svg>
