<?xml version="1.0" encoding="utf-8"?>
<!-- Generator: Adobe Illustrator 18.0.0, SVG Export Plug-In . SVG Version: 6.00 Build 0)  -->
<!DOCTYPE svg PUBLIC "-//W3C//DTD SVG 1.1//EN" "http://www.w3.org/Graphics/SVG/1.1/DTD/svg11.dtd">
<svg version="1.1" id="Layer_1" xmlns="http://www.w3.org/2000/svg" xmlns:xlink="http://www.w3.org/1999/xlink" x="0px" y="0px"
	 viewBox="0 0 36 36" enable-background="new 0 0 36 36" xml:space="preserve">
<g>
	<g>
		<g>
			<path fill="#7FB239" d="M27.9,17.9v11.4h-14v2.1H8.2V18.5c0-1.5,1.2-2.7,2.7-2.7h15.1C27,15.8,27.9,16.7,27.9,17.9z"/>
		</g>
		<g>
			<path fill="#3E4347" d="M13.5,15.8h-2.6c-1.5,0-2.7,1.2-2.7,2.7v12.8h5.3V15.8z"/>
		</g>
		<g>
			<path fill="#DEE4E9" d="M27.6,33.5v-4.4H10.9c-1.5,0-2.2,1.6-2,3c0.1,0.8,0.9,1.4,1.7,1.4H27.6z"/>
		</g>
		<g>
			<path fill="#8CC63E" d="M27.4,29.8H13.5v-1.1h13.9c0.2,0,0.3,0.1,0.4,0.2c0.1,0.1,0.2,0.2,0.2,0.4C27.9,29.5,27.7,29.8,27.4,29.8
				z"/>
		</g>
		<g>
			<path fill="#8CC63E" d="M27.9,33.4c0,0.3-0.3,0.6-0.6,0.6H13v-1.1h14.4C27.7,32.9,27.9,33.1,27.9,33.4z"/>
		</g>
		<g>
			<path fill="#5A5F63" d="M10.9,29.8h2.6v-1.1h-2.6c-1.7,0-3,1.6-2.6,3.3c0.3,1.2,1.5,2,2.8,2h2.5v-1.1H11c-0.8,0-1.5-0.5-1.6-1.2
				C9.1,30.7,9.9,29.8,10.9,29.8z"/>
		</g>
	</g>
	<g>
		<g>
			<path fill="#D23F77" d="M30,11.3v11.4H16v2.1h-5.7V11.9c0-1.5,1.2-2.7,2.7-2.7H28C29.1,9.3,30,10.2,30,11.3z"/>
		</g>
		<g>
			<path fill="#8F6D52" d="M15.5,9.3h-2.6c-1.5,0-2.7,1.2-2.7,2.7v12.8h5.3V9.3z"/>
		</g>
		<g>
			<path fill="#DEE4E9" d="M29.6,26.9v-4.4H12.9c-1.5,0-2.2,1.6-2,3c0.1,0.8,0.9,1.4,1.7,1.4H29.6z"/>
		</g>
		<g>
			<path fill="#E84D88" d="M29.4,23.2H15.5v-1.1h13.9c0.2,0,0.3,0.1,0.4,0.2c0.1,0.1,0.2,0.2,0.2,0.4C30,23,29.7,23.2,29.4,23.2z"/>
		</g>
		<g>
			<path fill="#E84D88" d="M30,26.8c0,0.3-0.3,0.6-0.6,0.6H15v-1.1h14.4C29.7,26.3,30,26.5,30,26.8z"/>
		</g>
		<g>
			<path fill="#9A795F" d="M12.9,23.2h2.6v-1.1h-2.6c-1.7,0-3,1.6-2.6,3.3c0.3,1.2,1.5,2,2.8,2h2.5v-1.1h-2.5
				c-0.8,0-1.5-0.5-1.6-1.2C11.2,24.1,11.9,23.2,12.9,23.2z"/>
		</g>
	</g>
	<g>
		<g>
			<path fill="#F4C534" d="M25.8,4v11.4h-14v2.1H6V4.7C6,3.2,7.2,2,8.7,2h15.1C24.9,2,25.8,2.9,25.8,4z"/>
		</g>
		<g>
			<path fill="#3E4347" d="M11.3,2H8.7C7.2,2,6,3.2,6,4.7v12.8h5.3V2z"/>
		</g>
		<g>
			<path fill="#DEE4E9" d="M25.4,19.6v-4.4H8.7c-1.5,0-2.2,1.6-2,3c0.1,0.8,0.9,1.4,1.7,1.4H25.4z"/>
		</g>
		<g>
			<path fill="#FFD93B" d="M25.2,16H11.3v-1.1h13.9c0.2,0,0.3,0.1,0.4,0.2c0.1,0.1,0.2,0.2,0.2,0.4C25.8,15.7,25.5,16,25.2,16z"/>
		</g>
		<g>
			<path fill="#FFD93B" d="M25.8,19.6c0,0.3-0.3,0.6-0.6,0.6H10.8V19h14.4C25.5,19,25.8,19.3,25.8,19.6z"/>
		</g>
		<g>
			<path fill="#5A5F63" d="M8.7,16h2.6v-1.1H8.7c-1.7,0-3,1.6-2.6,3.3c0.3,1.2,1.5,2,2.8,2h2.5V19H8.8c-0.8,0-1.5-0.5-1.6-1.2
				C7,16.9,7.7,16,8.7,16z"/>
		</g>
	</g>
</g>
</svg>
