<?xml version="1.0" encoding="utf-8"?>
<!-- Generator: Adobe Illustrator 18.0.0, SVG Export Plug-In . SVG Version: 6.00 Build 0)  -->
<!DOCTYPE svg PUBLIC "-//W3C//DTD SVG 1.1//EN" "http://www.w3.org/Graphics/SVG/1.1/DTD/svg11.dtd">
<svg version="1.1" id="Layer_1" xmlns="http://www.w3.org/2000/svg" xmlns:xlink="http://www.w3.org/1999/xlink" x="0px" y="0px"
	 viewBox="0 0 36 36" enable-background="new 0 0 36 36" xml:space="preserve">
<g>
	<g>
		<g>
			<g>
				<path fill="#7FB239" d="M28.2,3.3L28.2,3.3c1.4,0.9,2.4,2.3,2.7,4l3.1,14c-1.3,1.2-2.9,0.9-3.6,1.4L26,10.1l-1.7-2.3L28.2,3.3z"
					/>
			</g>
		</g>
		<g>
			<g>
				<path fill="#7FB239" d="M7.8,3.3L7.8,3.3c-1.4,0.9-2.4,2.3-2.7,4L2,21.3c0.8,0.1,1.9,1.2,3.6,1.4L10,10.1l1.7-2.3L7.8,3.3z"/>
			</g>
		</g>
	</g>
	<g>
		<g>
			<g>
				<path fill="#8CC63E" d="M31.6,31.8c-9.3,3-18.3,2.9-27.2,0c0,0,0.9-3.6,2.4-6.3c3.9-6.8,2.9-15.4,2.9-15.4
					C10,7.3,7.8,3.3,7.8,3.3L13.4,2c0,2.5,2,4.6,4.6,4.6c2.5,0,4.6-2,4.6-4.6l5.6,1.3c0,0-2.2,4-1.9,6.8c0,0-1.1,8.6,2.9,15.4
					C30.7,28.2,31.6,31.8,31.6,31.8z"/>
			</g>
		</g>
	</g>
	<g>
		<g>
			<path fill="#7FB239" d="M22.6,2c0,2.5-2.1,4.6-4.6,4.6c-2.5,0-4.6-2-4.6-4.6C16.5,3.5,19.5,3.5,22.6,2z"/>
		</g>
	</g>
</g>
</svg>
