<?xml version="1.0" encoding="utf-8"?>
<!-- Generator: Adobe Illustrator 18.0.0, SVG Export Plug-In . SVG Version: 6.00 Build 0)  -->
<!DOCTYPE svg PUBLIC "-//W3C//DTD SVG 1.1//EN" "http://www.w3.org/Graphics/SVG/1.1/DTD/svg11.dtd">
<svg version="1.1" id="Layer_1" xmlns="http://www.w3.org/2000/svg" xmlns:xlink="http://www.w3.org/1999/xlink" x="0px" y="0px"
	 viewBox="0 0 36 36" enable-background="new 0 0 36 36" xml:space="preserve">
<g>
	<g>
		<g>
			<g>
				<g>
					<rect x="10.9" y="26.8" fill="#DEE4E9" width="20.1" height="6"/>
				</g>
			</g>
			<g>
				<g>
					<path fill="#E9EFF4" d="M30.9,32.8h-1.2c0,0-0.1-0.1-0.1-0.1c-0.1-0.2,0.1-0.4,0.1-0.5c0-0.4-0.4-0.6-0.4-1
						c0-0.2,0.1-0.3,0.1-0.5c0.1-0.2,0.1-0.4,0-0.5c-0.1-0.2-0.4-0.2-0.7-0.2c-0.2,0-0.8-0.1-0.6-0.3c0.3-0.2,0.7,0.1,0.8-0.2
						c0-0.1,0.1-0.2,0.1-0.4c0-0.3,0-0.6-0.1-0.9c0-0.2-0.1-0.4-0.2-0.6c-0.1-0.2-0.1-0.3-0.2-0.5c0-0.1-0.1-0.2-0.1-0.3H31
						L30.9,32.8C31,32.8,31,32.8,30.9,32.8z"/>
				</g>
			</g>
			<g>
				<g>
					<path fill="#F4C534" d="M11.9,26.8v6H3c-0.6,0-1-0.4-1-1v-4.1c0-0.5,0.4-1,1-1H11.9z"/>
				</g>
			</g>
			<g>
				<g>
					<rect x="10.7" y="26.8" fill="#E9B02C" width="1.1" height="6"/>
				</g>
			</g>
		</g>
		<g>
			<g>
				<path fill="#5A5F63" d="M29,27c0,0.2,0.3,0.3,0.4,0.4c0.3,0.3,0.8,1.6,0.5,2.3c-0.2,0.5-0.2,0.4,0,0.8c0.1,0.2,0.2,1.2,0.2,1.4
					c0,0.3-0.2,0.6-0.1,0.9c0.1,0.3,0.8,0.4,1.1,0.3c0.2-0.1,0.5-0.8,0.7-1c0.2-0.4,0.1-0.5-0.1-0.8c-0.6-1.3,1.1-4.6-0.9-4.7
					C30.3,26.5,28.9,26.4,29,27z"/>
			</g>
		</g>
		<g>
			<path fill="#777B7E" d="M30.8,29.3c0-0.6,0-1.3-0.1-1.9c0-0.3,0-0.6,0.1-0.9c0,0,0,0,0,0c1.9,0.1,0.3,3.4,0.9,4.7
				c0.2,0.3,0.3,0.4,0.1,0.8c-0.1,0.2-0.5,0.9-0.7,1c0,0-0.1,0-0.2,0c-0.1-0.1-0.2-0.2-0.2-0.3c0-0.2,0.2-0.4,0.3-0.7
				c0-0.2,0-0.3,0-0.5c-0.1-0.4-0.2-0.9-0.2-1.4C30.8,29.9,30.8,29.6,30.8,29.3z"/>
		</g>
	</g>
	<g>
		<g>
			<g>
				<path fill="#E9EFF4" d="M29.6,24.1c-2.9-0.5-4.2-3.8-3-7.3c0.9-2.7,4-6.4,2.9-8C29,8,27.6,7.9,27,8.8c-0.5,0.7,0,1.7,0.8,1.6
					c0.7-0.1,0.8-0.6,0.8-0.6c0,0.3-0.3,0.7-0.7,0.9c-1.1,0.5-2.4-1-1.7-2.4c1.4-3.1,7.9-1.2,4.2,5c-1.1,1.7-5.1,7.2-1.6,10.1
					C29.2,24,29.6,24.1,29.6,24.1z"/>
			</g>
		</g>
		<g>
			<g>
				<path fill="#E9EFF4" d="M30.8,23.9c-3.2-3.3-0.6-10.1,2.6-10.3c0.4,0,0.5,0.1,0.5,0.1C32.5,13.9,29.7,18,30.8,23.9z"/>
			</g>
		</g>
		<g>
			<g>
				<path fill="#E9EFF4" d="M32.3,13.1c2.5-4.1-1.1-6.3-0.7-8.8c0.2-1.2,1.1-1.4,1.1-1.4c-0.3,0.2-0.6,0.7-0.6,1.4
					c0,1.8,2.9,3.6,1.3,7.3C32.9,12.6,32.3,13.1,32.3,13.1z"/>
			</g>
		</g>
	</g>
</g>
</svg>
