<?xml version="1.0" encoding="utf-8"?>
<!-- Generator: Adobe Illustrator 18.0.0, SVG Export Plug-In . SVG Version: 6.00 Build 0)  -->
<!DOCTYPE svg PUBLIC "-//W3C//DTD SVG 1.1//EN" "http://www.w3.org/Graphics/SVG/1.1/DTD/svg11.dtd">
<svg version="1.1" id="Layer_1" xmlns="http://www.w3.org/2000/svg" xmlns:xlink="http://www.w3.org/1999/xlink" x="0px" y="0px"
	 viewBox="0 0 36 36" enable-background="new 0 0 36 36" xml:space="preserve">
<g>
	<g>
		<path fill="#5A5F63" d="M11,8.5V6.8c0-0.3-0.2-0.6-0.5-0.6c-1.4-0.3-2.8-0.3-4.2,0C6.1,6.3,5.9,6.5,5.9,6.8v1.7H11z"/>
	</g>
	<g>
		<path fill="#DAE5EF" d="M34,10.6v16.5c0,1.6-1.3,2.9-2.9,2.9H4.9C3.3,30,2,28.7,2,27.1V10.6C2,9,3.3,7.7,4.9,7.7h26.1
			C32.7,7.7,34,9,34,10.6z"/>
	</g>
	<g>
		<path fill="#5A5F63" d="M8.4,13v11.7c0,1.1-0.9,2-2,2H2V11h4.4C7.5,11,8.4,11.9,8.4,13z"/>
	</g>
	<g>
		<path fill="#5A5F63" d="M29.8,18.9c0,4.5-3.6,8.1-8.1,8.1c-4.5,0-8.1-3.6-8.1-8.1c0-4.5,3.6-8.1,8.1-8.1
			C26.1,10.7,29.8,14.4,29.8,18.9z"/>
	</g>
	<g>
		<path fill="#FFFFFF" d="M27.7,18.9c0,3.4-2.7,6.1-6.1,6.1c-3.4,0-6.1-2.7-6.1-6.1c0-3.4,2.7-6.1,6.1-6.1
			C25,12.7,27.7,15.5,27.7,18.9z"/>
	</g>
	<g>
		<path fill="#45CBEA" d="M25.7,18.9c0,2.2-1.8,4-4,4c-2.2,0-4-1.8-4-4c0-2.2,1.8-4,4-4C23.8,14.8,25.7,16.6,25.7,18.9z"/>
	</g>
	<g>
		<path fill="#38C0DC" d="M25.2,20.7c-0.7,1.3-2,2.2-3.6,2.2c-2.2,0-4-1.8-4-4c0-1.6,0.9-2.9,2.2-3.6c-0.3,0.5-0.5,1.2-0.5,1.8
			c0,2.2,1.8,4,4,4C24,21.2,24.6,21,25.2,20.7z"/>
	</g>
	<g>
		<path fill="#F29A2E" d="M11.5,11.2c0,0.5-0.4,1-1,1c-0.5,0-1-0.4-1-1c0-0.5,0.4-1,1-1C11.1,10.3,11.5,10.7,11.5,11.2z"/>
	</g>
	<g>
		<path fill="#E24B4B" d="M14.6,11.2c0,0.5-0.4,1-1,1c-0.5,0-1-0.4-1-1c0-0.5,0.4-1,1-1C14.2,10.3,14.6,10.7,14.6,11.2z"/>
	</g>
	<g>
		<circle fill="#FFFFFF" cx="24.3" cy="16.9" r="2.2"/>
	</g>
</g>
</svg>
