<?xml version="1.0" encoding="utf-8"?>
<!-- Generator: Adobe Illustrator 18.0.0, SVG Export Plug-In . SVG Version: 6.00 Build 0)  -->
<!DOCTYPE svg PUBLIC "-//W3C//DTD SVG 1.1//EN" "http://www.w3.org/Graphics/SVG/1.1/DTD/svg11.dtd">
<svg version="1.1" id="Layer_1" xmlns="http://www.w3.org/2000/svg" xmlns:xlink="http://www.w3.org/1999/xlink" x="0px" y="0px"
	 viewBox="0 0 36 36" enable-background="new 0 0 36 36" xml:space="preserve">
<g>
	<g>
		<g>
			<path fill="#D23F77" d="M33.3,17.6v12.2c0,2-1.7,3.7-3.7,3.7H6.4c-2,0-3.7-1.7-3.7-3.7V17.6H33.3z"/>
		</g>
	</g>
	<g>
		<g>
			<g>
				<path fill="#3E4347" d="M9.4,12C9,7,13.4,4.9,17.9,4.9c4.5,0,9.1,2,8.7,7.1H29C28.6,4.7,23.6,2.6,18,2.6C12.1,2.6,7.3,5.2,7,12
					H9.4z"/>
			</g>
		</g>
	</g>
	<g>
		<g>
			<g>
				<path fill="#BB3166" d="M10.4,10v2c0,0.3-0.2,0.5-0.5,0.5H6.8c-0.3,0-0.5-0.2-0.5-0.5v-2c0-0.3,0.2-0.5,0.5-0.5H10
					C10.2,9.5,10.4,9.7,10.4,10z"/>
			</g>
		</g>
		<g>
			<g>
				<path fill="#BB3166" d="M29.7,10v2c0,0.3-0.2,0.5-0.5,0.5H26c-0.3,0-0.5-0.2-0.5-0.5v-2c0-0.3,0.2-0.5,0.5-0.5h3.1
					C29.4,9.5,29.7,9.7,29.7,10z"/>
			</g>
		</g>
	</g>
	<g>
		<path fill="#E84D88" d="M34,15.3v5.9c0,1.2-1,2.2-2.2,2.2c-2.6,0-5.1,0.5-7.6,2.1C22.7,26.4,20.5,27,18,27c-2.5,0-4.7-0.6-6.1-1.4
			c-2.5-1.5-5-2.1-7.6-2.1c-1.2,0-2.2-1-2.2-2.2v-5.9c0-2.7,2.2-4.9,4.9-4.9h22.2C31.8,10.4,34,12.6,34,15.3z"/>
	</g>
	<g>
		<g>
			<ellipse fill="#E9EFF4" cx="18.1" cy="23.9" rx="4.4" ry="1.7"/>
		</g>
	</g>
	<g>
		<g>
			<path fill="#DEE4E9" d="M22.5,23.9c0,0.9-2,1.7-4.4,1.7c-1.2,0-2.3-0.2-3.1-0.5c0.6,0.1,1.2,0.1,1.9,0c2.4-0.2,4.3-1.1,4.3-2
				c0-0.1,0-0.3-0.1-0.4C22,23,22.5,23.4,22.5,23.9z"/>
		</g>
	</g>
</g>
</svg>
