<?xml version="1.0" encoding="utf-8"?>
<!-- Generator: Adobe Illustrator 18.0.0, SVG Export Plug-In . SVG Version: 6.00 Build 0)  -->
<!DOCTYPE svg PUBLIC "-//W3C//DTD SVG 1.1//EN" "http://www.w3.org/Graphics/SVG/1.1/DTD/svg11.dtd">
<svg version="1.1" id="Layer_1" xmlns="http://www.w3.org/2000/svg" xmlns:xlink="http://www.w3.org/1999/xlink" x="0px" y="0px"
	 viewBox="0 0 760 800" enable-background="new 0 0 760 800" xml:space="preserve">
<g>
	<g>
		<g>
			<g>
				<path fill="#3E4347" d="M593,518.5c0,0-63.5,45.2-217.2,62.1c-115.5-12.7-191.9-37-217.2-62.1L179,278l196.9,14.9L572.7,278
					L593,518.5z"/>
			</g>
		</g>
		<g>
			<g>
				<g>
					<g>
						<g>
							<g>
								<g>
									<polygon fill="#3E4347" points="717.8,259.6 368.5,324.6 42.2,257.1 368.6,219.4 									"/>
								</g>
							</g>
						</g>
						<g>
							<g>
								<path fill="#5A5F63" d="M717.8,259.6c0,5.4-4.5,15.1-10.7,16L368.5,325L52.6,273.3c-6-1-10.4-10.7-10.4-16v-0.2l326.2,52
									L717.8,259.6z"/>
							</g>
						</g>
						<g>
							<g>
								<polygon fill="#FFD93B" points="209.2,409.4 209.2,283.9 228,278 191.3,281 191.3,409.4 								"/>
							</g>
						</g>
					</g>
					<g>
						<g>
							<path fill="#F4C534" d="M368.5,264.1l-159.2,19.9l-17.9-2.9l176-25.9c2.5-0.3,4.7,1.4,5,3.9
								C372.7,261.5,370.9,263.7,368.5,264.1z"/>
						</g>
					</g>
				</g>
			</g>
			<g>
				<g>
					<g>
						<g>
							<path fill="#353A3D" d="M341.8,262c0,3.2,11.7,5.8,26.1,5.8c14.4,0,26.1-2.6,26.1-5.8V257c0,3.2-11.7,5.8-26.1,5.8
								c-14.4,0-26.1-2.6-26.1-5.8V262z"/>
						</g>
					</g>
				</g>
				<g>
					<g>
						<ellipse fill="#5A5F63" cx="367.9" cy="257" rx="26.1" ry="5.8"/>
					</g>
				</g>
			</g>
		</g>
		<g>
			<path fill="#FFD93B" d="M162.9,468.7l-4.2,49.7c25.3,25.1,101.7,49.4,217.2,62.1C529.5,563.7,593,518.5,593,518.5l-4.3-50.7
				c-16.5,10-81.9,45-212.9,59.4C266.1,515,191.7,492.5,162.9,468.7z"/>
		</g>
	</g>
	<g>
		<g>
			<g>
				<path fill="#FFD93B" d="M188.4,432.2c-9.9,11.6-28.3,11.6-38.4,0l3.2-5.7c6.3-13.3,10.3-27.7,11.2-42.2h9.7
					c0.8,14.6,4.9,28.9,11.4,42L188.4,432.2z"/>
			</g>
		</g>
		<g>
			<g>
				<g>
					<g>
						<path fill="#F4C534" d="M179.7,433.4c0,0-4.6-8.8-7.2-18.5c-2.9-9.6-3.5-19.8-3.5-19.8l3.1,0.1c0,0-0.2,9.7,1.9,19.3
							C175.9,424.2,179.7,433.4,179.7,433.4z"/>
					</g>
				</g>
				<g>
					<g>
						<path fill="#F4C534" d="M173.8,387.8c0,0-0.2,11.2,2.5,22.2c2.4,11,7.4,21.3,7.4,21.3s-5.4-10-8.4-21
							c-3.3-10.9-3.6-22.5-3.6-22.5L173.8,387.8z"/>
					</g>
				</g>
			</g>
			<g>
				<g>
					<path fill="#F4C534" d="M169.2,395.2c0,0-0.7,9.8-3.2,19.2c-1.2,4.7-3,9.3-4.7,12.4c-1.8,3.2-3.4,5-3.4,5s1.5-1.9,3-5.2
						c1.5-3.3,2.8-7.9,3.6-12.6c1.7-9.4,1.6-18.9,1.6-18.9L169.2,395.2z"/>
				</g>
			</g>
			<g>
				<g>
					<g>
						<path fill="#F4C534" d="M166.7,393.1c0,0-0.7,10.2-4.1,19.6c-3.1,9.5-8.7,17.8-8.7,17.8s5.1-8.6,7.7-18.1
							c2.9-9.5,3-19.3,3-19.3L166.7,393.1z"/>
					</g>
				</g>
			</g>
		</g>
		<g>
			<g>
				<path fill="#E24B4B" d="M187.2,383.6c-0.4,9.2-8.4,16.4-18,16.4c-9.6,0-17.6-7.2-18-16.4c-1.1-27.6,7.5-24.3,18-24.3
					C179.7,359.2,188.3,356,187.2,383.6z"/>
			</g>
		</g>
	</g>
</g>
</svg>
