<?xml version="1.0" encoding="utf-8"?>
<!-- Generator: Adobe Illustrator 18.0.0, SVG Export Plug-In . SVG Version: 6.00 Build 0)  -->
<!DOCTYPE svg PUBLIC "-//W3C//DTD SVG 1.1//EN" "http://www.w3.org/Graphics/SVG/1.1/DTD/svg11.dtd">
<svg version="1.1" id="Layer_1" xmlns="http://www.w3.org/2000/svg" xmlns:xlink="http://www.w3.org/1999/xlink" x="0px" y="0px"
	 viewBox="0 0 36 36" enable-background="new 0 0 36 36" xml:space="preserve">
<g>
	<g>
		<g>
			<path fill="#D03F3F" d="M30.5,24.7c0.4-1.2,0.6-2.5,0.6-3.9c0-7.2-5.9-13.1-13.1-13.1S4.9,13.6,4.9,20.8c0,1.4,0.2,2.7,0.6,3.9
				H30.5z"/>
		</g>
	</g>
	<g>
		<g>
			<path fill="#BF3333" d="M18,7.7c-2.3,0-4.5,0.6-6.4,1.7l1.1,13.7h10.7l1.1-13.7C22.5,8.3,20.3,7.7,18,7.7z"/>
		</g>
	</g>
	<g>
		<path fill="#D03F3F" d="M23.3,8.9c-1.6-0.7-3.4-1.1-5.3-1.1s-3.7,0.4-5.3,1.1v14.3h10.7V8.9z"/>
	</g>
	<g>
		<path fill="#E24B4B" d="M31.5,23c-8.9,1.6-18.1,1.6-27,0c-1.1-0.2-2.2,0.5-2.4,1.6c-0.2,1.1,0.5,2.2,1.7,2.4
			c9.4,1.7,19.1,1.7,28.5,0c1.2-0.2,1.9-1.3,1.7-2.4C33.7,23.5,32.6,22.8,31.5,23z"/>
	</g>
	<g>
		<g>
			<path fill="#FFFFFF" d="M21.5,17.6c-0.3,0.3-0.7,0.9-0.9,1.5c-0.1,0.3-0.4,0.6-0.7,0.6h-3.9c-0.3,0-0.6-0.2-0.7-0.6
				c-0.2-0.6-0.6-1.2-0.9-1.5c-0.2-0.2-0.2-0.5-0.1-0.8c0.4-1.1,0.3-2.4,0.1-3.1c-0.1-0.3,0.1-0.6,0.4-0.8l2.7-1.5
				c0.3-0.2,0.7-0.2,1,0l2.7,1.5c0.3,0.2,0.4,0.5,0.4,0.8c-0.1,0.7-0.3,2,0.1,3.1C21.8,17.1,21.7,17.4,21.5,17.6z"/>
		</g>
	</g>
</g>
<g>
	<g>
		<path fill="#D03F3F" d="M20,18c0,0.3-0.2,0.5-0.5,0.5h-0.9v0.9c0,0.3-0.2,0.5-0.5,0.5c-0.3,0-0.5-0.3-0.5-0.5v-0.9h-1
			c-0.3,0-0.5-0.2-0.5-0.5c0-0.3,0.2-0.5,0.5-0.5h1v-1c0-0.3,0.2-0.5,0.5-0.5c0.3,0,0.5,0.2,0.5,0.5v1h0.9C19.8,17.5,20,17.7,20,18z
			"/>
	</g>
</g>
</svg>
