<?xml version="1.0" encoding="utf-8"?>
<!-- Generator: Adobe Illustrator 18.0.0, SVG Export Plug-In . SVG Version: 6.00 Build 0)  -->
<!DOCTYPE svg PUBLIC "-//W3C//DTD SVG 1.1//EN" "http://www.w3.org/Graphics/SVG/1.1/DTD/svg11.dtd">
<svg version="1.1" id="Layer_1" xmlns="http://www.w3.org/2000/svg" xmlns:xlink="http://www.w3.org/1999/xlink" x="0px" y="0px"
	 viewBox="0 0 36 36" enable-background="new 0 0 36 36" xml:space="preserve">
<g>
	<g>
		<g>
			<g>
				<path fill="#3E4347" d="M24.8,15.9h-1.6c0-2.1,1-4.5,3.3-4.5c2.1,0,5.9-0.8,6.1-1.7c0.3-1.4-9.3-5.8-15.5-6
					C9.2,3.3,5.5,8.6,5.5,15.9H3.9C3.9,7.7,8.4,1.6,17.2,2c4.9,0.2,17.8,4.2,17,8c-0.5,2.4-5.9,3-7.7,3
					C25.3,12.9,24.8,14.7,24.8,15.9z"/>
			</g>
		</g>
	</g>
	<g>
		<g>
			<g>
				<g>
					<path fill="#F4C534" d="M26.2,34H2.8c-0.6,0-1.1-0.5-1-1.1l0.4-9.1c0-0.5,0.5-1,1-1h22.7c0.5,0,1,0.4,1,1l0.4,9.1
						C27.3,33.5,26.8,34,26.2,34z"/>
				</g>
			</g>
			<g>
				<g>
					<path fill="#E9B02C" d="M2.9,31.2c-0.1,0-0.1,0.1-0.1,0.1l0,0.3c0,0.1,0.1,0.1,0.1,0.2c0,0,0,0,0,0c0.1,0,0.1-0.1,0.1-0.1
						l0-0.3C3.1,31.2,3,31.2,2.9,31.2z"/>
				</g>
				<g>
					<path fill="#E9B02C" d="M3.1,30c0-0.1-0.1-0.1-0.1-0.1c-0.1,0-0.1,0.1-0.1,0.1l0,0.3c0,0.1,0.1,0.1,0.1,0.2c0,0,0,0,0,0
						c0.1,0,0.1-0.1,0.1-0.1L3.1,30z"/>
				</g>
				<g>
					<path fill="#E9B02C" d="M2.9,32.5c-0.1,0-0.1,0.1-0.2,0.1l0,0.3C2.7,33,2.8,33,2.9,33c0,0,0,0,0,0C2.9,33,3,33,3,32.9l0-0.3
						C3,32.6,3,32.5,2.9,32.5z"/>
				</g>
				<g>
					<path fill="#E9B02C" d="M4.8,32.7H4.6c-0.1,0-0.1,0.1-0.1,0.1C4.4,33,4.5,33,4.6,33h0.3C4.9,33,5,33,5,32.9
						C5,32.8,4.9,32.7,4.8,32.7z"/>
				</g>
				<g>
					<path fill="#E9B02C" d="M6.1,32.7H5.9c-0.1,0-0.1,0.1-0.1,0.1C5.7,33,5.8,33,5.9,33h0.3c0.1,0,0.1-0.1,0.1-0.1
						C6.3,32.8,6.2,32.7,6.1,32.7z"/>
				</g>
				<g>
					<path fill="#E9B02C" d="M7.5,32.7H7.2c-0.1,0-0.1,0.1-0.1,0.1C7.1,33,7.1,33,7.2,33h0.3c0.1,0,0.1-0.1,0.1-0.1
						C7.6,32.8,7.5,32.7,7.5,32.7z"/>
				</g>
				<g>
					<path fill="#E9B02C" d="M3.5,32.7H3.3c-0.1,0-0.1,0.1-0.1,0.1C3.1,33,3.2,33,3.3,33h0.3c0.1,0,0.1-0.1,0.1-0.1
						C3.7,32.8,3.6,32.7,3.5,32.7z"/>
				</g>
				<g>
					<path fill="#E9B02C" d="M3.3,26.3l0-0.3c0-0.1-0.1-0.1-0.1-0.1C3.1,25.9,3,26,3,26.1l0,0.3c0,0.1,0.1,0.1,0.1,0.1c0,0,0,0,0,0
						C3.2,26.5,3.3,26.4,3.3,26.3z"/>
				</g>
				<g>
					<path fill="#E9B02C" d="M26,29.7C26,29.7,26,29.7,26,29.7c0.1,0,0.1-0.1,0.1-0.2l0-0.3c0-0.1-0.1-0.1-0.1-0.1
						c-0.1,0-0.1,0.1-0.1,0.1l0,0.3C25.8,29.6,25.9,29.7,26,29.7z"/>
				</g>
				<g>
					<path fill="#E9B02C" d="M25.9,27.1c0.1,0,0.1-0.1,0.1-0.1l0-0.3c0-0.1-0.1-0.1-0.1-0.1c-0.1,0-0.1,0.1-0.1,0.1l0,0.3
						C25.7,27,25.8,27.1,25.9,27.1C25.9,27.1,25.9,27.1,25.9,27.1z"/>
				</g>
				<g>
					<path fill="#E9B02C" d="M25.9,28.4C25.9,28.4,25.9,28.4,25.9,28.4c0.1,0,0.1-0.1,0.1-0.2l0-0.3c0-0.1-0.1-0.1-0.1-0.1
						c-0.1,0-0.1,0.1-0.1,0.1l0,0.3C25.8,28.3,25.8,28.4,25.9,28.4z"/>
				</g>
				<g>
					<path fill="#E9B02C" d="M26,31C26,31,26,31,26,31c0.1,0,0.1-0.1,0.1-0.2l0-0.3c0-0.1-0.1-0.1-0.1-0.1c-0.1,0-0.1,0.1-0.1,0.1
						l0,0.3C25.9,30.9,26,31,26,31z"/>
				</g>
				<g>
					<path fill="#E9B02C" d="M2.9,28.7l0,0.3C2.9,29,3,29.1,3,29.1c0,0,0,0,0,0c0.1,0,0.1-0.1,0.1-0.1l0-0.3c0-0.1-0.1-0.1-0.1-0.1
						C3,28.6,2.9,28.6,2.9,28.7z"/>
				</g>
				<g>
					<path fill="#E9B02C" d="M3.2,27.7l0-0.3c0-0.1-0.1-0.1-0.1-0.1C3,27.2,3,27.3,3,27.4l0,0.3c0,0.1,0.1,0.1,0.1,0.1c0,0,0,0,0,0
						C3.2,27.8,3.2,27.7,3.2,27.7z"/>
				</g>
				<g>
					<path fill="#E9B02C" d="M16.6,32.7h-0.3c-0.1,0-0.1,0.1-0.1,0.1c0,0.1,0.1,0.1,0.1,0.1h0.3c0.1,0,0.1-0.1,0.1-0.1
						C16.8,32.8,16.7,32.7,16.6,32.7z"/>
				</g>
				<g>
					<path fill="#E9B02C" d="M21.9,32.7h-0.3c-0.1,0-0.1,0.1-0.1,0.1c0,0.1,0.1,0.1,0.1,0.1h0.3c0.1,0,0.1-0.1,0.1-0.1
						C22,32.8,21.9,32.7,21.9,32.7z"/>
				</g>
				<g>
					<path fill="#E9B02C" d="M20.6,32.7h-0.3c-0.1,0-0.1,0.1-0.1,0.1c0,0.1,0.1,0.1,0.1,0.1h0.3c0.1,0,0.1-0.1,0.1-0.1
						C20.7,32.8,20.6,32.7,20.6,32.7z"/>
				</g>
				<g>
					<path fill="#E9B02C" d="M23.2,32.7h-0.3c-0.1,0-0.1,0.1-0.1,0.1c0,0.1,0.1,0.1,0.1,0.1h0.3c0.1,0,0.1-0.1,0.1-0.1
						C23.3,32.8,23.3,32.7,23.2,32.7z"/>
				</g>
				<g>
					<path fill="#E9B02C" d="M26.1,31.8c-0.1,0-0.1,0.1-0.1,0.1l0,0.3c0,0.1,0.1,0.1,0.1,0.1c0,0,0,0,0,0c0.1,0,0.1-0.1,0.1-0.2
						l0-0.3C26.2,31.8,26.2,31.7,26.1,31.8z"/>
				</g>
				<g>
					<path fill="#E9B02C" d="M24.5,32.7h-0.3c-0.1,0-0.1,0.1-0.1,0.1c0,0.1,0.1,0.1,0.1,0.1h0.3c0.1,0,0.1-0.1,0.1-0.1
						C24.6,32.8,24.6,32.7,24.5,32.7z"/>
				</g>
				<g>
					<path fill="#E9B02C" d="M19.2,32.7H19c-0.1,0-0.1,0.1-0.1,0.1c0,0.1,0.1,0.1,0.1,0.1h0.3c0.1,0,0.1-0.1,0.1-0.1
						C19.4,32.8,19.3,32.7,19.2,32.7z"/>
				</g>
				<g>
					<path fill="#E9B02C" d="M25.8,32.7h-0.3c-0.1,0-0.1,0.1-0.1,0.1c0,0.1,0.1,0.1,0.1,0.1h0.3c0.1,0,0.1-0.1,0.1-0.1
						C25.9,32.8,25.9,32.7,25.8,32.7z"/>
				</g>
				<g>
					<path fill="#E9B02C" d="M8.8,32.7H8.5c-0.1,0-0.1,0.1-0.1,0.1C8.4,33,8.4,33,8.5,33h0.3c0.1,0,0.1-0.1,0.1-0.1
						C8.9,32.8,8.8,32.7,8.8,32.7z"/>
				</g>
				<g>
					<path fill="#E9B02C" d="M12.7,32.7h-0.3c-0.1,0-0.1,0.1-0.1,0.1c0,0.1,0.1,0.1,0.1,0.1h0.3c0.1,0,0.1-0.1,0.1-0.1
						C12.8,32.8,12.8,32.7,12.7,32.7z"/>
				</g>
				<g>
					<path fill="#E9B02C" d="M11.4,32.7h-0.3c-0.1,0-0.1,0.1-0.1,0.1C11,33,11,33,11.1,33h0.3c0.1,0,0.1-0.1,0.1-0.1
						C11.5,32.8,11.5,32.7,11.4,32.7z"/>
				</g>
				<g>
					<path fill="#E9B02C" d="M10.1,32.7H9.8c-0.1,0-0.1,0.1-0.1,0.1C9.7,33,9.7,33,9.8,33h0.3c0.1,0,0.1-0.1,0.1-0.1
						C10.2,32.8,10.2,32.7,10.1,32.7z"/>
				</g>
				<g>
					<path fill="#E9B02C" d="M15.3,32.7h-0.3c-0.1,0-0.1,0.1-0.1,0.1c0,0.1,0.1,0.1,0.1,0.1h0.3c0.1,0,0.1-0.1,0.1-0.1
						C15.5,32.8,15.4,32.7,15.3,32.7z"/>
				</g>
				<g>
					<path fill="#E9B02C" d="M17.9,32.7h-0.3c-0.1,0-0.1,0.1-0.1,0.1c0,0.1,0.1,0.1,0.1,0.1h0.3c0.1,0,0.1-0.1,0.1-0.1
						C18.1,32.8,18,32.7,17.9,32.7z"/>
				</g>
				<g>
					<path fill="#E9B02C" d="M14,32.7h-0.3c-0.1,0-0.1,0.1-0.1,0.1c0,0.1,0.1,0.1,0.1,0.1H14c0.1,0,0.1-0.1,0.1-0.1
						C14.1,32.8,14.1,32.7,14,32.7z"/>
				</g>
			</g>
		</g>
		<g>
			<g>
				<path fill="#FFD93B" d="M26.2,26H2.8c-0.6,0-1.1-0.5-1-1.1l0.4-9.1c0-0.5,0.5-1,1-1h22.7c0.5,0,1,0.4,1,1l0.4,9.1
					C27.3,25.5,26.8,26,26.2,26z"/>
			</g>
			<g>
				<g>
					<g>
						<path fill="#F4C534" d="M8,24.7H7.7c-0.1,0-0.1,0.1-0.1,0.1C7.6,25,7.6,25,7.7,25H8C8,25,8.1,25,8.1,24.9
							C8.1,24.8,8,24.7,8,24.7z"/>
					</g>
					<g>
						<path fill="#F4C534" d="M6.7,24.7H6.4c-0.1,0-0.1,0.1-0.1,0.1C6.3,25,6.3,25,6.4,25h0.3c0.1,0,0.1-0.1,0.1-0.1
							C6.8,24.8,6.7,24.7,6.7,24.7z"/>
					</g>
					<g>
						<path fill="#F4C534" d="M4,24.7H3.8c-0.1,0-0.1,0.1-0.1,0.1C3.6,25,3.7,25,3.8,25H4c0.1,0,0.1-0.1,0.1-0.1
							C4.2,24.8,4.1,24.7,4,24.7z"/>
					</g>
					<g>
						<path fill="#F4C534" d="M5.3,24.7H5.1c-0.1,0-0.1,0.1-0.1,0.1C4.9,25,5,25,5.1,25h0.3c0.1,0,0.1-0.1,0.1-0.1
							C5.5,24.8,5.4,24.7,5.3,24.7z"/>
					</g>
					<g>
						<path fill="#F4C534" d="M11.9,24.7h-0.3c-0.1,0-0.1,0.1-0.1,0.1c0,0.1,0.1,0.1,0.1,0.1h0.3C12,25,12,25,12,24.9
							C12,24.8,12,24.7,11.9,24.7z"/>
					</g>
					<g>
						<path fill="#F4C534" d="M13.2,24.7h-0.3c-0.1,0-0.1,0.1-0.1,0.1c0,0.1,0.1,0.1,0.1,0.1h0.3c0.1,0,0.1-0.1,0.1-0.1
							C13.3,24.8,13.3,24.7,13.2,24.7z"/>
					</g>
					<g>
						<path fill="#F4C534" d="M9.3,24.7H9c-0.1,0-0.1,0.1-0.1,0.1C8.9,25,8.9,25,9,25h0.3c0.1,0,0.1-0.1,0.1-0.1
							C9.4,24.8,9.4,24.7,9.3,24.7z"/>
					</g>
					<g>
						<path fill="#F4C534" d="M10.6,24.7h-0.3c-0.1,0-0.1,0.1-0.1,0.1c0,0.1,0.1,0.1,0.1,0.1h0.3c0.1,0,0.1-0.1,0.1-0.1
							C10.7,24.8,10.7,24.7,10.6,24.7z"/>
					</g>
					<g>
						<path fill="#F4C534" d="M3.7,15.2c0-0.1-0.1-0.1-0.1-0.2c-0.1,0-0.1,0.1-0.2,0.1l0,0.3c0,0.1,0.1,0.1,0.1,0.2c0,0,0,0,0,0
							c0.1,0,0.1-0.1,0.1-0.1L3.7,15.2z"/>
					</g>
					<g>
						<path fill="#F4C534" d="M3.2,20.3c-0.1,0-0.1,0.1-0.2,0.1l0,0.3c0,0.1,0.1,0.1,0.1,0.2c0,0,0,0,0,0c0.1,0,0.1-0.1,0.1-0.1
							l0-0.3C3.3,20.4,3.3,20.3,3.2,20.3z"/>
					</g>
					<g>
						<path fill="#F4C534" d="M3.1,21.6c-0.1,0-0.1,0.1-0.2,0.1l0,0.3c0,0.1,0.1,0.1,0.1,0.2c0,0,0,0,0,0c0.1,0,0.1-0.1,0.1-0.1
							l0-0.3C3.2,21.7,3.2,21.6,3.1,21.6z"/>
					</g>
					<g>
						<path fill="#F4C534" d="M2.9,24.2c-0.1,0-0.1,0.1-0.2,0.1l0,0.3c0,0,0,0,0,0c0,0.1,0.1,0.1,0.1,0.1c0,0,0,0,0,0
							C3,24.8,3,24.7,3,24.6l0-0.3C3.1,24.3,3,24.2,2.9,24.2z"/>
					</g>
					<g>
						<path fill="#F4C534" d="M3,22.9c-0.1,0-0.1,0.1-0.2,0.1l0,0.3c0,0.1,0.1,0.1,0.1,0.2c0,0,0,0,0,0c0.1,0,0.1-0.1,0.1-0.1l0-0.3
							C3.1,23,3.1,22.9,3,22.9z"/>
					</g>
					<g>
						<path fill="#F4C534" d="M3.3,19c-0.1,0-0.1,0.1-0.2,0.1l0,0.3c0,0.1,0.1,0.1,0.1,0.2c0,0,0,0,0,0c0.1,0,0.1-0.1,0.1-0.1l0-0.3
							C3.4,19.1,3.4,19,3.3,19z"/>
					</g>
					<g>
						<path fill="#F4C534" d="M3.5,16.4c-0.1,0-0.1,0.1-0.2,0.1l0,0.3c0,0.1,0.1,0.1,0.1,0.2c0,0,0,0,0,0c0.1,0,0.1-0.1,0.1-0.1
							l0-0.3C3.6,16.5,3.5,16.4,3.5,16.4z"/>
					</g>
					<g>
						<path fill="#F4C534" d="M3.4,17.7c-0.1,0-0.1,0.1-0.2,0.1l0,0.3c0,0.1,0.1,0.1,0.1,0.2c0,0,0,0,0,0c0.1,0,0.1-0.1,0.1-0.1
							l0-0.3C3.5,17.8,3.4,17.7,3.4,17.7z"/>
					</g>
					<g>
						<path fill="#F4C534" d="M23.7,24.7h-0.3c-0.1,0-0.1,0.1-0.1,0.1c0,0.1,0.1,0.1,0.1,0.1h0.3c0.1,0,0.1-0.1,0.1-0.1
							C23.8,24.8,23.7,24.7,23.7,24.7z"/>
					</g>
					<g>
						<path fill="#F4C534" d="M25.7,18.5c0.1,0,0.1-0.1,0.1-0.2l0-0.3c0-0.1-0.1-0.1-0.2-0.1c-0.1,0-0.1,0.1-0.1,0.2l0,0.3
							C25.5,18.4,25.6,18.5,25.7,18.5C25.7,18.5,25.7,18.5,25.7,18.5z"/>
					</g>
					<g>
						<path fill="#F4C534" d="M25.9,21.1c0.1,0,0.1-0.1,0.1-0.2l0-0.3c0-0.1-0.1-0.1-0.2-0.1c-0.1,0-0.1,0.1-0.1,0.2l0,0.3
							C25.7,21,25.8,21.1,25.9,21.1C25.9,21.1,25.9,21.1,25.9,21.1z"/>
					</g>
					<g>
						<path fill="#F4C534" d="M25.5,15.9c0.1,0,0.1-0.1,0.1-0.2l0-0.3c0-0.1-0.1-0.1-0.2-0.1c-0.1,0-0.1,0.1-0.1,0.2l0,0.3
							C25.3,15.8,25.4,15.9,25.5,15.9C25.5,15.9,25.5,15.9,25.5,15.9z"/>
					</g>
					<g>
						<path fill="#F4C534" d="M25.6,17.2c0.1,0,0.1-0.1,0.1-0.2l0-0.3c0-0.1-0.1-0.1-0.2-0.1c-0.1,0-0.1,0.1-0.1,0.2l0,0.3
							C25.4,17.1,25.5,17.2,25.6,17.2C25.6,17.2,25.6,17.2,25.6,17.2z"/>
					</g>
					<g>
						<path fill="#F4C534" d="M25.8,19.8c0.1,0,0.1-0.1,0.1-0.2l0-0.3c0-0.1-0.1-0.1-0.2-0.1c-0.1,0-0.1,0.1-0.1,0.2l0,0.3
							C25.6,19.7,25.7,19.8,25.8,19.8C25.8,19.8,25.8,19.8,25.8,19.8z"/>
					</g>
					<g>
						<path fill="#F4C534" d="M14.5,24.7h-0.3c-0.1,0-0.1,0.1-0.1,0.1c0,0.1,0.1,0.1,0.1,0.1h0.3c0.1,0,0.1-0.1,0.1-0.1
							C14.7,24.8,14.6,24.7,14.5,24.7z"/>
					</g>
					<g>
						<path fill="#F4C534" d="M26.2,24.6c0-0.1-0.1-0.1-0.2-0.1c-0.1,0-0.1,0.1-0.1,0.2l0,0c0,0,0,0,0,0c0,0,0,0.1,0,0.1
							c-0.1,0.1-0.1,0.1,0,0.2c0,0,0.1,0.1,0.1,0.1c0,0,0.1,0,0.1,0C26.2,24.9,26.2,24.7,26.2,24.6C26.2,24.6,26.2,24.6,26.2,24.6
							L26.2,24.6z"/>
					</g>
					<g>
						<path fill="#F4C534" d="M26,23.7C26,23.7,26,23.7,26,23.7c0.1,0,0.1-0.1,0.1-0.2l0-0.3c0-0.1-0.1-0.1-0.2-0.1
							c-0.1,0-0.1,0.1-0.1,0.2l0,0.3C25.9,23.6,26,23.7,26,23.7z"/>
					</g>
					<g>
						<path fill="#F4C534" d="M25.9,22.4c0.1,0,0.1-0.1,0.1-0.2l0-0.3c0-0.1-0.1-0.1-0.2-0.1c-0.1,0-0.1,0.1-0.1,0.2l0,0.3
							C25.8,22.3,25.9,22.4,25.9,22.4C25.9,22.4,25.9,22.4,25.9,22.4z"/>
					</g>
					<g>
						<path fill="#F4C534" d="M25,24.7h-0.3c-0.1,0-0.1,0.1-0.1,0.1c0,0.1,0.1,0.1,0.1,0.1H25c0.1,0,0.1-0.1,0.1-0.1
							C25.1,24.8,25.1,24.7,25,24.7z"/>
					</g>
					<g>
						<path fill="#F4C534" d="M18.4,24.7h-0.3c-0.1,0-0.1,0.1-0.1,0.1c0,0.1,0.1,0.1,0.1,0.1h0.3c0.1,0,0.1-0.1,0.1-0.1
							C18.6,24.8,18.5,24.7,18.4,24.7z"/>
					</g>
					<g>
						<path fill="#F4C534" d="M15.8,24.7h-0.3c-0.1,0-0.1,0.1-0.1,0.1c0,0.1,0.1,0.1,0.1,0.1h0.3c0.1,0,0.1-0.1,0.1-0.1
							C16,24.8,15.9,24.7,15.8,24.7z"/>
					</g>
					<g>
						<path fill="#F4C534" d="M17.1,24.7h-0.3c-0.1,0-0.1,0.1-0.1,0.1c0,0.1,0.1,0.1,0.1,0.1h0.3c0.1,0,0.1-0.1,0.1-0.1
							C17.3,24.8,17.2,24.7,17.1,24.7z"/>
					</g>
					<g>
						<path fill="#F4C534" d="M19.7,24.7h-0.3c-0.1,0-0.1,0.1-0.1,0.1c0,0.1,0.1,0.1,0.1,0.1h0.3c0.1,0,0.1-0.1,0.1-0.1
							C19.9,24.8,19.8,24.7,19.7,24.7z"/>
					</g>
					<g>
						<path fill="#F4C534" d="M22.4,24.7h-0.3c-0.1,0-0.1,0.1-0.1,0.1C22,25,22,25,22.1,25h0.3c0.1,0,0.1-0.1,0.1-0.1
							C22.5,24.8,22.4,24.7,22.4,24.7z"/>
					</g>
					<g>
						<path fill="#F4C534" d="M21.1,24.7h-0.3c-0.1,0-0.1,0.1-0.1,0.1c0,0.1,0.1,0.1,0.1,0.1h0.3c0.1,0,0.1-0.1,0.1-0.1
							C21.2,24.8,21.1,24.7,21.1,24.7z"/>
					</g>
				</g>
			</g>
		</g>
		<g>
			<g>
				<g>
					<g>
						<g>
							<path fill="#5A5F63" d="M18.5,27.5h-1.9c-0.1,0-0.2-0.1-0.2-0.2l0,0c0-0.1,0.1-0.2,0.2-0.2h1.9c0.1,0,0.2,0.1,0.2,0.2l0,0
								C18.8,27.4,18.7,27.5,18.5,27.5z"/>
						</g>
					</g>
				</g>
				<g>
					<g>
						<g>
							<path fill="#5A5F63" d="M10.5,27.5h1.9c0.1,0,0.2-0.1,0.2-0.2l0,0c0-0.1-0.1-0.2-0.2-0.2h-1.9c-0.1,0-0.2,0.1-0.2,0.2l0,0
								C10.2,27.4,10.3,27.5,10.5,27.5z"/>
						</g>
					</g>
					<g>
						<g>
							<g>
								<path fill="#F1F2F2" d="M11.9,27.6c0,0.3-0.2,0.5-0.5,0.5h-0.3c-0.3,0-0.5-0.2-0.5-0.5l0.1-0.9c0.1-0.6,0.1-1.2,0.1-1.8v0
									c0-0.1,0.1-0.2,0.1-0.3c0.1-0.1,0.2-0.1,0.4-0.1c0.2,0,0.4,0.2,0.4,0.5c0,0.3,0,0.6,0,0.9c0,0.3,0,0.6,0.1,0.9L11.9,27.6z"
									/>
							</g>
							<g>
								<path fill="#F1F2F2" d="M17.9,28.1h-0.3c-0.3,0-0.5-0.2-0.5-0.5l0.1-0.9c0.1-0.6,0.1-1.2,0.1-1.8v0c0-0.2,0.2-0.5,0.4-0.5
									c0.1,0,0.3,0,0.4,0.1c0.1,0.1,0.1,0.2,0.1,0.3v0c0,0.6,0,1.2,0.1,1.8l0.1,0.9C18.4,27.9,18.2,28.1,17.9,28.1z"/>
							</g>
						</g>
					</g>
				</g>
			</g>
			<g>
				<g>
					<path fill="#F1F2F2" d="M17,27.3c0,0.2-0.1,0.3-0.2,0.5c-0.1,0.1-0.3,0.2-0.5,0.2h-3.8c-0.4,0-0.6-0.3-0.6-0.6
						c0-0.2,0.1-0.3,0.2-0.5c0.1-0.1,0.3-0.2,0.5-0.2h3.8C16.7,26.6,17,26.9,17,27.3z"/>
				</g>
			</g>
		</g>
	</g>
</g>
</svg>
