<?xml version="1.0" encoding="utf-8"?>
<!-- Generator: Adobe Illustrator 18.0.0, SVG Export Plug-In . SVG Version: 6.00 Build 0)  -->
<!DOCTYPE svg PUBLIC "-//W3C//DTD SVG 1.1//EN" "http://www.w3.org/Graphics/SVG/1.1/DTD/svg11.dtd">
<svg version="1.1" id="Layer_1" xmlns="http://www.w3.org/2000/svg" xmlns:xlink="http://www.w3.org/1999/xlink" x="0px" y="0px"
	 viewBox="0 0 36 36" enable-background="new 0 0 36 36" xml:space="preserve">
<g>
	<g>
		<g>
			<g>
				<g>
					<g>
						<path fill="#3E4347" d="M34,24.4c-0.1,2.4-10.9,2.1-22-0.2v0.9c0,0.3-0.2,0.5-0.5,0.5H2.8c-0.3,0-0.5-0.2-0.5-0.5v-3.2
							l0.9-1.7l15.1,1.7L34,24.4z"/>
					</g>
				</g>
			</g>
			<g>
				<g>
					<g>
						<path fill="#7A5B44" d="M20.8,16.2c0,0,1.8,2.6,6,3.2c4.5,0.5,7.1,1.9,7.2,5c-5,2.2-16.6,0-23.7-1.4l-2.5-3.7L20.8,16.2z"/>
					</g>
				</g>
			</g>
		</g>
		<g>
			<g>
				<g>
					<path fill="#89664C" d="M16.3,13.2c-0.2,0.2-0.4,0.2-0.6,0c-0.2-0.2-0.2-0.4,0-0.6c0.2-0.2,0.4-0.2,0.6,0
						C16.5,12.7,16.5,13,16.3,13.2z M17.9,14.6c-0.2,0.2-0.4,0.2-0.6,0c-0.2-0.2-0.2-0.4,0-0.6c0.2-0.2,0.4-0.2,0.6,0
						C18.1,14.2,18.1,14.4,17.9,14.6z M19.6,16.2c-0.2,0.2-0.4,0.2-0.6,0c-0.2-0.2-0.2-0.4,0-0.6c0.2-0.2,0.4-0.2,0.6,0
						C19.7,15.7,19.7,16,19.6,16.2z"/>
				</g>
				<g>
					<path fill="#89664C" d="M20.7,19.5c-0.2,0.4-0.6,0.6-1,0.6c-1.1,0.1-2.9-0.1-4.8,0.1c-2.2,0.2-3.7,1.3-4.6,2.8l-8-0.4
						c-0.6-2.6-0.1-5.8,1.4-8.6c0.1-0.2,0.3-0.2,0.5,0c0.7,1.1,1.9,1.7,5.6,0.9c1.8-0.4,3.2-1.9,4.9-3c1-0.7,2.1-0.6,3,0.1
						c1.2,0.9,2.3,1.9,3.3,3C21.6,16.4,21.5,17.9,20.7,19.5z"/>
				</g>
			</g>
		</g>
		<g>
			<g>
				<g>
					<g>
						<path fill="#6B503B" d="M18.8,16.3c-0.2-0.2-0.2-0.6,0-0.8c0.2-0.2,0.6-0.2,0.8,0c0.2,0.2,0.2,0.6,0,0.8l0,0
							C19.4,16.5,19.1,16.5,18.8,16.3z M19.1,15.7c-0.1,0.1-0.1,0.3,0,0.4c0.1,0.1,0.3,0.1,0.4,0h0c0.1-0.1,0.1-0.3,0-0.4
							C19.3,15.6,19.2,15.6,19.1,15.7z"/>
					</g>
				</g>
			</g>
			<g>
				<g>
					<g>
						<path fill="#6B503B" d="M17.2,14.7c-0.2-0.2-0.2-0.6,0-0.8c0.2-0.2,0.6-0.2,0.8,0c0.2,0.2,0.2,0.6,0,0.8l0,0
							C17.8,14.9,17.4,14.9,17.2,14.7z M17.4,14.1c-0.1,0.1-0.1,0.3,0,0.4c0.1,0.1,0.3,0.1,0.4,0h0c0.1-0.1,0.1-0.3,0-0.4
							C17.7,14,17.5,14,17.4,14.1z"/>
					</g>
				</g>
			</g>
			<g>
				<g>
					<g>
						<path fill="#6B503B" d="M15.6,13.3c-0.2-0.2-0.2-0.6,0-0.8c0.2-0.2,0.6-0.2,0.8,0c0.2,0.2,0.2,0.6,0,0.8l0,0
							C16.2,13.5,15.8,13.5,15.6,13.3z M15.8,12.7c-0.1,0.1-0.1,0.3,0,0.4c0.1,0.1,0.3,0.1,0.4,0h0c0.1-0.1,0.1-0.3,0-0.4
							C16.1,12.5,15.9,12.5,15.8,12.7z"/>
					</g>
				</g>
			</g>
		</g>
	</g>
	<g>
		<g>
			<g>
				<path fill="#D3D9DD" d="M19.2,16c-0.1,0-0.2-0.1-0.1-0.3c0.3-1,0.4-2.1-0.1-3.1c-0.1-0.1,0-0.2,0.1-0.3c0.1-0.1,0.2,0,0.3,0.1
					c0.5,1.1,0.5,2.2,0.1,3.4C19.4,16,19.3,16.1,19.2,16z"/>
			</g>
		</g>
	</g>
	<g>
		<g>
			<path fill="#D3D9DD" d="M17.4,14.3c0-0.1,0-0.2,0.1-0.3c0,0,1.2-0.4,1.2-1.6c0-0.1,0.1-0.2,0.2-0.2c0.1,0,0.2,0.1,0.2,0.2
				c0,0.8-0.5,1.3-0.8,1.6c-0.4,0.3-0.7,0.4-0.7,0.4C17.5,14.5,17.4,14.5,17.4,14.3z"/>
		</g>
	</g>
	<g>
		<g>
			<g>
				<path fill="#D3D9DD" d="M15.9,13c-0.1-0.1-0.1-0.2-0.1-0.3c0,0,0.6-1,1.5-1.1c0.6-0.1,1.3,0.2,1.9,0.8c0.1,0.1,0.1,0.2,0,0.3
					c-0.1,0.1-0.2,0.1-0.3,0c-0.6-0.6-1.1-0.8-1.6-0.7c-0.8,0.1-1.2,0.9-1.2,0.9C16.1,13,16,13.1,15.9,13z"/>
			</g>
		</g>
	</g>
	<g>
		<g>
			<path fill="#D3D9DD" d="M19.2,12.2c-0.1,0-0.3,0-0.4,0c-0.5,0-0.9-0.1-0.9-0.1c-0.1,0-0.1-0.1-0.1-0.1c0-0.1,0-0.1,0.1-0.2
				c0.1-0.1,1.1-1,1.8-0.9c0.3,0,0.5,0.2,0.6,0.5c0.2,0.3,0.1,0.5,0,0.6C20,12.1,19.7,12.2,19.2,12.2z M18.4,11.7
				c0.1,0,0.3,0,0.5,0.1c0.8,0.1,1-0.1,1-0.1c0,0,0-0.1,0-0.2c-0.1-0.2-0.2-0.2-0.3-0.3C19.2,11.2,18.7,11.5,18.4,11.7z"/>
		</g>
	</g>
	<g>
		<g>
			<g>
				<path fill="#D3D9DD" d="M17.9,12.1C17.9,12.1,17.9,12.1,17.9,12.1c-0.5-0.2-0.9-0.3-1.2-0.5c-0.5-0.3-0.8-0.5-0.8-0.8
					c0-0.2,0-0.4,0.3-0.7c0.3-0.3,0.6-0.2,0.8-0.2c0.7,0.3,1.1,1.7,1.1,1.9c0,0.1,0,0.1-0.1,0.2C18,12,18,12.1,17.9,12.1z
					 M16.5,10.4c-0.1,0.1-0.2,0.2-0.2,0.3c0,0.2,0.4,0.5,1.3,0.8c-0.2-0.5-0.4-1.1-0.7-1.2C16.7,10.3,16.6,10.3,16.5,10.4z"/>
			</g>
		</g>
	</g>
	<g>
		<g>
			<g>
				<path fill="#D3D9DD" d="M16,15.3c-0.1,0-0.2-0.1-0.2-0.2c0,0,0-0.4,0.1-0.9c0.1-0.6,0.4-1,0.7-1.2c0.4-0.2,1-1,1.1-1.3
					c0-0.1,0.1-0.1,0.2-0.1c0.1,0,0.2,0.1,0.2,0.2c0,0,0,0.8,0.3,1.2c0.1,0.1,0,0.2-0.1,0.3c-0.1,0.1-0.2,0-0.3-0.1
					c-0.2-0.2-0.2-0.5-0.3-0.8c-0.3,0.4-0.6,0.8-1,1c-0.3,0.1-0.5,1.1-0.6,1.7C16.2,15.3,16.1,15.3,16,15.3z"/>
			</g>
		</g>
	</g>
</g>
</svg>
