<?xml version="1.0" encoding="utf-8"?>
<!-- Generator: Adobe Illustrator 18.0.0, SVG Export Plug-In . SVG Version: 6.00 Build 0)  -->
<!DOCTYPE svg PUBLIC "-//W3C//DTD SVG 1.1//EN" "http://www.w3.org/Graphics/SVG/1.1/DTD/svg11.dtd">
<svg version="1.1" id="Layer_1" xmlns="http://www.w3.org/2000/svg" xmlns:xlink="http://www.w3.org/1999/xlink" x="0px" y="0px"
	 viewBox="0 0 36 36" enable-background="new 0 0 36 36" xml:space="preserve">
<g>
	<g>
		<g>
			<path fill="#3E4347" d="M11.4,22.2l-1.8-2.1c0,0,0.3-0.2,1.7,0c1.4,0.2,3.4-0.7,8.7-5.2c5.3-4.5,11.7-9.4,11.4-8.9
				C31.2,6.6,24.6,17.5,21,19.6c-3.6,2.2-9.5,3-9.5,3"/>
		</g>
	</g>
	<g>
		<g>
			<path fill="#E24B4B" d="M31.7,17.3l1.7-2.2c0,0,0.8-0.5,0.6-2.2c-0.2-1.7-1.8-6.1-2.6-6.9c0,0-4.4,3.7-7,6.9S13.9,25.4,9.6,20.1
				c0,0-1.3,0.9-3.8,1c-2.5,0.1-4.3,1.3-3.5,3.4L3.5,26c0,0,11.8,3.3,13.8,2.3c2-1,3.5-3.7,5-5.6c1.6-1.9,4.4-4.1,6-4.8
				C29.9,17.3,31.7,17.3,31.7,17.3z"/>
		</g>
	</g>
	<g>
		<g>
			<path fill="#3E4347" d="M33.4,15.2c-0.1,0.1-1.1,2.1-1.9,5.6c-0.6,2.9-0.8,6.9-0.9,8.1c0,0.2-0.2,0.4-0.4,0.4h-0.9
				c-0.2,0-0.4-0.2-0.4-0.4c0.1-1.9,0.4-9.4-1-10.6c0,0-2.2,0.9-5.3,4.5c-0.9,1-1.6,2.1-2.2,3.3c-0.9,1.6-2.7,4.1-5.3,4
				c-3.7-0.2-14.7-2.4-12.9-5.6c0,0,2.8,1.5,9,2.5c6.2,1,7.1,0.5,8.1-0.6c0.9-1.1,3.8-5.1,6.6-7.2C28.6,17.1,33.1,15.3,33.4,15.2z"
				/>
		</g>
	</g>
</g>
</svg>
