<?xml version="1.0" encoding="utf-8"?>
<!-- Generator: Adobe Illustrator 18.0.0, SVG Export Plug-In . SVG Version: 6.00 Build 0)  -->
<!DOCTYPE svg PUBLIC "-//W3C//DTD SVG 1.1//EN" "http://www.w3.org/Graphics/SVG/1.1/DTD/svg11.dtd">
<svg version="1.1" id="Layer_1" xmlns="http://www.w3.org/2000/svg" xmlns:xlink="http://www.w3.org/1999/xlink" x="0px" y="0px"
	 viewBox="0 0 36 36" enable-background="new 0 0 36 36" xml:space="preserve">
<g>
	<g>
		<path fill="#89664C" d="M22.3,20.5c0-0.2,0.2-0.4,0.4-0.4s0.4,0.2,0.4,0.4c0,0.2-0.2,0.4-0.4,0.4S22.3,20.7,22.3,20.5z M20.4,18.7
			c0-0.2,0.2-0.4,0.4-0.4s0.4,0.2,0.4,0.4S21,19,20.8,19S20.4,18.9,20.4,18.7z M18.7,16.7c0-0.2,0.2-0.4,0.4-0.4s0.4,0.2,0.4,0.4
			s-0.2,0.4-0.4,0.4S18.7,16.9,18.7,16.7z M17.5,14.4c0-0.2,0.2-0.4,0.4-0.4s0.4,0.2,0.4,0.4s-0.2,0.4-0.4,0.4S17.5,14.6,17.5,14.4z
			 M16.3,11.8c0-0.2,0.2-0.4,0.4-0.4s0.4,0.2,0.4,0.4s-0.2,0.4-0.4,0.4S16.3,12,16.3,11.8z M15.7,9.2c0-0.2,0.2-0.4,0.4-0.4
			c0.2,0,0.4,0.2,0.4,0.4s-0.2,0.4-0.4,0.4C15.9,9.6,15.7,9.4,15.7,9.2z"/>
	</g>
	<g>
		<path fill="#89664C" d="M2.1,20.3l6,2.2c5.2,0.5,8.7,3.1,10.4,4.4c1.7,1.3,7.6,1.4,11.2,0.4c3.6-1,3.9-2.8,3.9-2.8
			c-0.2-2.1-2.3-2.7-4.9-2.7c-2.6,0-4.4-2-4.4-2c-4.4-3.4-6.1-8.8-6.7-11.4C17.3,7.5,16.6,7,15.7,7H4.6C3.9,7,3.2,7.6,3.2,8.4
			c-0.1,1.4-0.3,3.2-0.3,3.2C1.6,14.2,2.1,20.3,2.1,20.3z"/>
	</g>
	<g>
		<g>
			<g>
				<path fill="#DEE4E9" d="M19.9,16.2c0.1,0,0.2,0,0.2-0.1c0,0,0.3-0.5,0.5-1.1c0.3-0.8,0.3-1.5,0.1-1.9c-0.2-0.4-0.5-0.6-1-0.6
					c-0.1,0-0.3,0.1-0.3,0.2c0,0.1,0.1,0.3,0.2,0.3c0.3,0,0.5,0.1,0.6,0.3c0.3,0.6-0.3,2-0.5,2.5c-0.1,0.1,0,0.3,0.1,0.3
					C19.8,16.2,19.9,16.2,19.9,16.2z"/>
			</g>
		</g>
		<g>
			<g>
				<g>
					<path fill="#5C4533" d="M17.1,14.4c0-0.4,0.3-0.7,0.7-0.7c0.4,0,0.7,0.3,0.7,0.7c0,0.4-0.3,0.7-0.7,0.7
						C17.5,15.1,17.1,14.8,17.1,14.4z M17.5,14.4c0,0.2,0.2,0.4,0.4,0.4s0.4-0.2,0.4-0.4S18.1,14,17.8,14S17.5,14.2,17.5,14.4z"/>
				</g>
			</g>
		</g>
		<g>
			<g>
				<g>
					<path fill="#DEE4E9" d="M17.8,14.6c0,0,0.1,0,0.1,0c0.2-0.1,1.6-1,1.6-1.9c0-0.1-0.1-0.2-0.3-0.2c-0.1,0-0.2,0.1-0.2,0.3
						c0,0.5-0.8,1.2-1.3,1.5c-0.1,0.1-0.2,0.2-0.1,0.3C17.6,14.6,17.7,14.6,17.8,14.6z"/>
				</g>
			</g>
		</g>
		<g>
			<g>
				<g>
					<path fill="#6B503B" d="M15.7,14.4c-1-2.2-1.8-4.7-2.3-7.5h0.7c1,5.7,3.1,10.1,6.5,13.4c1,1,1.3,2.5,0.8,3.8
						c-0.6,1.4-1.2,2.8-1.4,3.3c-0.2-0.1-0.5-0.1-0.7-0.2c0.2-0.4,0.9-1.9,1.5-3.4c0.4-1,0.2-2.2-0.6-3
						C18.3,19.1,16.8,16.9,15.7,14.4z"/>
				</g>
				<g>
					<path fill="#89664C" d="M19.9,27.5c-0.2-0.1-0.5-0.1-0.7-0.2l0,0l0,0c0.2-0.4,0.9-1.9,1.5-3.4c0.4-1,0.2-2.2-0.6-3
						c-1.8-1.8-3.3-4-4.4-6.4l0,0l0,0c-1-2.2-1.8-4.7-2.3-7.5l0,0h0.8l0,0c1,5.7,3.1,10.1,6.5,13.4c1,1,1.3,2.5,0.8,3.8
						C20.8,25.6,20.2,27,19.9,27.5L19.9,27.5L19.9,27.5z M13.4,7c0.5,2.8,1.3,5.3,2.3,7.5c1.1,2.5,2.6,4.6,4.4,6.4
						c0.8,0.8,1,2,0.6,3c-0.6,1.4-1.2,2.9-1.5,3.3c0.2,0.1,0.4,0.1,0.6,0.2c0.3-0.5,0.9-1.9,1.4-3.3c0.5-1.3,0.2-2.8-0.8-3.8
						C17.2,17,15.1,12.6,14.1,7H13.4z"/>
				</g>
			</g>
			<g>
				<g>
					<path fill="#6B503B" d="M22.6,27c0.7-1.2,1.3-3.1,1.6-4.9c0.2-0.9,0.2-1.6,0.2-2.2c0.2,0.2,0.4,0.4,0.7,0.6
						c0,0.6-0.1,1.2-0.2,1.7c-0.3,1.8-1,3.8-1.7,5.1c-0.1,0.2-0.2,0.4-0.3,0.5c-0.3,0-0.6,0-0.9-0.1C22.2,27.6,22.4,27.4,22.6,27z"
						/>
				</g>
				<g>
					<path fill="#89664C" d="M22.9,27.9c-0.3,0-0.6,0-0.9-0.1l0,0l0,0c0.2-0.2,0.4-0.5,0.6-0.8l0,0c0.7-1.2,1.3-3.1,1.6-4.9
						c0.2-0.8,0.2-1.6,0.2-2.2l0,0l0,0c0.1,0.1,0.4,0.4,0.7,0.6l0,0l0,0c0,0.5-0.1,1.1-0.2,1.7c-0.3,1.9-1,3.8-1.7,5.1
						C23.2,27.6,23.1,27.7,22.9,27.9L22.9,27.9L22.9,27.9z M24.5,20c0,0.6-0.1,1.3-0.2,2.1c-0.3,1.8-1,3.7-1.6,4.9l0,0
						c-0.2,0.3-0.4,0.6-0.5,0.8c0.3,0,0.5,0,0.8,0.1c0.1-0.2,0.2-0.3,0.3-0.5c0.7-1.2,1.4-3.2,1.7-5.1c0.1-0.6,0.2-1.2,0.2-1.7
						C24.9,20.4,24.6,20.2,24.5,20z"/>
				</g>
			</g>
			<g>
				<g>
					<path fill="#6B503B" d="M2.8,11.6c0,0,0-0.1,0.1-0.4c2.4,0.5,4.1,1.1,5.6,1.7c0.9,0.4,1.5,1.2,1.5,2.2l0.5,7.8
						c-0.2-0.1-0.5-0.1-0.7-0.2l-0.5-7.6c0-0.7-0.5-1.3-1.1-1.6c-1.4-0.6-3.1-1.2-5.5-1.7C2.8,11.8,2.8,11.7,2.8,11.6z"/>
				</g>
				<g>
					<path fill="#89664C" d="M10.5,22.9c-0.2-0.1-0.5-0.1-0.7-0.2l0,0l-0.5-7.6c0-0.7-0.5-1.3-1.1-1.6c-1.4-0.7-3.1-1.2-5.5-1.7l0,0
						l0,0c0-0.1,0.1-0.2,0.1-0.3c0,0,0-0.2,0.1-0.4l0,0l0,0c2.4,0.5,4.1,1.1,5.6,1.7c0.9,0.4,1.5,1.2,1.5,2.2L10.5,22.9L10.5,22.9z
						 M2.9,11.6L2.9,11.6c0,0.1-0.1,0.2-0.1,0.3c2.4,0.5,4,1,5.5,1.7c0.6,0.3,1.1,0.9,1.1,1.6l0.5,7.6c0.2,0,0.5,0.1,0.7,0.1
						L10,15.1c-0.1-1-0.6-1.8-1.5-2.2c-1.5-0.7-3.2-1.2-5.6-1.7C2.9,11.4,2.9,11.6,2.9,11.6z"/>
				</g>
			</g>
		</g>
		<g>
			<g>
				<g>
					<path fill="#3E4347" d="M2,20l2.1,8.7c0,0.2,0.2,0.3,0.4,0.3h5c0.2,0,0.4-0.2,0.4-0.4v-5.6c7.8,1.9,8.5,6.4,14.5,6
						c6-0.4,9.3-2.2,9.5-2.6c0.1-0.3,0.1-1.3,0.1-1.7c0-0.1-0.1-0.3-0.2-0.3c-0.1-0.1-0.2,0-0.2,0c-1.1,1.8-8,2.6-9.2,2.7
						c-1.1,0.1-3.5,0.4-6.2-1.4c-2.6-1.8-6.5-3.2-8.3-3.7c-1.7-0.4-6.6-1.9-7.7-2.3C2.1,19.8,2,19.9,2,20z"/>
				</g>
			</g>
		</g>
		<g>
			<g>
				<g>
					<circle fill="#5C4533" cx="7.9" cy="15.3" r="0.8"/>
				</g>
			</g>
		</g>
		<g>
			<g>
				<g>
					<path fill="#5C4533" d="M15.4,9.2c0-0.4,0.3-0.7,0.7-0.7c0.4,0,0.7,0.3,0.7,0.7c0,0.4-0.3,0.7-0.7,0.7
						C15.7,9.9,15.4,9.6,15.4,9.2z M15.7,9.2c0,0.2,0.2,0.4,0.4,0.4c0.2,0,0.4-0.2,0.4-0.4s-0.2-0.4-0.4-0.4
						C15.9,8.8,15.7,9,15.7,9.2z"/>
				</g>
			</g>
		</g>
		<g>
			<g>
				<g>
					<path fill="#5C4533" d="M15.9,11.8c0-0.4,0.3-0.7,0.7-0.7c0.4,0,0.7,0.3,0.7,0.7s-0.3,0.7-0.7,0.7
						C16.3,12.5,15.9,12.2,15.9,11.8z M16.3,11.8c0,0.2,0.2,0.4,0.4,0.4S17,12,17,11.8s-0.2-0.4-0.4-0.4S16.3,11.6,16.3,11.8z"/>
				</g>
			</g>
		</g>
		<g>
			<g>
				<g>
					<path fill="#5C4533" d="M18.4,16.7c0-0.4,0.3-0.7,0.7-0.7s0.7,0.3,0.7,0.7c0,0.4-0.3,0.7-0.7,0.7S18.4,17.1,18.4,16.7z
						 M18.7,16.7c0,0.2,0.2,0.4,0.4,0.4s0.4-0.2,0.4-0.4s-0.2-0.4-0.4-0.4S18.7,16.5,18.7,16.7z"/>
				</g>
			</g>
		</g>
		<g>
			<g>
				<g>
					<path fill="#5C4533" d="M20.1,18.7c0-0.4,0.3-0.7,0.7-0.7s0.7,0.3,0.7,0.7s-0.3,0.7-0.7,0.7S20.1,19.1,20.1,18.7z M20.4,18.7
						c0,0.2,0.2,0.4,0.4,0.4s0.4-0.2,0.4-0.4s-0.2-0.4-0.4-0.4S20.4,18.5,20.4,18.7z"/>
				</g>
			</g>
		</g>
		<g>
			<g>
				<g>
					<path fill="#5C4533" d="M22,20.5c0-0.4,0.3-0.7,0.7-0.7s0.7,0.3,0.7,0.7c0,0.4-0.3,0.7-0.7,0.7S22,20.9,22,20.5z M22.3,20.5
						c0,0.2,0.2,0.4,0.4,0.4s0.4-0.2,0.4-0.4c0-0.2-0.2-0.4-0.4-0.4S22.3,20.3,22.3,20.5z"/>
				</g>
			</g>
		</g>
		<g>
			<g>
				<g>
					<g>
						<path fill="#DEE4E9" d="M19.6,13c0.1,0,0.2-0.1,0.2-0.2c0-0.1-0.1-0.3-0.2-0.3c-1.9-0.2-2.8-0.8-2.9-0.9
							c-0.1-0.1-0.3-0.1-0.3,0.1c-0.1,0.1-0.1,0.3,0.1,0.3C16.5,12,17.6,12.8,19.6,13C19.6,13,19.6,13,19.6,13z"/>
					</g>
				</g>
			</g>
		</g>
		<g>
			<g>
				<g>
					<path fill="#DEE4E9" d="M20,17.1c0.5,0,1.2-0.2,1.7-1.1c0.3-0.5,0.3-1,0.1-1.3c-0.3-0.6-1.2-0.6-1.3-0.6
						c-0.1,0-0.3,0.1-0.3,0.2c0,0.1,0.1,0.3,0.2,0.3c0.2,0,0.7,0.1,0.9,0.4c0.1,0.2,0.1,0.5-0.1,0.8c-0.7,1.3-2,0.7-2.1,0.6
						c-0.1-0.1-0.3,0-0.3,0.1c-0.1,0.1,0,0.3,0.1,0.3C19,16.9,19.4,17.1,20,17.1C20,17.1,20,17.1,20,17.1z"/>
				</g>
			</g>
		</g>
		<g>
			<g>
				<g>
					<path fill="#DEE4E9" d="M21.6,18.6c0.4-0.4,0.7-1.3,0.5-1.9c-0.1-0.4-0.4-0.6-0.9-0.6c-0.1,0-0.3,0.1-0.3,0.2
						c0,0.1,0.1,0.3,0.2,0.3c0.8,0.1,0.5,1.2,0,1.7c-0.1,0.1-0.2,0.2-0.4,0.2c-0.1,0-0.3,0-0.3,0.2c0,0.1,0,0.3,0.2,0.3
						C21,19,21.4,18.9,21.6,18.6z"/>
				</g>
			</g>
		</g>
		<g>
			<g>
				<g>
					<path fill="#DEE4E9" d="M22.7,20.8C22.7,20.8,22.7,20.8,22.7,20.8c0.3,0,0.6-0.3,0.7-0.9c0.2-1-0.1-2.5-1.4-3.2
						c-0.1-0.1-0.3,0-0.3,0.1c-0.1,0.1,0,0.3,0.1,0.3c1.1,0.6,1.3,1.8,1.2,2.6c-0.1,0.4-0.2,0.6-0.3,0.6c-0.1,0-0.2,0.1-0.2,0.3
						C22.5,20.7,22.6,20.8,22.7,20.8z"/>
				</g>
			</g>
		</g>
		<g>
			<g>
				<g>
					<path fill="#DEE4E9" d="M22.9,16c0.1-0.1,0.1-0.3,0-0.4c-0.1-0.1-0.2-0.5-0.3-0.8c-0.1-0.4-0.2-0.9-0.4-1
						c-0.1-0.1-0.2-0.1-0.5-0.1c-0.2,0-0.4,0.1-0.5,0.1c0.2-0.3,0.5-0.8,0.4-1.2c0-0.1-0.1-0.2-0.3-0.2c-0.1,0-0.2,0.1-0.2,0.3
						c0,0.5-0.5,1.2-0.7,1.4c-0.1,0.1-0.1,0.2,0,0.3c0.1,0.1,0.2,0.1,0.3,0.1c0,0,0.5-0.1,1.2-0.3c0.1,0,0.1,0,0.1,0
						c0.1,0.1,0.2,0.4,0.2,0.7c0.1,0.4,0.2,0.9,0.4,1.1C22.7,16.1,22.8,16.1,22.9,16z"/>
				</g>
			</g>
		</g>
	</g>
</g>
</svg>
