<?xml version="1.0" encoding="utf-8"?>
<!-- Generator: Adobe Illustrator 18.0.0, SVG Export Plug-In . SVG Version: 6.00 Build 0)  -->
<!DOCTYPE svg PUBLIC "-//W3C//DTD SVG 1.1//EN" "http://www.w3.org/Graphics/SVG/1.1/DTD/svg11.dtd">
<svg version="1.1" id="Layer_1" xmlns="http://www.w3.org/2000/svg" xmlns:xlink="http://www.w3.org/1999/xlink" x="0px" y="0px"
	 viewBox="0 0 36 36" enable-background="new 0 0 36 36" xml:space="preserve">
<g>
	<g>
		<g>
			<g>
				<path fill="#3E4347" d="M29.4,26.3c-0.1,0-0.2,0-0.3-0.1c-0.4-0.2-0.6-0.6-0.4-1c1-2.6-0.9-8.4-4.3-12.7c-2.5-3.2-4.8-4.4-6-4.2
					c-0.5,0.1-0.9,0.4-1.1,1c-0.2,0.4-0.6,0.6-1,0.4c-0.4-0.2-0.6-0.6-0.4-1c0.4-1.1,1.3-1.8,2.3-2c2.1-0.3,4.9,1.5,7.5,4.8
					c3.7,4.8,5.7,11.1,4.5,14.2C30,26.1,29.7,26.3,29.4,26.3z"/>
			</g>
		</g>
	</g>
	<g>
		<g>
			<g>
				<path fill="#FFD93B" d="M22.1,2H11c-0.4,0-0.8,0.2-1.1,0.4l-4,4C5.7,6.7,5.5,7.1,5.5,7.5v23.4c0,0.4,0.2,0.8,0.4,1.1l1.6,1.6
					C7.8,33.8,8.2,34,8.6,34h15.9c0.4,0,0.8-0.2,1.1-0.4l1.6-1.6c0.3-0.3,0.4-0.7,0.4-1.1V7.5c0-0.4-0.2-0.8-0.4-1.1
					c-1.5-1.5-2.5-2.5-4-4C22.9,2.2,22.5,2,22.1,2z M16.5,10.3c-0.8,0-1.4-0.6-1.4-1.4c0-0.8,0.6-1.4,1.4-1.4c0.8,0,1.4,0.6,1.4,1.4
					C17.9,9.7,17.3,10.3,16.5,10.3z"/>
			</g>
		</g>
	</g>
	<g>
		<g>
			<g>
				<path fill="#F4C534" d="M22.5,20.5c-3.5-3.4-5.4-7.5-5.4-10h-1.5c0,3.2,2.3,7.7,5.8,11.1c2.1,2.1,4.3,3.4,6.1,3.8v-1.6
					C26.1,23.4,24.2,22.3,22.5,20.5z"/>
			</g>
		</g>
	</g>
	<g>
		<g>
			<path fill="#E9B02C" d="M16.5,7.6c0.8,0,1.4,0.6,1.4,1.4c0,0.8-0.6,1.4-1.4,1.4c-0.8,0-1.4-0.6-1.4-1.4
				C15.2,8.2,15.8,7.6,16.5,7.6 M16.5,6.4c-1.4,0-2.6,1.2-2.6,2.6s1.2,2.6,2.6,2.6s2.6-1.2,2.6-2.6S18,6.4,16.5,6.4L16.5,6.4z"/>
		</g>
	</g>
	<g>
		<g>
			<g>
				<g>
					<path fill="#3E4347" d="M27.3,27.8c-2,0-4.6-1.8-7-4.9c-3.7-4.8-5.7-11.1-4.5-14.2c0.2-0.4,0.6-0.6,1-0.4
						c0.4,0.2,0.6,0.6,0.4,1c-1,2.6,0.9,8.4,4.3,12.7c2.5,3.2,4.8,4.4,6,4.2c0.5-0.1,0.9-0.4,1.1-1c0.2-0.4,0.6-0.6,1-0.4
						c0.4,0.2,0.6,0.6,0.4,1C29.6,27.1,28.6,27.8,27.3,27.8z"/>
				</g>
			</g>
		</g>
	</g>
</g>
</svg>
