<?xml version="1.0" encoding="utf-8"?>
<!-- Generator: Adobe Illustrator 18.0.0, SVG Export Plug-In . SVG Version: 6.00 Build 0)  -->
<!DOCTYPE svg PUBLIC "-//W3C//DTD SVG 1.1//EN" "http://www.w3.org/Graphics/SVG/1.1/DTD/svg11.dtd">
<svg version="1.1" id="Layer_1" xmlns="http://www.w3.org/2000/svg" xmlns:xlink="http://www.w3.org/1999/xlink" x="0px" y="0px"
	 viewBox="0 0 36 36" enable-background="new 0 0 36 36" xml:space="preserve">
<g>
	<g>
		<g>
			<path fill="#E18823" d="M29.2,28.1c-0.3,0.8-0.7,1.5-1.2,2.2c-1.3,1.8-3.3,3-5.4,3.3c-3,0.4-5.9,0.5-8.7,0.1
				c-2.3-0.3-4.4-1.5-5.8-3.4c-0.5-0.7-0.9-1.5-1.2-2.2c-2.8-6.9,6.7-14.3,7.3-14.9c1.5-1.7,1.2-1.6-2-7.4c-0.1-0.1,0-0.4,0.2-0.4
				c1.4-0.5,2.7-0.8,4.1-1c0-1.1,0.9-1.9,2.1-1.9c1.1,0,2.1,0.8,2.1,1.9c1.1,0.2,2.2,0.5,3.3,1.1c0.1,0.1,0.2,0.3,0.1,0.4
				c-3.2,5.8-3.6,5.6-2,7.4C22.4,13.8,31.9,21.2,29.2,28.1z"/>
		</g>
	</g>
	<g>
		<g>
			<path fill="#CF7519" d="M29.2,28.1c-0.3,0.8-0.7,1.5-1.2,2.2c-1.3,1.8-3.3,3-5.4,3.3c-2.2,0.3-4.4,0.4-6.6,0.3
				c6.9-3,16.9-9.4,6-20.7C22.4,13.8,31.9,21.2,29.2,28.1z"/>
		</g>
	</g>
	<g>
		<g>
			<path fill="#CF7519" d="M21.7,6.5c-1.1-0.3-1.9-1.3-2.1-2.4c0-0.3-0.1-0.7-0.3-0.9c-0.2-0.2-0.5-0.3-0.8-0.2
				c-1.5,0.2-1.8,2.7-3.2,3.7c-2.4,1.7-4.9-1.6-2.7-3.2c0.6-0.4,1.5-0.4,2,0.1c0.4,0.3,0.2,0.3,0.7,0.6c0.3,0.2,0.6,0.2,0.8-0.4
				c0.3-0.8,0.5-1.4,1.5-1.6c0.6-0.2,1.3,0,1.8,0.4c0.5,0.4,0.8,1.1,1.3,1.4c0.5,0.3,1.1,0.2,1.6,0.3C25.2,4.3,24.1,7.3,21.7,6.5z"
				/>
		</g>
	</g>
	<g>
		<g>
			<path fill="#FFFFFF" d="M17.5,27.8v-2.9c-0.9-0.3-1.6-0.7-2-1.2c-0.4-0.5-0.6-1.2-0.6-1.9c0-0.8,0.2-1.4,0.7-1.9
				c0.5-0.5,1.1-0.8,1.9-0.9v-0.7h1v0.7c0.7,0.1,1.3,0.3,1.8,0.8c0.4,0.4,0.7,1,0.8,1.7l-1.8,0.2c-0.1-0.6-0.4-0.9-0.8-1.1v2.7
				c1.1,0.3,1.9,0.7,2.3,1.2c0.4,0.5,0.6,1.1,0.6,1.9c0,0.8-0.3,1.6-0.8,2.1c-0.5,0.6-1.2,0.9-2.1,1.1v1.3h-1v-1.3
				c-0.8-0.1-1.5-0.4-2-0.9c-0.5-0.5-0.8-1.2-1-2.1l1.8-0.2c0.1,0.4,0.2,0.7,0.4,1C17,27.5,17.3,27.7,17.5,27.8z M17.5,20.5
				c-0.3,0.1-0.5,0.3-0.7,0.5c-0.2,0.2-0.2,0.5-0.2,0.7c0,0.2,0.1,0.5,0.2,0.7c0.1,0.2,0.4,0.4,0.7,0.5V20.5z M18.5,27.9
				c0.4-0.1,0.6-0.2,0.9-0.5c0.2-0.3,0.3-0.6,0.3-0.9c0-0.3-0.1-0.6-0.3-0.8c-0.2-0.2-0.5-0.4-0.9-0.5V27.9z"/>
		</g>
	</g>
	<g>
		<g>
			<g>
				<g>
					<path fill="#CF7519" d="M21.4,7.5c-0.9,1.3-2,4.4-0.7,5.9c1.1,1.4,3,2.1,4.4,4.7c-2.9-3.9-6.9-3.8-4.7-8.9
						C20.8,8.1,21.4,7.5,21.4,7.5z"/>
				</g>
			</g>
			<g>
				<g>
					<path fill="#CF7519" d="M14.6,7.5c0,0,0.6,0.6,1.1,1.7c2.2,5-1.9,5.1-4.7,8.9c2.3-4.2,6.4-3.8,4.5-8.8
						C15.1,8.2,14.6,7.5,14.6,7.5z"/>
				</g>
			</g>
		</g>
		<g>
			<g>
				<g>
					<path fill="#CF7519" d="M18.8,9.1c-0.4,2.3,0.3,4.9,2.6,7.4C18.4,14.4,18.1,10.9,18.8,9.1z"/>
				</g>
			</g>
			<g>
				<g>
					<path fill="#CF7519" d="M17.2,9.1c0.8,2,0.2,5.4-2.6,7.4C16.9,14.1,17.6,11.4,17.2,9.1z"/>
				</g>
			</g>
		</g>
	</g>
	<g>
		<g>
			<g>
				<g>
					<path fill="#3E4347" d="M26.2,21c0,0.3-0.2,0.6-0.5,0.6c0,0,0,0,0,0c-0.3,0-0.5-0.2-0.5-0.4c0-0.1-0.4-0.8-2.6-3.2
						c-1.5-1.7-2.5-3.3-3-4.4c-0.3,0.8-0.8,1.7-1.6,2.3c-0.7,0.5-1.6,0.7-2.6,0.5c-0.3-0.1-0.5-0.4-0.4-0.7c0.1-0.3,0.4-0.5,0.7-0.4
						c0.7,0.1,1.2,0.1,1.7-0.3c0.8-0.6,1.2-1.7,1.4-2.5c-0.2,0-0.5,0-0.7,0c-1.2,0-2.4-0.2-3.6-0.5c-0.3-0.1-0.5-0.4-0.4-0.7
						c0.1-0.3,0.4-0.5,0.7-0.4c2.2,0.6,4.4,0.6,6.5,0c0.3-0.1,0.6,0.1,0.7,0.4c0.1,0.3-0.1,0.6-0.4,0.7c-0.4,0.1-0.9,0.2-1.3,0.3
						c0.4,1,1.3,2.9,3.2,4.9C25.3,19.3,26.2,20.5,26.2,21z"/>
				</g>
			</g>
		</g>
	</g>
</g>
</svg>
