<?xml version="1.0" encoding="utf-8"?>
<!-- Generator: Adobe Illustrator 18.0.0, SVG Export Plug-In . SVG Version: 6.00 Build 0)  -->
<!DOCTYPE svg PUBLIC "-//W3C//DTD SVG 1.1//EN" "http://www.w3.org/Graphics/SVG/1.1/DTD/svg11.dtd">
<svg version="1.1" id="Layer_1" xmlns="http://www.w3.org/2000/svg" xmlns:xlink="http://www.w3.org/1999/xlink" x="0px" y="0px"
	 viewBox="0 0 36 36" enable-background="new 0 0 36 36" xml:space="preserve">
<g>
	<g>
		<g>
			<g>
				<ellipse fill="#FFD93B" cx="9.5" cy="26.2" rx="5.8" ry="6.1"/>
			</g>
		</g>
		<g>
			<g>
				<ellipse fill="#FFD93B" cx="26.5" cy="26.2" rx="5.8" ry="6.1"/>
			</g>
		</g>
		<g>
			<g>
				<path fill="#FFD93B" d="M26.5,21.8c0,11-3.8,12.2-8.5,12.2s-8.5-1.3-8.5-12.2C9.5,12.9,13.3,2,18,2S26.5,12.9,26.5,21.8z"/>
			</g>
		</g>
		<g>
			<g>
				<path fill="#F4C534" d="M32.3,26.3c0,3.3-2.6,6.1-5.8,6.1c-0.8,0-1.5-0.2-2.2-0.5C22.7,33.7,20.5,34,18,34
					c-2.5,0-4.7-0.3-6.2-2.1c-0.7,0.3-1.4,0.5-2.2,0.5c-3.2,0-5.8-2.7-5.8-6.1c0-1.1,0.3-2.2,0.8-3.1c0,0.7,0.2,1.6,1,2.2
					c1.6,1.1,3.6-0.6,4.1,1c0.5,1.5,2.7,6.4,8.3,6.4c5.6,0,7.8-4.9,8.3-6.4c0.5-1.5,2.6,0.1,4.2-1c0.8-0.6,1-1.5,1-2.2
					C32,24,32.3,25.1,32.3,26.3z"/>
			</g>
		</g>
		<g>
			<g>
				<g>
					<g>
						<path fill="#E9B02C" d="M8.8,28.1c-0.7-0.8-1.6-1-2.1-0.5c-0.8,0.6-0.4,2-0.1,2.6c0.7,1.2,2.3,1.6,3.4,1.5
							C10,31.5,9.5,28.8,8.8,28.1z"/>
					</g>
				</g>
				<g>
					<g>
						<path fill="#DE9C25" d="M9.2,29.1c-0.5-0.6-1.1-0.7-1.5-0.4c-0.6,0.5-0.3,1.4-0.1,1.8c0.5,0.9,1.6,1.2,2.4,1.1
							C10,31.6,9.6,29.7,9.2,29.1z"/>
					</g>
				</g>
			</g>
		</g>
		<g>
			<g>
				<g>
					<g>
						<path fill="#E9B02C" d="M27.2,28.1c0.7-0.8,1.6-1,2.1-0.5c0.8,0.6,0.4,2,0.1,2.6c-0.7,1.2-2.3,1.6-3.4,1.5
							C26,31.5,26.5,28.8,27.2,28.1z"/>
					</g>
				</g>
			</g>
		</g>
		<g opacity="0.2">
			<g>
				<path fill="#FFFFFF" d="M24.4,25.9c-1.3,3-4.7,4.7-5.6,2c-0.7-2.2,4-0.7,4.5-4.4c0.4-2.7,0.5-8.6-1.5-14.1l0,0
					c1.5,2,2.4,4.4,2.8,6.8C25.2,19.8,25.3,23.7,24.4,25.9z"/>
			</g>
		</g>
	</g>
	<g>
		<g>
			<g>
				<g>
					<path fill="#DE9C25" d="M26.8,29.1c0.5-0.6,1.1-0.7,1.5-0.4c0.6,0.5,0.3,1.4,0.1,1.8c-0.5,0.9-1.6,1.2-2.4,1.1
						C26,31.6,26.4,29.7,26.8,29.1z"/>
				</g>
			</g>
		</g>
	</g>
</g>
</svg>
