<?xml version="1.0" encoding="utf-8"?>
<!-- Generator: Adobe Illustrator 18.0.0, SVG Export Plug-In . SVG Version: 6.00 Build 0)  -->
<!DOCTYPE svg PUBLIC "-//W3C//DTD SVG 1.1//EN" "http://www.w3.org/Graphics/SVG/1.1/DTD/svg11.dtd">
<svg version="1.1" id="Layer_1" xmlns="http://www.w3.org/2000/svg" xmlns:xlink="http://www.w3.org/1999/xlink" x="0px" y="0px"
	 viewBox="0 0 36 36" enable-background="new 0 0 36 36" xml:space="preserve">
<g>
	<g>
		<path fill="#BF7B90" d="M34,11.7v16.8c0,1-0.8,1.8-1.8,1.8H3.8c-1,0-1.8-0.8-1.8-1.8V11.7c0-1,0.8-1.8,1.8-1.8h28.4
			C33.2,9.9,34,10.7,34,11.7z"/>
	</g>
	<g>
		<path fill="#D3849B" d="M34,9.6v16.8c0,1-0.8,1.8-1.8,1.8H3.8c-1,0-1.8-0.8-1.8-1.8V9.6c0-1,0.8-1.8,1.8-1.8h28.4
			C33.2,7.9,34,8.6,34,9.6z"/>
	</g>
	<g>
		<path fill="#E88EA7" d="M34,7.5v16.8c0,1-0.8,1.8-1.8,1.8H3.8c-1,0-1.8-0.8-1.8-1.8V7.5c0-1,0.8-1.8,1.8-1.8h28.4
			C33.2,5.8,34,6.6,34,7.5z"/>
	</g>
	<g>
		<path fill="#FC97B2" d="M4.5,19.8V12c2.1,0,3.8-1.7,3.8-3.8h19.4c0,2.1,1.7,3.8,3.8,3.8v7.7c-2.1,0-3.8,1.7-3.8,3.8H8.3
			C8.3,21.5,6.6,19.8,4.5,19.8z"/>
	</g>
	<g>
		<path fill="#E88EA7" d="M24.5,15.9c0,4.8-2.9,8.7-6.5,8.7s-6.5-3.9-6.5-8.7c0-4.8,2.9-8.7,6.5-8.7S24.5,11.1,24.5,15.9z"/>
	</g>
	<g>
		<path fill="#E88EA7" d="M9.7,15.9c0,0.8-0.7,1.5-1.5,1.5c-0.8,0-1.5-0.7-1.5-1.5c0-0.8,0.7-1.5,1.5-1.5
			C9.1,14.4,9.7,15.1,9.7,15.9z"/>
	</g>
	<g>
		<path fill="#E88EA7" d="M29.3,15.9c0,0.8-0.7,1.5-1.5,1.5c-0.8,0-1.5-0.7-1.5-1.5c0-0.8,0.7-1.5,1.5-1.5
			C28.6,14.4,29.3,15.1,29.3,15.9z"/>
	</g>
	<g>
		<rect x="24.5" y="5.8" fill="#E9EFF4" width="4.3" height="20.3"/>
	</g>
	<g>
		<rect x="24.5" y="26.1" fill="#D3D9DD" width="4.3" height="4.2"/>
	</g>
	<g>
		<rect x="7.2" y="5.8" fill="#E9EFF4" width="4.3" height="20.3"/>
	</g>
	<g>
		<rect x="7.2" y="26.1" fill="#D3D9DD" width="4.3" height="4.2"/>
	</g>
	<g>
		<path fill="#FFFFFF" d="M20,18l0.5,1.1c-0.3,0.2-0.8,0.3-1.3,0.3c-0.3,0-0.7-0.1-1.1-0.2c-0.5-0.1-0.8-0.2-1-0.2
			c-0.4,0-0.8,0.1-1.2,0.4l-0.5-1.1c0.4-0.3,0.6-0.5,0.8-0.8c0.2-0.4,0.3-0.7,0.2-1.1h-1v-1h0.7C16.1,15,16,14.7,16,14.3
			c0-0.3,0.1-0.7,0.3-1c0.2-0.3,0.4-0.5,0.8-0.7c0.3-0.2,0.7-0.2,1.1-0.2c0.6,0,1.1,0.2,1.5,0.5c0.4,0.3,0.6,0.8,0.7,1.3L19,14.4
			c-0.1-0.3-0.2-0.6-0.3-0.7c-0.3-0.3-0.9-0.3-1.2,0c-0.3,0.3-0.3,0.7-0.2,1.1c0,0.2,0.1,0.4,0.2,0.6h1.5v1h-1.2
			c0,0.3,0,0.6-0.1,0.9c-0.1,0.2-0.3,0.5-0.6,0.8c0.2-0.1,0.4-0.1,0.6-0.1c0.6,0,0.9,0.3,1.4,0.3C19.3,18.3,19.7,18.2,20,18z"/>
	</g>
</g>
</svg>
