<?xml version="1.0" encoding="utf-8"?>
<!-- Generator: Adobe Illustrator 18.0.0, SVG Export Plug-In . SVG Version: 6.00 Build 0)  -->
<!DOCTYPE svg PUBLIC "-//W3C//DTD SVG 1.1//EN" "http://www.w3.org/Graphics/SVG/1.1/DTD/svg11.dtd">
<svg version="1.1" id="Layer_1" xmlns="http://www.w3.org/2000/svg" xmlns:xlink="http://www.w3.org/1999/xlink" x="0px" y="0px"
	 viewBox="0 0 36 36" enable-background="new 0 0 36 36" xml:space="preserve">
<g>
	<g>
		<g>
			<g>
				<path fill="#E9EFF4" d="M20.8,17.3c0,0,1.3-2,1.5-4c0.3-2.7,8.5-4.8,11.1-4.8c2.6,0-4,2.9-4,2.9s5.1-1.7,2.8,0.1
					C30,13.2,29,13.8,29,13.8c0.5-0.4,5.9-3.4-0.2,2c0.6-0.5,3.7-1.9,0.2,1.6C26.2,20.2,20.8,20.6,20.8,17.3z"/>
			</g>
		</g>
		<g>
			<g>
				<path fill="#E9EFF4" d="M15.2,17.3c0,0-1.3-2-1.5-4c-0.3-2.7-8.5-4.8-11.1-4.8c-2.6,0,4,2.9,4,2.9s-5.1-1.7-2.8,0.1
					C6,13.2,7,13.8,7,13.8c-0.5-0.4-5.9-3.4,0.2,2C6.6,15.4,3.5,14,7,17.4C9.8,20.2,15.2,20.6,15.2,17.3z"/>
			</g>
		</g>
	</g>
	<g>
		<g>
			<g>
				<path fill="#7FB239" d="M28.5,15.6v10.7c0,0.7-0.5,1.2-1.2,1.2H8.7c-0.7,0-1.2-0.6-1.2-1.2V15.6c0-0.7,0.5-1.2,1.2-1.2h18.6
					C28,14.4,28.5,15,28.5,15.6z"/>
			</g>
			<g>
				<g>
					<path fill="#8CC63E" d="M9.5,23.4v-4.9c1.2,0,2.2-1,2.2-2.2h12.7c0,1.2,1,2.2,2.2,2.2v4.9c-1.2,0-2.2,1-2.2,2.2H11.6
						C11.6,24.4,10.7,23.4,9.5,23.4z"/>
				</g>
			</g>
		</g>
	</g>
	<g>
		<g>
			<ellipse fill="#7FB239" cx="18" cy="21" rx="3.2" ry="4.9"/>
		</g>
	</g>
	<g>
		<g>
			<g>
				<path fill="#7FB239" d="M13,21c0,0.6-0.5,1.1-1.1,1.1c-0.6,0-1.1-0.5-1.1-1.1c0-0.6,0.5-1.1,1.1-1.1C12.5,19.9,13,20.4,13,21z"
					/>
			</g>
		</g>
		<g>
			<g>
				<path fill="#7FB239" d="M25.2,21c0,0.6-0.5,1.1-1.1,1.1c-0.6,0-1.1-0.5-1.1-1.1c0-0.6,0.5-1.1,1.1-1.1
					C24.7,19.9,25.2,20.4,25.2,21z"/>
			</g>
		</g>
	</g>
	<g>
		<g>
			<path fill="#FFFFFF" d="M17.8,22.6v-1.4c-1.9-0.5-1.5-2.7,0-2.8V18h0.5v0.3c0.7,0.1,1.1,0.5,1.3,1.2l-0.8,0.1
				c-0.1-0.3-0.2-0.4-0.4-0.5v1.3c0.8,0.2,1.4,0.6,1.4,1.5c0,0.8-0.5,1.4-1.4,1.5V24h-0.5v-0.6c-0.8-0.1-1.3-0.6-1.4-1.5l0.9-0.1
				C17.3,22.2,17.5,22.5,17.8,22.6z M17.8,19c-0.5,0.2-0.6,0.9,0,1.2V19z M18.3,22.6c0.7-0.1,0.9-1.1,0-1.3V22.6z"/>
		</g>
	</g>
</g>
</svg>
