<?xml version="1.0" encoding="utf-8"?>
<!-- Generator: Adobe Illustrator 18.0.0, SVG Export Plug-In . SVG Version: 6.00 Build 0)  -->
<!DOCTYPE svg PUBLIC "-//W3C//DTD SVG 1.1//EN" "http://www.w3.org/Graphics/SVG/1.1/DTD/svg11.dtd">
<svg version="1.1" id="Layer_1" xmlns="http://www.w3.org/2000/svg" xmlns:xlink="http://www.w3.org/1999/xlink" x="0px" y="0px"
	 viewBox="0 0 36 36" enable-background="new 0 0 36 36" xml:space="preserve">
<g>
	<g>
		<g>
			<path fill="#4E99D2" d="M34,17.8v14c0,1.2-1,2.2-2.2,2.2h-23c-1.2,0-2.2-1-2.2-2.2v-14c0-1.2,1-2.2,2.2-2.2h23
				C33,15.6,34,16.6,34,17.8z"/>
		</g>
		<g>
			<rect x="6.6" y="19.4" fill="#3E4347" width="27.4" height="3.4"/>
		</g>
		<g>
			<rect x="10.4" y="24.1" fill="#E9EFF4" width="19.7" height="2.6"/>
		</g>
		<g>
			<path fill="#3E4347" d="M12.3,26h-0.2v-1c0,0-0.1,0.1-0.1,0.1c-0.1,0-0.1,0.1-0.2,0.1v-0.1c0.1,0,0.2-0.1,0.2-0.1
				c0.1-0.1,0.1-0.1,0.1-0.2h0.1V26z"/>
		</g>
		<g>
			<path fill="#3E4347" d="M13.5,25.9V26h-0.8c0,0,0-0.1,0-0.1c0-0.1,0.1-0.1,0.1-0.2c0-0.1,0.1-0.1,0.2-0.2
				c0.1-0.1,0.2-0.2,0.3-0.3c0-0.1,0.1-0.1,0.1-0.2c0-0.1,0-0.1-0.1-0.2c0,0-0.1-0.1-0.2-0.1c-0.1,0-0.1,0-0.2,0.1
				c0,0-0.1,0.1-0.1,0.2l-0.2,0c0-0.1,0.1-0.2,0.1-0.3c0.1-0.1,0.2-0.1,0.3-0.1c0.1,0,0.2,0,0.3,0.1c0.1,0.1,0.1,0.1,0.1,0.2
				c0,0,0,0.1,0,0.1c0,0-0.1,0.1-0.1,0.1c0,0.1-0.1,0.1-0.2,0.2c-0.1,0.1-0.1,0.1-0.2,0.2c0,0,0,0.1-0.1,0.1H13.5z"/>
		</g>
		<g>
			<path fill="#3E4347" d="M13.7,25.7l0.2,0c0,0.1,0,0.1,0.1,0.2c0,0,0.1,0.1,0.2,0.1c0.1,0,0.1,0,0.2-0.1c0,0,0.1-0.1,0.1-0.2
				c0-0.1,0-0.1-0.1-0.2c0,0-0.1-0.1-0.2-0.1c0,0-0.1,0-0.1,0l0-0.1c0,0,0,0,0,0c0.1,0,0.1,0,0.2-0.1c0.1,0,0.1-0.1,0.1-0.2
				c0-0.1,0-0.1-0.1-0.1c0,0-0.1-0.1-0.1-0.1c-0.1,0-0.1,0-0.1,0.1c0,0-0.1,0.1-0.1,0.2l-0.2,0c0-0.1,0.1-0.2,0.1-0.2
				s0.1-0.1,0.2-0.1c0.1,0,0.1,0,0.2,0c0.1,0,0.1,0.1,0.1,0.1c0,0,0,0.1,0,0.2c0,0.1,0,0.1,0,0.1c0,0-0.1,0.1-0.1,0.1
				c0.1,0,0.1,0.1,0.2,0.1c0,0.1,0.1,0.1,0.1,0.2c0,0.1,0,0.2-0.1,0.3C14.3,26,14.2,26,14.1,26c-0.1,0-0.2,0-0.3-0.1
				C13.7,25.9,13.7,25.8,13.7,25.7z"/>
		</g>
		<g>
			<path fill="#3E4347" d="M15.4,25.1l-0.1,0c0-0.1,0-0.1-0.1-0.1c0,0-0.1-0.1-0.2-0.1c0,0-0.1,0-0.1,0c0,0-0.1,0.1-0.1,0.2
				c0,0.1,0,0.2,0,0.3c0-0.1,0.1-0.1,0.1-0.1c0.1,0,0.1,0,0.2,0c0.1,0,0.2,0,0.3,0.1c0.1,0.1,0.1,0.2,0.1,0.3c0,0.1,0,0.1,0,0.2
				c0,0.1-0.1,0.1-0.1,0.2c-0.1,0-0.1,0.1-0.2,0.1c-0.1,0-0.2,0-0.3-0.1c-0.1-0.1-0.1-0.2-0.1-0.5c0-0.2,0-0.4,0.1-0.5
				c0.1-0.1,0.2-0.1,0.3-0.1c0.1,0,0.2,0,0.2,0.1C15.4,24.9,15.4,25,15.4,25.1z M14.8,25.6c0,0.1,0,0.1,0,0.1c0,0,0.1,0.1,0.1,0.1
				c0,0,0.1,0,0.1,0c0.1,0,0.1,0,0.2-0.1c0-0.1,0.1-0.1,0.1-0.2c0-0.1,0-0.2-0.1-0.2c0,0-0.1-0.1-0.2-0.1c-0.1,0-0.1,0-0.2,0.1
				C14.8,25.5,14.8,25.5,14.8,25.6z"/>
		</g>
		<g>
			<path fill="#3E4347" d="M16.2,25.7l0.2,0c0,0.1,0,0.1,0.1,0.2c0,0,0.1,0.1,0.2,0.1c0.1,0,0.1,0,0.2-0.1c0.1-0.1,0.1-0.1,0.1-0.2
				c0-0.1,0-0.2-0.1-0.2c0,0-0.1-0.1-0.2-0.1c0,0-0.1,0-0.1,0c0,0-0.1,0.1-0.1,0.1l-0.1,0l0.1-0.6H17v0.1h-0.5l-0.1,0.3
				c0.1-0.1,0.2-0.1,0.2-0.1c0.1,0,0.2,0,0.3,0.1c0.1,0.1,0.1,0.2,0.1,0.3c0,0.1,0,0.2-0.1,0.3C16.8,26,16.7,26,16.6,26
				c-0.1,0-0.2,0-0.3-0.1S16.2,25.8,16.2,25.7z"/>
		</g>
		<g>
			<path fill="#3E4347" d="M17.9,25.1l-0.1,0c0-0.1,0-0.1-0.1-0.1c0,0-0.1-0.1-0.2-0.1c0,0-0.1,0-0.1,0c0,0-0.1,0.1-0.1,0.2
				c0,0.1,0,0.2,0,0.3c0-0.1,0.1-0.1,0.1-0.1c0.1,0,0.1,0,0.2,0c0.1,0,0.2,0,0.3,0.1c0.1,0.1,0.1,0.2,0.1,0.3c0,0.1,0,0.1,0,0.2
				c0,0.1-0.1,0.1-0.1,0.2c-0.1,0-0.1,0.1-0.2,0.1c-0.1,0-0.2,0-0.3-0.1c-0.1-0.1-0.1-0.2-0.1-0.5c0-0.2,0-0.4,0.1-0.5
				c0.1-0.1,0.2-0.1,0.3-0.1c0.1,0,0.2,0,0.2,0.1C17.9,24.9,17.9,25,17.9,25.1z M17.3,25.6c0,0.1,0,0.1,0,0.1c0,0,0.1,0.1,0.1,0.1
				c0,0,0.1,0,0.1,0c0.1,0,0.1,0,0.2-0.1c0-0.1,0.1-0.1,0.1-0.2c0-0.1,0-0.2-0.1-0.2c0,0-0.1-0.1-0.2-0.1c-0.1,0-0.1,0-0.2,0.1
				C17.3,25.5,17.3,25.5,17.3,25.6z"/>
		</g>
		<g>
			<path fill="#3E4347" d="M18.6,26v-0.3h-0.5v-0.1l0.6-0.8h0.1v0.8h0.2v0.1h-0.2V26H18.6z M18.6,25.6V25l-0.4,0.6H18.6z"/>
		</g>
		<g>
			<path fill="#3E4347" d="M19.3,25.3c-0.1,0-0.1-0.1-0.1-0.1c0,0,0-0.1,0-0.2c0-0.1,0-0.2,0.1-0.2c0.1-0.1,0.1-0.1,0.3-0.1
				c0.1,0,0.2,0,0.3,0.1c0.1,0.1,0.1,0.1,0.1,0.2c0,0.1,0,0.1,0,0.1c0,0-0.1,0.1-0.1,0.1c0.1,0,0.1,0.1,0.2,0.1
				c0,0.1,0.1,0.1,0.1,0.2c0,0.1,0,0.2-0.1,0.3C19.7,26,19.6,26,19.5,26c-0.1,0-0.2,0-0.3-0.1c-0.1-0.1-0.1-0.2-0.1-0.3
				c0-0.1,0-0.1,0.1-0.2C19.2,25.4,19.2,25.4,19.3,25.3z M19.2,25.6c0,0,0,0.1,0,0.1c0,0,0.1,0.1,0.1,0.1c0,0,0.1,0,0.1,0
				c0.1,0,0.1,0,0.2-0.1c0,0,0.1-0.1,0.1-0.2c0-0.1,0-0.1-0.1-0.2c0,0-0.1-0.1-0.2-0.1c-0.1,0-0.1,0-0.2,0.1
				C19.2,25.5,19.2,25.6,19.2,25.6z M19.3,25.1c0,0.1,0,0.1,0.1,0.1c0,0,0.1,0.1,0.1,0.1c0.1,0,0.1,0,0.1-0.1c0,0,0.1-0.1,0.1-0.1
				c0-0.1,0-0.1-0.1-0.1c0,0-0.1-0.1-0.1-0.1c-0.1,0-0.1,0-0.1,0.1C19.3,25,19.3,25,19.3,25.1z"/>
		</g>
		<g>
			<path fill="#3E4347" d="M20.6,25.7l0.1,0c0,0.1,0,0.1,0.1,0.1c0,0,0.1,0,0.1,0c0,0,0.1,0,0.1,0c0,0,0.1,0,0.1-0.1
				c0,0,0-0.1,0.1-0.1c0-0.1,0-0.1,0-0.2c0,0,0,0,0,0c0,0-0.1,0.1-0.1,0.1s-0.1,0-0.2,0c-0.1,0-0.2,0-0.3-0.1
				c-0.1-0.1-0.1-0.2-0.1-0.3c0-0.1,0-0.2,0.1-0.3c0.1-0.1,0.2-0.1,0.3-0.1c0.1,0,0.2,0,0.2,0.1c0.1,0,0.1,0.1,0.2,0.2
				s0.1,0.2,0.1,0.3c0,0.2,0,0.3-0.1,0.4c0,0.1-0.1,0.2-0.2,0.2C21.1,26,21.1,26,21,26c-0.1,0-0.2,0-0.2-0.1
				C20.7,25.9,20.6,25.8,20.6,25.7z M21.3,25.2c0-0.1,0-0.2-0.1-0.2s-0.1-0.1-0.2-0.1c-0.1,0-0.1,0-0.2,0.1c0,0.1-0.1,0.1-0.1,0.2
				c0,0.1,0,0.1,0.1,0.2c0,0,0.1,0.1,0.2,0.1c0.1,0,0.1,0,0.2-0.1C21.2,25.3,21.3,25.3,21.3,25.2z"/>
		</g>
		<g>
			<path fill="#3E4347" d="M21.8,25.3c-0.1,0-0.1-0.1-0.1-0.1c0,0,0-0.1,0-0.2c0-0.1,0-0.2,0.1-0.2c0.1-0.1,0.1-0.1,0.3-0.1
				c0.1,0,0.2,0,0.3,0.1c0.1,0.1,0.1,0.1,0.1,0.2c0,0.1,0,0.1,0,0.1c0,0-0.1,0.1-0.1,0.1c0.1,0,0.1,0.1,0.2,0.1
				c0,0.1,0.1,0.1,0.1,0.2c0,0.1,0,0.2-0.1,0.3C22.2,26,22.1,26,22,26c-0.1,0-0.2,0-0.3-0.1c-0.1-0.1-0.1-0.2-0.1-0.3
				c0-0.1,0-0.1,0.1-0.2C21.7,25.4,21.7,25.4,21.8,25.3z M21.7,25.6c0,0,0,0.1,0,0.1c0,0,0.1,0.1,0.1,0.1c0,0,0.1,0,0.1,0
				c0.1,0,0.1,0,0.2-0.1c0,0,0.1-0.1,0.1-0.2c0-0.1,0-0.1-0.1-0.2c0,0-0.1-0.1-0.2-0.1c-0.1,0-0.1,0-0.2,0.1
				C21.7,25.5,21.7,25.6,21.7,25.6z M21.8,25.1c0,0.1,0,0.1,0.1,0.1c0,0,0.1,0.1,0.1,0.1c0.1,0,0.1,0,0.1-0.1c0,0,0.1-0.1,0.1-0.1
				c0-0.1,0-0.1-0.1-0.1c0,0-0.1-0.1-0.1-0.1c-0.1,0-0.1,0-0.1,0.1C21.8,25,21.8,25,21.8,25.1z"/>
		</g>
		<g>
			<path fill="#3E4347" d="M22.5,25.7l0.1,0c0,0.1,0,0.1,0.1,0.1c0,0,0.1,0,0.1,0c0,0,0.1,0,0.1,0c0,0,0.1,0,0.1-0.1
				c0,0,0-0.1,0.1-0.1c0-0.1,0-0.1,0-0.2c0,0,0,0,0,0c0,0-0.1,0.1-0.1,0.1c-0.1,0-0.1,0-0.2,0c-0.1,0-0.2,0-0.3-0.1
				c-0.1-0.1-0.1-0.2-0.1-0.3c0-0.1,0-0.2,0.1-0.3c0.1-0.1,0.2-0.1,0.3-0.1c0.1,0,0.2,0,0.2,0.1c0.1,0,0.1,0.1,0.2,0.2
				s0.1,0.2,0.1,0.3c0,0.2,0,0.3-0.1,0.4c0,0.1-0.1,0.2-0.2,0.2C23.1,26,23,26,22.9,26c-0.1,0-0.2,0-0.2-0.1
				C22.6,25.9,22.6,25.8,22.5,25.7z M23.2,25.2c0-0.1,0-0.2-0.1-0.2c0-0.1-0.1-0.1-0.2-0.1c-0.1,0-0.1,0-0.2,0.1
				c0,0.1-0.1,0.1-0.1,0.2c0,0.1,0,0.1,0.1,0.2c0,0,0.1,0.1,0.2,0.1c0.1,0,0.1,0,0.2-0.1C23.1,25.3,23.2,25.3,23.2,25.2z"/>
		</g>
		<g>
			<path fill="#3E4347" d="M23.5,24.9v-0.1h0.8v0.1c-0.1,0.1-0.2,0.2-0.2,0.3c-0.1,0.1-0.1,0.3-0.2,0.4c0,0.1,0,0.2-0.1,0.3h-0.2
				c0-0.1,0-0.2,0.1-0.3c0-0.1,0.1-0.3,0.2-0.4c0.1-0.1,0.1-0.2,0.2-0.3H23.5z"/>
		</g>
		<g>
			<path fill="#3E4347" d="M25.1,25.7l0.1,0c0,0.1,0,0.1,0.1,0.1c0,0,0.1,0,0.1,0c0,0,0.1,0,0.1,0c0,0,0.1,0,0.1-0.1
				c0,0,0-0.1,0.1-0.1c0-0.1,0-0.1,0-0.2c0,0,0,0,0,0c0,0-0.1,0.1-0.1,0.1c-0.1,0-0.1,0-0.2,0c-0.1,0-0.2,0-0.3-0.1
				c-0.1-0.1-0.1-0.2-0.1-0.3c0-0.1,0-0.2,0.1-0.3c0.1-0.1,0.2-0.1,0.3-0.1c0.1,0,0.2,0,0.2,0.1c0.1,0,0.1,0.1,0.2,0.2
				s0.1,0.2,0.1,0.3c0,0.2,0,0.3-0.1,0.4c0,0.1-0.1,0.2-0.2,0.2c-0.1,0-0.1,0.1-0.2,0.1c-0.1,0-0.2,0-0.2-0.1
				C25.1,25.9,25.1,25.8,25.1,25.7z M25.7,25.2c0-0.1,0-0.2-0.1-0.2c0-0.1-0.1-0.1-0.2-0.1c-0.1,0-0.1,0-0.2,0.1
				c0,0.1-0.1,0.1-0.1,0.2c0,0.1,0,0.1,0.1,0.2c0,0,0.1,0.1,0.2,0.1c0.1,0,0.1,0,0.2-0.1C25.6,25.3,25.7,25.3,25.7,25.2z"/>
		</g>
		<g>
			<path fill="#3E4347" d="M26,25.7l0.2,0c0,0.1,0,0.1,0.1,0.2c0,0,0.1,0.1,0.2,0.1c0.1,0,0.1,0,0.2-0.1c0.1-0.1,0.1-0.1,0.1-0.2
				c0-0.1,0-0.2-0.1-0.2c0,0-0.1-0.1-0.2-0.1c0,0-0.1,0-0.1,0c0,0-0.1,0.1-0.1,0.1l-0.1,0l0.1-0.6h0.6v0.1h-0.5l-0.1,0.3
				c0.1-0.1,0.2-0.1,0.2-0.1c0.1,0,0.2,0,0.3,0.1c0.1,0.1,0.1,0.2,0.1,0.3c0,0.1,0,0.2-0.1,0.3C26.6,26,26.5,26,26.4,26
				c-0.1,0-0.2,0-0.3-0.1S26,25.8,26,25.7z"/>
		</g>
		<g>
			<path fill="#3E4347" d="M27,25.7l0.1,0c0,0.1,0,0.1,0.1,0.1c0,0,0.1,0,0.1,0c0,0,0.1,0,0.1,0c0,0,0.1,0,0.1-0.1
				c0,0,0-0.1,0.1-0.1c0-0.1,0-0.1,0-0.2c0,0,0,0,0,0c0,0-0.1,0.1-0.1,0.1c-0.1,0-0.1,0-0.2,0c-0.1,0-0.2,0-0.3-0.1
				c-0.1-0.1-0.1-0.2-0.1-0.3c0-0.1,0-0.2,0.1-0.3c0.1-0.1,0.2-0.1,0.3-0.1c0.1,0,0.2,0,0.2,0.1c0.1,0,0.1,0.1,0.2,0.2
				c0,0.1,0.1,0.2,0.1,0.3c0,0.2,0,0.3-0.1,0.4c0,0.1-0.1,0.2-0.2,0.2c-0.1,0-0.1,0.1-0.2,0.1c-0.1,0-0.2,0-0.2-0.1
				C27,25.9,27,25.8,27,25.7z M27.6,25.2c0-0.1,0-0.2-0.1-0.2c0-0.1-0.1-0.1-0.2-0.1c-0.1,0-0.1,0-0.2,0.1c0,0.1-0.1,0.1-0.1,0.2
				c0,0.1,0,0.1,0.1,0.2c0,0,0.1,0.1,0.2,0.1c0.1,0,0.1,0,0.2-0.1C27.6,25.3,27.6,25.3,27.6,25.2z"/>
		</g>
		<g>
			<path fill="#3E4347" d="M27.9,25.7l0.2,0c0,0.1,0,0.1,0.1,0.2c0,0,0.1,0.1,0.2,0.1c0.1,0,0.1,0,0.2-0.1c0.1-0.1,0.1-0.1,0.1-0.2
				c0-0.1,0-0.2-0.1-0.2c0,0-0.1-0.1-0.2-0.1c0,0-0.1,0-0.1,0c0,0-0.1,0.1-0.1,0.1l-0.1,0l0.1-0.6h0.6v0.1h-0.5l-0.1,0.3
				c0.1-0.1,0.2-0.1,0.2-0.1c0.1,0,0.2,0,0.3,0.1c0.1,0.1,0.1,0.2,0.1,0.3c0,0.1,0,0.2-0.1,0.3C28.5,26,28.4,26,28.3,26
				c-0.1,0-0.2,0-0.3-0.1C27.9,25.9,27.9,25.8,27.9,25.7z"/>
		</g>
		<g>
			<g>
				<path fill="#3E4347" d="M18.2,31.4L18.2,31.4c0,0.2-0.1,0.3-0.3,0.3h-8c-0.1,0-0.3-0.1-0.3-0.3v0c0-0.1,0.1-0.3,0.3-0.3h8
					C18.1,31.1,18.2,31.2,18.2,31.4z"/>
			</g>
			<g>
				<path fill="#3E4347" d="M18.2,30L18.2,30c0,0.2-0.1,0.3-0.3,0.3h-8c-0.1,0-0.3-0.1-0.3-0.3v0c0-0.1,0.1-0.3,0.3-0.3h8
					C18.1,29.7,18.2,29.8,18.2,30z"/>
			</g>
		</g>
	</g>
	<g>
		<g>
			<g>
				<g>
					<g>
						<path fill="#65B1EF" d="M29.4,4.2v14c0,1.2-1,2.2-2.2,2.2h-23c-1.2,0-2.2-1-2.2-2.2v-14C2,3,3,2,4.2,2h23
							C28.4,2,29.4,3,29.4,4.2z"/>
					</g>
				</g>
			</g>
			<g>
				<g>
					<g>
						<path fill="#59A5E0" d="M28.9,4.5c0.1,0.3,0.3,0.7,0.5,0.8c0-1,0.1-1.8-0.5-2.5c-0.2,0-0.3,0.1-0.4,0.2c0,0-0.1,0-0.1,0
							c-0.2,0-0.3,0.1-0.4,0.3h0.4c-0.3,0.1-0.5,0.3-0.8,0.4c0,0,0,0,0,0.1c0.2,0,0.3,0.1,0.5,0.1c0,0,0,0,0,0
							c-0.1,0-0.2,0.1-0.3,0.1c0.2,0.2,0.5,0.2,0.7,0.2C28.6,4.3,28.8,4.3,28.9,4.5z"/>
					</g>
					<g>
						<path fill="#59A5E0" d="M29.4,6c-0.1,0.1-0.1,0.3,0,0.4V6z"/>
					</g>
				</g>
				<g>
					<path fill="#59A5E0" d="M15.1,17.4c0.1,0.2,0.1,0.5,0,0.7c0,0.2-0.2,0.4-0.3,0.6c-0.1,0.2-0.3,0.4-0.5,0.3
						c-0.5-0.1-0.4-0.1-0.6-0.4c0,0-0.1,0-0.1-0.1v-0.1c-0.1,0.1-0.1,0.1-0.2,0.1c-0.3-0.3-0.6-0.6-1-0.2c0,0,0,0.1,0,0.1
						c-0.4,0.1-1,0.3-0.9-0.1c0.1-0.3-0.4-0.7-0.2-0.9c0,0,0,0,0-0.1c0-0.1,0-0.2,0-0.3c0.1-0.1,0.3-0.2,0.4-0.3
						c0.2,0,0.2-0.1,0.3-0.2c0.1-0.2,0.2-0.3,0.4-0.4c0,0,0.2,0,0.2,0c0.4-0.4,0.2-0.3,0.8-0.2c0,0.3,0,0.4,0.3,0.5
						c0-0.2,0.1-0.5,0.1-0.7c0.1,0.1,0.1,0.1,0.2,0.1c0.1,0.2,0.2,0.5,0.3,0.7c0,0,0,0.1,0.1,0.1C14.9,16.8,15,17.1,15.1,17.4z"/>
				</g>
				<g>
					<path fill="#59A5E0" d="M25.6,3.4c-0.1-0.2-0.1-0.2,0.1-0.2c0,0,0-0.1,0-0.1c0.1,0,0.2,0.1,0.3,0.2c0.1,0.1,0.2,0.2,0.3,0.2
						c0-0.1,0-0.1,0-0.1c0.2,0,0.4-0.1,0.7-0.1c0,0,0-0.1,0-0.1c-0.3,0-1,0.1-1-0.1c0-0.1,0.1-0.1,0.2-0.2c0,0,0.1,0,0.1,0
						c0.7-0.3,0.9-0.5,2.3-0.1c0,0,0,0,0,0.1C28.4,2.9,28.2,2.9,28,3c0,0,0,0,0,0c0.1,0,0.1,0,0.2,0c-0.3,0.1-0.5,0.4-0.8,0.4
						c-0.1,0-0.3,0.1-0.4,0.2h0.2c0,0.3-0.1,0.3-0.5,0.3C26.9,4,27,4,27,4.1c0,0,0,0,0,0.1c-0.1,0-0.2,0.2-0.4,0.1c0,0-0.1,0-0.1,0
						c-0.2,0-0.3,0-0.5,0c0.1-0.1,0.1-0.2,0.1-0.4c0,0,0.1,0,0.2,0c0-0.1-0.1-0.1-0.1-0.1c0.1,0,0.1-0.1,0.2-0.1c0,0,0,0,0,0
						C25.6,4,25.8,3.8,25.6,3.4z"/>
				</g>
				<g>
					<path fill="#59A5E0" d="M18.2,6c-0.3-0.3-0.8-0.6-1.2-0.6c-0.2,0-0.3-0.1-0.3,0.2c-0.3-0.2-0.5-0.1-0.8-0.1
						c-0.1-0.3-0.3-0.3-0.6-0.4c-0.5,0-0.5-0.2-0.6-0.2C14.4,5,14.2,5,14,5c-0.1,0-0.1,0.1-0.2,0.1c-0.1,0.2-0.2,0.2-0.4,0.2
						c-0.1,0-0.1-0.1-0.2-0.1c0,0.1-0.1,0.1-0.1,0.2c0,0,0,0-0.1,0c-0.1-0.1-0.1-0.3-0.2-0.4c-0.1-0.1-0.2-0.1-0.3-0.1
						c-0.1,0-0.3-0.1-0.3,0.1c0,0-0.1,0-0.1,0c-0.1,0-0.2-0.1-0.3-0.1c-0.3-0.1-0.7-0.2-0.9,0c0,0,0,0-0.1,0
						c0.2-0.1,0.4-0.2,0.6-0.3c0.1,0,0.1-0.2,0.1-0.2c0-0.1,0-0.2-0.2-0.2c-0.1,0-0.3,0.1-0.4,0.1c0-0.1,0-0.2-0.1-0.2
						c-0.2-0.1-0.4,0-0.5,0.1C10,4.3,9.7,4.2,9.4,4.3c-0.1,0-0.3,0.1-0.3,0.1C8.9,4.8,8.7,4.7,8.3,4.8c0,0.1,0,0.2,0.1,0.3
						C8.2,5,8,5,7.7,5c-0.1-0.1-0.3-0.1-0.3,0C7.2,5.1,7,5.3,7.1,5.6c-0.2,0-0.4,0-0.6-0.1c0,0.1,0,0.1,0,0.1C5.4,5.8,5.7,5.7,5.2,6
						c0-0.1,0-0.1,0-0.2H4.9C5,5.9,5,6,5,6.1c-0.2,0-0.4,0-0.4,0.4c-0.1-0.2-0.3-0.2-0.4,0C4.2,6.3,4.1,6.2,4.1,6
						c0.2,0.1,0.5,0.2,0.7-0.2c0,0-0.1-0.1-0.2-0.1C3.6,5.3,3.4,5,2.5,5.6C2.3,5.7,2.2,5.9,2.1,6.1C2.1,6.1,2,6.2,2,6.2v1.5
						c0,0.1,0.1,0.2,0.2,0.1c0.1-0.1,0.3,0,0.3-0.3c0,0,0-0.1,0.1-0.2c0.2-0.1,0.1-0.2,0-0.4C2.3,6.7,2.8,6.7,2.9,6.4
						c0.1-0.2,0.2-0.1,0.3,0C3.1,6.4,3.1,6.5,3,6.6C2.7,6.8,2.8,7.3,3.3,7.2c0.1,0,0.2,0,0.3,0C3.5,7.2,3.4,7.3,3.4,7.3
						C3,7.3,3,7.3,3.1,7.6c0,0,0,0,0,0C3,7.6,3,7.5,2.9,7.5c0,0.1-0.1,0.2-0.1,0.2C2.9,7.9,2.8,7.9,2.7,8C2.5,8,2.4,8,2.3,8
						c-0.2,0-0.1,0.1-0.3,0v1.7c0,0,0,0,0,0c0.1,0.1,0.3,0.2,0.3,0.5c0,0,0,0,0.1,0c0-0.1,0-0.2,0.1-0.3c0,0,0.1,0,0.2,0
						C2.4,9.8,2.1,9.6,2.1,9.3c0.1,0.1,0.2,0.2,0.3,0.2c0.3,0.1,0.4,0.4,0.4,0.7c0,0.1,0.1,0.2,0.2,0.2c0-0.1,0.1-0.2,0.1-0.3
						C3,10.1,3.1,10,3.2,9.9c0.1,0,0.3-0.1,0.4-0.1c-0.1-0.3,0-0.5,0.2-0.7C3.9,9.3,4,9.5,4.3,9.3c0,0-0.1-0.1-0.1-0.2
						c0.1,0,0.2,0,0.3-0.1c-0.2,0.2-0.2,0.2,0,0.4c0.1,0.1,0.1,0.1,0.2,0.3c-0.1,0-0.1,0.1-0.2,0.1c-0.1,0-0.2,0-0.3-0.1
						c-0.1,0-0.1,0-0.2,0C3.8,9.8,3.6,9.9,3.4,10c-0.1,0.1-0.1,0.2,0,0.3c0.1,0.1,0.2,0.2,0.4,0.2c0.1,0,0.3,0,0.4,0
						c-0.1,0.2-0.2,0.4-0.2,0.6c-0.2,0-0.4-0.1-0.6,0c-0.3,0.1-0.6-0.4-0.8,0.1c0,0,0,0,0,0C2.4,11,2.2,10.9,2,10.8v4.7
						c0,0.1,0,0.1,0,0.2c0,0.1,0,0.1,0,0.2l0,0v1c0.1,0.3,0.4,1.1,0.5,1.4c0.2,0.4,1.2,0.1,1.4-0.8c0-0.1,0.1-0.2,0.1-0.2
						c0.3-0.2-0.1-0.4,0.2-0.7c0.6-0.6,0.5-0.4,0.4-1.1c0-0.2-0.1-0.4,0-0.5c0.1-0.2,0.3-0.4,0.4-0.6c0.4-0.3,0.5-0.8,0.7-1.2
						c-0.2,0-0.4,0.1-0.5,0.1c-0.3,0-0.5-0.6-0.7-0.9c-0.2-0.3-0.3-0.6-0.4-0.9c0,0,0-0.1,0-0.2c0,0,0,0,0.1,0
						c0.1,0.1,0.7,1.3,0.8,1.4c0,0.3,0.1,0.4,0.4,0.3c0.1,0,0.1,0,0.2-0.1c0.2-0.1,0.4-0.2,0.6-0.3c0.1-0.1,0.3-0.3,0.4-0.4
						c0,0,0-0.2,0-0.2c-0.1-0.1-0.2-0.2-0.3-0.3c-0.3,0.3-0.2,0.2-0.4,0c-0.1-0.1-0.2-0.3-0.2-0.5c0.3,0.1,0.4,0.6,0.7,0.4
						c0.3,0.2,0.2,0.2,0.9,0.2c0.1,0,0.4,0.2,0.4,0.3c0,0.1,0.1,0.2,0.1,0.3c0-0.1,0.1-0.1,0.1-0.2c0.1,0.4,0.2,0.8,0.3,1.2
						C8,13.7,8,13.7,8.2,13.6c0,0.1,0,0.2,0.1,0.3c0.2-0.1,0.2-0.2,0.1-0.3c-0.1-0.2-0.2-0.3-0.1-0.5c0,0,0-0.1,0-0.1
						c0-0.1,0-0.2,0.1-0.2c0.3-0.3,0.6-0.5,0.9-0.7c0.1,0.1,0.2,0.2,0.2,0.3c0,0.1,0,0.3,0,0.4c0.1-0.1,0.2-0.1,0.3-0.1
						c0,0.2,0.1,0.4,0.1,0.6c0,0.1,0,0.2,0.1,0.3c0,0,0.1,0.1,0.1,0.2c0,0.2,0.2,0.3,0.4,0.4c-0.1-0.2-0.2-0.3-0.2-0.5
						c0-0.1-0.1-0.1-0.1-0.2c0-0.1,0-0.4,0.1-0.4c0,0,0.1,0,0.1,0c0.1,0.1,0.2,0.3,0.3,0.4c0.1-0.1,0.3-0.2,0.4-0.3
						c0,0,0.1-0.1,0-0.2C11,13,11,12.8,10.9,12.7c-0.2-0.2-0.1-0.4,0.1-0.5c0.1,0.1,0.1,0.2,0.2,0c0,0,0.1,0,0.2-0.1
						c0.4-0.1,0.4-0.2,0.7-0.7c0.1-0.2,0.1-0.3,0-0.5c-0.2-0.3-0.2-0.4,0.2-0.6c-0.1,0-0.2-0.1-0.2-0.1c-0.2,0-0.2,0-0.2-0.2
						c0.1-0.1,0.2-0.1,0.3-0.2c0,0.2,0.1,0.2,0.2,0.1c0,0,0.1,0,0.2,0c0,0.1,0,0.1-0.1,0.2c0.1,0,0.1,0.1,0.1,0.1c0,0.1,0,0.3,0,0.4
						c0.3,0,0.4-0.2,0.3-0.3c-0.2-0.3,0-0.7,0.3-0.8c0.3-0.1,0.3-0.3,0.5-0.5C14,9,14,8.6,14,8.4c0-0.3-0.3-0.3-0.5-0.3
						c0.7-0.7,0.2-0.5,1.4-0.7c0,0,0,0,0.1,0c0.1,0.2,0.3,0,0.4,0c0-0.1,0-0.2,0.5-0.4c0.1,0,0.2,0,0.3,0c0,0,0,0,0-0.1
						c0-0.1,0-0.1,0.1-0.2c0,0,0,0,0,0c0,0.2-0.1,0.3-0.2,0.4c-0.2,0.1-0.4,0.3-0.5,0.5c-0.1,0.3-0.1,0.6,0.1,0.9
						C15.6,8.5,15.9,8,16,7.9c0,0,0-0.1,0-0.2c0-0.2,0-0.4,0.2-0.5c0.2,0,0.3,0,0.6,0c0.2-0.1,0.4-0.4,0.7-0.3c0,0,0.1-0.1,0.1-0.1
						c-0.1-0.1-0.1-0.2-0.2-0.3c0.1,0,0.2,0,0.3,0c0-0.1,0-0.1-0.1-0.2c0,0,0,0,0,0c0.1,0.1,0.2,0.1,0.3,0.1c0.1,0,0.2,0.1,0.4,0.2
						c0,0,0-0.1,0-0.1C18.7,6.1,18.7,6.1,18.2,6z"/>
				</g>
				<g>
					<path fill="#59A5E0" d="M29.4,14c-0.1-0.1-0.2-0.2-0.3-0.2c-0.2,0-0.4-0.1-0.6-0.3c0-0.1-0.1-0.1-0.1-0.1
						c-0.2,0-0.5-0.1-0.7-0.1c-0.1,0-0.1,0.1-0.2,0.2c0-0.1,0-0.2,0-0.3c0,0,0,0-0.1,0c-0.1,0.1-0.3,0.3-0.4,0.4
						c-0.1,0-0.1-0.1-0.2-0.1c-0.3,0-0.4-0.1-0.3-0.4c0.1-0.1-0.1-0.4-0.5-0.2c0-0.4,0.2-0.7-0.2-0.6c-0.1,0-0.1,0.3-0.2,0.3
						c-0.5,0-0.5-0.4-0.5-0.9c0,0,0,0,0,0c0.2-0.3,0.4-0.2,0.8-0.1c0-0.1,0-0.1-0.1-0.2c0.6,0,0.5,0,0.7,0.6
						c0.2-0.2,0.1-0.3,0.1-0.4c-0.1-0.3,0-0.4,0.2-0.6c0.1-0.1,0.3-0.2,0.2-0.4c0,0,0,0,0-0.1c0.1-0.2,0.2-0.5,0.5-0.5
						c-0.1-0.2,0.1-0.3,0.3-0.5c0,0.1,0,0.1,0.1,0.2c0.2-0.1,0.4-0.2,0.6-0.3c0-0.1,0-0.1-0.1-0.2c0,0-0.1,0-0.1,0
						c-0.1,0.2-0.4,0-0.3-0.2c0.1-0.1,0-0.2-0.1-0.1c-0.1,0-0.2,0-0.3,0.1C28.2,8.4,28.8,9,29,8.3c0,0-0.1-0.1-0.1-0.1
						c-0.1-0.3-0.4-0.2-0.4-0.4c0-0.2-0.1-0.4-0.3-0.5c-0.1,0.1-0.2,0.3-0.3,0.3c0,0-0.1-0.1-0.1-0.1c0.1-0.2,0-0.3-0.2-0.3
						c-0.2-0.1-0.5-0.3-0.6-0.2c0,0.1,0,0.4,0,0.4c-0.3,0.2,0.2,0.5,0,0.7c-0.1,0.1-0.1,0.2-0.1,0.4c0,0,0,0.1,0,0.2
						c0,0-0.1,0-0.1,0c0-0.1-0.2-0.6-0.2-0.5c-0.2,0-0.4-0.2-0.5-0.2c-0.2-0.1-0.4-0.1-0.5-0.3c-0.1-0.3,0.3-0.8,0.5-0.8
						c0,0,0.1-0.2,0.2-0.3c0.1,0.2-0.1,0.3,0.1,0.4l0,0c0.2,0,0.3,0,0.5,0c-0.2-0.1-0.3-0.2-0.4-0.4c0,0,0-0.1,0-0.1
						c0.1-0.1,0.2-0.1,0.3-0.2c0-0.1-0.1-0.2-0.1-0.2c0-0.1,0.1-0.1,0.1-0.2c-0.1,0-0.2-0.1-0.3-0.1c-0.1,0.2-0.2,0.3-0.2,0.4
						c0,0,0,0-0.1,0c0-0.2,0-0.1-0.1-0.3c-0.4,0.2-0.4-0.8-0.7-0.4c-0.2,0.2-0.1,0.3,0.2,0.4c0,0.1-0.1,0.2-0.1,0.2
						c-0.1-0.1-0.2-0.2-0.2-0.3c0,0,0,0-0.1,0c-0.1,0.3-0.1,0.5-0.3,0.4c-0.4-0.2-0.1-0.2-0.6-0.2c0,0.1,0.1,0.1,0.1,0.1h-0.5
						c-0.6-0.5-0.8-0.4-1.1-0.4c0,0,0,0,0,0c0,0-0.1,0.1-0.1,0.1c-0.3-0.4-0.8,0.3-1.2,0c0,0-1.4-0.2-1.5-0.2
						c-0.3-0.1-0.6,0.1-0.8,0.3c-0.2,0.2-0.5,0.2,0,0.5c0.1,0,0.1,0,0.2,0.1c0,0,0,0,0,0.1c-0.3,0-0.1-0.1-0.6,0.1
						c0.1,0.2,0,0.4,0.6,0.3c0,0,0,0,0,0.1c-0.7,0.3-0.4,0.6,0.3,1c-0.1,0.2-0.3,0.4-0.6,0.5C19.7,8,20,7.6,20.3,7.2
						c0,0.1,0,0.1,0,0.2c0.2-0.1,0.3-0.1,0.4-0.2c0.1-0.1,0.3,0.1,0.5,0.1c0.4,0,1.1,0.5,1.3,0.9c0.1,0.3,0.3,0.5,0.5,0.7
						c0,0.1,0,0.9,0,1c0.1,0.3,0.3,0.6,0.5,0.9c0,0.1,0.1,0.1,0.2,0.2c0.1,0.2,0.2,0.5,0.4,0.7c0.1,0.1,0.2,0.3,0.4,0.4
						c0.1-0.3-0.2-0.4-0.3-0.7c0.1,0.1,0.6,0.8,0.6,0.8c0.1,0.2,0.2,0.3,0.3,0.4c0.1,0,0.1,0.1,0.2,0.1c0.3,0.1,1,0.3,1.2,0.6
						c0.1,0.2,0.3,0.3,0.5,0.4c0.1,0,0.2-0.1,0.2-0.1c0.1,0.1,0.2,0.5,0,0.6c-0.3,0.2-0.2,0.5-0.3,0.8c0,0.1,0.4,0.9,0.5,1
						c0.2,0.4,0.6,0.3,0.5,0.9c0,0,0,0.7,0,0.9c0,0.4-0.2,1-0.1,1.4c0,0.1,0,0.3,0,0.4c-0.2,0.2-0.1,0.5,0,0.8
						c0.2,0,0.5-0.1,0.7-0.2c0.1-0.2,0.2-0.3,0.1-0.4c-0.1-0.1,0.2-0.5,0.3-0.6c-0.1,0-0.1,0-0.2-0.1c0,0,0.3-0.1,0.3-0.1
						c0-0.2,0.2-0.2,0.3-0.3c0.3-0.1,0.2-0.3,0-0.5c0.3,0.1,0.3,0.2,0.5-0.1c0-0.1,0.1-0.1,0.1-0.2V14z"/>
				</g>
			</g>
		</g>
		<g>
			<g>
				<g>
					<g>
						<g>
							<path fill="#FFD93B" d="M11.2,9.3V6.1c0-0.3-0.2-0.5-0.5-0.5H6.3C6,5.6,5.8,5.8,5.8,6.1v3.2c0,0.3,0.2,0.5,0.5,0.5h4.3
								C10.9,9.8,11.2,9.6,11.2,9.3z"/>
						</g>
						<g>
							<path fill="#F4C534" d="M10.7,9.9H6.3C6,9.9,5.7,9.6,5.7,9.3V6.1c0-0.4,0.3-0.6,0.6-0.6h4.3c0.4,0,0.6,0.3,0.6,0.6v3.2
								C11.3,9.6,11,9.9,10.7,9.9z M5.9,6.1v3.2c0,0.2,0.2,0.4,0.4,0.4h4.3c0.2,0,0.4-0.2,0.4-0.4V6.1c0-0.2-0.2-0.4-0.4-0.4
								C6.9,5.7,5.9,5.4,5.9,6.1z"/>
						</g>
					</g>
				</g>
			</g>
			<g>
				<g>
					<g>
						<path fill="#F4C534" d="M9.4,8.8H7.6c-0.1,0-0.1,0-0.1-0.1V6.6c0-0.1,0-0.1,0.1-0.1h1.9c0.1,0,0.1,0,0.1,0.1v2.1
							C9.5,8.8,9.5,8.8,9.4,8.8z M7.7,8.6h1.7V6.7H7.7V8.6z"/>
					</g>
				</g>
			</g>
			<g>
				<g>
					<g>
						<rect x="5.8" y="6.5" fill="#F4C534" width="1.8" height="0.2"/>
					</g>
				</g>
				<g>
					<g>
						<rect x="5.8" y="7.6" fill="#F4C534" width="1.8" height="0.2"/>
					</g>
				</g>
				<g>
					<g>
						<rect x="5.8" y="8.6" fill="#F4C534" width="1.8" height="0.2"/>
					</g>
				</g>
				<g>
					<g>
						<rect x="9.4" y="6.5" fill="#F4C534" width="1.8" height="0.2"/>
					</g>
				</g>
				<g>
					<g>
						<rect x="9.4" y="7.6" fill="#F4C534" width="1.8" height="0.2"/>
					</g>
				</g>
				<g>
					<g>
						<rect x="9.4" y="8.6" fill="#F4C534" width="1.8" height="0.2"/>
					</g>
				</g>
			</g>
			<g>
				<g>
					<g>
						<rect x="8.4" y="8.7" fill="#F4C534" width="0.2" height="1.1"/>
					</g>
				</g>
			</g>
			<g>
				<g>
					<g>
						<rect x="8.4" y="5.6" fill="#F4C534" width="0.2" height="1.1"/>
					</g>
				</g>
			</g>
		</g>
		<g>
			<g>
				<rect x="2" y="13.4" fill="#3E4347" width="27.4" height="3.4"/>
			</g>
		</g>
	</g>
</g>
</svg>
