<?xml version="1.0" encoding="utf-8"?>
<!-- Generator: Adobe Illustrator 18.0.0, SVG Export Plug-In . SVG Version: 6.00 Build 0)  -->
<!DOCTYPE svg PUBLIC "-//W3C//DTD SVG 1.1//EN" "http://www.w3.org/Graphics/SVG/1.1/DTD/svg11.dtd">
<svg version="1.1" id="Layer_1" xmlns="http://www.w3.org/2000/svg" xmlns:xlink="http://www.w3.org/1999/xlink" x="0px" y="0px"
	 viewBox="0 0 36 36" enable-background="new 0 0 36 36" xml:space="preserve">
<g>
	<g>
		<g>
			<g>
				<g>
					<g>
						<g>
							<g>
								<path fill="#D3D9DD" d="M30.6,25c2.1,1.3,1.5,4-0.9,4.1c-0.8,0-1.5,0.7-1.5,1.5c-0.1,2.3-3.1,3.1-4.3,0.9
									c-0.6-1.1-0.3-2.6,0.8-3.3l-18-18c-0.7,1.1-2.3,1.5-3.4,0.7C1.2,9.7,1.8,7,4.2,6.9c0.8,0,1.5-0.7,1.5-1.5
									c0-2.3,3.1-3.1,4.3-0.9c0.6,1.1,0.3,2.6-0.8,3.3l18,18l0,0C27.9,24.6,29.5,24.2,30.6,25z"/>
							</g>
						</g>
					</g>
				</g>
			</g>
			<g>
				<g>
					<g>
						<g>
							<g>
								<path fill="#D3D9DD" d="M5.4,25c-2.1,1.3-1.5,4,0.9,4.1c0.8,0,1.5,0.7,1.5,1.5c0.1,2.3,3.1,3.1,4.3,0.9
									c0.6-1.1,0.3-2.6-0.8-3.3l18-18c0.7,1.1,2.3,1.5,3.4,0.7c2.1-1.3,1.5-4-0.9-4.1c-0.8,0-1.5-0.7-1.5-1.5
									c0-2.3-3.1-3.1-4.3-0.9c-0.6,1.1-0.3,2.6,0.8,3.3l-18,18l0,0C8.1,24.6,6.5,24.2,5.4,25z"/>
							</g>
						</g>
					</g>
				</g>
			</g>
		</g>
		<g>
			<g>
				<g>
					<path fill="#DEE4E9" d="M26.6,22c-0.7,1.4-2.3,1.7-2.9,1.6c-0.7-0.1-1.4,0.2-1.4,0.9c0,0.7-0.3,2.3-0.3,2.3l-0.7,1.2l-0.1,0.2
						L18,28.6h0l-3.2-0.2l-0.1-0.2l-0.7-1.2c0,0-0.3-1.6-0.3-2.3c0-0.7-0.7-1-1.4-0.9c-0.7,0.1-2.2-0.2-2.9-1.6
						C8.6,20.6,7,14.2,8,10.8c1-3.4,4.7-5.5,10-5.7h0c5.3,0.1,8.9,2.3,10,5.7C29,14.2,27.4,20.6,26.6,22z"/>
				</g>
			</g>
			<g>
				<g>
					<path fill="#E9EFF4" d="M14,26.4c0,0,0.1,0.4,0.1,0.5c0.1,0.5,0.1,0.6,0.1,0.3c0,0-0.1,0.8,0.3,0.8c0,0,0,0.4,0.2,0.4
						c0,0,0.1,0.4,0.5,0.2c0,0,0,0.3,0.2,0.4c0.3,0.1,0.5-0.2,0.5-0.2s0.1,0.5,0.5,0.4c0.4,0,0.4-0.2,0.4-0.2s0,0.4,0.6,0.5
						c0.6,0.1,0.5-0.3,0.5-0.3s0.1,0.2,0.6,0.2c0.5,0,0.5-0.3,0.5-0.3s0.2,0.4,0.6,0.3c0.4-0.1,0.3-0.4,0.3-0.4s0.1,0.3,0.4,0.2
						c0.3-0.1,0.3-0.4,0.3-0.4s0.3,0.1,0.4-0.2c0,0,0.2-0.1,0.3-0.3c0,0,0.2,0,0.3-0.4c0.1-0.4,0.2-0.8,0.2-0.8s-0.1,0.3-0.4,0.3
						c0,0-0.1,0.2-0.4,0.2c0,0-0.3,0-0.4,0.2c0,0,0,0-0.1,0c-0.3-0.1-0.7,0.1-0.8,0.5l0,0c0-0.2-0.3-0.4-0.7-0.2
						c-0.3,0.1-0.2,0.4-0.2,0.4s0.1-0.5-0.3-0.5c-0.3-0.1-0.7,0.1-0.7,0.3c0,0-0.1-0.3-0.5-0.4C17.3,27.7,17,28,17,28
						s-0.2-0.4-0.6-0.4C16.1,27.7,16,28,16,28s0-0.5-0.3-0.6c-0.3-0.1-0.5,0.1-0.5,0.1s0-0.3-0.2-0.3c-0.2,0-0.2,0.1-0.2,0.1
						s0-0.1-0.1-0.2c-0.1,0-0.1,0-0.1,0s0-0.2-0.2-0.3c-0.1-0.1-0.1-0.1-0.1-0.1S14.1,26.5,14,26.4z"/>
				</g>
			</g>
			<g>
				<g>
					<path fill="#5A5F63" d="M25,18.6c0,1.3-0.7,2.4-2.6,2.4c-2,0-2.8-1.5-2.8-2.8c0-1.3,0.7-2,2.8-2C24.4,16.2,25,17.3,25,18.6z"/>
				</g>
			</g>
			<g>
				<g>
					<path fill="#5A5F63" d="M11,18.6c0,1.3,0.7,2.4,2.6,2.4c2,0,2.8-1.5,2.8-2.8c0-1.3-0.7-2-2.8-2C11.7,16.2,11,17.3,11,18.6z"/>
				</g>
			</g>
			<g>
				<g>
					<path fill="#3E4347" d="M18.1,20.1c0.6,0.1,1.7,2.4,1.7,3c0,0.8-0.8,1.3-1.5,1c-0.2-0.1-0.5-0.1-0.7,0c-0.7,0.3-1.5-0.2-1.5-1
						c0-0.6,1.1-2.9,1.7-3C17.8,20.1,18,20.1,18.1,20.1z"/>
				</g>
			</g>
		</g>
		<g>
			<path fill="#3E4347" d="M21.7,20.9c-0.4-0.7-0.7-1.6-0.6-2.4c0-1.7,2.2-1.9,3.1-1.9c-0.4-0.3-0.9-0.4-1.7-0.4c-2,0-2.8,0.7-2.8,2
				C19.7,19.4,20.2,20.6,21.7,20.9z"/>
		</g>
		<g>
			<path fill="#3E4347" d="M12.4,18.5c0-1.7,2.3-1.9,3.2-1.9c-0.4-0.3-1.1-0.4-2-0.4c-1.9,0-2.6,1.1-2.6,2.4c0,1.2,0.5,2.2,2,2.4
				C12.6,20.3,12.3,19.4,12.4,18.5z"/>
		</g>
	</g>
	<g>
		<g>
			<path fill="#BBC7D1" d="M15.2,5.4C11.4,6.1,8.9,8,8,10.8C7,14.2,8.6,20.6,9.4,22c0.5,1,1.3,1.4,2,1.6c-3.1-2.3-1.3-5.1-1.1-7.4
				c0.4-5.8-1.6-2.8-1.7-0.8C7.7,10.1,10.5,6.7,15.2,5.4z"/>
		</g>
		<g>
			<path fill="#BBC7D1" d="M28,10.8c-0.8-2.7-3.4-4.7-7.2-5.4c4.7,1.3,7.5,4.7,6.6,10c-0.4-2.3-2.3-3.5-1.7,0.8c0.3,2.2,2,5-1.1,7.4
				c0.7-0.2,1.5-0.6,2-1.6C27.4,20.6,29,14.2,28,10.8z"/>
		</g>
	</g>
</g>
</svg>
