<?xml version="1.0" encoding="utf-8"?>
<!-- Generator: Adobe Illustrator 18.0.0, SVG Export Plug-In . SVG Version: 6.00 Build 0)  -->
<!DOCTYPE svg PUBLIC "-//W3C//DTD SVG 1.1//EN" "http://www.w3.org/Graphics/SVG/1.1/DTD/svg11.dtd">
<svg version="1.1" id="Layer_1" xmlns="http://www.w3.org/2000/svg" xmlns:xlink="http://www.w3.org/1999/xlink" x="0px" y="0px"
	 viewBox="0 0 36 36" enable-background="new 0 0 36 36" xml:space="preserve">
<g>
	<g>
		<g>
			<g>
				<g>
					<path fill="#FFD68D" d="M11.6,6.5L11.6,6.5c-2.2,0-4.2,1.5-4.9,3.7c-0.4,1.2-0.6,2.4-0.7,3.7c-0.4,6,2.7,10.5,6.9,11.7
						c2.2,0.6,4.5-2.1,3.3-4.3c-1.4-2.7-1.7-5.9-0.5-9C16.9,9.4,14.5,6.5,11.6,6.5z"/>
				</g>
			</g>
			<g>
				<g>
					<path fill="#FFDC97" d="M13.4,13.1c-3.6,1.9-1.2,4.9,0.1,7.1c1,1.8-0.5,3.5-2.2,2.9c-4.4-1.6-5.6-8.9-3.5-13
						c2-3.9,5-3.2,6.3-1.6C15.2,9.8,14.3,12.6,13.4,13.1z"/>
				</g>
			</g>
		</g>
		<g>
			<g>
				<g>
					<path fill="#FFDC97" d="M18.5,6.3c-0.8,1-2,1.4-2.7,0.8c-0.8-0.6-0.8-1.8,0-2.9c0.7-1,2-1.4,2.7-0.8C19.2,4,19.2,5.3,18.5,6.3z
						"/>
				</g>
			</g>
			<g>
				<g>
					<path fill="#FFD68D" d="M18.5,6.3c-0.8,1-2,1.4-2.7,0.8C15,6.6,15,5.4,15.7,4.4c-0.2,0.7-0.1,1.5,0.4,1.8
						c0.7,0.5,1.8,0.2,2.5-0.8c0.2-0.3,0.3-0.5,0.4-0.8C19.1,5.2,18.9,5.8,18.5,6.3z"/>
				</g>
			</g>
		</g>
		<g>
			<g>
				<g>
					<path fill="#FFDC97" d="M14.5,4.1c-0.2,1-1,1.6-1.7,1.4c-0.7-0.2-1.1-1.1-0.9-2c0.2-1,1-1.6,1.7-1.4
						C14.3,2.2,14.7,3.1,14.5,4.1z"/>
				</g>
			</g>
			<g>
				<g>
					<path fill="#FFD68D" d="M14.5,4.1c-0.2,1-1,1.6-1.7,1.4c-0.7-0.2-1.1-1-0.9-1.9c0.1,0.6,0.4,1.1,0.8,1.2
						c0.7,0.2,1.4-0.4,1.6-1.3c0.1-0.2,0.1-0.5,0.1-0.7C14.6,3.1,14.6,3.6,14.5,4.1z"/>
				</g>
			</g>
		</g>
		<g>
			<g>
				<g>
					<path fill="#FFDC97" d="M10.9,3.7c0.2,1-0.3,1.8-1,2C9.1,5.8,8.4,5.1,8.3,4.1c-0.2-1,0.3-1.8,1-2C10,2,10.7,2.7,10.9,3.7z"/>
				</g>
			</g>
			<g>
				<g>
					<path fill="#FFD68D" d="M10.9,3.7c0.2,1-0.3,1.8-1,2C9.2,5.8,8.5,5.1,8.3,4.2C8.6,4.7,9,5,9.5,5c0.7-0.1,1.1-0.9,0.9-1.8
						c0-0.2-0.1-0.5-0.2-0.7C10.5,2.7,10.8,3.2,10.9,3.7z"/>
				</g>
			</g>
		</g>
		<g>
			<g>
				<g>
					<path fill="#FFDC97" d="M7.7,5.1C8,5.8,7.8,6.7,7.2,6.9c-0.6,0.2-1.3-0.2-1.6-1C5.3,5.1,5.5,4.3,6,4.1C6.6,3.8,7.3,4.3,7.7,5.1
						z"/>
				</g>
			</g>
			<g>
				<g>
					<path fill="#FFD68D" d="M7.7,5.1C8,5.8,7.8,6.7,7.2,6.9C6.6,7.1,5.9,6.7,5.6,6c0.3,0.4,0.8,0.6,1.2,0.4c0.5-0.2,0.7-1,0.4-1.7
						C7.1,4.5,7,4.3,6.9,4.2C7.2,4.3,7.5,4.6,7.7,5.1z"/>
				</g>
			</g>
		</g>
		<g>
			<g>
				<g>
					<path fill="#FFDC97" d="M5.4,7.2C6,7.7,6.1,8.4,5.7,8.8C5.3,9.2,4.6,9.1,4.1,8.6C3.6,8.1,3.5,7.4,3.8,7
						C4.2,6.7,4.9,6.7,5.4,7.2z"/>
				</g>
			</g>
			<g>
				<g>
					<path fill="#FFD68D" d="M5.4,7.2C6,7.7,6.1,8.4,5.7,8.8c-0.4,0.4-1,0.3-1.6-0.2C4.6,8.8,5,8.8,5.2,8.6c0.3-0.4,0.2-1-0.3-1.5
						C4.8,7,4.7,6.9,4.5,6.8C4.8,6.8,5.2,7,5.4,7.2z"/>
				</g>
			</g>
		</g>
	</g>
	<g>
		<g>
			<g>
				<g>
					<path fill="#FFD68D" d="M24.5,14.8L24.5,14.8c2.2,0,4.2,1.6,4.8,3.9c0.3,1.2,0.5,2.4,0.6,3.8c0.3,6-3,10.4-7.3,11.4
						c-2.3,0.5-4.4-2.3-3.2-4.4c1.5-2.7,1.9-5.9,0.8-9C19.1,17.6,21.6,14.8,24.5,14.8z"/>
				</g>
			</g>
			<g>
				<g>
					<path fill="#FFDC97" d="M22.4,21.4c3.5,2,1,4.9-0.4,7.1c-1.1,1.7,0.4,3.5,2.2,2.9c4.5-1.4,5.9-8.7,3.9-12.9
						c-1.8-3.9-4.9-3.3-6.3-1.7C20.8,18.1,21.5,20.9,22.4,21.4z"/>
				</g>
			</g>
		</g>
		<g>
			<g>
				<g>
					<path fill="#FFDC97" d="M17.6,14.5c0.7,1,1.9,1.4,2.7,0.9c0.8-0.5,0.8-1.8,0.1-2.9c-0.7-1-1.9-1.4-2.7-0.9
						C16.9,12.2,16.9,13.4,17.6,14.5z"/>
				</g>
			</g>
			<g>
				<g>
					<path fill="#FFD68D" d="M17.6,14.5c0.7,1,1.9,1.4,2.7,0.9c0.8-0.5,0.8-1.7,0.2-2.8c0.2,0.7,0,1.5-0.5,1.8
						c-0.7,0.5-1.8,0.1-2.5-0.8c-0.2-0.3-0.3-0.6-0.4-0.8C17,13.3,17.2,13.9,17.6,14.5z"/>
				</g>
			</g>
		</g>
		<g>
			<g>
				<g>
					<path fill="#FFDC97" d="M21.6,12.3c0.2,1,0.9,1.6,1.6,1.5c0.7-0.1,1.1-1,0.9-2c-0.2-1-0.9-1.6-1.6-1.5
						C21.8,10.5,21.4,11.4,21.6,12.3z"/>
				</g>
			</g>
			<g>
				<g>
					<path fill="#FFD68D" d="M21.6,12.3c0.2,1,0.9,1.6,1.6,1.5c0.7-0.1,1.1-1,0.9-1.9c-0.1,0.6-0.4,1.1-0.9,1.2
						c-0.7,0.1-1.3-0.5-1.5-1.4c-0.1-0.2-0.1-0.5,0-0.7C21.6,11.3,21.5,11.8,21.6,12.3z"/>
				</g>
			</g>
		</g>
		<g>
			<g>
				<g>
					<path fill="#FFDC97" d="M25.3,12.1c-0.2,1,0.2,1.9,1,2c0.7,0.1,1.4-0.5,1.6-1.5c0.2-1-0.2-1.9-0.9-2
						C26.2,10.4,25.4,11.1,25.3,12.1z"/>
				</g>
			</g>
			<g>
				<g>
					<path fill="#FFD68D" d="M25.3,12.1c-0.2,1,0.2,1.9,1,2c0.7,0.1,1.4-0.5,1.6-1.4c-0.3,0.5-0.8,0.8-1.3,0.7
						c-0.7-0.1-1.1-1-0.9-1.9c0-0.2,0.1-0.5,0.2-0.7C25.6,11.1,25.4,11.6,25.3,12.1z"/>
				</g>
			</g>
		</g>
		<g>
			<g>
				<g>
					<path fill="#FFDC97" d="M28.4,13.6c-0.3,0.8-0.2,1.6,0.4,1.9c0.6,0.3,1.3-0.2,1.7-0.9c0.3-0.8,0.2-1.6-0.4-1.9
						C29.5,12.4,28.8,12.8,28.4,13.6z"/>
				</g>
			</g>
			<g>
				<g>
					<path fill="#FFD68D" d="M28.4,13.6c-0.3,0.8-0.2,1.6,0.4,1.9c0.5,0.2,1.3-0.1,1.6-0.9c-0.4,0.4-0.8,0.5-1.2,0.4
						c-0.5-0.2-0.7-1-0.4-1.7c0.1-0.2,0.2-0.4,0.3-0.5C28.9,12.8,28.6,13.1,28.4,13.6z"/>
				</g>
			</g>
		</g>
		<g>
			<g>
				<g>
					<path fill="#FFDC97" d="M30.6,15.8c-0.5,0.5-0.7,1.2-0.3,1.6c0.4,0.4,1.1,0.3,1.6-0.2c0.5-0.5,0.7-1.2,0.3-1.6
						C31.8,15.3,31.1,15.3,30.6,15.8z"/>
				</g>
			</g>
			<g>
				<g>
					<path fill="#FFD68D" d="M30.6,15.8c-0.5,0.5-0.7,1.2-0.3,1.6c0.3,0.4,1,0.3,1.6-0.1c-0.4,0.2-0.8,0.1-1.1-0.1
						c-0.3-0.4-0.2-1,0.3-1.5c0.1-0.1,0.3-0.2,0.4-0.3C31.2,15.4,30.9,15.5,30.6,15.8z"/>
				</g>
			</g>
		</g>
	</g>
</g>
</svg>
