<?xml version="1.0" encoding="utf-8"?>
<!-- Generator: Adobe Illustrator 18.0.0, SVG Export Plug-In . SVG Version: 6.00 Build 0)  -->
<!DOCTYPE svg PUBLIC "-//W3C//DTD SVG 1.1//EN" "http://www.w3.org/Graphics/SVG/1.1/DTD/svg11.dtd">
<svg version="1.1" id="Layer_1" xmlns="http://www.w3.org/2000/svg" xmlns:xlink="http://www.w3.org/1999/xlink" x="0px" y="0px"
	 viewBox="0 0 36 36" enable-background="new 0 0 36 36" xml:space="preserve">
<g>
	<g>
		<g>
			<g>
				<g>
					<g>
						<circle fill="#E9EFF4" cx="10.7" cy="15.1" r="0.3"/>
					</g>
				</g>
				<g>
					<g>
						
							<ellipse transform="matrix(0.8857 0.4642 -0.4642 0.8857 8.176 -3.2879)" fill="#FFFFFF" cx="10.8" cy="15" rx="0.1" ry="0.1"/>
					</g>
				</g>
			</g>
			<g>
				<g>
					<g>
						<circle fill="#E9EFF4" cx="7" cy="16.7" r="0.3"/>
					</g>
				</g>
				<g>
					<g>
						
							<ellipse transform="matrix(0.8857 0.4642 -0.4642 0.8857 8.5251 -1.3777)" fill="#FFFFFF" cx="7.1" cy="16.6" rx="0.1" ry="0.1"/>
					</g>
				</g>
			</g>
			<g>
				<g>
					<g>
						<circle fill="#E9EFF4" cx="9" cy="14.2" r="0.3"/>
					</g>
				</g>
				<g>
					<g>
						
							<ellipse transform="matrix(0.8857 0.4642 -0.4642 0.8857 7.6005 -2.6052)" fill="#FFFFFF" cx="9.1" cy="14.1" rx="0.1" ry="0.1"/>
					</g>
				</g>
			</g>
			<g>
				<g>
					<g>
						<circle fill="#E9EFF4" cx="12.7" cy="16.8" r="0.3"/>
					</g>
				</g>
				<g>
					<g>
						
							<ellipse transform="matrix(0.8857 0.4642 -0.4642 0.8857 9.209 -4.0338)" fill="#FFFFFF" cx="12.8" cy="16.7" rx="0.1" ry="0.1"/>
					</g>
				</g>
			</g>
			<g>
				<g>
					<g>
						<circle fill="#E9EFF4" cx="11.4" cy="17.6" r="0.3"/>
					</g>
				</g>
				<g>
					<g>
						
							<ellipse transform="matrix(0.8858 0.464 -0.464 0.8858 9.4216 -3.3239)" fill="#FFFFFF" cx="11.5" cy="17.5" rx="0.1" ry="0.1"/>
					</g>
				</g>
			</g>
			<g>
				<g>
					<g>
						<circle fill="#E9EFF4" cx="13.4" cy="17.8" r="0.3"/>
					</g>
				</g>
				<g>
					<g>
						
							<ellipse transform="matrix(0.8855 0.4646 -0.4646 0.8855 9.7542 -4.2296)" fill="#FFFFFF" cx="13.5" cy="17.7" rx="0.1" ry="0.1"/>
					</g>
				</g>
			</g>
			<g>
				<g>
					<g>
						<circle fill="#E9EFF4" cx="15.5" cy="17.7" r="0.3"/>
					</g>
				</g>
				<g>
					<g>
						
							<ellipse transform="matrix(0.8857 0.4642 -0.4642 0.8857 9.9312 -5.2184)" fill="#FFFFFF" cx="15.6" cy="17.6" rx="0.1" ry="0.1"/>
					</g>
				</g>
			</g>
			<g>
				<g>
					<g>
						<circle fill="#E9EFF4" cx="16.9" cy="14.4" r="0.3"/>
					</g>
				</g>
				<g>
					<g>
						
							<ellipse transform="matrix(0.8855 0.4646 -0.4646 0.8855 8.5676 -6.2383)" fill="#FFFFFF" cx="16.9" cy="14.3" rx="0.1" ry="0.1"/>
					</g>
				</g>
			</g>
			<g>
				<g>
					<g>
						<circle fill="#E9EFF4" cx="17" cy="16.3" r="0.3"/>
					</g>
				</g>
				<g>
					<g>
						
							<ellipse transform="matrix(0.8856 0.4644 -0.4644 0.8856 9.4784 -6.0518)" fill="#FFFFFF" cx="17" cy="16.2" rx="0.1" ry="0.1"/>
					</g>
				</g>
			</g>
			<g>
				<g>
					<g>
						<circle fill="#D3D9DD" cx="12.8" cy="14.8" r="0.5"/>
					</g>
				</g>
				<g>
					<g>
						
							<ellipse transform="matrix(0.8857 0.4642 -0.4642 0.8857 8.2246 -4.3459)" fill="#E9EFF4" cx="12.9" cy="14.5" rx="0.2" ry="0.1"/>
					</g>
				</g>
			</g>
			<g>
				<g>
					<g>
						<circle fill="#D3D9DD" cx="18.9" cy="15.6" r="0.4"/>
					</g>
				</g>
				<g>
					<g>
						
							<ellipse transform="matrix(0.8857 0.4643 -0.4643 0.8857 9.3615 -7.0642)" fill="#E9EFF4" cx="19" cy="15.5" rx="0.1" ry="0.1"/>
					</g>
				</g>
			</g>
			<g>
				<g>
					<g>
						<circle fill="#DEE4E9" cx="20" cy="16" r="0.3"/>
					</g>
				</g>
				<g>
					<g>
						
							<ellipse transform="matrix(0.8856 0.4645 -0.4645 0.8856 9.6838 -7.4968)" fill="#E9EFF4" cx="20.1" cy="15.9" rx="0.1" ry="0.1"/>
					</g>
				</g>
			</g>
			<g>
				<g>
					<g>
						<circle fill="#DEE4E9" cx="16.9" cy="14.9" r="0.3"/>
					</g>
				</g>
				<g>
					<g>
						
							<ellipse transform="matrix(0.8856 0.4645 -0.4645 0.8856 8.829 -6.1631)" fill="#E9EFF4" cx="16.9" cy="14.8" rx="0.1" ry="0.1"/>
					</g>
				</g>
			</g>
			<g>
				<g>
					<g>
						<circle fill="#DEE4E9" cx="9.6" cy="16.8" r="0.3"/>
					</g>
				</g>
				<g>
					<g>
						
							<ellipse transform="matrix(0.8858 0.4642 -0.4642 0.8858 8.8383 -2.5744)" fill="#E9EFF4" cx="9.6" cy="16.7" rx="0.1" ry="0.1"/>
					</g>
				</g>
			</g>
			<g>
				<g>
					<g>
						<circle fill="#DEE4E9" cx="10.9" cy="15" r="0.3"/>
					</g>
				</g>
				<g>
					<g>
						
							<ellipse transform="matrix(0.8858 0.4642 -0.4642 0.8858 8.1758 -3.4107)" fill="#E9EFF4" cx="11" cy="14.9" rx="0.1" ry="0.1"/>
					</g>
				</g>
			</g>
			<g>
				<g>
					<g>
						<circle fill="#DEE4E9" cx="12.9" cy="15.9" r="0.3"/>
					</g>
				</g>
				<g>
					<g>
						<ellipse transform="matrix(0.8858 0.4642 -0.4642 0.8858 8.8 -4.2287)" fill="#E9EFF4" cx="13" cy="15.8" rx="0.1" ry="0.1"/>
					</g>
				</g>
			</g>
			<g>
				<g>
					<g>
						<circle fill="#DEE4E9" cx="16.8" cy="17.1" r="0.3"/>
					</g>
				</g>
				<g>
					<g>
						
							<ellipse transform="matrix(0.8856 0.4645 -0.4645 0.8856 9.8176 -5.8896)" fill="#E9EFF4" cx="16.9" cy="17" rx="0.1" ry="0.1"/>
					</g>
				</g>
			</g>
			<g>
				<g>
					<g>
						<circle fill="#DEE4E9" cx="14.9" cy="17.8" r="0.3"/>
					</g>
				</g>
				<g>
					<g>
						
							<ellipse transform="matrix(0.8858 0.4641 -0.4641 0.8858 9.8973 -4.9346)" fill="#E9EFF4" cx="15" cy="17.6" rx="0.1" ry="0.1"/>
					</g>
				</g>
			</g>
			<g>
				<g>
					<g>
						<circle fill="#DEE4E9" cx="14.8" cy="15.8" r="0.3"/>
					</g>
				</g>
				<g>
					<g>
						
							<ellipse transform="matrix(0.8858 0.4642 -0.4642 0.8858 8.9868 -5.1211)" fill="#E9EFF4" cx="14.9" cy="15.7" rx="0.1" ry="0.1"/>
					</g>
				</g>
			</g>
			<g>
				<g>
					<g>
						<circle fill="#DEE4E9" cx="14.7" cy="15.3" r="0.3"/>
					</g>
				</g>
				<g>
					<g>
						
							<ellipse transform="matrix(0.8858 0.4642 -0.4642 0.8858 8.7592 -5.1283)" fill="#E9EFF4" cx="14.8" cy="15.2" rx="0.1" ry="0.1"/>
					</g>
				</g>
			</g>
			<g>
				<g>
					<g>
						<circle fill="#D3D9DD" cx="4.9" cy="17.5" r="0.3"/>
					</g>
				</g>
				<g>
					<g>
						
							<ellipse transform="matrix(0.8858 0.4641 -0.4641 0.8858 8.5959 -0.3244)" fill="#E9EFF4" cx="5" cy="17.3" rx="0.1" ry="0.1"/>
					</g>
				</g>
			</g>
			<g>
				<g>
					<g>
						<circle fill="#D3D9DD" cx="7.8" cy="17.4" r="0.5"/>
					</g>
				</g>
				<g>
					<g>
						
							<ellipse transform="matrix(0.8858 0.464 -0.464 0.8858 8.9047 -1.6998)" fill="#E9EFF4" cx="7.9" cy="17.2" rx="0.2" ry="0.1"/>
					</g>
				</g>
			</g>
			<g>
				<g>
					<g>
						<circle fill="#D3D9DD" cx="15.6" cy="15.4" r="0.4"/>
					</g>
				</g>
				<g>
					<g>
						
							<ellipse transform="matrix(0.8857 0.4643 -0.4643 0.8857 8.8762 -5.5415)" fill="#E9EFF4" cx="15.7" cy="15.3" rx="0.1" ry="0.1"/>
					</g>
				</g>
			</g>
			<g>
				<g>
					<g>
						<circle fill="#D3D9DD" cx="9.6" cy="18.9" r="0.3"/>
					</g>
				</g>
				<g>
					<g>
						
							<ellipse transform="matrix(0.8859 0.4639 -0.4639 0.8859 9.8225 -2.3432)" fill="#E9EFF4" cx="9.7" cy="18.8" rx="0.1" ry="0.1"/>
					</g>
				</g>
			</g>
			<g>
				<g>
					<g>
						<circle fill="#D3D9DD" cx="18" cy="16.3" r="0.3"/>
					</g>
				</g>
				<g>
					<g>
						
							<ellipse transform="matrix(0.8857 0.4643 -0.4643 0.8857 9.5711 -6.5742)" fill="#E9EFF4" cx="18.1" cy="16.1" rx="0.1" ry="0.1"/>
					</g>
				</g>
			</g>
			<g>
				<g>
					<g>
						<circle fill="#D3D9DD" cx="12.9" cy="14.7" r="0.3"/>
					</g>
				</g>
				<g>
					<g>
						
							<ellipse transform="matrix(0.8858 0.4642 -0.4642 0.8858 8.2301 -4.3803)" fill="#E9EFF4" cx="13" cy="14.5" rx="0.1" ry="0.1"/>
					</g>
				</g>
			</g>
			<g>
				<g>
					<g>
						<circle fill="#D3D9DD" cx="11.8" cy="14.3" r="0.6"/>
					</g>
				</g>
				<g>
					<g>
						
							<ellipse transform="matrix(0.8857 0.4643 -0.4643 0.8857 7.8931 -3.9318)" fill="#E9EFF4" cx="11.9" cy="14.1" rx="0.2" ry="0.2"/>
					</g>
				</g>
			</g>
			<g>
				<g>
					<g>
						<circle fill="#D3D9DD" cx="14" cy="15.8" r="0.6"/>
					</g>
				</g>
				<g>
					<g>
						
							<ellipse transform="matrix(0.8857 0.4642 -0.4642 0.8857 8.811 -4.8322)" fill="#E9EFF4" cx="14.2" cy="15.5" rx="0.3" ry="0.2"/>
					</g>
				</g>
			</g>
			<g>
				<g>
					<g>
						<circle fill="#D3D9DD" cx="10.1" cy="16.6" r="1"/>
					</g>
				</g>
				<g>
					<g>
						
							<ellipse transform="matrix(0.8857 0.4643 -0.4643 0.8857 8.7075 -2.9828)" fill="#E9EFF4" cx="10.4" cy="16.2" rx="0.4" ry="0.3"/>
					</g>
				</g>
			</g>
			<g>
				<g>
					<g>
						<circle fill="#D3D9DD" cx="11.9" cy="12" r="0.3"/>
					</g>
				</g>
				<g>
					<g>
						
							<ellipse transform="matrix(0.8857 0.4643 -0.4643 0.8857 6.8849 -4.2051)" fill="#E9EFF4" cx="12" cy="11.9" rx="0.1" ry="0.1"/>
					</g>
				</g>
			</g>
			<g>
				<g>
					<g>
						<circle fill="#D3D9DD" cx="13.5" cy="12.4" r="0.3"/>
					</g>
				</g>
				<g>
					<g>
						
							<ellipse transform="matrix(0.8857 0.4643 -0.4643 0.8857 7.231 -4.9095)" fill="#E9EFF4" cx="13.6" cy="12.2" rx="0.1" ry="0.1"/>
					</g>
				</g>
			</g>
		</g>
	</g>
	<g>
		<g>
			<g>
				<g>
					<path fill="#DEE4E9" d="M7.1,26.5h19.6c1.6,0,3.1-1.2,3.3-2.8c0.4-2.8,1.6-6.3,3.6-8.4l-0.1,0c-1.1-1.7-12.4,2.1-22.8,2.5
						l-8.2,0.3l1.2,5.7c0,0,0,0,0,0C4,25.4,5.5,26.5,7.1,26.5z"/>
				</g>
			</g>
		</g>
		<g>
			<g>
				<g>
					<g>
						<path fill="#FFD93B" d="M13.1,16.8c0,0-0.2,0-0.3,0c-0.2,0-0.6,0.8-0.6,0.8L12,17.8c0,0,0.3,0.2,0.4-0.1
							c0.1-0.3,0.2-0.3,0.2-0.3l0.3-0.3c0,0-0.1,0.4-0.1,0.5c0,0.1,0,0.4,0,0.4s0.3,0,0.3-0.3c0-0.4,0.1-0.4,0.1-0.4s0.1,0,0.2-0.1
							c0,0,0.1,0.5,0.1,0.6c0,0.1,0.2,0.3,0.2,0.3s0.3,0,0.2-0.5c0,0,0-0.2,0-0.3c0-0.1,0.1-0.2,0.1-0.2s1-0.1,1.3-0.1
							s0.4-0.1,0.7-0.1s3.6-0.5,4.4-0.6c0.8-0.1,2.7-0.6,3.1-0.6c0.4-0.1,5.9-0.5,5.9-0.5l0.4-0.4c0,0-0.3-0.5-0.4-0.8
							c-0.1-0.3,0-0.7,0-0.7l-1.1-3.8l-2.4-1c0,0-0.5,0.9-0.5,1.9c0,0,0,0.2,0.1,0.3c0,0.1-0.2,0.3-0.3,0.5
							c-0.2,0.2-0.3,0.4-0.1,0.5c0.1,0.1,0.3,0.2,0.3,0.3c0,0.1-0.1,0.4,0.1,0.4c0,0-0.1,0.1,0,0.3c0.1,0.1,0.2,0.3,0.2,0.5
							c0,0.2,0.1,0.3,0.4,0.4c0.4,0,0.7-0.1,0.9,0.1c0.2,0.1,0.2,0.8,0.2,0.8s-1.4,0.1-2.4,0c-1,0-3.4,0-4.3,0.2
							c-0.8,0.2-3.1,1-3.7,1.1c-0.6,0.1-0.6,0.2-1.4,0.2c-0.8,0.1-1,0-1.1,0.2c0,0-0.3,0-0.5,0.2L13.1,16.8z"/>
					</g>
				</g>
			</g>
			<g>
				<g>
					<g>
						<path fill="#F4C534" d="M15.7,17c-0.1,0-0.1,0-0.2,0c-0.2,0-0.3-0.1-0.4-0.2c-0.1-0.1-0.4,0-0.4,0c0.1-0.1,0.2-0.4,0.2-0.4
							s-0.2,0.3-0.3,0.3c-0.1,0-0.3,0.1-0.3,0.1c0.1-0.1,0.1-0.4,0.1-0.4s0,0.3-0.2,0.5c-0.1,0.1-0.1,0.2-0.1,0.2s1-0.1,1.3-0.1
							C15.4,17.1,15.6,17.1,15.7,17z"/>
					</g>
				</g>
			</g>
			<g>
				<g>
					<path fill="#F4C534" d="M13.3,17c-0.1,0.1-0.1,0.3-0.1,0.3l0,0l0,0c0,0,0.1,0,0.2-0.1l0,0l0,0c0-0.2,0.1-0.4,0.1-0.5
						C13.5,16.8,13.4,16.9,13.3,17z"/>
				</g>
			</g>
			<g>
				<g>
					<g>
						<path fill="#F4C534" d="M12.8,17.2c0,0,0.1-0.3,0.2-0.4C12.4,17.2,12.9,16.5,12.8,17.2L12.8,17.2L12.8,17.2L12.8,17.2z"/>
					</g>
				</g>
			</g>
			<g>
				<g>
					<g>
						<path fill="#3E4347" d="M25.4,8.6c0,0-0.1,0.8,0,1.1c0.1,0.3,0.4,0.8,0.4,1c0,0,0-0.4-0.2-0.7c-0.1-0.3,0-1.2,0-1.2
							S26,9.2,26,9.4c0,0.3,0.5,1.3,0.6,1.4c0.2,0.1-0.2,0.7-0.3,0.9c-0.1,0.2,0,0.8,0.2,1.2c0.2,0.3,0.8,0.7,0.8,0.8
							c0,0.2-0.6,0.3-0.5,0.6c0.1,0.3,0.4,0.3,0.4,0.3s-0.3-0.2-0.2-0.4c0-0.2,0.3-0.1,0.5-0.4c0.2-0.3,0.1-0.6-0.2-0.9
							c-0.3-0.3-0.2-0.9-0.1-1.1c0,0,0,0.3,0.2,0.6c0.3,0.3,0.6,0.6,0.4,1c0,0,0.2-0.4-0.1-0.8c-0.3-0.4-0.2-0.7-0.2-0.7
							s0.2,0.3,0.4,0.3c0.2,0,0.8-0.1,0.8-0.1s-0.1,1.6,1.2,2.1c1.3,0.5,2-0.3,2.1-0.9c0.1-0.6,0.2-0.8,0.2-0.8s0,0.5,0,0.8
							c0,0,0.1-0.5,0.1-0.8c0-0.3,0.3-0.5,0.2-1c-0.1-0.5-0.3-0.9-0.8-1c0,0,0.4-0.4,0.2-0.7c-0.2-0.3-0.8-0.7-1.3-0.5
							c0,0-0.2-1.2-1.6-1.4C27.5,7.7,25.9,7.8,25.4,8.6z"/>
					</g>
				</g>
			</g>
			<g>
				<g>
					<path fill="#E84D88" d="M28.6,12c0,0,0,0.1,0,0.3c0.6-1.9,2.1-3.1,2.1-3.1c0,0,0,0,0,0l-0.2,0C28.8,10,28.6,12,28.6,12z"/>
				</g>
			</g>
			<g>
				<g>
					<g>
						<path fill="#E9EFF4" d="M33.8,15.4c-3.9-0.1-10.1,2.1-19.1,2.9c-5.2,0.5-11.5-0.1-12.6-0.2C2.1,18.2,2,18.1,2,18
							c0-0.3,0.2-1,1.3-1c2,0,7.3,0.6,12.2,0c9.1-1.2,13.5-2.8,16.3-2.8c1.8,0,2.1,0.5,2.1,0.9C34,15.3,33.9,15.4,33.8,15.4z"/>
					</g>
				</g>
			</g>
			<g>
				<g>
					<g>
						<g>
							<path fill="#FFD93B" d="M17,16.8c-0.5,0.1-1,0.2-1.1,0.2c-0.3,0-0.4,0.1-0.7,0.1c-0.3,0-1.3,0.1-1.3,0.1s-0.1,0.1-0.1,0.2
								s0,0.3,0,0.3c0.1,0.4-0.2,0.5-0.2,0.5s-0.1-0.2-0.2-0.3c0-0.1-0.1-0.6-0.1-0.6c0,0.1-0.2,0.1-0.2,0.1s0,0.1-0.1,0.4
								c0,0.4-0.3,0.3-0.3,0.3s0-0.3,0-0.4c0-0.1,0.1-0.5,0.1-0.5l-0.3,0.3c0,0,0,0-0.2,0.3C12.2,18,12,17.8,12,17.8l0.1-0.3
								c0,0,0.3-0.6,0.6-0.7c0.1-0.1,0.4,0,0.4,0l0.7-0.4c0.1-0.2,0.5-0.2,0.5-0.2c0.2-0.1,0.3-0.1,1.1-0.2c0.8-0.1,0.8-0.1,1.4-0.2
								c0,0,0.1,0,0.2,0L17,16.8z"/>
						</g>
					</g>
				</g>
				<g>
					<g>
						<g>
							<path fill="#F4C534" d="M15.7,17c-0.1,0-0.1,0-0.2,0c-0.2,0-0.3-0.1-0.4-0.2c-0.1-0.1-0.4,0-0.4,0c0.1-0.1,0.2-0.4,0.2-0.4
								s-0.2,0.3-0.3,0.3c-0.1,0-0.3,0.1-0.3,0.1c0.1-0.1,0.1-0.4,0.1-0.4s0,0.3-0.2,0.5c-0.1,0.1-0.1,0.2-0.1,0.2s1-0.1,1.3-0.1
								C15.4,17.1,15.6,17.1,15.7,17z"/>
						</g>
					</g>
				</g>
				<g>
					<g>
						<path fill="#F4C534" d="M13.3,17c-0.1,0.1-0.1,0.3-0.1,0.3l0,0l0,0c0,0,0.1,0,0.2-0.1l0,0l0,0c0-0.2,0.1-0.4,0.1-0.5
							C13.5,16.8,13.4,16.9,13.3,17z"/>
					</g>
				</g>
				<g>
					<g>
						<g>
							<path fill="#F4C534" d="M13.1,16.8c-0.1,0.1-0.2,0.4-0.2,0.4l0,0C12.7,17,13.1,16.8,13.1,16.8z"/>
						</g>
					</g>
				</g>
			</g>
		</g>
		<g>
			<g>
				<g>
					<path fill="#3E4347" d="M7.6,27.9C7.8,27.4,8.3,26.8,9,26c0.5-0.6,0.4-1.5-0.4-1.8c-0.6-0.3-1.3,0.1-1.5,0.7l-0.7,2.5
						C6.2,28.1,7.2,28.5,7.6,27.9z"/>
				</g>
			</g>
		</g>
		<g>
			<g>
				<g>
					<path fill="#3E4347" d="M26.4,27.9c-0.3-0.5-0.7-1.1-1.5-1.9c-0.5-0.6-0.4-1.5,0.4-1.8c0.6-0.3,1.3,0.1,1.5,0.7l0.7,2.5
						C27.8,28.1,26.8,28.5,26.4,27.9z"/>
				</g>
			</g>
		</g>
	</g>
</g>
</svg>
