<?xml version="1.0" encoding="utf-8"?>
<!-- Generator: Adobe Illustrator 18.0.0, SVG Export Plug-In . SVG Version: 6.00 Build 0)  -->
<!DOCTYPE svg PUBLIC "-//W3C//DTD SVG 1.1//EN" "http://www.w3.org/Graphics/SVG/1.1/DTD/svg11.dtd">
<svg version="1.1" id="Layer_1" xmlns="http://www.w3.org/2000/svg" xmlns:xlink="http://www.w3.org/1999/xlink" x="0px" y="0px"
	 viewBox="0 0 36 36" enable-background="new 0 0 36 36" xml:space="preserve">
<g>
	<g>
		<g>
			<path fill="#3E4347" d="M10.1,16.6c-0.4,1-2.1,0.9-3.1,0.5c-1-0.4-1.3-1.5-0.9-2.5c0.4-1,1.4-1.5,2.4-1.1
				C9.5,14,10.5,15.7,10.1,16.6z"/>
		</g>
	</g>
	<g>
		<g>
			<path fill="#8CC63E" d="M10.7,19c0-0.2-0.1-0.6-0.5-1.1c-0.6-0.8-1.8-0.5-3-1.5c-1-0.9-2.6-1.1-3.1-1.1V19H10.7z"/>
		</g>
	</g>
	<g>
		<g>
			<path fill="#FFD93B" d="M33,18.6v8.9c0,0.7-0.5,1.2-1.2,1.2c-0.7,0-1.2-0.5-1.2-1.2v-8.9c0-0.7,0.5-1.2,1.2-1.2
				C32.4,17.4,33,17.9,33,18.6z"/>
		</g>
	</g>
	<g>
		<g>
			<rect x="4.1" y="19" fill="#F4C534" width="26.5" height="6"/>
		</g>
	</g>
	<g>
		<g>
			<rect x="4.1" y="18.6" fill="#DEE4E9" width="26.5" height="2.9"/>
		</g>
	</g>
	<g>
		<g>
			<path fill="#FFD93B" d="M4.5,8.5v19c0,0.7-0.5,1.2-1.2,1.2c-0.7,0-1.2-0.5-1.2-1.2v-19c0-0.7,0.5-1.2,1.2-1.2
				C3.9,7.3,4.5,7.8,4.5,8.5z"/>
		</g>
	</g>
	<g>
		<g>
			<path fill="#E84D88" d="M33.7,26.7c-8.2,2.3-9.9,2.7-19.2,0.4c-2.6-0.6-4.6,0.3-5.6,0.9v-6.6c0,0,2-7.6,2.5-7.7
				c4.7-0.1,18.9-0.3,21.3,1.8C35.5,18.2,32.9,23.6,33.7,26.7z"/>
		</g>
	</g>
	<g>
		<g>
			<path fill="#D23F77" d="M33.7,26.7c-8.2,2.3-9.9,2.7-19.2,0.4c-2.6-0.6-4.6,0.3-5.6,0.9v-6.5h25C33.6,23.4,33.3,25.3,33.7,26.7z"
				/>
		</g>
	</g>
	<g>
		<g>
			<path fill="#D23F77" d="M31.4,19.3c0,0-4.5-0.9-6.7-0.8c0.4-0.5,0.7-1,0.9-1.6c-0.9,0.7-1.7,1.7-2.8,1.8c0,0-8.7-0.4-9.4-0.6
				c-2-0.5-2.6-2.1-2.4-3.7c0,0-0.5,2.7-2.2,8.9V28c0,0,0,0,0,0c0.2-0.1,0.5-0.3,0.8-0.4c0.2-1.6-0.8-6.8,3.2-6.9
				c0,0,10.9-0.1,10.9-0.1S31,20.5,31.4,19.3z"/>
		</g>
	</g>
	<g>
		<g>
			<path fill="#E9EFF4" d="M10.2,13.8c-0.3,0-0.5,0.2-0.5,0.5c-0.2,1.6-0.8,6.9-2,9.5c-0.9,2-0.5,3.3-0.1,4c0.2,0.4,0.7,0.5,1.1,0.3
				C8.8,28,9,27.9,9.2,27.8C9,27,9,26.1,9.1,25.3c0.2-1.5,0.8-2.8,1.1-4.3c0.4-2,0.2-4,0.7-5.9c0.1-0.5,0.3-0.9,0.5-1.3
				C11,13.8,10.5,13.8,10.2,13.8z"/>
		</g>
	</g>
</g>
</svg>
