<?xml version="1.0" encoding="utf-8"?>
<!-- Generator: Adobe Illustrator 18.0.0, SVG Export Plug-In . SVG Version: 6.00 Build 0)  -->
<!DOCTYPE svg PUBLIC "-//W3C//DTD SVG 1.1//EN" "http://www.w3.org/Graphics/SVG/1.1/DTD/svg11.dtd">
<svg version="1.1" id="Layer_1" xmlns="http://www.w3.org/2000/svg" xmlns:xlink="http://www.w3.org/1999/xlink" x="0px" y="0px"
	 viewBox="0 0 36 36" enable-background="new 0 0 36 36" xml:space="preserve">
<g>
	<g>
		<g>
			<g>
				<g>
					<path fill="#E9B02C" d="M34,8.8v18.4c0,1.1-0.9,2-2,2H4c-1.1,0-2-0.9-2-2V8.8c0-1.1,0.9-2,2-2H32C33.1,6.8,34,7.7,34,8.8z"/>
				</g>
			</g>
			<g>
				<g>
					<path fill="#F4C534" d="M2.8,28.8C3.1,29,3.6,29.2,4,29.2H32c0.5,0,0.9-0.2,1.3-0.5c0.4-0.8,0.3-1.9-0.5-2.6L19.4,12.8
						c-0.8-0.8-2-0.8-2.7,0L3.2,26.1C2.5,26.9,2.4,27.9,2.8,28.8z"/>
				</g>
			</g>
			<g>
				<g>
					<path fill="#FFD93B" d="M33.2,7.2C32.9,7,32.4,6.8,32,6.8H4C3.6,6.8,3.1,7,2.8,7.2C2.4,8.1,2.5,9.1,3.2,9.9l13.4,13.4
						c0.8,0.8,2,0.8,2.7,0L32.8,9.9C33.5,9.1,33.6,8.1,33.2,7.2z"/>
				</g>
			</g>
		</g>
	</g>
	<g>
		<g>
			<g>
				<path fill="#E24B4B" d="M24.2,16.7c0,2.7-4.1,6.1-5.6,7.2c-0.3,0.3-0.8,0.3-1.1,0c-1.5-1.2-5.6-4.6-5.6-7.2
					c0-1.8,1.4-3.2,3.2-3.2c1.3,0,2.5,0.8,3,2c0.5-1.2,1.6-2,3-2C22.7,13.5,24.2,14.9,24.2,16.7z"/>
			</g>
		</g>
		<g opacity="0.2">
			<g>
				<path fill="#FFFFFF" d="M23,16.1c-0.2,0.4-0.8,0.4-1.4,0c-0.5-0.3-0.8-0.9-0.6-1.3c0.2-0.3,0.9-0.3,1.4,0
					C22.9,15.1,23.2,15.7,23,16.1z"/>
			</g>
		</g>
		<g>
			<g>
				<path fill="#D03F3F" d="M22.5,20.3c-0.1,0.1-3.5,2.6-5.7,1.6c-2.8-1.4-4.7-4.6-4.9-4.9c0.2,2.7,4.1,5.9,5.6,7
					c0.3,0.3,0.8,0.3,1.1,0C19.5,23.3,21.2,21.8,22.5,20.3z"/>
			</g>
		</g>
	</g>
</g>
</svg>
