<?xml version="1.0" encoding="utf-8"?>
<!-- Generator: Adobe Illustrator 18.0.0, SVG Export Plug-In . SVG Version: 6.00 Build 0)  -->
<!DOCTYPE svg PUBLIC "-//W3C//DTD SVG 1.1//EN" "http://www.w3.org/Graphics/SVG/1.1/DTD/svg11.dtd">
<svg version="1.1" id="Layer_1" xmlns="http://www.w3.org/2000/svg" xmlns:xlink="http://www.w3.org/1999/xlink" x="0px" y="0px"
	 viewBox="0 0 36 36" enable-background="new 0 0 36 36" xml:space="preserve">
<g>
	<g>
		<g>
			<g>
				<g>
					<path fill="#D3D9DD" d="M27.3,8.5c-1.2-2.9-3.4-4.2-5.1-4.7c-2.5-0.8-4.9-0.4-5.8,0.2c-1.1,0.8-1.4,2.9-1.4,2.9l-1.4-0.2
						c0-0.1,0.3-2.7,2-3.9c1.2-0.9,4.2-1.3,7-0.4c2,0.6,4.6,2.1,6,5.5L27.3,8.5z"/>
				</g>
			</g>
			<g>
				<path fill="#E24B4B" d="M34,10.1c-3.2,0.9-3.4,1.4-1.3,4c-2.9-1.8-3.5-1.5-4,1.9c-0.7-3.4-1.2-3.6-4.1-1.8
					c2.1-2.6,1.8-3.2-1.4-4.1c3.2-0.3,3.5-0.9,1.8-3.6c2.4,2,3,1.7,3.6-1.3c0.6,3.1,1.1,3.3,3.6,1.4C30.6,9.2,30.8,9.8,34,10.1z"/>
			</g>
			<g>
				<path fill="#F4C534" d="M31.7,10.3c-1.8,0.5-2,0.8-0.7,2.3c-1.7-1-2-0.9-2.3,1.1c-0.4-2-0.7-2.1-2.4-1c1.2-1.5,1.1-1.8-0.8-2.4
					c1.9-0.2,2-0.5,1.1-2.1c1.4,1.1,1.7,1,2.1-0.8c0.3,1.8,0.6,1.9,2.1,0.8C29.8,9.8,29.9,10.1,31.7,10.3z"/>
			</g>
			<g>
				<path fill="#FFD93B" d="M30,10.5c-0.8,0.2-0.9,0.4-0.3,1.1c-0.8-0.5-0.9-0.4-1.1,0.5c-0.2-0.9-0.3-1-1.1-0.5
					c0.6-0.7,0.5-0.9-0.4-1.1c0.9-0.1,0.9-0.2,0.5-1c0.6,0.5,0.8,0.5,1-0.4c0.1,0.8,0.3,0.9,0.9,0.4C29.1,10.2,29.2,10.4,30,10.5z"
					/>
			</g>
		</g>
		<g>
			<g>
				<path fill="#3E4347" d="M11.7,12.9h5.4c0.4,0,0.7-0.3,0.7-0.7l0-4.6c0-0.3-0.2-0.6-0.5-0.7c-1.8-0.3-3.7-0.3-5.6,0
					C11.3,7,11,7.3,11,7.6v4.6C11,12.6,11.3,12.9,11.7,12.9z"/>
			</g>
		</g>
		<g>
			<g>
				<circle fill="#5A5F63" cx="14.4" cy="21.6" r="12.4"/>
			</g>
		</g>
		<g>
			<g>
				<path fill="#3E4347" d="M26.1,25.6c-1.6,4.9-6.3,8.4-11.7,8.4C7.5,34,2,28.5,2,21.6c0-3.2,1.2-6.2,3.2-8.4
					c-0.4,1.3-0.7,2.6-0.7,4c0,6.8,5.5,12.4,12.4,12.4C20.6,29.6,23.8,28.1,26.1,25.6z"/>
			</g>
		</g>
	</g>
	<g>
		<g>
			<path fill="#777B7E" d="M22.3,17.8c-0.8,0.8-2.3,0.6-3.3-0.4c-1.1-1-1.3-2.5-0.5-3.3c0.8-0.8,2.3-0.6,3.3,0.4
				C22.8,15.6,23.1,17,22.3,17.8z"/>
		</g>
	</g>
</g>
</svg>
