<?xml version="1.0" encoding="utf-8"?>
<!-- Generator: Adobe Illustrator 18.0.0, SVG Export Plug-In . SVG Version: 6.00 Build 0)  -->
<!DOCTYPE svg PUBLIC "-//W3C//DTD SVG 1.1//EN" "http://www.w3.org/Graphics/SVG/1.1/DTD/svg11.dtd">
<svg version="1.1" id="Layer_1" xmlns="http://www.w3.org/2000/svg" xmlns:xlink="http://www.w3.org/1999/xlink" x="0px" y="0px"
	 viewBox="0 0 36 36" enable-background="new 0 0 36 36" xml:space="preserve">
<g>
	<g>
		<path fill="#3E4347" d="M22.4,24.5C22.4,24.5,22.4,24.5,22.4,24.5c-0.3,0-0.5-0.2-0.5-0.5c0.1-5-0.9-9.2-2.5-10.8
			c-0.9-0.9-1.9-0.9-2.8,0C15,14.8,14,19,14.1,24c0,0.3-0.2,0.5-0.5,0.5c-0.3,0-0.5-0.2-0.5-0.5c-0.1-5.4,1-9.7,2.8-11.5
			c1.3-1.3,2.9-1.3,4.2,0c1.8,1.9,2.9,6.2,2.8,11.5C22.9,24.3,22.7,24.5,22.4,24.5z"/>
	</g>
</g>
<g>
	<g>
		<path fill="#CBD6E0" d="M24.8,2.4c-0.7,0.1-1.2,0.8-1.1,1.4l0,0l-9,4.7C15,8.8,15.1,9,15.3,9.2l8.8-4.6c0.3,0.3,0.7,0.4,1.1,0.4
			c0.7-0.1,1.2-0.7,1.1-1.4C26.2,2.8,25.5,2.3,24.8,2.4z"/>
	</g>
	<g>
		<path fill="#CBD6E0" d="M12.4,9.1l-4-4l0,0c0.3-0.6,0.1-1.4-0.6-1.7C7.3,3,6.5,3.3,6.2,3.9C5.9,4.5,6.1,5.3,6.8,5.6
			c0.4,0.2,0.8,0.2,1.1,0l3.9,4C12,9.4,12.2,9.2,12.4,9.1z"/>
	</g>
	<g>
		<path fill="#DAE5EF" d="M17.1,10.6c0,1.8-1.5,3.3-3.3,3.3c-1.8,0-3.3-1.5-3.3-3.3c0-2.4,1.5-3.3,3.3-3.3
			C15.6,7.3,17.1,8.2,17.1,10.6z"/>
	</g>
	<g>
		<path fill="#3E4347" d="M4.5,32.1v1c0,0.2,0.2,0.4,0.4,0.4h3.4c0.2,0,0.4-0.2,0.4-0.4v-1H4.5z"/>
	</g>
	<g>
		<path fill="#3E4347" d="M27.3,32.1v1c0,0.2,0.2,0.4,0.4,0.4H31c0.2,0,0.4-0.2,0.4-0.4v-1H27.3z"/>
	</g>
	<g>
		<path fill="#E24B4B" d="M34,12.8v16.8c0,1.4-1,2.7-2.5,2.9c-5.8,0.9-22.9,0.7-27.1,0C3,32.2,2,31,2,29.6V12.7c0-1.4,1-2.6,2.4-2.9
			c2.9-0.5,22.2-0.7,27.1,0C33,10.1,34,11.3,34,12.8z"/>
	</g>
	<g>
		<path fill="#3E4347" d="M18.1,32.4c-6,0-11.5-0.2-13.6-0.6c-1.1-0.2-1.9-1.1-1.9-2.2V12.7c0-1.1,0.8-2,1.9-2.2
			c1.5-0.3,7.7-0.4,14.2-0.4c6.1,0,10.8,0.2,12.7,0.5c1.1,0.2,1.9,1.1,1.9,2.2v16.8c0,1.1-0.8,2-1.9,2.2C29,32.1,24,32.4,18.1,32.4z
			"/>
	</g>
	<g>
		<path fill="#5A5F63" d="M26.3,13v16.2c0,0.4-0.3,0.8-0.8,0.9c-6.9,0.7-13.8,0.7-20.6,0c-0.4,0-0.8-0.4-0.8-0.9V13
			c0-0.4,0.3-0.8,0.8-0.9c6.9-0.7,13.8-0.7,20.6,0C25.9,12.2,26.3,12.5,26.3,13z"/>
	</g>
	<g>
		<path fill="#45CBEA" d="M24.1,26.6c-0.3,0.9-1,1.6-1.9,1.9c-4.6,1.1-9.3,1.1-13.9,0c-0.9-0.2-1.6-0.9-1.9-1.9
			c-1.2-3.7-1.2-7.4,0-11.1c0.3-0.9,1-1.6,1.9-1.9c4.6-1.1,9.3-1.1,13.9,0c0.9,0.2,1.6,0.9,1.9,1.9C25.3,19.3,25.3,22.9,24.1,26.6z"
			/>
	</g>
	<g>
		<path fill="#5A5F63" d="M32.3,22.5c0,0.3-0.2,0.5-0.5,0.5H28c-0.3,0-0.5-0.2-0.5-0.5c0-0.3,0.2-0.5,0.5-0.5h3.8
			C32,22,32.3,22.2,32.3,22.5z"/>
	</g>
	<g>
		<path fill="#5A5F63" d="M32.3,24.5c0,0.3-0.2,0.5-0.5,0.5H28c-0.3,0-0.5-0.2-0.5-0.5c0-0.3,0.2-0.5,0.5-0.5h3.8
			C32,24,32.3,24.3,32.3,24.5z"/>
	</g>
	<g>
		<path fill="#5A5F63" d="M32.3,26.6c0,0.3-0.2,0.5-0.5,0.5H28c-0.3,0-0.5-0.2-0.5-0.5c0-0.3,0.2-0.5,0.5-0.5h3.8
			C32,26.1,32.3,26.3,32.3,26.6z"/>
	</g>
	<g>
		<path fill="#5A5F63" d="M32.3,28.7c0,0.3-0.2,0.5-0.5,0.5H28c-0.3,0-0.5-0.2-0.5-0.5c0-0.3,0.2-0.5,0.5-0.5h3.8
			C32,28.2,32.3,28.4,32.3,28.7z"/>
	</g>
	<g>
		<circle fill="#5A5F63" cx="29.8" cy="16" r="2.4"/>
	</g>
	<g>
		<path fill="#3E4347" d="M31.1,17.3c-0.6,0.6-1.4,0.7-2.1,0.3c-0.1-0.1-0.2-0.2,0-0.3l2.3-1.9c0.1-0.1,0.3,0,0.3,0.1
			C31.7,16.1,31.6,16.8,31.1,17.3z"/>
	</g>
	<g>
		<path fill="#3E4347" d="M30.4,14.6l-1.9,2.3c-0.1,0.1-0.3,0.1-0.3,0c-0.3-0.7-0.2-1.5,0.3-2.1c0.5-0.5,1.2-0.6,1.8-0.5
			C30.4,14.3,30.5,14.5,30.4,14.6z"/>
	</g>
	<g>
		<path fill="#38C0DC" d="M13.7,12.9c-0.8,0-1.6,0.1-2.4,0.2c-1.9,1.9-3.9,4-5.7,5.9c-0.1,0.8-0.1,1.5-0.1,2.3
			C8,18.5,11.1,15.4,13.7,12.9z"/>
	</g>
	<g>
		<path fill="#38C0DC" d="M20.5,13.4c-1.8-0.3-3.6-0.5-5.4-0.5c-3,2.8-6.6,6.6-9.7,9.8c0.1,1.3,0.4,2.6,0.8,3.9c0,0.1,0,0.1,0.1,0.2
			C10.6,22.4,16.7,16.2,20.5,13.4z"/>
	</g>
</g>
</svg>
