<?xml version="1.0" encoding="utf-8"?>
<!-- Generator: Adobe Illustrator 18.0.0, SVG Export Plug-In . SVG Version: 6.00 Build 0)  -->
<!DOCTYPE svg PUBLIC "-//W3C//DTD SVG 1.1//EN" "http://www.w3.org/Graphics/SVG/1.1/DTD/svg11.dtd">
<svg version="1.1" id="Layer_1" xmlns="http://www.w3.org/2000/svg" xmlns:xlink="http://www.w3.org/1999/xlink" x="0px" y="0px"
	 viewBox="0 0 36 36" enable-background="new 0 0 36 36" xml:space="preserve">
<g>
	<g>
		<g>
			<g>
				<g>
					<path fill="#FFD93B" d="M34,29.3c-0.6,0.9-1.7,2.2-2.6,2.4c-0.3,0.1-0.6,0.2-0.8,0.5c-0.1,0.2-0.2,1.5-0.2,1.8
						c-0.7-0.5-3.3-3.4-3.9-4.6c-0.1-0.2-0.4,0-0.6,0.1c-0.3,0.3-2.5-0.6-2.3-1.3c0.2-0.7,2.7-0.5,2.8-0.2c0.1,0.3,0.3,0.5,0.7,0.5
						C28.6,28.5,32.1,29.5,34,29.3z"/>
				</g>
			</g>
		</g>
		<g>
			<g>
				<g>
					<g>
						<path fill="#E9EFF4" d="M26.2,29.7c0,0-0.1,0-0.1,0c-0.1-0.1-0.1-0.2,0-0.2c0.4-0.5,0.5-0.8,0.5-1.2c0-0.1,0.1-0.2,0.2-0.2
							c0.1,0,0.2,0.1,0.2,0.2c0,0.6-0.3,1.1-0.6,1.5C26.3,29.7,26.2,29.7,26.2,29.7z"/>
					</g>
				</g>
			</g>
		</g>
	</g>
	<g>
		<g>
			<g>
				<path fill="#FFE9AB" d="M23.8,28.3c-1.6-0.1-3.1-0.8-4.3-1.9c-1.6,2-4.6,3.6-7.8,3.2c-3.5-0.5-6.2-3.3-7.6-8
					c-2.3-7.5-0.6-13,5-16.3c3.1-1.8,6.5-2.3,10.8-1.7c4.3,0.6,7.8,3.2,9.1,6.7c0.9,2.5,0.9,4.3,0.1,5.7c-1.2,2.1-4,2.6-6.8,3.1
					c-1.3,0.2-2.4,0.4-3.4,0.8c-1.4,0.5-1.6,1.6-1.4,2.5c0.2,1.1,0.9,2.3,1.9,3.3c0,0,0,0,0,0l0.4,0.3c0,0,0,0.1-0.1,0.1
					c1.1,1,2.6,1.7,4.1,1.8L23.8,28.3z M13.6,4.2C12.1,4.5,10.7,5,9.4,5.8c-5.4,3.1-7,8.4-4.8,15.7c1.4,4.4,3.9,7.1,7.2,7.6
					c3,0.4,5.9-1.1,7.4-3c-1.2-1.1-1.9-2.5-2.1-3.7c-0.2-1.4,0.4-2.5,1.8-3c1-0.4,2.2-0.6,3.5-0.8c2.6-0.5,5.3-0.9,6.4-2.8
					c0.7-1.2,0.7-2.9-0.1-5.3c-1.2-3.3-4.6-5.8-8.7-6.4C17.5,3.8,15.4,3.8,13.6,4.2z"/>
			</g>
		</g>
	</g>
	<g>
		<g>
			<g>
				<g>
					<circle fill="#E84D88" cx="25.8" cy="6.4" r="1.4"/>
				</g>
			</g>
		</g>
		<g>
			<g>
				<g>
					<path fill="#D23F77" d="M27.2,6.4c0,0.3-0.1,0.5-0.2,0.7c-0.4,0.6-1.2,0.8-1.9,0.4c-0.6-0.4-0.8-1.1-0.4-1.8
						c0,0.5,0.2,0.9,0.6,1.2c0.6,0.4,1.5,0.2,1.9-0.4C27.1,6.5,27.2,6.4,27.2,6.4z"/>
				</g>
			</g>
		</g>
		<g>
			<g>
				<g>
					<path fill="#FFFFFF" d="M26.6,5.9c-0.1,0.1-0.3,0.1-0.5,0c-0.2-0.1-0.3-0.3-0.2-0.4c0.1-0.1,0.3-0.1,0.5,0
						C26.6,5.6,26.7,5.8,26.6,5.9z"/>
				</g>
			</g>
		</g>
	</g>
	<g>
		<g>
			<g>
				<g>
					<circle fill="#E84D88" cx="27.5" cy="8.3" r="1.4"/>
				</g>
			</g>
		</g>
		<g>
			<g>
				<g>
					<path fill="#D23F77" d="M28.9,8.3c0,0.3-0.1,0.5-0.2,0.7c-0.4,0.6-1.2,0.8-1.9,0.4C26.2,9,26,8.2,26.4,7.6
						c0,0.5,0.2,0.9,0.6,1.2c0.6,0.4,1.5,0.2,1.9-0.4C28.9,8.4,28.9,8.3,28.9,8.3z"/>
				</g>
			</g>
		</g>
		<g>
			<g>
				<g>
					<path fill="#FFFFFF" d="M28.4,7.8c-0.1,0.1-0.3,0.1-0.5,0s-0.3-0.3-0.2-0.4c0.1-0.1,0.3-0.1,0.5,0C28.3,7.5,28.4,7.6,28.4,7.8z
						"/>
				</g>
			</g>
		</g>
	</g>
	<g>
		<g>
			<g>
				<g>
					<circle fill="#E84D88" cx="28.7" cy="10.5" r="1.4"/>
				</g>
			</g>
		</g>
		<g>
			<g>
				<g>
					<path fill="#D23F77" d="M30.1,10.5c0,0.3-0.1,0.5-0.2,0.7c-0.4,0.6-1.2,0.8-1.9,0.4c-0.6-0.4-0.8-1.1-0.4-1.8
						c0,0.5,0.2,0.9,0.6,1.2c0.6,0.4,1.5,0.2,1.9-0.4C30,10.6,30.1,10.5,30.1,10.5z"/>
				</g>
			</g>
		</g>
		<g>
			<g>
				<g>
					<path fill="#FFFFFF" d="M29.5,10c-0.1,0.1-0.3,0.1-0.5,0c-0.2-0.1-0.3-0.3-0.2-0.4c0.1-0.1,0.3-0.1,0.5,0
						C29.5,9.7,29.6,9.9,29.5,10z"/>
				</g>
			</g>
		</g>
	</g>
	<g>
		<g>
			<g>
				<g>
					<circle fill="#E84D88" cx="29.4" cy="12.8" r="1.4"/>
				</g>
			</g>
		</g>
		<g>
			<g>
				<g>
					<path fill="#D23F77" d="M30.7,12.9c0,0.3-0.1,0.5-0.2,0.7c-0.4,0.6-1.2,0.8-1.9,0.4c-0.6-0.4-0.8-1.1-0.4-1.8
						c0,0.5,0.2,0.9,0.6,1.2c0.6,0.4,1.5,0.2,1.9-0.4C30.7,12.9,30.7,12.9,30.7,12.9z"/>
				</g>
			</g>
		</g>
		<g>
			<g>
				<g>
					<path fill="#FFFFFF" d="M30.2,12.4c-0.1,0.1-0.3,0.1-0.5,0s-0.3-0.3-0.2-0.4c0.1-0.1,0.3-0.1,0.5,0
						C30.2,12.1,30.3,12.2,30.2,12.4z"/>
				</g>
			</g>
		</g>
	</g>
	<g>
		<g>
			<g>
				<g>
					<circle fill="#E84D88" cx="27.5" cy="17" r="1.4"/>
				</g>
			</g>
		</g>
		<g>
			<g>
				<g>
					<path fill="#D23F77" d="M28.8,17c0,0.3-0.1,0.5-0.2,0.7c-0.4,0.6-1.2,0.8-1.9,0.4c-0.6-0.4-0.8-1.1-0.4-1.8
						c0,0.5,0.2,0.9,0.6,1.2c0.6,0.4,1.5,0.2,1.9-0.4C28.8,17.1,28.8,17.1,28.8,17z"/>
				</g>
			</g>
		</g>
		<g>
			<g>
				<g>
					<path fill="#FFFFFF" d="M28.3,16.5c-0.1,0.1-0.3,0.1-0.5,0c-0.2-0.1-0.3-0.3-0.2-0.4c0.1-0.1,0.3-0.1,0.5,0
						S28.4,16.4,28.3,16.5z"/>
				</g>
			</g>
		</g>
	</g>
	<g>
		<g>
			<g>
				<g>
					<circle fill="#E84D88" cx="29.3" cy="15.4" r="1.4"/>
				</g>
			</g>
		</g>
		<g>
			<g>
				<g>
					<path fill="#D23F77" d="M30.7,15.4c0,0.3-0.1,0.5-0.2,0.7c-0.4,0.6-1.2,0.8-1.9,0.4c-0.6-0.4-0.8-1.1-0.4-1.8
						c0,0.5,0.2,0.9,0.6,1.2c0.6,0.4,1.5,0.2,1.9-0.4C30.6,15.5,30.7,15.4,30.7,15.4z"/>
				</g>
			</g>
		</g>
		<g>
			<g>
				<g>
					<path fill="#FFFFFF" d="M30.1,14.9c-0.1,0.1-0.3,0.1-0.5,0c-0.2-0.1-0.3-0.3-0.2-0.4c0.1-0.1,0.3-0.1,0.5,0
						C30.1,14.6,30.2,14.8,30.1,14.9z"/>
				</g>
			</g>
		</g>
	</g>
	<g>
		<g>
			<g>
				<g>
					<circle fill="#E84D88" cx="25.4" cy="18.2" r="1.4"/>
				</g>
			</g>
		</g>
		<g>
			<g>
				<g>
					<path fill="#D23F77" d="M26.8,18.2c0,0.3-0.1,0.5-0.2,0.7c-0.4,0.6-1.2,0.8-1.9,0.4c-0.6-0.4-0.8-1.1-0.4-1.8
						c0,0.5,0.2,0.9,0.6,1.2c0.6,0.4,1.5,0.2,1.9-0.4C26.7,18.3,26.8,18.3,26.8,18.2z"/>
				</g>
			</g>
		</g>
		<g>
			<g>
				<g>
					<path fill="#FFFFFF" d="M26.2,17.7c-0.1,0.1-0.3,0.1-0.5,0c-0.2-0.1-0.3-0.3-0.2-0.4c0.1-0.1,0.3-0.1,0.5,0
						S26.3,17.6,26.2,17.7z"/>
				</g>
			</g>
		</g>
	</g>
	<g>
		<g>
			<g>
				<g>
					<circle fill="#E84D88" cx="23.1" cy="19" r="1.4"/>
				</g>
			</g>
		</g>
		<g>
			<g>
				<g>
					<path fill="#D23F77" d="M24.5,19c0,0.3-0.1,0.5-0.2,0.7c-0.4,0.6-1.2,0.8-1.9,0.4c-0.6-0.4-0.8-1.1-0.4-1.8
						c0,0.5,0.2,0.9,0.6,1.2c0.6,0.4,1.5,0.2,1.9-0.4C24.4,19.1,24.5,19,24.5,19z"/>
				</g>
			</g>
		</g>
		<g>
			<g>
				<g>
					<path fill="#FFFFFF" d="M23.9,18.5c-0.1,0.1-0.3,0.1-0.5,0c-0.2-0.1-0.3-0.3-0.2-0.4c0.1-0.1,0.3-0.1,0.5,0
						C23.9,18.2,24,18.4,23.9,18.5z"/>
				</g>
			</g>
		</g>
	</g>
	<g>
		<g>
			<g>
				<g>
					<circle fill="#E84D88" cx="20.7" cy="19.2" r="1.4"/>
				</g>
			</g>
		</g>
		<g>
			<g>
				<g>
					<path fill="#D23F77" d="M22,19.2c0,0.3-0.1,0.5-0.2,0.7c-0.4,0.6-1.2,0.8-1.9,0.4c-0.6-0.4-0.8-1.1-0.4-1.8
						c0,0.5,0.2,0.9,0.6,1.2c0.6,0.4,1.5,0.2,1.9-0.4C22,19.3,22,19.2,22,19.2z"/>
				</g>
			</g>
		</g>
		<g>
			<g>
				<g>
					<path fill="#FFFFFF" d="M21.5,18.7c-0.1,0.1-0.3,0.1-0.5,0s-0.3-0.3-0.2-0.4c0.1-0.1,0.3-0.1,0.5,0S21.5,18.6,21.5,18.7z"/>
				</g>
			</g>
		</g>
	</g>
	<g>
		<g>
			<g>
				<g>
					<circle fill="#E84D88" cx="18.3" cy="19.7" r="1.4"/>
				</g>
			</g>
		</g>
		<g>
			<g>
				<g>
					<path fill="#D23F77" d="M19.7,19.7c0,0.3-0.1,0.5-0.2,0.7c-0.4,0.6-1.2,0.8-1.9,0.4c-0.6-0.4-0.8-1.1-0.4-1.8
						c0,0.5,0.2,0.9,0.6,1.2c0.6,0.4,1.5,0.2,1.9-0.4C19.6,19.8,19.6,19.7,19.7,19.7z"/>
				</g>
			</g>
		</g>
		<g>
			<g>
				<g>
					<path fill="#FFFFFF" d="M19.1,19.2c-0.1,0.1-0.3,0.1-0.5,0c-0.2-0.1-0.3-0.3-0.2-0.4c0.1-0.1,0.3-0.1,0.5,0
						S19.2,19.1,19.1,19.2z"/>
				</g>
			</g>
		</g>
	</g>
	<g>
		<g>
			<g>
				<g>
					<circle fill="#E84D88" cx="17.3" cy="21.8" r="1.4"/>
				</g>
			</g>
		</g>
		<g>
			<g>
				<g>
					<path fill="#D23F77" d="M18.7,21.8c0,0.3-0.1,0.5-0.2,0.7c-0.4,0.6-1.2,0.8-1.9,0.4c-0.6-0.4-0.8-1.1-0.4-1.8
						c0,0.5,0.2,0.9,0.6,1.2c0.6,0.4,1.5,0.2,1.9-0.4C18.7,21.9,18.7,21.9,18.7,21.8z"/>
				</g>
			</g>
		</g>
		<g>
			<g>
				<g>
					<path fill="#FFFFFF" d="M18.2,21.3c-0.1,0.1-0.3,0.1-0.5,0s-0.3-0.3-0.2-0.4c0.1-0.1,0.3-0.1,0.5,0S18.2,21.2,18.2,21.3z"/>
				</g>
			</g>
		</g>
	</g>
	<g>
		<g>
			<g>
				<g>
					<circle fill="#E84D88" cx="17.8" cy="24.1" r="1.4"/>
				</g>
			</g>
		</g>
		<g>
			<g>
				<g>
					<path fill="#D23F77" d="M19.1,24.2c0,0.3-0.1,0.5-0.2,0.7c-0.4,0.6-1.2,0.8-1.9,0.4c-0.6-0.4-0.8-1.1-0.4-1.8
						c0,0.5,0.2,0.9,0.6,1.2c0.6,0.4,1.5,0.2,1.9-0.4C19.1,24.2,19.1,24.2,19.1,24.2z"/>
				</g>
			</g>
		</g>
		<g>
			<g>
				<g>
					<path fill="#FFFFFF" d="M18.6,23.6c-0.1,0.1-0.3,0.1-0.5,0s-0.3-0.3-0.2-0.4c0.1-0.1,0.3-0.1,0.5,0
						C18.6,23.3,18.7,23.5,18.6,23.6z"/>
				</g>
			</g>
		</g>
	</g>
	<g>
		<g>
			<g>
				<g>
					<circle fill="#E84D88" cx="19.3" cy="25.9" r="1.4"/>
				</g>
			</g>
		</g>
		<g>
			<g>
				<g>
					<path fill="#D23F77" d="M20.7,26c0,0.3-0.1,0.5-0.2,0.7c-0.4,0.6-1.2,0.8-1.9,0.4c-0.6-0.4-0.8-1.1-0.4-1.8
						c0,0.5,0.2,0.9,0.6,1.2c0.6,0.4,1.5,0.2,1.9-0.4C20.7,26,20.7,26,20.7,26z"/>
				</g>
			</g>
		</g>
		<g>
			<g>
				<g>
					<path fill="#FFFFFF" d="M20.2,25.5c-0.1,0.1-0.3,0.1-0.5,0c-0.2-0.1-0.3-0.3-0.2-0.4c0.1-0.1,0.3-0.1,0.5,0
						C20.1,25.2,20.2,25.3,20.2,25.5z"/>
				</g>
			</g>
		</g>
	</g>
	<g>
		<g>
			<g>
				<g>
					<circle fill="#E84D88" cx="17.8" cy="27.6" r="1.4"/>
				</g>
			</g>
		</g>
		<g>
			<g>
				<g>
					<path fill="#D23F77" d="M19.1,27.7c0,0.3-0.1,0.5-0.2,0.7c-0.4,0.6-1.2,0.8-1.9,0.4c-0.6-0.4-0.8-1.1-0.4-1.8
						c0,0.5,0.2,0.9,0.6,1.2c0.6,0.4,1.5,0.2,1.9-0.4C19.1,27.7,19.1,27.7,19.1,27.7z"/>
				</g>
			</g>
		</g>
		<g>
			<g>
				<g>
					<path fill="#FFFFFF" d="M18.6,27.2c-0.1,0.1-0.3,0.1-0.5,0s-0.3-0.3-0.2-0.4c0.1-0.1,0.3-0.1,0.5,0S18.7,27,18.6,27.2z"/>
				</g>
			</g>
		</g>
	</g>
	<g>
		<g>
			<g>
				<g>
					<circle fill="#E84D88" cx="15.5" cy="28.6" r="1.4"/>
				</g>
			</g>
		</g>
		<g>
			<g>
				<g>
					<path fill="#D23F77" d="M16.9,28.6c0,0.3-0.1,0.5-0.2,0.7c-0.4,0.6-1.2,0.8-1.9,0.4c-0.6-0.4-0.8-1.1-0.4-1.8
						c0,0.5,0.2,0.9,0.6,1.2c0.6,0.4,1.5,0.2,1.9-0.4C16.8,28.7,16.8,28.7,16.9,28.6z"/>
				</g>
			</g>
		</g>
		<g>
			<g>
				<g>
					<path fill="#FFFFFF" d="M16.3,28.1c-0.1,0.1-0.3,0.1-0.5,0c-0.2-0.1-0.3-0.3-0.2-0.4c0.1-0.1,0.3-0.1,0.5,0
						C16.3,27.8,16.4,28,16.3,28.1z"/>
				</g>
			</g>
		</g>
	</g>
	<g>
		<g>
			<g>
				<g>
					<circle fill="#E84D88" cx="13.3" cy="29.1" r="1.4"/>
				</g>
			</g>
		</g>
		<g>
			<g>
				<g>
					<path fill="#D23F77" d="M14.6,29.1c0,0.3-0.1,0.5-0.2,0.7c-0.4,0.6-1.2,0.8-1.9,0.4c-0.6-0.4-0.8-1.1-0.4-1.8
						c0,0.5,0.2,0.9,0.6,1.2c0.6,0.4,1.5,0.2,1.9-0.4C14.6,29.2,14.6,29.1,14.6,29.1z"/>
				</g>
			</g>
		</g>
		<g>
			<g>
				<g>
					<path fill="#FFFFFF" d="M14.1,28.6c-0.1,0.1-0.3,0.1-0.5,0c-0.2-0.1-0.3-0.3-0.2-0.4c0.1-0.1,0.3-0.1,0.5,0
						S14.2,28.5,14.1,28.6z"/>
				</g>
			</g>
		</g>
	</g>
	<g>
		<g>
			<g>
				<g>
					<circle fill="#E84D88" cx="10.8" cy="29.3" r="1.4"/>
				</g>
			</g>
		</g>
		<g>
			<g>
				<g>
					<path fill="#D23F77" d="M12.2,29.3c0,0.3-0.1,0.5-0.2,0.7c-0.4,0.6-1.2,0.8-1.9,0.4c-0.6-0.4-0.8-1.1-0.4-1.8
						c0,0.5,0.2,0.9,0.6,1.2c0.6,0.4,1.5,0.2,1.9-0.4C12.2,29.4,12.2,29.4,12.2,29.3z"/>
				</g>
			</g>
		</g>
		<g>
			<g>
				<g>
					<path fill="#FFFFFF" d="M11.7,28.8c-0.1,0.1-0.3,0.1-0.5,0c-0.2-0.1-0.3-0.3-0.2-0.4c0.1-0.1,0.3-0.1,0.5,0
						C11.6,28.5,11.7,28.7,11.7,28.8z"/>
				</g>
			</g>
		</g>
	</g>
	<g>
		<g>
			<g>
				<g>
					<circle fill="#E84D88" cx="8.5" cy="28.6" r="1.4"/>
				</g>
			</g>
		</g>
		<g>
			<g>
				<g>
					<path fill="#D23F77" d="M9.8,28.6c0,0.3-0.1,0.5-0.2,0.7c-0.4,0.6-1.2,0.8-1.9,0.4C7.2,29.3,7,28.6,7.3,28
						c0,0.5,0.2,0.9,0.6,1.2c0.6,0.4,1.5,0.2,1.9-0.4C9.8,28.7,9.8,28.7,9.8,28.6z"/>
				</g>
			</g>
		</g>
		<g>
			<g>
				<g>
					<path fill="#FFFFFF" d="M9.3,28.1c-0.1,0.1-0.3,0.1-0.5,0s-0.3-0.3-0.2-0.4c0.1-0.1,0.3-0.1,0.5,0C9.3,27.8,9.4,28,9.3,28.1z"
						/>
				</g>
			</g>
		</g>
	</g>
	<g>
		<g>
			<g>
				<g>
					<circle fill="#E84D88" cx="6.9" cy="26.6" r="1.4"/>
				</g>
			</g>
		</g>
		<g>
			<g>
				<g>
					<path fill="#D23F77" d="M8.3,26.6c0,0.3-0.1,0.5-0.2,0.7c-0.4,0.6-1.2,0.8-1.9,0.4c-0.6-0.4-0.8-1.1-0.4-1.8
						c0,0.5,0.2,0.9,0.6,1.2c0.6,0.4,1.5,0.2,1.9-0.4C8.2,26.7,8.3,26.7,8.3,26.6z"/>
				</g>
			</g>
		</g>
		<g>
			<g>
				<g>
					<path fill="#FFFFFF" d="M7.7,26.1c-0.1,0.1-0.3,0.1-0.5,0C7.1,26,7,25.8,7.1,25.7c0.1-0.1,0.3-0.1,0.5,0
						C7.7,25.8,7.8,26,7.7,26.1z"/>
				</g>
			</g>
		</g>
	</g>
	<g>
		<g>
			<g>
				<g>
					<circle fill="#E84D88" cx="5.3" cy="24.7" r="1.4"/>
				</g>
			</g>
		</g>
		<g>
			<g>
				<g>
					<path fill="#D23F77" d="M6.7,24.7c0,0.3-0.1,0.5-0.2,0.7c-0.4,0.6-1.2,0.8-1.9,0.4c-0.6-0.4-0.8-1.1-0.4-1.8
						c0,0.5,0.2,0.9,0.6,1.2c0.6,0.4,1.5,0.2,1.9-0.4C6.6,24.8,6.7,24.8,6.7,24.7z"/>
				</g>
			</g>
		</g>
		<g>
			<g>
				<g>
					<path fill="#FFFFFF" d="M6.1,24.2c-0.1,0.1-0.3,0.1-0.5,0c-0.2-0.1-0.3-0.3-0.2-0.4c0.1-0.1,0.3-0.1,0.5,0
						C6.1,23.9,6.2,24.1,6.1,24.2z"/>
				</g>
			</g>
		</g>
	</g>
	<g>
		<g>
			<g>
				<g>
					<circle fill="#E84D88" cx="4.4" cy="22.5" r="1.4"/>
				</g>
			</g>
		</g>
		<g>
			<g>
				<g>
					<path fill="#D23F77" d="M5.8,22.5c0,0.3-0.1,0.5-0.2,0.7c-0.4,0.6-1.2,0.8-1.9,0.4c-0.6-0.4-0.8-1.1-0.4-1.8
						c0,0.5,0.2,0.9,0.6,1.2c0.6,0.4,1.5,0.2,1.9-0.4C5.7,22.6,5.7,22.5,5.8,22.5z"/>
				</g>
			</g>
		</g>
		<g>
			<g>
				<g>
					<path fill="#FFFFFF" d="M5.2,22c-0.1,0.1-0.3,0.1-0.5,0c-0.2-0.1-0.3-0.3-0.2-0.4c0.1-0.1,0.3-0.1,0.5,0
						C5.2,21.7,5.3,21.9,5.2,22z"/>
				</g>
			</g>
		</g>
	</g>
	<g>
		<g>
			<g>
				<g>
					<circle fill="#E84D88" cx="3.9" cy="20.2" r="1.4"/>
				</g>
			</g>
		</g>
		<g>
			<g>
				<g>
					<path fill="#D23F77" d="M5.3,20.2c0,0.3-0.1,0.5-0.2,0.7c-0.4,0.6-1.2,0.8-1.9,0.4c-0.6-0.4-0.8-1.1-0.4-1.8
						c0,0.5,0.2,0.9,0.6,1.2C4,21.2,4.8,21,5.2,20.4C5.2,20.3,5.3,20.3,5.3,20.2z"/>
				</g>
			</g>
		</g>
		<g>
			<g>
				<g>
					<path fill="#FFFFFF" d="M4.8,19.7c-0.1,0.1-0.3,0.1-0.5,0c-0.2-0.1-0.3-0.3-0.2-0.4c0.1-0.1,0.3-0.1,0.5,0
						C4.7,19.4,4.8,19.6,4.8,19.7z"/>
				</g>
			</g>
		</g>
	</g>
	<g>
		<g>
			<g>
				<g>
					<circle fill="#E84D88" cx="3.4" cy="17.8" r="1.4"/>
				</g>
			</g>
		</g>
		<g>
			<g>
				<g>
					<path fill="#D23F77" d="M4.8,17.8c0,0.3-0.1,0.5-0.2,0.7c-0.4,0.6-1.2,0.8-1.9,0.4c-0.6-0.4-0.8-1.1-0.4-1.8
						c0,0.5,0.2,0.9,0.6,1.2c0.6,0.4,1.5,0.2,1.9-0.4C4.8,17.9,4.8,17.9,4.8,17.8z"/>
				</g>
			</g>
		</g>
		<g>
			<g>
				<g>
					<path fill="#FFFFFF" d="M4.3,17.3c-0.1,0.1-0.3,0.1-0.5,0c-0.2-0.1-0.3-0.3-0.2-0.4c0.1-0.1,0.3-0.1,0.5,0
						C4.2,17,4.3,17.2,4.3,17.3z"/>
				</g>
			</g>
		</g>
	</g>
	<g>
		<g>
			<g>
				<g>
					<circle fill="#E84D88" cx="3.4" cy="15.2" r="1.4"/>
				</g>
			</g>
		</g>
		<g>
			<g>
				<g>
					<path fill="#D23F77" d="M4.7,15.2c0,0.3-0.1,0.5-0.2,0.7c-0.4,0.6-1.2,0.8-1.9,0.4C2,16,1.8,15.2,2.2,14.6
						c0,0.5,0.2,0.9,0.6,1.2c0.6,0.4,1.5,0.2,1.9-0.4C4.7,15.3,4.7,15.3,4.7,15.2z"/>
				</g>
			</g>
		</g>
		<g>
			<g>
				<g>
					<path fill="#FFFFFF" d="M4.2,14.7c-0.1,0.1-0.3,0.1-0.5,0s-0.3-0.3-0.2-0.4c0.1-0.1,0.3-0.1,0.5,0C4.1,14.4,4.2,14.6,4.2,14.7z
						"/>
				</g>
			</g>
		</g>
	</g>
	<g>
		<g>
			<g>
				<g>
					<circle fill="#E84D88" cx="3.5" cy="12.7" r="1.4"/>
				</g>
			</g>
		</g>
		<g>
			<g>
				<g>
					<path fill="#D23F77" d="M4.8,12.7c0,0.3-0.1,0.5-0.2,0.7c-0.4,0.6-1.2,0.8-1.9,0.4c-0.6-0.4-0.8-1.1-0.4-1.8
						c0,0.5,0.2,0.9,0.6,1.2c0.6,0.4,1.5,0.2,1.9-0.4C4.8,12.8,4.8,12.7,4.8,12.7z"/>
				</g>
			</g>
		</g>
		<g>
			<g>
				<g>
					<path fill="#FFFFFF" d="M4.3,12.2c-0.1,0.1-0.3,0.1-0.5,0c-0.2-0.1-0.3-0.3-0.2-0.4c0.1-0.1,0.3-0.1,0.5,0
						C4.2,11.9,4.3,12.1,4.3,12.2z"/>
				</g>
			</g>
		</g>
	</g>
	<g>
		<g>
			<g>
				<g>
					<circle fill="#E84D88" cx="4.4" cy="10.2" r="1.4"/>
				</g>
			</g>
		</g>
		<g>
			<g>
				<g>
					<path fill="#D23F77" d="M5.8,10.2c0,0.3-0.1,0.5-0.2,0.7c-0.4,0.6-1.2,0.8-1.9,0.4C3.1,11,2.9,10.2,3.2,9.6
						c0,0.5,0.2,0.9,0.6,1.2c0.6,0.4,1.5,0.2,1.9-0.4C5.7,10.3,5.7,10.3,5.8,10.2z"/>
				</g>
			</g>
		</g>
		<g>
			<g>
				<g>
					<path fill="#FFFFFF" d="M5.2,9.7c-0.1,0.1-0.3,0.1-0.5,0C4.6,9.6,4.5,9.4,4.5,9.3c0.1-0.1,0.3-0.1,0.5,0
						C5.2,9.4,5.3,9.6,5.2,9.7z"/>
				</g>
			</g>
		</g>
	</g>
	<g>
		<g>
			<g>
				<g>
					<circle fill="#E84D88" cx="5.8" cy="8.1" r="1.4"/>
				</g>
			</g>
		</g>
		<g>
			<g>
				<g>
					<path fill="#D23F77" d="M7.2,8.1c0,0.3-0.1,0.5-0.2,0.7C6.5,9.5,5.7,9.6,5.1,9.2C4.5,8.8,4.3,8.1,4.6,7.5
						c0,0.5,0.2,0.9,0.6,1.2C5.8,9,6.7,8.9,7.1,8.2C7.1,8.2,7.1,8.2,7.2,8.1z"/>
				</g>
			</g>
		</g>
		<g>
			<g>
				<g>
					<path fill="#FFFFFF" d="M6.6,7.6c-0.1,0.1-0.3,0.1-0.5,0C6,7.4,5.9,7.3,5.9,7.2C6,7,6.2,7.1,6.4,7.2C6.6,7.3,6.7,7.5,6.6,7.6z"
						/>
				</g>
			</g>
		</g>
	</g>
	<g>
		<g>
			<g>
				<g>
					<circle fill="#E84D88" cx="7.7" cy="6.5" r="1.4"/>
				</g>
			</g>
		</g>
		<g>
			<g>
				<g>
					<path fill="#D23F77" d="M9.1,6.5c0,0.3-0.1,0.5-0.2,0.7C8.5,7.9,7.6,8.1,7,7.7C6.4,7.3,6.2,6.5,6.6,5.9c0,0.5,0.2,0.9,0.6,1.2
						C7.8,7.5,8.6,7.3,9,6.7C9.1,6.6,9.1,6.6,9.1,6.5z"/>
				</g>
			</g>
		</g>
		<g>
			<g>
				<g>
					<path fill="#FFFFFF" d="M8.6,6C8.5,6.1,8.3,6.1,8.1,6C7.9,5.9,7.8,5.7,7.9,5.6c0.1-0.1,0.3-0.1,0.5,0C8.5,5.7,8.6,5.9,8.6,6z"
						/>
				</g>
			</g>
		</g>
	</g>
	<g>
		<g>
			<g>
				<g>
					<circle fill="#E84D88" cx="9.9" cy="5.2" r="1.4"/>
				</g>
			</g>
		</g>
		<g>
			<g>
				<g>
					<path fill="#D23F77" d="M11.2,5.2c0,0.3-0.1,0.5-0.2,0.7c-0.4,0.6-1.2,0.8-1.9,0.4C8.6,6,8.4,5.2,8.7,4.6
						c0,0.5,0.2,0.9,0.6,1.2c0.6,0.4,1.5,0.2,1.9-0.4C11.2,5.3,11.2,5.3,11.2,5.2z"/>
				</g>
			</g>
		</g>
		<g>
			<g>
				<g>
					<path fill="#FFFFFF" d="M10.7,4.7c-0.1,0.1-0.3,0.1-0.5,0C10,4.6,9.9,4.4,10,4.3c0.1-0.1,0.3-0.1,0.5,0
						C10.7,4.4,10.8,4.6,10.7,4.7z"/>
				</g>
			</g>
		</g>
	</g>
	<g>
		<g>
			<g>
				<g>
					<circle fill="#E84D88" cx="12.2" cy="4.1" r="1.4"/>
				</g>
			</g>
		</g>
		<g>
			<g>
				<g>
					<path fill="#D23F77" d="M13.5,4.1c0,0.3-0.1,0.5-0.2,0.7c-0.4,0.6-1.2,0.8-1.9,0.4c-0.6-0.4-0.8-1.1-0.4-1.8
						c0,0.5,0.2,0.9,0.6,1.2c0.6,0.4,1.5,0.2,1.9-0.4C13.5,4.2,13.5,4.2,13.5,4.1z"/>
				</g>
			</g>
		</g>
		<g>
			<g>
				<g>
					<path fill="#FFFFFF" d="M13,3.6c-0.1,0.1-0.3,0.1-0.5,0s-0.3-0.3-0.2-0.4c0.1-0.1,0.3-0.1,0.5,0C13,3.3,13.1,3.5,13,3.6z"/>
				</g>
			</g>
		</g>
	</g>
	<g>
		<g>
			<g>
				<g>
					<circle fill="#E84D88" cx="14.5" cy="3.4" r="1.4"/>
				</g>
			</g>
		</g>
		<g>
			<g>
				<g>
					<path fill="#D23F77" d="M15.9,3.1c0,0.3,0,0.5-0.1,0.8c-0.3,0.7-1.1,1-1.8,0.7c-0.7-0.3-1-1-0.8-1.6c0.1,0.4,0.4,0.8,0.8,1
						c0.7,0.3,1.5-0.1,1.8-0.7C15.8,3.2,15.9,3.2,15.9,3.1z"/>
				</g>
			</g>
		</g>
		<g>
			<g>
				<g>
					<path fill="#FFFFFF" d="M15.4,2.9c-0.1,0.1-0.3,0.1-0.5,0s-0.3-0.3-0.2-0.4c0.1-0.1,0.3-0.1,0.5,0C15.3,2.6,15.4,2.8,15.4,2.9z
						"/>
				</g>
			</g>
		</g>
	</g>
	<g>
		<g>
			<g>
				<g>
					<circle fill="#E84D88" cx="17.2" cy="3.7" r="1.4"/>
				</g>
			</g>
		</g>
		<g>
			<g>
				<g>
					<path fill="#D23F77" d="M18.5,3.3c0.1,0.2,0.1,0.5,0,0.8c-0.2,0.7-0.9,1.2-1.6,1c-0.7-0.2-1.1-0.8-1-1.5
						c0.1,0.4,0.5,0.8,0.9,0.9c0.7,0.2,1.5-0.3,1.6-1C18.4,3.4,18.5,3.3,18.5,3.3z"/>
				</g>
			</g>
		</g>
		<g>
			<g>
				<g>
					<path fill="#FFFFFF" d="M17.9,3.2c-0.1,0.1-0.3,0.1-0.5,0c-0.2-0.1-0.3-0.3-0.2-0.4c0.1-0.1,0.3-0.1,0.5,0
						C17.9,2.9,18,3.1,17.9,3.2z"/>
				</g>
			</g>
		</g>
	</g>
	<g>
		<g>
			<g>
				<g>
					<circle fill="#E84D88" cx="19.6" cy="3.7" r="1.4"/>
				</g>
			</g>
		</g>
		<g>
			<g>
				<g>
					<path fill="#D23F77" d="M20.9,3.7c0,0.3,0,0.5-0.2,0.7c-0.4,0.6-1.2,0.9-1.8,0.5c-0.6-0.3-0.8-1.1-0.6-1.7
						c0,0.5,0.3,0.9,0.7,1.1c0.7,0.4,1.5,0.1,1.8-0.5C20.9,3.7,20.9,3.7,20.9,3.7z"/>
				</g>
			</g>
		</g>
		<g>
			<g>
				<g>
					<path fill="#FFFFFF" d="M20.4,3.2c-0.1,0.1-0.3,0.1-0.5,0c-0.2-0.1-0.3-0.3-0.2-0.4c0.1-0.1,0.3-0.1,0.5,0
						C20.4,2.9,20.5,3.1,20.4,3.2z"/>
				</g>
			</g>
		</g>
	</g>
	<g>
		<g>
			<g>
				<g>
					<circle fill="#E84D88" cx="21.9" cy="4.4" r="1.4"/>
				</g>
			</g>
		</g>
		<g>
			<g>
				<g>
					<path fill="#D23F77" d="M23.3,4.2c0,0.3,0,0.5-0.1,0.8c-0.3,0.7-1.1,1-1.8,0.7c-0.6-0.3-0.9-1-0.7-1.7C20.7,4.4,21,4.8,21.4,5
						c0.7,0.3,1.5,0,1.8-0.7C23.2,4.3,23.3,4.2,23.3,4.2z"/>
				</g>
			</g>
		</g>
		<g>
			<g>
				<g>
					<path fill="#FFFFFF" d="M22.7,3.9c-0.1,0.1-0.3,0.1-0.5,0c-0.2-0.1-0.3-0.3-0.2-0.4c0.1-0.1,0.3-0.1,0.5,0
						C22.7,3.6,22.8,3.8,22.7,3.9z"/>
				</g>
			</g>
		</g>
	</g>
	<g>
		<g>
			<g>
				<g>
					<circle fill="#E84D88" cx="24.1" cy="5" r="1.4"/>
				</g>
			</g>
		</g>
		<g>
			<g>
				<g>
					<path fill="#D23F77" d="M25.4,4.6c0.1,0.2,0.1,0.5,0,0.8c-0.2,0.7-1,1.1-1.7,0.9c-0.7-0.2-1-0.9-0.9-1.6c0.1,0.4,0.4,0.8,0.9,1
						c0.7,0.2,1.5-0.1,1.7-0.9C25.4,4.7,25.4,4.7,25.4,4.6z"/>
				</g>
			</g>
		</g>
		<g>
			<g>
				<g>
					<path fill="#FFFFFF" d="M24.9,4.5c-0.1,0.1-0.3,0.1-0.5,0c-0.2-0.1-0.3-0.3-0.2-0.4c0.1-0.1,0.3-0.1,0.5,0
						C24.9,4.2,24.9,4.4,24.9,4.5z"/>
				</g>
			</g>
		</g>
	</g>
	<g>
		<g>
			<g>
				<g>
					<circle fill="#E84D88" cx="21.2" cy="27.4" r="1.4"/>
				</g>
			</g>
		</g>
		<g>
			<g>
				<g>
					<path fill="#D23F77" d="M22.6,27.4c0,0.3-0.1,0.5-0.2,0.7c-0.4,0.6-1.2,0.8-1.9,0.4c-0.6-0.4-0.8-1.1-0.4-1.8
						c0,0.5,0.2,0.9,0.6,1.2c0.6,0.4,1.5,0.2,1.9-0.4C22.6,27.5,22.6,27.5,22.6,27.4z"/>
				</g>
			</g>
		</g>
		<g>
			<g>
				<g>
					<path fill="#FFFFFF" d="M22.1,26.9c-0.1,0.1-0.3,0.1-0.5,0s-0.3-0.3-0.2-0.4c0.1-0.1,0.3-0.1,0.5,0
						C22,26.6,22.1,26.8,22.1,26.9z"/>
				</g>
			</g>
		</g>
	</g>
	<g>
		<g>
			<g>
				<g>
					<circle fill="#E9EFF4" cx="23.3" cy="27.9" r="1.4"/>
				</g>
			</g>
		</g>
		<g>
			<g>
				<g>
					<path fill="#DEE4E9" d="M24.7,27.9c0,0.3-0.1,0.5-0.2,0.7c-0.4,0.6-1.2,0.8-1.9,0.4c-0.6-0.4-0.8-1.1-0.4-1.8
						c0,0.5,0.2,0.9,0.6,1.2c0.6,0.4,1.5,0.2,1.9-0.4C24.7,28,24.7,27.9,24.7,27.9z"/>
				</g>
			</g>
		</g>
		<g>
			<g>
				<g>
					<path fill="#FFFFFF" d="M24.2,27.4c-0.1,0.1-0.3,0.1-0.5,0c-0.2-0.1-0.3-0.3-0.2-0.4c0.1-0.1,0.3-0.1,0.5,0
						C24.1,27.1,24.2,27.3,24.2,27.4z"/>
				</g>
			</g>
		</g>
	</g>
</g>
</svg>
