<?xml version="1.0" encoding="utf-8"?>
<!-- Generator: Adobe Illustrator 18.0.0, SVG Export Plug-In . SVG Version: 6.00 Build 0)  -->
<!DOCTYPE svg PUBLIC "-//W3C//DTD SVG 1.1//EN" "http://www.w3.org/Graphics/SVG/1.1/DTD/svg11.dtd">
<svg version="1.1" id="Layer_1" xmlns="http://www.w3.org/2000/svg" xmlns:xlink="http://www.w3.org/1999/xlink" x="0px" y="0px"
	 viewBox="0 0 36 36" enable-background="new 0 0 36 36" xml:space="preserve">
<g>
	<g>
		<g>
			<g>
				<path fill="#E9B02C" d="M2,11.6c4.6,5.5,11.2,12.8,16,19.5c-0.5-5.4-1.1-10.7-1.6-16.1C11.5,13.6,6.7,12.4,2,11.6z"/>
			</g>
		</g>
		<g>
			<g>
				<path fill="#E9B02C" d="M34,11.6c-4.6,5.5-11.2,12.8-16,19.5c1.1-6,2.6-12.1,3.8-18.1C25.9,12.4,30,11.8,34,11.6z"/>
			</g>
		</g>
		<g>
			<g>
				<path fill="#F4C534" d="M18,31.1L18,31.1L18,31.1L18,31.1c2.3-5.1,5.2-10.2,7.7-15.1c-0.6-1.5-1.2-3.1-1.8-4.7
					c-4-0.1-7.9-0.1-11.9,0c-0.6,1.6-1.2,3.1-1.8,4.7C12.8,20.8,15.7,26,18,31.1z"/>
			</g>
		</g>
	</g>
	<g>
		<g>
			<path fill="#DE9C25" d="M3.3,7.9c2.8,0.9,5.7,2,8.8,3.3c4-0.1,7.9-0.1,11.9,0c3.1-1.3,6-2.5,8.8-3.3l-9.4-2.8
				c-3.6-0.2-7.1-0.2-10.7,0L3.3,7.9z"/>
		</g>
	</g>
	<g>
		<g>
			<path fill="#F4C534" d="M32.7,7.9c-2.8,0.9-5.7,2-8.8,3.3c0.6,1.6,1.2,3.1,1.8,4.7c2.9-1.6,5.7-3.1,8.3-4.3
				C33.6,10.4,33.2,9.1,32.7,7.9z"/>
		</g>
	</g>
	<g>
		<g>
			<path fill="#F4C534" d="M3.3,7.9c2.8,0.9,5.7,2,8.8,3.3c-0.6,1.6-1.2,3.1-1.8,4.7c-2.9-1.6-5.7-3.1-8.3-4.3
				C2.4,10.4,2.8,9.1,3.3,7.9z"/>
		</g>
	</g>
	<g>
		<g>
			<path fill="#FFD93B" d="M25.7,15.9c-5.1,0-10.3,0-15.4,0c0.6-1.5,1.2-3.1,1.8-4.7c4-0.1,7.9-0.1,11.9,0
				C24.5,12.8,25.1,14.4,25.7,15.9z"/>
		</g>
	</g>
</g>
</svg>
