<?xml version="1.0" encoding="utf-8"?>
<!-- Generator: Adobe Illustrator 18.0.0, SVG Export Plug-In . SVG Version: 6.00 Build 0)  -->
<!DOCTYPE svg PUBLIC "-//W3C//DTD SVG 1.1//EN" "http://www.w3.org/Graphics/SVG/1.1/DTD/svg11.dtd">
<svg version="1.1" id="Layer_1" xmlns="http://www.w3.org/2000/svg" xmlns:xlink="http://www.w3.org/1999/xlink" x="0px" y="0px"
	 viewBox="0 0 36 36" enable-background="new 0 0 36 36" xml:space="preserve">
<g>
	<g>
		<g>
			<path fill="#DEE4E9" d="M33.7,2l-21,18.9l2.4,2.7l0,0c0.5-0.4,1.2-0.4,1.6,0.1l4.3,4.8C21.1,28.4,34.4,16.6,33.7,2z"/>
		</g>
	</g>
	<g>
		<g>
			<path fill="#D3D9DD" d="M21.5,25.2l-2.7-9.7l-1.2,1.1l3,9.8C20.9,26,21.2,25.6,21.5,25.2z"/>
		</g>
		<g>
			<path fill="#D3D9DD" d="M22.9,24l-2.6-9.9L19.4,15l2.8,9.7C22.4,24.4,22.6,24.2,22.9,24z"/>
		</g>
	</g>
	<g>
		<path fill="#E9EFF4" d="M33.7,2c0,0-1.6,13.4-14.3,24.6l1.7,1.8C21.1,28.4,34.4,16.6,33.7,2z"/>
	</g>
	<g>
		<g>
			<path fill="#A5856D" d="M12.5,21.2l-9.3,8.4c-0.3,0.2-0.3,0.7,0,0.9L5.4,33c0.2,0.3,0.7,0.3,0.9,0l9.3-8.4L12.5,21.2z"/>
		</g>
	</g>
	<g>
		<g>
			<path fill="#E9EFF4" d="M12.3,21.3l3.2,3.5c0.2,0.3,0.6,0.3,0.9,0l0,0c0.3-0.2,0.3-0.6,0-0.9l-3.2-3.5c-0.2-0.3-0.6-0.3-0.9,0
				l0,0C12.1,20.7,12.1,21.1,12.3,21.3z"/>
		</g>
	</g>
	<g>
		<g>
			<path fill="#E9EFF4" d="M2.4,30.3l3.2,3.5c0.2,0.3,0.6,0.3,0.9,0l0,0c0.3-0.2,0.3-0.6,0-0.9l-3.2-3.5c-0.2-0.3-0.6-0.3-0.9,0l0,0
				C2.2,29.6,2.2,30,2.4,30.3z"/>
		</g>
	</g>
</g>
</svg>
