<?xml version="1.0" encoding="utf-8"?>
<!-- Generator: Adobe Illustrator 18.0.0, SVG Export Plug-In . SVG Version: 6.00 Build 0)  -->
<!DOCTYPE svg PUBLIC "-//W3C//DTD SVG 1.1//EN" "http://www.w3.org/Graphics/SVG/1.1/DTD/svg11.dtd">
<svg version="1.1" id="Layer_1" xmlns="http://www.w3.org/2000/svg" xmlns:xlink="http://www.w3.org/1999/xlink" x="0px" y="0px"
	 viewBox="0 0 36 36" enable-background="new 0 0 36 36" xml:space="preserve">
<g>
	<g>
		<path fill="#E9B02C" d="M32,34H4c-1.1,0-2-0.9-2-2V12.7c0-1.1,0.9-2,2-2H32c1.1,0,2,0.9,2,2V32C34,33.1,33.1,34,32,34z"/>
	</g>
	<g>
		<path fill="#F4C534" d="M32.4,34C32.1,34,3.8,34,3.6,34c-1.2-0.2-1.7-1.8-0.8-2.7l0,0l13.9-13c0.7-0.7,1.9-0.7,2.6,0l13.9,13l0,0
			C34.1,32.1,33.6,33.7,32.4,34z"/>
	</g>
	<g>
		<path fill="#FFD93B" d="M32,10.7H4c-0.8,0-1.4,0.4-1.7,1.1c-0.1,0.6,0.1,1.2,0.6,1.7l13.9,13c0.7,0.7,1.9,0.7,2.6,0l13.9-13
			c0.5-0.5,0.7-1.1,0.6-1.7C33.5,11.1,32.8,10.7,32,10.7z"/>
	</g>
	<g>
		<circle fill="#E9EFF4" cx="24.6" cy="9.1" r="7.1"/>
	</g>
	<g>
		<path fill="#E84D88" d="M29.6,9.1c0,2.8-2.2,5-5,5s-5-2.2-5-5s2.2-5,5-5S29.6,6.4,29.6,9.1z"/>
	</g>
	<g>
		<path fill="#FFFFFF" d="M25.3,12h-1.1V7.8c-0.4,0.4-0.9,0.7-1.4,0.8v-1c0.6-0.2,1.4-0.8,1.6-1.5h0.9V12z"/>
	</g>
</g>
</svg>
