<?xml version="1.0" encoding="utf-8"?>
<!-- Generator: Adobe Illustrator 18.0.0, SVG Export Plug-In . SVG Version: 6.00 Build 0)  -->
<!DOCTYPE svg PUBLIC "-//W3C//DTD SVG 1.1//EN" "http://www.w3.org/Graphics/SVG/1.1/DTD/svg11.dtd">
<svg version="1.1" id="Layer_1" xmlns="http://www.w3.org/2000/svg" xmlns:xlink="http://www.w3.org/1999/xlink" x="0px" y="0px"
	 viewBox="0 0 36 36" enable-background="new 0 0 36 36" xml:space="preserve">
<g>
	<g>
		<path fill="#ACB9C1" d="M32,34H4c-1.1,0-2-0.9-2-2V12.7c0-1.1,0.9-2,2-2H32c1.1,0,2,0.9,2,2V32C34,33.1,33.1,34,32,34z"/>
	</g>
	<g>
		<path fill="#CBD6E0" d="M32.4,34C32.1,34,3.8,34,3.6,34c-1.2-0.2-1.7-1.8-0.8-2.7l0,0l13.9-13c0.7-0.7,1.9-0.7,2.6,0l13.9,13l0,0
			C34.1,32.1,33.6,33.7,32.4,34z"/>
	</g>
	<g>
		<path fill="#DAE5EF" d="M32,10.7H4c-0.8,0-1.4,0.4-1.7,1.1c-0.1,0.6,0.1,1.2,0.6,1.7l13.9,13c0.7,0.7,1.9,0.7,2.6,0l13.9-13
			c0.5-0.5,0.7-1.1,0.6-1.7C33.5,11.1,32.8,10.7,32,10.7z"/>
	</g>
	<g>
		<path fill="#8CC63E" d="M22.9,10.6l-4.3,5.2c-0.3,0.4-0.9,0.4-1.2,0l-4.3-5.2c-0.4-0.5-0.1-1.3,0.6-1.3h1.6l-0.8-6.4
			C14.4,2.4,14.8,2,15.3,2h5.4c0.5,0,0.9,0.4,0.8,0.9l-0.8,6.4h1.6C23,9.3,23.4,10.1,22.9,10.6z"/>
	</g>
</g>
</svg>
