<?xml version="1.0" encoding="utf-8"?>
<!-- Generator: Adobe Illustrator 18.0.0, SVG Export Plug-In . SVG Version: 6.00 Build 0)  -->
<!DOCTYPE svg PUBLIC "-//W3C//DTD SVG 1.1//EN" "http://www.w3.org/Graphics/SVG/1.1/DTD/svg11.dtd">
<svg version="1.1" id="Layer_1" xmlns="http://www.w3.org/2000/svg" xmlns:xlink="http://www.w3.org/1999/xlink" x="0px" y="0px"
	 viewBox="0 0 36 36" enable-background="new 0 0 36 36" xml:space="preserve">
<g>
	<g>
		<path fill="#5A5F63" d="M11.5,8.5V6.8c0-0.3-0.2-0.6-0.5-0.6c-1.4-0.3-2.8-0.3-4.2,0C6.6,6.3,6.4,6.5,6.4,6.8v1.7H11.5z"/>
	</g>
	<g>
		<path fill="#DAE5EF" d="M34.5,10.6v16.5c0,1.6-1.3,2.9-2.9,2.9H5.4c-1.6,0-2.9-1.3-2.9-2.9V10.6c0-1.6,1.3-2.9,2.9-2.9h26.1
			C33.2,7.7,34.5,9,34.5,10.6z"/>
	</g>
	<g>
		<path fill="#5A5F63" d="M31.4,18.9c0,4.5-3.6,8.1-8.1,8.1c-4.5,0-8.1-3.6-8.1-8.1c0-4.5,3.6-8.1,8.1-8.1
			C27.8,10.7,31.4,14.4,31.4,18.9z"/>
	</g>
	<g>
		<path fill="#FFFFFF" d="M29.4,18.9c0,3.4-2.7,6.1-6.1,6.1c-3.4,0-6.1-2.7-6.1-6.1c0-3.4,2.7-6.1,6.1-6.1
			C26.6,12.7,29.4,15.5,29.4,18.9z"/>
	</g>
	<g>
		<path fill="#45CBEA" d="M27.3,18.9c0,2.2-1.8,4-4,4c-2.2,0-4-1.8-4-4c0-2.2,1.8-4,4-4C25.5,14.8,27.3,16.6,27.3,18.9z"/>
	</g>
	<g>
		<path fill="#38C0DC" d="M26.8,20.7c-0.7,1.3-2,2.2-3.6,2.2c-2.2,0-4-1.8-4-4c0-1.5,0.9-2.9,2.2-3.6c-0.3,0.6-0.5,1.2-0.5,1.9
			c0,2.2,1.8,4,4,4C25.6,21.2,26.3,21,26.8,20.7z"/>
	</g>
	<g>
		<circle fill="#FFFFFF" cx="26" cy="16.9" r="2.2"/>
	</g>
	<g>
		<path fill="#5A5F63" d="M12.7,11.7v2.6c0,0.3-0.2,0.5-0.5,0.5H6.3c-0.3,0-0.5-0.2-0.5-0.5v-2.6c0-0.3,0.2-0.5,0.5-0.5h5.9
			C12.5,11.1,12.7,11.4,12.7,11.7z"/>
	</g>
	<g>
		<rect x="6.8" y="12.1" fill="#FFD93B" width="4.9" height="1.7"/>
	</g>
	<g>
		<path fill="#FFD93B" d="M12.5,16.2c0.2,0.5,0.4,1,0.8,1.7c-0.5-0.3-1-0.6-1.4-0.7c-0.2,0.7-0.1,1.6,0.2,2.9c-1.1-1.3-2-2-2.7-2.1
			c-0.2,0.4-0.4,1-0.6,1.8c-0.2-0.6-0.3-1.1-0.5-1.5c-0.6,0.4-1.2,1.1-2,2.2c0.1-1.7,0-2.8-0.5-3.4c-0.5,0.2-1,0.4-1.7,0.8
			c0.3-0.5,0.6-1,0.7-1.4c-0.7-0.2-1.6-0.1-2.9,0.2c1.3-1.1,2-2,2.1-2.7c-0.4-0.2-1-0.4-1.8-0.6c0.6-0.2,1.1-0.3,1.5-0.5
			c-0.4-0.6-1.1-1.2-2.2-2c1.7,0.1,2.8,0,3.4-0.5c-0.2-0.5-0.4-1-0.8-1.7c0.5,0.3,1,0.6,1.4,0.7c0.2-0.7,0.1-1.6-0.2-2.9
			c1.1,1.3,1.9,2,2.7,2.1c0.2-0.4,0.4-1,0.6-1.8C8.9,7.3,9,7.8,9.2,8.2c0.6-0.4,1.2-1.1,2-2.2c-0.1,1.7,0,2.8,0.5,3.4
			c0.5-0.2,1-0.4,1.7-0.8c-0.3,0.5-0.6,1-0.7,1.4c0.7,0.2,1.6,0.1,2.9-0.2c-1.3,1.1-2,1.9-2.1,2.7c0.4,0.2,1,0.4,1.8,0.6
			c-0.6,0.2-1.1,0.3-1.5,0.5c0.4,0.6,1.1,1.2,2.2,2C14.3,15.7,13.2,15.8,12.5,16.2z"/>
	</g>
	<g>
		<path fill="#FFE9AB" d="M10.8,14.9c0.1,0.3,0.2,0.6,0.4,0.9c-0.3-0.2-0.6-0.3-0.8-0.4c-0.1,0.4,0,0.9,0.1,1.6
			C10,16.4,9.5,16,9.1,15.9c-0.1,0.2-0.2,0.6-0.4,1c-0.1-0.3-0.2-0.6-0.3-0.8c-0.3,0.2-0.7,0.6-1.1,1.2c0-0.9,0-1.5-0.3-1.9
			c-0.3,0.1-0.6,0.2-0.9,0.4c0.2-0.3,0.3-0.6,0.4-0.8c-0.4-0.1-0.9,0-1.6,0.1c0.7-0.6,1.1-1.1,1.2-1.5c-0.2-0.1-0.6-0.2-1-0.4
			c0.3-0.1,0.6-0.2,0.8-0.3c-0.2-0.3-0.6-0.7-1.2-1.1c0.9,0,1.5,0,1.9-0.3c-0.1-0.3-0.2-0.6-0.4-0.9c0.3,0.2,0.6,0.3,0.8,0.4
			c0.1-0.4,0-0.9-0.1-1.6c0.6,0.7,1.1,1.1,1.5,1.2c0.1-0.2,0.2-0.6,0.4-1C8.8,10,8.9,10.3,9,10.5c0.3-0.2,0.7-0.6,1.1-1.2
			c0,0.9,0,1.5,0.3,1.9c0.3-0.1,0.6-0.2,0.9-0.4c-0.2,0.3-0.3,0.6-0.4,0.8c0.4,0.1,0.9,0,1.6-0.1c-0.7,0.6-1.1,1.1-1.2,1.5
			c0.2,0.1,0.6,0.2,1,0.4c-0.3,0.1-0.6,0.2-0.8,0.3c0.2,0.3,0.6,0.7,1.2,1.1C11.8,14.6,11.2,14.7,10.8,14.9z"/>
	</g>
</g>
</svg>
