<?xml version="1.0" encoding="utf-8"?>
<!-- Generator: Adobe Illustrator 18.0.0, SVG Export Plug-In . SVG Version: 6.00 Build 0)  -->
<!DOCTYPE svg PUBLIC "-//W3C//DTD SVG 1.1//EN" "http://www.w3.org/Graphics/SVG/1.1/DTD/svg11.dtd">
<svg version="1.1" id="Layer_1" xmlns="http://www.w3.org/2000/svg" xmlns:xlink="http://www.w3.org/1999/xlink" x="0px" y="0px"
	 viewBox="0 0 36 36" enable-background="new 0 0 36 36" xml:space="preserve">
<g>
	<g>
		
			<rect x="20.1" y="7.2" transform="matrix(0.7071 -0.7071 0.7071 0.7071 -2.658 19.9869)" fill="#D3D9DD" width="5.4" height="12.1"/>
	</g>
	<g>
		<path fill="#E24B4B" d="M29,15.6l3.2-3.2c2.4-2.4,2.4-6.2,0-8.6l0,0c-2.4-2.4-6.2-2.4-8.6,0L20.4,7L29,15.6z"/>
	</g>
	<g>
		<path fill="#D03F3F" d="M32.2,12.3L29,15.6l-1.9-1.9l1.9-1.9c2.8-2.8,3.1-7,0.8-9.3c-0.1-0.1-0.1-0.1-0.2-0.2
			c1,0.3,1.9,0.8,2.6,1.5C34.6,6.1,34.6,10,32.2,12.3z"/>
	</g>
	<g>
		<g>
			
				<rect x="7" y="15.1" transform="matrix(0.7071 -0.7071 0.7071 0.7071 -10.6053 16.6949)" fill="#719D34" width="15.7" height="12.2"/>
		</g>
	</g>
	<g>
		
			<rect x="9.9" y="10.4" transform="matrix(0.7071 0.7071 -0.7071 0.7071 16.4305 -3.1148)" fill="#8CC63E" width="4.1" height="15.7"/>
	</g>
	<g>
		
			<rect x="12.8" y="13.3" transform="matrix(0.7071 0.7071 -0.7071 0.7071 19.3042 -4.3055)" fill="#7FB239" width="4.1" height="15.7"/>
	</g>
	<g>
		<g>
			<path fill="#E9B02C" d="M4.2,33.6l9.5-2.6c1.8-1.8-1.1-4.7-2.9-2.9c-0.8-0.3-1.5-4.2-2.9-2.9C9.2,23.9,6.4,21,5,22.4l-2.6,9.5
				L4.2,33.6z"/>
		</g>
	</g>
	<g>
		<path fill="#FFD93B" d="M3,32.4l4.9-7.2c1.8-1.8-1.1-4.7-2.9-2.9l-2.6,9.5L3,32.4z"/>
	</g>
	<g>
		<path fill="#F4C534" d="M3.6,33l7.2-4.9c1.8-1.8-1.1-4.7-2.9-2.9L3,32.4L3.6,33z"/>
	</g>
	<g>
		<path fill="#DEE4E9" d="M16.1,10L16.1,10c-0.4,0.4-0.4,1,0,1.4l8.6,8.6c0.4,0.4,1,0.4,1.4,0v0c0.4-0.4,0.4-1,0-1.4L17.5,10
			C17.1,9.6,16.5,9.6,16.1,10z"/>
	</g>
	<g>
		<path fill="#DEE4E9" d="M18,8.1L18,8.1c-0.4,0.4-0.4,1,0,1.4l8.6,8.6c0.4,0.4,1,0.4,1.4,0l0,0c0.4-0.4,0.4-1,0-1.4l-8.6-8.6
			C19,7.7,18.4,7.7,18,8.1z"/>
	</g>
	<g>
		<path fill="#DEE4E9" d="M20,6.1L20,6.1c-0.4,0.4-0.4,1,0,1.4l8.6,8.6c0.4,0.4,1,0.4,1.4,0l0,0c0.4-0.4,0.4-1,0-1.4l-8.6-8.6
			C20.9,5.8,20.3,5.8,20,6.1z"/>
	</g>
	<g>
		<path fill="#3E4347" d="M2.7,30.5L2,33.1c-0.2,0.6,0.4,1.1,0.9,0.9l2.6-0.7c-0.2-0.6-0.5-1.2-1-1.7C4,31,3.4,30.7,2.7,30.5z"/>
	</g>
	<g opacity="0.25">
		<g>
			<path fill="#FFFFFF" d="M29.3,4.1c0.1,0.6-0.6,1.2-1.6,1.4c-1,0.2-1.8-0.2-1.9-0.8c-0.1-0.6,0.6-1.2,1.6-1.4
				C28.4,3.2,29.2,3.5,29.3,4.1z"/>
		</g>
	</g>
</g>
</svg>
