<?xml version="1.0" encoding="utf-8"?>
<!-- Generator: Adobe Illustrator 18.0.0, SVG Export Plug-In . SVG Version: 6.00 Build 0)  -->
<!DOCTYPE svg PUBLIC "-//W3C//DTD SVG 1.1//EN" "http://www.w3.org/Graphics/SVG/1.1/DTD/svg11.dtd">
<svg version="1.1" id="Layer_1" xmlns="http://www.w3.org/2000/svg" xmlns:xlink="http://www.w3.org/1999/xlink" x="0px" y="0px"
	 viewBox="0 0 36 36" enable-background="new 0 0 36 36" xml:space="preserve">
<g>
	<g>
		<path fill="#3E4347" d="M29.6,14.8v2.1H14.1v-2.1c0-1.9,2.1-5.6,3.8-4.2c2.7,2.2,5.3,2.2,8,0C27.5,9.2,29.6,12.9,29.6,14.8z"/>
	</g>
	<g>
		<path fill="#3E4347" d="M12.8,20.3v7.6c-2.7,0-5.4,0.8-7.7,2.2L4,30.9V17.4l1.2,0.7C7.5,19.6,10.1,20.3,12.8,20.3z"/>
	</g>
	<g>
		<path fill="#5A5F63" d="M4.2,17.5v13.1c0,0.6-0.5,1.1-1.1,1.1l0,0c-0.6,0-1.1-0.5-1.1-1.1V17.5c0-0.6,0.5-1.1,1.1-1.1l0,0
			C3.7,16.4,4.2,16.9,4.2,17.5z"/>
	</g>
	<g>
		<path fill="#5A5F63" d="M33.1,17.5v13.2c0,0.9-0.8,1.7-1.7,1.7H12.3c-0.9,0-1.7-0.8-1.7-1.7V17.5c0-0.9,0.8-1.7,1.7-1.7h19.1
			C32.4,15.8,33.1,16.6,33.1,17.5z"/>
	</g>
	<g>
		<path fill="#5A5F63" d="M21.3,9.3c0,3.2-2.6,5.8-5.8,5.8c-3.2,0-5.8-2.6-5.8-5.8s2.6-5.8,5.8-5.8C18.7,3.6,21.3,6.2,21.3,9.3z"/>
	</g>
	<g>
		<path fill="#3E4347" d="M16.6,9.3c0,0.6-0.5,1.1-1.1,1.1c-0.6,0-1.1-0.5-1.1-1.1s0.5-1.1,1.1-1.1C16.1,8.2,16.6,8.7,16.6,9.3z"/>
	</g>
	<g>
		<path fill="#3E4347" d="M16.9,6.1c0,0.8-0.6,1.4-1.4,1.4c-0.8,0-1.4-0.6-1.4-1.4s0.6-1.4,1.4-1.4C16.3,4.7,16.9,5.3,16.9,6.1z"/>
	</g>
	<g>
		<path fill="#3E4347" d="M12.3,7.9c0.8,0,1.4,0.6,1.4,1.4c0,0.8-0.6,1.4-1.4,1.4c-0.8,0-1.4-0.6-1.4-1.4
			C10.9,8.6,11.5,7.9,12.3,7.9z"/>
	</g>
	<g>
		<path fill="#3E4347" d="M14.1,12.6c0-0.8,0.6-1.4,1.4-1.4c0.8,0,1.4,0.6,1.4,1.4c0,0.8-0.6,1.4-1.4,1.4
			C14.7,14,14.1,13.3,14.1,12.6z"/>
	</g>
	<g>
		<path fill="#3E4347" d="M18.7,10.7c-0.8,0-1.4-0.6-1.4-1.4c0-0.8,0.6-1.4,1.4-1.4c0.8,0,1.4,0.6,1.4,1.4
			C20.1,10.1,19.5,10.7,18.7,10.7z"/>
	</g>
	<g>
		<path fill="#5A5F63" d="M34,9.3c0,3.2-2.6,5.8-5.8,5.8c-3.2,0-5.8-2.6-5.8-5.8s2.6-5.8,5.8-5.8C31.4,3.6,34,6.2,34,9.3z"/>
	</g>
	<g>
		<path fill="#3E4347" d="M29.4,9.3c0,0.6-0.5,1.1-1.1,1.1c-0.6,0-1.1-0.5-1.1-1.1s0.5-1.1,1.1-1.1C28.9,8.2,29.4,8.7,29.4,9.3z"/>
	</g>
	<g>
		<path fill="#3E4347" d="M29.6,6.1c0,0.8-0.6,1.4-1.4,1.4c-0.8,0-1.4-0.6-1.4-1.4s0.6-1.4,1.4-1.4C29,4.7,29.6,5.3,29.6,6.1z"/>
	</g>
	<g>
		<path fill="#3E4347" d="M25,7.9c0.8,0,1.4,0.6,1.4,1.4c0,0.8-0.6,1.4-1.4,1.4s-1.4-0.6-1.4-1.4C23.6,8.6,24.2,7.9,25,7.9z"/>
	</g>
	<g>
		<path fill="#3E4347" d="M26.8,12.6c0-0.8,0.6-1.4,1.4-1.4c0.8,0,1.4,0.6,1.4,1.4c0,0.8-0.6,1.4-1.4,1.4
			C27.5,14,26.8,13.3,26.8,12.6z"/>
	</g>
	<g>
		<path fill="#3E4347" d="M31.5,10.7c-0.8,0-1.4-0.6-1.4-1.4c0-0.8,0.6-1.4,1.4-1.4c0.8,0,1.4,0.6,1.4,1.4
			C32.9,10.1,32.2,10.7,31.5,10.7z"/>
	</g>
	<g>
		<path fill="#FFD93B" d="M15.8,28.4c0,0.6-0.5,1.2-1.2,1.2c-0.6,0-1.2-0.5-1.2-1.2c0-0.6,0.5-1.2,1.2-1.2
			C15.3,27.2,15.8,27.7,15.8,28.4z"/>
	</g>
	<g>
		<path fill="#E24B4B" d="M19.3,28.4c0,0.6-0.5,1.2-1.2,1.2c-0.6,0-1.2-0.5-1.2-1.2c0-0.6,0.5-1.2,1.2-1.2
			C18.8,27.2,19.3,27.7,19.3,28.4z"/>
	</g>
	<g>
		<path fill="#3E4347" d="M30.9,18.3v5c0,0.2-0.2,0.3-0.3,0.3H20.3c-0.2,0-0.3-0.2-0.3-0.3v-5c0-0.2,0.2-0.3,0.3-0.3h10.2
			C30.7,18,30.9,18.1,30.9,18.3z"/>
	</g>
</g>
</svg>
