<?xml version="1.0" encoding="utf-8"?>
<!-- Generator: Adobe Illustrator 18.0.0, SVG Export Plug-In . SVG Version: 6.00 Build 0)  -->
<!DOCTYPE svg PUBLIC "-//W3C//DTD SVG 1.1//EN" "http://www.w3.org/Graphics/SVG/1.1/DTD/svg11.dtd">
<svg version="1.1" id="Layer_1" xmlns="http://www.w3.org/2000/svg" xmlns:xlink="http://www.w3.org/1999/xlink" x="0px" y="0px"
	 viewBox="0 0 36 36" enable-background="new 0 0 36 36" xml:space="preserve">
<g>
	<g>
		<g>
			<g>
				<path fill="#E9EFF4" d="M34,18C25.2,5,10.8,5,2,18h0C10.8,31,25.2,31,34,18L34,18L34,18z"/>
			</g>
		</g>
		<g>
			<g>
				<path fill="#DEE4E9" d="M34,18c-8.8-7.1-23.2-7.1-32,0C10.8,5,25.2,5,34,18z"/>
			</g>
		</g>
		<g>
			<g>
				<path fill="#59A5E0" d="M25.6,18c0,4.2-3.4,7.6-7.6,7.6c-4.2,0-7.6-3.4-7.6-7.6c0-4.2,3.4-7.6,7.6-7.6
					C22.2,10.4,25.6,13.8,25.6,18z"/>
			</g>
		</g>
		<g>
			<g>
				<path fill="#3E4347" d="M21.9,18c0,2.2-1.7,3.9-3.9,3.9c-2.2,0-3.9-1.7-3.9-3.9c0-2.2,1.7-3.9,3.9-3.9
					C20.2,14.1,21.9,15.8,21.9,18z"/>
			</g>
		</g>
		<g>
			<g>
				<circle fill="#FFFFFF" cx="20.1" cy="15.3" r="1.9"/>
			</g>
		</g>
	</g>
	<g>
		<g>
			<path fill="#4E99D2" d="M23.9,13.3c-3.9-0.9-8-0.9-11.9,0c1.4-1.8,3.5-2.9,5.9-2.9C20.4,10.4,22.6,11.5,23.9,13.3z"/>
		</g>
	</g>
</g>
</svg>
