<?xml version="1.0" encoding="utf-8"?>
<!-- Generator: Adobe Illustrator 18.0.0, SVG Export Plug-In . SVG Version: 6.00 Build 0)  -->
<!DOCTYPE svg PUBLIC "-//W3C//DTD SVG 1.1//EN" "http://www.w3.org/Graphics/SVG/1.1/DTD/svg11.dtd">
<svg version="1.1" id="Layer_1" xmlns="http://www.w3.org/2000/svg" xmlns:xlink="http://www.w3.org/1999/xlink" x="0px" y="0px"
	 viewBox="0 0 36 36" enable-background="new 0 0 36 36" xml:space="preserve">
<g>
	<g>
		<path fill="#CBD6E0" d="M6.7,19.4H2.3c0,2.5-0.9,9.2,1,12.3c2,3.6,5.9,3.3,4.4-3.9C7.1,24.9,7.5,24.8,6.7,19.4z"/>
	</g>
	<g>
		<g>
			<path fill="#DEE4E9" d="M30.6,34H6.4c1.3-0.2,2.2-2,1.4-6.1C6.8,23.5,6.4,16,5.4,8.9l1-1.7h23.3c0.9,7.2,1.6,16,2.5,20.8
				C33.1,32.2,32.1,34,30.6,34z"/>
		</g>
	</g>
	<g>
		<path fill="#DEE4E9" d="M5.4,8.5C5.3,7.7,5.3,7,5.5,6.3c0.3-0.9,0.9-1.7,2-1c2,1.3,2.4,7.7,2.4,7.7L6,13.4L5.4,8.5z"/>
	</g>
	<g>
		<g>
			<path fill="#ACB9C1" d="M27.3,12.1H8.9c-0.1-0.5-0.1-1-0.2-1.5h18.5C27.2,11.1,27.3,11.6,27.3,12.1z"/>
		</g>
	</g>
	<g>
		<g>
			<path fill="#ACB9C1" d="M27.9,16.1H9.4c-0.1-0.5-0.1-1-0.2-1.5h18.5C27.8,15.1,27.8,15.6,27.9,16.1z"/>
		</g>
	</g>
	<g>
		<g>
			<path fill="#ACB9C1" d="M30,32.5l-18.5,0.1c0.2-0.4,0.2-1.1,0.1-1.6h18.5C30.2,31.5,30.2,32,30,32.5z"/>
		</g>
	</g>
	<g>
		<g>
			<path fill="#ACB9C1" d="M17.7,20.2H10c-0.1-0.5-0.1-1-0.2-1.5h7.7L17.7,20.2z"/>
		</g>
		<g>
			<g>
				<path fill="#65B1EF" d="M20.7,28.4c-0.5-3.2-1-6.5-1.4-9.7h9.1c0.4,3.2,0.9,6.5,1.4,9.7H20.7z"/>
			</g>
		</g>
	</g>
	<g>
		<g>
			<path fill="#ACB9C1" d="M18.3,24.3h-7.6c-0.1-0.5-0.1-1-0.2-1.5H18L18.3,24.3z"/>
		</g>
	</g>
	<g>
		<g>
			<path fill="#ACB9C1" d="M18.8,28.4h-7.5c-0.1-0.5-0.2-1-0.3-1.5h7.5L18.8,28.4z"/>
		</g>
	</g>
	<g>
		<path fill="#E9EFF4" d="M10.5,17.7L10.5,17.7c-0.3-2.9-1.3-11.3-3-12.3C7.2,5.2,7,5.1,6.7,5c2.8-0.4,16.9-2.3,20.6-3
			c0,0,0.1,0,0.1,0c2.6-0.4,5,1.5,5.4,4.1l1,8.1l0,0.1C27.5,15.3,18.4,16.6,10.5,17.7z"/>
	</g>
	<g>
		<g>
			<path fill="#E24B4B" d="M30.4,6.5c0-0.3-0.1-0.5-0.2-0.7c0,0,0-0.1,0-0.1L11.5,8.4c0,0,0,0,0,0.1c0.4,1.7,0.8,3.8,1.1,6.4
				c7.6-1.1,13.8-2,18.4-2.6L30.4,6.5z"/>
		</g>
	</g>
	<g>
		<path fill="#FFFFFF" d="M15,13l-0.5-3.6l0.7-0.1l1.8,2.2l-0.4-2.4L17.3,9l0.5,3.6l-0.7,0.1l-1.8-2.1l0.4,2.3L15,13z"/>
	</g>
	<g>
		<path fill="#FFFFFF" d="M18.6,12.4L18,8.9l2.6-0.4l0.1,0.6l-1.9,0.3l0.1,0.8l1.8-0.3l0.1,0.6L19,10.7l0.1,1l2-0.3l0.1,0.6
			L18.6,12.4z"/>
	</g>
	<g>
		<path fill="#FFFFFF" d="M22.4,11.8L21,8.4l0.7-0.1l0.9,2.4l0.3-2.5L23.8,8l1,2.4l0.2-2.6l0.7-0.1l-0.3,3.7l-0.8,0.1l-1.1-2.6
			l-0.3,2.8L22.4,11.8z"/>
	</g>
	<g>
		<path fill="#FFFFFF" d="M26.2,10.1l0.7-0.2c0.1,0.2,0.2,0.4,0.3,0.5c0.1,0.1,0.3,0.1,0.5,0.1c0.2,0,0.4-0.1,0.5-0.2
			c0.1-0.1,0.1-0.2,0.1-0.4c0-0.2-0.2-0.3-0.4-0.3c-0.1,0-0.3,0-0.6-0.1c-0.4,0-0.7-0.1-0.9-0.2c-0.2-0.2-0.4-0.4-0.4-0.7
			c0-0.2,0-0.4,0.1-0.5c0.1-0.2,0.2-0.3,0.4-0.4c0.2-0.1,0.4-0.2,0.7-0.2c0.4-0.1,0.8,0,1.1,0.1c0.3,0.2,0.4,0.4,0.5,0.7l-0.7,0.1
			C28,8.2,27.9,8.1,27.8,8C27.7,8,27.6,8,27.4,8c-0.2,0-0.4,0.1-0.5,0.2c-0.1,0.1-0.1,0.3,0.1,0.4c0.1,0.1,0.3,0.1,0.7,0.1
			c0.4,0,0.6,0.1,0.8,0.1c0.2,0.1,0.3,0.2,0.4,0.3c0.1,0.1,0.2,0.3,0.2,0.5c0,0.2,0,0.4-0.1,0.6c-0.1,0.2-0.2,0.4-0.4,0.5
			c-0.2,0.1-0.4,0.2-0.8,0.2c-0.5,0.1-0.8,0-1.1-0.2C26.5,10.7,26.3,10.5,26.2,10.1z"/>
	</g>
</g>
</svg>
