<?xml version="1.0" encoding="utf-8"?>
<!-- Generator: Adobe Illustrator 18.0.0, SVG Export Plug-In . SVG Version: 6.00 Build 0)  -->
<!DOCTYPE svg PUBLIC "-//W3C//DTD SVG 1.1//EN" "http://www.w3.org/Graphics/SVG/1.1/DTD/svg11.dtd">
<svg version="1.1" id="Layer_1" xmlns="http://www.w3.org/2000/svg" xmlns:xlink="http://www.w3.org/1999/xlink" x="0px" y="0px"
	 viewBox="0 0 36 36" enable-background="new 0 0 36 36" xml:space="preserve">
<g>
	<g>
		<g>
			<g>
				<g>
					<g>
						<g>
							<g>
								<g>
									<path fill="#3E4347" d="M26,17.4c-3.3-4.8-1.7-7.4-1.1-10.2c0.4-2.3-2.5-2-2.9-0.9l-1-0.4c0.7-1.7,5.7-2.6,4.9,1.5
										c-0.5,2.9-2,5,1,9.4L26,17.4z"/>
								</g>
							</g>
						</g>
					</g>
					<g>
						<g>
							<g>
								<g>
									<path fill="#3E4347" d="M10,17.4l-0.9-0.6c3-4.4,1.5-6.5,1-9.4c-0.8-4,4.2-3.3,4.9-1.5l-1,0.4c-0.4-1.1-3.3-1.5-2.9,0.9
										C11.7,10,13.3,12.5,10,17.4z"/>
								</g>
							</g>
						</g>
					</g>
				</g>
				<g>
					<g>
						<g>
							<path fill="#F4C534" d="M13.1,32.7c0,0-4.3-3.1-4.7-14.4c-0.1-2.4,1.4-4.7,3.7-5.5c0.1,0,0.2-0.1,0.3-0.1
								c1.6-0.5,2.2-1.8,2.4-3.2C15,7.9,14.3,6.2,13,5.1c-0.5-0.4-1-1.1-1-1.9h11.8c0,0.9-0.4,1.5-1,1.9c-1.3,1.1-2,2.8-1.8,4.4
								c0.2,1.3,0.8,2.6,2.4,3.2c0.1,0,0.2,0.1,0.3,0.1c2.3,0.8,3.8,3.1,3.7,5.5c-0.4,11.2-4.7,14.4-4.7,14.4
								C19.6,33.6,16.4,33.6,13.1,32.7z"/>
						</g>
					</g>
				</g>
				<g>
					<g>
						<g>
							<path fill="#E9B02C" d="M27.6,18.4c-0.4,11.2-4.7,14.4-4.7,14.4c-2,0.5-4,0.7-6,0.6c6.7-1.1,11-15.7,9.1-19.1
								C27.1,15.3,27.6,16.8,27.6,18.4z"/>
						</g>
					</g>
				</g>
				<g>
					<g>
						<path fill="#E24B4B" d="M27.5,17.2c-0.6-0.5-1-0.9-1.6-1.3c-0.6,0.9-1.1,1.5-1.8,2.4c-0.8-0.8-1.4-1.3-2.2-2
							c-0.6,0.8-1.1,1.4-1.9,2.3c-0.8-0.8-1.3-1.4-2-2.2c-0.7,0.8-1.2,1.4-2,2.2c-0.8-0.9-1.3-1.5-1.9-2.3c-0.7,0.7-1.3,1.3-2.2,2
							c-0.7-0.9-1.2-1.6-1.8-2.4c-0.6,0.5-1.1,0.9-1.6,1.4c0,0.3-0.1,0.5-0.1,0.8c0.5-0.4,1-0.8,1.6-1.3c0.7,0.9,1.2,1.6,1.8,2.4
							c0.8-0.7,1.4-1.2,2.2-2c0.7,0.9,1.3,1.5,1.9,2.3c0.7-0.7,1.3-1.3,2.1-2.2c0.8,0.8,1.3,1.4,2.1,2.2c0.7-0.8,1.2-1.4,1.9-2.3
							c0.8,0.8,1.4,1.3,2.2,2c0.6-0.8,1.1-1.5,1.8-2.4c0.6,0.5,1.1,0.9,1.6,1.3C27.6,17.7,27.5,17.5,27.5,17.2z"/>
					</g>
					<g>
						<path fill="#FFFFFF" d="M25.9,19.5c-0.6,0.8-1.1,1.5-1.8,2.5c-0.8-0.7-1.4-1.3-2.2-2c-0.6,0.8-1.2,1.4-1.9,2.3
							c-0.8-0.8-1.3-1.4-2-2.2c-0.7,0.8-1.2,1.4-2,2.2c-0.8-0.9-1.3-1.5-1.9-2.3c-0.7,0.7-1.3,1.3-2.2,2c-0.7-0.9-1.2-1.6-1.8-2.5
							c-0.5,0.5-1,0.8-1.5,1.3c0,0.2,0,0.5,0.1,0.7c0.4-0.3,0.8-0.7,1.3-1.1c0.7,1,1.2,1.6,1.8,2.4c0.8-0.7,1.3-1.2,2.2-2
							c0.7,0.9,1.3,1.5,1.9,2.3c0.7-0.7,1.3-1.3,2.1-2.2c0.8,0.8,1.4,1.4,2.1,2.2c0.7-0.8,1.2-1.4,1.9-2.3c0.8,0.8,1.4,1.3,2.2,2
							c0.6-0.8,1.1-1.5,1.8-2.4c0.5,0.4,0.9,0.8,1.3,1.1c0-0.2,0.1-0.5,0.1-0.7C26.9,20.3,26.4,20,25.9,19.5z"/>
					</g>
					<g>
						<path fill="#E24B4B" d="M25.5,25.7c-1-0.7-1.8-1.3-2.6-2c-0.8,0.8-1.5,1.5-2.4,2.3c-1-0.8-1.7-1.4-2.5-2.2
							c-0.8,0.7-1.6,1.4-2.5,2.2c-0.9-0.8-1.6-1.5-2.4-2.3c-0.9,0.7-1.6,1.3-2.6,2c-0.5-0.6-1-1.1-1.4-1.6c0.1,0.4,0.2,0.8,0.2,1.2
							c0.4,0.4,0.7,0.8,1.1,1.2c0.9-0.7,1.7-1.2,2.7-2c0.9,0.9,1.6,1.5,2.4,2.3c0.9-0.7,1.6-1.3,2.5-2.2c0.9,0.8,1.7,1.4,2.5,2.2
							c0.8-0.8,1.5-1.4,2.4-2.3c1,0.8,1.8,1.3,2.7,2c0.4-0.4,0.7-0.8,1.1-1.2c0.1-0.4,0.2-0.8,0.3-1.2
							C26.5,24.6,26.1,25.1,25.5,25.7z"/>
					</g>
					<g>
						<path fill="#FFFFFF" d="M23.3,28.2c0.7,0.5,1.3,0.9,1.9,1.4c0.1-0.2,0.2-0.4,0.3-0.5c-0.8-0.5-1.5-1-2.3-1.6
							c-0.8,0.8-1.6,1.5-2.5,2.3c-1-0.8-1.8-1.4-2.7-2.2c-0.9,0.8-1.7,1.4-2.7,2.2c-0.9-0.8-1.7-1.5-2.5-2.3
							C12,28,11.3,28.5,10.5,29c0.1,0.2,0.2,0.4,0.3,0.5c0.6-0.4,1.2-0.9,1.9-1.4c0.9,0.9,1.7,1.5,2.6,2.3c0.9-0.7,1.8-1.4,2.7-2.2
							c1,0.8,1.8,1.4,2.7,2.2C21.6,29.7,22.3,29.1,23.3,28.2z"/>
					</g>
				</g>
			</g>
			<g>
				<g>
					<path fill="#FFD93B" d="M24.7,2.7c0,0.4-0.3,0.7-0.7,0.7H12.1c-0.4,0-0.7-0.3-0.7-0.7c0-0.4,0.3-0.7,0.7-0.7h11.9
						C24.4,2,24.7,2.3,24.7,2.7z"/>
				</g>
			</g>
		</g>
		<g>
			<g>
				<path fill="#3E4347" d="M24.6,33.1c0,0.5-0.4,0.9-0.9,0.9H12.3c-0.5,0-0.9-0.4-0.9-0.9c0-0.5,0.4-0.9,0.9-0.9h11.3
					C24.2,32.2,24.6,32.6,24.6,33.1z"/>
			</g>
		</g>
	</g>
	<g>
		<g>
			<path fill="#D03F3F" d="M27.5,17.2c-0.4-0.3-0.7-0.6-1-0.8c0,0.2,0,0.5,0,0.8c0.4,0.3,0.7,0.6,1.1,0.9
				C27.6,17.7,27.5,17.5,27.5,17.2z"/>
		</g>
		<g>
			<path fill="#E9EFF4" d="M27.4,20.8c-0.4-0.4-0.8-0.7-1.3-1c0,0.2-0.1,0.4-0.1,0.7c0.5,0.4,0.9,0.8,1.3,1.1
				C27.4,21.2,27.4,21,27.4,20.8z"/>
		</g>
		<g>
			<path fill="#D03F3F" d="M26.7,25.3c0.1-0.4,0.2-0.8,0.3-1.2c-0.4,0.5-0.9,1-1.4,1.6c-0.3-0.2-0.7-0.5-1-0.7
				c-0.1,0.2-0.2,0.4-0.2,0.6c0.4,0.3,0.8,0.6,1.3,0.9C26,26.1,26.4,25.7,26.7,25.3z"/>
		</g>
		<g>
			<path fill="#E9EFF4" d="M25.2,29.5c0.1-0.2,0.2-0.4,0.3-0.5c-0.7-0.5-1.4-1-2.1-1.5c-0.3,0.5-0.5,0.9-0.8,1.3
				c0.2-0.2,0.5-0.4,0.7-0.7C24,28.7,24.6,29.1,25.2,29.5z"/>
		</g>
	</g>
</g>
</svg>
