<?xml version="1.0" encoding="utf-8"?>
<!-- Generator: Adobe Illustrator 18.0.0, SVG Export Plug-In . SVG Version: 6.00 Build 0)  -->
<!DOCTYPE svg PUBLIC "-//W3C//DTD SVG 1.1//EN" "http://www.w3.org/Graphics/SVG/1.1/DTD/svg11.dtd">
<svg version="1.1" id="Layer_1" xmlns="http://www.w3.org/2000/svg" xmlns:xlink="http://www.w3.org/1999/xlink" x="0px" y="0px"
	 viewBox="0 0 36 36" enable-background="new 0 0 36 36" xml:space="preserve">
<g>
	<g>
		<g>
			<g>
				<g>
					<path fill="#D3D9DD" d="M21.9,29.9c0,3.6-1.8,4.1-3.9,4.1c-2.2,0-3.9-0.5-3.9-4.1c0-2.2,1.8-3.9,3.9-3.9
						C20.2,25.9,21.9,27.7,21.9,29.9z"/>
				</g>
			</g>
		</g>
		<g>
			<g>
				<path fill="#D3D9DD" d="M14.1,6.1C14.1,2.5,15.8,2,18,2c2.2,0,3.9,0.5,3.9,4.1c0,2.2-1.8,3.9-3.9,3.9
					C15.8,10.1,14.1,8.3,14.1,6.1z"/>
			</g>
		</g>
	</g>
	<g>
		<g>
			<g>
				<rect x="13.2" y="8.1" fill="#E84D88" width="9.7" height="19.8"/>
			</g>
		</g>
		<g>
			<g>
				<path fill="#D3D9DD" d="M14,27.9h4.5c1.5-1.3,3-2.2,4.4-2.9v-3.5c-1.6,0.8-3.3,2-5,3.5C16.5,26.2,15.2,27.1,14,27.9z"/>
			</g>
			<g>
				<path fill="#D3D9DD" d="M13.2,8.1v2.9c1.3-0.7,2.8-1.7,4.2-2.9H13.2z"/>
			</g>
			<g>
				<path fill="#D3D9DD" d="M13.2,14.5V18c1.4-0.8,3.1-1.9,4.7-3.3c1.7-1.6,3.5-2.7,5-3.5v-3H22c-1.3,0.8-2.8,1.8-4.2,3.1
					C16.2,12.7,14.6,13.7,13.2,14.5z"/>
			</g>
			<g>
				<path fill="#D3D9DD" d="M13.2,21.4v3.5c1.4-0.8,3.1-1.9,4.7-3.3c1.7-1.6,3.5-2.7,5-3.5v-3.5c-1.6,0.8-3.3,2-5,3.5
					C16.2,19.6,14.6,20.7,13.2,21.4z"/>
			</g>
		</g>
		<g>
			<g>
				<g>
					<g>
						<path fill="#E9EFF4" d="M22.1,6.6h-8.3c-0.5,0-0.9-0.4-0.9-0.9V5.5c0-0.5,0.4-0.9,0.9-0.9h8.3c0.5,0,0.9,0.4,0.9,0.9v0.2
							C23.1,6.2,22.7,6.6,22.1,6.6z"/>
					</g>
				</g>
				<g>
					<g>
						<path fill="#E9EFF4" d="M23.2,8.7H12.8c-0.5,0-0.9-0.4-0.9-0.9V7.6c0-0.5,0.4-0.9,0.9-0.9h10.4c0.5,0,0.9,0.4,0.9,0.9v0.2
							C24.1,8.3,23.7,8.7,23.2,8.7z"/>
					</g>
				</g>
			</g>
			<g>
				<g>
					<g>
						<path fill="#E9EFF4" d="M13.9,29.4h8.3c0.5,0,0.9,0.4,0.9,0.9v0.2c0,0.5-0.4,0.9-0.9,0.9h-8.3c-0.5,0-0.9-0.4-0.9-0.9v-0.2
							C12.9,29.8,13.3,29.4,13.9,29.4z"/>
					</g>
				</g>
				<g>
					<g>
						<path fill="#E9EFF4" d="M12.8,27.3h10.4c0.5,0,0.9,0.4,0.9,0.9v0.2c0,0.5-0.4,0.9-0.9,0.9H12.8c-0.5,0-0.9-0.4-0.9-0.9v-0.2
							C11.9,27.7,12.3,27.3,12.8,27.3z"/>
					</g>
				</g>
			</g>
		</g>
	</g>
</g>
</svg>
