<?xml version="1.0" encoding="utf-8"?>
<!-- Generator: Adobe Illustrator 18.0.0, SVG Export Plug-In . SVG Version: 6.00 Build 0)  -->
<!DOCTYPE svg PUBLIC "-//W3C//DTD SVG 1.1//EN" "http://www.w3.org/Graphics/SVG/1.1/DTD/svg11.dtd">
<svg version="1.1" id="Layer_1" xmlns="http://www.w3.org/2000/svg" xmlns:xlink="http://www.w3.org/1999/xlink" x="0px" y="0px"
	 viewBox="0 0 36 36" enable-background="new 0 0 36 36" xml:space="preserve">
<g>
	<g>
		<g>
			<rect x="17.4" y="6.8" fill="#E9B02C" width="1.2" height="1.7"/>
		</g>
	</g>
	<g>
		<g>
			<g>
				<path fill="#DE9C25" d="M20.1,10.5c-0.3-0.1-0.5-0.5-0.5-0.8V8.4h-3.2v1.3c0,0.3-0.2,0.7-0.5,0.8l0,0c-0.4,0.2-0.7,0.6-0.7,1.1
					V12h5.6v-0.4C20.8,11.1,20.5,10.7,20.1,10.5z"/>
			</g>
		</g>
		<g>
			<g>
				<path fill="#FFD93B" d="M30,22.7c-0.2-8.7-5.6-11.1-12-11.1c-6.5,0-11.8,2.5-12,11.1H30z"/>
			</g>
		</g>
		<g>
			<g>
				<path fill="#E9B02C" d="M30,22.7c-0.2-8.7-5.6-11.1-12-11.1c-6.5,0-11.8,2.5-12,11.1H30z"/>
			</g>
		</g>
		<g>
			<path fill="#F4C534" d="M30,22.7c-0.2-6.7-3.5-9.7-7.9-10.7c0.5,0.2,5,2.4,5,10.5c0,0.1,0,0.2,0,0.2H30z"/>
		</g>
		<g>
			<g>
				<path fill="#F4C534" d="M20.1,8.3c0,0.2-0.2,0.4-0.4,0.4h-3.5c-0.2,0-0.4-0.2-0.4-0.4c0-0.2,0.2-0.4,0.4-0.4h3.5
					C20,7.9,20.1,8.1,20.1,8.3z"/>
			</g>
		</g>
		<g>
			<g>
				<path fill="#F4C534" d="M17.3,7h1.4c0.4,0,0.8-0.1,1.1-0.4c0.2-0.1,0.4-0.2,0.4-0.5c0-0.3-0.2-0.5-0.5-0.5h-3.4
					c-0.3,0-0.5,0.2-0.5,0.5c0,0.3,0.2,0.3,0.4,0.5C16.5,6.9,16.9,7,17.3,7z"/>
			</g>
		</g>
	</g>
	<g>
		<g>
			<path fill="#7A5B44" d="M32.7,28.4v-1.6c0-1.2-0.9-2.1-2.1-2.1H5.3c-1.2,0-2.1,0.9-2.1,2.1v1.6H32.7z"/>
		</g>
	</g>
	<g>
		<g>
			<path fill="#89664C" d="M32.9,30.3H3.1c-0.6,0-1.1-0.5-1.1-1.1l0,0c0-0.6,0.5-1.1,1.1-1.1h29.8c0.6,0,1.1,0.5,1.1,1.1l0,0
				C34,29.8,33.5,30.3,32.9,30.3z"/>
		</g>
	</g>
	<g>
		<g>
			<path fill="#FFD93B" d="M30.3,24.6H5.7c-0.6,0-1.1-0.5-1.1-1.1l0,0c0-0.6,0.5-1.1,1.1-1.1h24.6c0.6,0,1.1,0.5,1.1,1.1l0,0
				C31.4,24.1,30.9,24.6,30.3,24.6z"/>
		</g>
	</g>
</g>
</svg>
