<?xml version="1.0" encoding="utf-8"?>
<!-- Generator: Adobe Illustrator 18.0.0, SVG Export Plug-In . SVG Version: 6.00 Build 0)  -->
<!DOCTYPE svg PUBLIC "-//W3C//DTD SVG 1.1//EN" "http://www.w3.org/Graphics/SVG/1.1/DTD/svg11.dtd">
<svg version="1.1" id="Layer_1" xmlns="http://www.w3.org/2000/svg" xmlns:xlink="http://www.w3.org/1999/xlink" x="0px" y="0px"
	 viewBox="0 0 36 36" enable-background="new 0 0 36 36" xml:space="preserve">
<g>
	<g>
		<g>
			<rect x="10.1" y="2" fill="#E9EFF4" width="15.8" height="32"/>
		</g>
	</g>
	<g>
		<g>
			<g>
				<path fill="#D3D9DD" d="M23.1,14.4v17H12.9v-17H23.1 M23.8,13.7H12.2V32h11.5V13.7L23.8,13.7z"/>
			</g>
		</g>
		<g>
			<g>
				<rect x="12.2" y="4" fill="#65B1EF" width="11.5" height="7.5"/>
			</g>
		</g>
		<g>
			<g>
				<polygon fill="#E9EFF4" points="24,7.4 20.4,7.4 20.4,3.9 19.6,3.9 19.6,7.4 16.4,7.4 16.4,3.9 15.6,3.9 15.6,7.4 12,7.4 
					12,8.1 15.6,8.1 15.6,11.6 16.4,11.6 16.4,8.1 19.6,8.1 19.6,11.6 20.4,11.6 20.4,8.1 24,8.1 				"/>
			</g>
		</g>
		<g>
			<g>
				<g>
					<circle fill="#5A5F63" cx="24.8" cy="20.5" r="0.6"/>
				</g>
			</g>
			<g>
				<g>
					<path fill="#3E4347" d="M25.3,20.8c-0.1,0.2-0.3,0.3-0.5,0.3c-0.3,0-0.6-0.3-0.6-0.6c0-0.2,0.1-0.4,0.3-0.5
						c0,0.1-0.1,0.2-0.1,0.3c0,0.3,0.3,0.6,0.6,0.6C25.2,20.9,25.3,20.9,25.3,20.8z"/>
				</g>
			</g>
			<g>
				<g>
					
						<ellipse transform="matrix(0.7071 0.7071 -0.7071 0.7071 21.7033 -11.7781)" fill="#777B7E" cx="25.1" cy="20.3" rx="0.2" ry="0.1"/>
				</g>
			</g>
		</g>
		<g>
			<path fill="#D3D9DD" d="M22.1,15.4v15h-8.2v-15H22.1 M22.5,15h-8.9v15.6h8.9V15L22.5,15z"/>
		</g>
	</g>
</g>
</svg>
