<?xml version="1.0" encoding="utf-8"?>
<!-- Generator: Adobe Illustrator 18.0.0, SVG Export Plug-In . SVG Version: 6.00 Build 0)  -->
<!DOCTYPE svg PUBLIC "-//W3C//DTD SVG 1.1//EN" "http://www.w3.org/Graphics/SVG/1.1/DTD/svg11.dtd">
<svg version="1.1" id="Layer_1" xmlns="http://www.w3.org/2000/svg" xmlns:xlink="http://www.w3.org/1999/xlink" x="0px" y="0px"
	 viewBox="0 0 36 36" enable-background="new 0 0 36 36" xml:space="preserve">
<g>
	<g>
		<g>
			<g>
				<path fill="#3E4347" d="M6.3,14.1L6.3,14.1c0,2.7,1.7,4.9,3.8,4.9c5.1,0.1,10.8,0.1,15.9,0c2.1-0.1,3.8-2.3,3.8-4.9l0,0
					c0-2.7-1.7-4.9-3.8-4.9c-5.1-0.1-10.7-0.1-15.8,0C8.1,9.2,6.4,11.4,6.3,14.1z"/>
			</g>
		</g>
		<g>
			<g>
				<g>
					<path fill="#E9EFF4" d="M28.1,12.8c-0.1,0.3-0.2,0.5-0.3,0.8c-0.5-0.2-1-0.4-1.6-0.6c-0.1,0-0.1-0.1-0.2-0.1
						c-0.2-0.2-0.4-0.4-0.6-0.6c-0.1,0.2-0.2,0.3-0.3,0.5c-0.1,0.1-0.2,0.2-0.4,0.2c-1.9-0.1-3.9-0.1-5.6-0.4
						c-0.2,0-0.4-0.2-0.4-0.4c0-0.2,0-0.4,0-0.5c0-0.1-0.1-0.1-0.1-0.1c-0.1,0-0.1,0-0.1,0.1c0,0.2-0.1,0.8-0.5,0.9
						c-0.4,0.1-4.8,0.1-5.8,0.3c-0.1,0-0.3,0-0.4-0.1c-0.1-0.1-0.2-0.2-0.4-0.3c-0.2,0.2-0.3,0.5-0.5,0.7c-0.1,0.1-0.1,0.2-0.2,0.2
						c-1,0.3-2,0.6-3,1c-0.2-0.7-0.3-1.5-0.5-2.2c-0.5-0.3,10-5.1,10.4-4.7c0.2-0.4,10.3,1.7,10.1,2C27.8,9.3,28.2,12.8,28.1,12.8z"
						/>
				</g>
			</g>
			<g>
				<g>
					<path fill="#DEE4E9" d="M25.4,11c0-0.1,0-0.1,0-0.1C25.3,10.9,25.3,10.9,25.4,11z"/>
				</g>
				<g>
					<path fill="#DEE4E9" d="M18.7,9.5C18.7,9.5,18.7,9.5,18.7,9.5C18.8,9.3,18.8,9.3,18.7,9.5z"/>
				</g>
				<g>
					<g>
						<path fill="#D3D9DD" d="M28,13.2c-0.3-0.1-0.8-0.2-1.3-0.5c-0.9-0.5-1.2-1.3-1.3-1.6c0.1,0.3,0.1,0.9-0.6,1.3
							c-0.9,0.4-4,0.5-5.1-0.2c-1-0.7-1.1-1.9-1-2.5c-0.1,0.4-0.5,1.4-0.7,1.9c-0.4,0.8-1.8,1.1-3.4,0.8c-1.7-0.3-2.5,0.1-2.8-0.7
							c-0.3-0.8-0.5-1.7-0.5-1.7c0,0-0.4,2.6-0.9,3c-0.5,0.4-2.1,1.5-2.9,0.6c0,0,0,0,0,0c0.1,0.2,0.1,0.5,0.2,0.7c1-0.4,2-0.7,3-1
							c0.1,0,0.2-0.1,0.2-0.2c0.2-0.2,0.3-0.5,0.5-0.7c0.1,0.1,0.2,0.2,0.4,0.3c0.1,0.1,0.2,0.1,0.4,0.1c1-0.2,5.4-0.3,5.8-0.3
							c0.3-0.1,0.4-0.7,0.5-0.9c0-0.1,0.1-0.1,0.1-0.1c0.1,0,0.1,0,0.1,0.1c0,0.2,0,0.4,0,0.5c0,0.2,0.2,0.4,0.4,0.4
							c1.7,0.3,3.7,0.3,5.6,0.4c0.2,0,0.3-0.1,0.4-0.2c0.1-0.2,0.2-0.3,0.3-0.5c0.2,0.2,0.4,0.4,0.6,0.6c0,0.1,0.1,0.1,0.2,0.1
							c0.5,0.2,1.1,0.4,1.6,0.6C27.8,13.5,27.9,13.3,28,13.2z"/>
					</g>
				</g>
			</g>
		</g>
		<g>
			<g>
				<g>
					<path fill="#D23F77" d="M34,16.1c-0.3-1.1-0.5-3.2-2.3-5.9c-2.1-3.5-7.3-6.3-9.1-6.3c-1.9-0.1-2.9,0.4-3.6,0.7
						c-0.6,0.3-1.3,0.2-1.3,0.2C15.4,4.2,15.6,2.9,12,4c-4.5,1.3-8.3,6.3-8.8,8.4c-0.4,1.4-0.9,2.8-1.2,3.6
						c-0.1,0.4-0.1,0.8,0.2,1.1c0.2,0.2,0.4,0.5,0.8,1c0.9,1.4,4.7,5.5,14.2,5.3c9.4,0.2,14.2-3.5,15.3-4.6c0.5-0.5,0.8-1.2,1.2-1.6
						C34,16.9,34.1,16.5,34,16.1z M20.1,15.7c0,0-1.4,0.6-3.2,0.2c-1.8-0.4-6.6-1-10.2-0.4c0,0,0.6-1.2,2.2-2.4
						c1.6-1.2,3.6-2.5,4.4-2.5c1.8-0.2,3,0.3,4.5,0.5c0.3,0,0.7,0,1-0.1c0.3-0.1,0.9-0.3,1.8-0.4c1.4-0.2,6,0.3,8.8,4.9
						C29.4,15.5,23.9,14.9,20.1,15.7z"/>
				</g>
			</g>
			<g>
				<g>
					<path fill="#E84D88" d="M28.8,15.8c0.2,0,1.5,0.2,2.2,0.6c0.7,0.5,1.5,0.4,2,0.5c0.8,0.1-4.3,6.1-15,5.8
						C7.3,22.8,3.1,17.3,3.3,17.3c0,0,1.7-1.3,3.4-1.3c1.6,0,3.1-0.3,4.3-0.2c1.4,0,5.1,0.8,7,0.9c1.9,0.1,3.7-0.8,6.2-1
						C26.8,15.5,28.8,15.8,28.8,15.8z"/>
				</g>
			</g>
			<g>
				<g>
					<path fill="#E84D88" d="M33.3,15.7c0,0.3-0.1,0.3-0.3,0.3c-0.8,0-1.7-0.2-2.4-0.7c-0.5-0.3-0.9-0.6-1.3-1
						c-0.5-0.5-0.9-1.1-1.4-1.6c-1.9-2.2-5.1-3.6-8-2.9c-0.5,0.1-0.9,0.3-1.4,0.3c-0.9,0-1.8-0.5-2.7-0.6c-1.4-0.2-2.8,0.5-4.1,1.2
						c-1.4,0.8-2.9,1.6-3.9,2.8C7.4,14,7,14.5,6.6,14.8c-0.5,0.4-1,0.5-3.6,1.4c-0.1,0-0.1,0-0.2,0c-0.1-0.1-0.1-0.2-0.1-0.4
						C3.3,10.6,7.6,5.5,13.1,4.3c0.6-0.2,1.3-0.3,1.9,0c0.4,0.2,0.6,0.5,0.9,0.8c0.6,0.5,1.6,0.8,2.4,0.6c1.4-0.3,2.2-1.6,4.9-1.2
						c0.7,0.1,1.3,0.4,1.8,0.8c2.6,1.6,5,3.9,6.7,6.2c0.5,0.6,0.9,1.2,1.2,2c0.2,0.5,0.3,1,0.3,1.5C33.3,15.2,33.3,15.5,33.3,15.7z"
						/>
				</g>
			</g>
		</g>
		<g opacity="0.2">
			<g>
				<path fill="#FFFFFF" d="M17.4,8.7c0-0.1,0-0.2,0-0.2C17.4,8.6,17.4,8.6,17.4,8.7z"/>
			</g>
			<g>
				<path fill="#FFFFFF" d="M17.8,8.7c0-0.1,0-0.2,0-0.2C17.8,8.5,17.8,8.6,17.8,8.7z"/>
			</g>
		</g>
		<g>
			<g opacity="5.000000e-002">
				<path fill="#FFFFFF" d="M16.3,5.3c-0.1-0.1-0.2-0.1-0.3-0.2c-0.3-0.3-0.6-0.6-0.9-0.8c-0.5-0.3-1.2-0.2-1.9,0
					C10.3,5,7.5,6.7,5.6,9.1c1.8-1.7,4.2-2.8,6.7-3.3c0.3,0,0.6-0.1,0.8-0.1c0.7,0,1.3,0.1,2,0.1c0.2,0,0.5,0,0.7-0.1
					C16.1,5.6,16.2,5.5,16.3,5.3z"/>
			</g>
			<g opacity="5.000000e-002">
				<path fill="#FFFFFF" d="M25.1,5.3c-0.6-0.4-1.2-0.7-1.8-0.8c-2.2-0.3-3.1,0.4-4.1,0.9c0,0.1,0,0.2,0,0.2
					c0.2,0.4,0.7,0.5,1.1,0.6c1.2,0,2.3-0.6,3.5-0.4c0.3,0.1,0.7,0.2,1,0.3c1.3,0.6,2.5,1.1,3.8,1.8C27.5,6.9,26.3,6,25.1,5.3z"/>
			</g>
		</g>
	</g>
	<g>
		<g>
			<path fill="#D03F3F" d="M27.7,18.8c0.5,8.5-5.1,13.8-9.7,13.6c-4.6,0.2-10.3-5.2-9.7-13.6c0-0.4,0.1-0.9,0.2-1.3
				c0.5-2.9,3.4-4.3,5.9-3.5c2.3,0.7,4.9,0.7,7.3-0.1c2.5-0.8,5.3,0.6,5.9,3.5C27.6,17.9,27.7,18.3,27.7,18.8z"/>
		</g>
	</g>
	<g opacity="0.1">
		<g>
			<path fill="#FFFFFF" d="M24.1,16.8c-1-0.7-2.9-0.2-2-1.5C24.8,11.8,29.2,20.5,24.1,16.8z"/>
		</g>
	</g>
</g>
</svg>
