<?xml version="1.0" encoding="utf-8"?>
<!-- Generator: Adobe Illustrator 18.0.0, SVG Export Plug-In . SVG Version: 6.00 Build 0)  -->
<!DOCTYPE svg PUBLIC "-//W3C//DTD SVG 1.1//EN" "http://www.w3.org/Graphics/SVG/1.1/DTD/svg11.dtd">
<svg version="1.1" id="Layer_1" xmlns="http://www.w3.org/2000/svg" xmlns:xlink="http://www.w3.org/1999/xlink" x="0px" y="0px"
	 viewBox="0 0 36 36" enable-background="new 0 0 36 36" xml:space="preserve">
<g>
	<g>
		<rect x="26.5" y="9.9" fill="#DEE4E9" width="1.5" height="22.6"/>
	</g>
	<g>
		<g>
			<path fill="#3E4347" d="M32,34c-0.3-1.2-1.3-1.8-2.4-1.8h-4.8c-1.1,0-2.1,0.8-2.4,1.8H32z"/>
		</g>
	</g>
	<g>
		<g>
			<g>
				<path fill="#59A5E0" d="M25.3,18.7C23.7,22,23.4,25.7,24,30c0.1,1.1-0.7,2-1.7,2H7.4c-1.1,0-1.9-1-1.7-2c0.6-4.3,0.3-8-1.3-11.3
					c-0.5-1,0.1-2.2,1.2-2.4c6.3-1.6,12.4-1.6,18.6,0C25.2,16.5,25.8,17.7,25.3,18.7z"/>
			</g>
		</g>
		<g>
			<g>
				<path fill="#3E4347" d="M21.8,28.2l0.5,2.1H7.4l0.5-2.1C8.1,27.2,21.6,27.2,21.8,28.2z"/>
			</g>
		</g>
		<g>
			<g>
				<rect x="6.4" y="30" fill="#59A5E0" width="16.9" height="2.8"/>
			</g>
		</g>
		<g>
			<g>
				<g>
					<g>
						<path fill="#65B1EF" d="M8.9,25.6c0.1,0.6,0,1.1-0.2,1.6c-0.6,1.7-1,3.5-1,5.3v1c0,0.3-0.3,0.6-0.6,0.6H5.4
							c-0.3,0-0.5-0.2-0.6-0.5c-0.2-1.9-0.8-3.7-2-5.2C2.3,27.7,2,26.9,2,26.1c0-2.2,2-3.9,4.3-3.4C7.6,23,8.7,24.2,8.9,25.6z"/>
					</g>
					<g>
						<g>
							<path fill="#65B1EF" d="M27.7,26.1c0,0.9-0.3,1.6-0.8,2.2c-1.2,1.4-1.8,3.3-2,5.2c0,0.3-0.3,0.5-0.6,0.5l-1.8,0
								c-0.3,0-0.6-0.3-0.6-0.6v-1c0-1.8-0.4-3.6-1-5.3c-0.2-0.5-0.2-1-0.2-1.6c0.2-1.4,1.3-2.6,2.7-2.9
								C25.7,22.2,27.7,23.9,27.7,26.1z"/>
						</g>
					</g>
				</g>
				<g>
					<g>
						<path fill="#3E4347" d="M3.6,26.1c0-1.1,0.9-1.9,1.9-1.9c1.1,0,1.9,0.9,1.9,1.9c0,1-0.9,1.9-1.9,1.9C4.4,28,3.6,27.1,3.6,26.1
							z"/>
					</g>
				</g>
			</g>
			<g>
				<g>
					<g>
						<path fill="#3E4347" d="M26.1,26.1c0-1.1-0.9-1.9-1.9-1.9c-1.1,0-1.9,0.9-1.9,1.9c0,1,0.9,1.9,1.9,1.9
							C25.3,28,26.1,27.1,26.1,26.1z"/>
					</g>
				</g>
			</g>
		</g>
		<g>
			<g>
				<g>
					<g>
						<g>
							<path fill="#4E99D2" d="M9.4,23c-0.4-0.2-0.7-0.3-1.1-0.4c0.5,0.1,0.9,0.2,1.3,0.4c0-0.2,0.1-0.4,0.2-0.6
								c0.1,0.2,0.2,0.4,0.2,0.7c0.4,0,0.8,0,1.1,0.1c-0.3,0-0.6,0.1-1,0.1c0.3,0.1,0.6,0.2,0.8,0.3c-0.3-0.1-0.5-0.2-0.8-0.2
								c0.2,0.2,0.4,0.4,0.6,0.6c-0.2-0.2-0.5-0.4-0.7-0.6c0,0.3,0.1,0.6,0.1,1c-0.1-0.3-0.2-0.7-0.3-0.9c-0.3,0.1-0.5,0.2-0.8,0.3
								c0.1-0.1,0.3-0.3,0.4-0.4c-0.3-0.1-0.6-0.1-1-0.2C8.8,23,9.1,23,9.4,23z"/>
						</g>
					</g>
					<g>
						<g>
							<path fill="#3E4347" d="M10,23.1c0,0.1-0.1,0.1-0.2,0.1c-0.1,0-0.3-0.1-0.3-0.2c0-0.1,0.1-0.1,0.2-0.1
								C9.9,22.9,10,23,10,23.1z"/>
						</g>
					</g>
				</g>
				<g>
					<g>
						<g>
							<path fill="#4E99D2" d="M13.1,23.2c-0.2-0.2-0.4-0.4-0.7-0.5c0.3,0.1,0.5,0.3,0.8,0.4c0-0.3,0.1-0.5,0.1-0.8
								c0,0.3,0.1,0.5,0.1,0.8c0.3,0,0.5,0,0.8,0c-0.2,0.1-0.5,0.1-0.7,0.2c0.2,0.1,0.4,0.2,0.5,0.3c-0.2-0.1-0.4-0.1-0.5-0.2
								c0.1,0.2,0.2,0.4,0.4,0.7c-0.1-0.2-0.3-0.4-0.4-0.6c0,0.4,0,0.8,0,1.2c-0.1-0.4-0.1-0.8-0.2-1.1c-0.2,0.2-0.3,0.3-0.5,0.5
								c0.1-0.2,0.2-0.4,0.3-0.5c-0.2-0.1-0.4-0.1-0.6-0.2C12.7,23.3,12.9,23.2,13.1,23.2z"/>
						</g>
					</g>
					<g>
						<g>
							<path fill="#3E4347" d="M13.5,23.3c0,0.1-0.1,0.2-0.2,0.2c-0.1,0-0.2-0.1-0.2-0.2c0-0.1,0.1-0.2,0.2-0.2
								C13.4,23.1,13.5,23.2,13.5,23.3z"/>
						</g>
					</g>
				</g>
				<g>
					<g>
						<g>
							<path fill="#4E99D2" d="M15.9,23.2c-0.2-0.2-0.4-0.3-0.6-0.5c0.2,0.1,0.5,0.2,0.7,0.4c0-0.3,0.1-0.5,0.1-0.8
								c0,0.3,0.1,0.5,0.1,0.8c0.3,0,0.6,0,0.9,0c-0.3,0.1-0.5,0.2-0.8,0.2c0.2,0.1,0.4,0.2,0.6,0.3c-0.2,0-0.4-0.1-0.6-0.1
								c0.1,0.2,0.2,0.4,0.3,0.6c-0.1-0.2-0.3-0.4-0.4-0.6c0,0.4-0.1,0.8-0.1,1.2c0-0.4,0-0.8,0-1.1c-0.2,0.2-0.4,0.3-0.5,0.5
								c0.1-0.2,0.2-0.4,0.3-0.6c-0.2,0-0.4-0.1-0.5-0.1C15.6,23.3,15.7,23.3,15.9,23.2z"/>
						</g>
					</g>
					<g>
						<g>
							<path fill="#3E4347" d="M16.3,23.3c0,0.1-0.1,0.2-0.2,0.2c-0.1,0-0.2-0.1-0.2-0.2c0-0.1,0.1-0.2,0.2-0.2
								C16.2,23.1,16.3,23.2,16.3,23.3z"/>
						</g>
					</g>
				</g>
				<g>
					<g>
						<g>
							<path fill="#4E99D2" d="M19.5,23.1c-0.3-0.1-0.6-0.3-0.9-0.4c0.3,0.1,0.7,0.2,1,0.3c0.1-0.2,0.2-0.4,0.2-0.7
								c0.1,0.2,0.1,0.4,0.2,0.6c0.4,0,0.9-0.1,1.4-0.1c-0.5,0.1-0.9,0.1-1.3,0.2c0.3,0.1,0.6,0.1,0.9,0.2c-0.3,0-0.6,0-0.9-0.1
								c0.2,0.1,0.3,0.3,0.5,0.4c-0.2-0.1-0.4-0.3-0.6-0.4c-0.1,0.3-0.2,0.6-0.3,1c0-0.3,0.1-0.6,0.1-0.9c-0.3,0.1-0.6,0.3-0.8,0.5
								c0.2-0.2,0.4-0.4,0.6-0.5c-0.3,0-0.5,0-0.8-0.1C18.9,23.1,19.2,23.1,19.5,23.1z"/>
						</g>
					</g>
					<g>
						<g>
							<path fill="#3E4347" d="M20.1,23.1c0,0.1-0.1,0.1-0.3,0.1c-0.1,0-0.2,0-0.2-0.1c0-0.1,0.1-0.1,0.3-0.1
								C20,23,20.1,23,20.1,23.1z"/>
						</g>
					</g>
				</g>
			</g>
			<g>
				<g>
					<g>
						<g>
							<path fill="#4E99D2" d="M11.5,21.2c-0.2-0.1-0.5-0.3-0.8-0.4c0.3,0.1,0.6,0.2,0.9,0.3c0.1-0.3,0.2-0.5,0.2-0.8
								c0,0.3,0,0.6,0.1,0.8c0.3,0,0.6,0,0.9-0.1c-0.3,0.1-0.5,0.2-0.8,0.2c0.2,0.1,0.4,0.2,0.6,0.3c-0.2-0.1-0.4-0.1-0.6-0.1
								c0.1,0.2,0.3,0.4,0.4,0.6c-0.2-0.2-0.3-0.3-0.5-0.5c0,0.3-0.1,0.7-0.1,1c0-0.3-0.1-0.6-0.1-0.9c-0.2,0.1-0.4,0.3-0.7,0.4
								c0.1-0.2,0.3-0.3,0.4-0.5c-0.2,0-0.5-0.1-0.7-0.1C11,21.3,11.2,21.2,11.5,21.2z"/>
						</g>
					</g>
					<g>
						<g>
							<path fill="#3E4347" d="M11.9,21.2c0,0.1-0.1,0.1-0.2,0.2c-0.1,0-0.2-0.1-0.2-0.1c0-0.1,0.1-0.1,0.2-0.2
								C11.9,21.1,11.9,21.1,11.9,21.2z"/>
						</g>
					</g>
				</g>
				<g>
					<g>
						<g>
							<path fill="#4E99D2" d="M14.5,21.1c-0.2-0.2-0.4-0.3-0.6-0.5c0.2,0.1,0.4,0.3,0.7,0.4c0-0.3,0.1-0.6,0.1-0.9
								c0,0.3,0.1,0.6,0.1,0.9c0.2,0,0.5,0,0.8,0c-0.2,0.1-0.5,0.1-0.7,0.2c0.2,0.1,0.4,0.2,0.5,0.3c-0.2-0.1-0.4-0.1-0.5-0.2
								c0.1,0.2,0.2,0.4,0.3,0.6c-0.1-0.2-0.3-0.4-0.4-0.6c0,0.4,0,0.7-0.1,1.1c0-0.3-0.1-0.7-0.1-1c-0.2,0.2-0.3,0.3-0.5,0.5
								c0.1-0.2,0.2-0.4,0.3-0.5c-0.2,0-0.4-0.1-0.5-0.1C14.2,21.1,14.4,21.1,14.5,21.1z"/>
						</g>
					</g>
					<g>
						<g>
							<ellipse fill="#3E4347" cx="14.7" cy="21.1" rx="0.2" ry="0.2"/>
						</g>
					</g>
				</g>
				<g>
					<g>
						<g>
							<path fill="#4E99D2" d="M17.5,21.2c-0.3-0.2-0.5-0.4-0.7-0.6c0.3,0.1,0.6,0.3,0.9,0.4c0-0.3,0-0.5,0.1-0.8
								c0.1,0.3,0.2,0.6,0.3,0.8c0.3,0,0.7,0,1.1,0.1c-0.3,0-0.7,0.1-1,0.1c0.2,0.1,0.5,0.2,0.8,0.3c-0.3-0.1-0.5-0.1-0.8-0.2
								c0.2,0.2,0.3,0.4,0.5,0.6c-0.2-0.2-0.4-0.3-0.6-0.5c0,0.3,0,0.6,0,1c0-0.3-0.1-0.6-0.1-0.9c-0.2,0.1-0.4,0.3-0.6,0.4
								c0.1-0.2,0.2-0.3,0.4-0.5c-0.2-0.1-0.4-0.1-0.6-0.2C17.1,21.2,17.3,21.2,17.5,21.2z"/>
						</g>
					</g>
					<g>
						<g>
							<path fill="#3E4347" d="M18,21.3c0,0.1-0.1,0.1-0.2,0.1c-0.1,0-0.2-0.1-0.2-0.2c0-0.1,0.1-0.1,0.2-0.1
								C17.9,21.1,18,21.2,18,21.3z"/>
						</g>
					</g>
				</g>
			</g>
			<g>
				<g>
					<g>
						<g>
							<path fill="#4E99D2" d="M13.3,18.6c-0.2-0.2-0.3-0.4-0.5-0.6c0.2,0.1,0.4,0.3,0.6,0.4c0.1-0.4,0.1-0.8,0.2-1.3
								c0,0.4,0,0.9,0,1.2c0.2,0,0.5-0.1,0.7-0.1c-0.2,0.1-0.4,0.2-0.6,0.3c0.2,0.1,0.3,0.2,0.5,0.4c-0.2-0.1-0.3-0.1-0.5-0.2
								c0.1,0.3,0.2,0.5,0.3,0.8c-0.1-0.2-0.2-0.5-0.4-0.7c0,0.5-0.1,0.9-0.1,1.3c0-0.4,0-0.8,0-1.2c-0.2,0.2-0.4,0.4-0.5,0.6
								c0.1-0.2,0.3-0.5,0.4-0.7c-0.2,0-0.3-0.1-0.5-0.1C12.9,18.7,13.1,18.7,13.3,18.6z"/>
						</g>
					</g>
					<g>
						<g>
							<path fill="#3E4347" d="M13.6,18.7c0,0.1-0.1,0.2-0.2,0.2c-0.1,0-0.1-0.1-0.1-0.2c0-0.1,0.1-0.2,0.2-0.2
								C13.6,18.5,13.6,18.5,13.6,18.7z"/>
						</g>
					</g>
				</g>
				<g>
					<g>
						<g>
							<path fill="#4E99D2" d="M15.8,18.6c-0.2-0.3-0.4-0.5-0.6-0.8c0.2,0.2,0.4,0.4,0.6,0.6c0-0.4,0-0.8,0-1.2
								c0.1,0.5,0.2,0.9,0.2,1.3c0.2,0,0.5,0.1,0.8,0.1c-0.2,0-0.5,0.1-0.7,0.2c0.2,0.2,0.4,0.3,0.6,0.5c-0.2-0.1-0.4-0.2-0.6-0.3
								c0.1,0.3,0.3,0.6,0.4,0.8c-0.2-0.2-0.3-0.5-0.5-0.8c0,0.5,0,0.9,0.1,1.3c-0.1-0.4-0.1-0.8-0.2-1.2c-0.1,0.2-0.3,0.4-0.4,0.5
								c0.1-0.2,0.2-0.4,0.2-0.7c-0.2-0.1-0.3-0.1-0.5-0.2C15.5,18.6,15.6,18.6,15.8,18.6z"/>
						</g>
					</g>
					<g>
						<g>
							<path fill="#3E4347" d="M16.1,18.7c0,0.1,0,0.2-0.1,0.2c-0.1,0-0.2-0.1-0.2-0.2c0-0.1,0-0.2,0.1-0.2
								C16,18.5,16.1,18.6,16.1,18.7z"/>
						</g>
					</g>
				</g>
			</g>
		</g>
	</g>
	<g>
		<g>
			<g>
				<rect x="29.2" y="10.3" fill="#3E4347" width="0.3" height="8.1"/>
			</g>
		</g>
		<g>
			<g>
				<path fill="#F4C534" d="M34,12.5c-4.6,1.5-9.1,1.6-13.5,0L24,2.6C24.2,2.3,24.5,2,24.8,2h4.8c0.4,0,0.7,0.3,0.8,0.6L34,12.5z"/>
			</g>
		</g>
		<g>
			<path fill="#FFD93B" d="M22.1,13c0.3,0.1,0.7,0.2,1,0.2c-0.1,0-0.2-0.1-0.3-0.1l2.7-10.4C25.6,2.3,25.8,2,26.1,2h-0.7
				c-0.3,0-0.5,0.3-0.6,0.7L22.1,13z"/>
		</g>
		<g>
			<g>
				<path fill="#E24B4B" d="M29.9,18.4c0,0.3-0.2,0.5-0.5,0.5c-0.3,0-0.5-0.2-0.5-0.5c0-0.3,0.2-1.1,0.5-1.1
					C29.7,17.3,29.9,18.1,29.9,18.4z"/>
			</g>
		</g>
	</g>
</g>
</svg>
