<?xml version="1.0" encoding="utf-8"?>
<!-- Generator: Adobe Illustrator 18.0.0, SVG Export Plug-In . SVG Version: 6.00 Build 0)  -->
<!DOCTYPE svg PUBLIC "-//W3C//DTD SVG 1.1//EN" "http://www.w3.org/Graphics/SVG/1.1/DTD/svg11.dtd">
<svg version="1.1" id="Layer_1" xmlns="http://www.w3.org/2000/svg" xmlns:xlink="http://www.w3.org/1999/xlink" x="0px" y="0px"
	 viewBox="0 0 36 36" enable-background="new 0 0 36 36" xml:space="preserve">
<g>
	<g>
		<g>
			<g>
				<path fill="#D3D9DD" d="M30.7,19.2l-15.2,0C19.1,31.8,5,24.7,9.6,33.1h20L30.7,19.2z"/>
			</g>
		</g>
		<g>
			<g>
				<path fill="#DEE4E9" d="M24.2,19.2c0,5.2-4.2,9.4-9.4,9.4c-5.2,0-9.4-4.2-9.4-9.4H24.2z"/>
			</g>
		</g>
	</g>
	<g>
		<g>
			<path fill="#E9EFF4" d="M32.3,18.3c0,0.5-0.4,0.9-0.9,0.9H4.6c-0.5,0-0.9-0.4-0.9-0.9s0.4-0.9,0.9-0.9h26.8
				C31.9,17.4,32.3,17.8,32.3,18.3z"/>
		</g>
	</g>
	<g>
		<g>
			<path fill="#E9EFF4" d="M31,33.1c0,0.5-0.4,0.9-0.9,0.9H8.7c-0.5,0-0.9-0.4-0.9-0.9s0.4-0.9,0.9-0.9h21.4
				C30.6,32.2,31,32.6,31,33.1z"/>
		</g>
	</g>
	<g>
		<g>
			<path fill="#D3D9DD" d="M30.5,5.8v11.6h-5.8V5.8c0-0.5,0.4-1,1-1h3.9C30.1,4.8,30.5,5.3,30.5,5.8z"/>
		</g>
	</g>
	<g>
		<g>
			<path fill="#3E4347" d="M24.7,3.6v13.8h-1.6V2C24,2,24.7,2.7,24.7,3.6z"/>
		</g>
	</g>
</g>
</svg>
