<?xml version="1.0" encoding="utf-8"?>
<!-- Generator: Adobe Illustrator 18.0.0, SVG Export Plug-In . SVG Version: 6.00 Build 0)  -->
<!DOCTYPE svg PUBLIC "-//W3C//DTD SVG 1.1//EN" "http://www.w3.org/Graphics/SVG/1.1/DTD/svg11.dtd">
<svg version="1.1" id="Layer_1" xmlns="http://www.w3.org/2000/svg" xmlns:xlink="http://www.w3.org/1999/xlink" x="0px" y="0px"
	 viewBox="0 0 36 36" enable-background="new 0 0 36 36" xml:space="preserve">
<g>
	<g>
		<g>
			<g>
				<g>
					<g>
						<path fill="#E9EFF4" d="M34,11.4v5c-2-1.8-4.3-3.1-6.9-2.9c-0.3,0-0.6,0.1-0.6,0.2L8.9,6.4c1.5-3.5,5.4-5.1,8.9-3.7
							C23.9,5.3,29.6,8,34,11.4z"/>
					</g>
				</g>
				<g>
					<g>
						<path fill="#DEE4E9" d="M9.4,5.5C9.2,5.8,9.1,6.1,8.9,6.4l17.6,7.3c0.1-0.1,0.3-0.2,0.6-0.2c0.6,0,1.2,0,1.7,0.1L9.4,5.5z"/>
					</g>
				</g>
				<g>
					<g>
						<path fill="#E9EFF4" d="M27.7,15.5c-0.2,0.6-0.9,0.9-1.5,0.6L7.4,8.2C6.9,8,6.6,7.3,6.8,6.8c0.2-0.6,0.9-0.9,1.5-0.6L27.1,14
							C27.7,14.2,27.9,14.9,27.7,15.5z"/>
					</g>
				</g>
			</g>
		</g>
	</g>
	<g>
		<g>
			<g>
				<g>
					<g>
						<path fill="#45CBEA" d="M14.3,16.1c-0.2,0.6-0.9,0.8-1.4,0.6c-0.6-0.2-0.8-0.9-0.6-1.4s1.9-1.7,1.9-1.7S14.5,15.6,14.3,16.1z"
							/>
					</g>
				</g>
				<g>
					<g>
						<path fill="#45CBEA" d="M17.3,17.4c-0.2,0.6-0.9,0.8-1.4,0.6c-0.6-0.2-0.8-0.9-0.6-1.4c0.2-0.6,1.9-1.7,1.9-1.7
							S17.6,16.8,17.3,17.4z"/>
					</g>
				</g>
			</g>
			<g>
				<g>
					<g>
						<path fill="#45CBEA" d="M12.3,20.8c-0.2,0.6-0.9,0.8-1.4,0.6c-0.6-0.2-0.8-0.9-0.6-1.4c0.2-0.6,1.9-1.7,1.9-1.7
							S12.6,20.3,12.3,20.8z"/>
					</g>
				</g>
				<g>
					<g>
						<path fill="#45CBEA" d="M15.4,22.1c-0.2,0.6-0.9,0.8-1.4,0.6c-0.6-0.2-0.8-0.9-0.6-1.4c0.2-0.6,1.9-1.7,1.9-1.7
							S15.6,21.5,15.4,22.1z"/>
					</g>
				</g>
			</g>
			<g>
				<g>
					<g>
						<path fill="#45CBEA" d="M10.4,25.5c-0.2,0.6-0.9,0.8-1.4,0.6c-0.6-0.2-0.8-0.9-0.6-1.4c0.2-0.6,1.9-1.7,1.9-1.7
							S10.6,24.9,10.4,25.5z"/>
					</g>
				</g>
				<g>
					<g>
						<path fill="#45CBEA" d="M13.4,26.8c-0.2,0.6-0.9,0.8-1.4,0.6c-0.6-0.2-0.8-0.9-0.6-1.4c0.2-0.6,1.9-1.7,1.9-1.7
							S13.7,26.2,13.4,26.8z"/>
					</g>
				</g>
			</g>
			<g>
				<g>
					<g>
						<path fill="#45CBEA" d="M8.4,30.2C8.2,30.7,7.6,31,7,30.8c-0.6-0.2-0.8-0.9-0.6-1.4c0.2-0.6,1.9-1.7,1.9-1.7
							S8.7,29.6,8.4,30.2z"/>
					</g>
				</g>
				<g>
					<g>
						<path fill="#45CBEA" d="M11.5,31.4C11.2,32,10.6,32.3,10,32c-0.6-0.2-0.8-0.9-0.6-1.4s1.9-1.7,1.9-1.7S11.7,30.9,11.5,31.4z"
							/>
					</g>
				</g>
			</g>
		</g>
		<g>
			<g>
				<g>
					<path fill="#45CBEA" d="M20.6,18.7c-0.2,0.6-0.8,0.9-1.4,0.7c-0.6-0.2-0.9-0.8-0.7-1.4c0.2-0.6,1.8-1.8,1.8-1.8
						S20.8,18.1,20.6,18.7z"/>
				</g>
			</g>
			<g>
				<g>
					<path fill="#45CBEA" d="M18.9,23.5c-0.2,0.6-0.8,0.9-1.4,0.7c-0.6-0.2-0.9-0.8-0.7-1.4c0.2-0.6,1.8-1.8,1.8-1.8
						S19.1,22.9,18.9,23.5z"/>
				</g>
			</g>
			<g>
				<g>
					<path fill="#45CBEA" d="M17.2,28.3c-0.2,0.6-0.8,0.9-1.4,0.7c-0.6-0.2-0.9-0.8-0.7-1.4c0.2-0.6,1.8-1.8,1.8-1.8
						S17.4,27.7,17.2,28.3z"/>
				</g>
			</g>
			<g>
				<g>
					<path fill="#45CBEA" d="M15.6,33.1c-0.2,0.6-0.8,0.9-1.4,0.7c-0.6-0.2-0.9-0.8-0.7-1.4c0.2-0.6,1.8-1.8,1.8-1.8
						S15.8,32.5,15.6,33.1z"/>
				</g>
			</g>
		</g>
		<g>
			<g>
				<g>
					<path fill="#45CBEA" d="M11.3,15c-0.3,0.5-0.9,0.7-1.5,0.4c-0.5-0.3-0.7-0.9-0.4-1.5c0.3-0.5,2-1.5,2-1.5S11.5,14.5,11.3,15z"
						/>
				</g>
			</g>
			<g>
				<g>
					<path fill="#45CBEA" d="M8.9,19.5c-0.3,0.5-0.9,0.7-1.5,0.4c-0.5-0.3-0.7-0.9-0.4-1.5C7.2,17.9,9,17,9,17S9.1,19,8.9,19.5z"/>
				</g>
			</g>
			<g>
				<g>
					<path fill="#45CBEA" d="M6.5,24c-0.3,0.5-0.9,0.7-1.5,0.4s-0.7-0.9-0.4-1.5c0.3-0.5,2-1.5,2-1.5S6.7,23.4,6.5,24z"/>
				</g>
			</g>
			<g>
				<g>
					<path fill="#45CBEA" d="M4,28.4c-0.3,0.5-0.9,0.7-1.5,0.4c-0.5-0.3-0.7-0.9-0.4-1.5c0.3-0.5,2-1.5,2-1.5S4.3,27.9,4,28.4z"/>
				</g>
			</g>
		</g>
	</g>
</g>
</svg>
