<?xml version="1.0" encoding="utf-8"?>
<!-- Generator: Adobe Illustrator 18.0.0, SVG Export Plug-In . SVG Version: 6.00 Build 0)  -->
<!DOCTYPE svg PUBLIC "-//W3C//DTD SVG 1.1//EN" "http://www.w3.org/Graphics/SVG/1.1/DTD/svg11.dtd">
<svg version="1.1" id="Layer_1" xmlns="http://www.w3.org/2000/svg" xmlns:xlink="http://www.w3.org/1999/xlink" x="0px" y="0px"
	 viewBox="0 0 36 36" enable-background="new 0 0 36 36" xml:space="preserve">
<g>
	<g>
		<g>
			<path fill="#A5856D" d="M4.2,31.1C3.8,32,2.9,32.7,2,32.5C4,35.9,9.6,33,12,30c3.7-4.5-2.1-9.6-6.1-5.9
				C3.4,26.2,5.3,28.9,4.2,31.1z"/>
		</g>
	</g>
	<g>
		<g>
			<path fill="#E84D88" d="M13.9,26.3c3-1.4,7-4.4,10.9-8.3c6.7-6.7,10.6-13.6,8.7-15.5c-1.9-1.9-8.8,2-15.5,8.7
				c-3.9,3.9-6.9,7.9-8.3,10.9L13.9,26.3z"/>
		</g>
	</g>
	<g>
		<g>
			<g>
				<path fill="#DAE5EF" d="M21.7,21.7c-1.6,1.4-4.2,3.5-7.6,5.2c-0.2,0.1-0.5,0.1-0.6-0.1l-4.3-4.3C9,22.4,9,22.1,9.1,21.9
					c1.5-3.1,3.3-5.4,5.2-7.6c0.2-0.2,0.6-0.3,0.8,0l6.7,6.7C21.9,21.2,21.9,21.5,21.7,21.7z"/>
			</g>
		</g>
	</g>
	<g>
		<g>
			<path fill="#FFD93B" d="M8.5,32.1c0-0.2,0-0.5-0.1-0.6c-0.2-0.2-0.6-0.1-0.9,0.1c-0.3,0.2-0.6,0.4-0.9,0.3
				c-0.3-0.1-0.4-0.4-0.3-0.7c0-0.3,0.2-0.5,0.4-0.7C7,30,7.4,29.5,7.7,29c0.2-0.2,0.3-0.5,0.4-0.7c0.1-0.3,0-0.6-0.2-0.7
				c-0.4-0.3-0.9,0-1.3,0c-0.7,0-1.2-0.7-1.3-1.4c-0.1-0.7,0.2-1.3,0.5-1.9l-0.1,0c-2.2,2.1-0.5,4.7-1.5,6.9C3.8,32,2.9,32.7,2,32.5
				c1.3,2.1,4,1.7,6.4,0.4C8.5,32.3,8.4,33.4,8.5,32.1z"/>
		</g>
	</g>
</g>
</svg>
