<?xml version="1.0" encoding="utf-8"?>
<!-- Generator: Adobe Illustrator 18.0.0, SVG Export Plug-In . SVG Version: 6.00 Build 0)  -->
<!DOCTYPE svg PUBLIC "-//W3C//DTD SVG 1.1//EN" "http://www.w3.org/Graphics/SVG/1.1/DTD/svg11.dtd">
<svg version="1.1" id="Layer_1" xmlns="http://www.w3.org/2000/svg" xmlns:xlink="http://www.w3.org/1999/xlink" x="0px" y="0px"
	 viewBox="0 0 36 36" enable-background="new 0 0 36 36" xml:space="preserve">
<g>
	<g>
		<g>
			<g>
				<g>
					<path fill="#5A5F63" d="M16,33.1c-5.5,3-10.5-2.5-10.5-2.5S-0.1,25.5,2.9,20c2.9-4.9,6.4-6,8.9-9.4s7-9.3,11.9-8.6
						c0.8,0.1,1.6,0.3,2.2,0.6c0,0,0,0,0,0c3.1,1.2,6.4,4.6,7.5,7.5c0,0,0,0,0,0c0.3,0.7,0.5,1.4,0.6,2.2c0.7,4.9-5.2,9.5-8.6,11.9
						C21.9,26.7,20.9,30.2,16,33.1z"/>
				</g>
			</g>
			<g>
				<path fill="#3E4347" d="M30.5,5.9c-0.1-0.1-0.3-0.3-0.4-0.4l-4.5,4.5l0.4,0.4L30.5,5.9z"/>
			</g>
			<g>
				<g>
					<path fill="#777B7E" d="M16,33.1c-5.5,3-10.5-2.5-10.5-2.5S-0.1,25.5,2.9,20c2.9-4.9,6.4-6,8.9-9.4s7-9.3,11.9-8.6
						c0.8,0.1,1.6,0.3,2.2,0.6c-4.3-0.9-8.2,2.1-10.2,4.5c-2.7,3.2-5.2,8.5-9.2,12.7c-0.4,0.5-0.8,1-1.1,1.6c-1.5,3.2,0.8,5.8,2.1,7
						c1.3,1.3,3.9,3.5,7,2.1c0.6-0.3,1.1-0.6,1.6-1.1c4.3-4,9.5-6.5,12.7-9.2c2.4-2,5.4-5.9,4.5-10.2c0.3,0.7,0.5,1.4,0.6,2.2
						c0.7,4.9-5.2,9.5-8.6,11.9C21.9,26.7,20.9,30.2,16,33.1z"/>
				</g>
			</g>
		</g>
		<g>
			<g>
				<path fill="#3E4347" d="M28,10.9c-3.3,3.3-5.9,6-10.4,9.5c-0.4,0.3-1.1,0.3-1.4-0.1l-0.5-0.5c-0.4-0.4-0.4-1-0.1-1.4l0,0
					c3.6-4.6,6.3-7.2,9.5-10.3c0.8-0.8,2.1-0.8,2.9,0C28.8,8.8,28.8,10.1,28,10.9z"/>
			</g>
		</g>
		<g>
			<g>
				<g>
					<path fill="#5A5F63" d="M27.3,10.3l-2.6,2.6c-0.4,0.4-1.2,0.5-1.7,0c-0.4-0.5-0.4-1.2,0-1.7l2.6-2.6c0.5-0.5,1.3-0.4,1.7,0
						c0,0,0,0,0,0C27.8,9.2,27.8,9.9,27.3,10.3z"/>
				</g>
			</g>
		</g>
	</g>
</g>
</svg>
