<?xml version="1.0" encoding="utf-8"?>
<!-- Generator: Adobe Illustrator 18.0.0, SVG Export Plug-In . SVG Version: 6.00 Build 0)  -->
<!DOCTYPE svg PUBLIC "-//W3C//DTD SVG 1.1//EN" "http://www.w3.org/Graphics/SVG/1.1/DTD/svg11.dtd">
<svg version="1.1" id="Layer_1" xmlns="http://www.w3.org/2000/svg" xmlns:xlink="http://www.w3.org/1999/xlink" x="0px" y="0px"
	 viewBox="0 0 36 36" enable-background="new 0 0 36 36" xml:space="preserve">
<g>
	<g>
		<path fill="#DEE4E9" d="M25.6,34L9.9,34L2,26.1V4.9C2,3.3,3.3,2,4.9,2l20.7,0c1.6,0,2.9,1.3,2.9,2.9l0,26.2
			C28.5,32.7,27.2,34,25.6,34z"/>
	</g>
	<g>
		<path fill="#A5856D" d="M2,26.1l4.8,0c1.7,0,3.1,1.4,3.1,3.1V34L2,26.1z"/>
	</g>
	<g>
		<path fill="#BBC7D1" d="M25.5,6.8L25.5,6.8c0-0.7-0.5-1.2-1.2-1.2H6.2C5.5,5.6,5,6.1,5,6.8l0,0C5,7.4,5.5,8,6.2,8h18.1
			C24.9,8,25.5,7.4,25.5,6.8z"/>
	</g>
	<g>
		<path fill="#BBC7D1" d="M25.5,12.4L25.5,12.4c0-0.7-0.5-1.2-1.2-1.2H6.2c-0.7,0-1.2,0.5-1.2,1.2l0,0c0,0.7,0.5,1.2,1.2,1.2h18.1
			C24.9,13.6,25.5,13,25.5,12.4z"/>
	</g>
	<g>
		<path fill="#BBC7D1" d="M25.5,18L25.5,18c0-0.7-0.5-1.2-1.2-1.2H6.2C5.5,16.8,5,17.3,5,18l0,0c0,0.7,0.5,1.2,1.2,1.2h18.1
			C24.9,19.2,25.5,18.7,25.5,18z"/>
	</g>
	<g>
		<path fill="#E84D88" d="M33.1,16.1l-1.7,1.7l-4.5-4.5l1.7-1.7c1.2-1.2,3.2-1.2,4.5,0l0,0C34.3,12.9,34.3,14.9,33.1,16.1z"/>
	</g>
	<g>
		<path fill="#D23F77" d="M33.1,16.1l-1.7,1.7l-1-1l1.7-1.7c1.2-1.2,1.7-2.8,1-3.5C34.3,12.9,34.3,14.9,33.1,16.1z"/>
	</g>
	<g>
		<g>
			<path fill="#4E99D2" d="M30.5,18.6l-8.6,8.6c1-1-0.5-2.5-1.5-1.5c1-1-0.5-2.5-1.5-1.5c1-1-0.5-2.5-1.5-1.5l8.6-8.6L30.5,18.6z"/>
		</g>
	</g>
	<g>
		<g>
			<path fill="#65B1EF" d="M27.6,15.7l-8.6,8.6c1-1-0.5-2.5-1.5-1.5l8.6-8.6L27.6,15.7z"/>
		</g>
	</g>
	<g>
		<g>
			<path fill="#59A5E0" d="M29,17.2l-8.6,8.6c1-1-0.5-2.5-1.5-1.5l8.6-8.6L29,17.2z"/>
		</g>
	</g>
	<g>
		<g>
			<path fill="#E9EFF4" d="M31.7,18.7c-0.3,0.3-0.8,0.3-1.2,0L26,14.2c-0.3-0.3-0.3-0.8,0-1.2c0.3-0.3,0.8-0.3,1.2,0l4.5,4.5
				C32,17.8,32,18.3,31.7,18.7z"/>
		</g>
	</g>
	<g>
		<g>
			<g>
				<path fill="#E9B02C" d="M17.5,28.3l4.4-1c1-1-0.5-2.5-1.5-1.5c1-1-0.5-2.5-1.5-1.5c1-1-0.5-2.5-1.5-1.5l-1,4.4L17.5,28.3z"/>
			</g>
		</g>
		<g>
			<g>
				<path fill="#FFD93B" d="M16.8,27.6l2.2-3.3c1-1-0.5-2.5-1.5-1.5l-1,4.4L16.8,27.6z"/>
			</g>
		</g>
		<g>
			<g>
				<path fill="#F4C534" d="M17.1,28l3.3-2.2c1-1-0.5-2.5-1.5-1.5l-2.2,3.3L17.1,28z"/>
			</g>
		</g>
	</g>
	<g>
		<g>
			<path fill="#5A5F63" d="M17.8,28.2l-1.1,0.3c-0.3,0.1-0.6-0.2-0.5-0.5l0.3-1.1c0.3,0.1,0.6,0.2,0.9,0.5
				C17.6,27.6,17.8,27.9,17.8,28.2z"/>
		</g>
	</g>
	<g opacity="0.2">
		<g>
			
				<ellipse transform="matrix(0.9992 4.103579e-002 -4.103579e-002 0.9992 0.5214 -1.2647)" fill="#FFFFFF" cx="31.1" cy="12.1" rx="1" ry="0.6"/>
		</g>
	</g>
</g>
</svg>
