<?xml version="1.0" encoding="utf-8"?>
<!-- Generator: Adobe Illustrator 18.0.0, SVG Export Plug-In . SVG Version: 6.00 Build 0)  -->
<!DOCTYPE svg PUBLIC "-//W3C//DTD SVG 1.1//EN" "http://www.w3.org/Graphics/SVG/1.1/DTD/svg11.dtd">
<svg version="1.1" id="Layer_1" xmlns="http://www.w3.org/2000/svg" xmlns:xlink="http://www.w3.org/1999/xlink" x="0px" y="0px"
	 viewBox="0 0 36 36" enable-background="new 0 0 36 36" xml:space="preserve">
<g>
	<g>
		<path fill="#E9B02C" d="M2,11.3v9.4c0,1.8,1.5,4.7,3.3,4.7h26.7V11.3c0-1.8-1.5-3.3-3.3-3.3h-10L17,5.1c-0.4-0.6-1.1-1-1.9-1H8.3
			c-1.2,0-2.2,1-2.2,2.2v1.6H5.3C3.5,7.9,2,9.4,2,11.3z"/>
	</g>
	<g>
		<path fill="#F4C534" d="M34,17.8v10.8c0,1.8-1.5,3.3-3.3,3.3H5.3c0.9,0,1.8-0.4,2.4-1c0.6-0.6,1-1.4,1-2.4V17.8
			c0-1.8,1.5-3.3,3.3-3.3h6.5l1.8-2.8c0.4-0.6,1.1-1,1.9-1H28c1.2,0,2.2,1,2.2,2.2v1.6h0.5C32.5,14.5,34,16,34,17.8z"/>
	</g>
	<g>
		<path fill="#E9B02C" d="M8.7,28.6V14.5H2v14.1c0,1.8,1.5,3.3,3.3,3.3l0,0C7.2,31.9,8.7,30.4,8.7,28.6z"/>
	</g>
</g>
</svg>
