<?xml version="1.0" encoding="utf-8"?>
<!-- Generator: Adobe Illustrator 18.0.0, SVG Export Plug-In . SVG Version: 6.00 Build 0)  -->
<!DOCTYPE svg PUBLIC "-//W3C//DTD SVG 1.1//EN" "http://www.w3.org/Graphics/SVG/1.1/DTD/svg11.dtd">
<svg version="1.1" id="Layer_1" xmlns="http://www.w3.org/2000/svg" xmlns:xlink="http://www.w3.org/1999/xlink" x="0px" y="0px"
	 viewBox="0 0 36 36" enable-background="new 0 0 36 36" xml:space="preserve">
<g>
	<g>
		<path fill="#5A5F63" d="M30,3.9v28.2c0,1-0.8,1.9-1.9,1.9H7.9c-1,0-1.9-0.9-1.9-1.9V3.9C6,2.8,6.8,2,7.9,2h20.2
			C29.2,2,30,2.8,30,3.9z"/>
	</g>
	<g>
		<path fill="#FFFFFF" d="M18,5.1c-4.9,0-8.9,4-8.9,8.9c0,4.9,4,8.9,8.9,8.9s8.9-4,8.9-8.9C26.9,9.1,22.9,5.1,18,5.1z M18,17
			c-1.6,0-2.9-1.3-2.9-3c0-1.6,1.3-3,2.9-3c1.6,0,2.9,1.3,2.9,3C21,15.6,19.6,17,18,17z"/>
	</g>
	<g>
		<path fill="#E9EFF4" d="M18,5.1c-1.1,0-2.2,0.2-3.1,0.6c0.9,2.5,1.6,4.3,2,5.6c0.4-0.2,0.8-0.2,1.2-0.2c0.1,0,0.2,0,0.3,0
			c0-1.4,0-3.3,0.1-6C18.3,5.1,18.1,5.1,18,5.1z"/>
	</g>
	<g>
		<path fill="#E9EFF4" d="M18.4,11.1c0.2,0,0.3,0.1,0.5,0.1l2-5.6c-0.4-0.1-0.8-0.2-1.2-0.3C19.3,7.2,18.9,9.1,18.4,11.1z"/>
	</g>
	<g>
		<path fill="#E9EFF4" d="M18,22.9c1,0,2-0.2,2.9-0.5c-1-2.6-1.6-4.4-1.9-5.7C18.6,16.9,18.3,17,18,17c-0.1,0-0.2,0-0.3,0
			c0,1.3,0,3.2,0,6C17.8,22.9,17.9,22.9,18,22.9z"/>
	</g>
	<g>
		<path fill="#E9EFF4" d="M17.8,16.9c-0.1,0-0.2,0-0.4,0l-2,5.6c0.4,0.1,0.7,0.2,1.1,0.2C16.9,20.8,17.4,18.9,17.8,16.9z"/>
	</g>
	<g>
		<path fill="#D3D9DD" d="M18,10.9c-1.7,0-3.1,1.4-3.1,3.1c0,1.7,1.4,3.1,3.1,3.1s3.1-1.4,3.1-3.1C21.1,12.3,19.7,10.9,18,10.9z
			 M18,15.1c-0.6,0-1.1-0.5-1.1-1.1c0-0.6,0.5-1.2,1.1-1.2s1.1,0.5,1.1,1.2C19.2,14.6,18.6,15.1,18,15.1z"/>
	</g>
	<g>
		<path fill="#BBC7D1" d="M13.2,28c-0.5,1.1-1.9,1.6-3,1.1c-1.2-0.5-1.6-1.9-1.1-3c0.3-0.7,3.2-4.9,5.4-7.9c0.5-0.7,1.5-0.2,1.3,0.6
			C14.8,22.4,13.5,27.3,13.2,28z"/>
	</g>
	<g>
		<path fill="#3E4347" d="M11.9,27c0,0.5-0.4,0.9-0.9,0.9c-0.5,0-0.9-0.4-0.9-0.9c0-0.5,0.4-0.9,0.9-0.9
			C11.5,26.1,11.9,26.5,11.9,27z"/>
	</g>
	<g>
		<circle fill="#3E4347" cx="8.6" cy="31" r="0.8"/>
	</g>
	<g>
		<circle fill="#3E4347" cx="27.4" cy="31" r="0.8"/>
	</g>
	<g>
		<circle fill="#3E4347" cx="8.6" cy="5" r="0.8"/>
	</g>
	<g>
		<circle fill="#3E4347" cx="27.4" cy="5" r="0.8"/>
	</g>
</g>
</svg>
