<?xml version="1.0" encoding="utf-8"?>
<!-- Generator: Adobe Illustrator 18.0.0, SVG Export Plug-In . SVG Version: 6.00 Build 0)  -->
<!DOCTYPE svg PUBLIC "-//W3C//DTD SVG 1.1//EN" "http://www.w3.org/Graphics/SVG/1.1/DTD/svg11.dtd">
<svg version="1.1" id="Layer_1" xmlns="http://www.w3.org/2000/svg" xmlns:xlink="http://www.w3.org/1999/xlink" x="0px" y="0px"
	 viewBox="0 0 36 36" enable-background="new 0 0 36 36" xml:space="preserve">
<g>
	<g>
		<path fill="#E9EFF4" d="M34,4.9V31c0,1.6-1.3,3-2.9,3H4.9C3.3,34,2,32.7,2,31V4.9C2,3.3,3.3,2,4.9,2h26.1C32.7,2,34,3.3,34,4.9z"
			/>
	</g>
	<g>
		<path fill="#E24B4B" d="M34,10.1V4.9C34,3.3,32.7,2,31.1,2H4.9C3.3,2,2,3.3,2,4.9v5.1H34z"/>
	</g>
	<g>
		<path fill="#FFFFFF" d="M15.7,8.1h-0.9l-0.4-1h-1.7l-0.3,1h-0.9l1.6-4.2H14L15.7,8.1z M14.1,6.5l-0.6-1.6L13,6.5H14.1z"/>
	</g>
	<g>
		<path fill="#FFFFFF" d="M16.3,3.9h0.8c0,0.3,0,2.7,0,3c0.1,0.3,0.3,0.6,0.8,0.6c0.5,0,0.7-0.2,0.8-0.5c0.1-0.3,0-2.7,0-3h0.8v2.2
			c0,0.5,0,1.2-0.3,1.6C19,8.1,18.5,8.2,18,8.2c-0.5,0-1.1-0.1-1.4-0.5c-0.3-0.4-0.3-1-0.3-1.5V3.9z"/>
	</g>
	<g>
		<path fill="#FFFFFF" d="M22.7,6.6V5.9h1.8v1.7c-0.2,0.2-0.4,0.3-0.8,0.5c-0.3,0.1-0.7,0.2-1,0.2c-0.4,0-0.8-0.1-1.2-0.3
			c-0.3-0.2-0.6-0.4-0.7-0.8c-0.2-0.3-0.2-0.7-0.2-1.1c0-0.4,0.1-0.8,0.3-1.2c0.2-0.3,0.5-0.6,0.8-0.8c0.3-0.1,0.6-0.2,1-0.2
			c0.5,0,0.9,0.1,1.2,0.3c0.3,0.2,0.5,0.5,0.6,0.9l-0.8,0.2c-0.1-0.2-0.2-0.4-0.3-0.5c-0.4-0.3-1.1-0.3-1.5,0.2
			c-0.2,0.2-0.3,0.6-0.3,1c0,0.5,0.1,0.9,0.3,1.1c0.2,0.2,0.5,0.4,0.9,0.4c0.4,0,0.7-0.2,1-0.4V6.6H22.7z"/>
	</g>
	<g>
		<path fill="#BBC7D1" d="M30.5,13.2h-4.2c-0.2,0-0.4,0.2-0.4,0.4v3.9c-7.4,0-8.2,0-20.5,0c-0.2,0-0.4,0.2-0.4,0.4
			c0,4.9,0,8.6,0,12.7c0,0.2,0.2,0.4,0.4,0.4c6.1,0,10.6,0,16.7,0c0.2,0,0.4-0.2,0.4-0.4v-3.9h3.8h4.2c0.2,0,0.4-0.2,0.4-0.4
			c0-4.9,0-8.6,0-12.7C30.9,13.3,30.7,13.2,30.5,13.2z M26.7,18.2h3.4v3.5h-3.4V18.2z M26.7,13.9h3.4v3.5h-3.4V13.9z M26,21.7h-3.4
			v-3.5H26V21.7z M18.4,25.9v-3.5h3.4v3.5H18.4z M5.9,22.4h3.4v3.5H5.9V22.4z M10,22.4h3.4v3.5H10V22.4z M14.2,22.4h3.4v3.5h-3.4
			V22.4z M21.8,21.7h-3.4v-3.5h3.4V21.7z M17.6,21.7h-3.4v-3.5h3.4V21.7z M13.5,21.7H10v-3.5h3.4V21.7z M5.9,18.2h3.4v3.5H5.9V18.2z
			 M5.9,26.6h3.4v3.5H5.9V26.6z M10,26.6h3.4v3.5H10V26.6z M14.2,26.6h3.4v3.5h-3.4V26.6z M21.8,30.1h-3.4v-3.5h3.4V30.1z
			 M22.5,22.4H26v3.5h-3.4V22.4z M30.1,25.9h-3.4v-3.5h3.4V25.9z"/>
	</g>
	<g>
		<path fill="#8CC63E" d="M12,24.9l-1.5-1.5c-0.2-0.2-0.2-0.5,0-0.7c0.2-0.2,0.5-0.2,0.7,0l1.2,1.2l2.8-2.8c0.2-0.2,0.5-0.2,0.7,0
			c0.2,0.2,0.2,0.5,0,0.7l-3.1,3.1C12.5,25.1,12.2,25.1,12,24.9z"/>
	</g>
</g>
</svg>
