<?xml version="1.0" encoding="utf-8"?>
<!-- Generator: Adobe Illustrator 18.0.0, SVG Export Plug-In . SVG Version: 6.00 Build 0)  -->
<!DOCTYPE svg PUBLIC "-//W3C//DTD SVG 1.1//EN" "http://www.w3.org/Graphics/SVG/1.1/DTD/svg11.dtd">
<svg version="1.1" id="Layer_1" xmlns="http://www.w3.org/2000/svg" xmlns:xlink="http://www.w3.org/1999/xlink" x="0px" y="0px"
	 viewBox="0 0 36 36" enable-background="new 0 0 36 36" xml:space="preserve">
<g>
	<g>
		<path fill="#E9EFF4" d="M34,8v23c0,1.6-1.3,3-2.9,3H4.9C3.3,34,2,32.7,2,31V8c0-1.6,1.3-2.9,2.9-2.9h26.1C32.7,5.1,34,6.4,34,8z"
			/>
	</g>
	<g>
		<path fill="#8CC63E" d="M34,12.7V8c0-1.6-1.3-2.9-2.9-2.9H4.9C3.3,5.1,2,6.4,2,8v4.7H34z"/>
	</g>
	<g>
		<path fill="#3E4347" d="M11.3,25.7l1.9-0.2c0.3,2.2,3,2,3-0.2c0-1.2-0.8-1.9-2.3-1.5l0.2-1.6c0.5,0,1-0.1,1.2-0.4
			c0.3-0.2,0.4-0.6,0.4-1c0-1.6-2.3-1.7-2.5,0.2l-1.8-0.3c0.9-4.2,6.3-3.1,6.3,0c0,0.9-0.5,1.6-1.5,2.2c3.2,0.7,2.4,5.8-1.5,5.8
			C12.8,28.7,11.5,27.5,11.3,25.7z"/>
	</g>
	<g>
		<path fill="#3E4347" d="M24.7,28.5h-2V21c-0.7,0.7-1.6,1.2-2.6,1.5v-1.8c1.1-0.4,2.5-1.4,3-2.6h1.6V28.5z"/>
	</g>
	<g>
		<path fill="#3E4347" d="M11.3,3.5v3.4c0,0.8-0.7,1.5-1.5,1.5S8.2,7.8,8.2,6.9V3.5C8.2,2.7,8.9,2,9.7,2S11.3,2.7,11.3,3.5z"/>
	</g>
	<g>
		<path fill="#3E4347" d="M27.8,3.5v3.4c0,0.8-0.7,1.5-1.5,1.5s-1.5-0.7-1.5-1.5V3.5c0-0.9,0.7-1.5,1.5-1.5S27.8,2.7,27.8,3.5z"/>
	</g>
</g>
</svg>
