<?xml version="1.0" encoding="utf-8"?>
<!-- Generator: Adobe Illustrator 18.0.0, SVG Export Plug-In . SVG Version: 6.00 Build 0)  -->
<!DOCTYPE svg PUBLIC "-//W3C//DTD SVG 1.1//EN" "http://www.w3.org/Graphics/SVG/1.1/DTD/svg11.dtd">
<svg version="1.1" id="Layer_1" xmlns="http://www.w3.org/2000/svg" xmlns:xlink="http://www.w3.org/1999/xlink" x="0px" y="0px"
	 viewBox="0 0 36 36" enable-background="new 0 0 36 36" xml:space="preserve">
<g>
	<g>
		<path fill="#3E4347" d="M14.3,23.4L9,31.8c-0.3,0.5-1,0.7-1.5,0.4c-0.5-0.3-0.7-1-0.4-1.5l5.3-8.4c0.3-0.5,1-0.7,1.5-0.4
			C14.4,22.1,14.6,22.8,14.3,23.4z"/>
	</g>
	<g>
		<path fill="#3E4347" d="M15.4,23.4l5.3,8.4c0.3,0.5,1,0.7,1.5,0.4c0.5-0.3,0.7-1,0.4-1.5l-5.3-8.4c-0.3-0.5-1-0.7-1.5-0.4
			C15.2,22.1,15.1,22.8,15.4,23.4z"/>
	</g>
	<g>
		<path fill="#BBC7D1" d="M19.4,19.9c0,2.5-2,4.6-4.6,4.6c-2.5,0-4.6-2-4.6-4.6c0-2.5,2-4.6,4.6-4.6C17.4,15.3,19.4,17.4,19.4,19.9z
			"/>
	</g>
	<g>
		<g>
			<path fill="#BBC7D1" d="M23.3,15.3c-0.4-0.1-0.6-0.5-0.5-0.9l2.6-8.7l-8.7,2.6c-0.4,0.1-0.8-0.1-0.9-0.5
				c-0.1-0.4,0.1-0.8,0.5-0.9l10-2.9c0.3-0.1,0.5,0,0.7,0.2c0.2,0.2,0.3,0.5,0.2,0.7l-2.9,10C24.1,15.2,23.7,15.4,23.3,15.3z"/>
		</g>
	</g>
	<g>
		<g>
			<path fill="#CBD6E0" d="M11.8,3.6c-4.2,4.3-4.2,11.3,0.1,15.6c4.3,4.3,11.2,4.3,15.6,0.1L11.8,3.6z"/>
		</g>
	</g>
	<g>
		<g>
			<g>
				<path fill="#DAE5EF" d="M28.4,20.1c-0.5,0.5-1.2,0.5-1.6,0L11,4.4c-0.5-0.5-0.5-1.2,0-1.6c0.5-0.5,1.2-0.5,1.6,0l15.7,15.7
					C28.8,18.9,28.8,19.6,28.4,20.1z"/>
			</g>
		</g>
	</g>
	<g>
		<g>
			<path fill="#E24B4B" d="M29.1,4.6c0,1.5-1.2,2.6-2.6,2.6c-1.5,0-2.6-1.2-2.6-2.6C23.8,3.2,25,2,26.5,2C27.9,2,29.1,3.2,29.1,4.6z
				"/>
		</g>
	</g>
	<g>
		<g>
			<path fill="#D03F3F" d="M29.1,4.6c0,1.5-1.2,2.6-2.6,2.6c-1,0-1.9-0.6-2.3-1.4c0.4,0.2,0.8,0.3,1.2,0.3c1.5,0,2.6-1.2,2.6-2.6
				c0-0.4-0.1-0.8-0.3-1.2C28.5,2.7,29.1,3.6,29.1,4.6z"/>
		</g>
	</g>
	<g>
		<path fill="#3E4347" d="M16,22.9v9.9c0,0.6-0.5,1.1-1.1,1.1c-0.6,0-1.1-0.5-1.1-1.1v-9.9c0-0.6,0.5-1.1,1.1-1.1
			C15.5,21.8,16,22.3,16,22.9z"/>
	</g>
	<g>
		<ellipse transform="matrix(0.7071 -0.7071 0.7071 0.7071 4.9315 18.9646)" fill="#FFFFFF" cx="25.4" cy="3.5" rx="0.7" ry="0.5"/>
	</g>
</g>
</svg>
