<?xml version="1.0" encoding="utf-8"?>
<!-- Generator: Adobe Illustrator 18.0.0, SVG Export Plug-In . SVG Version: 6.00 Build 0)  -->
<!DOCTYPE svg PUBLIC "-//W3C//DTD SVG 1.1//EN" "http://www.w3.org/Graphics/SVG/1.1/DTD/svg11.dtd">
<svg version="1.1" id="Layer_1" xmlns="http://www.w3.org/2000/svg" xmlns:xlink="http://www.w3.org/1999/xlink" x="0px" y="0px"
	 viewBox="0 0 36 36" enable-background="new 0 0 36 36" xml:space="preserve">
<g>
	<g>
		<g>
			<rect x="17.2" y="11.6" fill="#3E4347" width="1.2" height="3.7"/>
		</g>
	</g>
	<g>
		<path fill="#38C0DC" d="M24.4,15.4v17.5c0,0.6-0.5,1.1-1.1,1.1H12.3c-0.6,0-1.1-0.5-1.1-1.1V15.4H24.4z"/>
	</g>
	<g>
		<path fill="#45CBEA" d="M25.6,24.3c0.1,1.4-1.1,2.1-2.3,1.4c-1.2-0.7-2.3-3.4-2.7-5.2c-0.1-0.3-0.1-0.7-0.3-1
			c-0.2-0.3-0.6-0.5-1-0.3c-0.5,0.3-0.2,1.2-0.6,1.7c-0.3,0.4-1,0.4-1.4,0c-0.4-0.3-0.6-0.9-0.8-1.3C15,16,12.5,16.8,12,17.9
			c-0.8,1.7,1.7,4,0.4,5.6c-0.5,0.7-1.6,0.5-1.9-0.4c-0.2-0.7-0.1-1.4,0.3-8.1c0-0.7,0.1-1.4,0.7-1.8c0.8-0.5,1.7,0.1,2.5,0.6
			c1.7,1,3.8,1.1,5.6,0.3c1.2-0.5,3.3-2.2,5-1.2c1.9,1.3,0.9,4,0.5,5.1C23.6,21.7,25.4,22.3,25.6,24.3z"/>
	</g>
	<g>
		<path fill="#FFD93B" d="M15.1,12.8C12.3,9,19.6,5.6,17.9,2c1.8,1.2,2.6,4.6,3.1,6.7C22.1,14.5,16.8,15.2,15.1,12.8z"/>
	</g>
	<g>
		<g>
			<path fill="#F4C534" d="M16.4,13.5c-1.4-1.9,1.4-5.4,1.4-5.4s1.3,2.3,1.5,3.3C20,14.3,17.3,14.7,16.4,13.5z"/>
		</g>
	</g>
	<g>
		<path fill="#45CBEA" d="M10.7,28.6c0.1,0.5,0.3,0.7,0.6,0.7c0.3,0,0.6-0.3,0.5-1c-0.1-0.9-0.3-1.7-0.6-2.6
			C11.2,26.7,10.6,27.6,10.7,28.6z"/>
	</g>
</g>
</svg>
