<?xml version="1.0" encoding="utf-8"?>
<!-- Generator: Adobe Illustrator 18.0.0, SVG Export Plug-In . SVG Version: 6.00 Build 0)  -->
<!DOCTYPE svg PUBLIC "-//W3C//DTD SVG 1.1//EN" "http://www.w3.org/Graphics/SVG/1.1/DTD/svg11.dtd">
<svg version="1.1" id="Layer_1" xmlns="http://www.w3.org/2000/svg" xmlns:xlink="http://www.w3.org/1999/xlink" x="0px" y="0px"
	 viewBox="0 0 36 36" enable-background="new 0 0 36 36" xml:space="preserve">
<g>
	<g>
		<path fill="#E24B4B" d="M20,10.4L10.4,20l-3-3.2c-0.3-0.3-0.3-0.9,0-1.2l8.2-8.2c0.3-0.3,0.8-0.3,1.2,0L20,10.4z"/>
	</g>
	<g>
		<path fill="#D03F3F" d="M9.4,15.7l1.4,1.4c0.2,0.2,0.2,0.5,0,0.7c-0.2,0.2-0.5,0.2-0.7,0l-1.4-1.4c-0.2-0.2-0.2-0.5,0-0.7
			C8.9,15.5,9.2,15.5,9.4,15.7z"/>
	</g>
	<g>
		<path fill="#D03F3F" d="M10.8,14.3l1.4,1.4c0.2,0.2,0.2,0.5,0,0.7c-0.2,0.2-0.5,0.2-0.7,0L10.1,15c-0.2-0.2-0.2-0.5,0-0.7
			C10.3,14.1,10.6,14.1,10.8,14.3z"/>
	</g>
	<g>
		<path fill="#D03F3F" d="M12.2,12.9l1.4,1.4c0.2,0.2,0.2,0.5,0,0.7c-0.2,0.2-0.5,0.2-0.7,0l-1.4-1.4c-0.2-0.2-0.2-0.5,0-0.7
			C11.7,12.7,12,12.7,12.2,12.9z"/>
	</g>
	<g>
		<path fill="#D03F3F" d="M13.6,11.5l1.4,1.4c0.2,0.2,0.2,0.5,0,0.7c-0.2,0.2-0.5,0.2-0.7,0l-1.4-1.4c-0.2-0.2-0.2-0.5,0-0.7
			C13.1,11.3,13.4,11.3,13.6,11.5z"/>
	</g>
	<g>
		<path fill="#D03F3F" d="M15,10.1l1.4,1.4c0.2,0.2,0.2,0.5,0,0.7c-0.2,0.2-0.5,0.2-0.7,0l-1.4-1.4c-0.2-0.2-0.2-0.5,0-0.7
			C14.5,9.9,14.8,9.9,15,10.1z"/>
	</g>
	<g>
		<path fill="#D03F3F" d="M16.4,8.7l1.4,1.4c0.2,0.2,0.2,0.5,0,0.7c-0.2,0.2-0.5,0.2-0.7,0l-1.4-1.4c-0.2-0.2-0.2-0.5,0-0.7
			C15.9,8.5,16.2,8.5,16.4,8.7z"/>
	</g>
	<g>
		<path fill="#5A5F63" d="M20.6,10.2c0.2,0.2,0.2,0.5,0,0.8L11,20.6c-0.1,0.1-0.2,0.2-0.4,0.2s-0.3-0.1-0.4-0.2
			c-0.2-0.2-0.2-0.5,0-0.8l9.6-9.6C20,10,20.4,10,20.6,10.2z"/>
	</g>
	<g>
		<path fill="#E24B4B" d="M32.8,26.8l-8.6-8.6c-1.7-2.1-2.9-4.6-3.6-7.2L11,20.6c1.3,0.3,2.6,0.8,3.8,1.4c1.2,0.6,2.4,1.3,3.4,2.2
			l8.6,8.6c1.7,1.7,4.3,1.6,6,0C34.4,31.1,34.4,28.4,32.8,26.8z M30,31.1c-0.6,0-1.1-0.5-1.1-1.1c0-0.6,0.5-1.1,1.1-1.1
			c0.6,0,1.1,0.5,1.1,1.1C31.1,30.6,30.6,31.1,30,31.1z"/>
	</g>
	<g>
		<path fill="#D03F3F" d="M33.6,28c-0.1,0.1-0.1,0.2-0.2,0.3c-0.7,0.8-1.5,1.3-2.3,1.6c0,0,0,0,0,0.1c0,0.6-0.5,1.1-1.1,1.1
			c-0.6,0-1-0.4-1.1-0.9c-0.6-0.1-1.1-0.3-1.6-0.7l-8.9-6.8c-1.1-0.6-2.3-1.1-3.5-1.5c-1.2-0.4-2.6-0.6-3.9-0.7
			c1.3,0.4,2.6,0.8,3.8,1.4c1.2,0.6,2.4,1.3,3.4,2.2l8.6,8.6c1.7,1.7,4.3,1.6,6,0C34,31.5,34.3,29.6,33.6,28z"/>
	</g>
	<g>
		<path fill="#3E4347" d="M14.1,21.7l7.6-7.6c-0.5-1-0.8-2.1-1.1-3.2l0,0L11,20.6l0,0C12.1,20.8,13.1,21.2,14.1,21.7z"/>
	</g>
	<g>
		<path fill="#5A5F63" d="M26.1,21c-1.2,0.3-2.5,0.1-3.6-0.5c-0.6-0.3-1.3-0.2-1.7,0.2l0,0c-0.5,0.5-0.5,1.2-0.2,1.7
			c0.6,1.1,0.8,2.4,0.5,3.6c-0.1,0.5,0,1.2,0.5,1.6c0.5,0.5,1.1,0.6,1.6,0.5c1.2-0.3,2.4-0.1,3.4,0.4c0.6,0.3,1.3,0.2,1.8-0.3l0,0
			c0.5-0.5,0.6-1.2,0.3-1.8c-0.5-1-0.7-2.3-0.4-3.4c0.1-0.5,0-1.2-0.5-1.6C27.3,21,26.7,20.9,26.1,21z"/>
	</g>
	<g>
		<path fill="#3E4347" d="M25.7,28.3c-0.8-0.2-1.7-0.3-2.5,0c-0.3,0.1-0.6,0.1-0.9,0c0,0,0,0,0,0c-0.3-0.1-0.5-0.2-0.7-0.5
			c-0.2-0.2-0.4-0.5-0.5-0.7c0,0,0,0,0,0c-0.1-0.3-0.1-0.6,0-0.9c0.1-0.4,0.2-0.9,0.2-1.3L25.7,28.3z"/>
	</g>
	<g>
		<path fill="#777B7E" d="M23.4,22.2l3.5,3.5c0.3,0.3,0.3,0.8,0,1.1c-0.3,0.3-0.8,0.3-1.1,0l-3.5-3.5c-0.3-0.3-0.3-0.8,0-1.1
			C22.6,21.9,23.1,21.9,23.4,22.2z"/>
	</g>
	<g>
		<circle fill="#FFD93B" cx="25.1" cy="25.1" r="1.5"/>
	</g>
	<g>
		<circle fill="#DE9C25" cx="25.1" cy="25.1" r="0.8"/>
	</g>
	<g>
		<path fill="#FFD93B" d="M7.3,11.3c0.4,0,0.7,0.4,0.6,0.8c0,0.4-0.4,0.7-0.8,0.6l-4.4-0.5c-0.4,0-0.7-0.4-0.6-0.8
			c0-0.4,0.4-0.7,0.8-0.6L7.3,11.3z"/>
	</g>
	<g>
		<path fill="#FFD93B" d="M6.3,5.3l3.2,3.2c0.3,0.3,0.3,0.7,0,1c-0.3,0.3-0.8,0.3-1,0L5.3,6.3C5,6,5,5.6,5.3,5.3C5.6,5,6,5,6.3,5.3z
			"/>
	</g>
	<g>
		<path fill="#FFD93B" d="M12.2,2.6l0.5,4.5c0,0.4-0.2,0.8-0.6,0.8c-0.4,0-0.8-0.2-0.8-0.6l-0.5-4.4c0-0.4,0.2-0.8,0.6-0.8
			C11.8,2,12.2,2.2,12.2,2.6z"/>
	</g>
</g>
</svg>
