<svg xmlns="http://www.w3.org/2000/svg" viewBox="0 0 1000 1000"><defs><style>.cls-1{fill:#f1f5fc;}.cls-2{fill:#e6eefb;}.cls-3{fill:#f4f4f4;}.cls-4,.cls-6{fill:#fff;}.cls-4{stroke:#f4f4f4;}.cls-10,.cls-11,.cls-12,.cls-13,.cls-14,.cls-16,.cls-17,.cls-18,.cls-19,.cls-20,.cls-4,.cls-5,.cls-6,.cls-7,.cls-8,.cls-9{stroke-miterlimit:10;}.cls-5{fill:#2d388e;}.cls-10,.cls-11,.cls-12,.cls-13,.cls-14,.cls-16,.cls-17,.cls-18,.cls-19,.cls-20,.cls-5,.cls-6,.cls-7,.cls-8,.cls-9{stroke:#000;}.cls-7{fill:#d8e7fa;}.cls-8{fill:#e96181;}.cls-9{fill:#ffbe21;}.cls-10{fill:#2b2726;opacity:0.84;}.cls-11{fill:#707070;}.cls-12{fill:#a6c8f7;}.cls-13{fill:#fcfcfc;}.cls-14{fill:#1c6685;}.cls-15{fill:#a5c9f4;}.cls-16{fill:#f5f6f9;}.cls-17,.cls-21{fill:#a6c9f5;}.cls-18{fill:#dee813;}.cls-19{fill:#c9ce0d;}.cls-20{fill:#b2a108;}</style></defs><g id="Layer_36" data-name="Layer 36"><path class="cls-1" d="M891.26,516.65c50,24.67,83.39,79.68,82.22,135.4-.39,18.68-4.48,37.55-13.93,53.67-13.5,23-36.64,38.57-59.94,51.54-27.9,15.53-58,28.73-89.89,30.6-14.89.87-29.79-.76-44.7-1.38-30.18-1.24-61.63,2-87.69,17.32-17.43,10.23-31.87,25.49-50.51,33.3-25,10.48-54.17,5.84-79-5.09-25.49-11.22-49.56-31.08-55.38-58.32-4.08-19.09,1.5-39.28,11.55-56s24.29-30.52,38.8-43.59c12.82-11.54,26-22.73,40.48-32.15,42.23-27.54,92.78-38.75,138.88-59.15a373.07,373.07,0,0,0,86.33-53.31c10.07-8.31,20-17.35,32.33-21.76a50.35,50.35,0,0,1,49.63,9.72"/><path class="cls-1" d="M259.28,593.37c-16.65,2.66-33.44,3.83-50,.85-54.63-9.85-107.41-36.68-141.7-80.33s-47.66-105-27.64-156.77c13.79-35.64,42-64.57,75.15-83.65s70.88-28.91,108.81-33.58c28.45-3.51,57.31-4.24,85.36-10.22a233.07,233.07,0,0,0,93.27-43.15c22-17,41-37.9,64.33-53,40.58-26.34,93-32.9,139.32-18.93s85.94,47.82,108.46,90.62c8.76,16.64,15.1,34.83,16,53.6,1.65,33.25-13.73,65.18-33.45,92-42.23,57.45-104,97.06-165.6,132.91C442.3,535.62,361.29,577.1,259.28,593.37Z"/><path class="cls-2" d="M407.75,278.84c40.45,5.21,80.63,13.59,121.4,14.59,49.77,1.22,99.1-8.59,148.77-12s102,.42,144.65,26.16a155.93,155.93,0,0,1,54.88,56.52c35.64,63.1,22.89,143.07-6,209.55-17.3,39.87-40.68,78.24-74.74,105.23C773,697.72,745,710.35,716.05,719.3c-79.47,24.62-165.22,22.2-247.08,7.35-71.19-12.91-142.28-35.85-199.37-80.3s-98.51-113.14-96.89-185.48c.65-28.75,7.88-56.92,15.94-84.53,4.4-15.11,9.17-30.35,17.61-43.64,15.09-23.76,40.66-39.12,67.17-48.57A225,225,0,0,1,410.71,280"/><path class="cls-2" d="M211.16,210.77c-18.09-2.61-31.94-20.3-32.62-38.57s10.3-35.82,25.71-45.64S238.86,114,257,116.27c33.74,4.17,64.88,25.59,80.85,55.6,3.22,6,5.89,12.58,6.15,19.43s-2.22,14.08-7.7,18.19c-5,3.76-11.59,4.43-17.82,5-35.84,3.1-72.53,6.14-107.32-3.05Z"/><path class="cls-3" d="M107.53,674.58c.13-.23.26-.46.41-.68a3.62,3.62,0,0,1,.22-.32l.1-.15s.15-.18.06-.07a10.27,10.27,0,0,1,1-1.14c.18-.17.37-.33.57-.49,0,0,.18-.14.07-.06l.14-.1.33-.23a9.64,9.64,0,0,1,1.37-.77.76.76,0,0,0,.27-1,.79.79,0,0,0-1-.27,10.76,10.76,0,0,0-4.84,4.55.75.75,0,1,0,1.29.76Z"/><path class="cls-3" d="M119.87,667.24a11.65,11.65,0,0,1,6.3-2,.75.75,0,0,0,0-1.5,13.17,13.17,0,0,0-7.06,2.21.78.78,0,0,0-.27,1,.76.76,0,0,0,1,.27Z"/><path class="cls-3" d="M134.19,665.35l6.11.6a.76.76,0,0,0,.75-.75.77.77,0,0,0-.75-.75l-6.11-.6a.75.75,0,1,0,0,1.5Z"/><path class="cls-3" d="M100.81,681.65A13,13,0,0,0,98.39,689a.75.75,0,0,0,1.5,0,11.52,11.52,0,0,1,2.22-6.62.75.75,0,1,0-1.3-.76Z"/><path class="cls-3" d="M97.06,698.49a20.51,20.51,0,0,0,.44,6,.75.75,0,1,0,1.44-.4,19.5,19.5,0,0,1-.38-5.6.75.75,0,0,0-1.5,0Z"/><path class="cls-3" d="M100.05,714.88a22.83,22.83,0,0,0,3.66,6.6.75.75,0,1,0,1.06-1.06,20.53,20.53,0,0,1-3.27-5.94.78.78,0,0,0-.93-.52.75.75,0,0,0-.52.92Z"/><path class="cls-3" d="M107.79,726.38a46.17,46.17,0,0,0,4.52,5.35c.67.69,1.73-.37,1.06-1.06a43.68,43.68,0,0,1-4.28-5,.77.77,0,0,0-1-.27.75.75,0,0,0-.27,1Z"/><path class="cls-3" d="M119.4,735.75a53.69,53.69,0,0,0,7.31,3.15c.92.31,1.31-1.13.4-1.45a50.83,50.83,0,0,1-7-3c-.85-.45-1.61.85-.75,1.29Z"/><path class="cls-3" d="M136.08,739.8a23.53,23.53,0,0,1,6.26-.63c1,0,1-1.46,0-1.5a25.26,25.26,0,0,0-6.66.68c-.94.23-.54,1.67.4,1.45Z"/><path class="cls-3" d="M149.76,735.89a6.58,6.58,0,0,0,4-1.57.75.75,0,0,0,0-1.06.77.77,0,0,0-1.06,0l-.18.15c.16-.12-.05,0-.08.05s-.25.17-.38.25l-.41.22-.21.09c.18-.06,0,0-.06,0a6.5,6.5,0,0,1-.86.25l-.22,0-.12,0c.11,0,.11,0,0,0l-.46,0a.76.76,0,0,0-.75.75.77.77,0,0,0,.75.75Z"/><path class="cls-3" d="M162.4,727.24l3.42-3.57a.75.75,0,0,0,0-1.06.76.76,0,0,0-1.06,0l-3.42,3.57a.75.75,0,0,0,0,1.06.76.76,0,0,0,1.06,0Z"/><path class="cls-3" d="M170.54,712.66l.74-1.72a.66.66,0,0,0,.09-.27.61.61,0,0,0,0-.3.71.71,0,0,0-.34-.45.79.79,0,0,0-.58-.08.75.75,0,0,0-.45.35l-.73,1.71a.49.49,0,0,0-.09.28.61.61,0,0,0,0,.3.82.82,0,0,0,.35.45.73.73,0,0,0,.58.07.69.69,0,0,0,.44-.34Z"/><path class="cls-3" d="M171.08,699.57l-.91-4a.75.75,0,1,0-1.45.39l.91,4a.75.75,0,0,0,1.45-.4Z"/><path class="cls-3" d="M169.33,688.71a8.58,8.58,0,0,0-3.4-4.7.75.75,0,0,0-1,.26.76.76,0,0,0,.27,1l.27.2h0l.13.11a6.14,6.14,0,0,1,.47.42c.16.16.31.32.46.49a2.11,2.11,0,0,0,.19.23c.05.07-.06-.08,0,0a1.13,1.13,0,0,1,.1.13,8,8,0,0,1,.65,1.09l.13.27c.09.2,0-.08,0,0a.94.94,0,0,1,.06.15c.08.21.15.42.22.64a.75.75,0,1,0,1.44-.4Z"/><path class="cls-3" d="M160.19,675.8,157.35,673a.75.75,0,0,0-1.06,0,.77.77,0,0,0,0,1.06l2.83,2.82a.75.75,0,0,0,1.07-1.06Z"/><path class="cls-3" d="M151,666.91l-.52-.45a.61.61,0,0,0-.24-.15.59.59,0,0,0-.29-.07.57.57,0,0,0-.29.07.55.55,0,0,0-.24.15l-.12.15a.75.75,0,0,0-.1.38l0,.2a.7.7,0,0,0,.2.33l.52.45a.61.61,0,0,0,.24.15.64.64,0,0,0,.58,0A.61.61,0,0,0,151,668l.12-.16a.69.69,0,0,0,.1-.37l0-.2a.69.69,0,0,0-.19-.33Z"/><ellipse class="cls-4" cx="217.89" cy="727.75" rx="24.69" ry="23.63" transform="translate(-540.76 767.17) rotate(-76.31)"/><ellipse class="cls-2" cx="106.05" cy="595.98" rx="23.63" ry="24.69"/><ellipse class="cls-4" cx="851.14" cy="231.04" rx="23.63" ry="24.69"/><path class="cls-3" d="M748.23,165.68a9,9,0,0,1,1.22-2.72,9.49,9.49,0,0,1,2-2.19.76.76,0,0,0,0-1.06.75.75,0,0,0-1.06,0,10.68,10.68,0,0,0-3.63,5.57.75.75,0,0,0,1.45.4Z"/><path class="cls-3" d="M758.48,155.63a11.64,11.64,0,0,1,5.66-3.44.75.75,0,0,0-.4-1.45,13.1,13.1,0,0,0-6.32,3.83.76.76,0,0,0,0,1.06.75.75,0,0,0,1.06,0Z"/><path class="cls-3" d="M772,150.41l6.08-.86a.75.75,0,0,0,.52-.92.78.78,0,0,0-.92-.53l-6.08.87a.74.74,0,0,0-.52.92.77.77,0,0,0,.92.52Z"/><path class="cls-3" d="M743.36,174.17a13.08,13.08,0,0,0-.6,7.75c.22.94,1.66.54,1.45-.4a11.57,11.57,0,0,1,.6-7,.75.75,0,0,0-1.45-.4Z"/><path class="cls-3" d="M743.71,191.43a20.63,20.63,0,0,0,1.85,5.71.75.75,0,1,0,1.29-.76,19.39,19.39,0,0,1-1.69-5.35.75.75,0,1,0-1.45.4Z"/><path class="cls-3" d="M750.5,206.63a22.12,22.12,0,0,0,5,5.42.76.76,0,0,0,1.06,0,.75.75,0,0,0,0-1.06,21.08,21.08,0,0,1-4.73-5.11.77.77,0,0,0-1-.27.75.75,0,0,0-.27,1Z"/><path class="cls-3" d="M760.75,216a47.52,47.52,0,0,0,5.65,4.13.75.75,0,1,0,.76-1.3,43.47,43.47,0,0,1-5.35-3.89.77.77,0,0,0-1.06,0,.75.75,0,0,0,0,1.06Z"/><path class="cls-3" d="M774.25,222.32a53.52,53.52,0,0,0,7.86,1.32.76.76,0,0,0,.75-.75.78.78,0,0,0-.75-.75,51.11,51.11,0,0,1-7.47-1.26.75.75,0,0,0-.39,1.44Z"/><path class="cls-3" d="M791.41,222.29a23.42,23.42,0,0,1,5.94-2.08.75.75,0,0,0-.4-1.45,25.17,25.17,0,0,0-6.3,2.24.75.75,0,0,0-.27,1,.76.76,0,0,0,1,.27Z"/><path class="cls-3" d="M803.78,215.26a6.56,6.56,0,0,0,3.52-2.48.76.76,0,0,0-.27-1,.78.78,0,0,0-1,.27.86.86,0,0,1-.07.1c-.06.08.12-.14,0,0l-.13.17-.32.33-.34.31a.31.31,0,0,0-.09.07s.11-.09,0,0a1.33,1.33,0,0,1-.19.14,6,6,0,0,1-.77.45l-.11.05s-.16.07,0,0l-.05,0-.09,0a3.53,3.53,0,0,1-.46.15.75.75,0,0,0,.4,1.45Z"/><path class="cls-3" d="M814,203.86l2.48-4.28a.75.75,0,1,0-1.29-.76l-2.49,4.28a.75.75,0,0,0,1.3.76Z"/><path class="cls-3" d="M818.46,187.76l.31-1.84a.83.83,0,0,0-.08-.58.77.77,0,0,0-.45-.34.75.75,0,0,0-.92.52l-.31,1.84a.83.83,0,0,0,.08.58.77.77,0,0,0,.45.34.73.73,0,0,0,.92-.52Z"/><path class="cls-3" d="M815.87,174.92,814,171.23a.75.75,0,0,0-1-.27.77.77,0,0,0-.27,1l1.84,3.68a.74.74,0,0,0,1,.27.76.76,0,0,0,.27-1Z"/><path class="cls-3" d="M811.6,164.78a8.71,8.71,0,0,0-4.42-3.76.75.75,0,0,0-.92.53.77.77,0,0,0,.52.92l.17.07c-.06,0-.08,0,0,0l.31.15c.19.09.38.2.57.31l.52.34.12.09c.06.05.1.09,0,0a2.75,2.75,0,0,1,.26.22,8.5,8.5,0,0,1,.9.9l.09.13c0,.05.08.1,0,0l.18.26c.13.18.25.38.37.57a.74.74,0,0,0,1,.27.75.75,0,0,0,.27-1Z"/><path class="cls-3" d="M799.66,154.41l-3.42-2.07a.75.75,0,0,0-1,.27.76.76,0,0,0,.27,1l3.42,2.08a.75.75,0,0,0,.76-1.3Z"/><path class="cls-3" d="M788.63,147.94l-.62-.31a.66.66,0,0,0-.28-.09.74.74,0,0,0-.55.15.48.48,0,0,0-.19.21l-.08.18a.9.9,0,0,0,0,.4l.08.18a.7.7,0,0,0,.27.27l.61.31a.57.57,0,0,0,.28.08.51.51,0,0,0,.3,0,.55.55,0,0,0,.25-.13.8.8,0,0,0,.2-.21l.07-.18a.68.68,0,0,0,0-.4l-.07-.18a.87.87,0,0,0-.27-.27Z"/></g><g id="Layer_62" data-name="Layer 62"><g id="Layer_55" data-name="Layer 55"><g id="Layer_54" data-name="Layer 54"><path class="cls-5" d="M206.3,488.3c7.57,82.51,6.55,180.62,18.37,262.63l1.4.62c3.68-.33,5.92,0,9.25-1.75,17.35-88.47,24.4-158.24,17.68-250-8.8-29.79-10.05-3.92-13.31-6.52s-6.67-8.9-8.79-7.95-4.13,2.78-6.24,2.2c-4.43-1.24-4.94-13.91-18.36.8"/><path class="cls-6" d="M227.09,752.11l.46,7.65Z"/><path class="cls-6" d="M231.92,751.92a61.21,61.21,0,0,1-.13,7.66Z"/><path class="cls-6" d="M232.88,758.93a165.55,165.55,0,0,0,10.89,41.6,40.28,40.28,0,0,1,2.59,7.77.94.94,0,0,1-.07.7,1.48,1.48,0,0,1-.81.43,39,39,0,0,1-19.13.45l0-.07c-3.42-8.39-2.69-17.47-1.92-26.29l2.12-24.41.45-.39c-.36-.21,0,.37.21.69a1.48,1.48,0,0,0,1.11.51,12.69,12.69,0,0,0,3.08,0c.73-.09,1.63-.44,1.52-1l-.76-.28"/></g><g id="Layer_10" data-name="Layer 10"><path class="cls-6" d="M276.31,232.58a55.05,55.05,0,0,1-30.11,19.16c-4.65,1.09-9.41,1.56-14.13,2.26-1.26.18-2.74.56-3.16,1.76a3.55,3.55,0,0,0,0,1.83A65,65,0,0,0,246,290c2.94,3,6.49,5.91,10.7,6.22,4.89.37,9.3-2.79,13-6a115.16,115.16,0,0,0,17.07-18.57c2.79-3.8,5.45-8.21,4.92-12.89a3.51,3.51,0,0,0-1.14-2.48,4.48,4.48,0,0,0-1.55-.63,17.78,17.78,0,0,1-12.24-18.34c.18-1.69.31-3.67-.94-4.83"/><path d="M255.89,297.37a7.14,7.14,0,0,0,3.25-.13.75.75,0,0,0-.4-1.45,5.17,5.17,0,0,1-.68.16l-.16,0c.12,0,.13,0,.05,0h-.08l-.35,0a5.3,5.3,0,0,1-.69,0c-.11,0-.22,0-.32,0,.11,0,.12,0,0,0h-.06l-.21,0a.77.77,0,0,0-.92.53.76.76,0,0,0,.53.92Z"/><path class="cls-6" d="M255.92,297.34l.94,4.79a.51.51,0,0,0,.13.29.46.46,0,0,0,.3.08,5.36,5.36,0,0,0,1.2-.11.63.63,0,0,0,.33-.15.66.66,0,0,0,.13-.36c.26-1.71.45-3.43.57-5.15Z"/><path class="cls-6" d="M260.2,300.71a1.22,1.22,0,0,1,1.14,1.12,1.85,1.85,0,0,1-.72,1.54,4,4,0,0,1-1.58.73,4.41,4.41,0,0,1-1.76.18,2.11,2.11,0,0,1-1.5-.86,1.39,1.39,0,0,1,0-1.65.19.19,0,0,1,.1-.08c.11,0,.19.08.25.18a2,2,0,0,0,1.6.9,2,2,0,0,0,1.63-.88,5.57,5.57,0,0,1,.8-1.18Z"/><path class="cls-7" d="M246.77,338.83c-5,29-9.94,58.11-10.21,87.55-.21,22.62,2.34,45.5-1.69,67.72-9.62-.18-20.55-.75-27.88-7.35,11.65-28.57,17.21-63.75,13.27-94.58.24,40.72-16.32,79.47-20.47,120a21,21,0,0,1-5.9.6c-2.56,0-2.65-6-2.95-8.64-.55-4.77-.95-9.56-1.31-14.36q-3.52-46.61-2.8-93.45c.11-7.16.3-14.32.84-21.46a212.57,212.57,0,0,1,7.57-42.16c.85-3,1.2-6.57,3.61-8.4,5.26-4,18.72-9,22.35-9.72,7.1-1.46,5.24-1.23,11.55-3.11.72-.21,0,2.23.59,2.69A10.88,10.88,0,0,1,234.7,317c2.51,6.33,1.15,10.7-1.4,17-.73,1.83,0,2.5-.38,4.45s-.86,2.74.64,3.93c1.76,1.42,1,1.38,3,.51,4-1.69,6.73-1.17,9.79-4.39Z"/><path class="cls-8" d="M262,302.47c-1.6,1.85-4.94,2.45-6.55.6-1.78,1.46-1.52,4.16-1.46,6.46.19,7.24-3.29,14-5.29,21-.87,3-1.46,6.15-2,9.25a583,583,0,0,0-9,129.88c.19,4.21-1.18,10.7-1.62,14.89-.56,5.28-1.31,7,2.17,9.36a25.83,25.83,0,0,0,5.82,3c10.25,2.65,8,2.08,14.85,2.26,5,.14,14.89-3.56,18.86-6.55,1.26-1,3.09-1.32,3.53-2.83s-.55-4-.78-5.52q-1.38-9.14-3.17-18.21c-1.23-6.29-2.62-12.56-3.79-18.87a281.4,281.4,0,0,1-4.68-45.41c-.4-18.87,1.1-37.74,3.09-56.51,1.13-10.68,2.54-23.53,4-34.17v.07a34.08,34.08,0,0,0-5.36-3.06c-3-1.67-5.54-4.11-8.59-5.67"/><path class="cls-5" d="M259.33,500.32c7.58,82.51,4.15,166,16,248l1.4.62c3.68-.34,5.92,0,9.25-1.75,17.35-88.48,25.7-182,14.1-271.4-6.37,5-4.74,11.77-12.61,13.66a37.14,37.14,0,0,0-6.67,1.9,51,51,0,0,0-5.61,3.39A31.18,31.18,0,0,1,259,499.32"/><path class="cls-6" d="M277.71,749.46l.47,7.65Z"/><path class="cls-6" d="M282.54,749.28a61,61,0,0,1-.12,7.65Z"/><path class="cls-6" d="M283.51,756.29a162.86,162.86,0,0,0,10.88,41.22,38.43,38.43,0,0,1,2.59,7.71.87.87,0,0,1-.06.69,1.47,1.47,0,0,1-.82.43,39.31,39.31,0,0,1-19.13.44l0-.06c-3.42-8.32-2.7-17.33-1.93-26.07l2.13-24.19.44-.39c-.36-.2,0,.37.21.69a1.53,1.53,0,0,0,1.11.5,12.77,12.77,0,0,0,3.09,0c.73-.08,1.63-.43,1.52-1l-.77-.28"/><path class="cls-6" d="M200.24,521.31c2.21,8.4,1.52,17.26.83,25.92a1.24,1.24,0,0,1-.19.66,1.11,1.11,0,0,1-.68.32,106.13,106.13,0,0,1-10.48,1.93h-.47a196.91,196.91,0,0,1,1.19-33.55l.47-.7a13.53,13.53,0,0,1,3-2l.55,0V512l3.18-.18v1.95l1.07.55a2.44,2.44,0,0,1,1.21-.47l.53.28a7.57,7.57,0,0,1,2.13,3.84q.93,3.07,1.56,6.22l-.31.2c-1.41.66-1.73.33-3.14,1"/><path class="cls-7" d="M271.08,351.1l-1.81,27c-1.59,34.87,1.11,20.26,1.36,49.7.2,22.62,3.45,42.61,7.18,64.83A36.43,36.43,0,0,0,302.27,482a196.3,196.3,0,0,1-11-91.35c-.22,40.72,15.09,79.47,18.93,120a18,18,0,0,0,5.45.6c2.37,0,2.45-6,2.73-8.64.5-4.77.87-9.56,1.21-14.36q3.25-46.61,2.59-93.45c-.11-7.16-.28-14.32-.79-21.46a228,228,0,0,0-7-42.16,26.82,26.82,0,0,0-3.34-8.4c-2.1-3.06-5.25-4.9-8.4-6.34a54.49,54.49,0,0,0-17.38-4.74,2.63,2.63,0,0,0-2,.36c-.43.35-8.84-2.5-8.94-1.92-1.12,6.63-.32,18-2,26.15-.55,2.66-.48.69-.55,2.66-.09,3-.28,10.42-.77,12.17"/><path class="cls-6" d="M289.9,526c-2.09,8.41-1.44,17.27-.78,25.93a1.23,1.23,0,0,0,.17.66,1.18,1.18,0,0,0,.64.32,98.88,98.88,0,0,0,9.93,1.93h.44a207.71,207.71,0,0,0-1.12-33.55l-.44-.7a12.85,12.85,0,0,0-2.82-2l-.52,0v-1.94l-3-.18v2l-1,.55a2.31,2.31,0,0,0-1.14-.48l-.5.29a7.64,7.64,0,0,0-2,3.84c-.59,2-1.08,4.12-1.48,6.22l.3.2c1.33.66,1.63.33,3,1"/></g></g><g id="Layer_61" data-name="Layer 61"><path class="cls-9" d="M289.47,320.56c-.65-10.87,1.73-19.65,5.17-29.78,6.42-18.9,8.66-33.29,1.33-51.73-1.85-4.65-3.67-8.75-7.06-12-3.66-3.52-19.45-8.5-24.9-9-15.11,0-15.93.34-30.5,9.8-11.61,11.07-18.79,24.66-19,42.15-.09,6.75.84,13.65,3.61,19.58,2.13,4.56,5.24,8.36,7.88,12.53,7.17,11.33,10.72,27,5.48,39.69-1.11,2.68-2.6,5.66-1.62,8.4a5.84,5.84,0,0,0,1.47,2.19c3.14,3,8,2.27,11.29-.57s5.16-7.3,6.6-11.73a90.4,90.4,0,0,0,4.42-28.34c0-3.78-.32-7.74-2.08-10.91a27.19,27.19,0,0,0-3.88-4.89,64.12,64.12,0,0,1-14.87-31.32,4,4,0,0,1,.09-2.41,3,3,0,0,1,2.22-1.33c7.21-1.62,14.45-3.39,21.18-6.79a39.13,39.13,0,0,0,16.94-15.78c.13,4.15.28,8.37,1.43,12.3s3.46,7.61,6.79,9.11c1.3.59,2.74.85,3.85,1.84,1.67,1.48,2.13,4.29,1.64,6.67a18.79,18.79,0,0,1-3,6.36,150.22,150.22,0,0,1-19,23.42,10.76,10.76,0,0,0-2.31,2.91,8.64,8.64,0,0,0,0,6.48c2.08,5.77,7.64,8.48,12.68,10.63l7.25,3.09c2.22.95,5.07,1.74,6.66-.29Z"/></g></g><g id="Layer_63" data-name="Layer 63"><g id="Layer_58" data-name="Layer 58"><path class="cls-10" d="M754,768.73c-.37,2.13-.78,4.73-1.07,6.87l-2.6-.34a60.44,60.44,0,0,1,.15-7.12"/><path class="cls-6" d="M754.75,773.93q-.87,14.31-1.34,28.64l-.16.4a24.48,24.48,0,0,1-5.77,2.45l-45.71,14.85-.72.05c-4.67-2.5-5.83-3.34-9.6-7.65l57.36-39.76.62-.6c-.24,0,.22-.14,0,0a.86.86,0,0,0-.39.73,1.11,1.11,0,0,0,.87.93,6.24,6.24,0,0,0,4.24-.11.81.81,0,0,0,.48-.38.83.83,0,0,0-.27-.94,1.31,1.31,0,0,0-.86-.18"/><path class="cls-5" d="M765.07,476.41c-5,2-10.33,2.51-15.64,2.6a115.58,115.58,0,0,1-20.74-1.51,11.32,11.32,0,0,1-3.35-.94l-.19.32c-3.93,32.83-2.76,66.6.4,99.73,1.18,12.41,2.5,27.11,3.29,39.54C732,666.74,741,714.63,746.4,765l-.15.59a3.49,3.49,0,0,0,1.13,1.53,7.62,7.62,0,0,0,5.16,1.9,7.44,7.44,0,0,0,5-2.18l.27-.13c2.91-58.13,3.4-116.44,3.89-174.73.18-22.12,2.9-92.5,3.08-114.62"/><path class="cls-5" d="M766.86,473.14c5,2,10.34,2.51,15.65,2.6a114.5,114.5,0,0,0,20.73-1.51,11.38,11.38,0,0,0,3.36-.94l.19.32c3.93,32.83,2.76,66.6-.4,99.73-1.19,12.41-2.51,27.11-3.29,39.54-3.2,50.59-12.19,98.48-17.57,148.88l.15.59a3.35,3.35,0,0,1-1.13,1.53,7.67,7.67,0,0,1-5.15,1.91,7.5,7.5,0,0,1-5-2.19l-.28-.13c-2.91-58.13-3.4-116.44-3.88-174.73-.19-22.12-2.9-92.5-3.08-114.62"/><path class="cls-10" d="M778.43,765.87c.37,2.13.78,4.73,1.07,6.87l2.6-.34a62.68,62.68,0,0,0-.15-7.12"/><path class="cls-6" d="M777.63,771.07q.86,14.29,1.34,28.64l.16.4a24.48,24.48,0,0,0,5.77,2.45l45.71,14.85.72.05c4.67-2.5,5.83-3.34,9.6-7.65l-57.36-39.76-.62-.6c.24,0-.22-.14,0,0a.83.83,0,0,1,.38.73,1.1,1.1,0,0,1-.86.93,6.24,6.24,0,0,1-4.24-.11.81.81,0,0,1-.48-.38.83.83,0,0,1,.27-.94,1.31,1.31,0,0,1,.86-.18"/></g><g id="Layer_22" data-name="Layer 22"><path class="cls-11" d="M770.2,303.84C762,302.13,754.63,296,750,289s-7.14-15.11-8.94-23.27c-2.26-10.25-3.43-21.17,0-31.09a35.05,35.05,0,0,1,5.76-10.41c4.86-6.07,11.95-10.5,19.68-11.4,8.43-1,17.09,2.33,23.29,8.12a39.27,39.27,0,0,1,11.43,22.24,58.08,58.08,0,0,1-1.82,25.19,75.63,75.63,0,0,1-5.55,14.14c-5,9.77-13,19-23.68,21.31Z"/><path class="cls-12" d="M765.93,308.69l1.37-5.54c-.29,2.3-.65,3.91-.74,6l-.41-.56c-.33,0-.52.41-.37.7a1.2,1.2,0,0,0,.8.52,8.25,8.25,0,0,0,5.66-.45.36.36,0,0,0,.16-.11c.08-.13,0-.3-.17-.38a1.41,1.41,0,0,1-.39-.24h-.51a28.75,28.75,0,0,0-.56-5l1.48,5.53"/><path class="cls-11" d="M809.7,531.45a11.08,11.08,0,0,0,0,3.15,3.83,3.83,0,0,0,1.66,2.59,5.39,5.39,0,0,0,2,.57,44.64,44.64,0,0,0,10.46.26c1.74-.17,3.66-.54,4.69-1.94l.13-.24a50.73,50.73,0,0,0,2.34-9.92,17.12,17.12,0,0,0-1.68-9.93l-.23-.48c-2.56.18-5.12.43-7.66.77H821a2.61,2.61,0,0,0,0-1.11,12.15,12.15,0,0,1-.13-2l-3.23.14c0,.93.08,1.85.14,2.77l-.75.17a20.36,20.36,0,0,0-5.27.78,11,11,0,0,0-4.6,2.61l-.45.17a16,16,0,0,0,.4,10.4,1.45,1.45,0,0,0,.41.66.55.55,0,0,0,.72,0l-.21.17a26.69,26.69,0,0,0,4.08-.56c.13,0,.27-.19.15-.24l0-.35a16.28,16.28,0,0,0,.16-5.07"/><path class="cls-13" d="M723.85,481.22c13.73,4.56,28.49,5.48,42.89,4.1s28.5-5,42.29-9.4"/><path class="cls-11" d="M726.51,531.45a11.08,11.08,0,0,1,0,3.15,3.83,3.83,0,0,1-1.66,2.59,5.39,5.39,0,0,1-2,.57,44.64,44.64,0,0,1-10.46.26c-1.74-.17-3.66-.54-4.69-1.94l-.13-.24a50.73,50.73,0,0,1-2.34-9.92A17.12,17.12,0,0,1,706.9,516l.23-.48c2.56.18,5.12.43,7.66.77h.38a2.61,2.61,0,0,1,0-1.11,12.15,12.15,0,0,0,.13-2l3.23.14c0,.93-.08,1.85-.14,2.77l.75.17a20.36,20.36,0,0,1,5.27.78,11,11,0,0,1,4.6,2.61l.45.17a16,16,0,0,1-.4,10.4,1.45,1.45,0,0,1-.41.66.55.55,0,0,1-.72,0l.21.17a26.69,26.69,0,0,1-4.08-.56c-.13,0-.27-.19-.15-.24l0-.35a16.28,16.28,0,0,1-.16-5.07"/><path class="cls-14" d="M793.89,222c3.54.5,9.09,7.92,10.26,11,.12.34.4,2.76.44,3.12,1.08,10.62,1.1,11.23-.74,21.47-.64-2.7-1.29-5.4-1.74-8.14-.3-1.86-.52-3.74-.91-5.59-1-4.89-4-8.77-8.19-12-.57-.45-3.68-3-4.39-2.78a98.17,98.17,0,0,1-22.19,11.85c-7,2.46-14.64,2.62-22,1.64a2.44,2.44,0,0,1-1.93-.91,78.33,78.33,0,0,0-3.93,12.87,17.42,17.42,0,0,1-1.24-11.08A52,52,0,0,1,741,232.69l-8.6,10.78a4.33,4.33,0,0,1,.17-3.36,33.47,33.47,0,0,1,8.36-13c3.67-3.53,8.13-6.24,11.52-10-6.38.68-11.48,5.9-17.84,6.77a30.17,30.17,0,0,1,16.58-11.71,52.81,52.81,0,0,1,9.62-1.52,43.87,43.87,0,0,1,13.15.35c4.3.94,11.38,3.06,14.68,5.86,1.2,1,4.72,4.17,4.48,5.15"/><path d="M793.1,222.73a.75.75,0,0,0,0-1.5.75.75,0,0,0,0,1.5Z"/></g><g id="Layer_64" data-name="Layer 64"><path class="cls-15" d="M766.59,311.05a1.6,1.6,0,0,1-1.82-.86l.58.27a5.87,5.87,0,0,0,5.29,0l.16-.28a134.7,134.7,0,0,1,35.43,8.06c9.34,3.51,18.9,8.66,23.31,17.61,2.9,5.9,3.17,12.69,3.4,19.26q.93,27.63,1.87,55.28c.46,13.47.92,27,.07,40.42C833.53,472,829,492.88,823.72,513.5l-.15.36c-2.71,1.82-6.33,1.18-9.52.46l.4-.72c-2.05-7-2.74-14.28-3.35-21.53-3.49-41.5-4.51-83.15-5.53-124.78l4.57,108.56c-27.48,7.06-56.38,14.14-83.89,7.15l-1.48-.82.2-11.12c0-3,.11-6.08-.07-9.11-.22-3.7-.79-7.37-1.14-11.06-1-10.84-.1-21.76.81-32.61l3.72-44.16-.6-1c-1.8,22.21-3.6,44.45-4,66.74-.38,24.31,1,48.87-3.65,72.75l-1,1.22a19.63,19.63,0,0,1-6.42.76c-2.56-.19-2.39-.51-2.9-3-.87-4.34-1.62-8.71-2.35-13.07q-2.12-12.54-3.69-25.16c-4.62-36.94-5.75-74.19-6.23-111.38-.11-8.7.07-18,5-25.18,3.69-5.45,9.62-8.94,15.51-11.9a170.36,170.36,0,0,1,47.12-15.57"/><path d="M766.49,310.69a1.23,1.23,0,0,1-1.39-.69l-.51.52a7.52,7.52,0,0,0,3.8.91,6.22,6.22,0,0,0,2-.49c.17-.08.38-.27.53-.33s0-.07.19-.1a5.92,5.92,0,0,1,1,.13q6.59.66,13.07,2a125.19,125.19,0,0,1,24.33,7.34c6.56,2.79,13.08,6.55,17.39,12.39,5,6.73,5.32,15.18,5.6,23.23q.93,27.65,1.87,55.28c.62,18.17,1,36.28-1.34,54.35-1.14,9-2.78,17.93-4.68,26.79-.95,4.42-2,8.82-3,13.2q-.81,3.3-1.63,6.58c-.17.67-.22,1.55-.72,2a5.8,5.8,0,0,1-3.08.9,20.08,20.08,0,0,1-5.82-.68l.23.55a2.65,2.65,0,0,0,.44-.91,5.92,5.92,0,0,0-.39-1.47c-.17-.61-.32-1.22-.47-1.84-.54-2.31-1-4.64-1.3-7-.69-4.79-1.06-9.63-1.45-14.46q-1.19-14.62-2-29.29c-1.11-19.62-1.83-39.27-2.39-58.93-.32-11.11-.59-22.22-.87-33.33h-.75l.46,10.83L806.74,404l1.32,31.42,1.15,27.05.37,8.93.12,2.81a5,5,0,0,0,.06,1.45.59.59,0,0,1,0,.19l.27-.36c-24.86,6.38-51,13-76.75,8.62-2.49-.43-5.46-.67-7.69-1.9a1.86,1.86,0,0,1-.52-.28c-.2-.29.21.42.07-.23a11.55,11.55,0,0,1,0-2.42l.09-5.07c.06-3.29.17-6.58.09-9.87s-.44-6.41-.82-9.61c-1.56-13.34-.43-26.59.69-39.92l1.88-22.33,1-11.41.46-5.46a4.22,4.22,0,0,0,0-1.73,5,5,0,0,0-.57-.94.38.38,0,0,0-.7.19c-1.09,13.49-2.18,27-2.95,40.51s-1.08,27.05-1.08,40.6c0,13.29.06,26.62-1.07,39.88-.29,3.43-.66,6.85-1.14,10.26-.22,1.6-.47,3.2-.74,4.8-.2,1.18-.18,2.75-.92,3.7a2.33,2.33,0,0,1-.67.69,7.5,7.5,0,0,1-2,.41,14.16,14.16,0,0,1-5.11.13c-.88-.19-1.07-.63-1.26-1.47-.31-1.42-.56-2.87-.83-4.3A643.88,643.88,0,0,1,700,427.61c-.81-13.47-1.32-27-1.65-40.46Q698.12,377,698,366.9c-.08-6-.37-12.19.55-18.19.89-5.78,3.09-11.18,7.31-15.33s9.3-6.7,14.42-9.19a170.44,170.44,0,0,1,35.92-12.68q4.5-1,9-1.83c.48-.08.28-.81-.2-.72A171.2,171.2,0,0,0,727.64,320a110.59,110.59,0,0,0-16.57,8.31c-4.73,3.05-8.8,7-11.06,12.22s-2.74,10.85-2.85,16.4c-.12,6.77.12,13.56.25,20.32.26,14,.68,28,1.39,42A698.54,698.54,0,0,0,707.67,502q.89,5.17,1.91,10.31c.28,1.43.58,2.32,2.13,2.56a14,14,0,0,0,3.77,0,18,18,0,0,0,1.95-.29,5.17,5.17,0,0,0,2-.51,4.84,4.84,0,0,0,1-1.26,7.71,7.71,0,0,0,.42-2c.16-.88.31-1.75.45-2.63,2.2-13.56,2.66-27.32,2.76-41,.09-13.89,0-27.77.52-41.65s1.59-28,2.7-42q.4-5.19.83-10.37l-.7.19a4.18,4.18,0,0,1,.58.94,9.43,9.43,0,0,1-.23,2.34l-.46,5.46L726.33,393l-1.84,21.83c-.61,7.24-1.28,14.49-1.49,21.76a158,158,0,0,0,1.19,21.52c.85,8,.35,16.08.2,24.09a.39.39,0,0,0,.19.33c.44.24.89.53,1.35.74a17.54,17.54,0,0,0,3.46.87c2.79.6,5.62,1.06,8.46,1.4a110.74,110.74,0,0,0,17.37.64c11.89-.45,23.66-2.51,35.24-5.11,6.63-1.48,13.21-3.15,19.78-4.84a.37.37,0,0,0,.28-.36L810.06,465,809,439.14l-1.32-31.42-1.14-27.06-.38-8.93a31.74,31.74,0,0,0-.18-4.25c0-.06,0-.13,0-.19a.38.38,0,0,0-.75,0c.48,19.57,1,39.14,1.7,58.71s1.72,38.94,3.21,58.38c.41,5.32.8,10.66,1.43,16,.29,2.47.64,4.93,1.12,7.37.24,1.24.51,2.48.81,3.7a11.25,11.25,0,0,1,.56,1.95,1.63,1.63,0,0,1-.29.77.38.38,0,0,0,.22.55,23.82,23.82,0,0,0,5.24.74c1.36,0,3.55-.2,4.57-1.24a1.82,1.82,0,0,0,.38-.82c.32-1.07.55-2.19.82-3.28q.82-3.29,1.61-6.58c2.08-8.7,4-17.45,5.49-26.27A248.46,248.46,0,0,0,835.23,451c.59-9,.58-18.07.37-27.1-.42-18.39-1.2-36.77-1.82-55.15q-.24-6.84-.47-13.69a79.38,79.38,0,0,0-1-11.93,28,28,0,0,0-10.83-17.39c-5.78-4.42-12.68-7.17-19.52-9.48a134.65,134.65,0,0,0-25-5.82c-2-.28-4.08-.5-6.13-.69a.37.37,0,0,0-.33.19c-.45.84-2.4.79-3.2.69a7.58,7.58,0,0,1-2.31-.77c-.32-.15-.71.17-.51.51a2,2,0,0,0,2.24,1c.48-.08.27-.8-.2-.72Z"/></g></g><g id="Layer_18" data-name="Layer 18"><g id="Layer_16" data-name="Layer 16"><path class="cls-7" d="M369.21,238.14c-8.55,0-15.44,5.63-21.55,11.61-11.69,11.44-15.53,29-14.19,45.31.83,10.22,3.45,20.55,1.34,30.58A33.38,33.38,0,0,1,326,342.09c-3.69,3.72-8.6,7.19-9,12.41,3.68-3.66,6.61,2.23,10.95,5.07s10.47,2,12.48,6.8c1.81,4.3,3.3,8.93,6.56,12.28,2.86,3,6.8,4.58,10.69,5.9,10.47,3.55,21.76,5.4,32.64,3.42s21.29-8.18,26.71-17.81c2.5-4.45,4.07-9.7,8.1-12.82a4.72,4.72,0,0,0,1.48-1.47c.78-1.62-.88-3.3-2.29-4.42a40.88,40.88,0,0,1-14.53-24.6c-2.38-13.65,2.32-27.74.26-41.43-1-6.72-3.63-13.1-6.65-19.19-3.45-7-7.54-13.75-13.22-19.05S377,238.12,369.21,238.14Z"/></g><g id="Layer_60" data-name="Layer 60"><path class="cls-7" d="M317.3,352.58l-.38-.89c-7.41,5.35-13.76,11.61-16.81,20.24S295.87,389.7,295,398.8a482,482,0,0,0,3.1,120.36l1.13.46c1.89.27,3.8.45,5.71.58l-.07.43"/></g><g id="Layer_17" data-name="Layer 17"><path class="cls-5" d="M340.65,775.71C331.22,709,325,647.89,319,580.74c9.05-6.11,12-11.1,19.55-19a9,9,0,0,1,3-2.3,9.62,9.62,0,0,1,3.74-.44c2.83.06,5.61-.35,8.44-.25l1.11-.14c3.42,71.59,4.09,144.55,2,216.19l-.67.25c-5.1.33-10.22.41-15.33.24"/><path class="cls-5" d="M398.64,769.52c1.19-40.79,3.48-82.11,6.59-122.8l-.05-.31c.83-12.1,1.49-23.52,2.31-35.63,1.26-18.35,2.48-37-1.7-54.94-16.17,2.51-33.36-3.14-48.77,2.37l.74.2C372.2,627.59,372,699,381.65,769a65.32,65.32,0,0,0,17,.56"/><path class="cls-6" d="M351.59,775.32a13.18,13.18,0,0,1-.3,3.34l-5.46-.27a12.28,12.28,0,0,0-.16-2.68"/><path class="cls-6" d="M351.87,815.53l1.27-29.4a65.2,65.2,0,0,0,.05-7L351.84,778a.84.84,0,0,1,1.07.35,18.32,18.32,0,0,1-8.8,0,1,1,0,0,1,.92-.28l-.68.25c-1.8,1.7-3.74,3.25-5.69,4.78-13.94,10.85-28.9,20.38-42.49,31.67a29.18,29.18,0,0,0,4.63,2.43l.32.24c5.81,1.85,12,2,18.1,2,10.25,0,22.84-.55,32.39-4.27"/><path class="cls-6" d="M391,773.18A10.31,10.31,0,0,1,391,771l-5.28-.66-.14,3.13"/><path class="cls-6" d="M391.62,773.61c2.14,14.54,10.34,28.84,12.5,43.38l-3.66,1,.27,0a48.45,48.45,0,0,1-22.05.36,4.52,4.52,0,0,1-2.44-1.12,3.93,3.93,0,0,1-.8-1.67c-.86-3.21-.36-6.62.21-9.9,1.86-10.72,4.4-21.44,9.33-31.14l.58-1.42c0,.44-.33,1.17,0,1.41s.59-.83.95-1.09c2.76-2,4,.6,5.07.18-.13-.15.12.15,0,0"/></g><g id="Layer_15" data-name="Layer 15"><path class="cls-6" d="M340.41,292c.55-9.56,1.87-17.3,5.14-25.18a19.63,19.63,0,0,1,3.39-5.89,16.57,16.57,0,0,1,6.64-4.11,39.35,39.35,0,0,1,21.57-1.18,18.4,18.4,0,0,1,6.29,2.27A15.14,15.14,0,0,1,387,261.2c5.3,6.6,6.37,15.56,7,24,.66,8.65.88,18.07-4.17,25.12-4.29,6-11.52,9-18.37,11.74a15.7,15.7,0,0,1-3.83,1.17,12.57,12.57,0,0,1-7-1.56A35.39,35.39,0,0,1,347,309c-3.43-5.29-4.32-8.64-6.12-13.57Z"/><path class="cls-14" d="M342.86,274.64c1.08-4.75,2.37-9.64,5.37-13.49s8.15-6.42,12.82-5l.35.66a18.24,18.24,0,0,1-17.72,16.94"/><path class="cls-14" d="M361.56,257.57A13.52,13.52,0,0,0,365.8,266a28.11,28.11,0,0,0,8.09,5.21c5.7,2.6,12.3,4.32,18.17,2.15-1.24-5.75-2.82-12.05-7.63-15.44a18,18,0,0,0-5.85-2.53,37,37,0,0,0-19.18.11Z"/><path class="cls-7" d="M408.77,392.78q4.94,68.64,13,137l.1.51c2.18,0,4.36-.06,6.53-.22l1.16-.38a482.12,482.12,0,0,0,11-119.9c-.32-9.14-.9-18.35-3.38-27.15s-7-17.26-14-23.08l-.85.62c-4.4,9.11-7.61,14.3-14.53,20.63-3,2.75-8,4.28-11.94,5.18a82.87,82.87,0,0,1-38.92-.61l.72.57.89,131.13c.23,33.74.46,67.55,4.38,101.06.79,6.71,2,13.93,6.76,18.69a25.33,25.33,0,0,0,9.22,5.36,66.7,66.7,0,0,0,31,3.77l1.32,0c1.66-.81,2-3,2.17-4.81l9.35-110.4"/><path class="cls-16" d="M329.54,359.57c6.09,2,11.31,5,12,10.95"/><path class="cls-17" d="M343.45,558.41c.44-6.64.54-12.1.66-18.43,1.07-56.49.21-111.94-2.08-168.4l-.47-1.06a25.93,25.93,0,0,0,16.22,14.85c-1.24,57.06-.67,115.31.63,172.37-4.69,1.77-10.36,1.23-15.34.63"/><path class="cls-6" d="M427.89,530.4c.13,1.64.21,3.29.24,4.94l-3.24-.62c-.09-1.34-.23-2.68-.41-4"/><path class="cls-6" d="M424.87,535.34a1.28,1.28,0,0,0-1,.88,3.82,3.82,0,0,0-.17,1.39,40.17,40.17,0,0,0,.82,10,6.15,6.15,0,0,0,2.21-.92l-1,.81a46,46,0,0,0-1.13,11.63.6.6,0,0,0,.14.45.67.67,0,0,0,.31.1,56.48,56.48,0,0,0,7.12.45c.61,0,1.32-.07,1.63-.59a2,2,0,0,0,.18-.86c.28-7.88.55-15.88-1.39-23.52l-4.06.24"/><path class="cls-6" d="M299.11,520.41c-.12,1.64-.21,3.29-.24,4.94l3.24-.62c.09-1.34.23-2.68.41-4"/><path class="cls-6" d="M302.13,525.35a1.31,1.31,0,0,1,1,.88,4.05,4.05,0,0,1,.17,1.39,41.18,41.18,0,0,1-.82,10,6.07,6.07,0,0,1-2.21-.92l1,.81a46,46,0,0,1,1.13,11.63.56.56,0,0,1-.14.44.64.64,0,0,1-.31.11,56.48,56.48,0,0,1-7.12.45c-.6,0-1.32-.07-1.63-.59a1.82,1.82,0,0,1-.17-.86c-.28-7.88-.55-15.88,1.38-23.52l4.06.24"/></g><path class="cls-7" d="M317.22,351.73c1.46,2.26,4.69,2.35,7.07,3.6,2.13,1.12,3.58,3.19,5.43,4.74a23.3,23.3,0,0,0,6.6,3.53c1.68.66,3.46,1.34,4.57,2.75a5,5,0,0,1,.66,5l-.09-2.22c6.65,89.69-.62,182.83,2.89,272.7l-.06.36a39.47,39.47,0,0,1-24.68-1.57A8,8,0,0,1,316,638.3a8.73,8.73,0,0,1-1.41-4.22C303.53,560.87,301.44,486.57,303,412.56"/></g><g id="Layer_14" data-name="Layer 14"><g id="Layer_12" data-name="Layer 12"><path class="cls-6" d="M685,265.13c.93,0,.3.25.63-.62a7.93,7.93,0,0,0,.68-2.93c-.07-1.87-.2-4.62-.28-6.49,0-.35.21-.08,0-.35s.1-.93-.07-.63l-.1.11c-1-.42-1.07-1.73-1.18-2.79-.41-3.8-3-7.08-6.23-9.18s-6.91-3.23-10.57-4.32c-2.65-.79-5.3-1.58-8-2.15-4.11-.85-8.33-1.18-12.39-2.27s-8.06-3.1-10.48-6.53a5.39,5.39,0,0,1-1.2-3.76l0,.5a18.79,18.79,0,0,1,1.84,15.19c-1.68,5-5.58,9.75-10.8,10.43l.21-.49c.39-.12,1.25.32-.23,1.19-.47.29-.49.56-1.1.82s-.19,1-.22,1.67c-.15,3.35-1,6.86-.13,10.11.09.37.3.44.54.74a1.93,1.93,0,0,0,1.93.86l-.54.14-.39.4c1.24,7.41,1.42,14,2.56,20.94a28.3,28.3,0,0,0,11.06,17.57,34.59,34.59,0,0,0,5.16,3.1c3.65,1.83,7.65,3.31,11.72,3a21.25,21.25,0,0,0,5.48-1.3c8.22-2.92,15.35-8.78,18.21-17a34.5,34.5,0,0,0,1.5-7.89c.62-5.8,1.49-11.82,1.69-17.65"/></g><g id="Layer_13" data-name="Layer 13"><path class="cls-16" d="M604.15,521.45a16.14,16.14,0,0,0,2.91,6.83,3.75,3.75,0,0,0,1.8,1.48c1.16.35,1.5-1.45,2.42-2.24,2.08-1.78,3.1-4,4.33-6.44"/><path class="cls-5" d="M659.59,517.36q-22.35,131.89-37.16,265l-.47,1.22a21,21,0,0,1-13.19,1.67l0-.11C596.63,696,604.7,612.29,596.67,522.55l.51-8.7c3.09-7.05,5.7-12.62,6-20.38,1.11,2.84,2.27,5.67,3.47,8.47"/><path class="cls-6" d="M618.33,785.46l-.42,4.15-4.42.6a34.47,34.47,0,0,1-.15-4.88"/><path class="cls-6" d="M688.9,784.94a42.29,42.29,0,0,0,.27,5.51l-5.29.15a41.56,41.56,0,0,0-.63-5.51"/><path class="cls-6" d="M691.91,790.34a85,85,0,0,0,7,7.73c8.5,8.72,17,17.44,25.92,25.76l.23.35c.81.79.49,1.38,0,2.13a4.27,4.27,0,0,1-2.24,1.44,91.27,91.27,0,0,1-26.23,5.6,1.44,1.44,0,0,1-1.1-.68c-6.85-8.14-7.76-19.78-13.39-28.82l0-.55a35.29,35.29,0,0,0,.08-9.24,16.35,16.35,0,0,1,0-4.25l.49-.56c-.51.07.09.11.31.57a2,2,0,0,0,1.2.89,11.58,11.58,0,0,0,5.82.07,2.52,2.52,0,0,0,1.1-.37.94.94,0,0,0,.4-1,1.08,1.08,0,0,0-.49-.52,2.1,2.1,0,0,0-1.49-.23"/><path class="cls-5" d="M645.27,517.36q21.26,131.89,35.34,265l.44,1.22a19.09,19.09,0,0,0,12.54,1.67l0-.11c11.59-89.22,3.92-172.89,11.55-262.63l-.49-8.7c-2.94-7.05-5.42-12.62-5.74-20.38-1,2.84-2.16,5.67-3.3,8.47"/><path class="cls-6" d="M610.62,790.21a93.29,93.29,0,0,1-6.26,8.39c-7.63,9.46-15.27,18.93-23.26,28l-.21.38c-.73.86-.44,1.5,0,2.32a3.83,3.83,0,0,0,2,1.55,69.73,69.73,0,0,0,23.54,6.09c.4,0,.73-.37,1-.74,6.15-8.84,7-21.48,12-31.29l0-.59a46.8,46.8,0,0,1-.07-10,20.91,20.91,0,0,0,0-4.61L619,789c.45.07-.08.12-.28.62a1.85,1.85,0,0,1-1.08,1,8.61,8.61,0,0,1-5.22.08,2.1,2.1,0,0,1-1-.41,1.12,1.12,0,0,1-.36-1.1,1.13,1.13,0,0,1,.44-.56,1.66,1.66,0,0,1,1.34-.26"/></g><g id="Layer_11" data-name="Layer 11"><path class="cls-9" d="M635.8,223.67c1.41,5,2.53,10.28,1.38,15.34s-5.12,9.82-10.29,10.33a27.88,27.88,0,0,1-4.33-20.72,17,17,0,0,1,1.49-4.59c1.57-3,4.18-5.38,6.74-7.63,3.22-2.83,5.68-3.84,8.81-5.61a48.39,48.39,0,0,1,5.4-2.12c1.74-.7,5.71-1.06,7.59-1.15,9.6-.45,17.11,3.25,24.68,9.17s12.55,15.36,12.19,25a48.55,48.55,0,0,1-1.82,10.4,5.45,5.45,0,0,1-1,2.32,1.89,1.89,0,0,1-2.3.5,18.41,18.41,0,0,0-9-13.87c-3.38-1.95-7.28-2.76-11.1-3.53l-13.75-2.79a34,34,0,0,1-7.57-2.17,11.25,11.25,0,0,1-5.63-5.29Z"/><path class="cls-9" d="M637.2,279.55a65.64,65.64,0,0,1,11.06-6.13,21.92,21.92,0,0,1,12.39-1.48,27,27,0,0,1,8.74,3.93c1.88,1.19,3.78,2.54,4.77,4.53a3.22,3.22,0,0,1-2.88.67,12.08,12.08,0,0,1-2.86-1.13,28.18,28.18,0,0,0-24.28.28,12.62,12.62,0,0,1-4,1.59,3.32,3.32,0,0,1-3.58-1.85Z"/><path class="cls-9" d="M652.38,288.14c.8,1-.13,3.34-1.16,4.09a5.88,5.88,0,0,1-3.65.83c-4.51-.11-9.2-1.79-11.91-5.4-1.94-2.6-2.67-5.89-3.06-9.11a53.66,53.66,0,0,1-.38-8.5,5.88,5.88,0,0,0-1.57-3.72c-.86-1-1.9-1-3.22-1.16h0a19.25,19.25,0,0,0,.56,5.74c.76,4.3.77,8.68,1.32,13s1.72,8.72,4.43,12.13c1.59,2,3.21,4.43,5.27,5.95a49.44,49.44,0,0,0,8.49,5.23c3,1.37,6.33,2.55,9.59,2.18a29.47,29.47,0,0,0,5.85-1.32c3.46-1.15,7-3.64,10-5.78,5.2-3.79,8-10.13,9.24-16.43s1.37-12.79,2.44-19.13l-.42-.72c-1.49.7-1.93,2.57-2.2,4.19l-1,6.17a23.92,23.92,0,0,1-1.87,6.95,15.34,15.34,0,0,1-2.47,3.51,15,15,0,0,1-8.5,5,9.14,9.14,0,0,1-8.9-3.42l-.61-.36c-2.08-.07-4.17-.05-6.25.06"/><path class="cls-6" d="M628.5,250.43a3.67,3.67,0,0,0-2,.07,1.8,1.8,0,0,0-1,.64,2.49,2.49,0,0,0-.29,1.3l-.23,7.05a8.36,8.36,0,0,0,.12,2.18c.15.68,2.22,3,3.35,3.23"/><path class="cls-6" d="M684.21,255.75c.65.18,1.48-.25,2,.22a1.24,1.24,0,0,1,.26.46c.7,2,0,4.19.25,6.28a7.94,7.94,0,0,1,.13,1.37,1.6,1.6,0,0,1-.52,1.23,2,2,0,0,1-.62.32,11.83,11.83,0,0,1-2.22.92"/><path class="cls-6" d="M628.14,255.73a1.05,1.05,0,0,0-1,.61,2.59,2.59,0,0,0-.22,1.26,7.19,7.19,0,0,0,1.5,4.51"/><path class="cls-6" d="M683.47,258.92a5.9,5.9,0,0,1,0,5.32"/><path d="M653.39,310.09l.47,4a.75.75,0,0,0,1.5,0l-.47-4a.75.75,0,0,0-1.5,0Z"/><path d="M658.06,310.36l-.34,5.1a.75.75,0,1,0,1.5,0l.34-5.1a.75.75,0,0,0-1.5,0Z"/><path class="cls-6" d="M588.65,524.16a123.57,123.57,0,0,1,.18,23.16.86.86,0,0,1-.12.44.81.81,0,0,1-.61.2c-2.23.12-3.18.31-5.41.43a3.44,3.44,0,0,1-3.11-.78,4.45,4.45,0,0,1-.79-1.9c-2.32-10-2.51-20.19-2.54-30.4a7.08,7.08,0,0,1,.16-2.73c.36-.65,2-.25,2.75-.35v-.15q1.23-51.71,2.45-103.43c.17-7.3-.34-14.49-.34-22.45h.37a8.73,8.73,0,0,0,1.76,1.57,32.53,32.53,0,0,0,19.83,4.13l-.29.66q-6.77,60.17-15.84,120h.17c.8.28,2.25.89,3.05,1.18a25.48,25.48,0,0,0,.35,7.08,3.91,3.91,0,0,1,.09,1.52,2.15,2.15,0,0,1-1.7,1.8c-.85.07-1.87-.08-2.78,0"/><path class="cls-6" d="M714.86,517.35a124.43,124.43,0,0,0-.18,23.16.83.83,0,0,0,.12.44.79.79,0,0,0,.6.21c2.22.12,3.16.31,5.37.42a3.38,3.38,0,0,0,3.09-.78,4.56,4.56,0,0,0,.78-1.9c2.3-9.95,2.49-20.18,2.51-30.4a6.91,6.91,0,0,0-.15-2.73c-.36-.64-1.93-.24-2.73-.35v-.14q-1.21-51.72-2.42-103.44c-.18-7.3.33-14.48.33-22.44h-.37a9.17,9.17,0,0,1-1.74,1.56,32.06,32.06,0,0,1-19.67,4.13l.29.67q6.7,60.15,15.7,120h-.16c-.8.29-2.23.9-3,1.18a26,26,0,0,1-.35,7.09,3.86,3.86,0,0,0-.09,1.51,2.14,2.14,0,0,0,1.68,1.8c.85.07,1.86-.07,2.76,0"/><path class="cls-7" d="M661,315.11c16.56,4,35.33,10.52,51.71,15.16,6.9,14.42,10.52,28.49,12.7,44.2a3.94,3.94,0,0,1-.1,2.13,4,4,0,0,1-1.65,1.58c-6.27,3.95-14,8.93-21.5,8.06l-2.26-29.54c.93,33.22,2.24,66.43,3.55,99.64.3,7.59,2.84,53.61,3.44,61.17-4,4-9.94,5.3-15.52,6.36-22.41,4.27-45.54,7.66-67.93,3.3a100.19,100.19,0,0,1-10.14-2.54c-6.9-2.11-13.78-5.12-18.66-10.42l-.68-.62c.48-7.57,4.3-47.88,5.08-55.43,3.43-33.06,6.85-66.12,10.65-99.14L606,391.59c-7.08.86-17.47-1.09-23.41-5a3.83,3.83,0,0,1-1.56-1.58,4.14,4.14,0,0,1-.11-2.13,169.87,169.87,0,0,1,13.39-46.67c18.92-8.09,38.8-15.3,58.39-21.6l1.81-.06c-.34-.47-1.19,0-1.15.62s.59,1,1.11,1.26a6.71,6.71,0,0,0,4,.6,1.83,1.83,0,0,0,1.5-.92c.23-.56-.4-1.35-.92-1"/></g></g><g id="Layer_20" data-name="Layer 20"><g id="Layer_2" data-name="Layer 2"><g id="Layer_9" data-name="Layer 9"><path class="cls-7" d="M450.5,489.19a21.22,21.22,0,0,0,7.75,5c18.43,7.94,39.32,7.5,59.3,5.56,19.43-1.9,39.31-5.27,56-15.46l.43-.27a18.88,18.88,0,0,0-.26-10.14l-.28-.54a21.79,21.79,0,0,1-8.19,4.23c-29.85,10-62.14,10.74-93.44,7.36-7.4-.8-15.11-1.94-21.18-6.26l-.36.54a18.77,18.77,0,0,0-.17,10.53"/><path class="cls-6" d="M461,824.28a19,19,0,0,0,.29,3.45l-.69.36c-1.44.22-2.88.38-4.32.5h-1a28.23,28.23,0,0,1-.37-3.17"/><path class="cls-6" d="M564.53,826c.11,1.39.46,3.51.59,4.85v.85c-1.69,1.41-4.48,1.17-6.37.07v-.91l-.19-3.79"/><path class="cls-6" d="M634,870.91a417.73,417.73,0,0,1-74-3.51l-.09-1.1a322.51,322.51,0,0,1-1.77-34l.14-.42c-.42,0,0,.45.21.83a1.73,1.73,0,0,0,1.07.69,7.6,7.6,0,0,0,5.95-.73,1.53,1.53,0,0,0,.81-.88c.1-.39-.26-.89-.65-.77l1.38.87a27.16,27.16,0,0,0,6.28,4.39c18.21,10.11,38.19,16.5,57.9,23.2a69.52,69.52,0,0,1,12.93,5.43l-.62.86c-2.43,1.45-7.35,3.71-9.75,5.22"/><path class="cls-6" d="M480.3,868.27a50.46,50.46,0,0,1,0,9.36c-12,1.77-26.83,1.91-38.88,1.63a48.91,48.91,0,0,1-.24-9.6c4.17-13.8,9.6-26.92,13.77-40.79l.23.18c-.14.4-.26.61.11.79a2.48,2.48,0,0,0,1.17.2,6.33,6.33,0,0,0,4.52-1.38c.09-.09.26-.47.19-.35-.19.35,0,.36,0,0l-.25.12c6.91,12.87,13.53,26.47,19.47,40.13"/><path class="cls-6" d="M523.26,498.37a72.4,72.4,0,0,0-.19-12.23l-22.91,1a52.2,52.2,0,0,0,0,13"/><path class="cls-6" d="M509.61,493.78a25.7,25.7,0,0,0,5.68-.31"/><path class="cls-5" d="M511.38,575.35c8.81,70.32,22.38,136.71,36.28,206.19l8.81,43.89.32.54a10.23,10.23,0,0,0,7.69,0l.89-.4q10-100.23,14.8-200.89c2.24-47.1,3.57-94.79-6.69-140.88l-1.36,1.26c-15.12,8.79-32.77,12-50.19,13.85-12.32,1.31-24.77,2-37.08.72s-24.58-4.54-35.27-10.76l.55,2c-4.21,34.61-8.41,69.3-8.63,104.16-.09,14.41.49,28.79,1.17,43.18,2.8,64,4.68,122.6,9.18,186.47l.48.42c3.13,1.17,9.78-.6,12.78-2Q486.35,683.39,518,545.52l2.48-1.17-5.85.59"/><path class="cls-17" d="M576.31,328.48q-14.17-6.23-28.79-11.29c-10-3.51-20.08-6.48-30.19-9.51l-10.62-1.44c-16.75,7-48.92,14.45-66.2,21.85-16.63,37.36-31.87,84.19-39.77,124.45C424,467.33,434,474.66,444.43,480.41c.7-1,1.44-2,2.19-3a2,2,0,0,1,.85-1.64c2.84-2.19,4.6-5.53,7-8.09,1.71-1.75,3.31-3.6,4.95-5.42-6.18-6.88-12.1-13.83-16.72-19-2.88-3.25,4.21-27.95,4.8-42.92l33.64,81.78h.1a1.63,1.63,0,0,1,1.68,1.59h0c24,6.83,22.39,3.26,49.16.76a170.26,170.26,0,0,0,17-2.27,107.54,107.54,0,0,0,24-7.71v-.92c.85-8.5,0-45.74,0-54.3l-.09-.15c16.66,26.68,34,52.05,50.33,80.27l.64.53a10,10,0,0,0,3.24-.66,4.84,4.84,0,0,0,2.47-2.14L630,496A998,998,0,0,0,576.31,328.48Z"/><path class="cls-14" d="M485.06,239.35a10.44,10.44,0,0,0-2.34,4,15.3,15.3,0,0,0-.71,5.33c0,3.38,1.27,3.87,1.44,6.93.22,4.21.8,6.45,1,10.66-2.47-8.45-14.59-18.36-13.45-27.08s5-17.3,11.7-23a40.86,40.86,0,0,1,6.06-4.23A56.41,56.41,0,0,1,511,204.19a39.63,39.63,0,0,1,23,4.17c4.1,2.22,8,5.85,8.19,10.53l.55.3A25.89,25.89,0,0,1,549.23,231c1.08,4.44-3.51,10.84-3.63,15.4-.14,5-2.48,10.54-3.31,15.52-.33,1.92-.16,2.51-1.44,3.26,0,.22-1.72.43-2.08-.59a18,18,0,0,1-.65-6.73c0-1.17,1.5-8.34.45-8.95-3.7-2.11-1.79-7.3-.22-13.36l-.48.44a57.73,57.73,0,0,1-27.11,11.22,2.7,2.7,0,0,1-1.95-.24,21.7,21.7,0,0,0,5-8.56h-.44a107.33,107.33,0,0,1-31.12,9.73,76.16,76.16,0,0,1,2.84-8.74"/><path class="cls-18" d="M552.78,234l-82.89-.09a37.71,37.71,0,0,1,6.51-29.69,40.7,40.7,0,0,1,28.67-16.33l-.25.26c10.53-.57,21.82-1,30.74,4.2a38.25,38.25,0,0,1,10.88,10.29,32,32,0,0,1,4.85,8.19,29.36,29.36,0,0,1,1.54,6.92A72.49,72.49,0,0,1,553,234.6"/><path class="cls-6" d="M539,267.88c.55,3.83-.51,7.34-2.08,11.26a50.74,50.74,0,0,1-5.25,9.66,43,43,0,0,1-8,9.26c-4.81,4.07-12.15,4-17.81,1.26s-10-7.7-13.58-12.87c-3.11-4.44-5.92-9.26-6.95-14.59a44.35,44.35,0,0,1-.6-4.61l-1.91-20.15c-.31-3.27-.62-6.64.34-9.78a35.38,35.38,0,0,0,11.54,1.75,298.17,298.17,0,0,0,39.65-1.17,1.61,1.61,0,0,1,2.13.79,1.55,1.55,0,0,1,.14.67L538.46,250c1.17,6.81,2.72,11.32.49,17.87Z"/><path d="M500,231.45c-.24-6.18.24-12.38,0-18.56l-.88.88,22.32-.12h2.75c1.17,0,1.69.14,1.77,1.43.13,1.79.14,3.59.15,5.38q0,5.52-.43,11c-.09,1.17,1.66,1.17,1.76,0,.33-4.11.48-8.2.4-12.36,0-1.74.24-3.9-.33-5.55-.47-1.37-1.74-1.65-3-1.67-8.44-.16-16.9.09-25.34.14a.87.87,0,0,0-.87.87c.23,6.18-.25,12.39,0,18.57a.88.88,0,0,0,1.75,0Z"/><path class="cls-6" d="M508.85,300.79l.72,8.48"/><path class="cls-6" d="M515.09,301.3c-.1,1.78-.54,5.66-.65,7.44"/><path d="M515.38,305.92h-.08l.12.07a2.62,2.62,0,0,1,.22.25s.13.16.06.09c.12.12,0,0,0-.07a4.27,4.27,0,0,1-.3.51,3.25,3.25,0,0,1-2.4,1.17,5.62,5.62,0,0,1-3,0,4.35,4.35,0,0,1-1.17-.78,1.38,1.38,0,0,1-.43-.5v-.19l-.12.07a.88.88,0,0,0,0-1.76,1.72,1.72,0,0,0-1.6,1.35,2.36,2.36,0,0,0,.69,2,5.27,5.27,0,0,0,3.64,1.7,13.84,13.84,0,0,0,1.93-.17,8.62,8.62,0,0,0,2.07-.46,3.75,3.75,0,0,0,1.52-1.05,3.26,3.26,0,0,0,.92-1.73c0-1.17-1.34-2.6-2.54-2.19a.87.87,0,1,0,.46,1.68Z"/><path class="cls-19" d="M523,216.69c-4.77.13-9.54,0-14.32-.09l-3.24-.08h-.59a125.3,125.3,0,0,0-.4-27.17,8.45,8.45,0,0,0-1.17-3.82h-.33c6.81-.25,12.5-.25,19.31,0l.77.08c1.79,3.44,1.86,7.4,1.89,11.21,0,6.71.1,13.5-1.42,20.05"/><path class="cls-20" d="M499,189.32a23,23,0,0,1,4.68-.35.38.38,0,0,0,.23-.08c.09-.1-.07-.35-.11-.47-.24-.83-.38-1.53-.68-2.34l-.31-.74a7.52,7.52,0,0,0-3.9,3.85"/><path class="cls-18" d="M552.23,233.79c-5,.11-12.57.7-17.56.77l-6.89.1c-16.19.23-40.17-.26-56.35-.58,29.71,16.39,53.53,14.56,81.35.09"/><path class="cls-8" d="M520,369.24a12.58,12.58,0,0,1-17,4.83c-4.12-2.26-6.61-6.58-8.88-10.7l-.07-.06a104.89,104.89,0,0,1-.38,14.83q-2.24,29.67-5.18,59.29v-.23a14.76,14.76,0,0,0,3.07,7.63,10,10,0,0,0,7.18,3.72,7.48,7.48,0,0,0,6.84-3.93l.27.21c4.91-15.22,7.47-31.06,10-46.82l1.52-9.42c1.07-6.68,2.15-13.37,3-20.1"/><path class="cls-6" d="M501,373.45a13.42,13.42,0,0,1-5.43-6.72,5.94,5.94,0,0,1-.42-2,6.37,6.37,0,0,1,.6-2.34,10.72,10.72,0,0,1,2.8-4,11.77,11.77,0,0,1,6-2.34c4.9-.68,10.24.56,13.76,4.05,1.73,1.71,3,4.18,2.34,6.53-1.87,4.25-5,6.19-9.23,8.08a9.67,9.67,0,0,1-3.41,1,11.58,11.58,0,0,1-3.51-.48,13,13,0,0,1-5.53-3.28"/><path class="cls-8" d="M554.49,423.39c-5.53,2.41-10.76,2-16.39-.13a23.4,23.4,0,0,1-12.79-12.12c-3.51-7.91-2.45-17-1.17-25.6v-.17c-5,7.65-11,14.55-17,21.41Q471,448,433.74,488.36l.31-.31a27.2,27.2,0,0,0-4,14.63,18.26,18.26,0,0,0,6.45,13.43A13.78,13.78,0,0,0,451,517.93l.16.6c24.1-16.95,45.47-37.45,66.71-57.86l12.69-12.18c9-8.65,17.17-16.89,25.84-25.88"/><path class="cls-6" d="M524.27,405.62c-1.92-5.05-1.43-10.63.15-15.8a10.87,10.87,0,0,1,1.65-3.51,11.25,11.25,0,0,1,3.51-2.77,19.68,19.68,0,0,1,8.54-2.79,21.36,21.36,0,0,1,11.47,3.14c8,4.45,14.46,12.18,15.79,21.22.64,4.43-.2,9.51-3.73,12.28-7.47,4.17-14.22,3.57-22.55,1.65A18.4,18.4,0,0,1,533,416.7a22.57,22.57,0,0,1-4.69-4.62c-2.07-2.53-4.21-5.31-4.42-8.58"/><path class="cls-6" d="M561.59,417.43a44.23,44.23,0,0,0-5.92,5.85c-.34.39.44-.23,0,0s.52-.16,0,0a29.28,29.28,0,0,1-11.24,1.17,18.3,18.3,0,0,1-7.65-2.34c-5.13-2.41-10.64-8.46-12.21-14.14,1.82,3.13,4.54,6.56,7.73,8.28,1.45.77,3.73,2.42,5.32,2.79,7.89,1.83,13.73,2.16,21.85.18Z"/><path d="M426.1,403.89a32.52,32.52,0,0,1,12.6-28.49,31.14,31.14,0,0,1,30.1-4,30.37,30.37,0,0,1,13.53,10.82c.65.92,2.17,0,1.53-.89a32.43,32.43,0,0,0-28.09-13.9,33.43,33.43,0,0,0-27.6,17.72,34.78,34.78,0,0,0-3.85,18.73c.08,1.17,1.84,1.17,1.76,0Z"/><path d="M482.58,382.12a112.47,112.47,0,0,1,.46,24.74c-.11,1.17,1.65,1.17,1.75,0a111.85,111.85,0,0,0-.44-24.74c-.14-1.17-1.9-1.17-1.76,0Z"/><path d="M424.36,404.42a29.77,29.77,0,0,0,20.55,19.43,34.37,34.37,0,0,0,29-5.85,42.09,42.09,0,0,0,11-12.17.88.88,0,0,0-.32-1.2.87.87,0,0,0-1.2.31,37.6,37.6,0,0,1-20.8,16.84c-9.36,2.86-20.21,1.33-27.84-5A28.29,28.29,0,0,1,426.05,404C425.7,402.88,424,403.34,424.36,404.42Z"/><path class="cls-6" d="M431.58,376.09l-.28-10.33c9.49-3.1,19.67-3.13,29.64-3A56.22,56.22,0,0,1,474.07,364a19.49,19.49,0,0,1,11,6.83,20.94,20.94,0,0,1,2.34,4.41,35.33,35.33,0,0,1,.56,25.44,33.73,33.73,0,0,1-17.15,18.73,46.71,46.71,0,0,1-17.67,3.81A40.28,40.28,0,0,1,440,422a20.2,20.2,0,0,1-10.89-7.29,28.35,28.35,0,0,1-4.42-8.76l-1-5.34a34.63,34.63,0,0,1,38.4-36.08,30.57,30.57,0,0,1,7.88,1.92,41.62,41.62,0,0,1,5.85,2.95c4.84,2.85,9.62,6.41,11.91,11.54,3.14,7,.88,15.33-2.55,22.23-4.36,8.84-11.27,17.22-20.81,19.71a38.24,38.24,0,0,1-8.19,1c-7.26.27-14.87-.27-21.07-4A23.42,23.42,0,0,1,424,399.45"/><path class="cls-8" d="M426.2,410.1c2.77,4.25,10.69,11.64,15.58,12.88a38.21,38.21,0,0,0,15.1.45,45.11,45.11,0,0,0,18.72-6.6,27.85,27.85,0,0,0,11.79-15.62l1.17-5.27,1.74,28.35a6.28,6.28,0,0,1-.15,2.4,6.43,6.43,0,0,1-1.17,1.92c-7,9-13.73,18.35-22.23,26-2.35,2.14-4.29,4.88-6.73,6.95h0a150,150,0,0,1-18.58-17.76,49.63,49.63,0,0,1-6.43-8.68c-5.38-9.76-8-19.66-10.54-30.28"/><path class="cls-17" d="M476.75,480a165.91,165.91,0,0,1-18.37-17.19c-.56.69-1.17,1.38-1.71,2.06a1.67,1.67,0,0,1-.95.48l-2.56,2.72c-2.27,2.42-4,5.23-6.45,7.46a1.92,1.92,0,0,1-.49,1l-.48.62c-.65.84-1.29,1.7-1.9,2.57,8.39,4.35,17.83,8.08,35,14.11l2.13-1.17c.37-.67,1.1-.17,4.77-6.14l-1-.76c-1.74-.59-5.86-4-7.94-5.73"/><path class="cls-21" d="M442.72,477.76a4,4,0,0,0,5.46,1.72l.16-.08a1.78,1.78,0,0,0,0-3,10.92,10.92,0,0,1-.92-.73c-.17-.15-.77-.91-1-.93.33,0-.54,1.17,0,1.17a2.65,2.65,0,0,0,.53-.27c.39-.19.8-.35,1.17-.51a26.05,26.05,0,0,1,5.64-1.42l-1.71-2.93a4.57,4.57,0,0,1-3.58,1.77l1.52,2.63a19.07,19.07,0,0,1,4.29-5.41,9.22,9.22,0,0,0,2.35-2.55,6,6,0,0,0,.57-1.65c.07-.27.14-.55.2-.82s-.06,0,.15-.24l-2.75-.35,1.38,2.34a1.76,1.76,0,0,0,3-1.77h0l-1.39-2.34a1.77,1.77,0,0,0-2.44-.6,1.31,1.31,0,0,0-.32.25c-1,.92-1,2.06-1.41,3.23a6.18,6.18,0,0,1-2,2.19,21.24,21.24,0,0,0-4.68,6,1.77,1.77,0,0,0,1.51,2.64,8,8,0,0,0,6.08-2.8,1.81,1.81,0,0,0,.26-2.13,1.83,1.83,0,0,0-2-.8,24.65,24.65,0,0,0-8,2.44,2.75,2.75,0,0,0-1.47,3.6,2.39,2.39,0,0,0,.13.28,10.75,10.75,0,0,0,3.09,2.84v-3c-.14.08-.24,0-.14.08h-.08a1.11,1.11,0,0,1-.26-.07s-.19-.14-.09,0c-.14-.15-.18-.16-.08,0a2.59,2.59,0,0,1-.17-.33,1.76,1.76,0,0,0-2.37-.78h0a1.79,1.79,0,0,0-.64,2.41Z"/><path class="cls-6" d="M481.92,486.18a16.15,16.15,0,0,1,2.65-.53v-.58c-.9-2.59-1.76-5.19-2.55-7.81a1.24,1.24,0,0,1,0-.89,1.28,1.28,0,0,1,.5-.48,28,28,0,0,1,9.81-3.78l.68.34a17.45,17.45,0,0,1,1.06,4l-.58.32c-.25,0,.64-.32-.25,0h.25a91.24,91.24,0,0,0,10.75-3.27,5.28,5.28,0,0,0,2.1-1.27,1.8,1.8,0,0,0,.24-2.27,1.54,1.54,0,0,1,2.18.12h0a4.61,4.61,0,0,1,.93,2.26l3.1,14.81a7.32,7.32,0,0,1,.16,3.51c-.34,1.17-1,2.26-2.08,2.08l-.45.13c-7.52,1.62-13.88,3.23-21.32,4.85a.67.67,0,0,1-.78-.46c-.75-2.55-1.4-5.14-1.92-7.74l-.37-.28a56.36,56.36,0,0,0-5.85.26"/><path class="cls-6" d="M625.63,500.63a2.88,2.88,0,0,1,.74,1.77l-.19.66c-2.22,1.45-5,1.68-7.33,3a1.61,1.61,0,0,0-.8.86,1.54,1.54,0,0,0,0,.85,39.45,39.45,0,0,0,3.25,8.59.71.71,0,0,0,.35.39.85.85,0,0,0,.52-.08l2.48-1.09a1.24,1.24,0,0,0,.61-.45,1.23,1.23,0,0,0,0-.71l-.46-3.13.12-.11c.57-.33,1.17.37,1.46,1,2,4.39,2.57,9.36,5,13.53a1.34,1.34,0,0,0,.33.42,1.24,1.24,0,0,0,.6.15,23.91,23.91,0,0,0,12.88-2.74l-3.77-19.89a8.76,8.76,0,0,0-.77-2.6,2.94,2.94,0,0,0-2.1-1.58,4.31,4.31,0,0,0-1.34.1l-5.22,1-1.07-.27-.85-2.21"/></g></g></g></svg>