<?xml version="1.0" encoding="utf-8"?>
<!-- Generator: Adobe Illustrator 18.0.0, SVG Export Plug-In . SVG Version: 6.00 Build 0)  -->
<!DOCTYPE svg PUBLIC "-//W3C//DTD SVG 1.1//EN" "http://www.w3.org/Graphics/SVG/1.1/DTD/svg11.dtd">
<svg version="1.1" id="Layer_1" xmlns="http://www.w3.org/2000/svg" xmlns:xlink="http://www.w3.org/1999/xlink" x="0px" y="0px"
	 viewBox="0 0 36 36" enable-background="new 0 0 36 36" xml:space="preserve">
<g id="XMLID_1481_">
	<g id="XMLID_1497_">
		<g>
			<ellipse fill="#88664D" cx="18" cy="15.7" rx="12.7" ry="10.7"/>
		</g>
	</g>
	<g id="XMLID_1496_">
		<g>
			<path fill="#FFDC96" d="M26.9,24.1c0,2.9-4,5.3-8.9,5.3c-4.9,0-8.9-2.4-8.9-5.3c0-0.2,0-0.5,0.1-0.7c0.2-1.1,1-2.1,2.1-2.8
				c2.6-1.7,3.7-5,3.1-8c-0.5-2.4-0.8-4.7,0-7.1C15.5,5.1,16.7,5,18,5c1.3,0,2.5,0.2,3.6,0.4c0.7,2.4,0.5,4.7,0,7.1
				c-0.6,3,0.5,6.3,3.1,8c1.1,0.8,1.9,1.8,2.1,2.8C26.9,23.6,26.9,23.8,26.9,24.1z"/>
		</g>
	</g>
	<g id="XMLID_1487_">
		<g id="XMLID_1492_">
			<g id="XMLID_1495_">
				<g>
					
						<ellipse transform="matrix(0.9246 -0.3811 0.3811 0.9246 -3.6985 10.2994)" fill="#FFFFFF" cx="24.2" cy="14.5" rx="1.8" ry="2.5"/>
				</g>
			</g>
			<g id="XMLID_1494_">
				<g>
					<circle fill="#2F3133" cx="24.2" cy="14.5" r="1.3"/>
				</g>
			</g>
			<g id="XMLID_1493_">
				<g>
					<circle fill="#FFFFFF" cx="23" cy="14" r="0.6"/>
				</g>
			</g>
		</g>
		<g id="XMLID_1488_">
			<g id="XMLID_1491_">
				<g>
					
						<ellipse transform="matrix(-0.9246 -0.3811 0.3811 -0.9246 17.2654 32.3979)" fill="#FFFFFF" cx="11.8" cy="14.5" rx="1.8" ry="2.5"/>
				</g>
			</g>
			<g id="XMLID_1490_">
				<g>
					<circle fill="#2F3133" cx="11.8" cy="14.5" r="1.3"/>
				</g>
			</g>
			<g id="XMLID_1489_">
				<g>
					<circle fill="#FFFFFF" cx="10.9" cy="14" r="0.6"/>
				</g>
			</g>
		</g>
	</g>
	<g id="XMLID_1484_">
		<g id="XMLID_1486_">
			<g>
				<path fill="#6B513C" d="M24.1,5.9c0,0,6.9-2.3,9.3,4.1c0.3,0.8,0.5,1.7,0.5,2.5c0.2,2,0.2,5.6-2.2,6.3c0,0-2.1,0.5-2.1-2.5
					c0-1.2-0.1-2.4-0.4-3.5c-0.6-2.1-2.2-4.5-5.2-6.3C24,6.4,23.6,6.1,24.1,5.9z"/>
			</g>
		</g>
		<g id="XMLID_1485_">
			<g>
				<path fill="#6B513C" d="M11.9,5.9c0,0-6.9-2.3-9.3,4.1c-0.3,0.8-0.5,1.7-0.5,2.5c-0.2,2-0.2,5.6,2.2,6.3c0,0,2.1,0.5,2.1-2.5
					c0-1.2,0.1-2.4,0.4-3.5c0.6-2.1,2.2-4.5,5.2-6.3C12,6.4,12.4,6.1,11.9,5.9z"/>
			</g>
		</g>
	</g>
	<g id="XMLID_1483_">
		<g>
			<path fill="#E14B4B" d="M20.8,26.2c-0.2,0.1-0.3,0.3-0.5,0.4c-0.2,0.1-0.4,0.2-0.7,0.3c-0.8,0.2-1.4,0.4-2.4,0.2
				c-0.3,0-0.5-0.1-0.8-0.2c-0.2-0.1-0.5-0.2-0.7-0.3c-0.2-0.1-0.4-0.2-0.5-0.4c0,0-0.1,0-0.1-0.1v2c0,1.6,1.3,2.9,2.9,2.9h0
				c1.6,0,2.9-1.3,2.9-2.9L20.8,26.2C20.8,26.1,20.8,26.2,20.8,26.2z"/>
		</g>
	</g>
	<g id="XMLID_1482_">
		<g>
			<path fill="#2F3133" d="M20.2,26c-0.2,0.1-0.5,0.1-0.7,0.2c-0.3,0.1-0.7,0.1-1.1,0.1v-0.9c0.3-0.1,0.7-0.3,0.9-0.7l1.6-2.5
				c0.7-1.1-0.1-2.5-1.3-2.5h-3.3c-1.3,0-2,1.4-1.3,2.5l1.6,2.5c0.2,0.3,0.5,0.6,0.9,0.7v0.9c-0.1,0-0.2,0-0.3,0
				c-0.6-0.1-1.4-0.3-2-0.5c-0.9-0.4-0.6-0.3-1.2-0.6c0.3,0.5,0.7,0.9,1,1.1c0.6,0.5,1.6,0.9,2.2,1c1.2,0.2,2.7-0.1,3.4-0.6
				c0.5-0.3,1.1-0.8,1.6-1.5C21.4,25.5,21.2,25.7,20.2,26z"/>
		</g>
	</g>
</g>
</svg>
