<?xml version="1.0" encoding="utf-8"?>
<!-- Generator: Adobe Illustrator 18.0.0, SVG Export Plug-In . SVG Version: 6.00 Build 0)  -->
<!DOCTYPE svg PUBLIC "-//W3C//DTD SVG 1.1//EN" "http://www.w3.org/Graphics/SVG/1.1/DTD/svg11.dtd">
<svg version="1.1" id="Layer_1" xmlns="http://www.w3.org/2000/svg" xmlns:xlink="http://www.w3.org/1999/xlink" x="0px" y="0px"
	 viewBox="0 0 36 36" enable-background="new 0 0 36 36" xml:space="preserve">
<g>
	<g id="XMLID_440_">
		<g id="XMLID_720_">
			<g id="XMLID_726_">
				<g id="XMLID_728_">
					<g>
						<circle fill="#F3C432" cx="8.2" cy="8.7" r="6.1"/>
					</g>
				</g>
				<g id="XMLID_727_">
					<g>
						<circle fill="#3F4347" cx="8.2" cy="8.7" r="4.5"/>
					</g>
				</g>
			</g>
			<g id="XMLID_722_">
				<g id="XMLID_725_">
					<g>
						<circle fill="#F3C432" cx="27.8" cy="8.7" r="6.1"/>
					</g>
				</g>
				<g id="XMLID_723_">
					<g>
						<circle fill="#3F4347" cx="27.8" cy="8.7" r="4.5"/>
					</g>
				</g>
			</g>
		</g>
		<g id="XMLID_719_">
			<g>
				<ellipse fill="#F3C432" cx="18" cy="19.8" rx="15.4" ry="13.6"/>
			</g>
		</g>
		<g id="XMLID_716_">
			<g>
				<path fill="#F3C432" d="M33.4,19.8c0,0.2,0,0.4,0,0.6c0,0.6-0.1,1.3-0.2,1.9c-0.1,0.6-0.3,1.1-0.5,1.7c-0.2,0.6-0.5,1.3-0.9,1.9
					c-2.5,4.5-7.7,7.6-13.8,7.6S6.7,30.3,4.2,25.8c-0.3-0.6-0.6-1.2-0.9-1.9c-0.2-0.5-0.4-1.1-0.5-1.7c-0.1-0.6-0.2-1.2-0.2-1.9
					c0-0.2,0-0.4,0-0.6c0-0.4,0-0.8,0.1-1.2c0.1-0.7,0.2-1.4,0.4-2C4.7,10.6,10.8,6.2,18,6.2s13.3,4.4,14.9,10.3
					c0.2,0.7,0.3,1.3,0.4,2C33.4,19,33.4,19.4,33.4,19.8z"/>
			</g>
		</g>
		<g id="XMLID_706_">
			<g id="XMLID_711_">
				<g id="XMLID_715_">
					<g>
						<circle fill="#FFFFFF" cx="12.9" cy="16.8" r="2.1"/>
					</g>
				</g>
				<g id="XMLID_713_">
					<g>
						<circle fill="#3F4347" cx="12.9" cy="16.8" r="1.3"/>
					</g>
				</g>
				<g id="XMLID_712_">
					<g>
						<circle fill="#FFFFFF" cx="12" cy="15.9" r="0.6"/>
					</g>
				</g>
			</g>
			<g id="XMLID_707_">
				<g id="XMLID_710_">
					<g>
						<circle fill="#FFFFFF" cx="23.1" cy="16.8" r="2.1"/>
					</g>
				</g>
				<g id="XMLID_709_">
					<g>
						<circle fill="#3F4347" cx="23.1" cy="16.8" r="1.3"/>
					</g>
				</g>
				<g id="XMLID_708_">
					<g>
						<circle fill="#FFFFFF" cx="22.2" cy="15.9" r="0.6"/>
					</g>
				</g>
			</g>
		</g>
		<g id="XMLID_695_">
			<g>
				<ellipse fill="#FFFFFF" cx="18" cy="27.5" rx="8.2" ry="4.6"/>
			</g>
		</g>
		<g id="XMLID_596_">
			<g id="XMLID_674_">
				<g>
					<path fill="#3F4347" d="M19.9,21.2h-3.9c-1.5,0-2.4,1.6-1.6,2.9l1.9,3c0.7,1.1,2.4,1.1,3.1,0l1.9-3
						C22.3,22.8,21.4,21.2,19.9,21.2z"/>
				</g>
			</g>
			<g id="XMLID_646_">
				<g id="XMLID_673_">
					<g>
						<rect x="17.5" y="24.6" fill="#3F4347" width="1" height="5.1"/>
					</g>
				</g>
			</g>
			<g id="XMLID_599_">
				<g id="XMLID_607_">
					<g>
						<path fill="#3F4347" d="M18,30.2c-1.7,0-3.3-0.7-4.5-1.9c-0.2-0.2-0.2-0.5,0-0.7c0.2-0.2,0.5-0.2,0.7,0c1,1,2.4,1.6,3.8,1.6
							c1.4,0,2.8-0.6,3.8-1.6c0.2-0.2,0.5-0.2,0.7,0c0.2,0.2,0.2,0.5,0,0.7C21.3,29.6,19.7,30.2,18,30.2z"/>
					</g>
				</g>
			</g>
		</g>
		<g id="XMLID_548_">
			<g id="XMLID_566_">
				<g id="XMLID_594_">
					<g>
						<circle fill="#3F4347" cx="13.4" cy="25" r="0.2"/>
					</g>
				</g>
				<g id="XMLID_575_">
					<g>
						<circle fill="#3F4347" cx="12.6" cy="25.8" r="0.2"/>
					</g>
				</g>
				<g id="XMLID_567_">
					<g>
						<circle fill="#3F4347" cx="13.4" cy="26.5" r="0.2"/>
					</g>
				</g>
			</g>
			<g id="XMLID_550_">
				<g id="XMLID_557_">
					<g>
						<circle fill="#3F4347" cx="22.6" cy="26.5" r="0.2"/>
					</g>
				</g>
				<g id="XMLID_555_">
					<g>
						<circle fill="#3F4347" cx="23.4" cy="25.7" r="0.2"/>
					</g>
				</g>
				<g id="XMLID_553_">
					<g>
						<circle fill="#3F4347" cx="22.6" cy="25" r="0.2"/>
					</g>
				</g>
			</g>
		</g>
		<g id="XMLID_499_">
			<g id="XMLID_532_">
				<g id="XMLID_546_">
					<g>
						<path fill="#3F4347" d="M32.9,16.6c0.2,0.7,0.3,1.3,0.4,2c-1.8-0.1-3.4-1.1-4.3-2.9C30.1,16.5,31.6,16.8,32.9,16.6z"/>
					</g>
				</g>
				<g id="XMLID_539_">
					<g>
						<path fill="#3F4347" d="M29.9,18.9c0.9,0.9,2.2,1.5,3.4,1.5c0,0.6-0.1,1.3-0.2,1.9C31.5,21.7,30.3,20.4,29.9,18.9z"/>
					</g>
				</g>
				<g id="XMLID_533_">
					<g>
						<path fill="#3F4347" d="M32.6,24c-0.2,0.6-0.5,1.3-0.9,1.9c-1.5-0.9-2.5-2.4-2.6-4.3C29.9,22.9,31.2,23.7,32.6,24z"/>
					</g>
				</g>
			</g>
			<g id="XMLID_511_">
				<g id="XMLID_531_">
					<g>
						<path fill="#3F4347" d="M7,15.7c-0.9,1.8-2.5,2.8-4.3,2.9c0.1-0.7,0.2-1.4,0.4-2C4.4,16.8,5.9,16.5,7,15.7z"/>
					</g>
				</g>
				<g id="XMLID_530_">
					<g>
						<path fill="#3F4347" d="M6.1,18.9c-0.5,1.5-1.6,2.8-3.2,3.4c-0.1-0.6-0.2-1.2-0.2-1.9C3.9,20.4,5.2,19.9,6.1,18.9z"/>
					</g>
				</g>
				<g id="XMLID_529_">
					<g>
						<path fill="#3F4347" d="M6.8,21.6c-0.1,1.8-1.1,3.4-2.6,4.3c-0.3-0.6-0.6-1.2-0.9-1.9C4.8,23.7,6.1,22.9,6.8,21.6z"/>
					</g>
				</g>
			</g>
		</g>
	</g>
	<g>
		<g>
			<g>
				<path fill="#3F4347" d="M22.4,11.8c-0.9-0.5-0.5-0.5-2-1c-0.6-0.3-1.7-0.4-2.4-0.4c-0.7,0-1.8,0.2-2.4,0.4c-1,0.4-1.2,0.6-1.9,1
					c0.2-0.3,0.8-1,1.7-1.5c0.9-0.5,1.7-0.6,2.6-0.7c0.8,0.1,1.7,0.1,2.6,0.7C21.3,10.6,21.9,11.2,22.4,11.8z"/>
			</g>
		</g>
		<g>
			<g>
				<path fill="#3F4347" d="M20.9,13.3c-1-0.4-1.4-0.8-2.9-0.8c-1.5,0-1.9,0.4-2.9,0.8c0.9-1.4,1.9-1.5,2.9-1.6
					C19.5,11.8,20.5,12.4,20.9,13.3z"/>
			</g>
		</g>
		<g>
			<g>
				<path fill="#3F4347" d="M23.8,10.4c-1.2-0.9-2.3-1.4-3.5-1.7c-2.2-0.6-4.4-0.3-6.3,0.7c-0.6,0.3-1.1,0.6-1.7,1
					c0.4-0.5,0.9-1,1.5-1.4c1.9-1.4,4.6-1.7,6.7-1C21.9,8.6,23.1,9.5,23.8,10.4z"/>
			</g>
		</g>
	</g>
</g>
</svg>
