<?xml version="1.0" encoding="utf-8"?>
<!-- Generator: Adobe Illustrator 18.0.0, SVG Export Plug-In . SVG Version: 6.00 Build 0)  -->
<!DOCTYPE svg PUBLIC "-//W3C//DTD SVG 1.1//EN" "http://www.w3.org/Graphics/SVG/1.1/DTD/svg11.dtd">
<svg version="1.1" id="Layer_1" xmlns="http://www.w3.org/2000/svg" xmlns:xlink="http://www.w3.org/1999/xlink" x="0px" y="0px"
	 viewBox="0 0 36 36" enable-background="new 0 0 36 36" xml:space="preserve">
<g>
	<g>
		<g>
			<g>
				<g>
					<path fill="#3E4347" d="M34,20.8c0,7.2-7.2,13.1-16,13.1S2,28,2,20.8c0-4.4,2.1-5.5,3.1-9.5C6.7,5,11.9,2.1,18,2.1
						S29.3,5,30.9,11.2C31.9,15.3,34,16.3,34,20.8z"/>
				</g>
			</g>
		</g>
		<g>
			<g>
				<path fill="#DEE4E9" d="M33.8,22.7c-0.3-0.4-0.6-0.7-0.9-1.1c-1.8-1.7-2.9-3.9-3.6-6.2c-0.9-2.9-2.7-4.9-4.8-4.9
					c-3,0-5.5,4.2-5.5,9.3c0,0.2,0,4.2,0,4.4c-0.2,0-0.4,0-0.5,0c-0.5,0-0.9,0-1.4,0.1c0-0.3,0.1-4.3,0.1-4.5c0-5.2-2.5-9.3-5.5-9.3
					c-2.1,0-3.9,2-4.8,4.9c-0.7,2.3-1.9,4.6-3.6,6.2c-0.4,0.3-0.7,0.7-0.9,1.1c0,0,0,0,0,0C3.3,29,9.9,33.9,18,33.9
					C26.1,33.9,32.7,29,33.8,22.7C33.8,22.7,33.8,22.7,33.8,22.7z"/>
			</g>
		</g>
		<g>
			<g>
				<g>
					<path fill="#F29A2E" d="M22.7,25.4L19,32.3c-0.4,0.8-1.6,0.8-2,0l-3.7-6.9c-0.4-0.6,0-1.5,0.7-1.7c2.7-0.7,5.3-0.7,8,0
						C22.7,24,23.1,24.8,22.7,25.4z"/>
				</g>
			</g>
		</g>
	</g>
	<g>
		<g>
			<g>
				<g>
					<g>
						<g>
							<path fill="#FFFFFF" d="M27.8,18.9c0,2.3-1.5,4.1-3.2,4.1s-3.2-1.8-3.2-4.1c0-2.3,1.5-4.1,3.2-4.1S27.8,16.7,27.8,18.9z"/>
						</g>
					</g>
				</g>
				<g>
					<g>
						<g>
							<ellipse fill="#65B1EF" cx="24.5" cy="19.5" rx="2.2" ry="2.8"/>
						</g>
					</g>
				</g>
				<g>
					<g>
						<g>
							<path fill="#3E4347" d="M26,19.8c0,1-0.6,1.8-1.5,1.8c-0.8,0-1.5-0.8-1.5-1.8c0-1,0.6-1.8,1.5-1.8C25.3,18,26,18.8,26,19.8z"
								/>
						</g>
					</g>
				</g>
				<g>
					<g>
						<g>
							<path fill="#FFFFFF" d="M26.2,18.6c0,0.3-0.3,0.6-0.6,0.6S25,18.9,25,18.6c0-0.3,0.3-0.6,0.6-0.6S26.2,18.3,26.2,18.6z"/>
						</g>
					</g>
				</g>
				<g>
					<g>
						<g>
							<path fill="#FFFFFF" d="M24.4,20.2c0,0.2-0.2,0.4-0.4,0.4s-0.4-0.2-0.4-0.4c0-0.2,0.2-0.4,0.4-0.4S24.4,19.9,24.4,20.2z"/>
						</g>
					</g>
				</g>
			</g>
			<g>
				<g>
					<g>
						<path fill="#3E4347" d="M27.9,16.1c-1.9-3.1-4.7-2.3-4.7-2.3C25.8,10.2,27.8,15.8,27.9,16.1z"/>
					</g>
				</g>
			</g>
		</g>
		<g>
			<g>
				<g>
					<g>
						<g>
							<path fill="#FFFFFF" d="M8.2,18.9c0,2.3,1.5,4.1,3.2,4.1s3.2-1.8,3.2-4.1c0-2.3-1.5-4.1-3.2-4.1S8.2,16.7,8.2,18.9z"/>
						</g>
					</g>
				</g>
				<g>
					<g>
						<g>
							<ellipse fill="#65B1EF" cx="11.5" cy="19.5" rx="2.2" ry="2.8"/>
						</g>
					</g>
				</g>
				<g>
					<g>
						<g>
							<path fill="#3E4347" d="M12.9,19.8c0,1-0.6,1.8-1.5,1.8S10,20.8,10,19.8c0-1,0.6-1.8,1.5-1.8S12.9,18.8,12.9,19.8z"/>
						</g>
					</g>
				</g>
				<g>
					<g>
						<g>
							<path fill="#FFFFFF" d="M13.1,18.6c0,0.3-0.3,0.6-0.6,0.6c-0.3,0-0.6-0.3-0.6-0.6c0-0.3,0.3-0.6,0.6-0.6
								C12.8,18,13.1,18.3,13.1,18.6z"/>
						</g>
					</g>
				</g>
				<g>
					<g>
						<g>
							<path fill="#FFFFFF" d="M11.4,20.2c0,0.2-0.2,0.4-0.4,0.4s-0.4-0.2-0.4-0.4c0-0.2,0.2-0.4,0.4-0.4S11.4,19.9,11.4,20.2z"/>
						</g>
					</g>
				</g>
			</g>
			<g>
				<g>
					<g>
						<path fill="#3E4347" d="M8.1,16.1c1.9-3.1,4.7-2.3,4.7-2.3C10.2,10.2,8.2,15.8,8.1,16.1z"/>
					</g>
				</g>
			</g>
		</g>
	</g>
</g>
</svg>
