<?xml version="1.0" encoding="utf-8"?>
<!-- Generator: Adobe Illustrator 18.0.0, SVG Export Plug-In . SVG Version: 6.00 Build 0)  -->
<!DOCTYPE svg PUBLIC "-//W3C//DTD SVG 1.1//EN" "http://www.w3.org/Graphics/SVG/1.1/DTD/svg11.dtd">
<svg version="1.1" id="Layer_1" xmlns="http://www.w3.org/2000/svg" xmlns:xlink="http://www.w3.org/1999/xlink" x="0px" y="0px"
	 viewBox="0 0 36 36" enable-background="new 0 0 36 36" xml:space="preserve">
<g>
	<g>
		<g>
			<g>
				<path fill="#FBBC91" d="M27.1,19C27,24.9,23.3,30.2,18,30.2c-5.3,0-9-5.3-9.1-11.2C8.7,13,12.4,7.8,18,7.7
					C23.6,7.8,27.3,13,27.1,19z"/>
			</g>
		</g>
	</g>
	<g opacity="0.75">
		<g>
			<path fill="#F2B07E" d="M18,7.7C12.4,7.8,8.7,13,8.9,19c0,1.9,0.4,3.7,1.1,5.3c0.3,0.2,0.5,0.4,0.8,0.6c1.5,0.9,3.6,0.5,4.6-1.2
				c-1.6-0.3-3.1-1.4-4.2-2.9c0.4-0.1,0.9-0.1,1.3-0.2c-0.6-1.4-1.3-2.8-2-4.2c0.6,0.4,1.1,0.9,1.7,1.4c-0.4-1.4-0.6-3-0.3-4.5
				c-0.1,0.9,0.3,1.9,0.9,2.5c0.1-1.3,0.7-2.5,1.6-3.3c-0.1,1.9,1.1,3.8,2.6,4.2c-0.6-1-0.9-2.3-0.8-3.5c0.2,1.1,0.8,2.1,1.5,2.7
				c0.1-0.8,0.1-1.6,0.2-2.3c0.1,0.4,0.1,0.7,0.2,1c0.4-0.8,0.7-1.6,1.1-2.3c0.5,1.2,0.5,2.7,0.2,4c1.2-0.4,2.1-1.9,2-3.4
				c0.8,0.3,1.4,1.1,1.6,2.1c0.2-0.5,0.4-1,0.6-1.5c0.7,1.3,1,2.8,0.9,4.4c0.2-0.6,0.5-1.1,0.8-1.7c0,1.9-0.6,3.9-1.7,5.3
				c0.4-0.2,0.7-0.4,1.1-0.6c-1.1,2.2-3.1,3.8-5.3,4c2.2,0.9,4.8,0.3,6.6-1.3c0.1-0.1,0.3-0.3,0.4-0.4c0.4-1.3,0.7-2.8,0.7-4.3
				C27.3,13,23.6,7.8,18,7.7z"/>
		</g>
	</g>
	<g>
		<g>
			<g>
				<g>
					<path fill="#8C4211" d="M16.2,9.9c1.1,0.9,1.9,2.4,2.1,4c0.4-0.8,0.6-1.7,0.5-2.6c0.9,0.9,1.4,2.4,1.4,3.9
						c0.7-1.2,0.9-2.7,0.5-4.1c0.8,0.7,1.6,1.5,2.4,2.2c0.2-0.9,0.1-1.8-0.3-2.5c1.6,1.1,2.4,3.3,2.2,5.5c0.3-0.7,0.7-1.5,1.1-2.2
						c0.2,2.4-0.3,4.8-1.4,6.8c0.5-0.3,1-0.7,1.5-1c-0.7,1.9-1.8,3.6-3.3,4.8c0.5-0.1,1.1-0.2,1.6-0.3c-1,2.1-2.5,3.8-4.4,4.7
						c2.2,0.6,4.6-0.4,6.1-2.3c-0.3,0.7-0.5,1.3-0.8,2c1.5-0.9,2.5-2.6,2.9-4.5c0.1,0.6,0.2,1.3,0.2,1.9c1-1.6,1.4-3.6,1.5-5.5
						c0.2,0.8,0.5,1.6,0.8,2.3c0.5-1.8,0.3-3.9-0.5-5.4c0.3,0.3,0.7,0.6,1,0.9c0.4-1.8-0.1-3.8-1.3-5.1c0.7,0.1,1.3,0.2,2,0.3
						c-0.6-1.8-1.9-3.4-3.7-4c0.8-0.3,1.7-0.5,2.5-0.8c-1.6-0.7-3.3-1.1-5.1-1c0.6-0.5,1.1-1,1.7-1.6c-1.9-0.5-3.9-0.4-5.7,0.3
						c-0.1-1.8-1.6-3.2-3.2-3.2c0.9,0.7,1.5,1.8,1.8,3.1c-0.8-0.4-1.5-0.8-2.1-1.5C17.4,4,17,3.1,17.1,2.2c-0.5,0.5-0.7,1.4-0.6,2.2
						c0.1,0.8,0.4,1.5,0.8,2.2c0.3,0.7,0.7,1.4,0.9,2.1"/>
				</g>
			</g>
		</g>
		<g>
			<g>
				<g>
					<path fill="#84390F" d="M31.3,18.1c-0.3-0.3-0.7-0.6-1-0.9c0.8,1.6,1,3.7,0.5,5.4c-0.3-0.8-0.5-1.5-0.8-2.3
						c0,1.9-0.5,3.9-1.5,5.5c-0.1-0.6-0.2-1.3-0.2-1.9c-0.4,1.9-1.4,3.6-2.9,4.5c0.3-0.7,0.5-1.3,0.8-2c-1.5,2-3.9,2.9-6.1,2.3
						c1.9-0.9,3.5-2.6,4.4-4.7c-0.6,0.1-1.1,0.2-1.6,0.3c1.4-1.2,2.6-2.9,3.3-4.8c-0.5,0.4-1,0.7-1.5,1c1.1-2,1.6-4.5,1.4-6.8
						c-0.4,0.7-0.7,1.5-1.1,2.2c0.2-2.1-0.7-4.4-2.2-5.5c0.4,0.7,0.5,1.7,0.3,2.5c-0.8-0.7-1.6-1.5-2.4-2.2c0.3,1.4,0.1,2.9-0.5,4.1
						c0.1-1.4-0.4-2.9-1.4-3.9c0.1,0.9-0.1,1.9-0.5,2.6c-0.1-0.5-0.2-0.9-0.3-1.3c-0.2,0.4-0.3,0.9-0.3,1.3
						c-0.4-0.8-0.6-1.7-0.5-2.6c-0.9,0.9-1.4,2.4-1.4,3.9c-0.7-1.2-0.9-2.7-0.5-4.1c-0.8,0.8-1.6,1.5-2.4,2.2
						c-0.2-0.8-0.1-1.8,0.3-2.5c-1.6,1.1-2.4,3.3-2.3,5.5c-0.3-0.8-0.7-1.5-1.1-2.2c-0.2,2.4,0.3,4.8,1.4,6.8c-0.5-0.3-1-0.7-1.5-1
						c0.7,1.9,1.8,3.6,3.3,4.8c-0.6-0.1-1.1-0.2-1.6-0.3c0.9,2.1,2.5,3.8,4.4,4.7c-2.2,0.6-4.6-0.4-6.1-2.3c0.3,0.7,0.5,1.3,0.8,2
						C9.1,27.6,8,25.9,7.7,24c-0.1,0.7-0.2,1.3-0.2,1.9c-1-1.6-1.4-3.6-1.5-5.5c-0.2,0.8-0.5,1.6-0.8,2.3c-0.5-1.8-0.3-3.9,0.5-5.4
						c-0.3,0.3-0.7,0.6-1,0.9C4.4,16.3,4.8,14.3,6,13c-0.7,0.1-1.3,0.2-2,0.3c0.6-1.8,1.9-3.4,3.7-4C6.9,9.1,6.1,8.8,5.2,8.6
						c1.6-0.7,3.3-1.1,5.1-1C9.8,7,9.2,6.5,8.6,6c1.9-0.5,3.9-0.4,5.8,0.3c-0.2-0.6-0.3-1.2-0.5-1.8c1.3,0.3,2.5,1,3.4,1.9
						c-0.3-0.7-0.6-1.4-0.7-2.1c-0.1-0.8,0.1-1.6,0.6-2.2C17,3.1,17.4,4,18,4.7c0.6,0.6,1.4,1.1,2.1,1.5c-0.2-1.2-0.8-2.3-1.8-3.1
						c1.7,0,3.1,1.5,3.2,3.2c1.8-0.7,3.9-0.8,5.8-0.3c-0.6,0.5-1.1,1-1.7,1.6c1.7-0.1,3.5,0.3,5.1,1c-0.9,0.3-1.7,0.5-2.5,0.8
						c1.7,0.6,3.1,2.2,3.7,4c-0.7-0.1-1.3-0.2-2-0.3C31.2,14.3,31.6,16.3,31.3,18.1z"/>
				</g>
			</g>
		</g>
		<g>
			<g>
				<g>
					<g>
						<g>
							<path fill="#FFC7A1" d="M33.5,17.4c-0.7,1.8-2.1,2.1-3.2,2.1c-1.1,0-2.5-0.2-3.1-2.2c-0.5-2.1,1.5-4.7,3.5-4.4
								C32.7,12.9,34.2,15.5,33.5,17.4z"/>
						</g>
					</g>
				</g>
				<g>
					<g>
						<g>
							<path fill="#F9BB91" d="M31.8,17.5c-0.6,0.6-1.9,0.5-2.1-0.2c-0.3-1,0.7-1.6,1.1-1c0.1,0.1,0.1,0.3,0,0.3
								c-0.1,0.3,0-0.1-0.1-0.3c-0.3-0.3-0.9,0.2-0.6,0.8c0.2,0.4,1,0.4,1.3,0c0.1-0.2,0.2-0.3,0.2-0.6c0-0.9-0.6-1.4-1.2-1.4
								c-0.6,0-1,0.4-1,1c0,0,0-0.2,0-0.5c0.1-0.3,0.4-0.8,1-0.9C31.8,14.5,32.5,16.7,31.8,17.5z"/>
						</g>
					</g>
				</g>
				<g>
					<g>
						<g>
							<path fill="#F9BB91" d="M33.5,17.4c-0.7,1.8-2.1,2.1-3.2,2.1c-1,0-2.1-0.2-2.8-1.5c0.8,0.6,1.8,0.7,2.7,0.6
								c1.3-0.1,2.7-0.4,3.1-2.3c0.1-0.5,0-1.1-0.2-1.7C33.7,15.5,33.8,16.6,33.5,17.4z"/>
						</g>
					</g>
				</g>
				<g>
					<g>
						<g>
							<path fill="#E8A374" d="M29.3,16.1c0,0-0.1-0.2,0-0.5c0-0.3,0.4-0.8,1-0.9c0.6-0.1,1.3,0.2,1.7,0.8c0.4,0.6,0.4,1.6-0.1,2.1
								C31.6,17.9,31.3,18,31,18c-0.3,0-0.6,0-0.8-0.1c-0.3-0.1-0.5-0.3-0.6-0.6c-0.1-0.3-0.1-0.6,0.1-0.9c0.1-0.3,0.4-0.4,0.6-0.4
								c0.2,0,0.4,0.1,0.5,0.2c0.1,0.1,0,0.3,0,0.3c0,0.1,0,0.1,0,0.1c0,0,0.1-0.2,0-0.4C30.6,16,30,16,29.8,16.5
								c-0.1,0.2-0.1,0.5,0,0.8c0.1,0.2,0.3,0.4,0.5,0.5c0.5,0.1,1.1,0.1,1.4-0.3c0.4-0.4,0.3-1.2,0-1.8c-0.3-0.6-0.9-0.9-1.4-0.8
								c-0.5,0.1-0.9,0.5-0.9,0.8C29.2,15.9,29.3,16.1,29.3,16.1z"/>
						</g>
					</g>
				</g>
			</g>
			<g>
				<g>
					<g>
						<g>
							<path fill="#FFC7A1" d="M2.5,17.4c0.7,1.8,2.1,2.1,3.2,2.1c1.1,0,2.5-0.2,3.1-2.2c0.5-2.1-1.5-4.7-3.5-4.4
								C3.3,12.9,1.8,15.5,2.5,17.4z"/>
						</g>
					</g>
				</g>
				<g>
					<g>
						<g>
							<path fill="#F9BB91" d="M4.2,17.5c0.6,0.6,1.9,0.5,2.1-0.2c0.3-1-0.7-1.6-1.1-1c-0.1,0.1-0.1,0.3,0,0.3
								c0.1,0.3,0-0.1,0.1-0.3C5.7,16,6.2,16.5,6,17.1c-0.2,0.4-1,0.4-1.3,0c-0.1-0.2-0.2-0.3-0.2-0.6c0-0.9,0.6-1.4,1.2-1.4
								c0.6,0,1,0.4,1,1c0,0,0-0.2,0-0.5c-0.1-0.3-0.4-0.8-1-0.9C4.2,14.5,3.5,16.7,4.2,17.5z"/>
						</g>
					</g>
				</g>
				<g>
					<g>
						<g>
							<path fill="#F9BB91" d="M2.5,17.4c0.7,1.8,2.1,2.1,3.2,2.1c1,0,2.1-0.2,2.8-1.5c-0.8,0.6-1.8,0.7-2.7,0.6
								c-1.3-0.1-2.7-0.4-3.1-2.3c-0.1-0.5,0-1.1,0.2-1.7C2.3,15.5,2.2,16.6,2.5,17.4z"/>
						</g>
					</g>
				</g>
				<g>
					<g>
						<g>
							<path fill="#E8A374" d="M6.7,16.1c0,0,0.1-0.2,0-0.5c0-0.3-0.4-0.8-1-0.9c-0.6-0.1-1.3,0.2-1.7,0.8c-0.4,0.6-0.4,1.6,0.1,2.1
								C4.4,17.9,4.7,18,5,18c0.3,0,0.6,0,0.8-0.1c0.3-0.1,0.5-0.3,0.6-0.6c0.1-0.3,0.1-0.6-0.1-0.9C6.2,16.1,5.9,16,5.7,16
								c-0.2,0-0.4,0.1-0.5,0.2c-0.1,0.1,0,0.3,0,0.3c0,0.1,0,0.1,0,0.1c0,0-0.1-0.2,0-0.4C5.4,16,6,16,6.2,16.5
								c0.1,0.2,0.1,0.5,0,0.8c-0.1,0.2-0.3,0.4-0.5,0.5c-0.5,0.1-1.1,0.1-1.4-0.3C4,17,4,16.2,4.3,15.6c0.3-0.6,0.9-0.9,1.4-0.8
								c0.5,0.1,0.9,0.5,0.9,0.8C6.8,15.9,6.7,16.1,6.7,16.1z"/>
						</g>
					</g>
				</g>
			</g>
		</g>
		<g>
			<g>
				<path fill="#8C4211" d="M28.1,11.9c0.4-0.1,0.8-0.1,1.3-0.2c-0.5-1.3-1.8-2.2-3.1-2.2c0.3-0.3,0.6-0.5,0.9-0.8
					c-1.1-0.3-2.2-0.3-3.3,0.1c0.4-0.6,0.8-1.1,1.2-1.7C24,7,22.9,7.1,22,7.7c-0.1,0.1-0.3,0.1-0.4,0.1c-0.1,0-0.1-0.1-0.1-0.2
					c-0.2-0.3-0.3-0.7-0.5-1c0,0.5,0,1.1,0,1.6c-0.8-0.6-1.6-1.3-2.3-2.2c-0.3,1.1-0.1,2.4,0.4,3.3c-0.7-0.4-1.3-0.9-1.8-1.6
					c-0.3-0.3-0.5-0.7-0.8-1.1c-0.3-0.3-0.7-0.6-1.1-0.8c0.2,0.5,0.4,1.2,0.4,1.8c-1.4-1-3-1.5-4.7-1.4c0.7,0.4,1.3,1.1,1.7,2
					c-1.3-0.3-2.6-0.4-4-0.2C9.3,8.3,9.8,8.6,10.1,9C9.5,8.9,8.9,9.1,8.4,9.4c-1,0.6-1.8,1.5-2.4,2.5c0.6-0.2,1.2-0.2,1.8-0.2
					c-0.2,0.2-0.4,0.4-0.6,0.6C6.6,13,6.2,14,6.2,15c0.4-0.5,0.9-0.8,1.4-1c-1.1,1.2-1.7,3-1.6,4.8c0.3-0.5,0.7-0.8,1.2-1.1
					c-0.5,1.4-0.5,3.1,0,4.6c0-0.7,0.4-1.3,0.9-1.6c-0.5,1.8-0.2,3.9,0.8,5.4c0-0.9,0.1-1.9,0.4-2.8c0.5,2.1,1.8,4,3.6,4.7
					c0.5-0.1,0.9-0.2,1.4-0.3c-1.2-0.9-2.2-2.2-2.8-3.7c0.5,0.1,1.1,0.2,1.6,0.3c-1.4-1.2-2.6-2.9-3.3-4.8c0.5,0.4,1,0.7,1.5,1
					c-1.1-2-1.6-4.5-1.4-6.8c0.4,0.7,0.7,1.5,1.1,2.2c-0.2-2.1,0.7-4.4,2.3-5.5c-0.4,0.7-0.5,1.7-0.3,2.5c0.8-0.7,1.6-1.5,2.4-2.2
					c-0.3,1.4-0.1,2.9,0.5,4.1c-0.1-1.4,0.4-2.9,1.4-3.9c-0.1,0.9,0.1,1.9,0.5,2.6c0.1-0.5,0.2-0.9,0.3-1.3c0.1,0.4,0.2,0.9,0.3,1.3
					c0.4-0.8,0.6-1.7,0.5-2.6c0.9,0.9,1.4,2.4,1.4,3.9c0.7-1.2,0.9-2.7,0.5-4.1c0.8,0.8,1.6,1.5,2.4,2.2c0.2-0.8,0.1-1.8-0.3-2.5
					c1.6,1.1,2.4,3.3,2.2,5.5c0.4-0.8,0.7-1.5,1.1-2.2c0.2,2.4-0.3,4.8-1.4,6.8c0.5-0.3,1-0.7,1.5-1c-0.7,1.9-1.8,3.6-3.3,4.8
					c0.6-0.1,1.1-0.2,1.6-0.3c-0.7,1.6-1.9,3-3.2,4c1.7-0.2,3.4-0.9,4.7-2.2c0.3-0.3,0.6-0.6,0.7-1.1c0,0.5,0.1,1.1,0.1,1.6
					c0.8-1.1,1.2-2.6,1.2-4c0.2,0.3,0.4,0.7,0.6,1c0.6-1.5,0.8-3.3,0.5-4.9c0.2,0.2,0.4,0.3,0.7,0.5c0.2-1.2,0-2.5-0.5-3.6
					c0.3,0,0.6,0.1,0.8,0.3C29.9,14.3,29.2,12.9,28.1,11.9z"/>
			</g>
		</g>
	</g>
	<g>
		<g>
			<g>
				<g>
					<path fill="#FFC7A1" d="M25.4,27c0.3,3.9-2.6,6.8-7.4,6.8c-4.8,0-7.7-2.9-7.4-6.8c0.1-3.9,3-6.5,7.4-6.5
						C22.4,20.5,25.3,23.1,25.4,27z"/>
				</g>
			</g>
		</g>
		<g opacity="0.5">
			<g>
				<g>
					<path fill="#F2B07E" d="M25.4,27.7c0,0.2,0,0.6-0.1,0.9c-0.2,1.5-1,2.7-2.1,3.6c-1.4,1.2-3.5,1.7-5.3,1.6
						c-2.3,0-5.1-0.8-6.4-2.8c-0.8-1.1-0.9-2.1-1-3.4c0.3,1.3,0.6,2,1.4,3c1.4,1.6,4,2.4,6,2.4c2.4,0,4.1-0.8,4.9-1.4
						c1.2-0.8,2-2.1,2.3-3C25.3,28.1,25.4,27.8,25.4,27.7z"/>
				</g>
			</g>
		</g>
		<g>
			<g>
				<g>
					<g>
						<g>
							<path fill="#FFC7A1" d="M21,21.8c0.2,1.5-1.1,2.9-3,2.9c-1.9,0-3.2-1.4-3-2.9c0.2-2.1,1.5-2.4,3-2.4
								C19.5,19.5,20.8,19.8,21,21.8z"/>
						</g>
					</g>
				</g>
				<g>
					<g>
						<g>
							<path fill="#F2B07E" d="M20.8,23.1c0,0,0.1-0.2,0.2-0.5c0.1-0.3,0.1-0.8-0.1-1.3c-0.4-1-1.6-1.8-2.8-1.8
								c-1.2,0-2.4,0.8-2.8,1.8c-0.2,0.5-0.2,1-0.1,1.3c0.1,0.3,0.2,0.5,0.2,0.5c0,0-0.1-0.1-0.2-0.5c-0.1-0.3-0.2-0.9,0-1.4
								c0.4-1.2,1.7-2.1,3-2.1c0.7,0,1.3,0.2,1.9,0.6c0.5,0.4,0.9,0.9,1.1,1.5c0.2,0.6,0.1,1.1,0,1.4C20.9,22.9,20.8,23.1,20.8,23.1
								z"/>
						</g>
					</g>
				</g>
			</g>
			<g>
				<g>
					<g>
						<g>
							<g>
								<path fill="#603B23" d="M19.7,23.1c-0.3,0.3-1.1,0.4-1.5,0.5c0.5-0.6,0.5-1.1,1-1.8C20,20.6,20.9,22.3,19.7,23.1z"/>
							</g>
						</g>
					</g>
					<g>
						<g>
							<g>
								<path fill="#472B1B" d="M20.2,22.5c-0.1-0.5-0.6-0.9-1-0.3c-0.4,0.6-0.4,0.7-0.8,1.1c0.4-0.5,0.4-1,0.8-1.6
									C19.8,20.8,20.5,21.7,20.2,22.5z"/>
							</g>
						</g>
					</g>
				</g>
				<g>
					<g>
						<g>
							<g>
								<path fill="#603B23" d="M16.3,23.1c0.3,0.3,1.1,0.4,1.5,0.5c-0.5-0.6-0.5-1.1-1-1.8C16,20.6,15.1,22.3,16.3,23.1z"/>
							</g>
						</g>
					</g>
					<g>
						<g>
							<g>
								<path fill="#472B1B" d="M15.8,22.5c0.1-0.5,0.6-0.9,1-0.3c0.4,0.6,0.4,0.7,0.8,1.1c-0.4-0.5-0.4-1-0.8-1.6
									C16.2,20.8,15.5,21.7,15.8,22.5z"/>
							</g>
						</g>
					</g>
				</g>
			</g>
		</g>
		<g>
			<g>
				<g>
					<path fill="#E8A374" d="M11.9,29.4c0.1-1.4,0.9-2.2,1.7-2.3C12.9,27.7,12.2,28.5,11.9,29.4z"/>
				</g>
			</g>
			<g>
				<g>
					<path fill="#E8A374" d="M23.2,28.1C22.7,29.5,21,31.8,18,32c-2.9-0.1-4.7-2.3-5.2-3.8c1.3,1.8,3,3.1,5.2,3.1
						C20.2,31.2,21.9,30,23.2,28.1z"/>
				</g>
			</g>
			<g>
				<g>
					<path fill="#E8A374" d="M24.1,29.4c-0.3-0.9-1-1.7-1.7-2.3C23.1,27.2,24,28.1,24.1,29.4z"/>
				</g>
			</g>
		</g>
	</g>
	<g>
		<g>
			<g>
				<g>
					<g>
						<path fill="#F2B07E" d="M23.6,20.5c-0.6,0.4-1.6,0.3-2.4-0.3c-0.7-0.6-1.2-1.8-1.1-2.6c0.3,0.8,0.8,1.6,1.4,2.1
							C22.1,20.2,22.9,20.4,23.6,20.5z"/>
					</g>
				</g>
			</g>
			<g>
				<g>
					<g>
						<g>
							<path fill="#FFFFFF" d="M23.7,17.4c0,1.4-0.9,2.6-1.9,2.6c-1,0-1.8-1.2-1.8-2.6c0-1.4,0.9-2.6,1.9-2.6
								C22.9,14.8,23.7,16,23.7,17.4z"/>
						</g>
					</g>
				</g>
				<g>
					<g>
						<g>
							<path fill="#65B1EF" d="M22.9,17.9c0,1-0.6,1.7-1.3,1.7c-0.7,0-1.2-0.8-1.2-1.7c0-1,0.6-1.8,1.3-1.8
								C22.4,16.1,23,16.9,22.9,17.9z"/>
						</g>
					</g>
				</g>
				<g>
					<g>
						<g>
							<path fill="#3E4347" d="M22.5,18.1c0,0.7-0.4,1.2-0.9,1.2c-0.5,0-0.8-0.5-0.8-1.2c0-0.7,0.4-1.2,0.9-1.2
								C22.2,16.8,22.6,17.4,22.5,18.1z"/>
						</g>
					</g>
				</g>
				<g>
					<g>
						<g>
							<ellipse fill="#FFFFFF" cx="21.4" cy="18.3" rx="0.2" ry="0.3"/>
						</g>
					</g>
					<g>
						<g>
							<path fill="#FFFFFF" d="M22.6,17.3c0,0.3-0.2,0.5-0.4,0.5c-0.2,0-0.4-0.2-0.4-0.5c0-0.3,0.2-0.5,0.4-0.5
								C22.5,16.8,22.7,17,22.6,17.3z"/>
						</g>
					</g>
				</g>
			</g>
		</g>
		<g>
			<g>
				<g>
					<g>
						<path fill="#F2B07E" d="M12.4,20.5c0.6,0.4,1.6,0.3,2.4-0.3c0.7-0.6,1.2-1.8,1.1-2.6c-0.3,0.8-0.8,1.6-1.4,2.1
							C13.9,20.2,13.1,20.4,12.4,20.5z"/>
					</g>
				</g>
			</g>
			<g>
				<g>
					<g>
						<g>
							<path fill="#FFFFFF" d="M12.3,17.4c0,1.4,0.8,2.6,1.9,2.6c1,0,1.8-1.2,1.8-2.6c0-1.4-0.9-2.6-1.9-2.6
								C13.1,14.8,12.3,16,12.3,17.4z"/>
						</g>
					</g>
				</g>
				<g>
					<g>
						<g>
							<path fill="#65B1EF" d="M15.5,17.9c0,1-0.5,1.7-1.2,1.7c-0.7,0-1.2-0.8-1.3-1.7c0-1,0.5-1.7,1.2-1.8
								C15,16.1,15.5,16.9,15.5,17.9z"/>
						</g>
					</g>
				</g>
				<g>
					<g>
						<g>
							<path fill="#3E4347" d="M15.1,18.1c0,0.7-0.4,1.2-0.8,1.2c-0.5,0-0.8-0.5-0.9-1.2c0-0.7,0.4-1.2,0.8-1.2
								C14.8,16.8,15.1,17.4,15.1,18.1z"/>
						</g>
					</g>
				</g>
				<g>
					<g>
						<g>
							<ellipse fill="#FFFFFF" cx="14" cy="18.3" rx="0.2" ry="0.3"/>
						</g>
					</g>
					<g>
						<g>
							<path fill="#FFFFFF" d="M15.2,17.3c0,0.3-0.2,0.5-0.4,0.5c-0.2,0-0.4-0.2-0.4-0.5c0-0.3,0.2-0.5,0.4-0.5
								C15,16.8,15.2,17,15.2,17.3z"/>
						</g>
					</g>
				</g>
			</g>
		</g>
	</g>
</g>
</svg>
