<?xml version="1.0" encoding="utf-8"?>
<!-- Generator: Adobe Illustrator 18.0.0, SVG Export Plug-In . SVG Version: 6.00 Build 0)  -->
<!DOCTYPE svg PUBLIC "-//W3C//DTD SVG 1.1//EN" "http://www.w3.org/Graphics/SVG/1.1/DTD/svg11.dtd">
<svg version="1.1" id="Layer_1" xmlns="http://www.w3.org/2000/svg" xmlns:xlink="http://www.w3.org/1999/xlink" x="0px" y="0px"
	 viewBox="0 0 36 36" enable-background="new 0 0 36 36" xml:space="preserve">
<g>
	<g>
		<g>
			<g>
				<g>
					<g>
						<g>
							<g>
								<path fill="#D8E1E5" d="M32.5,12.4c-3.1,4.7-5.1,8.8-7.2,8.3c-2.1-0.6-1.2-5.1-0.7-10.6c1.2-6.5,5.6-8,7-7.5
									C33.1,3,35.6,6.5,32.5,12.4z"/>
							</g>
						</g>
					</g>
					<g>
						<g>
							<g>
								<path fill="#BBC7D1" d="M31.8,12.3c-2.4,4.1-4.4,7.6-5.9,7.2c-1.4-0.4-1-4.4-0.2-9C27,5.1,30,3.6,31.4,4.1
									C32.8,4.5,34.3,7.3,31.8,12.3z"/>
							</g>
						</g>
					</g>
				</g>
				<g>
					<g>
						<g>
							<path fill="#ACB9C1" d="M27.3,16.7c-0.2-1.2,1.3-5,0.3-4c-0.9,1.1-1.6,3.4-1.3,0.8c0.2-2,0.5-5.8,1.3-7.5
								c-0.8,1-1.4,2.5-1.9,4.5c-0.8,4.6-1.2,8.6,0.2,9c1.1,0.3,2.3-1.4,3.9-3.9C28.6,17.1,27.5,17.5,27.3,16.7z"/>
						</g>
					</g>
				</g>
			</g>
		</g>
		<g>
			<g>
				<g>
					<g>
						<g>
							<g>
								<path fill="#D8E1E5" d="M3.5,12.4c3.1,4.7,5.1,8.8,7.2,8.3c2.1-0.6,1.2-5.1,0.7-10.6c-1.2-6.5-5.6-8-7-7.5
									C2.9,3,0.4,6.5,3.5,12.4z"/>
							</g>
						</g>
					</g>
					<g>
						<g>
							<g>
								<path fill="#BBC7D1" d="M4.2,12.3c2.4,4.1,4.4,7.6,5.9,7.2c1.4-0.4,1-4.4,0.2-9C9,5.1,6,3.6,4.6,4.1
									C3.2,4.5,1.7,7.3,4.2,12.3z"/>
							</g>
						</g>
					</g>
				</g>
				<g>
					<g>
						<g>
							<path fill="#ACB9C1" d="M8.7,16.7c0.2-1.2-1.3-5-0.3-4c0.9,1.1,1.6,3.4,1.3,0.8c-0.2-2-0.5-5.8-1.3-7.5
								c0.8,1,1.4,2.5,1.9,4.5c0.8,4.6,1.2,8.6-0.2,9c-1.1,0.3-2.3-1.4-3.9-3.9C7.4,17.1,8.5,17.5,8.7,16.7z"/>
						</g>
					</g>
				</g>
			</g>
		</g>
	</g>
	<g>
		<g>
			<g>
				<g>
					<g>
						<path fill="#D8E1E5" d="M32.5,20c2.3,6.9-7.2,12.2-14.5,12.2c-7.3,0-16.8-5.3-14.5-12.2C5.3,16.4,9.4,7.6,18,7.6
							C26.6,7.6,30.7,16.4,32.5,20z"/>
					</g>
				</g>
			</g>
			<g>
				<g>
					<g>
						<path fill="#D8E1E5" d="M32.5,20c2.3,6.9-7.2,12.2-14.5,12.2c-7.3,0-16.8-5.3-14.5-12.2C5.3,16.4,9.4,7.6,18,7.6
							C26.6,7.6,30.7,16.4,32.5,20z"/>
					</g>
				</g>
			</g>
			<g>
				<g>
					<g>
						<g>
							<path fill="#E9EFF4" d="M18,32.2c3.7,0,7.9-1.3,10.9-3.6c-1.5-0.5-3-1.2-4-2.4c-1-1.2-1.5-3-2.8-3.8
								c-1.3-0.8-3.2-0.4-4.1,1.1c-0.2-0.4-0.5-0.7-0.8-0.9c-0.9-0.7-2.3-0.8-3.3-0.2c-1.4,0.8-1.8,2.6-2.8,3.8
								c-1,1.2-2.5,1.9-4,2.4C10.1,30.9,14.3,32.2,18,32.2z"/>
						</g>
					</g>
					<g>
						<g>
							<g>
								<path fill="#E9EFF4" d="M12.8,30.4c0.5,1.8,2.6,3.2,5.2,3.2s4.7-1.4,5.2-3.2H12.8z"/>
							</g>
						</g>
					</g>
				</g>
			</g>
			<g>
				<g>
					<g>
						<g>
							<path fill="#D8E1E5" d="M21,28.4c-1.4,0-2.4-0.8-2.8-1.8c-0.1,0-0.3,0-0.4,0c-0.1,0.2-0.3,0.4-0.4,0.6
								c-0.5,0.6-1.3,1.1-2.3,1.1c-0.1,0-0.1,0-0.2,0c0.2,1.5,1.5,2.7,3.1,2.7C19.5,31,20.8,29.9,21,28.4
								C21.1,28.4,21.1,28.4,21,28.4z"/>
						</g>
					</g>
				</g>
				<g>
					<g>
						<g>
							<path fill="#3E4347" d="M18.3,26.6c-0.1,0-0.3,0-0.4,0c0,0.1-0.1,0.1-0.1,0.2c-0.4,0.7-1.1,1.3-2.1,1.4c0.2,1.1,1.2,2,2.4,2
								c1.1,0,2.1-0.8,2.4-1.9C19.3,28.2,18.6,27.5,18.3,26.6z"/>
						</g>
					</g>
				</g>
			</g>
			<g>
				<g>
					<g>
						<g>
							<path fill="#BBC7D1" d="M23.4,26.5c0,0.6-0.3,1.2-0.8,1.6c-0.2,0.2-0.5,0.3-0.8,0.4c-0.3,0.1-0.6,0.1-0.9,0.1
								c-0.6-0.1-1.2-0.3-1.8-0.7c-0.4-0.3-0.8-0.6-1.1-0.9c-0.3,0.3-0.7,0.6-1.1,0.9c-0.5,0.3-1.1,0.6-1.8,0.7
								c-0.6,0-1.3-0.1-1.7-0.5c-0.5-0.4-0.7-1-0.8-1.6c0.1,0.6,0.5,1.1,0.9,1.4c0.2,0.2,0.5,0.3,0.8,0.3c0.3,0,0.5,0.1,0.8,0
								c1.1-0.2,1.9-1.1,2.6-2c0.1-0.1,0.2-0.2,0.3-0.2c0.1,0,0.1,0,0.2,0.1c0,0,0.1,0,0.1,0.1v0c0.6,0.9,1.5,1.8,2.6,2
								c0.3,0,0.6,0,0.8,0c0.3,0,0.5-0.1,0.8-0.3C23,27.6,23.3,27.1,23.4,26.5z"/>
						</g>
					</g>
				</g>
			</g>
			<g>
				<g>
					<g>
						<path fill="#D8E1E5" d="M23.1,30.4c-0.1,0.6-0.6,1.2-1,1.7c-0.9,0.9-2.5,1.5-4.1,1.5s-3.2-0.6-4.1-1.5c-0.7-0.7-1-1.4-1-1.7
							C15.1,33.3,20.9,33.4,23.1,30.4z"/>
					</g>
				</g>
			</g>
			<g>
				<g>
					<g>
						<g>
							<g>
								<path fill="#5A5F63" d="M20.9,22.2c-0.5,1-2,1.8-2.6,2.1c-0.2,0.1-0.4,0.1-0.5,0c-0.4-0.2-1-0.5-1.6-1c0,0,0,0,0,0
									c-0.4-0.3-0.8-0.7-1-1.1c-0.1-0.3,0-0.7,0.3-0.8c1.5-0.8,2.9-0.9,4.4-0.3c0.2,0.1,0.5,0.2,0.7,0.3
									C20.9,21.5,21,21.9,20.9,22.2z"/>
							</g>
						</g>
					</g>
					<g>
						<g>
							<g>
								<path fill="#3E4347" d="M20.9,22.2c-0.5,1-2,1.8-2.6,2.1c-0.2,0.1-0.4,0.1-0.5,0c-0.4-0.2-1-0.5-1.6-1c1.2,0.5,3-0.1,3.7-1
									c0.4-0.5,0.3-1,0-1.3c0.2,0.1,0.5,0.2,0.7,0.3C20.9,21.5,21,21.9,20.9,22.2z"/>
							</g>
						</g>
					</g>
				</g>
				<g>
					<g>
						<g>
							<path fill="#777B7E" d="M17.8,21c0.1,0,0.2,0,0.4,0.1s0.2,0.1,0.2,0.3c0,0.2-0.1,0.3-0.2,0.5c-0.4,0.3-0.9,0.5-1.5,0.4
								c-0.2,0-0.4-0.1-0.5-0.2c-0.1-0.1-0.2-0.3-0.1-0.4c0.1-0.1,0.3-0.2,0.4-0.3c0.2-0.1,0.4-0.1,0.6-0.2
								C17.3,21.1,17.6,21,17.8,21z"/>
						</g>
					</g>
				</g>
			</g>
			<g>
				<g>
					<path fill="#E24B4B" d="M19.8,29.1c-0.4-0.5-1.1-0.7-1.8-0.5c-0.2,0.1-0.5,0.1-0.7,0.1c-0.5,0-1,0.2-1.3,0.6
						c0.4,0.6,1.1,1,1.9,1c0.8,0,1.5-0.4,2-1C19.9,29.2,19.9,29.1,19.8,29.1z"/>
				</g>
			</g>
		</g>
		<g>
			<g>
				<g>
					<g>
						<g>
							<g>
								<path fill="#5A5F63" d="M19.6,7.7c-0.5-0.1-1.1-0.1-1.6-0.1c-0.4,0-0.8,0-1.2,0.1c0.9,1.2,1.3,3.9,1.4,4.9
									C18.3,11.5,18.8,8.9,19.6,7.7z"/>
							</g>
						</g>
						<g>
							<g>
								<path fill="#5A5F63" d="M13.6,15.2c0.2-2.5-0.5-4.6-1.4-6c-0.6,0.3-1.2,0.7-1.7,1.1C11.7,11.1,13,12.8,13.6,15.2z"/>
							</g>
						</g>
						<g>
							<g>
								<path fill="#5A5F63" d="M14.9,13.7c0.4-1.8,0.3-3.9-0.1-5.7c-0.4,0.1-0.8,0.2-1.1,0.4C14.4,9.8,14.9,11.8,14.9,13.7z"/>
							</g>
						</g>
						<g>
							<g>
								<path fill="#5A5F63" d="M25.5,10.3c-0.5-0.4-1.1-0.8-1.7-1.1c-0.9,1.5-1.6,3.7-1.4,6.1C23,12.8,24.3,11.1,25.5,10.3z"/>
							</g>
						</g>
						<g>
							<g>
								<path fill="#5A5F63" d="M22.3,8.4c-0.4-0.1-0.7-0.3-1.1-0.4c-0.3,1.7-0.5,3.7-0.1,5.7C21.1,11.9,21.6,9.9,22.3,8.4z"/>
							</g>
						</g>
					</g>
				</g>
			</g>
		</g>
		<g>
			<g>
				<g>
					<g>
						<g>
							<path fill="#FFFFFF" d="M27.2,21.4c0.2-0.5,0.2-1,0.2-1.6c0-2.3-1.3-4.2-2.9-4.2c-1.6,0-2.9,1.9-2.9,4.2
								c0,0.6,0.1,1.1,0.2,1.6C23.6,22.3,25.4,22.3,27.2,21.4z"/>
						</g>
					</g>
				</g>
				<g>
					<g>
						<g>
							<g>
								<path fill="#65B1EF" d="M26.3,19.3c0,1.1-0.8,2-1.8,2c-1,0-1.8-0.9-1.8-2c0-1.1,0.8-2,1.8-2C25.5,17.2,26.3,18.1,26.3,19.3z
									"/>
							</g>
						</g>
					</g>
					<g>
						<g>
							<g>
								<path fill="#3E4347" d="M25.7,19.5c0,0.8-0.5,1.4-1.2,1.4c-0.7,0-1.2-0.6-1.2-1.4c0-0.8,0.5-1.4,1.2-1.4
									C25.2,18.1,25.7,18.7,25.7,19.5z"/>
							</g>
						</g>
					</g>
					<g>
						<g>
							<g>
								<path fill="#FFFFFF" d="M25.5,18.6c0,0.3-0.2,0.5-0.5,0.5c-0.3,0-0.5-0.2-0.5-0.5c0-0.3,0.2-0.5,0.5-0.5
									C25.3,18.1,25.5,18.3,25.5,18.6z"/>
							</g>
						</g>
					</g>
				</g>
			</g>
			<g>
				<g>
					<g>
						<g>
							<path fill="#FFFFFF" d="M14.2,21.4c0.2-0.5,0.2-1,0.2-1.6c0-2.3-1.3-4.2-2.9-4.2c-1.6,0-2.9,1.9-2.9,4.2
								c0,0.6,0.1,1.1,0.2,1.6C10.6,22.3,12.4,22.3,14.2,21.4z"/>
						</g>
					</g>
				</g>
				<g>
					<g>
						<g>
							<g>
								<path fill="#65B1EF" d="M13.3,19.3c0,1.1-0.8,2-1.8,2c-1,0-1.8-0.9-1.8-2c0-1.1,0.8-2,1.8-2C12.5,17.2,13.3,18.1,13.3,19.3z
									"/>
							</g>
						</g>
					</g>
					<g>
						<g>
							<g>
								<path fill="#3E4347" d="M12.7,19.5c0,0.8-0.5,1.4-1.2,1.4c-0.7,0-1.2-0.6-1.2-1.4c0-0.8,0.5-1.4,1.2-1.4
									C12.2,18.1,12.7,18.7,12.7,19.5z"/>
							</g>
						</g>
					</g>
					<g>
						<g>
							<g>
								<path fill="#FFFFFF" d="M12.5,18.6c0,0.3-0.2,0.5-0.5,0.5c-0.3,0-0.5-0.2-0.5-0.5c0-0.3,0.2-0.5,0.5-0.5
									C12.3,18.1,12.5,18.3,12.5,18.6z"/>
							</g>
						</g>
					</g>
				</g>
			</g>
		</g>
		<g>
			<g>
				<g>
					<g>
						<path fill="#5A5F63" d="M24.4,14c0,0,2.5,0.4,3.5,2C28,16,26.9,12.3,24.4,14z"/>
					</g>
				</g>
			</g>
			<g>
				<g>
					<g>
						<path fill="#5A5F63" d="M11.6,14c0,0-2.5,0.4-3.5,2C8,16,9.1,12.3,11.6,14z"/>
					</g>
				</g>
			</g>
		</g>
		<g>
			<g>
				<g>
					<g>
						<g>
							<path fill="#5A5F63" d="M28,22.5c1.1-0.5,2.3-0.4,3.4,0.2c0.5,0.3,0.9,0.6,1.3,1c0.1-0.4,0.2-0.8,0.2-1.2
								c-0.4-0.2-0.8-0.4-1.2-0.5C29.8,21.6,28.6,21.9,28,22.5z"/>
						</g>
					</g>
					<g>
						<g>
							<path fill="#5A5F63" d="M31.6,26c0-0.1-0.1-0.3-0.1-0.4c-0.5-1.3-1.8-2.3-2.8-2.5c0.9,0.4,1.9,1.6,2.1,2.7
								c0.1,0.4,0.1,0.9-0.1,1.4C31,26.8,31.3,26.4,31.6,26z"/>
						</g>
					</g>
					<g>
						<g>
							<path fill="#5A5F63" d="M31.7,18.4c-0.2-0.3-0.3-0.7-0.5-1c-0.2,0.9-0.9,2.1-1.9,2.9C30.2,20,31.1,19.2,31.7,18.4z"/>
						</g>
					</g>
				</g>
				<g>
					<g>
						<g>
							<path fill="#5A5F63" d="M29.1,26.5c-0.5,0.1-1.4-0.1-1.7-0.3c-0.3-0.2-0.5-0.3-0.8-0.5c-0.6-0.6-1.2-1.3-1.3-2.2
								c0,0,0.7,1,1.7,1.8C27.8,25.9,28.7,26.3,29.1,26.5z"/>
						</g>
					</g>
				</g>
			</g>
			<g>
				<g>
					<g>
						<g>
							<path fill="#5A5F63" d="M8,22.5c-0.6-0.6-1.8-0.9-3.6-0.5c-0.4,0.1-0.8,0.3-1.2,0.5c0,0.4,0.1,0.8,0.2,1.2
								c0.3-0.4,0.8-0.8,1.3-1C5.7,22.1,6.9,22,8,22.5z"/>
						</g>
					</g>
					<g>
						<g>
							<path fill="#5A5F63" d="M5.4,27.2c-0.1-0.5-0.1-1-0.1-1.4c0.2-1.2,1.2-2.3,2.1-2.7c-1,0.2-2.3,1.2-2.8,2.5
								c-0.1,0.2-0.1,0.3-0.1,0.4C4.7,26.4,5,26.8,5.4,27.2z"/>
						</g>
					</g>
					<g>
						<g>
							<path fill="#5A5F63" d="M6.8,20.3c-1.1-0.8-1.8-2-1.9-2.9c-0.2,0.3-0.4,0.7-0.5,1C4.9,19.2,5.8,20,6.8,20.3z"/>
						</g>
					</g>
				</g>
				<g>
					<g>
						<g>
							<path fill="#5A5F63" d="M6.9,26.5c0.5,0.1,1.4-0.1,1.7-0.3c0.3-0.2,0.5-0.3,0.8-0.5c0.6-0.6,1.2-1.3,1.3-2.2
								c0,0-0.7,1-1.7,1.8C8.2,25.9,7.3,26.3,6.9,26.5z"/>
						</g>
					</g>
				</g>
			</g>
		</g>
	</g>
</g>
</svg>
