<?xml version="1.0" encoding="utf-8"?>
<!-- Generator: Adobe Illustrator 18.0.0, SVG Export Plug-In . SVG Version: 6.00 Build 0)  -->
<!DOCTYPE svg PUBLIC "-//W3C//DTD SVG 1.1//EN" "http://www.w3.org/Graphics/SVG/1.1/DTD/svg11.dtd">
<svg version="1.1" id="Layer_1" xmlns="http://www.w3.org/2000/svg" xmlns:xlink="http://www.w3.org/1999/xlink" x="0px" y="0px"
	 viewBox="0 0 36 36" enable-background="new 0 0 36 36" xml:space="preserve">
<g>
	<g>
		<g>
			<g>
				<g>
					<g>
						<g>
							<path fill="#6D4135" d="M33.6,17c-0.6-0.6-0.4-0.4-0.9-0.8c0,4.5-2.6,6.6-4,7.8l0.1-0.7c-1.9,2.4-3.6,3.5-5.1,4.5
								c0.1-0.4,0.4-1.7,0.5-2.1c-3.9,2.1-3.7,3.6-4.1,6.1c-0.1-0.2-0.8-1.9-0.9-2.1c-0.7,1.3-0.8,2.3-1.2,4.3
								c-1.9-4.6-1.6-1.9-5.9-7.2l0.2,1c-1.4-0.9-3.1-2-5.1-4.5L7.3,24c-1.2-1.1-4-3.3-4-7.8C2.9,16.6,3,16.5,2.4,17
								C2,12.9,2.8,9.4,6.9,6.9C6.6,6.9,5.2,7,4.9,7c0.9-1.2,2-2,2.6-2.3c0.2-0.2,1.2-0.7,2.3-1c-0.5-0.2-1-0.3-1.5-0.4
								C10.4,2.4,12.8,2.4,15,3c-0.1-0.4-0.3-0.8-0.6-1c1.3,0.3,2.5,0.9,3.6,1.6c1.1-0.8,2.3-1.3,3.6-1.6c-0.3,0.3-0.5,0.6-0.6,1
								c2.2-0.6,4.5-0.6,6.7,0.2c-0.5,0.2-1,0.3-1.5,0.4c1.6,0.4,3.5,1.5,4.9,3.3c-0.3,0-1.7-0.1-2.1-0.1C32.4,9,34.2,12,33.6,17z"
								/>
						</g>
					</g>
				</g>
			</g>
			<g>
				<g>
					<g>
						<path fill="#633B2A" d="M24.7,7.1C24.7,7.1,24.7,7.1,24.7,7.1C22.3,6.2,20,8.3,19,10.5c-1.6-2-5.2-4.3-7.4-3
							c0.5-0.7,1.4-1.1,2.3-1.1c-0.8-0.4-1.8-0.5-2.7-0.5c1.6-0.5,3.3-0.5,4.8,0c-0.1-0.7-0.6-1.3-1.2-1.7c1.2,0.1,2.9,0.4,2.9,1.9
							c0.8-1.1,2-1.7,3.4-1.9c-0.6,0.7-1,1.4-0.8,2c1.2-0.9,2.7-1.4,4.2-1.3C23.9,5,23.4,5.4,23.1,6C23.8,6,24.4,6.5,24.7,7.1z"/>
					</g>
				</g>
			</g>
			<g>
				<g>
					<g>
						<g>
							<path fill="#633B2A" d="M33.6,17c-0.6-0.6-0.4-0.4-0.9-0.8c0,4.5-2.6,6.6-4,7.8l0.1-0.7c-1.9,2.4-3.6,3.5-5.1,4.5
								c0.1-0.4,0.4-1.7,0.5-2.1c-3.9,2.1-3.7,3.6-4.1,6.1c-0.1-0.2-0.8-1.9-0.9-2.1c-0.7,1.3-0.8,2.3-1.2,4.3
								c-1.9-4.6-1.6-1.9-5.9-7.2l0.2,1c-1.4-0.9-3.1-2-5.1-4.5L7.3,24c-1.2-1.1-4-3.3-4-7.8C2.9,16.6,3,16.5,2.4,17
								C1.8,11.8,3.5,9,6.9,6.9C6.6,6.9,5.2,7,4.9,7c0.7-1,1.5-1.7,2.7-2.4C6.7,5.2,5.9,5.9,5.3,6.7c2.8-0.3,2.1-0.2,3.1-0.3
								C4.3,8.7,2.7,11.9,3,15.5c0.6-0.6,0.4-0.4,1.2-1.1c-0.1,1.3-0.5,4.1,1.7,6.8l-0.4-2.1c1.5,2.2,2.7,4.3,5.3,6.3
								c0-0.4-0.1-1.7-0.1-2.2c5.2,6.8,5.5,5.9,6.8,7.4c0.6-1.8,1.4-2.6,2.6-4l0,1.1c1.2-1.8,3.4-2.8,5.3-3.7c0,0.4,0,1-0.1,1.4
								c2.5-2,3.7-3.9,5.3-6.3l-0.4,2.1c1.9-2.4,1.8-4.8,1.7-6.8c0.8,0.8,0.6,0.6,1.2,1.2c0.3-3.7-1.3-6.8-5.4-9.1
								c1.7,0.2-0.5,0,3.1,0.3c-0.6-0.8-1.4-1.6-2.3-2.2c1.2,0.7,2,1.4,2.7,2.4c-0.3,0-1.7-0.1-2.1-0.1C32.5,9,34.2,12,33.6,17z"/>
						</g>
					</g>
				</g>
			</g>
		</g>
		<g>
			<g>
				<g>
					<g>
						<path fill="#FFD93B" d="M27.9,17.2c0,3.3-3.1,6.1-7.4,6.9c-0.7,0.7-1.7,1.1-2.6,1.1c-0.9,0-1.9-0.4-2.6-1.1
							C11.2,23.3,8,20.5,8,17.2c0-1.5,0.7-2.4,1.8-2.9C9,8.8,14.5,5,18,8.9c3.4-3.8,8.9-0.2,8.1,5.5C27.3,14.8,27.9,15.7,27.9,17.2z
							"/>
					</g>
				</g>
			</g>
			<g>
				<g>
					<g>
						<g>
							<path fill="#F4C534" d="M20.4,21c-0.1,1.5-1.2,2.6-2.4,2.6c-1.2,0-2.3-1.2-2.4-2.6c0.2,0,0.3,0,0.5,0c0.3,0,0.6,0,0.8-0.1
								c0.4-0.1,0.8-0.4,1.1-0.7c0.3,0.3,0.7,0.6,1.1,0.7c0.3,0.1,0.5,0.1,0.8,0.1C20.1,21,20.2,21,20.4,21z"/>
						</g>
					</g>
				</g>
				<g>
					<g>
						<g>
							<path fill="#3E4347" d="M19.9,21c-0.1,1.2-0.9,2-1.9,2c-1,0-1.8-0.9-1.9-2c0.3,0,0.6,0,0.8-0.1c0.4-0.1,0.8-0.4,1.1-0.7
								c0.3,0.3,0.7,0.6,1.1,0.7C19.3,20.9,19.6,21,19.9,21z"/>
						</g>
					</g>
				</g>
				<g>
					<g>
						<g>
							<path fill="#31373A" d="M19.1,20.9C19.1,20.9,19.1,20.9,19.1,20.9c0,0.8-0.5,1.4-1.1,1.4c-0.6,0-1.1-0.6-1.1-1.4c0,0,0,0,0,0
								c0.4-0.1,0.8-0.4,1.1-0.7C18.3,20.5,18.7,20.7,19.1,20.9z"/>
						</g>
					</g>
				</g>
			</g>
			<g>
				<g>
					<g>
						<g>
							<path fill="#E9B02C" d="M18,20.4c-0.1,0-0.2-0.1-0.2-0.2v-2.5c0-0.1,0.1-0.2,0.2-0.2s0.2,0.1,0.2,0.2v2.5
								C18.2,20.3,18.1,20.4,18,20.4z"/>
						</g>
					</g>
				</g>
			</g>
			<g>
				<g>
					<g>
						<g>
							<g>
								<ellipse fill="#3E4347" cx="21.6" cy="12.9" rx="2.1" ry="2.8"/>
							</g>
						</g>
					</g>
					<g>
						<g>
							<g>
								<ellipse fill="#FFFFFF" cx="21.6" cy="13.2" rx="2" ry="2.7"/>
							</g>
						</g>
					</g>
					<g>
						<g>
							<g>
								<g>
									<g>
										<ellipse fill="#65B1EF" cx="21.3" cy="13.1" rx="1.2" ry="1.4"/>
									</g>
								</g>
							</g>
							<g>
								<g>
									<g>
										<ellipse fill="#3E4347" cx="21.3" cy="13.3" rx="0.6" ry="0.7"/>
									</g>
								</g>
							</g>
						</g>
						<g>
							<g>
								<g>
									<path fill="#FFFFFF" d="M22,12.9c0,0.1-0.1,0.3-0.3,0.3c-0.1,0-0.3-0.1-0.3-0.3s0.1-0.3,0.3-0.3C21.9,12.6,22,12.7,22,12.9
										z"/>
								</g>
							</g>
						</g>
					</g>
					<g>
						<g>
							<g>
								<path fill="#FFD93B" d="M25.2,16.1c0,0.9-1.5,1.7-3.3,1.7c-1.8,0-2.9-0.8-3.3-1.7c-0.5-1.1,0.8-1.9,3.3-1.7
									C23.7,14.6,25.2,15.2,25.2,16.1z"/>
							</g>
						</g>
					</g>
				</g>
				<g>
					<g>
						<g>
							<g>
								<ellipse fill="#3E4347" cx="14.4" cy="12.9" rx="2.1" ry="2.8"/>
							</g>
						</g>
					</g>
					<g>
						<g>
							<g>
								<ellipse fill="#FFFFFF" cx="14.4" cy="13.2" rx="2" ry="2.7"/>
							</g>
						</g>
					</g>
					<g>
						<g>
							<g>
								<g>
									<g>
										<ellipse fill="#65B1EF" cx="14.7" cy="13.1" rx="1.2" ry="1.4"/>
									</g>
								</g>
							</g>
							<g>
								<g>
									<g>
										<ellipse fill="#3E4347" cx="14.7" cy="13.3" rx="0.6" ry="0.7"/>
									</g>
								</g>
							</g>
						</g>
						<g>
							<g>
								<g>
									<path fill="#FFFFFF" d="M14,12.9c0,0.1,0.1,0.3,0.3,0.3c0.1,0,0.3-0.1,0.3-0.3s-0.1-0.3-0.3-0.3C14.1,12.6,14,12.7,14,12.9
										z"/>
								</g>
							</g>
						</g>
					</g>
					<g>
						<g>
							<g>
								<path fill="#FFD93B" d="M10.8,16.1c0,0.9,1.5,1.7,3.3,1.7s2.9-0.8,3.3-1.7c0.5-1.1-0.8-1.9-3.3-1.7
									C12.3,14.6,10.8,15.2,10.8,16.1z"/>
							</g>
						</g>
					</g>
					<g>
						<g>
							<g>
								<path fill="#E9B02C" d="M20.7,20.8c0.9-0.1,1.9-0.4,2.7-0.9c-0.8,0.6-1.7,1-2.7,1.2c-0.9,0.2-2,0-2.7-0.6
									c-0.7,0.7-1.7,0.8-2.7,0.6c-1-0.2-1.9-0.6-2.7-1.2c0.9,0.4,1.8,0.8,2.7,0.9c1,0.1,1.8,0,2.5-0.7c0.1-0.1,0.2-0.1,0.3,0l0,0
									C18.9,20.8,19.7,20.8,20.7,20.8z"/>
							</g>
						</g>
						<g>
							<g>
								<path fill="#E9B02C" d="M25.2,15.9c0,0-0.1-0.1-0.2-0.2c-0.4-0.4-1.5-1-2.5-1.1c-1.2-0.3-2-0.1-3,0c0.6-0.3,1.8-0.6,3.1-0.3
									C23.9,14.6,24.6,15.2,25.2,15.9z"/>
							</g>
						</g>
						<g>
							<g>
								<g>
									<path fill="#E9B02C" d="M13.5,14.6c-1.4,0.2-2.6,1.3-2.7,1.3c0.6-0.9,1.5-1.4,2.6-1.7c1.3-0.2,2.4,0,3.1,0.3
										C15.5,14.5,14.7,14.4,13.5,14.6z"/>
								</g>
							</g>
						</g>
					</g>
				</g>
			</g>
			<g>
				<g>
					<g>
						<g>
							<path fill="#6D4135" d="M20.3,16.8c-0.3,0.9-1.5,1.8-2.4,1.8c-0.9,0-2-0.9-2.4-1.8C15.3,15.9,16.5,15,18,15
								C19.5,15,20.6,15.9,20.3,16.8z"/>
						</g>
					</g>
				</g>
				<g>
					<g>
						<g>
							<path fill="#633B2A" d="M20.3,16.8c-0.3,0.9-1.5,1.8-2.4,1.8c-0.9,0-2-0.9-2.4-1.8c-0.1-0.2-0.1-0.4,0-0.6
								c0.5,0.8,1.6,1.5,2.4,1.5c0.8,0,1.8-0.7,2.4-1.5C20.4,16.5,20.4,16.7,20.3,16.8z"/>
						</g>
					</g>
				</g>
				<g opacity="0.15">
					<g>
						<ellipse fill="#FFFFFF" cx="18" cy="15.9" rx="1.1" ry="0.6"/>
					</g>
				</g>
			</g>
			<g>
				<g>
					<g>
						<g>
							<path fill="#3E4347" d="M20.4,9.2c0,0,3-0.7,4.4,2.9C24.8,12.2,24.2,7.5,20.4,9.2z"/>
						</g>
					</g>
				</g>
				<g>
					<g>
						<g>
							<path fill="#3E4347" d="M15.6,9.2c0,0-3-0.7-4.4,2.9C11.2,12.2,11.8,7.5,15.6,9.2z"/>
						</g>
					</g>
				</g>
			</g>
			<g>
				<g>
					<g>
						<path fill="#E9B02C" d="M27.9,17.6c-0.1,2.2-1.8,4.2-4,5.4c-0.9,0.5-2.2,0.9-3.3,1.2c-0.6,0.6-1.6,1.1-2.6,1.1
							c-1,0-1.9-0.4-2.6-1.1c-1-0.2-2.2-0.5-3.3-1.2c-2.1-1.1-3.9-3.1-4-5.4c-0.1-1.1,0.2-2.1,1-2.8c-0.8,0.7-1,1.7-0.9,2.8
							c0.2,2.3,2,4.1,4.1,5.1c1.4,0.7,2.4,0.8,3.4,1c0.7,0.6,1.4,1.1,2.4,1c0.9,0,1.6-0.3,2.3-0.9v0l0.1-0.1c1.2-0.2,2.3-0.5,3.4-1
							c2.1-1,3.9-2.9,4.1-5.1c0.1-1.1-0.1-2.2-1.1-2.9C27.7,15.3,28,16.4,27.9,17.6z"/>
					</g>
				</g>
			</g>
			<g>
				<g>
					<g>
						<path fill="#E24B4B" d="M18,23c0.6,0,1.2-0.4,1.5-0.9c-0.1-0.2-0.2-0.4-0.3-0.5c-0.3-0.3-0.7-0.4-1.1-0.2
							c-0.2,0.1-0.4,0.1-0.6,0.1c-0.4,0-0.8,0.1-1,0.4c0,0.1,0,0.1-0.1,0.2C16.8,22.7,17.4,23,18,23z"/>
					</g>
				</g>
			</g>
			<g opacity="0.2">
				<g>
					<g>
						<path fill="#FFFFFF" d="M19.1,21.8c0.1,0.2-0.2,0.3-0.3,0.2c-0.1-0.1-0.1-0.2-0.2-0.2c-0.1,0-0.2,0-0.3,0
							c-0.1-0.1,0-0.2,0.2-0.2C18.8,21.4,19.1,21.6,19.1,21.8z"/>
					</g>
				</g>
			</g>
			<g>
				<g>
					<g>
						<path fill="#D03F3F" d="M16.8,22.3c-0.1-0.2,0.1-0.5,0.3-0.6c0.4-0.2,0.9,0,1.2,0.7c0-0.1,0-0.3-0.1-0.4
							c-0.2-0.4,0-0.6,0.3-0.6c-0.1,0-0.3,0-0.4,0.1c-0.2,0.1-0.4,0.1-0.6,0.1c-0.4,0-0.8,0.1-1,0.4c0,0.1,0,0.1-0.1,0.2
							c0.3,0.5,0.8,0.8,1.3,0.9C17.4,22.9,16.9,22.6,16.8,22.3z"/>
					</g>
				</g>
			</g>
		</g>
		<g>
			<g>
				<g>
					<g>
						<path fill="#3E4347" d="M25.3,19.8c-1.1-0.4-2.4-0.8-3.6-0.5c0,0-0.1,0-0.1-0.1c0,0,0-0.1,0.1-0.1h0
							C22.9,18.8,24.3,19.4,25.3,19.8z"/>
					</g>
				</g>
				<g>
					<g>
						<path fill="#3E4347" d="M22.8,22.8c-0.5-1.3-1.8-2.4-3-2.6c-0.1,0-0.1-0.1-0.1-0.1c0-0.1,0.1-0.1,0.1-0.1h0
							C21.3,20.3,22.5,21.6,22.8,22.8z"/>
					</g>
				</g>
				<g>
					<g>
						<path fill="#3E4347" d="M24.6,22.2c-1-1.2-2.3-2.3-3.9-2.4c-0.1,0-0.1,0-0.1-0.1c0-0.1,0-0.1,0.1-0.1h0
							C22.5,19.7,23.7,21,24.6,22.2z"/>
					</g>
				</g>
				<g>
					<g>
						<path fill="#3E4347" d="M20.3,19.2c0,0,0-0.1,0-0.1c0,0,0,0,0,0h0c0.7-0.4,1.1-0.7,2.1-0.5c0.6,0.1,1.5,0.4,1.9,0.5
							c-1-0.3-2.9-0.9-3.9,0.2C20.4,19.3,20.3,19.3,20.3,19.2z"/>
					</g>
				</g>
			</g>
			<g>
				<g>
					<g>
						<path fill="#3E4347" d="M10.7,19.8c1.1-0.4,2.4-0.8,3.6-0.5c0,0,0.1,0,0.1-0.1c0,0,0-0.1-0.1-0.1h0
							C13.1,18.8,11.7,19.4,10.7,19.8z"/>
					</g>
				</g>
				<g>
					<g>
						<path fill="#3E4347" d="M13.2,22.8c0.5-1.3,1.8-2.4,3-2.6c0.1,0,0.1-0.1,0.1-0.1c0-0.1-0.1-0.1-0.1-0.1h0
							C14.7,20.3,13.5,21.6,13.2,22.8z"/>
					</g>
				</g>
				<g>
					<g>
						<path fill="#3E4347" d="M11.4,22.2c1-1.2,2.3-2.3,3.9-2.4c0.1,0,0.1,0,0.1-0.1c0-0.1,0-0.1-0.1-0.1h0
							C13.5,19.7,12.3,21,11.4,22.2z"/>
					</g>
				</g>
				<g>
					<g>
						<path fill="#3E4347" d="M15.7,19.2c0,0,0-0.1,0-0.1c0,0,0,0,0,0h0c-0.7-0.4-1.1-0.7-2.1-0.5c-0.6,0.1-1.5,0.4-1.9,0.5
							c1-0.3,2.9-0.9,3.9,0.2C15.6,19.3,15.7,19.3,15.7,19.2z"/>
					</g>
				</g>
			</g>
		</g>
	</g>
	<g>
		<g>
			<g>
				<g>
					<g>
						<path fill="#FFD93B" d="M32.7,5.6c1.5,1.5,1.7,3.8,0.4,5.1c-1.3,1.3-4.7,2.3-6.2,0.8c-1.5-1.5-0.5-4.9,0.8-6.2
							C29,4,31.2,4.1,32.7,5.6z"/>
					</g>
				</g>
				<g>
					<g>
						<path fill="#F4C534" d="M31.7,6.4c1.4,1.2,2,2.4,0.5,3.6c-2,1.6-5.2,1.1-5.9-0.4c-0.1-0.1-0.1-0.3-0.1-0.4
							c0,0.9,0.2,1.8,0.8,2.3c1.5,1.5,4.9,0.5,6.2-0.8c0.1-0.1,0.1-0.2,0.2-0.2C34.2,8.8,33.2,7.1,31.7,6.4z"/>
					</g>
				</g>
				<g>
					<g>
						<g>
							
								<ellipse transform="matrix(0.7071 -0.7071 0.7071 0.7071 3.0158 24.3021)" fill="#FC97B2" cx="30.8" cy="8.5" rx="2.3" ry="2.4"/>
						</g>
					</g>
				</g>
				<g>
					<g>
						<g>
							<path fill="#E88EA7" d="M32.5,6.9C32.5,6.9,32.5,6.9,32.5,6.9c-0.8-0.3-1.8-0.1-2.5,0.5c-0.9,0.9-0.9,2.4,0,3.3
								c-0.3-0.1-0.6-0.3-0.9-0.6c-0.9-0.9-1-2.4,0-3.4C30.1,5.9,31.6,5.9,32.5,6.9z"/>
						</g>
					</g>
				</g>
			</g>
			<g>
				<g>
					<g>
						<path fill="#6D4135" d="M24.8,8.2c1.1,0.2,2.3,0.5,3.3,1.1c-0.4,0-0.8,0-1.2,0.1c1.2,0.5,2.3,1.3,3.2,2.3
							c-0.3,0-0.6-0.1-0.9-0.1c0.8,0.5,1.4,1.5,1.4,2.5c-2.4-0.3-3.1,0.1-3.4-1c-0.4-1.6-1-3.2-2.2-4.4"/>
					</g>
				</g>
			</g>
		</g>
		<g>
			<g>
				<g>
					<g>
						<path fill="#FFD93B" d="M3.3,5.6c-1.5,1.5-1.7,3.8-0.4,5.1s4.7,2.3,6.2,0.8s0.5-4.9-0.8-6.2S4.8,4.1,3.3,5.6z"/>
					</g>
				</g>
				<g>
					<g>
						<path fill="#F4C534" d="M4.3,6.4c-1.4,1.2-2,2.4-0.5,3.6c2,1.6,5.2,1.1,5.9-0.4c0.1-0.1,0.1-0.3,0.1-0.4
							c0,0.9-0.2,1.8-0.8,2.3C7.6,13,4.2,12,2.9,10.7c-0.1-0.1-0.1-0.2-0.2-0.2C1.8,8.8,2.8,7.1,4.3,6.4z"/>
					</g>
				</g>
				<g>
					<g>
						<g>
							
								<ellipse transform="matrix(-0.7071 -0.7071 0.7071 -0.7071 2.7855 18.175)" fill="#FC97B2" cx="5.2" cy="8.5" rx="2.3" ry="2.4"/>
						</g>
					</g>
				</g>
				<g>
					<g>
						<g>
							<path fill="#E88EA7" d="M3.5,6.9C3.5,6.9,3.5,6.9,3.5,6.9C4.3,6.5,5.3,6.7,6,7.4c0.9,0.9,0.9,2.4,0,3.3
								c0.3-0.1,0.6-0.3,0.9-0.6c0.9-0.9,1-2.4,0-3.4C5.9,5.9,4.4,5.9,3.5,6.9z"/>
						</g>
					</g>
				</g>
			</g>
			<g>
				<g>
					<g>
						<path fill="#6D4135" d="M11.2,8.2C10,8.4,8.9,8.8,7.9,9.3c0.4,0,0.8,0,1.2,0.1c-1.2,0.5-2.3,1.3-3.2,2.3
							c0.3,0,0.6-0.1,0.9-0.1c-0.8,0.5-1.4,1.5-1.4,2.5c2.4-0.3,3,0.1,3.4-1c0.6-1.3,1-2.8,2.2-4.4"/>
					</g>
				</g>
			</g>
		</g>
	</g>
</g>
</svg>
