<?xml version="1.0" encoding="utf-8"?>
<!-- Generator: Adobe Illustrator 18.0.0, SVG Export Plug-In . SVG Version: 6.00 Build 0)  -->
<!DOCTYPE svg PUBLIC "-//W3C//DTD SVG 1.1//EN" "http://www.w3.org/Graphics/SVG/1.1/DTD/svg11.dtd">
<svg version="1.1" id="Layer_1" xmlns="http://www.w3.org/2000/svg" xmlns:xlink="http://www.w3.org/1999/xlink" x="0px" y="0px"
	 viewBox="0 0 36 36" enable-background="new 0 0 36 36" xml:space="preserve">
<g>
	<g>
		<g>
			<g>
				<g>
					<g>
						<g>
							<path fill="#F4C534" d="M27.6,6.3l-0.1,0.3c0,0,0,0,0,0c0.1-0.1,1.2-0.7,2.3-0.7l-0.6,0.5c0.1-0.1,1.4-0.3,2.7,0l-0.8,0.4
								c0,0,0.6,0,1.4,0.3c3.7,1.9,0.2,9.9-4.9,8.4C20.3,13.3,25.3,7.5,27.6,6.3z"/>
						</g>
					</g>
				</g>
				<g opacity="0.5">
					<g>
						<g>
							<path fill="#E9B02C" d="M27.5,15.5c-2-0.6-3.1-1.5-3.5-2.5c1,0.8,2.4,1.2,3.9,1.2c3.1,0,5.3-2,5.6-4.5c0.1-0.8,0-1.5-0.2-2.1
								C35.6,10.2,32.2,16.9,27.5,15.5z"/>
						</g>
					</g>
				</g>
				<g>
					<g>
						<g>
							<path fill="#FC97B2" d="M26.4,10.6c0.3-1.4,1.7-2.6,3.6-2.8c1.7-0.1,2.4,0.9,2.4,2.5C32.4,14.1,25.4,14.6,26.4,10.6z"/>
						</g>
					</g>
				</g>
				<g>
					<g>
						<g>
							<path fill="#EF7B9E" d="M32.2,8.9c-0.4-0.3-0.9-0.4-1.6-0.4c-2,0.2-3.3,1.4-3.6,2.8c-0.1,0.6-0.1,1.1,0,1.5
								c-0.6-0.4-0.9-1.2-0.6-2.3c0.3-1.4,1.7-2.6,3.6-2.8C31.2,7.7,31.9,8.1,32.2,8.9z"/>
						</g>
					</g>
				</g>
			</g>
			<g>
				<g>
					<g>
						<g>
							<path fill="#F4C534" d="M8.4,6.3l0.1,0.3c0,0,0,0,0,0C8.4,6.6,7.3,5.9,6.3,5.9l0.6,0.5c-0.1-0.1-1.4-0.3-2.7,0l0.8,0.4
								c0,0-0.6,0-1.4,0.3C-0.2,9,3.4,17,8.5,15.5C15.7,13.3,10.7,7.5,8.4,6.3z"/>
						</g>
					</g>
				</g>
				<g opacity="0.5">
					<g>
						<g>
							<path fill="#E9B02C" d="M8.5,15.5c2-0.6,3.1-1.5,3.5-2.5c-1,0.8-2.4,1.2-3.9,1.2c-3.1,0-5.3-2-5.6-4.5
								c-0.1-0.8,0-1.5,0.2-2.1C0.4,10.2,3.8,16.9,8.5,15.5z"/>
						</g>
					</g>
				</g>
				<g>
					<g>
						<g>
							<path fill="#FC97B2" d="M9.6,10.6C9.2,9.2,7.9,8,5.9,7.8c-1.7-0.1-2.4,0.9-2.4,2.5C3.6,14.1,10.6,14.6,9.6,10.6z"/>
						</g>
					</g>
				</g>
				<g>
					<g>
						<g>
							<path fill="#EF7B9E" d="M3.8,8.9c0.4-0.3,0.9-0.4,1.6-0.4c2,0.2,3.3,1.4,3.6,2.8c0.1,0.6,0.1,1.1,0,1.5
								c0.6-0.4,0.9-1.2,0.6-2.3C9.2,9.2,7.9,8,5.9,7.8C4.8,7.7,4.1,8.1,3.8,8.9z"/>
						</g>
					</g>
				</g>
			</g>
		</g>
		<g>
			<g>
				<g>
					<g>
						<path fill="#F29A2E" d="M18,30.3c0,0-0.1,0-0.1,0v0C18,30.3,18,30.3,18,30.3z"/>
					</g>
				</g>
			</g>
			<g>
				<g>
					<g>
						<g>
							<path fill="#F4C534" d="M30.4,23.7l-0.3-0.5c0,0,0,0,0,0c-0.1,0.3-0.7,2.3-1.9,3.6l0.2-1.3c0,0.2-1.4,2-3.3,3.3l0.5-1.4
								c0,0-2.9,2.6-6.1,2.8c-0.6,0-1,0.1-1.4,0.1c0,0-0.1,0-0.1,0c0,0-0.1,0-0.1,0c-0.4,0-0.8-0.1-1.4-0.1
								c-3.2-0.2-6.1-2.8-6.1-2.8l0.5,1.4c-1.9-1.3-3-2.8-3.3-3.2c0,0,0,0,0,0c0,0,0,0,0,0l0.2,1.2c-1.1-1.1-1.9-3.5-2-3.6l-0.2,0.5
								C2.9,16.4,8.5,7,18,7C27.5,7,33,16.5,30.4,23.7z"/>
						</g>
					</g>
				</g>
				<g>
					<g>
						<path fill="#F29A2E" d="M18.1,30.3L18.1,30.3C18.1,30.3,18,30.3,18.1,30.3C18,30.3,18.1,30.3,18.1,30.3z"/>
					</g>
				</g>
			</g>
		</g>
		<g>
			<g>
				<g>
					<g>
						<g>
							<path fill="#3E4347" d="M20.6,11c0,0,3.2,0,5,3C25.7,14,23.9,8.6,20.6,11z"/>
						</g>
					</g>
				</g>
				<g>
					<g>
						<g>
							<g>
								<g>
									<path fill="#FFFFFF" d="M26,17.9c0-1.8-2.5-5.4-4.3-5.4s-2.2,3.6-2.2,5.4c0,1.8,1.4,2.5,3.2,2.5S26,19.7,26,17.9z"/>
								</g>
							</g>
						</g>
						<g>
							<g>
								<g>
									<path fill="#3E4347" d="M21.8,12.3c-0.9,0-1.4,0.4-1.8,1.2c-0.6,1.3-0.5,3.1-0.5,4.3c0,0.6,0.2,1.1,0.4,1.4
										c0,0,0.2,0.2,0.4,0.4c0,0.1,0.4,0.3,0.4,0.3c0,0,0,0-0.1,0c-0.1-0.1-0.2-0.1-0.3-0.2c-0.5-0.4-0.8-1.1-0.8-1.8
										c0-1.3,0.5-2.9,0.9-4c0.2-0.3,0.5-0.8,0.8-1c0.3-0.3,1.5-0.2,2.7,1.1C23.7,13.4,22.6,12.5,21.8,12.3z"/>
								</g>
							</g>
						</g>
					</g>
					<g>
						<g>
							<g>
								<g>
									<ellipse fill="#65B1EF" cx="22.4" cy="17.1" rx="2" ry="2.3"/>
								</g>
							</g>
						</g>
						<g>
							<g>
								<g>
									<ellipse fill="#3E4347" cx="22.4" cy="17.3" rx="1.1" ry="1.2"/>
								</g>
							</g>
						</g>
						<g>
							<g>
								<g>
									<circle fill="#FFFFFF" cx="23" cy="16.6" r="0.4"/>
								</g>
							</g>
						</g>
					</g>
				</g>
			</g>
			<g>
				<g>
					<g>
						<g>
							<path fill="#3E4347" d="M15.4,11c0,0-3.2,0-5,3C10.3,14,12.1,8.6,15.4,11z"/>
						</g>
					</g>
				</g>
				<g>
					<g>
						<g>
							<g>
								<g>
									<path fill="#FFFFFF" d="M10,17.9c0-1.8,2.5-5.4,4.3-5.4s2.2,3.6,2.2,5.4c0,1.8-1.4,2.5-3.2,2.5S10,19.7,10,17.9z"/>
								</g>
							</g>
						</g>
						<g>
							<g>
								<g>
									<path fill="#3E4347" d="M12,13.9c1.2-1.3,2.4-1.4,2.7-1.1c0.4,0.2,0.7,0.7,0.8,1c0.5,1.1,0.9,2.8,0.9,4
										c0,0.7-0.2,1.4-0.8,1.8c-0.1,0.1-0.2,0.2-0.3,0.2c0,0,0,0-0.1,0c0.1,0,0.4-0.2,0.4-0.3c0.2-0.1,0.3-0.4,0.4-0.4
										c0.2-0.3,0.4-0.8,0.4-1.4c0-1.2,0.1-3-0.5-4.3c-0.4-0.8-0.9-1.3-1.8-1.2C13.4,12.5,12.3,13.4,12,13.9z"/>
								</g>
							</g>
						</g>
					</g>
					<g>
						<g>
							<g>
								<g>
									<ellipse fill="#65B1EF" cx="13.6" cy="17.1" rx="2" ry="2.3"/>
								</g>
							</g>
						</g>
						<g>
							<g>
								<g>
									<ellipse fill="#3E4347" cx="13.6" cy="17.3" rx="1.1" ry="1.2"/>
								</g>
							</g>
						</g>
						<g>
							<g>
								<g>
									<circle fill="#FFFFFF" cx="13" cy="16.6" r="0.4"/>
								</g>
							</g>
						</g>
					</g>
				</g>
			</g>
		</g>
		<g>
			<g>
				<g>
					<path fill="#E9EFF4" d="M25.1,27c-2.4,2-3,2.4-3.6,4.4c-0.3,0.9-1.7,1-2.6,0.5c-0.5-0.3-1.1-0.3-1.5,0c-1,0.5-2.3,0.4-2.7-0.5
						c-0.7-2-1.2-2.4-3.6-4.4c-6.2-5.4,3-10.7,7.1-5C22.1,16.3,31.3,21.6,25.1,27z"/>
				</g>
			</g>
		</g>
		<g>
			<g>
				<g>
					<path fill="#CBD6E0" d="M21.3,26.7c-0.3,2.1-1.6,3.7-3.1,3.7s-2.9-1.6-3.2-3.7c0.1,0.1,0.3,0.1,0.4,0.2
						c1.5,0.3,2.4-0.4,2.7-1.4c0.2,0.8,1,1.5,1.8,1.5C20.3,27,20.8,26.9,21.3,26.7z"/>
				</g>
			</g>
		</g>
		<g>
			<g>
				<g>
					<path fill="#6D4135" d="M20.6,26.8c-0.1,1.8-1.2,3.2-2.5,3.2c-1.3,0-2.4-1.4-2.5-3.2c0.1,0,0.1,0,0.2,0
						c1.2,0.2,2.3-0.9,2.3-2.1c0,1.2,1.1,2.3,2.3,2.1C20.5,26.8,20.5,26.8,20.6,26.8z"/>
				</g>
			</g>
		</g>
		<g>
			<g>
				<g>
					<path fill="#5B331D" d="M18.1,28.6c0.6,0,1.1-0.8,1.2-1.9c-0.7-0.3-1.2-1.1-1.2-1.9c0,0.9-0.5,1.6-1.2,1.9
						C17,27.7,17.5,28.6,18.1,28.6z"/>
				</g>
			</g>
		</g>
		<g>
			<g>
				<g>
					<g>
						<g>
							<path fill="#D3D9DD" d="M23.2,26.3c0-0.3-0.1-0.7-0.4-0.9c-0.1-0.1-0.3-0.1-0.4-0.2C23.1,24.9,23.6,25.7,23.2,26.3z"/>
						</g>
					</g>
					<g>
						<g>
							<path fill="#D3D9DD" d="M13,26.3c-0.4-0.5,0.1-1.3,0.8-1.1C13.3,25.4,13,25.5,13,26.3z"/>
						</g>
					</g>
					<g>
						<g>
							<path fill="#D3D9DD" d="M22.9,25.7c-0.7,0.7-2,1.4-2.9,1.3c-0.8-0.1-1.6-0.7-1.8-1.5c-0.3,1-1.3,1.8-2.7,1.4
								c-0.9-0.3-1.8-0.9-2-1.2c0.6,0.4,1.4,0.8,2.1,0.9c1.5,0.4,2.5-0.6,2.6-2.1c0-0.3,0-2,0.1-4c0.1,3.7,0.1,4.1,0.1,4.1
								c0.1,1.3,0.8,2,1.7,2.1C20.8,26.9,22.1,26.2,22.9,25.7z"/>
						</g>
					</g>
				</g>
			</g>
		</g>
		<g>
			<g>
				<g>
					<path fill="#E24B4B" d="M18.1,30c0.7,0,1.4-0.4,1.8-1.1c-0.1-0.5-0.3-0.9-0.7-1.2c-0.3-0.2-0.7-0.3-1.1-0.1c-0.1,0-0.2,0-0.2,0
						c0,0-0.1,0-0.1,0c-0.4,0-0.7,0.1-1,0.3c-0.2,0.3-0.4,0.6-0.5,1C16.7,29.6,17.4,30,18.1,30z"/>
				</g>
			</g>
		</g>
		<g opacity="0.15">
			<g>
				<g>
					<path fill="#FFFFFF" d="M19.2,28.2c-0.1,0.1-0.3,0.2-0.5,0.1c-0.2-0.1-0.3-0.3-0.3-0.4c0.1-0.1,0.3-0.2,0.5-0.1
						C19.1,27.9,19.3,28.1,19.2,28.2z"/>
				</g>
			</g>
		</g>
		<g>
			<g>
				<g>
					<path fill="#D03F3F" d="M17.2,28.1c0.4-0.4,0.9-0.3,1,0.7c0-0.2,0-1,0.2-1.2c0.1-0.1,0.3-0.1,0.4-0.1c0.3,0.1,0.5,0.3,0.7,0.5
						c-0.1-0.1-0.2-0.3-0.3-0.4c-0.3-0.2-0.7-0.3-1.1-0.1c-0.1,0-0.2,0-0.2,0c0,0-0.1,0-0.1,0c-0.4,0-0.7,0.1-1,0.3
						c-0.2,0.3-0.4,0.6-0.5,1c0.3,0.4,0.6,0.7,0.9,0.9c-0.1-0.1-0.2-0.3-0.3-0.5C16.8,28.9,16.9,28.4,17.2,28.1z"/>
				</g>
			</g>
		</g>
		<g>
			<g>
				<g>
					<path fill="#F4C534" d="M23.2,8.4c-0.3-0.3-0.5-0.5-0.6-0.9c-0.4-0.9,0-1.7,1.4-1.8c-0.9-0.5-2-0.6-2.9-0.2
						c0-0.6-0.1-1.2-0.3-1.8c0.1,1-1.1,1.1-1.6,1.8c-0.1-0.5,0-1.1,0.3-1.5c-0.6,0.1-1.2,0.6-1.4,1.2c0.1-0.7-0.5-1.4-1.2-1.5
						c0.4,1.5-1.3,1.7-1.9,2.7c-0.1-0.3,0.1-0.8,0.4-1.4c-1.1,0.9-2.1,2-2.9,3.2C16.4,7.4,19.9,7.4,23.2,8.4z"/>
				</g>
			</g>
		</g>
		<g>
			<g>
				<g>
					<g>
						<path fill="#3E4347" d="M30.1,15.1c-0.5,0.8-1.1,1.6-2.4,2.2c1-0.2,1.9-0.6,2.7-1.2C30.3,15.7,30.2,15.4,30.1,15.1z"/>
					</g>
				</g>
				<g>
					<g>
						<path fill="#3E4347" d="M28.7,12.6c-0.2,1.8-1,3-2,3.6c0.8-0.1,1.9-1,2.8-2.4C29.3,13.4,29,13,28.7,12.6z"/>
					</g>
				</g>
				<g>
					<g>
						<path fill="#3E4347" d="M7.3,12.6C7,13,6.7,13.4,6.5,13.8c0.8,1.5,1.9,2.3,2.8,2.4C8.3,15.7,7.4,14.3,7.3,12.6z"/>
					</g>
				</g>
				<g>
					<g>
						<path fill="#3E4347" d="M5,21c0,0.5,0.1,0.9,0.2,1.4c0.8-1.8,2.2-2.8,3.9-2.9C7.7,19.3,6.2,19.8,5,21z"/>
					</g>
				</g>
				<g>
					<g>
						<path fill="#3E4347" d="M28.2,18.3c0.9,0,2,0.5,2.9,1.4c0-0.4,0-0.7-0.1-1.1C30,18.1,29,18.1,28.2,18.3z"/>
					</g>
				</g>
				<g>
					<g>
						<path fill="#3E4347" d="M31,21c-1.2-1.2-2.7-1.7-4.1-1.6c1.6,0.2,3.1,1.1,3.9,3C30.9,21.9,31,21.5,31,21z"/>
					</g>
				</g>
				<g>
					<g>
						<path fill="#3E4347" d="M4.9,19.6c0.8-0.8,1.9-1.3,2.9-1.4C7,18.1,6,18.1,5,18.6C5,18.9,5,19.3,4.9,19.6z"/>
					</g>
				</g>
				<g>
					<g>
						<path fill="#3E4347" d="M6.1,16.5c1,0.6,2.2,0.8,2.2,0.8s-1.1-0.5-1.8-1.3c-0.3-0.3-0.5-0.6-0.6-0.8c-0.1,0.3-0.2,0.6-0.3,1
							C5.7,16.2,5.9,16.3,6.1,16.5z"/>
					</g>
				</g>
			</g>
		</g>
		<g>
			<g>
				<g>
					<g>
						<g>
							<path fill="#3E4347" d="M29.8,27c-0.9-1.1-4.5-3.8-8-2.4c-0.1,0.1-0.2,0-0.2-0.1c-0.1-0.1,0-0.2,0.1-0.2c0,0,0,0,0,0
								C25.2,22.8,29,25.7,29.8,27z"/>
						</g>
					</g>
					<g>
						<g>
							<path fill="#3E4347" d="M28.5,29.7c-0.5-2.1-2.3-3.9-4.3-4.6c-0.1,0-0.1-0.1-0.1-0.2c0-0.1,0.1-0.1,0.2-0.1c0,0,0,0,0,0l0,0
								C26.6,25.7,28.2,27.8,28.5,29.7z"/>
						</g>
					</g>
					<g>
						<g>
							<path fill="#3E4347" d="M22.1,23.5c0-0.1,0-0.2,0.1-0.2c0,0,0,0,0,0h0c2.6-1,5.3-0.4,7.4,1.3c-2.2-1.5-4.8-2-7.3-0.9
								C22.2,23.6,22.1,23.6,22.1,23.5z"/>
						</g>
					</g>
				</g>
			</g>
			<g>
				<g>
					<g>
						<g>
							<path fill="#3E4347" d="M6.2,27c0.9-1.1,4.5-3.8,8-2.4c0.1,0.1,0.2,0,0.2-0.1c0.1-0.1,0-0.2-0.1-0.2c0,0,0,0,0,0
								C10.9,22.8,7.1,25.7,6.2,27z"/>
						</g>
					</g>
					<g>
						<g>
							<path fill="#3E4347" d="M7.5,29.7c0.5-2.1,2.3-3.9,4.3-4.6c0.1,0,0.1-0.1,0.1-0.2c0-0.1-0.1-0.1-0.2-0.1c0,0,0,0,0,0l0,0
								C9.5,25.7,7.8,27.8,7.5,29.7z"/>
						</g>
					</g>
					<g>
						<g>
							<path fill="#3E4347" d="M14,23.5c0-0.1,0-0.2-0.1-0.2c0,0,0,0,0,0h0c-2.6-1-5.3-0.4-7.4,1.3c2.2-1.5,4.8-2,7.3-0.9
								C13.8,23.6,13.9,23.6,14,23.5z"/>
						</g>
					</g>
				</g>
			</g>
		</g>
		<g opacity="0.5">
			<g>
				<g>
					<path fill="#D3D9DD" d="M24.9,27.1c-1.1,1-2.3,1.8-3,3.1c-0.6,1.1-0.4,2.2-2.2,2c-0.6,0-1.1-0.5-1.7-0.5
						c-0.3,0-0.6,0.1-0.9,0.2c-0.7,0.4-1.9,0.4-2.4-0.3c-0.6-1.1-0.3-1.4-1.5-2.7c-0.8-0.9-1.4-1.2-2.2-1.9c0.4,0.2,1.8,1.1,2.4,1.8
						c1,1,1.6,2.6,1.6,2.6c0.3,0.3,1,0.5,1.9,0.1c0.3-0.2,0.6-0.3,1.1-0.3c0.8,0,1,0.4,1.7,0.5c1.3,0.2,1.2-0.6,1.8-1.7
						C22.2,29,23,28.3,24.9,27.1z"/>
				</g>
			</g>
		</g>
	</g>
	<g>
		<g>
			<g>
				<g>
					<path fill="#6D4135" d="M18.1,23.6c-3,0-5.4-4.9,0-4.9C23.3,18.7,21.1,23.6,18.1,23.6z"/>
				</g>
			</g>
		</g>
		<g>
			<g>
				<g>
					<path fill="#633B2A" d="M18.1,23.6c-2.1,0-3.9-2.4-3-3.9c-0.2,1.3,1.3,2.9,3,2.9c1.7,0,3.1-1.6,2.9-2.9
						C21.9,21.2,20.2,23.6,18.1,23.6z"/>
				</g>
			</g>
		</g>
		<g opacity="0.15">
			<g>
				<g>
					<path fill="#FFFFFF" d="M19.5,19.7c0,0.3-0.6,0.6-1.5,0.6c-0.8,0-1.5-0.3-1.5-0.6s0.7-0.6,1.5-0.6
						C18.8,19.1,19.5,19.3,19.5,19.7z"/>
				</g>
			</g>
		</g>
	</g>
</g>
</svg>
