<?xml version="1.0" encoding="utf-8"?>
<!-- Generator: Adobe Illustrator 18.0.0, SVG Export Plug-In . SVG Version: 6.00 Build 0)  -->
<!DOCTYPE svg PUBLIC "-//W3C//DTD SVG 1.1//EN" "http://www.w3.org/Graphics/SVG/1.1/DTD/svg11.dtd">
<svg version="1.1" id="Layer_1" xmlns="http://www.w3.org/2000/svg" xmlns:xlink="http://www.w3.org/1999/xlink" x="0px" y="0px"
	 viewBox="0 0 36 36" enable-background="new 0 0 36 36" xml:space="preserve">
<g id="XMLID_2_">
	<g id="XMLID_49_">
		<g id="XMLID_106_">
			<g>
				<path fill="#4D98D2" d="M2,27.2c2.1,0,3.7-1.7,3.7-3.7C3.7,23.5,2,25.1,2,27.2z"/>
			</g>
		</g>
		<g id="XMLID_102_">
			<g>
				<path fill="#4D98D2" d="M33.4,25.9c-0.3-0.5-0.4-1-0.4-1.5c0.1-1.7-0.5-2.3-0.5-2.3s0.6-0.7,0.5-2.3c0-0.5,0.1-1,0.4-1.5
					c0.2-0.2,0.4-0.5,0.6-0.6c0,0-3.3-0.5-3.9,1.8c0,0-0.6,1.9-2.2,1.9c-9.8-2.1-12.1-8.7-16.7-8.8c-4.4,0-7.9,3.5-7.9,7.9
					s3.5,7.9,7.9,7.9c3.2,0,11.3-4,15.8-5.5c0.2-0.1,0.7-0.2,0.7-0.2c1.8-0.2,2.4,1.9,2.4,1.9c0.6,2.4,3.9,1.8,3.9,1.8
					C33.7,26.4,33.5,26.1,33.4,25.9z"/>
			</g>
		</g>
		<g id="XMLID_101_">
			<g>
				<path fill="#DAE5EF" d="M13.2,22.9c-3.7-1.3-6.9-0.6-9.3,0.9c1.2,2.7,4,4.6,7.2,4.7c2.1,0,6.5-1.8,10.5-3.4
					C19.2,24.5,16.3,24,13.2,22.9z"/>
			</g>
		</g>
		<g>
			<g id="XMLID_79_">
				<g>
					<path fill="#428DC3" d="M5.5,23c0.6,0.7,2.1,1.3,3.8,1.3c1.8,0,3.3-0.6,3.9-1.4C10.2,21.8,7.6,22,5.5,23z"/>
				</g>
			</g>
		</g>
		<g id="XMLID_62_">
			<g id="XMLID_70_">
				<g id="XMLID_76_">
					<g>
						<circle fill="#FFFFFF" cx="6.7" cy="19.9" r="1.4"/>
					</g>
				</g>
				<g id="XMLID_74_">
					<g>
						<circle fill="#3F4347" cx="6.7" cy="19.9" r="0.8"/>
					</g>
				</g>
				<g id="XMLID_72_">
					<g>
						<circle fill="#FFFFFF" cx="6.1" cy="19.3" r="0.4"/>
					</g>
				</g>
			</g>
			<g id="XMLID_64_">
				<g id="XMLID_68_">
					<g>
						<circle fill="#FFFFFF" cx="11.9" cy="19.9" r="1.4"/>
					</g>
				</g>
				<g id="XMLID_67_">
					<g>
						<circle fill="#3F4347" cx="11.9" cy="19.9" r="0.8"/>
					</g>
				</g>
				<g id="XMLID_66_">
					<g>
						<circle fill="#FFFFFF" cx="11.4" cy="19.3" r="0.4"/>
					</g>
				</g>
			</g>
		</g>
		<g id="XMLID_60_">
			<g>
				<path fill="#428DC3" d="M15.2,23.5c0,3,2.4,5.4,5.4,5.4C20.6,26,18.2,23.5,15.2,23.5z"/>
			</g>
		</g>
		<g id="XMLID_57_">
			<g id="XMLID_58_">
				<g>
					<path fill="#4CC6E5" d="M9.9,7c-0.5,0-1,0.4-1,1s1,2.9,1,2.9s1-2.4,1-2.9S10.4,7,9.9,7z"/>
				</g>
			</g>
		</g>
	</g>
	<g id="XMLID_35_">
		<g id="XMLID_38_">
			<g id="XMLID_44_">
				<g>
					<path fill="#4CC6E5" d="M14.1,10.4c-0.1,0.3-0.3,0.4-0.6,0.5c-0.3,0-0.6-0.1-0.7-0.3c-0.1-0.1-0.1-0.3-0.2-0.5
						c-0.1-0.1-0.2-0.3-0.4-0.3c-0.1,0-0.2,0-0.2,0.1c-0.6,0.3-1,0.9-1.2,1.5c0-0.1,0-0.1,0-0.2c0.2-1.3,1.3-1.9,1.8-2
						c0.4-0.1,0.8-0.1,1.1,0.2C14,9.5,14.2,10,14.1,10.4z"/>
				</g>
			</g>
		</g>
		<g id="XMLID_36_">
			<g id="XMLID_37_">
				<g>
					<path fill="#4CC6E5" d="M5.7,10.4c0.1,0.3,0.3,0.4,0.6,0.5c0.3,0,0.6-0.1,0.7-0.3c0.1-0.1,0.1-0.3,0.2-0.5
						c0.1-0.1,0.2-0.3,0.4-0.3c0.1,0,0.2,0,0.2,0.1c0.6,0.3,1,0.9,1.2,1.5c0-0.1,0-0.1,0-0.2c-0.2-1.3-1.3-1.9-1.8-2
						C6.8,9.1,6.4,9.1,6.1,9.3C5.7,9.5,5.5,10,5.7,10.4z"/>
				</g>
			</g>
		</g>
	</g>
</g>
</svg>
