<?xml version="1.0" encoding="utf-8"?>
<!-- Generator: Adobe Illustrator 18.0.0, SVG Export Plug-In . SVG Version: 6.00 Build 0)  -->
<!DOCTYPE svg PUBLIC "-//W3C//DTD SVG 1.1//EN" "http://www.w3.org/Graphics/SVG/1.1/DTD/svg11.dtd">
<svg version="1.1" id="Layer_1" xmlns="http://www.w3.org/2000/svg" xmlns:xlink="http://www.w3.org/1999/xlink" x="0px" y="0px"
	 viewBox="0 0 36 36" enable-background="new 0 0 36 36" xml:space="preserve">
<g>
	<g>
		<g>
			<g>
				<g>
					<g>
						<g>
							<g>
								<path fill="#FC97B2" d="M34,10c-0.6,3.5-0.7,4.4-1.4,5.3c-2.1,3-2.2,3.5-3.4,2.7c-1.8-1.2-1.7-0.2-2.8-0.3
									c-0.9-0.1-3.2-3.1-3.8-4.2C17.9,5.1,34.6,6.8,34,10z"/>
							</g>
						</g>
					</g>
					<g>
						<g>
							<path fill="#E88EA7" d="M33.2,14.2c0.2-0.8,0.4-1.9,0.8-4c-0.4-0.1-0.8-0.3-1.2-0.8c-1-1.4-5.5-1.2-7-1.1
								c-0.8,0.1-3,4.2-3,5.4c0.8,1.2,2.9,3.9,3.7,4c0.1,0,0.1,0,0.2,0c-0.8-0.7-1.6-1.6-2.2-2.6c-2.2-3.6,1.1-6.4,2.9-4.7
								c0.6,0.6,1,1.4,1.7,1.9c0.8,0.6,1.9,0.5,2.8-0.2c0.2-0.2,0.5-0.4,0.7-0.6c0.3-0.1,0.6-0.1,0.7,0.1c0.1,0.2,0.1,0.5,0.1,0.8
								C33.3,13,33.2,13.6,33.2,14.2z"/>
						</g>
					</g>
					<g>
						<g>
							<g>
								<path fill="#DAE5EF" d="M34,10c0.6-3.2-16.1-4.9-11.3,3.5c0.2,0.4,0.7,1,1.2,1.7c-0.4-0.7-0.6-1.3-0.7-2.1
									c-0.1-1.6,0.9-3.3,2.2-3.8c1.3-0.5,2.5,0.2,3.7,0.8c1.1,0.6,2.5,1.1,3.7,0.4c0.2-0.1,0.3-0.2,0.5-0.2c0.4,0,0.5,0.6,0.4,1.1
									C33.8,10.9,33.9,10.5,34,10z"/>
							</g>
						</g>
						<g>
							<g>
								<path fill="#DAE5EF" d="M33.6,12.1c0-0.1,0-0.2,0.1-0.3C33.6,11.9,33.6,12,33.6,12.1z"/>
							</g>
						</g>
					</g>
				</g>
				<g>
					<g>
						<g>
							<g>
								<path fill="#FC97B2" d="M2,10c0.6,3.5,0.7,4.4,1.4,5.3c2.1,3,2.2,3.5,3.4,2.7c1.8-1.2,1.7-0.2,2.8-0.3
									c0.9-0.1,3.2-3.1,3.8-4.2C18.1,5.1,1.4,6.8,2,10z"/>
							</g>
						</g>
					</g>
					<g>
						<g>
							<path fill="#E88EA7" d="M2.8,14.2c-0.2-0.8-0.4-1.9-0.8-4c0.4-0.1,0.8-0.3,1.2-0.8c1-1.4,5.5-1.2,7-1.1c0.8,0.1,3,4.2,3,5.4
								c-0.8,1.2-2.9,3.9-3.7,4c-0.1,0-0.1,0-0.2,0c0.8-0.7,1.6-1.6,2.2-2.6c2.2-3.6-1.1-6.4-2.9-4.7c-0.6,0.6-1,1.4-1.7,1.9
								c-0.8,0.6-1.9,0.5-2.8-0.2c-0.2-0.2-0.5-0.4-0.7-0.6s-0.6-0.1-0.7,0.1c-0.1,0.2-0.1,0.5-0.1,0.8C2.7,13,2.8,13.6,2.8,14.2z"
								/>
						</g>
					</g>
					<g>
						<g>
							<g>
								<path fill="#DAE5EF" d="M2,10c-0.6-3.2,16.1-4.9,11.3,3.5c-0.2,0.4-0.7,1-1.2,1.7c0.4-0.7,0.6-1.3,0.7-2.1
									c0.1-1.6-0.9-3.3-2.2-3.8C9.3,8.8,8.1,9.4,6.9,10c-1.1,0.6-2.5,1.1-3.7,0.4c-0.2-0.1-0.3-0.2-0.5-0.2
									c-0.4,0-0.5,0.6-0.4,1.1C2.2,10.9,2.1,10.5,2,10z"/>
							</g>
						</g>
						<g>
							<g>
								<path fill="#DAE5EF" d="M2.4,12.1c0-0.1,0-0.2-0.1-0.3C2.4,11.9,2.4,12,2.4,12.1z"/>
							</g>
						</g>
					</g>
				</g>
			</g>
			<g>
				<g>
					<g>
						<path fill="#DAE5EF" d="M18,28.3c-6.7,0-12.2-3.9-7.9-12.2c-2.3-5.4,3.2-7.8,7.9-7.8s10.2,2.4,7.9,7.8
							C30.2,24.4,24.7,28.3,18,28.3z"/>
					</g>
				</g>
			</g>
			<g opacity="0.5">
				<g>
					<g>
						<path fill="#CBD6E0" d="M26.5,24.8c-1.2,1.8-3.6,3.4-8.5,3.5c-4.8-0.1-7.3-1.8-8.5-3.5c-0.8-1.5-1.2-2.6-0.8-4.8
							c0.1-0.9,0.6-2.3,1-3.1C9.5,17.6,9,19.1,9,20.1c-0.2,2.6,0.6,3.7,1,4.4c1.8,2.4,5,3,8,3.1c2.9-0.1,6.1-0.6,8-3.1
							c0.9-1.6,1.3-2.9,0.9-5.3c-0.3-1.6-0.3-1-0.6-2.2c0.6,1.4,0.6,1.5,0.8,2.1C28,22.1,27,23.8,26.5,24.8z"/>
					</g>
				</g>
			</g>
			<g>
				<g>
					<g>
						<path fill="#CBD6E0" d="M18,28.3l-0.2,0c-0.9-1.1-1.4-1.8-2.1-3c-0.7-1.2-1.1-2.4-1.5-3.4c-0.1,1.3,0.3,2.6,0.9,3.7
							c0.9,1.7,2,2.3,2.6,2.7C17.8,28.3,17.9,28.3,18,28.3L18,28.3z"/>
					</g>
				</g>
				<g>
					<g>
						<path fill="#CBD6E0" d="M25.3,26.1c-1,0.2-2.2-0.2-3.1-1.1c-1-1.1-1.1-2.6-0.7-3.2c0.1,0.7,0.5,1.9,1.2,2.7
							C23.6,25.5,24.5,25.8,25.3,26.1z"/>
					</g>
				</g>
			</g>
			<g>
				<g>
					<g>
						<path fill="#DAE5EF" d="M33,20.8c0,0.4-0.2,0.8-0.5,1v0c0.2,3.3-1.6,6.2-3.8,7.4c-2.4,1.5-5.4,1.7-7.8,0.9
							c-2.1-0.7-3.8-2.1-5-3.8c-0.9-1.4-1.5-2.8-1.7-4.4h7.3c-0.1,0.7,0.1,2.1,1.1,3c1,1.1,2.9,1.6,4.9,0.9c0,0,0,0,0,0
							c2-1,3.1-2.4,3.5-4.3c-0.2-0.2-0.3-0.5-0.3-0.8c0-0.6,0.5,0,1.2,0C32.5,20.8,33,20.1,33,20.8z"/>
					</g>
				</g>
			</g>
			<g>
				<g>
					<g>
						<g>
							<g>
								<g>
									<path fill="#3E4347" d="M24,16.7c0,1.6-1,2.2-2.3,2.2s-2.3-0.6-2.3-2.2c0-1.6,0-3.5,1.3-3.5S24,15.1,24,16.7z"/>
								</g>
							</g>
						</g>
						<g>
							<g>
								<g>
									<path fill="#FFFFFF" d="M23.9,17c0,1.5-1,2.1-2.2,2.1c-1.2,0-2.2-0.6-2.2-2.1c0-1.5,0-3.3,1.3-3.3
										C22,13.7,23.9,15.5,23.9,17z"/>
								</g>
							</g>
						</g>
						<g>
							<g>
								<g>
									<g>
										<ellipse fill="#65B1EF" cx="21.5" cy="16.8" rx="1.4" ry="1.7"/>
									</g>
								</g>
							</g>
							<g>
								<g>
									<g>
										<ellipse fill="#3E4347" cx="21.5" cy="16.9" rx="0.7" ry="0.9"/>
									</g>
								</g>
							</g>
							<g>
								<g>
									<circle fill="#FFFFFF" cx="22.2" cy="16.5" r="0.3"/>
								</g>
							</g>
						</g>
					</g>
					<g>
						<g>
							<g>
								<path fill="#DAE5EF" d="M23.6,20.1c-0.8-1.6-2.6-2.4-4.4-1.8c-1,0.3-1.8,1-2.2,1.8H23.6z"/>
							</g>
						</g>
						<g>
							<g>
								<g>
									<path fill="#CBD6E0" d="M23.6,20.1c-0.5-0.6-1-1.2-1.9-1.6c-1-0.4-1.7-0.4-2.5-0.3c0.9-0.4,1.7-0.4,2.6,0
										C22.8,18.6,23.3,19.2,23.6,20.1z"/>
								</g>
							</g>
						</g>
					</g>
				</g>
				<g>
					<g>
						<g>
							<g>
								<g>
									<path fill="#3E4347" d="M12,16.7c0,1.6,1,2.2,2.3,2.2s2.3-0.6,2.3-2.2c0-1.6,0-3.5-1.3-3.5S12,15.1,12,16.7z"/>
								</g>
							</g>
						</g>
						<g>
							<g>
								<g>
									<path fill="#FFFFFF" d="M12.1,17c0,1.5,1,2.1,2.2,2.1s2.2-0.6,2.2-2.1c0-1.5,0-3.3-1.3-3.3S12.1,15.5,12.1,17z"/>
								</g>
							</g>
						</g>
						<g>
							<g>
								<g>
									<g>
										<ellipse fill="#65B1EF" cx="14.5" cy="16.8" rx="1.4" ry="1.7"/>
									</g>
								</g>
							</g>
							<g>
								<g>
									<g>
										<ellipse fill="#3E4347" cx="14.5" cy="16.9" rx="0.7" ry="0.9"/>
									</g>
								</g>
							</g>
							<g>
								<g>
									<circle fill="#FFFFFF" cx="13.8" cy="16.5" r="0.3"/>
								</g>
							</g>
						</g>
					</g>
					<g>
						<g>
							<g>
								<path fill="#DAE5EF" d="M12.4,20.1c0.8-1.6,2.6-2.4,4.4-1.8c1,0.3,1.8,1,2.2,1.8H12.4z"/>
							</g>
						</g>
						<g>
							<g>
								<g>
									<path fill="#CBD6E0" d="M12.4,20.1c0.3-0.8,0.9-1.4,1.8-1.8c0.6-0.2,1.4-0.5,2.6,0c-0.6-0.1-1.5-0.2-2.5,0.3
										C13.4,18.9,12.9,19.4,12.4,20.1z"/>
								</g>
							</g>
						</g>
					</g>
				</g>
			</g>
			<g>
				<g>
					<g>
						<g>
							<path fill="#CBD6E0" d="M23.8,13.8c-0.4-0.9-1.3-1.6-2.6-1.8c-0.6-0.1-1.3-0.1-1.9,0.1c0.6-0.6,1.4-0.9,2.3-0.7
								C22.8,11.6,23.7,12.6,23.8,13.8z"/>
						</g>
					</g>
				</g>
				<g>
					<g>
						<g>
							<path fill="#CBD6E0" d="M12.2,13.8c0.4-0.9,1.3-1.6,2.6-1.8c0.6-0.1,1.3-0.1,1.9,0.1c-0.6-0.6-1.4-0.9-2.3-0.7
								C13.2,11.6,12.3,12.6,12.2,13.8z"/>
						</g>
					</g>
				</g>
			</g>
		</g>
		<g>
			<g>
				<g>
					<g>
						<path fill="#CBD6E0" d="M15.1,21.7c0.7-0.6,1.5-1,2.5-1c1.1,0,1.9,0.3,2.6,0.9c-0.8-0.4-1.6-0.7-2.6-0.6
							C16.7,20.9,15.9,21.3,15.1,21.7z"/>
					</g>
				</g>
			</g>
			<g>
				<g>
					<g>
						<path fill="#CBD6E0" d="M15.9,23.3c0.5-0.4,1.3-0.7,2.1-0.9c1-0.2,1.6,0,2.2,0.4c-0.6-0.2-1.2-0.3-2.1-0.2
							C17.3,22.7,16.5,23,15.9,23.3z"/>
					</g>
				</g>
			</g>
			<g>
				<g>
					<g>
						<path fill="#CBD6E0" d="M17,24.9c0.4-0.4,1.1-0.8,1.7-1c0.6-0.2,1.4-0.2,1.9-0.1c-0.6,0-1.3,0.1-1.9,0.3
							C18.1,24.3,17.5,24.6,17,24.9z"/>
					</g>
				</g>
			</g>
			<g>
				<g>
					<path fill="#CBD6E0" d="M18.3,26.5c0.3-0.4,0.8-0.8,1.3-1.1c0.5-0.2,1.1-0.4,1.7-0.3c-0.5,0.1-1.1,0.3-1.6,0.5
						C19.2,25.8,18.7,26.2,18.3,26.5z"/>
				</g>
			</g>
		</g>
	</g>
	<g>
		<g>
			<g>
				<path fill="#DAE5EF" d="M15.7,9.8c-0.2-1.6,0.6-3.1,1.9-4c-0.4,0.7-0.5,1.5-0.2,2.2c0.4-1.6,2.4-2.3,3.6-1.1
					c-0.8,0-1.6,0-2.2,0.6c1-0.2,2.1,0.5,2.3,2.2c-0.6-0.4-1.3-0.6-2-0.5"/>
			</g>
		</g>
	</g>
	<g>
		<g>
			<g>
				<path fill="#CBD6E0" d="M21.2,9.7c-0.2-1.3-1.1-2.4-2.6-2c0.5-0.6,0.8-0.9,2.1-0.9c-1-0.6-2.7-0.6-3.2,1.7
					c-0.3-0.8-0.5-1.4-0.1-2.3c-1.1,0.8-1.7,2.2-1.6,3.6c-0.3-1.6,0.4-3.2,2.2-4.4c-0.4,0.7-0.7,1.2-0.5,2.1c0.4-1.1,2.2-2.2,4-0.5
					c-0.7,0-1.6-0.1-2.2,0.3C20.3,7.4,21,8.5,21.2,9.7z"/>
			</g>
		</g>
	</g>
</g>
</svg>
