<?xml version="1.0" encoding="utf-8"?>
<!-- Generator: Adobe Illustrator 18.0.0, SVG Export Plug-In . SVG Version: 6.00 Build 0)  -->
<!DOCTYPE svg PUBLIC "-//W3C//DTD SVG 1.1//EN" "http://www.w3.org/Graphics/SVG/1.1/DTD/svg11.dtd">
<svg version="1.1" id="Layer_1" xmlns="http://www.w3.org/2000/svg" xmlns:xlink="http://www.w3.org/1999/xlink" x="0px" y="0px"
	 viewBox="0 0 36 36" enable-background="new 0 0 36 36" xml:space="preserve">
<g>
	<g>
		<g>
			<g>
				<g>
					<g>
						<g>
							<g>
								<path fill="#FFD93B" d="M32.7,7.7c1.7,1.9,1.7,4.6,0.1,6c-1.6,1.5-6.1,2.7-7.8,0.9s0.1-6.2,1.7-7.6S31.1,5.8,32.7,7.7z"/>
							</g>
						</g>
					</g>
					<g opacity="0.5">
						<g>
							<g>
								<path fill="#F4C534" d="M32.7,7.7c1.7,1.9,1.7,4.6,0.1,6c-1.6,1.5-6.1,2.7-7.8,0.9c-0.4-0.4-0.6-1-0.7-1.6
									c0.1,0.2,0.2,0.4,0.4,0.6c1.7,1.8,5.9,0.6,7.5-0.7c1.5-1.4,1.4-3.9-0.3-5.7C31.9,7,31.9,7,31.8,6.9
									C32.1,7.1,32.4,7.4,32.7,7.7z"/>
							</g>
						</g>
					</g>
					<g>
						<g>
							<g>
								<path fill="#FC97B2" d="M32.1,8.8c1.1,1.2,1,3-0.2,4.1c-1.2,1-3.4,1.4-4.4,0.2c-1.1-1.2-0.6-3.5,0.6-4.5
									C29.2,7.5,31,7.6,32.1,8.8z"/>
							</g>
						</g>
					</g>
					<g>
						<g>
							<g>
								<path fill="#E88EA7" d="M32.1,8.8c0.1,0.1,0.2,0.3,0.3,0.5c-1.1-0.8-2.6-0.8-3.6,0.1c-1,0.9-1.5,2.8-0.9,4.1
									c-0.2-0.1-0.3-0.2-0.4-0.4c-1.1-1.2-0.6-3.5,0.6-4.5C29.2,7.5,31,7.6,32.1,8.8z"/>
							</g>
						</g>
					</g>
				</g>
				<g>
					<g>
						<g>
							<g>
								<path fill="#FFD93B" d="M3.3,7.7c-1.7,1.9-1.7,4.6-0.1,6s6.1,2.7,7.8,0.9S10.9,8.5,9.3,7S4.9,5.8,3.3,7.7z"/>
							</g>
						</g>
					</g>
					<g opacity="0.5">
						<g>
							<g>
								<path fill="#F4C534" d="M3.3,7.7c-1.7,1.9-1.7,4.6-0.1,6s6.1,2.7,7.8,0.9c0.4-0.4,0.6-1,0.7-1.6c-0.1,0.2-0.2,0.4-0.4,0.6
									c-1.7,1.8-5.9,0.6-7.5-0.7C2.2,11.4,2.4,8.9,4,7.1C4.1,7,4.1,7,4.2,6.9C3.9,7.1,3.6,7.4,3.3,7.7z"/>
							</g>
						</g>
					</g>
					<g>
						<g>
							<g>
								<path fill="#FC97B2" d="M3.9,8.8c-1.1,1.2-1,3,0.2,4.1c1.2,1,3.4,1.4,4.4,0.2C9.6,11.9,9.1,9.6,8,8.5C6.8,7.5,5,7.6,3.9,8.8
									z"/>
							</g>
						</g>
					</g>
					<g>
						<g>
							<g>
								<path fill="#E88EA7" d="M3.9,8.8C3.8,8.9,3.7,9.1,3.6,9.3c1.1-0.8,2.6-0.8,3.6,0.1c1,0.9,1.5,2.8,0.9,4.1
									c0.2-0.1,0.3-0.2,0.4-0.4C9.6,11.9,9.1,9.6,8,8.5C6.8,7.5,5,7.6,3.9,8.8z"/>
							</g>
						</g>
					</g>
				</g>
			</g>
			<g>
				<g>
					<g>
						<g>
							<path fill="#FFD93B" d="M22,29.7c-1,0.8-2.4,1.3-4,1.3c-1.6,0-3-0.5-4-1.3c-5.5-1.2-10.1-4.9-9.2-10c0.2-1.1,0.5-2,0.9-2.6
								c1.2-1.9,2.2-3.9,2.8-6c1.4-8.4,17.2-8.1,19.1,0c0.6,2.1,1.6,4,2.8,5.9c0.4,0.7,0.7,1.5,0.9,2.7C32.1,24.8,27.5,28.4,22,29.7
								z"/>
						</g>
					</g>
				</g>
				<g>
					<g>
						<g>
							<path fill="#E9B02C" d="M16.6,6.4c-0.2,0.4-0.8,0.3-1.2,0.1C14,5.7,16.5,5,16.6,6.4z"/>
						</g>
					</g>
				</g>
				<g>
					<g>
						<g>
							<path fill="#F4C534" d="M31.3,20.6c0,1.6-0.3,2.7-0.7,3.4c-0.9,1.6-1.9,2.8-3.6,3.8c-1.5,0.9-3.2,1.6-4.9,2
								c-1.2,0.9-2.6,1.3-4.1,1.4c-1.4,0-2.9-0.4-4.1-1.3c-2.9-0.7-5.1-1.9-6.3-3c-1.7-1.4-2.2-2.6-2.6-3.6
								c-0.3-0.9-0.4-1.7-0.4-2.6c0.1,0.9,0.2,1.7,0.5,2.6c0.6,1.1,1,2.1,2.7,3.3c2.8,2,5.3,2.3,6.4,2.6c1.1,0.9,2.4,1.3,3.7,1.2
								c1.4-0.1,2.3-0.1,3.7-1.2c2.4-0.5,3.9-1.1,5-1.7c1.3-0.7,2.6-1.7,3.7-3.5C31.1,22.9,31.3,21.7,31.3,20.6z"/>
						</g>
					</g>
				</g>
				<g>
					<g>
						<g>
							<g>
								<g>
									<g>
										<g>
											<g>
												<path fill="#3E4347" d="M26,15.3c0,2.1-1.3,3.3-2.9,3.3c-1.6,0-2.9-1.1-2.9-3.3c0-2.1,0.8-4.5,2.4-4.5
													C24.2,10.9,26,13.2,26,15.3z"/>
											</g>
										</g>
									</g>
									<g>
										<g>
											<g>
												<path fill="#FFFFFF" d="M26.1,15.8c0,2.1-1.3,3.2-2.9,3.2s-2.9-1.1-2.9-3.2c0-2.1,0.8-4.4,2.4-4.4S26.1,13.7,26.1,15.8z
													"/>
											</g>
										</g>
									</g>
								</g>
								<g>
									<g>
										<g>
											<g>
												<path fill="#65B1EF" d="M25.1,15.8c0,1.3-0.8,2.3-1.8,2.3s-1.8-1-1.8-2.3c0-1.3,0.8-2.3,1.8-2.3S25.1,14.5,25.1,15.8z"
													/>
											</g>
										</g>
									</g>
									<g>
										<g>
											<g>
												<path fill="#3E4347" d="M24.3,15.8c0,0.7-0.4,1.2-1,1.2c-0.5,0-1-0.6-1-1.2c0-0.7,0.4-1.2,1-1.2
													C23.8,14.6,24.3,15.1,24.3,15.8z"/>
											</g>
										</g>
									</g>
									<g>
										<g>
											<g>
												<circle fill="#FFFFFF" cx="24" cy="15.2" r="0.6"/>
											</g>
										</g>
									</g>
								</g>
							</g>
							<g>
								<g>
									<g>
										<g>
											<path fill="#FFD93B" d="M25.6,20.2l1.6-0.5c-1-1.7-3.6-2.5-6.1-1.7c-0.8,0.3-1.5,0.7-2.1,1.1l0.3,1.1H25.6z"/>
										</g>
									</g>
								</g>
							</g>
						</g>
					</g>
					<g>
						<g>
							<g>
								<g>
									<g>
										<g>
											<g>
												<path fill="#3E4347" d="M10,15.3c0,2.1,1.3,3.3,2.9,3.3s2.9-1.1,2.9-3.3c0-2.1-0.8-4.5-2.4-4.5S10,13.2,10,15.3z"/>
											</g>
										</g>
									</g>
									<g>
										<g>
											<g>
												<path fill="#FFFFFF" d="M9.9,15.8c0,2.1,1.3,3.2,2.9,3.2s2.9-1.1,2.9-3.2c0-2.1-0.8-4.4-2.4-4.4S9.9,13.7,9.9,15.8z"/>
											</g>
										</g>
									</g>
								</g>
								<g>
									<g>
										<g>
											<g>
												<path fill="#65B1EF" d="M10.9,15.8c0,1.3,0.8,2.3,1.8,2.3s1.8-1,1.8-2.3c0-1.3-0.8-2.3-1.8-2.3S10.9,14.5,10.9,15.8z"/>
											</g>
										</g>
									</g>
									<g>
										<g>
											<g>
												<path fill="#3E4347" d="M11.7,15.8c0,0.7,0.4,1.2,1,1.2s1-0.6,1-1.2c0-0.7-0.4-1.2-1-1.2S11.7,15.1,11.7,15.8z"/>
											</g>
										</g>
									</g>
									<g>
										<g>
											<g>
												<circle fill="#FFFFFF" cx="12" cy="15.2" r="0.6"/>
											</g>
										</g>
									</g>
								</g>
							</g>
							<g>
								<g>
									<g>
										<g>
											<path fill="#FFD93B" d="M16.6,20.2l0.3-1.1c-0.6-0.5-1.3-0.9-2.1-1.1c-2.5-0.8-5.1-0.1-6.1,1.7l1.6,0.5H16.6z"/>
										</g>
									</g>
								</g>
								<g>
									<g>
										<g>
											<g>
												<path fill="#F4C534" d="M16.3,18.7c-0.9-0.4-2.1-0.9-3.8-0.8c-1.3,0-2.5,0.5-3.5,1.5c0.6-1,1.7-1.8,3.5-1.9
													C13.9,17.4,15.5,17.9,16.3,18.7z"/>
											</g>
										</g>
									</g>
									<g>
										<g>
											<path fill="#F4C534" d="M27,19.4c-1-1-2.2-1.4-3.5-1.5c-1.7-0.1-2.9,0.4-3.8,0.8c0.8-0.7,2.4-1.3,3.8-1.2
												C25.3,17.6,26.4,18.4,27,19.4z"/>
										</g>
									</g>
								</g>
							</g>
						</g>
					</g>
				</g>
				<g>
					<g>
						
							<ellipse transform="matrix(0.9522 -0.3055 0.3055 0.9522 -1.6947 5.4977)" fill="#E9B02C" cx="16.7" cy="8.2" rx="1.4" ry="0.8"/>
					</g>
				</g>
				<g>
					<g>
						<ellipse fill="#E9B02C" cx="18.6" cy="5.9" rx="0.8" ry="0.6"/>
					</g>
				</g>
				<g>
					<g>
						<ellipse fill="#E9B02C" cx="22" cy="7.3" rx="0.4" ry="0.3"/>
					</g>
				</g>
				<g>
					<g>
						<ellipse fill="#E9B02C" cx="18.6" cy="9.6" rx="1" ry="0.7"/>
					</g>
				</g>
				<g>
					<g>
						
							<ellipse transform="matrix(0.9574 0.2889 -0.2889 0.9574 4.0638 -4.2743)" fill="#E9B02C" cx="16.5" cy="11.6" rx="0.7" ry="0.7"/>
					</g>
				</g>
				<g>
					<g>
						<g>
							<ellipse fill="#E9B02C" cx="18" cy="13.4" rx="0.5" ry="0.9"/>
						</g>
					</g>
				</g>
				<g>
					<g>
						
							<ellipse transform="matrix(0.9142 0.4052 -0.4052 0.9142 6.3886 -6.9201)" fill="#E9B02C" cx="19.5" cy="11.6" rx="0.7" ry="0.6"/>
					</g>
				</g>
				<g>
					<g>
						<path fill="#E9B02C" d="M20.5,8.1c-0.1,0.2-0.5,0.3-0.9,0.1c-0.4-0.2-0.6-0.5-0.4-0.7c0.1-0.2,0.5-0.3,0.9-0.1
							C20.4,7.6,20.6,7.9,20.5,8.1z"/>
					</g>
				</g>
				<g>
					<g>
						<g>
							<g>
								<path fill="#3E4347" d="M20.8,9.8c0,0,2.5-0.9,5,1.7C25.8,11.5,23.4,6.9,20.8,9.8z"/>
							</g>
						</g>
					</g>
					<g>
						<g>
							<g>
								<path fill="#3E4347" d="M15.2,9.8c0,0-2.5-0.9-5,1.7C10.2,11.5,12.6,6.9,15.2,9.8z"/>
							</g>
						</g>
					</g>
				</g>
			</g>
			<g>
				<g>
					<g>
						<g>
							<ellipse fill="#F4C534" cx="18" cy="24.8" rx="3.9" ry="4.5"/>
						</g>
					</g>
				</g>
				<g>
					<g>
						<g>
							<ellipse fill="#6D4135" cx="18" cy="24.8" rx="3.1" ry="3.7"/>
						</g>
					</g>
				</g>
				<g>
					<g>
						<g>
							<ellipse fill="#633B2A" cx="18" cy="25.3" rx="1.5" ry="1.7"/>
						</g>
					</g>
				</g>
				<g>
					<g>
						<g>
							<path fill="#FFE9AB" d="M11.1,22.2c0,2.1,1.7,3.8,3.8,3.8c0.9,0,2-0.5,3-1.1c1,0.7,2.2,1.1,3,1.1c2.1,0,3.8-1.7,3.8-3.8
								C24.9,16.7,11.1,16.7,11.1,22.2z"/>
						</g>
					</g>
				</g>
				<g>
					<g>
						<g>
							<path fill="#FFD68D" d="M22.9,25.5c-1.7,0.9-3.2,0.4-4.9-0.7l0,0c-1.6,1-3.2,1.6-4.9,0.7c-1.7-0.9-2.4-3-1.8-4.4
								c-0.5,1.6,0.4,3.4,1.9,4.2c1.6,0.7,2.9,0.1,4.3-0.9c0.2-0.2,0.5-0.2,0.8,0c1.4,1,2.7,1.6,4.3,0.9c1.6-0.8,2.3-2.6,2-3.9
								C25.2,22.7,24.5,24.6,22.9,25.5z"/>
						</g>
					</g>
				</g>
				<g>
					<g>
						<g>
							<g>
								<path fill="#6D4135" d="M20.9,18.9c0,1-1.2,1.9-2.1,2.4c-0.5,0.3-1.1,0.3-1.7,0c-0.9-0.5-2.1-1.4-2.1-2.4
									c0-1.6,1.3-2.2,2.9-2.2C19.6,16.7,20.9,17.3,20.9,18.9z"/>
							</g>
						</g>
					</g>
					<g>
						<g>
							<g>
								<g>
									<path fill="#633B2A" d="M20.9,18.9c0,1-1.2,1.9-2.1,2.4c-0.5,0.3-1.1,0.3-1.7,0c-0.8-0.5-1.8-1.2-2-2.1
										c0.6,0.5,1.5,0.8,2.5,0.8c1.7,0,3.1-0.9,3.1-2C20.8,18.3,20.9,18.5,20.9,18.9z"/>
								</g>
							</g>
						</g>
					</g>
					<g opacity="0.15">
						<g>
							<g>
								<path fill="#FFFFFF" d="M19.3,17.8c0,0.4-0.6,0.7-1.3,0.7s-1.3-0.3-1.3-0.7s0.6-0.7,1.3-0.7S19.3,17.4,19.3,17.8z"/>
							</g>
						</g>
					</g>
				</g>
				<g>
					<g>
						<g>
							<path fill="#E24B4B" d="M18,28.5c0.9,0,1.7-0.5,2.3-1.2C20,26.4,19,25.4,18,25.9C17.8,26,17.6,26,17.5,26
								c-0.9-0.2-1.5,0.5-1.7,1.3C16.3,28,17.1,28.5,18,28.5z"/>
						</g>
					</g>
				</g>
				<g opacity="0.15">
					<g>
						<g>
							<path fill="#FFFFFF" d="M19.5,26.7c-0.1,0.1-0.3,0-0.5-0.1c-0.2-0.1-0.4-0.3-0.4-0.4s0.3-0.1,0.6,0
								C19.4,26.4,19.6,26.6,19.5,26.7z"/>
						</g>
					</g>
				</g>
				<g>
					<g>
						<path fill="#D03F3F" d="M20.2,27c-0.4-0.8-1.3-1.5-2.2-1.1C17.8,26,17.6,26,17.5,26c-0.9-0.2-1.5,0.5-1.7,1.3
							c0.3,0.4,0.6,0.7,1,0.9c-0.1-0.1-0.2-0.3-0.3-0.4c-0.2-0.4-0.1-0.9,0.2-1.2c0.3-0.3,0.8-0.4,1.2-0.1c0.2,0.2,0.3,0.5,0.4,0.8
							c0-0.3-0.1-0.5,0-0.8c0.1-0.3,0.2-0.5,0.5-0.6c0.3-0.1,0.6,0.1,0.8,0.3C19.7,26.4,20,26.7,20.2,27z"/>
					</g>
				</g>
			</g>
			<g>
				<g>
					<g>
						<g>
							<g>
								<path fill="#3E4347" d="M21.2,22.5c0-0.1,0-0.2,0.1-0.2c0,0,0,0,0,0c2.2-0.2,4.5,1,5.8,2.4c-1.4-1.3-3.4-2.4-5.7-2.1
									C21.3,22.6,21.2,22.5,21.2,22.5z"/>
							</g>
						</g>
						<g>
							<g>
								<path fill="#3E4347" d="M25.5,28c-1.1-2.2-2.7-4.5-5.2-4.6c-0.1,0-0.2-0.1-0.2-0.2c0-0.1,0.1-0.2,0.2-0.2c0,0,0,0,0,0
									C22.6,23.3,24.8,25.8,25.5,28z"/>
							</g>
						</g>
						<g>
							<g>
								<path fill="#3E4347" d="M27.5,26.7c-1.9-2.4-3.9-3.3-5.1-3.3c-0.1,0-0.1-0.1-0.2-0.2c0-0.1,0.1-0.2,0.2-0.2l0,0
									C23.6,23.2,25.6,24.2,27.5,26.7z"/>
							</g>
						</g>
					</g>
				</g>
				<g>
					<g>
						<g>
							<g>
								<path fill="#3E4347" d="M14.8,22.5c0-0.1,0-0.2-0.1-0.2c0,0,0,0,0,0c-2.2-0.2-4.5,1-5.8,2.4c1.4-1.3,3.4-2.4,5.7-2.1
									C14.7,22.6,14.8,22.5,14.8,22.5z"/>
							</g>
						</g>
						<g>
							<g>
								<path fill="#3E4347" d="M10.5,28c1.1-2.2,2.7-4.5,5.2-4.6c0.1,0,0.2-0.1,0.2-0.2c0-0.1-0.1-0.2-0.2-0.2c0,0,0,0,0,0
									C13.4,23.3,11.2,25.8,10.5,28z"/>
							</g>
						</g>
						<g>
							<g>
								<path fill="#3E4347" d="M8.5,26.7c1.9-2.4,3.9-3.3,5.1-3.3c0.1,0,0.1-0.1,0.2-0.2c0-0.1-0.1-0.2-0.2-0.2l0,0
									C12.4,23.2,10.4,24.2,8.5,26.7z"/>
							</g>
						</g>
					</g>
				</g>
			</g>
		</g>
		<g>
			<g>
				<g>
					<g>
						<g>
							<path fill="#E9B02C" d="M30.1,18.7c0.1,0.1,0.2,0.2,0.2,0.4c0,0.2,0,0.4,0,0.6c-0.2,0.5-0.9,0.5-1-0.1
								C29.1,19.1,29.7,18.4,30.1,18.7z"/>
						</g>
					</g>
				</g>
				<g>
					<g>
						<g>
							<g>
								<ellipse fill="#E9B02C" cx="29.6" cy="22.9" rx="0.7" ry="0.5"/>
							</g>
						</g>
					</g>
					<g>
						<g>
							<g>
								<g>
									<path fill="#E9B02C" d="M26.7,21.1c0.2,1.3-2.3,0.1-1.2-0.6C25.9,20.3,26.7,20.7,26.7,21.1z"/>
								</g>
							</g>
						</g>
						<g>
							<g>
								<g>
									<path fill="#E9B02C" d="M28,18.9c0.2-0.2,0.4-0.2,0.5,0C28.8,20.2,26.4,20.5,28,18.9z"/>
								</g>
							</g>
						</g>
						<g>
							<g>
								<g>
									<path fill="#E9B02C" d="M28.2,21.7c-0.7-0.4-0.4-1.4,0.8-0.7C30.1,21.5,29.1,22.1,28.2,21.7z"/>
								</g>
							</g>
						</g>
						<g>
							<g>
								<g>
									<path fill="#E9B02C" d="M28.1,23.6c-0.2,0.8-1.2,0.6-1,0C27.5,22.4,28.5,22.3,28.1,23.6z"/>
								</g>
							</g>
						</g>
					</g>
				</g>
			</g>
			<g>
				<g>
					<g>
						<g>
							<path fill="#E9B02C" d="M5.9,18.7c-0.1,0.1-0.2,0.2-0.2,0.4c0,0.2,0,0.4,0,0.6c0.2,0.5,0.9,0.5,1-0.1
								C6.9,19.1,6.3,18.4,5.9,18.7z"/>
						</g>
					</g>
				</g>
				<g>
					<g>
						<g>
							<g>
								<ellipse fill="#E9B02C" cx="6.4" cy="22.9" rx="0.7" ry="0.5"/>
							</g>
						</g>
					</g>
					<g>
						<g>
							<g>
								<g>
									<path fill="#E9B02C" d="M9.3,21.1c-0.2,1.3,2.3,0.1,1.2-0.6C10.1,20.3,9.3,20.7,9.3,21.1z"/>
								</g>
							</g>
						</g>
						<g>
							<g>
								<g>
									<path fill="#E9B02C" d="M8,18.9c-0.2-0.2-0.4-0.2-0.5,0C7.2,20.2,9.6,20.5,8,18.9z"/>
								</g>
							</g>
						</g>
						<g>
							<g>
								<g>
									<path fill="#E9B02C" d="M7.8,21.7c0.7-0.4,0.4-1.4-0.8-0.7C5.9,21.5,6.9,22.1,7.8,21.7z"/>
								</g>
							</g>
						</g>
						<g>
							<g>
								<g>
									<path fill="#E9B02C" d="M7.9,23.6c0.2,0.8,1.2,0.6,1,0C8.5,22.4,7.5,22.3,7.9,23.6z"/>
								</g>
							</g>
						</g>
					</g>
				</g>
			</g>
		</g>
	</g>
	<g>
		<g>
			<g>
				<path fill="#E9B02C" d="M14.1,7c0.4,0,0.5,0.2,0.4,0.5c-0.2,0.7-1.6,1-1.8,0.3C12.5,7.1,13.7,7,14.1,7z"/>
			</g>
		</g>
	</g>
</g>
</svg>
