<?xml version="1.0" encoding="utf-8"?>
<!-- Generator: Adobe Illustrator 18.0.0, SVG Export Plug-In . SVG Version: 6.00 Build 0)  -->
<!DOCTYPE svg PUBLIC "-//W3C//DTD SVG 1.1//EN" "http://www.w3.org/Graphics/SVG/1.1/DTD/svg11.dtd">
<svg version="1.1" id="Layer_1" xmlns="http://www.w3.org/2000/svg" xmlns:xlink="http://www.w3.org/1999/xlink" x="0px" y="0px"
	 viewBox="0 0 36 36" enable-background="new 0 0 36 36" xml:space="preserve">
<g>
	<g>
		<g>
			<g>
				<g>
					<g>
						<g>
							<path fill="#F29A2E" d="M29.9,14.2c-2.2,0.9-4.9,0.6-7.4-0.6l0-0.8c1.1-2.1,2.8-3.6,4.8-4.5c1.9-0.8,4.1-0.9,6.2-0.3
								C33.9,8.2,34,8.4,34,8.7C33.6,11.3,32,13.4,29.9,14.2z"/>
						</g>
					</g>
				</g>
				<g>
					<g>
						<g>
							<path fill="#FC97B2" d="M25.4,12.8c0.8-1.4,1.9-2.5,3.3-3.2c1.4-0.6,3-0.8,4.5-0.5C33,12.7,28.5,15.1,25.4,12.8z"/>
						</g>
					</g>
				</g>
				<g>
					<g>
						<g>
							<path fill="#FC97B2" d="M25.4,12.8c0.8-1.4,1.9-2.5,3.3-3.2c1.4-0.6,3-0.8,4.5-0.5C33,12.7,28.5,15.1,25.4,12.8z"/>
						</g>
					</g>
				</g>
				<g>
					<g>
						<g>
							<path fill="#EF84A5" d="M33.2,9.2C31.6,8.8,30,9,28.7,9.7c-1.4,0.6-2.6,1.8-3.3,3.2c0.2,0.2,0.5,0.3,0.7,0.4
								C27.5,10.4,30.2,9.6,33.2,9.2z"/>
						</g>
					</g>
				</g>
			</g>
		</g>
		<g>
			<g>
				<g>
					<g>
						<g>
							<path fill="#F29A2E" d="M6.1,14.2c2.2,0.9,4.9,0.6,7.4-0.6l0-0.8c-1.1-2.1-2.8-3.6-4.8-4.5C6.7,7.6,4.6,7.5,2.4,8.1
								C2.1,8.2,2,8.4,2,8.7C2.4,11.3,4,13.4,6.1,14.2z"/>
						</g>
					</g>
				</g>
				<g>
					<g>
						<g>
							<path fill="#FC97B2" d="M10.6,12.8c-0.8-1.4-1.9-2.5-3.3-3.2C5.9,9,4.3,8.8,2.8,9.2C3,12.7,7.5,15.1,10.6,12.8z"/>
						</g>
					</g>
				</g>
				<g>
					<g>
						<g>
							<path fill="#FC97B2" d="M10.6,12.8c-0.8-1.4-1.9-2.5-3.3-3.2C5.9,9,4.3,8.8,2.8,9.2C3,12.7,7.5,15.1,10.6,12.8z"/>
						</g>
					</g>
				</g>
				<g>
					<g>
						<g>
							<path fill="#EF84A5" d="M2.8,9.2C4.4,8.8,6,9,7.3,9.7c1.4,0.6,2.6,1.8,3.3,3.2c-0.2,0.2-0.5,0.3-0.7,0.4
								C8.5,10.4,5.8,9.6,2.8,9.2z"/>
						</g>
					</g>
				</g>
			</g>
		</g>
	</g>
	<g>
		<g>
			<g>
				<g>
					<g>
						<circle fill="#F29A2E" cx="18" cy="26.2" r="5.4"/>
					</g>
				</g>
			</g>
			<g>
				<g>
					<g>
						<path fill="#F29A2E" d="M11.3,24.3h13.3c0.3-1.1,0.7-2.1,1.2-3.1C31.5,7.8,18.9,6.4,18,6.8c-0.9-0.3-13.5,1-7.9,14.4
							C10.6,22.2,11,23.3,11.3,24.3z"/>
					</g>
				</g>
			</g>
			<g>
				<g>
					<g>
						<g>
							<g>
								<path fill="#FFE9AB" d="M25.2,25.9c0,2.2-1.8,3.9-3.9,3.9c-1.3,0-2.5-0.7-3.2-1.7c-0.7,1-1.9,1.7-3.2,1.7
									c-2.2,0-3.9-1.8-3.9-3.9c0-2.2,1.8-3.9,3.9-3.9c1.3,0,2.5,0.7,3.2,1.7c0.7-1,1.9-1.7,3.2-1.7C23.4,22,25.2,23.7,25.2,25.9z"
									/>
							</g>
						</g>
					</g>
					<g>
						<g>
							<g>
								<path fill="#FFE9AB" d="M25.2,25.9c0,2.2-1.8,3.9-3.9,3.9c-1.3,0-2.5-0.7-3.2-1.7c-0.7,1-1.9,1.7-3.2,1.7
									c-2.2,0-3.9-1.8-3.9-3.9c0-2.2,1.8-3.9,3.9-3.9c1.3,0,2.5,0.7,3.2,1.7c0.7-1,1.9-1.7,3.2-1.7C23.4,22,25.2,23.7,25.2,25.9z"
									/>
							</g>
						</g>
					</g>
					<g>
						<g>
							<g>
								<path fill="#FFE9AB" d="M25.2,25.9c0,2.2-1.8,3.9-3.9,3.9c-1.3,0-2.5-0.7-3.2-1.7c-0.7,1-1.9,1.7-3.2,1.7
									c-2.2,0-3.9-1.8-3.9-3.9c0-2.2,1.8-3.9,3.9-3.9c1.3,0,2.5,0.7,3.2,1.7c0.7-1,1.9-1.7,3.2-1.7C23.4,22,25.2,23.7,25.2,25.9z"
									/>
							</g>
						</g>
					</g>
					<g>
						<g>
							<g>
								<ellipse fill="#FFE9AB" cx="18" cy="22.4" rx="4.5" ry="3.8"/>
							</g>
						</g>
					</g>
				</g>
				<g>
					<g>
						<g>
							<path fill="#FFD68D" d="M25.1,26.2c-0.2,2-1.9,3.6-3.9,3.6c-1.3,0-2.5-0.7-3.2-1.7c-0.9,1.3-2.6,1.9-4,1.6H14
								c-1.7-0.3-3-1.7-3.2-3.5c0.2,1.7,1.9,3,3.9,3c0.5,0,1-0.1,1.4-0.2c1.5-0.5,2.1-2.2,1.3-3.5c-0.4-0.7-2.2-1.5-2.8-2
								c-1.5-1.2-0.1-2.8,1.3-0.6c0.1,0.2,0.8,1.5,1.4,2.1c0.4,0.3,0.9,0.3,1.3,0c0.6-0.6,1.3-1.9,1.4-2.1c1.3-2.1,2.8-0.6,1.3,0.6
								c-0.7,0.6-1.5,0.6-2.8,2c-0.8,1.3-0.2,3,1.3,3.5c0.4,0.1,0.9,0.2,1.4,0.2C23.3,29.3,24.9,27.9,25.1,26.2z"/>
						</g>
					</g>
				</g>
				<g>
					<g>
						<g>
							<g>
								<g>
									<path fill="#6D4135" d="M20.4,22.9c0.2-0.4,0.7-0.8,1.1-0.6c0.3,0.1,0.4,0.6-0.1,1.1c-0.4,0.4-1,0.6-1.5,0.9
										C19.9,24.1,20.1,23.4,20.4,22.9z"/>
								</g>
							</g>
						</g>
						<g>
							<g>
								<g>
									<g>
										<path fill="#633B2A" d="M19.9,24.1c0,0,0.1,0,0.1,0C19.9,24.1,19.9,24.1,19.9,24.1C19.9,24.1,19.9,24.1,19.9,24.1z"/>
									</g>
								</g>
								<g>
									<g>
										<path fill="#633B2A" d="M21.4,23.3c0,0-0.1,0.1-0.1,0.1c0.1-0.2,0-0.4-0.1-0.4c-0.2-0.1-0.6,0.2-0.7,0.4
											c-0.2,0.3-0.5,0.7-0.6,0.8c0-0.2,0.2-0.8,0.5-1.3c0.2-0.4,0.7-0.8,1.1-0.6C21.8,22.3,21.9,22.8,21.4,23.3z"/>
									</g>
								</g>
							</g>
							<g>
								<g>
									<g>
										<path fill="#633B2A" d="M19.9,24.1C19.9,24.1,19.9,24.1,19.9,24.1C19.9,24.1,19.9,24.1,19.9,24.1
											C19.9,24.1,19.9,24.1,19.9,24.1z"/>
									</g>
								</g>
							</g>
						</g>
					</g>
					<g>
						<g>
							<g>
								<g>
									<path fill="#6D4135" d="M15.6,22.9c-0.2-0.4-0.7-0.8-1.1-0.6c-0.3,0.1-0.4,0.6,0.1,1.1c0.4,0.4,1,0.6,1.5,0.9
										C16.1,24.1,15.9,23.4,15.6,22.9z"/>
								</g>
							</g>
						</g>
						<g>
							<g>
								<g>
									<g>
										<path fill="#633B2A" d="M16.1,24.1c0,0-0.1,0-0.1,0C16,24.1,16.1,24.1,16.1,24.1C16.1,24.1,16.1,24.1,16.1,24.1z"/>
									</g>
								</g>
								<g>
									<g>
										<path fill="#633B2A" d="M14.6,23.3c0,0,0.1,0.1,0.1,0.1c-0.1-0.2,0-0.4,0.1-0.4c0.2-0.1,0.6,0.2,0.7,0.4
											c0.2,0.3,0.5,0.7,0.6,0.8c0-0.2-0.2-0.8-0.5-1.3c-0.2-0.4-0.7-0.8-1.1-0.6C14.2,22.3,14.1,22.8,14.6,23.3z"/>
									</g>
								</g>
							</g>
							<g>
								<g>
									<g>
										<path fill="#633B2A" d="M16.1,24.1C16.1,24.1,16.1,24.1,16.1,24.1C16.1,24.1,16.1,24.1,16.1,24.1
											C16.1,24.1,16.1,24.1,16.1,24.1z"/>
									</g>
								</g>
							</g>
						</g>
					</g>
				</g>
				<g opacity="0.3">
					<g>
						<g>
							<path fill="#FFFFFF" d="M19.8,20.1c0,0.5-0.8,0-1.8,0c-1,0-1.8,0.5-1.8,0c0-0.5,0.8-0.9,1.8-0.9S19.8,19.6,19.8,20.1z"/>
						</g>
					</g>
				</g>
			</g>
			<g>
				<g>
					<g>
						<g>
							<g>
								<g>
									<ellipse fill="#3E4347" cx="22.1" cy="15.4" rx="2.7" ry="3.7"/>
								</g>
							</g>
						</g>
						<g>
							<g>
								<g>
									<path fill="#FFFFFF" d="M24.8,15.8c0,1.9-1.2,3.5-2.7,3.5c-1.5,0-2.6-1.6-2.6-3.5c0-1.9,1.2-3.5,2.7-3.5
										C23.7,12.2,24.8,13.8,24.8,15.8z"/>
								</g>
							</g>
						</g>
					</g>
					<g>
						<g>
							<g>
								<g>
									<g>
										<ellipse fill="#65B1EF" cx="22.1" cy="16.7" rx="1.6" ry="1.9"/>
									</g>
								</g>
								<g>
									<g>
										<g>
											<ellipse fill="#3E4347" cx="22.1" cy="16.8" rx="0.8" ry="0.9"/>
										</g>
									</g>
								</g>
								<g>
									<g>
										<g>
											<circle fill="#FFFFFF" cx="22.8" cy="16.2" r="0.5"/>
										</g>
									</g>
								</g>
							</g>
						</g>
					</g>
				</g>
				<g>
					<g>
						<g>
							<g>
								<g>
									<ellipse fill="#3E4347" cx="13.8" cy="15.4" rx="2.7" ry="3.7"/>
								</g>
							</g>
						</g>
						<g>
							<g>
								<g>
									<path fill="#FFFFFF" d="M16.5,15.8c0,1.9-1.2,3.5-2.7,3.5s-2.6-1.6-2.6-3.5s1.2-3.5,2.7-3.5S16.6,13.8,16.5,15.8z"/>
								</g>
							</g>
						</g>
					</g>
					<g>
						<g>
							<g>
								<g>
									<g>
										<ellipse fill="#65B1EF" cx="13.8" cy="16.7" rx="1.6" ry="1.9"/>
									</g>
								</g>
								<g>
									<g>
										<g>
											<ellipse fill="#3E4347" cx="13.8" cy="16.8" rx="0.8" ry="0.9"/>
										</g>
									</g>
								</g>
								<g>
									<g>
										<g>
											<circle fill="#FFFFFF" cx="14.5" cy="16.2" r="0.5"/>
										</g>
									</g>
								</g>
							</g>
						</g>
					</g>
				</g>
			</g>
			<g>
				<g>
					<g>
						<g>
							<path fill="#3E4347" d="M20.3,10.3c0,0,3.4-0.4,5.2,3.1C25.5,13.4,24.4,8.1,20.3,10.3z"/>
						</g>
					</g>
				</g>
				<g>
					<g>
						<g>
							<path fill="#3E4347" d="M15.7,10.3c0,0-3.4-0.4-5.2,3.1C10.5,13.4,11.6,8.1,15.7,10.3z"/>
						</g>
					</g>
				</g>
			</g>
		</g>
		<g>
			<g>
				<g>
					<path fill="#E18823" d="M15,9.1c0.2-0.2,0.4-0.3,0.7-0.3c-0.9,0-1.7,0.2-2.4,0.8c0.1-0.5,0.3-0.9,0.7-1.2c-0.8,0.1-1.5,0.5-2,1
						c0-1,0.7-1.9,1.6-2.3c-0.4-0.1-0.9-0.1-1.3,0.1c0.5-1,1.8-1,2.6-1C14.7,5.7,14.4,5.3,14,5c0.9-0.1,1.9,0.4,2.5,1.1
						c0-0.7,0.4-1.4,1-1.7c-0.1,0.6-0.2,1.3-0.3,1.9c0.6-0.8,1.6-1.2,2.6-1.2c-0.3,0.4-0.5,0.8-0.6,1.3c0.6-0.6,1.6-0.9,3.4-0.1
						c-0.4,0.1-0.8,0.2-1.1,0.5c0.9,0.1,1.8,0.6,2.3,1.4C23.4,8,22.2,7.8,21.9,8c0,0.1,0.9,1,1,1.1c-1.3-0.5-2.6-0.7-3.9-0.6
						c0.5,0.7,0.7,1.5,0.7,2.3C19,9.7,18,8.9,16.8,8.6c0.2,0.1,0.4,0.8,0.4,0.8S16.5,8.7,15,9.1z"/>
				</g>
			</g>
		</g>
	</g>
</g>
</svg>
