<?xml version="1.0" encoding="utf-8"?>
<!-- Generator: Adobe Illustrator 18.0.0, SVG Export Plug-In . SVG Version: 6.00 Build 0)  -->
<!DOCTYPE svg PUBLIC "-//W3C//DTD SVG 1.1//EN" "http://www.w3.org/Graphics/SVG/1.1/DTD/svg11.dtd">
<svg version="1.1" id="Layer_1" xmlns="http://www.w3.org/2000/svg" xmlns:xlink="http://www.w3.org/1999/xlink" x="0px" y="0px"
	 viewBox="0 0 36 36" enable-background="new 0 0 36 36" xml:space="preserve">
<g>
	<g>
		<g>
			<g>
				<g>
					<g>
						<g>
							<g>
								<path fill="#CBD6E0" d="M28.1,10.6c-0.5,2.2-1.9,4-3.7,3.7c-0.9-0.1-2.7-1.3-2.6-3.7c0.2-3,3.1-3.6,4.3-8.6
									C26.1,2,29.4,5,28.1,10.6z"/>
							</g>
						</g>
					</g>
					<g>
						<g>
							<g>
								<path fill="#5A5F63" d="M26.7,4.3c-0.4,4.9-3.3,4-1.4,9.1C27.9,11.4,28.4,7.3,26.7,4.3z"/>
							</g>
						</g>
					</g>
				</g>
				<g>
					<g>
						<path fill="#3E4347" d="M25.3,13.3L25.3,13.3c0.3-0.2,0.5-0.3,0.6-0.5c-0.3-0.4-0.6-1.1-0.6-2.1c0.1-1.6,1.5-3.7,1.3-6.4
							C26.3,9.2,23.3,8.3,25.3,13.3z"/>
					</g>
				</g>
			</g>
		</g>
		<g>
			<g>
				<g>
					<g>
						<g>
							<g>
								<path fill="#CBD6E0" d="M7.9,10.6c0.5,2.2,1.9,4,3.7,3.7c0.9-0.1,2.7-1.3,2.6-3.7C14,7.6,11.1,6.9,9.9,2
									C9.9,2,6.6,5,7.9,10.6z"/>
							</g>
						</g>
					</g>
					<g>
						<g>
							<g>
								<path fill="#5A5F63" d="M9.3,4.3c0.4,4.9,3.3,4,1.4,9.1C8.1,11.4,7.6,7.3,9.3,4.3z"/>
							</g>
						</g>
					</g>
				</g>
				<g>
					<g>
						<path fill="#3E4347" d="M10.7,13.3L10.7,13.3c-0.3-0.2-0.5-0.3-0.6-0.5c0.3-0.4,0.6-1.1,0.6-2.1C10.6,9.1,9.2,7,9.3,4.3
							C9.7,9.2,12.7,8.3,10.7,13.3z"/>
					</g>
				</g>
			</g>
		</g>
	</g>
	<g>
		<g>
			<g>
				<path fill="#DAE5EF" d="M9.7,21.6C4.6,10.3,14.7,8.1,18,8.1c2.6,0,13.4,2.2,8.4,13.5c-2.9,6.4-3.3,9.8-8.4,9.8
					C13,31.4,12.6,28,9.7,21.6z"/>
			</g>
		</g>
	</g>
	<g>
		<g>
			<g>
				<g>
					<g>
						<g>
							<path fill="#3E4347" d="M20,17c-0.2,1.8,0.7,3.4,2,3.5c1.3,0.2,2.5-1.2,2.7-3c0.2-1.8-0.7-3.4-2-3.5
								C21.4,13.9,20.2,15.2,20,17z"/>
						</g>
					</g>
				</g>
				<g>
					<g>
						<g>
							<path fill="#FFFFFF" d="M20,17.1c-0.2,1.7,0.7,3.3,1.9,3.5s2.4-1,2.5-2.7c0.2-1.7-0.7-3.3-1.9-3.5S20.2,15.4,20,17.1z"/>
						</g>
					</g>
				</g>
				<g>
					<g>
						<g>
							<g>
								<g>
									
										<ellipse transform="matrix(-0.9924 -0.123 0.123 -0.9924 41.5359 38.6721)" fill="#65B1EF" cx="22" cy="18.1" rx="1.4" ry="1.7"/>
								</g>
							</g>
						</g>
						<g>
							<g>
								<g>
									
										<ellipse transform="matrix(-0.9924 -0.123 0.123 -0.9924 41.4636 39.0581)" fill="#3E4347" cx="21.9" cy="18.2" rx="0.8" ry="1"/>
								</g>
							</g>
						</g>
					</g>
					<g>
						<g>
							<g>
								<circle fill="#FFFFFF" cx="22.6" cy="17.6" r="0.3"/>
							</g>
						</g>
					</g>
				</g>
			</g>
			<g>
				<g>
					<g>
						<path fill="#3E4347" d="M21.7,12.9c0,0,2.7-0.3,3.9,3.3C25.3,13.3,24.1,11.9,21.7,12.9z"/>
					</g>
				</g>
			</g>
		</g>
		<g>
			<g>
				<g>
					<g>
						<g>
							<path fill="#3E4347" d="M16,17c0.2,1.8-0.7,3.4-2,3.5s-2.5-1.2-2.7-3s0.7-3.4,2-3.5C14.6,13.9,15.8,15.2,16,17z"/>
						</g>
					</g>
				</g>
				<g>
					<g>
						<g>
							<path fill="#FFFFFF" d="M16,17.1c0.2,1.7-0.7,3.3-1.9,3.5s-2.4-1-2.5-2.7s0.7-3.3,1.9-3.5S15.8,15.4,16,17.1z"/>
						</g>
					</g>
				</g>
				<g>
					<g>
						<g>
							<g>
								<g>
									
										<ellipse transform="matrix(0.9924 -0.123 0.123 0.9924 -2.1146 1.8644)" fill="#65B1EF" cx="14" cy="18.1" rx="1.4" ry="1.7"/>
								</g>
							</g>
						</g>
						<g>
							<g>
								<g>
									
										<ellipse transform="matrix(0.9924 -0.123 0.123 0.9924 -2.1385 1.8689)" fill="#3E4347" cx="14.1" cy="18.2" rx="0.8" ry="1"/>
								</g>
							</g>
						</g>
					</g>
					<g>
						<g>
							<g>
								<circle fill="#FFFFFF" cx="13.4" cy="17.6" r="0.3"/>
							</g>
						</g>
					</g>
				</g>
			</g>
			<g>
				<g>
					<g>
						<path fill="#3E4347" d="M14.3,12.9c0,0-2.7-0.3-3.9,3.3C10.7,13.3,11.9,11.9,14.3,12.9z"/>
					</g>
				</g>
			</g>
		</g>
	</g>
	<g>
		<g>
			<g>
				<g>
					<path fill="#3E4347" d="M11.8,29.5c0-2.9,2.7-3.8,6-3.8c3.3,0,6,0.9,6,3.8c0,2.9-2.7,4.5-6,4.5S11.8,32.4,11.8,29.5z"/>
				</g>
			</g>
		</g>
		<g>
			<g>
				<g>
					<path fill="#5A5F63" d="M25.6,27c0,3.6-3.4,4.8-7.7,4.8s-7.7-1.2-7.7-4.8s3.4-5.7,7.7-5.7S25.6,23.3,25.6,27z"/>
				</g>
			</g>
		</g>
		<g>
			<g>
				<g>
					<g>
						<g>
							<g>
								<path fill="#3E4347" d="M20.4,29.3c0-1.3,0.7-2.6,1.5-3c0.5-0.3,1.1-0.3,1.5,0.2c0.4,0.5,0.1,1.1-0.1,1.4
									C22.7,28.6,21.5,29.1,20.4,29.3z"/>
							</g>
						</g>
					</g>
				</g>
				<g>
					<g>
						<g>
							<g>
								<path fill="#31373A" d="M23.2,27.9c-0.2,0.3-0.4,0.5-0.8,0.7c0.1-0.2,0.2-0.5,0-0.7c-0.2-0.3-0.6-0.3-0.8-0.1
									c-0.5,0.3-1.2,1.6-1.2,1.6c0-1.3,0.7-2.6,1.5-3c0.5-0.3,1.1-0.3,1.5,0.2C23.7,27,23.5,27.5,23.2,27.9z"/>
							</g>
						</g>
					</g>
				</g>
				<g>
					<g>
						<g>
							<path fill="#3E4347" d="M22.3,25.6c0.9-0.4,2.1,0.3,2,1.5c-0.1,0.9-1.1,1.7-1.9,2c0.7-0.5,1.5-1.1,1.6-2
								C24.1,26.3,23.4,25.5,22.3,25.6z"/>
						</g>
					</g>
				</g>
			</g>
			<g>
				<g>
					<g>
						<g>
							<g>
								<path fill="#3E4347" d="M15.4,29.3c0-1.3-0.7-2.6-1.5-3c-0.5-0.3-1.1-0.3-1.5,0.2c-0.4,0.5-0.1,1.1,0.1,1.4
									C13,28.6,14.2,29.1,15.4,29.3z"/>
							</g>
						</g>
					</g>
				</g>
				<g>
					<g>
						<g>
							<g>
								<path fill="#31373A" d="M12.5,27.9c0.2,0.3,0.4,0.5,0.8,0.7c-0.1-0.2-0.2-0.5,0-0.7c0.2-0.3,0.6-0.3,0.8-0.1
									c0.5,0.3,1.2,1.6,1.2,1.6c0-1.3-0.7-2.6-1.5-3c-0.5-0.3-1.1-0.3-1.5,0.2C12,27,12.3,27.5,12.5,27.9z"/>
							</g>
						</g>
					</g>
				</g>
				<g>
					<g>
						<g>
							<path fill="#3E4347" d="M13.5,25.6c-0.9-0.4-2.1,0.3-2,1.5c0.1,0.9,1.1,1.7,1.9,2c-0.7-0.5-1.5-1.1-1.6-2
								C11.7,26.3,12.3,25.5,13.5,25.6z"/>
						</g>
					</g>
				</g>
			</g>
		</g>
	</g>
	<g>
		<g>
			<g>
				<path fill="#3E4347" d="M18.8,9.6c0.5-0.3,1.1-0.4,1.7-0.4c-1.2,0.7-1.7,2.1-1.4,3.4c-0.2-0.4-0.5-0.8-0.9-1.1
					c0.9,1.9-0.6,2.9-0.8,4c-0.3-0.5,0.8-3.1-0.6-4.7c0.1,0.7-0.1,1.5-0.6,2.1c0.3-1.1-0.7-2.4,0.1-3.4c-0.6,0.2-1.1,0.5-1.6,1
					c0.2-0.9,0.5-1.7,1.2-2.2c-0.2-0.8-0.6-1.5-1.1-2.1c1,0.2,2.3,0.5,2.5,1.7c1-0.9,2.3-0.8,3.6-0.6C20,7.7,19.1,8.6,18.8,9.6z"/>
			</g>
		</g>
	</g>
	<g>
		<g>
			<g>
				<g>
					<path fill="#3E4347" d="M27.7,15.3c-0.4,1-1.2,1.7-2.1,2.2c0.8,0,1.5-0.3,2.1-0.7C27.7,16.2,27.7,15.7,27.7,15.3z"/>
				</g>
			</g>
			<g>
				<g>
					<path fill="#3E4347" d="M8.3,15.2c0,0.5,0,0.9,0,1.5c0.6,0.4,1.4,0.7,2.1,0.7C9.4,17,8.7,16.2,8.3,15.2z"/>
				</g>
			</g>
			<g>
				<g>
					<path fill="#3E4347" d="M23.5,21.2c0.9,0.4,1.8,1.3,1.9,2.7c0.2-0.4,0.3-0.8,0.5-1.2C25.3,21.7,24.3,21.2,23.5,21.2z"/>
				</g>
			</g>
			<g>
				<g>
					<path fill="#3E4347" d="M9.2,20.3c0.1,0.3,0.2,0.6,0.3,0.9c0.5-0.3,1.1-0.6,1.6-1C10.4,20.3,9.8,20.4,9.2,20.3z"/>
				</g>
			</g>
			<g>
				<g>
					<path fill="#3E4347" d="M26.6,21.2c0.1-0.3,0.3-0.6,0.4-0.9c-0.6,0-1.3,0-2.1-0.1C25.5,20.7,26,21,26.6,21.2z"/>
				</g>
			</g>
			<g>
				<g>
					<path fill="#3E4347" d="M8.5,17.9c0.1,0.4,0.2,0.8,0.3,1.3c0.9,0.3,1.8,0.4,2.6,0.2C10.3,19.3,9.3,18.8,8.5,17.9z"/>
				</g>
			</g>
			<g>
				<g>
					<path fill="#3E4347" d="M10.1,22.6c0.2,0.4,0.3,0.8,0.5,1.2c0.2-1.1,0.7-2.1,1.9-2.6C11.3,21.3,10.6,21.9,10.1,22.6z"/>
				</g>
			</g>
			<g>
				<g>
					<path fill="#3E4347" d="M27.6,17.9c-0.8,0.9-1.8,1.4-2.9,1.6c0.8,0.2,1.8,0,2.6-0.2C27.4,18.8,27.5,18.3,27.6,17.9z"/>
				</g>
			</g>
		</g>
	</g>
</g>
</svg>
