<?xml version="1.0" encoding="utf-8"?>
<!-- Generator: Adobe Illustrator 18.0.0, SVG Export Plug-In . SVG Version: 6.00 Build 0)  -->
<!DOCTYPE svg PUBLIC "-//W3C//DTD SVG 1.1//EN" "http://www.w3.org/Graphics/SVG/1.1/DTD/svg11.dtd">
<svg version="1.1" id="Layer_1" xmlns="http://www.w3.org/2000/svg" xmlns:xlink="http://www.w3.org/1999/xlink" x="0px" y="0px"
	 viewBox="0 0 36 36" enable-background="new 0 0 36 36" xml:space="preserve">
<g>
	<g>
		<g>
			<g>
				<g>
					<g>
						<g>
							<g>
								<g>
									<path fill="#F29A2E" d="M23.9,12.6c0,0-2.3-0.6-1.5-5.5C22.9,3.8,25.6,2,25.6,2s2,2.7,1.5,6C26.2,12.9,23.9,12.6,23.9,12.6
										z"/>
								</g>
							</g>
						</g>
						<g>
							<g>
								<g>
									<path fill="#CF7519" d="M23.4,7.8c0.3-2.5,2-3.9,2-3.9s1.3,1.9,1,4.3c-0.5,3.7-2,3.6-2,3.6S23,11.5,23.4,7.8z"/>
								</g>
							</g>
						</g>
						<g>
							<g>
								<g>
									<path fill="#BE630E" d="M24.3,11.7c-0.4-0.2-1.2-1-0.8-3.9c0.3-2.5,2-3.9,2-3.9s0.2,0.3,0.5,0.9c-0.4,0.4-1.6,1.7-1.9,3.8
										C23.8,10.2,24,11.2,24.3,11.7z"/>
								</g>
							</g>
						</g>
					</g>
				</g>
			</g>
		</g>
		<g>
			<g>
				<g>
					<g>
						<g>
							<g>
								<path fill="#F29A2E" d="M12.1,12.6c0,0,2.3-0.6,1.5-5.5C13.1,3.8,10.4,2,10.4,2S8.4,4.7,9,8C9.8,12.9,12.1,12.6,12.1,12.6z"
									/>
							</g>
						</g>
					</g>
					<g>
						<g>
							<g>
								<path fill="#CF7519" d="M12.6,7.8c-0.3-2.5-2-3.9-2-3.9s-1.3,1.9-1,4.3c0.5,3.7,2,3.6,2,3.6S13,11.5,12.6,7.8z"/>
							</g>
						</g>
					</g>
					<g>
						<g>
							<g>
								<path fill="#BE630E" d="M11.7,11.7c0.4-0.2,1.2-1,0.8-3.9c-0.3-2.5-2-3.9-2-3.9s-0.2,0.3-0.5,0.9c0.4,0.4,1.6,1.7,1.9,3.8
									C12.2,10.2,12,11.2,11.7,11.7z"/>
							</g>
						</g>
					</g>
				</g>
			</g>
		</g>
	</g>
	<g>
		<g>
			<g>
				<g>
					<g>
						<g>
							<path fill="#F29A2E" d="M26.8,19c-1.5,5.9-4.3,10.5-8.8,10.5c-4.5,0-7.3-4.6-8.8-10.5C7.7,13.1,12.8,7.7,18,7.7
								C23.2,7.7,28.3,13.1,26.8,19z"/>
						</g>
					</g>
				</g>
			</g>
			<g>
				<g>
					<g>
						<g>
							<path fill="#3E4347" d="M24.7,14.4c-0.6-2.2-2-3-3.7-2.3C21,12.1,23.4,12,24.7,14.4z"/>
						</g>
					</g>
				</g>
				<g>
					<g>
						<g>
							<path fill="#3E4347" d="M11.3,14.4c0.6-2.2,2-3,3.7-2.3C15,12.1,12.6,12,11.3,14.4z"/>
						</g>
					</g>
				</g>
			</g>
			<g>
				<g>
					<g>
						<g>
							<path fill="#5B331D" d="M12.4,28.4c0-3.1,2.5-3.9,5.6-3.9s5.6,0.8,5.6,3.9S21.1,34,18,34S12.4,31.5,12.4,28.4z"/>
						</g>
					</g>
				</g>
				<g>
					<g>
						<g>
							<path fill="#6D4135" d="M24.7,27.4c0,3.7-3,4.7-6.7,4.7s-6.7-1-6.7-4.7s3-6.7,6.7-6.7S24.7,23.7,24.7,27.4z"/>
						</g>
					</g>
				</g>
				<g>
					<g>
						<g>
							<g>
								<g>
									<path fill="#633B2A" d="M20.9,27.4c1.6-1.5,3.5,0.3,1.6,2c-0.7,0.6-2.7,1.1-2.7,1.1S20.1,28.2,20.9,27.4z"/>
								</g>
							</g>
						</g>
						<g>
							<g>
								<g>
									<path fill="#5B331D" d="M22.5,29.4c-0.2,0.1-0.4,0.3-0.7,0.4c0.8-0.9-0.2-1.7-1-0.9c-0.4,0.4-0.9,1.4-1,1.6
										c0-0.3,0.4-2.3,1.1-3C22.5,25.9,24.4,27.7,22.5,29.4z"/>
								</g>
							</g>
						</g>
					</g>
					<g>
						<g>
							<g>
								<g>
									<path fill="#633B2A" d="M16.2,30.4c0,0-2.1-0.5-2.7-1.1c-1.9-1.7,0-3.5,1.6-2C15.9,28.2,16.2,30.4,16.2,30.4z"/>
								</g>
							</g>
						</g>
						<g>
							<g>
								<g>
									<path fill="#5B331D" d="M13.5,29.4c0.2,0.1,0.4,0.3,0.7,0.4c-0.8-0.9,0.2-1.7,1-0.9c0.4,0.4,0.9,1.4,1,1.6
										c0-0.3-0.4-2.3-1.1-3C13.5,25.9,11.6,27.7,13.5,29.4z"/>
								</g>
							</g>
						</g>
					</g>
				</g>
			</g>
			<g>
				<g>
					<g>
						<g>
							<g>
								<g>
									<g>
										<path fill="#3E4347" d="M24,17.1c0,2-0.9,2.4-2,2.5s-2-0.2-2-2.1s0.3-3.9,1.4-4.1C22.5,13.4,24,15.2,24,17.1z"/>
									</g>
								</g>
							</g>
							<g>
								<g>
									<g>
										<path fill="#FFFFFF" d="M24,17.4c0,1.8-0.9,2.2-2,2.4c-1.1,0.1-2-0.2-2-2c0-1.8,0.3-3.6,1.4-3.8C22.5,14,24,15.6,24,17.4z
											"/>
									</g>
								</g>
							</g>
							<g>
								<g>
									<ellipse fill="#65B1EF" cx="21.8" cy="17.7" rx="1.3" ry="1.6"/>
								</g>
							</g>
							<g>
								<g>
									<g>
										<ellipse fill="#3E4347" cx="21.8" cy="17.9" rx="0.7" ry="0.9"/>
									</g>
								</g>
							</g>
							<g>
								<g>
									<g>
										<circle fill="#FFFFFF" cx="22.4" cy="17.5" r="0.3"/>
									</g>
								</g>
							</g>
						</g>
						<g>
							<g>
								<g>
									<g>
										<path fill="#F29A2E" d="M20.1,20.8l3.9,0.8c-0.6-1.8-2.5-3-4.6-2.9L20.1,20.8z"/>
									</g>
								</g>
							</g>
						</g>
					</g>
				</g>
				<g>
					<g>
						<g>
							<g>
								<g>
									<g>
										<path fill="#3E4347" d="M11.8,17.1c0,2,0.9,2.4,2.1,2.5c1.2,0.1,2.1-0.2,2.1-2.1s-0.3-3.9-1.5-4.1
											C13.3,13.4,11.8,15.2,11.8,17.1z"/>
									</g>
								</g>
							</g>
							<g>
								<g>
									<g>
										<path fill="#FFFFFF" d="M11.7,17.4c0,1.8,1,2.2,2.1,2.4c1.2,0.1,2.1-0.2,2.1-2c0-1.8-0.3-3.6-1.5-3.8
											C13.3,14,11.7,15.6,11.7,17.4z"/>
									</g>
								</g>
							</g>
							<g>
								<g>
									<ellipse fill="#65B1EF" cx="14.2" cy="17.7" rx="1.3" ry="1.6"/>
								</g>
							</g>
							<g>
								<g>
									<g>
										<ellipse fill="#3E4347" cx="14.2" cy="17.9" rx="0.7" ry="0.9"/>
									</g>
								</g>
							</g>
							<g>
								<g>
									<g>
										<circle fill="#FFFFFF" cx="13.6" cy="17.5" r="0.3"/>
									</g>
								</g>
							</g>
						</g>
						<g>
							<g>
								<g>
									<g>
										<path fill="#F29A2E" d="M15.9,20.8L12,21.6c0.6-1.8,2.5-3,4.6-2.9L15.9,20.8z"/>
									</g>
								</g>
							</g>
							<g>
								<g>
									<g>
										<path fill="#E18823" d="M24,21.6c-0.5-0.8-0.9-1.5-1.9-2.1c-0.8-0.5-1.9-0.8-2.7-0.9c1.1-0.2,2.1,0,2.9,0.5
											C23.2,19.8,23.8,20.6,24,21.6z"/>
									</g>
								</g>
								<g>
									<g>
										<path fill="#E18823" d="M16.6,18.7c-0.8,0.1-1.9,0.4-2.7,0.9c-1.1,0.7-1.3,1.2-1.9,2c0-0.6,0.6-1.7,1.7-2.4
											C14.5,18.7,15.5,18.5,16.6,18.7z"/>
									</g>
								</g>
							</g>
						</g>
					</g>
				</g>
			</g>
			<g>
				<g>
					<g>
						<path fill="#6D4135" d="M21.2,7.6c0.2,0.5,0.4,1,0.2,1.9c-0.4,1.2-1.2,2.3-2.4,2.9c0.3-0.4,0.5-0.9,0.6-1.5
							c-0.5,1.1-2.5,1.5-2.6,4c-0.2-0.5-0.2-1.1-0.1-1.6c-0.4,1.5-2.1,2.6-2.1,4.3c-0.4-1.8-0.1-3.8,0.8-5.5c-1,0.6-1.7,1.4-2.1,2.4
							c-0.3-1.8,0.1-3.7,1.2-5.2c0.7-0.9,1.6-1.5,2.6-1.9c-0.2-0.1-0.7-0.3-1-0.2c0.5-0.3,1.2-0.4,1.8,0c-0.1-0.3-0.1-0.5-0.3-0.8
							c0.5,0.1,0.9,0.5,1,1c0.3-0.5,0.8-0.9,1.4-1c-0.2,0.4-0.4,0.8-0.4,1.2c0.3-0.6,1-1,1.7-1C21.3,6.8,21.1,7.2,21.2,7.6z"/>
					</g>
				</g>
			</g>
			<g>
				<g>
					<g>
						<path fill="#633B2A" d="M17.1,14.9c0.1-2.5,2.1-2.9,2.6-4c-0.1,0.5-0.3,1-0.6,1.5c1.1-0.6,2-1.7,2.4-2.9
							c0.1-0.3,0.1-0.6,0.1-0.9c-0.1,0.6-0.4,1.3-1.2,1.8c0-0.4,0.1-0.7,0.1-1.1c-0.3,0.7-1,1.2-1.7,1.6c-0.7,0.4-1.4,1-1.5,1.8
							c0-0.3-0.1-0.6-0.1-0.9c-0.6,0.7-1.1,1.4-1.7,2.1c0.1-1,0.5-1.9,0.9-2.8c-0.9,0.3-1.8,0.7-2.3,1.5c0.2-0.9,0.4-1.9,0.8-2.7
							c0.2-0.6,0.6-1.2,1-1.7c-0.4,0.3-0.7,0.6-1,1c-1.1,1.5-1.5,3.4-1.2,5.2c0.4-1,1.2-1.9,2.1-2.4c-1,1.6-1.3,3.6-0.8,5.5
							c0-1.6,1.7-2.7,2.1-4.3C16.9,13.8,16.9,14.4,17.1,14.9z"/>
					</g>
				</g>
			</g>
		</g>
	</g>
</g>
</svg>
