<?xml version="1.0" encoding="utf-8"?>
<!-- Generator: Adobe Illustrator 18.0.0, SVG Export Plug-In . SVG Version: 6.00 Build 0)  -->
<!DOCTYPE svg PUBLIC "-//W3C//DTD SVG 1.1//EN" "http://www.w3.org/Graphics/SVG/1.1/DTD/svg11.dtd">
<svg version="1.1" id="Layer_1" xmlns="http://www.w3.org/2000/svg" xmlns:xlink="http://www.w3.org/1999/xlink" x="0px" y="0px"
	 viewBox="0 0 36 36" enable-background="new 0 0 36 36" xml:space="preserve">
<g>
	<g>
		<g>
			<g>
				<g>
					<g>
						<path fill="#3E4347" d="M31.1,19.4c0.3-2-0.5-4.2-2.1-5.6c0.7,0.1,1.3,0.3,1.9,0.6c-0.5-2.1-2-4-3.9-5.1
							c0.9,0.1,1.9,0.3,2.7,0.8c-1-1.8-2.7-3.2-4.6-3.9c0.7,0,1.3,0,2,0.3c-0.7-1.4-2.4-2.2-4-1.9C23.4,3.8,24,3.2,24.8,3
							c-1.4-0.8-3.3-0.4-4.4,0.8C19.7,3,18.9,2,17.9,2l1.3,1.3c-1.7-1.2-4-1.4-5.8-0.5c0.8,0,1.6,0.3,2.1,0.8
							C12.9,4.4,10,4.2,7.4,3.1c0.8,1,1.9,1.7,3.1,1.9C8.8,5.4,7.3,6.7,6.7,8.4c0.5-0.6,1.1-0.9,1.9-0.9c-1.9,1.9-3.2,4.5-3.7,7.2
							c0.6-0.8,1.1-1.6,1.6-2.4c-0.1,2.1-0.7,4.1-1.7,5.9c0.8-0.5,1.4-1.1,1.9-2C6.3,17,6.1,17.8,6,18.7c0,0,0,0,0,0
							c-0.4,2,0.1,4.1,0.8,6.1C11,37.5,27,37.4,30.3,22.4c0.3-1.8,0.3-2.9-0.3-4.7C30.6,18.3,30.9,18.6,31.1,19.4z"/>
					</g>
				</g>
			</g>
		</g>
	</g>
	<g>
		<g>
			<g>
				<path fill="#31373A" d="M26.9,16.4c-1.8-1.5-4.2-1.5-6.1-0.2l-5.1,3.3c-0.2-4.5-3.3-5.5-4.9-4.8c1.2-1.2,2.9-1.9,4.6-1.7
					c-1.4-1-3.3-1.3-5-0.8c1.9-2,3.5-2.1,4.4-1.5c-0.9-1.5-2.2-2.7-3.8-3.5c2.2-0.5,4.6,0.4,6,2.1c0.9-1.6,2.4-2.7,4.1-3.2
					C20.1,7,19.3,8.2,19,9.5c1.5-1.9,4.3-2.7,6.6-1.9c-1.8,0.3-3.6,1-4.4,2.6c2-0.1,3.9,1.1,4.7,2.9c-0.7-0.6-1.8-0.8-2.7-0.5
					C24.9,13.4,26.3,14.8,26.9,16.4z"/>
			</g>
		</g>
	</g>
	<g>
		<g>
			<g>
				<g>
					<path fill="#8D9BA3" d="M12.4,24.5c0.1,4.9,2.6,6.6,5.6,6.6c3.1,0,5.6-1.7,5.6-6.6C19.9,21.4,16.2,21.4,12.4,24.5z"/>
				</g>
			</g>
		</g>
		<g>
			<g>
				<g>
					<g>
						<g>
							<g>
								<path fill="#7B8B92" d="M19.3,25.9c0.1-0.1,0.3-0.1,0.4-0.1c0.1,0,0.2,0.1,0.3,0.2c0.1,0.1,0.1,0.2,0,0.3
									c0,0.1-0.2,0.3-0.3,0.3c-0.3,0.2-0.6,0.3-0.9,0.4c-0.2,0-0.5,0.2-0.5,0.2C18.5,26.7,18.8,26.2,19.3,25.9z"/>
							</g>
						</g>
					</g>
					<g>
						<g>
							<g>
								<path fill="#7B8B92" d="M17.7,27.2c0,0-0.4-0.2-0.5-0.2c-0.3-0.1-0.6-0.2-0.9-0.4c-0.1-0.1-0.2-0.2-0.3-0.3
									c0-0.1,0-0.2,0-0.3c0.1-0.1,0.2-0.2,0.3-0.2c0.1,0,0.3,0.1,0.4,0.1C17.2,26.2,17.6,26.7,17.7,27.2z"/>
							</g>
						</g>
					</g>
				</g>
			</g>
			<g>
				<g>
					<g>
						<g>
							<circle fill="#8D9BA3" cx="14" cy="20.1" r="4.9"/>
						</g>
					</g>
				</g>
				<g>
					<g>
						<g>
							<circle fill="#8D9BA3" cx="22" cy="20.1" r="4.9"/>
						</g>
					</g>
				</g>
			</g>
			<g>
				<g>
					<g>
						<g>
							<g>
								<path fill="#3E4347" d="M16.5,20.3c0,1.5-1.1,2.7-2.5,2.7c-1.4,0-2.5-1.2-2.5-2.7c0-1.5,1.2-2.7,2.5-2.7
									C15.4,17.6,16.5,18.8,16.5,20.3z"/>
							</g>
						</g>
					</g>
					<g>
						<g>
							<g>
								<path fill="#FFFFFF" d="M16.8,20.7c0,1.4-1.1,2.6-2.5,2.6c-1.4,0-2.5-1.2-2.5-2.6c0-1.5,1.1-2.6,2.5-2.6
									C15.7,18.1,16.8,19.3,16.8,20.7z"/>
							</g>
						</g>
					</g>
					<g>
						<g>
							<g>
								<path fill="#65B1EF" d="M15.9,21c0,0.9-0.7,1.6-1.5,1.6c-0.8,0-1.5-0.7-1.5-1.6c0-0.9,0.7-1.6,1.5-1.6
									C15.2,19.4,15.9,20.1,15.9,21z"/>
							</g>
						</g>
					</g>
					<g>
						<g>
							<g>
								<path fill="#3E4347" d="M15.1,21c0,0.5-0.4,0.8-0.8,0.8c-0.4,0-0.8-0.4-0.8-0.8c0-0.5,0.4-0.8,0.8-0.8
									C14.8,20.1,15.1,20.5,15.1,21z"/>
							</g>
						</g>
					</g>
					<g>
						<g>
							<g>
								<circle fill="#FFFFFF" cx="14.8" cy="20.4" r="0.3"/>
							</g>
						</g>
					</g>
				</g>
				<g>
					<g>
						<g>
							<g>
								<path fill="#3E4347" d="M19.5,20.3c0,1.5,1.1,2.7,2.5,2.7c1.4,0,2.5-1.2,2.5-2.7c0-1.5-1.2-2.7-2.5-2.7
									C20.7,17.6,19.5,18.8,19.5,20.3z"/>
							</g>
						</g>
					</g>
					<g>
						<g>
							<g>
								<path fill="#FFFFFF" d="M19.3,20.7c0,1.4,1.1,2.6,2.5,2.6c1.4,0,2.5-1.2,2.5-2.6c0-1.5-1.1-2.6-2.5-2.6
									C20.4,18.1,19.3,19.3,19.3,20.7z"/>
							</g>
						</g>
					</g>
					<g>
						<g>
							<g>
								<path fill="#65B1EF" d="M23.3,21c0,0.9-0.7,1.6-1.5,1.6c-0.8,0-1.5-0.7-1.5-1.6c0-0.9,0.7-1.6,1.5-1.6
									C22.6,19.4,23.3,20.1,23.3,21z"/>
							</g>
						</g>
					</g>
					<g>
						<g>
							<g>
								<path fill="#3E4347" d="M22.5,21c0,0.5-0.4,0.8-0.8,0.8c-0.4,0-0.8-0.4-0.8-0.8c0-0.5,0.4-0.8,0.8-0.8
									C22.2,20.1,22.5,20.5,22.5,21z"/>
							</g>
						</g>
					</g>
					<g>
						<g>
							<g>
								<circle fill="#FFFFFF" cx="22.3" cy="20.4" r="0.3"/>
							</g>
						</g>
					</g>
				</g>
			</g>
			<g>
				<g>
					<g>
						<g>
							<g>
								<path fill="#7B8B92" d="M21.6,28.4c0.1-0.2,0.1-0.4,0.1-0.6c0-0.2-0.1-0.4-0.3-0.5c-0.1-0.1-0.2-0.1-0.3-0.1
									c0,0,0.1-0.1,0.3,0c0.2,0.1,0.4,0.3,0.4,0.6c0,0.5-0.3,0.8-0.4,0.9C21.5,28.7,21.5,28.5,21.6,28.4z"/>
							</g>
						</g>
						<g>
							<g>
								<path fill="#7B8B92" d="M21.1,28c0.1-0.1,0.2-0.2,0.3-0.2C21.3,27.8,21.2,27.9,21.1,28c-0.1,0.2-0.3,0.5-0.6,0.7
									C20,29.1,19,29.5,18,29.5c-0.5,0-1-0.1-1.4-0.2c-0.4-0.2-0.8-0.4-1.1-0.6c-0.3-0.2-0.5-0.4-0.6-0.6
									c-0.1-0.1-0.2-0.2-0.2-0.3c0,0,0.1,0.1,0.3,0.2c0.2,0.1,0.4,0.3,0.7,0.4c0.3,0.2,0.7,0.3,1.1,0.4c0.4,0.1,0.8,0.2,1.3,0.2
									c0.4,0,0.9,0,1.3-0.2c0.4-0.1,0.8-0.2,1.1-0.4C20.7,28.3,20.9,28.1,21.1,28z"/>
							</g>
						</g>
						<g>
							<g>
								<path fill="#7B8B92" d="M14.4,27.8c0,0.2,0,0.5,0.1,0.6c0.1,0.1,0.1,0.2,0.1,0.3c-0.1-0.1-0.4-0.4-0.4-0.9
									c0-0.3,0.3-0.5,0.4-0.6c0.2-0.1,0.3,0,0.3,0c-0.1,0-0.2,0-0.3,0.1C14.5,27.4,14.4,27.6,14.4,27.8z"/>
							</g>
						</g>
					</g>
				</g>
			</g>
		</g>
	</g>
</g>
</svg>
