<?xml version="1.0" encoding="utf-8"?>
<!-- Generator: Adobe Illustrator 18.0.0, SVG Export Plug-In . SVG Version: 6.00 Build 0)  -->
<!DOCTYPE svg PUBLIC "-//W3C//DTD SVG 1.1//EN" "http://www.w3.org/Graphics/SVG/1.1/DTD/svg11.dtd">
<svg version="1.1" id="Layer_1" xmlns="http://www.w3.org/2000/svg" xmlns:xlink="http://www.w3.org/1999/xlink" x="0px" y="0px"
	 viewBox="0 0 36 36" enable-background="new 0 0 36 36" xml:space="preserve">
<g>
	<g>
		<g>
			<g>
				<g>
					<g>
						<path fill="#FFD93B" d="M33.9,11c-2.7,3.9-7.5,4.6-11.1,1.7c-0.2-0.2-0.3-0.5-0.1-0.8c2.6-3.9,7.4-4.7,11.1-1.8
							C34,10.4,34.1,10.7,33.9,11z"/>
					</g>
				</g>
			</g>
			<g>
				<g>
					<g>
						<path fill="#FC97B2" d="M31.5,11.5c-1.8,2.4-5.1,2.9-7.4,1.2C25.8,10.3,29.1,9.7,31.5,11.5z"/>
					</g>
				</g>
			</g>
			<g>
				<g>
					<g>
						<path fill="#E88EA7" d="M31,11.2C29,10,26.4,11,24.8,13.1c-0.2-0.1-0.5-0.3-0.7-0.4C25.7,10.4,28.7,9.8,31,11.2z"/>
					</g>
				</g>
			</g>
		</g>
		<g>
			<g>
				<g>
					<g>
						<path fill="#FFD93B" d="M2.1,11c2.7,3.9,7.5,4.6,11.1,1.7c0.2-0.2,0.3-0.5,0.1-0.8c-2.6-3.9-7.4-4.7-11.1-1.8
							C2,10.4,1.9,10.7,2.1,11z"/>
					</g>
				</g>
			</g>
			<g>
				<g>
					<g>
						<path fill="#FC97B2" d="M4.5,11.5c1.8,2.4,5.1,2.9,7.4,1.2C10.2,10.3,6.9,9.7,4.5,11.5z"/>
					</g>
				</g>
			</g>
			<g>
				<g>
					<g>
						<path fill="#E88EA7" d="M5,11.2C7,10,9.6,11,11.2,13.1c0.2-0.1,0.5-0.3,0.7-0.4C10.3,10.4,7.3,9.8,5,11.2z"/>
					</g>
				</g>
			</g>
		</g>
	</g>
	<g>
		<g>
			<g>
				<path fill="#FFD93B" d="M28,24.1c0.3-1.2,0.4-2.4,0.2-3.8C26.9,11.4,24.4,8.1,18,8.1c-6.4,0-8.9,3.3-10.2,12.2
					c-0.2,1.3-0.1,2.6,0.2,3.8H28z"/>
			</g>
		</g>
	</g>
	<g>
		<g>
			<g>
				<g>
					<g>
						<path fill="#3E4347" d="M16.9,15.6c0.1-0.3,0.1-0.7,0.1-1c0-1.9-1.1-3.4-2.6-3.3c-1.4,0.1-2.6,1.7-2.6,3.6
							c0,0.4,0.1,0.7,0.1,1L16.9,15.6z"/>
					</g>
				</g>
			</g>
			<g>
				<g>
					<g>
						<path fill="#FFFFFF" d="M17.3,15.1c0,1.7-1.2,3.1-2.7,3.1c-1.5,0-2.7-1.4-2.7-3.1c0-1.7,1.2-3.1,2.7-3.1
							C16.1,12,17.3,13.4,17.3,15.1z"/>
					</g>
				</g>
			</g>
			<g>
				<g>
					<g>
						<path fill="#65B1EF" d="M16.3,15.7c0,1-0.8,1.8-1.7,1.8c-0.9,0-1.7-0.8-1.7-1.8c0-1,0.8-1.8,1.7-1.8
							C15.5,13.9,16.3,14.7,16.3,15.7z"/>
					</g>
				</g>
			</g>
			<g>
				<g>
					<g>
						<ellipse fill="#3E4347" cx="14.6" cy="15.7" rx="0.8" ry="0.9"/>
					</g>
				</g>
			</g>
			<g>
				<g>
					<g>
						<circle fill="#FFFFFF" cx="15.2" cy="15.1" r="0.4"/>
					</g>
				</g>
			</g>
		</g>
		<g>
			<g>
				<g>
					<g>
						<path fill="#3E4347" d="M19.1,15.6c-0.1-0.3-0.1-0.7-0.1-1c0-1.9,1.1-3.4,2.6-3.3c1.4,0.1,2.6,1.7,2.6,3.6
							c0,0.4-0.1,0.7-0.1,1L19.1,15.6z"/>
					</g>
				</g>
			</g>
			<g>
				<g>
					<g>
						<path fill="#FFFFFF" d="M18.7,15.1c0,1.7,1.2,3.1,2.7,3.1c1.5,0,2.7-1.4,2.7-3.1c0-1.7-1.2-3.1-2.7-3.1
							C19.9,12,18.7,13.4,18.7,15.1z"/>
					</g>
				</g>
			</g>
			<g>
				<g>
					<g>
						<path fill="#65B1EF" d="M23.1,15.7c0,1-0.8,1.8-1.7,1.8c-0.9,0-1.7-0.8-1.7-1.8c0-1,0.8-1.8,1.7-1.8
							C22.3,13.9,23.1,14.7,23.1,15.7z"/>
					</g>
				</g>
			</g>
			<g>
				<g>
					<g>
						<ellipse fill="#3E4347" cx="21.4" cy="15.7" rx="0.8" ry="0.9"/>
					</g>
				</g>
			</g>
			<g>
				<g>
					<g>
						<circle fill="#FFFFFF" cx="22" cy="15.1" r="0.4"/>
					</g>
				</g>
			</g>
		</g>
	</g>
	<g>
		<g>
			<g>
				<path fill="#FFE9AB" d="M29.9,24.7c0.1,4.8-4.2,7.7-11.6,7.6c-7.4,0.1-11.7-2.8-11.6-7.6c-0.1-4.8,4.2-7.7,11.6-7.6
					C25.7,17,30.1,19.9,29.9,24.7z"/>
			</g>
		</g>
	</g>
	<g opacity="0.5">
		<g>
			<g>
				<path fill="#FFD68D" d="M29.9,25.6c-0.1,0.7-0.1,1.1-0.5,1.9c-0.5,1.4-2,2.8-3.4,3.4c-2.3,1.2-5.2,1.5-7.7,1.5
					c-2.5,0-5.5-0.3-7.7-1.5c-1.3-0.6-2.9-2-3.4-3.4c-0.4-0.9-0.3-1.1-0.5-1.9c0.1,0.3,0.5,1.3,0.8,1.7c0.7,1.2,2.2,2.2,3.5,2.7
					c2.1,0.9,5,1,7.3,1c2.4,0,5.1-0.1,7.3-1c1.5-0.5,2.9-1.7,3.5-2.7C29.4,26.9,29.8,25.9,29.9,25.6z"/>
			</g>
		</g>
	</g>
	<g>
		<g>
			<g>
				<g>
					<path fill="#FFCC7B" d="M22.2,23C22.2,23,22.2,23,22.2,23C22.2,23,22.2,23,22.2,23C22.2,23,22.2,23,22.2,23z"/>
				</g>
			</g>
		</g>
	</g>
	<g>
		<g>
			<g>
				<g>
					<g>
						<path fill="#FFD93B" d="M24.1,10.1l-4.6-1.7c1.1-1.1,2-2.3,2.6-3.8l1.2,0.6C22.8,7.8,23.3,9.3,24.1,10.1z"/>
					</g>
				</g>
			</g>
			<g>
				<g>
					<g>
						<path fill="#3E4347" d="M23.7,6c-0.2,0-0.4-0.1-0.5-0.2c-0.1,0.3-0.2,0.7-0.2,1c-0.1-0.3-0.2-0.6-0.2-1
							c-0.3,0.3-0.6,0.6-0.9,0.9c0.2-0.3,0.3-0.6,0.4-0.9c-0.2,0.2-0.3,0.4-0.5,0.5c0.2-1-0.1-0.8-0.4-1.2c-0.6-0.7-0.1-1.6,1.1-1.4
							c0.7,0.2,1.4,0.6,1.9,1.2C24.6,5.4,24.4,6.1,23.7,6z"/>
					</g>
				</g>
			</g>
		</g>
		<g>
			<g>
				<g>
					<g>
						<path fill="#FFD93B" d="M11.9,10.1l4.6-1.7c-1.1-1.1-2-2.3-2.6-3.8l-1.2,0.6C13.2,7.8,12.7,9.3,11.9,10.1z"/>
					</g>
				</g>
			</g>
			<g>
				<g>
					<g>
						<path fill="#3E4347" d="M12.3,6c0.2,0,0.4-0.1,0.5-0.2c0.1,0.3,0.2,0.7,0.2,1c0.1-0.3,0.2-0.6,0.2-1c0.3,0.3,0.6,0.6,0.9,0.9
							c-0.2-0.3-0.3-0.6-0.4-0.9c0.2,0.2,0.3,0.4,0.5,0.5c-0.2-1,0.1-0.8,0.4-1.2c0.6-0.7,0.1-1.6-1.1-1.4c-0.7,0.2-1.4,0.6-1.9,1.2
							C11.4,5.4,11.6,6.1,12.3,6z"/>
					</g>
				</g>
			</g>
		</g>
	</g>
	<g>
		<g>
			<g>
				<g>
					<path fill="#FFD68D" d="M13,27.3c0.6,0.4,0.8,0.5,1.6,0.8c1,0.4,2.3,0.8,3.7,0.8c1.3,0,2.5-0.3,3.7-0.8c0.8-0.3,1-0.5,1.6-0.8
						c0,0-0.4,0.6-1.4,1.2c-1.1,0.7-2.4,1.1-3.9,1.2c-1.4,0-2.8-0.4-3.9-1.2C13.4,28,13,27.3,13,27.3z"/>
				</g>
			</g>
		</g>
		<g>
			<g>
				<g>
					<g>
						<path fill="#FFD68D" d="M23.7,25.4c0,0,0.2,1,0.8,1.6c0.6,0.7,1.5,0.9,1.5,0.9c-0.5,0.1-1.3-0.1-1.8-0.7
							C23.7,26.7,23.5,25.9,23.7,25.4z"/>
					</g>
				</g>
			</g>
			<g>
				<g>
					<g>
						<path fill="#FFD68D" d="M13,25.4c0,0-0.2,1-0.8,1.6c-0.6,0.7-1.5,0.9-1.5,0.9c0.5,0.1,1.3-0.1,1.8-0.7
							C12.9,26.7,13.1,25.9,13,25.4z"/>
					</g>
				</g>
			</g>
		</g>
	</g>
	<g>
		<g>
			<g>
				<g>
					<g>
						<path fill="#FFD68D" d="M22.1,23.4c-0.6,0.2-1.7,0.6-1.7,0.6s0.5-1.6,1-2.2c0.9-1,1.7-0.9,2.1-0.3
							C23.8,22,23.7,22.8,22.1,23.4z"/>
					</g>
				</g>
			</g>
			<g>
				<g>
					<g>
						<path fill="#FFCC7B" d="M23,23c0.1-0.2,0-0.3,0-0.5c-0.2-0.3-0.8-0.4-1.3,0.2c-0.3,0.3-1.1,1.2-1.2,1.3c0.1-0.2,0.5-1.6,1-2.2
							c0.8-1,1.7-0.9,2.1-0.3C23.7,21.9,23.7,22.5,23,23z"/>
					</g>
				</g>
			</g>
			<g>
				<g>
					<g>
						<path fill="#FFD68D" d="M21.8,20.9c0.5-0.3,0.7-0.5,1.4-0.4c0.4,0.1,0.7,0.3,1,0.6c0.3,0.4,0.2,0.8,0.1,1.2
							c-0.4,1-1,1.3-1.9,1.7c0.8-0.5,1.3-0.9,1.7-1.8c0.1-0.4,0.1-0.7-0.1-1c-0.2-0.3-0.5-0.5-0.8-0.6
							C22.6,20.5,22.3,20.7,21.8,20.9z"/>
					</g>
				</g>
			</g>
		</g>
		<g>
			<g>
				<g>
					<g>
						<path fill="#FFD68D" d="M14.5,23.4c0.6,0.2,1.7,0.6,1.7,0.6s-0.5-1.6-1-2.2c-0.9-1-1.7-0.9-2.1-0.3
							C12.8,22,12.9,22.8,14.5,23.4z"/>
					</g>
				</g>
			</g>
			<g>
				<g>
					<g>
						<path fill="#FFCC7B" d="M13.6,23c-0.1-0.2,0-0.3,0-0.5c0.2-0.3,0.8-0.4,1.3,0.2c0.3,0.3,1.1,1.2,1.2,1.3
							c-0.1-0.2-0.5-1.6-1-2.2c-0.8-1-1.7-0.9-2.1-0.3C12.9,21.9,12.9,22.5,13.6,23z"/>
					</g>
				</g>
			</g>
			<g>
				<g>
					<g>
						<path fill="#FFD68D" d="M14.8,20.9c-0.5-0.3-0.7-0.5-1.4-0.4c-0.4,0.1-0.7,0.3-1,0.6c-0.3,0.4-0.2,0.8-0.1,1.2
							c0.4,1,1,1.3,1.9,1.7c-0.8-0.5-1.3-0.9-1.7-1.8c-0.1-0.4-0.1-0.7,0.1-1c0.2-0.3,0.5-0.5,0.8-0.6C14,20.5,14.3,20.7,14.8,20.9z
							"/>
					</g>
				</g>
			</g>
		</g>
	</g>
</g>
</svg>
