<?xml version="1.0" encoding="utf-8"?>
<!-- Generator: Adobe Illustrator 18.0.0, SVG Export Plug-In . SVG Version: 6.00 Build 0)  -->
<!DOCTYPE svg PUBLIC "-//W3C//DTD SVG 1.1//EN" "http://www.w3.org/Graphics/SVG/1.1/DTD/svg11.dtd">
<svg version="1.1" id="Layer_1" xmlns="http://www.w3.org/2000/svg" xmlns:xlink="http://www.w3.org/1999/xlink" x="0px" y="0px"
	 viewBox="0 0 36 36" enable-background="new 0 0 36 36" xml:space="preserve">
<g>
	<g>
		<g>
			<g>
				<g>
					<g>
						<circle fill="#DAE5EF" cx="27.9" cy="14.3" r="6.1"/>
					</g>
				</g>
			</g>
			<g>
				<g>
					<g>
						<circle fill="#CBD6E0" cx="28.2" cy="14.3" r="3.8"/>
					</g>
				</g>
			</g>
			<g>
				<g>
					<g>
						<path fill="#BBC7D1" d="M32,14.2c-0.5-1.5-1.9-2.5-3.6-2.5c-2.1,0-3.8,1.7-3.8,3.8c0,0,0,0,0,0.1c-0.2-0.4-0.3-0.9-0.3-1.4
							c0-2.1,1.7-3.8,3.8-3.8C30.3,10.5,32,12.1,32,14.2z"/>
					</g>
				</g>
			</g>
		</g>
		<g>
			<g>
				<g>
					<g>
						<circle fill="#DAE5EF" cx="8.1" cy="14.3" r="6.1"/>
					</g>
				</g>
			</g>
			<g>
				<g>
					<g>
						<circle fill="#CBD6E0" cx="7.8" cy="14.3" r="3.8"/>
					</g>
				</g>
			</g>
			<g>
				<g>
					<g>
						<path fill="#BBC7D1" d="M4,14.2c0.5-1.5,1.9-2.5,3.6-2.5c2.1,0,3.8,1.7,3.8,3.8c0,0,0,0,0,0.1c0.2-0.4,0.3-0.9,0.3-1.4
							c0-2.1-1.7-3.8-3.8-3.8C5.7,10.5,4,12.1,4,14.2z"/>
					</g>
				</g>
			</g>
		</g>
	</g>
	<g>
		<g>
			<g>
				<path fill="#DAE5EF" d="M30.3,20.2c0,8.7-5.5,11.4-12.3,11.4S5.7,28.9,5.7,20.2c0-6.3,5.5-12.4,12.3-12.4S30.3,13.9,30.3,20.2z"
					/>
			</g>
		</g>
	</g>
	<g>
		<g>
			<g>
				<path fill="#CBD6E0" d="M5.9,22.4c0.5,1.3,1,2.9,2.4,4.5c1.4,1.7,3.1,2.3,4,2.6c1,0.4,3.1,0.8,5.7,0.8c0.8,0,3.6,0,5.7-0.8
					c0.9-0.3,2.6-0.9,4-2.6c0.8-0.9,1.5-2,2.4-4.5c-0.3,1.9-0.6,3.3-1.8,5c-0.5,0.8-1.9,2.3-4.2,3.3c-1.9,0.8-4.2,1-6.1,1
					c-1.8,0-4.1-0.2-6.1-1c-2.2-0.9-3.7-2.3-4.2-3.3C6.5,25.7,6.2,24.3,5.9,22.4z"/>
			</g>
		</g>
	</g>
	<g>
		<g>
			<g>
				<g>
					<path fill="#BBC7D1" d="M23.2,27.1c-0.3,0.5-0.6,1-1.2,1.2c-0.8,0.3-1.8,0.4-2.7,0c-0.7-0.3-0.9-0.6-1.3-1
						c-0.3,0.4-0.6,0.8-1.3,1c-0.8,0.3-1.8,0.3-2.7,0c-0.7-0.3-1-0.7-1.2-1.2c0.4,0.5,1,0.8,1.4,0.8c0.7,0.2,1.5,0.1,2.2-0.2
						c0.8-0.4,1.1-0.9,1.2-1.6l0.4-2.2l0.4,2.2c0.1,0.7,0.3,1.2,1.2,1.6c0.8,0.4,1.6,0.4,2.2,0.2C22.4,27.8,22.8,27.5,23.2,27.1z"/>
				</g>
			</g>
			<g>
				<g>
					<path fill="#BBC7D1" d="M23.7,27.1c0,0.4-0.2,0.8-0.4,1.1c0.1-0.4,0.2-0.7,0.2-1.1c0.1-0.8-0.5-0.6-0.5-0.6
						C23.5,26.2,23.7,26.5,23.7,27.1z"/>
				</g>
			</g>
			<g>
				<g>
					<path fill="#BBC7D1" d="M12.7,28.1c-0.2-0.2-0.4-0.6-0.4-1.1c0-0.5,0.2-0.9,0.7-0.6c-0.3,0-0.6,0-0.5,0.6
						C12.5,27.3,12.6,27.9,12.7,28.1z"/>
				</g>
			</g>
		</g>
	</g>
	<g>
		<g>
			<g>
				<path fill="#DAE5EF" d="M21.8,6.9c0.3-1.1,1.5-1.6,2.5-2c-1.7,0-3.4,0.7-4.5,1.9c-0.2-0.8,0-1.8,0.4-2.5c-1,0.4-1.7,1.4-1.6,2.5
					c-0.7-1.1-2-1.7-3.3-1.7c0.6,0.4,1,1.1,1.1,1.9c-1-0.5-2.2-0.6-3.3-0.3c0.9,0.5,1.7,1.2,2.1,2c2.4-0.2,4-0.2,5.2,0
					c1.2-0.7,2.7-1,4.2-0.8C23.8,7.4,22.8,7,21.8,6.9z"/>
			</g>
		</g>
	</g>
	<g>
		<g>
			<g>
				<g>
					<g>
						<g>
							<path fill="#CBD6E0" d="M25.7,20c0,1.8-1.3,3.3-2.9,3.3c-1.6,0-2.9-1.5-2.9-3.3s1.3-3.3,2.9-3.3C24.4,16.7,25.7,18.2,25.7,20
								z"/>
						</g>
					</g>
				</g>
				<g>
					<g>
						<g>
							<path fill="#FFFFFF" d="M25.8,20.5c0,1.8-1.3,3.2-2.8,3.2c-1.6,0-2.8-1.4-2.8-3.2c0-1.7,1.3-3.2,2.8-3.2
								C24.6,17.4,25.8,18.8,25.8,20.5z"/>
						</g>
					</g>
				</g>
				<g>
					<g>
						<g>
							<path fill="#65B1EF" d="M24.9,20.9c0,1-0.8,1.9-1.9,1.9c-1,0-1.9-0.8-1.9-1.9c0-1,0.8-1.9,1.9-1.9
								C24,19.1,24.9,19.9,24.9,20.9z"/>
						</g>
					</g>
				</g>
				<g>
					<g>
						<g>
							<path fill="#3E4347" d="M24,20.9c0,0.6-0.5,1-1,1c-0.6,0-1-0.5-1-1c0-0.6,0.5-1,1-1C23.6,19.9,24,20.4,24,20.9z"/>
						</g>
					</g>
				</g>
				<g>
					<g>
						<g>
							<circle fill="#FFFFFF" cx="23.8" cy="20.2" r="0.5"/>
						</g>
					</g>
				</g>
			</g>
			<g>
				<g>
					<g>
						<path fill="#3E4347" d="M24.1,14.7c1.4,0.5,2.3,1.9,2.7,3.3l0,0c0,0.1,0,0.2-0.1,0.2c-0.1,0-0.2,0-0.2-0.1
							C26,17,25,15.9,23.8,15.7c-0.6-0.1-1.1-0.1-1.7,0c-0.4,0-0.7-0.2-0.7-0.6c0-0.4,0.2-0.7,0.6-0.7
							C22.4,14.3,23.4,14.4,24.1,14.7z"/>
					</g>
				</g>
			</g>
		</g>
		<g>
			<g>
				<g>
					<g>
						<g>
							<path fill="#CBD6E0" d="M10.3,20c0,1.8,1.3,3.3,2.9,3.3s2.9-1.5,2.9-3.3s-1.3-3.3-2.9-3.3S10.3,18.2,10.3,20z"/>
						</g>
					</g>
				</g>
				<g>
					<g>
						<g>
							<path fill="#FFFFFF" d="M10.2,20.5c0,1.8,1.3,3.2,2.8,3.2c1.6,0,2.8-1.4,2.8-3.2c0-1.7-1.3-3.2-2.8-3.2
								C11.4,17.4,10.2,18.8,10.2,20.5z"/>
						</g>
					</g>
				</g>
				<g>
					<g>
						<g>
							<path fill="#65B1EF" d="M14.9,20.9c0,1-0.8,1.9-1.9,1.9c-1,0-1.9-0.8-1.9-1.9c0-1,0.8-1.9,1.9-1.9
								C14,19.1,14.9,19.9,14.9,20.9z"/>
						</g>
					</g>
				</g>
				<g>
					<g>
						<g>
							<path fill="#3E4347" d="M14,20.9c0,0.6-0.5,1-1,1c-0.6,0-1-0.5-1-1c0-0.6,0.5-1,1-1C13.6,19.9,14,20.4,14,20.9z"/>
						</g>
					</g>
				</g>
				<g>
					<g>
						<g>
							<circle fill="#FFFFFF" cx="13.8" cy="20.2" r="0.5"/>
						</g>
					</g>
				</g>
			</g>
			<g>
				<g>
					<g>
						<path fill="#3E4347" d="M11.9,14.7c-1.4,0.5-2.3,1.9-2.7,3.3l0,0c0,0.1,0,0.2,0.1,0.2c0.1,0,0.2,0,0.2-0.1
							c0.5-1.1,1.5-2.2,2.7-2.4c0.6-0.1,1.1-0.1,1.7,0c0.4,0,0.7-0.2,0.7-0.6c0-0.4-0.2-0.7-0.6-0.7C13.6,14.3,12.6,14.4,11.9,14.7z
							"/>
					</g>
				</g>
			</g>
		</g>
	</g>
	<g>
		<g>
			<g>
				<g>
					<path fill="#3E4347" d="M20.7,24.6c0-1.5-1.2-5.5-2.7-5.5c-1.5,0-2.7,4-2.7,5.5c0,1.5,1.2,1.9,2.7,1.9
						C19.5,26.5,20.7,26.1,20.7,24.6z"/>
				</g>
			</g>
		</g>
		<g>
			<g>
				<g>
					<path fill="#31373A" d="M20.7,24.6c0,1.5-1.2,1.9-2.7,1.9c-0.6,0-1.2-0.1-1.7-0.3c0.2,0,0.5,0,0.7,0c1.3-0.1,2.4-0.7,2.5-2.4
						c0-1-0.3-3.1-0.9-4.4C19.8,20.3,20.7,23.3,20.7,24.6z"/>
				</g>
			</g>
		</g>
	</g>
	<g opacity="0.1">
		<g>
			<g>
				<path fill="#FFFFFF" d="M17.4,22.4c-0.2,0.8-0.6,1.4-0.9,1.3c-0.3-0.1-0.4-0.8-0.2-1.6c0.2-0.8,0.6-1.4,0.9-1.3
					C17.5,20.9,17.6,21.6,17.4,22.4z"/>
			</g>
		</g>
	</g>
</g>
</svg>
