<?xml version="1.0" encoding="utf-8"?>
<!-- Generator: Adobe Illustrator 18.0.0, SVG Export Plug-In . SVG Version: 6.00 Build 0)  -->
<!DOCTYPE svg PUBLIC "-//W3C//DTD SVG 1.1//EN" "http://www.w3.org/Graphics/SVG/1.1/DTD/svg11.dtd">
<svg version="1.1" id="Layer_1" xmlns="http://www.w3.org/2000/svg" xmlns:xlink="http://www.w3.org/1999/xlink" x="0px" y="0px"
	 viewBox="0 0 36 36" enable-background="new 0 0 36 36" xml:space="preserve">
<g>
	<g>
		<g>
			<g>
				<g>
					<g>
						<g>
							<path fill="#E9EFF4" d="M15,17.3c-0.1-1.1-0.1-2.1-0.1-3.2c-0.1-4-1.4-7.1-3.5-9.6C10.7,3.6,10,2.6,8.9,2.1
								C8.2,1.7,8.2,2.4,8.2,3c0,0.9-0.5,2.1-0.9,3.5C6.4,11.5,11.2,16.8,15,17.3z"/>
						</g>
					</g>
				</g>
				<g>
					<g>
						<g>
							<path fill="#FC97B2" d="M8.6,10.6c0.8,2.1,2.5,4.4,5.3,4.7c-0.3-0.4,0.3-5.9-5-12.1c0,0-0.1,1.4-0.5,3
								C8,7.5,8.1,9.1,8.6,10.6z"/>
						</g>
					</g>
				</g>
				<g>
					<g>
						<path fill="#F784A8" d="M13.9,15.3c-0.3,0-0.6-0.1-0.9-0.2c-0.4-1.5-0.6-6.3-4.1-11.9C14.2,9.4,13.6,14.9,13.9,15.3z"/>
					</g>
				</g>
			</g>
		</g>
		<g>
			<g>
				<g>
					<g>
						<g>
							<path fill="#E9EFF4" d="M21,17.3c0.1-1.1,0.1-2.1,0.1-3.2c0.1-4,1.4-7.1,3.5-9.6c0.8-0.9,1.5-1.9,2.5-2.4
								c0.7-0.4,0.8,0.2,0.8,0.9c0,0.9,0.5,2.1,0.9,3.5C29.6,11.5,24.8,16.8,21,17.3z"/>
						</g>
					</g>
				</g>
				<g>
					<g>
						<g>
							<path fill="#FC97B2" d="M27.4,10.6c-0.8,2.1-2.5,4.4-5.3,4.7c0.3-0.4-0.3-5.9,5-12.1c0,0,0.1,1.4,0.5,3
								C28,7.5,27.9,9.1,27.4,10.6z"/>
						</g>
					</g>
				</g>
				<g>
					<g>
						<path fill="#F784A8" d="M22.1,15.3c0.3,0,0.6-0.1,0.9-0.2c0.4-1.5,0.6-6.3,4.1-11.9C21.8,9.4,22.4,14.9,22.1,15.3z"/>
					</g>
				</g>
			</g>
		</g>
	</g>
	<g>
		<g>
			<g>
				<g>
					<g>
						<path fill="#E9EFF4" d="M24.4,27c-0.7,0.8-1.4,1.8-1.9,2.9c-1.2,2.8-2.9,3.6-4.5,3.6c-1.6,0-3.3-0.7-4.5-3.6
							c-0.4-1-0.9-1.8-1.5-2.5c-2.4-2.4-2.8-5.2-2.1-8.6c0.1-0.5,0.2-1,0.3-1.5c0.5-3.1,3.1-5.5,6.3-5.7c1,0,1.9-0.1,2.9,0
							c3.3,0.1,6.1,2.5,6.6,5.8c0.1,0.6,0.2,1.2,0.4,1.8C26.8,22.2,26.5,24.7,24.4,27z"/>
					</g>
				</g>
			</g>
			<g>
				<g>
					<g>
						<g>
							<g>
								<g>
									<path fill="#FFFFFF" d="M24.7,20.9c-0.3,0.8-1,1.5-1.6,1.9c-0.9,0.6-2.2,0.2-2.5-0.9c-0.2-0.8-0.3-1.6,0-2.5
										c0.3-0.8,1-1.5,1.6-1.9c0.9-0.6,2.2-0.2,2.5,0.9C24.9,19.2,25,20.1,24.7,20.9z"/>
								</g>
							</g>
						</g>
						<g>
							<g>
								<g>
									<path fill="#65B1EF" d="M21.1,20.5c-0.1,0.9,0.3,1.7,1.1,1.8c0.7,0.1,1.5-0.5,1.6-1.4c0.1-0.9-0.3-1.7-1.1-1.8
										C22,18.9,21.3,19.6,21.1,20.5z"/>
								</g>
							</g>
						</g>
						<g>
							<g>
								<g>
									<path fill="#3E4347" d="M21.6,20.8c-0.1,0.6,0.2,1.1,0.7,1.2c0.5,0.1,0.9-0.3,1-0.9c0.1-0.6-0.2-1.1-0.7-1.2
										C22.1,19.8,21.7,20.2,21.6,20.8z"/>
								</g>
							</g>
						</g>
						<g>
							<g>
								<path fill="#FFFFFF" d="M21.6,20.2c0,0.2,0.1,0.4,0.3,0.4c0.2,0,0.4-0.1,0.4-0.3c0-0.2-0.1-0.4-0.3-0.4
									C21.8,19.9,21.6,20,21.6,20.2z"/>
							</g>
						</g>
						<g>
							<g>
								<circle fill="#FFFFFF" cx="22.6" cy="21.2" r="0.2"/>
							</g>
						</g>
					</g>
				</g>
				<g>
					<g>
						<g>
							<g>
								<g>
									<path fill="#FFFFFF" d="M11.3,20.9c0.3,0.8,1,1.5,1.6,1.9c0.9,0.6,2.2,0.2,2.5-0.9c0.2-0.8,0.3-1.6,0-2.5
										c-0.3-0.8-1-1.5-1.6-1.9c-0.9-0.6-2.2-0.2-2.5,0.9C11.1,19.2,11,20.1,11.3,20.9z"/>
								</g>
							</g>
						</g>
						<g>
							<g>
								<g>
									<path fill="#65B1EF" d="M14.9,20.5c0.1,0.9-0.3,1.7-1.1,1.8c-0.7,0.1-1.5-0.5-1.6-1.4c-0.1-0.9,0.3-1.7,1.1-1.8
										C14,18.9,14.7,19.6,14.9,20.5z"/>
								</g>
							</g>
						</g>
						<g>
							<g>
								<g>
									<path fill="#3E4347" d="M14.4,20.8c0.1,0.6-0.2,1.1-0.7,1.2c-0.5,0.1-0.9-0.3-1-0.9c-0.1-0.6,0.2-1.1,0.7-1.2
										C13.9,19.8,14.3,20.2,14.4,20.8z"/>
								</g>
							</g>
						</g>
						<g>
							<g>
								<path fill="#FFFFFF" d="M14.4,20.2c0,0.2-0.1,0.4-0.3,0.4c-0.2,0-0.4-0.1-0.4-0.3c0-0.2,0.1-0.4,0.3-0.4
									C14.2,19.9,14.4,20,14.4,20.2z"/>
							</g>
						</g>
						<g>
							<g>
								<circle fill="#FFFFFF" cx="13.4" cy="21.2" r="0.2"/>
							</g>
						</g>
					</g>
				</g>
			</g>
			<g>
				<g>
					<g>
						<g>
							<g>
								<path fill="#5A5F63" d="M26.4,22.4c-1.1,0.4-4,1.6-5.8,4.2c0,0,2.2-1.7,5.4-2.4C26.3,23.7,26.4,23.1,26.4,22.4z"/>
							</g>
						</g>
						<g>
							<g>
								<path fill="#5A5F63" d="M24.5,26.9c0.2-0.3,0.4-0.5,0.6-0.8c-2,0-3.3,0.6-3.3,0.6C22.8,26.6,23.7,26.7,24.5,26.9z"/>
							</g>
						</g>
						<g>
							<g>
								<path fill="#5A5F63" d="M21.6,27.5c0.6,0.3,1.1,0.7,1.5,1.2c0.2-0.4,0.5-0.7,0.7-1C22.5,27.4,21.6,27.5,21.6,27.5z"/>
							</g>
						</g>
						<g>
							<g>
								<path fill="#5A5F63" d="M21.5,31.6c-1.2-1.5-1.7-3.5-1.7-3.5s-0.3,2.3,0.4,4.7C20.7,32.6,21.1,32.2,21.5,31.6z"/>
							</g>
						</g>
						<g>
							<g>
								<g>
									<path fill="#5A5F63" d="M21.6,29.9c-0.9-1.5-0.3-3.2-0.3-3.2C20.3,28,20.5,29.1,21.6,29.9z"/>
								</g>
							</g>
						</g>
					</g>
					<g>
						<g>
							<g>
								<path fill="#5A5F63" d="M10,24.3c3.2,0.7,5.4,2.4,5.4,2.4c-1.9-2.6-4.7-3.8-5.8-4.2C9.6,23.1,9.8,23.7,10,24.3z"/>
							</g>
						</g>
						<g>
							<g>
								<path fill="#5A5F63" d="M10.9,26.1c0.2,0.3,0.4,0.5,0.6,0.8c0.8-0.2,1.7-0.3,2.6-0.2C14.2,26.7,12.9,26.1,10.9,26.1z"/>
							</g>
						</g>
						<g>
							<g>
								<path fill="#5A5F63" d="M12.2,27.7c0.3,0.3,0.5,0.6,0.7,1c0.3-0.5,0.8-0.9,1.4-1.2C14.4,27.5,13.5,27.4,12.2,27.7z"/>
							</g>
						</g>
						<g>
							<g>
								<path fill="#5A5F63" d="M16.2,28.2c0,0-0.5,1.9-1.7,3.5c0.4,0.5,0.8,0.9,1.3,1.2C16.4,30.5,16.2,28.2,16.2,28.2z"/>
							</g>
						</g>
						<g>
							<g>
								<g>
									<path fill="#5A5F63" d="M14.4,29.9c0.9-1.5,0.3-3.2,0.3-3.2C15.7,28,15.5,29.1,14.4,29.9z"/>
								</g>
							</g>
						</g>
					</g>
				</g>
				<g>
					<g>
						<g>
							<path fill="#5A5F63" d="M23.7,13.3c-1.6,0.6-2.8,1.7-3.4,2.7c0.9-1.1,2.3-1.9,3.9-2.1C24,13.7,23.9,13.5,23.7,13.3z"/>
						</g>
					</g>
					<g>
						<g>
							<path fill="#5A5F63" d="M15.7,16c-0.4-0.8-1.8-2-3.1-2.6c-0.1-0.1-0.3-0.1-0.4-0.1c-0.2,0.2-0.4,0.4-0.5,0.6
								c0.2,0,0.5,0.1,0.7,0.1C13.6,14.3,15.1,15.2,15.7,16z"/>
						</g>
					</g>
					<g>
						<g>
							<path fill="#5A5F63" d="M16.8,20.3c0,0.8-0.3,2-0.8,2.8c-0.7,0.9-1.1,0.9-1.8,1c-0.6-0.1-0.9-0.3-0.9-0.3
								c1,0.1,1.8,0,2.4-0.9C16.1,22.2,16.5,21.1,16.8,20.3z"/>
						</g>
					</g>
					<g>
						<g>
							<path fill="#5A5F63" d="M16.2,18.3c-0.5-1.1-1.2-1.7-1.9-2.2c-1-0.7-2.1-1.1-3.3-1.2c-0.2,0.4-0.4,0.8-0.5,1.2
								c1.2-0.3,2.4-0.1,3.6,0.5C15.3,17.2,15.2,17.3,16.2,18.3z"/>
						</g>
					</g>
					<g>
						<g>
							<path fill="#5A5F63" d="M17,19c0.3-3.1-0.5-5.6-1.7-7.3c-0.4,0.1-0.7,0.2-1.1,0.4c1.3,1.3,2.5,3.4,2.7,5.6
								C17,18.5,16.9,18.4,17,19z"/>
						</g>
					</g>
					<g>
						<g>
							<path fill="#5A5F63" d="M16.2,11.5c0.2,0.3,0.4,0.7,0.7,1c0.5,0.9,0.8,1.8,0.9,2.3c0-0.4,0-1.4-0.3-2.5
								c-0.1-0.3-0.2-0.6-0.3-0.9c-0.3,0-0.5,0-0.8,0C16.3,11.5,16.3,11.5,16.2,11.5z"/>
						</g>
					</g>
					<g>
						<g>
							<path fill="#5A5F63" d="M19.2,11.5c-0.1,0-0.3,0-0.4,0c-0.1,0.3-0.2,0.6-0.3,0.9c-0.3,1.2-0.4,2.1-0.3,2.5
								c0.1-0.4,0.4-1.3,0.9-2.3c0.2-0.4,0.4-0.7,0.7-1C19.6,11.5,19.4,11.5,19.2,11.5z"/>
						</g>
					</g>
					<g>
						<g>
							<path fill="#5A5F63" d="M22.4,23.9c0.1,0,0.2,0,0.2,0c-1.1,0.5-2,0.3-2.7-0.7c-0.6-0.8-0.8-2-0.8-2.8
								c0.3,0.8,0.7,1.9,1.2,2.6C20.8,23.8,21.7,24.1,22.4,23.9z"/>
						</g>
					</g>
					<g>
						<g>
							<path fill="#5A5F63" d="M23.4,15.5c-1.7,0.6-3,1.7-3.5,2.9c1.1-1.1,1.9-1.8,3.7-2.1c0.8-0.1,1.5,0,2.1,0.1
								c-0.1-0.4-0.3-0.8-0.5-1.2C24.6,15.2,24,15.3,23.4,15.5z"/>
						</g>
					</g>
					<g>
						<g>
							<path fill="#5A5F63" d="M21.8,12.1c-0.3-0.1-0.7-0.3-1.1-0.4c-1.2,1.8-2,4.3-1.7,7.3c0.1-0.6,0-0.5,0.1-1.4
								C19.3,15.5,20.5,13.4,21.8,12.1z"/>
						</g>
					</g>
				</g>
			</g>
		</g>
		<g>
			<g>
				<g>
					<g>
						<path fill="#3E4347" d="M12.9,30c-0.4-1.3,0.3-2.4,1.5-3.2c1.9-1.4,5.4-1.4,7.3,0c1.1,0.8,1.8,1.9,1.5,3.2
							c-0.8,3.2-2.8,4-5.1,4C15.7,34,13.7,33.2,12.9,30z"/>
					</g>
				</g>
			</g>
			<g>
				<g>
					<g>
						<path fill="#363C3F" d="M21.4,31.8c-1.7,1.8-5.2,1.7-6.8,0c-0.7-0.8,0.3-1.4,0.7-0.2c0.7,1.7,4.6,1.8,5.4,0
							C21.2,30.4,22,31,21.4,31.8z"/>
					</g>
				</g>
			</g>
			<g>
				<g>
					<g>
						<g>
							<g>
								<path fill="#363C3F" d="M20.5,28.5c0.3-0.7,1.2-0.4,1.2,0.5c-0.1,0.7-1.6,1.4-1.7,1.4C20,30.4,20.2,29.1,20.5,28.5z"/>
							</g>
						</g>
					</g>
					<g>
						<g>
							<path fill="#2D3335" d="M21.4,29.4c0.1-0.1,0.2-0.3,0.2-0.5c0-0.9-0.8-1.2-1.2-0.5c-0.3,0.6-0.4,1.9-0.5,1.9
								c0.1,0,0.3-0.9,0.8-1.3C21.2,28.6,21.6,28.8,21.4,29.4z"/>
						</g>
					</g>
				</g>
				<g>
					<g>
						<g>
							<g>
								<path fill="#363C3F" d="M16,30.4c-0.1,0-1.6-0.7-1.7-1.4c0-0.9,0.8-1.2,1.2-0.5C15.8,29.1,16,30.4,16,30.4z"/>
							</g>
						</g>
					</g>
					<g>
						<g>
							<path fill="#2D3335" d="M14.6,29.4c-0.1-0.1-0.2-0.3-0.2-0.5c0-0.9,0.8-1.2,1.2-0.5c0.3,0.6,0.4,1.9,0.5,1.9
								c-0.1,0-0.3-0.9-0.8-1.3C14.8,28.6,14.4,28.8,14.6,29.4z"/>
						</g>
					</g>
				</g>
			</g>
		</g>
	</g>
</g>
</svg>
