<?xml version="1.0" encoding="utf-8"?>
<!-- Generator: Adobe Illustrator 18.0.0, SVG Export Plug-In . SVG Version: 6.00 Build 0)  -->
<!DOCTYPE svg PUBLIC "-//W3C//DTD SVG 1.1//EN" "http://www.w3.org/Graphics/SVG/1.1/DTD/svg11.dtd">
<svg version="1.1" id="Layer_1" xmlns="http://www.w3.org/2000/svg" xmlns:xlink="http://www.w3.org/1999/xlink" x="0px" y="0px"
	 viewBox="0 0 36 36" enable-background="new 0 0 36 36" xml:space="preserve">
<g>
	<g>
		<g>
			<path fill="#FC97B2" d="M33.5,11.2c-1-1-2.2-1.8-3.6-2c-0.2,0-0.5-0.1-0.7-0.1C29,9,29,9,29,9c-0.9,0.2-1.7,0.6-2.5,1.3
				c0,0,0,0,0,0.1c-0.1,0.2-0.3,0.4-0.4,0.7c-0.3,0.5-0.6,1-0.8,1.6c-0.2,0.4-0.4,0.7-0.7,0.9c0,0.3,0,0.7,0.1,1
				c0.5,3.7,2,4.8,4.4,4c0.6-0.2,1.4-1,1.9-1.7c1.1-1.3,0.5-0.7,1.1-2.4c0.6-1.4,1.2-0.5,1.2-2.2c0-0.2,0-0.4,0.2-0.5
				c0.3-0.2,0.6-0.2,0.7-0.2C33.8,11.4,33.6,11.3,33.5,11.2z"/>
		</g>
	</g>
	<g>
		<g>
			<path fill="#F48CAC" d="M25.7,17.7c0.3,0.5,0.7,0.9,1.1,1.1c0.4-0.2,0.8-0.3,1-0.4c1.1-0.4,1.9-1.3,2.2-2.4c0,0,0,0,0,0
				c-0.8,0.7-1.7,1.2-2.7,1.4c0.4-1,1.1-1.5,2-1.6c-0.8-0.7-1.7-1-2.5-0.8c0.8-0.7,1.9-1,2.9-0.8c-0.7-0.8-1.7-1.3-2.6-1.2
				c3.1-3.4,3.9-1.9,5.5-1.6c0.3,0.1,0.6,0.1,0.9,0.1c0.2-0.1,0.4-0.1,0.5-0.1c-0.2-0.1-0.4-0.1-0.6-0.2c-0.7-0.8-1.6-1.5-2.6-1.9
				c-0.3-0.1-0.7-0.2-1-0.3c-0.1,0-0.2,0-0.3,0c-0.4,0.3-0.9,0.5-1.5,0.6c-0.7,0.1-1.8,0.4-2.5,1.3c-0.5,0.6-0.7,1.8-0.9,2.6
				c0,0.1-0.1,0.3-0.1,0.4c0,0.2,0,0.4,0,0.6c0,0,0,0,0,0C24.7,15.6,25.1,16.8,25.7,17.7z"/>
		</g>
	</g>
	<g>
		<g>
			<path fill="#DAE5EF" d="M34,11.4c-0.7-0.1-1.1-0.5-1.4-0.9c-0.5-0.6-1.3-1-2.1-0.7c-1,0.3-2,0.5-3.2,0.6c-0.5,0-1.1,0.3-1.4,0.9
				c-0.3,0.4-0.5,0.8-0.7,1.3c-0.2,0.8-0.4,1.5-0.6,2.3c-0.2-1-0.7-2.3,0-3.1C29.6,5.9,32.9,9.4,34,11.4z"/>
		</g>
	</g>
	<g>
		<g>
			<path fill="#EF7BA5" d="M26.9,12.5c0.7-1.1,1.7-1.6,2.4-1.8c0.5-0.1,0.8-0.2,1-0.2c-0.2,0-0.6,0.1-1.1,0.2
				c-0.7,0.2-1.8,0.6-2.5,1.7c-0.4,0.5-0.6,1.2-0.9,1.7c-0.3,0.6-0.5,1-0.8,1.4c-0.1,0.1-0.2,0.2-0.3,0.3c0.1,0.2,0.1,0.4,0.2,0.6
				c0.3-0.2,0.7-0.4,1.2-0.6c1-0.3,2-0.2,2.3-0.2c-0.3-0.1-1.4-0.2-2.4,0c-0.3,0.1-0.7,0.2-1,0.3c0.2-0.2,0.4-0.5,0.6-0.8
				c0.2-0.3,0.5-0.6,0.7-0.9c0.5-0.5,1.2-0.6,1.7-0.6c0.3,0,0.6,0.1,0.7,0.1c-0.1-0.1-0.4-0.1-0.7-0.2c-0.5-0.1-1.2,0-1.8,0.5
				c-0.3,0.2-0.5,0.4-0.7,0.7c0.1-0.2,0.2-0.4,0.3-0.6C26.3,13.7,26.5,13,26.9,12.5z"/>
		</g>
	</g>
	<g>
		<g>
			<path fill="#FC97B2" d="M2.6,11.2c1-1,2.2-1.8,3.6-2C6.4,9.1,6.7,9,6.9,9C7,9,7,9,7.1,9C8,9.3,8.8,9.6,9.6,10.3c0,0,0,0,0,0.1
				c0.1,0.2,0.3,0.4,0.4,0.7c0.3,0.5,0.6,1,0.8,1.6c0.2,0.4,0.4,0.7,0.7,0.9c0,0.3,0,0.7-0.1,1c-0.5,3.7-2,4.8-4.4,4
				c-0.6-0.2-1.4-1-1.9-1.7c-1.1-1.3-0.5-0.7-1.1-2.4c-0.6-1.4-1.2-0.5-1.2-2.2c0-0.2,0-0.4-0.2-0.5c-0.3-0.2-0.6-0.2-0.7-0.2
				C2.2,11.4,2.4,11.3,2.6,11.2z"/>
		</g>
	</g>
	<g>
		<g>
			<path fill="#F48CAC" d="M10.3,17.7c-0.3,0.5-0.7,0.9-1.1,1.1c-0.4-0.2-0.8-0.3-1-0.4C7.1,18,6.2,17.1,5.9,16c0,0,0,0,0,0
				c0.8,0.7,1.7,1.2,2.7,1.4c-0.4-1-1.1-1.5-2-1.6c0.8-0.7,1.7-1,2.5-0.8c-0.8-0.7-1.9-1-2.9-0.8c0.7-0.8,1.7-1.3,2.6-1.2
				c-3.1-3.4-3.9-1.9-5.5-1.6c-0.3,0.1-0.6,0.1-0.9,0.1c-0.2-0.1-0.4-0.1-0.5-0.1c0.2-0.1,0.4-0.1,0.6-0.2c0.7-0.8,1.6-1.5,2.6-1.9
				c0.3-0.1,0.7-0.2,1-0.3c0.1,0,0.2,0,0.3,0C6.9,9.4,7.4,9.6,8,9.7c0.7,0.1,1.8,0.4,2.5,1.3c0.5,0.6,0.7,1.8,0.9,2.6
				c0,0.1,0.1,0.3,0.1,0.4c0,0.2,0,0.4,0,0.6c0,0,0,0,0,0C11.3,15.6,10.9,16.8,10.3,17.7z"/>
		</g>
	</g>
	<g>
		<g>
			<path fill="#DAE5EF" d="M2,11.4c0.7-0.1,1.1-0.5,1.4-0.9c0.5-0.6,1.3-1,2.1-0.7c1,0.3,2,0.5,3.2,0.6c0.5,0,1.1,0.3,1.4,0.9
				c0.3,0.4,0.5,0.8,0.7,1.3c0.2,0.8,0.4,1.5,0.6,2.3c0.2-1,0.7-2.3,0-3.1C6.4,5.9,3.1,9.4,2,11.4z"/>
		</g>
	</g>
	<g>
		<g>
			<path fill="#EF7BA5" d="M9.1,12.5c-0.7-1.1-1.7-1.6-2.4-1.8c-0.5-0.1-0.8-0.2-1-0.2c0.2,0,0.6,0.1,1.1,0.2
				c0.7,0.2,1.8,0.6,2.5,1.7c0.4,0.5,0.6,1.2,0.9,1.7c0.3,0.6,0.5,1,0.8,1.4c0.1,0.1,0.2,0.2,0.3,0.3c-0.1,0.2-0.1,0.4-0.2,0.6
				c-0.3-0.2-0.7-0.4-1.2-0.6c-1-0.3-2-0.2-2.3-0.2c0.3-0.1,1.4-0.2,2.4,0c0.3,0.1,0.7,0.2,1,0.3c-0.2-0.2-0.4-0.5-0.6-0.8
				c-0.2-0.3-0.5-0.6-0.7-0.9c-0.5-0.5-1.2-0.6-1.7-0.6c-0.3,0-0.6,0.1-0.7,0.1c0.1-0.1,0.4-0.1,0.7-0.2c0.5-0.1,1.2,0,1.8,0.5
				c0.3,0.2,0.5,0.4,0.7,0.7c-0.1-0.2-0.2-0.4-0.3-0.6C9.7,13.7,9.5,13,9.1,12.5z"/>
		</g>
	</g>
	<g>
		<g>
			<path fill="#DAE5EF" d="M26.9,18.7c0.1,4.2-3.5,6.6-8.9,6.6c-5.4,0.1-9-2.3-8.9-6.6c0-1.1,0.2-2.1,0.7-3c0.6-1.1,0.7-2.3,0.6-3.5
				c-0.2-2.7,3-4.5,7.6-4.5c4.6,0,7.7,1.8,7.6,4.4c0,1.3,0,2.5,0.6,3.6C26.7,16.6,26.9,17.6,26.9,18.7z"/>
		</g>
	</g>
	<g>
		<g>
			<path fill="#CBD6E0" d="M22.8,24.8c-1.5,0.6-3.2,0.8-4.8,0.8c-1.6,0-3.3-0.2-4.8-0.8c-3.3-1.3-4.7-4-4.2-7.3
				c0.3-1.9,1.6-2.6,1.5-5.5c0-0.6,0.2-1.1,0.4-1.5c0.8-1.3,2.6-2.2,4-2.5c-1.4,0.5-2.9,1.1-3.7,2.6c-0.2,0.4-0.3,0.9-0.3,1.4
				c0.1,1.4-0.1,2.6-0.7,3.8c-0.3,0.6-0.5,1.1-0.5,1.8c-0.3,3,1,5.3,3.9,6.4c1.6,0.6,2.9,0.7,4.5,0.7c1.6,0,3.1-0.2,4.5-0.7
				c3-1.2,4.3-3.6,3.9-6.4C26.2,15.7,25,15,25.2,12c0-0.5-0.1-1-0.3-1.3c-0.7-1.5-2.4-2.1-3.7-2.6c1.5,0.3,3.2,1.1,4,2.4
				c0.6,0.9,0.3,2.1,0.6,3.3c0.1,1.3,1.1,2.3,1.3,3.7C27.6,21,26,23.6,22.8,24.8z"/>
		</g>
	</g>
	<g>
		<g>
			<path fill="#FFFFFF" d="M23.6,14.7c0.1,1.5-0.5,2.8-1.5,2.8c-1,0.1-1.9-1-2.1-2.5s0.5-2.8,1.5-2.8C22.6,12.1,23.5,13.2,23.6,14.7
				z"/>
		</g>
	</g>
	<g>
		<g>
			<path fill="#65B1EF" d="M23.2,15.2c0,0.8-0.5,1.5-1.2,1.5s-1.2-0.7-1.2-1.5c0-0.8,0.5-1.5,1.2-1.5S23.2,14.3,23.2,15.2z"/>
		</g>
	</g>
	<g>
		<g>
			<path fill="#3E4347" d="M22.8,15.4c0,0.6-0.3,1-0.8,1c-0.4,0-0.8-0.4-0.8-1s0.3-1,0.8-1C22.4,14.4,22.8,14.9,22.8,15.4z"/>
		</g>
	</g>
	<g>
		<g>
			<path fill="#FFFFFF" d="M22.7,14.7c0,0.2-0.2,0.4-0.4,0.4c-0.2,0-0.4-0.2-0.4-0.4c0-0.2,0.2-0.4,0.4-0.4
				C22.5,14.3,22.7,14.5,22.7,14.7z"/>
		</g>
	</g>
	<g>
		<g>
			<path fill="#FFFFFF" d="M22,15.6c0,0.1-0.1,0.2-0.2,0.2c-0.1,0-0.2-0.1-0.2-0.2c0-0.1,0.1-0.2,0.2-0.2C21.9,15.4,22,15.5,22,15.6
				z"/>
		</g>
	</g>
	<g>
		<g>
			<path fill="#DAE5EF" d="M20,17c0,0,2.2-0.6,4.5,1.4C21.8,20.5,20.2,20.2,20,17z"/>
		</g>
	</g>
	<g>
		<g>
			<path fill="#CBD6E0" d="M20,17c1.1-0.6,3.1-0.3,4.5,1.4C22.6,17.2,21.1,16.9,20,17z"/>
		</g>
	</g>
	<g>
		<g>
			<path fill="#FFFFFF" d="M12.4,14.7c-0.1,1.5,0.5,2.8,1.5,2.8c1,0.1,1.9-1,2.1-2.5c0.1-1.5-0.5-2.8-1.5-2.8
				C13.5,12.1,12.5,13.2,12.4,14.7z"/>
		</g>
	</g>
	<g>
		<g>
			<path fill="#65B1EF" d="M12.9,15.2c0,0.8,0.5,1.5,1.2,1.5s1.2-0.7,1.2-1.5c0-0.8-0.5-1.5-1.2-1.5S12.9,14.3,12.9,15.2z"/>
		</g>
	</g>
	<g>
		<g>
			<path fill="#3E4347" d="M13.3,15.4c0,0.6,0.3,1,0.8,1s0.8-0.4,0.8-1s-0.3-1-0.8-1S13.3,14.9,13.3,15.4z"/>
		</g>
	</g>
	<g>
		<g>
			<path fill="#FFFFFF" d="M13.3,14.7c0,0.2,0.2,0.4,0.4,0.4c0.2,0,0.4-0.2,0.4-0.4c0-0.2-0.2-0.4-0.4-0.4
				C13.5,14.3,13.3,14.5,13.3,14.7z"/>
		</g>
	</g>
	<g>
		<g>
			<path fill="#FFFFFF" d="M14,15.6c0,0.1,0.1,0.2,0.2,0.2c0.1,0,0.2-0.1,0.2-0.2c0-0.1-0.1-0.2-0.2-0.2C14.2,15.4,14,15.5,14,15.6z
				"/>
		</g>
	</g>
	<g>
		<g>
			<path fill="#DAE5EF" d="M16,17c0,0-2.2-0.6-4.5,1.4C14.2,20.5,15.8,20.2,16,17z"/>
		</g>
	</g>
	<g>
		<g>
			<path fill="#CBD6E0" d="M16,17c-1.1-0.6-3.1-0.3-4.5,1.4C13.4,17.2,14.9,16.9,16,17z"/>
		</g>
	</g>
	<g>
		<g>
			<path fill="#3E4347" d="M23.6,12.4c-0.2-0.1-1.3-1.2-2.7-1.5c-0.3-0.1-0.6-0.8,0.2-0.7C22.7,10.3,23.6,12.2,23.6,12.4z"/>
		</g>
	</g>
	<g>
		<g>
			<path fill="#3E4347" d="M12.4,12.4c0.2-0.1,1.3-1.2,2.7-1.5c0.3-0.1,0.6-0.8-0.2-0.7C13.3,10.3,12.4,12.2,12.4,12.4z"/>
		</g>
	</g>
	<g>
		<g>
			<path fill="#DAE5EF" d="M28.5,22.6c0,0.3-0.2,0.6-0.6,0.7c-0.5,4-5.8,6.5-9.8,4c-2.2-1.4-3.5-4-3.3-6.5l5.4-0.1
				c0,1.5,0.6,3.3,1.9,4.3c1.7,1.4,3.8,0,4.7-1.9c-0.1-0.1-0.2-0.3-0.2-0.5c0,0,0-0.1,0-0.2c0.1-0.2,0.3-0.3,0.5-0.2
				c0.3,0.1,0.5,0.1,0.8,0c0.2-0.1,0.5,0,0.5,0.2C28.5,22.5,28.5,22.6,28.5,22.6z"/>
		</g>
	</g>
	<g>
		<g>
			<path fill="#CBD6E0" d="M26.8,23.1c-0.5,1.4-1.6,2.5-3,2.7c-1.2,0.1-2.1-0.7-2.7-1.7c-0.3-0.5-0.5-1.3-0.5-1.4
				c0,0.1,0.3,0.6,0.7,1.3c0.6,0.9,1.5,1.6,2.5,1.5C24.9,25.3,26.1,24.1,26.8,23.1C26.7,23,26.7,23,26.8,23.1z"/>
		</g>
	</g>
	<g>
		<g>
			<path fill="#CBD6E0" d="M20.3,23c-0.5-0.1-0.9-0.2-1.4,0c-0.5,0.2-0.8,0.5-1.1,0.9c0.1-0.4,0.4-0.9,1-1.1
				C19.5,22.7,20,22.8,20.3,23z"/>
		</g>
	</g>
	<g>
		<g>
			<path fill="#CBD6E0" d="M20.9,24.2c-0.5,0.2-1,0.5-1.3,1c-0.3,0.5-0.4,1-0.4,1.6c-0.2-0.4-0.2-1.1,0.2-1.7
				C19.8,24.5,20.4,24.2,20.9,24.2z"/>
		</g>
	</g>
	<g>
		<g>
			<path fill="#CBD6E0" d="M21.4,25.3C21.2,25.6,21,26,21,26.5c0,0.4,0.1,0.8,0.3,1.2c-0.3-0.2-0.5-0.7-0.5-1.2
				C20.9,25.9,21.1,25.5,21.4,25.3z"/>
		</g>
	</g>
	<g>
		<g>
			<path fill="#CBD6E0" d="M23.2,27.5c0,0-0.1,0-0.3-0.1c-0.2-0.2-0.3-0.3-0.4-0.5c-0.1-0.3,0-0.6,0.1-0.9c0,0.3,0,0.5,0.1,0.8
				C22.9,27,23,27.2,23.2,27.5z"/>
		</g>
	</g>
	<g>
		<g>
			<path fill="#CBD6E0" d="M28.5,22.6c0,0.3-0.2,0.6-0.6,0.7c-0.1,0.4-0.1,0.7-0.2,1c-0.3,0.9-0.9,1.8-1.7,2.4
				c-1.1,0.9-2.3,1.4-3.3,1.5c-1.1,0.2-2,0-2.9-0.2c-1.9-0.7-3.5-1.8-4.5-4.1c-0.5-1.2-0.6-2.5-0.6-3.2c0,1.1,0.3,2.1,0.8,3.1
				c0.6,1.3,1.6,2.4,2.9,3.1c0.9,0.5,2,0.8,3.1,0.9c0.4,0,0.8,0,1.2-0.1c1.1-0.1,2.3-0.7,3.2-1.3c0.8-0.7,1.5-1.5,1.7-2.2
				c0.2-0.3,0.3-1,0.3-1C28.2,23.1,28.4,22.9,28.5,22.6C28.5,22.6,28.5,22.6,28.5,22.6z"/>
		</g>
	</g>
	<g>
		<g>
			<path fill="#CBD6E0" d="M24.1,25.9c0,0.2,0,0.5,0,0.6c0,0.3,0.1,0.4,0.2,0.6c-0.2-0.1-0.3-0.3-0.3-0.6C23.9,26.3,24,26,24.1,25.9
				z"/>
		</g>
	</g>
	<g>
		<g>
			<path fill="#CBD6E0" d="M25.6,26.3c-0.1,0-0.3-0.1-0.5-0.2C25,26,24.9,25.8,25,25.6c0.1,0.1,0.1,0.2,0.3,0.4
				C25.3,26,25.6,26.3,25.6,26.3z"/>
		</g>
	</g>
	<g>
		<g>
			<path fill="#CBD6E0" d="M26.8,25.3c-0.1,0.1-0.3,0.1-0.5,0.1c-0.2,0-0.4-0.2-0.5-0.3c0.2,0.1,0.3,0.1,0.5,0.1
				C26.4,25.3,26.6,25.3,26.8,25.3z"/>
		</g>
	</g>
	<g>
		<g>
			<path fill="#CBD6E0" d="M27.4,24.3c0,0,0,0-0.1,0.1c-0.1,0-0.2,0.1-0.3,0.1c-0.2,0-0.3,0-0.4-0.1c0.1,0,0.3,0,0.4,0
				C27,24.4,27.4,24.4,27.4,24.3z"/>
		</g>
	</g>
	<g>
		<g>
			<path fill="#FC97B2" d="M33.4,11.2c-1-1-2.2-1.8-3.6-2c-0.2,0-0.5-0.1-0.7-0.1C29,9,29,9,28.9,9c-0.9,0.2-1.7,0.6-2.5,1.3
				c0,0,0,0,0,0.1c-0.1,0.2-0.3,0.4-0.4,0.7c-0.3,0.5-0.6,1-0.8,1.6c-0.2,0.4-0.4,0.7-0.7,0.9c0,0.3,0,0.7,0.1,1
				c0.5,3.7,2,4.8,4.4,4c0.6-0.2,1.4-1,1.9-1.7c1.1-1.3,0.5-0.7,1.1-2.4c0.6-1.4,1.2-0.5,1.2-2.2c0-0.2,0-0.4,0.2-0.5
				c0.3-0.2,0.6-0.2,0.7-0.2C33.8,11.4,33.6,11.3,33.4,11.2z"/>
		</g>
	</g>
	<g>
		<g>
			<path fill="#F48CAC" d="M25.7,17.7c0.3,0.5,0.7,0.9,1.1,1.1c0.4-0.2,0.8-0.3,1-0.4c1.1-0.4,1.9-1.3,2.2-2.4c0,0,0,0,0,0
				c-0.8,0.7-1.7,1.2-2.7,1.4c0.4-1,1.1-1.5,2-1.6c-0.8-0.7-1.7-1-2.5-0.8c0.8-0.7,1.9-1,2.9-0.8c-0.7-0.8-1.7-1.3-2.6-1.2
				c3.1-3.4,3.9-1.9,5.5-1.6c0.3,0.1,0.6,0.1,0.9,0.1c0.2-0.1,0.4-0.1,0.5-0.1c-0.2-0.1-0.4-0.1-0.6-0.2c-0.7-0.8-1.6-1.5-2.6-1.9
				c-0.3-0.1-0.7-0.2-1-0.3c-0.1,0-0.2,0-0.3,0c-0.4,0.3-0.9,0.5-1.5,0.6c-0.7,0.1-1.8,0.4-2.5,1.3c-0.5,0.6-0.7,1.8-0.9,2.6
				c0,0.1-0.1,0.3-0.1,0.4c0,0.2,0,0.4,0,0.6c0,0,0,0,0,0C24.7,15.6,25.1,16.8,25.7,17.7z"/>
		</g>
	</g>
	<g>
		<g>
			<path fill="#DAE5EF" d="M34,11.4c-0.7-0.1-1.1-0.5-1.4-0.9c-0.5-0.6-1.3-1-2.1-0.7c-1,0.3-2,0.5-3.2,0.6c-0.5,0-1.1,0.3-1.4,0.9
				c-0.3,0.4-0.5,0.8-0.7,1.3c-0.2,0.8-0.4,1.5-0.6,2.3c-0.2-1-0.7-2.3,0-3.1C29.6,5.9,32.9,9.4,34,11.4z"/>
		</g>
	</g>
	<g>
		<g>
			<path fill="#EF7BA5" d="M26.9,12.5c0.7-1.1,1.7-1.6,2.4-1.8c0.5-0.1,0.8-0.2,1-0.2c-0.2,0-0.6,0.1-1.1,0.2
				c-0.7,0.2-1.8,0.6-2.5,1.7c-0.4,0.5-0.6,1.2-0.9,1.7c-0.3,0.6-0.5,1-0.8,1.4c-0.1,0.1-0.2,0.2-0.3,0.3c0.1,0.2,0.1,0.4,0.2,0.6
				c0.3-0.2,0.7-0.4,1.2-0.6c1-0.3,2-0.2,2.3-0.2c-0.3-0.1-1.4-0.2-2.4,0c-0.3,0.1-0.7,0.2-1,0.3c0.2-0.2,0.4-0.5,0.6-0.8
				c0.2-0.3,0.5-0.6,0.7-0.9c0.5-0.5,1.2-0.6,1.7-0.6c0.3,0,0.6,0.1,0.7,0.1c-0.1-0.1-0.4-0.1-0.7-0.2c-0.5-0.1-1.2,0-1.8,0.5
				c-0.3,0.2-0.5,0.4-0.7,0.7c0.1-0.2,0.2-0.4,0.3-0.6C26.3,13.7,26.5,13,26.9,12.5z"/>
		</g>
	</g>
	<g>
		<g>
			<path fill="#FC97B2" d="M2.5,11.2c1-1,2.2-1.8,3.6-2C6.4,9.1,6.7,9,6.9,9C7,9,7,9,7,9c0.9,0.2,1.7,0.6,2.5,1.3c0,0,0,0,0,0.1
				c0.1,0.2,0.3,0.4,0.4,0.7c0.3,0.5,0.6,1,0.8,1.6c0.2,0.4,0.4,0.7,0.7,0.9c0,0.3,0,0.7-0.1,1c-0.5,3.7-2,4.8-4.4,4
				c-0.6-0.2-1.4-1-1.9-1.7c-1.1-1.3-0.5-0.7-1.1-2.4c-0.6-1.4-1.2-0.5-1.2-2.2c0-0.2,0-0.4-0.2-0.5c-0.3-0.2-0.6-0.2-0.7-0.2
				C2.2,11.4,2.4,11.3,2.5,11.2z"/>
		</g>
	</g>
	<g>
		<g>
			<path fill="#F48CAC" d="M10.3,17.7c-0.3,0.5-0.7,0.9-1.1,1.1c-0.4-0.2-0.8-0.3-1-0.4C7.1,18,6.2,17.1,5.9,16c0,0,0,0,0,0
				c0.8,0.7,1.7,1.2,2.7,1.4c-0.4-1-1.1-1.5-2-1.6c0.8-0.7,1.7-1,2.5-0.8c-0.8-0.7-1.9-1-2.9-0.8c0.7-0.8,1.7-1.3,2.6-1.2
				c-3.1-3.4-3.9-1.9-5.5-1.6c-0.3,0.1-0.6,0.1-0.9,0.1c-0.2-0.1-0.4-0.1-0.5-0.1c0.2-0.1,0.4-0.1,0.6-0.2c0.7-0.8,1.6-1.5,2.6-1.9
				c0.3-0.1,0.7-0.2,1-0.3c0.1,0,0.2,0,0.3,0c0.4,0.3,0.9,0.5,1.5,0.6c0.7,0.1,1.8,0.4,2.5,1.3c0.5,0.6,0.7,1.8,0.9,2.6
				c0,0.1,0.1,0.3,0.1,0.4c0,0.2,0,0.4,0,0.6c0,0,0,0,0,0C11.3,15.6,10.9,16.8,10.3,17.7z"/>
		</g>
	</g>
	<g>
		<g>
			<path fill="#DAE5EF" d="M2,11.4C2.7,11.4,3,11,3.4,10.6c0.5-0.6,1.3-1,2.1-0.7c1,0.3,2,0.5,3.2,0.6c0.5,0,1.1,0.3,1.4,0.9
				c0.3,0.4,0.5,0.8,0.7,1.3c0.2,0.8,0.4,1.5,0.6,2.3c0.2-1,0.7-2.3,0-3.1C6.4,5.9,3.1,9.4,2,11.4z"/>
		</g>
	</g>
	<g>
		<g>
			<path fill="#EF7BA5" d="M9.1,12.5c-0.7-1.1-1.7-1.6-2.4-1.8c-0.5-0.1-0.8-0.2-1-0.2c0.2,0,0.6,0.1,1.1,0.2
				c0.7,0.2,1.8,0.6,2.5,1.7c0.4,0.5,0.6,1.2,0.9,1.7c0.3,0.6,0.5,1,0.8,1.4c0.1,0.1,0.2,0.2,0.3,0.3c-0.1,0.2-0.1,0.4-0.2,0.6
				c-0.3-0.2-0.7-0.4-1.2-0.6c-1-0.3-2-0.2-2.3-0.2c0.3-0.1,1.4-0.2,2.4,0c0.3,0.1,0.7,0.2,1,0.3c-0.2-0.2-0.4-0.5-0.6-0.8
				c-0.2-0.3-0.5-0.6-0.7-0.9c-0.5-0.5-1.2-0.6-1.7-0.6c-0.3,0-0.6,0.1-0.7,0.1c0.1-0.1,0.4-0.1,0.7-0.2c0.5-0.1,1.2,0,1.8,0.5
				c0.3,0.2,0.5,0.4,0.7,0.7c-0.1-0.2-0.2-0.4-0.3-0.6C9.7,13.7,9.5,13,9.1,12.5z"/>
		</g>
	</g>
	<g>
		<g>
			<path fill="#DAE5EF" d="M26.9,18.7c0.1,4.2-3.5,6.6-8.9,6.6c-5.4,0.1-9-2.3-8.9-6.6c0-1.1,0.2-2.1,0.7-3c0.6-1.1,0.7-2.3,0.6-3.5
				c-0.2-2.7,3-4.5,7.6-4.5c4.6,0,7.7,1.8,7.6,4.4c0,1.3,0,2.5,0.6,3.6C26.7,16.6,26.9,17.6,26.9,18.7z"/>
		</g>
	</g>
	<g>
		<g>
			<path fill="#CBD6E0" d="M22.8,24.8c-1.5,0.6-3.2,0.8-4.8,0.8c-1.6,0-3.3-0.2-4.8-0.8c-3.3-1.3-4.7-4-4.2-7.3
				c0.3-1.9,1.6-2.6,1.5-5.5c0-0.6,0.2-1.1,0.4-1.5c0.8-1.3,2.6-2.2,4-2.5c-1.4,0.5-2.9,1.1-3.7,2.6c-0.2,0.4-0.3,0.9-0.3,1.4
				c0.1,1.4-0.1,2.6-0.7,3.8c-0.3,0.6-0.5,1.1-0.5,1.8c-0.3,3,1,5.3,3.9,6.4c1.6,0.6,2.9,0.7,4.5,0.7c1.6,0,3.1-0.2,4.5-0.7
				c3-1.2,4.3-3.6,3.9-6.4c-0.2-1.9-1.5-2.6-1.2-5.6c0-0.5-0.1-1-0.3-1.3c-0.7-1.5-2.4-2.1-3.7-2.6c1.5,0.3,3.2,1.1,4,2.4
				c0.6,0.9,0.3,2.1,0.6,3.3c0.1,1.3,1.1,2.3,1.3,3.7C27.6,21,26,23.6,22.8,24.8z"/>
		</g>
	</g>
	<g>
		<g>
			<path fill="#FFFFFF" d="M23.6,14.7c0.1,1.5-0.5,2.8-1.5,2.8c-1,0.1-1.9-1-2.1-2.5s0.5-2.8,1.5-2.8C22.5,12.1,23.5,13.2,23.6,14.7
				z"/>
		</g>
	</g>
	<g>
		<g>
			<path fill="#65B1EF" d="M23.1,15.2c0,0.8-0.5,1.5-1.2,1.5s-1.2-0.7-1.2-1.5c0-0.8,0.5-1.5,1.2-1.5S23.1,14.3,23.1,15.2z"/>
		</g>
	</g>
	<g>
		<g>
			<path fill="#3E4347" d="M22.7,15.4c0,0.6-0.3,1-0.8,1c-0.4,0-0.8-0.4-0.8-1s0.3-1,0.8-1C22.4,14.4,22.7,14.9,22.7,15.4z"/>
		</g>
	</g>
	<g>
		<g>
			<path fill="#FFFFFF" d="M22.7,14.7c0,0.2-0.2,0.4-0.4,0.4c-0.2,0-0.4-0.2-0.4-0.4c0-0.2,0.2-0.4,0.4-0.4
				C22.5,14.3,22.7,14.5,22.7,14.7z"/>
		</g>
	</g>
	<g>
		<g>
			<path fill="#FFFFFF" d="M22,15.6c0,0.1-0.1,0.2-0.2,0.2c-0.1,0-0.2-0.1-0.2-0.2c0-0.1,0.1-0.2,0.2-0.2C21.8,15.4,22,15.5,22,15.6
				z"/>
		</g>
	</g>
	<g>
		<g>
			<path fill="#DAE5EF" d="M20,17c0,0,2.2-0.6,4.5,1.4C21.8,20.5,20.2,20.2,20,17z"/>
		</g>
	</g>
	<g>
		<g>
			<path fill="#CBD6E0" d="M20,17c1.1-0.6,3.1-0.3,4.5,1.4C22.6,17.2,21.1,16.9,20,17z"/>
		</g>
	</g>
	<g>
		<g>
			<path fill="#FFFFFF" d="M12.4,14.7c-0.1,1.5,0.5,2.8,1.5,2.8c1,0.1,1.9-1,2.1-2.5s-0.5-2.8-1.5-2.8
				C13.4,12.1,12.5,13.2,12.4,14.7z"/>
		</g>
	</g>
	<g>
		<g>
			<path fill="#65B1EF" d="M12.8,15.2c0,0.8,0.5,1.5,1.2,1.5s1.2-0.7,1.2-1.5c0-0.8-0.5-1.5-1.2-1.5S12.8,14.3,12.8,15.2z"/>
		</g>
	</g>
	<g>
		<g>
			<path fill="#3E4347" d="M13.2,15.4c0,0.6,0.3,1,0.8,1s0.8-0.4,0.8-1s-0.3-1-0.8-1S13.2,14.9,13.2,15.4z"/>
		</g>
	</g>
	<g>
		<g>
			<path fill="#FFFFFF" d="M13.3,14.7c0,0.2,0.2,0.4,0.4,0.4c0.2,0,0.4-0.2,0.4-0.4c0-0.2-0.2-0.4-0.4-0.4
				C13.5,14.3,13.3,14.5,13.3,14.7z"/>
		</g>
	</g>
	<g>
		<g>
			<path fill="#FFFFFF" d="M14,15.6c0,0.1,0.1,0.2,0.2,0.2c0.1,0,0.2-0.1,0.2-0.2c0-0.1-0.1-0.2-0.2-0.2C14.1,15.4,14,15.5,14,15.6z
				"/>
		</g>
	</g>
	<g>
		<g>
			<path fill="#DAE5EF" d="M16,17c0,0-2.2-0.6-4.5,1.4C14.2,20.5,15.8,20.2,16,17z"/>
		</g>
	</g>
	<g>
		<g>
			<path fill="#CBD6E0" d="M16,17c-1.1-0.6-3.1-0.3-4.5,1.4C13.4,17.2,14.9,16.9,16,17z"/>
		</g>
	</g>
	<g>
		<g>
			<path fill="#3E4347" d="M23.6,12.4c-0.2-0.1-1.3-1.2-2.7-1.5c-0.3-0.1-0.6-0.8,0.2-0.7C22.7,10.3,23.6,12.2,23.6,12.4z"/>
		</g>
	</g>
	<g>
		<g>
			<path fill="#3E4347" d="M12.4,12.4c0.2-0.1,1.3-1.2,2.7-1.5c0.3-0.1,0.6-0.8-0.2-0.7C13.3,10.3,12.4,12.2,12.4,12.4z"/>
		</g>
	</g>
	<g>
		<g>
			<path fill="#DAE5EF" d="M28.4,22.6c0,0.3-0.2,0.6-0.6,0.7c-0.5,4-5.8,6.5-9.8,4c-2.2-1.4-3.5-4-3.3-6.5l5.4-0.1
				c0,1.5,0.6,3.3,1.9,4.3c1.7,1.4,3.8,0,4.7-1.9c-0.1-0.1-0.2-0.3-0.2-0.5c0,0,0-0.1,0-0.2c0.1-0.2,0.3-0.3,0.5-0.2
				c0.3,0.1,0.5,0.1,0.8,0c0.2-0.1,0.5,0,0.5,0.2C28.4,22.5,28.4,22.6,28.4,22.6z"/>
		</g>
	</g>
	<g>
		<g>
			<path fill="#CBD6E0" d="M26.7,23.1c-0.5,1.4-1.6,2.5-3,2.7C22.6,25.8,21.6,25,21,24c-0.3-0.5-0.5-1.3-0.5-1.4
				c0,0.1,0.3,0.6,0.7,1.3c0.6,0.9,1.5,1.6,2.5,1.5C24.9,25.3,26.1,24.1,26.7,23.1C26.7,23,26.7,23,26.7,23.1z"/>
		</g>
	</g>
	<g>
		<g>
			<path fill="#CBD6E0" d="M20.3,23c-0.5-0.1-0.9-0.2-1.4,0c-0.5,0.2-0.8,0.5-1.1,0.9c0.1-0.4,0.4-0.9,1-1.1
				C19.4,22.7,20,22.8,20.3,23z"/>
		</g>
	</g>
	<g>
		<g>
			<path fill="#CBD6E0" d="M20.9,24.2c-0.5,0.2-1,0.5-1.3,1c-0.3,0.5-0.4,1-0.4,1.6c-0.2-0.4-0.2-1.1,0.2-1.7
				C19.8,24.5,20.4,24.2,20.9,24.2z"/>
		</g>
	</g>
	<g>
		<g>
			<path fill="#CBD6E0" d="M21.4,25.3C21.2,25.6,21,26,21,26.5c0,0.4,0.1,0.8,0.3,1.2c-0.3-0.2-0.5-0.7-0.5-1.2
				C20.8,25.9,21.1,25.5,21.4,25.3z"/>
		</g>
	</g>
	<g>
		<g>
			<path fill="#CBD6E0" d="M23.2,27.5c0,0-0.1,0-0.3-0.1c-0.2-0.2-0.3-0.3-0.4-0.5c-0.1-0.3,0-0.6,0.1-0.9c0,0.3,0,0.5,0.1,0.8
				C22.8,27,22.9,27.2,23.2,27.5z"/>
		</g>
	</g>
	<g>
		<g>
			<path fill="#CBD6E0" d="M28.4,22.6c0,0.3-0.2,0.6-0.6,0.7c-0.1,0.4-0.1,0.7-0.2,1c-0.3,0.9-0.9,1.8-1.7,2.4
				c-1.1,0.9-2.3,1.4-3.3,1.5c-1.1,0.2-2,0-2.9-0.2c-1.9-0.7-3.5-1.8-4.5-4.1c-0.5-1.2-0.6-2.5-0.6-3.2c0,1.1,0.3,2.1,0.8,3.1
				c0.6,1.3,1.6,2.4,2.9,3.1c0.9,0.5,2,0.8,3.1,0.9c0.4,0,0.8,0,1.2-0.1c1.1-0.1,2.3-0.7,3.2-1.3c0.8-0.7,1.5-1.5,1.7-2.2
				c0.2-0.3,0.3-1,0.3-1C28.1,23.1,28.4,22.9,28.4,22.6C28.4,22.6,28.4,22.6,28.4,22.6z"/>
		</g>
	</g>
	<g>
		<g>
			<path fill="#CBD6E0" d="M24.1,25.9c0,0.2,0,0.5,0,0.6c0,0.3,0.1,0.4,0.2,0.6c-0.2-0.1-0.3-0.3-0.3-0.6C23.9,26.3,24,26,24.1,25.9
				z"/>
		</g>
	</g>
	<g>
		<g>
			<path fill="#CBD6E0" d="M25.6,26.3c-0.1,0-0.3-0.1-0.5-0.2c-0.1-0.1-0.2-0.3-0.2-0.5c0.1,0.1,0.1,0.2,0.3,0.4
				C25.3,26,25.6,26.3,25.6,26.3z"/>
		</g>
	</g>
	<g>
		<g>
			<path fill="#CBD6E0" d="M26.7,25.3c-0.1,0.1-0.3,0.1-0.5,0.1c-0.2,0-0.4-0.2-0.5-0.3c0.2,0.1,0.3,0.1,0.5,0.1
				C26.4,25.3,26.6,25.3,26.7,25.3z"/>
		</g>
	</g>
	<g>
		<g>
			<path fill="#CBD6E0" d="M27.4,24.3c0,0,0,0-0.1,0.1c-0.1,0-0.2,0.1-0.3,0.1c-0.2,0-0.3,0-0.4-0.1c0.1,0,0.3,0,0.4,0
				C27,24.4,27.4,24.4,27.4,24.3z"/>
		</g>
	</g>
	<g>
		<g>
			<path fill="#CBD6E0" d="M14.3,21.4c0,0,0.3-0.7,1.2-0.8C14.8,20.5,14.3,20.7,14.3,21.4z"/>
		</g>
	</g>
	<g>
		<g>
			<path fill="#CBD6E0" d="M20.4,21.5c0,0-1-0.4-2-0.1c-0.6,0.1-1.3,0.5-1.7,0.9c0.2-0.4,0.8-1,1.7-1.2C19.2,21,20,21.1,20.4,21.5z"
				/>
		</g>
	</g>
</g>
</svg>
