<?xml version="1.0" encoding="utf-8"?>
<!-- Generator: Adobe Illustrator 18.0.0, SVG Export Plug-In . SVG Version: 6.00 Build 0)  -->
<!DOCTYPE svg PUBLIC "-//W3C//DTD SVG 1.1//EN" "http://www.w3.org/Graphics/SVG/1.1/DTD/svg11.dtd">
<svg version="1.1" id="Layer_1" xmlns="http://www.w3.org/2000/svg" xmlns:xlink="http://www.w3.org/1999/xlink" x="0px" y="0px"
	 viewBox="0 0 36 36" enable-background="new 0 0 36 36" xml:space="preserve">
<g>
	<g>
		<g>
			<g>
				<g>
					<g>
						<g>
							<path fill="#F29A2E" d="M31.6,12.1c-1.1,4.1-5.1,7.9-8.2,6.1c-2.9-1.9-1.6-6.8,0.6-10.3C25.9,4.5,29,1.2,31,2.2
								C32.9,3.3,32.8,8.4,31.6,12.1z"/>
						</g>
					</g>
				</g>
				<g>
					<g>
						<g>
							<path fill="#FFE9AB" d="M30,10.8c-1.4,3.6-4.1,6.6-6.1,5.5c-1.9-1.2-0.9-4.8,0.7-8c1.5-3,4.5-5.3,5.5-4.9
								C30.7,3.7,31.3,7.5,30,10.8z"/>
						</g>
					</g>
				</g>
			</g>
			<g>
				<g>
					<g>
						<path fill="#FFDC97" d="M24.6,8.3c-1.6,3.2-2.6,6.8-0.7,8c2,1.1,4.7-1.9,6.1-5.5c0.1-0.1,0.1-0.3,0.1-0.4
							C29,10.6,27.2,12,27.2,12c0.1-1.3,0.9-2.4,2.3-3.1c-1.9,0-4.1,3-3.3,0.4C26.9,6.9,29,6.7,29,6.7c-0.6-0.8-2.1,0-2.1,0
							c1-2.1,3.2-3.3,3.2-3.2C29.2,3,26.1,5.2,24.6,8.3z"/>
					</g>
				</g>
			</g>
		</g>
		<g>
			<g>
				<g>
					<g>
						<g>
							<path fill="#F29A2E" d="M4.4,12.1c1.1,4.1,5.1,7.9,8.2,6.1c2.9-1.9,1.6-6.8-0.6-10.3C10.1,4.5,7,1.2,5,2.2
								C3.1,3.3,3.2,8.4,4.4,12.1z"/>
						</g>
					</g>
				</g>
				<g>
					<g>
						<g>
							<path fill="#FFE9AB" d="M6,10.8c1.4,3.6,4.1,6.6,6.1,5.5c1.9-1.2,0.9-4.8-0.7-8C9.9,5.2,6.8,3,5.9,3.4
								C5.3,3.7,4.7,7.5,6,10.8z"/>
						</g>
					</g>
				</g>
			</g>
			<g>
				<g>
					<g>
						<path fill="#FFDC97" d="M11.4,8.3c1.6,3.2,2.6,6.8,0.7,8c-2,1.1-4.7-1.9-6.1-5.5C6,10.7,6,10.6,5.9,10.4C7,10.6,8.8,12,8.8,12
							c-0.1-1.3-0.9-2.4-2.3-3.1c1.9,0,4.1,3,3.3,0.4C9.1,6.9,7,6.7,7,6.7c0.6-0.8,2.1,0,2.1,0C8,4.5,5.9,3.4,5.9,3.4
							C6.8,3,9.9,5.2,11.4,8.3z"/>
					</g>
				</g>
			</g>
		</g>
	</g>
	<g>
		<g>
			<g>
				<path fill="#F29A2E" d="M29.9,20.3c0,6.6-5.3,11.9-11.9,11.9c-6.5,0-11.9-5.3-11.9-11.9C6.1,9.9,11.5,8.5,18,8.5
					C24.6,8.5,29.9,9.9,29.9,20.3z"/>
			</g>
		</g>
	</g>
	<g>
		<g>
			<g>
				<g>
					<g>
						<g>
							<path fill="#E18823" d="M26.5,25.1c0.7-1.6,1-3.8,1.2-5.6c0.4-3.1-1.2-6.4-3.3-6.4c-4.6,0-4.9,8.1-2.6,12.1H26.5z"/>
						</g>
					</g>
				</g>
				<g>
					<g>
						<g>
							<g>
								<path fill="#FFFFFF" d="M27.1,18.3c0,2.4-1.3,4.4-2.9,4.4c-1.6,0-2.9-2-2.9-4.4c0-2.4,1.3-4.4,2.9-4.4
									C25.8,13.8,27.1,15.8,27.1,18.3z"/>
							</g>
						</g>
					</g>
					<g>
						<g>
							<g>
								<path fill="#65B1EF" d="M26,18.6c0,1.6-0.9,3-1.9,3c-1.1,0-1.9-1.3-1.9-3c0-1.6,0.9-2.9,1.9-2.9C25.2,15.6,26,16.9,26,18.6z
									"/>
							</g>
						</g>
					</g>
					<g>
						<g>
							<g>
								<path fill="#3E4347" d="M25.3,19.2c0,1-0.5,1.9-1.2,1.9s-1.2-0.8-1.2-1.9c0-1,0.5-1.8,1.2-1.8S25.3,18.2,25.3,19.2z"/>
							</g>
						</g>
					</g>
					<g>
						<g>
							<g>
								<circle fill="#FFFFFF" cx="24.8" cy="17.7" r="0.6"/>
							</g>
						</g>
					</g>
					<g>
						<g>
							<g>
								<circle fill="#FFFFFF" cx="23.8" cy="19.7" r="0.3"/>
							</g>
						</g>
					</g>
				</g>
			</g>
		</g>
		<g>
			<g>
				<g>
					<g>
						<g>
							<path fill="#E18823" d="M9.5,25.1c-0.7-1.6-1-3.8-1.2-5.6c-0.4-3.1,1.2-6.4,3.3-6.4c4.6,0,4.9,8.1,2.6,12.1H9.5z"/>
						</g>
					</g>
				</g>
				<g>
					<g>
						<g>
							<g>
								<path fill="#FFFFFF" d="M8.9,18.3c0,2.4,1.3,4.4,2.9,4.4c1.6,0,2.9-2,2.9-4.4c0-2.4-1.3-4.4-2.9-4.4
									C10.2,13.8,8.9,15.8,8.9,18.3z"/>
							</g>
						</g>
					</g>
					<g>
						<g>
							<g>
								<path fill="#65B1EF" d="M13.8,18.6c0,1.6-0.9,3-1.9,3s-1.9-1.3-1.9-3c0-1.6,0.9-2.9,1.9-2.9S13.8,16.9,13.8,18.6z"/>
							</g>
						</g>
					</g>
					<g>
						<g>
							<g>
								<path fill="#3E4347" d="M13,19.2c0,1-0.5,1.9-1.2,1.9c-0.7,0-1.2-0.8-1.2-1.9c0-1,0.5-1.8,1.2-1.8
									C12.5,17.4,13,18.2,13,19.2z"/>
							</g>
						</g>
					</g>
					<g>
						<g>
							<g>
								<circle fill="#FFFFFF" cx="12.5" cy="17.7" r="0.6"/>
							</g>
						</g>
					</g>
					<g>
						<g>
							<g>
								<circle fill="#FFFFFF" cx="11.5" cy="19.7" r="0.3"/>
							</g>
						</g>
					</g>
				</g>
			</g>
		</g>
	</g>
	<g>
		<g>
			<g>
				<path fill="#FFE9AB" d="M32.1,24.4c1,3-1.2,7.3-5.2,8.3c-6,1.6-11.8,1.6-17.8,0c-4-1.1-6.2-5.3-5.2-8.3c0.9-3,3.9-3.7,7-3.2
					c3.6,0.6,6.2,2.8,5.6,6c1,0,2,0,3,0c-0.6-3.2,2-5.4,5.6-6C28.2,20.7,31.2,21.4,32.1,24.4z"/>
			</g>
		</g>
	</g>
	<g>
		<g>
			<g>
				<path fill="#FFDC97" d="M32.3,25.7c0,2.1-0.8,3.9-2.2,5.2c-1.7,1.7-3.3,1.9-5.4,2.4c-4.4,1-9.1,1-13.5,0
					c-1.9-0.5-3.6-0.7-5.3-2.4c-1.4-1.3-2.2-3.1-2.2-5.2c1,4.8,3.9,5.5,7.8,6.3c7.7,1.1,11.8,0.1,14.9-0.3c0,0,0.8-0.1,1-0.2
					C29.7,30.8,32,28.2,32.3,25.7z"/>
			</g>
		</g>
	</g>
	<g>
		<g>
			<g>
				<g>
					<path fill="#9A795F" d="M22.3,25.2c-0.8,1.5-2.8,2.7-3.8,3.2c-0.3,0.2-0.7,0.2-1,0c-0.9-0.5-3-1.7-3.8-3.2
						c-0.3-0.6-0.1-1.3,0.4-1.6c2.6-1.6,5.2-1.6,7.8,0C22.4,23.9,22.6,24.6,22.3,25.2z"/>
				</g>
			</g>
		</g>
		<g>
			<g>
				<g>
					<path fill="#8F6D52" d="M22.3,25.2c-0.8,1.5-2.8,2.7-3.8,3.2c-0.3,0.2-0.7,0.2-1,0c-0.9-0.5-2.8-1.6-3.6-3
						c0.6,0.7,1.6,1.1,2.7,1.1c1.9,0,3.4-1.1,3.4-2.5c0-0.5-0.2-1-0.5-1.4c0.8,0.2,1.6,0.5,2.4,1.1C22.4,23.9,22.6,24.7,22.3,25.2z"
						/>
				</g>
			</g>
		</g>
	</g>
	<g>
		<g>
			<g>
				<path fill="#89664C" d="M20.6,8.8c0.6,0.8,0.8,1.8,0.5,2.7c-0.6-1-1.6-1.6-2.7-1.8c1,1.2,1.4,2.8,1,4.3
					c-0.3-0.8-0.9-1.4-1.7-1.7c0.4,0.7,0.4,1.5,0.2,2.2c-0.5-1.4-2.9-1.6-2.2-3.2c-0.6,0.4-1,1.1-1.1,1.8c-1-1.2-0.6-2.9,0.5-3.7
					c-0.5,0-1.1,0.3-1.5,0.6c0.4-1.5,2-2.6,3.6-2.3c-0.6-0.5-1.3-0.8-2.1-1c1.2-0.2,2.4-0.2,3.5,0.1c-0.2-0.5-0.6-0.9-1-1.2
					c1.2,0.1,2.1,0.6,2.7,1.9C22.2,7.2,23.3,9,23.3,9S21.5,8.5,20.6,8.8z"/>
			</g>
		</g>
	</g>
	<g>
		<g>
			<g>
				<g>
					<path fill="#3E4347" d="M11.3,28.2c0.8,0.4,1,0.6,1.9,0.9c1,0.4,2.6,0.8,3.4,0.8c0.6,0.1,2.1,0,2.6,0c0.7,0,2.4-0.4,3.4-0.8
						c0.8-0.3,1.2-0.5,2-0.9c-0.6,0.4-1.2,0.8-1.8,1.1c-0.4,0.2-2.8,1.3-3.4,1.6c-0.9,0.4-1.8,0.6-2.9,0.1c-0.1,0-2.8-1.3-3.4-1.6
						C12.6,29,11.8,28.5,11.3,28.2z"/>
				</g>
			</g>
		</g>
		<g>
			<g>
				<g>
					<g>
						<path fill="#FFFFFF" d="M15.3,30c0.9,0.2,1.6,0.3,2.4,0.4l-0.1,2.7c0,0.2-0.1,0.3-0.3,0.3H16c-0.1,0-0.2-0.1-0.3-0.3L15.3,30z
							"/>
					</g>
				</g>
				<g>
					<g>
						<path fill="#FFFFFF" d="M20.3,30l-0.4,3.1c0,0.2-0.1,0.3-0.3,0.3h-1.4c-0.1,0-0.3-0.1-0.3-0.3l-0.1-2.7
							C18.7,30.4,19.5,30.3,20.3,30z"/>
					</g>
				</g>
			</g>
		</g>
		<g>
			<g>
				<g>
					<g>
						<path fill="#3E4347" d="M25.1,28.8c-0.1-0.3-0.1-0.6-0.3-0.8c-0.2-0.3-0.6-0.6-0.6-0.6c0.3,0,0.6,0.2,0.8,0.5
							C25.1,28.2,25.2,28.6,25.1,28.8z"/>
					</g>
				</g>
			</g>
			<g>
				<g>
					<g>
						<path fill="#3E4347" d="M10.9,28.8c0.1-0.3,0.1-0.6,0.3-0.8c0.2-0.3,0.6-0.6,0.6-0.6c-0.3,0-0.6,0.2-0.8,0.5
							C10.9,28.2,10.8,28.6,10.9,28.8z"/>
					</g>
				</g>
			</g>
		</g>
	</g>
</g>
</svg>
