<?xml version="1.0" encoding="utf-8"?>
<!-- Generator: Adobe Illustrator 18.0.0, SVG Export Plug-In . SVG Version: 6.00 Build 0)  -->
<!DOCTYPE svg PUBLIC "-//W3C//DTD SVG 1.1//EN" "http://www.w3.org/Graphics/SVG/1.1/DTD/svg11.dtd">
<svg version="1.1" id="Layer_1" xmlns="http://www.w3.org/2000/svg" xmlns:xlink="http://www.w3.org/1999/xlink" x="0px" y="0px"
	 viewBox="0 0 36 36" enable-background="new 0 0 36 36" xml:space="preserve">
<g>
	<g>
		<g>
			<g>
				<g>
					<g>
						<g>
							<g>
								<path fill="#8F3F0A" d="M7.9,8.4c-2.6,1.8-4.6,4.7-4.5,7.1c0.4-0.6,0.9-1.2,1.4-1.8c-1,2-1.3,4-0.7,6
									c0.2-0.4,0.3-0.7,0.5-1.1c-0.2,1.8,0.7,3.7,2.2,5.2c-0.1-0.4-0.2-0.7-0.2-1.1c0.8,2.1,2.6,4.3,4.6,5.7
									c-0.2-0.4-0.3-0.8-0.5-1.1c1.2,1.8,2.9,3.2,4.6,3.8c-0.1-0.4-0.2-0.7-0.3-1.1c0.3,0.5,1.1,0.8,1.5,1.2
									c0.2,0.3,0.4,0.6,0.3,1c0.2-0.5,0.2-1.1,0.1-1.6c0.4,0.9,0.8,1.8,1.1,2.7c0.2-1.1,2.4-2.1,3-3.3c-0.1,0.4-0.2,0.7-0.3,1.1
									c1.7-0.5,3.3-1.9,4.6-3.7c-0.2,0.4-0.3,0.8-0.5,1.1c2-1.4,3.7-3.5,4.6-5.7c-0.1,0.4-0.2,0.7-0.2,1.1
									c1.5-1.6,2.4-3.5,2.3-5.3c0.2,0.4,0.4,0.8,0.5,1.1c0.6-2,0.3-4.1-0.7-6.1c0.5,0.6,0.9,1.2,1.3,1.8c0.2-2.5-1.9-5.4-4.5-7.2
									c0.8,0.2,1.6,0.6,2.4,1.2c-1.5-2.8-4.7-5.6-7.4-5.9c0.5-0.4,1.1-0.5,1.7-0.3c-2.2-1-4.9-0.9-6.9,0.5
									c-1.9-1.4-4.6-1.5-6.9-0.4c0.6-0.2,1.3-0.1,1.7,0.2C10.2,4.1,7,7,5.5,9.7C6.2,9.1,7.1,8.6,7.9,8.4z"/>
							</g>
						</g>
					</g>
				</g>
				<g>
					<g>
						<g>
							<path fill="#994617" d="M25.7,15.4c1.1,0.3,2.2,1,2.8,2c0.7,1,1,2.1,1,3.3c-0.2-0.3-0.4-0.7-0.6-1c0.2,1.7-0.5,3.4-1.8,4.5
								c0-0.2,0-0.5,0-0.7c-1,1.8-2.5,3.3-4.3,4.2c0-0.4,0-0.9,0-1.3c-0.4,0.9-1.2,1.6-2,2.2c-0.8,0.6-1.7,1.1-2.4,1.9
								c-0.6-0.9-1.4-1.6-2.4-2c0.1,0.5,0.2,1,0.2,1.5c-0.9-0.8-1.9-1.4-2.9-2c0.1,0.4,0.2,0.9,0.4,1.3c-0.2-0.3-0.5-0.5-0.8-0.8
								c-0.9-0.8-1.6-1.9-1.8-3.1c-0.2,0.3-0.3,0.7-0.2,1.1c-1.1-0.9-2.2-1.9-3-3c-0.8-1.2-1.4-2.6-1.3-4c-0.3,0.4-0.5,1-0.5,1.5
								c-0.3-1.9,0.5-3.9,2-5.1c-0.4,0-0.8,0.1-1,0.4c0.3-0.6,0.9-0.9,1.6-1c0.7-0.1,1.3,0.1,2,0.3c3.3,0.7,6.7,0.7,10,0.6"/>
						</g>
					</g>
				</g>
				<g>
					<g>
						<g>
							<g>
								<g>
									<path fill="#F4C534" d="M33,9.1c-1.7-2-4.4-1.9-5.4-0.4c-0.4,0.6-0.8,1.6-1,2.6c0.4,0.3,0.7,0.6,1,0.9
										c0.7,0.7,1.5,1.5,1.6,2.4c0,0.1,0,0.1,0,0.2c1.2-0.1,2.4-0.3,3.2-0.6C34.1,13.5,34.7,11,33,9.1z"/>
								</g>
							</g>
							<g>
								<g>
									<path fill="#F484A6" d="M30,8.7c-0.6,0-1.2,0.2-1.7,0.8c-0.4,0.5-0.9,1.5-1.1,2.3c0.1,0.1,0.3,0.3,0.4,0.4
										c0.4,0.4,0.9,0.9,1.2,1.4c0.9-0.2,1.9-0.5,2.5-0.9c0.7-0.4,0.9-1,1-1.5C32.5,10,31.3,8.7,30,8.7z"/>
								</g>
							</g>
							<g>
								<g>
									<path fill="#EA759C" d="M29.9,11c-0.4-0.2-0.8-0.2-1.1-0.1c-0.1-1.2,1.3-2.5,3.3-1c-0.4-0.8-1.2-1.3-2.1-1.3
										c-0.6,0-1.2,0.2-1.7,0.8c-0.4,0.5-0.9,1.5-1.1,2.3c0.1,0.1,0.3,0.3,0.4,0.4c0.4,0.4,0.8,0.9,1.2,1.4
										c0.2-0.1,0.5-0.2,0.7-0.3c0.4-0.2,0.7-0.5,1.1-0.7c-0.7,0-1.3,0.1-2,0.2C28.8,12,29.1,11.2,29.9,11z"/>
								</g>
							</g>
							<g>
								<g>
									<path fill="#E9B02C" d="M29.1,14.2c0.1,0.2,0.1,0.3,0.1,0.5c0,0.1,0,0.1,0,0.2c1.2-0.1,2.4-0.3,3.2-0.6
										c0.9-0.4,1.6-1.4,1.5-2.7C33.7,13.8,31.3,14.3,29.1,14.2z"/>
								</g>
							</g>
						</g>
						<g>
							<g>
								<g>
									<g>
										<path fill="#8F3F0A" d="M27.9,14.4c0.3,0.2,0.7,0.4,0.9,0.7c-1.4-1.4-1.8-3.6-4-4.4c0.8,0,1.5,0,2.3,0.2
											c-0.3,0.1-0.6,0.1-0.9,0.1c1.1,0.3,2.1,0.9,2.9,1.6c-0.4-0.1-0.8-0.1-1.2-0.2c1.6,0.8,1.6,2.6,1.6,4.3
											C29.2,15.8,28.6,15.1,27.9,14.4z"/>
									</g>
								</g>
							</g>
						</g>
					</g>
					<g>
						<g>
							<g>
								<g>
									<path fill="#F4C534" d="M3,9.1c1.7-2,4.4-1.9,5.4-0.4c0.4,0.6,0.8,1.6,1,2.6c-0.4,0.3-0.7,0.6-1,0.9
										c-0.7,0.7-1.5,1.5-1.6,2.4c0,0.1,0,0.1,0,0.2c-1.2-0.1-2.4-0.3-3.2-0.6C1.9,13.5,1.3,11,3,9.1z"/>
								</g>
							</g>
							<g>
								<g>
									<path fill="#F484A6" d="M6,8.7c0.6,0,1.2,0.2,1.7,0.8C8.1,10,8.6,11,8.8,11.8c-0.1,0.1-0.3,0.3-0.4,0.4
										c-0.4,0.4-0.9,0.9-1.2,1.4c-0.9-0.2-1.9-0.5-2.5-0.9c-0.7-0.4-0.9-1-1-1.5C3.5,10,4.7,8.7,6,8.7z"/>
								</g>
							</g>
							<g>
								<g>
									<path fill="#EA759C" d="M6.1,11c0.4-0.2,0.8-0.2,1.1-0.1c0.1-1.2-1.3-2.5-3.3-1C4.3,9.2,5.2,8.7,6,8.7
										c0.6,0,1.2,0.2,1.7,0.8C8.1,10,8.6,11,8.8,11.8c-0.1,0.1-0.3,0.3-0.4,0.4c-0.4,0.4-0.8,0.9-1.2,1.4
										c-0.2-0.1-0.5-0.2-0.7-0.3c-0.4-0.2-0.7-0.5-1.1-0.7c0.7,0,1.3,0.1,2,0.2C7.2,12,6.9,11.2,6.1,11z"/>
								</g>
							</g>
							<g>
								<g>
									<path fill="#E9B02C" d="M6.9,14.2c-0.1,0.2-0.1,0.3-0.1,0.5c0,0.1,0,0.1,0,0.2c-1.2-0.1-2.4-0.3-3.2-0.6
										C2.6,13.8,2,12.8,2,11.5C2.3,13.8,4.7,14.3,6.9,14.2z"/>
								</g>
							</g>
						</g>
						<g>
							<g>
								<g>
									<g>
										<path fill="#8F3F0A" d="M8.1,14.4c-0.3,0.2-0.7,0.4-0.9,0.7c1.4-1.4,1.8-3.6,4-4.4c-0.8,0-1.5,0-2.3,0.2
											c0.3,0.1,0.6,0.1,0.9,0.1c-1.1,0.3-2.1,0.9-2.9,1.6c0.4-0.1,0.8-0.1,1.2-0.2c-1.6,0.8-1.6,2.6-1.6,4.3
											C6.8,15.8,7.4,15.1,8.1,14.4z"/>
									</g>
								</g>
							</g>
						</g>
					</g>
				</g>
				<g>
					<g>
						<g>
							<path fill="#7C3006" d="M21.2,9.6c0.2-0.6,2.8-1.4,4-1c-0.9-0.6-2-0.9-3-0.8c0.2-0.6,0.8-1.2,1.4-1.4c-1,0-2,0.4-2.8,1.1
								c-0.1-0.9,0.1-1.9,0.6-2.7c-0.7,0.2-1.3,0.5-1.9,0.9s-1.1,1-1.2,1.7c-0.2-1.5-1.7-2.7-3.2-2.7c0.7,0.9,1.1,1.9,1.3,2.9
								c-1-0.8-2.2-1.1-3.5-1c-1.2,0.1-2.4,0.4-3.6,0.9c1.3,0,2.6,0.4,3.7,1c-1.1-0.2-2.2,0.3-2.9,1.2c0.9-0.4,2-0.4,2.9-0.1
								s1.8,1,2.5,1.6c0.7,0.6,1.4,1.2,2.2,1.2c0.8,0,1.5-0.4,2.2-0.9"/>
						</g>
					</g>
				</g>
				<g>
					<g>
						<g>
							<path fill="#F4C534" d="M28.3,19.4c0,2.2-1.5,4.1-3.8,4.9c-1,0.4-1.9,0.9-2.6,1.7c-0.8,1-2.3,1.6-4,1.6
								c-1.7,0-3.1-0.6-3.9-1.6c-0.7-0.8-1.6-1.3-2.6-1.7c-2.2-0.8-3.7-2.7-3.7-4.9c0-1.5,0.7-2.8,1.9-3.8c-0.6-0.7-0.9-1.5-0.9-2.4
								c0-2.3,2.4-4.2,5.3-4.2c1.6,0,3,0.6,4,1.5c1-0.9,2.4-1.5,4-1.5c2.9,0,5.3,1.9,5.3,4.2c0,0.9-0.3,1.7-0.9,2.4
								C27.6,16.5,28.3,17.9,28.3,19.4z"/>
						</g>
					</g>
				</g>
				<g opacity="0.5">
					<g>
						<g>
							<path fill="#E9B02C" d="M28.3,19.4c0,2.2-1.5,4.1-3.8,4.9c-1,0.4-1.9,0.9-2.6,1.7c-0.8,0.9-2.1,1.5-3.7,1.6
								c1.3-0.1,2.5-0.7,3.2-1.6c0.6-0.8,1.4-1.3,2.2-1.7c1.9-0.8,3.2-2.7,3.2-4.9c0-1.5-0.6-2.8-1.6-3.8c0.5-0.7,0.8-1.5,0.8-2.4
								c0-2.3-1.9-4.1-4.3-4.2c0.1,0,0.2,0,0.3,0c2.9,0,5.3,1.9,5.3,4.2c0,0.9-0.3,1.7-0.9,2.4C27.6,16.5,28.3,17.9,28.3,19.4z"/>
						</g>
					</g>
				</g>
				<g>
					<g>
						<g>
							<path fill="#6B503B" d="M21.1,23.5c0,1.7-1.4,3.1-3.1,3.1c-1.7,0-3.1-1.4-3.1-3.1c0-0.1,0-0.2,0-0.3c1.6,0.6,2.5,0.3,3-0.7
								c0.6,1.1,1.7,1.3,3.1,0.8C21.1,23.3,21.1,23.4,21.1,23.5z"/>
						</g>
					</g>
				</g>
				<g>
					<g>
						<g>
							<path fill="#593F2E" d="M18.2,23C18.2,22.9,18.2,22.9,18.2,23c-0.1-0.1-0.1-0.2-0.2-0.2c-0.4,0.4-1,0.7-1.7,0.7
								c-0.3,0-0.5,0-0.7-0.1c0,1.3,1.1,2.4,2.4,2.4c1.2,0,2.2-0.9,2.4-2C19.6,23.8,18.8,23.5,18.2,23z"/>
						</g>
					</g>
				</g>
				<g>
					<g>
						<g>
							<g>
								<g>
									<g>
										<path fill="#FFFFFF" d="M24.3,16.3c0,1.8-1,3.2-2.2,3.2c-1.2,0-2.2-1.4-2.2-3.2c0-1.8,1-3.2,2.2-3.2
											C23.3,13.1,24.3,14.6,24.3,16.3z"/>
									</g>
								</g>
							</g>
							<g>
								<g>
									<g>
										<g>
											<path fill="#65B1EF" d="M23.4,16.9c0,1.2-0.7,2.2-1.5,2.2c-0.9,0-1.5-1-1.5-2.2s0.7-2.2,1.5-2.2
												C22.8,14.7,23.4,15.6,23.4,16.9z"/>
										</g>
									</g>
								</g>
								<g>
									<g>
										<g>
											<path fill="#3E4347" d="M22.9,17.2c0,0.8-0.5,1.5-1,1.5c-0.6,0-1-0.7-1-1.5c0-0.8,0.5-1.5,1-1.5
												C22.5,15.7,22.9,16.4,22.9,17.2z"/>
										</g>
									</g>
								</g>
								<g>
									<g>
										<g>
											<circle fill="#FFFFFF" cx="22.3" cy="16" r="0.5"/>
										</g>
									</g>
								</g>
								<g>
									<g>
										<g>
											<circle fill="#FFFFFF" cx="21.4" cy="17.3" r="0.3"/>
										</g>
									</g>
								</g>
							</g>
						</g>
						<g>
							<g>
								<g>
									<path fill="#3E4347" d="M24.9,13.7c-0.8-1.2-2.1-1.7-3.1-2c-0.6-0.1-0.9-0.8-0.3-0.9C23.8,10.8,24.8,13.5,24.9,13.7z"/>
								</g>
							</g>
						</g>
					</g>
					<g>
						<g>
							<g>
								<g>
									<g>
										<path fill="#FFFFFF" d="M11.7,16.3c0,1.8,1,3.2,2.2,3.2c1.2,0,2.2-1.4,2.2-3.2c0-1.8-1-3.2-2.2-3.2
											C12.7,13.1,11.7,14.6,11.7,16.3z"/>
									</g>
								</g>
							</g>
							<g>
								<g>
									<g>
										<g>
											<path fill="#65B1EF" d="M15.6,16.9c0,1.2-0.7,2.2-1.5,2.2c-0.9,0-1.5-1-1.5-2.2s0.7-2.2,1.5-2.2
												C15,14.7,15.6,15.6,15.6,16.9z"/>
										</g>
									</g>
								</g>
								<g>
									<g>
										<g>
											<path fill="#3E4347" d="M15.1,17.2c0,0.8-0.5,1.5-1,1.5c-0.6,0-1-0.7-1-1.5c0-0.8,0.5-1.5,1-1.5
												C14.7,15.7,15.1,16.4,15.1,17.2z"/>
										</g>
									</g>
								</g>
								<g>
									<g>
										<g>
											<circle fill="#FFFFFF" cx="14.5" cy="16" r="0.5"/>
										</g>
									</g>
								</g>
								<g>
									<g>
										<g>
											<circle fill="#FFFFFF" cx="13.6" cy="17.3" r="0.3"/>
										</g>
									</g>
								</g>
							</g>
						</g>
						<g>
							<g>
								<g>
									<path fill="#3E4347" d="M11.1,13.7c0.8-1.2,2.1-1.7,3.1-2c0.6-0.1,0.9-0.8,0.3-0.9C12.2,10.8,11.2,13.5,11.1,13.7z"/>
								</g>
							</g>
						</g>
					</g>
				</g>
				<g>
					<g>
						<g>
							<path fill="#DE9C25" d="M24.2,20.8C24,21.5,23.5,22,23,22.4c-0.5,0.4-1.1,0.7-1.8,1c-1.1,0.4-2.7,0.5-3.2-0.5
								c-0.7,1.4-3.3,0.8-5-0.5c-0.5-0.4-1-1-1.2-1.6c0.3,0.6,0.8,1.1,1.3,1.4c1.6,1.1,4.5,1.9,4.7-0.2c0.1-0.3,0.3-0.3,0.4,0
								c0.1,1.5,1.5,1.5,2.9,1.1c0.6-0.2,1.2-0.5,1.8-0.9C23.4,21.9,23.9,21.5,24.2,20.8z"/>
						</g>
					</g>
				</g>
				<g>
					<g>
						<path fill="#E24B4B" d="M18.2,24.3c-0.2,0.1-0.5,0.1-0.7,0.1c-0.8,0-1.5,0.4-1.7,1.3c0.6,0.6,1.3,0.9,2.2,0.9
							c1,0,1.9-0.5,2.5-1.2C20.1,24.6,19.2,24.1,18.2,24.3z"/>
					</g>
				</g>
			</g>
			<g>
				<g>
					<g>
						<g>
							<path fill="#5A5F63" d="M20.4,20.7c-0.6,0.9-1.7,1.6-2.2,1.9c-0.2,0.1-0.3,0.1-0.5,0c-0.5-0.3-1.6-1-2.2-1.9
								c-0.3-0.4,0-1.1,0.5-1c1.3,0.2,2.6,0.2,3.8,0C20.4,19.6,20.7,20.3,20.4,20.7z"/>
						</g>
					</g>
				</g>
				<g>
					<g>
						<g>
							<path fill="#3E4347" d="M20.4,20.7c-0.6,0.9-1.7,1.6-2.2,1.9c-0.2,0.1-0.3,0.1-0.5,0c-0.4-0.2-1.2-0.7-1.8-1.4
								c0.3,0.1,0.6,0.2,0.9,0.3c1.1,0.2,1.9-0.2,1.9-0.8c0-0.3-0.2-0.6-0.5-0.8c0.5,0,1.1,0,1.6-0.1C20.4,19.6,20.7,20.3,20.4,20.7
								z"/>
						</g>
					</g>
				</g>
			</g>
		</g>
	</g>
	<g opacity="0.15">
		<g>
			<g>
				<path fill="#FFFFFF" d="M19.5,25c-0.1,0.2-0.3,0.2-0.5,0.1s-0.4-0.3-0.3-0.4c0.1-0.2,0.3-0.2,0.5-0.2
					C19.4,24.7,19.6,24.9,19.5,25z"/>
			</g>
		</g>
	</g>
</g>
</svg>
