<?xml version="1.0" encoding="utf-8"?>
<!-- Generator: Adobe Illustrator 18.0.0, SVG Export Plug-In . SVG Version: 6.00 Build 0)  -->
<!DOCTYPE svg PUBLIC "-//W3C//DTD SVG 1.1//EN" "http://www.w3.org/Graphics/SVG/1.1/DTD/svg11.dtd">
<svg version="1.1" id="Layer_1" xmlns="http://www.w3.org/2000/svg" xmlns:xlink="http://www.w3.org/1999/xlink" x="0px" y="0px"
	 viewBox="0 0 36 36" enable-background="new 0 0 36 36" xml:space="preserve">
<g>
	<g>
		<g>
			<path fill="#CBD6E0" d="M32.3,3.2c-0.3-0.4-0.8-0.3-1,0.1c-1.1,2.4-3.6,5.1-7.7,6.8v3c1.1,0.1,2.2,0.2,3.2,0.2
				C34.4,13.3,35.5,7.4,32.3,3.2z"/>
		</g>
	</g>
	<g>
		<g>
			<path fill="#F484A6" d="M32.1,4.8c0,0-1.3,5.2-6.9,6.9C30.1,12.9,34.6,9.3,32.1,4.8z"/>
		</g>
	</g>
	<g>
		<g>
			<path fill="#EA759C" d="M32.1,4.8c0,0-1.3,5.2-6.9,6.9C31.3,12.2,32.1,4.8,32.1,4.8z"/>
		</g>
	</g>
	<g opacity="0.2">
		<g>
			<path fill="#FFFFFF" d="M31.6,4.5c0,0.6-0.8,2.5-2.3,4c-1.2,1.2-3.3,2.2-4,2.2c1-0.4,2.6-1.4,3.7-2.5C30.1,7.1,31.1,5.7,31.6,4.5
				z"/>
		</g>
	</g>
	<g>
		<g>
			<path fill="#BBC7D1" d="M34,7.4c0,0-0.6,5.1-7.5,4.4c-1.2-0.1-2.1-0.1-2.9,0v1.3c1.1,0.2,2.2,0.2,3.2,0.2
				C32,13.3,34.2,10.5,34,7.4z"/>
		</g>
	</g>
	<g>
		<g>
			<path fill="#CBD6E0" d="M3.7,3.2c0.3-0.4,0.8-0.3,1,0.1c1.1,2.4,3.6,5.1,7.7,6.8v3c-1.1,0.1-2.2,0.2-3.2,0.2
				C1.6,13.3,0.5,7.4,3.7,3.2z"/>
		</g>
	</g>
	<g>
		<g>
			<path fill="#F484A6" d="M3.9,4.8c0,0,1.3,5.2,6.9,6.9C5.9,12.9,1.4,9.3,3.9,4.8z"/>
		</g>
	</g>
	<g>
		<g>
			<path fill="#EA759C" d="M3.9,4.8c0,0,1.3,5.2,6.9,6.9C4.7,12.2,3.9,4.8,3.9,4.8z"/>
		</g>
	</g>
	<g opacity="0.2">
		<g>
			<path fill="#FFFFFF" d="M4.4,4.5c0,0.6,0.8,2.5,2.3,4c1.2,1.2,3.3,2.2,4,2.2c-1-0.4-2.6-1.4-3.7-2.5C5.9,7.1,4.9,5.7,4.4,4.5z"/>
		</g>
	</g>
	<g>
		<g>
			<path fill="#BBC7D1" d="M2,7.4c0,0,0.6,5.1,7.5,4.4c1.2-0.1,2.1-0.1,2.9,0v1.3c-1.1,0.2-2.2,0.2-3.2,0.2C4,13.3,1.8,10.5,2,7.4z"
				/>
		</g>
	</g>
	<g>
		<g>
			<path fill="#CBD6E0" d="M31,18.8C28.6,9.1,24.9,6.1,18,6.1c-6.9,0-10.6,3-13,12.7C3.3,26,7.4,30.4,12.5,32.2c3.6,1,7.3,1,11,0
				C28.5,30.4,32.7,26,31,18.8z"/>
		</g>
	</g>
	<g>
		<g>
			<path fill="#E9EFF4" d="M21.1,21.4c-0.6-4-2-5.7-2.7-6.3c-0.2-0.2-0.5-0.2-0.7,0c-0.7,0.6-2.1,2.3-2.7,6.3c0,0.2,0.1,0.5,0.3,0.6
				c1.8,0.7,3.7,0.7,5.5,0C21,21.9,21.1,21.7,21.1,21.4z"/>
		</g>
	</g>
	<g>
		<g>
			<path fill="#DEE4E9" d="M21.1,21.4c0,0.2-0.1,0.5-0.3,0.6c-1.6,0.7-3.3,0.7-4.9,0.2c0.1,0,0.2,0,0.3,0c1.9,0,3.3-2.4,3.1-5.3
				c0-0.3-0.1-0.7-0.1-1C19.8,16.9,20.7,18.6,21.1,21.4z"/>
		</g>
	</g>
	<g>
		<g>
			<path fill="#FFFFFF" d="M26.5,16c0.2,2.2-0.8,4-2.3,4c-1.5,0-2.9-1.8-3.1-4c-0.2-2.2,0.9-4,2.4-4C24.9,12,26.3,13.8,26.5,16z"/>
		</g>
	</g>
	<g>
		<g>
			<path fill="#65B1EF" d="M25.7,16.5c0.1,1.5-0.6,2.7-1.6,2.7c-1,0-2-1.2-2.1-2.7c-0.1-1.5,0.6-2.7,1.6-2.7
				C24.6,13.8,25.5,15,25.7,16.5z"/>
		</g>
	</g>
	<g>
		<g>
			<path fill="#3E4347" d="M25,16.8c0.1,0.9-0.3,1.7-1,1.7c-0.6,0-1.2-0.7-1.3-1.7c-0.1-0.9,0.4-1.7,1-1.7
				C24.3,15.2,24.9,15.9,25,16.8z"/>
		</g>
	</g>
	<g>
		<g>
			<path fill="#FFFFFF" d="M24.6,15.3c0,0.3-0.2,0.5-0.5,0.5c-0.3,0-0.5-0.2-0.5-0.5c0-0.3,0.2-0.5,0.5-0.5
				C24.4,14.8,24.6,15,24.6,15.3z"/>
		</g>
	</g>
	<g>
		<g>
			<path fill="#FFFFFF" d="M23.9,17.4c0,0.2-0.1,0.3-0.3,0.3c-0.2,0-0.3-0.1-0.3-0.3c0-0.2,0.1-0.3,0.3-0.3
				C23.7,17.1,23.9,17.2,23.9,17.4z"/>
		</g>
	</g>
	<g>
		<g>
			<path fill="#CBD6E0" d="M28.2,19.1c-1.9,2.2-4.3,2.6-7.1,1.5C21.1,20.5,24.1,18,28.2,19.1z"/>
		</g>
	</g>
	<g>
		<g>
			<path fill="#BBC7D1" d="M22,20c0,0,0.1-0.1,0.2-0.2c0.1-0.1,0.3-0.3,0.6-0.4c0.3-0.2,0.6-0.3,1-0.5c0.4-0.1,0.8-0.2,1.2-0.3
				c0.4-0.1,0.8-0.1,1.2,0c0.4,0,0.8,0.1,1.1,0.2c0.6,0.2,1,0.4,1,0.4s-0.1,0-0.3,0c-0.2,0-0.4,0-0.7-0.1c-0.6-0.1-1.4,0-2.2,0.1
				c-0.8,0.1-1.6,0.3-2.1,0.5C22.4,19.8,22,20,22,20z"/>
		</g>
	</g>
	<g>
		<g>
			<path fill="#3E4347" d="M27.9,13.3c-2.2-3.8-4.4-4.9-6.3-2.7C23.3,10.6,25.9,11,27.9,13.3z"/>
		</g>
	</g>
	<g>
		<g>
			<path fill="#FFFFFF" d="M9.5,16c-0.2,2.2,0.8,4,2.3,4c1.5,0,2.9-1.8,3.1-4c0.2-2.2-0.9-4-2.4-4C11.1,12,9.7,13.8,9.5,16z"/>
		</g>
	</g>
	<g>
		<g>
			<path fill="#65B1EF" d="M10.3,16.5c-0.1,1.5,0.6,2.7,1.6,2.7c1,0,2-1.2,2.1-2.7c0.1-1.5-0.6-2.7-1.6-2.7
				C11.4,13.8,10.5,15,10.3,16.5z"/>
		</g>
	</g>
	<g>
		<g>
			<path fill="#3E4347" d="M11,16.8c-0.1,0.9,0.3,1.7,1,1.7c0.6,0,1.2-0.7,1.3-1.7c0.1-0.9-0.4-1.7-1-1.7
				C11.7,15.2,11.1,15.9,11,16.8z"/>
		</g>
	</g>
	<g>
		<g>
			<path fill="#FFFFFF" d="M11.4,15.3c0,0.3,0.2,0.5,0.5,0.5c0.3,0,0.5-0.2,0.5-0.5c0-0.3-0.2-0.5-0.5-0.5
				C11.6,14.8,11.4,15,11.4,15.3z"/>
		</g>
	</g>
	<g>
		<g>
			<path fill="#FFFFFF" d="M12.1,17.4c0,0.2,0.1,0.3,0.3,0.3c0.2,0,0.3-0.1,0.3-0.3c0-0.2-0.1-0.3-0.3-0.3
				C12.3,17.1,12.1,17.2,12.1,17.4z"/>
		</g>
	</g>
	<g>
		<g>
			<path fill="#CBD6E0" d="M7.8,19.1c1.9,2.2,4.3,2.6,7.1,1.5C14.9,20.5,11.9,18,7.8,19.1z"/>
		</g>
	</g>
	<g>
		<g>
			<path fill="#BBC7D1" d="M14,20c0,0-0.1,0-0.3-0.1c-0.2,0-0.4-0.1-0.7-0.2c-0.3-0.1-0.6-0.1-1-0.2c-0.4-0.1-0.7-0.2-1.1-0.2
				c-0.4-0.1-0.8-0.1-1.1-0.1c-0.4,0-0.7-0.1-1-0.1c-0.3,0-0.6,0-0.7,0c-0.2,0-0.3,0-0.3,0s0.1,0,0.3-0.1c0.2-0.1,0.4-0.1,0.7-0.2
				c0.6-0.1,1.4-0.2,2.2-0.1c0.8,0.2,1.6,0.4,2.1,0.7c0.3,0.1,0.5,0.3,0.6,0.4C13.9,19.9,14,20,14,20z"/>
		</g>
	</g>
	<g>
		<g>
			<path fill="#3E4347" d="M8.1,13.3c2.2-3.8,4.4-4.9,6.3-2.7C12.7,10.6,10.1,11,8.1,13.3z"/>
		</g>
	</g>
	<g>
		<g>
			<path fill="#777B7E" d="M24.9,23.7c-0.8,0.7-2.4,1-3.4,1c0.5-1.1,1.7-3,2.9-3.1C25.5,21.6,25.7,22.9,24.9,23.7z"/>
		</g>
	</g>
	<g>
		<g>
			<path fill="#5A5F63" d="M24.9,23.7c-0.1,0.1-0.2,0.2-0.4,0.3c0.3-0.4,0.1-0.9-0.7-0.8c-1.1,0-2.1,1.4-2.3,1.6
				c0.5-1.1,1.7-2.9,2.9-3.1C25.5,21.6,25.7,22.9,24.9,23.7z"/>
		</g>
	</g>
	<g>
		<g>
			<path fill="#BBC7D1" d="M21.6,23.3c0.2-0.6,0.9-1.5,1.5-1.9c1.1-0.8,2.2-0.5,2.7,0.1c0.3,0.4,0.3,0.9,0.3,1.3
				c-0.1,0.4-0.3,0.8-0.5,1.1c0.2-0.4,0.3-0.7,0.3-1.1c0-0.5-0.1-0.8-0.3-1.1c-0.4-0.5-1.3-0.7-2.3-0.1
				C22.6,22.1,21.9,22.8,21.6,23.3z"/>
		</g>
	</g>
	<g>
		<g>
			<path fill="#777B7E" d="M11.1,23.7c0.8,0.7,2.4,1,3.4,1c-0.5-1.1-1.7-3-2.9-3.1C10.5,21.6,10.3,22.9,11.1,23.7z"/>
		</g>
	</g>
	<g>
		<g>
			<path fill="#5A5F63" d="M11.1,23.7c0.1,0.1,0.2,0.2,0.4,0.3c-0.3-0.4-0.1-0.9,0.7-0.8c1.1,0,2.1,1.4,2.3,1.6
				c-0.5-1.1-1.7-2.9-2.9-3.1C10.5,21.6,10.3,22.9,11.1,23.7z"/>
		</g>
	</g>
	<g>
		<g>
			<path fill="#BBC7D1" d="M14.4,23.3c-0.2-0.6-0.9-1.5-1.5-1.9c-1.1-0.8-2.2-0.5-2.7,0.1c-0.3,0.4-0.3,0.9-0.3,1.3
				c0.1,0.4,0.3,0.8,0.5,1.1c-0.2-0.4-0.3-0.7-0.3-1.1c0-0.5,0.1-0.8,0.3-1.1c0.4-0.5,1.3-0.7,2.3-0.1
				C13.4,22.1,14.1,22.8,14.4,23.3z"/>
		</g>
	</g>
	<g>
		<g>
			<path fill="#BBC7D1" d="M20.7,23.7c-0.9-0.1-1.8-0.3-2.7-0.3c-0.9,0-1.8,0.1-2.7,0.3c0.6-0.4,1.6-0.7,2.7-0.7
				C19.1,23,20.1,23.3,20.7,23.7z"/>
		</g>
	</g>
	<g opacity="0.3">
		<g>
			<path fill="#FFFFFF" d="M17.8,18.3c-0.4,1.1-1,1.8-1.4,1.7c-0.4-0.1-0.4-1.1,0-2.2c0.4-1.1,1-1.8,1.4-1.7
				C18.2,16.2,18.2,17.2,17.8,18.3z"/>
		</g>
	</g>
	<g>
		<g>
			<path fill="#BBC7D1" d="M10.4,28.2c0,0,0.2,0.2,0.5,0.5c0.4,0.3,0.9,0.6,1.6,0.9c1.4,0.6,3.4,1,5.5,1c2,0,4.1-0.4,5.5-1
				c0.7-0.3,1.2-0.6,1.6-0.9c0.3-0.3,0.5-0.5,0.5-0.5s0,0.1-0.1,0.2c-0.1,0.1-0.2,0.2-0.3,0.4c-0.3,0.3-0.8,0.8-1.5,1.1
				c-0.7,0.3-1.6,0.7-2.5,0.9c-1,0.2-2,0.3-3.1,0.3c-1.1,0-2.1-0.2-3.1-0.3c-1-0.2-1.8-0.6-2.5-0.9c-0.7-0.4-1.2-0.8-1.5-1.1
				c-0.2-0.2-0.3-0.3-0.3-0.4C10.5,28.3,10.4,28.2,10.4,28.2z"/>
		</g>
	</g>
	<g>
		<g>
			<path fill="#BBC7D1" d="M24.7,27.2c0,0,0.2,0,0.4,0.1c0.3,0.1,0.5,0.3,0.8,0.6c0.2,0.3,0.3,0.7,0.3,1c0,0.3-0.1,0.4-0.1,0.4
				s0-0.2-0.1-0.4c-0.1-0.2-0.2-0.5-0.4-0.8c-0.2-0.3-0.4-0.5-0.6-0.7C24.8,27.4,24.7,27.2,24.7,27.2z"/>
		</g>
	</g>
	<g>
		<g>
			<path fill="#BBC7D1" d="M11.3,27.2c0,0-0.1,0.1-0.3,0.3c-0.2,0.2-0.4,0.4-0.6,0.7c-0.2,0.3-0.3,0.6-0.4,0.8
				c-0.1,0.2-0.1,0.4-0.1,0.4S9.9,29.2,9.9,29c0-0.3,0.1-0.6,0.3-1c0.2-0.3,0.5-0.5,0.8-0.6C11.2,27.3,11.3,27.2,11.3,27.2z"/>
		</g>
	</g>
</g>
</svg>
