<?xml version="1.0" encoding="utf-8"?>
<!-- Generator: Adobe Illustrator 18.0.0, SVG Export Plug-In . SVG Version: 6.00 Build 0)  -->
<!DOCTYPE svg PUBLIC "-//W3C//DTD SVG 1.1//EN" "http://www.w3.org/Graphics/SVG/1.1/DTD/svg11.dtd">
<svg version="1.1" id="Layer_1" xmlns="http://www.w3.org/2000/svg" xmlns:xlink="http://www.w3.org/1999/xlink" x="0px" y="0px"
	 viewBox="0 0 36 36" enable-background="new 0 0 36 36" xml:space="preserve">
<g>
	<g>
		<g>
			<g>
				<g>
					<g>
						<path fill="#FFD93B" d="M23.2,3.2h-1.6c-0.5,1.1-1.2,2.1-1.4,2.5c-0.4,0.4-0.9,0.6-0.9,0.6l3.1,1.3c0,0-0.2-0.5-0.2-1.1
							C22.3,5.9,22.7,4.5,23.2,3.2z"/>
					</g>
				</g>
			</g>
			<g>
				<g>
					<g>
						<path fill="#7A5B44" d="M23.6,3.5C23.4,4,22.7,4.2,22,3.9c-0.7-0.2-1.1-0.9-0.9-1.4c0.2-0.5,0.9-0.7,1.6-0.4
							C23.4,2.4,23.8,3,23.6,3.5z"/>
					</g>
				</g>
			</g>
			<g>
				<g>
					<g>
						<path fill="#6B503B" d="M23.6,3.5C23.4,4,22.7,4.2,22,3.9c-0.7-0.2-1.1-0.9-0.9-1.4c0.2,0.3,0.5,0.6,0.9,0.7
							c0.7,0.2,1.4,0.1,1.6-0.3C23.6,3.2,23.6,3.3,23.6,3.5z"/>
					</g>
				</g>
			</g>
		</g>
		<g>
			<g>
				<g>
					<g>
						<path fill="#FFD93B" d="M14.4,3.2h-1.6c0.5,1.3,0.9,2.8,0.9,3.4c0.1,0.6-0.2,1.1-0.2,1.1l3.1-1.3c0,0-0.5-0.2-0.9-0.6
							C15.5,5.3,14.9,4.3,14.4,3.2z"/>
					</g>
				</g>
			</g>
			<g>
				<g>
					<g>
						<path fill="#7A5B44" d="M14.9,2.5C15.1,3,14.7,3.6,14,3.9c-0.7,0.3-1.4,0.1-1.6-0.3c-0.2-0.5,0.2-1.1,0.8-1.4
							C13.9,1.9,14.7,2,14.9,2.5z"/>
					</g>
				</g>
			</g>
			<g>
				<g>
					<g>
						<path fill="#6B503B" d="M14.9,2.5C15.1,3,14.7,3.6,14,3.9c-0.7,0.3-1.4,0.1-1.6-0.3c0.3,0.1,0.7,0.1,1.1-0.1
							c0.7-0.3,1.1-0.9,0.9-1.4C14.7,2.2,14.8,2.3,14.9,2.5z"/>
					</g>
				</g>
			</g>
		</g>
	</g>
	<g>
		<g>
			<g>
				<g>
					<g>
						<g>
							<path fill="#FFD93B" d="M21.7,10.9c3-0.9,3.9-3.3,4.7-4.7c1.5-2.6,3.5-2.8,4.6-2c1.6,1.3,1,5.4-2.1,6.8
								c-2.5,1.2-5.6,0.3-8,1.8"/>
						</g>
					</g>
				</g>
				<g>
					<g>
						<g>
							<path fill="#FC97B2" d="M30.3,5.8c0,2.2-2,4.6-5.7,4.6c2-1.1,2.9-3.6,4.8-4.9C29.8,5.1,30.3,5.2,30.3,5.8z"/>
						</g>
					</g>
				</g>
				<g>
					<g>
						<g>
							<path fill="#E88EA7" d="M30.3,5.7c-0.1,0-0.3,0.1-0.5,0.2c-1.8,1.3-2.9,3.5-5.2,4.4c2-1.1,2.9-3.6,4.8-4.9
								C29.8,5.2,30.3,5.2,30.3,5.7z"/>
						</g>
					</g>
				</g>
				<g>
					<g>
						<path fill="#F4C534" d="M31.8,5.7c-0.5,1.4-1.5,2.7-2.8,3.6c-1.4,1-3.2,1.5-4.9,1.3c0.4-0.7,1.1-1.7,1.1-2.5
							c-0.7,1.1-1.7,2.1-3.5,2.7L21,12.8c2.3-1.5,5.5-0.6,8-1.8C31.2,10,32.1,7.5,31.8,5.7z"/>
					</g>
				</g>
			</g>
			<g opacity="0.15">
				<g>
					<g>
						<path fill="#FFFFFF" d="M29.4,5.2c0.6-0.4,0.9-0.3,1.1-0.1c0.5,0.6,0.6,0.2,0.5-0.2c-0.1-0.3-0.4-0.6-0.7-0.7
							c-0.7-0.3-1.4,0.1-2,0.6C27.7,5.3,27.2,6,27,6.8c0,0.1-0.1,0.3,0,0.4c0.3,0.1,0.6-0.2,0.7-0.5C28.2,6.2,28.7,5.6,29.4,5.2z"/>
					</g>
				</g>
			</g>
		</g>
		<g>
			<g>
				<g>
					<g>
						<g>
							<path fill="#FFD93B" d="M14.3,10.9c-3-0.9-3.9-3.3-4.7-4.7C8,3.6,6.1,3.3,5,4.2C3.4,5.5,4,9.6,7,11c2.5,1.2,5.6,0.3,8,1.8"/>
						</g>
					</g>
				</g>
				<g>
					<g>
						<g>
							<path fill="#FC97B2" d="M5.7,5.8c0,2.2,2,4.6,5.7,4.6c-2-1.1-2.9-3.6-4.8-4.9C6.2,5.1,5.7,5.2,5.7,5.8z"/>
						</g>
					</g>
				</g>
				<g>
					<g>
						<g>
							<path fill="#E88EA7" d="M5.7,5.7C5.8,5.7,6,5.8,6.2,6c1.8,1.3,2.9,3.5,5.2,4.4c-2-1.1-2.9-3.6-4.8-4.9
								C6.2,5.2,5.7,5.2,5.7,5.7z"/>
						</g>
					</g>
				</g>
				<g>
					<g>
						<path fill="#F4C534" d="M4.2,5.7c0.5,1.4,1.5,2.7,2.8,3.6c1.4,1,3.2,1.5,4.9,1.3C11.5,10,10.8,9,10.7,8.2
							c0.7,1.1,1.7,2.1,3.5,2.7l0.7,1.9c-2.3-1.5-5.5-0.6-8-1.8C4.8,10,3.9,7.5,4.2,5.7z"/>
					</g>
				</g>
			</g>
			<g opacity="0.15">
				<g>
					<g>
						<path fill="#FFFFFF" d="M6.6,5.2C6.1,4.8,5.7,4.9,5.5,5.1C5.1,5.7,4.9,5.3,5,4.9c0.1-0.3,0.4-0.6,0.7-0.7
							c0.7-0.3,1.4,0.1,2,0.6C8.3,5.3,8.8,6,9,6.8c0,0.1,0.1,0.3,0,0.4C8.7,7.3,8.4,6.9,8.3,6.7C7.8,6.2,7.3,5.6,6.6,5.2z"/>
					</g>
				</g>
			</g>
		</g>
	</g>
	<g>
		<g>
			<g>
				<path fill="#FFD93B" d="M18,5L18,5c-3.5,0-6.5,2.3-7.5,5.6c-0.4,1.4-0.9,3-1.6,4.7c-0.5,2.1,0.3,3.8,1.4,5.6
					c4.9,7,4.3,10.7,7.6,11.9c3.4-1.2,2.8-4.9,7.6-11.9c1.1-1.8,1.9-3.6,1.4-5.6c-0.7-1.7-1.2-3.3-1.6-4.7C24.5,7.3,21.5,5,18,5z"/>
			</g>
		</g>
	</g>
	<g>
		<g>
			<g>
				<path fill="#F4C534" d="M25.6,21c-4.9,7-4.3,10.7-7.6,11.9c-0.7-0.2-1.2-0.6-1.6-1.1c3.2-2.3,6.3-9,8-12.6c0.6-1.4,1-2.9,1-4.4
					c0-3.1-1.1-5.4-1.8-7.5c0.9,0.9,1.6,2,1.9,3.3c0.4,1.4,0.9,3,1.6,4.7C27.6,17.4,26.8,19.2,25.6,21z"/>
			</g>
		</g>
	</g>
	<g>
		<g>
			<g>
				<g>
					<g>
						<ellipse fill="#FFFFFF" cx="22.6" cy="15.6" rx="2.3" ry="3.3"/>
					</g>
				</g>
			</g>
			<g>
				<g>
					<g>
						<path fill="#65B1EF" d="M24.3,16.1c0,1.3-0.8,2.4-1.7,2.4c-0.9,0-1.7-1.1-1.7-2.4c0-1.3,0.8-2.4,1.7-2.4
							C23.5,13.7,24.3,14.7,24.3,16.1z"/>
					</g>
				</g>
			</g>
			<g>
				<g>
					<g>
						<path fill="#3E4347" d="M23.8,16.3c0,1-0.5,1.8-1.2,1.8c-0.7,0-1.2-0.8-1.2-1.8c0-1,0.6-1.8,1.2-1.8
							C23.2,14.5,23.8,15.3,23.8,16.3z"/>
					</g>
				</g>
			</g>
			<g>
				<g>
					<g>
						<path fill="#FFFFFF" d="M23.9,15.1c0,0.3-0.2,0.5-0.5,0.5s-0.5-0.2-0.5-0.5c0-0.3,0.2-0.5,0.5-0.5S23.9,14.8,23.9,15.1z"/>
					</g>
				</g>
			</g>
			<g>
				<g>
					<g>
						<circle fill="#FFFFFF" cx="22.6" cy="17" r="0.3"/>
					</g>
				</g>
			</g>
		</g>
		<g>
			<g>
				<g>
					<g>
						<ellipse fill="#FFFFFF" cx="13.4" cy="15.6" rx="2.3" ry="3.3"/>
					</g>
				</g>
			</g>
			<g>
				<g>
					<g>
						<path fill="#65B1EF" d="M15.1,16.1c0,1.3-0.8,2.4-1.7,2.4c-0.9,0-1.7-1.1-1.7-2.4c0-1.3,0.8-2.4,1.7-2.4
							C14.4,13.7,15.1,14.7,15.1,16.1z"/>
					</g>
				</g>
			</g>
			<g>
				<g>
					<g>
						<path fill="#3E4347" d="M14.7,16.3c0,1-0.5,1.8-1.2,1.8c-0.7,0-1.2-0.8-1.2-1.8c0-1,0.6-1.8,1.2-1.8
							C14.1,14.5,14.7,15.3,14.7,16.3z"/>
					</g>
				</g>
			</g>
			<g>
				<g>
					<g>
						<path fill="#FFFFFF" d="M14.8,15.1c0,0.3-0.2,0.5-0.5,0.5s-0.5-0.2-0.5-0.5c0-0.3,0.2-0.5,0.5-0.5S14.8,14.8,14.8,15.1z"/>
					</g>
				</g>
			</g>
			<g>
				<g>
					<g>
						<circle fill="#FFFFFF" cx="13.4" cy="17" r="0.3"/>
					</g>
				</g>
			</g>
		</g>
	</g>
	<g>
		<g>
			<g>
				<g>
					<path fill="#3E4347" d="M25.6,12.4c-0.6-0.9-1.9-1.6-3.4-1.8c-0.4,0-0.9,0-1.3,0c0.4-0.5,1-0.9,1.6-0.9c0.2,0,0.5,0,0.7,0.1
						C24.3,10.4,25.3,11.3,25.6,12.4z"/>
				</g>
			</g>
		</g>
		<g>
			<g>
				<g>
					<path fill="#3E4347" d="M10.4,12.4c0.6-0.9,1.9-1.6,3.4-1.8c0.4,0,0.9,0,1.3,0c-0.4-0.5-1-0.9-1.6-0.9c-0.2,0-0.5,0-0.7,0.1
						C11.7,10.4,10.7,11.3,10.4,12.4z"/>
				</g>
			</g>
		</g>
	</g>
	<g>
		<g>
			<ellipse fill="#7A5B44" cx="15.1" cy="7.7" rx="1.3" ry="0.7"/>
		</g>
	</g>
	<g>
		<g>
			<ellipse fill="#7A5B44" cx="17.7" cy="6.1" rx="0.8" ry="0.6"/>
		</g>
	</g>
	<g>
		<g>
			<ellipse fill="#7A5B44" cx="20.5" cy="6.3" rx="0.7" ry="0.4"/>
		</g>
	</g>
	<g>
		<g>
			<path fill="#7A5B44" d="M19.7,8.1c0,0.3-0.4,0.5-0.8,0.5S18,8.4,18,8.1c0-0.3,0.4-0.5,0.8-0.5S19.7,7.8,19.7,8.1z"/>
		</g>
	</g>
	<g>
		<g>
			<ellipse fill="#7A5B44" cx="16.9" cy="9.1" rx="0.7" ry="0.3"/>
		</g>
	</g>
	<g>
		<g>
			<ellipse fill="#7A5B44" cx="22.5" cy="8.9" rx="0.8" ry="0.6"/>
		</g>
	</g>
	<g>
		<g>
			<ellipse fill="#7A5B44" cx="20.1" cy="9.8" rx="0.7" ry="0.4"/>
		</g>
	</g>
	<g>
		<g>
			<ellipse fill="#7A5B44" cx="20.9" cy="7.9" rx="0.6" ry="0.3"/>
		</g>
	</g>
	<g>
		<g>
			<ellipse fill="#7A5B44" cx="17" cy="10.8" rx="0.7" ry="0.5"/>
		</g>
	</g>
	<g>
		<g>
			<g>
				<g>
					
						<ellipse transform="matrix(-0.1616 0.9869 -0.9869 -0.1616 46.5339 1.2054)" fill="#7A5B44" cx="22.8" cy="20.4" rx="0.7" ry="0.4"/>
				</g>
			</g>
			<g>
				<g>
					<g>
						
							<ellipse transform="matrix(0.7808 -0.6248 0.6248 0.7808 -6.2971 20.0565)" fill="#7A5B44" cx="25.4" cy="19" rx="0.7" ry="0.4"/>
					</g>
				</g>
			</g>
			<g>
				<g>
					<g>
						
							<ellipse transform="matrix(0.8362 0.5485 -0.5485 0.8362 15.9955 -9.3402)" fill="#7A5B44" cx="23.6" cy="22.1" rx="0.5" ry="0.9"/>
					</g>
				</g>
			</g>
			<g>
				<g>
					<g>
						
							<ellipse transform="matrix(0.9901 0.1402 -0.1402 0.9901 3.0332 -3.1795)" fill="#7A5B44" cx="24.1" cy="19.9" rx="0.4" ry="0.6"/>
					</g>
				</g>
			</g>
		</g>
		<g>
			<g>
				<g>
					
						<ellipse transform="matrix(0.1616 0.9869 -0.9869 0.1616 31.2083 4.0086)" fill="#7A5B44" cx="13.2" cy="20.4" rx="0.7" ry="0.4"/>
				</g>
			</g>
			<g>
				<g>
					<g>
						
							<ellipse transform="matrix(-0.7808 -0.6248 0.6248 -0.7808 6.9435 40.4407)" fill="#7A5B44" cx="10.6" cy="19" rx="0.7" ry="0.4"/>
					</g>
				</g>
			</g>
			<g>
				<g>
					<g>
						
							<ellipse transform="matrix(-0.8362 0.5485 -0.5485 -0.8362 34.8338 33.8018)" fill="#7A5B44" cx="12.4" cy="22.1" rx="0.5" ry="0.9"/>
					</g>
				</g>
			</g>
			<g>
				<g>
					<g>
						
							<ellipse transform="matrix(-0.9901 0.1402 -0.1402 -0.9901 26.5034 38.0178)" fill="#7A5B44" cx="11.9" cy="19.9" rx="0.4" ry="0.6"/>
					</g>
				</g>
			</g>
		</g>
	</g>
	<g>
		<g>
			<g>
				<g>
					<path fill="#4F382B" d="M11.9,29.1C12.5,31.9,15,34,18,34s5.5-2.1,6.1-4.9H11.9z"/>
				</g>
			</g>
		</g>
		<g>
			<g>
				<g>
					<g>
						<g>
							<path fill="#7A5B44" d="M24.5,27.4c0.8,3.3-0.3,4.3-6.5,4.1c-6.2,0.3-7.3-0.7-6.5-4.1c0.8-3.4,2.8-4.3,6.5-4.3
								C21.7,23.1,23.7,24,24.5,27.4z"/>
						</g>
					</g>
				</g>
			</g>
			<g>
				<g>
					<g>
						<g>
							<path fill="#6B503B" d="M18,31.5c-3.6,0.1-5.5-0.1-6.2-1c1.2,0.5,2.8,0.6,4.5,0.5c4.6-0.5,7.4-2.2,7.9-4.6
								c0.1,0.3,0.2,0.7,0.3,1.1C25.3,30.7,24.2,31.7,18,31.5z"/>
						</g>
					</g>
				</g>
			</g>
			<g>
				<g>
					<g>
						<g>
							<g>
								<path fill="#7A5B44" d="M22.6,22.9c-0.8-0.7-2.2-0.3-3.1,0.9c-0.1,0.1-0.1,0.2-0.2,0.2v2.4h2.9c0.1-0.1,0.1-0.1,0.2-0.2
									C23.3,25,23.4,23.6,22.6,22.9z"/>
							</g>
						</g>
					</g>
					<g>
						<g>
							<g>
								<path fill="#6B503B" d="M22.2,26.4c0.2-0.3,0.3-0.5,0.6-1.1c0.8-2.1-0.8-3.2-2.6-2.1c-0.5,0.3-0.7,0.5-0.9,0.8
									c0.1-0.3,0.4-0.7,0.8-1c1-0.9,2.1-0.8,2.7-0.3c0.6,0.5,0.9,1.5,0.2,2.7C22.8,25.8,22.5,26.2,22.2,26.4z"/>
							</g>
						</g>
					</g>
					<g>
						<g>
							<g>
								<path fill="#4F382B" d="M21.7,25.4c-0.4,0.5-1.9,1-1.9,1s0.1-1.5,0.5-2.1c0.4-0.5,1.1-0.7,1.5-0.4
									C22.2,24.2,22.2,24.9,21.7,25.4z"/>
							</g>
						</g>
					</g>
					<g>
						<g>
							<g>
								<path fill="#493325" d="M22,24.8c0-0.1-0.1-0.1-0.1-0.1c-0.4-0.3-1-0.1-1.5,0.4c-0.2,0.3-0.4,0.8-0.6,1.3c0,0,0,0,0,0
									s0.1-1.5,0.5-2.1c0.4-0.5,1.1-0.7,1.5-0.4C22.1,24.1,22.2,24.4,22,24.8z"/>
							</g>
						</g>
					</g>
				</g>
				<g>
					<g>
						<g>
							<g>
								<path fill="#7A5B44" d="M13.4,22.9c0.8-0.7,2.2-0.3,3.1,0.9c0.1,0.1,0.1,0.2,0.2,0.2v2.4h-2.9c-0.1-0.1-0.1-0.1-0.2-0.2
									C12.7,25,12.6,23.6,13.4,22.9z"/>
							</g>
						</g>
					</g>
					<g>
						<g>
							<g>
								<path fill="#6B503B" d="M13.8,26.4c-0.3-0.2-0.6-0.6-0.8-0.9c-0.6-1.2-0.4-2.2,0.2-2.7c0.6-0.5,1.7-0.6,2.7,0.3
									c0.3,0.3,0.6,0.7,0.8,1c-0.3-0.3-0.5-0.5-0.9-0.8c-0.7-0.4-1.6-0.7-2.3-0.2c-0.6,0.5-0.6,1.5-0.3,2.3
									C13.4,25.9,13.6,26.1,13.8,26.4z"/>
							</g>
						</g>
					</g>
					<g>
						<g>
							<g>
								<path fill="#4F382B" d="M14.3,25.4c0.4,0.5,1.9,1,1.9,1s-0.1-1.5-0.5-2.1c-0.4-0.5-1.1-0.7-1.5-0.4
									C13.8,24.2,13.8,24.9,14.3,25.4z"/>
							</g>
						</g>
					</g>
					<g>
						<g>
							<g>
								<path fill="#493325" d="M14,24.8c0-0.1,0.1-0.1,0.1-0.1c0.4-0.3,1-0.1,1.5,0.4c0.2,0.3,0.4,0.8,0.6,1.3c0,0,0,0,0,0
									s-0.1-1.5-0.5-2.1c-0.4-0.5-1.1-0.7-1.5-0.4C13.9,24.1,13.8,24.4,14,24.8z"/>
							</g>
						</g>
					</g>
				</g>
			</g>
		</g>
	</g>
	<g opacity="3.000000e-002">
		<g>
			<path fill="#FFFFFF" d="M22.4,24.5c0-0.8-0.4-1.5-1-2.1c-0.4,0.1-0.9,0.3-1.4,0.6c-0.1,0-0.1,0.1-0.2,0.1
				c-0.6-0.1-1.2-0.1-1.9-0.1c-0.7,0-1.3,0-1.9,0.1c0,0-0.1-0.1-0.2-0.1c-1-0.9-2.1-0.8-2.7-0.3c-0.5,0.4-0.7,1.1-0.5,2
				c-0.6,0.6-1,1.5-1.2,2.6c0,0.1,0,0.1,0,0.1c1.1,0.7,2.7,1,4.6,0.9C20.2,28.2,22.4,26.7,22.4,24.5z"/>
		</g>
	</g>
</g>
</svg>
