<?xml version="1.0" encoding="utf-8"?>
<!-- Generator: Adobe Illustrator 18.0.0, SVG Export Plug-In . SVG Version: 6.00 Build 0)  -->
<!DOCTYPE svg PUBLIC "-//W3C//DTD SVG 1.1//EN" "http://www.w3.org/Graphics/SVG/1.1/DTD/svg11.dtd">
<svg version="1.1" id="Layer_1" xmlns="http://www.w3.org/2000/svg" xmlns:xlink="http://www.w3.org/1999/xlink" x="0px" y="0px"
	 viewBox="0 0 36 36" enable-background="new 0 0 36 36" xml:space="preserve">
<g id="XMLID_1387_">
	<g id="XMLID_1400_">
		<g>
			<path fill="#FFD83B" d="M22.2,8.9c-0.6-0.5-1.3-1-2-1.6c-1.4-1.2-3.1-1.2-4.5,0c-0.6,0.5-1.2,1-1.8,1.4
				C8.2,13.3,3.9,23,11.7,28.8c0.7,0.5,1.6,1.1,2.5,1.6c2.2,1.3,5.3,1.3,7.5,0c1.1-0.6,2-1.2,2.8-1.8C32,22.9,27.8,13.4,22.2,8.9z"
				/>
		</g>
	</g>
	<g id="XMLID_1399_">
		<g>
			<path fill="#E14B4B" d="M18,25.5c-0.7-1.4-4.4,4.4-4.4,5.8c0,1.4,1.1,2.5,2.5,2.5c0.8,0,1.4-0.3,1.9-0.9c0.5,0.5,1.1,0.9,1.9,0.9
				c1.4,0,2.5-1.1,2.5-2.5C22.4,30,18.7,24.1,18,25.5z"/>
		</g>
	</g>
	<g id="XMLID_1398_">
		<g>
			<polygon fill="#DF8726" points="18,28.4 14.8,21.5 18,18.3 21.2,21.5 			"/>
		</g>
	</g>
	<g id="XMLID_1397_">
		<g>
			<polygon fill="#F2992D" points="18,23.8 14.8,21.5 18,18.3 21.2,21.5 			"/>
		</g>
	</g>
	<g id="XMLID_1393_">
		<g id="XMLID_1396_">
			<g>
				<ellipse fill="#FFFFFF" cx="21.2" cy="15.3" rx="1.4" ry="2"/>
			</g>
		</g>
		<g id="XMLID_1395_">
			<g>
				<circle fill="#3F4347" cx="21.2" cy="15.3" r="0.9"/>
			</g>
		</g>
		<g id="XMLID_1394_">
			<g>
				<circle fill="#FFFFFF" cx="20.6" cy="14.7" r="0.5"/>
			</g>
		</g>
	</g>
	<g id="XMLID_1389_">
		<g id="XMLID_1392_">
			<g>
				<ellipse fill="#FFFFFF" cx="14.8" cy="15.3" rx="1.4" ry="2"/>
			</g>
		</g>
		<g id="XMLID_1391_">
			<g>
				<circle fill="#3F4347" cx="14.8" cy="15.3" r="0.9"/>
			</g>
		</g>
		<g id="XMLID_1390_">
			<g>
				<circle fill="#FFFFFF" cx="14.2" cy="14.7" r="0.5"/>
			</g>
		</g>
	</g>
	<g id="XMLID_1388_">
		<g>
			<path fill="#E14B4B" d="M22.9,5.6c-0.7-0.5-1.6-0.5-2.3-0.1c0.1-0.3,0.1-0.5,0.1-0.6c0-1.5-1.2-2.7-2.7-2.7
				c-1.5,0-2.7,1.2-2.7,2.7c0,0.2,0,0.4,0.1,0.6c-0.7-0.4-1.6-0.4-2.3,0.1c-1,0.7-1.3,2.1-0.6,3.1s5.6,5.5,5.6,5.5s4.9-4.5,5.6-5.5
				S24,6.3,22.9,5.6z"/>
		</g>
	</g>
</g>
</svg>
