<?xml version="1.0" encoding="utf-8"?>
<!-- Generator: Adobe Illustrator 18.0.0, SVG Export Plug-In . SVG Version: 6.00 Build 0)  -->
<!DOCTYPE svg PUBLIC "-//W3C//DTD SVG 1.1//EN" "http://www.w3.org/Graphics/SVG/1.1/DTD/svg11.dtd">
<svg version="1.1" id="Layer_1" xmlns="http://www.w3.org/2000/svg" xmlns:xlink="http://www.w3.org/1999/xlink" x="0px" y="0px"
	 viewBox="0 0 36 36" enable-background="new 0 0 36 36" xml:space="preserve">
<g>
	<g>
		<g>
			<g>
				<g>
					<g>
						<g>
							<g>
								<path fill="#FFD93B" d="M33.4,13.3c0.9,1.8,0.8,3.6-0.7,4.4c-1.5,0.8-5.2,0.9-6.1-0.8s1.2-4.7,2.7-5.5
									C30.9,10.6,32.5,11.6,33.4,13.3z"/>
							</g>
						</g>
					</g>
					<g>
						<g>
							<g>
								<path fill="#E9B02C" d="M32.9,14.1c0.6,1.2,0.4,2.5-0.8,3.1c-1.2,0.6-3.3,0.5-3.9-0.6s0.5-2.9,1.6-3.6
									C31.1,12.4,32.3,12.9,32.9,14.1z"/>
							</g>
						</g>
					</g>
				</g>
			</g>
		</g>
		<g>
			<g>
				<g>
					<g>
						<g>
							<g>
								<path fill="#FFD93B" d="M2.6,13.3c-0.9,1.8-0.8,3.6,0.7,4.4c1.5,0.8,5.2,0.9,6.1-0.8c0.9-1.8-1.2-4.7-2.7-5.5
									C5.1,10.6,3.5,11.6,2.6,13.3z"/>
							</g>
						</g>
					</g>
					<g>
						<g>
							<g>
								<path fill="#E9B02C" d="M3.1,14.1c-0.6,1.2-0.4,2.5,0.8,3.1s3.3,0.5,3.9-0.6S7.3,13.6,6.1,13C4.9,12.4,3.7,12.9,3.1,14.1z"
									/>
							</g>
						</g>
					</g>
				</g>
			</g>
		</g>
	</g>
	<g>
		<g>
			<g>
				<g>
					<path fill="#3E4347" d="M26.1,26.3c1.7-2.3,2.7-5.2,2.7-8.4C28.8,8.4,24,5,18,5C12,5,7.2,8.4,7.2,17.8c0,3.2,1,6.2,2.7,8.4
						H26.1z"/>
				</g>
			</g>
		</g>
		<g>
			<g>
				<g>
					<g>
						<path fill="#FFD93B" d="M30.1,24.4c0,6.1-5,5.9-9.6,6c-1.6-0.2-3.5,0.3-5,1.5c-4.7,4.3-9.6-1.4-9.7-7.5c0-3.6,1.6-5.7,4.3-7
							c-0.2-0.6-0.2-1.3-0.2-2.1c0-3.6,1.9-6.8,4.2-6.3c1.8,0.4,3.3,2.3,3.9,4.5c0.6-2.1,2.4-5.1,4.1-4.7c2.7,0.5,3.9,4.5,3.9,7.4
							c0,0.5-0.1,1.1-0.2,1.6C28.4,18.9,30.1,21.3,30.1,24.4z"/>
					</g>
				</g>
			</g>
			<g opacity="0.5">
				<g>
					<g>
						<path fill="#F4C534" d="M30.1,24.4c0,6.1-5,5.9-9.6,6c-1.6-0.2-3.5,0.3-5,1.5c-4.7,4.3-9.6-1.4-9.6-7.5c0-0.1,0-0.2,0-0.3
							c0.2,5.6,5.1,10.6,9.6,6.7c1.5-1.1,3.4-1.6,5-1.3c4.5,0,9.4,0.1,9.6-5.3C30.1,24.2,30.1,24.3,30.1,24.4z"/>
					</g>
				</g>
			</g>
		</g>
		<g>
			<g>
				<g>
					<g>
						<g>
							<g>
								<g>
									<path fill="#6D4135" d="M20.1,21.8c-0.4,0.4-1.1,0.7-1.4,0.5c-0.2-0.2,0.1-1,0.5-1.4c0.4-0.4,0.7-0.3,1-0.1
										C20.4,21.1,20.5,21.4,20.1,21.8z"/>
								</g>
							</g>
						</g>
						<g>
							<g>
								<g>
									<path fill="#633B2A" d="M20.3,21.5c0,0,0-0.1-0.1-0.1c-0.2-0.2-0.6-0.3-1,0.1c-0.2,0.2-0.4,0.6-0.5,0.9c0,0,0,0,0,0
										c-0.3-0.2,0.1-1,0.5-1.4c0.4-0.4,0.7-0.3,1-0.1C20.3,21,20.4,21.2,20.3,21.5z"/>
								</g>
							</g>
						</g>
					</g>
				</g>
				<g>
					<g>
						<g>
							<g>
								<g>
									<path fill="#6D4135" d="M15.9,21.8c0.4,0.4,1.1,0.7,1.4,0.5s-0.1-1-0.5-1.4c-0.4-0.4-0.7-0.3-1-0.1
										C15.6,21.1,15.5,21.4,15.9,21.8z"/>
								</g>
							</g>
						</g>
						<g>
							<g>
								<g>
									<path fill="#633B2A" d="M15.7,21.5c0,0,0-0.1,0.1-0.1c0.2-0.2,0.6-0.3,1,0.1c0.2,0.2,0.4,0.6,0.5,0.9c0,0,0,0,0,0
										c0.3-0.2-0.1-1-0.5-1.4c-0.4-0.4-0.7-0.3-1-0.1C15.7,21,15.6,21.2,15.7,21.5z"/>
								</g>
							</g>
						</g>
					</g>
				</g>
			</g>
			<g>
				<g>
					<g>
						<path fill="#F4C534" d="M16.2,22.6c0.3,0.3,0.6,0.5,0.6,0.5S16.5,23,16,22.8c-1.2-0.7-1.4-1.9-1-2.4c0.3-0.5,1.1-0.4,1.5-0.1
							c-0.5-0.1-1-0.1-1.3,0.3C14.9,21.1,15.6,22.1,16.2,22.6z"/>
					</g>
				</g>
				<g>
					<g>
						<path fill="#F4C534" d="M20,22.8c-0.4,0.3-0.7,0.3-0.7,0.3s0.3-0.2,0.6-0.5c0.5-0.5,1.3-1.5,0.8-2c-0.2-0.4-0.8-0.4-1.3-0.3
							c0.4-0.3,1.2-0.3,1.5,0.1C21.4,20.9,21.2,22,20,22.8z"/>
					</g>
				</g>
			</g>
		</g>
		<g>
			<g>
				<g>
					<g>
						<g>
							<ellipse fill="#F4C534" cx="14" cy="15.8" rx="2.4" ry="3.1"/>
						</g>
					</g>
				</g>
				<g>
					<g>
						<g>
							<ellipse fill="#FFFFFF" cx="14.1" cy="16.2" rx="2.3" ry="3.1"/>
						</g>
					</g>
				</g>
				<g>
					<g>
						<g>
							<g>
								<path fill="#65B1EF" d="M15.6,16.7c0,1-0.7,1.8-1.5,1.8s-1.5-0.8-1.5-1.8c0-1,0.7-1.8,1.5-1.8S15.6,15.6,15.6,16.7z"/>
							</g>
						</g>
					</g>
					<g>
						<g>
							<g>
								<path fill="#3E4347" d="M14.9,16.7c0,0.6-0.4,1-0.8,1s-0.8-0.4-0.8-1s0.4-1,0.8-1C14.6,15.7,14.9,16.1,14.9,16.7z"/>
							</g>
						</g>
					</g>
					<g>
						<g>
							<g>
								<circle fill="#FFFFFF" cx="14.6" cy="16" r="0.4"/>
							</g>
						</g>
					</g>
				</g>
			</g>
			<g>
				<g>
					<g>
						<g>
							<ellipse fill="#F4C534" cx="22" cy="15.8" rx="2.4" ry="3.1"/>
						</g>
					</g>
				</g>
				<g>
					<g>
						<g>
							<ellipse fill="#FFFFFF" cx="21.9" cy="16.2" rx="2.3" ry="3.1"/>
						</g>
					</g>
				</g>
				<g>
					<g>
						<g>
							<g>
								<path fill="#65B1EF" d="M23.4,16.7c0,1-0.7,1.8-1.5,1.8c-0.8,0-1.5-0.8-1.5-1.8s0.7-1.8,1.5-1.8
									C22.7,14.8,23.4,15.6,23.4,16.7z"/>
							</g>
						</g>
					</g>
					<g>
						<g>
							<g>
								<path fill="#3E4347" d="M22.7,16.7c0,0.6-0.4,1-0.8,1c-0.4,0-0.8-0.4-0.8-1c0-0.6,0.4-1,0.8-1
									C22.3,15.7,22.7,16.1,22.7,16.7z"/>
							</g>
						</g>
					</g>
					<g>
						<g>
							<g>
								<circle fill="#FFFFFF" cx="22.4" cy="16" r="0.4"/>
							</g>
						</g>
					</g>
				</g>
			</g>
		</g>
		<g>
			<g>
				<g>
					<g>
						<path fill="#E9B02C" d="M16,28.5c-0.7,0-1.2-1.6-0.3-2.3C15.6,26.9,15.3,28,16,28.5z"/>
					</g>
				</g>
				<g>
					<g>
						<path fill="#E9B02C" d="M24,24.8c-0.5,1.2-1.6,2.4-3.4,3c-1.4,0.4-2.9,0.3-4.5-0.4c0.7,0,2.8,0.2,4.3-0.3
							C22.2,26.6,23.4,25.4,24,24.8z"/>
					</g>
				</g>
				<g>
					<g>
						<path fill="#E9B02C" d="M24.9,25.4c-0.2-0.3-0.3-0.7-0.6-1.1c-0.3-0.4-0.8-0.6-1-0.6c-0.2-0.2,0.8-0.2,1.2,0.3
							C24.8,24.4,24.9,24.9,24.9,25.4z"/>
					</g>
				</g>
			</g>
		</g>
		<g>
			<g>
				<g>
					<path fill="#3E4347" d="M20.8,7.7C21,6.9,21,6.1,20.6,5.4c1-0.2,2,0,2.9,0.4c-0.4-0.4-0.8-0.9-1.3-1.2C21.7,4.2,21,4,20.5,4.1
						c0.2-0.3,0.5-0.6,0.8-0.8C20,3.2,18.8,3.7,18,4.6c0.1-0.6,0.4-1.2,0.8-1.7C18.1,3.1,17.5,3.5,17,4c-0.1-0.6-0.6-1-1.1-1.2
						s-1.1-0.2-1.7-0.2c0.5,0.5,0.8,1,1.1,1.6c-0.8-0.1-1.7,0-2.5,0.3c0.5,0,0.9,0.2,1.3,0.4c0.4,0.3,0.6,0.8,0.5,1.2"/>
				</g>
			</g>
		</g>
	</g>
</g>
</svg>
