<?xml version="1.0" encoding="utf-8"?>
<!-- Generator: Adobe Illustrator 18.0.0, SVG Export Plug-In . SVG Version: 6.00 Build 0)  -->
<!DOCTYPE svg PUBLIC "-//W3C//DTD SVG 1.1//EN" "http://www.w3.org/Graphics/SVG/1.1/DTD/svg11.dtd">
<svg version="1.1" id="Layer_1" xmlns="http://www.w3.org/2000/svg" xmlns:xlink="http://www.w3.org/1999/xlink" x="0px" y="0px"
	 viewBox="0 0 36 36" enable-background="new 0 0 36 36" xml:space="preserve">
<g>
	<g>
		<g>
			<g>
				<g>
					<g>
						<g>
							<path fill="#ACB9C1" d="M29.8,13.6c-3.4,2-8.2,0.3-7.1-3.3c0.8-2.6,3.9-3.3,5.3-5.4C28.7,4,30.2,0.3,31.3,3
								C32.7,6.5,33.1,11.7,29.8,13.6z"/>
						</g>
					</g>
				</g>
				<g>
					<g>
						<g>
							<path fill="#FFE9AB" d="M25,10.5c0.1-1.5,1.8-2.4,2.8-3.1c1.3-1,2.3-2.4,2.8-4c1.1,4.1,1.4,7.6-1.5,9.1
								C26.8,13.7,24.9,12.5,25,10.5z"/>
						</g>
					</g>
				</g>
				<g>
					<g>
						<g>
							<path fill="#FFD68D" d="M30.6,11.1c-0.8,0.7-1.9,1.2-3,1.4c0.4-0.7,1-1.4,1.7-1.8c-0.9,0.3-1.7,0.8-2.5,1.2
								c-0.3-1,0-2,0.6-2.9c0.6-0.9,1.3-1.6,1.9-2.4c0.7-0.9,1.1-2,1.3-3.2c0,0,0,0,0,0c-0.5,1.6-1.5,3-2.8,4
								C26.9,8.1,25.2,9,25,10.5c-0.1,2,1.8,3.2,4.1,1.9C29.8,12.1,30.3,11.7,30.6,11.1z"/>
						</g>
					</g>
				</g>
			</g>
			<g>
				<g>
					<g>
						<g>
							<path fill="#ACB9C1" d="M6.2,13.6c3.4,2,8.2,0.3,7.1-3.3C12.5,7.7,9.3,7,7.9,4.8C7.3,4,5.8,0.3,4.7,3
								C3.3,6.5,2.9,11.7,6.2,13.6z"/>
						</g>
					</g>
				</g>
				<g>
					<g>
						<g>
							<path fill="#FFE9AB" d="M11,10.5C10.8,9,9.1,8.1,8.2,7.4c-1.3-1-2.3-2.4-2.8-4C4.3,7.5,4,11,6.9,12.5
								C9.2,13.7,11.1,12.5,11,10.5z"/>
						</g>
					</g>
				</g>
				<g>
					<g>
						<g>
							<path fill="#FFD68D" d="M5.4,11.1c0.8,0.7,1.9,1.2,3,1.4c-0.4-0.7-1-1.4-1.7-1.8c0.9,0.3,1.7,0.8,2.5,1.2c0.3-1,0-2-0.6-2.9
								C8,8.2,7.3,7.4,6.7,6.6C6,5.6,5.6,4.6,5.4,3.4c0,0,0,0,0,0c0.5,1.6,1.5,3,2.8,4C9.1,8.1,10.8,9,11,10.5
								c0.1,2-1.8,3.2-4.1,1.9C6.2,12.1,5.7,11.7,5.4,11.1z"/>
						</g>
					</g>
				</g>
			</g>
		</g>
		<g>
			<g>
				<g>
					<g>
						<g>
							<path fill="#ACB9C1" d="M29.9,18.5c1,1.7,0.8,3.9,0.4,5.8c-0.2-0.5-0.9-1.3-1.2-1.8c-0.1,2.2-0.7,4.2-2.1,5.9
								c0.1-0.6,0.1-1.1,0.2-1.7c-0.9,2.1-2.5,3.8-4.5,4.9l0.5-1.7c-1.5,0.8-2.9,1.9-4.1,3.1c0.1-0.5,0.2-0.9,0.3-1.4
								c-0.9,0.7-1.6,1.5-2.2,2.4c-0.2-0.7-0.6-1.3-1.1-1.9c-0.5-0.5-1.1-1-1.7-1.4c0.1,0.4,0.2,0.7,0.3,1.1
								c-0.5-0.7-1.1-1.3-1.8-1.8l0.5,1.5c-2-1.1-3.6-2.8-4.5-4.9C8.9,27.2,9,27.7,9,28.3c-1.6-1.5-2.7-4-2.4-6.2
								c-0.2,0.5-1.1,1.5-1.3,2c-0.4-1.9-0.1-4,0.9-5.7c-0.5,0.3-1,0.6-1.6,0.9c0.2-2.2,1.2-4.4,2.8-6c-0.6,0.2-1.1,0.4-1.7,0.6
								c0.9-1.6,2.3-2.9,3.9-3.8C9,10.1,8.6,10,8.1,9.8c2.2-1,4.9-1.1,7.2-0.1h5.4c2.3-1,4.9-0.9,7.2,0.1c-0.5,0.1-0.9,0.3-1.4,0.4
								c1.6,0.9,3,2.2,3.9,3.8c-0.6-0.2-1.1-0.4-1.7-0.6c1.6,1.6,2.6,3.7,2.8,6C30.9,19,30.4,18.8,29.9,18.5z"/>
						</g>
					</g>
				</g>
				<g>
					<g>
						<g>
							<g>
								<path fill="#DAE5EF" d="M29,23.7c-0.3,1.8-0.7,3.4-2,4.6c0.1-0.6,0.1-1.1,0.2-1.7c-0.9,2.1-2.5,3.8-4.5,4.9l0.5-1.7
									c-1.5,0.8-2.9,1.9-4.1,3.1c0.1-0.5,0.2-0.9,0.3-1.4c-0.9,0.7-1.6,1.5-2.2,2.4c-0.2-0.7-0.6-1.3-1.1-1.9
									c-0.5-0.5-1.1-1-1.7-1.4c0.1,0.4,0.2,0.7,0.3,1.1c-0.5-0.7-1.1-1.3-1.8-1.8l0.5,1.5c-2-1.1-3.6-2.8-4.5-4.9
									C8.9,27.2,9,27.7,9,28.3c-0.7-0.6-1.2-1.3-1.7-2.1c-0.6-1-0.7-2.1-0.6-3.2c0.5-2.6,0.9-3,1.4-3.4c-0.4,0.1-0.8,0.2-1.1,0.5
									c0-0.2,0-0.5,0-0.7c0.1-5,7-6.7,9.5-2.4c0.5,0.8,0.8,1.9,0.8,3.3v3.4c0,0,0.2-0.2,0.5,0.2V24c0,0,0-0.1,0-0.1
									c0,0,0,0.1,0,0.1v-0.2c0.2-0.4,0.5-0.2,0.5-0.2v-3.4c0-3.4,1.9-4.9,3.8-5.6c1.7-0.6,3.7-0.5,5.1,0.7c1.2,1,2,2.7,1.8,4.7
									c-0.3-0.3-0.6-0.5-1.1-0.5c0.3,0.3,0.6,0.6,0.7,1C29.1,21.6,29.2,22.6,29,23.7z"/>
							</g>
						</g>
					</g>
				</g>
				<g>
					<g>
						<g>
							<path fill="#CBD6E0" d="M21.5,27.6c-0.4,1.6-1.9,2.8-3.6,2.8c-1.7,0-3.1-1.2-3.6-2.8c1.4,0.4,2.7,0.2,3.3-0.3
								c0.2-0.2,0.3-0.5,0.3-0.7c0,0.3,0.2,0.6,0.5,0.8C19,27.8,20.2,28,21.5,27.6z"/>
						</g>
					</g>
				</g>
				<g>
					<g>
						<g>
							<g>
								<path fill="#6D4135" d="M20.9,27.6c-0.4,1.3-1.6,2.3-3,2.3c-1.4,0-2.5-0.9-3-2.2c0.7,0.3,2.6,0,3-0.9
									C18.5,28,20,28.2,20.9,27.6z"/>
							</g>
						</g>
					</g>
					<g>
						<g>
							<g>
								<path fill="#5B331D" d="M19.2,27.9c-0.3,0.7-0.8,1.2-1.4,1.2c-0.6,0-1.1-0.5-1.4-1.2c0.7-0.2,1.3-0.8,1.3-0.9c0,0,0,0,0-0.1
									C18.1,27.4,18.7,27.7,19.2,27.9z"/>
							</g>
						</g>
					</g>
				</g>
				<g>
					<g>
						<g>
							<g>
								<path fill="#CBD6E0" d="M24.4,26.1c-0.8,0.8-1.7,1.4-2.8,1.8c-0.6,0.2-1.3,0.3-2,0.2c-0.3,0-0.7-0.1-1-0.2
									c-0.2-0.1-0.3-0.1-0.5-0.2c-0.2-0.1-0.3-0.3-0.3-0.4c-0.2-0.3-0.1-0.7-0.1-0.9c0-0.3,0-0.5,0-0.8c0-1,0.1-1.6,0.1-1.6
									s0.1,0.7,0.1,1.6c0,0.2,0,0.5,0,0.8c0,0.3,0,0.6,0.1,0.8c0.1,0.2,0.4,0.4,0.7,0.5c0.3,0.1,0.6,0.2,0.9,0.2
									C21.4,27.9,23,27.1,24.4,26.1z"/>
							</g>
						</g>
					</g>
					<g>
						<g>
							<g>
								<path fill="#CBD6E0" d="M11.3,26.1c1.4,1.1,3,1.8,4.8,1.6c0.3,0,0.6-0.1,0.9-0.2c0.3-0.1,0.6-0.3,0.7-0.5
									c0.1-0.2,0.1-0.5,0.1-0.8c0-0.3,0-0.5,0-0.8c0-1,0.1-1.6,0.1-1.6s0.1,0.7,0.1,1.6c0,0.2,0,0.5,0,0.8c0,0.3,0.1,0.6-0.1,0.9
									c-0.2,0.3-0.5,0.5-0.8,0.6c-0.3,0.1-0.7,0.2-1,0.2c-0.7,0.1-1.4,0-2-0.2C13,27.5,12.1,26.9,11.3,26.1z"/>
							</g>
						</g>
					</g>
				</g>
				<g>
					<g>
						<g>
							<g>
								<g>
									<g>
										<path fill="#3E4347" d="M24.9,18.3c0,0.2-0.2,0.2-0.3,0.3c-0.2,0.2-0.1,0.5-0.1,0.7c0.4,1.9-0.8,3.3-3.4,2.5
											c-0.2-0.1-0.5-0.2-0.8-0.2c-0.9,0-1.4,0-0.7-0.8c1.2-1.3,1-3.7,3.4-3C23.7,17.9,24.3,18.4,24.9,18.3z"/>
									</g>
								</g>
							</g>
							<g>
								<g>
									<g>
										<path fill="#FFFFFF" d="M24.1,20c0,0.9-0.7,1.6-1.5,1.6c-0.8,0-1.5-0.7-1.5-1.6c0-0.9,0.7-1.6,1.5-1.6
											C23.4,18.4,24.1,19.1,24.1,20z"/>
									</g>
								</g>
							</g>
							<g>
								<g>
									<g>
										<g>
											<path fill="#65B1EF" d="M23.6,20.1c0,0.6-0.4,1.1-1,1.1c-0.6,0-1-0.5-1-1.1c0-0.6,0.5-1.1,1-1.1
												C23.1,19,23.6,19.5,23.6,20.1z"/>
										</g>
									</g>
								</g>
								<g>
									<g>
										<g>
											<path fill="#3E4347" d="M23.1,20.1c0,0.3-0.3,0.6-0.6,0.6c-0.3,0-0.6-0.3-0.6-0.6c0-0.3,0.3-0.6,0.6-0.6
												C22.9,19.5,23.1,19.8,23.1,20.1z"/>
										</g>
									</g>
								</g>
								<g>
									<g>
										<g>
											<circle fill="#FFFFFF" cx="22.9" cy="19.7" r="0.3"/>
										</g>
									</g>
								</g>
							</g>
						</g>
						<g>
							<g>
								<g>
									<g>
										<path fill="#3E4347" d="M25.2,17.2c-1.7-1.8-3.2-1.9-4.6-0.2C20.6,17.1,22.9,15.7,25.2,17.2z"/>
									</g>
								</g>
							</g>
							<g>
								<g>
									<g>
										<path fill="#3E4347" d="M10.8,17.2c1.7-1.8,3.2-1.9,4.6-0.2C15.4,17.1,13.1,15.7,10.8,17.2z"/>
									</g>
								</g>
							</g>
						</g>
					</g>
					<g>
						<g>
							<g>
								<g>
									<g>
										<path fill="#3E4347" d="M10.9,18.3c0,0.2,0.2,0.2,0.3,0.3c0.2,0.2,0.1,0.5,0.1,0.7c-0.4,1.9,0.8,3.3,3.4,2.5
											c0.2-0.1,0.5-0.2,0.8-0.2c0.9,0,1.4,0,0.7-0.8c-1.2-1.3-1-3.7-3.4-3C12.1,17.9,11.5,18.4,10.9,18.3z"/>
									</g>
								</g>
							</g>
							<g>
								<g>
									<g>
										<path fill="#FFFFFF" d="M11.8,20c0,0.9,0.7,1.6,1.5,1.6c0.8,0,1.5-0.7,1.5-1.6c0-0.9-0.7-1.6-1.5-1.6
											C12.4,18.4,11.8,19.1,11.8,20z"/>
									</g>
								</g>
							</g>
							<g>
								<g>
									<g>
										<g>
											<path fill="#65B1EF" d="M12.3,20.1c0,0.6,0.4,1.1,1,1.1c0.6,0,1-0.5,1-1.1c0-0.6-0.5-1.1-1-1.1
												C12.7,19,12.3,19.5,12.3,20.1z"/>
										</g>
									</g>
								</g>
								<g>
									<g>
										<g>
											<path fill="#3E4347" d="M12.7,20.1c0,0.3,0.3,0.6,0.6,0.6c0.3,0,0.6-0.3,0.6-0.6c0-0.3-0.3-0.6-0.6-0.6
												C13,19.5,12.7,19.8,12.7,20.1z"/>
										</g>
									</g>
								</g>
								<g>
									<g>
										<g>
											<circle fill="#FFFFFF" cx="12.9" cy="19.7" r="0.3"/>
										</g>
									</g>
								</g>
							</g>
						</g>
					</g>
				</g>
				<g>
					<g>
						<path fill="#E24B4B" d="M17.9,29.9c0.8,0,1.5-0.3,2.1-0.8c-0.2-0.3-0.5-0.6-0.8-0.8c-0.3-0.2-0.7-0.1-1.1,0
							c-0.2,0.1-0.4,0.1-0.7,0.1c-0.4-0.1-0.8,0.1-1.1,0.4C16.2,28.9,16,29,16,29.2C16.5,29.7,17.2,29.9,17.9,29.9z"/>
					</g>
				</g>
				<g>
					<g>
						<path fill="#D03F3F" d="M17.6,28.6c0.3,0.1,0.5,0.4,0.6,0.7c0-0.3,0-0.7,0.2-0.9c0.2-0.2,0.6-0.3,0.9-0.1
							c0.1,0,0.1,0.1,0.1,0.1c-0.1,0-0.1-0.1-0.2-0.1c-0.3-0.2-0.7-0.1-1.1,0c-0.2,0.1-0.4,0.1-0.7,0.1c-0.4-0.1-0.8,0.1-1.1,0.4
							C16.2,28.9,16,29,16,29.2c0.4,0.3,0.9,0.5,1.4,0.6c-0.2-0.1-0.3-0.1-0.5-0.2c-0.1-0.1-0.3-0.2-0.4-0.3c-0.1-0.2,0-0.4,0.2-0.6
							C16.9,28.5,17.3,28.5,17.6,28.6z"/>
					</g>
				</g>
				<g opacity="0.2">
					<g>
						<g>
							<path fill="#FFFFFF" d="M19.3,28.7c0,0.1-0.2,0-0.4,0c-0.2-0.1-0.4,0-0.3-0.2c0-0.1,0.3-0.2,0.5-0.1
								C19.2,28.4,19.4,28.6,19.3,28.7z"/>
						</g>
					</g>
				</g>
			</g>
			<g>
				<g>
					<g>
						<path fill="#ACB9C1" d="M20.7,9.8c0.3-0.9,1.1-1.6,2-1.9c-1.4,0-2.7,0.6-3.8,1.5c-0.3-1-1.2-1.9-2.2-2.2
							c0.1,0.5,0.3,0.9,0.4,1.4c-1-0.8-2.2-1.2-3.4-1.2c0.7,1.1,1,2.4,0.9,3.7c2.1-0.2,4.2,0.4,5.9,1.6"/>
					</g>
				</g>
			</g>
		</g>
	</g>
	<g>
		<g>
			<g>
				<g>
					<path fill="#6D4135" d="M19.6,24.5c-0.2,0.2-0.4,0.4-0.5,0.6c-0.5,0.9-2,0.9-2.4,0c-0.1-0.2-0.3-0.4-0.5-0.6
						c-1.2-0.9-1.4-1.1-0.3-2.1c0.5-0.5,1.2-0.9,2-0.9s1.5,0.4,2,0.9C21,23.3,20.7,23.6,19.6,24.5z"/>
				</g>
			</g>
		</g>
		<g>
			<g>
				<g>
					<path fill="#633B2A" d="M19.6,24.5c-0.2,0.2-0.4,0.3-0.5,0.6c-0.5,0.9-2,0.9-2.4,0c-0.1-0.2-0.3-0.4-0.5-0.6
						c-0.6-0.5-1-0.8-1-1.1c0.5,0.6,1.4,1,2.4,1c1.4,0,2.5-0.7,2.7-1.7C20.9,23.4,20.6,23.7,19.6,24.5z"/>
				</g>
			</g>
		</g>
		<g opacity="0.1">
			<g>
				<g>
					
						<ellipse transform="matrix(0.968 -0.2511 0.2511 0.968 -5.0938 5.1015)" fill="#FFFFFF" cx="17.4" cy="22.5" rx="0.9" ry="0.5"/>
				</g>
			</g>
		</g>
	</g>
</g>
</svg>
