<?xml version="1.0" encoding="utf-8"?>
<!-- Generator: Adobe Illustrator 18.0.0, SVG Export Plug-In . SVG Version: 6.00 Build 0)  -->
<!DOCTYPE svg PUBLIC "-//W3C//DTD SVG 1.1//EN" "http://www.w3.org/Graphics/SVG/1.1/DTD/svg11.dtd">
<svg version="1.1" id="Layer_1" xmlns="http://www.w3.org/2000/svg" xmlns:xlink="http://www.w3.org/1999/xlink" x="0px" y="0px"
	 viewBox="0 0 36 36" enable-background="new 0 0 36 36" xml:space="preserve">
<g>
	<g>
		<g>
			<g>
				<g>
					<g>
						<g>
							<path fill="#3E4347" d="M29.2,5.1L29.2,5.1c-0.4,0.7-1.1,1.4-1.9,1.9c-0.4,2.4-1.7,4.7-3.9,6.5c-0.9,0.7-1.3,0.9-2,1.3
								c-0.5,0.3-1.2,0.1-1.5-0.5c-0.3-0.5-0.1-1.2,0.5-1.5c0,0,1.1-0.4,1.9-0.9c0.4-0.3,0.9-0.6,1.4-1c0.8-2.3,1-3.4,0.7-5.8l0,0
								c0-0.1,0.1-0.2,0.2-0.2c0.1,0,0.2,0.1,0.2,0.1c0.3,1.6,0.4,3.2,0,4.9c1.1-1.3,1.8-2.9,2.1-4.8c0,0,0,0,0,0
								c-0.3-0.9-0.8-1.4-1.4-1.8c-0.1-0.1-0.1-0.2,0-0.2c0-0.1,0.1-0.1,0.2,0c0.5,0.3,0.9,0.6,1.3,1.2c0-0.6,0-1.3-0.1-1.6
								c0-0.1,0-0.2,0.1-0.2c0.1,0,0.2,0,0.2,0.1c0.3,1,0.5,2.3,0.3,3.7c0.6-0.3,1.1-0.8,1.4-1.3c0.1-0.1,0.2-0.1,0.3,0
								C29.2,4.8,29.2,5,29.2,5.1z"/>
						</g>
					</g>
				</g>
			</g>
		</g>
		<g>
			<g>
				<g>
					<g>
						<g>
							<path fill="#3E4347" d="M6.8,5.1L6.8,5.1c0.4,0.7,1.1,1.4,1.9,1.9c0.4,2.4,1.7,4.7,3.9,6.5c0.9,0.7,1.3,0.9,2,1.3
								c0.5,0.3,1.2,0.1,1.5-0.5c0.3-0.5,0.1-1.2-0.5-1.5c0,0-1.1-0.4-1.9-0.9c-0.4-0.3-0.9-0.6-1.4-1c-0.8-2.3-1-3.4-0.7-5.8l0,0
								c0-0.1-0.1-0.2-0.2-0.2c-0.1,0-0.2,0.1-0.2,0.1c-0.3,1.6-0.4,3.2,0,4.9C10.3,8.5,9.5,6.9,9.2,5c0,0,0,0,0,0
								c0.3-0.9,0.8-1.4,1.4-1.8c0.1-0.1,0.1-0.2,0-0.2c0-0.1-0.1-0.1-0.2,0C9.9,3.2,9.5,3.5,9.2,4.1c0-0.6,0-1.3,0.1-1.6
								c0-0.1,0-0.2-0.1-0.2C9,2.3,9,2.3,8.9,2.4c-0.3,1-0.5,2.3-0.3,3.7C8.1,5.8,7.5,5.3,7.2,4.8C7.1,4.7,7,4.7,6.9,4.8
								C6.8,4.8,6.8,5,6.8,5.1z"/>
						</g>
					</g>
				</g>
			</g>
		</g>
	</g>
	<g>
		<g>
			<g>
				<g>
					<g>
						<g>
							<g>
								<path fill="#8F6D52" d="M31.5,15.4c-2.7,3.3-7,3.4-9.6,0.4C24.6,12.6,28.9,12.4,31.5,15.4z"/>
							</g>
						</g>
					</g>
					<g>
						<g>
							<g>
								<path fill="#FFE9AB" d="M30.8,15.6c-1.9,2.2-5,2.4-7,0.4C25.6,13.9,28.8,13.7,30.8,15.6z"/>
							</g>
						</g>
					</g>
					<g>
						<g>
							<path fill="#FFD68D" d="M23.8,16c0.2,0.2,0.5,0.4,0.8,0.6c1.1-1.2,3.2-2.7,6.2-1.1C28.8,13.7,25.6,13.9,23.8,16z"/>
						</g>
					</g>
				</g>
				<g>
					<g>
						<g>
							<g>
								<path fill="#8F6D52" d="M4.5,15.4c2.7,3.3,7,3.4,9.6,0.4C11.4,12.6,7.1,12.4,4.5,15.4z"/>
							</g>
						</g>
					</g>
					<g>
						<g>
							<g>
								<path fill="#FFE9AB" d="M5.2,15.6c1.9,2.2,5,2.4,7,0.4C10.4,13.9,7.2,13.7,5.2,15.6z"/>
							</g>
						</g>
					</g>
					<g>
						<g>
							<path fill="#FFD68D" d="M12.2,16c-0.2,0.2-0.5,0.4-0.8,0.6c-1.1-1.2-3.2-2.7-6.2-1.1C7.2,13.7,10.4,13.9,12.2,16z"/>
						</g>
					</g>
				</g>
			</g>
			<g>
				<g>
					<g>
						<path fill="#9A795F" d="M25.9,19.6c0,4.7-3.5,11.7-7.9,11.7c-4.4,0-7.9-7-7.9-11.7c0-5.5,3.5-8.5,7.9-8.5
							C22.4,11.2,25.9,14.1,25.9,19.6z"/>
					</g>
				</g>
			</g>
		</g>
	</g>
	<g>
		<g>
			<g>
				<g>
					<path fill="#5B331D" d="M13.6,30.2c0-2,2-2.8,4.4-2.8s4.4,0.8,4.4,2.8s-2,3.6-4.4,3.6C15.6,33.7,13.6,32.1,13.6,30.2z"/>
				</g>
			</g>
		</g>
		<g>
			<g>
				<g>
					<path fill="#6D4135" d="M23.5,28.5c0,3-2.4,4.2-5.5,4.2s-5.5-1.2-5.5-4.2S15,23,18,23S23.5,25.5,23.5,28.5z"/>
				</g>
			</g>
		</g>
		<g>
			<g>
				<g>
					<g>
						<g>
							<path fill="#633B2A" d="M22.1,29.4c-0.4,0.9-1.6,1.4-2.5,1.7c0.9-1,0.6-1.7,0.9-2.5C20.9,27,22.8,27.9,22.1,29.4z"/>
						</g>
					</g>
				</g>
				<g>
					<g>
						<path fill="#5B331D" d="M20.6,29.3c0.2-1.1,1.5-0.3,1,0.7c0.2-0.2,0.4-0.4,0.5-0.7c0.7-1.5-1.2-2.4-1.6-0.8
							c-0.2,0.8,0,1.5-0.9,2.5C19.6,31.1,20.4,30.4,20.6,29.3z"/>
					</g>
				</g>
			</g>
			<g>
				<g>
					<g>
						<g>
							<path fill="#633B2A" d="M13.9,29.4c0.4,0.9,1.6,1.4,2.5,1.7c-0.9-1-0.6-1.7-0.9-2.5C15.1,27,13.2,27.9,13.9,29.4z"/>
						</g>
					</g>
				</g>
				<g>
					<g>
						<path fill="#5B331D" d="M15.4,29.3c-0.2-1.1-1.5-0.3-1,0.7c-0.2-0.2-0.4-0.4-0.5-0.7c-0.7-1.5,1.2-2.4,1.6-0.8
							c0.2,0.8,0,1.5,0.9,2.5C16.4,31.1,15.6,30.4,15.4,29.3z"/>
					</g>
				</g>
			</g>
		</g>
	</g>
	<g>
		<g>
			<g>
				<g>
					<g>
						<g>
							<g>
								<path fill="#3E4347" d="M23.4,19.9c0,1.9-0.9,2.9-2,2.9c-1.1,0-2-0.9-1.9-2.7s1.1-3.4,2.1-3.4C22.7,16.6,23.4,18,23.4,19.9z
									"/>
							</g>
						</g>
					</g>
					<g>
						<g>
							<g>
								<path fill="#FFFFFF" d="M23.3,20.1c0,1.7-0.8,2.6-1.8,2.7c-1.1,0-2-0.8-2.1-2.5s0.9-3.1,2-3.2
									C22.5,17.1,23.3,18.4,23.3,20.1z"/>
							</g>
						</g>
					</g>
				</g>
				<g>
					<g>
						<g>
							<g>
								<ellipse fill="#65B1EF" cx="21.3" cy="20.8" rx="1.3" ry="1.6"/>
							</g>
						</g>
					</g>
					<g>
						<g>
							<g>
								<ellipse fill="#3E4347" cx="21.3" cy="20.9" rx="0.7" ry="0.9"/>
							</g>
						</g>
					</g>
					<g>
						<g>
							<g>
								<circle fill="#FFFFFF" cx="21.8" cy="20.3" r="0.3"/>
							</g>
						</g>
					</g>
				</g>
			</g>
			<g>
				<g>
					<g>
						<path fill="#3E4347" d="M24,17.3c-0.4-1.9-1.4-2.7-3.6-1.8C20.4,15.5,22.6,15.2,24,17.3z"/>
					</g>
				</g>
			</g>
		</g>
		<g>
			<g>
				<g>
					<g>
						<g>
							<g>
								<path fill="#3E4347" d="M12.6,19.9c0,1.9,0.9,2.9,2,2.9c1.1,0,2-0.9,1.9-2.7s-1.1-3.4-2.1-3.4C13.3,16.6,12.6,18,12.6,19.9z
									"/>
							</g>
						</g>
					</g>
					<g>
						<g>
							<g>
								<path fill="#FFFFFF" d="M12.7,20.1c0,1.7,0.8,2.6,1.8,2.7c1.1,0,2-0.8,2.1-2.5s-0.9-3.1-2-3.2
									C13.5,17.1,12.7,18.4,12.7,20.1z"/>
							</g>
						</g>
					</g>
				</g>
				<g>
					<g>
						<g>
							<g>
								<ellipse fill="#65B1EF" cx="14.7" cy="20.8" rx="1.3" ry="1.6"/>
							</g>
						</g>
					</g>
					<g>
						<g>
							<g>
								<ellipse fill="#3E4347" cx="14.7" cy="20.9" rx="0.7" ry="0.9"/>
							</g>
						</g>
					</g>
					<g>
						<g>
							<g>
								<circle fill="#FFFFFF" cx="14.2" cy="20.3" r="0.3"/>
							</g>
						</g>
					</g>
				</g>
			</g>
			<g>
				<g>
					<g>
						<path fill="#3E4347" d="M12,17.3c0.4-1.9,1.4-2.7,3.6-1.8C15.6,15.5,13.4,15.2,12,17.3z"/>
					</g>
				</g>
			</g>
		</g>
	</g>
	<g>
		<g>
			<g>
				<path fill="#846144" d="M20.4,11.1c-0.9,0.7-2.2,1.7-1.4,2.9c-0.2-0.3-0.4-0.4-0.6-0.7c-0.2,0.5-0.2,0.9-0.2,1.4
					c0.1,0.6,0.1,1.2,0.5,1.7c-0.3,0-0.7-0.1-0.9-0.3s-0.4-0.5-0.5-0.9c-0.1,0.2-0.1,0.5-0.1,0.7c-0.6-0.5-0.9-1.3-0.8-2
					s0.4-1.5,1-2c-0.8,0-1.5,0.5-1.9,1.1c0.1-0.7,0.4-1.4,1-1.8c-0.6,0-1.1,0.3-1.6,0.7c0.3-0.7,0.8-1.4,1.6-1.7
					c0.7-0.3,1.6-0.3,2.3,0c-0.1-0.5-0.4-0.9-0.9-1.1c0.5,0.1,0.9,0.3,1.3,0.5c0.4,0.3,0.7,0.7,0.6,1.2c0.4-0.4,1-0.6,1.6-0.6
					C21,10.8,20.7,10.9,20.4,11.1z"/>
			</g>
		</g>
	</g>
</g>
</svg>
