<?xml version="1.0" encoding="utf-8"?>
<!-- Generator: Adobe Illustrator 18.0.0, SVG Export Plug-In . SVG Version: 6.00 Build 0)  -->
<!DOCTYPE svg PUBLIC "-//W3C//DTD SVG 1.1//EN" "http://www.w3.org/Graphics/SVG/1.1/DTD/svg11.dtd">
<svg version="1.1" id="Layer_1" xmlns="http://www.w3.org/2000/svg" xmlns:xlink="http://www.w3.org/1999/xlink" x="0px" y="0px"
	 viewBox="0 0 36 36" enable-background="new 0 0 36 36" xml:space="preserve">
<g>
	<g>
		<g>
			<g>
				<path fill="#FFBBD0" d="M30.8,21C32,28.6,24.7,34,18,34c-6.7,0-14-5.4-12.8-13C6.8,13.5,11,7.7,18,7.7C25,7.7,29.2,13.5,30.8,21
					z"/>
			</g>
		</g>
	</g>
	<g>
		<g>
			<g>
				<g>
					<g>
						<g>
							<path fill="#FC97B2" d="M28.7,14.8c-1,0.4-2.1,0.5-3.1,0.1c-0.5-0.2-1.1-0.4-1.4-0.8c-0.3-0.4-0.4-1-0.4-1.5
								c0-0.6,0.1-1.3,0.4-1.8c0.4-0.9,1.2-1.5,1.7-2.3c1.4-1.9,1.4-4.8,3.6-6.3c0.1,0,0.1-0.1,0.2-0.1C29.9,2,30,2.1,30,2.2
								c0.9,1.2,1.9,2.8,2.4,4.4C33,8.2,33,10,32.2,11.4C31.4,12.8,30.1,14.1,28.7,14.8z"/>
						</g>
					</g>
				</g>
				<g>
					<g>
						<g>
							<path fill="#E88EA7" d="M27.3,14c1.4-0.7,4.3-1.5,5.1-2.9c0.1-0.3,0.2-0.4,0.3-0.8c-0.8,0.5-2.1,1.2-3.5,1.4
								c-2,0.3-2.3,0.5-2-0.5c0.4-0.9,1.7-5.2,1.1-7.8c-0.4,0.3-2,5.3-2,5.3C26.4,8.7,24.5,13.6,27.3,14z"/>
						</g>
					</g>
				</g>
				<g>
					<g>
						<g>
							<path fill="#FFBBD0" d="M31.6,11.5c0.3-0.1,0.5-0.3,0.8-0.5c-0.1,0.1-0.1,0.3-0.2,0.4c-0.8,1.4-2.1,2.7-3.5,3.4
								c-1,0.4-2.1,0.5-3.1,0.1c-0.5-0.2-1.1-0.4-1.4-0.8c-0.3-0.4-0.4-1-0.4-1.5c0-0.6,0.1-1.3,0.4-1.8c0.4-0.9,1.2-1.5,1.7-2.3
								c1-1.4,1.3-3.4,2.3-4.9c-0.3,0.7-0.3,1.5-0.4,2.3c-0.1,1-0.2,2.1-0.6,3c-0.4,0.8-1.1,1.5-1.3,2.4c-0.2,0.7-0.2,2.2,0.6,2.4
								c0.4,0.1,0.9-0.3,1.2-0.4c0.6-0.2,1.2-0.5,1.8-0.7C30.2,12.1,30.9,11.9,31.6,11.5z"/>
						</g>
					</g>
				</g>
			</g>
		</g>
		<g>
			<g>
				<g>
					<g>
						<g>
							<path fill="#FC97B2" d="M7.3,14.8c1,0.4,2.1,0.5,3.1,0.1c0.5-0.2,1.1-0.4,1.4-0.8c0.3-0.4,0.4-1,0.4-1.5
								c0-0.6-0.1-1.3-0.4-1.8c-0.4-0.9-1.2-1.5-1.7-2.3C8.6,6.4,8.6,3.5,6.5,2.1C6.4,2.1,6.3,2,6.3,2C6.1,2,6,2.1,6,2.2
								C5,3.4,4.1,4.9,3.5,6.6C3,8.2,3,10,3.8,11.4C4.6,12.8,5.9,14.1,7.3,14.8z"/>
						</g>
					</g>
				</g>
				<g>
					<g>
						<g>
							<path fill="#E88EA7" d="M8.7,14c-1.4-0.7-4.3-1.5-5.1-2.9c-0.1-0.3-0.2-0.4-0.3-0.8c0.8,0.5,2.1,1.2,3.5,1.4
								c2,0.3,2.3,0.5,2-0.5C8.4,10.3,7.1,6,7.7,3.3c0.4,0.3,2,5.3,2,5.3C9.6,8.7,11.5,13.6,8.7,14z"/>
						</g>
					</g>
				</g>
				<g>
					<g>
						<g>
							<path fill="#FFBBD0" d="M4.4,11.5c-0.3-0.1-0.5-0.3-0.8-0.5c0.1,0.1,0.1,0.3,0.2,0.4c0.8,1.4,2.1,2.7,3.5,3.4
								c1,0.4,2.1,0.5,3.1,0.1c0.5-0.2,1.1-0.4,1.4-0.8c0.3-0.4,0.4-1,0.4-1.5c0-0.6-0.1-1.3-0.4-1.8c-0.4-0.9-1.2-1.5-1.7-2.3
								C9,6.9,8.7,5,7.8,3.5C8.1,4.1,8.1,5,8.2,5.7c0.1,1,0.2,2.1,0.6,3c0.4,0.8,1.1,1.5,1.3,2.4c0.2,0.7,0.2,2.2-0.6,2.4
								c-0.4,0.1-0.9-0.3-1.2-0.4c-0.6-0.2-1.2-0.5-1.8-0.7C5.8,12.1,5.1,11.9,4.4,11.5z"/>
						</g>
					</g>
				</g>
			</g>
		</g>
	</g>
	<g>
		<g>
			<g>
				<g>
					<g>
						<path fill="#FC97B2" d="M23.6,24.8c0,1.2-0.5,2.1-1.2,2.8c-1,0.9-2.4,1-3.7,0.5c-0.4-0.1-0.9-0.1-1.3,0
							c-1.3,0.4-2.7,0.4-3.7-0.5c-0.7-0.7-1.2-1.6-1.2-2.8c0-2.8,2.5-5.1,5.6-5.1C21.1,19.7,23.6,22,23.6,24.8z"/>
					</g>
				</g>
			</g>
			<g opacity="0.6">
				<g>
					<g>
						<path fill="#F281A4" d="M23.6,24.8c0,1.2-0.5,2.1-1.2,2.8c-1,0.9-2.4,1-3.7,0.5c-0.4-0.1-0.9-0.1-1.3,0
							c-1.3,0.4-2.7,0.4-3.7-0.5c-0.7-0.7-1.2-1.6-1.2-2.8c0-0.1,0-0.1,0-0.2c0,1,0.5,1.8,1.2,2.4c1,0.8,2.4,0.9,3.7,0.5
							c0.4-0.1,0.9-0.1,1.3,0c1.3,0.4,2.7,0.3,3.7-0.5c0.7-0.6,1.2-1.4,1.2-2.4C23.6,24.7,23.6,24.8,23.6,24.8z"/>
					</g>
				</g>
			</g>
			<g>
				<g>
					<g>
						<g>
							<g>
								
									<ellipse transform="matrix(0.9408 0.339 -0.339 0.9408 9.1944 -3.708)" fill="#F281A4" cx="15.2" cy="24.5" rx="1.3" ry="2.1"/>
							</g>
						</g>
					</g>
					<g>
						<g>
							<g>
								<path fill="#E56A96" d="M16.5,24.9c0,0.1-0.1,0.1-0.1,0.2c0.2-0.8,0-1.5-0.5-1.6c-0.5-0.2-1.2,0.3-1.5,1.2
									c-0.3,0.8-0.1,1.5,0.3,1.8c0,0-0.1,0-0.1,0c-0.7-0.3-0.9-1.3-0.6-2.4c0.4-1.1,1.3-1.7,2-1.5C16.6,22.8,16.8,23.8,16.5,24.9z
									"/>
							</g>
						</g>
					</g>
				</g>
				<g>
					<g>
						<g>
							<g>
								
									<ellipse transform="matrix(-0.9408 0.339 -0.339 -0.9408 48.6631 40.4213)" fill="#F281A4" cx="20.8" cy="24.5" rx="1.3" ry="2.1"/>
							</g>
						</g>
					</g>
					<g>
						<g>
							<g>
								<path fill="#E56A96" d="M19.6,24.9c0,0.1,0.1,0.1,0.1,0.2c-0.2-0.8,0-1.5,0.5-1.6c0.5-0.2,1.2,0.3,1.5,1.2
									c0.3,0.8,0.1,1.5-0.3,1.8c0,0,0.1,0,0.1,0c0.7-0.3,0.9-1.3,0.6-2.4c-0.4-1.1-1.3-1.7-2-1.5C19.4,22.8,19.2,23.8,19.6,24.9z"
									/>
							</g>
						</g>
					</g>
				</g>
			</g>
		</g>
		<g opacity="0.2">
			<g>
				<g>
					<path fill="#FFFFFF" d="M19.7,21.2c0,0.5-0.8,0.3-1.7,0.3s-1.7,0.3-1.7-0.3s0.8-1,1.7-1S19.7,20.7,19.7,21.2z"/>
				</g>
			</g>
		</g>
	</g>
	<g>
		<g>
			<g>
				<g>
					<g>
						<g>
							<path fill="#FC97B2" d="M25.9,17c0.1,2.2-1.2,4-2.7,4c-1.6,0-2.9-1.8-3-4s1.2-4,2.7-4C24.5,12.9,25.8,14.7,25.9,17z"/>
						</g>
					</g>
				</g>
				<g>
					<g>
						<g>
							<ellipse fill="#FFFFFF" cx="23.2" cy="17.4" rx="2.8" ry="3.6"/>
						</g>
					</g>
				</g>
				<g>
					<g>
						<g>
							<ellipse fill="#65B1EF" cx="23.2" cy="17.9" rx="1.8" ry="2.3"/>
						</g>
					</g>
				</g>
				<g>
					<g>
						<g>
							<ellipse fill="#3E4347" cx="23.2" cy="18.2" rx="1" ry="1.3"/>
						</g>
					</g>
				</g>
			</g>
			<g>
				<g>
					<g>
						<g>
							<path fill="#FFBBD0" d="M27,22.1c-3.4,0.1-5.7-0.5-6.3-2.3C20.7,19.7,24.9,19.4,27,22.1z"/>
						</g>
					</g>
				</g>
				<g>
					<g>
						<g>
							<path fill="#FC97B2" d="M20.7,19.7c0,0,0.4-0.1,1.1-0.1c0.3,0,0.7,0,1.1,0.1c0.4,0.1,0.8,0.2,1.3,0.3
								c0.4,0.2,0.8,0.3,1.2,0.5c1.1,0.7,1.6,1.5,1.6,1.5s-0.1-0.1-0.2-0.2c-0.4-0.5-1-0.8-1.5-1.1c-0.4-0.2-0.8-0.3-1.2-0.5
								c-0.8-0.3-1.7-0.4-2.3-0.5C21.1,19.7,20.7,19.7,20.7,19.7z"/>
						</g>
					</g>
				</g>
			</g>
			<g>
				<g>
					<g>
						<circle fill="#FFFFFF" cx="24" cy="17.4" r="0.5"/>
					</g>
				</g>
			</g>
		</g>
		<g>
			<g>
				<g>
					<g>
						<g>
							<path fill="#FC97B2" d="M10.1,17c-0.1,2.2,1.2,4,2.7,4s2.9-1.8,3-4s-1.2-4-2.7-4S10.2,14.7,10.1,17z"/>
						</g>
					</g>
				</g>
				<g>
					<g>
						<g>
							<ellipse fill="#FFFFFF" cx="12.8" cy="17.4" rx="2.8" ry="3.6"/>
						</g>
					</g>
				</g>
				<g>
					<g>
						<g>
							<ellipse fill="#65B1EF" cx="12.8" cy="17.9" rx="1.8" ry="2.3"/>
						</g>
					</g>
				</g>
				<g>
					<g>
						<g>
							<ellipse fill="#3E4347" cx="12.8" cy="18.2" rx="1" ry="1.3"/>
						</g>
					</g>
				</g>
			</g>
			<g>
				<g>
					<g>
						<g>
							<path fill="#FFBBD0" d="M9,22.1c3.4,0.1,5.7-0.5,6.3-2.3C15.3,19.7,11.1,19.4,9,22.1z"/>
						</g>
					</g>
				</g>
				<g>
					<g>
						<g>
							<path fill="#FC97B2" d="M15.3,19.7c0,0-0.4,0-1.1,0.1c-0.6,0.1-1.5,0.2-2.3,0.5c-0.4,0.1-0.8,0.3-1.2,0.5
								c-1.3,0.7-1,0.6-1.8,1.3c0,0,0.5-0.9,1.6-1.5c0.4-0.2,0.8-0.4,1.2-0.5c0.4-0.1,0.9-0.2,1.3-0.3c0.4-0.1,0.8-0.1,1.1-0.1
								C14.9,19.6,15.3,19.7,15.3,19.7z"/>
						</g>
					</g>
				</g>
			</g>
			<g>
				<g>
					<g>
						<circle fill="#FFFFFF" cx="12" cy="17.4" r="0.5"/>
					</g>
				</g>
			</g>
		</g>
	</g>
	<g>
		<g>
			<g>
				<g>
					<g>
						<path fill="#FC97B2" d="M28.5,27.2c-0.8,0.2-1.2,0.3-2-0.2c-1.3,2.7-4.5,4.8-8.5,4.9c-4.2-0.1-7.3-2.5-8.5-4.9
							c-0.8,0.5-1.2,0.4-2,0.2c0.9,0,1.7-0.2,2.3-0.9c0.6-0.7,0.7-1.5,0.5-2.4c0.4,0.6,0.5,1.8-0.3,2.6c-0.2,0.2-0.3,0.3-0.5,0.5
							c1.9,2.9,5.3,4.4,8.5,4.4c3.2,0,6.6-1.6,8.5-4.4c-0.2-0.1-0.4-0.3-0.5-0.5c-0.7-0.9-0.7-2-0.2-2.6c-0.1,0.9-0.2,1.7,0.5,2.4
							C26.8,27,27.6,27.2,28.5,27.2z"/>
					</g>
				</g>
			</g>
		</g>
	</g>
	<g>
		<g>
			<g>
				<g>
					<path fill="#3E4347" d="M25,12.6c-1-1.6-2.4-2-4.1-1.1C20.9,11.5,23.1,11.2,25,12.6z"/>
				</g>
			</g>
		</g>
		<g>
			<g>
				<g>
					<path fill="#3E4347" d="M11,12.6c1-1.6,2.4-2,4.1-1.1C15.1,11.5,12.9,11.2,11,12.6z"/>
				</g>
			</g>
		</g>
	</g>
</g>
</svg>
