<?xml version="1.0" encoding="utf-8"?>
<!-- Generator: Adobe Illustrator 18.0.0, SVG Export Plug-In . SVG Version: 6.00 Build 0)  -->
<!DOCTYPE svg PUBLIC "-//W3C//DTD SVG 1.1//EN" "http://www.w3.org/Graphics/SVG/1.1/DTD/svg11.dtd">
<svg version="1.1" id="Layer_1" xmlns="http://www.w3.org/2000/svg" xmlns:xlink="http://www.w3.org/1999/xlink" x="0px" y="0px"
	 viewBox="0 0 36 36" enable-background="new 0 0 36 36" xml:space="preserve">
<g>
	<g>
		<g>
			<g>
				<g>
					<g>
						<path fill="#8F6D52" d="M3.4,4.8c-1.8,1.8-1.8,4.7,0,6.5S9,14,10.8,12.2s0.9-5.6-0.9-7.4S5.2,3,3.4,4.8z"/>
					</g>
				</g>
			</g>
			<g>
				<g>
					<g>
						
							<ellipse transform="matrix(-0.7071 -0.7071 0.7071 -0.7071 4.6616 18.8996)" fill="#846144" cx="6.2" cy="8.5" rx="3.4" ry="3.2"/>
					</g>
				</g>
			</g>
			<g>
				<g>
					<g>
						<path fill="#7C593E" d="M3.9,6.1C3.7,6.3,3.5,6.5,3.4,6.7c1.2-0.8,2.9-0.6,4.1,0.6c1.1,1.1,1.3,2.8,0.6,4.1
							c0.2-0.1,0.4-0.3,0.6-0.4c1.2-1.2,1.2-3.3-0.1-4.6C7.2,4.9,5.1,4.9,3.9,6.1z"/>
					</g>
				</g>
			</g>
		</g>
		<g>
			<g>
				<g>
					<g>
						<path fill="#8F6D52" d="M32.6,4.8c1.8,1.8,1.8,4.7,0,6.5S27,14,25.2,12.2s-0.9-5.6,0.9-7.4C27.9,3,30.8,3,32.6,4.8z"/>
					</g>
				</g>
			</g>
			<g>
				<g>
					<g>
						
							<ellipse transform="matrix(0.7071 -0.7071 0.7071 0.7071 2.7155 23.5247)" fill="#846144" cx="29.8" cy="8.5" rx="3.4" ry="3.2"/>
					</g>
				</g>
			</g>
			<g>
				<g>
					<g>
						<path fill="#7C593E" d="M32.1,6.1c0.2,0.2,0.3,0.4,0.4,0.6c-1.2-0.8-2.9-0.6-4.1,0.6c-1.1,1.1-1.3,2.8-0.6,4.1
							c-0.2-0.1-0.4-0.3-0.6-0.4c-1.2-1.2-1.2-3.3,0.1-4.6C28.8,4.9,30.9,4.9,32.1,6.1z"/>
					</g>
				</g>
			</g>
		</g>
	</g>
	<g>
		<g>
			<g>
				<path fill="#8F6D52" d="M21,31.3c-0.8,0.5-1.8,0.8-3,0.8c-1.2,0-2.3-0.3-3-0.8C6.3,30.5,2.7,24.9,4.4,16.8
					C5.6,9.6,10.4,6.3,18,6.4c7.7-0.1,12.4,3.2,13.6,10.4C33.3,24.9,29.7,30.5,21,31.3z"/>
			</g>
		</g>
	</g>
	<g>
		<g>
			<g>
				<path fill="#846144" d="M31.6,24.5c-1.2,3.5-3.5,4.9-5.2,5.8c-1.8,0.7-2.3,1-5.2,1.4c-0.7,0.4-1.5,0.7-2.3,0.8
					c-1.3,0.2-2.8-0.1-4-0.8c-1.2-0.2-4.9-0.5-7.8-3.1c-1.5-1.2-2.6-3.4-2.9-5.3c-0.3-2.6-0.2-3.3,0-4.8C4.1,20,4,20.9,4.5,23.3
					c0.4,1.7,1.5,3.8,3,4.9c2.1,1.8,4.9,2.6,7.6,2.8c1,0.7,2.4,0.9,3.6,0.7c0.8-0.1,1.5-0.3,2.2-0.7c2.5-0.2,3.8-0.7,5.2-1.3
					c2.3-1.2,3.9-2.4,5.1-5.3c0.5-1.8,0.8-2.2,0.7-5.9C32.1,20.3,32.4,21.7,31.6,24.5z"/>
			</g>
		</g>
	</g>
	<g>
		<g>
			<g>
				<g>
					<g>
						<path fill="#3E4347" d="M27.4,17.1c0,2.3-1.3,3.1-3,3.1c-1.6,0-3-0.8-3-3.1s0.6-4.7,2.2-4.7S27.4,14.8,27.4,17.1z"/>
					</g>
				</g>
			</g>
			<g>
				<g>
					<g>
						<g>
							<path fill="#FFFFFF" d="M27.3,17.5c0,2.2-1.3,2.9-2.9,2.9c-1.6,0-2.9-0.7-2.9-2.9s0.5-4.4,2.1-4.4S27.3,15.3,27.3,17.5z"/>
						</g>
					</g>
				</g>
				<g>
					<g>
						<g>
							<g>
								<ellipse fill="#65B1EF" cx="24.1" cy="17.4" rx="1.9" ry="2.3"/>
							</g>
						</g>
					</g>
					<g>
						<g>
							<g>
								<ellipse fill="#3E4347" cx="24.1" cy="17.7" rx="1.1" ry="1.3"/>
							</g>
						</g>
					</g>
					<g>
						<g>
							<g>
								<circle fill="#FFFFFF" cx="24.9" cy="16.8" r="0.4"/>
							</g>
						</g>
					</g>
				</g>
			</g>
		</g>
		<g>
			<g>
				<g>
					<g>
						<path fill="#3E4347" d="M8.6,17.1c0,2.3,1.3,3.1,3,3.1s3-0.8,3-3.1s-0.6-4.7-2.2-4.7S8.6,14.8,8.6,17.1z"/>
					</g>
				</g>
			</g>
			<g>
				<g>
					<g>
						<g>
							<path fill="#FFFFFF" d="M8.7,17.5c0,2.2,1.3,2.9,2.9,2.9s2.9-0.7,2.9-2.9s-0.5-4.4-2.1-4.4S8.7,15.3,8.7,17.5z"/>
						</g>
					</g>
				</g>
				<g>
					<g>
						<g>
							<g>
								<ellipse fill="#65B1EF" cx="11.9" cy="17.4" rx="1.9" ry="2.3"/>
							</g>
						</g>
					</g>
					<g>
						<g>
							<g>
								<ellipse fill="#3E4347" cx="11.9" cy="17.7" rx="1.1" ry="1.3"/>
							</g>
						</g>
					</g>
					<g>
						<g>
							<g>
								<circle fill="#FFFFFF" cx="12.7" cy="16.8" r="0.4"/>
							</g>
						</g>
					</g>
				</g>
			</g>
		</g>
	</g>
	<g>
		<g>
			<g>
				<g>
					<circle fill="#FFD68D" cx="18" cy="27" r="3.7"/>
				</g>
			</g>
		</g>
		<g>
			<g>
				<g>
					<path fill="#FFD68D" d="M22.5,25.9c-0.2,1.1-0.7,1.9-1.7,2.5c-0.9,0.5-2,0.4-2.8-0.4l0,0c-0.7,0.7-1.8,0.9-2.6,0.5
						c-1.1-0.5-1.6-1.4-1.9-2.6v0c-0.6-3.1,1.6-8.5,4.5-8.5C20.9,17.4,23.1,22.8,22.5,25.9z"/>
				</g>
			</g>
		</g>
		<g>
			<g>
				<g>
					<g>
						<g>
							<path fill="#3E4347" d="M22.6,25.9c0,0.6-0.2,1.3-0.7,1.9c-0.9,1.1-2,1.3-3.1,0.8c-0.3-0.1-0.6-0.3-0.8-0.5
								c-0.2,0.2-0.5,0.5-0.8,0.6c-1.2,0.6-2.3,0.2-3.1-0.9c-0.4-0.5-0.6-1.3-0.7-1.9c0.1,0.6,0.4,1.3,0.8,1.7
								c0.7,0.8,1.7,1.2,2.8,0.7c0.6-0.3,0.8-0.7,0.8-1.2v-1.6h0.4v1.5c0,0.6,0.3,1,0.8,1.2c1,0.6,2,0.3,2.8-0.6
								C22.2,27.2,22.5,26.5,22.6,25.9z"/>
						</g>
					</g>
				</g>
			</g>
		</g>
		<g>
			<g>
				<g>
					<g>
						<g>
							<path fill="#3E4347" d="M20.9,24.3c0,0.8-0.6,1.4-1.3,2c-0.9,0.7-2.2,0.7-3.1,0c-0.7-0.5-1.3-1.2-1.3-2
								c0-1.6,1.3-2.1,2.9-2.1C19.6,22.2,20.9,22.7,20.9,24.3z"/>
						</g>
					</g>
				</g>
				<g>
					<g>
						<g>
							<path fill="#31373A" d="M20.9,24.3c0,0.8-0.6,1.4-1.3,2c-0.9,0.7-2.2,0.7-3.1,0c-0.7-0.5-1.3-1.2-1.3-2c0.5,0.6,1.5,1,2.6,1
								c1.6,0,2.9-0.8,2.9-1.8c0-0.1,0-0.2-0.1-0.4C20.8,23.5,20.9,23.9,20.9,24.3z"/>
						</g>
					</g>
				</g>
			</g>
			<g opacity="0.1">
				<g>
					<g>
						<path fill="#FFFFFF" d="M19.3,23.2c0,0.3-0.6,0.1-1.3,0.1s-1.3,0.2-1.3-0.1c0-0.3,0.6-0.6,1.3-0.6S19.3,22.8,19.3,23.2z"/>
					</g>
				</g>
			</g>
		</g>
	</g>
</g>
</svg>
