<?xml version="1.0" encoding="utf-8"?>
<!-- Generator: Adobe Illustrator 18.0.0, SVG Export Plug-In . SVG Version: 6.00 Build 0)  -->
<!DOCTYPE svg PUBLIC "-//W3C//DTD SVG 1.1//EN" "http://www.w3.org/Graphics/SVG/1.1/DTD/svg11.dtd">
<svg version="1.1" id="Layer_1" xmlns="http://www.w3.org/2000/svg" xmlns:xlink="http://www.w3.org/1999/xlink" x="0px" y="0px"
	 viewBox="0 0 36 36" enable-background="new 0 0 36 36" xml:space="preserve">
<g>
	<g>
		<g>
			<g>
				<g>
					<g>
						<path fill="#BBC7D1" d="M29.2,7.6c-2,2.7-5,3.4-5.6,5.1c-0.5-0.3-0.9-0.6-1.4-0.8C22.3-3.5,33.3,2.4,29.2,7.6z"/>
					</g>
				</g>
			</g>
			<g>
				<g>
					<g>
						<path fill="#ACB9C1" d="M25.2,4.1c1.3-1,3-0.4,3.5,0.7c1,2.7-4.7,6.3-5.3,6.4C22.4,11.1,23.2,5.6,25.2,4.1z"/>
					</g>
				</g>
			</g>
		</g>
		<g>
			<g>
				<g>
					<g>
						<path fill="#BBC7D1" d="M6.8,7.6c2,2.7,5,3.4,5.6,5.1c0.5-0.3,0.9-0.6,1.4-0.8C13.7-3.5,2.7,2.4,6.8,7.6z"/>
					</g>
				</g>
			</g>
			<g>
				<g>
					<g>
						<path fill="#ACB9C1" d="M10.8,4.1c-1.3-1-3-0.4-3.5,0.7c-1,2.7,4.7,6.3,5.3,6.4C13.6,11.1,12.8,5.6,10.8,4.1z"/>
					</g>
				</g>
			</g>
		</g>
	</g>
	<g>
		<g>
			<g>
				<path fill="#BBC7D1" d="M31.9,22.3c0,3.9-3,5.8-5.6,7.7c-2,1.5-4.3,2.4-6.8,2.6c-1.2,0.1-2.5,0.1-3.7-0.1
					c-2.2-0.2-4.4-1.2-6.2-2.5c-2.5-1.9-5.5-3.8-5.5-7.7c0-3.1,1-3.8,3.5-9.1c4.5-9.7,16.4-9.7,20.9,0
					C30.8,18.4,31.9,19.1,31.9,22.3z"/>
			</g>
		</g>
	</g>
	<g>
		<g>
			<g>
				<circle fill="#BBC7D1" cx="18" cy="27.9" r="6.1"/>
			</g>
		</g>
	</g>
	<g>
		<g>
			<g>
				<g>
					<g>
						<g>
							<path fill="#5A5F63" d="M10.5,17c0,2.2,1.2,4,2.8,4c1.6,0,2.9-1.8,3-4c0-2.2-1.2-4-2.8-4C11.8,13,10.5,14.8,10.5,17z"/>
						</g>
					</g>
				</g>
				<g>
					<g>
						<g>
							<path fill="#FFFFFF" d="M10.6,17.5c0,2,1.3,3.6,2.9,3.6c1.6,0,2.9-1.6,2.9-3.6c0-2-1.3-3.6-2.9-3.6
								C11.8,13.8,10.6,15.5,10.6,17.5z"/>
						</g>
					</g>
				</g>
				<g>
					<g>
						<g>
							<g>
								<path fill="#65B1EF" d="M11.5,18c0,1.3,0.8,2.4,1.9,2.4c1,0,1.9-1.1,1.9-2.4c0-1.3-0.9-2.4-1.9-2.4
									C12.4,15.6,11.5,16.7,11.5,18z"/>
							</g>
						</g>
					</g>
					<g>
						<g>
							<g>
								<ellipse fill="#3E4347" cx="13.4" cy="18.5" rx="1.1" ry="1.3"/>
							</g>
						</g>
					</g>
					<g>
						<g>
							<g>
								<path fill="#FFFFFF" d="M12.1,17.7c0,0.2,0.2,0.4,0.4,0.4c0.2,0,0.4-0.2,0.4-0.4s-0.2-0.4-0.4-0.4
									C12.3,17.3,12.1,17.5,12.1,17.7z"/>
							</g>
						</g>
					</g>
				</g>
			</g>
			<g>
				<g>
					<g>
						<path fill="#5A5F63" d="M9.4,14.9c1.9-3.4,4.4-3.7,5.1-3.6C11.8,10.4,10.2,11.9,9.4,14.9z"/>
					</g>
				</g>
			</g>
		</g>
		<g>
			<g>
				<g>
					<g>
						<g>
							<path fill="#5A5F63" d="M25.5,17c0,2.2-1.2,4-2.8,4c-1.6,0-2.9-1.8-3-4c0-2.2,1.2-4,2.8-4C24.2,13,25.5,14.8,25.5,17z"/>
						</g>
					</g>
				</g>
				<g>
					<g>
						<g>
							<path fill="#FFFFFF" d="M25.4,17.5c0,2-1.3,3.6-2.9,3.6c-1.6,0-2.9-1.6-2.9-3.6c0-2,1.3-3.6,2.9-3.6
								C24.2,13.8,25.4,15.5,25.4,17.5z"/>
						</g>
					</g>
				</g>
				<g>
					<g>
						<g>
							<g>
								<path fill="#65B1EF" d="M24.5,18c0,1.3-0.8,2.4-1.9,2.4c-1,0-1.9-1.1-1.9-2.4c0-1.3,0.9-2.4,1.9-2.4
									C23.6,15.6,24.5,16.7,24.5,18z"/>
							</g>
						</g>
					</g>
					<g>
						<g>
							<g>
								<ellipse fill="#3E4347" cx="22.6" cy="18.5" rx="1.1" ry="1.3"/>
							</g>
						</g>
					</g>
					<g>
						<g>
							<g>
								<path fill="#FFFFFF" d="M23.9,17.7c0,0.2-0.2,0.4-0.4,0.4S23,18,23,17.7s0.2-0.4,0.4-0.4S23.9,17.5,23.9,17.7z"/>
							</g>
						</g>
					</g>
				</g>
			</g>
			<g>
				<g>
					<g>
						<path fill="#5A5F63" d="M26.6,14.9c-1.9-3.4-4.4-3.7-5.1-3.6C24.2,10.4,25.8,11.9,26.6,14.9z"/>
					</g>
				</g>
			</g>
		</g>
	</g>
	<g>
		<g>
			<g>
				<g>
					<g>
						<path fill="#E9EFF4" d="M27.3,27.4c0,1.6-0.6,3-1.6,4.2c-1.6,1.9-3.8,2.1-5.8,1.2c-0.6-0.3-1.2-0.4-1.9-0.4
							c-0.7,0-1.3,0.1-1.9,0.4c-2,0.9-4.2,0.7-5.8-1.2c-1-1.2-1.6-2.7-1.6-4.2c0-4.2,4.1-5,9.3-5C23.1,22.4,27.3,23.2,27.3,27.4z"/>
					</g>
				</g>
			</g>
		</g>
		<g>
			<g>
				<g>
					<g>
						<path fill="#5A5F63" d="M21.2,24.7c-0.2-2.1-1.7-6.9-3.2-6.9s-3,4.8-3.2,6.9c-0.2,2.4,1.3,2.9,3.2,2.9
							C19.9,27.5,21.3,27.1,21.2,24.7z"/>
					</g>
				</g>
			</g>
			<g>
				<g>
					<g>
						<path fill="#3E4347" d="M20.1,22.3c0.5,2.5-1.6,4.7-3.4,4.3c-1.2-0.3-1.7-1-1.9-1.8c-0.1,2.2,1.4,2.7,3.2,2.7
							c1.9,0,3.3-0.5,3.2-2.9c-0.1-1.5-1-4.6-2-6C19.5,19.7,19.9,21.2,20.1,22.3z"/>
					</g>
				</g>
			</g>
		</g>
		<g>
			<g>
				<g>
					<g>
						<g>
							<path fill="#E9EFF4" d="M25.5,27c-1.2,1.2-3.3,1.9-4.1,1.1s-0.1-2.9,1.1-4.1c1.2-1.2,2.4-1,3.2-0.2S26.7,25.8,25.5,27z"/>
						</g>
					</g>
				</g>
				<g>
					<g>
						<g>
							<g>
								<path fill="#5A5F63" d="M24.6,26.5c-0.6,0.6-1.9,0.9-2.2,0.7c-0.2-0.2,0-1.5,0.7-2.2c0.6-0.6,1.3-0.6,1.7-0.2
									C25.2,25.3,25.3,25.9,24.6,26.5z"/>
							</g>
						</g>
					</g>
					<g>
						<g>
							<g>
								<path fill="#3E4347" d="M24.7,26.4c0-0.2-0.1-0.3-0.2-0.4c-0.3-0.3-0.7-0.3-1.1,0.1c-0.3,0.3-0.8,0.8-1,1.1c0,0,0,0,0,0
									c-0.2-0.2,0-1.5,0.7-2.2c0.6-0.6,1.2-0.6,1.7-0.2C25.2,25.2,25.3,25.8,24.7,26.4z"/>
							</g>
						</g>
					</g>
				</g>
				<g>
					<g>
						<g>
							<path fill="#CBD6E0" d="M21.9,24.8c0.6-0.8,0.8-1.3,1.9-1.7c0.9-0.1,1.5,0,2.2,0.7c0.6,0.8,0.6,1.6,0.1,2.5
								c-0.1,0.2-0.3,0.4-0.5,0.6c0.1-0.2,0.3-0.5,0.4-0.6c0.3-0.8,0.3-1.5-0.3-2.2c-0.6-0.7-1.1-0.7-1.8-0.6
								C22.6,23.8,22.6,24,21.9,24.8z"/>
						</g>
					</g>
				</g>
			</g>
			<g>
				<g>
					<g>
						<g>
							<path fill="#E9EFF4" d="M10.5,27c1.2,1.2,3.3,1.9,4.1,1.1c0.8-0.8,0.1-2.9-1.1-4.1c-1.2-1.2-2.4-1-3.2-0.2
								C9.4,24.6,9.3,25.8,10.5,27z"/>
						</g>
					</g>
				</g>
				<g>
					<g>
						<g>
							<g>
								<path fill="#5A5F63" d="M11.4,26.5c0.6,0.6,1.9,0.9,2.2,0.7c0.2-0.2,0-1.5-0.7-2.2s-1.3-0.6-1.7-0.2S10.7,25.9,11.4,26.5z"
									/>
							</g>
						</g>
					</g>
					<g>
						<g>
							<g>
								<path fill="#3E4347" d="M11.2,26.4c0-0.2,0.1-0.3,0.2-0.4c0.3-0.3,0.7-0.3,1.1,0.1c0.3,0.3,0.8,0.8,1,1.1c0,0,0,0,0,0
									c0.2-0.2,0-1.5-0.7-2.2c-0.6-0.6-1.2-0.6-1.7-0.2C10.8,25.2,10.7,25.8,11.2,26.4z"/>
							</g>
						</g>
					</g>
				</g>
				<g>
					<g>
						<g>
							<path fill="#CBD6E0" d="M14.1,24.8c-0.8-0.9-0.7-0.9-2-1.4c-0.2,0-0.4-0.1-0.7,0c-0.6,0-1.3,0.5-1.5,1.2
								c-0.2,0.7-0.3,1.2,0.4,2.3c-0.7-0.7-1-1.4-0.7-2.4c0.3-0.8,1-1.4,1.8-1.4C12.2,22.9,13.2,23.3,14.1,24.8z"/>
						</g>
					</g>
				</g>
			</g>
		</g>
	</g>
</g>
</svg>
