<?xml version="1.0" encoding="utf-8"?>
<!-- Generator: Adobe Illustrator 18.0.0, SVG Export Plug-In . SVG Version: 6.00 Build 0)  -->
<!DOCTYPE svg PUBLIC "-//W3C//DTD SVG 1.1//EN" "http://www.w3.org/Graphics/SVG/1.1/DTD/svg11.dtd">
<svg version="1.1" id="Layer_1" xmlns="http://www.w3.org/2000/svg" xmlns:xlink="http://www.w3.org/1999/xlink" x="0px" y="0px"
	 viewBox="0 0 36 36" enable-background="new 0 0 36 36" xml:space="preserve">
<g>
	<g>
		<g>
			<g>
				<g>
					<g>
						<g>
							<path fill="#5A5F63" d="M25.3,8.3c-0.1,1.8-0.8,2.8-2,3.9c-0.8-0.8-3-1.7-4-2.3c3.6-1.3,4.5-3.9,3.8-6c0-0.1,0-0.2,0.1-0.3
								c0.1,0,0.2,0,0.2,0C24.4,4.8,25.3,6.5,25.3,8.3z"/>
						</g>
					</g>
				</g>
				<g>
					<g>
						<path fill="#3E4347" d="M21.9,11.3c0.6,0.3,1.1,0.6,1.3,0.9c1.2-1.1,1.9-2.1,2-3.9c0-1.8-0.8-3.5-1.9-4.6
							C23.4,3.7,26.3,8.2,21.9,11.3z"/>
					</g>
				</g>
			</g>
			<g>
				<g>
					<g>
						<g>
							<path fill="#5A5F63" d="M10.7,8.3c0.1,1.8,0.8,2.8,2,3.9c0.8-0.8,3-1.7,4-2.3c-3.6-1.3-4.5-3.9-3.8-6c0-0.1,0-0.2-0.1-0.3
								c-0.1,0-0.2,0-0.2,0C11.6,4.8,10.7,6.5,10.7,8.3z"/>
						</g>
					</g>
				</g>
				<g>
					<g>
						<path fill="#3E4347" d="M14.1,11.3c-0.6,0.3-1.1,0.6-1.3,0.9c-1.2-1.1-1.9-2.1-2-3.9c0-1.8,0.8-3.5,1.9-4.6
							C12.6,3.7,9.7,8.2,14.1,11.3z"/>
					</g>
				</g>
			</g>
		</g>
		<g>
			<g>
				<g>
					<g>
						<g>
							<g>
								<path fill="#DAE5EF" d="M34,15.5c-1.7-3.1-6.3-5-12.9-2C22.1,16.2,31.6,20.9,34,15.5z"/>
							</g>
						</g>
					</g>
					<g>
						<g>
							<g>
								<g>
									<path fill="#FC97B2" d="M23.8,14.3c0.6,1.9,7.1,5,9.1,1.3C30.3,13.2,27.2,13,23.8,14.3z"/>
								</g>
							</g>
						</g>
						<g>
							<g>
								<g>
									<path fill="#E88EA7" d="M23.8,14.3c0.2,0.6,0.9,1.2,1.9,1.8c-0.2-0.4-0.1-1.1,0.2-1.5c0.9-1.1,3.1-1.1,4.5-0.3
										c0.8,0.5,1.5,1.1,2.2,1.7c0.1-0.1,0.2-0.3,0.3-0.5C30.3,13.2,27.2,13,23.8,14.3z"/>
								</g>
							</g>
						</g>
					</g>
				</g>
				<g>
					<g>
						<g>
							<g>
								<path fill="#DAE5EF" d="M2,15.5c1.7-3.1,6.3-5,12.9-2C13.9,16.2,4.4,20.9,2,15.5z"/>
							</g>
						</g>
					</g>
					<g>
						<g>
							<g>
								<g>
									<path fill="#FC97B2" d="M12.2,14.3c-0.6,1.9-7.1,5-9.1,1.3C5.7,13.2,8.8,13,12.2,14.3z"/>
								</g>
							</g>
						</g>
						<g>
							<g>
								<g>
									<path fill="#E88EA7" d="M12.2,14.3c-0.2,0.6-0.9,1.2-1.9,1.8c0.2-0.4,0.1-1.1-0.2-1.5c-0.9-1.1-3.1-1.1-4.5-0.3
										c-0.8,0.5-1.5,1.1-2.2,1.7c-0.1-0.1-0.2-0.3-0.3-0.5C5.7,13.2,8.8,13,12.2,14.3z"/>
								</g>
							</g>
						</g>
					</g>
				</g>
			</g>
			<g>
				<g>
					<g>
						<g>
							<g>
								<path fill="#DAE5EF" d="M20.3,29.2C19.8,29.7,18.9,30,18,30c-0.9,0-1.8-0.3-2.3-0.8c-4.1-0.6-8.2-3.9-8-7
									C7.8,21.5,8,21,8.3,20.5c0.9-1.4,1.6-3,1.9-4.9C10.9,12.1,13.3,9,18,9c4.7,0,7.1,3.1,7.7,6.6c0.3,1.8,1,3.4,1.9,4.8
									c0.3,0.5,0.5,1,0.6,1.7C28.4,25.3,24.3,28.6,20.3,29.2z"/>
							</g>
						</g>
					</g>
				</g>
				<g>
					<g>
						<g>
							<g>
								<path fill="#CBD6E0" d="M28.2,22.7c-0.1,0.8,0,1.2-1,2.7c-0.6,1-2.5,2.7-4.3,3.4c-0.9,0.4-1.6,0.6-2.5,0.7
									c-0.7,0.6-1.5,0.8-2.4,0.8c-0.8,0-1.7-0.2-2.4-0.8c-1-0.2-1.6-0.4-2.5-0.7c-1.8-0.7-3.6-2.3-4.3-3.4c-1-1.5-0.8-1.9-1-2.7
									C8,23.5,8,23.9,9,25.2c0.6,0.8,2.3,2.3,4.3,3.1c1.2,0.5,1.8,0.5,2.6,0.7c0.5,0.5,1.2,0.8,2.1,0.8c0.6,0,1.3,0,2.1-0.8
									c1-0.2,1.4-0.2,2.6-0.7c2-0.7,3.8-2.3,4.3-3.1C28,24,28,23.6,28.2,22.7z"/>
							</g>
						</g>
					</g>
				</g>
			</g>
			<g>
				<g>
					<g>
						<g>
							<path fill="#5A5F63" d="M23.8,14.8c-0.1-0.7-0.5-1.3-1-1.8c-0.4-0.4-0.9-0.6-1.5-0.7c-0.2-0.1-0.5-0.1-0.3-0.3
								C21.5,11.5,24,12,23.8,14.8z"/>
						</g>
					</g>
				</g>
				<g>
					<g>
						<g>
							<path fill="#5A5F63" d="M12.2,14.8c0.1-0.7,0.5-1.3,1-1.8c0.4-0.4,0.9-0.6,1.5-0.7c0.2-0.1,0.5-0.1,0.3-0.3
								C14.5,11.5,12,12,12.2,14.8z"/>
						</g>
					</g>
				</g>
			</g>
			<g>
				<g>
					<g>
						<g>
							<g>
								<g>
									<g>
										<ellipse fill="#5A5F63" cx="21.5" cy="16.3" rx="2" ry="2.6"/>
									</g>
								</g>
							</g>
							<g>
								<g>
									<g>
										<ellipse fill="#FFFFFF" cx="21.5" cy="16.6" rx="2" ry="2.5"/>
									</g>
								</g>
							</g>
							<g>
								<g>
									<g>
										<g>
											<ellipse fill="#65B1EF" cx="21.4" cy="17.1" rx="1.1" ry="1.4"/>
										</g>
									</g>
								</g>
								<g>
									<g>
										<g>
											<ellipse fill="#3E4347" cx="21.4" cy="17.3" rx="0.6" ry="0.8"/>
										</g>
									</g>
								</g>
								<g>
									<g>
										<g>
											<circle fill="#FFFFFF" cx="21.8" cy="16.8" r="0.2"/>
										</g>
									</g>
								</g>
							</g>
						</g>
						<g>
							<g>
								<g>
									<g>
										<ellipse fill="#DAE5EF" cx="21.2" cy="20.2" rx="3.1" ry="2"/>
									</g>
								</g>
							</g>
							<g>
								<g>
									<g>
										<path fill="#CBD6E0" d="M24.1,19.5c-0.4-0.6-1.4-1-2.1-1.1c-1.2-0.3-2.5,0-2.5,0c0.5-0.4,1.5-0.6,2.5-0.4
											C23.3,18.3,24,19,24.1,19.5z"/>
									</g>
								</g>
							</g>
						</g>
					</g>
					<g>
						<g>
							<g>
								<g>
									<g>
										<ellipse fill="#5A5F63" cx="14.5" cy="16.3" rx="2" ry="2.6"/>
									</g>
								</g>
							</g>
							<g>
								<g>
									<g>
										<ellipse fill="#FFFFFF" cx="14.5" cy="16.6" rx="2" ry="2.5"/>
									</g>
								</g>
							</g>
							<g>
								<g>
									<g>
										<g>
											<ellipse fill="#65B1EF" cx="14.6" cy="17.1" rx="1.1" ry="1.4"/>
										</g>
									</g>
								</g>
								<g>
									<g>
										<g>
											<ellipse fill="#3E4347" cx="14.6" cy="17.3" rx="0.6" ry="0.8"/>
										</g>
									</g>
								</g>
								<g>
									<g>
										<g>
											<circle fill="#FFFFFF" cx="14.2" cy="16.8" r="0.2"/>
										</g>
									</g>
								</g>
							</g>
						</g>
						<g>
							<g>
								<g>
									<g>
										<ellipse fill="#DAE5EF" cx="14.8" cy="20.2" rx="3.1" ry="2"/>
									</g>
								</g>
							</g>
							<g>
								<g>
									<g>
										<path fill="#CBD6E0" d="M11.9,19.5c0.1-0.5,0.8-1.2,2.1-1.5c1.1-0.2,2.1,0.1,2.5,0.4c0,0-1.3-0.3-2.5,0
											C13.3,18.5,12.3,19,11.9,19.5z"/>
									</g>
								</g>
							</g>
						</g>
					</g>
				</g>
			</g>
			<g>
				<g>
					<g>
						<g>
							<g>
								<g>
									<g>
										<path fill="#FC97B2" d="M21.9,20.8c-2.5-0.4-5-0.4-7.4,0c-3,0.1-5.2,3.3-4.7,6.8c0,0,0,0,0,0c0.8,5.5,9,5.1,12.9,4
											c1.5-0.4,2.7-1.6,3.2-3.3C27,24.8,24.8,21.3,21.9,20.8z"/>
									</g>
								</g>
							</g>
						</g>
						<g opacity="0.5">
							<g>
								<g>
									<g>
										<path fill="#E88EA7" d="M26.2,26.5c0,0.6-0.1,1.3-0.2,2c-0.5,1.7-1.8,2.9-3.2,3.3c-3.9,1-12.1,1.5-12.9-4c0,0,0,0,0,0
											c-0.1-0.4-0.1-0.8-0.1-1.2c0,0.3,0,0.5,0.1,0.8c0,0,0,0,0,0c0.8,5.2,9,4.7,12.9,3.8c1.4-0.4,2.7-1.5,3.2-3.1
											C26.1,27.4,26.2,26.9,26.2,26.5z"/>
									</g>
								</g>
							</g>
						</g>
						<g>
							<g>
								<g>
									<g>
										<g>
											<path fill="#FC97B2" d="M22.4,21.2c0.9-0.6,1.7-0.6,2.4,0.1c0.7,0.7,0.5,1.6-0.2,2.3c-1.2,1.3-2.9,1.4-4.3,2.3
												C20.4,24,21,22.2,22.4,21.2z"/>
										</g>
									</g>
								</g>
								<g>
									<g>
										<g>
											<path fill="none" d="M24,24.1"/>
										</g>
									</g>
									<g>
										<g>
											<g>
												<path fill="#E88EA7" d="M25.5,22.4c-0.1,0.8-0.9,1.5-1.4,1.7c0.5-0.5,1-1,1-1.7c0.1-0.7-0.7-1.4-1.4-1.4
													c-1.1,0-1.4,0.4-1.9,0.7c0.5-0.6,1-1.1,1.9-1.1C24.8,20.6,25.6,21.6,25.5,22.4z"/>
											</g>
										</g>
									</g>
								</g>
								<g>
									<g>
										<g>
											<g>
												<path fill="#E88EA7" d="M22.4,22c0.6-0.4,1.1-0.4,1.5,0.1c0.4,0.4,0.3,1-0.1,1.5c-0.8,0.8-2.8,1.5-2.8,1.5
													S21.5,22.6,22.4,22z"/>
											</g>
										</g>
									</g>
									<g>
										<g>
											<g>
												<path fill="#D3849B" d="M23.9,23.5c-0.2,0.2-0.6,0.5-1,0.7c0.3-0.2,0.4-0.6,0.1-0.9c-0.3-0.3-0.6-0.3-1-0.1
													c-0.4,0.2-0.7,1-0.8,1.4c0.2-0.7,0.6-2.2,1.3-2.6c0.6-0.4,1.1-0.4,1.6,0.1C24.4,22.5,24.3,23.1,23.9,23.5z"/>
											</g>
										</g>
									</g>
								</g>
							</g>
							<g>
								<g>
									<g>
										<g>
											<path fill="#FC97B2" d="M15.7,25.8c-1.4-0.8-3.1-1-4.3-2.3c-0.7-0.7-0.9-1.6-0.2-2.3c0.7-0.7,1.5-0.7,2.4-0.1
												C15,22.2,15.6,24,15.7,25.8z"/>
										</g>
									</g>
								</g>
								<g>
									<g>
										<g>
											<path fill="none" d="M12,24.1"/>
										</g>
									</g>
									<g>
										<g>
											<g>
												<path fill="#E88EA7" d="M10.6,22.4c0.1,0.8,0.9,1.5,1.4,1.7c-0.5-0.5-1-1-1-1.7c-0.1-0.7,0.7-1.4,1.4-1.4
													c1.1,0,1.4,0.4,1.9,0.7c-0.5-0.6-1-1.1-1.9-1.1C11.2,20.6,10.4,21.6,10.6,22.4z"/>
											</g>
										</g>
									</g>
								</g>
								<g>
									<g>
										<g>
											<g>
												<path fill="#E88EA7" d="M14.9,24.9c0,0-2-0.6-2.8-1.5c-0.4-0.4-0.6-1-0.1-1.5c0.4-0.4,1-0.4,1.5-0.1
													C14.5,22.6,14.9,24.9,14.9,24.9z"/>
											</g>
										</g>
									</g>
									<g>
										<g>
											<g>
												<path fill="#D3849B" d="M12.1,23.5c0.2,0.2,0.6,0.5,1,0.7c-0.3-0.2-0.4-0.6-0.1-0.9c0.3-0.3,0.6-0.3,1-0.1
													c0.4,0.2,0.7,1,0.8,1.4c-0.2-0.7-0.6-2.2-1.3-2.6C13,21.6,12.5,21.6,12,22C11.6,22.5,11.7,23.1,12.1,23.5z"/>
											</g>
										</g>
									</g>
								</g>
							</g>
						</g>
					</g>
				</g>
				<g>
					<g>
						<g>
							<g>
								<g>
									<path fill="#D3849B" d="M14.2,26.6c0,0-0.7,0.1-1.1,0.6c-0.4,0.4-0.6,1.1-0.6,1.1c-0.1-0.4,0-0.9,0.4-1.3
										C13.3,26.6,13.9,26.5,14.2,26.6z"/>
								</g>
							</g>
							<g>
								<g>
									<path fill="#D3849B" d="M23.5,28.3c0,0-0.1-0.7-0.6-1.1c-0.4-0.4-1.1-0.6-1.1-0.6c0.3-0.1,0.9,0,1.3,0.4
										C23.5,27.4,23.6,28,23.5,28.3z"/>
								</g>
							</g>
							<g>
								<g>
									<path fill="#D3849B" d="M22.6,27.5c-0.2,0.3-0.7,0.9-1.1,1.2c-1.1,0.8-2.2,1.1-3.5,1.1c-1.4,0-2.7-0.5-3.5-1.1
										c-0.5-0.3-0.9-0.8-1.1-1.2c0.4,0.4,0.8,0.7,1.3,0.9c0.8,0.5,2.1,0.8,3.3,0.8c1.3,0,2.6-0.4,3.3-0.8
										C21.4,28.4,22.6,27.5,22.6,27.5z"/>
								</g>
							</g>
						</g>
					</g>
				</g>
			</g>
		</g>
	</g>
	<g>
		<g>
			<g>
				<path fill="#5A5F63" d="M24.9,19c0.3,0.4,0.1,0.3-0.1,0.7c-0.3,0.5,0.2,1.1,0.7,0.9c0.3-0.1,0.6-0.4,0.6-1c0-0.3,0-0.7-0.1-1
					C25.8,17.5,24.4,18.4,24.9,19z"/>
			</g>
		</g>
	</g>
	<g>
		<g>
			<g>
				<path fill="#5A5F63" d="M27.5,23.1c-0.4,0.7-0.5,0.2-0.9,0.1c-0.4-0.2-0.8,0.2-0.8-0.5c0-0.2,0.1-0.6,0-0.9
					c-0.1-0.7,0.7-1,1.3-0.6C27.6,21.5,27.9,22.2,27.5,23.1z"/>
			</g>
		</g>
	</g>
	<g>
		<g>
			<g>
				<path fill="#5A5F63" d="M9.3,21.2c0.6-0.5,0.5,0.1,0.6,0.3c0,0.1,0.1,0.1,0.2,0.2c0.2,0.1,0.3,0.4,0.3,0.6c0,0.4-0.1,0.8-0.4,1
					c-0.7,0.6-1.7,0.1-1.7-0.7c0-0.2,0.1-0.3,0.2-0.5C8.4,22.1,9.1,21.3,9.3,21.2z"/>
			</g>
		</g>
	</g>
	<g>
		<g>
			<g>
				<path fill="#5A5F63" d="M10.7,20.4c-0.3,0.1-0.8,0.3-1,0.1c-0.2-0.1-0.2-0.5-0.1-0.8C10,18.5,11.7,20,10.7,20.4z"/>
			</g>
		</g>
	</g>
	<g>
		<g>
			<g>
				<path fill="#5A5F63" d="M19.7,12.4c0.5,0.9,0,1.8-0.7,2.2c-1.6,1.1-1.8-0.8-0.6-1.5C19.1,12.7,19.2,11.4,19.7,12.4z"/>
			</g>
		</g>
	</g>
	<g>
		<g>
			<g>
				<path fill="#5A5F63" d="M17.2,11.9c0.6,0.8-0.5,1.2-1.2,0.6c-0.4-0.3-0.8-0.9-0.8-1.3c0-0.5,0.5-0.9,0.9-0.6
					C16.3,10.8,16.9,11.4,17.2,11.9z"/>
			</g>
		</g>
	</g>
	<g>
		<g>
			<path fill="#5A5F63" d="M18.1,10c0.3-0.5,0.7-0.4,1,0c0.5,0.9-0.1,1.7-0.7,1.5C17.9,11.4,17.6,10.9,18.1,10z"/>
		</g>
	</g>
</g>
</svg>
