<?xml version="1.0" encoding="utf-8"?>
<!-- Generator: Adobe Illustrator 18.0.0, SVG Export Plug-In . SVG Version: 6.00 Build 0)  -->
<!DOCTYPE svg PUBLIC "-//W3C//DTD SVG 1.1//EN" "http://www.w3.org/Graphics/SVG/1.1/DTD/svg11.dtd">
<svg version="1.1" id="Layer_1" xmlns="http://www.w3.org/2000/svg" xmlns:xlink="http://www.w3.org/1999/xlink" x="0px" y="0px"
	 viewBox="0 0 36 36" enable-background="new 0 0 36 36" xml:space="preserve">
<g>
	<g>
		<g>
			<g>
				<g>
					<g>
						<g>
							<g>
								<path fill="#ACB9C1" d="M32.3,15.5c-2.4,2.9-12.6,1.4-9.5-8.2c2-1.6,4.5-2.6,7-3.1c1.9-0.4,2.5-0.3,3.1,1.5
									C34.2,8.9,33.2,14.5,32.3,15.5z"/>
							</g>
						</g>
					</g>
				</g>
				<g>
					<g>
						<g>
							<g>
								<path fill="#FC97B2" d="M30.1,6.7c0.9-0.1,1.1,0.4,0.6,0.8C30.1,8,30,8.4,30.9,8.8c0.7,0.3,1.2,0.7,0.5,1.4
									c-0.5,0.5-1,0.8-0.6,1.8c0.3,0.7,1,1.4,0.7,2.8c-0.5,2.1-3.6,1.6-5.2-0.1c-1.9-2-2.2-5.4-1.4-6.1C26,7.6,28.7,6.8,30.1,6.7z
									"/>
							</g>
						</g>
					</g>
					<g>
						<g>
							<g>
								<path fill="#E88EA7" d="M31.4,10.1c-0.2,0.2-0.5,0.4-0.6,0.6c0-0.4,0.2-0.7,0.3-0.9c0.3-0.5-1.5-0.1-1.4-1.7
									c0-0.5-0.3-0.8-0.9-0.5C28,8,26.8,8.8,26,9.2c1.2,0.2,3,1.3,3,1.3s-1.7-0.7-2.9-0.2c0,0,2,1,2.4,2.2
									c-0.7-0.7-1.8-1.1-2.8-1.2c0.3,1.8,1.3,3.5,2.8,4.6c-0.8-0.2-1.6-0.7-2.1-1.3c-1.9-2-2.2-5.4-1.4-6.1c1.1-1,3.8-1.7,5.2-1.8
									c0.9-0.1,1.1,0.4,0.6,0.8C30.1,8,30,8.4,30.9,8.8C31.6,9.1,32.1,9.5,31.4,10.1z"/>
							</g>
						</g>
					</g>
					<g>
						<g>
							<g>
								<path fill="#D3849B" d="M28.9,10.5c-1.4-0.5-2.9-0.7-4.4,0.2l0.1,0.8c1.7-0.4,3,0.1,3.9,1.1c-0.9-1.2-2.3-1.8-3.7-1.6
									C26,10.2,27.7,10.1,28.9,10.5z"/>
							</g>
						</g>
					</g>
				</g>
			</g>
			<g>
				<g>
					<g>
						<g>
							<g>
								<path fill="#ACB9C1" d="M3.2,15.5c2.4,2.9,12.6,1.4,9.5-8.2c-2-1.6-4.5-2.6-7-3.1C3.7,3.8,3.2,3.9,2.5,5.7
									C1.4,8.9,2.3,14.5,3.2,15.5z"/>
							</g>
						</g>
					</g>
				</g>
				<g>
					<g>
						<g>
							<g>
								<path fill="#FC97B2" d="M5.4,6.7C4.5,6.7,4.3,7.1,4.8,7.5C5.4,8,5.6,8.4,4.7,8.8c-0.7,0.3-1.2,0.7-0.5,1.4
									c0.5,0.5,1,0.8,0.6,1.8c-0.3,0.7-1,1.4-0.7,2.8c0.5,2.1,3.6,1.6,5.2-0.1c1.9-2,2.2-5.4,1.4-6.1C9.5,7.6,6.8,6.8,5.4,6.7z"/>
							</g>
						</g>
					</g>
					<g>
						<g>
							<g>
								<path fill="#E88EA7" d="M4.2,10.1c0.2,0.2,0.5,0.4,0.6,0.6c0-0.4-0.2-0.7-0.3-0.9C4.1,9.4,5.9,9.7,5.8,8.1
									c0-0.5,0.3-0.8,0.9-0.5c0.9,0.4,2,1.2,2.8,1.6c-1.2,0.2-3,1.3-3,1.3s1.7-0.7,2.9-0.2c0,0-2,1-2.4,2.2
									c0.7-0.7,1.8-1.1,2.8-1.2c-0.3,1.8-1.3,3.5-2.8,4.6c0.8-0.2,1.6-0.7,2.1-1.3c1.9-2,2.2-5.4,1.4-6.1c-1.1-1-3.8-1.7-5.2-1.8
									C4.5,6.7,4.3,7.1,4.8,7.5C5.4,8,5.6,8.4,4.7,8.8C3.9,9.1,3.5,9.5,4.2,10.1z"/>
							</g>
						</g>
					</g>
					<g>
						<g>
							<g>
								<path fill="#D3849B" d="M6.6,10.5C8,10,9.5,9.8,11,10.7l-0.1,0.8c-1.7-0.4-3,0.1-3.9,1.1c0.9-1.2,2.3-1.8,3.7-1.6
									C9.5,10.2,7.9,10.1,6.6,10.5z"/>
							</g>
						</g>
					</g>
				</g>
			</g>
		</g>
		<g>
			<g>
				<g>
					<g>
						<g>
							<path fill="#BBC7D1" d="M29.5,18.5c0,3.7-3.3,5.7-5.3,6.2c-3.2,0.7-9.8,0.7-13,0c-2-0.5-5.3-2.6-5.3-6.2c0-2,1.2-3.7,2.9-4.7
								c-0.1-4,2.4-7.3,5.6-7.9c2.1-0.4,4.2-0.4,6.6,0c3.2,0.6,5.7,4,5.6,7.9C28.4,14.9,29.5,16.6,29.5,18.5z"/>
						</g>
					</g>
				</g>
			</g>
			<g>
				<g>
					<g>
						<path fill="#ACB9C1" d="M14.2,25.1c-0.9-1.2-1.4-3.4-0.9-4.8C13.6,21,14.3,24.2,14.2,25.1z"/>
					</g>
				</g>
				<g>
					<g>
						<path fill="#ACB9C1" d="M21.5,25.1c-1-1.1-0.9-3.2,0.2-4.8C21.7,20.5,21.5,23.5,21.5,25.1z"/>
					</g>
				</g>
			</g>
			<g>
				<g>
					<g>
						<g>
							<g>
								<g>
									<g>
										<g>
											<path fill="#ACB9C1" d="M21.6,12.3h2.5c0-1.6-1.5-3.8-2.7-3.8c-0.8,0-1.4,1-1.6,2.1C20.7,10.6,21.4,11.4,21.6,12.3z"/>
										</g>
									</g>
								</g>
								<g>
									<g>
										<g>
											<path fill="#FFFFFF" d="M24.1,12.5c0.1,1.5-0.8,1.9-2.1,1.9s-2.3-0.4-2.5-1.9c-0.1-1.5,0.3-3.6,1.5-3.6S24,11,24.1,12.5z
												"/>
										</g>
									</g>
								</g>
							</g>
							<g>
								<g>
									<g>
										<g>
											<path fill="#65B1EF" d="M22.5,12.1c0,0.8-0.5,1.4-1.2,1.4c-0.7,0-1.2-0.6-1.2-1.4c0-0.8,0.5-1.4,1.2-1.4
												C21.9,10.7,22.5,11.3,22.5,12.1z"/>
										</g>
									</g>
								</g>
								<g>
									<g>
										<g>
											<ellipse fill="#3E4347" cx="21.3" cy="12.2" rx="0.6" ry="0.7"/>
										</g>
									</g>
								</g>
								<g>
									<g>
										<g>
											<path fill="#FFFFFF" d="M22,11.8c0,0.1-0.1,0.3-0.3,0.3c-0.2,0-0.3-0.1-0.3-0.3c0-0.1,0.1-0.3,0.3-0.3
												C21.9,11.5,22,11.7,22,11.8z"/>
										</g>
									</g>
								</g>
							</g>
						</g>
						<g>
							<g>
								<g>
									<path fill="#BBC7D1" d="M26.9,14c-2,1.9-4.5,2.5-7.3,1.9c0.7-1.3,1.9-2.2,3.2-2.6C24.2,13,25.6,13.2,26.9,14z"/>
								</g>
							</g>
						</g>
					</g>
					<g>
						<g>
							<g>
								<path fill="#3E4347" d="M23.9,9.7c-0.7-1.4-1.8-2-2.9-1.9c-0.3,0-0.4-0.5-0.1-0.6c0,0,0,0,0,0C21.6,6.8,23.4,7.7,23.9,9.7z"
									/>
							</g>
						</g>
					</g>
				</g>
				<g>
					<g>
						<g>
							<g>
								<g>
									<g>
										<g>
											<path fill="#ACB9C1" d="M14,12.3h-2.5c0-1.6,1.5-3.8,2.7-3.8c0.8,0,1.4,1,1.6,2.1C14.9,10.6,14.1,11.4,14,12.3z"/>
										</g>
									</g>
								</g>
								<g>
									<g>
										<g>
											<path fill="#FFFFFF" d="M11.4,12.5c-0.1,1.5,0.8,1.9,2.1,1.9s2.3-0.4,2.5-1.9c0.1-1.5-0.3-3.6-1.5-3.6S11.5,11,11.4,12.5
												z"/>
										</g>
									</g>
								</g>
							</g>
							<g>
								<g>
									<g>
										<g>
											<path fill="#65B1EF" d="M13.1,12.1c0,0.8,0.5,1.4,1.2,1.4c0.7,0,1.2-0.6,1.2-1.4c0-0.8-0.5-1.4-1.2-1.4
												C13.6,10.7,13.1,11.3,13.1,12.1z"/>
										</g>
									</g>
								</g>
								<g>
									<g>
										<g>
											<ellipse fill="#3E4347" cx="14.3" cy="12.2" rx="0.6" ry="0.7"/>
										</g>
									</g>
								</g>
								<g>
									<g>
										<g>
											<path fill="#FFFFFF" d="M13.6,11.8c0,0.1,0.1,0.3,0.3,0.3c0.2,0,0.3-0.1,0.3-0.3c0-0.1-0.1-0.3-0.3-0.3
												C13.7,11.5,13.6,11.7,13.6,11.8z"/>
										</g>
									</g>
								</g>
							</g>
						</g>
						<g>
							<g>
								<g>
									<path fill="#BBC7D1" d="M8.6,14c2,1.9,4.5,2.5,7.3,1.9c-0.7-1.3-1.9-2.2-3.2-2.6C11.4,13,9.9,13.2,8.6,14z"/>
								</g>
							</g>
						</g>
						<g>
							<g>
								<g>
									<path fill="#ACB9C1" d="M26.9,14c-0.7-0.3-2.2-0.9-4-0.5c-1.3,0.3-2.5,1.3-3.3,2.3c0.4-1.2,1.6-2.4,3.2-2.8
										C24.5,12.6,26.2,13.4,26.9,14z"/>
								</g>
							</g>
							<g>
								<g>
									<path fill="#ACB9C1" d="M15.9,15.9c-0.8-1-2-2-3.3-2.3c-1.8-0.5-3.3,0.2-4,0.5c0.9-0.8,2.6-1.4,4.1-1
										C14.6,13.5,15.7,15.1,15.9,15.9z"/>
								</g>
							</g>
						</g>
					</g>
					<g>
						<g>
							<g>
								<path fill="#3E4347" d="M11.7,9.7c0.7-1.4,1.8-2,2.9-1.9c0.3,0,0.4-0.5,0.1-0.6c0,0,0,0,0,0C13.9,6.8,12.1,7.7,11.7,9.7z"/>
							</g>
						</g>
					</g>
				</g>
			</g>
			<g>
				<g>
					<g>
						<path fill="#BBC7D1" d="M31.7,28.5c-1.7,0.9-4.2,0.6-5.9,0.1c-3-0.9-4.9-3-4.6-6.1c0-0.5,0.3-1.3,0.5-2.2h-8.4
							c0,1,0.1,2.1,0.4,3.1c1.3,5.9,5.9,9.2,11.5,9.3c2.8,0.1,6-0.7,7.9-2.7L31.7,28.5z"/>
					</g>
				</g>
			</g>
			<g>
				<g>
					<g>
						<path fill="#BBC7D1" d="M31.7,28.5c-1.7,0.9-4.2,0.6-5.9,0.1c-3-0.9-4.9-3-4.6-6.1c0-0.5,0.3-1.3,0.5-2.2h-8.4
							c0,1,0.1,2.1,0.4,3.1c1.3,5.9,5.9,9.2,11.5,9.3c2.8,0.1,6-0.7,7.9-2.7L31.7,28.5z"/>
					</g>
				</g>
			</g>
			<g opacity="0.5">
				<g>
					<path fill="#ACB9C1" d="M30.8,28.9c-0.1,0-0.2,0.1-0.4,0.1c-0.2,0.3-0.2,1,0.1,1.8c-2.7,1.4-10.1,2.7-14.1-2.5
						c-1.9-2.2-2.9-5.2-3-8h0c0,0,0,0,0,0c0.3,8,5.5,12.3,11.9,12.4c2.4,0.1,5.1-0.5,7-1.9C31.3,30.6,30.8,29.8,30.8,28.9z"/>
				</g>
			</g>
			<g>
				<g>
					<g>
						<path fill="#BBC7D1" d="M33.7,30.7c-0.8,0.8-2,0.8-2.8,0c-0.8-0.8-0.8-2,0-2.8c0.8-0.8,0.9,0.4,1.6,1.2
							C33.4,29.8,34.5,29.9,33.7,30.7z"/>
					</g>
				</g>
			</g>
			<g>
				<g>
					<g>
						<path fill="#ACB9C1" d="M33,30.1c-0.4,0.4-1,0.4-1.4,0c-0.4-0.4-0.4-1,0-1.4c0.4-0.4,0.4,0.2,0.8,0.6
							C32.8,29.6,33.4,29.7,33,30.1z"/>
					</g>
				</g>
			</g>
			<g>
				<g>
					<g>
						<g>
							<path fill="#ACB9C1" d="M14.8,22.3c0.8-0.7,1.6-1.2,2.9-1.4c1.4-0.2,2.3,0.3,3,1c-0.7-0.5-1.6-0.9-3-0.8
								C16.8,21.2,15.8,21.6,14.8,22.3z"/>
						</g>
					</g>
				</g>
				<g>
					<g>
						<g>
							<path fill="#ACB9C1" d="M16.5,24.6c0.3-0.5,1.1-1,2-1.1c0.9-0.1,1.8,0.1,2.2,0.4c-0.7-0.2-1.4-0.3-2.2-0.2
								C17.8,23.8,17.1,24.1,16.5,24.6z"/>
						</g>
					</g>
				</g>
				<g>
					<g>
						<g>
							<path fill="#ACB9C1" d="M17.7,26.7c0.3-0.4,0.9-0.8,1.4-1c0.5-0.2,1.2-0.3,1.7-0.2c-0.6,0.1-1.1,0.2-1.6,0.5
								C18.7,26.1,18.2,26.4,17.7,26.7z"/>
						</g>
					</g>
				</g>
				<g>
					<g>
						<g>
							<path fill="#ACB9C1" d="M19.1,28.9c0.2-0.5,0.7-0.9,1.1-1.2c0.4-0.3,1-0.6,1.5-0.7c-0.4,0.3-0.9,0.5-1.3,0.9
								C19.9,28.2,19.5,28.5,19.1,28.9z"/>
						</g>
					</g>
				</g>
				<g>
					<g>
						<g>
							<path fill="#ACB9C1" d="M22.1,30.1c-0.1-0.4,0-0.8,0.2-1.2c0.2-0.3,0.4-0.7,0.8-0.9c-0.2,0.3-0.4,0.7-0.5,1
								C22.3,29.3,22.2,29.7,22.1,30.1z"/>
						</g>
					</g>
				</g>
				<g>
					<g>
						<g>
							<path fill="#ACB9C1" d="M24.7,28.9c0.1,1.2,0,0.7,0.2,1.5C24.4,30.2,24.3,29.3,24.7,28.9z"/>
						</g>
					</g>
				</g>
			</g>
		</g>
	</g>
	<g>
		<g>
			<g>
				<path fill="#BBC7D1" d="M16.5,6.3H19c0.6-0.7,1.3-1.3,2.2-1.8c-0.8-0.3-1.7-0.1-2.3,0.5c0.1-0.7,0.6-1.4,1.2-1.8
					c-1,0.1-2,0.8-2.4,1.8c-0.6-0.9-1.6-1.5-2.6-1.5C16.1,4,16.4,5.2,16.5,6.3z"/>
			</g>
		</g>
	</g>
</g>
</svg>
