<?xml version="1.0" encoding="utf-8"?>
<!-- Generator: Adobe Illustrator 18.0.0, SVG Export Plug-In . SVG Version: 6.00 Build 0)  -->
<!DOCTYPE svg PUBLIC "-//W3C//DTD SVG 1.1//EN" "http://www.w3.org/Graphics/SVG/1.1/DTD/svg11.dtd">
<svg version="1.1" id="Layer_1" xmlns="http://www.w3.org/2000/svg" xmlns:xlink="http://www.w3.org/1999/xlink" x="0px" y="0px"
	 viewBox="0 0 36 36" enable-background="new 0 0 36 36" xml:space="preserve">
<g>
	<g>
		<g>
			<g>
				<g>
					<g>
						<g>
							<g>
								<path fill="#6D4135" d="M24.2,4.4c-0.6-1-1.1-1.3-1.8-1.8c-0.1-0.1-0.3-0.1-0.4,0c-0.2,0.1-0.3,0.4-0.1,0.5
									C22.2,3.8,22.5,4,22.6,5c0.1,0.7,0,1.5-0.2,2.1c-0.6,1.3-0.9,1.7-2.6,2.4c0.6,0.6,1.3,1.1,1.8,1.7c0.5,0.5,1,1.1,1.5,1.6
									c0.8-0.9,1.8-2.2,2-4.1C25.4,7.1,24.8,5.3,24.2,4.4z"/>
							</g>
						</g>
					</g>
					<g>
						<g>
							<g>
								<path fill="#633B2A" d="M24.2,4.4c-0.6-1-1.1-1.3-1.8-1.8c0,0-0.1,0-0.1,0c0.5,0.4,0.9,0.8,1.3,1.6c0.5,0.9,1,2.6,0.7,4.1
									c-0.2,1.8-1.2,3.1-1.9,3.9c0.2,0.2,0.5,0.5,0.7,0.7c0.8-0.9,1.8-2.2,2-4.1C25.4,7.1,24.8,5.3,24.2,4.4z"/>
							</g>
						</g>
					</g>
				</g>
			</g>
			<g>
				<g>
					<g>
						<g>
							<g>
								<path fill="#6D4135" d="M11.8,4.4c0.6-1,1.1-1.3,1.8-1.8c0.1-0.1,0.3-0.1,0.4,0c0.2,0.1,0.3,0.4,0.1,0.5
									C13.8,3.8,13.5,4,13.4,5c-0.1,0.7,0,1.5,0.2,2.1c0.6,1.3,0.9,1.7,2.6,2.4c-0.6,0.6-1.3,1.1-1.8,1.7c-0.5,0.5-1,1.1-1.5,1.6
									c-0.8-0.9-1.8-2.2-2-4.1C10.6,7.1,11.2,5.3,11.8,4.4z"/>
							</g>
						</g>
					</g>
					<g>
						<g>
							<g>
								<path fill="#633B2A" d="M11.8,4.4c0.6-1,1.1-1.3,1.8-1.8c0,0,0.1,0,0.1,0c-0.5,0.4-0.9,0.8-1.3,1.6c-0.5,0.9-1,2.6-0.7,4.1
									c0.2,1.8,1.2,3.1,1.9,3.9c-0.2,0.2-0.5,0.5-0.7,0.7c-0.8-0.9-1.8-2.2-2-4.1C10.6,7.1,11.2,5.3,11.8,4.4z"/>
							</g>
						</g>
					</g>
				</g>
			</g>
		</g>
		<g>
			<g>
				<g>
					<g>
						<g>
							<g>
								<g>
									<path fill="#CBD6E0" d="M33.6,14.7c0.7,0.6,0.4,0.9-0.3,1.2c-4.9,2.2-8.6,0.8-9.9-1.2c-0.9-1.2-0.8-2.7,0.5-3.4
										C25.3,10.6,29.1,10.9,33.6,14.7z"/>
								</g>
							</g>
						</g>
						<g>
							<g>
								<g>
									<path fill="#FC97B2" d="M23.9,13.6c1.2-1.6,3.3-0.3,4.1,0.1c1.2,0.7,2.5,1.4,3.8,1.8C29.4,16.6,24.9,16.4,23.9,13.6z"/>
								</g>
							</g>
						</g>
						<g>
							<g>
								<g>
									<path fill="#FC97B2" d="M23.9,13.6c1.2-1.6,3.3-0.3,4.1,0.1c1.2,0.7,2.5,1.4,3.8,1.8C29.4,16.6,24.9,16.4,23.9,13.6z"/>
								</g>
							</g>
						</g>
						<g>
							<g>
								<g>
									<path fill="#FC97B2" d="M23.9,13.6c1.2-1.6,3.3-0.3,4.1,0.1c1.2,0.7,2.5,1.4,3.8,1.8C29.4,16.6,24.9,16.4,23.9,13.6z"/>
								</g>
							</g>
						</g>
						<g>
							<g>
								<g>
									<path fill="#F281A4" d="M28,13.7c-0.9-0.5-2.9-1.7-4.1-0.1c0.3,0.8,0.8,1.3,1.5,1.7c-0.3-0.4-0.5-0.9-0.5-1.4
										c3.2,0,4.3,1.8,6.9,1.6c0,0,0,0,0,0C30.5,15.1,29.2,14.4,28,13.7z"/>
								</g>
							</g>
						</g>
					</g>
				</g>
			</g>
			<g>
				<g>
					<g>
						<g>
							<g>
								<g>
									<path fill="#CBD6E0" d="M2.4,14.7c-0.7,0.6-0.4,0.9,0.3,1.2c4.9,2.2,8.6,0.8,9.9-1.2c0.9-1.2,0.8-2.7-0.5-3.4
										C10.7,10.6,6.9,10.9,2.4,14.7z"/>
								</g>
							</g>
						</g>
						<g>
							<g>
								<g>
									<path fill="#FC97B2" d="M12.1,13.6C10.9,12,8.8,13.2,8,13.7c-1.2,0.7-2.5,1.4-3.8,1.8C6.6,16.6,11.1,16.4,12.1,13.6z"/>
								</g>
							</g>
						</g>
						<g>
							<g>
								<g>
									<path fill="#FC97B2" d="M12.1,13.6C10.9,12,8.8,13.2,8,13.7c-1.2,0.7-2.5,1.4-3.8,1.8C6.6,16.6,11.1,16.4,12.1,13.6z"/>
								</g>
							</g>
						</g>
						<g>
							<g>
								<g>
									<path fill="#FC97B2" d="M12.1,13.6C10.9,12,8.8,13.2,8,13.7c-1.2,0.7-2.5,1.4-3.8,1.8C6.6,16.6,11.1,16.4,12.1,13.6z"/>
								</g>
							</g>
						</g>
						<g>
							<g>
								<g>
									<path fill="#F281A4" d="M8,13.7c0.9-0.5,2.9-1.7,4.1-0.1c-0.3,0.8-0.8,1.3-1.5,1.7c0.3-0.4,0.5-0.9,0.5-1.4
										c-3.2,0-4.3,1.8-6.9,1.6c0,0,0,0,0,0C5.5,15.1,6.8,14.4,8,13.7z"/>
								</g>
							</g>
						</g>
					</g>
				</g>
			</g>
		</g>
		<g>
			<g>
				<g>
					<g>
						<g>
							<path fill="#CBD6E0" d="M28.7,26.2c1-1.8,1.1-4-0.3-6.4C25.4,14.5,26.2,9.1,18,9c-8.2,0.1-7.4,5.4-10.4,10.8
								c-1.4,2.4-1.3,4.6-0.3,6.4C13.6,35.9,22.5,35.9,28.7,26.2z"/>
						</g>
					</g>
				</g>
			</g>
			<g>
				<g>
					<g>
						<g>
							<g>
								<g>
									<g>
										<g>
											<g>
												<g>
													<path fill="#ACB9C1" d="M23.9,22.3c1.2-2.4-0.1-5.4-2.2-5.4c-1.7,0-3.1,2.1-2.7,4.5L23.9,22.3z"/>
												</g>
											</g>
										</g>
										<g>
											<g>
												<g>
													<ellipse fill="#FFFFFF" cx="21.6" cy="21" rx="2.7" ry="3.1"/>
												</g>
											</g>
										</g>
										<g>
											<g>
												<g>
													<path fill="#65B1EF" d="M23.1,21.5c0,1-0.8,1.8-1.7,1.8c-0.9,0-1.7-0.8-1.7-1.8c0-1,0.8-1.8,1.7-1.8
														C22.4,19.7,23.1,20.5,23.1,21.5z"/>
												</g>
											</g>
										</g>
										<g>
											<g>
												<g>
													<path fill="#3E4347" d="M22.3,21.5c0,0.5-0.4,0.9-0.8,0.9c-0.5,0-0.8-0.4-0.8-0.9c0-0.5,0.4-0.9,0.8-0.9
														C21.9,20.6,22.3,21,22.3,21.5z"/>
												</g>
											</g>
										</g>
									</g>
									<g>
										<g>
											<g>
												<circle fill="#FFFFFF" cx="22.1" cy="21" r="0.4"/>
											</g>
										</g>
									</g>
								</g>
								<g>
									<g>
										<g>
											<path fill="#3E4347" d="M24.9,19.6c-0.3-2-1.4-3-2.3-3.3c-0.2-0.1-0.4-0.1-0.7-0.1c-0.3,0-0.5-0.2-0.5-0.5
												c0-0.3,0.2-0.5,0.5-0.5c0.1,0,0.6,0.1,1,0.3C24.3,16.3,25,18.2,24.9,19.6z"/>
										</g>
									</g>
								</g>
							</g>
							<g>
								<g>
									<g>
										<g>
											<g>
												<g>
													<path fill="#ACB9C1" d="M12.1,22.3c-1.2-2.4,0.1-5.4,2.2-5.4c1.7,0,3.1,2.1,2.7,4.5L12.1,22.3z"/>
												</g>
											</g>
										</g>
										<g>
											<g>
												<g>
													<ellipse fill="#FFFFFF" cx="14.4" cy="21" rx="2.7" ry="3.1"/>
												</g>
											</g>
										</g>
										<g>
											<g>
												<g>
													<path fill="#65B1EF" d="M12.9,21.5c0,1,0.8,1.8,1.7,1.8c0.9,0,1.7-0.8,1.7-1.8c0-1-0.8-1.8-1.7-1.8
														C13.6,19.7,12.9,20.5,12.9,21.5z"/>
												</g>
											</g>
										</g>
										<g>
											<g>
												<g>
													<path fill="#3E4347" d="M13.7,21.5c0,0.5,0.4,0.9,0.8,0.9c0.5,0,0.8-0.4,0.8-0.9c0-0.5-0.4-0.9-0.8-0.9
														C14.1,20.6,13.7,21,13.7,21.5z"/>
												</g>
											</g>
										</g>
									</g>
									<g>
										<g>
											<g>
												<circle fill="#FFFFFF" cx="13.9" cy="21" r="0.4"/>
											</g>
										</g>
									</g>
								</g>
								<g>
									<g>
										<g>
											<path fill="#3E4347" d="M11.1,19.6c0.3-2,1.4-3,2.3-3.3c0.2-0.1,0.4-0.1,0.7-0.1c0.3,0,0.5-0.2,0.5-0.5
												c0-0.3-0.2-0.5-0.5-0.5c-0.1,0-0.6,0.1-1,0.3C11.7,16.3,11,18.2,11.1,19.6z"/>
										</g>
									</g>
								</g>
							</g>
						</g>
						<g>
							<g>
								<g>
									<g>
										<g>
											<path fill="#E9EFF4" d="M25.2,28.6c0.1,1-0.4,2.1-1.2,2.7c-2,1.4-4,2.2-6,2.2c-2,0-4-0.7-6-2.2c-0.8-0.6-1.3-1.7-1.2-2.7
												c0.2-2.8,1.5-4.9,3.4-5.2c0.5-0.1,0.9,0,1.4,0.1c0.5-0.8,1.4-1.3,2.4-1.3h0c1,0,1.9,0.5,2.4,1.3c0.5-0.1,0.9-0.2,1.4-0.1
												C23.7,23.7,25,25.9,25.2,28.6z"/>
										</g>
									</g>
								</g>
							</g>
							<g>
								<g>
									<g>
										<g>
											<g>
												<g>
													<path fill="#DEE4E9" d="M24,31.3c0.7-1,0.8-2.1,0.6-3.1c-0.2-1.1-0.7-2.3-1.5-3.1c-0.5-0.6-1-0.9-1.8-1
														c-0.7-0.1-1.1,0.1-1.5,0.7c-0.5,0.8-0.6,1.3-0.8,2.1c-0.1-0.7,0-1.6,0.4-2.3c0.4-0.7,1-1.2,1.9-1.2
														c1.1,0,1.7,0.4,2.4,1.1c0.9,1.1,1.4,2.3,1.5,3.7C25.3,29.7,25,30.6,24,31.3z"/>
												</g>
											</g>
										</g>
									</g>
								</g>
								<g>
									<g>
										<g>
											<g>
												<path fill="#DEE4E9" d="M12,31.3c-0.7-1-0.8-2.1-0.6-3.1c0.2-1.1,0.7-2.3,1.5-3.1c0.5-0.6,1-0.9,1.8-1
													c0.7-0.1,1.1,0.1,1.5,0.7c0.5,0.8,0.6,1.3,0.8,2.1c0.1-0.7,0-1.6-0.4-2.3c-0.4-0.7-1-1.2-1.9-1.2
													c-1.1,0-1.7,0.4-2.4,1.1c-0.9,1.1-1.4,2.3-1.5,3.7C10.7,29.7,11,30.6,12,31.3z"/>
											</g>
										</g>
									</g>
								</g>
							</g>
							<g>
								<g>
									<g>
										<g>
											<g>
												<path fill="#DEE4E9" d="M23.1,26.8c0,0.8-0.6,1.4-1.4,1.4c-0.8,0-1.6-0.1-1.6-0.9s0.8-2,1.6-2
													C22.4,25.3,23.1,26,23.1,26.8z"/>
											</g>
										</g>
									</g>
									<g>
										<g>
											<g>
												<path fill="#D3D9DD" d="M23.1,26.7c0,0.6-0.4,1.2-1,1.4c0.3-0.2,0.4-0.4,0.4-0.8c0-0.5-0.4-0.9-0.9-0.9
													c-0.5,0-1,0.7-1,1.2c0,0.2,0.1,0.4,0.3,0.5C20.4,28,20,27.8,20,27.3c0-0.8,0.8-2,1.6-2C22.4,25.3,23.1,26,23.1,26.7z"/>
											</g>
										</g>
									</g>
								</g>
								<g>
									<g>
										<g>
											<g>
												<path fill="#DEE4E9" d="M12.9,26.8c0,0.8,0.6,1.4,1.4,1.4c0.8,0,1.6-0.1,1.6-0.9s-0.8-2-1.6-2
													C13.6,25.3,12.9,26,12.9,26.8z"/>
											</g>
										</g>
									</g>
									<g>
										<g>
											<g>
												<path fill="#D3D9DD" d="M12.9,26.7c0,0.6,0.4,1.2,1,1.4c-0.3-0.2-0.4-0.4-0.4-0.8c0-0.5,0.4-0.9,0.9-0.9
													c0.5,0,1,0.7,1,1.2c0,0.2-0.1,0.4-0.3,0.5c0.5-0.1,0.8-0.3,0.8-0.8c0-0.8-0.8-2-1.6-2C13.6,25.3,12.9,26,12.9,26.7z"/>
											</g>
										</g>
									</g>
								</g>
							</g>
						</g>
					</g>
					<g>
						<g>
							<g>
								<g>
									<g>
										<path fill="#D3D9DD" d="M21,29.9c-0.8-0.2-1.2-0.4-3.1,0.1c-1.5,0.4-1.9,0.8-2.8,1.4c0.5-1,1.6-1.6,2.7-1.9
											C19.2,29.1,20.6,29.5,21,29.9z"/>
									</g>
								</g>
								<g>
									<g>
										<path fill="#D3D9DD" d="M21.5,30.3c-0.3,0.4-0.7,0.6-1,0.5c0.3-0.1,0.7-0.4,0.8-0.7c0.2-0.3,0.2-0.7,0.1-1
											C21.6,29.4,21.7,29.9,21.5,30.3z"/>
									</g>
								</g>
								<g>
									<g>
										<path fill="#D3D9DD" d="M16,31.9c-0.2,0.2-0.7,0.3-1.1,0.1c-0.4-0.3-0.6-0.7-0.5-1c0.1,0.3,0.4,0.7,0.7,0.8
											C15.3,32,15.7,32,16,31.9z"/>
									</g>
								</g>
							</g>
						</g>
					</g>
				</g>
			</g>
		</g>
	</g>
	<g>
		<g>
			<g>
				<path fill="#3E4347" d="M20.9,12c-0.2-0.6-0.6-1-1-1.4c0.1,0.4,0,0.9-0.2,1.3c-0.2,0.4-0.5,0.7-0.8,1.1
					c-0.3,0.4-0.5,0.8-0.4,1.2c-0.6-0.6-0.6-1.6-0.2-2.3c-0.4,0.4-0.8,0.9-1,1.5c-0.2,0.6-0.3,1.2-0.1,1.8c-0.8-0.4-1.4-1.3-1.4-2.3
					c0-0.9,0.4-1.8,1.1-2.5c-1.1,0.4-1.9,1.2-2.4,2.2c0.1-1.9,1.3-3.7,3.1-4.4c-0.8-0.1-1.7-0.2-2.3,0.2c0.6-0.7,1.7-1.1,2.6-0.9
					c0.7,0.2,1.3,0.7,1.6,1.3c0.5-0.2,1-0.3,1.5-0.4c-0.2,0.2-0.4,0.5-0.6,0.7C21,10,21.2,11,20.9,12z"/>
			</g>
		</g>
	</g>
</g>
</svg>
