<?xml version="1.0" encoding="utf-8"?>
<!-- Generator: Adobe Illustrator 18.0.0, SVG Export Plug-In . SVG Version: 6.00 Build 0)  -->
<!DOCTYPE svg PUBLIC "-//W3C//DTD SVG 1.1//EN" "http://www.w3.org/Graphics/SVG/1.1/DTD/svg11.dtd">
<svg version="1.1" id="Layer_1" xmlns="http://www.w3.org/2000/svg" xmlns:xlink="http://www.w3.org/1999/xlink" x="0px" y="0px"
	 viewBox="0 0 36 36" enable-background="new 0 0 36 36" xml:space="preserve">
<g>
	<g>
		<g>
			<path fill="#FFD93B" d="M34,2.6c-1,5.4-6,8.2-11.1,6.4C23.9,3.7,28.9,0.8,34,2.6z"/>
		</g>
	</g>
	<g>
		<g>
			<path fill="#89664C" d="M34,2.6c0,0-4.8-0.9-11.1,6.4C27.9,10.8,32.9,8,34,2.6z"/>
		</g>
	</g>
	<g>
		<g>
			<path fill="#7A5B44" d="M22.8,9c0.5,0.2,1,0.3,1.5,0.4c1.3-1.8,4.4-5.5,9.7-6.8C34,2.6,29.2,1.7,22.8,9z"/>
		</g>
	</g>
	<g>
		<g>
			<path fill="#FFD93B" d="M2,2.6c1,5.4,6,8.2,11.1,6.4C12.1,3.7,7.1,0.8,2,2.6z"/>
		</g>
	</g>
	<g>
		<g>
			<path fill="#89664C" d="M2,2.6c0,0,4.8-0.9,11.1,6.4C8.1,10.8,3.1,8,2,2.6z"/>
		</g>
	</g>
	<g>
		<g>
			<path fill="#7A5B44" d="M13.2,9c-0.5,0.2-1,0.3-1.5,0.4C10.4,7.6,7.3,3.9,2,2.6C2,2.6,6.8,1.7,13.2,9z"/>
		</g>
	</g>
	<g>
		<g>
			<path fill="#FFD93B" d="M8.5,27.2h18.9c1.1-1.8,2-4,2.3-6.4C31.3,10.2,25.9,3.6,18,3.6c-7.9,0-13.3,6.6-11.8,17.2
				C6.5,23.3,7.4,25.4,8.5,27.2z"/>
		</g>
	</g>
	<g>
		<g>
			<path fill="#F4C534" d="M29.8,20.8c-0.4,2.4-1.2,4.6-2.3,6.4h-9.6c1.8-0.7,3.5-1.8,5-3.3c6.3-6.2,6.7-13.1,2.6-17.8
				C29,9,30.8,14.1,29.8,20.8z"/>
		</g>
	</g>
	<g>
		<g>
			<path fill="#6B503B" d="M10.3,25.8c-0.7,0.5-1,1.6-0.7,2.6c2,5.2,4.1,5.7,8.4,5.7s6.4-0.5,8.4-5.7c0.4-0.9,0-2-0.7-2.6
				C20.6,22,15.4,22,10.3,25.8z"/>
		</g>
	</g>
	<g>
		<g>
			<path fill="#89664C" d="M26.2,22c-5.5-3-10.9-3-16.4,0c-1.5,1-2.5,2.5-2.5,4.3c0,3,2.6,5.4,5.9,5.4c0.8,0,1.5-0.1,2.2-0.4
				c1.6-0.6,3.5-0.6,5.1,0c0.7,0.3,1.4,0.4,2.2,0.4c3.3,0,5.9-2.4,5.9-5.4C28.7,24.5,27.7,22.9,26.2,22z"/>
		</g>
	</g>
	<g>
		<g>
			<path fill="#7A5B44" d="M28.6,26.6c-0.1,0.5-0.1,0.6-0.2,1.1c-0.2,0.7-0.7,1.7-1.6,2.5c-1.6,1.4-4.1,2-6.3,1.1
				c-1.4-0.5-3.2-0.6-4.9,0c-2.2,0.9-4.8,0.3-6.3-1.1c-1-0.8-1.4-1.8-1.6-2.5c-0.2-0.9-0.1-0.6-0.2-1.1c0.1,0.3,0.3,0.8,0.4,1.1
				c0.4,0.7,0.7,1.2,1.9,2c1.5,1,3.4,1.2,5.4,0.4c1.9-0.7,3.9-0.7,5.8,0c1.9,0.7,3.7,0.6,5.4-0.4c1.1-0.7,1.5-1.3,1.9-2
				C28.5,27,28.6,26.6,28.6,26.6z"/>
		</g>
	</g>
	<g>
		<g>
			<ellipse transform="matrix(0.9369 0.3496 -0.3496 0.9369 9.372 -6.704)" fill="#89664C" cx="23.3" cy="22.6" rx="3" ry="4"/>
		</g>
	</g>
	<g>
		<g>
			<path fill="#7A5B44" d="M26.3,22.5c-0.1,0.9-0.3,1-0.5,1.6c0,0,0.1-0.5,0.2-1.7c0-1-0.3-2.4-1.2-2.9c-0.5-0.5-1.8-0.5-2.9,0.4
				c-0.9,0.7-0.6,0.6-1.2,1.2c0.3-0.6,0.6-1,1-1.4c1-1,2.4-1.4,3.5-0.7C26.2,19.7,26.5,21.3,26.3,22.5z"/>
		</g>
	</g>
	<g>
		<g>
			<path fill="#7A5B44" d="M24.5,23.1C24.1,24,22,25.2,22,25.2s-0.2-2.4,0.2-3.3s1.4-1.3,2-1C24.9,21.2,25,22.2,24.5,23.1z"/>
		</g>
	</g>
	<g>
		<g>
			<path fill="#6B503B" d="M23.6,22.6c0.8,0.1,0.6,0.6,0.3,1.2c0.3-0.3,0.5-0.5,0.7-0.7c0.5-0.9,0.3-1.9-0.3-2.2
				c-0.7-0.3-1.6,0.1-2,1c-0.5,0.9-0.2,3.3-0.2,3.3S22.6,22.6,23.6,22.6z"/>
		</g>
	</g>
	<g>
		<g>
			
				<ellipse transform="matrix(-0.9369 0.3496 -0.3496 -0.9369 32.5797 39.3414)" fill="#89664C" cx="12.7" cy="22.6" rx="3" ry="4"/>
		</g>
	</g>
	<g>
		<g>
			<path fill="#7A5B44" d="M9.7,22.5c0.1,0.9,0.3,1,0.5,1.6c0,0-0.1-0.5-0.2-1.7c0-1,0.3-2.4,1.2-2.9c0.5-0.5,1.8-0.5,2.9,0.4
				c0.9,0.7,0.6,0.6,1.2,1.2c-0.3-0.6-0.6-1-1-1.4c-1-1-2.4-1.4-3.5-0.7C9.8,19.7,9.5,21.3,9.7,22.5z"/>
		</g>
	</g>
	<g>
		<g>
			<path fill="#7A5B44" d="M11.5,23.1c0.5,0.9,2.6,2.1,2.6,2.1s0.2-2.4-0.2-3.3c-0.5-0.9-1.4-1.3-2-1S11,22.2,11.5,23.1z"/>
		</g>
	</g>
	<g>
		<g>
			<path fill="#6B503B" d="M12.4,22.6c-0.8,0.1-0.6,0.6-0.3,1.2c-0.3-0.3-0.5-0.5-0.7-0.7c-0.5-0.9-0.3-1.9,0.3-2.2
				c0.7-0.3,1.6,0.1,2,1c0.5,0.9,0.2,3.3,0.2,3.3S13.4,22.6,12.4,22.6z"/>
		</g>
	</g>
	<g>
		<g>
			<path fill="#F4C534" d="M25.5,15.8c0.3-0.6,0.5-1.3,0.5-2.1c0.1-2.2-1.1-3.9-2.7-3.9s-2.9,1.7-2.9,3.9c0,0.8,0.1,1.5,0.4,2.1
				H25.5z"/>
		</g>
	</g>
	<g>
		<g>
			<ellipse fill="#FFFFFF" cx="23.1" cy="14.2" rx="2.8" ry="3.5"/>
		</g>
	</g>
	<g>
		<g>
			<path fill="#65B1EF" d="M25,14.7c0,1.3-0.9,2.4-1.9,2.4c-1.1,0-1.9-1.1-1.9-2.4c0-1.3,0.9-2.4,1.9-2.4C24.2,12.2,25,13.3,25,14.7
				z"/>
		</g>
	</g>
	<g>
		<g>
			<path fill="#3E4347" d="M24.5,15c0,1-0.6,1.8-1.4,1.8c-0.8,0-1.4-0.8-1.4-1.8c0-1,0.6-1.8,1.4-1.8C23.9,13.2,24.5,14,24.5,15z"/>
		</g>
	</g>
	<g>
		<g>
			<path fill="#FFFFFF" d="M24.7,14.2c0,0.3-0.3,0.6-0.6,0.6c-0.3,0-0.6-0.3-0.6-0.6c0-0.3,0.3-0.6,0.6-0.6
				C24.4,13.6,24.7,13.8,24.7,14.2z"/>
		</g>
	</g>
	<g>
		<g>
			<path fill="#FFFFFF" d="M23.1,15.5c0,0.2-0.1,0.3-0.3,0.3c-0.2,0-0.3-0.2-0.3-0.3c0-0.2,0.1-0.3,0.3-0.3
				C23,15.2,23.1,15.3,23.1,15.5z"/>
		</g>
	</g>
	<g>
		<g>
			<path fill="#F4C534" d="M10.5,15.8c-0.3-0.6-0.5-1.3-0.5-2.1c-0.1-2.2,1.1-3.9,2.7-3.9s2.9,1.7,2.9,3.9c0,0.8-0.1,1.5-0.4,2.1
				H10.5z"/>
		</g>
	</g>
	<g>
		<g>
			<ellipse fill="#FFFFFF" cx="12.9" cy="14.2" rx="2.8" ry="3.5"/>
		</g>
	</g>
	<g>
		<g>
			<path fill="#65B1EF" d="M11,14.7c0,1.3,0.9,2.4,1.9,2.4c1.1,0,1.9-1.1,1.9-2.4c0-1.3-0.9-2.4-1.9-2.4C11.8,12.2,11,13.3,11,14.7z
				"/>
		</g>
	</g>
	<g>
		<g>
			<path fill="#3E4347" d="M11.5,15c0,1,0.6,1.8,1.4,1.8c0.8,0,1.4-0.8,1.4-1.8c0-1-0.6-1.8-1.4-1.8C12.1,13.2,11.5,14,11.5,15z"/>
		</g>
	</g>
	<g>
		<g>
			<path fill="#FFFFFF" d="M14.3,14.2c0,0.3-0.3,0.6-0.6,0.6c-0.3,0-0.6-0.3-0.6-0.6c0-0.3,0.3-0.6,0.6-0.6
				C14.1,13.6,14.3,13.8,14.3,14.2z"/>
		</g>
	</g>
	<g>
		<g>
			<path fill="#FFFFFF" d="M12.7,15.5c0,0.2-0.1,0.3-0.3,0.3s-0.3-0.2-0.3-0.3c0-0.2,0.1-0.3,0.3-0.3S12.7,15.3,12.7,15.5z"/>
		</g>
	</g>
	<g>
		<g>
			<path fill="#3E4347" d="M21.9,8c0,0,3.6-0.2,5.2,3.4C27.1,11.4,25.2,4.9,21.9,8z"/>
		</g>
	</g>
	<g>
		<g>
			<path fill="#3E4347" d="M14.1,8c0,0-3.6-0.2-5.2,3.4C8.9,11.4,10.8,4.9,14.1,8z"/>
		</g>
	</g>
	<g>
		<g>
			<path fill="#7A5B44" d="M22,6.6c-0.3-0.3-0.7-0.6-1-0.9c0.5,0.7-0.1,1.7-1,3.8c-0.6-0.7-1-1.6-1-2.5c-0.5,1.1-0.5,2.4-0.1,3.5
				c-2-0.9-3.3-3.2-3-5.4c-0.6,0.7-0.8,1.6-0.7,2.5c-1.4-1.4-0.9-3.7,0.8-4.5c-0.6-0.4-1.3-0.4-1.9-0.1c1-1.2,2.9-1.4,4.1-0.3
				c1.7-1,4.1,0.2,4.8,1c0,0-1.9-0.8-2.8,0.2C21.2,4.5,21.7,5.6,22,6.6z"/>
		</g>
	</g>
	<g>
		<g>
			<path fill="#89664C" d="M18.2,3.5c0.5-0.5,1.3-0.8,2-0.8C19.7,3,19.3,3.5,19.1,4c0.7,0,1.4,0.4,1.6,1c-0.3-0.2-0.7-0.2-1.1-0.1
				c0.5,0.3,0.7,1,0.5,1.5C20,6.2,19.8,6,19.6,5.9s-0.4-0.3-0.5-0.5c-0.2-0.2-0.3-0.4-0.2-0.6C18.3,5.4,18,6.2,18.2,7
				c-0.4-0.3-0.7-0.8-0.8-1.4s0.1-1.1,0.5-1.5c-0.7-0.1-1.4,0.1-2.1,0.5c0.5-0.6,1.2-1,1.9-1.2C17.9,3.4,18.1,3.4,18.2,3.5
				c0.3,0,0.4,0.2,0.5,0.3"/>
		</g>
	</g>
</g>
</svg>
