<?xml version="1.0" encoding="utf-8"?>
<!-- Generator: Adobe Illustrator 18.0.0, SVG Export Plug-In . SVG Version: 6.00 Build 0)  -->
<!DOCTYPE svg PUBLIC "-//W3C//DTD SVG 1.1//EN" "http://www.w3.org/Graphics/SVG/1.1/DTD/svg11.dtd">
<svg version="1.1" id="Layer_1" xmlns="http://www.w3.org/2000/svg" xmlns:xlink="http://www.w3.org/1999/xlink" x="0px" y="0px"
	 viewBox="0 0 36 36" enable-background="new 0 0 36 36" xml:space="preserve">
<g>
	<g>
		<g>
			<g>
				<g>
					<g>
						<g>
							<g>
								<g>
									<g>
										<path fill="#E9EFF4" d="M22.1,9.9c3.3-1,4.3-3.6,5.2-5.2c1.7-2.9,3.8-3.1,5-2.2c1.8,1.5,1.1,5.9-2.3,7.5
											c-2.7,1.3-6.2,0.3-8.8,2"/>
									</g>
								</g>
							</g>
							<g>
								<g>
									<g>
										<path fill="#FC97B2" d="M31.6,4.3c0,2.5-2.2,5-6.3,5c2.2-1.3,3.2-4,5.2-5.4C31,3.6,31.6,3.6,31.6,4.3z"/>
									</g>
								</g>
							</g>
							<g>
								<g>
									<g>
										<path fill="#E88EA7" d="M31.6,4.2c-0.2,0-0.4,0.1-0.6,0.3c-2,1.4-3.2,3.8-5.7,4.9c2.2-1.3,3.2-4,5.2-5.4
											C31,3.6,31.5,3.6,31.6,4.2z"/>
									</g>
								</g>
							</g>
							<g>
								<g>
									<path fill="#DEE4E9" d="M33.2,4.2c-0.6,1.6-1.6,3-3,4c-1.6,1.1-3.5,1.6-5.4,1.5C25.2,8.9,26,7.8,26,7
										c-0.8,1.2-1.9,2.4-3.9,3l-0.8,2.1c2.6-1.7,6.1-0.7,8.8-2C32.5,8.9,33.6,6.2,33.2,4.2z"/>
								</g>
							</g>
						</g>
						<g opacity="0.15">
							<g>
								<g>
									<path fill="#FFFFFF" d="M30.5,3.6c0.6-0.5,1-0.4,1.2-0.1c0.5,0.6,0.7,0.2,0.6-0.2c-0.1-0.4-0.4-0.7-0.8-0.8
										c-0.8-0.3-1.6,0.1-2.2,0.6c-0.7,0.6-1.2,1.4-1.5,2.3c0,0.1-0.1,0.3,0,0.4c0.3,0.1,0.6-0.3,0.8-0.5
										C29.2,4.7,29.8,4.1,30.5,3.6z"/>
								</g>
							</g>
						</g>
					</g>
					<g>
						<g>
							<g>
								<g>
									<g>
										<path fill="#E9EFF4" d="M13.9,9.9c-3.3-1-4.3-3.6-5.2-5.2C7,1.8,4.8,1.6,3.6,2.5C1.9,4,2.6,8.5,5.9,10.1
											c2.7,1.3,6.2,0.3,8.8,2"/>
									</g>
								</g>
							</g>
							<g>
								<g>
									<g>
										<path fill="#FC97B2" d="M4.4,4.3c0,2.5,2.2,5,6.3,5C8.6,8.1,7.5,5.4,5.5,4C5,3.6,4.4,3.6,4.4,4.3z"/>
									</g>
								</g>
							</g>
							<g>
								<g>
									<g>
										<path fill="#E88EA7" d="M4.4,4.2c0.2,0,0.4,0.1,0.6,0.3c2,1.4,3.2,3.8,5.7,4.9C8.6,8.1,7.5,5.4,5.5,4
											C5,3.6,4.5,3.6,4.4,4.2z"/>
									</g>
								</g>
							</g>
							<g>
								<g>
									<path fill="#DEE4E9" d="M2.8,4.2c0.6,1.6,1.6,3,3,4c1.6,1.1,3.5,1.6,5.4,1.5C10.8,8.9,10,7.8,10,7c0.8,1.2,1.9,2.4,3.9,3
										l0.8,2.1c-2.6-1.7-6.1-0.7-8.8-2C3.5,8.9,2.4,6.2,2.8,4.2z"/>
								</g>
							</g>
						</g>
						<g opacity="0.15">
							<g>
								<g>
									<path fill="#FFFFFF" d="M5.5,3.6c-0.6-0.5-1-0.4-1.2-0.1C3.7,4.1,3.5,3.7,3.6,3.3c0.1-0.4,0.4-0.7,0.8-0.8
										C5.2,2.2,6,2.6,6.6,3.1c0.7,0.6,1.2,1.4,1.5,2.3c0,0.1,0.1,0.3,0,0.4C7.8,6,7.4,5.6,7.3,5.3C6.8,4.7,6.2,4.1,5.5,3.6z"/>
								</g>
							</g>
						</g>
					</g>
				</g>
				<g>
					<g>
						<g>
							<path fill="#E9EFF4" d="M22.8,27.3c0.8-1.7,1.9-3.8,3.6-6.3c1.3-2,2.1-3.9,1.5-6.2c-0.8-1.9-1.3-3.7-1.7-5.2
								c-1-3.7-4.4-6.2-8.2-6.2l0,0c-3.8,0-7.2,2.5-8.2,6.2c-0.4,1.6-1,3.3-1.7,5.2C7.4,17.1,8.3,19,9.6,21c1.7,2.5,2.8,4.6,3.6,6.3
								H22.8z"/>
						</g>
					</g>
				</g>
				<g>
					<g>
						<g>
							<path fill="#3E4347" d="M28.1,15.4c0-0.2-0.1-0.4-0.1-0.6c-0.1-0.1-0.1-0.3-0.1-0.4c-0.5,1.1-1.3,2-2.1,2.7
								C26.6,16.7,27.4,16.1,28.1,15.4z"/>
						</g>
					</g>
					<g>
						<g>
							<path fill="#3E4347" d="M27.8,18.3c0.1-0.4,0.2-0.8,0.3-1.3c-1.5,1.3-3.3,2.3-5,2.8C24.6,19.7,26.3,19.1,27.8,18.3z"/>
						</g>
					</g>
					<g>
						<g>
							<path fill="#3E4347" d="M27,20.1c-0.9,0.6-1.8,1.1-2.8,1.4c0.7-0.1,1.5-0.2,2.2-0.4c0,0,0,0,0,0C26.6,20.7,26.8,20.4,27,20.1
								z"/>
						</g>
					</g>
				</g>
				<g>
					<g>
						<g>
							<g>
								<g>
									<ellipse fill="#FFFFFF" cx="23" cy="15.1" rx="2.6" ry="3.6"/>
								</g>
							</g>
						</g>
						<g>
							<g>
								<g>
									<path fill="#65B1EF" d="M24.9,15.6c0,1.5-0.8,2.7-1.9,2.7c-1,0-1.9-1.2-1.9-2.7c0-1.5,0.8-2.7,1.9-2.7
										C24.1,13,24.9,14.1,24.9,15.6z"/>
								</g>
							</g>
						</g>
						<g>
							<g>
								<g>
									<path fill="#3E4347" d="M24.4,15.9c0,1.1-0.6,1.9-1.4,1.9c-0.7,0-1.4-0.9-1.4-1.9c0-1.1,0.6-1.9,1.4-1.9
										C23.8,13.9,24.4,14.8,24.4,15.9z"/>
								</g>
							</g>
						</g>
						<g>
							<g>
								<g>
									<path fill="#FFFFFF" d="M24.5,14.5c0,0.3-0.3,0.5-0.6,0.5c-0.3,0-0.5-0.2-0.5-0.5c0-0.3,0.2-0.5,0.5-0.5
										C24.2,14,24.5,14.2,24.5,14.5z"/>
								</g>
							</g>
						</g>
						<g>
							<g>
								<g>
									<path fill="#FFFFFF" d="M23.4,16.6c0,0.2-0.2,0.4-0.4,0.4c-0.2,0-0.4-0.2-0.4-0.4s0.2-0.4,0.4-0.4
										C23.2,16.3,23.4,16.4,23.4,16.6z"/>
								</g>
							</g>
						</g>
					</g>
					<g>
						<g>
							<g>
								<g>
									<ellipse fill="#FFFFFF" cx="13" cy="15.1" rx="2.6" ry="3.6"/>
								</g>
							</g>
						</g>
						<g>
							<g>
								<g>
									<path fill="#65B1EF" d="M14.8,15.6c0,1.5-0.8,2.7-1.9,2.7c-1,0-1.9-1.2-1.9-2.7c0-1.5,0.8-2.7,1.9-2.7
										C14,13,14.8,14.1,14.8,15.6z"/>
								</g>
							</g>
						</g>
						<g>
							<g>
								<g>
									<path fill="#3E4347" d="M14.3,15.9c0,1.1-0.6,1.9-1.4,1.9c-0.7,0-1.4-0.9-1.4-1.9c0-1.1,0.6-1.9,1.4-1.9
										C13.7,13.9,14.3,14.8,14.3,15.9z"/>
								</g>
							</g>
						</g>
						<g>
							<g>
								<g>
									<path fill="#FFFFFF" d="M14.4,14.5c0,0.3-0.3,0.5-0.6,0.5s-0.5-0.2-0.5-0.5c0-0.3,0.2-0.5,0.5-0.5S14.4,14.2,14.4,14.5z"/>
								</g>
							</g>
						</g>
						<g>
							<g>
								<g>
									<path fill="#FFFFFF" d="M13.3,16.6c0,0.2-0.2,0.4-0.4,0.4c-0.2,0-0.4-0.2-0.4-0.4s0.2-0.4,0.4-0.4
										C13.2,16.3,13.3,16.4,13.3,16.6z"/>
								</g>
							</g>
						</g>
					</g>
				</g>
				<g>
					<g>
						<g>
							<g>
								<path fill="#3E4347" d="M26.3,11.6c-0.7-1-2.1-1.8-3.7-1.9c-0.5,0-1,0-1.4,0c0.4-0.6,1.1-0.9,1.8-0.9c0.3,0,0.5,0,0.8,0.1
									C25,9.4,26,10.3,26.3,11.6z"/>
							</g>
						</g>
					</g>
					<g>
						<g>
							<g>
								<path fill="#3E4347" d="M9.7,11.6c0.7-1,2.1-1.8,3.7-1.9c0.5,0,1,0,1.4,0c-0.4-0.6-1.1-0.9-1.8-0.9c-0.3,0-0.5,0-0.8,0.1
									C11,9.4,10,10.3,9.7,11.6z"/>
							</g>
						</g>
					</g>
				</g>
			</g>
		</g>
		<g>
			<g>
				<g>
					<path fill="#3E4347" d="M21.4,3.5c0.3,0.3,0.4,0.8,0.4,1.2c-0.5-0.6-1.3-0.9-2.1-0.9c0.9,0.8,1,2.2,0.3,3.1
						c0-0.5-0.2-1.1-0.6-1.5c0,0.3-0.1,0.5-0.2,0.7C19.1,6,19,5.7,18.8,5.5c-0.2,0.8-0.4,1.6-0.6,2.5c-0.1-0.4-0.3-0.8-0.4-1.1
						c-0.4,0.7-0.5,1.5-0.2,2.2c-0.7-0.3-1.3-1.1-1.4-1.9C16,6.4,16.2,5.6,16.8,5c-0.3,0.2-0.7,0.4-1,0.6c-0.3-0.9,0.2-2.1,1.2-2.4
						c-0.6-0.4-1.2-0.5-1.9-0.5c0.5-0.4,1.2-0.7,1.8-0.6c0.7,0.1,1.3,0.4,1.7,0.9c0.9-1,2.6-1.3,3.8-0.6c-0.7,0-1.5,0.2-2.1,0.6
						C20.7,3,21.1,3.2,21.4,3.5z"/>
				</g>
			</g>
		</g>
		<g>
			<g>
				<g>
					<path fill="#3E4347" d="M22.3,4.5c-1.3,1.8-2.1,3.9-2.4,6.1c0.9-2.1,2.3-3.7,3.9-5C23.4,5.3,22.9,4.9,22.3,4.5z"/>
				</g>
			</g>
			<g>
				<g>
					<path fill="#3E4347" d="M16.1,10.7c-0.2-2.2-1.1-4.3-2.4-6.1c-0.6,0.3-1.1,0.7-1.6,1.2C13.8,7,15.2,8.6,16.1,10.7z"/>
				</g>
			</g>
		</g>
		<g>
			<g>
				<g>
					<path fill="#31373A" d="M20.1,5.4c-0.3-0.5-0.8-0.9-1.4-1.1c0.1,0.7-0.1,1.3-0.5,1.9c0.1-0.4,0.2-0.9,0.2-1.3
						c-0.5,0.5-0.9,1.1-1.1,1.8C17.1,5.8,17.4,5,18,4.4c-0.4-0.1-0.8-0.2-1.2-0.2c0.1-0.2,0.3-0.3,0.5-0.4c0.2-0.1,0.5,0,0.7,0.1
						c-0.2-0.5-0.6-1-1-1.3c0.7,0.1,1.3,0.5,1.7,0.9c0.4-0.3,0.9-0.4,1.4-0.2c-0.3,0-0.7,0.2-0.9,0.4C19.7,4.2,20.1,4.9,20.1,5.4z"
						/>
				</g>
			</g>
		</g>
		<g>
			<g>
				<g>
					<g>
						<path fill="#3E4347" d="M10.3,17.1c-0.9-0.7-1.6-1.6-2.1-2.7c0,0.1-0.1,0.3-0.1,0.4C8,15,7.9,15.2,7.9,15.4
							C8.6,16.1,9.4,16.7,10.3,17.1z"/>
					</g>
				</g>
				<g>
					<g>
						<path fill="#3E4347" d="M8.2,18.3c1.5,0.8,3.2,1.4,4.7,1.5c-1.7-0.4-3.5-1.4-5-2.8C8,17.5,8.1,17.9,8.2,18.3z"/>
					</g>
				</g>
				<g>
					<g>
						<path fill="#3E4347" d="M9,20.1c0.2,0.3,0.4,0.6,0.6,0.9c0,0,0,0,0,0c0.7,0.2,1.5,0.4,2.2,0.4C10.8,21.2,9.9,20.7,9,20.1z"/>
					</g>
				</g>
			</g>
		</g>
	</g>
	<g>
		<g>
			<g>
				<g>
					<g>
						<path fill="#3E4347" d="M11.1,28.7C12.2,31.8,15,34,18,34c3,0,5.8-2.2,6.9-5.3C20.3,28.5,15.7,28.5,11.1,28.7z"/>
					</g>
				</g>
			</g>
			<g>
				<g>
					<g>
						<g>
							<path fill="#5A5F63" d="M25.6,26.9c0.4,3.7-0.9,4.6-7.6,4.3c-6.6,0.3-8-0.6-7.6-4.3c0.5-3.8,2.9-4.9,7.6-4.9
								C22.7,22,25.1,23.2,25.6,26.9z"/>
						</g>
					</g>
				</g>
				<g opacity="0.5">
					<g>
						<g>
							<path fill="#3E4347" d="M18,31.2c-3.8,0.2-5.9,0-6.8-0.9c1.4,0.4,3.1,0.6,5,0.4c5-0.6,8.2-2.3,9.2-4.9
								c0.1,0.4,0.2,0.8,0.2,1.2C26,30.7,24.6,31.6,18,31.2z"/>
						</g>
					</g>
				</g>
				<g>
					<g>
						<g>
							<g>
								<g>
									<path fill="#5A5F63" d="M23.8,21.9c-1-0.8-2.8-0.4-4,0.9c-0.1,0.1-0.1,0.2-0.2,0.3c0,0.9,0,1.7-0.1,2.6
										c1.1,0,2.3,0,3.4,0.1c0.1-0.1,0.2-0.2,0.3-0.2C24.5,24.3,24.8,22.7,23.8,21.9z"/>
								</g>
							</g>
						</g>
						<g>
							<g>
								<g>
									<path fill="#3E4347" d="M23,25.7c0.3-0.4,0.5-0.5,0.8-1.1c1.2-2.3-0.7-3.6-3-2.4c-0.6,0.3-0.8,0.5-1.2,0.8
										c0.1-0.3,0.5-0.8,1-1.1c1.4-0.9,2.7-0.8,3.4-0.3c0.7,0.6,0.9,1.7,0,3C23.8,25.1,23.3,25.5,23,25.7z"/>
								</g>
							</g>
						</g>
						<g>
							<g>
								<g>
									<path fill="#3E4347" d="M22.5,24.6c-0.6,0.6-2.3,1-2.3,1c0,0,0.2-1.7,0.7-2.3c0.6-0.6,1.4-0.8,1.8-0.4
										C23.2,23.3,23.1,24,22.5,24.6z"/>
								</g>
							</g>
						</g>
						<g>
							<g>
								<g>
									<path fill="#2A3033" d="M22.9,24c0-0.1-0.1-0.1-0.1-0.2c-0.4-0.3-1.2-0.2-1.8,0.4c-0.3,0.3-0.6,0.9-0.8,1.4c0,0,0,0,0,0
										c0,0,0.2-1.7,0.7-2.3c0.6-0.6,1.4-0.8,1.8-0.4C23,23.2,23.1,23.6,22.9,24z"/>
								</g>
							</g>
						</g>
					</g>
					<g>
						<g>
							<g>
								<g>
									<path fill="#5A5F63" d="M12.2,21.9c1-0.8,2.8-0.4,4,0.9c0.1,0.1,0.1,0.2,0.2,0.3c0,0.9,0,1.7,0.1,2.6c-1.1,0-2.3,0-3.4,0.1
										c-0.1-0.1-0.2-0.2-0.3-0.2C11.5,24.3,11.2,22.7,12.2,21.9z"/>
								</g>
							</g>
						</g>
						<g>
							<g>
								<g>
									<path fill="#3E4347" d="M13,25.7c-0.4-0.2-0.8-0.6-1.1-1c-0.9-1.3-0.7-2.4,0-3c0.7-0.6,2.1-0.7,3.4,0.3
										c0.5,0.3,0.8,0.8,1,1.1c-0.3-0.3-0.6-0.5-1.2-0.8c-0.8-0.5-2.1-0.7-2.8-0.1c-0.7,0.5-0.6,1.7-0.1,2.5
										C12.6,25.2,12.7,25.4,13,25.7z"/>
								</g>
							</g>
						</g>
						<g>
							<g>
								<g>
									<path fill="#3E4347" d="M13.5,24.6c0.6,0.6,2.3,1,2.3,1c0,0-0.2-1.7-0.7-2.3c-0.6-0.6-1.4-0.8-1.8-0.4
										C12.8,23.3,12.9,24,13.5,24.6z"/>
								</g>
							</g>
						</g>
						<g>
							<g>
								<g>
									<path fill="#2A3033" d="M13.1,24c0-0.1,0.1-0.1,0.1-0.2c0.4-0.3,1.2-0.2,1.8,0.4c0.3,0.3,0.6,0.9,0.8,1.4c0,0,0,0,0,0
										c0,0-0.2-1.7-0.7-2.3c-0.6-0.6-1.4-0.8-1.8-0.4C13,23.2,12.9,23.6,13.1,24z"/>
								</g>
							</g>
						</g>
					</g>
				</g>
			</g>
		</g>
		<g opacity="3.000000e-002">
			<g>
				<path fill="#FFFFFF" d="M23.4,23.6c0.1-0.8-0.3-1.6-1-2.3c-0.5,0.1-1.2,0.3-1.7,0.7c-0.1,0-0.2,0.1-0.2,0.2
					C19.7,22.1,18.9,22,18,22c-0.9,0-1.7,0-2.4,0.1c-0.1,0-0.1-0.1-0.2-0.2c-1.3-0.9-2.7-0.8-3.4-0.3c-0.6,0.5-0.8,1.3-0.4,2.3
					c-0.6,0.7-1,1.7-1.1,2.9c0,0.1,0,0.1,0,0.2c1.4,0.7,3.2,1,5.4,0.9C20.4,27.6,23.1,26.1,23.4,23.6z"/>
			</g>
		</g>
	</g>
</g>
</svg>
