<?xml version="1.0" encoding="utf-8"?>
<!-- Generator: Adobe Illustrator 18.0.0, SVG Export Plug-In . SVG Version: 6.00 Build 0)  -->
<!DOCTYPE svg PUBLIC "-//W3C//DTD SVG 1.1//EN" "http://www.w3.org/Graphics/SVG/1.1/DTD/svg11.dtd">
<svg version="1.1" id="Layer_1" xmlns="http://www.w3.org/2000/svg" xmlns:xlink="http://www.w3.org/1999/xlink" x="0px" y="0px"
	 viewBox="0 0 36 36" enable-background="new 0 0 36 36" xml:space="preserve">
<g>
	<g>
		<g>
			<g>
				<g>
					<g>
						<g>
							<g>
								<path fill="#BBC7D1" d="M31.3,15.4c-2.5,0.9-9.7,2.6-10.5,0.3c-0.4-2,3.3-6.8,5.3-8.3c0.5-0.4,1-0.7,1.6-0.7
									c1.8-0.2,3.8,0.9,5.3,2.9C34.7,11.9,34.3,14.6,31.3,15.4z"/>
							</g>
						</g>
					</g>
					<g>
						<g>
							<g>
								<path fill="#FC97B2" d="M32.4,10.6c1.1,1.5,0.7,3.3-1.2,3.8c-1.7,0.5-5.1,0.9-5.7-0.6c-0.6-1.5,1.3-4.4,2.6-5
									C29.5,8.3,31.3,9.1,32.4,10.6z"/>
							</g>
						</g>
					</g>
					<g>
						<g>
							<g>
								<path fill="#E88EA7" d="M31.8,9.9c-1.1-1.1-2.5-1.5-3.7-1.1c-1.3,0.5-3.2,3.5-2.6,5c0.5,1.1,2.4,1.2,4.1,1
									C25.1,13.7,28.5,8.1,31.8,9.9z"/>
							</g>
						</g>
					</g>
				</g>
			</g>
			<g>
				<g>
					<g>
						<g>
							<g>
								<path fill="#BBC7D1" d="M4.7,15.4c2.5,0.9,9.7,2.6,10.5,0.3c0.4-2-3.3-6.8-5.3-8.3C9.5,7,8.9,6.7,8.3,6.6
									C6.5,6.4,4.5,7.5,3,9.5C1.3,11.9,1.7,14.6,4.7,15.4z"/>
							</g>
						</g>
					</g>
					<g>
						<g>
							<g>
								<path fill="#FC97B2" d="M3.6,10.6c-1.1,1.5-0.7,3.3,1.2,3.8c1.7,0.5,5.1,0.9,5.7-0.6c0.6-1.5-1.3-4.4-2.6-5
									C6.5,8.3,4.7,9.1,3.6,10.6z"/>
							</g>
						</g>
					</g>
					<g>
						<g>
							<g>
								<path fill="#E88EA7" d="M4.2,9.9c1.1-1.1,2.5-1.5,3.7-1.1c1.3,0.5,3.2,3.5,2.6,5c-0.5,1.1-2.4,1.2-4.1,1
									C10.9,13.7,7.5,8.1,4.2,9.9z"/>
							</g>
						</g>
					</g>
				</g>
			</g>
		</g>
		<g>
			<g>
				<g>
					<g>
						<g>
							<g>
								<g>
									<g>
										<path fill="#CBD6E0" d="M29.4,24.4c0.3-0.5,0.4-1.6,0.4-1.6S29.6,20,27.6,19c1.9-5.6-2-10.4-9.6-10.4
											c-7.6,0-11.6,4.8-9.6,10.4c-1.9,1-2.2,3.9-2.2,3.9s0.2,1.1,0.4,1.6H29.4z"/>
									</g>
								</g>
							</g>
							<g>
								<g>
									<g>
										<path fill="#E9EFF4" d="M25.8,28.4c-1.4,0.2-2.9,0.1-4.3-0.2c-0.9,0.8-2.1,1.3-3.5,1.3c-1.3,0-2.5-0.5-3.4-1.3
											c-1.4,0.3-2.9,0.4-4.3,0.2c-3.4-0.5-4.6-2.6-4.3-4.8c0.3-2.3,2.1-3.9,5.5-3.5c1.3,0.2,2.6,0.6,3.8,1.2
											c1.7,0.9,3.7,0.9,5.4,0c1.2-0.6,2.5-1,3.8-1.2c3.4-0.5,5.2,1.2,5.5,3.5C30.4,25.8,29.3,27.9,25.8,28.4z"/>
									</g>
								</g>
							</g>
						</g>
					</g>
				</g>
				<g>
					<g>
						<g>
							<g>
								<path fill="#89664C" d="M20.8,22.5c-0.6,0.8-1.7,1.5-2.2,1.8c-0.3,0.2-0.6,0.2-0.9,0c-0.6-0.3-1.6-1-2.2-1.8
									c-0.4-0.6-0.2-1.5,0.5-1.7c1.5-0.5,3-0.5,4.5,0C21,21,21.3,21.9,20.8,22.5z"/>
							</g>
						</g>
					</g>
					<g opacity="0.1">
						<g>
							<g>
								<path fill="#FFFFFF" d="M18.9,21.4c0,0.3-0.5,0.7-1.2,0.7c-0.7,0.1-1.2-0.1-1.3-0.5c0-0.3,0.5-0.7,1.2-0.7
									C18.3,20.8,18.8,21,18.9,21.4z"/>
							</g>
						</g>
					</g>
					<g>
						<g>
							<path fill="#7A5B44" d="M16.5,23.5c0.4,0.3,0.9,0.6,1.2,0.8c0.3,0.2,0.6,0.2,0.9,0c0.6-0.3,1.6-1,2.2-1.8
								c0.3-0.4,0.3-0.9,0-1.3C20.4,23,18,23.8,16.5,23.5z"/>
						</g>
					</g>
				</g>
			</g>
			<g>
				<g>
					<g>
						<g>
							<g>
								<path fill="#5A5F63" d="M24.5,15.8c0,1.6-1.1,2.8-2.3,2.8c-1.2,0-2.2-1.3-2.2-2.8c0-1.6,1.1-2.8,2.3-2.8
									C23.6,12.9,24.5,14.2,24.5,15.8z"/>
							</g>
						</g>
					</g>
					<g>
						<g>
							<g>
								<g>
									<path fill="#FFFFFF" d="M24.3,16.2c0,1.5-0.9,2.7-2.1,2.7c-1.2,0-2.1-1.2-2.1-2.7c0-1.5,0.9-2.7,2.1-2.7
										C23.4,13.5,24.3,14.7,24.3,16.2z"/>
								</g>
							</g>
						</g>
						<g>
							<g>
								<g>
									<g>
										<ellipse fill="#65B1EF" cx="22.1" cy="16.5" rx="1.5" ry="1.9"/>
									</g>
								</g>
							</g>
							<g>
								<g>
									<g>
										<ellipse fill="#3E4347" cx="22" cy="16.9" rx="0.9" ry="1.2"/>
									</g>
								</g>
							</g>
						</g>
						<g>
							<g>
								<g>
									<circle fill="#FFFFFF" cx="22.6" cy="16.2" r="0.4"/>
								</g>
							</g>
						</g>
						<g>
							<g>
								<g>
									<circle fill="#FFFFFF" cx="21.7" cy="17.1" r="0.2"/>
								</g>
							</g>
						</g>
					</g>
				</g>
				<g>
					<g>
						<g>
							<g>
								<path fill="#5A5F63" d="M11.7,15.8c0,1.6,1.1,2.8,2.3,2.8c1.2,0,2.2-1.3,2.2-2.8c0-1.6-1.1-2.8-2.3-2.8
									C12.7,12.9,11.7,14.2,11.7,15.8z"/>
							</g>
						</g>
					</g>
					<g>
						<g>
							<g>
								<g>
									<path fill="#FFFFFF" d="M11.9,16.2c0,1.5,0.9,2.7,2.1,2.7c1.2,0,2.1-1.2,2.1-2.7c0-1.5-0.9-2.7-2.1-2.7
										C12.9,13.5,11.9,14.7,11.9,16.2z"/>
								</g>
							</g>
						</g>
						<g>
							<g>
								<g>
									<g>
										<ellipse fill="#65B1EF" cx="14.1" cy="16.5" rx="1.5" ry="1.9"/>
									</g>
								</g>
							</g>
							<g>
								<g>
									<g>
										<ellipse fill="#3E4347" cx="14.2" cy="16.9" rx="0.9" ry="1.2"/>
									</g>
								</g>
							</g>
						</g>
						<g>
							<g>
								<g>
									<circle fill="#FFFFFF" cx="14.8" cy="16.2" r="0.4"/>
								</g>
							</g>
						</g>
						<g>
							<g>
								<g>
									<circle fill="#FFFFFF" cx="13.8" cy="17.1" r="0.2"/>
								</g>
							</g>
						</g>
					</g>
				</g>
			</g>
		</g>
	</g>
	<g>
		<g>
			<g>
				<path fill="#3E4347" d="M22.3,25.2c-0.1,1.6-1.9,3.2-4.1,3.2c-2.2,0-4-1.5-4.1-3.2c0-0.2,0.2-0.4,0.5-0.3c2.4,0.9,4.9,0.9,7.3,0
					C22.1,24.8,22.3,25,22.3,25.2z"/>
			</g>
		</g>
	</g>
	<g>
		<g>
			<path fill="#E24B4B" d="M18.2,28.4c0.9,0,1.7-0.3,2.4-0.7c-0.4-1-1.4-1.7-2.5-1.2c-0.2,0.1-0.4,0.1-0.6,0.1
				c-0.7,0-1.4,0.4-1.7,1.1C16.4,28.1,17.3,28.4,18.2,28.4z"/>
		</g>
	</g>
	<g>
		<g>
			<g>
				<path fill="#FFFFFF" d="M18.4,25.5c0,0.5-0.1,1.1-0.1,1.6c0,0.1,0.1,0.2,0.2,0.2l0.8,0c0.1,0,0.2-0.1,0.3-0.2
					c0.2-0.6,0.5-1.2,0.7-1.8C19.6,25.4,19,25.5,18.4,25.5z"/>
			</g>
		</g>
		<g>
			<g>
				<path fill="#FFFFFF" d="M16.8,27.1c0,0.1,0.2,0.2,0.3,0.2l0.8,0c0.1,0,0.2-0.1,0.2-0.2c-0.1-0.5-0.1-1.1-0.1-1.6
					c-0.6,0-1.2-0.1-1.9-0.2C16.3,25.9,16.5,26.5,16.8,27.1z"/>
			</g>
		</g>
	</g>
</g>
</svg>
