<?xml version="1.0" encoding="utf-8"?>
<!-- Generator: Adobe Illustrator 18.0.0, SVG Export Plug-In . SVG Version: 6.00 Build 0)  -->
<!DOCTYPE svg PUBLIC "-//W3C//DTD SVG 1.1//EN" "http://www.w3.org/Graphics/SVG/1.1/DTD/svg11.dtd">
<svg version="1.1" id="Layer_1" xmlns="http://www.w3.org/2000/svg" xmlns:xlink="http://www.w3.org/1999/xlink" x="0px" y="0px"
	 viewBox="0 0 36 36" enable-background="new 0 0 36 36" xml:space="preserve">
<g>
	<g>
		<g>
			<g>
				<g>
					<g>
						<g>
							<path fill="#7A5B44" d="M25.5,10.6c1.6-1.9,4.6-2.4,6-4.5c0.8-1.3,1.4-1.2,1.8-0.2c3.1,7.7-5.7,12.2-9.3,9.8
								C24.1,15.7,24.2,12.1,25.5,10.6z"/>
						</g>
					</g>
				</g>
				<g>
					<g>
						<g>
							<path fill="#FC97B2" d="M32.3,8.2c2.1,3.6-2.7,7-5,5.5C27.4,11.2,30.7,9.6,32.3,8.2z"/>
						</g>
					</g>
				</g>
				<g>
					<g>
						<g>
							<path fill="#E88EA7" d="M27.3,13.7c0.7,0.5,1.6,0.5,2.5,0.2c-0.5,0-1.1-0.1-1.5-0.4c0,0,0.5-1.3,1.7-2.3
								c1.2-1,2.3-2.9,2.3-2.9C30.7,9.6,27.4,11.2,27.3,13.7z"/>
						</g>
					</g>
				</g>
			</g>
			<g>
				<g>
					<g>
						<g>
							<path fill="#7A5B44" d="M11.9,15.7c-3.6,2.4-12.4-2.1-9.3-9.8c0.4-1,1-1.1,1.8,0.2c1.3,2.1,4.4,2.6,6,4.5
								C11.8,12.1,11.9,15.7,11.9,15.7z"/>
						</g>
					</g>
				</g>
				<g>
					<g>
						<g>
							<path fill="#FC97B2" d="M8.7,13.7c-2.3,1.5-7.1-1.9-5-5.5C5.3,9.6,8.6,11.2,8.7,13.7z"/>
						</g>
					</g>
				</g>
				<g>
					<g>
						<g>
							<path fill="#E88EA7" d="M8.7,13.7c-0.7,0.5-1.6,0.5-2.5,0.2c0.5,0,1.1-0.1,1.5-0.4c0,0-0.5-1.3-1.7-2.3
								c-1.2-1-2.3-2.9-2.3-2.9C5.3,9.6,8.6,11.2,8.7,13.7z"/>
						</g>
					</g>
				</g>
			</g>
		</g>
		<g>
			<g>
				<g>
					<path fill="#7A5B44" d="M29.7,19.2c-0.8,6.5-5.1,11.7-11.7,11.7c-6.6,0-10.9-5.2-11.7-11.7C5.5,12.7,11.7,7.5,18,7.5
						C24.3,7.5,30.5,12.7,29.7,19.2z"/>
				</g>
			</g>
		</g>
		<g>
			<g>
				<g>
					<g>
						<g>
							<g>
								<g>
									<ellipse fill="#5C4533" cx="22.6" cy="18.5" rx="2.9" ry="3.6"/>
								</g>
							</g>
						</g>
						<g>
							<g>
								<g>
									<ellipse fill="#FFFFFF" cx="22.6" cy="18.8" rx="2.7" ry="3.3"/>
								</g>
							</g>
						</g>
						<g>
							<g>
								<g>
									<ellipse fill="#65B1EF" cx="22.4" cy="19.4" rx="1.6" ry="1.8"/>
								</g>
							</g>
						</g>
						<g>
							<g>
								<g>
									<ellipse fill="#3E4347" cx="22.4" cy="19.6" rx="1" ry="1.1"/>
								</g>
							</g>
						</g>
					</g>
					<g>
						<g>
							<g>
								<circle fill="#FFFFFF" cx="23.1" cy="18.9" r="0.4"/>
							</g>
						</g>
					</g>
				</g>
				<g>
					<g>
						<g>
							<path fill="#7A5B44" d="M27.2,20.1c-1.2,2.1-3,3.1-5.5,2.7C21.7,22.8,23.6,20.4,27.2,20.1z"/>
						</g>
					</g>
				</g>
				<g>
					<g>
						<g>
							<path fill="#5C4533" d="M21.7,22.8c0.5-0.7,1.3-1.5,2.5-2.1c2-0.9,3.2-0.3,3.2-0.3c-0.8,0-1.6-0.1-3.1,0.6
								C23.4,21.5,22.5,22.2,21.7,22.8z"/>
						</g>
					</g>
				</g>
				<g>
					<g>
						<g>
							<path fill="#5C4533" d="M20.3,13.7c0,0,3.3-1.1,5.7,2.1C25.9,15.8,24.5,10.5,20.3,13.7z"/>
						</g>
					</g>
				</g>
			</g>
			<g>
				<g>
					<g>
						<g>
							<g>
								<g>
									<ellipse fill="#5C4533" cx="13.4" cy="18.5" rx="2.9" ry="3.6"/>
								</g>
							</g>
						</g>
						<g>
							<g>
								<g>
									<ellipse fill="#FFFFFF" cx="13.4" cy="18.8" rx="2.7" ry="3.3"/>
								</g>
							</g>
						</g>
						<g>
							<g>
								<g>
									<ellipse fill="#65B1EF" cx="13.6" cy="19.4" rx="1.6" ry="1.8"/>
								</g>
							</g>
						</g>
						<g>
							<g>
								<g>
									<ellipse fill="#3E4347" cx="13.6" cy="19.6" rx="1" ry="1.1"/>
								</g>
							</g>
						</g>
					</g>
					<g>
						<g>
							<g>
								<circle fill="#FFFFFF" cx="12.9" cy="18.9" r="0.4"/>
							</g>
						</g>
					</g>
				</g>
				<g>
					<g>
						<g>
							<path fill="#7A5B44" d="M8.8,20.1c1.2,2.1,3,3.1,5.5,2.7C14.3,22.8,12.4,20.4,8.8,20.1z"/>
						</g>
					</g>
				</g>
				<g>
					<g>
						<g>
							<path fill="#5C4533" d="M14.3,22.8c-0.5-0.7-1.3-1.5-2.5-2.1c-2-0.9-3.2-0.3-3.2-0.3c0.8,0,1.6-0.1,3.1,0.6
								C12.6,21.5,13.5,22.2,14.3,22.8z"/>
						</g>
					</g>
				</g>
				<g>
					<g>
						<g>
							<path fill="#5C4533" d="M15.7,13.7c0,0-3.3-1.1-5.7,2.1C10.1,15.8,11.5,10.5,15.7,13.7z"/>
						</g>
					</g>
				</g>
			</g>
		</g>
		<g>
			<g>
				<g>
					<g>
						<path fill="#FFE9AB" d="M25.5,26.9C25.5,26.9,25.5,26.9,25.5,26.9c0,1.1-0.6,2.1-1.6,2.6c-1.7,0.9-3.7,1.4-5.9,1.4
							s-4.2-0.5-5.9-1.4c-1-0.5-1.6-1.5-1.6-2.5c0,0,0,0,0,0c0-3.5,3.4-6.3,7.5-6.3C22.2,20.7,25.5,23.5,25.5,26.9z"/>
					</g>
				</g>
			</g>
			<g>
				<g>
					<g>
						<g>
							<g>
								<g>
									
										<ellipse transform="matrix(0.96 -0.2801 0.2801 0.96 -5.789 7.3277)" fill="#FFE9AB" cx="22.7" cy="23.9" rx="2.8" ry="1.9"/>
								</g>
							</g>
						</g>
						<g>
							<g>
								<g>
									<g>
										<path fill="#FFD68D" d="M24.3,23.4c0.2,0.5-0.1,1.1-0.9,1.4c-0.9,0.3-2.1,0.1-2.2-0.3c0-0.3,0.7-1.2,1.5-1.5
											C23.6,22.7,24.1,22.9,24.3,23.4z"/>
									</g>
								</g>
							</g>
							<g>
								<g>
									<g>
										<path fill="#FFC871" d="M23.7,24.6c0.1-0.2,0.1-0.3,0-0.5c-0.1-0.4-0.5-0.5-1.2-0.3c-0.6,0.2-1.2,0.5-1.3,0.7
											c0,0,0,0,0-0.1c0-0.3,0.7-1.2,1.5-1.5c0.9-0.3,1.4-0.1,1.6,0.4C24.4,23.8,24.3,24.3,23.7,24.6z"/>
									</g>
								</g>
							</g>
						</g>
					</g>
					<g>
						<g>
							<g>
								<path fill="#FFD68D" d="M25.2,24.6c-0.3,0.3-0.7,0.7-0.9,0.7c0.3-0.2,0.6-0.5,0.8-0.9c0.6-0.8,0.3-1.7-0.4-2.1
									c-0.7-0.4-1.7-0.4-2.4-0.3c-0.5,0.1-0.7,0.2-1.1,0.4c0.3-0.3,0.6-0.5,1-0.6c1-0.4,2-0.2,2.7,0.2
									C25.7,22.6,25.9,23.7,25.2,24.6z"/>
							</g>
						</g>
					</g>
				</g>
				<g>
					<g>
						<g>
							<g>
								<g>
									
										<ellipse transform="matrix(-0.96 -0.2801 0.2801 -0.96 19.279 50.595)" fill="#FFE9AB" cx="13.3" cy="23.9" rx="2.8" ry="1.9"/>
								</g>
							</g>
						</g>
						<g>
							<g>
								<g>
									<g>
										<path fill="#FFD68D" d="M11.7,23.4c-0.2,0.5,0.1,1.1,0.9,1.4c0.9,0.3,2.1,0.1,2.2-0.3c0-0.3-0.7-1.2-1.5-1.5
											S11.9,22.9,11.7,23.4z"/>
									</g>
								</g>
							</g>
							<g>
								<g>
									<g>
										<path fill="#FFC871" d="M12.3,24.6c-0.1-0.2-0.1-0.3,0-0.5c0.1-0.4,0.5-0.5,1.2-0.3c0.6,0.2,1.2,0.5,1.3,0.7
											c0,0,0,0,0-0.1c0-0.3-0.7-1.2-1.5-1.5c-0.9-0.3-1.4-0.1-1.6,0.4C11.6,23.8,11.7,24.3,12.3,24.6z"/>
									</g>
								</g>
							</g>
						</g>
					</g>
					<g>
						<g>
							<g>
								<path fill="#FFD68D" d="M10.8,24.6c0.3,0.3,0.7,0.7,0.9,0.7c-0.3-0.2-0.6-0.5-0.8-0.9c-0.6-0.8-0.3-1.7,0.4-2.1
									c0.7-0.4,1.7-0.4,2.4-0.3c0.5,0.1,0.7,0.2,1.1,0.4c-0.3-0.3-0.6-0.5-1-0.6c-1-0.4-2-0.2-2.7,0.2
									C10.3,22.6,10.1,23.7,10.8,24.6z"/>
							</g>
						</g>
					</g>
				</g>
			</g>
			<g>
				<g>
					<g>
						<g>
							<g>
								<path fill="#FFD68D" d="M23.6,27.7c-0.4,0.1-0.8,0-1.1-0.3c-0.7,1-2.3,2.1-4.5,2.1c-2.2,0-3.8-1.1-4.5-2.1
									c-0.3,0.3-0.7,0.4-1.1,0.3c0.7-0.2,1.3-0.7,1.5-1.5c0,0,0.2,0.6-0.3,1.1c1.2,1,2.5,1.6,4.4,1.6c0.6,0,1.2-0.1,1.8-0.2
									c1.2-0.3,1.8-0.7,2.6-1.4c-0.5-0.6-0.3-1.1-0.3-1.1C22.3,27,22.9,27.5,23.6,27.7z"/>
							</g>
						</g>
					</g>
				</g>
			</g>
		</g>
	</g>
	<g>
		<g>
			<g>
				<path fill="#5C4533" d="M22.4,9.5c-0.4-0.3-1-0.5-1.5-0.6c0.4,0.5,0.6,1.2,0.5,1.9c-0.6-0.5-1.3-0.8-2.1-1
					c0.4,0.8,0.5,1.7,0.2,2.6c-0.6-1.4-1.7-1.8-1.7-1.8c-0.6,0.2-1.3,1-1.6,2.1c-0.8-0.9-1-2.3-0.7-3.5c-0.6,0.3-1,1-1.1,1.7
					c-0.1-0.6-0.2-1.3-0.1-1.9c0.1-0.6,0.4-1.2,1-1.6c-0.7,0-1.4,0.2-1.9,0.6c0.4-0.8,1.2-1.4,2.1-1.7c0.9-0.2,1.9,0,2.6,0.5
					c-0.1-0.7-0.4-1.3-0.8-1.7c1.1-0.1,2.2,0.5,2.9,1.3h0c1,0,1.9,0.5,2.4,1.3c-0.6-0.1-1.2-0.1-1.8-0.1C21.6,8,22.2,8.7,22.4,9.5z"
					/>
			</g>
		</g>
	</g>
</g>
</svg>
