<?xml version="1.0" encoding="utf-8"?>
<!-- Generator: Adobe Illustrator 18.0.0, SVG Export Plug-In . SVG Version: 6.00 Build 0)  -->
<!DOCTYPE svg PUBLIC "-//W3C//DTD SVG 1.1//EN" "http://www.w3.org/Graphics/SVG/1.1/DTD/svg11.dtd">
<svg version="1.1" id="Layer_1" xmlns="http://www.w3.org/2000/svg" xmlns:xlink="http://www.w3.org/1999/xlink" x="0px" y="0px"
	 viewBox="0 0 36 36" enable-background="new 0 0 36 36" xml:space="preserve">
<g>
	<g>
		<g>
			<g>
				<g>
					<g>
						<g>
							<g>
								<g>
									<path fill="#FC97B2" d="M22.4,15.5C22,9.8,25.1,8.1,26.1,7c0.6-0.6,0.9-1.4,1.3-2.2c0.8-1.6,2-3.3,3.7-2.8
										c-1.1,1.1,4.8,14.8-7.7,14.7"/>
								</g>
							</g>
						</g>
						<g>
							<g>
								<path fill="#E88EA7" d="M26.1,15.1c1.4-1.6,2.3-3.7,2.7-5.8c0.2-1.4,0.3-2.8,0.6-4.2C29.7,4,30.1,2.9,31,2.1
									C30.7,2,30.5,2,30.3,2l-6.4,10.1l0.9,0.6L23,15.4l2,1.3c2.7-0.3,4.4-1.4,5.3-2.9C29.1,14.7,27.6,15.2,26.1,15.1z"/>
							</g>
						</g>
						<g>
							<g>
								<path fill="#E18823" d="M29.2,4.4c0.4-0.9,1-1.8,1.9-2.3c0,0,0,0,0,0c-1.7-0.5-2.9,1.2-3.7,2.8C27,5.6,26.6,6.4,26.1,7
									c-0.9,1-4,2.7-3.6,8.4l0.9,1.3c0.1,0,0.1,0,0.2,0c2.4-2.4,4-5.4,4.7-8.7C28.5,6.8,28.7,5.5,29.2,4.4z"/>
							</g>
						</g>
					</g>
				</g>
			</g>
			<g>
				<g>
					<g>
						<g>
							<g>
								<g>
									<path fill="#FC97B2" d="M13.6,15.5C14,9.8,10.9,8.1,9.9,7C9.4,6.4,9,5.6,8.6,4.9C7.9,3.3,6.7,1.6,5,2.1
										C6,3.2,0.2,16.9,12.7,16.8"/>
								</g>
							</g>
						</g>
						<g>
							<g>
								<path fill="#E88EA7" d="M9.9,15.1c-1.4-1.6-2.3-3.7-2.7-5.8C6.9,8,6.9,6.6,6.6,5.2C6.3,4,5.9,2.9,5,2.1C5.3,2,5.5,2,5.7,2
									l6.4,10.1l-0.9,0.6l1.7,2.7l-2,1.3c-2.7-0.3-4.4-1.4-5.3-2.9C6.9,14.7,8.4,15.2,9.9,15.1z"/>
							</g>
						</g>
						<g>
							<g>
								<path fill="#E18823" d="M6.8,4.4C6.5,3.5,5.8,2.6,5,2.1c0,0,0,0,0,0c1.7-0.5,2.9,1.2,3.7,2.8C9,5.6,9.4,6.4,9.9,7
									c0.9,1,4,2.7,3.6,8.4l-0.9,1.3c-0.1,0-0.1,0-0.2,0c-2.4-2.4-4-5.4-4.7-8.7C7.5,6.8,7.3,5.5,6.8,4.4z"/>
							</g>
						</g>
					</g>
				</g>
			</g>
		</g>
		<g>
			<g>
				<g>
					<g>
						<path fill="#F29A2E" d="M32.2,27c-0.4-0.4-0.8-0.8-1.2-1.2H4.9c-0.4,0.4-0.8,0.8-1.2,1.2c-0.2-1.5,0.2-3.1,1-4.3
							c-0.3,0.3-0.7,0.6-1,0.9c0.2-2.2,2.4-3.7,3-5.8c0.4-1.2,0.1-2.6,0.3-3.9c0.5-2.8,3-4.8,5.7-4.7c1.2,0,2.3-0.7,2.9-1.7
							c-0.1,0.3-0.1,0.7-0.2,1c0.8-0.7,1.9-1.1,3-1.2c-0.5,0.3-0.8,0.8-0.7,1.4c0.5-0.7,1.3-0.2,2.1,0.1c1.1,0.4,2.2,0.4,3.3,0.4
							c2.7-0.1,5.2,1.9,5.7,4.7c0.2,1.3,0,2.6,0.3,3.9c0.6,2.1,2.8,3.6,3,5.8c-0.3-0.3-0.7-0.6-1-0.9C32,23.9,32.4,25.5,32.2,27z"/>
					</g>
				</g>
			</g>
		</g>
		<g>
			<g>
				<g>
					<g>
						<g>
							<path fill="#3E4347" d="M26.8,18.6c0,2.7-1.4,4.9-3.1,4.9c-1.7,0-3.1-2.2-3.1-4.9c0-2.7,1.4-5,3.1-5
								C25.4,13.6,26.8,15.6,26.8,18.6z"/>
						</g>
					</g>
				</g>
				<g>
					<g>
						<g>
							<path fill="#FFFFFF" d="M26.3,18.8c0,2.5-1.3,4.5-2.9,4.5c-1.6,0-2.9-2-2.9-4.5c0-2.5,1.3-4.5,2.9-4.5
								C25,14.3,26.3,16.3,26.3,18.8z"/>
						</g>
					</g>
				</g>
				<g>
					<g>
						<g>
							<ellipse fill="#65B1EF" cx="23.8" cy="19.8" rx="2.1" ry="3"/>
						</g>
					</g>
				</g>
				<g>
					<g>
						<g>
							<ellipse fill="#3E4347" cx="23.8" cy="19.8" rx="1.3" ry="1.8"/>
						</g>
					</g>
				</g>
				<g>
					<g>
						<circle fill="#FFFFFF" cx="24.6" cy="18.7" r="0.6"/>
					</g>
				</g>
			</g>
			<g>
				<g>
					<g>
						<g>
							<path fill="#3E4347" d="M9.2,18.6c0,2.7,1.4,4.9,3.1,4.9c1.7,0,3.1-2.2,3.1-4.9c0-2.7-1.4-5-3.1-5
								C10.6,13.6,9.2,15.6,9.2,18.6z"/>
						</g>
					</g>
				</g>
				<g>
					<g>
						<g>
							<path fill="#FFFFFF" d="M9.7,18.8c0,2.5,1.3,4.5,2.9,4.5c1.6,0,2.9-2,2.9-4.5c0-2.5-1.3-4.5-2.9-4.5
								C11,14.3,9.7,16.3,9.7,18.8z"/>
						</g>
					</g>
				</g>
				<g>
					<g>
						<g>
							<ellipse fill="#65B1EF" cx="12.6" cy="19.8" rx="2.1" ry="3"/>
						</g>
					</g>
				</g>
				<g>
					<g>
						<g>
							<ellipse fill="#3E4347" cx="12.6" cy="19.8" rx="1.3" ry="1.8"/>
						</g>
					</g>
				</g>
				<g>
					<g>
						<circle fill="#FFFFFF" cx="13.4" cy="18.7" r="0.6"/>
					</g>
				</g>
			</g>
		</g>
		<g>
			<g>
				<g>
					<g>
						<ellipse fill="#DAE5EF" cx="18" cy="29.4" rx="5.6" ry="4.6"/>
					</g>
				</g>
			</g>
			<g>
				<g>
					<g>
						<path fill="#DAE5EF" d="M31.1,25.8c0.7,2-0.8,3.6-2.7,4.6c-5.6,3.1-15.3,3.1-20.9,0c-2.9-1.7-3.2-3.5-2.7-4.6l0,0
							c0.1-0.5,0.3-1,0.6-1.5L4.4,25c1.9-3.2,6.1-4.2,8.9-1.6c0.7-1.5,2.6-2.6,4.7-2.6c2.1,0,4,1.1,4.7,2.6c2.2-2.4,7-1.6,8.9,1.6
							l-1.1-0.7C30.8,24.7,31,25.3,31.1,25.8C31.1,25.8,31.1,25.8,31.1,25.8z"/>
					</g>
				</g>
			</g>
		</g>
		<g>
			<g>
				<g>
					<g>
						<path fill="#3E4347" d="M14.2,24.2c-0.3,0.8-0.5,1.7-0.5,2.7c0,3.2,1.9,5.8,4.2,5.8s4.2-2.6,4.2-5.8c0-1-0.2-1.9-0.5-2.7H14.2
							z"/>
					</g>
				</g>
			</g>
			<g>
				<g>
					<g>
						<path fill="#31373A" d="M14.9,24.2c-0.3,0.8-0.5,1.7-0.5,2.7c0,2.9,1.6,5.2,3.7,5.2c2,0,3.7-2.3,3.7-5.2c0-1-0.2-1.9-0.5-2.7
							H14.9z"/>
					</g>
				</g>
			</g>
			<g>
				<g>
					<path fill="#E24B4B" d="M18,32.1c1.2,0,2.2-0.8,2.9-2c-0.1-0.2-0.2-0.5-0.3-0.7c-0.4-0.6-1.2-0.9-1.8-0.6
						C18.5,29,18.2,29,17.9,29c-0.3,0-0.5-0.1-0.8-0.2c-0.6-0.3-1.4,0-1.8,0.6c-0.1,0.2-0.2,0.4-0.3,0.6
						C15.8,31.3,16.8,32.1,18,32.1z"/>
				</g>
			</g>
			<g opacity="0.3">
				<g>
					<g>
						<path fill="#FFFFFF" d="M20,30c-0.1,0.1-0.3,0.1-0.5,0c-0.2-0.2-0.3-0.4-0.2-0.5c0.1-0.1,0.3-0.1,0.5,0
							C20,29.6,20.1,29.8,20,30z"/>
					</g>
				</g>
			</g>
		</g>
		<g>
			<g>
				<g>
					<path fill="#E9EFF4" d="M24.2,24.7c0,1.8-1.4,3.2-3.2,3.2c-0.5,0-1-0.1-1.4-0.3c-1.1-0.5-2.2-0.4-3.3,0.1
						c-0.6,0.2-1.2,0.3-1.9,0.2c-1.2-0.2-2.2-1.2-2.4-2.4c-0.5-2.1,1.1-4,3.1-4c1.3,0,2.5,0.8,3,1.9c0.5-1.1,1.6-1.9,3-1.9
						C22.8,21.4,24.2,22.9,24.2,24.7z"/>
				</g>
			</g>
		</g>
		<g>
			<g>
				<g>
					<path fill="#E84D88" d="M21,22.6c0,0.9-1,1.8-1.8,2.3c-0.7,0.5-1.7,0.5-2.4,0C16,24.4,15,23.5,15,22.6c0-1.6,1.3-2.4,3-2.4
						S21,20.9,21,22.6z"/>
				</g>
			</g>
		</g>
		<g opacity="0.4">
			<g>
				<g>
					<path fill="#D23F77" d="M21,22.6c0,0.9-1,1.8-1.8,2.3c-0.7,0.5-1.7,0.5-2.4,0c-0.7-0.4-1.4-1.1-1.7-1.7
						c0.5,0.7,1.4,1.1,2.4,1.1c1.6,0,2.8-1.1,2.8-2.4c0-0.4-0.1-0.8-0.4-1.2C20.6,21.1,21,21.7,21,22.6z"/>
				</g>
			</g>
		</g>
		<g>
			<g opacity="0.3">
				<g>
					<g>
						<path fill="#FFFFFF" d="M22.4,26.4c-1.6,1.1-3.2,0.2-2.6-0.9c0.4-0.6,1.7-1.7,1.9-1.8C24.1,23,24,25.4,22.4,26.4z"/>
					</g>
				</g>
			</g>
			<g opacity="0.3">
				<g>
					<g>
						<path fill="#FFFFFF" d="M14.3,23.7c0.2,0.1,1.5,1.1,1.9,1.8c0.7,1.1-1,2-2.6,0.9C12,25.4,11.9,23,14.3,23.7z"/>
					</g>
				</g>
			</g>
		</g>
		<g>
			<g>
				<g>
					<path fill="#CBD6E0" d="M23,31.3C22.3,32.7,20.3,34,18,34c-2.3,0-4.3-1.3-5.1-2.7c1,1,1.7,1.5,3,1.9c1.2,0.4,3,0.3,4,0
						C21.6,32.7,22.2,32.2,23,31.3z"/>
				</g>
			</g>
		</g>
	</g>
	<g>
		<g opacity="0.15">
			<g>
				
					<ellipse transform="matrix(0.9937 -0.1118 0.1118 0.9937 -2.3379 2.1122)" fill="#FFFFFF" cx="17.7" cy="21.9" rx="2" ry="1.5"/>
			</g>
		</g>
	</g>
	<g opacity="0.3">
		<g>
			<g>
				
					<ellipse transform="matrix(0.9558 -0.2939 0.2939 0.9558 -5.5267 5.9485)" fill="#FFFFFF" cx="17" cy="21.4" rx="0.8" ry="0.5"/>
			</g>
		</g>
	</g>
</g>
</svg>
