<?xml version="1.0" encoding="utf-8"?>
<!-- Generator: Adobe Illustrator 18.0.0, SVG Export Plug-In . SVG Version: 6.00 Build 0)  -->
<!DOCTYPE svg PUBLIC "-//W3C//DTD SVG 1.1//EN" "http://www.w3.org/Graphics/SVG/1.1/DTD/svg11.dtd">
<svg version="1.1" id="Layer_1" xmlns="http://www.w3.org/2000/svg" xmlns:xlink="http://www.w3.org/1999/xlink" x="0px" y="0px"
	 viewBox="0 0 36 36" enable-background="new 0 0 36 36" xml:space="preserve">
<g>
	<g>
		<g>
			<g>
				<g>
					<path fill="#8CC63E" d="M25.4,8.3c-0.7-3.4-3.8-6-7.4-6s-6.7,2.6-7.4,6C15.5,12.1,20.5,12.1,25.4,8.3z"/>
				</g>
			</g>
		</g>
		<g>
			<g>
				<g>
					<path fill="#8CC63E" d="M25.4,8.3c-0.7-3.4-3.8-6-7.4-6s-6.7,2.6-7.4,6C15.5,12.1,20.5,12.1,25.4,8.3z"/>
				</g>
			</g>
		</g>
		<g>
			<g>
				<g>
					<g>
						<path fill="#8CC63E" d="M27.3,18c1.4-1.7,2.2-3.8,2.2-6.2c0-2.8-1.2-5.4-3.1-7.1H9.6c-1.9,1.8-3.1,4.3-3.1,7.1
							c0,2.4,0.8,4.5,2.2,6.2H27.3z"/>
					</g>
				</g>
			</g>
		</g>
		<g>
			<g>
				<path fill="#7FB239" d="M20.7,2.8c-0.8,0.8-1.4,2.1-1.4,3.4c0,1.9,1,3.5,2.5,4.2c1.2-0.5,2.4-1.2,3.6-2.1
					C24.9,5.8,23.1,3.7,20.7,2.8z"/>
			</g>
		</g>
		<g>
			<g>
				<path fill="#7FB239" d="M10.6,8.3c1.2,0.9,2.4,1.6,3.6,2.1c1.5-0.7,2.5-2.3,2.5-4.2c0-1.3-0.5-2.6-1.4-3.4
					C12.9,3.7,11.1,5.8,10.6,8.3z"/>
			</g>
		</g>
		<g>
			<g>
				<g>
					<g>
						<g>
							<ellipse fill="#8CC63E" cx="12.6" cy="6.7" rx="3.8" ry="4.7"/>
						</g>
					</g>
				</g>
			</g>
		</g>
		<g>
			<g>
				<g>
					<g>
						<g>
							<ellipse fill="#8CC63E" cx="23.4" cy="6.7" rx="3.8" ry="4.7"/>
						</g>
					</g>
				</g>
			</g>
		</g>
	</g>
	<g>
		<g>
			<g>
				<path fill="#F4C534" d="M23.1,23.9c-1.6,1-3.4,1.6-5.1,1.6c-1.7,0-3.4-0.5-5.1-1.6C-1.4,23.4,2.7,7.3,10.7,13.3
					c2,1.6,4.6,2.4,7.3,2.5c2.7,0,5.3-0.9,7.3-2.5C33.3,7.3,37.4,23.4,23.1,23.9z"/>
			</g>
		</g>
	</g>
	<g opacity="0.5">
		<g>
			<g>
				<path fill="#E9B02C" d="M31.3,20.4c-1.2,1.6-3,2.6-4.8,3c-1,0.3-2.6,0.5-3.4,0.5c-1.4,0.9-2.8,1.4-4.4,1.6
					c-2.6,0.2-5.4-1.2-5.8-1.6c-1.5-0.1-3.2-0.3-4.5-0.8c-2.3-0.9-4.1-2.5-4.7-4.8c-0.7-2.3,0.1-5.1,2.2-6c-2,1-2.6,3.7-1.8,5.9
					c0.7,2.1,2.5,3.5,4.6,4.1c1.4,0.5,3,0.5,4.5,0.5l0.3,0.2h0c1.6,0.8,3.2,1.3,5.1,1.2c1.7-0.2,3-0.8,4.2-1.5c0.5,0,2,0.1,3.5-0.2
					c1.6-0.3,3.4-1.1,4.6-2.4c0.9-1.1,1.5-2.5,1.4-4c0-1.5-0.7-3-2.1-3.8c1.4,0.7,2.2,2.2,2.4,3.7C32.7,17.6,32.3,19.1,31.3,20.4z"
					/>
			</g>
		</g>
	</g>
	<g>
		<g>
			<g>
				<g>
					<g>
						<g>
							<g>
								<ellipse fill="#3E4347" cx="12.6" cy="7.8" rx="2.9" ry="3.7"/>
							</g>
						</g>
					</g>
					<g>
						<g>
							<g>
								<ellipse fill="#FFFFFF" cx="12.7" cy="8.3" rx="2.8" ry="3.6"/>
							</g>
						</g>
					</g>
					<g>
						<g>
							<g>
								<ellipse fill="#65B1EF" cx="12.7" cy="8.9" rx="1.7" ry="2"/>
							</g>
						</g>
					</g>
					<g>
						<g>
							<g>
								<ellipse fill="#3E4347" cx="12.7" cy="9.1" rx="0.9" ry="1"/>
							</g>
						</g>
					</g>
					<g>
						<g>
							<g>
								<circle fill="#FFFFFF" cx="13.4" cy="8.4" r="0.4"/>
							</g>
						</g>
					</g>
				</g>
			</g>
		</g>
		<g>
			<g>
				<g>
					<g>
						<g>
							<g>
								<ellipse fill="#3E4347" cx="23.4" cy="7.8" rx="2.9" ry="3.7"/>
							</g>
						</g>
					</g>
					<g>
						<g>
							<g>
								<ellipse fill="#FFFFFF" cx="23.3" cy="8.3" rx="2.8" ry="3.6"/>
							</g>
						</g>
					</g>
					<g>
						<g>
							<g>
								<ellipse fill="#65B1EF" cx="23.3" cy="8.9" rx="1.7" ry="2"/>
							</g>
						</g>
					</g>
					<g>
						<g>
							<g>
								<ellipse fill="#3E4347" cx="23.3" cy="9.1" rx="0.9" ry="1"/>
							</g>
						</g>
					</g>
					<g>
						<g>
							<g>
								<circle fill="#FFFFFF" cx="22.6" cy="8.4" r="0.4"/>
							</g>
						</g>
					</g>
				</g>
			</g>
		</g>
	</g>
	<g>
		<g>
			<g>
				<g>
					<path fill="#E9B02C" d="M12.1,17.6c0.2,3.2,2.9,5.7,6.2,5.7c3.3,0,6-2.5,6.2-5.7H12.1z"/>
				</g>
			</g>
		</g>
		<g>
			<g>
				<g>
					<path fill="#3E4347" d="M13.4,18.2c0.2,2.5,2.2,4.4,4.8,4.4c2.5,0,4.6-2,4.8-4.4H13.4z"/>
				</g>
			</g>
		</g>
		<g>
			<g>
				<g>
					<path fill="#31373A" d="M16.4,19.2c0.1,1.4,0.9,2.5,1.9,2.5c1,0,1.8-1.1,1.9-2.5H16.4z"/>
				</g>
			</g>
		</g>
	</g>
	<g>
		<g>
			<g>
				<g>
					<g>
						<path fill="#FFFFFF" d="M16.4,19.1c-0.8,1.1-1.2,2.4-1.3,3.8c0,0.2-0.2,0.2-0.3,0.1c-0.7-1.3-1.2-2.6-1.4-3.9H16.4z"/>
					</g>
				</g>
			</g>
			<g>
				<g>
					<path fill="#E9EFF4" d="M13.5,19.1c0.2,1.3,0.6,2.6,1.4,3.9c-0.8-1.7-0.7-3.1-0.5-3.9H13.5z"/>
				</g>
			</g>
		</g>
		<g>
			<g>
				<g>
					<g>
						<path fill="#FFFFFF" d="M20,19.1c0.8,1.1,1.2,2.4,1.3,3.8c0,0.2,0.2,0.2,0.3,0.1c0.7-1.3,1.2-2.6,1.4-3.9H20z"/>
					</g>
				</g>
			</g>
			<g>
				<g>
					<path fill="#E9EFF4" d="M22.9,19.1c-0.2,1.3-0.6,2.6-1.4,3.9c0.8-1.7,0.7-3.1,0.5-3.9H22.9z"/>
				</g>
			</g>
		</g>
	</g>
	<g>
		<g>
			<g>
				<g>
					<path fill="#FFD93B" d="M25.4,14.7c1.8,7.9-16.2,7.7-14.4,0c0.6-2.5,2.7-0.9,7.2-0.9C22.7,13.8,25,12.2,25.4,14.7z"/>
				</g>
			</g>
		</g>
		<g>
			<g>
				<g>
					<g>
						<g>
							<path fill="#FFD93B" d="M23.8,14.4c-0.9,0.4-1.8,0.7-2.7,0.8c0.6-1.6,0.7-2,1-2.4C23.3,11.3,25.5,13.6,23.8,14.4z"/>
						</g>
					</g>
				</g>
				<g>
					<g>
						<g>
							<g>
								<path fill="#6D4135" d="M23.4,14.2c-0.4,0.2-0.9,0.4-1.4,0.4c0.3-0.8,0.4-1,0.5-1.2C23.1,12.6,24.3,13.8,23.4,14.2z"/>
							</g>
						</g>
					</g>
					<g>
						<g>
							<g>
								<path fill="#633B2A" d="M23.4,14.2c0-0.3-0.4-0.7-0.7-0.3C22.6,14,22,14.7,22,14.7c0.3-0.8,0.4-1,0.5-1.2
									C23.1,12.6,24.3,13.8,23.4,14.2z"/>
							</g>
						</g>
					</g>
				</g>
				<g>
					<g>
						<g>
							<path fill="#F4C534" d="M24.5,13.9c-0.1,0.3-0.4,0.4-0.6,0.5c0.2-0.2,0.4-0.3,0.5-0.6c0.1-0.3,0-0.5-0.1-0.7
								c-0.1-0.2-0.4-0.4-0.7-0.6c-0.3-0.1-0.6-0.1-0.8,0c-0.5,0.2-0.9,1-1,1.2c0.1-0.6,0.4-1.1,0.9-1.4c0.3-0.2,0.7-0.2,1,0
								c0.3,0.1,0.6,0.4,0.8,0.7C24.5,13.2,24.6,13.6,24.5,13.9z"/>
						</g>
					</g>
				</g>
			</g>
			<g>
				<g>
					<g>
						<g>
							<path fill="#FFD93B" d="M12.7,14.4c0.9,0.4,1.8,0.7,2.7,0.8c-0.6-1.6-0.7-2-1-2.4C13.1,11.3,10.9,13.6,12.7,14.4z"/>
						</g>
					</g>
				</g>
				<g>
					<g>
						<g>
							<g>
								<path fill="#6D4135" d="M13.1,14.2c0.4,0.2,0.9,0.4,1.4,0.4c-0.3-0.8-0.4-1-0.5-1.2C13.3,12.6,12.2,13.8,13.1,14.2z"/>
							</g>
						</g>
					</g>
					<g>
						<g>
							<g>
								<path fill="#633B2A" d="M13.1,14.2c0-0.3,0.4-0.7,0.7-0.3c0.1,0.1,0.7,0.8,0.7,0.8c-0.3-0.8-0.4-1-0.5-1.2
									C13.3,12.6,12.2,13.8,13.1,14.2z"/>
							</g>
						</g>
					</g>
				</g>
				<g>
					<g>
						<g>
							<path fill="#F4C534" d="M12,13.9c0.1,0.3,0.4,0.4,0.6,0.5c-0.2-0.2-0.4-0.3-0.5-0.6c-0.1-0.3,0-0.5,0.1-0.7
								c0.1-0.2,0.4-0.4,0.7-0.6c0.3-0.1,0.6-0.1,0.8,0c0.5,0.2,0.9,1,1,1.2c-0.1-0.6-0.4-1.1-0.9-1.4c-0.3-0.2-0.7-0.2-1,0
								c-0.3,0.1-0.6,0.4-0.8,0.7C11.9,13.2,11.9,13.6,12,13.9z"/>
						</g>
					</g>
				</g>
			</g>
		</g>
	</g>
	<g>
		<g>
			<g>
				<path fill="#E24B4B" d="M20.3,22.2c-0.3,2.5-7.2,6.1-4,10c0,0,0,0,0,0c0.4,0.4,0.9,0.7,1.3,1c-0.6-0.1-1.2-0.1-1.9-0.2
					c0.4,0.3,0.8,0.7,1.2,1c-2.7,0-6.6-3.9-2.7-7.6c2.3-2.1,1.8-2.9,2.1-4.2c0.3-1.5,2.1-1,2.2-0.4C18.3,21,20.5,20.5,20.3,22.2z"/>
			</g>
		</g>
	</g>
	<g>
		<g>
			<g>
				<path fill="#D03F3F" d="M18.5,21.8c-0.2-0.4-1-0.6-1.4-0.4c-0.7,0.3-0.6,1.3-0.7,2.2c-0.1,0.7-0.3,1.1-0.6,1.5
					c-0.8,1.3-1.3,1.3-2.2,2.6c-0.5,0.8-0.7,1.4-0.8,2.2c0,1.2,0.6,2.3,1.5,3c0.7,0.6,1.5,1,2.5,1.2c-1,0-1.9-0.4-2.6-1
					c-1-0.8-1.7-1.9-1.7-3.2c0-0.9,0.2-1.6,0.8-2.4c0.9-1.2,1.5-1.5,2.2-2.5c0.3-0.5,0.5-1,0.6-1.4c0.1-0.9,0-1.9,0.9-2.2
					C17.6,21,18.4,21.4,18.5,21.8z"/>
			</g>
		</g>
	</g>
	<g opacity="0.15">
		<g>
			<g>
				<path fill="#FFFFFF" d="M20,21.6c0.1,0.3-0.2,0.5-0.4,0.2c-0.1-0.2-0.1-0.1-0.2-0.1c-0.1,0-0.3-0.1-0.3-0.2
					C19.1,21.2,19.8,21.2,20,21.6z"/>
			</g>
		</g>
	</g>
</g>
</svg>
