<?xml version="1.0" encoding="utf-8"?>
<!-- Generator: Adobe Illustrator 18.0.0, SVG Export Plug-In . SVG Version: 6.00 Build 0)  -->
<!DOCTYPE svg PUBLIC "-//W3C//DTD SVG 1.1//EN" "http://www.w3.org/Graphics/SVG/1.1/DTD/svg11.dtd">
<svg version="1.1" id="Layer_1" xmlns="http://www.w3.org/2000/svg" xmlns:xlink="http://www.w3.org/1999/xlink" x="0px" y="0px"
	 viewBox="0 0 36 36" enable-background="new 0 0 36 36" xml:space="preserve">
<g>
	<g>
		<g>
			<g>
				<g>
					<path fill="#8F6D52" d="M12.2,26.2c0.2,3,2.8,5.4,5.9,5.4c3.1,0,5.6-2.4,5.9-5.4H12.2z"/>
				</g>
			</g>
		</g>
		<g>
			<g>
				<g>
					<path fill="#8F6D52" d="M29,25.6c-0.9,3.8-19.8,4-22,0c-4.8-3.8-1.9-9,0.1-13.2C9.7,8.1,11.4,4.8,18,4.8
						c6.6,0,8.3,3.3,10.9,7.5C30.9,16.5,33.8,21.7,29,25.6z"/>
				</g>
			</g>
		</g>
		<g>
			<g>
				<g>
					<path fill="#FFE9AB" d="M25.3,26c0,2.2-1.8,4-4,4c-1.4,0-2.6-0.7-3.4-1.8c-0.7,1.1-1.9,1.8-3.4,1.8c-2.2,0-4-1.8-4-4s1.8-4,4-4
						c1.4,0,2.6,0.7,3.4,1.8c0.7-1.1,1.9-1.8,3.4-1.8C23.6,22.1,25.3,23.9,25.3,26z"/>
				</g>
			</g>
		</g>
		<g>
			<g>
				<g>
					<g>
						<path fill="#3E4347" d="M20.9,23.4c0,0.8-0.7,1.5-1.4,2c-0.9,0.7-2.1,0.7-3.1,0c-0.7-0.5-1.4-1.2-1.4-2c0-1.6,1.3-2.1,2.9-2.1
							C19.6,21.3,20.9,21.8,20.9,23.4z"/>
					</g>
				</g>
			</g>
			<g>
				<g>
					<g>
						<path fill="#31373A" d="M20.9,23.4c0,0.8-0.7,1.5-1.4,2c-0.9,0.7-2.1,0.7-3.1,0c-0.5-0.4-1-0.9-1.3-1.4c0.5,0.4,1.2,0.6,2,0.6
							c1.6,0,3-1,3-2.2c0-0.2,0-0.4-0.1-0.5C20.6,22.1,20.9,22.6,20.9,23.4z"/>
					</g>
				</g>
			</g>
		</g>
		<g>
			<g>
				<g>
					<g>
						<g>
							<path fill="#A5856D" d="M11,5.7C10.4,5.1,9.4,5,8.6,5.3c-0.8,0.3-1.4,0.8-2,1.5c-1.9,2.1-2.8,4.8-3.6,7.5
								c-0.8,3-1.4,6.1-0.8,9.1c0.2,1.2,0.7,2.4,1.5,3.3c0.8,0.9,2,1.6,3.2,1.5c0.7,0,1.3-0.3,1.7-0.8c0.6-0.7,0.5-1.8,0.4-2.7
								c-0.4-3.5-0.8-7-0.2-10.4s2.1-6.8,5-8.9c-0.1-0.5-0.5-0.8-1-0.9c-0.5-0.1-1-0.1-1.4,0c-1.2,0.3-2.2,1.1-3,2s-1.4,2-2,3"/>
						</g>
					</g>
				</g>
				<g>
					<g>
						<g>
							<path fill="#9A795F" d="M6.9,28.2c-1.7,0-2.9-0.9-3.7-2.2c-1.7-2.7-1.4-6.5-0.7-9.6c0.7-3,1.7-6.7,3.7-9.1
								c2.2-2.7,3.7-2.1,3.7-2.1S8.6,4.7,6.4,7.5c-1.7,2.2-2.8,6.2-3.4,9c-0.7,2.9-1,6.7,0.5,9.3C4.6,27.6,5.7,28.1,6.9,28.2z"/>
						</g>
					</g>
				</g>
				<g>
					<g>
						<g>
							<path fill="#9A795F" d="M13.8,5.4C13.4,4,11,4.6,9.6,5.8c-1.1,0.9-1.9,2-3.3,3.8c0.7-1.4,1.8-3.1,3-4.1
								C11.7,3.7,13.7,4.3,13.8,5.4z"/>
						</g>
					</g>
				</g>
			</g>
			<g>
				<g>
					<g>
						<g>
							<path fill="#A5856D" d="M25,5.7c0.6-0.6,1.5-0.7,2.3-0.4c0.8,0.3,1.4,0.8,2,1.5c1.9,2.1,2.8,4.8,3.6,7.5
								c0.8,3,1.4,6.1,0.8,9.1c-0.2,1.2-0.7,2.4-1.5,3.3c-0.8,0.9-2,1.6-3.2,1.5c-0.7,0-1.3-0.3-1.7-0.8c-0.6-0.7-0.5-1.8-0.4-2.7
								c0.4-3.5,0.8-7,0.2-10.4c-0.5-3.4-2.1-6.8-5-8.9c0.1-0.5,0.5-0.8,1-0.9c0.5-0.1,1-0.1,1.4,0c1.2,0.3,2.2,1.1,3,2
								c0.8,0.9,1.4,2,2,3"/>
						</g>
					</g>
				</g>
				<g>
					<g>
						<g>
							<path fill="#9A795F" d="M29.1,28.2c1.7,0,2.9-0.9,3.7-2.2c1.7-2.7,1.4-6.5,0.7-9.6c-0.7-3-1.7-6.7-3.7-9.1
								c-2.2-2.7-3.7-2.1-3.7-2.1s1.3-0.6,3.5,2.3c1.7,2.2,2.8,6.2,3.4,9c0.7,2.9,1,6.7-0.5,9.3C31.4,27.6,30.3,28.1,29.1,28.2z"/>
						</g>
					</g>
				</g>
				<g>
					<g>
						<g>
							<path fill="#9A795F" d="M22.2,5.4C22.6,4,25,4.6,26.4,5.8c1.1,0.9,1.9,2,3.3,3.8c-0.7-1.4-1.8-3.1-3-4.1
								C24.3,3.7,22.3,4.3,22.2,5.4z"/>
						</g>
					</g>
				</g>
			</g>
		</g>
		<g>
			<g>
				<g>
					<g>
						<g>
							<path fill="#3E4347" d="M16.4,14.7c-0.2,2.2-1.7,4-3.4,4s-3-1.8-2.8-4c0.2-2.2,1.7-4,3.5-4S16.5,12.5,16.4,14.7z"/>
						</g>
					</g>
				</g>
				<g>
					<g>
						<g>
							<path fill="#FFFFFF" d="M16.6,15.3c-0.2,2.1-1.7,3.9-3.4,3.9s-3-1.7-2.9-3.9c0.2-2.1,1.7-3.8,3.5-3.8S16.7,13.1,16.6,15.3z"
								/>
						</g>
					</g>
				</g>
				<g>
					<g>
						<g>
							<g>
								<path fill="#65B1EF" d="M15.3,16.2c0,1.2-0.9,2.1-2,2.1s-2-0.9-2-2.1c0-1.2,0.9-2.1,2-2.1S15.3,15,15.3,16.2z"/>
							</g>
						</g>
					</g>
					<g>
						<g>
							<g>
								<path fill="#3E4347" d="M14.4,16.3c0,0.6-0.5,1.1-1,1.1c-0.6,0-1-0.5-1-1.1c0-0.6,0.5-1.1,1-1.1
									C13.9,15.3,14.4,15.7,14.4,16.3z"/>
							</g>
						</g>
					</g>
				</g>
				<g>
					<g>
						<g>
							<circle fill="#FFFFFF" cx="14.1" cy="15.6" r="0.5"/>
						</g>
					</g>
				</g>
			</g>
			<g>
				<g>
					<g>
						<g>
							<path fill="#3E4347" d="M19.6,14.7c0.2,2.2,1.7,4,3.4,4c1.7,0,3-1.8,2.8-4c-0.2-2.2-1.7-4-3.5-4S19.5,12.5,19.6,14.7z"/>
						</g>
					</g>
				</g>
				<g>
					<g>
						<g>
							<path fill="#FFFFFF" d="M19.4,15.3c0.2,2.1,1.7,3.9,3.4,3.9s3-1.7,2.9-3.9s-1.7-3.8-3.5-3.8C20.5,11.4,19.3,13.1,19.4,15.3z"
								/>
						</g>
					</g>
				</g>
				<g>
					<g>
						<g>
							<g>
								<path fill="#65B1EF" d="M20.7,16.2c0,1.2,0.9,2.1,2,2.1s2-0.9,2-2.1c0-1.2-0.9-2.1-2-2.1S20.7,15,20.7,16.2z"/>
							</g>
						</g>
					</g>
					<g>
						<g>
							<g>
								<path fill="#3E4347" d="M21.6,16.3c0,0.6,0.5,1.1,1,1.1s1-0.5,1-1.1c0-0.6-0.5-1.1-1-1.1S21.6,15.7,21.6,16.3z"/>
							</g>
						</g>
					</g>
				</g>
				<g>
					<g>
						<g>
							<circle fill="#FFFFFF" cx="21.9" cy="15.6" r="0.5"/>
						</g>
					</g>
				</g>
			</g>
		</g>
		<g>
			<g>
				<g>
					<g>
						<path fill="#846144" d="M25.6,11.5c-0.7-0.6-1.1-1-2-1.3c-0.9-0.4-1.8-0.4-2.3-0.3c-0.2,0-0.5-0.1-0.5-0.4
							c0-0.2,0.1-0.5,0.4-0.5C22,9,23,9.3,23.7,9.8C24.5,10.2,25.2,11,25.6,11.5z"/>
					</g>
				</g>
			</g>
			<g>
				<g>
					<g>
						<path fill="#846144" d="M10.4,11.5c0.7-0.6,1.1-1,2-1.3c0.9-0.4,1.8-0.4,2.3-0.3c0.2,0,0.5-0.1,0.5-0.4c0-0.2-0.1-0.5-0.4-0.5
							C14,9,13,9.3,12.3,9.8C11.5,10.2,10.8,11,10.4,11.5z"/>
					</g>
				</g>
			</g>
		</g>
	</g>
	<g>
		<g>
			<g>
				<path fill="#FFD68D" d="M25.3,26.4c-0.1,0.8-0.4,1.6-0.9,2.3c-0.5,0.6-1.3,1.1-2.1,1.3c-0.8,0.2-1.7,0.1-2.4-0.2
					c-0.8-0.3-1.4-0.8-1.9-1.5c-0.5,0.7-1.1,1.2-1.9,1.5s-1.6,0.4-2.4,0.2c-0.8-0.2-1.5-0.7-2.1-1.3c-0.5-0.6-0.8-1.4-0.9-2.3
					c0.1,0.8,0.5,1.6,1,2.2c0.5,0.6,1.3,1,2,1.1c0.6,0.2,1.5,0.1,2.2-0.3c1.1-0.5,1.4-1.2,2-2.2c0.6,1,0.9,1.7,2,2.2
					c0.8,0.4,1.6,0.4,2.2,0.3c0.8-0.1,1.5-0.5,2-1.1C24.8,28,25.2,27.2,25.3,26.4z"/>
			</g>
		</g>
	</g>
</g>
</svg>
