<?xml version="1.0" encoding="utf-8"?>
<!-- Generator: Adobe Illustrator 18.0.0, SVG Export Plug-In . SVG Version: 6.00 Build 0)  -->
<!DOCTYPE svg PUBLIC "-//W3C//DTD SVG 1.1//EN" "http://www.w3.org/Graphics/SVG/1.1/DTD/svg11.dtd">
<svg version="1.1" id="Layer_1" xmlns="http://www.w3.org/2000/svg" xmlns:xlink="http://www.w3.org/1999/xlink" x="0px" y="0px"
	 viewBox="0 0 36 36" enable-background="new 0 0 36 36" xml:space="preserve">
<g>
	<g>
		<g>
			<g>
				<g>
					<g>
						<g>
							<g>
								<g>
									<g>
										
											<ellipse transform="matrix(0.4641 -0.8858 0.8858 0.4641 6.9148 28.9335)" fill="#8D9BA3" cx="27.4" cy="8.8" rx="7.2" ry="4.9"/>
									</g>
								</g>
							</g>
							<g>
								<g>
									<g>
										<path fill="#FC97B2" d="M31,10.6c1.4-2.7,1.4-5.4-0.3-6.3c-1.6-0.9-3.6-0.1-5.4,3.4c-1.4,2.7-1.3,5.5,0.3,6.3
											C27.2,14.8,29.6,13.3,31,10.6z"/>
									</g>
								</g>
							</g>
							<g>
								<g>
									<g>
										<path fill="#F281A4" d="M25.7,14c0.9,0.4,2,0.2,3.1-0.6c-0.8,0.5-1.6,0.6-2.3,0.2c-1.4-0.7-1.5-3.3-0.2-5.8
											c1.6-3.2,3.4-3.9,4.9-3.1c0.2,0.1,0.4,0.3,0.6,0.5c-0.2-0.4-0.5-0.8-0.9-1c-1.6-0.9-3.6-0.1-5.4,3.4
											C24.1,10.4,24.1,13.2,25.7,14z"/>
									</g>
								</g>
							</g>
						</g>
					</g>
				</g>
				<g>
					<g>
						<g>
							<g>
								<g>
									<g>
										
											<ellipse transform="matrix(-0.4641 -0.8858 0.8858 -0.4641 4.8843 20.4594)" fill="#8D9BA3" cx="8.6" cy="8.8" rx="7.2" ry="4.9"/>
									</g>
								</g>
							</g>
							<g>
								<g>
									<g>
										<path fill="#FC97B2" d="M5,10.6C3.6,7.9,3.6,5.1,5.2,4.2c1.6-0.9,3.6-0.1,5.4,3.4c1.4,2.7,1.3,5.5-0.3,6.3
											C8.8,14.8,6.4,13.3,5,10.6z"/>
									</g>
								</g>
							</g>
							<g>
								<g>
									<g>
										<path fill="#F281A4" d="M10.3,14c-0.9,0.4-2,0.2-3.1-0.6c0.8,0.5,1.6,0.6,2.3,0.2c1.4-0.7,1.5-3.3,0.2-5.8
											C8.2,4.6,6.4,3.9,4.9,4.7C4.6,4.8,4.4,5,4.3,5.2c0.2-0.4,0.5-0.8,0.9-1c1.6-0.9,3.6-0.1,5.4,3.4
											C11.9,10.4,11.9,13.2,10.3,14z"/>
									</g>
								</g>
							</g>
						</g>
					</g>
				</g>
			</g>
			<g>
				<g>
					<path fill="#8D9BA3" d="M27.9,18.6c0,5.5-4.4,9.9-9.9,9.9c-5.5,0-9.9-4.4-9.9-9.9s4.4-9.9,9.9-9.9
						C23.5,8.8,27.9,13.2,27.9,18.6z"/>
				</g>
			</g>
			<g>
				<g>
					<g>
						<g>
							<g>
								<g>
									<g>
										<path fill="#7B8B92" d="M24.8,17.9c0.3,2.6-1.4,3.8-2.4,3.8c-2,0-2.9-1.2-3.1-3.8c-0.2-2.1,0.9-3.8,2.4-3.8
											C23.2,14.1,24.6,15.8,24.8,17.9z"/>
									</g>
								</g>
							</g>
							<g>
								<g>
									<g>
										<path fill="#FFFFFF" d="M24.8,18.4c0.2,2.5-1.4,3.7-2.4,3.7c-2,0-2.9-1.1-3.1-3.7c-0.2-2,0.9-3.7,2.4-3.7
											S24.6,16.3,24.8,18.4z"/>
									</g>
								</g>
							</g>
						</g>
						<g>
							<g>
								<g>
									<g>
										<ellipse fill="#65B1EF" cx="22" cy="18.9" rx="1.8" ry="2"/>
									</g>
								</g>
							</g>
							<g>
								<g>
									<g>
										<ellipse fill="#3E4347" cx="22" cy="19.1" rx="1" ry="1.1"/>
									</g>
								</g>
							</g>
							<g>
								<g>
									<g>
										<circle fill="#FFFFFF" cx="22.7" cy="18.4" r="0.4"/>
									</g>
								</g>
							</g>
						</g>
					</g>
					<g>
						<g>
							<g>
								<path fill="#3E4347" d="M25.4,15.6C25.4,15.6,25.4,15.7,25.4,15.6C25.4,15.7,25.4,15.7,25.4,15.6c-0.5-0.5-0.5-0.5-1.2-1.3
									c-0.7-0.6-1.4-1-2.3-1.2c-0.7-0.2-0.7-0.5-0.7-0.5c0-0.1,0-0.2,0-0.2l0,0c0.1-0.2,0.4-0.4,1-0.2c1,0.3,1.9,0.8,2.6,1.8
									C25.3,14.8,25.2,14.9,25.4,15.6z"/>
							</g>
						</g>
					</g>
				</g>
				<g>
					<g>
						<g>
							<g>
								<g>
									<g>
										<path fill="#7B8B92" d="M11.2,17.9c-0.3,2.6,1.4,3.8,2.4,3.8c2,0,2.9-1.2,3.1-3.8c0.2-2.1-0.9-3.8-2.4-3.8
											C12.9,14.1,11.5,15.8,11.2,17.9z"/>
									</g>
								</g>
							</g>
							<g>
								<g>
									<g>
										<path fill="#FFFFFF" d="M11.3,18.4c-0.2,2.5,1.4,3.7,2.4,3.7c2,0,2.9-1.1,3.1-3.7c0.2-2-0.9-3.7-2.4-3.7
											S11.5,16.3,11.3,18.4z"/>
									</g>
								</g>
							</g>
						</g>
						<g>
							<g>
								<g>
									<g>
										<ellipse fill="#65B1EF" cx="14.1" cy="18.9" rx="1.8" ry="2"/>
									</g>
								</g>
							</g>
							<g>
								<g>
									<g>
										<ellipse fill="#3E4347" cx="14.1" cy="19.1" rx="1" ry="1.1"/>
									</g>
								</g>
							</g>
							<g>
								<g>
									<g>
										<circle fill="#FFFFFF" cx="13.3" cy="18.4" r="0.4"/>
									</g>
								</g>
							</g>
						</g>
					</g>
					<g>
						<g>
							<g>
								<path fill="#3E4347" d="M10.6,15.6C10.6,15.6,10.7,15.7,10.6,15.6C10.7,15.7,10.7,15.7,10.6,15.6c0.5-0.5,0.5-0.5,1.2-1.3
									c0.7-0.6,1.4-1,2.3-1.2c0.7-0.2,0.7-0.5,0.7-0.5c0-0.1,0-0.2,0-0.2l0,0c-0.1-0.2-0.4-0.4-1-0.2c-1,0.3-1.9,0.8-2.6,1.8
									C10.8,14.8,10.8,14.9,10.6,15.6z"/>
							</g>
						</g>
					</g>
				</g>
			</g>
			<g>
				<g>
					<path fill="#DAE5EF" d="M21,32.7c-0.7,0.7-1.8,1.2-3,1.2c-1.2,0-2.2-0.4-3-1.1c-5-0.9-10.4-4-9-9.6c2-5.3,5.8-1.3,11.9-1.2
						c6.2-0.2,10-4.1,11.9,1.2C31.3,28.8,26,31.8,21,32.7z"/>
				</g>
			</g>
			<g>
				<g>
					<g>
						<g>
							<g>
								<path fill="#CBD6E0" d="M22.6,28.4c-0.4,0.5-0.9,1.1-1.2,1.8c-0.4,1.2-0.8,2.3-2.3,1.7c-0.7-0.3-1.5-0.3-2.3,0
									c-1.7,0.7-2-0.8-2.3-1.7c-0.3-0.8-0.7-1.3-1.1-1.8C15,28.8,17,28,18,26.3C19,28,21,28.8,22.6,28.4z"/>
							</g>
						</g>
					</g>
				</g>
			</g>
			<g>
				<g>
					<g>
						<g>
							<path fill="#3E4347" d="M21.8,28.5c-0.3,0.4-0.8,0.9-1,1.6c-0.3,0.9-0.7,1.8-1.9,1.3c-0.6-0.3-1.2-0.2-1.8,0
								c-1.3,0.5-1.6-0.6-1.9-1.3c-0.2-0.7-0.7-1.2-1-1.6c1.4,0,3-0.8,3.8-2.2C18.8,27.7,20.4,28.5,21.8,28.5z"/>
						</g>
					</g>
				</g>
			</g>
			<g>
				<g>
					<g>
						<path fill="#31373A" d="M20.2,28.2c-0.2,1.2-1.1,2.1-2.2,2.1c-1,0-1.9-0.9-2.2-2.1c0.9-0.4,1.6-1,2.2-1.8
							C18.5,27.2,19.3,27.8,20.2,28.2z"/>
					</g>
				</g>
			</g>
			<g>
				<g>
					<g>
						<g>
							<path fill="#6D4135" d="M21,22.2c0,0.5-0.3,0.9-0.7,1.3c-1.4,1.3-3.4,1.3-4.8,0c-0.4-0.4-0.7-0.8-0.7-1.3
								c0-1.5,1.4-2.7,3-2.7C19.7,19.4,21,20.7,21,22.2z"/>
						</g>
					</g>
				</g>
				<g>
					<g>
						<g>
							<path fill="#633B2A" d="M21,22.2c0,0.5-0.3,0.9-0.7,1.3c-1.4,1.3-3.4,1.3-4.8,0c-0.3-0.3-0.6-0.7-0.6-1
								c0.5,0.3,1.3,0.5,2.1,0.5c1.8,0,3.4-1,3.5-2.1c0,0,0-0.1,0-0.1C20.9,21.2,21,21.6,21,22.2z"/>
						</g>
					</g>
				</g>
				<g opacity="0.15">
					<g>
						<g>
							<path fill="#FFFFFF" d="M18.5,20.3c0,0.3-0.4,0.6-0.9,0.7c-0.5,0.1-1-0.1-1.1-0.4c0-0.3,0.4-0.6,0.9-0.7
								C18,19.8,18.5,20,18.5,20.3z"/>
						</g>
					</g>
				</g>
			</g>
			<g>
				<g>
					<g>
						<path fill="#CBD6E0" d="M21.9,31.3c-0.1,0.4-0.4,1-0.8,1.4C20.4,33.4,19.3,34,18,34c-1.3,0-2.5-0.6-3.1-1.3
							c-0.4-0.4-0.7-1-0.8-1.4c0.2,0.5,0.6,0.8,1,1.2c0.7,0.6,1.8,1.1,3,1c1.2,0,2.3-0.5,3-1C21.4,32.1,21.7,31.8,21.9,31.3z"/>
					</g>
				</g>
			</g>
			<g>
				<g>
					<g>
						<g>
							<path fill="#BBC7D1" d="M24.6,26.7c-0.2,0.6-0.2,0.7-0.8,1.3c-0.9,0.7-1.7,0.8-2.5,0.7c-1.1-0.1-2.4-0.7-3.3-1.8
								c-1,1.1-2.1,1.7-3.3,1.8c-1.2,0.1-1.8-0.2-2.5-0.7c-0.6-0.6-0.6-0.8-0.8-1.3c0.5,0.8,0.6,0.8,1,1.1c0.7,0.4,1.4,0.6,2.3,0.4
								c1.4-0.3,2.3-1,3-2c0.1-0.2,0.4-0.3,0.6,0c0.7,1,1.7,1.8,3,2c0.8,0.1,1.2,0.1,2.3-0.4C24.3,27.3,24.3,27.3,24.6,26.7z"/>
						</g>
					</g>
				</g>
			</g>
			<g>
				<g>
					<g>
						<path fill="#E24B4B" d="M20.7,30.3c0-0.1-0.1-0.2-0.2-0.3c-0.7-1.1-2-1.2-2.5-0.3c-0.4-1.4-2.4-1.4-2.8,0.4
							c0.2,0.7,0.5,1.8,1.8,1.2c0.6-0.2,1.2-0.3,1.8,0C20,31.8,20.4,31.1,20.7,30.3z"/>
					</g>
				</g>
			</g>
		</g>
		<g>
			<g>
				<path fill="#D03F3F" d="M20.1,29.5c-0.7-0.6-1.7-0.5-2.1,0.2c-0.4-1.4-2.4-1.4-2.8,0.4c0.2,0.5,0.4,1.2,1,1.3
					c-1.2-2.4,1.6-3.6,1.7-0.8C18.4,29.4,19.2,28.9,20.1,29.5z"/>
			</g>
		</g>
		<g opacity="0.15">
			<g>
				<g>
					<path fill="#FFFFFF" d="M20.3,30.3c0,0.4-0.5,0.5-0.6,0.2c-0.1-0.1,0-0.3-0.1-0.4c-0.1-0.1-0.3-0.1-0.4-0.2
						c-0.2-0.1-0.3-0.4,0.1-0.4C19.9,29.4,20.3,29.9,20.3,30.3z"/>
				</g>
			</g>
		</g>
	</g>
	<g>
		<g>
			<g>
				<g>
					<g>
						<path fill="#3E4347" d="M21.5,25.1c0.9-0.2,1.4-0.2,2.4,0.1c1.3,0.6,2.1,1.6,2.5,2.7c0.6,1.7,0.5,3.1,0.5,4.1
							c0-1,0.1-2.4-0.6-4c-0.4-1-1.2-1.9-2.5-2.5c-1-0.3-1.4-0.3-2.2,0c-0.1,0-0.2,0-0.2-0.1C21.3,25.2,21.4,25.1,21.5,25.1
							C21.5,25.1,21.5,25.1,21.5,25.1z"/>
					</g>
				</g>
			</g>
			<g>
				<g>
					<path fill="#3E4347" d="M23.1,24c0.4,0,0.9,0.1,1.4,0.2c0.8,0.2,1.9,0.7,2.7,1.4c1.2,1,2,2.6,2.2,3.8c-0.2-1.2-1.1-2.7-2.3-3.7
						c-0.8-0.7-1.9-1.1-2.7-1.3c-0.5-0.1-1-0.1-1.3-0.1c-0.1,0-0.2-0.1-0.2-0.2S23,24,23.1,24C23.1,24,23.1,24,23.1,24L23.1,24z"/>
				</g>
			</g>
			<g>
				<g>
					<g>
						<path fill="#3E4347" d="M21.7,23.8c0.5-0.4,1.5-0.8,2.4-0.9c1.9-0.3,3.6,0.2,5.3,1c-1.7-0.7-3.4-1.1-5.2-0.7
							c-0.9,0.2-1.8,0.6-2.2,0.9c-0.1,0.1-0.2,0-0.2,0C21.6,24,21.6,23.9,21.7,23.8C21.7,23.8,21.7,23.8,21.7,23.8z"/>
					</g>
				</g>
			</g>
			<g>
				<g>
					<g>
						<path fill="#3E4347" d="M24.5,28.1c0.2,0.8,0.4,1.8,0.4,2.6c-0.1-0.8-0.2-1.8-0.5-2.6c-0.3-0.8-0.8-1.6-1.5-2.1
							c-0.1-0.1-0.1-0.2,0-0.2c0.1-0.1,0.2-0.1,0.2,0c0,0,0,0,0,0C23.8,26.4,24.3,27.3,24.5,28.1z"/>
					</g>
				</g>
			</g>
		</g>
		<g>
			<g>
				<g>
					<g>
						<path fill="#3E4347" d="M14.4,25.4c-0.8-0.3-1.2-0.3-2.2,0c-1.2,0.5-2.1,1.4-2.5,2.5c-0.7,1.6-0.6,3-0.6,4
							c-0.1-1-0.2-2.4,0.5-4.1c0.4-1.1,1.2-2.1,2.5-2.7c1-0.3,1.5-0.3,2.4-0.1c0.1,0,0.1,0.1,0.1,0.2C14.6,25.4,14.5,25.4,14.4,25.4
							C14.4,25.4,14.4,25.4,14.4,25.4z"/>
					</g>
				</g>
			</g>
			<g>
				<g>
					<path fill="#3E4347" d="M12.9,24.4c-1.5,0-3,0.6-4,1.4c-1.2,1-2.1,2.5-2.3,3.7c0.1-1.2,0.9-2.8,2.2-3.8c1-0.9,2.6-1.6,4.1-1.6
						l0,0c0.1,0,0.2,0.1,0.2,0.2S13,24.4,12.9,24.4C12.9,24.4,12.9,24.4,12.9,24.4z"/>
				</g>
			</g>
			<g>
				<g>
					<g>
						<path fill="#3E4347" d="M14.1,24.1c-0.4-0.3-1.4-0.8-2.2-0.9c-1.8-0.4-3.5,0-5.2,0.7c1.7-0.8,3.4-1.3,5.3-1
							c0.9,0.1,1.9,0.5,2.4,0.9c0.1,0.1,0.1,0.2,0,0.2C14.3,24.2,14.2,24.2,14.1,24.1C14.1,24.1,14.1,24.1,14.1,24.1z"/>
					</g>
				</g>
			</g>
			<g>
				<g>
					<g>
						<path fill="#3E4347" d="M13.1,26.1c-0.7,0.5-1.2,1.3-1.5,2.1c-0.3,0.8-0.5,1.8-0.5,2.6c0-0.8,0.1-1.8,0.4-2.6
							c0.3-1,0.9-1.8,1.4-2.3l0,0c0.1-0.1,0.2,0,0.2,0C13.2,25.9,13.2,26.1,13.1,26.1C13.1,26.1,13.1,26.1,13.1,26.1z"/>
					</g>
				</g>
			</g>
		</g>
	</g>
</g>
</svg>
