<?xml version="1.0" encoding="utf-8"?>
<!-- Generator: Adobe Illustrator 18.0.0, SVG Export Plug-In . SVG Version: 6.00 Build 0)  -->
<!DOCTYPE svg PUBLIC "-//W3C//DTD SVG 1.1//EN" "http://www.w3.org/Graphics/SVG/1.1/DTD/svg11.dtd">
<svg version="1.1" id="Layer_1" xmlns="http://www.w3.org/2000/svg" xmlns:xlink="http://www.w3.org/1999/xlink" x="0px" y="0px"
	 viewBox="0 0 36 36" enable-background="new 0 0 36 36" xml:space="preserve">
<g id="XMLID_1361_">
	<g id="XMLID_1372_">
		<g>
			<path fill="#6DAFDF" d="M25.9,19.3c0.5,1.8,0.8,3.5,0.8,5.1c0,5.9-3.9,6.8-8.7,6.8c-4.8,0-8.7-0.9-8.7-6.8c0-1.6,0.3-3.4,0.8-5.1
				c-1-1.5-1.5-3.2-1.5-5.1c0-4.7,3.4-8.5,7.8-9.3c-0.3-0.4-0.8-0.8-1.5-1.1c0,0,1.3-0.1,2.7,1c0.2,0,0.3,0,0.5,0c0.1,0,0.2,0,0.3,0
				c-0.2-0.7-0.6-1.7-1.5-2.1c0,0,1.9-0.2,2.8,2.3c0.1,0,0.2,0,0.3,0.1c0.2-0.7,0.4-2,0-2.9c0,0,1.3,0.6,1.3,3.3
				c3.7,1.3,6.3,4.8,6.3,8.9C27.4,16.1,26.9,17.8,25.9,19.3z"/>
		</g>
	</g>
	<g id="XMLID_1374_">
		<g>
			<path fill="#F2992D" d="M20.7,34c0.5-0.5,0.8-1.1,0.8-1.7c0.1,0.6,0.3,1.3,0.8,1.7h0c0.5-0.5,0.8-1.1,0.8-1.7
				c0.1,0.6,0.3,1.3,0.8,1.7h0c0.6-0.6,0.9-1.3,0.9-2.1v-0.2c0-1.4-1.1-2.5-2.5-2.5h0c-1.4,0-2.5,1.1-2.5,2.5v0.2
				C19.8,32.7,20.1,33.4,20.7,34z"/>
		</g>
	</g>
	<g id="XMLID_1373_">
		<g>
			<path fill="#F2992D" d="M12,34c0.5-0.5,0.8-1.1,0.8-1.7c0.1,0.6,0.3,1.3,0.8,1.7h0c0.5-0.5,0.8-1.1,0.8-1.7
				c0.1,0.6,0.3,1.3,0.8,1.7h0c0.6-0.6,0.9-1.3,0.9-2.1v-0.2c0-1.4-1.1-2.5-2.5-2.5h0c-1.4,0-2.5,1.1-2.5,2.5v0.2
				C11.1,32.7,11.4,33.4,12,34z"/>
		</g>
	</g>
	<g id="XMLID_1371_">
		<g>
			<path fill="#5CA3D9" d="M29.9,18.2c1.1,2.5-1,13.1-3.4,11.9c-0.8-0.8-0.4-8.1-1.1-10.3c-0.2-0.7-0.3-1.5-0.2-2.2
				c0.2-0.8,0.6-1.5,1.3-1.9C27.5,15.2,28.8,15.7,29.9,18.2z"/>
		</g>
	</g>
	<g id="XMLID_1370_">
		<g>
			<path fill="#5CA3D9" d="M6.1,18.2c-1.1,2.5,1,13.1,3.4,11.9c0.8-0.8,0.4-8.1,1.1-10.3c0.2-0.7,0.3-1.5,0.2-2.2
				c-0.2-0.8-0.6-1.5-1.3-1.9C8.5,15.2,7.2,15.7,6.1,18.2z"/>
		</g>
	</g>
	<g id="XMLID_1369_">
		<g>
			<path fill="#FFFFFF" d="M24.8,13.6c0,0,0-0.1,0-0.1c0-2.2-1.8-4-4-4c-1.1,0-2.1,0.4-2.8,1.1c-0.7-0.7-1.7-1.1-2.8-1.1
				c-2.2,0-4,1.8-4,4c0,0,0,0.1,0,0.1c0,0,0,0,0,0c0,0,0,0.1,0,0.2c0,3.8,3.1,6.8,6.8,6.8c3.8,0,6.8-3.1,6.8-6.8
				C24.8,13.7,24.8,13.6,24.8,13.6L24.8,13.6z"/>
		</g>
	</g>
	<g id="XMLID_1368_">
		<g>
			<circle fill="#FFFFFF" cx="15.2" cy="13.5" r="2.2"/>
		</g>
	</g>
	<g id="XMLID_1367_">
		<g>
			<circle fill="#3F4347" cx="15.2" cy="13.5" r="1.4"/>
		</g>
	</g>
	<g id="XMLID_1366_">
		<g>
			<circle fill="#FFFFFF" cx="14.3" cy="12.5" r="0.6"/>
		</g>
	</g>
	<g id="XMLID_1365_">
		<g>
			<circle fill="#FFFFFF" cx="20.8" cy="13.5" r="2.2"/>
		</g>
	</g>
	<g id="XMLID_1364_">
		<g>
			<circle fill="#3F4347" cx="20.8" cy="13.5" r="1.4"/>
		</g>
	</g>
	<g id="XMLID_1363_">
		<g>
			<circle fill="#FFFFFF" cx="19.9" cy="12.5" r="0.6"/>
		</g>
	</g>
	<g>
		<g id="XMLID_1362_">
			<g>
				<path fill="#F2992D" d="M19.8,16.7L18.3,20c-0.1,0.3-0.5,0.3-0.6,0l-1.5-3.3c-0.1-0.2,0-0.4,0.2-0.4c1-0.3,2.1-0.3,3.2,0
					C19.8,16.3,19.8,16.5,19.8,16.7z"/>
			</g>
		</g>
	</g>
</g>
</svg>
