<?xml version="1.0" encoding="utf-8"?>
<!-- Generator: Adobe Illustrator 18.0.0, SVG Export Plug-In . SVG Version: 6.00 Build 0)  -->
<!DOCTYPE svg PUBLIC "-//W3C//DTD SVG 1.1//EN" "http://www.w3.org/Graphics/SVG/1.1/DTD/svg11.dtd">
<svg version="1.1" id="Layer_1" xmlns="http://www.w3.org/2000/svg" xmlns:xlink="http://www.w3.org/1999/xlink" x="0px" y="0px"
	 viewBox="0 0 36 36" enable-background="new 0 0 36 36" xml:space="preserve">
<g>
	<g>
		<g>
			<g>
				<g>
					<g>
						<g>
							<path fill="#DAE5EF" d="M33.7,16.9c0.5,0.6,0.3,0.9-0.4,1.1c-5,1.3-8.1-0.6-9.1-2.6c-0.6-1.3-0.4-2.6,1-3.1
								C26.5,11.8,30.1,12.7,33.7,16.9z"/>
						</g>
					</g>
				</g>
				<g>
					<g>
						<g>
							<path fill="#FC97B2" d="M24.8,14.4c1.4-1.3,3.1,0.2,3.8,0.7c1,0.8,2.1,1.7,3.3,2.2C29.5,18,25.3,17.2,24.8,14.4z"/>
						</g>
					</g>
				</g>
				<g>
					<g>
						<g>
							<path fill="#FC97B2" d="M24.8,14.4c1.4-1.3,3.1,0.2,3.8,0.7c1,0.8,2.1,1.7,3.3,2.2C29.5,18,25.3,17.2,24.8,14.4z"/>
						</g>
					</g>
				</g>
				<g>
					<g>
						<g>
							<path fill="#FC97B2" d="M24.8,14.4c1.4-1.3,3.1,0.2,3.8,0.7c1,0.8,2.1,1.7,3.3,2.2C29.5,18,25.3,17.2,24.8,14.4z"/>
						</g>
					</g>
				</g>
				<g>
					<g>
						<g>
							<path fill="#F281A4" d="M28.6,15.1c-0.7-0.6-2.5-2-3.8-0.7c0.1,0.8,0.5,1.4,1.1,1.8c-0.2-0.5-0.4-1-0.2-1.4
								c3,0.5,3.7,2.4,6.2,2.6c0,0,0,0,0,0C30.8,16.8,29.7,16,28.6,15.1z"/>
						</g>
					</g>
				</g>
			</g>
		</g>
		<g>
			<g>
				<g>
					<g>
						<g>
							<path fill="#DAE5EF" d="M2.3,16.9C1.7,17.5,2,17.8,2.7,18c5,1.3,8.1-0.6,9.1-2.6c0.6-1.3,0.4-2.6-1-3.1
								C9.5,11.8,5.9,12.7,2.3,16.9z"/>
						</g>
					</g>
				</g>
				<g>
					<g>
						<g>
							<path fill="#FC97B2" d="M4,17.4c1.2-0.6,2.3-1.4,3.3-2.2c0.7-0.6,2.5-2,3.8-0.7C10.7,17.2,6.5,18,4,17.4z"/>
						</g>
					</g>
				</g>
				<g>
					<g>
						<g>
							<path fill="#FC97B2" d="M4,17.4c1.2-0.6,2.3-1.4,3.3-2.2c0.7-0.6,2.5-2,3.8-0.7C10.7,17.2,6.5,18,4,17.4z"/>
						</g>
					</g>
				</g>
				<g>
					<g>
						<g>
							<path fill="#FC97B2" d="M4,17.4c1.2-0.6,2.3-1.4,3.3-2.2c0.7-0.6,2.5-2,3.8-0.7C10.7,17.2,6.5,18,4,17.4z"/>
						</g>
					</g>
				</g>
				<g>
					<g>
						<g>
							<path fill="#F281A4" d="M7.4,15.1c0.7-0.6,2.5-2,3.8-0.7c-0.1,0.8-0.5,1.4-1.1,1.8c0.2-0.5,0.4-1,0.2-1.4
								c-3,0.5-3.7,2.4-6.2,2.6c0,0,0,0,0,0C5.2,16.8,6.3,16,7.4,15.1z"/>
						</g>
					</g>
				</g>
			</g>
		</g>
	</g>
	<g>
		<g>
			<g>
				<g>
					<g>
						<g>
							<path fill="#6D4135" d="M25.1,4.7c-0.6-1-1.1-1.3-1.8-1.9c-0.1-0.1-0.3-0.1-0.4,0c-0.2,0.1-0.3,0.4-0.1,0.5
								c0.4,0.7,0.6,0.9,0.7,1.9c0.1,0.7,0,1.5-0.2,2.1c-0.6,1.3-0.9,1.7-2.7,2.4c0.6,0.6,1.3,1.2,1.8,1.8c0.5,0.5,1,1.1,1.5,1.6
								c0.8-0.9,1.9-2.2,2-4.2C26.2,7.4,25.7,5.6,25.1,4.7z"/>
						</g>
					</g>
				</g>
				<g>
					<g>
						<g>
							<path fill="#633B2A" d="M25.1,4.7c-0.6-1-1.1-1.3-1.8-1.9c0,0-0.1,0-0.1,0c0.5,0.4,0.9,0.8,1.3,1.6C25,5.3,25.4,7,25.2,8.6
								c-0.2,1.9-1.2,3.1-1.9,3.9c0.2,0.2,0.5,0.5,0.7,0.7c0.8-0.9,1.9-2.2,2-4.2C26.2,7.4,25.7,5.6,25.1,4.7z"/>
						</g>
					</g>
				</g>
			</g>
			<g>
				<g>
					<g>
						<g>
							<path fill="#6D4135" d="M10.9,4.7c0.6-1,1.1-1.3,1.8-1.9c0.1-0.1,0.3-0.1,0.4,0c0.2,0.1,0.3,0.4,0.1,0.5
								c-0.4,0.7-0.6,0.9-0.7,1.9c-0.1,0.7,0,1.5,0.2,2.1c0.6,1.3,0.9,1.7,2.7,2.4c-0.6,0.6-1.3,1.2-1.8,1.8c-0.5,0.5-1,1.1-1.5,1.6
								c-0.8-0.9-1.9-2.2-2-4.2C9.8,7.4,10.3,5.6,10.9,4.7z"/>
						</g>
					</g>
				</g>
				<g>
					<g>
						<g>
							<path fill="#633B2A" d="M10.9,4.7c0.6-1,1.1-1.3,1.8-1.9c0,0,0.1,0,0.1,0c-0.5,0.4-0.9,0.8-1.3,1.6C11,5.3,10.6,7,10.8,8.6
								c0.2,1.9,1.2,3.1,1.9,3.9c-0.2,0.2-0.5,0.5-0.7,0.7c-0.8-0.9-1.9-2.2-2-4.2C9.8,7.4,10.3,5.6,10.9,4.7z"/>
						</g>
					</g>
				</g>
			</g>
		</g>
		<g>
			<g>
				<g>
					<g>
						<path fill="#DAE5EF" d="M24.3,30.6c-1.3,0.4-2.6,1.1-3.7,1.8c-1.6,1.1-3.7,1.1-5.2,0c-1.1-0.8-2.4-1.4-3.7-1.8
							c-5.5-1.8-5.8-6.5-4.1-9.3c0.9-1.5,1.5-3.2,1.9-4.9c0.8-3.9,3.3-7.3,6.7-6.7c1.2,0.2,2.4,0.2,3.6,0c3.5-0.6,5.9,2.9,6.7,6.8
							c0.4,1.7,0.9,3.4,1.8,4.9C30.1,24.1,29.8,28.9,24.3,30.6z"/>
					</g>
				</g>
			</g>
			<g>
				<g>
					<g>
						<path fill="#31373A" d="M19.3,9.8c-1.1,0.6-1.3,2.1-0.4,3c-0.6,0-1.2-0.4-1.5-0.9c-0.2,0.7,0,1.4,0.4,2
							c-1.9,0.4-3.3-1.7-2.3-3.3c-0.6,0.3-1.2,0.8-1.3,1.5c-0.8-1.3,0.5-3.4,2.7-3c-0.5-0.5-1.2-0.8-1.9-0.6
							C16.6,7.2,18.8,8.2,19.3,9.8z"/>
					</g>
				</g>
			</g>
			<g>
				<g>
					<g>
						<path fill="#3E4347" d="M19.3,9.8c-0.8,0-1.5,0.9-1.6,1.7c-0.2-0.3-0.3-0.6-0.3-1c-0.4,0.5-0.6,1.2-0.4,1.9
							c-0.8-0.6-1.1-1.3-0.8-2.3c-0.5-0.1-1.1,0.1-1.6,0.5c0.4-1.1,1.7-1.6,3.1-1.1c-0.2-0.4-0.4-0.8-0.8-1
							C17.7,8.4,18.9,9,19.3,9.8z"/>
					</g>
				</g>
			</g>
		</g>
		<g>
			<g>
				<g>
					<g>
						<g>
							<g>
								<path fill="#CBD6E0" d="M13.5,27.5c0.5,2.4,2.3,4.2,4.5,4.2s3.9-1.8,4.5-4.2H13.5z"/>
							</g>
						</g>
					</g>
					<g>
						<g>
							<g>
								<path fill="#6D4135" d="M14.6,27.7c0.3,1.9,1.7,3.3,3.4,3.3c1.7,0,3.1-1.4,3.4-3.3H14.6z"/>
							</g>
						</g>
					</g>
					<g>
						<g>
							<g>
								<path fill="#6D4135" d="M14.6,27.7c0.3,1.9,1.7,3.3,3.4,3.3c1.7,0,3.1-1.4,3.4-3.3H14.6z"/>
							</g>
						</g>
					</g>
					<g>
						<g>
							<g>
								<path fill="#5B331D" d="M16.9,27.7c-0.1,0.2-0.2,0.4-0.2,0.7c0.1,0.8,0.6,1.4,1.3,1.4c0.6,0,1.2-0.6,1.3-1.4
									c0-0.3-0.1-0.5-0.2-0.7H16.9z"/>
							</g>
						</g>
					</g>
				</g>
				<g>
					<g>
						<g>
							<g>
								<path fill="#FC97B2" d="M24.5,24.5c0,3.4-2.6,5-5.3,4.1c-0.7-0.3-1.7-0.3-2.4,0c-2.8,1-5.3-0.8-5.3-4.1c0-4.3,4.3-5,8.8-4.6
									C22.7,20.2,24.5,22.1,24.5,24.5z"/>
							</g>
						</g>
					</g>
					<g>
						<g>
							<g>
								<path fill="#F281A4" d="M24.5,24.9c-0.2,3.1-2.7,4.6-5.3,3.6c-0.7-0.3-1.7-0.3-2.4,0c-2.7,1-5.1-0.6-5.3-3.6
									c0.2,2.6,2.6,4,5.3,3.1c0.7-0.2,1.7-0.2,2.4,0C21.8,28.8,24.2,27.5,24.5,24.9z"/>
							</g>
						</g>
					</g>
					<g>
						<g>
							<g>
								<g>
									<g>
										<g>
											<circle fill="#FC97B2" cx="22.1" cy="22.2" r="1.9"/>
										</g>
									</g>
								</g>
								<g>
									<g>
										<g>
											<path fill="#F281A4" d="M23.3,23.7c0.8-0.9,0.7-1.9,0.1-2.6c-0.6-0.7-1.8-0.8-2.6-0.2c0.6-0.8,2-0.9,2.8,0
												C24.4,21.8,24.2,23.1,23.3,23.7z"/>
										</g>
									</g>
								</g>
							</g>
							<g>
								<g>
									<g>
										<g>
											<path fill="#F281A4" d="M22.7,21.7c0.3,0.3,0.4,0.7-0.1,1.1c-0.5,0.5-1.3,0.8-1.5,0.5c-0.2-0.2,0.1-1.1,0.5-1.5
												C22,21.3,22.3,21.3,22.7,21.7z"/>
										</g>
									</g>
								</g>
								<g>
									<g>
										<g>
											<path fill="#E56A96" d="M22.5,22.8c-0.1,0.1-0.1,0.1-0.2,0.2c0.1-0.2,0.1-0.4-0.1-0.5c-0.2-0.2-0.4-0.2-0.7,0.1
												c-0.3,0.3-0.6,0.6-0.5,0.8c-0.2-0.2,0.1-1.1,0.5-1.5c0.4-0.5,0.8-0.4,1.1-0.1C23,22,23,22.3,22.5,22.8z"/>
										</g>
									</g>
								</g>
							</g>
						</g>
						<g>
							<g>
								<g>
									<g>
										<g>
											<circle fill="#FC97B2" cx="13.9" cy="22.2" r="1.9"/>
										</g>
									</g>
								</g>
								<g>
									<g>
										<g>
											<path fill="#F281A4" d="M12.7,23.7c-0.8-0.9-0.7-1.9-0.1-2.6c0.6-0.7,1.8-0.8,2.6-0.2c-0.6-0.8-2-0.9-2.8,0
												C11.6,21.8,11.8,23.1,12.7,23.7z"/>
										</g>
									</g>
								</g>
							</g>
							<g>
								<g>
									<g>
										<g>
											<path fill="#F281A4" d="M13.3,21.7C13,22,13,22.3,13.4,22.8c0.5,0.5,1.3,0.8,1.5,0.5c0.2-0.2-0.1-1.1-0.5-1.5
												C14,21.3,13.7,21.3,13.3,21.7z"/>
										</g>
									</g>
								</g>
								<g>
									<g>
										<g>
											<path fill="#E56A96" d="M13.4,22.8c0.1,0.1,0.1,0.1,0.2,0.2c-0.1-0.2-0.1-0.4,0.1-0.5c0.2-0.2,0.4-0.2,0.7,0.1
												c0.3,0.3,0.6,0.6,0.5,0.8c0.2-0.2-0.1-1.1-0.5-1.5c-0.4-0.5-0.8-0.4-1.1-0.1C13,22,13,22.3,13.4,22.8z"/>
										</g>
									</g>
								</g>
							</g>
						</g>
					</g>
				</g>
				<g>
					<g>
						<path fill="#E24B4B" d="M20,30.3c-0.2-1.1-1.4-1.2-1.9-0.6C18,29.3,17.7,29,17.4,29c-0.6-0.2-1.3,0.2-1.7,1
							c0.6,0.6,1.4,1,2.3,1C18.7,31,19.4,30.7,20,30.3z"/>
					</g>
				</g>
			</g>
			<g>
				<g>
					<path fill="#D03F3F" d="M18.1,29.6C18,29.3,17.7,29,17.4,29c-0.6-0.2-1.3,0.2-1.7,1c0.3,0.3,0.6,0.5,1,0.7
						c-0.5-0.5-0.5-1.1-0.1-1.4c0.4-0.3,1.1-0.1,1.3,0.6c0.1,0.3,0.1,0.6,0.1,0.8c0.1-0.8,0.5-1.5,1.4-1.3
						C19,29.2,18.4,29.3,18.1,29.6z"/>
				</g>
			</g>
			<g opacity="0.2">
				<g>
					<g>
						<path fill="#FFFFFF" d="M19.3,29.6c0.2,0,0.3,0.2,0.4,0.3c0.1,0.2-0.3,0.5-0.5,0.1c-0.1-0.1-0.1,0-0.3-0.1
							c-0.1,0-0.1-0.2-0.1-0.2C18.9,29.6,19.1,29.6,19.3,29.6z"/>
					</g>
				</g>
			</g>
		</g>
		<g>
			<g>
				<g>
					<g>
						<path fill="#3E4347" d="M28.4,21.3c-0.2-0.3-0.3-0.5-0.4-0.8c-0.3,0.2-0.7,0.5-1.1,0.6c-1.7,0.4-1.8,1.8-1.3,2.8
							c-0.3,1.3,1.1,2.1,2.1,1.7c1.1-0.4,0.8-1.2,0.9-2c0-0.4,0.2-0.8,0.5-1.2C28.8,22.1,28.6,21.7,28.4,21.3z"/>
					</g>
				</g>
				<g>
					<g>
						<g>
							<path fill="#3E4347" d="M26.7,28.5c-0.4,0.4-1,0.6-1.5,0.7c-1.2,0.2-1.4-0.9-0.7-1.6c0.3-0.3,0.8-0.5,1.3-0.6
								C27.3,26.5,27.5,27.7,26.7,28.5z"/>
						</g>
					</g>
				</g>
			</g>
			<g>
				<g>
					<g>
						<path fill="#3E4347" d="M9.2,21.2c-0.4-0.1-0.8-0.4-1.1-0.6c-0.1,0.3-0.3,0.5-0.4,0.8c-0.2,0.4-0.4,0.8-0.6,1.2
							c0.2,0.4,0.4,0.8,0.4,1.2c0.1,0.9-0.2,1.6,0.9,2c0.9,0.4,2.4-0.4,2.1-1.7C10.9,23,10.8,21.6,9.2,21.2z"/>
					</g>
				</g>
				<g>
					<g>
						<g>
							<path fill="#3E4347" d="M9.3,28.5c0.4,0.4,1,0.6,1.5,0.7c1.2,0.2,1.4-0.9,0.7-1.6c-0.3-0.3-0.8-0.5-1.3-0.6
								C8.7,26.5,8.5,27.7,9.3,28.5z"/>
						</g>
					</g>
				</g>
			</g>
		</g>
		<g>
			<g>
				<g>
					<g>
						<g>
							<g>
								<path fill="#3E4347" d="M19.5,16.3c0.1,1.7,1.2,3,2.4,3c1.2,0,2.1-1.4,2.1-3c-0.1-1.7-1.2-3-2.4-3
									C20.3,13.2,19.4,14.6,19.5,16.3z"/>
							</g>
						</g>
					</g>
					<g>
						<g>
							<g>
								<path fill="#FFFFFF" d="M19.4,16.8c0.1,1.6,1.2,3,2.4,3c1.2,0,2.1-1.3,2.1-3c-0.1-1.6-1.2-3-2.4-3
									C20.2,13.8,19.3,15.1,19.4,16.8z"/>
							</g>
						</g>
					</g>
					<g>
						<g>
							<g>
								<ellipse fill="#65B1EF" cx="21.8" cy="17.2" rx="1.4" ry="1.8"/>
							</g>
						</g>
					</g>
					<g>
						<g>
							<g>
								<ellipse fill="#3E4347" cx="21.8" cy="17.3" rx="0.8" ry="0.9"/>
							</g>
						</g>
					</g>
				</g>
				<g>
					<g>
						<circle fill="#FFFFFF" cx="22.3" cy="16.7" r="0.4"/>
					</g>
				</g>
			</g>
			<g>
				<g>
					<g>
						<g>
							<g>
								<path fill="#3E4347" d="M16.6,16.3c-0.1,1.7-1.2,3-2.4,3c-1.2,0-2.1-1.4-2.1-3c0.1-1.7,1.2-3,2.4-3
									C15.8,13.2,16.7,14.6,16.6,16.3z"/>
							</g>
						</g>
					</g>
					<g>
						<g>
							<g>
								<path fill="#FFFFFF" d="M16.7,16.8c-0.1,1.6-1.2,3-2.4,3c-1.2,0-2.1-1.3-2.1-3c0.1-1.6,1.2-3,2.4-3
									C15.9,13.8,16.8,15.1,16.7,16.8z"/>
							</g>
						</g>
					</g>
					<g>
						<g>
							<g>
								<ellipse fill="#65B1EF" cx="14.3" cy="17.2" rx="1.4" ry="1.8"/>
							</g>
						</g>
					</g>
					<g>
						<g>
							<g>
								<ellipse fill="#3E4347" cx="14.3" cy="17.3" rx="0.8" ry="0.9"/>
							</g>
						</g>
					</g>
				</g>
				<g>
					<g>
						<circle fill="#FFFFFF" cx="14.9" cy="16.7" r="0.4"/>
					</g>
				</g>
			</g>
		</g>
		<g>
			<g>
				<g>
					<g>
						<g>
							<g>
								<path fill="#3E4347" d="M19.4,16.3c0.1,1.7,1.2,3,2.4,3c1.2,0,2.1-1.4,2.1-3c-0.1-1.7-1.2-3-2.4-3
									C20.3,13.2,19.3,14.6,19.4,16.3z"/>
							</g>
						</g>
					</g>
					<g>
						<g>
							<g>
								<path fill="#FFFFFF" d="M19.3,16.8c0.1,1.6,1.2,3,2.4,3c1.2,0,2.1-1.3,2.1-3c-0.1-1.6-1.2-3-2.4-3
									C20.2,13.8,19.2,15.1,19.3,16.8z"/>
							</g>
						</g>
					</g>
					<g>
						<g>
							<g>
								<ellipse fill="#65B1EF" cx="21.7" cy="17.2" rx="1.4" ry="1.8"/>
							</g>
						</g>
					</g>
					<g>
						<g>
							<g>
								<ellipse fill="#3E4347" cx="21.7" cy="17.3" rx="0.8" ry="0.9"/>
							</g>
						</g>
					</g>
				</g>
				<g>
					<g>
						<circle fill="#FFFFFF" cx="22.2" cy="16.7" r="0.4"/>
					</g>
				</g>
			</g>
			<g>
				<g>
					<g>
						<g>
							<g>
								<path fill="#3E4347" d="M16.6,16.3c-0.1,1.7-1.2,3-2.4,3c-1.2,0-2.1-1.4-2.1-3c0.1-1.7,1.2-3,2.4-3
									C15.7,13.2,16.7,14.6,16.6,16.3z"/>
							</g>
						</g>
					</g>
					<g>
						<g>
							<g>
								<path fill="#FFFFFF" d="M16.7,16.8c-0.1,1.6-1.2,3-2.4,3c-1.2,0-2.1-1.3-2.1-3c0.1-1.6,1.2-3,2.4-3
									C15.8,13.8,16.8,15.1,16.7,16.8z"/>
							</g>
						</g>
					</g>
					<g>
						<g>
							<g>
								<ellipse fill="#65B1EF" cx="14.3" cy="17.2" rx="1.4" ry="1.8"/>
							</g>
						</g>
					</g>
					<g>
						<g>
							<g>
								<ellipse fill="#3E4347" cx="14.3" cy="17.3" rx="0.8" ry="0.9"/>
							</g>
						</g>
					</g>
				</g>
				<g>
					<g>
						<circle fill="#FFFFFF" cx="14.8" cy="16.7" r="0.4"/>
					</g>
				</g>
			</g>
		</g>
		<g opacity="0.45">
			<g>
				<g>
					<path fill="#CBD6E0" d="M29.2,25.3c0,0.1-0.1,0.6-0.3,1.2c-1.2,3.4-4.8,4-6.1,4.6c-0.8,0.4-1.5,0.8-2.3,1.3
						c-1.6,1.1-3.6,1-5.1,0c-2.2-1.5-3.6-1.8-4.6-2.2c-1.7-0.7-3.2-2-3.8-3.8c-0.2-0.5-0.2-0.8-0.3-1.2C6.9,25.8,7,26,7.1,26.5
						c0.6,1.3,1.9,2.7,3.9,3.4c0.8,0.3,2.2,0.5,4.7,2.1c1.4,0.9,3.2,0.8,4.5,0c0.8-0.5,1.6-1,2.4-1.3c1.4-0.6,4.9-1.1,6.2-4.2
						C29.1,26,29.2,25.6,29.2,25.3z"/>
				</g>
			</g>
		</g>
	</g>
</g>
</svg>
