<?xml version="1.0" encoding="utf-8"?>
<!-- Generator: Adobe Illustrator 18.0.0, SVG Export Plug-In . SVG Version: 6.00 Build 0)  -->
<!DOCTYPE svg PUBLIC "-//W3C//DTD SVG 1.1//EN" "http://www.w3.org/Graphics/SVG/1.1/DTD/svg11.dtd">
<svg version="1.1" id="Layer_1" xmlns="http://www.w3.org/2000/svg" xmlns:xlink="http://www.w3.org/1999/xlink" x="0px" y="0px"
	 viewBox="0 0 36 36" enable-background="new 0 0 36 36" xml:space="preserve">
<g>
	<g>
		<g>
			<g>
				<g>
					<g>
						<g>
							<path fill="#6D4135" d="M33.9,15.7c0.4,2-1,4.2-3.1,4.8s-4.1,0.2-4.5-1.8s1-4.9,3.1-5.5C31.6,12.6,33.6,13.7,33.9,15.7z"/>
						</g>
					</g>
				</g>
				<g>
					<g>
						<path fill="#633B2A" d="M32.3,19.7c-2.6,0.6-3.5-1.4-3-3.3l-0.9,1.3c-0.2-1.1,0.5-2.3,0.9-3.2c-0.7,0.6-1.2,1.4-1.6,2.2
							c0.2-1.6,1.3-3.1,2.9-3.8c-0.4,0-0.7,0.1-1.1,0.2c-2.1,0.7-3.5,3.5-3.1,5.5c0.4,2,2.4,2.4,4.5,1.8
							C31.4,20.4,31.9,20.1,32.3,19.7z"/>
					</g>
				</g>
				<g>
					<g>
						<g>
							<path fill="#FFD93B" d="M33.1,16.6c0.2,1.1-0.7,2.4-2,2.9s-2.5,0.1-2.7-1s0.7-2.4,2-2.9C31.7,15.1,32.9,15.5,33.1,16.6z"/>
						</g>
					</g>
				</g>
				<g>
					<g>
						<g>
							<path fill="#F4C534" d="M32.8,16c-0.5-0.4-1.3-0.4-2.1-0.1c-1.2,0.5-2.1,1.8-1.9,2.8c0.1,0.5,0.4,0.8,0.8,1
								c-0.7-0.1-1.2-0.5-1.3-1.2c-0.2-1.1,0.7-2.4,2-2.9C31.4,15.2,32.4,15.4,32.8,16z"/>
						</g>
					</g>
				</g>
			</g>
		</g>
		<g>
			<g>
				<g>
					<g>
						<g>
							<path fill="#6D4135" d="M2.1,15.7c-0.4,2,1,4.2,3.1,4.8s4.1,0.2,4.5-1.8c0.4-2-1-4.9-3.1-5.5C4.4,12.6,2.4,13.7,2.1,15.7z"/>
						</g>
					</g>
				</g>
				<g>
					<g>
						<path fill="#633B2A" d="M3.7,19.7c2.6,0.6,3.5-1.4,3-3.3l0.9,1.3c0.2-1.1-0.5-2.3-0.9-3.2c0.7,0.6,1.2,1.4,1.6,2.2
							c-0.2-1.6-1.3-3.1-2.9-3.8c0.4,0,0.7,0.1,1.1,0.2c2.1,0.7,3.5,3.5,3.1,5.5c-0.4,2-2.4,2.4-4.5,1.8C4.6,20.4,4.1,20.1,3.7,19.7
							z"/>
					</g>
				</g>
				<g>
					<g>
						<g>
							<path fill="#FFD93B" d="M2.9,16.6c-0.2,1.1,0.7,2.4,2,2.9s2.5,0.1,2.7-1c0.2-1.1-0.7-2.4-2-2.9S3.1,15.5,2.9,16.6z"/>
						</g>
					</g>
				</g>
				<g>
					<g>
						<g>
							<path fill="#F4C534" d="M3.2,16c0.5-0.4,1.3-0.4,2.1-0.1c1.2,0.5,2.1,1.8,1.9,2.8c-0.1,0.5-0.4,0.8-0.8,1
								c0.7-0.1,1.2-0.5,1.3-1.2c0.2-1.1-0.7-2.4-2-2.9C4.6,15.2,3.6,15.4,3.2,16z"/>
						</g>
					</g>
				</g>
			</g>
		</g>
	</g>
	<g>
		<g>
			<g>
				<g>
					<g>
						<path fill="#6D4135" d="M21,6.5c1.6,0.8,1,2.3,0,4.2c0.1-1.4-0.1-2.8-0.7-4.1c-1.1,1.5-2.2,3.2-2.2,5.1
							c-0.7-1.6-0.8-3.5-0.2-5.2c-1.6,1.2-2.6,3.2-2.7,5.2c-0.3-2-0.8-4.8-2.8-6.4c0.9-0.2,1.9-0.1,2.7,0.2c0.5-1.1,1.1-2.2,1.8-3.1
							c-0.2,0.9-0.2,1.8,0,2.7c0.8-1.5,2.3-2.7,4-3c-0.8,0.9-1.4,1.9-1.8,3c1.8-0.8,3.6-0.3,5.1,1.8C23.1,6.2,22.1,6,21,6.5z"/>
					</g>
				</g>
				<g>
					<g>
						<path fill="#6D4135" d="M17.9,31.8c-6.8,0-12.1-4.5-11.3-8.7c0.2-0.9,0.3-1.9,0.1-2.9C5.2,13.2,10.2,6,18,6
							c7.8,0,12.8,7.2,11.3,14.2c-0.2,1-0.1,2,0.1,2.9C30.2,27.3,24.7,31.8,17.9,31.8z"/>
					</g>
				</g>
				<g>
					<g>
						<g>
							<path fill="#633B2A" d="M23.4,10.4c-2.1,0.7-2.2,0.6-5.3,5c-0.7-2.4-2.9-4-5.3-4.1c1-0.5,2.2-0.7,3.4-0.4
								c-0.6-0.8-1.7-1.4-2.8-1.4c1.7-0.7,3.1-0.5,4,0.1c0.4-0.7,0.6-1.9,0.4-2.7c1.1,1,1.4,2.6,0.6,3.9c1-1.2,2.5-1.9,4.1-1.9
								c-0.8,0.4-1.6,1.1-1.9,1.9C21.5,10.4,22.5,10.2,23.4,10.4z"/>
						</g>
					</g>
				</g>
				<g>
					<g>
						<g>
							<path fill="#FFD93B" d="M26.5,16.9c0,2.8-2.1,5-4.6,5c-1.7,0-3.1-0.9-3.9-2.4c-0.8,1.4-2.3,2.4-3.9,2.4c-2.5,0-4.6-2.2-4.6-5
								c0-2.7,2.1-5,4.6-5c1.7,0,3.1,0.9,3.9,2.4c0.8-1.4,2.3-2.4,3.9-2.4C24.5,11.9,26.5,14.2,26.5,16.9z"/>
						</g>
					</g>
				</g>
				<g>
					<g>
						<g>
							<path fill="#FFD93B" d="M26.3,25.1c0,3.2-2.2,6-5.4,7.1c-0.7,0.9-1.8,1.6-3,1.6c-1.2,0-2.3-0.6-2.9-1.5
								c-3.3-1-5.6-3.9-5.6-7.2c0-4.2,3.8-7.6,8.5-7.6C22.5,17.5,26.3,20.9,26.3,25.1z"/>
						</g>
					</g>
				</g>
				<g>
					<g>
						<g>
							<g>
								<path fill="#F4C534" d="M22.8,25.7c0,0.1-0.6,1.6-1.1,2.6c-1.5,2.8-2.3,3.3-3.7,3.3c-1.4,0-2.3-0.5-3.7-3.3
									c-0.5-0.9-0.9-2.1-1.1-2.5C15,27.3,20.9,27.1,22.8,25.7z"/>
							</g>
						</g>
					</g>
				</g>
				<g>
					<g>
						<g>
							<g>
								<path fill="#3E4347" d="M22.2,26c-0.1,0.2-0.5,1.4-1,2.3c-1.3,2.5-2,2.9-3.3,2.9c-1.3,0-2-0.4-3.3-2.9
									c-0.4-0.7-0.8-1.8-0.9-2.2C15.8,27.1,20.1,27,22.2,26z"/>
							</g>
						</g>
					</g>
				</g>
				<g>
					<g>
						<g>
							<g>
								<path fill="#31373A" d="M15.8,27.2c0.9,3,1.5,3.3,2.1,3.3c0.6,0,1.2-0.2,2.1-3.3C18.6,27.5,17.2,27.5,15.8,27.2z"/>
							</g>
						</g>
					</g>
				</g>
				<g>
					<g>
						<g>
							<path fill="#E24B4B" d="M15,27.2l0,0.6c0,0,2.1,0.7,2.9,0.7c0.7,0,2.9-0.6,2.9-0.6L20.7,27L15,27.2z"/>
						</g>
					</g>
				</g>
				<g>
					<g>
						<path fill="#E24B4B" d="M13.7,26.1c0.1,0.2,0.2,0.5,0.4,0.9c1.5,1.5,6.5,1.4,7.8-0.1c0.1-0.4,0.3-0.6,0.3-0.8
							C19.3,27.1,16.5,27.1,13.7,26.1z"/>
					</g>
				</g>
				<g>
					<g>
						<path fill="#D03F3F" d="M22.1,26.1c-0.1,0.1-0.2,0.4-0.3,0.8c-0.1,0.2-0.3,0.3-0.5,0.4c-0.1-0.3-0.2-0.5-0.4-0.5
							c-0.2,0-0.3,0.2-0.4,0.5c-0.1-0.2-0.2-0.3-0.4-0.3c-0.2,0-0.4,0.1-0.6,0.7c-0.2-0.3-0.4-0.5-0.6-0.5c-0.2,0-0.4,0.2-0.6,0.6
							c-0.2-0.3-0.4-0.5-0.6-0.5c-0.1,0-0.4,0.1-0.5,0.5c-0.2-0.4-0.4-0.6-0.6-0.6c-0.2,0-0.4,0.1-0.5,0.4C16,27.1,15.8,27,15.6,27
							c-0.1,0-0.3,0.1-0.4,0.3c-0.1-0.3-0.2-0.5-0.4-0.5c-0.2,0-0.3,0.3-0.4,0.6c-0.2-0.1-0.3-0.2-0.5-0.3c-0.2-0.4-0.3-0.7-0.4-0.9
							C16.5,27.1,19.3,27.1,22.1,26.1z"/>
					</g>
				</g>
				<g>
					<g>
						<g>
							<g>
								<g>
									<g>
										<path fill="#3E4347" d="M23.6,19.4c0.2-0.5,0.4-1,0.4-1.5c0-1.6-0.9-2.9-2.1-2.9c-1.2,0-2.2,1.3-2.3,2.9
											c0,0.6,0.1,1.1,0.3,1.5H23.6z"/>
									</g>
								</g>
							</g>
							<g>
								<g>
									<g>
										<path fill="#FFFFFF" d="M23.9,18.1c0,2.1-1,2.7-2.2,2.7c-1.2,0-2.2-0.6-2.2-2.7c0-1.5,1-2.7,2.2-2.7
											C22.9,15.5,23.9,16.7,23.9,18.1z"/>
									</g>
								</g>
							</g>
						</g>
						<g>
							<g>
								<g>
									<g>
										<ellipse fill="#65B1EF" cx="21.6" cy="18.8" rx="1.3" ry="1.4"/>
									</g>
								</g>
							</g>
							<g>
								<g>
									<g>
										<ellipse fill="#3E4347" cx="21.6" cy="19" rx="0.7" ry="0.7"/>
									</g>
								</g>
							</g>
							<g>
								<g>
									<circle fill="#FFFFFF" cx="22" cy="18.5" r="0.3"/>
								</g>
							</g>
						</g>
					</g>
					<g>
						<g>
							<g>
								<path fill="#3E4347" d="M24.4,16.2c-0.1-0.5-0.6-1.2-1-1.5c-0.4-0.4-0.9-0.5-1.4-0.5c-0.1,0-0.2,0-0.3-0.1
									c-0.3-0.1-0.3-0.5,0-0.6c0.1,0,0.2-0.1,0.3-0.1c0.8,0,1.5,0.4,1.8,0.9C24.3,14.9,24.5,15.6,24.4,16.2z"/>
							</g>
						</g>
					</g>
				</g>
				<g>
					<g>
						<g>
							<g>
								<g>
									<g>
										<path fill="#3E4347" d="M12.4,19.4c-0.2-0.5-0.4-1-0.4-1.5c0-1.6,0.9-2.9,2.1-2.9c1.2,0,2.2,1.3,2.3,2.9
											c0,0.6-0.1,1.1-0.3,1.5H12.4z"/>
									</g>
								</g>
							</g>
							<g>
								<g>
									<g>
										<path fill="#FFFFFF" d="M12.1,18.1c0,2.1,1,2.7,2.2,2.7c1.2,0,2.2-0.6,2.2-2.7c0-1.5-1-2.7-2.2-2.7
											C13.1,15.5,12.1,16.7,12.1,18.1z"/>
									</g>
								</g>
							</g>
						</g>
						<g>
							<g>
								<g>
									<g>
										<ellipse fill="#65B1EF" cx="14.4" cy="18.8" rx="1.3" ry="1.4"/>
									</g>
								</g>
							</g>
							<g>
								<g>
									<g>
										<ellipse fill="#3E4347" cx="14.4" cy="19" rx="0.7" ry="0.7"/>
									</g>
								</g>
							</g>
							<g>
								<g>
									<circle fill="#FFFFFF" cx="14" cy="18.5" r="0.3"/>
								</g>
							</g>
						</g>
					</g>
					<g>
						<g>
							<g>
								<path fill="#3E4347" d="M11.5,16.2c0.1-0.5,0.6-1.2,1-1.5c0.4-0.4,0.9-0.5,1.4-0.5c0.1,0,0.2,0,0.3-0.1
									c0.3-0.1,0.3-0.5,0-0.6c-0.1,0-0.2-0.1-0.3-0.1c-0.8,0-1.5,0.4-1.8,0.9C11.6,14.9,11.4,15.6,11.5,16.2z"/>
							</g>
						</g>
					</g>
				</g>
				<g>
					<g>
						<g>
							<g>
								<g>
									<path fill="#FFD93B" d="M23.4,24.5c0.2,2.9-11.3,3.2-11,0"/>
								</g>
							</g>
						</g>
					</g>
				</g>
				<g>
					<g>
						<g>
							<path fill="#F4C534" d="M14.5,31.3c0.4,0.9,1.1,1.6,1.9,2c0.5,0.2,1,0.3,1.5,0.3c1,0,1.9-0.4,2.7-1.1
								c0.3-0.3,0.6-0.7,0.8-1.2c-0.1,0.5-0.3,0.9-0.6,1.3c-0.6,0.8-1.6,1.4-2.8,1.4c-0.6,0-1.2-0.2-1.7-0.4
								C15.4,33.1,14.8,32.4,14.5,31.3z"/>
						</g>
					</g>
				</g>
				<g>
					<g>
						<g>
							<g>
								<path fill="#F4C534" d="M26.3,25.5c0,0.8,0,1.6-0.6,2.9c-0.4,0.7-0.8,1.4-1.5,2.1c-0.4,0.4-1.6,1.4-3.3,1.8
									c0.4-0.2,1.9-0.9,3-2.1c0.6-0.6,1.1-1.3,1.5-2C26.2,26.5,26.2,26.1,26.3,25.5z"/>
							</g>
						</g>
						<g>
							<g>
								<path fill="#F4C534" d="M15,32.3c-2.1-0.5-3.8-1.8-4.6-3.2c-0.6-0.9-1.1-2.3-1-3.7c0.1,0.4,0.3,1.9,1.4,3.5
									C11.4,30,12.5,31.1,15,32.3z"/>
							</g>
						</g>
					</g>
				</g>
				<g>
					<g>
						<g>
							<g>
								<g>
									<g>
										<g>
											<path fill="#F4C534" d="M20,24.3c-0.4,0.5-1.3,1-1.8,1c0-0.8,0-1.8,0.9-2.1C19.8,22.9,20.5,23.6,20,24.3z"/>
										</g>
									</g>
								</g>
								<g>
									<g>
										<g>
											<path fill="#E9B02C" d="M20,24.3c-0.1,0.1-0.2,0.2-0.3,0.3c0-0.2-0.2-0.3-0.5-0.3c-0.6,0.1-0.8,0.6-1,0.9
												c0-0.8,0-1.7,0.9-2C19.8,22.9,20.5,23.6,20,24.3z"/>
										</g>
									</g>
								</g>
							</g>
							<g>
								<g>
									<g>
										<path fill="#E9B02C" d="M20.6,24.1c-0.1,0.4-0.5,0.8-0.8,0.9c0.3-0.4,0.4-0.5,0.6-1c0.1-0.5,0-0.9-0.4-1.1
											c-0.4-0.3-0.7-0.2-1.1-0.1c0.4-0.3,0.9-0.2,1.2-0.1C20.7,23.1,20.8,23.6,20.6,24.1z"/>
									</g>
								</g>
							</g>
						</g>
						<g>
							<g>
								<g>
									<g>
										<g>
											<path fill="#F4C534" d="M15.6,24.3c0.4,0.5,1.3,1,1.8,1c0-0.8,0-1.8-0.9-2.1C15.8,22.9,15.1,23.6,15.6,24.3z"/>
										</g>
									</g>
								</g>
								<g>
									<g>
										<g>
											<path fill="#E9B02C" d="M15.6,24.3c0.1,0.1,0.2,0.2,0.3,0.3c0-0.2,0.2-0.3,0.5-0.3c0.6,0.1,0.8,0.6,1,0.9
												c0-0.8,0-1.7-0.9-2C15.8,22.9,15.1,23.6,15.6,24.3z"/>
										</g>
									</g>
								</g>
							</g>
							<g>
								<g>
									<g>
										<path fill="#E9B02C" d="M15,24.1c0.1,0.4,0.5,0.8,0.8,0.9c-0.3-0.4-0.4-0.5-0.6-1c-0.1-0.5,0-0.9,0.4-1.1
											c0.4-0.3,0.7-0.2,1.1-0.1c-0.4-0.3-0.9-0.2-1.2-0.1C15,23.1,14.8,23.6,15,24.1z"/>
									</g>
								</g>
							</g>
						</g>
					</g>
				</g>
				<g>
					<g>
						<path fill="#E24B4B" d="M17.9,31.2c0.9,0,1.5-0.2,2.2-1.2c0-0.1-0.1-0.2-0.1-0.3c-0.6-0.8-1.6-0.8-2.2-0.3
							c-0.4-0.7-1.7-0.8-2.2,0.4c0,0,0,0.1,0,0.1C16.3,31,17,31.2,17.9,31.2z"/>
					</g>
				</g>
				<g>
					<g>
						<path fill="#D03F3F" d="M17.8,29.4c-0.4-0.7-1.7-0.8-2.2,0.4c0,0,0,0.1,0,0.1c0.4,0.6,0.9,1,1.3,1.2c-0.8-0.6-0.8-1.3-0.4-1.7
							c0.5-0.5,1.4-0.2,1.6,1.2c0-0.6,0.3-1.5,1.3-1.3C18.8,29,18.2,29.1,17.8,29.4z"/>
					</g>
				</g>
				<g opacity="0.15">
					<g>
						<g>
							<path fill="#FFFFFF" d="M19.6,30c-0.2,0.4-0.5-0.2-0.8-0.2c-0.1,0-0.3-0.1-0.2-0.2C19,29.1,19.8,29.6,19.6,30z"/>
						</g>
					</g>
				</g>
			</g>
			<g>
				<g>
					<g>
						<path fill="#3E4347" d="M12.3,25c1.3,1.2,3.8,1.4,5.6,1.4c1.9,0,4.7-0.4,5.7-1.4c-1,1.6-3.7,2.1-5.7,2.2
							C15.9,27.2,13.2,26.8,12.3,25z"/>
					</g>
				</g>
			</g>
			<g>
				<g>
					<g>
						<g>
							<g>
								<g>
									<path fill="#E9EFF4" d="M20.6,27.7c-0.1,0.7,0.7,0.5,0.7,0C21.2,26.8,20.8,26.4,20.6,27.7z"/>
								</g>
							</g>
						</g>
						<g>
							<g>
								<path fill="#DEE4E9" d="M20.6,27.7c0-0.1,0-0.2,0-0.3c0,0,0,0,0,0C20.5,28,20.8,28,21,27.9c0.3-0.2,0.3-0.4,0.2-0.8
									c0.1,0.2,0.1,0.4,0.1,0.6C21.3,28.2,20.5,28.4,20.6,27.7z"/>
							</g>
						</g>
					</g>
					<g>
						<g>
							<g>
								<g>
									<path fill="#E9EFF4" d="M15.2,27.7c0.1,0.7-0.7,0.5-0.7,0C14.6,26.8,15.1,26.4,15.2,27.7z"/>
								</g>
							</g>
						</g>
						<g>
							<g>
								<path fill="#DEE4E9" d="M15.2,27.7c0-0.1,0-0.2,0-0.3c0,0,0,0,0,0c0.1,0.5-0.2,0.5-0.4,0.4c-0.3-0.2-0.3-0.4-0.2-0.8
									c-0.1,0.2-0.1,0.4-0.1,0.6C14.5,28.2,15.3,28.4,15.2,27.7z"/>
							</g>
						</g>
					</g>
				</g>
				<g>
					<g>
						<g>
							<g>
								<g>
									<g>
										<path fill="#E9EFF4" d="M16.2,28.2c-0.2,0.9,1.4,0.5,1.3,0C17.1,27.2,16.5,26.8,16.2,28.2z"/>
									</g>
								</g>
							</g>
							<g>
								<g>
									<path fill="#DEE4E9" d="M17.4,28.2c-0.1-0.2-0.1-0.3-0.2-0.5c0,0.1,0,0.2,0,0.4c-0.1,0.4-0.7,0.5-0.9,0.3
										c-0.1-0.1-0.1-0.2-0.1-0.4c0,0,0,0.1,0,0.1C16,29.1,17.6,28.8,17.4,28.2z"/>
								</g>
							</g>
						</g>
						<g>
							<g>
								<g>
									<path fill="#E9EFF4" d="M16.3,28.1c0.2,0.8-1.1,0.5-1.1,0C15.2,27,15.9,26.5,16.3,28.1z"/>
								</g>
							</g>
						</g>
						<g>
							<g>
								<g>
									<path fill="#DEE4E9" d="M16.3,28.1c0-0.1-0.1-0.2-0.1-0.3c0,0,0,0,0,0c0.2,0.6-0.2,0.6-0.5,0.5c-0.4-0.2-0.4-0.5-0.3-0.9
										c-0.1,0.2-0.1,0.4-0.1,0.7C15.2,28.6,16.5,28.9,16.3,28.1z"/>
								</g>
							</g>
						</g>
					</g>
					<g>
						<g>
							<g>
								<g>
									<g>
										<path fill="#E9EFF4" d="M18.4,28.2c-0.2,0.9,1.4,0.5,1.3,0C19.4,27.2,18.7,26.8,18.4,28.2z"/>
									</g>
								</g>
							</g>
							<g>
								<g>
									<path fill="#DEE4E9" d="M19.7,28.2c-0.1-0.2-0.1-0.3-0.2-0.5c0,0.1,0,0.2,0,0.4c-0.1,0.4-0.7,0.5-0.9,0.3
										c-0.1-0.1-0.1-0.2-0.1-0.4c0,0,0,0.1,0,0.1C18.2,29.1,19.9,28.8,19.7,28.2z"/>
								</g>
							</g>
						</g>
					</g>
					<g>
						<g>
							<g>
								<g>
									<path fill="#E9EFF4" d="M17.3,28.4c-0.1,0.7,1.3,0.4,1.2,0C18.3,27.3,17.6,26.8,17.3,28.4z"/>
								</g>
							</g>
						</g>
					</g>
					<g>
						<g>
							<path fill="#DEE4E9" d="M18.3,28.3c-0.1,0.1-0.2,0.3-0.3,0.3c-0.2,0.1-0.3,0.1-0.5,0c-0.1-0.1-0.2-0.3-0.2-0.4
								c0,0.1,0,0.2-0.1,0.3c-0.1,0.7,1.3,0.4,1.2,0c0-0.2-0.1-0.3-0.1-0.4C18.4,28.1,18.4,28.2,18.3,28.3z"/>
						</g>
					</g>
				</g>
				<g>
					<g>
						<g>
							<g>
								<path fill="#E9EFF4" d="M19.6,28.1c-0.2,0.8,1.1,0.5,1.1,0C20.6,27,20,26.5,19.6,28.1z"/>
							</g>
						</g>
					</g>
					<g>
						<g>
							<path fill="#DEE4E9" d="M19.6,28.1c0-0.1,0.1-0.2,0.1-0.3c0,0,0,0,0,0c-0.2,0.6,0.2,0.6,0.5,0.5c0.4-0.2,0.4-0.5,0.3-0.9
								c0.1,0.2,0.1,0.4,0.1,0.7C20.6,28.6,19.4,28.9,19.6,28.1z"/>
						</g>
					</g>
				</g>
			</g>
			<g>
				<g>
					<g>
						<g>
							<path fill="#FFD93B" d="M24.6,23.9l1.5-0.2c-0.5-3.3-4.1-4.4-6.5-2.8v0.6C22.9,22.3,23.9,23,24.6,23.9z"/>
						</g>
					</g>
					<g>
						<g>
							<g>
								<g>
									<path fill="#F4C534" d="M26.1,23.7c-0.1-0.4-0.6-2-1.8-2.8c-0.9-0.7-2.3-1-4.7,0c1.7-1.4,3.7-1.2,4.9-0.3
										C25.3,21.1,26,22.2,26.1,23.7z"/>
								</g>
							</g>
						</g>
					</g>
				</g>
				<g>
					<g>
						<g>
							<path fill="#FFD93B" d="M11.1,23.9l-1.5-0.2c0.5-3.3,4.1-4.4,6.5-2.8v0.6C12.7,22.3,11.8,23,11.1,23.9z"/>
						</g>
					</g>
					<g>
						<g>
							<g>
								<g>
									<path fill="#F4C534" d="M9.5,23.7c0.1-0.9,0.3-1.6,0.6-1.9c0.4-0.9,1.1-1.3,1.7-1.6c0.4-0.2,1.1-0.5,2.4-0.2
										c0.4,0.1,1.1,0.4,1.8,0.9c-0.4-0.2-1.2-0.6-1.9-0.6c-1.2-0.1-1.7,0.1-2.1,0.3c-0.4,0.2-1.1,0.6-1.7,1.4
										C9.9,22.5,9.7,23.3,9.5,23.7z"/>
								</g>
							</g>
						</g>
					</g>
				</g>
			</g>
		</g>
		<g>
			<g>
				<g>
					<g>
						<path fill="#3E4347" d="M23.1,24.5c0.2-0.2,0.5-0.2,0.7-0.1c0.1,0.1,0.2,0.2,0.3,0.3c0.2,0.3,0.1,0.8,0,1.1c0-0.3,0-0.7-0.2-1
							c-0.1-0.1-0.2-0.2-0.2-0.2C23.5,24.4,23.1,24.5,23.1,24.5z"/>
					</g>
				</g>
			</g>
			<g>
				<g>
					<g>
						<path fill="#3E4347" d="M12.9,24.5c0,0-0.3-0.1-0.6,0c-0.1,0-0.1,0.1-0.2,0.2c-0.2,0.3-0.1,0.7-0.2,1c-0.1-0.3-0.2-0.7,0-1.1
							c0.1-0.1,0.2-0.2,0.3-0.3C12.3,24.3,12.6,24.3,12.9,24.5z"/>
					</g>
				</g>
			</g>
		</g>
	</g>
</g>
</svg>
