<?xml version="1.0" encoding="utf-8"?>
<!-- Generator: Adobe Illustrator 18.0.0, SVG Export Plug-In . SVG Version: 6.00 Build 0)  -->
<!DOCTYPE svg PUBLIC "-//W3C//DTD SVG 1.1//EN" "http://www.w3.org/Graphics/SVG/1.1/DTD/svg11.dtd">
<svg version="1.1" id="Layer_1" xmlns="http://www.w3.org/2000/svg" xmlns:xlink="http://www.w3.org/1999/xlink" x="0px" y="0px"
	 viewBox="0 0 36 36" enable-background="new 0 0 36 36" xml:space="preserve">
<g>
	<g>
		<g>
			<g>
				<g>
					<g>
						<g>
							<g>
								<path fill="#FFD93B" d="M32.5,17.6c-0.8,0.6-1.6,1.2-2.6,1.3c-2.4,0.4-4.6-1.5-3-5.2C29.7,7.3,37.1,14,32.5,17.6z"/>
							</g>
						</g>
					</g>
					<g>
						<g>
							<g>
								<path fill="#F4C534" d="M31.1,12.9c1.5,0.5,1.9,2.6,0.6,3.8c0.3-0.4,0.4-1,0.4-1.5c-0.3,0.8-1,1.5-1.8,1.8
									c-0.1-0.5,0-1,0.1-1.5c-0.5,0.6-0.9,1.3-0.9,2.1c-0.3-0.3-0.5-0.7-0.7-1c-0.1,0.4,0,0.9,0.2,1.2
									C26.7,16.8,28.4,12,31.1,12.9z"/>
							</g>
						</g>
					</g>
					<g>
						<g>
							<path fill="#E9B02C" d="M31.1,12.9c-2.6-0.9-4.4,4-2,4.9c-0.2-0.4-0.3-0.8-0.2-1.2c0.2,0.3,0.4,0.6,0.6,0.9
								c-0.3-0.5-0.3-1.2-0.1-1.8c-0.2,0.1-0.3,0.2-0.5,0.5c-0.3-1.7,1.5-3.2,2.9-2.8C31.6,13.1,31.3,13,31.1,12.9z"/>
						</g>
					</g>
				</g>
			</g>
		</g>
		<g>
			<g>
				<g>
					<g>
						<g>
							<g>
								<path fill="#FFD93B" d="M3.5,17.6C4.2,18.3,5.1,18.8,6,19c2.4,0.4,4.6-1.5,3-5.2C6.3,7.3-1.1,14,3.5,17.6z"/>
							</g>
						</g>
					</g>
					<g>
						<g>
							<g>
								<path fill="#F4C534" d="M4.9,12.9c-1.5,0.5-1.9,2.6-0.6,3.8c-0.3-0.4-0.4-1-0.4-1.5c0.3,0.8,1,1.5,1.8,1.8
									c0.1-0.5,0-1-0.1-1.5c0.5,0.6,0.9,1.3,0.9,2.1c0.3-0.3,0.5-0.7,0.7-1c0.1,0.4,0,0.9-0.2,1.2C9.3,16.8,7.6,12,4.9,12.9z"/>
							</g>
						</g>
					</g>
					<g>
						<g>
							<path fill="#E9B02C" d="M4.9,12.9c2.6-0.9,4.4,4,2,4.9c0.2-0.4,0.3-0.8,0.2-1.2c-0.2,0.3-0.4,0.6-0.6,0.9
								c0.3-0.5,0.3-1.2,0.1-1.8c0.2,0.1,0.3,0.2,0.5,0.5c0.3-1.7-1.5-3.2-2.9-2.8C4.4,13.1,4.7,13,4.9,12.9z"/>
						</g>
					</g>
				</g>
			</g>
		</g>
	</g>
	<g>
		<g>
			<g>
				<g>
					<g>
						<path fill="#3E4347" d="M20.5,32.6c-1.7,0.2-3.3,0.2-5,0c-5.7-0.8-10.3-5.1-8.7-16.9C8.7,6.1,12.8,3.2,18,3.2
							c5.2,0,9.4,3,11.2,12.6C30.8,27.5,26.2,31.8,20.5,32.6z"/>
					</g>
				</g>
			</g>
			<g opacity="0.35">
				<g>
					<g>
						<path fill="#31373A" d="M29.5,20.1c0,8.5-4.1,11.8-9.1,12.6c-1.7,0.2-3.3,0.2-5,0c-4.9-0.7-9.1-4-9.1-12.6
							c0,7.7,4.2,10.6,9.1,11.3c1.6,0.2,3.3,0.2,5,0C25.4,30.7,29.5,27.7,29.5,20.1z"/>
					</g>
				</g>
			</g>
		</g>
		<g>
			<g>
				<g>
					<g>
						<g>
							<circle fill="#FFD93B" cx="18" cy="23.8" r="6.8"/>
						</g>
					</g>
				</g>
			</g>
			<g>
				<g>
					<path fill="#F4C534" d="M24.8,24.2c-0.2,3.6-3.2,6.5-6.8,6.5c-3.6,0-6.6-2.9-6.8-6.5c0.2,3.2,3.2,5.8,6.8,5.8
						C21.6,29.9,24.6,27.4,24.8,24.2z"/>
				</g>
			</g>
			<g>
				<g>
					<g>
						<g>
							<circle fill="#FFD93B" cx="14.4" cy="16.4" r="4.5"/>
						</g>
					</g>
				</g>
				<g>
					<g>
						<g>
							<circle fill="#FFD93B" cx="21.6" cy="16.4" r="4.5"/>
						</g>
					</g>
				</g>
			</g>
		</g>
	</g>
	<g>
		<g>
			<g>
				<g>
					<g>
						<g>
							<g>
								<path fill="#3E4347" d="M23.2,17.5c0,1.3-0.9,2.4-2,2.4c-1.1,0-2-1.1-2-2.4c0-1.4,0.9-2.4,2-2.4
									C22.3,15,23.2,16.1,23.2,17.5z"/>
							</g>
						</g>
					</g>
					<g>
						<g>
							<g>
								<path fill="#FFFFFF" d="M23.1,17.9c0,1.3-0.9,2.3-1.9,2.3c-1.1,0-1.9-1-1.9-2.3c0-1.3,0.9-2.3,1.9-2.3
									C22.2,15.6,23.1,16.6,23.1,17.9z"/>
							</g>
						</g>
					</g>
					<g>
						<g>
							<g>
								<path fill="#65B1EF" d="M22.2,18.1c0,0.7-0.5,1.3-1.1,1.3c-0.6,0-1.1-0.6-1.1-1.3c0-0.7,0.5-1.3,1.1-1.3
									C21.7,16.8,22.2,17.4,22.2,18.1z"/>
							</g>
						</g>
					</g>
					<g>
						<g>
							<g>
								<ellipse fill="#3E4347" cx="21.1" cy="18.3" rx="0.5" ry="0.6"/>
							</g>
						</g>
					</g>
				</g>
				<g>
					<g>
						<circle fill="#FFFFFF" cx="21.6" cy="18" r="0.3"/>
					</g>
				</g>
			</g>
			<g>
				<g>
					<g>
						<path fill="#3E4347" d="M23.9,16.6c-0.5-1.4-1.2-2-2.2-2.2c-0.6-0.2-0.3-0.6-0.3-0.6C21.9,13.3,23.7,14.1,23.9,16.6z"/>
					</g>
				</g>
			</g>
		</g>
		<g>
			<g>
				<g>
					<g>
						<g>
							<g>
								<path fill="#3E4347" d="M12.8,17.5c0,1.3,0.9,2.4,2,2.4c1.1,0,2-1.1,2-2.4c0-1.4-0.9-2.4-2-2.4C13.7,15,12.8,16.1,12.8,17.5
									z"/>
							</g>
						</g>
					</g>
					<g>
						<g>
							<g>
								<path fill="#FFFFFF" d="M12.9,17.9c0,1.3,0.9,2.3,1.9,2.3c1.1,0,1.9-1,1.9-2.3c0-1.3-0.9-2.3-1.9-2.3
									C13.8,15.6,12.9,16.6,12.9,17.9z"/>
							</g>
						</g>
					</g>
					<g>
						<g>
							<g>
								<path fill="#65B1EF" d="M16,18.1c0,0.7-0.5,1.3-1.1,1.3c-0.6,0-1.1-0.6-1.1-1.3c0-0.7,0.5-1.3,1.1-1.3
									C15.5,16.8,16,17.4,16,18.1z"/>
							</g>
						</g>
					</g>
					<g>
						<g>
							<g>
								<ellipse fill="#3E4347" cx="14.9" cy="18.3" rx="0.5" ry="0.6"/>
							</g>
						</g>
					</g>
				</g>
				<g>
					<g>
						<circle fill="#FFFFFF" cx="15.3" cy="18" r="0.3"/>
					</g>
				</g>
			</g>
			<g>
				<g>
					<g>
						<path fill="#3E4347" d="M12.1,16.6c0.5-1.4,1.2-2,2.2-2.2c0.6-0.2,0.3-0.6,0.3-0.6C14.1,13.3,12.3,14.1,12.1,16.6z"/>
					</g>
				</g>
			</g>
		</g>
	</g>
	<g>
		<g>
			<g>
				<g>
					<g>
						<g>
							<path fill="#F4C534" d="M20.2,23.6c-0.4,0.5-1.3,1-1.8,1c0-0.8,0-1.8,0.9-2.1C20,22.3,20.7,23,20.2,23.6z"/>
						</g>
					</g>
				</g>
				<g>
					<g>
						<g>
							<path fill="#E9B02C" d="M20.2,23.6c-0.1,0.1-0.2,0.2-0.3,0.3c0-0.2-0.2-0.3-0.5-0.3c-0.6,0.1-0.8,0.6-1,0.9
								c0-0.8,0-1.8,0.9-2C20,22.3,20.7,23,20.2,23.6z"/>
						</g>
					</g>
				</g>
			</g>
			<g>
				<g>
					<g>
						<path fill="#E9B02C" d="M20.8,23.5c-0.1,0.4-0.5,0.8-0.8,0.9c0.3-0.4,0.4-0.5,0.6-1c0.1-0.5,0-0.9-0.4-1.1
							c-0.4-0.3-0.7-0.2-1.1-0.1c0.4-0.3,0.9-0.2,1.2-0.1C20.8,22.4,21,23,20.8,23.5z"/>
					</g>
				</g>
			</g>
		</g>
		<g>
			<g>
				<g>
					<g>
						<g>
							<path fill="#F4C534" d="M15.8,23.6c0.4,0.5,1.3,1,1.8,1c0-0.8,0-1.8-0.9-2.1C16,22.3,15.3,23,15.8,23.6z"/>
						</g>
					</g>
				</g>
				<g>
					<g>
						<g>
							<path fill="#E9B02C" d="M15.8,23.6c0.1,0.1,0.2,0.2,0.3,0.3c0-0.2,0.2-0.3,0.5-0.3c0.6,0.1,0.8,0.6,1,0.9c0-0.8,0-1.8-0.9-2
								C16,22.3,15.3,23,15.8,23.6z"/>
						</g>
					</g>
				</g>
			</g>
			<g>
				<g>
					<g>
						<path fill="#E9B02C" d="M15.2,23.5c0.1,0.4,0.5,0.8,0.8,0.9c-0.3-0.4-0.4-0.5-0.6-1c-0.1-0.5,0-0.9,0.4-1.1
							c0.4-0.3,0.7-0.2,1.1-0.1C16.5,22,16,22,15.7,22.2C15.2,22.4,15,23,15.2,23.5z"/>
					</g>
				</g>
			</g>
		</g>
	</g>
	<g>
		<g>
			<g>
				<g>
					<path fill="#E9B02C" d="M21.7,26.3c-0.7,1.3-2.2,2-3.7,2c-1.5,0-3-0.7-3.7-2c1,1,2.3,1.5,3.7,1.5
						C19.4,27.7,20.7,27.3,21.7,26.3z"/>
				</g>
			</g>
		</g>
		<g>
			<g>
				<g>
					<g>
						<g>
							<g>
								<path fill="#E9B02C" d="M22.4,26.5c-0.2-0.5-0.5-0.8-1-1C22,25.7,22.3,25.7,22.4,26.5z"/>
							</g>
						</g>
						<g>
							<g>
								<path fill="#E9B02C" d="M14.6,25.5c-0.5,0.2-0.8,0.5-1,1C13.7,25.9,13.8,25.7,14.6,25.5z"/>
							</g>
						</g>
					</g>
				</g>
			</g>
		</g>
	</g>
</g>
</svg>
