<?xml version="1.0" encoding="utf-8"?>
<!-- Generator: Adobe Illustrator 18.0.0, SVG Export Plug-In . SVG Version: 6.00 Build 0)  -->
<!DOCTYPE svg PUBLIC "-//W3C//DTD SVG 1.1//EN" "http://www.w3.org/Graphics/SVG/1.1/DTD/svg11.dtd">
<svg version="1.1" id="Layer_1" xmlns="http://www.w3.org/2000/svg" xmlns:xlink="http://www.w3.org/1999/xlink" x="0px" y="0px"
	 viewBox="0 0 36 36" enable-background="new 0 0 36 36" xml:space="preserve">
<g>
	<g>
		<g>
			<g>
				<g>
					<g>
						<g>
							<path fill="#5A5F63" d="M32.6,6.3c1.8,1.8,1.8,4.7,0,6.5c-1.8,1.8-6.6,3.7-8.4,1.9s0.1-6.6,1.9-8.4S30.8,4.5,32.6,6.3z"/>
						</g>
					</g>
				</g>
				<g>
					<g>
						<g>
							<path fill="#3E4347" d="M32,7.7c1.2,1.2,1.2,3,0,4.2s-4.3,2.4-5.4,1.2s0.1-4.3,1.2-5.4S30.8,6.5,32,7.7z"/>
						</g>
					</g>
				</g>
				<g>
					<g>
						<g>
							<path fill="#31373A" d="M32,7.7c0.1,0.1,0.1,0.1,0.2,0.2c-1.1-0.6-2.5-0.4-3.5,0.5c-1.1,1.1-2.2,3.8-1.5,5.1
								c-0.2-0.1-0.4-0.2-0.6-0.4c-1.2-1.2,0.1-4.3,1.2-5.4C29,6.5,30.8,6.5,32,7.7z"/>
						</g>
					</g>
				</g>
			</g>
			<g>
				<g>
					<g>
						<g>
							<path fill="#5A5F63" d="M3.4,6.3c-1.8,1.8-1.8,4.7,0,6.5s6.6,3.7,8.4,1.9s-0.1-6.6-1.9-8.4S5.2,4.5,3.4,6.3z"/>
						</g>
					</g>
				</g>
				<g>
					<g>
						<g>
							<path fill="#3E4347" d="M4,7.7c-1.2,1.2-1.2,3,0,4.2s4.3,2.4,5.4,1.2S9.4,8.8,8.2,7.7S5.2,6.5,4,7.7z"/>
						</g>
					</g>
				</g>
				<g>
					<g>
						<g>
							<path fill="#31373A" d="M4,7.7C4,7.7,3.9,7.8,3.9,7.8C5,7.2,6.4,7.4,7.4,8.3c1.1,1.1,2.2,3.8,1.5,5.1
								c0.2-0.1,0.4-0.2,0.6-0.4c1.2-1.2-0.1-4.3-1.2-5.4C7,6.5,5.2,6.5,4,7.7z"/>
						</g>
					</g>
				</g>
			</g>
		</g>
		<g>
			<g>
				<g>
					<path fill="#DAE5EF" d="M32.4,24.2c-1.5,3-4.8,5.2-7.8,6.2c-3.8,1.4-9.1,1.5-13.3,0c-3.1-1-5.1-2.7-6.9-4.8
						c-2.5-3.9-2.1-6.9-1-8.1c0.7-0.8,1.9-1,3-1.1C6.2,14,7.2,10.8,9.5,8.3c0.1-0.1,0.2-0.2,0.3-0.3c2-2.1,4.9-3.5,8.2-3.5
						c3.5,0,6.5,1.5,8.5,3.8c0,0,0,0,0.1,0.1c2.1,2.2,3.2,5.2,3,8.2c1.1,0,2.3,0.2,3,1.1C33.9,19.2,33.4,22.4,32.4,24.2z"/>
				</g>
			</g>
		</g>
		<g>
			<g>
				<g>
					<g>
						<g>
							<path fill="#3E4347" d="M26.5,14.9c0,2.6-1.6,3.7-3.6,3.7s-3.6-1.1-3.6-3.7s1-5.5,3-5.5S26.5,12.3,26.5,14.9z"/>
						</g>
					</g>
				</g>
				<g>
					<g>
						<g>
							<g>
								<path fill="#FFFFFF" d="M25.1,15.1c0,3.7-4.9,3.7-4.9,0c0-1.5,1.1-2.8,2.4-2.8S25.1,13.6,25.1,15.1z"/>
							</g>
						</g>
					</g>
					<g>
						<g>
							<g>
								<g>
									<path fill="#65B1EF" d="M24.2,15.5c0,2.3-3.1,2.3-3.1,0c0-1,0.7-1.7,1.5-1.7S24.2,14.5,24.2,15.5z"/>
								</g>
							</g>
						</g>
						<g>
							<g>
								<g>
									<ellipse fill="#3E4347" cx="22.6" cy="15.6" rx="0.8" ry="0.9"/>
								</g>
							</g>
						</g>
						<g>
							<g>
								<g>
									<circle fill="#FFFFFF" cx="23.1" cy="14.9" r="0.4"/>
								</g>
							</g>
						</g>
					</g>
				</g>
			</g>
			<g>
				<g>
					<g>
						<g>
							<path fill="#DAE5EF" d="M27.8,16.4c-1.5,2.4-3.6,3.6-6.2,3.6C21.6,20,22.1,16.1,27.8,16.4z"/>
						</g>
					</g>
				</g>
				<g>
					<g>
						<g>
							<path fill="#3E4347" d="M21.6,20c0-1,0.8-2.4,2.3-3.1c0.5-0.2,1-0.4,1.4-0.4c1-0.2,1.8-0.1,2.5,0c-1.1,0.2-2.1,0.2-3.7,0.9
								C22.8,17.9,21.9,19,21.6,20z"/>
						</g>
					</g>
				</g>
			</g>
		</g>
		<g>
			<g>
				<g>
					<g>
						<g>
							<path fill="#3E4347" d="M9.4,14.9c0,2.6,1.6,3.7,3.6,3.7s3.6-1.1,3.6-3.7s-1-5.5-3-5.5S9.4,12.3,9.4,14.9z"/>
						</g>
					</g>
				</g>
				<g>
					<g>
						<g>
							<g>
								<path fill="#FFFFFF" d="M10.8,15.1c0,3.7,4.9,3.7,4.9,0c0-1.5-1.1-2.8-2.4-2.8S10.8,13.6,10.8,15.1z"/>
							</g>
						</g>
					</g>
					<g>
						<g>
							<g>
								<g>
									<ellipse fill="#65B1EF" cx="13.3" cy="15.5" rx="1.5" ry="1.7"/>
								</g>
							</g>
						</g>
						<g>
							<g>
								<g>
									<ellipse fill="#3E4347" cx="13.2" cy="15.6" rx="0.8" ry="0.9"/>
								</g>
							</g>
						</g>
						<g>
							<g>
								<g>
									<circle fill="#FFFFFF" cx="13.7" cy="14.9" r="0.4"/>
								</g>
							</g>
						</g>
					</g>
				</g>
			</g>
			<g>
				<g>
					<g>
						<g>
							<path fill="#DAE5EF" d="M8.1,16.4c1.5,2.4,3.6,3.6,6.2,3.6C14.3,20,13.8,16.1,8.1,16.4z"/>
						</g>
					</g>
				</g>
				<g>
					<g>
						<g>
							<path fill="#3E4347" d="M14.3,20c-0.3-1-1.3-2.1-2.5-2.7c-1.6-0.7-2.4-0.7-3.7-0.9c1.5-0.2,2.7-0.2,3.9,0.4
								C13.6,17.6,14.4,19,14.3,20z"/>
						</g>
					</g>
				</g>
			</g>
		</g>
		<g>
			<g>
				<g>
					<g>
						<path fill="#3E4347" d="M21,21.4c0,1-1.1,1.9-1.9,2.4c-0.6,0.4-1.4,0.4-2,0c-0.9-0.5-1.9-1.4-1.9-2.4c0-1.6,1.3-1.9,3-1.9
							C19.6,19.5,21,19.8,21,21.4z"/>
					</g>
				</g>
			</g>
			<g>
				<g>
					<g>
						<path fill="#31373A" d="M21,21.4c0,1-1.1,1.9-1.9,2.4c-0.6,0.4-1.4,0.4-2,0c-0.8-0.5-1.7-1.2-1.9-2.1c0.6,0.5,1.5,0.8,2.5,0.8
							c1.7,0,3.1-0.9,3.1-2c0-0.1,0-0.1,0-0.2C20.9,20.6,21,21,21,21.4z"/>
					</g>
				</g>
			</g>
			<g opacity="0.1">
				<g>
					<g>
						<path fill="#FFFFFF" d="M19.3,20.6c0,0.4-0.7,0.8-1.6,0.8s-1.6-0.3-1.6-0.7c0-0.4,0.7-0.8,1.6-0.8S19.3,20.2,19.3,20.6z"/>
					</g>
				</g>
			</g>
		</g>
		<g>
			<g>
				<g>
					<g>
						<path fill="#3E4347" d="M10.9,24.3c1.6,2.2,4.5,2.9,7.1,2.9c2.7,0,5.5-0.8,7.1-2.9c0,0-1.1,3.5-7.1,3.7
							C12.1,27.8,10.9,24.3,10.9,24.3z"/>
					</g>
				</g>
			</g>
			<g>
				<g>
					<g>
						<g>
							<path fill="#3E4347" d="M23.9,23.6c0.8-0.1,2,0.7,2.1,1.7C25.3,24.6,24.9,24.1,23.9,23.6z"/>
						</g>
					</g>
				</g>
				<g>
					<g>
						<g>
							<path fill="#3E4347" d="M12.1,23.6c-1,0.5-1.5,1-2.1,1.7C10.1,24.4,11.2,23.5,12.1,23.6z"/>
						</g>
					</g>
				</g>
			</g>
		</g>
	</g>
	<g>
		<g>
			<g>
				<path fill="#CBD6E0" d="M32.4,24.2c-1.5,3-4.8,5.2-7.8,6.2c-3.8,1.4-9.1,1.5-13.3,0c-3.1-1-5.1-2.7-6.9-4.8
					c-2.5-3.9-2.1-6.9-1-8.1c0.7-0.8,1.9-1,3-1.1c-0.2-2.6,0.8-6,3.4-8.6C7.6,10.4,6.6,13.4,7,17c-1,0.1-2.4,0.2-3,1.1
					c-0.8,1-0.9,3.6,1.4,6.9c1.8,1.9,3.8,3.3,6.4,4.2c3.7,1.3,8.9,1.2,12.3,0c2.4-0.7,5.7-2.7,7.2-5.4c0.9-1.4,1.5-4.3,0.6-5.6
					c-0.6-0.9-2-1-3-1.1c0.5-3.5-0.6-6.7-2.8-9.1c2.3,2.3,3.6,5.4,3.4,8.6c1.1,0,2.3,0.2,3,1.1C33.9,19.2,33.4,22.4,32.4,24.2z"/>
			</g>
		</g>
	</g>
</g>
</svg>
