<?xml version="1.0" encoding="utf-8"?>
<!-- Generator: Adobe Illustrator 18.0.0, SVG Export Plug-In . SVG Version: 6.00 Build 0)  -->
<!DOCTYPE svg PUBLIC "-//W3C//DTD SVG 1.1//EN" "http://www.w3.org/Graphics/SVG/1.1/DTD/svg11.dtd">
<svg version="1.1" id="Layer_1" xmlns="http://www.w3.org/2000/svg" xmlns:xlink="http://www.w3.org/1999/xlink" x="0px" y="0px"
	 viewBox="0 0 36 36" enable-background="new 0 0 36 36" xml:space="preserve">
<g>
	<g>
		<g>
			<g>
				<g>
					<g>
						<g>
							<g>
								<path fill="#8D9BA3" d="M22,17.7l-1.4-2.3c-0.2-2.1-0.4-4.9,0.6-7.1c0.9-2,2.9-3.4,3.3-5.8c0.1-0.7,0.5-0.6,0.8-0.1
									C27.9,5.7,27.8,12.6,22,17.7z"/>
							</g>
						</g>
					</g>
					<g>
						<g>
							<g>
								<path fill="#FC97B2" d="M23.2,14.4c-0.9-4-0.4-5,0.9-7.7c0.5-1,1-2.1,1.1-3.2C26.5,4.7,27.3,10.1,23.2,14.4z"/>
							</g>
						</g>
					</g>
					<g>
						<g>
							<g>
								<path fill="#E88EA7" d="M25.2,3.5c-0.1,1.2-0.6,2.3-1.1,3.2c-1.4,2.6-1.9,3.6-0.9,7.7C22.3,10.1,25.5,5.6,25.2,3.5z"/>
							</g>
						</g>
					</g>
				</g>
			</g>
			<g>
				<g>
					<g>
						<g>
							<g>
								<path fill="#8D9BA3" d="M22,17.7l-1.4-2.3c-0.2-2.1-0.4-4.9,0.6-7.1c0.9-2,2.9-3.4,3.3-5.8c0.1-0.7,0.5-0.6,0.8-0.1
									C27.9,5.7,27.8,12.6,22,17.7z"/>
							</g>
						</g>
					</g>
					<g>
						<g>
							<g>
								<path fill="#FC97B2" d="M23.2,14.4c-0.9-4-0.4-5,0.9-7.7c0.5-1,1-2.1,1.1-3.2C26.5,4.7,27.3,10.1,23.2,14.4z"/>
							</g>
						</g>
					</g>
					<g>
						<g>
							<g>
								<path fill="#E88EA7" d="M25.2,3.5c-0.1,1.2-0.6,2.3-1.1,3.2c-1.4,2.6-1.9,3.6-0.9,7.7C22.3,10.1,25.5,5.6,25.2,3.5z"/>
							</g>
						</g>
					</g>
				</g>
			</g>
			<g>
				<g>
					<g>
						<g>
							<g>
								<path fill="#8D9BA3" d="M14,17.7l1.4-2.3c0.2-2.1,0.4-4.9-0.6-7.1c-0.9-2-2.9-3.4-3.3-5.8c-0.1-0.7-0.5-0.6-0.8-0.1
									C8.1,5.7,8.2,12.6,14,17.7z"/>
							</g>
						</g>
					</g>
					<g>
						<g>
							<g>
								<path fill="#FC97B2" d="M12.8,14.4c0.9-4,0.4-5-0.9-7.7c-0.5-1-1-2.1-1.1-3.2C9.5,4.7,8.7,10.1,12.8,14.4z"/>
							</g>
						</g>
					</g>
					<g>
						<g>
							<g>
								<path fill="#E88EA7" d="M10.8,3.5c0.1,1.2,0.6,2.3,1.1,3.2c1.4,2.6,1.9,3.6,0.9,7.7C13.7,10.1,10.5,5.6,10.8,3.5z"/>
							</g>
						</g>
					</g>
				</g>
			</g>
		</g>
		<g>
			<g>
				<g>
					<path fill="#8D9BA3" d="M20,14.5c-1.3,0.3-2.6,0.3-3.9,0c-3.3-0.8-6.8,2.4-5.8,7.2c0.2,0.9,0.6,1.7,0.9,2.5
						c1.1,2.9,3.2,4.6,5.7,5v-0.3h1.9v0.3c2.8-0.3,5.1-2.1,6.1-5c0.3-0.8,0.7-1.6,0.9-2.5C26.8,16.9,23.3,13.7,20,14.5z"/>
				</g>
			</g>
		</g>
		<g>
			<g>
				<g>
					<g>
						<circle fill="#CBD6E0" cx="18" cy="28.7" r="5.3"/>
					</g>
				</g>
			</g>
			<g>
				<g>
					<g>
						<path fill="#DAE5EF" d="M24.3,27.7c0.1,3-2,4.4-6.3,4.3c-4.4,0.1-6.5-1.3-6.3-4.3c-0.1-3,2-4.4,6.3-4.3
							C22.4,23.3,24.5,24.7,24.3,27.7z"/>
					</g>
				</g>
			</g>
			<g opacity="0.5">
				<g>
					<g>
						<path fill="#CBD6E0" d="M24.3,28.7c-0.2,0.8-0.4,1.4-1.2,2.1C21.8,31.9,19.7,32,18,32c-1.7,0-3.8-0.1-5.1-1.2
							c-0.8-0.7-1-1.3-1.2-2.1c0.2,0.6,0.4,1.1,1.4,1.8c1.4,0.8,3.3,0.9,4.9,0.9c1.6,0,3.6,0,4.9-0.9C23.8,29.9,24,29.5,24.3,28.7z"
							/>
					</g>
				</g>
			</g>
			<g>
				<g>
					<g>
						<g>
							<g>
								<path fill="#DAE5EF" d="M22.5,25.8c-1.1,0.8-1.9,0.8-2.4,1c0.1-1,0.2-2.1,0.7-2.9C22.1,21.8,24.6,24.4,22.5,25.8z"/>
							</g>
						</g>
					</g>
					<g>
						<g>
							<g>
								<g>
									<path fill="#3E4347" d="M22.2,25.5c-0.7,0.5-1.2,0.6-1.5,0.7c0.1-0.6,0.2-1.2,0.5-1.7C22.1,23.1,23.5,24.5,22.2,25.5z"/>
								</g>
							</g>
						</g>
						<g>
							<g>
								<g>
									<path fill="#31373A" d="M22.2,25.5c-0.1,0.1-0.1,0.1-0.2,0.1c0.4-0.5-0.3-1-0.8-0.4c-0.2,0.3-0.3,0.6-0.4,1
										c0.1-0.6,0.2-1.2,0.5-1.7C22.1,23.1,23.5,24.5,22.2,25.5z"/>
								</g>
							</g>
						</g>
					</g>
					<g>
						<g>
							<g>
								<path fill="#BBC7D1" d="M22.5,25.8c0.3-0.3,0.5-0.5,0.7-0.9c0.1-0.5,0.1-0.7-0.3-1.2c-0.3-0.3-0.6-0.5-1.1-0.4
									c-0.1,0-0.2,0.1-0.3,0.1c-0.4,0.3-0.2,0.2-0.6,0.5c0.2-0.3,0.5-0.7,0.9-0.8c0.6-0.2,1,0,1.4,0.4c0.4,0.6,0.4,0.9,0.3,1.4
									C23.1,25.4,22.9,25.5,22.5,25.8z"/>
							</g>
						</g>
					</g>
				</g>
				<g>
					<g>
						<g>
							<g>
								<path fill="#DAE5EF" d="M13.5,25.8c1.1,0.8,1.9,0.8,2.4,1c-0.1-1-0.2-2.1-0.7-2.9C13.9,21.8,11.4,24.4,13.5,25.8z"/>
							</g>
						</g>
					</g>
					<g>
						<g>
							<g>
								<g>
									<path fill="#3E4347" d="M13.8,25.5c0.7,0.5,1.2,0.6,1.5,0.7c-0.1-0.6-0.2-1.2-0.5-1.7C13.9,23.1,12.5,24.5,13.8,25.5z"/>
								</g>
							</g>
						</g>
						<g>
							<g>
								<g>
									<path fill="#31373A" d="M13.8,25.5c0.1,0.1,0.1,0.1,0.2,0.1c-0.4-0.5,0.3-1,0.8-0.4c0.2,0.3,0.3,0.6,0.4,1
										c-0.1-0.6-0.2-1.2-0.5-1.7C13.9,23.1,12.5,24.5,13.8,25.5z"/>
								</g>
							</g>
						</g>
					</g>
					<g>
						<g>
							<g>
								<path fill="#BBC7D1" d="M13.5,25.8c-0.4-0.3-0.6-0.4-0.8-0.9c-0.1-0.5-0.2-0.8,0.3-1.4c0.3-0.4,0.7-0.5,0.9-0.5
									c0.6,0,0.9,0.2,1.4,0.9c-0.4-0.4-0.2-0.3-0.6-0.5c-0.3-0.1-0.3-0.2-0.7-0.1c-0.3,0.1-0.5,0.2-0.7,0.4
									c-0.4,0.5-0.3,0.7-0.3,1.2C13,25.3,13.2,25.5,13.5,25.8z"/>
							</g>
						</g>
					</g>
				</g>
			</g>
		</g>
		<g>
			<g>
				<g>
					<g>
						<g>
							<g>
								<path fill="#7B8B92" d="M19.3,20.6c0,1.4,0.9,2,1.9,2c1.1,0,1.9-0.6,1.9-2c0-1.4-0.3-3.1-1.4-3.1
									C20.6,17.6,19.3,19.2,19.3,20.6z"/>
							</g>
						</g>
					</g>
					<g>
						<g>
							<g>
								<path fill="#FFFFFF" d="M19.1,20.8c0.1,1.3,1,1.8,2.1,1.8s1.9-0.5,1.8-1.8c-0.1-1.3-0.5-2.7-1.6-2.7S19,19.6,19.1,20.8z"/>
							</g>
						</g>
					</g>
				</g>
				<g>
					<g>
						<g>
							<path fill="#65B1EF" d="M21.9,20.8c0,0.7-0.5,1.2-1.1,1.2c-0.6,0-1.1-0.6-1.1-1.2c0-0.7,0.5-1.2,1.1-1.2
								C21.4,19.6,21.9,20.2,21.9,20.8z"/>
						</g>
					</g>
				</g>
				<g>
					<g>
						<g>
							<ellipse fill="#3E4347" cx="20.8" cy="20.8" rx="0.6" ry="0.6"/>
						</g>
					</g>
				</g>
				<g>
					<g>
						<circle fill="#FFFFFF" cx="21.2" cy="20.4" r="0.2"/>
					</g>
				</g>
			</g>
			<g>
				<g>
					<g>
						<g>
							<g>
								<path fill="#7B8B92" d="M16.7,20.6c0,1.4-0.9,2-1.9,2s-1.9-0.6-1.9-2c0-1.4,0.3-3.1,1.4-3.1S16.7,19.2,16.7,20.6z"/>
							</g>
						</g>
					</g>
					<g>
						<g>
							<g>
								<path fill="#FFFFFF" d="M16.9,20.8c-0.1,1.3-1,1.8-2.1,1.8s-1.9-0.5-1.8-1.8c0.1-1.3,0.5-2.7,1.6-2.7S17,19.6,16.9,20.8z"/>
							</g>
						</g>
					</g>
				</g>
				<g>
					<g>
						<g>
							<path fill="#65B1EF" d="M16.3,20.8c0,0.7-0.5,1.2-1.1,1.2c-0.6,0-1.1-0.6-1.1-1.2c0-0.7,0.5-1.2,1.1-1.2
								C15.8,19.6,16.3,20.2,16.3,20.8z"/>
						</g>
					</g>
				</g>
				<g>
					<g>
						<g>
							<ellipse fill="#3E4347" cx="15.2" cy="20.8" rx="0.6" ry="0.6"/>
						</g>
					</g>
				</g>
				<g>
					<g>
						<circle fill="#FFFFFF" cx="15.6" cy="20.4" r="0.2"/>
					</g>
				</g>
			</g>
		</g>
	</g>
	<g>
		<g>
			<g>
				<g>
					<path fill="#3E4347" d="M23.8,19.5c-0.1-0.7-0.2-1.3-0.6-1.9c-0.5-0.7-1.1-0.9-1.7-0.8c0.4-0.3,1.1-0.4,1.7,0.1
						c0.3,0.3,0.6,0.6,0.7,1C24.1,18.3,24,19,23.8,19.5z"/>
				</g>
			</g>
		</g>
		<g>
			<g>
				<g>
					<path fill="#3E4347" d="M12.2,19.5c0.1-0.7,0.2-1.3,0.6-1.9c0.5-0.7,1.1-0.9,1.7-0.8c-0.4-0.3-1.1-0.4-1.7,0.1
						c-0.3,0.3-0.6,0.6-0.7,1C11.9,18.3,12,19,12.2,19.5z"/>
				</g>
			</g>
		</g>
	</g>
</g>
</svg>
