<?xml version="1.0" encoding="utf-8"?>
<!-- Generator: Adobe Illustrator 18.0.0, SVG Export Plug-In . SVG Version: 6.00 Build 0)  -->
<!DOCTYPE svg PUBLIC "-//W3C//DTD SVG 1.1//EN" "http://www.w3.org/Graphics/SVG/1.1/DTD/svg11.dtd">
<svg version="1.1" id="Layer_1" xmlns="http://www.w3.org/2000/svg" xmlns:xlink="http://www.w3.org/1999/xlink" x="0px" y="0px"
	 viewBox="0 0 36 36" enable-background="new 0 0 36 36" xml:space="preserve">
<g>
	<g>
		<g>
			<g>
				<g>
					<g>
						<path fill="#84939A" d="M32.1,5.5C32,4.3,32,3.1,32.5,2c-2.5,0.2-4.5,2-6.3,3.6c-1.2,1-3.4,6.9-4.3,10.1
							c2.3-0.2,4.7,0,6.8-0.9c2.2-1,3.8-3.3,3.9-5.8C32.6,7.9,32.3,6.7,32.1,5.5z"/>
					</g>
				</g>
			</g>
			<g>
				<g>
					<g>
						<path fill="#7B8B92" d="M32.5,2c-2.5,0.2-4.5,2-6.3,3.6c-1.2,1.1-4.3,4.2-4.8,7.9c0.4,0.7,0.9,1.4,1.4,2.2
							c2-0.1,4.1,0,5.9-0.8c0.4-0.2,0.8-0.4,1.2-0.7l0,0C23.7,15.5,24.4,6.8,32.5,2z"/>
					</g>
				</g>
			</g>
			<g>
				<g>
					<g>
						<path fill="#DAE5EF" d="M31,3.5c-0.7,1.9,0.3,3.9,0.1,5.9c-0.2,1.7-1.4,3.4-3.1,3.9c-1.4,0.5-2.7-0.1-2.4-2.3
							C26.2,7.8,28.1,4.8,31,3.5z"/>
					</g>
				</g>
			</g>
			<g>
				<g>
					<path fill="#CBD6E0" d="M25.7,11c-0.4,2.2,0.9,2.8,2.4,2.3c1.7-0.5,2.9-2.2,3.1-3.9c0-0.3,0-0.7,0-1C30.8,10.6,29,11,29,11
						l0.2-0.8c-0.9,0.6-0.9,1.8-0.9,1.8c-0.5-0.9-0.3-3.1-0.3-3.1c-0.5,0.9-0.5,2.3-0.5,2.3s-0.9-0.6,0.2-3.4S31,3.5,31,3.5
						C28.1,4.8,26.2,7.8,25.7,11z"/>
				</g>
			</g>
		</g>
		<g>
			<g>
				<g>
					<g>
						<path fill="#84939A" d="M3.9,5.5C4,4.3,4,3.1,3.5,2c2.5,0.2,4.5,2,6.3,3.6c1.2,1,3.4,6.9,4.3,10.1c-2.3-0.2-4.7,0-6.8-0.9
							c-2.2-1-3.8-3.3-3.9-5.8C3.4,7.9,3.7,6.7,3.9,5.5z"/>
					</g>
				</g>
			</g>
			<g>
				<g>
					<g>
						<path fill="#7B8B92" d="M3.5,2c2.5,0.2,4.5,2,6.3,3.6c1.2,1.1,4.3,4.2,4.8,7.9c-0.4,0.7-0.9,1.4-1.4,2.2c-2-0.1-4.1,0-5.9-0.8
							c-0.4-0.2-0.8-0.4-1.2-0.7c0,0,0,0,0,0C12.3,15.5,11.6,6.8,3.5,2z"/>
					</g>
				</g>
			</g>
			<g>
				<g>
					<g>
						<path fill="#DAE5EF" d="M5,3.5c0.7,1.9-0.3,3.9-0.1,5.9c0.2,1.7,1.4,3.4,3.1,3.9c1.4,0.5,2.7-0.1,2.4-2.3
							C9.8,7.8,7.9,4.8,5,3.5z"/>
					</g>
				</g>
			</g>
			<g>
				<g>
					<path fill="#CBD6E0" d="M10.3,11c0.4,2.2-0.9,2.8-2.4,2.3c-1.7-0.5-2.9-2.2-3.1-3.9c0-0.3,0-0.7,0-1C5.2,10.6,7,11,7,11
						l-0.2-0.8C7.6,10.8,7.6,12,7.6,12C8.2,11,7.9,8.9,7.9,8.9c0.5,0.9,0.5,2.3,0.5,2.3s0.9-0.6-0.2-3.4S5,3.5,5,3.5
						C7.9,4.8,9.8,7.8,10.3,11z"/>
				</g>
			</g>
		</g>
	</g>
	<g>
		<g>
			<g>
				<g>
					<path fill="#8D9BA3" d="M31.7,23.4c-1.5,0.9-3,1.8-4.5,2.7c0.7,0.1,1.4,0.1,2.1,0.2c0,0-0.1,0.1-0.1,0.1
						c-6.4,6.2-15.9,6.2-22.4,0c0,0-0.1-0.1-0.1-0.1c0.7-0.1,1.4-0.1,2.1-0.2c-1.5-0.9-3-1.8-4.5-2.7l2.2,0
						c-1.6-0.6-3.1-1.5-4.4-2.7c1.1,0,2.1,0,3.2,0c-0.7-0.4-1.5-0.7-2.2-1.1c3.3,0.3,4.3-5.2,5.4-7.3c2-3.6,5.8-4.6,9.5-4.7
						c3.7,0.1,7.5,1.1,9.5,4.7c1.1,2.1,2.2,7.6,5.4,7.3c-0.7,0.4-1.5,0.7-2.2,1.1l3.2,0c-1.3,1.2-2.8,2.2-4.4,2.7L31.7,23.4z"/>
				</g>
			</g>
		</g>
		<g>
			<g>
				<path fill="#CBD6E0" d="M32.2,19.5c-6.3-0.3-6.2-4.2-9.9-4.9c-3.7-0.7-4.3,1.9-4.3,1.9s-0.6-2.5-4.3-1.9
					c-3.6,0.7-3.6,4.6-9.9,4.9c-0.2,0-0.4,0.1-0.7,0c0,0,0,0,0,0l0,0c0.7,0.4,1.5,0.7,2.2,1.1c-1.1,0-2.1,0-3.2,0
					c1.3,1.2,2.8,2.2,4.4,2.7l-2.2,0c1.5,0.9,3,1.8,4.5,2.7c-0.7,0.1-1.4,0.1-2.1,0.2c0,0,0.1,0.1,0.1,0.1c6.4,6.1,16,6.1,22.4,0
					c0,0,0.1-0.1,0.1-0.1c-0.7-0.1-1.4-0.1-2.1-0.2c1.5-0.9,3-1.8,4.5-2.7l-2.2,0c1.6-0.6,3.1-1.5,4.4-2.7l-3.2,0
					c0.7-0.4,1.5-0.7,2.2-1.1C32.7,19.5,32.4,19.5,32.2,19.5z"/>
			</g>
		</g>
		<g>
			<g>
				<g>
					<path fill="#CBD6E0" d="M12.3,27.5c0.9,2.8,3.2,4.8,5.7,4.8c2.6,0,4.9-2,5.7-4.8H12.3z"/>
				</g>
			</g>
		</g>
	</g>
	<g>
		<g>
			<g>
				<path fill="#E24B4B" d="M15.7,29.6c0,0.2,0,0.4,0,0.6c0,2.1,1.1,3.8,2.4,3.8c1.3,0,2.4-1.7,2.4-3.8c0-0.2,0-0.4,0-0.6H15.7z"/>
			</g>
		</g>
	</g>
	<g>
		<g>
			<g>
				<path fill="#3E4347" d="M24,27.6c-1.7,1.3-4.5,3.1-5.6,2.5c-0.2-0.1-0.5-0.1-0.8,0c-1.1,0.5-3.9-1.2-5.6-2.5
					c1.8,1.1,4.1,2,5.4,1.5c0.5-0.2,0.6-2.3,0.6-2.8c0,0.5,0.1,2.7,0.6,2.8C19.9,29.6,22.1,28.8,24,27.6z"/>
			</g>
		</g>
	</g>
	<g>
		<g>
			<g>
				<g>
					<g>
						<ellipse fill="#3E4347" cx="22.4" cy="19.5" rx="2.5" ry="3.2"/>
					</g>
				</g>
			</g>
			<g>
				<g>
					<g>
						<path fill="#FFFFFF" d="M24.5,19.8c0,1.6-1,2.8-2.2,2.8c-1.2,0-2.2-1.3-2.2-2.8c0-1.6,1-2.8,2.2-2.8
							C23.5,17,24.5,18.3,24.5,19.8z"/>
					</g>
				</g>
			</g>
			<g>
				<g>
					<g>
						<path fill="#65B1EF" d="M23.7,20.4c0,1-0.6,1.8-1.4,1.8c-0.8,0-1.4-0.8-1.4-1.8c0-1,0.6-1.8,1.4-1.8
							C23.1,18.5,23.7,19.4,23.7,20.4z"/>
					</g>
				</g>
			</g>
			<g>
				<g>
					<g>
						<ellipse fill="#3E4347" cx="22.3" cy="20.5" rx="0.9" ry="1.1"/>
					</g>
				</g>
			</g>
			<g>
				<g>
					<g>
						<circle fill="#FFFFFF" cx="22.9" cy="19.8" r="0.4"/>
					</g>
				</g>
			</g>
		</g>
		<g>
			<g>
				<g>
					<g>
						<ellipse fill="#3E4347" cx="13.6" cy="19.5" rx="2.5" ry="3.2"/>
					</g>
				</g>
			</g>
			<g>
				<g>
					<g>
						<path fill="#FFFFFF" d="M11.5,19.8c0,1.6,1,2.8,2.2,2.8c1.2,0,2.2-1.3,2.2-2.8c0-1.6-1-2.8-2.2-2.8
							C12.5,17,11.5,18.3,11.5,19.8z"/>
					</g>
				</g>
			</g>
			<g>
				<g>
					<g>
						<path fill="#65B1EF" d="M15.1,20.4c0,1-0.6,1.8-1.4,1.8c-0.8,0-1.4-0.8-1.4-1.8c0-1,0.6-1.8,1.4-1.8
							C14.4,18.5,15.1,19.4,15.1,20.4z"/>
					</g>
				</g>
			</g>
			<g>
				<g>
					<g>
						<ellipse fill="#3E4347" cx="13.6" cy="20.5" rx="0.9" ry="1.1"/>
					</g>
				</g>
			</g>
			<g>
				<g>
					<g>
						<circle fill="#FFFFFF" cx="14.3" cy="19.8" r="0.4"/>
					</g>
				</g>
			</g>
		</g>
	</g>
	<g>
		<g>
			<g>
				<g>
					<path fill="#3E4347" d="M20.4,25.4c0,0.3-0.1,0.5-0.3,0.8c-1,1.4-3.2,1.4-4.2,0c-0.2-0.2-0.3-0.5-0.3-0.8
						c0-1.3,1.1-1.8,2.4-1.8C19.3,23.6,20.4,24.1,20.4,25.4z"/>
				</g>
			</g>
		</g>
		<g>
			<g>
				<g>
					<path fill="#31373A" d="M20.4,25.4c0,0.3-0.1,0.5-0.3,0.8c-1,1.4-3.2,1.4-4.2,0c-0.2-0.2-0.3-0.5-0.3-0.8c0-0.1,0-0.2,0-0.3
						c0,0.2,0.1,0.3,0.3,0.5c1,1.1,3.2,1.1,4.2,0c0.1-0.1,0.2-0.3,0.3-0.5C20.4,25.2,20.4,25.3,20.4,25.4z"/>
				</g>
			</g>
		</g>
		<g opacity="0.1">
			<g>
				<g>
					<path fill="#FFFFFF" d="M19.5,23.3c0,0.4-0.7,0-1.5,0s-1.5,0.4-1.5,0c0-0.4,0.7-0.7,1.5-0.7S19.5,23,19.5,23.3z"/>
				</g>
			</g>
		</g>
	</g>
	<g>
		<g>
			<g>
				<g>
					<path fill="#7B8B92" d="M18,12.9c-0.4-1-1.3-1.7-2.3-2c0.5,0.6,0.6,1,0.9,1.7c-1.1-0.5-2-0.8-3.3-0.6c1,0.7,0.9,0.6,1.4,0.9
						c-1.5-0.1-1.7,0.3-2.9,1.4c-0.7,0.7-1.6,1.2-2.5,1.6c0.9-0.4,1.7-1,2.3-1.7c0.6-0.7,1.2-1.3,2-1.5c-0.5-0.3-0.7-0.5-1.2-0.8
						c1.3-0.3,2.3-0.3,3.6,0.2c-0.3-0.7-0.6-1-1-1.5C16.7,10.9,17.6,11.8,18,12.9z"/>
				</g>
			</g>
			<g>
				<g>
					<path fill="#7B8B92" d="M26.8,15.8c-0.9-0.4-1.8-0.9-2.5-1.6l-1.1-1c-0.8-0.5-1.1-0.5-1.8-0.4c0.5-0.3,0.4-0.2,1.4-0.9
						c-1.3-0.2-2.2,0.1-3.3,0.6c0.3-0.7,0.4-1.1,0.9-1.7c-1,0.3-1.9,1-2.3,2c0.5-1.4,1.6-2.1,3-2.4c-0.4,0.5-0.8,0.9-1,1.5
						c1.4-0.6,2.4-0.5,3.6-0.2c-0.4,0.3-0.7,0.4-1.2,0.8c0.4,0.1,0.7,0.3,1,0.5l1,1C25.1,14.8,25.9,15.4,26.8,15.8z"/>
				</g>
			</g>
		</g>
	</g>
</g>
</svg>
