<?xml version="1.0" encoding="utf-8"?>
<!-- Generator: Adobe Illustrator 18.0.0, SVG Export Plug-In . SVG Version: 6.00 Build 0)  -->
<!DOCTYPE svg PUBLIC "-//W3C//DTD SVG 1.1//EN" "http://www.w3.org/Graphics/SVG/1.1/DTD/svg11.dtd">
<svg version="1.1" id="Layer_1" xmlns="http://www.w3.org/2000/svg" xmlns:xlink="http://www.w3.org/1999/xlink" x="0px" y="0px"
	 viewBox="0 0 36 36" enable-background="new 0 0 36 36" xml:space="preserve">
<g>
	<g>
		<g>
			<g>
				<g>
					<path fill="#F29A2E" d="M9,27C9,27.5,9,27.9,9,28.4c-1.5-1.1-2.4-2.7-2.4-4.4l-0.3,1.2c-1.5-1.8-2-4.9-1.1-6.9
						c-0.2,0.2-0.5,0.3-0.7,0.5c-0.2-1.8,0.6-3.7,2.3-4.9c-0.3,0.2-0.7,0.4-1,0.6c0.1-1.8,0.9-3.6,2.5-4.9c-0.5,0.2-1,0.3-1.4,0.5
						c0.5-1.3,1.8-2.5,3.4-3C9.7,6.9,9.2,7,8.8,7c0.8-0.9,1.9-1.4,3.1-1.7c-0.3,0-0.6,0-0.9,0c1.2-0.8,2.9-1,4.3-0.5
						c-0.4-0.8-0.3-1.8,0.2-2.4c-0.1,0.7,0.4,1.5,0.9,2c0.5-1.1,1.2-2.1,2.4-2.4c-0.4,0.1-0.1,2.8-0.1,2.8s1.1-1.1,2.5-1.3
						c-0.4,0.3-0.7,0.9-0.8,1.4C21,4.1,22.2,4,23,4.8c-0.3,0.1-0.5,0.2-0.8,0.3c1.9,0,3.8,0.6,5,1.9c-0.5,0-1-0.1-1.5-0.1
						c1.7,0.5,3,1.7,3.4,3c-0.5-0.2-1-0.3-1.4-0.5c1.5,1.4,2.4,3.1,2.5,4.9c-0.3-0.2-0.7-0.4-1-0.6c1.6,1.3,2.5,3.1,2.3,4.9
						c-0.2-0.2-0.5-0.3-0.7-0.5c0.9,2.1,0.4,5.2-1.1,6.9L29.4,24c0,1.7-0.9,3.2-2.4,4.4c0.1-0.4,0-0.9,0.1-1.4c-0.4,3-8.1,3.5-9.6,7
						C17.6,30,9.5,30.4,9,27z"/>
				</g>
			</g>
		</g>
		<g>
			<g>
				<g>
					<g>
						<g>
							<path fill="#FFD68D" d="M31.6,15.7c-1.5,1.5-5,2.6-6.4,1.1c-1.5-1.5-0.4-5,1.1-6.4c1.5-1.5,3.9-1.5,5.3,0S33,14.2,31.6,15.7z
								"/>
						</g>
					</g>
				</g>
				<g>
					<g>
						<g>
							<path fill="#FFCC7B" d="M26.6,12.6c0.7-1.7,2.9-2.6,4.1-1.8c0.9,0.6,1.4,2.1,0.7,3.5C29.4,17.7,25.2,16,26.6,12.6z"/>
						</g>
					</g>
				</g>
				<g>
					<g>
						<path fill="#FFC269" d="M28.7,15.1c0.2-0.3,0.3-0.6,0.5-0.9c-0.5,0.2-1,0.6-1.3,1.1c-0.2-0.5-0.2-1.1,0-1.6
							c-0.3,0.3-0.5,0.7-0.5,1.2c-0.2-0.9-0.1-1.8,0.3-2.6c0.3-0.7,0.9-1.3,1.5-1.7c-1,0.2-2.2,0.9-2.6,2c-1.3,3.3,2.5,4.9,4.6,2
							C30.4,14.9,29.5,15,28.7,15.1z"/>
					</g>
				</g>
			</g>
			<g>
				<g>
					<g>
						<g>
							<path fill="#FFD68D" d="M4.4,15.7c1.5,1.5,5,2.6,6.4,1.1s0.4-5-1.1-6.4s-3.9-1.5-5.3,0S3,14.2,4.4,15.7z"/>
						</g>
					</g>
				</g>
				<g>
					<g>
						<g>
							<path fill="#FFCC7B" d="M9.4,12.6c-0.7-1.7-2.9-2.6-4.1-1.8c-0.9,0.6-1.4,2.1-0.7,3.5C6.6,17.7,10.8,16,9.4,12.6z"/>
						</g>
					</g>
				</g>
				<g>
					<g>
						<path fill="#FFC269" d="M7.3,15.1c-0.2-0.3-0.3-0.6-0.5-0.9c0.5,0.2,1,0.6,1.3,1.1c0.2-0.5,0.2-1.1,0-1.6
							c0.3,0.3,0.5,0.7,0.5,1.2C8.9,14,8.8,13,8.4,12.2c-0.3-0.7-0.9-1.3-1.5-1.7c1,0.2,2.2,0.9,2.6,2c1.3,3.3-2.5,4.9-4.6,2
							C5.6,14.9,6.5,15,7.3,15.1z"/>
					</g>
				</g>
			</g>
		</g>
		<g>
			<g>
				<g>
					<path fill="#E18823" d="M29.6,22.1c-0.1-0.3-0.3-0.7-0.6-0.9c0.2,1.5-0.2,3-1.1,4.2c0.1-0.5,0.1-1,0-1.4
						c-0.8,2.1-2.5,4.2-4.6,5c0.4-0.4,0.6-0.7,0.6-1.1c-1.5,0.7-2.7,1.5-3.7,2.8c0.2-0.5,0.3-0.9,0.2-1.4l-2.6,2.8
						c-0.5-1.5-2.7-3-3.9-3.6c0,0.4,0.3,0.9,0.6,1.3c-2-1-4.2-2-5.5-3.8c-0.3,0.3-0.3,0.7-0.2,1.1c-1.5-1.8-2.1-4.3-1.7-6.6
						c-0.5,0.2-0.7,0.6-0.9,1c0.3-1.9,1.1-3.8,2.2-5.4c-0.4,0-0.7,0.1-1.1,0.4c0.4-1.6,1.3-2.9,2.6-3.9c-0.8,0.1-1.5,0.3-2.2,0.7
						c1-1.8,2.9-3,4.9-3.4c-0.6-0.4-1.3-0.6-2-0.4c1.6-1,3.8-1,5.5,0c-0.6-1.3-0.3-2.9,0.7-3.9c-0.4,1.2-0.2,2.6,0.7,3.6
						c0.2-0.5,0.5-1,0.9-1.4c0.1,0.4,0.5,0.8,0.6,1.3c0.5-1,1.5-1.7,2.5-1.9c-0.5,0.6-0.9,1.3-1,2.1C21,8.4,22.1,8,23,8.3
						c0.9,0.2,1.7,0.8,2.4,1.5c-1-0.3-2.1-0.3-3.1,0.1c2,0.4,3.7,1.9,4.5,3.7c-0.2-0.2-0.6-0.3-0.9-0.3c1.5,1.2,2.7,2.8,3.4,4.7
						c-0.4-0.3-1-0.6-1.5-0.7C29.1,18.5,29.8,20.3,29.6,22.1z"/>
				</g>
			</g>
		</g>
		<g>
			<g>
				<g>
					<path fill="#FFD68D" d="M27.4,20.7c0,3.9-4.2,7-9.4,7c-5.2,0-9.4-3.2-9.4-7c0-1.7,0.8-3.3,2.1-4.5c0-3.2,3.3-5.8,7.3-5.8
						c4,0,7.3,2.6,7.3,5.8C26.6,17.5,27.4,19,27.4,20.7z"/>
				</g>
			</g>
		</g>
	</g>
	<g>
		<g>
			<g>
				<g>
					<g>
						<path fill="#3E4347" d="M24.4,18.4c0,1.3-1.6,1.9-2.9,1.9c-1.3,0-1.9-0.6-1.9-1.9c0-1.3,1.1-3.2,2.4-3.2
							C23.3,15.2,24.4,17.1,24.4,18.4z"/>
					</g>
				</g>
			</g>
			<g>
				<g>
					<g>
						<path fill="#FFFFFF" d="M24.1,18.6c0,1.2-1.5,1.8-2.7,1.8s-1.7-0.5-1.7-1.8s1-3,2.2-3S24.1,17.4,24.1,18.6z"/>
					</g>
				</g>
			</g>
			<g>
				<g>
					<g>
						<g>
							<circle fill="#65B1EF" cx="21.6" cy="18.3" r="1.3"/>
						</g>
					</g>
				</g>
				<g>
					<g>
						<g>
							<circle fill="#3E4347" cx="21.6" cy="18.3" r="0.7"/>
						</g>
					</g>
				</g>
				<g>
					<g>
						<circle fill="#FFFFFF" cx="22" cy="17.8" r="0.3"/>
					</g>
				</g>
			</g>
		</g>
		<g>
			<g>
				<g>
					<g>
						<path fill="#3E4347" d="M11.6,18.4c0,1.3,1.6,1.9,2.9,1.9s1.9-0.6,1.9-1.9c0-1.3-1.1-3.2-2.4-3.2S11.6,17.1,11.6,18.4z"/>
					</g>
				</g>
			</g>
			<g>
				<g>
					<g>
						<path fill="#FFFFFF" d="M11.9,18.6c0,1.2,1.5,1.8,2.7,1.8s1.7-0.5,1.7-1.8s-1-3-2.2-3S11.9,17.4,11.9,18.6z"/>
					</g>
				</g>
			</g>
			<g>
				<g>
					<g>
						<g>
							<circle fill="#65B1EF" cx="14.4" cy="18.3" r="1.3"/>
						</g>
					</g>
				</g>
				<g>
					<g>
						<g>
							<circle fill="#3E4347" cx="14.4" cy="18.3" r="0.7"/>
						</g>
					</g>
				</g>
				<g>
					<g>
						<circle fill="#FFFFFF" cx="14.9" cy="17.8" r="0.3"/>
					</g>
				</g>
			</g>
		</g>
	</g>
	<g>
		<g>
			<g>
				<g>
					<g>
						<path fill="#FFD68D" d="M14.7,24.5c-0.4,0-0.8,0.4-0.8,0.8c0.1,2.6,2,4.5,4.1,4.5c2.1,0,3.9-1.9,4.1-4.5
							c0-0.4-0.3-0.8-0.8-0.8H14.7z"/>
					</g>
				</g>
			</g>
			<g>
				<g>
					<g>
						<path fill="#6D4135" d="M15.4,25c-0.3,0-0.6,0.3-0.6,0.6c0.1,1.9,1.5,3.3,3.1,3.3c1.6,0,3.1-1.4,3.1-3.3
							c0-0.3-0.3-0.6-0.6-0.6H15.4z"/>
					</g>
				</g>
			</g>
			<g>
				<g>
					<g>
						<path fill="#5B331D" d="M16.3,25.6c-0.2,0-0.4,0.2-0.4,0.4c0.1,1.3,1,2.3,2,2.3c1.1,0,2-1,2-2.3c0-0.2-0.2-0.4-0.4-0.4H16.3z"
							/>
					</g>
				</g>
			</g>
		</g>
		<g>
			<g>
				<g>
					<g>
						<path fill="#FFE9AB" d="M22.9,24.6c0,1.5-1.2,2.8-2.8,2.8c-0.9,0-1.6-0.4-2.1-1c-0.5,0.6-1.3,1-2.1,1c-1.5,0-2.8-1.2-2.8-2.8
							c0-1.5,1.2-2.8,2.8-2.8c1.4-0.2,2.9-0.2,4.3,0C21.7,21.9,22.9,23.1,22.9,24.6z"/>
					</g>
				</g>
			</g>
		</g>
		<g>
			<g>
				<g>
					<g>
						<g>
							<path fill="#6D4135" d="M20,22.2c0,0.3-0.1,0.6-0.3,0.8c-0.9,1.1-2.6,1.1-3.4,0c-0.2-0.2-0.3-0.5-0.3-0.8
								c0-1.1,0.9-1.6,2-1.6C19.1,20.6,20,21,20,22.2z"/>
						</g>
					</g>
				</g>
				<g>
					<g>
						<g>
							<path fill="#633B2A" d="M20,22.2c0,0.3-0.1,0.6-0.3,0.8c-0.9,1.1-2.6,1.1-3.5,0c-0.2-0.2-0.3-0.5-0.3-0.8c0-0.1,0-0.1,0-0.2
								c0,0,0,0,0,0c0.9,1.1,2.6,1.1,3.5,0c0.2-0.2,0.3-0.5,0.3-0.7C19.9,21.5,20,21.8,20,22.2z"/>
						</g>
					</g>
				</g>
			</g>
			<g opacity="0.1">
				<g>
					<g>
						<path fill="#FFFFFF" d="M18.8,21.3c0,0.3-0.4,0.2-0.9,0.2c-0.5,0-0.9,0.1-0.9-0.2c0-0.3,0.4-0.5,0.9-0.5
							C18.4,20.8,18.8,21,18.8,21.3z"/>
					</g>
				</g>
			</g>
		</g>
		<g>
			<g>
				<g>
					<g>
						<path fill="#3E4347" d="M8.2,23.8c1.1-0.6,2.5-0.9,3.7-0.9c1.2,0,2.5,0.4,3.7,1.1l0,0c0.1,0,0.1,0.1,0,0.2
							c0,0.1-0.1,0.1-0.2,0c0,0,0,0,0,0c-0.8-0.6-2.2-1.1-3.6-1.2C10.6,22.9,9.2,23.2,8.2,23.8z"/>
					</g>
				</g>
				<g>
					<g>
						<path fill="#3E4347" d="M15.6,25.6c0,0.1,0,0.1-0.1,0.1c0,0,0,0,0,0c0,0-0.1,0-0.2,0c-0.8,0.1-1.7,0.4-2.4,1
							c-0.7,0.5-1.3,1.3-1.6,2.3c0.3-0.9,0.7-1.6,1.5-2.4c0.7-0.6,1.6-1,2.5-1.1c0.2,0,0.2,0,0.2,0C15.6,25.5,15.6,25.5,15.6,25.6z"
							/>
					</g>
				</g>
				<g>
					<g>
						<path fill="#3E4347" d="M8.9,27.6c0.6-0.9,1.8-2.3,3.3-3.1c1.1-0.4,1.4-0.4,2.2-0.3c0.1,0,0.1,0.1,0.1,0.1
							c0,0.1-0.1,0.1-0.1,0.1c-0.7-0.1-0.9-0.2-2.1,0.2C10.8,25.3,9.8,26.4,8.9,27.6z"/>
					</g>
				</g>
				<g>
					<g>
						<path fill="#3E4347" d="M12.6,25.8c-0.6,0.3-1.1,0.7-1.5,1c-0.2,0.2-0.4,0.4-0.5,0.5c0.1-0.1,0.3-0.3,0.5-0.5
							c0.4-0.3,0.9-0.7,1.4-1.1c0.8-0.5,1.7-0.8,2.4-1l0,0c0.1,0,0.1,0,0.1,0.1c0,0.1,0,0.1-0.1,0.1c0,0,0,0,0,0
							C14.3,25.1,13.4,25.4,12.6,25.8z"/>
					</g>
				</g>
				<g>
					<g>
						<g>
							<circle fill="#FFD68D" cx="14.8" cy="24.3" r="0.2"/>
						</g>
					</g>
					<g>
						<g>
							<circle fill="#FFD68D" cx="15.4" cy="23.6" r="0.1"/>
						</g>
					</g>
					<g>
						<g>
							<circle fill="#FFD68D" cx="15.5" cy="24.7" r="0.1"/>
						</g>
					</g>
					<g>
						<g>
							<circle fill="#FFD68D" cx="16.1" cy="25.9" r="0.1"/>
						</g>
					</g>
					<g>
						<g>
							<circle fill="#FFD68D" cx="15.4" cy="26.3" r="0.1"/>
						</g>
					</g>
					<g>
						<g>
							<circle fill="#FFD68D" cx="16.2" cy="25" r="0.1"/>
						</g>
					</g>
					<g>
						<g>
							<circle fill="#FFD68D" cx="14.7" cy="25.4" r="0.1"/>
						</g>
					</g>
					<g>
						<g>
							<circle fill="#FFD68D" cx="16" cy="24.4" r="0.1"/>
						</g>
					</g>
					<g>
						<g>
							<circle fill="#FFD68D" cx="14.1" cy="24.7" r="0.1"/>
						</g>
					</g>
					<g>
						<g>
							<circle fill="#FFD68D" cx="14.2" cy="23.9" r="0.1"/>
						</g>
					</g>
					<g>
						<g>
							<circle fill="#FFD68D" cx="14.9" cy="23.4" r="0"/>
						</g>
					</g>
					<g>
						<g>
							<circle fill="#FFD68D" cx="15.4" cy="25.2" r="0.1"/>
						</g>
					</g>
					<g>
						<g>
							<circle fill="#FFD68D" cx="15.7" cy="26" r="0"/>
						</g>
					</g>
				</g>
			</g>
			<g>
				<g>
					<g>
						<path fill="#3E4347" d="M27.8,23.8c-1.1-0.6-2.5-0.9-3.7-0.9c-1.2,0-2.5,0.4-3.7,1.1l0,0c-0.1,0-0.1,0.1,0,0.2
							c0,0.1,0.1,0.1,0.2,0c0,0,0,0,0,0c0.8-0.6,2.2-1.1,3.6-1.2C25.4,22.9,26.8,23.2,27.8,23.8z"/>
					</g>
				</g>
				<g>
					<g>
						<path fill="#3E4347" d="M20.4,25.6c0,0.1,0,0.1,0.1,0.1c0,0,0,0,0,0c0,0,0.1,0,0.2,0c0.8,0.1,1.7,0.4,2.4,1
							c0.7,0.5,1.3,1.3,1.6,2.3c-0.3-0.9-0.7-1.6-1.5-2.4c-0.7-0.6-1.6-1-2.5-1.1c-0.2,0-0.2,0-0.2,0C20.4,25.5,20.4,25.5,20.4,25.6
							z"/>
					</g>
				</g>
				<g>
					<g>
						<path fill="#3E4347" d="M27.1,27.6c-0.6-0.9-1.8-2.3-3.3-3.1c-1.1-0.4-1.4-0.4-2.2-0.3c-0.1,0-0.1,0.1-0.1,0.1
							c0,0.1,0.1,0.1,0.1,0.1c0.7-0.1,0.9-0.2,2.1,0.2C25.2,25.3,26.2,26.4,27.1,27.6z"/>
					</g>
				</g>
				<g>
					<g>
						<path fill="#3E4347" d="M23.4,25.8c0.6,0.3,1.1,0.7,1.5,1c0.2,0.2,0.4,0.4,0.5,0.5c-0.1-0.1-0.3-0.3-0.5-0.5
							c-0.4-0.3-0.9-0.7-1.4-1.1c-0.8-0.5-1.7-0.8-2.4-1l0,0c-0.1,0-0.1,0-0.1,0.1c0,0.1,0,0.1,0.1,0.1c0,0,0,0,0,0
							C21.7,25.1,22.6,25.4,23.4,25.8z"/>
					</g>
				</g>
				<g>
					<g>
						<g>
							<circle fill="#FFD68D" cx="21.2" cy="24.3" r="0.2"/>
						</g>
					</g>
					<g>
						<g>
							<circle fill="#FFD68D" cx="20.6" cy="23.6" r="0.1"/>
						</g>
					</g>
					<g>
						<g>
							<circle fill="#FFD68D" cx="20.5" cy="24.7" r="0.1"/>
						</g>
					</g>
					<g>
						<g>
							<circle fill="#FFD68D" cx="19.9" cy="25.9" r="0.1"/>
						</g>
					</g>
					<g>
						<g>
							<circle fill="#FFD68D" cx="20.6" cy="26.3" r="0.1"/>
						</g>
					</g>
					<g>
						<g>
							<circle fill="#FFD68D" cx="19.8" cy="25" r="0.1"/>
						</g>
					</g>
					<g>
						<g>
							<circle fill="#FFD68D" cx="21.3" cy="25.4" r="0.1"/>
						</g>
					</g>
					<g>
						<g>
							<circle fill="#FFD68D" cx="20" cy="24.4" r="0.1"/>
						</g>
					</g>
					<g>
						<g>
							<circle fill="#FFD68D" cx="21.9" cy="24.7" r="0.1"/>
						</g>
					</g>
					<g>
						<g>
							<circle fill="#FFD68D" cx="21.8" cy="23.9" r="0.1"/>
						</g>
					</g>
					<g>
						<g>
							<circle fill="#FFD68D" cx="21.1" cy="23.4" r="0"/>
						</g>
					</g>
					<g>
						<g>
							<circle fill="#FFD68D" cx="20.6" cy="25.2" r="0.1"/>
						</g>
					</g>
					<g>
						<g>
							<circle fill="#FFD68D" cx="20.3" cy="26" r="0"/>
						</g>
					</g>
				</g>
			</g>
		</g>
	</g>
	<g>
		<g>
			<path fill="#E24B4B" d="M20,28.1c-0.2-0.2-0.3-0.4-0.5-0.6c-0.4-0.3-0.9-0.3-1.3-0.1c-0.2,0.1-0.4,0.1-0.6,0
				c-0.5-0.1-1,0-1.3,0.4c-0.1,0.1-0.1,0.2-0.2,0.3c0.6,0.5,1.3,0.8,2,0.8C18.8,28.9,19.4,28.6,20,28.1z"/>
		</g>
	</g>
	<g opacity="0.2">
		<g>
			<g>
				<ellipse transform="matrix(0.955 0.2965 -0.2965 0.955 9.0934 -4.3711)" fill="#FFFFFF" cx="19" cy="27.8" rx="0.4" ry="0.2"/>
			</g>
		</g>
	</g>
</g>
</svg>
