<?xml version="1.0" encoding="utf-8"?>
<!-- Generator: Adobe Illustrator 18.0.0, SVG Export Plug-In . SVG Version: 6.00 Build 0)  -->
<!DOCTYPE svg PUBLIC "-//W3C//DTD SVG 1.1//EN" "http://www.w3.org/Graphics/SVG/1.1/DTD/svg11.dtd">
<svg version="1.1" id="Layer_1" xmlns="http://www.w3.org/2000/svg" xmlns:xlink="http://www.w3.org/1999/xlink" x="0px" y="0px"
	 viewBox="0 0 36 36" enable-background="new 0 0 36 36" xml:space="preserve">
<g>
	<g>
		<g>
			<g>
				<path fill="#FFE9AB" d="M30.9,18c1.5,7.1-6,12.9-12.9,12.9c-6.9,0-14.3-5.8-12.9-12.9C6.6,10.9,10.7,5.1,18,5.1
					C25.3,5.1,29.4,10.9,30.9,18z"/>
			</g>
		</g>
	</g>
	<g>
		<g>
			<g>
				<ellipse fill="#FFE9AB" cx="18" cy="26.8" rx="6" ry="5.1"/>
			</g>
		</g>
	</g>
	<g>
		<g>
			<g>
				<path fill="#FFD68D" d="M23.1,29.4c-0.2,0.3-0.7,0.8-1.3,1.3c-0.9,0.7-2.3,1.2-3.8,1.2c-1.5,0-2.9-0.5-3.8-1.2
					c-0.6-0.4-1-0.9-1.3-1.3c0.6,0.5,0.6,0.5,1.5,1.1c0.9,0.5,2.3,0.9,3.7,0.9c1.2,0,2.6-0.3,3.7-0.9C22.7,29.8,22.5,29.9,23.1,29.4
					z"/>
			</g>
		</g>
	</g>
	<g>
		<g>
			<g>
				<path fill="#31373A" d="M15.6,28.4c0.5,0.6,1.4,1,2.4,1c1,0,1.9-0.4,2.4-1C18.8,28.1,17.2,28.1,15.6,28.4z"/>
			</g>
		</g>
	</g>
	<g>
		<g>
			<g>
				<path fill="#89664C" d="M17.6,15.7c-0.8,3.3-3.7,6-6.5,6c-0.8,0-2.1-0.1-3.5-0.3c-1.6-0.3-2.7-1.8-2.4-3.3c0,0,0,0,0,0
					c0.1-0.3,0.1-0.6,0.2-0.8c0.9-3.8,4-6.8,7.9-7.4c0.3,0,0.5-0.1,0.7-0.1C16.7,9.7,18.4,12.4,17.6,15.7z"/>
			</g>
		</g>
	</g>
	<g>
		<g>
			<g>
				<g>
					<g>
						<g>
							<circle fill="#FFFFFF" cx="13" cy="16.1" r="2.9"/>
						</g>
					</g>
				</g>
				<g>
					<g>
						<g>
							<g>
								<path fill="#65B1EF" d="M14.6,16.1c0,0.9-0.7,1.7-1.7,1.7c-0.9,0-1.7-0.8-1.7-1.7c0-0.9,0.8-1.7,1.7-1.7
									C13.9,14.4,14.6,15.1,14.6,16.1z"/>
							</g>
						</g>
					</g>
					<g>
						<g>
							<g>
								<path fill="#3E4347" d="M13.9,16.1c0,0.5-0.4,0.9-0.9,0.9S12,16.6,12,16.1c0-0.5,0.4-0.9,0.9-0.9S13.9,15.5,13.9,16.1z"/>
							</g>
						</g>
					</g>
					<g>
						<g>
							<g>
								<circle fill="#FFFFFF" cx="13.6" cy="15.3" r="0.4"/>
							</g>
						</g>
					</g>
				</g>
			</g>
			<g>
				<g>
					<g>
						<path fill="#3E4347" d="M15.8,11.4c-1.2,0-2.3-0.3-3.8,0.2c-1.5,0.4-2.1,1.2-3.1,2.2c0.1-1.2,1.1-2.5,2.8-3
							C13.2,10.3,14.9,10.7,15.8,11.4z"/>
					</g>
				</g>
			</g>
		</g>
		<g>
			<g>
				<g>
					<g>
						<g>
							<circle fill="#FFFFFF" cx="23" cy="16.1" r="2.9"/>
						</g>
					</g>
				</g>
				<g>
					<g>
						<g>
							<g>
								<path fill="#65B1EF" d="M24.7,16.1c0,0.9-0.7,1.7-1.7,1.7c-0.9,0-1.7-0.8-1.7-1.7c0-0.9,0.8-1.7,1.7-1.7
									C24,14.4,24.7,15.1,24.7,16.1z"/>
							</g>
						</g>
					</g>
					<g>
						<g>
							<g>
								<path fill="#3E4347" d="M24,16.1c0,0.5-0.4,0.9-0.9,0.9c-0.5,0-0.9-0.4-0.9-0.9c0-0.5,0.4-0.9,0.9-0.9
									C23.6,15.1,24,15.5,24,16.1z"/>
							</g>
						</g>
					</g>
					<g>
						<g>
							<g>
								<circle fill="#FFFFFF" cx="23.8" cy="15.5" r="0.4"/>
							</g>
						</g>
					</g>
				</g>
			</g>
			<g>
				<g>
					<g>
						<path fill="#3E4347" d="M20.2,11.4c0.9-0.7,2.6-1.1,4.1-0.6c1.7,0.5,2.7,1.9,2.8,3c-0.9-1-1.6-1.7-3.1-2.2
							C22.5,11.1,21.3,11.4,20.2,11.4z"/>
					</g>
				</g>
			</g>
		</g>
	</g>
	<g>
		<g>
			<g>
				<g>
					<path fill="#3E4347" d="M23.3,27.6c-1.5,0.2-2.9,1.9-5.2,0.8c-2.3,1.1-3.8-0.6-5.3-0.8c-1.5-0.2-1.8-1-1.1-1
						c0.7,0,2.5,1.6,4.4,1.6c1.9,0,1.9-1.9,1.9-1.9v-0.8l0,0v0.8c0,0,0,1.9,1.9,1.9c1.9,0,3.8-1.6,4.5-1.6
						C25,26.6,24.7,27.4,23.3,27.6z"/>
				</g>
			</g>
		</g>
		<g>
			<g>
				<g>
					<path fill="#6D4135" d="M20.7,24.7c0,0.3-0.1,0.6-0.3,0.9c-1.1,1.6-3.6,1.6-4.7,0c-0.2-0.3-0.3-0.6-0.3-0.9
						c0-1.5,1.2-1.9,2.7-1.9S20.7,23.2,20.7,24.7z"/>
				</g>
			</g>
		</g>
	</g>
	<g>
		<g>
			<g>
				<g>
					<g>
						<path fill="#FFD68D" d="M33.5,20c-0.4,2.3-6.3-0.9-6.2-6c0.2-3.6-1.9-7-5.4-8.2c0,0-0.1,0-0.1,0c0.5-1,1.5-1.6,2.8-1.6
							c1.1-0.1,2.1,0.3,3.1,0.7c0.9,0.4,0.1,0.1,1.5,0.5C34.3,7.1,34.6,14.3,33.5,20z"/>
					</g>
				</g>
			</g>
			<g>
				<g>
					<path fill="#6B503B" d="M27.3,13.3c0,0,0-0.1,0-0.1c0.1-2.3-1-4.4-1.5-6c-0.5-1.5-1.4-2-2.3-2.1c-0.9,0-1.8,0.7-1.8,0.7
						c0,0,0.1,0,0.1,0C25.1,6.9,27.2,9.9,27.3,13.3z"/>
				</g>
			</g>
			<g>
				<g>
					<path fill="#F4C77F" d="M33.1,17.3c-0.5,1.9-1.4,2.6-3.1,1.6c-0.6-0.3-1.1-0.7-1.6-1.2c1.7,2.8,4.8,4,5.1,2.3
						c0.6-3,0.8-6.4,0.1-9.2C33.8,13,33.6,15.2,33.1,17.3z"/>
				</g>
			</g>
			<g>
				<g>
					<g>
						<path fill="#F4C77F" d="M21.8,5.7c0.2-0.4,0.6-0.9,1.1-1.2c0.9-0.5,2.3-0.6,3.6-0.2c1.3,0.3,2.4,1.3,3,2.1
							c0.4,0.6,0.6,0.9,0.9,1.4c-0.5-0.7-0.4-0.6-1-1.3c-0.7-0.8-1.8-1.6-2.9-1.9c-1-0.3-2.6-0.3-3.4,0.1
							C22.5,4.9,22.1,5.3,21.8,5.7z"/>
					</g>
				</g>
			</g>
		</g>
		<g>
			<g>
				<g>
					<g>
						<path fill="#FFD68D" d="M2.5,20c0.4,2.3,6.3-0.9,6.2-6c-0.2-3.6,1.9-7,5.4-8.2c0,0,0.1,0,0.1,0c-0.5-1-1.5-1.6-2.8-1.6
							C10.3,4,9.2,4.4,8.3,4.8C7.4,5.3,8.1,4.9,6.8,5.4C1.7,7.1,1.4,14.3,2.5,20z"/>
					</g>
				</g>
			</g>
			<g>
				<g>
					<path fill="#6B503B" d="M8.7,13.3c0,0,0-0.1,0-0.1c-0.1-2.3,1-4.4,1.5-6c0.5-1.5,1.4-2,2.3-2.1c0.9,0,1.8,0.7,1.8,0.7
						c0,0-0.1,0-0.1,0C10.9,6.9,8.8,9.9,8.7,13.3z"/>
				</g>
			</g>
			<g>
				<g>
					<path fill="#F4C77F" d="M2.9,17.3c0.5,1.9,1.4,2.6,3.1,1.6c0.6-0.3,1.1-0.7,1.6-1.2c-1.7,2.8-4.8,4-5.1,2.3
						c-0.6-3-0.8-6.4-0.1-9.2C2.2,13,2.4,15.2,2.9,17.3z"/>
				</g>
			</g>
			<g>
				<g>
					<g>
						<path fill="#F4C77F" d="M14.2,5.7c-0.2-0.4-0.6-0.9-1.1-1.2C12.2,4,10.8,3.9,9.5,4.3c-1.3,0.3-2.4,1.3-3,2.1
							C6.1,6.9,5.9,7.2,5.6,7.8c0.5-0.7,0.4-0.6,1-1.3c0.7-0.8,1.8-1.6,2.9-1.9c1-0.3,2.6-0.3,3.4,0.1C13.5,4.9,13.9,5.3,14.2,5.7z"
							/>
					</g>
				</g>
			</g>
		</g>
	</g>
	<g>
		<g>
			<g>
				<path fill="#633B2A" d="M20.7,24.7c0,0.3-0.1,0.6-0.3,0.9c-1.1,1.6-3.6,1.6-4.7,0c-0.2-0.3-0.3-0.6-0.3-0.9v-0.1
					c1.2,1.6,3.7,1.6,4.8,0c0.2-0.2,0.3-0.5,0.3-0.8C20.6,24.1,20.7,24.4,20.7,24.7z"/>
			</g>
		</g>
	</g>
	<g opacity="0.15">
		<g>
			<g>
				<ellipse fill="#FFFFFF" cx="18" cy="23.7" rx="1.2" ry="0.6"/>
			</g>
		</g>
	</g>
</g>
</svg>
