<?xml version="1.0" encoding="utf-8"?>
<!-- Generator: Adobe Illustrator 18.0.0, SVG Export Plug-In . SVG Version: 6.00 Build 0)  -->
<!DOCTYPE svg PUBLIC "-//W3C//DTD SVG 1.1//EN" "http://www.w3.org/Graphics/SVG/1.1/DTD/svg11.dtd">
<svg version="1.1" id="Layer_1" xmlns="http://www.w3.org/2000/svg" xmlns:xlink="http://www.w3.org/1999/xlink" x="0px" y="0px"
	 viewBox="0 0 36 36" enable-background="new 0 0 36 36" xml:space="preserve">
<g>
	<g>
		<g>
			<g>
				<g>
					<g>
						<circle fill="#5C4533" cx="28.7" cy="7.6" r="5.3"/>
					</g>
				</g>
			</g>
			<g>
				<g>
					<g>
						<circle fill="#6B503B" cx="28.7" cy="7.6" r="3.7"/>
					</g>
				</g>
			</g>
		</g>
		<g>
			<g>
				<g>
					<g>
						<circle fill="#5C4533" cx="7.3" cy="7.6" r="5.3"/>
					</g>
				</g>
			</g>
			<g>
				<g>
					<g>
						<circle fill="#6B503B" cx="7.3" cy="7.6" r="3.7"/>
					</g>
				</g>
			</g>
		</g>
	</g>
	<g>
		<g>
			<g>
				<path fill="#7A5B44" d="M32.9,17.7c0,8.2-6.7,15.9-14.9,15.9S3.1,25.9,3.1,17.7S9.8,2.8,18,2.8S32.9,9.5,32.9,17.7z"/>
			</g>
		</g>
	</g>
	<g>
		<g>
			<path fill="#5C4533" d="M18,33.6c7.7,0,14.1-6.8,14.8-14.5c-0.6-0.5-1.3-0.9-2.1-1.2c-3.9-1.1-8.4,2-10,6.6
				c-0.9-0.2-1.8-0.3-2.7-0.3s-1.9,0.1-2.7,0.3c-1.6-4.5-6.1-7.6-10-6.6c-0.8,0.2-1.5,0.6-2.1,1.2C3.9,26.8,10.3,33.6,18,33.6z"/>
		</g>
	</g>
	<g>
		<g>
			<g>
				<circle fill="#6B503B" cx="18" cy="27.2" r="3.4"/>
			</g>
		</g>
	</g>
	<g>
		<g>
			<g>
				<circle fill="#31373A" cx="18" cy="27.2" r="2.6"/>
			</g>
		</g>
	</g>
	<g>
		<g>
			<g>
				<path fill="#7A5B44" d="M22.4,19.3c0.2,9.1-1.6,9.5-4.4,9.5c-2.8,0-4.6-0.4-4.4-9.5c0.1-4.9,2.1-8.6,4.4-8.6
					S22.2,14.4,22.4,19.3z"/>
			</g>
		</g>
	</g>
	<g>
		<g>
			<g>
				<g>
					<path fill="#3E4347" d="M20.7,24.8c0.1,0.8-0.6,1.7-1.5,2.2c-0.8,0.3-1.5,0.3-2.3,0c-0.9-0.4-1.6-1.4-1.5-2.2
						c-0.2-1.6,1.2-1.9,2.7-1.8C19.5,22.9,20.8,23.3,20.7,24.8z"/>
				</g>
			</g>
		</g>
		<g>
			<g>
				<g>
					<path fill="#31373A" d="M20.7,24.8c0.1,0.8-0.6,1.7-1.5,2.2c-0.8,0.3-1.5,0.3-2.3,0c-0.8-0.3-1.4-1.1-1.5-1.8
						c0.2,0.4,0.5,0.8,1,1.1c0.7,0.5,1.7,0.5,2.5,0c1-0.6,1.7-1.5,1.6-2.3c0-0.2,0-0.4-0.1-0.5C20.6,23.8,20.7,24.3,20.7,24.8z"/>
				</g>
			</g>
		</g>
		<g opacity="0.1">
			<g>
				<g>
					<path fill="#FFFFFF" d="M19.6,24.6c0.1,0.9-1,1.7-2.1,1.6c-1.2,0-1.9-0.8-1.9-1.6c0-0.8,0.8-1.5,1.9-1.5
						C18.5,23.1,19.5,23.7,19.6,24.6z"/>
				</g>
			</g>
		</g>
		<g opacity="0.15">
			<g>
				<g>
					<path fill="#FFFFFF" d="M17.8,23.7c0.1,0.2-0.3,0.6-0.8,0.9c-0.5,0.2-1,0.1-1-0.1c-0.1-0.3,0.2-0.6,0.7-0.8
						C17.2,23.4,17.7,23.4,17.8,23.7z"/>
				</g>
			</g>
		</g>
	</g>
	<g>
		<g>
			<g>
				<g>
					<g>
						<g>
							<path fill="#6B503B" d="M8.3,17.6c1,2.4,3.6,1.1,5.3,4c0.2-1.3,0.5-2.5,0.9-3.6c0.4-1,0.3-2.3-0.4-3.1
								c-0.2-0.2-0.4-0.4-0.7-0.6C10.5,12.4,7.3,15.3,8.3,17.6z"/>
						</g>
					</g>
				</g>
			</g>
			<g>
				<g>
					<g>
						<g>
							<path fill="#FFFFFF" d="M9.8,17.1c0,1.1,0.9,2,2,2c1.1,0,2-0.9,2-2c0-1.1-0.9-2-2-2C10.7,15,9.8,15.9,9.8,17.1z"/>
						</g>
					</g>
				</g>
				<g>
					<g>
						<g>
							<path fill="#F29A2E" d="M10.5,17.1c0,0.7,0.6,1.3,1.3,1.3c0.7,0,1.3-0.6,1.3-1.3c0-0.7-0.6-1.3-1.3-1.3
								C11.1,15.7,10.5,16.3,10.5,17.1z"/>
						</g>
					</g>
				</g>
				<g>
					<g>
						<g>
							<path fill="#3E4347" d="M11,17.1c0,0.4,0.4,0.8,0.8,0.8c0.4,0,0.8-0.4,0.8-0.8c0-0.4-0.4-0.8-0.8-0.8
								C11.4,16.3,11,16.6,11,17.1z"/>
						</g>
					</g>
				</g>
				<g>
					<g>
						<g>
							<circle fill="#FFFFFF" cx="11.8" cy="16.5" r="0.4"/>
						</g>
					</g>
					<g>
						<g>
							<circle fill="#FFFFFF" cx="12.4" cy="17.4" r="0.3"/>
						</g>
					</g>
				</g>
			</g>
		</g>
		<g>
			<g>
				<g>
					<g>
						<g>
							<path fill="#6B503B" d="M27.7,17.6c-1,2.4-3.6,1.1-5.4,4c-0.2-1.3-0.5-2.5-0.9-3.6c-0.4-1-0.3-2.3,0.4-3.1
								c0.2-0.2,0.4-0.4,0.7-0.6C25.5,12.4,28.7,15.3,27.7,17.6z"/>
						</g>
					</g>
				</g>
			</g>
			<g>
				<g>
					<g>
						<g>
							<path fill="#FFFFFF" d="M26.2,17.1c0,1.1-0.9,2-2,2c-1.1,0-2-0.9-2-2c0-1.1,0.9-2,2-2C25.3,15,26.2,15.9,26.2,17.1z"/>
						</g>
					</g>
				</g>
				<g>
					<g>
						<g>
							<path fill="#F29A2E" d="M25.5,17.1c0,0.7-0.6,1.3-1.3,1.3c-0.7,0-1.3-0.6-1.3-1.3c0-0.7,0.6-1.3,1.3-1.3
								C24.9,15.7,25.5,16.3,25.5,17.1z"/>
						</g>
					</g>
				</g>
				<g>
					<g>
						<g>
							<path fill="#3E4347" d="M25,17.1c0,0.4-0.4,0.8-0.8,0.8c-0.4,0-0.8-0.4-0.8-0.8c0-0.4,0.4-0.8,0.8-0.8
								C24.6,16.3,25,16.6,25,17.1z"/>
						</g>
					</g>
				</g>
				<g>
					<g>
						<g>
							<circle fill="#FFFFFF" cx="24.2" cy="16.5" r="0.4"/>
						</g>
					</g>
					<g>
						<g>
							<circle fill="#FFFFFF" cx="23.6" cy="17.4" r="0.3"/>
						</g>
					</g>
				</g>
			</g>
		</g>
	</g>
	<g>
		<g>
			<g>
				<g>
					<path fill="#5C4533" d="M14.3,11.7C14.3,11.7,14.3,11.7,14.3,11.7L14.3,11.7c-0.3,0.2-1,0.1-1.3,0.1c-1,0-1.7-0.4-3,0.2
						c-1,0.3-1.8,1.2-2.5,1.8c0,0,0,0,0,0c0,0,0,0,0,0c0,0,0,0,0,0c0.4-1.1,1-2.2,2.1-2.7c1.2-0.7,3-0.7,3.8-0.3
						C13.6,10.9,14.1,11.2,14.3,11.7z"/>
				</g>
			</g>
			<g>
				<g>
					<path fill="#5C4533" d="M28.7,13.7C28.7,13.8,28.7,13.8,28.7,13.7C28.6,13.8,28.6,13.8,28.7,13.7c-1.1-0.9-1.8-1.6-3.2-2
						c-1.3-0.2-1.4,0-2.4,0c-0.3,0-1,0-1.3,0c0,0-0.1,0-0.1-0.1c0,0,0,0,0,0c0.2-0.4,0.6-0.8,1-1c0.6-0.3,1.7-0.4,3.1,0
						C27.8,11.4,28.3,12.7,28.7,13.7z"/>
				</g>
			</g>
		</g>
	</g>
</g>
</svg>
