<?xml version="1.0" encoding="utf-8"?>
<!-- Generator: Adobe Illustrator 18.0.0, SVG Export Plug-In . SVG Version: 6.00 Build 0)  -->
<!DOCTYPE svg PUBLIC "-//W3C//DTD SVG 1.1//EN" "http://www.w3.org/Graphics/SVG/1.1/DTD/svg11.dtd">
<svg version="1.1" id="Layer_1" xmlns="http://www.w3.org/2000/svg" xmlns:xlink="http://www.w3.org/1999/xlink" x="0px" y="0px"
	 viewBox="0 0 36 36" enable-background="new 0 0 36 36" xml:space="preserve">
<g>
	<g>
		<g>
			<g>
				<g>
					<g>
						<path fill="#3E4347" d="M26.7,12.6c0.6,0.8,0.8,1.7,0.8,2.5c-3.1,0.6-6.5,1.1-9.5,1.1h0c-3,0-6.4-0.4-9.5-1.1
							c0-0.9,0.3-1.8,0.8-2.5c-0.5,0.2-1,0.4-1.5,0.6c0.5-1.3,1.5-2.5,2.8-3.6C10,9.8,9.3,9.9,8.7,10c0.4-1,1.2-1.8,2.2-2.4
							c-0.5,0-1,0.1-1.5,0.1c1.1-0.7,2.3-1.4,3.7-1.9c-0.4-0.1-0.9-0.2-1.3-0.1c0.6-0.3,1.3-0.5,2.2-0.5c-0.4-0.2-0.8-0.3-1.2-0.5
							c0.8-0.1,1.7,0,2.5,0.2c-0.3-0.5-0.8-0.9-1.3-1.2c1.2,0.1,2.4,0.6,3.3,1.4c0.4-1,1.2-1.9,2.2-2.5c-0.5,0.6-0.8,1.3-0.9,2.1
							c0.9-0.8,1.9-1.4,3-1.8c-0.8,0.6-1.5,1.3-2,2.1c1.1-0.6,2.4-0.9,3.7-0.8c-0.8,0.2-1.6,0.5-2.3,0.8c1.3,0,2.6,0.2,3.5,0.6
							c-0.4,0-0.9,0-1.4,0.1c1.3,0.6,2.6,1.2,3.7,1.9c-0.5-0.1-1-0.1-1.5-0.1c1,0.6,1.8,1.4,2.2,2.4c-0.6-0.1-1.3-0.2-1.9-0.4
							c1.4,1,2.3,2.3,2.8,3.6C27.7,13,27.2,12.8,26.7,12.6z"/>
					</g>
				</g>
			</g>
		</g>
		<g>
			<g>
				<g>
					<g>
						<g>
							<g>
								<g>
									<path fill="#3E4347" d="M7.4,13.1c-0.3,1.6-0.5,3.2-0.3,4.8c0.2-0.3,0.4-0.6,0.6-0.9c-0.6,2-0.4,4.1,0.6,5.9
										c0-0.6,0.1-1.2,0.4-1.8c-0.3,1.7,0.4,3.5,1.5,4.7c1.1,1.3,2.7,2.1,4.4,2.6c1.1,0.4,2.3,0.6,3.5,0.7
										c1.2-0.2,2.4-0.4,3.5-0.7c1.6-0.5,3.2-1.3,4.4-2.6c1.1-1.3,1.8-3.1,1.5-4.7c0.2,0.6,0.4,1.2,0.4,1.8c1-1.8,1.2-4,0.6-5.9
										c0.2,0.3,0.4,0.6,0.6,0.9c0.1-1.6,0-3.2-0.3-4.8H7.4z"/>
								</g>
							</g>
						</g>
					</g>
					<g>
						<g>
							<g>
								<g>
									<g>
										<g>
											<path fill="#FFD93B" d="M18,31.7C8,31.5,7,18.4,12,17.2c-1.7-1.2-2.1-4.8,0.7-6.5c2.2-1.4,5.1,0.1,5.3,1.4
												c0.2-1.3,3.1-2.8,5.3-1.4c2.9,1.7,2.4,5.4,0.7,6.5C29,18.4,28,31.5,18,31.7z"/>
										</g>
									</g>
								</g>
								<g>
									<g>
										<g>
											<path fill="#F4C534" d="M26.9,23.1c-0.1,0.9-0.2,1.6-0.5,2.5c-0.7,2.1-2.1,3.8-3.6,4.8c-1.5,1-3.1,1.3-4.8,1.4
												c-1.9-0.1-3.5-0.6-4.8-1.4c-1.6-1-3-2.7-3.6-4.8c-0.3-0.9-0.4-1.6-0.5-2.5c0.2,0.9,0.4,1.6,0.7,2.4
												c0.7,1.8,2,3.4,3.7,4.5c1.1,0.7,2.6,1.2,4.5,1.2c0.9,0.1,3-0.3,4.6-1.2c1.7-1,2.9-2.6,3.7-4.5
												C26.5,24.7,26.7,24,26.9,23.1z"/>
										</g>
									</g>
								</g>
								<g>
									<g>
										<g>
											<g>
												<g>
													<g>
														<path fill="#6D4135" d="M19.3,19.2c0.4-0.6,1.1,0.5,0.7,1c-0.3,0.4-1.5,0.5-1.9,0.5C19,20.3,19.2,19.4,19.3,19.2z"/>
													</g>
												</g>
											</g>
											<g>
												<g>
													<g>
														<path fill="#633B2A" d="M20,20.2c-0.1,0.2-0.4,0.3-0.7,0.4c0.1-0.1,0.1-0.1,0.2-0.2c0.1-0.3-0.4,0-0.6,0.1
															c-0.2,0.1-0.4,0.2-0.7,0.3c0.9-0.5,1.1-1.3,1.2-1.5C19.7,18.6,20.4,19.7,20,20.2z"/>
													</g>
												</g>
											</g>
										</g>
									</g>
									<g>
										<g>
											<g>
												<g>
													<g>
														<path fill="#6D4135" d="M17.9,20.8c-0.5,0-1.6-0.2-1.9-0.5c-0.4-0.5,0.2-1.6,0.7-1C16.8,19.4,17,20.3,17.9,20.8z"/>
													</g>
												</g>
											</g>
											<g>
												<g>
													<g>
														<path fill="#633B2A" d="M16,20.2c0.1,0.2,0.4,0.3,0.7,0.4c-0.1-0.1-0.1-0.1-0.2-0.2c-0.1-0.3,0.4,0,0.6,0.1
															c0.2,0.1,0.4,0.2,0.7,0.3c-0.9-0.5-1.1-1.3-1.2-1.5C16.3,18.6,15.6,19.7,16,20.2z"/>
													</g>
												</g>
											</g>
										</g>
									</g>
								</g>
								<g>
									<g>
										<g>
											<g>
												<path fill="#F4C534" d="M23.5,21.7c0,0.3-0.1,0.6-0.2,0.9c-0.5,1.9-1.2,3.7-2,5.1c-0.9,1.4-2,2.3-3.3,2.4
													c-2.6-0.2-4.4-3.8-5.3-7.5c-0.1-0.3-0.1-0.7-0.2-1c1.5,0.5,3,0.7,4.5,0.9c0.7,0.1,1.4,0.1,2,0
													C20.6,22.3,22.1,22.1,23.5,21.7z"/>
											</g>
										</g>
									</g>
									<g>
										<g>
											<g>
												<path fill="#3E4347" d="M23,21.8c0,0.3-0.1,0.6-0.2,0.9c-0.5,1.9-1.4,3.7-2.5,4.9c-0.6,0.6-1.4,1-2.3,1h0
													c-0.9,0-1.7-0.4-2.3-1c-1.1-1.1-1.9-3-2.5-4.9c-0.1-0.3-0.1-0.6-0.2-0.9c1.3,0.4,2.7,0.6,4,0.8c0.7,0.1,1.4,0.1,2,0
													C20.4,22.4,21.7,22.2,23,21.8z"/>
											</g>
										</g>
									</g>
									<g>
										<g>
											<g>
												<path fill="#31373A" d="M20.7,22.3c0,0.1,0,0.2-0.1,0.3c-0.3,1-0.7,2-1.3,2.6c-0.3,0.3-0.8,0.5-1.2,0.5h0
													c-0.5,0-0.9-0.2-1.2-0.5c-0.6-0.6-1-1.6-1.3-2.6c0-0.1-0.1-0.2-0.1-0.4c0.6,0.1,1.1,0.2,1.7,0.2c0.7,0.1,1.4,0.1,2,0
													C19.6,22.5,20.2,22.4,20.7,22.3z"/>
											</g>
										</g>
									</g>
								</g>
								<g>
									<g>
										<g>
											<path fill="#E9B02C" d="M25,20.8c-0.3,0.3-1.1,0.8-1.9,1.1c-1,0.4-2.3,0.9-4.9,1c-2.5-0.1-3.8-0.6-4.9-1
												c-0.8-0.3-1.6-0.8-1.9-1.1c0.7,0.4,1.3,0.5,2.1,0.8c1.3,0.4,3,0.7,4.8,0.7c1.8,0,3.5-0.3,4.8-0.7
												C23.6,21.3,24.3,21.1,25,20.8z"/>
										</g>
									</g>
								</g>
							</g>
							<g>
								<g>
									<g>
										<path fill="#E24B4B" d="M18.1,25.9c-0.6-1.8,3.9-2.2,3.2,0.5c-0.5,2-0.9,4-1.7,5.8c-0.8,1.7-2.4,1.4-3,0
											c-0.8-1.8-1.3-3.8-1.7-5.8C14.2,23.8,18.6,23.5,18.1,25.9"/>
									</g>
								</g>
							</g>
							<g>
								<g>
									<g>
										<path fill="#E24B4B" d="M18.1,25.9c-0.6-1.8,3.9-2.2,3.2,0.5c-0.5,2-0.9,4-1.7,5.8c-0.8,1.7-2.4,1.4-3,0
											c-0.8-1.8-1.3-3.8-1.7-5.8C14.2,23.8,18.6,23.5,18.1,25.9"/>
									</g>
								</g>
							</g>
							<g>
								<g>
									<g>
										<path fill="#D03F3F" d="M20.5,24.6c-0.9-0.3-2.1-0.1-2.4,0.6c-0.3-1.6-3.8-1.2-3.3,1.1c0.5,2,0.9,4,1.7,5.8
											c0.3,0.7,0.9,1.2,1.5,1.2c-1.9-0.4-2.5-5.1-2.6-6.7c-0.1-1.8,2.1-2.5,2.5,0.2C18.2,25.6,19.2,24.6,20.5,24.6z"/>
									</g>
								</g>
							</g>
						</g>
						<g opacity="0.15">
							<g>
								<g>
									<path fill="#FFFFFF" d="M21,25.8c0,0.4-0.3,0.5-0.5,0.3c-0.1-0.3,0.1-0.4-0.3-0.8c-0.2-0.2,0-0.4,0.3-0.3
										C20.7,25,21,25.4,21,25.8z"/>
								</g>
							</g>
						</g>
					</g>
				</g>
				<g>
					<g>
						<polygon fill="#3E4347" points="26.8,16 26.8,16 26.8,15 						"/>
					</g>
				</g>
				<g>
					<g>
						<g>
							<g>
								<g>
									<g>
										<ellipse fill="#F4C534" cx="15.1" cy="14.9" rx="2" ry="2.4"/>
									</g>
								</g>
							</g>
							<g>
								<g>
									<g>
										<ellipse fill="#FFFFFF" cx="15.3" cy="15.2" rx="2" ry="2.4"/>
									</g>
								</g>
							</g>
						</g>
						<g>
							<g>
								<g>
									<g>
										<ellipse fill="#65B1EF" cx="15.2" cy="15.7" rx="1.3" ry="1.4"/>
									</g>
								</g>
							</g>
							<g>
								<g>
									<g>
										<ellipse fill="#3E4347" cx="15.2" cy="15.9" rx="0.7" ry="0.8"/>
									</g>
								</g>
							</g>
							<g>
								<g>
									<g>
										<ellipse fill="#FFFFFF" cx="15.7" cy="15.4" rx="0.3" ry="0.3"/>
									</g>
								</g>
							</g>
						</g>
					</g>
					<g>
						<g>
							<g>
								<g>
									<g>
										<ellipse fill="#F4C534" cx="21.6" cy="14.6" rx="2.4" ry="3"/>
									</g>
								</g>
							</g>
							<g>
								<g>
									<g>
										<ellipse fill="#FFFFFF" cx="21.4" cy="15" rx="2.4" ry="2.9"/>
									</g>
								</g>
							</g>
						</g>
						<g>
							<g>
								<g>
									<g>
										<ellipse fill="#65B1EF" cx="21.4" cy="15.6" rx="1.6" ry="1.7"/>
									</g>
								</g>
							</g>
							<g>
								<g>
									<g>
										<ellipse fill="#3E4347" cx="21.4" cy="15.8" rx="0.9" ry="1"/>
									</g>
								</g>
							</g>
							<g>
								<g>
									<g>
										<ellipse fill="#FFFFFF" cx="22" cy="15.2" rx="0.4" ry="0.4"/>
									</g>
								</g>
							</g>
						</g>
					</g>
				</g>
			</g>
			<g>
				<g>
					<g>
						<g>
							<path fill="#E9B02C" d="M25.5,21.7c0-0.3-0.2-0.8-0.4-1.1c-0.3-0.5-0.9-0.7-0.9-0.7c0.3,0,0.8,0.2,1.1,0.5
								C25.6,20.9,25.6,21.4,25.5,21.7z"/>
						</g>
					</g>
					<g>
						<g>
							<path fill="#E9B02C" d="M12,19.9c0,0-0.6,0.2-0.9,0.7c-0.2,0.3-0.4,0.7-0.4,1.1c-0.1-0.3-0.1-0.8,0.2-1.2
								C11.1,20,11.6,19.8,12,19.9z"/>
						</g>
					</g>
				</g>
			</g>
		</g>
	</g>
	<g>
		<g>
			<g>
				<g>
					<g>
						<g>
							<path fill="#F4C534" d="M33.7,12.3c-0.7,1-1.2,0.5-2.2,3.2c-0.4,1.1-1.1,3.3-3.1,3.1c-3.3-0.3-3.1-9.4,3-9.1
								C33.7,9.6,34.5,11.2,33.7,12.3z"/>
						</g>
					</g>
				</g>
				<g>
					<g>
						<path fill="#E9B02C" d="M31.4,9.5c-6.1-0.3-6.3,8.8-3,9.1c0.7,0.1,1.3-0.2,1.7-0.6c-0.2,0-0.4-0.1-0.6-0.1
							c-2.1-0.9-2.1-3.6-1.7-5c0.2-0.5,0.4-0.9,0.7-1.3c0.9-1,2.4-1.4,4-1c0.3,0.1,0.7,0.2,0.9,0.5c0.2,0.3,0.3,0.6,0.2,0.9
							c0,0.2-0.1,0.4-0.2,0.6c0.1-0.1,0.1-0.2,0.2-0.3C34.5,11.2,33.7,9.6,31.4,9.5z"/>
					</g>
				</g>
				<g>
					<g>
						<g>
							<path fill="#E9B02C" d="M28,14.6c0.4-2.1,1.8-1.6,2.3-0.8c0.6,0.9,0.1,2.7-0.8,3.3C29,17.5,27.5,17.8,28,14.6z"/>
						</g>
					</g>
				</g>
			</g>
			<g>
				<g>
					<g>
						<g>
							<path fill="#F4C534" d="M2.3,12.3c0.7,1,1.2,0.5,2.2,3.2c0.4,1.1,1.1,3.3,3.1,3.1c3.3-0.3,3.1-9.4-3-9.1
								C2.3,9.6,1.5,11.2,2.3,12.3z"/>
						</g>
					</g>
				</g>
				<g>
					<g>
						<path fill="#E9B02C" d="M4.6,9.5c6.1-0.3,6.3,8.8,3,9.1c-0.7,0.1-1.3-0.2-1.7-0.6c0.2,0,0.4-0.1,0.6-0.1
							c2.1-0.9,2.1-3.6,1.7-5c-0.2-0.5-0.4-0.9-0.7-1.3c-0.9-1-2.4-1.4-4-1c-0.3,0.1-0.7,0.2-0.9,0.5c-0.2,0.3-0.3,0.6-0.2,0.9
							c0,0.2,0.1,0.4,0.2,0.6c-0.1-0.1-0.1-0.2-0.2-0.3C1.5,11.2,2.3,9.6,4.6,9.5z"/>
					</g>
				</g>
				<g>
					<g>
						<g>
							<path fill="#E9B02C" d="M8,14.6c-0.4-2.1-1.8-1.6-2.3-0.8c-0.6,0.9-0.1,2.7,0.8,3.3C7,17.5,8.5,17.8,8,14.6z"/>
						</g>
					</g>
				</g>
			</g>
			<g>
				<g>
					<g>
						<path fill="#3E4347" d="M28.1,16.7c0.4,0.9,0.9,1.5,0.7,3c-0.2-0.8-1.4-1.1-1.9-1.7c-1-1.1-0.9-3.1-0.7-5.4
							c0.7,0.3,1.3,0.9,1.8,1.5c-0.3,0-0.5,0.1-0.8,0.1c0.9,0.7,1.3,1.8,1.6,2.9C28.5,17,28.3,16.8,28.1,16.7z"/>
					</g>
				</g>
			</g>
		</g>
		<g>
			<g>
				<g>
					<g>
						<path fill="#3E4347" d="M8.2,16.7c-0.4,0.9-0.9,1.4-0.7,3C7.7,18.9,9,18.6,9.5,18c1-1.1,0.9-3.1,0.7-5.4
							c-0.7,0.3-1.3,0.9-1.8,1.5c0.3,0,0.5,0.1,0.8,0.1c-0.9,0.7-1.3,1.8-1.6,2.9C7.7,17,7.9,16.8,8.2,16.7z"/>
					</g>
				</g>
			</g>
		</g>
	</g>
</g>
</svg>
