<?xml version="1.0" encoding="utf-8"?>
<!-- Generator: Adobe Illustrator 18.0.0, SVG Export Plug-In . SVG Version: 6.00 Build 0)  -->
<!DOCTYPE svg PUBLIC "-//W3C//DTD SVG 1.1//EN" "http://www.w3.org/Graphics/SVG/1.1/DTD/svg11.dtd">
<svg version="1.1" id="Layer_1" xmlns="http://www.w3.org/2000/svg" xmlns:xlink="http://www.w3.org/1999/xlink" x="0px" y="0px"
	 viewBox="0 0 36 36" enable-background="new 0 0 36 36" xml:space="preserve">
<g id="XMLID_1375_">
	<g id="XMLID_1386_">
		<g>
			<path fill="#3F4347" d="M18,27.8c2.7-3.4,7.7-4.5,12.7,1.5c0.4,0.5,1.1-0.1,0.9-0.8C29.9,18.2,25.1,8.9,18,5.5
				c-7.1,3.4-11.9,12.7-13.6,23c-0.1,0.8,0.5,1.4,0.9,0.8C10.3,23.3,15.3,24.4,18,27.8z"/>
		</g>
	</g>
	<g id="XMLID_1385_">
		<g>
			<path fill="#3F4347" d="M27.4,13.9c-0.6-1.4-0.9-2.9-0.7-4.4c0-0.2,0-0.3,0-0.5c0-3.7-3.9-7-8.7-7c-4.8,0-8.7,3.2-8.7,7
				c0,0.2,0,0.3,0,0.5c0.1,1.5-0.1,3.1-0.7,4.4c-1.2,2.5-1.9,5.3-1.9,7.7c0,6.3,5.1,11.7,11.3,11.7c6.3,0,11.3-5.4,11.3-11.7
				C29.3,19.2,28.6,16.4,27.4,13.9z"/>
		</g>
	</g>
	<g id="XMLID_1384_">
		<g>
			<path fill="#FFFFFF" d="M24.9,11.4c0.2-0.6,0.2-1.2,0.1-1.8c-0.3-1.7-1.6-3-3.3-3.3c-1.5-0.2-5.9-0.2-7.4,0
				c-1.7,0.2-3.1,1.6-3.3,3.3c-0.1,0.6,0,1.3,0.1,1.8c0.6,1.8,0.8,3.7,0.4,5.6l-0.1,0.5c-1,4.2,2.2,8.3,6.6,8.3h0
				c4.4,0,7.6-4,6.6-8.3L24.5,17C24.1,15.1,24.3,13.2,24.9,11.4z"/>
		</g>
	</g>
	<g id="XMLID_1383_">
		<g>
			<path fill="#FFD83B" d="M18,16.4c-0.9-0.7-2-1.2-3.2-1c0.7-1.5,1.8-2.7,3.2-3.5c1.4,0.7,2.5,2,3.2,3.5C20,15.2,18.9,15.7,18,16.4
				z"/>
		</g>
	</g>
	<g id="XMLID_1382_">
		<g>
			<circle fill="#2F3133" cx="15.1" cy="10.2" r="1.7"/>
		</g>
	</g>
	<g id="XMLID_1381_">
		<g>
			<circle fill="#FFFFFF" cx="14.7" cy="9.8" r="0.7"/>
		</g>
	</g>
	<g id="XMLID_1378_">
		<g id="XMLID_1380_">
			<g>
				<path fill="#FFD83B" d="M15.4,29.3c-0.5,0.5-0.7,1.1-0.8,1.7c-0.1-0.6-0.3-1.2-0.8-1.7h0c-0.5,0.5-0.7,1.1-0.8,1.7
					c-0.1-0.6-0.3-1.2-0.8-1.7h0c-0.6,0.6-0.9,1.3-0.9,2.1v0.2c0,1.4,1.1,2.5,2.5,2.5h0c1.4,0,2.5-1.1,2.5-2.5v-0.2
					C16.2,30.6,15.9,29.9,15.4,29.3z"/>
			</g>
		</g>
		<g id="XMLID_1379_">
			<g>
				<path fill="#FFD83B" d="M23.9,29.3c-0.5,0.5-0.7,1.1-0.8,1.7c-0.1-0.6-0.3-1.2-0.8-1.7h0c-0.5,0.5-0.7,1.1-0.8,1.7
					c-0.1-0.6-0.3-1.2-0.8-1.7h0c-0.6,0.6-0.9,1.3-0.9,2.1v0.2c0,1.4,1.1,2.5,2.5,2.5h0c1.4,0,2.5-1.1,2.5-2.5v-0.2
					C24.8,30.6,24.5,29.9,23.9,29.3z"/>
			</g>
		</g>
	</g>
	<g id="XMLID_1377_">
		<g>
			<circle fill="#2F3133" cx="20.9" cy="10.2" r="1.7"/>
		</g>
	</g>
	<g id="XMLID_1376_">
		<g>
			<circle fill="#FFFFFF" cx="20.5" cy="9.8" r="0.7"/>
		</g>
	</g>
</g>
</svg>
