<?xml version="1.0" encoding="utf-8"?>
<!-- Generator: Adobe Illustrator 18.0.0, SVG Export Plug-In . SVG Version: 6.00 Build 0)  -->
<!DOCTYPE svg PUBLIC "-//W3C//DTD SVG 1.1//EN" "http://www.w3.org/Graphics/SVG/1.1/DTD/svg11.dtd">
<svg version="1.1" id="Layer_1" xmlns="http://www.w3.org/2000/svg" xmlns:xlink="http://www.w3.org/1999/xlink" x="0px" y="0px"
	 viewBox="0 0 36 36" enable-background="new 0 0 36 36" xml:space="preserve">
<g>
	<g>
		<g>
			<g>
				<path fill="#CF7519" d="M6.1,24.8C5,25,3.8,24.7,3,23.9c-1.3-1.3-1.3-3.5,0-4.8c0.5-0.5,1.2-0.9,1.9-1c-0.6-0.1-1.2-0.4-1.6-0.8
					c-1.1-1.1-1.1-3,0-4.1c0.6-0.6,1.3-0.9,2.1-0.9c-0.6-1-0.5-2.4,0.4-3.3c0.6-0.6,1.4-0.8,2.1-0.8c-0.2-0.9,0-1.9,0.7-2.6
					C9,5.2,9.6,5,10.2,4.9c0.5-1.1,1.6-1.8,2.8-1.8c0.7,0,1.4,0.2,1.9,0.7c0.1-0.2,0.2-0.4,0.4-0.5C16,2.5,17.1,2.3,18,2.7
					c1.2-1,3-0.9,4.1,0.3c0.3,0.3,0.6,0.7,0.7,1.2c1.1-0.7,2.5-0.5,3.5,0.4c0.5,0.5,0.7,1,0.8,1.6c0.9-0.2,1.9,0.1,2.6,0.8
					c0.8,0.8,1,1.9,0.7,2.9c0.8,0,1.6,0.3,2.2,0.9c1.2,1.2,1.2,3.3,0,4.5c0,0,0,0,0,0c0.2,0.1,0.4,0.2,0.6,0.4
					c0.9,0.9,0.9,2.5,0,3.4c-0.3,0.3-0.7,0.5-1,0.6c0.3,0.1,0.5,0.3,0.8,0.5c1.1,1.1,1.1,2.8,0,3.9c-0.7,0.7-1.7,0.9-2.6,0.7
					c0,0,0,0,0.1,0.1c1.1,1.1,1.1,3,0,4.1c-0.9,0.9-2.3,1.1-3.3,0.5c0.3,1.2,0,2.5-0.9,3.4c-1.4,1.4-3.6,1.4-5,0
					c-0.2-0.2-0.4-0.4-0.5-0.6c-0.1,0.3-0.3,0.6-0.6,0.8c-1.1,1.1-3,1.1-4.1,0c-0.5-0.5-0.8-1.1-0.8-1.8c-0.1,0.4-0.4,0.7-0.7,1
					c-1.1,1.1-2.9,1.1-4.1,0c-0.8-0.8-1-1.9-0.7-2.9C8.7,30.1,7.2,30,6.2,29C5.1,27.8,5,26,6.1,24.8z"/>
			</g>
		</g>
	</g>
	<g>
		<g>
			<g>
				<g>
					<g>
						<path fill="#FFD93B" d="M28.9,14.2c-1.4,0.4-2.7,0.9-3.8,1.5c-1-0.9-0.9-1-2-1.9c0.5-1,1-2,1.5-3.2c0.2-0.4,0.3-0.9,0.7-1.2
							c1-1,4-0.5,5.4,1.8C31.7,13,30.7,13.8,28.9,14.2z"/>
					</g>
				</g>
			</g>
			<g>
				<g>
					<g>
						<path fill="#FC97B2" d="M25.5,12.1c1.3-4.2,8.1,0.6,1.9,1.5c-1,0.2-2.1,0.5-2.8,1.3C25.2,14.1,25.2,13.1,25.5,12.1z"/>
					</g>
				</g>
			</g>
			<g>
				<g>
					<g>
						<path fill="#E88EA7" d="M29.4,11c-1.1-0.9-3.2-1.1-3.9,1.1c-0.3,1-0.2,2-0.9,2.8C26.5,12.9,26.3,9.9,29.4,11z"/>
					</g>
				</g>
			</g>
		</g>
		<g>
			<g>
				<g>
					<g>
						<path fill="#FFD93B" d="M8.2,14.2c1.4,0.4,2.7,0.9,3.8,1.5c1-0.9,0.9-1,2-1.9c-0.5-1-1-2-1.5-3.2c-0.2-0.4-0.3-0.9-0.7-1.2
							c-1-1-4-0.5-5.4,1.8C5.4,13,6.4,13.8,8.2,14.2z"/>
					</g>
				</g>
			</g>
			<g>
				<g>
					<g>
						<path fill="#FC97B2" d="M12.5,14.9c-0.7-0.8-1.8-1.2-2.8-1.3c-6.1-0.9,0.6-5.7,1.9-1.5C11.9,13.1,11.9,14.1,12.5,14.9z"/>
					</g>
				</g>
			</g>
			<g>
				<g>
					<g>
						<path fill="#E88EA7" d="M7.7,11c1.1-0.9,3.2-1.1,3.9,1.1c0.3,1,0.2,2,0.9,2.8C10.6,12.9,10.8,9.9,7.7,11z"/>
					</g>
				</g>
			</g>
		</g>
	</g>
	<g>
		<g>
			<g>
				<path fill="#FFD93B" d="M26,16c0,4.1-3.4,7.5-7.5,7.5c-4.1,0-7.5-3.4-7.5-7.5c0-5.7,3.4-7.5,7.5-7.5C22.7,8.5,26,10.3,26,16z"/>
			</g>
		</g>
	</g>
	<g>
		<g>
			<g>
				<g>
					<g>
						<g>
							<g>
								<path fill="#3E4347" d="M21.6,12.2c1.5,0,2.9,2,3,4l-5.1,0.5c0-0.2,0-0.4,0-0.6C19.5,14.2,20.1,12.2,21.6,12.2z"/>
							</g>
						</g>
					</g>
					<g>
						<g>
							<g>
								<path fill="#FFFFFF" d="M19.5,16.4c-0.1,1.8,1,2.6,2.5,2.6s2.5-0.5,2.6-2.3s-1.3-3.8-2.8-3.8S19.7,14.5,19.5,16.4z"/>
							</g>
						</g>
					</g>
				</g>
				<g>
					<g>
						<g>
							<g>
								<path fill="#65B1EF" d="M20.7,16.3c0,1,0.7,1.8,1.6,1.8c0.9,0,1.6-0.8,1.6-1.8c0-1-0.7-1.8-1.6-1.8
									C21.4,14.5,20.7,15.3,20.7,16.3z"/>
							</g>
						</g>
					</g>
					<g>
						<g>
							<g>
								<ellipse fill="#3E4347" cx="22.3" cy="16.6" rx="0.8" ry="1"/>
							</g>
						</g>
					</g>
					<g>
						<g>
							<g>
								<path fill="#FFFFFF" d="M21.3,16.1c0,0.2,0.2,0.3,0.3,0.3c0.2,0,0.4-0.2,0.4-0.3c0-0.2-0.2-0.4-0.4-0.4
									C21.5,15.7,21.3,15.9,21.3,16.1z"/>
							</g>
						</g>
					</g>
				</g>
			</g>
			<g>
				<g>
					<g>
						<path fill="#3E4347" d="M21.6,11.6c-1.7-0.4-0.9-1.6,0.5-0.8c0.5,0.3,1,0.7,1.4,1.1c0.3,0.3,1.1,1.3,1.1,1.3s-0.9-0.7-1.2-0.9
							C22.9,12.1,22.3,11.8,21.6,11.6z"/>
					</g>
				</g>
			</g>
		</g>
		<g>
			<g>
				<g>
					<g>
						<g>
							<g>
								<path fill="#3E4347" d="M15.5,12.2c-1.5,0-2.9,2-3,4l5.1,0.5c0-0.2,0-0.4,0-0.6C17.6,14.2,17,12.2,15.5,12.2z"/>
							</g>
						</g>
					</g>
					<g>
						<g>
							<g>
								<path fill="#FFFFFF" d="M17.6,16.4c0.1,1.8-1,2.6-2.5,2.6s-2.5-0.5-2.6-2.3s1.3-3.8,2.8-3.8S17.4,14.5,17.6,16.4z"/>
							</g>
						</g>
					</g>
				</g>
				<g>
					<g>
						<g>
							<g>
								<path fill="#65B1EF" d="M16.4,16.3c0,1-0.7,1.8-1.6,1.8c-0.9,0-1.6-0.8-1.6-1.8c0-1,0.7-1.8,1.6-1.8
									C15.7,14.5,16.4,15.3,16.4,16.3z"/>
							</g>
						</g>
					</g>
					<g>
						<g>
							<g>
								<ellipse fill="#3E4347" cx="14.8" cy="16.6" rx="0.8" ry="1"/>
							</g>
						</g>
					</g>
					<g>
						<g>
							<g>
								<path fill="#FFFFFF" d="M15.8,16.1c0,0.2-0.2,0.3-0.3,0.3c-0.2,0-0.4-0.2-0.4-0.3c0-0.2,0.2-0.4,0.4-0.4
									C15.6,15.7,15.8,15.9,15.8,16.1z"/>
							</g>
						</g>
					</g>
				</g>
			</g>
			<g>
				<g>
					<g>
						<path fill="#3E4347" d="M15.5,11.6c1.7-0.4,0.9-1.6-0.5-0.8c-0.5,0.3-1,0.7-1.4,1.1c-0.3,0.3-1.1,1.3-1.1,1.3s0.9-0.7,1.2-0.9
							C14.2,12.1,14.8,11.8,15.5,11.6z"/>
					</g>
				</g>
			</g>
		</g>
	</g>
	<g>
		<g>
			<g>
				<path fill="#FFE9AB" d="M28.4,20.3c0,5.8-4.1,9.3-9.5,9.3S8.7,26.1,8.7,20.3c0-5.2,4.7,0.3,10.1,0.3S28.4,15,28.4,20.3z"/>
			</g>
		</g>
	</g>
	<g>
		<g>
			<g>
				<g>
					<path fill="#FFD68D" d="M25.8,21.8c-0.5,0.7-1,1.3-1.7,1.8c-0.6,0.7-2.4,1.7-3.4,1.6c-0.6,0.1-1.1-0.2-1.6-0.6L19,24.4
						c-0.1-0.1-0.2-0.3-0.2-0.5c-0.1,0.2-0.1,0.3-0.2,0.5l-0.2,0.3c-0.4,0.3-0.4,0.3-0.9,0.5c-1.4,0.3-3-0.6-4-1.6
						c-0.6-0.5-1.2-1.2-1.7-1.8c0.6,0.6,0.9,1,1.8,1.6c1,0.8,2.4,1.5,3.8,1.3c0.4-0.2,0.4-0.1,0.7-0.4l0.2-0.2
						c0.1-0.1,0.2-0.3,0.2-0.5c0.1-0.7,0.1-0.5,0.1-1.4c0.3,0,0.2,0,0.5,0c0,1,0.1,0.9,0.2,1.4c0.1,0.2,0.1,0.4,0.2,0.5l0.2,0.2
						c0.4,0.3,0.7,0.5,1.2,0.5c1,0.1,2.5-0.8,3.2-1.4C25.1,22.5,25,22.5,25.8,21.8z"/>
				</g>
			</g>
		</g>
	</g>
	<g>
		<g>
			<g>
				<g>
					<path fill="#3E4347" d="M13.6,19.4c0.1,0.6,1.6,1.2,2.1,1.7c1.6,1.9,4.1,1.9,5.7,0c0.4-0.5,2-1.1,2.1-1.7
						C23.5,16.7,13.6,16.7,13.6,19.4z"/>
				</g>
			</g>
		</g>
		<g>
			<g>
				<g>
					<g>
						<path fill="#31373A" d="M23.5,19.4c-0.1,0.6-1.6,1.2-2.1,1.7c-1.6,1.9-4.1,1.9-5.7,0c-0.4-0.5-2-1.1-2.1-1.7
							c0-0.3,0.1-0.6,0.4-0.8c0.9,0.9,1.9,2,3.1,2.1c3.3,0.4,5.7-2,5.3-2.6C23.1,18.4,23.5,18.8,23.5,19.4z"/>
					</g>
				</g>
			</g>
		</g>
		<g opacity="0.1">
			<g>
				<g>
					<path fill="#FFFFFF" d="M20.4,18.5c0,0.5-0.8,0-1.8,0c-1,0-1.8,0.5-1.8,0c0-0.5,0.8-0.8,1.8-0.8C19.5,17.7,20.4,18,20.4,18.5z"
						/>
				</g>
			</g>
		</g>
	</g>
	<g>
		<g>
			<g>
				<g>
					<g>
						<path fill="#FFD68D" d="M26.7,22.6c0-0.4-0.2-1-0.5-1.3c-0.3-0.3-0.8-0.5-1.3-0.5c0.5-0.1,0.9-0.2,1.4,0.3
							C26.7,21.6,26.8,22.2,26.7,22.6z"/>
					</g>
				</g>
				<g>
					<g>
						<path fill="#FFD68D" d="M12.6,20.9c-0.4,0-1,0.2-1.3,0.5c-0.3,0.3-0.5,0.9-0.5,1.3c-0.2-0.4-0.1-1.1,0.3-1.5
							C11.6,20.7,12.1,20.7,12.6,20.9z"/>
					</g>
				</g>
			</g>
		</g>
	</g>
	<g>
		<g>
			<g>
				<g>
					<path fill="#3E4347" d="M32.8,22.2c0,0-0.1,0-0.2-0.1C32.8,22.1,32.8,22.2,32.8,22.2z"/>
				</g>
			</g>
			<g>
				<g>
					<g>
						<path fill="#3E4347" d="M33.8,21.1c-0.9-0.4-2.1-1.4-4.7-1.3c-1.9,0-3.5,0.6-4.9,1.4c-0.1,0-0.2,0-0.2-0.1
							c0-0.1,0-0.2,0.1-0.2l0,0c1.2-0.5,2.6-1.4,5-1.3C30.8,19.7,32.6,20.3,33.8,21.1z"/>
					</g>
				</g>
				<g>
					<g>
						<path fill="#3E4347" d="M23.1,21.5c0,0.1-0.1,0.1-0.2,0c-0.1,0-0.1-0.1,0-0.2c0.8-1,1.4-1.5,2.5-2.2c1.2-0.6,2.1-0.9,3.6-1
							c1.3,0,2.2,0.2,3.2,0.5c-1-0.2-1.7-0.4-3.2-0.4c-1.5,0.1-2.4,0.4-3.5,1.1C24.3,20.1,23.8,20.6,23.1,21.5z"/>
					</g>
				</g>
				<g>
					<g>
						<path fill="#3E4347" d="M32.6,22.1c-3.1-1.2-6.8-0.8-9.5,0.5c-0.1,0-0.2,0-0.2-0.1c0-0.1,0-0.2,0.1-0.2c0,0,0,0,0,0
							C24.2,21.6,28.7,20.5,32.6,22.1z"/>
					</g>
				</g>
			</g>
		</g>
		<g>
			<g>
				<g>
					<path fill="#3E4347" d="M4.2,22.2c0,0,0.1,0,0.2-0.1C4.3,22.1,4.2,22.2,4.2,22.2z"/>
				</g>
			</g>
			<g>
				<g>
					<g>
						<path fill="#3E4347" d="M3.3,21.1c0.9-0.4,2.1-1.4,4.7-1.3c1.9,0,3.5,0.6,4.9,1.4c0.1,0,0.2,0,0.2-0.1c0-0.1,0-0.2-0.1-0.2
							l0,0c-1.2-0.5-2.6-1.4-5-1.3C6.3,19.7,4.4,20.3,3.3,21.1z"/>
					</g>
				</g>
				<g>
					<g>
						<path fill="#3E4347" d="M14,21.5c0,0.1,0.1,0.1,0.2,0c0.1,0,0.1-0.1,0-0.2c-0.8-1-1.4-1.5-2.5-2.2c-1.2-0.6-2.1-0.9-3.6-1
							c-1.3,0-2.2,0.2-3.2,0.5c1-0.2,1.7-0.4,3.2-0.4c1.5,0.1,2.4,0.4,3.5,1.1C12.8,20.1,13.3,20.6,14,21.5z"/>
					</g>
				</g>
				<g>
					<g>
						<path fill="#3E4347" d="M4.5,22.1c3.1-1.2,6.8-0.8,9.5,0.5c0.1,0,0.2,0,0.2-0.1c0-0.1,0-0.2-0.1-0.2c0,0,0,0,0,0
							C12.9,21.6,8.3,20.5,4.5,22.1z"/>
					</g>
				</g>
			</g>
		</g>
	</g>
</g>
</svg>
