<?xml version="1.0" encoding="utf-8"?>
<!-- Generator: Adobe Illustrator 18.0.0, SVG Export Plug-In . SVG Version: 6.00 Build 0)  -->
<!DOCTYPE svg PUBLIC "-//W3C//DTD SVG 1.1//EN" "http://www.w3.org/Graphics/SVG/1.1/DTD/svg11.dtd">
<svg version="1.1" id="Layer_1" xmlns="http://www.w3.org/2000/svg" xmlns:xlink="http://www.w3.org/1999/xlink" x="0px" y="0px"
	 viewBox="0 0 36 36" enable-background="new 0 0 36 36" xml:space="preserve">
<g>
	<g>
		<g>
			<g>
				<g>
					<path fill="#3E4347" d="M31.4,26.2C33.3,21.9,38.4,2,18,2C-0.3,2,1.5,19,4.7,26.2H31.4z"/>
				</g>
			</g>
		</g>
		<g>
			<g>
				<g>
					<path fill="#DAE5EF" d="M18,34C4.3,34,1.6,23.2,6.5,22C4.9,11.4,12.6,4.1,18,10c5.4-6,13.1,1.5,11.5,11.9
						C34.5,23.2,31.7,34,18,34z"/>
				</g>
			</g>
		</g>
		<g opacity="0.5">
			<g>
				<g>
					<path fill="#CBD6E0" d="M31.8,25.8c-0.1,0.7-0.1,0.6-0.4,1.4c-0.5,1.3-1.4,2.3-2.3,3.2c-3,2.8-7.1,3.5-11.1,3.6
						c-6-0.2-9.1-1.8-11.1-3.6c-0.9-0.8-1.8-1.9-2.3-3.2c-0.3-0.9-0.3-0.8-0.4-1.4c0.3,0.8,0.2,0.5,0.6,1.3c0.7,1.1,1.6,2,2.6,2.7
						c2.8,2.1,7,2.8,10.5,2.8c3.7-0.1,7.6-0.6,10.6-2.8c0.9-0.6,1.8-1.5,2.6-2.7C31.6,26.4,31.5,26.6,31.8,25.8z"/>
				</g>
			</g>
		</g>
		<g>
			<g>
				<g>
					<g>
						<g>
							<g>
								<path fill="#BBC7D1" d="M26.7,18.5c-0.1,2.5-1.6,3.6-3.5,3.6c-1.9,0-3.4-1.1-3.3-3.6s0.7-5.3,2.6-5.3S26.8,16,26.7,18.5z"/>
							</g>
						</g>
					</g>
					<g>
						<g>
							<g>
								<path fill="#3E4347" d="M27.4,14.9c-0.9-1.4-2-2.7-3.6-3c-0.3-0.1-0.6-0.1-0.9-0.1c-0.3,0-0.5-0.3-0.5-0.6
									c0-0.3,0.3-0.5,0.6-0.5c0.1,0,0.7,0.1,1.1,0.3C25.6,11.7,26.8,13.3,27.4,14.9z"/>
							</g>
						</g>
					</g>
					<g>
						<g>
							<g>
								<path fill="#FFFFFF" d="M26.7,18.7c0,2.4-1.6,3.4-3.5,3.4s-3.5-1-3.5-3.4s0.8-4.6,2.7-4.6S26.7,16.3,26.7,18.7z"/>
							</g>
						</g>
					</g>
				</g>
				<g>
					<g>
						<g>
							<g>
								<path fill="#65B1EF" d="M25,19.1c0,1.3-0.9,2.3-2,2.3c-1.1,0-2-1-2-2.3c0-1.3,0.9-2.3,2-2.3C24,16.8,25,17.8,25,19.1z"/>
							</g>
						</g>
					</g>
					<g>
						<g>
							<g>
								<path fill="#3E4347" d="M24,19.1c0,0.7-0.5,1.2-1.1,1.2c-0.6,0-1.1-0.6-1.1-1.2c0-0.7,0.5-1.2,1.1-1.2
									C23.5,17.9,24,18.4,24,19.1z"/>
							</g>
						</g>
					</g>
					<g>
						<g>
							<g>
								<path fill="#FFFFFF" d="M24.2,18.3c0,0.3-0.2,0.5-0.5,0.5c-0.3,0-0.5-0.2-0.5-0.5c0-0.3,0.2-0.5,0.5-0.5
									C24,17.8,24.2,18,24.2,18.3z"/>
							</g>
						</g>
					</g>
				</g>
			</g>
			<g>
				<g>
					<g>
						<g>
							<g>
								<path fill="#BBC7D1" d="M9.3,18.5c0.1,2.5,1.6,3.6,3.5,3.6s3.4-1.1,3.3-3.6s-0.7-5.3-2.6-5.3S9.3,16,9.3,18.5z"/>
							</g>
						</g>
					</g>
					<g>
						<g>
							<g>
								<path fill="#3E4347" d="M8.7,14.9c0.9-1.4,2-2.7,3.6-3c0.3-0.1,0.6-0.1,0.9-0.1c0.3,0,0.5-0.3,0.5-0.6
									c0-0.3-0.3-0.5-0.6-0.5c-0.1,0-0.7,0.1-1.1,0.3C10.4,11.7,9.2,13.3,8.7,14.9z"/>
							</g>
						</g>
					</g>
					<g>
						<g>
							<g>
								<path fill="#FFFFFF" d="M9.3,18.7c0,2.4,1.6,3.4,3.5,3.4s3.5-1,3.5-3.4s-0.8-4.6-2.7-4.6S9.3,16.3,9.3,18.7z"/>
							</g>
						</g>
					</g>
				</g>
				<g>
					<g>
						<g>
							<g>
								<path fill="#65B1EF" d="M11.1,19.1c0,1.3,0.9,2.3,2,2.3c1.1,0,2-1,2-2.3c0-1.3-0.9-2.3-2-2.3C12,16.8,11.1,17.8,11.1,19.1z"
									/>
							</g>
						</g>
					</g>
					<g>
						<g>
							<g>
								<path fill="#3E4347" d="M12,19.1c0,0.7,0.5,1.2,1.1,1.2c0.6,0,1.1-0.6,1.1-1.2c0-0.7-0.5-1.2-1.1-1.2
									C12.5,17.9,12,18.4,12,19.1z"/>
							</g>
						</g>
					</g>
					<g>
						<g>
							<g>
								<path fill="#FFFFFF" d="M11.8,18.3c0,0.3,0.2,0.5,0.5,0.5c0.3,0,0.5-0.2,0.5-0.5c0-0.3-0.2-0.5-0.5-0.5
									C12.1,17.8,11.8,18,11.8,18.3z"/>
							</g>
						</g>
					</g>
				</g>
			</g>
		</g>
		<g>
			<g>
				<g>
					<path fill="#F29A2E" d="M22.2,25.4c-0.5,2.5-3.8,5.9-4.2,5.9c-0.3,0-3.7-3.3-4.2-5.9c-0.2-0.9,0.7-1.6,1.8-1.7
						c2.3-0.2,3.6-0.1,4.7,0C21.5,23.8,22.4,24.5,22.2,25.4z"/>
				</g>
			</g>
		</g>
		<g>
			<g>
				<g>
					<path fill="#E18823" d="M22.2,25.4c0.1-0.3,0-0.6-0.1-0.8c-0.2,1.6-1.5,3.5-2.4,4.5c-1.5,1.6-3,0.6-4.4-0.7
						c1.1,1.6,2.5,2.9,2.7,2.9C18.4,31.3,21.7,27.9,22.2,25.4z"/>
				</g>
			</g>
		</g>
	</g>
	<g>
		<g>
			<g>
				<g>
					<path fill="#E18823" d="M21,26.4c-0.3,0.4-1,0.9-1.5,1.1c0.5-0.6,0.7-1.4,1-2C21,24.6,21.7,25.5,21,26.4z"/>
				</g>
			</g>
		</g>
		<g>
			<g>
				<g>
					<path fill="#E18823" d="M15,26.4c0.3,0.4,1,0.9,1.5,1.1c-0.5-0.6-0.7-1.4-1-2C15.1,24.6,14.3,25.5,15,26.4z"/>
				</g>
			</g>
		</g>
	</g>
</g>
</svg>
