<?xml version="1.0" encoding="utf-8"?>
<!-- Generator: Adobe Illustrator 18.0.0, SVG Export Plug-In . SVG Version: 6.00 Build 0)  -->
<!DOCTYPE svg PUBLIC "-//W3C//DTD SVG 1.1//EN" "http://www.w3.org/Graphics/SVG/1.1/DTD/svg11.dtd">
<svg version="1.1" id="Layer_1" xmlns="http://www.w3.org/2000/svg" xmlns:xlink="http://www.w3.org/1999/xlink" x="0px" y="0px"
	 viewBox="0 0 36 36" enable-background="new 0 0 36 36" xml:space="preserve">
<g>
	<g>
		<g>
			<g>
				<g>
					<g>
						<g>
							<path fill="#BE630E" d="M31.2,20.4c1.3,1.5,0.6,4-1.4,4.5c0.7,1.7-0.7,3.6-2.6,3.3c-0.4,1.1-1.5,1.7-2.6,1.5
								c0.4,1.8-1.9,3.8-4,2.7c-1,2.2-4.1,2.2-5.1,0c-2.1,1.1-4.4-0.9-4-2.7c-1.1,0.2-2.3-0.4-2.6-1.5c-1.9,0.3-3.4-1.6-2.6-3.3
								c-2-0.5-2.7-3-1.4-4.5c-2.3-0.7-2.6-4-0.4-5.1c-1.5-1.5-0.7-4.3,1.5-4.6C5,8.7,6.6,6.4,8.7,6.7C9,5,10.7,4,12.2,4.5
								c0.6-3,4.7-3.4,5.8-0.6c1.5-1.7,4.2-1.2,5.1,0.9c1.6-1,3.9,0,4.2,1.9c2.1-0.3,3.8,1.9,2.9,3.9c2.2,0.4,3,3.1,1.5,4.6
								C33.9,16.4,33.6,19.6,31.2,20.4z"/>
						</g>
					</g>
				</g>
				<g>
					<g>
						<g>
							<g>
								<g>
									<g>
										<path fill="#FFD93B" d="M20.5,12.6c1.6-0.6,2.7-1.9,3.7-3.3c2.4-3.4,7.1,2.3,4,3.5c-1.1,0.5-5.6,0.4-6.1,2.7L20.5,12.6z"
											/>
									</g>
								</g>
							</g>
							<g>
								<g>
									<g>
										<path fill="#FC97B2" d="M28,10.5c0.6,0.7,0.4,2-1,1.9c-1.5-0.1-0.7-0.5-4.2,0.5C24.1,12.3,26.2,8.2,28,10.5z"/>
									</g>
								</g>
							</g>
						</g>
						<g>
							<g>
								<g>
									<path fill="#E88EA7" d="M28,10.5c-1.8-2.3-3.9,1.8-5.2,2.4c1.2-0.4,1.5-0.9,2.4-1.7c1.8-1.5,3.3-0.3,3,0.8
										C28.4,11.6,28.4,11,28,10.5z"/>
								</g>
							</g>
						</g>
					</g>
					<g>
						<g>
							<g>
								<g>
									<g>
										<path fill="#FFD93B" d="M15.5,12.6c-1.6-0.6-2.7-1.9-3.7-3.3c-2.4-3.4-7.1,2.3-4,3.5c1.1,0.5,5.6,0.4,6.1,2.7L15.5,12.6z"
											/>
									</g>
								</g>
							</g>
							<g>
								<g>
									<g>
										<path fill="#FC97B2" d="M13.2,13c-3.5-1.1-2.8-0.6-4.2-0.5c-1.4,0.1-1.6-1.2-1-1.9C9.8,8.2,11.9,12.3,13.2,13z"/>
									</g>
								</g>
							</g>
						</g>
						<g>
							<g>
								<g>
									<path fill="#E88EA7" d="M8,10.5c1.8-2.3,3.9,1.8,5.2,2.4c-1.2-0.4-1.5-0.9-2.4-1.7C9,9.8,7.6,11,7.9,12.1
										C7.6,11.6,7.6,11,8,10.5z"/>
								</g>
							</g>
						</g>
					</g>
				</g>
				<g>
					<g>
						<g>
							<path fill="#FFD93B" d="M18,9.2"/>
						</g>
					</g>
				</g>
				<g>
					<g>
						<g>
							<path fill="#FFD93B" d="M25,18.3c-0.2,4.7-3.3,8.2-7,8.2c-3.7,0-6.8-3.6-7-8.2c-0.3-7.5,3-9.1,7-9.1
								C22,9.2,25.3,10.8,25,18.3z"/>
						</g>
					</g>
				</g>
				<g>
					<g>
						<g>
							<g>
								<g>
									<path fill="#3E4347" d="M17,14.7c0,1.8-0.9,2.3-2.1,2.3s-2.1-0.6-2.1-2.3s1.6-3.4,2.7-3.4S17,13,17,14.7z"/>
								</g>
							</g>
						</g>
						<g>
							<g>
								<g>
									<path fill="#FFFFFF" d="M17.3,15c0,1.6-1,2.1-2.2,2.1s-2.2-0.5-2.2-2.1s1.6-3.1,2.9-3.1S17.3,13.4,17.3,15z"/>
								</g>
							</g>
						</g>
						<g>
							<g>
								<g>
									<g>
										<path fill="#65B1EF" d="M16.5,15.1c0,0.8-0.6,1.5-1.3,1.5c-0.7,0-1.3-0.7-1.3-1.5c0-0.8,0.6-1.4,1.3-1.4
											C15.9,13.7,16.5,14.4,16.5,15.1z"/>
									</g>
								</g>
							</g>
							<g>
								<g>
									<g>
										<path fill="#3E4347" d="M15.9,15.2c0,0.4-0.3,0.8-0.7,0.8c-0.4,0-0.7-0.3-0.7-0.8c0-0.4,0.3-0.8,0.7-0.8
											C15.6,14.4,15.9,14.7,15.9,15.2z"/>
									</g>
								</g>
							</g>
							<g>
								<g>
									<g>
										<path fill="#FFFFFF" d="M16.1,14.7c0,0.2-0.2,0.3-0.3,0.3c-0.2,0-0.3-0.2-0.3-0.3s0.1-0.3,0.3-0.3
											C15.9,14.4,16.1,14.5,16.1,14.7z"/>
									</g>
								</g>
							</g>
						</g>
					</g>
					<g>
						<g>
							<g>
								<g>
									<path fill="#3E4347" d="M19,14.7c0,1.8,0.9,2.3,2.1,2.3c1.2,0,2.1-0.6,2.1-2.3s-1.6-3.4-2.7-3.4S19,13,19,14.7z"/>
								</g>
							</g>
						</g>
						<g>
							<g>
								<g>
									<path fill="#FFFFFF" d="M18.7,15c0,1.6,1,2.1,2.2,2.1s2.2-0.5,2.2-2.1s-1.6-3.1-2.9-3.1S18.7,13.4,18.7,15z"/>
								</g>
							</g>
						</g>
						<g>
							<g>
								<g>
									<g>
										<path fill="#65B1EF" d="M22.1,15.1c0,0.8-0.6,1.5-1.3,1.5c-0.7,0-1.3-0.7-1.3-1.5c0-0.8,0.6-1.4,1.3-1.4
											C21.5,13.7,22.1,14.4,22.1,15.1z"/>
									</g>
								</g>
							</g>
							<g>
								<g>
									<g>
										<path fill="#3E4347" d="M21.5,15.2c0,0.4-0.3,0.8-0.7,0.8c-0.4,0-0.7-0.3-0.7-0.8c0-0.4,0.3-0.8,0.7-0.8
											C21.2,14.4,21.5,14.7,21.5,15.2z"/>
									</g>
								</g>
							</g>
							<g>
								<g>
									<g>
										<path fill="#FFFFFF" d="M21.7,14.7c0,0.2-0.2,0.3-0.3,0.3S21,14.9,21,14.7s0.1-0.3,0.3-0.3S21.7,14.5,21.7,14.7z"/>
									</g>
								</g>
							</g>
						</g>
					</g>
				</g>
				<g>
					<g>
						<g>
							<g>
								<path fill="#FFD93B" d="M13.1,23.7c-0.5,3,1.5,6.2,4.9,6.2c3.4,0,5.3-3.2,4.9-6.2H13.1z"/>
							</g>
						</g>
					</g>
					<g>
						<g>
							<g>
								<path fill="#3E4347" d="M14.2,24.6C14.1,26.9,15.6,29,18,29c2.4,0,3.9-2.1,3.8-4.3H14.2z"/>
							</g>
						</g>
					</g>
					<g>
						<g>
							<g>
								<path fill="#31373A" d="M16.5,25.6c-0.1,0.9,0.6,1.8,1.5,1.8c1,0,1.6-0.9,1.5-1.8C19.5,24,16.5,24,16.5,25.6z"/>
							</g>
						</g>
					</g>
				</g>
				<g>
					<g>
						<g>
							<path fill="#FFE9AB" d="M27.2,21.9c0,2.9-3.1,5.3-6,5.3c-1.3,0-2.4-0.6-3.3-1.6c-0.9,0.9-2,1.6-3.3,1.6c-2.9,0-6-2.4-6-5.3
								c0-2.9,3.1-5.3,6-5.3c1.3,0,2.4,0.3,3.3,0.9c0.9-0.6,2-0.9,3.3-0.9C24.2,16.6,27.2,19,27.2,21.9z"/>
						</g>
					</g>
				</g>
				<g>
					<g>
						<g>
							<path fill="#6D4135" d="M20.6,18.9c-0.5,0.3-1.2,0.9-1.8,1.3c-0.5,0.4-1.2,0.4-1.6,0c-0.6-0.5-1.2-1-1.8-1.3
								c-0.6-0.3-0.8-1.1-0.5-1.7c0.6-1.2,1.8-1.4,3.1-1.4c1.4,0,2.5,0.2,3.1,1.4C21.4,17.8,21.2,18.6,20.6,18.9z"/>
						</g>
					</g>
				</g>
				<g>
					<g>
						<g>
							<path fill="#E24B4B" d="M20.3,28.2c-0.1-0.5-0.3-0.8-0.7-1.1c-0.4-0.2-1-0.2-1.4,0.1c-0.2,0.2-0.5,0.2-0.7,0.1
								c-0.7-0.2-1.5,0-2,0.6c0.7,0.6,1.5,1,2.6,1C18.9,29,19.7,28.7,20.3,28.2z"/>
						</g>
					</g>
				</g>
			</g>
		</g>
		<g>
			<g>
				<path fill="#D03F3F" d="M19.6,27.1c-0.4-0.2-1-0.2-1.4,0.1c-0.2,0.2-0.5,0.2-0.7,0.1c-0.7-0.2-1.5,0-2,0.6
					c0.3,0.3,0.7,0.6,1.1,0.7c-0.2-0.3-0.4-0.5-0.2-0.8c0.3-0.5,1.4-0.4,1.7,0.4c0.1-1,1.2-1.3,1.9-0.8
					C19.9,27.3,19.7,27.2,19.6,27.1z"/>
			</g>
		</g>
		<g opacity="0.2">
			<g>
				<g>
					<path fill="#FFFFFF" d="M19.5,27.9c-0.1-0.2-0.2-0.2-0.3-0.3c-0.2-0.1-0.1-0.3,0.2-0.2c0.3,0,0.4,0.2,0.5,0.3
						C20,28,19.7,28.2,19.5,27.9z"/>
				</g>
			</g>
		</g>
	</g>
	<g>
		<g>
			<g>
				<g>
					<g>
						<path fill="#3E4347" d="M13.2,23.6c0.1,0.1,0,0.2,0,0.2c0,0,0,0,0,0c-1.4,0.9-2.5,2.7-2.4,4.7c0,0.5,0.1,0.8,0.1,0.9
							c0-0.1-0.1-0.5-0.1-0.9c-0.1-2.2,0.8-3.7,2.3-4.9h0C13.1,23.6,13.2,23.6,13.2,23.6z"/>
					</g>
				</g>
				<g>
					<g>
						<path fill="#3E4347" d="M3.4,21.3c3.8-1.4,7.8-0.7,9.4,0.5l0,0c0.1,0.1,0.1,0.2,0,0.2c-0.1,0.1-0.2,0.1-0.2,0
							C10.6,20.4,6.2,20.4,3.4,21.3z"/>
					</g>
				</g>
				<g>
					<g>
						<g>
							<path fill="#3E4347" d="M6.9,27.1c1.1-2.2,3-3.6,4.9-4h0c0.1,0,0.2,0,0.2,0.1c0,0.1,0,0.2-0.1,0.2c0,0,0,0,0,0
								C9.8,23.8,7.8,25.4,6.9,27.1z"/>
						</g>
					</g>
				</g>
				<g>
					<g>
						<path fill="#3E4347" d="M13.5,22.8c0.1,0,0.1,0.1,0.1,0.2c0,0.1-0.1,0.1-0.2,0.1c0,0,0,0,0,0c-1-0.4-2-0.8-3-1
							c-2.3-0.4-4.3,0.2-6.7,1c2.1-0.8,4.5-1.5,6.7-1.2C11.7,22.1,12.6,22.5,13.5,22.8z"/>
					</g>
				</g>
			</g>
		</g>
		<g>
			<g>
				<g>
					<g>
						<path fill="#3E4347" d="M22.8,23.6c-0.1,0.1,0,0.2,0,0.2c0,0,0,0,0,0c1.4,0.9,2.5,2.7,2.4,4.7c0,0.5-0.1,0.8-0.1,0.9
							c0-0.1,0.1-0.5,0.1-0.9c0.1-2.2-0.8-3.7-2.3-4.9h0C22.9,23.6,22.8,23.6,22.8,23.6z"/>
					</g>
				</g>
				<g>
					<g>
						<path fill="#3E4347" d="M32.6,21.3c-3.8-1.4-7.8-0.7-9.4,0.5l0,0c-0.1,0.1-0.1,0.2,0,0.2c0.1,0.1,0.2,0.1,0.2,0
							C25.4,20.4,29.8,20.4,32.6,21.3z"/>
					</g>
				</g>
				<g>
					<g>
						<g>
							<path fill="#3E4347" d="M29.1,27.1c-1.1-2.2-3-3.6-4.9-4h0c-0.1,0-0.2,0-0.2,0.1c0,0.1,0,0.2,0.1,0.2c0,0,0,0,0,0
								C26.2,23.8,28.2,25.4,29.1,27.1z"/>
						</g>
					</g>
				</g>
				<g>
					<g>
						<path fill="#3E4347" d="M22.5,22.8c-0.1,0-0.1,0.1-0.1,0.2c0,0.1,0.1,0.1,0.2,0.1c0,0,0,0,0,0c1-0.4,2-0.8,3-1
							c2.3-0.4,4.3,0.2,6.7,1c-2.1-0.8-4.5-1.5-6.7-1.2C24.3,22.1,23.4,22.5,22.5,22.8z"/>
					</g>
				</g>
			</g>
		</g>
	</g>
</g>
</svg>
