<?xml version="1.0" encoding="utf-8"?>
<!-- Generator: Adobe Illustrator 18.0.0, SVG Export Plug-In . SVG Version: 6.00 Build 0)  -->
<!DOCTYPE svg PUBLIC "-//W3C//DTD SVG 1.1//EN" "http://www.w3.org/Graphics/SVG/1.1/DTD/svg11.dtd">
<svg version="1.1" id="Layer_1" xmlns="http://www.w3.org/2000/svg" xmlns:xlink="http://www.w3.org/1999/xlink" x="0px" y="0px"
	 viewBox="0 0 36 36" enable-background="new 0 0 36 36" xml:space="preserve">
<g id="XMLID_1421_">
	<g id="XMLID_1436_">
		<g id="XMLID_1440_">
			<g>
				<path fill="#E88EA7" d="M2.2,3.8c-0.9,7.7,4.1,11.4,9.6,11.1l0.8,0l0.1-0.8C13.3,8.6,9.9,3.4,2.2,3.8z"/>
			</g>
		</g>
		<g id="XMLID_1439_">
			<g>
				<path fill="#D2839A" d="M11.4,13.7c0.2-2.4-0.5-4.7-2-6.3S5.8,4.9,3.3,5c-0.2,2.4,0.5,4.7,2,6.3S9,13.7,11.4,13.7z"/>
			</g>
		</g>
		<g id="XMLID_1438_">
			<g>
				<path fill="#E88EA7" d="M33.8,3.8c0.9,7.7-4.1,11.4-9.6,11.1l-0.8,0l-0.1-0.8C22.7,8.6,26.1,3.4,33.8,3.8z"/>
			</g>
		</g>
		<g id="XMLID_1437_">
			<g>
				<path fill="#D2839A" d="M24.6,13.7c-0.2-2.4,0.5-4.7,2-6.3c1.5-1.6,3.7-2.5,6.1-2.4c0.2,2.4-0.5,4.7-2,6.3
					C29.2,12.9,27,13.7,24.6,13.7z"/>
			</g>
		</g>
	</g>
	<g id="XMLID_1435_">
		<g>
			<path fill="#E88EA7" d="M31.8,18.8c0,6.5-6.2,11.8-13.8,11.8S4.2,25.3,4.2,18.8S10.4,5,18,5S31.8,12.3,31.8,18.8z"/>
		</g>
	</g>
	<g id="XMLID_4_">
		<g>
			<circle fill="#FFFFFF" cx="22.8" cy="16" r="2.5"/>
		</g>
	</g>
	<g>
		<g id="XMLID_1434_">
			<g>
				<path fill="#FC97B2" d="M24.3,26.9c0,2.9-2.8,5.3-6.3,5.3s-6.3-2.4-6.3-5.3s2.8-6.3,6.3-6.3S24.3,23.9,24.3,26.9z"/>
			</g>
		</g>
	</g>
	<g id="XMLID_1431_">
		<g id="XMLID_1433_">
			<g>
				
					<ellipse transform="matrix(0.9486 0.3166 -0.3166 0.9486 9.6667 -5.1116)" fill="#5B5F63" cx="20.6" cy="27.2" rx="1.2" ry="1.7"/>
			</g>
		</g>
		<g id="XMLID_1432_">
			<g>
				
					<ellipse transform="matrix(-0.9486 0.3166 -0.3166 -0.9486 38.6882 48.0967)" fill="#5B5F63" cx="15.4" cy="27.2" rx="1.2" ry="1.7"/>
			</g>
		</g>
	</g>
	<g id="XMLID_1422_">
		<g id="XMLID_1427_">
			<g id="XMLID_1430_">
				<g>
					<circle fill="#FFFFFF" cx="13.2" cy="16" r="2.5"/>
				</g>
			</g>
			<g id="XMLID_1429_">
				<g>
					<circle fill="#3F4347" cx="13.2" cy="16" r="1.3"/>
				</g>
			</g>
			<g id="XMLID_1428_">
				<g>
					<circle fill="#FFFFFF" cx="12.3" cy="15.2" r="0.6"/>
				</g>
			</g>
		</g>
		<g id="XMLID_1423_">
			<g id="XMLID_1425_">
				<g>
					<circle fill="#3F4347" cx="22.8" cy="16" r="1.3"/>
				</g>
			</g>
			<g id="XMLID_1424_">
				<g>
					<circle fill="#FFFFFF" cx="21.9" cy="15.2" r="0.6"/>
				</g>
			</g>
		</g>
	</g>
</g>
</svg>
