<?xml version="1.0" encoding="utf-8"?>
<!-- Generator: Adobe Illustrator 18.0.0, SVG Export Plug-In . SVG Version: 6.00 Build 0)  -->
<!DOCTYPE svg PUBLIC "-//W3C//DTD SVG 1.1//EN" "http://www.w3.org/Graphics/SVG/1.1/DTD/svg11.dtd">
<svg version="1.1" id="Layer_1" xmlns="http://www.w3.org/2000/svg" xmlns:xlink="http://www.w3.org/1999/xlink" x="0px" y="0px"
	 viewBox="0 0 36 36" enable-background="new 0 0 36 36" xml:space="preserve">
<g>
	<g>
		<g>
			<g>
				<g>
					<g>
						<path fill="#E18823" d="M32.6,14.8c-1.9,1.9-6.5,3.4-8.4,1.6c-1.9-1.9-0.3-6.5,1.6-8.4s4.9-1.9,6.8,0
							C34.5,9.8,34.5,12.9,32.6,14.8z"/>
					</g>
				</g>
			</g>
			<g>
				<g>
					<g>
						<path fill="#FFE9AB" d="M31.9,14.2c-1.4,1.4-4.3,2-5.7,0.6c-1.4-1.4-0.8-4.3,0.6-5.7c1.4-1.4,3.6-1.4,5,0S33.3,12.9,31.9,14.2
							z"/>
					</g>
				</g>
			</g>
			<g>
				<g>
					<g>
						<path fill="#FFD68D" d="M32.7,10.4C32.6,10.4,32.6,10.3,32.7,10.4c-1.4-1.4-3.7-1.4-5.1-0.1c-1.1,1.1-1.7,3.2-1.2,4.7
							c0,0-0.1-0.1-0.1-0.1c-1.4-1.4-0.8-4.3,0.6-5.7s3.6-1.4,5,0C32.2,9.5,32.5,10,32.7,10.4z"/>
					</g>
				</g>
			</g>
		</g>
		<g>
			<g>
				<g>
					<g>
						<path fill="#E18823" d="M3.4,14.8c1.9,1.9,6.5,3.4,8.4,1.6s0.3-6.5-1.6-8.4s-4.9-1.9-6.8,0S1.5,12.9,3.4,14.8z"/>
					</g>
				</g>
			</g>
			<g>
				<g>
					<g>
						<path fill="#FFE9AB" d="M4.1,14.2c1.4,1.4,4.3,2,5.7,0.6s0.8-4.3-0.6-5.7s-3.6-1.4-5,0S2.7,12.9,4.1,14.2z"/>
					</g>
				</g>
			</g>
			<g>
				<g>
					<g>
						<path fill="#FFD68D" d="M3.3,10.4C3.4,10.4,3.4,10.3,3.3,10.4c1.4-1.4,3.7-1.4,5.1-0.1c1.1,1.1,1.7,3.2,1.2,4.7
							c0,0,0.1-0.1,0.1-0.1c1.4-1.4,0.8-4.3-0.6-5.7c-1.4-1.4-3.6-1.4-5,0C3.8,9.5,3.5,10,3.3,10.4z"/>
					</g>
				</g>
			</g>
		</g>
	</g>
	<g>
		<g>
			<g>
				<path fill="#F29A2E" d="M30.7,17.9c-0.6,8.8-6.2,15-12.7,15c-6.5,0-12.1-6.2-12.7-15c-0.4-5.4,3.4-9.7,8.8-11.1
					c1.6-0.4,1.8-2,1.4-2.8c0.6,0.2,1.1,0.7,1.3,1.3C17.1,4,18.1,3,19.3,2.7c-0.3,0.4-0.4,0.9-0.5,1.4c0.3-0.2,0.6-0.5,0.9-0.7
					C18.9,4.4,19.4,5.4,19,6c0.7-0.9,1.9-1.9,3-1.7c-0.1,0.1-0.2,0.1-0.2,0.2c-0.7,0.8-0.2,2.1,0.8,2.4
					C27.7,8.5,31.1,12.7,30.7,17.9z"/>
			</g>
		</g>
	</g>
	<g>
		<g>
			<g>
				<g>
					<g>
						<g>
							<g>
								<path fill="#E18823" d="M26.9,17.7c0,2.2-1.5,2.8-3.3,2.8s-3.3-1.2-3.3-3.4s0.5-4.6,2.3-4.6S26.9,15.4,26.9,17.7z"/>
							</g>
						</g>
					</g>
					<g>
						<g>
							<g>
								<path fill="#FFFFFF" d="M26.3,17.5c0,1.9-1.3,2.3-2.8,2.3s-2.7-1-2.7-2.8s0.5-3.8,2-3.8C24.3,13.2,26.3,15.7,26.3,17.5z"/>
							</g>
						</g>
					</g>
				</g>
				<g>
					<g>
						<g>
							<g>
								<g>
									<path fill="#65B1EF" d="M25,17.2c0,0.9-0.8,1.7-1.7,1.7c-0.9,0-1.7-0.8-1.7-1.7c0-0.9,0.8-1.7,1.7-1.7
										C24.2,15.5,25,16.2,25,17.2z"/>
								</g>
							</g>
						</g>
						<g>
							<g>
								<g>
									<path fill="#3E4347" d="M24.1,17.2c0,0.5-0.4,0.8-0.8,0.8c-0.5,0-0.8-0.4-0.8-0.8c0-0.5,0.4-0.8,0.8-0.8
										C23.7,16.3,24.1,16.7,24.1,17.2z"/>
								</g>
							</g>
						</g>
					</g>
					<g>
						<g>
							<g>
								<circle fill="#FFFFFF" cx="23.7" cy="16.6" r="0.4"/>
							</g>
						</g>
					</g>
				</g>
			</g>
			<g>
				<g>
					<g>
						<path fill="#3E4347" d="M20.8,10.8c0,0,4.1,0,6.7,3.5C27.6,14.3,23.4,8,20.8,10.8z"/>
					</g>
				</g>
			</g>
		</g>
		<g>
			<g>
				<g>
					<g>
						<g>
							<g>
								<path fill="#E18823" d="M9.1,17.7c0,2.2,1.5,2.8,3.3,2.8s3.3-1.2,3.3-3.4s-0.5-4.6-2.3-4.6S9.1,15.4,9.1,17.7z"/>
							</g>
						</g>
					</g>
					<g>
						<g>
							<g>
								<path fill="#FFFFFF" d="M9.7,17.5c0,1.9,1.3,2.3,2.8,2.3s2.7-1,2.7-2.8s-0.5-3.8-2-3.8S9.7,15.7,9.7,17.5z"/>
							</g>
						</g>
					</g>
				</g>
				<g>
					<g>
						<g>
							<g>
								<g>
									<path fill="#65B1EF" d="M14.4,17.2c0,0.9-0.8,1.7-1.7,1.7c-0.9,0-1.7-0.8-1.7-1.7c0-0.9,0.8-1.7,1.7-1.7
										C13.7,15.5,14.4,16.2,14.4,17.2z"/>
								</g>
							</g>
						</g>
						<g>
							<g>
								<g>
									<path fill="#3E4347" d="M13.6,17.2c0,0.5-0.4,0.8-0.8,0.8c-0.5,0-0.8-0.4-0.8-0.8c0-0.5,0.4-0.8,0.8-0.8
										C13.2,16.3,13.6,16.7,13.6,17.2z"/>
								</g>
							</g>
						</g>
					</g>
					<g>
						<g>
							<g>
								<circle fill="#FFFFFF" cx="13.2" cy="16.6" r="0.4"/>
							</g>
						</g>
					</g>
				</g>
			</g>
			<g>
				<g>
					<g>
						<path fill="#3E4347" d="M15.2,10.8c0,0-4.1,0-6.7,3.5C8.4,14.3,12.6,8,15.2,10.8z"/>
					</g>
				</g>
			</g>
		</g>
	</g>
	<g>
		<g>
			<g>
				<path fill="#FFE9AB" d="M27.2,27.3c0,3.6-4.3,6-9.6,6s-9.6-2.4-9.6-6c0-1.1,0.9-2.1,2.1-3c4.5-3.3,10.5-3.3,15,0
					C26.3,25.2,27.2,26.2,27.2,27.3z"/>
			</g>
		</g>
	</g>
	<g>
		<g>
			<g>
				<g>
					<path fill="#CF7519" d="M22.4,26.9c0,1.5-2.1,0.6-4.8,0.6s-4.8,0.9-4.8-0.6c0-2.2,2.1-3.9,4.8-3.9S22.4,24.8,22.4,26.9z"/>
				</g>
			</g>
		</g>
		<g>
			<g>
				<g>
					<path fill="#BE630E" d="M22.2,27.5c-0.1,0.2-0.4,0.2-0.7,0.3c-1.1,0.1-2.5-0.3-3.9-0.3c-1.4,0-2.9,0.3-3.9,0.3
						c-0.3,0-0.5-0.1-0.7-0.3c-0.2-0.3-0.2-0.7-0.1-1c0,0.3,0,0.7,0.3,0.9c0.1,0.1,0.3,0.1,0.5,0.1c0.1,0,2.4-0.5,3.9-0.5
						c1.5,0,3.8,0.5,3.9,0.5c0.2,0,0.4,0,0.5-0.1c0.2-0.1,0.3-0.6,0.3-0.9C22.4,26.8,22.5,27.2,22.2,27.5z"/>
				</g>
			</g>
		</g>
		<g>
			<g>
				<g>
					<g>
						<g>
							<g>
								<path fill="#6D4135" d="M19.6,26.1c0.4,0.3,1.6,0.4,1.6,0.4s-0.5-1.1-0.9-1.4c-0.4-0.3-0.7-0.2-0.9,0.1S19.2,25.9,19.6,26.1
									z"/>
							</g>
						</g>
					</g>
					<g>
						<g>
							<g>
								<path fill="#633B2A" d="M19.4,25.9C19.4,25.9,19.4,25.9,19.4,25.9c0.2-0.3,0.6-0.4,1-0.1c0.4,0.3,0.9,0.8,0.9,0.8
									s-0.5-1.1-0.9-1.4c-0.4-0.3-0.8-0.2-1,0.1C19.3,25.4,19.2,25.7,19.4,25.9z"/>
							</g>
						</g>
					</g>
				</g>
			</g>
			<g>
				<g>
					<g>
						<g>
							<g>
								<path fill="#6D4135" d="M15.6,26.1c-0.4,0.3-1.6,0.4-1.6,0.4s0.5-1.1,0.9-1.4c0.4-0.3,0.7-0.2,0.9,0.1
									C16.1,25.5,16,25.9,15.6,26.1z"/>
							</g>
						</g>
					</g>
					<g>
						<g>
							<g>
								<path fill="#633B2A" d="M15.9,25.9C15.9,25.9,15.9,25.9,15.9,25.9c-0.2-0.3-0.6-0.4-1-0.1C14.5,26,14,26.5,14,26.5
									s0.5-1.1,0.9-1.4c0.4-0.3,0.8-0.2,1,0.1C16,25.4,16,25.7,15.9,25.9z"/>
							</g>
						</g>
					</g>
				</g>
			</g>
		</g>
	</g>
	<g>
		<g>
			<g>
				<path fill="#3E4347" d="M24.2,28.7c-1.6,1.4-4,2.5-6.6,2.6c-2.3-0.1-4.3-0.6-6.6-2.6c2,0.9,3.2,1.6,6.6,1.7
					C20.6,30.4,23.1,29.1,24.2,28.7z"/>
			</g>
		</g>
	</g>
</g>
</svg>
