<?xml version="1.0" encoding="utf-8"?>
<!-- Generator: Adobe Illustrator 18.0.0, SVG Export Plug-In . SVG Version: 6.00 Build 0)  -->
<!DOCTYPE svg PUBLIC "-//W3C//DTD SVG 1.1//EN" "http://www.w3.org/Graphics/SVG/1.1/DTD/svg11.dtd">
<svg version="1.1" id="Layer_1" xmlns="http://www.w3.org/2000/svg" xmlns:xlink="http://www.w3.org/1999/xlink" x="0px" y="0px"
	 viewBox="0 0 36 36" enable-background="new 0 0 36 36" xml:space="preserve">
<g>
	<g>
		<g>
			<g>
				<g>
					<path fill="#CF7519" d="M32.2,12.3c1,2.1,1.4,4.4,1.1,6.7c-0.6-0.7-1.5-1.3-2.4-1.4c1,2.4,1.4,5.1,1,7.7
						c-0.1-0.3-0.4-0.6-0.8-0.8c-0.1,2.2-1.3,4.3-3.2,5.4c0.2-0.5,0.2-0.9,0-1.4c-1.4,1.6-3.9,2.5-6.1,2.4c0.3-0.7,0.6-1.1,0.7-1.6
						c-1.7,0.5-4.8,1.9-5.8,4.7c-1.1-1.8-1.4-4.2-3.1-4.7c-0.2,0.6,0,1.1,0.3,1.7c-2.1,0.1-4.3-0.9-5.7-2.5c-0.2,0.4-0.1,0.9,0,1.4
						c-1.9-1.1-3.1-3.2-3.2-5.4c-0.5,0.2-0.7,0.5-0.8,0.8c-0.4-2.6,0-5.3,1-7.7c-1,0.2-1.8,0.7-2.4,1.4c-0.4-2.3,0-4.7,1.1-6.7
						c-0.6,0.1-1.2,0.3-1.8,0.4c0.2-2,1.9-3.8,4-4.1C5.6,7.9,5.2,7.2,4.8,6.5c1.5-0.2,3,0,4.4,0.5C9.2,6.2,8.9,5.3,8.5,4.6
						c1.2,0.2,2.3,0.7,3.2,1.6c-0.2-0.9-1-1.9-2-2.4c1.3,0.3,2.6,0.9,3.7,1.6c-0.1-1-0.6-2-1.3-2.7c1.5,0,3,0.6,4,1.7
						c0.2-0.9,0.6-1.7,1.2-2.4c0.2,1.3,1.4,2.5,2.7,2.6c-0.2-0.7-0.6-1.3-1.3-1.7C20.2,3,21.4,3.8,21.9,5c1-0.5,1.9-0.9,2.8-1.4
						c-0.7,0.9-1.1,2-1,3.1c0.9-1.1,2.3-1.9,3.7-2.1c-0.4,0.7-0.7,1.6-0.7,2.4c1.4-0.5,2.9-0.7,4.4-0.5c-0.4,0.7-0.8,1.4-1.2,2.1
						c2,0.3,3.7,2.1,3.9,4.1C33.3,12.6,32.7,12.4,32.2,12.3z"/>
				</g>
			</g>
		</g>
		<g>
			<g>
				<g>
					<path fill="#BE630E" d="M29.5,12.8c0.3,1.2,0.4,2.4,0.2,3.6c-0.3-0.1-0.6-0.2-0.9-0.3c0.2,1.3,0.3,2.7,0.2,4
						c-0.3-0.3-0.6-0.5-0.9-0.8c0.4,1.5,0.5,3.4,0.2,5c-0.2-0.4-0.3-0.8-0.5-1.2c0,1.4-0.8,2.7-1.9,3.5c0.1-0.5,0.2-1,0.3-1.5
						c-2,2.6-6.6,3-8.1,6.1c-0.3-0.7-0.7-1.9-1.3-2.4c0.3,1.1,0.4,2.2,0.1,3.3c-0.7-2-2.2-3.7-4.1-4.6c0,0.6,0,1.2,0,1.8
						c-1.2-1.7-4.7-3-4.4-5.4c-0.4,0.3-0.7,0.8-0.7,1.4c-1-2.2-1.3-5.1-0.7-7.3c-0.3,0.3-0.5,0.6-0.8,0.9c0-1.8,0.2-3.7,0.8-5.4
						c-0.7,0.4-1.3,0.9-1.8,1.5c0.6-1.9,1.5-4.5,3.6-5.9c-0.6-0.1-1.2-0.1-1.8,0c1.3-1.3,3.4-1.2,4.9-1.2c-0.4-0.5-1-0.8-1.6-1
						c1.3-0.2,2.7,0,3.8,0.5c-0.2-0.7-0.6-1.4-1.2-1.9c1,0.2,2,0.7,2.8,1.4c0.3-1.2,1.5-2.2,2.7-2.2C18.1,5.2,17.9,6,18,6.8
						c0.3-1.5,3-0.3,4.4-1.4c-0.6,0.7-1.1,1.5-1.4,2.4C21.5,7.3,22.1,7,22.8,7c-0.3,0.4-0.6,0.9-0.9,1.3c1.4-0.6,3-0.9,4.5-0.9
						c-0.5,0.2-1,0.6-1.2,1.1c1.5-0.6,3.2-0.6,4.7,0.1c-0.7,0.1-1.5,0.3-2.2,0.5c1.9,0.9,3.4,2.6,4.1,4.7
						C31,13.4,30.3,13.1,29.5,12.8z"/>
				</g>
			</g>
		</g>
	</g>
	<g>
		<g>
			<g>
				<path fill="#F4C534" d="M27.7,14.5c0,0.7-0.2,1.3-0.5,1.9c-0.5,0.9-0.9,1.8-1,2.8c-0.4,3.9-3.8,7.4-8.2,7.4
					c-4.5,0-7.8-3.5-8.2-7.4c-0.1-1-0.5-1.9-1-2.8c-0.3-0.6-0.5-1.2-0.5-1.9c0-3.2,4.4-5.9,9.7-5.9C23.4,8.6,27.7,11.3,27.7,14.5z"
					/>
			</g>
		</g>
	</g>
	<g>
		<g>
			<g>
				<g>
					<g>
						<g>
							<g>
								<ellipse fill="#3E4347" cx="21.7" cy="16" rx="2.2" ry="2.6"/>
							</g>
						</g>
					</g>
					<g>
						<g>
							<g>
								<ellipse fill="#FFFFFF" cx="21.6" cy="16.4" rx="2" ry="2.4"/>
							</g>
						</g>
					</g>
					<g>
						<g>
							<g>
								<path fill="#65B1EF" d="M22.7,16.8c0,0.9-0.6,1.6-1.3,1.6S20,17.6,20,16.8s0.6-1.6,1.3-1.6S22.7,15.9,22.7,16.8z"/>
							</g>
						</g>
					</g>
					<g>
						<g>
							<g>
								<ellipse fill="#3E4347" cx="21.3" cy="16.9" rx="0.8" ry="1"/>
							</g>
						</g>
					</g>
				</g>
				<g>
					<g>
						<circle fill="#FFFFFF" cx="21.8" cy="16.1" r="0.3"/>
					</g>
				</g>
			</g>
			<g>
				<g>
					<g>
						<path fill="#3E4347" d="M24.7,14.1c-1.7-1.7-3.4-1.8-4.1-1.3c-0.2,0.1-0.4-0.3-0.2-0.4C22.3,10.5,24.4,13.3,24.7,14.1z"/>
					</g>
				</g>
			</g>
		</g>
		<g>
			<g>
				<g>
					<g>
						<g>
							<g>
								<ellipse fill="#3E4347" cx="14.3" cy="16" rx="2.2" ry="2.6"/>
							</g>
						</g>
					</g>
					<g>
						<g>
							<g>
								<ellipse fill="#FFFFFF" cx="14.4" cy="16.4" rx="2" ry="2.4"/>
							</g>
						</g>
					</g>
					<g>
						<g>
							<g>
								<path fill="#65B1EF" d="M16,16.8c0,0.9-0.6,1.6-1.3,1.6s-1.3-0.7-1.3-1.6s0.6-1.6,1.3-1.6S16,15.9,16,16.8z"/>
							</g>
						</g>
					</g>
					<g>
						<g>
							<g>
								<ellipse fill="#3E4347" cx="14.7" cy="16.9" rx="0.8" ry="1"/>
							</g>
						</g>
					</g>
				</g>
				<g>
					<g>
						<circle fill="#FFFFFF" cx="15.1" cy="16.1" r="0.3"/>
					</g>
				</g>
			</g>
			<g>
				<g>
					<g>
						<path fill="#3E4347" d="M11.3,14.1c1.7-1.7,3.4-1.8,4.1-1.3c0.2,0.1,0.4-0.3,0.2-0.4C13.7,10.5,11.6,13.3,11.3,14.1z"/>
					</g>
				</g>
			</g>
		</g>
	</g>
	<g>
		<g>
			<g>
				<g>
					<path fill="#FFD68D" d="M23,24.1c0,1.7-1.2,2.9-3.3,3.3c-0.4,0.4-1,0.7-1.7,0.7c-0.7,0-1.4-0.3-1.7-0.7c-2-0.4-3.2-1.7-3.2-3.3
						c0-2.1,2-3.5,5-3.5C21,20.6,23,22,23,24.1z"/>
				</g>
			</g>
		</g>
	</g>
	<g>
		<g>
			<g>
				<g>
					<g>
						<path fill="#FFDC97" d="M20.2,24.8c0,1.4-1,2.5-2.2,2.5c-1.2,0-2.2-1.1-2.2-2.5c0-1.4,1-2.5,2.2-2.5
							C19.2,22.2,20.2,23.4,20.2,24.8z"/>
					</g>
				</g>
			</g>
			<g>
				<g>
					<g>
						<path fill="#3E4347" d="M19.8,24.8c0,1.1-0.8,2-1.8,2c-1,0-1.8-0.9-1.8-2c0-1.1,0.8-2,1.8-2C19,22.7,19.8,23.6,19.8,24.8z"/>
					</g>
				</g>
			</g>
		</g>
		<g>
			<g>
				<g>
					<path fill="#E24B4B" d="M18,26.8c0.6,0,1.1-0.3,1.4-0.8c-0.2-0.6-0.8-1-1.3-0.7c-0.2,0.1-0.3,0.1-0.5,0.1c-0.5,0-0.8,0.3-1,0.7
						C16.9,26.5,17.4,26.8,18,26.8z"/>
				</g>
			</g>
			<g opacity="0.15">
				<g>
					<g>
						<path fill="#FFFFFF" d="M18.9,25.7c0,0.1-0.2,0.1-0.3,0.1c-0.2-0.1-0.3-0.2-0.3-0.3c0-0.1,0.2-0.2,0.3-0.1
							C18.8,25.4,18.9,25.6,18.9,25.7z"/>
					</g>
				</g>
			</g>
		</g>
	</g>
	<g>
		<g>
			<g>
				<g>
					<path fill="#FFE9AB" d="M22,22.9c0,1.2-1,2.2-2.2,2.2c-0.5,0-0.9-0.1-1.2-0.4c-0.3-0.2-0.8-0.2-1.1,0c-0.4,0.2-0.8,0.4-1.2,0.4
						c-1.3,0-2.4-1.2-2.2-2.6c0.2-1.1,1.2-1.8,2.3-1.8h3.5C21,20.8,22,21.7,22,22.9z"/>
				</g>
			</g>
		</g>
	</g>
	<g>
		<g>
			<g>
				<g>
					<g>
						<g>
							<path fill="#6D4135" d="M19.4,19.7c-0.4-0.3-0.9-0.4-1.4-0.4c-0.5,0-1,0.1-1.4,0.4C16.2,20,16,20.6,16.3,21
								c0.2,0.3,0.7,0.6,1.1,0.8c0.4,0.3,0.9,0.3,1.3,0c0.4-0.3,0.9-0.6,1.1-0.8C20,20.6,19.8,20,19.4,19.7z"/>
						</g>
					</g>
				</g>
			</g>
			<g>
				<g>
					<g>
						<g>
							<g>
								<path fill="#5B331D" d="M18.9,21.4c-0.1,0-0.5,0.3-0.5,0.3c0,0,0.1-0.5,0.1-0.5c0.3-0.8,0.7-0.9,0.8-0.7
									C19.4,20.6,19.3,21.1,18.9,21.4z"/>
							</g>
						</g>
					</g>
					<g>
						<g>
							<g>
								<path fill="#512A1B" d="M19.3,20.9C19.3,20.9,19.3,20.9,19.3,20.9c-0.2-0.2-0.7-0.1-1,0.7c0,0,0.1-0.5,0.1-0.5
									c0.3-0.8,0.7-0.9,0.8-0.7C19.4,20.5,19.4,20.7,19.3,20.9z"/>
							</g>
						</g>
					</g>
				</g>
				<g>
					<g>
						<g>
							<g>
								<path fill="#5B331D" d="M17.1,21.4c0.1,0,0.5,0.3,0.5,0.3c0,0-0.1-0.5-0.1-0.5c-0.3-0.8-0.7-0.9-0.8-0.7
									C16.6,20.6,16.7,21.1,17.1,21.4z"/>
							</g>
						</g>
					</g>
					<g>
						<g>
							<g>
								<path fill="#512A1B" d="M16.7,20.9C16.7,20.9,16.7,20.9,16.7,20.9c0.2-0.2,0.7-0.1,1,0.7c0,0-0.1-0.5-0.1-0.5
									c-0.3-0.8-0.7-0.9-0.8-0.7C16.6,20.5,16.6,20.7,16.7,20.9z"/>
							</g>
						</g>
					</g>
				</g>
			</g>
		</g>
		<g opacity="0.1">
			<g>
				<g>
					<path fill="#FFFFFF" d="M18.7,19.9c0,0.3-0.3,0.2-0.7,0.2s-0.7,0-0.7-0.2s0.3-0.5,0.7-0.5S18.7,19.7,18.7,19.9z"/>
				</g>
			</g>
		</g>
	</g>
	<g>
		<g>
			<g>
				<g>
					<g>
						<g>
							<path fill="#3E4347" d="M20.4,22.5c0,0,0.3-0.1,0.8-0.2c0.5-0.1,1.1-0.1,1.7,0.1c0.6,0.1,1.2,0.4,1.6,0.6
								c0.4,0.2,0.7,0.3,0.7,0.3s-0.3-0.1-0.7-0.3c-0.4-0.2-1-0.4-1.6-0.5c-0.6-0.1-1.2-0.1-1.7,0c-0.4,0.1-0.7,0.2-0.7,0.2
								c0,0-0.1,0-0.1,0C20.3,22.6,20.3,22.6,20.4,22.5C20.3,22.5,20.3,22.5,20.4,22.5L20.4,22.5z"/>
						</g>
					</g>
				</g>
				<g>
					<g>
						<g>
							<path fill="#3E4347" d="M20.1,23c0,0,0.1,0,0.2,0c0.2,0,0.4,0.1,0.6,0.1c0.5,0.2,1.2,0.5,1.7,1.1c0.5,0.5,0.9,1.1,1.2,1.6
								c0.3,0.5,0.4,0.8,0.4,0.8s-0.2-0.3-0.4-0.8c-0.3-0.5-0.7-1-1.2-1.5c-0.5-0.5-1.1-0.8-1.6-1c-0.3-0.1-0.5-0.1-0.6-0.1
								c-0.2,0-0.2,0-0.2,0c-0.1,0-0.1-0.1-0.1-0.1C20,23,20,23,20.1,23C20.1,23,20.1,23,20.1,23z"/>
						</g>
					</g>
				</g>
				<g>
					<g>
						<g>
							<path fill="#3E4347" d="M19.7,22.6c0,0,0.1-0.2,0.3-0.4c0.2-0.2,0.5-0.4,0.9-0.6c0.4-0.1,0.7-0.2,1-0.2c0.3,0,0.5,0,0.5,0
								s-0.2,0-0.5,0c-0.3,0-0.6,0.1-1,0.3c-0.3,0.2-0.6,0.4-0.8,0.6c-0.2,0.2-0.3,0.4-0.3,0.4c0,0.1-0.1,0.1-0.1,0.1
								S19.7,22.7,19.7,22.6C19.7,22.7,19.7,22.7,19.7,22.6L19.7,22.6z"/>
						</g>
					</g>
				</g>
			</g>
			<g>
				<g>
					<g>
						<path fill="#3E4347" d="M20.6,23.5c0,0,0.3,0.1,0.6,0.3c0.3,0.2,0.6,0.7,0.8,1.1c0.2,0.5,0.3,1,0.4,1.3c0,0.4,0.1,0.6,0.1,0.6
							s0-0.3-0.1-0.6c-0.1-0.4-0.2-0.9-0.4-1.3c-0.2-0.5-0.5-0.8-0.8-1.1c-0.3-0.2-0.5-0.3-0.5-0.3c-0.1,0-0.1-0.1-0.1-0.1
							C20.5,23.6,20.5,23.5,20.6,23.5C20.6,23.5,20.6,23.5,20.6,23.5z"/>
					</g>
				</g>
			</g>
		</g>
		<g>
			<g>
				<g>
					<g>
						<g>
							<path fill="#3E4347" d="M15.6,22.5c0,0-0.3-0.1-0.8-0.2c-0.5-0.1-1.1-0.1-1.7,0.1c-0.6,0.1-1.2,0.4-1.6,0.6
								c-0.4,0.2-0.7,0.3-0.7,0.3s0.3-0.1,0.7-0.3c0.4-0.2,1-0.4,1.6-0.5c0.6-0.1,1.2-0.1,1.7,0c0.4,0.1,0.7,0.2,0.7,0.2
								c0,0,0.1,0,0.1,0C15.7,22.6,15.7,22.6,15.6,22.5C15.7,22.5,15.7,22.5,15.6,22.5L15.6,22.5z"/>
						</g>
					</g>
				</g>
				<g>
					<g>
						<g>
							<path fill="#3E4347" d="M15.9,23c0,0-0.1,0-0.2,0c-0.2,0-0.4,0.1-0.6,0.1c-0.5,0.2-1.2,0.5-1.7,1.1c-0.5,0.5-0.9,1.1-1.2,1.6
								c-0.3,0.5-0.4,0.8-0.4,0.8s0.2-0.3,0.4-0.8c0.3-0.5,0.7-1,1.2-1.5c0.5-0.5,1.1-0.8,1.6-1c0.3-0.1,0.5-0.1,0.6-0.1
								c0.2,0,0.2,0,0.2,0c0.1,0,0.1-0.1,0.1-0.1C16,23,16,23,15.9,23C15.9,23,15.9,23,15.9,23z"/>
						</g>
					</g>
				</g>
				<g>
					<g>
						<g>
							<path fill="#3E4347" d="M16.3,22.6c0,0-0.1-0.2-0.3-0.4c-0.2-0.2-0.5-0.4-0.9-0.6c-0.4-0.1-0.7-0.2-1-0.2c-0.3,0-0.5,0-0.5,0
								s0.2,0,0.5,0c0.3,0,0.6,0.1,1,0.3c0.3,0.2,0.6,0.4,0.8,0.6c0.2,0.2,0.3,0.4,0.3,0.4c0,0.1,0.1,0.1,0.1,0.1
								S16.3,22.7,16.3,22.6C16.3,22.7,16.3,22.7,16.3,22.6L16.3,22.6z"/>
						</g>
					</g>
				</g>
			</g>
			<g>
				<g>
					<g>
						<path fill="#3E4347" d="M15.4,23.5c0,0-0.3,0.1-0.6,0.3c-0.3,0.2-0.6,0.7-0.8,1.1c-0.2,0.5-0.3,1-0.4,1.3
							c0,0.4-0.1,0.6-0.1,0.6s0-0.3,0.1-0.6c0.1-0.4,0.2-0.9,0.4-1.3c0.2-0.5,0.5-0.8,0.8-1.1c0.3-0.2,0.5-0.3,0.5-0.3
							c0.1,0,0.1-0.1,0.1-0.1C15.5,23.6,15.5,23.5,15.4,23.5C15.4,23.5,15.4,23.5,15.4,23.5z"/>
					</g>
				</g>
			</g>
		</g>
	</g>
</g>
</svg>
