<?xml version="1.0" encoding="utf-8"?>
<!-- Generator: Adobe Illustrator 18.0.0, SVG Export Plug-In . SVG Version: 6.00 Build 0)  -->
<!DOCTYPE svg PUBLIC "-//W3C//DTD SVG 1.1//EN" "http://www.w3.org/Graphics/SVG/1.1/DTD/svg11.dtd">
<svg version="1.1" id="Layer_1" xmlns="http://www.w3.org/2000/svg" xmlns:xlink="http://www.w3.org/1999/xlink" x="0px" y="0px"
	 viewBox="0 0 36 36" enable-background="new 0 0 36 36" xml:space="preserve">
<g>
	<g>
		<g>
			<g>
				<g>
					<g>
						<path fill="#ACB9C1" d="M34,9.4c-0.1,2.4-1,5-0.2,7.3c0.5,1.3-0.3,1.8-1.4,1c-1.7-1.2-3.4-2.5-4.5-4.3
							c-1.4-2.4-1.3-5.3-4.3-8.9c-0.4-0.4-1.1-1-0.7-1.7C23.4,1.7,34.3,1,34,9.4z"/>
					</g>
				</g>
			</g>
			<g>
				<g>
					<g>
						<path fill="#ACB9C1" d="M2,9.4c0.1,2.4,1,5,0.2,7.3c-0.5,1.3,0.3,1.8,1.4,1C5.3,16.6,7,15.3,8,13.5c1.4-2.4,1.3-5.3,4.3-8.9
							c0.4-0.4,1.1-1,0.7-1.7C12.6,1.7,1.7,1,2,9.4z"/>
					</g>
				</g>
			</g>
		</g>
		<g>
			<g>
				<g>
					<path fill="#BBC7D1" d="M33.1,20.7c0,6.7-6.8,11.7-15.1,11.7S2.9,27.4,2.9,20.7c0-2.5,2.5-3.9,3.7-6.6C7.9,11,7.3,7.3,9.8,4.7
						c4.5-4.5,11.8-4.5,16.3,0c2.6,2.6,2,6.3,3.3,9.4C30.6,16.8,33.1,18.2,33.1,20.7z"/>
				</g>
			</g>
		</g>
		<g>
			<g>
				<g>
					<path fill="#DAE5EF" d="M26.8,30.3c-2.5,1.4-5.5,2.2-8.8,2.2c-3.3,0-6.3-0.8-8.8-2.2c-1.6-0.9-1.9-3.1-0.6-4.3
						c1.5-1.3,2.9-1.7,5.7-5.1c1.9-2.5,5.7-2.4,7.6,0.2c2,2.8,4.1,3.7,5.5,5C28.7,27.2,28.4,29.4,26.8,30.3z"/>
				</g>
			</g>
		</g>
		<g>
			<g>
				<g>
					<path fill="#3E4347" d="M21.7,20.5c0,0.5-0.2,0.9-0.5,1.3c-1.5,2.3-4.9,2.3-6.5,0c-0.3-0.4-0.5-0.9-0.5-1.3
						c0-2.1,1.7-2.9,3.7-2.9C20,17.6,21.7,18.4,21.7,20.5z"/>
				</g>
			</g>
		</g>
		<g>
			<g>
				<g>
					<g>
						<g>
							<ellipse fill="#ACB9C1" cx="23.6" cy="13.2" rx="3.6" ry="4.9"/>
						</g>
					</g>
				</g>
				<g>
					<g>
						<g>
							<path fill="#FFFFFF" d="M20.1,14.1c0.2,2.4,1.8,4.4,3.7,4.3c1.8-0.1,3.2-2.1,3-4.6c-0.2-2.4-1.8-4.4-3.7-4.3
								C21.3,9.6,20,11.6,20.1,14.1z"/>
						</g>
					</g>
				</g>
				<g>
					<g>
						<g>
							<g>
								<path fill="#65B1EF" d="M25.5,14.6c0,1.5-1,2.8-2.2,2.8c-1.2,0-2.2-1.2-2.2-2.8s1-2.8,2.2-2.8
									C24.6,11.8,25.5,13.1,25.5,14.6z"/>
							</g>
						</g>
					</g>
					<g>
						<g>
							<g>
								<path fill="#3E4347" d="M24.7,15c0,0.9-0.6,1.5-1.3,1.5c-0.7,0-1.3-0.7-1.3-1.5c0-0.9,0.6-1.5,1.3-1.5
									C24.1,13.4,24.7,14.1,24.7,15z"/>
							</g>
						</g>
					</g>
				</g>
				<g>
					<g>
						<g>
							<circle fill="#FFFFFF" cx="24.3" cy="14.1" r="0.6"/>
						</g>
					</g>
				</g>
			</g>
			<g>
				<g>
					<g>
						<g>
							<ellipse fill="#ACB9C1" cx="12.4" cy="13.2" rx="3.6" ry="4.9"/>
						</g>
					</g>
				</g>
				<g>
					<g>
						<g>
							<path fill="#FFFFFF" d="M15.9,14.1c-0.2,2.4-1.8,4.4-3.7,4.3c-1.8-0.1-3.2-2.1-3-4.6s1.8-4.4,3.7-4.3
								C14.7,9.6,16,11.6,15.9,14.1z"/>
						</g>
					</g>
				</g>
				<g>
					<g>
						<g>
							<g>
								<path fill="#65B1EF" d="M14.8,14.6c0,1.5-1,2.8-2.2,2.8c-1.2,0-2.2-1.2-2.2-2.8s1-2.8,2.2-2.8
									C13.9,11.8,14.8,13.1,14.8,14.6z"/>
							</g>
						</g>
					</g>
					<g>
						<g>
							<g>
								<path fill="#3E4347" d="M14,15c0,0.9-0.6,1.5-1.3,1.5c-0.7,0-1.3-0.7-1.3-1.5c0-0.9,0.6-1.5,1.3-1.5
									C13.4,13.4,14,14.1,14,15z"/>
							</g>
						</g>
					</g>
				</g>
				<g>
					<g>
						<g>
							<circle fill="#FFFFFF" cx="13.6" cy="14.1" r="0.6"/>
						</g>
					</g>
				</g>
			</g>
		</g>
	</g>
	<g>
		<g>
			<g>
				<ellipse fill="#DAE5EF" cx="18" cy="29.5" rx="5.3" ry="3.8"/>
			</g>
		</g>
	</g>
	<g>
		<g>
			<g>
				<path fill="#BBC7D1" d="M23.1,30.5c-0.3,0.6-0.5,1.1-1.1,1.6c-0.9,0.8-2.3,1.3-4,1.4c-1.6,0-3.1-0.6-4-1.4
					c-0.6-0.5-1-1.2-1.1-1.6c0.2,0.3,0.6,0.8,1.3,1.3c0.8,0.6,2.3,1.1,3.8,1c1.6,0,3.1-0.5,3.8-1C22.3,31.5,22.8,31.1,23.1,30.5z"/>
			</g>
		</g>
	</g>
	<g>
		<g>
			<g>
				<g>
					<g>
						<path fill="#BBC7D1" d="M14,27.4C14,27.4,14,27.4,14,27.4c0,2.1,1.8,3.8,4,3.8s4-1.7,4-3.8c0,0,0,0,0,0
							C19.3,28.3,16.7,28.3,14,27.4z"/>
					</g>
				</g>
			</g>
			<g>
				<g>
					<g>
						<path fill="#31373A" d="M15,27.7c-0.1,1.4,1.2,2.7,3,2.7c1.8,0,3-1.3,3-2.7C19,28.4,17,28.4,15,27.7z"/>
					</g>
				</g>
			</g>
			<g>
				<g>
					<g>
						<path fill="#31373A" d="M14.9,27.7c-0.1,1.5,1.3,2.9,3.1,2.9c1.9,0,3.2-1.4,3.1-2.9C19,28.4,17,28.4,14.9,27.7z"/>
					</g>
				</g>
			</g>
		</g>
		<g>
			<g>
				<g>
					<path fill="#ACB9C1" d="M12.1,25.7c1.2,0.9,2.1,1.5,3.6,1.9c1.5,0.4,3,0.4,4.5,0c1.7-0.5,2.6-1.1,3.6-1.9c-0.8,1-2,2-3.4,2.5
						c-1.6,0.5-3.3,0.6-4.9,0C14.3,27.8,13,26.9,12.1,25.7z"/>
				</g>
			</g>
		</g>
	</g>
	<g>
		<g>
			<g>
				<g>
					<path fill="#ACB9C1" d="M23.1,24.9c0.2,0.2,0.5,0.6,0.8,0.8c0.3,0.2,0.7,0.4,1,0.6c-0.3,0-0.8-0.1-1.2-0.4
						C23.2,25.5,23.1,25.1,23.1,24.9z"/>
				</g>
			</g>
		</g>
		<g>
			<g>
				<g>
					<path fill="#ACB9C1" d="M12.9,24.9c0,0.3-0.1,0.7-0.6,1.1c-0.4,0.3-0.9,0.4-1.2,0.4c0.3-0.2,0.7-0.4,1-0.6
						C12.4,25.5,12.7,25.1,12.9,24.9z"/>
				</g>
			</g>
		</g>
	</g>
	<g>
		<g>
			<g>
				<g>
					<path fill="#E24B4B" d="M20.4,29.9c0.8,6.3-5.6,6.5-4.9,0c0.1-0.6,0.8-1,1.8-0.9c0.3,0,0.6,0,0.8-0.1
						C19.3,28.5,20.2,29,20.4,29.9z"/>
				</g>
			</g>
		</g>
		<g opacity="0.2">
			<g>
				<g>
					<path fill="#FFFFFF" d="M19.4,29.4c-0.1,0.1-0.3,0.2-0.6,0.1c-0.3-0.1-0.5-0.2-0.4-0.3s0.3-0.2,0.6-0.1
						C19.3,29.1,19.5,29.2,19.4,29.4z"/>
				</g>
			</g>
		</g>
	</g>
</g>
</svg>
