<?xml version="1.0" encoding="utf-8"?>
<!-- Generator: Adobe Illustrator 18.0.0, SVG Export Plug-In . SVG Version: 6.00 Build 0)  -->
<!DOCTYPE svg PUBLIC "-//W3C//DTD SVG 1.1//EN" "http://www.w3.org/Graphics/SVG/1.1/DTD/svg11.dtd">
<svg version="1.1" id="Layer_1" xmlns="http://www.w3.org/2000/svg" xmlns:xlink="http://www.w3.org/1999/xlink" x="0px" y="0px"
	 viewBox="0 0 36 36" enable-background="new 0 0 36 36" xml:space="preserve">
<g>
	<g>
		<g>
			<g>
				<g>
					<g>
						<path fill="#6B503B" d="M33.3,6.5c1.2,2.4,0.8,5.1-1.4,6.4s-7.4,1.7-8.6-0.7s2-6.7,4.3-8S32.2,4,33.3,6.5z"/>
					</g>
				</g>
			</g>
			<g>
				<g>
					<g>
						<path fill="#FFE9AB" d="M26.6,10.7c-0.8-1.6,0.1-3.3,1.6-4.6c1.6-1.4,3.6-0.8,4.4,1.2c0.7,1.6,0.1,3.6-1.6,4.6
							C29.3,12.8,27.3,12.3,26.6,10.7z"/>
					</g>
				</g>
			</g>
			<g>
				<g>
					<g>
						<path fill="#FFD68D" d="M27.6,11.1c0.3,0.5,0.7,1,1.2,1.3c-1-0.1-1.8-0.7-2.3-1.6c-0.8-1.6,0.1-3.3,1.6-4.6
							c1-0.9,2.2-1,3.1-0.4c-0.7,0-1.4,0.2-2,0.8C27.8,7.8,26.9,9.5,27.6,11.1z"/>
					</g>
				</g>
			</g>
		</g>
		<g>
			<g>
				<g>
					<g>
						<path fill="#6B503B" d="M2.7,6.5c-1.2,2.4-0.8,5.1,1.4,6.4s7.4,1.7,8.6-0.7s-2-6.7-4.3-8S3.8,4,2.7,6.5z"/>
					</g>
				</g>
			</g>
			<g>
				<g>
					<g>
						<path fill="#FFE9AB" d="M9.4,10.7c0.8-1.6-0.1-3.3-1.6-4.6C6.3,4.7,4.3,5.3,3.5,7.3C2.8,9,3.4,11,5.1,11.9
							C6.7,12.8,8.7,12.3,9.4,10.7z"/>
					</g>
				</g>
			</g>
			<g>
				<g>
					<g>
						<path fill="#FFD68D" d="M8.4,11.1c-0.3,0.5-0.7,1-1.2,1.3c1-0.1,1.8-0.7,2.3-1.6c0.8-1.6-0.1-3.3-1.6-4.6
							c-1-0.9-2.2-1-3.1-0.4c0.7,0,1.4,0.2,2,0.8C8.2,7.8,9.1,9.5,8.4,11.1z"/>
					</g>
				</g>
			</g>
		</g>
	</g>
	<g>
		<g>
			<g>
				<g>
					<g>
						<path fill="#7A5B44" d="M18.2,30.2c-0.1,0-0.3,0-0.4,0c-9.1-0.1-15-9.5-11.6-18c2-5,4.9-8,11.8-8c6.9,0,9.8,3,11.8,8
							C33.2,20.7,27.3,30.1,18.2,30.2z"/>
					</g>
				</g>
			</g>
			<g>
				<g>
					<g>
						<g>
							<path fill="#FFE9AB" d="M24.5,19.4c1.3,1.7,1.9,4,1.5,6.3c-0.6,3.5-3.6,6.2-7.1,6.6c-4.9,0.5-9-3.3-9-8.1
								c0-1.8,0.6-3.5,1.6-4.8c-2.2-0.3-3.8-2.3-3.4-4.6c0.2-1.7,1.6-3,3.2-3.3c1-0.2,1.9,0,2.7,0.5c0.7,0.4,1.5,0.8,2.3,1
								c1.1,0.2,2.2,0.2,3.3,0c0.8-0.2,1.6-0.6,2.3-1c0.8-0.4,1.7-0.6,2.7-0.5c1.7,0.3,3,1.7,3.2,3.3C28.3,17.2,26.7,19.1,24.5,19.4
								z"/>
						</g>
					</g>
				</g>
			</g>
			<g>
				<g>
					<g>
						<g>
							<path fill="#FFD68D" d="M26.1,24.4c-0.1,1.4-0.1,2.1-1,3.8c-1.3,2.3-3.8,4.1-7.1,4.2c-3.4-0.1-6-2-7.1-4.2
								c-0.6-1.1-1-2.6-1-3.8c0.2,1.3,0.6,2.4,1.4,3.6c1.1,1.8,3.6,3.6,6.7,3.6c2.8-0.1,5-1.1,6.7-3.6C26,25.7,25.7,25.9,26.1,24.4z
								"/>
						</g>
					</g>
				</g>
			</g>
			<g>
				<g>
					<g>
						<g>
							<g>
								<g>
									<path fill="#6D4135" d="M18.6,24.2c0-0.8,0.3-1.9,1.1-2c0.2,0,0.5,0.1,0.6,0.3C20.6,23.3,19.3,23.9,18.6,24.2z"/>
								</g>
							</g>
						</g>
						<g>
							<g>
								<g>
									<path fill="#5B331D" d="M20.1,23.2C20,23,19.8,22.9,19.6,23c-0.7,0.1-1,0.8-1,1.2c0-0.8,0.3-1.9,1.1-2
										c0.2,0,0.5,0.1,0.6,0.3C20.4,22.8,20.3,23,20.1,23.2z"/>
								</g>
							</g>
						</g>
					</g>
				</g>
				<g>
					<g>
						<g>
							<g>
								<g>
									<path fill="#6D4135" d="M17.4,24.2c0-0.8-0.3-1.9-1.1-2c-0.2,0-0.5,0.1-0.6,0.3C15.4,23.3,16.7,23.9,17.4,24.2z"/>
								</g>
							</g>
						</g>
						<g>
							<g>
								<g>
									<path fill="#5B331D" d="M15.9,23.2c0.1-0.2,0.3-0.3,0.5-0.2c0.7,0.1,1,0.8,1,1.2c0-0.8-0.3-1.9-1.1-2
										c-0.2,0-0.5,0.1-0.6,0.3C15.6,22.8,15.7,23,15.9,23.2z"/>
								</g>
							</g>
						</g>
					</g>
					<g>
						<g>
							<g>
								<path fill="#FFD68D" d="M17.3,22.2c-0.2-0.2-0.7-0.5-1.2-0.4c-0.5,0.1-0.8,0.7-0.7,1.1c0.2,0.8,0.4,0.7,0.7,1.2
									C15.6,24,15.1,23.5,15,23c-0.2-0.7,0.3-1.3,0.9-1.4C16.6,21.4,17.1,21.8,17.3,22.2z"/>
							</g>
						</g>
						<g>
							<g>
								<path fill="#FFD68D" d="M21,23c-0.1,0.5-0.6,1-0.9,1.1c0.3-0.3,0.6-0.8,0.7-1.2c0.1-0.5-0.2-1-0.7-1.1
									c-0.5-0.1-1.1,0.1-1.2,0.4c0.1-0.4,0.7-0.7,1.3-0.6C20.7,21.6,21.1,22.3,21,23z"/>
							</g>
						</g>
					</g>
				</g>
			</g>
			<g>
				<g>
					<g>
						<path fill="#6D4135" d="M23,28c-0.3,0.8-1.9,1.5-3.4,2c-1,0.3-2.1,0.3-3.2,0c-1.5-0.4-3.1-1.1-3.4-2c-0.2-0.6,0.4-1.1,0.8-0.1
							c0.2,0.4,0.6,0.8,1.1,1.2c1.8,1.2,4.2,1.2,6,0c0.6-0.4,1-0.8,1.2-1.2C22.6,26.9,23.1,27.4,23,28z"/>
					</g>
				</g>
			</g>
		</g>
		<g>
			<g>
				<g>
					<g>
						<g>
							<path fill="#7A5B44" d="M24.9,16.1c0,1.4-1.1,2.5-2.5,2.5c-1.4,0-2.5-1.1-2.5-2.5c0-1.4,1.1-2.5,2.5-2.5
								C23.8,13.7,24.9,14.8,24.9,16.1z"/>
						</g>
					</g>
				</g>
				<g>
					<g>
						<g>
							<g>
								<path fill="#FFFFFF" d="M24.6,16.5c0,1.2-1,2.2-2.2,2.2c-1.2,0-2.2-1-2.2-2.2c0-1.2,1-2.2,2.2-2.2
									C23.6,14.2,24.6,15.2,24.6,16.5z"/>
							</g>
						</g>
					</g>
					<g>
						<g>
							<g>
								<g>
									<path fill="#65B1EF" d="M23.7,16.5c0,0.8-0.6,1.4-1.4,1.4c-0.8,0-1.4-0.6-1.4-1.4c0-0.8,0.6-1.4,1.4-1.4
										C23.1,15.1,23.7,15.7,23.7,16.5z"/>
								</g>
							</g>
						</g>
						<g>
							<g>
								<g>
									<circle fill="#3E4347" cx="22.3" cy="16.5" r="0.7"/>
								</g>
							</g>
						</g>
						<g>
							<g>
								<circle fill="#FFFFFF" cx="22.8" cy="16" r="0.3"/>
							</g>
						</g>
					</g>
				</g>
			</g>
			<g>
				<g>
					<g>
						<g>
							<path fill="#7A5B44" d="M11.1,16.1c0,1.4,1.1,2.5,2.5,2.5c1.4,0,2.5-1.1,2.5-2.5c0-1.4-1.1-2.5-2.5-2.5
								C12.2,13.7,11.1,14.8,11.1,16.1z"/>
						</g>
					</g>
				</g>
				<g>
					<g>
						<g>
							<g>
								<path fill="#FFFFFF" d="M11.4,16.5c0,1.2,1,2.2,2.2,2.2c1.2,0,2.2-1,2.2-2.2c0-1.2-1-2.2-2.2-2.2
									C12.4,14.2,11.4,15.2,11.4,16.5z"/>
							</g>
						</g>
					</g>
					<g>
						<g>
							<g>
								<g>
									<path fill="#65B1EF" d="M15.1,16.5c0,0.8-0.6,1.4-1.4,1.4c-0.8,0-1.4-0.6-1.4-1.4c0-0.8,0.6-1.4,1.4-1.4
										C14.4,15.1,15.1,15.7,15.1,16.5z"/>
								</g>
							</g>
						</g>
						<g>
							<g>
								<g>
									<circle fill="#3E4347" cx="13.7" cy="16.5" r="0.7"/>
								</g>
							</g>
						</g>
						<g>
							<g>
								<circle fill="#FFFFFF" cx="14.2" cy="16" r="0.3"/>
							</g>
						</g>
					</g>
				</g>
			</g>
		</g>
	</g>
</g>
</svg>
