<?xml version="1.0" encoding="utf-8"?>
<!-- Generator: Adobe Illustrator 18.0.0, SVG Export Plug-In . SVG Version: 6.00 Build 0)  -->
<!DOCTYPE svg PUBLIC "-//W3C//DTD SVG 1.1//EN" "http://www.w3.org/Graphics/SVG/1.1/DTD/svg11.dtd">
<svg version="1.1" id="Layer_1" xmlns="http://www.w3.org/2000/svg" xmlns:xlink="http://www.w3.org/1999/xlink" x="0px" y="0px"
	 viewBox="0 0 36 36" enable-background="new 0 0 36 36" xml:space="preserve">
<g>
	<g>
		<g>
			<g>
				<g>
					<g>
						<path fill="#CBD6E0" d="M23.5,13.4c-1-6.5,7.1-10.9,7.8-11.4c1.3,2.1,2.2,11.1-7.2,12.6"/>
					</g>
				</g>
			</g>
			<g>
				<g>
					<g>
						<path fill="#FC97B2" d="M25.6,13.2c0,0-0.6-6,5.3-9.8C31.8,4.7,32,12,25.6,13.2z"/>
					</g>
				</g>
			</g>
			<g>
				<g>
					<path fill="#E88EA7" d="M25.6,13.2c1.6-0.3,2.8-1,3.7-1.9c-0.8,0.1-1.9,0.3-2.6,0.5c0,0,0.3-5.6,4.2-8.3
						C25.1,7.2,25.6,13.2,25.6,13.2z"/>
				</g>
			</g>
		</g>
		<g>
			<g>
				<g>
					<g>
						<path fill="#CBD6E0" d="M12.5,13.4C13.5,6.9,5.4,2.6,4.7,2c-1.3,2.1-2.2,11.1,7.2,12.6"/>
					</g>
				</g>
			</g>
			<g>
				<g>
					<g>
						<path fill="#FC97B2" d="M10.4,13.2c0,0,0.6-6-5.3-9.8C4.2,4.7,4,12,10.4,13.2z"/>
					</g>
				</g>
			</g>
			<g>
				<g>
					<path fill="#E88EA7" d="M10.4,13.2c-1.6-0.3-2.8-1-3.7-1.9c0.8,0.1,1.9,0.3,2.6,0.5c0,0-0.3-5.6-4.2-8.3
						C10.9,7.2,10.4,13.2,10.4,13.2z"/>
				</g>
			</g>
		</g>
	</g>
	<g>
		<g>
			<g>
				<path fill="#DAE5EF" d="M28.3,18.6c-0.2,2.3-1,3.1-1.3,6.5c-0.3,3.4-4.1,6.4-9,6.4c-4.9,0-8.7-2.9-9-6.4
					c-0.3-3.5-1.1-4.2-1.3-6.5C7.3,13,11.9,7.7,18,7.7C24.1,7.7,28.7,13,28.3,18.6z"/>
			</g>
		</g>
	</g>
	<g>
		<g>
			<g>
				<g>
					<g>
						<ellipse fill="#3E4347" cx="22.4" cy="16.8" rx="2.6" ry="3.6"/>
					</g>
				</g>
			</g>
			<g>
				<g>
					<g>
						<path fill="#FFFFFF" d="M24.7,17c-0.1,1.7-1.3,3.2-2.5,3.2S20,18.7,20.1,17c0.1-1.7,1.3-3.2,2.5-3.2S24.9,15.2,24.7,17z"/>
					</g>
				</g>
			</g>
			<g>
				<g>
					<g>
						<path fill="#65B1EF" d="M24,17.3c-0.1,1.2-0.8,2.1-1.7,2.1c-0.8,0-1.5-1-1.4-2.1c0.1-1.2,0.8-2.1,1.7-2.1
							C23.4,15.2,24.1,16.2,24,17.3z"/>
					</g>
				</g>
			</g>
			<g>
				<g>
					<g>
						<path fill="#3E4347" d="M23.2,17.8c0,0.7-0.5,1.2-1,1.2s-0.8-0.5-0.8-1.2c0-0.7,0.5-1.2,1-1.2S23.3,17.1,23.2,17.8z"/>
					</g>
				</g>
			</g>
			<g>
				<g>
					<g>
						<circle fill="#FFFFFF" cx="23" cy="17" r="0.4"/>
					</g>
				</g>
			</g>
		</g>
		<g>
			<g>
				<g>
					<g>
						<ellipse fill="#3E4347" cx="13.6" cy="16.8" rx="2.6" ry="3.6"/>
					</g>
				</g>
			</g>
			<g>
				<g>
					<g>
						<path fill="#FFFFFF" d="M11.3,17c0.1,1.7,1.3,3.2,2.5,3.2s2.2-1.4,2.1-3.2c-0.1-1.7-1.3-3.2-2.5-3.2S11.1,15.2,11.3,17z"/>
					</g>
				</g>
			</g>
			<g>
				<g>
					<g>
						<path fill="#65B1EF" d="M12,17.3c0.1,1.2,0.8,2.1,1.7,2.1c0.8,0,1.5-1,1.4-2.1s-0.8-2.1-1.7-2.1S11.9,16.2,12,17.3z"/>
					</g>
				</g>
			</g>
			<g>
				<g>
					<g>
						<path fill="#3E4347" d="M12.8,17.8c0,0.7,0.5,1.2,1,1.2s0.8-0.5,0.8-1.2c0-0.7-0.5-1.2-1-1.2C13.1,16.6,12.7,17.1,12.8,17.8z"
							/>
					</g>
				</g>
			</g>
			<g>
				<g>
					<g>
						<circle fill="#FFFFFF" cx="13" cy="17" r="0.4"/>
					</g>
				</g>
			</g>
		</g>
	</g>
	<g>
		<g>
			<g>
				<g>
					<path fill="#3E4347" d="M15,10.3c0.8,1.1,1.3,2.4,1.3,2.4s0-1.4-0.5-2.8c-0.2-0.8-0.5-1.3-0.8-1.8c-0.5,0.2-1.1,0.4-1.6,0.6
						C13.9,9.1,14.3,9.4,15,10.3z"/>
				</g>
			</g>
			<g>
				<g>
					<path fill="#3E4347" d="M20.8,8.1c-0.3,0.4-0.5,0.9-0.7,1.8c-0.4,1.4-0.3,2.8-0.3,2.8s0.4-1.3,1.1-2.5c0.6-0.9,1-1.3,1.4-1.6
						C21.8,8.4,21.3,8.2,20.8,8.1z"/>
				</g>
			</g>
		</g>
	</g>
	<g>
		<g>
			<path fill="#3E4347" d="M19.8,7.8c-0.6-0.1-1.2-0.2-1.8-0.2c-0.7,0-1.3,0.1-1.9,0.2c0.3,0.3,0.6,0.7,0.8,1.3
				c0.5,1.2,0.9,3.3,1,7.2c0.1-3.9,0.5-6,1-7.2C19.2,8.5,19.5,8.1,19.8,7.8z"/>
		</g>
	</g>
	<g>
		<g>
			<g>
				<g>
					<g>
						<path fill="#3E4347" d="M27.5,17.4c0.3-0.4,0.5-0.8,0.7-1.1c-0.1-0.6-0.3-1.3-0.5-1.9c-0.1,0.8-0.4,1.8-0.8,2.7
							c-0.7,1.4-1.2,1.9-2,2.8C25.7,19.3,26.5,18.7,27.5,17.4z"/>
					</g>
				</g>
				<g>
					<g>
						<path fill="#3E4347" d="M28.3,18.6c0-0.1,0-0.1,0-0.2c-0.1,0.2-0.3,0.5-0.6,0.8c-0.6,0.7-1.4,1.2-1.4,1.2s0.9-0.2,1.7-0.6
							C28.2,19.5,28.2,19.1,28.3,18.6z"/>
					</g>
				</g>
				<g>
					<g>
						<path fill="#3E4347" d="M9.2,20.4c0,0-0.8-0.5-1.4-1.2c0,0,0,0,0,0c0,0.3,0.1,0.6,0.2,0.9C8.6,20.3,9.2,20.4,9.2,20.4z"/>
					</g>
				</g>
				<g>
					<g>
						<path fill="#3E4347" d="M10.3,20.9c-0.4,0.1-1.1,0.6-1.7,1.3c0.1,0.4,0.2,0.8,0.3,1.2c0-0.2,0.1-0.3,0.1-0.5
							C9.2,22.1,9.8,21.3,10.3,20.9z"/>
					</g>
				</g>
				<g>
					<g>
						<path fill="#3E4347" d="M8.3,14.5c-0.2,0.6-0.4,1.3-0.5,2c0.1,0.3,0.3,0.6,0.5,0.9c0.6,0.9,1.5,2,2.4,2.6
							c-0.9-1-1.5-2-1.8-2.9C8.6,16.2,8.4,15.3,8.3,14.5z"/>
					</g>
				</g>
				<g>
					<g>
						<path fill="#3E4347" d="M27.4,22.3c-0.8-0.8-1.8-1.3-2.2-1.4c0.7,0.4,1.3,1.2,1.7,1.9c0.1,0.2,0.2,0.5,0.3,0.7
							C27.2,23.1,27.3,22.7,27.4,22.3z"/>
					</g>
				</g>
			</g>
		</g>
	</g>
	<g>
		<g>
			<g>
				<g>
					<path fill="#5A5F63" d="M26.5,28c0.1,3.6-3.3,6-8.5,6c-5.2,0-8.6-2.3-8.5-6c-0.1-3.6,3.3-6,8.5-6C23.2,22,26.6,24.4,26.5,28z"
						/>
				</g>
			</g>
		</g>
		<g>
			<g>
				<g>
					<path fill="#3E4347" d="M14.2,28.7c0.4,2.3,1.9,4,3.8,4s3.4-1.7,3.8-4C19.4,29.8,16.8,29.8,14.2,28.7z"/>
				</g>
			</g>
		</g>
		<g>
			<g>
				<g>
					<path fill="#31373A" d="M15.2,29.3c0.3,1.5,1.4,2.6,2.8,2.6c1.4,0,2.5-1.1,2.8-2.6C19,30,17.1,30,15.2,29.3z"/>
				</g>
			</g>
		</g>
		<g>
			<g>
				<g>
					<g>
						<path fill="#3E4347" d="M12.2,27.4c0.4,0.2,1.4,0.7,1.8,0.9c1.7,0.7,2.7,0.9,4,0.9c1.5,0,2.9-0.5,4-0.9
							c0.4-0.1,1.4-0.7,1.8-0.9c-0.7,0.7-1.2,1.1-1.5,1.3c-1.4,0.9-2.7,1.3-4.2,1.4c-1.5-0.1-2.9-0.4-4.2-1.4
							C13.2,28.4,12.7,27.9,12.2,27.4z"/>
					</g>
				</g>
			</g>
		</g>
		<g>
			<g>
				<g>
					<path fill="#E24B4B" d="M19.8,31.1c-0.1-0.3-0.4-0.6-0.6-0.8c-0.3-0.2-0.6-0.2-0.9,0c-0.1,0.1-0.3,0.1-0.5,0.1
						c-0.1,0-0.1,0-0.2,0c-0.5-0.1-1,0.1-1.3,0.5c-0.1,0.1-0.1,0.2-0.1,0.3c0.5,0.4,1.1,0.7,1.7,0.7C18.7,31.9,19.3,31.6,19.8,31.1z
						"/>
				</g>
			</g>
			<g opacity="0.2">
				<g>
					<g>
						<path fill="#FFFFFF" d="M19.2,30.7c0,0.1-0.2,0.1-0.4,0.1c-0.2-0.1-0.3-0.2-0.3-0.3c0-0.1,0.2-0.1,0.4-0.1
							C19.1,30.5,19.2,30.6,19.2,30.7z"/>
					</g>
				</g>
			</g>
		</g>
		<g>
			<g>
				<g>
					<g>
						<g>
							<path fill="#5A5F63" d="M23.9,25.5c-1.1,1.1-2.6,1.4-3.3,0.7c-0.7-0.7-0.4-2.2,0.7-3.3s2.6-1.4,3.3-0.7
								C25.3,22.9,24.9,24.4,23.9,25.5z"/>
						</g>
					</g>
				</g>
				<g>
					<g>
						<g>
							<path fill="#3E4347" d="M25,23.8c-0.1,0.4-0.4,0.8-0.6,1c0.2-0.4,0.2-0.5,0.3-1c0.1-0.7-0.1-1.5-0.8-1.7
								c-0.8-0.2-1.6,0.2-2.1,0.5c-0.4,0.3-0.5,0.4-0.8,0.7c0.2-0.3,0.4-0.6,0.7-0.9c0.7-0.6,1.5-1,2.4-0.8
								C24.8,21.8,25.4,22.6,25,23.8z"/>
						</g>
					</g>
				</g>
				<g>
					<g>
						<g>
							<g>
								<path fill="#3E4347" d="M23.5,24.5c-0.5,0.5-1.7,0.8-1.9,0.6c-0.2-0.2,0.1-1.3,0.6-1.9c0.5-0.5,1.2-0.6,1.5-0.2
									C24.1,23.4,24.1,24,23.5,24.5z"/>
							</g>
						</g>
					</g>
					<g>
						<g>
							<g>
								<path fill="#31373A" d="M23.9,24c0,0-0.1-0.1-0.1-0.1c-0.3-0.3-1-0.3-1.5,0.2c-0.3,0.3-0.5,0.7-0.6,1.1c0,0-0.1,0-0.1,0
									c-0.2-0.2,0.1-1.3,0.6-1.9c0.5-0.5,1.2-0.6,1.5-0.2C24,23.3,24,23.6,23.9,24z"/>
							</g>
						</g>
					</g>
				</g>
			</g>
			<g>
				<g>
					<g>
						<g>
							<path fill="#5A5F63" d="M12.1,25.5c1.1,1.1,2.6,1.4,3.3,0.7c0.7-0.7,0.4-2.2-0.7-3.3s-2.6-1.4-3.3-0.7
								C10.7,22.9,11.1,24.4,12.1,25.5z"/>
						</g>
					</g>
				</g>
				<g>
					<g>
						<g>
							<path fill="#3E4347" d="M11,23.8c0.1,0.4,0.4,0.8,0.6,1c-0.2-0.4-0.2-0.5-0.3-1c-0.1-0.7,0.1-1.5,0.8-1.7
								c0.8-0.2,1.6,0.2,2.1,0.5c0.4,0.3,0.5,0.4,0.8,0.7c-0.2-0.3-0.4-0.6-0.7-0.9c-0.7-0.6-1.5-1-2.4-0.8
								C11.2,21.8,10.6,22.6,11,23.8z"/>
						</g>
					</g>
				</g>
				<g>
					<g>
						<g>
							<g>
								<path fill="#3E4347" d="M12.5,24.5c0.5,0.5,1.7,0.8,1.9,0.6c0.2-0.2-0.1-1.3-0.6-1.9c-0.5-0.5-1.2-0.6-1.5-0.2
									C11.9,23.4,11.9,24,12.5,24.5z"/>
							</g>
						</g>
					</g>
					<g>
						<g>
							<g>
								<path fill="#31373A" d="M12.1,24c0,0,0.1-0.1,0.1-0.1c0.3-0.3,1-0.3,1.5,0.2c0.3,0.3,0.5,0.7,0.6,1.1c0,0,0.1,0,0.1,0
									c0.2-0.2-0.1-1.3-0.6-1.9c-0.5-0.5-1.2-0.6-1.5-0.2C12,23.3,12,23.6,12.1,24z"/>
							</g>
						</g>
					</g>
				</g>
			</g>
		</g>
	</g>
</g>
</svg>
