<?xml version="1.0" encoding="utf-8"?>
<!-- Generator: Adobe Illustrator 18.0.0, SVG Export Plug-In . SVG Version: 6.00 Build 0)  -->
<!DOCTYPE svg PUBLIC "-//W3C//DTD SVG 1.1//EN" "http://www.w3.org/Graphics/SVG/1.1/DTD/svg11.dtd">
<svg version="1.1" id="Layer_1" xmlns="http://www.w3.org/2000/svg" xmlns:xlink="http://www.w3.org/1999/xlink" x="0px" y="0px"
	 viewBox="0 0 36 36" enable-background="new 0 0 36 36" xml:space="preserve">
<g id="XMLID_992_">
	<g id="XMLID_998_">
		<g id="XMLID_1001_">
			<g>
				<path fill="#FFD83B" d="M34,17.3c-1,2.2-2,2.5-2,2.5c1.7-1.9,1.2-3.7,1.2-3.7c-0.1,0.2-0.3,0.5-0.4,0.7
					c-1.8,2.5-5.2,3.4-8.1,2.3c-1.3-0.5-2.4-1-7.3-1.3c2.9-1.4,4.8-4.7,3.8-8.3C22.2,9,23,8,23,8c-0.6,0.4-1.9,0-1.9,0
					C22.7,7.1,22.8,6,22.8,6c-1.9,1.4-3.5,0.3-3.5,0.3s0,0,0,0c-4.5-4.7-12.5-1.5-12.5,5c0,2.2,1,4.1,2.5,5.4c-0.1,0.5,0,1,0,1
					c-2.9,1.9-3.7,4.5-3.9,6.4c-0.5,4.6,3.6,7.5,7.6,7.7h9.9C31.2,31.9,34.5,19.1,34,17.3z"/>
			</g>
		</g>
		<g id="XMLID_1000_">
			<g>
				<path fill="#E8AF2A" d="M26.5,21.7c0,0-3.6,4.7-10.6,0c0,0-5.8-2-4.9,3.9c0.5,2.9,3.4,4.3,6.6,4.1c4.1-0.2,7.6-3.3,8.8-7.2
					L26.5,21.7z"/>
			</g>
		</g>
		<g id="XMLID_999_">
			<g>
				<path fill="#E14B4B" d="M7.4,8.7c0,0-0.6,1.3-3.3,0.7s-1.9,1.2-1.9,1.2s0.5,1.2,1.8,2.2c0,0-2,0.8-0.4,1.8c0,0,1.5,0.8,4.3,0.5
					c0,0,0.5-0.7-0.5-2.9C6.5,10.3,7.4,8.7,7.4,8.7z"/>
			</g>
		</g>
	</g>
	<g id="XMLID_993_">
		<g id="XMLID_994_">
			<g id="XMLID_997_">
				<g>
					<circle fill="#FFFFFF" cx="9.9" cy="11" r="1.5"/>
				</g>
			</g>
			<g id="XMLID_996_">
				<g>
					<circle fill="#2F3133" cx="9.9" cy="11" r="0.9"/>
				</g>
			</g>
			<g id="XMLID_995_">
				<g>
					<circle fill="#FFFFFF" cx="9.3" cy="10.3" r="0.4"/>
				</g>
			</g>
		</g>
	</g>
</g>
</svg>
