<?xml version="1.0" encoding="utf-8"?>
<!-- Generator: Adobe Illustrator 18.0.0, SVG Export Plug-In . SVG Version: 6.00 Build 0)  -->
<!DOCTYPE svg PUBLIC "-//W3C//DTD SVG 1.1//EN" "http://www.w3.org/Graphics/SVG/1.1/DTD/svg11.dtd">
<svg version="1.1" id="Layer_1" xmlns="http://www.w3.org/2000/svg" xmlns:xlink="http://www.w3.org/1999/xlink" x="0px" y="0px"
	 viewBox="0 0 36 36" enable-background="new 0 0 36 36" xml:space="preserve">
<g id="XMLID_934_">
	<g id="XMLID_954_">
		<g id="XMLID_956_">
			<g>
				<path fill="#DAE5EF" d="M33.5,18.8c-0.2-5.9-4.3-8.4-8.7-7.5l-0.6,0.1l0,0.6C24.3,16.4,27.6,20,33.5,18.8z"/>
			</g>
		</g>
		<g id="XMLID_955_">
			<g>
				<path fill="#ABB8C1" d="M25.1,12.3c0.1,1.7,0.8,3.2,2,4.1c1.2,0.9,2.8,1.3,4.5,1c-0.1-1.7-0.8-3.2-2-4.1
					C28.3,12.3,26.8,12,25.1,12.3z"/>
			</g>
		</g>
	</g>
	<g id="XMLID_953_">
		<g>
			<path fill="#DAE5EF" d="M2.5,18.8c0.2-5.9,4.3-8.4,8.7-7.5l0.6,0.1l0,0.6C11.7,16.4,8.4,20,2.5,18.8z"/>
		</g>
	</g>
	<g id="XMLID_952_">
		<g>
			<path fill="#ABB8C1" d="M10.9,12.3c-0.1,1.7-0.8,3.2-2,4.1c-1.2,0.9-2.8,1.3-4.5,1c0.1-1.7,0.8-3.2,2-4.1S9.2,12,10.9,12.3z"/>
		</g>
	</g>
	<g id="XMLID_950_">
		<g id="XMLID_951_">
			<g>
				<path fill="#997960" d="M29.6,2.8c-0.1-1-1.5-1.1-1.9-0.2c-1.6,4.2-5.3,7.7-9.8,7.7c-4.4,0-8.2-3.5-9.8-7.7
					C7.9,1.7,6.5,1.8,6.4,2.8c-0.1,0.9-0.1,1.9,0,2.9c0.7,5.4,5.1,9.7,10.4,10.2c7,0.7,12.9-4.8,12.9-11.6
					C29.7,3.8,29.7,3.3,29.6,2.8z"/>
			</g>
		</g>
	</g>
	<g id="XMLID_949_">
		<g>
			<path fill="#DAE5EF" d="M25.9,30.2c1.2-5.5,1.8-10.9,1.6-16.1c-0.1-2.2-1.7-4.1-3.9-4.5c-3.8-0.6-7.5-0.6-11.3,0
				c-2.2,0.4-3.9,2.2-3.9,4.5c-0.2,5.2,0.5,10.6,1.6,16.1H25.9z"/>
		</g>
	</g>
	<g id="XMLID_948_">
		<g>
			<ellipse fill="#A4856D" cx="18.2" cy="28.2" rx="9.9" ry="5.8"/>
		</g>
	</g>
	<g id="XMLID_947_">
		<g>
			<path fill="#5B5F63" d="M23.7,9.7c-1.3-0.2-2.7-0.3-4-0.4c-0.9,1.3-1.5,2.9-1.5,4.8c0,4,2.7,7.3,5.9,7.3c1.2,0,2.4-0.5,3.3-1.3
				c0.1-2,0.2-3.9,0.1-5.9C27.5,12,25.9,10.1,23.7,9.7z"/>
		</g>
	</g>
	<g id="XMLID_944_">
		<g id="XMLID_946_">
			<g>
				<path fill="#8E6D53" d="M24.7,27.4C24.6,27.1,24.3,27,24,27c0,0,0,0,0,0c0,0,0,0-0.1,0c0,0-0.1,0-0.1,0c-0.1,0-0.1,0-0.2,0
					c0,0,0,0,0,0c-1.3,0.2-2.3,1.3-2.3,2.6c0,0.1,0.1,0.2,0.2,0.2c0.1,0,0.2-0.1,0.2-0.2c0-0.4,0.1-0.7,0.3-1
					c0.3,0.3,0.9,0.4,1.7,0.1C24.4,28.4,24.9,27.8,24.7,27.4z"/>
			</g>
		</g>
		<g id="XMLID_945_">
			<g>
				<path fill="#8E6D53" d="M11.6,27.4c0.1-0.2,0.4-0.4,0.7-0.4c0,0,0,0,0,0c0,0,0,0,0.1,0c0,0,0.1,0,0.1,0c0.1,0,0.1,0,0.2,0
					c0,0,0,0,0,0c1.3,0.2,2.3,1.3,2.3,2.6c0,0.1-0.1,0.2-0.2,0.2s-0.2-0.1-0.2-0.2c0-0.4-0.1-0.7-0.3-1c-0.3,0.3-0.9,0.4-1.7,0.1
					C12,28.4,11.5,27.8,11.6,27.4z"/>
			</g>
		</g>
	</g>
	<g id="XMLID_935_">
		<g id="XMLID_940_">
			<g id="XMLID_943_">
				<g>
					<circle fill="#FFFFFF" cx="13" cy="17" r="2"/>
				</g>
			</g>
			<g id="XMLID_942_">
				<g>
					<circle fill="#3F4347" cx="13" cy="17" r="1.3"/>
				</g>
			</g>
			<g id="XMLID_941_">
				<g>
					<circle fill="#FFFFFF" cx="12.1" cy="16.1" r="0.6"/>
				</g>
			</g>
		</g>
		<g id="XMLID_936_">
			<g id="XMLID_939_">
				<g>
					<circle fill="#FFFFFF" cx="23" cy="17" r="2"/>
				</g>
			</g>
			<g id="XMLID_938_">
				<g>
					<circle fill="#3F4347" cx="23" cy="17" r="1.3"/>
				</g>
			</g>
			<g id="XMLID_937_">
				<g>
					<circle fill="#FFFFFF" cx="22.2" cy="16.1" r="0.6"/>
				</g>
			</g>
		</g>
	</g>
</g>
</svg>
