<?xml version="1.0" encoding="utf-8"?>
<!-- Generator: Adobe Illustrator 18.0.0, SVG Export Plug-In . SVG Version: 6.00 Build 0)  -->
<!DOCTYPE svg PUBLIC "-//W3C//DTD SVG 1.1//EN" "http://www.w3.org/Graphics/SVG/1.1/DTD/svg11.dtd">
<svg version="1.1" id="Layer_1" xmlns="http://www.w3.org/2000/svg" xmlns:xlink="http://www.w3.org/1999/xlink" x="0px" y="0px"
	 viewBox="0 0 36 36" enable-background="new 0 0 36 36" xml:space="preserve">
<g>
	<g>
		<g>
			<g>
				<g>
					<g>
						<g>
							<g>
								<path fill="#F29A2E" d="M30.6,15.5c0-0.3-0.3-0.6-0.6-0.8c0.3,1.1,0.2,2.4,0,3.5c-0.2-0.3-0.5-0.6-0.7-0.9
									c0.2,1.9-0.3,3.9-1.3,5.5c0.1-0.5,0-1-0.2-1.5c-0.5,2.1-1.6,4.1-3.3,5.7c0,0,0.1-0.8-0.3-1.4c-0.6,1.2-2,2.1-3.2,2.8
									c0.1-0.3,0.1-0.6-0.1-0.9c-0.3,0.7-0.7,1.4-1.3,2.1c0-0.5-0.2-0.9-0.6-1.2c-0.1,0.7-0.7,1-1,1.1c0,0,0,0-0.1,0
									c0,0,0,0-0.1,0c-0.3-0.1-0.9-0.4-1-1.1c-0.5,0.2-0.6,0.7-0.6,1.2c-0.6-0.7-1-1.4-1.3-2.1c-0.2,0.3-0.2,0.5-0.1,0.9
									c-1.2-0.7-2.6-1.6-3.2-2.8c-0.4,0.5-0.3,1.4-0.3,1.4c-1.6-1.5-2.8-3.5-3.3-5.7c-0.2,0.4-0.3,1-0.2,1.5
									c-1.1-1.6-1.5-3.6-1.3-5.5C6.4,17.7,6.2,18,6,18.2c-0.3-1.1-0.3-2.4,0-3.5c-0.3,0.1-0.6,0.5-0.6,0.8c-0.4-2.1,0.8-4,2.4-5.4
									L7.2,9.9c0,0,2.3-1.8,4.7-2.4c0,0-0.7-0.3-1.5,0c0,0,1.2-1,2.9-1.2c0,0-1.1-0.6-1.5-1.4c0,0,1.8,1.4,3.4,1.4
									c0,0-1-0.7-1.1-1.4c0,0,1.5,0.5,2.2,2c0,0,1.3-2.3,3.3-2.4c-0.8,0.4-1.5,1.3-1.5,2.4c1.2-0.9,2.5-1.7,3.9-2l-1.1,1.4
									c1.5-0.1,3.4-1.4,3.4-1.4c-0.4,0.8-1.5,1.4-1.5,1.4c1.7,0.2,2.9,1.2,2.9,1.2c-0.8-0.3-1.5,0-1.5,0c2.4,0.7,4.5,2.7,4.5,2.7
									l-0.5,0C29.7,11.7,31,13.4,30.6,15.5z"/>
							</g>
						</g>
					</g>
					<g>
						<g>
							<g>
								<path fill="#E18823" d="M24.2,10.5c0.2,0.3,0.4,0.7,0.5,1.1c-0.8-0.6-1.8-0.9-2.8-0.9c0.5,0.1,1,0.3,1.5,0.8
									c-2.5,0.6-4.8,2.3-6.1,4.6c-0.3-1.3-0.7-2.6-1.5-3.6c-0.8-1-2.2-1.7-3.4-1.3c0.6-0.5,1.4-0.7,2.1-0.8
									c-1.1-0.4-2.4-0.4-3.5,0c1.1-1.4,3-2.1,4.7-1.6c-0.3-0.6-0.7-1-1.2-1.3c0.6,0.1,1.2,0.2,1.8,0.6c0.5,0.3,1,0.9,1,1.5
									C18,8.7,19,7.9,20,7.3c0,0.7,0,1.5,0,2.3c0.6-1,1.8-1.7,3-1.8c-0.2,0.3-0.3,0.6-0.4,1C24,9,25.4,9.9,26,11.1
									C25.6,10.6,24.9,10.4,24.2,10.5z"/>
							</g>
						</g>
					</g>
				</g>
			</g>
			<g>
				<g>
					<g>
						<path fill="#FFE9AB" d="M26,23.6c0,4.4-3.6,8-8,8c-4.4,0-8-3.6-8-8c0-1.5,0.4-3,1.2-4.2c-0.4-0.6-0.6-1.2-0.8-1.9
							c-0.8-3.5,0.5-5.3,2.9-5.7c1.7-0.3,3.6,0.4,4.7,2.6c1-2.2,2.9-3,4.7-2.6c2.4,0.4,3.7,2.2,2.9,5.7c-0.2,0.7-0.4,1.3-0.8,1.9
							C25.6,20.5,26,22,26,23.6z"/>
					</g>
				</g>
			</g>
			<g>
				<g>
					<g>
						<g>
							<g>
								<path fill="#FFD68D" d="M24.3,16.6c-0.1,1.7-1.3,2.9-2.6,2.9c-1.3,0-2.3-1.1-2.2-2.9s1.3-3.1,2.6-3.1
									C23.4,13.5,24.4,14.9,24.3,16.6z"/>
							</g>
						</g>
					</g>
					<g>
						<g>
							<g>
								<path fill="#FFFFFF" d="M23.7,16.8c0,1.5-0.8,2.4-1.9,2.4s-1.9-1-1.9-2.4c0-1.5,0.8-2.7,1.9-2.7S23.7,15.4,23.7,16.8z"/>
							</g>
						</g>
					</g>
					<g>
						<g>
							<g>
								<g>
									<path fill="#65B1EF" d="M23,17.2c0,0.8-0.6,1.5-1.3,1.5c-0.7,0-1.3-0.6-1.3-1.5c0-0.8,0.6-1.5,1.3-1.5
										C22.4,15.8,23,16.4,23,17.2z"/>
								</g>
							</g>
						</g>
						<g>
							<g>
								<g>
									<ellipse fill="#3E4347" cx="21.7" cy="17.3" rx="0.7" ry="0.8"/>
								</g>
							</g>
						</g>
						<g>
							<g>
								<circle fill="#FFFFFF" cx="22.2" cy="16.8" r="0.3"/>
							</g>
						</g>
					</g>
				</g>
				<g>
					<g>
						<g>
							<g>
								<path fill="#FFD68D" d="M11.8,16.6c0.1,1.7,1.3,2.9,2.6,2.9s2.3-1.1,2.2-2.9s-1.3-3.1-2.6-3.1S11.7,14.9,11.8,16.6z"/>
							</g>
						</g>
					</g>
					<g>
						<g>
							<g>
								<path fill="#FFFFFF" d="M12.4,16.8c0,1.5,0.8,2.4,1.9,2.4s1.9-1,1.9-2.4c0-1.5-0.8-2.7-1.9-2.7S12.4,15.4,12.4,16.8z"/>
							</g>
						</g>
					</g>
					<g>
						<g>
							<g>
								<g>
									<path fill="#65B1EF" d="M15.7,17.2c0,0.8-0.6,1.5-1.3,1.5c-0.7,0-1.3-0.6-1.3-1.5c0-0.8,0.6-1.5,1.3-1.5
										C15.1,15.8,15.7,16.4,15.7,17.2z"/>
								</g>
							</g>
						</g>
						<g>
							<g>
								<g>
									<ellipse fill="#3E4347" cx="14.4" cy="17.3" rx="0.7" ry="0.8"/>
								</g>
							</g>
						</g>
						<g>
							<g>
								<circle fill="#FFFFFF" cx="14.9" cy="16.8" r="0.3"/>
							</g>
						</g>
					</g>
				</g>
			</g>
		</g>
		<g>
			<g>
				<g>
					<g>
						<g>
							<g>
								<path fill="#E18823" d="M33.3,9.6C32.1,7.7,30,7,28.1,8.2c-1.1,0.7-2.3,2.3-3,3.9c0.5,0.3,1,0.8,1.4,1.3
									c0.7,0.9,1.2,1.8,1.5,2.9c1.6-0.1,3.3-0.7,4.3-1.3C34.2,13.7,34.5,11.4,33.3,9.6z"/>
							</g>
						</g>
					</g>
					<g>
						<g>
							<g>
								<path fill="#FFE9AB" d="M32.8,10.3c0.8,1.2,0.7,2.7-0.6,3.5c-1.2,0.8-3.2,0.6-4-0.6c-0.8-1.2-0.1-3.1,1.2-3.8
									C30.6,8.5,32,9.1,32.8,10.3z"/>
							</g>
						</g>
					</g>
					<g>
						<g>
							<g>
								<path fill="#FFD68D" d="M33.1,10.9c-0.8-1-2-1.4-3.1-0.7c-1,0.6-1.7,2.1-1.4,3.2c-0.1-0.1-0.2-0.2-0.3-0.3
									c-0.8-1.2-0.1-3.1,1.2-3.8c1.2-0.8,2.6-0.2,3.4,1C32.9,10.5,33,10.7,33.1,10.9z"/>
							</g>
						</g>
					</g>
				</g>
				<g>
					<g>
						<g>
							<path fill="#F29A2E" d="M27.1,13.6c0.3,0,0.5,0.1,0.8,0.1c-0.7-0.9-2.6-2.6-3.5-1.7c0.6,0.6,2.2,2.4,2.9,5.4
								c0.4,0.1,0.8,0.2,1.1,0.4C28.4,16.5,28.5,14.6,27.1,13.6z"/>
						</g>
					</g>
				</g>
			</g>
			<g>
				<g>
					<g>
						<g>
							<g>
								<path fill="#E18823" d="M2.7,9.6C3.9,7.7,6,7,7.9,8.2c1.1,0.7,2.3,2.3,3,3.9c-0.5,0.3-1,0.8-1.4,1.3
									c-0.7,0.9-1.2,1.8-1.5,2.9c-1.6-0.1-3.3-0.7-4.3-1.3C1.8,13.7,1.5,11.4,2.7,9.6z"/>
							</g>
						</g>
					</g>
					<g>
						<g>
							<g>
								<path fill="#FFE9AB" d="M3.2,10.3c-0.8,1.2-0.7,2.7,0.6,3.5c1.2,0.8,3.2,0.6,4-0.6s0.1-3.1-1.2-3.8C5.4,8.5,4,9.1,3.2,10.3z
									"/>
							</g>
						</g>
					</g>
					<g>
						<g>
							<g>
								<path fill="#FFD68D" d="M2.9,10.9c0.8-1,2-1.4,3.1-0.7c1,0.6,1.7,2.1,1.4,3.2c0.1-0.1,0.2-0.2,0.3-0.3
									c0.8-1.2,0.1-3.1-1.2-3.8c-1.2-0.8-2.6-0.2-3.4,1C3.1,10.5,3,10.7,2.9,10.9z"/>
							</g>
						</g>
					</g>
				</g>
				<g>
					<g>
						<g>
							<path fill="#F29A2E" d="M8.9,13.6c-0.3,0-0.5,0.1-0.8,0.1c0.7-0.9,2.6-2.6,3.5-1.7c-0.6,0.6-2.2,2.4-2.9,5.4
								c-0.4,0.1-0.8,0.2-1.1,0.4C7.6,16.5,7.5,14.6,8.9,13.6z"/>
						</g>
					</g>
				</g>
			</g>
		</g>
	</g>
	<g>
		<g>
			<g>
				<path fill="#6D4135" d="M12.9,25.3c0.2,0.6,0.7,1.2,1.1,1.8c1,1.1,2.4,1.8,4,1.8c1.6,0,3.1-0.7,4-1.8c0.5-0.5,0.9-1.1,1.1-1.8
					c-0.1,0.5-0.4,1.4-0.9,2c-1.1,1.3-2.4,2.1-4.2,2.1c-1.9-0.1-3.2-0.8-4.3-2.1C13.3,26.6,13,25.8,12.9,25.3z"/>
			</g>
		</g>
	</g>
	<g>
		<g>
			<g>
				<g>
					<g>
						<path fill="#FFD68D" d="M18.4,23.5c0,0,0-0.5,0.4-1c0.2-0.3,0.6-0.5,1.1-0.5c0.4,0.1,0.8,0.4,1,1c0.2,1-0.4,1.8-0.9,2.3
							c-0.3,0.3-0.6,0.5-0.9,0.6c0,0,0.4-0.2,0.8-0.7c0.5-0.5,0.9-1.4,0.7-2.1c-0.1-0.4-0.4-0.7-0.7-0.8c-0.4-0.1-0.7,0.1-0.9,0.3
							C18.7,22.9,18.5,23.2,18.4,23.5z"/>
					</g>
				</g>
			</g>
			<g>
				<g>
					<g>
						<g>
							<path fill="#6D4135" d="M20.3,24.1c-0.2,0.4-1.2,1.3-1.4,1.2c-0.2-0.1-0.2-1.4,0-1.8c0.2-0.4,0.7-0.6,1.1-0.5
								C20.3,23.1,20.5,23.6,20.3,24.1z"/>
						</g>
					</g>
				</g>
				<g>
					<g>
						<g>
							<path fill="#633B2A" d="M20.3,24.1C20.3,24.1,20.3,24.1,20.3,24.1c-0.1-0.1-0.2-0.3-0.4-0.4c-0.3-0.2-0.8,0-0.9,0.4
								c-0.1,0.2-0.1,0.8-0.1,1.1c-0.2-0.2-0.2-1.4,0-1.8c0.2-0.4,0.7-0.6,1.1-0.5C20.3,23.1,20.5,23.6,20.3,24.1z"/>
						</g>
					</g>
				</g>
			</g>
		</g>
		<g>
			<g>
				<g>
					<g>
						<path fill="#FFD68D" d="M17.6,23.5c-0.1-0.4-0.3-0.6-0.5-0.9c-0.2-0.2-0.6-0.4-0.9-0.3c-0.4,0.1-0.7,0.4-0.7,0.8
							c-0.1,0.7,0.2,1.6,0.7,2.1c0.4,0.5,0.8,0.7,0.8,0.7c-0.3-0.1-0.7-0.3-0.9-0.6c-0.5-0.5-1-1.3-0.9-2.3c0.1-0.6,0.5-0.9,1-1
							c0.5-0.1,0.9,0.2,1.1,0.5C17.6,23.1,17.6,23.5,17.6,23.5z"/>
					</g>
				</g>
			</g>
			<g>
				<g>
					<g>
						<g>
							<path fill="#6D4135" d="M15.7,24.1c0.2,0.4,1.2,1.3,1.4,1.2c0.2-0.1,0.2-1.4,0-1.8c-0.2-0.4-0.7-0.6-1.1-0.5
								C15.7,23.1,15.5,23.6,15.7,24.1z"/>
						</g>
					</g>
				</g>
				<g>
					<g>
						<g>
							<path fill="#633B2A" d="M15.7,24.1C15.7,24.1,15.7,24.1,15.7,24.1c0.1-0.1,0.2-0.3,0.4-0.4c0.3-0.2,0.8,0,0.9,0.4
								c0.1,0.2,0.1,0.8,0.1,1.1c0.2-0.2,0.2-1.4,0-1.8c-0.2-0.4-0.7-0.6-1.1-0.5C15.7,23.1,15.5,23.6,15.7,24.1z"/>
						</g>
					</g>
				</g>
			</g>
		</g>
	</g>
</g>
</svg>
