<?xml version="1.0" encoding="utf-8"?>
<!-- Generator: Adobe Illustrator 18.0.0, SVG Export Plug-In . SVG Version: 6.00 Build 0)  -->
<!DOCTYPE svg PUBLIC "-//W3C//DTD SVG 1.1//EN" "http://www.w3.org/Graphics/SVG/1.1/DTD/svg11.dtd">
<svg version="1.1" id="Layer_1" xmlns="http://www.w3.org/2000/svg" xmlns:xlink="http://www.w3.org/1999/xlink" x="0px" y="0px"
	 viewBox="0 0 36 36" enable-background="new 0 0 36 36" xml:space="preserve">
<g>
	<g>
		<g>
			<g>
				<g>
					<g>
						<g>
							<path fill="#F29A2E" d="M34,17c-1.9-5.1-7.5-6.2-12.1-3.9C23.1,15.9,29.1,20.4,34,17z"/>
						</g>
					</g>
				</g>
				<g>
					<g>
						<g>
							<g>
								<path fill="#FFE9AB" d="M23.5,13.7c1.3-0.4,3.2-0.2,4.4,0.2C35.2,16.4,27.3,20,23.5,13.7z"/>
							</g>
						</g>
					</g>
					<g>
						<g>
							<path fill="#FFD68D" d="M27.9,13.9c-1.2-0.4-3.2-0.6-4.4-0.2c0.1,0.2,0.3,0.5,0.4,0.7c1.8-0.6,3.7,0,5.5,0.8
								c0.4,0.2,0.9,0.5,1.1,0.9c0.1,0.1,0.1,0.3,0.2,0.4C31.2,15.8,30.5,14.8,27.9,13.9z"/>
						</g>
					</g>
				</g>
			</g>
			<g>
				<g>
					<g>
						<path fill="#E18823" d="M32.6,17.7c-6.7,0.5-8.9-3.5-9.1-4.1c-0.1-0.2-0.1-0.7-0.2-1.2c-0.5,0.2-0.9,0.3-1.4,0.6
							C23,15.6,28.1,19.6,32.6,17.7z"/>
					</g>
				</g>
			</g>
		</g>
		<g>
			<g>
				<g>
					<g>
						<g>
							<path fill="#F29A2E" d="M2,17c1.9-5.1,7.5-6.2,12.1-3.9C12.9,15.9,6.9,20.4,2,17z"/>
						</g>
					</g>
				</g>
				<g>
					<g>
						<g>
							<g>
								<path fill="#FFE9AB" d="M12.5,13.7c-1.3-0.4-3.2-0.2-4.4,0.2C0.8,16.4,8.7,20,12.5,13.7z"/>
							</g>
						</g>
					</g>
					<g>
						<g>
							<path fill="#FFD68D" d="M8.1,13.9c1.2-0.4,3.2-0.6,4.4-0.2c-0.1,0.2-0.3,0.5-0.4,0.7c-1.8-0.6-3.7,0-5.5,0.8
								c-0.4,0.2-0.9,0.5-1.1,0.9c-0.1,0.1-0.1,0.3-0.2,0.4C4.8,15.8,5.5,14.8,8.1,13.9z"/>
						</g>
					</g>
				</g>
			</g>
			<g>
				<g>
					<g>
						<path fill="#E18823" d="M3.4,17.7c6.7,0.5,8.9-3.5,9.1-4.1c0.1-0.2,0.1-0.7,0.2-1.2c0.5,0.2,0.9,0.3,1.4,0.6
							C13,15.6,7.9,19.6,3.4,17.7z"/>
					</g>
				</g>
			</g>
		</g>
	</g>
	<g>
		<g>
			<g>
				<g>
					<g>
						<path fill="#6B503B" d="M22.9,13.5c-0.7,0.6-2.1,1.3-3.1,1.6c-0.4-1.9-0.8-3.8-1.2-5.7c1.1,0,2.5-0.5,3.2-1
							c2.6-1.7,3.6-4,4.4-6.6c0.1-0.2,0.3-0.3,0.5-0.2c0.1,0.1,0.3,0.2,0.3,0.3C27.3,6.5,26.4,11,22.9,13.5z"/>
					</g>
				</g>
				<g>
					<g>
						<g>
							<path fill="#5C4533" d="M24.4,10.8c1-1,1.6-2.4,2-3.8c0.4-1.4,0.5-2.9,0.5-4.4c0-0.4,0-0.7,0-0.7s0.1,0.3,0.1,0.7
								c0.2,1.4,0.3,2.9,0,4.5c-0.3,2.1-1,3.5-2.1,4.9c-1.8,2-4,2.9-5.1,3l-1-4.3C19.2,11.9,22.3,12.9,24.4,10.8z"/>
						</g>
					</g>
				</g>
			</g>
			<g>
				<g>
					<g>
						<path fill="#6B503B" d="M13.1,13.5c0.7,0.6,2.1,1.3,3.1,1.6c0.4-1.9,0.8-3.8,1.2-5.7c-1.1,0-2.5-0.5-3.2-1
							c-2.6-1.7-3.6-4-4.4-6.6C9.8,1.7,9.6,1.6,9.4,1.7C9.2,1.7,9.1,1.9,9.1,2C8.7,6.5,9.6,11,13.1,13.5z"/>
					</g>
				</g>
				<g>
					<g>
						<g>
							<path fill="#5C4533" d="M11.6,10.8c-1-1-1.6-2.4-2-3.8C9.2,5.7,9.1,4.2,9.1,2.7c0-0.4,0-0.7,0-0.7S9.1,2.3,9,2.7
								C8.8,4.1,8.7,5.6,9,7.2c0.3,2.1,1,3.5,2.1,4.9c1.8,2,4,2.9,5.1,3l1-4.3C16.8,11.9,13.7,12.9,11.6,10.8z"/>
						</g>
					</g>
				</g>
			</g>
		</g>
		<g>
			<g>
				<g>
					<g>
						<path fill="#F29A2E" d="M24.4,31.9c-2.6,0.9-3.6,2.5-6.4,2.5c-2.9,0-3.8-1.5-6.4-2.5c-6-2.2-8.5-9.2-3.6-12.1
							c1.3-0.8,2-2.4,2.2-4.1c1.2-8.9,14.5-8.9,15.6,0c0.2,1.6,0.9,3.3,2.2,4.1C32.9,22.7,30.4,29.7,24.4,31.9z"/>
					</g>
				</g>
			</g>
			<g>
				<g>
					<g>
						<path fill="#FFD68D" d="M12.8,27.8c0.3,2.7,2.6,4.8,5.5,4.8s5.1-2.1,5.5-4.8H12.8z"/>
					</g>
				</g>
			</g>
			<g>
				<g>
					<g>
						<path fill="#FFE9AB" d="M26.2,26.9c0,3.9-3.4,5.1-6.1,3.6c-1.1-0.6-2.6-0.6-3.7,0c-2.7,1.5-6.1,0.3-6.1-3.6
							c0-4.4,3.6-5.4,7.9-5.4C22.7,21.5,26.2,22.5,26.2,26.9z"/>
					</g>
				</g>
			</g>
			<g>
				<g>
					<g>
						<g>
							<path fill="#FFE9AB" d="M11.7,22.2c-0.9,0.9-1.2,2.1-0.1,3.2c0.9,0.8,3.2,1.7,4.1,0.8c0.9-0.9,0-3.3-0.9-4.1
								C13.7,21,12.6,21.3,11.7,22.2z"/>
						</g>
					</g>
				</g>
				<g>
					<g>
						<g>
							<path fill="#FFD68D" d="M15.3,22.6c-0.8-0.7-1.6-1.2-2.6-0.8c-1.3,0.4-2.1,1.9-1.1,3.5c-1.6-1.6-0.2-4.2,1.8-4
								C14.2,21.4,14.9,21.9,15.3,22.6z"/>
						</g>
					</g>
				</g>
				<g>
					<g>
						<g>
							<g>
								<path fill="#6D4135" d="M12.1,23.7c-0.1,0.8,0.5,1.5,1.3,1.7c0.8,0.2,1.6-0.3,1.7-1c0.1-0.8-0.7-1.6-1.5-1.7
									C12.8,22.5,12.1,23,12.1,23.7z"/>
							</g>
						</g>
					</g>
					<g>
						<g>
							<g>
								<path fill="#5B331D" d="M12.3,24.7c-0.1-0.1-0.1-0.3-0.1-0.4c0.1-0.6,0.6-1,1.2-0.8c0.6,0.1,1.2,0.8,1.2,1.4
									c0,0.2-0.1,0.3-0.2,0.4c0.3-0.2,0.5-0.5,0.5-0.8c0.1-0.8-0.7-1.6-1.5-1.7c-0.8-0.2-1.5,0.3-1.6,1.1
									C12,24.1,12.1,24.4,12.3,24.7z"/>
							</g>
						</g>
					</g>
				</g>
			</g>
			<g>
				<g>
					<g>
						<g>
							<path fill="#FFE9AB" d="M24.8,22.2c0.9,0.9,1.2,2.1,0.1,3.2c-0.9,0.8-3.2,1.7-4.1,0.8c-0.9-0.9,0-3.3,0.9-4.1
								C22.8,20.9,23.9,21.3,24.8,22.2z"/>
						</g>
					</g>
				</g>
				<g>
					<g>
						<g>
							<path fill="#FFD68D" d="M21.2,22.6c0.8-0.7,1.6-1.2,2.6-0.8c1.3,0.4,2.1,1.9,1.1,3.5c1.6-1.6,0.2-4.2-1.8-4
								C22.3,21.4,21.6,21.9,21.2,22.6z"/>
						</g>
					</g>
				</g>
			</g>
			<g>
				<g>
					<g>
						<g>
							<g>
								<g>
									<path fill="#6D4135" d="M24.4,23.7c0.1,0.8-0.5,1.5-1.3,1.7c-0.8,0.2-1.6-0.3-1.7-1c-0.1-0.8,0.7-1.6,1.5-1.7
										S24.4,23,24.4,23.7z"/>
								</g>
							</g>
						</g>
						<g>
							<g>
								<g>
									<path fill="#5B331D" d="M24.1,24.7c0.1-0.1,0.1-0.3,0.1-0.4c-0.1-0.6-0.6-1-1.2-0.8c-0.6,0.1-1.2,0.8-1.2,1.4
										c0,0.2,0.1,0.3,0.2,0.4c-0.3-0.2-0.5-0.5-0.5-0.8c-0.1-0.8,0.7-1.6,1.5-1.7c0.8-0.2,1.5,0.3,1.6,1.1
										C24.5,24.1,24.4,24.4,24.1,24.7z"/>
								</g>
							</g>
						</g>
					</g>
				</g>
			</g>
			<g>
				<g>
					<g>
						<g>
							<g>
								<path fill="#FFFFFF" d="M22.8,22.7c-0.5,0.1-1,0.5-1.2,1c0.6,0.7,1,1.6,1,2.6c0,2.3-1.9,4.1-4.1,4.1c-2.3,0-4.1-1.9-4.1-4.1
									c0-0.9,0.3-1.7,0.8-2.4c-0.2-0.5-0.6-0.9-1.1-1.1c-0.8,1-1.2,2.2-1.2,3.5c0,3.2,2.6,5.7,5.7,5.7c3.2,0,5.7-2.6,5.7-5.7
									C24.1,24.9,23.6,23.6,22.8,22.7z"/>
							</g>
						</g>
					</g>
				</g>
				<g opacity="0.35">
					<g>
						<g>
							<g>
								<path fill="#D3D9DD" d="M22.8,22.7c0.6,0.9,0.9,1.9,0.9,3c0,3-2.5,5.5-5.5,5.5c-3,0-5.5-2.5-5.5-5.5c0-0.2,0-0.3,0-0.5
									c-0.1,0.3-0.1,0.7-0.1,1c0,3.2,2.6,5.7,5.7,5.7c3.2,0,5.7-2.6,5.7-5.7C24.1,24.9,23.6,23.7,22.8,22.7z"/>
							</g>
						</g>
					</g>
				</g>
			</g>
		</g>
		<g>
			<g>
				<g>
					<g>
						<g>
							<g>
								<g>
									<path fill="#3E4347" d="M23.9,17.7c0,1.8-1.1,2.4-2.4,2.4c-1.3,0-2.4-0.6-2.4-2.4S19.7,14,21,14S23.9,15.9,23.9,17.7z"/>
								</g>
							</g>
						</g>
						<g>
							<g>
								<g>
									<path fill="#FFFFFF" d="M23.9,18c0,1.6-1.1,2.1-2.4,2.1s-2.4-0.5-2.4-2.1s0.6-3.3,1.9-3.3C22.3,14.7,23.9,16.4,23.9,18z"/>
								</g>
							</g>
						</g>
						<g>
							<g>
								<g>
									<path fill="#65B1EF" d="M22.7,17.9c0,0.8-0.6,1.5-1.4,1.5c-0.8,0-1.4-0.7-1.4-1.5c0-0.8,0.6-1.5,1.4-1.5
										C22.1,16.4,22.7,17.1,22.7,17.9z"/>
								</g>
							</g>
						</g>
					</g>
					<g>
						<g>
							<g>
								<g>
									<path fill="#3E4347" d="M22,17.9c0,0.4-0.3,0.7-0.7,0.7c-0.4,0-0.7-0.3-0.7-0.7c0-0.4,0.3-0.7,0.7-0.7
										C21.7,17.2,22,17.5,22,17.9z"/>
								</g>
							</g>
						</g>
						<g>
							<g>
								<g>
									<path fill="#FFFFFF" d="M22.1,17.3c0,0.2-0.2,0.3-0.3,0.3s-0.3-0.2-0.3-0.3c0-0.2,0.2-0.3,0.3-0.3S22.1,17.1,22.1,17.3z"/>
								</g>
							</g>
						</g>
					</g>
				</g>
				<g>
					<g>
						<g>
							<path fill="#3E4347" d="M24.3,15.6c-0.6-1.1-1.6-1.9-2.7-2.3c-0.6-0.2-0.1-0.1-0.6-0.2c-0.2-0.1-0.3-0.3-0.2-0.5
								c0.1-0.2,0.3-0.3,0.5-0.2c0.5,0.3,0,0,0.7,0.4C23.2,13.5,24.1,14.8,24.3,15.6z"/>
						</g>
					</g>
				</g>
			</g>
			<g>
				<g>
					<g>
						<g>
							<g>
								<g>
									<path fill="#3E4347" d="M12.1,17.7c0,1.8,1.1,2.4,2.4,2.4s2.4-0.6,2.4-2.4S16.3,14,15,14C13.6,14,12.1,15.9,12.1,17.7z"/>
								</g>
							</g>
						</g>
						<g>
							<g>
								<g>
									<path fill="#FFFFFF" d="M12.1,18c0,1.6,1.1,2.1,2.4,2.1s2.4-0.5,2.4-2.1s-0.6-3.3-1.9-3.3C13.6,14.7,12.1,16.4,12.1,18z"/>
								</g>
							</g>
						</g>
						<g>
							<g>
								<g>
									<path fill="#65B1EF" d="M13.3,17.9c0,0.8,0.6,1.5,1.4,1.5c0.8,0,1.4-0.7,1.4-1.5c0-0.8-0.6-1.5-1.4-1.5
										C13.9,16.4,13.3,17.1,13.3,17.9z"/>
								</g>
							</g>
						</g>
					</g>
					<g>
						<g>
							<g>
								<g>
									<path fill="#3E4347" d="M14,17.9c0,0.4,0.3,0.7,0.7,0.7c0.4,0,0.7-0.3,0.7-0.7c0-0.4-0.3-0.7-0.7-0.7
										C14.3,17.2,14,17.5,14,17.9z"/>
								</g>
							</g>
						</g>
						<g>
							<g>
								<g>
									<path fill="#FFFFFF" d="M13.9,17.3c0,0.2,0.2,0.3,0.3,0.3c0.2,0,0.3-0.2,0.3-0.3c0-0.2-0.2-0.3-0.3-0.3
										C14,17,13.9,17.1,13.9,17.3z"/>
								</g>
							</g>
						</g>
					</g>
				</g>
				<g>
					<g>
						<g>
							<path fill="#3E4347" d="M11.7,15.6c0.6-1.1,1.6-1.9,2.7-2.3c0.6-0.2,0.1-0.1,0.6-0.2c0.2-0.1,0.3-0.3,0.2-0.5
								c-0.1-0.2-0.3-0.3-0.5-0.2c-0.5,0.3,0,0-0.7,0.4C12.8,13.5,11.9,14.8,11.7,15.6z"/>
						</g>
					</g>
				</g>
			</g>
		</g>
		<g>
			<g>
				<g>
					<path fill="#F29A2E" d="M18.5,9.6c0.7-0.6,1.6-1,2.5-0.9c-0.8-0.4-1.8-0.5-2.7-0.3c0.4-0.8,1.3-1.3,2.1-1.6
						c-1.3-0.1-2.6,0.5-3.4,1.5c-0.7-0.5-1.5-0.8-2.3-0.8C15.4,7.9,16,8.4,16.4,9c-0.6,0.2-1.2,0.7-1.5,1.3c0.5-0.3,1-0.5,1.5-0.6
						c-0.3,1.1,0.1,2.5,1,3.2"/>
				</g>
			</g>
		</g>
	</g>
</g>
</svg>
