<?xml version="1.0" encoding="utf-8"?>
<!-- Generator: Adobe Illustrator 18.0.0, SVG Export Plug-In . SVG Version: 6.00 Build 0)  -->
<!DOCTYPE svg PUBLIC "-//W3C//DTD SVG 1.1//EN" "http://www.w3.org/Graphics/SVG/1.1/DTD/svg11.dtd">
<svg version="1.1" id="Layer_1" xmlns="http://www.w3.org/2000/svg" xmlns:xlink="http://www.w3.org/1999/xlink" x="0px" y="0px"
	 viewBox="0 0 36 36" enable-background="new 0 0 36 36" xml:space="preserve">
<g>
	<g>
		<g>
			<g>
				<g>
					<g>
						<path fill="#DAE5EF" d="M32.7,5.6c1.9,1.9,1.7,5.1-0.3,7.2c-2.1,2.1-6.1,3-7.9,1.1C22.5,12,23.4,8.1,25.5,6S30.8,3.8,32.7,5.6
							z"/>
					</g>
				</g>
			</g>
			<g>
				<g>
					<g>
						
							<ellipse transform="matrix(0.7071 -0.7071 0.7071 0.7071 1.9188 23.3961)" fill="#BBC7D1" cx="29.2" cy="9.4" rx="3.8" ry="3.3"/>
					</g>
				</g>
			</g>
			<g>
				<g>
					<g>
						<path fill="#ACB9C1" d="M31.9,6.7c0.3,0.3,0.6,0.7,0.7,1.1c-1.3-1.2-3.5-1.1-4.9,0.4c-1.1,1.1-1.5,2.7-1,3.9
							c0,0-0.1,0-0.1-0.1c-1.3-1.3-1.1-3.5,0.3-5C28.3,5.6,30.6,5.4,31.9,6.7z"/>
					</g>
				</g>
			</g>
		</g>
		<g>
			<g>
				<g>
					<g>
						<path fill="#DAE5EF" d="M3.3,5.6c-1.9,1.9-1.7,5.1,0.3,7.2s6.1,3,7.9,1.1s0.9-5.9-1.1-7.9S5.2,3.8,3.3,5.6z"/>
					</g>
				</g>
			</g>
			<g>
				<g>
					<g>
						
							<ellipse transform="matrix(-0.7071 -0.7071 0.7071 -0.7071 4.9726 20.8234)" fill="#BBC7D1" cx="6.8" cy="9.4" rx="3.8" ry="3.3"/>
					</g>
				</g>
			</g>
			<g>
				<g>
					<g>
						<path fill="#ACB9C1" d="M4.1,6.7C3.8,7,3.6,7.4,3.4,7.8c1.3-1.2,3.5-1.1,4.9,0.4c1.1,1.1,1.5,2.7,1,3.9c0,0,0.1,0,0.1-0.1
							c1.3-1.3,1.1-3.5-0.3-5S5.4,5.4,4.1,6.7z"/>
					</g>
				</g>
			</g>
		</g>
	</g>
	<g>
		<g>
			<g>
				<path fill="#CBD6E0" d="M31.5,17.8c0,9.5-6,12-13.5,12s-13.5-2.5-13.5-12c0-6.7,6-12,13.5-12S31.5,11.1,31.5,17.8z"/>
			</g>
		</g>
	</g>
	<g>
		<g>
			<g>
				<ellipse fill="#CBD6E0" cx="18" cy="26.5" rx="5.9" ry="5.1"/>
			</g>
		</g>
	</g>
	<g>
		<g>
			<g>
				<g>
					<g>
						<g>
							<path fill="#3E4347" d="M15.9,16.1c-0.2,3.1-1.7,3.3-3.8,3.4c-2.1,0.1-3-0.4-3.1-3.3c-0.1-2.5,2.8-4.9,4.9-5
								C16,11.2,16,14,15.9,16.1z"/>
						</g>
					</g>
				</g>
				<g>
					<g>
						<g>
							<g>
								<ellipse fill="#FFFFFF" cx="12.8" cy="15.6" rx="2.1" ry="2.3"/>
							</g>
						</g>
					</g>
					<g>
						<g>
							<g>
								<ellipse fill="#3E4347" cx="12.8" cy="16" rx="1.1" ry="1.3"/>
							</g>
						</g>
					</g>
					<g>
						<g>
							<g>
								<circle fill="#FFFFFF" cx="13.6" cy="15.1" r="0.5"/>
							</g>
						</g>
					</g>
				</g>
			</g>
		</g>
		<g>
			<g>
				<g>
					<g>
						<g>
							<path fill="#3E4347" d="M20.1,16.1c0.2,3.1,1.7,3.3,3.8,3.4c2.1,0.1,3-0.4,3.1-3.3c0.1-2.5-2.8-4.9-4.9-5
								C20.1,11.2,20,14,20.1,16.1z"/>
						</g>
					</g>
				</g>
				<g>
					<g>
						<g>
							<g>
								<ellipse fill="#FFFFFF" cx="23.2" cy="15.6" rx="2.1" ry="2.3"/>
							</g>
						</g>
					</g>
					<g>
						<g>
							<g>
								<ellipse fill="#3E4347" cx="23.2" cy="16" rx="1.1" ry="1.3"/>
							</g>
						</g>
					</g>
					<g>
						<g>
							<g>
								<circle fill="#FFFFFF" cx="24.1" cy="15.1" r="0.5"/>
							</g>
						</g>
					</g>
				</g>
			</g>
		</g>
	</g>
	<g>
		<g>
			<g>
				<g>
					<circle fill="#DAE5EF" cx="18" cy="25.3" r="5.5"/>
				</g>
			</g>
		</g>
		<g>
			<g>
				<g>
					<g>
						<g>
							<path fill="#8D9BA3" d="M22,26c-0.3,1.9-3.1,4.2-5.9,2.7C15,28,14.1,26.7,14,26c0,0.1,0.1,0.2,0.2,0.4c0.6,1.1,1.8,2,3.2,2.2
								c0.2,0,0.4-0.2,0.4-0.4l0-2.9h0.5v2.9c0,0.2,0.2,0.4,0.4,0.4c1.3-0.2,2.5-1.1,3.2-2.2C21.9,26.2,22,26,22,26z"/>
						</g>
					</g>
				</g>
			</g>
		</g>
		<g>
			<g>
				<g>
					<g>
						<path fill="#3E4347" d="M20.5,24.7c0,0.3-0.1,0.6-0.3,0.9c-1,1.5-3.4,1.5-4.4,0c-0.2-0.3-0.3-0.6-0.3-0.9
							c0-1.4,1.1-1.9,2.5-1.9S20.5,23.3,20.5,24.7z"/>
					</g>
				</g>
			</g>
			<g>
				<g>
					<g>
						<path fill="#31373A" d="M20.5,24.7c0,0.3-0.1,0.6-0.3,0.9c-1,1.5-3.4,1.5-4.4,0c-0.2-0.3-0.3-0.6-0.3-0.9c0-0.2,0-0.4,0.1-0.6
							c0.1,0.2,0.1,0.3,0.2,0.5c1,1.5,3.4,1.5,4.4,0c0.1-0.2,0.2-0.3,0.2-0.5C20.5,24.3,20.5,24.5,20.5,24.7z"/>
					</g>
				</g>
			</g>
			<g opacity="0.1">
				<g>
					<path fill="#FFFFFF" d="M19,23.7c0,0.3-0.5,0.5-1,0.5c-0.6,0-1-0.2-1-0.5c0-0.3,0.5-0.5,1-0.5C18.6,23.2,19,23.4,19,23.7z"/>
				</g>
			</g>
		</g>
	</g>
</g>
</svg>
