<?xml version="1.0" encoding="utf-8"?>
<!-- Generator: Adobe Illustrator 18.0.0, SVG Export Plug-In . SVG Version: 6.00 Build 0)  -->
<!DOCTYPE svg PUBLIC "-//W3C//DTD SVG 1.1//EN" "http://www.w3.org/Graphics/SVG/1.1/DTD/svg11.dtd">
<svg version="1.1" id="Layer_1" xmlns="http://www.w3.org/2000/svg" xmlns:xlink="http://www.w3.org/1999/xlink" x="0px" y="0px"
	 viewBox="0 0 36 36" enable-background="new 0 0 36 36" xml:space="preserve">
<g>
	<g>
		<g>
			<g>
				<g>
					<g>
						<g>
							<g>
								<path fill="#CBD6E0" d="M32.4,16.4c-4.4,2-9.4,0-11.4-4.1c-0.6-1.2,1.7-2.8,2.6-3.4c-0.1,0.3-0.1,0.5-0.2,0.7
									c0.7-0.6,1.7-1,2.6-1.1c-0.2,0.1-0.4,0.3-0.5,0.6c3.4-1.3,7.1,0.5,8.3,4C34.4,14.8,33.8,15.7,32.4,16.4z"/>
							</g>
						</g>
					</g>
					<g>
						<g>
							<g>
								<path fill="#FC97B2" d="M22.7,12.7c0,0,1.9-2.9,5.3-2.5s4.7,2.4,5,4.7C33,14.9,28.4,18.7,22.7,12.7z"/>
							</g>
						</g>
					</g>
				</g>
				<g>
					<g>
						<g>
							<path fill="#E88EA7" d="M28,10.2c-3.4-0.4-5.3,2.5-5.3,2.5s7.6-4.8,10.3,2.2C32.7,12.6,31.3,10.6,28,10.2z"/>
						</g>
					</g>
				</g>
			</g>
			<g>
				<g>
					<g>
						<g>
							<g>
								<path fill="#CBD6E0" d="M3.6,16.4c4.4,2,9.4,0,11.4-4.1c0.6-1.2-1.7-2.8-2.6-3.4c0.1,0.3,0.1,0.5,0.2,0.7
									c-0.7-0.6-1.7-1-2.6-1.1c0.2,0.1,0.4,0.3,0.5,0.6c-3.4-1.3-7.1,0.5-8.3,4C1.6,14.8,2.2,15.7,3.6,16.4z"/>
							</g>
						</g>
					</g>
					<g>
						<g>
							<g>
								<path fill="#FC97B2" d="M13.3,12.7c0,0-1.9-2.9-5.3-2.5s-4.7,2.4-5,4.7C3,14.9,7.6,18.7,13.3,12.7z"/>
							</g>
						</g>
					</g>
				</g>
				<g>
					<g>
						<g>
							<path fill="#E88EA7" d="M8,10.2c3.4-0.4,5.3,2.5,5.3,2.5S5.8,7.9,3,14.9C3.3,12.6,4.7,10.6,8,10.2z"/>
						</g>
					</g>
				</g>
			</g>
		</g>
		<g>
			<g>
				<g>
					<circle fill="#DAE5EF" cx="18" cy="19" r="10.2"/>
				</g>
			</g>
			<g>
				<g>
					<g>
						<path fill="#CBD6E0" d="M28.2,19.5c-0.3,5.4-4.7,9.7-10.2,9.7c-5.5,0-9.9-4.3-10.2-9.7C8.1,24.2,12.6,28,18,28
							C23.4,28,27.9,24.2,28.2,19.5z"/>
					</g>
				</g>
			</g>
			<g>
				<g>
					<g>
						<g>
							<path fill="#3E4347" d="M21,24c0,2.7-1.3,3.2-3,3.2s-3-0.5-3-3.2s1.3-4.9,3-4.9S21,21.3,21,24z"/>
						</g>
					</g>
				</g>
				<g>
					<g>
						<g>
							<g>
								<path fill="#31373A" d="M19.5,24.8c0.6-0.2,0.9,0.2,0.6,0.8c-0.3,0.5-0.9,0.7-1.4,0.9C18.3,26.5,18.7,25.1,19.5,24.8z"/>
							</g>
						</g>
					</g>
					<g>
						<g>
							<g>
								<path fill="#31373A" d="M16.5,24.8C16,24.5,15.7,25,16,25.5c0.3,0.5,0.9,0.7,1.4,0.9C17.7,26.5,17.3,25.1,16.5,24.8z"/>
							</g>
						</g>
					</g>
				</g>
			</g>
			<g>
				<g>
					<g>
						<g>
							<g>
								<g>
									<g>
										
											<ellipse transform="matrix(0.9649 0.2627 -0.2627 0.9649 5.7122 -5.3369)" fill="#3E4347" cx="22.8" cy="18.7" rx="2.2" ry="3.2"/>
									</g>
								</g>
								<g>
									<g>
										<g>
											
												<ellipse transform="matrix(0.9649 0.2627 -0.2627 0.9649 5.8024 -5.2989)" fill="#FFFFFF" cx="22.7" cy="19" rx="2.2" ry="3"/>
										</g>
									</g>
								</g>
							</g>
						</g>
					</g>
					<g>
						<g>
							<g>
								<g>
									<circle fill="#65B1EF" cx="22.4" cy="19.7" r="1.3"/>
								</g>
							</g>
						</g>
						<g>
							<g>
								<g>
									<circle fill="#3E4347" cx="22.4" cy="19.7" r="0.7"/>
								</g>
							</g>
						</g>
						<g>
							<g>
								<g>
									<circle fill="#FFFFFF" cx="22.9" cy="19.4" r="0.3"/>
								</g>
							</g>
						</g>
					</g>
				</g>
				<g>
					<g>
						<g>
							<g>
								<g>
									<g>
										
											<ellipse transform="matrix(-0.9649 0.2627 -0.2627 -0.9649 30.8234 33.2596)" fill="#3E4347" cx="13.2" cy="18.7" rx="2.2" ry="3.2"/>
									</g>
								</g>
								<g>
									<g>
										<g>
											
												<ellipse transform="matrix(-0.9649 0.2627 -0.2627 -0.9649 31.1078 33.9344)" fill="#FFFFFF" cx="13.3" cy="19" rx="2.2" ry="3"/>
										</g>
									</g>
								</g>
							</g>
						</g>
					</g>
					<g>
						<g>
							<g>
								<g>
									<circle fill="#65B1EF" cx="13.6" cy="19.7" r="1.3"/>
								</g>
							</g>
						</g>
						<g>
							<g>
								<g>
									<circle fill="#3E4347" cx="13.6" cy="19.7" r="0.7"/>
								</g>
							</g>
						</g>
						<g>
							<g>
								<g>
									<circle fill="#FFFFFF" cx="14" cy="19.4" r="0.3"/>
								</g>
							</g>
						</g>
					</g>
				</g>
			</g>
		</g>
	</g>
	<g>
		<g>
			<g>
				<path fill="#DAE5EF" d="M15.3,8.3c0,0,0.9-0.2,1.4,0.5c0.4-0.9,1.2-1.6,2.1-2c-0.4,0.4-0.6,1-0.6,1.6c0.7-0.6,1.7-0.9,2.7-0.7
					c-0.6,0.2-1.1,0.5-1.6,0.9c0.5-0.1,1,0.3,1.2,0.7c0.2,0.4,0.3,0.9,0.4,1.4c-0.3-0.4-0.8-0.7-1.3-1c0.1,0.3-0.1,0.7-0.4,0.9
					s-0.6,0.4-0.8,0.6c-0.2,0.2-0.4,0.6-0.4,0.9c-0.5-0.6-0.6-1.4-0.4-2.1c-0.7,0.3-1.2,1-1.4,1.7c-0.2-0.8,0-2.4,0-2.4
					C16.1,8.8,15.3,8.3,15.3,8.3z"/>
			</g>
		</g>
	</g>
</g>
</svg>
