<?xml version="1.0" encoding="utf-8"?>
<!-- Generator: Adobe Illustrator 18.0.0, SVG Export Plug-In . SVG Version: 6.00 Build 0)  -->
<!DOCTYPE svg PUBLIC "-//W3C//DTD SVG 1.1//EN" "http://www.w3.org/Graphics/SVG/1.1/DTD/svg11.dtd">
<svg version="1.1" id="Layer_1" xmlns="http://www.w3.org/2000/svg" xmlns:xlink="http://www.w3.org/1999/xlink" x="0px" y="0px"
	 viewBox="0 0 36 36" enable-background="new 0 0 36 36" xml:space="preserve">
<g>
	<g>
		<g>
			<g>
				<path fill="#6D4135" d="M32.7,15.4c-0.2-0.2-0.4-0.4-0.6-0.6c0.6,2.4,0.3,5-0.8,7.2c0.1-0.6,0-1.3-0.3-1.9
					c-0.3,1.8-1.2,3.5-2.6,4.8c0.2-0.4,0.2-0.8,0.2-1.2c-0.7,1.2-1.7,2.2-2.8,3c0.2-0.4,0.4-0.8,0.5-1.2c-0.7,1.1-1.7,2-2.9,2.7
					c0.2-0.3,0.4-0.7,0.5-1.1c-0.9,1-1.8,1.9-2.6,2.9v-1c-1.4,0.9-2.5,2.1-3.2,3.5c0.2-0.8,0.2-1.6,0.2-2.4c-0.4,1.5-1,1.4-1.1,3.8
					c-0.2-1.5-0.9-3.9-2.4-5c-0.1,0.3-0.1,0.6,0,1c-0.9-1-1.8-1.9-2.6-2.9c0,0.5,0.3,0.8,0.5,1.1c-1.2-0.6-2.2-1.6-2.9-2.7
					c0,0.4,0.2,0.8,0.5,1.2C9,26,8.1,25,7.4,23.8c0.1,0.4,0.1,0.8,0.2,1.2c-1.3-1.3-2.2-3-2.6-4.8c-0.3,0.6-0.4,1.2-0.3,1.9
					c-1.1-2.2-1.4-4.8-0.8-7.2c-0.2,0.2-0.4,0.4-0.6,0.6c-0.6-2.8,0.2-5.8,2.3-7.7c8.1-7.6,16.6-7.6,24.7,0
					C32.4,9.6,33.3,12.7,32.7,15.4z"/>
			</g>
		</g>
	</g>
	<g>
		<g>
			<g>
				<g>
					<path fill="#633B2A" d="M14.9,7.3c-1.6-0.4-3.3-0.4-4.8,0c0.6-0.1,1.2,0,1.7,0.2C10,7.9,8.3,9,7.2,10.6
						c0.4-0.1,0.8-0.1,1.2-0.2c-1.1,1.1-1.8,2.6-1.9,4.1c0.3-0.3,0.7-0.5,1-0.8c-0.7,1.4-1.1,3-0.9,4.5c0.2-0.5,0.5-0.9,0.7-1.3
						c-0.2,1.7,0.3,3.6,1.3,5c-0.1-0.5-0.1-1-0.2-1.4c0.5,1.5,1.4,2.9,2.7,3.8c-0.1-0.2-0.2-0.4-0.3-0.6c1.7,1.4,3.4,2.8,5.1,4.2
						c-0.1-0.4-0.1-0.8-0.2-1.2c1,0.9,1.9,1.8,2.9,2.7c0.5-0.8,1.2-1.5,1.8-2.1c0,0.2-0.1,0.4-0.1,0.6c1.7-1.4,3.4-2.8,5.1-4.2
						c-0.1,0.2-0.2,0.4-0.3,0.6c1.3-1,2.2-2.3,2.7-3.8c-0.1,0.5-0.1,0.9-0.2,1.4c1-1.4,1.5-3.2,1.3-5c0.2,0.5,0.5,0.9,0.7,1.3
						c0.1-1.5-0.5-3.1-1.4-4.3c0.3,0.3,1.1,0.3,1.4,0.5c-0.1-1.5-0.8-3-1.9-4.1c0.4,0.1,0.8,0.1,1.2,0.2c-1-1.6-2.7-2.7-4.6-3
						c0.5-0.2,1.1-0.3,1.7-0.2c-1.6-0.5-3.3-0.5-4.8,0H14.9z"/>
				</g>
			</g>
		</g>
	</g>
	<g>
		<g>
			<g>
				<g>
					<g>
						<path fill="#FFD93B" d="M21.7,22.3c-2.1,1.3-5.4,1.3-7.5,0c-4-0.2-5.5-4.8-3.2-7.5c0.7-0.8,1-1.9,1-3c0-3,2.6-4.2,5.9-4.2
							c3.3,0,6,1.2,5.9,4.2c0,1.1,0.3,2.2,1,3C27.2,17.5,25.7,22.1,21.7,22.3z"/>
					</g>
				</g>
			</g>
		</g>
		<g>
			<g>
				<g>
					<g>
						<g>
							<g>
								<path fill="#E9B02C" d="M22.5,14c0-0.2,0.1-0.3,0.1-0.5c0.2-1.3-0.5-2.4-1.5-2.4s-2,1.1-2.1,2.4c0,0.2,0,0.3,0,0.5H22.5z"/>
							</g>
						</g>
					</g>
					<g>
						<g>
							<g>
								<path fill="#FFFFFF" d="M22.6,13.7c0,1.7-0.8,2.2-1.8,2.2c-1,0-1.8-0.5-1.8-2.2c0-1.2,0.8-2.2,1.8-2.2
									C21.8,11.4,22.6,12.4,22.6,13.7z"/>
							</g>
						</g>
					</g>
					<g>
						<g>
							<g>
								<path fill="#65B1EF" d="M21.8,14.1c0,0.7-0.5,1.3-1.1,1.3c-0.6,0-1.1-0.6-1.1-1.3c0-0.7,0.5-1.3,1.1-1.3
									S21.8,13.4,21.8,14.1z"/>
							</g>
						</g>
					</g>
					<g>
						<g>
							<g>
								<path fill="#3E4347" d="M21.2,14.1c0,0.4-0.3,0.7-0.6,0.7S20,14.4,20,14.1c0-0.4,0.3-0.7,0.6-0.7
									C21,13.4,21.2,13.7,21.2,14.1z"/>
							</g>
						</g>
					</g>
				</g>
				<g>
					<g>
						<g>
							<path fill="#FFFFFF" d="M21.3,13.6c0,0.2-0.1,0.3-0.3,0.3c-0.2,0-0.3-0.1-0.3-0.3c0-0.2,0.1-0.3,0.3-0.3
								C21.2,13.3,21.3,13.4,21.3,13.6z"/>
						</g>
					</g>
				</g>
			</g>
			<g>
				<g>
					<g>
						<g>
							<g>
								<path fill="#E9B02C" d="M13.5,14c0-0.2-0.1-0.3-0.1-0.5c-0.2-1.3,0.5-2.4,1.5-2.4s2,1.1,2.1,2.4c0,0.2,0,0.3,0,0.5H13.5z"/>
							</g>
						</g>
					</g>
					<g>
						<g>
							<g>
								<path fill="#FFFFFF" d="M13.4,13.7c0,1.7,0.8,2.2,1.8,2.2c1,0,1.8-0.5,1.8-2.2c0-1.2-0.8-2.2-1.8-2.2S13.4,12.4,13.4,13.7z"
									/>
							</g>
						</g>
					</g>
					<g>
						<g>
							<g>
								<path fill="#65B1EF" d="M16.5,14.1c0,0.7-0.5,1.3-1.1,1.3c-0.6,0-1.1-0.6-1.1-1.3c0-0.7,0.5-1.3,1.1-1.3
									S16.5,13.4,16.5,14.1z"/>
							</g>
						</g>
					</g>
					<g>
						<g>
							<g>
								<path fill="#3E4347" d="M16,14.1c0,0.4-0.3,0.7-0.6,0.7s-0.6-0.3-0.6-0.7c0-0.4,0.3-0.7,0.6-0.7S16,13.7,16,14.1z"/>
							</g>
						</g>
					</g>
				</g>
				<g>
					<g>
						<g>
							<path fill="#FFFFFF" d="M16,13.6c0,0.2-0.1,0.3-0.3,0.3c-0.2,0-0.3-0.1-0.3-0.3c0-0.2,0.1-0.3,0.3-0.3
								C15.9,13.3,16,13.4,16,13.6z"/>
						</g>
					</g>
				</g>
			</g>
		</g>
		<g>
			<g>
				<g>
					<path fill="#F4C534" d="M23,21.3c-0.3,0.4-0.8,0.8-1.3,1.1c-0.9,0.6-2.3,1-3.7,1c-1.4,0-2.8-0.4-3.7-1c-0.5-0.3-1-0.8-1.3-1.1
						c0.9,0.5,0.1,0.2,1.5,0.8c0.7,0.3,1.9,0.6,3.5,0.7c1.6,0,2.8-0.4,3.5-0.7C22.5,21.7,22.2,21.8,23,21.3z"/>
				</g>
			</g>
		</g>
		<g>
			<g>
				<g>
					<g>
						<circle fill="#E9EFF4" cx="18" cy="20.5" r="3.7"/>
					</g>
				</g>
			</g>
			<g>
				<g>
					<path fill="#FFFFFF" d="M23.6,19.4c0,1.7-1.4,3.1-3.1,3.1c-1,0-1.9-0.5-2.5-1.3c-0.6,0.8-1.5,1.3-2.5,1.3
						c-1.7,0-3.1-1.4-3.1-3.1c0-1.7,1.4-3.1,3.1-3.1c1,0,1.9,0.5,2.5,1.2c0.6-0.8,1.5-1.2,2.5-1.2C22.2,16.3,23.6,17.6,23.6,19.4z"
						/>
				</g>
			</g>
			<g>
				<g>
					<g>
						<path fill="#6D4135" d="M20.6,16.2c-0.8,0.5-1.4,0.9-1.8,1.3c-0.4,0.4-1.1,0.4-1.5,0c-0.4-0.4-1-0.8-1.8-1.3
							c-0.9-1.2,1.9-1.3,2.6-1.3C18.7,14.9,21.5,15.1,20.6,16.2z"/>
					</g>
				</g>
			</g>
			<g>
				<g>
					<g>
						<path fill="#633B2A" d="M20.6,16.3c-0.8,0.5-1.4,0.9-1.8,1.3c-0.4,0.4-1.1,0.4-1.5,0c-0.4-0.4-1-0.8-1.8-1.3
							c-0.1-0.2-0.2-0.3-0.2-0.4c0.4,0.6,1.8,0.9,2.6,0.9c1-0.1,1.9-0.5,2.7-1.1c0,0,0.1,0,0.1-0.1C20.8,15.7,20.8,15.9,20.6,16.3z"
							/>
					</g>
				</g>
			</g>
		</g>
	</g>
	<g>
		<g>
			<g>
				<g>
					<g>
						<g>
							<path fill="#FFD93B" d="M31.5,8.2c0.5,3.1-0.8,6.7-6.9,5.4c-0.7-1.9,0-6.2,6.4-5.9C31.2,7.7,31.5,7.9,31.5,8.2z"/>
						</g>
					</g>
				</g>
				<g>
					<g>
						<g>
							<path fill="#FC97B2" d="M29.6,12.5c-1.2,0.9-2.8,0.8-4.2,0.3c1-2.1,3-3.6,5.4-4.1C31.2,10.3,30.6,11.7,29.6,12.5z"/>
						</g>
					</g>
				</g>
				<g>
					<g>
						<g>
							<path fill="#E88EA7" d="M30.9,8.7c-2.4,0.5-4.4,2-5.4,4.1c1.4,0.5,3,0.6,4.1-0.3c-0.6,0.2-1.3,0.3-1.9,0.2
								c0.3-0.3,0.7-0.5,1.2-0.6c-0.6-0.1-1.3,0-1.8,0.3c0.2-0.5,0.6-1,1.2-1.2c-0.4,0-0.8,0.2-1.1,0.4C27.6,10.4,29.3,9.2,30.9,8.7
								z"/>
						</g>
					</g>
				</g>
			</g>
			<g>
				<g>
					<g>
						<path fill="#633B2A" d="M28.5,14.6h-2.6c-0.2,0-2-1-1.7-2l-0.1-3.3c1.2,0.6,2.2,1.4,3,2.5l-0.9-0.2c0.7,0.3,1.2,0.9,1.6,1.5
							c-0.3-0.1-0.7-0.2-1-0.2c0.8,0.4,1.3,1,1.3,1S28.3,14.3,28.5,14.6z"/>
					</g>
				</g>
			</g>
		</g>
		<g>
			<g>
				<g>
					<g>
						<g>
							<path fill="#FFD93B" d="M4.5,8.2c-0.5,3.1,0.8,6.7,6.9,5.4c0.7-1.9,0-6.2-6.4-5.9C4.8,7.7,4.5,7.9,4.5,8.2z"/>
						</g>
					</g>
				</g>
				<g>
					<g>
						<g>
							<path fill="#FC97B2" d="M6.4,12.5c1.2,0.9,2.8,0.8,4.2,0.3c-1-2.1-3-3.6-5.4-4.1C4.8,10.3,5.4,11.7,6.4,12.5z"/>
						</g>
					</g>
				</g>
				<g>
					<g>
						<g>
							<path fill="#E88EA7" d="M5.1,8.7c2.4,0.5,4.4,2,5.4,4.1c-1.4,0.5-3,0.6-4.1-0.3c0.6,0.2,1.3,0.3,1.9,0.2
								c-0.3-0.3-0.7-0.5-1.2-0.6c0.6-0.1,1.3,0,1.8,0.3c-0.2-0.5-0.6-1-1.2-1.2c0.4,0,0.8,0.2,1.1,0.4C8.4,10.4,6.7,9.2,5.1,8.7z"
								/>
						</g>
					</g>
				</g>
			</g>
			<g>
				<g>
					<g>
						<path fill="#633B2A" d="M10.1,14.6H7.3c0.5-0.7,1.1-1.3,1.8-1.7c-0.3,0-0.7,0-1,0.2c0.4-0.6,0.9-1.2,1.6-1.5l-0.9,0.2
							c0.8-1.1,1.8-1.9,3-2.5l-0.1,3.3C11.8,13.6,11.3,14.4,10.1,14.6L10.1,14.6z"/>
					</g>
				</g>
			</g>
		</g>
	</g>
	<g>
		<g>
			<g>
				<g>
					<path fill="#3E4347" d="M23.1,11.4c-0.7-0.7-1.5-1.3-2.4-1.3c-0.5,0-0.6-0.8,0.1-0.7C21.4,9.4,22.7,10.2,23.1,11.4z"/>
				</g>
			</g>
		</g>
		<g>
			<g>
				<g>
					<path fill="#3E4347" d="M12.9,11.4c0.7-0.7,1.5-1.3,2.4-1.3c0.5,0,0.6-0.8-0.1-0.7C14.6,9.4,13.3,10.2,12.9,11.4z"/>
				</g>
			</g>
		</g>
	</g>
</g>
</svg>
