<?xml version="1.0" encoding="utf-8"?>
<!-- Generator: Adobe Illustrator 18.0.0, SVG Export Plug-In . SVG Version: 6.00 Build 0)  -->
<!DOCTYPE svg PUBLIC "-//W3C//DTD SVG 1.1//EN" "http://www.w3.org/Graphics/SVG/1.1/DTD/svg11.dtd">
<svg version="1.1" id="Layer_1" xmlns="http://www.w3.org/2000/svg" xmlns:xlink="http://www.w3.org/1999/xlink" x="0px" y="0px"
	 viewBox="0 0 36 36" enable-background="new 0 0 36 36" xml:space="preserve">
<g id="XMLID_113_">
	<g id="XMLID_239_">
		<g>
			<ellipse fill="#7B8A91" cx="18" cy="24.9" rx="12" ry="8.9"/>
		</g>
	</g>
	<g id="XMLID_226_">
		<g id="XMLID_236_">
			<g>
				<path fill="#FFFFFF" d="M13.7,32.2L13.7,32.2c-0.7,0-1.2-0.5-1.2-1.2v-4.6h2.4V31C14.9,31.7,14.3,32.2,13.7,32.2z"/>
			</g>
		</g>
		<g id="XMLID_227_">
			<g>
				<path fill="#FFFFFF" d="M22.4,32.2L22.4,32.2c-0.7,0-1.2-0.5-1.2-1.2v-4.6h2.4V31C23.6,31.7,23,32.2,22.4,32.2z"/>
			</g>
		</g>
	</g>
	<g id="XMLID_222_">
		<g>
			
				<ellipse transform="matrix(0.7883 -0.6154 0.6154 0.7883 -2.1559 8.8878)" fill="#8C9AA2" cx="11.8" cy="7.6" rx="3.4" ry="6.4"/>
		</g>
	</g>
	<g id="XMLID_218_">
		<g>
			
				<ellipse transform="matrix(0.7883 -0.6154 0.6154 0.7883 -2.1559 8.8878)" fill="#728288" cx="11.8" cy="7.6" rx="2.3" ry="4.4"/>
		</g>
	</g>
	<g id="XMLID_215_">
		<g>
			
				<ellipse transform="matrix(-0.7883 -0.6154 0.6154 -0.7883 38.5485 28.4177)" fill="#8C9AA2" cx="24.2" cy="7.6" rx="3.4" ry="6.4"/>
		</g>
	</g>
	<g id="XMLID_207_">
		<g>
			
				<ellipse transform="matrix(-0.7883 -0.6154 0.6154 -0.7883 38.5485 28.4177)" fill="#728288" cx="24.2" cy="7.6" rx="2.3" ry="4.4"/>
		</g>
	</g>
	<g id="XMLID_198_">
		<g>
			<path fill="#8C9AA2" d="M26.4,12.2v-0.6c0-4.6-3.7-8.4-8.4-8.4h0c-4.6,0-8.4,3.7-8.4,8.4v0.6c0,3-1.1,5.9-2.9,8.3
				c-0.9,1.2-1.3,2.7-1.2,4.3c0.2,3,2.6,5.4,5.6,5.8c0.8,0.1,1.7,0,2.4-0.2c2.9-0.8,6-0.8,8.9,0c0.8,0.2,1.6,0.3,2.4,0.2
				c3-0.3,5.3-2.8,5.6-5.8c0.1-1.6-0.3-3.1-1.2-4.3C27.4,18.1,26.4,15.2,26.4,12.2z"/>
		</g>
	</g>
	<g id="XMLID_193_">
		<g id="XMLID_194_">
			<g id="XMLID_197_">
				<g>
					<path fill="#5B5F63" d="M21.9,23.2c0.6,0.6-1.6,2.8-2.2,2.2c-0.6-0.6-0.6-1.6,0-2.2C20.3,22.6,21.3,22.6,21.9,23.2z"/>
				</g>
			</g>
			<g id="XMLID_195_">
				<g>
					<path fill="#5B5F63" d="M14.1,23.2c-0.6,0.6,1.6,2.8,2.2,2.2c0.6-0.6,0.6-1.6,0-2.2C15.7,22.6,14.7,22.6,14.1,23.2z"/>
				</g>
			</g>
		</g>
	</g>
	<g id="XMLID_115_">
		<g id="XMLID_173_">
			<g id="XMLID_192_">
				<g>
					<circle fill="#FFFFFF" cx="21.9" cy="13.9" r="1.9"/>
				</g>
			</g>
			<g id="XMLID_175_">
				<g>
					<circle fill="#2F3133" cx="21.9" cy="13.9" r="1.1"/>
				</g>
			</g>
			<g id="XMLID_174_">
				<g>
					<circle fill="#FFFFFF" cx="21.2" cy="13.2" r="0.7"/>
				</g>
			</g>
		</g>
		<g id="XMLID_119_">
			<g id="XMLID_136_">
				<g>
					<circle fill="#FFFFFF" cx="14.1" cy="13.9" r="1.9"/>
				</g>
			</g>
			<g id="XMLID_128_">
				<g>
					<circle fill="#2F3133" cx="14.1" cy="13.9" r="1.1"/>
				</g>
			</g>
			<g id="XMLID_120_">
				<g>
					<circle fill="#FFFFFF" cx="13.3" cy="13.2" r="0.7"/>
				</g>
			</g>
		</g>
	</g>
</g>
</svg>
