<?xml version="1.0" encoding="utf-8"?>
<!-- Generator: Adobe Illustrator 18.0.0, SVG Export Plug-In . SVG Version: 6.00 Build 0)  -->
<!DOCTYPE svg PUBLIC "-//W3C//DTD SVG 1.1//EN" "http://www.w3.org/Graphics/SVG/1.1/DTD/svg11.dtd">
<svg version="1.1" id="Layer_1" xmlns="http://www.w3.org/2000/svg" xmlns:xlink="http://www.w3.org/1999/xlink" x="0px" y="0px"
	 viewBox="0 0 36 36" enable-background="new 0 0 36 36" xml:space="preserve">
<g id="XMLID_1301_">
	<g id="XMLID_1322_">
		<g>
			<path fill="#997960" d="M25.9,23.1c0,0,3,1.8,3.3,5.1c0,0,1.7-1.4-1-6.8S25.9,23.1,25.9,23.1z"/>
		</g>
	</g>
	<g id="XMLID_1321_">
		<g>
			<path fill="#997960" d="M25.6,21.6c0,0,3.3,1,4.5,4.1c0,0,1.3-1.8-2.8-6.4S25.6,21.6,25.6,21.6z"/>
		</g>
	</g>
	<g id="XMLID_1320_">
		<g>
			<path fill="#997960" d="M10.1,23.1c0,0-3,1.8-3.3,5.1c0,0-1.7-1.4,1-6.8S10.1,23.1,10.1,23.1z"/>
		</g>
	</g>
	<g id="XMLID_1319_">
		<g>
			<path fill="#997960" d="M10.4,21.6c0,0-3.3,1-4.5,4.1c0,0-1.3-1.8,2.8-6.4S10.4,21.6,10.4,21.6z"/>
		</g>
	</g>
	<g id="XMLID_1318_">
		<g>
			<path fill="#997960" d="M23,6.6c0,0-0.3-1,5.3-2.8c0,0,2.3-1.1,2.6-1.8c0,0,4.6,8.5-4.6,12.3S20,8.1,20,8.1L23,6.6z"/>
		</g>
	</g>
	<g id="XMLID_1317_">
		<g>
			<path fill="#8E6D53" d="M22.7,14.1c-1,0-1.4-0.4-1.6-0.7c-0.8-1.1-0.5-3.4-0.2-4.6l3.4-1.7l-0.1-0.4c0.4-0.3,1.4-1,4.5-1.9l0.1,0
				c0.6-0.3,1.2-0.6,1.8-1C31,5,31.4,7,30.7,9c-0.7,1.9-2.3,3.3-4.8,4.3C24.6,13.8,23.6,14.1,22.7,14.1z"/>
		</g>
	</g>
	<g id="XMLID_1316_">
		<g>
			<path fill="#997960" d="M13,6.6c0,0,0.3-1-5.3-2.8c0,0-2.3-1.1-2.6-1.8c0,0-4.6,8.5,4.6,12.3S16,8.1,16,8.1L13,6.6z"/>
		</g>
	</g>
	<g id="XMLID_1315_">
		<g>
			<path fill="#8E6D53" d="M13.3,14.1c-0.8,0-1.9-0.3-3.2-0.8C7.6,12.3,6,10.8,5.3,9C4.6,7,5,5,5.4,3.8c0.6,0.4,1.2,0.7,1.8,1l0.1,0
				c3,1,4.1,1.7,4.5,1.9l-0.1,0.4l3.4,1.7c0.3,1.2,0.6,3.5-0.2,4.6C14.7,13.7,14.3,14.1,13.3,14.1L13.3,14.1z"/>
		</g>
	</g>
	<g id="XMLID_1314_">
		<g>
			<path fill="#997960" d="M25.4,10.8L25.4,10.8c0-4.1-3.1-7.6-7.2-7.7c-4.2-0.1-7.7,3.2-7.7,7.4v0.3c0,2.8-0.9,5.6-2.8,7.8
				c-1,1.1-1.6,2.5-1.6,3.9c0,4.3,5.3,7.8,11.8,7.8c6.5,0,11.8-3.5,11.8-7.8c0-1.4-0.6-2.8-1.6-3.9C26.3,16.4,25.4,13.6,25.4,10.8z"
				/>
		</g>
	</g>
	<g id="XMLID_1313_">
		<g>
			<path fill="#DDE3E9" d="M29.7,16.9c-1.8,4.3-5.9,7-10.1,6.5L17.9,29c4.8,0.5,9.6-2.8,11.2-8C29.6,19.6,29.7,18.2,29.7,16.9z"/>
		</g>
	</g>
	<g id="XMLID_1312_">
		<g>
			<path fill="#DDE3E9" d="M6.3,16.9c1.8,4.3,5.9,7,10.1,6.5l1.7,5.6c-4.8,0.5-9.6-2.8-11.2-8C6.4,19.6,6.3,18.2,6.3,16.9z"/>
		</g>
	</g>
	<g id="XMLID_1311_">
		<g>
			<path fill="#FFFFFF" d="M15.7,17.3c-0.4,0.3-0.8,0.6-1.4,0.6c-1.1,0-1.9-0.9-1.9-1.9c0-0.7,0.3-1.2,0.8-1.6
				c0.2,0.1,0.5,0.3,0.7,0.5c0.2,0.1,0.4,0.3,0.5,0.4c0.4,0.4,0.7,0.8,0.9,1.3C15.5,16.8,15.6,17,15.7,17.3z"/>
		</g>
	</g>
	<g id="XMLID_1310_">
		<g>
			<path fill="#2F3133" d="M15.4,16.5c-0.2,0.3-0.6,0.6-1,0.6c-0.7,0-1.2-0.5-1.2-1.2c0-0.5,0.3-0.9,0.8-1.1
				c0.2,0.1,0.4,0.3,0.5,0.4C14.8,15.6,15.1,16.1,15.4,16.5z"/>
		</g>
	</g>
	<g id="XMLID_1309_">
		<g>
			<path fill="#FFFFFF" d="M23.6,15.9c0,1.1-0.9,1.9-1.9,1.9c-0.5,0-1-0.2-1.4-0.6c0.3-0.8,0.7-1.4,1.3-2c0.2-0.2,0.3-0.3,0.5-0.4
				c0.2-0.2,0.5-0.3,0.7-0.5C23.3,14.7,23.6,15.3,23.6,15.9z"/>
		</g>
	</g>
	<g id="XMLID_1308_">
		<g>
			<path fill="#2F3133" d="M22.8,15.9c0,0.6-0.5,1.2-1.2,1.2c-0.4,0-0.8-0.2-1-0.6c0.2-0.5,0.6-0.9,0.9-1.3c0.2-0.2,0.3-0.3,0.5-0.4
				C22.5,15,22.8,15.4,22.8,15.9z"/>
		</g>
	</g>
	<g id="XMLID_1307_">
		<g>
			<circle fill="#997960" cx="18" cy="28.8" r="5.2"/>
		</g>
	</g>
	<g id="XMLID_1306_">
		<g>
			<path fill="#A4856D" d="M24.5,29c0,3.6-13,3.6-13,0s2.9-6.5,6.5-6.5S24.5,25.4,24.5,29z"/>
		</g>
	</g>
	<g id="XMLID_1305_">
		<g>
			<path fill="#2F3133" d="M22.9,26.3c-0.1-0.2-0.4-0.3-0.7-0.4c0,0,0,0,0,0c0,0,0,0-0.1,0c0,0-0.1,0-0.1,0c-0.1,0-0.1,0-0.2,0
				c0,0,0,0,0,0c-1.3,0.2-2.2,1.3-2.2,2.6c0,0.1,0.1,0.2,0.2,0.2s0.2-0.1,0.2-0.2c0-0.4,0.1-0.7,0.3-1c0.3,0.3,0.9,0.3,1.6,0.1
				C22.5,27.3,23,26.7,22.9,26.3z"/>
		</g>
	</g>
	<g id="XMLID_1304_">
		<g>
			<path fill="#2F3133" d="M13.1,26.3c0.1-0.2,0.4-0.3,0.7-0.4c0,0,0,0,0,0c0,0,0,0,0.1,0c0,0,0.1,0,0.1,0c0.1,0,0.1,0,0.2,0
				c0,0,0,0,0,0c1.3,0.2,2.2,1.3,2.2,2.6c0,0.1-0.1,0.2-0.2,0.2s-0.2-0.1-0.2-0.2c0-0.4-0.1-0.7-0.3-1c-0.3,0.3-0.9,0.3-1.6,0.1
				C13.5,27.3,13,26.7,13.1,26.3z"/>
		</g>
	</g>
	<g id="XMLID_1303_">
		<g>
			<path fill="#2F3133" d="M19.6,17.8c-0.1-0.3-0.1-0.8-0.1-1.2c0-0.7,0.4-1.6,1.1-2.4c0.7-0.6,1.4-1.1,2.4-1.1c0.4,0,0.9,0,1.2,0.1
				c-0.1,0-0.4,0.1-1,0.4c-0.6,0.2-1.3,0.7-1.9,1.3c-0.6,0.6-1,1.3-1.3,1.9C19.7,17.4,19.6,17.8,19.6,17.8z"/>
		</g>
	</g>
	<g id="XMLID_1302_">
		<g>
			<path fill="#2F3133" d="M16.4,17.8c0.1-0.3,0.1-0.8,0.1-1.2c0-0.7-0.4-1.6-1.1-2.4c-0.6-0.6-1.4-1.1-2.4-1.1
				c-0.4,0-0.9,0-1.2,0.1c0.1,0,0.4,0.1,1,0.4c0.6,0.2,1.3,0.7,1.9,1.3c0.6,0.6,1,1.3,1.3,1.9C16.3,17.4,16.4,17.8,16.4,17.8z"/>
		</g>
	</g>
</g>
</svg>
