<?xml version="1.0" encoding="utf-8"?>
<!-- Generator: Adobe Illustrator 18.0.0, SVG Export Plug-In . SVG Version: 6.00 Build 0)  -->
<!DOCTYPE svg PUBLIC "-//W3C//DTD SVG 1.1//EN" "http://www.w3.org/Graphics/SVG/1.1/DTD/svg11.dtd">
<svg version="1.1" id="Layer_1" xmlns="http://www.w3.org/2000/svg" xmlns:xlink="http://www.w3.org/1999/xlink" x="0px" y="0px"
	 viewBox="0 0 36 36" enable-background="new 0 0 36 36" xml:space="preserve">
<g id="XMLID_1240_">
	<g id="XMLID_1267_">
		<g>
			<path fill="#3F4347" d="M18,34L18,34c0.5,0,0.8-0.4,0.8-0.8v-2.8h-1.7v2.8C17.2,33.6,17.5,34,18,34z"/>
		</g>
	</g>
	<g id="XMLID_1262_">
		<g id="XMLID_1265_">
			<g id="XMLID_1266_">
				<g>
					<path fill="#3F4347" d="M14.9,6.7c0.1,0,0.1,0,0.2-0.1c0.5-0.5,0.8-1.2,0.8-2s-0.3-1.5-0.8-2c-0.9-0.9-2.4-0.9-3.3,0
						c-0.7,0.7-0.7,1.9,0,2.7c0.6,0.6,1.6,0.6,2.2,0c0.1-0.1,0.1-0.3,0-0.4s-0.3-0.1-0.4,0c-0.4,0.4-1.1,0.4-1.5,0
						c-0.5-0.5-0.5-1.4,0-1.9c0.7-0.7,1.8-0.7,2.5,0c0.4,0.4,0.7,1,0.7,1.6c0,0.6-0.2,1.2-0.7,1.6c-0.1,0.1-0.1,0.3,0,0.4
						C14.8,6.7,14.9,6.7,14.9,6.7z"/>
				</g>
			</g>
		</g>
		<g id="XMLID_1263_">
			<g id="XMLID_1264_">
				<g>
					<path fill="#3F4347" d="M21.1,6.7c-0.1,0-0.1,0-0.2-0.1c-0.5-0.5-0.8-1.2-0.8-2s0.3-1.5,0.8-2c0.9-0.9,2.4-0.9,3.3,0
						c0.7,0.7,0.7,1.9,0,2.7c-0.6,0.6-1.6,0.6-2.2,0c-0.1-0.1-0.1-0.3,0-0.4c0.1-0.1,0.3-0.1,0.4,0c0.4,0.4,1.1,0.4,1.5,0
						c0.5-0.5,0.5-1.4,0-1.9c-0.7-0.7-1.8-0.7-2.5,0c-0.4,0.4-0.7,1-0.7,1.6c0,0.6,0.2,1.2,0.7,1.6c0.1,0.1,0.1,0.3,0,0.4
						C21.2,6.7,21.1,6.7,21.1,6.7z"/>
				</g>
			</g>
		</g>
	</g>
	<g id="XMLID_1259_">
		<g id="XMLID_1261_">
			<g>
				<path fill="#DAE5EF" d="M6.1,23.8c0-0.4,0.1-0.8,0.2-1.1c-1-0.5-1.7-1.5-1.7-2.7c0-1.2,0.7-2.2,1.7-2.7
					c-0.1-0.4-0.2-0.7-0.2-1.1c0-1.7,1.3-3,3-3s8.6,6.4,8.6,6.8c0,0.4-7,6.8-8.6,6.8S6.1,25.4,6.1,23.8z"/>
			</g>
		</g>
		<g id="XMLID_1260_">
			<g>
				<path fill="#DAE5EF" d="M29.9,16.1c0,0.4-0.1,0.8-0.2,1.1c1,0.5,1.7,1.5,1.7,2.7c0,1.2-0.7,2.2-1.7,2.7c0.1,0.4,0.2,0.7,0.2,1.1
					c0,1.7-1.3,3-3,3c-1.7,0-8.6-6.4-8.6-6.8c0-0.4,7-6.8,8.6-6.8C28.5,13.1,29.9,14.5,29.9,16.1z"/>
			</g>
		</g>
	</g>
	<g id="XMLID_1258_">
		<g>
			<path fill="#F3C432" d="M17.8,32.2h0.5c2.7,0,4.9-2.2,4.9-4.9v-8.2c0-2.7-2.2-4.9-4.9-4.9h-0.5c-2.7,0-4.9,2.2-4.9,4.9v8.2
				C12.9,30,15.1,32.2,17.8,32.2z"/>
		</g>
	</g>
	<g id="XMLID_1255_">
		<g id="XMLID_1257_">
			<g>
				<path fill="#3F4347" d="M12.9,19.4v2.1h10.3v-2.1c0-0.3,0-0.6-0.1-0.9H12.9C12.9,18.8,12.9,19.1,12.9,19.4z"/>
			</g>
		</g>
		<g id="XMLID_1256_">
			<g>
				<path fill="#3F4347" d="M12.9,25V27c0,0.3,0,0.6,0.1,0.9h10.1c0.1-0.3,0.1-0.6,0.1-0.9V25H12.9z"/>
			</g>
		</g>
	</g>
	<g id="XMLID_1254_">
		<g>
			<circle fill="#FFD83B" cx="18" cy="10.6" r="5.7"/>
		</g>
	</g>
	<g id="XMLID_1245_">
		<g id="XMLID_1250_">
			<g id="XMLID_1253_">
				<g>
					<circle fill="#FFFFFF" cx="21" cy="9.1" r="1.9"/>
				</g>
			</g>
			<g id="XMLID_1252_">
				<g>
					<circle fill="#3F4347" cx="21" cy="9.1" r="1.2"/>
				</g>
			</g>
			<g id="XMLID_1251_">
				<g>
					<circle fill="#FFFFFF" cx="21.8" cy="8.3" r="0.5"/>
				</g>
			</g>
		</g>
		<g id="XMLID_1246_">
			<g id="XMLID_1249_">
				<g>
					<circle fill="#FFFFFF" cx="15" cy="9.1" r="1.9"/>
				</g>
			</g>
			<g id="XMLID_1248_">
				<g>
					<circle fill="#3F4347" cx="15" cy="9.1" r="1.2"/>
				</g>
			</g>
			<g id="XMLID_1247_">
				<g>
					<circle fill="#FFFFFF" cx="15.8" cy="8.3" r="0.5"/>
				</g>
			</g>
		</g>
	</g>
	<g id="XMLID_1244_">
		<g>
			<path fill="#3F4347" d="M16,12.7c0.2,0.3,0.5,0.6,0.8,0.8c0.2,0.1,0.4,0.2,0.6,0.2c0.2,0.1,0.4,0.1,0.6,0.1c0.3,0,0.4,0,0.6-0.1
				c0.2-0.1,0.4-0.1,0.6-0.2c0.3-0.2,0.6-0.5,0.8-0.8h0.3c0,0,0,0.1,0,0.1c-0.2,0.3-0.4,0.7-0.8,1c-0.2,0.1-0.4,0.3-0.7,0.3
				c-0.2,0.1-0.5,0.1-0.8,0.1c-0.3,0-0.5,0-0.8-0.1c-0.2-0.1-0.5-0.2-0.7-0.3c-0.4-0.3-0.7-0.7-0.8-1c0,0,0-0.1,0-0.1H16z"/>
		</g>
	</g>
	<g id="XMLID_1241_">
		<g id="XMLID_1243_">
			<g>
				<path fill="#F3C432" d="M14.5,13.3c0,0,0,0,0.1,0c0.1,0,0.2,0,0.4,0c0.1,0,0.3,0,0.5-0.1c0.2-0.1,0.3-0.2,0.5-0.3
					c0.3-0.3,0.4-0.7,0.5-1c0-0.1,0-0.3,0-0.4c0-0.1,0-0.1,0-0.1s-0.1,0.2-0.2,0.4c-0.1,0.2-0.3,0.5-0.5,0.8
					c-0.1,0.1-0.2,0.2-0.4,0.3c-0.1,0.1-0.3,0.2-0.4,0.2c-0.1,0-0.2,0.1-0.3,0.1C14.5,13.3,14.5,13.3,14.5,13.3z"/>
			</g>
		</g>
		<g id="XMLID_1242_">
			<g>
				<path fill="#F3C432" d="M21.5,13.3c0,0,0,0-0.1,0c-0.1,0-0.2,0-0.4,0c-0.1,0-0.3,0-0.5-0.1c-0.2-0.1-0.3-0.2-0.5-0.3
					c-0.3-0.3-0.4-0.7-0.5-1c0-0.1,0-0.3,0-0.4c0-0.1,0-0.1,0-0.1s0.1,0.2,0.2,0.4c0.1,0.2,0.3,0.5,0.5,0.8c0.1,0.1,0.2,0.2,0.4,0.3
					c0.1,0.1,0.3,0.2,0.4,0.2c0.1,0,0.2,0.1,0.3,0.1C21.5,13.3,21.5,13.3,21.5,13.3z"/>
			</g>
		</g>
	</g>
</g>
</svg>
