<?xml version="1.0" encoding="utf-8"?>
<!-- Generator: Adobe Illustrator 18.0.0, SVG Export Plug-In . SVG Version: 6.00 Build 0)  -->
<!DOCTYPE svg PUBLIC "-//W3C//DTD SVG 1.1//EN" "http://www.w3.org/Graphics/SVG/1.1/DTD/svg11.dtd">
<svg version="1.1" id="Layer_1" xmlns="http://www.w3.org/2000/svg" xmlns:xlink="http://www.w3.org/1999/xlink" x="0px" y="0px"
	 viewBox="0 0 36 36" enable-background="new 0 0 36 36" xml:space="preserve">
<g>
	<g>
		<g id="XMLID_1013_">
			<g id="XMLID_1029_">
				<g id="XMLID_1031_">
					<g>
						<path fill="#8F6D52" d="M27.1,12.6c-2.1-0.1-4.4,1.3-5.3,3.2l-0.5,1.3l1.4,0.1c2.1,0.1,4.4-1.3,5.3-3.2l0,0
							C28.2,13.4,27.8,12.7,27.1,12.6L27.1,12.6z"/>
					</g>
				</g>
				<g id="XMLID_1030_">
					<g>
						<path fill="#8F6D52" d="M8.9,12.6c2.1-0.1,4.4,1.3,5.3,3.2l0.5,1.3l-1.4,0.1C11.2,17.4,8.8,15.9,8,14l0,0
							C7.8,13.4,8.2,12.7,8.9,12.6L8.9,12.6z"/>
					</g>
				</g>
			</g>
			<g id="XMLID_1028_">
				<g>
					<path fill="#9A795F" d="M25.6,17.8c0,4.2-3.4,12-7.6,12s-7.6-7.8-7.6-12s3.4-7.6,7.6-7.6S25.6,13.6,25.6,17.8z"/>
				</g>
			</g>
			<g id="XMLID_1017_">
				<g id="XMLID_1018_">
					<g>
						<path fill="#3E4347" d="M18.9,26.4l1.1-1.7c0.1-0.1,0.1-0.2,0.1-0.3c0.3-0.9-4.6-0.9-4.3,0c0,0.1,0.1,0.2,0.1,0.3l1.1,1.7
							c0.2,0.2,0.4,0.4,0.6,0.4v0.7c-0.5-0.1-1-0.3-1.4-0.7c-0.1-0.1-0.2-0.1-0.3,0c-0.1,0.1-0.1,0.2,0,0.3c0.6,0.6,1.3,0.8,2,0.8
							s1.5-0.3,2-0.8c0.1-0.1,0.1-0.2,0-0.3s-0.2-0.1-0.3,0c-0.4,0.4-0.9,0.6-1.4,0.7v-0.7C18.5,26.8,18.8,26.6,18.9,26.4z"/>
					</g>
				</g>
			</g>
			<g id="XMLID_1014_">
				<g>
					<g id="XMLID_1016_">
						<g>
							<path fill="#3E4347" d="M32.7,19.4c-0.6,1.1-1.8,1.8-3.1,1.6c-0.5-0.1-1.1-0.3-1.6-0.8c-0.8-0.8-1.1-1.8-0.9-2.8
								c0.2-0.8,0.8-1.7,2.4-2.1c0,0-1.4,1.8,0.1,2.5c1,0.5,1.4-1.1,1.5-2.2c0.1-1-0.1-2-0.6-2.9c-0.6-1-1.8-2-4.1-1.4
								c-2.2,0.5-3.1,2.3-3.6,3.9c-1.2-1.5-2.4-2.8-3.8-3.8c0.5-0.7,4.5-6.6,9.8-4.9c1.8,0.6,3.3,2,4.1,3.7
								C33.9,12.3,34.8,15.7,32.7,19.4z"/>
						</g>
					</g>
				</g>
				<g id="XMLID_1015_">
					<g>
						<path fill="#3E4347" d="M16.9,11.4c-1.4,1.1-2.7,2.4-3.8,3.8c-0.4-1.6-1.4-3.4-3.6-3.9c-2.3-0.5-3.5,0.4-4.1,1.4
							c-0.5,0.9-0.7,1.9-0.6,2.9c0.1,1.1,0.5,2.7,1.5,2.2c1.5-0.7,0.1-2.5,0.1-2.5c1.6,0.4,2.2,1.3,2.4,2.1c0.3,1-0.1,2.1-0.9,2.8
							C7.5,20.7,6.9,21,6.3,21c-1.3,0.2-2.4-0.5-3.1-1.6c-2.1-3.7-1.2-7.2-0.2-9.3C3.9,8.4,5.3,7,7.1,6.4
							C12.4,4.7,16.4,10.6,16.9,11.4z"/>
					</g>
				</g>
			</g>
		</g>
		<g>
			<g>
				<g>
					<g>
						<path fill="#997960" d="M23.5,16.6c-0.7-1-0.8-1.6-2.4-3.2C20,12.3,18.3,11.2,18,11c-0.6,0.3-2.1,1.3-3.1,2.3
							c-1.6,1.6-1.6,2.2-2.4,3.2c0-0.6,0.8-2.4,2-3.6c1.2-1.2,3-2,3.5-2c0,0,0.1,0,0.1,0c1,0.2,2.4,0.9,3.5,2
							C22.7,14.1,23.5,16,23.5,16.6z"/>
					</g>
				</g>
			</g>
		</g>
	</g>
	<g>
		<g id="XMLID_1020_">
			<g>
				<g id="XMLID_1023_">
					<g>
						<circle fill="#FFFFFF" cx="21" cy="18.2" r="1.8"/>
					</g>
				</g>
			</g>
			<g>
				<g id="XMLID_1022_">
					<g>
						<circle fill="#2F3133" cx="21" cy="18.2" r="1"/>
					</g>
				</g>
			</g>
			<g id="XMLID_1021_">
				<g>
					<circle fill="#FFFFFF" cx="20.4" cy="17.5" r="0.5"/>
				</g>
			</g>
		</g>
		<g id="XMLID_5_">
			<g>
				<g id="XMLID_8_">
					<g>
						<circle fill="#FFFFFF" cx="15" cy="18.2" r="1.8"/>
					</g>
				</g>
			</g>
			<g>
				<g id="XMLID_7_">
					<g>
						<circle fill="#2F3133" cx="15" cy="18.2" r="1"/>
					</g>
				</g>
			</g>
			<g id="XMLID_6_">
				<g>
					<circle fill="#FFFFFF" cx="14.3" cy="17.5" r="0.5"/>
				</g>
			</g>
		</g>
	</g>
</g>
</svg>
