<?xml version="1.0" encoding="utf-8"?>
<!-- Generator: Adobe Illustrator 18.0.0, SVG Export Plug-In . SVG Version: 6.00 Build 0)  -->
<!DOCTYPE svg PUBLIC "-//W3C//DTD SVG 1.1//EN" "http://www.w3.org/Graphics/SVG/1.1/DTD/svg11.dtd">
<svg version="1.1" id="Layer_1" xmlns="http://www.w3.org/2000/svg" xmlns:xlink="http://www.w3.org/1999/xlink" x="0px" y="0px"
	 viewBox="0 0 36 36" enable-background="new 0 0 36 36" xml:space="preserve">
<g id="XMLID_1222_">
	<g id="XMLID_1239_">
		<g>
			<path fill="#DAE5EF" d="M29.2,3c0-0.1,0-0.1,0-0.2c0-0.9,1.2-1.2,1.5-0.3c0.5,1.1,0.7,2.3,0.8,3.5c0.1,4.8-3.9,9-8.7,9.1
				l-0.6-5.4C26.1,9.8,29.2,6.8,29.2,3z"/>
		</g>
	</g>
	<g id="XMLID_1238_">
		<g>
			<path fill="#DAE5EF" d="M6.8,3c0-0.1,0-0.1,0-0.2c0-0.9-1.2-1.2-1.5-0.3C4.8,3.6,4.5,4.8,4.5,6c-0.1,4.8,3.9,9,8.7,9.1l0.6-5.4
				C9.9,9.8,6.8,6.8,6.8,3z"/>
		</g>
	</g>
	<g id="XMLID_1237_">
		<g>
			<path fill="#FFD68C" d="M21.8,9.7c-0.8,0-1.6,0.2-2.3,0.5c-0.9,0.4-2,0.4-3,0c-0.7-0.3-1.5-0.5-2.3-0.5c-3.4,0-6.2,2.8-6.2,6.2
				c0,3.4,2.8,14.3,6.2,14.3c2.1,0,5.5,0,7.6,0c3.4,0,6.2-10.9,6.2-14.3C28,12.4,25.2,9.7,21.8,9.7z"/>
		</g>
	</g>
	<g id="XMLID_1236_">
		<g>
			<path fill="#997960" d="M22.4,33.8c-2.9,0.3-5.8,0.3-8.7,0c-0.6-0.1-1.2-0.5-1.5-1.1c-0.9-1.7-1.3-3.4-1.1-5.1
				c0.1-0.8,0.7-1.5,1.6-1.6c3.5-0.5,7.1-0.5,10.6,0c0.8,0.1,1.5,0.8,1.6,1.6c0.2,1.6-0.2,3.3-1.1,5.1C23.5,33.3,23,33.7,22.4,33.8z
				"/>
		</g>
	</g>
	<g id="XMLID_1233_">
		<g id="XMLID_1235_">
			<g>
				
					<ellipse transform="matrix(0.9113 -0.4118 0.4118 0.9113 -11.1328 8.6029)" fill="#3F4347" cx="14.4" cy="30.1" rx="0.7" ry="1.5"/>
			</g>
		</g>
		<g id="XMLID_1234_">
			<g>
				
					<ellipse transform="matrix(-0.9113 -0.4118 0.4118 -0.9113 28.8758 66.497)" fill="#3F4347" cx="21.6" cy="30.1" rx="0.7" ry="1.5"/>
			</g>
		</g>
	</g>
	<g id="XMLID_1232_">
		<g>
			<path fill="#997960" d="M27.4,12.7c0-3-4.2-5.5-9.4-5.5c-5.2,0-9.4,2.5-9.4,5.5c0,0.9,1.7,1.5,4,1.9c0.5,0.8,1,1.3,1,1.3
				s0.4-0.4,0.8-1.1c0.1,0,0.2,0,0.2,0c0.5,1,1.1,1.6,1.1,1.6s0.5-0.5,1-1.3c0.5,1.1,1.2,1.8,1.2,1.8s0.8-0.7,1.2-1.8
				c0.5,0.8,1,1.3,1,1.3s0.7-0.6,1.1-1.6c0.1,0,0.2,0,0.2,0c0.4,0.7,0.8,1.1,0.8,1.1s0.5-0.5,1-1.3C25.7,14.2,27.4,13.6,27.4,12.7z"
				/>
		</g>
	</g>
	<g id="XMLID_1223_">
		<g id="XMLID_1228_">
			<g id="XMLID_1231_">
				<g>
					<circle fill="#FFFFFF" cx="13.9" cy="19.6" r="2.1"/>
				</g>
			</g>
			<g id="XMLID_1230_">
				<g>
					<circle fill="#3F4347" cx="13.9" cy="19.6" r="1.3"/>
				</g>
			</g>
			<g id="XMLID_1229_">
				<g>
					<circle fill="#FFFFFF" cx="13" cy="18.7" r="0.6"/>
				</g>
			</g>
		</g>
		<g id="XMLID_1224_">
			<g id="XMLID_1227_">
				<g>
					<circle fill="#FFFFFF" cx="22.1" cy="19.6" r="2.1"/>
				</g>
			</g>
			<g id="XMLID_1226_">
				<g>
					<circle fill="#3F4347" cx="22.1" cy="19.6" r="1.3"/>
				</g>
			</g>
			<g id="XMLID_1225_">
				<g>
					<circle fill="#FFFFFF" cx="21.2" cy="18.7" r="0.6"/>
				</g>
			</g>
		</g>
	</g>
</g>
</svg>
