<?xml version="1.0" encoding="utf-8"?>
<!-- Generator: Adobe Illustrator 18.0.0, SVG Export Plug-In . SVG Version: 6.00 Build 0)  -->
<!DOCTYPE svg PUBLIC "-//W3C//DTD SVG 1.1//EN" "http://www.w3.org/Graphics/SVG/1.1/DTD/svg11.dtd">
<svg version="1.1" id="Layer_1" xmlns="http://www.w3.org/2000/svg" xmlns:xlink="http://www.w3.org/1999/xlink" x="0px" y="0px"
	 viewBox="0 0 36 36" enable-background="new 0 0 36 36" xml:space="preserve">
<g id="XMLID_1441_">
	<g id="XMLID_1442_">
		<g id="XMLID_1457_">
			<g id="XMLID_1461_">
				<g id="XMLID_1463_">
					<g>
						<path fill="#83939A" d="M20,13.4c-0.1-5.7,4-8.1,7.8-6c1.7,0.9,5,3,6.1,5.6c0.5,1.1-0.8,2.3-1.8,1.6c0,0,0,0,0,0
							c0,0,1.6,1.6,0.5,2.5c-0.7,0.6-1.9,0.3-2.5-0.2c0,0,0.8,1.9-0.3,2.4c0,0-1.1,0.7-2.5-0.4L20,13.4z"/>
					</g>
				</g>
				<g id="XMLID_1462_">
					<g>
						
							<ellipse transform="matrix(-0.7612 0.6486 -0.6486 -0.7612 54.5491 7.407)" fill="#ABB8C1" cx="25.9" cy="13.7" rx="3.8" ry="4.8"/>
					</g>
				</g>
			</g>
			<g id="XMLID_1458_">
				<g id="XMLID_1460_">
					<g>
						<path fill="#83939A" d="M16,13.4c0.1-5.7-4-8.1-7.8-6c-1.7,0.9-5,3-6.1,5.6c-0.5,1.1,0.8,2.3,1.8,1.6c0,0,0,0,0,0
							c0,0-1.6,1.6-0.5,2.5c0.7,0.6,1.9,0.3,2.5-0.2c0,0-0.8,1.9,0.3,2.4c0,0,1.1,0.7,2.5-0.4L16,13.4z"/>
					</g>
				</g>
				<g id="XMLID_1459_">
					<g>
						
							<ellipse transform="matrix(0.7612 0.6486 -0.6486 0.7612 11.3258 -3.2601)" fill="#ABB8C1" cx="10.1" cy="13.7" rx="3.8" ry="4.8"/>
					</g>
				</g>
			</g>
		</g>
		<g id="XMLID_1456_">
			<g>
				<path fill="#83939A" d="M28.9,21.6c0.1,3.7-5.4,7.9-10.9,7.7c-5.5,0.1-11-4-10.9-7.7C7.1,14.2,12,8.5,18,8.4
					C24,8.5,28.9,14.2,28.9,21.6z"/>
			</g>
		</g>
		<g id="XMLID_1455_">
			<g>
				<path fill="#DAE5EF" d="M21.7,28.8l0.6-2.5c0.6-2.7-1.4-5.3-4.2-5.3h0c-2.8,0-4.8,2.6-4.2,5.3l0.6,2.5c1.2,0.4,2.4,0.5,3.7,0.5
					C19.2,29.4,20.5,29.2,21.7,28.8z"/>
			</g>
		</g>
		<g id="XMLID_1454_">
			<g>
				<path fill="#3F4347" d="M18,25.7L18,25.7c-1,0-2.2-0.9-2.4-2c-0.1-1.1-0.1-2.3,0-3.4c0.2-1.1,1.4-2,2.4-2l0,0c1,0,2.2,0.9,2.4,2
					c0.1,1.1,0.1,2.3,0,3.4C20.2,24.8,19,25.7,18,25.7z"/>
			</g>
		</g>
		<g id="XMLID_1452_">
			<g id="XMLID_1453_">
				<g>
					<path fill="#3F4347" d="M18,28.1c-0.7,0-1.4-0.3-2-0.8c-0.2-0.2-0.2-0.4,0-0.6c0.2-0.2,0.4-0.2,0.6,0c0.7,0.7,2,0.7,2.7,0
						c0.2-0.2,0.4-0.2,0.6,0c0.2,0.2,0.2,0.4,0,0.6C19.4,27.8,18.7,28.1,18,28.1z"/>
				</g>
			</g>
		</g>
		<g id="XMLID_1443_">
			<g id="XMLID_1448_">
				<g id="XMLID_1451_">
					<g>
						<circle fill="#FFFFFF" cx="13.4" cy="16.6" r="1.9"/>
					</g>
				</g>
				<g id="XMLID_1450_">
					<g>
						<circle fill="#3F4347" cx="13.4" cy="16.6" r="1.2"/>
					</g>
				</g>
				<g id="XMLID_1449_">
					<g>
						<circle fill="#FFFFFF" cx="12.6" cy="15.8" r="0.5"/>
					</g>
				</g>
			</g>
			<g id="XMLID_1444_">
				<g id="XMLID_1447_">
					<g>
						<circle fill="#FFFFFF" cx="22.6" cy="16.6" r="1.9"/>
					</g>
				</g>
				<g id="XMLID_1446_">
					<g>
						<circle fill="#3F4347" cx="22.6" cy="16.6" r="1.2"/>
					</g>
				</g>
				<g id="XMLID_1445_">
					<g>
						<circle fill="#FFFFFF" cx="21.8" cy="15.8" r="0.5"/>
					</g>
				</g>
			</g>
		</g>
	</g>
</g>
</svg>
