<?xml version="1.0" encoding="utf-8"?>
<!-- Generator: Adobe Illustrator 18.0.0, SVG Export Plug-In . SVG Version: 6.00 Build 0)  -->
<!DOCTYPE svg PUBLIC "-//W3C//DTD SVG 1.1//EN" "http://www.w3.org/Graphics/SVG/1.1/DTD/svg11.dtd">
<svg version="1.1" id="Layer_1" xmlns="http://www.w3.org/2000/svg" xmlns:xlink="http://www.w3.org/1999/xlink" x="0px" y="0px"
	 viewBox="0 0 36 36" enable-background="new 0 0 36 36" xml:space="preserve">
<g id="XMLID_1178_">
	<g id="XMLID_1219_">
		<g id="XMLID_1221_">
			<g>
				
					<ellipse transform="matrix(0.8906 0.4548 -0.4548 0.8906 6.8619 -11.7867)" fill="#F2992D" cx="27.9" cy="8.4" rx="4" ry="6.9"/>
			</g>
		</g>
		<g id="XMLID_1220_">
			<g>
				<path fill="#FDE7AA" d="M25.9,13.2c-0.2,0-0.3,0-0.4-0.1c-0.9-0.4-1.2-2.9,0.3-5.8c1.2-2.4,3.1-3.7,4.1-3.7c0.2,0,0.3,0,0.4,0.1
					c0.4,0.2,0.7,0.9,0.7,1.8c0.1,1.2-0.3,2.7-1,4.1C28.8,11.9,27,13.2,25.9,13.2z"/>
			</g>
		</g>
	</g>
	<g id="XMLID_1216_">
		<g id="XMLID_1218_">
			<g>
				<ellipse transform="matrix(-0.8906 0.4548 -0.4548 -0.8906 19.0662 12.15)" fill="#F2992D" cx="8.1" cy="8.4" rx="4" ry="6.9"/>
			</g>
		</g>
		<g id="XMLID_1217_">
			<g>
				<path fill="#FDE7AA" d="M10.1,13.2c1.4,0,1.6-2.9,0.1-5.9C8.9,4.7,6.7,3.1,5.7,3.6c-1,0.5-1.1,3.2,0.3,5.8
					C7.2,11.9,9,13.2,10.1,13.2z"/>
			</g>
		</g>
	</g>
	<g id="XMLID_1215_">
		<g>
			<path fill="#F2992D" d="M31.3,12.7C24-0.5,12-0.5,4.7,12.7c-1.8,3.3-2,6.9,0.1,10.7c1.5,2.7,3.7,4.8,6.1,6.1l1.3,1.6
				c3.2,4,8.4,4,11.6,0l1.3-1.6c2.5-1.3,4.6-3.3,6.1-6.1C33.1,20,33.3,16.3,31.3,12.7z"/>
		</g>
	</g>
	<g id="XMLID_1214_">
		<g>
			<path fill="#3F4347" d="M18,28.2c-0.8,1-1.6,1.9-2.6,2.7c-0.3,0.3-0.1,0.8,0.3,0.7c1.5-0.1,3.1-0.1,4.5,0c0.4,0,0.6-0.5,0.3-0.7
				C19.6,30.1,18.8,29.2,18,28.2z"/>
		</g>
	</g>
	<g id="XMLID_1213_">
		<g>
			<path fill="#FDE7AA" d="M24.6,25c-1-1.5-1.9-3-2.5-4.7C21.1,17.7,19.7,16,18,16c-1.7,0-3.1,1.7-4.1,4.4c-0.6,1.7-1.5,3.2-2.5,4.7
				c-0.6,0.8-0.9,1.8-0.8,3c0.2,2,1.9,3.5,3.9,3.7c1.4,0.1,2.7-0.5,3.5-1.5c0.8,1,2.1,1.6,3.5,1.5c2-0.1,3.6-1.7,3.9-3.7
				C25.5,26.9,25.2,25.9,24.6,25z"/>
		</g>
	</g>
	<g id="XMLID_1212_">
		<g>
			<path fill="#3F4347" d="M20.4,26.1c-1.6,0.5-3.3,0.5-4.8,0c-0.5-0.1-1,0.3-0.7,0.8c0.6,1.1,1.5,2.6,2.6,3.4
				c0.3,0.2,0.8,0.2,1.2,0c1.1-0.9,2-2.4,2.6-3.4C21.4,26.4,20.9,25.9,20.4,26.1z"/>
		</g>
	</g>
	<g id="XMLID_1201_">
		<g id="XMLID_1207_">
			<g id="XMLID_1211_">
				<g>
					<path fill="#3F4347" d="M26.9,15.1c0,1.4-1.1,2.5-2.5,2.5c-0.8,0-1.6-0.4-2-1c-0.1-1.9,1.6-3.6,3.5-3.5
						C26.2,13.2,26.9,14.1,26.9,15.1z"/>
				</g>
			</g>
			<g id="XMLID_1210_">
				<g>
					<circle fill="#DAE5EF" cx="24.5" cy="15.2" r="1.4"/>
				</g>
			</g>
			<g id="XMLID_1209_">
				<g>
					<circle fill="#3F4347" cx="24.5" cy="15.2" r="0.7"/>
				</g>
			</g>
			<g id="XMLID_1208_">
				<g>
					<path fill="#3F4347" d="M27,13c-0.6,0.3-0.8,0.3-1.5,0.7c-1,0.5-1.6,1.3-2.2,2c-1.1,1.9-0.4,0.8-1,2c-0.3-0.9-0.2-1.6,0.2-2.5
						c0.7-1.4,1.7-2.1,2.7-2.3c0.2,0,1-0.2,1.1-0.1C26.5,12.9,26.9,13,27,13z"/>
				</g>
			</g>
		</g>
		<g id="XMLID_1202_">
			<g id="XMLID_1206_">
				<g>
					<path fill="#3F4347" d="M9.1,15.1c0,1.4,1.1,2.5,2.5,2.5c0.8,0,1.6-0.4,2-1c0.1-1.9-1.6-3.6-3.5-3.5
						C9.8,13.2,9.1,14.1,9.1,15.1z"/>
				</g>
			</g>
			<g id="XMLID_1205_">
				<g>
					<circle fill="#DAE5EF" cx="11.5" cy="15.2" r="1.4"/>
				</g>
			</g>
			<g id="XMLID_1204_">
				<g>
					<circle fill="#3F4347" cx="11.5" cy="15.2" r="0.7"/>
				</g>
			</g>
			<g id="XMLID_1203_">
				<g>
					<path fill="#3F4347" d="M9,13c0.6,0.3,0.8,0.3,1.5,0.7c0.2,0.1,0.8,0.5,1.4,1.1c0.3,0.4,0.9,1,1.1,1.4c0.5,0.9,0.3,0.8,0.7,1.5
						c0.2-0.6,0.2-1.1,0.1-1.8c-0.2-0.8-0.6-1.4-1.1-1.9c-0.8-0.7-1.4-1-1.9-1.1c-0.2,0-1-0.2-1.1-0.1C9.5,12.9,9.1,13,9,13z"/>
				</g>
			</g>
		</g>
	</g>
	<g id="XMLID_1190_">
		<g id="XMLID_1196_">
			<g id="XMLID_1200_">
				<g>
					<circle fill="#3F4347" cx="15.2" cy="6.9" r="0.6"/>
				</g>
			</g>
			<g id="XMLID_1199_">
				<g>
					<circle fill="#3F4347" cx="13" cy="9.7" r="0.6"/>
				</g>
			</g>
			<g id="XMLID_1198_">
				<g>
					<circle fill="#3F4347" cx="18.6" cy="10.7" r="0.6"/>
				</g>
			</g>
			<g id="XMLID_1197_">
				<g>
					<circle fill="#3F4347" cx="15.9" cy="9.5" r="1.1"/>
				</g>
			</g>
		</g>
		<g id="XMLID_1191_">
			<g id="XMLID_1195_">
				<g>
					<circle fill="#3F4347" cx="22.4" cy="6.4" r="0.6"/>
				</g>
			</g>
			<g id="XMLID_1194_">
				<g>
					<circle fill="#3F4347" cx="19" cy="7.4" r="0.6"/>
				</g>
			</g>
			<g id="XMLID_1193_">
				<g>
					<circle fill="#3F4347" cx="23" cy="11.4" r="0.6"/>
				</g>
			</g>
			<g id="XMLID_1192_">
				<g>
					<circle fill="#3F4347" cx="21.5" cy="8.9" r="1.1"/>
				</g>
			</g>
		</g>
	</g>
	<g id="XMLID_1179_">
		<g id="XMLID_1185_">
			<g id="XMLID_1189_">
				<g>
					<circle fill="#3F4347" cx="6.6" cy="20.2" r="0.6"/>
				</g>
			</g>
			<g id="XMLID_1188_">
				<g>
					<circle fill="#3F4347" cx="7.6" cy="23.6" r="0.6"/>
				</g>
			</g>
			<g id="XMLID_1187_">
				<g>
					<circle fill="#3F4347" cx="11.6" cy="19.6" r="0.6"/>
				</g>
			</g>
			<g id="XMLID_1186_">
				<g>
					<circle fill="#3F4347" cx="9.1" cy="21.1" r="1.1"/>
				</g>
			</g>
		</g>
		<g id="XMLID_1180_">
			<g id="XMLID_1184_">
				<g>
					<circle fill="#3F4347" cx="29.4" cy="20.2" r="0.6"/>
				</g>
			</g>
			<g id="XMLID_1183_">
				<g>
					<circle fill="#3F4347" cx="28.4" cy="23.6" r="0.6"/>
				</g>
			</g>
			<g id="XMLID_1182_">
				<g>
					<circle fill="#3F4347" cx="24.4" cy="19.6" r="0.6"/>
				</g>
			</g>
			<g id="XMLID_1181_">
				<g>
					<circle fill="#3F4347" cx="26.9" cy="21.1" r="1.1"/>
				</g>
			</g>
		</g>
	</g>
</g>
</svg>
