<?xml version="1.0" encoding="utf-8"?>
<!-- Generator: Adobe Illustrator 18.0.0, SVG Export Plug-In . SVG Version: 6.00 Build 0)  -->
<!DOCTYPE svg PUBLIC "-//W3C//DTD SVG 1.1//EN" "http://www.w3.org/Graphics/SVG/1.1/DTD/svg11.dtd">
<svg version="1.1" id="Layer_1" xmlns="http://www.w3.org/2000/svg" xmlns:xlink="http://www.w3.org/1999/xlink" x="0px" y="0px"
	 viewBox="0 0 36 36" enable-background="new 0 0 36 36" xml:space="preserve">
<g id="XMLID_1091_">
	<g id="XMLID_1126_">
		<g id="XMLID_1164_">
			<g>
				<path fill="#F3C432" d="M19.3,10.9c0-3-0.5-5.5-0.5-5.5s-0.5,2.5-0.5,5.5c0,3,0.5,5.5,0.5,5.5S19.3,13.9,19.3,10.9z"/>
			</g>
		</g>
		<g id="XMLID_1163_">
			<g>
				<path fill="#F3C432" d="M18.4,25.1c0,3,0.5,5.5,0.5,5.5s0.5-2.5,0.5-5.5c0-3-0.5-5.5-0.5-5.5S18.4,22.1,18.4,25.1z"/>
			</g>
		</g>
		<g id="XMLID_1162_">
			<g>
				<path fill="#F3C432" d="M18.6,16.4c0,0,0-2.5-0.5-5.5c-0.5-3-1.4-5.3-1.4-5.3s0,2.5,0.5,5.5C17.7,14.1,18.6,16.4,18.6,16.4z"/>
			</g>
		</g>
		<g id="XMLID_1161_">
			<g>
				<path fill="#F3C432" d="M19.1,19.6c0,0,0,2.5,0.5,5.5c0.5,3,1.4,5.3,1.4,5.3s0-2.5-0.5-5.5S19.1,19.6,19.1,19.6z"/>
			</g>
		</g>
		<g id="XMLID_1160_">
			<g>
				<path fill="#F3C432" d="M18.3,16.5c0,0-0.4-2.5-1.4-5.3c-1-2.9-2.3-5-2.3-5s0.4,2.5,1.4,5.3C17,14.3,18.3,16.5,18.3,16.5z"/>
			</g>
		</g>
		<g id="XMLID_1159_">
			<g>
				<path fill="#F3C432" d="M19.4,19.5c0,0,0.4,2.5,1.4,5.3c1,2.9,2.3,5,2.3,5s-0.4-2.5-1.4-5.3C20.7,21.7,19.4,19.5,19.4,19.5z"/>
			</g>
		</g>
		<g id="XMLID_1158_">
			<g>
				<path fill="#F3C432" d="M18.1,16.6c0,0-0.8-2.4-2.3-5s-3.2-4.5-3.2-4.5s0.8,2.4,2.3,5C16.4,14.7,18.1,16.6,18.1,16.6z"/>
			</g>
		</g>
		<g id="XMLID_1157_">
			<g>
				<path fill="#F3C432" d="M19.7,19.4c0,0,0.8,2.4,2.3,5c1.5,2.6,3.2,4.5,3.2,4.5s-0.8-2.4-2.3-5C21.3,21.3,19.7,19.4,19.7,19.4z"
					/>
			</g>
		</g>
		<g id="XMLID_1156_">
			<g>
				<path fill="#F3C432" d="M17.8,16.8c0,0-1.2-2.2-3.2-4.5c-2-2.3-3.9-3.9-3.9-3.9s1.2,2.2,3.2,4.5S17.8,16.8,17.8,16.8z"/>
			</g>
		</g>
		<g id="XMLID_1155_">
			<g>
				<path fill="#F3C432" d="M19.9,19.2c0,0,1.2,2.2,3.2,4.5c2,2.3,3.9,3.9,3.9,3.9s-1.2-2.2-3.2-4.5C21.8,20.8,19.9,19.2,19.9,19.2z
					"/>
			</g>
		</g>
		<g id="XMLID_1154_">
			<g>
				<path fill="#F3C432" d="M13.1,13.8c2.3,2,4.5,3.2,4.5,3.2s-1.6-2-3.9-3.9c-2.3-2-4.5-3.2-4.5-3.2S10.8,11.8,13.1,13.8z"/>
			</g>
		</g>
		<g id="XMLID_1153_">
			<g>
				<path fill="#F3C432" d="M24.6,22.2c-2.3-2-4.5-3.2-4.5-3.2s1.6,2,3.9,3.9c2.3,2,4.5,3.2,4.5,3.2S26.9,24.2,24.6,22.2z"/>
			</g>
		</g>
		<g id="XMLID_1152_">
			<g>
				<path fill="#F3C432" d="M17.5,17.2c0,0-1.9-1.6-4.5-3.2c-2.6-1.5-5-2.3-5-2.3s1.9,1.6,4.5,3.2C15.1,16.4,17.5,17.2,17.5,17.2z"
					/>
			</g>
		</g>
		<g id="XMLID_1151_">
			<g>
				<path fill="#F3C432" d="M20.2,18.8c0,0,1.9,1.6,4.5,3.2s5,2.3,5,2.3s-1.9-1.6-4.5-3.2C22.6,19.6,20.2,18.8,20.2,18.8z"/>
			</g>
		</g>
		<g id="XMLID_1150_">
			<g>
				<path fill="#F3C432" d="M17.4,17.5c0,0-2.2-1.3-5-2.3c-2.9-1-5.3-1.4-5.3-1.4S9.1,15,12,16C14.9,17.1,17.4,17.5,17.4,17.5z"/>
			</g>
		</g>
		<g id="XMLID_1149_">
			<g>
				<path fill="#F3C432" d="M20.4,18.5c0,0,2.2,1.3,5,2.3c2.9,1,5.3,1.4,5.3,1.4s-2.2-1.3-5-2.3C22.8,18.9,20.4,18.5,20.4,18.5z"/>
			</g>
		</g>
		<g id="XMLID_1148_">
			<g>
				<path fill="#F3C432" d="M17.3,17.7c0,0-2.3-0.9-5.3-1.4c-3-0.5-5.5-0.5-5.5-0.5s2.3,0.9,5.3,1.4C14.8,17.8,17.3,17.7,17.3,17.7z
					"/>
			</g>
		</g>
		<g id="XMLID_1147_">
			<g>
				<path fill="#F3C432" d="M20.4,18.3c0,0,2.3,0.9,5.3,1.4s5.5,0.5,5.5,0.5s-2.3-0.9-5.3-1.4S20.4,18.3,20.4,18.3z"/>
			</g>
		</g>
		<g id="XMLID_1146_">
			<g>
				<path fill="#F3C432" d="M17.3,18c0,0-2.5-0.5-5.5-0.5c-3,0-5.5,0.5-5.5,0.5s2.5,0.5,5.5,0.5C14.8,18.5,17.3,18,17.3,18z"/>
			</g>
		</g>
		<g id="XMLID_1145_">
			<g>
				<path fill="#F3C432" d="M20.5,18c0,0,2.5,0.5,5.5,0.5s5.5-0.5,5.5-0.5S29,17.5,26,17.5S20.5,18,20.5,18z"/>
			</g>
		</g>
		<g id="XMLID_1144_">
			<g>
				<path fill="#F3C432" d="M17.3,18.3c0,0-2.5,0-5.5,0.5s-5.3,1.4-5.3,1.4s2.5,0,5.5-0.5C14.9,19.2,17.3,18.3,17.3,18.3z"/>
			</g>
		</g>
		<g id="XMLID_1143_">
			<g>
				<path fill="#F3C432" d="M20.4,17.7c0,0,2.5,0,5.5-0.5c3-0.5,5.3-1.4,5.3-1.4s-2.5,0-5.5,0.5C22.8,16.8,20.4,17.7,20.4,17.7z"/>
			</g>
		</g>
		<g id="XMLID_1142_">
			<g>
				<path fill="#F3C432" d="M17.4,18.5c0,0-2.5,0.4-5.3,1.4c-2.9,1-5,2.3-5,2.3s2.5-0.4,5.3-1.4C15.2,19.8,17.4,18.5,17.4,18.5z"/>
			</g>
		</g>
		<g id="XMLID_1141_">
			<g>
				<path fill="#F3C432" d="M20.4,17.5c0,0,2.5-0.4,5.3-1.4c2.9-1,5-2.3,5-2.3s-2.5,0.4-5.3,1.4C22.5,16.2,20.4,17.5,20.4,17.5z"/>
			</g>
		</g>
		<g id="XMLID_1140_">
			<g>
				<path fill="#F3C432" d="M17.5,18.8c0,0-2.4,0.8-5,2.3c-2.6,1.5-4.5,3.2-4.5,3.2s2.4-0.8,5-2.3S17.5,18.8,17.5,18.8z"/>
			</g>
		</g>
		<g id="XMLID_1139_">
			<g>
				<path fill="#F3C432" d="M20.2,17.2c0,0,2.4-0.8,5-2.3c2.6-1.5,4.5-3.2,4.5-3.2s-2.4,0.8-5,2.3C22.1,15.6,20.2,17.2,20.2,17.2z"
					/>
			</g>
		</g>
		<g id="XMLID_1138_">
			<g>
				<path fill="#F3C432" d="M17.6,19c0,0-2.2,1.2-4.5,3.2c-2.3,2-3.9,3.9-3.9,3.9s2.2-1.2,4.5-3.2C16,21,17.6,19,17.6,19z"/>
			</g>
		</g>
		<g id="XMLID_1137_">
			<g>
				<path fill="#F3C432" d="M20.1,17c0,0,2.2-1.2,4.5-3.2c2.3-2,3.9-3.9,3.9-3.9s-2.2,1.2-4.5,3.2C21.7,15,20.1,17,20.1,17z"/>
			</g>
		</g>
		<g id="XMLID_1136_">
			<g>
				<path fill="#F3C432" d="M14.7,23.8c2-2.3,3.2-4.5,3.2-4.5s-2,1.6-3.9,3.9c-2,2.3-3.2,4.5-3.2,4.5S12.7,26.1,14.7,23.8z"/>
			</g>
		</g>
		<g id="XMLID_1135_">
			<g>
				<path fill="#F3C432" d="M23.1,12.2c-2,2.3-3.2,4.5-3.2,4.5s2-1.6,3.9-3.9c2-2.3,3.2-4.5,3.2-4.5S25,9.9,23.1,12.2z"/>
			</g>
		</g>
		<g id="XMLID_1134_">
			<g>
				<path fill="#F3C432" d="M18.1,19.4c0,0-1.6,1.9-3.2,4.5c-1.5,2.6-2.3,5-2.3,5s1.6-1.9,3.2-4.5C17.2,21.8,18.1,19.4,18.1,19.4z"
					/>
			</g>
		</g>
		<g id="XMLID_1133_">
			<g>
				<path fill="#F3C432" d="M19.7,16.6c0,0,1.6-1.9,3.2-4.5c1.5-2.6,2.3-5,2.3-5S23.5,9,22,11.6C20.5,14.2,19.7,16.6,19.7,16.6z"/>
			</g>
		</g>
		<g id="XMLID_1132_">
			<g>
				<path fill="#F3C432" d="M18.3,19.5c0,0-1.3,2.2-2.3,5c-1,2.9-1.4,5.3-1.4,5.3s1.3-2.2,2.3-5C17.9,22,18.3,19.5,18.3,19.5z"/>
			</g>
		</g>
		<g id="XMLID_1130_">
			<g>
				<path fill="#F3C432" d="M19.4,16.5c0,0,1.3-2.2,2.3-5c1-2.9,1.4-5.3,1.4-5.3s-1.3,2.2-2.3,5C19.8,14,19.4,16.5,19.4,16.5z"/>
			</g>
		</g>
		<g id="XMLID_1129_">
			<g>
				<path fill="#F3C432" d="M18.6,19.6c0,0-0.9,2.3-1.4,5.3c-0.5,3-0.5,5.5-0.5,5.5s0.9-2.3,1.4-5.3S18.6,19.6,18.6,19.6z"/>
			</g>
		</g>
		<g id="XMLID_1127_">
			<g>
				<path fill="#F3C432" d="M19.1,16.4c0,0,0.9-2.3,1.4-5.3c0.5-3,0.5-5.5,0.5-5.5s-0.9,2.3-1.4,5.3C19.1,13.9,19.1,16.4,19.1,16.4z
					"/>
			</g>
		</g>
	</g>
	<g id="XMLID_1125_">
		<g>
			<path fill="#DF9D27" d="M10.4,20.4c-2.4,0.9-4.9,1.8-7.3,2.8c-1.2-3.3-1.2-7,0-10.3c2.4,0.9,4.9,1.8,7.3,2.8V20.4z"/>
		</g>
	</g>
	<g id="XMLID_1124_">
		<g>
			<ellipse fill="#E8AF2A" cx="18.9" cy="18" rx="13.3" ry="9.7"/>
		</g>
	</g>
	<g id="XMLID_1122_">
		<g>
			<path fill="#FFD83B" d="M11.5,26.1c2.1,1,4.6,1.6,7.3,1.6c5.5,0,10.3-2.5,12.3-6c-2.1-0.9-4.5-1.4-7.2-1.4
				C18.2,20.3,13.3,22.8,11.5,26.1z"/>
		</g>
	</g>
	<g id="XMLID_1121_">
		<g>
			<path fill="#E8AF2A" d="M32.7,18.6c0.9-0.5,1.4-1.1,1.2-1.7c-0.2-0.7-1.5-0.9-2.8-0.4c-1,0.3-1.8,1-2,1.5
				c-0.2,0.1-0.3,0.2-0.4,0.4c-0.2,0.7,0.7,1.6,2,2c1.3,0.4,2.6,0.2,2.8-0.4C33.6,19.6,33.3,19.1,32.7,18.6z"/>
		</g>
	</g>
	<g id="XMLID_1096_">
		<g id="XMLID_1120_">
			<g>
				<circle fill="#F3C432" cx="14.7" cy="11.3" r="0.5"/>
			</g>
		</g>
		<g id="XMLID_1119_">
			<g>
				<circle fill="#F3C432" cx="18.9" cy="11.3" r="0.5"/>
			</g>
		</g>
		<g id="XMLID_1118_">
			<g>
				<circle fill="#F3C432" cx="23" cy="11.3" r="0.5"/>
			</g>
		</g>
		<g id="XMLID_1117_">
			<g>
				<circle fill="#F3C432" cx="8.6" cy="14.6" r="0.5"/>
			</g>
		</g>
		<g id="XMLID_1116_">
			<g>
				<circle fill="#F3C432" cx="12.7" cy="14.6" r="0.5"/>
			</g>
		</g>
		<g id="XMLID_1115_">
			<g>
				<circle fill="#F3C432" cx="16.8" cy="14.6" r="0.5"/>
			</g>
		</g>
		<g id="XMLID_1114_">
			<g>
				<circle fill="#F3C432" cx="20.9" cy="14.6" r="0.5"/>
			</g>
		</g>
		<g id="XMLID_1113_">
			<g>
				<circle fill="#F3C432" cx="25" cy="14.6" r="0.5"/>
			</g>
		</g>
		<g id="XMLID_1112_">
			<g>
				<circle fill="#F3C432" cx="29.1" cy="14.6" r="0.5"/>
			</g>
		</g>
		<g id="XMLID_1111_">
			<g>
				<circle fill="#F3C432" cx="6.5" cy="18" r="0.5"/>
			</g>
		</g>
		<g id="XMLID_1110_">
			<g>
				<circle fill="#F3C432" cx="10.6" cy="18" r="0.5"/>
			</g>
		</g>
		<g id="XMLID_1109_">
			<g>
				<circle fill="#F3C432" cx="14.7" cy="18" r="0.5"/>
			</g>
		</g>
		<g id="XMLID_1108_">
			<g>
				<circle fill="#F3C432" cx="18.9" cy="18" r="0.5"/>
			</g>
		</g>
		<g id="XMLID_1107_">
			<g>
				<circle fill="#F3C432" cx="23" cy="18" r="0.5"/>
			</g>
		</g>
		<g id="XMLID_1106_">
			<g>
				<circle fill="#F3C432" cx="27.1" cy="18" r="0.5"/>
			</g>
		</g>
		<g id="XMLID_1105_">
			<g>
				<circle fill="#F3C432" cx="8.6" cy="21.4" r="0.5"/>
			</g>
		</g>
		<g id="XMLID_1104_">
			<g>
				<circle fill="#F3C432" cx="12.7" cy="21.4" r="0.5"/>
			</g>
		</g>
		<g id="XMLID_1103_">
			<g>
				<circle fill="#F3C432" cx="16.8" cy="21.4" r="0.5"/>
			</g>
		</g>
		<g id="XMLID_1102_">
			<g>
				<circle fill="#F3C432" cx="20.9" cy="21.4" r="0.5"/>
			</g>
		</g>
		<g id="XMLID_1101_">
			<g>
				<circle fill="#F3C432" cx="25" cy="21.4" r="0.5"/>
			</g>
		</g>
		<g id="XMLID_1100_">
			<g>
				<circle fill="#F3C432" cx="29.1" cy="21.4" r="0.5"/>
			</g>
		</g>
		<g id="XMLID_1099_">
			<g>
				<circle fill="#F3C432" cx="14.7" cy="24.7" r="0.5"/>
			</g>
		</g>
		<g id="XMLID_1098_">
			<g>
				<circle fill="#F3C432" cx="18.9" cy="24.7" r="0.5"/>
			</g>
		</g>
		<g id="XMLID_1097_">
			<g>
				<circle fill="#F3C432" cx="23" cy="24.7" r="0.5"/>
			</g>
		</g>
	</g>
	<g id="XMLID_1092_">
		<g id="XMLID_1095_">
			<g>
				<circle fill="#FFFFFF" cx="27.8" cy="15.8" r="1.9"/>
			</g>
		</g>
		<g id="XMLID_1094_">
			<g>
				<circle fill="#3F4347" cx="27.8" cy="15.8" r="1.1"/>
			</g>
		</g>
		<g id="XMLID_1093_">
			<g>
				<circle fill="#FFFFFF" cx="27" cy="15" r="0.5"/>
			</g>
		</g>
	</g>
</g>
</svg>
