<?xml version="1.0" encoding="utf-8"?>
<!-- Generator: Adobe Illustrator 18.0.0, SVG Export Plug-In . SVG Version: 6.00 Build 0)  -->
<!DOCTYPE svg PUBLIC "-//W3C//DTD SVG 1.1//EN" "http://www.w3.org/Graphics/SVG/1.1/DTD/svg11.dtd">
<svg version="1.1" id="Layer_1" xmlns="http://www.w3.org/2000/svg" xmlns:xlink="http://www.w3.org/1999/xlink" x="0px" y="0px"
	 viewBox="0 0 36 36" enable-background="new 0 0 36 36" xml:space="preserve">
<g id="XMLID_736_">
	<g id="XMLID_777_">
		<g id="XMLID_783_">
			<g id="XMLID_785_">
				<g>
					
						<ellipse transform="matrix(0.9036 0.4283 -0.4283 0.9036 6.7789 -9.1798)" fill="#E8EFF3" cx="23.8" cy="10.5" rx="4" ry="9.1"/>
				</g>
			</g>
			<g id="XMLID_784_">
				<g>
					<path fill="#D2D8DD" d="M23,17.6c-2-1-1.9-5.4,0.2-9.9c1.1-2.4,2.6-4.3,4-5.5c-2-0.5-5.2,2.3-7.2,6.6c-2.1,4.5-2.3,9-0.2,9.9
						c1,0.5,2.2,0,3.5-1C23.3,17.7,23.2,17.6,23,17.6z"/>
				</g>
			</g>
		</g>
		<g id="XMLID_780_">
			<g id="XMLID_782_">
				<g>
					
						<ellipse transform="matrix(-0.9036 0.4283 -0.4283 -0.9036 27.7288 14.7124)" fill="#E8EFF3" cx="12.2" cy="10.5" rx="4" ry="9.1"/>
				</g>
			</g>
			<g id="XMLID_781_">
				<g>
					<path fill="#D2D8DD" d="M13,17.6c2-1,1.9-5.4-0.2-9.9c-1.1-2.4-2.6-4.3-4-5.5c2-0.5,5.2,2.3,7.2,6.6c2.1,4.5,2.3,9,0.2,9.9
						c-1,0.5-2.2,0-3.5-1C12.7,17.7,12.8,17.6,13,17.6z"/>
				</g>
			</g>
		</g>
	</g>
	<g id="XMLID_770_">
		<g>
			<path fill="#DDE3E9" d="M26.3,21.7c-0.8-1.5-1.6-3-2.2-4.6c-1.1-2.8-3.4-4.8-6.1-4.8c-2.7,0-5,2-6.1,4.8
				c-0.6,1.6-1.4,3.1-2.2,4.6c-0.6,1.1-0.9,2.4-0.9,3.7c0,4.7,4.1,8.5,9.2,8.5s9.2-3.8,9.2-8.5C27.2,24,26.9,22.8,26.3,21.7z"/>
		</g>
	</g>
	<g id="XMLID_746_">
		<g id="XMLID_765_">
			<g id="XMLID_768_">
				<g>
					<circle fill="#FFFFFF" cx="21.3" cy="20.9" r="1.7"/>
				</g>
			</g>
			<g id="XMLID_767_">
				<g>
					<circle fill="#2F3133" cx="21.3" cy="20.9" r="1"/>
				</g>
			</g>
			<g id="XMLID_766_">
				<g>
					<circle fill="#FFFFFF" cx="20.6" cy="20.3" r="0.7"/>
				</g>
			</g>
		</g>
		<g id="XMLID_748_">
			<g id="XMLID_752_">
				<g>
					<circle fill="#FFFFFF" cx="14.7" cy="20.9" r="1.7"/>
				</g>
			</g>
			<g id="XMLID_750_">
				<g>
					<circle fill="#2F3133" cx="14.7" cy="20.9" r="1"/>
				</g>
			</g>
			<g id="XMLID_749_">
				<g>
					<circle fill="#FFFFFF" cx="14.1" cy="20.3" r="0.7"/>
				</g>
			</g>
		</g>
	</g>
	<g id="XMLID_738_">
		<g id="XMLID_743_">
			<g id="XMLID_745_">
				<g>
					<circle fill="#F395B0" cx="12.7" cy="26.6" r="1.2"/>
				</g>
			</g>
			<g id="XMLID_744_">
				<g>
					<circle fill="#F395B0" cx="23.3" cy="26.6" r="1.2"/>
				</g>
			</g>
		</g>
		<g id="XMLID_740_">
			<g id="XMLID_742_">
				<g>
					<path fill="#FFFFFF" d="M17.5,31.3L17.5,31.3c-0.3,0-0.5-0.2-0.5-0.5V30c0-0.3,0.2-0.1,0.5-0.1h0c0.3,0,0.5-0.2,0.5,0.1v0.8
						C18,31.1,17.8,31.3,17.5,31.3z"/>
				</g>
			</g>
			<g id="XMLID_741_">
				<g>
					<path fill="#FFFFFF" d="M18.5,31.3L18.5,31.3c-0.3,0-0.5-0.2-0.5-0.5V30c0-0.3,0.2-0.1,0.5-0.1l0,0c0.3,0,0.5-0.2,0.5,0.1v0.8
						C19,31.1,18.8,31.3,18.5,31.3z"/>
				</g>
			</g>
		</g>
		<g id="XMLID_739_">
			<g>
				<path fill="#3F4347" d="M19.9,29.4c-0.1-0.1-0.3-0.1-0.4,0c-0.3,0.3-0.9,0.4-1.2,0.1v-1c0.1,0,0.2-0.1,0.3-0.2l0.9-1.3
					c0.3-0.4,0-1-0.5-1h-1.8c-0.5,0-0.8,0.6-0.5,1l0.9,1.3c0.1,0.1,0.2,0.2,0.3,0.2v1c-0.4,0.3-0.9,0.3-1.2-0.1
					c-0.1-0.1-0.3-0.1-0.4,0c-0.1,0.1-0.1,0.3,0,0.4c0.3,0.3,0.7,0.4,1.1,0.4c0.3,0,0.6-0.1,0.9-0.3c0.6,0.4,1.4,0.4,1.9-0.2
					C20,29.7,20,29.5,19.9,29.4z"/>
			</g>
		</g>
	</g>
</g>
</svg>
