<?xml version="1.0" encoding="utf-8"?>
<!-- Generator: Adobe Illustrator 18.0.0, SVG Export Plug-In . SVG Version: 6.00 Build 0)  -->
<!DOCTYPE svg PUBLIC "-//W3C//DTD SVG 1.1//EN" "http://www.w3.org/Graphics/SVG/1.1/DTD/svg11.dtd">
<svg version="1.1" id="Layer_1" xmlns="http://www.w3.org/2000/svg" xmlns:xlink="http://www.w3.org/1999/xlink" x="0px" y="0px"
	 viewBox="0 0 36 36" enable-background="new 0 0 36 36" xml:space="preserve">
<g>
	<g id="XMLID_51_">
		<g id="XMLID_54_">
			<g id="XMLID_55_">
				<g>
					<path fill="#3F4347" d="M11.5,12.1c0.1,0,0.3-0.1,0.4-0.2c1.1-1.1,1.8-2.6,1.8-4.2S13,4.6,11.9,3.4c-1.9-1.9-5-1.9-6.9,0
						C3.3,5,3.3,7.6,4.9,9.1c1.3,1.3,3.4,1.3,4.7,0c0.2-0.2,0.2-0.6,0-0.8c-0.2-0.2-0.6-0.2-0.8,0C8,9.2,6.6,9.2,5.7,8.3
						c-1.1-1.1-1.1-3,0-4.1c1.5-1.5,3.9-1.5,5.4,0c0.9,0.9,1.4,2.1,1.4,3.4c0,1.3-0.5,2.5-1.4,3.4c-0.2,0.2-0.2,0.6,0,0.8
						C11.2,12,11.3,12.1,11.5,12.1z"/>
				</g>
			</g>
		</g>
		<g id="XMLID_52_">
			<g id="XMLID_53_">
				<g>
					<path fill="#3F4347" d="M24.5,12.1c-0.1,0-0.3-0.1-0.4-0.2c-1.1-1.1-1.8-2.6-1.8-4.2s0.6-3.1,1.8-4.2c1.9-1.9,5-1.9,6.9,0
						c1.6,1.6,1.6,4.1,0,5.7c-1.3,1.3-3.4,1.3-4.7,0c-0.2-0.2-0.2-0.6,0-0.8c0.2-0.2,0.6-0.2,0.8,0c0.9,0.9,2.3,0.9,3.1,0
						c1.1-1.1,1.1-3,0-4.1c-1.5-1.5-3.9-1.5-5.4,0c-0.9,0.9-1.4,2.1-1.4,3.4c0,1.3,0.5,2.5,1.4,3.4c0.2,0.2,0.2,0.6,0,0.8
						C24.8,12,24.7,12.1,24.5,12.1z"/>
				</g>
			</g>
		</g>
	</g>
	<g>
		<g id="XMLID_50_">
			<g>
				<path fill="#FFD83B" d="M4.8,20.8C1.4,28.1,11.2,34,18,34c6.8,0,16.6-5.9,13.2-13.2C27.9,13.5,25.8,7.6,18,7.6
					C10.2,7.6,8.1,13.5,4.8,20.8z"/>
			</g>
		</g>
		<g id="XMLID_39_">
			<g id="XMLID_45_">
				<g id="XMLID_48_">
					<g>
						<circle fill="#FFFFFF" cx="23.6" cy="17.5" r="3.6"/>
					</g>
				</g>
				<g id="XMLID_47_">
					<g>
						<circle fill="#3F4347" cx="23.6" cy="17.5" r="2.2"/>
					</g>
				</g>
				<g id="XMLID_46_">
					<g>
						<circle fill="#FFFFFF" cx="25.1" cy="16" r="1"/>
					</g>
				</g>
			</g>
			<g id="XMLID_40_">
				<g id="XMLID_43_">
					<g>
						<circle fill="#FFFFFF" cx="12.4" cy="17.5" r="3.6"/>
					</g>
				</g>
				<g id="XMLID_42_">
					<g>
						<circle fill="#3F4347" cx="12.4" cy="17.5" r="2.2"/>
					</g>
				</g>
				<g id="XMLID_41_">
					<g>
						<circle fill="#FFFFFF" cx="13.9" cy="16" r="1"/>
					</g>
				</g>
			</g>
		</g>
		<g id="XMLID_34_">
			<g>
				<path fill="#3F4347" d="M13.6,25.5c0.4,0.6,1,1.2,1.8,1.7c0.6,0.4,1.6,0.7,2.6,0.7c1,0,1.9-0.3,2.7-0.7c0.7-0.4,1.4-1,1.8-1.7
					h0.7c0,0.1,0,0.2-0.1,0.3c-0.3,0.8-0.9,1.6-1.8,2.2c-0.9,0.6-1.9,1-3.2,1c-1.2,0-2.2-0.3-3.2-1c-0.9-0.6-1.5-1.5-1.8-2.2
					c0-0.1,0-0.2-0.1-0.3H13.6z"/>
			</g>
		</g>
		<g id="XMLID_26_">
			<g id="XMLID_33_">
				<g>
					<path fill="#F3C432" d="M10.2,26.7c0.6,0.2,1.4,0.2,2.1-0.2c0.4-0.2,0.7-0.4,1.1-0.7c0.6-0.6,1-1.5,1-2.2c0-0.3,0-0.8-0.1-1.1
						c0,0-0.1,0.4-0.4,0.9c-0.2,0.5-0.6,1.1-1.1,1.7c-0.3,0.3-0.5,0.5-0.8,0.7C10.7,26.7,11.1,26.3,10.2,26.7z"/>
				</g>
			</g>
			<g id="XMLID_32_">
				<g>
					<path fill="#F3C432" d="M25.8,26.7c-0.6,0.2-1.4,0.2-2.1-0.2c-0.4-0.2-0.7-0.4-1.1-0.7c-0.6-0.6-1-1.5-1-2.2
						c0-0.3,0-0.8,0.1-1.1c0,0,0.1,0.4,0.4,0.9c0.2,0.5,0.6,1.1,1.1,1.7c0.3,0.3,0.5,0.5,0.8,0.7C25.2,26.7,24.8,26.3,25.8,26.7z"/>
				</g>
			</g>
		</g>
	</g>
</g>
</svg>
