<?xml version="1.0" encoding="utf-8"?>
<!-- Generator: Adobe Illustrator 18.0.0, SVG Export Plug-In . SVG Version: 6.00 Build 0)  -->
<!DOCTYPE svg PUBLIC "-//W3C//DTD SVG 1.1//EN" "http://www.w3.org/Graphics/SVG/1.1/DTD/svg11.dtd">
<svg version="1.1" id="Layer_1" xmlns="http://www.w3.org/2000/svg" xmlns:xlink="http://www.w3.org/1999/xlink" x="0px" y="0px"
	 viewBox="0 0 36 36" enable-background="new 0 0 36 36" xml:space="preserve">
<g>
	<g>
		<g>
			<g>
				<g>
					<g>
						<path fill="#6B503B" d="M33.9,14.8c0.5,3.3-2.3,6.1-5.6,5.6c-2-0.3-3.7-2-4-4c-0.5-3.3,2.3-6.1,5.6-5.6
							C32,11.1,33.6,12.7,33.9,14.8z"/>
					</g>
				</g>
			</g>
			<g>
				<g>
					<g>
						<path fill="#FFE9AB" d="M32.6,15.2c0.4,2.2-1.5,4.1-3.7,3.7c-1.2-0.2-2.2-1.2-2.5-2.5c-0.4-2.2,1.5-4.1,3.7-3.7
							C31.3,13,32.3,14,32.6,15.2z"/>
					</g>
				</g>
			</g>
		</g>
		<g>
			<g>
				<g>
					<g>
						<path fill="#6B503B" d="M2.1,14.8c-0.5,3.3,2.3,6.1,5.6,5.6c2-0.3,3.7-2,4-4c0.5-3.3-2.3-6.1-5.6-5.6
							C4,11.1,2.4,12.7,2.1,14.8z"/>
					</g>
				</g>
			</g>
			<g>
				<g>
					<g>
						<path fill="#FFE9AB" d="M3.4,15.2C3,17.5,4.9,19.4,7.2,19c1.2-0.2,2.2-1.2,2.5-2.5c0.4-2.2-1.5-4.1-3.7-3.7
							C4.7,13,3.7,14,3.4,15.2z"/>
					</g>
				</g>
			</g>
		</g>
	</g>
	<g>
		<g>
			<g>
				<g>
					<path fill="#6B503B" d="M29.1,15.2c0,1.5-0.4,3-1,4.3c-0.6,1.2-0.8,2.5-1,3.9c-0.4,4.3-4.2,7.8-9.1,7.8c-4.9,0-8.8-3.5-9.1-7.8
						c-0.1-1.4-0.4-2.7-1-3.9c-0.6-1.3-1-2.8-1-4.3c0-5.7,5-10.4,11.1-10.4C24.1,4.8,29.1,9.5,29.1,15.2z"/>
				</g>
			</g>
		</g>
		<g>
			<g>
				<path fill="#FFE9AB" d="M24,20.7c0.3,0.7,0.4,1.4,0.4,2.2c0,3.5-2.9,6.4-6.4,6.4s-6.4-2.9-6.4-6.4c0-0.8,0.1-1.5,0.4-2.2
					c-1.2-0.8-2-2.2-2-3.7c0-2.5,2-4.5,4.5-4.5c1.5,0,2.8,0.7,3.6,1.8c0.8-1.1,2.1-1.8,3.6-1.8c2.5,0,4.5,2,4.5,4.5
					C26,18.5,25.2,19.9,24,20.7z"/>
			</g>
		</g>
		<g>
			<g>
				<g>
					<g>
						<path fill="#FFD68D" d="M21.9,24.9c-0.1,0.2-0.5,0.8-0.9,1.1c-0.9,0.8-1.8,1.1-3,1.1c-1.2,0-2.2-0.4-3-1.1
							c-0.4-0.4-0.8-0.9-0.9-1.1c0.5,0.4,0.3,0.4,1.1,0.9c0.9,0.6,1.8,0.8,2.8,0.8c0.9,0,1.8-0.2,2.8-0.8
							C21.6,25.2,21.5,25.2,21.9,24.9z"/>
					</g>
				</g>
			</g>
			<g>
				<g>
					<g>
						<g>
							<path fill="#FFD68D" d="M22.7,25.3c-0.1-0.3-0.3-0.6-0.5-0.9c-0.2-0.2-0.6-0.4-0.9-0.5c0.3-0.1,0.8,0,1.1,0.3
								C22.8,24.6,22.9,25,22.7,25.3z"/>
						</g>
					</g>
					<g>
						<g>
							<path fill="#FFD68D" d="M14.7,23.9c-0.3,0.1-0.7,0.3-0.9,0.5c-0.2,0.2-0.4,0.6-0.5,0.9c-0.1-0.3,0-0.7,0.3-1.1
								C13.9,23.9,14.3,23.8,14.7,23.9z"/>
						</g>
					</g>
				</g>
			</g>
		</g>
		<g>
			<g>
				<g>
					<g>
						<g>
							<circle fill="#3E4347" cx="21.2" cy="17.3" r="1.6"/>
						</g>
					</g>
				</g>
				<g>
					<g>
						
							<ellipse transform="matrix(0.7071 0.7071 -0.7071 0.7071 18.1442 -10.4599)" fill="#FFFFFF" cx="21.7" cy="16.7" rx="0.4" ry="0.3"/>
					</g>
				</g>
			</g>
			<g>
				<g>
					<g>
						<g>
							<circle fill="#3E4347" cx="14.8" cy="17.3" r="1.6"/>
						</g>
					</g>
				</g>
				<g>
					<g>
						
							<ellipse transform="matrix(0.7071 0.7071 -0.7071 0.7071 16.259 -5.9086)" fill="#FFFFFF" cx="15.3" cy="16.7" rx="0.4" ry="0.3"/>
					</g>
				</g>
			</g>
		</g>
	</g>
	<g>
		<g>
			<g>
				<path fill="#3E4347" d="M19.9,22c0,0.6-0.7,1.2-1.2,1.5c-0.3,0.2-0.7,0.2-1,0c-0.5-0.3-1.2-0.8-1.2-1.5c0-1,0.8-1.4,1.7-1.4
					S19.9,21,19.9,22z"/>
			</g>
		</g>
	</g>
</g>
</svg>
