<?xml version="1.0" encoding="utf-8"?>
<!-- Generator: Adobe Illustrator 18.0.0, SVG Export Plug-In . SVG Version: 6.00 Build 0)  -->
<!DOCTYPE svg PUBLIC "-//W3C//DTD SVG 1.1//EN" "http://www.w3.org/Graphics/SVG/1.1/DTD/svg11.dtd">
<svg version="1.1" id="Layer_1" xmlns="http://www.w3.org/2000/svg" xmlns:xlink="http://www.w3.org/1999/xlink" x="0px" y="0px"
	 viewBox="0 0 36 36" enable-background="new 0 0 36 36" xml:space="preserve">
<g id="XMLID_1053_">
	<g id="XMLID_1067_">
		<g id="XMLID_1069_">
			<g>
				<path fill="#A4856D" d="M26.1,5.4c0,0,2.8-0.5,4.3-2.6c0,0,2.5-1.6,2,4.3c0,0,0.1,3.3-4,4.6S26.1,5.4,26.1,5.4z"/>
			</g>
		</g>
		<g id="XMLID_1068_">
			<g>
				<path fill="#A4856D" d="M9.9,5.4c0,0-2.8-0.5-4.3-2.6c0,0-2.5-1.6-2,4.3c0,0-0.1,3.3,4,4.6S9.9,5.4,9.9,5.4z"/>
			</g>
		</g>
	</g>
	<g id="XMLID_1066_">
		<g>
			<path fill="#997960" d="M28,21.1c-0.9-1.8-0.8-4.7-0.1-6.6c0.4-1,0.6-2,0.6-3.1C28.5,6.2,23.8,2,18,2C12.2,2,7.5,6.2,7.5,11.4
				c0,1.1,0.2,2.1,0.6,3.1c0.7,1.9,0.7,4.8-0.1,6.6c-0.8,1.6-0.6,3.5,0.9,5.1c1.2,1.3,2.1,2.8,3,4.4c1.2,2,3.5,3.4,6.1,3.4
				c2.6,0,4.9-1.4,6.1-3.4c0.9-1.5,1.8-3.1,3-4.4C28.6,24.6,28.8,22.7,28,21.1z"/>
		</g>
	</g>
	<g id="XMLID_1057_">
		<g id="XMLID_1062_">
			<g id="XMLID_1065_">
				<g>
					<circle fill="#FFFFFF" cx="10.8" cy="13.2" r="2.3"/>
				</g>
			</g>
			<g id="XMLID_1064_">
				<g>
					<circle fill="#2F3133" cx="10.8" cy="13.2" r="1.4"/>
				</g>
			</g>
			<g id="XMLID_1063_">
				<g>
					<circle fill="#FFFFFF" cx="9.8" cy="12.2" r="0.7"/>
				</g>
			</g>
		</g>
		<g id="XMLID_1058_">
			<g id="XMLID_1061_">
				<g>
					<circle fill="#FFFFFF" cx="25.2" cy="13.2" r="2.3"/>
				</g>
			</g>
			<g id="XMLID_1060_">
				<g>
					<circle fill="#2F3133" cx="25.2" cy="13.2" r="1.4"/>
				</g>
			</g>
			<g id="XMLID_1059_">
				<g>
					<circle fill="#FFFFFF" cx="24.2" cy="12.2" r="0.7"/>
				</g>
			</g>
		</g>
	</g>
	<g id="XMLID_1056_">
		<g>
			<path fill="#8E6D53" d="M24.2,22.3L24.2,22.3c0-0.2-0.2-0.3-0.4-0.3c-0.2,0-0.4,0.2-0.3,0.4l0.2,2.6c0.1,0.7-0.2,1.4-0.7,2
				c-0.5,0.6-1.2,0.8-1.9,0.8c0,0,0,0,0,0c-0.7,0-1.3-0.3-1.8-0.8c-0.5-0.5-0.8-1.2-0.8-1.9v-2.9c0-0.2,0.1-0.3,0.2-0.5
				c0.8-0.9,1.7-1.5,2.7-1.9c0.6-0.2,0.7-0.9,0.3-1.3c-0.3-0.3-0.6-0.3-1-0.1c-1,0.6-2,1.6-2.6,2.7c-0.7-1.1-1.6-2.1-2.6-2.7
				c-0.3-0.2-0.7-0.2-1,0.1c-0.4,0.4-0.3,1.1,0.3,1.3c1,0.4,1.9,0.9,2.7,1.9c0.1,0.1,0.2,0.3,0.2,0.5v2.9c0,0.7-0.3,1.4-0.8,1.9
				c-0.5,0.5-1.1,0.8-1.8,0.8c0,0,0,0,0,0c-0.8,0-1.4-0.3-1.9-0.8c-0.5-0.5-0.7-1.2-0.7-2l0.2-2.6c0-0.2-0.1-0.4-0.3-0.4
				c-0.2,0-0.4,0.1-0.4,0.3l-0.2,2.6c-0.1,0.9,0.3,1.9,0.9,2.6c0.7,0.7,1.5,1.1,2.5,1.1c1.3,0,2.4-0.7,3-1.8c0.6,1.1,1.7,1.8,3,1.8
				c1,0,1.8-0.4,2.5-1.1c0.6-0.7,1-1.6,0.9-2.6L24.2,22.3z"/>
		</g>
	</g>
	<g id="XMLID_1055_">
		<g>
			<path fill="#A4856D" d="M12.3,22c0.2,0,0.4,0.2,0.3,0.4l-0.2,2.6c-0.1,0.7,0.2,1.4,0.7,2c0.5,0.6,1.2,0.8,1.9,0.8c0,0,0,0,0,0
				c0.7,0,1.3-0.3,1.8-0.8c0.5-0.5,0.8-1.2,0.8-1.9v-2.9c0-0.2-0.1-0.3-0.2-0.5c-0.8-0.9-1.7-1.5-2.7-1.9c-0.6-0.2-0.7-0.9-0.3-1.3
				c0.3-0.3,0.6-0.3,1-0.1c1,0.6,2,1.6,2.6,2.7c0.7-1.1,1.6-2.1,2.6-2.7c0.3-0.2,0.7-0.2,1,0.1c0.4,0.4,0.3,1.1-0.3,1.3
				c-1,0.4-1.9,0.9-2.7,1.9c-0.1,0.1-0.2,0.3-0.2,0.5v2.9c0,0.7,0.3,1.4,0.8,1.9c0.5,0.5,1.1,0.8,1.8,0.8c0,0,0,0,0,0
				c0.8,0,1.4-0.3,1.9-0.8c0.5-0.5,0.7-1.2,0.7-2l-0.2-2.6c0-0.2,0.1-0.4,0.3-0.4c0.1,0,0.2,0,0.3,0.1c-0.2-1.1-0.6-2.2-1.1-3.3
				c-1-2.3-2.9-3.4-4.8-3.4c-1.9,0-3.8,1.2-4.8,3.4c-0.5,1.1-0.9,2.2-1.1,3.3C12.1,22,12.2,22,12.3,22z"/>
		</g>
	</g>
	<g id="XMLID_1054_">
		<g>
			<path fill="#3F4347" d="M21,28.5c-1.3,0-2.4-0.7-3-1.8c-0.6,1.1-1.7,1.8-3,1.8c-0.2,0-0.5,0-0.7-0.1c1,0.5,2.3,0.7,3.7,0.7
				c1.5,0,2.8-0.3,3.8-0.8C21.6,28.5,21.3,28.5,21,28.5z"/>
		</g>
	</g>
</g>
</svg>
