<?xml version="1.0" encoding="utf-8"?>
<!-- Generator: Adobe Illustrator 18.0.0, SVG Export Plug-In . SVG Version: 6.00 Build 0)  -->
<!DOCTYPE svg PUBLIC "-//W3C//DTD SVG 1.1//EN" "http://www.w3.org/Graphics/SVG/1.1/DTD/svg11.dtd">
<svg version="1.1" id="Layer_1" xmlns="http://www.w3.org/2000/svg" xmlns:xlink="http://www.w3.org/1999/xlink" x="0px" y="0px"
	 viewBox="0 0 36 36" enable-background="new 0 0 36 36" xml:space="preserve">
<g id="XMLID_887_">
	<g id="XMLID_911_">
		<g id="XMLID_912_">
			<g>
				<circle fill="#88664D" cx="28" cy="10.6" r="6"/>
			</g>
		</g>
	</g>
	<g id="XMLID_909_">
		<g id="XMLID_910_">
			<g>
				<circle fill="#A4856D" cx="28" cy="10.6" r="4.3"/>
			</g>
		</g>
	</g>
	<g id="XMLID_907_">
		<g id="XMLID_908_">
			<g>
				<circle fill="#88664D" cx="8" cy="10.6" r="6"/>
			</g>
		</g>
	</g>
	<g id="XMLID_905_">
		<g id="XMLID_906_">
			<g>
				<circle fill="#A4856D" cx="8" cy="10.6" r="4.3"/>
			</g>
		</g>
	</g>
	<g id="XMLID_904_">
		<g>
			<path fill="#88664D" d="M31.6,19.9c0,7.5-6.1,11.5-13.6,11.5s-13.6-4-13.6-11.5S10.5,6.3,18,6.3S31.6,12.4,31.6,19.9z"/>
		</g>
	</g>
	<g id="XMLID_900_">
		<g id="XMLID_901_">
			<g id="XMLID_903_">
				<g>
					<ellipse fill="#FFFFFF" cx="12.5" cy="17.2" rx="2.5" ry="3.6"/>
				</g>
			</g>
			<g id="XMLID_902_">
				<g>
					<path fill="#3F4347" d="M12.5,19c-0.8,0-1.5-0.9-1.5-1.8s0.7-1.8,1.5-1.8c0.8,0,1.5,0.9,1.5,1.8S13.3,19,12.5,19z"/>
				</g>
			</g>
		</g>
	</g>
	<g id="XMLID_899_">
		<g>
			<ellipse fill="#A4856D" cx="18" cy="26.1" rx="6.4" ry="4.5"/>
		</g>
	</g>
	<g id="XMLID_896_">
		<g id="XMLID_898_">
			<g>
				<path fill="#2F3133" d="M19.1,23.5h-2.2c-0.9,0-1.4,0.9-0.9,1.7l1.1,1.7c0.4,0.6,1.4,0.6,1.8,0l1.1-1.7
					C20.5,24.4,20,23.5,19.1,23.5z"/>
			</g>
		</g>
		<g id="XMLID_897_">
			<g>
				<path fill="#2F3133" d="M20.6,27.8c-0.1-0.1-0.3-0.1-0.4,0c-0.5,0.5-1.2,0.8-1.9,0.9V26h-0.6v2.6c-0.7-0.1-1.4-0.4-1.9-0.9
					c-0.1-0.1-0.3-0.1-0.4,0c-0.1,0.1-0.1,0.3,0,0.4c0.7,0.7,1.6,1.1,2.6,1.1c1,0,1.9-0.4,2.6-1.1C20.7,28.1,20.7,27.9,20.6,27.8z"
					/>
			</g>
		</g>
	</g>
	<g id="XMLID_894_">
		<g id="XMLID_895_">
			<g>
				<ellipse transform="matrix(0.9335 -0.3585 0.3585 0.9335 -5.0317 5.765)" fill="#FFFFFF" cx="13" cy="16.5" rx="0.3" ry="0.4"/>
			</g>
		</g>
	</g>
	<g id="XMLID_888_">
		<g id="XMLID_891_">
			<g id="XMLID_893_">
				<g>
					<ellipse fill="#FFFFFF" cx="23.5" cy="17.2" rx="2.5" ry="3.6"/>
				</g>
			</g>
			<g id="XMLID_892_">
				<g>
					<path fill="#3F4347" d="M23.5,19c-0.8,0-1.5-0.9-1.5-1.8s0.7-1.8,1.5-1.8s1.5,0.9,1.5,1.8S24.2,19,23.5,19z"/>
				</g>
			</g>
		</g>
		<g id="XMLID_889_">
			<g id="XMLID_890_">
				<g>
					
						<ellipse transform="matrix(0.9335 -0.3585 0.3585 0.9335 -4.3056 9.6809)" fill="#FFFFFF" cx="24" cy="16.5" rx="0.3" ry="0.4"/>
				</g>
			</g>
		</g>
	</g>
</g>
</svg>
