<?xml version="1.0" encoding="utf-8"?>
<!-- Generator: Adobe Illustrator 18.0.0, SVG Export Plug-In . SVG Version: 6.00 Build 0)  -->
<!DOCTYPE svg PUBLIC "-//W3C//DTD SVG 1.1//EN" "http://www.w3.org/Graphics/SVG/1.1/DTD/svg11.dtd">
<svg version="1.1" id="Layer_1" xmlns="http://www.w3.org/2000/svg" xmlns:xlink="http://www.w3.org/1999/xlink" x="0px" y="0px"
	 viewBox="0 0 36 36" enable-background="new 0 0 36 36" xml:space="preserve">
<g>
	<g id="XMLID_10_">
		<g id="XMLID_31_">
			<g>
				<circle fill="#3F4347" cx="26.7" cy="9.9" r="5.9"/>
			</g>
		</g>
		<g id="XMLID_30_">
			<g>
				<circle fill="#31373A" cx="26.7" cy="9.9" r="3.8"/>
			</g>
		</g>
		<g id="XMLID_29_">
			<g>
				<circle fill="#3F4347" cx="9.3" cy="9.9" r="5.9"/>
			</g>
		</g>
		<g id="XMLID_28_">
			<g>
				<circle fill="#31373A" cx="9.3" cy="9.9" r="3.8"/>
			</g>
		</g>
		<g>
			<g id="XMLID_27_">
				<g>
					<path fill="#DAE5EF" d="M34,22.7c-0.1,6.9-7.1,9.3-16,9.3c-8.9-0.1-15.9-2.4-16-9.3C1.8,15.9,8.8,5,18,5
						C27.2,5,34.2,15.9,34,22.7z"/>
				</g>
			</g>
		</g>
		<g id="XMLID_11_">
			<g id="XMLID_14_">
				<g>
					<path fill="#BBC7D1" d="M21.4,25.2c-0.1,0.4-0.4,0.9-0.8,1.2c-0.3,0.2-0.7,0.2-1,0.2c-0.4-0.1-0.6-0.2-0.9-0.6
						c-0.2-0.3-0.2-0.4-0.3-0.7v-1.4h-0.8c0,0.6,0.1,1.4-0.1,1.8c-0.2,0.6-0.8,0.9-1.4,0.9c-0.2,0-0.4-0.1-0.6-0.2
						c-0.5-0.3-0.8-0.8-0.8-1.2c-0.1,0.7,0.1,1.2,0.6,1.6c0.2,0.2,0.5,0.3,0.8,0.4c0.7,0.2,1.5-0.1,2-0.8c0.4,0.6,0.9,0.8,1.5,0.8
						c0.5,0,0.9-0.1,1.3-0.4C21.3,26.4,21.5,25.8,21.4,25.2z"/>
				</g>
			</g>
			<g id="XMLID_12_">
				<g id="XMLID_13_">
					<g>
						<path fill="#3F4347" d="M20.7,23.5c0,1.5-5.4,1.5-5.4,0c0-1.5,1.2-2.7,2.7-2.7S20.7,22,20.7,23.5z"/>
					</g>
				</g>
			</g>
		</g>
	</g>
	<g>
		<g>
			<g>
				<g>
					<g>
						<path fill="#3F4347" d="M27.1,15.5c0.1,4.5-7.2,6.4-7.1,1.5c0-2.8-0.1-5.4,1.9-6.4C23.9,9.6,27.1,12.7,27.1,15.5z"/>
					</g>
				</g>
			</g>
			<g id="XMLID_21_">
				<g id="XMLID_24_">
					<g>
						<circle fill="#FFFFFF" cx="23.2" cy="15.9" r="2.1"/>
					</g>
				</g>
				<g id="XMLID_23_">
					<g>
						<circle fill="#3F4347" cx="23.2" cy="15.9" r="1.1"/>
					</g>
				</g>
				<g id="XMLID_22_">
					<g>
						<circle fill="#FFFFFF" cx="22.4" cy="15.2" r="0.5"/>
					</g>
				</g>
			</g>
		</g>
		<g>
			<g>
				<g>
					<g>
						<path fill="#3F4347" d="M8.9,15.5C8.8,20,16.1,21.9,16,17c0-2.8,0.1-5.4-1.9-6.4C12.1,9.6,8.9,12.7,8.9,15.5z"/>
					</g>
				</g>
			</g>
			<g id="XMLID_17_">
				<g id="XMLID_20_">
					<g>
						<circle fill="#FFFFFF" cx="12.8" cy="15.9" r="2.1"/>
					</g>
				</g>
				<g id="XMLID_19_">
					<g>
						<circle fill="#3F4347" cx="12.8" cy="15.9" r="1.1"/>
					</g>
				</g>
				<g id="XMLID_18_">
					<g>
						<circle fill="#FFFFFF" cx="12" cy="15.2" r="0.5"/>
					</g>
				</g>
			</g>
		</g>
	</g>
</g>
</svg>
