<?xml version="1.0" encoding="utf-8"?>
<!-- Generator: Adobe Illustrator 18.0.0, SVG Export Plug-In . SVG Version: 6.00 Build 0)  -->
<!DOCTYPE svg PUBLIC "-//W3C//DTD SVG 1.1//EN" "http://www.w3.org/Graphics/SVG/1.1/DTD/svg11.dtd">
<svg version="1.1" id="Layer_1" xmlns="http://www.w3.org/2000/svg" xmlns:xlink="http://www.w3.org/1999/xlink" x="0px" y="0px"
	 viewBox="0 0 36 36" enable-background="new 0 0 36 36" xml:space="preserve">
<g>
	<g>
		<g>
			<g>
				<g>
					<g>
						<g>
							<path fill="#CBD6E0" d="M23.7,15.1l-0.1-1.5c0,0,2.9-5,10-2.9c0,0,0.8,0.3,0.1,0.7C31.6,13,30.8,19.8,23.7,15.1z"/>
						</g>
					</g>
				</g>
				<g>
					<g>
						<g>
							<path fill="#FFB6CD" d="M25.4,14.9c0,0,1.7-3.9,7.6-3.6c0,0-0.7,0.7-1.7,2.3C30.3,15.3,28.7,17,25.4,14.9z"/>
						</g>
					</g>
				</g>
				<g>
					<g>
						<g>
							<path fill="#F49DC0" d="M25.4,14.9c0.4,0.2,0.7,0.4,1,0.6c0.3-0.7,1.7-3.7,6.6-4.1C27.1,11,25.4,14.9,25.4,14.9z"/>
						</g>
					</g>
				</g>
			</g>
		</g>
		<g>
			<g>
				<g>
					<g>
						<g>
							<path fill="#CBD6E0" d="M12.3,15.1l0.1-1.5c0,0-2.9-5-10-2.9c0,0-0.8,0.3-0.1,0.7C4.4,13,5.2,19.8,12.3,15.1z"/>
						</g>
					</g>
				</g>
				<g>
					<g>
						<g>
							<path fill="#FFB6CD" d="M10.6,14.9c0,0-1.7-3.9-7.6-3.6c0,0,0.7,0.7,1.7,2.3S7.3,17,10.6,14.9z"/>
						</g>
					</g>
				</g>
				<g>
					<g>
						<g>
							<path fill="#F49DC0" d="M10.6,14.9c-0.4,0.2-0.7,0.4-1,0.6c-0.3-0.7-1.7-3.7-6.6-4.1C8.9,11,10.6,14.9,10.6,14.9z"/>
						</g>
					</g>
				</g>
			</g>
		</g>
	</g>
	<g>
		<g>
			<g>
				<g>
					<g>
						<path fill="#6D4135" d="M20.5,10.5c1.1-0.4,3.4-2.5,3.8-5.2c0.3-2.4,1.5-0.5,1.5,1.8c0,0.8,0,4.5-1.9,6.1"/>
					</g>
				</g>
			</g>
			<g>
				<g>
					<path fill="#633B2A" d="M25.8,7.1c0-1-0.2-1.9-0.5-2.4c0,0,0.1,0.8,0.1,1.9c0,1.9-1.6,3.2-3.5,3.2c-0.1,0-0.2,0-0.3,0l0,0
						c-0.4,0.4-0.8,0.6-1.1,0.7l3.4,2.8C25.7,11.6,25.8,7.9,25.8,7.1z"/>
				</g>
			</g>
		</g>
		<g>
			<g>
				<g>
					<g>
						<path fill="#6D4135" d="M15.5,10.5c-1.1-0.4-3.4-2.5-3.8-5.2c-0.3-2.4-1.5-0.5-1.5,1.8c0,0.8,0,4.5,1.9,6.1"/>
					</g>
				</g>
			</g>
			<g>
				<g>
					<path fill="#633B2A" d="M10.2,7.1c0-1,0.2-1.9,0.5-2.4c0,0-0.1,0.8-0.1,1.9c0,1.9,1.6,3.2,3.5,3.2c0.1,0,0.2,0,0.3,0l0,0
						c0.4,0.4,0.8,0.6,1.1,0.7l-3.4,2.8C10.3,11.6,10.2,7.9,10.2,7.1z"/>
				</g>
			</g>
		</g>
	</g>
	<g>
		<g>
			<g>
				<path fill="#DAE5EF" d="M26.4,17.9c-1.9,5.4-3.6,10.5-8.4,10.5c-4.8,0-6.5-5.1-8.4-10.5C7.7,12.4,13.5,9,18,9
					C22.5,9,28.3,12.4,26.4,17.9z"/>
			</g>
		</g>
	</g>
	<g>
		<g>
			<g>
				<g>
					<path fill="#3E4347" d="M19.7,11.1c-0.3-0.2-0.6-0.3-0.9-0.4c0,0-0.8,0.9-0.5,2.2c-0.7-0.4-0.7-1.3-0.7-1.3s-0.5,0.7-0.5,0.8
						c-0.2-0.1-0.2-1.3-0.1-1.5c-0.4,0-1.5,0.6-1.5,0.9c-0.1-1.3,1.5-2.7,1.5-2.7s-1.3,0.1-2,0.8c1.1-1.5,2.3-1.4,2.3-1.4
						c-0.1-0.2-0.4-0.6-0.7-0.7c0.4-0.1,0.9,0,1.3,0.3c0.4-0.3,0.9-0.5,1.3-0.5c-0.4,0.3-0.6,0.8-0.6,1.3c0.4-0.4,1.1-0.4,1.7-0.4
						c-0.1,0.2-1,0.6-1,0.8c0.3,0.1,1,0.3,1.2,0.8c-0.5-0.2-1.1-0.2-1.7-0.2C19.3,9.6,19.7,10.6,19.7,11.1z"/>
				</g>
			</g>
		</g>
	</g>
	<g>
		<g>
			<g>
				<g>
					<g>
						<g>
							<g>
								<path fill="#BBC7D1" d="M21.5,13.7c1.1-0.6,2.3,0.1,2.7,1.6c0.4,1.5-0.3,3.2-1.4,3.8c-1.1,0.6-2.3-0.1-2.7-1.6
									C19.8,16,20.4,14.3,21.5,13.7z"/>
							</g>
						</g>
					</g>
					<g>
						<g>
							<g>
								<path fill="#FFFFFF" d="M20.1,16.7c0-1.5,1-2.8,2-2.8c1.1,0,1.9,1.3,1.9,2.8c0,1.5-1,2.8-2.1,2.8
									C20.9,19.5,20,18.3,20.1,16.7z"/>
							</g>
						</g>
					</g>
				</g>
				<g>
					<g>
						<g>
							<g>
								<path fill="#65B1EF" d="M22.9,17.3c0,0.9-0.5,1.6-1.1,1.6c-0.6,0-1.1-0.7-1.1-1.6c0-0.9,0.5-1.6,1.1-1.6
									C22.4,15.8,22.9,16.5,22.9,17.3z"/>
							</g>
						</g>
					</g>
					<g>
						<g>
							<g>
								<path fill="#3E4347" d="M22.4,17.7c0,0.5-0.3,0.9-0.6,0.9c-0.3,0-0.6-0.4-0.6-0.9c0-0.5,0.3-0.9,0.6-0.9
									C22.1,16.8,22.4,17.2,22.4,17.7z"/>
							</g>
						</g>
					</g>
					<g>
						<g>
							<g>
								<path fill="#FFFFFF" d="M22.3,17c0,0.1-0.1,0.2-0.2,0.2c-0.1,0-0.2-0.1-0.2-0.2c0-0.1,0.1-0.2,0.2-0.2
									C22.2,16.8,22.3,16.9,22.3,17z"/>
							</g>
						</g>
					</g>
				</g>
			</g>
			<g>
				<g>
					<g>
						<path fill="#BBC7D1" d="M23.2,20.6c-1.2-1.1-2.7-1.6-4.3-1.7c0.4-0.2,1.5-0.2,2.4,0.2C22.4,19.5,23.1,20.3,23.2,20.6z"/>
					</g>
				</g>
			</g>
		</g>
		<g>
			<g>
				<g>
					<g>
						<g>
							<g>
								<path fill="#BBC7D1" d="M14.5,13.7c-1.1-0.6-2.3,0.1-2.7,1.6c-0.4,1.5,0.3,3.2,1.4,3.8c1.1,0.6,2.3-0.1,2.7-1.6
									C16.2,16,15.6,14.3,14.5,13.7z"/>
							</g>
						</g>
					</g>
					<g>
						<g>
							<g>
								<path fill="#FFFFFF" d="M15.9,16.7c0-1.5-1-2.8-2-2.8c-1.1,0-1.9,1.3-1.9,2.8c0,1.5,1,2.8,2.1,2.8
									C15.1,19.5,16,18.3,15.9,16.7z"/>
							</g>
						</g>
					</g>
				</g>
				<g>
					<g>
						<g>
							<g>
								<path fill="#65B1EF" d="M13.1,17.3c0,0.9,0.5,1.6,1.1,1.6c0.6,0,1.1-0.7,1.1-1.6c0-0.9-0.5-1.6-1.1-1.6
									C13.6,15.8,13.1,16.5,13.1,17.3z"/>
							</g>
						</g>
					</g>
					<g>
						<g>
							<g>
								<path fill="#3E4347" d="M13.6,17.7c0,0.5,0.3,0.9,0.6,0.9c0.3,0,0.6-0.4,0.6-0.9c0-0.5-0.3-0.9-0.6-0.9
									C13.9,16.8,13.6,17.2,13.6,17.7z"/>
							</g>
						</g>
					</g>
					<g>
						<g>
							<g>
								<path fill="#FFFFFF" d="M13.7,17c0,0.1,0.1,0.2,0.2,0.2s0.2-0.1,0.2-0.2c0-0.1-0.1-0.2-0.2-0.2S13.7,16.9,13.7,17z"/>
							</g>
						</g>
					</g>
				</g>
			</g>
			<g>
				<g>
					<g>
						<path fill="#BBC7D1" d="M12.8,20.6c1.2-1.1,2.7-1.6,4.3-1.7c-0.4-0.2-1.5-0.2-2.4,0.2C13.6,19.5,12.9,20.3,12.8,20.6z"/>
					</g>
				</g>
			</g>
		</g>
	</g>
	<g>
		<g>
			<g>
				<g>
					<ellipse fill="#DAE5EF" cx="17.9" cy="27.3" rx="4.3" ry="4.5"/>
				</g>
			</g>
		</g>
		<g>
			<g>
				<g>
					<path fill="#3E4347" d="M21.3,27.3c0,2-1.5,3.6-3.4,3.6c-1.9,0-3.4-1.6-3.4-3.6c0-2,1.5-3.6,3.4-3.6
						C19.8,23.7,21.3,25.3,21.3,27.3z"/>
				</g>
			</g>
		</g>
		<g>
			<g>
				<g>
					<path fill="#31373A" d="M20.5,27.3c0,1.5-1.2,2.8-2.6,2.8c-1.4,0-2.6-1.2-2.6-2.8c0-1.5,1.2-2.8,2.6-2.8
						C19.3,24.6,20.5,25.8,20.5,27.3z"/>
				</g>
			</g>
		</g>
		<g>
			<g>
				<g>
					<g>
						<path fill="#FFB6CD" d="M24.7,26.1c-0.3,1.4-1.4,2.5-2.8,2.8c-0.7,0.1-1.5,0.1-2.1-0.2c-1.1-0.5-2.4-0.5-3.5,0
							c-0.6,0.3-1.4,0.3-2.1,0.2c-1.4-0.3-2.5-1.4-2.8-2.8c-0.5-2.4,1.3-4.3,3.6-4.5c2.1-0.2,4.2-0.2,6.3,0
							C23.4,21.8,25.2,23.7,24.7,26.1z"/>
					</g>
				</g>
			</g>
			<g>
				<g>
					<g>
						<g>
							<g>
								
									<ellipse transform="matrix(0.7071 0.7071 -0.7071 0.7071 22.5594 -8.6504)" fill="#FFB6CD" cx="21.7" cy="22.9" rx="1.4" ry="2.1"/>
							</g>
						</g>
					</g>
					<g>
						<g>
							<g>
								<path fill="#F49DC0" d="M22.4,23.2c-0.4,0.4-1.2,0.8-1.4,0.5s0.2-1.1,0.5-1.4s0.8-0.4,1.1-0.1S22.8,22.8,22.4,23.2z"/>
							</g>
						</g>
					</g>
					<g>
						<g>
							<g>
								<path fill="#ED91BB" d="M22.6,22.8c0-0.1-0.1-0.1-0.1-0.2c-0.3-0.2-0.7-0.2-1.1,0.1c-0.2,0.2-0.4,0.5-0.5,0.8
									c-0.1-0.3,0.2-1,0.6-1.4c0.4-0.4,0.8-0.4,1.1-0.1C22.7,22.3,22.8,22.6,22.6,22.8z"/>
							</g>
						</g>
					</g>
					<g>
						<g>
							<g>
								<path fill="#F49DC0" d="M23.1,23.3c0.1-0.4,0.2-1.4-0.1-1.7c-0.1-0.1-0.2-0.1-0.4-0.2c-0.5-0.1-1.2,0.2-1.5,0.4
									c0,0,0,0-0.7,0.5c0.2-0.3,0.3-0.4,0.5-0.7c0.4-0.3,1-0.7,1.7-0.7C23.7,21.3,23.7,22.5,23.1,23.3z"/>
							</g>
						</g>
					</g>
				</g>
				<g>
					<g>
						<g>
							<g>
								
									<ellipse transform="matrix(-0.7071 0.7071 -0.7071 -0.7071 40.5721 29.0077)" fill="#FFB6CD" cx="14.3" cy="22.9" rx="1.4" ry="2.1"/>
							</g>
						</g>
					</g>
					<g>
						<g>
							<g>
								<path fill="#F49DC0" d="M13.6,23.2c0.4,0.4,1.2,0.8,1.4,0.5s-0.2-1.1-0.5-1.4c-0.4-0.4-0.8-0.4-1.1-0.1S13.2,22.8,13.6,23.2
									z"/>
							</g>
						</g>
					</g>
					<g>
						<g>
							<g>
								<path fill="#ED91BB" d="M13.4,22.8c0-0.1,0.1-0.1,0.1-0.2c0.3-0.2,0.7-0.2,1.1,0.1c0.2,0.2,0.4,0.5,0.5,0.8
									c0.1-0.3-0.2-1-0.6-1.4c-0.4-0.4-0.8-0.4-1.1-0.1C13.3,22.3,13.2,22.6,13.4,22.8z"/>
							</g>
						</g>
					</g>
					<g>
						<g>
							<g>
								<path fill="#F49DC0" d="M12.9,23.3c-0.1-0.4-0.2-1.4,0.1-1.7c0.1-0.1,0.2-0.1,0.4-0.2c0.5-0.1,1.2,0.2,1.5,0.4
									c0,0,0,0,0.7,0.5c-0.2-0.3-0.3-0.4-0.5-0.7c-0.4-0.3-1-0.7-1.7-0.7C12.3,21.3,12.3,22.5,12.9,23.3z"/>
							</g>
						</g>
					</g>
				</g>
			</g>
		</g>
		<g>
			<g>
				<g>
					<path fill="#E24B4B" d="M17.9,30.9c0.8,0,1.6-0.3,2.2-0.8c-0.2-0.4-0.4-0.9-0.8-1.2c-0.4-0.3-0.9-0.3-1.3-0.1
						c-0.2,0.1-0.3,0.1-0.5,0.1c-0.5-0.1-1,0-1.3,0.4c-0.2,0.2-0.3,0.5-0.4,0.8C16.3,30.6,17.1,30.9,17.9,30.9z"/>
				</g>
			</g>
		</g>
		<g opacity="0.2">
			<g>
				<g>
					<path fill="#FFFFFF" d="M19.2,29.5c-0.1,0.1-0.3,0.2-0.5,0.1c-0.2-0.1-0.4-0.3-0.3-0.5c0.1-0.1,0.3-0.2,0.5-0.1
						C19.1,29.1,19.2,29.4,19.2,29.5z"/>
				</g>
			</g>
		</g>
	</g>
	<g>
		<g>
			<path fill="#3E4347" d="M11.3,11.6c0,0.9-0.3,1.4,1.2,1.4c1.2,0,1.9-2,1.3-3C12.8,10.3,12,10.9,11.3,11.6
				C11.3,11.5,11.3,11.5,11.3,11.6z"/>
		</g>
	</g>
	<g>
		<g>
			<g>
				<path fill="#3E4347" d="M23.1,11.4c0.8,0.5,1.1,1.2-0.8,1c-0.4,0-0.7,0.2-1,0.2C20.5,12.7,20.2,9.7,23.1,11.4z"/>
			</g>
		</g>
	</g>
	<g>
		<g>
			<g>
				<g>
					<g>
						<path fill="#3E4347" d="M24.8,18.1c0.2-0.2,0.5-1,0.9-0.7c0.2,0.2,0,0.8-0.1,1.1c-0.2,0.2-0.5,0.8-0.8,0.7
							C24.5,19,24.4,18.6,24.8,18.1z"/>
					</g>
				</g>
			</g>
			<g>
				<g>
					<g>
						<path fill="#3E4347" d="M23.8,20.1c-0.1,0.1-0.1,0.5,0.1,0.7c0.1,0.1,0.3,0,0.4-0.1c0.1-0.1,0.1-0.4,0-0.5
							C24.2,20.1,23.9,19.9,23.8,20.1z"/>
					</g>
				</g>
			</g>
		</g>
		<g>
			<g>
				<g>
					<g>
						<path fill="#3E4347" d="M11.2,18.1c-0.2-0.2-0.5-1-0.9-0.7c-0.2,0.2,0,0.8,0.1,1.1c0.2,0.2,0.5,0.8,0.8,0.7
							C11.5,19,11.6,18.6,11.2,18.1z"/>
					</g>
				</g>
			</g>
			<g>
				<g>
					<g>
						<path fill="#3E4347" d="M12.2,20.1c0.1,0.1,0.1,0.5-0.1,0.7c-0.1,0.1-0.3,0-0.4-0.1c-0.1-0.1-0.1-0.4,0-0.5
							C11.8,20.1,12.1,19.9,12.2,20.1z"/>
					</g>
				</g>
			</g>
		</g>
	</g>
</g>
</svg>
