<?xml version="1.0" encoding="utf-8"?>
<!-- Generator: Adobe Illustrator 18.0.0, SVG Export Plug-In . SVG Version: 6.00 Build 0)  -->
<!DOCTYPE svg PUBLIC "-//W3C//DTD SVG 1.1//EN" "http://www.w3.org/Graphics/SVG/1.1/DTD/svg11.dtd">
<svg version="1.1" id="Layer_1" xmlns="http://www.w3.org/2000/svg" xmlns:xlink="http://www.w3.org/1999/xlink" x="0px" y="0px"
	 viewBox="0 0 36 36" enable-background="new 0 0 36 36" xml:space="preserve">
<g>
	<g>
		<g>
			<g>
				<g>
					<g>
						<g>
							<g>
								<path fill="#8D9BA3" d="M27.1,8.2c-0.3,0.4-0.6,0.7-0.8,1.1c1.4-0.5,3-0.2,4.3-1c-0.5,0.5-1,1-1.5,1.4
									C30.6,9,32.9,9.3,34,7.6c0.2,2-0.8,4-2.4,4.9c0.5,0,1-0.3,1.4-0.6c-1,2.6-3.4,4.5-5.9,4.8C21,17.4,20.7,9,27.1,8.2z"/>
							</g>
						</g>
					</g>
				</g>
				<g>
					<g>
						<g>
							<g>
								<path fill="#FC97B2" d="M26.4,11.4c1.4-0.2,2.9,1.1,4.3,0.5c-0.1,3.1-3.9,4.2-5.6,3.3C23,13.9,24.8,11.6,26.4,11.4z"/>
							</g>
						</g>
					</g>
				</g>
				<g>
					<g>
						<g>
							<g>
								<path fill="#E88EA7" d="M26.4,11.4c-1.6,0.2-3.3,2.3-1.5,3.6c-0.1-2.3,1-2.8,3-2.4c0.8,0.1,1.7,0.4,2.8-0.6c0,0,0,0,0,0
									C29.3,12.5,27.9,11.3,26.4,11.4z"/>
							</g>
						</g>
					</g>
				</g>
			</g>
			<g>
				<g>
					<g>
						<g>
							<path fill="#84939A" d="M33.1,11.9c-0.4,0.4-0.9,0.6-1.4,0.6c1.6-0.9,2.5-2.9,2.4-4.9c0,0,0,0,0,0c-0.4,2.2-1.6,3.9-3.4,5.1
								c0.3,0.2,0.7,0.4,1.1,0.3c-1.3,1.9-3.4,3.5-5.7,3.7c0.4,0,0.8,0,1.2,0C29.7,16.4,32,14.5,33.1,11.9z"/>
						</g>
					</g>
				</g>
			</g>
		</g>
		<g>
			<g>
				<g>
					<g>
						<g>
							<g>
								<path fill="#8D9BA3" d="M8.9,8.2c0.3,0.4,0.6,0.7,0.8,1.1c-1.4-0.5-3-0.2-4.3-1c0.5,0.5,1,1,1.5,1.4C5.4,9,3.1,9.3,2,7.6
									c-0.2,2,0.8,4,2.4,4.9c-0.5,0-1-0.3-1.4-0.6c1,2.6,3.4,4.5,5.9,4.8C15,17.4,15.3,9,8.9,8.2z"/>
							</g>
						</g>
					</g>
				</g>
				<g>
					<g>
						<g>
							<g>
								<path fill="#FC97B2" d="M9.6,11.4c-1.4-0.2-2.9,1.1-4.3,0.5c0.1,3.1,3.9,4.2,5.6,3.3C13,13.9,11.2,11.6,9.6,11.4z"/>
							</g>
						</g>
					</g>
				</g>
				<g>
					<g>
						<g>
							<g>
								<path fill="#E88EA7" d="M9.6,11.4c1.6,0.2,3.3,2.3,1.5,3.6c0.1-2.3-1-2.8-3-2.4c-0.8,0.1-1.7,0.4-2.8-0.6c0,0,0,0,0,0
									C6.7,12.5,8.1,11.3,9.6,11.4z"/>
							</g>
						</g>
					</g>
				</g>
			</g>
			<g>
				<g>
					<g>
						<g>
							<path fill="#84939A" d="M2.9,11.9c0.4,0.4,0.9,0.6,1.4,0.6C2.8,11.6,1.9,9.6,2,7.6c0,0,0,0,0,0c0.4,2.2,1.6,3.9,3.4,5.1
								c-0.3,0.2-0.7,0.4-1.1,0.3c1.3,1.9,3.4,3.5,5.7,3.7c-0.4,0-0.8,0-1.2,0C6.3,16.4,4,14.5,2.9,11.9z"/>
						</g>
					</g>
				</g>
			</g>
		</g>
	</g>
	<g>
		<g>
			<g>
				<g>
					<path fill="#8D9BA3" d="M26.9,24.3c0.5-1.4,0.8-2.9,0.8-4.6c0-8.4-4.4-11.3-9.8-11.3s-9.8,2.9-9.8,11.3c0,1.6,0.3,3.2,0.8,4.6
						H26.9z"/>
				</g>
			</g>
		</g>
	</g>
	<g>
		<g>
			<g>
				<g>
					<path fill="#DAE5EF" d="M27.4,23.3c1,1.1,1.5,2.6,1.4,4.1c-0.3-0.9-0.8-1.6-1.5-1.9c0.3,1.2,0.1,2.4-0.4,3.5
						c-0.8-1.3-1.8-1.5-2.7-1.4c-2.7,0.3-2.4,3.3-6.2,3.3c-3.8,0-3.5-3-6.2-3.3c-1-0.1-2,0.2-2.7,1.4c-0.5-1.1-0.6-2.3-0.4-3.5
						c-0.7,0.3-1.2,1.1-1.5,1.9c-0.1-1.5,0.4-3,1.4-4.1c-0.7,0.1-1.2,0.6-1.7,1c0.6-1.4,1.8-2.5,3.2-2.9c-0.5-0.1-1.1-0.1-1.6,0
						c1.2-0.6,2.6-0.7,3.9-0.4c2.3,0.4,4.5,2.3,5.7,4.3c1.2-2,3.3-3.9,5.7-4.3c1.3-0.3,2.7-0.2,3.9,0.4c-0.5,0-1.1,0-1.6,0
						c1.4,0.4,2.6,1.5,3.2,2.9C28.6,23.9,28.1,23.5,27.4,23.3z"/>
				</g>
			</g>
		</g>
	</g>
	<g>
		<g>
			<g>
				<g>
					<g>
						<circle fill="#DAE5EF" cx="18.1" cy="24.9" r="4.3"/>
					</g>
				</g>
			</g>
		</g>
		<g>
			<g>
				<g>
					<g>
						<path fill="#CBD6E0" d="M22.1,23.4c-0.3-0.5-0.6-0.9-0.9-1.3c-0.9-0.8-1.9-1.3-3.1-1.3c-1.1,0-2.2,0.4-3.1,1.3
							c-0.4,0.4-0.7,0.8-0.9,1.3c0.1-0.5,0.4-1,0.8-1.5c0.8-0.9,1.9-1.5,3.3-1.5c1.3,0,2.5,0.6,3.3,1.5C21.7,22.3,22,22.9,22.1,23.4
							z"/>
					</g>
				</g>
			</g>
		</g>
		<g>
			<g>
				<g>
					<g>
						<g>
							<path fill="#3E4347" d="M24,25c-0.1,0.6-0.4,1.1-0.9,1.6c-0.7,0.7-1.7,1.1-2.6,1.2c-0.9,0.1-1.8-0.1-2.4-0.8
								c-0.6,0.7-1.5,0.9-2.4,0.8c-0.9-0.1-1.9-0.6-2.5-1.2c-0.6-0.6-0.8-1.1-0.9-1.6c0.2,0.6,0.6,1,1.1,1.4
								c0.7,0.5,1.6,0.9,2.4,0.9c0.1,0,0.8,0,0.9,0c1.5-0.3,1.2-1.9,1.2-3.9h0.5c0,2.4-0.4,4.2,2.1,4c0.8,0,1.7-0.4,2.4-0.9
								C23.4,26.1,23.8,25.6,24,25z"/>
						</g>
					</g>
				</g>
			</g>
		</g>
		<g>
			<g>
				<g>
					<g>
						<path fill="#6D4135" d="M20.4,23.1c0,0.7-0.6,1.3-1.2,1.7c-0.7,0.5-1.5,0.5-2.2,0c-0.6-0.4-1.2-1-1.2-1.7c0-1.3,1-1.5,2.3-1.5
							C19.4,21.6,20.4,21.8,20.4,23.1z"/>
					</g>
				</g>
			</g>
		</g>
		<g>
			<g>
				<g>
					<g>
						<path fill="#633B2A" d="M20.4,23.1c0,0.7-0.6,1.3-1.2,1.7c-0.7,0.5-1.5,0.5-2.2,0c-0.5-0.3-1-0.8-1.1-1.3
							c0.4,0.4,1.2,0.6,2,0.6c1.4,0,2.4-0.7,2.4-1.5c0,0,0-0.1,0-0.1C20.4,22.6,20.4,22.9,20.4,23.1z"/>
					</g>
				</g>
			</g>
		</g>
		<g opacity="0.1">
			<g>
				<g>
					<g>
						<path fill="#FFFFFF" d="M18.9,22.3c0,0.3-0.4,0.5-0.9,0.5s-0.8-0.3-0.8-0.5s0.3-0.4,0.8-0.5C18.4,21.7,18.9,22,18.9,22.3z"/>
					</g>
				</g>
			</g>
		</g>
	</g>
	<g>
		<g>
			<g>
				<g>
					<g>
						<path fill="#3E4347" d="M24.7,26.2c-0.1-0.4-0.1-1-0.4-1.4c-0.3-0.7-1.1-0.7-1.1-0.7c0.6-0.2,1.1,0.1,1.3,0.6
							C24.8,25.1,24.8,25.8,24.7,26.2z"/>
					</g>
				</g>
			</g>
		</g>
		<g>
			<g>
				<g>
					<g>
						<path fill="#3E4347" d="M11.5,26.2c0.1-0.4,0.1-1,0.4-1.4c0.3-0.7,1.1-0.7,1.1-0.7c-0.6-0.2-1.1,0.1-1.3,0.6
							C11.5,25.1,11.4,25.8,11.5,26.2z"/>
					</g>
				</g>
			</g>
		</g>
	</g>
	<g>
		<g>
			<g>
				<g>
					<path fill="#8D9BA3" d="M19,10.1c1.2-1,2.7-1.7,4.2-1.8c-0.8-0.3-1.6-0.4-2.4-0.4c0.6-0.8,1.5-1.3,2.5-1.4
						c-1.3-0.3-2.7,0.1-3.7,1c0-0.9,0.4-1.8,1.2-2.4c-1.3,0.4-2.4,1.3-3,2.5c-0.8-1-2.2-1.5-3.4-1.2c0.8,0.1,1.4,0.6,1.8,1.3
						C14.9,7.6,13.6,8,12.8,9c1.2-0.5,2.5-0.5,3.7,0c-0.9,0.3-1.6,1-1.9,1.9c-0.3,0.9-0.3,1.9,0.1,2.7"/>
				</g>
			</g>
		</g>
	</g>
	<g>
		<g>
			<g>
				<g>
					<g>
						<g>
							<g>
								<path fill="#84939A" d="M24.8,16.7c0,2-1.2,3.7-2.8,3.7c-1.5,0-2.8-1.7-2.8-3.7c0-2,1.2-3.7,2.8-3.7
									C23.6,13,24.8,14.7,24.8,16.7z"/>
							</g>
						</g>
					</g>
				</g>
				<g>
					<g>
						<g>
							<g>
								<path fill="#FFFFFF" d="M24.7,17.2c0,1.8-1.2,3.3-2.7,3.3c-1.5,0-2.7-1.5-2.7-3.3c0-1.8,1.2-3.3,2.7-3.3
									C23.5,13.8,24.7,15.3,24.7,17.2z"/>
							</g>
						</g>
					</g>
				</g>
				<g>
					<g>
						<g>
							<g>
								<path fill="#65B1EF" d="M23.6,17.7c0,1.1-0.8,1.9-1.8,1.9s-1.8-0.9-1.8-1.9c0-1.1,0.8-1.9,1.8-1.9S23.6,16.7,23.6,17.7z"/>
							</g>
						</g>
					</g>
				</g>
				<g>
					<g>
						<g>
							<g>
								<path fill="#3E4347" d="M22.8,17.7c0,0.6-0.4,1.1-1,1.1s-1-0.5-1-1.1c0-0.6,0.4-1.1,1-1.1S22.8,17.2,22.8,17.7z"/>
							</g>
						</g>
					</g>
				</g>
				<g>
					<g>
						<g>
							<g>
								<circle fill="#FFFFFF" cx="22.6" cy="17.1" r="0.4"/>
							</g>
						</g>
					</g>
				</g>
			</g>
			<g>
				<g>
					<g>
						<g>
							<path fill="#3E4347" d="M25.3,15.2c-0.3-1.6-1.1-2.7-2.9-3c-0.9-0.1-0.2-1.9,1.3-0.5C24.9,12.8,25.2,13.8,25.3,15.2z"/>
						</g>
					</g>
				</g>
			</g>
		</g>
		<g>
			<g>
				<g>
					<g>
						<g>
							<g>
								<path fill="#84939A" d="M11.2,16.7c0,2,1.2,3.7,2.8,3.7c1.5,0,2.8-1.7,2.8-3.7c0-2-1.2-3.7-2.8-3.7
									C12.4,13,11.2,14.7,11.2,16.7z"/>
							</g>
						</g>
					</g>
				</g>
				<g>
					<g>
						<g>
							<g>
								<path fill="#FFFFFF" d="M11.3,17.2c0,1.8,1.2,3.3,2.7,3.3c1.5,0,2.7-1.5,2.7-3.3c0-1.8-1.2-3.3-2.7-3.3
									C12.5,13.8,11.3,15.3,11.3,17.2z"/>
							</g>
						</g>
					</g>
				</g>
				<g>
					<g>
						<g>
							<g>
								<path fill="#65B1EF" d="M12.4,17.7c0,1.1,0.8,1.9,1.8,1.9s1.8-0.9,1.8-1.9c0-1.1-0.8-1.9-1.8-1.9S12.4,16.7,12.4,17.7z"/>
							</g>
						</g>
					</g>
				</g>
				<g>
					<g>
						<g>
							<g>
								<path fill="#3E4347" d="M13.2,17.7c0,0.6,0.4,1.1,1,1.1c0.5,0,1-0.5,1-1.1c0-0.6-0.4-1.1-1-1.1
									C13.6,16.7,13.2,17.2,13.2,17.7z"/>
							</g>
						</g>
					</g>
				</g>
				<g>
					<g>
						<g>
							<g>
								<circle fill="#FFFFFF" cx="13.4" cy="17.1" r="0.4"/>
							</g>
						</g>
					</g>
				</g>
			</g>
			<g>
				<g>
					<g>
						<g>
							<path fill="#3E4347" d="M10.7,15.2c0.3-1.6,1.1-2.7,2.9-3c0.9-0.1,0.2-1.9-1.3-0.5C11.1,12.8,10.8,13.8,10.7,15.2z"/>
						</g>
					</g>
				</g>
			</g>
		</g>
	</g>
</g>
</svg>
