<?xml version="1.0" encoding="utf-8"?>
<!-- Generator: Adobe Illustrator 18.0.0, SVG Export Plug-In . SVG Version: 6.00 Build 0)  -->
<!DOCTYPE svg PUBLIC "-//W3C//DTD SVG 1.1//EN" "http://www.w3.org/Graphics/SVG/1.1/DTD/svg11.dtd">
<svg version="1.1" id="Layer_1" xmlns="http://www.w3.org/2000/svg" xmlns:xlink="http://www.w3.org/1999/xlink" x="0px" y="0px"
	 viewBox="0 0 36 36" enable-background="new 0 0 36 36" xml:space="preserve">
<g>
	<g>
		<g>
			<g>
				<g>
					<g>
						
							<ellipse transform="matrix(0.7071 0.7071 -0.7071 0.7071 16.0297 -17.4753)" fill="#FFD93B" cx="29.1" cy="10.6" rx="4" ry="5.7"/>
					</g>
				</g>
			</g>
			<g>
				<g>
					<g>
						
							<ellipse transform="matrix(0.7071 0.7071 -0.7071 0.7071 16.3474 -17.2432)" fill="#FC97B2" cx="29" cy="11.1" rx="2.8" ry="4.2"/>
					</g>
				</g>
			</g>
			<g>
				<g>
					<g>
						<path fill="#E88EA7" d="M26.5,14.4c-0.2-0.1-0.3-0.2-0.5-0.3c-1.1-1.1-0.7-3.3,1-5s3.9-2.1,5-1c0.3,0.3,0.5,0.6,0.5,1
							c-1.1-1-3.2-0.6-4.8,0.9C26.3,11.4,25.9,13.3,26.5,14.4z"/>
					</g>
				</g>
			</g>
		</g>
		<g>
			<g>
				<g>
					<g>
						
							<ellipse transform="matrix(-0.7071 0.7071 -0.7071 -0.7071 19.2667 13.2434)" fill="#FFD93B" cx="6.9" cy="10.6" rx="4" ry="5.7"/>
					</g>
				</g>
			</g>
			<g>
				<g>
					<g>
						
							<ellipse transform="matrix(-0.7071 0.7071 -0.7071 -0.7071 19.8266 14.0111)" fill="#FC97B2" cx="7" cy="11.1" rx="2.8" ry="4.2"/>
					</g>
				</g>
			</g>
			<g>
				<g>
					<g>
						<path fill="#E88EA7" d="M9.5,14.4c0.2-0.1,0.3-0.2,0.5-0.3c1.1-1.1,0.7-3.3-1-5S5.1,7,4,8.1c-0.3,0.3-0.5,0.6-0.5,1
							c1.1-1,3.2-0.6,4.8,0.9C9.7,11.4,10.1,13.3,9.5,14.4z"/>
					</g>
				</g>
			</g>
		</g>
	</g>
	<g>
		<g>
			<g>
				<g>
					<path fill="#FFD93B" d="M31.6,20.3c0.3,5.6-4.9,6.1-7.8,8.1c-1.7,1.1-3.5,3.3-5.8,3.1c-2.3,0.2-4.1-2-5.8-3.1
						c-2.9-2-8.2-2.5-7.8-8.1c0.1-1.2,0.4-2.2,0.9-2.9c0.7-1.1,1-2.3,1.1-3.6c0.4-5.7,4.8-10.3,9.2-9c1.6,0.5,3.2,0.5,4.8,0
						c4.4-1.3,8.8,3.3,9.2,9c0.1,1.3,0.4,2.6,1.1,3.6C31.2,18.1,31.6,19,31.6,20.3z"/>
				</g>
			</g>
		</g>
	</g>
	<g>
		<g>
			<g>
				<path fill="#DAE5EF" d="M29.2,25.5c-1.7,1.2-3.8,1.8-5.4,2.8c-1.7,1.1-3.5,3.3-5.8,3.1c-2.3,0.2-4.1-2-5.8-3.1
					c-1.5-1-3.7-1.7-5.4-2.8c-1.3-0.9-2-2.6-1.6-4.1c0.6-2.4,2.7-3.2,5.3-2.7c3.1,0.5,5.9,2.2,7.6,4.5c1.7-2.3,4.5-4,7.6-4.5
					c2.6-0.4,4.7,0.3,5.3,2.7C31.2,22.9,30.5,24.6,29.2,25.5z"/>
			</g>
		</g>
	</g>
	<g opacity="0.35">
		<g>
			<g>
				<path fill="#BBC7D1" d="M5,22.4c0.1,0.7,0.4,1.3,0.8,1.8C7.3,26,11,26.5,13,28.1c1,0.7,2.2,1.8,3.3,2.2c0.9,0.4,2.4,0.4,3.3,0
					c1-0.4,2.2-1.5,3.2-2.2c2.2-1.6,5.8-2,7.2-3.8c0.4-0.5,0.7-1.1,0.8-1.8c0,0.7-0.3,1.4-0.6,1.9c-1.3,2-4.9,2.7-6.9,4.3
					c-1,0.8-2.1,1.8-3.4,2.4c-1.2,0.5-2.6,0.6-4,0c-1.2-0.6-2.3-1.6-3.4-2.4C10.5,27,7,26.4,5.7,24.4C5.3,23.8,5.1,23.1,5,22.4z"/>
			</g>
		</g>
	</g>
	<g>
		<g>
			<g>
				<path fill="#BBC7D1" d="M22.6,25.2c-1.4,2.6-1.9,4.6-4.6,4.6c-2.8,0-3.2-2.1-4.6-4.6c-1.4-2.6,2.3-4.6,4.6-4.6
					C20.3,20.5,24,22.6,22.6,25.2z"/>
			</g>
		</g>
	</g>
	<g>
		<g>
			<g>
				<path fill="#6D4135" d="M21.6,25.2c-1.1,2-1.5,3.7-3.7,3.7c-2.2,0-2.6-1.6-3.7-3.7c-1.1-2,1.8-3.7,3.7-3.7
					C19.8,21.5,22.7,23.1,21.6,25.2z"/>
			</g>
		</g>
	</g>
	<g>
		<g>
			<g>
				<path fill="#5B331D" d="M16.4,25.4c0.4,1.1,0.6,2,1.6,2c0.9,0,1.1-0.9,1.6-2H16.4z"/>
			</g>
		</g>
	</g>
	<g>
		<g>
			<g>
				<path fill="#FFFFFF" d="M18.6,25.8c2.4,2,6.5,0.6,6.5-2.3c0-3.6-2.9-5-7-5c-4.1-0.1-7.1,1.4-7.1,5c-0.1,2.9,4.1,4.3,6.4,2.3
					C17.9,25.5,18,25.5,18.6,25.8z"/>
			</g>
		</g>
	</g>
	<g>
		<g>
			<g>
				<path fill="#E9EFF4" d="M25,23.9c-0.1,0.7-0.3,1.4-0.9,1.8c-0.5,0.5-1.1,0.8-1.7,1c-0.9,0.3-2.2,0.2-3-0.3
					c-0.4-0.2-1-0.8-1.5-0.8c-0.4,0-1,0.6-1.5,0.8c-0.9,0.5-2.1,0.5-3,0.2c-1-0.3-1.6-0.7-2.1-1.4c-0.3-0.4-0.5-1-0.5-1.5
					c0.2,0.5,0.5,0.9,0.9,1.2c0.8,0.6,1.3,0.8,2,0.9c0.7,0.1,1.7,0,2.3-0.4c0.7-0.4,0.9-0.9,1.8-0.9c0.9,0,1.3,0.6,1.9,0.9
					c0.5,0.3,1.5,0.5,2.3,0.4c0.9-0.1,1-0.3,1.6-0.6C24.3,25,24.7,24.5,25,23.9z"/>
			</g>
		</g>
	</g>
	<g>
		<g>
			<g>
				<path fill="#E24B4B" d="M18.1,27.4c-0.1-0.3-0.2-0.6-0.5-0.7c-0.9-0.4-1.6,0.3-1.7,1.1c0.5,0.6,1.1,0.9,2.1,0.9
					c1.2,0,1.9-0.5,2.4-1.4c0-0.1-0.1-0.1-0.1-0.2C19.7,26.7,18.6,26.8,18.1,27.4z"/>
			</g>
		</g>
	</g>
	<g opacity="0.2">
		<g>
			<g>
				<path fill="#FFFFFF" d="M19.9,27.3c0.2,0.3-0.1,0.6-0.4,0.5c-0.2-0.1-0.2-0.4-0.5-0.3c-0.5,0.1-0.4-0.2-0.2-0.3
					C19.1,27,19.7,27.1,19.9,27.3z"/>
			</g>
		</g>
	</g>
	<g>
		<g>
			<g>
				<g>
					<path fill="#6D4135" d="M20.9,19.1c-0.8,0.8-1.8,1.6-2.2,2.1c-0.4,0.4-1.2,0.4-1.6,0c-0.3-0.5-1.3-1.2-2.2-2.1
						c-0.9-1.5,1.6-1.7,3-1.7C19.3,17.4,21.9,17.6,20.9,19.1z"/>
				</g>
			</g>
		</g>
		<g>
			<g>
				<g>
					<path fill="#633B2A" d="M17.1,21.2c0.4,0.4,1.2,0.4,1.6,0c0.3-0.5,1.3-1.2,2.2-2.1c0.6-0.9-0.1-1.3-1-1.5c0,0,0,0,0,0.1
						c0.8,1.8-2.7,3.8-5,1.4c0,0,0,0,0,0C15.8,19.9,16.8,20.7,17.1,21.2z"/>
				</g>
			</g>
		</g>
		<g opacity="0.2">
			<g>
				<g>
					<path fill="#FFFFFF" d="M19,17.8c0.3,0.2,0.4,0.5,0,0.7c-0.7,0.3-1.5,0.4-2.3,0.4c-1,0-1.2-0.6-1.1-0.9
						C15.9,17.7,17.9,17.2,19,17.8z"/>
				</g>
			</g>
		</g>
	</g>
	<g>
		<g>
			<g>
				<g>
					<g>
						<path fill="#3E4347" d="M15.3,23.8c0,0.1-0.1,0.2-0.2,0.2c0,0,0,0,0,0c-1.9-0.3-4.1,0.2-5.6,1.2c-0.8,0.5-1.5,1.1-2.1,1.7
							C7.1,27.6,7,28.5,7,29.4c0-0.7,0.1-1.5,0.3-2.2c-0.8,0.9-1.1,1.6-1.5,2.5c0.4-0.9,0.6-1.6,1.6-2.8c0.3-1,0.8-1.9,1.5-2.6
							c1.2-1.4,3.2-2.3,5-2.4h0c0.1,0,0.2,0.1,0.2,0.2c0,0.1-0.1,0.2-0.2,0.2h0c-1.6,0-3.6,0.8-4.9,2.1c-0.7,0.7-1.2,1.5-1.5,2.3
							c0.5-0.6,1.1-1.1,1.8-1.6c1.5-1,3.7-1.6,5.8-1.5h0C15.2,23.6,15.3,23.7,15.3,23.8z"/>
					</g>
				</g>
				<g>
					<g>
						<path fill="#3E4347" d="M27.6,31c-0.1-0.9-0.1-2.1-1.5-3.8c-0.9-1.1-2-2-3.4-2.1c-0.1,0-0.2-0.1-0.2-0.2
							c0-0.1,0.1-0.2,0.2-0.2h0c1.6,0.3,2.7,1.2,3.6,2.4C27.2,28.5,27.6,29.7,27.6,31z"/>
					</g>
				</g>
				<g>
					<g>
						<path fill="#3E4347" d="M30.2,29.7c-0.4-0.9-0.7-1.6-1.5-2.5c0.2,0.7,0.3,1.5,0.3,2.2c0-0.9-0.2-1.8-0.4-2.4
							c-0.6-0.6-1.3-1.2-2.1-1.7c-1.6-1-3.8-1.5-5.6-1.2c-0.1,0-0.2-0.1-0.2-0.2c0-0.1,0.1-0.2,0.2-0.2c0,0,0,0,0,0h0
							c2.1-0.2,4.2,0.4,5.8,1.5c0.7,0.5,1.3,1,1.8,1.6c-0.3-0.8-0.8-1.6-1.5-2.3c-1.3-1.3-3.2-2.1-4.9-2.1c-0.1,0-0.2-0.1-0.2-0.2
							c0-0.1,0.1-0.2,0.2-0.2c0,0,0,0,0,0h0c1.8,0.1,3.7,1,5,2.4c0.7,0.8,1.2,1.7,1.5,2.6C29.6,28.1,29.9,28.8,30.2,29.7z"/>
					</g>
				</g>
				<g>
					<g>
						<path fill="#3E4347" d="M13.5,24.7c0,0.1-0.1,0.2-0.2,0.2h0c-1.4,0.2-2.6,1-3.4,2.1c-1.4,1.8-1.4,3.1-1.5,3.9
							c0.1-1,0.1-2.3,1.3-4.1c0.9-1.3,2-2.1,3.6-2.4C13.3,24.6,13.4,24.6,13.5,24.7z"/>
					</g>
				</g>
			</g>
		</g>
	</g>
	<g>
		<g>
			<g>
				<g>
					<g>
						<g>
							<path fill="#E9B02C" d="M26.4,14.3c0,2.2-1.5,3.9-3.3,3.9c-1.8,0-3.3-1.8-3.3-3.9c0-2.2,1.5-3.9,3.3-3.9
								C24.9,10.3,26.4,12.1,26.4,14.3z"/>
						</g>
					</g>
				</g>
				<g>
					<g>
						<g>
							<path fill="#FFFFFF" d="M26.1,14.9c0,1.9-1.4,3.5-3.2,3.5c-1.8,0-3.2-1.5-3.2-3.5c0-1.9,1.4-3.5,3.2-3.5
								C24.7,11.4,26.1,13,26.1,14.9z"/>
						</g>
					</g>
				</g>
				<g>
					<g>
						<g>
							<path fill="#65B1EF" d="M24.9,15.4c0,1.1-0.9,2-2,2c-1.1,0-2-0.9-2-2c0-1.1,0.9-2,2-2C24,13.5,24.9,14.4,24.9,15.4z"/>
						</g>
					</g>
				</g>
				<g>
					<g>
						<g>
							<circle fill="#3E4347" cx="22.9" cy="15.4" r="1"/>
						</g>
					</g>
				</g>
				<g>
					<g>
						<g>
							<circle fill="#FFFFFF" cx="23.7" cy="14.8" r="0.4"/>
						</g>
					</g>
				</g>
			</g>
			<g>
				<g>
					<g>
						<path fill="#3E4347" d="M27.3,11.9c-0.9-1.1-2.6-2.7-4.6-2.7c-0.8,0-1.4-1.5,0-1.6C24.6,7.6,26.8,10.1,27.3,11.9z"/>
					</g>
				</g>
			</g>
		</g>
		<g>
			<g>
				<g>
					<g>
						<g>
							<path fill="#E9B02C" d="M9.5,14.3c0,2.2,1.5,3.9,3.3,3.9c1.8,0,3.3-1.8,3.3-3.9c0-2.2-1.5-3.9-3.3-3.9
								C11,10.3,9.5,12.1,9.5,14.3z"/>
						</g>
					</g>
				</g>
				<g>
					<g>
						<g>
							<path fill="#FFFFFF" d="M9.8,14.9c0,1.9,1.4,3.5,3.2,3.5c1.8,0,3.2-1.5,3.2-3.5c0-1.9-1.4-3.5-3.2-3.5
								C11.2,11.4,9.8,13,9.8,14.9z"/>
						</g>
					</g>
				</g>
				<g>
					<g>
						<g>
							<path fill="#65B1EF" d="M14.9,15.4c0,1.1-0.9,2-2,2c-1.1,0-2-0.9-2-2c0-1.1,0.9-2,2-2C14.1,13.5,14.9,14.4,14.9,15.4z"/>
						</g>
					</g>
				</g>
				<g>
					<g>
						<g>
							<circle fill="#3E4347" cx="13" cy="15.4" r="1"/>
						</g>
					</g>
				</g>
				<g>
					<g>
						<g>
							<circle fill="#FFFFFF" cx="13.7" cy="14.8" r="0.4"/>
						</g>
					</g>
				</g>
			</g>
			<g>
				<g>
					<g>
						<path fill="#3E4347" d="M8.7,11.9c0.9-1.1,2.6-2.7,4.6-2.7c0.8,0,1.4-1.5,0-1.6C11.3,7.6,9.1,10.1,8.7,11.9z"/>
					</g>
				</g>
			</g>
		</g>
	</g>
</g>
</svg>
