<?xml version="1.0" encoding="utf-8"?>
<!-- Generator: Adobe Illustrator 18.0.0, SVG Export Plug-In . SVG Version: 6.00 Build 0)  -->
<!DOCTYPE svg PUBLIC "-//W3C//DTD SVG 1.1//EN" "http://www.w3.org/Graphics/SVG/1.1/DTD/svg11.dtd">
<svg version="1.1" id="Layer_1" xmlns="http://www.w3.org/2000/svg" xmlns:xlink="http://www.w3.org/1999/xlink" x="0px" y="0px"
	 viewBox="0 0 36 36" enable-background="new 0 0 36 36" xml:space="preserve">
<g>
	<g>
		<g>
			<g>
				<g>
					<path fill="#3E4347" d="M28.4,28.8c2.6-2.5,3.9-5.5,3.2-8.8C28,9.2,25.6,4.7,18,4.7C10.4,4.7,8,9.2,4.4,20
						c-0.8,3.3,0.5,6.3,3.2,8.8C14.5,28.8,21.5,28.8,28.4,28.8z"/>
				</g>
			</g>
		</g>
		<g>
			<g>
				<g>
					<g>
						<g>
							<path fill="#A5856D" d="M12.7,18.5c-0.5-1.6-1.4-3.2-2.3-4c-3.3-2.9-7.8,2.2-4.4,4.7c1.8,1.3,5,1.1,6.6,2.6V18.5z"/>
						</g>
					</g>
				</g>
				<g>
					<g>
						<g>
							<g>
								<path fill="#FC97B2" d="M6.3,16.4c-0.4,0.7-0.3,1.3,0.4,2c1.6,1.6,3,1.2,4.5,1.8c-0.9-2.1-1.1-3.8-2.2-4.6
									C8.2,15,6.9,15.2,6.3,16.4z"/>
							</g>
						</g>
					</g>
					<g>
						<g>
							<path fill="#E88EA7" d="M6.3,16.4c0.6-1.1,1.9-1.4,2.8-0.8c1.1,0.8,1.3,2.5,2.2,4.6c0,0,0,0,0,0c-1.1-2.5-3.6-6-5-3.7
								C6.3,16.5,6.3,16.4,6.3,16.4z"/>
						</g>
					</g>
				</g>
			</g>
			<g>
				<g>
					<g>
						<g>
							<path fill="#A5856D" d="M23.3,18.5c0.5-1.6,1.4-3.2,2.3-4c3.3-2.9,7.8,2.2,4.4,4.7c-1.8,1.3-5,1.1-6.6,2.6V18.5z"/>
						</g>
					</g>
				</g>
				<g>
					<g>
						<g>
							<g>
								<path fill="#FC97B2" d="M29.7,16.4c0.4,0.7,0.3,1.3-0.4,2c-1.6,1.6-3,1.2-4.5,1.8c0.9-2.1,1.1-3.8,2.2-4.6
									C27.8,15,29.1,15.2,29.7,16.4z"/>
							</g>
						</g>
					</g>
					<g>
						<g>
							<path fill="#E88EA7" d="M29.7,16.4c-0.6-1.1-1.9-1.4-2.8-0.8c-1.1,0.8-1.3,2.5-2.2,4.6c0,0,0,0,0,0c1.1-2.5,3.6-6,5-3.7
								C29.7,16.5,29.7,16.4,29.7,16.4z"/>
						</g>
					</g>
				</g>
			</g>
		</g>
		<g>
			<g>
				<g>
					<path fill="#A5856D" d="M30.4,25.2c0.1,4-3.6,6.9-9.3,7.6C20.4,33.5,19.3,34,18,34c-1.3,0-2.4-0.5-3.1-1.1
						c-5.7-0.7-9.4-3.6-9.3-7.6c-0.1-4.7,5-7.9,12.4-7.8C25.4,17.3,30.5,20.5,30.4,25.2z"/>
				</g>
			</g>
		</g>
		<g>
			<g>
				<path fill="#A5856D" d="M26.3,17.1c0,3.7-2.4,6.6-5.4,6.6c-1.1,0-2.1-0.4-3-1.1c-0.9,0.7-1.9,1.1-3,1.1c-3,0-5.3-3-5.3-6.6
					s2.4-6.6,5.3-6.6c1.1,0,2.1,0.4,3,1.1c0.9-0.7,1.9-1.1,3-1.1C23.9,10.5,26.3,13.5,26.3,17.1z"/>
			</g>
		</g>
		<g>
			<g>
				<g>
					<g>
						<g>
							<g>
								<g>
									<path fill="#8F6D52" d="M24.5,27.1c-0.4,0.4-2,1.6-3,2c-1.9,1-4.9,1-7,0c-0.9-0.4-2.6-1.6-3-2c-1.2-1.2,0.2-2.1,0.9-0.6
										c0.4,1,0.9,1.7,2.3,2.4c2.1,1.1,4.9,1,6.7,0c1.3-0.6,1.8-1.3,2.3-2.4C24.2,25,25.6,25.9,24.5,27.1z"/>
								</g>
							</g>
						</g>
					</g>
					<g>
						<g>
							<g>
								<g>
									<g>
										<g>
											<g>
												<path fill="#6D4135" d="M20.3,24.1c-0.4,0.4-1.2,0.8-1.5,0.6s0.1-1.1,0.6-1.5c0.4-0.4,0.8-0.4,1.1-0.1
													S20.7,23.7,20.3,24.1z"/>
											</g>
										</g>
									</g>
									<g>
										<g>
											<g>
												<path fill="#633B2A" d="M20.5,23.7c0,0,0-0.1-0.1-0.1c-0.3-0.3-0.6-0.3-1.1,0.1c-0.3,0.2-0.5,0.6-0.6,1c0,0,0,0,0,0
													c-0.3-0.3,0.1-1.1,0.6-1.5c0.4-0.4,0.8-0.4,1.1-0.1C20.6,23.2,20.6,23.5,20.5,23.7z"/>
											</g>
										</g>
									</g>
								</g>
							</g>
							<g>
								<g>
									<g>
										<g>
											<g>
												<path fill="#6D4135" d="M15.7,24.1c0.4,0.4,1.2,0.8,1.5,0.6s-0.1-1.1-0.6-1.5c-0.4-0.4-0.8-0.4-1.1-0.1
													C15.4,23.3,15.3,23.7,15.7,24.1z"/>
											</g>
										</g>
									</g>
									<g>
										<g>
											<g>
												<path fill="#633B2A" d="M15.5,23.7c0,0,0-0.1,0.1-0.1c0.3-0.3,0.6-0.3,1.1,0.1c0.3,0.2,0.5,0.6,0.6,1c0,0,0,0,0,0
													c0.3-0.3-0.1-1.1-0.6-1.5c-0.4-0.4-0.8-0.4-1.1-0.1C15.4,23.2,15.4,23.5,15.5,23.7z"/>
											</g>
										</g>
									</g>
								</g>
							</g>
						</g>
						<g>
							<g>
								<g>
									<path fill="#8F6D52" d="M16,24.9c0.4,0.3,0.7,0.5,0.7,0.5s-0.4-0.1-0.8-0.3c-1.3-0.7-1.6-2.1-1.1-2.6
										c0.4-0.5,1.2-0.5,1.7-0.1c-0.5-0.1-1.1-0.1-1.4,0.4C14.6,23.4,15.4,24.4,16,24.9z"/>
								</g>
							</g>
							<g>
								<g>
									<path fill="#8F6D52" d="M20.1,25.1c-0.5,0.3-0.8,0.3-0.8,0.3s0.3-0.2,0.7-0.5c0.6-0.5,1.4-1.6,0.9-2.2
										c-0.3-0.4-0.9-0.4-1.4-0.4c0.5-0.3,1.3-0.3,1.7,0.1C21.7,23.1,21.5,24.3,20.1,25.1z"/>
								</g>
							</g>
						</g>
					</g>
				</g>
			</g>
		</g>
		<g>
			<g>
				<g>
					<g>
						<g>
							<ellipse fill="#8F6D52" cx="14.2" cy="16.7" rx="2.7" ry="3.1"/>
						</g>
					</g>
				</g>
				<g>
					<g>
						<g>
							<ellipse fill="#FFFFFF" cx="14.3" cy="17.3" rx="2.7" ry="3"/>
						</g>
					</g>
				</g>
				<g>
					<g>
						<g>
							<path fill="#65B1EF" d="M16.1,17.8c0,1-0.8,1.8-1.7,1.8c-1,0-1.7-0.8-1.7-1.8c0-1,0.8-1.8,1.7-1.8
								C15.3,16,16.1,16.8,16.1,17.8z"/>
						</g>
					</g>
				</g>
				<g>
					<g>
						<g>
							<ellipse fill="#3E4347" cx="14.3" cy="17.8" rx="0.9" ry="0.9"/>
						</g>
					</g>
				</g>
				<g>
					<g>
						<g>
							<circle fill="#FFFFFF" cx="15" cy="17.2" r="0.4"/>
						</g>
					</g>
				</g>
			</g>
			<g>
				<g>
					<g>
						<g>
							<ellipse fill="#8F6D52" cx="21.8" cy="16.7" rx="2.7" ry="3.1"/>
						</g>
					</g>
				</g>
				<g>
					<g>
						<g>
							<ellipse fill="#FFFFFF" cx="21.7" cy="17.3" rx="2.7" ry="3"/>
						</g>
					</g>
				</g>
				<g>
					<g>
						<g>
							<path fill="#65B1EF" d="M19.9,17.8c0,1,0.8,1.8,1.7,1.8c1,0,1.7-0.8,1.7-1.8c0-1-0.8-1.8-1.7-1.8
								C20.7,16,19.9,16.8,19.9,17.8z"/>
						</g>
					</g>
				</g>
				<g>
					<g>
						<g>
							<ellipse fill="#3E4347" cx="21.7" cy="17.8" rx="0.9" ry="0.9"/>
						</g>
					</g>
				</g>
				<g>
					<g>
						<g>
							<circle fill="#FFFFFF" cx="21" cy="17.2" r="0.4"/>
						</g>
					</g>
				</g>
			</g>
		</g>
		<g>
			<g>
				<g>
					<path fill="#9A795F" d="M5.6,25.6c0.1,0.4,0.2,1,0.4,1.5c0.5,1.1,1,1.6,1.9,2.4c2.1,1.7,4.8,2.1,7.4,2.3c0.8,0.7,1.5,1.1,2.7,1
						c1.3,0,1.7-0.3,2.7-1c2.8-0.2,6.8-0.9,8.5-3.4c0.9-1.1,1-1.9,1.2-2.9c-0.1,0.9-0.2,1.8-1,3c-1.4,2.4-6.2,4.2-8.3,4.2
						c-0.8,0.8-2,1.1-3.1,1.1c-1.1,0-2.3-0.3-3.1-1.1c-0.9,0-5-0.8-7.3-3c-0.8-0.9-1.3-1.5-1.7-2.7C5.7,26.7,5.6,25.9,5.6,25.6z"/>
				</g>
			</g>
		</g>
	</g>
	<g>
		<g>
			<path fill="#3E4347" d="M19.8,8.2c0.8-0.5,1.4-1.4,1.5-2.3C21.5,6,21.8,6.2,22,6.4c0-0.5-0.1-0.9-0.4-1.2c0.3,0,0.5-0.1,0.9,0.1
				c-0.2-0.5-0.6-1-1.1-1.3c0.3-0.3,0.6-0.5,1-0.5c-0.9-0.5-1.9-0.5-2.8,0C19.8,3,20,2.5,20.3,2c-0.7,0.3-1.4,0.8-1.9,1.4
				c-0.4-0.7-1-1.2-1.7-1.4c0.3,0.6,0.5,1.2,0.5,1.9c-0.9-0.2-1.8-0.2-2.6,0.2c0.6-0.1,1.2,0.3,1.4,0.8c-1,0.8-1.4,2.2-1.1,3.4"/>
		</g>
	</g>
</g>
</svg>
