<?xml version="1.0" encoding="utf-8"?>
<!-- Generator: Adobe Illustrator 18.0.0, SVG Export Plug-In . SVG Version: 6.00 Build 0)  -->
<!DOCTYPE svg PUBLIC "-//W3C//DTD SVG 1.1//EN" "http://www.w3.org/Graphics/SVG/1.1/DTD/svg11.dtd">
<svg version="1.1" id="Layer_1" xmlns="http://www.w3.org/2000/svg" xmlns:xlink="http://www.w3.org/1999/xlink" x="0px" y="0px"
	 viewBox="0 0 36 36" enable-background="new 0 0 36 36" xml:space="preserve">
<g>
	<g>
		<g>
			<g>
				<g>
					<g>
						<path fill="#CF7519" d="M32.4,17.1c-0.5-0.6-0.6-0.9-1.3-1.4c1.1,2.6,1,6.1-0.7,9.3c-0.8,1.5-1.5,2.1-3,3.6
							c0.1-0.4,0.3-1.5,0.3-1.9c-0.6,0.9-1.7,1.6-2.6,2.2c-3.1,2-2.9,2-4,4.2c-0.3-1.3-0.5-1.9-0.3-3.1c-2,1.6-3,3.1-3.7,4.1
							c-0.7-2-0.9-2.8-3.1-4.1c-1.1-0.8-2.8-1.6-4-2.5c-0.6-0.4-1.2-1-1.7-1.5c0,0.9,0.2,1.6,0.5,2.8c-1.4-1.3-2.3-2-3.2-3.7
							c-1.1-1.9-1.6-4.2-1.3-6.6c0.1-1,0.4-2.2,0.6-2.6c-0.5,0.4-0.9,0.8-1.3,1.3c0-1.9-0.1-3.7,0.3-5.5c0.4-1.5,1.2-3,2.5-3.8
							c-0.8,0-1.6,0.3-2.2,0.9c4.9-9.6,23.5-8,27.5-0.1c-0.7-0.3-1.3-0.6-2.1-0.8C32.7,9.9,32.4,14.4,32.4,17.1z"/>
					</g>
				</g>
			</g>
			<g>
				<g>
					<g>
						<path fill="#BE630E" d="M25.7,9.8c0.9,0.9,1.5,2.1,1.6,3.4c-0.8-1.2-2.3-1.7-3.6-2.1c-3.5-0.9-7.2-1.1-10.8-0.6
							c-1.6,0.3-3.2,0.7-4.4,1.8c0.1-1.4,1-2.7,2.2-3.3C9.8,9.2,9,9.4,8.2,9.8c0.4-1,1.4-1.7,2.4-1.9c1-0.3,2.1-0.2,3.2-0.2
							c-0.7-1.2-1.9-2-3.3-2.2c3.9-0.6,7.3,1.4,7.3,1.4s1.9-1.6,4.6-2.5c-0.5,0.7-0.8,1.5-0.9,2.3c1.5-1,3.3-1.4,5.1-1.2
							c-0.8,0.6-1.4,1.3-1.9,2.2c0.8,0,1.5,0.5,2.1,1.1c0.5,0.6,0.9,1.3,1.2,2.1C27.3,10.3,26.6,9.9,25.7,9.8z"/>
					</g>
				</g>
			</g>
			<g opacity="0.5">
				<g>
					<g>
						<path fill="#BE630E" d="M32.4,17c-0.5-0.7-0.6-0.9-1.3-1.4c1.1,2.6,1,6.1-0.7,9.3c-0.8,1.5-1.5,2.1-3,3.6
							c0.1-0.4,0.2-1.5,0.3-1.9c-0.6,0.9-1.7,1.6-2.6,2.2c-3.1,2-2.9,2-4,4.2c-0.3-1.3-0.5-1.9-0.3-3.1c-2,1.6-3,3.1-3.7,4.1
							c-0.7-2-0.9-2.7-3.1-4.1c-1.1-0.8-2.7-1.6-4-2.5c-0.6-0.4-1.2-1-1.7-1.5c0,0.9,0.2,1.6,0.5,2.8c-1.4-1.3-2.3-2-3.2-3.7
							C4.6,23,4,20.8,4.3,18.3c0.1-1,0.4-2.1,0.6-2.6C4.4,16.1,4,16.5,3.6,17c0-1.9-0.1-3.7,0.3-5.5c0.4-1.5,1.2-3,2.5-3.8
							c-0.8,0-1.6,0.3-2.2,0.9c0.7-0.7,1.5-1,2.6-1c-1.2,0.9-2.1,2-2.5,4C4,13,4,14.4,4.1,15.8c0.7-0.7,1-0.8,1.8-1.1
							c-0.6,1.5-0.8,2.1-1,3.7c-0.2,2.2,0.3,4.3,1.4,6.2c0.3,0.6,0.7,1.1,1.1,1.6c0-1,0.2-1.4,0.4-2.3c1.1,1.5,1.2,1.8,2.6,2.8
							c1.2,0.8,2.8,1.6,4,2.4c1.3,0.8,2.1,1.5,2.8,2.9c1.8-2.4,4.3-3.3,4.3-3.3s0.1,0.7,0,1.6c0.9-1,2-1.6,3-2.3
							c2.9-1.8,2.7-2.4,3.4-5.1c0.4,1.8,0.5,2.2,0.5,3.2c0.4-0.4,0.6-0.7,1.2-1.6c2.4-4.2,1.3-7.5,0.3-10c0.7,0.3,1.3,0.6,1.9,1.2
							c0.1-1.8,0.3-6-2.6-8c0,0,0,0,0,0L29,7.5c0,0,0.4,0.1,0.4,0.1c0.8,0.2,1.6,0.5,2.3,1c-0.7-0.3-1.3-0.6-2.1-0.8
							C32.7,9.9,32.4,14.4,32.4,17z"/>
					</g>
				</g>
			</g>
			<g>
				<g>
					<g>
						<g>
							<path fill="#F4C534" d="M26.7,15c0.2,1.6,0.2,2.8-0.4,4.5c-1.9,5.6-3.9,7.5-8.4,7.4c-4.4-0.1-6.4-2-8.3-7.7
								c-0.6-1.7-0.6-2.9-0.4-4.5c0.5-3.6,4.4-6.1,8.7-6.1C22.3,8.7,26.2,11.4,26.7,15z"/>
						</g>
					</g>
				</g>
				<g>
					<g>
						<g>
							<path fill="#DE9C25" d="M13.5,25.2c0.4,2.1,2.3,3.6,4.4,3.6s4-1.5,4.4-3.6H13.5z"/>
						</g>
					</g>
				</g>
				<g>
					<g>
						<g>
							<g>
								<g>
									<g>
										<path fill="#3E4347" d="M16.7,15.9c0.1,1.6-0.8,3-2,3.2c-1.2,0.1-2.3-1.1-2.4-2.7s0.8-3,2-3.2S16.6,14.3,16.7,15.9z"/>
									</g>
								</g>
							</g>
							<g>
								<g>
									<g>
										<path fill="#FFFFFF" d="M16.7,16.2c0.1,1.6-0.8,2.9-1.9,3s-2.1-1.1-2.2-2.6c-0.1-1.6,0.8-2.9,1.9-3S16.6,14.6,16.7,16.2z"
											/>
									</g>
								</g>
							</g>
							<g>
								<g>
									<g>
										<g>
											<ellipse fill="#65B1EF" cx="14.7" cy="17" rx="1.3" ry="1.7"/>
										</g>
									</g>
								</g>
								<g>
									<g>
										<g>
											<ellipse fill="#3E4347" cx="14.6" cy="17.3" rx="0.8" ry="1"/>
										</g>
									</g>
								</g>
								<g>
									<g>
										<circle fill="#FFFFFF" cx="15.2" cy="16.6" r="0.3"/>
									</g>
								</g>
							</g>
						</g>
						<g>
							<g>
								<g>
									<path fill="#DE9C25" d="M12.1,13.3c0.3-0.5,0.9-1.1,1.8-1.3c1.4-0.3,2.1,0.6,2.1,0.6s-1-0.3-2-0.1
										C13.4,12.7,12.6,13,12.1,13.3z"/>
								</g>
							</g>
						</g>
					</g>
					<g>
						<g>
							<g>
								<g>
									<g>
										<path fill="#3E4347" d="M19.3,15.9c-0.1,1.6,0.8,3,2,3.2c1.2,0.1,2.3-1.1,2.4-2.7c0.1-1.6-0.8-3-2-3.2
											S19.4,14.3,19.3,15.9z"/>
									</g>
								</g>
							</g>
							<g>
								<g>
									<g>
										<path fill="#FFFFFF" d="M19.3,16.2c-0.1,1.6,0.8,2.9,1.9,3c1.1,0.1,2.1-1.1,2.2-2.6s-0.8-2.9-1.9-3S19.4,14.6,19.3,16.2z"
											/>
									</g>
								</g>
							</g>
							<g>
								<g>
									<g>
										<g>
											<ellipse fill="#65B1EF" cx="21.3" cy="17" rx="1.3" ry="1.7"/>
										</g>
									</g>
								</g>
								<g>
									<g>
										<g>
											<ellipse fill="#3E4347" cx="21.3" cy="17.3" rx="0.8" ry="1"/>
										</g>
									</g>
								</g>
								<g>
									<g>
										<circle fill="#FFFFFF" cx="21.9" cy="16.6" r="0.3"/>
									</g>
								</g>
							</g>
						</g>
						<g>
							<g>
								<g>
									<path fill="#DE9C25" d="M23.9,13.3c-0.6-0.3-1.3-0.7-1.9-0.8c-1-0.2-2,0.1-2,0.1s0.7-0.9,2.1-0.6
										C23,12.2,23.7,12.8,23.9,13.3z"/>
								</g>
							</g>
						</g>
					</g>
				</g>
				<g>
					<g>
						<g>
							<path fill="#FFD93B" d="M24,23.6c0,1.9-1.7,3.4-3.8,3.4c-0.8,0-1.5-0.2-2.1-0.6c-0.6,0.4-1.3,0.6-2.1,0.6
								c-2.1,0-3.8-1.5-3.8-3.4c0-1.9,1.8-3,3.8-3.4c0.8-0.2,3.5-0.2,4.3,0C22.2,20.7,24,21.8,24,23.6z"/>
						</g>
					</g>
				</g>
				<g>
					<g>
						<g>
							<path fill="#F4C534" d="M24,23.6c0,1.9-1.7,3.4-3.8,3.4c-0.8,0-1.5-0.2-2.1-0.6c-0.6,0.4-1.3,0.6-2.1,0.6
								c-2.1,0-3.8-1.5-3.8-3.4c0-0.1,0-0.1,0-0.2c0.1,1.6,1.8,2.9,3.8,2.9c0.8,0,1.5-0.2,2.1-0.5c0.6,0.3,1.3,0.5,2.1,0.5
								c2,0,3.7-1.3,3.8-2.9C24,23.5,24,23.6,24,23.6z"/>
						</g>
					</g>
				</g>
			</g>
		</g>
		<g>
			<g>
				<g>
					<g>
						<g>
							<path fill="#3E4347" d="M14.5,24.8c0,0.1,0,0.1-0.1,0.2c0,0,0,0,0,0c-2.1,0.4-3,2.2-3.5,4.3c0.3-2.2,1.3-3.8,3.4-4.5h0
								C14.5,24.7,14.5,24.8,14.5,24.8z"/>
						</g>
					</g>
					<g>
						<g>
							<path fill="#3E4347" d="M15.6,24.2c0.1,0,0.1,0.1,0,0.2c0,0.1-0.1,0.1-0.2,0h0c-0.7-0.4-2.2-0.4-3.9,1
								c-0.2,0.2-0.4,0.4-0.5,0.5c0.1-0.1,0.3-0.3,0.5-0.5C13.4,23.8,14.9,23.8,15.6,24.2z"/>
						</g>
					</g>
					<g>
						<g>
							<path fill="#3E4347" d="M20.5,24.5c-0.1,0-0.1,0-0.2,0c0-0.1,0-0.1,0-0.2c0,0,0,0,0,0c1.4-0.8,3.5,0.5,4.5,1.7
								C23.4,24.5,21.5,23.8,20.5,24.5z"/>
						</g>
					</g>
					<g>
						<g>
							<path fill="#3E4347" d="M27.3,26.8c-1.5-2.9-4-4.1-5.7-3.3c-0.1,0-0.1,0-0.2-0.1c0-0.1,0-0.1,0.1-0.2c0,0,0,0,0,0
								C22.9,22.6,25.5,23.3,27.3,26.8z"/>
						</g>
					</g>
					<g>
						<g>
							<path fill="#3E4347" d="M25,29.3c-0.2-1-0.5-1.9-1.1-2.7c-0.6-0.8-1.5-1.4-2.4-1.6c-0.1,0-0.1-0.1-0.1-0.1
								c0-0.1,0.1-0.1,0.1-0.1h0c1,0.3,1.8,0.8,2.4,1.8C24.6,27.3,24.9,28.3,25,29.3z"/>
						</g>
					</g>
					<g>
						<g>
							<path fill="#3E4347" d="M11,24.1c-0.8,0.6-1.7,1.5-2.3,2.7C9.2,25.8,9.8,24.8,11,24.1c1-0.9,2.4-1.4,3.6-0.8
								c0.1,0,0.1,0.1,0.1,0.2c0,0.1-0.1,0.1-0.2,0.1C13.3,23,12,23.4,11,24.1z"/>
						</g>
					</g>
				</g>
			</g>
		</g>
	</g>
	<g>
		<g>
			<g>
				<g>
					<path fill="#6D4135" d="M20.4,21.2c-0.3,0.4-0.8,0.8-1.2,1c-0.7,0.5-1.7,0.5-2.4,0c-0.4-0.3-0.9-0.6-1.2-1
						c-0.4-0.5-0.1-1.1,0.4-1.3c1.3-0.5,2.6-0.5,4,0C20.5,20.1,20.7,20.8,20.4,21.2z"/>
				</g>
			</g>
		</g>
		<g>
			<g>
				<g>
					<path fill="#633B2A" d="M20.4,21.2c-0.3,0.4-0.8,0.8-1.2,1c-0.7,0.5-1.7,0.5-2.4,0c-0.4-0.3-0.9-0.6-1.2-1
						c-0.1-0.1-0.1-0.2-0.2-0.3c0.5,0.3,1.2,0.6,2,0.6c1.4,0,2.5-0.7,2.5-1.5v-0.1C20.5,20.1,20.7,20.8,20.4,21.2z"/>
				</g>
			</g>
		</g>
		<g opacity="0.1">
			<g>
				<g>
					
						<ellipse transform="matrix(0.9991 -4.207171e-002 4.207171e-002 0.9991 -0.8411 0.7628)" fill="#FFFFFF" cx="17.7" cy="20.4" rx="1.5" ry="0.6"/>
				</g>
			</g>
		</g>
	</g>
</g>
</svg>
