<?xml version="1.0" encoding="utf-8"?>
<!-- Generator: Adobe Illustrator 18.0.0, SVG Export Plug-In . SVG Version: 6.00 Build 0)  -->
<!DOCTYPE svg PUBLIC "-//W3C//DTD SVG 1.1//EN" "http://www.w3.org/Graphics/SVG/1.1/DTD/svg11.dtd">
<svg version="1.1" id="Layer_1" xmlns="http://www.w3.org/2000/svg" xmlns:xlink="http://www.w3.org/1999/xlink" x="0px" y="0px"
	 viewBox="0 0 36 36" enable-background="new 0 0 36 36" xml:space="preserve">
<g>
	<g>
		<g>
			<g>
				<g>
					<g>
						<g>
							<path fill="#DAE5EF" d="M23.8,19.8c1.4-0.6,1.2-5.2,3.6-9.1c2.1-4.1,6.1-6.3,5.8-7.8c0-1.6-7.1-1.5-10.8,5.1
								C18.9,14.5,22.4,20.6,23.8,19.8z"/>
						</g>
					</g>
				</g>
				<g>
					<g>
						<g>
							<path fill="#FC97B2" d="M22.4,10.4c-1.7,4.3,0.1,8.2,1.1,7.8c1-0.3,1.2-3.4,2.5-6.5c1.2-3.1,3-5.5,2.4-6.4
								C27.8,4.4,24.1,6,22.4,10.4z"/>
						</g>
					</g>
				</g>
				<g>
					<g>
						<g>
							<path fill="#E88EA7" d="M28.4,6.3c0-0.1-0.1-0.1-0.1-0.2c-0.5-0.9-4,0.8-5.5,5.1c-1,3-0.5,5.6,0.3,6.9c-1-0.6-2.1-4-0.7-7.8
								c1.7-4.3,5.4-5.9,5.9-5C28.5,5.6,28.5,5.9,28.4,6.3z"/>
						</g>
					</g>
				</g>
			</g>
		</g>
		<g>
			<g>
				<g>
					<g>
						<g>
							<path fill="#DAE5EF" d="M12.2,19.8c-1.4-0.6-1.2-5.2-3.6-9.1C6.5,6.6,2.5,4.4,2.7,2.9c0-1.6,7.1-1.5,10.8,5.1
								C17.1,14.5,13.6,20.6,12.2,19.8z"/>
						</g>
					</g>
				</g>
				<g>
					<g>
						<g>
							<path fill="#FC97B2" d="M13.6,10.4c1.7,4.3-0.1,8.2-1.1,7.8c-1-0.3-1.2-3.4-2.5-6.5C8.9,8.6,7,6.2,7.7,5.3
								C8.2,4.4,11.9,6,13.6,10.4z"/>
						</g>
					</g>
				</g>
				<g>
					<g>
						<g>
							<path fill="#E88EA7" d="M7.6,6.3c0-0.1,0.1-0.1,0.1-0.2c0.5-0.9,4,0.8,5.5,5.1c1,3,0.5,5.6-0.3,6.9c1-0.6,2.1-4,0.7-7.8
								c-1.7-4.3-5.4-5.9-5.9-5C7.5,5.6,7.5,5.9,7.6,6.3z"/>
						</g>
					</g>
				</g>
			</g>
		</g>
	</g>
	<g>
		<g>
			<g>
				<g>
					<g>
						<path fill="#DAE5EF" d="M27.3,25c-1.3,5.5-5.4,8.9-9.3,9c-3.9-0.1-8-3.5-9.3-9c-1.4-5.9,1.7-9.9,9.3-9.6
							C25.6,15.1,28.7,19.1,27.3,25z"/>
					</g>
				</g>
			</g>
			<g>
				<g>
					<g>
						<path fill="#CBD6E0" d="M14.7,29.3c1.4,1.8,1.3,3.3,3.3,3.3c2.1,0,1.9-1.5,3.3-3.3C19.1,27.6,16.9,27.6,14.7,29.3z"/>
					</g>
				</g>
			</g>
			<g>
				<g>
					<g>
						<path fill="#6D4135" d="M15.4,29.5c1.1,1.4,1,2.6,2.6,2.6c1.6,0,1.5-1.1,2.6-2.6C18.9,28.2,17.1,28.2,15.4,29.5z"/>
					</g>
				</g>
			</g>
			<g>
				<g>
					<g>
						<path fill="#5B331D" d="M16.5,29.1c0.6,0.8,0.6,1.5,1.5,1.5c0.9,0,0.8-0.6,1.5-1.5C18.5,28.3,17.5,28.3,16.5,29.1z"/>
					</g>
				</g>
			</g>
			<g>
				<g>
					<g>
						<path fill="#FFFFFF" d="M22.4,28.3c0,1.2-0.9,2.1-2.1,2.1c-0.7,0-1.6-0.5-2.2-1.1c-0.6,0.7-1.5,1.1-2.2,1.1
							c-1.2,0-2.1-1-2.1-2.1c0-1.2,1-2.1,2.1-2.1c0.7,0,1.6,0.2,2.2,0.7c0.6-0.5,1.5-0.7,2.2-0.7C21.4,26.1,22.4,27.1,22.4,28.3z"/>
					</g>
				</g>
			</g>
			<g>
				<g>
					<g>
						<g>
							<path fill="#FC97B2" d="M19.6,26.1c0,0.5-0.6,1-1,1.3c-0.4,0.2-0.8,0.2-1.2,0c-0.5-0.3-1-0.8-1-1.3c0-0.9,0.7-1.2,1.6-1.2
								S19.6,25.2,19.6,26.1z"/>
						</g>
					</g>
				</g>
				<g>
					<g>
						<g>
							<path fill="#E88EA7" d="M19.6,26.1c0,0.5-0.6,1-1,1.3c-0.4,0.2-0.8,0.2-1.2,0c-0.4-0.3-1-0.7-1-1.2c0.3,0.4,0.9,0.7,1.5,0.7
								c0.8,0,1.5-0.4,1.7-1C19.6,25.8,19.6,25.9,19.6,26.1z"/>
						</g>
					</g>
				</g>
			</g>
			<g opacity="0.2">
				<g>
					<g>
						<path fill="#FFFFFF" d="M18.8,25.5c0,0.2-0.3,0.4-0.8,0.4s-0.8-0.2-0.8-0.4c0-0.2,0.3-0.4,0.8-0.4S18.8,25.3,18.8,25.5z"/>
					</g>
				</g>
			</g>
		</g>
		<g>
			<g>
				<path fill="#E24B4B" d="M18,32.1c0.9,0,1.3-0.4,1.6-0.9c-0.1-0.7-0.7-1.2-1.3-0.9c-0.2,0.1-0.3,0.1-0.5,0.1
					c-0.7-0.1-1.3,0.3-1.3,1C16.8,31.8,17.2,32.1,18,32.1z"/>
			</g>
		</g>
		<g>
			<g>
				<path fill="#D03F3F" d="M18.3,30.2c-0.2,0.1-0.3,0.1-0.5,0.1c-0.7-0.1-1.3,0.3-1.3,1c0.2,0.3,0.4,0.6,0.8,0.7
					c-1.1-1.4,0.5-2.2,0.8-0.9c0-0.5,0.3-0.8,0.6-0.9C18.6,30.1,18.5,30.1,18.3,30.2z"/>
			</g>
		</g>
		<g opacity="0.2">
			<g>
				<g>
					<path fill="#FFFFFF" d="M19.2,30.6c0.1,0.1,0,0.3-0.3,0.2c-0.2-0.1-0.4,0.1-0.4-0.1C18.6,30.2,19.1,30.3,19.2,30.6z"/>
				</g>
			</g>
		</g>
	</g>
	<g>
		<g>
			<g>
				<g>
					<g>
						<ellipse fill="#BBC7D1" cx="21.6" cy="22.4" rx="2.4" ry="3"/>
					</g>
				</g>
			</g>
			<g>
				<g>
					<g>
						<path fill="#FFFFFF" d="M24,22.7c0,1.4-1,2.6-2.4,2.6c-1.4,0-2.5-1.2-2.5-2.6s1-2.6,2.4-2.6C22.8,20.2,24,21.3,24,22.7z"/>
					</g>
				</g>
			</g>
			<g>
				<g>
					<g>
						<path fill="#65B1EF" d="M22.8,23.1c0,0.8-0.6,1.5-1.4,1.5c-0.8,0-1.4-0.7-1.4-1.5c0-0.8,0.6-1.5,1.4-1.5
							C22.2,21.6,22.8,22.3,22.8,23.1z"/>
					</g>
				</g>
			</g>
			<g>
				<g>
					<g>
						<ellipse fill="#3E4347" cx="21.4" cy="23.1" rx="0.7" ry="0.7"/>
					</g>
				</g>
			</g>
			<g>
				<g>
					<g>
						<path fill="#FFFFFF" d="M22.2,22.6c0,0.2-0.1,0.3-0.3,0.3c-0.2,0-0.3-0.1-0.3-0.3c0-0.2,0.2-0.3,0.3-0.3
							C22.1,22.3,22.2,22.5,22.2,22.6z"/>
					</g>
				</g>
			</g>
			<g>
				<g>
					<g>
						<path fill="#3E4347" d="M25,21.3c-0.5-0.8-0.8-1.4-1.6-2c-0.7-0.7-1.4-0.9-2.3-1.1c0.7-0.3,1.8-0.1,2.7,0.6
							C24.5,19.5,25,20.3,25,21.3z"/>
					</g>
				</g>
			</g>
		</g>
		<g>
			<g>
				<g>
					<g>
						<ellipse fill="#BBC7D1" cx="14.4" cy="22.4" rx="2.4" ry="3"/>
					</g>
				</g>
			</g>
			<g>
				<g>
					<g>
						<path fill="#FFFFFF" d="M12,22.7c0,1.4,1,2.6,2.4,2.6s2.5-1.2,2.5-2.6s-1-2.6-2.4-2.6S12,21.3,12,22.7z"/>
					</g>
				</g>
			</g>
			<g>
				<g>
					<g>
						<path fill="#65B1EF" d="M13.2,23.1c0,0.8,0.6,1.5,1.4,1.5c0.8,0,1.4-0.7,1.4-1.5c0-0.8-0.6-1.5-1.4-1.5
							C13.8,21.6,13.2,22.3,13.2,23.1z"/>
					</g>
				</g>
			</g>
			<g>
				<g>
					<g>
						<ellipse fill="#3E4347" cx="14.6" cy="23.1" rx="0.7" ry="0.7"/>
					</g>
				</g>
			</g>
			<g>
				<g>
					<g>
						<path fill="#FFFFFF" d="M13.8,22.6c0,0.2,0.1,0.3,0.3,0.3s0.3-0.1,0.3-0.3c0-0.2-0.2-0.3-0.3-0.3S13.8,22.5,13.8,22.6z"/>
					</g>
				</g>
			</g>
			<g>
				<g>
					<g>
						<path fill="#3E4347" d="M11,21.3c0.5-0.7,0.7-1.3,1.6-2c0.7-0.7,1.4-0.9,2.3-1.1c-0.7-0.3-1.8-0.1-2.7,0.6
							C11.5,19.5,11,20.4,11,21.3z"/>
					</g>
				</g>
			</g>
		</g>
	</g>
</g>
</svg>
