<?xml version="1.0" encoding="utf-8"?>
<!-- Generator: Adobe Illustrator 18.0.0, SVG Export Plug-In . SVG Version: 6.00 Build 0)  -->
<!DOCTYPE svg PUBLIC "-//W3C//DTD SVG 1.1//EN" "http://www.w3.org/Graphics/SVG/1.1/DTD/svg11.dtd">
<svg version="1.1" id="Layer_1" xmlns="http://www.w3.org/2000/svg" xmlns:xlink="http://www.w3.org/1999/xlink" x="0px" y="0px"
	 viewBox="0 0 36 36" enable-background="new 0 0 36 36" xml:space="preserve">
<g>
	<g>
		<g>
			<g>
				<g>
					<g>
						<path fill="#8F6D52" d="M28.4,11.6c-0.8-0.1-2-0.1-2.6,0.4c-1.3,0.9-3.1,0.5-3.6-1c-0.6-1.9,0.8-4.6,2.7-5.8
							c1.8-1.2,4.7-1.4,6.4,1.3C32.7,8.8,32,11.9,28.4,11.6z"/>
					</g>
				</g>
			</g>
			<g>
				<g>
					<g>
						<g>
							<path fill="#FFE9AB" d="M30.5,8.2C30.5,8.2,30.5,8.3,30.5,8.2c0.6,1.2-0.5,2.7-1.8,2.4c-0.6-0.1-1.3-0.1-1.6-0.1
								c-0.5,0-1.9,0.5-2.3,0.4C24,11,23.8,9.5,24.9,7.9C27.1,4.7,29.9,7,30.5,8.2z"/>
						</g>
					</g>
				</g>
			</g>
			<g>
				<g>
					<g>
						<path fill="#FFD68D" d="M30.2,7.7c-1-1.2-3.3-2.6-5.3,0.2C23.8,9.5,24,11,24.8,11c0.1,0,0.1,0,0.2,0
							C24.5,8.7,26.5,5.1,30.2,7.7z"/>
					</g>
				</g>
			</g>
		</g>
		<g>
			<g>
				<g>
					<g>
						<path fill="#8F6D52" d="M7.6,11.6c0.8-0.1,2-0.1,2.6,0.4c1.3,0.9,3.1,0.5,3.6-1c0.6-1.9-0.8-4.6-2.7-5.8
							C9.3,3.9,6.5,3.8,4.8,6.4C3.3,8.8,4,11.9,7.6,11.6z"/>
					</g>
				</g>
			</g>
			<g>
				<g>
					<g>
						<g>
							<path fill="#FFE9AB" d="M5.5,8.2C5.5,8.2,5.5,8.3,5.5,8.2C4.9,9.5,6,10.9,7.3,10.7c0.6-0.1,1.3-0.1,1.6-0.1
								c0.5,0,1.9,0.5,2.3,0.4c0.8-0.1,1.1-1.6-0.1-3.2C8.9,4.7,6.1,7,5.5,8.2z"/>
						</g>
					</g>
				</g>
			</g>
			<g>
				<g>
					<g>
						<path fill="#FFD68D" d="M5.8,7.7c1-1.2,3.3-2.6,5.3,0.2C12.2,9.5,12,11,11.2,11c-0.1,0-0.1,0-0.2,0C11.5,8.7,9.5,5.1,5.8,7.7z
							"/>
					</g>
				</g>
			</g>
		</g>
	</g>
	<g>
		<g>
			<g>
				<path fill="#8F6D52" d="M29.9,18.4C33.7,26,24,32.2,18,32.2c-6,0-15.8-6.2-11.9-13.8C9.9,10.8,10.9,4.6,18,4.6
					C25.1,4.6,26.1,10.8,29.9,18.4z"/>
			</g>
		</g>
	</g>
	<g>
		<g>
			<g>
				<path fill="#8F6D52" d="M11.6,27.1c0.3,4.7,3,6.9,6.3,6.9c3.3,0,6-2.1,6.3-6.9H11.6z"/>
			</g>
		</g>
	</g>
	<g>
		<g>
			<g>
				<g>
					<path fill="#FFFFFF" d="M15.2,29.4l0.9,3.5c0,0.1,0.2,0.2,0.3,0.2h1c0.2,0,0.3-0.1,0.3-0.3v-3.4H15.2z"/>
				</g>
			</g>
		</g>
		<g>
			<g>
				<g>
					<path fill="#FFFFFF" d="M20.5,29.4l-0.9,3.5c0,0.1-0.2,0.2-0.3,0.2h-1c-0.2,0-0.3-0.1-0.3-0.3v-3.4H20.5z"/>
				</g>
			</g>
		</g>
	</g>
	<g>
		<g>
			<g>
				<path fill="#FFE9AB" d="M27,27.3c-0.1,2.2-1.2,3.4-3,4c-2,0.7-4.3,0.2-6.1-1c-0.1,0-0.1-0.1-0.1-0.1s0,0-0.1,0.1
					c-1.9,1.3-4.2,1.7-6.3,0.9c-1.7-0.6-2.7-1.9-2.7-4.1c0-5.9,5.6-8.1,11.7-7.2C24.1,20.5,27.1,23.6,27,27.3z"/>
			</g>
		</g>
	</g>
	<g>
		<g>
			<g>
				<g>
					<path fill="#3E4347" d="M21.1,20.6c0,0.9-0.8,1.7-1.6,2.2c-0.9,0.6-2,0.6-2.9,0c-0.8-0.6-1.6-1.3-1.6-2.2
						c0-1.7,1.4-2.2,3.1-2.2C19.7,18.4,21.1,18.9,21.1,20.6z"/>
				</g>
			</g>
		</g>
	</g>
	<g>
		<g>
			<g>
				<g>
					<g>
						<g>
							<path fill="#3E4347" d="M24.4,15c0,1.8-1.2,2.7-2.7,2.7S19,16.9,19,15s0.8-4,2.3-4C22.8,11,24.4,13.2,24.4,15z"/>
						</g>
					</g>
				</g>
				<g>
					<g>
						<g>
							<path fill="#3E4347" d="M25,13.5c0,0-0.1-0.3-0.3-0.8c-0.2-0.5-0.7-1.1-1.2-1.6c-0.6-0.5-1.3-1-1.9-1.1
								c-0.5-0.1-0.7-0.1-1-0.1c0.2-0.2,0.7-0.3,1.1-0.3c0.8,0,1.5,0.4,2.2,1c0.6,0.6,1,1.3,1.1,1.9C25,12.9,25.1,13.3,25,13.5z"/>
						</g>
					</g>
				</g>
				<g>
					<g>
						<g>
							<path fill="#FFFFFF" d="M24.5,15.5c0,1.7-1.2,2.4-2.8,2.4S19,17.1,19,15.5s0.9-3.6,2.4-3.6S24.5,13.8,24.5,15.5z"/>
						</g>
					</g>
				</g>
			</g>
			<g>
				<g>
					<g>
						<g>
							<path fill="#65B1EF" d="M23.1,15.3c0,1-0.7,1.7-1.6,1.7c-0.9,0-1.6-0.8-1.6-1.7s0.7-1.7,1.6-1.7
								C22.3,13.5,23.1,14.3,23.1,15.3z"/>
						</g>
					</g>
				</g>
				<g>
					<g>
						<g>
							<path fill="#3E4347" d="M22.3,15.3c0,0.5-0.4,0.9-0.9,0.9c-0.5,0-0.9-0.4-0.9-0.9s0.4-0.9,0.9-0.9
								C21.9,14.3,22.3,14.7,22.3,15.3z"/>
						</g>
					</g>
				</g>
				<g>
					<g>
						<g>
							<circle fill="#FFFFFF" cx="22.1" cy="14.6" r="0.3"/>
						</g>
					</g>
				</g>
			</g>
		</g>
		<g>
			<g>
				<g>
					<g>
						<g>
							<path fill="#3E4347" d="M11.6,15c0,1.8,1.2,2.7,2.7,2.7S17,16.9,17,15s-0.8-4-2.3-4S11.6,13.2,11.6,15z"/>
						</g>
					</g>
				</g>
				<g>
					<g>
						<g>
							<path fill="#3E4347" d="M11,13.5c0,0,0.1-0.3,0.3-0.8c0.2-0.5,0.7-1.1,1.2-1.6c0.6-0.5,1.3-1,1.9-1.1c0.5-0.1,0.7-0.1,1-0.1
								c-0.2-0.2-0.7-0.3-1.1-0.3c-0.8,0-1.5,0.4-2.2,1c-0.6,0.6-1,1.3-1.1,1.9C11,12.9,10.9,13.3,11,13.5z"/>
						</g>
					</g>
				</g>
				<g>
					<g>
						<g>
							<path fill="#FFFFFF" d="M11.5,15.5c0,1.7,1.2,2.4,2.8,2.4s2.8-0.7,2.8-2.4s-0.9-3.6-2.4-3.6S11.5,13.8,11.5,15.5z"/>
						</g>
					</g>
				</g>
			</g>
			<g>
				<g>
					<g>
						<g>
							<path fill="#65B1EF" d="M12.9,15.3c0,1,0.7,1.7,1.6,1.7c0.9,0,1.6-0.8,1.6-1.7s-0.7-1.7-1.6-1.7
								C13.7,13.5,12.9,14.3,12.9,15.3z"/>
						</g>
					</g>
				</g>
				<g>
					<g>
						<g>
							<path fill="#3E4347" d="M13.7,15.3c0,0.5,0.4,0.9,0.9,0.9c0.5,0,0.9-0.4,0.9-0.9s-0.4-0.9-0.9-0.9
								C14.1,14.3,13.7,14.7,13.7,15.3z"/>
						</g>
					</g>
				</g>
				<g>
					<g>
						<g>
							<circle fill="#FFFFFF" cx="13.9" cy="14.6" r="0.3"/>
						</g>
					</g>
				</g>
			</g>
		</g>
	</g>
	<g>
		<g>
			<g>
				<path fill="#3E4347" d="M23.6,3.3c-0.1,0-0.2,0-0.2,0.1c-1.4,0.5-2.5,1.7-2.8,3.2c-0.1,0.6-0.2,1.1-0.3,1.4
					c-0.5-0.7-0.6-1.3-0.5-1.8c-0.1,0.2-0.2,0.3-0.3,0.4c-0.6,1-0.9,2.1-0.7,3.2c-0.1,0.5-0.3,1.1-0.8,1.3c0.2-0.3,0.2-0.6,0.1-0.9
					c-0.1-0.3-0.2-0.6-0.3-0.9c-0.1-0.3-0.1-0.7,0-1c-0.5,0.3-0.7,1-0.5,1.5c-0.3-0.2-0.4-0.6-0.5-1S16.8,8,16.7,7.6
					c0,0,0-0.1-0.1-0.1c-0.3,0.5-0.7,0.8-1.3,1c0.2-0.6,0.2-1.2,0-1.7c0-0.2-0.1-0.6-0.3-0.6c-0.2,0-0.5,0.3-0.6,0.4
					c-0.3,0.2-0.5,0.5-0.8,0.8c0-0.6,0.2-1.1,0.6-1.6c0.4-0.4,0.9-0.7,1.4-0.9c-0.4-0.3-1-0.4-1.4-0.1c0.2-0.6,0.6-1,1.2-1.3
					c0.5-0.3,1.2-0.3,1.7,0.1c-0.2-0.4-0.4-0.6-0.8-0.8C17,2.4,17.9,2.5,18.5,3c0-0.2-0.1-0.4-0.2-0.6c0.7,0.1,1.3,0.7,1.4,1.4
					c0.2-0.5,0.6-0.8,1-1.1C21,2.4,21.5,2.2,22,2c-0.7,0.6-1.2,1.4-1.4,2.3C21.4,3.6,22.5,3.3,23.6,3.3z"/>
			</g>
		</g>
	</g>
</g>
</svg>
