<?xml version="1.0" encoding="utf-8"?>
<!-- Generator: Adobe Illustrator 18.0.0, SVG Export Plug-In . SVG Version: 6.00 Build 0)  -->
<!DOCTYPE svg PUBLIC "-//W3C//DTD SVG 1.1//EN" "http://www.w3.org/Graphics/SVG/1.1/DTD/svg11.dtd">
<svg version="1.1" id="Layer_1" xmlns="http://www.w3.org/2000/svg" xmlns:xlink="http://www.w3.org/1999/xlink" x="0px" y="0px"
	 viewBox="0 0 36 36" enable-background="new 0 0 36 36" xml:space="preserve">
<g>
	<g>
		<g>
			<g>
				<path fill="#6B503B" d="M24.1,9.4l-2.7,0.1c-3-1-6.3-1.1-9.4-0.2c0-0.9,0-1.9-0.6-2.5c0.6,0.3,1.1,0.8,1.3,1.4
					c-0.4-1.2-0.2-2.4,0.4-3.5c-0.4,1-0.1,2.2,0.6,3.1c0.1-0.9,0-1.8-0.2-2.7c0.9,0.4,1.5,1.2,1.8,2.1c0.5-0.4,0.7-1,0.6-1.6
					c0.5,0.3,0.9,0.9,1,1.5c0.1-0.5,0.2-0.9,0.1-1.4c-0.1-0.5-0.4-0.9-0.9-1c-0.5-0.1-1,0.2-1.1,0.6c-0.1-0.6,0.4-1.2,1-1.3
					c0.6-0.1,1.2,0.2,1.6,0.7c0.4,0.5,0.5,1.1,0.5,1.7c0.3-1.3,1.1-2.4,2.2-3.2c-0.6,1.1-0.7,2.3-0.4,3.5c0.1-0.9,0.5-1.8,1-2.6
					C20.8,5,20.9,6,21.3,6.8c0-0.6,0.1-1.1,0.1-1.7C21.7,5.7,21.9,6.3,22,7c0-0.6,0-1.2,0.2-1.7c0.1,0.5,0.2,1.1,0.4,1.6
					c0.2-0.8,0.1-1.7-0.2-2.5c0.9,0.8,1.3,2.1,1,3.3c0.4-0.6,0.9-1,1.5-1.3C24.1,7.1,23.8,8.3,24.1,9.4z"/>
			</g>
		</g>
	</g>
	<g>
		<g>
			<g>
				<g>
					<g>
						<g>
							<g>
								<g>
									<path fill="#7A5B44" d="M31.5,12c-1.4,1.6-3.1,2.6-4.6,3.2c-0.9,0.3-1.8,0.6-2.7,0.7c0.6-2.4,0.5-7.3,3.5-9.7
										c1.5-1.2,3.5-0.8,5.3-1.4C34.1,6.8,33.3,10,31.5,12z"/>
								</g>
							</g>
							<g>
								<g>
									<g>
										<path fill="#FC97B2" d="M25.8,13.8c0.7-4.6,2.9-7.3,6.6-7.5C33.9,8.8,29.9,14.8,25.8,13.8z"/>
									</g>
								</g>
							</g>
						</g>
						<g>
							<g>
								<path fill="#6B503B" d="M27.7,6.1c-3,2.5-2.9,7.4-3.5,9.7c0.9-0.1,1.8-0.3,2.7-0.7c1-0.4,2.1-1,3.1-1.8
									c-1.3,0.4-2.7,0.7-4.2,0.4c0,0.1,0.6-4.9,3.2-7.1c1.3-1.1,2.8-1.3,4-1.9C31.2,5.3,29.2,4.9,27.7,6.1z"/>
							</g>
						</g>
						<g>
							<g>
								<g>
									<path fill="#E88EA7" d="M32.4,6.3c-3.6,0.2-5.8,2.8-6.6,7.5c0.3,0.1,0.5,0.1,0.8,0.1C26.9,11.8,28.1,7.8,32.4,6.3z"/>
								</g>
							</g>
						</g>
					</g>
				</g>
			</g>
			<g>
				<g>
					<g>
						<g>
							<g>
								<g>
									<path fill="#7A5B44" d="M4.5,12c1.4,1.6,3.1,2.6,4.6,3.2c0.9,0.3,1.8,0.6,2.7,0.7c-0.6-2.4-0.5-7.3-3.5-9.7
										C6.8,4.9,4.8,5.3,3,4.8C1.9,6.8,2.7,10,4.5,12z"/>
								</g>
							</g>
							<g>
								<g>
									<g>
										<path fill="#FC97B2" d="M10.2,13.8C9.4,9.1,7.3,6.5,3.6,6.3C2.1,8.8,6.1,14.8,10.2,13.8z"/>
									</g>
								</g>
							</g>
						</g>
						<g>
							<g>
								<path fill="#6B503B" d="M8.3,6.1c3,2.5,2.9,7.4,3.5,9.7c-0.9-0.1-1.8-0.3-2.7-0.7c-1-0.4-2.1-1-3.1-1.8
									c1.3,0.4,2.7,0.7,4.2,0.4c0,0.1-0.6-4.9-3.2-7.1C5.6,5.5,4.1,5.3,3,4.8C4.8,5.3,6.8,4.9,8.3,6.1z"/>
							</g>
						</g>
						<g>
							<g>
								<g>
									<path fill="#E88EA7" d="M3.6,6.3c3.6,0.2,5.8,2.8,6.6,7.5c-0.3,0.1-0.5,0.1-0.8,0.1C9.1,11.8,7.9,7.8,3.6,6.3z"/>
								</g>
							</g>
						</g>
					</g>
				</g>
			</g>
		</g>
		<g>
			<g>
				<g>
					<g>
						<g>
							<g>
								<g>
									<path fill="#E9EFF4" d="M32.1,28.3c-3.1,3.2-8.4,3.4-12.3-0.4c-0.1-0.1-0.2-0.1-0.2-0.1c-1.2-1-1.4-2.9-0.4-4.1
										c1-1.2,2.9-1.4,4.1-0.4c0.2,0.2,0.4,0.4,0.6,0.7c4,6.3,11.1-0.2,7.5-4.8c-0.1-0.1,0-0.2,0-0.3c0.1-0.1,0.2,0,0.3,0
										C34.3,20.7,35,25.1,32.1,28.3z"/>
								</g>
							</g>
						</g>
						<g>
							<g>
								<g>
									<path fill="#DEE4E9" d="M33.5,23.7c-0.1,1.1-0.5,2.1-1.2,2.9c-2,2.5-5.3,2.9-10.1,1.6l-1.4,0.5c3.7,2.9,8.4,2.5,11.3-0.4
										c3-3.1,2.2-7.5-0.3-9.4C33.1,20.3,33.7,21.9,33.5,23.7z"/>
								</g>
							</g>
						</g>
					</g>
					<g>
						<g>
							<g>
								<g>
									<path fill="#E9EFF4" d="M3.9,28.3c3.1,3.2,8.4,3.4,12.3-0.4c0.1-0.1,0.2-0.1,0.2-0.1c1.2-1,1.4-2.9,0.4-4.1
										c-1-1.2-2.9-1.4-4.1-0.4c-0.2,0.2-0.4,0.4-0.6,0.7C8,30.2,1,23.8,4.5,19.1c0.1-0.1,0-0.2,0-0.3c-0.1-0.1-0.2,0-0.3,0
										C1.7,20.7,1,25.1,3.9,28.3z"/>
								</g>
							</g>
						</g>
						<g>
							<g>
								<g>
									<path fill="#DEE4E9" d="M2.5,23.7c0.1,1.1,0.5,2.1,1.2,2.9c2,2.5,5.3,2.9,10.1,1.6l1.4,0.5c-3.7,2.9-8.4,2.5-11.3-0.4
										c-3-3.1-2.2-7.5,0.3-9.4C2.9,20.3,2.3,21.9,2.5,23.7z"/>
								</g>
							</g>
						</g>
					</g>
				</g>
				<g>
					<g>
						<g>
							<path fill="#7A5B44" d="M21.4,32.3c2.3-2.4,4.8-4.7,7-7.1c0.9-1,1-2.3,0.4-3.5c-0.6-1.1-0.9-2.3-0.8-3.5c0-0.4,0-0.8,0-1.2
								c-0.5-6.3-5.4-11.2-12.2-9.6C12.7,8,10.6,10.1,9.5,13c-0.7,1.7-1,3.5-1,5.1c0,1.3-0.2,2.5-0.9,3.6C7,22.9,7.1,24.3,8,25.2
								c2.2,2.4,4.6,4.7,7,7.1C17.1,32.3,19.3,32.3,21.4,32.3z"/>
						</g>
					</g>
				</g>
				<g>
					<g>
						<g>
							<g>
								<path fill="#6B503B" d="M21.4,32.3h-3.2l3-0.3c0,0,0,0.1,0,0.1l0.2-0.1l-0.3,0c-0.6-1.1-0.8-1.8-0.8-2.2
									c0-0.4,0.6-0.9,0.6-0.9s1.2-1.1,2.5-2.2c2.1-1.9,3.2-4.7,3-7.6c-0.2-2.1-0.4-4.1-0.4-4.3c-0.9-4.6-3.8-7.1-7.8-7.8
									c1.4,0,2.8,0.2,4.1,0.9c2.1,1,4.3,3.2,5.2,6.5c0.9,2.8,0,3.9,0.8,6.3c0.2,0.7,0.7,1.3,0.8,2C29.5,24.5,29.2,24.4,21.4,32.3z
									"/>
							</g>
						</g>
					</g>
					<g>
						<g>
							<path fill="#6B503B" d="M21.4,30.7l-0.2,0.1c0,0,0-0.1,0-0.1L21.4,30.7z"/>
						</g>
					</g>
				</g>
				<g>
					<g>
						<g>
							<path fill="#9A795F" d="M25.4,30.4c-0.9,3.1-13.5,3.1-14.4,0c-0.4-2.8,4.1-5.7,6.2-6.5c0.6-0.3,1.3-0.3,1.9,0
								C21.3,24.8,25.7,27.7,25.4,30.4z"/>
						</g>
					</g>
				</g>
				<g>
					<g>
						<g>
							<g>
								<g>
									<path fill="#7A5B44" d="M21.5,30.4c-0.4,0.2-1.2-1.3-1.4-1.8c-0.2-0.4-0.1-1,0.4-1.2c0.4-0.2,1-0.1,1.2,0.4
										C21.9,28.2,22,30.1,21.5,30.4z"/>
								</g>
							</g>
						</g>
						<g>
							<g>
								<g>
									<path fill="#6B503B" d="M20.5,28.9c0.2,0.3,0.6,1.1,0.9,1.5c-0.4,0.2-1.2-1.3-1.4-1.8c-0.2-0.4-0.1-1,0.4-1.2
										c0.4-0.2,0.8-0.1,1.1,0.2c-0.2,0-0.4,0-0.6,0.1C20.5,27.9,20.3,28.4,20.5,28.9z"/>
								</g>
							</g>
						</g>
					</g>
					<g>
						<g>
							<g>
								<g>
									<path fill="#7A5B44" d="M14.8,30.4c0.4,0.2,1.2-1.3,1.4-1.8c0.2-0.4,0.1-1-0.4-1.2c-0.4-0.2-1-0.1-1.2,0.4
										C14.4,28.2,14.4,30.1,14.8,30.4z"/>
								</g>
							</g>
						</g>
						<g>
							<g>
								<g>
									<path fill="#6B503B" d="M15.8,28.9c-0.2,0.3-0.6,1.1-0.9,1.5c0.4,0.2,1.2-1.3,1.4-1.8c0.2-0.4,0.1-1-0.4-1.2
										c-0.4-0.2-0.8-0.1-1.1,0.2c0.2,0,0.4,0,0.6,0.1C15.9,27.9,16,28.4,15.8,28.9z"/>
								</g>
							</g>
						</g>
					</g>
				</g>
			</g>
			<g>
				<g>
					<g>
						<g>
							<g>
								<path fill="#3E4347" d="M25.8,15.3c-1.9-1.2-4.2-1-4.2-1c-0.8,0.2-1.6-1.1,0.1-1.1C24.1,13.2,25.6,15,25.8,15.3z"/>
							</g>
						</g>
					</g>
					<g>
						<g>
							<g>
								<g>
									<path fill="#FFFFFF" d="M25.9,19.1c0,2-1.3,3.6-2.9,3.6c-1.6,0-2.9-1.6-2.9-3.6s1.3-3.6,2.9-3.6
										C24.6,15.5,25.9,17.1,25.9,19.1z"/>
								</g>
							</g>
						</g>
						<g>
							<g>
								<g>
									<g>
										<path fill="#F29A2E" d="M24.6,19.6c0,1.4-0.9,2.5-2,2.5c-1.1,0-2-1.1-2-2.5c0-1.4,0.9-2.5,2-2.5
											C23.7,17.1,24.6,18.2,24.6,19.6z"/>
									</g>
								</g>
							</g>
							<g>
								<g>
									<g>
										<circle fill="#3E4347" cx="22.6" cy="19.6" r="1.3"/>
									</g>
								</g>
							</g>
							<g>
								<g>
									<g>
										<path fill="#FFFFFF" d="M22.2,19.9c0,0.1-0.1,0.2-0.2,0.2c-0.1,0-0.2-0.1-0.2-0.2c0-0.1,0.1-0.2,0.2-0.2
											C22.1,19.6,22.2,19.7,22.2,19.9z"/>
									</g>
								</g>
							</g>
							<g>
								<g>
									<g>
										<path fill="#FFFFFF" d="M23.6,18.6c0,0.2-0.2,0.4-0.4,0.4c-0.2,0-0.4-0.2-0.4-0.4s0.2-0.4,0.4-0.4
											C23.4,18.2,23.6,18.4,23.6,18.6z"/>
									</g>
								</g>
							</g>
						</g>
					</g>
				</g>
				<g>
					<g>
						<g>
							<g>
								<path fill="#3E4347" d="M10.2,15.3c1.9-1.2,4.2-1,4.2-1c0.8,0.2,1.6-1.1-0.1-1.1C11.9,13.2,10.4,15,10.2,15.3z"/>
							</g>
						</g>
					</g>
					<g>
						<g>
							<g>
								<g>
									<path fill="#FFFFFF" d="M10.1,19.1c0,2,1.3,3.6,2.9,3.6c1.6,0,2.9-1.6,2.9-3.6s-1.3-3.6-2.9-3.6
										C11.4,15.5,10.1,17.1,10.1,19.1z"/>
								</g>
							</g>
						</g>
						<g>
							<g>
								<g>
									<g>
										<path fill="#F29A2E" d="M11.4,19.6c0,1.4,0.9,2.5,2,2.5c1.1,0,2-1.1,2-2.5c0-1.4-0.9-2.5-2-2.5
											C12.3,17.1,11.4,18.2,11.4,19.6z"/>
									</g>
								</g>
							</g>
							<g>
								<g>
									<g>
										<circle fill="#3E4347" cx="13.4" cy="19.6" r="1.3"/>
									</g>
								</g>
							</g>
							<g>
								<g>
									<g>
										<path fill="#FFFFFF" d="M13.8,19.9c0,0.1,0.1,0.2,0.2,0.2c0.1,0,0.2-0.1,0.2-0.2c0-0.1-0.1-0.2-0.2-0.2
											C13.9,19.6,13.8,19.7,13.8,19.9z"/>
									</g>
								</g>
							</g>
							<g>
								<g>
									<g>
										<path fill="#FFFFFF" d="M12.4,18.6c0,0.2,0.2,0.4,0.4,0.4c0.2,0,0.4-0.2,0.4-0.4s-0.2-0.4-0.4-0.4
											C12.6,18.2,12.4,18.4,12.4,18.6z"/>
									</g>
								</g>
							</g>
						</g>
					</g>
				</g>
			</g>
		</g>
	</g>
</g>
</svg>
