<?xml version="1.0" encoding="utf-8"?>
<!-- Generator: Adobe Illustrator 18.0.0, SVG Export Plug-In . SVG Version: 6.00 Build 0)  -->
<!DOCTYPE svg PUBLIC "-//W3C//DTD SVG 1.1//EN" "http://www.w3.org/Graphics/SVG/1.1/DTD/svg11.dtd">
<svg version="1.1" id="Layer_1" xmlns="http://www.w3.org/2000/svg" xmlns:xlink="http://www.w3.org/1999/xlink" x="0px" y="0px"
	 viewBox="0 0 36 36" enable-background="new 0 0 36 36" xml:space="preserve">
<g>
	<g>
		<g>
			<g>
				<g>
					<g>
						<path fill="#DAE5EF" d="M15.8,29.3c-0.1,0.9-0.4,1.7-0.8,2.6c-0.2-0.8-1.4-1.3-2.3-1.9c-1.5-1.1-1.7-2.7-1.7-4.2
							c-0.4,0.5-0.5,0.9-0.7,1.5C8.8,25.8,8,23.9,8,22.1c-0.4,0.4-0.7,0.9-0.9,1.3c-1.6-1.6-2.2-3.8-1.7-5.7C5,18.3,4.7,19,4.5,19.6
							C3.7,17.4,4,15,5.2,12.9c-0.7,0.3-1.2,0.8-1.4,1.4c-0.2-1.7,0.6-3.5,1.5-5.1C4.6,9.5,4.2,10,4,10.5c0.2-2.1,1.7-4,4-5.4
							c6.4-4,12.7-4.3,20,0c2.3,1.3,3.8,3.3,4,5.4c-0.1-0.5-0.6-1-1.2-1.3c0.8,1.6,1.7,3.4,1.5,5.1c-0.1-0.6-0.7-1.1-1.4-1.4
							c1.2,2.1,1.4,4.5,0.6,6.7c-0.1-0.7-0.4-1.3-0.9-1.9c0.6,2-0.1,4.1-1.7,5.7c-0.2-0.5-0.5-0.9-0.9-1.3c0,1.8-0.8,3.6-2.3,5.1
							c-0.1-0.6-0.3-1-0.7-1.5c0,1.5-0.3,3.1-1.7,4.2c-0.8,0.6-2.1,1.1-2.3,1.9c-0.4-0.8-0.7-1.7-0.8-2.6c0,0-1.7,1.7-1.8,4.7
							c0,0-1-1.5-0.7-3.2c0,0-0.7,0.6-0.9,1.6C16.8,32.4,16.4,30.4,15.8,29.3z"/>
					</g>
				</g>
			</g>
		</g>
		<g opacity="0.5">
			<g>
				<path fill="#CBD6E0" d="M32,10.5c-0.2-2.1-1.7-4.1-4-5.4c-2.6-1.5-5-2.5-7.4-2.9c2.7,1.6,5.3,3.3,7.7,5.2
					c-0.7-0.1-1.4-0.2-2.1-0.3c1.5,1.2,2.6,2.9,2.9,4.8c-0.3-0.2-0.6-0.4-0.9-0.6c0.5,1.6,0.7,3.3,0.6,5c-0.2-0.4-0.5-0.8-0.9-1.1
					c-0.1,2-0.5,3.9-1.1,5.8c-0.3-0.5-0.5-1-0.8-1.4c-0.9,2.5-1.9,5.1-2.8,7.6c-0.2-0.6-0.4-1.2-0.6-1.8c-1.6,0.7-2.7,1.6-3.3,2.7
					c-0.3-0.5-0.5-1.1-0.8-1.6c-0.3,1-0.7,1.9-1,2.9c-1.3-0.9-2.4-2-3.3-3.3c-0.2,0.6-0.4,1.2-0.4,1.8c-1.5-1.5-2.7-3.4-3.5-5.4
					c-0.1,0.5-0.3,1-0.4,1.4c-0.4-2.2-0.7-4.4-1.1-6.6c-0.6,0.5-1.1,1.2-1.3,1.9c-0.5-2.1-0.3-4.5,0.7-6.4c-0.6,0.2-1.1,0.6-1.5,1
					c0.2-3.2,1.3-6.3,3.1-9C9,5.1,8.4,5.5,7.8,5.9c0.5-0.5,1-1,1.4-1.5C8.8,4.6,8.4,4.9,8,5.1c-2.2,1.4-3.8,3.3-4,5.4
					c0.1-0.5,0.6-1,1.2-1.3c-0.8,1.6-1.7,3.4-1.5,5.1c0.1-0.6,0.7-1.1,1.4-1.4C4,15,3.7,17.4,4.5,19.6C4.7,19,5,18.3,5.4,17.7
					c-0.6,2,0.1,4.1,1.7,5.7C7.3,23,7.6,22.5,8,22.1c0,1.8,0.8,3.6,2.3,5.1c0.1-0.6,0.3-1,0.7-1.5c0,1.5,0.3,3.1,1.7,4.2
					c0.8,0.6,2.1,1.1,2.3,1.9c0.4-0.8,0.7-1.7,0.8-2.6c0.7,1.1,1,3.1,1,3.1c0.2-1.1,0.9-1.6,0.9-1.6c-0.3,1.8,0.7,3.2,0.7,3.2
					c0.1-3,1.8-4.7,1.8-4.7c0.1,0.9,0.4,1.7,0.8,2.6c0.2-0.8,1.4-1.3,2.3-1.9c1.5-1.1,1.7-2.7,1.7-4.2c0.4,0.5,0.5,0.9,0.7,1.5
					c1.5-1.5,2.3-3.3,2.3-5.1c0.4,0.4,0.7,0.9,0.9,1.3c1.6-1.6,2.2-3.8,1.7-5.7c0.5,0.6,0.8,1.2,0.9,1.9c0.8-2.2,0.6-4.6-0.6-6.7
					c0.7,0.3,1.2,0.8,1.4,1.4c0.2-1.7-0.6-3.5-1.5-5.1C31.4,9.5,31.8,10,32,10.5z"/>
			</g>
		</g>
	</g>
	<g>
		<g>
			<g>
				<g>
					<path fill="#FFD93B" d="M24.4,20c0,0.4-0.4,0.7-1,1.1c-1.6,0.8-3,2-3.8,3.6c-0.8,1.7-1.7,3.1-1.7,3.1s-0.8-1.4-1.7-3.1
						c-0.8-1.6-2.2-2.8-3.8-3.6c-0.6-0.3-1-0.7-1-1.1c0-0.5,0.6-1,1.7-1.4c0.9-0.3,1.7-1,2.1-1.8c0.6-1.3,1.6-2.5,2.6-2.5
						s2,1.1,2.6,2.5c0.4,0.9,1.2,1.5,2.1,1.8C23.8,19,24.4,19.5,24.4,20z"/>
				</g>
			</g>
		</g>
		<g>
			<g>
				<g>
					<path fill="#F4C534" d="M22.7,18.6c-0.9-0.3-1.7-1-2.1-1.8c-0.4-0.9-0.9-1.6-1.5-2.1c0.8,1.4,1.1,3.3,2.5,4.2
						c0.3,0.2,0.7,0.4,1,0.6c0.2,0.1,0.3,0.3,0,0.4c-1,0.3-3.9,4.8-4.5,7.7c0,0,0,0.1,0,0.1s0.8-1.4,1.7-3.1
						c0.8-1.6,2.2-2.8,3.8-3.6c0.6-0.3,1-0.7,1-1.1C24.4,19.5,23.8,19,22.7,18.6z"/>
				</g>
			</g>
		</g>
		<g opacity="0.35">
			<g>
				<g>
					<path fill="#FFFFFF" d="M17.4,16.3c-0.3,0.4-0.7,0.6-0.9,0.5c-0.2-0.1-0.1-0.6,0.2-1c0.3-0.4,0.7-0.6,0.9-0.5
						C17.8,15.5,17.7,15.9,17.4,16.3z"/>
				</g>
			</g>
		</g>
		<g>
			<g>
				<g>
					<g>
						<g>
							<g>
								<path fill="#89664C" d="M16.7,18.8c-0.4,0.7-0.9,1.1-1.2,1c-0.3-0.2-0.2-0.8,0.2-1.5c0.4-0.7,0.9-1.1,1.2-1
									C17.2,17.4,17.1,18.1,16.7,18.8z"/>
							</g>
						</g>
					</g>
					<g>
						<g>
							<g>
								<path fill="#6B503B" d="M17,18c0-0.1-0.1-0.2-0.1-0.2c-0.3-0.2-0.8,0.3-1.2,1c-0.2,0.3-0.3,0.6-0.3,0.8
									c-0.1-0.3,0-0.8,0.3-1.3c0.4-0.7,0.9-1.1,1.2-1C17,17.4,17.1,17.6,17,18z"/>
							</g>
						</g>
					</g>
				</g>
			</g>
			<g>
				<g>
					<g>
						<g>
							<g>
								<path fill="#89664C" d="M19.3,18.8c0.4,0.7,0.9,1.1,1.2,1c0.3-0.2,0.2-0.8-0.2-1.5c-0.4-0.7-0.9-1.1-1.2-1
									C18.8,17.4,18.9,18.1,19.3,18.8z"/>
							</g>
						</g>
					</g>
					<g>
						<g>
							<g>
								<path fill="#6B503B" d="M19,18c0-0.1,0.1-0.2,0.1-0.2c0.3-0.2,0.8,0.3,1.2,1c0.2,0.3,0.3,0.6,0.3,0.8c0.1-0.3,0-0.8-0.3-1.3
									c-0.4-0.7-0.9-1.1-1.2-1C19,17.4,18.9,17.6,19,18z"/>
							</g>
						</g>
					</g>
				</g>
			</g>
		</g>
	</g>
	<g>
		<g>
			<g>
				<g>
					<g>
						<path fill="#31373A" d="M20.6,14.6c0.2,0,0.5,0.1,0.7,0.2c2,1.3,4.2-0.1,4.4-1.8c0.1-0.9-0.7-2.1-1.5-2.5
							c0.1,0.1-1.3,2.2-3.2,3.3c-0.2,0.1-0.4,0.3-0.6,0.4C20,14.4,20,14.6,20.6,14.6z"/>
					</g>
				</g>
			</g>
			<g>
				<g>
					<g>
						<path fill="#FFD93B" d="M21,14.2c0.5,0.3,1,0.5,1.5,0.6c2.5,0.4,3.8-2.4,1.8-3.9c-0.2-0.2-0.4-0.1-0.5,0.2
							c-0.4,1.2-2.1,2.5-2.8,2.7C20.8,13.9,20.8,14.1,21,14.2z"/>
					</g>
				</g>
			</g>
			<g>
				<g>
					<g>
						<path fill="#31373A" d="M24.4,13.1c0,0.7-0.6,1.4-1.3,1.4c-0.7,0-1.2-0.5-1.3-1.1c0.7-0.3,1.2-0.9,1.5-1.5
							C23.8,11.9,24.4,12.5,24.4,13.1z"/>
					</g>
				</g>
			</g>
			<g>
				<g>
					<g>
						<circle fill="#FFFFFF" cx="23.6" cy="12.8" r="0.3"/>
					</g>
				</g>
				<g>
					<g>
						<circle fill="#FFFFFF" cx="22.7" cy="13.7" r="0.2"/>
					</g>
				</g>
			</g>
			<g>
				<g>
					<g>
						<path fill="#CBD6E0" d="M25.7,11.3c-0.5-0.2-1-0.4-1.4-0.7c-1,2.1-2.6,3.3-4.6,3.7c1.8-0.7,3.3-2,4.1-3.8
							c0.1-0.2,0.4-0.3,0.6-0.2C24.8,10.7,25.2,11,25.7,11.3z"/>
					</g>
				</g>
			</g>
		</g>
		<g>
			<g>
				<g>
					<g>
						<path fill="#31373A" d="M15.4,14.6c-0.2,0-0.5,0.1-0.7,0.2c-2,1.3-4.2-0.1-4.4-1.8c-0.1-0.9,0.7-2.1,1.5-2.5
							c-0.1,0.1,1.3,2.2,3.2,3.3c0.2,0.1,0.4,0.3,0.6,0.4C16,14.4,16,14.6,15.4,14.6z"/>
					</g>
				</g>
			</g>
			<g>
				<g>
					<g>
						<path fill="#FFD93B" d="M15,14.2c-0.5,0.3-1,0.5-1.5,0.6c-2.5,0.4-3.8-2.4-1.8-3.9c0.2-0.2,0.4-0.1,0.5,0.2
							c0.4,1.2,2.1,2.5,2.8,2.7C15.2,13.9,15.2,14.1,15,14.2z"/>
					</g>
				</g>
			</g>
			<g>
				<g>
					<g>
						<path fill="#31373A" d="M11.6,13.1c0,0.7,0.6,1.4,1.3,1.4c0.7,0,1.2-0.5,1.3-1.1c-0.7-0.3-1.2-0.9-1.5-1.5
							C12.2,11.9,11.6,12.5,11.6,13.1z"/>
					</g>
				</g>
			</g>
			<g>
				<g>
					<g>
						<circle fill="#FFFFFF" cx="12.4" cy="12.8" r="0.3"/>
					</g>
				</g>
				<g>
					<g>
						<circle fill="#FFFFFF" cx="13.3" cy="13.7" r="0.2"/>
					</g>
				</g>
			</g>
			<g>
				<g>
					<g>
						<path fill="#CBD6E0" d="M10.3,11.3c0.5-0.2,1-0.4,1.4-0.7c1,2.1,2.6,3.3,4.6,3.7c-1.8-0.7-3.3-2-4.1-3.8
							c-0.1-0.2-0.4-0.3-0.6-0.2C11.2,10.7,10.8,11,10.3,11.3z"/>
					</g>
				</g>
			</g>
		</g>
	</g>
	<g>
		<g opacity="0.5">
			<g>
				<g>
					<path fill="#CBD6E0" d="M25.2,9.2c-2.7-0.4-2.8,2.1-5.6,2.8c1.7-1.1,2.8-2.8,3.2-4.1c0,0.4-0.1,0.7-0.2,1
						C23,8.1,24.1,7.7,25,8.2c-0.5,0-1.1,0.2-1.4,0.6C24.2,8.8,24.8,8.9,25.2,9.2z"/>
				</g>
			</g>
			<g>
				<g>
					<path fill="#CBD6E0" d="M16.4,12.1c-2.9-0.8-3-3.2-5.6-2.8c0.4-0.4,1-0.5,1.6-0.4c-0.3-0.4-0.9-0.7-1.4-0.6
						c0.9-0.5,2-0.2,2.5,0.7c-0.1-0.3-0.2-0.6-0.2-1C13.6,9.3,14.7,11,16.4,12.1z"/>
				</g>
			</g>
		</g>
	</g>
</g>
</svg>
