<?xml version="1.0" encoding="utf-8"?>
<!-- Generator: Adobe Illustrator 18.0.0, SVG Export Plug-In . SVG Version: 6.00 Build 0)  -->
<!DOCTYPE svg PUBLIC "-//W3C//DTD SVG 1.1//EN" "http://www.w3.org/Graphics/SVG/1.1/DTD/svg11.dtd">
<svg version="1.1" id="Layer_1" xmlns="http://www.w3.org/2000/svg" xmlns:xlink="http://www.w3.org/1999/xlink" x="0px" y="0px"
	 viewBox="0 0 36 36" enable-background="new 0 0 36 36" xml:space="preserve">
<g>
	<g>
		<g>
			<g>
				<g>
					<g>
						<g>
							<path fill="#CBD6E0" d="M24,12.8c0.2-1.5,0.5-3.1,1.2-4.5s1.7-2.7,3-3.5c1.1-0.7,2.8-1.1,4-0.8c1.6,0.5,2.4,2.6,1.4,4.4
								c-0.6,1.1-1.8,1.8-3,2.3s-2.4,0.8-3.5,1.5c-1.1,0.6-2.1,1.7-2.2,2.9"/>
						</g>
					</g>
				</g>
				<g>
					<g>
						<g>
							<g>
								<path fill="#FC97B2" d="M31.4,9.4c-2.1,1.7-6.5,1.7-6.9,4.8l0-0.7c0.5-3.7,2.7-6.2,5.3-7c1.3-0.4,2-0.1,2.4,0.4
									C32.6,7.5,32.5,8.5,31.4,9.4z"/>
							</g>
						</g>
					</g>
					<g>
						<g>
							<g>
								<path fill="#E88EA7" d="M29.7,9.6c-3,1.3-4.6,2.3-5.1,4.1c0.8-2.6,4.8-2.6,6.8-4.3c1.1-0.9,1.2-1.9,0.7-2.5
									C32.2,7.5,31.9,8.6,29.7,9.6z"/>
							</g>
						</g>
					</g>
				</g>
			</g>
			<g>
				<g>
					<g>
						<g>
							<path fill="#CBD6E0" d="M12,12.8c-0.2-1.5-0.5-3.1-1.2-4.5c-0.7-1.4-1.7-2.7-3-3.5C6.7,4.3,5,3.8,3.9,4.2
								C2.2,4.7,1.4,6.8,2.5,8.5c0.6,1.1,1.8,1.8,3,2.3s2.4,0.8,3.5,1.5c1.1,0.6,2.1,1.7,2.2,2.9"/>
						</g>
					</g>
				</g>
				<g>
					<g>
						<g>
							<g>
								<path fill="#FC97B2" d="M4.6,9.4c2.1,1.7,6.5,1.7,6.9,4.8l0-0.7c-0.5-3.7-2.7-6.2-5.3-7C5,6.1,4.2,6.4,3.9,6.9
									C3.4,7.5,3.5,8.5,4.6,9.4z"/>
							</g>
						</g>
					</g>
					<g>
						<g>
							<g>
								<path fill="#E88EA7" d="M6.3,9.6c3,1.3,4.6,2.3,5.1,4.1c-0.8-2.6-4.8-2.6-6.8-4.3C3.5,8.5,3.4,7.5,3.8,6.9
									C3.8,7.5,4.1,8.6,6.3,9.6z"/>
							</g>
						</g>
					</g>
				</g>
			</g>
		</g>
		<g>
			<g>
				<g>
					<g>
						<g>
							<path fill="#CBD6E0" d="M30.7,21c0,3.4-2,6.3-5,8.2c-0.7,2.2-3.9,3.8-7.7,3.8c-3.8,0-7-1.7-7.7-3.8c-3-1.9-5-4.8-5-8.2
								c0-1.5,0.4-2.9,1.1-4.2c2.5-4.7,2.8-6.8,3.6-8.4C11.6,1,24.2,1.1,26,8.5c0.8,1.6,1.1,3.8,3.6,8.4
								C30.3,18.1,30.7,19.5,30.7,21z"/>
						</g>
					</g>
				</g>
				<g>
					<g>
						<g>
							<path fill="#BBC7D1" d="M25.7,29.2L25.7,29.2c-0.5,1.5-1.9,2.4-3.3,3c-1.4,0.6-2.9,0.8-4.5,0.8c-1.5,0-3-0.2-4.5-0.8
								c-1.4-0.6-2.8-1.5-3.2-3c0,0,0,0,0,0c-1.2-0.8-2.4-1.8-3.2-3c-0.9-1.2-1.5-2.6-1.7-4c0.7,2.4,2.3,3.9,4.2,5.1
								c1,0.6,1.8,1.3,2.5,2.2c2.8,3.2,10,1.7,11.6-0.8c0.4-0.7,0.9-1.3,1.6-1.8c6.5-5.1,2.4-9.4,1-15.5c-0.2-1-0.4-2-0.6-2.9l0,0
								c-0.1-0.4-0.1-0.9-0.2-1.4L26,8.5c0.4,0.9,0.7,1.8,1.1,2.8c1.5,4.3,3,5.8,3.5,8.1C31.3,22.8,29.8,26.7,25.7,29.2z"/>
						</g>
					</g>
				</g>
			</g>
			<g>
				<g>
					<g>
						<g>
							<g>
								<g>
									<path fill="#FFFFFF" d="M25.3,12.8c-0.1,2.1-2.9,3.8-4.4,3.9c-0.5,0-1.2-1.6-1.1-3.6c0.1-2,1.4-3.8,2.9-3.8
										C24.2,9.1,25.4,10.7,25.3,12.8z"/>
								</g>
							</g>
						</g>
						<g>
							<g>
								<g>
									<g>
										<ellipse fill="#65B1EF" cx="22.2" cy="13.3" rx="1.7" ry="2"/>
									</g>
								</g>
							</g>
							<g>
								<g>
									<g>
										<path fill="#5A5F63" d="M23.1,13.4c0,0.6-0.5,1.1-1.1,1.1c-0.6,0-1.1-0.5-1.1-1.1c0-0.6,0.5-1.1,1.1-1.1
											C22.6,12.3,23.1,12.8,23.1,13.4z"/>
									</g>
								</g>
							</g>
							<g>
								<g>
									<g>
										<circle fill="#FFFFFF" cx="22.7" cy="12.7" r="0.4"/>
									</g>
								</g>
							</g>
							<g>
								<g>
									<g>
										<path fill="#FFFFFF" d="M22,13.7c0,0.1-0.1,0.2-0.2,0.2c-0.1,0-0.2-0.1-0.2-0.2c0-0.1,0.1-0.2,0.2-0.2
											C21.9,13.5,22,13.6,22,13.7z"/>
									</g>
								</g>
							</g>
						</g>
					</g>
					<g>
						<g>
							<g>
								<path fill="#5A5F63" d="M21,7.8c-0.3,0-0.6-0.2-0.6-0.5c0-0.3,0.1-0.5,0.8-0.5c1,0.1,2.5,1,3.1,2C24.3,8.8,22.9,7.8,21,7.8z
									"/>
							</g>
						</g>
					</g>
				</g>
				<g>
					<g>
						<g>
							<g>
								<g>
									<path fill="#FFFFFF" d="M10.7,12.8c0.1,2.1,2.9,3.8,4.4,3.9c0.5,0,1.2-1.6,1.1-3.6c-0.1-2-1.4-3.8-2.9-3.8
										C11.8,9.1,10.6,10.7,10.7,12.8z"/>
								</g>
							</g>
						</g>
						<g>
							<g>
								<g>
									<g>
										<ellipse fill="#65B1EF" cx="13.8" cy="13.3" rx="1.7" ry="2"/>
									</g>
								</g>
							</g>
							<g>
								<g>
									<g>
										<path fill="#5A5F63" d="M12.9,13.4c0,0.6,0.5,1.1,1.1,1.1c0.6,0,1.1-0.5,1.1-1.1c0-0.6-0.5-1.1-1.1-1.1
											C13.4,12.3,12.9,12.8,12.9,13.4z"/>
									</g>
								</g>
							</g>
							<g>
								<g>
									<g>
										<circle fill="#FFFFFF" cx="13.3" cy="12.7" r="0.4"/>
									</g>
								</g>
							</g>
							<g>
								<g>
									<g>
										<path fill="#FFFFFF" d="M14,13.7c0,0.1,0.1,0.2,0.2,0.2c0.1,0,0.2-0.1,0.2-0.2c0-0.1-0.1-0.2-0.2-0.2
											C14.1,13.5,14,13.6,14,13.7z"/>
									</g>
								</g>
							</g>
						</g>
					</g>
					<g>
						<g>
							<g>
								<path fill="#5A5F63" d="M15,7.8c0.3,0,0.6-0.2,0.6-0.5c0-0.3-0.1-0.5-0.8-0.5c-1,0.1-2.5,1-3.1,2C11.7,8.8,13.1,7.8,15,7.8z
									"/>
							</g>
						</g>
					</g>
				</g>
			</g>
		</g>
	</g>
	<g>
		<g>
			<g>
				<g>
					<path fill="#BBC7D1" d="M23.9,27.8c0,3.8-2.7,5.1-6.1,5.1s-6.1-1.3-6.1-5.1c0-2.8,2.7-5.1,6.1-5.1S23.9,25,23.9,27.8z"/>
				</g>
			</g>
		</g>
		<g>
			<g>
				<g>
					<path fill="#3E4347" d="M23,27.6c0,1.1-0.3,1.9-0.7,2.6c-0.9,1.3-2.6,1.8-4.5,1.8c-1.9,0-3.5-0.5-4.4-1.7
						c-0.5-0.6-0.8-1.5-0.8-2.6c0-2.4,2.3-4.3,5.2-4.3S23,25.3,23,27.6z"/>
				</g>
			</g>
		</g>
		<g>
			<g>
				<g>
					<path fill="#E24B4B" d="M22.3,30.2c-0.9,1.3-2.6,1.8-4.5,1.8c-1.9,0-3.5-0.5-4.4-1.7c0.8-0.4,1.7-0.4,2.6-0.2
						c0.3,0.1,0.6,0.3,1,0.3c0.5,0,0.8-0.3,1.2-0.4C19.6,29.5,21.1,29.5,22.3,30.2z"/>
				</g>
			</g>
		</g>
		<g>
			<g>
				<g>
					<g>
						<g>
							<path fill="#FFFFFF" d="M26.3,24.2c0.1,3.3-3,6.2-6.3,5c-1.2-0.5-2.6-0.5-3.9,0c-3.2,1.3-6.3-1.7-6.3-5
								c-0.1-3.9,3-6.2,8.2-6.1C23.3,17.9,26.4,20.3,26.3,24.2z"/>
						</g>
					</g>
				</g>
			</g>
			<g>
				<g>
					<g>
						<g>
							<path fill="#E9EFF4" d="M12.3,28.7c2.9,1.1,3.6-1.1,6.5-0.8c1.6,0.1,2.1,0.8,3.4,0.4c0.5-0.1,0.9-0.3,1.4-0.6
								c0.8-0.6,1.4-1.3,1.8-2.4c0.4-1.4,0.5-3-0.1-4.5c0.8,1,1.2,2.9,0.9,4.7c-0.4,1.9-1.9,3.5-3.7,3.9c-1.7,0.4-2.6-0.4-3.8-0.5
								C16.1,28.5,14.7,30.5,12.3,28.7z"/>
						</g>
					</g>
				</g>
			</g>
			<g>
				<g>
					<g>
						<g>
							<g>
								<g>
									
										<ellipse transform="matrix(0.7611 -0.6486 0.6486 0.7611 -10.1866 13.7272)" fill="#FFFFFF" cx="13.5" cy="20.7" rx="1.8" ry="2.4"/>
								</g>
							</g>
						</g>
						<g>
							<g>
								<g>
									<g>
										<path fill="#BBC7D1" d="M15,22.5c-0.1,0-1.9-0.4-2.3-1.1c-0.4-0.7-0.3-1.3,0.2-1.5c0.4-0.2,1-0.1,1.4,0.6
											C14.6,21.2,15,22.3,15,22.5z"/>
									</g>
								</g>
							</g>
							<g>
								<g>
									<g>
										<path fill="#ACB9C1" d="M14.9,22.5c-0.3-0.1-1.9-0.4-2.3-1.1c-0.4-0.7-0.3-1.3,0.2-1.5c0.2-0.1,0.5-0.2,0.8,0
											c-0.1,0-0.2,0-0.2,0.1c-0.4,0.2-0.6,0.8-0.2,1.5C13.5,21.9,14.4,22.3,14.9,22.5z"/>
									</g>
								</g>
							</g>
						</g>
					</g>
					<g>
						<g>
							<g>
								<g>
									
										<ellipse transform="matrix(-0.7611 -0.6486 0.6486 -0.7611 26.081 50.9904)" fill="#FFFFFF" cx="22.4" cy="20.7" rx="1.8" ry="2.4"/>
								</g>
							</g>
						</g>
						<g>
							<g>
								<g>
									<g>
										<path fill="#BBC7D1" d="M21,22.5c0.1,0,1.9-0.4,2.3-1.1c0.4-0.7,0.3-1.3-0.2-1.5c-0.4-0.2-1-0.1-1.4,0.6
											C21.3,21.2,21,22.3,21,22.5z"/>
									</g>
								</g>
							</g>
							<g>
								<g>
									<g>
										<path fill="#ACB9C1" d="M21,22.5c0.3-0.1,1.9-0.4,2.3-1.1c0.4-0.7,0.3-1.3-0.2-1.5c-0.2-0.1-0.5-0.2-0.8,0
											c0.1,0,0.2,0,0.2,0.1c0.4,0.2,0.6,0.8,0.2,1.5C22.5,21.9,21.6,22.3,21,22.5z"/>
									</g>
								</g>
							</g>
						</g>
					</g>
				</g>
			</g>
		</g>
		<g>
			<g>
				<g>
					<path fill="#E9EFF4" d="M23.8,21.9c0.6-0.9,0.8-2.2,0-2.9c-1-0.8-1.9-0.1-2.8,0.5c0.8-1.2,2.3-1.4,3.1-0.8
						C25.1,19.6,24.7,21.3,23.8,21.9z"/>
				</g>
			</g>
			<g>
				<g>
					<path fill="#E9EFF4" d="M14.9,19.5c-0.9-0.6-2-1.2-2.8-0.5c-0.8,0.6-0.6,2,0,2.9c-0.4-0.3-0.9-1.2-0.8-2c0-0.4,0.2-0.9,0.6-1.2
						C12.7,18,14.1,18.3,14.9,19.5z"/>
				</g>
			</g>
		</g>
	</g>
</g>
</svg>
