<?xml version="1.0" encoding="utf-8"?>
<!-- Generator: Adobe Illustrator 18.0.0, SVG Export Plug-In . SVG Version: 6.00 Build 0)  -->
<!DOCTYPE svg PUBLIC "-//W3C//DTD SVG 1.1//EN" "http://www.w3.org/Graphics/SVG/1.1/DTD/svg11.dtd">
<svg version="1.1" id="Layer_1" xmlns="http://www.w3.org/2000/svg" xmlns:xlink="http://www.w3.org/1999/xlink" x="0px" y="0px"
	 viewBox="0 0 36 36" enable-background="new 0 0 36 36" xml:space="preserve">
<g>
	<g>
		<g>
			<g>
				<g>
					<path fill="#E9EFF4" d="M27.7,2.2C27.6,2.1,27.4,2,27.3,2c-0.2,0-0.3,0.3-0.3,0.5l0,0c0.5,2.2,0.4,4.4-1.1,6.1
						c0.2-1.2-0.1-2.5-0.8-3.4l0,0C25,5.1,24.8,5,24.7,5.1c-0.1,0.1-0.2,0.2-0.1,0.4c0.7,1.1,0.6,3.1-0.4,3.9
						c-0.9,0.8-5.4,2.4-6,4.6V16c0.3,0.5,0.8,1,1.4,1.1c1.1,0.2,2.2-0.5,2.4-1.6c0-0.1,0.1-0.5,0.1-0.5c-0.4-0.4,2-1.9,2.4-2.2
						c1.1-0.7,1.7-1.2,2.5-2.2c0.7-0.9,1.2-2,1.4-3.1C28.9,5.6,28.5,3.9,27.7,2.2z"/>
				</g>
			</g>
		</g>
	</g>
	<g>
		<g>
			<path fill="#DEE4E9" d="M21.5,13.2l0,3.4c0.3-0.3,0.5-0.6,0.6-1.1c0-0.1,0.1-0.5,0.1-0.5c-0.4-0.4,2-1.9,2.4-2.2
				c1.1-0.7,1.7-1.2,2.5-2.2c0.7-0.9,1.2-2,1.4-3.1c0.3-1.8,0-3.4-0.7-5C28.4,4.2,29.8,10.4,21.5,13.2z"/>
		</g>
	</g>
	<g>
		<g>
			<g>
				<g>
					<path fill="#E9EFF4" d="M8.3,2.2C8.4,2.1,8.6,2,8.7,2c0.2,0,0.3,0.3,0.3,0.5l0,0c-0.5,2.2-0.4,4.4,1.1,6.1
						c-0.2-1.2,0.1-2.5,0.8-3.4l0,0C11,5.1,11.2,5,11.3,5.1c0.1,0.1,0.2,0.2,0.1,0.4c-0.7,1.1-0.6,3.1,0.4,3.9
						c0.9,0.8,5.4,2.4,6,4.6V16c-0.3,0.5-0.8,1-1.4,1.1c-1.1,0.2-2.2-0.5-2.4-1.6c0-0.1-0.1-0.5-0.1-0.5c0.4-0.4-2-1.9-2.4-2.2
						c-1.1-0.7-1.7-1.2-2.5-2.2c-0.7-0.9-1.2-2-1.4-3.1C7.1,5.6,7.5,3.9,8.3,2.2z"/>
				</g>
			</g>
		</g>
	</g>
	<g>
		<g>
			<path fill="#DEE4E9" d="M14.5,13.2l0,3.4c-0.3-0.3-0.5-0.6-0.6-1.1c0-0.1-0.1-0.5-0.1-0.5c0.4-0.4-2-1.9-2.4-2.2
				c-1.1-0.7-1.7-1.2-2.5-2.2c-0.7-0.9-1.2-2-1.4-3.1c-0.3-1.8,0-3.4,0.7-5C7.6,4.2,6.2,10.4,14.5,13.2z"/>
		</g>
	</g>
	<g>
		<g>
			<g>
				<path fill="#F29A2E" d="M27.8,14.7c-1.6-0.5-3.8-0.4-5.3,0c-1.7,0.7-1.6,2-0.5,3.2c0.1,0.1,0.3,0.3,0.4,0.4
					c2.9,2.1,7.1,3.3,10.8,0.9C32,17,29.9,15.3,27.8,14.7z"/>
			</g>
		</g>
	</g>
	<g>
		<g>
			<g>
				<path fill="#FFE9AB" d="M30.2,19.1c-2.5,1.2-5.7,0.3-7.8-1.2c-0.1-0.1-0.2-0.2-0.3-0.3c-0.9-0.8-1-1.7,0.3-2
					c1.1-0.2,2.7,0,3.8,0.4C27.7,16.6,29.4,17.8,30.2,19.1z"/>
			</g>
		</g>
	</g>
	<g>
		<g>
			<g>
				<path fill="#FFDC97" d="M30.2,19.2c-2.8-2.6-5.7-3-8.8-2.6c0-0.4,0.3-0.7,1-0.9c1.1-0.2,2.7,0,3.8,0.4
					C27.7,16.6,29.4,17.8,30.2,19.2z"/>
			</g>
		</g>
	</g>
	<g>
		<g>
			<g>
				<path fill="#E18823" d="M22.4,14.7c-1,0.4-1.4,1-1.3,1.6c0.1-0.1,0.2-0.1,0.4-0.2c3.4-2.3,7.9-0.6,11.7,3
					c-1.3-2.2-3.3-3.8-5.5-4.5C26.2,14.2,24,14.2,22.4,14.7z"/>
			</g>
		</g>
	</g>
	<g>
		<g>
			<g>
				<path fill="#F29A2E" d="M8.2,14.7c1.6-0.5,3.8-0.4,5.3,0c1.7,0.7,1.6,2,0.5,3.2c-0.1,0.1-0.3,0.3-0.4,0.4
					c-2.9,2.1-7.1,3.3-10.8,0.9C4,17,6.1,15.3,8.2,14.7z"/>
			</g>
		</g>
	</g>
	<g>
		<g>
			<g>
				<path fill="#FFE9AB" d="M5.8,19.1c2.5,1.2,5.7,0.3,7.8-1.2c0.1-0.1,0.2-0.2,0.3-0.3c0.9-0.8,1-1.7-0.3-2c-1.1-0.2-2.7,0-3.8,0.4
					C8.3,16.6,6.6,17.8,5.8,19.1z"/>
			</g>
		</g>
	</g>
	<g>
		<g>
			<g>
				<path fill="#FFDC97" d="M5.8,19.2c2.8-2.6,5.7-3,8.8-2.6c0-0.4-0.3-0.7-1-0.9c-1.1-0.2-2.7,0-3.8,0.4
					C8.3,16.6,6.6,17.8,5.8,19.2z"/>
			</g>
		</g>
	</g>
	<g>
		<g>
			<g>
				<path fill="#E18823" d="M13.6,14.7c1,0.4,1.4,1,1.3,1.6c-0.1-0.1-0.2-0.1-0.4-0.2c-3.4-2.3-7.9-0.6-11.7,3
					C4,17,6.1,15.3,8.2,14.7C9.8,14.2,12,14.2,13.6,14.7z"/>
			</g>
		</g>
	</g>
	<g>
		<g>
			<path fill="#F29A2E" d="M26.8,23.6c-0.9-1.2-1.4-2.7-1.6-4.2c-0.7-6-3.7-7.3-7.2-7.3c-3.5,0-6.5,1.3-7.2,7.3
				c-0.2,1.5-0.7,2.9-1.6,4.1c-0.5,0.6-0.7,1.2-0.7,1.9c0,1.2,1.3,2.4,2.8,3.2c0.2,0.1,0.4,0.3,0.7,0.4c1,0.7,2.2,1,3.4,1h5.3
				c1.2,0,2.4-0.3,3.4-1c0.2-0.1,0.4-0.3,0.6-0.4c1.5-0.9,2.8-2,2.8-3.3C27.5,24.8,27.3,24.2,26.8,23.6z"/>
		</g>
	</g>
	<g>
		<g>
			<g>
				<path fill="#FFDC97" d="M22.2,30c0,2.2-1,4-4.2,4c-3.2,0-4.2-1.8-4.2-4c0-2.2,1.9-4,4.2-4C20.3,26.1,22.2,27.8,22.2,30z"/>
			</g>
		</g>
	</g>
	<g>
		<g>
			<path fill="#3E4347" d="M21.3,30c0,1.7-0.8,3.1-3.3,3.1c-2.5,0-3.3-1.4-3.3-3.1c0-1.8,1.5-3.2,3.3-3.2
				C19.8,26.9,21.3,28.3,21.3,30z"/>
		</g>
	</g>
	<g>
		<g>
			<path fill="#FFE9AB" d="M24.2,27.5c0.1,2.4-2.5,4.1-6.2,4c-3.7,0-6.2-1.6-6.2-4c0-1.4,2-2.5,3.8-3.2c1.5-0.6,3.3-0.6,4.8,0
				C22.1,25,24.2,26.1,24.2,27.5z"/>
		</g>
	</g>
	<g>
		<g>
			<g>
				<path fill="#E24B4B" d="M20.6,32.3c-0.5,0.5-1.3,0.9-2.6,0.9c-1.3,0-2.1-0.4-2.6-0.9c0.6-0.4,1.3-0.6,2-0.4c0.1,0,0.2,0,0.3,0.1
					c0.4,0.1,0.7,0,1.1-0.1C19.4,31.7,20,31.9,20.6,32.3z"/>
			</g>
		</g>
	</g>
	<g>
		<g>
			<path fill="#FFE9AB" d="M22.6,27.5c-0.6,0.6-3.3,1-3.3,1s0.4-2.7,1-3.3c0.8-0.8,1.9-0.9,2.6-0.3C23.5,25.5,23.4,26.6,22.6,27.5z"
				/>
		</g>
	</g>
	<g>
		<g>
			<path fill="#7A5B44" d="M22.4,26.7c-0.4,0.3-2.1,0.7-2.1,0.7s0.5-1.6,0.8-1.9c0.3-0.3,0.9-0.3,1.3,0.1
				C22.8,25.9,22.8,26.4,22.4,26.7z"/>
		</g>
	</g>
	<g>
		<g>
			<path fill="#6B503B" d="M22.4,26.7c-0.3,0.2-1.3,0.5-1.8,0.6c0.5-0.2,1.2-0.5,1.4-0.7c0.3-0.4,0.3-0.9-0.1-1.2
				c-0.1-0.1-0.2-0.1-0.3-0.2c0.3,0,0.6,0,0.8,0.3C22.8,25.9,22.8,26.4,22.4,26.7z"/>
		</g>
	</g>
	<g>
		<g>
			<path fill="#FFD68D" d="M20.3,25.2c0.9-1.1,2-1,2.7-0.4c0.6,0.6,0.7,1.7-0.4,2.7c0.6-0.7,0.8-1.9,0.2-2.5
				C22.2,24.3,21,24.6,20.3,25.2z"/>
		</g>
	</g>
	<g>
		<g>
			<path fill="#FFE9AB" d="M13.4,27.5c0.6,0.6,3.3,1,3.3,1s-0.4-2.7-1-3.3c-0.8-0.8-1.9-0.9-2.6-0.3C12.5,25.5,12.6,26.6,13.4,27.5z
				"/>
		</g>
	</g>
	<g>
		<g>
			<path fill="#7A5B44" d="M13.6,26.7c0.4,0.3,2.1,0.7,2.1,0.7s-0.5-1.6-0.8-1.9c-0.3-0.3-0.9-0.3-1.3,0.1
				C13.2,25.9,13.2,26.4,13.6,26.7z"/>
		</g>
	</g>
	<g>
		<g>
			<path fill="#6B503B" d="M13.6,26.7c0.3,0.2,1.3,0.5,1.8,0.6c-0.5-0.2-1.2-0.5-1.4-0.7c-0.3-0.4-0.3-0.9,0.1-1.2
				c0.1-0.1,0.2-0.1,0.3-0.2c-0.3,0-0.6,0-0.8,0.3C13.2,25.9,13.2,26.4,13.6,26.7z"/>
		</g>
	</g>
	<g>
		<g>
			<path fill="#FFD68D" d="M15.7,25.2c-0.7-0.6-1.9-0.8-2.5-0.2c-0.7,0.6-0.4,1.8,0.2,2.5c-1.1-0.9-1-2-0.4-2.7
				C13.6,24.1,14.7,24.1,15.7,25.2z"/>
		</g>
	</g>
	<g>
		<g>
			<g>
				<path fill="#FFFFFF" d="M16.7,19.6c0,1.3-0.8,2.4-1.8,2.4c-1,0-1.8-1.1-1.8-2.4c0-1.3,0.8-2.4,1.8-2.4
					C15.9,17.2,16.7,18.3,16.7,19.6z"/>
			</g>
		</g>
	</g>
	<g>
		<g>
			<g>
				<g>
					<path fill="#65B1EF" d="M16.1,19.9c0,0.9-0.5,1.6-1.2,1.6c-0.7,0-1.2-0.7-1.2-1.6c0-0.9,0.5-1.6,1.2-1.6
						C15.6,18.3,16.1,19,16.1,19.9z"/>
				</g>
			</g>
		</g>
		<g>
			<g>
				<g>
					<path fill="#3E4347" d="M15.6,20.2c0,0.5-0.3,1-0.7,1c-0.4,0-0.7-0.4-0.7-1c0-0.5,0.3-0.9,0.7-0.9
						C15.3,19.3,15.6,19.7,15.6,20.2z"/>
				</g>
			</g>
		</g>
		<g>
			<g>
				<circle fill="#FFFFFF" cx="14.6" cy="20.7" r="0.2"/>
			</g>
		</g>
		<g>
			<g>
				<g>
					<circle fill="#FFFFFF" cx="15.4" cy="19.8" r="0.3"/>
				</g>
			</g>
		</g>
	</g>
	<g>
		<g>
			<g>
				<path fill="#FFFFFF" d="M22.8,19.6c0,1.3-0.8,2.4-1.8,2.4c-1,0-1.8-1.1-1.8-2.4c0-1.3,0.8-2.4,1.8-2.4
					C22.1,17.2,22.8,18.3,22.8,19.6z"/>
			</g>
		</g>
	</g>
	<g>
		<g>
			<g>
				<g>
					<path fill="#65B1EF" d="M22.3,19.9c0,0.9-0.5,1.6-1.2,1.6c-0.7,0-1.2-0.7-1.2-1.6c0-0.9,0.5-1.6,1.2-1.6
						C21.7,18.3,22.3,19,22.3,19.9z"/>
				</g>
			</g>
		</g>
		<g>
			<g>
				<g>
					<path fill="#3E4347" d="M21.8,20.2c0,0.5-0.3,1-0.7,1c-0.4,0-0.7-0.4-0.7-1c0-0.5,0.3-0.9,0.7-0.9
						C21.5,19.3,21.8,19.7,21.8,20.2z"/>
				</g>
			</g>
		</g>
		<g>
			<g>
				<circle fill="#FFFFFF" cx="20.7" cy="20.7" r="0.2"/>
			</g>
		</g>
		<g>
			<g>
				<g>
					<circle fill="#FFFFFF" cx="21.5" cy="19.8" r="0.3"/>
				</g>
			</g>
		</g>
	</g>
</g>
</svg>
