<?xml version="1.0" encoding="utf-8"?>
<!-- Generator: Adobe Illustrator 18.0.0, SVG Export Plug-In . SVG Version: 6.00 Build 0)  -->
<!DOCTYPE svg PUBLIC "-//W3C//DTD SVG 1.1//EN" "http://www.w3.org/Graphics/SVG/1.1/DTD/svg11.dtd">
<svg version="1.1" id="Layer_1" xmlns="http://www.w3.org/2000/svg" xmlns:xlink="http://www.w3.org/1999/xlink" x="0px" y="0px"
	 viewBox="0 0 36 36" enable-background="new 0 0 36 36" xml:space="preserve">
<g>
	<g>
		<g>
			<path fill="#BBC7D1" d="M33.8,8.1c-0.3-1.5-1.2-2.8-2.5-3.7c-0.4-0.3-1.2,0.1-1.2,0.5C30,6.6,28.6,8.6,27,10.1
				c-0.8,0.7-1.6,1.3-2.4,1.8l0.1,1.8c0.9-0.1,1.8-0.2,2.8-0.3c0.9-0.1,1.9-0.2,2.9-0.6c1-0.4,2.2-1,2.8-2C33.9,10,34,9,33.8,8.1z"
				/>
		</g>
	</g>
	<g>
		<g>
			<path fill="#BBC7D1" d="M33.8,8.1c-0.3-1.5-1.2-2.8-2.5-3.7c-0.4-0.3-1.2,0.1-1.2,0.5C30,6.6,28.6,8.6,27,10.1
				c-0.8,0.7-1.6,1.3-2.4,1.8l0.1,1.8c0.9-0.1,1.8-0.2,2.8-0.3c0.9-0.1,1.9-0.2,2.9-0.6c1-0.4,2.2-1,2.8-2C33.9,10,34,9,33.8,8.1z"
				/>
		</g>
	</g>
	<g>
		<g>
			<path fill="#FC97B2" d="M33.8,8.1c-0.3-1.5-1.3-2.4-2.6-3.4c-0.4-0.3-0.7-0.1-0.8,0.3c-0.1,1.8-1.7,3.7-3.3,5.2
				c-0.8,0.7-1.6,1.3-2.5,1.8l0.1,1.7c0.9-0.1,1.8-0.2,2.8-0.3c0.9-0.1,1.9-0.2,2.9-0.6c1-0.4,2.2-1,2.8-2C33.9,10,34,9,33.8,8.1z"
				/>
		</g>
	</g>
	<g>
		<g>
			<path fill="#E88EA7" d="M33.8,8.1C33.8,8.1,33.8,8,33.8,8.1c-0.3-1.5-1.6-2.3-2.8-3.3c-0.2-0.1-0.3-0.2-0.3-0.2
				c0,0-0.1,0.1-0.1,0.1c0,0.1,0,0.1,0,0.2c-0.1,1.8-1.7,3.9-3.3,5.4c-0.6,0.6-1.3,1-1.9,1.4c0,0,0,0-0.1,0
				c-0.2,0.1-0.4,0.2-0.6,0.3l0.1,1.7c0.7-0.1,1.5-0.2,2.3-0.2c-0.5-0.4,0.2-1.2,0.9-1.7c1.5-0.9,2.6-1.5,3.5-2.7
				c0.6-0.8,0.9-1.3,0.9-1.6c0.3,0.3,0.8,1.7,0.8,1.8c0.2-0.4,0.4-0.8,0.6-1.2L33.8,8.1C33.8,8.1,33.8,8.1,33.8,8.1z"/>
		</g>
	</g>
	<g>
		<g>
			<path fill="#BBC7D1" d="M31.3,4.3c-0.4-0.3-1.2,0.1-1.2,0.5c-0.4,3.1-2.9,5.6-5.4,7.1l0,0.5c3.9-1.2,7.2-2.9,6.9-6.8
				c1-0.4,2.1,4.6,1.7,5.3C34.9,9,33.6,5.9,31.3,4.3z"/>
		</g>
	</g>
	<g>
		<g>
			<path fill="#CBD6E0" d="M24.7,12.2l0,0.2c3.9-1.2,7.2-2.9,6.9-6.8C31.3,8.6,28.3,10.8,24.7,12.2z"/>
		</g>
	</g>
	<g>
		<g>
			<path fill="#BBC7D1" d="M2.2,8.1c0.3-1.5,1.2-2.8,2.5-3.7C5.1,4,5.9,4.4,5.9,4.8C6,6.6,7.4,8.6,9,10.1c0.8,0.7,1.6,1.3,2.4,1.8
				l-0.1,1.8c-0.9-0.1-1.8-0.2-2.8-0.3c-0.9-0.1-1.9-0.2-2.9-0.6c-1-0.4-2.2-1-2.8-2C2.1,10,2,9,2.2,8.1z"/>
		</g>
	</g>
	<g>
		<g>
			<path fill="#BBC7D1" d="M2.2,8.1c0.3-1.5,1.2-2.8,2.5-3.7C5.1,4,5.9,4.4,5.9,4.8C6,6.6,7.4,8.6,9,10.1c0.8,0.7,1.6,1.3,2.4,1.8
				l-0.1,1.8c-0.9-0.1-1.8-0.2-2.8-0.3c-0.9-0.1-1.9-0.2-2.9-0.6c-1-0.4-2.2-1-2.8-2C2.1,10,2,9,2.2,8.1z"/>
		</g>
	</g>
	<g>
		<g>
			<path fill="#FC97B2" d="M2.2,8.1c0.3-1.5,1.3-2.4,2.6-3.4C5.2,4.4,5.5,4.6,5.6,5c0.1,1.8,1.7,3.7,3.3,5.2
				c0.8,0.7,1.6,1.3,2.5,1.8l-0.1,1.7c-0.9-0.1-1.8-0.2-2.8-0.3c-0.9-0.1-1.9-0.2-2.9-0.6c-1-0.4-2.2-1-2.8-2C2.1,10,2,9,2.2,8.1z"
				/>
		</g>
	</g>
	<g>
		<g>
			<path fill="#E88EA7" d="M2.2,8.1C2.2,8.1,2.2,8,2.2,8.1C2.5,6.5,3.8,5.8,5,4.8c0.2-0.1,0.3-0.2,0.3-0.2c0,0,0.1,0.1,0.1,0.1
				c0,0.1,0,0.1,0,0.2c0.1,1.8,1.7,3.9,3.3,5.4c0.6,0.6,1.3,1,1.9,1.4c0,0,0,0,0.1,0c0.2,0.1,0.4,0.2,0.6,0.3l-0.1,1.7
				c-0.7-0.1-1.5-0.2-2.3-0.2c0.5-0.4-0.2-1.2-0.9-1.7c-1.5-0.9-2.6-1.5-3.5-2.7C3.9,8.4,3.6,7.9,3.6,7.6C3.2,7.9,2.8,9.2,2.8,9.4
				C2.6,9,2.4,8.6,2.2,8.2L2.2,8.1C2.2,8.1,2.2,8.1,2.2,8.1z"/>
		</g>
	</g>
	<g>
		<g>
			<path fill="#BBC7D1" d="M4.7,4.3C5.1,4,5.9,4.4,5.9,4.8c0.4,3.1,2.9,5.6,5.4,7.1l0,0.5c-3.9-1.2-7.2-2.9-6.9-6.8
				c-1-0.4-2.1,4.6-1.7,5.3C1.1,9,2.4,5.9,4.7,4.3z"/>
		</g>
	</g>
	<g>
		<g>
			<path fill="#CBD6E0" d="M11.3,12.2l0,0.2c-3.9-1.2-7.2-2.9-6.9-6.8C4.7,8.6,7.7,10.8,11.3,12.2z"/>
		</g>
	</g>
	<g>
		<g>
			<path fill="#BBC7D1" d="M30.6,23.2c0,2.9-2.1,4.8-5.3,5.8c-1.4,1.6-4.1,2.7-7.3,2.7c-3.2,0-5.9-1.1-7.3-2.7
				c-3.2-1-5.2-2.9-5.2-5.8c0-1.4,0.4-2.6,1.2-3.8c1.1-1.6,1.8-3.5,1.8-5.5C8.4,9.6,9.4,3.7,18,3.7c5.3,0,9.6,2.5,9.6,9.6
				c0,0.1,0,0.3,0,0.5c-0.1,2.1,0.6,4,1.8,5.7C30.1,20.6,30.6,21.9,30.6,23.2z"/>
		</g>
	</g>
	<g>
		<g>
			<ellipse fill="#ACB9C1" cx="18" cy="26.5" rx="8.2" ry="5.8"/>
		</g>
	</g>
	<g>
		<g>
			<ellipse fill="#3E4347" cx="18" cy="26.5" rx="6.9" ry="4.6"/>
		</g>
	</g>
	<g>
		<g>
			<path fill="#3E4347" d="M24.9,26.5c0,1.3-0.8,2.5-2.2,3.4c-1.2,0.8-2.9,1.3-4.8,1.3c-1.9,0-3.6-0.5-4.8-1.3
				c-1.3-0.8-2.1-2-2.1-3.3c0-2.6,3.1-4.6,6.9-4.6C21.8,21.9,24.9,24,24.9,26.5z"/>
		</g>
	</g>
	<g>
		<g>
			<path fill="#E24B4B" d="M22.7,29.9c-1.2,0.8-2.9,1.3-4.8,1.3c-1.9,0-3.6-0.5-4.8-1.3c1-0.6,2.2-0.8,3.4-0.7c0.2,0,0.4,0,0.6,0
				c0.4,0,0.7,0,1.1-0.1C19.8,28.7,21.6,28.9,22.7,29.9z"/>
		</g>
	</g>
	<g>
		<g>
			<path fill="#DAE5EF" d="M28.3,23.8c-0.2,2-1.4,3.5-3.2,4.5c-3.8,2.2-5.9-1.3-8.4-0.1c0,0,0,0,0,0c-1.9,0.9-4.1,1.1-5.9,0.1
				c-1.7-1-2.9-2.5-3.1-4.4c-0.4-2.3,2.9-4.7,6-6.1c2.7-1.2,5.9-1.2,8.6,0C25.4,19.1,28.7,21.5,28.3,23.8z"/>
		</g>
	</g>
	<g>
		<g>
			<path fill="#CBD6E0" d="M28.3,23.8c-0.1,1.2-0.7,2.3-1.5,3.2c-2.1,2.1-4.3,2.4-6.6,1.6c-4.4-1.5-3.1,0.3-6.7,0.3
				c-1.4,0-2.6-0.5-3.7-1.3c-1.4-1.1-2.2-2.6-2.2-4.1c0.1,1.8,1,3.1,2.3,4c1.4,1,3.1,1.1,4.3,0.7c0.7-0.3,1.9-1.1,1.9-1.1h0
				c1.6-0.9,3-0.1,4.4,0.6c1.9,0.9,3.6,1.4,6.2-0.7c0.4-0.4,0.8-0.9,1.1-1.4C28.1,25,28.3,24.4,28.3,23.8z"/>
		</g>
	</g>
	<g>
		<g>
			<path fill="#DAE5EF" d="M26,22.3c-1.1,0.5-4.3,0.8-4.2,0.9c0,0,0-3,1.1-3.8c1.4-1,3.4-0.8,4.2,0.1C27.8,20.4,27.4,21.5,26,22.3z"
				/>
		</g>
	</g>
	<g>
		<g>
			<path fill="#5A5F63" d="M26,21.4c-0.6,0.2-3,0.5-3,0.5c0,0,0.6-1.9,1.3-2.2c0.6-0.3,1.5-0.2,2,0.3C26.7,20.5,26.6,21.1,26,21.4z"
				/>
		</g>
	</g>
	<g>
		<g>
			<path fill="#3E4347" d="M26,21.4c-0.4,0.2-1.9,0.4-2.6,0.5c0.7-0.2,1.7-0.5,2-0.7c0.5-0.4,0.6-1,0-1.5c-0.1-0.1-0.3-0.2-0.4-0.2
				c0.5,0,1,0.2,1.3,0.5C26.7,20.5,26.6,21.1,26,21.4z"/>
		</g>
	</g>
	<g>
		<g>
			<path fill="#CBD6E0" d="M23,19.3c1.6-1.2,3.5-0.9,4.3,0c0.7,1,0.4,2.1-1.3,2.9c0.9-0.6,1.7-1.8,0.9-2.8
				C26.1,18.6,24,18.6,23,19.3z"/>
		</g>
	</g>
	<g>
		<g>
			<path fill="#DAE5EF" d="M10,22.3c1.1,0.5,4.3,0.8,4.2,0.9c0,0,0-3-1.1-3.8c-1.4-1-3.4-0.8-4.2,0.1C8.2,20.4,8.7,21.5,10,22.3z"/>
		</g>
	</g>
	<g>
		<g>
			<path fill="#5A5F63" d="M10,21.4c0.6,0.2,3,0.5,3,0.5c0,0-0.6-1.9-1.3-2.2c-0.6-0.3-1.5-0.2-2,0.3C9.3,20.5,9.4,21.1,10,21.4z"/>
		</g>
	</g>
	<g>
		<g>
			<path fill="#3E4347" d="M10,21.4c0.4,0.2,1.9,0.4,2.6,0.5c-0.7-0.2-1.7-0.5-2-0.7c-0.5-0.4-0.6-1,0-1.5c0.1-0.1,0.3-0.2,0.4-0.2
				c-0.5,0-1,0.2-1.3,0.5C9.3,20.5,9.4,21.1,10,21.4z"/>
		</g>
	</g>
	<g>
		<g>
			<path fill="#CBD6E0" d="M13,19.3c-1.6-1.2-3.5-0.9-4.3,0c-0.7,1-0.4,2.1,1.3,2.9c-0.9-0.6-1.7-1.8-0.9-2.8
				C9.9,18.6,12,18.6,13,19.3z"/>
		</g>
	</g>
	<g>
		<g>
			<path fill="#FFE9AB" d="M20.9,23c0,0.3-0.2,0.6-0.5,0.7c-1.6,0.4-3.2,0.4-4.9,0c-0.3-0.1-0.5-0.4-0.5-0.7
				c0.2-2.5,1.7-6.6,2.6-10.2c0.1-0.3,0.6-0.3,0.6,0C19.2,16.5,20.8,20.5,20.9,23z"/>
		</g>
	</g>
	<g>
		<g>
			<path fill="#FFD68D" d="M20.9,23c0,0.3-0.2,0.6-0.5,0.7c-1.6,0.4-3.2,0.4-4.9,0c-0.3-0.1-0.5-0.4-0.5-0.7
				c0.1-0.8,0.3-1.8,0.5-2.9c0,0.3-0.1,1.8,2.1,1.8c2.3,0,0.9-7.9,0.7-8.9C19.3,16.5,20.8,20.6,20.9,23z"/>
		</g>
	</g>
	<g>
		<g>
			<path fill="#3E4347" d="M22.2,6.3c-0.8,0.1-0.7,0.7-0.4,0.8c0.9,0.2,2.5,0.7,3.6,2C25.4,9.1,24,6,22.2,6.3z"/>
		</g>
	</g>
	<g>
		<g>
			<path fill="#3E4347" d="M13.8,6.3c0.8,0.1,0.7,0.7,0.4,0.8c-0.9,0.2-2.5,0.7-3.6,2C10.6,9.1,12,6,13.8,6.3z"/>
		</g>
	</g>
	<g>
		<g>
			<path fill="#FFFFFF" d="M22.8,9c-1.3,0-2.6,1.4-2.8,3.2c-0.2,1.2,0.2,2.3,1,2.8c0.2-0.1,0.4-0.1,0.6-0.1c0.4,0,0.8,0.1,1.1,0.3
				c1-0.4,1.9-1.6,2.1-3C25,10.4,24.1,9,22.8,9z"/>
		</g>
	</g>
	<g>
		<g>
			<path fill="#65B1EF" d="M24,12.7c0,1.2-0.7,2.2-1.6,2.2c-0.9,0-1.6-1-1.6-2.2s0.7-2.2,1.6-2.2C23.3,10.5,24,11.5,24,12.7z"/>
		</g>
	</g>
	<g>
		<g>
			<path fill="#3E4347" d="M23.4,13c0,0.7-0.4,1.2-1,1.2c-0.5,0-1-0.5-1-1.2c0-0.7,0.4-1.2,1-1.2C22.9,11.8,23.4,12.3,23.4,13z"/>
		</g>
	</g>
	<g>
		<g>
			<path fill="#FFFFFF" d="M22.2,13.4c0,0.1-0.1,0.3-0.3,0.3c-0.1,0-0.2-0.1-0.2-0.3c0-0.1,0.1-0.2,0.2-0.2
				C22.1,13.1,22.2,13.2,22.2,13.4z"/>
		</g>
	</g>
	<g>
		<g>
			<path fill="#FFFFFF" d="M23.5,12.3c0,0.3-0.2,0.5-0.5,0.5c-0.3,0-0.5-0.2-0.5-0.5c0-0.3,0.2-0.5,0.5-0.5
				C23.3,11.8,23.5,12,23.5,12.3z"/>
		</g>
	</g>
	<g>
		<g>
			<path fill="#ACB9C1" d="M20,15.2c0.4-0.3,1.4-0.6,2.3-0.4c0.2,0,0.4,0.1,0.7,0.2c0.2,0.1,0.4,0.2,0.6,0.3
				c0.4,0.3,0.8,0.5,1.1,0.9c0.5,0.6,1,1.5,1.1,2c-0.3-0.4-0.9-1.2-1.5-1.6c-0.3-0.3-0.6-0.5-1-0.7C22.2,15.1,20.9,14.9,20,15.2z"/>
		</g>
	</g>
	<g>
		<g>
			<path fill="#FFFFFF" d="M13.2,9c1.3,0,2.6,1.4,2.8,3.2c0.2,1.2-0.2,2.3-1,2.8c-0.2-0.1-0.4-0.1-0.6-0.1c-0.4,0-0.8,0.1-1.1,0.3
				c-1-0.4-1.9-1.6-2.1-3C11,10.4,11.9,9,13.2,9z"/>
		</g>
	</g>
	<g>
		<g>
			<path fill="#65B1EF" d="M12,12.7c0,1.2,0.7,2.2,1.6,2.2c0.9,0,1.6-1,1.6-2.2s-0.7-2.2-1.6-2.2C12.7,10.5,12,11.5,12,12.7z"/>
		</g>
	</g>
	<g>
		<g>
			<path fill="#3E4347" d="M12.6,13c0,0.7,0.4,1.2,1,1.2c0.5,0,1-0.5,1-1.2c0-0.7-0.4-1.2-1-1.2C13.1,11.8,12.6,12.3,12.6,13z"/>
		</g>
	</g>
	<g>
		<g>
			<path fill="#FFFFFF" d="M13.8,13.4c0,0.1,0.1,0.3,0.3,0.3c0.1,0,0.2-0.1,0.2-0.3c0-0.1-0.1-0.2-0.2-0.2
				C13.9,13.1,13.8,13.2,13.8,13.4z"/>
		</g>
	</g>
	<g>
		<g>
			<path fill="#FFFFFF" d="M12.5,12.3c0,0.3,0.2,0.5,0.5,0.5c0.3,0,0.5-0.2,0.5-0.5c0-0.3-0.2-0.5-0.5-0.5
				C12.7,11.8,12.5,12,12.5,12.3z"/>
		</g>
	</g>
	<g>
		<g>
			<path fill="#ACB9C1" d="M16,15.2c0,0-0.1-0.1-0.3-0.2c-0.7-0.3-1.4-0.4-2-0.3c-0.2,0-0.4,0.1-0.7,0.2c-0.2,0.1-0.4,0.2-0.6,0.3
				c-0.4,0.3-0.8,0.5-1.1,0.9c-0.4,0.5-1,1.4-1.1,2c0.3-0.4,0.9-1.2,1.5-1.6c0.3-0.3,0.6-0.5,1-0.7C13.8,15.1,15.1,14.9,16,15.2z"/>
		</g>
	</g>
</g>
</svg>
