<?xml version="1.0" encoding="utf-8"?>
<!-- Generator: Adobe Illustrator 18.0.0, SVG Export Plug-In . SVG Version: 6.00 Build 0)  -->
<!DOCTYPE svg PUBLIC "-//W3C//DTD SVG 1.1//EN" "http://www.w3.org/Graphics/SVG/1.1/DTD/svg11.dtd">
<svg version="1.1" id="Layer_1" xmlns="http://www.w3.org/2000/svg" xmlns:xlink="http://www.w3.org/1999/xlink" x="0px" y="0px"
	 viewBox="0 0 36 36" enable-background="new 0 0 36 36" xml:space="preserve">
<g>
	<g>
		<g>
			<g>
				<g>
					<path fill="#CBD6E0" d="M33,18.5c0.6,1.5,0.8,3.1,0.5,4.6c-0.2-0.4-0.5-0.8-0.7-1.2c0,1.6-0.5,3.2-1.6,4.5
						c-0.2-0.4-0.3-0.8-0.5-1.2c-0.3,1.9-1.6,3.6-3.5,4.6c0-0.6,0-1.1,0-1.7c-0.4,0.9-1.3,1.6-2.3,2c-1,0.4-2.1,0.7-3.2,0.9
						c0-0.4,0.1-0.8,0.1-1.2c-1.4,0.7-2.6,1.6-3.7,2.6c-1.1-1-2.4-1.9-3.7-2.6c0,0.4,0.1,0.8,0.1,1.2c-1.1-0.2-2.2-0.4-3.2-0.9
						c-1-0.4-1.9-1.1-2.3-2c0,0.6,0,1.1,0,1.7c-1.9-1-3.2-2.7-3.5-4.6C5.2,25.6,5,26,4.9,26.4c-1.1-1.3-1.6-2.9-1.6-4.5
						c-0.2,0.4-0.5,0.8-0.7,1.2C2.2,21.6,2.4,20,3,18.5c-0.3,0.5-0.7,1-1,1.4c0.1-1.4,0.8-2.7,1.7-3.8c0.3-0.4,0.9-1,0.9-1
						c0,0-1,0.5-1.4,0.5c1.4-5.2,7.9-12.2,14.8-12c6.9-0.2,13.4,6.8,14.8,12c-0.4,0-1.4-0.5-1.4-0.5s0.6,0.7,0.9,1
						c0.9,1.1,1.6,2.4,1.7,3.8C33.6,19.5,33.3,19,33,18.5z"/>
				</g>
			</g>
		</g>
		<g opacity="0.35">
			<g>
				<path fill="#BBC7D1" d="M32.3,16.2c-0.3-0.4-0.9-1-0.9-1c0,0,1,0.5,1.4,0.5c-0.4-1.8-1.6-3.9-3.2-5.7c0.2,0.8,0.4,1.8,0.4,2.7
					c-0.2,0-0.4-0.1-0.6-0.1c0,0,0.3,1.3,0,3c-0.2-0.1-0.5-0.1-0.7-0.2c0,0,0.1,2.8-0.7,4.6c-0.2-0.3-0.4-0.6-0.6-1
					c0,0-0.9,3.6-1.7,5.1c-0.2-0.1-0.4-0.3-0.5-0.4c0,0-1.1,1.8-3.4,3.3c0,0,0.1-0.5,0.2-1.1c0,0-1.1,1.4-2.5,2.1
					C18,28.7,18,29.1,18,29.1c0,0,0,0-0.1,0c0,0,0-0.4-1.5-1.2c-1.5-0.8-2.5-2.1-2.5-2.1c0.1,0.5,0.2,1.1,0.2,1.1
					c-2.3-1.5-3.4-3.3-3.4-3.3c-0.2,0.1-0.4,0.3-0.5,0.4c-0.8-1.6-1.7-5.1-1.7-5.1c-0.2,0.3-0.4,0.6-0.6,1c-0.8-1.8-0.7-4.6-0.7-4.6
					c-0.2,0.1-0.5,0.1-0.7,0.2c-0.3-1.7,0-3,0-3c-0.2,0-0.4,0.1-0.6,0.1c0-0.9,0.2-1.9,0.4-2.7c-1.6,1.9-2.7,3.9-3.2,5.7
					c0.4,0,1.4-0.5,1.4-0.5c0,0-0.6,0.7-0.9,1C2.8,17.3,2.1,18.6,2,20c0.4-0.5,0.7-1,1-1.4c-0.6,1.5-0.8,3.1-0.5,4.6
					c0.2-0.4,0.5-0.8,0.7-1.2c0,1.6,0.5,3.2,1.6,4.5C5,26,5.2,25.6,5.3,25.2c0.3,1.9,1.6,3.6,3.5,4.6c0-0.6,0-1.1,0-1.7
					c0.4,0.9,1.3,1.6,2.3,2c1,0.4,2.1,0.7,3.2,0.9c-0.1-0.4-0.1-0.8-0.1-1.2c1.4,0.7,2.6,1.6,3.7,2.6c1.1-1,2.4-1.9,3.7-2.6
					c0,0.4-0.1,0.8-0.1,1.2c1.1-0.2,2.2-0.4,3.2-0.9c1-0.4,1.9-1.1,2.3-2c0,0.6,0,1.1,0,1.7c1.9-1,3.2-2.7,3.5-4.6
					c0.1,0.4,0.3,0.8,0.5,1.2c1.1-1.3,1.6-2.9,1.6-4.5c0.2,0.4,0.5,0.8,0.7,1.2c0.3-1.5,0.1-3.1-0.5-4.6c0.3,0.5,0.7,1,1,1.4
					C33.9,18.6,33.2,17.3,32.3,16.2z"/>
			</g>
		</g>
		<g opacity="0.35">
			<g>
				<g>
					<path fill="#BBC7D1" d="M32.3,16.2c-0.3-0.4-0.9-1-0.9-1c0,0,1,0.5,1.4,0.5c-0.4-1.5-1.3-3.2-2.5-4.9c0.4,1.2,0.8,2.4,1.2,3.6
						c-0.3-0.1-0.6-0.2-0.8-0.3c0,0,0.1,3.8-0.1,5.2c-0.3-0.6-0.6-1.1-0.9-1.7c0.4,2.3-0.1,4.8-1.6,6.7c-0.2-0.7-0.5-1.4-0.7-2.1
						c-0.3,1.9-1.1,3.7-2.3,5.3c0-0.4,0-0.8,0-1.2c-1,1.3-2.4,2.4-4.1,3c0.1-0.2,0-0.4,0.1-0.7c-0.2,0.4-0.6,0.7-1,0.8
						c-1,0.3-1.8,0.4-2.1,1.5c0,0,0,0,0-0.1c0,0,0,0,0,0.1c-0.4-1-1.1-1.1-2.1-1.5c-0.4-0.2-0.9-0.4-1-0.8c0.1,0.2,0,0.4,0.1,0.7
						c-1.6-0.7-3-1.8-4.1-3c0,0.4,0,0.8,0,1.2c-1.2-1.6-2-3.4-2.3-5.3c-0.2,0.7-0.5,1.4-0.7,2.1c-1.5-1.9-2-4.4-1.6-6.7
						c-0.3,0.6-0.6,1.1-0.9,1.7c-0.2-1.4-0.1-5.2-0.1-5.2c-0.3,0.1-0.6,0.2-0.8,0.3c0.4-1.2,0.8-2.4,1.2-3.6
						c-1.2,1.6-2.1,3.3-2.5,4.9c0.4,0,1.4-0.5,1.4-0.5c0,0-0.6,0.7-0.9,1C2.8,17.3,2.1,18.6,2,20c0.4-0.5,0.7-1,1-1.4
						c-0.6,1.5-0.8,3.1-0.5,4.6c0.2-0.4,0.5-0.8,0.7-1.2c0,1.6,0.5,3.2,1.6,4.5C5,26,5.2,25.6,5.3,25.2c0.3,1.9,1.6,3.6,3.5,4.6
						c0-0.6,0-1.1,0-1.7c0.4,0.9,1.3,1.6,2.3,2c1,0.4,2.1,0.7,3.2,0.9c-0.1-0.4-0.1-0.8-0.1-1.2c1.4,0.7,2.6,1.6,3.7,2.6
						c1.1-1,2.4-1.9,3.7-2.6c0,0.4-0.1,0.8-0.1,1.2c1.1-0.2,2.2-0.4,3.2-0.9c1-0.4,1.9-1.1,2.3-2c0,0.6,0,1.1,0,1.7
						c1.9-1,3.2-2.7,3.5-4.6c0.1,0.4,0.3,0.8,0.5,1.2c1.1-1.3,1.6-2.9,1.6-4.5c0.2,0.4,0.5,0.8,0.7,1.2c0.3-1.5,0.1-3.1-0.5-4.6
						c0.3,0.5,0.7,1,1,1.4C33.9,18.6,33.2,17.3,32.3,16.2z"/>
				</g>
			</g>
		</g>
		<g>
			<g>
				<path fill="#BBC7D1" d="M18,28.1"/>
			</g>
		</g>
	</g>
	<g>
		<g>
			<g>
				<ellipse fill="#EA8C26" cx="18" cy="23.9" rx="5.2" ry="2.6"/>
			</g>
		</g>
	</g>
	<g>
		<g>
			<g>
				<g>
					<g>
						<g>
							<g>
								<path fill="#FFFFFF" d="M9.7,13.3c0.3,2,1.8,3.4,3.3,3.2c1.6-0.2,2.7-2,2.4-3.9c-0.3-2-1.7-3.4-3.3-3.2
									C10.5,9.5,9.4,11.3,9.7,13.3z"/>
							</g>
						</g>
					</g>
					<g>
						<g>
							<g>
								<path fill="#3E4347" d="M10.7,15.5c-0.2-0.4-0.4-0.9-0.5-1.5c-0.3-2,0.8-3.7,2.3-3.9c1-0.1,2,0.4,2.6,1.4
									c-0.5-1.4-1.8-2.3-3.1-2.2c-1.6,0.2-2.7,2-2.4,3.9C9.8,14.2,10.2,15,10.7,15.5z"/>
							</g>
						</g>
					</g>
				</g>
				<g>
					<g>
						<g>
							<path fill="#F4C534" d="M10.9,13.6c0,1,0.8,1.8,1.8,1.8c1,0,1.8-0.8,1.8-1.8c0-1-0.8-1.8-1.8-1.8
								C11.7,11.8,10.9,12.6,10.9,13.6z"/>
						</g>
					</g>
				</g>
				<g>
					<g>
						<g>
							<path fill="#3E4347" d="M11.7,13.6c0,0.6,0.5,1,1,1c0.6,0,1-0.5,1-1c0-0.6-0.5-1-1-1C12.2,12.6,11.7,13,11.7,13.6z"/>
						</g>
					</g>
				</g>
				<g>
					<g>
						<g>
							<path fill="#FFFFFF" d="M11.8,12.9c0,0.2,0.2,0.4,0.4,0.4c0.2,0,0.4-0.2,0.4-0.4s-0.2-0.4-0.4-0.4
								C11.9,12.5,11.8,12.7,11.8,12.9z"/>
						</g>
					</g>
				</g>
				<g>
					<g>
						<g>
							<path fill="#FFFFFF" d="M12.8,13.9c0,0.1,0.1,0.2,0.2,0.2c0.1,0,0.2-0.1,0.2-0.2c0-0.1-0.1-0.2-0.2-0.2
								C12.9,13.7,12.8,13.7,12.8,13.9z"/>
						</g>
					</g>
				</g>
			</g>
			<g>
				<g>
					<g>
						<path fill="#3E4347" d="M9,9.4c3.6-2.7,6.2-1.2,6.2-1.2C14.3,3,9,9.4,9,9.4z"/>
					</g>
				</g>
			</g>
		</g>
		<g>
			<g>
				<g>
					<g>
						<g>
							<g>
								<path fill="#FFFFFF" d="M26.3,13.3c-0.3,2-1.8,3.4-3.3,3.2c-1.6-0.2-2.7-2-2.4-3.9c0.3-2,1.7-3.4,3.3-3.2
									C25.5,9.5,26.6,11.3,26.3,13.3z"/>
							</g>
						</g>
					</g>
					<g>
						<g>
							<g>
								<path fill="#3E4347" d="M25.3,15.5c0.2-0.4,0.4-0.9,0.5-1.5c0.3-2-0.8-3.7-2.3-3.9c-1-0.1-2,0.4-2.6,1.4
									c0.5-1.4,1.8-2.3,3.1-2.2c1.6,0.2,2.7,2,2.4,3.9C26.2,14.2,25.8,15,25.3,15.5z"/>
							</g>
						</g>
					</g>
				</g>
				<g>
					<g>
						<g>
							<path fill="#F4C534" d="M25.1,13.6c0,1-0.8,1.8-1.8,1.8c-1,0-1.8-0.8-1.8-1.8c0-1,0.8-1.8,1.8-1.8
								C24.3,11.8,25.1,12.6,25.1,13.6z"/>
						</g>
					</g>
				</g>
				<g>
					<g>
						<g>
							<path fill="#3E4347" d="M24.3,13.6c0,0.6-0.5,1-1,1c-0.6,0-1-0.5-1-1c0-0.6,0.5-1,1-1C23.8,12.6,24.3,13,24.3,13.6z"/>
						</g>
					</g>
				</g>
				<g>
					<g>
						<g>
							<path fill="#FFFFFF" d="M24.2,12.9c0,0.2-0.2,0.4-0.4,0.4c-0.2,0-0.4-0.2-0.4-0.4s0.2-0.4,0.4-0.4
								C24.1,12.5,24.2,12.7,24.2,12.9z"/>
						</g>
					</g>
				</g>
				<g>
					<g>
						<g>
							<path fill="#FFFFFF" d="M23.2,13.9c0,0.1-0.1,0.2-0.2,0.2c-0.1,0-0.2-0.1-0.2-0.2c0-0.1,0.1-0.2,0.2-0.2
								C23.1,13.7,23.2,13.7,23.2,13.9z"/>
						</g>
					</g>
				</g>
			</g>
			<g>
				<g>
					<g>
						<path fill="#3E4347" d="M27,9.4c-3.6-2.7-6.2-1.2-6.2-1.2C21.7,3,27,9.4,27,9.4z"/>
					</g>
				</g>
			</g>
		</g>
	</g>
	<g>
		<g>
			<g>
				<g>
					<path fill="#F29A2E" d="M24.8,21.9c0,0.5-0.4,0.9-1.1,1.2c-1.2,0.6-2.2,1.4-2.8,2.6c-0.7,1.4-1.7,2.4-2.3,3
						c-0.3,0.3-0.8,0.3-1.1,0c-0.6-0.6-1.6-1.7-2.3-3c-0.6-1.2-1.7-2-2.8-2.6c-0.7-0.3-1.1-0.8-1.1-1.2c0-0.6,0.8-1.2,2.1-1.6
						c0.8-0.3,1.5-0.8,1.9-1.5c0.7-1.3,1.7-2,2.8-2c1.1,0,2.1,0.7,2.8,2c0.4,0.7,1.1,1.3,1.9,1.5C24,20.7,24.8,21.2,24.8,21.9z"/>
				</g>
			</g>
		</g>
	</g>
	<g>
		<g>
			<g>
				<g>
					<path fill="#7A5B44" d="M17.1,23c-0.6-0.7-1.5-1.6-1.3-2.5C16.7,20.2,16.9,22.1,17.1,23z"/>
				</g>
			</g>
			<g>
				<g>
					<path fill="#7A5B44" d="M18.9,23c0.2-0.9,0.5-2.8,1.3-2.5C20.4,21.4,19.5,22.3,18.9,23z"/>
				</g>
			</g>
		</g>
	</g>
	<g>
		<g>
			<g>
				<path fill="#EF9029" d="M24.8,21.9c0-0.6-0.8-1.2-2.1-1.6c-0.8-0.2-1.5-0.8-1.9-1.5c-0.6-1.1-1.4-1.8-2.4-1.9
					c2.1,1.5,1.4,3.5,3.8,4.5c1.4,0.6-1.8,2.4-2.8,4.8c-0.8,1.8-1.1,2.6-2.2,2.4c0.1,0.1,0.2,0.2,0.2,0.3c0.3,0.3,0.8,0.3,1.1,0
					c0.6-0.6,1.6-1.7,2.3-3c0.6-1.2,1.7-2,2.8-2.6C24.4,22.7,24.8,22.3,24.8,21.9z"/>
			</g>
		</g>
	</g>
</g>
</svg>
