<?xml version="1.0" encoding="utf-8"?>
<!-- Generator: Adobe Illustrator 18.0.0, SVG Export Plug-In . SVG Version: 6.00 Build 0)  -->
<!DOCTYPE svg PUBLIC "-//W3C//DTD SVG 1.1//EN" "http://www.w3.org/Graphics/SVG/1.1/DTD/svg11.dtd">
<svg version="1.1" id="Layer_1" xmlns="http://www.w3.org/2000/svg" xmlns:xlink="http://www.w3.org/1999/xlink" x="0px" y="0px"
	 viewBox="0 0 36 36" enable-background="new 0 0 36 36" xml:space="preserve">
<g>
	<g id="XMLID_1498_">
		<g id="XMLID_1519_">
			<g>
				<path fill="#88664D" d="M31.2,13c-2.2-0.7-4.8,1.3-5.6,4.4s0.3,6.2,2.5,6.9s4.8-1.3,5.6-4.4C34.6,16.8,33.4,13.7,31.2,13z"/>
			</g>
		</g>
		<g id="XMLID_1518_">
			<g>
				<path fill="#FDE7AA" d="M32.4,19.5c-0.6,2.2-2.4,3.7-3.9,3.2c-1.5-0.5-2.3-2.7-1.7-4.9c0.6-2.2,2.4-3.7,3.9-3.2
					C32.3,15.1,33,17.3,32.4,19.5z"/>
			</g>
		</g>
		<g id="XMLID_1516_">
			<g id="XMLID_1517_">
				<g>
					<path fill="#88664D" d="M4.8,13c2.2-0.7,4.8,1.3,5.6,4.4s-0.3,6.2-2.5,6.9S3.1,23,2.3,19.9S2.6,13.7,4.8,13z"/>
				</g>
			</g>
		</g>
		<g id="XMLID_1515_">
			<g>
				<path fill="#FDE7AA" d="M3.6,19.5c0.6,2.2,2.4,3.7,3.9,3.2C9,22.2,9.8,20,9.2,17.8c-0.6-2.2-2.4-3.7-3.9-3.2S3,17.3,3.6,19.5z"
					/>
			</g>
		</g>
		<g id="XMLID_1513_">
			<g>
				<path fill="#88664D" d="M29.8,16c0-4.6-3.3-8.6-8-10c0.6-0.3,1.2-0.5,1.9-0.6c-1.1-0.6-2.4-0.5-3.4,0.2c0.8-0.8,1.9-1.3,3.1-1.4
					c-1.7-0.8-3.5-0.3-4.5,0.9c0.9-1.5,2.5-2.5,4.4-2.6c-2.6-1.3-5.4,0.1-6.2,2.6c-0.8-1.2-2.4-1.8-3.9-1.1c1,0.1,1.9,0.5,2.6,1.2
					c-0.8-0.5-1.8-0.7-2.8-0.2c0.7,0,1.4,0.3,1.9,0.7C9.8,7,6.2,11.1,6.2,16c0,2,0.7,3.9,1.8,5.6c-0.3,0.9-0.5,1.9-0.5,3
					c0,5.2,4.7,9.5,10.6,9.5s10.6-4.2,10.6-9.5c0-1-0.2-2-0.5-3C29.2,19.9,29.8,18,29.8,16z"/>
			</g>
		</g>
		<g id="XMLID_1512_">
			<g>
				<path fill="#FDE7AA" d="M25.5,17.4c-0.1,0.9-0.5,1.6-1,2.3c-0.9,1-1.4,2.2-1.4,3.6v0c0,0.7,0.1,1.3,0.4,1.9
					c0.1,0.3,0.2,0.6,0.2,1c0,1.8-1.4,3.3-3.2,3.3c-0.4,0-0.8-0.1-1.2-0.2c-0.8-0.3-1.6-0.3-2.4,0c-0.4,0.2-0.8,0.2-1.2,0.2
					c-1.8,0-3.2-1.5-3.2-3.3c0-0.3,0.1-0.7,0.2-1c0.2-0.6,0.4-1.2,0.4-1.9v-0.1c0-1.3-0.5-2.6-1.4-3.6c-0.5-0.6-0.9-1.4-1-2.3
					c-0.3-2.6,1.7-4.7,4.2-4.7c0.3,0,0.6,0,0.8,0.1c1.6,0.3,3.2,0.3,4.8,0c0.3-0.1,0.6-0.1,0.8-0.1C23.7,12.7,25.7,14.9,25.5,17.4z"
					/>
			</g>
		</g>
		<g id="XMLID_1511_">
			<g>
				<path fill="#FDE7AA" d="M20.4,30.2c-0.5,0-1-0.1-1.5-0.3c-0.3-0.1-0.6-0.2-0.9-0.2c-0.3,0-0.6,0.1-0.9,0.2
					c-0.5,0.2-1,0.3-1.5,0.3c-0.8,0-1.6-0.3-2.3-0.7c0.7,1.7,2.6,2.9,4.7,2.9c2.1,0,4-1.2,4.7-2.9C22.1,29.9,21.3,30.2,20.4,30.2z"
					/>
			</g>
		</g>
		<g id="XMLID_1504_">
			<g>
				<path fill="#3E4347" d="M21.1,25.7c0.3,0.3,0.3,0.7,0,1c-0.3,0.3-0.7,0.3-1,0c-0.3-0.3-1.1-1.5-0.8-1.8S20.8,25.4,21.1,25.7z"/>
			</g>
		</g>
		<g id="XMLID_1503_">
			<g>
				<path fill="#3E4347" d="M14.9,25.7c-0.3,0.3-0.3,0.7,0,1s0.7,0.3,1,0c0.3-0.3,1.1-1.5,0.8-1.8C16.4,24.6,15.2,25.4,14.9,25.7z"
					/>
			</g>
		</g>
	</g>
	<g>
		<g>
			<g>
				<g>
					<g>
						<g>
							<path fill="#3E4347" d="M23.6,17c0,1-0.8,1.8-1.8,1.8c-1,0-1.8-0.8-1.8-1.8c0-1,0.8-1.8,1.8-1.8C22.8,15.2,23.6,16,23.6,17z"
								/>
						</g>
					</g>
				</g>
			</g>
			<g>
				<g id="XMLID_1505_">
					<g>
						<circle fill="#FFFFFF" cx="21" cy="16.3" r="0.4"/>
					</g>
				</g>
			</g>
		</g>
		<g>
			<g>
				<g>
					<g>
						<g>
							<path fill="#3E4347" d="M16.1,17c0,1-0.8,1.8-1.8,1.8c-1,0-1.8-0.8-1.8-1.8c0-1,0.8-1.8,1.8-1.8C15.3,15.2,16.1,16,16.1,17z"
								/>
						</g>
					</g>
				</g>
			</g>
			<g>
				<g id="XMLID_1_">
					<g>
						<circle fill="#FFFFFF" cx="13.5" cy="16.3" r="0.4"/>
					</g>
				</g>
			</g>
		</g>
	</g>
</g>
</svg>
