<?xml version="1.0" encoding="utf-8"?>
<!-- Generator: Adobe Illustrator 18.0.0, SVG Export Plug-In . SVG Version: 6.00 Build 0)  -->
<!DOCTYPE svg PUBLIC "-//W3C//DTD SVG 1.1//EN" "http://www.w3.org/Graphics/SVG/1.1/DTD/svg11.dtd">
<svg version="1.1" id="Layer_1" xmlns="http://www.w3.org/2000/svg" xmlns:xlink="http://www.w3.org/1999/xlink" x="0px" y="0px"
	 viewBox="0 0 36 36" enable-background="new 0 0 36 36" xml:space="preserve">
<g>
	<g>
		<g>
			<g>
				<g>
					<g>
						<path fill="#F4C534" d="M23.8,8.9c0.2-0.4,0.6-1.6,1-2.5c-0.7-0.3-1.4-0.6-2-1.1c-0.3,0.6-0.7,1.5-1.1,2.3
							c-0.5,0.9-1.3,1.7-2.3,2.1c-1.5,0.7,5.4,1.3,5.4,1.3S23.5,9.8,23.8,8.9z"/>
					</g>
				</g>
			</g>
			<g>
				<g>
					<g>
						<path fill="#6D4135" d="M24.5,4.6c1,0.5,1.5,1.2,1.1,1.9c-0.3,0.7-1.1,0.8-2.1,0.4c-1-0.5-1.5-1.2-1.1-1.9
							C22.7,4.2,23.5,4.1,24.5,4.6z"/>
					</g>
				</g>
			</g>
		</g>
		<g>
			<g>
				<g>
					<g>
						<path fill="#F4C534" d="M12.2,8.9c-0.2-0.4-0.6-1.6-1-2.5c0.7-0.3,1.4-0.6,2-1.1c0.3,0.6,0.7,1.5,1.1,2.3
							c0.5,0.9,1.3,1.7,2.3,2.1c1.5,0.7-5.4,1.3-5.4,1.3S12.5,9.8,12.2,8.9z"/>
					</g>
				</g>
			</g>
			<g>
				<g>
					<g>
						<path fill="#6D4135" d="M11.5,4.6c-1,0.5-1.5,1.2-1.1,1.9c0.3,0.7,1.1,0.8,2.1,0.4c1-0.5,1.5-1.2,1.1-1.9
							C13.3,4.2,12.5,4.1,11.5,4.6z"/>
					</g>
				</g>
			</g>
		</g>
	</g>
	<g>
		<g>
			<g>
				<g>
					<g>
						<g>
							<path fill="#F4C534" d="M23,14.3c-0.2-3.2,3.8-4.3,5.7-5c3.4-1.2,3.1-1.9,4-2.4c0.4-0.3,0.8-0.2,1,0.5C33.9,8.2,34,9,34,9.8
								c0,1.5-0.9,2.9-2.1,3.9c-1.2,1-2.7,1.5-4.3,1.6C26.1,15.4,24.4,14.9,23,14.3z"/>
						</g>
					</g>
				</g>
				<g>
					<g>
						<g>
							<path fill="#FC97B2" d="M24.5,13.8c0.2-1.7,2.4-2.3,3.3-2.5c2.8-0.7,4.7-2.2,5.3-3.4c0,0,1.3,3-1.5,5.2
								C27.7,15.9,24.5,13.8,24.5,13.8z"/>
						</g>
					</g>
				</g>
				<g>
					<g>
						<path fill="#E88EA7" d="M33,7.9c-0.6,1.2-2.4,2.7-5.3,3.4c-0.9,0.2-3.1,0.8-3.3,2.5c0,0,1,0.6,2.6,0.7
							c-0.3-0.1-0.6-0.3-0.9-0.4c-0.9-0.5,0.3-0.3,1.1-0.5s-0.4-0.4-1.1-0.4c-0.7,0,0.1-0.7,2.2-1.4C30.4,11.2,32.4,9.5,33,7.9z"/>
					</g>
				</g>
			</g>
			<g>
				<g>
					<path fill="#E9B02C" d="M30.9,14c-3.6,2.1-7.4,0.5-7.9,0.3c0,0,0,0,0,0c1.4,0.6,3.1,1.1,4.7,1c1.5-0.1,3.1-0.6,4.3-1.6
						c1.2-1,2.1-2.4,2.1-3.9c0-0.6-0.1-1.2-0.2-1.8C33.9,9.1,34.1,12.2,30.9,14z"/>
				</g>
			</g>
		</g>
		<g>
			<g>
				<g>
					<g>
						<g>
							<path fill="#F4C534" d="M13,14.3c0.2-3.2-3.8-4.3-5.7-5C4,8.2,4.2,7.5,3.3,6.9c-0.4-0.3-0.8-0.2-1,0.5C2.1,8.2,2,9,2,9.8
								c0,1.5,0.9,2.9,2.1,3.9s2.7,1.5,4.3,1.6S11.6,14.9,13,14.3z"/>
						</g>
					</g>
				</g>
				<g>
					<g>
						<g>
							<path fill="#FC97B2" d="M11.5,13.8c-0.2-1.7-2.4-2.3-3.3-2.5C5.4,10.5,3.5,9.1,3,7.9c0,0-1.3,3,1.5,5.2
								C8.3,15.9,11.5,13.8,11.5,13.8z"/>
						</g>
					</g>
				</g>
				<g>
					<g>
						<path fill="#E88EA7" d="M3,7.9c0.6,1.2,2.4,2.7,5.3,3.4c0.9,0.2,3.1,0.8,3.3,2.5c0,0-1,0.6-2.6,0.7c0.3-0.1,0.6-0.3,0.9-0.4
							c0.9-0.5-0.3-0.3-1.1-0.5s0.4-0.4,1.1-0.4c0.7,0-0.1-0.7-2.2-1.4C5.6,11.2,3.6,9.5,3,7.9z"/>
					</g>
				</g>
			</g>
			<g>
				<g>
					<path fill="#E9B02C" d="M5.1,14c3.6,2.1,7.4,0.5,7.9,0.3c0,0,0,0,0,0c-1.4,0.6-3.1,1.1-4.7,1c-1.5-0.1-3.1-0.6-4.3-1.6
						C2.9,12.7,2,11.3,2,9.8C2,9.2,2.1,8.6,2.2,8C2.1,9.1,1.9,12.2,5.1,14z"/>
				</g>
			</g>
		</g>
	</g>
	<g>
		<g>
			<g>
				<g>
					<path fill="#F4C534" d="M27.3,19.2C27,24.9,22.8,30.4,18,30.4s-9-5.5-9.3-11.2C8.3,10.9,12.5,8.8,18,8.8S27.7,10.9,27.3,19.2z"
						/>
				</g>
			</g>
		</g>
		<g>
			<g>
				<g>
					<g>
						<g>
							<path fill="#F29A2E" d="M23.1,21.7c0.1-0.6,0.3-1.4,0.8-1.7c0.6-0.4,1.3-0.1,1.3,0.4c0,0.1-0.1,0.2-0.2,0.3
								c-0.3,0.1-0.4,0.1-0.3,0.6C24.9,22.8,23,22.7,23.1,21.7z"/>
						</g>
					</g>
				</g>
				<g>
					<g>
						<g>
							<path fill="#F29A2E" d="M25.8,23.2c-0.2,0.2-0.7,0.2-0.9-0.3c-0.2-0.6,0.3-1,0.6-0.8C25.8,22.2,26,22.9,25.8,23.2z"/>
						</g>
					</g>
				</g>
				<g>
					<g>
						<g>
							<path fill="#F29A2E" d="M26.1,19.5c0.3-0.4,0.6-0.3,0.7,0.1c0.1,0.4-0.1,0.7-0.3,1c-0.4,0.8-1.1,0.5-1,0
								C25.6,20.3,25.8,19.8,26.1,19.5z"/>
						</g>
					</g>
				</g>
				<g>
					<g>
						<g>
							<path fill="#F29A2E" d="M26.7,17.1c-0.1,0.2-0.2,0.5-0.4,0.7c-0.8,1-1.8-0.1-1.1-0.8C25.7,16.4,27.2,15.9,26.7,17.1z"/>
						</g>
					</g>
				</g>
			</g>
			<g>
				<g>
					<g>
						<g>
							<path fill="#F29A2E" d="M12.9,21.7c-0.1-0.6-0.3-1.4-0.8-1.7c-0.6-0.4-1.3-0.1-1.3,0.4c0,0.1,0.1,0.2,0.2,0.3
								c0.3,0.1,0.4,0.1,0.3,0.6C11.1,22.8,13,22.7,12.9,21.7z"/>
						</g>
					</g>
				</g>
				<g>
					<g>
						<g>
							<path fill="#F29A2E" d="M10.2,23.2c0.2,0.2,0.7,0.2,0.9-0.3c0.2-0.6-0.3-1-0.6-0.8C10.2,22.2,10,22.9,10.2,23.2z"/>
						</g>
					</g>
				</g>
				<g>
					<g>
						<g>
							<path fill="#F29A2E" d="M9.9,19.5c-0.3-0.4-0.6-0.3-0.7,0.1c-0.1,0.4,0.1,0.7,0.3,1c0.4,0.8,1.1,0.5,1,0
								C10.4,20.3,10.2,19.8,9.9,19.5z"/>
						</g>
					</g>
				</g>
				<g>
					<g>
						<g>
							<path fill="#F29A2E" d="M9.3,17.1c0.1,0.2,0.2,0.5,0.4,0.7c0.8,1,1.8-0.1,1.1-0.8C10.3,16.4,8.8,15.9,9.3,17.1z"/>
						</g>
					</g>
				</g>
			</g>
		</g>
		<g>
			<g>
				<g>
					<g>
						<path fill="#6D4135" d="M25.5,26c0.1,3.6-2.9,5.8-7.5,5.7c-4.7,0.1-7.6-2.2-7.5-5.7c-0.1-3.6,2.9-5.8,7.5-5.7
							C22.7,20.2,25.6,22.4,25.5,26z"/>
					</g>
				</g>
			</g>
			<g opacity="0.5">
				<g>
					<g>
						<path fill="#633B2A" d="M25.5,26.1c0,3.5-2.9,5.7-7.5,5.6c-4.6,0.1-7.5-2.1-7.5-5.6c0,2.9,2.9,4.7,7.5,4.7
							C22.6,30.8,25.5,29,25.5,26.1z"/>
					</g>
				</g>
			</g>
			<g>
				<g>
					<g>
						<g>
							<g>
								<path fill="#633B2A" d="M22.6,24.7c-1,0.7-2.8,0.7-2.8,0.7s0.5-1.8,1.5-2.5c1-0.7,1.6-0.6,2-0.1
									C23.7,23.3,23.6,24,22.6,24.7z"/>
							</g>
						</g>
					</g>
					<g>
						<g>
							<g>
								<path fill="#5B331D" d="M23.1,24.3c0-0.2-0.1-0.3-0.2-0.4c-0.3-0.4-0.8-0.5-1.5,0.1c-0.6,0.5-1.4,1.2-1.6,1.4
									c0.1-0.3,0.6-1.8,1.5-2.4c1-0.7,1.6-0.6,2-0.1C23.6,23.2,23.6,23.8,23.1,24.3z"/>
							</g>
						</g>
					</g>
				</g>
				<g>
					<g>
						<g>
							<g>
								<path fill="#633B2A" d="M13.4,24.7c1,0.7,2.8,0.7,2.8,0.7s-0.5-1.8-1.5-2.5s-1.6-0.6-2-0.1C12.3,23.3,12.4,24,13.4,24.7z"/>
							</g>
						</g>
					</g>
					<g>
						<g>
							<g>
								<path fill="#5B331D" d="M12.9,24.3c0-0.2,0.1-0.3,0.2-0.4c0.3-0.4,0.8-0.5,1.5,0.1c0.6,0.5,1.4,1.2,1.6,1.4
									c-0.1-0.3-0.6-1.8-1.5-2.4c-1-0.7-1.6-0.6-2-0.1C12.4,23.2,12.4,23.8,12.9,24.3z"/>
							</g>
						</g>
					</g>
				</g>
			</g>
			<g>
				<g>
					<g>
						<g>
							<g>
								<path fill="#5B331D" d="M23.6,28.2c-0.4,0-0.7-0.3-0.9-0.5c-1.2,1.2-2.9,2-4.7,2c-1.7,0-3.3-0.6-4.7-2
									c0,0.1-0.5,0.5-0.9,0.5c0,0,1.3-1.4,1.3-1.4c0,0.2,0,0.5-0.3,0.9c1,0.5,2.7,1.4,4.7,1.4c1.7,0,3.3-0.7,4.7-1.4
									c-0.2-0.4-0.3-0.7-0.3-0.9C23.2,27.7,22.7,27.2,23.6,28.2z"/>
							</g>
						</g>
					</g>
				</g>
			</g>
		</g>
		<g>
			<g>
				<g>
					<g>
						<g>
							<g>
								<path fill="#F29A2E" d="M24.3,17.5c-0.4,2.2-1.6,2.6-2.9,2.4c-1.3-0.3-2.3-1.1-1.8-3.3c0.4-2.2,1.4-4.1,2.7-3.8
									C23.6,13,24.8,15.3,24.3,17.5z"/>
							</g>
						</g>
					</g>
					<g>
						<g>
							<g>
								<path fill="#FFFFFF" d="M24.2,17.8c-0.4,2-1.5,2.4-2.8,2.1c-1.3-0.2-2.2-1-1.8-3c0.4-2,1.3-3.7,2.6-3.5S24.6,15.7,24.2,17.8
									z"/>
							</g>
						</g>
					</g>
				</g>
				<g>
					<g>
						<g>
							<g>
								<path fill="#65B1EF" d="M23.3,17.5c0,1.1-0.7,1.9-1.5,1.9c-0.8,0-1.5-0.9-1.5-1.9c0-1.1,0.7-1.9,1.5-1.9
									C22.6,15.5,23.3,16.4,23.3,17.5z"/>
							</g>
						</g>
					</g>
					<g>
						<g>
							<g>
								<path fill="#3E4347" d="M22.7,17.7c0,0.6-0.4,1.2-0.9,1.2s-0.9-0.5-0.9-1.2c0-0.6,0.4-1.1,0.9-1.1S22.7,17.1,22.7,17.7z"/>
							</g>
						</g>
					</g>
					<g>
						<g>
							<g>
								<circle fill="#FFFFFF" cx="22.5" cy="17" r="0.4"/>
							</g>
						</g>
					</g>
				</g>
			</g>
			<g>
				<g>
					<g>
						<g>
							<g>
								<path fill="#F29A2E" d="M11.7,17.5c0.4,2.2,1.6,2.6,2.9,2.4c1.3-0.3,2.3-1.1,1.8-3.3c-0.4-2.2-1.4-4.1-2.7-3.8
									S11.2,15.3,11.7,17.5z"/>
							</g>
						</g>
					</g>
					<g>
						<g>
							<g>
								<path fill="#FFFFFF" d="M11.8,17.8c0.4,2,1.5,2.4,2.8,2.1c1.3-0.2,2.2-1,1.8-3c-0.4-2-1.3-3.7-2.6-3.5S11.4,15.7,11.8,17.8z
									"/>
							</g>
						</g>
					</g>
				</g>
				<g>
					<g>
						<g>
							<g>
								<path fill="#65B1EF" d="M15.8,17.5c0,1.1-0.7,1.9-1.5,1.9c-0.8,0-1.5-0.9-1.5-1.9c0-1.1,0.7-1.9,1.5-1.9
									C15.1,15.5,15.8,16.4,15.8,17.5z"/>
							</g>
						</g>
					</g>
					<g>
						<g>
							<g>
								<path fill="#3E4347" d="M15.1,17.7c0,0.6-0.4,1.2-0.9,1.2s-0.9-0.5-0.9-1.2c0-0.6,0.4-1.1,0.9-1.1S15.1,17.1,15.1,17.7z"/>
							</g>
						</g>
					</g>
					<g>
						<g>
							<g>
								<circle fill="#FFFFFF" cx="14.9" cy="17" r="0.4"/>
							</g>
						</g>
					</g>
				</g>
			</g>
		</g>
		<g>
			<g>
				<g>
					<path fill="#F29A2E" d="M19.9,11.6c0.6-0.4,1.3,0.1,0.6,0.7C19.2,13.7,18.9,12.3,19.9,11.6z"/>
				</g>
			</g>
		</g>
		<g>
			<g>
				<g>
					<path fill="#F29A2E" d="M16.1,13.2C16,12.8,16,12.4,16.2,12c0.2-0.5,0.7-0.5,0.8-0.2c0.1,0.2,0,0.4,0.1,0.6
						C17.5,14.4,16.4,14,16.1,13.2z"/>
				</g>
			</g>
		</g>
		<g>
			<g>
				<g>
					<path fill="#F29A2E" d="M18.9,11.3c-0.5,0.5-1.3,0.4-1-0.6C18.3,9.5,19.6,10.5,18.9,11.3z"/>
				</g>
			</g>
		</g>
		<g>
			<g>
				<g>
					<path fill="#F29A2E" d="M14.9,10.8c-0.6,0-0.8-0.9,0.8-1C17.5,9.8,16.4,10.9,14.9,10.8z"/>
				</g>
			</g>
		</g>
		<g>
			<g>
				<g>
					<path fill="#F29A2E" d="M20.5,10.4c-0.2-0.6,0.2-1,1.3-0.1C23.1,11.3,20.7,11.2,20.5,10.4z"/>
				</g>
			</g>
		</g>
	</g>
</g>
</svg>
