<?xml version="1.0" encoding="utf-8"?>
<!-- Generator: Adobe Illustrator 18.0.0, SVG Export Plug-In . SVG Version: 6.00 Build 0)  -->
<!DOCTYPE svg PUBLIC "-//W3C//DTD SVG 1.1//EN" "http://www.w3.org/Graphics/SVG/1.1/DTD/svg11.dtd">
<svg version="1.1" id="Layer_1" xmlns="http://www.w3.org/2000/svg" xmlns:xlink="http://www.w3.org/1999/xlink" x="0px" y="0px"
	 viewBox="0 0 36 36" enable-background="new 0 0 36 36" xml:space="preserve">
<g>
	<g>
		<g>
			<g>
				<g>
					<g>
						<g>
							<path fill="#F4C534" d="M26.2,9.4c1.1-3.7,4.2-3.9,6.5-1.8c4.8,4.4-5.1,8.2-6.1,7.6C25.5,14.5,25.7,10.9,26.2,9.4z"/>
						</g>
					</g>
				</g>
				<g>
					<g>
						<g>
							<path fill="#E9B02C" d="M27.6,10.6c0.7-2.3,2.8-2.5,4.2-1.3c3,2.6-3.3,5.2-4,4.9C27.1,13.9,27.3,11.6,27.6,10.6z"/>
						</g>
					</g>
				</g>
				<g>
					<g>
						<g>
							<path fill="#DE9C25" d="M32,9.6c-1.4-0.9-3.1-0.5-3.8,1.6c-0.2,0.7-0.4,2.3-0.1,3.1c-0.1,0-0.3,0-0.3,0
								c-0.7-0.4-0.5-2.7-0.2-3.6c0.7-2.3,2.8-2.5,4.2-1.3C31.9,9.5,32,9.5,32,9.6z"/>
						</g>
					</g>
				</g>
			</g>
		</g>
		<g>
			<g>
				<g>
					<g>
						<g>
							<path fill="#F4C534" d="M9.8,9.4C8.7,5.7,5.6,5.5,3.3,7.6c-4.8,4.4,5.1,8.2,6.1,7.6C10.5,14.5,10.3,10.9,9.8,9.4z"/>
						</g>
					</g>
				</g>
				<g>
					<g>
						<g>
							<path fill="#E9B02C" d="M8.4,10.6C7.6,8.3,5.6,8.1,4.2,9.4c-3,2.6,3.3,5.2,4,4.9C8.9,13.9,8.7,11.6,8.4,10.6z"/>
						</g>
					</g>
				</g>
				<g>
					<g>
						<g>
							<path fill="#DE9C25" d="M4,9.6c1.4-0.9,3.1-0.5,3.8,1.6c0.2,0.7,0.4,2.3,0.1,3.1c0.1,0,0.3,0,0.3,0c0.7-0.4,0.5-2.7,0.2-3.6
								C7.7,8.3,5.6,8.1,4.2,9.4C4.1,9.5,4,9.5,4,9.6z"/>
						</g>
					</g>
				</g>
			</g>
		</g>
	</g>
	<g>
		<g>
			<g>
				<g>
					<g>
						<path fill="#F4C534" d="M27.4,16.9c-1.2,5.5-3.9,7.3-9.4,7.2c-5.4,0.1-8.2-1.7-9.4-7.2C6.4,9,9.1,5.1,18,5.1
							C27,5.1,29.7,9,27.4,16.9z"/>
					</g>
				</g>
			</g>
			<g>
				<g>
					<g>
						<path fill="#F4C534" d="M29.6,17.7c3.1,3.1-0.7,12.1-11.6,12.2C7.1,29.8,3.3,20.7,6.4,17.7c2.5-3.1,5.6,0.5,11.6,0.5
							C24,18.2,27.1,14.5,29.6,17.7z"/>
					</g>
				</g>
			</g>
			<g>
				<g>
					<g>
						<path fill="#F4C534" d="M12.9,26.5c0.1,2.3,2.4,4.1,5.1,4.1c2.8,0,5-1.8,5.1-4.1H12.9z"/>
					</g>
				</g>
			</g>
			<g>
				<g>
					<g>
						<g>
							<path fill="#DAE5EF" d="M13.3,26.1c0.1,1.8,2.2,3.3,4.7,3.3c2.5,0,4.6-1.4,4.7-3.3H13.3z"/>
						</g>
					</g>
				</g>
				<g>
					<g>
						<g>
							<path fill="#FFFFFF" d="M26.1,23.4c0,2.3-2.2,4.1-4.9,4.1c-1.2,0-2.3-0.4-3.2-1c-0.9,0.6-2,1-3.2,1c-2.7,0-4.9-1.8-4.9-4.1
								c0-2.3,2.2-4.1,4.9-4.1c1.2,0,2.3,0.4,3.2,1c0.9-0.6,2-1,3.2-1C23.9,19.3,26.1,21.2,26.1,23.4z"/>
						</g>
					</g>
				</g>
				<g>
					<g>
						<g>
							<g>
								<path fill="#E9EFF4" d="M25.9,24.5c-0.6,1.7-2.5,3-4.7,3c-1.2,0-2.3-0.4-3.2-1c-0.9,0.6-2,1-3.2,1c-2.2,0-4.1-1.3-4.7-3
									c0.7,1.3,2.5,2.2,4.6,2.2c0.2,0,0.5,0,0.7,0c1.4-0.1,2.5-1.4,2.5-2.9c0-0.4,0.1-0.8,0.1-2l0,0c0,1.2,0.1,1.6,0.1,2
									c0,1.5,1.1,2.7,2.5,2.9c0.2,0,0.5,0,0.7,0C23.4,26.7,25.2,25.8,25.9,24.5z"/>
							</g>
						</g>
					</g>
				</g>
				<g>
					<g>
						<g>
							<g>
								<g>
									<path fill="#3E4347" d="M21,19.7c0,1.1-1.3,2-2.2,2.6c-0.5,0.3-1.1,0.3-1.7,0c-0.9-0.5-2.2-1.5-2.2-2.6
										c0-1.7,1.3-2.1,3-2.1C19.7,17.6,21,18,21,19.7z"/>
								</g>
							</g>
						</g>
					</g>
					<g>
						<g>
							<g>
								<g>
									<path fill="#31373A" d="M21,19.7c0,1.1-1.3,2-2.2,2.6c-0.5,0.3-1.1,0.3-1.6,0c-0.8-0.4-1.8-1.2-2.1-2.1
										c0.6,0.4,1.4,0.7,2.3,0.7c1.7,0,3.1-1.1,3.1-2.4c0-0.1,0-0.1,0-0.2C20.8,18.6,21,19,21,19.7z"/>
								</g>
							</g>
						</g>
					</g>
					<g opacity="0.15">
						<g>
							<g>
								<path fill="#FFFFFF" d="M19.3,18.7c0,0.4-0.6,0.8-1.3,0.8c-0.7,0-1.3-0.3-1.3-0.8c0-0.4,0.6-0.8,1.3-0.8
									C18.7,18,19.3,18.3,19.3,18.7z"/>
							</g>
						</g>
					</g>
				</g>
			</g>
			<g>
				<g>
					<g>
						<g>
							<g>
								<path fill="#3E4347" d="M24.3,14.3c0,1.8-0.9,3.3-2.7,3.3c-0.6,0-1.2-0.1-1.7-0.4c-1.2-0.6-2.6-0.6-3.8,0
									c-0.5,0.3-1.1,0.4-1.7,0.4c-1.8,0-2.7-1.5-2.7-3.3c0-1.8,0.9-3.3,2.7-3.3c0.6,0,1.2,0.1,1.7,0.4c1.2,0.6,2.6,0.6,3.8,0
									c0.5-0.3,1.1-0.4,1.7-0.4C23.4,11,24.3,12.5,24.3,14.3z"/>
							</g>
						</g>
					</g>
				</g>
				<g>
					<g>
						<g>
							<g>
								<g>
									<ellipse fill="#FFFFFF" cx="21.2" cy="14.6" rx="2" ry="2.3"/>
								</g>
							</g>
						</g>
						<g>
							<g>
								<g>
									<g>
										<ellipse fill="#65B1EF" cx="21" cy="15" rx="1.2" ry="1.4"/>
									</g>
								</g>
							</g>
							<g>
								<g>
									<g>
										<ellipse fill="#3E4347" cx="21" cy="15" rx="0.6" ry="0.7"/>
									</g>
								</g>
							</g>
						</g>
						<g>
							<g>
								<g>
									<circle fill="#FFFFFF" cx="21.6" cy="14.6" r="0.3"/>
								</g>
							</g>
						</g>
					</g>
					<g>
						<g>
							<g>
								<g>
									<ellipse fill="#FFFFFF" cx="14.8" cy="14.6" rx="2" ry="2.3"/>
								</g>
							</g>
						</g>
						<g>
							<g>
								<g>
									<g>
										<ellipse fill="#65B1EF" cx="15" cy="15" rx="1.2" ry="1.4"/>
									</g>
								</g>
							</g>
							<g>
								<g>
									<g>
										<ellipse fill="#3E4347" cx="15" cy="15" rx="0.6" ry="0.7"/>
									</g>
								</g>
							</g>
						</g>
						<g>
							<g>
								<g>
									<circle fill="#FFFFFF" cx="15.5" cy="14.6" r="0.3"/>
								</g>
							</g>
						</g>
					</g>
				</g>
				<g>
					<g>
						<g>
							<g>
								<path fill="#E9B02C" d="M20.6,10.1c0,0,3.1-0.1,4.1,2.2C24.4,10,21.3,8,20.6,10.1z"/>
							</g>
						</g>
					</g>
					<g>
						<g>
							<g>
								<path fill="#E9B02C" d="M15.4,10.1c0,0-3.1-0.1-4.1,2.2C11.7,10,14.8,8,15.4,10.1z"/>
							</g>
						</g>
					</g>
				</g>
			</g>
			<g>
				<g>
					<g>
						<g>
							<path fill="#E9B02C" d="M13.2,27.7c0.5,1,1.5,1.9,2.8,2.4c1.3,0.5,3,0.5,4.2,0c1.3-0.5,2.3-1.4,2.8-2.4
								c-0.2,0.9-1.2,2.2-2.6,2.8c-1.5,0.6-3.2,0.6-4.5,0C14.4,29.9,13.4,28.6,13.2,27.7z"/>
						</g>
					</g>
				</g>
				<g>
					<g>
						<g>
							<path fill="#E9B02C" d="M12.4,17.2c-0.7-0.1-2.3-0.4-3-0.3c-0.6,0-1.1,0-1.7,0.2c-1,0.3-1.7,0.8-2.1,2.1
								c-0.2,0.7-0.2,0.9-0.3,1.5c-0.1-0.5-0.1-1,0-1.5c0.3-1.5,1-2.1,2.2-2.5c0.6-0.2,1.3-0.2,1.8-0.2
								C10.2,16.4,11.7,16.9,12.4,17.2z"/>
						</g>
					</g>
					<g>
						<g>
							<path fill="#E9B02C" d="M30.6,20.7c-0.1-0.7-0.2-1.5-0.5-2.1c-0.5-1-1.6-1.6-2.7-1.6c-1.3-0.2-2.9,0.2-3.9,0.3
								c1.1-0.4,2.7-0.9,3.9-0.8c0.6,0,1.3,0.2,1.8,0.6c0.6,0.4,1,0.9,1.1,1.4C30.7,19.1,30.7,19.9,30.6,20.7z"/>
						</g>
					</g>
				</g>
			</g>
			<g>
				<g>
					<g>
						<g>
							<path fill="#3E4347" d="M27.9,20.2c0.2,1.7,1.3,2.7,2,3.2c0.2-0.4,0.4-0.9,0.5-1.3C29.1,21.7,27.9,20.2,27.9,20.2z"/>
						</g>
					</g>
					<g>
						<g>
							<path fill="#3E4347" d="M26.8,27.1c-0.2-1.3-0.8-2.2-0.8-2.2s0.1,1.7-0.6,3.1C25.9,27.7,26.4,27.4,26.8,27.1z"/>
						</g>
					</g>
					<g>
						<g>
							<path fill="#3E4347" d="M27.2,23.5c0,0,0.6,1.2,1,2.4c0.4-0.4,0.7-0.8,1-1.2C28.5,24.2,27.9,23.8,27.2,23.5z"/>
						</g>
					</g>
				</g>
				<g>
					<g>
						<g>
							<path fill="#3E4347" d="M5.6,22.1c0.1,0.4,0.3,0.9,0.5,1.3c0.7-0.5,1.9-1.4,2-3.2C8.1,20.2,6.9,21.7,5.6,22.1z"/>
						</g>
					</g>
					<g>
						<g>
							<path fill="#3E4347" d="M9.2,27.1c0.4,0.3,0.9,0.6,1.4,0.9c-0.7-1.4-0.6-3.1-0.6-3.1S9.3,25.8,9.2,27.1z"/>
						</g>
					</g>
					<g>
						<g>
							<path fill="#3E4347" d="M6.8,24.7c0.3,0.4,0.6,0.8,1,1.2c0.3-1.2,1-2.4,1-2.4C8.1,23.8,7.5,24.2,6.8,24.7z"/>
						</g>
					</g>
				</g>
			</g>
		</g>
	</g>
	<g>
		<g>
			<path fill="#3E4347" d="M21.6,5.4C20.3,6.9,20,9,20,9c0.9-1.6,2.5-2.7,3.5-3.3C22.9,5.6,22.3,5.5,21.6,5.4z"/>
		</g>
	</g>
	<g>
		<g>
			<path fill="#3E4347" d="M19.7,5.1c-0.5,0-1.1-0.1-1.7-0.1c-0.1,0-0.2,0-0.4,0c0.5,1,1.1,2.7,0.9,4.4C18.5,9.5,19.5,7.4,19.7,5.1z
				"/>
		</g>
	</g>
	<g>
		<g>
			<path fill="#3E4347" d="M17.2,8.8c-0.6-1-0.8-2.5-0.9-3.7c-0.7,0-1.3,0.1-1.9,0.2C15.1,7.3,17.2,8.8,17.2,8.8z"/>
		</g>
	</g>
</g>
</svg>
