<?xml version="1.0" encoding="utf-8"?>
<!-- Generator: Adobe Illustrator 18.0.0, SVG Export Plug-In . SVG Version: 6.00 Build 0)  -->
<!DOCTYPE svg PUBLIC "-//W3C//DTD SVG 1.1//EN" "http://www.w3.org/Graphics/SVG/1.1/DTD/svg11.dtd">
<svg version="1.1" id="Layer_1" xmlns="http://www.w3.org/2000/svg" xmlns:xlink="http://www.w3.org/1999/xlink" x="0px" y="0px"
	 viewBox="0 0 36 36" enable-background="new 0 0 36 36" xml:space="preserve">
<g>
	<g>
		<g>
			<g>
				<g>
					<g>
						<path fill="#5A5F63" d="M32.5,13.4c-1.9,1.9-6.2,3.4-7.9,1.7c-1.7-1.7-0.2-6.1,1.7-8s4.9-2.1,6.6-0.3S34.4,11.4,32.5,13.4z"/>
					</g>
				</g>
			</g>
			<g>
				<g>
					<g>
						<path fill="#3E4347" d="M32.1,12.2c-1.1,1.1-3.6,2-4.7,0.9s-0.2-3.6,0.9-4.7s2.9-1.2,3.9-0.1S33.2,11.1,32.1,12.2z"/>
					</g>
				</g>
			</g>
			<g>
				<g>
					<g>
						<path fill="#31373A" d="M28.4,13.5c-0.4-0.1-0.7-0.2-1-0.5c-1-1.1-0.2-3.6,0.9-4.7c1.1-1.1,2.7-1.2,3.8-0.2
							c-0.9-0.2-2,0-2.7,0.8C28.3,10,27.5,12.4,28.4,13.5z"/>
					</g>
				</g>
			</g>
		</g>
		<g>
			<g>
				<g>
					<g>
						<path fill="#5A5F63" d="M3.5,13.4c1.9,1.9,6.2,3.4,7.9,1.7s0.2-6.1-1.7-8S4.9,5,3.2,6.7S1.6,11.4,3.5,13.4z"/>
					</g>
				</g>
			</g>
			<g>
				<g>
					<g>
						<path fill="#3E4347" d="M3.9,12.2c1.1,1.1,3.6,2,4.7,0.9s0.2-3.6-0.9-4.7S4.8,7.2,3.8,8.3S2.8,11.1,3.9,12.2z"/>
					</g>
				</g>
			</g>
			<g>
				<g>
					<g>
						<path fill="#31373A" d="M7.6,13.5c0.4-0.1,0.7-0.2,1-0.5c1-1.1,0.2-3.6-0.9-4.7C6.6,7.3,5,7.2,3.9,8.1c0.9-0.2,2,0,2.7,0.8
							C7.7,10,8.5,12.4,7.6,13.5z"/>
					</g>
				</g>
			</g>
		</g>
	</g>
	<g>
		<g>
			<g>
				<path fill="#CBD6E0" d="M22.9,29.8c-2.9,2-7.1,1.9-9.8,0c-5.6-1.4-8.2-4.9-7.9-9.7C5.4,18.6,6,17.2,6.8,16c0,0,0,0,0,0
					c0.3-0.5,0.7-1,1-1.4c0.7-0.8,1.2-1.8,1.6-3.2c0.9-3.7,3.2-6.7,8.5-6.7c5.3,0,7.6,3,8.5,6.7c0.4,1.5,0.9,2.4,1.6,3.2
					c1,1.1,2.4,3.3,2.7,5.5C31.2,24.4,28.9,28.3,22.9,29.8z"/>
			</g>
		</g>
	</g>
	<g>
		<g>
			<g>
				<g>
					<ellipse fill="#CBD6E0" cx="18" cy="25.9" rx="6.5" ry="4.8"/>
				</g>
			</g>
		</g>
		<g>
			<g>
				<g>
					<g>
						<g>
							<path fill="#3E4347" d="M24.4,13.4c-0.4,2.6-2.3,4.4-4.3,4.4c-0.8,0-1.5-0.3-2.1-0.8c-0.6,0.5-1.3,0.8-2.1,0.8
								c-2,0-3.9-1.8-4.3-4.4c-0.5-3,1.1-5.8,3.6-5.8c1.1,0,2,0.5,2.8,1.3c0.8-0.8,1.7-1.3,2.8-1.3C23.4,7.6,24.9,10.4,24.4,13.4z"
								/>
						</g>
					</g>
				</g>
			</g>
			<g>
				<g>
					<g>
						<g>
							<g>
								
									<ellipse transform="matrix(0.9812 0.1931 -0.1931 0.9812 3.0399 -3.8019)" fill="#FFFFFF" cx="21" cy="13.7" rx="2.1" ry="2.8"/>
							</g>
						</g>
					</g>
					<g>
						<g>
							<g>
								<ellipse fill="#3E4347" cx="20.8" cy="14.5" rx="1.1" ry="1.3"/>
							</g>
						</g>
					</g>
					<g>
						<g>
							<circle fill="#FFFFFF" cx="21.6" cy="13.5" r="0.5"/>
						</g>
					</g>
				</g>
				<g>
					<g>
						<g>
							<g>
								
									<ellipse transform="matrix(-0.9812 0.1931 -0.1931 -0.9812 32.3178 24.2328)" fill="#FFFFFF" cx="15" cy="13.7" rx="2.1" ry="2.8"/>
							</g>
						</g>
					</g>
					<g>
						<g>
							<g>
								<ellipse fill="#3E4347" cx="15.2" cy="14.5" rx="1.1" ry="1.3"/>
							</g>
						</g>
					</g>
					<g>
						<g>
							<circle fill="#FFFFFF" cx="15.8" cy="13.5" r="0.5"/>
						</g>
					</g>
				</g>
			</g>
		</g>
		<g>
			<g>
				<g>
					<g>
						<path fill="#3E4347" d="M21.1,20.7c0,1.1-1.2,2-2.1,2.6c-0.6,0.4-1.3,0.4-1.9,0c-0.9-0.6-2.1-1.5-2.1-2.6c0-1.7,1.4-2,3.1-2
							C19.7,18.7,21.1,19,21.1,20.7z"/>
					</g>
				</g>
			</g>
			<g>
				<g>
					<g>
						<path fill="#31373A" d="M21.1,20.7c0,1.1-1.2,2-2.1,2.6c-0.6,0.4-1.3,0.4-1.9,0c-0.9-0.5-2.1-1.5-2.1-2.6c0-0.1,0-0.2,0-0.3
							c0.4,0.7,1.2,1.2,1.8,1.6c0.6,0.4,1.3,0.4,1.9,0c0.9-0.5,2-1.4,2.1-2.4C21,19.9,21.1,20.3,21.1,20.7z"/>
					</g>
				</g>
			</g>
		</g>
		<g>
			<g>
				<g>
					<g>
						<path fill="#3E4347" d="M25.4,24c-0.1-0.1-0.5-0.4-0.8-0.5c-0.1,0.2-0.7,1.2-1,1.5c-1,1.1-1.8,2-3.5,2.6
							c-1.4,0.3-1.3,0.3-2.4,0.2c-1.4-0.2-2.5-0.7-3.5-1.7c-0.1,0.2-0.1,0.7-0.2,0.9c-0.5-0.6-0.1-1.7,0.7-1.9c0,0-0.3,0.5-0.5,0.9
							c0,0,0,0,0,0.1c1,0.8,2.4,1,3.5,1.2c1.2,0,1.3-0.1,2.1-0.3c1-0.3,2.2-1,3.4-2.2c0.4-0.3,0.8-0.9,1.2-1.3
							c-0.2-0.1-0.5-0.2-0.6-0.2c-0.2,0-0.3-0.1-0.3-0.1c0,0,0.1-0.1,0.3-0.1c0.5-0.1,1.2,0.2,1.4,0.6C25.4,23.8,25.4,24,25.4,24z"
							/>
					</g>
				</g>
			</g>
		</g>
	</g>
	<g>
		<g>
			<g>
				<path fill="#BBC7D1" d="M27,28.1c-1.3,0.9-2.6,1.3-4.1,1.7c-1.3,0.9-3,1.5-4.9,1.5c-1.7,0-3.5-0.5-4.9-1.5
					c-1-0.2-2.5-0.6-4.1-1.7c-2.4-1.6-4-4.3-3.8-8C5.4,18.6,6,17.2,6.8,16c-0.7,1.3-1.1,2.7-1.1,4.2c0.1,3.5,1.6,5.7,3.9,7
					c1.2,0.8,2.7,1.3,4,1.5c1.3,1,2.9,1.4,4.4,1.4c1.6,0,3.1-0.4,4.4-1.4c1.3-0.2,2.8-0.7,4-1.5c2.8-1.7,3.8-4.1,3.8-7
					c0-1.4-0.5-2.9-1.1-4.2c0.9,1.2,1.5,2.6,1.6,4.1C31.1,23.8,29.3,26.6,27,28.1z"/>
			</g>
		</g>
	</g>
</g>
</svg>
