<?xml version="1.0" encoding="utf-8"?>
<!-- Generator: Adobe Illustrator 18.0.0, SVG Export Plug-In . SVG Version: 6.00 Build 0)  -->
<!DOCTYPE svg PUBLIC "-//W3C//DTD SVG 1.1//EN" "http://www.w3.org/Graphics/SVG/1.1/DTD/svg11.dtd">
<svg version="1.1" id="Layer_1" xmlns="http://www.w3.org/2000/svg" xmlns:xlink="http://www.w3.org/1999/xlink" x="0px" y="0px"
	 viewBox="0 0 36 36" enable-background="new 0 0 36 36" xml:space="preserve">
<g>
	<g>
		<g>
			<g>
				<g>
					<g>
						<g>
							<g>
								<path fill="#6B503B" d="M33.4,9.1c1.2,1.9,0.4,4.7-1.9,6.2s-5.1,1.1-6.3-0.8s-0.4-4.7,1.9-6.2S32.2,7.2,33.4,9.1z"/>
							</g>
						</g>
						<g>
							<g>
								<path fill="#5C4533" d="M32,10.6c0.8,1.3,0.3,3.2-1.3,4.2c-1.6,1-3.5,0.8-4.3-0.5s-0.3-3.2,1.3-4.2
									C29.2,9.1,31.1,9.3,32,10.6z"/>
							</g>
						</g>
					</g>
				</g>
			</g>
			<g>
				<g>
					<g>
						<g>
							<g>
								<path fill="#6B503B" d="M2.6,9.1c-1.2,1.9-0.4,4.7,1.9,6.2s5.1,1.1,6.3-0.8s0.4-4.7-1.9-6.2S3.8,7.2,2.6,9.1z"/>
							</g>
						</g>
						<g>
							<g>
								<path fill="#5C4533" d="M4,10.6c-0.8,1.3-0.3,3.2,1.3,4.2s3.5,0.8,4.3-0.5c0.8-1.3,0.3-3.2-1.3-4.2S4.9,9.3,4,10.6z"/>
							</g>
						</g>
					</g>
				</g>
			</g>
		</g>
		<g>
			<g>
				<g>
					<g>
						<g>
							<path fill="#7A5B44" d="M9.2,20h17.7c0.5-0.9,0.9-1.9,1.2-3c1.4-5.4-0.4-11-4.4-11c-0.8,0-1.5,0.2-2.2,0.6
								c-1-0.6-2.2-1-3.5-1s-2.4,0.4-3.4,1C13.9,6.2,13.2,6,12.4,6C8.5,6,6.7,11.6,8,17C8.3,18.1,8.7,19.1,9.2,20z"/>
						</g>
					</g>
				</g>
			</g>
		</g>
		<g>
			<g>
				<g>
					<g>
						<path fill="#FFD93B" d="M18.8,16c-0.1,2.6-1.4,4.2-3,4.2s-3.3-1.7-4-4.2c-0.9-3.3,0.1-6.9,2.6-6.9S18.9,12.6,18.8,16z"/>
					</g>
				</g>
			</g>
			<g>
				<g>
					<g>
						<path fill="#FFD93B" d="M24.2,16c-0.7,2.6-2.5,4.2-4,4.2s-2.9-1.7-3-4.2c-0.1-3.3,1.8-6.9,4.4-6.9S25.2,12.6,24.2,16z"/>
					</g>
				</g>
			</g>
		</g>
		<g>
			<g>
				<g>
					<path fill="#FFD93B" d="M29.7,18.2c3.5,3.2,0.8,14.1-11.8,14.3C5.3,32.4,2.6,21.5,6.1,18.2c2.8-3,6.6-0.7,12-0.9
						C23.5,17.3,26.9,15.2,29.7,18.2z"/>
				</g>
			</g>
		</g>
		<g>
			<g>
				<g>
					<g>
						<path fill="#F4C534" d="M30.7,24.6c-1.3,3.9-5.3,7.8-12.8,7.9c-7.5-0.1-11.6-4-12.8-7.9c1.3,3.4,5.3,6.9,12.8,7
							C25.4,31.5,29.5,28,30.7,24.6z"/>
					</g>
				</g>
			</g>
			<g>
				<g>
					<g>
						<path fill="#F4C534" d="M4.7,22.2c0,0.8,0.2,1.5,0.4,2.3C4.8,23.7,4.7,22.9,4.7,22.2z"/>
					</g>
				</g>
				<g>
					<g>
						<path fill="#3E4347" d="M31.1,22.2c0,0.8-0.1,1.6-0.4,2.4C31,23.8,31.1,23,31.1,22.2z"/>
					</g>
				</g>
			</g>
		</g>
		<g>
			<g>
				<g>
					<path fill="#7A5B44" d="M15.7,7.7c-0.2-0.6-0.1-1.1,0.1-1.7c-0.2-0.4-0.6-0.8-1-1C15.4,5,16,5.2,16.4,5.5
						c0-0.6,0.3-1.3,0.8-1.7c-0.1,0.4-0.2,0.9-0.1,1.4c0.2-0.5,0.7-0.8,1.3-0.9c0.5-0.1,1.1-0.1,1.6,0c-0.5,0.2-0.9,0.6-1.1,1
						C19.8,5.4,20.7,6.1,21,7c-0.7-0.3-1.4-0.5-2-0.7"/>
				</g>
			</g>
		</g>
		<g>
			<g>
				<g>
					<path fill="#6B503B" d="M15.7,7.7c-0.2-0.5-0.1-1.1,0-1.7l0,0c-0.2-0.4-0.6-0.8-1-1l-0.3-0.2l0.3,0c0.6,0,1.1,0.2,1.6,0.5
						l-0.1,0.1c0-0.7,0.3-1.3,0.8-1.8l0.3-0.2l-0.1,0.3c-0.1,0.4-0.2,0.9-0.1,1.3l-0.2,0c0.2-0.6,0.8-0.9,1.3-1
						c0.6-0.1,1.1-0.1,1.6,0l0.5,0L20,4.3c-0.5,0.2-0.9,0.5-1.1,1l-0.1-0.1c1,0.2,1.8,0.9,2.2,1.8l0,0.1L21,7l-2-0.7L21,6.9L20.9,7
						c-0.3-0.9-1.2-1.5-2.1-1.7l-0.1,0l0-0.1C19,4.7,19.4,4.3,20,4.1l0,0.2c-0.5,0-1.1-0.1-1.6,0.1c-0.5,0.1-1,0.4-1.2,0.9l-0.2,0.4
						L17,5.2c-0.1-0.5,0-1,0.1-1.4l0.2,0.1c-0.5,0.4-0.8,1-0.8,1.6l0,0.1l-0.1-0.1c-0.5-0.3-1-0.5-1.6-0.5l0-0.1
						c0.4,0.2,0.8,0.6,1,1.1l0,0l0,0C15.7,6.5,15.6,7.1,15.7,7.7z"/>
				</g>
			</g>
		</g>
		<g>
			<g>
				<g>
					<g>
						<g>
							
								<ellipse transform="matrix(0.9933 -0.1157 0.1157 0.9933 -1.4815 1.8054)" fill="#3E4347" cx="14.8" cy="13.7" rx="2.3" ry="3.2"/>
						</g>
					</g>
				</g>
				<g>
					<g>
						<g>
							<ellipse transform="matrix(0.9933 -0.1157 0.1157 0.9933 -1.5221 1.8248)" fill="#FFFFFF" cx="15" cy="14" rx="2.2" ry="3"/>
						</g>
					</g>
				</g>
				<g>
					<g>
						<g>
							<g>
								<g>
									<ellipse fill="#65B1EF" cx="15.1" cy="14.4" rx="1.2" ry="1.7"/>
								</g>
							</g>
						</g>
						<g>
							<g>
								<g>
									<ellipse fill="#3E4347" cx="15.1" cy="14.8" rx="0.7" ry="1"/>
								</g>
							</g>
						</g>
					</g>
					<g>
						<g>
							<g>
								<circle fill="#FFFFFF" cx="15.5" cy="14" r="0.3"/>
							</g>
						</g>
					</g>
				</g>
			</g>
			<g>
				<g>
					<g>
						<g>
							
								<ellipse transform="matrix(-0.9933 -0.1157 0.1157 -0.9933 40.6547 29.6881)" fill="#3E4347" cx="21.2" cy="13.7" rx="2.3" ry="3.2"/>
						</g>
					</g>
				</g>
				<g>
					<g>
						<g>
							
								<ellipse transform="matrix(-0.9933 -0.1157 0.1157 -0.9933 40.32 30.3884)" fill="#FFFFFF" cx="21" cy="14" rx="2.2" ry="3"/>
						</g>
					</g>
				</g>
				<g>
					<g>
						<g>
							<g>
								<g>
									<ellipse fill="#65B1EF" cx="20.9" cy="14.4" rx="1.2" ry="1.7"/>
								</g>
							</g>
						</g>
						<g>
							<g>
								<g>
									<ellipse fill="#3E4347" cx="21" cy="14.8" rx="0.7" ry="1"/>
								</g>
							</g>
						</g>
					</g>
					<g>
						<g>
							<g>
								<circle fill="#FFFFFF" cx="21.4" cy="14" r="0.3"/>
							</g>
						</g>
					</g>
				</g>
			</g>
		</g>
	</g>
	<g>
		<g>
			<g>
				<g>
					<g>
						<g>
							<g>
								<path fill="#3E4347" d="M10.3,25.7c-0.5,0.4-0.7,1.1-0.7,1.1c-0.1-0.4,0.1-1,0.5-1.4c0.5-0.4,1.1-0.5,1.4-0.4
									C11.1,25.2,10.6,25.4,10.3,25.7z"/>
							</g>
						</g>
						<g>
							<g>
								<path fill="#3E4347" d="M26.2,26.8c0,0-0.3-0.7-0.7-1.1c-0.2-0.3-0.8-0.5-1.2-0.7c0.4-0.1,0.9,0,1.4,0.4
									C26.2,25.8,26.3,26.3,26.2,26.8z"/>
							</g>
						</g>
					</g>
				</g>
			</g>
		</g>
		<g>
			<g>
				<g>
					<path fill="#3E4347" d="M10.4,25.9c1.9,1,2.7,1.4,4.6,1.8c0.9,0.2,1.9,0.3,2.8,0.3c1.9,0,3.8-0.5,5.2-1.1
						c0.6-0.2,1.6-0.7,2.2-1.1c-0.5,0.4-1.5,1.1-2.1,1.4c-2,1-3.4,1.3-5.4,1.4c-1.8-0.1-1.8-0.1-3-0.4C13,27.7,11.7,26.9,10.4,25.9z
						"/>
				</g>
			</g>
		</g>
	</g>
	<g>
		<g>
			<g>
				<g>
					<g>
						<path fill="#F4C534" d="M19.1,19.2c0,0,0.1-0.2,0.5-0.4c0.4-0.2,1.1-0.1,1.4,0.4c0.3,0.6,0.1,1.1-0.2,1.5
							c-0.2,0.3-0.4,0.5-0.4,0.5s0.2-0.2,0.3-0.6c0.2-0.3,0.3-0.9,0.1-1.3c-0.2-0.3-0.6-0.5-1.2-0.4C19.4,19.1,19.1,19.2,19.1,19.2z
							"/>
					</g>
				</g>
			</g>
			<g>
				<g>
					<g>
						<path fill="#F4C534" d="M20.4,20.9c-0.4,0.5-1.6,1.1-1.8,1c-0.2-0.2,0.2-1.5,0.6-2c0.4-0.5,0.9-0.6,1.3-0.3
							C20.8,19.8,20.8,20.4,20.4,20.9z"/>
					</g>
				</g>
			</g>
			<g>
				<g>
					<g>
						<path fill="#E9B02C" d="M20.4,20.9c-0.1,0.1-0.2,0.2-0.3,0.3c0.1-0.2,0-0.4-0.1-0.6c-0.2-0.2-0.6-0.1-0.8,0.2
							c-0.2,0.2-0.5,0.7-0.6,1c-0.1-0.4,0.3-1.5,0.6-1.9c0.4-0.5,0.9-0.6,1.3-0.3C20.8,19.8,20.8,20.4,20.4,20.9z"/>
					</g>
				</g>
			</g>
		</g>
		<g>
			<g>
				<g>
					<g>
						<path fill="#F4C534" d="M16.9,19.2c0,0-0.2-0.2-0.6-0.3c-0.6-0.1-1,0.1-1.2,0.4c-0.2,0.4-0.1,1,0.1,1.3
							c0.2,0.4,0.3,0.6,0.3,0.6s-0.2-0.2-0.4-0.5c-0.2-0.3-0.5-0.9-0.2-1.5c0.3-0.5,1-0.6,1.4-0.4C16.7,19,16.8,19.3,16.9,19.2z"/>
					</g>
				</g>
			</g>
			<g>
				<g>
					<g>
						<path fill="#F4C534" d="M15.6,20.9c0.4,0.5,1.6,1.1,1.8,1c0.2-0.2-0.2-1.5-0.6-2c-0.4-0.5-0.9-0.6-1.3-0.3
							S15.2,20.4,15.6,20.9z"/>
					</g>
				</g>
			</g>
			<g>
				<g>
					<g>
						<path fill="#E9B02C" d="M15.6,20.9c0.1,0.1,0.2,0.2,0.3,0.3c-0.1-0.2,0-0.4,0.1-0.6c0.2-0.2,0.6-0.1,0.8,0.2
							c0.2,0.2,0.5,0.7,0.6,1c0.1-0.4-0.3-1.5-0.6-1.9c-0.4-0.5-0.9-0.6-1.3-0.3C15.2,19.8,15.2,20.4,15.6,20.9z"/>
					</g>
				</g>
			</g>
		</g>
	</g>
</g>
</svg>
