<?xml version="1.0" encoding="utf-8"?>
<!-- Generator: Adobe Illustrator 18.0.0, SVG Export Plug-In . SVG Version: 6.00 Build 0)  -->
<!DOCTYPE svg PUBLIC "-//W3C//DTD SVG 1.1//EN" "http://www.w3.org/Graphics/SVG/1.1/DTD/svg11.dtd">
<svg version="1.1" id="Layer_1" xmlns="http://www.w3.org/2000/svg" xmlns:xlink="http://www.w3.org/1999/xlink" x="0px" y="0px"
	 viewBox="0 0 36 36" enable-background="new 0 0 36 36" xml:space="preserve">
<g>
	<g>
		<g>
			<g>
				<g>
					<g>
						<g>
							<g>
								<g>
									<path fill="#FC97B2" d="M33.8,15.2c0.3,2-1.7,1.9-2.1,2c-0.8,0.2-2.8,2-5.4,0.2c-2.1-1.5-5.8-7-0.6-10.2
										c2.7-1.6,4.4,0.9,6.4,0.9c2.4,0,1,1.2,1.2,2c0.2,0.7,1.2,0.8,0.6,2.2C33,14.1,33.6,13.9,33.8,15.2z"/>
								</g>
							</g>
						</g>
					</g>
					<g>
						<g>
							<path fill="#F286A7" d="M32.1,8.1c-0.8,0-1.5-0.4-2.3-0.7c-1-0.1-2-0.3-3-0.1c-1.1,0.2-2.1,0.9-2.7,1.9c-0.7,1-1,2.2-0.9,3.4
								c0,0.2,0,0.4,0.1,0.6c0.2,0.6,0.5,1.2,0.8,1.7c0.5,0.5,1.1,0.9,1.7,1.2c0.8,0.4,1.7,0.5,2.6,0.4c0.9-0.1,1.7-0.5,2.4-1.2
								c-2.5,0.2-3.6-0.8-4.1-1.3c1-0.2,2.4-1.3,3-2.2c-0.6,0.3-1.2,0.4-1.8,0.3c-0.6-0.1-1.2-0.4-1.8-0.7c0.7-0.1,1.2-0.7,1.7-1.3
								c0.5-0.6,1-1.2,1.7-1.4c0.4-0.1,0.9,0,1.3,0C31.2,8.7,31.7,8.5,32.1,8.1C32.1,8.1,32.1,8.1,32.1,8.1z"/>
						</g>
					</g>
					<g>
						<g>
							<path fill="#CBD6E0" d="M25.6,7.2c-3.6,2.2-2.9,5.5-1.5,7.8l0,0c0,0,0.1-1.4,0.1-3.3c0-1.9,2.6-1.6,4-3.3
								c1.4-1.6,2,0.1,3.9-0.3C30,8.1,28.3,5.6,25.6,7.2z"/>
						</g>
					</g>
				</g>
			</g>
			<g>
				<g>
					<g>
						<g>
							<g>
								<g>
									<path fill="#FC97B2" d="M2.2,15.2c-0.3,2,1.7,1.9,2.1,2c0.8,0.2,2.8,2,5.4,0.2c2.1-1.5,5.8-7,0.6-10.2
										C7.7,5.6,6,8.1,3.9,8.1c-2.4,0-1,1.2-1.2,2c-0.2,0.7-1.2,0.8-0.6,2.2C3,14.1,2.4,13.9,2.2,15.2z"/>
								</g>
							</g>
						</g>
					</g>
					<g>
						<g>
							<path fill="#F286A7" d="M3.9,8.1c0.8,0,1.5-0.4,2.3-0.7c1-0.1,2-0.3,3-0.1c1.1,0.2,2.1,0.9,2.7,1.9c0.7,1,1,2.2,0.9,3.4
								c0,0.2,0,0.4-0.1,0.6c-0.2,0.6-0.5,1.2-0.8,1.7c-0.5,0.5-1.1,0.9-1.7,1.2c-0.8,0.4-1.7,0.5-2.6,0.4c-0.9-0.1-1.7-0.5-2.4-1.2
								c2.5,0.2,3.6-0.8,4.1-1.3c-1-0.2-2.4-1.3-3-2.2c0.6,0.3,1.2,0.4,1.8,0.3c0.6-0.1,1.2-0.4,1.8-0.7c-0.7-0.1-1.2-0.7-1.7-1.3
								c-0.5-0.6-1-1.2-1.7-1.4c-0.4-0.1-0.9,0-1.3,0C4.8,8.7,4.3,8.5,3.9,8.1C3.9,8.1,3.9,8.1,3.9,8.1z"/>
						</g>
					</g>
					<g>
						<g>
							<path fill="#CBD6E0" d="M10.4,7.2c3.6,2.2,2.9,5.5,1.5,7.8l0,0c0,0-0.1-1.4-0.1-3.3c0-1.9-2.6-1.6-4-3.3s-2,0.1-3.9-0.3
								C6,8.1,7.7,5.6,10.4,7.2z"/>
						</g>
					</g>
				</g>
				<g>
					<g>
						<g>
							<path fill="#EA739A" d="M5.4,8.8c1.8-0.1,2.1,0.2,3.2,1.5c0.7,0.9,0.9,1.2,3.2,1.4l0,0.2c-2.3-0.3-2.6-0.8-3.3-1.6
								C7.6,9.2,7.3,8.7,5.4,8.8z"/>
						</g>
					</g>
					<g>
						<g>
							<path fill="#EA739A" d="M30.7,15.3c-2.5,0.3-4.3-1.3-5-1.6l0,0c-0.7-0.5-1.4-1.1-1.9-1.7l0.2-0.2c0.4,0.5,1.1,1.2,1.8,1.7
								l0,0c0.6,0.3,0.1,0.1,0.6,0.3c1.4,0.1,2.3-1,3.1-1.9C28.7,13,27.8,14,26.4,14C28.2,15.2,29.1,15.3,30.7,15.3z"/>
						</g>
					</g>
					<g>
						<g>
							<path fill="#EA739A" d="M24.2,11.9l0-0.2c2.3-0.3,2.5-0.6,3.2-1.4c1.4-1.6,1.5-1.5,3.1-1.5c-1.8,0-1.9,0.2-3,1.6
								C26.9,11,26.6,11.6,24.2,11.9z"/>
						</g>
					</g>
					<g>
						<g>
							<path fill="#EA739A" d="M12,11.8l0.2,0.2c-0.6,0.6-1.3,1.2-1.9,1.7l0,0c-0.1,0.1-0.2,0.1-0.3,0.1c-0.7,0.7-3,1.7-4.7,1.5
								c1.5,0,2.4-0.1,4.2-1.4c-1.5,0-2.3-0.9-3.2-2.1c0.8,0.9,1.7,2,3.1,1.9c0.6-0.2,0.1,0,0.6-0.3l0,0
								C10.9,12.9,11.6,12.2,12,11.8z"/>
						</g>
					</g>
				</g>
			</g>
		</g>
		<g>
			<g>
				<g>
					<g>
						<path fill="#DAE5EF" d="M18,28.8c-5.4,0-11.5-4.6-10.1-10.3C9.7,11.1,11.9,8.1,18,8.1c6.1,0,8.3,3,10.1,10.3
							C29.5,24.2,23.4,28.8,18,28.8z"/>
					</g>
				</g>
			</g>
			<g>
				<g>
					<g>
						<ellipse fill="#DAE5EF" cx="18" cy="27.5" rx="3.5" ry="2.5"/>
					</g>
				</g>
			</g>
			<g>
				<g>
					<g>
						<ellipse fill="#3E4347" cx="18" cy="25.9" rx="2.4" ry="3.3"/>
					</g>
				</g>
			</g>
			<g>
				<g>
					<g>
						<ellipse fill="#31373A" cx="18" cy="25.9" rx="1.7" ry="2.4"/>
					</g>
				</g>
			</g>
			<g>
				<g>
					<g>
						<path fill="#DAE5EF" d="M14.2,8.8c0.9-0.9,2-1.6,3.2-2c-0.3,0.2-0.5,0.6-0.6,0.9c0.7-0.4,1.3-0.8,2-1.2
							c-0.2,0.4-0.3,0.8-0.3,1.2c0.8-0.2,1.3-1,1.3-1.7c0.3,0.6,0.6,1.3,1,1.8c0.4-0.5,1.1-0.8,1.7-0.7c-0.7,0.4-1.1,1.3-1.2,2.2
							c-0.1,0.9,0.1,1.7,0.3,2.5c-0.6-0.8-1.5-1.2-2.4-1.4c-0.9-0.2-1.9-0.1-2.9-0.1"/>
					</g>
				</g>
			</g>
		</g>
		<g>
			<g>
				<g>
					<g>
						<g>
							<g>
								<ellipse fill="#3E4347" cx="21.8" cy="16.3" rx="2.5" ry="3.2"/>
							</g>
						</g>
					</g>
					<g>
						<g>
							<g>
								<ellipse fill="#FFFFFF" cx="21.8" cy="16.6" rx="2.3" ry="3"/>
							</g>
						</g>
					</g>
					<g>
						<g>
							<g>
								<g>
									<path fill="#65B1EF" d="M23.2,17c0,1.1-0.7,2-1.5,2c-0.9,0-1.5-0.9-1.5-2c0-1.1,0.7-2,1.5-2C22.5,15,23.2,15.9,23.2,17z"/>
								</g>
							</g>
						</g>
						<g>
							<g>
								<g>
									<path fill="#3E4347" d="M22.6,17.3c0,0.7-0.4,1.2-0.9,1.2c-0.5,0-0.9-0.5-0.9-1.2c0-0.7,0.4-1.2,0.9-1.2
										C22.2,16.1,22.6,16.6,22.6,17.3z"/>
								</g>
							</g>
						</g>
					</g>
					<g>
						<g>
							<g>
								<path fill="#FFFFFF" d="M22.6,16.5c0,0.2-0.2,0.4-0.4,0.4c-0.2,0-0.4-0.2-0.4-0.4c0-0.2,0.2-0.4,0.4-0.4
									C22.4,16.1,22.6,16.3,22.6,16.5z"/>
							</g>
						</g>
					</g>
				</g>
				<g>
					<g>
						<g>
							<g>
								
									<ellipse transform="matrix(0.8958 0.4444 -0.4444 0.8958 11.2286 -7.6678)" fill="#DAE5EF" cx="22" cy="20.1" rx="2.8" ry="1.7"/>
							</g>
						</g>
					</g>
					<g>
						<g>
							<g>
								<path fill="#BBC7D1" d="M24.1,19.7c0,0-0.2-0.2-0.6-0.5c-0.2-0.1-0.4-0.3-0.7-0.4c-0.1-0.1-0.3-0.1-0.4-0.2
									c-0.1-0.1-0.3-0.1-0.4-0.1c-0.6-0.2-1.1-0.3-1.6-0.2c-0.2,0-0.4,0.1-0.5,0.1c-0.1,0-0.2,0.1-0.2,0.1c0,0,0-0.1,0.2-0.2
									c0.1-0.1,0.3-0.2,0.5-0.3c0.2-0.1,0.5-0.1,0.8-0.1c0.3,0,0.6,0.1,0.9,0.2c0.3,0.1,0.6,0.2,0.9,0.4c0.3,0.2,0.5,0.4,0.6,0.5
									C24,19.4,24.1,19.7,24.1,19.7z"/>
							</g>
						</g>
					</g>
				</g>
			</g>
			<g>
				<g>
					<g>
						<g>
							<g>
								<ellipse fill="#3E4347" cx="14.2" cy="16.3" rx="2.5" ry="3.2"/>
							</g>
						</g>
					</g>
					<g>
						<g>
							<g>
								<ellipse fill="#FFFFFF" cx="14.2" cy="16.6" rx="2.3" ry="3"/>
							</g>
						</g>
					</g>
					<g>
						<g>
							<g>
								<g>
									<path fill="#65B1EF" d="M15.9,17c0,1.1-0.7,2-1.5,2c-0.9,0-1.5-0.9-1.5-2c0-1.1,0.7-2,1.5-2C15.2,15,15.9,15.9,15.9,17z"/>
								</g>
							</g>
						</g>
						<g>
							<g>
								<g>
									<path fill="#3E4347" d="M15.3,17.3c0,0.7-0.4,1.2-0.9,1.2c-0.5,0-0.9-0.5-0.9-1.2c0-0.7,0.4-1.2,0.9-1.2
										C14.8,16.1,15.3,16.6,15.3,17.3z"/>
								</g>
							</g>
						</g>
					</g>
					<g>
						<g>
							<g>
								<path fill="#FFFFFF" d="M15.3,16.5c0,0.2-0.2,0.4-0.4,0.4c-0.2,0-0.4-0.2-0.4-0.4c0-0.2,0.2-0.4,0.4-0.4
									C15.1,16.1,15.3,16.3,15.3,16.5z"/>
							</g>
						</g>
					</g>
				</g>
				<g>
					<g>
						<g>
							<g>
								
									<ellipse transform="matrix(-0.8958 0.4444 -0.4444 -0.8958 35.5378 31.9054)" fill="#DAE5EF" cx="14" cy="20.1" rx="2.8" ry="1.7"/>
							</g>
						</g>
					</g>
					<g>
						<g>
							<g>
								<path fill="#BBC7D1" d="M11.9,19.7c0,0,0.1-0.3,0.5-0.6c0.2-0.2,0.4-0.4,0.6-0.5c0.3-0.2,0.5-0.3,0.9-0.4
									c0.3-0.1,0.6-0.2,0.9-0.2c0.3,0,0.6,0,0.8,0.1c0.2,0.1,0.4,0.2,0.5,0.3c0.1,0.1,0.2,0.2,0.2,0.2c0,0-0.1,0-0.2-0.1
									c-0.1-0.1-0.3-0.1-0.5-0.1c-0.4-0.1-1,0-1.6,0.2c-0.1,0-0.3,0.1-0.4,0.1c-0.1,0.1-0.3,0.1-0.4,0.2c-0.2,0.1-0.5,0.2-0.7,0.4
									C12.1,19.5,11.9,19.7,11.9,19.7z"/>
							</g>
						</g>
					</g>
				</g>
			</g>
		</g>
		<g>
			<g>
				<g>
					<g>
						<path fill="#BBC7D1" d="M20,11.5c0,0,2.1-0.4,4.3,1.5C24.3,13,22.3,9.3,20,11.5z"/>
					</g>
				</g>
			</g>
			<g>
				<g>
					<g>
						<path fill="#BBC7D1" d="M16,11.5c0,0-2.1-0.4-4.3,1.5C11.7,13,13.7,9.3,16,11.5z"/>
					</g>
				</g>
			</g>
		</g>
		<g>
			<g>
				<g>
					<path fill="#BBC7D1" d="M13.6,22.7c0.5,1.4,1.6,2.9,3.1,3.7c1.3,0.7,2.6,0.9,4.1,0.6c1.8-0.4,3.8-1.8,5.9-2.4
						c-1.7,0.7-3.7,2.3-5.8,2.7c-1.5,0.4-3,0.2-4.3-0.6C14.8,25.7,13.8,23.7,13.6,22.7z"/>
				</g>
			</g>
			<g>
				<g>
					<path fill="#BBC7D1" d="M28.1,21.8c-3.1,0.8-7.1,2.3-8.3-0.7c1.1,1.6,2.4,1.6,5.5,1C27.1,21.8,26.8,21.8,28.1,21.8z"/>
				</g>
			</g>
		</g>
		<g>
			<g>
				<g>
					<path fill="#DAE5EF" d="M13.6,22.7c0,0,1,3.7,4.6,4.5s6.8-2.8,9.6-2.8s3.2,1.2,3.2,1.2s0.9,0,0.6-1c0,0,1.2,0.2,1.1-1.1
						c-0.2-1.3-3.2-2.2-5.8-1.6c-2.6,0.6-6.2,1.6-7.2-0.8"/>
				</g>
			</g>
		</g>
		<g>
			<g>
				<g>
					<path fill="#DAE5EF" d="M20.7,22.3c0,0,0.4-0.8-0.2-0.8c-0.6,0-1.8,0.8-1.8,0.8"/>
				</g>
			</g>
		</g>
		<g>
			<g>
				<g>
					<path fill="#DAE5EF" d="M21.4,22.7c0,0,0.3-0.8-0.3-0.7c-0.6,0.1-1.7,1-1.7,1"/>
				</g>
			</g>
		</g>
		<g>
			<g>
				<g>
					<path fill="#DAE5EF" d="M22.4,22.7c0,0,0-0.9-0.5-0.6s-1.4,1.4-1.4,1.4"/>
				</g>
			</g>
		</g>
		<g>
			<g>
				<g>
					<path fill="#DAE5EF" d="M23.2,22.8c0,0,0-0.9-0.5-0.6s-1.4,1.4-1.4,1.4"/>
				</g>
			</g>
		</g>
		<g>
			<g>
				<g>
					<g>
						<path fill="#BBC7D1" d="M17.8,22.9c0.5-0.4,1-0.7,1.6-1c0.9-0.5,1.7-0.6,1.4,0.2v0l0,0c-0.1-0.7-0.2-0.6-1.3-0.1L17.8,22.9z"
							/>
					</g>
				</g>
			</g>
			<g>
				<g>
					<g>
						<path fill="#BBC7D1" d="M21.5,22.4c0-0.4-0.3-0.4-0.6-0.2l0,0c-0.7,0.3-1.4,0.7-2,1.1c0.7-0.5,1.4-1,1.8-1.2l0,0
							C21.2,21.8,21.6,21.9,21.5,22.4z"/>
					</g>
				</g>
			</g>
			<g>
				<g>
					<g>
						<path fill="#BBC7D1" d="M20.6,23.3c0.5-0.7,1.8-2,1.9-0.9C22.1,21.6,21.5,22.6,20.6,23.3z"/>
					</g>
				</g>
			</g>
			<g>
				<g>
					<g>
						<path fill="#BBC7D1" d="M23.2,22.8c0-1.1-0.7-0.3-1.4,0.1C22.3,22,23.4,21.7,23.2,22.8z"/>
					</g>
				</g>
			</g>
		</g>
		<g>
			<g>
				<g>
					<path fill="#BBC7D1" d="M32.8,23.9c-0.3,0.6-0.9,0.7-1.3,0.4c-0.6-0.4-0.2,0.1,0,0.6c0.1,0.2,0,0.5-0.4,0.7c0,0,0,0,0,0
						s0.9,0,0.6-1C31.7,24.6,32.6,24.8,32.8,23.9z"/>
				</g>
			</g>
		</g>
	</g>
	<g>
		<g>
			<g>
				<path fill="#E24B4B" d="M19.4,28.6c0-0.2-0.1-0.4-0.2-0.6c-0.3-0.4-0.8-0.5-1.2-0.3c-0.1,0.1-0.3,0.1-0.5,0.1
					c-0.4-0.1-0.9,0.2-1,0.6c0.4,0.5,1,0.9,1.6,0.9C18.5,29.2,19,29,19.4,28.6z"/>
			</g>
		</g>
	</g>
</g>
</svg>
