<?xml version="1.0" encoding="utf-8"?>
<!-- Generator: Adobe Illustrator 18.0.0, SVG Export Plug-In . SVG Version: 6.00 Build 0)  -->
<!DOCTYPE svg PUBLIC "-//W3C//DTD SVG 1.1//EN" "http://www.w3.org/Graphics/SVG/1.1/DTD/svg11.dtd">
<svg version="1.1" id="Layer_1" xmlns="http://www.w3.org/2000/svg" xmlns:xlink="http://www.w3.org/1999/xlink" x="0px" y="0px"
	 viewBox="0 0 36 36" enable-background="new 0 0 36 36" xml:space="preserve">
<g>
	<g>
		<g>
			<g>
				<g>
					<g>
						<g>
							
								<ellipse transform="matrix(0.9029 0.4299 -0.4299 0.9029 7.5729 -11.41)" fill="#6B503B" cx="29" cy="11.1" rx="4.6" ry="6.3"/>
						</g>
					</g>
				</g>
				<g>
					<g>
						<g>
							
								<ellipse transform="matrix(0.9029 0.4299 -0.4299 0.9029 7.9826 -11.1814)" fill="#FFE9AB" cx="28.7" cy="12.1" rx="3.3" ry="4.6"/>
						</g>
					</g>
				</g>
				<g>
					<g>
						<g>
							<path fill="#FFDC97" d="M25.7,10.6c-1.1,2.3-0.6,4.8,1,5.6c1.7,0.8,3.9-0.4,5-2.7c-1.3,2-2.9,1.8-2.9,1.8
								c0.1-1.1,1.3-2.1,1.3-2.1c-2-0.5-2.9,1.7-2.9,1.7c0-1.8,1.1-3.8,1.1-3.8c-1.2,0.7-1.7,2.1-1.7,2.1s-0.4-0.7,0.8-3
								c0.9-1.5,2.1-2.2,2.7-2.5C28.6,7.4,26.7,8.6,25.7,10.6z"/>
						</g>
					</g>
				</g>
			</g>
			<g>
				<g>
					<g>
						<path fill="#F9CA80" d="M28.6,13.3c-0.6,0.2-1,0.8-1.3,1.4c0.1-1.4,0.6-2.9,0.9-3.4c0.1-0.1,0.1-0.2,0.1-0.2
							c0,0-0.1,0.1-0.1,0.2c-0.7,1.1-1.1,2.9-1.3,4.2c-0.2-0.7-0.3-1.5-0.2-2.3c0-0.7,0.2-2,0.6-2.7c0.2-0.6,1-1.5,1.6-1.9
							c0.4-0.3,0.1-0.1,1.2-0.8c-1,0.5-0.9,0.5-1.3,0.8c-0.6,0.4-1.3,1.3-1.6,1.9c-0.4,0.7-0.7,2-0.7,2.7c0,0.8,0,1.9,0.3,2.9
							c0,0.2,0.4,0.2,0.4,0C27.4,15.1,27.6,13.9,28.6,13.3c0.4-0.1,1-0.2,1.6-0.1C29.8,13.1,29.1,13.1,28.6,13.3z"/>
					</g>
				</g>
			</g>
		</g>
		<g>
			<g>
				<g>
					<g>
						<g>
							
								<ellipse transform="matrix(-0.9029 0.4299 -0.4299 -0.9029 18.0036 18.0392)" fill="#6B503B" cx="7" cy="11.1" rx="4.6" ry="6.3"/>
						</g>
					</g>
				</g>
				<g>
					<g>
						<g>
							
								<ellipse transform="matrix(-0.9029 0.4299 -0.4299 -0.9029 19.0151 19.8521)" fill="#FFE9AB" cx="7.3" cy="12.1" rx="3.3" ry="4.6"/>
						</g>
					</g>
				</g>
				<g>
					<g>
						<g>
							<path fill="#FFDC97" d="M10.3,10.6c1.1,2.3,0.6,4.8-1,5.6s-3.9-0.4-5-2.7c1.3,2,2.9,1.8,2.9,1.8c-0.1-1.1-1.3-2.1-1.3-2.1
								c2-0.5,2.9,1.7,2.9,1.7c0-1.8-1.1-3.8-1.1-3.8c1.2,0.7,1.7,2.1,1.7,2.1s0.4-0.7-0.8-3C7.6,8.7,6.5,8,5.8,7.7
								C7.4,7.4,9.3,8.6,10.3,10.6z"/>
						</g>
					</g>
				</g>
			</g>
			<g>
				<g>
					<g>
						<path fill="#F9CA80" d="M7.4,13.3c0.6,0.2,1,0.8,1.3,1.4c-0.1-1.4-0.6-2.9-0.9-3.4c-0.1-0.1-0.1-0.2-0.1-0.2
							c0,0,0.1,0.1,0.1,0.2c0.7,1.1,1.1,2.9,1.3,4.2c0.2-0.7,0.3-1.5,0.2-2.3c0-0.7-0.2-2-0.6-2.7C8.4,10,7.7,9,7.1,8.6
							C6.7,8.3,7.1,8.5,5.9,7.8c1,0.5,0.9,0.5,1.3,0.8C7.7,9,8.5,9.9,8.8,10.5c0.4,0.7,0.7,2,0.7,2.7c0,0.8,0,1.9-0.3,2.9
							c0,0.2-0.4,0.2-0.4,0C8.6,15.1,8.4,13.9,7.4,13.3c-0.4-0.1-1-0.2-1.6-0.1C6.2,13.1,6.9,13.1,7.4,13.3z"/>
					</g>
				</g>
			</g>
		</g>
	</g>
	<g>
		<g>
			<g>
				<path fill="#7A5B44" d="M29.1,19.7c-0.3,5.7-5.3,10-11.1,10s-10.8-4.4-11.1-10C6.6,13.7,11.5,8.6,18,8.6S29.4,13.7,29.1,19.7z"
					/>
			</g>
		</g>
		<g>
			<g>
				<g>
					<g>
						<g>
							<g>
								<g>
									<ellipse fill="#6B503B" cx="22.7" cy="16.3" rx="2.7" ry="3.8"/>
								</g>
							</g>
						</g>
						<g>
							<g>
								<g>
									<ellipse fill="#FFFFFF" cx="22.6" cy="16.8" rx="2.6" ry="3.7"/>
								</g>
							</g>
						</g>
					</g>
					<g>
						<g>
							<g>
								<g>
									<g>
										<ellipse fill="#65B1EF" cx="22.6" cy="17.4" rx="1.6" ry="1.8"/>
									</g>
								</g>
							</g>
							<g>
								<g>
									<g>
										<path fill="#3E4347" d="M23.4,17.5c0,0.6-0.4,1-0.9,1s-0.9-0.5-0.9-1c0-0.6,0.4-1,0.9-1S23.4,16.9,23.4,17.5z"/>
									</g>
								</g>
							</g>
						</g>
						<g>
							<g>
								<g>
									<path fill="#FFFFFF" d="M23.4,16.8c0,0.2-0.1,0.3-0.3,0.3c-0.2,0-0.3-0.1-0.3-0.3s0.1-0.3,0.3-0.3
										C23.3,16.4,23.4,16.6,23.4,16.8z"/>
								</g>
							</g>
						</g>
					</g>
				</g>
			</g>
			<g>
				<g>
					<g>
						<g>
							<g>
								<g>
									<ellipse fill="#6B503B" cx="13.3" cy="16.3" rx="2.7" ry="3.8"/>
								</g>
							</g>
						</g>
						<g>
							<g>
								<g>
									<ellipse fill="#FFFFFF" cx="13.4" cy="16.8" rx="2.6" ry="3.7"/>
								</g>
							</g>
						</g>
					</g>
					<g>
						<g>
							<g>
								<g>
									<g>
										<ellipse fill="#65B1EF" cx="13.4" cy="17.4" rx="1.6" ry="1.8"/>
									</g>
								</g>
							</g>
							<g>
								<g>
									<g>
										<path fill="#3E4347" d="M12.6,17.5c0,0.6,0.4,1,0.9,1c0.5,0,0.9-0.5,0.9-1c0-0.6-0.4-1-0.9-1C13,16.5,12.6,16.9,12.6,17.5
											z"/>
									</g>
								</g>
							</g>
						</g>
						<g>
							<g>
								<g>
									<path fill="#FFFFFF" d="M12.6,16.8c0,0.2,0.1,0.3,0.3,0.3c0.2,0,0.3-0.1,0.3-0.3s-0.1-0.3-0.3-0.3
										C12.7,16.4,12.6,16.6,12.6,16.8z"/>
								</g>
							</g>
						</g>
					</g>
				</g>
			</g>
		</g>
	</g>
	<g>
		<g>
			<g>
				<path fill="#FFE9AB" d="M30.4,22.6c0,4.6-5.6,8.4-12.4,8.4c-6.8,0-12.4-3.7-12.4-8.4s5.6-3.2,12.4-3.2
					C24.8,19.4,30.4,18,30.4,22.6z"/>
			</g>
		</g>
	</g>
	<g>
		<g>
			<g>
				<path fill="#FFD68D" d="M29.5,25.7c-2.3,3.7-7.1,5.2-11.5,5.3c-4.4-0.1-9.3-1.6-11.5-5.3c-0.8-1.2-1.1-3.1-0.8-4.2
					c0.2-0.7,0.6-1.2,0.9-1.4c-0.3,0.2-0.6,0.7-0.7,1.4c-0.2,1.3,0.3,2.9,1,3.9c2.2,3.3,6.9,4.7,11.1,4.7c5.9,0,9.6-2.4,11.2-4.7
					c0.8-1.2,1.2-2.9,1-3.9c-0.1-0.5-0.3-1-0.7-1.4c0.3,0.3,0.7,0.7,0.8,1.4C30.6,22.6,30.3,24.5,29.5,25.7z"/>
			</g>
		</g>
	</g>
	<g>
		<g>
			<g>
				<path fill="#FFFFFF" d="M19.4,26.8l-0.5,2.5c0,0.2-0.2,0.3-0.3,0.3h-1.1c-0.2,0-0.3-0.1-0.3-0.3l-0.5-2.5
					c0.6-0.3,1.1-0.8,1.4-1.5C18.3,26,18.8,26.5,19.4,26.8z"/>
			</g>
		</g>
	</g>
	<g>
		<g>
			<g>
				<g>
					<g>
						<path fill="#F9CA80" d="M23.3,24.3c0.2,2.2-2.3,3.7-4.2,2.6c-0.5-0.2-0.9-0.6-1.1-1.1c-0.3,0.5-0.7,0.8-1.1,1.1
							c-1.9,1.1-4.4-0.4-4.2-2.6c0.2,2.1,2.4,3.2,4,2.3c0,0,0,0,0,0c0.7-0.4,1.1-1.2,1.1-2l0.2-2.6c0-0.1,0-0.2,0.1-0.2
							c0,0,0.1,0.1,0.1,0.2l0.2,2.6c0,0.8,0.4,1.6,1.1,2C21,27.5,23.2,26.4,23.3,24.3z"/>
					</g>
				</g>
			</g>
		</g>
	</g>
	<g>
		<g>
			<g>
				<g>
					<g>
						<path fill="#3E4347" d="M20.7,20.4c0,0.8-0.7,1.4-1.4,1.9c-0.8,0.6-1.9,0.6-2.7,0c-0.7-0.5-1.4-1.2-1.4-1.9
							c0-0.4,0.1-0.7,0.3-1c0.4-0.5,1.4-0.6,2.4-0.6c1.1,0,2,0,2.4,0.6C20.6,19.6,20.7,19.9,20.7,20.4z"/>
					</g>
				</g>
			</g>
			<g>
				<g>
					<g>
						<path fill="#31373A" d="M20.7,20.4c0,0.8-0.7,1.4-1.4,1.9c-0.8,0.6-1.9,0.6-2.7,0c-0.7-0.5-1.3-1.1-1.4-1.9
							c0.5,0.5,1.3,0.8,2.2,0.8c1.5,0,2.7-0.9,2.7-1.9c0,0,0-0.1,0-0.1c0.1,0.1,0.2,0.1,0.3,0.2C20.6,19.6,20.7,19.9,20.7,20.4z"/>
					</g>
				</g>
			</g>
		</g>
		<g opacity="0.2">
			<g>
				<g>
					<ellipse fill="#FFFFFF" cx="17.7" cy="19.6" rx="1.3" ry="0.5"/>
				</g>
			</g>
		</g>
	</g>
	<g>
		<g>
			<g>
				<g>
					<path fill="#F9CA80" d="M22.4,24c0.3-0.1,0.8-0.1,1.2,0.2c0.4,0.3,0.4,0.7,0.4,1.1c-0.1-0.3-0.3-0.7-0.5-0.9
						C23.1,24.2,22.6,24.1,22.4,24z"/>
				</g>
			</g>
		</g>
		<g>
			<g>
				<g>
					<path fill="#F9CA80" d="M13.6,24c-0.3,0-0.8,0.2-1,0.4c-0.3,0.2-0.5,0.6-0.5,0.9c-0.1-0.4,0-0.8,0.4-1.1
						C12.8,23.9,13.3,23.9,13.6,24z"/>
				</g>
			</g>
		</g>
	</g>
</g>
</svg>
