<?xml version="1.0" encoding="utf-8"?>
<!-- Generator: Adobe Illustrator 18.0.0, SVG Export Plug-In . SVG Version: 6.00 Build 0)  -->
<!DOCTYPE svg PUBLIC "-//W3C//DTD SVG 1.1//EN" "http://www.w3.org/Graphics/SVG/1.1/DTD/svg11.dtd">
<svg version="1.1" id="Layer_1" xmlns="http://www.w3.org/2000/svg" xmlns:xlink="http://www.w3.org/1999/xlink" x="0px" y="0px"
	 viewBox="0 0 36 36" enable-background="new 0 0 36 36" xml:space="preserve">
<g>
	<g>
		<g>
			<g>
				<g>
					<g>
						<g>
							<g>
								<path fill="#DAE5EF" d="M33,17c-0.6-0.3-1.2-0.6-1.8-0.9c-1.5-0.9-2.4-2.5-2.4-4.3v0c-0.3,0.3-0.6,0.5-0.9,0.7
									c-1.2,0.9-2.5,1.6-3.6,2.5c-0.7,0.6-1.4,1-2.3,1.4c-3,1.3-3.5-0.6-1.5-6c0.1-0.3,0.3-0.6,0.4-1c0.9-1.8,2.1-3.5,3.5-5
									c0.8-0.8,1.6-1.5,2.7-1.9c1.1-0.3,2.3-0.2,3.1,0.7c0.2,0.3,0.4,0.6,0.7,0.8c0.6,0.4,1.4,0.3,2,0.8c0.4,0.3,0.6,0.8,0.7,1.2
									c0.1,0.5,0,1,0,1.4c-0.3,2.9-0.2,5.8,0.2,8.7C34,16.8,33.5,17.2,33,17z"/>
							</g>
						</g>
					</g>
					<g>
						<g>
							<g>
								<path fill="#FC97B2" d="M31.8,6.6c0,0-2.4,5.3-8.3,7.3l-1.4-1.7c0,0,1.4-7.3,8.3-8.5L31.8,6.6z"/>
							</g>
						</g>
					</g>
					<g>
						<g>
							<g>
								<path fill="#E88EA7" d="M30.4,3.7c-6.8,1.2-8.3,8.5-8.3,8.5l1.4,1.7c0.3-0.1,0.5-0.2,0.7-0.3c-0.1-1.2,0-3.7,1.7-6
									c1.7-2.4,3.2-3.3,4.6-3.4L30.4,3.7z"/>
							</g>
						</g>
					</g>
					<g>
						<g>
							<g>
								<path fill="#CBD6E0" d="M33.2,17.3c0.5,0.1,0.9-0.3,0.8-0.8c-0.4-3-0.5-6-0.2-8.9c0-0.5,0.1-1,0-1.4
									c-0.1-0.5-0.3-0.9-0.7-1.2c-0.6-0.4-1.5-0.3-2-0.8c-0.3-0.2-0.5-0.6-0.7-0.8c-0.7-0.8-2-1-3.1-0.7c-1.1,0.3-1.9,1.1-2.7,1.9
									c0,0,1.6-1.1,3.7-0.3C30.4,5,24.4,15.8,33.2,17.3z"/>
							</g>
						</g>
					</g>
				</g>
				<g>
					<g>
						<g>
							<path fill="#BBC7D1" d="M31.7,5.9c-0.3-0.8-0.9-1.9-1.5-2.5c-0.6-0.6-1.6-0.8-2.3-0.7c-0.7,0.1-1.5,0.5-2.1,0.9
								c-0.4,0.3-0.8,0.6-1.2,0.9c0.4-0.5,0.9-0.9,1-1c0.8-0.6,1.6-1,2.2-1.1c1-0.2,2,0.2,2.6,0.8C31,3.8,31.6,5.1,31.7,5.9z"/>
						</g>
					</g>
				</g>
			</g>
			<g>
				<g>
					<g>
						<g>
							<g>
								<path fill="#DAE5EF" d="M3,17c0.6-0.3,1.2-0.6,1.8-0.9c1.5-0.9,2.4-2.5,2.4-4.3v0c0.3,0.3,0.6,0.5,0.9,0.7
									c1.2,0.9,2.5,1.6,3.6,2.5c0.7,0.6,1.4,1,2.3,1.4c3,1.3,3.5-0.6,1.5-6c-0.1-0.3-0.3-0.6-0.4-1c-0.9-1.8-2.1-3.5-3.5-5
									C10.6,3.7,9.8,3,8.7,2.6C7.7,2.3,6.4,2.5,5.7,3.3C5.4,3.6,5.2,3.9,4.9,4.1c-0.6,0.4-1.4,0.3-2,0.8C2.5,5.2,2.3,5.6,2.2,6.1
									c-0.1,0.5,0,1,0,1.4c0.3,2.9,0.2,5.8-0.2,8.7C2,16.8,2.5,17.2,3,17z"/>
							</g>
						</g>
					</g>
					<g>
						<g>
							<g>
								<path fill="#FC97B2" d="M4.2,6.6c0,0,2.4,5.3,8.3,7.3l1.4-1.7c0,0-1.4-7.3-8.3-8.5L4.2,6.6z"/>
							</g>
						</g>
					</g>
					<g>
						<g>
							<g>
								<path fill="#E88EA7" d="M5.6,3.7c6.8,1.2,8.3,8.5,8.3,8.5l-1.4,1.7c-0.3-0.1-0.5-0.2-0.7-0.3c0.1-1.2,0-3.7-1.7-6
									C8.3,5.1,6.8,4.2,5.4,4.1L5.6,3.7z"/>
							</g>
						</g>
					</g>
					<g>
						<g>
							<g>
								<path fill="#CBD6E0" d="M2.8,17.3C2.4,17.4,1.9,17,2,16.5c0.4-3,0.5-6,0.2-8.9c0-0.5-0.1-1,0-1.4c0.1-0.5,0.3-0.9,0.7-1.2
									c0.6-0.4,1.5-0.3,2-0.8c0.3-0.2,0.5-0.6,0.7-0.8c0.7-0.8,2-1,3.1-0.7c1.1,0.3,1.9,1.1,2.7,1.9c0,0-1.6-1.1-3.7-0.3
									C5.6,5,11.6,15.8,2.8,17.3z"/>
							</g>
						</g>
					</g>
				</g>
				<g>
					<g>
						<g>
							<path fill="#BBC7D1" d="M4.3,5.9C4.6,5.1,5.2,4,5.8,3.3c0.6-0.6,1.6-0.8,2.3-0.7c0.7,0.1,1.5,0.5,2.1,0.9
								c0.4,0.3,0.8,0.6,1.2,0.9c-0.4-0.5-0.9-0.9-1-1c-0.8-0.6-1.6-1-2.2-1.1c-1-0.2-2,0.2-2.6,0.8C5,3.8,4.4,5.1,4.3,5.9z"/>
						</g>
					</g>
				</g>
			</g>
		</g>
	</g>
	<g>
		<g>
			<g>
				<g>
					<circle fill="#DAE5EF" cx="18" cy="17.1" r="10.5"/>
				</g>
			</g>
		</g>
		<g>
			<g>
				<g>
					<path fill="#DAE5EF" d="M30.5,21.4c2.4,3.7-2.6,11.1-12.5,11.1c-9.9,0-14.9-7.4-12.5-11.1c2-3.8,5.8,0.2,12.5,0.2
						C24.7,21.6,28.5,17.6,30.5,21.4z"/>
				</g>
			</g>
		</g>
		<g>
			<g>
				<g>
					<ellipse fill="#DAE5EF" cx="18" cy="30.1" rx="4.2" ry="3.6"/>
				</g>
			</g>
		</g>
		<g>
			<g>
				<g>
					<ellipse fill="#3E4347" cx="18" cy="29" rx="2.8" ry="3.6"/>
				</g>
			</g>
		</g>
		<g>
			<g>
				<g>
					<ellipse fill="#31373A" cx="18" cy="29" rx="1.8" ry="2.3"/>
				</g>
			</g>
		</g>
		<g>
			<g>
				<path fill="#E24B4B" d="M20,30.3c-0.4-0.5-1.1-0.7-1.6-0.5C18.1,30,17.9,30,17.6,30c-0.6,0-1.4-0.1-1.8,0.7
					c-0.1,0.1-0.1,0.3-0.1,0.4c0.5,1,1.4,1.6,2.3,1.6c1,0,1.8-0.6,2.3-1.6C20.2,30.8,20.1,30.5,20,30.3z"/>
			</g>
		</g>
		<g>
			<g>
				<g>
					<g>
						<g>
							<path fill="#FFE9AB" d="M20.3,27.8l-0.7,2.7c0,0.1-0.2,0.3-0.3,0.3h-0.6c-0.2,0-0.3-0.1-0.3-0.3l-0.2-2.9
								c0-0.2,0.1-0.4,0.1-0.3l1.8,0.2C20.2,27.4,20.3,27.6,20.3,27.8z"/>
						</g>
					</g>
				</g>
			</g>
			<g>
				<g>
					<g>
						<g>
							<path fill="#FFE9AB" d="M15.7,27.8l0.7,2.7c0,0.1,0.2,0.3,0.3,0.3h0.6c0.2,0,0.3-0.1,0.3-0.3l0.2-2.9c0-0.2-0.1-0.4-0.1-0.3
								L16,27.3C15.8,27.4,15.7,27.6,15.7,27.8z"/>
						</g>
					</g>
				</g>
			</g>
		</g>
		<g>
			<g>
				<g>
					<g>
						<g>
							<g>
								<path fill="#ACB9C1" d="M17.1,18.6c0.1,2.5-1.3,4.4-3.1,4.4s-3.4-2-3.4-4.5s1.3-4.4,3.1-4.4S17,16.1,17.1,18.6z"/>
							</g>
						</g>
					</g>
					<g>
						<g>
							<g>
								
									<ellipse transform="matrix(0.9999 1.032323e-002 -1.032323e-002 0.9999 0.1955 -0.1427)" fill="#FFFFFF" cx="13.9" cy="18.9" rx="3.1" ry="4.3"/>
							</g>
						</g>
					</g>
					<g>
						<g>
							<g>
								<g>
									
										<ellipse transform="matrix(0.9999 1.032323e-002 -1.032323e-002 0.9999 0.2029 -0.1426)" fill="#65B1EF" cx="13.9" cy="19.6" rx="1.8" ry="2.5"/>
								</g>
							</g>
						</g>
						<g>
							<g>
								<g>
									
										<ellipse transform="matrix(0.9999 1.032323e-002 -1.032323e-002 0.9999 0.2029 -0.1426)" fill="#3E4347" cx="13.9" cy="19.6" rx="1" ry="1.3"/>
								</g>
							</g>
						</g>
						<g>
							<g>
								<g>
									<circle fill="#FFFFFF" cx="14.7" cy="18.7" r="0.4"/>
								</g>
							</g>
						</g>
					</g>
				</g>
				<g>
					<g>
						<g>
							<path fill="#8D9BA3" d="M14.1,10.9c-1.2,0.3-2.6,1.7-3.2,3c0,0,1.2-1.6,3.1-2C14.8,11.7,14.7,10.7,14.1,10.9z"/>
						</g>
					</g>
				</g>
			</g>
			<g>
				<g>
					<g>
						<g>
							<g>
								<path fill="#ACB9C1" d="M18.9,18.6c-0.1,2.5,1.3,4.4,3.1,4.4s3.4-2,3.4-4.5c0.1-2.5-1.3-4.4-3.1-4.4S19,16.1,18.9,18.6z"/>
							</g>
						</g>
					</g>
					<g>
						<g>
							<g>
								
									<ellipse transform="matrix(-0.9999 1.032325e-002 -1.032325e-002 -0.9999 44.3447 37.5057)" fill="#FFFFFF" cx="22.1" cy="18.9" rx="3.1" ry="4.3"/>
							</g>
						</g>
					</g>
					<g>
						<g>
							<g>
								<g>
									
										<ellipse transform="matrix(-0.9999 1.032325e-002 -1.032325e-002 -0.9999 44.3667 38.9295)" fill="#65B1EF" cx="22.1" cy="19.6" rx="1.8" ry="2.5"/>
								</g>
							</g>
						</g>
						<g>
							<g>
								<g>
									
										<ellipse transform="matrix(-0.9999 1.032325e-002 -1.032325e-002 -0.9999 44.3667 38.9295)" fill="#3E4347" cx="22.1" cy="19.6" rx="1" ry="1.3"/>
								</g>
							</g>
						</g>
						<g>
							<g>
								<g>
									<circle fill="#FFFFFF" cx="21.3" cy="18.7" r="0.4"/>
								</g>
							</g>
						</g>
					</g>
				</g>
				<g>
					<g>
						<g>
							<path fill="#8D9BA3" d="M21.9,10.9c1.2,0.3,2.6,1.7,3.2,3c0,0-1.2-1.6-3.1-2C21.2,11.7,21.3,10.7,21.9,10.9z"/>
						</g>
					</g>
				</g>
			</g>
		</g>
		<g>
			<g>
				<g>
					<path fill="#FFFFFF" d="M23.2,27.2c-0.4,1.2-1.5,1.9-2.5,2c-1.1,0.1-2.1-0.5-2.7-1.4c-0.6,0.9-1.6,1.5-2.7,1.4
						c-1-0.1-2.1-0.8-2.5-2c-0.6-1.5,0.4-3.2,2.1-3.6c2-0.5,4.1-0.5,6.2,0C22.8,24,23.8,25.8,23.2,27.2z"/>
				</g>
			</g>
		</g>
		<g>
			<g>
				<g>
					<g>
						<path fill="#E84D88" d="M20.3,23.7c0,0.9-1.1,1.7-1.8,2.1c-0.3,0.2-0.7,0.2-1,0c-0.7-0.4-1.8-1.2-1.8-2.1c0-1.3,1-1.6,2.3-1.6
							C19.3,22,20.3,22.4,20.3,23.7z"/>
					</g>
				</g>
			</g>
			<g>
				<g>
					<g>
						<path fill="#D23F77" d="M20.3,23.7c0,0.9-1.1,1.7-1.8,2.1c-0.3,0.2-0.7,0.2-1,0c-0.6-0.4-1.6-1-1.8-1.8
							c0.5,0.3,1.1,0.5,1.9,0.5c1.4,0,2.5-0.7,2.5-1.5c0-0.1,0-0.2,0-0.2C20.2,22.9,20.3,23.2,20.3,23.7z"/>
					</g>
				</g>
			</g>
			<g opacity="0.15">
				<g>
					<g>
						
							<ellipse transform="matrix(0.9959 -9.000256e-002 9.000256e-002 0.9959 -1.9996 1.6809)" fill="#FFFFFF" cx="17.6" cy="23" rx="1.2" ry="0.6"/>
					</g>
				</g>
			</g>
		</g>
	</g>
</g>
</svg>
