<?xml version="1.0" encoding="utf-8"?>
<!-- Generator: Adobe Illustrator 18.0.0, SVG Export Plug-In . SVG Version: 6.00 Build 0)  -->
<!DOCTYPE svg PUBLIC "-//W3C//DTD SVG 1.1//EN" "http://www.w3.org/Graphics/SVG/1.1/DTD/svg11.dtd">
<svg version="1.1" id="Layer_1" xmlns="http://www.w3.org/2000/svg" xmlns:xlink="http://www.w3.org/1999/xlink" x="0px" y="0px"
	 viewBox="0 0 36 36" enable-background="new 0 0 36 36" xml:space="preserve">
<g id="XMLID_841_">
	<g id="XMLID_864_">
		<g>
			<circle fill="#84939A" cx="27.5" cy="10.8" r="6.5"/>
		</g>
	</g>
	<g id="XMLID_863_">
		<g>
			<circle fill="#ABB8C1" cx="27.5" cy="10.8" r="4.5"/>
		</g>
	</g>
	<g id="XMLID_862_">
		<g>
			<circle fill="#84939A" cx="8.5" cy="10.8" r="6.5"/>
		</g>
	</g>
	<g id="XMLID_861_">
		<g>
			<circle fill="#ABB8C1" cx="8.5" cy="10.8" r="4.5"/>
		</g>
	</g>
	<g id="XMLID_860_">
		<g>
			<path fill="#8D9BA3" d="M6.4,16.9c0,6.5,8.3,14.8,11.6,14.8c3.3,0,11.6-8.3,11.6-14.8c0-4.3-5.2-8.7-11.6-8.7
				C11.6,8.2,6.4,12.6,6.4,16.9z"/>
		</g>
	</g>
	<g id="XMLID_856_">
		<g id="XMLID_859_">
			<g>
				<circle fill="#FFFFFF" cx="22.1" cy="16.5" r="2.1"/>
			</g>
		</g>
		<g id="XMLID_858_">
			<g>
				<circle fill="#3F4347" cx="22.1" cy="16.5" r="1.3"/>
			</g>
		</g>
		<g id="XMLID_857_">
			<g>
				<circle fill="#FFFFFF" cx="23" cy="15.5" r="0.6"/>
			</g>
		</g>
	</g>
	<g id="XMLID_852_">
		<g id="XMLID_855_">
			<g>
				<circle fill="#FFFFFF" cx="13.9" cy="16.5" r="2.1"/>
			</g>
		</g>
		<g id="XMLID_854_">
			<g>
				<circle fill="#3F4347" cx="13.9" cy="16.5" r="1.3"/>
			</g>
		</g>
		<g id="XMLID_853_">
			<g>
				<circle fill="#FFFFFF" cx="14.8" cy="15.5" r="0.6"/>
			</g>
		</g>
	</g>
	<g id="XMLID_843_">
		<g id="XMLID_848_">
			<g id="XMLID_851_">
				<g>
					<path fill="#3F4347" d="M15.9,27.6c0,0-0.6-0.2-1.5-0.2c-0.4,0-1,0-1.5,0.1c-0.5,0.1-1.1,0.2-1.7,0.5c-0.3,0.1-0.5,0.2-0.8,0.4
						c-0.3,0.1-0.5,0.3-0.7,0.4C9.4,29,9.2,29.1,9,29.3c-0.2,0.1-0.4,0.3-0.5,0.5c-0.3,0.3-0.5,0.6-0.7,0.8
						c-0.2,0.2-0.3,0.3-0.3,0.3s0.1-0.1,0.3-0.3c0.2-0.2,0.4-0.5,0.7-0.8c0.2-0.1,0.3-0.3,0.5-0.5c0.2-0.1,0.4-0.3,0.6-0.5
						c0.2-0.1,0.5-0.3,0.7-0.4c0.3-0.1,0.5-0.3,0.8-0.3c0.5-0.2,1.1-0.3,1.7-0.4c0.5-0.1,1-0.1,1.5,0c0.9,0.1,1.4,0.2,1.4,0.2
						c0.1,0,0.2,0,0.2-0.1C16,27.8,16,27.7,15.9,27.6C15.9,27.7,15.9,27.7,15.9,27.6L15.9,27.6z"/>
				</g>
			</g>
			<g id="XMLID_850_">
				<g>
					<path fill="#3F4347" d="M15.1,26.7c0,0-0.5-0.1-1.3-0.1c-0.8,0-1.8,0.2-2.8,0.6c-0.2,0.1-0.5,0.2-0.7,0.3
						c-0.2,0.1-0.4,0.2-0.6,0.4c-0.2,0.1-0.4,0.3-0.6,0.4c-0.2,0.1-0.3,0.3-0.5,0.4c-0.3,0.2-0.5,0.5-0.6,0.7
						c-0.1,0.2-0.2,0.3-0.2,0.3s0.1-0.1,0.2-0.3c0.2-0.2,0.4-0.4,0.7-0.6c0.1-0.1,0.3-0.3,0.5-0.4c0.2-0.1,0.4-0.3,0.6-0.4
						c0.2-0.1,0.4-0.2,0.6-0.3c0.2-0.1,0.5-0.2,0.7-0.3c1-0.3,2-0.4,2.7-0.4c0.8,0,1.2,0.1,1.2,0.1c0.1,0,0.2,0,0.2-0.1
						C15.3,26.8,15.2,26.7,15.1,26.7C15.1,26.7,15.1,26.7,15.1,26.7L15.1,26.7z"/>
				</g>
			</g>
			<g id="XMLID_849_">
				<g>
					<path fill="#3F4347" d="M14.8,25.8c0,0-0.5-0.1-1.2-0.1c-0.7,0-1.6,0.2-2.5,0.5c-0.4,0.2-0.9,0.4-1.2,0.6
						c-0.2,0.1-0.3,0.2-0.5,0.4c-0.2,0.1-0.3,0.2-0.4,0.4c-0.3,0.2-0.5,0.4-0.6,0.6c-0.1,0.2-0.2,0.2-0.2,0.2s0.1-0.1,0.2-0.2
						c0.1-0.1,0.3-0.4,0.6-0.6c0.1-0.1,0.3-0.2,0.4-0.3c0.2-0.1,0.3-0.2,0.5-0.3c0.4-0.2,0.8-0.4,1.2-0.5c0.9-0.3,1.8-0.4,2.5-0.4
						c0.7,0,1.1,0.1,1.1,0.1c0.1,0,0.2,0,0.2-0.1C15,25.9,14.9,25.8,14.8,25.8C14.8,25.8,14.8,25.8,14.8,25.8L14.8,25.8z"/>
				</g>
			</g>
		</g>
		<g id="XMLID_844_">
			<g id="XMLID_847_">
				<g>
					<path fill="#3F4347" d="M20.2,28c0,0,0.5-0.2,1.4-0.2c0.4,0,0.9,0,1.5,0c0.5,0.1,1.1,0.2,1.7,0.4c0.3,0.1,0.5,0.2,0.8,0.3
						c0.3,0.1,0.5,0.3,0.7,0.4c0.2,0.1,0.4,0.3,0.6,0.5c0.2,0.1,0.4,0.3,0.5,0.5c0.3,0.3,0.6,0.6,0.7,0.8c0.2,0.2,0.3,0.3,0.3,0.3
						s-0.1-0.1-0.3-0.3c-0.2-0.2-0.4-0.5-0.7-0.8c-0.2-0.2-0.3-0.3-0.5-0.5c-0.2-0.2-0.4-0.3-0.6-0.5c-0.2-0.1-0.5-0.3-0.7-0.4
						c-0.3-0.1-0.5-0.3-0.8-0.4c-0.5-0.2-1.1-0.4-1.7-0.5c-0.6-0.1-1.1-0.1-1.5-0.1c-0.9,0-1.5,0.2-1.5,0.2l0,0
						c-0.1,0-0.2,0.1-0.1,0.2C20,28,20.1,28,20.2,28C20.2,28,20.2,28,20.2,28z"/>
				</g>
			</g>
			<g id="XMLID_846_">
				<g>
					<path fill="#3F4347" d="M20.9,27c0,0,0.5-0.1,1.2-0.1c0.7,0,1.8,0.1,2.7,0.4c0.2,0.1,0.5,0.2,0.7,0.3c0.2,0.1,0.4,0.2,0.6,0.3
						c0.2,0.1,0.4,0.3,0.6,0.4c0.2,0.1,0.3,0.3,0.5,0.4c0.3,0.2,0.5,0.5,0.7,0.6c0.2,0.2,0.2,0.3,0.2,0.3s-0.1-0.1-0.2-0.3
						c-0.1-0.2-0.4-0.4-0.6-0.7c-0.1-0.1-0.3-0.3-0.5-0.4c-0.2-0.1-0.4-0.3-0.6-0.4c-0.2-0.1-0.4-0.3-0.6-0.4
						c-0.2-0.1-0.5-0.2-0.7-0.3c-1-0.4-2-0.5-2.8-0.6c-0.8,0-1.3,0.1-1.3,0.1l0,0c-0.1,0-0.2,0.1-0.1,0.2C20.7,27,20.8,27,20.9,27
						C20.9,27,20.9,27,20.9,27z"/>
				</g>
			</g>
			<g id="XMLID_845_">
				<g>
					<path fill="#3F4347" d="M21.3,26.1c0,0,0.4-0.1,1.1-0.1c0.7,0,1.6,0.1,2.5,0.4c0.4,0.1,0.8,0.3,1.2,0.5
						c0.2,0.1,0.4,0.2,0.5,0.3c0.2,0.1,0.3,0.2,0.4,0.3c0.3,0.2,0.5,0.4,0.6,0.6c0.1,0.1,0.2,0.2,0.2,0.2s-0.1-0.1-0.2-0.2
						c-0.1-0.2-0.3-0.4-0.6-0.6c-0.1-0.1-0.3-0.2-0.4-0.4c-0.2-0.1-0.3-0.3-0.5-0.4c-0.4-0.2-0.8-0.5-1.2-0.6
						c-0.9-0.3-1.8-0.5-2.5-0.5c-0.7,0-1.2,0.1-1.2,0.1l0,0c-0.1,0-0.2,0.1-0.1,0.2C21.1,26.1,21.2,26.2,21.3,26.1
						C21.3,26.1,21.3,26.1,21.3,26.1z"/>
				</g>
			</g>
		</g>
	</g>
	<g id="XMLID_842_">
		<g>
			<path fill="#3F4347" d="M16.2,23.6h3.7c0.7,0,1.1,0.9,0.6,1.4l-1.8,1.8c-0.3,0.3-0.8,0.3-1.1,0L15.6,25
				C15.1,24.5,15.4,23.6,16.2,23.6z"/>
		</g>
	</g>
</g>
</svg>
