<?xml version="1.0" encoding="utf-8"?>
<!-- Generator: Adobe Illustrator 18.0.0, SVG Export Plug-In . SVG Version: 6.00 Build 0)  -->
<!DOCTYPE svg PUBLIC "-//W3C//DTD SVG 1.1//EN" "http://www.w3.org/Graphics/SVG/1.1/DTD/svg11.dtd">
<svg version="1.1" id="Layer_1" xmlns="http://www.w3.org/2000/svg" xmlns:xlink="http://www.w3.org/1999/xlink" x="0px" y="0px"
	 viewBox="0 0 36 36" enable-background="new 0 0 36 36" xml:space="preserve">
<g>
	<g>
		<g>
			<g>
				<g>
					<g>
						<path fill="#8F6D52" d="M32.1,19.2c0,5.3-6.3,9.6-14.1,9.6c-7.8,0-14.1-4.3-14.1-9.6c0-2.5,1.4-4.8,3.8-6.5
							C9.6,5.7,12.9,2,18,2c5.1,0,8.4,3.7,10.3,10.7C30.6,14.4,32.1,16.7,32.1,19.2z"/>
					</g>
				</g>
			</g>
			<g>
				<g>
					<g>
						<g>
							<path fill="#8F6D52" d="M29,9.8c0.4,3.6-1.4,6.5-4.1,6.5s-5.1-2.9-5.5-6.5s1.4-6.5,4.1-6.5S28.6,6.2,29,9.8z"/>
						</g>
					</g>
				</g>
				<g>
					<g>
						<g>
							<path fill="#8F6D52" d="M7,9.8c-0.4,3.6,1.4,6.5,4.1,6.5s5.1-2.9,5.5-6.5c0.4-3.6-1.4-6.5-4.1-6.5S7.4,6.2,7,9.8z"/>
						</g>
					</g>
				</g>
			</g>
			<g>
				<g>
					<g>
						<g>
							<g>
								<g>
									<path fill="#3E4347" d="M26,12.1c0.2,2.8-1.1,5.1-3,5.1s-3.6-2.3-3.8-5.1c-0.2-2.8,1.1-5.1,3-5.1S25.8,9.2,26,12.1z"/>
								</g>
							</g>
						</g>
						<g>
							<g>
								<g>
									<path fill="#FFFFFF" d="M25.7,12.5c0.2,2.6-1.1,4.7-2.9,4.7s-3.3-2.1-3.5-4.7c-0.2-2.6,1.1-4.7,2.9-4.7
										C23.9,7.8,25.5,9.9,25.7,12.5z"/>
								</g>
							</g>
						</g>
						<g>
							<g>
								<g>
									<g>
										<path fill="#65B1EF" d="M23.7,12.7c0,1.4-0.8,2.5-1.9,2.5c-1,0-1.9-1.1-1.9-2.5c0-1.4,0.8-2.5,1.9-2.5
											C22.9,10.2,23.7,11.3,23.7,12.7z"/>
									</g>
								</g>
							</g>
							<g>
								<g>
									<g>
										<path fill="#3E4347" d="M22.9,12.9c0,0.8-0.5,1.5-1.1,1.5s-1.1-0.7-1.1-1.5c0-0.8,0.5-1.5,1.1-1.5S22.9,12.1,22.9,12.9z"
											/>
									</g>
								</g>
							</g>
							<g>
								<g>
									<g>
										<circle fill="#FFFFFF" cx="22.7" cy="12.1" r="0.5"/>
									</g>
								</g>
							</g>
						</g>
						<g>
							<g>
								<g>
									<path fill="#65B1EF" d="M23.7,12.7c0,1.4-0.8,2.5-1.9,2.5c-1,0-1.9-1.1-1.9-2.5c0-1.4,0.8-2.5,1.9-2.5
										C22.9,10.2,23.7,11.3,23.7,12.7z"/>
								</g>
							</g>
						</g>
						<g>
							<g>
								<g>
									<path fill="#3E4347" d="M22.9,12.9c0,0.8-0.5,1.5-1.1,1.5s-1.1-0.7-1.1-1.5c0-0.8,0.5-1.5,1.1-1.5S22.9,12.1,22.9,12.9z"/>
								</g>
							</g>
						</g>
						<g>
							<g>
								<g>
									<circle fill="#FFFFFF" cx="22.7" cy="12.1" r="0.5"/>
								</g>
							</g>
						</g>
					</g>
					<g>
						<g>
							<g>
								<ellipse fill="#8F6D52" cx="24.6" cy="18.3" rx="6.5" ry="3.9"/>
							</g>
						</g>
					</g>
					<g>
						<g>
							<g>
								<path fill="#846144" d="M27.7,14.9c-1.3-0.3-3-0.4-4.5-0.2c-1.4,0.2-3.1,0.7-4.2,1.5c0.6-0.8,2-1.7,4.1-2
									C24.9,14,26.8,14.4,27.7,14.9z"/>
							</g>
						</g>
					</g>
				</g>
				<g>
					<g>
						<g>
							<g>
								<g>
									<path fill="#3E4347" d="M10,12.1c-0.2,2.8,1.1,5.1,3,5.1s3.6-2.3,3.8-5.1c0.2-2.8-1.1-5.1-3-5.1S10.2,9.2,10,12.1z"/>
								</g>
							</g>
						</g>
						<g>
							<g>
								<g>
									<path fill="#FFFFFF" d="M10.3,12.5c-0.2,2.6,1.1,4.7,2.9,4.7s3.3-2.1,3.5-4.7c0.2-2.6-1.1-4.7-2.9-4.7S10.5,9.9,10.3,12.5z
										"/>
								</g>
							</g>
						</g>
						<g>
							<g>
								<g>
									<g>
										<path fill="#65B1EF" d="M12.3,12.7c0,1.4,0.8,2.5,1.9,2.5s1.9-1.1,1.9-2.5c0-1.4-0.8-2.5-1.9-2.5S12.3,11.3,12.3,12.7z"/>
									</g>
								</g>
							</g>
							<g>
								<g>
									<g>
										<path fill="#3E4347" d="M13.1,12.9c0,0.8,0.5,1.5,1.1,1.5c0.6,0,1.1-0.7,1.1-1.5c0-0.8-0.5-1.5-1.1-1.5
											C13.6,11.4,13.1,12.1,13.1,12.9z"/>
									</g>
								</g>
							</g>
							<g>
								<g>
									<g>
										<circle fill="#FFFFFF" cx="13.4" cy="12.1" r="0.5"/>
									</g>
								</g>
							</g>
						</g>
						<g>
							<g>
								<g>
									<path fill="#65B1EF" d="M12.3,12.7c0,1.4,0.8,2.5,1.9,2.5s1.9-1.1,1.9-2.5c0-1.4-0.8-2.5-1.9-2.5S12.3,11.3,12.3,12.7z"/>
								</g>
							</g>
						</g>
						<g>
							<g>
								<g>
									<path fill="#3E4347" d="M13.1,12.9c0,0.8,0.5,1.5,1.1,1.5c0.6,0,1.1-0.7,1.1-1.5c0-0.8-0.5-1.5-1.1-1.5
										C13.6,11.4,13.1,12.1,13.1,12.9z"/>
								</g>
							</g>
						</g>
						<g>
							<g>
								<g>
									<circle fill="#FFFFFF" cx="13.4" cy="12.1" r="0.5"/>
								</g>
							</g>
						</g>
					</g>
					<g>
						<g>
							<g>
								<ellipse fill="#8F6D52" cx="11.5" cy="18.3" rx="6.5" ry="3.9"/>
							</g>
						</g>
					</g>
					<g>
						<g>
							<g>
								<path fill="#846144" d="M8.3,14.9c1-0.5,2.8-0.9,4.5-0.7c2.1,0.3,3.6,1.2,4.1,2c-1.1-0.8-2.8-1.3-4.2-1.5
									C11.2,14.6,9.6,14.6,8.3,14.9z"/>
							</g>
						</g>
					</g>
				</g>
			</g>
			<g>
				<g>
					<g>
						<g>
							<path fill="#846144" d="M15.9,5.5c-0.1-0.2-0.2-0.3-0.3-0.5C15.7,5.2,15.8,5.3,15.9,5.5z"/>
						</g>
					</g>
					<g>
						<g>
							<path fill="#846144" d="M20.1,5.5c0.1-0.2,0.2-0.4,0.3-0.5C20.3,5.2,20.2,5.3,20.1,5.5z"/>
						</g>
					</g>
					<g>
						<g>
							<path fill="#846144" d="M30.2,24.6c-3.2,3.3-7.6,4.5-12.2,4.6c-3.3-0.1-6.7-0.7-9.6-2.5c-1.7-1-3.6-2.8-4.4-5
								c-1-2.1-0.8-5.9,2.9-8.9c-0.6-2.1-0.1-4.5,0.7-6.1c0.6-1.2,1.2-1.9,2-2.5c0.9-0.7,1.8-1.1,3-1.1c1.3,0,2.2,0.7,3,1.8
								c-0.8-1.1-1.9-1.6-3-1.6c-1,0-2,0.4-2.8,1.1C9.1,5.1,8.6,5.8,8,7c-0.8,1.8-1.1,4-0.4,5.9v0l0.1,0.2c-3.3,2.8-3.7,6-2.6,8.3
								c0.8,1.9,2.4,3.4,4.1,4.3c2.5,1.6,5.7,2.2,8.9,2.2c4.4-0.2,8.2-1,11.3-4.1c1.4-1.4,2.3-3.4,2.1-5.4c-0.2-2.1-1.3-3.8-2.9-5.2
								v0l-0.2-0.1c0.5-1.5,0.5-3,0.3-4.2c-0.3-1.3-0.8-2.6-1.7-3.7c-0.9-1-2.1-1.9-3.5-1.9c-1.1,0-2.1,0.5-3,1.6
								c0.7-1,1.7-1.7,3-1.8c1.4,0,2.8,0.7,3.7,1.8c1,1.1,1.6,2.4,1.9,3.8c0.3,1.2,0.3,2.8,0,4.1c1.7,1.3,3.1,3.2,3.4,5.5
								C32.7,20.6,31.7,23,30.2,24.6z"/>
						</g>
					</g>
				</g>
			</g>
		</g>
		<g>
			<g>
				<g>
					<g>
						<g>
							<path fill="#3E4347" d="M14.8,5.5c0,0-2.4-0.7-5.2,2.8C10.3,6.8,12.8,2.7,14.8,5.5z"/>
						</g>
					</g>
				</g>
			</g>
			<g>
				<g>
					<g>
						<g>
							<path fill="#3E4347" d="M21.2,5.5c0,0,2.4-0.7,5.2,2.8C25.8,6.8,23.2,2.7,21.2,5.5z"/>
						</g>
					</g>
				</g>
			</g>
		</g>
	</g>
	<g>
		<g>
			<g>
				<ellipse fill="#3E4347" cx="17.8" cy="24.7" rx="4.6" ry="4.9"/>
			</g>
		</g>
	</g>
	<g>
		<g>
			<g>
				<path fill="#846144" d="M13,27.7c1,1.8,2.8,3,4.8,3s3.8-1.2,4.8-3H13z"/>
			</g>
		</g>
	</g>
	<g>
		<g>
			<g>
				<ellipse fill="#8F6D52" cx="17.8" cy="24.7" rx="4.6" ry="4.9"/>
			</g>
		</g>
	</g>
	<g>
		<g>
			<g>
				<ellipse fill="#31373A" cx="17.8" cy="24.7" rx="3.7" ry="4"/>
			</g>
		</g>
	</g>
	<g>
		<g>
			<g>
				<ellipse fill="#31373A" cx="17.8" cy="24.7" rx="3.7" ry="4"/>
			</g>
		</g>
	</g>
	<g>
		<g>
			<path fill="#E24B4B" d="M17.8,28.6c1,0,1.9-0.4,2.5-1.1c-0.1-0.9-0.6-1.6-1.3-2c-0.4-0.2-0.8-0.1-1.2,0.1
				c-0.2,0.1-0.5,0.2-0.7,0.1c-0.4-0.1-0.9-0.1-1.2,0.2c-0.4,0.4-0.7,0.9-0.8,1.5C15.9,28.2,16.8,28.6,17.8,28.6z"/>
		</g>
	</g>
	<g>
		<g>
			<g>
				<g>
					<g>
						<path fill="#DAE5EF" d="M20.4,33.9c-0.2,0.3-0.7,0.1-0.7-0.2c0.2-2.1,0.4-6.8-0.6-9.7h4.4C23.5,24,23.7,29.6,20.4,33.9z"/>
					</g>
				</g>
			</g>
			<g>
				<g>
					<path fill="#CBD6E0" d="M23.5,24h-2.4c1.6,4-0.3,8.1-0.8,9.1c-0.4,1-0.6,0.6-0.6,0.6c0,0.3,0.5,0.4,0.7,0.2
						C23.7,29.6,23.5,24,23.5,24z"/>
				</g>
			</g>
		</g>
		<g>
			<g>
				<g>
					<g>
						<path fill="#DAE5EF" d="M15.6,33.9c0.2,0.3,0.7,0.1,0.7-0.2c-0.2-2.1-0.4-6.8,0.6-9.7h-4.4C12.5,24,12.3,29.6,15.6,33.9z"/>
					</g>
				</g>
			</g>
			<g>
				<g>
					<path fill="#CBD6E0" d="M12.5,24h2.4c-1.6,4,0.3,8.1,0.8,9.1c0.4,1,0.6,0.6,0.6,0.6c0,0.3-0.5,0.4-0.7,0.2
						C12.3,29.6,12.5,24,12.5,24z"/>
				</g>
			</g>
		</g>
	</g>
	<g>
		<g>
			<g>
				<path fill="#A5856F" d="M25.5,22.1c0,0-0.1,0.6-0.4,1.1c-1.2,2.1-3.6,2.7-5.5,1.7c-1-0.5-2.2-0.5-3.2,0c-1.7,0.9-4,0.5-5.2-1.2
					c-1.7-2.2-0.6-5.1,1.8-5.8c3.3-1,6.6-1,9.9,0C24.7,18.5,25.9,20.3,25.5,22.1z"/>
			</g>
		</g>
	</g>
	<g>
		<g>
			<g>
				<g>
					<path fill="#5A5F63" d="M21.1,18.2c0,1.2-1.4,2.2-2.3,2.7c-0.4,0.3-1,0.3-1.4,0c-0.9-0.5-2.3-1.5-2.3-2.7
						c0-1.7,1.4-2.4,3.1-2.4C19.7,15.8,21.1,16.5,21.1,18.2z"/>
				</g>
			</g>
		</g>
		<g>
			<g>
				<g>
					<g>
						<g>
							<path fill="#3E4347" d="M18.3,20.5c0,0,0.4-3.3,1.9-2.2C21.2,19,18.3,20.5,18.3,20.5z"/>
						</g>
					</g>
				</g>
				<g>
					<g>
						<g>
							<path fill="#31373A" d="M20.2,19.1C20.1,19.1,20.1,19.1,20.2,19.1c-1-0.8-1.7,0.9-1.8,1.3c0.1-0.5,0.5-3.1,1.8-2.2
								C20.5,18.5,20.4,18.8,20.2,19.1z"/>
						</g>
					</g>
				</g>
			</g>
			<g>
				<g>
					<g>
						<g>
							<path fill="#3E4347" d="M17.7,20.5c0,0-0.4-3.3-1.9-2.2C14.8,19,17.7,20.5,17.7,20.5z"/>
						</g>
					</g>
				</g>
				<g>
					<g>
						<g>
							<path fill="#31373A" d="M15.8,19.1C15.9,19.1,15.9,19.1,15.8,19.1c1-0.8,1.7,0.9,1.8,1.3c-0.1-0.5-0.5-3.1-1.8-2.2
								C15.5,18.5,15.6,18.8,15.8,19.1z"/>
						</g>
					</g>
				</g>
			</g>
		</g>
		<g opacity="0.1">
			<g>
				<ellipse fill="#FFFFFF" cx="18" cy="16.9" rx="1.2" ry="0.6"/>
			</g>
		</g>
	</g>
</g>
</svg>
