<?xml version="1.0" encoding="utf-8"?>
<!-- Generator: Adobe Illustrator 18.0.0, SVG Export Plug-In . SVG Version: 6.00 Build 0)  -->
<!DOCTYPE svg PUBLIC "-//W3C//DTD SVG 1.1//EN" "http://www.w3.org/Graphics/SVG/1.1/DTD/svg11.dtd">
<svg version="1.1" id="Layer_1" xmlns="http://www.w3.org/2000/svg" xmlns:xlink="http://www.w3.org/1999/xlink" x="0px" y="0px"
	 viewBox="0 0 36 36" enable-background="new 0 0 36 36" xml:space="preserve">
<g>
	<g>
		<g>
			<g>
				<g>
					<g>
						<path fill="#8CC63E" d="M29.2,14.3c0.8,6.2-5.1,11.2-11.2,11.2c-6.1,0-11.9-5-11.2-11.2C7.7,5.5,11.6,2.6,18,2.6
							C24.4,2.6,28.3,5.5,29.2,14.3z"/>
					</g>
				</g>
			</g>
			<g>
				<g>
					<g>
						<g>
							<ellipse fill="#8CC63E" cx="12.6" cy="9.1" rx="4.8" ry="6.8"/>
						</g>
					</g>
				</g>
				<g>
					<g>
						<g>
							<ellipse fill="#8CC63E" cx="23.4" cy="9.1" rx="4.8" ry="6.8"/>
						</g>
					</g>
				</g>
			</g>
			<g>
				<g>
					<g>
						<g>
							<path fill="#7FB239" d="M16.2,4.6C14.7,3,13.2,2,11.3,3C10.2,3.6,9.3,4.7,9,5.5C8.4,6.6,8.1,8,8,9.3c0.1,1.8-0.1,0,0.2,2.5
								c-0.5-1.4-0.5-1.3-0.6-2.5C7.6,8,7.7,6.4,8.3,5.2C8.7,4.3,9.8,3,11.1,2.4C13.2,1.4,14.9,2.5,16.2,4.6z"/>
						</g>
					</g>
				</g>
				<g>
					<g>
						<g>
							<path fill="#7FB239" d="M27.7,11.8c0.2-1.1,0.7-3.9-0.7-6.3c-0.4-0.9-1.6-2.4-3-2.8c-2.1-0.6-3.4,0.9-4.2,1.8
								c1.4-2.4,3.2-2.8,4.4-2.4c1.8,0.4,3,2.1,3.5,3.1C28.4,6.6,28.7,9,27.7,11.8z"/>
						</g>
					</g>
				</g>
			</g>
			<g>
				<g>
					<g>
						<g>
							<g>
								<g>
									<ellipse fill="#FFFFFF" cx="23.2" cy="9.1" rx="3.6" ry="4.7"/>
								</g>
							</g>
						</g>
						<g>
							<g>
								<g>
									<g>
										<ellipse fill="#65B1EF" cx="22.9" cy="9.8" rx="2.3" ry="3"/>
									</g>
								</g>
							</g>
							<g>
								<g>
									<g>
										<ellipse fill="#3E4347" cx="22.9" cy="10.4" rx="1.3" ry="1.7"/>
									</g>
								</g>
							</g>
						</g>
					</g>
					<g>
						<g>
							<g>
								<path fill="#FFFFFF" d="M24.2,9.3c0,0.3-0.3,0.6-0.6,0.6c-0.3,0-0.6-0.3-0.6-0.6c0-0.3,0.3-0.6,0.6-0.6
									C24,8.7,24.2,9,24.2,9.3z"/>
							</g>
						</g>
					</g>
				</g>
				<g>
					<g>
						<g>
							<g>
								<g>
									<ellipse fill="#FFFFFF" cx="12.8" cy="9.1" rx="3.6" ry="4.7"/>
								</g>
							</g>
						</g>
						<g>
							<g>
								<g>
									<g>
										<ellipse fill="#65B1EF" cx="13.1" cy="9.8" rx="2.3" ry="3"/>
									</g>
								</g>
							</g>
							<g>
								<g>
									<g>
										<ellipse fill="#3E4347" cx="13.1" cy="10.4" rx="1.3" ry="1.7"/>
									</g>
								</g>
							</g>
						</g>
					</g>
					<g>
						<g>
							<g>
								<path fill="#FFFFFF" d="M14.5,9.3c0,0.3-0.3,0.6-0.6,0.6c-0.3,0-0.6-0.3-0.6-0.6c0-0.3,0.3-0.6,0.6-0.6
									C14.2,8.7,14.5,9,14.5,9.3z"/>
							</g>
						</g>
					</g>
				</g>
			</g>
			<g>
				<g>
					<g>
						<path fill="#FFE9AB" d="M29.8,18.4c0,4.6-5.3,8.3-11.8,8.3S6.2,23,6.2,18.4s5.3-0.8,11.8-0.8S29.8,13.9,29.8,18.4z"/>
					</g>
				</g>
			</g>
			<g>
				<g>
					<ellipse fill="#FFE9AB" cx="18" cy="19.2" rx="5.6" ry="3.6"/>
				</g>
			</g>
			<g>
				<g>
					<g>
						<path fill="#FFD68D" d="M23.6,18.7c-1.1-2.1-3.3-2.9-5.6-2.9c-4.2,0-5.6,2.9-5.6,2.9s0.4-3.3,5.6-3.4
							C21.5,15.3,23.3,17.1,23.6,18.7z"/>
					</g>
				</g>
			</g>
			<g>
				<g>
					<g>
						<path fill="#3E4347" d="M26.4,21.9c-1.4,0.8-2.9,1.4-4,1.8c-0.7,0.2-1.3,0.5-1.9,0.8C20,24.7,19,24.9,18,24.9
							c-1,0-2-0.2-2.5-0.5c-0.6-0.3-1.2-0.6-1.9-0.8c-1.1-0.4-2.6-1-4-1.8c-1.4-0.8,0.1-2.3,1.2-0.5c0.9,1.4,6.3,3.9,7.2,0.8l0,0
							c0,0,0,0,0,0c0.9,3.1,6.4,0.6,7.2-0.8C26.4,19.6,27.8,21.1,26.4,21.9z"/>
					</g>
				</g>
			</g>
			<g>
				<g>
					<g>
						<g>
							<g>
								<path fill="#FFDC97" d="M21,18c-0.1,0.8-1.1,1-2,1.1c0.2-0.4,0.5-1.3,0.9-1.7C20.4,17,21,17.4,21,18z"/>
							</g>
						</g>
					</g>
					<g>
						<g>
							<g>
								<path fill="#FFD68D" d="M21.1,18.5c0.2-0.3,0.2-0.9,0-1.2c-0.2-0.4-0.8-0.4-1.1-0.2c0,0,0.7-0.6,1.3,0.1
									C21.5,17.6,21.4,18.2,21.1,18.5z"/>
							</g>
						</g>
					</g>
					<g>
						<g>
							<g>
								<path fill="#FFD68D" d="M21,18c0,0.3-0.2,0.5-0.4,0.7c0,0,0-0.1,0-0.1c0-0.4-0.3-0.6-0.7-0.3c-0.2,0.2-0.8,0.6-0.9,0.9
									c0.2-0.4,0.5-1.3,0.9-1.7C20.4,17,21,17.4,21,18z"/>
							</g>
						</g>
					</g>
				</g>
				<g>
					<g>
						<g>
							<g>
								<path fill="#FFDC97" d="M15,18c0.1,0.8,1.1,1,2,1.1c-0.2-0.4-0.5-1.3-0.9-1.7C15.6,17,15,17.4,15,18z"/>
							</g>
						</g>
					</g>
					<g>
						<g>
							<g>
								<path fill="#FFD68D" d="M14.9,18.5c-0.2-0.3-0.2-0.9,0-1.2c0.2-0.4,0.8-0.4,1.1-0.2c0,0-0.7-0.6-1.3,0.1
									C14.5,17.6,14.6,18.2,14.9,18.5z"/>
							</g>
						</g>
					</g>
					<g>
						<g>
							<g>
								<path fill="#FFD68D" d="M15,18c0,0.3,0.2,0.5,0.4,0.7c0,0,0-0.1,0-0.1c0-0.4,0.3-0.6,0.7-0.3c0.2,0.2,0.8,0.6,0.9,0.9
									c-0.2-0.4-0.5-1.3-0.9-1.7C15.6,17,15,17.4,15,18z"/>
							</g>
						</g>
					</g>
				</g>
			</g>
			<g>
				<g>
					<g>
						<g>
							<path fill="#FFD68D" d="M28.3,21.7c-0.6-2.2-2.7-2.4-2.7-2.4C27.2,18.9,28.2,19.5,28.3,21.7z"/>
						</g>
					</g>
				</g>
				<g>
					<g>
						<g>
							<path fill="#FFD68D" d="M7.7,21.7c0.6-2.2,2.7-2.4,2.7-2.4C8.8,18.9,7.8,19.5,7.7,21.7z"/>
						</g>
					</g>
				</g>
			</g>
		</g>
		<g>
			<g>
				<g>
					<path fill="#E24B4B" d="M28.2,30.6c-0.9,1.6-3,3.1-5.1,3.3c-2.9,0.3-4.8-1.8-5.7-4.6c-0.5-1.5-0.7-2.7-0.8-3.9
						c0-0.4,0.1-0.8,0.3-1.1c0.2-0.3,0.6-0.5,1-0.4c0,0,0.1,0,0.1,0c0.2,0,0.3,0,0.4-0.1c0.4-0.2,0.8,0,1.1,0.3
						c0.3,0.3,0.5,0.7,0.5,1.2c0,1,0.1,2.1,0.3,3.2c0.3,1.6,1.1,3.1,2.8,3.1c1.5,0.1,3.2-1.1,3.8-2c0,0-0.2,1.3-1,2.1
						C25.8,31.8,27.2,31.3,28.2,30.6z"/>
				</g>
			</g>
		</g>
	</g>
	<g>
		<g>
			<g>
				<path fill="#D03F3F" d="M28.2,30.7c-0.2,0.5-1,1.4-1.9,2.1c-0.7,0.5-1.6,1-2.7,1.2c-2.4,0.5-4.4-0.7-5.5-2.9
					c-0.9-1.6-1.4-3.7-1.6-5.5c0.3,0.9,0.6,3,1.9,5.3c1.1,1.9,2.9,3.1,5.1,2.7c1-0.2,1.9-0.5,2.6-1C27.1,31.8,27.6,31.4,28.2,30.7z"
					/>
			</g>
		</g>
	</g>
	<g>
		<g>
			<g>
				<path fill="#D03F3F" d="M26.8,29.7c-0.2,1.4-1,2.1-1,2.1C26.2,31.2,26.5,30.5,26.8,29.7z"/>
			</g>
		</g>
	</g>
</g>
</svg>
