<?xml version="1.0" encoding="utf-8"?>
<!-- Generator: Adobe Illustrator 18.0.0, SVG Export Plug-In . SVG Version: 6.00 Build 0)  -->
<!DOCTYPE svg PUBLIC "-//W3C//DTD SVG 1.1//EN" "http://www.w3.org/Graphics/SVG/1.1/DTD/svg11.dtd">
<svg version="1.1" id="Layer_1" xmlns="http://www.w3.org/2000/svg" xmlns:xlink="http://www.w3.org/1999/xlink" x="0px" y="0px"
	 viewBox="0 0 36 36" enable-background="new 0 0 36 36" xml:space="preserve">
<g>
	<g>
		<g>
			<g>
				<g>
					<g>
						<g>
							<g>
								<g>
									<path fill="#89664C" d="M29.6,23c-0.2-0.7-0.3-1.5-0.5-2.2c0,1.2-0.3,2.3-1,3.2c-0.1-0.8-0.3-1.6-0.4-2.4
										c-0.1,1.8-1,3.4-2.2,4.3c0-0.8,0.1-1.6,0.1-2.4c-0.8,8.8-14.6,8.9-15.4,0c0,0.8,0.1,1.6,0.1,2.4c-1.2-0.8-2.1-2.5-2.2-4.3
										C8.1,22.4,8,23.2,7.8,24c-0.6-0.8-1-2-1-3.2c-0.2,0.7-0.4,1.5-0.5,2.2c-1.1-2.2-1.4-5.8-0.8-8.2s2.2-4.4,4.1-5.3
										C8.8,9.7,7.8,10.1,7,10.7c0.6-1.1,1.4-2,2.4-2.5c-0.5,0-1.1,0.1-1.6,0.4c2-1.8,4.5-2.5,7.5-1.9c-0.3-0.7-0.7-1.3-1.2-1.7
										c0.6,0,1.2,0,1.8,0.1c0.6,0.1,1.2,0.4,1.6,1c0.1-0.6-0.1-1.3-0.5-1.7c0.7,0.1,1.2,0.9,1.3,1.8c0,0.4,0,0.8,0,1.3
										c0.9-1.2,3.3-2,3.3-2s-0.9,0.6-1.2,1.4c3.1-0.7,5.7,0,7.7,1.8c-0.5-0.3-1-0.4-1.6-0.4c1,0.6,1.8,1.5,2.4,2.5
										c-0.8-0.6-1.7-1-2.7-1.1c1.9,0.9,3.5,2.9,4.1,5.3S30.7,20.8,29.6,23z"/>
								</g>
							</g>
						</g>
					</g>
				</g>
				<g>
					<g>
						<g>
							<g>
								<path fill="#7A5B44" d="M28.8,16.2c0,0,0.6,1.4-0.4,4.7c0-0.5-0.1-0.9-0.5-1.3c0,0-0.6,2.3-1.5,3.7L25.7,22
									c0,0-1.2,4.7-3.5,6.4c-1,0.8-2.7-0.6-4.2-2.4c-1.5,1.8-3.1,3.2-4.2,2.4c-2.3-1.7-3.5-6.4-3.5-6.4l-0.7,1.3
									c-0.9-1.4-1.2-3.2-1.2-3.2l-0.9,1.1c-1-3.3-0.3-5-0.3-5l-1,1c1.1-6.3,7.1-7.8,7.1-7.8c-0.4-0.8-1.6-1.6-1.6-1.6
									c4.1,0,5.8,1.2,6.3,1.7c0.5-0.4,2.2-1.7,6.3-1.7c0,0-1.2,0.8-1.6,1.6c0,0,6.1,1.4,7.1,7.8L28.8,16.2z"/>
							</g>
						</g>
					</g>
				</g>
				<g>
					<g>
						<g>
							<path fill="#6B503B" d="M20.5,13c0,0,1.1-1.8,2.6-1.7s2.1,0.5,2.1,0.5s-0.9-1.3-3-1.2c-2.1,0-3,0.9-3,0.9s0.6-1.8,2.2-2.2
								c0,0-2.5,0.4-3.3,2.2c0,0-0.4-1.7-1.7-2.2c0,0,0.7,0.9,0.6,2.1c0,0-0.7-1.9-3.9-2.6c0,0,1.5,1,1.7,2.6c0,0-1.6-0.5-3.2,0.1
								c0,0,2.9,0,4.4,1.4C17.6,14.3,20.5,13,20.5,13"/>
						</g>
					</g>
				</g>
				<g>
					<g>
						<g>
							<path fill="#FFD68D" d="M22.8,21.9c1,1,1.7,2.4,1.8,4.1c0.3,3.6-2.3,5.9-6.6,5.8c-4.3,0.1-6.9-2.3-6.6-5.8
								c0.1-1.7,0.8-3.1,1.8-4.1c0.5-0.5,0.3-1.3-0.3-1.5c-2.2-0.8-3.3-2.1-3.1-3.8c0.3-2.8,3.5-4.6,8.1-4.6c4.6,0,7.9,1.8,8.1,4.6
								c0.3,1.7-0.9,3.1-3.1,3.8C22.5,20.6,22.3,21.4,22.8,21.9z"/>
						</g>
					</g>
				</g>
				<g>
					<g>
						<g>
							<path fill="#F9C675" d="M23.4,20.3c-0.5,0.2-0.9,0.3-0.9,0.9c0,0.5,0.5,0.8,0.8,1.2c1.4,1.8,1.6,4.3,1,6
								c-0.8,2.1-2.7,3.1-4.9,3.3c-2,0.2-3.9,0-5.3-0.8c-1.6-0.9-2.6-2.4-2.6-4.4c0.3,1.9,1.2,3,2.9,3.8c1.5,0.7,3.8,0.6,4.9,0.4
								c1.4-0.2,3.3-0.9,4-2.7c0.6-1.5,0.2-3.7-0.7-4.9c-0.1-0.2-0.3-0.3-0.4-0.5c-1-1.1-0.5-2.6,0.7-3l0.3-0.1
								c3-0.9,3.4-3.3,1.7-5.4C27,16.2,26.7,19,23.4,20.3z"/>
						</g>
					</g>
				</g>
				<g>
					<g>
						<g>
							<g>
								<path fill="#3E4347" d="M22.3,27.4c-0.6,1.6-2.6,2-4.3,2.1c-1.9-0.1-3.8-0.4-4.3-2.1c0.9,1.3,2.7,1.5,4.3,1.5
									C19.6,28.9,21.4,28.7,22.3,27.4z"/>
							</g>
						</g>
					</g>
					<g>
						<g>
							<g>
								<g>
									<path fill="#3E4347" d="M22,26.5c0.5,0.8,1.2,0.7,1.2,0.7S22.1,27.5,22,26.5z"/>
								</g>
							</g>
						</g>
						<g>
							<g>
								<g>
									<path fill="#3E4347" d="M14,26.5c-0.1,0.9-1.2,0.7-1.2,0.7S13.5,27.3,14,26.5z"/>
								</g>
							</g>
						</g>
					</g>
				</g>
			</g>
			<g>
				<g>
					<g>
						<g>
							<g>
								<g>
									<g>
										<path fill="#FFDC97" d="M30.6,12.4c-2.8,0.2-3.4,2.1-4.2,3.6c0.8,0.7,1.2,1.7,1.3,2.8c0.8,0.1,1.4,0.4,1.9,0.5
											c0.8,0.2,1.6,0.2,2.4-0.3C35,17.6,34.3,12.2,30.6,12.4z"/>
									</g>
								</g>
							</g>
							<g>
								<g>
									<g>
										<path fill="#F9CC85" d="M32.1,17.6c-0.9,0.9-2.4,0.8-3.6,0.2c0.5-0.2,0.7-0.7,0.3-1.2c-0.3-0.4-1.3-0.5-1.3-0.5
											c0.1-1.2,1.3-1.8,1.3-1.8C31.6,12.9,33.9,16,32.1,17.6z"/>
									</g>
								</g>
							</g>
							<g>
								<g>
									<g>
										<path fill="#EDBC7A" d="M28.6,17.8c0,0,0.5,0,1.1-0.3c0.7-0.3,1.1-0.2,1.1-0.2c0,0-0.1-0.4-0.7-0.3c0,0,0.7-0.5,1.2-0.3
											c0,0-0.1-0.7-1.1-0.6c0,0,0.4-0.2,0.6-0.1c0,0-0.8-0.6-1.8-0.2c0,0,0.6-0.9,2.1-1c1.1,0,1.5,0.7,1.6,1.1
											c0-1.5-2-2.6-3.7-1.6c0,0-1.2,0.6-1.3,1.8c0,0,0.9,0,1.3,0.5C29.3,17.1,29,17.6,28.6,17.8z"/>
									</g>
								</g>
							</g>
						</g>
						<g>
							<g>
								<g>
									<path fill="#F9CC85" d="M33.2,13.6c-0.2-0.2-0.5-0.4-0.7-0.6C32.7,13.2,32.9,13.3,33.2,13.6c0.5,0.8,0.6,1.8,0.4,2.5
										c-0.3,1.3-1.3,2.5-2.3,2.8c-1.2,0.4-2.2-0.1-3.5-0.2c0,0.1,0,0.1,0,0.2c1.4,0.3,2.4,0.9,3.7,0.6c1.1-0.3,2.3-1.4,2.6-3.2
										C34.1,15.4,33.8,14.4,33.2,13.6z"/>
								</g>
							</g>
						</g>
					</g>
					<g>
						<g>
							<g>
								<path fill="#7A5B44" d="M29.5,19.5c-0.3-0.4-0.7-0.4-1.2-0.5c0.1,0.7-0.1,1.2-0.7,1.6c0.6-2-1.5-4.9-1.5-4.9
									s1.1-1.5,1.8-1.7c-0.3,0.5-0.4,1-0.5,1.5c0.5-0.3,1.1-0.6,1-1.2c0.4,0.3,0.5,1-0.3,1.9c0.5-0.1,1.1,0,1.5,0.3
									c-3.4,0.7-0.8-0.6,0.1,1.6c-0.6-0.3-1.2-0.4-1.8-0.4C28.7,17.8,29.4,18.6,29.5,19.5z"/>
							</g>
						</g>
					</g>
				</g>
				<g>
					<g>
						<g>
							<g>
								<g>
									<g>
										<path fill="#FFDC97" d="M5.4,12.4c2.8,0.2,3.4,2.1,4.2,3.6c-0.8,0.7-1.2,1.7-1.3,2.8c-0.8,0.1-1.4,0.4-1.9,0.5
											c-0.8,0.2-1.6,0.2-2.4-0.3C1,17.6,1.7,12.2,5.4,12.4z"/>
									</g>
								</g>
							</g>
							<g>
								<g>
									<g>
										<path fill="#F9CC85" d="M3.9,17.6c0.9,0.9,2.4,0.8,3.6,0.2c-0.5-0.2-0.7-0.7-0.3-1.2c0.3-0.4,1.3-0.5,1.3-0.5
											C8.3,15,7.1,14.4,7,14.4C4.4,12.9,2.1,16,3.9,17.6z"/>
									</g>
								</g>
							</g>
							<g>
								<g>
									<g>
										<path fill="#EDBC7A" d="M7.4,17.8c0,0-0.5,0-1.1-0.3c-0.7-0.3-1.1-0.2-1.1-0.2c0,0,0.1-0.4,0.7-0.3c0,0-0.7-0.5-1.2-0.3
											c0,0,0.1-0.7,1.1-0.6c0,0-0.4-0.2-0.6-0.1c0,0,0.8-0.6,1.8-0.2c0,0-0.6-0.9-2.1-1c-1.1,0-1.5,0.7-1.6,1.1
											c0-1.5,2-2.6,3.7-1.6c0,0,1.2,0.6,1.3,1.8c0,0-0.9,0-1.3,0.5C6.7,17.1,7,17.6,7.4,17.8z"/>
									</g>
								</g>
							</g>
						</g>
						<g>
							<g>
								<g>
									<path fill="#F9CC85" d="M2.8,13.6c0.2-0.2,0.5-0.4,0.7-0.6C3.3,13.2,3.1,13.3,2.8,13.6c-0.5,0.8-0.6,1.8-0.4,2.5
										c0.3,1.3,1.3,2.5,2.3,2.8c1.2,0.4,2.2-0.1,3.5-0.2c0,0.1,0,0.1,0,0.2c-1.4,0.3-2.4,0.9-3.7,0.6C3.5,19,2.2,17.9,2,16.1
										C1.9,15.4,2.2,14.4,2.8,13.6z"/>
								</g>
							</g>
						</g>
					</g>
					<g>
						<g>
							<g>
								<path fill="#7A5B44" d="M6.5,19.5c0.3-0.4,0.7-0.4,1.2-0.5c-0.1,0.7,0.1,1.2,0.7,1.6c-0.6-2,1.5-4.9,1.5-4.9
									s-1.1-1.5-1.8-1.7c0.3,0.5,0.4,1,0.5,1.5c-0.5-0.3-1.1-0.6-1-1.2c-0.4,0.3-0.5,1,0.3,1.9c-0.5-0.1-1.1,0-1.5,0.3
									c3.4,0.7,0.8-0.6-0.1,1.6c0.6-0.3,1.2-0.4,1.8-0.4C7.3,17.8,6.6,18.6,6.5,19.5z"/>
							</g>
						</g>
					</g>
				</g>
			</g>
		</g>
		<g>
			<g>
				<g>
					<g>
						<g>
							<g>
								<g>
									<path fill="#89664C" d="M18.8,26.3c-0.1,0.1-0.3,0.2-0.4,0.2c0.3-0.8,0.6-1.6,1.2-2.2c0.5-0.4,0.9-0.2,1.1,0.2
										C21.4,25.8,19.7,25.8,18.8,26.3z"/>
								</g>
							</g>
						</g>
						<g>
							<g>
								<g>
									<path fill="#7A5B44" d="M20.9,25.1C20.9,25.1,20.9,25.1,20.9,25.1c-0.3-0.5-0.7-0.7-1.2-0.3c-0.5,0.4-1,1-1.3,1.7
										c0,0,0,0,0,0c0,0,0,0,0,0c0.3-0.8,0.6-1.6,1.2-2.2c0.5-0.4,0.9-0.2,1.1,0.2C20.9,24.8,20.9,25,20.9,25.1z"/>
								</g>
							</g>
						</g>
					</g>
				</g>
				<g>
					<g>
						<g>
							<path fill="#F9C675" d="M21.1,24.5c0-0.1-0.1-0.3-0.4-0.5c-0.3-0.3-0.8-0.3-1.2-0.1c-0.3,0.2-1,1.3-1.3,1.7
								c0.3-0.7,0.6-1.6,1.1-2c0.4-0.3,1-0.3,1.5,0.2C21.1,24.2,21.1,24.4,21.1,24.5z"/>
						</g>
					</g>
				</g>
			</g>
			<g>
				<g>
					<g>
						<g>
							<g>
								<g>
									<path fill="#89664C" d="M17.2,26.3c0.1,0.1,0.3,0.2,0.4,0.2c-0.3-0.8-0.6-1.6-1.2-2.2c-0.5-0.4-0.9-0.2-1.1,0.2
										C14.6,25.8,16.3,25.8,17.2,26.3z"/>
								</g>
							</g>
						</g>
						<g>
							<g>
								<g>
									<path fill="#7A5B44" d="M15.1,25.1C15.1,25.1,15.1,25.1,15.1,25.1c0.3-0.5,0.7-0.7,1.2-0.3c0.5,0.4,1,1,1.3,1.7
										c0,0,0,0,0,0c0,0,0,0,0,0c-0.3-0.8-0.6-1.6-1.2-2.2c-0.5-0.4-0.9-0.2-1.1,0.2C15.1,24.8,15.1,25,15.1,25.1z"/>
								</g>
							</g>
						</g>
					</g>
				</g>
				<g>
					<g>
						<g>
							<path fill="#F9C675" d="M14.9,24.5c0-0.1,0.1-0.3,0.4-0.5c0.3-0.3,0.8-0.3,1.2-0.1c0.3,0.2,1,1.3,1.3,1.7
								c-0.3-0.7-0.6-1.6-1.1-2c-0.4-0.3-1-0.3-1.5,0.2C14.9,24.2,14.9,24.4,14.9,24.5z"/>
						</g>
					</g>
				</g>
			</g>
		</g>
		<g>
			<g>
				<g>
					<g>
						<path fill="#F9C675" d="M20.4,22.4c-0.8-0.3-1.5-0.5-2.4-0.5c-1.2,0-2.4,0.5-2.4,0.5c0.6-0.6,1.4-0.9,2.4-1
							C19.1,21.5,20.1,22,20.4,22.4z"/>
					</g>
				</g>
			</g>
			<g>
				<g>
					<g>
						<path fill="#F9C675" d="M16.3,20.7c0.4-0.4,1-0.8,1.7-0.8c0.7,0,1.4,0.4,1.7,0.8c-0.6-0.2-1.1-0.3-1.7-0.3
							C17.4,20.5,16.9,20.6,16.3,20.7z"/>
					</g>
				</g>
			</g>
		</g>
	</g>
	<g>
		<g>
			<g>
				<g>
					<g>
						<g>
							<g>
								<g>
									<path fill="#FFFFFF" d="M19.5,16.9c0.1,1.3,1.1,2.2,2.2,2.1c1.1-0.2,1.9-1.3,1.8-2.6c-0.1-1.3-1.1-2.2-2.2-2.1
										C20.2,14.4,19.4,15.6,19.5,16.9z"/>
								</g>
							</g>
						</g>
						<g>
							<g>
								<g>
									<g>
										<path fill="#F29A2E" d="M19.9,17c0.1,0.9,0.8,1.6,1.6,1.5c0.8-0.1,1.3-0.9,1.2-1.8c-0.1-0.9-0.8-1.6-1.6-1.5
											C20.4,15.3,19.9,16.1,19.9,17z"/>
									</g>
								</g>
							</g>
							<g>
								<g>
									<g>
										<path fill="#3E4347" d="M21.5,18.2c-0.6,0.1-1.1-0.4-1.2-1.1c-0.1-0.7,0.3-1.3,0.9-1.4c0.6-0.1,1.1,0.4,1.2,1.1
											C22.5,17.5,22,18.2,21.5,18.2z"/>
									</g>
								</g>
							</g>
							<g>
								<g>
									<g>
										<path fill="#FFFFFF" d="M20.3,15.8c0,0.3,0.3,0.5,0.6,0.4c0.3,0,0.5-0.3,0.5-0.5c0-0.3-0.3-0.5-0.6-0.4
											C20.5,15.3,20.3,15.6,20.3,15.8z"/>
									</g>
								</g>
							</g>
						</g>
					</g>
				</g>
			</g>
		</g>
		<g>
			<g>
				<g>
					<g>
						<g>
							<g>
								<g>
									<path fill="#FFFFFF" d="M12.5,16.9c0.1,1.3,1.1,2.2,2.2,2.1c1.1-0.2,1.9-1.3,1.8-2.6c-0.1-1.3-1.1-2.2-2.2-2.1
										C13.2,14.4,12.4,15.6,12.5,16.9z"/>
								</g>
							</g>
						</g>
						<g>
							<g>
								<g>
									<g>
										<path fill="#F29A2E" d="M12.9,17c0.1,0.9,0.8,1.6,1.6,1.5c0.8-0.1,1.3-0.9,1.2-1.8c-0.1-0.9-0.8-1.6-1.6-1.5
											C13.4,15.3,12.8,16.1,12.9,17z"/>
									</g>
								</g>
							</g>
							<g>
								<g>
									<g>
										<path fill="#3E4347" d="M14.5,18.2c-0.6,0.1-1.1-0.4-1.2-1.1c-0.1-0.7,0.3-1.3,0.9-1.4c0.6-0.1,1.1,0.4,1.2,1.1
											C15.4,17.5,15,18.2,14.5,18.2z"/>
									</g>
								</g>
							</g>
							<g>
								<g>
									<g>
										<path fill="#FFFFFF" d="M13.3,15.8c0,0.3,0.3,0.5,0.6,0.4c0.3,0,0.5-0.3,0.5-0.5c0-0.3-0.3-0.5-0.6-0.4
											C13.5,15.3,13.3,15.6,13.3,15.8z"/>
									</g>
								</g>
							</g>
						</g>
					</g>
				</g>
			</g>
		</g>
	</g>
</g>
</svg>
