<?xml version="1.0" encoding="utf-8"?>
<!-- Generator: Adobe Illustrator 18.0.0, SVG Export Plug-In . SVG Version: 6.00 Build 0)  -->
<!DOCTYPE svg PUBLIC "-//W3C//DTD SVG 1.1//EN" "http://www.w3.org/Graphics/SVG/1.1/DTD/svg11.dtd">
<svg version="1.1" id="Layer_1" xmlns="http://www.w3.org/2000/svg" xmlns:xlink="http://www.w3.org/1999/xlink" x="0px" y="0px"
	 viewBox="0 0 36 36" enable-background="new 0 0 36 36" xml:space="preserve">
<g>
	<g>
		<g>
			<path fill="#E18823" d="M33.9,12.9c-1.7,4.2-7.3,2.9-10.5,3l0.9-1c1.2-0.7,2.2-1.8,2.6-3.1c0.2-0.7,0.3-1.5,0.5-2.2
				c0.2-0.7,0.8-1.4,1.5-1.6C31.4,6.8,34.7,10.5,33.9,12.9z"/>
		</g>
	</g>
	<g>
		<g>
			<path fill="#F29A2E" d="M33.8,10.9c-0.7-2-3-3.8-4.9-3.1c-0.7,0.3-1.2,0.9-1.5,1.6c-0.2,0.7-0.3,1.5-0.5,2.2
				c-0.4,1.3-1.3,2.5-2.6,3.1L24.2,15l0.3,0.2c0,0,2.5-1,3.3-2.6c0.9-1.7,1.5-4,3.1-4.1C32.1,8.4,33.5,10.3,33.8,10.9z"/>
		</g>
	</g>
	<g>
		<g>
			<g>
				<path fill="#FFFFFF" d="M32.8,13c-0.3,1.2-2,1.9-3.2,2.1c-1.6,0.2-2.9-0.4-5,0.4c2-1.1,3.2-1.1,4.5-2.9c0.5-0.7,1.1-2,2-2.1
					C32,10.3,33,12,32.8,13z"/>
			</g>
		</g>
	</g>
	<g>
		<g>
			<path fill="#E9EFF4" d="M31,10.4c-0.8,0.1-1.5,1.4-2,2.1c-1.1,1.4-2.1,1.7-3.5,2.4c1.8-0.2,4.6-2,5.5-3.1c0.8-1,1.4-0.2,1.6,0
				C32.3,11,31.7,10.3,31,10.4z"/>
		</g>
	</g>
	<g>
		<g>
			<path fill="#CF7519" d="M33.9,12.9c0-0.1,0-0.1,0.1-0.2c-0.1,0.1-1.9,3.1-7.1,2.1c-0.9-0.2-1.6-0.2-2.1-0.2
				c-0.2,0.1-0.3,0.2-0.5,0.3l-0.9,0.9c0,0,0,0,0,0.1C26.7,15.8,32.2,17,33.9,12.9z"/>
		</g>
	</g>
	<g>
		<g>
			<path fill="#E18823" d="M2.1,12.9c1.7,4.2,7.3,2.9,10.5,3l-0.9-1c-1.2-0.7-2.2-1.8-2.6-3.1C8.9,11,8.9,10.2,8.6,9.5
				C8.4,8.7,7.8,8.1,7.1,7.8C4.6,6.8,1.3,10.5,2.1,12.9z"/>
		</g>
	</g>
	<g>
		<g>
			<path fill="#F29A2E" d="M2.2,10.9c0.7-2,3-3.8,4.9-3.1c0.7,0.3,1.2,0.9,1.5,1.6c0.2,0.7,0.3,1.5,0.5,2.2c0.4,1.3,1.3,2.5,2.6,3.1
				l0.1,0.1l-0.3,0.2c0,0-2.5-1-3.3-2.6c-0.9-1.7-1.5-4-3.1-4.1C3.9,8.4,2.5,10.3,2.2,10.9z"/>
		</g>
	</g>
	<g>
		<g>
			<g>
				<path fill="#FFFFFF" d="M3.2,13c0.3,1.2,2,1.9,3.2,2.1c1.6,0.2,2.9-0.4,5,0.4c-2-1.1-3.2-1.1-4.5-2.9c-0.5-0.7-1.1-2-2-2.1
					C4,10.3,3,12,3.2,13z"/>
			</g>
		</g>
	</g>
	<g>
		<g>
			<path fill="#E9EFF4" d="M5,10.4c0.8,0.1,1.5,1.4,2,2.1c1.1,1.4,2.1,1.7,3.5,2.4c-1.8-0.2-4.6-2-5.5-3.1c-0.8-1-1.4-0.2-1.6,0
				C3.7,11,4.3,10.3,5,10.4z"/>
		</g>
	</g>
	<g>
		<g>
			<path fill="#CF7519" d="M2.1,12.9c0-0.1,0-0.1-0.1-0.2c0.1,0.1,1.9,3.1,7.1,2.1c0.9-0.2,1.6-0.2,2.1-0.2c0.2,0.1,0.3,0.2,0.5,0.3
				l0.9,0.9c0,0,0,0,0,0.1C9.3,15.8,3.8,17,2.1,12.9z"/>
		</g>
	</g>
	
		<image overflow="visible" width="125" height="129" xlink:href="E30449C4.png"  transform="matrix(2.186097e-002 0 0 2.186097e-002 15.0816 16.6009)">
	</image>
	<g>
		<g>
			<path fill="#F29A2E" d="M29.2,18.8c-2.5,6.7-4.2,9.6-11.5,9.6c-7.1,0-8.7-2.9-11-9.6c-1-3.2,0.1-3.7,0.5-6.6
				c1-4,6.3-5.5,10.7-5.5c4.3,0,9.5,1.5,10.7,5.3C29.3,14.8,30.5,15.6,29.2,18.8z"/>
		</g>
	</g>
	<g>
		<g>
			<path fill="#BE630E" d="M19.2,13.9c0,0.2-0.1,0.4-0.3,0.5c-0.2,0.1-0.4,0.1-0.5,0.1c-0.4,0-1.3-0.4-1-0.9c0.2-0.4,1-0.6,1.5-0.4
				C19.1,13.4,19.3,13.6,19.2,13.9z"/>
		</g>
	</g>
	<g>
		<g>
			<path fill="#BE630E" d="M18.3,10.3c0.4,0.2,0.6,0.6,0.5,0.9c0,0.3-0.2,0.6-0.5,0.7c-0.3,0.1-0.6,0.1-0.8-0.1
				C16.8,11.4,17.2,9.8,18.3,10.3z"/>
		</g>
	</g>
	<g>
		<g>
			<path fill="#BE630E" d="M20.6,12.5c0,0.1-0.1,0.2-0.2,0.3c-0.1,0.1-0.3,0.1-0.4,0.1c-0.6-0.1-0.9-0.9-0.4-1.2
				C20.1,11.2,20.7,12.1,20.6,12.5z"/>
		</g>
	</g>
	<g>
		<g>
			<path fill="#BE630E" d="M22.6,8c0,0.1,0.1,0.3,0.1,0.4c0,0.1,0,0.1,0,0.2c0,0.1-0.1,0.1-0.2,0.1c-0.2,0-0.4,0-0.5-0.1
				c-0.3-0.2-0.3-0.7-0.1-0.9C22.1,7.4,22.5,7.7,22.6,8z"/>
		</g>
	</g>
	<g>
		<g>
			<path fill="#BE630E" d="M21.3,10.5c0,0.1-0.1,0.3-0.3,0.3c-0.1,0-0.3,0-0.4-0.1c-0.1-0.1-0.2-0.2-0.3-0.2
				c-0.1-0.1-0.2-0.3-0.3-0.4C20,9.8,19.9,9.5,20,9.3C20.3,9,20.8,9.1,21,9.4C21.2,9.6,21.4,10.2,21.3,10.5z"/>
		</g>
	</g>
	<g>
		<g>
			<path fill="#BE630E" d="M18.4,7.7c0.2,0,0.5,0,0.6-0.2c0.1-0.1,0.1-0.4,0.1-0.5c0-0.1,0-0.1,0-0.2c-0.4,0-0.7,0-1.1,0
				c-0.4,0-0.8,0-1.2,0c0,0.2,0,0.5,0.2,0.6c0.1,0.2,0.4,0.3,0.6,0.3C17.9,7.8,18.2,7.7,18.4,7.7z"/>
		</g>
	</g>
	<g>
		<g>
			<path fill="#BE630E" d="M19.8,8c-0.1,0-0.2,0-0.2-0.1c-0.5-0.3,0-0.9,0.5-0.7C20.6,7.4,20.5,8.1,19.8,8z"/>
		</g>
	</g>
	<g>
		<g>
			<path fill="#BE630E" d="M16.9,9.5c-0.5-0.1-0.4-0.6,0-0.9c0.2-0.2,0.6-0.1,0.8,0c0.2,0.1,0.4,0.3,0.3,0.6
				C17.9,9.6,17.3,9.5,16.9,9.5z"/>
		</g>
	</g>
	<g>
		<g>
			<path fill="#BE630E" d="M15.5,8.8c-0.1,0.3-0.5,0.5-0.9,0.5c-0.4-0.1-0.6-0.4-0.7-0.7c-0.1-0.4,0.2-1,0.8-0.9
				C15.1,7.8,15.7,8.3,15.5,8.8z"/>
		</g>
	</g>
	<g>
		<g>
			<path fill="#BE630E" d="M16.4,13.1c-0.2,0.1-0.5,0-0.7-0.2c-0.2-0.2-0.3-0.8-0.1-0.9c0.1-0.1,0.6-0.1,0.7,0
				C16.8,12.1,16.8,13,16.4,13.1z"/>
		</g>
	</g>
	<g>
		<g>
			<path fill="#BE630E" d="M15.6,10c0.2,0.2,0.1,0.6-0.1,0.8c-0.2,0.1-0.6,0.1-0.8-0.1C14,10.3,15.3,9.7,15.6,10z"/>
		</g>
	</g>
	<g>
		<g>
			<path fill="#BE630E" d="M10.7,22.2c-0.5,1.5-2.2,0.6-1.6-0.4C9.5,21.2,10.9,21.4,10.7,22.2z"/>
		</g>
	</g>
	<g>
		<g>
			<path fill="#BE630E" d="M7.9,11.7c0.1-0.4,0.6-0.5,0.7,0c0,0.2,0.1,0.3,0,0.5C8.3,12.4,7.7,12.1,7.9,11.7z"/>
		</g>
	</g>
	<g>
		<g>
			<path fill="#BE630E" d="M9.7,13.8c0.2,1.4-1,0.6-0.8,0C9,13.4,9.6,13,9.7,13.8z"/>
		</g>
	</g>
	<g>
		<g>
			<path fill="#BE630E" d="M11.9,8.6c0.2,0.2,0.7,0.2,1,0c0.4-0.4,0.2-0.8,0-1.1c-0.4,0.1-0.8,0.3-1.2,0.4
				C11.6,8.1,11.7,8.4,11.9,8.6z"/>
		</g>
	</g>
	<g>
		<g>
			<path fill="#BE630E" d="M6.8,17.3c-0.3-0.8,0.3-1.6,1.2,0.1c0.1,0.1,0.1,0.3,0.1,0.4C8.1,18.3,7.2,18.2,6.8,17.3z"/>
		</g>
	</g>
	<g>
		<g>
			<path fill="#BE630E" d="M7.1,14.6c-0.2-1,0.8-1.2,1.1-0.4c0.3,0.6,0.4,1.4-0.3,1.3C7.6,15.5,7.2,15.2,7.1,14.6z"/>
		</g>
	</g>
	<g>
		<g>
			<path fill="#BE630E" d="M9.3,17.2c-0.1,0.1-0.3,0.1-0.4,0c-0.1-0.1-0.2-0.2-0.2-0.3c-0.2-0.3-0.1-0.7,0.1-0.9
				c0.2-0.2,0.6-0.3,0.9-0.3C10.6,15.8,9.5,17.1,9.3,17.2z"/>
		</g>
	</g>
	<g>
		<g>
			<path fill="#BE630E" d="M9.4,20.6c-0.6,0-0.9-0.7-1.1-1.2c-0.1-0.2,0-0.3,0.2-0.4C9.6,18.9,10.2,20.6,9.4,20.6z"/>
		</g>
	</g>
	<g>
		<g>
			<path fill="#BE630E" d="M10.8,24.6c0,0.2,0,0.3-0.1,0.5c-0.1,0.1-0.2,0.1-0.3,0.1c-0.1,0-0.2-0.1-0.2-0.2
				c-0.2-0.2-0.3-0.6-0.2-0.9c0.1-0.2,0.4-0.6,0.6-0.5C10.8,23.7,10.8,24.4,10.8,24.6z"/>
		</g>
	</g>
	<g>
		<g>
			<path fill="#BE630E" d="M26.1,23.6c0-0.1,0-0.3-0.1-0.3c-0.1-0.1-0.1-0.1-0.2-0.1c-0.1,0-0.2,0-0.4,0c-0.1,0.1-0.2,0.2-0.2,0.3
				c-0.1,0.2-0.1,0.4,0,0.6C25.5,24.8,26.1,24,26.1,23.6z"/>
		</g>
	</g>
	<g>
		<g>
			<path fill="#BE630E" d="M26.8,22.2c-0.1,0-0.3,0.1-0.4,0.1c-0.2,0-0.3,0-0.5,0c-0.1,0-0.3,0-0.4-0.1c-0.1-0.1-0.1-0.3,0-0.5
				c0.1-0.2,0.3-0.3,0.4-0.3c0.2-0.1,0.3-0.1,0.5,0c0.2,0,0.6,0,0.7,0.2C27.3,21.8,27.1,22.1,26.8,22.2z"/>
		</g>
	</g>
	<g>
		<g>
			<path fill="#BE630E" d="M27.6,21c-0.1,0-0.2-0.2-0.2-0.3c0-0.1,0-0.3,0.1-0.4c0.2-0.3,0.7-0.4,0.8-0.1C28.3,20.5,28,21.1,27.6,21
				z"/>
		</g>
	</g>
	<g>
		<g>
			<path fill="#BE630E" d="M26.2,20.2c-0.3,0-0.5-0.2-0.6-0.4c0-0.3,0.1-0.6,0.4-0.8c0.4-0.3,1.4-0.5,1.5,0.1
				C27.5,19.6,26.6,20.2,26.2,20.2z"/>
		</g>
	</g>
	<g>
		<g>
			<path fill="#BE630E" d="M28.1,17.8c-0.1,0.1-0.3,0.1-0.4,0.1c-0.1,0-0.3,0-0.3-0.1c-0.1-0.2-0.1-0.4,0-0.6c0-0.2,0.1-0.4,0.2-0.5
				c0.1-0.1,0.2-0.1,0.4-0.2c0.4-0.1,1.1-0.3,1.1,0.2C29,17.2,28.4,17.6,28.1,17.8z"/>
		</g>
	</g>
	<g>
		<g>
			<path fill="#BE630E" d="M25.9,16.5c-0.2,0-0.3,0-0.4-0.2c-0.1-0.1-0.1-0.3,0-0.4c0-0.1,0.1-0.2,0.2-0.3c0.1-0.1,0.3-0.1,0.4-0.2
				c0.2,0,0.4-0.1,0.6,0c0.1,0.1,0.1,0.3,0.1,0.5c0,0.1,0,0.2-0.1,0.3C26.6,16.4,26.2,16.5,25.9,16.5z"/>
		</g>
	</g>
	<g>
		<g>
			<path fill="#BE630E" d="M28.4,14c0,0.2-0.1,0.4-0.3,0.6c-0.2,0.2-0.5,0.2-0.7,0.2c-0.3,0-0.6-0.2-0.6-0.4c0-0.2,0.1-0.5,0.3-0.7
				C27.5,13.5,28.3,13.5,28.4,14z"/>
		</g>
	</g>
	<g>
		<g>
			<path fill="#BE630E" d="M27.9,12.9c-0.1,0.1-0.3,0.2-0.4,0.2c-0.1,0-0.3,0-0.4-0.1c-0.2-0.1-0.2-0.3-0.1-0.5
				c0.1-0.2,0.3-0.3,0.5-0.3C28,12.2,28.2,12.6,27.9,12.9z"/>
		</g>
	</g>
	<g>
		<g>
			<path fill="#BE630E" d="M27.8,10.8c0,0.1-0.1,0.3-0.2,0.3c-0.1,0-0.3,0-0.4-0.1C27,10.9,27,10.8,27,10.7c0-0.1,0-0.3,0.1-0.4
				c0.1-0.1,0.3-0.2,0.4-0.1C27.8,10.2,27.8,10.6,27.8,10.8z"/>
		</g>
	</g>
	<g>
		<g>
			<path fill="#BE630E" d="M23.6,8.8c-0.5-0.2-0.1-0.7,0.3-0.5C24.4,8.5,24,8.9,23.6,8.8z"/>
		</g>
	</g>
	<g>
		<g>
			<path fill="#E9EFF4" d="M25.8,23.1c0,3.4-3.5,6.2-7.8,6.2c-4.3,0-7.8-2.8-7.8-6.2c0-3.4,3.5-5,7.8-5
				C22.3,18.1,25.8,19.7,25.8,23.1z"/>
		</g>
	</g>
	<g>
		<g>
			<path fill="#C5D0D6" d="M21.5,25.7c-1.3,0-2.4-0.4-3.4-1.1c-1,0.8-2.2,1-3.4,1c-0.1,0-0.2,0-0.3,0c0.4,1.7,1.9,2.5,3.6,2.5
				C19.8,28,21.2,27.3,21.5,25.7C21.6,25.7,21.5,25.7,21.5,25.7z"/>
		</g>
	</g>
	<g>
		<g>
			<path fill="#3E4347" d="M21,25.5c-0.3,1.4-1.5,2-2.9,2c-1.4,0-2.7-0.6-3-2c1.3,0.3,2.3,0,3-0.9c0.5,0.6,1.3,1,2.4,1
				C20.6,25.5,20.8,25.5,21,25.5z"/>
		</g>
	</g>
	<g>
		<g>
			<path fill="#DEE4E9" d="M24.4,22.7c0.1,0.6-0.2,1.3-0.7,1.8c-0.5,0.5-1.2,0.9-1.9,1.1C20.6,26,19,25.8,18,24.9
				c-1,1-2.6,1.1-3.9,0.7c-1.4-0.4-2.7-1.6-2.6-3c0,1.3,1.3,2.4,2.6,2.6c0.7,0.1,1.4,0.1,2-0.1c0.6-0.2,1.1-0.6,1.4-1
				C17.8,24,18,24,18.2,24c0.1,0,0.1,0.1,0.1,0.1c0,0,0,0,0,0c0.6,0.9,1.9,1.4,3.2,1.2c0.1,0,0.1,0,0.2,0C23.1,25,24.4,24,24.4,22.7
				z"/>
		</g>
	</g>
	<g>
		<g>
			<path fill="#E24B4B" d="M20.2,26.8c-0.6,0.5-1.3,0.7-2.2,0.7c-0.9,0-1.7-0.2-2.2-0.7c0.7-0.9,1.9-0.5,2.6-0.7
				c0.6-0.2,1.3,0.1,1.7,0.6C20.2,26.7,20.2,26.7,20.2,26.8z"/>
		</g>
	</g>
	<g>
		<g>
			<path fill="#3E4347" d="M20.1,23.7c0,0,0.4,0.1,1,0.5c0.6,0.3,1.3,0.8,1.9,1.5c0.6,0.6,1.1,1.4,1.3,2c0.3,0.6,0.4,1,0.4,1
				s-0.1-0.4-0.4-1c-0.3-0.6-0.8-1.3-1.4-1.9c-0.6-0.6-1.3-1.1-1.9-1.4c-0.6-0.3-1-0.4-1-0.4c-0.1,0-0.1-0.1-0.1-0.1
				C20,23.7,20,23.7,20.1,23.7C20.1,23.7,20.1,23.7,20.1,23.7L20.1,23.7z"/>
		</g>
	</g>
	<g>
		<g>
			<path fill="#3E4347" d="M22.1,23.7c0,0,0.3,0.2,0.8,0.6c0.5,0.4,1,0.9,1.4,1.6c0.4,0.7,0.7,1.4,0.8,1.9c0.1,0.6,0.1,0.9,0.1,0.9
				s0-0.4-0.2-0.9c-0.1-0.6-0.4-1.3-0.9-1.9c-0.4-0.6-1-1.2-1.4-1.5C22.3,24,22,23.9,22,23.9c-0.1,0-0.1-0.1,0-0.1
				C21.9,23.7,22,23.7,22.1,23.7C22,23.7,22,23.7,22.1,23.7L22.1,23.7z"/>
		</g>
	</g>
	<g>
		<g>
			<path fill="#3E4347" d="M21.5,22.8c0,0,0.4,0,1,0.2c0.6,0.2,1.3,0.5,1.8,1.1c0.6,0.5,1,1.2,1.2,1.8c0.2,0.5,0.2,0.9,0.2,0.9
				s-0.1-0.4-0.3-0.9c-0.2-0.5-0.6-1.2-1.2-1.7c-0.6-0.5-1.3-0.8-1.8-1C21.9,23,21.5,23,21.5,23c-0.1,0-0.1,0-0.1-0.1
				C21.4,22.8,21.4,22.8,21.5,22.8C21.5,22.8,21.5,22.8,21.5,22.8L21.5,22.8z"/>
		</g>
	</g>
	<g>
		<g>
			<path fill="#3E4347" d="M16,23.9c0,0-0.4,0.1-1,0.4c-0.6,0.3-1.3,0.8-1.9,1.4c-0.6,0.6-1.1,1.3-1.4,1.9c-0.3,0.6-0.4,1-0.4,1
				s0.1-0.4,0.4-1c0.3-0.6,0.7-1.3,1.3-2c0.6-0.6,1.3-1.2,1.9-1.5c0.6-0.3,1-0.5,1-0.5l0,0c0.1,0,0.1,0,0.1,0.1
				C16.1,23.8,16,23.9,16,23.9C16,23.9,16,23.9,16,23.9z"/>
		</g>
	</g>
	<g>
		<g>
			<path fill="#3E4347" d="M14,23.9c0,0-0.3,0.2-0.8,0.5c-0.5,0.3-1,0.9-1.4,1.5c-0.4,0.6-0.7,1.3-0.9,1.9c-0.1,0.6-0.2,0.9-0.2,0.9
				s0-0.4,0.1-0.9c0.1-0.6,0.4-1.3,0.8-1.9c0.4-0.7,0.9-1.2,1.4-1.6c0.5-0.4,0.8-0.6,0.8-0.6l0,0c0.1,0,0.1,0,0.1,0
				C14.1,23.8,14.1,23.8,14,23.9C14,23.9,14,23.9,14,23.9z"/>
		</g>
	</g>
	<g>
		<g>
			<path fill="#3E4347" d="M14.5,23c0,0-0.4,0-0.9,0.2c-0.5,0.1-1.2,0.5-1.8,1c-0.6,0.5-1,1.2-1.2,1.7c-0.2,0.5-0.3,0.9-0.3,0.9
				s0-0.4,0.2-0.9c0.2-0.5,0.6-1.2,1.2-1.8c0.6-0.5,1.3-0.9,1.8-1.1c0.6-0.2,1-0.2,1-0.2l0,0c0.1,0,0.1,0,0.1,0.1
				C14.6,22.9,14.6,23,14.5,23C14.5,23,14.5,23,14.5,23z"/>
		</g>
	</g>
	<g>
		<g>
			<path fill="#3E4347" d="M21.2,19.7c-0.6,0.9-1.8,1.7-2.6,2.1c-0.4,0.2-0.8,0.2-1.2,0c-0.8-0.4-2.2-1.3-2.7-2.4
				c-0.2-0.5-0.1-1,0.3-1.4c1.9-1.8,3.9-1.8,6,0C21.4,18.5,21.5,19.2,21.2,19.7z"/>
		</g>
	</g>
	<g>
		<g>
			<path fill="#2F3335" d="M20,19c-0.8,0.3-1.3,1.6-1.5,2.9c0.1,0,0.1,0,0.2-0.1c0.3-0.2,0.7-0.4,1.2-0.7c0,0,0,0,0.1-0.1
				c0.4-0.5,1-0.8,0.9-1.5C20.8,19.1,20.4,18.9,20,19z"/>
		</g>
	</g>
	<g>
		<g>
			<g>
				<g>
					<path fill="#282C2D" d="M20.8,19.5c0,0.1,0,0.2,0,0.2c-0.1-0.3-0.4-0.4-0.7-0.3c-0.7,0.3-1.2,1.3-1.6,2.4
						c0.3-1.3,0.7-2.6,1.5-2.9C20.4,18.9,20.8,19.1,20.8,19.5z"/>
				</g>
			</g>
		</g>
	</g>
	<g>
		<g>
			<path fill="#2F3335" d="M17.4,21.8c0,0,0.1,0,0.1,0c-0.3-1.2-0.7-2.5-1.5-2.8c-0.4-0.2-0.8,0.1-0.8,0.5c0,0.6,0.4,1,0.8,1.4
				C16.6,21.3,17.1,21.6,17.4,21.8z"/>
		</g>
	</g>
	<g>
		<g>
			<g>
				<g>
					<path fill="#282C2D" d="M15.2,19.5c0,0.1,0,0.2,0,0.2c0.1-0.3,0.4-0.4,0.7-0.3c0.7,0.3,1.2,1.3,1.6,2.4
						c-0.3-1.3-0.7-2.6-1.5-2.9C15.6,18.9,15.2,19.1,15.2,19.5z"/>
				</g>
			</g>
		</g>
	</g>
	<g>
		<g>
			<path fill="#5A5F63" d="M15,18.1c-0.4,0.3-0.5,0.9-0.3,1.4c0.1,0.1,0.1,0.2,0.2,0.4c-0.1-0.5,0.1-0.9,0.5-1.1
				c0.2-0.1,0.4-0.1,0.6,0c3,0.9,4.2-0.6,3.6-1.3c-0.1-0.2-0.3-0.3-0.5-0.4C17.6,16.5,16.3,16.8,15,18.1z"/>
		</g>
	</g>
	<g>
		<g>
			<ellipse fill="#FFFFFF" cx="22.7" cy="14.5" rx="2.3" ry="3.2"/>
		</g>
	</g>
	<g>
		<g>
			<ellipse fill="#FFD93B" cx="22.6" cy="14.9" rx="1.6" ry="2.1"/>
		</g>
	</g>
	<g>
		<g>
			<ellipse fill="#3E4347" cx="22.5" cy="15.1" rx="1" ry="1.4"/>
		</g>
	</g>
	<g>
		<g>
			<circle fill="#FFFFFF" cx="23.4" cy="13.8" r="0.7"/>
		</g>
	</g>
	<g>
		<g>
			<path fill="#F29A2E" d="M20,16.2c0,0,4.3-0.4,6,3s-1.6,0-1.6,0l-3.9-1.5"/>
		</g>
	</g>
	<g>
		<g>
			<path fill="#E18823" d="M26,19.2c-0.7-0.9-1.3-1.7-2.6-2.2c-1-0.5-2.4-0.7-3.4-0.8c0.8-0.2,2.2-0.1,3.5,0.4
				C24.8,17.2,25.6,18.1,26,19.2z"/>
		</g>
	</g>
	<g>
		<g>
			<path fill="#3E4347" d="M22,9.6c0,0,3,0.3,4.1,2.4C26,12.1,25.7,8.4,22,9.6z"/>
		</g>
	</g>
	<g>
		<g>
			<ellipse fill="#FFFFFF" cx="13.3" cy="14.5" rx="2.3" ry="3.2"/>
		</g>
	</g>
	<g>
		<g>
			<ellipse fill="#FFD93B" cx="13.4" cy="14.9" rx="1.6" ry="2.1"/>
		</g>
	</g>
	<g>
		<g>
			<ellipse fill="#3E4347" cx="13.5" cy="15.1" rx="1" ry="1.4"/>
		</g>
	</g>
	<g>
		<g>
			<circle fill="#FFFFFF" cx="12.6" cy="13.8" r="0.7"/>
		</g>
	</g>
	<g>
		<g>
			<path fill="#F29A2E" d="M16,16.2c0,0-4.3-0.4-6,3s1.6,0,1.6,0l3.9-1.5"/>
		</g>
	</g>
	<g>
		<g>
			<path fill="#E18823" d="M10,19.2c0.7-0.9,1.3-1.7,2.6-2.2c1-0.5,2.4-0.7,3.4-0.8c-0.8-0.2-2.2-0.1-3.5,0.4
				C11.2,17.2,10.4,18.1,10,19.2z"/>
		</g>
	</g>
	<g>
		<g>
			<path fill="#3E4347" d="M14,9.6c0,0-3,0.3-4.1,2.4C10,12.1,10.3,8.4,14,9.6z"/>
		</g>
	</g>
</g>
</svg>
