<?xml version="1.0" encoding="utf-8"?>
<!-- Generator: Adobe Illustrator 18.0.0, SVG Export Plug-In . SVG Version: 6.00 Build 0)  -->
<!DOCTYPE svg PUBLIC "-//W3C//DTD SVG 1.1//EN" "http://www.w3.org/Graphics/SVG/1.1/DTD/svg11.dtd">
<svg version="1.1" id="Layer_1" xmlns="http://www.w3.org/2000/svg" xmlns:xlink="http://www.w3.org/1999/xlink" x="0px" y="0px"
	 viewBox="0 0 36 36" enable-background="new 0 0 36 36" xml:space="preserve">
<g>
	<g>
		<g>
			<g>
				<g>
					<g>
						<g>
							<path fill="#6B503B" d="M4.6,7c0.6-0.2,1.2-0.4,1.8-0.2c2.7,0.7,5.3,5.2,5.2,5.7c0.1,0.2,0.1,0.4,0.2,0.6
								c-0.2,0.2-0.4,0.4-0.6,0.7c-1,1.1-1.4,2.3-1.3,3.5c-1.1-0.4-3.4-1.9-5.2-3.1C0.3,11.9,2.2,8,4.6,7z"/>
						</g>
					</g>
				</g>
				<g opacity="0.5">
					<g>
						<g>
							<path fill="#563C2A" d="M2.1,10.1c-0.5,0.4,1.7,3.9,7.2,5c0.3,0.1,0.5,0.2,0.8,0.3c-0.2,0.6-0.3,1.1-0.2,1.7
								c-1.1-0.4-3.4-1.9-5.2-3.1C2.7,12.9,1.7,11.5,2.1,10.1z"/>
						</g>
					</g>
				</g>
				<g>
					<g>
						<g>
							<path fill="#563C2A" d="M9.9,15.9c-1.2-0.3-3.2-1.6-4.6-3.3c-1-1.5,0.4-3.4,1.7-3.2c0.8,0.1,3.3,2.5,3.9,4.5
								C10.4,14.6,10.1,15.3,9.9,15.9z"/>
						</g>
					</g>
				</g>
				<g>
					<g>
						<g>
							<path fill="#4C3423" d="M7,9.5c0.8,0.1,3.3,2.5,3.9,4.5c-0.1,0.1-0.2,0.3-0.3,0.4c-0.9-1.7-2.9-3.6-3.6-3.7
								c-0.9-0.2-1.8,0.7-1.9,1.7C4.4,10.9,5.7,9.2,7,9.5z"/>
						</g>
					</g>
				</g>
			</g>
			<g>
				<g>
					<g>
						<g>
							<path fill="#6B503B" d="M31.4,7c-0.6-0.2-1.2-0.4-1.8-0.2c-2.7,0.7-5.3,5.2-5.2,5.7c-0.1,0.2-0.1,0.4-0.2,0.6
								c0.2,0.2,0.4,0.4,0.6,0.7c1,1.1,1.4,2.3,1.3,3.5c1.1-0.4,3.4-1.9,5.2-3.1C35.7,11.9,33.8,8,31.4,7z"/>
						</g>
					</g>
				</g>
				<g opacity="0.5">
					<g>
						<g>
							<path fill="#563C2A" d="M33.9,10.1c0.5,0.4-1.7,3.9-7.2,5c-0.3,0.1-0.5,0.2-0.8,0.3c0.2,0.6,0.3,1.1,0.2,1.7
								c1.1-0.4,3.4-1.9,5.2-3.1C33.3,12.9,34.3,11.5,33.9,10.1z"/>
						</g>
					</g>
				</g>
				<g>
					<g>
						<g>
							<path fill="#563C2A" d="M26.1,15.9c1.2-0.3,3.2-1.6,4.6-3.3c1-1.5-0.4-3.4-1.7-3.2c-0.8,0.1-3.3,2.5-3.9,4.5
								C25.6,14.6,25.9,15.3,26.1,15.9z"/>
						</g>
					</g>
				</g>
				<g>
					<g>
						<g>
							<path fill="#4C3423" d="M29,9.5c-0.8,0.1-3.3,2.5-3.9,4.5c0.1,0.1,0.2,0.3,0.3,0.4c0.9-1.7,2.9-3.6,3.6-3.7
								c0.9-0.2,1.8,0.7,1.9,1.7C31.6,10.9,30.3,9.2,29,9.5z"/>
						</g>
					</g>
				</g>
			</g>
		</g>
		<g>
			<g>
				<g>
					<g>
						<g>
							<path fill="#6B503B" d="M31.1,19.4c-0.2,7-6,9.9-13.1,9.9S5.1,26.4,4.9,19.4c0-1.6,0.7-2.9,1.9-3.9c0.8-0.7,1.4-1.6,1.6-2.6
								c1.1-5.4,5-7.2,9.6-7.2c4.6,0,8.5,1.9,9.6,7.2c0.2,1,0.8,1.9,1.6,2.6C30.4,16.5,31.1,17.8,31.1,19.4z"/>
						</g>
					</g>
				</g>
				<g>
					<g>
						<g>
							<path fill="#C69A59" d="M31.1,19.4c-0.2,5.3-3.4,8.2-8.1,9.4c-1,1-2.9,1.7-5,1.7c-2.2,0-4-0.7-5.1-1.7
								c-4.6-1.2-7.9-4.1-8-9.3c0-1.6,0.7-2.9,1.9-3.9c0.8-0.7,1.4-1.6,1.6-2.6c0.5-2.7,1.8-4.4,3.4-5.6c2.9,0.9,5.3,4.3,6.2,8.8
								c0.9-4.5,3.3-7.9,6.2-8.8c1.6,1.1,2.9,2.9,3.4,5.6c0.2,1,0.8,1.9,1.6,2.6C30.4,16.5,31.1,17.8,31.1,19.4z"/>
						</g>
					</g>
				</g>
				<g>
					<g>
						<g>
							<path fill="#B2874F" d="M4.9,19.7c0.2,1.1,0.5,2.1,0.9,3.1c0.5,0.9,1.1,1.8,1.9,2.5c1.5,1.4,3.5,2.1,5.5,2.4l0,0
								c0.1,0,0.3,0.1,0.4,0.2l0.1,0.1c1.9,1.6,6.2,1.9,8.7-0.1c0.1-0.1,0.2-0.1,0.3-0.1c5-0.8,7.7-3.6,8.3-8
								c-0.1,1.1-0.3,2.2-0.7,3.2c-0.4,1-1,2-1.7,2.8c-1.5,1.6-3.5,2.6-5.7,3.1l0,0l0,0c-1.3,1.3-3.3,1.7-5,1.7
								c-1.8,0-3.7-0.4-5-1.7l0,0l0,0c-2.1-0.5-4.1-1.5-5.6-3.1c-0.7-0.8-1.3-1.7-1.7-2.7C5.2,21.8,5,20.8,4.9,19.7z"/>
						</g>
					</g>
				</g>
				<g>
					<g>
						<g>
							<g>
								<g>
									<path fill="#6B503B" d="M26.2,16.3c0,0.3,0,0.6-0.1,0.9c-1.9-0.3-3.6,0.2-5.2,1.6c-0.2-0.7-0.5-1.6-0.5-2.5
										c0-3.5,1.4-4.9,2.9-4.9C24.9,11.4,26.2,12.9,26.2,16.3z"/>
								</g>
							</g>
						</g>
						<g>
							<g>
								<g>
									<g>
										<path fill="#FFFFFF" d="M25,15.8c0,0.5-0.2,1-0.4,1.4c-0.2,0-0.4,0-0.5,0c-0.7,0-1.3,0.2-1.8,0.4
											c-0.2,0.1-0.3,0.2-0.5,0.2c-0.4-0.5-0.7-1.3-0.7-2.2c0.1-1.5,1-2.7,2-2.6C24.3,13,25.1,14.3,25,15.8z"/>
									</g>
								</g>
							</g>
							<g>
								<g>
									<g>
										<path fill="#F29A2E" d="M24.5,16c0,0.5-0.1,0.9-0.4,1.2c-0.7,0-1.3,0.2-1.8,0.4c-0.4-0.3-0.7-1-0.6-1.7
											c0-1.1,0.7-1.9,1.5-1.9C23.9,14,24.5,14.9,24.5,16z"/>
									</g>
								</g>
							</g>
							<g>
								<g>
									<g>
										<path fill="#3E4347" d="M24.1,16.1c0,0.8-0.5,1.4-1,1.3c-0.5,0-1-0.7-0.9-1.4c0-0.8,0.5-1.4,1-1.3
											C23.7,14.8,24.1,15.4,24.1,16.1z"/>
									</g>
								</g>
							</g>
						</g>
						<g>
							<g>
								<g>
									<path fill="#B2874F" d="M20.5,19.1c0.5-0.8,1.6-1.7,2.9-2.1c2.2-0.6,3.6,0.4,3.6,0.4s-1.8-0.4-3.4,0.2
										C22.6,17.8,21.3,18.6,20.5,19.1z"/>
								</g>
							</g>
						</g>
					</g>
					<g>
						<g>
							<g>
								<g>
									<path fill="#6B503B" d="M9.8,16.3c0,0.3,0,0.6,0.1,0.9c1.9-0.3,3.6,0.2,5.2,1.6c0.2-0.7,0.5-1.6,0.5-2.5
										c0-3.5-1.4-4.9-2.9-4.9C11.1,11.4,9.8,12.9,9.8,16.3z"/>
								</g>
							</g>
						</g>
						<g>
							<g>
								<g>
									<g>
										<path fill="#FFFFFF" d="M11,15.8c0,0.5,0.2,1,0.4,1.4c0.2,0,0.4,0,0.5,0c0.7,0,1.3,0.2,1.8,0.4c0.2,0.1,0.3,0.2,0.5,0.2
											c0.4-0.5,0.7-1.3,0.7-2.2c-0.1-1.5-1-2.7-2-2.6C11.7,13,10.9,14.3,11,15.8z"/>
									</g>
								</g>
							</g>
							<g>
								<g>
									<g>
										<path fill="#F29A2E" d="M11.5,16c0,0.5,0.1,0.9,0.4,1.2c0.7,0,1.3,0.2,1.8,0.4c0.4-0.3,0.7-1,0.6-1.7
											c0-1.1-0.7-1.9-1.5-1.9C12,14,11.5,14.9,11.5,16z"/>
									</g>
								</g>
							</g>
							<g>
								<g>
									<g>
										<path fill="#3E4347" d="M11.9,16.1c0,0.8,0.5,1.4,1,1.3c0.5,0,1-0.7,0.9-1.4c0-0.8-0.5-1.4-1-1.3
											C12.3,14.8,11.9,15.4,11.9,16.1z"/>
									</g>
								</g>
							</g>
							<g>
								<g>
									<g>
										<circle fill="#FFFFFF" cx="12.4" cy="15.1" r="0.5"/>
									</g>
								</g>
							</g>
							<g>
								<g>
									<g>
										<circle fill="#FFFFFF" cx="23.6" cy="15.1" r="0.5"/>
									</g>
								</g>
							</g>
						</g>
						<g>
							<g>
								<g>
									<path fill="#B2874F" d="M15.5,19.1c0,0-0.4-0.3-0.9-0.6c-0.6-0.3-1.3-0.8-2.2-1c-1.7-0.6-3.4-0.2-3.4-0.2s1.4-1,3.6-0.4
										c0.9,0.3,1.7,0.8,2.2,1.3C15.2,18.7,15.5,19.1,15.5,19.1z"/>
								</g>
							</g>
						</g>
					</g>
				</g>
			</g>
			<g>
				<g>
					<g>
						<g>
							<g>
								<path fill="#6B503B" d="M15.4,21.7c-0.2,0.4-0.3,0.8-0.3,1.3c0,1.5,1.3,2.1,2.2,2.3c0.9,0.2,1.9-0.1,2.4-0.5
									c0.6-0.4,1-1,1.1-1.8c0-0.5-0.1-1-0.3-1.4C20,20.2,15.8,20.3,15.4,21.7z"/>
							</g>
						</g>
					</g>
				</g>
				<g>
					<g>
						<g>
							<g>
								<g>
									<path fill="#563C2A" d="M20.4,23.6c0,0.5-0.3,1-0.7,1.2c-0.4,0.3-0.8,0.4-1.2,0.4c0.3-0.4,0.6-0.9,0.8-1.4
										c0.1-0.2,0.2-0.5,0.3-0.7c0.1-0.2,0.4-0.3,0.5-0.3C20.3,23.1,20.4,23.4,20.4,23.6z"/>
								</g>
							</g>
						</g>
						<g>
							<g>
								<g>
									<path fill="#4C3423" d="M19.4,24.3c0.3-0.8,0.5-1.1,0.8-1c0.2,0,0.2,0.6,0.1,1c0.1-0.2,0.2-0.4,0.2-0.7
										c0-0.3-0.1-0.6-0.3-0.7c-0.2-0.1-0.4,0.1-0.5,0.3c-0.1,0.2-0.2,0.4-0.3,0.7c-0.2,0.5-0.5,1-0.8,1.4
										C18.6,25.3,19.1,25.1,19.4,24.3z"/>
								</g>
							</g>
						</g>
					</g>
					<g>
						<g>
							<g>
								<g>
									<path fill="#563C2A" d="M15.5,23.6c0,0.5,0.3,1,0.7,1.2c0.4,0.3,0.8,0.4,1.2,0.4c-0.3-0.4-0.6-0.9-0.8-1.4
										c-0.1-0.2-0.2-0.5-0.3-0.7C16.2,23,16,22.9,15.8,23C15.6,23.1,15.5,23.4,15.5,23.6z"/>
								</g>
							</g>
						</g>
						<g>
							<g>
								<g>
									<path fill="#4C3423" d="M16.6,24.3c-0.3-0.8-0.5-1.1-0.8-1c-0.2,0-0.2,0.6-0.1,1c-0.1-0.2-0.2-0.4-0.2-0.7
										c0-0.3,0.1-0.6,0.3-0.7c0.2-0.1,0.4,0.1,0.5,0.3c0.1,0.2,0.2,0.4,0.3,0.7c0.2,0.5,0.5,1,0.8,1.4
										C17.4,25.3,16.9,25.1,16.6,24.3z"/>
								</g>
							</g>
						</g>
					</g>
				</g>
			</g>
			<g>
				<g>
					<g>
						<g>
							<path fill="#6B503B" d="M26,23.9c-0.3,0.8-0.9,1.5-1.6,2c-2.5,1.8-5.7,2-6.5,0.3c-0.5,1-2,1.6-4.2,0.8
								c-1.6-0.5-3.3-1.5-3.9-3.1c0.7,1.4,2.5,2.4,4,2.8c2.6,0.7,3.9-0.2,3.9-1.3c0-0.1,0.1-0.2,0.2-0.2c0.1,0,0.2,0.1,0.2,0.2v0
								c0.1,2.2,3.9,1.8,6.2,0.3C25,25.2,25.7,24.7,26,23.9z"/>
						</g>
					</g>
				</g>
			</g>
		</g>
	</g>
	<g>
		<g>
			<g>
				<g>
					<path fill="#6B503B" d="M27.1,24.3c-0.4,0-0.8,0-1.1-0.3c-0.3-0.3-0.5-0.8-0.4-1.1c0.2,0.4,0.3,0.7,0.6,0.9
						C26.5,24.1,27,24.2,27.1,24.3z"/>
				</g>
			</g>
			<g>
				<g>
					<path fill="#6B503B" d="M10.5,22.8c0,0.2-0.1,0.8-0.4,1.1c-0.5,0.5-1.2,0.3-1.2,0.3c0,0,0.6-0.1,1-0.5
						C10,23.6,10.3,23.3,10.5,22.8z"/>
				</g>
			</g>
		</g>
	</g>
</g>
</svg>
