<?xml version="1.0" encoding="utf-8"?>
<!-- Generator: Adobe Illustrator 18.0.0, SVG Export Plug-In . SVG Version: 6.00 Build 0)  -->
<!DOCTYPE svg PUBLIC "-//W3C//DTD SVG 1.1//EN" "http://www.w3.org/Graphics/SVG/1.1/DTD/svg11.dtd">
<svg version="1.1" id="Layer_1" xmlns="http://www.w3.org/2000/svg" xmlns:xlink="http://www.w3.org/1999/xlink" x="0px" y="0px"
	 viewBox="0 0 36 36" enable-background="new 0 0 36 36" xml:space="preserve">
<g>
	<g>
		<g>
			<g>
				<g>
					<g>
						<g>
							<g>
								<path fill="#F4C534" d="M27.8,17l-3-2.9c0,0-0.1-2.5,2.2-5.2c2.3-2.7,2.6-5.2,2.6-5.9c0-0.7,1.2-1,2.3,0.8
									C33.1,5.6,37.6,12.3,27.8,17z"/>
							</g>
						</g>
						<g opacity="0.5">
							<g>
								<g>
									<path fill="#E9B02C" d="M31.3,3c0.5,0.7,6.2,8.5-3.7,12.5c-0.3,0.1-0.6,0.3-0.9,0.4l1.1,1.1c9.9-4.6,5.4-11.4,4.2-13.2
										C31.7,3.5,31.5,3.2,31.3,3z"/>
								</g>
							</g>
						</g>
						<g>
							<g>
								<g>
									<path fill="#E9B02C" d="M32.4,10.8c-0.5,1.7-2,3.3-4.4,4.6l-1.8-1.8c0.1-0.7,0.5-2.2,1.8-3.8c1.7-2,2.4-3.9,2.7-5.2l0,0
										C31.6,5.7,33.2,8.2,32.4,10.8z"/>
								</g>
							</g>
						</g>
					</g>
					<g opacity="0.5">
						<g>
							<path fill="#DE9C25" d="M30.8,4.6L30.8,4.6c-0.3,1.3-1,3.2-2.7,5.2c-1.3,1.6-1.7,3-1.8,3.8l0.7,0.7c0.2-0.8,0.7-2.6,1.9-3.6
								C30.3,9.4,31.4,7,31.2,6c0,0,1.2,1.7,1.4,4.2C32.9,7.8,31.5,5.6,30.8,4.6z"/>
						</g>
					</g>
				</g>
			</g>
			<g>
				<g>
					<g>
						<g>
							<g>
								<path fill="#F4C534" d="M8.2,17l3-2.9c0,0,0.1-2.5-2.2-5.2C6.7,6.2,6.4,3.7,6.4,3c0-0.7-1.2-1-2.3,0.8
									C2.9,5.6-1.6,12.3,8.2,17z"/>
							</g>
						</g>
						<g opacity="0.5">
							<g>
								<g>
									<path fill="#E9B02C" d="M4.7,3c-0.5,0.7-6.2,8.5,3.7,12.5c0.3,0.1,0.6,0.3,0.9,0.4L8.2,17C-1.6,12.3,2.9,5.6,4,3.8
										C4.3,3.5,4.5,3.2,4.7,3z"/>
								</g>
							</g>
						</g>
						<g>
							<g>
								<g>
									<path fill="#E9B02C" d="M3.6,10.8C4,12.5,5.5,14,8,15.3l1.8-1.8c-0.1-0.7-0.5-2.2-1.8-3.8c-1.7-2-2.4-3.9-2.7-5.2l0,0
										C4.4,5.7,2.8,8.2,3.6,10.8z"/>
								</g>
							</g>
						</g>
					</g>
					<g opacity="0.5">
						<g>
							<path fill="#DE9C25" d="M5.2,4.6L5.2,4.6c0.3,1.3,1,3.2,2.7,5.2c1.3,1.6,1.7,3,1.8,3.8l-0.7,0.7c-0.2-0.8-0.7-2.6-1.9-3.6
								C5.7,9.4,4.6,7,4.8,6c0,0-1.2,1.7-1.4,4.2C3.1,7.8,4.5,5.6,5.2,4.6z"/>
						</g>
					</g>
				</g>
			</g>
		</g>
		<g>
			<g>
				<g>
					<g>
						<path fill="#F4C534" d="M29.7,16.7c0,6.5-5.3,11.8-11.8,11.8S6,23.2,6,16.7S11.3,6,17.9,6S29.7,10.2,29.7,16.7z"/>
					</g>
				</g>
			</g>
			<g>
				<g>
					<g>
						<g>
							<path fill="#F4C534" d="M32.6,20.1c0.4,0.9,0.4,2,0,2.9c-0.3-0.4-0.5-0.9-0.8-1.3c0.1,1.3-0.2,2.6-1,3.6
								c0-0.8-0.1-1.6-0.4-2.3c0,1.3-0.4,2.6-1.2,3.7c0-0.4,0-0.9,0.1-1.3c-2.4,4-6.2,5.8-11.3,6c-5.1-0.2-8.9-2-11.3-6
								c0,0.4,0,0.9,0,1.3c-0.8-1.1-1.2-2.4-1.2-3.7c-0.3,0.7-0.4,1.5-0.4,2.3c-0.8-1-1.2-2.3-1-3.6c-0.3,0.4-0.5,0.9-0.8,1.3
								c-0.3-0.9-0.3-2,0-2.9c-0.3,0.2-0.6,0.4-0.9,0.6c0.4-2,2-3.8,4-4.5h23.1c2,0.7,3.5,2.5,3.9,4.5
								C33.2,20.6,32.9,20.4,32.6,20.1z"/>
						</g>
					</g>
				</g>
			</g>
		</g>
		<g>
			<g>
				<g>
					<g>
						<path fill="#F4C534" d="M32.6,20.1c0.4,0.9,0.4,2,0,2.9c-0.3-0.4-0.5-0.9-0.8-1.3c0.1,1.3-0.2,2.6-1,3.6
							c0-0.8-0.1-1.6-0.4-2.3c0,1.3-0.4,2.6-1.2,3.7c0-0.4,0-0.9,0.1-1.3c-2.4,4-6.2,5.8-11.3,6c-5.1-0.2-8.9-2-11.3-6
							c0,0.4,0,0.9,0,1.3c-0.8-1.1-1.2-2.4-1.2-3.7c-0.3,0.7-0.4,1.5-0.4,2.3c-0.8-1-1.2-2.3-1-3.6c-0.3,0.4-0.5,0.9-0.8,1.3
							c-0.3-0.9-0.3-2,0-2.9c-0.3,0.2-0.6,0.4-0.9,0.6c0.4-1.9,1.8-3.5,3.6-4.3C6.2,10,11.4,6,17.9,6c6.4,0,11.7,4,11.8,10.4
							c1.9,0.7,3.4,2.4,3.8,4.4C33.2,20.6,32.9,20.4,32.6,20.1z"/>
					</g>
				</g>
			</g>
		</g>
		<g opacity="0.5">
			<g>
				<g>
					<path fill="#E9B02C" d="M31.8,21.7c0.3,0.4,0.5,0.9,0.8,1.3c0.3-0.9,0.3-2,0-2.9c0.3,0.2,0.6,0.4,0.9,0.6
						c-0.4-2-1.9-3.7-3.8-4.4c-0.1-2.1-0.7-4-1.7-5.5c0.4,2,0.7,5.2-0.2,7.5c0,0,1.1-0.4,1.7,0c0,0-0.6,0.2-1,0.5
						c0,0,1.2-0.1,1.5,0.7c0,0-1.2-0.3-2,0.3c0,0,1.9,0.6,1.8,2.4c0,0-0.9-0.7-1.8-0.6c0,0-1.4,7.1-8.6,9.4l0,0
						c4.4-0.5,7.7-2.2,9.8-5.8c0,0.4,0,0.9-0.1,1.3c0.8-1.1,1.2-2.4,1.2-3.7c0.3,0.7,0.4,1.5,0.4,2.3C31.6,24.3,32,22.9,31.8,21.7z"
						/>
				</g>
			</g>
			<g>
				<g>
					<path fill="#E9B02C" d="M8,21.7c-1-0.1-1.8,0.6-1.8,0.6c0-1.8,1.8-2.4,1.8-2.4c-0.8-0.6-2-0.3-2-0.3c0.3-0.9,1.5-0.7,1.5-0.7
						c-0.4-0.3-1-0.5-1-0.5c0.6-0.4,1.7,0,1.7,0c-1-2.5-0.5-6-0.1-8c-1.3,1.7-2,3.7-2.1,6.1c-1.8,0.8-3.1,2.4-3.6,4.3
						c0.3-0.2,0.6-0.4,0.9-0.6c-0.4,0.9-0.4,2,0,2.9c0.3-0.4,0.5-0.9,0.8-1.3c-0.1,1.3,0.2,2.6,1,3.6c0-0.8,0.1-1.6,0.4-2.3
						c0,1.3,0.4,2.6,1.2,3.7c0-0.4,0-0.9,0-1.3c2.1,3.6,5.5,5.4,9.8,5.8h0C9.4,28.8,8,21.7,8,21.7z"/>
				</g>
			</g>
		</g>
		<g>
			<g>
				<g>
					<g>
						<g>
							<g>
								<path fill="#E9B02C" d="M26.1,15.4c0.2,2.4-0.8,4.3-2.4,4.2c-1.5,0-3-2-3.2-4.4c-0.2-2.4,0.8-4.3,2.3-4.2
									C24.4,11.1,25.9,13.1,26.1,15.4z"/>
							</g>
						</g>
					</g>
					<g>
						<g>
							<g>
								<path fill="#FFFFFF" d="M26,16.4c0.2,1.8-0.8,3.3-2.3,3.3c-1.4,0-2.8-1.6-3-3.4c-0.2-1.8,0.8-3.3,2.3-3.3
									C24.5,13,25.9,14.6,26,16.4z"/>
							</g>
						</g>
					</g>
					<g>
						<g>
							<g>
								<path fill="#65B1EF" d="M25,17c0,1.1-0.7,2-1.5,2c-0.8,0-1.5-0.9-1.5-2c0-1.1,0.7-2,1.5-2C24.4,15,25,15.9,25,17z"/>
							</g>
						</g>
					</g>
					<g>
						<g>
							<g>
								<path fill="#3E4347" d="M24.5,17.2c0,0.7-0.4,1.3-1,1.3c-0.5,0-1-0.6-1-1.3c0-0.7,0.4-1.3,1-1.3
									C24.1,15.9,24.5,16.5,24.5,17.2z"/>
							</g>
						</g>
					</g>
					<g>
						<g>
							<g>
								<path fill="#3E4347" d="M25.1,14.2c-0.5-0.4-1-0.6-1.6-0.7c-1.5,0-2.6,1.5-2.4,3.3c0.1,0.6,0.2,1.1,0.5,1.6
									c-0.5-0.6-0.8-1.4-0.9-2.2c-0.2-1.8,0.8-3.3,2.3-3.3C23.8,13,24.6,13.5,25.1,14.2z"/>
							</g>
						</g>
					</g>
					<g>
						<g>
							<g>
								<path fill="#FFFFFF" d="M24.3,16.2c0,0.2-0.2,0.4-0.4,0.4c-0.2,0-0.4-0.2-0.4-0.4c0-0.2,0.2-0.4,0.4-0.4
									C24.2,15.7,24.3,15.9,24.3,16.2z"/>
							</g>
						</g>
					</g>
				</g>
				<g>
					<g>
						<g>
							<g>
								<path fill="#F4C534" d="M21.3,20.8c0,0,1.1-2.6,5.5-2.7C25.4,20.5,23.6,21.4,21.3,20.8z"/>
							</g>
						</g>
					</g>
					<g>
						<g>
							<g>
								<path fill="#E9B02C" d="M21.3,20.8c0,0,0.1-0.4,0.5-0.9c0.2-0.2,0.4-0.5,0.8-0.7c0.3-0.2,0.7-0.4,1-0.6
									c0.4-0.2,0.8-0.3,1.2-0.4c0.4-0.1,0.7-0.1,1-0.1c0.3,0,0.6,0,0.7,0c0.2,0,0.3,0,0.3,0s-0.1,0-0.3,0c-0.2,0-0.4,0.1-0.7,0.1
									c-0.3,0-0.6,0.1-1,0.2c-0.4,0.1-0.7,0.2-1.1,0.4C23,19.1,22.4,19.6,22,20C21.6,20.4,21.3,20.8,21.3,20.8z"/>
							</g>
						</g>
					</g>
				</g>
			</g>
			<g>
				<g>
					<g>
						<g>
							<g>
								<path fill="#E9B02C" d="M9.9,15.4c-0.2,2.4,0.8,4.3,2.4,4.2c1.5,0,3-2,3.2-4.4c0.2-2.4-0.8-4.3-2.3-4.2
									C11.6,11.1,10.1,13.1,9.9,15.4z"/>
							</g>
						</g>
					</g>
					<g>
						<g>
							<g>
								<path fill="#FFFFFF" d="M10,16.4c-0.2,1.8,0.8,3.3,2.3,3.3c1.4,0,2.8-1.6,3-3.4c0.2-1.8-0.8-3.3-2.3-3.3
									C11.5,13,10.1,14.6,10,16.4z"/>
							</g>
						</g>
					</g>
					<g>
						<g>
							<g>
								<path fill="#65B1EF" d="M14,17c0,1.1-0.7,2-1.5,2c-0.8,0-1.5-0.9-1.5-2c0-1.1,0.7-2,1.5-2C13.3,15,14,15.9,14,17z"/>
							</g>
						</g>
					</g>
					<g>
						<g>
							<g>
								<path fill="#3E4347" d="M13.5,17.2c0,0.7-0.4,1.3-1,1.3c-0.5,0-1-0.6-1-1.3c0-0.7,0.4-1.3,1-1.3
									C13,15.9,13.5,16.5,13.5,17.2z"/>
							</g>
						</g>
					</g>
					<g>
						<g>
							<g>
								<path fill="#3E4347" d="M10.9,14.2c0.5-0.4,1-0.6,1.6-0.7c1.5,0,2.6,1.5,2.4,3.3c-0.1,0.6-0.2,1.1-0.5,1.6
									c0.5-0.6,0.8-1.4,0.9-2.2c0.2-1.8-0.8-3.3-2.3-3.3C12.2,13,11.4,13.5,10.9,14.2z"/>
							</g>
						</g>
					</g>
					<g>
						<g>
							<g>
								<path fill="#FFFFFF" d="M13.3,16.2c0,0.2-0.2,0.4-0.4,0.4c-0.2,0-0.4-0.2-0.4-0.4c0-0.2,0.2-0.4,0.4-0.4
									C13.1,15.7,13.3,15.9,13.3,16.2z"/>
							</g>
						</g>
					</g>
				</g>
				<g>
					<g>
						<g>
							<g>
								<path fill="#F4C534" d="M14.7,20.8c0,0-1.1-2.6-5.5-2.7C10.6,20.5,12.4,21.4,14.7,20.8z"/>
							</g>
						</g>
					</g>
					<g>
						<g>
							<g>
								<path fill="#E9B02C" d="M14.7,20.8c0,0-0.2-0.4-0.6-0.8c-0.4-0.4-1.1-0.9-1.8-1.2c-0.4-0.2-0.7-0.3-1.1-0.4
									c-0.4-0.1-0.7-0.2-1-0.2c-0.3-0.1-0.5-0.1-0.7-0.1c-0.2,0-0.3,0-0.3,0s0.1,0,0.3,0c0.2,0,0.4,0,0.7,0c0.3,0,0.7,0,1,0.1
									c0.4,0.1,0.8,0.2,1.2,0.4c0.4,0.2,0.7,0.4,1,0.6c0.3,0.2,0.6,0.5,0.8,0.7C14.5,20.4,14.7,20.8,14.7,20.8z"/>
							</g>
						</g>
					</g>
				</g>
			</g>
		</g>
		<g>
			<g>
				<g>
					<g>
						<path fill="#3E4347" d="M21,10c0,0,3-0.8,5.2,0.9C26.1,10.9,23.2,7.3,21,10z"/>
					</g>
				</g>
			</g>
			<g>
				<g>
					<g>
						<path fill="#3E4347" d="M15,10c0,0-3-0.8-5.2,0.9C9.9,10.9,12.8,7.3,15,10z"/>
					</g>
				</g>
			</g>
		</g>
	</g>
	<g>
		<g>
			<g>
				<g>
					<path fill="#3E4347" d="M22,24.2h-8c-1,1-1.6,2.3-1.6,3.8c0,3.1,2.5,5.5,5.5,5.5s5.5-2.5,5.5-5.5C23.5,26.5,22.9,25.1,22,24.2z
						"/>
				</g>
			</g>
		</g>
		<g>
			<g>
				<g>
					<path fill="#E24B4B" d="M21.7,31c-0.2-1.7-1.6-3.3-3.1-2.6c-0.5,0.2-1,0.2-1.4,0.2c-0.9-0.2-1.8,0.1-2.3,0.9
						c-0.3,0.4-0.4,1-0.5,1.5C16.8,31.9,19.2,31.9,21.7,31z"/>
				</g>
			</g>
		</g>
		<g>
			<g>
				<g>
					<g>
						<g>
							<g>
								<path fill="#FFFFFF" d="M18.2,24.9l-0.6,2.6c0,0.1-0.1,0.1-0.2,0.2c-0.4,0.1-0.7,0-1.1-0.1c-0.1,0-0.1-0.1-0.1-0.2l0.1-2.5
									c0-0.1,0.1-0.2,0.2-0.2H18C18.2,24.7,18.3,24.8,18.2,24.9z"/>
							</g>
						</g>
					</g>
					<g>
						<g>
							<path fill="#E9EFF4" d="M17.5,27.6c0.1,0,0.1-0.1,0.2-0.2l0.1-0.5c-0.1,0.5-1,0.4-1.2,0.2c-0.1-0.2-0.1-2-0.1-2l-0.1,0
								l-0.1,2.2c0,0.1,0.1,0.2,0.1,0.2C16.8,27.7,17.2,27.7,17.5,27.6z"/>
						</g>
					</g>
				</g>
				<g>
					<g>
						<g>
							<g>
								<path fill="#FFFFFF" d="M17.8,24.9l0.6,2.6c0,0.1,0.1,0.1,0.2,0.2c0.4,0.1,0.7,0,1.1-0.1c0.1,0,0.1-0.1,0.1-0.2l-0.1-2.5
									c0-0.1-0.1-0.2-0.2-0.2H18C17.9,24.7,17.8,24.8,17.8,24.9z"/>
							</g>
						</g>
					</g>
					<g>
						<g>
							<path fill="#E9EFF4" d="M18.5,27.6c-0.1,0-0.1-0.1-0.2-0.2L18.2,27c0.1,0.5,1,0.4,1.2,0.2c0.1-0.2,0.1-2,0.1-2l0.1,0l0.1,2.2
								c0,0.1-0.1,0.2-0.1,0.2C19.2,27.7,18.9,27.7,18.5,27.6z"/>
						</g>
					</g>
				</g>
			</g>
			<g>
				<g>
					<g>
						<g>
							<path fill="#FFFFFF" d="M16.3,25.6c0,0-0.5,1.9-0.8,2.4c-0.2,0.3-0.7,0.3-1.1,0.2c-0.1,0-0.3-0.1-0.3-0.3L13.9,25L16.3,25.6z
								"/>
						</g>
					</g>
				</g>
				<g>
					<g>
						<g>
							<path fill="#E9EFF4" d="M14.5,27.8c-0.2-0.3-0.3-1.5-0.3-1.5l0.4-0.6c0,0-0.5-0.1-0.6-0.1c0,0,0,0,0,0l0.2,2.3
								c0,0.2,0.1,0.3,0.3,0.3c0.3,0.1,0.9,0.1,1.1-0.2c0-0.1,0.1-0.2,0.2-0.3C15.3,28.2,14.6,28,14.5,27.8z"/>
						</g>
					</g>
				</g>
			</g>
			<g>
				<g>
					<g>
						<g>
							<path fill="#FFFFFF" d="M19.5,25.6c0,0,0.5,1.9,0.8,2.4c0.2,0.3,0.7,0.3,1.1,0.2c0.1,0,0.3-0.1,0.3-0.3l0.3-2.9L19.5,25.6z"
								/>
						</g>
					</g>
				</g>
				<g>
					<g>
						<g>
							<path fill="#E9EFF4" d="M21.3,27.8c0.2-0.3,0.3-1.5,0.3-1.5l-0.4-0.6c0,0,0.5-0.1,0.6-0.1c0,0,0,0,0,0l-0.2,2.3
								c0,0.2-0.1,0.3-0.3,0.3c-0.3,0.1-0.9,0.1-1.1-0.2c0-0.1-0.1-0.2-0.2-0.3C20.5,28.2,21.2,28,21.3,27.8z"/>
						</g>
					</g>
				</g>
			</g>
			<g>
				<g>
					<g>
						<g>
							<g>
								<path fill="#FFFFFF" d="M23.6,25.5c0,2.7-1.8,3.9-1.8,3.9c0.5-1.6,0-3.8,0-3.8L23.6,25.5z"/>
							</g>
						</g>
					</g>
					<g>
						<g>
							<g>
								<path fill="#E9EFF4" d="M23.6,25.5l-0.4,0c0,1.6-0.5,2.8-1.4,3.9C21.8,29.4,23.6,28.3,23.6,25.5z"/>
							</g>
						</g>
					</g>
				</g>
				<g>
					<g>
						<g>
							<g>
								<path fill="#FFFFFF" d="M12.2,25.5c0,2.7,1.8,3.9,1.8,3.9c-0.5-1.6,0-3.8,0-3.8L12.2,25.5z"/>
							</g>
						</g>
					</g>
					<g>
						<g>
							<g>
								<path fill="#E9EFF4" d="M12.2,25.5l0.4,0c0,1.6,0.5,2.8,1.4,3.9C14,29.4,12.2,28.3,12.2,25.5z"/>
							</g>
						</g>
					</g>
				</g>
			</g>
		</g>
		<g>
			<g>
				<g>
					<path fill="#7A5B44" d="M25.3,24.5c0,1.5-2,2.7-4.3,2.7c-0.6,0-1.1-0.1-1.6-0.2c-0.9-0.2-1.8-0.2-2.8,0c-0.5,0.1-1,0.2-1.6,0.2
						c-2.4,0-4.3-1.2-4.3-2.7c0-1.5,2-2.7,4.3-2.7c1.1,0,2.2,0.3,3,0.7c0.8-0.5,1.8-0.7,3-0.7C23.4,21.8,25.3,23,25.3,24.5z"/>
				</g>
			</g>
		</g>
		<g>
			<g>
				<g>
					<path fill="#6B503B" d="M25.3,24.8c-0.3,1.6-2.6,2.3-4.2,2.3c-1.6,0-2.1-0.5-3.5-0.3c-0.6,0-1.1,0.2-1.6,0.3
						c-1.9,0.2-3.4-0.3-4.2-0.9c1.4,0.7,2.9,0.8,4.1,0.5c0.7-0.2,0.9-0.3,1.6-0.4c1.6-0.3,1.9,0.2,3.5,0c1-0.1,2.8-0.8,3.1-1.7
						c0,0,0-0.1,0-0.1c0,0,0-0.1,0-0.2c0,0,0,0,0,0c0.2-0.6-1.3-1.9-1.7-2.4c0,0,0.3,0.1,0.8,0.2C25,22.9,25.5,24,25.3,24.8z"/>
				</g>
			</g>
		</g>
		<g>
			<g>
				<g>
					<g>
						<g>
							<g>
								<path fill="#FFFFFF" d="M17.7,31.5l0.4-1.8c0-0.1,0.1-0.1,0.1-0.1c0.2,0,0.5,0,0.7,0c0.1,0,0.1,0.1,0.1,0.1l0,1.7
									c0,0.1-0.1,0.1-0.1,0.1h-1C17.7,31.7,17.7,31.6,17.7,31.5z"/>
							</g>
						</g>
					</g>
					<g>
						<g>
							<path fill="#E9EFF4" d="M18.2,29.6c-0.1,0-0.1,0.1-0.1,0.1L18,30.1c0.1-0.3,0.7-0.3,0.8-0.1c0.1,0.2,0.1,1.4,0.1,1.4l0.1,0
								l0-1.5c0-0.1,0-0.1-0.1-0.1C18.7,29.6,18.4,29.6,18.2,29.6z"/>
						</g>
					</g>
				</g>
				<g>
					<g>
						<g>
							<g>
								<path fill="#FFFFFF" d="M18,31.5l-0.4-1.8c0-0.1-0.1-0.1-0.1-0.1c-0.2,0-0.5,0-0.7,0c-0.1,0-0.1,0.1-0.1,0.1l0,1.7
									c0,0.1,0.1,0.1,0.1,0.1h1C18,31.7,18,31.6,18,31.5z"/>
							</g>
						</g>
					</g>
					<g>
						<g>
							<path fill="#E9EFF4" d="M17.5,29.6c0.1,0,0.1,0.1,0.1,0.1l0.1,0.3c-0.1-0.3-0.7-0.3-0.8-0.1c-0.1,0.2-0.1,1.4-0.1,1.4l-0.1,0
								l0-1.5c0-0.1,0-0.1,0.1-0.1C17,29.6,17.3,29.6,17.5,29.6z"/>
						</g>
					</g>
				</g>
			</g>
			<g>
				<g>
					<g>
						<g>
							<path fill="#FFFFFF" d="M19,31.1c0,0,0.3-1.3,0.5-1.7c0.1-0.2,0.5-0.2,0.7-0.2c0.1,0,0.2,0.1,0.2,0.2l0.2,2L19,31.1z"/>
						</g>
					</g>
				</g>
				<g>
					<g>
						<g>
							<path fill="#E9EFF4" d="M20.3,29.6c0.1,0.2,0.2,1,0.2,1L20.2,31c0,0,0.3,0.1,0.4,0.1c0,0,0,0,0,0l-0.1-1.6
								c0-0.1-0.1-0.2-0.2-0.2c-0.2,0-0.6-0.1-0.7,0.2c0,0.1-0.1,0.1-0.1,0.2C19.7,29.3,20.1,29.4,20.3,29.6z"/>
						</g>
					</g>
				</g>
			</g>
			<g>
				<g>
					<g>
						<g>
							<path fill="#FFFFFF" d="M16.8,31.1c0,0-0.3-1.3-0.5-1.7c-0.1-0.2-0.5-0.2-0.7-0.2c-0.1,0-0.2,0.1-0.2,0.2l-0.2,2L16.8,31.1z"
								/>
						</g>
					</g>
				</g>
				<g>
					<g>
						<g>
							<path fill="#E9EFF4" d="M15.6,29.6c-0.1,0.2-0.2,1-0.2,1l0.3,0.4c0,0-0.3,0.1-0.4,0.1c0,0,0,0,0,0l0.1-1.6
								c0-0.1,0.1-0.2,0.2-0.2c0.2,0,0.6-0.1,0.7,0.2c0,0.1,0.1,0.1,0.1,0.2C16.2,29.3,15.7,29.4,15.6,29.6z"/>
						</g>
					</g>
				</g>
			</g>
			<g>
				<g>
					<g>
						<g>
							<g>
								<path fill="#FFFFFF" d="M14,31.1c0-1.9,1.2-2.7,1.2-2.7c-0.4,1.1,0,2.6,0,2.6L14,31.1z"/>
							</g>
						</g>
					</g>
					<g>
						<g>
							<g>
								<path fill="#E9EFF4" d="M14,31.1l0.3,0c0-1.1,0.3-1.9,0.9-2.7C15.2,28.4,14,29.2,14,31.1z"/>
							</g>
						</g>
					</g>
				</g>
				<g>
					<g>
						<g>
							<g>
								<path fill="#FFFFFF" d="M21.8,31.1c0-1.9-1.2-2.7-1.2-2.7c0.4,1.1,0,2.6,0,2.6L21.8,31.1z"/>
							</g>
						</g>
					</g>
					<g>
						<g>
							<g>
								<path fill="#E9EFF4" d="M21.8,31.1l-0.3,0c0-1.1-0.3-1.9-0.9-2.7C20.6,28.4,21.8,29.2,21.8,31.1z"/>
							</g>
						</g>
					</g>
				</g>
			</g>
		</g>
		<g>
			<g>
				<g>
					<path fill="#7A5B44" d="M12.8,30c0.8,2.1,2.8,3.5,5.2,3.5c2.4,0,4.4-1.5,5.1-3.6C19.7,31.1,16.3,31.2,12.8,30z"/>
				</g>
			</g>
		</g>
	</g>
	<g>
		<g>
			<g>
				<path fill="#8F6D52" d="M21.2,22.3c-0.6,1.1-2.2,2-2.8,2.3c-0.2,0.1-0.4,0.1-0.6,0c-0.7-0.3-2.3-1.2-2.8-2.3
					c-0.2-0.3,0-0.8,0.3-0.9c1.9-1,3.7-1,5.6,0C21.2,21.5,21.3,22,21.2,22.3z"/>
			</g>
		</g>
	</g>
	<g>
		<g>
			<path fill="#846144" d="M20.8,21.3c-1-0.5-2-0.8-3.1-0.7c0.7,0.2,1.9,0.5,2.1,1.2c0.2,1-1.8,3.2-3.5,2c0.5,0.4,1,0.6,1.3,0.8
				c0.2,0.1,0.4,0.1,0.6,0c0.7-0.3,2.3-1.2,2.8-2.3C21.3,22,21.2,21.5,20.8,21.3z"/>
		</g>
	</g>
	<g>
		<g>
			<g>
				<g>
					<g>
						<path fill="#6B503B" d="M20,22.7c-0.1,0.3-0.2,0.6-0.5,0.8c-0.2,0.2-0.6,0.4-0.8,0.3c-0.1,0-0.1-0.2-0.1-0.3
							c0-0.2,0.1-0.4,0.1-0.5c0.1-0.3,0.4-0.7,0.7-0.8c0.1,0,0.3-0.1,0.4,0C20,22.3,20,22.5,20,22.7z"/>
					</g>
				</g>
			</g>
			<g>
				<g>
					<g>
						<path fill="#5C4533" d="M20,22.7C20,22.7,20,22.7,20,22.7c0,0-0.1,0-0.1-0.1c-0.1-0.1-0.3-0.1-0.4,0c-0.3,0.1-0.6,0.4-0.7,0.8
							c0,0.1-0.1,0.3-0.1,0.4c-0.1-0.1,0-0.2,0-0.3c0-0.2,0.1-0.4,0.1-0.5c0.1-0.3,0.4-0.6,0.7-0.8c0.1,0,0.3-0.1,0.4,0
							C20,22.3,20,22.5,20,22.7z"/>
					</g>
				</g>
			</g>
		</g>
		<g>
			<g>
				<g>
					<g>
						<path fill="#6B503B" d="M16,22.7c0.1,0.3,0.2,0.6,0.5,0.8c0.2,0.2,0.6,0.4,0.8,0.3c0.1,0,0.1-0.2,0.1-0.3
							c0-0.2-0.1-0.4-0.1-0.5c-0.1-0.3-0.4-0.7-0.7-0.8c-0.1,0-0.3-0.1-0.4,0C16,22.3,16,22.5,16,22.7z"/>
					</g>
				</g>
			</g>
			<g>
				<g>
					<g>
						<path fill="#5C4533" d="M16,22.7C16,22.7,16,22.7,16,22.7c0,0,0.1,0,0.1-0.1c0.1-0.1,0.3-0.1,0.4,0c0.3,0.1,0.6,0.4,0.7,0.8
							c0,0.1,0.1,0.3,0.1,0.4c0.1-0.1,0-0.2,0-0.3c0-0.2-0.1-0.4-0.1-0.5c-0.1-0.3-0.4-0.6-0.7-0.8c-0.1,0-0.3-0.1-0.4,0
							C16,22.3,16,22.5,16,22.7z"/>
					</g>
				</g>
			</g>
		</g>
	</g>
</g>
</svg>
