<?xml version="1.0" encoding="utf-8"?>
<!-- Generator: Adobe Illustrator 18.0.0, SVG Export Plug-In . SVG Version: 6.00 Build 0)  -->
<!DOCTYPE svg PUBLIC "-//W3C//DTD SVG 1.1//EN" "http://www.w3.org/Graphics/SVG/1.1/DTD/svg11.dtd">
<svg version="1.1" id="Layer_1" xmlns="http://www.w3.org/2000/svg" xmlns:xlink="http://www.w3.org/1999/xlink" x="0px" y="0px"
	 viewBox="0 0 36 36" enable-background="new 0 0 36 36" xml:space="preserve">
<g>
	<g id="XMLID_1464_">
		<g id="XMLID_1480_">
			<g>
				<ellipse fill="#997960" cx="18" cy="26.3" rx="7.7" ry="4.8"/>
			</g>
		</g>
		<g id="XMLID_1479_">
			<g>
				<path fill="#FFFFFF" d="M18.7,28.5H19c0.3,0,0.6-0.3,0.6-0.6v-2.2h-1.5v2.2C18.1,28.2,18.3,28.5,18.7,28.5z"/>
			</g>
		</g>
		<g id="XMLID_1478_">
			<g>
				<path fill="#FFFFFF" d="M17,28.5h0.4c0.3,0,0.6-0.3,0.6-0.6v-2.2h-1.5v2.2C16.4,28.2,16.7,28.5,17,28.5z"/>
			</g>
		</g>
		<g id="XMLID_1477_">
			<g>
				<path fill="#A4856D" d="M24.7,8.2c-3.1,3.7-4.1,8-2.2,9.6s6,0,9.1-3.7c1.6-1.9,2.1-4.3,2.3-6.3C34.1,6,32.4,4.5,30.6,5
					C28.7,5.4,26.3,6.3,24.7,8.2z"/>
			</g>
		</g>
		<g id="XMLID_1476_">
			<g>
				<path fill="#997960" d="M24.4,17.1c1.5,0,4-1.2,6.2-3.8c1.4-1.7,1.8-3.9,2-5.5c0-0.4-0.1-0.8-0.4-1c-0.3-0.3-0.6-0.5-1-0.5
					c-0.1,0-0.2,0-0.3,0c-1.6,0.4-3.8,1.2-5.2,2.8c-2.7,3.2-3.5,6.7-2.3,7.7C23.6,17,24,17.1,24.4,17.1z"/>
			</g>
		</g>
		<g id="XMLID_1475_">
			<g>
				<path fill="#A4856D" d="M11.3,8.2c3.1,3.7,4.1,8,2.2,9.6s-6,0-9.1-3.7c-1.6-1.9-2.1-4.3-2.3-6.3C1.9,6,3.6,4.5,5.4,5
					C7.3,5.4,9.7,6.3,11.3,8.2z"/>
			</g>
		</g>
		<g id="XMLID_1474_">
			<g>
				<path fill="#997960" d="M11.6,17.1c0.4,0,0.8-0.1,1-0.3c0.5-0.4,0.6-1.5,0.4-2.7c-0.4-1.6-1.3-3.4-2.7-5
					C8.9,7.4,6.7,6.6,5.1,6.3c-0.1,0-0.2,0-0.3,0c-0.4,0-0.8,0.2-1,0.5C3.5,7,3.4,7.3,3.4,7.7c0.1,1.6,0.6,3.9,2,5.5
					C7.6,15.9,10.1,17.1,11.6,17.1L11.6,17.1z"/>
			</g>
		</g>
		<g id="XMLID_1473_">
			<g>
				<path fill="#A4856D" d="M7.5,13.4C8.5,9,12.8,5.7,18,5.7s9.5,3.3,10.5,7.7c2.5,1.4,4.2,4.1,4.2,7.2c0,4.5-3.7,8.2-8.2,8.2
					c-2.7,0-5-1.3-6.5-3.2c-1.5,2-3.9,3.2-6.5,3.2c-4.5,0-8.2-3.7-8.2-8.2C3.3,17.5,5,14.8,7.5,13.4z"/>
			</g>
		</g>
		<g id="XMLID_1472_">
			<g>
				<path fill="#FFE9AB" d="M11.5,28.8c-3.8,0-7-2.6-7.9-6.1c1.4-1,3-1.8,4.7-2c2.3-0.3,4.5,0.1,6.3,1.1c2.1,1.1,4.6,1.1,6.7,0
					c1.8-1,4-1.4,6.3-1.1c1.8,0.3,3.4,1,4.7,2c-0.9,3.5-4.1,6.1-7.9,6.1c-2.7,0-5-1.3-6.5-3.2C16.5,27.5,14.1,28.8,11.5,28.8z"/>
			</g>
		</g>
		<g id="XMLID_1471_">
			<g>
				<path fill="#3F4347" d="M16.4,21.7h3.1c1.2,0,1.9,1.3,1.3,2.3l-1.6,2.4c-0.6,0.9-1.9,0.9-2.5,0L15.2,24
					C14.5,23,15.3,21.7,16.4,21.7z"/>
			</g>
		</g>
	</g>
	<g>
		<g>
			<g id="XMLID_1467_">
				<g>
					<circle fill="#3F4347" cx="13.6" cy="15.7" r="2"/>
				</g>
			</g>
			<g>
				<g>
					<g>
						<path fill="#FFFFFF" d="M14.6,16.7c-0.2,0.2-0.4,0.2-0.5,0.1c-0.1-0.1-0.1-0.4,0.1-0.5c0.2-0.2,0.4-0.2,0.5-0.1
							C14.8,16.3,14.8,16.5,14.6,16.7z"/>
					</g>
				</g>
			</g>
		</g>
		<g>
			<g id="XMLID_3_">
				<g>
					<circle fill="#3F4347" cx="22.4" cy="15.7" r="2"/>
				</g>
			</g>
			<g>
				<g>
					<g>
						<path fill="#FFFFFF" d="M23.3,16.7c-0.2,0.2-0.4,0.2-0.5,0.1c-0.1-0.1-0.1-0.4,0.1-0.5c0.2-0.2,0.4-0.2,0.5-0.1
							C23.5,16.3,23.5,16.5,23.3,16.7z"/>
					</g>
				</g>
			</g>
		</g>
	</g>
</g>
</svg>
