<?xml version="1.0" encoding="utf-8"?>
<!-- Generator: Adobe Illustrator 18.0.0, SVG Export Plug-In . SVG Version: 6.00 Build 0)  -->
<!DOCTYPE svg PUBLIC "-//W3C//DTD SVG 1.1//EN" "http://www.w3.org/Graphics/SVG/1.1/DTD/svg11.dtd">
<svg version="1.1" id="Layer_1" xmlns="http://www.w3.org/2000/svg" xmlns:xlink="http://www.w3.org/1999/xlink" x="0px" y="0px"
	 viewBox="0 0 36 36" enable-background="new 0 0 36 36" xml:space="preserve">
<g>
	<g>
		<g>
			<path fill="#E18823" d="M21.5,8.8c2.2-3.1,4.7-3.2,6.6-1.4c1.9,1.8,1.8,4.6,2.8,6.9c0.4,1,0.7,2,1.4,2.8c0.6,0.8,1.7,1.3,1.7,2.4
				c-0.1,5-6.4,3.1-8.8-3.7c-0.8-2.3-1.4-5.1-4-5.9"/>
		</g>
	</g>
	<g>
		<g>
			<path fill="#CF7519" d="M33.6,21.2c0.2-0.4,0.4-1,0.4-1.7c0-1.1-1.1-1.6-1.7-2.4c-0.6-0.9-1-1.9-1.4-2.8c-1-2.3-0.9-5.1-2.8-6.9
				c-1.6-1.5-3.6-1.6-5.5,0.2c0.8-0.3,2.4-0.8,4.1,0.2c2.4,1.4,2.5,3.8,3.4,6.4c0.9,2.6,1.8,3.5,2.6,4.2
				C33.5,19.1,34.1,19.7,33.6,21.2z"/>
		</g>
	</g>
	<g>
		<g>
			<path fill="#E18823" d="M14.5,8.8c-2.2-3.1-4.7-3.2-6.6-1.4C6,9.1,6.1,12,5.1,14.2c-0.4,1-0.7,2-1.4,2.8C3.1,17.9,2,18.4,2,19.5
				c0.1,5,6.4,3.1,8.8-3.7c0.8-2.3,1.4-5.1,4-5.9"/>
		</g>
	</g>
	<g>
		<g>
			<path fill="#CF7519" d="M2.4,21.2c-0.2-0.4-0.4-1-0.4-1.7c0-1.1,1.1-1.6,1.7-2.4c0.6-0.9,1-1.9,1.4-2.8C6.1,12,6,9.1,7.9,7.3
				c1.6-1.5,3.6-1.6,5.5,0.2C12.7,7.2,11,6.8,9.3,7.8c-2.4,1.4-2.5,3.8-3.4,6.4c-0.9,2.6-1.8,3.5-2.6,4.2
				C2.5,19.1,1.9,19.7,2.4,21.2z"/>
		</g>
	</g>
	<g>
		<g>
			<path fill="#F29A2E" d="M26.9,23.6c1-2,1.5-4.3,1.2-6.8C27.4,8.6,23.1,6.5,18,6.5S8.6,8.6,7.9,16.8c-0.2,2.4,0.2,4.8,1.2,6.8
				H26.9z"/>
		</g>
	</g>
	<g>
		<g>
			<path fill="#E18823" d="M26.9,23.6H26c0.9-2.1,1.2-4.5,1-7C26.1,9,22.8,6.8,18.8,6.5c4.7,0.2,8.6,2.5,9.3,10.3
				C28.4,19.2,27.9,21.6,26.9,23.6z"/>
		</g>
	</g>
	<g>
		<g>
			<path fill="#FFE9AB" d="M15.9,23.5c0.4,6.9-11.9,4.6-9.7-1.7C8,16.7,15.6,17.5,15.9,23.5z"/>
		</g>
	</g>
	<g>
		<g>
			<path fill="#FFD68D" d="M15.9,23.5c0,0,0.3,2.3-2.1,3.8c-2.7,1.6-6.9,0.1-7.9-2.8c-0.7-1.8,0-3.7,1.5-5c2-1.7,5-1.7,6.7,0.1
				C16,21.4,15.9,23.5,15.9,23.5z M15.9,23.5c0.2-0.1-0.3-2.4-1.9-3.8c-1.8-1.6-4.3-1.5-6.2,0.2c-1.3,1.2-1.8,3-1.2,4.5
				c1,2.9,4.7,4,7.1,2.8C16.1,25.9,15.9,23.5,15.9,23.5z"/>
		</g>
	</g>
	<g>
		<g>
			<path fill="#FFE9AB" d="M20.1,23.5c-0.4,6.9,11.9,4.6,9.7-1.7C28,16.7,20.4,17.5,20.1,23.5z"/>
		</g>
	</g>
	<g>
		<g>
			<path fill="#FFD68D" d="M20.1,23.5c0,0,0,0.4,0.1,1.2c0.2,0.7,0.7,1.8,2,2.5c1.7,0.9,4,0.6,5.4-0.5c1.4-1,2.3-2.8,1.7-4.7
				c-0.5-1.7-1.9-2.8-3.4-3.2c-2.5-0.7-5,1-5.8,3.6C20.1,23.1,20.1,23.5,20.1,23.5z M20.1,23.5c0,0,0-0.4,0.2-1.2
				c0.6-2.6,3.2-4.6,5.9-4c1.7,0.3,3.4,1.6,4,3.3c0.6,2.1-0.4,4.1-2.1,5.3c-1.8,1.2-4.3,1.3-5.9,0.4c-1.3-0.8-1.8-1.9-2-2.6
				C20,23.9,20.1,23.5,20.1,23.5z"/>
		</g>
	</g>
	<g>
		<g>
			<path fill="#FFE9AB" d="M24.4,23.9c1.9,7.2-14.7,7.3-12.8,0C13.1,18.3,22.9,18.4,24.4,23.9z"/>
		</g>
	</g>
	<g>
		<g>
			<path fill="#3E4347" d="M22.7,24.7c-0.5,2.2-2.4,3.7-4.7,3.7c-2.3,0-4.3-1.6-4.7-3.8c0.6,0.3,1.2,0.5,1.9,0.5
				c1.4-0.1,2.6-1.1,2.8-2.2C18.1,23.6,18.9,25.8,22.7,24.7z"/>
		</g>
	</g>
	<g>
		<g>
			<path fill="#3E4347" d="M22.7,24.7c-0.5,2.2-2.4,3.7-4.7,3.7c-2.3,0-4.3-1.6-4.7-3.8c0.6,0.3,1.2,0.5,1.9,0.5
				c1.4-0.1,2.6-1.1,2.8-2.2C18.1,23.6,18.9,25.8,22.7,24.7z"/>
		</g>
	</g>
	<g>
		<g>
			<path fill="#31363A" d="M18,22.9c-0.2,1.2-1.4,2.2-2.8,2.2c0,0,0,0-0.1,0c0.5,1.3,1.6,2.1,2.9,2.1c1.4,0,2.5-0.9,2.9-2.2
				C18.7,25.1,18.1,23.5,18,22.9z"/>
		</g>
	</g>
	<g>
		<g>
			<path fill="#FFD68D" d="M11.7,25.7c0,0,0.3,0.9,1.3,1.7c1.9,1.8,5.4,2.3,8,1.3c0.9-0.3,1.6-0.8,2.1-1.3c0.9-0.9,1.3-1.7,1.3-1.7
				s-0.1,1-0.9,1.9c-0.5,0.5-1.1,1.1-2.1,1.5c-1.9,0.9-4.5,1-6.6,0c-1-0.4-1.6-1-2.1-1.5C11.9,26.8,11.6,25.7,11.7,25.7z"/>
		</g>
	</g>
	<g>
		<g>
			<path fill="#FFD68D" d="M22.9,21.5c0,0-0.6-0.4-1.5-0.8c-2.2-0.9-4.6-0.9-6.8,0c-0.9,0.4-1.5,0.8-1.5,0.8c0,0,0.4-0.5,1.3-1.1
				c2.2-1.3,4.8-1.4,7.2,0C22.5,20.9,22.9,21.5,22.9,21.5z"/>
		</g>
	</g>
	<g>
		<g>
			<path fill="#3E4347" d="M15.8,14.8c-0.3,1.8-1.5,3.2-2.8,3s-2.1-1.8-1.8-3.7s1.5-3.2,2.8-3C15.2,11.3,16.1,13,15.8,14.8z"/>
		</g>
	</g>
	<g>
		<g>
			<path fill="#FFFFFF" d="M15.4,15c-0.2,1.5-1.3,2.6-2.3,2.5s-1.7-1.5-1.5-3s1.3-2.6,2.3-2.5C14.9,12.1,15.6,13.5,15.4,15z"/>
		</g>
	</g>
	<g>
		<g>
			<ellipse fill="#65B1EF" cx="13.4" cy="15.1" rx="1.2" ry="1.8"/>
		</g>
	</g>
	<g>
		<g>
			<path fill="#3E4347" d="M14.3,15.3c0,0.6-0.4,1.2-0.8,1.2s-0.8-0.5-0.8-1.2c0-0.7,0.4-1.2,0.8-1.2S14.3,14.7,14.3,15.3z"/>
		</g>
	</g>
	<g>
		<g>
			<path fill="#FFFFFF" d="M14.4,14.4c0,0.2-0.2,0.4-0.4,0.4c-0.2,0-0.4-0.2-0.4-0.4c0-0.2,0.2-0.4,0.4-0.4
				C14.2,14,14.4,14.2,14.4,14.4z"/>
		</g>
	</g>
	<g>
		<g>
			<path fill="#FFFFFF" d="M13.5,15.7c0,0.1-0.1,0.2-0.2,0.2c-0.1,0-0.2-0.1-0.2-0.2c0-0.1,0.1-0.2,0.2-0.2
				C13.4,15.5,13.5,15.6,13.5,15.7z"/>
		</g>
	</g>
	<g>
		<g>
			<path fill="#3E4347" d="M11.1,11.7c0,0,2.1-2.1,4.7-1.5C15.8,10.2,14.4,7.3,11.1,11.7z"/>
		</g>
	</g>
	<g>
		<g>
			<path fill="#3E4347" d="M20.2,14.8c0.3,1.8,1.5,3.2,2.8,3s2.1-1.8,1.8-3.7c-0.3-1.8-1.5-3.2-2.8-3C20.8,11.3,19.9,13,20.2,14.8z"
				/>
		</g>
	</g>
	<g>
		<g>
			<path fill="#FFFFFF" d="M20.6,15c0.2,1.5,1.3,2.6,2.3,2.5c1.1-0.2,1.7-1.5,1.5-3s-1.3-2.6-2.3-2.5C21.1,12.1,20.4,13.5,20.6,15z"
				/>
		</g>
	</g>
	<g>
		<g>
			<ellipse fill="#65B1EF" cx="22.6" cy="15.1" rx="1.2" ry="1.8"/>
		</g>
	</g>
	<g>
		<g>
			<path fill="#3E4347" d="M21.7,15.3c0,0.6,0.4,1.2,0.8,1.2s0.8-0.5,0.8-1.2c0-0.7-0.4-1.2-0.8-1.2S21.7,14.7,21.7,15.3z"/>
		</g>
	</g>
	<g>
		<g>
			<path fill="#3E4347" d="M24.9,11.7c0,0-2.1-2.1-4.7-1.5C20.2,10.2,21.6,7.3,24.9,11.7z"/>
		</g>
	</g>
	<g>
		<g>
			<path fill="#7A5B44" d="M21.2,19.7c0,1.5-1.4,2.7-3.2,2.7c-1.8,0-3.2-1.2-3.2-2.7c0-1.5,1.4-2.7,3.2-2.7
				C19.8,17,21.2,18.2,21.2,19.7z"/>
		</g>
	</g>
	<g>
		<g>
			<path fill="#6B503B" d="M21.2,19.7c0,1.5-1.4,2.7-3.2,2.7c-1.8,0-3.2-1.2-3.2-2.7c0-0.2,0-0.3,0.1-0.5c0.3,1.3,1.6,2.2,3.1,2.2
				c1.6,0,2.9-1,3.2-2.2C21.2,19.4,21.2,19.6,21.2,19.7z"/>
		</g>
	</g>
	<g>
		<g>
			<ellipse fill="#89664C" cx="18" cy="18.5" rx="1.5" ry="1"/>
		</g>
	</g>
	<g>
		<g>
			<path fill="#FFFFFF" d="M23,15.7c0,0.1-0.1,0.2-0.2,0.2c-0.1,0-0.2-0.1-0.2-0.2c0-0.1,0.1-0.2,0.2-0.2C22.9,15.5,23,15.6,23,15.7
				z"/>
		</g>
	</g>
	<g>
		<g>
			<path fill="#FFFFFF" d="M22.4,14.4c0,0.2-0.2,0.4-0.4,0.4c-0.2,0-0.4-0.2-0.4-0.4c0-0.2,0.2-0.4,0.4-0.4
				C22.2,14,22.4,14.2,22.4,14.4z"/>
		</g>
	</g>
	<g>
		<g>
			<path fill="#FFD68D" d="M25.5,25.1c-0.2-1.3-1.2-2.2-1.6-2.2c0.7-0.2,1.4,0.8,1.6,1.5C25.6,24.8,25.5,25.1,25.5,25.1z"/>
		</g>
	</g>
	<g>
		<g>
			<path fill="#FFD68D" d="M24.9,23.9c-1.1,0.6-2.5,1.2-3.8,1.3c-1.5,0.1-2.9-0.7-3-2.2l0,0l0-0.3l0.1,0.2l0,0c0.3,1.4,1.5,2,3,1.9
				C22.2,24.9,23.8,24.3,24.9,23.9z"/>
		</g>
	</g>
	<g>
		<g>
			<path fill="#FFD68D" d="M18,22.7c0,0,0,0.1,0,0.4c-0.2,1.1-1,1.8-2.1,2c-0.7,0.2-1.6,0-2.3-0.2c-0.7-0.2-1.8-0.7-2.4-1
				c0.7,0.3,1.7,0.6,2.5,0.8c0.6,0.1,1.6,0.3,2.2,0.2C17.2,24.7,18,23.7,18,22.7z"/>
		</g>
	</g>
	<g>
		<g>
			<path fill="#E24B4B" d="M20.8,27.6C20,28.1,19,28.5,18,28.5c-1.1,0-2.1-0.4-3-1c0.1-0.3,0.2-0.6,0.4-0.9c0.3-0.5,1-0.7,1.6-0.6
				c0.5,0.2,1.2,0,1.6-0.1c0.6-0.1,1.2,0,1.6,0.4C20.5,26.6,20.7,27.1,20.8,27.6z"/>
		</g>
	</g>
	<g>
		<g>
			<path fill="#FFFFFF" d="M19.9,26.7c-0.1,0.2-0.3,0.2-0.7,0.1c-0.3-0.1-0.5-0.3-0.5-0.5c0-0.2,0.3-0.2,0.7-0.1
				C19.7,26.4,19.9,26.6,19.9,26.7z"/>
		</g>
	</g>
</g>
</svg>
