<?xml version="1.0" encoding="utf-8"?>
<!-- Generator: Adobe Illustrator 18.0.0, SVG Export Plug-In . SVG Version: 6.00 Build 0)  -->
<!DOCTYPE svg PUBLIC "-//W3C//DTD SVG 1.1//EN" "http://www.w3.org/Graphics/SVG/1.1/DTD/svg11.dtd">
<svg version="1.1" id="Layer_1" xmlns="http://www.w3.org/2000/svg" xmlns:xlink="http://www.w3.org/1999/xlink" x="0px" y="0px"
	 viewBox="0 0 36 36" enable-background="new 0 0 36 36" xml:space="preserve">
<g>
	<g>
		<g>
			<g>
				<g>
					<path fill="#6D4135" d="M28.3,14.9c0.2-0.6,0.3-1.2,0.3-1.8c0-9.4-20.6-9.4-20.6,0c0,0.6,0.1,1.2,0.2,1.8
						C8.7,17,8.1,19.2,6.7,21c-0.7,0.9-1.1,1.9-1.1,3c0,4,5.5,7.3,12.3,7.3c6.8,0,12.3-3.3,12.3-7.3c0-1.1-0.4-2.1-1-3
						C28,19.2,27.7,17,28.3,14.9z"/>
				</g>
			</g>
		</g>
		<g>
			<g>
				<g>
					<path fill="#6D4135" d="M15.5,9.9c0.7-3.3,0.3-4.7-2.6-5.9c1-0.1,2.6-0.2,3.7,0.7c0.5-1.1,1.5-2,2.7-2.3
						c-0.4,0.8-0.7,1.8-0.7,2.8c1.4-0.4,3-0.4,4.4,0.1c-1,0-1.9,0.4-2.6,1.2c1,0.2,2.4,0.5,2.9,1.7"/>
				</g>
			</g>
		</g>
		<g>
			<g>
				<g>
					<g>
						<g>
							<g>
								<path fill="#FFD93B" d="M31,14.4c1.1,1.2,1.1,2.9-0.4,4.3c-1.6,1.4-3.8,1.5-4.9,0.3c-1.1-1.2-0.5-3.3,1-4.7
									C28.3,13,29.9,13.2,31,14.4z"/>
							</g>
						</g>
					</g>
				</g>
				<g>
					<g>
						<g>
							<g>
								<path fill="#F4C534" d="M30.6,15.4c0.7,0.7,0.7,1.8-0.3,2.7c-1,0.9-2.3,1.6-3,0.8S27,16.2,28,15.4
									C28.9,14.5,30,14.7,30.6,15.4z"/>
							</g>
						</g>
					</g>
				</g>
				<g>
					<g>
						<g>
							<g>
								<path fill="#E9B02C" d="M30.6,15.4c0,0.1,0.1,0.1,0.1,0.2c-0.6-0.3-1.4-0.3-2.1,0.4c-0.9,0.8-1.2,2.3-0.8,3.2
									c-0.2,0-0.3-0.1-0.5-0.3c-0.7-0.7-0.4-2.7,0.6-3.5C28.9,14.5,30,14.7,30.6,15.4z"/>
							</g>
						</g>
					</g>
				</g>
			</g>
			<g>
				<g>
					<g>
						<g>
							<g>
								<path fill="#FFD93B" d="M5,14.4c-1.1,1.2-1.1,2.9,0.4,4.3c1.6,1.4,3.8,1.5,4.9,0.3c1.1-1.2,0.5-3.3-1-4.7S6.1,13.2,5,14.4z"
									/>
							</g>
						</g>
					</g>
				</g>
				<g>
					<g>
						<g>
							<g>
								<path fill="#F4C534" d="M5.4,15.4c-0.7,0.7-0.7,1.8,0.3,2.7s2.3,1.6,3,0.8S9,16.2,8,15.4C7.1,14.5,6,14.7,5.4,15.4z"/>
							</g>
						</g>
					</g>
				</g>
				<g>
					<g>
						<g>
							<g>
								<path fill="#E9B02C" d="M5.4,15.4c0,0.1-0.1,0.1-0.1,0.2c0.6-0.3,1.4-0.3,2.1,0.4c0.9,0.8,1.2,2.3,0.8,3.2
									c0.2,0,0.3-0.1,0.5-0.3C9.3,18.2,9,16.2,8,15.4C7.1,14.5,6,14.7,5.4,15.4z"/>
							</g>
						</g>
					</g>
				</g>
			</g>
		</g>
		<g>
			<g>
				<g>
					<path fill="#6D4135" d="M26.4,15.1c0.1-0.5,0.2-1,0.2-1.5C26.4,6,10,6,9.8,13.6c0,0.5,0,1,0.1,1.5c0.4,1.8-0.2,3.7-1.3,5.2
						c-0.6,0.8-0.9,1.7-1,2.6c-0.1,3.6,4.5,6.6,10.3,6.6c5.8,0,10.4-3,10.3-6.6c0-0.9-0.4-1.8-0.9-2.6C26.2,18.8,26,16.9,26.4,15.1z
						"/>
				</g>
			</g>
		</g>
		<g>
			<g>
				<path fill="#633B2A" d="M19.7,12.2c0.5-1,1.5-1.7,2.6-2c-0.3,0.5-0.6,1-0.7,1.5c0.7-0.4,1.4-0.5,2.2-0.3
					c0.7,0.2,1.4,0.6,1.9,1.2c-0.7-0.1-1.5,0-2.2,0.2c1,0.5,1.6,1.6,1.4,2.7c-1.1-0.8-2.4-1-3.7-1c-1.3,0-2.6,0.3-3.9,0.4
					c-0.5,0.1-1,0.1-1.4-0.1c-0.5-0.2-0.8-0.6-1.2-1c-0.8-0.7-1.9-1-3-0.8c0.8-1,2.3-1.3,3.5-0.7c-0.3-0.8-0.7-1.5-1.3-2
					c1.1,0,2.1,0.6,2.8,1.5c0.2-1.3,1-2.5,2.1-3.2c-0.6,1.4-0.4,3.1,0.3,4.4c0.2-1.2,0.8-2.3,1.7-3.1c-0.4,0.9-0.4,1.9-0.1,2.9"/>
			</g>
		</g>
		<g>
			<g>
				<g>
					<g>
						<path fill="#633B2A" d="M23.2,8.2C22.6,6.9,21,6.8,20,6.6c0.5-0.6,0.9-1,1.8-1.3c-1.6-0.2-2.6,0-3.6,0.3c0-0.9,0-1.6,0.4-2.6
							c-1.1,0.5-1.6,1.2-2,2.2c-0.7-0.6-1.3-1-2.8-1c1.5,0.8,2.2,1.8,2,3.9c-0.1,0.6-0.2,1.2-0.3,1.8c0.1-0.6,0.1-1.1,0.2-1.8
							c0.1-2.8-1.6-3.3-3.9-4.3c1.5-0.1,3.3-0.4,4.6,0.4c0.8-1.6,2.3-2,3.4-2.3c-0.5,1-0.9,1.6-0.9,2.8c2.4-0.5,4,0.2,5.5,0.8
							c-1.4,0-2.5-0.2-3.7,0.8C21.7,6.7,22.8,7.1,23.2,8.2z"/>
					</g>
				</g>
			</g>
		</g>
		<g>
			<g>
				<g>
					<g>
						<path fill="#FFD93B" d="M27.7,25.1c0,3.1-2.6,5.8-6.2,6.8c-0.7,1.1-2,1.8-3.5,1.8S15.2,33,14.5,32c-3.6-1-6.2-3.7-6.2-6.8
							c0-2.1,1.2-4,3.1-5.4c-0.4-0.9-0.6-1.8-0.6-2.8c0-4,3.2-3.5,7.1-3.5c3.9,0,7.1-0.6,7.1,3.5c0,1-0.2,2-0.6,2.9
							C26.5,21.1,27.7,23,27.7,25.1z"/>
					</g>
				</g>
			</g>
		</g>
		<g>
			<g>
				<g>
					<path fill="#F4C534" d="M27.6,26c-0.1,1.6-0.8,3-2,4c-1.2,1.1-2.5,1.6-3.9,1.9c-0.6,1.1-1.8,2-3.6,2.1c-1.7,0-3.1-1-3.6-2.1
						c-2.5-0.6-4.2-1.8-5.1-3.2C8.8,28,8.5,27,8.4,26c0.2,0.7,0.5,1.6,1.3,2.5c1,1.5,3,2.7,4.7,3.4c-0.3-0.5-0.4-1-0.4-1.5
						c0.5,2,2.4,3.1,4.1,3.1c2.1,0,3.7-1.4,4.1-3.1c0,0.4-0.1,1-0.4,1.5c1.2-0.5,2.7-1.4,3.6-2.2C26.5,28.6,27.2,27.3,27.6,26z"/>
				</g>
			</g>
		</g>
	</g>
	<g>
		<g>
			<g>
				<g>
					<g>
						<g>
							<path fill="#E9B02C" d="M19.9,24.7c-0.2,0.3-1.1,1.3-1.4,1.1c-0.3-0.2,0.1-1.5,0.3-1.9c0.2-0.3,0.7-0.5,1-0.3
								C20.1,23.9,20.1,24.3,19.9,24.7z"/>
						</g>
					</g>
				</g>
				<g>
					<g>
						<g>
							<g>
								<path fill="#DE9C25" d="M20,24.5c0-0.1-0.1-0.2-0.2-0.2c-0.3-0.2-0.6-0.1-0.8,0.2c-0.1,0.2-0.4,0.9-0.5,1.3c0,0,0,0,0,0
									c-0.3-0.2,0.1-1.5,0.3-1.9c0.2-0.3,0.7-0.5,1-0.3C20,23.9,20.1,24.2,20,24.5z"/>
							</g>
						</g>
					</g>
				</g>
			</g>
		</g>
		<g>
			<g>
				<g>
					<g>
						<path fill="#E9B02C" d="M20.5,24.5c-0.3,0.7-0.8,1.2-1.2,1.5c-0.3,0.2-0.7,0.4-0.8,0.4c0.3-0.2,0.2-0.1,0.7-0.5
							c0.4-0.3,0.9-1,1.1-1.5c0.3-0.7-0.1-1.3-0.6-1.2c-0.3,0-0.5,0.1-0.8,0.3c0.1-0.2,0.4-0.5,0.7-0.5
							C20.3,22.9,20.9,23.6,20.5,24.5z"/>
					</g>
				</g>
				<g>
					<g>
						<path fill="#E9B02C" d="M17.5,26.5c-0.1,0-0.5-0.2-0.8-0.4c-0.4-0.3-1-0.8-1.2-1.5c-0.4-0.8,0.2-1.7,1-1.5
							c0.3,0.1,0.6,0.3,0.7,0.5c-0.2-0.2-0.5-0.3-0.8-0.3c-0.6,0-0.9,0.7-0.6,1.2c0.2,0.5,0.7,1.2,1.1,1.5
							C17.3,26.3,17.2,26.3,17.5,26.5z"/>
					</g>
				</g>
			</g>
			<g>
				<g>
					<g>
						<g>
							<path fill="#E9B02C" d="M16.1,24.7c0.2,0.3,1.1,1.3,1.4,1.1c0.3-0.2-0.1-1.5-0.3-1.9c-0.2-0.3-0.7-0.5-1-0.3
								C15.9,23.9,15.9,24.3,16.1,24.7z"/>
						</g>
					</g>
				</g>
				<g>
					<g>
						<g>
							<g>
								<path fill="#DE9C25" d="M16,24.5c0-0.1,0.1-0.2,0.2-0.2c0.3-0.2,0.6-0.1,0.8,0.2c0.1,0.2,0.4,0.9,0.5,1.3c0,0,0,0,0,0
									c0.3-0.2-0.1-1.5-0.3-1.9c-0.2-0.3-0.7-0.5-1-0.3C16,23.9,15.9,24.2,16,24.5z"/>
							</g>
						</g>
					</g>
				</g>
			</g>
		</g>
	</g>
	<g>
		<g>
			<g>
				<g>
					<g>
						<path fill="#E9B02C" d="M22.2,29.2c-0.3,0.2-0.9,0.2-1.1,0c-0.7,1.3-3.5,2-6.3,0.3C14,29,13.2,28,13.2,27
							c-0.4-0.1-0.7-0.2-0.9-0.6c0.7,0.2,1.1,0.5,1.7,0.2c-0.1,0.2-0.4,0.5-0.8,0.5c0.3,0.8,0.8,1.4,1.9,2c2.3,1.3,5,1.1,5.9,0.2
							c-0.3-0.2-0.5-0.6-0.4-0.8C21.1,29.1,21.5,29,22.2,29.2z"/>
					</g>
				</g>
			</g>
		</g>
	</g>
	<g>
		<g>
			<g>
				<g>
					<g>
						<g>
							<ellipse fill="#FFFFFF" cx="14.8" cy="18.3" rx="2.1" ry="2.8"/>
						</g>
					</g>
					<g>
						<g>
							<path fill="#DE9C25" d="M13.7,20.9c-0.7-0.6-1.1-1.7-1.2-2.6c-0.1-1.2,0.4-2.2,1.1-2.7c1-0.8,2.9-0.4,3.2,2
								C17.2,20.8,15.1,22,13.7,20.9z M16.7,17.6c-0.2-1-1.4-2.5-2.8-1.6c-0.7,0.5-1.1,1.4-1.1,2.3c-0.1,0.9,0.3,1.9,1.1,2.4
								C15.3,21.5,17.2,19.6,16.7,17.6z"/>
						</g>
					</g>
				</g>
			</g>
			<g>
				<g>
					<g>
						<g>
							<ellipse fill="#65B1EF" cx="14.8" cy="18.7" rx="1.2" ry="1.6"/>
						</g>
					</g>
				</g>
				<g>
					<g>
						<g>
							<ellipse fill="#3E4347" cx="14.8" cy="18.7" rx="0.6" ry="0.8"/>
						</g>
					</g>
				</g>
				<g>
					<g>
						<g>
							<circle fill="#FFFFFF" cx="15.1" cy="18.1" r="0.4"/>
						</g>
					</g>
				</g>
			</g>
		</g>
		<g>
			<g>
				<g>
					<g>
						<g>
							<ellipse fill="#FFFFFF" cx="21.4" cy="18.3" rx="2.1" ry="2.8"/>
						</g>
					</g>
					<g>
						<g>
							<path fill="#DE9C25" d="M20.3,20.9c-0.7-0.6-1.1-1.7-1.2-2.6c-0.1-1.2,0.4-2.2,1.1-2.7c1-0.8,2.9-0.4,3.2,2
								C23.8,20.8,21.7,22,20.3,20.9z M23.3,17.6c-0.2-1-1.4-2.5-2.8-1.6c-0.7,0.5-1.1,1.4-1.1,2.3c-0.1,0.9,0.3,1.9,1.1,2.4
								C21.9,21.5,23.8,19.6,23.3,17.6z"/>
						</g>
					</g>
				</g>
			</g>
			<g>
				<g>
					<g>
						<g>
							<ellipse fill="#65B1EF" cx="21.4" cy="18.7" rx="1.2" ry="1.6"/>
						</g>
					</g>
				</g>
				<g>
					<g>
						<g>
							<ellipse fill="#3E4347" cx="21.4" cy="18.7" rx="0.6" ry="0.8"/>
						</g>
					</g>
				</g>
				<g>
					<g>
						<g>
							<circle fill="#FFFFFF" cx="21.7" cy="18.1" r="0.4"/>
						</g>
					</g>
				</g>
			</g>
		</g>
	</g>
</g>
</svg>
