<?xml version="1.0" encoding="utf-8"?>
<!-- Generator: Adobe Illustrator 18.0.0, SVG Export Plug-In . SVG Version: 6.00 Build 0)  -->
<!DOCTYPE svg PUBLIC "-//W3C//DTD SVG 1.1//EN" "http://www.w3.org/Graphics/SVG/1.1/DTD/svg11.dtd">
<svg version="1.1" id="Layer_1" xmlns="http://www.w3.org/2000/svg" xmlns:xlink="http://www.w3.org/1999/xlink" x="0px" y="0px"
	 viewBox="0 0 36 36" enable-background="new 0 0 36 36" xml:space="preserve">
<g>
	<g>
		<g>
			<g>
				<g>
					<g>
						<ellipse fill="#8CC63E" cx="18" cy="14.3" rx="11.7" ry="11.6"/>
					</g>
				</g>
				<g>
					<g>
						<g>
							<path fill="#8CC63E" d="M34,19.8c0,0.6-0.1,1.2-0.2,1.7c0,0.1,0,0.1,0,0.2c-0.4,2.4-1.7,4.4-3.4,5.9
								c-2.1,1.8-4.3,2.7-6.8,3.3c-1.3,1.4-3.2,2.3-5.5,2.4c-2.3,0-4.2-1-5.6-2.4c-2.5-0.6-4.9-1.6-6.8-3.3
								c-2.1-1.8-3.2-3.9-3.5-6.4c-0.1-0.5-0.1-1-0.1-1.5C1.8,13.3,8.7,12,18,12C27.3,12,34.2,13.3,34,19.8z"/>
						</g>
					</g>
				</g>
				<g opacity="0.5">
					<g>
						<g>
							<g>
								<path fill="#7FB239" d="M28.8,20.7c-0.2,0.2-3.7,2.9-6.6,3.6C18.9,25.1,18,26,18,26s-0.9-0.8-4.3-1.7
									c-2.9-0.7-6.4-3.4-6.6-3.6c6.5,3.2,5.6,2.4,8.4,3.1c1.3,0.3,1.8,0.6,2.5,1c0.5-0.4,1.8-0.8,2.5-1
									C23,23.1,22.4,23.8,28.8,20.7z"/>
							</g>
						</g>
					</g>
				</g>
				<g>
					<g>
						<g>
							<path fill="#719D34" d="M22.7,25.4c-0.1,3-2.2,5.4-4.7,5.4c-2.5,0-4.6-2.4-4.7-5.4c0-0.4,0-0.8,0.1-1.2c0,0,0,0,0,0
								c0.1,0,0.2,0.1,0.3,0.1C17.1,25.1,18,26,18,26s0.8-0.8,4.3-1.7c0.1,0,0.2-0.1,0.3-0.1c0,0,0,0,0,0
								C22.7,24.6,22.7,25,22.7,25.4z"/>
						</g>
					</g>
				</g>
				<g>
					<g>
						<g>
							<path fill="#3E4347" d="M22.1,25.4c-0.1,2.7-1.9,4.8-4.1,4.8c-2.2,0-4.1-2.1-4.2-4.8c0-0.4,0-0.7,0.1-1
								C17.2,25.2,18,26,18,26s0.8-0.8,4.1-1.6C22.1,24.7,22.2,25,22.1,25.4z"/>
						</g>
					</g>
				</g>
				<g>
					<g>
						<g>
							<path fill="#31373A" d="M20.1,26.2c0,1.4-1,2.5-2.1,2.5c-1.2,0-2.1-1.1-2.1-2.5c0-0.4,0.1-0.8,0.2-1.2c1.5,0.6,1.9,1,1.9,1
								s0.4-0.4,1.9-1C20.1,25.3,20.2,25.7,20.1,26.2z"/>
						</g>
					</g>
				</g>
				<g>
					<g>
						<g>
							<g>
								<path fill="#719D34" d="M7.2,20.7c0.8,0.6,1.7,1.1,2.6,1.6c2.9,1.7,4,1.7,5.6,2.2c0.8,0.3,2.2,0.7,2.9,1.3h-0.3
									c0.7-0.6,2-1,2.9-1.3c1.6-0.5,2.8-0.5,5.6-2.2c0.9-0.5,1.7-1.1,2.6-1.6c-0.8,0.7-1.6,1.3-2.4,1.8c-2.9,1.9-4.2,1.9-5.6,2.4
									c-4.8,1.5-0.5,1.7-5.6,0c-1.5-0.5-2.7-0.5-5.6-2.4C8.7,21.9,7.9,21.3,7.2,20.7z"/>
							</g>
						</g>
					</g>
				</g>
				<g>
					<g>
						<path fill="#E24B4B" d="M21.3,28.2c-0.5-1.2-1.7-2.1-2.8-1.6c-0.4,0.2-1,0.2-1.4,0.1c-1.3-0.3-2.1,0.5-2.5,1.4
							c0.8,1.2,2,2,3.3,2C19.4,30.2,20.6,29.4,21.3,28.2z"/>
					</g>
				</g>
			</g>
			<g>
				<g>
					<g>
						<g>
							<path fill="#719D34" d="M28.4,19.6c0.9-0.2,1.7,0.9,1.3,1.6C29.7,21.2,29.7,20.5,28.4,19.6z"/>
						</g>
					</g>
				</g>
				<g>
					<g>
						<g>
							<path fill="#719D34" d="M7.6,19.6c-1.3,0.8-1.3,1.6-1.3,1.6C5.9,20.5,6.7,19.4,7.6,19.6z"/>
						</g>
					</g>
				</g>
			</g>
			<g>
				<g>
					<g>
						<g>
							<g>
								<path fill="#7FB239" d="M22.1,20.6c-0.5,0.4-1.4,0.7-2.1,0.9c0.2-0.6,0.6-1.5,1.1-1.8C22,19,22.9,19.9,22.1,20.6z"/>
							</g>
						</g>
					</g>
					<g>
						<g>
							<g>
								<path fill="#719D34" d="M22.1,20.6c-0.1,0.1-0.2,0.2-0.3,0.2c0.3-0.4-0.2-0.8-0.7-0.5c-0.3,0.2-1,0.8-1.1,1.1
									c0.2-0.6,0.6-1.5,1.1-1.8C22,19,22.9,19.9,22.1,20.6z"/>
							</g>
						</g>
					</g>
					<g>
						<g>
							<g>
								<path fill="#719D34" d="M22.9,20.7c-0.3,0.5-0.8,0.8-1.4,1.1c-0.5,0.2-0.9,0.3-1,0.3c0.1,0,0.4-0.2,0.9-0.5
									c0.4-0.2,1-0.7,1.2-1.1c0.3-0.4,0.2-1.1-0.3-1.4c-0.4-0.3-1-0.2-1.3,0c-0.2,0.1-0.3,0.2-0.5,0.4c0.2-0.3,0.2-0.3,0.4-0.5
									c0.3-0.3,1.1-0.5,1.5-0.2C23.1,19.2,23.3,20.1,22.9,20.7z"/>
							</g>
						</g>
					</g>
				</g>
				<g>
					<g>
						<g>
							<g>
								<path fill="#7FB239" d="M13.9,20.6c0.5,0.4,1.4,0.7,2.1,0.9c-0.2-0.6-0.6-1.5-1.1-1.8C14,19,13.1,19.9,13.9,20.6z"/>
							</g>
						</g>
					</g>
					<g>
						<g>
							<g>
								<path fill="#719D34" d="M13.9,20.6c0.1,0.1,0.2,0.2,0.3,0.2c-0.3-0.4,0.2-0.8,0.7-0.5c0.3,0.2,1,0.8,1.1,1.1
									c-0.2-0.6-0.6-1.5-1.1-1.8C14,19,13.1,19.9,13.9,20.6z"/>
							</g>
						</g>
					</g>
					<g>
						<g>
							<g>
								<path fill="#719D34" d="M13.1,20.7c0.3,0.5,0.8,0.8,1.4,1.1c0.5,0.2,0.9,0.3,1,0.3c-0.1,0-0.4-0.2-0.9-0.5
									c-0.4-0.2-1-0.7-1.2-1.1c-0.3-0.4-0.2-1.1,0.3-1.4c0.4-0.3,1-0.2,1.3,0c0.2,0.1,0.3,0.2,0.5,0.4c-0.2-0.3-0.2-0.3-0.4-0.5
									c-0.3-0.3-1.1-0.5-1.5-0.2C12.9,19.2,12.7,20.1,13.1,20.7z"/>
							</g>
						</g>
					</g>
				</g>
			</g>
			<g>
				<g>
					<g>
						<path fill="#D03F3F" d="M15.7,27.6c0.2-0.3,0.6-0.5,1-0.5c0.5,0,1.1,0.4,1.5,1.6c-0.1-0.8,0-1.6,0.6-2.1
							c-0.1,0-0.2,0.1-0.3,0.1c-0.4,0.2-1,0.2-1.4,0.1c-1.3-0.3-2.1,0.5-2.5,1.4c0.6,0.9,1.4,1.6,2.4,1.9
							C15.9,29.5,15.4,28.2,15.7,27.6z"/>
					</g>
				</g>
			</g>
			<g opacity="0.2">
				<g>
					<g>
						<path fill="#FFFFFF" d="M20.2,27.5c-0.1,0.1-0.4,0.1-0.8,0c-0.3-0.2-0.5-0.4-0.4-0.5c0.1-0.1,0.4-0.1,0.8,0
							C20.1,27.2,20.3,27.4,20.2,27.5z"/>
					</g>
				</g>
			</g>
		</g>
		<g>
			<g>
				<g>
					<g>
						<g>
							<g>
								<g>
									
										<ellipse transform="matrix(0.9807 0.1956 -0.1956 0.9807 2.1281 -1.8215)" fill="#8CC63E" cx="10.3" cy="9.9" rx="4.7" ry="6.2"/>
								</g>
							</g>
						</g>
						<g>
							<g>
								<g>
									<g>
										<g>
											<ellipse fill="#3E4347" cx="10.7" cy="10.4" rx="4.1" ry="5.2"/>
										</g>
									</g>
								</g>
							</g>
							<g>
								<g>
									<g>
										<g>
											<ellipse fill="#FFFFFF" cx="10.8" cy="10.8" rx="3.9" ry="5"/>
										</g>
									</g>
								</g>
							</g>
							<g>
								<g>
									<g>
										<g>
											<ellipse fill="#65B1EF" cx="10.8" cy="11.5" rx="2.6" ry="3.3"/>
										</g>
									</g>
								</g>
							</g>
							<g>
								<g>
									<g>
										<g>
											<ellipse fill="#3E4347" cx="10.8" cy="11.7" rx="1.4" ry="1.8"/>
										</g>
									</g>
								</g>
							</g>
							<g>
								<g>
									<g>
										<circle fill="#FFFFFF" cx="11.9" cy="10.5" r="0.7"/>
									</g>
								</g>
							</g>
						</g>
					</g>
				</g>
				<g>
					<g>
						<g>
							<g>
								<path fill="#719D34" d="M14.9,7.5c-0.5-1-1.2-2.1-2.4-2.8C11.3,4.1,10,4.2,8.8,4.9C7.5,5.6,6.9,6.5,6.1,7.5
									c0.5-1.2,1.2-2.3,2.4-3.1c1.5-1,3.1-1,4.3-0.2C13.9,5,14.6,6.3,14.9,7.5z"/>
							</g>
						</g>
					</g>
				</g>
			</g>
			<g>
				<g>
					<g>
						<g>
							<g>
								
									<ellipse transform="matrix(-0.9807 0.1956 -0.1956 -0.9807 52.8627 14.5032)" fill="#8CC63E" cx="25.7" cy="9.9" rx="4.7" ry="6.2"/>
							</g>
						</g>
					</g>
					<g>
						<g>
							<g>
								<g>
									<g>
										<ellipse fill="#3E4347" cx="25.3" cy="10.4" rx="4.1" ry="5.2"/>
									</g>
								</g>
							</g>
						</g>
						<g>
							<g>
								<g>
									<g>
										<ellipse fill="#FFFFFF" cx="25.2" cy="10.8" rx="3.9" ry="5"/>
									</g>
								</g>
							</g>
						</g>
						<g>
							<g>
								<g>
									<g>
										<ellipse fill="#65B1EF" cx="25.2" cy="11.5" rx="2.6" ry="3.3"/>
									</g>
								</g>
							</g>
						</g>
						<g>
							<g>
								<g>
									<g>
										<ellipse fill="#3E4347" cx="25.2" cy="11.7" rx="1.4" ry="1.8"/>
									</g>
								</g>
							</g>
						</g>
						<g>
							<g>
								<g>
									<circle fill="#FFFFFF" cx="24.1" cy="10.5" r="0.7"/>
								</g>
							</g>
						</g>
					</g>
				</g>
				<g>
					<g>
						<g>
							<g>
								<path fill="#719D34" d="M29.9,7.5c-0.8-1-2.3-3.2-4.5-3.2c-2.1-0.1-3.3,1.4-4.2,3.2c0.4-2.1,2-4,4.2-3.8
									C27.5,3.8,29,5.6,29.9,7.5z"/>
							</g>
						</g>
					</g>
				</g>
			</g>
		</g>
		<g>
			<g>
				<g>
					<g>
						<g>
							<path fill="#8CC63E" d="M30.8,17.6c-0.2-1.2-1.4-2.4-3.2-3c-2-0.7-4-0.4-5.1,0.6v2.4H30.8z"/>
						</g>
					</g>
				</g>
				<g>
					<g>
						<g>
							<path fill="#7FB239" d="M30.8,17.6c-0.3-1-1.5-2.3-3.7-2.9c-1.5-0.4-3.5-0.4-4.7,0.5c0.7-0.9,2.6-1.6,4.8-1
								C29.7,15,30.9,16.6,30.8,17.6z"/>
						</g>
					</g>
				</g>
			</g>
			<g>
				<g>
					<g>
						<g>
							<path fill="#8CC63E" d="M5.2,17.6c0.2-1.2,1.4-2.4,3.2-3c2-0.7,4-0.4,5.1,0.6v2.4H5.2z"/>
						</g>
					</g>
				</g>
				<g>
					<g>
						<g>
							<path fill="#7FB239" d="M5.2,17.6c0-1,1.1-2.7,3.5-3.4c2.2-0.6,4.2,0.1,4.8,1c-1.2-0.9-3.2-0.9-4.7-0.5
								C6.6,15.3,5.4,16.6,5.2,17.6z"/>
						</g>
					</g>
				</g>
			</g>
		</g>
	</g>
	<g>
		<g>
			<g>
				<g>
					<g>
						<g>
							<g>
								<path fill="#7FB239" d="M26.8,23.6c0.4-1.1,1.6-0.9,1.4,0.2c-0.1,1-1.1,1.3-1.5,0.9C26.6,24.4,26.7,23.8,26.8,23.6z"/>
							</g>
						</g>
					</g>
					<g>
						<g>
							<g>
								<path fill="#7FB239" d="M28.3,26.8c0.3,0.3,0.3,0.6-0.1,0.7c-0.5,0.2-1,0.2-1.5,0c-1-0.3-0.9-1.7,0.4-1.3
									C27.6,26.4,28,26.5,28.3,26.8z"/>
							</g>
						</g>
					</g>
					<g>
						<g>
							<g>
								<path fill="#7FB239" d="M30.6,23c-0.6-1,0.5-2.7,1.8-2.4C33,20.8,31.1,23.9,30.6,23z"/>
							</g>
						</g>
					</g>
				</g>
			</g>
			<g>
				<g>
					<g>
						<path fill="#7FB239" d="M30.4,24.6c0.4,0,0.4,0.2,0.1,0.5c-2.4,1.7-3.5,0.3-1.9-0.2C29.2,24.8,29.8,24.7,30.4,24.6z"/>
					</g>
				</g>
			</g>
		</g>
		<g>
			<g>
				<g>
					<g>
						<g>
							<g>
								<path fill="#7FB239" d="M9.2,23.6c-0.4-1.1-1.6-0.9-1.4,0.2c0.1,1,1.1,1.3,1.5,0.9C9.4,24.4,9.3,23.8,9.2,23.6z"/>
							</g>
						</g>
					</g>
					<g>
						<g>
							<g>
								<path fill="#7FB239" d="M7.7,26.8c-0.3,0.3-0.3,0.6,0.1,0.7c0.5,0.2,1,0.2,1.5,0c1-0.3,0.9-1.7-0.4-1.3
									C8.4,26.4,8,26.5,7.7,26.8z"/>
							</g>
						</g>
					</g>
					<g>
						<g>
							<g>
								<path fill="#7FB239" d="M5.4,21.8c-0.4-0.9-1.2-1.3-1.6-0.5c-0.5,1.1,0.4,2.4,1.8,2.4C6,23.6,6.3,23.3,6,23
									C5.7,22.5,5.8,22.6,5.4,21.8z"/>
							</g>
						</g>
					</g>
				</g>
			</g>
			<g>
				<g>
					<g>
						<path fill="#7FB239" d="M5.6,24.6c-0.4,0-0.4,0.2-0.1,0.5c2.4,1.7,3.5,0.3,1.9-0.2C6.8,24.8,6.2,24.7,5.6,24.6z"/>
					</g>
				</g>
			</g>
		</g>
	</g>
	<g>
		<g>
			<g>
				<path fill="#7FB239" d="M33.9,21c-0.3,2.7-1.6,4.9-3.6,6.6c-2.1,1.8-4.3,2.7-6.8,3.3c-1.3,1.4-3.2,2.3-5.5,2.4
					c-2.3,0-4.2-1-5.6-2.4c-2.5-0.6-4.9-1.6-6.8-3.3c-2.1-1.8-3.3-4-3.6-6.6c0.5,2.5,1.7,4.5,3.9,6.2c2,1.6,5.1,2.7,6.8,3
					c1.2,1.4,3.1,2.3,5.2,2.2c2.7-0.1,3.9-1,5.2-2.2c1.3-0.2,4.5-1.2,6.8-3C32,25.7,33.3,23.7,33.9,21z"/>
			</g>
		</g>
	</g>
</g>
</svg>
