<?xml version="1.0" encoding="utf-8"?>
<!-- Generator: Adobe Illustrator 18.0.0, SVG Export Plug-In . SVG Version: 6.00 Build 0)  -->
<!DOCTYPE svg PUBLIC "-//W3C//DTD SVG 1.1//EN" "http://www.w3.org/Graphics/SVG/1.1/DTD/svg11.dtd">
<svg version="1.1" id="Layer_1" xmlns="http://www.w3.org/2000/svg" xmlns:xlink="http://www.w3.org/1999/xlink" x="0px" y="0px"
	 viewBox="0 0 36 36" enable-background="new 0 0 36 36" xml:space="preserve">
<g>
	<g>
		<g>
			<g>
				<g>
					<g>
						<g>
							<g>
								<path fill="#84939A" d="M27.9,15.8c-1.1,0.6-2.4,0.8-3.5,0.8c-2.3-0.2-2.6-1.9-1.6-3.8c1.5-2.9,6.7-5.3,9-10.5
									c0.1-0.3,0.6-0.2,0.6,0.1C33.3,8.6,30.2,14.5,27.9,15.8z"/>
							</g>
						</g>
					</g>
					<g>
						<g>
							<g>
								<path fill="#DAE5EF" d="M31.9,5.2c0.4,1.8-2.2,12.3-7.3,9.5C27.6,12.5,29.7,9.7,31.9,5.2z"/>
							</g>
						</g>
					</g>
					<g>
						<g>
							<path fill="#CBD6E0" d="M31.9,5.2c-2.2,4.5-4.4,7.3-7.3,9.4c1.3,0.7,2.4,0.6,3.4,0l-1.7-0.2C26.3,14.4,29.9,11.6,31.9,5.2z"
								/>
						</g>
					</g>
				</g>
				<g>
					<g>
						<g>
							<g>
								<path fill="#84939A" d="M8.1,15.8c1.1,0.6,2.4,0.8,3.5,0.8c2.3-0.2,2.6-1.9,1.6-3.8c-1.5-2.9-6.7-5.3-9-10.5
									C4.1,1.9,3.6,2,3.6,2.3C2.7,8.6,5.8,14.5,8.1,15.8z"/>
							</g>
						</g>
					</g>
					<g>
						<g>
							<g>
								<path fill="#DAE5EF" d="M4.1,5.2c-0.4,1.8,2.2,12.3,7.3,9.5C8.4,12.5,6.3,9.7,4.1,5.2z"/>
							</g>
						</g>
					</g>
					<g>
						<g>
							<path fill="#CBD6E0" d="M4.1,5.2c2.2,4.5,4.4,7.3,7.3,9.4c-1.3,0.7-2.4,0.6-3.4,0l1.7-0.2C9.7,14.4,6.1,11.6,4.1,5.2z"/>
						</g>
					</g>
				</g>
			</g>
		</g>
		<g>
			<g>
				<g>
					<g>
						<g>
							<ellipse fill="#8D9BA3" cx="18" cy="20.5" rx="9.1" ry="11.2"/>
						</g>
					</g>
				</g>
				<g>
					<g>
						<g>
							<g>
								<g>
									<ellipse fill="#3E4347" cx="22.5" cy="18.7" rx="2.3" ry="3.2"/>
								</g>
							</g>
						</g>
						<g>
							<g>
								<g>
									<g>
										<ellipse fill="#FFFFFF" cx="22.4" cy="19" rx="2" ry="2.8"/>
									</g>
								</g>
							</g>
							<g>
								<g>
									<g>
										<path fill="#65B1EF" d="M23.7,19.6c0,0.9-0.6,1.5-1.3,1.5c-0.7,0-1.3-0.7-1.3-1.5c0-0.8,0.6-1.5,1.3-1.5
											C23.1,18,23.7,18.7,23.7,19.6z"/>
									</g>
								</g>
							</g>
							<g>
								<g>
									<g>
										<path fill="#3E4347" d="M23.1,19.7c0,0.5-0.3,0.8-0.7,0.8s-0.7-0.4-0.7-0.8c0-0.5,0.3-0.8,0.7-0.8S23.1,19.2,23.1,19.7z"
											/>
									</g>
								</g>
							</g>
							<g>
								<g>
									<g>
										<circle fill="#FFFFFF" cx="22.8" cy="19" r="0.3"/>
									</g>
								</g>
							</g>
						</g>
					</g>
					<g>
						<g>
							<g>
								<g>
									<ellipse fill="#3E4347" cx="13.5" cy="18.7" rx="2.3" ry="3.2"/>
								</g>
							</g>
						</g>
						<g>
							<g>
								<g>
									<g>
										<ellipse fill="#FFFFFF" cx="13.6" cy="19" rx="2" ry="2.8"/>
									</g>
								</g>
							</g>
							<g>
								<g>
									<g>
										<path fill="#65B1EF" d="M14.8,19.6c0,0.9-0.6,1.5-1.3,1.5c-0.7,0-1.3-0.7-1.3-1.5c0-0.8,0.6-1.5,1.3-1.5
											C14.3,18,14.8,18.7,14.8,19.6z"/>
									</g>
								</g>
							</g>
							<g>
								<g>
									<g>
										<path fill="#3E4347" d="M14.3,19.7c0,0.5-0.3,0.8-0.7,0.8c-0.4,0-0.7-0.4-0.7-0.8c0-0.5,0.3-0.8,0.7-0.8
											C14,18.9,14.3,19.2,14.3,19.7z"/>
									</g>
								</g>
							</g>
							<g>
								<g>
									<g>
										<circle fill="#FFFFFF" cx="14" cy="19" r="0.3"/>
									</g>
								</g>
							</g>
						</g>
					</g>
				</g>
			</g>
		</g>
		<g>
			<g>
				<g>
					<g>
						<path fill="#3E4347" d="M20.3,14c0,0,2.8-0.2,4.5,1.4C24.8,15.4,23,12.1,20.3,14z"/>
					</g>
				</g>
			</g>
			<g>
				<g>
					<g>
						<path fill="#3E4347" d="M15.7,14c0,0-2.8-0.2-4.5,1.4C11.2,15.4,13,12.1,15.7,14z"/>
					</g>
				</g>
			</g>
		</g>
		<g>
			<g>
				<g>
					<g>
						<g>
							<path fill="#E9EFF4" d="M25.9,28.3c0,3.2-3.6,5.7-7.9,5.7c-4.4,0-7.9-2.6-7.9-5.7c0-1.8,1.2-3.5,3.1-4.5
								c0.6-1.8,2.4-3.2,4.5-3.3c2.4-0.2,4.6,1.3,5.3,3.4C24.8,24.8,25.9,26.5,25.9,28.3z"/>
						</g>
					</g>
				</g>
				<g>
					<g>
						<g>
							<g>
								<g>
									<path fill="#E9EFF4" d="M23.5,25.4c-0.9,0.9-2.4,1.4-3,0.8c-0.6-0.6-0.1-2.2,0.8-3s1.7-0.7,2.4-0.1
										C24.3,23.6,24.4,24.5,23.5,25.4z"/>
								</g>
							</g>
						</g>
						<g>
							<g>
								<g>
									<g>
										<path fill="#5A5F63" d="M22.9,25c-0.5,0.5-1.4,0.7-1.6,0.5c-0.2-0.2,0-1.1,0.5-1.6c0.5-0.5,0.9-0.4,1.2-0.1
											C23.3,24.1,23.3,24.5,22.9,25z"/>
									</g>
								</g>
							</g>
							<g>
								<g>
									<g>
										<path fill="#3E4347" d="M22.9,24.9c0-0.1-0.1-0.2-0.1-0.3c-0.2-0.2-0.5-0.2-0.8,0.1c-0.2,0.2-0.6,0.6-0.7,0.8c0,0,0,0,0,0
											c-0.2-0.2,0-1.1,0.5-1.6c0.5-0.5,0.9-0.4,1.2-0.1C23.3,24.1,23.3,24.5,22.9,24.9z"/>
									</g>
								</g>
							</g>
						</g>
						<g>
							<g>
								<g>
									<path fill="#D3D9DD" d="M20.8,23.7c0.4-0.6,0.6-0.9,1.4-1.2c0.7-0.1,1.1,0,1.6,0.5c0.5,0.6,0.5,1.2,0.1,1.8
										c-0.1,0.1-0.2,0.3-0.4,0.4c0.1-0.1,0.2-0.3,0.3-0.5c0.2-0.6,0.2-1.1-0.2-1.6c-0.5-0.5-0.8-0.5-1.4-0.5
										C21.4,23,21.4,23.1,20.8,23.7z"/>
								</g>
							</g>
						</g>
					</g>
					<g>
						<g>
							<g>
								<g>
									<path fill="#E9EFF4" d="M12.5,25.4c0.9,0.9,2.4,1.4,3,0.8c0.6-0.6,0.1-2.2-0.8-3S13,22.4,12.4,23
										C11.7,23.6,11.6,24.5,12.5,25.4z"/>
								</g>
							</g>
						</g>
						<g>
							<g>
								<g>
									<g>
										<path fill="#5A5F63" d="M13.1,25c0.5,0.5,1.4,0.7,1.6,0.5c0.2-0.2,0-1.1-0.5-1.6c-0.5-0.5-0.9-0.4-1.2-0.1
											C12.7,24.1,12.7,24.5,13.1,25z"/>
									</g>
								</g>
							</g>
							<g>
								<g>
									<g>
										<path fill="#3E4347" d="M13.1,24.9c0-0.1,0.1-0.2,0.1-0.3c0.2-0.2,0.5-0.2,0.8,0.1c0.2,0.2,0.6,0.6,0.7,0.8c0,0,0,0,0,0
											c0.2-0.2,0-1.1-0.5-1.6c-0.5-0.5-0.9-0.4-1.2-0.1C12.7,24.1,12.7,24.5,13.1,24.9z"/>
									</g>
								</g>
							</g>
						</g>
						<g>
							<g>
								<g>
									<path fill="#D3D9DD" d="M15.2,23.7c-0.6-0.6-0.5-0.6-1.5-1c-0.2,0-0.3,0-0.5,0c-0.4,0-0.9,0.4-1.1,0.9
										c-0.2,0.5-0.2,0.9,0.3,1.7c-0.5-0.5-0.7-1-0.5-1.8c0.2-0.6,0.8-1,1.3-1.1C13.8,22.3,14.5,22.6,15.2,23.7z"/>
								</g>
							</g>
						</g>
					</g>
				</g>
			</g>
			<g>
				<g>
					<g>
						<g>
							<path fill="#3E4347" d="M14.3,30.5c0,0,0.1,0,0.4,0.1c0.2,0.1,0.6,0.2,1,0.3c0.8,0.2,1.9,0.2,3,0c1.1-0.2,1.8-0.6,2.7-1.2
								c0.7-0.6,1.1-0.9,1.1-0.9c-0.3,0.4-0.5,0.8-0.9,1.2c-0.9,0.9-1.8,1.3-2.8,1.6c-1,0.2-1.9,0.2-3.2-0.2
								c-0.4-0.2-0.7-0.4-0.9-0.5C14.5,30.6,14.3,30.5,14.3,30.5z"/>
						</g>
					</g>
				</g>
				<g>
					<g>
						<g>
							<g>
								<path fill="#3E4347" d="M21.8,28c0.6-0.3,1.6,0.3,1.6,1.1C23,28.6,22.6,28.2,21.8,28z"/>
							</g>
						</g>
					</g>
					<g>
						<g>
							<g>
								<path fill="#3E4347" d="M13.6,31c0,0-0.1-0.1-0.1-0.3c0-0.7,0.6-1.2,1.2-1.3c-0.4,0.4-0.5,0.4-0.5,0.4
									c-0.1,0.1-0.2,0.2-0.2,0.3C13.7,30.5,13.6,31,13.6,31z"/>
							</g>
						</g>
					</g>
				</g>
			</g>
		</g>
	</g>
	<g>
		<g>
			<g>
				<path fill="#8D9BA3" d="M15.5,10.3c0.1-1.5,1-2.7,1.9-3.4c-0.3,0.4-0.5,0.9-0.5,1.4c0.6-0.5,1.3-0.9,2.1-0.9
					c0.8,0,1.6,0.2,2.2,0.7c-0.6,0-1.2,0.1-1.8,0.4c1.1,0.3,1.9,1.3,2,2.4c-0.4-0.3-1.7-0.9-2.8-0.3"/>
			</g>
		</g>
	</g>
	<g>
		<g>
			<g>
				<path fill="#7B8B92" d="M21.5,11.2c-0.8-0.7-1.8-0.8-2.5-0.6c0.9-0.3,1.7-0.1,2.3,0.3c-0.2-1-0.9-1.8-2.2-2.2
					c0.5-0.3,1-0.6,1.6-0.6c-1.2-0.7-2.6-0.6-4,0.7c0-0.5,0.1-0.8,0.3-1.3c-0.8,0.8-1.4,1.8-1.5,2.9c0-1.8,1-2.9,2.4-3.8
					C17.5,7,17.2,7.4,17.1,8c1.2-0.9,2.9-1.1,4.6,0.3c-0.7-0.1-1.2-0.1-1.9,0.2C20.7,8.9,21.5,9.9,21.5,11.2z"/>
			</g>
		</g>
	</g>
</g>
</svg>
