<?xml version="1.0" encoding="utf-8"?>
<!-- Generator: Adobe Illustrator 18.0.0, SVG Export Plug-In . SVG Version: 6.00 Build 0)  -->
<!DOCTYPE svg PUBLIC "-//W3C//DTD SVG 1.1//EN" "http://www.w3.org/Graphics/SVG/1.1/DTD/svg11.dtd">
<svg version="1.1" id="Layer_1" xmlns="http://www.w3.org/2000/svg" xmlns:xlink="http://www.w3.org/1999/xlink" x="0px" y="0px"
	 viewBox="0 0 36 36" enable-background="new 0 0 36 36" xml:space="preserve">
<g>
	<g>
		<g>
			<g>
				<g>
					<g>
						<g>
							<path fill="#CBD6E0" d="M33,10.4c0.6,1.1,0.7,2.6,0.2,3.7c-0.2-0.5-0.3-1-0.5-1.5c-0.3,1.9-1.4,3.7-3,4.7
								c0.3-0.4,0.4-0.9,0.5-1.4c-1.4,2.1-6.7,3.3-7.8-1.2c-1.5-5.9,2.3-7.3,2.8-8c-0.4,0.7-0.8,1.4-0.9,2.2c0.7-1,1.7-1.7,2.8-2
								c-0.3,0.3-0.5,0.8-0.5,1.2c2.7-2.5,7-0.3,7.4,3C33.7,10.8,33.4,10.5,33,10.4z"/>
						</g>
					</g>
				</g>
				<g>
					<g>
						<g>
							<path fill="#FC97B2" d="M25,11c-0.1,0.3-0.1,0.6-0.2,0.9c0.5-1.3,1.5-2.3,2.6-2.8c-0.1,0.3-0.3,0.7-0.4,1
								c1.3-1.3,3.3-1.3,4.5,0.1c-0.2,0.1-0.4,0-0.5-0.1c0.9,0.5,0.8,1.8,0.6,2.8c-0.1-0.3-0.3-0.6-0.4-0.9c-0.3,5-6.1,5.7-7.1,3.8
								C23.3,14.2,23.8,12.4,25,11z"/>
						</g>
					</g>
				</g>
				<g>
					<g>
						<g>
							<path fill="#E88EA7" d="M27,10.2c0.1-0.3,0.3-0.7,0.4-1c-1.2,0.5-2.2,1.5-2.6,2.8c0.1-0.3,0.1-0.6,0.2-0.9
								c-1.2,1.4-1.7,3.2-0.9,4.9c0.4,0.8,1.7,1.1,3.1,0.9c-0.5,0-1.1-0.1-1.6-0.3c-1.3-0.7-0.8-3.7-0.8-3.7l0.1,0.6
								c0,0,0.4-1.8,1.6-2.9l-0.1,1.4c0,0,0.9-2.3,3.9-2c0.4,0,0.8,0.1,1.1,0.2C30.1,8.9,28.2,8.9,27,10.2z"/>
						</g>
					</g>
				</g>
			</g>
			<g opacity="0.5">
				<g>
					<g>
						<path fill="#BBC7D1" d="M29.9,7.1c0.7,0.3,2.1,0.9,2.7,1.8c-0.1-0.1-0.3-0.1-0.4,0c0,0,0.8,1.6,0.8,2.7
							c-0.1-0.1-0.2-0.3-0.4-0.4c-0.2,1.2-0.5,2.4-1.1,3.2c0,0,0-0.5-0.2-0.6c0,0-1.2,2.8-4.3,3.6c-2.1,0.5-3.5-0.8-4.2-1.7
							c1.6,3.3,6.2,2.1,7.4,0.2c-0.1,0.5-0.3,1-0.5,1.4c1.6-1,2.7-2.8,3-4.7c0.2,0.5,0.3,1,0.5,1.5c0.5-1.2,0.4-2.6-0.2-3.7
							c0.4,0.1,0.7,0.4,1,0.7C33.8,9,31.9,7.3,29.9,7.1z"/>
					</g>
				</g>
			</g>
		</g>
		<g>
			<g>
				<g>
					<g>
						<g>
							<path fill="#CBD6E0" d="M3,10.4c-0.6,1.1-0.7,2.6-0.2,3.7c0.2-0.5,0.3-1,0.5-1.5c0.3,1.9,1.4,3.7,3,4.7
								c-0.3-0.4-0.4-0.9-0.5-1.4c1.4,2.1,6.7,3.3,7.8-1.2c1.5-5.9-2.3-7.3-2.8-8c0.4,0.7,0.8,1.4,0.9,2.2c-0.7-1-1.7-1.7-2.8-2
								c0.3,0.3,0.5,0.8,0.5,1.2c-2.7-2.5-7-0.3-7.4,3C2.3,10.8,2.6,10.5,3,10.4z"/>
						</g>
					</g>
				</g>
				<g>
					<g>
						<g>
							<path fill="#FC97B2" d="M11,11c0.1,0.3,0.1,0.6,0.2,0.9c-0.5-1.3-1.5-2.3-2.6-2.8c0.1,0.3,0.3,0.7,0.4,1
								c-1.3-1.3-3.3-1.3-4.5,0.1c0.2,0.1,0.4,0,0.5-0.1C4,10.7,4.2,12,4.4,13c0.1-0.3,0.3-0.6,0.4-0.9c0.3,5,6.1,5.7,7.1,3.8
								C12.7,14.2,12.2,12.4,11,11z"/>
						</g>
					</g>
				</g>
				<g>
					<g>
						<g>
							<path fill="#E88EA7" d="M9,10.2c-0.1-0.3-0.3-0.7-0.4-1c1.2,0.5,2.2,1.5,2.6,2.8C11.1,11.6,11,11.3,11,11
								c1.2,1.4,1.7,3.2,0.9,4.9c-0.4,0.8-1.7,1.1-3.1,0.9c0.5,0,1.1-0.1,1.6-0.3c1.3-0.7,0.8-3.7,0.8-3.7l-0.1,0.6
								c0,0-0.4-1.8-1.6-2.9l0.1,1.4c0,0-0.9-2.3-3.9-2C5.3,9.9,5,10,4.6,10.1C5.9,8.9,7.8,8.9,9,10.2z"/>
						</g>
					</g>
				</g>
			</g>
			<g opacity="0.5">
				<g>
					<g>
						<path fill="#BBC7D1" d="M6.1,7.1C5.4,7.3,4.1,7.9,3.4,8.9c0.1-0.1,0.3-0.1,0.4,0c0,0-0.8,1.6-0.8,2.7c0.1-0.1,0.2-0.3,0.4-0.4
							c0.2,1.2,0.5,2.4,1.1,3.2c0,0,0-0.5,0.2-0.6c0,0,1.2,2.8,4.3,3.6c2.1,0.5,3.5-0.8,4.2-1.7c-1.6,3.3-6.2,2.1-7.4,0.2
							c0.1,0.5,0.3,1,0.5,1.4c-1.6-1-2.7-2.8-3-4.7c-0.2,0.5-0.3,1-0.5,1.5C2.2,13,2.3,11.5,3,10.4c-0.4,0.1-0.7,0.4-1,0.7
							C2.2,9,4.1,7.3,6.1,7.1z"/>
					</g>
				</g>
			</g>
		</g>
	</g>
	<g>
		<g>
			<g>
				<g>
					<g>
						<path fill="#DAE5EF" d="M18.6,9.7c0.6-0.4,1.4-0.5,2.1-0.2c-0.2-0.4-0.5-0.6-0.9-0.7c0.6-0.3,1.3-0.4,2-0.4
							c-0.9-0.8-2.2-0.6-3.4,0c0.1-0.6,0.4-1.1,0.9-1.4c-0.8,0.1-1.5,0.6-1.9,1.2c-0.8-0.6-1.9-0.6-2.6,0c0.6,0,1.2,0.3,1.6,0.8
							c-0.8,0.3-1.1,1.2-0.8,2"/>
					</g>
				</g>
			</g>
			<g>
				<g>
					<g>
						<path fill="#CBD6E0" d="M19.9,8.7c0.4,0.2,0.6,0.5,0.8,0.8c-0.8-0.4-1.6-0.3-2.1,0.1c0.5-0.4,1.3-0.5,1.9-0.3
							c-0.3-0.4-0.6-0.5-1-0.6c0.6-0.3,1.2-0.5,2-0.5c-1-0.7-2.2-0.3-3.3,0.3c0.1-0.5,0.2-1,0.6-1.4c-0.7,0.2-1.1,0.6-1.4,1.2
							c-0.9-0.6-1.7-0.6-2.4-0.2c0.5,0.1,1.1,0.4,1.4,0.8c-0.9,0.4-1.2,1.3-0.9,2c-0.3-0.8,0-1.6,0.8-2c-0.5-0.5-1-0.7-1.7-0.7
							c1-0.8,2-0.8,2.8-0.3c0.4-0.6,1.1-1.1,1.9-1.2c0,0,0.5-0.1,0.6-0.1c-0.6,0.4-1.1,0.6-1.3,1.4c1.6-0.8,2.6-0.5,3.5,0.3
							C21.3,8.4,20.7,8.4,19.9,8.7z"/>
					</g>
				</g>
			</g>
		</g>
	</g>
	<g>
		<g>
			<g>
				<path fill="#DAE5EF" d="M28.7,22.1c-0.2-0.2-0.3-0.5-0.4-0.7c0,1-0.3,2.1-0.8,3c0-0.3,0-0.6,0-0.9c-0.4,1.1-1.1,2-2,2.6
					c0.1-0.2,0.1-0.4,0.2-0.6c-1.2,1.2-2.6,2.1-4.3,2.5c-0.6,0.8-1.8,1.4-3.3,1.4c-1.4,0-2.6-0.5-3.2-1.3c-2-0.5-3.6-1.4-4.9-2.7
					c0.1,0.2,0.2,0.4,0.2,0.6c-0.9-0.6-1.6-1.5-2-2.6c0,0.3,0,0.6,0,0.9c-0.5-0.9-0.8-2-0.8-3c-0.1,0.3-0.2,0.5-0.3,0.7
					c-0.2-0.9,0.1-1.9,0.7-2.6C9.6,14.4,14.2,9.1,18,9.1c3.7,0,8.3,5,9.9,10.3C28.6,20.2,28.8,21.1,28.7,22.1z"/>
			</g>
		</g>
	</g>
	<g>
		<g>
			<g>
				<g>
					<g>
						<g>
							<g>
								<path fill="#3E4347" d="M24.2,16.8c-0.1-1.7-2.2-4.5-3.6-4.4c-1.4,0.1-1.7,3.1-1.6,4.7c0.1,1.7,1.3,2.3,2.7,2.2
									S24.3,18.4,24.2,16.8z"/>
							</g>
						</g>
					</g>
					<g>
						<g>
							<g>
								<path fill="#FFFFFF" d="M23.9,16.9c-0.1-1.5-2-4-3.2-3.9c-1.3,0.1-1.5,2.8-1.4,4.2s1.2,2.1,2.5,2C23,19.1,24,18.4,23.9,16.9
									z"/>
							</g>
						</g>
					</g>
				</g>
				<g>
					<g>
						<g>
							<g>
								<path fill="#65B1EF" d="M22.8,16.9c0,1.1-0.7,1.9-1.6,1.9c-0.9,0-1.6-0.9-1.6-1.9c0-1.1,0.7-1.9,1.6-1.9
									C22.1,14.9,22.8,15.8,22.8,16.9z"/>
							</g>
						</g>
					</g>
					<g>
						<g>
							<g>
								<path fill="#3E4347" d="M22.1,17c0,0.6-0.4,1.1-0.9,1.1c-0.5,0-0.9-0.5-0.9-1.1s0.4-1.1,0.9-1.1
									C21.7,15.9,22.1,16.4,22.1,17z"/>
							</g>
						</g>
					</g>
					<g>
						<g>
							<circle fill="#FFFFFF" cx="21.9" cy="16.4" r="0.4"/>
						</g>
					</g>
				</g>
			</g>
			<g>
				<g>
					<g>
						<path fill="#DAE5EF" d="M20.6,19.9c0,0,1.7-2.5,5.6-1"/>
					</g>
				</g>
			</g>
			<g>
				<g>
					<g>
						<path fill="#CBD6E0" d="M20.6,19.9c0.2-0.4,0.8-1,1.5-1.3c0.6-0.3,1.4-0.4,2.3-0.3c0.5,0.1,1.1,0.2,1.8,0.7
							c-0.2,0-0.4-0.1-1.9-0.3c-0.7-0.1-1.7,0.1-2.1,0.3C21.6,19.2,20.9,19.6,20.6,19.9z"/>
					</g>
				</g>
			</g>
		</g>
		<g>
			<g>
				<g>
					<g>
						<g>
							<g>
								<path fill="#3E4347" d="M11.8,16.8c0.1-1.7,2.2-4.5,3.6-4.4c1.4,0.1,1.7,3.1,1.6,4.7c-0.1,1.7-1.3,2.3-2.7,2.2
									S11.7,18.4,11.8,16.8z"/>
							</g>
						</g>
					</g>
					<g>
						<g>
							<g>
								<path fill="#FFFFFF" d="M12.1,16.9c0.1-1.5,2-4,3.2-3.9c1.3,0.1,1.5,2.8,1.4,4.2c-0.1,1.5-1.2,2.1-2.5,2
									C13,19.1,12,18.4,12.1,16.9z"/>
							</g>
						</g>
					</g>
				</g>
				<g>
					<g>
						<g>
							<g>
								<path fill="#65B1EF" d="M13.2,16.9c0,1.1,0.7,1.9,1.6,1.9c0.9,0,1.6-0.9,1.6-1.9c0-1.1-0.7-1.9-1.6-1.9
									C13.9,14.9,13.2,15.8,13.2,16.9z"/>
							</g>
						</g>
					</g>
					<g>
						<g>
							<g>
								<path fill="#3E4347" d="M13.9,17c0,0.6,0.4,1.1,0.9,1.1c0.5,0,0.9-0.5,0.9-1.1s-0.4-1.1-0.9-1.1
									C14.3,15.9,13.9,16.4,13.9,17z"/>
							</g>
						</g>
					</g>
					<g>
						<g>
							<circle fill="#FFFFFF" cx="14.1" cy="16.4" r="0.4"/>
						</g>
					</g>
				</g>
			</g>
			<g>
				<g>
					<g>
						<path fill="#DAE5EF" d="M15.5,19.9c0,0-1.7-2.5-5.6-1"/>
					</g>
				</g>
			</g>
			<g>
				<g>
					<g>
						<path fill="#CBD6E0" d="M15.5,19.9c-0.2-0.4-0.8-1-1.5-1.3c-0.6-0.3-1.4-0.4-2.3-0.3c-0.5,0.1-1.1,0.2-1.8,0.7
							c0.2,0,0.4-0.1,1.9-0.3c0.5-0.1,1.6,0.1,2.1,0.3C14.4,19.2,15.1,19.6,15.5,19.9z"/>
					</g>
				</g>
			</g>
		</g>
	</g>
	<g>
		<g>
			<g>
				<path fill="#CBD6E0" d="M28.7,22.1c-0.2-0.2-0.3-0.5-0.4-0.7c0,1-0.3,2.1-0.8,3c0-0.3,0-0.6,0-0.9c-0.4,1.1-1,2-2,2.6
					c0.1-0.2,0.1-0.4,0.2-0.6c-1.2,1.2-2.6,2.1-4.3,2.5c-0.6,0.8-1.8,1.4-3.3,1.4c-1.4,0-2.6-0.5-3.2-1.3c-2-0.5-3.6-1.4-4.9-2.7
					c0.1,0.2,0.2,0.4,0.2,0.6c-0.9-0.6-1.6-1.5-2-2.6c0,0.3,0,0.6,0,0.9c-0.5-0.9-0.8-2-0.8-3c-0.1,0.3-0.2,0.5-0.3,0.7
					c-0.2-0.9,0.1-1.9,0.7-2.6c0.4-1.4,1.1-2.8,1.9-4.2c-0.5,1.4-1,2.7-1.3,3.8C8,19.8,7.8,20.7,8,21.7c0.1-0.2,0.3-0.4,0.3-0.7
					c0,1,0.2,2,0.7,2.9c0-0.3,0-0.6,0-0.8c0.4,1,1,1.9,1.8,2.5c-0.1-0.2-0.1-0.4-0.2-0.6c1.2,1.2,2.8,2.1,4.6,2.6
					c0.6,0.8,1.4,1.5,3,1.5c1.6,0,2.5-0.8,3.1-1.6c1.5-0.5,2.8-1.3,4-2.5c-0.1,0.2-0.1,0.4-0.2,0.6C26,25,26.6,24.1,27,23
					c0,0.3,0,0.6,0,0.8c0.5-0.9,0.7-1.9,0.7-2.9c0.1,0.3,0.2,0.5,0.3,0.7c0.2-0.9-0.1-1.9-0.7-2.5C27,18,26.6,16.6,26,15.2
					c0.8,1.3,1.5,2.8,1.9,4.3C28.6,20.2,28.8,21.2,28.7,22.1z"/>
			</g>
		</g>
	</g>
	<g>
		<g>
			<g>
				<g>
					<g>
						<path fill="#5A5F63" d="M20.5,21.4c0-2.3-1.1-5.7-2.5-5.7c-1.4,0-2.5,3.4-2.5,5.7S16.6,24,18,24C19.4,24,20.5,23.7,20.5,21.4z
							"/>
					</g>
				</g>
			</g>
			<g opacity="0.5">
				<g>
					<g>
						<path fill="#3E4347" d="M20.5,21.4c0,2.3-1.1,2.7-2.5,2.7c-1.1,0-2-0.2-2.4-1.4c0.5,0.5,1.2,0.6,1.9,0.6
							c1.4,0,2.5-0.3,2.5-2.7c0-1.3-0.3-2.9-0.9-4.1C20,17.6,20.5,19.8,20.5,21.4z"/>
					</g>
				</g>
			</g>
		</g>
		<g>
			<g>
				<g>
					<g>
						<g>
							<path fill="#3E4347" d="M18.3,23.4c0,0,0.2-2.5,1.3-1.7C20.1,22.1,19.5,23.2,18.3,23.4z"/>
						</g>
					</g>
				</g>
				<g>
					<g>
						<g>
							<path fill="#31373A" d="M19.5,22.8c0.1-0.2,0.1-0.3,0-0.4c-0.7-0.6-1.1,1.1-1.1,1.1s0.2-2.5,1.3-1.7
								C19.9,22,19.8,22.4,19.5,22.8z"/>
						</g>
					</g>
				</g>
			</g>
			<g>
				<g>
					<g>
						<g>
							<path fill="#3E4347" d="M17.7,23.4c0,0-0.2-2.5-1.3-1.7C15.9,22.1,16.5,23.2,17.7,23.4z"/>
						</g>
					</g>
				</g>
				<g>
					<g>
						<g>
							<path fill="#31373A" d="M16.5,22.8c-0.1-0.2-0.1-0.3,0-0.4c0.7-0.6,1.1,1.1,1.1,1.1s-0.2-2.5-1.3-1.7
								C16.1,22,16.2,22.4,16.5,22.8z"/>
						</g>
					</g>
				</g>
			</g>
		</g>
		<g opacity="0.1">
			<g>
				<g>
					
						<ellipse transform="matrix(0.9483 0.3173 -0.3173 0.9483 6.617 -4.4996)" fill="#FFFFFF" cx="17.1" cy="18.1" rx="0.5" ry="1.5"/>
				</g>
			</g>
		</g>
	</g>
	<g>
		<g>
			<g>
				<g>
					<path fill="#3E4347" d="M15.2,25.9c0,0,0.1,0,0.3,0.1c0.2,0.1,0.5,0.2,0.9,0.2c0.7,0.1,1.7,0.2,2.6,0c0.9-0.2,1.6-0.6,2.4-1.1
						c0.6-0.5,1-0.8,1-0.8c-0.2,0.4-0.5,0.7-0.8,1c-0.8,0.8-1.6,1.1-2.5,1.4c-0.9,0.1-1.7,0.2-2.8-0.2c-0.4-0.1-0.6-0.3-0.8-0.4
						C15.3,26,15.2,25.9,15.2,25.9z"/>
				</g>
			</g>
		</g>
		<g>
			<g>
				<g>
					<g>
						<path fill="#3E4347" d="M21.8,23.7c0.5-0.3,1.4,0.2,1.4,1C22.9,24.2,22.6,23.8,21.8,23.7z"/>
					</g>
				</g>
			</g>
			<g>
				<g>
					<g>
						<path fill="#3E4347" d="M14.6,26.3c0,0-0.1-0.1-0.1-0.3c0-0.6,0.5-1.1,1-1.1c-0.4,0.3-0.4,0.4-0.4,0.4
							c-0.1,0.1-0.1,0.1-0.2,0.2C14.6,25.9,14.6,26.3,14.6,26.3z"/>
					</g>
				</g>
			</g>
		</g>
	</g>
	<g>
		<g>
			<g>
				<g>
					<path fill="#3E4347" d="M19,11.9c0,0,1.9-1,4.3,1.2C23.3,13.1,20.8,9.4,19,11.9z"/>
				</g>
			</g>
		</g>
		<g>
			<g>
				<g>
					<path fill="#3E4347" d="M17,11.9c0,0-1.9-1-4.3,1.2C12.7,13.1,15.2,9.4,17,11.9z"/>
				</g>
			</g>
		</g>
	</g>
</g>
</svg>
