<?xml version="1.0" encoding="utf-8"?>
<!-- Generator: Adobe Illustrator 18.0.0, SVG Export Plug-In . SVG Version: 6.00 Build 0)  -->
<!DOCTYPE svg PUBLIC "-//W3C//DTD SVG 1.1//EN" "http://www.w3.org/Graphics/SVG/1.1/DTD/svg11.dtd">
<svg version="1.1" id="Layer_1" xmlns="http://www.w3.org/2000/svg" xmlns:xlink="http://www.w3.org/1999/xlink" x="0px" y="0px"
	 viewBox="0 0 36 36" enable-background="new 0 0 36 36" xml:space="preserve">
<g>
	<g>
		<g>
			<g>
				<g>
					<g>
						<g>
							<path fill="#8CC63E" d="M23.5,30.7c-1.2,1.5-3.2,2.5-5.5,2.5c-2.2,0-4.2-1-5.5-2.5c-8.1-2-14-8.3-8.2-13.8
								c0.9-1.1,1.5-2.3,1.8-3.5C7.7,7.4,9,1.8,14.4,3.1c2.6,0.6,4.9,0.6,7.1,0c5.5-1.3,6.7,4.3,8.3,10.3c0.3,1.2,0.9,2.4,1.8,3.5
								C37.5,22.4,31.5,28.6,23.5,30.7z"/>
						</g>
					</g>
				</g>
				<g>
					<g>
						<g>
							<g>
								<g>
									<g>
										<path fill="#3E4347" d="M26.6,14.1c0-2-2.5-6-4.5-6s-2.9,4-2.9,6s1.8,3.1,3.8,3.1S26.6,16.1,26.6,14.1z"/>
									</g>
								</g>
							</g>
							<g>
								<g>
									<g>
										<path fill="#FFFFFF" d="M26.3,14.4c0-1.8-2.5-5.6-4.4-5.6s-2.7,3.7-2.7,5.6c0,1.8,1.6,2.9,3.6,2.9S26.3,16.3,26.3,14.4z"
											/>
									</g>
								</g>
							</g>
						</g>
						<g>
							<g>
								<g>
									<g>
										<ellipse fill="#65B1EF" cx="22.2" cy="14.1" rx="2" ry="2.4"/>
									</g>
								</g>
							</g>
							<g>
								<g>
									<g>
										<ellipse fill="#3E4347" cx="22.2" cy="14.4" rx="1" ry="1.2"/>
									</g>
								</g>
							</g>
							<g>
								<g>
									<g>
										<path fill="#FFFFFF" d="M23.4,13.6c0,0.2-0.2,0.4-0.4,0.4c-0.2,0-0.4-0.2-0.4-0.4c0-0.2,0.2-0.4,0.4-0.4
											C23.2,13.2,23.4,13.4,23.4,13.6z"/>
									</g>
								</g>
							</g>
						</g>
						<g>
							<g>
								<g>
									<path fill="#3E4347" d="M23.6,7.4C23,7,22.3,6.9,21.5,6.8c-0.1,0-0.1,0-0.2,0C21,6.6,21.1,6,21.5,5.8
										c0.3-0.1,3.3,0.4,5.1,3.6C26.6,9.5,25.2,8.2,23.6,7.4z"/>
								</g>
							</g>
						</g>
					</g>
					<g>
						<g>
							<g>
								<g>
									<g>
										<path fill="#3E4347" d="M9.4,14.1c0-2,2.5-6,4.5-6s2.9,4,2.9,6S15,17.2,13,17.2S9.4,16.1,9.4,14.1z"/>
									</g>
								</g>
							</g>
							<g>
								<g>
									<g>
										<path fill="#FFFFFF" d="M9.7,14.4c0-1.8,2.5-5.6,4.4-5.6s2.7,3.7,2.7,5.6c0,1.8-1.6,2.9-3.6,2.9S9.7,16.3,9.7,14.4z"/>
									</g>
								</g>
							</g>
						</g>
						<g>
							<g>
								<g>
									<g>
										<ellipse fill="#65B1EF" cx="13.8" cy="14.1" rx="2" ry="2.4"/>
									</g>
								</g>
							</g>
							<g>
								<g>
									<g>
										<ellipse fill="#3E4347" cx="13.8" cy="14.4" rx="1" ry="1.2"/>
									</g>
								</g>
							</g>
							<g>
								<g>
									<g>
										<path fill="#FFFFFF" d="M15,13.6c0,0.2-0.2,0.4-0.4,0.4c-0.2,0-0.4-0.2-0.4-0.4c0-0.2,0.2-0.4,0.4-0.4
											C14.8,13.2,15,13.4,15,13.6z"/>
									</g>
								</g>
							</g>
						</g>
						<g>
							<g>
								<g>
									<path fill="#3E4347" d="M12.4,7.4C13,7,13.7,6.9,14.5,6.8c0.1,0,0.1,0,0.2,0C15,6.6,14.9,6,14.5,5.8
										c-0.3-0.1-3.3,0.4-5.1,3.6C9.4,9.5,10.8,8.2,12.4,7.4z"/>
								</g>
							</g>
						</g>
					</g>
				</g>
				<g>
					<g>
						<g>
							<g>
								<g>
									<g>
										<path fill="#7FB239" d="M20.9,22c-0.3,0.7-2.5,1.3-2.5,1.3s0.2-1.6,0.9-2.1C20.4,20.3,21.4,21,20.9,22z"/>
									</g>
								</g>
							</g>
							<g>
								<g>
									<g>
										<path fill="#719D34" d="M20.9,22C20.9,22,20.9,22,20.9,22c-0.2-0.3-0.8-0.5-1.3,0c-0.5,0.4-1.2,1.3-1.2,1.3
											s0.2-1.5,0.9-2.1C20.4,20.3,21.4,21,20.9,22z"/>
									</g>
								</g>
							</g>
						</g>
						<g>
							<g>
								<g>
									<path fill="#719D34" d="M21.7,21.5c-0.1,1-0.9,1.6-1.9,1.8c0.7-0.3,1.6-1,1.6-1.8c0.1-1-0.8-1.4-1.8-1.1
										C20.7,19.8,21.7,20.5,21.7,21.5z"/>
								</g>
							</g>
						</g>
					</g>
					<g>
						<g>
							<g>
								<g>
									<g>
										<path fill="#7FB239" d="M15.1,22c0.3,0.7,2.5,1.3,2.5,1.3s-0.2-1.6-0.9-2.1C15.6,20.3,14.6,21,15.1,22z"/>
									</g>
								</g>
							</g>
							<g>
								<g>
									<g>
										<path fill="#719D34" d="M15.1,22C15.1,22,15.1,22,15.1,22c0.2-0.3,0.8-0.5,1.3,0c0.5,0.4,1.2,1.3,1.2,1.3
											s-0.2-1.5-0.9-2.1C15.6,20.3,14.6,21,15.1,22z"/>
									</g>
								</g>
							</g>
						</g>
						<g>
							<g>
								<g>
									<path fill="#719D34" d="M14.3,21.5c0.1,1,0.9,1.6,1.9,1.8c-0.7-0.3-1.6-1-1.6-1.8c-0.1-1,0.8-1.4,1.8-1.1
										C15.3,19.8,14.3,20.5,14.3,21.5z"/>
								</g>
							</g>
						</g>
					</g>
				</g>
				<g>
					<g>
						<g>
							<g>
								<g>
									<path fill="#719D34" d="M30.2,22.7c-0.5,0-1.4-0.3-1.9-0.8c-0.6,0.6-1.6,1.5-2.6,2.1c-2.5,1.5-3.4,6.8-7.6,6.8
										c-4.3,0-4.9-5.2-7.6-6.8c-1-0.6-1.8-1.3-2.6-2.1c-0.6,0.5-1.4,0.8-1.9,0.8c1.1-0.7,2-1.3,2.9-2.8c0,0.5-0.3,1.3-0.9,1.9
										c0.8,0.6,2,1.2,2.8,1.6c2.5,1.2,5,1.7,7.3,1.7c2.4,0,4.6-0.5,7.4-1.7c1.4-0.6,2-1,2.8-1.6c-0.5-0.5-0.9-1.2-0.9-1.9
										C28.3,21.5,29.2,22,30.2,22.7z"/>
								</g>
							</g>
						</g>
					</g>
				</g>
				<g>
					<g>
						<g>
							<g>
								<g>
									<path fill="#719D34" d="M30.2,22.7c-0.5,0-1.4-0.3-1.9-0.8c-0.6,0.6-1.6,1.5-2.6,2.1c-2.5,1.5-3.4,6.8-7.6,6.8
										c-4.3,0-4.9-5.2-7.6-6.8c-1-0.6-1.8-1.3-2.6-2.1c-0.6,0.5-1.4,0.8-1.9,0.8c1.1-0.7,2-1.3,2.9-2.8c0,0.5-0.3,1.3-0.9,1.9
										c0.8,0.6,2,1.2,2.8,1.6c2.5,1.2,5,1.7,7.3,1.7c2.4,0,4.6-0.5,7.4-1.7c1.4-0.6,2-1,2.8-1.6c-0.5-0.5-0.9-1.2-0.9-1.9
										C28.3,21.5,29.2,22,30.2,22.7z"/>
								</g>
							</g>
							<g>
								<g>
									<g>
										<path fill="#6D4135" d="M18,25.6c-2.3,0-6-1.1-6-1.1c0.5,0.6,0.9,1.5,1.3,2.2c1.1,1.8,2.3,3.7,4.8,3.7
											c2.4,0,3.6-1.9,4.8-3.8c0.4-0.6,0.8-1.5,1.2-2.1C24.1,24.5,20.5,25.6,18,25.6z"/>
									</g>
								</g>
							</g>
						</g>
					</g>
				</g>
				<g>
					<g>
						<g>
							<path fill="#633B2A" d="M15.7,25.4c-0.2,1.9,0.9,3.5,2.3,3.5c1.4,0,2.5-1.6,2.3-3.5c-0.8,0.1-1.6,0.2-2.4,0.2
								C17.3,25.6,16.5,25.5,15.7,25.4z"/>
						</g>
					</g>
				</g>
				<g>
					<g>
						<path fill="#E24B4B" d="M18,30.4c1.5,0,2.5-0.7,3.4-1.7c-0.2-0.6-0.6-1.1-1-1.5c-0.6-0.5-1.4-0.6-2.2-0.4
							c-0.3,0.1-0.5,0.1-0.8,0c-0.8-0.1-1.6,0.1-2.1,0.7c-0.3,0.3-0.5,0.7-0.7,1.1C15.4,29.6,16.5,30.4,18,30.4z"/>
					</g>
				</g>
			</g>
			<g opacity="0.2">
				<g>
					<g>
						
							<ellipse transform="matrix(0.8216 0.57 -0.57 0.8216 19.2661 -6.2596)" fill="#FFFFFF" cx="19.6" cy="27.7" rx="0.7" ry="0.4"/>
					</g>
				</g>
			</g>
		</g>
		<g opacity="0.4">
			<g>
				<g>
					<path fill="#719D34" d="M33.7,23.2c-0.4,0.9-0.6,1.6-1.7,2.8c-2.1,2.3-5.4,3.9-8.5,4.7l0,0c-1.3,1.6-3.4,2.5-5.5,2.5
						c-2,0-4.1-0.9-5.5-2.5c-1,0-6-1.9-8.6-4.7c-1.2-1.3-1.3-1.8-1.7-2.8c0.5,1,0.8,1.6,1.9,2.6c2.4,2.2,5.7,3.3,8.9,3.8
						c1.3,1.4,2.7,2.2,4.9,2.2c2.3,0,3.7-0.9,5-2.3c3.1-0.5,6.5-1.7,8.9-3.8C33,24.7,33.2,24.2,33.7,23.2z"/>
				</g>
			</g>
		</g>
	</g>
</g>
</svg>
