<?xml version="1.0" encoding="utf-8"?>
<!-- Generator: Adobe Illustrator 18.0.0, SVG Export Plug-In . SVG Version: 6.00 Build 0)  -->
<!DOCTYPE svg PUBLIC "-//W3C//DTD SVG 1.1//EN" "http://www.w3.org/Graphics/SVG/1.1/DTD/svg11.dtd">
<svg version="1.1" id="Layer_1" xmlns="http://www.w3.org/2000/svg" xmlns:xlink="http://www.w3.org/1999/xlink" x="0px" y="0px"
	 viewBox="0 0 36 36" enable-background="new 0 0 36 36" xml:space="preserve">
<g>
	<g>
		<g>
			<g>
				<path fill="#8D9BA3" d="M29,17.5c3,8.5-5.7,13.9-11,13.9c-5.3,0-14-5.4-11-13.9C9.5,10.2,11.5,5,18,5C24.5,5,26.5,10.2,29,17.5z
					"/>
			</g>
		</g>
	</g>
	<g>
		<g>
			<g>
				<g>
					<g>
						<g>
							
								<ellipse transform="matrix(0.9925 0.1219 -0.1219 0.9925 2.3412 -2.6647)" fill="#3E4347" cx="23" cy="17.8" rx="3.3" ry="5.7"/>
						</g>
					</g>
				</g>
				<g>
					<g>
						<g>
							
								<ellipse transform="matrix(0.9925 0.1219 -0.1219 0.9925 2.3778 -2.6579)" fill="#FFFFFF" cx="22.9" cy="18.1" rx="3.3" ry="5.4"/>
						</g>
					</g>
				</g>
			</g>
			<g>
				<g>
					<g>
						<g>
							
								<ellipse transform="matrix(0.9945 0.1052 -0.1052 0.9945 1.9434 -2.2698)" fill="#65B1EF" cx="22.5" cy="17.3" rx="1.9" ry="2.4"/>
						</g>
					</g>
				</g>
				<g>
					<g>
						<g>
							
								<ellipse transform="matrix(0.9945 0.1052 -0.1052 0.9945 1.9794 -2.2641)" fill="#3E4347" cx="22.5" cy="17.6" rx="1.1" ry="1.4"/>
						</g>
					</g>
				</g>
				<g>
					<g>
						<g>
							<circle fill="#FFFFFF" cx="23.4" cy="16.8" r="0.5"/>
						</g>
					</g>
				</g>
			</g>
		</g>
		<g>
			<g>
				<g>
					<g>
						<g>
							
								<ellipse transform="matrix(-0.9925 0.1219 -0.1219 -0.9925 28.1715 33.8864)" fill="#3E4347" cx="13" cy="17.8" rx="3.3" ry="5.7"/>
						</g>
					</g>
				</g>
				<g>
					<g>
						<g>
							
								<ellipse transform="matrix(-0.9925 0.1219 -0.1219 -0.9925 28.2825 34.4854)" fill="#FFFFFF" cx="13.1" cy="18.1" rx="3.3" ry="5.4"/>
						</g>
					</g>
				</g>
			</g>
			<g>
				<g>
					<g>
						<g>
							
								<ellipse transform="matrix(-0.9945 0.1052 -0.1052 -0.9945 28.7541 33.0738)" fill="#65B1EF" cx="13.5" cy="17.3" rx="1.9" ry="2.4"/>
						</g>
					</g>
				</g>
				<g>
					<g>
						<g>
							
								<ellipse transform="matrix(-0.9945 0.1052 -0.1052 -0.9945 28.8628 33.7559)" fill="#3E4347" cx="13.5" cy="17.6" rx="1.1" ry="1.4"/>
						</g>
					</g>
				</g>
				<g>
					<g>
						<g>
							<circle fill="#FFFFFF" cx="14.2" cy="16.8" r="0.5"/>
						</g>
					</g>
				</g>
			</g>
		</g>
	</g>
	<g>
		<g>
			<ellipse fill="#8D9BA3" cx="18" cy="27.6" rx="7.1" ry="5.8"/>
		</g>
	</g>
	<g>
		<g>
			<g>
				<g>
					<g>
						<path fill="#E9EFF4" d="M20.8,29.7c0,0,0.3,2.3-0.5,3.6c-0.1,0.1-0.5,1.1,0.6,0.4c1.1-0.7,2.1-1.8,2.1-4H20.8z"/>
					</g>
				</g>
			</g>
			<g>
				<g>
					<path fill="#DEE4E9" d="M23,29.7h-0.9c0.1,0.6,0.3,3.1-2,4.2c0.1,0.1,0.3,0.1,0.7-0.2C22,33.1,23,31.9,23,29.7z"/>
				</g>
			</g>
		</g>
		<g>
			<g>
				<g>
					<g>
						<path fill="#E9EFF4" d="M15.2,29.7c0,0-0.3,2.3,0.5,3.6c0.1,0.1,0.5,1.1-0.6,0.4c-1.1-0.7-2.1-1.8-2.1-4H15.2z"/>
					</g>
				</g>
			</g>
			<g>
				<g>
					<path fill="#DEE4E9" d="M13,29.7h0.9c-0.1,0.6-0.3,3.1,2,4.2c-0.1,0.1-0.3,0.1-0.7-0.2C14,33.1,13,31.9,13,29.7z"/>
				</g>
			</g>
		</g>
	</g>
	<g>
		<g>
			<g>
				<g>
					<path fill="#DAE5EF" d="M30,25.4c0,3-3.3,5.4-7.3,5.4c-2.2,0-3.8-0.8-4.8-2c-1,1.2-2.5,2-4.8,2c-4,0-7.3-2.4-7.3-5.4
						c0-3,3.3-5.4,7.3-5.4c2.2,0,3.8,0.8,4.8,2c0.9-1.2,2.5-2,4.8-2C26.8,20,30,22.4,30,25.4z"/>
				</g>
			</g>
		</g>
	</g>
	<g opacity="0.5">
		<g>
			<g>
				<g>
					<path fill="#CBD6E0" d="M30,25.4c0,3-3.3,5.4-7.3,5.4c-2.2,0-3.8-0.8-4.8-2c-1,1.2-2.5,2-4.8,2c-4,0-7.3-2.4-7.3-5.4
						c0-0.1,0-0.3,0-0.4c0.3,2.4,3.4,4.4,7.3,4.4c1.9,0,3.3-0.5,4.3-1.2c0.3-0.2,0.7-0.2,1,0c1,0.8,2.4,1.2,4.3,1.2
						c3.8,0,7-1.9,7.3-4.4C30,25.2,30,25.3,30,25.4z"/>
				</g>
			</g>
		</g>
	</g>
	<g>
		<g>
			<g>
				<g>
					<g>
						<path fill="#E24B4B" d="M21.5,21.6c-0.3,1.4-1.5,2.2-3.5,2.2c-1.9,0-3.2-0.8-3.5-2.2c-0.4-1.6,1-2.7,3.5-2.7
							C20.5,18.9,21.9,20,21.5,21.6z"/>
					</g>
				</g>
			</g>
			<g>
				<g>
					<g>
						<path fill="#D03F3F" d="M21.5,21.6c-0.3,1.4-1.5,2.2-3.5,2.2c-1.9,0-3.2-0.8-3.5-2.2c-0.1-0.2-0.1-0.5-0.1-0.7
							c0.4,1,1.5,1.6,3.3,1.5c1.9,0,3.2-0.7,3.5-1.9c0-0.1,0-0.2,0.1-0.3C21.5,20.7,21.6,21.1,21.5,21.6z"/>
					</g>
				</g>
			</g>
		</g>
		<g opacity="0.15">
			<g>
				<g>
					<ellipse fill="#FFFFFF" cx="18" cy="20.1" rx="1.3" ry="0.7"/>
				</g>
			</g>
		</g>
	</g>
	<g>
		<g>
			<g>
				<path fill="#8D9BA3" d="M14.5,6.7c0.4-1.1,0.3-2.3-0.2-3.3c0.6,0.2,1.1,0.6,1.4,1.2c0.1-0.5,0.1-1,0.4-1.5
					c0.2-0.5,0.6-0.8,1.1-1c-0.2,0.7-0.2,1.4-0.1,2.1c0.2-0.6,0.8-0.9,1.4-1c0.6-0.1,1.2,0.1,1.7,0.4c-0.5,0-1,0.5-1.1,1
					c0.4-0.1,0.9,0.2,1.2,0.5c0.3,0.3,0.4,0.8,0.5,1.2c0.1,0.4,0,0.9,0,1.3c-0.3-0.7-1.1-1.1-1.9-1"/>
			</g>
		</g>
	</g>
	<g>
		<g>
			<g>
				<path fill="#728389" d="M20.7,8.1l-0.1-0.3v0c-0.3-0.6-0.9-1-1.6-1c0.6,0,1.2,0.3,1.6,0.8c0-0.7,0-1.2-0.2-1.7
					c-0.2-0.6-0.7-1.1-1.6-1c0.1-0.5,0.3-1,0.9-1.2c-1.1-0.6-2.2-0.3-2.8,1.1c-0.2-0.9-0.3-1.5,0-2.5c-1,0.4-1.1,1.6-1.2,2.6
					c-0.3-0.6-0.5-1.1-1.3-1.4c0.5,1,0.5,2.2,0.1,3.1c0.4-1,0.3-2.2-0.4-3.4c0.6,0.2,1.1,0.4,1.5,1c0.1-1.2,0.6-2,1.7-2.3
					c-0.2,0.7-0.3,1.1-0.2,1.9c0.6-0.8,1.7-1.1,3.4-0.1c-0.6,0.1-1.1,0.1-1.3,0.8c0.7,0,1.3,0.5,1.5,1.2C20.9,6.4,20.8,7.4,20.7,8.1
					z"/>
			</g>
		</g>
	</g>
	<g>
		<g>
			<g>
				<g>
					<path fill="#3E4347" d="M22,10.7c-0.9,0-0.9-0.9,0-0.9c0,0,2.1-0.1,3.8,2.1C25.9,11.9,23.7,10.5,22,10.7z"/>
				</g>
			</g>
		</g>
		<g>
			<g>
				<g>
					<path fill="#3E4347" d="M14,10.7c0.9,0,0.9-0.9,0-0.9c0,0-2.1-0.1-3.8,2.1C10.1,11.9,12.3,10.5,14,10.7z"/>
				</g>
			</g>
		</g>
	</g>
</g>
</svg>
