<?xml version="1.0" encoding="utf-8"?>
<!-- Generator: Adobe Illustrator 18.0.0, SVG Export Plug-In . SVG Version: 6.00 Build 0)  -->
<!DOCTYPE svg PUBLIC "-//W3C//DTD SVG 1.1//EN" "http://www.w3.org/Graphics/SVG/1.1/DTD/svg11.dtd">
<svg version="1.1" id="Layer_1" xmlns="http://www.w3.org/2000/svg" xmlns:xlink="http://www.w3.org/1999/xlink" x="0px" y="0px"
	 viewBox="0 0 36 36" enable-background="new 0 0 36 36" xml:space="preserve">
<g>
	<g>
		<g>
			<g>
				<g>
					<g>
						<g>
							<g>
								<path fill="#89664C" d="M28.9,28.2c0.1-0.3,0.1-0.5,0.1-0.8c-1.6,1-3.1,2-4.7,2.9c0-0.4,0.1-0.9,0.1-1.3
									c-0.9,2.6-5.6,1.5-6.4,4.2c-0.8-2.7-5.5-1.6-6.4-4.2c0,0.4,0.1,0.9,0.1,1.3c-1.6-1-3.1-2-4.7-2.9C7,27.7,7.1,28,7.2,28.2
									c-1.6-0.7-13.3-18.1,5-13.6C14,15,16.1,15,18,15c1.9,0,4,0.1,5.9-0.4C42.1,10.2,30.5,27.5,28.9,28.2z"/>
							</g>
						</g>
					</g>
				</g>
				<g>
					<g>
						<g>
							<path fill="#89664C" d="M34,16.9c0,6-4.1,10.8-9,10.8c-1.2,0-2.3-0.3-3.3-0.7c-2.3-1.1-5-1.1-7.3,0c-1,0.5-2.1,0.7-3.3,0.7
								c-5,0-9.1-4.8-9.1-10.8C2,11,6.1,6.2,11.1,6.2c2.8,0,5.3,1.5,7,3.9c1.6-2.4,4.2-3.9,6.9-3.9C29.9,6.2,34,11,34,16.9z"/>
						</g>
					</g>
				</g>
				<g>
					<g>
						<g>
							<g>
								<g>
									<g>
										<ellipse fill="#FFFFFF" cx="24.6" cy="15.4" rx="4.6" ry="5"/>
									</g>
								</g>
							</g>
							<g>
								<g>
									<g>
										<circle fill="#65B1EF" cx="24.6" cy="16.2" r="2.9"/>
									</g>
								</g>
							</g>
							<g>
								<g>
									<g>
										<circle fill="#3E4347" cx="24.6" cy="16.4" r="1.6"/>
									</g>
								</g>
							</g>
							<g>
								<g>
									<circle fill="#FFFFFF" cx="25.7" cy="15.6" r="0.6"/>
								</g>
							</g>
						</g>
						<g>
							<g>
								<g>
									<path fill="#5C4533" d="M20.7,12c1.7-2.5,2.7-2.8,6.1-3.1c1.6-0.1,3.2-0.3,4.3-1.5C31,8.7,29.7,10,27.1,9.8
										c0.8,0.1,1.6,0.4,2.2,1c-3.6-2-7,2.9-10.5,3.5C19.7,13.6,20.1,12.9,20.7,12z"/>
								</g>
							</g>
						</g>
					</g>
					<g>
						<g>
							<g>
								<g>
									<g>
										<ellipse fill="#FFFFFF" cx="11.4" cy="15.4" rx="4.6" ry="5"/>
									</g>
								</g>
							</g>
						</g>
						<g>
							<g>
								<g>
									<path fill="#5C4533" d="M17.2,14.2c-3.5-0.6-6.9-5.5-10.5-3.5c0.6-0.6,1.4-0.9,2.2-1C6.3,10,5,8.7,4.8,7.4
										c1.1,1.1,2.8,1.3,4.3,1.5c3.4,0.3,4.4,0.6,6.1,3.1C15.9,12.9,16.3,13.6,17.2,14.2z"/>
								</g>
							</g>
						</g>
					</g>
				</g>
				<g>
					<g>
						<g>
							<path fill="#89664C" d="M23.9,4.2c-0.2,1.3-1.5,2-2.3,3.1c-1.2,1.5-1.9,6.2-5.8,1.9c-1.6-2.4-1.9-4.3-4.6-5.1
								c1.4,0.1,2.9,0.5,3.9,1.4c0.4-1,0.8-1.9,1.2-2.9c0.1,1,0.2,2.1,0.3,3.1c0.2-1.7,2.2-2.2,3.8-2.5c-0.8,0.9-1.3,2-1.5,3.2
								c0.4-0.8,1.3-0.9,2.2-1.1C22.2,5.3,23.1,4.8,23.9,4.2z"/>
						</g>
					</g>
				</g>
			</g>
			<g opacity="0.5">
				<g>
					<path fill="#7A5B44" d="M34,16.9c0-2.7-0.8-5.1-2.2-7c1.2,4.6,0.7,9.7-1.5,14c-0.1-0.3-0.2-0.7-0.3-1c-0.9,1.6-2.1,3-3.6,4
						c0-0.5,0-0.9,0-1.3C23.3,25.8,23,30.4,18,31c-1.6-2.7-4.8-1.9-7.7-5c0,0.4,0,0.9,0,1.3c-1.5-1-3.5-2.9-4.3-4.5
						c-0.1,0.3-0.2,0.7-0.3,1c-2.2-4.3-2.7-9.3-1.5-14c-1.4,1.9-2.2,4.3-2.2,7c0,0.2,0,0.4,0,0.6c-0.2,4.1,4.2,10.3,5.1,10.7
						C7.1,28,7,27.7,7,27.5c1.6,1,3.1,2,4.7,3c0-0.4-0.1-0.9-0.1-1.3c0.9,2.6,5.6,1.5,6.4,4.2c0.8-2.7,5.5-1.6,6.4-4.2
						c0,0.4-0.1,0.9-0.1,1.3c1.6-1,3.1-2,4.7-3c-0.1,0.3-0.1,0.5-0.1,0.8c0.9-0.4,5.3-6.6,5.1-10.7C34,17.3,34,17.1,34,16.9z"/>
				</g>
			</g>
		</g>
		<g>
			<g>
				<g>
					<g>
						<circle fill="#65B1EF" cx="11.4" cy="16.2" r="2.9"/>
					</g>
				</g>
			</g>
			<g>
				<g>
					<g>
						<circle fill="#3E4347" cx="11.4" cy="16.4" r="1.6"/>
					</g>
				</g>
			</g>
		</g>
		<g>
			<g>
				<circle fill="#FFFFFF" cx="12.6" cy="15.6" r="0.6"/>
			</g>
		</g>
	</g>
	<g>
		<g>
			<g>
				<g>
					<path fill="#FFD93B" d="M21.9,18.5c-0.2,4-1.8,7.1-3.9,7.1s-3.7-3.2-3.9-7.2c0-0.3,0.2-0.6,0.5-0.8c0.2-0.1,0.4-0.1,0.5-0.2
						c0.7-0.2,1.2-0.7,1.7-1.2c0.3-0.3,0.7-0.5,1.1-0.5s0.8,0.2,1.1,0.5c0.5,0.6,1.2,1.1,1.9,1.3c0.1,0,0.2,0,0.2,0.1
						C21.6,17.8,21.9,18.2,21.9,18.5z"/>
				</g>
			</g>
		</g>
		<g>
			<g>
				<g>
					<path fill="#6D4135" d="M21.2,19.2c-0.2,3-1.5,5.3-3.2,5.3c-1.6,0-3-2.3-3.2-5.3c0.6,2.3,1.8,3.1,3.2,3.1
						C19.4,22.2,20.6,21.4,21.2,19.2z"/>
				</g>
			</g>
		</g>
		<g>
			<g>
				<g>
					<path fill="#633B2A" d="M18,23.5c0.9,0,1.6-0.7,1.6-1.6c0,0,0-0.1,0-0.1c-0.5,0.3-1,0.5-1.5,0.5c-0.5,0-1.1-0.1-1.5-0.4
						c0,0,0,0.1,0,0.1C16.5,22.8,17.1,23.5,18,23.5z"/>
				</g>
			</g>
		</g>
		<g>
			<g>
				<g>
					<path fill="#E24B4B" d="M18,24.5c0.7,0,1.4-0.5,1.9-1.2c-0.4-0.4-1-0.6-1.6-0.4C18,23,17.7,23,17.3,23c-0.5-0.1-0.9,0-1.2,0.3
						C16.6,24,17.3,24.5,18,24.5z"/>
				</g>
			</g>
		</g>
		<g>
			<g>
				<g>
					<g>
						<g>
							
								<ellipse transform="matrix(0.9529 -0.3033 0.3033 0.9529 -4.6217 6.6619)" fill="#6D4135" cx="19.1" cy="18.2" rx="0.5" ry="0.8"/>
						</g>
					</g>
				</g>
				<g>
					<g>
						<g>
							<path fill="#633B2A" d="M19,18.6c0,0.2,0.1,0.3,0.2,0.4c-0.2-0.1-0.4-0.3-0.5-0.6c-0.1-0.4,0-0.8,0.2-0.9
								c0.1,0,0.3,0,0.5,0.2c-0.1,0-0.1,0-0.2,0C19,17.8,18.9,18.2,19,18.6z"/>
						</g>
					</g>
				</g>
			</g>
			<g>
				<g>
					<g>
						<g>
							
								<ellipse transform="matrix(-0.9529 -0.3033 0.3033 -0.9529 27.4109 40.6794)" fill="#6D4135" cx="16.9" cy="18.2" rx="0.5" ry="0.8"/>
						</g>
					</g>
				</g>
				<g>
					<g>
						<g>
							<path fill="#633B2A" d="M17,18.6c0,0.2-0.1,0.3-0.2,0.4c0.2-0.1,0.4-0.3,0.5-0.6c0.1-0.4,0-0.8-0.2-0.9c-0.1,0-0.3,0-0.5,0.2
								c0.1,0,0.1,0,0.2,0C17,17.8,17.1,18.2,17,18.6z"/>
						</g>
					</g>
				</g>
			</g>
		</g>
	</g>
</g>
</svg>
