<?xml version="1.0" encoding="utf-8"?>
<!-- Generator: Adobe Illustrator 18.0.0, SVG Export Plug-In . SVG Version: 6.00 Build 0)  -->
<!DOCTYPE svg PUBLIC "-//W3C//DTD SVG 1.1//EN" "http://www.w3.org/Graphics/SVG/1.1/DTD/svg11.dtd">
<svg version="1.1" id="Layer_1" xmlns="http://www.w3.org/2000/svg" xmlns:xlink="http://www.w3.org/1999/xlink" x="0px" y="0px"
	 viewBox="0 0 36 36" enable-background="new 0 0 36 36" xml:space="preserve">
<g>
	<g>
		<g>
			<g>
				<g>
					<path fill="#CBD6E0" d="M4.5,20.6c0-0.6,0.1-1.1,0.3-1.7C4.6,19.5,4.5,20.1,4.5,20.6z"/>
				</g>
			</g>
			<g>
				<g>
					<path fill="#CBD6E0" d="M31.2,18.9c0.2,0.6,0.3,1.2,0.3,1.7C31.5,20.1,31.4,19.5,31.2,18.9z"/>
				</g>
			</g>
		</g>
	</g>
	<g>
		<g>
			<g>
				<g>
					<g>
						<g>
							<path fill="#3E4347" d="M11.4,13.3c-1.9,1.9-6.1,0.6-8-1.2s-1.9-4.9,0-6.7s4.9-1.9,6.7,0S13.2,11.4,11.4,13.3z"/>
						</g>
					</g>
				</g>
				<g>
					<g>
						<g>
							<path fill="#31373A" d="M9.2,11.8c-1.2,1.2-3.8,0.6-5.1-0.6S2.8,8,4.1,6.7s3.2-1.2,4.5,0S10.4,10.6,9.2,11.8z"/>
						</g>
					</g>
				</g>
			</g>
		</g>
		<g>
			<g>
				<g>
					<g>
						<g>
							<path fill="#3E4347" d="M24.6,13.3c1.9,1.9,6.1,0.6,8-1.2c1.9-1.9,1.9-4.9,0-6.7c-1.9-1.9-4.9-1.9-6.7,0S22.8,11.4,24.6,13.3
								z"/>
						</g>
					</g>
				</g>
				<g>
					<g>
						<g>
							<path fill="#31373A" d="M26.8,11.8c1.2,1.2,3.8,0.6,5.1-0.6c1.2-1.2,1.2-3.2,0-4.5s-3.2-1.2-4.5,0
								C26.2,8,25.6,10.6,26.8,11.8z"/>
						</g>
					</g>
				</g>
			</g>
		</g>
	</g>
	<g>
		<g>
			<g>
				<g>
					<path fill="#DAE5EF" d="M31.2,18.9C33.3,26.2,25,32.1,18,32.1c-7,0-15.3-5.9-13.2-13.2C6.9,11.6,10.4,5.7,18,5.7
						C25.6,5.7,29.1,11.6,31.2,18.9z"/>
				</g>
			</g>
		</g>
		<g>
			<g>
				<g>
					<path fill="#CBD6E0" d="M31.6,21.1c0.1,6.2-7.3,11-13.6,11c-6.3,0-13.6-4.8-13.6-11c0.1,5.7,7.3,10,13.6,10
						C24.2,31.1,31.5,26.8,31.6,21.1z"/>
				</g>
			</g>
		</g>
		<g>
			<g>
				<g>
					<g>
						<g>
							<g>
								<path fill="#3E4347" d="M16.8,19.4c0,2-1.8,3.1-4,3.1s-4-1.1-4-3.1s0.6-5.6,2.7-5.6S16.8,17.4,16.8,19.4z"/>
							</g>
						</g>
					</g>
					<g>
						<g>
							<g>
								<g>
									<ellipse fill="#FFFFFF" cx="12.7" cy="18.8" rx="2.2" ry="2.9"/>
								</g>
							</g>
						</g>
						<g>
							<g>
								<g>
									<g>
										<ellipse fill="#65B1EF" cx="12.7" cy="19.1" rx="1.4" ry="1.8"/>
									</g>
								</g>
							</g>
							<g>
								<g>
									<g>
										<ellipse fill="#3E4347" cx="12.7" cy="19.2" rx="0.8" ry="1"/>
									</g>
								</g>
							</g>
							<g>
								<g>
									<g>
										<circle fill="#FFFFFF" cx="13.2" cy="18.5" r="0.4"/>
									</g>
								</g>
							</g>
						</g>
					</g>
				</g>
				<g>
					<g>
						<g>
							<g>
								<path fill="#3E4347" d="M19.2,19.4c0,2,1.8,3.1,4,3.1s4-1.1,4-3.1s-0.6-5.6-2.7-5.6S19.2,17.4,19.2,19.4z"/>
							</g>
						</g>
					</g>
					<g>
						<g>
							<g>
								<g>
									<ellipse fill="#FFFFFF" cx="23.4" cy="18.8" rx="2.2" ry="2.9"/>
								</g>
							</g>
						</g>
						<g>
							<g>
								<g>
									<g>
										<ellipse fill="#65B1EF" cx="23.4" cy="19.1" rx="1.4" ry="1.8"/>
									</g>
								</g>
							</g>
							<g>
								<g>
									<g>
										<ellipse fill="#3E4347" cx="23.4" cy="19.2" rx="0.8" ry="1"/>
									</g>
								</g>
							</g>
							<g>
								<g>
									<g>
										<circle fill="#FFFFFF" cx="23.9" cy="18.5" r="0.4"/>
									</g>
								</g>
							</g>
						</g>
					</g>
				</g>
			</g>
			<g>
				<g>
					<g>
						<path fill="#CBD6E0" d="M22.1,25.2c0,3.3-1.9,5-4.1,5s-4.1-1.8-4.1-5s1.9-6.7,4.1-6.7S22.1,22,22.1,25.2z"/>
					</g>
				</g>
			</g>
			<g>
				<g>
					<g>
						<path fill="#3E4347" d="M18,28.1c-0.1,0-0.3-0.1-0.3-0.3v-2.6c0-0.1,0.1-0.3,0.3-0.3s0.3,0.1,0.3,0.3v2.6
							C18.2,28,18.1,28.1,18,28.1z"/>
					</g>
				</g>
			</g>
			<g>
				<g>
					<g>
						<path fill="#3E4347" d="M13.9,25.3c0.1,0.5,0.2,0.9,0.5,1.3c0.2,0.4,0.5,0.8,0.9,1c0.8,0.5,1.8,0.4,2.5,0l0,0l0,0
							c0.1,0,0.2,0,0.2,0c0.7,0.4,1.8,0.5,2.5,0c0.2-0.1,0.4-0.3,0.5-0.4c0.2-0.2,0.3-0.4,0.4-0.6c0.2-0.4,0.4-0.9,0.5-1.3
							c-0.1,0.5-0.2,0.9-0.4,1.4c-0.1,0.2-0.2,0.4-0.4,0.6c-0.1,0.2-0.3,0.4-0.5,0.5c-0.8,0.6-1.9,0.7-2.9,0.3l0.2,0l0,0
							c-1,0.4-2.1,0.4-2.9-0.2c-0.4-0.3-0.7-0.7-0.9-1.1C14.1,26.2,14,25.7,13.9,25.3z"/>
					</g>
				</g>
			</g>
			<g>
				<g>
					<g>
						<g>
							<g>
								<path fill="#3E4347" d="M20.7,23.8c-0.1,0.6-0.6,1.1-1.1,1.4c-1,0.7-2.2,0.7-3.2,0c-0.5-0.4-1-0.9-1.1-1.4
									c-0.4-1.8,0.9-2.6,2.7-2.6C19.8,21.3,21.1,22,20.7,23.8z"/>
							</g>
						</g>
					</g>
					<g>
						<g>
							<g>
								<path fill="#31373A" d="M20.7,23.8c-0.1,0.6-0.6,1.1-1.1,1.4c-1,0.7-2.2,0.7-3.2,0c-0.5-0.4-1-0.9-1.1-1.4
									c-0.1-0.4-0.1-0.7,0-1c0,0.1,0,0.1,0,0.2c0.1,0.6,0.6,1.1,1.1,1.4c1,0.7,2.2,0.7,3.2,0c0.5-0.4,1-0.9,1.1-1.4
									c0-0.1,0-0.2,0-0.2C20.8,23.1,20.8,23.4,20.7,23.8z"/>
							</g>
						</g>
					</g>
				</g>
				<g>
					<g opacity="0.15">
						<g>
							<ellipse fill="#FFFFFF" cx="18" cy="22.3" rx="1.3" ry="0.6"/>
						</g>
					</g>
				</g>
			</g>
		</g>
	</g>
</g>
</svg>
