<?xml version="1.0" encoding="utf-8"?>
<!-- Generator: Adobe Illustrator 18.0.0, SVG Export Plug-In . SVG Version: 6.00 Build 0)  -->
<!DOCTYPE svg PUBLIC "-//W3C//DTD SVG 1.1//EN" "http://www.w3.org/Graphics/SVG/1.1/DTD/svg11.dtd">
<svg version="1.1" id="Layer_1" xmlns="http://www.w3.org/2000/svg" xmlns:xlink="http://www.w3.org/1999/xlink" x="0px" y="0px"
	 viewBox="0 0 36 36" enable-background="new 0 0 36 36" xml:space="preserve">
<g>
	<g>
		<g>
			<g>
				<g>
					<g>
						<g>
							<path fill="#F29A2E" d="M28,16c-2.5-0.8-5.1-1.6-7.9-2.4l0.9-3c3.7-4.2,6.1-6.9,8.3-8.1c0.3-0.2,0.7-0.3,1-0.5
								c1.1-0.3,2.4,0.6,2.3,1.7l0,0C31.4,13.1,31.4,17,28,16z"/>
						</g>
					</g>
				</g>
				<g>
					<g>
						<g>
							<path fill="#E18823" d="M27.4,14.4c-1.7-0.4-3.4-0.9-5.2-1.3l0.8-2.4c2.9-3.6,4.7-5.8,6.3-7c0.2-0.2,0.5-0.3,0.7-0.4
								c0.8-0.4,1.6,0.3,1.5,1.2l0,0C30,12,29.7,15,27.4,14.4z"/>
						</g>
					</g>
				</g>
			</g>
			<g>
				<g>
					<g>
						<g>
							<path fill="#F29A2E" d="M8,16c2.5-0.8,5.1-1.6,7.9-2.4l-0.9-3C11.3,6.3,9,3.7,6.7,2.4C6.4,2.2,6.1,2.1,5.8,2
								C4.7,1.6,3.3,2.6,3.4,3.7l0,0C4.6,13.1,4.6,17,8,16z"/>
						</g>
					</g>
				</g>
				<g>
					<g>
						<g>
							<path fill="#E18823" d="M8.6,14.4c1.7-0.4,3.4-0.9,5.2-1.3L13,10.7c-2.9-3.6-4.7-5.8-6.3-7C6.4,3.6,6.2,3.4,6,3.3
								C5.2,3,4.3,3.6,4.5,4.5l0,0C6,12,6.3,15,8.6,14.4z"/>
						</g>
					</g>
				</g>
			</g>
		</g>
		<g>
			<g>
				<g>
					<path fill="#F29A2E" d="M31,20.3c0,7-5.8,13.9-13,13.9S5,27.3,5,20.3c0-8.9,5.8-12.7,13-12.7S31,11.3,31,20.3z"/>
				</g>
			</g>
		</g>
		<g>
			<g>
				<g>
					<path fill="#DAE5EF" d="M27.5,29.4c-2.4,2.8-5.8,4.7-9.6,4.7s-7.2-1.9-9.6-4.7c-0.5-0.6-0.5-1.5,0-2.1c0.6-0.7,1.4-1.3,2.4-1.9
						c1.2-0.7,2.3-1.4,3.3-2.3c1-0.9,2.3-1.5,3.8-1.5c1.5,0,2.8,0.5,3.7,1.4c1.1,1,2.3,1.8,3.6,2.5c0.9,0.5,1.6,1.1,2.2,1.8
						C28,27.8,28.1,28.8,27.5,29.4z"/>
				</g>
			</g>
		</g>
		<g>
			<g>
				<g>
					<path fill="#3E4347" d="M22.1,30.8c-0.7,0.1-1.4,0-2.1-0.4c-0.4-0.2-0.8-0.5-1-0.8c-0.5-0.6-1.6-0.6-2.1,0
						c-0.7,0.9-1.9,1.3-3.1,1.2c-1.2-0.1-2.5-0.7-2.9-1.1c-0.5-0.5-0.4-0.6-0.4-1c0.3-0.2,0.6-0.1,0.9,0.1c0.7,0.5,1.3,1.2,2.2,1.4
						c1,0.2,2-0.3,2.7-1.1c1.4-1.6,1.6-4.2,1.7-6.1c0.1,1.9,0.2,4.5,1.7,6.1c0.7,0.8,1.7,1.3,2.7,1.1c0.9-0.2,1.5-1,2.2-1.4
						c0.3-0.2,0.7-0.3,0.9-0.1C26,29.8,23.5,30.7,22.1,30.8z"/>
				</g>
			</g>
		</g>
		<g>
			<g>
				<g>
					<g>
						<g>
							<path fill="#3E4347" d="M21.5,22.5c0,0.4-0.2,0.8-0.4,1.2c-1.4,2.1-4.7,2.1-6.1,0c-0.3-0.4-0.5-0.8-0.5-1.2
								c0-1.9,1.6-2.6,3.5-2.6C19.9,19.9,21.5,20.5,21.5,22.5z"/>
						</g>
					</g>
				</g>
				<g>
					<g>
						<g>
							<path fill="#31373A" d="M21.5,22.5c0,0.4-0.2,0.8-0.4,1.2c-1.5,2.1-4.7,2.1-6.1,0c-0.3-0.4-0.4-0.8-0.4-1.2
								c0-0.3,0-0.5,0.1-0.8c0.1,0.2,0.2,0.4,0.3,0.6c1.5,2.1,4.7,2.1,6.1,0c0.1-0.2,0.3-0.4,0.3-0.6C21.5,21.9,21.5,22.2,21.5,22.5
								z"/>
						</g>
					</g>
				</g>
			</g>
			<g opacity="0.15">
				<g>
					<g>
						<ellipse fill="#FFFFFF" cx="18" cy="21" rx="1.3" ry="0.7"/>
					</g>
				</g>
			</g>
		</g>
		<g>
			<g>
				<g>
					<g>
						<g>
							<path fill="#E18823" d="M28.6,15.2c-1.7,3.9-2,5.6-4.4,5.5c-1,0-2.6-0.7-2.8-0.8c-0.8,0-1.4,0-1.1-1c0.3-1.2,1.1-3.1,2.3-3.6
								c2-0.9,3,0.5,3.9,0.6C27.3,16,28.1,15.8,28.6,15.2z"/>
						</g>
					</g>
				</g>
				<g>
					<g>
						<g>
							<path fill="#3E4347" d="M21,19.3c-0.2-0.2-0.1-0.5,0-0.8c0.3-0.9,0.7-1.8,1.4-2.3c0.4-0.2,0.8-0.3,1.2-0.4c0.3,0,0.7,0,1,0.2
								c0.8,0.3,1.5,0.9,1.7,1.7c0.2,0.5,0.2,1-0.1,1.4c-0.2,0.3-0.5,0.5-0.9,0.7c-0.6,0.3-1.2,0.3-1.9,0.2c-0.3,0-0.6-0.1-0.9-0.3
								c-0.3-0.1-0.5-0.4-0.8-0.5C21.6,19.2,21.3,19.6,21,19.3z"/>
						</g>
					</g>
				</g>
				<g>
					<g>
						<g>
							<path fill="#FFFFFF" d="M21.9,18.2c0.5,1,1.6,1.4,2.7,1.2c2.3-0.4,1.1-2.9-0.6-2.9C23.1,16.6,22.2,17,21.9,18.2z"/>
						</g>
					</g>
				</g>
				<g>
					<g>
						<g>
							<path fill="#8F6D52" d="M25.3,17.6c0-0.3-0.2-0.6-0.4-0.9c-0.3-0.2-0.6-0.2-0.9-0.2c-0.4,0-0.7,0.1-1,0.3
								c-0.2,0.3-0.4,0.6-0.4,1c0,0.8,0.7,1.3,1.4,1.3C24.8,19,25.3,18.4,25.3,17.6z"/>
						</g>
					</g>
					<g>
						<g>
							<g>
								<path fill="#3E4347" d="M24.6,17.7c0,0.3-0.2,0.7-0.6,0.7c-0.4,0-0.7-0.3-0.7-0.6c0-0.4,0.2-0.7,0.6-0.7
									C24.2,17.1,24.5,17.3,24.6,17.7z"/>
							</g>
						</g>
					</g>
					<g>
						<g>
							<g>
								<path fill="#FFFFFF" d="M24.7,17.3c0,0.1-0.1,0.3-0.2,0.3c-0.1,0-0.3-0.1-0.3-0.2c0-0.2,0.1-0.3,0.2-0.3
									C24.6,17.1,24.7,17.2,24.7,17.3z"/>
							</g>
						</g>
					</g>
				</g>
			</g>
			<g>
				<g>
					<g>
						<g>
							<path fill="#E18823" d="M7.4,15.2c1.7,3.9,2,5.6,4.4,5.5c1,0,2.6-0.7,2.8-0.8c0.8,0,1.4,0,1.1-1c-0.3-1.2-1.1-3.1-2.3-3.6
								c-2-0.9-3,0.5-3.9,0.6C8.7,16,7.9,15.8,7.4,15.2z"/>
						</g>
					</g>
				</g>
				<g>
					<g>
						<g>
							<path fill="#3E4347" d="M15,19.3c0.2-0.2,0.1-0.5,0-0.8c-0.3-0.9-0.7-1.8-1.4-2.3c-0.4-0.2-0.8-0.3-1.2-0.4
								c-1.2,0-2.3,0.8-2.7,1.9c-0.2,0.5-0.2,1,0.1,1.4c0.2,0.3,0.5,0.5,0.9,0.7c0.6,0.3,1.2,0.3,1.9,0.2c0.3,0,0.6-0.1,0.9-0.3
								c0.3-0.1,0.5-0.4,0.8-0.5C14.4,19.2,14.7,19.6,15,19.3z"/>
						</g>
					</g>
				</g>
				<g>
					<g>
						<g>
							<path fill="#FFFFFF" d="M14.1,18.2c-0.5,1-1.6,1.4-2.7,1.2c-2.3-0.4-1.1-2.9,0.6-2.9C12.9,16.6,13.8,17,14.1,18.2z"/>
						</g>
					</g>
				</g>
				<g>
					<g>
						<g>
							<path fill="#8F6D52" d="M10.7,17.6c0-0.3,0.2-0.6,0.4-0.9c0.3-0.2,0.6-0.2,0.9-0.2c0.4,0,0.7,0.1,1,0.3
								c0.2,0.3,0.4,0.6,0.4,1c0,0.8-0.7,1.3-1.4,1.3C11.2,19,10.7,18.4,10.7,17.6z"/>
						</g>
					</g>
					<g>
						<g>
							<g>
								<path fill="#3E4347" d="M11.4,17.7c0,0.3,0.2,0.7,0.6,0.7c0.4,0,0.7-0.3,0.7-0.6c0-0.4-0.2-0.7-0.6-0.7
									C11.8,17.1,11.5,17.3,11.4,17.7z"/>
							</g>
						</g>
					</g>
					<g>
						<g>
							<g>
								<path fill="#FFFFFF" d="M11.3,17.3c0,0.1,0.1,0.3,0.2,0.3c0.1,0,0.3-0.1,0.3-0.2c0-0.2-0.1-0.3-0.2-0.3
									C11.4,17.1,11.3,17.2,11.3,17.3z"/>
							</g>
						</g>
					</g>
				</g>
			</g>
		</g>
	</g>
	<g>
		<g>
			<g>
				<g>
					<path fill="#E18823" d="M22.7,14.1c-0.6-1-2-0.3-3-0.4c-5.1-0.9-1.8-0.1-4.9,0.2c-0.6,0-0.6,0-1.6,0.1c0,0,0.6-0.2,1.6-0.3
						c3-0.5-0.2-1.3,5-0.4C20.8,13.5,22.3,12.9,22.7,14.1z"/>
				</g>
			</g>
			<g>
				<g>
					<path fill="#E18823" d="M24,11.6c-0.8-1.1-2.6-0.5-3.8-0.7c-5.9-1.1-1.6-0.4-6.3,0.3c0,0-1.8,0.2-1.8,0.2
						c0.3-0.1,0.9-0.3,1.8-0.4c4.3-0.9,0.7-1.6,6.4-0.4C21.3,10.8,23.6,10.4,24,11.6z"/>
				</g>
			</g>
			<g>
				<g>
					<path fill="#E18823" d="M23,12.7c-1.5-0.2-2.3,0-3.5-0.6c-2-1-1.3,0.1-5.6,0.2c-0.8,0-1.4,0.3-1.5,0.7c0,0,0.3-0.8,1.6-0.9
						c4.2-0.2,3.5-1.4,5.8-0.2C20.7,12.4,21.3,12.3,23,12.7z"/>
				</g>
			</g>
		</g>
	</g>
</g>
</svg>
