<?xml version="1.0" encoding="utf-8"?>
<!-- Generator: Adobe Illustrator 18.0.0, SVG Export Plug-In . SVG Version: 6.00 Build 0)  -->
<!DOCTYPE svg PUBLIC "-//W3C//DTD SVG 1.1//EN" "http://www.w3.org/Graphics/SVG/1.1/DTD/svg11.dtd">
<svg version="1.1" id="Layer_1" xmlns="http://www.w3.org/2000/svg" xmlns:xlink="http://www.w3.org/1999/xlink" x="0px" y="0px"
	 viewBox="0 0 36 36" enable-background="new 0 0 36 36" xml:space="preserve">
<g>
	<g>
		<g>
			<g>
				<g>
					<g>
						<path fill="#8F6D52" d="M30.6,2.9c0.1,1.4,0.1,3.3,0,4.2c-0.5,4.5-3.9,7.8-7.9,8.2l-1,0.1c3.8-6.2-0.5-8.9,7.5-13.2
							C29.8,1.8,30.5,2.2,30.6,2.9z"/>
					</g>
				</g>
			</g>
			<g>
				<g>
					<g>
						<path fill="#FFE9AB" d="M28.7,10.5c-1,1.7-2.5,3-4.5,3.2l0,0c0.8-1.3,1.3-2.8,1.5-4.2c0.2-1,0.2-2.1,0.6-3
							c0.6-1.4,2.1-2.2,3.3-3.1C29.6,3.3,30.8,6.6,28.7,10.5z"/>
					</g>
				</g>
			</g>
			<g>
				<g>
					<g>
						<path fill="#FFD68D" d="M26.3,6.4c-0.4,0.9-0.5,2-0.6,3c-0.3,1.5-0.8,2.9-1.5,4.2l0,0c1.4-0.1,2.5-0.8,3.4-1.8l-2,0.7
							c0,0,0.8-1.3,1-3.7s1.1-4.2,3.1-5.6C28.4,4.2,26.9,5.1,26.3,6.4z"/>
					</g>
				</g>
			</g>
		</g>
		<g>
			<g>
				<g>
					<g>
						<path fill="#8F6D52" d="M5.4,2.9C5.3,4.3,5.4,6.2,5.5,7c0.5,4.5,3.9,7.8,7.9,8.2l1,0.1c-3.8-6.2,0.5-8.9-7.5-13.2
							C6.2,1.8,5.5,2.2,5.4,2.9z"/>
					</g>
				</g>
			</g>
			<g>
				<g>
					<g>
						<path fill="#FFE9AB" d="M7.3,10.5c1,1.7,2.5,3,4.5,3.2l0,0c-0.8-1.3-1.3-2.8-1.5-4.2c-0.2-1-0.2-2.1-0.6-3
							C9.1,5.1,7.6,4.2,6.4,3.3C6.4,3.3,5.2,6.6,7.3,10.5z"/>
					</g>
				</g>
			</g>
			<g>
				<g>
					<g>
						<path fill="#FFD68D" d="M9.7,6.4c0.4,0.9,0.5,2,0.6,3c0.3,1.5,0.8,2.9,1.5,4.2l0,0c-1.4-0.1-2.5-0.8-3.4-1.8l2,0.7
							c0,0-0.8-1.3-1-3.7S8.4,4.7,6.4,3.3C7.6,4.2,9.1,5.1,9.7,6.4z"/>
					</g>
				</g>
			</g>
		</g>
	</g>
	<g>
		<g>
			<g>
				<path fill="#8F6D52" d="M26.8,17.1c0,6.8-3.9,15-8.8,15s-8.8-8.2-8.8-15s3.9-9.6,8.8-9.6S26.8,10.3,26.8,17.1z"/>
			</g>
		</g>
	</g>
	<g>
		<g>
			<g>
				<g>
					<g>
						<path fill="#3E4347" d="M11.4,27.6c0.1,3.6,3,6.4,6.6,6.4s6.5-2.9,6.6-6.4H11.4z"/>
					</g>
				</g>
			</g>
			<g>
				<g>
					<g>
						<path fill="#5A5F63" d="M27,26c0,2.6-2.6,4.7-6.3,5.4c-0.5,0.1-1,0.1-1.5,0c-0.8-0.2-1.6-0.2-2.4,0c-0.5,0.1-1,0.1-1.5,0
							C11.6,30.7,9,28.6,9,26c0-3.2,4-5.7,9-5.7C23,20.3,27,22.8,27,26z"/>
					</g>
				</g>
			</g>
			<g>
				<g>
					<g>
						<path fill="#5A5F63" d="M27,26c0,2.6-2.6,4.7-6.3,5.4c-0.5,0.1-1,0.1-1.5,0c-0.8-0.2-1.6-0.2-2.4,0c-0.5,0.1-1,0.1-1.5,0
							C11.6,30.7,9,28.6,9,26c0-3.2,4-5.7,9-5.7C23,20.3,27,22.8,27,26z"/>
					</g>
				</g>
			</g>
		</g>
		<g>
			<g>
				<g>
					<g>
						<g>
							<g>
								
									<ellipse transform="matrix(0.7071 0.7071 -0.7071 0.7071 23.184 -9.584)" fill="#5A5F63" cx="23.2" cy="23.2" rx="1.8" ry="2.7"/>
							</g>
						</g>
					</g>
					<g>
						<g>
							<g>
								<path fill="#3E4347" d="M23.9,23.8c-0.7,0.7-1.9,1.1-2.1,0.8c-0.2-0.2,0.2-1.5,0.8-2.1s1.2-0.6,1.5-0.3
									C24.5,22.6,24.5,23.1,23.9,23.8z"/>
							</g>
						</g>
					</g>
					<g>
						<g>
							<g>
								<path fill="#31373A" d="M24.1,23.5c0-0.2-0.1-0.3-0.2-0.4c-0.3-0.3-0.7-0.3-1.2,0.2c-0.4,0.4-0.6,1-0.7,1.3
									c-0.1,0-0.2,0-0.2-0.1c-0.2-0.2,0.2-1.5,0.8-2.1s1.2-0.6,1.5-0.3C24.4,22.6,24.5,23,24.1,23.5z"/>
							</g>
						</g>
					</g>
				</g>
				<g>
					<g>
						<g>
							<path fill="#3E4347" d="M24.9,23.9c0.3-0.6,0.6-1.3,0.4-2c-0.1-0.4-0.4-0.7-0.7-0.7c-1.1-0.3-2.1,0.4-2.9,1.2
								c0.9-1.4,2.1-1.8,3-1.5c0.5,0.2,0.8,0.5,0.9,1C25.7,22.5,25.3,23.4,24.9,23.9z"/>
						</g>
					</g>
				</g>
			</g>
			<g>
				<g>
					<g>
						<g>
							<g>
								
									<ellipse transform="matrix(-0.7071 0.7071 -0.7071 -0.7071 38.318 30.5151)" fill="#5A5F63" cx="12.8" cy="23.2" rx="1.8" ry="2.7"/>
							</g>
						</g>
					</g>
					<g>
						<g>
							<g>
								<path fill="#3E4347" d="M12.1,23.8c0.7,0.7,1.9,1.1,2.1,0.8c0.2-0.2-0.2-1.5-0.8-2.1c-0.7-0.7-1.2-0.6-1.5-0.3
									C11.5,22.6,11.5,23.1,12.1,23.8z"/>
							</g>
						</g>
					</g>
					<g>
						<g>
							<g>
								<path fill="#31373A" d="M11.9,23.5c0-0.2,0.1-0.3,0.2-0.4c0.3-0.3,0.7-0.3,1.2,0.2c0.4,0.4,0.6,1,0.7,1.3
									c0.1,0,0.2,0,0.2-0.1c0.2-0.2-0.2-1.5-0.8-2.1c-0.7-0.7-1.2-0.6-1.5-0.3C11.6,22.6,11.5,23,11.9,23.5z"/>
							</g>
						</g>
					</g>
				</g>
				<g>
					<g>
						<g>
							<path fill="#3E4347" d="M11.1,23.9c-0.5-0.5-0.9-1.4-0.7-2.1c0.1-0.5,0.4-0.9,0.9-1c0.9-0.3,2.1,0.1,3,1.5
								c-0.8-0.8-1.9-1.5-2.9-1.2c-0.4,0.1-0.6,0.4-0.7,0.7C10.6,22.6,10.8,23.3,11.1,23.9z"/>
						</g>
					</g>
				</g>
			</g>
		</g>
		<g opacity="0.45">
			<g>
				<g>
					<path fill="#3E4347" d="M27,26c0,2.6-2.6,4.7-6.3,5.4c-0.5,0.1-1,0.1-1.5,0c-0.8-0.2-1.6-0.2-2.4,0c-0.5,0.1-1,0.1-1.5,0
						C11.6,30.7,9,28.6,9,26c0,2.1,2.7,4,6.3,4.6c0.5,0.1,1,0.1,1.5,0c0.8-0.2,1.6-0.2,2.4,0c0.5,0.1,1,0.1,1.5,0
						C24.4,29.9,27,28.2,27,26z"/>
				</g>
			</g>
		</g>
	</g>
	<g>
		<g>
			<g>
				<g>
					<g>
						<ellipse fill="#3E4347" cx="22" cy="16.5" rx="2.1" ry="3.3"/>
					</g>
				</g>
			</g>
			<g>
				<g>
					<g>
						<path fill="#FFFFFF" d="M23.9,16.9c0,1.7-0.9,3-2,3c-1.1,0-2-1.3-2-3c0-1.6,0.9-3,2-3C23,13.9,23.9,15.3,23.9,16.9z"/>
					</g>
				</g>
			</g>
			<g>
				<g>
					<g>
						<path fill="#65B1EF" d="M23.1,17.5c0,1-0.6,1.8-1.2,1.8c-0.7,0-1.2-0.8-1.2-1.8c0-1,0.6-1.8,1.2-1.8
							C22.5,15.7,23.1,16.5,23.1,17.5z"/>
					</g>
				</g>
			</g>
			<g>
				<g>
					<g>
						<path fill="#3E4347" d="M22.6,17.7c0,0.6-0.3,1-0.7,1c-0.4,0-0.7-0.5-0.7-1c0-0.6,0.3-1,0.7-1C22.2,16.7,22.6,17.1,22.6,17.7z
							"/>
					</g>
				</g>
			</g>
			<g>
				<g>
					<g>
						<circle fill="#FFFFFF" cx="22.5" cy="17.1" r="0.3"/>
					</g>
				</g>
			</g>
		</g>
		<g>
			<g>
				<g>
					<g>
						<ellipse fill="#3E4347" cx="14" cy="16.5" rx="2.1" ry="3.3"/>
					</g>
				</g>
			</g>
			<g>
				<g>
					<g>
						<path fill="#FFFFFF" d="M12.1,16.9c0,1.7,0.9,3,2,3c1.1,0,2-1.3,2-3c0-1.6-0.9-3-2-3C13,13.9,12.1,15.3,12.1,16.9z"/>
					</g>
				</g>
			</g>
			<g>
				<g>
					<g>
						<path fill="#65B1EF" d="M15.4,17.5c0,1-0.6,1.8-1.2,1.8c-0.7,0-1.2-0.8-1.2-1.8c0-1,0.6-1.8,1.2-1.8
							C14.8,15.7,15.4,16.5,15.4,17.5z"/>
					</g>
				</g>
			</g>
			<g>
				<g>
					<g>
						<path fill="#3E4347" d="M14.8,17.7c0,0.6-0.3,1-0.7,1c-0.4,0-0.7-0.5-0.7-1c0-0.6,0.3-1,0.7-1C14.5,16.7,14.8,17.1,14.8,17.7z
							"/>
					</g>
				</g>
			</g>
			<g>
				<g>
					<g>
						<circle fill="#FFFFFF" cx="14.7" cy="17.1" r="0.3"/>
					</g>
				</g>
			</g>
		</g>
	</g>
	<g>
		<g>
			<g>
				<g>
					<path fill="#846144" d="M20.9,12.1c0,0,2.3-0.4,3.6,1.8c0,0-0.7-3-3.4-2.7C20.4,11.4,20.5,12.1,20.9,12.1z"/>
				</g>
			</g>
		</g>
		<g>
			<g>
				<g>
					<path fill="#846144" d="M15.1,12.1c0,0-2.3-0.4-3.6,1.8c0,0,0.7-3,3.4-2.7C15.6,11.4,15.5,12.1,15.1,12.1z"/>
				</g>
			</g>
		</g>
	</g>
	<g>
		<g>
			<g>
				<path fill="#846144" d="M20.9,8.1c0.3,1.4-1.7,2.2-1.7,3.6c-0.3-0.7-1-1.8-0.7-2.5c-0.5,0.4-0.2,1.1-0.5,1.7
					c-0.2-0.6-0.5-1.1-1-1.5c-0.2,1-0.3,2,0,2.9c-1.6-0.3-1.7-3.4-0.6-4.5c-0.6-0.2-1.2-0.2-1.7,0c0.7-0.7,1.7-1,2.7-0.8
					c-0.1-0.7-0.3-1.3-0.6-1.9c0.8,0.4,1.7,0.9,2.3,1.7c1.2-0.8,2.6-1.1,4-0.9c-0.8,0.2-1.5,0.7-2,1.4c1-0.3,1.9,0.3,2.2,1.2
					C22.6,8.1,21.8,8,20.9,8.1z"/>
			</g>
		</g>
	</g>
</g>
</svg>
