<?xml version="1.0" encoding="utf-8"?>
<!-- Generator: Adobe Illustrator 18.0.0, SVG Export Plug-In . SVG Version: 6.00 Build 0)  -->
<!DOCTYPE svg PUBLIC "-//W3C//DTD SVG 1.1//EN" "http://www.w3.org/Graphics/SVG/1.1/DTD/svg11.dtd">
<svg version="1.1" id="Layer_1" xmlns="http://www.w3.org/2000/svg" xmlns:xlink="http://www.w3.org/1999/xlink" x="0px" y="0px"
	 viewBox="0 0 36 36" enable-background="new 0 0 36 36" xml:space="preserve">
<g>
	<g>
		<g>
			<g>
				<path fill="#5A5F63" d="M23.1,12.3L23,11.8c0,0,7.2-2.3,11,3.2C33.3,18.6,23.7,18.4,23.1,12.3z"/>
			</g>
		</g>
	</g>
	<g>
		<g>
			<g>
				<path fill="#3E4347" d="M24.6,13.4c0,0,4.9-1.1,8.3,2.2C30.2,17.8,25.4,16.9,24.6,13.4z"/>
			</g>
		</g>
	</g>
	<g>
		<g>
			<path fill="#777B7E" d="M23,11.8l0.1,0.6c0.1,0.7,0.3,1.4,0.6,2l0.9-0.9c0,0,3.1-1.3,5.8-0.3S34,15,34,15
				C30.2,9.5,23,11.8,23,11.8z"/>
		</g>
	</g>
	<g>
		<g>
			<g>
				<path fill="#5A5F63" d="M12.9,12.3l0.1-0.6c0,0-7.2-2.3-11,3.2C2.7,18.6,12.3,18.4,12.9,12.3z"/>
			</g>
		</g>
	</g>
	<g>
		<g>
			<g>
				<path fill="#3E4347" d="M11.4,13.4c0,0-4.9-1.1-8.3,2.2C5.8,17.8,10.6,16.9,11.4,13.4z"/>
			</g>
		</g>
	</g>
	<g>
		<g>
			<path fill="#777B7E" d="M13,11.8l-0.1,0.6c-0.1,0.7-0.3,1.4-0.6,2l-0.9-0.9c0,0-3.1-1.3-5.8-0.3S2,15,2,15
				C5.8,9.5,13,11.8,13,11.8z"/>
		</g>
	</g>
	<g>
		<g>
			<g>
				<path fill="#3E4347" d="M24.7,12.9l-3.7-1.8c2-1,3.2-3,3.8-4.4c0.2-0.6,1.1-0.6,1.3,0C27.1,9.9,24.7,12.9,24.7,12.9z"/>
			</g>
		</g>
	</g>
	<g>
		<g>
			<g>
				<path fill="#3E4347" d="M11.3,12.9l3.7-1.8c-2-1-3.2-3-3.8-4.4c-0.2-0.6-1.1-0.6-1.3,0C8.9,9.9,11.3,12.9,11.3,12.9z"/>
			</g>
		</g>
	</g>
	<g>
		<g>
			<g>
				<path fill="#DEE4E9" d="M27,17.2c0,8.2-4,10.1-9,10.1c-5,0-9-2-9-10.1c0-6.2,4-9,9-9C22.9,8.2,27,10.9,27,17.2z"/>
			</g>
		</g>
	</g>
	<g>
		<g>
			<g>
				<g>
					<path fill="#FC97B2" d="M26,24.8c0.1,3.2-3.1,5.2-8,5.2c-4.9,0-8.1-2-8-5.2c-0.1-3.2,3.1-5.2,8-5.2
						C22.9,19.5,26.1,21.6,26,24.8z"/>
				</g>
			</g>
		</g>
		<g>
			<g>
				<g>
					<path fill="#F484A6" d="M25.4,26.9c-1.4,2.4-4.7,3-7.4,3c-1.4,0-3.1-0.1-4.4-0.7c-1.5-0.6-2.9-1.6-3.4-3.1
						c-0.4-1.3-0.2-2.4,0-2.9c-0.1,0.7-0.1,1.8,0.3,2.8c0.3,0.9,1.3,1.9,3.3,2.6c0.7,0.2,2.1,0.5,4.2,0.5c2.6,0,5.6-0.4,7.1-2.5
						c0.6-0.8,0.9-2,0.7-3.5C26.1,24.1,26.1,25.7,25.4,26.9z"/>
				</g>
			</g>
		</g>
		<g>
			<g>
				<g>
					<path fill="#EA759C" d="M15.8,26c0,0.1,0,0.2,0,0.3c0.2,1.1,1.2,1.9,2.3,1.9s2.1-0.8,2.3-1.9c0-0.1,0-0.2,0-0.3
						C18.8,26.3,17.3,26.3,15.8,26z"/>
				</g>
			</g>
		</g>
		<g>
			<g>
				<g>
					<path fill="#3E4347" d="M16.4,26.1c0,0.1,0,0.1,0,0.2c0.1,0.8,0.9,1.3,1.7,1.3c0.8,0,1.6-0.6,1.7-1.3c0-0.1,0-0.1,0-0.2
						C18.6,26.4,17.5,26.4,16.4,26.1z"/>
				</g>
			</g>
		</g>
		<g>
			<g>
				<g>
					<path fill="#871D48" d="M16.4,26.1c0,0.1,0,0.1,0,0.2c0.1,0.8,0.9,1.3,1.7,1.3c0.8,0,1.6-0.6,1.7-1.3c0-0.1,0-0.1,0-0.2
						C18.6,26.4,17.5,26.4,16.4,26.1z"/>
				</g>
			</g>
		</g>
		<g>
			<g>
				<g>
					<path fill="#F484A6" d="M13.8,25.3c1,0.3,2.5,0.6,4.2,0.6c1.8,0,3.1-0.4,4.2-0.6c-1.3,0.8-2.5,1.1-4.2,1.2
						C16.3,26.4,15.1,26.1,13.8,25.3z"/>
				</g>
			</g>
		</g>
		<g>
			<g>
				<g>
					<g>
						<g>
							<g>
								<path fill="#FC97B2" d="M24.8,22.2c-0.3,1.1-1.3,1.8-2.1,1.6c-0.8-0.3-1.2-1.4-0.9-2.5c0.3-1.1,1.3-1.8,2.1-1.6
									C24.7,20,25.1,21.1,24.8,22.2z"/>
							</g>
						</g>
					</g>
					<g>
						<g>
							<g>
								<path fill="#BB3166" d="M23.7,22.2c-0.4,0.4-1.8,0.4-1.8,0.4s0.2-0.9,0.6-1.4c0.4-0.4,0.9-0.6,1.3-0.3
									C24,21.2,24,21.7,23.7,22.2z"/>
							</g>
						</g>
					</g>
					<g>
						<g>
							<g>
								<path fill="#A52355" d="M23.9,21.7c0-0.1-0.1-0.2-0.2-0.3c-0.4-0.3-1.4-0.3-1.8,1.1c0-0.2,0.2-1,0.6-1.3
									c0.4-0.4,0.9-0.6,1.2-0.3C23.9,21.1,24,21.4,23.9,21.7z"/>
							</g>
						</g>
					</g>
				</g>
			</g>
			<g>
				<g>
					<g>
						<g>
							<g>
								<path fill="#FC97B2" d="M11.2,22.2c0.3,1.1,1.3,1.8,2.1,1.6c0.8-0.3,1.2-1.4,0.9-2.5c-0.3-1.1-1.3-1.8-2.1-1.6
									C11.3,20,10.9,21.1,11.2,22.2z"/>
							</g>
						</g>
					</g>
					<g>
						<g>
							<g>
								<path fill="#BB3166" d="M12.3,22.2c0.4,0.4,1.8,0.4,1.8,0.4s-0.2-0.9-0.6-1.4c-0.4-0.4-0.9-0.6-1.3-0.3
									C11.9,21.2,12,21.7,12.3,22.2z"/>
							</g>
						</g>
					</g>
					<g>
						<g>
							<g>
								<path fill="#A52355" d="M12.1,21.7c0-0.1,0.1-0.2,0.2-0.3c0.4-0.3,1.4-0.3,1.8,1.1c0-0.2-0.2-1-0.6-1.3
									c-0.4-0.4-0.9-0.6-1.2-0.3C12,21.1,12,21.4,12.1,21.7z"/>
							</g>
						</g>
					</g>
				</g>
				<g>
					<g>
						<g>
							<path fill="#F484A6" d="M14.2,21.2c-0.8-1.5-1.9-1.7-2.5-1.1c-0.5,0.5-0.6,1.4-0.5,2.1c-0.4-0.7-0.3-1.8,0.3-2.3
								C12.4,19.1,13.9,19.6,14.2,21.2z"/>
						</g>
					</g>
					<g>
						<g>
							<path fill="#F484A6" d="M24.8,22.3c0.1-0.3,0.1-0.9,0-1.3c-0.1-0.5-0.6-1.1-1.1-1.1c-0.7-0.1-1.5,0.6-1.9,1.4
								c0-0.5,0.8-1.9,1.9-1.7C24.7,19.6,25.4,21,24.8,22.3z"/>
						</g>
					</g>
				</g>
			</g>
		</g>
	</g>
	<g>
		<g>
			<g>
				<g>
					<g>
						<ellipse fill="#FFFFFF" cx="21.8" cy="15.6" rx="2.4" ry="3.1"/>
					</g>
				</g>
			</g>
			<g>
				<g>
					<g>
						<ellipse fill="#65B1EF" cx="21.8" cy="15.8" rx="1.7" ry="2.2"/>
					</g>
				</g>
			</g>
			<g>
				<g>
					<g>
						<ellipse fill="#3E4347" cx="21.8" cy="16.1" rx="1.1" ry="1.4"/>
					</g>
				</g>
			</g>
			<g>
				<g>
					<g>
						<circle fill="#FFFFFF" cx="22.5" cy="15.3" r="0.5"/>
					</g>
				</g>
			</g>
			<g>
				<g>
					<g>
						<circle fill="#FFFFFF" cx="21.6" cy="16.5" r="0.3"/>
					</g>
				</g>
			</g>
		</g>
		<g>
			<g>
				<g>
					<path fill="#3E4347" d="M24.5,13.7c-1-1.5-2.2-1.9-2.9-2c-0.3,0-0.4-0.4-0.1-0.5c1.8-0.6,2.7,1,3.3,2.4
						C24.8,13.7,24.6,13.8,24.5,13.7z"/>
				</g>
			</g>
		</g>
	</g>
	<g>
		<g>
			<g>
				<g>
					<g>
						<ellipse fill="#FFFFFF" cx="14.2" cy="15.6" rx="2.4" ry="3.1"/>
					</g>
				</g>
			</g>
			<g>
				<g>
					<g>
						<ellipse fill="#65B1EF" cx="14.2" cy="15.8" rx="1.7" ry="2.2"/>
					</g>
				</g>
			</g>
			<g>
				<g>
					<g>
						<ellipse fill="#3E4347" cx="14.2" cy="16.1" rx="1.1" ry="1.4"/>
					</g>
				</g>
			</g>
			<g>
				<g>
					<g>
						<circle fill="#FFFFFF" cx="13.5" cy="15.3" r="0.5"/>
					</g>
				</g>
			</g>
			<g>
				<g>
					<g>
						<circle fill="#FFFFFF" cx="14.4" cy="16.5" r="0.3"/>
					</g>
				</g>
			</g>
		</g>
		<g>
			<g>
				<g>
					<path fill="#3E4347" d="M11.5,13.7c1-1.5,2.2-1.9,2.9-2c0.3,0,0.4-0.4,0.1-0.5c-1.8-0.6-2.7,1-3.3,2.4
						C11.2,13.7,11.4,13.8,11.5,13.7z"/>
				</g>
			</g>
		</g>
	</g>
	<g>
		<g>
			<path fill="#3E4347" d="M20.1,8.5c0.4,0.5,0.6,0.8,0.6,1.6c-0.2-0.2-0.4-0.5-0.6-0.7c0.3,0.6,0,1.5-0.7,1.8c0-0.4,0-0.8,0-1.2
				c-0.6,0.6-1,1.4-1,2.2c-0.5-0.5-0.8-1.3-0.7-2c-0.4,0.3-0.6,0.8-0.6,1.3c-0.4-0.5-0.6-1.3-0.5-1.9c-0.4,0.3-0.7,0.7-0.8,1.1
				c-0.3-0.7-0.3-1.6,0-2.3c-0.5,0-1.1,0.1-1.5,0.5c0.2-0.7,0.9-1.2,1.6-1.1C16,7.2,16,6.6,16.2,6.1c0.2,0.7,0.5,1.4,1,1.9
				c0.1-0.7,0.8-1.3,1.5-1.3c-0.3,0.4-0.4,1-0.4,1.5c0.3-0.7,2-0.8,3.2,0.2C21,8.2,20.5,8.2,20.1,8.5z"/>
		</g>
	</g>
</g>
</svg>
