<?xml version="1.0" encoding="utf-8"?>
<!-- Generator: Adobe Illustrator 18.0.0, SVG Export Plug-In . SVG Version: 6.00 Build 0)  -->
<!DOCTYPE svg PUBLIC "-//W3C//DTD SVG 1.1//EN" "http://www.w3.org/Graphics/SVG/1.1/DTD/svg11.dtd">
<svg version="1.1" id="Layer_1" xmlns="http://www.w3.org/2000/svg" xmlns:xlink="http://www.w3.org/1999/xlink" x="0px" y="0px"
	 viewBox="0 0 36 36" enable-background="new 0 0 36 36" xml:space="preserve">
<g>
	<g>
		<g>
			<g>
				<g>
					<g>
						<path fill="#BBC7D1" d="M33.7,7.7c-0.2,3.1-3.9,4.7-3,9.6c-6.4-2.8-7.6-6.4-11.4-6.8c4.8-1.4,8.7-5,11.1-5.6
							C32.5,4.5,33.9,5.8,33.7,7.7z"/>
					</g>
				</g>
			</g>
			<g>
				<g>
					<g>
						<path fill="#E9EFF4" d="M23.3,12.3c2.1-1.7,4.3-3.4,6.4-5.2c1-0.8,2.3-1.5,3.1-0.5c0.8,1-0.3,3-0.8,3.8
							c-1,1.6-1.8,3.5-2.4,5.3c-0.3,0.8-0.7,1.5-1.3,2.1c-0.8,0.7-1.8,1-2.8,1c-1,0-2-0.3-3-0.6"/>
					</g>
				</g>
			</g>
			<g>
				<g>
					<path fill="#DEE4E9" d="M29.7,7.1c-2,1.7-4.1,3.3-6.1,5c0.1,0.7,0.2,1.3,0.4,1.7c0.3,0.5,1.5,1.6,1.5,1.6s0.9,0.2,1,0.2
						l-0.1-2.2c0,0-0.4-1.2,0.8-3.1s3.9-4.2,4.8-3.6c0.9,0.5,1.1,1.1,0.9,2.1c0.3-0.8,0.3-1.5-0.1-2C32,5.6,30.7,6.3,29.7,7.1z"/>
				</g>
			</g>
			<g>
				<g>
					<g>
						<path fill="#DEE4E9" d="M30.7,10.5l0.5-0.1c0,0-0.9,2.6-2.3,3.8c-1.4,1.2-1.4,1.2-1.4,1.2l0.3-1.2c1.1-0.8,2-1.8,2.5-3.1
							c-0.3,0.1-0.6,0.3-0.9,0.5c0.6-0.8,1.2-1.7,1.5-2.7c-0.2,0.1-0.3,0.2-0.5,0.3c0.4-0.6,0.6-1.3,0.6-2.1c0,0,0,0,0,0l-0.1,1.3
							l0.6-0.3L30.7,10.5z"/>
					</g>
				</g>
			</g>
			<g>
				<g>
					<g>
						<path fill="#BBC7D1" d="M29.7,11.3c0.6-0.3,0.5-0.2,0.8-0.4c-0.8,2-2.1,3.2-3.7,3.9c1.4-0.8,2.6-2,3.3-3.4
							c-0.8,0.4-0.5,0.3-1.2,0.6c0.8-0.9,1.3-1.6,1.8-2.9c-0.4,0.2-0.3,0.1-0.5,0.3c0.4-0.8,0.8-1.4,0.8-2.3c0,0.7-0.1,1.4-0.5,2
							c0.4-0.2,0.3-0.2,0.5-0.3C30.7,9.7,30.3,10.4,29.7,11.3z"/>
					</g>
				</g>
			</g>
		</g>
		<g>
			<g>
				<g>
					<g>
						<path fill="#BBC7D1" d="M2.3,7.7c0.2,3.1,3.9,4.7,3,9.6c6.4-2.8,7.6-6.4,11.4-6.8C11.8,9.1,7.9,5.6,5.6,5
							C3.5,4.5,2.1,5.8,2.3,7.7z"/>
					</g>
				</g>
			</g>
			<g>
				<g>
					<g>
						<path fill="#E9EFF4" d="M12.7,12.3c-2.1-1.7-4.3-3.4-6.4-5.2C5.3,6.3,4,5.6,3.2,6.6c-0.8,1,0.3,3,0.8,3.8
							c1,1.6,1.8,3.5,2.4,5.3c0.3,0.8,0.7,1.5,1.3,2.1c0.8,0.7,1.8,1,2.8,1s2-0.3,3-0.6"/>
					</g>
				</g>
			</g>
			<g>
				<g>
					<path fill="#DEE4E9" d="M6.3,7.1c2,1.7,4.1,3.3,6.1,5c-0.1,0.7-0.2,1.3-0.4,1.7c-0.3,0.5-1.5,1.6-1.5,1.6s-0.9,0.2-1,0.2
						l0.1-2.2c0,0,0.4-1.2-0.8-3.1S5,6.1,4.1,6.6C3.2,7.2,3,7.8,3.2,8.7c-0.3-0.8-0.3-1.5,0.1-2C4,5.6,5.3,6.3,6.3,7.1z"/>
				</g>
			</g>
			<g>
				<g>
					<g>
						<path fill="#DEE4E9" d="M5.3,10.5l-0.5-0.1c0,0,0.9,2.6,2.3,3.8c1.4,1.2,1.4,1.2,1.4,1.2l-0.3-1.2c-1.1-0.8-2-1.8-2.5-3.1
							c0.3,0.1,0.6,0.3,0.9,0.5C6.1,10.8,5.5,9.9,5.2,9C5.3,9,5.5,9.1,5.7,9.2C5.3,8.6,5.1,7.9,5.1,7.2c0,0,0,0,0,0l0.1,1.3L4.5,8.2
							L5.3,10.5z"/>
					</g>
				</g>
			</g>
			<g>
				<g>
					<g>
						<path fill="#BBC7D1" d="M6.3,11.3c-0.6-0.3-0.5-0.2-0.8-0.4c0.8,2,2.1,3.2,3.7,3.9c-1.4-0.8-2.6-2-3.3-3.4
							c0.8,0.4,0.5,0.3,1.2,0.6c-0.8-0.9-1.3-1.6-1.8-2.9c0.4,0.2,0.3,0.1,0.5,0.3C5.5,8.7,5.1,8,5.1,7.1c0,0.7,0.1,1.4,0.5,2
							C5.2,8.8,5.2,8.9,5,8.8C5.3,9.7,5.7,10.4,6.3,11.3z"/>
					</g>
				</g>
			</g>
		</g>
	</g>
	<g>
		<g>
			<g>
				<g>
					<path fill="#BBC7D1" d="M33.9,18.6c-1,1.1-2.2,1.9-3.5,2.5c0.6-0.1,1.2-0.2,1.9-0.3c-0.5,1.1-1.2,2.1-2.1,2.9
						c0.4-0.2,0.8-0.4,1.2-0.6c-1,1.6-2.6,2.9-4.4,3.6c0.4,0,0.8-0.1,1.2-0.1C25.1,29,21.9,30.2,18,30c-3.9,0.2-7.1-1.1-10.2-3.4
						c0.4,0,0.8,0.1,1.2,0.1c-1.8-0.7-3.4-1.9-4.4-3.6c0.4,0.2,0.8,0.4,1.2,0.6C4.8,23,4.1,22,3.6,20.8c0.6,0.1,1.2,0.2,1.9,0.3
						c-1.3-0.6-2.5-1.5-3.5-2.5c0.5,0.1,1,0.3,1.5,0.4c-0.8-0.6-1.3-1.4-1.5-2.4c2.7,2.4,5-1.8,6.3-3.6c3.9-5.6,14.7-5.7,19.4,0
						c1.4,1.8,3.5,6,6.3,3.6c-0.2,0.9-0.8,1.8-1.5,2.4C33,18.9,33.4,18.8,33.9,18.6z"/>
				</g>
			</g>
		</g>
	</g>
	<g>
		<g>
			<g>
				<path fill="#E9EFF4" d="M20.4,14.8c0,0,1.3-1,1.9-1c-0.4,0-0.7-0.1-1.1-0.1c0.2-0.3,0.6-0.6,1-0.7c-0.7-0.2-1.5-0.1-2.1,0.4
					c0.1-0.5,0.2-1,0.6-1.4c-0.7,0.2-1.3,0.7-1.8,1.2c0-0.5-0.2-1-0.6-1.3s-0.9-0.5-1.4-0.3c0.3,0.1,0.6,0.4,0.7,0.8
					c-0.7-0.2-1.5-0.3-2.3-0.1c0.4,0.1,0.8,0.3,1.2,0.6c-0.6,0-1.2,0.4-1.4,0.9c0.6-0.1,1.1-0.1,1.7-0.1c-0.7,0.1-1.4,0.3-2.1,0.7
					c0.7-0.1,1.5,0.3,2,0.9c0.5,0.6,0.8,1.3,1.1,2c0.6-0.8,1.5-1.4,2.5-1.7"/>
			</g>
		</g>
	</g>
	<g>
		<g>
			<g>
				<path fill="#E9EFF4" d="M33.9,18.6c-1,1.1-2.2,1.9-3.5,2.5c0.6-0.1,1.2-0.2,1.9-0.3c-0.5,1.1-1.2,2.1-2.1,2.9
					c0.4-0.2,0.8-0.4,1.2-0.6c-1,1.6-2.6,2.9-4.4,3.6c0.4,0,0.8-0.1,1.2-0.1c-2.2,1.7-4.4,2.8-6.9,3.2c-0.8,0.8-2,1.3-3.3,1.3
					c-1.3,0-2.5-0.5-3.3-1.3c-2.5-0.5-4.7-1.6-6.9-3.2c0.4,0,0.8,0.1,1.2,0.1c-1.8-0.7-3.4-1.9-4.4-3.6c0.4,0.2,0.8,0.4,1.2,0.6
					C4.8,23,4.1,22,3.6,20.8c0.6,0.1,1.2,0.2,1.9,0.3c-1.3-0.6-2.5-1.5-3.5-2.5c0.5,0.1,1,0.3,1.5,0.4c-0.8-0.6-1.3-1.4-1.5-2.4
					c0,0,2.1,2.4,8,0.6l-1.5-0.2c0,0,2.6-0.5,4.7-1.9c2-1.4,4.8-0.2,4.9,1.3c0-1.5,2.9-2.7,4.8-1.3c2,1.4,4.7,1.9,4.7,1.9L26,17.2
					c5.9,1.9,8-0.6,8-0.6c-0.2,0.9-0.8,1.8-1.5,2.4C33,18.9,33.4,18.8,33.9,18.6z"/>
			</g>
		</g>
	</g>
	<g>
		<g>
			<g>
				<path fill="#3E4347" d="M32,17.7c-1.3,0.3-3.2,0.4-6-0.5l1.5-0.2c0,0-1.3-0.3-2.8-0.9c-1.1-0.5-2.3-0.5-3.4-0.1
					c-1.3,0.6-2.2,1.6-2.2,3.5c0,2.2,1.7,4,3.7,4C24.4,23.7,29.7,20.3,32,17.7z"/>
			</g>
		</g>
		<g>
			<g>
				<path fill="#3E4347" d="M16.9,19.7c0-1.4-0.5-2.5-1.7-3.2c-1.2-0.7-2.7-0.7-4-0.2c-1.5,0.6-2.8,0.9-2.8,0.9l1.5,0.2
					c-2.8,0.9-4.7,0.8-6,0.5c2.3,2.6,7.6,6,9.2,6C15.2,23.7,16.9,21.9,16.9,19.7z"/>
			</g>
		</g>
	</g>
	<g>
		<g>
			<g>
				<g>
					<g>
						<path fill="#FFFFFF" d="M11.6,19.7c0,1.7,1,3.1,2.3,3.1s2.3-1.4,2.3-3.1s-1.1-3.1-2.3-3.1S11.6,17.9,11.6,19.7z"/>
					</g>
				</g>
			</g>
			<g>
				<g>
					<g>
						<path fill="#65B1EF" d="M12.3,20.1c0,1.2,0.7,2.2,1.7,2.2s1.7-1,1.7-2.2c0-1.2-0.8-2.2-1.7-2.2S12.3,18.8,12.3,20.1z"/>
					</g>
				</g>
			</g>
			<g>
				<g>
					<g>
						<ellipse fill="#3E4347" cx="13.9" cy="20.2" rx="1.1" ry="1.5"/>
					</g>
				</g>
			</g>
			<g>
				<g>
					<g>
						<path fill="#FFFFFF" d="M12.4,18.8c0,0.3,0.3,0.6,0.6,0.6c0.4,0,0.6-0.3,0.6-0.6c0-0.3-0.3-0.6-0.6-0.6
							C12.7,18.2,12.4,18.5,12.4,18.8z"/>
					</g>
				</g>
			</g>
			<g>
				<g>
					<g>
						<path fill="#FFFFFF" d="M13.7,20.7c0,0.2,0.1,0.3,0.3,0.3c0.2,0,0.3-0.1,0.3-0.3c0-0.2-0.2-0.3-0.3-0.3
							C13.8,20.3,13.7,20.5,13.7,20.7z"/>
					</g>
				</g>
			</g>
		</g>
		<g>
			<g>
				<g>
					<g>
						<path fill="#FFFFFF" d="M19.7,19.7c0,1.7,1,3.1,2.3,3.1s2.3-1.4,2.3-3.1s-1.1-3.1-2.3-3.1S19.7,17.9,19.7,19.7z"/>
					</g>
				</g>
			</g>
			<g>
				<g>
					<g>
						<path fill="#65B1EF" d="M20.4,20.1c0,1.2,0.7,2.2,1.7,2.2s1.7-1,1.7-2.2c0-1.2-0.8-2.2-1.7-2.2S20.4,18.8,20.4,20.1z"/>
					</g>
				</g>
			</g>
			<g>
				<g>
					<g>
						<ellipse fill="#3E4347" cx="22.1" cy="20.2" rx="1.1" ry="1.5"/>
					</g>
				</g>
			</g>
			<g>
				<g>
					<g>
						<path fill="#FFFFFF" d="M20.6,18.8c0,0.3,0.3,0.6,0.6,0.6c0.4,0,0.6-0.3,0.6-0.6c0-0.3-0.3-0.6-0.6-0.6
							C20.8,18.2,20.6,18.5,20.6,18.8z"/>
					</g>
				</g>
			</g>
			<g>
				<g>
					<g>
						<path fill="#FFFFFF" d="M21.8,20.7c0,0.2,0.1,0.3,0.3,0.3c0.2,0,0.3-0.1,0.3-0.3c0-0.2-0.2-0.3-0.3-0.3
							C21.9,20.3,21.8,20.5,21.8,20.7z"/>
					</g>
				</g>
			</g>
		</g>
	</g>
	<g>
		<g>
			<g>
				<g>
					<g>
						<path fill="#3D322B" d="M23.4,25.2c0,0.2-0.3,1-0.9,1.6c-0.2,0.3-1.3,1.2-1.7,1.7c-1.5,1.9-3.1,2-4.3,1
							c-0.5-0.3-0.8-0.8-1.2-1.2c-0.6-0.7-1.6-1.4-1.7-1.5c-0.5-0.5-0.9-1.2-1-1.5c0.2,0.5,0.5,0.9,1.1,1.4c0.9,0.8,2.6,1.3,4.3,1.3
							c1.7,0,3.4-0.5,4.3-1.3C22.9,26.1,23.3,25.5,23.4,25.2z"/>
					</g>
				</g>
			</g>
			<g>
				<g>
					<g>
						<path fill="#302621" d="M18,27.9c-0.8,0-1.5-0.1-2.3-0.3c0.1,0.1,0.2,0.2,0.3,0.4c0.2,0.3,0.5,0.6,0.8,0.9
							c0.8,0.7,2.1,0.6,3.1-0.7c0.1-0.2,0.4-0.4,0.6-0.6C19.8,27.8,18.9,27.9,18,27.9z"/>
					</g>
				</g>
			</g>
			<g>
				<g>
					<g>
						<path fill="#BBC7D1" d="M12.5,25.1c0,0,0.1,0.2,0.3,0.5c0.2,0.3,0.5,0.7,1,1c1,0.7,2.6,1.2,4.2,1.2c0.4,0,0.8,0,1.2-0.1
							c0.4-0.1,0.8-0.1,1.1-0.2c0.7-0.2,1.4-0.5,1.9-0.9c0.5-0.3,0.8-0.7,1-1c0.2-0.3,0.3-0.5,0.3-0.5c0,0,0,0,0,0.1
							c0,0.1,0,0.2-0.1,0.4c-0.1,0.3-0.4,0.8-0.9,1.2c-0.5,0.4-1.1,0.8-1.9,1.1c-0.4,0.1-0.8,0.2-1.2,0.3c-0.4,0.1-0.9,0.1-1.3,0.1
							c-0.9,0-1.7-0.1-2.5-0.4c-0.8-0.3-1.4-0.6-1.9-1.1c-0.5-0.4-0.7-0.8-0.9-1.2c-0.1-0.2-0.1-0.3-0.1-0.4
							C12.6,25.1,12.5,25.1,12.5,25.1z"/>
					</g>
				</g>
			</g>
			<g>
				<g>
					<g>
						<path fill="#E24B4B" d="M19.2,28.5c-0.7-0.6-1,0.1-2,0c-0.4,0-0.7,0.1-0.9,0.4c-0.1,0.1-0.1,0.2-0.1,0.2
							c0.1,0.1,0.2,0.2,0.3,0.3c0.9,0.8,2.1,0.8,3.3-0.1C19.7,29,19.5,28.7,19.2,28.5z"/>
					</g>
				</g>
			</g>
			<g opacity="0.15">
				<g>
					<g>
						<path fill="#FFFFFF" d="M19.1,28.8c0,0.1-0.2,0.1-0.4,0.1c-0.2,0-0.3-0.1-0.3-0.2c0-0.1,0.2-0.2,0.4-0.1
							C19,28.6,19.1,28.7,19.1,28.8z"/>
					</g>
				</g>
			</g>
		</g>
		<g>
			<g>
				<g>
					<g>
						<path fill="#BBC7D1" d="M24.2,25.9c-0.1-0.2-0.3-0.6-0.6-0.9c-0.4-0.4-0.8-0.7-0.8-0.7c0.2,0.1,0.6,0.3,1,0.6
							c0.2,0.2,0.4,0.5,0.4,0.7C24.2,25.7,24.2,25.9,24.2,25.9z"/>
					</g>
				</g>
				<g>
					<g>
						<path fill="#BBC7D1" d="M13.2,24.2c0,0-0.4,0.4-0.8,0.7c-0.2,0.2-0.5,0.6-0.6,0.9c0,0-0.1-0.5,0.5-1
							C12.6,24.5,13,24.3,13.2,24.2z"/>
					</g>
				</g>
			</g>
		</g>
	</g>
	<g>
		<g>
			<g>
				<g>
					<path fill="#3D322B" d="M20.3,25c0,1.1-0.9,1.9-2.3,1.9c-1.3,0-2.3-0.8-2.3-1.9c0-1.1,0.9-1.9,2.3-1.9
						C19.4,23.1,20.3,23.9,20.3,25z"/>
				</g>
			</g>
		</g>
		<g>
			<g>
				<g>
					<path fill="#302621" d="M20.3,25c0,1.1-0.9,1.9-2.3,1.9c-1.3,0-2.3-0.8-2.3-1.9c0-0.1,0-0.2,0-0.3c0.1,0.8,0.9,1.3,1.9,1.3
						c1,0,1.9-0.7,1.9-1.5c0-0.6-0.5-1.2-1.2-1.4C19.5,23.3,20.3,24,20.3,25z"/>
				</g>
			</g>
		</g>
		<g opacity="0.1">
			<g>
				<g>
					<ellipse fill="#FFFFFF" cx="17.4" cy="24.2" rx="1.2" ry="1"/>
				</g>
			</g>
		</g>
	</g>
</g>
</svg>
