<?xml version="1.0" encoding="utf-8"?>
<!-- Generator: Adobe Illustrator 21.1.0, SVG Export Plug-In . SVG Version: 6.00 Build 0)  -->
<svg version="1.1" id="Layer_1" xmlns="http://www.w3.org/2000/svg" xmlns:xlink="http://www.w3.org/1999/xlink" x="0px" y="0px"
	 viewBox="0 0 32 32" style="enable-background:new 0 0 32 32;" xml:space="preserve">
<style type="text/css">
	.st0{fill:#FFD83B;}
	.st1{fill:#F2F2F2;}
	.st2{fill:#F3C432;}
	.st3{fill:#DEE4E9;}
	.st4{fill:#E9EFF4;}
	.st5{fill:#6DAFDF;}
	.st6{fill:#5CA3D9;}
	.st7{fill:#4D98D2;}
	.st8{fill:#E8EFF3;}
	.st9{fill:#DDE3E9;}
	.st10{fill:#4CC6E5;}
	.st11{opacity:0.05;fill:#2F3133;}
	.st12{fill:#E14B4B;}
	.st13{fill:#D3D9DD;}
	.st14{fill:#65B1EF;}
	.st15{fill:#8CC63E;}
	.st16{fill:#E84D88;}
	.st17{fill:#A4856D;}
	.st18{fill:#8BC540;}
	.st19{fill:#7FB241;}
	.st20{fill:#8E6D53;}
	.st21{fill:#FFFFFF;}
	.st22{fill:#9A795F;}
	.st23{fill:#E24B4B;}
	.st24{fill:#F2992D;}
	.st25{fill:#DF8726;}
	.st26{fill:#997960;}
	.st27{fill:#FFD93B;}
	.st28{fill:#E8AF2A;}
	.st29{fill:#D23F77;}
	.st30{fill:#D03F3F;}
	.st31{fill:#BF3332;}
	.st32{fill:#D03F3E;}
	.st33{fill:#BF3333;}
	.st34{fill:#F4C534;}
	.st35{fill:#8F6D52;}
	.st36{fill:#E9B02C;}
	.st37{fill:#5A5F63;}
	.st38{fill:#F4F4F4;}
	.st39{fill:#E74C87;}
	.st40{fill:#D24078;}
	.st41{fill:#5B5F63;}
	.st42{fill:#3F4347;}
	.st43{fill:#719C40;}
	.st44{fill:#7B5C45;}
	.st45{fill:#BB3166;}
	.st46{fill:#89664C;}
	.st47{fill:#77589F;}
	.st48{fill:#8066AA;}
	.st49{fill:#8D7FB6;}
	.st50{fill:#88BA40;}
	.st51{fill:#FDE7AA;}
	.st52{fill:#7FB239;}
	.st53{fill:#45CBEA;}
	.st54{fill:#ACB9C1;}
	.st55{fill:#DAE5EF;}
	.st56{fill:#7CA740;}
	.st57{fill:#88BF40;}
	.st58{fill:#85BB40;}
	.st59{fill:#FFF100;}
	.st60{fill:#FFDD00;}
	.st61{fill:#F29A2E;}
	.st62{fill:#3E4347;}
	.st63{fill:#59A5E0;}
	.st64{fill:#2F3133;}
	.st65{fill:#EDEDEF;}
	.st66{fill:#4E99D2;}
	.st67{fill:#A5856D;}
</style>
<g>
	<path id="XMLID_1066_" class="st13" d="M16.685,8.156H15.87l0.604-0.604c0.145-0.145,0.145-0.381,0-0.526
		c-0.145-0.145-0.381-0.145-0.526,0l-1.13,1.13h-1.144l0.604-0.604c0.145-0.145,0.145-0.381,0-0.526
		c-0.145-0.145-0.381-0.145-0.526,0l-1.13,1.13h-1.904C10.67,7.933,10.58,7.726,10.46,7.542l1.348-1.348h1.599
		c0.206,0,0.372-0.167,0.372-0.372c0-0.206-0.167-0.372-0.372-0.372h-0.854l0.809-0.809h1.599c0.206,0,0.372-0.167,0.372-0.372
		c0-0.206-0.167-0.372-0.372-0.372h-0.854l0.576-0.576c0.145-0.145,0.145-0.381,0-0.526s-0.381-0.145-0.526,0l-0.576,0.576V2.516
		c0-0.206-0.167-0.372-0.372-0.372c-0.206,0-0.372,0.167-0.372,0.372v1.599l-0.809,0.809V4.069c0-0.206-0.167-0.372-0.372-0.372
		s-0.372,0.167-0.372,0.372v1.598L9.933,7.016C9.749,6.895,9.542,6.806,9.32,6.759V4.855l1.13-1.13c0.145-0.145,0.145-0.381,0-0.526
		c-0.145-0.145-0.381-0.145-0.526,0L9.32,3.802V2.658l1.13-1.13c0.145-0.145,0.145-0.381,0-0.526c-0.145-0.145-0.381-0.145-0.526,0
		L9.32,1.605V0.79c0-0.206-0.167-0.372-0.372-0.372S8.575,0.585,8.575,0.79v0.815L7.972,1.002c-0.145-0.145-0.381-0.145-0.526,0
		C7.3,1.147,7.3,1.383,7.445,1.528l1.13,1.13v1.144L7.972,3.198c-0.145-0.145-0.381-0.145-0.526,0C7.3,3.344,7.3,3.579,7.445,3.725
		l1.13,1.13v1.904C8.353,6.806,8.146,6.895,7.962,7.016L6.613,5.668V4.069c0-0.206-0.167-0.372-0.372-0.372S5.869,3.864,5.869,4.069
		v0.854L5.06,4.114V2.516c0-0.206-0.167-0.372-0.372-0.372c-0.206,0-0.372,0.167-0.372,0.372v0.854L3.739,2.793
		c-0.145-0.145-0.381-0.145-0.526,0s-0.145,0.381,0,0.526l0.576,0.576H2.935c-0.206,0-0.372,0.167-0.372,0.372
		c0,0.206,0.167,0.372,0.372,0.372h1.599l0.809,0.809H4.489c-0.206,0-0.372,0.167-0.372,0.372c0,0.206,0.167,0.372,0.372,0.372
		h1.598l1.348,1.348c-0.121,0.184-0.21,0.391-0.257,0.614H5.274l-1.13-1.13c-0.145-0.145-0.381-0.145-0.526,0
		c-0.145,0.145-0.145,0.381,0,0.526l0.604,0.604H3.078l-1.13-1.13c-0.145-0.145-0.381-0.145-0.526,0
		c-0.145,0.145-0.145,0.381,0,0.526l0.604,0.604H1.21c-0.206,0-0.372,0.167-0.372,0.372S1.004,8.9,1.21,8.9h0.815L1.421,9.504
		c-0.145,0.145-0.145,0.381,0,0.526c0.145,0.145,0.381,0.145,0.526,0l1.13-1.13h1.144L3.618,9.504c-0.145,0.145-0.145,0.381,0,0.526
		c0.145,0.145,0.381,0.145,0.526,0l1.13-1.13h1.904c0.047,0.223,0.136,0.429,0.256,0.613l-1.348,1.348H4.489
		c-0.206,0-0.372,0.167-0.372,0.372c0,0.206,0.167,0.372,0.372,0.372h0.854l-0.809,0.809H2.935c-0.206,0-0.372,0.167-0.372,0.372
		c0,0.206,0.167,0.372,0.372,0.372h0.853l-0.576,0.576c-0.145,0.145-0.145,0.381,0,0.526c0.145,0.145,0.381,0.145,0.526,0
		l0.576-0.576v0.854c0,0.206,0.167,0.372,0.372,0.372c0.206,0,0.372-0.167,0.372-0.372v-1.599l0.809-0.809v0.854
		c0,0.206,0.167,0.372,0.372,0.372s0.372-0.167,0.372-0.372v-1.598l1.348-1.348c0.184,0.121,0.391,0.21,0.614,0.257v1.904
		l-1.13,1.13c-0.145,0.145-0.145,0.381,0,0.526c0.145,0.145,0.381,0.145,0.526,0l0.604-0.604v1.144l-1.13,1.13
		c-0.145,0.145-0.145,0.381,0,0.526c0.145,0.145,0.381,0.145,0.526,0l0.604-0.604v0.814c0,0.206,0.167,0.372,0.372,0.372
		s0.372-0.167,0.372-0.372v-0.815l0.604,0.604c0.145,0.145,0.381,0.145,0.526,0c0.145-0.145,0.145-0.381,0-0.526l-1.13-1.13v-1.144
		l0.604,0.604c0.145,0.145,0.381,0.145,0.526,0c0.145-0.145,0.145-0.381,0-0.526l-1.13-1.13v-1.904
		c0.223-0.047,0.429-0.136,0.614-0.257l1.348,1.348v1.598c0,0.206,0.167,0.372,0.372,0.372s0.372-0.167,0.372-0.372v-0.854
		l0.809,0.809v1.599c0,0.206,0.167,0.372,0.372,0.372c0.206,0,0.372-0.167,0.372-0.372v-0.854l0.576,0.576
		c0.145,0.145,0.381,0.145,0.526,0c0.145-0.145,0.145-0.381,0-0.526l-0.576-0.576h0.854c0.206,0,0.372-0.167,0.372-0.372
		c0-0.206-0.167-0.372-0.372-0.372h-1.598l-0.809-0.809h0.854c0.206,0,0.372-0.167,0.372-0.372c0-0.206-0.167-0.372-0.372-0.372
		h-1.599L10.46,9.514C10.58,9.33,10.67,9.123,10.716,8.9h1.904l1.13,1.13c0.145,0.145,0.381,0.145,0.526,0
		c0.145-0.145,0.145-0.381,0-0.526L13.674,8.9h1.144l1.13,1.13c0.145,0.145,0.381,0.145,0.526,0c0.145-0.145,0.145-0.381,0-0.526
		L15.871,8.9h0.815c0.206,0,0.372-0.167,0.372-0.372S16.891,8.156,16.685,8.156z M8.947,9.592c-0.587,0-1.064-0.477-1.064-1.064
		s0.477-1.064,1.064-1.064s1.064,0.477,1.064,1.064S9.534,9.592,8.947,9.592z"/>
	<path id="XMLID_1078_" class="st4" d="M25.674,16.471V4.053C25.674,1.815,23.86,0,21.622,0h0c-2.238,0-4.053,1.815-4.053,4.053
		v12.418c-2.53,1.421-4.242,4.126-4.242,7.234c0,4.581,3.714,8.295,8.295,8.295c4.581,0,8.295-3.714,8.295-8.295
		C29.917,20.596,28.205,17.892,25.674,16.471z"/>
	<g id="XMLID_1065_">
		<g id="XMLID_1074_">
			<path id="XMLID_1075_" class="st13" d="M30.538,4.753h-3.266c-0.345,0-0.625-0.28-0.625-0.625s0.28-0.625,0.625-0.625h3.266
				c0.345,0,0.625,0.28,0.625,0.625S30.883,4.753,30.538,4.753z"/>
		</g>
		<g id="XMLID_1076_">
			<path id="XMLID_1077_" class="st13" d="M30.538,7.743h-3.266c-0.345,0-0.625-0.28-0.625-0.625s0.28-0.625,0.625-0.625h3.266
				c0.345,0,0.625,0.28,0.625,0.625S30.883,7.743,30.538,7.743z"/>
		</g>
		<g id="XMLID_1080_">
			<path id="XMLID_1083_" class="st13" d="M30.538,10.732h-3.266c-0.345,0-0.625-0.28-0.625-0.625s0.28-0.625,0.625-0.625h3.266
				c0.345,0,0.625,0.28,0.625,0.625S30.883,10.732,30.538,10.732z"/>
		</g>
		<g id="XMLID_1084_">
			<path id="XMLID_1088_" class="st13" d="M30.538,13.721h-3.266c-0.345,0-0.625-0.28-0.625-0.625s0.28-0.625,0.625-0.625h3.266
				c0.345,0,0.625,0.28,0.625,0.625S30.883,13.721,30.538,13.721z"/>
		</g>
	</g>
	<path id="XMLID_1236_" class="st12" d="M19.568,8.22v9.422l-1.021,0.573c-1.987,1.116-3.222,3.22-3.222,5.489
		c0,3.472,2.824,6.296,6.295,6.296s6.295-2.824,6.295-6.296c0-2.271-1.234-4.373-3.222-5.489l-1.021-0.573V8.22
		C22.304,7.964,21.009,7.951,19.568,8.22z"/>
	<g>
		<path id="XMLID_1103_" class="st13" d="M23.674,8.22V4.053C23.674,2.921,22.753,2,21.622,2c-1.132,0-2.053,0.921-2.053,2.053V8.22
			C20.933,7.965,22.227,7.95,23.674,8.22z"/>
	</g>
</g>
</svg>
