<?xml version="1.0" encoding="utf-8"?>
<!-- Generator: Adobe Illustrator 21.1.0, SVG Export Plug-In . SVG Version: 6.00 Build 0)  -->
<svg version="1.1" id="Layer_1" xmlns="http://www.w3.org/2000/svg" xmlns:xlink="http://www.w3.org/1999/xlink" x="0px" y="0px"
	 viewBox="0 0 32 32" style="enable-background:new 0 0 32 32;" xml:space="preserve">
<style type="text/css">
	.st0{fill:#E9EFF4;}
	.st1{fill:#DEE4E9;}
	.st2{fill:#6DAFDF;}
</style>
<g id="XMLID_1030_">
	<g id="XMLID_1032_">
		<path id="XMLID_1048_" class="st0" d="M25.116,7.318c-1.422-3.653-4.963-6.247-9.119-6.247S8.297,3.664,6.877,7.318
			C3.043,7.203,0,10.274,0,13.982c0,3.686,2.988,6.674,6.674,6.674c1.582,0,3.033-0.553,4.176-1.473
			c1.496,0.928,3.255,1.473,5.145,1.473s3.649-0.545,5.146-1.473c1.143,0.92,2.595,1.473,4.176,1.473
			c3.686,0,6.674-2.988,6.674-6.674C31.992,10.272,28.947,7.203,25.116,7.318z"/>
		<path id="XMLID_1047_" class="st1" d="M11.502,8.665c-1.137-1.202-2.607-1.98-4.232-2.173C7.137,6.757,6.995,7.018,6.885,7.297
			c1.648,0.014,3.055,0.551,4.311,1.673c1.495,1.411,1.953,2.886,2.107,4.567C13.289,11.828,12.96,10.284,11.502,8.665z"/>
		<path id="XMLID_1046_" class="st1" d="M18.644,13.982c-0.163-3.385,1.804-5.867,4.626-6.787c2.01-0.608,4.161-0.317,5.892,0.878
			c2.081,1.421,2.938,3.673,2.829,5.91c-0.235-2.326-1.365-4.034-3.244-5.273C27.2,7.721,25.133,7.513,23.51,7.993
			C20.788,8.87,18.932,11.07,18.644,13.982z"/>
	</g>
	<g id="XMLID_1031_">
		<path id="XMLID_1052_" class="st2" d="M3.963,24.298c-0.305,0.53-0.124,1.207,0.406,1.512c0.53,0.305,1.207,0.124,1.512-0.406
			c0.305-0.53,0.212-2.58,0.212-2.58S4.27,23.768,3.963,24.298z"/>
		<path id="XMLID_1057_" class="st2" d="M10.348,24.298c-0.305,0.53-0.124,1.207,0.406,1.512c0.53,0.305,1.207,0.124,1.512-0.406
			c0.305-0.53,0.212-2.58,0.212-2.58S10.654,23.768,10.348,24.298z"/>
		<path id="XMLID_1081_" class="st2" d="M16.732,24.298c-0.305,0.53-0.124,1.207,0.406,1.512c0.53,0.305,1.207,0.124,1.512-0.406
			c0.305-0.53,0.212-2.58,0.212-2.58S17.038,23.768,16.732,24.298z"/>
		<path id="XMLID_1086_" class="st2" d="M25.246,22.825c0,0-1.823,0.944-2.129,1.474c-0.305,0.53-0.124,1.207,0.406,1.512
			c0.53,0.305,1.207,0.124,1.512-0.406C25.34,24.876,25.246,22.825,25.246,22.825z"/>
		<path id="XMLID_1090_" class="st2" d="M6.659,29.268c-0.305,0.53-0.124,1.207,0.406,1.512s1.207,0.124,1.512-0.406
			c0.305-0.53,0.212-2.58,0.212-2.58S6.964,28.738,6.659,29.268z"/>
		<path id="XMLID_1094_" class="st2" d="M13.043,29.268c-0.305,0.53-0.124,1.207,0.406,1.512s1.207,0.124,1.512-0.406
			c0.305-0.53,0.212-2.58,0.212-2.58S13.348,28.738,13.043,29.268z"/>
		<path id="XMLID_1098_" class="st2" d="M19.427,29.268c-0.305,0.53-0.124,1.207,0.406,1.512c0.53,0.305,1.207,0.124,1.512-0.406
			c0.305-0.53,0.212-2.58,0.212-2.58S19.733,28.738,19.427,29.268z"/>
	</g>
</g>
</svg>
