<?xml version="1.0" encoding="utf-8"?>
<!-- Generator: Adobe Illustrator 21.1.0, SVG Export Plug-In . SVG Version: 6.00 Build 0)  -->
<svg version="1.1" id="Layer_1" xmlns="http://www.w3.org/2000/svg" xmlns:xlink="http://www.w3.org/1999/xlink" x="0px" y="0px"
	 viewBox="0 0 32 32" style="enable-background:new 0 0 32 32;" xml:space="preserve">
<style type="text/css">
	.st0{fill:#FFD83B;}
	.st1{fill:#F2F2F2;}
	.st2{fill:#F3C432;}
	.st3{fill:#DEE4E9;}
	.st4{fill:#E9EFF4;}
	.st5{fill:#6DAFDF;}
	.st6{fill:#5CA3D9;}
	.st7{fill:#4D98D2;}
	.st8{fill:#E8EFF3;}
	.st9{fill:#DDE3E9;}
	.st10{fill:#4CC6E5;}
	.st11{opacity:0.05;fill:#2F3133;}
	.st12{fill:#E14B4B;}
	.st13{fill:#D3D9DD;}
	.st14{fill:#65B1EF;}
	.st15{fill:#8CC63E;}
	.st16{fill:#E84D88;}
	.st17{fill:#A4856D;}
	.st18{fill:#8BC540;}
	.st19{fill:#7FB241;}
	.st20{fill:#8E6D53;}
	.st21{fill:#FFFFFF;}
	.st22{fill:#9A795F;}
	.st23{fill:#E24B4B;}
	.st24{fill:#F2992D;}
	.st25{fill:#DF8726;}
	.st26{fill:#997960;}
	.st27{fill:#FFD93B;}
	.st28{fill:#E8AF2A;}
	.st29{fill:#D23F77;}
	.st30{fill:#D03F3F;}
	.st31{fill:#BF3332;}
	.st32{fill:#D03F3E;}
	.st33{fill:#BF3333;}
	.st34{fill:#F4C534;}
	.st35{fill:#8F6D52;}
	.st36{fill:#E9B02C;}
	.st37{fill:#5A5F63;}
	.st38{fill:#F4F4F4;}
	.st39{fill:#E74C87;}
	.st40{fill:#D24078;}
	.st41{fill:#5B5F63;}
	.st42{fill:#3F4347;}
	.st43{fill:#719C40;}
	.st44{fill:#7B5C45;}
	.st45{fill:#BB3166;}
	.st46{fill:#89664C;}
	.st47{fill:#77589F;}
	.st48{fill:#8066AA;}
	.st49{fill:#8D7FB6;}
	.st50{fill:#88BA40;}
	.st51{fill:#FDE7AA;}
	.st52{fill:#7FB239;}
	.st53{fill:#45CBEA;}
	.st54{fill:#ACB9C1;}
	.st55{fill:#DAE5EF;}
	.st56{fill:#7CA740;}
	.st57{fill:#88BF40;}
	.st58{fill:#85BB40;}
	.st59{fill:#FFF100;}
	.st60{fill:#FFDD00;}
	.st61{fill:#F29A2E;}
	.st62{fill:#3E4347;}
	.st63{fill:#59A5E0;}
	.st64{fill:#2F3133;}
	.st65{fill:#EDEDEF;}
	.st66{fill:#4E99D2;}
	.st67{fill:#A5856D;}
</style>
<g id="XMLID_1553_">
	<g id="XMLID_835_">
		<rect id="XMLID_1568_" x="21.706" y="22.793" class="st26" width="2.627" height="8.588"/>
	</g>
	<path id="XMLID_1567_" class="st18" d="M29.887,20.811c0,3.793-3.075,6.868-6.868,6.868s-6.868-3.075-6.868-6.868
		S19.227,0,23.019,0S29.887,17.018,29.887,20.811z"/>
	<g id="XMLID_1125_">
		<rect id="XMLID_1558_" x="0" y="30.294" class="st18" width="32" height="1.706"/>
	</g>
	<g id="XMLID_1561_">
		<g id="XMLID_1562_">
			<circle id="XMLID_1728_" class="st0" cx="8.192" cy="8.192" r="5.283"/>
		</g>
		<g id="XMLID_1566_">
			<g id="XMLID_1569_">
				<path id="XMLID_1687_" class="st0" d="M8.191,2.205c-0.276,0-0.5-0.224-0.5-0.5V0.5c0-0.276,0.224-0.5,0.5-0.5
					s0.5,0.224,0.5,0.5v1.205C8.691,1.981,8.468,2.205,8.191,2.205z"/>
			</g>
			<g id="XMLID_1570_">
				<path id="XMLID_1686_" class="st0" d="M8.191,16.384c-0.276,0-0.5-0.224-0.5-0.5V14.68c0-0.276,0.224-0.5,0.5-0.5
					s0.5,0.224,0.5,0.5v1.204C8.691,16.16,8.468,16.384,8.191,16.384z"/>
			</g>
		</g>
		<g id="XMLID_1571_">
			<g id="XMLID_1574_">
				<path id="XMLID_1685_" class="st0" d="M12.426,3.958c-0.195-0.195-0.195-0.512,0-0.707l0.852-0.852
					c0.195-0.195,0.512-0.195,0.707,0s0.195,0.512,0,0.707l-0.852,0.852C12.937,4.153,12.621,4.153,12.426,3.958z"/>
			</g>
			<g id="XMLID_1660_">
				<path id="XMLID_1684_" class="st0" d="M2.399,13.984c-0.195-0.195-0.195-0.512,0-0.707l0.852-0.852
					c0.195-0.195,0.512-0.195,0.707,0s0.195,0.512,0,0.707l-0.852,0.852C2.911,14.18,2.595,14.18,2.399,13.984z"/>
			</g>
		</g>
		<g id="XMLID_1661_">
			<g id="XMLID_1662_">
				<path id="XMLID_1683_" class="st0" d="M15.884,8.692H14.68c-0.276,0-0.5-0.224-0.5-0.5s0.224-0.5,0.5-0.5h1.204
					c0.276,0,0.5,0.224,0.5,0.5S16.16,8.692,15.884,8.692z"/>
			</g>
			<g id="XMLID_1663_">
				<path id="XMLID_1670_" class="st0" d="M1.704,8.692H0.5c-0.276,0-0.5-0.224-0.5-0.5s0.224-0.5,0.5-0.5h1.204
					c0.276,0,0.5,0.224,0.5,0.5S1.98,8.692,1.704,8.692z"/>
			</g>
		</g>
		<g id="XMLID_1666_">
			<g id="XMLID_1667_">
				<path id="XMLID_1669_" class="st0" d="M13.277,13.984l-0.852-0.852c-0.195-0.195-0.195-0.512,0-0.707s0.512-0.195,0.707,0
					l0.852,0.852c0.195,0.195,0.195,0.512,0,0.707C13.789,14.18,13.473,14.18,13.277,13.984z"/>
			</g>
			<g id="XMLID_1668_">
				<path id="XMLID_1688_" class="st0" d="M3.251,3.958L2.399,3.106c-0.195-0.195-0.195-0.512,0-0.707s0.512-0.195,0.707,0
					l0.852,0.852c0.195,0.195,0.195,0.512,0,0.707C3.763,4.153,3.446,4.153,3.251,3.958z"/>
			</g>
		</g>
	</g>
</g>
</svg>
