<?xml version="1.0" encoding="utf-8"?>
<!-- Generator: Adobe Illustrator 21.1.0, SVG Export Plug-In . SVG Version: 6.00 Build 0)  -->
<svg version="1.1" id="Layer_1" xmlns="http://www.w3.org/2000/svg" xmlns:xlink="http://www.w3.org/1999/xlink" x="0px" y="0px"
	 viewBox="0 0 32 32" style="enable-background:new 0 0 32 32;" xml:space="preserve">
<style type="text/css">
	.st0{fill:#8F6D52;}
	.st1{fill:#7FB241;}
	.st2{fill:#A5856D;}
	.st3{fill:#FFFFFF;}
	.st4{fill:#7FB239;}
	.st5{fill:#45CBEA;}
	.st6{fill:#5A5F63;}
	.st7{fill:#8BC540;}
	.st8{fill:#E14B4B;}
	.st9{fill:#F3C432;}
	.st10{fill:#FFD83B;}
	.st11{fill:#DAE5EF;}
	.st12{fill:#E24B4B;}
	.st13{fill:#3E4347;}
	.st14{fill:#5B5F63;}
	.st15{fill:#6DAFDF;}
	.st16{fill:#9A795F;}
	.st17{fill:#997960;}
	.st18{fill:#FFD93B;}
	.st19{fill:#E2E2E1;}
	.st20{fill:#3F4347;}
	.st21{opacity:0.02;fill:#2F3133;}
	.st22{fill:#E9EFF4;}
	.st23{fill:#DEE4E9;}
	.st24{fill:#F4C534;}
	.st25{fill:#BBC7D1;}
	.st26{fill:#DDE3E9;}
	.st27{fill:#E8EBEE;}
	.st28{fill:#DDDDDC;}
	.st29{fill:#F4F4F4;}
	.st30{fill:#777B7E;}
	.st31{opacity:0.1;fill:#231F20;}
	.st32{fill:#E574AC;}
	.st33{fill:#428DC3;}
	.st34{fill:#4CC6E5;}
	.st35{fill:#E8EFF3;}
	.st36{fill:#8E6D53;}
	.st37{fill:#719C40;}
	.st38{fill:url(#XMLID_3_);}
	.st39{fill:#FFF100;}
	.st40{fill:#9FDCF8;}
	.st41{fill:#27B2CC;}
	.st42{fill:#CBD6E0;}
	.st43{fill:#BF3333;}
	.st44{fill:#D03F3F;}
	.st45{fill:#5CA3D9;}
	.st46{fill:#CE7629;}
	.st47{fill:#E18823;}
	.st48{fill:#A4856D;}
	.st49{fill:#7BA740;}
	.st50{fill:#F29A2E;}
	.st51{fill:#F2F2F2;}
	.st52{fill:#83B844;}
	.st53{fill:#8BC04C;}
	.st54{fill:#7A5B44;}
	.st55{fill:#8CC63E;}
	.st56{fill:#89664C;}
	.st57{fill:#65B1EF;}
	.st58{fill:#4D98D2;}
	.st59{fill:#BAC6D0;}
	.st60{fill:#7AA440;}
	.st61{fill:#ACB9C1;}
	.st62{fill:#E8AF2A;}
	.st63{fill:#D03F3E;}
	.st64{fill:#DF8726;}
	.st65{fill:#DF9D27;}
	.st66{fill:#D3D9DD;}
	.st67{fill:none;stroke:#FFFFFF;stroke-width:2.5;stroke-linecap:round;stroke-linejoin:round;stroke-miterlimit:10;}
	.st68{fill:#FCD91A;}
	.st69{opacity:0.05;fill:#3F4347;}
	.st70{fill:#5F6469;}
	.st71{fill:#64696E;}
	.st72{fill:#939799;}
	.st73{fill:#6F7378;}
	.st74{fill:#D2D8DD;}
	.st75{fill:#4E99D2;}
	.st76{fill:#7B8B92;}
	.st77{fill:#38C0DC;}
	.st78{opacity:0.2;}
	.st79{fill:#FDE7AA;}
	.st80{fill:#FFDC96;}
	.st81{fill:#64892F;}
	.st82{fill:#E9B02C;}
</style>
<g id="XMLID_1689_">
	<path id="XMLID_1694_" class="st16" d="M20.355,32c-2.945,0-5.891,0-8.836,0c1.86-5.322,2.195-10.842,1.533-16.164
		c1.923,0,3.846,0,5.769,0C18.16,21.158,18.495,26.678,20.355,32z"/>
	<path id="XMLID_1695_" class="st7" d="M24.51,6.966C23.011,2.857,19.741,0,15.937,0C12.131,0,8.86,2.86,7.361,6.972
		c-4.042,0.078-7.296,3.373-7.296,7.434c0,4.11,3.331,7.441,7.441,7.441c0.903,0,1.764-0.169,2.565-0.464
		c1.612,1.623,3.648,2.599,5.866,2.599c2.234,0,4.283-0.989,5.901-2.633c0.826,0.316,1.719,0.497,2.656,0.497
		c4.11,0,7.441-3.331,7.441-7.441C31.935,10.302,28.612,6.974,24.51,6.966z"/>
	<circle id="XMLID_1690_" class="st1" cx="5.812" cy="11.991" r="1.141"/>
	<circle id="XMLID_1692_" class="st1" cx="11.685" cy="9.845" r="1.141"/>
	<circle id="XMLID_1693_" class="st1" cx="15.555" cy="20.571" r="1.141"/>
	<circle id="XMLID_1699_" class="st1" cx="22.813" cy="18.29" r="1.141"/>
	<circle id="XMLID_1696_" class="st1" cx="20.355" cy="8.705" r="1.141"/>
	<circle id="XMLID_1700_" class="st1" cx="16" cy="14.779" r="1.141"/>
	<circle id="XMLID_1701_" class="st1" cx="27.39" cy="13.424" r="1.141"/>
	<circle id="XMLID_1697_" class="st1" cx="15.285" cy="2.944" r="1.141"/>
	<circle id="XMLID_1698_" class="st1" cx="8.304" cy="18.842" r="1.141"/>
</g>
</svg>
