<?xml version="1.0" encoding="utf-8"?>
<!-- Generator: Adobe Illustrator 21.1.0, SVG Export Plug-In . SVG Version: 6.00 Build 0)  -->
<svg version="1.1" id="Layer_1" xmlns="http://www.w3.org/2000/svg" xmlns:xlink="http://www.w3.org/1999/xlink" x="0px" y="0px"
	 viewBox="0 0 32 32" style="enable-background:new 0 0 32 32;" xml:space="preserve">
<style type="text/css">
	.st0{fill:#8F6D52;}
	.st1{fill:#7FB241;}
	.st2{fill:#A5856D;}
	.st3{fill:#FFFFFF;}
	.st4{fill:#7FB239;}
	.st5{fill:#45CBEA;}
	.st6{fill:#5A5F63;}
	.st7{fill:#8BC540;}
	.st8{fill:#E14B4B;}
	.st9{fill:#F3C432;}
	.st10{fill:#FFD83B;}
	.st11{fill:#DAE5EF;}
	.st12{fill:#E24B4B;}
	.st13{fill:#3E4347;}
	.st14{fill:#5B5F63;}
	.st15{fill:#6DAFDF;}
	.st16{fill:#9A795F;}
	.st17{fill:#997960;}
	.st18{fill:#FFD93B;}
	.st19{fill:#E2E2E1;}
	.st20{fill:#3F4347;}
	.st21{opacity:0.02;fill:#2F3133;}
	.st22{fill:#E9EFF4;}
	.st23{fill:#DEE4E9;}
	.st24{fill:#F4C534;}
	.st25{fill:#BBC7D1;}
	.st26{fill:#DDE3E9;}
	.st27{fill:#E8EBEE;}
	.st28{fill:#DDDDDC;}
	.st29{fill:#F4F4F4;}
	.st30{fill:#777B7E;}
	.st31{opacity:0.1;fill:#231F20;}
	.st32{fill:#E574AC;}
	.st33{fill:#428DC3;}
	.st34{fill:#4CC6E5;}
	.st35{fill:#E8EFF3;}
	.st36{fill:#8E6D53;}
	.st37{fill:#719C40;}
	.st38{fill:url(#XMLID_3_);}
	.st39{fill:#FFF100;}
	.st40{fill:#9FDCF8;}
	.st41{fill:#27B2CC;}
	.st42{fill:#CBD6E0;}
	.st43{fill:#BF3333;}
	.st44{fill:#D03F3F;}
	.st45{fill:#5CA3D9;}
	.st46{fill:#CE7629;}
	.st47{fill:#E18823;}
	.st48{fill:#A4856D;}
	.st49{fill:#7BA740;}
	.st50{fill:#F29A2E;}
	.st51{fill:#F2F2F2;}
	.st52{fill:#83B844;}
	.st53{fill:#8BC04C;}
	.st54{fill:#7A5B44;}
	.st55{fill:#8CC63E;}
	.st56{fill:#89664C;}
	.st57{fill:#65B1EF;}
	.st58{fill:#4D98D2;}
	.st59{fill:#BAC6D0;}
	.st60{fill:#7AA440;}
	.st61{fill:#ACB9C1;}
	.st62{fill:#E8AF2A;}
	.st63{fill:#D03F3E;}
	.st64{fill:#DF8726;}
	.st65{fill:#DF9D27;}
	.st66{fill:#D3D9DD;}
	.st67{fill:none;stroke:#FFFFFF;stroke-width:2.5;stroke-linecap:round;stroke-linejoin:round;stroke-miterlimit:10;}
	.st68{fill:#FCD91A;}
	.st69{opacity:0.05;fill:#3F4347;}
	.st70{fill:#5F6469;}
	.st71{fill:#64696E;}
	.st72{fill:#939799;}
	.st73{fill:#6F7378;}
	.st74{fill:#D2D8DD;}
	.st75{fill:#4E99D2;}
	.st76{fill:#7B8B92;}
	.st77{fill:#38C0DC;}
	.st78{opacity:0.2;}
	.st79{fill:#FDE7AA;}
	.st80{fill:#FFDC96;}
	.st81{fill:#64892F;}
	.st82{fill:#E9B02C;}
</style>
<g id="XMLID_2537_">
	<g id="XMLID_1136_">
		
			<rect id="XMLID_2890_" x="14.618" y="26.687" transform="matrix(1 0.0011 -0.0011 1 0.0327 -0.0178)" class="st17" width="2.75" height="5.311"/>
	</g>
	<path id="XMLID_2889_" class="st7" d="M21.815,11.759L16.02,5.951c-0.001-0.001-0.003-0.001-0.003,0l-5.808,5.795
		c-0.421,0.42-0.451,1.088-0.082,1.555c2.98,3.769,8.779,3.775,11.768,0.013C22.264,12.848,22.236,12.18,21.815,11.759z"/>
	<path id="XMLID_2888_" class="st7" d="M23.172,16.741l-7.158-7.174l-7.174,7.158c-0.4,0.399-0.465,1.036-0.13,1.49
		c3.602,4.872,10.974,4.88,14.587,0.016C23.635,17.778,23.571,17.141,23.172,16.741z"/>
	<path id="XMLID_2887_" class="st7" d="M24.525,21.72l-8.513-8.532c-0.001,0-0.002,0-0.002,0l-8.532,8.513
		c-0.396,0.395-0.463,1.022-0.138,1.477c4.219,5.911,13.09,5.921,17.322,0.019C24.986,22.743,24.92,22.115,24.525,21.72z"/>
	<path id="XMLID_2886_" class="st1" d="M12.629,9.331l-0.555,0.554c1.13,0.818,2.499,1.276,3.939,1.277s2.81-0.453,3.942-1.269
		L19.4,9.338C17.377,10.731,14.649,10.728,12.629,9.331z"/>
	<path id="XMLID_2885_" class="st1" d="M11.19,14.381c0,0,2.817,2.522,4.816,2.524c1.998,0.002,3.895-0.699,5.377-1.957
		l-0.555-0.556C18.061,16.702,13.952,16.697,11.19,14.381z"/>
	<path id="XMLID_2884_" class="st1" d="M9.771,19.412c0,0,3.674,3.233,6.229,3.236s4.969-0.961,6.782-2.675l-0.546-0.547
		C18.769,22.695,13.231,22.689,9.771,19.412z"/>
	<path id="XMLID_2883_" class="st7" d="M20.454,6.772l-4.429-4.439c-0.001-0.001-0.003-0.001-0.004,0l-4.439,4.429
		c-0.427,0.426-0.462,1.115-0.069,1.572c2.347,2.735,6.654,2.74,9.007,0.01C20.913,7.887,20.88,7.199,20.454,6.772z"/>
	<path id="XMLID_2882_" class="st10" d="M18.226,1.983c0.216-0.157,0.105-0.498-0.161-0.498l-1.158-0.001
		c-0.119,0-0.225-0.077-0.262-0.191l-0.357-1.102c-0.082-0.254-0.441-0.254-0.524-0.001l-0.359,1.101
		c-0.037,0.113-0.143,0.19-0.262,0.19l-1.158-0.001c-0.267,0-0.378,0.341-0.162,0.498l0.936,0.682c0.096,0.07,0.137,0.194,0.1,0.308
		L14.5,4.068c-0.083,0.254,0.207,0.465,0.424,0.308l0.937-0.68c0.097-0.07,0.227-0.07,0.324,0l0.936,0.682
		c0.216,0.157,0.506-0.054,0.424-0.308L17.189,2.97c-0.037-0.114,0.004-0.238,0.1-0.308L18.226,1.983z"/>
	
		<ellipse id="XMLID_2880_" transform="matrix(0.0011 -1 1 0.0011 0.2469 25.4294)" class="st3" cx="12.852" cy="12.591" rx="0.596" ry="0.596"/>
	
		<ellipse id="XMLID_2879_" transform="matrix(0.0011 -1 1 0.0011 -3.9289 34.0033)" class="st3" cx="15.056" cy="18.968" rx="0.596" ry="0.596"/>
	
		<ellipse id="XMLID_2878_" transform="matrix(0.0011 -1 1 0.0011 0.0984 45.4085)" class="st3" cx="22.779" cy="22.655" rx="0.596" ry="0.596"/>
	
		<ellipse id="XMLID_2876_" transform="matrix(0.0011 -1 1 0.0011 1.5434 38.3038)" class="st3" cx="19.945" cy="18.379" rx="0.596" ry="0.596"/>
	
		<ellipse id="XMLID_2874_" transform="matrix(0.0011 -1 1 0.0011 12.3793 26.3138)" class="st32" cx="19.361" cy="6.96" rx="0.596" ry="0.596"/>
	<path id="XMLID_2873_" class="st3" d="M13.406,8.336c0-0.416-0.369-0.787-0.785-0.787c0.416,0,0.787-0.369,0.787-0.785
		c0,0.416,0.369,0.787,0.785,0.787C13.777,7.551,13.407,7.92,13.406,8.336z"/>
	<path id="XMLID_2872_" class="st10" d="M20.628,13.446c0.001-0.675-0.598-1.275-1.273-1.276c0.675,0.001,1.275-0.598,1.276-1.273
		c-0.001,0.675,0.598,1.275,1.273,1.276C21.23,12.172,20.629,12.771,20.628,13.446z"/>
	<path id="XMLID_2871_" class="st10" d="M11.814,25.788c0.001-0.833-0.738-1.573-1.571-1.574c0.833,0.001,1.573-0.738,1.574-1.571
		c-0.001,0.833,0.738,1.573,1.571,1.574C12.556,24.216,11.815,24.956,11.814,25.788z"/>
</g>
</svg>
