<?xml version="1.0" encoding="utf-8"?>
<!-- Generator: Adobe Illustrator 21.1.0, SVG Export Plug-In . SVG Version: 6.00 Build 0)  -->
<svg version="1.1" id="Layer_1" xmlns="http://www.w3.org/2000/svg" xmlns:xlink="http://www.w3.org/1999/xlink" x="0px" y="0px"
	 viewBox="0 0 32 32" style="enable-background:new 0 0 32 32;" xml:space="preserve">
<style type="text/css">
	.st0{fill:#8F6D52;}
	.st1{fill:#7FB241;}
	.st2{fill:#A5856D;}
	.st3{fill:#FFFFFF;}
	.st4{fill:#7FB239;}
	.st5{fill:#45CBEA;}
	.st6{fill:#5A5F63;}
	.st7{fill:#8BC540;}
	.st8{fill:#E14B4B;}
	.st9{fill:#F3C432;}
	.st10{fill:#FFD83B;}
	.st11{fill:#DAE5EF;}
	.st12{fill:#E24B4B;}
	.st13{fill:#3E4347;}
	.st14{fill:#5B5F63;}
	.st15{fill:#6DAFDF;}
	.st16{fill:#9A795F;}
	.st17{fill:#997960;}
	.st18{fill:#FFD93B;}
	.st19{fill:#E2E2E1;}
	.st20{fill:#3F4347;}
	.st21{opacity:0.02;fill:#2F3133;}
	.st22{fill:#E9EFF4;}
	.st23{fill:#DEE4E9;}
	.st24{fill:#F4C534;}
	.st25{fill:#BBC7D1;}
	.st26{fill:#DDE3E9;}
	.st27{fill:#E8EBEE;}
	.st28{fill:#DDDDDC;}
	.st29{fill:#F4F4F4;}
	.st30{fill:#777B7E;}
	.st31{opacity:0.1;fill:#231F20;}
	.st32{fill:#E574AC;}
	.st33{fill:#428DC3;}
	.st34{fill:#4CC6E5;}
	.st35{fill:#E8EFF3;}
	.st36{fill:#8E6D53;}
	.st37{fill:#719C40;}
	.st38{fill:url(#XMLID_3_);}
	.st39{fill:#FFF100;}
	.st40{fill:#9FDCF8;}
	.st41{fill:#27B2CC;}
	.st42{fill:#CBD6E0;}
	.st43{fill:#BF3333;}
	.st44{fill:#D03F3F;}
	.st45{fill:#5CA3D9;}
	.st46{fill:#CE7629;}
	.st47{fill:#E18823;}
	.st48{fill:#A4856D;}
	.st49{fill:#7BA740;}
	.st50{fill:#F29A2E;}
	.st51{fill:#F2F2F2;}
	.st52{fill:#83B844;}
	.st53{fill:#8BC04C;}
	.st54{fill:#7A5B44;}
	.st55{fill:#8CC63E;}
	.st56{fill:#89664C;}
	.st57{fill:#65B1EF;}
	.st58{fill:#4D98D2;}
	.st59{fill:#BAC6D0;}
	.st60{fill:#7AA440;}
	.st61{fill:#ACB9C1;}
	.st62{fill:#E8AF2A;}
	.st63{fill:#D03F3E;}
	.st64{fill:#DF8726;}
	.st65{fill:#DF9D27;}
	.st66{fill:#D3D9DD;}
	.st67{fill:none;stroke:#FFFFFF;stroke-width:2.5;stroke-linecap:round;stroke-linejoin:round;stroke-miterlimit:10;}
	.st68{fill:#FCD91A;}
	.st69{opacity:0.05;fill:#3F4347;}
	.st70{fill:#5F6469;}
	.st71{fill:#64696E;}
	.st72{fill:#939799;}
	.st73{fill:#6F7378;}
	.st74{fill:#D2D8DD;}
	.st75{fill:#4E99D2;}
	.st76{fill:#7B8B92;}
	.st77{fill:#38C0DC;}
	.st78{opacity:0.2;}
	.st79{fill:#FDE7AA;}
	.st80{fill:#FFDC96;}
	.st81{fill:#64892F;}
	.st82{fill:#E9B02C;}
</style>
<g id="XMLID_792_">
	<g id="XMLID_789_">
		<rect id="XMLID_785_" x="0.914" y="26.168" class="st46" width="6.669" height="1.223"/>
		<rect id="XMLID_791_" x="0.914" y="29.699" class="st46" width="6.669" height="1.223"/>
	</g>
	<g id="XMLID_802_">
		<rect id="XMLID_806_" x="21.082" y="26.168" class="st47" width="10.278" height="1.223"/>
		<rect id="XMLID_803_" x="21.082" y="29.699" class="st47" width="10.278" height="1.223"/>
	</g>
	<g id="XMLID_744_">
		<path id="XMLID_783_" class="st48" d="M9.184,30.736c0.842-0.781,1.74-2.724,2.716-6.662c0.004-0.015,0.006-0.028,0.009-0.043
			c0.049-0.304,1.27-3.625-0.326-8.24c-0.16-0.464,0.424-0.817,0.755-0.454l0,0c0.277,0.304,0.783,0.108,0.783-0.303v-2.814
			c0-0.266,0.229-0.474,0.494-0.448l2.555,0.25c0.231,0.023,0.406,0.216,0.406,0.448v1.976c0,0.408,0.499,0.606,0.779,0.308
			l1.69-1.802c0.247-0.263,0.688-0.143,0.768,0.209l0.219,0.97c0.04,0.175-0.026,0.357-0.172,0.462
			c-1.005,0.718-4.255,3.956-2.8,11.528c0.004,0.022,0.009,0.042,0.016,0.063c0.097,0.288,0.423,2.572,2.375,4.421
			c0.259,0.245,0.151,0.677-0.195,0.764c-0.498,0.125-1.119,0.293-1.58,0.456c-1.339,0.474-3.151-0.657-3.759-1.078
			c-0.132-0.091-0.299-0.105-0.444-0.036c-0.687,0.326-2.689,1.222-3.469,1c-0.266-0.076-0.489-0.152-0.673-0.222
			C9.016,31.367,8.937,30.965,9.184,30.736z"/>
		<g id="XMLID_745_">
			<path id="XMLID_780_" class="st1" d="M18.34,12.318c0-0.96-0.779-1.739-1.739-1.739c-0.133,0-0.262,0.016-0.386,0.044
				c0.028-0.124,0.044-0.253,0.044-0.386c0-0.96-0.779-1.739-1.739-1.739c-0.461,0-0.879,0.181-1.191,0.474
				c-0.273-0.603-0.879-1.024-1.584-1.024c-0.383,0-0.736,0.125-1.024,0.336c-0.183-1.352-1.339-2.394-2.74-2.394
				c-1.529,0-2.768,1.239-2.768,2.768c0,0.303,0.05,0.594,0.14,0.867c-0.514,0.37-0.85,0.971-0.85,1.653
				c0,0.39,0.112,0.753,0.302,1.063c-0.492,0.307-0.821,0.852-0.821,1.475c0,0.039,0.003,0.078,0.006,0.117
				c-0.039-0.003-0.077-0.006-0.117-0.006c-0.96,0-1.739,0.779-1.739,1.739c0,0.452,0.174,0.862,0.456,1.171
				c-0.511,0.303-0.855,0.859-0.855,1.496c0,0.961,0.779,1.739,1.739,1.739c0.812,0,1.491-0.557,1.683-1.309
				c0.298,0.238,0.674,0.381,1.085,0.381c0.279,0,0.541-0.067,0.774-0.184c0.499,0.735,1.342,1.219,2.298,1.219
				c0.814,0,1.543-0.352,2.051-0.911c0.231,0.062,0.473,0.099,0.724,0.099c1.187,0,2.197-0.747,2.593-1.796
				c0.537-0.506,0.873-1.221,0.873-2.017c0-0.011-0.001-0.021-0.002-0.032c0.703-0.135,1.253-0.693,1.38-1.398
				C17.735,13.869,18.34,13.164,18.34,12.318z M8.73,11.344c-0.056,0.012-0.11,0.027-0.164,0.042c0.001-0.008,0-0.016,0.001-0.023
				c0.058-0.013,0.116-0.028,0.172-0.044C8.736,11.327,8.733,11.336,8.73,11.344z"/>
			<path id="XMLID_765_" class="st7" d="M21.117,5.403c0.169-0.236,0.27-0.524,0.27-0.837c0-0.794-0.644-1.438-1.438-1.438
				c-0.166,0-0.325,0.03-0.474,0.081c-0.205-0.543-0.67-0.956-1.244-1.088c-0.025-1.164-0.975-2.101-2.145-2.101
				c-0.937,0-1.731,0.601-2.025,1.437C13.703,1.113,13.218,0.9,12.682,0.9c-1.099,0-1.99,0.891-1.99,1.99c0,0.003,0,0.007,0,0.01
				c-0.067-0.005-0.134-0.01-0.202-0.01c-1.386,0-2.509,1.123-2.509,2.509c0,1.376,1.109,2.493,2.482,2.508
				c0.272,1.038,1.214,1.805,2.338,1.805c0.801,0,1.51-0.391,1.95-0.991c0.25,0.907,1.079,1.575,2.066,1.575
				c1.185,0,2.145-0.96,2.145-2.145c0-0.007-0.001-0.013-0.001-0.02c0.19,0.093,0.403,0.146,0.628,0.146
				c0.262,0,0.507-0.071,0.719-0.194c0.212,0.123,0.457,0.194,0.719,0.194c0.794,0,1.438-0.644,1.438-1.438
				C22.466,6.073,21.87,5.45,21.117,5.403z"/>
			<path id="XMLID_750_" class="st7" d="M17.026,17.252c0.242-1.331-0.641-2.606-1.972-2.848c-0.321-0.058-0.639-0.05-0.94,0.013
				c-0.26-0.165-0.554-0.285-0.876-0.343c-1.282-0.233-2.51,0.58-2.814,1.83c-0.683,0.197-1.232,0.763-1.368,1.509
				c-0.011-0.002-0.022-0.002-0.032-0.004c0.001-0.916-0.652-1.73-1.585-1.899c-0.962-0.175-1.885,0.396-2.179,1.301
				c-0.115-0.052-0.237-0.092-0.367-0.115c-0.868-0.158-1.7,0.418-1.858,1.287c-0.138,0.757,0.283,1.486,0.968,1.765
				c0.02,0.74,0.555,1.389,1.312,1.527C6.063,21.411,6.784,21,7.07,20.328c0.278,0.449,0.736,0.785,1.296,0.886
				c0.603,0.11,1.191-0.075,1.619-0.45c0.239,0.375,0.627,0.654,1.099,0.74c0.554,0.101,1.093-0.087,1.464-0.456
				c0.326,0.292,0.731,0.502,1.193,0.586c1.331,0.242,2.606-0.641,2.848-1.972c0.08-0.439,0.035-0.872-0.106-1.264
				C16.752,18.081,16.946,17.692,17.026,17.252z"/>
			<path id="XMLID_746_" class="st49" d="M26.296,17.368c0.138-0.314,0.196-0.667,0.148-1.031c-0.081-0.608-0.437-1.11-0.925-1.403
				c0.239-0.395,0.35-0.871,0.285-1.364c-0.095-0.715-0.54-1.298-1.139-1.601c0.227-0.358,0.334-0.793,0.274-1.246
				c-0.117-0.879-0.828-1.532-1.675-1.612c0.13-0.282,0.186-0.601,0.142-0.932c-0.124-0.927-0.975-1.578-1.902-1.455
				c-0.499,0.067-0.917,0.345-1.178,0.732c-0.331-0.123-0.696-0.169-1.071-0.119c-0.678,0.09-1.244,0.477-1.587,1.011
				c-0.546-0.364-1.219-0.542-1.921-0.448c-1.531,0.204-2.607,1.611-2.403,3.143c0.148,1.111,0.93,1.979,1.932,2.296
				c-0.196,0.302-0.291,0.672-0.239,1.057c0.003,0.023,0.009,0.045,0.013,0.068c-0.681,0.3-1.113,1.022-1.01,1.797
				c0.093,0.701,0.597,1.245,1.237,1.425c-0.233,0.44-0.338,0.954-0.267,1.485c0.181,1.358,1.429,2.311,2.786,2.13
				c0.328-0.044,0.632-0.152,0.902-0.307c0.297,0.333,0.737,0.528,1.208,0.503c0.352,0.269,0.805,0.405,1.278,0.342
				c0.647-0.086,1.161-0.519,1.383-1.087c0.237,0.098,0.502,0.138,0.775,0.102c0.262-0.035,0.499-0.136,0.698-0.282
				c0.379,0.247,0.845,0.366,1.329,0.302c1.074-0.143,1.828-1.129,1.685-2.203C26.981,18.131,26.697,17.673,26.296,17.368z
				 M21.219,11.047c0,0.011,0.002,0.022,0.003,0.033c-0.005-0.006-0.01-0.012-0.015-0.018
				C21.211,11.056,21.215,11.051,21.219,11.047z"/>
		</g>
	</g>
	<polygon id="XMLID_784_" class="st50" points="1.827,31.979 0,31.979 0,24.75 0.914,23.786 1.827,24.75 	"/>
	<polygon id="XMLID_788_" class="st50" points="5.162,31.979 3.335,31.979 3.335,24.75 4.248,23.786 5.162,24.75 	"/>
	<polygon id="XMLID_807_" class="st50" points="8.496,31.979 6.669,31.979 6.669,24.75 7.583,23.786 8.496,24.75 	"/>
	<polygon id="XMLID_794_" class="st50" points="21.996,31.979 20.169,31.979 20.169,24.75 21.082,23.786 21.996,24.75 	"/>
	<polygon id="XMLID_795_" class="st50" points="25.331,31.979 23.504,31.979 23.504,24.75 24.417,23.786 25.331,24.75 	"/>
	<polygon id="XMLID_799_" class="st50" points="28.665,31.979 26.838,31.979 26.838,24.75 27.752,23.786 28.665,24.75 	"/>
	<polygon id="XMLID_800_" class="st50" points="32,31.979 30.173,31.979 30.173,24.75 31.086,23.786 32,24.75 	"/>
</g>
</svg>
