<?xml version="1.0" encoding="utf-8"?>
<!-- Generator: Adobe Illustrator 21.1.0, SVG Export Plug-In . SVG Version: 6.00 Build 0)  -->
<svg version="1.1" id="Layer_1" xmlns="http://www.w3.org/2000/svg" xmlns:xlink="http://www.w3.org/1999/xlink" x="0px" y="0px"
	 viewBox="0 0 32 32" style="enable-background:new 0 0 32 32;" xml:space="preserve">
<style type="text/css">
	.st0{fill:#8F6D52;}
	.st1{fill:#7FB241;}
	.st2{fill:#A5856D;}
	.st3{fill:#FFFFFF;}
	.st4{fill:#7FB239;}
	.st5{fill:#45CBEA;}
	.st6{fill:#5A5F63;}
	.st7{fill:#8BC540;}
	.st8{fill:#E14B4B;}
	.st9{fill:#F3C432;}
	.st10{fill:#FFD83B;}
	.st11{fill:#DAE5EF;}
	.st12{fill:#E24B4B;}
	.st13{fill:#3E4347;}
	.st14{fill:#5B5F63;}
	.st15{fill:#6DAFDF;}
	.st16{fill:#9A795F;}
	.st17{fill:#997960;}
	.st18{fill:#FFD93B;}
	.st19{fill:#E2E2E1;}
	.st20{fill:#3F4347;}
	.st21{opacity:0.02;fill:#2F3133;}
	.st22{fill:#E9EFF4;}
	.st23{fill:#DEE4E9;}
	.st24{fill:#F4C534;}
	.st25{fill:#BBC7D1;}
	.st26{fill:#DDE3E9;}
	.st27{fill:#E8EBEE;}
	.st28{fill:#DDDDDC;}
	.st29{fill:#F4F4F4;}
	.st30{fill:#777B7E;}
	.st31{opacity:0.1;fill:#231F20;}
	.st32{fill:#E574AC;}
	.st33{fill:#428DC3;}
	.st34{fill:#4CC6E5;}
	.st35{fill:#E8EFF3;}
	.st36{fill:#8E6D53;}
	.st37{fill:#719C40;}
	.st38{fill:url(#XMLID_3_);}
	.st39{fill:#FFF100;}
	.st40{fill:#9FDCF8;}
	.st41{fill:#27B2CC;}
	.st42{fill:#CBD6E0;}
	.st43{fill:#BF3333;}
	.st44{fill:#D03F3F;}
	.st45{fill:#5CA3D9;}
	.st46{fill:#CE7629;}
	.st47{fill:#E18823;}
	.st48{fill:#A4856D;}
	.st49{fill:#7BA740;}
	.st50{fill:#F29A2E;}
	.st51{fill:#F2F2F2;}
	.st52{fill:#83B844;}
	.st53{fill:#8BC04C;}
	.st54{fill:#7A5B44;}
	.st55{fill:#8CC63E;}
	.st56{fill:#89664C;}
	.st57{fill:#65B1EF;}
	.st58{fill:#4D98D2;}
	.st59{fill:#BAC6D0;}
	.st60{fill:#7AA440;}
	.st61{fill:#ACB9C1;}
	.st62{fill:#E8AF2A;}
	.st63{fill:#D03F3E;}
	.st64{fill:#DF8726;}
	.st65{fill:#DF9D27;}
	.st66{fill:#D3D9DD;}
	.st67{fill:none;stroke:#FFFFFF;stroke-width:2.5;stroke-linecap:round;stroke-linejoin:round;stroke-miterlimit:10;}
	.st68{fill:#FCD91A;}
	.st69{opacity:0.05;fill:#3F4347;}
	.st70{fill:#5F6469;}
	.st71{fill:#64696E;}
	.st72{fill:#939799;}
	.st73{fill:#6F7378;}
	.st74{fill:#D2D8DD;}
	.st75{fill:#4E99D2;}
	.st76{fill:#7B8B92;}
	.st77{fill:#38C0DC;}
	.st78{opacity:0.2;}
	.st79{fill:#FDE7AA;}
	.st80{fill:#FFDC96;}
	.st81{fill:#64892F;}
	.st82{fill:#E9B02C;}
</style>
<g id="XMLID_2474_">
	<path id="XMLID_2469_" class="st62" d="M18.164,28.318c1.337-0.211,2.745-0.331,4.205-0.331c3.652,0,7.002,0.709,9.629,1.889
		v-7.994c-2.056-0.618-4.326-0.969-6.719-0.969c-4.798,0-9.108,1.388-12.138,3.594C15.195,25.45,16.919,26.758,18.164,28.318z"/>
	<path id="XMLID_2468_" class="st9" d="M18.16,25.456c-4.14,0.66-7.55,2.25-9.44,4.35c-0.03,0.02-0.04,0.05-0.06,0.07H0v-9.01
		c1.71-0.53,3.58-0.83,5.55-0.83c2.78,0,5.37,0.6,7.59,1.62C15.19,22.596,16.92,23.896,18.16,25.456z"/>
	<g id="XMLID_2464_">
		<g id="XMLID_2466_">
			<polygon id="XMLID_2473_" class="st7" points="9.08,9.312 2.79,22.644 15.37,22.644 			"/>
			<polygon id="XMLID_2472_" class="st1" points="9.08,7.015 3.778,18.252 14.382,18.252 			"/>
			<polygon id="XMLID_2471_" class="st7" points="9.08,4.718 4.767,13.859 13.393,13.859 			"/>
		</g>
		<rect id="XMLID_2465_" x="7.751" y="22.644" class="st48" width="2.658" height="4.549"/>
	</g>
	<g id="XMLID_2483_">
		<g id="XMLID_2485_">
			<polygon id="XMLID_2488_" class="st7" points="23.891,12.346 18.802,23.131 28.979,23.131 			"/>
			<polygon id="XMLID_2487_" class="st1" points="23.891,10.488 19.602,19.578 28.18,19.578 			"/>
			<polygon id="XMLID_2486_" class="st7" points="23.891,8.629 20.401,16.024 27.38,16.024 			"/>
		</g>
		<rect id="XMLID_2484_" x="22.816" y="23.131" class="st48" width="2.15" height="4.062"/>
	</g>
	<g>
		<path id="XMLID_2470_" class="st10" d="M32,29.389c-3.633-2.591-9.438-4.278-16.001-4.278c-6.562,0-12.366,1.686-15.999,4.277
			v1.064h32V29.389z"/>
	</g>
	<g id="XMLID_2463_">
		<circle id="XMLID_2476_" class="st10" cx="16" cy="5.222" r="3.674"/>
	</g>
</g>
</svg>
