<?xml version="1.0" encoding="utf-8"?>
<!-- Generator: Adobe Illustrator 21.1.0, SVG Export Plug-In . SVG Version: 6.00 Build 0)  -->
<svg version="1.1" id="Layer_1" xmlns="http://www.w3.org/2000/svg" xmlns:xlink="http://www.w3.org/1999/xlink" x="0px" y="0px"
	 viewBox="0 0 32 32" style="enable-background:new 0 0 32 32;" xml:space="preserve">
<style type="text/css">
	.st0{fill:#8F6D52;}
	.st1{fill:#7FB241;}
	.st2{fill:#A5856D;}
	.st3{fill:#FFFFFF;}
	.st4{fill:#7FB239;}
	.st5{fill:#45CBEA;}
	.st6{fill:#5A5F63;}
	.st7{fill:#8BC540;}
	.st8{fill:#E14B4B;}
	.st9{fill:#F3C432;}
	.st10{fill:#FFD83B;}
	.st11{fill:#DAE5EF;}
	.st12{fill:#E24B4B;}
	.st13{fill:#3E4347;}
	.st14{fill:#5B5F63;}
	.st15{fill:#6DAFDF;}
	.st16{fill:#9A795F;}
	.st17{fill:#997960;}
	.st18{fill:#FFD93B;}
	.st19{fill:#E2E2E1;}
	.st20{fill:#3F4347;}
	.st21{opacity:0.02;fill:#2F3133;}
	.st22{fill:#E9EFF4;}
	.st23{fill:#DEE4E9;}
	.st24{fill:#F4C534;}
	.st25{fill:#BBC7D1;}
	.st26{fill:#DDE3E9;}
	.st27{fill:#E8EBEE;}
	.st28{fill:#DDDDDC;}
	.st29{fill:#F4F4F4;}
	.st30{fill:#777B7E;}
	.st31{opacity:0.1;fill:#231F20;}
	.st32{fill:#E574AC;}
	.st33{fill:#428DC3;}
	.st34{fill:#4CC6E5;}
	.st35{fill:#E8EFF3;}
	.st36{fill:#8E6D53;}
	.st37{fill:#719C40;}
	.st38{fill:url(#XMLID_3_);}
	.st39{fill:#FFF100;}
	.st40{fill:#9FDCF8;}
	.st41{fill:#27B2CC;}
	.st42{fill:#CBD6E0;}
	.st43{fill:#BF3333;}
	.st44{fill:#D03F3F;}
	.st45{fill:#5CA3D9;}
	.st46{fill:#CE7629;}
	.st47{fill:#E18823;}
	.st48{fill:#A4856D;}
	.st49{fill:#7BA740;}
	.st50{fill:#F29A2E;}
	.st51{fill:#F2F2F2;}
	.st52{fill:#83B844;}
	.st53{fill:#8BC04C;}
	.st54{fill:#7A5B44;}
	.st55{fill:#8CC63E;}
	.st56{fill:#89664C;}
	.st57{fill:#65B1EF;}
	.st58{fill:#4D98D2;}
	.st59{fill:#BAC6D0;}
	.st60{fill:#7AA440;}
	.st61{fill:#ACB9C1;}
	.st62{fill:#E8AF2A;}
	.st63{fill:#D03F3E;}
	.st64{fill:#DF8726;}
	.st65{fill:#DF9D27;}
	.st66{fill:#D3D9DD;}
	.st67{fill:none;stroke:#FFFFFF;stroke-width:2.5;stroke-linecap:round;stroke-linejoin:round;stroke-miterlimit:10;}
	.st68{fill:#FCD91A;}
	.st69{opacity:0.05;fill:#3F4347;}
	.st70{fill:#5F6469;}
	.st71{fill:#64696E;}
	.st72{fill:#939799;}
	.st73{fill:#6F7378;}
	.st74{fill:#D2D8DD;}
	.st75{fill:#4E99D2;}
	.st76{fill:#7B8B92;}
	.st77{fill:#38C0DC;}
	.st78{opacity:0.2;}
	.st79{fill:#FDE7AA;}
	.st80{fill:#FFDC96;}
	.st81{fill:#64892F;}
	.st82{fill:#E9B02C;}
</style>
<g id="XMLID_2541_">
	<g id="XMLID_2558_">
		<g id="XMLID_2845_">
			<circle id="XMLID_2846_" class="st10" cx="23.68" cy="8.193" r="5.283"/>
		</g>
		<g id="XMLID_2622_">
			<g id="XMLID_2840_">
				<path id="XMLID_2844_" class="st10" d="M23.68,2.206c-0.276,0-0.5-0.224-0.5-0.5V0.501c0-0.276,0.224-0.5,0.5-0.5
					s0.5,0.224,0.5,0.5v1.205C24.18,1.982,23.956,2.206,23.68,2.206z"/>
			</g>
			<g id="XMLID_2836_">
				<path id="XMLID_2839_" class="st10" d="M23.68,16.385c-0.276,0-0.5-0.224-0.5-0.5v-1.204c0-0.276,0.224-0.5,0.5-0.5
					s0.5,0.224,0.5,0.5v1.204C24.18,16.161,23.956,16.385,23.68,16.385z"/>
			</g>
		</g>
		<g id="XMLID_2615_">
			<g id="XMLID_2620_">
				<path id="XMLID_2621_" class="st10" d="M27.914,3.959c-0.195-0.195-0.195-0.512,0-0.707L28.766,2.4
					c0.195-0.195,0.512-0.195,0.707,0s0.195,0.512,0,0.707l-0.852,0.852C28.426,4.154,28.11,4.154,27.914,3.959z"/>
			</g>
			<g id="XMLID_2616_">
				<path id="XMLID_2617_" class="st10" d="M17.888,13.985c-0.195-0.195-0.195-0.512,0-0.707l0.852-0.852
					c0.195-0.195,0.512-0.195,0.707,0s0.195,0.512,0,0.707l-0.852,0.852C18.4,14.181,18.083,14.181,17.888,13.985z"/>
			</g>
		</g>
		<g id="XMLID_2568_">
			<g id="XMLID_2613_">
				<path id="XMLID_2614_" class="st10" d="M31.372,8.693h-1.204c-0.276,0-0.5-0.224-0.5-0.5c0-0.276,0.224-0.5,0.5-0.5h1.204
					c0.276,0,0.5,0.224,0.5,0.5C31.872,8.47,31.649,8.693,31.372,8.693z"/>
			</g>
			<g id="XMLID_2569_">
				<path id="XMLID_2612_" class="st10" d="M17.193,8.693h-1.204c-0.276,0-0.5-0.224-0.5-0.5c0-0.276,0.224-0.5,0.5-0.5h1.204
					c0.276,0,0.5,0.224,0.5,0.5C17.693,8.47,17.469,8.693,17.193,8.693z"/>
			</g>
		</g>
		<g id="XMLID_2559_">
			<g id="XMLID_2562_">
				<path id="XMLID_2567_" class="st10" d="M28.766,13.985l-0.852-0.852c-0.195-0.195-0.195-0.512,0-0.707s0.512-0.195,0.707,0
					l0.852,0.852c0.195,0.195,0.195,0.512,0,0.707C29.278,14.181,28.961,14.181,28.766,13.985z"/>
			</g>
			<g id="XMLID_2560_">
				<path id="XMLID_2561_" class="st10" d="M18.74,3.959l-0.852-0.852c-0.195-0.195-0.195-0.512,0-0.707s0.512-0.195,0.707,0
					l0.852,0.852c0.195,0.195,0.195,0.512,0,0.707C19.251,4.154,18.935,4.154,18.74,3.959z"/>
			</g>
		</g>
	</g>
	<g id="XMLID_2538_">
		<path id="XMLID_2565_" class="st7" d="M15.489,22.113c0,0,1.803,1.112,3.184,1.645c0,0,2.844,1.208,1.546,2.922
			c0,0-0.25,0.42-0.763,0.793c-1.362,0.992-3.346,0.273-3.74-1.365c-0.081-0.338-0.094-0.716,0.009-1.129
			C16.186,23.12,15.489,22.113,15.489,22.113z"/>
		<path id="XMLID_2564_" class="st54" d="M20.891,31.61c0,0-0.543-1.777-1.199-3.366c-0.461-1.069-1.037-2.149-1.387-2.689
			c-1.069-1.725-1.816-2.486-2.816-3.443c1.039,0.903,1.831,1.633,2.997,3.326c0.383,0.533,1.016,1.596,1.535,2.654
			c0.471,1,0.918,1.989,1.301,3.271L20.891,31.61z"/>
	</g>
	<g id="XMLID_2539_">
		<path id="XMLID_2566_" class="st7" d="M20.596,24.748c0,0-0.788-2.376,2.725-4.064c0,0,3.876-1.426,3.98-2.067
			c0,0-0.565,2.208-0.438,4.639c0,0-0.19,3.942-3.158,3.582C20.737,26.478,20.596,24.748,20.596,24.748z"/>
		<path id="XMLID_2563_" class="st54" d="M22.441,24.917c-0.322,0.574-1.003,2.043-1.367,3.071c-0.677,1.773-0.917,2.82-0.073,3.82
			c0.181-0.036,0.363-0.073,0.544-0.109c-0.844-1-0.579-1.993-0.049-3.566c0.318-1.027,0.931-2.498,1.225-3.075
			c1.443-2.952,2.731-4.51,4.601-6.336C25.627,20.251,24.151,21.742,22.441,24.917z"/>
	</g>
	<path id="XMLID_2439_" class="st55" d="M6.392,26.271L6.392,26.271C2.876,26.271,0,23.395,0,19.879V6.392C0,2.876,2.876,0,6.392,0
		h0c3.515,0,6.392,2.876,6.392,6.392v13.488C12.783,23.395,9.907,26.271,6.392,26.271z"/>
	<g>
		<polygon id="XMLID_2549_" class="st54" points="10.103,20.11 7.08,22.685 6.956,19.557 9.583,16.39 6.918,18.601 6.796,15.506 
			9.062,12.671 6.757,14.514 6.636,11.47 6.705,11.38 8.541,8.952 6.595,10.424 6.44,6.489 6.282,10.469 4.276,8.952 6.113,11.38 
			6.24,11.547 6.121,14.561 3.756,12.671 6.08,15.579 5.959,18.65 3.235,16.39 5.92,19.628 5.797,22.736 2.715,20.11 5.76,23.686 
			5.44,31.792 7.439,31.792 7.116,23.617 		"/>
	</g>
	<g>
		<rect id="XMLID_2440_" x="0" y="29.815" class="st7" width="32" height="2.185"/>
	</g>
</g>
</svg>
