<?xml version="1.0" encoding="utf-8"?>
<!-- Generator: Adobe Illustrator 21.1.0, SVG Export Plug-In . SVG Version: 6.00 Build 0)  -->
<svg version="1.1" id="Layer_1" xmlns="http://www.w3.org/2000/svg" xmlns:xlink="http://www.w3.org/1999/xlink" x="0px" y="0px"
	 viewBox="0 0 32 32" style="enable-background:new 0 0 32 32;" xml:space="preserve">
<style type="text/css">
	.st0{fill:#8F6D52;}
	.st1{fill:#7FB241;}
	.st2{fill:#A5856D;}
	.st3{fill:#FFFFFF;}
	.st4{fill:#7FB239;}
	.st5{fill:#45CBEA;}
	.st6{fill:#5A5F63;}
	.st7{fill:#8BC540;}
	.st8{fill:#E14B4B;}
	.st9{fill:#F3C432;}
	.st10{fill:#FFD83B;}
	.st11{fill:#DAE5EF;}
	.st12{fill:#E24B4B;}
	.st13{fill:#3E4347;}
	.st14{fill:#5B5F63;}
	.st15{fill:#6DAFDF;}
	.st16{fill:#9A795F;}
	.st17{fill:#997960;}
	.st18{fill:#FFD93B;}
	.st19{fill:#E2E2E1;}
	.st20{fill:#3F4347;}
	.st21{opacity:0.02;fill:#2F3133;}
	.st22{fill:#E9EFF4;}
	.st23{fill:#DEE4E9;}
	.st24{fill:#F4C534;}
	.st25{fill:#BBC7D1;}
	.st26{fill:#DDE3E9;}
	.st27{fill:#E8EBEE;}
	.st28{fill:#DDDDDC;}
	.st29{fill:#F4F4F4;}
	.st30{fill:#777B7E;}
	.st31{opacity:0.1;fill:#231F20;}
	.st32{fill:#E574AC;}
	.st33{fill:#428DC3;}
	.st34{fill:#4CC6E5;}
	.st35{fill:#E8EFF3;}
	.st36{fill:#8E6D53;}
	.st37{fill:#719C40;}
	.st38{fill:url(#XMLID_3_);}
	.st39{fill:#FFF100;}
	.st40{fill:#9FDCF8;}
	.st41{fill:#27B2CC;}
	.st42{fill:#CBD6E0;}
	.st43{fill:#BF3333;}
	.st44{fill:#D03F3F;}
	.st45{fill:#5CA3D9;}
	.st46{fill:#CE7629;}
	.st47{fill:#E18823;}
	.st48{fill:#A4856D;}
	.st49{fill:#7BA740;}
	.st50{fill:#F29A2E;}
	.st51{fill:#F2F2F2;}
	.st52{fill:#83B844;}
	.st53{fill:#8BC04C;}
	.st54{fill:#7A5B44;}
	.st55{fill:#8CC63E;}
	.st56{fill:#89664C;}
	.st57{fill:#65B1EF;}
	.st58{fill:#4D98D2;}
	.st59{fill:#BAC6D0;}
	.st60{fill:#7AA440;}
	.st61{fill:#ACB9C1;}
	.st62{fill:#E8AF2A;}
	.st63{fill:#D03F3E;}
	.st64{fill:#DF8726;}
	.st65{fill:#DF9D27;}
	.st66{fill:#D3D9DD;}
	.st67{fill:none;stroke:#FFFFFF;stroke-width:2.5;stroke-linecap:round;stroke-linejoin:round;stroke-miterlimit:10;}
	.st68{fill:#FCD91A;}
	.st69{opacity:0.05;fill:#3F4347;}
	.st70{fill:#5F6469;}
	.st71{fill:#64696E;}
	.st72{fill:#939799;}
	.st73{fill:#6F7378;}
	.st74{fill:#D2D8DD;}
	.st75{fill:#4E99D2;}
	.st76{fill:#7B8B92;}
	.st77{fill:#38C0DC;}
	.st78{opacity:0.2;}
	.st79{fill:#FDE7AA;}
	.st80{fill:#FFDC96;}
	.st81{fill:#64892F;}
	.st82{fill:#E9B02C;}
</style>
<g id="XMLID_4541_">
	<g id="XMLID_3777_">
		<g>
			<g>
				<rect id="XMLID_652_" x="16.35" y="24.106" class="st17" width="1.929" height="6.259"/>
			</g>
			<g>
				<g>
					<path id="XMLID_651_" class="st1" d="M21.952,21.795c0,2.561-2.076,4.638-4.638,4.638s-4.638-2.076-4.638-4.638
						s2.076-13.013,4.638-13.013S21.952,19.233,21.952,21.795z"/>
				</g>
			</g>
		</g>
		<g>
			<g>
				<rect id="XMLID_3776_" x="23.338" y="22.948" class="st17" width="2.286" height="7.417"/>
			</g>
			<g>
				<g>
					<path id="XMLID_3767_" class="st7" d="M29.977,20.38c0,3.035-2.46,5.495-5.495,5.495s-5.495-2.46-5.495-5.495
						s2.46-15.42,5.495-15.42S29.977,17.345,29.977,20.38z"/>
					<path id="XMLID_3784_" class="st1" d="M24.481,4.96c-0.054,0-0.107,0.013-0.16,0.02c1.91,4.242,3.211,11.496,3.211,13.812
						c0,3.343-2.71,6.053-6.053,6.053c-0.07,0-0.138-0.008-0.208-0.011c0.904,0.652,2.01,1.041,3.209,1.041
						c3.035,0,5.495-2.46,5.495-5.496S27.516,4.96,24.481,4.96z"/>
				</g>
			</g>
		</g>
		<g>
			<rect id="XMLID_3775_" y="29.445" class="st1" width="32" height="2.555"/>
		</g>
		<g>
			<path id="XMLID_3791_" class="st39" d="M11.789,0c0.245,0.846,0.384,1.736,0.384,2.661c0,5.27-4.273,9.543-9.543,9.543
				c-0.913,0-1.793-0.136-2.63-0.375v3.941c0.851,0.17,1.729,0.262,2.63,0.262c7.384,0,13.37-5.986,13.37-13.37
				C16,1.75,15.907,0.86,15.733,0H11.789z"/>
			<path id="XMLID_3796_" class="st68" d="M8.345,2.661c0,3.157-2.559,5.716-5.716,5.716c-0.954,0-1.839-0.256-2.63-0.669v4.121
				c0.836,0.24,1.716,0.375,2.63,0.375c5.27,0,9.543-4.273,9.543-9.543c0-0.925-0.138-1.816-0.384-2.661h-4.13
				C8.083,0.798,8.345,1.695,8.345,2.661z"/>
			<path id="XMLID_3798_" class="st9" d="M0,7.708c0.791,0.413,1.676,0.669,2.63,0.669c3.157,0,5.716-2.559,5.716-5.716
				c0-0.966-0.263-1.863-0.686-2.661H0V7.708z"/>
		</g>
	</g>
</g>
</svg>
