<?xml version="1.0" encoding="utf-8"?>
<!-- Generator: Adobe Illustrator 21.1.0, SVG Export Plug-In . SVG Version: 6.00 Build 0)  -->
<svg version="1.1" id="Layer_1" xmlns="http://www.w3.org/2000/svg" xmlns:xlink="http://www.w3.org/1999/xlink" x="0px" y="0px"
	 viewBox="0 0 32 32" style="enable-background:new 0 0 32 32;" xml:space="preserve">
<style type="text/css">
	.st0{fill:#FFD83B;}
	.st1{fill:#F2F2F2;}
	.st2{fill:#F3C432;}
	.st3{fill:#DEE4E9;}
	.st4{fill:#E9EFF4;}
	.st5{fill:#6DAFDF;}
	.st6{fill:#5CA3D9;}
	.st7{fill:#4D98D2;}
	.st8{fill:#E8EFF3;}
	.st9{fill:#DDE3E9;}
	.st10{fill:#4CC6E5;}
	.st11{opacity:0.05;fill:#2F3133;}
	.st12{fill:#E14B4B;}
	.st13{fill:#D3D9DD;}
	.st14{fill:#65B1EF;}
	.st15{fill:#8CC63E;}
	.st16{fill:#E84D88;}
	.st17{fill:#A4856D;}
	.st18{fill:#8BC540;}
	.st19{fill:#7FB241;}
	.st20{fill:#8E6D53;}
	.st21{fill:#FFFFFF;}
	.st22{fill:#9A795F;}
	.st23{fill:#E24B4B;}
	.st24{fill:#F2992D;}
	.st25{fill:#DF8726;}
	.st26{fill:#997960;}
	.st27{fill:#FFD93B;}
	.st28{fill:#E8AF2A;}
	.st29{fill:#D23F77;}
	.st30{fill:#D03F3F;}
	.st31{fill:#BF3332;}
	.st32{fill:#D03F3E;}
	.st33{fill:#BF3333;}
	.st34{fill:#F4C534;}
	.st35{fill:#8F6D52;}
	.st36{fill:#E9B02C;}
	.st37{fill:#5A5F63;}
	.st38{fill:#F4F4F4;}
	.st39{fill:#E74C87;}
	.st40{fill:#D24078;}
	.st41{fill:#5B5F63;}
	.st42{fill:#3F4347;}
	.st43{fill:#719C40;}
	.st44{fill:#7B5C45;}
	.st45{fill:#BB3166;}
	.st46{fill:#89664C;}
	.st47{fill:#77589F;}
	.st48{fill:#8066AA;}
	.st49{fill:#8D7FB6;}
	.st50{fill:#88BA40;}
	.st51{fill:#FDE7AA;}
	.st52{fill:#7FB239;}
	.st53{fill:#45CBEA;}
	.st54{fill:#ACB9C1;}
	.st55{fill:#DAE5EF;}
	.st56{fill:#7CA740;}
	.st57{fill:#88BF40;}
	.st58{fill:#85BB40;}
	.st59{fill:#FFF100;}
	.st60{fill:#FFDD00;}
	.st61{fill:#F29A2E;}
	.st62{fill:#3E4347;}
	.st63{fill:#59A5E0;}
	.st64{fill:#2F3133;}
	.st65{fill:#EDEDEF;}
	.st66{fill:#4E99D2;}
	.st67{fill:#A5856D;}
</style>
<g id="XMLID_1169_">
	<g id="XMLID_1187_">
		<path id="XMLID_1190_" class="st4" d="M11.404,21.223c-0.031,0-0.061,0.004-0.091,0.005c-0.64-1.645-2.236-2.813-4.108-2.813
			c-1.872,0-3.467,1.168-4.108,2.813c-0.031-0.001-0.06-0.005-0.091-0.005C1.346,21.223,0,22.569,0,24.229s1.346,3.006,3.006,3.006
			c0.712,0,1.366-0.249,1.881-0.663c1.426,0.884,3.208,0.885,4.635,0c0.515,0.414,1.169,0.663,1.881,0.663
			c1.66,0,3.006-1.346,3.006-3.006S13.064,21.223,11.404,21.223z"/>
		<path id="XMLID_1173_" class="st4" d="M28.994,15.456c-0.031,0-0.061,0.004-0.091,0.005c-0.64-1.645-2.236-2.813-4.108-2.813
			c-1.872,0-3.467,1.168-4.108,2.813c-0.031-0.001-0.06-0.005-0.091-0.005c-1.66,0-3.006,1.346-3.006,3.006
			c0,1.66,1.346,3.006,3.006,3.006c0.712,0,1.366-0.249,1.881-0.663c1.426,0.884,3.208,0.885,4.635,0
			c0.515,0.414,1.169,0.663,1.881,0.663c1.66,0,3.006-1.346,3.006-3.006C32,16.802,30.654,15.456,28.994,15.456z"/>
	</g>
	<path id="XMLID_1220_" class="st5" d="M16.005,4.764c-8.03,0-14.54,6.51-14.54,14.53c0,0.77,0.06,1.52,0.18,2.26
		c0.41-0.21,0.87-0.33,1.36-0.33h0.09c0.16-0.41,0.38-0.78,0.64-1.12c0.56-0.71,1.33-1.25,2.22-1.51c0.4-0.12,0.82-0.18,1.25-0.18
		c0.35,0,0.68,0.04,1.01,0.12c0.38-3.96,3.72-7.06,7.79-7.06c2.24,0,4.26,0.94,5.69,2.45c0.54-0.54,1.22-0.94,1.98-1.13
		c0.36-0.1,0.73-0.15,1.12-0.15c0.64,0,1.24,0.13,1.78,0.38c1.06,0.47,1.91,1.35,2.33,2.44c0.03,0,0.06-0.01,0.09-0.01
		c0.38,0,0.75,0.07,1.08,0.21C28.465,9.394,22.775,4.764,16.005,4.764z"/>
	<path id="XMLID_1214_" class="st0" d="M16.005,7.004c-6.8,0-12.3,5.5-12.3,12.29c0,0.27,0.01,0.54,0.03,0.81
		c0.56-0.71,1.33-1.25,2.22-1.51c0.4-0.12,0.82-0.18,1.25-0.18c0.35,0,0.68,0.04,1.01,0.12c0.38-3.96,3.72-7.06,7.79-7.06
		c2.24,0,4.26,0.94,5.69,2.45c0.54-0.54,1.22-0.94,1.98-1.13c0.36-0.1,0.73-0.15,1.12-0.15c0.64,0,1.24,0.13,1.78,0.38
		C24.435,9.424,20.505,7.004,16.005,7.004z"/>
	<path id="XMLID_1208_" class="st12" d="M16.005,9.234c-5.32,0-9.69,4.14-10.05,9.36c0.4-0.12,0.82-0.18,1.25-0.18
		c0.35,0,0.68,0.04,1.01,0.12c0.38-3.96,3.72-7.06,7.79-7.06c2.24,0,4.26,0.94,5.69,2.45c0.54-0.54,1.22-0.94,1.98-1.13
		C21.835,10.614,19.075,9.234,16.005,9.234z"/>
</g>
</svg>
