<?xml version="1.0" encoding="utf-8"?>
<!-- Generator: Adobe Illustrator 21.1.0, SVG Export Plug-In . SVG Version: 6.00 Build 0)  -->
<svg version="1.1" id="Layer_1" xmlns="http://www.w3.org/2000/svg" xmlns:xlink="http://www.w3.org/1999/xlink" x="0px" y="0px"
	 viewBox="0 0 32 32" style="enable-background:new 0 0 32 32;" xml:space="preserve">
<style type="text/css">
	.st0{fill:#8F6D52;}
	.st1{fill:#7FB241;}
	.st2{fill:#A5856D;}
	.st3{fill:#FFFFFF;}
	.st4{fill:#7FB239;}
	.st5{fill:#45CBEA;}
	.st6{fill:#5A5F63;}
	.st7{fill:#8BC540;}
	.st8{fill:#E14B4B;}
	.st9{fill:#F3C432;}
	.st10{fill:#FFD83B;}
	.st11{fill:#DAE5EF;}
	.st12{fill:#E24B4B;}
	.st13{fill:#3E4347;}
	.st14{fill:#5B5F63;}
	.st15{fill:#6DAFDF;}
	.st16{fill:#9A795F;}
	.st17{fill:#997960;}
	.st18{fill:#FFD93B;}
	.st19{fill:#E2E2E1;}
	.st20{fill:#3F4347;}
	.st21{opacity:0.02;fill:#2F3133;}
	.st22{fill:#E9EFF4;}
	.st23{fill:#DEE4E9;}
	.st24{fill:#F4C534;}
	.st25{fill:#BBC7D1;}
	.st26{fill:#DDE3E9;}
	.st27{fill:#E8EBEE;}
	.st28{fill:#DDDDDC;}
	.st29{fill:#F4F4F4;}
	.st30{fill:#777B7E;}
	.st31{opacity:0.1;fill:#231F20;}
	.st32{fill:#E574AC;}
	.st33{fill:#428DC3;}
	.st34{fill:#4CC6E5;}
	.st35{fill:#E8EFF3;}
	.st36{fill:#8E6D53;}
	.st37{fill:#719C40;}
	.st38{fill:url(#XMLID_3_);}
	.st39{fill:#FFF100;}
	.st40{fill:#9FDCF8;}
	.st41{fill:#27B2CC;}
	.st42{fill:#CBD6E0;}
	.st43{fill:#BF3333;}
	.st44{fill:#D03F3F;}
	.st45{fill:#5CA3D9;}
	.st46{fill:#CE7629;}
	.st47{fill:#E18823;}
	.st48{fill:#A4856D;}
	.st49{fill:#7BA740;}
	.st50{fill:#F29A2E;}
	.st51{fill:#F2F2F2;}
	.st52{fill:#83B844;}
	.st53{fill:#8BC04C;}
	.st54{fill:#7A5B44;}
	.st55{fill:#8CC63E;}
	.st56{fill:#89664C;}
	.st57{fill:#65B1EF;}
	.st58{fill:#4D98D2;}
	.st59{fill:#BAC6D0;}
	.st60{fill:#7AA440;}
	.st61{fill:#ACB9C1;}
	.st62{fill:#E8AF2A;}
	.st63{fill:#D03F3E;}
	.st64{fill:#DF8726;}
	.st65{fill:#DF9D27;}
	.st66{fill:#D3D9DD;}
	.st67{fill:none;stroke:#FFFFFF;stroke-width:2.5;stroke-linecap:round;stroke-linejoin:round;stroke-miterlimit:10;}
	.st68{fill:#FCD91A;}
	.st69{opacity:0.05;fill:#3F4347;}
	.st70{fill:#5F6469;}
	.st71{fill:#64696E;}
	.st72{fill:#939799;}
	.st73{fill:#6F7378;}
	.st74{fill:#D2D8DD;}
	.st75{fill:#4E99D2;}
	.st76{fill:#7B8B92;}
	.st77{fill:#38C0DC;}
	.st78{opacity:0.2;}
	.st79{fill:#FDE7AA;}
	.st80{fill:#FFDC96;}
	.st81{fill:#64892F;}
	.st82{fill:#E9B02C;}
</style>
<g>
	<g>
		<circle id="XMLID_2557_" class="st10" cx="13.832" cy="5.912" r="5.912"/>
		<circle id="XMLID_2535_" class="st9" cx="13.832" cy="5.912" r="3.711"/>
		<path id="XMLID_2555_" class="st37" d="M6.463,15.121c0.009-0.522,0.197-1.089,0.468-1.525c0.32-0.522,0.755-0.935,1.402-1.237
			c0.529-0.238,1.029-0.311,1.569-0.298c-0.586,0.145-0.76,0.138-1.473,0.494c-0.537,0.306-0.97,0.647-1.315,1.159
			C6.776,14.211,6.549,14.75,6.463,15.121z"/>
		<path id="XMLID_2554_" class="st37" d="M8.182,16.069c0.363-0.305,1.144-0.626,1.917-0.679c0.567-0.035,0.934,0.024,1.398,0.154
			c0.411,0.112,0.928,0.37,1.393,0.762c-0.436-0.202-0.92-0.447-1.449-0.551c-0.391-0.096-0.86-0.146-1.328-0.127
			C9.317,15.678,8.636,15.861,8.182,16.069z"/>
		<path id="XMLID_2553_" class="st37" d="M0.89,16.141c0.233-0.228,0.711-0.55,1.251-0.769c0.506-0.191,0.936-0.3,1.49-0.279
			c0.547,0.014,1.097,0.211,1.551,0.621c-0.516-0.245-0.977-0.411-1.555-0.39c-0.462-0.001-0.972,0.11-1.411,0.252
			C1.779,15.729,1.343,15.899,0.89,16.141z"/>
		<path id="XMLID_2552_" class="st37" d="M0.89,19.911c0.14-0.557,0.517-1.163,0.928-1.563c0.609-0.609,1.134-0.854,1.835-1.077
			c0.619-0.16,1.09-0.223,1.814-0.158c-0.813,0.118-0.943,0.107-1.748,0.366c-0.612,0.228-1.199,0.5-1.75,1.026
			C1.471,18.955,1.063,19.531,0.89,19.911z"/>
		<path id="XMLID_2551_" class="st37" d="M5.182,22.899c-0.204-0.316-0.443-0.916-0.537-1.516c-0.098-0.693-0.067-1.238,0.213-1.873
			c0.17-0.409,0.55-0.844,1.131-1.14c-0.416,0.377-0.683,0.613-0.931,1.227C4.843,20.172,4.8,20.73,4.86,21.356
			C4.933,21.973,5.051,22.495,5.182,22.899z"/>
		<g>
			<path class="st1" d="M10.086,14.988c0,0-1.383-0.122-1.989,0.651c-0.057,0.073-0.173,0.007-0.141-0.08
				c0.145-0.398,0.492-0.942,1.309-1.465c0.065-0.042,0.044-0.143-0.033-0.152c-0.009-0.001-0.018-0.002-0.028-0.003
				c-0.073-0.005-0.103-0.095-0.048-0.144c0.193-0.173,0.525-0.403,0.955-0.433c0.035-0.002,0.067-0.025,0.075-0.059
				c0.014-0.064-0.016-0.162-0.31-0.197c-0.079-0.009-0.1-0.115-0.031-0.153c0.212-0.12,0.551-0.27,0.891-0.255
				c0.056,0.003,0.096-0.052,0.081-0.105c-0.016-0.059-0.062-0.138-0.174-0.228c-0.054-0.043-0.034-0.13,0.033-0.145
				c0.121-0.026,0.29-0.053,0.466-0.05c0.088,0.002,0.116-0.118,0.037-0.157c-0.687-0.338-2.183-0.736-4.107,0.715
				c0,0-1.347,0.988-0.933,2.813c0.017,0.074-0.065,0.131-0.127,0.087c-0.622-0.438-2.678-1.708-4.226-0.599
				c-0.006,0.005-0.013,0.008-0.02,0.011c-0.119,0.041-1.185,0.443-1.761,1.928c-0.027,0.071,0.047,0.138,0.115,0.104
				c0.291-0.15,0.865-0.414,1.327-0.434c0.061-0.003,0.103,0.063,0.076,0.118c-0.027,0.058-0.056,0.125-0.073,0.181
				c0.177-0.087,0.937-0.45,1.435-0.491c0.065-0.005,0.11,0.064,0.079,0.121c-0.036,0.067-0.073,0.154-0.083,0.238
				c-0.007,0.061,0.055,0.108,0.113,0.085c0.373-0.15,1.703-0.635,2.524-0.3c0.088,0.036,0.059,0.166-0.035,0.16
				c-0.864-0.06-3.12-0.029-4.436,1.713c0,0-0.795,1.06-0.364,2.359c0.023,0.07,0.122,0.075,0.153,0.008
				c0.129-0.283,0.398-0.824,0.694-1.134c0.048-0.05,0.131-0.023,0.141,0.046c0.022,0.146,0.07,0.365,0.175,0.538
				c0.035,0.058,0.123,0.048,0.147-0.016c0.106-0.285,0.401-0.92,1.012-1.223c0.06-0.03,0.128,0.024,0.116,0.09
				c-0.019,0.103-0.031,0.243-0.001,0.378c0.016,0.072,0.111,0.091,0.151,0.029c0.278-0.434,1.203-1.723,2.409-1.754
				c0.088-0.002,0.119,0.118,0.04,0.157c-0.403,0.2-1.106,0.654-1.509,1.52c-0.433,0.929-0.352,2.012,0.148,2.907
				c0.277,0.497,0.693,0.992,1.275,1.086c0.07,0.011,0.123-0.063,0.086-0.124c-0.149-0.246-0.416-0.765-0.27-1.11
				c0.023-0.053,0.095-0.065,0.134-0.023c0.045,0.048,0.112,0.101,0.197,0.115c0.06,0.01,0.109-0.05,0.089-0.108
				c-0.093-0.273-0.309-1.055,0.023-1.628c0.028-0.048,0.095-0.056,0.133-0.015c0.11,0.117,0.323,0.319,0.476,0.301
				c0.049-0.006,0.081-0.054,0.069-0.101c-0.073-0.303-0.356-1.679,0.355-2.43c0.033-0.035,0.089-0.032,0.121,0.004
				c0.064,0.074,0.178,0.215,0.318,0.41c0.108-0.565,0.606-0.932,1.119-0.996c-0.094-0.112-0.181-0.229-0.281-0.337
				c-0.041-0.044-0.024-0.115,0.033-0.134c0.332-0.112,1.33-0.377,2.496,0.007c0.058,0.019,0.119-0.028,0.109-0.089
				c-0.012-0.075-0.049-0.18-0.146-0.302c-0.043-0.055-0.007-0.135,0.062-0.135c0.383-0.002,1.269,0.027,1.789,0.319
				c0.065,0.036,0.143-0.022,0.121-0.093c-0.018-0.059-0.055-0.137-0.125-0.238c-0.039-0.056,0.001-0.132,0.069-0.13
				c0.247,0.007,0.719,0.046,1.102,0.232c0.077,0.038,0.153-0.055,0.101-0.124C13.368,16.132,12.235,15.006,10.086,14.988z"/>
			<path class="st7" d="M29.97,12.985c-0.008-0.003-0.016-0.007-0.024-0.012c-1.779-1.275-4.141,0.185-4.856,0.688
				c-0.071,0.05-0.165-0.015-0.146-0.1c0.475-2.097-1.073-3.232-1.073-3.232c-2.21-1.668-3.929-1.21-4.719-0.822
				c-0.091,0.045-0.059,0.182,0.043,0.18c0.203-0.004,0.397,0.027,0.536,0.058c0.077,0.017,0.1,0.117,0.038,0.166
				c-0.129,0.103-0.181,0.194-0.199,0.261c-0.017,0.062,0.029,0.124,0.093,0.121c0.391-0.018,0.78,0.155,1.024,0.293
				c0.079,0.045,0.054,0.165-0.036,0.176c-0.338,0.04-0.372,0.154-0.356,0.227c0.009,0.039,0.046,0.066,0.086,0.068
				c0.494,0.034,0.876,0.298,1.097,0.497c0.062,0.056,0.028,0.159-0.056,0.166c-0.011,0.001-0.021,0.002-0.032,0.003
				c-0.088,0.01-0.112,0.126-0.038,0.174c0.939,0.602,1.337,1.227,1.504,1.684c0.037,0.1-0.097,0.176-0.163,0.092
				C22,12.785,20.41,12.925,20.41,12.925c-2.469,0.021-3.771,1.315-4.284,1.994c-0.06,0.079,0.027,0.185,0.116,0.142
				c0.44-0.213,0.983-0.258,1.267-0.266c0.078-0.002,0.124,0.086,0.079,0.15c-0.08,0.115-0.123,0.205-0.144,0.273
				c-0.025,0.081,0.065,0.148,0.139,0.106c0.598-0.335,1.616-0.369,2.056-0.367c0.08,0,0.121,0.093,0.072,0.156
				c-0.111,0.14-0.153,0.26-0.167,0.346c-0.011,0.07,0.058,0.124,0.125,0.102c1.34-0.441,2.486-0.137,2.868-0.007
				c0.065,0.022,0.084,0.103,0.038,0.154c-0.04,0.044-0.074,0.092-0.112,0.137c0.472,0.249,0.854,0.597,1.277,0.937
				c0.033,0.027,0.044,0.069,0.072,0.1c0.03-0.037,0.07-0.089,0.091-0.114c0.036-0.042,0.101-0.045,0.139-0.005
				c0.816,0.863,0.492,2.444,0.407,2.792c-0.013,0.055,0.024,0.11,0.08,0.116c0.176,0.021,0.421-0.212,0.547-0.346
				c0.044-0.047,0.121-0.038,0.153,0.017c0.382,0.659,0.133,1.557,0.027,1.871c-0.023,0.067,0.033,0.135,0.103,0.124
				c0.098-0.016,0.174-0.076,0.226-0.132c0.045-0.049,0.128-0.036,0.154,0.026c0.168,0.396-0.139,0.992-0.31,1.275
				c-0.042,0.07,0.018,0.155,0.099,0.142c0.668-0.108,1.146-0.677,1.464-1.247c0.574-1.029,0.667-2.273,0.17-3.34
				c-0.464-0.995-1.271-1.517-1.734-1.747c-0.091-0.045-0.055-0.183,0.046-0.18c1.386,0.036,2.449,1.518,2.768,2.016
				c0.046,0.072,0.155,0.05,0.173-0.033c0.034-0.156,0.02-0.317-0.001-0.435c-0.014-0.076,0.064-0.138,0.134-0.103
				c0.701,0.348,1.041,1.078,1.162,1.405c0.027,0.073,0.128,0.084,0.169,0.018c0.121-0.198,0.176-0.45,0.201-0.618
				c0.012-0.078,0.108-0.11,0.163-0.052c0.339,0.357,0.648,0.978,0.797,1.303c0.036,0.078,0.149,0.072,0.176-0.009
				c0.496-1.493-0.418-2.711-0.418-2.711c-1.512-2.001-4.105-2.037-5.097-1.968c-0.108,0.008-0.141-0.142-0.04-0.183
				c0.944-0.385,2.472,0.173,2.901,0.345c0.066,0.026,0.137-0.027,0.13-0.097c-0.011-0.096-0.053-0.196-0.095-0.273
				c-0.035-0.066,0.017-0.145,0.091-0.139c0.571,0.047,1.445,0.464,1.648,0.564c-0.02-0.064-0.053-0.141-0.084-0.208
				c-0.03-0.064,0.017-0.139,0.088-0.135c0.532,0.023,1.191,0.326,1.525,0.499c0.077,0.04,0.163-0.038,0.132-0.119
				C31.332,13.495,30.107,13.032,29.97,12.985z"/>
		</g>
		<path id="XMLID_2540_" class="st34" d="M32,32v-3.649c-2.049-0.451-2.542-1.179-5.474-1.179c-3.572,0-3.572,1.428-7.143,1.428
			c-3.571,0-3.571-1.428-7.142-1.428c-3.571,0-3.571,1.428-7.142,1.428c-2.684,0-3.399-1-5.098-1.35V32H32z"/>
		<path id="XMLID_2547_" class="st1" d="M24.574,13.078c-0.01-0.599-0.226-1.251-0.538-1.752c-0.374-0.611-0.879-1.079-1.611-1.421
			c-0.616-0.277-1.185-0.357-1.802-0.342c0.658,0.163,0.882,0.162,1.693,0.568c0.595,0.338,1.103,0.728,1.511,1.332
			C24.214,12.033,24.474,12.652,24.574,13.078z"/>
		<path id="XMLID_2546_" class="st1" d="M22.599,14.168c-0.428-0.36-1.321-0.72-2.203-0.78c-0.709-0.043-1.387,0.05-2.07,0.346
			c-0.301,0.119-0.738,0.37-1.136,0.707c0.367-0.17,0.838-0.394,1.211-0.507c0.646-0.211,1.337-0.298,1.98-0.271
			C21.287,13.718,22.063,13.923,22.599,14.168z"/>
		<path id="XMLID_2545_" class="st1" d="M30.978,14.25c-0.265-0.26-0.815-0.631-1.438-0.883c-0.636-0.24-1.255-0.385-1.955-0.3
			c-0.61,0.062-1.096,0.295-1.539,0.693c0.597-0.284,0.889-0.406,1.56-0.444c0.611-0.036,1.268,0.098,1.848,0.286
			C29.984,13.788,30.459,13.973,30.978,14.25z"/>
		<path id="XMLID_2544_" class="st1" d="M30.978,18.583c-0.168-0.666-0.614-1.356-1.066-1.796c-0.539-0.54-1.162-0.912-1.823-1.146
			c-0.846-0.269-1.474-0.352-2.369-0.273c0.842,0.122,1.25,0.138,2.277,0.521c0.613,0.259,1.27,0.627,1.743,1.078
			C30.295,17.47,30.785,18.16,30.978,18.583z"/>
		<path id="XMLID_2543_" class="st1" d="M26.046,22.016c0.23-0.356,0.508-1.049,0.617-1.742c0.17-1.203-0.029-1.864-0.501-2.591
			c-0.312-0.431-0.64-0.666-1.043-0.872c0.395,0.358,0.586,0.531,0.865,0.988c0.428,0.747,0.513,1.59,0.431,2.443
			C26.332,20.947,26.202,21.531,26.046,22.016z"/>
	</g>
	<g>
		<path class="st16" d="M8.199,17.415c3.33,3.58,3.29,9.76,3.21,11.41h-3.06c0.55-1.64,0.72-3.37,0.72-3.37
			c0.4-4.1-1.65-6.68-2.02-7.12L8.199,17.415z"/>
		<path class="st16" d="M21.579,24.955c0,0,0.19,1.98,0.83,3.87h-3.52c-0.08-1.9-0.13-8.99,3.69-13.12l1.32,1.07
			C23.469,17.275,21.119,20.245,21.579,24.955z"/>
	</g>
</g>
</svg>
