<?xml version="1.0" encoding="utf-8"?>
<!-- Generator: Adobe Illustrator 21.1.0, SVG Export Plug-In . SVG Version: 6.00 Build 0)  -->
<svg version="1.1" id="Layer_1" xmlns="http://www.w3.org/2000/svg" xmlns:xlink="http://www.w3.org/1999/xlink" x="0px" y="0px"
	 viewBox="0 0 32 32" style="enable-background:new 0 0 32 32;" xml:space="preserve">
<style type="text/css">
	.st0{fill:#8F6D52;}
	.st1{fill:#7FB241;}
	.st2{fill:#A5856D;}
	.st3{fill:#FFFFFF;}
	.st4{fill:#7FB239;}
	.st5{fill:#45CBEA;}
	.st6{fill:#5A5F63;}
	.st7{fill:#8BC540;}
	.st8{fill:#E14B4B;}
	.st9{fill:#F3C432;}
	.st10{fill:#FFD83B;}
	.st11{fill:#DAE5EF;}
	.st12{fill:#E24B4B;}
	.st13{fill:#3E4347;}
	.st14{fill:#5B5F63;}
	.st15{fill:#6DAFDF;}
	.st16{fill:#9A795F;}
	.st17{fill:#997960;}
	.st18{fill:#FFD93B;}
	.st19{fill:#E2E2E1;}
	.st20{fill:#3F4347;}
	.st21{opacity:0.02;fill:#2F3133;}
	.st22{fill:#E9EFF4;}
	.st23{fill:#DEE4E9;}
	.st24{fill:#F4C534;}
	.st25{fill:#BBC7D1;}
	.st26{fill:#DDE3E9;}
	.st27{fill:#E8EBEE;}
	.st28{fill:#DDDDDC;}
	.st29{fill:#F4F4F4;}
	.st30{fill:#777B7E;}
	.st31{opacity:0.1;fill:#231F20;}
	.st32{fill:#E574AC;}
	.st33{fill:#428DC3;}
	.st34{fill:#4CC6E5;}
	.st35{fill:#E8EFF3;}
	.st36{fill:#8E6D53;}
	.st37{fill:#719C40;}
	.st38{fill:url(#XMLID_3_);}
	.st39{fill:#FFF100;}
	.st40{fill:#9FDCF8;}
	.st41{fill:#27B2CC;}
	.st42{fill:#CBD6E0;}
	.st43{fill:#BF3333;}
	.st44{fill:#D03F3F;}
	.st45{fill:#5CA3D9;}
	.st46{fill:#CE7629;}
	.st47{fill:#E18823;}
	.st48{fill:#A4856D;}
	.st49{fill:#7BA740;}
	.st50{fill:#F29A2E;}
	.st51{fill:#F2F2F2;}
	.st52{fill:#83B844;}
	.st53{fill:#8BC04C;}
	.st54{fill:#7A5B44;}
	.st55{fill:#8CC63E;}
	.st56{fill:#89664C;}
	.st57{fill:#65B1EF;}
	.st58{fill:#4D98D2;}
	.st59{fill:#BAC6D0;}
	.st60{fill:#7AA440;}
	.st61{fill:#ACB9C1;}
	.st62{fill:#E8AF2A;}
	.st63{fill:#D03F3E;}
	.st64{fill:#DF8726;}
	.st65{fill:#DF9D27;}
	.st66{fill:#D3D9DD;}
	.st67{fill:none;stroke:#FFFFFF;stroke-width:2.5;stroke-linecap:round;stroke-linejoin:round;stroke-miterlimit:10;}
	.st68{fill:#FCD91A;}
	.st69{opacity:0.05;fill:#3F4347;}
	.st70{fill:#5F6469;}
	.st71{fill:#64696E;}
	.st72{fill:#939799;}
	.st73{fill:#6F7378;}
	.st74{fill:#D2D8DD;}
	.st75{fill:#4E99D2;}
	.st76{fill:#7B8B92;}
	.st77{fill:#38C0DC;}
	.st78{opacity:0.2;}
	.st79{fill:#FDE7AA;}
	.st80{fill:#FFDC96;}
	.st81{fill:#64892F;}
	.st82{fill:#E9B02C;}
</style>
<g id="XMLID_822_">
	<g id="XMLID_815_">
		<circle id="XMLID_1133_" class="st18" cx="7.348" cy="5.674" r="5.612"/>
		<g id="XMLID_218_">
			<path id="XMLID_825_" class="st51" d="M1.493,2.612C1.786,1.823,2.54,1.258,3.431,1.258c0.892,0,1.646,0.566,1.938,1.356
				c0.014,0,0.028-0.004,0.042-0.004c0.772,0,1.397,0.626,1.397,1.397c0,0.772-0.626,1.397-1.397,1.397
				c-0.336,0-0.64-0.124-0.882-0.321C4.21,5.284,3.836,5.405,3.431,5.405c-0.39,0-0.751-0.114-1.062-0.301
				C2.131,5.289,1.836,5.405,1.511,5.405c-0.772,0-1.397-0.626-1.397-1.397C0.114,3.242,0.73,2.622,1.493,2.612z"/>
		</g>
	</g>
	<g id="XMLID_809_">
		<g id="XMLID_695_">
			<path id="XMLID_817_" class="st17" d="M24.303,19.919c-0.013-0.147-0.053-0.31-0.179-0.386c-0.131-0.079-0.3-0.032-0.442,0.027
				c-0.97,0.405-1.67,1.25-2.428,1.979c-0.758,0.729-1.719,1.398-2.765,1.295c-0.188-0.018-0.381-0.066-0.524-0.19
				c-0.133-0.116-0.207-0.287-0.254-0.457c-0.109-0.392-0.101-0.811-0.223-1.199c-0.122-0.388-0.438-0.767-0.845-0.764
				c-0.407,0.003-1.381,0.692-1.049,0.929l0.635-0.103c1.179,2.559,0.806,5.6,0.162,8.343c-0.099,0.424,0.173,0.893-0.239,1.034
				c-0.225,0.077-0.256-0.043-0.473,0.053c-0.379,0.167-0.436,0.784-0.094,1.018c0.149,0.102,0.336,0.129,0.515,0.152
				c1.997,0.255,4.016,0.342,6.028,0.26c0.427-0.263,0.338-0.939,0.018-1.326c-0.319-0.387-0.791-0.626-1.106-1.017
				c-0.4-0.497-0.492-1.166-0.563-1.799c-0.105-0.94-0.192-1.883-0.262-2.826c-0.017-0.225-0.031-0.46,0.054-0.669
				c0.126-0.308,0.438-0.491,0.732-0.647c0.777-0.413,1.584-0.799,2.237-1.39C23.892,21.643,24.38,20.796,24.303,19.919z"/>
		</g>
		<path id="XMLID_814_" class="st1" d="M31.055,13.054c-0.142-0.335-0.29-0.679-0.549-0.935c-0.514-0.511-1.375-0.589-1.814-1.166
			c-0.542-0.71-0.159-1.711,0.064-2.576c0.274-1.063,0.265-2.197-0.026-3.256c-0.068-0.247-0.157-0.5-0.34-0.68
			c-0.188-0.185-0.452-0.27-0.709-0.331c-1.118-0.263-2.32-0.187-3.374-0.643c-0.94-0.406-1.655-1.189-2.475-1.802
			c-1.384-1.034-3.118-1.589-4.845-1.552c-0.107,0.002-0.229,0.014-0.295,0.098c-0.092,0.117-0.019,0.286-0.026,0.435
			c-0.019,0.437-0.63,0.509-1.066,0.474c-0.914-0.073-1.963,0.056-2.508,0.793c-0.718,0.972-0.153,2.33-0.196,3.538
			c-0.005,0.128-0.02,0.264-0.101,0.363c-0.109,0.132-0.299,0.156-0.469,0.164c-0.724,0.035-1.471-0.037-2.155,0.203
			c-0.707,0.248-1.258,0.8-1.776,1.341c-0.623,0.65-1.25,1.327-1.602,2.155c-0.352,0.829-0.382,1.851,0.15,2.577
			c0.158,0.216,0.369,0.422,0.387,0.689c0.025,0.382-0.345,0.653-0.641,0.896c-1.324,1.081-1.785,2.918-1.782,4.627
			c0.001,0.738,0.172,1.619,0.855,1.9c0.857,0.353,1.89-0.519,2.718-0.103c0.218,0.11,0.386,0.296,0.558,0.47
			c2.228,2.244,6.021,2.605,8.761,1.026c0.885-0.51,1.721-1.213,2.737-1.309c0.305-0.029,0.778,0.003,1.258,0.08
			c1.776,0.683,3.71,0.959,5.606,0.785c0.674-0.062,1.377-0.194,1.897-0.626c0.52-0.432,0.776-1.248,0.394-1.807
			c1.184-0.034,2.068-1.23,2.178-2.41C31.979,15.293,31.517,14.144,31.055,13.054z M23.31,21.004"/>
		<g id="XMLID_836_">
			<path id="XMLID_841_" class="st52" d="M19.553,9.663c-0.115,0.32-0.48,0.462-0.8,0.578c-1.14,0.415-2.223,0.99-3.207,1.703
				c-0.311,0.225-0.614,0.466-0.958,0.638c-1.095,0.55-2.401,0.329-3.603,0.096C9.6,12.41,8.214,12.142,6.829,11.873
				c-0.037-0.007-0.074-0.015-0.111-0.022c-0.285-0.673-0.213-1.49,0.078-2.174c0.352-0.829,0.978-1.506,1.601-2.156
				c0.519-0.54,1.07-1.092,1.776-1.34c0.571-0.201,1.188-0.184,1.797-0.193c0.302,0.103,0.604,0.206,0.906,0.309
				c0.592,0.201,1.186,0.403,1.744,0.687c0.459,0.234,0.892,0.522,1.361,0.735c0.839,0.38,1.768,0.509,2.64,0.806
				c0.259,0.088,0.522,0.196,0.716,0.389C19.532,9.108,19.646,9.405,19.553,9.663z"/>
			<path id="XMLID_1060_" class="st52" d="M21.496,3.296c-0.086,0.197-0.276,0.328-0.467,0.426c-1.058,0.542-2.387,0.392-3.4,1.013
				c-0.368,0.225-0.676,0.542-1.058,0.741c-0.524,0.272-1.14,0.298-1.73,0.256c-0.674-0.049-1.375-0.199-1.943-0.547V5.185
				c-0.033-1.138-0.47-2.37,0.196-3.271c0.545-0.737,1.594-0.867,2.508-0.794c0.436,0.035,1.047-0.037,1.066-0.474
				c0.006-0.148-0.067-0.318,0.026-0.435c0.066-0.084,0.187-0.096,0.295-0.098c1.478-0.031,2.96,0.37,4.224,1.135
				c0.271,0.446,0.322,1.021,0.341,1.556C21.559,2.971,21.563,3.144,21.496,3.296z"/>
			<path id="XMLID_1129_" class="st52" d="M28.903,5.989c-0.051,0.131-0.126,0.25-0.234,0.344c-0.414,0.361-1.047,0.19-1.592,0.264
				c-0.868,0.118-1.529,0.931-1.674,1.795c-0.074,0.438-0.072,0.957-0.428,1.221c-0.243,0.18-0.581,0.17-0.867,0.073
				c-0.285-0.097-0.538-0.27-0.809-0.403c-0.744-0.366-1.601-0.425-2.382-0.705c-0.781-0.279-1.552-0.915-1.544-1.745
				c0.005-0.491,0.29-0.945,0.662-1.266c0.372-0.321,0.824-0.53,1.271-0.735c0.665-0.304,1.329-0.609,1.994-0.913
				c0.332-0.152,0.665-0.305,0.997-0.456c0.003,0.002,0.007,0.003,0.01,0.005c1.054,0.456,2.256,0.38,3.374,0.643
				c0.257,0.061,0.521,0.145,0.709,0.33c0.182,0.18,0.271,0.433,0.339,0.68C28.809,5.406,28.866,5.695,28.903,5.989z"/>
			<path id="XMLID_1124_" class="st52" d="M25.753,12.016c-0.233-0.201-0.469-0.404-0.743-0.544
				c-0.933-0.478-2.059-0.138-3.043,0.225c-0.226,0.084-0.463,0.176-0.613,0.365c-0.12,0.152-0.17,0.348-0.279,0.508
				c-0.371,0.542-1.177,0.433-1.832,0.381c-0.947-0.075-1.912,0.109-2.765,0.526l0.079,0.42c-0.483,0.109-0.691,0.753-0.482,1.201
				c0.209,0.448,0.7,0.703,1.186,0.798c0.486,0.095,0.986,0.063,1.479,0.11c0.513,0.049,1.016,0.186,1.491,0.386
				c0.516,0.218,1,0.51,1.526,0.703c1.017,0.374,2.129,0.359,3.212,0.339c0.824-0.015,1.729-0.061,2.335-0.62
				c0.702-0.648,0.73-1.793,0.324-2.658C27.222,13.29,26.477,12.64,25.753,12.016z"/>
			<path id="XMLID_838_" class="st52" d="M14.658,16.02c-0.127,0.126-0.306,0.183-0.482,0.215c-0.64,0.116-1.304-0.047-1.947,0.055
				c-0.564,0.089-1.075,0.375-1.572,0.655c-0.473,0.267-0.946,0.533-1.419,0.8c-0.229,0.129-0.458,0.258-0.67,0.413
				c-0.235,0.17-0.448,0.369-0.686,0.535c-0.835,0.582-1.902,0.693-2.913,0.489c-0.045-0.237-0.062-0.484-0.062-0.716
				c-0.003-1.71,0.459-3.546,1.782-4.627c0.174-0.143,0.374-0.295,0.504-0.474c1.703,0.075,3.402,0.27,5.098,0.465
				c0.238,0.027,0.483,0.057,0.693,0.17c0.359,0.194,0.55,0.59,0.777,0.929c0.228,0.34,0.585,0.669,0.989,0.603
				C14.842,15.685,14.785,15.894,14.658,16.02z"/>
			<path id="XMLID_1126_" class="st52" d="M16.638,17.501c-1.59-0.748-3.485-0.82-5.128-0.196c-0.194,0.074-0.386,0.158-0.554,0.281
				c-0.471,0.345-0.677,0.936-0.858,1.491l-0.109,0.126c-0.018,0.706,0.71,1.2,1.395,1.372c0.65,0.164,1.329,0.166,2,0.167
				c0.658,0.001,1.316,0.003,1.974,0.004c0.55,0.001,1.113,0,1.629-0.189c0.516-0.189,0.984-0.608,1.071-1.151
				c0.068-0.421-0.104-0.855-0.382-1.177C17.398,17.908,17.024,17.683,16.638,17.501z"/>
		</g>
		<g id="XMLID_499_">
			<path id="XMLID_1145_" class="st53" d="M18.549,0.888c-0.427-0.233-1.007-0.137-1.337,0.221l0.038,0.012
				c-0.055,0.181,0.088,0.376,0.267,0.44c0.178,0.064,0.376,0.029,0.558-0.022c0.154-0.042,0.311-0.098,0.42-0.215
				C18.604,1.207,18.646,1.014,18.549,0.888z"/>
			<path id="XMLID_1146_" class="st53" d="M19.221,2.775c0.218,0.059,0.464,0.002,0.633-0.147c0.097-0.222,0.015-0.508-0.187-0.644
				c-0.201-0.136-0.498-0.106-0.667,0.068c-0.08,0.082-0.129,0.22-0.056,0.308L18.748,2.33C18.82,2.544,19.003,2.717,19.221,2.775z"
				/>
			<path id="XMLID_1147_" class="st53" d="M16.882,2.05c-0.062-0.03-0.133-0.035-0.203-0.038C16,1.98,15.316,2.047,14.655,2.21
				c-0.103,0.025-0.232,0.104-0.19,0.201l0.086-0.004c-0.23,0.07-0.421,0.254-0.499,0.481c-0.012,0.034-0.021,0.074-0.003,0.105
				c0.02,0.035,0.065,0.047,0.105,0.052c0.497,0.068,1.007-0.187,1.495-0.07c0.339,0.081,0.696,0.335,1.001,0.165
				c0.143-0.08,0.225-0.234,0.294-0.382c0.056-0.12,0.109-0.245,0.112-0.377C17.06,2.25,17.001,2.108,16.882,2.05z"/>
			<path id="XMLID_1148_" class="st53" d="M10.65,7.112c-0.325-0.021-0.656,0.134-0.848,0.397l0.048,0.04
				c-0.145,0.029-0.25,0.188-0.22,0.333c0.051,0.247,0.375,0.305,0.627,0.297c0.227-0.008,0.462-0.029,0.657-0.145
				c0.195-0.116,0.335-0.353,0.27-0.571C11.118,7.246,10.876,7.126,10.65,7.112z"/>
			<path id="XMLID_1149_" class="st53" d="M13.203,7.455c-0.305-0.127-0.686,0.059-0.816,0.361
				c-0.159-0.137-0.377-0.205-0.585-0.172c-0.042,0.007-0.083,0.017-0.12,0.039c-0.078,0.047-0.119,0.14-0.129,0.231
				c-0.033,0.3,0.224,0.571,0.514,0.653c0.29,0.082,0.6,0.02,0.892-0.057c0.162-0.043,0.331-0.095,0.447-0.216
				C13.64,8.049,13.516,7.585,13.203,7.455z"/>
			<path id="XMLID_1150_" class="st53" d="M9.917,9.852c0.165-0.016,0.334-0.053,0.464-0.156c0.13-0.103,0.207-0.287,0.143-0.44
				c-0.09-0.217-0.382-0.251-0.615-0.227C9.503,9.072,9.057,9.232,8.894,9.606l-0.02,0.109C9.205,9.839,9.565,9.887,9.917,9.852z"/>
			<path id="XMLID_1151_" class="st53" d="M7.286,15.246l-0.123-0.148C7.185,15.164,7.23,15.211,7.286,15.246z"/>
			<path id="XMLID_1152_" class="st53" d="M7.32,15.287c0.001-0.007,0.002-0.014,0.003-0.021c-0.013-0.006-0.025-0.013-0.037-0.02
				L7.32,15.287z"/>
			<path id="XMLID_1153_" class="st53" d="M8.349,15.329c0.04,0,0.081-0.001,0.117-0.019c0.075-0.039,0.089-0.139,0.095-0.223
				c0.015-0.234,0.015-0.505-0.164-0.657c-0.154-0.13-0.378-0.117-0.579-0.098c-0.068,0.007-0.14,0.015-0.195,0.055
				c-0.052,0.038-0.081,0.099-0.106,0.159c-0.097,0.23-0.161,0.473-0.193,0.721c0.111,0.053,0.257,0.066,0.384,0.065
				C7.921,15.33,8.135,15.329,8.349,15.329z"/>
			<path id="XMLID_1154_" class="st53" d="M10.594,14.341c-0.176-0.077-0.376-0.071-0.568-0.064
				c-0.149,0.005-0.298,0.011-0.447,0.016c-0.079,0.003-0.164,0.008-0.223,0.061c-0.059,0.052-0.061,0.169,0.013,0.196l-0.262-0.092
				c0.37,0.441,0.988,0.658,1.552,0.544c0.037-0.008,0.075-0.017,0.108-0.035c0.063-0.036,0.102-0.104,0.115-0.175
				C10.916,14.602,10.77,14.418,10.594,14.341z"/>
			<path id="XMLID_1155_" class="st53" d="M8.219,16.377c-0.334,0.152-0.597,0.479-0.616,0.845l-0.14-0.242
				c-0.131,0.172-0.047,0.445,0.135,0.562c0.182,0.117,0.423,0.105,0.625,0.028s0.378-0.209,0.559-0.328
				c0.163-0.107,0.337-0.207,0.456-0.362c0.119-0.155,0.167-0.384,0.056-0.544C8.943,16.232,8.553,16.225,8.219,16.377z"/>
			<path id="XMLID_1156_" class="st53" d="M12.744,18.298c0.212-0.176,0.255-0.485,0.228-0.759l0.047-0.09
				c-0.283-0.001-0.565-0.002-0.848-0.002c-0.049,0-0.099,0-0.142,0.023c-0.035,0.018-0.061,0.05-0.082,0.082
				c-0.144,0.219-0.111,0.539,0.079,0.719C12.215,18.451,12.542,18.465,12.744,18.298z"/>
			<path id="XMLID_1157_" class="st53" d="M13.922,17.739c-0.22,0.193-0.202,0.535-0.165,0.826c0.222,0.119,0.514,0.093,0.71-0.064
				c0.197-0.157,0.287-0.436,0.22-0.679l0.181-0.058C14.559,17.636,14.172,17.52,13.922,17.739z"/>
			<path id="XMLID_1158_" class="st53" d="M13.109,19.339c-0.001-0.07-0.004-0.143-0.04-0.203c-0.085-0.142-0.291-0.128-0.453-0.096
				l-0.052-0.052c-0.23,0.408-0.469,0.857-0.396,1.32c0.166,0.035,0.336,0.071,0.504,0.049c0.168-0.022,0.337-0.114,0.405-0.27
				c0.043-0.098,0.041-0.209,0.039-0.316C13.115,19.627,13.112,19.483,13.109,19.339z"/>
			<path id="XMLID_1161_" class="st53" d="M18.836,14.172c-0.045,0.051-0.09,0.112-0.137,0.166c-0.101,0.005-0.2,0.021-0.29,0.067
				c-0.157,0.08-0.269,0.278-0.191,0.436c0.067,0.136,0.237,0.184,0.388,0.191c0.363,0.017,0.718-0.116,1.034-0.296
				c0.144-0.082,0.288-0.179,0.373-0.322c0.085-0.143,0.095-0.342-0.017-0.464C19.589,13.897,19.111,13.867,18.836,14.172z
				 M18.423,14.482l0.182-0.051C18.551,14.473,18.492,14.496,18.423,14.482z"/>
			<path id="XMLID_1162_" class="st53" d="M21.548,14.227c0.08-0.014,0.161-0.035,0.226-0.083c0.154-0.115,0.161-0.34,0.145-0.531
				c-0.006-0.07-0.017-0.147-0.072-0.19c-0.042-0.033-0.099-0.037-0.152-0.039c-0.419-0.021-0.902-0.014-1.183,0.288
				c-0.07-0.066-0.202-0.035-0.249,0.052c-0.049,0.091-0.017,0.21,0.053,0.287c0.07,0.077,0.17,0.119,0.268,0.151
				C20.893,14.262,21.227,14.285,21.548,14.227z"/>
			<path id="XMLID_1163_" class="st53" d="M22.304,15.46c-0.097-0.072-0.226-0.078-0.347-0.081c-0.317-0.007-0.633-0.011-0.95-0.013
				c-0.16-0.001-0.365,0.033-0.399,0.19l-0.135,0.135c-0.059,0.153,0.029,0.331,0.163,0.425c0.134,0.094,0.303,0.121,0.466,0.137
				c0.385,0.039,0.774,0.032,1.158-0.02c0.047-0.006,0.095-0.014,0.132-0.044c0.057-0.047,0.064-0.13,0.067-0.204
				C22.464,15.795,22.456,15.573,22.304,15.46z"/>
			<path id="XMLID_2193_" class="st53" d="M25.863,5.012c-0.107-0.107-0.283-0.099-0.429-0.058c-0.349,0.099-0.643,0.339-0.886,0.61
				c-0.111,0.124-0.216,0.261-0.251,0.424c-0.035,0.162,0.019,0.354,0.164,0.435c0.403-0.078,0.865-0.202,1.028-0.579
				c0.027-0.062,0.05-0.134,0.077-0.201c0.094-0.037,0.183-0.084,0.254-0.156C25.945,5.361,25.987,5.137,25.863,5.012z
				 M25.628,5.524c0.038-0.056,0.087-0.097,0.156-0.106L25.628,5.524z"/>
			<path id="XMLID_2194_" class="st53" d="M24.141,6.468c-0.091-0.05-0.199-0.058-0.302-0.057c-0.326,0.003-0.65,0.088-0.936,0.245
				c-0.071,0.039-0.141,0.084-0.187,0.151c-0.109,0.158-0.044,0.374,0.032,0.55c0.028,0.064,0.063,0.134,0.129,0.157
				c0.05,0.018,0.106,0.003,0.157-0.011c0.404-0.114,0.86-0.274,1.029-0.65c0.087,0.04,0.203-0.032,0.22-0.129
				C24.301,6.62,24.232,6.518,24.141,6.468z"/>
			<path id="XMLID_2195_" class="st53" d="M21.794,5.728c0.115,0.037,0.24,0.002,0.355-0.034c0.302-0.094,0.604-0.191,0.905-0.291
				c0.152-0.05,0.335-0.148,0.318-0.307l0.085-0.171c0.007-0.164-0.133-0.305-0.29-0.351c-0.157-0.046-0.326-0.018-0.485,0.018
				c-0.377,0.086-0.744,0.216-1.091,0.387C21.548,5,21.504,5.023,21.479,5.063c-0.039,0.063-0.019,0.144,0.002,0.215
				C21.535,5.46,21.613,5.669,21.794,5.728z"/>
		</g>
	</g>
</g>
</svg>
