<?xml version="1.0" encoding="utf-8"?>
<!-- Generator: Adobe Illustrator 21.1.0, SVG Export Plug-In . SVG Version: 6.00 Build 0)  -->
<svg version="1.1" id="Layer_1" xmlns="http://www.w3.org/2000/svg" xmlns:xlink="http://www.w3.org/1999/xlink" x="0px" y="0px"
	 viewBox="0 0 32 32" style="enable-background:new 0 0 32 32;" xml:space="preserve">
<style type="text/css">
	.st0{fill:#8F6D52;}
	.st1{fill:#7FB241;}
	.st2{fill:#A5856D;}
	.st3{fill:#FFFFFF;}
	.st4{fill:#7FB239;}
	.st5{fill:#45CBEA;}
	.st6{fill:#5A5F63;}
	.st7{fill:#8BC540;}
	.st8{fill:#E14B4B;}
	.st9{fill:#F3C432;}
	.st10{fill:#FFD83B;}
	.st11{fill:#DAE5EF;}
	.st12{fill:#E24B4B;}
	.st13{fill:#3E4347;}
	.st14{fill:#5B5F63;}
	.st15{fill:#6DAFDF;}
	.st16{fill:#9A795F;}
	.st17{fill:#997960;}
	.st18{fill:#FFD93B;}
	.st19{fill:#E2E2E1;}
	.st20{fill:#3F4347;}
	.st21{opacity:0.02;fill:#2F3133;}
	.st22{fill:#E9EFF4;}
	.st23{fill:#DEE4E9;}
	.st24{fill:#F4C534;}
	.st25{fill:#BBC7D1;}
	.st26{fill:#DDE3E9;}
	.st27{fill:#E8EBEE;}
	.st28{fill:#DDDDDC;}
	.st29{fill:#F4F4F4;}
	.st30{fill:#777B7E;}
	.st31{opacity:0.1;fill:#231F20;}
	.st32{fill:#E574AC;}
	.st33{fill:#428DC3;}
	.st34{fill:#4CC6E5;}
	.st35{fill:#E8EFF3;}
	.st36{fill:#8E6D53;}
	.st37{fill:#719C40;}
	.st38{fill:url(#XMLID_3_);}
	.st39{fill:#FFF100;}
	.st40{fill:#9FDCF8;}
	.st41{fill:#27B2CC;}
	.st42{fill:#CBD6E0;}
	.st43{fill:#BF3333;}
	.st44{fill:#D03F3F;}
	.st45{fill:#5CA3D9;}
	.st46{fill:#CE7629;}
	.st47{fill:#E18823;}
	.st48{fill:#A4856D;}
	.st49{fill:#7BA740;}
	.st50{fill:#F29A2E;}
	.st51{fill:#F2F2F2;}
	.st52{fill:#83B844;}
	.st53{fill:#8BC04C;}
	.st54{fill:#7A5B44;}
	.st55{fill:#8CC63E;}
	.st56{fill:#89664C;}
	.st57{fill:#65B1EF;}
	.st58{fill:#4D98D2;}
	.st59{fill:#BAC6D0;}
	.st60{fill:#7AA440;}
	.st61{fill:#ACB9C1;}
	.st62{fill:#E8AF2A;}
	.st63{fill:#D03F3E;}
	.st64{fill:#DF8726;}
	.st65{fill:#DF9D27;}
	.st66{fill:#D3D9DD;}
	.st67{fill:none;stroke:#FFFFFF;stroke-width:2.5;stroke-linecap:round;stroke-linejoin:round;stroke-miterlimit:10;}
	.st68{fill:#FCD91A;}
	.st69{opacity:0.05;fill:#3F4347;}
	.st70{fill:#5F6469;}
	.st71{fill:#64696E;}
	.st72{fill:#939799;}
	.st73{fill:#6F7378;}
	.st74{fill:#D2D8DD;}
	.st75{fill:#4E99D2;}
	.st76{fill:#7B8B92;}
	.st77{fill:#38C0DC;}
	.st78{opacity:0.2;}
	.st79{fill:#FDE7AA;}
	.st80{fill:#FFDC96;}
	.st81{fill:#64892F;}
	.st82{fill:#E9B02C;}
</style>
<g id="XMLID_2013_">
	<g>
		<circle id="XMLID_2011_" class="st10" cx="26.28" cy="5.19" r="5.19"/>
		<circle id="XMLID_2015_" class="st9" cx="26.28" cy="5.19" r="3.371"/>
	</g>
	<g>
		<path class="st17" d="M16.295,9.54c-0.554-0.179-1.103-0.375-1.646-0.594C11.875,11.66,3.22,23.232,11.041,31.25
			c0.156,0.03,0.313,0.059,0.47,0.088c1.535-0.352,3.069-0.703,4.604-1.055C12.735,27.972,8.993,19.1,16.295,9.54z"/>
	</g>
	<g>
		<path id="XMLID_2042_" class="st18" d="M20.865,32c-1.913-3.164-5.744-5.328-10.167-5.328S2.443,28.836,0.53,32H20.865z"/>
	</g>
	<path id="XMLID_2012_" class="st1" d="M14.962,12.056c0,0,2.8,2.908-0.269,7.377c0,0,1.098-0.431,1.438-1.562
		c0,0,0.77,1.4-2.73,4.954c0,0,2.104-0.783,2.802-1.657c0,0-1.714,2.573-3.604,3.811c0,0,10.333-1.023,7.049-9.477
		c0,0,1.4,0.7,1.615,2.531c0,0,0.329-4.2-4.332-6.839c0,0,4.009,1.077,5.194,5.062c0,0,0.592-1.239-0.215-2.746
		c0,0,2.315,2.1,2.531,5.869c0,0,0.592-0.646,0.377-2.692c0,0,1.299,1.909,1.161,4.482c0,0,4.116-9.005-5.307-11.32
		c0,0,1.131-0.431,3.231,0.485c0,0-1.508-2.477-7.323-1.669c0,0,2.692-1.831,5.816-0.808c0,0-0.377-0.646-1.4-0.915
		c0,0,2.423-0.245,4.2,1.116c0,0,0.054-0.739-1.023-1.87c0,0,2.315,0.455,2.962,1.87c0,0-0.7-3.647-3.069-4.185
		s-6.085,1.831-6.085,1.831s0.7-0.967,2.477-1.91c0,0-2.208,0.026-4.469,2.18c0,0,0.215-0.215-0.592-2.8
		c0,0,0.162,2.262-0.538,3.285c0,0,0-7.054-5.654-5.977c0,0,1.777,0.7,2.208,1.615c0,0-0.862-0.538-1.992-0.215
		c0,0,2.746,1.239,3.177,2.477c0,0-0.377-0.485-1.723-0.538c0,0,2.55,1.855,2.891,4.239c0,0-1.598-3.324-4.183-3.701
		c0,0,1.615,1.077,1.723,2.208c0,0-5.385-5.522-10.77,1.493c0,0,2.585-1.224,3.285-0.631c0,0-0.969,0.323-1.885,1.992
		c0,0,2.369-2.262,5.169-1.669c0,0-0.323-0.162-1.346,0.915c0,0,3.016-1.292,6.139,0.538c0,0-4.254-0.754-6.408,1.077
		c0,0,2.579-0.646,3.363,0.054c0,0-4.763-0.108-4.978,4.685c0,0-0.108,2.746,1.669,4.9c0,0-0.431-1.992,0.646-3.662
		c0,0-0.054,1.131,0.808,2.585c0,0-0.269-3.016,1.077-5.116c0,0-0.136,2.085,0.578,3.223c0,0-0.578-4.893,4.699-5.7
		C13.346,11.248,14.8,11.248,14.962,12.056z"/>
</g>
</svg>
