<?xml version="1.0" encoding="utf-8"?>
<!-- Generator: Adobe Illustrator 21.1.0, SVG Export Plug-In . SVG Version: 6.00 Build 0)  -->
<svg version="1.1" id="Layer_1" xmlns="http://www.w3.org/2000/svg" xmlns:xlink="http://www.w3.org/1999/xlink" x="0px" y="0px"
	 viewBox="0 0 32 32" style="enable-background:new 0 0 32 32;" xml:space="preserve">
<style type="text/css">
	.st0{fill:#8F6D52;}
	.st1{fill:#7FB241;}
	.st2{fill:#A5856D;}
	.st3{fill:#FFFFFF;}
	.st4{fill:#7FB239;}
	.st5{fill:#45CBEA;}
	.st6{fill:#5A5F63;}
	.st7{fill:#8BC540;}
	.st8{fill:#E14B4B;}
	.st9{fill:#F3C432;}
	.st10{fill:#FFD83B;}
	.st11{fill:#DAE5EF;}
	.st12{fill:#E24B4B;}
	.st13{fill:#3E4347;}
	.st14{fill:#5B5F63;}
	.st15{fill:#6DAFDF;}
	.st16{fill:#9A795F;}
	.st17{fill:#997960;}
	.st18{fill:#FFD93B;}
	.st19{fill:#E2E2E1;}
	.st20{fill:#3F4347;}
	.st21{opacity:0.02;fill:#2F3133;}
	.st22{fill:#E9EFF4;}
	.st23{fill:#DEE4E9;}
	.st24{fill:#F4C534;}
	.st25{fill:#BBC7D1;}
	.st26{fill:#DDE3E9;}
	.st27{fill:#E8EBEE;}
	.st28{fill:#DDDDDC;}
	.st29{fill:#F4F4F4;}
	.st30{fill:#777B7E;}
	.st31{opacity:0.1;fill:#231F20;}
	.st32{fill:#E574AC;}
	.st33{fill:#428DC3;}
	.st34{fill:#4CC6E5;}
	.st35{fill:#E8EFF3;}
	.st36{fill:#8E6D53;}
	.st37{fill:#719C40;}
	.st38{fill:url(#XMLID_3_);}
	.st39{fill:#FFF100;}
	.st40{fill:#9FDCF8;}
	.st41{fill:#27B2CC;}
	.st42{fill:#CBD6E0;}
	.st43{fill:#BF3333;}
	.st44{fill:#D03F3F;}
	.st45{fill:#5CA3D9;}
	.st46{fill:#CE7629;}
	.st47{fill:#E18823;}
	.st48{fill:#A4856D;}
	.st49{fill:#7BA740;}
	.st50{fill:#F29A2E;}
	.st51{fill:#F2F2F2;}
	.st52{fill:#83B844;}
	.st53{fill:#8BC04C;}
	.st54{fill:#7A5B44;}
	.st55{fill:#8CC63E;}
	.st56{fill:#89664C;}
	.st57{fill:#65B1EF;}
	.st58{fill:#4D98D2;}
	.st59{fill:#BAC6D0;}
	.st60{fill:#7AA440;}
	.st61{fill:#ACB9C1;}
	.st62{fill:#E8AF2A;}
	.st63{fill:#D03F3E;}
	.st64{fill:#DF8726;}
	.st65{fill:#DF9D27;}
	.st66{fill:#D3D9DD;}
	.st67{fill:none;stroke:#FFFFFF;stroke-width:2.5;stroke-linecap:round;stroke-linejoin:round;stroke-miterlimit:10;}
	.st68{fill:#FCD91A;}
	.st69{opacity:0.05;fill:#3F4347;}
	.st70{fill:#5F6469;}
	.st71{fill:#64696E;}
	.st72{fill:#939799;}
	.st73{fill:#6F7378;}
	.st74{fill:#D2D8DD;}
	.st75{fill:#4E99D2;}
	.st76{fill:#7B8B92;}
	.st77{fill:#38C0DC;}
	.st78{opacity:0.2;}
	.st79{fill:#FDE7AA;}
	.st80{fill:#FFDC96;}
	.st81{fill:#64892F;}
	.st82{fill:#E9B02C;}
</style>
<g>
	<g id="XMLID_3856_">
		<g>
			<path class="st17" d="M4.972,2.017c1.078,1.069,1.682,1.682,2.76,2.751v23.468H2.212V4.768C3.29,3.699,3.894,3.086,4.972,2.017z"
				/>
			<path class="st17" d="M12.148,2.017c1.078,1.069,1.682,1.682,2.76,2.751v23.468H9.387V4.768
				C10.465,3.699,11.069,3.086,12.148,2.017z"/>
			<path class="st17" d="M22.083,4.768v23.468h-5.53V4.768c1.078-1.069,1.682-1.682,2.76-2.751h0.009
				C20.401,3.086,21.005,3.699,22.083,4.768z"/>
			<path class="st17" d="M29.249,4.768v23.468h-5.521V4.768c1.078-1.069,1.682-1.682,2.76-2.751
				C27.567,3.086,28.171,3.699,29.249,4.768z"/>
		</g>
		<g>
			<path class="st48" d="M32,20.605c0,0.539-0.223,1.041-0.586,1.394c-0.353,0.353-0.846,0.576-1.394,0.576H1.97
				c-1.087,0-1.97-0.883-1.97-1.97c0-0.548,0.223-1.041,0.576-1.403c0.362-0.353,0.846-0.576,1.394-0.576h28.05
				C31.108,18.626,32,19.509,32,20.605z"/>
			<path class="st48" d="M0,9.88c0-0.539,0.223-1.041,0.576-1.394C0.939,8.132,1.422,7.909,1.97,7.909h28.05
				c1.087,0,1.98,0.883,1.98,1.97c0,0.548-0.223,1.041-0.586,1.403c-0.353,0.353-0.846,0.576-1.394,0.576H1.97
				C0.883,11.859,0,10.976,0,9.88z"/>
		</g>
		<circle id="XMLID_3854_" class="st36" cx="4.979" cy="9.883" r="0.933"/>
		<circle id="XMLID_3857_" class="st36" cx="12.15" cy="9.883" r="0.933"/>
		<circle id="XMLID_3860_" class="st36" cx="19.322" cy="9.883" r="0.933"/>
		<circle id="XMLID_3862_" class="st36" cx="26.493" cy="9.883" r="0.933"/>
		<circle id="XMLID_3882_" class="st36" cx="4.979" cy="20.601" r="0.933"/>
		<circle id="XMLID_3881_" class="st36" cx="12.15" cy="20.601" r="0.933"/>
		<circle id="XMLID_3865_" class="st36" cx="19.322" cy="20.601" r="0.933"/>
		<circle id="XMLID_3864_" class="st36" cx="26.493" cy="20.601" r="0.933"/>
	</g>
	<g>
		<g id="XMLID_3866_">
			<path class="st1" d="M30.662,27.52v2.463H0.929V27.52h1.682c-0.009-0.437-0.195-1.041-0.195-1.041
				c0.251,0.158,0.511,0.744,0.632,1.041h0.084c-0.009-0.474-0.465-1.524-0.52-1.654c0.911,0.465,1.004,1.422,1.013,1.654h0.084
				c0.009-0.214,0.084-1.19,1.013-1.654c-0.056,0.13-0.511,1.18-0.521,1.654h0.074c0.13-0.297,0.381-0.883,0.641-1.041
				c0,0-0.186,0.595-0.195,1.041h0.465c-0.009-0.446-0.195-1.041-0.195-1.041c0.26,0.158,0.511,0.744,0.641,1.041h0.084
				c-0.009-0.474-0.474-1.524-0.53-1.654c0.92,0.465,1.013,1.422,1.022,1.654h0.074c0.009-0.232,0.102-1.19,1.013-1.654
				c-0.056,0.13-0.511,1.18-0.52,1.654h0.084c0.121-0.297,0.381-0.883,0.632-1.041c0,0-0.186,0.604-0.195,1.041h16.85
				c-0.009-0.446-0.195-1.041-0.195-1.041c0.26,0.158,0.511,0.744,0.641,1.041h0.074c-0.009-0.474-0.465-1.524-0.52-1.654
				c0.929,0.465,1.004,1.441,1.013,1.654h0.084c0.009-0.232,0.102-1.19,1.013-1.654c-0.056,0.13-0.511,1.18-0.52,1.654h0.074
				c0.13-0.297,0.39-0.883,0.641-1.041c0,0-0.186,0.595-0.195,1.041h0.474c-0.009-0.437-0.195-1.041-0.195-1.041
				c0.251,0.158,0.511,0.744,0.632,1.041h0.084c-0.009-0.474-0.465-1.524-0.52-1.654c0.911,0.465,1.004,1.422,1.013,1.654h0.084
				c0.009-0.214,0.084-1.19,1.013-1.654c-0.056,0.13-0.511,1.18-0.52,1.654h0.074c0.13-0.297,0.381-0.883,0.641-1.041
				c0,0-0.186,0.595-0.195,1.041H30.662z"/>
		</g>
	</g>
</g>
</svg>
