<?xml version="1.0" encoding="utf-8"?>
<!-- Generator: Adobe Illustrator 21.1.0, SVG Export Plug-In . SVG Version: 6.00 Build 0)  -->
<svg version="1.1" id="Layer_1" xmlns="http://www.w3.org/2000/svg" xmlns:xlink="http://www.w3.org/1999/xlink" x="0px" y="0px"
	 viewBox="0 0 32 32" style="enable-background:new 0 0 32 32;" xml:space="preserve">
<style type="text/css">
	.st0{fill:#8F6D52;}
	.st1{fill:#7FB241;}
	.st2{fill:#A5856D;}
	.st3{fill:#FFFFFF;}
	.st4{fill:#7FB239;}
	.st5{fill:#45CBEA;}
	.st6{fill:#5A5F63;}
	.st7{fill:#8BC540;}
	.st8{fill:#E14B4B;}
	.st9{fill:#F3C432;}
	.st10{fill:#FFD83B;}
	.st11{fill:#DAE5EF;}
	.st12{fill:#E24B4B;}
	.st13{fill:#3E4347;}
	.st14{fill:#5B5F63;}
	.st15{fill:#6DAFDF;}
	.st16{fill:#9A795F;}
	.st17{fill:#997960;}
	.st18{fill:#FFD93B;}
	.st19{fill:#E2E2E1;}
	.st20{fill:#3F4347;}
	.st21{opacity:0.02;fill:#2F3133;}
	.st22{fill:#E9EFF4;}
	.st23{fill:#DEE4E9;}
	.st24{fill:#F4C534;}
	.st25{fill:#BBC7D1;}
	.st26{fill:#DDE3E9;}
	.st27{fill:#E8EBEE;}
	.st28{fill:#DDDDDC;}
	.st29{fill:#F4F4F4;}
	.st30{fill:#777B7E;}
	.st31{opacity:0.1;fill:#231F20;}
	.st32{fill:#E574AC;}
	.st33{fill:#428DC3;}
	.st34{fill:#4CC6E5;}
	.st35{fill:#E8EFF3;}
	.st36{fill:#8E6D53;}
	.st37{fill:#719C40;}
	.st38{fill:url(#XMLID_3_);}
	.st39{fill:#FFF100;}
	.st40{fill:#9FDCF8;}
	.st41{fill:#27B2CC;}
	.st42{fill:#CBD6E0;}
	.st43{fill:#BF3333;}
	.st44{fill:#D03F3F;}
	.st45{fill:#5CA3D9;}
	.st46{fill:#CE7629;}
	.st47{fill:#E18823;}
	.st48{fill:#A4856D;}
	.st49{fill:#7BA740;}
	.st50{fill:#F29A2E;}
	.st51{fill:#F2F2F2;}
	.st52{fill:#83B844;}
	.st53{fill:#8BC04C;}
	.st54{fill:#7A5B44;}
	.st55{fill:#8CC63E;}
	.st56{fill:#89664C;}
	.st57{fill:#65B1EF;}
	.st58{fill:#4D98D2;}
	.st59{fill:#BAC6D0;}
	.st60{fill:#7AA440;}
	.st61{fill:#ACB9C1;}
	.st62{fill:#E8AF2A;}
	.st63{fill:#D03F3E;}
	.st64{fill:#DF8726;}
	.st65{fill:#DF9D27;}
	.st66{fill:#D3D9DD;}
	.st67{fill:none;stroke:#FFFFFF;stroke-width:2.5;stroke-linecap:round;stroke-linejoin:round;stroke-miterlimit:10;}
	.st68{fill:#FCD91A;}
	.st69{opacity:0.05;fill:#3F4347;}
	.st70{fill:#5F6469;}
	.st71{fill:#64696E;}
	.st72{fill:#939799;}
	.st73{fill:#6F7378;}
	.st74{fill:#D2D8DD;}
	.st75{fill:#4E99D2;}
	.st76{fill:#7B8B92;}
	.st77{fill:#38C0DC;}
	.st78{opacity:0.2;}
	.st79{fill:#FDE7AA;}
	.st80{fill:#FFDC96;}
	.st81{fill:#64892F;}
	.st82{fill:#E9B02C;}
</style>
<g>
	<g>
		<rect x="14.567" y="11.842" class="st0" width="2.866" height="14.417"/>
	</g>
	<g id="XMLID_3887_">
		<g id="XMLID_3884_">
			<rect id="XMLID_3942_" x="0.001" y="24.456" class="st1" width="31.998" height="3.916"/>
			<g id="XMLID_3929_">
				<path id="XMLID_3941_" class="st1" d="M27.467,23.34c0,0-0.267,0.835-0.2,1.303l-0.527-0.064
					C26.827,24.351,27.152,23.54,27.467,23.34z"/>
				<path id="XMLID_3940_" class="st1" d="M27.267,22.672c0,0-0.662,1.451-0.562,1.903l-0.541-0.066
					C26.164,24.509,26.131,23.24,27.267,22.672z"/>
				<path id="XMLID_3939_" class="st1" d="M26.716,24.643c-0.008-0.016-0.006-0.047-0.01-0.068l0.034,0.004
					C26.725,24.617,26.716,24.643,26.716,24.643z"/>
				<path id="XMLID_3938_" class="st1" d="M28.28,24.579l-0.527,0.064c0.067-0.468-0.2-1.303-0.2-1.303
					C27.868,23.54,28.193,24.351,28.28,24.579z"/>
				<path id="XMLID_3937_" class="st1" d="M27.753,22.672c1.136,0.568,1.102,1.837,1.102,1.837l-0.541,0.066
					C28.415,24.123,27.753,22.672,27.753,22.672z"/>
				<path id="XMLID_3936_" class="st1" d="M28.304,24.643c0,0-0.01-0.026-0.024-0.064l0.034-0.004
					C28.31,24.596,28.313,24.626,28.304,24.643z"/>
				<path id="XMLID_3935_" class="st1" d="M29.492,24.643c-0.008-0.016-0.006-0.047-0.01-0.068l0.034,0.004
					C29.502,24.617,29.492,24.643,29.492,24.643z"/>
				<path id="XMLID_3934_" class="st1" d="M30.044,22.672c0,0-0.662,1.451-0.562,1.903l-0.541-0.066
					C28.941,24.509,28.908,23.24,30.044,22.672z"/>
				<path id="XMLID_3933_" class="st1" d="M30.244,23.34c0,0-0.267,0.835-0.2,1.303l-0.527-0.064
					C29.603,24.351,29.929,23.54,30.244,23.34z"/>
				<path id="XMLID_3932_" class="st1" d="M24.776,23.34c0.315,0.2,0.641,1.011,0.728,1.239l-0.527,0.064
					C25.043,24.175,24.776,23.34,24.776,23.34z"/>
				<path id="XMLID_3931_" class="st1" d="M24.976,22.672c1.136,0.568,1.102,1.837,1.102,1.837l-0.541,0.066
					C25.638,24.123,24.976,22.672,24.976,22.672z"/>
				<path id="XMLID_3930_" class="st1" d="M25.528,24.643c0,0-0.01-0.026-0.024-0.064l0.034-0.004
					C25.533,24.596,25.536,24.626,25.528,24.643z"/>
			</g>
			<g id="XMLID_3916_">
				<path id="XMLID_3926_" class="st1" d="M3.542,24.643c-0.008-0.016-0.006-0.047-0.01-0.068l0.034,0.004
					C3.551,24.617,3.542,24.643,3.542,24.643z"/>
				<path id="XMLID_3923_" class="st1" d="M5.13,24.643c0,0-0.01-0.026-0.024-0.064l0.034-0.004
					C5.136,24.596,5.139,24.626,5.13,24.643z"/>
				<path id="XMLID_3922_" class="st1" d="M6.318,24.643c-0.008-0.016-0.006-0.047-0.01-0.068l0.034,0.004
					C6.328,24.617,6.318,24.643,6.318,24.643z"/>
				<g>
					<path id="XMLID_683_" class="st1" d="M4.285,22.61c-0.01-0.001-0.29,1.357-0.194,2.114c-0.178-0.031-0.357-0.058-0.537-0.08
						C3.606,24.269,3.898,22.935,4.285,22.61z"/>
					<path id="XMLID_682_" class="st1" d="M4.024,21.53c-0.041-0.005-0.704,2.384-0.506,3.109c-0.185-0.023-0.372-0.041-0.56-0.055
						C2.984,24.599,2.594,22.513,4.024,21.53z"/>
					<path id="XMLID_681_" class="st1" d="M5.118,24.643c-0.18,0.023-0.36,0.049-0.537,0.08c0.096-0.757-0.184-2.115-0.194-2.114
						C4.774,22.936,5.065,24.269,5.118,24.643z"/>
					<path id="XMLID_680_" class="st1" d="M4.648,21.53c1.43,0.983,1.04,3.069,1.066,3.054c-0.188,0.014-0.375,0.032-0.56,0.055
						C5.352,23.914,4.689,21.525,4.648,21.53z"/>
					<path id="XMLID_679_" class="st1" d="M7.564,21.88c-0.039-0.015-1.252,2.149-1.231,2.9c-0.175-0.066-0.353-0.128-0.532-0.186
						C5.823,24.615,5.936,22.495,7.564,21.88z"/>
					<path id="XMLID_678_" class="st1" d="M7.563,22.991c-0.01-0.003-0.605,1.249-0.691,2.008c-0.166-0.072-0.335-0.141-0.505-0.206
						C6.507,24.442,7.106,23.216,7.563,22.991z"/>
					<path id="XMLID_677_" class="st1" d="M1.109,22.991c0.457,0.224,1.056,1.451,1.196,1.802c-0.171,0.065-0.339,0.133-0.505,0.206
						C1.714,24.241,1.118,22.988,1.109,22.991z"/>
					<path id="XMLID_676_" class="st1" d="M1.108,21.88c1.628,0.615,1.74,2.735,1.763,2.715c-0.179,0.058-0.357,0.12-0.532,0.186
						C2.361,24.03,1.147,21.866,1.108,21.88z"/>
				</g>
				<path id="XMLID_3917_" class="st1" d="M2.354,24.643c0,0-0.01-0.026-0.024-0.064l0.034-0.004
					C2.359,24.596,2.362,24.626,2.354,24.643z"/>
			</g>
		</g>
		<g>
			<path id="XMLID_3891_" class="st2" d="M25.744,3.627H6.256C5.187,4.696,4.587,5.296,3.518,6.365v3.411
				c1.069,1.069,1.668,1.668,2.738,2.737h19.488c1.069-1.069,1.668-1.668,2.738-2.737V6.365C27.413,5.296,26.813,4.696,25.744,3.627
				z"/>
		</g>
		<g id="XMLID_3886_">
			<path id="XMLID_3892_" class="st3" d="M8.602,8.472V7.961h1.321V9.17C9.795,9.294,9.609,9.403,9.365,9.498
				C9.122,9.592,8.875,9.64,8.625,9.64c-0.317,0-0.594-0.067-0.83-0.2C7.559,9.307,7.382,9.116,7.263,8.868S7.085,8.351,7.085,8.06
				c0-0.316,0.066-0.597,0.199-0.843C7.416,6.972,7.61,6.783,7.865,6.652C8.06,6.552,8.302,6.501,8.592,6.501
				c0.377,0,0.671,0.079,0.883,0.237c0.212,0.158,0.348,0.376,0.409,0.655L9.275,7.507C9.232,7.358,9.152,7.241,9.034,7.154
				S8.769,7.025,8.592,7.025c-0.268,0-0.481,0.085-0.639,0.255c-0.158,0.17-0.237,0.422-0.237,0.756c0,0.36,0.08,0.63,0.24,0.81
				c0.16,0.18,0.37,0.27,0.629,0.27c0.128,0,0.257-0.025,0.386-0.076s0.24-0.111,0.332-0.183V8.472H8.602z"/>
			<path id="XMLID_3907_" class="st3" d="M13.225,9.588h-0.667l-0.265-0.689H11.08l-0.25,0.689h-0.65l1.182-3.035h0.648
				L13.225,9.588z M12.097,8.387l-0.418-1.126l-0.41,1.126H12.097z"/>
			<path id="XMLID_3912_" class="st3" d="M13.552,9.588V6.553h1.29c0.324,0,0.56,0.027,0.707,0.082
				c0.147,0.055,0.265,0.151,0.353,0.291c0.088,0.139,0.132,0.299,0.132,0.478c0,0.228-0.067,0.416-0.201,0.564
				c-0.134,0.148-0.334,0.242-0.6,0.281c0.132,0.077,0.242,0.162,0.328,0.255s0.203,0.257,0.349,0.493l0.371,0.592h-0.733
				l-0.443-0.66c-0.157-0.236-0.265-0.385-0.323-0.446s-0.119-0.104-0.184-0.126c-0.065-0.023-0.168-0.034-0.308-0.034h-0.124v1.267
				H13.552z M14.165,7.836h0.453c0.294,0,0.478-0.012,0.551-0.037c0.073-0.025,0.13-0.068,0.172-0.128
				c0.041-0.061,0.062-0.137,0.062-0.228c0-0.102-0.027-0.185-0.082-0.247c-0.055-0.063-0.131-0.102-0.231-0.119
				c-0.05-0.007-0.199-0.01-0.447-0.01h-0.478V7.836z"/>
			<path id="XMLID_3915_" class="st3" d="M16.61,6.553h1.12c0.253,0,0.445,0.019,0.578,0.058c0.178,0.052,0.331,0.146,0.458,0.279
				c0.127,0.134,0.224,0.298,0.29,0.492c0.066,0.194,0.099,0.433,0.099,0.717c0,0.25-0.031,0.465-0.093,0.646
				c-0.076,0.221-0.184,0.4-0.325,0.536c-0.106,0.104-0.25,0.184-0.431,0.242c-0.135,0.043-0.316,0.064-0.542,0.064H16.61V6.553z
				 M17.222,7.066v2.01h0.458c0.171,0,0.295-0.01,0.371-0.029c0.099-0.025,0.182-0.067,0.247-0.126
				c0.066-0.059,0.119-0.157,0.16-0.293C18.5,8.492,18.52,8.307,18.52,8.072c0-0.235-0.021-0.415-0.062-0.54
				c-0.041-0.126-0.099-0.224-0.174-0.294s-0.169-0.118-0.284-0.143c-0.086-0.019-0.253-0.029-0.503-0.029H17.222z"/>
			<path id="XMLID_3945_" class="st3" d="M19.673,9.588V6.553h2.25v0.513h-1.637v0.673h1.524v0.511h-1.524v0.826h1.695v0.511H19.673
				z"/>
			<path id="XMLID_3947_" class="st3" d="M22.508,9.588V6.553h0.596l1.242,2.027V6.553h0.569v3.035H24.3l-1.223-1.979v1.979H22.508z
				"/>
		</g>
	</g>
	<g>
		<g>
			<path id="XMLID_675_" class="st4" d="M7.458,21.959v0.215c1.156,0.319,2.006,1.376,2.006,2.633c0.069,0,0.139,0,0.208,0
				C9.672,23.434,8.73,22.284,7.458,21.959z"/>
			<g>
				<path id="XMLID_672_" class="st5" d="M6.744,22.426c0-0.195,0.143-0.355,0.33-0.385c-0.111-0.153-0.099-0.368,0.039-0.505
					c0.138-0.138,0.352-0.15,0.505-0.039c0.03-0.187,0.19-0.33,0.385-0.33s0.355,0.143,0.385,0.33
					c0.153-0.111,0.368-0.099,0.505,0.039c0.138,0.138,0.15,0.352,0.039,0.505c0.187,0.03,0.33,0.19,0.33,0.385
					s-0.143,0.355-0.33,0.385c0.111,0.153,0.099,0.368-0.039,0.505c-0.138,0.138-0.352,0.15-0.505,0.039
					c-0.03,0.187-0.19,0.33-0.385,0.33c-0.195,0-0.355-0.143-0.385-0.33c-0.153,0.111-0.368,0.099-0.505-0.039
					c-0.138-0.138-0.15-0.352-0.039-0.505C6.887,22.782,6.744,22.621,6.744,22.426z"/>
			</g>
			<circle id="XMLID_671_" class="st3" cx="8.003" cy="22.426" r="0.496"/>
			<circle id="XMLID_670_" class="st6" cx="8.003" cy="22.426" r="0.327"/>
		</g>
		<g>
			<path id="XMLID_669_" class="st4" d="M11.89,22.344c-1.155,0.213-2.111,1.12-2.323,2.345c0.067,0.012,0.134,0.023,0.202,0.035
				c0.193-1.112,1.045-1.943,2.085-2.166L11.89,22.344z"/>
			<rect id="XMLID_668_" x="9.547" y="20.224" class="st7" width="0.25" height="5.107"/>
			<path id="XMLID_667_" class="st8" d="M11.185,19.568c0-0.234-0.172-0.427-0.396-0.463c0.133-0.184,0.119-0.442-0.047-0.607
				c-0.166-0.166-0.424-0.18-0.607-0.047c-0.036-0.224-0.228-0.396-0.463-0.396c-0.234,0-0.427,0.172-0.463,0.396
				c-0.184-0.133-0.442-0.119-0.607,0.047s-0.18,0.424-0.047,0.607c-0.224,0.036-0.396,0.228-0.396,0.463
				c0,0.234,0.172,0.427,0.396,0.463c-0.133,0.184-0.119,0.442,0.047,0.607c0.166,0.166,0.424,0.18,0.607,0.047
				c0.036,0.224,0.228,0.396,0.463,0.396c0.234,0,0.427-0.172,0.463-0.396c0.184,0.133,0.442,0.119,0.607-0.047
				c0.166-0.166,0.18-0.424,0.047-0.607C11.013,19.996,11.185,19.803,11.185,19.568z"/>
			<circle id="XMLID_666_" class="st3" cx="9.672" cy="19.568" r="0.597"/>
			<circle id="XMLID_665_" class="st9" cx="9.672" cy="19.568" r="0.393"/>
			<path id="XMLID_664_" class="st9" d="M12.799,22.877c0.033-0.189-0.079-0.368-0.254-0.428c0.133-0.129,0.157-0.339,0.047-0.495
				s-0.316-0.204-0.482-0.122c0.003-0.186-0.128-0.351-0.317-0.384s-0.368,0.079-0.428,0.254c-0.129-0.133-0.339-0.157-0.495-0.047
				c-0.157,0.11-0.204,0.316-0.122,0.482c-0.186-0.003-0.351,0.129-0.384,0.317c-0.033,0.189,0.079,0.368,0.254,0.428
				c-0.133,0.129-0.157,0.339-0.047,0.495c0.11,0.157,0.316,0.204,0.482,0.122c-0.003,0.186,0.128,0.351,0.317,0.384
				c0.189,0.033,0.368-0.079,0.428-0.254c0.129,0.133,0.339,0.157,0.495,0.047c0.157-0.11,0.204-0.316,0.122-0.482
				C12.601,23.197,12.766,23.066,12.799,22.877z"/>
			
				<ellipse id="XMLID_663_" transform="matrix(0.1707 -0.9853 0.9853 0.1707 -12.7302 30.2069)" class="st3" cx="11.581" cy="22.666" rx="0.487" ry="0.487"/>
			
				<ellipse id="XMLID_662_" transform="matrix(0.1707 -0.9853 0.9853 0.1707 -12.7302 30.2069)" class="st8" cx="11.581" cy="22.666" rx="0.321" ry="0.321"/>
		</g>
	</g>
</g>
</svg>
