<?xml version="1.0" encoding="utf-8"?>
<!-- Generator: Adobe Illustrator 21.1.0, SVG Export Plug-In . SVG Version: 6.00 Build 0)  -->
<svg version="1.1" id="Layer_1" xmlns="http://www.w3.org/2000/svg" xmlns:xlink="http://www.w3.org/1999/xlink" x="0px" y="0px"
	 viewBox="0 0 32 32" style="enable-background:new 0 0 32 32;" xml:space="preserve">
<style type="text/css">
	.st0{fill:#8F6D52;}
	.st1{fill:#7FB241;}
	.st2{fill:#A5856D;}
	.st3{fill:#FFFFFF;}
	.st4{fill:#7FB239;}
	.st5{fill:#45CBEA;}
	.st6{fill:#5A5F63;}
	.st7{fill:#8BC540;}
	.st8{fill:#E14B4B;}
	.st9{fill:#F3C432;}
	.st10{fill:#FFD83B;}
	.st11{fill:#DAE5EF;}
	.st12{fill:#E24B4B;}
	.st13{fill:#3E4347;}
	.st14{fill:#5B5F63;}
	.st15{fill:#6DAFDF;}
	.st16{fill:#9A795F;}
	.st17{fill:#997960;}
	.st18{fill:#FFD93B;}
	.st19{fill:#E2E2E1;}
	.st20{fill:#3F4347;}
	.st21{opacity:0.02;fill:#2F3133;}
	.st22{fill:#E9EFF4;}
	.st23{fill:#DEE4E9;}
	.st24{fill:#F4C534;}
	.st25{fill:#BBC7D1;}
	.st26{fill:#DDE3E9;}
	.st27{fill:#E8EBEE;}
	.st28{fill:#DDDDDC;}
	.st29{fill:#F4F4F4;}
	.st30{fill:#777B7E;}
	.st31{opacity:0.1;fill:#231F20;}
	.st32{fill:#E574AC;}
	.st33{fill:#428DC3;}
	.st34{fill:#4CC6E5;}
	.st35{fill:#E8EFF3;}
	.st36{fill:#8E6D53;}
	.st37{fill:#719C40;}
	.st38{fill:url(#XMLID_3_);}
	.st39{fill:#FFF100;}
	.st40{fill:#9FDCF8;}
	.st41{fill:#27B2CC;}
	.st42{fill:#CBD6E0;}
	.st43{fill:#BF3333;}
	.st44{fill:#D03F3F;}
	.st45{fill:#5CA3D9;}
	.st46{fill:#CE7629;}
	.st47{fill:#E18823;}
	.st48{fill:#A4856D;}
	.st49{fill:#7BA740;}
	.st50{fill:#F29A2E;}
	.st51{fill:#F2F2F2;}
	.st52{fill:#83B844;}
	.st53{fill:#8BC04C;}
	.st54{fill:#7A5B44;}
	.st55{fill:#8CC63E;}
	.st56{fill:#89664C;}
	.st57{fill:#65B1EF;}
	.st58{fill:#4D98D2;}
	.st59{fill:#BAC6D0;}
	.st60{fill:#7AA440;}
	.st61{fill:#ACB9C1;}
	.st62{fill:#E8AF2A;}
	.st63{fill:#D03F3E;}
	.st64{fill:#DF8726;}
	.st65{fill:#DF9D27;}
	.st66{fill:#D3D9DD;}
	.st67{fill:none;stroke:#FFFFFF;stroke-width:2.5;stroke-linecap:round;stroke-linejoin:round;stroke-miterlimit:10;}
	.st68{fill:#FCD91A;}
	.st69{opacity:0.05;fill:#3F4347;}
	.st70{fill:#5F6469;}
	.st71{fill:#64696E;}
	.st72{fill:#939799;}
	.st73{fill:#6F7378;}
	.st74{fill:#D2D8DD;}
	.st75{fill:#4E99D2;}
	.st76{fill:#7B8B92;}
	.st77{fill:#38C0DC;}
	.st78{opacity:0.2;}
	.st79{fill:#FDE7AA;}
	.st80{fill:#FFDC96;}
	.st81{fill:#64892F;}
	.st82{fill:#E9B02C;}
</style>
<g id="XMLID_3443_">
	<g id="XMLID_3083_">
		<path id="XMLID_3085_" class="st65" d="M19.288,22.645l-7.267,7.357H32l-7.267-7.357C23.229,21.123,20.792,21.123,19.288,22.645z"
			/>
		<path id="XMLID_3152_" class="st62" d="M9.084,20.805L0,30.002h24.975l-9.084-9.196C14.011,18.903,10.964,18.903,9.084,20.805z"/>
		<path id="XMLID_3438_" class="st1" d="M6.757,18.594c-0.408,0-0.739,0.331-0.739,0.739v1.385H4.827v-3.351
			c0-0.507-0.411-0.918-0.918-0.918c-0.507,0-0.918,0.411-0.918,0.918v6.419H1.749V22.4c0-0.408-0.331-0.739-0.739-0.739
			S0.271,21.992,0.271,22.4v2.124c0,0.408,0.331,0.739,0.739,0.739h1.98v4.398h1.837v-7.465h1.93c0.408,0,0.739-0.331,0.739-0.739
			v-2.124C7.496,18.925,7.165,18.594,6.757,18.594z"/>
		<path id="XMLID_3567_" class="st9" d="M32,31.27v-4.311c-10.667-1.988-21.333,3.572-32,1.783v2.528H32z"/>
		<g id="XMLID_3437_">
			<g id="XMLID_3572_">
				<path id="XMLID_3573_" class="st1" d="M30.958,23.833h-1.122c-0.161,0-0.291-0.13-0.291-0.291c0-0.161,0.13-0.291,0.291-0.291
					h0.831v-0.546c0-0.161,0.13-0.291,0.291-0.291s0.291,0.13,0.291,0.291v0.837C31.249,23.703,31.119,23.833,30.958,23.833z"/>
			</g>
			<g id="XMLID_3570_">
				<path id="XMLID_3571_" class="st1" d="M29.836,25.042h-1.142c-0.161,0-0.291-0.13-0.291-0.291v-0.837
					c0-0.161,0.13-0.291,0.291-0.291c0.161,0,0.291,0.13,0.291,0.291v0.546h0.851c0.161,0,0.291,0.13,0.291,0.291
					S29.997,25.042,29.836,25.042z"/>
			</g>
			<g id="XMLID_3568_">
				<path id="XMLID_3569_" class="st1" d="M30.198,27.812V21.93c0-0.2-0.162-0.362-0.362-0.362c-0.2,0-0.362,0.162-0.362,0.362
					v5.881H30.198z"/>
			</g>
		</g>
	</g>
	<circle id="XMLID_3168_" class="st39" cx="6.716" cy="4.846" r="4.116"/>
</g>
</svg>
