<?xml version="1.0" encoding="utf-8"?>
<!-- Generator: Adobe Illustrator 21.1.0, SVG Export Plug-In . SVG Version: 6.00 Build 0)  -->
<svg version="1.1" id="Layer_1" xmlns="http://www.w3.org/2000/svg" xmlns:xlink="http://www.w3.org/1999/xlink" x="0px" y="0px"
	 viewBox="0 0 32 32" style="enable-background:new 0 0 32 32;" xml:space="preserve">
<style type="text/css">
	.st0{fill:#8F6D52;}
	.st1{fill:#7FB241;}
	.st2{fill:#A5856D;}
	.st3{fill:#FFFFFF;}
	.st4{fill:#7FB239;}
	.st5{fill:#45CBEA;}
	.st6{fill:#5A5F63;}
	.st7{fill:#8BC540;}
	.st8{fill:#E14B4B;}
	.st9{fill:#F3C432;}
	.st10{fill:#FFD83B;}
	.st11{fill:#DAE5EF;}
	.st12{fill:#E24B4B;}
	.st13{fill:#3E4347;}
	.st14{fill:#5B5F63;}
	.st15{fill:#6DAFDF;}
	.st16{fill:#9A795F;}
	.st17{fill:#997960;}
	.st18{fill:#FFD93B;}
	.st19{fill:#E2E2E1;}
	.st20{fill:#3F4347;}
	.st21{opacity:0.02;fill:#2F3133;}
	.st22{fill:#E9EFF4;}
	.st23{fill:#DEE4E9;}
	.st24{fill:#F4C534;}
	.st25{fill:#BBC7D1;}
	.st26{fill:#DDE3E9;}
	.st27{fill:#E8EBEE;}
	.st28{fill:#DDDDDC;}
	.st29{fill:#F4F4F4;}
	.st30{fill:#777B7E;}
	.st31{opacity:0.1;fill:#231F20;}
	.st32{fill:#E574AC;}
	.st33{fill:#428DC3;}
	.st34{fill:#4CC6E5;}
	.st35{fill:#E8EFF3;}
	.st36{fill:#8E6D53;}
	.st37{fill:#719C40;}
	.st38{fill:url(#XMLID_3_);}
	.st39{fill:#FFF100;}
	.st40{fill:#9FDCF8;}
	.st41{fill:#27B2CC;}
	.st42{fill:#CBD6E0;}
	.st43{fill:#BF3333;}
	.st44{fill:#D03F3F;}
	.st45{fill:#5CA3D9;}
	.st46{fill:#CE7629;}
	.st47{fill:#E18823;}
	.st48{fill:#A4856D;}
	.st49{fill:#7BA740;}
	.st50{fill:#F29A2E;}
	.st51{fill:#F2F2F2;}
	.st52{fill:#83B844;}
	.st53{fill:#8BC04C;}
	.st54{fill:#7A5B44;}
	.st55{fill:#8CC63E;}
	.st56{fill:#89664C;}
	.st57{fill:#65B1EF;}
	.st58{fill:#4D98D2;}
	.st59{fill:#BAC6D0;}
	.st60{fill:#7AA440;}
	.st61{fill:#ACB9C1;}
	.st62{fill:#E8AF2A;}
	.st63{fill:#D03F3E;}
	.st64{fill:#DF8726;}
	.st65{fill:#DF9D27;}
	.st66{fill:#D3D9DD;}
	.st67{fill:none;stroke:#FFFFFF;stroke-width:2.5;stroke-linecap:round;stroke-linejoin:round;stroke-miterlimit:10;}
	.st68{fill:#FCD91A;}
	.st69{opacity:0.05;fill:#3F4347;}
	.st70{fill:#5F6469;}
	.st71{fill:#64696E;}
	.st72{fill:#939799;}
	.st73{fill:#6F7378;}
	.st74{fill:#D2D8DD;}
	.st75{fill:#4E99D2;}
	.st76{fill:#7B8B92;}
	.st77{fill:#38C0DC;}
	.st78{opacity:0.2;}
	.st79{fill:#FDE7AA;}
	.st80{fill:#FFDC96;}
	.st81{fill:#64892F;}
	.st82{fill:#E9B02C;}
</style>
<g id="XMLID_4745_">
	<rect id="XMLID_5125_" x="0" y="0" class="st57" width="32" height="28.681"/>
	<g>
		<circle id="XMLID_1166_" class="st10" cx="24.49" cy="7.353" r="5.782"/>
	</g>
	<path id="XMLID_5097_" class="st3" d="M26.853,13.471c-0.181,0-0.351,0.044-0.502,0.12c-0.051-0.08-0.108-0.157-0.169-0.229
		c-0.272-0.44-0.759-0.733-1.314-0.733c-0.005,0-0.011,0-0.016,0c-0.096-0.013-0.195-0.021-0.295-0.021
		c-0.04,0-0.08,0.001-0.12,0.004c-0.27-0.853-1.067-1.472-2.01-1.472c-0.082,0-0.164,0.005-0.243,0.014
		c0.006-0.071,0.009-0.142,0.009-0.214c0-1.493-1.21-2.703-2.703-2.703c-1.493,0-2.703,1.21-2.703,2.703
		c0,0.031,0.001,0.062,0.002,0.092c-0.191-0.052-0.392-0.08-0.6-0.08c-1.267,0-2.295,1.027-2.295,2.295
		c0,0.136,0.012,0.268,0.035,0.397c-0.943,0.045-1.694,0.823-1.694,1.777c0,0.982,0.796,1.779,1.779,1.779
		c0.438,0,0.838-0.158,1.148-0.421c0.641,0.766,1.603,1.253,2.68,1.253c0.948,0,1.808-0.379,2.437-0.992
		c0.323,0.301,0.756,0.485,1.232,0.485c0.766,0,1.42-0.476,1.685-1.148c0.369,0.306,0.842,0.489,1.358,0.489
		c0.849,0,1.582-0.497,1.924-1.216c0.117,0.041,0.241,0.064,0.372,0.064c0.62,0,1.123-0.503,1.123-1.123
		S27.473,13.471,26.853,13.471z"/>
	<g class="st78">
		<path id="XMLID_106_" class="st3" d="M11.971,5.388c-0.113,0-0.219,0.027-0.314,0.075c-0.032-0.05-0.067-0.098-0.106-0.143
			c-0.17-0.275-0.474-0.458-0.82-0.458c-0.003,0-0.007,0-0.01,0C10.661,4.854,10.6,4.85,10.537,4.85
			c-0.025,0-0.05,0.001-0.075,0.002c-0.168-0.533-0.667-0.919-1.255-0.919c-0.051,0-0.102,0.003-0.152,0.009
			c0.003-0.044,0.006-0.089,0.006-0.134c0-0.932-0.756-1.687-1.687-1.687S5.686,2.876,5.686,3.808c0,0.019,0.001,0.039,0.001,0.058
			c-0.119-0.032-0.245-0.05-0.374-0.05c-0.791,0-1.433,0.641-1.433,1.433c0,0.085,0.008,0.168,0.022,0.248
			C3.314,5.525,2.845,6.011,2.845,6.606c0,0.613,0.497,1.111,1.111,1.111c0.273,0,0.523-0.099,0.717-0.263
			c0.4,0.478,1.001,0.783,1.673,0.783c0.592,0,1.129-0.236,1.522-0.619C8.07,7.805,8.34,7.92,8.637,7.92
			c0.478,0,0.887-0.297,1.052-0.717c0.23,0.191,0.526,0.306,0.848,0.306c0.53,0,0.988-0.31,1.201-0.759
			c0.073,0.026,0.151,0.04,0.232,0.04c0.387,0,0.701-0.314,0.701-0.701C12.672,5.702,12.358,5.388,11.971,5.388z"/>
	</g>
	<path id="XMLID_4362_" class="st79" d="M32,27.368C21.333,28.963,10.667,19.652,0,25.573v3.493H32V27.368z"/>
	<path id="XMLID_1172_" class="st80" d="M32,23.917C21.333,25.936,10.667,30.635,0,25.451C0,26.827,0,30.624,0,32H32V23.917z"/>
	<g id="XMLID_5109_">
		<g id="XMLID_5114_">
			<path id="XMLID_5115_" class="st37" d="M29.653,26.289h-1.914c-0.342,0-0.619-0.277-0.619-0.619s0.277-0.619,0.619-0.619h1.295
				v-0.999c0-0.342,0.277-0.619,0.619-0.619s0.619,0.277,0.619,0.619v1.618C30.272,26.013,29.995,26.289,29.653,26.289z"/>
		</g>
		<g id="XMLID_5111_">
			<path id="XMLID_5113_" class="st37" d="M27.196,28.625h-1.92c-0.342,0-0.619-0.277-0.619-0.619v-1.618
				c0-0.342,0.277-0.619,0.619-0.619c0.342,0,0.619,0.277,0.619,0.619v0.998h1.301c0.342,0,0.619,0.277,0.619,0.619
				S27.538,28.625,27.196,28.625z"/>
		</g>
		<g id="XMLID_5110_">
			<path id="XMLID_5112_" class="st37" d="M28.183,29.486h-1.399v-6.931c0-0.386,0.313-0.7,0.7-0.7l0,0c0.386,0,0.7,0.313,0.7,0.699
				V29.486z"/>
		</g>
	</g>
	<g id="XMLID_1168_">
		<g id="XMLID_5107_">
			<path id="XMLID_5108_" class="st37" d="M11.18,26.296H7.106c-0.584,0-1.057-0.473-1.057-1.057s0.473-1.057,1.057-1.057h3.017
				v-1.981c0-0.584,0.473-1.057,1.057-1.057c0.584,0,1.057,0.473,1.057,1.057v3.038C12.237,25.822,11.764,26.296,11.18,26.296z"/>
		</g>
		<g id="XMLID_5103_">
			<path id="XMLID_5106_" class="st37" d="M7.106,21.031H2.96c-0.584,0-1.057-0.473-1.057-1.057v-3.038
				c0-0.584,0.473-1.057,1.057-1.057s1.057,0.473,1.057,1.057v1.981h3.089c0.584,0,1.057,0.473,1.057,1.057
				S7.69,21.031,7.106,21.031z"/>
		</g>
		<g id="XMLID_5102_">
			<path id="XMLID_5104_" class="st37" d="M8.42,30.009H5.793V15.922c0-0.725,0.588-1.314,1.314-1.314h0
				c0.725,0,1.314,0.588,1.314,1.314V30.009z"/>
		</g>
	</g>
</g>
</svg>
