<?xml version="1.0" encoding="utf-8"?>
<!-- Generator: Adobe Illustrator 21.1.0, SVG Export Plug-In . SVG Version: 6.00 Build 0)  -->
<svg version="1.1" id="Layer_1" xmlns="http://www.w3.org/2000/svg" xmlns:xlink="http://www.w3.org/1999/xlink" x="0px" y="0px"
	 viewBox="0 0 32 32" style="enable-background:new 0 0 32 32;" xml:space="preserve">
<style type="text/css">
	.st0{fill:#FFD83B;}
	.st1{fill:#F2F2F2;}
	.st2{fill:#F3C432;}
	.st3{fill:#DEE4E9;}
	.st4{fill:#E9EFF4;}
	.st5{fill:#6DAFDF;}
	.st6{fill:#5CA3D9;}
	.st7{fill:#4D98D2;}
	.st8{fill:#E8EFF3;}
	.st9{fill:#DDE3E9;}
	.st10{fill:#4CC6E5;}
	.st11{opacity:0.05;fill:#2F3133;}
	.st12{fill:#E14B4B;}
	.st13{fill:#D3D9DD;}
	.st14{fill:#65B1EF;}
	.st15{fill:#8CC63E;}
	.st16{fill:#E84D88;}
	.st17{fill:#A4856D;}
	.st18{fill:#8BC540;}
	.st19{fill:#7FB241;}
	.st20{fill:#8E6D53;}
	.st21{fill:#FFFFFF;}
	.st22{fill:#9A795F;}
	.st23{fill:#E24B4B;}
	.st24{fill:#F2992D;}
	.st25{fill:#DF8726;}
	.st26{fill:#997960;}
	.st27{fill:#FFD93B;}
	.st28{fill:#E8AF2A;}
	.st29{fill:#D23F77;}
	.st30{fill:#D03F3F;}
	.st31{fill:#BF3332;}
	.st32{fill:#D03F3E;}
	.st33{fill:#BF3333;}
	.st34{fill:#F4C534;}
	.st35{fill:#8F6D52;}
	.st36{fill:#E9B02C;}
	.st37{fill:#5A5F63;}
	.st38{fill:#F4F4F4;}
	.st39{fill:#E74C87;}
	.st40{fill:#D24078;}
	.st41{fill:#5B5F63;}
	.st42{fill:#3F4347;}
	.st43{fill:#719C40;}
	.st44{fill:#7B5C45;}
	.st45{fill:#BB3166;}
	.st46{fill:#89664C;}
	.st47{fill:#77589F;}
	.st48{fill:#8066AA;}
	.st49{fill:#8D7FB6;}
	.st50{fill:#88BA40;}
	.st51{fill:#FDE7AA;}
	.st52{fill:#7FB239;}
	.st53{fill:#45CBEA;}
	.st54{fill:#ACB9C1;}
	.st55{fill:#DAE5EF;}
	.st56{fill:#7CA740;}
	.st57{fill:#88BF40;}
	.st58{fill:#85BB40;}
	.st59{fill:#FFF100;}
	.st60{fill:#FFDD00;}
	.st61{fill:#F29A2E;}
	.st62{fill:#3E4347;}
	.st63{fill:#59A5E0;}
	.st64{fill:#2F3133;}
	.st65{fill:#EDEDEF;}
	.st66{fill:#4E99D2;}
	.st67{fill:#A5856D;}
</style>
<g id="XMLID_1195_">
	<g id="XMLID_1209_">
		<path id="XMLID_1212_" class="st8" d="M24.162,5.594C22.889,2.322,19.717,0,15.996,0c-3.722,0-6.894,2.322-8.167,5.594
			C4.396,5.491,1.672,8.24,1.672,11.561c0,3.301,2.676,5.976,5.976,5.976c1.416,0,2.716-0.495,3.74-1.319
			c2.836,1.758,6.377,1.76,9.216,0c1.024,0.823,2.324,1.319,3.74,1.319c3.301,0,5.976-2.676,5.976-5.976
			C30.32,8.239,27.594,5.491,24.162,5.594z"/>
		<path id="XMLID_1211_" class="st9" d="M11.972,6.8c-1.019-1.077-2.334-1.773-3.789-1.947C8.064,5.092,7.936,5.325,7.838,5.575
			c1.475,0.013,2.736,0.493,3.861,1.499c1.314,1.239,1.749,2.587,1.887,4.089C13.571,9.558,13.192,8.155,11.972,6.8z"/>
		<path id="XMLID_1210_" class="st9" d="M18.367,11.561c-0.114-2.35,0.896-4.17,2.534-5.291c2.009-1.388,4.787-1.449,6.886-0.001
			c1.848,1.262,2.632,3.268,2.533,5.292c-0.208-2.066-1.208-3.602-2.905-4.722C25.6,5.679,23.055,5.7,21.272,6.838
			C19.51,8.002,18.562,9.6,18.367,11.561z"/>
	</g>
	<g id="XMLID_1058_">
		<path id="XMLID_1218_" class="st10" d="M11.791,22.095h-0.397l0.294-0.294c0.071-0.071,0.071-0.186,0-0.257
			c-0.071-0.071-0.186-0.071-0.257,0l-0.551,0.551h-0.558l0.294-0.294c0.071-0.071,0.071-0.186,0-0.257
			c-0.071-0.071-0.186-0.071-0.257,0L9.81,22.095H8.882c-0.023-0.109-0.066-0.209-0.125-0.299l0.657-0.657h0.779
			c0.1,0,0.181-0.081,0.181-0.181s-0.081-0.181-0.181-0.181H9.777l0.394-0.394h0.779c0.1,0,0.181-0.081,0.181-0.181
			s-0.081-0.181-0.181-0.181h-0.416l0.281-0.281c0.071-0.071,0.071-0.186,0-0.257c-0.071-0.071-0.186-0.071-0.257,0l-0.281,0.281
			v-0.416c0-0.1-0.081-0.181-0.181-0.181c-0.1,0-0.181,0.081-0.181,0.181v0.779L9.52,20.519v-0.416c0-0.1-0.081-0.181-0.181-0.181
			c-0.1,0-0.181,0.081-0.181,0.181v0.779L8.5,21.539c-0.09-0.059-0.191-0.102-0.299-0.125v-0.928l0.551-0.551
			c0.071-0.071,0.071-0.186,0-0.257c-0.071-0.071-0.186-0.071-0.257,0l-0.294,0.294v-0.558l0.551-0.551
			c0.071-0.071,0.071-0.186,0-0.257c-0.071-0.071-0.186-0.071-0.257,0l-0.294,0.294v-0.397c0-0.1-0.081-0.181-0.181-0.181
			s-0.181,0.081-0.181,0.181v0.397l-0.294-0.294c-0.071-0.071-0.186-0.071-0.257,0c-0.071,0.071-0.071,0.186,0,0.257l0.551,0.551
			v0.558l-0.294-0.294c-0.071-0.071-0.186-0.071-0.257,0c-0.071,0.071-0.071,0.186,0,0.257l0.551,0.551v0.928
			c-0.108,0.023-0.209,0.066-0.299,0.125l-0.657-0.657v-0.779c0-0.1-0.081-0.181-0.181-0.181c-0.1,0-0.181,0.081-0.181,0.181v0.416
			l-0.394-0.394v-0.779c0-0.1-0.081-0.181-0.181-0.181c-0.1,0-0.181,0.081-0.181,0.181v0.416L5.48,19.481
			c-0.071-0.071-0.186-0.071-0.257,0c-0.071,0.071-0.071,0.186,0,0.257l0.281,0.281H5.088c-0.1,0-0.181,0.081-0.181,0.181
			s0.081,0.181,0.181,0.181h0.779l0.394,0.394H5.846c-0.1,0-0.181,0.081-0.181,0.181s0.081,0.181,0.181,0.181h0.779l0.657,0.657
			c-0.059,0.09-0.102,0.191-0.125,0.299H6.229l-0.551-0.551c-0.071-0.071-0.186-0.071-0.257,0c-0.071,0.071-0.071,0.186,0,0.257
			l0.294,0.294H5.158l-0.551-0.551c-0.071-0.071-0.186-0.071-0.257,0c-0.071,0.071-0.071,0.186,0,0.257l0.294,0.294H4.247
			c-0.1,0-0.181,0.081-0.181,0.181s0.081,0.181,0.181,0.181h0.397L4.35,22.752c-0.071,0.071-0.071,0.186,0,0.257
			c0.071,0.071,0.186,0.071,0.257,0l0.551-0.551h0.558l-0.294,0.294c-0.071,0.071-0.071,0.186,0,0.257
			c0.071,0.071,0.186,0.071,0.257,0l0.551-0.551h0.928c0.023,0.108,0.066,0.209,0.125,0.299l-0.657,0.657H5.846
			c-0.1,0-0.181,0.081-0.181,0.181s0.081,0.181,0.181,0.181h0.416l-0.394,0.394H5.088c-0.1,0-0.181,0.081-0.181,0.181
			c0,0.1,0.081,0.181,0.181,0.181h0.416l-0.281,0.281c-0.071,0.071-0.071,0.186,0,0.257c0.071,0.071,0.186,0.071,0.257,0
			l0.281-0.281v0.416c0,0.1,0.081,0.181,0.181,0.181c0.1,0,0.181-0.081,0.181-0.181v-0.779l0.394-0.394v0.416
			c0,0.1,0.081,0.181,0.181,0.181c0.1,0,0.181-0.081,0.181-0.181v-0.779l0.657-0.657c0.09,0.059,0.191,0.102,0.299,0.125v0.928
			l-0.551,0.551c-0.071,0.071-0.071,0.186,0,0.257c0.071,0.071,0.186,0.071,0.257,0l0.294-0.294v0.558l-0.551,0.551
			c-0.071,0.071-0.071,0.186,0,0.257c0.071,0.071,0.186,0.071,0.257,0l0.294-0.294v0.397c0,0.1,0.081,0.181,0.181,0.181
			s0.181-0.081,0.181-0.181v-0.397l0.294,0.294c0.071,0.071,0.186,0.071,0.257,0c0.071-0.071,0.071-0.186,0-0.257l-0.551-0.551
			V24.58l0.294,0.294c0.071,0.071,0.186,0.071,0.257,0c0.071-0.071,0.071-0.186,0-0.257l-0.551-0.551v-0.928
			c0.109-0.023,0.209-0.066,0.299-0.125l0.657,0.657v0.779c0,0.1,0.081,0.181,0.181,0.181c0.1,0,0.181-0.081,0.181-0.181v-0.416
			l0.394,0.394v0.779c0,0.1,0.081,0.181,0.181,0.181c0.1,0,0.181-0.081,0.181-0.181v-0.416l0.281,0.281
			c0.071,0.071,0.186,0.071,0.257,0c0.071-0.071,0.071-0.186,0-0.257l-0.281-0.281h0.416c0.1,0,0.181-0.081,0.181-0.181
			c0-0.1-0.081-0.181-0.181-0.181h-0.779l-0.394-0.394h0.416c0.1,0,0.181-0.081,0.181-0.181s-0.081-0.181-0.181-0.181H9.414
			l-0.657-0.657c0.059-0.09,0.102-0.191,0.125-0.299H9.81l0.551,0.551c0.071,0.071,0.186,0.071,0.257,0
			c0.071-0.071,0.071-0.186,0-0.257l-0.294-0.294h0.558l0.551,0.551c0.071,0.071,0.186,0.071,0.257,0
			c0.071-0.071,0.071-0.186,0-0.257l-0.294-0.294h0.397c0.1,0,0.181-0.081,0.181-0.181S11.891,22.095,11.791,22.095z M8.019,22.795
			c-0.286,0-0.518-0.233-0.518-0.518s0.233-0.518,0.518-0.518c0.286,0,0.519,0.233,0.519,0.518S8.305,22.795,8.019,22.795z"/>
		<path id="XMLID_1192_" class="st10" d="M27.772,22.095h-0.397l0.294-0.294c0.071-0.071,0.071-0.186,0-0.257
			c-0.071-0.071-0.186-0.071-0.257,0l-0.551,0.551h-0.558l0.294-0.294c0.071-0.071,0.071-0.186,0-0.257
			c-0.071-0.071-0.186-0.071-0.257,0l-0.551,0.551h-0.928c-0.023-0.109-0.066-0.209-0.125-0.299l0.657-0.657h0.779
			c0.1,0,0.181-0.081,0.181-0.181s-0.081-0.181-0.181-0.181h-0.416l0.394-0.394h0.779c0.1,0,0.181-0.081,0.181-0.181
			s-0.081-0.181-0.181-0.181h-0.416l0.281-0.281c0.071-0.071,0.071-0.186,0-0.257c-0.071-0.071-0.186-0.071-0.257,0l-0.281,0.281
			v-0.416c0-0.1-0.081-0.181-0.181-0.181s-0.181,0.081-0.181,0.181v0.779l-0.394,0.394v-0.416c0-0.1-0.081-0.181-0.181-0.181
			s-0.181,0.081-0.181,0.181v0.779l-0.657,0.657c-0.09-0.059-0.191-0.102-0.299-0.125v-0.928l0.551-0.551
			c0.071-0.071,0.071-0.186,0-0.257c-0.071-0.071-0.186-0.071-0.257,0l-0.294,0.294v-0.558l0.551-0.551
			c0.071-0.071,0.071-0.186,0-0.257c-0.071-0.071-0.186-0.071-0.257,0l-0.294,0.294v-0.397c0-0.1-0.081-0.181-0.181-0.181
			s-0.181,0.081-0.181,0.181v0.397l-0.294-0.294c-0.071-0.071-0.186-0.071-0.257,0c-0.071,0.071-0.071,0.186,0,0.257l0.551,0.551
			v0.558l-0.294-0.294c-0.071-0.071-0.186-0.071-0.257,0c-0.071,0.071-0.071,0.186,0,0.257l0.551,0.551v0.928
			c-0.108,0.023-0.209,0.066-0.299,0.125l-0.657-0.657v-0.779c0-0.1-0.081-0.181-0.181-0.181c-0.1,0-0.181,0.081-0.181,0.181v0.416
			l-0.394-0.394v-0.779c0-0.1-0.081-0.181-0.181-0.181s-0.181,0.081-0.181,0.181v0.416l-0.281-0.281
			c-0.071-0.071-0.186-0.071-0.257,0c-0.071,0.071-0.071,0.186,0,0.257l0.281,0.281h-0.416c-0.1,0-0.181,0.081-0.181,0.181
			s0.081,0.181,0.181,0.181h0.779l0.394,0.394h-0.416c-0.1,0-0.181,0.081-0.181,0.181s0.081,0.181,0.181,0.181h0.779l0.657,0.657
			c-0.059,0.09-0.102,0.191-0.125,0.299H22.21l-0.551-0.551c-0.071-0.071-0.186-0.071-0.257,0c-0.071,0.071-0.071,0.186,0,0.257
			l0.294,0.294h-0.558l-0.551-0.551c-0.071-0.071-0.186-0.071-0.257,0c-0.071,0.071-0.071,0.186,0,0.257l0.294,0.294h-0.397
			c-0.1,0-0.181,0.081-0.181,0.181s0.081,0.181,0.181,0.181h0.397l-0.294,0.294c-0.071,0.071-0.071,0.186,0,0.257
			c0.071,0.071,0.186,0.071,0.257,0l0.551-0.551h0.558l-0.294,0.294c-0.071,0.071-0.071,0.186,0,0.257
			c0.035,0.035,0.082,0.053,0.128,0.053s0.093-0.018,0.128-0.053l0.551-0.551h0.928c0.023,0.108,0.066,0.209,0.125,0.299
			l-0.657,0.657h-0.779c-0.1,0-0.181,0.081-0.181,0.181s0.081,0.181,0.181,0.181h0.416l-0.394,0.394h-0.779
			c-0.1,0-0.181,0.081-0.181,0.181c0,0.1,0.081,0.181,0.181,0.181h0.416l-0.281,0.281c-0.071,0.071-0.071,0.186,0,0.257
			c0.071,0.071,0.186,0.071,0.257,0l0.281-0.281v0.416c0,0.1,0.081,0.181,0.181,0.181s0.181-0.081,0.181-0.181v-0.779l0.394-0.394
			v0.416c0,0.1,0.081,0.181,0.181,0.181c0.1,0,0.181-0.081,0.181-0.181v-0.779l0.657-0.657c0.09,0.059,0.191,0.102,0.299,0.125
			v0.928l-0.551,0.551c-0.071,0.071-0.071,0.186,0,0.257c0.071,0.071,0.186,0.071,0.257,0l0.294-0.294v0.558l-0.551,0.551
			c-0.071,0.071-0.071,0.186,0,0.257c0.071,0.071,0.186,0.071,0.257,0l0.294-0.294v0.397c0,0.1,0.081,0.181,0.181,0.181
			s0.181-0.081,0.181-0.181v-0.397l0.294,0.294c0.071,0.071,0.186,0.071,0.257,0c0.071-0.071,0.071-0.186,0-0.257l-0.551-0.551
			V24.58l0.294,0.294c0.071,0.071,0.186,0.071,0.257,0c0.071-0.071,0.071-0.186,0-0.257l-0.551-0.551v-0.928
			c0.109-0.023,0.209-0.066,0.299-0.125l0.657,0.657v0.779c0,0.1,0.081,0.181,0.181,0.181s0.181-0.081,0.181-0.181v-0.416
			l0.394,0.394v0.779c0,0.1,0.081,0.181,0.181,0.181s0.181-0.081,0.181-0.181v-0.416l0.281,0.281c0.071,0.071,0.186,0.071,0.257,0
			c0.071-0.071,0.071-0.186,0-0.257l-0.281-0.281h0.416c0.1,0,0.181-0.081,0.181-0.181c0-0.1-0.081-0.181-0.181-0.181h-0.779
			l-0.394-0.394h0.416c0.1,0,0.181-0.081,0.181-0.181s-0.081-0.181-0.181-0.181h-0.779l-0.657-0.657
			c0.059-0.09,0.102-0.191,0.125-0.299h0.928l0.551,0.551c0.071,0.071,0.186,0.071,0.257,0c0.071-0.071,0.071-0.186,0-0.257
			l-0.294-0.294h0.558l0.551,0.551c0.035,0.035,0.082,0.053,0.128,0.053s0.093-0.018,0.128-0.053c0.071-0.071,0.071-0.186,0-0.257
			l-0.294-0.294h0.397c0.1,0,0.181-0.081,0.181-0.181S27.872,22.095,27.772,22.095z M24,22.795c-0.286,0-0.518-0.233-0.518-0.518
			s0.233-0.518,0.518-0.518c0.286,0,0.519,0.233,0.519,0.518S24.286,22.795,24,22.795z"/>
	</g>
	<path id="XMLID_1206_" class="st10" d="M19.782,27.865h-0.397l0.294-0.294c0.071-0.071,0.071-0.186,0-0.257
		c-0.071-0.071-0.186-0.071-0.257,0l-0.551,0.551h-0.558l0.294-0.294c0.071-0.071,0.071-0.186,0-0.257
		c-0.071-0.071-0.186-0.071-0.257,0L17.8,27.865h-0.928c-0.023-0.109-0.066-0.209-0.125-0.299l0.657-0.657h0.779
		c0.1,0,0.181-0.081,0.181-0.181c0-0.1-0.081-0.181-0.181-0.181h-0.416l0.394-0.394h0.779c0.1,0,0.181-0.081,0.181-0.181
		s-0.081-0.181-0.181-0.181h-0.416l0.281-0.281c0.071-0.071,0.071-0.186,0-0.257c-0.071-0.071-0.186-0.071-0.257,0l-0.281,0.281
		v-0.416c0-0.1-0.081-0.181-0.181-0.181s-0.181,0.081-0.181,0.181v0.779l-0.394,0.394v-0.416c0-0.1-0.081-0.181-0.181-0.181
		s-0.181,0.081-0.181,0.181v0.779l-0.657,0.657c-0.09-0.059-0.191-0.102-0.299-0.125v-0.928l0.551-0.551
		c0.071-0.071,0.071-0.186,0-0.257c-0.071-0.071-0.186-0.071-0.257,0l-0.294,0.294v-0.558l0.551-0.551
		c0.071-0.071,0.071-0.186,0-0.257c-0.071-0.071-0.186-0.071-0.257,0l-0.294,0.294v-0.397c0-0.1-0.081-0.181-0.181-0.181
		c-0.1,0-0.181,0.081-0.181,0.181v0.397l-0.294-0.294c-0.071-0.071-0.186-0.071-0.257,0c-0.071,0.071-0.071,0.186,0,0.257
		l0.551,0.551v0.558l-0.294-0.294c-0.071-0.071-0.186-0.071-0.257,0c-0.071,0.071-0.071,0.186,0,0.257l0.551,0.551v0.928
		c-0.108,0.023-0.209,0.066-0.299,0.125l-0.657-0.657v-0.779c0-0.1-0.081-0.181-0.181-0.181s-0.181,0.081-0.181,0.181v0.416
		l-0.394-0.394v-0.779c0-0.1-0.081-0.181-0.181-0.181s-0.181,0.081-0.181,0.181v0.416l-0.281-0.281
		c-0.071-0.071-0.186-0.071-0.257,0c-0.071,0.071-0.071,0.186,0,0.257l0.281,0.281h-0.416c-0.1,0-0.181,0.081-0.181,0.181
		s0.081,0.181,0.181,0.181h0.779l0.394,0.394h-0.416c-0.1,0-0.181,0.081-0.181,0.181c0,0.1,0.081,0.181,0.181,0.181h0.779
		l0.657,0.657c-0.059,0.09-0.102,0.191-0.125,0.299h-0.928l-0.551-0.551c-0.071-0.071-0.186-0.071-0.257,0
		c-0.071,0.071-0.071,0.186,0,0.257l0.294,0.294h-0.558l-0.551-0.551c-0.071-0.071-0.186-0.071-0.257,0
		c-0.071,0.071-0.071,0.186,0,0.257l0.294,0.294h-0.397c-0.1,0-0.181,0.081-0.181,0.181s0.081,0.181,0.181,0.181h0.397l-0.294,0.294
		c-0.071,0.071-0.071,0.186,0,0.257c0.071,0.071,0.186,0.071,0.257,0l0.551-0.551h0.558l-0.294,0.294
		c-0.071,0.071-0.071,0.186,0,0.257c0.071,0.071,0.186,0.071,0.257,0l0.551-0.551h0.928c0.023,0.108,0.066,0.209,0.125,0.299
		l-0.657,0.657h-0.779c-0.1,0-0.181,0.081-0.181,0.181s0.081,0.181,0.181,0.181h0.416l-0.394,0.394h-0.779
		c-0.1,0-0.181,0.081-0.181,0.181s0.081,0.181,0.181,0.181h0.416l-0.281,0.281c-0.071,0.071-0.071,0.186,0,0.257
		c0.071,0.071,0.186,0.071,0.257,0l0.281-0.281v0.416c0,0.1,0.081,0.181,0.181,0.181s0.181-0.081,0.181-0.181v-0.779l0.394-0.394
		v0.416c0,0.1,0.081,0.181,0.181,0.181s0.181-0.081,0.181-0.181v-0.779l0.657-0.657c0.09,0.059,0.191,0.102,0.299,0.125v0.928
		l-0.551,0.551c-0.071,0.071-0.071,0.186,0,0.257c0.071,0.071,0.186,0.071,0.257,0l0.294-0.294v0.558l-0.551,0.551
		c-0.071,0.071-0.071,0.186,0,0.257c0.071,0.071,0.186,0.071,0.257,0l0.294-0.294v0.397c0,0.1,0.081,0.181,0.181,0.181
		c0.1,0,0.181-0.081,0.181-0.181v-0.397l0.294,0.294c0.071,0.071,0.186,0.071,0.257,0c0.071-0.071,0.071-0.186,0-0.257l-0.551-0.551
		V30.35l0.294,0.294c0.071,0.071,0.186,0.071,0.257,0c0.071-0.071,0.071-0.186,0-0.257l-0.551-0.551v-0.928
		c0.109-0.023,0.209-0.066,0.299-0.125l0.657,0.657v0.779c0,0.1,0.081,0.181,0.181,0.181s0.181-0.081,0.181-0.181v-0.416
		l0.394,0.394v0.779c0,0.1,0.081,0.181,0.181,0.181s0.181-0.081,0.181-0.181v-0.416l0.281,0.281c0.071,0.071,0.186,0.071,0.257,0
		c0.071-0.071,0.071-0.186,0-0.257l-0.281-0.281h0.416c0.1,0,0.181-0.081,0.181-0.181s-0.081-0.181-0.181-0.181h-0.779l-0.394-0.394
		h0.416c0.1,0,0.181-0.081,0.181-0.181s-0.081-0.181-0.181-0.181h-0.779l-0.657-0.657c0.059-0.09,0.102-0.191,0.125-0.299H17.8
		l0.551,0.551c0.071,0.071,0.186,0.071,0.257,0c0.071-0.071,0.071-0.186,0-0.257l-0.294-0.294h0.558l0.551,0.551
		c0.071,0.071,0.186,0.071,0.257,0s0.071-0.186,0-0.257l-0.294-0.294h0.397c0.1,0,0.181-0.081,0.181-0.181
		S19.882,27.865,19.782,27.865z M16.01,28.565c-0.286,0-0.518-0.233-0.518-0.518c0-0.286,0.233-0.518,0.518-0.518
		c0.286,0,0.519,0.233,0.519,0.518C16.528,28.333,16.296,28.565,16.01,28.565z"/>
</g>
</svg>
