<?xml version="1.0" encoding="utf-8"?>
<!-- Generator: Adobe Illustrator 21.1.0, SVG Export Plug-In . SVG Version: 6.00 Build 0)  -->
<svg version="1.1" id="Layer_1" xmlns="http://www.w3.org/2000/svg" xmlns:xlink="http://www.w3.org/1999/xlink" x="0px" y="0px"
	 viewBox="0 0 32 32" style="enable-background:new 0 0 32 32;" xml:space="preserve">
<style type="text/css">
	.st0{fill:#8F6D52;}
	.st1{fill:#7FB241;}
	.st2{fill:#A5856D;}
	.st3{fill:#FFFFFF;}
	.st4{fill:#7FB239;}
	.st5{fill:#45CBEA;}
	.st6{fill:#5A5F63;}
	.st7{fill:#8BC540;}
	.st8{fill:#E14B4B;}
	.st9{fill:#F3C432;}
	.st10{fill:#FFD83B;}
	.st11{fill:#DAE5EF;}
	.st12{fill:#E24B4B;}
	.st13{fill:#3E4347;}
	.st14{fill:#5B5F63;}
	.st15{fill:#6DAFDF;}
	.st16{fill:#9A795F;}
	.st17{fill:#997960;}
	.st18{fill:#FFD93B;}
	.st19{fill:#E2E2E1;}
	.st20{fill:#3F4347;}
	.st21{opacity:0.02;fill:#2F3133;}
	.st22{fill:#E9EFF4;}
	.st23{fill:#DEE4E9;}
	.st24{fill:#F4C534;}
	.st25{fill:#BBC7D1;}
	.st26{fill:#DDE3E9;}
	.st27{fill:#E8EBEE;}
	.st28{fill:#DDDDDC;}
	.st29{fill:#F4F4F4;}
	.st30{fill:#777B7E;}
	.st31{opacity:0.1;fill:#231F20;}
	.st32{fill:#E574AC;}
	.st33{fill:#428DC3;}
	.st34{fill:#4CC6E5;}
	.st35{fill:#E8EFF3;}
	.st36{fill:#8E6D53;}
	.st37{fill:#719C40;}
	.st38{fill:url(#XMLID_3_);}
	.st39{fill:#FFF100;}
	.st40{fill:#9FDCF8;}
	.st41{fill:#27B2CC;}
	.st42{fill:#CBD6E0;}
	.st43{fill:#BF3333;}
	.st44{fill:#D03F3F;}
	.st45{fill:#5CA3D9;}
	.st46{fill:#CE7629;}
	.st47{fill:#E18823;}
	.st48{fill:#A4856D;}
	.st49{fill:#7BA740;}
	.st50{fill:#F29A2E;}
	.st51{fill:#F2F2F2;}
	.st52{fill:#83B844;}
	.st53{fill:#8BC04C;}
	.st54{fill:#7A5B44;}
	.st55{fill:#8CC63E;}
	.st56{fill:#89664C;}
	.st57{fill:#65B1EF;}
	.st58{fill:#4D98D2;}
	.st59{fill:#BAC6D0;}
	.st60{fill:#7AA440;}
	.st61{fill:#ACB9C1;}
	.st62{fill:#E8AF2A;}
	.st63{fill:#D03F3E;}
	.st64{fill:#DF8726;}
	.st65{fill:#DF9D27;}
	.st66{fill:#D3D9DD;}
	.st67{fill:none;stroke:#FFFFFF;stroke-width:2.5;stroke-linecap:round;stroke-linejoin:round;stroke-miterlimit:10;}
	.st68{fill:#FCD91A;}
	.st69{opacity:0.05;fill:#3F4347;}
	.st70{fill:#5F6469;}
	.st71{fill:#64696E;}
	.st72{fill:#939799;}
	.st73{fill:#6F7378;}
	.st74{fill:#D2D8DD;}
	.st75{fill:#4E99D2;}
	.st76{fill:#7B8B92;}
	.st77{fill:#38C0DC;}
	.st78{opacity:0.2;}
	.st79{fill:#FDE7AA;}
	.st80{fill:#FFDC96;}
	.st81{fill:#64892F;}
	.st82{fill:#E9B02C;}
</style>
<g id="XMLID_5133_">
	<g id="XMLID_5191_">
		<rect id="XMLID_5192_" x="-0.002" y="-0.002" class="st57" width="32" height="18.222"/>
	</g>
	<g id="XMLID_5182_">
		<polygon id="XMLID_5173_" class="st14" points="-0.002,18.214 3.057,14.089 4.329,15.601 6.46,13.436 7.56,14.811 9.794,11.889 
			11.1,13.539 15.912,10.721 21.171,13.952 22.202,12.817 23.199,14.089 24.264,12.886 26.395,15.842 28.217,13.23 31.998,18.214 		
			"/>
		<g id="XMLID_5179_">
			<polygon id="XMLID_5174_" class="st30" points="1.407,17.183 3.16,15.086 2.782,16.77 			"/>
			<polygon id="XMLID_5162_" class="st30" points="3.435,17.183 6.46,14.467 6.804,15.292 5.497,16.908 6.219,16.873 9.656,13.264 
				10.481,15.67 9.416,15.223 10.653,17.595 3.435,17.595 			"/>
			<polygon id="XMLID_5175_" class="st30" points="10.069,13.264 11.066,15.086 13.3,16.134 14.022,14.089 15.671,12.336 
				17.631,14.914 17.459,12.955 19.865,14.089 15.998,11.374 12.062,13.917 			"/>
			<polygon id="XMLID_5177_" class="st30" points="15.998,17.183 18.559,14.845 20.209,14.845 18.103,16.461 19.04,16.426 
				17.39,17.595 17.012,16.942 			"/>
			<polygon id="XMLID_5176_" class="st30" points="20.552,15.258 22.099,13.539 22.958,14.192 21.961,15.43 21.961,14.484 
				21.308,15.705 21.24,15.258 20.552,15.945 			"/>
			<polygon id="XMLID_5178_" class="st30" points="22.271,16.426 24.127,13.917 25.364,15.172 24.367,15.172 25.192,16.22 
				23.371,17.595 24.23,15.945 23.818,15.945 			"/>
			<polygon id="XMLID_5180_" class="st30" points="26.739,16.22 28.183,13.754 29.729,16.22 28.401,14.742 27.461,16.873 			"/>
			<polygon id="XMLID_5181_" class="st30" points="29.145,17.458 30.142,16.598 30.726,17.458 			"/>
		</g>
	</g>
	<g>
		<g id="XMLID_5210_" class="st78">
			<circle id="XMLID_5212_" class="st3" cx="24.754" cy="6.887" r="4.202"/>
		</g>
		<g id="XMLID_5145_">
			<circle id="XMLID_5183_" class="st18" cx="24.754" cy="6.887" r="2.797"/>
		</g>
	</g>
	<g id="XMLID_5127_">
		<polygon id="XMLID_5156_" class="st7" points="2.662,18.222 0.002,23.724 0.002,18.222 		"/>
		<polygon id="XMLID_5154_" class="st1" points="5.332,18.222 0.002,32.002 0.002,23.724 2.662,18.222 		"/>
		<polygon id="XMLID_5140_" class="st7" points="3.998,31.999 -0.002,31.999 5.331,18.22 7.998,18.22 		"/>
		<polygon id="XMLID_5139_" class="st1" points="7.998,31.999 3.998,31.999 7.998,18.22 10.664,18.22 		"/>
		<polygon id="XMLID_5142_" class="st7" points="11.998,31.999 7.998,31.999 10.664,18.22 13.331,18.22 		"/>
		<polygon id="XMLID_5141_" class="st1" points="15.998,31.999 11.998,31.999 13.331,18.22 15.998,18.22 		"/>
		<polygon id="XMLID_5144_" class="st7" points="19.998,31.999 15.998,31.999 15.998,18.22 18.664,18.22 		"/>
		<polygon id="XMLID_5143_" class="st1" points="23.998,31.999 19.998,31.999 18.664,18.22 21.331,18.22 		"/>
		<polygon id="XMLID_5148_" class="st7" points="27.998,31.999 23.998,31.999 21.331,18.22 23.998,18.22 		"/>
		<polygon id="XMLID_5147_" class="st1" points="31.998,31.999 27.998,31.999 23.998,18.22 26.664,18.22 		"/>
		<polygon id="XMLID_5158_" class="st7" points="32.002,23.74 32.002,32.002 26.662,18.222 29.332,18.222 		"/>
		<polygon id="XMLID_5157_" class="st1" points="32.002,18.222 32.002,23.74 29.332,18.222 		"/>
	</g>
</g>
</svg>
