<?xml version="1.0" encoding="utf-8"?>
<!-- Generator: Adobe Illustrator 21.1.0, SVG Export Plug-In . SVG Version: 6.00 Build 0)  -->
<svg version="1.1" id="Layer_1" xmlns="http://www.w3.org/2000/svg" xmlns:xlink="http://www.w3.org/1999/xlink" x="0px" y="0px"
	 viewBox="0 0 32 32" style="enable-background:new 0 0 32 32;" xml:space="preserve">
<style type="text/css">
	.st0{fill:#8F6D52;}
	.st1{fill:#7FB241;}
	.st2{fill:#A5856D;}
	.st3{fill:#FFFFFF;}
	.st4{fill:#7FB239;}
	.st5{fill:#45CBEA;}
	.st6{fill:#5A5F63;}
	.st7{fill:#8BC540;}
	.st8{fill:#E14B4B;}
	.st9{fill:#F3C432;}
	.st10{fill:#FFD83B;}
	.st11{fill:#DAE5EF;}
	.st12{fill:#E24B4B;}
	.st13{fill:#3E4347;}
	.st14{fill:#5B5F63;}
	.st15{fill:#6DAFDF;}
	.st16{fill:#9A795F;}
	.st17{fill:#997960;}
	.st18{fill:#FFD93B;}
	.st19{fill:#E2E2E1;}
	.st20{fill:#3F4347;}
	.st21{opacity:0.02;fill:#2F3133;}
	.st22{fill:#E9EFF4;}
	.st23{fill:#DEE4E9;}
	.st24{fill:#F4C534;}
	.st25{fill:#BBC7D1;}
	.st26{fill:#DDE3E9;}
	.st27{fill:#E8EBEE;}
	.st28{fill:#DDDDDC;}
	.st29{fill:#F4F4F4;}
	.st30{fill:#777B7E;}
	.st31{opacity:0.1;fill:#231F20;}
	.st32{fill:#E574AC;}
	.st33{fill:#428DC3;}
	.st34{fill:#4CC6E5;}
	.st35{fill:#E8EFF3;}
	.st36{fill:#8E6D53;}
	.st37{fill:#719C40;}
	.st38{fill:url(#XMLID_3_);}
	.st39{fill:#FFF100;}
	.st40{fill:#9FDCF8;}
	.st41{fill:#27B2CC;}
	.st42{fill:#CBD6E0;}
	.st43{fill:#BF3333;}
	.st44{fill:#D03F3F;}
	.st45{fill:#5CA3D9;}
	.st46{fill:#CE7629;}
	.st47{fill:#E18823;}
	.st48{fill:#A4856D;}
	.st49{fill:#7BA740;}
	.st50{fill:#F29A2E;}
	.st51{fill:#F2F2F2;}
	.st52{fill:#83B844;}
	.st53{fill:#8BC04C;}
	.st54{fill:#7A5B44;}
	.st55{fill:#8CC63E;}
	.st56{fill:#89664C;}
	.st57{fill:#65B1EF;}
	.st58{fill:#4D98D2;}
	.st59{fill:#BAC6D0;}
	.st60{fill:#7AA440;}
	.st61{fill:#ACB9C1;}
	.st62{fill:#E8AF2A;}
	.st63{fill:#D03F3E;}
	.st64{fill:#DF8726;}
	.st65{fill:#DF9D27;}
	.st66{fill:#D3D9DD;}
	.st67{fill:none;stroke:#FFFFFF;stroke-width:2.5;stroke-linecap:round;stroke-linejoin:round;stroke-miterlimit:10;}
	.st68{fill:#FCD91A;}
	.st69{opacity:0.05;fill:#3F4347;}
	.st70{fill:#5F6469;}
	.st71{fill:#64696E;}
	.st72{fill:#939799;}
	.st73{fill:#6F7378;}
	.st74{fill:#D2D8DD;}
	.st75{fill:#4E99D2;}
	.st76{fill:#7B8B92;}
	.st77{fill:#38C0DC;}
	.st78{opacity:0.2;}
	.st79{fill:#FDE7AA;}
	.st80{fill:#FFDC96;}
	.st81{fill:#64892F;}
	.st82{fill:#E9B02C;}
</style>
<g id="XMLID_5385_">
	<linearGradient id="XMLID_3_" gradientUnits="userSpaceOnUse" x1="16" y1="19.0919" x2="16" y2="-6.4274">
		<stop  offset="0.2923" style="stop-color:#C4E8FA"/>
		<stop  offset="0.3925" style="stop-color:#90DDF8"/>
		<stop  offset="0.4929" style="stop-color:#65D3F6"/>
		<stop  offset="0.5946" style="stop-color:#40CBF5"/>
		<stop  offset="0.6961" style="stop-color:#24C5F3"/>
		<stop  offset="0.7975" style="stop-color:#10C1F3"/>
		<stop  offset="0.8988" style="stop-color:#04BEF2"/>
		<stop  offset="1" style="stop-color:#00BDF2"/>
	</linearGradient>
	<rect id="XMLID_5479_" x="0" y="0" class="st38" width="32" height="16.664"/>
	<rect id="XMLID_5475_" x="0" y="16.664" class="st37" width="32" height="15.336"/>
	<rect id="XMLID_5474_" x="22.177" y="14.005" class="st17" width="0.918" height="2.729"/>
	<polygon id="XMLID_5473_" class="st7" points="24.678,15.369 22.636,7.597 20.594,15.369 	"/>
	<g id="XMLID_5470_">
		<rect id="XMLID_5472_" x="27.89" y="14.005" class="st17" width="0.918" height="2.729"/>
		<path id="XMLID_5471_" class="st7" d="M28.349,15.643L28.349,15.643c-1.123,0-2.042-0.919-2.042-2.042V9.639
			c0-1.123,0.919-2.042,2.042-2.042h0c1.123,0,2.042,0.919,2.042,2.042v3.962C30.391,14.724,29.472,15.643,28.349,15.643z"/>
	</g>
	<path id="XMLID_5439_" class="st7" d="M19.746,16.664h-3.722C15.235,21.776-8.223,26.888,5.648,32h16.988
		C3.01,26.888,24.712,21.776,19.746,16.664z"/>
	<g id="XMLID_5434_">
		<rect id="XMLID_5455_" x="2.528" y="14.005" class="st17" width="0.918" height="2.729"/>
		<path id="XMLID_5436_" class="st7" d="M2.987,15.643L2.987,15.643c-1.123,0-2.042-0.919-2.042-2.042V9.639
			c0-1.123,0.919-2.042,2.042-2.042h0c1.123,0,2.042,0.919,2.042,2.042v3.962C5.029,14.724,4.11,15.643,2.987,15.643z"/>
	</g>
	<g id="XMLID_5432_">
		<rect id="XMLID_5433_" x="8.242" y="14.005" class="st17" width="0.918" height="2.729"/>
	</g>
	<polygon id="XMLID_5412_" class="st7" points="10.743,15.369 8.7,7.597 6.658,15.369 	"/>
	<g id="XMLID_5476_">
		<circle id="XMLID_5478_" class="st39" cx="24.678" cy="4.139" r="3.74"/>
		<path id="XMLID_5477_" class="st3" d="M22.991,6.033c-0.112,0-0.217,0.027-0.31,0.074c-0.032-0.049-0.066-0.097-0.104-0.141
			c-0.168-0.271-0.468-0.452-0.81-0.452c-0.003,0-0.007,0-0.01,0c-0.059-0.008-0.12-0.013-0.182-0.013
			c-0.025,0-0.049,0.001-0.074,0.002c-0.166-0.526-0.658-0.908-1.24-0.908c-0.051,0-0.101,0.003-0.15,0.009
			c0.003-0.044,0.006-0.088,0.006-0.132c0-0.921-0.746-1.667-1.667-1.667c-0.921,0-1.667,0.746-1.667,1.667
			c0,0.019,0.001,0.038,0.001,0.057c-0.118-0.032-0.242-0.049-0.37-0.049c-0.782,0-1.415,0.634-1.415,1.415
			c0,0.084,0.008,0.165,0.022,0.245c-0.582,0.027-1.045,0.508-1.045,1.096c0,0.606,0.491,1.097,1.097,1.097
			c0.27,0,0.517-0.098,0.708-0.259c0.395,0.472,0.989,0.773,1.653,0.773c0.585,0,1.115-0.233,1.503-0.612
			c0.199,0.185,0.466,0.299,0.76,0.299c0.472,0,0.876-0.294,1.039-0.708c0.227,0.189,0.519,0.302,0.838,0.302
			c0.524,0,0.976-0.307,1.187-0.75c0.072,0.025,0.149,0.04,0.23,0.04c0.382,0,0.692-0.31,0.692-0.692S23.373,6.033,22.991,6.033z"/>
		<g>
			<path id="XMLID_302_" class="st40" d="M9.327,3.334c-0.072,0-0.139,0.017-0.199,0.047C9.108,3.35,9.086,3.319,9.062,3.291
				c-0.108-0.174-0.3-0.29-0.52-0.29c-0.002,0-0.004,0-0.006,0C8.497,2.996,8.459,2.993,8.419,2.993
				c-0.016,0-0.032,0.001-0.047,0.001C8.265,2.657,7.949,2.412,7.577,2.412c-0.033,0-0.065,0.002-0.096,0.006
				C7.482,2.39,7.484,2.361,7.484,2.333c0-0.59-0.479-1.069-1.069-1.069S5.346,1.742,5.346,2.333c0,0.012,0.001,0.024,0.001,0.037
				c-0.076-0.02-0.155-0.032-0.237-0.032c-0.501,0-0.908,0.406-0.908,0.908c0,0.054,0.005,0.106,0.014,0.157
				c-0.373,0.018-0.67,0.326-0.67,0.703c0,0.389,0.315,0.704,0.704,0.704c0.173,0,0.332-0.063,0.454-0.166
				c0.253,0.303,0.634,0.496,1.06,0.496c0.375,0,0.715-0.15,0.964-0.392c0.128,0.119,0.299,0.192,0.488,0.192
				c0.303,0,0.562-0.188,0.666-0.454c0.146,0.121,0.333,0.194,0.537,0.194c0.336,0,0.626-0.197,0.761-0.481
				c0.046,0.016,0.096,0.026,0.147,0.026c0.245,0,0.444-0.199,0.444-0.444S9.573,3.334,9.327,3.334z"/>
		</g>
	</g>
</g>
</svg>
