<?xml version="1.0" encoding="utf-8"?>
<!-- Generator: Adobe Illustrator 21.1.0, SVG Export Plug-In . SVG Version: 6.00 Build 0)  -->
<svg version="1.1" id="Layer_1" xmlns="http://www.w3.org/2000/svg" xmlns:xlink="http://www.w3.org/1999/xlink" x="0px" y="0px"
	 viewBox="0 0 32 32" style="enable-background:new 0 0 32 32;" xml:space="preserve">
<style type="text/css">
	.st0{fill:#8F6D52;}
	.st1{fill:#7FB241;}
	.st2{fill:#A5856D;}
	.st3{fill:#FFFFFF;}
	.st4{fill:#7FB239;}
	.st5{fill:#45CBEA;}
	.st6{fill:#5A5F63;}
	.st7{fill:#8BC540;}
	.st8{fill:#E14B4B;}
	.st9{fill:#F3C432;}
	.st10{fill:#FFD83B;}
	.st11{fill:#DAE5EF;}
	.st12{fill:#E24B4B;}
	.st13{fill:#3E4347;}
	.st14{fill:#5B5F63;}
	.st15{fill:#6DAFDF;}
	.st16{fill:#9A795F;}
	.st17{fill:#997960;}
	.st18{fill:#FFD93B;}
	.st19{fill:#E2E2E1;}
	.st20{fill:#3F4347;}
	.st21{opacity:0.02;fill:#2F3133;}
	.st22{fill:#E9EFF4;}
	.st23{fill:#DEE4E9;}
	.st24{fill:#F4C534;}
	.st25{fill:#BBC7D1;}
	.st26{fill:#DDE3E9;}
	.st27{fill:#E8EBEE;}
	.st28{fill:#DDDDDC;}
	.st29{fill:#F4F4F4;}
	.st30{fill:#777B7E;}
	.st31{opacity:0.1;fill:#231F20;}
	.st32{fill:#E574AC;}
	.st33{fill:#428DC3;}
	.st34{fill:#4CC6E5;}
	.st35{fill:#E8EFF3;}
	.st36{fill:#8E6D53;}
	.st37{fill:#719C40;}
	.st38{fill:url(#XMLID_3_);}
	.st39{fill:#FFF100;}
	.st40{fill:#9FDCF8;}
	.st41{fill:#27B2CC;}
	.st42{fill:#CBD6E0;}
	.st43{fill:#BF3333;}
	.st44{fill:#D03F3F;}
	.st45{fill:#5CA3D9;}
	.st46{fill:#CE7629;}
	.st47{fill:#E18823;}
	.st48{fill:#A4856D;}
	.st49{fill:#7BA740;}
	.st50{fill:#F29A2E;}
	.st51{fill:#F2F2F2;}
	.st52{fill:#83B844;}
	.st53{fill:#8BC04C;}
	.st54{fill:#7A5B44;}
	.st55{fill:#8CC63E;}
	.st56{fill:#89664C;}
	.st57{fill:#65B1EF;}
	.st58{fill:#4D98D2;}
	.st59{fill:#BAC6D0;}
	.st60{fill:#7AA440;}
	.st61{fill:#ACB9C1;}
	.st62{fill:#E8AF2A;}
	.st63{fill:#D03F3E;}
	.st64{fill:#DF8726;}
	.st65{fill:#DF9D27;}
	.st66{fill:#D3D9DD;}
	.st67{fill:none;stroke:#FFFFFF;stroke-width:2.5;stroke-linecap:round;stroke-linejoin:round;stroke-miterlimit:10;}
	.st68{fill:#FCD91A;}
	.st69{opacity:0.05;fill:#3F4347;}
	.st70{fill:#5F6469;}
	.st71{fill:#64696E;}
	.st72{fill:#939799;}
	.st73{fill:#6F7378;}
	.st74{fill:#D2D8DD;}
	.st75{fill:#4E99D2;}
	.st76{fill:#7B8B92;}
	.st77{fill:#38C0DC;}
	.st78{opacity:0.2;}
	.st79{fill:#FDE7AA;}
	.st80{fill:#FFDC96;}
	.st81{fill:#64892F;}
	.st82{fill:#E9B02C;}
</style>
<g id="XMLID_4424_">
	<circle id="XMLID_4422_" class="st10" cx="16" cy="7.379" r="6.942"/>
	<circle id="XMLID_4423_" class="st9" cx="16" cy="7.379" r="4.512"/>
	<path id="XMLID_4413_" class="st30" d="M32,9.342v15.05H0V9.342h3.64c1.1,0,2,0.9,2,2v1.39h1.64c0.06,0,0.12,0,0.18,0.01
		c1.02,0.09,1.82,0.94,1.82,1.99v6.44h13.45v-6.44c0-1.05,0.79-1.9,1.82-1.99c0.06-0.01,0.12-0.01,0.18-0.01h1.64v-1.39
		c0-1.1,0.89-2,2-2H32z"/>
	<rect id="XMLID_4406_" x="9.277" y="18.89" class="st30" width="13.45" height="2.24"/>
	<rect id="XMLID_4405_" x="0" y="24.352" class="st58" width="32" height="7.212"/>
	<path id="XMLID_4409_" class="st15" d="M24.545,12.741v0.01c-1.03,0.09-1.82,0.934-1.82,1.978v6.401H9.275v-6.401
		c0-1.044-0.8-1.889-1.82-1.978v-0.01H24.545z"/>
	<g id="XMLID_4398_">
		<path id="XMLID_4425_" class="st73" d="M4.64,12.342v1.39h1.64c0.06,0,0.12,0,0.18,0.01c1.02,0.09,1.82,0.94,1.82,1.99v7.665h1
			v-8.665c0-1.05-0.8-1.9-1.82-1.99c-0.06-0.01-0.12-0.01-0.18-0.01H5.64v-1.39c0-1.1-0.9-2-2-2H0v1h2.64
			C3.74,10.342,4.64,11.242,4.64,12.342z"/>
		<path id="XMLID_4418_" class="st73" d="M23.73,23.397v-7.665c0-1.05,0.79-1.9,1.82-1.99c0.06-0.01,0.12-0.01,0.18-0.01h1.64v-1.39
			c0-1.1,0.89-2,2-2H32v-1h-3.63c-1.11,0-2,0.9-2,2v1.39h-1.64c-0.06,0-0.12,0-0.18,0.01c-1.03,0.09-1.82,0.94-1.82,1.99v8.665
			H23.73z"/>
	</g>
	<path id="XMLID_4403_" class="st45" d="M24.865,21.129H7.135c-1.105,0-2,0.895-2,2v1.223h21.73v-1.223
		C26.865,22.024,25.97,21.129,24.865,21.129z"/>
	<g id="XMLID_4402_">
		<g id="XMLID_4400_">
			<path id="XMLID_4399_" class="st73" d="M3.909,16.529H1.576c-0.607,0-1.104-0.497-1.104-1.104v0c0-0.607,0.497-1.104,1.104-1.104
				h2.333c0.607,0,1.104,0.497,1.104,1.104v0C5.013,16.032,4.516,16.529,3.909,16.529z"/>
			<path id="XMLID_4401_" class="st73" d="M6.6,20.188H4.266c-0.607,0-1.104-0.497-1.104-1.104v0c0-0.607,0.497-1.104,1.104-1.104
				H6.6c0.607,0,1.104,0.497,1.104,1.104v0C7.704,19.691,7.207,20.188,6.6,20.188z"/>
			<path id="XMLID_4404_" class="st73" d="M2.874,21.955H1.46c-0.368,0-0.669,0.301-0.669,0.669c0,0.368,0.301,0.669,0.669,0.669
				h1.415c0.368,0,0.669-0.301,0.669-0.669C3.544,22.256,3.243,21.955,2.874,21.955z"/>
		</g>
		<g id="XMLID_4407_">
			<path id="XMLID_4411_" class="st73" d="M28.091,16.529h2.333c0.607,0,1.104-0.497,1.104-1.104v0c0-0.607-0.497-1.104-1.104-1.104
				h-2.333c-0.607,0-1.104,0.497-1.104,1.104v0C26.987,16.032,27.484,16.529,28.091,16.529z"/>
			<path id="XMLID_4410_" class="st73" d="M25.4,20.188h2.333c0.607,0,1.104-0.497,1.104-1.104v0c0-0.607-0.497-1.104-1.104-1.104
				H25.4c-0.607,0-1.104,0.497-1.104,1.104v0C24.296,19.691,24.793,20.188,25.4,20.188z"/>
			<path id="XMLID_4408_" class="st73" d="M29.126,21.955h1.415c0.368,0,0.669,0.301,0.669,0.669c0,0.368-0.301,0.669-0.669,0.669
				h-1.415c-0.368,0-0.669-0.301-0.669-0.669C28.456,22.256,28.757,21.955,29.126,21.955z"/>
		</g>
	</g>
	<g id="XMLID_4412_">
		<path id="XMLID_4415_" class="st45" d="M6.352,25.657H3.256c-0.257,0-0.466,0.21-0.466,0.466S3,26.59,3.256,26.59h3.095
			c0.257,0,0.466-0.21,0.466-0.466S6.608,25.657,6.352,25.657z"/>
		<path id="XMLID_4414_" class="st45" d="M10.021,29.326H6.925c-0.257,0-0.466,0.21-0.466,0.466c0,0.257,0.21,0.466,0.466,0.466
			h3.095c0.257,0,0.466-0.21,0.466-0.466C10.487,29.536,10.277,29.326,10.021,29.326z"/>
		<path id="XMLID_4417_" class="st45" d="M15.646,25.657h-3.095c-0.257,0-0.466,0.21-0.466,0.466s0.21,0.466,0.466,0.466h3.095
			c0.257,0,0.466-0.21,0.466-0.466S15.903,25.657,15.646,25.657z"/>
		<path id="XMLID_4416_" class="st45" d="M19.315,29.326H16.22c-0.257,0-0.466,0.21-0.466,0.466c0,0.257,0.21,0.466,0.466,0.466
			h3.095c0.257,0,0.466-0.21,0.466-0.466C19.782,29.536,19.572,29.326,19.315,29.326z"/>
		<path id="XMLID_4420_" class="st45" d="M25.075,25.657h-3.095c-0.257,0-0.466,0.21-0.466,0.466s0.21,0.466,0.466,0.466h3.095
			c0.257,0,0.466-0.21,0.466-0.466S25.331,25.657,25.075,25.657z"/>
		<path id="XMLID_4419_" class="st45" d="M28.744,29.326h-3.095c-0.257,0-0.466,0.21-0.466,0.466c0,0.257,0.21,0.466,0.466,0.466
			h3.095c0.257,0,0.466-0.21,0.466-0.466C29.21,29.536,29,29.326,28.744,29.326z"/>
	</g>
</g>
</svg>
