<?xml version="1.0" encoding="utf-8"?>
<!-- Generator: Adobe Illustrator 21.1.0, SVG Export Plug-In . SVG Version: 6.00 Build 0)  -->
<svg version="1.1" id="Layer_1" xmlns="http://www.w3.org/2000/svg" xmlns:xlink="http://www.w3.org/1999/xlink" x="0px" y="0px"
	 viewBox="0 0 32 32" style="enable-background:new 0 0 32 32;" xml:space="preserve">
<style type="text/css">
	.st0{fill:#8F6D52;}
	.st1{fill:#7FB241;}
	.st2{fill:#A5856D;}
	.st3{fill:#FFFFFF;}
	.st4{fill:#7FB239;}
	.st5{fill:#45CBEA;}
	.st6{fill:#5A5F63;}
	.st7{fill:#8BC540;}
	.st8{fill:#E14B4B;}
	.st9{fill:#F3C432;}
	.st10{fill:#FFD83B;}
	.st11{fill:#DAE5EF;}
	.st12{fill:#E24B4B;}
	.st13{fill:#3E4347;}
	.st14{fill:#5B5F63;}
	.st15{fill:#6DAFDF;}
	.st16{fill:#9A795F;}
	.st17{fill:#997960;}
	.st18{fill:#FFD93B;}
	.st19{fill:#E2E2E1;}
	.st20{fill:#3F4347;}
	.st21{opacity:0.02;fill:#2F3133;}
	.st22{fill:#E9EFF4;}
	.st23{fill:#DEE4E9;}
	.st24{fill:#F4C534;}
	.st25{fill:#BBC7D1;}
	.st26{fill:#DDE3E9;}
	.st27{fill:#E8EBEE;}
	.st28{fill:#DDDDDC;}
	.st29{fill:#F4F4F4;}
	.st30{fill:#777B7E;}
	.st31{opacity:0.1;fill:#231F20;}
	.st32{fill:#E574AC;}
	.st33{fill:#428DC3;}
	.st34{fill:#4CC6E5;}
	.st35{fill:#E8EFF3;}
	.st36{fill:#8E6D53;}
	.st37{fill:#719C40;}
	.st38{fill:url(#XMLID_3_);}
	.st39{fill:#FFF100;}
	.st40{fill:#9FDCF8;}
	.st41{fill:#27B2CC;}
	.st42{fill:#CBD6E0;}
	.st43{fill:#BF3333;}
	.st44{fill:#D03F3F;}
	.st45{fill:#5CA3D9;}
	.st46{fill:#CE7629;}
	.st47{fill:#E18823;}
	.st48{fill:#A4856D;}
	.st49{fill:#7BA740;}
	.st50{fill:#F29A2E;}
	.st51{fill:#F2F2F2;}
	.st52{fill:#83B844;}
	.st53{fill:#8BC04C;}
	.st54{fill:#7A5B44;}
	.st55{fill:#8CC63E;}
	.st56{fill:#89664C;}
	.st57{fill:#65B1EF;}
	.st58{fill:#4D98D2;}
	.st59{fill:#BAC6D0;}
	.st60{fill:#7AA440;}
	.st61{fill:#ACB9C1;}
	.st62{fill:#E8AF2A;}
	.st63{fill:#D03F3E;}
	.st64{fill:#DF8726;}
	.st65{fill:#DF9D27;}
	.st66{fill:#D3D9DD;}
	.st67{fill:none;stroke:#FFFFFF;stroke-width:2.5;stroke-linecap:round;stroke-linejoin:round;stroke-miterlimit:10;}
	.st68{fill:#FCD91A;}
	.st69{opacity:0.05;fill:#3F4347;}
	.st70{fill:#5F6469;}
	.st71{fill:#64696E;}
	.st72{fill:#939799;}
	.st73{fill:#6F7378;}
	.st74{fill:#D2D8DD;}
	.st75{fill:#4E99D2;}
	.st76{fill:#7B8B92;}
	.st77{fill:#38C0DC;}
	.st78{opacity:0.2;}
	.st79{fill:#FDE7AA;}
	.st80{fill:#FFDC96;}
	.st81{fill:#64892F;}
	.st82{fill:#E9B02C;}
</style>
<g id="XMLID_2390_">
	<path id="XMLID_2900_" class="st33" d="M31.82,16.386l-3.669-6.232l-6.608,3.844l4.134,7.262h2.353
		c0.923,0,1.815-0.313,2.521-0.884c0.152-0.153,0.322-0.32,0.516-0.503l0.065-0.099c0.63-0.963,0.888-2.126,0.709-3.263
		C31.83,16.431,31.82,16.386,31.82,16.386z"/>
	<path id="XMLID_2902_" class="st15" d="M31.068,19.874l-0.906,1.387l-3.228,5.568c-0.6,1.033-1.703,1.668-2.897,1.668h-3.75v2.94
		l-3.619-6.558l3.619-6.559v2.94h7.745c0.074,0,0.147-0.004,0.218-0.01c0.845-0.045,1.653-0.348,2.303-0.875
		c0.145-0.147,0.308-0.305,0.492-0.48c0.003-0.001,0.007-0.004,0.01-0.006C31.06,19.886,31.064,19.879,31.068,19.874z"/>
	<path id="XMLID_2896_" class="st33" d="M7.299,28.649l7.231-0.032l0.006-7.645L6.18,20.888l-1.185,2.033
		c-0.465,0.797-0.644,1.726-0.506,2.624c0.056,0.208,0.114,0.439,0.175,0.699l0.053,0.105c0.515,1.029,1.39,1.838,2.462,2.256
		C7.256,28.635,7.299,28.649,7.299,28.649z"/>
	<path id="XMLID_2894_" class="st15" d="M4.664,26.243l-0.742-1.481l-3.185-5.593c-0.591-1.039-0.584-2.311,0.017-3.343l1.888-3.24
		l-2.541-1.481l7.488,0.175l3.845,6.429L8.894,16.23l-3.899,6.691c-0.037,0.064-0.07,0.129-0.101,0.193
		c-0.387,0.752-0.531,1.603-0.403,2.43c0.054,0.2,0.108,0.419,0.167,0.667c0,0.003,0,0.008,0,0.011
		C4.658,26.23,4.662,26.237,4.664,26.243z"/>
	<path id="XMLID_2903_" class="st33" d="M8.776,1.831L5.367,8.208l6.724,3.639l4.046-7.311l-1.225-2.009
		c-0.48-0.788-1.212-1.387-2.068-1.692c-0.21-0.05-0.44-0.108-0.698-0.179l-0.118-0.004c-1.15-0.036-2.278,0.349-3.155,1.094
		C8.809,1.799,8.776,1.831,8.776,1.831z"/>
	<path id="XMLID_2898_" class="st15" d="M12.145,0.656l1.656,0.051l6.434-0.143c1.194-0.026,2.311,0.585,2.933,1.605l1.953,3.201
		l2.51-1.531l-3.714,6.504l-7.484,0.327l2.51-1.531l-4.033-6.612c-0.039-0.063-0.08-0.123-0.122-0.181
		c-0.478-0.698-1.158-1.23-1.946-1.51c-0.201-0.048-0.42-0.104-0.666-0.17c-0.003-0.002-0.007-0.004-0.01-0.005
		C12.16,0.657,12.152,0.657,12.145,0.656z"/>
</g>
</svg>
