<?xml version="1.0" encoding="utf-8"?>
<!-- Generator: Adobe Illustrator 21.1.0, SVG Export Plug-In . SVG Version: 6.00 Build 0)  -->
<svg version="1.1" id="Layer_1" xmlns="http://www.w3.org/2000/svg" xmlns:xlink="http://www.w3.org/1999/xlink" x="0px" y="0px"
	 viewBox="0 0 32 32" style="enable-background:new 0 0 32 32;" xml:space="preserve">
<style type="text/css">
	.st0{fill:#FFD83B;}
	.st1{fill:#F2F2F2;}
	.st2{fill:#F3C432;}
	.st3{fill:#DEE4E9;}
	.st4{fill:#E9EFF4;}
	.st5{fill:#6DAFDF;}
	.st6{fill:#5CA3D9;}
	.st7{fill:#4D98D2;}
	.st8{fill:#E8EFF3;}
	.st9{fill:#DDE3E9;}
	.st10{fill:#4CC6E5;}
	.st11{opacity:0.05;fill:#2F3133;}
	.st12{fill:#E14B4B;}
	.st13{fill:#D3D9DD;}
	.st14{fill:#65B1EF;}
	.st15{fill:#8CC63E;}
	.st16{fill:#E84D88;}
	.st17{fill:#A4856D;}
	.st18{fill:#8BC540;}
	.st19{fill:#7FB241;}
	.st20{fill:#8E6D53;}
	.st21{fill:#FFFFFF;}
	.st22{fill:#9A795F;}
	.st23{fill:#E24B4B;}
	.st24{fill:#F2992D;}
	.st25{fill:#DF8726;}
	.st26{fill:#997960;}
	.st27{fill:#FFD93B;}
	.st28{fill:#E8AF2A;}
	.st29{fill:#D23F77;}
	.st30{fill:#D03F3F;}
	.st31{fill:#BF3332;}
	.st32{fill:#D03F3E;}
	.st33{fill:#BF3333;}
	.st34{fill:#F4C534;}
	.st35{fill:#8F6D52;}
	.st36{fill:#E9B02C;}
	.st37{fill:#5A5F63;}
	.st38{fill:#F4F4F4;}
	.st39{fill:#E74C87;}
	.st40{fill:#D24078;}
	.st41{fill:#5B5F63;}
	.st42{fill:#3F4347;}
	.st43{fill:#719C40;}
	.st44{fill:#7B5C45;}
	.st45{fill:#BB3166;}
	.st46{fill:#89664C;}
	.st47{fill:#77589F;}
	.st48{fill:#8066AA;}
	.st49{fill:#8D7FB6;}
	.st50{fill:#88BA40;}
	.st51{fill:#FDE7AA;}
	.st52{fill:#7FB239;}
	.st53{fill:#45CBEA;}
	.st54{fill:#ACB9C1;}
	.st55{fill:#DAE5EF;}
	.st56{fill:#7CA740;}
	.st57{fill:#88BF40;}
	.st58{fill:#85BB40;}
	.st59{fill:#FFF100;}
	.st60{fill:#FFDD00;}
	.st61{fill:#F29A2E;}
	.st62{fill:#3E4347;}
	.st63{fill:#59A5E0;}
	.st64{fill:#2F3133;}
	.st65{fill:#EDEDEF;}
	.st66{fill:#4E99D2;}
	.st67{fill:#A5856D;}
</style>
<g id="XMLID_2215_">
	<g id="XMLID_2090_">
		<path id="XMLID_2200_" class="st4" d="M23.62,5.649c-1.189-3.056-4.153-5.226-7.63-5.226c-3.477,0-6.44,2.17-7.629,5.226
			c-3.207-0.096-5.753,2.473-5.753,5.575c0,3.084,2.5,5.583,5.583,5.583c1.323,0,14.275,0,15.598,0c3.084,0,5.583-2.5,5.583-5.583
			C29.372,8.12,26.825,5.553,23.62,5.649z"/>
		<path id="XMLID_2199_" class="st3" d="M12.231,6.776c-0.927-0.98-2.167-1.654-3.54-1.819C8.579,5.18,8.46,5.398,8.369,5.631
			c1.423,0.012,2.619,0.517,3.607,1.4c1.254,1.183,1.634,2.411,1.763,3.82C13.725,9.429,13.455,8.134,12.231,6.776z"/>
		<path id="XMLID_2198_" class="st3" d="M18.206,11.223c-0.107-2.209,0.856-3.909,2.367-4.943c1.877-1.297,4.472-1.354,6.433-0.001
			c1.457,0.995,2.345,2.511,2.376,4.746c-0.006,0.129-0.01,0.197-0.01,0.197c-0.192-1.902-1.103-3.349-2.714-4.411
			c-1.695-1.084-4.074-1.064-5.739-0.001C19.276,7.897,18.388,9.388,18.206,11.223z"/>
	</g>
	<g id="XMLID_2197_">
		<g id="XMLID_2214_">
			<path class="st5" d="M0.056,22.567c0.11-0.25,0.4-0.37,0.66-0.26c1.84,0.81,3.95,0.81,5.79,0c2.09-0.91,4.5-0.91,6.59,0
				c1.84,0.81,3.95,0.81,5.79,0c2.1-0.91,4.5-0.91,6.59,0c1.85,0.81,3.96,0.81,5.8,0.01c0.25-0.11,0.55,0,0.66,0.25
				c0.12,0.25,0.01,0.54-0.24,0.65c-1.06,0.47-2.19,0.7-3.32,0.7c-1.12,0-2.24-0.23-3.29-0.69c-1.85-0.81-3.96-0.81-5.8,0
				c-2.09,0.92-4.49,0.92-6.59,0c-1.84-0.81-3.95-0.81-5.79,0c-2.1,0.92-4.5,0.92-6.59,0C0.066,23.117-0.054,22.827,0.056,22.567z"
				/>
			<path class="st5" d="M31.936,26.397c0.12,0.25,0.01,0.54-0.24,0.66c-1.06,0.46-2.19,0.69-3.32,0.69c-1.12,0-2.24-0.23-3.29-0.69
				c-1.85-0.81-3.96-0.8-5.8,0c-2.09,0.92-4.49,0.92-6.59,0c-1.84-0.8-3.95-0.8-5.79,0c-2.1,0.92-4.5,0.92-6.59,0
				c-0.25-0.11-0.37-0.4-0.26-0.66c0.11-0.25,0.4-0.37,0.66-0.25c1.84,0.8,3.95,0.8,5.79,0c2.1-0.92,4.5-0.92,6.59-0.01
				c1.84,0.81,3.95,0.81,5.79,0c2.1-0.91,4.5-0.91,6.59,0c1.85,0.81,3.96,0.81,5.8,0.01C31.526,26.037,31.826,26.147,31.936,26.397z
				"/>
			<path class="st5" d="M31.936,30.227c0.12,0.25,0.01,0.55-0.24,0.66c-1.06,0.46-2.19,0.69-3.32,0.69c-1.12,0-2.24-0.23-3.29-0.69
				c-1.85-0.8-3.96-0.8-5.8,0c-2.09,0.92-4.49,0.92-6.59,0c-1.84-0.8-3.95-0.8-5.79,0c-2.1,0.92-4.5,0.92-6.59,0
				c-0.25-0.11-0.37-0.4-0.26-0.66c0.11-0.25,0.4-0.37,0.66-0.25c1.84,0.8,3.95,0.8,5.79,0c2.1-0.92,4.5-0.92,6.59,0
				c1.84,0.8,3.95,0.8,5.79,0c2.1-0.92,4.5-0.92,6.59-0.01c1.85,0.81,3.96,0.81,5.8,0.01C31.526,29.867,31.826,29.977,31.936,30.227
				z"/>
		</g>
	</g>
</g>
</svg>
