<?xml version="1.0" encoding="utf-8"?>
<!-- Generator: Adobe Illustrator 21.1.0, SVG Export Plug-In . SVG Version: 6.00 Build 0)  -->
<svg version="1.1" id="Layer_1" xmlns="http://www.w3.org/2000/svg" xmlns:xlink="http://www.w3.org/1999/xlink" x="0px" y="0px"
	 viewBox="0 0 32 32" style="enable-background:new 0 0 32 32;" xml:space="preserve">
<style type="text/css">
	.st0{fill:#8F6D52;}
	.st1{fill:#7FB241;}
	.st2{fill:#A5856D;}
	.st3{fill:#FFFFFF;}
	.st4{fill:#7FB239;}
	.st5{fill:#45CBEA;}
	.st6{fill:#5A5F63;}
	.st7{fill:#8BC540;}
	.st8{fill:#E14B4B;}
	.st9{fill:#F3C432;}
	.st10{fill:#FFD83B;}
	.st11{fill:#DAE5EF;}
	.st12{fill:#E24B4B;}
	.st13{fill:#3E4347;}
	.st14{fill:#5B5F63;}
	.st15{fill:#6DAFDF;}
	.st16{fill:#9A795F;}
	.st17{fill:#997960;}
	.st18{fill:#FFD93B;}
	.st19{fill:#E2E2E1;}
	.st20{fill:#3F4347;}
	.st21{opacity:0.02;fill:#2F3133;}
	.st22{fill:#E9EFF4;}
	.st23{fill:#DEE4E9;}
	.st24{fill:#F4C534;}
	.st25{fill:#BBC7D1;}
	.st26{fill:#DDE3E9;}
	.st27{fill:#E8EBEE;}
	.st28{fill:#DDDDDC;}
	.st29{fill:#F4F4F4;}
	.st30{fill:#777B7E;}
	.st31{opacity:0.1;fill:#231F20;}
	.st32{fill:#E574AC;}
	.st33{fill:#428DC3;}
	.st34{fill:#4CC6E5;}
	.st35{fill:#E8EFF3;}
	.st36{fill:#8E6D53;}
	.st37{fill:#719C40;}
	.st38{fill:url(#XMLID_3_);}
	.st39{fill:#FFF100;}
	.st40{fill:#9FDCF8;}
	.st41{fill:#27B2CC;}
	.st42{fill:#CBD6E0;}
	.st43{fill:#BF3333;}
	.st44{fill:#D03F3F;}
	.st45{fill:#5CA3D9;}
	.st46{fill:#CE7629;}
	.st47{fill:#E18823;}
	.st48{fill:#A4856D;}
	.st49{fill:#7BA740;}
	.st50{fill:#F29A2E;}
	.st51{fill:#F2F2F2;}
	.st52{fill:#83B844;}
	.st53{fill:#8BC04C;}
	.st54{fill:#7A5B44;}
	.st55{fill:#8CC63E;}
	.st56{fill:#89664C;}
	.st57{fill:#65B1EF;}
	.st58{fill:#4D98D2;}
	.st59{fill:#BAC6D0;}
	.st60{fill:#7AA440;}
	.st61{fill:#ACB9C1;}
	.st62{fill:#E8AF2A;}
	.st63{fill:#D03F3E;}
	.st64{fill:#DF8726;}
	.st65{fill:#DF9D27;}
	.st66{fill:#D3D9DD;}
	.st67{fill:none;stroke:#FFFFFF;stroke-width:2.5;stroke-linecap:round;stroke-linejoin:round;stroke-miterlimit:10;}
	.st68{fill:#FCD91A;}
	.st69{opacity:0.05;fill:#3F4347;}
	.st70{fill:#5F6469;}
	.st71{fill:#64696E;}
	.st72{fill:#939799;}
	.st73{fill:#6F7378;}
	.st74{fill:#D2D8DD;}
	.st75{fill:#4E99D2;}
	.st76{fill:#7B8B92;}
	.st77{fill:#38C0DC;}
	.st78{opacity:0.2;}
	.st79{fill:#FDE7AA;}
	.st80{fill:#FFDC96;}
	.st81{fill:#64892F;}
	.st82{fill:#E9B02C;}
</style>
<g id="XMLID_2413_">
	<g>
		<path id="XMLID_2417_" class="st56" d="M28.464,1.547c0,5.168,0,3.447,0,7.955c-3.698,0-2.015-0.002-7.963,0.008l2.593-2.593
			c-4.382-3.46-11.012-3.314-15.251,0.926c-3.636,3.636-4.328,9.131-2.076,13.467l-3.411,0.008l0.008,3.11
			C-1.455,18.241-0.713,10.01,4.648,4.649c5.944-5.944,15.389-6.193,21.655-0.942L28.464,1.547z"/>
	</g>
	<g>
		<path id="XMLID_2416_" class="st55" d="M29.639,7.575c3.819,6.187,3.069,14.409-2.293,19.771
			c-5.894,5.894-15.29,6.247-21.647,0.951l-2.16,2.16c-0.01-5.213-0.008-3.519-0.008-7.963c3.705-0.011,2.029-0.01,7.972,0
			l-2.593,2.593c4.407,3.478,11.021,3.288,15.243-0.934c3.636-3.636,4.336-9.122,2.085-13.459l3.41-0.008L29.639,7.575z"/>
	</g>
</g>
</svg>
