<?xml version="1.0" encoding="utf-8"?>
<!-- Generator: Adobe Illustrator 21.1.0, SVG Export Plug-In . SVG Version: 6.00 Build 0)  -->
<svg version="1.1" id="Layer_1" xmlns="http://www.w3.org/2000/svg" xmlns:xlink="http://www.w3.org/1999/xlink" x="0px" y="0px"
	 viewBox="0 0 32 32" style="enable-background:new 0 0 32 32;" xml:space="preserve">
<style type="text/css">
	.st0{fill:#8F6D52;}
	.st1{fill:#7FB241;}
	.st2{fill:#A5856D;}
	.st3{fill:#FFFFFF;}
	.st4{fill:#7FB239;}
	.st5{fill:#45CBEA;}
	.st6{fill:#5A5F63;}
	.st7{fill:#8BC540;}
	.st8{fill:#E14B4B;}
	.st9{fill:#F3C432;}
	.st10{fill:#FFD83B;}
	.st11{fill:#DAE5EF;}
	.st12{fill:#E24B4B;}
	.st13{fill:#3E4347;}
	.st14{fill:#5B5F63;}
	.st15{fill:#6DAFDF;}
	.st16{fill:#9A795F;}
	.st17{fill:#997960;}
	.st18{fill:#FFD93B;}
	.st19{fill:#E2E2E1;}
	.st20{fill:#3F4347;}
	.st21{opacity:0.02;fill:#2F3133;}
	.st22{fill:#E9EFF4;}
	.st23{fill:#DEE4E9;}
	.st24{fill:#F4C534;}
	.st25{fill:#BBC7D1;}
	.st26{fill:#DDE3E9;}
	.st27{fill:#E8EBEE;}
	.st28{fill:#DDDDDC;}
	.st29{fill:#F4F4F4;}
	.st30{fill:#777B7E;}
	.st31{opacity:0.1;fill:#231F20;}
	.st32{fill:#E574AC;}
	.st33{fill:#428DC3;}
	.st34{fill:#4CC6E5;}
	.st35{fill:#E8EFF3;}
	.st36{fill:#8E6D53;}
	.st37{fill:#719C40;}
	.st38{fill:url(#XMLID_3_);}
	.st39{fill:#FFF100;}
	.st40{fill:#9FDCF8;}
	.st41{fill:#27B2CC;}
	.st42{fill:#CBD6E0;}
	.st43{fill:#BF3333;}
	.st44{fill:#D03F3F;}
	.st45{fill:#5CA3D9;}
	.st46{fill:#CE7629;}
	.st47{fill:#E18823;}
	.st48{fill:#A4856D;}
	.st49{fill:#7BA740;}
	.st50{fill:#F29A2E;}
	.st51{fill:#F2F2F2;}
	.st52{fill:#83B844;}
	.st53{fill:#8BC04C;}
	.st54{fill:#7A5B44;}
	.st55{fill:#8CC63E;}
	.st56{fill:#89664C;}
	.st57{fill:#65B1EF;}
	.st58{fill:#4D98D2;}
	.st59{fill:#BAC6D0;}
	.st60{fill:#7AA440;}
	.st61{fill:#ACB9C1;}
	.st62{fill:#E8AF2A;}
	.st63{fill:#D03F3E;}
	.st64{fill:#DF8726;}
	.st65{fill:#DF9D27;}
	.st66{fill:#D3D9DD;}
	.st67{fill:none;stroke:#FFFFFF;stroke-width:2.5;stroke-linecap:round;stroke-linejoin:round;stroke-miterlimit:10;}
	.st68{fill:#FCD91A;}
	.st69{opacity:0.05;fill:#3F4347;}
	.st70{fill:#5F6469;}
	.st71{fill:#64696E;}
	.st72{fill:#939799;}
	.st73{fill:#6F7378;}
	.st74{fill:#D2D8DD;}
	.st75{fill:#4E99D2;}
	.st76{fill:#7B8B92;}
	.st77{fill:#38C0DC;}
	.st78{opacity:0.2;}
	.st79{fill:#FDE7AA;}
	.st80{fill:#FFDC96;}
	.st81{fill:#64892F;}
	.st82{fill:#E9B02C;}
</style>
<g>
	<path id="XMLID_2955_" class="st7" d="M21.29,17.497c0,0-2.079-3.966,3.635-7.966c0,0,6.432-3.64,6.429-4.803
		c0,0-0.357,4.062,0.57,8.318c0,0,0.807,7.017-4.539,7.241C22.04,20.511,21.29,17.497,21.29,17.497z"/>
	<path id="XMLID_2941_" class="st56" d="M9.36,20.832c0,0.018-0.05,1.942-0.05,1.961c-0.001-0.019,0.001,0.052-0.001-0.041
		c0.133,5.302,4.429,7.927,8.394,7.315c2.165-0.308,4.312-1.771,5.403-3.835c1.04-1.923,0.92-3.309,1.001-6.546
		c0.143-3.147,1.814-5.767,4.162-7.947c-2.171,2.227-3.724,4.881-3.709,7.949c0.083,3.217,0.294,4.747-0.737,6.909
		c-2.863,6.144-11.682,6.438-15.124,0.604c-1.396-2.313-1.284-4.214-1.339-6.369c-0.014-0.552,0.422-1.011,0.974-1.026
		c0.552-0.014,1.011,0.422,1.026,0.974C9.361,20.797,9.361,20.816,9.36,20.832z"/>
	<g>
		<path id="XMLID_2550_" class="st24" d="M5.553,8.877H3.376V1.691c0-0.601,0.487-1.088,1.088-1.088h0
			c0.601,0,1.088,0.487,1.088,1.088V8.877z"/>
		<path id="XMLID_2870_" class="st24" d="M13.344,8.877h-2.177V1.691c0-0.601,0.487-1.088,1.088-1.088h0
			c0.601,0,1.088,0.487,1.088,1.088V8.877z"/>
	</g>
	<path id="XMLID_2869_" class="st30" d="M15.368,11.014H1.352c-0.729,0-1.32-0.591-1.32-1.32V9.597c0-0.729,0.591-1.32,1.32-1.32
		h14.017c0.729,0,1.32,0.591,1.32,1.32v0.098C16.689,10.423,16.098,11.014,15.368,11.014z"/>
	<path class="st6" d="M15.453,11.011v4.15c0,0.45-0.18,0.88-0.5,1.2l-3,3c-0.32,0.32-0.75,0.5-1.2,0.5h-4.79
		c-0.45,0-0.88-0.18-1.2-0.5l-3-3c-0.32-0.32-0.5-0.75-0.5-1.2v-4.15H15.453z"/>
	<path class="st13" d="M10.173,19.861v1.44c0,0.28-0.22,0.5-0.5,0.5h-2.63c-0.27,0-0.5-0.22-0.5-0.5v-1.44H10.173z"/>
	<polygon id="XMLID_2954_" class="st56" points="25.223,15.773 24.241,14.121 24.997,16.059 25.065,16.234 25.226,16.138 
		27.014,15.074 	"/>
	<polygon id="XMLID_2952_" class="st56" points="24.63,17.98 23.103,15.414 24.278,18.425 24.383,18.695 24.633,18.547 
		27.411,16.894 	"/>
</g>
</svg>
