<?xml version="1.0" encoding="utf-8"?>
<!-- Generator: Adobe Illustrator 21.1.0, SVG Export Plug-In . SVG Version: 6.00 Build 0)  -->
<svg version="1.1" id="Layer_1" xmlns="http://www.w3.org/2000/svg" xmlns:xlink="http://www.w3.org/1999/xlink" x="0px" y="0px"
	 viewBox="0 0 32 32" style="enable-background:new 0 0 32 32;" xml:space="preserve">
<style type="text/css">
	.st0{fill:#DEE4E9;}
</style>
<g id="XMLID_2218_">
	<g id="XMLID_2216_">
		<path id="XMLID_2241_" class="st0" d="M10.766,28.978c-1.337,0.001-2.674-0.509-3.693-1.526c-0.005-0.005-0.076-0.077-0.08-0.082
			c-1.481-1.53-1.879-3.727-1.03-5.73c0.884-2.087,2.826-3.383,5.068-3.383h20.348c0.343,0,0.621,0.278,0.621,0.621
			s-0.278,0.621-0.621,0.621H11.031c-2.073,0-3.387,1.356-3.924,2.627c-0.661,1.557-0.367,3.198,0.786,4.388
			c1.612,1.613,4.138,1.612,5.689,0.061c0.553-0.552,0.862-1.373,0.828-2.196c-0.055-1.305-0.647-2.273-1.624-2.655
			c-0.859-0.334-1.836-0.131-2.489,0.522c-0.319,0.318-0.488,0.776-0.464,1.258c0.036,0.735,0.365,1.276,0.901,1.482
			c0.466,0.18,0.996,0.068,1.35-0.285c0.242-0.242,0.636-0.243,0.878-0.001c0.242,0.242,0.242,0.636,0,0.878
			c-0.7,0.701-1.75,0.925-2.674,0.566c-1.001-0.386-1.635-1.35-1.695-2.581c-0.041-0.831,0.261-1.631,0.827-2.197
			c1-1.001,2.499-1.314,3.818-0.8c1.437,0.559,2.339,1.966,2.414,3.758c0.05,1.181-0.384,2.322-1.191,3.126
			C13.442,28.47,12.105,28.978,10.766,28.978z"/>
	</g>
	<g id="XMLID_2237_">
		<path id="XMLID_2240_" class="st0" d="M28.69,13.743H17.28c-0.343,0-0.621-0.278-0.621-0.621s0.278-0.621,0.621-0.621H28.69
			c0.343,0,0.621,0.278,0.621,0.621S29.033,13.743,28.69,13.743z"/>
	</g>
	<g id="XMLID_2236_">
		<path id="XMLID_2238_" class="st0" d="M14.049,13.743H5.507c-2.241,0-4.183-1.296-5.069-3.383c-0.847-2.002-0.45-4.2,1.037-5.736
			C1.478,4.621,1.547,4.551,1.55,4.548c2.036-2.036,5.349-2.036,7.385,0c0.806,0.805,1.24,1.944,1.19,3.126
			c-0.076,1.793-0.978,3.199-2.414,3.759c-1.318,0.515-2.816,0.2-3.819-0.8c-0.565-0.565-0.867-1.367-0.826-2.198
			c0.06-1.229,0.692-2.194,1.694-2.58C5.686,5.5,6.735,5.723,7.436,6.422c0.242,0.242,0.242,0.636,0,0.878S6.801,7.544,6.558,7.301
			c-0.354-0.354-0.883-0.466-1.35-0.285C4.672,7.223,4.343,7.763,4.307,8.497c-0.024,0.481,0.145,0.94,0.465,1.259
			c0.652,0.653,1.629,0.858,2.489,0.521c0.978-0.381,1.57-1.348,1.624-2.655C8.92,6.8,8.61,5.979,8.057,5.427
			c-1.553-1.553-4.077-1.553-5.63,0C1.215,6.677,0.921,8.318,1.582,9.875c0.538,1.27,1.852,2.627,3.925,2.627h8.542
			c0.343,0,0.621,0.278,0.621,0.621C14.67,13.466,14.392,13.743,14.049,13.743z"/>
	</g>
	<g id="XMLID_2235_">
		<path id="XMLID_2227_" class="st0" d="M23.82,16.622H10.337c-0.343,0-0.621-0.278-0.621-0.621c0-0.343,0.278-0.621,0.621-0.621
			H23.82c0.343,0,0.621,0.278,0.621,0.621C24.441,16.343,24.163,16.622,23.82,16.622z"/>
	</g>
	<g id="XMLID_2239_">
		<path id="XMLID_2226_" class="st0" d="M26.279,10.866h-8.215c-0.343,0-0.621-0.278-0.621-0.621c0-0.343,0.278-0.621,0.621-0.621
			h8.215c0.343,0,0.621,0.278,0.621,0.621C26.9,10.588,26.622,10.866,26.279,10.866z"/>
	</g>
</g>
</svg>
