<?xml version="1.0" encoding="utf-8"?>
<!-- Generator: Adobe Illustrator 21.1.0, SVG Export Plug-In . SVG Version: 6.00 Build 0)  -->
<svg version="1.1" id="Layer_1" xmlns="http://www.w3.org/2000/svg" xmlns:xlink="http://www.w3.org/1999/xlink" x="0px" y="0px"
	 viewBox="0 0 32 32" style="enable-background:new 0 0 32 32;" xml:space="preserve">
<style type="text/css">
	.st0{fill:#8F6D52;}
	.st1{fill:#7FB241;}
	.st2{fill:#A5856D;}
	.st3{fill:#FFFFFF;}
	.st4{fill:#7FB239;}
	.st5{fill:#45CBEA;}
	.st6{fill:#5A5F63;}
	.st7{fill:#8BC540;}
	.st8{fill:#E14B4B;}
	.st9{fill:#F3C432;}
	.st10{fill:#FFD83B;}
	.st11{fill:#DAE5EF;}
	.st12{fill:#E24B4B;}
	.st13{fill:#3E4347;}
	.st14{fill:#5B5F63;}
	.st15{fill:#6DAFDF;}
	.st16{fill:#9A795F;}
	.st17{fill:#997960;}
	.st18{fill:#FFD93B;}
	.st19{fill:#E2E2E1;}
	.st20{fill:#3F4347;}
	.st21{opacity:0.02;fill:#2F3133;}
	.st22{fill:#E9EFF4;}
	.st23{fill:#DEE4E9;}
	.st24{fill:#F4C534;}
	.st25{fill:#BBC7D1;}
	.st26{fill:#DDE3E9;}
	.st27{fill:#E8EBEE;}
	.st28{fill:#DDDDDC;}
	.st29{fill:#F4F4F4;}
	.st30{fill:#777B7E;}
	.st31{opacity:0.1;fill:#231F20;}
	.st32{fill:#E574AC;}
	.st33{fill:#428DC3;}
	.st34{fill:#4CC6E5;}
	.st35{fill:#E8EFF3;}
	.st36{fill:#8E6D53;}
	.st37{fill:#719C40;}
	.st38{fill:url(#XMLID_3_);}
	.st39{fill:#FFF100;}
	.st40{fill:#9FDCF8;}
	.st41{fill:#27B2CC;}
	.st42{fill:#CBD6E0;}
	.st43{fill:#BF3333;}
	.st44{fill:#D03F3F;}
	.st45{fill:#5CA3D9;}
	.st46{fill:#CE7629;}
	.st47{fill:#E18823;}
	.st48{fill:#A4856D;}
	.st49{fill:#7BA740;}
	.st50{fill:#F29A2E;}
	.st51{fill:#F2F2F2;}
	.st52{fill:#83B844;}
	.st53{fill:#8BC04C;}
	.st54{fill:#7A5B44;}
	.st55{fill:#8CC63E;}
	.st56{fill:#89664C;}
	.st57{fill:#65B1EF;}
	.st58{fill:#4D98D2;}
	.st59{fill:#BAC6D0;}
	.st60{fill:#7AA440;}
	.st61{fill:#ACB9C1;}
	.st62{fill:#E8AF2A;}
	.st63{fill:#D03F3E;}
	.st64{fill:#DF8726;}
	.st65{fill:#DF9D27;}
	.st66{fill:#D3D9DD;}
	.st67{fill:none;stroke:#FFFFFF;stroke-width:2.5;stroke-linecap:round;stroke-linejoin:round;stroke-miterlimit:10;}
	.st68{fill:#FCD91A;}
	.st69{opacity:0.05;fill:#3F4347;}
	.st70{fill:#5F6469;}
	.st71{fill:#64696E;}
	.st72{fill:#939799;}
	.st73{fill:#6F7378;}
	.st74{fill:#D2D8DD;}
	.st75{fill:#4E99D2;}
	.st76{fill:#7B8B92;}
	.st77{fill:#38C0DC;}
	.st78{opacity:0.2;}
	.st79{fill:#FDE7AA;}
	.st80{fill:#FFDC96;}
	.st81{fill:#64892F;}
	.st82{fill:#E9B02C;}
</style>
<g>
	<g>
		<rect id="XMLID_315_" x="8.606" y="0.279" class="st20" width="1.459" height="2.263"/>
	</g>
	<g id="XMLID_299_">
		<g>
			<path class="st11" d="M25.16,20.5l-0.9,10.44c-0.05,0.67-0.61,1.19-1.29,1.19H13.4c-0.68,0-1.24-0.52-1.29-1.19l-0.9-10.44
				l4-11.42h5.95L25.16,20.5z"/>
		</g>
		<polygon id="XMLID_3662_" class="st15" points="13.258,20.999 14.044,30.126 22.327,30.126 23.113,20.999 		"/>
		<rect id="XMLID_3592_" x="15.209" y="5.586" class="st20" width="5.952" height="3.495"/>
		<g id="XMLID_239_">
			<g>
				<path id="XMLID_3586_" class="st20" d="M11.354,2.793c-0.304,0.165-0.603,0.558-0.603,0.558
					c-0.205,5.575-3.618,7.122-3.618,7.122c1.342,1.411,4.128-3.053,4.778-4.574c0.411-0.962,0.998-0.996,1.325-0.791
					c0.729,0.457,1.468,0.54,1.468,0.54V4.897l0-0.003C14.701,4.89,13.492,3.345,11.354,2.793z"/>
			</g>
			<g>
				<path class="st8" d="M21.8,4.09v1.56h-7.09V4.89c0,0-1.98-2.16-5.02-2.2c-0.08,0-0.14-0.06-0.14-0.14V0.27
					c0-0.07,0.06-0.14,0.14-0.14h8.15C20.03,0.13,21.8,1.9,21.8,4.09z"/>
			</g>
			<g>
				<path class="st8" d="M9.19,0.14v2.54c0,0.16-0.14,0.28-0.29,0.27L7.08,2.81C6.94,2.8,6.84,2.68,6.84,2.54V0.28
					c0-0.14,0.1-0.26,0.24-0.27L8.9-0.13C9.05-0.14,9.19-0.02,9.19,0.14z"/>
			</g>
		</g>
		<ellipse id="XMLID_227_" class="st45" cx="18.185" cy="20.999" rx="4.928" ry="0.633"/>
	</g>
</g>
</svg>
