<?xml version="1.0" encoding="utf-8"?>
<!-- Generator: Adobe Illustrator 21.1.0, SVG Export Plug-In . SVG Version: 6.00 Build 0)  -->
<svg version="1.1" id="Layer_1" xmlns="http://www.w3.org/2000/svg" xmlns:xlink="http://www.w3.org/1999/xlink" x="0px" y="0px"
	 viewBox="0 0 32 32" style="enable-background:new 0 0 32 32;" xml:space="preserve">
<style type="text/css">
	.st0{fill:#8F6D52;}
	.st1{fill:#7FB241;}
	.st2{fill:#A5856D;}
	.st3{fill:#FFFFFF;}
	.st4{fill:#7FB239;}
	.st5{fill:#45CBEA;}
	.st6{fill:#5A5F63;}
	.st7{fill:#8BC540;}
	.st8{fill:#E14B4B;}
	.st9{fill:#F3C432;}
	.st10{fill:#FFD83B;}
	.st11{fill:#DAE5EF;}
	.st12{fill:#E24B4B;}
	.st13{fill:#3E4347;}
	.st14{fill:#5B5F63;}
	.st15{fill:#6DAFDF;}
	.st16{fill:#9A795F;}
	.st17{fill:#997960;}
	.st18{fill:#FFD93B;}
	.st19{fill:#E2E2E1;}
	.st20{fill:#3F4347;}
	.st21{opacity:0.02;fill:#2F3133;}
	.st22{fill:#E9EFF4;}
	.st23{fill:#DEE4E9;}
	.st24{fill:#F4C534;}
	.st25{fill:#BBC7D1;}
	.st26{fill:#DDE3E9;}
	.st27{fill:#E8EBEE;}
	.st28{fill:#DDDDDC;}
	.st29{fill:#F4F4F4;}
	.st30{fill:#777B7E;}
	.st31{opacity:0.1;fill:#231F20;}
	.st32{fill:#E574AC;}
	.st33{fill:#428DC3;}
	.st34{fill:#4CC6E5;}
	.st35{fill:#E8EFF3;}
	.st36{fill:#8E6D53;}
	.st37{fill:#719C40;}
	.st38{fill:url(#XMLID_3_);}
	.st39{fill:#FFF100;}
	.st40{fill:#9FDCF8;}
	.st41{fill:#27B2CC;}
	.st42{fill:#CBD6E0;}
	.st43{fill:#BF3333;}
	.st44{fill:#D03F3F;}
	.st45{fill:#5CA3D9;}
	.st46{fill:#CE7629;}
	.st47{fill:#E18823;}
	.st48{fill:#A4856D;}
	.st49{fill:#7BA740;}
	.st50{fill:#F29A2E;}
	.st51{fill:#F2F2F2;}
	.st52{fill:#83B844;}
	.st53{fill:#8BC04C;}
	.st54{fill:#7A5B44;}
	.st55{fill:#8CC63E;}
	.st56{fill:#89664C;}
	.st57{fill:#65B1EF;}
	.st58{fill:#4D98D2;}
	.st59{fill:#BAC6D0;}
	.st60{fill:#7AA440;}
	.st61{fill:#ACB9C1;}
	.st62{fill:#E8AF2A;}
	.st63{fill:#D03F3E;}
	.st64{fill:#DF8726;}
	.st65{fill:#DF9D27;}
	.st66{fill:#D3D9DD;}
	.st67{fill:none;stroke:#FFFFFF;stroke-width:2.5;stroke-linecap:round;stroke-linejoin:round;stroke-miterlimit:10;}
	.st68{fill:#FCD91A;}
	.st69{opacity:0.05;fill:#3F4347;}
	.st70{fill:#5F6469;}
	.st71{fill:#64696E;}
	.st72{fill:#939799;}
	.st73{fill:#6F7378;}
	.st74{fill:#D2D8DD;}
	.st75{fill:#4E99D2;}
	.st76{fill:#7B8B92;}
	.st77{fill:#38C0DC;}
	.st78{opacity:0.2;}
	.st79{fill:#FDE7AA;}
	.st80{fill:#FFDC96;}
	.st81{fill:#64892F;}
	.st82{fill:#E9B02C;}
</style>
<g id="XMLID_2753_">
	<g>
		<path class="st6" d="M13.235,29.987c0.386,1.164,1.472,2.015,2.769,2.015c1.289,0,2.373-0.852,2.759-2.015H13.235z"/>
	</g>
	<path id="XMLID_2755_" class="st10" d="M26.309,10.307c0-5.83-4.839-10.529-10.719-10.301c-5.476,0.212-9.928,4.877-9.899,10.357
		c0.016,3.081,1.387,5.838,3.545,7.713c1.968,1.71,3.058,4.219,3.058,6.826v0.151h7.41v-0.148c0-2.694,1.251-5.177,3.242-6.992
		C25.012,16.03,26.309,13.322,26.309,10.307z"/>
	<path id="XMLID_2747_" class="st22" d="M19.72,25.053H12.28c-0.51,0-0.924,0.414-0.924,0.924v0c0,0.51,0.414,0.924,0.924,0.924
		h7.441c0.51,0,0.924-0.414,0.924-0.924v0C20.644,25.466,20.23,25.053,19.72,25.053z"/>
	<path id="XMLID_2697_" class="st23" d="M19.72,26.9H12.28c-0.51,0-0.924,0.414-0.924,0.924v0c0,0.51,0.414,0.924,0.924,0.924h7.441
		c0.51,0,0.924-0.414,0.924-0.924v0C20.644,27.314,20.23,26.9,19.72,26.9z"/>
	<path id="XMLID_2756_" class="st22" d="M19.72,28.747H12.28c-0.51,0-0.924,0.414-0.924,0.924l0,0c0,0.51,0.414,0.924,0.924,0.924
		h7.441c0.51,0,0.924-0.414,0.924-0.924l0,0C20.644,29.161,20.23,28.747,19.72,28.747z"/>
	<g id="XMLID_2752_">
		<path id="XMLID_2783_" class="st7" d="M11.27,13.275c0,0,1.767,1.392,3.159,2.123c0,0,2.853,1.621,1.275,3.271
			c0,0-0.315,0.413-0.901,0.744c-1.557,0.88-3.563-0.119-3.779-1.895c-0.045-0.367-0.012-0.767,0.147-1.19
			C11.883,14.422,11.27,13.275,11.27,13.275z"/>
		<path id="XMLID_2809_" class="st7" d="M16.122,15.586c0,0-0.782-2.793,3.376-4.556c0,0,4.564-1.439,4.72-2.176
			c0,0-0.655,2.137-0.749,4.674c-0.028,0.76-0.124,1.521-0.383,2.237c-0.453,1.256-1.43,2.756-3.479,2.409
			C16.191,17.597,16.122,15.586,16.122,15.586z"/>
		<path id="XMLID_2757_" class="st1" d="M19.019,14.654c-0.55,0.794-1.505,2.455-2.041,3.63c-0.445,0.959-0.971,2.168-1.228,3.193
			c-0.512-1.759-1.233-3.448-1.724-4.33c-0.986-1.857-1.699-2.714-2.757-3.873c0.988,1.191,1.664,2.088,2.552,3.975
			c0.485,0.977,1.148,2.807,1.56,4.624v3.18h0.907c0,0-0.142-3.022,0.149-3.893c0.271-0.922,0.607-1.807,0.972-2.684
			c0.418-1.023,1.293-2.751,1.869-3.658c1.939-3.163,3.529-4.571,4.958-5.841C22.64,10.286,21.041,11.633,19.019,14.654z"/>
	</g>
</g>
</svg>
