<?xml version="1.0" encoding="utf-8"?>
<!-- Generator: Adobe Illustrator 21.1.0, SVG Export Plug-In . SVG Version: 6.00 Build 0)  -->
<svg version="1.1" id="Layer_1" xmlns="http://www.w3.org/2000/svg" xmlns:xlink="http://www.w3.org/1999/xlink" x="0px" y="0px"
	 viewBox="0 0 32 32" style="enable-background:new 0 0 32 32;" xml:space="preserve">
<style type="text/css">
	.st0{fill:#8F6D52;}
	.st1{fill:#7FB241;}
	.st2{fill:#A5856D;}
	.st3{fill:#FFFFFF;}
	.st4{fill:#7FB239;}
	.st5{fill:#45CBEA;}
	.st6{fill:#5A5F63;}
	.st7{fill:#8BC540;}
	.st8{fill:#E14B4B;}
	.st9{fill:#F3C432;}
	.st10{fill:#FFD83B;}
	.st11{fill:#DAE5EF;}
	.st12{fill:#E24B4B;}
	.st13{fill:#3E4347;}
	.st14{fill:#5B5F63;}
	.st15{fill:#6DAFDF;}
	.st16{fill:#9A795F;}
	.st17{fill:#997960;}
	.st18{fill:#FFD93B;}
	.st19{fill:#E2E2E1;}
	.st20{fill:#3F4347;}
	.st21{opacity:0.02;fill:#2F3133;}
	.st22{fill:#E9EFF4;}
	.st23{fill:#DEE4E9;}
	.st24{fill:#F4C534;}
	.st25{fill:#BBC7D1;}
	.st26{fill:#DDE3E9;}
	.st27{fill:#E8EBEE;}
	.st28{fill:#DDDDDC;}
	.st29{fill:#F4F4F4;}
	.st30{fill:#777B7E;}
	.st31{opacity:0.1;fill:#231F20;}
	.st32{fill:#E574AC;}
	.st33{fill:#428DC3;}
	.st34{fill:#4CC6E5;}
	.st35{fill:#E8EFF3;}
	.st36{fill:#8E6D53;}
	.st37{fill:#719C40;}
	.st38{fill:url(#XMLID_3_);}
	.st39{fill:#FFF100;}
	.st40{fill:#9FDCF8;}
	.st41{fill:#27B2CC;}
	.st42{fill:#CBD6E0;}
	.st43{fill:#BF3333;}
	.st44{fill:#D03F3F;}
	.st45{fill:#5CA3D9;}
	.st46{fill:#CE7629;}
	.st47{fill:#E18823;}
	.st48{fill:#A4856D;}
	.st49{fill:#7BA740;}
	.st50{fill:#F29A2E;}
	.st51{fill:#F2F2F2;}
	.st52{fill:#83B844;}
	.st53{fill:#8BC04C;}
	.st54{fill:#7A5B44;}
	.st55{fill:#8CC63E;}
	.st56{fill:#89664C;}
	.st57{fill:#65B1EF;}
	.st58{fill:#4D98D2;}
	.st59{fill:#BAC6D0;}
	.st60{fill:#7AA440;}
	.st61{fill:#ACB9C1;}
	.st62{fill:#E8AF2A;}
	.st63{fill:#D03F3E;}
	.st64{fill:#DF8726;}
	.st65{fill:#DF9D27;}
	.st66{fill:#D3D9DD;}
	.st67{fill:none;stroke:#FFFFFF;stroke-width:2.5;stroke-linecap:round;stroke-linejoin:round;stroke-miterlimit:10;}
	.st68{fill:#FCD91A;}
	.st69{opacity:0.05;fill:#3F4347;}
	.st70{fill:#5F6469;}
	.st71{fill:#64696E;}
	.st72{fill:#939799;}
	.st73{fill:#6F7378;}
	.st74{fill:#D2D8DD;}
	.st75{fill:#4E99D2;}
	.st76{fill:#7B8B92;}
	.st77{fill:#38C0DC;}
	.st78{opacity:0.2;}
	.st79{fill:#FDE7AA;}
	.st80{fill:#FFDC96;}
	.st81{fill:#64892F;}
	.st82{fill:#E9B02C;}
</style>
<g id="XMLID_2346_">
	<g>
		<polygon id="XMLID_2313_" class="st25" points="16.014,32 19.134,32 21.216,21.711 18.095,21.711 		"/>
	</g>
	<g id="XMLID_2348_">
		<g id="XMLID_2369_">
			<circle id="XMLID_2370_" class="st10" cx="7.077" cy="7.131" r="4.598"/>
		</g>
		<g id="XMLID_2364_">
			<g id="XMLID_2367_">
				<path id="XMLID_2368_" class="st10" d="M7.076,1.919c-0.241,0-0.435-0.195-0.435-0.435V0.435C6.641,0.195,6.836,0,7.076,0
					c0.241,0,0.435,0.195,0.435,0.435v1.049C7.512,1.725,7.317,1.919,7.076,1.919z"/>
			</g>
			<g id="XMLID_2365_">
				<path id="XMLID_2366_" class="st10" d="M7.076,14.261c-0.241,0-0.435-0.195-0.435-0.435v-1.048c0-0.241,0.195-0.435,0.435-0.435
					c0.241,0,0.435,0.195,0.435,0.435v1.048C7.512,14.066,7.317,14.261,7.076,14.261z"/>
			</g>
		</g>
		<g id="XMLID_2359_">
			<g id="XMLID_2362_">
				<path id="XMLID_2363_" class="st10" d="M10.762,3.445c-0.17-0.17-0.17-0.445,0-0.615l0.741-0.741c0.17-0.17,0.445-0.17,0.615,0
					s0.17,0.445,0,0.615l-0.741,0.741C11.207,3.615,10.932,3.615,10.762,3.445z"/>
			</g>
			<g id="XMLID_2360_">
				<path id="XMLID_2361_" class="st10" d="M2.035,12.172c-0.17-0.17-0.17-0.445,0-0.615l0.741-0.741c0.17-0.17,0.445-0.17,0.615,0
					c0.17,0.17,0.17,0.445,0,0.615L2.65,12.172C2.48,12.342,2.205,12.342,2.035,12.172z"/>
			</g>
		</g>
		<g id="XMLID_2354_">
			<g id="XMLID_2357_">
				<path id="XMLID_2358_" class="st10" d="M13.772,7.566h-1.048c-0.241,0-0.435-0.195-0.435-0.435c0-0.241,0.195-0.435,0.435-0.435
					h1.048c0.241,0,0.435,0.195,0.435,0.435C14.207,7.371,14.013,7.566,13.772,7.566z"/>
			</g>
			<g id="XMLID_2355_">
				<path id="XMLID_2356_" class="st10" d="M1.43,7.566H0.381c-0.241,0-0.435-0.195-0.435-0.435c0-0.241,0.195-0.435,0.435-0.435
					H1.43c0.241,0,0.435,0.195,0.435,0.435C1.865,7.371,1.67,7.566,1.43,7.566z"/>
			</g>
		</g>
		<g id="XMLID_2349_">
			<g id="XMLID_2352_">
				<path id="XMLID_2353_" class="st10" d="M11.503,12.172l-0.741-0.741c-0.17-0.17-0.17-0.445,0-0.615
					c0.17-0.17,0.445-0.17,0.615,0l0.741,0.741c0.17,0.17,0.17,0.445,0,0.615C11.949,12.342,11.673,12.342,11.503,12.172z"/>
			</g>
			<g id="XMLID_2350_">
				<path id="XMLID_2351_" class="st10" d="M2.776,3.445L2.035,2.704c-0.17-0.17-0.17-0.445,0-0.615s0.445-0.17,0.615,0L3.391,2.83
					c0.17,0.17,0.17,0.445,0,0.615C3.221,3.615,2.946,3.615,2.776,3.445z"/>
			</g>
		</g>
	</g>
	<g id="XMLID_2312_">
		<path id="XMLID_2311_" class="st26" d="M25.923,29.53L9.84,25.168c-0.309-0.084-0.417-0.55-0.244-1.039l4.093-11.652
			c0.154-0.438,0.54-0.813,0.867-0.838l16.585-1.284c0.645-0.05,1.043,0.415,0.875,1.043l-4.562,17.11
			C27.257,29.246,26.565,29.704,25.923,29.53z"/>
		<g id="XMLID_2324_">
			<polygon id="XMLID_2325_" class="st15" points="25.532,11.759 21.603,11.992 20.464,15.608 24.374,15.664 			"/>
			<polygon id="XMLID_2326_" class="st15" points="11.595,20.098 14.112,20.427 15.465,16.409 12.911,16.322 			"/>
			<polygon id="XMLID_2328_" class="st15" points="16.417,15.551 19.679,15.597 20.812,12.039 17.524,12.234 			"/>
			<polygon id="XMLID_2329_" class="st15" points="25.324,15.677 29.699,15.739 30.867,11.443 26.485,11.703 			"/>
			<polygon id="XMLID_2330_" class="st15" points="19.377,16.543 16.124,16.432 14.762,20.512 17.979,20.933 			"/>
			<polygon id="XMLID_2331_" class="st15" points="16.421,25.826 17.663,21.926 14.455,21.433 13.249,25.046 			"/>
			<polygon id="XMLID_2332_" class="st15" points="13.807,21.334 11.298,20.949 10.136,24.281 12.61,24.889 			"/>
			<polygon id="XMLID_2333_" class="st15" points="15.757,15.542 16.857,12.273 14.269,12.427 13.196,15.506 			"/>
			<polygon id="XMLID_2334_" class="st15" points="23.246,22.783 21.959,27.187 26.295,28.253 27.601,23.452 			"/>
			<polygon id="XMLID_2335_" class="st15" points="29.387,16.885 25.014,16.736 23.573,21.665 27.932,22.235 			"/>
			<polygon id="XMLID_2336_" class="st15" points="20.161,16.57 18.756,21.035 22.63,21.542 24.066,16.703 			"/>
			<polygon id="XMLID_2337_" class="st15" points="22.305,22.638 18.438,22.045 17.188,26.014 21.023,26.957 			"/>
		</g>
	</g>
</g>
</svg>
