<?xml version="1.0" encoding="utf-8"?>
<!-- Generator: Adobe Illustrator 21.1.0, SVG Export Plug-In . SVG Version: 6.00 Build 0)  -->
<svg version="1.1" id="Layer_1" xmlns="http://www.w3.org/2000/svg" xmlns:xlink="http://www.w3.org/1999/xlink" x="0px" y="0px"
	 viewBox="0 0 32 32" style="enable-background:new 0 0 32 32;" xml:space="preserve">
<style type="text/css">
	.st0{fill:#8F6D52;}
	.st1{fill:#7FB241;}
	.st2{fill:#A5856D;}
	.st3{fill:#FFFFFF;}
	.st4{fill:#7FB239;}
	.st5{fill:#45CBEA;}
	.st6{fill:#5A5F63;}
	.st7{fill:#8BC540;}
	.st8{fill:#E14B4B;}
	.st9{fill:#F3C432;}
	.st10{fill:#FFD83B;}
	.st11{fill:#DAE5EF;}
	.st12{fill:#E24B4B;}
	.st13{fill:#3E4347;}
	.st14{fill:#5B5F63;}
	.st15{fill:#6DAFDF;}
	.st16{fill:#9A795F;}
	.st17{fill:#997960;}
	.st18{fill:#FFD93B;}
	.st19{fill:#E2E2E1;}
	.st20{fill:#3F4347;}
	.st21{opacity:0.02;fill:#2F3133;}
	.st22{fill:#E9EFF4;}
	.st23{fill:#DEE4E9;}
	.st24{fill:#F4C534;}
	.st25{fill:#BBC7D1;}
	.st26{fill:#DDE3E9;}
	.st27{fill:#E8EBEE;}
	.st28{fill:#DDDDDC;}
	.st29{fill:#F4F4F4;}
	.st30{fill:#777B7E;}
	.st31{opacity:0.1;fill:#231F20;}
	.st32{fill:#E574AC;}
	.st33{fill:#428DC3;}
	.st34{fill:#4CC6E5;}
	.st35{fill:#E8EFF3;}
	.st36{fill:#8E6D53;}
	.st37{fill:#719C40;}
	.st38{fill:url(#XMLID_3_);}
	.st39{fill:#FFF100;}
	.st40{fill:#9FDCF8;}
	.st41{fill:#27B2CC;}
	.st42{fill:#CBD6E0;}
	.st43{fill:#BF3333;}
	.st44{fill:#D03F3F;}
	.st45{fill:#5CA3D9;}
	.st46{fill:#CE7629;}
	.st47{fill:#E18823;}
	.st48{fill:#A4856D;}
	.st49{fill:#7BA740;}
	.st50{fill:#F29A2E;}
	.st51{fill:#F2F2F2;}
	.st52{fill:#83B844;}
	.st53{fill:#8BC04C;}
	.st54{fill:#7A5B44;}
	.st55{fill:#8CC63E;}
	.st56{fill:#89664C;}
	.st57{fill:#65B1EF;}
	.st58{fill:#4D98D2;}
	.st59{fill:#BAC6D0;}
	.st60{fill:#7AA440;}
	.st61{fill:#ACB9C1;}
	.st62{fill:#E8AF2A;}
	.st63{fill:#D03F3E;}
	.st64{fill:#DF8726;}
	.st65{fill:#DF9D27;}
	.st66{fill:#D3D9DD;}
	.st67{fill:none;stroke:#FFFFFF;stroke-width:2.5;stroke-linecap:round;stroke-linejoin:round;stroke-miterlimit:10;}
	.st68{fill:#FCD91A;}
	.st69{opacity:0.05;fill:#3F4347;}
	.st70{fill:#5F6469;}
	.st71{fill:#64696E;}
	.st72{fill:#939799;}
	.st73{fill:#6F7378;}
	.st74{fill:#D2D8DD;}
	.st75{fill:#4E99D2;}
	.st76{fill:#7B8B92;}
	.st77{fill:#38C0DC;}
	.st78{opacity:0.2;}
	.st79{fill:#FDE7AA;}
	.st80{fill:#FFDC96;}
	.st81{fill:#64892F;}
	.st82{fill:#E9B02C;}
</style>
<g id="XMLID_4566_">
	<g>
		<rect id="XMLID_4569_" x="11.941" y="26.004" class="st13" width="3.054" height="5.015"/>
	</g>
	<g>
		<path class="st14" d="M18.239,31.404c-0.199-0.812-0.927-1.417-1.8-1.417h-5.942c-0.873,0-1.601,0.605-1.8,1.417H18.239z"/>
	</g>
	<path id="XMLID_4549_" class="st22" d="M25.475,26.684L1.48,26.77c-0.701,0.002-1.187-0.699-0.939-1.354l4.651-12.28
		c0.147-0.388,0.518-0.645,0.933-0.646l14.64-0.031c0.414-0.001,0.787,0.254,0.935,0.641l4.704,12.225
		C26.657,25.979,26.176,26.682,25.475,26.684z"/>
	<polygon id="XMLID_4555_" class="st33" points="1.793,25.281 5.988,13.056 20.906,13.023 25.16,25.201 	"/>
	<g id="XMLID_4561_">
		<polygon id="XMLID_4550_" class="st22" points="22.619,15.486 4.285,15.53 4.003,16.275 22.904,16.227 		"/>
		<polygon id="XMLID_4564_" class="st22" points="24.168,19.512 2.754,19.573 2.368,20.594 24.559,20.529 		"/>
	</g>
	<g id="XMLID_4565_">
		<polygon id="XMLID_4581_" class="st22" points="17.611,12.736 20.241,25.961 19.018,25.965 16.857,12.737 		"/>
		<polygon id="XMLID_4582_" class="st22" points="9.29,12.754 10.045,12.752 7.961,26.004 6.734,26.008 		"/>
		<polygon id="XMLID_4583_" class="st22" points="13.075,12.746 13.83,12.744 14.105,25.983 12.88,25.987 		"/>
	</g>
	<g id="XMLID_4586_">
		<polygon id="XMLID_4587_" class="st18" points="27.713,1.14 26.243,0.596 25.617,2.91 26.27,3.155 		"/>
		<polygon id="XMLID_4588_" class="st18" points="28.258,4.38 31.334,2.202 29.973,1.031 27.713,3.863 		"/>
		<polygon id="XMLID_4589_" class="st18" points="28.72,5.523 28.72,6.476 31.525,6.857 31.525,5.142 		"/>
		<polygon id="XMLID_4590_" class="st18" points="28.285,8.327 29.701,9.77 30.3,8.572 28.557,7.538 		"/>
		<polygon id="XMLID_4591_" class="st18" points="26.869,9.77 28.938,13.228 30.123,12.085 27.305,9.199 		"/>
		<polygon id="XMLID_4592_" class="st18" points="25.154,9.961 24.963,12.82 26.488,12.656 25.807,9.961 		"/>
		<polygon id="XMLID_4593_" class="st18" points="22.159,11.213 23.357,11.649 23.738,9.77 22.813,9.389 		"/>
		<polygon id="XMLID_4594_" class="st18" points="18.538,9.199 19.382,10.536 21.914,8.436 21.397,7.674 		"/>
		<polygon id="XMLID_4595_" class="st18" points="21.234,6 17.912,5.523 17.912,7.102 21.234,6.694 		"/>
		<polygon id="XMLID_4596_" class="st18" points="21.914,3.781 19.9,1.521 19.192,3.155 21.669,4.38 		"/>
		<polygon id="XMLID_4597_" class="st18" points="24.038,2.951 23.874,0.596 22.377,1.167 23.207,2.951 		"/>
		<circle id="XMLID_4598_" class="st18" cx="24.827" cy="6.313" r="3.022"/>
	</g>
</g>
</svg>
