<?xml version="1.0" encoding="utf-8"?>
<!-- Generator: Adobe Illustrator 21.1.0, SVG Export Plug-In . SVG Version: 6.00 Build 0)  -->
<svg version="1.1" id="Layer_1" xmlns="http://www.w3.org/2000/svg" xmlns:xlink="http://www.w3.org/1999/xlink" x="0px" y="0px"
	 viewBox="0 0 32 32" style="enable-background:new 0 0 32 32;" xml:space="preserve">
<style type="text/css">
	.st0{fill:#8F6D52;}
	.st1{fill:#7FB241;}
	.st2{fill:#A5856D;}
	.st3{fill:#FFFFFF;}
	.st4{fill:#7FB239;}
	.st5{fill:#45CBEA;}
	.st6{fill:#5A5F63;}
	.st7{fill:#8BC540;}
	.st8{fill:#E14B4B;}
	.st9{fill:#F3C432;}
	.st10{fill:#FFD83B;}
	.st11{fill:#DAE5EF;}
	.st12{fill:#E24B4B;}
	.st13{fill:#3E4347;}
	.st14{fill:#5B5F63;}
	.st15{fill:#6DAFDF;}
	.st16{fill:#9A795F;}
	.st17{fill:#997960;}
	.st18{fill:#FFD93B;}
	.st19{fill:#E2E2E1;}
	.st20{fill:#3F4347;}
	.st21{opacity:0.02;fill:#2F3133;}
	.st22{fill:#E9EFF4;}
	.st23{fill:#DEE4E9;}
	.st24{fill:#F4C534;}
	.st25{fill:#BBC7D1;}
	.st26{fill:#DDE3E9;}
	.st27{fill:#E8EBEE;}
	.st28{fill:#DDDDDC;}
	.st29{fill:#F4F4F4;}
	.st30{fill:#777B7E;}
	.st31{opacity:0.1;fill:#231F20;}
	.st32{fill:#E574AC;}
	.st33{fill:#428DC3;}
	.st34{fill:#4CC6E5;}
	.st35{fill:#E8EFF3;}
	.st36{fill:#8E6D53;}
	.st37{fill:#719C40;}
	.st38{fill:url(#XMLID_3_);}
	.st39{fill:#FFF100;}
	.st40{fill:#9FDCF8;}
	.st41{fill:#27B2CC;}
	.st42{fill:#CBD6E0;}
	.st43{fill:#BF3333;}
	.st44{fill:#D03F3F;}
	.st45{fill:#5CA3D9;}
	.st46{fill:#CE7629;}
	.st47{fill:#E18823;}
	.st48{fill:#A4856D;}
	.st49{fill:#7BA740;}
	.st50{fill:#F29A2E;}
	.st51{fill:#F2F2F2;}
	.st52{fill:#83B844;}
	.st53{fill:#8BC04C;}
	.st54{fill:#7A5B44;}
	.st55{fill:#8CC63E;}
	.st56{fill:#89664C;}
	.st57{fill:#65B1EF;}
	.st58{fill:#4D98D2;}
	.st59{fill:#BAC6D0;}
	.st60{fill:#7AA440;}
	.st61{fill:#ACB9C1;}
	.st62{fill:#E8AF2A;}
	.st63{fill:#D03F3E;}
	.st64{fill:#DF8726;}
	.st65{fill:#DF9D27;}
	.st66{fill:#D3D9DD;}
	.st67{fill:none;stroke:#FFFFFF;stroke-width:2.5;stroke-linecap:round;stroke-linejoin:round;stroke-miterlimit:10;}
	.st68{fill:#FCD91A;}
	.st69{opacity:0.05;fill:#3F4347;}
	.st70{fill:#5F6469;}
	.st71{fill:#64696E;}
	.st72{fill:#939799;}
	.st73{fill:#6F7378;}
	.st74{fill:#D2D8DD;}
	.st75{fill:#4E99D2;}
	.st76{fill:#7B8B92;}
	.st77{fill:#38C0DC;}
	.st78{opacity:0.2;}
	.st79{fill:#FDE7AA;}
	.st80{fill:#FFDC96;}
	.st81{fill:#64892F;}
	.st82{fill:#E9B02C;}
</style>
<g>
	<path id="XMLID_2751_" class="st7" d="M20.096,9.769c0,0-0.448-3.657,5.113-5.075c0,0,6.008-0.933,6.344-1.829
		c0,0-1.455,3.023-1.978,6.568c0,0-1.418,5.635-5.598,4.254S20.096,9.769,20.096,9.769z"/>
	<path id="XMLID_2750_" class="st7" d="M8.797,6.684c0,0,2.836,1.298,4.95,1.826c0,0,4.374,1.25,2.788,3.989
		c0,0-0.289,0.659-0.97,1.297c-1.81,1.696-4.839,1.006-5.711-1.316c-0.18-0.479-0.267-1.029-0.192-1.651
		C9.998,8.029,8.797,6.684,8.797,6.684z"/>
	<path id="XMLID_2749_" class="st1" d="M18.411,19.58c-0.006-0.008-1.209-2.611-1.7-3.514c-0.593-1.155-1.745-2.969-2.269-3.665
		c-2.209-3-3.602-4.197-5.645-5.718c2.037,1.37,3.529,2.497,5.956,5.483c0.563,0.678,1.816,2.454,2.479,3.604
		c0.551,0.907,1.266,2.236,1.764,3.371L18.411,19.58z"/>
	<path id="XMLID_2748_" class="st1" d="M25.831,7.197c-0.905,0.793-2.489,2.498-4.218,4.757c-0.705,1-1.86,2.599-2.876,4.583
		c-0.602,1.162-0.761,2.341-0.103,3.538c0.272,0,0.545,0,0.817,0c-0.556-1.011-0.559-2.209-0.027-3.246
		c0.918-1.965,1.966-3.552,2.624-4.568c1.6-2.27,3.08-4.01,3.979-4.863c2.325-2.248,3.06-2.778,5.526-4.376
		C29.706,4.119,28.643,4.686,25.831,7.197z"/>
	<path id="XMLID_2948_" class="st10" d="M4.972,19.273c0,0,1.049,0.12,3.028-0.81c1.979-0.929,3.988-0.3,3.988-0.3
		s2.519,1.199,3.388,1.409s2.758,0.21,4.647,0.12c0,0,2.519-0.48,3.058,1.049c0,0,0.69-0.15,1.829-0.75c0,0,5.487-2.781,6.806-1.66
		c0,0,0.899,0.821-0.57,1.81c0,0-5.997,3.898-9.625,5.517c0,0-1.259,0.48-3.808,2.489c0,0-0.929,0.42-2.099-0.3
		c0,0-6.386-3.328-9.475-2.009L4.972,19.273z"/>
	<g>
		<path id="XMLID_2947_" class="st9" d="M23.285,21.297c0,1.819-4.119,2.042-4.119,2.042c-0.618,0.326-1.51,0.395-1.51,0.395
			c-0.686-0.206-3.981-0.309-3.981-0.309c-1.888,0.206-2.849-0.48-2.849-0.48s0.721,0.824,2.54,0.789c0,0,2.986-0.137,3.69,0.549
			c0,0,1.213,0.309,2.28-0.515c0,0,0.62-0.378,1.341-0.378c0,0,2.197-0.206,2.608-1.441V21.297z"/>
	</g>
	<path id="XMLID_2946_" class="st3" d="M21.434,20.108l-0.716,0.087c-0.167,0.02-0.286,0.172-0.266,0.34l0.217,1.776
		c0.02,0.167,0.172,0.286,0.34,0.266l0.716-0.087c0.658-0.08,1.126-0.678,1.045-1.336C22.689,20.496,22.091,20.028,21.434,20.108z"
		/>
	<path id="XMLID_2945_" class="st3" d="M31.938,19.262c-2.112,0.135-1.991,1.575-1.991,1.575l0.03,0.052
		c0.724-0.455,1.171-0.746,1.171-0.746C31.62,19.825,31.847,19.524,31.938,19.262z"/>
	<polygon id="XMLID_2944_" class="st35" points="6.577,27.769 3.994,28.27 2.486,19.609 4.98,19.121 	"/>
	<g>
		<polygon id="XMLID_2943_" class="st20" points="0.01,29.135 4.046,28.468 2.41,19.121 0.01,19.574 		"/>
	</g>
</g>
</svg>
