<?xml version="1.0" encoding="utf-8"?>
<!-- Generator: Adobe Illustrator 21.1.0, SVG Export Plug-In . SVG Version: 6.00 Build 0)  -->
<svg version="1.1" id="Layer_1" xmlns="http://www.w3.org/2000/svg" xmlns:xlink="http://www.w3.org/1999/xlink" x="0px" y="0px"
	 viewBox="0 0 32 32" style="enable-background:new 0 0 32 32;" xml:space="preserve">
<style type="text/css">
	.st0{fill:#8F6D52;}
	.st1{fill:#7FB241;}
	.st2{fill:#A5856D;}
	.st3{fill:#FFFFFF;}
	.st4{fill:#7FB239;}
	.st5{fill:#45CBEA;}
	.st6{fill:#5A5F63;}
	.st7{fill:#8BC540;}
	.st8{fill:#E14B4B;}
	.st9{fill:#F3C432;}
	.st10{fill:#FFD83B;}
	.st11{fill:#DAE5EF;}
	.st12{fill:#E24B4B;}
	.st13{fill:#3E4347;}
	.st14{fill:#5B5F63;}
	.st15{fill:#6DAFDF;}
	.st16{fill:#9A795F;}
	.st17{fill:#997960;}
	.st18{fill:#FFD93B;}
	.st19{fill:#E2E2E1;}
	.st20{fill:#3F4347;}
	.st21{opacity:0.02;fill:#2F3133;}
	.st22{fill:#E9EFF4;}
	.st23{fill:#DEE4E9;}
	.st24{fill:#F4C534;}
	.st25{fill:#BBC7D1;}
	.st26{fill:#DDE3E9;}
	.st27{fill:#E8EBEE;}
	.st28{fill:#DDDDDC;}
	.st29{fill:#F4F4F4;}
	.st30{fill:#777B7E;}
	.st31{opacity:0.1;fill:#231F20;}
	.st32{fill:#E574AC;}
	.st33{fill:#428DC3;}
	.st34{fill:#4CC6E5;}
	.st35{fill:#E8EFF3;}
	.st36{fill:#8E6D53;}
	.st37{fill:#719C40;}
	.st38{fill:url(#XMLID_3_);}
	.st39{fill:#FFF100;}
	.st40{fill:#9FDCF8;}
	.st41{fill:#27B2CC;}
	.st42{fill:#CBD6E0;}
	.st43{fill:#BF3333;}
	.st44{fill:#D03F3F;}
	.st45{fill:#5CA3D9;}
	.st46{fill:#CE7629;}
	.st47{fill:#E18823;}
	.st48{fill:#A4856D;}
	.st49{fill:#7BA740;}
	.st50{fill:#F29A2E;}
	.st51{fill:#F2F2F2;}
	.st52{fill:#83B844;}
	.st53{fill:#8BC04C;}
	.st54{fill:#7A5B44;}
	.st55{fill:#8CC63E;}
	.st56{fill:#89664C;}
	.st57{fill:#65B1EF;}
	.st58{fill:#4D98D2;}
	.st59{fill:#BAC6D0;}
	.st60{fill:#7AA440;}
	.st61{fill:#ACB9C1;}
	.st62{fill:#E8AF2A;}
	.st63{fill:#D03F3E;}
	.st64{fill:#DF8726;}
	.st65{fill:#DF9D27;}
	.st66{fill:#D3D9DD;}
	.st67{fill:none;stroke:#FFFFFF;stroke-width:2.5;stroke-linecap:round;stroke-linejoin:round;stroke-miterlimit:10;}
	.st68{fill:#FCD91A;}
	.st69{opacity:0.05;fill:#3F4347;}
	.st70{fill:#5F6469;}
	.st71{fill:#64696E;}
	.st72{fill:#939799;}
	.st73{fill:#6F7378;}
	.st74{fill:#D2D8DD;}
	.st75{fill:#4E99D2;}
	.st76{fill:#7B8B92;}
	.st77{fill:#38C0DC;}
	.st78{opacity:0.2;}
	.st79{fill:#FDE7AA;}
	.st80{fill:#FFDC96;}
	.st81{fill:#64892F;}
	.st82{fill:#E9B02C;}
</style>
<g>
	<g id="XMLID_2512_">
		<g id="XMLID_3449_">
			<path id="XMLID_3560_" class="st10" d="M18.824,27.913c0,0,0.587-0.799,0.754-2.845c0.166-2.046,1.616-3.389,1.616-3.389
				s2.152-1.492,2.729-2.103s1.458-2.149,2.266-3.73c0,0,0.784-2.276,2.282-2.002c0,0,0.2-0.632,0.243-1.84
				c0,0,0.295-5.768,1.823-6.319c0,0,1.089-0.35,1.209,1.309c0,0,0.377,6.704,0.003,10.415c0,0-0.197,1.25,0.251,4.263
				c0,0-0.092,0.953-1.224,1.57c0,0-5.691,3.65-6.058,6.781L18.824,27.913z"/>
			<path id="XMLID_3559_" class="st9" d="M29.018,13.938c1.482,0.849-0.258,4.308-0.258,4.308c-0.023,0.655-0.383,1.414-0.383,1.414
				c-0.488,0.463-2.109,3.099-2.109,3.099c-0.713,1.634-1.721,2.096-1.721,2.096s1.007-0.203,1.828-1.701
				c0,0,1.281-2.497,2.169-2.749c0,0,0.818-0.844,0.644-2.097c0,0-0.018-0.682,0.318-1.269c0,0,0.857-1.886,0.043-2.798
				L29.018,13.938z"/>
			<path id="XMLID_3558_" class="st3" d="M27.185,14.892l-0.263,0.624c-0.061,0.146,0.007,0.314,0.153,0.375l1.548,0.652
				c0.146,0.061,0.314-0.007,0.375-0.153l0.263-0.624c0.242-0.573-0.027-1.234-0.6-1.475C28.087,14.05,27.426,14.318,27.185,14.892z
				"/>
			<path id="XMLID_3557_" class="st3" d="M31.398,5.94c-0.875,1.784,0.354,2.357,0.354,2.357l0.056,0
				c-0.033-0.802-0.061-1.302-0.061-1.302C31.707,6.461,31.568,6.136,31.398,5.94z"/>
			<polygon id="XMLID_3552_" class="st26" points="26.074,31.802 26.494,30.57 18.703,27.835 17.937,30.095 22.645,31.802 			"/>
			<polygon id="XMLID_3450_" class="st14" points="22.685,31.802 17.504,29.929 16.855,31.802 			"/>
		</g>
		<g id="XMLID_2519_">
			<path id="XMLID_3445_" class="st10" d="M13.176,27.913c0,0-0.587-0.799-0.754-2.845s-1.616-3.389-1.616-3.389
				s-2.152-1.492-2.729-2.103s-1.458-2.149-2.266-3.73c0,0-0.784-2.276-2.282-2.002c0,0-0.2-0.632-0.243-1.84
				c0,0-0.295-5.768-1.823-6.319c0,0-1.089-0.35-1.209,1.309c0,0-0.377,6.704-0.003,10.415c0,0,0.197,1.25-0.251,4.263
				c0,0,0.092,0.953,1.224,1.57c0,0,5.691,3.65,6.058,6.781L13.176,27.913z"/>
			<path id="XMLID_3444_" class="st9" d="M2.982,13.938c-1.482,0.849,0.258,4.308,0.258,4.308c0.023,0.655,0.383,1.414,0.383,1.414
				c0.488,0.463,2.109,3.099,2.109,3.099c0.713,1.634,1.721,2.096,1.721,2.096s-1.007-0.203-1.828-1.701
				c0,0-1.281-2.497-2.169-2.749c0,0-0.818-0.844-0.644-2.097c0,0,0.018-0.682-0.318-1.269c0,0-0.857-1.886-0.043-2.798
				L2.982,13.938z"/>
			<path id="XMLID_3441_" class="st3" d="M4.815,14.892l0.263,0.624c0.061,0.146-0.007,0.314-0.153,0.375l-1.548,0.652
				c-0.146,0.061-0.314-0.007-0.375-0.153L2.74,15.766c-0.242-0.573,0.027-1.234,0.6-1.475C3.913,14.05,4.574,14.318,4.815,14.892z"
				/>
			<path id="XMLID_2532_" class="st3" d="M0.602,5.94c0.875,1.784-0.354,2.357-0.354,2.357l-0.056,0
				c0.033-0.802,0.061-1.302,0.061-1.302C0.293,6.461,0.432,6.136,0.602,5.94z"/>
			<polygon id="XMLID_2521_" class="st26" points="9.355,31.802 14.063,30.095 13.297,27.835 5.506,30.57 5.926,31.802 			"/>
			<polygon id="XMLID_2520_" class="st14" points="15.145,31.802 14.496,29.929 9.315,31.802 			"/>
		</g>
	</g>
	<g id="XMLID_2510_">
		<path id="XMLID_3565_" class="st57" d="M23.334,13.785c0,4.057-3.291,7.334-7.334,7.334c-4.057,0-7.334-3.277-7.334-7.334
			C8.666,9.742,16,0.198,16,0.198S23.334,9.742,23.334,13.785z"/>
		<path id="XMLID_3564_" class="st3" d="M21.557,13.785c0.085,0.981,0.055,1.56-0.467,2.761c-0.606,1.026-0.87,1.468-2.328,2.329
			c-0.958,0.416-1.677,0.601-2.761,0.467c1.619-0.309,1.224-0.251,2.536-0.879c0.925-0.583,1.536-1.18,2.142-2.141
			C21.315,14.988,21.251,15.398,21.557,13.785z"/>
	</g>
</g>
</svg>
