<?xml version="1.0" encoding="utf-8"?>
<!-- Generator: Adobe Illustrator 21.1.0, SVG Export Plug-In . SVG Version: 6.00 Build 0)  -->
<svg version="1.1" id="Layer_1" xmlns="http://www.w3.org/2000/svg" xmlns:xlink="http://www.w3.org/1999/xlink" x="0px" y="0px"
	 viewBox="0 0 32 32" style="enable-background:new 0 0 32 32;" xml:space="preserve">
<style type="text/css">
	.st0{fill:#8F6D52;}
	.st1{fill:#7FB241;}
	.st2{fill:#A5856D;}
	.st3{fill:#FFFFFF;}
	.st4{fill:#7FB239;}
	.st5{fill:#45CBEA;}
	.st6{fill:#5A5F63;}
	.st7{fill:#8BC540;}
	.st8{fill:#E14B4B;}
	.st9{fill:#F3C432;}
	.st10{fill:#FFD83B;}
	.st11{fill:#DAE5EF;}
	.st12{fill:#E24B4B;}
	.st13{fill:#3E4347;}
	.st14{fill:#5B5F63;}
	.st15{fill:#6DAFDF;}
	.st16{fill:#9A795F;}
	.st17{fill:#997960;}
	.st18{fill:#FFD93B;}
	.st19{fill:#E2E2E1;}
	.st20{fill:#3F4347;}
	.st21{opacity:0.02;fill:#2F3133;}
	.st22{fill:#E9EFF4;}
	.st23{fill:#DEE4E9;}
	.st24{fill:#F4C534;}
	.st25{fill:#BBC7D1;}
	.st26{fill:#DDE3E9;}
	.st27{fill:#E8EBEE;}
	.st28{fill:#DDDDDC;}
	.st29{fill:#F4F4F4;}
	.st30{fill:#777B7E;}
	.st31{opacity:0.1;fill:#231F20;}
	.st32{fill:#E574AC;}
	.st33{fill:#428DC3;}
	.st34{fill:#4CC6E5;}
	.st35{fill:#E8EFF3;}
	.st36{fill:#8E6D53;}
	.st37{fill:#719C40;}
	.st38{fill:url(#XMLID_3_);}
	.st39{fill:#FFF100;}
	.st40{fill:#9FDCF8;}
	.st41{fill:#27B2CC;}
	.st42{fill:#CBD6E0;}
	.st43{fill:#BF3333;}
	.st44{fill:#D03F3F;}
	.st45{fill:#5CA3D9;}
	.st46{fill:#CE7629;}
	.st47{fill:#E18823;}
	.st48{fill:#A4856D;}
	.st49{fill:#7BA740;}
	.st50{fill:#F29A2E;}
	.st51{fill:#F2F2F2;}
	.st52{fill:#83B844;}
	.st53{fill:#8BC04C;}
	.st54{fill:#7A5B44;}
	.st55{fill:#8CC63E;}
	.st56{fill:#89664C;}
	.st57{fill:#65B1EF;}
	.st58{fill:#4D98D2;}
	.st59{fill:#BAC6D0;}
	.st60{fill:#7AA440;}
	.st61{fill:#ACB9C1;}
	.st62{fill:#E8AF2A;}
	.st63{fill:#D03F3E;}
	.st64{fill:#DF8726;}
	.st65{fill:#DF9D27;}
	.st66{fill:#D3D9DD;}
	.st67{fill:none;stroke:#FFFFFF;stroke-width:2.5;stroke-linecap:round;stroke-linejoin:round;stroke-miterlimit:10;}
	.st68{fill:#FCD91A;}
	.st69{opacity:0.05;fill:#3F4347;}
	.st70{fill:#5F6469;}
	.st71{fill:#64696E;}
	.st72{fill:#939799;}
	.st73{fill:#6F7378;}
	.st74{fill:#D2D8DD;}
	.st75{fill:#4E99D2;}
	.st76{fill:#7B8B92;}
	.st77{fill:#38C0DC;}
	.st78{opacity:0.2;}
	.st79{fill:#FDE7AA;}
	.st80{fill:#FFDC96;}
	.st81{fill:#64892F;}
	.st82{fill:#E9B02C;}
</style>
<g id="XMLID_1314_">
	<path id="XMLID_1226_" class="st8" d="M28.607,19.26c0.296,6.959-5.646,12.612-12.612,12.612S3.384,26.225,3.384,19.26
		c0,0-0.122-6.028,1.435-8.741c0,0,0.445,2.847,2.536,3.915s2.669,1.913,2.669,1.913S5.62,7.805,15.585,0.064
		c0,0-0.979,3.959,1.112,5.516s2.847,4.226,2.625,6.139c0,0,2.091-1.513,1.557-5.071c0,0,2.892,1.779,2.758,10.81
		c0,0,3.247-0.222,2.135-5.694C25.772,11.764,28.374,13.766,28.607,19.26z"/>
	<g>
		<path id="XMLID_1229_" class="st10" d="M9.376,25.064c0,0,0.525,7.108,7.229,6.866c0,0,5.654-0.081,6.018-6.179
			c0,0-3.25,2.513-3.219-1.494c0.005-0.713,0.204-1.408,0.521-2.047c0.363-0.734,0.796-2.043,0.518-3.81
			c0,0-0.798,3.474-2.666,1.777c-1.117-1.015-1.554-1.901-1.09-5.937c0,0-1.356,1.178-1.72,3.903
			c-0.069,0.516-0.432,0.968-0.94,1.081c-0.5,0.111-1.116-0.098-1.58-1.377c0,0-1.05,1.528,0.565,5.241c0,0,0.444,1.774-1.01,2.501
			S9.376,25.064,9.376,25.064z"/>
	</g>
</g>
</svg>
