<?xml version="1.0" encoding="utf-8"?>
<!-- Generator: Adobe Illustrator 21.1.0, SVG Export Plug-In . SVG Version: 6.00 Build 0)  -->
<svg version="1.1" id="Layer_1" xmlns="http://www.w3.org/2000/svg" xmlns:xlink="http://www.w3.org/1999/xlink" x="0px" y="0px"
	 viewBox="0 0 32 32" style="enable-background:new 0 0 32 32;" xml:space="preserve">
<style type="text/css">
	.st0{fill:#8F6D52;}
	.st1{fill:#7FB241;}
	.st2{fill:#A5856D;}
	.st3{fill:#FFFFFF;}
	.st4{fill:#7FB239;}
	.st5{fill:#45CBEA;}
	.st6{fill:#5A5F63;}
	.st7{fill:#8BC540;}
	.st8{fill:#E14B4B;}
	.st9{fill:#F3C432;}
	.st10{fill:#FFD83B;}
	.st11{fill:#DAE5EF;}
	.st12{fill:#E24B4B;}
	.st13{fill:#3E4347;}
	.st14{fill:#5B5F63;}
	.st15{fill:#6DAFDF;}
	.st16{fill:#9A795F;}
	.st17{fill:#997960;}
	.st18{fill:#FFD93B;}
	.st19{fill:#E2E2E1;}
	.st20{fill:#3F4347;}
	.st21{opacity:0.02;fill:#2F3133;}
	.st22{fill:#E9EFF4;}
	.st23{fill:#DEE4E9;}
	.st24{fill:#F4C534;}
	.st25{fill:#BBC7D1;}
	.st26{fill:#DDE3E9;}
	.st27{fill:#E8EBEE;}
	.st28{fill:#DDDDDC;}
	.st29{fill:#F4F4F4;}
	.st30{fill:#777B7E;}
	.st31{opacity:0.1;fill:#231F20;}
	.st32{fill:#E574AC;}
	.st33{fill:#428DC3;}
	.st34{fill:#4CC6E5;}
	.st35{fill:#E8EFF3;}
	.st36{fill:#8E6D53;}
	.st37{fill:#719C40;}
	.st38{fill:url(#XMLID_3_);}
	.st39{fill:#FFF100;}
	.st40{fill:#9FDCF8;}
	.st41{fill:#27B2CC;}
	.st42{fill:#CBD6E0;}
	.st43{fill:#BF3333;}
	.st44{fill:#D03F3F;}
	.st45{fill:#5CA3D9;}
	.st46{fill:#CE7629;}
	.st47{fill:#E18823;}
	.st48{fill:#A4856D;}
	.st49{fill:#7BA740;}
	.st50{fill:#F29A2E;}
	.st51{fill:#F2F2F2;}
	.st52{fill:#83B844;}
	.st53{fill:#8BC04C;}
	.st54{fill:#7A5B44;}
	.st55{fill:#8CC63E;}
	.st56{fill:#89664C;}
	.st57{fill:#65B1EF;}
	.st58{fill:#4D98D2;}
	.st59{fill:#BAC6D0;}
	.st60{fill:#7AA440;}
	.st61{fill:#ACB9C1;}
	.st62{fill:#E8AF2A;}
	.st63{fill:#D03F3E;}
	.st64{fill:#DF8726;}
	.st65{fill:#DF9D27;}
	.st66{fill:#D3D9DD;}
	.st67{fill:none;stroke:#FFFFFF;stroke-width:2.5;stroke-linecap:round;stroke-linejoin:round;stroke-miterlimit:10;}
	.st68{fill:#FCD91A;}
	.st69{opacity:0.05;fill:#3F4347;}
	.st70{fill:#5F6469;}
	.st71{fill:#64696E;}
	.st72{fill:#939799;}
	.st73{fill:#6F7378;}
	.st74{fill:#D2D8DD;}
	.st75{fill:#4E99D2;}
	.st76{fill:#7B8B92;}
	.st77{fill:#38C0DC;}
	.st78{opacity:0.2;}
	.st79{fill:#FDE7AA;}
	.st80{fill:#FFDC96;}
	.st81{fill:#64892F;}
	.st82{fill:#E9B02C;}
</style>
<g id="XMLID_1322_">
	<g id="XMLID_1323_">
		<g id="XMLID_1330_">
			<path id="XMLID_1331_" class="st11" d="M13.584,32.016c-1.735,0-3.147-1.411-3.147-3.147v-1.815c0-0.403,0.327-0.73,0.73-0.73
				s0.73,0.327,0.73,0.73v1.815c0,0.93,0.757,1.687,1.686,1.687c0.93,0,1.687-0.757,1.687-1.687V6c0-0.403,0.327-0.73,0.73-0.73
				c0.403,0,0.73,0.327,0.73,0.73v22.87C16.731,30.605,15.319,32.016,13.584,32.016z"/>
		</g>
		<g id="XMLID_1328_">
			<path id="XMLID_1329_" class="st14" d="M15.27,26.125v2.744c0,0.93-0.757,1.687-1.687,1.687c-0.93,0-1.686-0.757-1.686-1.687
				v-1.815c0-0.403-0.327-0.73-0.73-0.73s-0.73,0.327-0.73,0.73v1.815c0,1.736,1.412,3.147,3.147,3.147
				c1.735,0,3.146-1.411,3.146-3.147v-2.744H15.27z"/>
		</g>
		<g id="XMLID_1324_">
			<path id="XMLID_1327_" class="st8" d="M6.951,18.54c1.519,0,2.876,0.53,3.784,1.362h0.157c1.381-0.792,3.162-1.27,5.108-1.27
				s3.727,0.478,5.108,1.27h0.157c0.908-0.832,2.266-1.362,3.784-1.362s2.876,0.53,3.784,1.362h0.072
				c0-7.128-5.778-12.906-12.906-12.906c-7.128,0-12.906,5.778-12.906,12.906h0.073C4.075,19.07,5.433,18.54,6.951,18.54z"/>
			<path id="XMLID_1326_" class="st10" d="M16,18.633c1.945,0,3.726,0.477,5.107,1.269h0.116C21.224,11.319,16,6.996,16,6.996
				s-5.223,4.323-5.223,12.906h0.116C12.275,19.111,14.055,18.633,16,18.633z"/>
		</g>
	</g>
	<g id="XMLID_1333_">
		<path id="XMLID_1340_" class="st15" d="M5.365,1.466C5.058,1.998,5.24,2.679,5.773,2.987c0.533,0.307,1.214,0.125,1.521-0.408
			c0.307-0.533,0.213-2.595,0.213-2.595S5.673,0.933,5.365,1.466z"/>
		<path id="XMLID_1339_" class="st15" d="M11.787,1.466c-0.307,0.533-0.125,1.214,0.408,1.521c0.533,0.307,1.214,0.125,1.521-0.408
			c0.307-0.533,0.213-2.595,0.213-2.595S12.094,0.933,11.787,1.466z"/>
		<path id="XMLID_1338_" class="st15" d="M18.208,1.466c-0.307,0.533-0.125,1.214,0.408,1.521c0.533,0.307,1.214,0.125,1.521-0.408
			c0.307-0.533,0.213-2.595,0.213-2.595S18.515,0.933,18.208,1.466z"/>
		<path id="XMLID_1337_" class="st15" d="M26.77-0.016c0,0-1.834,0.949-2.141,1.482c-0.307,0.533-0.125,1.214,0.408,1.521
			c0.533,0.307,1.214,0.125,1.521-0.408C26.865,2.047,26.77-0.016,26.77-0.016z"/>
		<path id="XMLID_1336_" class="st15" d="M8.076,6.464C7.769,6.996,7.951,7.677,8.484,7.985c0.533,0.307,1.214,0.125,1.521-0.408
			c0.307-0.533,0.213-2.595,0.213-2.595S8.383,5.931,8.076,6.464z"/>
		<path id="XMLID_1334_" class="st15" d="M20.918,6.464c-0.307,0.533-0.125,1.214,0.408,1.521c0.533,0.307,1.214,0.125,1.521-0.408
			c0.307-0.533,0.213-2.595,0.213-2.595S21.226,5.931,20.918,6.464z"/>
	</g>
</g>
</svg>
