<?xml version="1.0" encoding="utf-8"?>
<!-- Generator: Adobe Illustrator 21.1.0, SVG Export Plug-In . SVG Version: 6.00 Build 0)  -->
<svg version="1.1" id="Layer_1" xmlns="http://www.w3.org/2000/svg" xmlns:xlink="http://www.w3.org/1999/xlink" x="0px" y="0px"
	 viewBox="0 0 32 32" style="enable-background:new 0 0 32 32;" xml:space="preserve">
<style type="text/css">
	.st0{fill:#8F6D52;}
	.st1{fill:#7FB241;}
	.st2{fill:#A5856D;}
	.st3{fill:#FFFFFF;}
	.st4{fill:#7FB239;}
	.st5{fill:#45CBEA;}
	.st6{fill:#5A5F63;}
	.st7{fill:#8BC540;}
	.st8{fill:#E14B4B;}
	.st9{fill:#F3C432;}
	.st10{fill:#FFD83B;}
	.st11{fill:#DAE5EF;}
	.st12{fill:#E24B4B;}
	.st13{fill:#3E4347;}
	.st14{fill:#5B5F63;}
	.st15{fill:#6DAFDF;}
	.st16{fill:#9A795F;}
	.st17{fill:#997960;}
	.st18{fill:#FFD93B;}
	.st19{fill:#E2E2E1;}
	.st20{fill:#3F4347;}
	.st21{opacity:0.02;fill:#2F3133;}
	.st22{fill:#E9EFF4;}
	.st23{fill:#DEE4E9;}
	.st24{fill:#F4C534;}
	.st25{fill:#BBC7D1;}
	.st26{fill:#DDE3E9;}
	.st27{fill:#E8EBEE;}
	.st28{fill:#DDDDDC;}
	.st29{fill:#F4F4F4;}
	.st30{fill:#777B7E;}
	.st31{opacity:0.1;fill:#231F20;}
	.st32{fill:#E574AC;}
	.st33{fill:#428DC3;}
	.st34{fill:#4CC6E5;}
	.st35{fill:#E8EFF3;}
	.st36{fill:#8E6D53;}
	.st37{fill:#719C40;}
	.st38{fill:url(#XMLID_3_);}
	.st39{fill:#FFF100;}
	.st40{fill:#9FDCF8;}
	.st41{fill:#27B2CC;}
	.st42{fill:#CBD6E0;}
	.st43{fill:#BF3333;}
	.st44{fill:#D03F3F;}
	.st45{fill:#5CA3D9;}
	.st46{fill:#CE7629;}
	.st47{fill:#E18823;}
	.st48{fill:#A4856D;}
	.st49{fill:#7BA740;}
	.st50{fill:#F29A2E;}
	.st51{fill:#F2F2F2;}
	.st52{fill:#83B844;}
	.st53{fill:#8BC04C;}
	.st54{fill:#7A5B44;}
	.st55{fill:#8CC63E;}
	.st56{fill:#89664C;}
	.st57{fill:#65B1EF;}
	.st58{fill:#4D98D2;}
	.st59{fill:#BAC6D0;}
	.st60{fill:#7AA440;}
	.st61{fill:#ACB9C1;}
	.st62{fill:#E8AF2A;}
	.st63{fill:#D03F3E;}
	.st64{fill:#DF8726;}
	.st65{fill:#DF9D27;}
	.st66{fill:#D3D9DD;}
	.st67{fill:none;stroke:#FFFFFF;stroke-width:2.5;stroke-linecap:round;stroke-linejoin:round;stroke-miterlimit:10;}
	.st68{fill:#FCD91A;}
	.st69{opacity:0.05;fill:#3F4347;}
	.st70{fill:#5F6469;}
	.st71{fill:#64696E;}
	.st72{fill:#939799;}
	.st73{fill:#6F7378;}
	.st74{fill:#D2D8DD;}
	.st75{fill:#4E99D2;}
	.st76{fill:#7B8B92;}
	.st77{fill:#38C0DC;}
	.st78{opacity:0.2;}
	.st79{fill:#FDE7AA;}
	.st80{fill:#FFDC96;}
	.st81{fill:#64892F;}
	.st82{fill:#E9B02C;}
</style>
<g id="XMLID_4866_">
	<g id="XMLID_4865_">
		<g id="XMLID_4864_">
			<polygon id="XMLID_4851_" class="st74" points="15.805,21.459 6.454,21.459 9.369,3.852 12.89,3.852 			"/>
			<polygon id="XMLID_4880_" class="st6" points="13.613,8.216 13.258,6.073 9.001,6.073 8.646,8.216 			"/>
		</g>
		<g id="XMLID_4856_">
			<polygon id="XMLID_4863_" class="st74" points="25.546,21.459 16.195,21.459 19.11,3.852 22.631,3.852 			"/>
			<polygon id="XMLID_4862_" class="st6" points="23.354,8.216 22.999,6.073 18.742,6.073 18.387,8.216 			"/>
		</g>
	</g>
	<rect id="XMLID_4735_" y="21.459" class="st8" width="32" height="2.626"/>
	<rect id="XMLID_4839_" x="1.638" y="24.086" class="st26" width="28.725" height="7.914"/>
	<rect id="XMLID_4845_" x="3.004" y="12.919" class="st8" width="25.993" height="2.626"/>
	<rect id="XMLID_4840_" x="4.334" y="15.545" class="st26" width="23.332" height="5.914"/>
	<g id="XMLID_4846_">
		<rect id="XMLID_4826_" x="3.668" y="26.14" class="st15" width="3.805" height="3.805"/>
		<rect id="XMLID_4848_" x="10.621" y="26.14" class="st15" width="3.805" height="3.805"/>
		<rect id="XMLID_4849_" x="17.574" y="26.14" class="st15" width="3.805" height="3.805"/>
		<rect id="XMLID_4850_" x="24.527" y="26.14" class="st15" width="3.805" height="3.805"/>
	</g>
	<g id="XMLID_4855_">
		<rect id="XMLID_4861_" x="8.538" y="16.899" class="st15" width="3.206" height="3.206"/>
		<rect id="XMLID_4860_" x="14.397" y="16.899" class="st15" width="3.206" height="3.206"/>
		<rect id="XMLID_4857_" x="20.256" y="16.899" class="st15" width="3.206" height="3.206"/>
	</g>
	<path id="XMLID_4875_" class="st11" d="M16.107,1.147c0-0.257-0.208-0.466-0.466-0.466c-0.087,0-0.164,0.03-0.233,0.072
		c-0.029-0.11-0.113-0.198-0.232-0.198c-0.086,0-0.151,0.05-0.198,0.115c-0.115-0.153-0.29-0.259-0.497-0.259
		c-0.125,0-0.234,0.045-0.33,0.108c-0.109-0.089-0.243-0.15-0.395-0.15c-0.118,0-0.223,0.041-0.318,0.098
		c-0.04-0.149-0.155-0.27-0.317-0.27c-0.118,0-0.206,0.068-0.27,0.156C12.694,0.144,12.456,0,12.174,0
		c-0.443,0-0.795,0.339-0.844,0.77c-0.101-0.127-0.25-0.214-0.425-0.214c-0.304,0-0.551,0.247-0.551,0.551
		c0,0.15,0.061,0.285,0.157,0.384c-0.11,0.137-0.186,0.305-0.186,0.494c0,0.444,0.36,0.803,0.803,0.803
		c0.218,0,0.414-0.088,0.559-0.229c0.013,0.293,0.25,0.528,0.546,0.528c0.2,0,0.368-0.112,0.464-0.272
		c0.076,0.037,0.159,0.063,0.25,0.063c0.278,0,0.496-0.202,0.549-0.464c0.067,0.027,0.14,0.043,0.216,0.043
		c0.16,0,0.304-0.065,0.41-0.168c0.009,0.215,0.184,0.387,0.401,0.387c0.147,0,0.27-0.082,0.341-0.2
		c0.056,0.027,0.117,0.046,0.184,0.046c0.216,0,0.388-0.165,0.413-0.375c0.034,0.016,0.062,0.042,0.102,0.042
		c0.142,0,0.257-0.115,0.257-0.256c0.142,0,0.257-0.115,0.257-0.257c0-0.085-0.048-0.15-0.112-0.197
		C16.053,1.395,16.107,1.278,16.107,1.147z M11.909,2.103c0.003-0.021,0.011-0.041,0.013-0.062c0.013,0.01,0.026,0.019,0.04,0.027
		C11.943,2.079,11.926,2.091,11.909,2.103z M14.287,1.954c0.002-0.015,0.008-0.03,0.009-0.045c0.01,0.007,0.019,0.014,0.029,0.02
		C14.312,1.936,14.299,1.945,14.287,1.954z"/>
	<path id="XMLID_4867_" class="st11" d="M25.546,1.147c0-0.257-0.208-0.466-0.466-0.466c-0.087,0-0.164,0.03-0.233,0.072
		c-0.029-0.11-0.113-0.198-0.232-0.198c-0.086,0-0.151,0.05-0.198,0.115c-0.115-0.153-0.29-0.259-0.497-0.259
		c-0.125,0-0.234,0.045-0.33,0.108c-0.109-0.089-0.243-0.15-0.395-0.15c-0.118,0-0.223,0.041-0.318,0.098
		c-0.04-0.149-0.155-0.27-0.317-0.27c-0.118,0-0.206,0.068-0.27,0.156C22.133,0.144,21.895,0,21.613,0
		c-0.443,0-0.795,0.339-0.844,0.77c-0.101-0.127-0.25-0.214-0.425-0.214c-0.304,0-0.551,0.247-0.551,0.551
		c0,0.15,0.061,0.285,0.157,0.384c-0.11,0.137-0.186,0.305-0.186,0.494c0,0.444,0.36,0.803,0.803,0.803
		c0.218,0,0.414-0.088,0.559-0.229c0.013,0.293,0.25,0.528,0.546,0.528c0.2,0,0.368-0.112,0.464-0.272
		c0.076,0.037,0.159,0.063,0.25,0.063c0.278,0,0.496-0.202,0.549-0.464c0.067,0.027,0.14,0.043,0.216,0.043
		c0.16,0,0.304-0.065,0.41-0.168c0.009,0.215,0.184,0.387,0.401,0.387c0.147,0,0.27-0.082,0.341-0.2
		c0.056,0.027,0.117,0.046,0.184,0.046c0.216,0,0.388-0.165,0.413-0.375c0.034,0.016,0.062,0.042,0.102,0.042
		c0.142,0,0.257-0.115,0.257-0.256c0.142,0,0.257-0.115,0.257-0.257c0-0.085-0.048-0.15-0.112-0.197
		C25.491,1.395,25.546,1.278,25.546,1.147z M21.347,2.103c0.003-0.021,0.011-0.041,0.013-0.062c0.013,0.01,0.026,0.019,0.04,0.027
		C21.382,2.079,21.364,2.091,21.347,2.103z M23.725,1.954c0.002-0.015,0.008-0.03,0.009-0.045c0.01,0.007,0.019,0.014,0.029,0.02
		C23.75,1.936,23.737,1.945,23.725,1.954z"/>
</g>
</svg>
