<?xml version="1.0" encoding="utf-8"?>
<!-- Generator: Adobe Illustrator 21.1.0, SVG Export Plug-In . SVG Version: 6.00 Build 0)  -->
<svg version="1.1" id="Layer_1" xmlns="http://www.w3.org/2000/svg" xmlns:xlink="http://www.w3.org/1999/xlink" x="0px" y="0px"
	 viewBox="0 0 32 32" style="enable-background:new 0 0 32 32;" xml:space="preserve">
<style type="text/css">
	.st0{fill:#8F6D52;}
	.st1{fill:#7FB241;}
	.st2{fill:#A5856D;}
	.st3{fill:#FFFFFF;}
	.st4{fill:#7FB239;}
	.st5{fill:#45CBEA;}
	.st6{fill:#5A5F63;}
	.st7{fill:#8BC540;}
	.st8{fill:#E14B4B;}
	.st9{fill:#F3C432;}
	.st10{fill:#FFD83B;}
	.st11{fill:#DAE5EF;}
	.st12{fill:#E24B4B;}
	.st13{fill:#3E4347;}
	.st14{fill:#5B5F63;}
	.st15{fill:#6DAFDF;}
	.st16{fill:#9A795F;}
	.st17{fill:#997960;}
	.st18{fill:#FFD93B;}
	.st19{fill:#E2E2E1;}
	.st20{fill:#3F4347;}
	.st21{opacity:0.02;fill:#2F3133;}
	.st22{fill:#E9EFF4;}
	.st23{fill:#DEE4E9;}
	.st24{fill:#F4C534;}
	.st25{fill:#BBC7D1;}
	.st26{fill:#DDE3E9;}
	.st27{fill:#E8EBEE;}
	.st28{fill:#DDDDDC;}
	.st29{fill:#F4F4F4;}
	.st30{fill:#777B7E;}
	.st31{opacity:0.1;fill:#231F20;}
	.st32{fill:#E574AC;}
	.st33{fill:#428DC3;}
	.st34{fill:#4CC6E5;}
	.st35{fill:#E8EFF3;}
	.st36{fill:#8E6D53;}
	.st37{fill:#719C40;}
	.st38{fill:url(#XMLID_3_);}
	.st39{fill:#FFF100;}
	.st40{fill:#9FDCF8;}
	.st41{fill:#27B2CC;}
	.st42{fill:#CBD6E0;}
	.st43{fill:#BF3333;}
	.st44{fill:#D03F3F;}
	.st45{fill:#5CA3D9;}
	.st46{fill:#CE7629;}
	.st47{fill:#E18823;}
	.st48{fill:#A4856D;}
	.st49{fill:#7BA740;}
	.st50{fill:#F29A2E;}
	.st51{fill:#F2F2F2;}
	.st52{fill:#83B844;}
	.st53{fill:#8BC04C;}
	.st54{fill:#7A5B44;}
	.st55{fill:#8CC63E;}
	.st56{fill:#89664C;}
	.st57{fill:#65B1EF;}
	.st58{fill:#4D98D2;}
	.st59{fill:#BAC6D0;}
	.st60{fill:#7AA440;}
	.st61{fill:#ACB9C1;}
	.st62{fill:#E8AF2A;}
	.st63{fill:#D03F3E;}
	.st64{fill:#DF8726;}
	.st65{fill:#DF9D27;}
	.st66{fill:#D3D9DD;}
	.st67{fill:none;stroke:#FFFFFF;stroke-width:2.5;stroke-linecap:round;stroke-linejoin:round;stroke-miterlimit:10;}
	.st68{fill:#FCD91A;}
	.st69{opacity:0.05;fill:#3F4347;}
	.st70{fill:#5F6469;}
	.st71{fill:#64696E;}
	.st72{fill:#939799;}
	.st73{fill:#6F7378;}
	.st74{fill:#D2D8DD;}
	.st75{fill:#4E99D2;}
	.st76{fill:#7B8B92;}
	.st77{fill:#38C0DC;}
	.st78{opacity:0.2;}
	.st79{fill:#FDE7AA;}
	.st80{fill:#FFDC96;}
	.st81{fill:#64892F;}
	.st82{fill:#E9B02C;}
</style>
<g id="XMLID_2338_">
	<path id="XMLID_2344_" class="st61" d="M31.979,31.998H14.572c-0.194-4.042,1.101-8.32,2.75-12.484
		c1.114-2.813,1.723-5.801,1.723-8.827v-0.148h8.461v0.146c0,3.029,0.61,6.019,1.726,8.834
		C30.883,23.681,32.179,27.958,31.979,31.998z"/>
	<path id="XMLID_2340_" class="st23" d="M31.018,24.753c-0.482-1.748-1.099-3.501-1.787-5.234c-0.563-1.419-0.996-2.884-1.288-4.375
		h-9.336c-0.292,1.489-0.724,2.952-1.286,4.37c-0.687,1.735-1.304,3.49-1.786,5.239H31.018z"/>
	<path id="XMLID_2420_" class="st57" d="M20.57,31.998H0.023c-0.229-4.771,1.299-9.821,3.246-14.736
		c1.316-3.32,2.034-6.847,2.034-10.419V6.669h9.987V6.84c0,3.575,0.72,7.105,2.037,10.428C19.275,22.181,20.806,27.229,20.57,31.998
		z"/>
	<path id="XMLID_2455_" class="st22" d="M19.435,23.447c-0.569-2.063-1.298-4.132-2.109-6.178c-0.664-1.675-1.176-3.404-1.52-5.164
		H4.786c-0.344,1.758-0.854,3.484-1.518,5.158c-0.811,2.048-1.54,4.119-2.109,6.184H19.435z"/>
	<path id="XMLID_2372_" class="st22" d="M16.949,3.703c0.052-0.121,0.081-0.254,0.081-0.393c0-0.554-0.45-1.004-1.004-1.004
		c-0.157,0-0.301,0.043-0.433,0.108c-0.114-0.143-0.26-0.259-0.434-0.326c0.088-0.115,0.149-0.251,0.149-0.407
		c0-0.377-0.306-0.683-0.683-0.683c-0.177,0-0.334,0.071-0.455,0.181c-0.204-0.315-0.542-0.536-0.946-0.536
		c-0.298,0-0.563,0.12-0.767,0.306c-0.097-0.535-0.544-0.948-1.107-0.948c-0.564,0-1.011,0.414-1.107,0.95
		c-0.178-0.077-0.373-0.12-0.579-0.12c-0.809,0-1.464,0.656-1.464,1.464c0,0.412,0.172,0.783,0.445,1.049
		c-0.151,0.28-0.245,0.596-0.245,0.937c0,1.097,0.889,1.986,1.986,1.986c1.065,0,1.928-0.841,1.977-1.894
		C12.546,4.5,12.756,4.59,12.995,4.59c0.206,0,0.391-0.062,0.553-0.16c0.072,0.1,0.16,0.183,0.268,0.242
		c0.067,0.49,0.47,0.873,0.978,0.873c0.347,0,0.638-0.187,0.818-0.455c0.18,0.268,0.471,0.455,0.818,0.455
		c0.554,0,1.004-0.449,1.004-1.004C17.435,4.182,17.234,3.88,16.949,3.703z"/>
	<path id="XMLID_2345_" class="st22" d="M29.956,7.237c0.052-0.121,0.081-0.254,0.081-0.393c0-0.554-0.45-1.004-1.004-1.004
		c-0.157,0-0.301,0.043-0.433,0.108c-0.114-0.143-0.26-0.259-0.434-0.326c0.088-0.115,0.149-0.251,0.149-0.407
		c0-0.377-0.306-0.683-0.683-0.683c-0.177,0-0.334,0.071-0.455,0.181c-0.204-0.315-0.542-0.536-0.946-0.536
		c-0.298,0-0.563,0.12-0.767,0.306c-0.097-0.535-0.544-0.948-1.107-0.948c-0.564,0-1.011,0.414-1.107,0.95
		c-0.178-0.077-0.373-0.12-0.579-0.12c-0.809,0-1.464,0.656-1.464,1.464c0,0.412,0.172,0.783,0.445,1.049
		c-0.151,0.28-0.245,0.596-0.245,0.937c0,1.097,0.889,1.986,1.986,1.986c1.065,0,1.928-0.841,1.977-1.894
		c0.184,0.125,0.394,0.216,0.633,0.216c0.206,0,0.391-0.062,0.553-0.16c0.072,0.1,0.16,0.183,0.268,0.242
		c0.067,0.49,0.47,0.873,0.978,0.873c0.347,0,0.638-0.187,0.818-0.455c0.18,0.268,0.471,0.455,0.818,0.455
		c0.554,0,1.004-0.449,1.004-1.004C30.441,7.715,30.241,7.414,29.956,7.237z"/>
</g>
</svg>
