<?xml version="1.0" encoding="utf-8"?>
<!-- Generator: Adobe Illustrator 21.1.0, SVG Export Plug-In . SVG Version: 6.00 Build 0)  -->
<svg version="1.1" id="Layer_1" xmlns="http://www.w3.org/2000/svg" xmlns:xlink="http://www.w3.org/1999/xlink" x="0px" y="0px"
	 viewBox="0 0 32 32" style="enable-background:new 0 0 32 32;" xml:space="preserve">
<style type="text/css">
	.st0{fill:#8F6D52;}
	.st1{fill:#7FB241;}
	.st2{fill:#A5856D;}
	.st3{fill:#FFFFFF;}
	.st4{fill:#7FB239;}
	.st5{fill:#45CBEA;}
	.st6{fill:#5A5F63;}
	.st7{fill:#8BC540;}
	.st8{fill:#E14B4B;}
	.st9{fill:#F3C432;}
	.st10{fill:#FFD83B;}
	.st11{fill:#DAE5EF;}
	.st12{fill:#E24B4B;}
	.st13{fill:#3E4347;}
	.st14{fill:#5B5F63;}
	.st15{fill:#6DAFDF;}
	.st16{fill:#9A795F;}
	.st17{fill:#997960;}
	.st18{fill:#FFD93B;}
	.st19{fill:#E2E2E1;}
	.st20{fill:#3F4347;}
	.st21{opacity:0.02;fill:#2F3133;}
	.st22{fill:#E9EFF4;}
	.st23{fill:#DEE4E9;}
	.st24{fill:#F4C534;}
	.st25{fill:#BBC7D1;}
	.st26{fill:#DDE3E9;}
	.st27{fill:#E8EBEE;}
	.st28{fill:#DDDDDC;}
	.st29{fill:#F4F4F4;}
	.st30{fill:#777B7E;}
	.st31{opacity:0.1;fill:#231F20;}
	.st32{fill:#E574AC;}
	.st33{fill:#428DC3;}
	.st34{fill:#4CC6E5;}
	.st35{fill:#E8EFF3;}
	.st36{fill:#8E6D53;}
	.st37{fill:#719C40;}
	.st38{fill:url(#XMLID_3_);}
	.st39{fill:#FFF100;}
	.st40{fill:#9FDCF8;}
	.st41{fill:#27B2CC;}
	.st42{fill:#CBD6E0;}
	.st43{fill:#BF3333;}
	.st44{fill:#D03F3F;}
	.st45{fill:#5CA3D9;}
	.st46{fill:#CE7629;}
	.st47{fill:#E18823;}
	.st48{fill:#A4856D;}
	.st49{fill:#7BA740;}
	.st50{fill:#F29A2E;}
	.st51{fill:#F2F2F2;}
	.st52{fill:#83B844;}
	.st53{fill:#8BC04C;}
	.st54{fill:#7A5B44;}
	.st55{fill:#8CC63E;}
	.st56{fill:#89664C;}
	.st57{fill:#65B1EF;}
	.st58{fill:#4D98D2;}
	.st59{fill:#BAC6D0;}
	.st60{fill:#7AA440;}
	.st61{fill:#ACB9C1;}
	.st62{fill:#E8AF2A;}
	.st63{fill:#D03F3E;}
	.st64{fill:#DF8726;}
	.st65{fill:#DF9D27;}
	.st66{fill:#D3D9DD;}
	.st67{fill:none;stroke:#FFFFFF;stroke-width:2.5;stroke-linecap:round;stroke-linejoin:round;stroke-miterlimit:10;}
	.st68{fill:#FCD91A;}
	.st69{opacity:0.05;fill:#3F4347;}
	.st70{fill:#5F6469;}
	.st71{fill:#64696E;}
	.st72{fill:#939799;}
	.st73{fill:#6F7378;}
	.st74{fill:#D2D8DD;}
	.st75{fill:#4E99D2;}
	.st76{fill:#7B8B92;}
	.st77{fill:#38C0DC;}
	.st78{opacity:0.2;}
	.st79{fill:#FDE7AA;}
	.st80{fill:#FFDC96;}
	.st81{fill:#64892F;}
	.st82{fill:#E9B02C;}
</style>
<g id="XMLID_4395_">
	<polygon id="XMLID_4392_" class="st42" points="17.664,14.524 14.336,14.524 12.72,7.024 19.28,7.024 	"/>
	<polygon id="XMLID_4396_" class="st14" points="20.899,14.524 11.101,14.524 1.193,31.939 30.807,31.939 	"/>
	<polygon id="XMLID_4386_" class="st70" points="4.717,32 7.882,24.978 10.454,24.978 15.955,19.763 16.352,21.069 18.744,18.752 
		19.652,19.637 19.652,19.043 24.993,28.439 27.268,27.747 28.949,32 	"/>
	<path id="XMLID_4374_" class="st63" d="M12.325,12.423L12.325,12.423c-0.676,0-1.225,0.548-1.225,1.225v0.876h2.45v-0.876
		C13.55,12.972,13.002,12.423,12.325,12.423z"/>
	<path id="XMLID_4377_" class="st63" d="M14.775,12.423L14.775,12.423c-0.676,0-1.225,0.548-1.225,1.225v0.876H16v-0.876
		C16,12.972,15.452,12.423,14.775,12.423z"/>
	<path id="XMLID_4379_" class="st9" d="M17.225,12.423L17.225,12.423c-0.676,0-1.225,0.548-1.225,1.225v0.876h2.45v-0.876
		C18.45,12.972,17.901,12.423,17.225,12.423z"/>
	<path id="XMLID_4380_" class="st9" d="M19.674,12.423L19.674,12.423c-0.676,0-1.225,0.548-1.225,1.225v0.876h2.45v-0.876
		C20.899,12.972,20.351,12.423,19.674,12.423z"/>
	<path id="XMLID_4376_" class="st63" d="M13.314,17.098L13.314,17.098c-0.265,0-0.48-0.215-0.48-0.48v-2.249
		c0-0.265,0.215-0.48,0.48-0.48h0c0.265,0,0.48,0.215,0.48,0.48v2.249C13.794,16.883,13.579,17.098,13.314,17.098z"/>
	<path id="XMLID_4382_" class="st63" d="M14.274,19.763L14.274,19.763c-0.265,0-0.48-0.215-0.48-0.48v-4.914
		c0-0.265,0.215-0.48,0.48-0.48h0c0.265,0,0.48,0.215,0.48,0.48v4.914C14.754,19.548,14.539,19.763,14.274,19.763z"/>
	<path id="XMLID_4384_" class="st9" d="M19.05,17.098L19.05,17.098c-0.265,0-0.48-0.215-0.48-0.48v-2.249
		c0-0.265,0.215-0.48,0.48-0.48h0c0.265,0,0.48,0.215,0.48,0.48v2.249C19.531,16.883,19.316,17.098,19.05,17.098z"/>
	<path id="XMLID_4383_" class="st9" d="M20.011,19.763L20.011,19.763c-0.265,0-0.48-0.215-0.48-0.48v-4.914
		c0-0.265,0.215-0.48,0.48-0.48l0,0c0.265,0,0.48,0.215,0.48,0.48v4.914C20.491,19.548,20.276,19.763,20.011,19.763z"/>
	<polygon id="XMLID_4385_" class="st71" points="22.003,16.464 20.011,22.471 24.411,29.566 26.908,28.828 28.271,32 30.807,31.939 
			"/>
	<polygon id="XMLID_4388_" class="st14" points="7.794,32 12.989,24.582 15.306,29.104 18.856,25.964 21.472,31.346 23.453,30.412 
		26.256,32 	"/>
	<polygon id="XMLID_4375_" class="st72" points="9.702,29.868 16.392,25.212 14.199,23.096 16.392,17.328 15.31,14.524 
		17.744,14.524 18.273,17.064 15.945,22.702 18.273,25.318 	"/>
	<g id="XMLID_4391_">
		<g id="XMLID_4387_">
			<circle id="XMLID_4381_" class="st11" cx="13.418" cy="6.165" r="3.196"/>
			<circle id="XMLID_4389_" class="st11" cx="18.582" cy="6.165" r="3.196"/>
		</g>
		<circle id="XMLID_4390_" class="st11" cx="16" cy="3.196" r="3.196"/>
	</g>
	<g id="XMLID_4393_">
		<path id="XMLID_4394_" class="st42" d="M16.536,6.165c0,0-0.155-1.183,0.898-1.893c0.769-0.52,1.749-0.499,2.464,0
			c1.053,0.707,0.898,1.893,0.898,1.893c-0.05-0.702-0.461-1.308-1.04-1.675c-0.699-0.434-1.586-0.382-2.18,0
			C16.993,4.858,16.586,5.469,16.536,6.165z"/>
		<path id="XMLID_4397_" class="st42" d="M11.204,6.165c0,0-0.155-1.183,0.898-1.893c0.769-0.52,1.749-0.499,2.464,0
			c1.053,0.707,0.898,1.893,0.898,1.893c-0.05-0.702-0.461-1.308-1.04-1.675c-0.699-0.434-1.586-0.382-2.18,0
			C11.661,4.858,11.253,5.469,11.204,6.165z"/>
	</g>
</g>
</svg>
