<?xml version="1.0" encoding="utf-8"?>
<!-- Generator: Adobe Illustrator 21.1.0, SVG Export Plug-In . SVG Version: 6.00 Build 0)  -->
<svg version="1.1" id="Layer_1" xmlns="http://www.w3.org/2000/svg" xmlns:xlink="http://www.w3.org/1999/xlink" x="0px" y="0px"
	 viewBox="0 0 32 32" style="enable-background:new 0 0 32 32;" xml:space="preserve">
<style type="text/css">
	.st0{fill:#FFD83B;}
	.st1{fill:#F2F2F2;}
	.st2{fill:#F3C432;}
	.st3{fill:#DEE4E9;}
	.st4{fill:#E9EFF4;}
	.st5{fill:#6DAFDF;}
	.st6{fill:#5CA3D9;}
	.st7{fill:#4D98D2;}
	.st8{fill:#E8EFF3;}
	.st9{fill:#DDE3E9;}
	.st10{fill:#4CC6E5;}
	.st11{opacity:0.05;fill:#2F3133;}
	.st12{fill:#E14B4B;}
	.st13{fill:#D3D9DD;}
	.st14{fill:#65B1EF;}
	.st15{fill:#8CC63E;}
	.st16{fill:#E84D88;}
	.st17{fill:#A4856D;}
	.st18{fill:#8BC540;}
	.st19{fill:#7FB241;}
	.st20{fill:#8E6D53;}
	.st21{fill:#FFFFFF;}
	.st22{fill:#9A795F;}
	.st23{fill:#E24B4B;}
	.st24{fill:#F2992D;}
	.st25{fill:#DF8726;}
	.st26{fill:#997960;}
	.st27{fill:#FFD93B;}
	.st28{fill:#E8AF2A;}
	.st29{fill:#D23F77;}
	.st30{fill:#D03F3F;}
	.st31{fill:#BF3332;}
	.st32{fill:#D03F3E;}
	.st33{fill:#BF3333;}
	.st34{fill:#F4C534;}
	.st35{fill:#8F6D52;}
	.st36{fill:#E9B02C;}
	.st37{fill:#5A5F63;}
	.st38{fill:#F4F4F4;}
	.st39{fill:#E74C87;}
	.st40{fill:#D24078;}
	.st41{fill:#5B5F63;}
	.st42{fill:#3F4347;}
	.st43{fill:#719C40;}
	.st44{fill:#7B5C45;}
	.st45{fill:#BB3166;}
	.st46{fill:#89664C;}
	.st47{fill:#77589F;}
	.st48{fill:#8066AA;}
	.st49{fill:#8D7FB6;}
	.st50{fill:#88BA40;}
	.st51{fill:#FDE7AA;}
	.st52{fill:#7FB239;}
	.st53{fill:#45CBEA;}
	.st54{fill:#ACB9C1;}
	.st55{fill:#DAE5EF;}
	.st56{fill:#7CA740;}
	.st57{fill:#88BF40;}
	.st58{fill:#85BB40;}
	.st59{fill:#FFF100;}
	.st60{fill:#FFDD00;}
	.st61{fill:#F29A2E;}
	.st62{fill:#3E4347;}
	.st63{fill:#59A5E0;}
	.st64{fill:#2F3133;}
	.st65{fill:#EDEDEF;}
	.st66{fill:#4E99D2;}
	.st67{fill:#A5856D;}
</style>
<g id="XMLID_2373_">
	<circle id="XMLID_2453_" class="st0" cx="16.204" cy="16" r="12.235"/>
	<path id="XMLID_2460_" class="st2" d="M28.435,16.003c0,0.267-0.009,0.526-0.026,0.784c-2.499,1.999-6.135,3.903-10.374,5.273
		c-4.101,1.327-8.047,1.921-11.192,1.818c-0.879-1.034-1.577-2.214-2.068-3.507c2.309,1.318,7.246,1.189,12.545-0.517
		c5.574-1.809,9.796-4.808,10.615-7.315C28.263,13.633,28.435,14.796,28.435,16.003z"/>
	<circle id="XMLID_2451_" class="st2" cx="11.92" cy="9.028" r="2.296"/>
	<circle id="XMLID_2450_" class="st2" cx="22.446" cy="10.064" r="1.704"/>
	<circle id="XMLID_2449_" class="st2" cx="13.306" cy="17.014" r="1.5"/>
	<circle id="XMLID_2448_" class="st2" cx="11.92" cy="23.821" r="1.25"/>
	<circle id="XMLID_2447_" class="st2" cx="25.548" cy="17.281" r="1.25"/>
	<circle id="XMLID_2412_" class="st2" cx="22.446" cy="23.355" r="0.998"/>
	<circle id="XMLID_2446_" class="st2" cx="19.013" cy="20.154" r="0.63"/>
	<circle id="XMLID_2384_" class="st2" cx="19.013" cy="13.586" r="0.63"/>
	<circle id="XMLID_2445_" class="st2" cx="7.979" cy="15.129" r="0.63"/>
	<g>
		<path id="XMLID_2459_" class="st41" d="M31.866,10.622c-0.603-1.852-3.153-2.869-6.738-2.99c0.551,0.586,1.042,1.223,1.465,1.913
			c0.707,0.371,1.189,0.862,1.387,1.482c0.155,0.474,0.129,0.974-0.043,1.508c-0.819,2.507-5.04,5.506-10.615,7.315
			c-5.299,1.706-10.236,1.835-12.545,0.517c-0.638-0.362-1.068-0.836-1.258-1.422c-0.233-0.724-0.06-1.551,0.465-2.395
			c-0.017-0.181-0.017-0.371-0.017-0.551c0-0.56,0.034-1.111,0.112-1.646c-2.99,2.24-4.566,4.635-3.946,6.54
			c0.595,1.852,3.145,2.86,6.712,2.981c3.145,0.103,7.091-0.491,11.192-1.818c4.239-1.37,7.875-3.274,10.374-5.273
			C31.082,14.654,32.452,12.423,31.866,10.622z"/>
	</g>
</g>
</svg>
