<?xml version="1.0" encoding="utf-8"?>
<!-- Generator: Adobe Illustrator 21.1.0, SVG Export Plug-In . SVG Version: 6.00 Build 0)  -->
<svg version="1.1" id="Layer_1" xmlns="http://www.w3.org/2000/svg" xmlns:xlink="http://www.w3.org/1999/xlink" x="0px" y="0px"
	 viewBox="0 0 32 32" style="enable-background:new 0 0 32 32;" xml:space="preserve">
<style type="text/css">
	.st0{fill:#8F6D52;}
	.st1{fill:#7FB241;}
	.st2{fill:#A5856D;}
	.st3{fill:#FFFFFF;}
	.st4{fill:#7FB239;}
	.st5{fill:#45CBEA;}
	.st6{fill:#5A5F63;}
	.st7{fill:#8BC540;}
	.st8{fill:#E14B4B;}
	.st9{fill:#F3C432;}
	.st10{fill:#FFD83B;}
	.st11{fill:#DAE5EF;}
	.st12{fill:#E24B4B;}
	.st13{fill:#3E4347;}
	.st14{fill:#5B5F63;}
	.st15{fill:#6DAFDF;}
	.st16{fill:#9A795F;}
	.st17{fill:#997960;}
	.st18{fill:#FFD93B;}
	.st19{fill:#E2E2E1;}
	.st20{fill:#3F4347;}
	.st21{opacity:0.02;fill:#2F3133;}
	.st22{fill:#E9EFF4;}
	.st23{fill:#DEE4E9;}
	.st24{fill:#F4C534;}
	.st25{fill:#BBC7D1;}
	.st26{fill:#DDE3E9;}
	.st27{fill:#E8EBEE;}
	.st28{fill:#DDDDDC;}
	.st29{fill:#F4F4F4;}
	.st30{fill:#777B7E;}
	.st31{opacity:0.1;fill:#231F20;}
	.st32{fill:#E574AC;}
	.st33{fill:#428DC3;}
	.st34{fill:#4CC6E5;}
	.st35{fill:#E8EFF3;}
	.st36{fill:#8E6D53;}
	.st37{fill:#719C40;}
	.st38{fill:url(#XMLID_3_);}
	.st39{fill:#FFF100;}
	.st40{fill:#9FDCF8;}
	.st41{fill:#27B2CC;}
	.st42{fill:#CBD6E0;}
	.st43{fill:#BF3333;}
	.st44{fill:#D03F3F;}
	.st45{fill:#5CA3D9;}
	.st46{fill:#CE7629;}
	.st47{fill:#E18823;}
	.st48{fill:#A4856D;}
	.st49{fill:#7BA740;}
	.st50{fill:#F29A2E;}
	.st51{fill:#F2F2F2;}
	.st52{fill:#83B844;}
	.st53{fill:#8BC04C;}
	.st54{fill:#7A5B44;}
	.st55{fill:#8CC63E;}
	.st56{fill:#89664C;}
	.st57{fill:#65B1EF;}
	.st58{fill:#4D98D2;}
	.st59{fill:#BAC6D0;}
	.st60{fill:#7AA440;}
	.st61{fill:#ACB9C1;}
	.st62{fill:#E8AF2A;}
	.st63{fill:#D03F3E;}
	.st64{fill:#DF8726;}
	.st65{fill:#DF9D27;}
	.st66{fill:#D3D9DD;}
	.st67{fill:none;stroke:#FFFFFF;stroke-width:2.5;stroke-linecap:round;stroke-linejoin:round;stroke-miterlimit:10;}
	.st68{fill:#FCD91A;}
	.st69{opacity:0.05;fill:#3F4347;}
	.st70{fill:#5F6469;}
	.st71{fill:#64696E;}
	.st72{fill:#939799;}
	.st73{fill:#6F7378;}
	.st74{fill:#D2D8DD;}
	.st75{fill:#4E99D2;}
	.st76{fill:#7B8B92;}
	.st77{fill:#38C0DC;}
	.st78{opacity:0.2;}
	.st79{fill:#FDE7AA;}
	.st80{fill:#FFDC96;}
	.st81{fill:#64892F;}
	.st82{fill:#E9B02C;}
</style>
<g id="XMLID_3850_">
	<g id="XMLID_3763_">
		<g>
			<path class="st11" d="M20.662,20.955l-3.03,3.03c-2.41,2.41-6.49,2.76-10.57,0.89c-1.86-4.08-1.52-8.16,0.89-10.57l3.03-3.03
				c0.9-0.9,2.36-0.9,3.27,0l6.41,6.42C21.562,18.595,21.562,20.055,20.662,20.955z"/>
		</g>
		<g>
			<polygon class="st14" points="26.08,8.352 18.163,16.268 13.85,18.091 15.673,13.778 23.59,5.862 			"/>
		</g>
		<g id="XMLID_3770_">
			<path id="XMLID_3769_" class="st8" d="M24.125,7.803c-0.099-0.099-0.193-0.203-0.283-0.311c-1.425-1.726-1.255-4.363,0.386-6.004
				l1.154-1.154c0.466-0.466,1.221-0.466,1.687,0l4.537,4.537c0.466,0.466,0.466,1.222,0,1.687L30.355,7.81
				c-0.875,0.875-2.086,1.343-3.323,1.284C25.937,9.042,24.898,8.577,24.125,7.803z M26.226,2.865l-0.31,0.31
				c-0.781,0.781-0.883,2.01-0.233,2.798c0.369,0.448,0.89,0.711,1.464,0.738c0.575,0.027,1.116-0.182,1.522-0.588l0.408-0.408
				L26.226,2.865z"/>
		</g>
	</g>
	<g id="XMLID_3760_">
		<g>
			<path id="XMLID_3786_" class="st48" d="M31.886,32.015c-0.56-2.098-2.456-3.652-4.731-3.652c-0.784,0-1.514,0.2-2.172,0.527
				c-0.446-2.256-2.432-3.959-4.819-3.959c-0.657,0-1.282,0.134-1.855,0.368c-0.399-1.587-1.824-2.767-3.536-2.767
				c-1.455,0-2.7,0.856-3.29,2.086c-0.814-0.598-1.81-0.962-2.897-0.962c-2.325,0-4.261,1.619-4.773,3.787
				c-2.105,0.497-3.678,2.339-3.77,4.572H31.886z"/>
		</g>
	</g>
</g>
</svg>
