<?xml version="1.0" encoding="utf-8"?>
<!-- Generator: Adobe Illustrator 21.1.0, SVG Export Plug-In . SVG Version: 6.00 Build 0)  -->
<svg version="1.1" id="Layer_1" xmlns="http://www.w3.org/2000/svg" xmlns:xlink="http://www.w3.org/1999/xlink" x="0px" y="0px"
	 viewBox="0 0 32 32" style="enable-background:new 0 0 32 32;" xml:space="preserve">
<style type="text/css">
	.st0{fill:#8F6D52;}
	.st1{fill:#7FB241;}
	.st2{fill:#A5856D;}
	.st3{fill:#FFFFFF;}
	.st4{fill:#7FB239;}
	.st5{fill:#45CBEA;}
	.st6{fill:#5A5F63;}
	.st7{fill:#8BC540;}
	.st8{fill:#E14B4B;}
	.st9{fill:#F3C432;}
	.st10{fill:#FFD83B;}
	.st11{fill:#DAE5EF;}
	.st12{fill:#E24B4B;}
	.st13{fill:#3E4347;}
	.st14{fill:#5B5F63;}
	.st15{fill:#6DAFDF;}
	.st16{fill:#9A795F;}
	.st17{fill:#997960;}
	.st18{fill:#FFD93B;}
	.st19{fill:#E2E2E1;}
	.st20{fill:#3F4347;}
	.st21{opacity:0.02;fill:#2F3133;}
	.st22{fill:#E9EFF4;}
	.st23{fill:#DEE4E9;}
	.st24{fill:#F4C534;}
	.st25{fill:#BBC7D1;}
	.st26{fill:#DDE3E9;}
	.st27{fill:#E8EBEE;}
	.st28{fill:#DDDDDC;}
	.st29{fill:#F4F4F4;}
	.st30{fill:#777B7E;}
	.st31{opacity:0.1;fill:#231F20;}
	.st32{fill:#E574AC;}
	.st33{fill:#428DC3;}
	.st34{fill:#4CC6E5;}
	.st35{fill:#E8EFF3;}
	.st36{fill:#8E6D53;}
	.st37{fill:#719C40;}
	.st38{fill:url(#XMLID_3_);}
	.st39{fill:#FFF100;}
	.st40{fill:#9FDCF8;}
	.st41{fill:#27B2CC;}
	.st42{fill:#CBD6E0;}
	.st43{fill:#BF3333;}
	.st44{fill:#D03F3F;}
	.st45{fill:#5CA3D9;}
	.st46{fill:#CE7629;}
	.st47{fill:#E18823;}
	.st48{fill:#A4856D;}
	.st49{fill:#7BA740;}
	.st50{fill:#F29A2E;}
	.st51{fill:#F2F2F2;}
	.st52{fill:#83B844;}
	.st53{fill:#8BC04C;}
	.st54{fill:#7A5B44;}
	.st55{fill:#8CC63E;}
	.st56{fill:#89664C;}
	.st57{fill:#65B1EF;}
	.st58{fill:#4D98D2;}
	.st59{fill:#BAC6D0;}
	.st60{fill:#7AA440;}
	.st61{fill:#ACB9C1;}
	.st62{fill:#E8AF2A;}
	.st63{fill:#D03F3E;}
	.st64{fill:#DF8726;}
	.st65{fill:#DF9D27;}
	.st66{fill:#D3D9DD;}
	.st67{fill:none;stroke:#FFFFFF;stroke-width:2.5;stroke-linecap:round;stroke-linejoin:round;stroke-miterlimit:10;}
	.st68{fill:#FCD91A;}
	.st69{opacity:0.05;fill:#3F4347;}
	.st70{fill:#5F6469;}
	.st71{fill:#64696E;}
	.st72{fill:#939799;}
	.st73{fill:#6F7378;}
	.st74{fill:#D2D8DD;}
	.st75{fill:#4E99D2;}
	.st76{fill:#7B8B92;}
	.st77{fill:#38C0DC;}
	.st78{opacity:0.2;}
	.st79{fill:#FDE7AA;}
	.st80{fill:#FFDC96;}
	.st81{fill:#64892F;}
	.st82{fill:#E9B02C;}
</style>
<g id="XMLID_1402_">
	<path id="XMLID_2224_" class="st3" d="M20.006,5.246c0-0.676-1.131-1.807-1.807-1.807c0.676,0,1.807-1.131,1.807-1.807
		c0,0.676,1.131,1.807,1.807,1.807C21.137,3.439,20.006,4.57,20.006,5.246z"/>
	<g id="XMLID_2242_">
		<g id="XMLID_2243_">
			<circle id="XMLID_2266_" class="st27" cx="16.069" cy="21.876" r="10.124"/>
			<circle id="XMLID_2265_" class="st28" cx="16.069" cy="21.876" r="10.124"/>
			<circle id="XMLID_2262_" class="st29" cx="16.069" cy="11.752" r="6.846"/>
			<path id="XMLID_2261_" class="st16" d="M22.505,14.068c-0.95,2.64-3.469,4.53-6.436,4.53c-2.967,0-5.485-1.891-6.436-4.53
				c-0.454,0.375-0.877,0.787-1.26,1.234c1.347,2.908,4.286,4.935,7.696,4.935s6.348-2.026,7.695-4.935
				C23.382,14.854,22.959,14.443,22.505,14.068z"/>
			<path id="XMLID_2279_" class="st16" d="M20.894,16.652c1.018,2.254,0.724,4.862-0.695,6.823c0.566,0.164,1.144,0.281,1.73,0.345
				c1.279-2.142,1.558-4.776,0.719-7.168H20.894z"/>
			<circle id="XMLID_2260_" class="st30" cx="16.069" cy="21.842" r="0.807"/>
			<circle id="XMLID_2259_" class="st30" cx="16.069" cy="25.082" r="0.807"/>
			<circle id="XMLID_2258_" class="st30" cx="16.069" cy="28.322" r="0.807"/>
			<circle id="XMLID_2257_" class="st3" cx="13.046" cy="10.19" r="1.107"/>
			<circle id="XMLID_2256_" class="st20" cx="13.046" cy="10.19" r="0.732"/>
			<circle id="XMLID_2255_" class="st3" cx="13.469" cy="9.767" r="0.366"/>
			<circle id="XMLID_2254_" class="st3" cx="19.092" cy="10.19" r="1.107"/>
			<circle id="XMLID_2253_" class="st20" cx="19.092" cy="10.19" r="0.732"/>
			<circle id="XMLID_2252_" class="st3" cx="19.516" cy="9.767" r="0.366"/>
			<g id="XMLID_1167_">
				<polygon id="XMLID_2251_" class="st8" points="16.069,15.831 15.16,11.236 16.978,11.236 				"/>
			</g>
			<path id="XMLID_2250_" class="st8" d="M20.889,7.458V1.638C20.889,0.734,20.156,0,19.251,0h-6.364
				c-0.905,0-1.638,0.734-1.638,1.638v5.819H20.889z"/>
			<rect id="XMLID_2277_" x="11.244" y="4.574" class="st10" width="9.648" height="1.836"/>
			<path id="XMLID_2244_" class="st8" d="M21.93,8.377H10.208c-0.544,0-0.984-0.441-0.984-0.984v0c0-0.544,0.441-0.984,0.984-0.984
				H21.93c0.544,0,0.984,0.441,0.984,0.984v0C22.915,7.937,22.474,8.377,21.93,8.377z"/>
			<path id="XMLID_2245_" class="st31" d="M21.93,8.377H10.208c-0.028,0-0.055-0.006-0.083-0.008
				c-0.141,0.245-0.269,0.497-0.379,0.76c0.148,0.04,0.301,0.067,0.461,0.067H21.93c0.16,0,0.313-0.028,0.461-0.067
				c-0.109-0.263-0.238-0.516-0.379-0.76C21.985,8.371,21.959,8.377,21.93,8.377z"/>
		</g>
		<g id="XMLID_2246_">
			<g id="XMLID_2247_">
				<g id="XMLID_2248_">
					<path id="XMLID_2270_" class="st20" d="M24.079,22.342c-0.128,0-0.256-0.049-0.354-0.146c-0.195-0.195-0.195-0.512,0-0.707
						l6.509-6.509c0.195-0.195,0.512-0.195,0.707,0s0.195,0.512,0,0.707l-6.509,6.509C24.335,22.293,24.207,22.342,24.079,22.342z"
						/>
				</g>
				<g id="XMLID_2249_">
					<path id="XMLID_2269_" class="st20" d="M30.459,18.697h-2.863c-0.276,0-0.5-0.224-0.5-0.5v-2.863c0-0.276,0.224-0.5,0.5-0.5
						s0.5,0.224,0.5,0.5v2.363h2.363c0.276,0,0.5,0.224,0.5,0.5S30.735,18.697,30.459,18.697z"/>
				</g>
			</g>
			<g id="XMLID_2263_">
				<g id="XMLID_2264_">
					<path id="XMLID_2268_" class="st20" d="M8.059,22.342c-0.128,0-0.256-0.049-0.354-0.146l-6.509-6.509
						c-0.195-0.195-0.195-0.512,0-0.707s0.512-0.195,0.707,0l6.509,6.509c0.195,0.195,0.195,0.512,0,0.707
						C8.315,22.293,8.187,22.342,8.059,22.342z"/>
				</g>
				<g id="XMLID_2267_">
					<path id="XMLID_2347_" class="st20" d="M4.542,18.697H1.679c-0.276,0-0.5-0.224-0.5-0.5s0.224-0.5,0.5-0.5h2.363v-2.363
						c0-0.276,0.224-0.5,0.5-0.5s0.5,0.224,0.5,0.5v2.863C5.042,18.473,4.818,18.697,4.542,18.697z"/>
				</g>
			</g>
		</g>
	</g>
	<circle id="XMLID_2383_" class="st29" cx="2.41" cy="3.439" r="1.498"/>
	<circle id="XMLID_2385_" class="st29" cx="6.329" cy="9.401" r="0.924"/>
	<circle id="XMLID_2386_" class="st29" cx="27.096" cy="7.908" r="0.924"/>
	<circle id="XMLID_2388_" class="st29" cx="29.482" cy="5.492" r="0.924"/>
	<circle id="XMLID_2387_" class="st29" cx="24.971" cy="3.729" r="1.206"/>
</g>
</svg>
