<?xml version="1.0" encoding="utf-8"?>
<!-- Generator: Adobe Illustrator 21.1.0, SVG Export Plug-In . SVG Version: 6.00 Build 0)  -->
<svg version="1.1" id="Layer_1" xmlns="http://www.w3.org/2000/svg" xmlns:xlink="http://www.w3.org/1999/xlink" x="0px" y="0px"
	 viewBox="0 0 32 32" style="enable-background:new 0 0 32 32;" xml:space="preserve">
<style type="text/css">
	.st0{fill:#8F6D52;}
	.st1{fill:#7FB241;}
	.st2{fill:#A5856D;}
	.st3{fill:#FFFFFF;}
	.st4{fill:#7FB239;}
	.st5{fill:#45CBEA;}
	.st6{fill:#5A5F63;}
	.st7{fill:#8BC540;}
	.st8{fill:#E14B4B;}
	.st9{fill:#F3C432;}
	.st10{fill:#FFD83B;}
	.st11{fill:#DAE5EF;}
	.st12{fill:#E24B4B;}
	.st13{fill:#3E4347;}
	.st14{fill:#5B5F63;}
	.st15{fill:#6DAFDF;}
	.st16{fill:#9A795F;}
	.st17{fill:#997960;}
	.st18{fill:#FFD93B;}
	.st19{fill:#E2E2E1;}
	.st20{fill:#3F4347;}
	.st21{opacity:0.02;fill:#2F3133;}
	.st22{fill:#E9EFF4;}
	.st23{fill:#DEE4E9;}
	.st24{fill:#F4C534;}
	.st25{fill:#BBC7D1;}
	.st26{fill:#DDE3E9;}
	.st27{fill:#E8EBEE;}
	.st28{fill:#DDDDDC;}
	.st29{fill:#F4F4F4;}
	.st30{fill:#777B7E;}
	.st31{opacity:0.1;fill:#231F20;}
	.st32{fill:#E574AC;}
	.st33{fill:#428DC3;}
	.st34{fill:#4CC6E5;}
	.st35{fill:#E8EFF3;}
	.st36{fill:#8E6D53;}
	.st37{fill:#719C40;}
	.st38{fill:url(#XMLID_3_);}
	.st39{fill:#FFF100;}
	.st40{fill:#9FDCF8;}
	.st41{fill:#27B2CC;}
	.st42{fill:#CBD6E0;}
	.st43{fill:#BF3333;}
	.st44{fill:#D03F3F;}
	.st45{fill:#5CA3D9;}
	.st46{fill:#CE7629;}
	.st47{fill:#E18823;}
	.st48{fill:#A4856D;}
	.st49{fill:#7BA740;}
	.st50{fill:#F29A2E;}
	.st51{fill:#F2F2F2;}
	.st52{fill:#83B844;}
	.st53{fill:#8BC04C;}
	.st54{fill:#7A5B44;}
	.st55{fill:#8CC63E;}
	.st56{fill:#89664C;}
	.st57{fill:#65B1EF;}
	.st58{fill:#4D98D2;}
	.st59{fill:#BAC6D0;}
	.st60{fill:#7AA440;}
	.st61{fill:#ACB9C1;}
	.st62{fill:#E8AF2A;}
	.st63{fill:#D03F3E;}
	.st64{fill:#DF8726;}
	.st65{fill:#DF9D27;}
	.st66{fill:#D3D9DD;}
	.st67{fill:none;stroke:#FFFFFF;stroke-width:2.5;stroke-linecap:round;stroke-linejoin:round;stroke-miterlimit:10;}
	.st68{fill:#FCD91A;}
	.st69{opacity:0.05;fill:#3F4347;}
	.st70{fill:#5F6469;}
	.st71{fill:#64696E;}
	.st72{fill:#939799;}
	.st73{fill:#6F7378;}
	.st74{fill:#D2D8DD;}
	.st75{fill:#4E99D2;}
	.st76{fill:#7B8B92;}
	.st77{fill:#38C0DC;}
	.st78{opacity:0.2;}
	.st79{fill:#FDE7AA;}
	.st80{fill:#FFDC96;}
	.st81{fill:#64892F;}
	.st82{fill:#E9B02C;}
</style>
<g id="XMLID_2271_">
	<circle id="XMLID_2303_" class="st19" cx="16" cy="20.558" r="11.306"/>
	<circle id="XMLID_2297_" class="st3" cx="11.007" cy="17.979" r="1.828"/>
	<circle id="XMLID_2296_" class="st20" cx="11.007" cy="17.979" r="1.209"/>
	<circle id="XMLID_2295_" class="st3" cx="11.706" cy="17.279" r="0.605"/>
	<circle id="XMLID_2294_" class="st3" cx="20.993" cy="17.979" r="1.828"/>
	<circle id="XMLID_2293_" class="st20" cx="20.993" cy="17.979" r="1.209"/>
	<circle id="XMLID_2292_" class="st3" cx="21.693" cy="17.279" r="0.605"/>
	<path id="XMLID_2291_" class="st8" d="M10.225,21.243l5.166-1.335c0.915-0.236,1.806,0.454,1.806,1.399v0
		c0,0.945-0.892,1.635-1.806,1.399L10.225,21.243z"/>
	<path id="XMLID_2290_" class="st20" d="M23.961,13.466l1.702-8.549c0.493-2.474-1.4-4.781-3.923-4.781H10.26
		c-2.523,0-4.416,2.307-3.923,4.781l1.702,8.549H23.961z"/>
	<path id="XMLID_2274_" class="st8" d="M6.93,7.892l0.765,3.845c5.537,0,11.073,0,16.61,0l0.765-3.844
		C19.051,7.066,12.949,7.066,6.93,7.892z"/>
	<path id="XMLID_2273_" class="st20" d="M25.286,11.631c-6.162-0.834-12.409-0.834-18.572,0c-0.861,0.116-1.449,0.889-1.317,1.7
		c0.132,0.813,0.9,1.365,1.717,1.255c5.897-0.798,11.875-0.798,17.772,0c0.817,0.11,1.584-0.442,1.717-1.255
		C26.735,12.52,26.146,11.747,25.286,11.631z"/>
	<g id="XMLID_2272_">
		<path id="XMLID_2275_" class="st14" d="M12.695,25.955c-0.195-0.195-0.195-0.512,0-0.707s0.512-0.195,0.707,0
			c1.432,1.432,3.764,1.432,5.195,0c0.195-0.195,0.512-0.195,0.707,0s0.195,0.512,0,0.707
			C17.482,27.777,14.519,27.778,12.695,25.955z"/>
	</g>
	<path id="XMLID_2280_" class="st21" d="M21.087,10.472c0.773,1.53,1.219,3.255,1.219,5.087c0,6.244-5.062,11.305-11.305,11.305
		c-1.832,0-3.556-0.446-5.087-1.219c1.863,3.686,5.675,6.219,10.087,6.219c6.244,0,11.305-5.062,11.305-11.305
		C27.306,16.146,24.772,12.334,21.087,10.472z"/>
</g>
</svg>
