<?xml version="1.0" encoding="utf-8"?>
<!-- Generator: Adobe Illustrator 21.1.0, SVG Export Plug-In . SVG Version: 6.00 Build 0)  -->
<svg version="1.1" id="Layer_1" xmlns="http://www.w3.org/2000/svg" xmlns:xlink="http://www.w3.org/1999/xlink" x="0px" y="0px"
	 viewBox="0 0 32 32" style="enable-background:new 0 0 32 32;" xml:space="preserve">
<style type="text/css">
	.st0{fill:#8F6D52;}
	.st1{fill:#7FB241;}
	.st2{fill:#A5856D;}
	.st3{fill:#FFFFFF;}
	.st4{fill:#7FB239;}
	.st5{fill:#45CBEA;}
	.st6{fill:#5A5F63;}
	.st7{fill:#8BC540;}
	.st8{fill:#E14B4B;}
	.st9{fill:#F3C432;}
	.st10{fill:#FFD83B;}
	.st11{fill:#DAE5EF;}
	.st12{fill:#E24B4B;}
	.st13{fill:#3E4347;}
	.st14{fill:#5B5F63;}
	.st15{fill:#6DAFDF;}
	.st16{fill:#9A795F;}
	.st17{fill:#997960;}
	.st18{fill:#FFD93B;}
	.st19{fill:#E2E2E1;}
	.st20{fill:#3F4347;}
	.st21{opacity:0.02;fill:#2F3133;}
	.st22{fill:#E9EFF4;}
	.st23{fill:#DEE4E9;}
	.st24{fill:#F4C534;}
	.st25{fill:#BBC7D1;}
	.st26{fill:#DDE3E9;}
	.st27{fill:#E8EBEE;}
	.st28{fill:#DDDDDC;}
	.st29{fill:#F4F4F4;}
	.st30{fill:#777B7E;}
	.st31{opacity:0.1;fill:#231F20;}
	.st32{fill:#E574AC;}
	.st33{fill:#428DC3;}
	.st34{fill:#4CC6E5;}
	.st35{fill:#E8EFF3;}
	.st36{fill:#8E6D53;}
	.st37{fill:#719C40;}
	.st38{fill:url(#XMLID_3_);}
	.st39{fill:#FFF100;}
	.st40{fill:#9FDCF8;}
	.st41{fill:#27B2CC;}
	.st42{fill:#CBD6E0;}
	.st43{fill:#BF3333;}
	.st44{fill:#D03F3F;}
	.st45{fill:#5CA3D9;}
	.st46{fill:#CE7629;}
	.st47{fill:#E18823;}
	.st48{fill:#A4856D;}
	.st49{fill:#7BA740;}
	.st50{fill:#F29A2E;}
	.st51{fill:#F2F2F2;}
	.st52{fill:#83B844;}
	.st53{fill:#8BC04C;}
	.st54{fill:#7A5B44;}
	.st55{fill:#8CC63E;}
	.st56{fill:#89664C;}
	.st57{fill:#65B1EF;}
	.st58{fill:#4D98D2;}
	.st59{fill:#BAC6D0;}
	.st60{fill:#7AA440;}
	.st61{fill:#ACB9C1;}
	.st62{fill:#E8AF2A;}
	.st63{fill:#D03F3E;}
	.st64{fill:#DF8726;}
	.st65{fill:#DF9D27;}
	.st66{fill:#D3D9DD;}
	.st67{fill:none;stroke:#FFFFFF;stroke-width:2.5;stroke-linecap:round;stroke-linejoin:round;stroke-miterlimit:10;}
	.st68{fill:#FCD91A;}
	.st69{opacity:0.05;fill:#3F4347;}
	.st70{fill:#5F6469;}
	.st71{fill:#64696E;}
	.st72{fill:#939799;}
	.st73{fill:#6F7378;}
	.st74{fill:#D2D8DD;}
	.st75{fill:#4E99D2;}
	.st76{fill:#7B8B92;}
	.st77{fill:#38C0DC;}
	.st78{opacity:0.2;}
	.st79{fill:#FDE7AA;}
	.st80{fill:#FFDC96;}
	.st81{fill:#64892F;}
	.st82{fill:#E9B02C;}
</style>
<g id="XMLID_4495_">
	<g id="XMLID_4494_">
		<path class="st10" d="M30.989,15.969l-14.69-14.68c-0.54-0.54-1.27-0.84-2.03-0.84h-7.11c-0.76,0-1.49,0.3-2.03,0.84l-3.87,3.87
			c-0.54,0.54-0.84,1.27-0.84,2.03v7.12c0,0.76,0.3,1.49,0.84,2.03l14.68,14.68c0.79,0.79,2.07,0.79,2.86,0l12.19-12.19
			C31.779,18.039,31.779,16.759,30.989,15.969z M8.169,8.199c-0.688,0.681-1.804,0.681-2.493,0c-0.688-0.688-0.688-1.804,0-2.493
			s1.804-0.688,2.493,0C8.85,6.395,8.85,7.511,8.169,8.199z"/>
		<path id="XMLID_4487_" class="st9" d="M4.64,4.671c-1.26,1.26-1.26,3.303,0,4.563s3.303,1.26,4.563,0s1.26-3.303,0-4.563
			C7.943,3.411,5.9,3.411,4.64,4.671z M8.166,8.197c-0.687,0.687-1.801,0.687-2.489,0s-0.687-1.801,0-2.489
			c0.687-0.687,1.801-0.687,2.489,0C8.853,6.395,8.853,7.509,8.166,8.197z"/>
		<g id="XMLID_4457_">
			<path id="XMLID_4493_" class="st35" d="M22.927,12.455l-3.286-0.851l-0.918,3.47l3.783,1.038l0.781-0.781
				c0.306-0.306,0.499-0.706,0.543-1.13c0-0.101,0.001-0.213,0.004-0.338l-0.011-0.054c-0.111-0.529-0.411-1.001-0.848-1.319
				C22.945,12.467,22.927,12.455,22.927,12.455z"/>
			<path id="XMLID_4492_" class="st3" d="M23.835,13.863l0.16,0.761l0.776,2.92c0.144,0.542-0.012,1.119-0.408,1.515l-1.245,1.245
				l0.976,0.976l-3.378-0.976l-0.976-3.378l0.976,0.976l2.571-2.571c0.025-0.025,0.047-0.05,0.069-0.076
				c0.265-0.295,0.433-0.664,0.474-1.055c0-0.097,0.001-0.203,0.004-0.323c0-0.001,0.001-0.004,0.001-0.005L23.835,13.863z"/>
			<path id="XMLID_4490_" class="st35" d="M18.858,24.666l2.39-2.411l-2.536-2.54l-2.802,2.746l0.282,1.068
				c0.11,0.419,0.359,0.787,0.703,1.039c0.088,0.051,0.184,0.108,0.29,0.174l0.053,0.017c0.513,0.171,1.071,0.149,1.566-0.068
				C18.839,24.675,18.858,24.666,18.858,24.666z"/>
			<path id="XMLID_4489_" class="st3" d="M17.185,24.742l-0.738-0.245l-2.914-0.799c-0.541-0.149-0.961-0.573-1.104-1.115
				l-0.449-1.702l-1.335,0.352l2.544-2.427l3.41,0.858l-1.335,0.352l0.927,3.516c0.009,0.034,0.019,0.066,0.031,0.098
				c0.121,0.378,0.356,0.709,0.673,0.941c0.084,0.048,0.175,0.103,0.277,0.166c0.001,0.001,0.003,0.003,0.004,0.004
				C17.178,24.739,17.182,24.74,17.185,24.742z"/>
			<path id="XMLID_4481_" class="st35" d="M10.446,15.273l0.985,3.249l3.44-1.024l-1.084-3.77l-1.074-0.26
				c-0.421-0.102-0.863-0.058-1.248,0.125c-0.086,0.053-0.182,0.11-0.291,0.172l-0.04,0.038c-0.394,0.37-0.64,0.872-0.684,1.41
				C10.447,15.251,10.446,15.273,10.446,15.273z"/>
			<path id="XMLID_4458_" class="st3" d="M11.175,13.765l0.567-0.533l2.088-2.183c0.388-0.405,0.961-0.573,1.506-0.441l1.711,0.414
				l0.325-1.342l0.926,3.392l-2.376,2.593l0.325-1.342l-3.534-0.856c-0.034-0.008-0.067-0.014-0.101-0.02
				c-0.39-0.073-0.793-0.024-1.147,0.145c-0.083,0.051-0.174,0.105-0.278,0.164c-0.001,0-0.004,0.001-0.005,0.001
				C11.18,13.76,11.177,13.763,11.175,13.765z"/>
		</g>
	</g>
	<g>
		<path id="XMLID_4497_" class="st14" d="M7.161,5.153l-4.41-4.41c-0.473-0.473-1.24-0.473-1.713,0c-0.473,0.473-0.473,1.24,0,1.713
			l4.41,4.41c0.473,0.473,1.24,0.473,1.713,0S7.634,5.626,7.161,5.153z"/>
	</g>
</g>
</svg>
