<?xml version="1.0" encoding="utf-8"?>
<!-- Generator: Adobe Illustrator 21.1.0, SVG Export Plug-In . SVG Version: 6.00 Build 0)  -->
<svg version="1.1" id="Layer_1" xmlns="http://www.w3.org/2000/svg" xmlns:xlink="http://www.w3.org/1999/xlink" x="0px" y="0px"
	 viewBox="0 0 32 32" style="enable-background:new 0 0 32 32;" xml:space="preserve">
<style type="text/css">
	.st0{fill:#8F6D52;}
	.st1{fill:#7FB241;}
	.st2{fill:#A5856D;}
	.st3{fill:#FFFFFF;}
	.st4{fill:#7FB239;}
	.st5{fill:#45CBEA;}
	.st6{fill:#5A5F63;}
	.st7{fill:#8BC540;}
	.st8{fill:#E14B4B;}
	.st9{fill:#F3C432;}
	.st10{fill:#FFD83B;}
	.st11{fill:#DAE5EF;}
	.st12{fill:#E24B4B;}
	.st13{fill:#3E4347;}
	.st14{fill:#5B5F63;}
	.st15{fill:#6DAFDF;}
	.st16{fill:#9A795F;}
	.st17{fill:#997960;}
	.st18{fill:#FFD93B;}
	.st19{fill:#E2E2E1;}
	.st20{fill:#3F4347;}
	.st21{opacity:0.02;fill:#2F3133;}
	.st22{fill:#E9EFF4;}
	.st23{fill:#DEE4E9;}
	.st24{fill:#F4C534;}
	.st25{fill:#BBC7D1;}
	.st26{fill:#DDE3E9;}
	.st27{fill:#E8EBEE;}
	.st28{fill:#DDDDDC;}
	.st29{fill:#F4F4F4;}
	.st30{fill:#777B7E;}
	.st31{opacity:0.1;fill:#231F20;}
	.st32{fill:#E574AC;}
	.st33{fill:#428DC3;}
	.st34{fill:#4CC6E5;}
	.st35{fill:#E8EFF3;}
	.st36{fill:#8E6D53;}
	.st37{fill:#719C40;}
	.st38{fill:url(#XMLID_3_);}
	.st39{fill:#FFF100;}
	.st40{fill:#9FDCF8;}
	.st41{fill:#27B2CC;}
	.st42{fill:#CBD6E0;}
	.st43{fill:#BF3333;}
	.st44{fill:#D03F3F;}
	.st45{fill:#5CA3D9;}
	.st46{fill:#CE7629;}
	.st47{fill:#E18823;}
	.st48{fill:#A4856D;}
	.st49{fill:#7BA740;}
	.st50{fill:#F29A2E;}
	.st51{fill:#F2F2F2;}
	.st52{fill:#83B844;}
	.st53{fill:#8BC04C;}
	.st54{fill:#7A5B44;}
	.st55{fill:#8CC63E;}
	.st56{fill:#89664C;}
	.st57{fill:#65B1EF;}
	.st58{fill:#4D98D2;}
	.st59{fill:#BAC6D0;}
	.st60{fill:#7AA440;}
	.st61{fill:#ACB9C1;}
	.st62{fill:#E8AF2A;}
	.st63{fill:#D03F3E;}
	.st64{fill:#DF8726;}
	.st65{fill:#DF9D27;}
	.st66{fill:#D3D9DD;}
	.st67{fill:none;stroke:#FFFFFF;stroke-width:2.5;stroke-linecap:round;stroke-linejoin:round;stroke-miterlimit:10;}
	.st68{fill:#FCD91A;}
	.st69{opacity:0.05;fill:#3F4347;}
	.st70{fill:#5F6469;}
	.st71{fill:#64696E;}
	.st72{fill:#939799;}
	.st73{fill:#6F7378;}
	.st74{fill:#D2D8DD;}
	.st75{fill:#4E99D2;}
	.st76{fill:#7B8B92;}
	.st77{fill:#38C0DC;}
	.st78{opacity:0.2;}
	.st79{fill:#FDE7AA;}
	.st80{fill:#FFDC96;}
	.st81{fill:#64892F;}
	.st82{fill:#E9B02C;}
</style>
<g id="XMLID_3704_">
	<g id="XMLID_3687_">
		<g id="XMLID_3691_">
			
				<ellipse id="XMLID_3693_" transform="matrix(0.937 -0.3495 0.3495 0.937 0.8409 7.2329)" class="st20" cx="20.465" cy="1.286" rx="1.252" ry="1.252"/>
			
				<rect id="XMLID_3692_" x="18.905" y="0.965" transform="matrix(-0.9096 -0.4154 0.4154 -0.9096 35.6487 14.71)" class="st20" width="1.038" height="5.026"/>
		</g>
		<g id="XMLID_3688_">
			
				<ellipse id="XMLID_3690_" transform="matrix(0.3495 -0.937 0.937 0.3495 6.2987 11.644)" class="st20" cx="11.535" cy="1.286" rx="1.252" ry="1.252"/>
			
				<rect id="XMLID_3689_" x="12.057" y="0.965" transform="matrix(0.9096 -0.4154 0.4154 0.9096 -0.3082 5.5384)" class="st20" width="1.038" height="5.026"/>
		</g>
	</g>
	<circle id="XMLID_3666_" class="st20" cx="16" cy="9.25" r="6.163"/>
	<circle id="XMLID_3663_" class="st8" cx="16" cy="20.365" r="11.602"/>
	<path id="XMLID_3675_" class="st20" d="M16,31.967c1.426,0,2.786-0.27,4.048-0.74L16,13.581l-4.048,17.645
		C13.214,31.697,14.574,31.967,16,31.967z"/>
	<g id="XMLID_3681_">
		<g id="XMLID_3668_">
			<circle id="XMLID_3667_" class="st20" cx="11.761" cy="13.916" r="1.115"/>
			<circle id="XMLID_3679_" class="st20" cx="9.943" cy="24.461" r="1.115"/>
			<circle id="XMLID_3674_" class="st20" cx="7.528" cy="18.023" r="1.561"/>
		</g>
		<g id="XMLID_3682_">
			<circle id="XMLID_3685_" class="st20" cx="20.239" cy="13.916" r="1.115"/>
			<circle id="XMLID_3684_" class="st20" cx="22.057" cy="24.461" r="1.115"/>
			<circle id="XMLID_3683_" class="st20" cx="24.472" cy="18.023" r="1.561"/>
		</g>
	</g>
	<g id="XMLID_3699_">
		<g id="XMLID_3698_">
			
				<ellipse id="XMLID_3694_" transform="matrix(0.9694 -0.2453 0.2453 0.9694 -0.9472 3.6152)" class="st3" cx="14.038" cy="5.61" rx="0.847" ry="1.52"/>
			
				<ellipse id="XMLID_3695_" transform="matrix(0.9694 -0.2453 0.2453 0.9694 -0.9472 3.6152)" class="st20" cx="14.038" cy="5.61" rx="0.559" ry="0.559"/>
			
				<ellipse id="XMLID_3697_" transform="matrix(0.9694 -0.2453 0.2453 0.9694 -0.8696 3.6492)" class="st3" cx="14.213" cy="5.315" rx="0.109" ry="0.109"/>
		</g>
		<g id="XMLID_3700_">
			
				<ellipse id="XMLID_3703_" transform="matrix(0.2453 -0.9694 0.9694 0.2453 8.1174 21.6468)" class="st3" cx="17.962" cy="5.61" rx="1.52" ry="0.847"/>
			
				<ellipse id="XMLID_3702_" transform="matrix(0.2453 -0.9694 0.9694 0.2453 8.1174 21.6468)" class="st20" cx="17.962" cy="5.61" rx="0.559" ry="0.559"/>
			
				<ellipse id="XMLID_3701_" transform="matrix(0.2453 -0.9694 0.9694 0.2453 8.2704 21.2543)" class="st3" cx="17.787" cy="5.315" rx="0.109" ry="0.109"/>
		</g>
	</g>
</g>
</svg>
