<?xml version="1.0" encoding="utf-8"?>
<!-- Generator: Adobe Illustrator 21.1.0, SVG Export Plug-In . SVG Version: 6.00 Build 0)  -->
<svg version="1.1" id="Layer_1" xmlns="http://www.w3.org/2000/svg" xmlns:xlink="http://www.w3.org/1999/xlink" x="0px" y="0px"
	 viewBox="0 0 32 32" style="enable-background:new 0 0 32 32;" xml:space="preserve">
<style type="text/css">
	.st0{fill:#8F6D52;}
	.st1{fill:#7FB241;}
	.st2{fill:#A5856D;}
	.st3{fill:#FFFFFF;}
	.st4{fill:#7FB239;}
	.st5{fill:#45CBEA;}
	.st6{fill:#5A5F63;}
	.st7{fill:#8BC540;}
	.st8{fill:#E14B4B;}
	.st9{fill:#F3C432;}
	.st10{fill:#FFD83B;}
	.st11{fill:#DAE5EF;}
	.st12{fill:#E24B4B;}
	.st13{fill:#3E4347;}
	.st14{fill:#5B5F63;}
	.st15{fill:#6DAFDF;}
	.st16{fill:#9A795F;}
	.st17{fill:#997960;}
	.st18{fill:#FFD93B;}
	.st19{fill:#E2E2E1;}
	.st20{fill:#3F4347;}
	.st21{opacity:0.02;fill:#2F3133;}
	.st22{fill:#E9EFF4;}
	.st23{fill:#DEE4E9;}
	.st24{fill:#F4C534;}
	.st25{fill:#BBC7D1;}
	.st26{fill:#DDE3E9;}
	.st27{fill:#E8EBEE;}
	.st28{fill:#DDDDDC;}
	.st29{fill:#F4F4F4;}
	.st30{fill:#777B7E;}
	.st31{opacity:0.1;fill:#231F20;}
	.st32{fill:#E574AC;}
	.st33{fill:#428DC3;}
	.st34{fill:#4CC6E5;}
	.st35{fill:#E8EFF3;}
	.st36{fill:#8E6D53;}
	.st37{fill:#719C40;}
	.st38{fill:url(#XMLID_3_);}
	.st39{fill:#FFF100;}
	.st40{fill:#9FDCF8;}
	.st41{fill:#27B2CC;}
	.st42{fill:#CBD6E0;}
	.st43{fill:#BF3333;}
	.st44{fill:#D03F3F;}
	.st45{fill:#5CA3D9;}
	.st46{fill:#CE7629;}
	.st47{fill:#E18823;}
	.st48{fill:#A4856D;}
	.st49{fill:#7BA740;}
	.st50{fill:#F29A2E;}
	.st51{fill:#F2F2F2;}
	.st52{fill:#83B844;}
	.st53{fill:#8BC04C;}
	.st54{fill:#7A5B44;}
	.st55{fill:#8CC63E;}
	.st56{fill:#89664C;}
	.st57{fill:#65B1EF;}
	.st58{fill:#4D98D2;}
	.st59{fill:#BAC6D0;}
	.st60{fill:#7AA440;}
	.st61{fill:#ACB9C1;}
	.st62{fill:#E8AF2A;}
	.st63{fill:#D03F3E;}
	.st64{fill:#DF8726;}
	.st65{fill:#DF9D27;}
	.st66{fill:#D3D9DD;}
	.st67{fill:none;stroke:#FFFFFF;stroke-width:2.5;stroke-linecap:round;stroke-linejoin:round;stroke-miterlimit:10;}
	.st68{fill:#FCD91A;}
	.st69{opacity:0.05;fill:#3F4347;}
	.st70{fill:#5F6469;}
	.st71{fill:#64696E;}
	.st72{fill:#939799;}
	.st73{fill:#6F7378;}
	.st74{fill:#D2D8DD;}
	.st75{fill:#4E99D2;}
	.st76{fill:#7B8B92;}
	.st77{fill:#38C0DC;}
	.st78{opacity:0.2;}
	.st79{fill:#FDE7AA;}
	.st80{fill:#FFDC96;}
	.st81{fill:#64892F;}
	.st82{fill:#E9B02C;}
</style>
<g>
	<path id="XMLID_2442_" class="st25" d="M29.658,24.21l-2.148-1.407c-0.617-4.516-0.617-9.09,0-13.606l2.148-1.407
		c0.283-0.185,0.363-0.567,0.177-0.851c-0.184-0.283-0.567-0.365-0.851-0.177L26.927,8.11c-1.513-0.726-3.057-1.38-4.688-2.063
		c-1.776-0.745-3.616-1.519-5.624-2.475V0.615C16.615,0.276,16.339,0,16,0c-0.339,0-0.615,0.276-0.615,0.615v2.957
		c-2.008,0.955-3.847,1.73-5.623,2.474C8.131,6.73,6.588,7.384,5.073,8.11L3.016,6.763C2.73,6.575,2.35,6.656,2.166,6.939
		C1.979,7.223,2.059,7.605,2.342,7.79l2.148,1.407c0.617,4.516,0.617,9.09,0,13.606L2.342,24.21
		c-0.283,0.185-0.363,0.567-0.177,0.851c0.184,0.282,0.566,0.364,0.851,0.177l2.057-1.347c1.517,0.728,3.064,1.384,4.701,2.069
		c1.772,0.743,3.608,1.516,5.611,2.47v2.956C15.385,31.724,15.661,32,16,32c0.339,0,0.615-0.276,0.615-0.615v-2.956
		c2.004-0.953,3.84-1.727,5.613-2.471c1.636-0.686,3.182-1.34,4.699-2.068l2.057,1.347c0.292,0.19,0.67,0.1,0.851-0.177
		C30.021,24.777,29.941,24.395,29.658,24.21z M26.161,21.92l-1.701-1.114c-0.428-3.192-0.428-6.421,0-9.613l1.701-1.114
		C25.707,14.015,25.707,17.985,26.161,21.92z M16.615,11.646c0.625,0.281,1.225,0.539,1.8,0.78c0.401,0.169,0.776,0.334,1.157,0.501
		l-2.957,1.937V11.646z M15.385,14.863l-2.957-1.937c0.38-0.166,0.755-0.332,1.157-0.501c0.576-0.241,1.176-0.499,1.8-0.78V14.863z
		 M14.879,16l-2.958,1.937c0.109-1.29,0.109-2.585,0-3.874L14.879,16z M15.385,17.137v3.218c-0.622-0.28-1.221-0.537-1.794-0.778
		c-0.404-0.169-0.781-0.336-1.164-0.504L15.385,17.137z M16.615,17.137l2.957,1.937c-0.382,0.167-0.759,0.335-1.163,0.504
		c-0.573,0.241-1.171,0.498-1.794,0.778V17.137z M17.121,16l2.958-1.937c-0.109,1.29-0.109,2.585,0,3.874L17.121,16z M20.794,12.126
		c-0.618-0.289-1.244-0.557-1.904-0.834c-0.721-0.302-1.473-0.624-2.275-1V8.285c1.22,0.562,2.368,1.054,3.469,1.516
		c0.889,0.372,1.736,0.734,2.565,1.11L20.794,12.126z M15.385,10.293c-0.802,0.376-1.554,0.698-2.275,1
		c-0.66,0.277-1.286,0.544-1.904,0.834l-1.856-1.215c0.83-0.376,1.677-0.738,2.565-1.11c1.101-0.462,2.25-0.954,3.469-1.516V10.293z
		 M10.593,13.194c0.242,1.864,0.242,3.749,0,5.613l-1.72,1.126c0.277-2.616,0.277-5.25,0-7.866L10.593,13.194z M11.207,19.873
		c0.62,0.291,1.247,0.56,1.91,0.838c0.719,0.301,1.47,0.622,2.269,0.997v2.007c-1.22-0.562-2.368-1.054-3.469-1.516
		c-0.889-0.372-1.736-0.734-2.565-1.11L11.207,19.873z M16.615,21.708c0.799-0.375,1.55-0.696,2.269-0.997
		c0.662-0.277,1.29-0.547,1.91-0.838l1.856,1.216c-0.83,0.376-1.677,0.738-2.565,1.11c-1.101,0.462-2.25,0.954-3.469,1.516V21.708z
		 M21.407,18.806c-0.242-1.864-0.242-3.749,0-5.613l1.72-1.126c-0.277,2.616-0.277,5.25,0,7.866L21.407,18.806z M21.764,7.18
		c1.374,0.575,2.679,1.131,3.954,1.721l-1.858,1.217c-1.067-0.508-2.154-0.97-3.301-1.452c-1.248-0.523-2.541-1.068-3.944-1.733
		V4.929C18.441,5.782,20.13,6.496,21.764,7.18z M10.238,7.179c1.633-0.684,3.322-1.397,5.148-2.25v2.004
		c-1.404,0.665-2.696,1.21-3.944,1.733C10.294,9.148,9.208,9.61,8.14,10.118L6.282,8.901C7.558,8.311,8.864,7.755,10.238,7.179z
		 M5.839,10.08l1.701,1.114c0.428,3.192,0.428,6.421,0,9.613L5.839,21.92C6.293,17.985,6.293,14.015,5.839,10.08z M10.249,24.826
		c-1.377-0.578-2.687-1.136-3.967-1.728l1.858-1.217c1.067,0.508,2.154,0.97,3.301,1.452c1.248,0.523,2.541,1.068,3.944,1.733v2.004
		C13.563,26.22,11.878,25.509,10.249,24.826z M21.753,24.826c-1.631,0.682-3.317,1.394-5.139,2.245v-2.004
		c1.404-0.665,2.696-1.21,3.944-1.733c1.147-0.482,2.233-0.943,3.301-1.452l1.859,1.217C24.439,23.69,23.131,24.248,21.753,24.826z"
		/>
</g>
</svg>
