<?xml version="1.0" encoding="utf-8"?>
<!-- Generator: Adobe Illustrator 21.1.0, SVG Export Plug-In . SVG Version: 6.00 Build 0)  -->
<svg version="1.1" id="Layer_1" xmlns="http://www.w3.org/2000/svg" xmlns:xlink="http://www.w3.org/1999/xlink" x="0px" y="0px"
	 viewBox="0 0 32 32" style="enable-background:new 0 0 32 32;" xml:space="preserve">
<style type="text/css">
	.st0{fill:#FFD83B;}
	.st1{fill:#F2F2F2;}
	.st2{fill:#F3C432;}
	.st3{fill:#DEE4E9;}
	.st4{fill:#E9EFF4;}
	.st5{fill:#6DAFDF;}
	.st6{fill:#5CA3D9;}
	.st7{fill:#4D98D2;}
	.st8{fill:#E8EFF3;}
	.st9{fill:#DDE3E9;}
	.st10{fill:#4CC6E5;}
	.st11{opacity:0.05;fill:#2F3133;}
	.st12{fill:#E14B4B;}
	.st13{fill:#D3D9DD;}
	.st14{fill:#65B1EF;}
	.st15{fill:#8CC63E;}
	.st16{fill:#E84D88;}
	.st17{fill:#A4856D;}
	.st18{fill:#8BC540;}
	.st19{fill:#7FB241;}
	.st20{fill:#8E6D53;}
	.st21{fill:#FFFFFF;}
	.st22{fill:#9A795F;}
	.st23{fill:#E24B4B;}
	.st24{fill:#F2992D;}
	.st25{fill:#DF8726;}
	.st26{fill:#997960;}
	.st27{fill:#FFD93B;}
	.st28{fill:#E8AF2A;}
	.st29{fill:#D23F77;}
	.st30{fill:#D03F3F;}
	.st31{fill:#BF3332;}
	.st32{fill:#D03F3E;}
	.st33{fill:#BF3333;}
	.st34{fill:#F4C534;}
	.st35{fill:#8F6D52;}
	.st36{fill:#E9B02C;}
	.st37{fill:#5A5F63;}
	.st38{fill:#F4F4F4;}
	.st39{fill:#E74C87;}
	.st40{fill:#D24078;}
	.st41{fill:#5B5F63;}
	.st42{fill:#3F4347;}
	.st43{fill:#719C40;}
	.st44{fill:#7B5C45;}
	.st45{fill:#BB3166;}
	.st46{fill:#89664C;}
	.st47{fill:#77589F;}
	.st48{fill:#8066AA;}
	.st49{fill:#8D7FB6;}
	.st50{fill:#88BA40;}
	.st51{fill:#FDE7AA;}
	.st52{fill:#7FB239;}
	.st53{fill:#45CBEA;}
	.st54{fill:#ACB9C1;}
	.st55{fill:#DAE5EF;}
	.st56{fill:#7CA740;}
	.st57{fill:#88BF40;}
	.st58{fill:#85BB40;}
	.st59{fill:#FFF100;}
	.st60{fill:#FFDD00;}
	.st61{fill:#F29A2E;}
	.st62{fill:#3E4347;}
	.st63{fill:#59A5E0;}
	.st64{fill:#2F3133;}
	.st65{fill:#EDEDEF;}
	.st66{fill:#4E99D2;}
	.st67{fill:#A5856D;}
</style>
<g id="XMLID_2104_">
	<circle id="XMLID_2187_" class="st41" cx="16" cy="16" r="16"/>
	<path id="XMLID_2186_" class="st21" d="M6.894,6.894c0-0.429-0.719-1.148-1.148-1.148c0.429,0,1.148-0.719,1.148-1.148
		c0,0.429,0.719,1.148,1.148,1.148C7.613,5.746,6.894,6.465,6.894,6.894z"/>
	<path id="XMLID_2185_" class="st21" d="M26.03,26.71c0-0.429-0.719-1.148-1.148-1.148c0.429,0,1.148-0.719,1.148-1.148
		c0,0.429,0.719,1.148,1.148,1.148C26.749,25.562,26.03,26.281,26.03,26.71z"/>
	<path id="XMLID_2184_" class="st21" d="M8.823,28.62c0-0.429-0.719-1.148-1.148-1.148c0.429,0,1.148-0.719,1.148-1.148
		c0,0.429,0.719,1.148,1.148,1.148C9.541,27.472,8.823,28.19,8.823,28.62z"/>
	<path id="XMLID_2183_" class="st21" d="M19.937,5.134c0-0.676-1.131-1.807-1.807-1.807c0.676,0,1.807-1.131,1.807-1.807
		c0,0.676,1.131,1.807,1.807,1.807C21.068,3.327,19.937,4.458,19.937,5.134z"/>
	<path id="XMLID_2182_" class="st21" d="M27.801,11.559c0-0.544-0.91-1.453-1.453-1.453c0.544,0,1.453-0.91,1.453-1.453
		c0,0.544,0.91,1.453,1.453,1.453C28.711,10.106,27.801,11.016,27.801,11.559z"/>
	<path id="XMLID_2174_" class="st21" d="M4.22,14.304c0-0.886-1.483-2.37-2.37-2.37c0.886,0,2.37-1.483,2.37-2.37
		c0,0.886,1.483,2.37,2.37,2.37C5.704,11.935,4.22,13.418,4.22,14.304z"/>
	<path id="XMLID_2139_" class="st0" d="M16,6.072c-3.768,0-7.006,2.123-8.687,5.216c0.766,1.408,1.24,2.997,1.24,4.712
		s-0.475,3.304-1.24,4.712c1.682,3.093,4.92,5.216,8.687,5.216c5.483,0,9.928-4.445,9.928-9.928S21.483,6.072,16,6.072z"/>
</g>
</svg>
