<?xml version="1.0" encoding="utf-8"?>
<!-- Generator: Adobe Illustrator 21.1.0, SVG Export Plug-In . SVG Version: 6.00 Build 0)  -->
<svg version="1.1" id="Layer_1" xmlns="http://www.w3.org/2000/svg" xmlns:xlink="http://www.w3.org/1999/xlink" x="0px" y="0px"
	 viewBox="0 0 32 32" style="enable-background:new 0 0 32 32;" xml:space="preserve">
<style type="text/css">
	.st0{fill:#FFD83B;}
	.st1{fill:#F2F2F2;}
	.st2{fill:#F3C432;}
	.st3{fill:#DEE4E9;}
	.st4{fill:#E9EFF4;}
	.st5{fill:#6DAFDF;}
	.st6{fill:#5CA3D9;}
	.st7{fill:#4D98D2;}
	.st8{fill:#E8EFF3;}
	.st9{fill:#DDE3E9;}
	.st10{fill:#4CC6E5;}
	.st11{opacity:0.05;fill:#2F3133;}
	.st12{fill:#E14B4B;}
	.st13{fill:#D3D9DD;}
	.st14{fill:#65B1EF;}
	.st15{fill:#8CC63E;}
	.st16{fill:#E84D88;}
	.st17{fill:#A4856D;}
	.st18{fill:#8BC540;}
	.st19{fill:#7FB241;}
	.st20{fill:#8E6D53;}
	.st21{fill:#FFFFFF;}
	.st22{fill:#9A795F;}
	.st23{fill:#E24B4B;}
	.st24{fill:#F2992D;}
	.st25{fill:#DF8726;}
	.st26{fill:#997960;}
	.st27{fill:#FFD93B;}
	.st28{fill:#E8AF2A;}
	.st29{fill:#D23F77;}
	.st30{fill:#D03F3F;}
	.st31{fill:#BF3332;}
	.st32{fill:#D03F3E;}
	.st33{fill:#BF3333;}
	.st34{fill:#F4C534;}
	.st35{fill:#8F6D52;}
	.st36{fill:#E9B02C;}
	.st37{fill:#5A5F63;}
	.st38{fill:#F4F4F4;}
	.st39{fill:#E74C87;}
	.st40{fill:#D24078;}
	.st41{fill:#5B5F63;}
	.st42{fill:#3F4347;}
	.st43{fill:#719C40;}
	.st44{fill:#7B5C45;}
	.st45{fill:#BB3166;}
	.st46{fill:#89664C;}
	.st47{fill:#77589F;}
	.st48{fill:#8066AA;}
	.st49{fill:#8D7FB6;}
	.st50{fill:#88BA40;}
	.st51{fill:#FDE7AA;}
	.st52{fill:#7FB239;}
	.st53{fill:#45CBEA;}
	.st54{fill:#ACB9C1;}
	.st55{fill:#DAE5EF;}
	.st56{fill:#7CA740;}
	.st57{fill:#88BF40;}
	.st58{fill:#85BB40;}
	.st59{fill:#FFF100;}
	.st60{fill:#FFDD00;}
	.st61{fill:#F29A2E;}
	.st62{fill:#3E4347;}
	.st63{fill:#59A5E0;}
	.st64{fill:#2F3133;}
	.st65{fill:#EDEDEF;}
	.st66{fill:#4E99D2;}
	.st67{fill:#A5856D;}
</style>
<path id="XMLID_1198_" class="st3" d="M31.191,15.27h-1.6l1.186-1.186c0.286-0.286,0.286-0.748,0-1.034
	c-0.286-0.286-0.748-0.286-1.034,0l-2.219,2.219h-2.246l1.186-1.186c0.286-0.286,0.286-0.748,0-1.034
	c-0.286-0.286-0.748-0.286-1.034,0l-2.219,2.219h-3.738c-0.092-0.437-0.267-0.843-0.504-1.205l2.647-2.647h3.138
	c0.404,0,0.731-0.327,0.731-0.731c0-0.404-0.327-0.731-0.731-0.731h-1.677l1.588-1.588h3.139c0.404,0,0.731-0.327,0.731-0.731
	c0-0.404-0.327-0.731-0.731-0.731h-1.677l1.132-1.132c0.286-0.286,0.286-0.748,0-1.034c-0.286-0.286-0.748-0.286-1.034,0
	l-1.131,1.131V4.196c0-0.404-0.327-0.731-0.731-0.731c-0.404,0-0.731,0.327-0.731,0.731v3.138l-1.588,1.588V7.246
	c0-0.404-0.327-0.731-0.731-0.731c-0.404,0-0.731,0.327-0.731,0.731v3.138l-2.647,2.647c-0.362-0.237-0.767-0.412-1.204-0.503V8.789
	L18.95,6.57c0.286-0.286,0.286-0.748,0-1.034c-0.286-0.286-0.748-0.286-1.034,0l-1.185,1.186V4.476l2.219-2.219
	c0.286-0.286,0.286-0.748,0-1.034c-0.286-0.286-0.748-0.286-1.034,0l-1.185,1.185v-1.6c0-0.404-0.327-0.731-0.731-0.731
	s-0.731,0.327-0.731,0.731v1.6l-1.185-1.185c-0.286-0.286-0.748-0.286-1.034,0s-0.286,0.748,0,1.034l2.219,2.219v2.246l-1.185-1.186
	c-0.286-0.286-0.748-0.286-1.034,0c-0.286,0.286-0.286,0.748,0,1.034l2.219,2.219v3.739c-0.437,0.092-0.842,0.267-1.204,0.503
	l-2.647-2.647V7.246c0-0.404-0.327-0.731-0.731-0.731c-0.404,0-0.731,0.327-0.731,0.731v1.676L8.368,7.334V4.196
	c0-0.404-0.327-0.731-0.731-0.731c-0.404,0-0.731,0.327-0.731,0.731v1.676L5.775,4.741c-0.286-0.286-0.748-0.286-1.034,0
	c-0.286,0.286-0.286,0.748,0,1.034l1.132,1.132H4.196c-0.404,0-0.731,0.327-0.731,0.731c0,0.404,0.327,0.731,0.731,0.731h3.138
	l1.588,1.588H7.246c-0.404,0-0.731,0.327-0.731,0.731c0,0.404,0.327,0.731,0.731,0.731h3.138l2.647,2.647
	c-0.237,0.362-0.412,0.768-0.504,1.205H8.789L6.57,13.05c-0.286-0.286-0.748-0.286-1.034,0c-0.286,0.286-0.286,0.748,0,1.034
	l1.185,1.186H4.476L2.257,13.05c-0.286-0.286-0.748-0.286-1.034,0s-0.286,0.748,0,1.034l1.186,1.186h-1.6
	c-0.404,0-0.731,0.327-0.731,0.731c0,0.404,0.327,0.731,0.731,0.731h1.6l-1.185,1.185c-0.286,0.286-0.286,0.748,0,1.034
	c0.286,0.286,0.748,0.286,1.034,0l2.219-2.219h2.246l-1.185,1.185c-0.286,0.286-0.286,0.748,0,1.034
	c0.286,0.286,0.748,0.286,1.034,0l2.219-2.219h3.739c0.092,0.437,0.267,0.842,0.503,1.204l-2.647,2.647H7.246
	c-0.404,0-0.731,0.327-0.731,0.731c0,0.404,0.327,0.731,0.731,0.731h1.676l-1.588,1.588H4.196c-0.404,0-0.731,0.327-0.731,0.731
	s0.327,0.731,0.731,0.731h1.676l-1.131,1.131c-0.286,0.286-0.286,0.748,0,1.034c0.286,0.286,0.748,0.286,1.034,0l1.131-1.131v1.676
	c0,0.404,0.327,0.731,0.731,0.731c0.404,0,0.731-0.327,0.731-0.731v-3.138l1.588-1.588v1.676c0,0.404,0.327,0.731,0.731,0.731
	c0.404,0,0.731-0.327,0.731-0.731v-3.138l2.646-2.646c0.362,0.237,0.768,0.412,1.205,0.504v3.739l-2.219,2.219
	c-0.286,0.286-0.286,0.748,0,1.034c0.286,0.286,0.748,0.286,1.034,0l1.185-1.185v2.246l-2.219,2.219
	c-0.286,0.286-0.286,0.748,0,1.034c0.286,0.286,0.748,0.286,1.034,0l1.185-1.185v1.599c0,0.404,0.327,0.731,0.731,0.731
	s0.731-0.327,0.731-0.731v-1.599l1.185,1.185c0.286,0.286,0.748,0.286,1.034,0c0.286-0.286,0.286-0.748,0-1.034l-2.219-2.219v-2.246
	l1.185,1.185c0.286,0.286,0.748,0.286,1.034,0c0.286-0.286,0.286-0.748,0-1.034l-2.219-2.219v-3.739
	c0.437-0.092,0.843-0.267,1.205-0.504l2.646,2.646v3.138c0,0.404,0.327,0.731,0.731,0.731c0.404,0,0.731-0.327,0.731-0.731v-1.676
	l1.588,1.588v3.138c0,0.404,0.327,0.731,0.731,0.731c0.404,0,0.731-0.327,0.731-0.731v-1.676l1.131,1.131
	c0.286,0.286,0.748,0.286,1.034,0c0.286-0.286,0.286-0.748,0-1.034l-1.131-1.131h1.676c0.404,0,0.731-0.327,0.731-0.731
	s-0.327-0.731-0.731-0.731h-3.138l-1.588-1.588h1.677c0.404,0,0.731-0.327,0.731-0.731c0-0.404-0.327-0.731-0.731-0.731h-3.138
	l-2.646-2.646c0.237-0.362,0.412-0.768,0.504-1.204h3.738l2.219,2.219c0.286,0.286,0.748,0.286,1.034,0
	c0.286-0.286,0.286-0.748,0-1.034l-1.185-1.185h2.246l2.219,2.219c0.286,0.286,0.748,0.286,1.034,0c0.286-0.286,0.286-0.748,0-1.034
	l-1.185-1.185h1.599c0.404,0,0.731-0.327,0.731-0.731C31.922,15.597,31.595,15.27,31.191,15.27z M16,18.089
	c-1.152,0-2.088-0.937-2.088-2.088c0-1.152,0.937-2.088,2.088-2.088s2.089,0.937,2.089,2.088C18.089,17.152,17.152,18.089,16,18.089
	z"/>
</svg>
