<?xml version="1.0" encoding="utf-8"?>
<!-- Generator: Adobe Illustrator 21.1.0, SVG Export Plug-In . SVG Version: 6.00 Build 0)  -->
<svg version="1.1" id="Layer_1" xmlns="http://www.w3.org/2000/svg" xmlns:xlink="http://www.w3.org/1999/xlink" x="0px" y="0px"
	 viewBox="0 0 32 32" style="enable-background:new 0 0 32 32;" xml:space="preserve">
<style type="text/css">
	.st0{fill:#FFD83B;}
	.st1{fill:#F2F2F2;}
	.st2{fill:#F3C432;}
	.st3{fill:#DEE4E9;}
	.st4{fill:#E9EFF4;}
	.st5{fill:#6DAFDF;}
	.st6{fill:#5CA3D9;}
	.st7{fill:#4D98D2;}
	.st8{fill:#E8EFF3;}
	.st9{fill:#DDE3E9;}
	.st10{fill:#4CC6E5;}
	.st11{opacity:0.05;fill:#2F3133;}
	.st12{fill:#E14B4B;}
	.st13{fill:#D3D9DD;}
	.st14{fill:#65B1EF;}
	.st15{fill:#8CC63E;}
	.st16{fill:#E84D88;}
	.st17{fill:#A4856D;}
	.st18{fill:#8BC540;}
	.st19{fill:#7FB241;}
	.st20{fill:#8E6D53;}
	.st21{fill:#FFFFFF;}
	.st22{fill:#9A795F;}
	.st23{fill:#E24B4B;}
	.st24{fill:#F2992D;}
	.st25{fill:#DF8726;}
	.st26{fill:#997960;}
	.st27{fill:#FFD93B;}
	.st28{fill:#E8AF2A;}
	.st29{fill:#D23F77;}
	.st30{fill:#D03F3F;}
	.st31{fill:#BF3332;}
	.st32{fill:#D03F3E;}
	.st33{fill:#BF3333;}
	.st34{fill:#F4C534;}
	.st35{fill:#8F6D52;}
	.st36{fill:#E9B02C;}
	.st37{fill:#5A5F63;}
	.st38{fill:#F4F4F4;}
	.st39{fill:#E74C87;}
	.st40{fill:#D24078;}
	.st41{fill:#5B5F63;}
	.st42{fill:#3F4347;}
	.st43{fill:#719C40;}
	.st44{fill:#7B5C45;}
	.st45{fill:#BB3166;}
	.st46{fill:#89664C;}
	.st47{fill:#77589F;}
	.st48{fill:#8066AA;}
	.st49{fill:#8D7FB6;}
	.st50{fill:#88BA40;}
	.st51{fill:#FDE7AA;}
	.st52{fill:#7FB239;}
	.st53{fill:#45CBEA;}
	.st54{fill:#ACB9C1;}
	.st55{fill:#DAE5EF;}
	.st56{fill:#7CA740;}
	.st57{fill:#88BF40;}
	.st58{fill:#85BB40;}
	.st59{fill:#FFF100;}
	.st60{fill:#FFDD00;}
	.st61{fill:#F29A2E;}
	.st62{fill:#3E4347;}
	.st63{fill:#59A5E0;}
	.st64{fill:#2F3133;}
	.st65{fill:#EDEDEF;}
	.st66{fill:#4E99D2;}
	.st67{fill:#A5856D;}
</style>
<g id="XMLID_385_">
	<polygon id="XMLID_674_" class="st2" points="32,16 28.259,18.8 30.418,22.945 25.83,23.838 25.976,28.51 21.455,27.33 
		19.56,31.602 16,28.571 12.44,31.602 10.545,27.33 6.023,28.509 6.17,23.837 1.582,22.944 3.741,18.8 0,16 3.741,13.2 1.582,9.055 
		6.17,8.162 6.024,3.49 10.545,4.67 12.44,0.398 16,3.429 19.56,0.398 21.455,4.67 25.977,3.491 25.83,8.163 30.418,9.056 
		28.259,13.2 	"/>
	<circle id="XMLID_673_" class="st0" cx="16" cy="16" r="10.232"/>
	<path id="XMLID_402_" class="st21" d="M8.753,13.707c0,1.532,1.239,2.771,2.771,2.771c1.166,0,2.155-0.711,2.566-1.73
		c-0.79-1.284-1.754-2.173-3.167-2.866c-0.007,0-0.022-0.007-0.029-0.007c-0.264-0.101-0.466-0.234-1.026-0.374
		C9.193,11.998,8.753,12.798,8.753,13.707z"/>
	<path class="st42" d="M14.543,15.56c-0.216-0.371-0.749-1.369-1.08-1.7c-0.08,1.01-0.91,1.8-1.94,1.8c-1.08,0-1.94-0.88-1.94-1.95
		c0-0.85,0.54-1.58,1.31-1.84c-1.996-0.699-0.181-0.197-2.39-0.67C11.291,9.804,14.988,12.441,14.543,15.56z"/>
	<path id="XMLID_408_" class="st21" d="M23.247,14.166c0,1.532-1.239,2.771-2.771,2.771c-1.166,0-2.155-0.711-2.566-1.73
		c0.849-1.38,1.886-2.238,3.167-2.866c0.007,0,0.022-0.007,0.029-0.007c0.264-0.101,0.466-0.234,1.026-0.374
		C22.807,12.458,23.247,13.257,23.247,14.166z"/>
	<path class="st42" d="M21.103,12.33c0.77,0.26,1.32,0.99,1.32,1.84c0,1.07-0.87,1.95-1.95,1.95c-1.02,0-1.85-0.8-1.93-1.8
		c-0.263,0.197-0.928,1.423-1.09,1.7c-0.428-2.993,3.17-5.795,6.04-4.36C22.444,11.902,23.421,11.519,21.103,12.33z"/>
	<g>
		<path id="XMLID_386_" class="st42" d="M12.091,21.721c0.741-1.551,2.188-2.158,3.909-2.286c1.692,0.117,3.21,0.764,3.909,2.286
			c-1-0.368-2.141-0.976-3.909-0.952C14.17,20.742,13.091,21.362,12.091,21.721z"/>
	</g>
</g>
</svg>
