<?xml version="1.0" encoding="utf-8"?>
<!-- Generator: Adobe Illustrator 21.1.0, SVG Export Plug-In . SVG Version: 6.00 Build 0)  -->
<svg version="1.1" id="Layer_1" xmlns="http://www.w3.org/2000/svg" xmlns:xlink="http://www.w3.org/1999/xlink" x="0px" y="0px"
	 viewBox="0 0 32 32" style="enable-background:new 0 0 32 32;" xml:space="preserve">
<style type="text/css">
	.st0{fill:#FFD83B;}
	.st1{fill:#F2F2F2;}
	.st2{fill:#F3C432;}
	.st3{fill:#DEE4E9;}
	.st4{fill:#E9EFF4;}
	.st5{fill:#6DAFDF;}
	.st6{fill:#5CA3D9;}
	.st7{fill:#4D98D2;}
	.st8{fill:#E8EFF3;}
	.st9{fill:#DDE3E9;}
	.st10{fill:#4CC6E5;}
	.st11{opacity:0.05;fill:#2F3133;}
	.st12{fill:#E14B4B;}
	.st13{fill:#D3D9DD;}
	.st14{fill:#65B1EF;}
	.st15{fill:#8CC63E;}
	.st16{fill:#E84D88;}
	.st17{fill:#A4856D;}
	.st18{fill:#8BC540;}
	.st19{fill:#7FB241;}
	.st20{fill:#8E6D53;}
	.st21{fill:#FFFFFF;}
	.st22{fill:#9A795F;}
	.st23{fill:#E24B4B;}
	.st24{fill:#F2992D;}
	.st25{fill:#DF8726;}
	.st26{fill:#997960;}
	.st27{fill:#FFD93B;}
	.st28{fill:#E8AF2A;}
	.st29{fill:#D23F77;}
	.st30{fill:#D03F3F;}
	.st31{fill:#BF3332;}
	.st32{fill:#D03F3E;}
	.st33{fill:#BF3333;}
	.st34{fill:#F4C534;}
	.st35{fill:#8F6D52;}
	.st36{fill:#E9B02C;}
	.st37{fill:#5A5F63;}
	.st38{fill:#F4F4F4;}
	.st39{fill:#E74C87;}
	.st40{fill:#D24078;}
	.st41{fill:#5B5F63;}
	.st42{fill:#3F4347;}
	.st43{fill:#719C40;}
	.st44{fill:#7B5C45;}
	.st45{fill:#BB3166;}
	.st46{fill:#89664C;}
	.st47{fill:#77589F;}
	.st48{fill:#8066AA;}
	.st49{fill:#8D7FB6;}
	.st50{fill:#88BA40;}
	.st51{fill:#FDE7AA;}
	.st52{fill:#7FB239;}
	.st53{fill:#45CBEA;}
	.st54{fill:#ACB9C1;}
	.st55{fill:#DAE5EF;}
	.st56{fill:#7CA740;}
	.st57{fill:#88BF40;}
	.st58{fill:#85BB40;}
	.st59{fill:#FFF100;}
	.st60{fill:#FFDD00;}
	.st61{fill:#F29A2E;}
	.st62{fill:#3E4347;}
	.st63{fill:#59A5E0;}
	.st64{fill:#2F3133;}
	.st65{fill:#EDEDEF;}
	.st66{fill:#4E99D2;}
	.st67{fill:#A5856D;}
</style>
<g id="XMLID_44_">
	<circle id="XMLID_736_" class="st0" cx="12.591" cy="14.195" r="12.441"/>
	<path id="XMLID_434_" class="st65" d="M29.829,10.158H26.83c-0.316,0-0.573-0.256-0.573-0.573v0c0-0.316,0.256-0.573,0.573-0.573
		h0.243c1.1,0,2.054-0.818,2.161-1.913c0.122-1.26-0.876-2.331-2.112-2.331l-11.2,0c-1.1,0-2.055,0.818-2.161,1.913
		c-0.122,1.26,0.876,2.331,2.112,2.331h7.172c0.316,0,0.573,0.256,0.573,0.573v0c0,0.316-0.256,0.573-0.573,0.573h-0.029
		c-1.1,0-2.055,0.818-2.161,1.913c-0.122,1.26,0.876,2.331,2.112,2.331h6.912c1.236,0,2.234-1.071,2.112-2.331
		C31.884,10.976,30.929,10.158,29.829,10.158z"/>
	<path id="XMLID_57_" class="st65" d="M16.079,26.002l-2.999,0c-0.316,0-0.573-0.256-0.573-0.573v0c0-0.316,0.256-0.573,0.573-0.573
		h0.243c1.1,0,2.054-0.818,2.161-1.913c0.122-1.26-0.876-2.331-2.112-2.331h-11.2c-1.1,0-2.055,0.818-2.161,1.913
		c-0.122,1.26,0.876,2.331,2.112,2.331h7.172c0.316,0,0.573,0.256,0.573,0.573v0c0,0.316-0.256,0.573-0.573,0.573H9.265
		c-1.1,0-2.055,0.818-2.161,1.913c-0.122,1.26,0.876,2.331,2.112,2.331h6.912c1.236,0,2.234-1.071,2.112-2.331
		C18.133,26.82,17.179,26.002,16.079,26.002z"/>
</g>
</svg>
