<?xml version="1.0" encoding="utf-8"?>
<!-- Generator: Adobe Illustrator 21.1.0, SVG Export Plug-In . SVG Version: 6.00 Build 0)  -->
<svg version="1.1" id="Layer_1" xmlns="http://www.w3.org/2000/svg" xmlns:xlink="http://www.w3.org/1999/xlink" x="0px" y="0px"
	 viewBox="0 0 32 32" style="enable-background:new 0 0 32 32;" xml:space="preserve">
<style type="text/css">
	.st0{fill:#FFD83B;}
	.st1{fill:#E9EFF4;}
	.st2{fill:#DEE4E9;}
	.st3{fill:#6DAFDF;}
</style>
<g id="XMLID_1053_">
	<path id="XMLID_1064_" class="st0" d="M16.974,21.672c1.671-2.284,3.313-4.589,4.96-6.891l-1.513-1.275
		c-4.783,4.858-7.072,7.146-11.418,11.832c2.231-0.064,3.171-0.085,6.126-0.213c-1.473,2.235-2.925,4.485-4.314,6.781
		c2.377-1.874,6.408-5.229,11.827-10.071C19.741,21.734,20.022,21.74,16.974,21.672z"/>
	<g id="XMLID_1059_">
		<path id="XMLID_1063_" class="st1" d="M25.114,6.339c-1.421-3.654-4.963-6.246-9.119-6.246S8.297,2.686,6.876,6.339
			c-3.834-0.115-6.876,2.956-6.876,6.663c0,3.685,2.988,6.673,6.673,6.673c1.582,0,3.032-0.553,4.176-1.472
			c3.166,1.964,7.121,1.966,10.291,0c1.143,0.92,2.595,1.472,4.176,1.472c3.685,0,6.673-2.988,6.673-6.673
			C31.99,9.293,28.946,6.224,25.114,6.339z"/>
		<path id="XMLID_1062_" class="st2" d="M11.502,7.687c-1.235-1.305-2.783-2-4.231-2.174C7.138,5.778,6.996,6.038,6.886,6.318
			c1.647,0.014,3.055,0.551,4.311,1.673c1.435,1.353,1.949,2.835,2.107,4.566C13.287,10.684,12.812,9.14,11.502,7.687z"/>
		<path id="XMLID_1061_" class="st2" d="M18.644,13.003c-0.126-2.625,1.001-4.657,2.829-5.908c2.243-1.55,5.346-1.618,7.689-0.001
			c1.782,1.217,2.96,3.226,2.828,5.909c-0.219-2.174-1.258-3.963-3.244-5.272c-2.026-1.295-4.87-1.273-6.86-0.001
			C19.937,9.016,18.862,10.789,18.644,13.003z"/>
	</g>
	<path id="XMLID_1082_" class="st3" d="M25.317,23.239c0.011,0.611,0.515,1.098,1.126,1.087c0.611-0.011,1.098-0.515,1.087-1.126
		c-0.011-0.611-1.149-2.32-1.149-2.32S25.306,22.628,25.317,23.239z"/>
	<path id="XMLID_1085_" class="st3" d="M3.965,23.239c0.011,0.611,0.515,1.098,1.126,1.087c0.611-0.011,1.098-0.515,1.087-1.126
		c-0.011-0.611-1.149-2.32-1.149-2.32S3.954,22.628,3.965,23.239z"/>
	<path id="XMLID_1087_" class="st3" d="M20.129,28.155c0.011,0.611,0.515,1.098,1.126,1.087c0.611-0.011,1.098-0.515,1.087-1.126
		c-0.011-0.611-1.149-2.32-1.149-2.32S20.118,27.544,20.129,28.155z"/>
	<path id="XMLID_1089_" class="st3" d="M6.886,28.195c0.011,0.611,0.515,1.098,1.126,1.087c0.611-0.011,1.098-0.515,1.087-1.126
		c-0.011-0.611-1.149-2.32-1.149-2.32S6.875,27.583,6.886,28.195z"/>
</g>
</svg>
