<?xml version="1.0" encoding="utf-8"?>
<!-- Generator: Adobe Illustrator 21.1.0, SVG Export Plug-In . SVG Version: 6.00 Build 0)  -->
<svg version="1.1" id="Layer_1" xmlns="http://www.w3.org/2000/svg" xmlns:xlink="http://www.w3.org/1999/xlink" x="0px" y="0px"
	 viewBox="0 0 32 32" style="enable-background:new 0 0 32 32;" xml:space="preserve">
<style type="text/css">
	.st0{fill:#FFD83B;}
	.st1{fill:#F2F2F2;}
	.st2{fill:#F3C432;}
	.st3{fill:#DEE4E9;}
	.st4{fill:#E9EFF4;}
	.st5{fill:#6DAFDF;}
	.st6{fill:#5CA3D9;}
	.st7{fill:#4D98D2;}
	.st8{fill:#E8EFF3;}
	.st9{fill:#DDE3E9;}
	.st10{fill:#4CC6E5;}
	.st11{opacity:0.05;fill:#2F3133;}
	.st12{fill:#E14B4B;}
	.st13{fill:#D3D9DD;}
	.st14{fill:#65B1EF;}
	.st15{fill:#8CC63E;}
	.st16{fill:#E84D88;}
	.st17{fill:#A4856D;}
	.st18{fill:#8BC540;}
	.st19{fill:#7FB241;}
	.st20{fill:#8E6D53;}
	.st21{fill:#FFFFFF;}
	.st22{fill:#9A795F;}
	.st23{fill:#E24B4B;}
	.st24{fill:#F2992D;}
	.st25{fill:#DF8726;}
	.st26{fill:#997960;}
	.st27{fill:#FFD93B;}
	.st28{fill:#E8AF2A;}
	.st29{fill:#D23F77;}
	.st30{fill:#D03F3F;}
	.st31{fill:#BF3332;}
	.st32{fill:#D03F3E;}
	.st33{fill:#BF3333;}
	.st34{fill:#F4C534;}
	.st35{fill:#8F6D52;}
	.st36{fill:#E9B02C;}
	.st37{fill:#5A5F63;}
	.st38{fill:#F4F4F4;}
	.st39{fill:#E74C87;}
	.st40{fill:#D24078;}
	.st41{fill:#5B5F63;}
	.st42{fill:#3F4347;}
	.st43{fill:#719C40;}
	.st44{fill:#7B5C45;}
	.st45{fill:#BB3166;}
	.st46{fill:#89664C;}
	.st47{fill:#77589F;}
	.st48{fill:#8066AA;}
	.st49{fill:#8D7FB6;}
	.st50{fill:#88BA40;}
	.st51{fill:#FDE7AA;}
	.st52{fill:#7FB239;}
	.st53{fill:#45CBEA;}
	.st54{fill:#ACB9C1;}
	.st55{fill:#DAE5EF;}
	.st56{fill:#7CA740;}
	.st57{fill:#88BF40;}
	.st58{fill:#85BB40;}
	.st59{fill:#FFF100;}
	.st60{fill:#FFDD00;}
	.st61{fill:#F29A2E;}
	.st62{fill:#3E4347;}
	.st63{fill:#59A5E0;}
	.st64{fill:#2F3133;}
	.st65{fill:#EDEDEF;}
	.st66{fill:#4E99D2;}
	.st67{fill:#A5856D;}
</style>
<g>
	<g id="XMLID_1049_">
		<g id="XMLID_1050_">
			<path id="XMLID_1054_" class="st42" d="M16,0v32c8.837,0,16-7.163,16-16S24.837,0,16,0z"/>
			<path id="XMLID_1051_" class="st66" d="M16,0v32C7.163,32,0,24.837,0,16S7.163,0,16,0z"/>
		</g>
		<g id="XMLID_1055_">
			<path id="XMLID_1217_" class="st2" d="M6.463,16.001c0-5.267,4.27-9.537,9.537-9.537V1.978l-0.002-0.002l-2.452,3.281
				L9.913,3.368L9.128,7.388L5.033,7.257L6.07,11.22l-3.743,1.664l2.651,3.121l-2.653,3.121l3.746,1.657l-1.036,3.963l4.094-0.126
				l0.787,4.02l3.633-1.896L16,30.025v-4.486C10.733,25.539,6.463,21.269,6.463,16.001z"/>
			<g>
				<path id="XMLID_1232_" class="st2" d="M6.463,16.001c0,5.267,4.27,9.537,9.537,9.537V6.464
					C10.733,6.464,6.463,10.734,6.463,16.001z"/>
			</g>
		</g>
	</g>
	<g>
		<g>
			<path id="XMLID_650_" class="st0" d="M8.245,16.001c0,4.283,3.472,7.755,7.755,7.755V8.246
				C11.717,8.246,8.245,11.718,8.245,16.001z"/>
		</g>
		<g>
			<path id="XMLID_1225_" class="st21" d="M23.755,16.001c0,4.283-3.472,7.755-7.755,7.755V8.246
				C20.283,8.246,23.755,11.718,23.755,16.001z"/>
		</g>
		<g id="XMLID_1056_">
			<circle id="XMLID_1102_" class="st9" cx="17.943" cy="19.192" r="1.372"/>
			<circle id="XMLID_1113_" class="st9" cx="18.917" cy="12.537" r="1.099"/>
			<circle id="XMLID_1112_" class="st9" cx="21.531" cy="16.978" r="0.842"/>
		</g>
	</g>
</g>
</svg>
