<?xml version="1.0" encoding="utf-8"?>
<!-- Generator: Adobe Illustrator 21.1.0, SVG Export Plug-In . SVG Version: 6.00 Build 0)  -->
<svg version="1.1" id="Layer_1" xmlns="http://www.w3.org/2000/svg" xmlns:xlink="http://www.w3.org/1999/xlink" x="0px" y="0px"
	 viewBox="0 0 32 32" style="enable-background:new 0 0 32 32;" xml:space="preserve">
<style type="text/css">
	.st0{fill:#FFD83B;}
	.st1{fill:#F2F2F2;}
	.st2{fill:#F3C432;}
	.st3{fill:#DEE4E9;}
	.st4{fill:#E9EFF4;}
	.st5{fill:#6DAFDF;}
	.st6{fill:#5CA3D9;}
	.st7{fill:#4D98D2;}
	.st8{fill:#E8EFF3;}
	.st9{fill:#DDE3E9;}
	.st10{fill:#4CC6E5;}
	.st11{opacity:0.05;fill:#2F3133;}
	.st12{fill:#E14B4B;}
	.st13{fill:#D3D9DD;}
	.st14{fill:#65B1EF;}
	.st15{fill:#8CC63E;}
	.st16{fill:#E84D88;}
	.st17{fill:#A4856D;}
	.st18{fill:#8BC540;}
	.st19{fill:#7FB241;}
	.st20{fill:#8E6D53;}
	.st21{fill:#FFFFFF;}
	.st22{fill:#9A795F;}
	.st23{fill:#E24B4B;}
	.st24{fill:#F2992D;}
	.st25{fill:#DF8726;}
	.st26{fill:#997960;}
	.st27{fill:#FFD93B;}
	.st28{fill:#E8AF2A;}
	.st29{fill:#D23F77;}
	.st30{fill:#D03F3F;}
	.st31{fill:#BF3332;}
	.st32{fill:#D03F3E;}
	.st33{fill:#BF3333;}
	.st34{fill:#F4C534;}
	.st35{fill:#8F6D52;}
	.st36{fill:#E9B02C;}
	.st37{fill:#5A5F63;}
	.st38{fill:#F4F4F4;}
	.st39{fill:#E74C87;}
	.st40{fill:#D24078;}
	.st41{fill:#5B5F63;}
	.st42{fill:#3F4347;}
	.st43{fill:#719C40;}
	.st44{fill:#7B5C45;}
	.st45{fill:#BB3166;}
	.st46{fill:#89664C;}
	.st47{fill:#77589F;}
	.st48{fill:#8066AA;}
	.st49{fill:#8D7FB6;}
	.st50{fill:#88BA40;}
	.st51{fill:#FDE7AA;}
	.st52{fill:#7FB239;}
	.st53{fill:#45CBEA;}
	.st54{fill:#ACB9C1;}
	.st55{fill:#DAE5EF;}
	.st56{fill:#7CA740;}
	.st57{fill:#88BF40;}
	.st58{fill:#85BB40;}
	.st59{fill:#FFF100;}
	.st60{fill:#FFDD00;}
	.st61{fill:#F29A2E;}
	.st62{fill:#3E4347;}
	.st63{fill:#59A5E0;}
	.st64{fill:#2F3133;}
	.st65{fill:#EDEDEF;}
	.st66{fill:#4E99D2;}
	.st67{fill:#A5856D;}
</style>
<g id="XMLID_1311_">
	<path id="XMLID_1288_" class="st0" d="M14.852,32.023c0-4.8-8.034-12.834-12.834-12.834c4.8,0,12.834-8.034,12.834-12.834
		c0,4.8,8.034,12.834,12.834,12.834C22.886,19.189,14.852,27.223,14.852,32.023z"/>
	<path id="XMLID_1308_" class="st2" d="M14.852,24.244c0-1.89-3.165-5.055-5.055-5.055c1.89,0,5.055-3.165,5.055-5.055
		c0,1.89,3.165,5.055,5.055,5.055C18.016,19.189,14.852,22.353,14.852,24.244z"/>
	<path id="XMLID_1307_" class="st0" d="M23.8,14.134c0-2.312-3.87-6.182-6.182-6.182c2.312,0,6.182-3.87,6.182-6.182
		c0,2.312,3.87,6.182,6.182,6.182C27.67,7.952,23.8,11.822,23.8,14.134z"/>
	<path id="XMLID_1310_" class="st0" d="M5.788,31.562c0-1.191-1.993-3.184-3.184-3.184c1.191,0,3.184-1.993,3.184-3.184
		c0,1.191,1.993,3.184,3.184,3.184C7.781,28.379,5.788,30.372,5.788,31.562z"/>
	<path id="XMLID_1309_" class="st0" d="M9.895,8.815c0-1.653-2.766-4.419-4.419-4.419c1.653,0,4.419-2.766,4.419-4.419
		c0,1.653,2.766,4.419,4.419,4.419C12.661,4.396,9.895,7.162,9.895,8.815z"/>
</g>
</svg>
