<?xml version="1.0" encoding="utf-8"?>
<!-- Generator: Adobe Illustrator 21.1.0, SVG Export Plug-In . SVG Version: 6.00 Build 0)  -->
<svg version="1.1" id="Layer_1" xmlns="http://www.w3.org/2000/svg" xmlns:xlink="http://www.w3.org/1999/xlink" x="0px" y="0px"
	 viewBox="0 0 32 32" style="enable-background:new 0 0 32 32;" xml:space="preserve">
<style type="text/css">
	.st0{fill:#FFD83B;}
	.st1{fill:#F2F2F2;}
	.st2{fill:#F3C432;}
	.st3{fill:#DEE4E9;}
	.st4{fill:#E9EFF4;}
	.st5{fill:#6DAFDF;}
	.st6{fill:#5CA3D9;}
	.st7{fill:#4D98D2;}
	.st8{fill:#E8EFF3;}
	.st9{fill:#DDE3E9;}
	.st10{fill:#4CC6E5;}
	.st11{opacity:0.05;fill:#2F3133;}
	.st12{fill:#E14B4B;}
	.st13{fill:#D3D9DD;}
	.st14{fill:#65B1EF;}
	.st15{fill:#8CC63E;}
	.st16{fill:#E84D88;}
	.st17{fill:#A4856D;}
	.st18{fill:#8BC540;}
	.st19{fill:#7FB241;}
	.st20{fill:#8E6D53;}
	.st21{fill:#FFFFFF;}
	.st22{fill:#9A795F;}
	.st23{fill:#E24B4B;}
	.st24{fill:#F2992D;}
	.st25{fill:#DF8726;}
	.st26{fill:#997960;}
	.st27{fill:#FFD93B;}
	.st28{fill:#E8AF2A;}
	.st29{fill:#D23F77;}
	.st30{fill:#D03F3F;}
	.st31{fill:#BF3332;}
	.st32{fill:#D03F3E;}
	.st33{fill:#BF3333;}
	.st34{fill:#F4C534;}
	.st35{fill:#8F6D52;}
	.st36{fill:#E9B02C;}
	.st37{fill:#5A5F63;}
	.st38{fill:#F4F4F4;}
	.st39{fill:#E74C87;}
	.st40{fill:#D24078;}
	.st41{fill:#5B5F63;}
	.st42{fill:#3F4347;}
	.st43{fill:#719C40;}
	.st44{fill:#7B5C45;}
	.st45{fill:#BB3166;}
	.st46{fill:#89664C;}
	.st47{fill:#77589F;}
	.st48{fill:#8066AA;}
	.st49{fill:#8D7FB6;}
	.st50{fill:#88BA40;}
	.st51{fill:#FDE7AA;}
	.st52{fill:#7FB239;}
	.st53{fill:#45CBEA;}
	.st54{fill:#ACB9C1;}
	.st55{fill:#DAE5EF;}
	.st56{fill:#7CA740;}
	.st57{fill:#88BF40;}
	.st58{fill:#85BB40;}
	.st59{fill:#FFF100;}
	.st60{fill:#FFDD00;}
	.st61{fill:#F29A2E;}
	.st62{fill:#3E4347;}
	.st63{fill:#59A5E0;}
	.st64{fill:#2F3133;}
	.st65{fill:#EDEDEF;}
	.st66{fill:#4E99D2;}
	.st67{fill:#A5856D;}
</style>
<g id="XMLID_2196_">
	<g id="XMLID_2190_">
		<g>
			<path id="XMLID_2191_" class="st14" d="M26.551,8.098C28.1,7.165,29.922,6.415,32,5.972C19.802,3.72,9.736,12.6,9.28,23.097
				c2.248-10.466,12.979-15.169,21.062-11.472C29.33,10.276,28.05,9.073,26.551,8.098z"/>
		</g>
		<path id="XMLID_2209_" class="st15" d="M20.794,5.967c-1.221,0.065-2.452,0.25-3.674,0.558c0.246-0.838,0.548-1.683,0.908-2.528
			c-5.13,3.926-7.937,9.415-8.41,14.658C11.094,13.174,15.144,8.411,20.794,5.967z"/>
		<path id="XMLID_2211_" class="st16" d="M11.068,19.257c3.066-3.721,7.372-5.108,10.869-4.624
			c-0.523-0.493-1.089-0.949-1.693-1.364c0.605-0.602,1.285-1.167,2.037-1.677C17.92,12.07,13.549,14.718,11.068,19.257z"/>
	</g>
	<g id="XMLID_2092_">
		<polygon id="XMLID_2189_" class="st0" points="10.607,7.825 7.33,14.467 0,15.532 5.304,20.702 4.052,28.002 10.607,24.555 
			17.163,28.002 15.911,20.702 21.215,15.532 13.885,14.467 		"/>
		<polygon id="XMLID_2188_" class="st2" points="10.607,7.825 10.607,18.446 7.245,14.551 		"/>
		<polygon id="XMLID_2173_" class="st2" points="10.607,18.446 5.304,20.702 0,15.532 		"/>
		<polygon id="XMLID_2164_" class="st2" points="10.607,18.446 10.607,24.555 4.052,28.002 		"/>
		<polygon id="XMLID_2094_" class="st2" points="10.607,18.446 15.911,20.702 17.163,28.002 		"/>
		<polygon id="XMLID_2093_" class="st2" points="10.607,18.446 13.885,14.467 21.215,15.532 		"/>
	</g>
</g>
</svg>
