<?xml version="1.0" encoding="utf-8"?>
<!-- Generator: Adobe Illustrator 21.1.0, SVG Export Plug-In . SVG Version: 6.00 Build 0)  -->
<svg version="1.1" id="Layer_1" xmlns="http://www.w3.org/2000/svg" xmlns:xlink="http://www.w3.org/1999/xlink" x="0px" y="0px"
	 viewBox="0 0 32 32" style="enable-background:new 0 0 32 32;" xml:space="preserve">
<style type="text/css">
	.st0{fill:#FFD83B;}
	.st1{fill:#F2F2F2;}
	.st2{fill:#F3C432;}
	.st3{fill:#DEE4E9;}
	.st4{fill:#E9EFF4;}
	.st5{fill:#6DAFDF;}
	.st6{fill:#5CA3D9;}
	.st7{fill:#4D98D2;}
	.st8{fill:#E8EFF3;}
	.st9{fill:#DDE3E9;}
	.st10{fill:#4CC6E5;}
	.st11{opacity:0.05;fill:#2F3133;}
	.st12{fill:#E14B4B;}
	.st13{fill:#D3D9DD;}
	.st14{fill:#65B1EF;}
	.st15{fill:#8CC63E;}
	.st16{fill:#E84D88;}
	.st17{fill:#A4856D;}
	.st18{fill:#8BC540;}
	.st19{fill:#7FB241;}
	.st20{fill:#8E6D53;}
	.st21{fill:#FFFFFF;}
	.st22{fill:#9A795F;}
	.st23{fill:#E24B4B;}
	.st24{fill:#F2992D;}
	.st25{fill:#DF8726;}
	.st26{fill:#997960;}
	.st27{fill:#FFD93B;}
	.st28{fill:#E8AF2A;}
	.st29{fill:#D23F77;}
	.st30{fill:#D03F3F;}
	.st31{fill:#BF3332;}
	.st32{fill:#D03F3E;}
	.st33{fill:#BF3333;}
	.st34{fill:#F4C534;}
	.st35{fill:#8F6D52;}
	.st36{fill:#E9B02C;}
	.st37{fill:#5A5F63;}
	.st38{fill:#F4F4F4;}
	.st39{fill:#E74C87;}
	.st40{fill:#D24078;}
	.st41{fill:#5B5F63;}
	.st42{fill:#3F4347;}
	.st43{fill:#719C40;}
	.st44{fill:#7B5C45;}
	.st45{fill:#BB3166;}
	.st46{fill:#89664C;}
	.st47{fill:#77589F;}
	.st48{fill:#8066AA;}
	.st49{fill:#8D7FB6;}
	.st50{fill:#88BA40;}
	.st51{fill:#FDE7AA;}
	.st52{fill:#7FB239;}
	.st53{fill:#45CBEA;}
	.st54{fill:#ACB9C1;}
	.st55{fill:#DAE5EF;}
	.st56{fill:#7CA740;}
	.st57{fill:#88BF40;}
	.st58{fill:#85BB40;}
	.st59{fill:#FFF100;}
	.st60{fill:#FFDD00;}
	.st61{fill:#F29A2E;}
	.st62{fill:#3E4347;}
	.st63{fill:#59A5E0;}
	.st64{fill:#2F3133;}
	.st65{fill:#EDEDEF;}
	.st66{fill:#4E99D2;}
	.st67{fill:#A5856D;}
</style>
<g id="XMLID_5267_">
	<g id="XMLID_5225_">
		<path id="XMLID_5237_" class="st19" d="M27.342,30.383l0.637,0.077c-0.081-0.565,0.242-1.574,0.242-1.574
			C27.841,29.129,27.447,30.108,27.342,30.383z"/>
		<path id="XMLID_5236_" class="st19" d="M27.979,28.079c-1.372,0.686-1.332,2.22-1.332,2.22l0.653,0.079
			C27.18,29.833,27.979,28.079,27.979,28.079z"/>
		<path id="XMLID_5235_" class="st19" d="M27.313,30.46c0,0,0.012-0.031,0.029-0.077l-0.042-0.005
			C27.306,30.404,27.303,30.441,27.313,30.46z"/>
		<path id="XMLID_5234_" class="st19" d="M28.325,28.887c0,0,0.323,1.009,0.242,1.574l0.637-0.077
			C29.099,30.108,28.706,29.129,28.325,28.887z"/>
		<path id="XMLID_5233_" class="st19" d="M28.567,28.079c0,0,0.799,1.754,0.678,2.299l0.653-0.079
			C29.899,30.299,29.939,28.766,28.567,28.079z"/>
		<path id="XMLID_5232_" class="st19" d="M29.233,30.46c0.01-0.02,0.007-0.057,0.013-0.082l-0.042,0.005
			C29.221,30.429,29.233,30.46,29.233,30.46z"/>
		<path id="XMLID_5231_" class="st19" d="M30.668,30.46c0,0,0.012-0.031,0.029-0.077l-0.042-0.005
			C30.662,30.404,30.658,30.441,30.668,30.46z"/>
		<path id="XMLID_5230_" class="st19" d="M31.334,28.079c-1.372,0.686-1.332,2.22-1.332,2.22l0.653,0.079
			C30.535,29.833,31.334,28.079,31.334,28.079z"/>
		<path id="XMLID_5229_" class="st19" d="M31.576,28.887c-0.381,0.242-0.774,1.221-0.879,1.497l0.637,0.077
			C31.254,29.895,31.576,28.887,31.576,28.887z"/>
		<path id="XMLID_5228_" class="st19" d="M24.97,28.887c0,0,0.323,1.009,0.242,1.574l0.637-0.077
			C25.744,30.108,25.35,29.129,24.97,28.887z"/>
		<path id="XMLID_5227_" class="st19" d="M25.212,28.079c0,0,0.8,1.754,0.679,2.299l0.653-0.079
			C26.544,30.299,26.584,28.766,25.212,28.079z"/>
		<path id="XMLID_5226_" class="st19" d="M25.878,30.46c0.01-0.02,0.007-0.057,0.013-0.082l-0.042,0.005
			C25.866,30.429,25.878,30.46,25.878,30.46z"/>
	</g>
	<rect id="XMLID_5224_" x="0.036" y="29.997" class="st19" width="31.928" height="1.693"/>
	<g id="XMLID_5201_">
		<circle id="XMLID_5222_" class="st2" cx="27.229" cy="4.254" r="3.943"/>
	</g>
	<g>
		<path id="XMLID_5295_" class="st4" d="M27.08,7.675c-0.151,0-0.294,0.037-0.421,0.1c-0.043-0.067-0.09-0.131-0.142-0.192
			c-0.228-0.368-0.635-0.614-1.1-0.614c-0.005,0-0.009,0-0.014,0c-0.081-0.011-0.163-0.017-0.247-0.017
			c-0.034,0-0.067,0.001-0.1,0.003c-0.226-0.714-0.894-1.232-1.683-1.232c-0.069,0-0.137,0.004-0.204,0.012
			c0.005-0.059,0.008-0.119,0.008-0.179c0-1.25-1.013-2.263-2.263-2.263s-2.263,1.013-2.263,2.263c0,0.026,0.001,0.052,0.002,0.077
			c-0.16-0.043-0.328-0.067-0.502-0.067c-1.061,0-1.921,0.86-1.921,1.921c0,0.114,0.01,0.225,0.029,0.333
			c-0.789,0.037-1.418,0.689-1.418,1.487c0,0.822,0.667,1.489,1.489,1.489c0.366,0,0.702-0.133,0.961-0.352
			c0.536,0.641,1.342,1.049,2.244,1.049c0.794,0,1.514-0.317,2.041-0.831c0.271,0.252,0.633,0.406,1.032,0.406
			c0.641,0,1.189-0.398,1.41-0.961c0.309,0.256,0.705,0.41,1.137,0.41c0.711,0,1.324-0.416,1.611-1.018
			c0.098,0.034,0.202,0.054,0.312,0.054c0.519,0,0.94-0.421,0.94-0.94C28.02,8.095,27.599,7.675,27.08,7.675z"/>
	</g>
	<g id="XMLID_5184_">
		<g id="XMLID_5202_">
			<g id="XMLID_5217_">
				<path id="XMLID_5254_" class="st2" d="M16.699,30.03c-0.236-5.005,1.477-9.867,4.733-13.583
					c-0.075-0.065-0.149-0.131-0.224-0.196c-3.303,3.77-5.042,8.702-4.806,13.779H16.699z"/>
			</g>
			<g id="XMLID_5214_">
				<path id="XMLID_5216_" class="st0" d="M14.608,22.048c-0.778,2.341,0.388,4.486,2.062,4.632
					C16.914,24.66,16.195,22.637,14.608,22.048z"/>
				<path id="XMLID_5215_" class="st0" d="M20.401,23.973c-0.546,1.6-2.047,2.862-3.731,2.707
					C16.944,24.54,18.829,23.383,20.401,23.973z"/>
			</g>
			<g id="XMLID_5209_">
				<path id="XMLID_5213_" class="st0" d="M16.167,18.445c-1.173,2.171-0.394,4.469,1.227,4.907
					C17.983,21.421,17.627,19.302,16.167,18.445z"/>
				<path id="XMLID_5211_" class="st0" d="M21.536,21.351c-0.815,1.481-2.511,2.449-4.141,2.001
					C18.034,21.309,20.09,20.495,21.536,21.351z"/>
			</g>
			<g id="XMLID_5206_">
				<path id="XMLID_5208_" class="st0" d="M18.364,15.128c-1.549,1.944-1.183,4.342,0.336,5.058
					C19.617,18.389,19.649,16.228,18.364,15.128z"/>
				<path id="XMLID_5207_" class="st0" d="M23.135,18.936c-1.072,1.324-2.908,1.977-4.435,1.25
					C19.687,18.288,21.863,17.837,23.135,18.936z"/>
			</g>
			<path id="XMLID_5205_" class="st0" d="M23.529,14.201c-0.428,1.868-1.818,3.399-3.618,3.963
				C19.714,16.255,21.577,14.206,23.529,14.201z"/>
			<path id="XMLID_5204_" class="st2" d="M19.625,26.943c-0.124-0.045-0.308-0.09-0.534-0.118c-0.451-0.067-1.091-0.003-1.675,0.34
				c-0.261,0.152-0.498,0.362-0.704,0.596c-0.036,0.502-0.052,1.007-0.048,1.515c0.014-0.078,0.03-0.158,0.057-0.263
				c0.114-0.477,0.421-1.064,0.884-1.461c0.46-0.4,1.039-0.583,1.478-0.597c0.219-0.013,0.406,0,0.533,0.022
				c0.129,0.02,0.203,0.032,0.203,0.032S19.749,26.985,19.625,26.943z"/>
			<path id="XMLID_5203_" class="st2" d="M13.681,26.716c0.132-0.024,0.323-0.029,0.549,0c0.455,0.043,1.048,0.31,1.554,0.789
				c0.227,0.214,0.426,0.469,0.604,0.73c-0.023,0.512-0.026,1.026-0.009,1.543c-0.017-0.079-0.036-0.16-0.065-0.267
				c-0.124-0.485-0.39-1.106-0.784-1.619c-0.393-0.51-0.905-0.876-1.328-1.012c-0.209-0.075-0.393-0.111-0.522-0.117
				c-0.13-0.01-0.205-0.015-0.205-0.015S13.55,26.736,13.681,26.716z"/>
		</g>
		<g id="XMLID_5185_">
			<g id="XMLID_5200_">
				<path id="XMLID_5247_" class="st2" d="M22.619,30.03c-0.13-3.234,0.984-6.372,3.089-8.775c-0.049-0.043-0.097-0.085-0.146-0.128
					c-2.136,2.438-3.267,5.621-3.137,8.903H22.619z"/>
			</g>
			<g id="XMLID_5197_">
				<path id="XMLID_5199_" class="st0" d="M21.256,24.909c-0.508,1.528,0.253,2.927,1.345,3.023
					C22.761,26.613,22.292,25.294,21.256,24.909z"/>
				<path id="XMLID_5198_" class="st0" d="M25.036,26.166c-0.356,1.044-1.336,1.867-2.435,1.766
					C22.781,26.536,24.01,25.78,25.036,26.166z"/>
			</g>
			<g id="XMLID_5194_">
				<path id="XMLID_5196_" class="st0" d="M22.273,22.559c-0.766,1.416-0.257,2.916,0.801,3.202
					C23.458,24.5,23.226,23.117,22.273,22.559z"/>
				<path id="XMLID_5195_" class="st0" d="M25.777,24.454c-0.532,0.966-1.638,1.598-2.702,1.306
					C23.491,24.427,24.833,23.896,25.777,24.454z"/>
			</g>
			<g id="XMLID_5189_">
				<path id="XMLID_5193_" class="st0" d="M23.707,20.394c-1.011,1.268-0.772,2.833,0.219,3.3
					C24.524,22.522,24.545,21.112,23.707,20.394z"/>
				<path id="XMLID_5190_" class="st0" d="M26.82,22.879c-0.7,0.864-1.898,1.29-2.894,0.815C24.57,22.456,25.99,22.162,26.82,22.879
					z"/>
			</g>
			<path id="XMLID_5188_" class="st0" d="M27.077,19.789c-0.279,1.219-1.186,2.218-2.36,2.586
				C24.587,21.13,25.803,19.792,27.077,19.789z"/>
			<path id="XMLID_5187_" class="st2" d="M24.53,28.103c-0.081-0.029-0.201-0.059-0.349-0.077c-0.294-0.044-0.712-0.002-1.093,0.222
				c-0.17,0.099-0.325,0.236-0.459,0.389c-0.023,0.328-0.034,0.657-0.031,0.988c0.009-0.051,0.02-0.103,0.037-0.172
				c0.074-0.311,0.275-0.694,0.577-0.953c0.3-0.261,0.678-0.381,0.965-0.389c0.143-0.009,0.265,0,0.348,0.015
				c0.084,0.013,0.132,0.021,0.132,0.021S24.611,28.13,24.53,28.103z"/>
			<path id="XMLID_5186_" class="st2" d="M20.651,27.955c0.086-0.016,0.21-0.019,0.358,0c0.297,0.028,0.684,0.202,1.014,0.515
				c0.148,0.139,0.278,0.306,0.394,0.476c-0.015,0.334-0.017,0.67-0.006,1.007c-0.011-0.052-0.024-0.104-0.042-0.174
				c-0.081-0.316-0.254-0.722-0.511-1.056c-0.256-0.333-0.59-0.571-0.867-0.66c-0.136-0.049-0.257-0.073-0.341-0.076
				c-0.085-0.006-0.134-0.01-0.134-0.01S20.566,27.968,20.651,27.955z"/>
		</g>
	</g>
	<g id="XMLID_5218_">
		<g id="XMLID_5251_">
			<g id="XMLID_5265_">
				<path id="XMLID_5266_" class="st2" d="M3.717,30.03c-0.236-5.005,1.477-9.867,4.733-13.583
					c-0.075-0.065-0.149-0.131-0.224-0.196c-3.303,3.77-5.042,8.702-4.806,13.779H3.717z"/>
			</g>
			<g id="XMLID_5262_">
				<path id="XMLID_5264_" class="st0" d="M1.626,22.048c-0.778,2.341,0.388,4.486,2.062,4.632
					C3.932,24.66,3.213,22.637,1.626,22.048z"/>
				<path id="XMLID_5263_" class="st0" d="M7.419,23.973c-0.546,1.6-2.047,2.862-3.731,2.707C3.962,24.54,5.846,23.383,7.419,23.973
					z"/>
			</g>
			<g id="XMLID_5259_">
				<path id="XMLID_5261_" class="st0" d="M3.185,18.445c-1.173,2.171-0.394,4.469,1.227,4.907
					C5.001,21.421,4.645,19.302,3.185,18.445z"/>
				<path id="XMLID_5260_" class="st0" d="M8.554,21.351c-0.815,1.481-2.511,2.449-4.141,2.001
					C5.052,21.309,7.108,20.495,8.554,21.351z"/>
			</g>
			<g id="XMLID_5256_">
				<path id="XMLID_5258_" class="st0" d="M5.381,15.128c-1.549,1.944-1.183,4.342,0.336,5.058
					C6.635,18.389,6.666,16.228,5.381,15.128z"/>
				<path id="XMLID_5257_" class="st0" d="M10.153,18.936c-1.072,1.324-2.908,1.977-4.435,1.25
					C6.705,18.288,8.881,17.837,10.153,18.936z"/>
			</g>
			<path id="XMLID_5255_" class="st0" d="M10.546,14.201c-0.428,1.868-1.818,3.399-3.618,3.963
				C6.732,16.255,8.594,14.206,10.546,14.201z"/>
			<path id="XMLID_5253_" class="st2" d="M6.643,26.943c-0.124-0.045-0.308-0.09-0.534-0.118c-0.451-0.067-1.091-0.003-1.675,0.34
				c-0.261,0.152-0.498,0.362-0.704,0.596c-0.036,0.502-0.052,1.007-0.048,1.515c0.014-0.078,0.03-0.158,0.057-0.263
				c0.114-0.477,0.421-1.064,0.884-1.461c0.46-0.4,1.039-0.583,1.478-0.597c0.219-0.013,0.406,0,0.533,0.022
				c0.129,0.02,0.203,0.032,0.203,0.032S6.767,26.985,6.643,26.943z"/>
			<path id="XMLID_5252_" class="st2" d="M0.699,26.716c0.132-0.024,0.323-0.029,0.549,0c0.455,0.043,1.048,0.31,1.554,0.789
				c0.227,0.214,0.426,0.469,0.604,0.73c-0.023,0.512-0.026,1.026-0.009,1.543c-0.017-0.079-0.036-0.16-0.065-0.267
				c-0.124-0.485-0.39-1.106-0.784-1.619c-0.393-0.51-0.905-0.876-1.328-1.012c-0.209-0.075-0.393-0.111-0.522-0.117
				c-0.13-0.01-0.205-0.015-0.205-0.015S0.568,26.736,0.699,26.716z"/>
		</g>
		<g id="XMLID_5219_">
			<g id="XMLID_5249_">
				<path id="XMLID_5250_" class="st2" d="M9.637,30.03c-0.13-3.234,0.984-6.372,3.089-8.775c-0.049-0.043-0.097-0.085-0.146-0.128
					c-2.136,2.438-3.267,5.621-3.137,8.903H9.637z"/>
			</g>
			<g id="XMLID_5245_">
				<path id="XMLID_5248_" class="st0" d="M8.274,24.909c-0.508,1.528,0.253,2.927,1.345,3.023
					C9.778,26.613,9.309,25.294,8.274,24.909z"/>
				<path id="XMLID_5246_" class="st0" d="M12.054,26.166c-0.356,1.044-1.336,1.867-2.435,1.766
					C9.798,26.536,11.028,25.78,12.054,26.166z"/>
			</g>
			<g id="XMLID_5242_">
				<path id="XMLID_5244_" class="st0" d="M9.291,22.559c-0.766,1.416-0.257,2.916,0.801,3.202
					C10.476,24.5,10.244,23.117,9.291,22.559z"/>
				<path id="XMLID_5243_" class="st0" d="M12.794,24.454c-0.532,0.966-1.638,1.598-2.702,1.306
					C10.509,24.427,11.851,23.896,12.794,24.454z"/>
			</g>
			<g id="XMLID_5239_">
				<path id="XMLID_5241_" class="st0" d="M10.724,20.394c-1.011,1.268-0.772,2.833,0.219,3.3
					C11.542,22.522,11.563,21.112,10.724,20.394z"/>
				<path id="XMLID_5240_" class="st0" d="M13.837,22.879c-0.7,0.864-1.898,1.29-2.894,0.815
					C11.588,22.456,13.007,22.162,13.837,22.879z"/>
			</g>
			<path id="XMLID_5238_" class="st0" d="M14.094,19.789c-0.279,1.219-1.186,2.218-2.36,2.586
				C11.605,21.13,12.821,19.792,14.094,19.789z"/>
			<path id="XMLID_5223_" class="st2" d="M11.547,28.103c-0.081-0.029-0.201-0.059-0.349-0.077
				c-0.294-0.044-0.712-0.002-1.093,0.222c-0.17,0.099-0.325,0.236-0.459,0.389c-0.023,0.328-0.034,0.657-0.031,0.988
				c0.009-0.051,0.02-0.103,0.037-0.172c0.074-0.311,0.275-0.694,0.577-0.953c0.3-0.261,0.678-0.381,0.965-0.389
				c0.143-0.009,0.265,0,0.348,0.015c0.084,0.013,0.132,0.021,0.132,0.021S11.628,28.13,11.547,28.103z"/>
			<path id="XMLID_5220_" class="st2" d="M7.669,27.955c0.086-0.016,0.21-0.019,0.358,0c0.297,0.028,0.684,0.202,1.014,0.515
				c0.148,0.139,0.278,0.306,0.394,0.476c-0.015,0.334-0.017,0.67-0.006,1.007c-0.011-0.052-0.024-0.104-0.042-0.174
				c-0.081-0.316-0.254-0.722-0.511-1.056c-0.256-0.333-0.59-0.571-0.867-0.66c-0.136-0.049-0.257-0.073-0.341-0.076
				c-0.085-0.006-0.134-0.01-0.134-0.01S7.583,27.968,7.669,27.955z"/>
		</g>
	</g>
</g>
</svg>
