<?xml version="1.0" encoding="utf-8"?>
<!-- Generator: Adobe Illustrator 21.1.0, SVG Export Plug-In . SVG Version: 6.00 Build 0)  -->
<svg version="1.1" id="Layer_1" xmlns="http://www.w3.org/2000/svg" xmlns:xlink="http://www.w3.org/1999/xlink" x="0px" y="0px"
	 viewBox="0 0 32 32" style="enable-background:new 0 0 32 32;" xml:space="preserve">
<style type="text/css">
	.st0{fill:#FFD83B;}
	.st1{fill:#E9EFF4;}
	.st2{fill:#DEE4E9;}
</style>
<g id="XMLID_3656_">
	<path id="XMLID_1067_" class="st0" d="M15.788,22.508c1.535-2.098,3.042-4.214,4.554-6.327l-1.39-1.17
		c-5.61,5.696-7.084,7.199-10.485,10.865c2.048-0.059,2.913-0.078,5.626-0.196c-1.353,2.052-2.686,4.119-3.961,6.227
		c2.136-1.685,5.798-4.725,10.86-9.247C18.328,22.565,18.587,22.57,15.788,22.508z"/>
	<g id="XMLID_1068_">
		<path id="XMLID_1071_" class="st1" d="M25.113,6.34c-1.422-3.653-4.964-6.246-9.119-6.246S8.297,2.687,6.876,6.34
			c-3.833-0.115-6.875,2.956-6.875,6.663c0,3.685,2.987,6.673,6.673,6.673c1.582,0,3.032-0.553,4.175-1.472
			c3.166,1.963,7.121,1.965,10.29,0c1.143,0.92,2.595,1.472,4.175,1.472c3.685,0,6.673-2.987,6.673-6.673
			C31.988,9.294,28.945,6.225,25.113,6.34z"/>
		<path id="XMLID_1070_" class="st2" d="M11.502,7.687c-1.137-1.202-2.607-1.979-4.231-2.173C7.137,5.779,6.995,6.04,6.886,6.319
			c1.642,0.014,3.041,0.538,4.311,1.673c1.435,1.353,1.948,2.835,2.107,4.566C13.286,10.684,12.811,9.141,11.502,7.687z"/>
		<path id="XMLID_1069_" class="st2" d="M18.642,13.003c-0.126-2.624,1.001-4.656,2.829-5.908c2.243-1.55,5.345-1.617,7.689-0.001
			c1.742,1.189,2.802,3.001,2.84,5.672c-0.008,0.154-0.012,0.236-0.012,0.236c-0.235-2.325-1.365-4.033-3.244-5.272
			c-2.026-1.295-4.869-1.272-6.859-0.001C19.936,9.016,18.861,10.79,18.642,13.003z"/>
	</g>
</g>
</svg>
