<?xml version="1.0" encoding="utf-8"?>
<!-- Generator: Adobe Illustrator 21.1.0, SVG Export Plug-In . SVG Version: 6.00 Build 0)  -->
<svg version="1.1" id="Layer_1" xmlns="http://www.w3.org/2000/svg" xmlns:xlink="http://www.w3.org/1999/xlink" x="0px" y="0px"
	 viewBox="0 0 32 32" style="enable-background:new 0 0 32 32;" xml:space="preserve">
<style type="text/css">
	.st0{fill:#FFD83B;}
	.st1{fill:#F2F2F2;}
	.st2{fill:#F3C432;}
	.st3{fill:#DEE4E9;}
	.st4{fill:#E9EFF4;}
	.st5{fill:#6DAFDF;}
	.st6{fill:#5CA3D9;}
	.st7{fill:#4D98D2;}
	.st8{fill:#E8EFF3;}
	.st9{fill:#DDE3E9;}
	.st10{fill:#4CC6E5;}
	.st11{opacity:0.05;fill:#2F3133;}
	.st12{fill:#E14B4B;}
	.st13{fill:#D3D9DD;}
	.st14{fill:#65B1EF;}
	.st15{fill:#8CC63E;}
	.st16{fill:#E84D88;}
	.st17{fill:#A4856D;}
	.st18{fill:#8BC540;}
	.st19{fill:#7FB241;}
	.st20{fill:#8E6D53;}
	.st21{fill:#FFFFFF;}
	.st22{fill:#9A795F;}
	.st23{fill:#E24B4B;}
	.st24{fill:#F2992D;}
	.st25{fill:#DF8726;}
	.st26{fill:#997960;}
	.st27{fill:#FFD93B;}
	.st28{fill:#E8AF2A;}
	.st29{fill:#D23F77;}
	.st30{fill:#D03F3F;}
	.st31{fill:#BF3332;}
	.st32{fill:#D03F3E;}
	.st33{fill:#BF3333;}
	.st34{fill:#F4C534;}
	.st35{fill:#8F6D52;}
	.st36{fill:#E9B02C;}
	.st37{fill:#5A5F63;}
	.st38{fill:#F4F4F4;}
	.st39{fill:#E74C87;}
	.st40{fill:#D24078;}
	.st41{fill:#5B5F63;}
	.st42{fill:#3F4347;}
	.st43{fill:#719C40;}
	.st44{fill:#7B5C45;}
	.st45{fill:#BB3166;}
	.st46{fill:#89664C;}
	.st47{fill:#77589F;}
	.st48{fill:#8066AA;}
	.st49{fill:#8D7FB6;}
	.st50{fill:#88BA40;}
	.st51{fill:#FDE7AA;}
	.st52{fill:#7FB239;}
	.st53{fill:#45CBEA;}
	.st54{fill:#ACB9C1;}
	.st55{fill:#DAE5EF;}
	.st56{fill:#7CA740;}
	.st57{fill:#88BF40;}
	.st58{fill:#85BB40;}
	.st59{fill:#FFF100;}
	.st60{fill:#FFDD00;}
	.st61{fill:#F29A2E;}
	.st62{fill:#3E4347;}
	.st63{fill:#59A5E0;}
	.st64{fill:#2F3133;}
	.st65{fill:#EDEDEF;}
	.st66{fill:#4E99D2;}
	.st67{fill:#A5856D;}
</style>
<g>
	<g id="XMLID_3845_">
		<g id="XMLID_3840_">
			<path id="XMLID_3842_" class="st19" d="M5.975,14.596c0,0,1.149-1.938-1.651-5.671c0,0,2.728,0.933,3.876,3.517
				c0,0,0.502-3.517-1.938-6.748c0,0,1.651,0.359,2.943,2.153c0,0,2.441-5.886,5.958-7.035c0,0-4.379,7.035-2.512,13.782H5.975z"/>
			<path id="XMLID_3843_" class="st18" d="M12.674,14.596c0,0,2.943-5.312-1.795-13.065c0,0,5.025,0.933,5.958,10.767
				c0,0,1.292-2.943-0.79-8.901c0,0,2.728,1.22,3.661,4.307c0,0,1.149-4.594,5.384-6.891c0,0-3.23,5.097-2.8,10.05
				c0,0,1.077-2.441,3.661-3.733c0,0-1.866,2.656-1.651,5.671c0,0-0.287-1.866,3.374-3.805c0,0-1.938,3.517-1.436,5.599H12.674z"/>
		</g>
		<g>
			<path class="st26" d="M28.216,26.386c-0.05,0.3-0.1,0.61-0.16,0.92c-0.15,0.79-0.35,1.58-0.59,2.35
				c-0.29,0.91-1.15,1.53-2.11,1.53H6.646c-0.96,0-1.82-0.62-2.11-1.53c-0.24-0.77-0.44-1.56-0.6-2.35
				c-0.06-0.31-0.11-0.62-0.16-0.92c-0.27-1.8-0.32-3.62-0.14-5.42c0.02-0.26,0.05-0.51,0.09-0.77c0.12-0.89,0.29-1.77,0.52-2.64
				h23.51c0.23,0.87,0.4,1.75,0.51,2.64c0.04,0.26,0.07,0.51,0.09,0.77C28.536,22.766,28.486,24.586,28.216,26.386z"/>
		</g>
		<g id="XMLID_3844_">
			<path id="XMLID_3852_" class="st20" d="M28.36,20.968l-2.89,1.66l-3.15-1.81l-3.16,1.81L16,20.818l-3.15,1.81l-3.16-1.81
				l-3.16,1.81l-2.89-1.66c0.02-0.26,0.05-0.51,0.09-0.77l2.8,1.6l3.16-1.81l3.16,1.81l3.15-1.81l3.16,1.81l3.16-1.81l3.15,1.81
				l2.8-1.6C28.31,20.458,28.34,20.708,28.36,20.968z"/>
			<path id="XMLID_3851_" class="st20" d="M28.22,26.388c-0.05,0.3-0.1,0.61-0.16,0.92l-2.59,1.48l-3.15-1.81l-3.16,1.81L16,26.978
				l-3.15,1.81l-3.16-1.81l-3.16,1.81l-2.59-1.48c-0.06-0.31-0.11-0.62-0.16-0.92l2.75,1.57l3.16-1.81l3.16,1.81l3.15-1.81
				l3.16,1.81l3.16-1.81l3.15,1.81L28.22,26.388z"/>
		</g>
	</g>
	<g>
		<path class="st67" d="M29.5,16.156c0,0.87-0.69,1.57-1.56,1.57H4.07c-0.87,0-1.57-0.7-1.57-1.57c0-0.86,0.7-1.56,1.57-1.56h23.87
			C28.81,14.596,29.5,15.296,29.5,16.156z"/>
	</g>
</g>
</svg>
