<?xml version="1.0" encoding="utf-8"?>
<!-- Generator: Adobe Illustrator 21.1.0, SVG Export Plug-In . SVG Version: 6.00 Build 0)  -->
<svg version="1.1" id="Layer_1" xmlns="http://www.w3.org/2000/svg" xmlns:xlink="http://www.w3.org/1999/xlink" x="0px" y="0px"
	 viewBox="0 0 32 32" style="enable-background:new 0 0 32 32;" xml:space="preserve">
<style type="text/css">
	.st0{fill:#FFD83B;}
	.st1{fill:#F2F2F2;}
	.st2{fill:#F3C432;}
	.st3{fill:#DEE4E9;}
	.st4{fill:#E9EFF4;}
	.st5{fill:#6DAFDF;}
	.st6{fill:#5CA3D9;}
	.st7{fill:#4D98D2;}
	.st8{fill:#E8EFF3;}
	.st9{fill:#DDE3E9;}
	.st10{fill:#4CC6E5;}
	.st11{opacity:0.05;fill:#2F3133;}
	.st12{fill:#E14B4B;}
	.st13{fill:#D3D9DD;}
	.st14{fill:#65B1EF;}
	.st15{fill:#8CC63E;}
	.st16{fill:#E84D88;}
	.st17{fill:#A4856D;}
	.st18{fill:#8BC540;}
	.st19{fill:#7FB241;}
	.st20{fill:#8E6D53;}
	.st21{fill:#FFFFFF;}
	.st22{fill:#9A795F;}
	.st23{fill:#E24B4B;}
	.st24{fill:#F2992D;}
	.st25{fill:#DF8726;}
	.st26{fill:#997960;}
	.st27{fill:#FFD93B;}
	.st28{fill:#E8AF2A;}
	.st29{fill:#D23F77;}
	.st30{fill:#D03F3F;}
	.st31{fill:#BF3332;}
	.st32{fill:#D03F3E;}
	.st33{fill:#BF3333;}
	.st34{fill:#F4C534;}
	.st35{fill:#8F6D52;}
	.st36{fill:#E9B02C;}
	.st37{fill:#5A5F63;}
	.st38{fill:#F4F4F4;}
	.st39{fill:#E74C87;}
	.st40{fill:#D24078;}
	.st41{fill:#5B5F63;}
	.st42{fill:#3F4347;}
	.st43{fill:#719C40;}
	.st44{fill:#7B5C45;}
	.st45{fill:#BB3166;}
	.st46{fill:#89664C;}
	.st47{fill:#77589F;}
	.st48{fill:#8066AA;}
	.st49{fill:#8D7FB6;}
	.st50{fill:#88BA40;}
	.st51{fill:#FDE7AA;}
	.st52{fill:#7FB239;}
	.st53{fill:#45CBEA;}
	.st54{fill:#ACB9C1;}
	.st55{fill:#DAE5EF;}
	.st56{fill:#7CA740;}
	.st57{fill:#88BF40;}
	.st58{fill:#85BB40;}
	.st59{fill:#FFF100;}
	.st60{fill:#FFDD00;}
	.st61{fill:#F29A2E;}
	.st62{fill:#3E4347;}
	.st63{fill:#59A5E0;}
	.st64{fill:#2F3133;}
	.st65{fill:#EDEDEF;}
	.st66{fill:#4E99D2;}
	.st67{fill:#A5856D;}
</style>
<g id="XMLID_2409_">
	<path id="XMLID_2767_" class="st18" d="M15.912,22.7c0,0-0.5-4.086,5.711-5.67c0,0,6.712-1.042,7.087-2.043
		c0,0-1.626,3.377-2.21,7.337c0,0-1.584,6.295-6.253,4.753C15.579,25.535,15.912,22.7,15.912,22.7z"/>
	<path id="XMLID_2766_" class="st19" d="M13.968,30.948c1.115-2.362,2.676-4.726,4.237-6.765c3.291-4.364,6.737-6.904,10.456-9.111
		c-3.943,2.557-7.248,5.46-10.009,9.443c-1.461,2.073-2.886,4.425-3.885,6.78L13.968,30.948z"/>
	<path id="XMLID_2764_" class="st18" d="M3.289,17.156c0,0,3.168,1.45,5.53,2.04c0,0,4.886,1.396,3.114,4.456
		c0,0-0.323,0.736-1.084,1.449c-2.022,1.894-5.405,1.123-6.38-1.47c-0.201-0.535-0.298-1.15-0.214-1.845
		C4.632,18.659,3.289,17.156,3.289,17.156z"/>
	<path id="XMLID_2763_" class="st19" d="M13.874,31.397c-0.871-2.271-2.024-4.384-3.333-6.469c-3.035-4.414-4.4-5.649-7.252-7.772
		c3.431,2.307,4.766,3.651,7.679,7.482c1.424,2.042,2.71,4.147,3.715,6.436L13.874,31.397z"/>
	<rect id="XMLID_2761_" x="13.365" y="14.988" class="st26" width="1.826" height="17.012"/>
	<g>
		<path id="XMLID_2760_" class="st2" d="M23.533,9.254c0-0.768-0.511-1.415-1.211-1.624c0.564-0.464,0.784-1.259,0.486-1.966
			c-0.285-0.677-0.959-1.07-1.653-1.033c0.296-0.629,0.186-1.401-0.333-1.92c-0.543-0.543-1.362-0.64-2.004-0.292
			c0.071-0.727-0.336-1.444-1.047-1.734c-0.68-0.277-1.435-0.079-1.899,0.438C15.637,0.468,15.013,0,14.279,0
			c-0.768,0-1.415,0.511-1.624,1.211c-0.464-0.564-1.259-0.784-1.966-0.486c-0.677,0.285-1.07,0.959-1.033,1.653
			C9.027,2.081,8.254,2.191,7.735,2.71c-0.543,0.543-0.64,1.362-0.292,2.004C6.716,4.644,5.999,5.05,5.709,5.761
			C5.432,6.442,5.63,7.196,6.147,7.661C5.493,7.896,5.024,8.519,5.024,9.254c0,0.768,0.511,1.415,1.211,1.624
			c-0.564,0.464-0.784,1.259-0.486,1.966c0.285,0.677,0.959,1.07,1.653,1.033c-0.296,0.629-0.186,1.401,0.333,1.92
			c0.543,0.543,1.362,0.64,2.004,0.292c-0.071,0.727,0.336,1.444,1.047,1.734c0.68,0.277,1.435,0.079,1.899-0.438
			c0.235,0.654,0.859,1.122,1.594,1.122c0.768,0,1.415-0.511,1.624-1.211c0.464,0.564,1.259,0.784,1.966,0.486
			c0.677-0.285,1.07-0.959,1.033-1.653c0.629,0.296,1.401,0.186,1.92-0.333c0.543-0.543,0.64-1.362,0.292-2.004
			c0.727,0.071,1.444-0.336,1.734-1.047c0.277-0.68,0.079-1.435-0.438-1.899C23.064,10.613,23.533,9.989,23.533,9.254z"/>
	</g>
	<circle id="XMLID_2759_" class="st21" cx="14.279" cy="9.254" r="4.342"/>
	<g>
		<circle id="XMLID_2758_" class="st28" cx="14.279" cy="9.254" r="2.978"/>
	</g>
</g>
</svg>
