<?xml version="1.0" encoding="utf-8"?>
<!-- Generator: Adobe Illustrator 21.1.0, SVG Export Plug-In . SVG Version: 6.00 Build 0)  -->
<svg version="1.1" id="Layer_1" xmlns="http://www.w3.org/2000/svg" xmlns:xlink="http://www.w3.org/1999/xlink" x="0px" y="0px"
	 viewBox="0 0 32 32" style="enable-background:new 0 0 32 32;" xml:space="preserve">
<style type="text/css">
	.st0{fill:#FFD83B;}
	.st1{fill:#F2F2F2;}
	.st2{fill:#F3C432;}
	.st3{fill:#DEE4E9;}
	.st4{fill:#E9EFF4;}
	.st5{fill:#6DAFDF;}
	.st6{fill:#5CA3D9;}
	.st7{fill:#4D98D2;}
	.st8{fill:#E8EFF3;}
	.st9{fill:#DDE3E9;}
	.st10{fill:#4CC6E5;}
	.st11{opacity:0.05;fill:#2F3133;}
	.st12{fill:#E14B4B;}
	.st13{fill:#D3D9DD;}
	.st14{fill:#65B1EF;}
	.st15{fill:#8CC63E;}
	.st16{fill:#E84D88;}
	.st17{fill:#A4856D;}
	.st18{fill:#8BC540;}
	.st19{fill:#7FB241;}
	.st20{fill:#8E6D53;}
	.st21{fill:#FFFFFF;}
	.st22{fill:#9A795F;}
	.st23{fill:#E24B4B;}
	.st24{fill:#F2992D;}
	.st25{fill:#DF8726;}
	.st26{fill:#997960;}
	.st27{fill:#FFD93B;}
	.st28{fill:#E8AF2A;}
	.st29{fill:#D23F77;}
	.st30{fill:#D03F3F;}
	.st31{fill:#BF3332;}
	.st32{fill:#D03F3E;}
	.st33{fill:#BF3333;}
	.st34{fill:#F4C534;}
	.st35{fill:#8F6D52;}
	.st36{fill:#E9B02C;}
	.st37{fill:#5A5F63;}
	.st38{fill:#F4F4F4;}
	.st39{fill:#E74C87;}
	.st40{fill:#D24078;}
	.st41{fill:#5B5F63;}
	.st42{fill:#3F4347;}
	.st43{fill:#719C40;}
	.st44{fill:#7B5C45;}
	.st45{fill:#BB3166;}
	.st46{fill:#89664C;}
	.st47{fill:#77589F;}
	.st48{fill:#8066AA;}
	.st49{fill:#8D7FB6;}
	.st50{fill:#88BA40;}
	.st51{fill:#FDE7AA;}
	.st52{fill:#7FB239;}
	.st53{fill:#45CBEA;}
	.st54{fill:#ACB9C1;}
	.st55{fill:#DAE5EF;}
	.st56{fill:#7CA740;}
	.st57{fill:#88BF40;}
	.st58{fill:#85BB40;}
	.st59{fill:#FFF100;}
	.st60{fill:#FFDD00;}
	.st61{fill:#F29A2E;}
	.st62{fill:#3E4347;}
	.st63{fill:#59A5E0;}
	.st64{fill:#2F3133;}
	.st65{fill:#EDEDEF;}
	.st66{fill:#4E99D2;}
	.st67{fill:#A5856D;}
</style>
<g>
	<g id="XMLID_1335_">
		<g id="XMLID_1343_">
			<g id="XMLID_1383_">
				<path id="XMLID_1385_" class="st2" d="M17.844,4.069C11.166,11.69,7.693,21.71,8.35,31.985c0.196-0.013,0.391-0.025,0.587-0.038
					C8.29,21.829,11.71,11.962,18.286,4.457C18.139,4.328,17.991,4.199,17.844,4.069z"/>
			</g>
			<g id="XMLID_1380_">
				<path id="XMLID_1382_" class="st0" d="M4.793,15.532c-1.539,4.63,0.768,8.871,4.077,9.16
					C9.353,20.695,7.931,16.696,4.793,15.532z"/>
				<path id="XMLID_1381_" class="st0" d="M16.248,19.339c-1.079,3.164-4.048,5.658-7.378,5.353
					C9.413,20.46,13.139,18.172,16.248,19.339z"/>
			</g>
			<g id="XMLID_1377_">
				<path id="XMLID_1379_" class="st0" d="M7.877,8.408c-2.32,4.292-0.779,8.837,2.427,9.702
					C11.468,14.291,10.763,10.101,7.877,8.408z"/>
				<path id="XMLID_1378_" class="st0" d="M18.493,14.153c-1.613,2.929-4.964,4.842-8.189,3.958
					C11.567,14.071,15.633,12.461,18.493,14.153z"/>
			</g>
			<g id="XMLID_1374_">
				<path id="XMLID_1376_" class="st0" d="M12.219,1.848c-3.063,3.843-2.339,8.585,0.664,10.001
					C14.698,8.296,14.76,4.024,12.219,1.848z"/>
				<path id="XMLID_1375_" class="st0" d="M21.654,9.378c-2.12,2.619-5.751,3.909-8.77,2.471
					C14.836,8.096,19.138,7.205,21.654,9.378z"/>
			</g>
			<path id="XMLID_1373_" class="st0" d="M22.432,0.015c-0.847,3.694-3.595,6.722-7.153,7.837
				C14.889,4.077,18.573,0.024,22.432,0.015z"/>
			<path id="XMLID_1372_" class="st2" d="M10.346,25.647c-0.516,0.301-0.984,0.716-1.391,1.179c-0.07,0.993-0.102,1.992-0.094,2.995
				c0.264-1.46,0.967-2.642,1.861-3.409c1.353-1.176,2.814-1.319,4.378-1.073C13.503,24.807,11.97,24.693,10.346,25.647z"/>
			<path id="XMLID_1371_" class="st2" d="M7.118,26.321c0.449,0.422,0.843,0.927,1.193,1.443c-0.046,1.012-0.052,2.03-0.018,3.051
				c-0.33-1.505-0.928-2.753-1.678-3.728c-1.313-1.704-2.665-2.164-4.063-2.261C4.031,24.59,5.508,24.793,7.118,26.321z"/>
		</g>
		<g id="XMLID_1341_">
			<g id="XMLID_1384_">
				<path id="XMLID_1386_" class="st2" d="M26.454,13.71c-4.357,4.972-6.623,11.51-6.195,18.215
					c0.128-0.008,0.255-0.016,0.383-0.024c-0.422-6.602,1.81-13.041,6.1-17.937C26.647,13.879,26.55,13.795,26.454,13.71z"/>
			</g>
			<g id="XMLID_1353_">
				<path id="XMLID_1368_" class="st0" d="M17.939,21.19c-1.004,3.021,0.501,5.788,2.66,5.977
					C20.914,24.558,19.986,21.949,17.939,21.19z"/>
				<path id="XMLID_1354_" class="st0" d="M25.413,23.673c-0.704,2.064-2.642,3.692-4.814,3.493
					C20.953,24.405,23.384,22.912,25.413,23.673z"/>
			</g>
			<g id="XMLID_1350_">
				<path id="XMLID_1352_" class="st0" d="M19.95,16.541c-1.514,2.8-0.508,5.766,1.584,6.331
					C22.294,20.38,21.834,17.646,19.95,16.541z"/>
				<path id="XMLID_1351_" class="st0" d="M26.877,20.29c-1.052,1.911-3.239,3.159-5.343,2.582
					C22.359,20.236,25.012,19.185,26.877,20.29z"/>
			</g>
			<g id="XMLID_1346_">
				<path id="XMLID_1348_" class="st0" d="M22.784,12.261c-1.999,2.508-1.526,5.602,0.433,6.525
					C24.401,16.468,24.442,13.68,22.784,12.261z"/>
				<path id="XMLID_1347_" class="st0" d="M28.94,17.174c-1.383,1.709-3.752,2.551-5.723,1.612
					C24.491,16.338,27.299,15.757,28.94,17.174z"/>
			</g>
			<path id="XMLID_1345_" class="st0" d="M29.448,11.065c-0.552,2.41-2.346,4.386-4.667,5.113
				C24.526,13.715,26.929,11.071,29.448,11.065z"/>
			<path id="XMLID_1344_" class="st2" d="M21.562,27.79c-0.337,0.196-0.642,0.467-0.908,0.77c-0.046,0.648-0.067,1.3-0.061,1.954
				c0.173-0.96,0.631-1.724,1.214-2.225c0.868-0.755,1.812-0.864,2.857-0.7C23.649,27.25,22.643,27.154,21.562,27.79z"/>
			<path id="XMLID_1342_" class="st2" d="M19.455,28.229c0.293,0.276,0.55,0.605,0.779,0.942c-0.03,0.66-0.034,1.324-0.012,1.99
				c-0.216-0.987-0.606-1.796-1.095-2.433c-0.848-1.1-1.73-1.411-2.651-1.475C17.445,27.099,18.412,27.238,19.455,28.229z"/>
		</g>
	</g>
	<path id="XMLID_2140_" class="st8" d="M7.682,6.562c0-0.429-0.719-1.148-1.148-1.148c0.429,0,1.148-0.719,1.148-1.148
		c0,0.429,0.719,1.148,1.148,1.148C8.401,5.414,7.682,6.133,7.682,6.562z"/>
	<path id="XMLID_2135_" class="st8" d="M20.725,4.802c0-0.676-1.131-1.807-1.807-1.807c0.676,0,1.807-1.131,1.807-1.807
		c0,0.676,1.131,1.807,1.807,1.807C21.856,2.995,20.725,4.126,20.725,4.802z"/>
</g>
</svg>
