<?xml version="1.0" encoding="utf-8"?>
<!-- Generator: Adobe Illustrator 21.1.0, SVG Export Plug-In . SVG Version: 6.00 Build 0)  -->
<svg version="1.1" id="Layer_1" xmlns="http://www.w3.org/2000/svg" xmlns:xlink="http://www.w3.org/1999/xlink" x="0px" y="0px"
	 viewBox="0 0 32 32" style="enable-background:new 0 0 32 32;" xml:space="preserve">
<style type="text/css">
	.st0{fill:#FFD83B;}
	.st1{fill:#F2F2F2;}
	.st2{fill:#F3C432;}
	.st3{fill:#DEE4E9;}
	.st4{fill:#E9EFF4;}
	.st5{fill:#6DAFDF;}
	.st6{fill:#5CA3D9;}
	.st7{fill:#4D98D2;}
	.st8{fill:#E8EFF3;}
	.st9{fill:#DDE3E9;}
	.st10{fill:#4CC6E5;}
	.st11{opacity:0.05;fill:#2F3133;}
	.st12{fill:#E14B4B;}
	.st13{fill:#D3D9DD;}
	.st14{fill:#65B1EF;}
	.st15{fill:#8CC63E;}
	.st16{fill:#E84D88;}
	.st17{fill:#A4856D;}
	.st18{fill:#8BC540;}
	.st19{fill:#7FB241;}
	.st20{fill:#8E6D53;}
	.st21{fill:#FFFFFF;}
	.st22{fill:#9A795F;}
	.st23{fill:#E24B4B;}
	.st24{fill:#F2992D;}
	.st25{fill:#DF8726;}
	.st26{fill:#997960;}
	.st27{fill:#FFD93B;}
	.st28{fill:#E8AF2A;}
	.st29{fill:#D23F77;}
	.st30{fill:#D03F3F;}
	.st31{fill:#BF3332;}
	.st32{fill:#D03F3E;}
	.st33{fill:#BF3333;}
	.st34{fill:#F4C534;}
	.st35{fill:#8F6D52;}
	.st36{fill:#E9B02C;}
	.st37{fill:#5A5F63;}
	.st38{fill:#F4F4F4;}
	.st39{fill:#E74C87;}
	.st40{fill:#D24078;}
	.st41{fill:#5B5F63;}
	.st42{fill:#3F4347;}
	.st43{fill:#719C40;}
	.st44{fill:#7B5C45;}
	.st45{fill:#BB3166;}
	.st46{fill:#89664C;}
	.st47{fill:#77589F;}
	.st48{fill:#8066AA;}
	.st49{fill:#8D7FB6;}
	.st50{fill:#88BA40;}
	.st51{fill:#FDE7AA;}
	.st52{fill:#7FB239;}
	.st53{fill:#45CBEA;}
	.st54{fill:#ACB9C1;}
	.st55{fill:#DAE5EF;}
	.st56{fill:#7CA740;}
	.st57{fill:#88BF40;}
	.st58{fill:#85BB40;}
	.st59{fill:#FFF100;}
	.st60{fill:#FFDD00;}
	.st61{fill:#F29A2E;}
	.st62{fill:#3E4347;}
	.st63{fill:#59A5E0;}
	.st64{fill:#2F3133;}
	.st65{fill:#EDEDEF;}
	.st66{fill:#4E99D2;}
	.st67{fill:#A5856D;}
</style>
<g id="XMLID_1500_">
	<g id="XMLID_1458_">
		<path id="XMLID_1483_" class="st0" d="M7.809,12.878c-0.139-0.139-0.265-0.287-0.393-0.433C3.271,12.736,0,16,0,16
			s3.582,3.584,8,3.584S16,16,16,16S10.933,16.002,7.809,12.878z"/>
		<path id="XMLID_1484_" class="st0" d="M16,16c0,0-3.582-3.584-8-3.584c-0.197,0-0.391,0.015-0.584,0.029
			c0.127,0.147,0.253,0.294,0.393,0.433C10.933,16.002,16,16,16,16z"/>
		<path id="XMLID_1478_" class="st2" d="M12.878,24.191c-3.124,3.124-8.191,3.122-8.191,3.122s-0.002-5.067,3.122-8.191S16,16,16,16
			S16.002,21.067,12.878,24.191z"/>
		<path id="XMLID_1476_" class="st0" d="M19.584,24c0,4.418-3.584,8-3.584,8s-3.584-3.582-3.584-8S16,16,16,16
			S19.584,19.582,19.584,24z"/>
		<path id="XMLID_1485_" class="st2" d="M19.122,24.191C15.998,21.067,16,16,16,16s5.067-0.002,8.191,3.122s3.122,8.191,3.122,8.191
			S22.246,27.316,19.122,24.191z"/>
		<path id="XMLID_1482_" class="st0" d="M24,19.584c-4.418,0-8-3.584-8-3.584s3.582-3.584,8-3.584S32,16,32,16
			S28.418,19.584,24,19.584z"/>
		<path id="XMLID_1479_" class="st2" d="M24.191,12.878C21.067,16.002,16,16,16,16s-0.002-5.067,3.122-8.191
			s8.191-3.122,8.191-3.122S27.316,9.754,24.191,12.878z"/>
		<path id="XMLID_1480_" class="st2" d="M12.444,7.416c-3.137-2.724-7.758-2.73-7.758-2.73s0.005,4.621,2.73,7.758
			C7.61,12.431,7.803,12.416,8,12.416c4.418,0,8,3.584,8,3.584s-3.584-3.582-3.584-8C12.416,7.803,12.431,7.609,12.444,7.416z"/>
		<path id="XMLID_1481_" class="st0" d="M16,0c0,0-3.264,3.271-3.556,7.416c0.147,0.127,0.294,0.253,0.433,0.393
			C16.002,10.933,16,16,16,16s3.584-3.582,3.584-8S16,0,16,0z"/>
		<path id="XMLID_1486_" class="st2" d="M12.444,7.416C12.431,7.609,12.416,7.803,12.416,8c0,4.418,3.584,8,3.584,8
			s0.002-5.067-3.122-8.191C12.738,7.669,12.591,7.543,12.444,7.416z"/>
	</g>
	<g>
		<circle id="XMLID_1477_" class="st21" cx="16" cy="16" r="5.216"/>
	</g>
	<g>
		<circle id="XMLID_1499_" class="st23" cx="16" cy="16" r="2.741"/>
	</g>
</g>
</svg>
