<?xml version="1.0" encoding="utf-8"?>
<!-- Generator: Adobe Illustrator 21.1.0, SVG Export Plug-In . SVG Version: 6.00 Build 0)  -->
<svg version="1.1" id="Layer_1" xmlns="http://www.w3.org/2000/svg" xmlns:xlink="http://www.w3.org/1999/xlink" x="0px" y="0px"
	 viewBox="0 0 32 32" style="enable-background:new 0 0 32 32;" xml:space="preserve">
<style type="text/css">
	.st0{fill:#FFD83B;}
	.st1{fill:#F2F2F2;}
	.st2{fill:#F3C432;}
	.st3{fill:#DEE4E9;}
	.st4{fill:#E9EFF4;}
	.st5{fill:#6DAFDF;}
	.st6{fill:#5CA3D9;}
	.st7{fill:#4D98D2;}
	.st8{fill:#E8EFF3;}
	.st9{fill:#DDE3E9;}
	.st10{fill:#4CC6E5;}
	.st11{opacity:0.05;fill:#2F3133;}
	.st12{fill:#E14B4B;}
	.st13{fill:#D3D9DD;}
	.st14{fill:#65B1EF;}
	.st15{fill:#8CC63E;}
	.st16{fill:#E84D88;}
	.st17{fill:#A4856D;}
	.st18{fill:#8BC540;}
	.st19{fill:#7FB241;}
	.st20{fill:#8E6D53;}
	.st21{fill:#FFFFFF;}
	.st22{fill:#9A795F;}
	.st23{fill:#E24B4B;}
	.st24{fill:#F2992D;}
	.st25{fill:#DF8726;}
	.st26{fill:#997960;}
	.st27{fill:#FFD93B;}
	.st28{fill:#E8AF2A;}
	.st29{fill:#D23F77;}
	.st30{fill:#D03F3F;}
	.st31{fill:#BF3332;}
	.st32{fill:#D03F3E;}
	.st33{fill:#BF3333;}
	.st34{fill:#F4C534;}
	.st35{fill:#8F6D52;}
	.st36{fill:#E9B02C;}
	.st37{fill:#5A5F63;}
	.st38{fill:#F4F4F4;}
	.st39{fill:#E74C87;}
	.st40{fill:#D24078;}
	.st41{fill:#5B5F63;}
	.st42{fill:#3F4347;}
	.st43{fill:#719C40;}
	.st44{fill:#7B5C45;}
	.st45{fill:#BB3166;}
	.st46{fill:#89664C;}
	.st47{fill:#77589F;}
	.st48{fill:#8066AA;}
	.st49{fill:#8D7FB6;}
	.st50{fill:#88BA40;}
	.st51{fill:#FDE7AA;}
	.st52{fill:#7FB239;}
	.st53{fill:#45CBEA;}
	.st54{fill:#ACB9C1;}
	.st55{fill:#DAE5EF;}
	.st56{fill:#7CA740;}
	.st57{fill:#88BF40;}
	.st58{fill:#85BB40;}
	.st59{fill:#FFF100;}
	.st60{fill:#FFDD00;}
	.st61{fill:#F29A2E;}
	.st62{fill:#3E4347;}
	.st63{fill:#59A5E0;}
	.st64{fill:#2F3133;}
	.st65{fill:#EDEDEF;}
	.st66{fill:#4E99D2;}
	.st67{fill:#A5856D;}
</style>
<g id="XMLID_1514_">
	<path id="XMLID_1518_" class="st17" d="M11.166,10.627c-0.393,0.674-0.659,1.418-0.756,2.192c-0.257,2.044,0.257,3.839,1.096,4.79
		c0.815,0.924,1.944,1.717,3.133,2.039c5.35,1.445,8.489-1.079,9.881-2.736c0.556-0.662,0.965-1.432,1.266-2.242
		C28.866,6.36,32,5.208,32,5.208C18.006,1.645,12.691,8.015,11.166,10.627z"/>
	<path id="XMLID_1527_" class="st17" d="M9.653,15.949c0.157,0.337,0.25,0.702,0.262,1.074c0.032,0.982-0.291,1.811-0.731,2.226
		c-0.428,0.403-0.999,0.73-1.578,0.83c-2.604,0.45-3.983-0.886-4.571-1.735c-0.235-0.339-0.395-0.722-0.502-1.12
		C1.437,13.143,0,12.458,0,12.458C6.801,11.383,9.044,14.642,9.653,15.949z"/>
	<path id="XMLID_1544_" class="st26" d="M6.867,16.89c-0.537,0.036-1.073,0.089-1.606,0.208c0.615,0.082,1.226,0.083,1.836,0.064
		c1.067,1.284,2.217,3.461,2.655,5.385c-0.472,1.491-0.867,3.271-1.07,5.302h2.53c0.149-2.216,0.673-6.649,2.542-10.196
		c0.491-0.963,1.164-1.912,1.738-2.67c1.397-0.078,3.075-0.282,4.41-0.719c-1.196-0.284-2.369-0.333-3.514-0.362
		c0.386-0.449,1.016-1.088,1.691-1.668c1.103,0.033,2.208,0.027,3.318-0.122c-0.908-0.204-1.82-0.31-2.734-0.377
		c1.729-1.475,4.182-2.709,6.337-3.382c-2.362,0.492-4.841,1.474-6.913,2.92c0.02-0.97-0.001-1.943-0.133-2.92
		c-0.247,1.096-0.35,2.198-0.412,3.302c-0.709,0.488-1.553,1.208-1.967,1.611c-0.156-1.74-0.419-2.846-0.666-3.596
		c-0.342,1.43-0.395,3.155-0.348,4.609c-1.033,1.131-1.74,2.07-2.114,2.664c0,0-1.111,1.411-2.149,4.05
		c-0.628-1.439-1.771-3.109-2.937-4.254c-0.035-0.567-0.088-1.134-0.215-1.697c-0.064,0.476-0.074,0.949-0.069,1.421
		c-1-0.965-2.058-1.798-3.693-2.591C5.096,14.919,6.017,15.887,6.867,16.89z"/>
</g>
</svg>
