<?xml version="1.0" encoding="utf-8"?>
<!-- Generator: Adobe Illustrator 21.1.0, SVG Export Plug-In . SVG Version: 6.00 Build 0)  -->
<svg version="1.1" id="Layer_1" xmlns="http://www.w3.org/2000/svg" xmlns:xlink="http://www.w3.org/1999/xlink" x="0px" y="0px"
	 viewBox="0 0 32 32" style="enable-background:new 0 0 32 32;" xml:space="preserve">
<style type="text/css">
	.st0{fill:#FFD83B;}
	.st1{fill:#F2F2F2;}
	.st2{fill:#F3C432;}
	.st3{fill:#DEE4E9;}
	.st4{fill:#E9EFF4;}
	.st5{fill:#6DAFDF;}
	.st6{fill:#5CA3D9;}
	.st7{fill:#4D98D2;}
	.st8{fill:#E8EFF3;}
	.st9{fill:#DDE3E9;}
	.st10{fill:#4CC6E5;}
	.st11{opacity:0.05;fill:#2F3133;}
	.st12{fill:#E14B4B;}
	.st13{fill:#D3D9DD;}
	.st14{fill:#65B1EF;}
	.st15{fill:#8CC63E;}
	.st16{fill:#E84D88;}
	.st17{fill:#A4856D;}
	.st18{fill:#8BC540;}
	.st19{fill:#7FB241;}
	.st20{fill:#8E6D53;}
	.st21{fill:#FFFFFF;}
	.st22{fill:#9A795F;}
	.st23{fill:#E24B4B;}
	.st24{fill:#F2992D;}
	.st25{fill:#DF8726;}
	.st26{fill:#997960;}
	.st27{fill:#FFD93B;}
	.st28{fill:#E8AF2A;}
	.st29{fill:#D23F77;}
	.st30{fill:#D03F3F;}
	.st31{fill:#BF3332;}
	.st32{fill:#D03F3E;}
	.st33{fill:#BF3333;}
	.st34{fill:#F4C534;}
	.st35{fill:#8F6D52;}
	.st36{fill:#E9B02C;}
	.st37{fill:#5A5F63;}
	.st38{fill:#F4F4F4;}
	.st39{fill:#E74C87;}
	.st40{fill:#D24078;}
	.st41{fill:#5B5F63;}
	.st42{fill:#3F4347;}
	.st43{fill:#719C40;}
	.st44{fill:#7B5C45;}
	.st45{fill:#BB3166;}
	.st46{fill:#89664C;}
	.st47{fill:#77589F;}
	.st48{fill:#8066AA;}
	.st49{fill:#8D7FB6;}
	.st50{fill:#88BA40;}
	.st51{fill:#FDE7AA;}
	.st52{fill:#7FB239;}
	.st53{fill:#45CBEA;}
	.st54{fill:#ACB9C1;}
	.st55{fill:#DAE5EF;}
	.st56{fill:#7CA740;}
	.st57{fill:#88BF40;}
	.st58{fill:#85BB40;}
	.st59{fill:#FFF100;}
	.st60{fill:#FFDD00;}
	.st61{fill:#F29A2E;}
	.st62{fill:#3E4347;}
	.st63{fill:#59A5E0;}
	.st64{fill:#2F3133;}
	.st65{fill:#EDEDEF;}
	.st66{fill:#4E99D2;}
	.st67{fill:#A5856D;}
</style>
<g>
	<g>
		<path class="st15" d="M23.972,25.673l0.24-0.06c-0.18,0.55-0.53,0.67-0.53,0.67l0.14,0.08c-0.34,0.74-1.13,1.16-1.13,1.16
			l0.25,0.07c-0.12,0.38-0.69,0.4-0.69,0.4l0.19,0.19c-0.2,0.25-0.89,0.32-0.89,0.32l0.21,0.1c-0.33,0.35-0.92,0.29-0.92,0.29
			l0.2,0.2c-0.29,0.21-0.88,0.14-0.88,0.14l0.06,0.26c-0.3,0.07-0.72-0.05-0.72-0.05l-0.01,0.23c-1.7,0.32-2.49-0.16-2.65-0.27
			c-0.03-0.02-0.04-0.03-0.04-0.03c0.76-0.3,0.73-2.5,0.73-2.5l0.17,0.06c0-0.78,0.25-1.36,0.25-1.36l0.16,0.19
			c0.04-0.99,0.45-1.37,0.45-1.37c0,0.11,0.22,0.23,0.22,0.23c0.17-0.52,0.67-1.02,0.67-1.02c-0.03,0.1,0.13,0.35,0.13,0.35
			c0.29-0.56,0.73-0.86,0.73-0.86c0,0.16,0.13,0.29,0.13,0.29c0.25-0.4,0.63-0.69,0.63-0.69c-0.02,0.15,0.29,0.17,0.29,0.17
			c0.23-0.31,0.56-0.46,0.56-0.46l0.12,0.21c0.4-0.29,0.66-0.35,0.66-0.35l0.05,0.18c0,0,0.25-0.29,0.55-0.28
			c0.3,0,1.07-0.3,1.07-0.3c0,0.01,0.01,0.03,0.01,0.04c0.17,0.54-0.09,1.24-0.09,1.24l0.22-0.12c-0.02,0.56-0.31,1.05-0.31,1.05
			l0.35-0.14c-0.06,0.65-0.29,0.94-0.35,1l0.26-0.1C24.262,25.593,23.972,25.673,23.972,25.673z"/>
		<path class="st15" d="M16.472,26.593c0,0-0.01,0.01-0.04,0.03c-0.2,0.14-1.19,0.74-3.33,0.35l-0.01-0.29c0,0-0.53,0.15-0.91,0.05
			l0.07-0.32c0,0-0.74,0.09-1.1-0.17l0.25-0.26c0,0-0.74,0.08-1.16-0.36l0.27-0.13c0,0-0.87-0.09-1.11-0.4l0.24-0.24
			c0,0-0.72-0.02-0.88-0.51l0.31-0.08c0,0-0.98-0.53-1.42-1.45l0.19-0.1c0,0-0.45-0.15-0.67-0.85l0.28,0.07
			c-0.07-0.03-0.38-0.21-0.6-1.05l0.34,0.14c0,0-0.36-0.33-0.45-1.27l0.43,0.17c0,0-0.35-0.61-0.38-1.31l0.28,0.14
			c0,0-0.33-0.87-0.12-1.55c0.01-0.02,0.01-0.04,0.02-0.05c0,0,0.97,0.37,1.34,0.37c0.38,0,0.69,0.35,0.69,0.35l0.07-0.22
			c0,0,0.32,0.08,0.83,0.44l0.15-0.26c0,0,0.41,0.18,0.7,0.58c0,0,0.37-0.02,0.37-0.2c0,0,0.47,0.35,0.79,0.85
			c0,0,0.16-0.17,0.16-0.36c0,0,0.55,0.37,0.92,1.08c0,0,0.19-0.32,0.15-0.44c0,0,0.64,0.62,0.85,1.28c0,0,0.28-0.17,0.28-0.31
			c0,0,0.51,0.49,0.56,1.74l0.2-0.24c0,0,0.31,0.72,0.31,1.71l0.23-0.07C15.572,23.453,15.522,26.213,16.472,26.593z"/>
	</g>
	<g>
		<rect x="15.901" y="17.151" class="st22" width="1.504" height="13.952"/>
	</g>
	<path id="XMLID_2851_" class="st40" d="M24.341,12.554c-1.67,4.59-4.981,7.273-7.68,6.92c-0.01-0.001-0.01-0.001-0.02,0
		c-2.699,0.353-6.01-2.33-7.68-6.92c-1.71-4.74-0.95-9.36,1.71-10.33c1.87-0.68,4.18,0.64,5.98,3.13c1.8-2.49,4.11-3.81,5.98-3.13
		C25.291,3.194,26.061,7.814,24.341,12.554z"/>
	<ellipse id="XMLID_2825_" class="st39" cx="16.653" cy="10.235" rx="5.244" ry="9.338"/>
</g>
</svg>
