<?xml version="1.0" encoding="utf-8"?>
<!-- Generator: Adobe Illustrator 21.1.0, SVG Export Plug-In . SVG Version: 6.00 Build 0)  -->
<svg version="1.1" id="Layer_1" xmlns="http://www.w3.org/2000/svg" xmlns:xlink="http://www.w3.org/1999/xlink" x="0px" y="0px"
	 viewBox="0 0 32 32" style="enable-background:new 0 0 32 32;" xml:space="preserve">
<style type="text/css">
	.st0{fill:#FFD83B;}
	.st1{fill:#F2F2F2;}
	.st2{fill:#F3C432;}
	.st3{fill:#DEE4E9;}
	.st4{fill:#E9EFF4;}
	.st5{fill:#6DAFDF;}
	.st6{fill:#5CA3D9;}
	.st7{fill:#4D98D2;}
	.st8{fill:#E8EFF3;}
	.st9{fill:#DDE3E9;}
	.st10{fill:#4CC6E5;}
	.st11{opacity:0.05;fill:#2F3133;}
	.st12{fill:#E14B4B;}
	.st13{fill:#D3D9DD;}
	.st14{fill:#65B1EF;}
	.st15{fill:#8CC63E;}
	.st16{fill:#E84D88;}
	.st17{fill:#A4856D;}
	.st18{fill:#8BC540;}
	.st19{fill:#7FB241;}
	.st20{fill:#8E6D53;}
	.st21{fill:#FFFFFF;}
	.st22{fill:#9A795F;}
	.st23{fill:#E24B4B;}
	.st24{fill:#F2992D;}
	.st25{fill:#DF8726;}
	.st26{fill:#997960;}
	.st27{fill:#FFD93B;}
	.st28{fill:#E8AF2A;}
	.st29{fill:#D23F77;}
	.st30{fill:#D03F3F;}
	.st31{fill:#BF3332;}
	.st32{fill:#D03F3E;}
	.st33{fill:#BF3333;}
	.st34{fill:#F4C534;}
	.st35{fill:#8F6D52;}
	.st36{fill:#E9B02C;}
	.st37{fill:#5A5F63;}
	.st38{fill:#F4F4F4;}
	.st39{fill:#E74C87;}
	.st40{fill:#D24078;}
	.st41{fill:#5B5F63;}
	.st42{fill:#3F4347;}
	.st43{fill:#719C40;}
	.st44{fill:#7B5C45;}
	.st45{fill:#BB3166;}
	.st46{fill:#89664C;}
	.st47{fill:#77589F;}
	.st48{fill:#8066AA;}
	.st49{fill:#8D7FB6;}
	.st50{fill:#88BA40;}
	.st51{fill:#FDE7AA;}
	.st52{fill:#7FB239;}
	.st53{fill:#45CBEA;}
	.st54{fill:#ACB9C1;}
	.st55{fill:#DAE5EF;}
	.st56{fill:#7CA740;}
	.st57{fill:#88BF40;}
	.st58{fill:#85BB40;}
	.st59{fill:#FFF100;}
	.st60{fill:#FFDD00;}
	.st61{fill:#F29A2E;}
	.st62{fill:#3E4347;}
	.st63{fill:#59A5E0;}
	.st64{fill:#2F3133;}
	.st65{fill:#EDEDEF;}
	.st66{fill:#4E99D2;}
	.st67{fill:#A5856D;}
</style>
<g id="XMLID_1525_">
	<g id="XMLID_1528_">
		<path id="XMLID_1536_" class="st24" d="M11.18,20.82c-2.318,0.135-4.275-0.026-5.872-0.392c-3.86,6.147,0.116,10.123,6.263,6.263
			C11.206,25.095,11.044,23.138,11.18,20.82z"/>
		<path id="XMLID_1537_" class="st24" d="M20.82,11.18c2.318-0.135,4.275,0.026,5.872,0.392c3.86-6.147-0.116-10.123-6.263-6.263
			C20.794,6.905,20.955,8.862,20.82,11.18z"/>
		<path id="XMLID_1538_" class="st24" d="M11.18,11.18c-0.135-2.318,0.026-4.275,0.392-5.872c-6.147-3.86-10.123,0.116-6.263,6.263
			C6.905,11.206,8.862,11.044,11.18,11.18z"/>
		<path id="XMLID_1539_" class="st24" d="M20.82,20.82c0.135,2.318-0.026,4.275-0.392,5.872c6.147,3.86,10.123-0.116,6.263-6.263
			C25.095,20.794,23.138,20.955,20.82,20.82z"/>
		<path id="XMLID_1540_" class="st24" d="M16,9.183c1.544-1.735,3.041-3.004,4.429-3.875c-1.617-7.076-7.24-7.076-8.858,0
			C12.959,6.179,14.456,7.448,16,9.183z"/>
		<path id="XMLID_1541_" class="st24" d="M26.692,11.571c-0.871,1.388-2.14,2.885-3.875,4.429c1.735,1.544,3.004,3.041,3.875,4.429
			C33.768,18.811,33.768,13.189,26.692,11.571z"/>
		<path id="XMLID_1542_" class="st24" d="M16,22.817c-1.544,1.735-3.041,3.004-4.429,3.875c1.618,7.076,7.24,7.076,8.858,0
			C19.041,25.821,17.543,24.552,16,22.817z"/>
		<path id="XMLID_1543_" class="st24" d="M9.183,16c-1.735-1.544-3.004-3.041-3.875-4.429c-7.076,1.618-7.076,7.24,0,8.858
			C6.179,19.041,7.448,17.543,9.183,16z"/>
	</g>
	<path id="XMLID_1545_" class="st25" d="M22.817,16c1.735-1.544,3.004-3.041,3.875-4.429c-1.597-0.365-3.554-0.527-5.872-0.392
		c0.135-2.318-0.026-4.275-0.392-5.872C19.041,6.179,17.543,7.448,16,9.183c-1.544-1.735-3.041-3.004-4.429-3.875
		c-0.365,1.597-0.527,3.554-0.392,5.872c-2.318-0.135-4.275,0.026-5.872,0.392c0.871,1.388,2.14,2.885,3.875,4.429
		c-1.735,1.544-3.004,3.041-3.875,4.429c1.597,0.365,3.554,0.527,5.872,0.392c-0.135,2.318,0.026,4.275,0.392,5.872
		c1.388-0.871,2.885-2.14,4.429-3.875c1.544,1.735,3.041,3.004,4.429,3.875c0.365-1.597,0.527-3.554,0.392-5.872
		c2.318,0.135,4.275-0.026,5.872-0.392C25.821,19.041,24.552,17.543,22.817,16z"/>
	<circle id="XMLID_1526_" class="st21" cx="16" cy="16" r="5.195"/>
	<circle id="XMLID_1546_" class="st27" cx="16" cy="16" r="2.973"/>
</g>
</svg>
