<?xml version="1.0" encoding="utf-8"?>
<!-- Generator: Adobe Illustrator 21.1.0, SVG Export Plug-In . SVG Version: 6.00 Build 0)  -->
<svg version="1.1" id="Layer_1" xmlns="http://www.w3.org/2000/svg" xmlns:xlink="http://www.w3.org/1999/xlink" x="0px" y="0px"
	 viewBox="0 0 32 32" style="enable-background:new 0 0 32 32;" xml:space="preserve">
<style type="text/css">
	.st0{fill:#FFD83B;}
	.st1{fill:#F2F2F2;}
	.st2{fill:#F3C432;}
	.st3{fill:#DEE4E9;}
	.st4{fill:#E9EFF4;}
	.st5{fill:#6DAFDF;}
	.st6{fill:#5CA3D9;}
	.st7{fill:#4D98D2;}
	.st8{fill:#E8EFF3;}
	.st9{fill:#DDE3E9;}
	.st10{fill:#4CC6E5;}
	.st11{opacity:0.05;fill:#2F3133;}
	.st12{fill:#E14B4B;}
	.st13{fill:#D3D9DD;}
	.st14{fill:#65B1EF;}
	.st15{fill:#8CC63E;}
	.st16{fill:#E84D88;}
	.st17{fill:#A4856D;}
	.st18{fill:#8BC540;}
	.st19{fill:#7FB241;}
	.st20{fill:#8E6D53;}
	.st21{fill:#FFFFFF;}
	.st22{fill:#9A795F;}
	.st23{fill:#E24B4B;}
	.st24{fill:#F2992D;}
	.st25{fill:#DF8726;}
	.st26{fill:#997960;}
	.st27{fill:#FFD93B;}
	.st28{fill:#E8AF2A;}
	.st29{fill:#D23F77;}
	.st30{fill:#D03F3F;}
	.st31{fill:#BF3332;}
	.st32{fill:#D03F3E;}
	.st33{fill:#BF3333;}
	.st34{fill:#F4C534;}
	.st35{fill:#8F6D52;}
	.st36{fill:#E9B02C;}
	.st37{fill:#5A5F63;}
	.st38{fill:#F4F4F4;}
	.st39{fill:#E74C87;}
	.st40{fill:#D24078;}
	.st41{fill:#5B5F63;}
	.st42{fill:#3F4347;}
	.st43{fill:#719C40;}
	.st44{fill:#7B5C45;}
	.st45{fill:#BB3166;}
	.st46{fill:#89664C;}
	.st47{fill:#77589F;}
	.st48{fill:#8066AA;}
	.st49{fill:#8D7FB6;}
	.st50{fill:#88BA40;}
	.st51{fill:#FDE7AA;}
	.st52{fill:#7FB239;}
	.st53{fill:#45CBEA;}
	.st54{fill:#ACB9C1;}
	.st55{fill:#DAE5EF;}
	.st56{fill:#7CA740;}
	.st57{fill:#88BF40;}
	.st58{fill:#85BB40;}
	.st59{fill:#FFF100;}
	.st60{fill:#FFDD00;}
	.st61{fill:#F29A2E;}
	.st62{fill:#3E4347;}
	.st63{fill:#59A5E0;}
	.st64{fill:#2F3133;}
	.st65{fill:#EDEDEF;}
	.st66{fill:#4E99D2;}
	.st67{fill:#A5856D;}
</style>
<g id="XMLID_1119_">
	<g id="XMLID_1191_">
		<path id="XMLID_1184_" class="st0" d="M23.709,14.33c0,1.15-0.248,2.243-0.695,3.228H8.803c-0.447-0.985-0.695-2.077-0.695-3.228
			c0-4.304,3.493-7.797,7.805-7.797C20.217,6.534,23.709,10.026,23.709,14.33z"/>
		<g id="XMLID_1177_">
			<g id="XMLID_1099_">
				<path id="XMLID_1122_" class="st0" d="M27.928,14.424c0-0.257-0.21-0.467-0.467-0.467H25.78c-0.257,0-0.467,0.21-0.467,0.467
					c0,0.257,0.21,0.467,0.467,0.467h1.681C27.718,14.891,27.928,14.681,27.928,14.424z"/>
				<path id="XMLID_1121_" class="st0" d="M6.687,14.424c0-0.257-0.21-0.467-0.467-0.467H4.539c-0.257,0-0.467,0.21-0.467,0.467
					c0,0.257,0.21,0.467,0.467,0.467H6.22C6.477,14.891,6.687,14.681,6.687,14.424z"/>
			</g>
			<g id="XMLID_1118_">
				<path id="XMLID_1120_" class="st0" d="M16,5.11c0.257,0,0.467-0.21,0.467-0.467V2.963c0-0.257-0.21-0.467-0.467-0.467
					c-0.257,0-0.467,0.21-0.467,0.467v1.681C15.533,4.9,15.743,5.11,16,5.11z"/>
			</g>
			<g id="XMLID_1174_">
				<path id="XMLID_1175_" class="st0" d="M9.415,7.838c0.182-0.182,0.182-0.479,0-0.66L8.226,5.99c-0.182-0.182-0.479-0.182-0.66,0
					c-0.182,0.182-0.182,0.479,0,0.66l1.188,1.188C8.936,8.02,9.233,8.02,9.415,7.838z"/>
			</g>
			<g id="XMLID_1170_">
				<path id="XMLID_1171_" class="st0" d="M22.586,7.838c0.182,0.182,0.479,0.182,0.66,0l1.188-1.188
					c0.182-0.182,0.182-0.479,0-0.66c-0.182-0.182-0.479-0.182-0.66,0l-1.188,1.188C22.404,7.36,22.404,7.657,22.586,7.838z"/>
			</g>
		</g>
		<g id="XMLID_1178_">
			<g id="XMLID_1188_">
				<path id="XMLID_1189_" class="st0" d="M7.451,10.728c0.102-0.236-0.008-0.512-0.243-0.614L5.665,9.448
					C5.43,9.346,5.153,9.455,5.052,9.691c-0.102,0.236,0.008,0.512,0.243,0.614l1.543,0.667C7.073,11.074,7.349,10.964,7.451,10.728
					z"/>
			</g>
			<g id="XMLID_1185_">
				<path id="XMLID_1186_" class="st0" d="M19.695,5.875c0.236,0.102,0.512-0.008,0.614-0.243l0.667-1.543
					c0.102-0.236-0.008-0.512-0.243-0.614c-0.236-0.102-0.512,0.008-0.614,0.243l-0.667,1.543C19.35,5.497,19.46,5.773,19.695,5.875
					z"/>
			</g>
			<g id="XMLID_1182_">
				<path id="XMLID_1183_" class="st0" d="M12.568,5.766c0.239-0.095,0.356-0.367,0.262-0.606l-0.619-1.562
					c-0.095-0.239-0.367-0.357-0.606-0.262c-0.239,0.095-0.357,0.367-0.262,0.606l0.619,1.562
					C12.057,5.743,12.329,5.86,12.568,5.766z"/>
			</g>
			<g id="XMLID_1179_">
				<path id="XMLID_1180_" class="st0" d="M24.658,10.992c0.095,0.239,0.367,0.356,0.606,0.262l1.562-0.619
					c0.239-0.095,0.357-0.367,0.262-0.606c-0.095-0.239-0.367-0.357-0.606-0.262l-1.562,0.619
					C24.681,10.481,24.563,10.753,24.658,10.992z"/>
			</g>
		</g>
	</g>
	<path id="XMLID_1227_" class="st5" d="M28.804,15.018c-0.001-0.002-0.002-0.005-0.003-0.008c0,0-0.001,0.001-0.001,0.001
		L28.8,15.01c-0.001,0.002-0.002,0.005-0.003,0.008c-0.58,1.189-1.791,2.02-3.196,2.02c-1.408,0-2.622-0.834-3.2-2.027l0,0l0,0l0,0
		l0,0.001c-0.578,1.193-1.792,2.027-3.2,2.027c-1.408,0-2.622-0.834-3.2-2.027l0,0v0l0,0l0,0c-0.578,1.193-1.792,2.027-3.2,2.027
		c-1.408,0-2.622-0.834-3.2-2.027l0,0l0,0l0,0l0,0.001c-0.578,1.193-1.792,2.027-3.2,2.027c-1.405,0-2.616-0.831-3.196-2.02
		C3.202,15.016,3.202,15.013,3.2,15.01c0,0-0.001,0.001-0.001,0.001L3.199,15.01c-0.001,0.002-0.002,0.005-0.003,0.008
		c-0.58,1.189-1.791,2.02-3.196,2.02v4.547c1.408,0,30.592,0,32,0v-4.547C30.595,17.038,29.384,16.207,28.804,15.018z"/>
	<path id="XMLID_1176_" class="st6" d="M28.804,18.977c-0.001-0.002-0.002-0.005-0.003-0.008c0,0-0.001,0.001-0.001,0.001
		L28.8,18.97c-0.001,0.002-0.002,0.005-0.003,0.008c-0.58,1.189-1.791,2.02-3.196,2.02c-1.408,0-2.622-0.834-3.2-2.027l0,0l0,0l0,0
		l0,0.001c-0.578,1.193-1.792,2.027-3.2,2.027c-1.408,0-2.622-0.834-3.2-2.027l0,0v0l0,0l0,0c-0.578,1.193-1.792,2.027-3.2,2.027
		c-1.408,0-2.622-0.834-3.2-2.027l0,0l0,0l0,0l0,0.001c-0.578,1.193-1.792,2.027-3.2,2.027c-1.405,0-2.616-0.831-3.196-2.02
		C3.202,18.975,3.202,18.972,3.2,18.97c0,0-0.001,0.001-0.001,0.001L3.199,18.97c-0.001,0.002-0.002,0.005-0.003,0.008
		c-0.58,1.189-1.791,2.02-3.196,2.02v4.547c1.408,0,30.592,0,32,0v-4.547C30.595,20.997,29.384,20.166,28.804,18.977z"/>
	<path id="XMLID_1181_" class="st7" d="M28.804,22.936c-0.001-0.002-0.002-0.005-0.003-0.008c0,0-0.001,0.001-0.001,0.001
		L28.8,22.929c-0.001,0.002-0.002,0.005-0.003,0.008c-0.58,1.189-1.791,2.02-3.196,2.02c-1.408,0-2.622-0.834-3.2-2.027l0-0.001l0,0
		l0,0l0,0.001c-0.578,1.193-1.792,2.027-3.2,2.027c-1.408,0-2.622-0.834-3.2-2.027l0,0v0l0,0l0,0
		c-0.578,1.193-1.792,2.027-3.2,2.027c-1.408,0-2.622-0.834-3.2-2.027l0-0.001l0,0l0,0l0,0.001c-0.578,1.193-1.792,2.027-3.2,2.027
		c-1.405,0-2.616-0.831-3.196-2.02c-0.001-0.002-0.002-0.005-0.003-0.008c0,0-0.001,0.001-0.001,0.001l-0.001-0.001
		c-0.001,0.002-0.002,0.005-0.003,0.008c-0.58,1.189-1.791,2.02-3.196,2.02v4.547c1.408,0,30.592,0,32,0v-4.547
		C30.595,24.956,29.384,24.125,28.804,22.936z"/>
</g>
</svg>
