<?xml version="1.0" encoding="utf-8"?>
<!-- Generator: Adobe Illustrator 21.1.0, SVG Export Plug-In . SVG Version: 6.00 Build 0)  -->
<svg version="1.1" id="Layer_1" xmlns="http://www.w3.org/2000/svg" xmlns:xlink="http://www.w3.org/1999/xlink" x="0px" y="0px"
	 viewBox="0 0 32 32" style="enable-background:new 0 0 32 32;" xml:space="preserve">
<style type="text/css">
	.st0{fill:#FFD83B;}
	.st1{fill:#F2F2F2;}
	.st2{fill:#F3C432;}
	.st3{fill:#DEE4E9;}
	.st4{fill:#E9EFF4;}
	.st5{fill:#6DAFDF;}
	.st6{fill:#5CA3D9;}
	.st7{fill:#4D98D2;}
	.st8{fill:#E8EFF3;}
	.st9{fill:#DDE3E9;}
	.st10{fill:#4CC6E5;}
	.st11{opacity:0.05;fill:#2F3133;}
	.st12{fill:#E14B4B;}
	.st13{fill:#D3D9DD;}
	.st14{fill:#65B1EF;}
	.st15{fill:#8CC63E;}
	.st16{fill:#E84D88;}
	.st17{fill:#A4856D;}
	.st18{fill:#8BC540;}
	.st19{fill:#7FB241;}
	.st20{fill:#8E6D53;}
	.st21{fill:#FFFFFF;}
	.st22{fill:#9A795F;}
	.st23{fill:#E24B4B;}
	.st24{fill:#F2992D;}
	.st25{fill:#DF8726;}
	.st26{fill:#997960;}
	.st27{fill:#FFD93B;}
	.st28{fill:#E8AF2A;}
	.st29{fill:#D23F77;}
	.st30{fill:#D03F3F;}
	.st31{fill:#BF3332;}
	.st32{fill:#D03F3E;}
	.st33{fill:#BF3333;}
	.st34{fill:#F4C534;}
	.st35{fill:#8F6D52;}
	.st36{fill:#E9B02C;}
	.st37{fill:#5A5F63;}
	.st38{fill:#F4F4F4;}
	.st39{fill:#E74C87;}
	.st40{fill:#D24078;}
	.st41{fill:#5B5F63;}
	.st42{fill:#3F4347;}
	.st43{fill:#719C40;}
	.st44{fill:#7B5C45;}
	.st45{fill:#BB3166;}
	.st46{fill:#89664C;}
	.st47{fill:#77589F;}
	.st48{fill:#8066AA;}
	.st49{fill:#8D7FB6;}
	.st50{fill:#88BA40;}
	.st51{fill:#FDE7AA;}
	.st52{fill:#7FB239;}
	.st53{fill:#45CBEA;}
	.st54{fill:#ACB9C1;}
	.st55{fill:#DAE5EF;}
	.st56{fill:#7CA740;}
	.st57{fill:#88BF40;}
	.st58{fill:#85BB40;}
	.st59{fill:#FFF100;}
	.st60{fill:#FFDD00;}
	.st61{fill:#F29A2E;}
	.st62{fill:#3E4347;}
	.st63{fill:#59A5E0;}
	.st64{fill:#2F3133;}
	.st65{fill:#EDEDEF;}
	.st66{fill:#4E99D2;}
	.st67{fill:#A5856D;}
</style>
<g id="XMLID_1573_">
	<g id="XMLID_1664_">
		<g id="XMLID_1680_">
			<path id="XMLID_1682_" class="st29" d="M20,8c-1.891,4.418-4.273,8-4,8c-0.273,0-5.891-3.582-4-8c1.891-4.418,4.273-8,4-8
				C16.273,0,21.891,3.582,20,8z"/>
			<path id="XMLID_1681_" class="st29" d="M12,24c1.891-4.418,4.273-8,4-8c0.273,0,5.891,3.582,4,8c-1.891,4.418-4.273,8-4,8
				C15.727,32,10.109,28.418,12,24z"/>
		</g>
		<g id="XMLID_1677_">
			<path id="XMLID_1679_" class="st16" d="M24.485,13.172C20.024,14.959,15.807,15.807,16,16c-0.193-0.193-1.633-6.699,2.828-8.485
				c4.461-1.787,8.678-2.636,8.485-2.828C27.507,4.879,28.947,11.385,24.485,13.172z"/>
			<path id="XMLID_1678_" class="st16" d="M7.515,18.828C11.976,17.041,16.193,16.193,16,16c0.193,0.193,1.633,6.699-2.828,8.485
				c-4.461,1.787-8.678,2.636-8.485,2.828C4.493,27.121,3.053,20.615,7.515,18.828z"/>
		</g>
		<g id="XMLID_1674_">
			<path id="XMLID_1676_" class="st29" d="M24,20c-4.418-1.891-8-4.273-8-4c0-0.273,3.582-5.891,8-4c4.418,1.891,8,4.273,8,4
				C32,16.273,28.418,21.891,24,20z"/>
			<path id="XMLID_1675_" class="st29" d="M8,12c4.418,1.891,8,4.273,8,4c0,0.273-3.582,5.891-8,4c-4.418-1.891-8-4.273-8-4
				C0,15.727,3.582,10.109,8,12z"/>
		</g>
		<g id="XMLID_1671_">
			<path id="XMLID_1673_" class="st16" d="M18.828,24.485C17.041,20.024,16.193,15.807,16,16c0.193-0.193,6.699-1.633,8.485,2.828
				c1.787,4.461,2.636,8.678,2.828,8.485C27.121,27.507,20.615,28.947,18.828,24.485z"/>
			<path id="XMLID_1672_" class="st16" d="M13.172,7.515C14.959,11.976,15.807,16.193,16,16c-0.193,0.193-6.699,1.633-8.485-2.828
				C5.728,8.71,4.879,4.493,4.686,4.686C4.879,4.493,11.385,3.053,13.172,7.515z"/>
		</g>
	</g>
	<g>
		<circle id="XMLID_1665_" class="st21" cx="16" cy="16" r="4.651"/>
	</g>
	<g id="XMLID_1143_">
		<circle id="XMLID_1691_" class="st16" cx="16" cy="16" r="2.806"/>
	</g>
</g>
</svg>
