<?xml version="1.0" encoding="utf-8"?>
<!-- Generator: Adobe Illustrator 21.1.0, SVG Export Plug-In . SVG Version: 6.00 Build 0)  -->
<svg version="1.1" id="Layer_1" xmlns="http://www.w3.org/2000/svg" xmlns:xlink="http://www.w3.org/1999/xlink" x="0px" y="0px"
	 viewBox="0 0 32 32" style="enable-background:new 0 0 32 32;" xml:space="preserve">
<style type="text/css">
	.st0{fill:#FFD83B;}
	.st1{fill:#F2F2F2;}
	.st2{fill:#F3C432;}
	.st3{fill:#DEE4E9;}
	.st4{fill:#E9EFF4;}
	.st5{fill:#6DAFDF;}
	.st6{fill:#5CA3D9;}
	.st7{fill:#4D98D2;}
	.st8{fill:#E8EFF3;}
	.st9{fill:#DDE3E9;}
	.st10{fill:#4CC6E5;}
	.st11{opacity:0.05;fill:#2F3133;}
	.st12{fill:#E14B4B;}
	.st13{fill:#D3D9DD;}
	.st14{fill:#65B1EF;}
	.st15{fill:#8CC63E;}
	.st16{fill:#E84D88;}
	.st17{fill:#A4856D;}
	.st18{fill:#8BC540;}
	.st19{fill:#7FB241;}
	.st20{fill:#8E6D53;}
	.st21{fill:#FFFFFF;}
	.st22{fill:#9A795F;}
	.st23{fill:#E24B4B;}
	.st24{fill:#F2992D;}
	.st25{fill:#DF8726;}
	.st26{fill:#997960;}
	.st27{fill:#FFD93B;}
	.st28{fill:#E8AF2A;}
	.st29{fill:#D23F77;}
	.st30{fill:#D03F3F;}
	.st31{fill:#BF3332;}
	.st32{fill:#D03F3E;}
	.st33{fill:#BF3333;}
	.st34{fill:#F4C534;}
	.st35{fill:#8F6D52;}
	.st36{fill:#E9B02C;}
	.st37{fill:#5A5F63;}
	.st38{fill:#F4F4F4;}
	.st39{fill:#E74C87;}
	.st40{fill:#D24078;}
	.st41{fill:#5B5F63;}
	.st42{fill:#3F4347;}
	.st43{fill:#719C40;}
	.st44{fill:#7B5C45;}
	.st45{fill:#BB3166;}
	.st46{fill:#89664C;}
	.st47{fill:#77589F;}
	.st48{fill:#8066AA;}
	.st49{fill:#8D7FB6;}
	.st50{fill:#88BA40;}
	.st51{fill:#FDE7AA;}
	.st52{fill:#7FB239;}
	.st53{fill:#45CBEA;}
	.st54{fill:#ACB9C1;}
	.st55{fill:#DAE5EF;}
	.st56{fill:#7CA740;}
	.st57{fill:#88BF40;}
	.st58{fill:#85BB40;}
	.st59{fill:#FFF100;}
	.st60{fill:#FFDD00;}
	.st61{fill:#F29A2E;}
	.st62{fill:#3E4347;}
	.st63{fill:#59A5E0;}
	.st64{fill:#2F3133;}
	.st65{fill:#EDEDEF;}
	.st66{fill:#4E99D2;}
	.st67{fill:#A5856D;}
</style>
<g id="XMLID_1937_">
	<path id="XMLID_1950_" class="st15" d="M23.551,21.195c0,4.17-3.381,7.551-7.551,7.551C16,24.576,19.381,21.195,23.551,21.195z"/>
	<path id="XMLID_1942_" class="st15" d="M8.449,21.195c0,4.17,3.381,7.551,7.551,7.551C16,24.576,12.619,21.195,8.449,21.195z"/>
	<g id="XMLID_1141_">
		<rect id="XMLID_1949_" x="15.375" y="13.019" class="st22" width="1.25" height="18.982"/>
	</g>
	<g id="XMLID_1945_">
		<path id="XMLID_1958_" class="st33" d="M23.848,14.275c0,4.335-3.513,7.848-7.848,7.848s-7.848-3.513-7.848-7.848
			c0-1.495,0.424-3.787,1.146-6.129c0.972-3.164,2.467-6.478,4.285-8.147L16,1.867l2.442-1.869c1.794,1.669,3.314,4.983,4.285,8.147
			C23.425,10.488,23.848,12.78,23.848,14.275z"/>
		<g id="XMLID_1938_">
			<path id="XMLID_1944_" class="st30" d="M23.172,19.151c-3.962,3.962-10.385,3.962-14.347,0s-3.962-10.385,0-14.347
				C11.048,2.582,24.026,18.298,23.172,19.151z"/>
			<path id="XMLID_1941_" class="st23" d="M8.828,19.151c3.962,3.962,10.385,3.962,14.347,0s3.962-10.385,0-14.347
				C20.952,2.582,7.974,18.298,8.828,19.151z"/>
		</g>
	</g>
</g>
</svg>
