<?xml version="1.0" encoding="utf-8"?>
<!-- Generator: Adobe Illustrator 21.1.0, SVG Export Plug-In . SVG Version: 6.00 Build 0)  -->
<svg version="1.1" id="Layer_1" xmlns="http://www.w3.org/2000/svg" xmlns:xlink="http://www.w3.org/1999/xlink" x="0px" y="0px"
	 viewBox="0 0 32 32" style="enable-background:new 0 0 32 32;" xml:space="preserve">
<style type="text/css">
	.st0{fill:#FFD83B;}
	.st1{fill:#F2F2F2;}
	.st2{fill:#F3C432;}
	.st3{fill:#DEE4E9;}
	.st4{fill:#E9EFF4;}
	.st5{fill:#6DAFDF;}
	.st6{fill:#5CA3D9;}
	.st7{fill:#4D98D2;}
	.st8{fill:#E8EFF3;}
	.st9{fill:#DDE3E9;}
	.st10{fill:#4CC6E5;}
	.st11{opacity:0.05;fill:#2F3133;}
	.st12{fill:#E14B4B;}
	.st13{fill:#D3D9DD;}
	.st14{fill:#65B1EF;}
	.st15{fill:#8CC63E;}
	.st16{fill:#E84D88;}
	.st17{fill:#A4856D;}
	.st18{fill:#8BC540;}
	.st19{fill:#7FB241;}
	.st20{fill:#8E6D53;}
	.st21{fill:#FFFFFF;}
	.st22{fill:#9A795F;}
	.st23{fill:#E24B4B;}
	.st24{fill:#F2992D;}
	.st25{fill:#DF8726;}
	.st26{fill:#997960;}
	.st27{fill:#FFD93B;}
	.st28{fill:#E8AF2A;}
	.st29{fill:#D23F77;}
	.st30{fill:#D03F3F;}
	.st31{fill:#BF3332;}
	.st32{fill:#D03F3E;}
	.st33{fill:#BF3333;}
	.st34{fill:#F4C534;}
	.st35{fill:#8F6D52;}
	.st36{fill:#E9B02C;}
	.st37{fill:#5A5F63;}
	.st38{fill:#F4F4F4;}
	.st39{fill:#E74C87;}
	.st40{fill:#D24078;}
	.st41{fill:#5B5F63;}
	.st42{fill:#3F4347;}
	.st43{fill:#719C40;}
	.st44{fill:#7B5C45;}
	.st45{fill:#BB3166;}
	.st46{fill:#89664C;}
	.st47{fill:#77589F;}
	.st48{fill:#8066AA;}
	.st49{fill:#8D7FB6;}
	.st50{fill:#88BA40;}
	.st51{fill:#FDE7AA;}
	.st52{fill:#7FB239;}
	.st53{fill:#45CBEA;}
	.st54{fill:#ACB9C1;}
	.st55{fill:#DAE5EF;}
	.st56{fill:#7CA740;}
	.st57{fill:#88BF40;}
	.st58{fill:#85BB40;}
	.st59{fill:#FFF100;}
	.st60{fill:#FFDD00;}
	.st61{fill:#F29A2E;}
	.st62{fill:#3E4347;}
	.st63{fill:#59A5E0;}
	.st64{fill:#2F3133;}
	.st65{fill:#EDEDEF;}
	.st66{fill:#4E99D2;}
	.st67{fill:#A5856D;}
</style>
<g id="XMLID_1659_">
	<g id="XMLID_1612_">
		<g id="XMLID_1610_">
			<path id="XMLID_1609_" class="st2" d="M18.446,2.467C18.446,3.818,16,14.655,16,14.655S13.554,3.818,13.554,2.467
				S14.649,0.021,16,0.021S18.446,1.116,18.446,2.467z"/>
			<path id="XMLID_1611_" class="st2" d="M13.554,29.533c0-1.351,2.446-12.188,2.446-12.188s2.446,10.837,2.446,12.188
				c0,1.351-1.095,2.446-2.446,2.446S13.554,30.884,13.554,29.533z"/>
			<path id="XMLID_1614_" class="st2" d="M18.446,2.467C18.446,3.818,16,14.655,16,14.655S13.554,3.818,13.554,2.467
				S14.649,0.021,16,0.021S18.446,1.116,18.446,2.467z"/>
			<path id="XMLID_1613_" class="st2" d="M13.554,29.533c0-1.351,2.446-12.188,2.446-12.188s2.446,10.837,2.446,12.188
				c0,1.351-1.095,2.446-2.446,2.446S13.554,30.884,13.554,29.533z"/>
		</g>
		<g id="XMLID_1615_">
			<path id="XMLID_1620_" class="st0" d="M14.86,2.295C15.21,3.6,15.652,14.7,15.652,14.7s-5.168-9.835-5.517-11.139
				s0.425-2.646,1.73-2.996S14.51,0.99,14.86,2.295z"/>
			<path id="XMLID_1619_" class="st0" d="M17.14,29.705C16.79,28.4,16.348,17.3,16.348,17.3s5.168,9.835,5.517,11.139
				s-0.425,2.646-1.73,2.996C18.831,31.785,17.49,31.01,17.14,29.705z"/>
			<path id="XMLID_1617_" class="st0" d="M14.86,2.295C15.21,3.6,15.652,14.7,15.652,14.7s-5.168-9.835-5.517-11.139
				s0.425-2.646,1.73-2.996S14.51,0.99,14.86,2.295z"/>
			<path id="XMLID_1616_" class="st0" d="M17.14,29.705C16.79,28.4,16.348,17.3,16.348,17.3s5.168,9.835,5.517,11.139
				s-0.425,2.646-1.73,2.996C18.831,31.785,17.49,31.01,17.14,29.705z"/>
		</g>
		<g id="XMLID_1622_">
			<path id="XMLID_1626_" class="st2" d="M11.352,3.057c0.675,1.17,3.976,11.778,3.976,11.778S7.79,6.673,7.115,5.503
				S6.84,2.837,8.01,2.161S10.676,1.887,11.352,3.057z"/>
			<path id="XMLID_1625_" class="st2" d="M20.648,28.943c-0.675-1.17-3.976-11.778-3.976-11.778s7.537,8.162,8.212,9.332
				c0.675,1.17,0.275,2.666-0.895,3.341C22.82,30.514,21.324,30.113,20.648,28.943z"/>
			<path id="XMLID_1624_" class="st2" d="M11.352,3.057c0.675,1.17,3.976,11.778,3.976,11.778S7.79,6.673,7.115,5.503
				S6.84,2.837,8.01,2.161S10.676,1.887,11.352,3.057z"/>
			<path id="XMLID_1623_" class="st2" d="M20.648,28.943c-0.675-1.17-3.976-11.778-3.976-11.778s7.537,8.162,8.212,9.332
				c0.675,1.17,0.275,2.666-0.895,3.341C22.82,30.514,21.324,30.113,20.648,28.943z"/>
		</g>
		<g id="XMLID_1627_">
			<path id="XMLID_1633_" class="st0" d="M8.16,4.701c0.955,0.955,6.888,10.348,6.888,10.348S5.656,9.115,4.701,8.16
				s-0.955-2.504,0-3.459S7.205,3.746,8.16,4.701z"/>
			<path id="XMLID_1632_" class="st0" d="M23.84,27.299c-0.955-0.955-6.888-10.348-6.888-10.348s9.392,5.933,10.348,6.888
				s0.955,2.504,0,3.459S24.795,28.254,23.84,27.299z"/>
			<path id="XMLID_1631_" class="st0" d="M8.16,4.701c0.955,0.955,6.888,10.348,6.888,10.348S5.656,9.115,4.701,8.16
				s-0.955-2.504,0-3.459S7.205,3.746,8.16,4.701z"/>
			<path id="XMLID_1630_" class="st0" d="M23.84,27.299c-0.955-0.955-6.888-10.348-6.888-10.348s9.392,5.933,10.348,6.888
				s0.955,2.504,0,3.459S24.795,28.254,23.84,27.299z"/>
		</g>
		<g id="XMLID_1634_">
			<path id="XMLID_1638_" class="st2" d="M5.503,7.115c1.17,0.675,9.332,8.212,9.332,8.212s-10.608-3.3-11.778-3.976
				S1.486,9.18,2.161,8.01S4.333,6.44,5.503,7.115z"/>
			<path id="XMLID_1637_" class="st2" d="M26.497,24.885c-1.17-0.675-9.332-8.212-9.332-8.212s10.608,3.3,11.778,3.976
				c1.17,0.675,1.571,2.171,0.895,3.341C29.163,25.16,27.667,25.56,26.497,24.885z"/>
			<path id="XMLID_1636_" class="st2" d="M5.503,7.115c1.17,0.675,9.332,8.212,9.332,8.212s-10.608-3.3-11.778-3.976
				S1.486,9.18,2.161,8.01S4.333,6.44,5.503,7.115z"/>
			<path id="XMLID_1635_" class="st2" d="M26.497,24.885c-1.17-0.675-9.332-8.212-9.332-8.212s10.608,3.3,11.778,3.976
				c1.17,0.675,1.571,2.171,0.895,3.341C29.163,25.16,27.667,25.56,26.497,24.885z"/>
		</g>
		<g id="XMLID_1639_">
			<path id="XMLID_1643_" class="st0" d="M3.561,10.135c1.305,0.35,11.139,5.517,11.139,5.517S3.6,15.21,2.295,14.86
				s-2.079-1.691-1.73-2.996S2.256,9.785,3.561,10.135z"/>
			<path id="XMLID_1642_" class="st0" d="M28.439,21.865c-1.305-0.35-11.139-5.517-11.139-5.517S28.4,16.79,29.705,17.14
				c1.305,0.35,2.079,1.691,1.73,2.996C31.085,21.441,29.744,22.215,28.439,21.865z"/>
			<path id="XMLID_1641_" class="st0" d="M3.561,10.135c1.305,0.35,11.139,5.517,11.139,5.517S3.6,15.21,2.295,14.86
				s-2.079-1.691-1.73-2.996S2.256,9.785,3.561,10.135z"/>
			<path id="XMLID_1640_" class="st0" d="M28.439,21.865c-1.305-0.35-11.139-5.517-11.139-5.517S28.4,16.79,29.705,17.14
				c1.305,0.35,2.079,1.691,1.73,2.996C31.085,21.441,29.744,22.215,28.439,21.865z"/>
		</g>
		<g id="XMLID_1644_">
			<path id="XMLID_1648_" class="st2" d="M2.467,13.554C3.818,13.554,14.655,16,14.655,16S3.818,18.446,2.467,18.446
				S0.021,17.351,0.021,16S1.116,13.554,2.467,13.554z"/>
			<path id="XMLID_1647_" class="st2" d="M29.533,18.446C28.182,18.446,17.345,16,17.345,16s10.837-2.446,12.188-2.446
				c1.351,0,2.446,1.095,2.446,2.446S30.884,18.446,29.533,18.446z"/>
			<path id="XMLID_1646_" class="st2" d="M2.467,13.554C3.818,13.554,14.655,16,14.655,16S3.818,18.446,2.467,18.446
				S0.021,17.351,0.021,16S1.116,13.554,2.467,13.554z"/>
			<path id="XMLID_1645_" class="st2" d="M29.533,18.446C28.182,18.446,17.345,16,17.345,16s10.837-2.446,12.188-2.446
				c1.351,0,2.446,1.095,2.446,2.446S30.884,18.446,29.533,18.446z"/>
		</g>
		<g id="XMLID_1649_">
			<path id="XMLID_1653_" class="st0" d="M2.295,17.14C3.6,16.79,14.7,16.348,14.7,16.348s-9.835,5.168-11.139,5.517
				s-2.646-0.425-2.996-1.73C0.215,18.831,0.99,17.49,2.295,17.14z"/>
			<path id="XMLID_1652_" class="st0" d="M29.705,14.86C28.4,15.21,17.3,15.652,17.3,15.652s9.835-5.168,11.139-5.517
				s2.646,0.425,2.996,1.73C31.785,13.169,31.01,14.51,29.705,14.86z"/>
			<path id="XMLID_1651_" class="st0" d="M2.295,17.14C3.6,16.79,14.7,16.348,14.7,16.348s-9.835,5.168-11.139,5.517
				s-2.646-0.425-2.996-1.73C0.215,18.831,0.99,17.49,2.295,17.14z"/>
			<path id="XMLID_1650_" class="st0" d="M29.705,14.86C28.4,15.21,17.3,15.652,17.3,15.652s9.835-5.168,11.139-5.517
				s2.646,0.425,2.996,1.73C31.785,13.169,31.01,14.51,29.705,14.86z"/>
		</g>
		<g id="XMLID_1654_">
			<path id="XMLID_1658_" class="st2" d="M3.057,20.648c1.17-0.675,11.778-3.976,11.778-3.976s-8.162,7.537-9.332,8.212
				S2.837,25.16,2.161,23.99C1.486,22.82,1.887,21.324,3.057,20.648z"/>
			<path id="XMLID_1657_" class="st2" d="M28.943,11.352c-1.17,0.675-11.778,3.976-11.778,3.976s8.162-7.537,9.332-8.212
				c1.17-0.675,2.666-0.275,3.341,0.895S30.113,10.676,28.943,11.352z"/>
			<path id="XMLID_1656_" class="st2" d="M3.057,20.648c1.17-0.675,11.778-3.976,11.778-3.976s-8.162,7.537-9.332,8.212
				S2.837,25.16,2.161,23.99C1.486,22.82,1.887,21.324,3.057,20.648z"/>
			<path id="XMLID_1655_" class="st2" d="M28.943,11.352c-1.17,0.675-11.778,3.976-11.778,3.976s8.162-7.537,9.332-8.212
				c1.17-0.675,2.666-0.275,3.341,0.895S30.113,10.676,28.943,11.352z"/>
		</g>
		<g id="XMLID_1704_">
			<path id="XMLID_1708_" class="st0" d="M4.701,23.84c0.955-0.955,10.348-6.888,10.348-6.888S9.115,26.344,8.16,27.299
				s-2.504,0.955-3.459,0S3.746,24.795,4.701,23.84z"/>
			<path id="XMLID_1707_" class="st0" d="M27.299,8.16c-0.955,0.955-10.348,6.888-10.348,6.888s5.933-9.392,6.888-10.348
				s2.504-0.955,3.459,0S28.254,7.205,27.299,8.16z"/>
			<path id="XMLID_1706_" class="st0" d="M4.701,23.84c0.955-0.955,10.348-6.888,10.348-6.888S9.115,26.344,8.16,27.299
				s-2.504,0.955-3.459,0S3.746,24.795,4.701,23.84z"/>
			<path id="XMLID_1705_" class="st0" d="M27.299,8.16c-0.955,0.955-10.348,6.888-10.348,6.888s5.933-9.392,6.888-10.348
				s2.504-0.955,3.459,0S28.254,7.205,27.299,8.16z"/>
		</g>
		<g id="XMLID_1709_">
			<path id="XMLID_1713_" class="st2" d="M7.115,26.497c0.675-1.17,8.212-9.332,8.212-9.332s-3.3,10.608-3.976,11.778
				c-0.675,1.17-2.171,1.571-3.341,0.895S6.44,27.667,7.115,26.497z"/>
			<path id="XMLID_1712_" class="st2" d="M24.885,5.503c-0.675,1.17-8.212,9.332-8.212,9.332s3.3-10.608,3.976-11.778
				s2.171-1.571,3.341-0.895C25.16,2.837,25.56,4.333,24.885,5.503z"/>
			<path id="XMLID_1711_" class="st2" d="M7.115,26.497c0.675-1.17,8.212-9.332,8.212-9.332s-3.3,10.608-3.976,11.778
				c-0.675,1.17-2.171,1.571-3.341,0.895S6.44,27.667,7.115,26.497z"/>
			<path id="XMLID_1710_" class="st2" d="M24.885,5.503c-0.675,1.17-8.212,9.332-8.212,9.332s3.3-10.608,3.976-11.778
				s2.171-1.571,3.341-0.895C25.16,2.837,25.56,4.333,24.885,5.503z"/>
		</g>
		<g id="XMLID_1714_">
			<path id="XMLID_1718_" class="st0" d="M10.135,28.439c0.35-1.305,5.517-11.139,5.517-11.139S15.21,28.4,14.86,29.705
				c-0.35,1.305-1.691,2.079-2.996,1.73C10.559,31.085,9.785,29.744,10.135,28.439z"/>
			<path id="XMLID_1717_" class="st0" d="M21.865,3.561C21.516,4.866,16.348,14.7,16.348,14.7S16.79,3.6,17.14,2.295
				s1.691-2.079,2.996-1.73C21.441,0.915,22.215,2.256,21.865,3.561z"/>
			<path id="XMLID_1716_" class="st0" d="M10.135,28.439c0.35-1.305,5.517-11.139,5.517-11.139S15.21,28.4,14.86,29.705
				c-0.35,1.305-1.691,2.079-2.996,1.73C10.559,31.085,9.785,29.744,10.135,28.439z"/>
			<path id="XMLID_1715_" class="st0" d="M21.865,3.561C21.516,4.866,16.348,14.7,16.348,14.7S16.79,3.6,17.14,2.295
				s1.691-2.079,2.996-1.73C21.441,0.915,22.215,2.256,21.865,3.561z"/>
		</g>
	</g>
	<path id="XMLID_1768_" class="st28" d="M16.659,17.811c0,0,0.502,3.932,1.088,8.098C16.873,21.794,16,17.928,16,17.928
		s-0.873,3.867-1.747,7.981c0.586-4.165,1.088-8.098,1.088-8.098s-2.143,3.336-4.373,6.904c1.975-3.715,3.793-7.239,3.793-7.239
		s-3.154,2.401-6.469,4.991c3.126-2.815,6.039-5.504,6.039-5.504s-3.785,1.178-7.786,2.478c3.9-1.576,7.557-3.107,7.557-3.107
		S10.141,16.147,5.936,16c4.205-0.147,8.165-0.335,8.165-0.335s-3.657-1.531-7.557-3.107c4.001,1.3,7.786,2.478,7.786,2.478
		s-2.912-2.689-6.039-5.504c3.315,2.59,6.469,4.991,6.469,4.991S12.944,11,10.969,7.285c2.229,3.568,4.372,6.903,4.372,6.903
		s-0.502-3.932-1.088-8.098C15.127,10.206,16,14.072,16,14.072s0.873-3.867,1.747-7.981c-0.586,4.165-1.088,8.098-1.088,8.098
		s2.143-3.335,4.372-6.902c-1.975,3.714-3.792,7.237-3.792,7.237s3.155-2.402,6.47-4.992c-3.126,2.815-6.039,5.505-6.039,5.505
		s3.785-1.178,7.786-2.478c-3.9,1.576-7.557,3.107-7.557,3.107s3.961,0.188,8.165,0.335c-4.205,0.147-8.165,0.335-8.165,0.335
		s3.657,1.531,7.557,3.107c-4.001-1.3-7.786-2.478-7.786-2.478s2.913,2.69,6.039,5.505c-3.315-2.59-6.47-4.992-6.47-4.992
		s1.817,3.523,3.792,7.238C18.802,21.147,16.659,17.811,16.659,17.811z"/>
	<circle id="XMLID_1719_" class="st12" cx="16" cy="16" r="3.149"/>
</g>
</svg>
