<?xml version="1.0" encoding="utf-8"?>
<!-- Generator: Adobe Illustrator 21.1.0, SVG Export Plug-In . SVG Version: 6.00 Build 0)  -->
<svg version="1.1" id="Layer_1" xmlns="http://www.w3.org/2000/svg" xmlns:xlink="http://www.w3.org/1999/xlink" x="0px" y="0px"
	 viewBox="0 0 32 32" style="enable-background:new 0 0 32 32;" xml:space="preserve">
<style type="text/css">
	.st0{fill:#FFD83B;}
	.st1{fill:#F2F2F2;}
	.st2{fill:#F3C432;}
	.st3{fill:#DEE4E9;}
	.st4{fill:#E9EFF4;}
	.st5{fill:#6DAFDF;}
	.st6{fill:#5CA3D9;}
	.st7{fill:#4D98D2;}
	.st8{fill:#E8EFF3;}
	.st9{fill:#DDE3E9;}
	.st10{fill:#4CC6E5;}
	.st11{opacity:0.05;fill:#2F3133;}
	.st12{fill:#E14B4B;}
	.st13{fill:#D3D9DD;}
	.st14{fill:#65B1EF;}
	.st15{fill:#8CC63E;}
	.st16{fill:#E84D88;}
	.st17{fill:#A4856D;}
	.st18{fill:#8BC540;}
	.st19{fill:#7FB241;}
	.st20{fill:#8E6D53;}
	.st21{fill:#FFFFFF;}
	.st22{fill:#9A795F;}
	.st23{fill:#E24B4B;}
	.st24{fill:#F2992D;}
	.st25{fill:#DF8726;}
	.st26{fill:#997960;}
	.st27{fill:#FFD93B;}
	.st28{fill:#E8AF2A;}
	.st29{fill:#D23F77;}
	.st30{fill:#D03F3F;}
	.st31{fill:#BF3332;}
	.st32{fill:#D03F3E;}
	.st33{fill:#BF3333;}
	.st34{fill:#F4C534;}
	.st35{fill:#8F6D52;}
	.st36{fill:#E9B02C;}
	.st37{fill:#5A5F63;}
	.st38{fill:#F4F4F4;}
	.st39{fill:#E74C87;}
	.st40{fill:#D24078;}
	.st41{fill:#5B5F63;}
	.st42{fill:#3F4347;}
	.st43{fill:#719C40;}
	.st44{fill:#7B5C45;}
	.st45{fill:#BB3166;}
	.st46{fill:#89664C;}
	.st47{fill:#77589F;}
	.st48{fill:#8066AA;}
	.st49{fill:#8D7FB6;}
	.st50{fill:#88BA40;}
	.st51{fill:#FDE7AA;}
	.st52{fill:#7FB239;}
	.st53{fill:#45CBEA;}
	.st54{fill:#ACB9C1;}
	.st55{fill:#DAE5EF;}
	.st56{fill:#7CA740;}
	.st57{fill:#88BF40;}
	.st58{fill:#85BB40;}
	.st59{fill:#FFF100;}
	.st60{fill:#FFDD00;}
	.st61{fill:#F29A2E;}
	.st62{fill:#3E4347;}
	.st63{fill:#59A5E0;}
	.st64{fill:#2F3133;}
	.st65{fill:#EDEDEF;}
	.st66{fill:#4E99D2;}
	.st67{fill:#A5856D;}
</style>
<g id="XMLID_2016_">
	<g id="XMLID_2017_">
		<path id="XMLID_2018_" class="st39" d="M18.576,0c-0.31,0-0.61,0.047-0.891,0.133c-1.087,0.334-2.283,0.334-3.37,0
			C14.033,0.047,13.734,0,13.424,0c-1.687,0-3.055,1.368-3.055,3.055c0,1.688,2.787,10.991,5.631,10.991s5.631-9.303,5.631-10.991
			C21.631,1.368,20.263,0,18.576,0z"/>
		<path id="XMLID_2020_" class="st39" d="M13.424,32c0.31,0,0.61-0.047,0.891-0.133c1.087-0.334,2.283-0.334,3.37,0
			C17.967,31.953,18.266,32,18.576,32c1.687,0,3.055-1.368,3.055-3.055c0-1.688-2.787-10.991-5.631-10.991
			c-2.844,0-5.631,9.303-5.631,10.991C10.369,30.632,11.737,32,13.424,32z"/>
	</g>
	<g id="XMLID_2031_">
		<path id="XMLID_2033_" class="st39" d="M29.135,6.508c-0.22-0.22-0.464-0.398-0.724-0.536c-1.005-0.533-1.85-1.378-2.383-2.383
			c-0.138-0.26-0.316-0.505-0.536-0.724c-1.193-1.193-3.128-1.193-4.321,0c-1.193,1.193-5.801,9.743-3.79,11.754
			s10.561-2.596,11.754-3.79C30.328,9.636,30.328,7.701,29.135,6.508z"/>
		<path id="XMLID_2032_" class="st39" d="M2.865,25.492c0.22,0.22,0.464,0.398,0.724,0.536c1.005,0.533,1.85,1.378,2.383,2.383
			c0.138,0.26,0.316,0.505,0.536,0.724c1.193,1.193,3.128,1.193,4.321,0c1.193-1.193,5.801-9.743,3.79-11.754
			s-10.561,2.596-11.754,3.79C1.672,22.364,1.672,24.299,2.865,25.492z"/>
	</g>
	<g id="XMLID_2034_">
		<path id="XMLID_2052_" class="st40" d="M29.135,6.508c-0.22-0.22-0.464-0.398-0.724-0.536c-1.005-0.533-1.85-1.378-2.383-2.383
			c-0.138-0.26-0.316-0.505-0.536-0.724c-1.193-1.193-3.128-1.193-4.321,0c-1.193,1.193-5.801,9.743-3.79,11.754
			s10.561-2.596,11.754-3.79C30.328,9.636,30.328,7.701,29.135,6.508z"/>
		<path id="XMLID_2051_" class="st40" d="M2.865,25.492c0.22,0.22,0.464,0.398,0.724,0.536c1.005,0.533,1.85,1.378,2.383,2.383
			c0.138,0.26,0.316,0.505,0.536,0.724c1.193,1.193,3.128,1.193,4.321,0c1.193-1.193,5.801-9.743,3.79-11.754
			s-10.561,2.596-11.754,3.79C1.672,22.364,1.672,24.299,2.865,25.492z"/>
	</g>
	<g id="XMLID_2053_">
		<path id="XMLID_2055_" class="st39" d="M32,18.576c0-0.31-0.047-0.61-0.133-0.891c-0.334-1.087-0.334-2.283,0-3.37
			C31.953,14.033,32,13.734,32,13.424c0-1.687-1.368-3.055-3.055-3.055c-1.688,0-10.991,2.787-10.991,5.631
			c0,2.844,9.303,5.631,10.991,5.631C30.632,21.631,32,20.263,32,18.576z"/>
		<path id="XMLID_2054_" class="st39" d="M0,13.424c0,0.31,0.047,0.61,0.133,0.891c0.334,1.087,0.334,2.283,0,3.37
			C0.047,17.967,0,18.266,0,18.576c0,1.687,1.368,3.055,3.055,3.055c1.688,0,10.991-2.787,10.991-5.631s-9.303-5.631-10.991-5.631
			C1.368,10.369,0,11.737,0,13.424z"/>
	</g>
	<g id="XMLID_2056_">
		<path id="XMLID_2058_" class="st40" d="M25.492,29.135c0.22-0.22,0.398-0.464,0.536-0.724c0.533-1.005,1.378-1.85,2.383-2.383
			c0.26-0.138,0.505-0.316,0.724-0.536c1.193-1.193,1.193-3.128,0-4.321c-1.193-1.193-9.743-5.801-11.754-3.79
			s2.596,10.561,3.79,11.754C22.364,30.328,24.299,30.328,25.492,29.135z"/>
		<path id="XMLID_2057_" class="st40" d="M6.508,2.865c-0.22,0.22-0.398,0.464-0.536,0.724c-0.533,1.005-1.378,1.85-2.383,2.383
			C3.329,6.11,3.084,6.288,2.865,6.508c-1.193,1.193-1.193,3.128,0,4.321c1.193,1.193,9.743,5.801,11.754,3.79
			s-2.596-10.561-3.79-11.754C9.636,1.672,7.701,1.672,6.508,2.865z"/>
	</g>
	<g>
		<circle id="XMLID_2014_" class="st21" cx="16" cy="16" r="5.127"/>
	</g>
	<circle id="XMLID_686_" class="st0" cx="16" cy="16" r="3.252"/>
</g>
</svg>
