<?xml version="1.0" encoding="utf-8"?>
<!-- Generator: Adobe Illustrator 21.1.0, SVG Export Plug-In . SVG Version: 6.00 Build 0)  -->
<svg version="1.1" id="Layer_1" xmlns="http://www.w3.org/2000/svg" xmlns:xlink="http://www.w3.org/1999/xlink" x="0px" y="0px"
	 viewBox="0 0 32 32" style="enable-background:new 0 0 32 32;" xml:space="preserve">
<style type="text/css">
	.st0{fill:#FFD83B;}
	.st1{fill:#F2F2F2;}
	.st2{fill:#F3C432;}
	.st3{fill:#DEE4E9;}
	.st4{fill:#E9EFF4;}
	.st5{fill:#6DAFDF;}
	.st6{fill:#5CA3D9;}
	.st7{fill:#4D98D2;}
	.st8{fill:#E8EFF3;}
	.st9{fill:#DDE3E9;}
	.st10{fill:#4CC6E5;}
	.st11{opacity:0.05;fill:#2F3133;}
	.st12{fill:#E14B4B;}
	.st13{fill:#D3D9DD;}
	.st14{fill:#65B1EF;}
	.st15{fill:#8CC63E;}
	.st16{fill:#E84D88;}
	.st17{fill:#A4856D;}
	.st18{fill:#8BC540;}
	.st19{fill:#7FB241;}
	.st20{fill:#8E6D53;}
	.st21{fill:#FFFFFF;}
	.st22{fill:#9A795F;}
	.st23{fill:#E24B4B;}
	.st24{fill:#F2992D;}
	.st25{fill:#DF8726;}
	.st26{fill:#997960;}
	.st27{fill:#FFD93B;}
	.st28{fill:#E8AF2A;}
	.st29{fill:#D23F77;}
	.st30{fill:#D03F3F;}
	.st31{fill:#BF3332;}
	.st32{fill:#D03F3E;}
	.st33{fill:#BF3333;}
	.st34{fill:#F4C534;}
	.st35{fill:#8F6D52;}
	.st36{fill:#E9B02C;}
	.st37{fill:#5A5F63;}
	.st38{fill:#F4F4F4;}
	.st39{fill:#E74C87;}
	.st40{fill:#D24078;}
	.st41{fill:#5B5F63;}
	.st42{fill:#3F4347;}
	.st43{fill:#719C40;}
	.st44{fill:#7B5C45;}
	.st45{fill:#BB3166;}
	.st46{fill:#89664C;}
	.st47{fill:#77589F;}
	.st48{fill:#8066AA;}
	.st49{fill:#8D7FB6;}
	.st50{fill:#88BA40;}
	.st51{fill:#FDE7AA;}
	.st52{fill:#7FB239;}
	.st53{fill:#45CBEA;}
	.st54{fill:#ACB9C1;}
	.st55{fill:#DAE5EF;}
	.st56{fill:#7CA740;}
	.st57{fill:#88BF40;}
	.st58{fill:#85BB40;}
	.st59{fill:#FFF100;}
	.st60{fill:#FFDD00;}
	.st61{fill:#F29A2E;}
	.st62{fill:#3E4347;}
	.st63{fill:#59A5E0;}
	.st64{fill:#2F3133;}
	.st65{fill:#EDEDEF;}
	.st66{fill:#4E99D2;}
	.st67{fill:#A5856D;}
</style>
<g>
	<g id="XMLID_1973_">
		<g id="XMLID_1974_">
			<path class="st34" d="M22.185,9.969c-2.51,2.52-6.18,2.93-6.18,2.93s0.41-3.67,2.93-6.19c2.52-2.52,6.19-2.93,6.19-2.93
				S24.705,7.449,22.185,9.969z"/>
			<path class="st34" d="M13.065,6.709c2.52,2.52,2.94,6.19,2.94,6.19s-3.67-0.41-6.19-2.93c-2.52-2.52-2.94-6.19-2.94-6.19
				S10.545,4.189,13.065,6.709z"/>
			<path class="st34" d="M22.185,15.839c2.52,2.52,2.94,6.18,2.94,6.18s-3.67-0.41-6.19-2.93c-2.52-2.52-2.93-6.19-2.93-6.19
				S19.675,13.319,22.185,15.839z"/>
			<path class="st34" d="M9.815,15.839c2.52-2.52,6.19-2.94,6.19-2.94s-0.42,3.67-2.94,6.19c-2.52,2.52-6.19,2.93-6.19,2.93
				S7.295,18.359,9.815,15.839z"/>
		</g>
	</g>
	<g id="XMLID_1993_">
		<g id="XMLID_1992_">
			<path id="XMLID_2001_" class="st15" d="M22.864,23.725c0,3.791-3.073,6.863-6.863,6.863C16,26.798,19.073,23.725,22.864,23.725z"
				/>
			<path id="XMLID_2000_" class="st15" d="M9.137,23.725c0,3.791,3.073,6.863,6.863,6.863C16,26.798,12.928,23.725,9.137,23.725z"/>
			<rect id="XMLID_1999_" x="15.375" y="13.018" class="st35" width="1.25" height="18.982"/>
		</g>
		<g id="XMLID_1991_">
			<g id="XMLID_1980_">
				<g id="XMLID_1966_">
					<g id="XMLID_1967_">
						<path class="st27" d="M22.455,15.199c-3.35,0-6.09-2.02-6.42-2.27c0.25,0.33,2.27,3.08,2.27,6.42c0,3.57-2.3,6.45-2.3,6.45
							s-2.31-2.88-2.31-6.45c0-3.34,2.03-6.09,2.28-6.42c-0.33,0.25-3.08,2.27-6.43,2.27c-3.56,0-6.45-2.3-6.45-2.3
							s2.89-2.3,6.45-2.3c3.35,0,6.1,2.02,6.43,2.27c-0.25-0.33-2.28-3.08-2.28-6.42c0-3.56,2.31-6.45,2.31-6.45s2.3,2.89,2.3,6.45
							c0,3.34-2.02,6.09-2.27,6.42c0.33-0.25,3.07-2.27,6.42-2.27c3.56,0,6.45,2.3,6.45,2.3S26.015,15.199,22.455,15.199z"/>
					</g>
				</g>
			</g>
			<g id="XMLID_1140_">
				<circle id="XMLID_1981_" class="st36" cx="16" cy="12.902" r="3.908"/>
			</g>
			<g id="XMLID_684_">
				<circle id="XMLID_685_" class="st37" cx="16" cy="12.902" r="2.506"/>
			</g>
		</g>
	</g>
</g>
</svg>
