<?xml version="1.0" encoding="utf-8"?>
<!-- Generator: Adobe Illustrator 21.1.0, SVG Export Plug-In . SVG Version: 6.00 Build 0)  -->
<svg version="1.1" id="Layer_1" xmlns="http://www.w3.org/2000/svg" xmlns:xlink="http://www.w3.org/1999/xlink" x="0px" y="0px"
	 viewBox="0 0 32 32" style="enable-background:new 0 0 32 32;" xml:space="preserve">
<style type="text/css">
	.st0{fill:#FFD83B;}
	.st1{fill:#F2F2F2;}
	.st2{fill:#F3C432;}
	.st3{fill:#DEE4E9;}
	.st4{fill:#E9EFF4;}
	.st5{fill:#6DAFDF;}
	.st6{fill:#5CA3D9;}
	.st7{fill:#4D98D2;}
	.st8{fill:#E8EFF3;}
	.st9{fill:#DDE3E9;}
	.st10{fill:#4CC6E5;}
	.st11{opacity:0.05;fill:#2F3133;}
	.st12{fill:#E14B4B;}
	.st13{fill:#D3D9DD;}
	.st14{fill:#65B1EF;}
	.st15{fill:#8CC63E;}
	.st16{fill:#E84D88;}
	.st17{fill:#A4856D;}
	.st18{fill:#8BC540;}
	.st19{fill:#7FB241;}
	.st20{fill:#8E6D53;}
	.st21{fill:#FFFFFF;}
	.st22{fill:#9A795F;}
	.st23{fill:#E24B4B;}
	.st24{fill:#F2992D;}
	.st25{fill:#DF8726;}
	.st26{fill:#997960;}
	.st27{fill:#FFD93B;}
	.st28{fill:#E8AF2A;}
	.st29{fill:#D23F77;}
	.st30{fill:#D03F3F;}
	.st31{fill:#BF3332;}
	.st32{fill:#D03F3E;}
	.st33{fill:#BF3333;}
	.st34{fill:#F4C534;}
	.st35{fill:#8F6D52;}
	.st36{fill:#E9B02C;}
	.st37{fill:#5A5F63;}
	.st38{fill:#F4F4F4;}
	.st39{fill:#E74C87;}
	.st40{fill:#D24078;}
	.st41{fill:#5B5F63;}
	.st42{fill:#3F4347;}
	.st43{fill:#719C40;}
	.st44{fill:#7B5C45;}
	.st45{fill:#BB3166;}
	.st46{fill:#89664C;}
	.st47{fill:#77589F;}
	.st48{fill:#8066AA;}
	.st49{fill:#8D7FB6;}
	.st50{fill:#88BA40;}
	.st51{fill:#FDE7AA;}
	.st52{fill:#7FB239;}
	.st53{fill:#45CBEA;}
	.st54{fill:#ACB9C1;}
	.st55{fill:#DAE5EF;}
	.st56{fill:#7CA740;}
	.st57{fill:#88BF40;}
	.st58{fill:#85BB40;}
	.st59{fill:#FFF100;}
	.st60{fill:#FFDD00;}
	.st61{fill:#F29A2E;}
	.st62{fill:#3E4347;}
	.st63{fill:#59A5E0;}
	.st64{fill:#2F3133;}
	.st65{fill:#EDEDEF;}
	.st66{fill:#4E99D2;}
	.st67{fill:#A5856D;}
</style>
<g>
	<g id="XMLID_2584_">
		<g>
			<rect x="15.11" y="14.976" class="st26" width="1.78" height="7.396"/>
		</g>
		<g>
			<path class="st34" d="M23.153,26.964l-2.22,3.84c-0.4,0.69-1.13,1.11-1.93,1.11h-6c-0.8,0-1.54-0.42-1.94-1.11l-2.21-3.84
				c-0.34-0.6-0.34-1.35,0-1.95l0.8-1.38h12.7l0.8,1.38C23.493,25.614,23.493,26.364,23.153,26.964z"/>
		</g>
		<path id="XMLID_2644_" class="st40" d="M11.303,7.47c-0.08-0.08-0.152-0.164-0.225-0.249C8.702,7.389,6.826,9.26,6.826,9.26
			s2.054,2.055,4.587,2.055S16,9.26,16,9.26S13.095,9.261,11.303,7.47z"/>
		<path id="XMLID_2641_" class="st39" d="M14.21,13.957c-1.791,1.791-4.697,1.79-4.697,1.79s-0.001-2.905,1.79-4.697
			S16,9.26,16,9.26S16.001,12.166,14.21,13.957z"/>
		<path id="XMLID_2640_" class="st40" d="M18.055,13.847c0,2.533-2.055,4.587-2.055,4.587s-2.055-2.054-2.055-4.587S16,9.26,16,9.26
			S18.055,11.314,18.055,13.847z"/>
		<path id="XMLID_2638_" class="st39" d="M17.79,13.957C15.999,12.166,16,9.26,16,9.26s2.905-0.001,4.697,1.79
			c1.791,1.791,1.79,4.697,1.79,4.697S19.582,15.748,17.79,13.957z"/>
		<path id="XMLID_2637_" class="st40" d="M20.587,11.315C18.054,11.315,16,9.26,16,9.26s2.054-2.055,4.587-2.055
			s4.587,2.055,4.587,2.055S23.12,11.315,20.587,11.315z"/>
		<path id="XMLID_2635_" class="st39" d="M20.697,7.47C18.905,9.261,16,9.26,16,9.26s-0.001-2.905,1.79-4.697s4.697-1.79,4.697-1.79
			S22.488,5.679,20.697,7.47z"/>
		<path id="XMLID_2631_" class="st40" d="M16,0.086c0,0-1.871,1.876-2.039,4.252c0.084,0.073,0.169,0.145,0.248,0.225
			C16.001,6.355,16,9.26,16,9.26s2.055-2.054,2.055-4.587S16,0.086,16,0.086z"/>
		<g>
			<path class="st39" d="M16.002,9.264c0,0-2.91,0-4.7-1.79c-0.08-0.08-0.15-0.17-0.22-0.25c-1.57-1.8-1.57-4.45-1.57-4.45
				s2.65,0,4.45,1.56c0.08,0.08,0.17,0.15,0.25,0.23C16.002,6.354,16.002,9.264,16.002,9.264z"/>
		</g>
		<g>
			<circle id="XMLID_2583_" class="st21" cx="16" cy="9.26" r="2.991"/>
		</g>
		<g>
			<circle id="XMLID_2579_" class="st61" cx="16" cy="9.26" r="1.801"/>
		</g>
	</g>
	<g>
		<path class="st27" d="M23.74,23.007c0,0.47-0.38,0.84-0.85,0.84H9.1c-0.47,0-0.84-0.37-0.84-0.84c0-0.46,0.37-0.84,0.84-0.84
			h13.79C23.36,22.166,23.74,22.547,23.74,23.007z"/>
	</g>
</g>
</svg>
