<?xml version="1.0" encoding="utf-8"?>
<!-- Generator: Adobe Illustrator 21.1.0, SVG Export Plug-In . SVG Version: 6.00 Build 0)  -->
<svg version="1.1" id="Layer_1" xmlns="http://www.w3.org/2000/svg" xmlns:xlink="http://www.w3.org/1999/xlink" x="0px" y="0px"
	 viewBox="0 0 32 32" style="enable-background:new 0 0 32 32;" xml:space="preserve">
<style type="text/css">
	.st0{fill:#FFD83B;}
	.st1{fill:#F2F2F2;}
	.st2{fill:#F3C432;}
	.st3{fill:#DEE4E9;}
	.st4{fill:#E9EFF4;}
	.st5{fill:#6DAFDF;}
	.st6{fill:#5CA3D9;}
	.st7{fill:#4D98D2;}
	.st8{fill:#E8EFF3;}
	.st9{fill:#DDE3E9;}
	.st10{fill:#4CC6E5;}
	.st11{opacity:0.05;fill:#2F3133;}
	.st12{fill:#E14B4B;}
	.st13{fill:#D3D9DD;}
	.st14{fill:#65B1EF;}
	.st15{fill:#8CC63E;}
	.st16{fill:#E84D88;}
	.st17{fill:#A4856D;}
	.st18{fill:#8BC540;}
	.st19{fill:#7FB241;}
	.st20{fill:#8E6D53;}
	.st21{fill:#FFFFFF;}
	.st22{fill:#9A795F;}
	.st23{fill:#E24B4B;}
	.st24{fill:#F2992D;}
	.st25{fill:#DF8726;}
	.st26{fill:#997960;}
	.st27{fill:#FFD93B;}
	.st28{fill:#E8AF2A;}
	.st29{fill:#D23F77;}
	.st30{fill:#D03F3F;}
	.st31{fill:#BF3332;}
	.st32{fill:#D03F3E;}
	.st33{fill:#BF3333;}
	.st34{fill:#F4C534;}
	.st35{fill:#8F6D52;}
	.st36{fill:#E9B02C;}
	.st37{fill:#5A5F63;}
	.st38{fill:#F4F4F4;}
	.st39{fill:#E74C87;}
	.st40{fill:#D24078;}
	.st41{fill:#5B5F63;}
	.st42{fill:#3F4347;}
	.st43{fill:#719C40;}
	.st44{fill:#7B5C45;}
	.st45{fill:#BB3166;}
	.st46{fill:#89664C;}
	.st47{fill:#77589F;}
	.st48{fill:#8066AA;}
	.st49{fill:#8D7FB6;}
	.st50{fill:#88BA40;}
	.st51{fill:#FDE7AA;}
	.st52{fill:#7FB239;}
	.st53{fill:#45CBEA;}
	.st54{fill:#ACB9C1;}
	.st55{fill:#DAE5EF;}
	.st56{fill:#7CA740;}
	.st57{fill:#88BF40;}
	.st58{fill:#85BB40;}
	.st59{fill:#FFF100;}
	.st60{fill:#FFDD00;}
	.st61{fill:#F29A2E;}
	.st62{fill:#3E4347;}
	.st63{fill:#59A5E0;}
	.st64{fill:#2F3133;}
	.st65{fill:#EDEDEF;}
	.st66{fill:#4E99D2;}
	.st67{fill:#A5856D;}
</style>
<g>
	<path id="XMLID_2402_" class="st18" d="M18.183,27.449L18.183,27.449L18.183,27.449c5.232-0.272,8.979-4.019,9.251-9.251
		C22.202,18.47,18.455,22.217,18.183,27.449z"/>
	<path id="XMLID_2406_" class="st43" d="M25.045,20.587l-6.795,6.156c-0.027,0.234-0.055,0.467-0.067,0.706v0h0
		c0.24-0.013,0.473-0.04,0.706-0.067L25.045,20.587z"/>
	<path id="XMLID_2408_" class="st18" d="M17.206,30.435L17.206,30.435L17.206,30.435c-4.305-0.224-7.388-3.307-7.612-7.612
		C13.899,23.048,16.982,26.13,17.206,30.435z"/>
	<path id="XMLID_2407_" class="st43" d="M11.56,24.79l5.591,5.064c0.022,0.192,0.045,0.384,0.055,0.581v0h0
		c-0.197-0.01-0.389-0.033-0.581-0.055L11.56,24.79z"/>
	<path id="XMLID_2688_" class="st26" d="M15.767,32c-0.034-0.803,0.11-1.584,0.43-2.321c2.179-5.02,2.033-10.445-0.4-14.884
		c-1.16-2.117-2.08-3.498-2.089-3.512l1.363-0.911c0.039,0.058,0.966,1.45,2.164,3.635c2.679,4.886,2.849,10.836,0.467,16.325
		c-0.22,0.507-0.32,1.045-0.296,1.598L15.767,32z"/>
	<path id="XMLID_2686_" class="st12" d="M12.521,14.063c-5.844,10.122-13.556-3.236-1.868-3.236c-11.688,0-3.976-13.358,1.868-3.236
		c-5.844-10.122,9.58-10.122,3.736,0c5.844-10.122,13.556,3.236,1.868,3.236c11.688,0,3.976,13.358-1.868,3.236
		C22.101,24.185,6.677,24.185,12.521,14.063z"/>
	<circle id="XMLID_2685_" class="st0" cx="14.389" cy="10.827" r="3.461"/>
	<circle id="XMLID_2684_" class="st21" cx="14.389" cy="10.827" r="1.835"/>
</g>
</svg>
