<?xml version="1.0" encoding="utf-8"?>
<!-- Generator: Adobe Illustrator 21.1.0, SVG Export Plug-In . SVG Version: 6.00 Build 0)  -->
<svg version="1.1" id="Layer_1" xmlns="http://www.w3.org/2000/svg" xmlns:xlink="http://www.w3.org/1999/xlink" x="0px" y="0px"
	 viewBox="0 0 32 32" style="enable-background:new 0 0 32 32;" xml:space="preserve">
<style type="text/css">
	.st0{fill:#FFD83B;}
	.st1{fill:#F2F2F2;}
	.st2{fill:#F3C432;}
	.st3{fill:#DEE4E9;}
	.st4{fill:#E9EFF4;}
	.st5{fill:#6DAFDF;}
	.st6{fill:#5CA3D9;}
	.st7{fill:#4D98D2;}
	.st8{fill:#E8EFF3;}
	.st9{fill:#DDE3E9;}
	.st10{fill:#4CC6E5;}
	.st11{opacity:0.05;fill:#2F3133;}
	.st12{fill:#E14B4B;}
	.st13{fill:#D3D9DD;}
	.st14{fill:#65B1EF;}
	.st15{fill:#8CC63E;}
	.st16{fill:#E84D88;}
	.st17{fill:#A4856D;}
	.st18{fill:#8BC540;}
	.st19{fill:#7FB241;}
	.st20{fill:#8E6D53;}
	.st21{fill:#FFFFFF;}
	.st22{fill:#9A795F;}
	.st23{fill:#E24B4B;}
	.st24{fill:#F2992D;}
	.st25{fill:#DF8726;}
	.st26{fill:#997960;}
	.st27{fill:#FFD93B;}
	.st28{fill:#E8AF2A;}
	.st29{fill:#D23F77;}
	.st30{fill:#D03F3F;}
	.st31{fill:#BF3332;}
	.st32{fill:#D03F3E;}
	.st33{fill:#BF3333;}
	.st34{fill:#F4C534;}
	.st35{fill:#8F6D52;}
	.st36{fill:#E9B02C;}
	.st37{fill:#5A5F63;}
	.st38{fill:#F4F4F4;}
	.st39{fill:#E74C87;}
	.st40{fill:#D24078;}
	.st41{fill:#5B5F63;}
	.st42{fill:#3F4347;}
	.st43{fill:#719C40;}
	.st44{fill:#7B5C45;}
	.st45{fill:#BB3166;}
	.st46{fill:#89664C;}
	.st47{fill:#77589F;}
	.st48{fill:#8066AA;}
	.st49{fill:#8D7FB6;}
	.st50{fill:#88BA40;}
	.st51{fill:#FDE7AA;}
	.st52{fill:#7FB239;}
	.st53{fill:#45CBEA;}
	.st54{fill:#ACB9C1;}
	.st55{fill:#DAE5EF;}
	.st56{fill:#7CA740;}
	.st57{fill:#88BF40;}
	.st58{fill:#85BB40;}
	.st59{fill:#FFF100;}
	.st60{fill:#FFDD00;}
	.st61{fill:#F29A2E;}
	.st62{fill:#3E4347;}
	.st63{fill:#59A5E0;}
	.st64{fill:#2F3133;}
	.st65{fill:#EDEDEF;}
	.st66{fill:#4E99D2;}
	.st67{fill:#A5856D;}
</style>
<g id="XMLID_3976_">
	<g id="XMLID_3975_">
		<rect id="XMLID_3994_" x="11.606" y="8.83" class="st26" width="1.02" height="20.813"/>
		<path id="XMLID_3991_" class="st26" d="M21.035,14.264c-5.498,2.033-9.425,7.306-9.425,13.51c0.34,0,0.68,0,1.021,0
			c0-5.632,3.48-10.444,8.404-12.424V14.264z"/>
		<path id="XMLID_3993_" class="st12" d="M18.284,6.161c0-0.955-0.701-1.741-1.615-1.886c0.544-0.749,0.484-1.8-0.191-2.476
			c-0.675-0.675-1.727-0.735-2.476-0.191c-0.145-0.914-0.931-1.615-1.886-1.615s-1.741,0.701-1.886,1.615
			c-0.749-0.544-1.8-0.484-2.476,0.191S7.019,3.526,7.563,4.275C6.649,4.42,5.948,5.205,5.948,6.161s0.701,1.741,1.615,1.886
			c-0.544,0.749-0.484,1.8,0.191,2.476c0.675,0.675,1.727,0.735,2.476,0.191c0.145,0.914,0.931,1.615,1.886,1.615
			c0.955,0,1.741-0.701,1.886-1.615c0.749,0.544,1.8,0.484,2.476-0.191c0.675-0.675,0.735-1.727,0.191-2.476
			C17.583,7.901,18.284,7.116,18.284,6.161z"/>
		<circle id="XMLID_3992_" class="st21" cx="12.116" cy="6.161" r="2.431"/>
		<path id="XMLID_3990_" class="st18" d="M25.957,16.112c0-0.955-0.701-1.741-1.615-1.886c0.544-0.749,0.484-1.8-0.191-2.476
			c-0.675-0.675-1.727-0.735-2.476-0.191c-0.145-0.914-0.931-1.615-1.886-1.615s-1.741,0.701-1.886,1.615
			c-0.749-0.544-1.8-0.484-2.476,0.191s-0.735,1.727-0.191,2.476c-0.914,0.145-1.615,0.931-1.615,1.886s0.701,1.741,1.615,1.886
			c-0.544,0.749-0.484,1.8,0.191,2.476c0.675,0.675,1.727,0.735,2.476,0.191c0.145,0.914,0.931,1.615,1.886,1.615
			c0.955,0,1.741-0.701,1.886-1.615c0.749,0.544,1.8,0.484,2.476-0.191c0.675-0.675,0.735-1.727,0.191-2.476
			C25.256,17.852,25.957,17.067,25.957,16.112z"/>
		<circle id="XMLID_3989_" class="st21" cx="19.789" cy="16.112" r="2.431"/>
		<circle id="XMLID_656_" class="st18" cx="19.789" cy="16.112" r="1.43"/>
		<circle id="XMLID_657_" class="st12" cx="12.116" cy="6.161" r="1.43"/>
	</g>
	<g id="XMLID_3977_">
		<path id="XMLID_3982_" class="st2" d="M28.241,32.008c-0.431-1.613-1.888-2.808-3.637-2.808c-0.603,0-1.164,0.154-1.67,0.405
			c-0.343-1.735-1.87-3.044-3.705-3.044c-0.505,0-0.986,0.103-1.426,0.283c-0.307-1.22-1.403-2.127-2.718-2.127
			c-1.119,0-2.076,0.658-2.529,1.604c-0.626-0.46-1.391-0.74-2.227-0.74c-1.787,0-3.276,1.245-3.67,2.912
			c-1.618,0.382-2.828,1.798-2.898,3.515H28.241z"/>
	</g>
</g>
</svg>
