<?xml version="1.0" encoding="utf-8"?>
<!-- Generator: Adobe Illustrator 21.1.0, SVG Export Plug-In . SVG Version: 6.00 Build 0)  -->
<svg version="1.1" id="Layer_1" xmlns="http://www.w3.org/2000/svg" xmlns:xlink="http://www.w3.org/1999/xlink" x="0px" y="0px"
	 viewBox="0 0 32 32" style="enable-background:new 0 0 32 32;" xml:space="preserve">
<style type="text/css">
	.st0{fill:#FFD83B;}
	.st1{fill:#F2F2F2;}
	.st2{fill:#F3C432;}
	.st3{fill:#DEE4E9;}
	.st4{fill:#E9EFF4;}
	.st5{fill:#6DAFDF;}
	.st6{fill:#5CA3D9;}
	.st7{fill:#4D98D2;}
	.st8{fill:#E8EFF3;}
	.st9{fill:#DDE3E9;}
	.st10{fill:#4CC6E5;}
	.st11{opacity:0.05;fill:#2F3133;}
	.st12{fill:#E14B4B;}
	.st13{fill:#D3D9DD;}
	.st14{fill:#65B1EF;}
	.st15{fill:#8CC63E;}
	.st16{fill:#E84D88;}
	.st17{fill:#A4856D;}
	.st18{fill:#8BC540;}
	.st19{fill:#7FB241;}
	.st20{fill:#8E6D53;}
	.st21{fill:#FFFFFF;}
	.st22{fill:#9A795F;}
	.st23{fill:#E24B4B;}
	.st24{fill:#F2992D;}
	.st25{fill:#DF8726;}
	.st26{fill:#997960;}
	.st27{fill:#FFD93B;}
	.st28{fill:#E8AF2A;}
	.st29{fill:#D23F77;}
	.st30{fill:#D03F3F;}
	.st31{fill:#BF3332;}
	.st32{fill:#D03F3E;}
	.st33{fill:#BF3333;}
	.st34{fill:#F4C534;}
	.st35{fill:#8F6D52;}
	.st36{fill:#E9B02C;}
	.st37{fill:#5A5F63;}
	.st38{fill:#F4F4F4;}
	.st39{fill:#E74C87;}
	.st40{fill:#D24078;}
	.st41{fill:#5B5F63;}
	.st42{fill:#3F4347;}
	.st43{fill:#719C40;}
	.st44{fill:#7B5C45;}
	.st45{fill:#BB3166;}
	.st46{fill:#89664C;}
	.st47{fill:#77589F;}
	.st48{fill:#8066AA;}
	.st49{fill:#8D7FB6;}
	.st50{fill:#88BA40;}
	.st51{fill:#FDE7AA;}
	.st52{fill:#7FB239;}
	.st53{fill:#45CBEA;}
	.st54{fill:#ACB9C1;}
	.st55{fill:#DAE5EF;}
	.st56{fill:#7CA740;}
	.st57{fill:#88BF40;}
	.st58{fill:#85BB40;}
	.st59{fill:#FFF100;}
	.st60{fill:#FFDD00;}
	.st61{fill:#F29A2E;}
	.st62{fill:#3E4347;}
	.st63{fill:#59A5E0;}
	.st64{fill:#2F3133;}
	.st65{fill:#EDEDEF;}
	.st66{fill:#4E99D2;}
	.st67{fill:#A5856D;}
</style>
<g id="XMLID_3651_">
	<g id="XMLID_3631_">
		<g id="XMLID_3630_">
			<path id="XMLID_3620_" class="st23" d="M24.961,16.445c2.537,0.346,3.581-1.324,4-2.513c0.313-0.89,0.675-1.762,1.108-2.6
				C31.905,7.773,32,5.17,32,5.17c-0.488-2.651-5.272-0.152-5.272-0.152c-5.607,2.346-9.934,10.178-9.934,10.178v2.864
				C16.794,18.06,20.939,15.896,24.961,16.445z"/>
			<path id="XMLID_3619_" class="st0" d="M25.394,16.484c-0.139-0.007-0.283-0.019-0.433-0.04c-4.022-0.548-8.167,1.615-8.167,1.615
				v3.108c0,0,2.06,7.368,5.576,6.43c0,0,3.565-0.853,5.698-5.637C29.258,19.293,27.332,17.526,25.394,16.484z"/>
			<path id="XMLID_3622_" class="st2" d="M18.587,19.223c0.785-0.314,3.572-0.679,5.154-0.864c0.937-0.11,1.887,0.235,2.48,0.969
				c0.683,0.845,0.384,1.517,0.212,1.903c-1.71,3.836-4.387,4.646-4.503,4.63C19.936,25.589,18.587,19.223,18.587,19.223z"/>
			<path id="XMLID_3617_" class="st30" d="M17.75,16.142c0,0,4.554-10.892,9.278-6.736c0.974,0.857,1.345,4.041,0.495,5.005
				C26.069,16.059,18.576,16.544,17.75,16.142z"/>
			<circle id="XMLID_3602_" class="st21" cx="28.803" cy="4.988" r="0.368"/>
			<circle id="XMLID_3601_" class="st21" cx="30.012" cy="5.357" r="0.368"/>
			<circle id="XMLID_3600_" class="st21" cx="25.704" cy="7.514" r="0.368"/>
			<circle id="XMLID_3599_" class="st21" cx="30.477" cy="6.567" r="0.286"/>
			<circle id="XMLID_3598_" class="st21" cx="28.978" cy="9.691" r="0.286"/>
			<circle id="XMLID_3597_" class="st21" cx="27.81" cy="8.49" r="0.607"/>
			<g id="XMLID_316_">
				<path id="XMLID_3623_" class="st23" d="M18.821,15.657c0.219-0.816,0.824-1.831,1.291-2.536c0.699-0.922,1.23-1.57,2.334-2.352
					c0.468-0.364,1.271-0.803,2.576-1.206c-0.84,0.384-1.688,0.776-2.443,1.388c-1,0.768-1.389,1.183-2.285,2.303
					C19.785,13.992,19.271,14.657,18.821,15.657z"/>
				<path id="XMLID_3624_" class="st23" d="M21.466,13.97c0.24-0.49,0.895-1.331,2.042-2.223c0.852-0.6,1.613-1.055,2.677-1.401
					c-0.979,0.606-1.267,0.693-2.524,1.606C22.915,12.535,22.066,13.248,21.466,13.97z"/>
				<path id="XMLID_3625_" class="st23" d="M20.805,15.657c0.35-0.498,1.219-1.199,1.716-1.486c0.848-0.541,1.539-0.773,2.431-1.043
					c0.866-0.222,1.413-0.267,2.252-0.297c-0.981,0.196-1.032,0.18-2.19,0.514c-0.759,0.257-1.687,0.609-2.378,1.02
					C21.872,14.785,21.188,15.294,20.805,15.657z"/>
			</g>
			<g id="XMLID_3629_">
				<path id="XMLID_3626_" class="st0" d="M20.455,19.184c1-0.323,2.875-0.006,3.942,1.175
					C23.397,19.817,22.567,19.275,20.455,19.184z"/>
				<path id="XMLID_3627_" class="st0" d="M19.444,19.757c0.798,0.167,2.102,0.701,3.102,1.377c0.992,0.685,1.816,1.544,1.852,2.75
					c-0.242-1.131-1.042-1.897-1.997-2.539C21.478,20.704,20.406,20.19,19.444,19.757z"/>
				<path id="XMLID_3628_" class="st0" d="M19.9,21.82c1,0.313,2.841,1.578,2.714,2.945C22.327,23.646,21.585,23.073,19.9,21.82z"/>
			</g>
		</g>
		<g id="XMLID_3632_">
			<path id="XMLID_3650_" class="st23" d="M7.039,16.445c-2.537,0.346-3.581-1.324-4-2.513c-0.313-0.89-0.675-1.762-1.108-2.6
				C0.095,7.773,0,5.17,0,5.17c0.488-2.651,5.272-0.152,5.272-0.152c5.607,2.346,9.934,10.178,9.934,10.178v2.864
				C15.206,18.06,11.061,15.896,7.039,16.445z"/>
			<path id="XMLID_3649_" class="st0" d="M6.606,16.484c0.139-0.007,0.283-0.019,0.433-0.04c4.022-0.548,8.167,1.615,8.167,1.615
				v3.108c0,0-2.06,7.368-5.576,6.43c0,0-3.565-0.853-5.698-5.637C2.742,19.293,4.668,17.526,6.606,16.484z"/>
			<path id="XMLID_3648_" class="st2" d="M13.413,19.223c-0.785-0.314-3.572-0.679-5.154-0.864c-0.937-0.11-1.887,0.235-2.48,0.969
				c-0.683,0.845-0.384,1.517-0.212,1.903c1.71,3.836,4.387,4.646,4.503,4.63C12.064,25.589,13.413,19.223,13.413,19.223z"/>
			<path id="XMLID_3647_" class="st30" d="M14.25,16.142c0,0-4.554-10.892-9.278-6.736c-0.974,0.857-1.345,4.041-0.495,5.005
				C5.931,16.059,13.424,16.544,14.25,16.142z"/>
			<circle id="XMLID_3646_" class="st21" cx="3.197" cy="4.988" r="0.368"/>
			<circle id="XMLID_3645_" class="st21" cx="1.988" cy="5.357" r="0.368"/>
			<circle id="XMLID_3644_" class="st21" cx="6.296" cy="7.514" r="0.368"/>
			<circle id="XMLID_3643_" class="st21" cx="1.523" cy="6.567" r="0.286"/>
			<circle id="XMLID_3642_" class="st21" cx="3.022" cy="9.691" r="0.286"/>
			<circle id="XMLID_3641_" class="st21" cx="4.19" cy="8.49" r="0.607"/>
			<g id="XMLID_3637_">
				<path id="XMLID_3640_" class="st23" d="M13.179,15.657c-0.232-0.864-0.807-1.806-1.291-2.536
					c-0.772-1.018-1.33-1.641-2.334-2.352c-0.468-0.364-1.271-0.803-2.576-1.206c0.84,0.384,1.688,0.776,2.443,1.388
					c0.781,0.6,1.317,1.094,2.285,2.303C12.302,14.118,12.699,14.589,13.179,15.657z"/>
				<path id="XMLID_3639_" class="st23" d="M10.534,13.97c-0.249-0.509-0.903-1.337-2.042-2.223
					c-0.799-0.562-1.563-1.039-2.677-1.401c1,0.619,1.075,0.553,2.524,1.606C9.123,12.565,9.903,13.212,10.534,13.97z"/>
				<path id="XMLID_3638_" class="st23" d="M11.195,15.657c-0.643-0.915-1.889-1.618-2.892-2.1
					c-1.462-0.611-2.507-0.691-3.507-0.727c1,0.2,2.136,0.415,3.406,0.962C9.241,14.276,10.337,14.845,11.195,15.657z"/>
			</g>
			<g id="XMLID_3633_">
				<path id="XMLID_3636_" class="st0" d="M11.545,19.184c-0.427-0.138-1.314-0.167-2.126,0.07
					c-0.718,0.194-1.366,0.606-1.816,1.105c0.655-0.354,1.029-0.633,1.887-0.859c0.246-0.078,0.5-0.126,0.738-0.175
					C10.724,19.242,11.015,19.207,11.545,19.184z"/>
				<path id="XMLID_3635_" class="st0" d="M12.556,19.757c-1,0.21-2.999,1.049-4.069,2.188c-0.701,0.724-0.867,1.327-0.885,1.938
					c0.139-0.649,0.301-1.051,1.045-1.779C9.608,21.157,11.33,20.308,12.556,19.757z"/>
				<path id="XMLID_3634_" class="st0" d="M12.1,21.82c-1,0.313-2.841,1.576-2.714,2.945C9.673,23.646,10.413,23.074,12.1,21.82z"/>
			</g>
		</g>
	</g>
	<g>
		<g>
			<path id="XMLID_3589_" class="st42" d="M17.017,20.481c-0.678,0-1.355,0-2.033,0c-0.457-1.845-0.457-3.758,0-5.602
				c0.678,0,1.355,0,2.033,0C17.473,16.723,17.473,18.636,17.017,20.481z"/>
		</g>
		<path id="XMLID_424_" class="st41" d="M16,28.049L16,28.049c-0.267,0-0.488-0.187-0.505-0.428l-0.511-7.14h2.033l-0.511,7.14
			C16.488,27.862,16.267,28.049,16,28.049z"/>
		<g id="XMLID_420_">
			<g id="XMLID_422_">
				<path id="XMLID_3621_" class="st42" d="M16.326,13.493c-0.017,0-0.034-0.002-0.051-0.007c-0.085-0.026-0.131-0.109-0.103-0.186
					c0.063-0.17,1.567-4.176,4.293-5.762c0.074-0.045,0.176-0.024,0.224,0.044c0.049,0.068,0.027,0.159-0.049,0.203
					c-2.631,1.531-4.146,5.568-4.161,5.608C16.457,13.454,16.394,13.493,16.326,13.493z"/>
			</g>
			<g id="XMLID_421_">
				<path id="XMLID_3596_" class="st42" d="M15.674,13.493c-0.068,0-0.131-0.039-0.154-0.1c-0.015-0.041-1.532-4.079-4.161-5.608
					c-0.076-0.044-0.097-0.135-0.049-0.203c0.049-0.068,0.15-0.088,0.224-0.044c2.726,1.586,4.231,5.592,4.293,5.762
					c0.028,0.077-0.018,0.16-0.103,0.186C15.708,13.491,15.691,13.493,15.674,13.493z"/>
			</g>
		</g>
		<path id="XMLID_423_" class="st41" d="M16.493,13.281h-0.985c-0.289,0-0.524,0.235-0.524,0.524v1.073h2.033v-1.073
			C17.017,13.516,16.782,13.281,16.493,13.281z"/>
	</g>
</g>
</svg>
