<?xml version="1.0" encoding="utf-8"?>
<!-- Generator: Adobe Illustrator 21.1.0, SVG Export Plug-In . SVG Version: 6.00 Build 0)  -->
<svg version="1.1" id="Layer_1" xmlns="http://www.w3.org/2000/svg" xmlns:xlink="http://www.w3.org/1999/xlink" x="0px" y="0px"
	 viewBox="0 0 32 32" style="enable-background:new 0 0 32 32;" xml:space="preserve">
<style type="text/css">
	.st0{fill:#FFD83B;}
	.st1{fill:#F2F2F2;}
	.st2{fill:#F3C432;}
	.st3{fill:#DEE4E9;}
	.st4{fill:#E9EFF4;}
	.st5{fill:#6DAFDF;}
	.st6{fill:#5CA3D9;}
	.st7{fill:#4D98D2;}
	.st8{fill:#E8EFF3;}
	.st9{fill:#DDE3E9;}
	.st10{fill:#4CC6E5;}
	.st11{opacity:0.05;fill:#2F3133;}
	.st12{fill:#E14B4B;}
	.st13{fill:#D3D9DD;}
	.st14{fill:#65B1EF;}
	.st15{fill:#8CC63E;}
	.st16{fill:#E84D88;}
	.st17{fill:#A4856D;}
	.st18{fill:#8BC540;}
	.st19{fill:#7FB241;}
	.st20{fill:#8E6D53;}
	.st21{fill:#FFFFFF;}
	.st22{fill:#9A795F;}
	.st23{fill:#E24B4B;}
	.st24{fill:#F2992D;}
	.st25{fill:#DF8726;}
	.st26{fill:#997960;}
	.st27{fill:#FFD93B;}
	.st28{fill:#E8AF2A;}
	.st29{fill:#D23F77;}
	.st30{fill:#D03F3F;}
	.st31{fill:#BF3332;}
	.st32{fill:#D03F3E;}
	.st33{fill:#BF3333;}
	.st34{fill:#F4C534;}
	.st35{fill:#8F6D52;}
	.st36{fill:#E9B02C;}
	.st37{fill:#5A5F63;}
	.st38{fill:#F4F4F4;}
	.st39{fill:#E74C87;}
	.st40{fill:#D24078;}
	.st41{fill:#5B5F63;}
	.st42{fill:#3F4347;}
	.st43{fill:#719C40;}
	.st44{fill:#7B5C45;}
	.st45{fill:#BB3166;}
	.st46{fill:#89664C;}
	.st47{fill:#77589F;}
	.st48{fill:#8066AA;}
	.st49{fill:#8D7FB6;}
	.st50{fill:#88BA40;}
	.st51{fill:#FDE7AA;}
	.st52{fill:#7FB239;}
	.st53{fill:#45CBEA;}
	.st54{fill:#ACB9C1;}
	.st55{fill:#DAE5EF;}
	.st56{fill:#7CA740;}
	.st57{fill:#88BF40;}
	.st58{fill:#85BB40;}
	.st59{fill:#FFF100;}
	.st60{fill:#FFDD00;}
	.st61{fill:#F29A2E;}
	.st62{fill:#3E4347;}
	.st63{fill:#59A5E0;}
	.st64{fill:#2F3133;}
	.st65{fill:#EDEDEF;}
	.st66{fill:#4E99D2;}
	.st67{fill:#A5856D;}
</style>
<g id="XMLID_236_">
	<ellipse id="XMLID_3480_" class="st0" cx="16" cy="16" rx="4.048" ry="16"/>
	
		<ellipse id="XMLID_3479_" transform="matrix(0.7071 -0.7071 0.7071 0.7071 -6.6274 16)" class="st0" cx="16" cy="16" rx="16" ry="4.048"/>
	<ellipse id="XMLID_3478_" class="st0" cx="16" cy="16" rx="16" ry="4.048"/>
	
		<ellipse id="XMLID_3477_" transform="matrix(0.7071 -0.7071 0.7071 0.7071 -6.6274 16)" class="st0" cx="16" cy="16" rx="4.048" ry="16"/>
	<g id="XMLID_3474_">
		<polygon id="XMLID_3476_" class="st28" points="15.375,11.54 16,4.476 16.625,11.54 		"/>
		<polygon id="XMLID_3475_" class="st28" points="16.625,20.46 16,27.524 15.375,20.46 		"/>
	</g>
	<g id="XMLID_2381_">
		<polygon id="XMLID_3473_" class="st28" points="18.712,12.404 24.148,7.852 19.596,13.288 		"/>
		<polygon id="XMLID_2382_" class="st28" points="13.288,19.596 7.852,24.148 12.404,18.712 		"/>
	</g>
	<g id="XMLID_2378_">
		<polygon id="XMLID_2380_" class="st28" points="20.46,15.375 27.524,16 20.46,16.625 		"/>
		<polygon id="XMLID_2379_" class="st28" points="11.54,16.625 4.476,16 11.54,15.375 		"/>
	</g>
	<g id="XMLID_2375_">
		<polygon id="XMLID_2377_" class="st28" points="19.596,18.712 24.148,24.148 18.712,19.596 		"/>
		<polygon id="XMLID_2376_" class="st28" points="12.404,13.288 7.852,7.852 13.288,12.404 		"/>
	</g>
	<circle id="XMLID_2374_" class="st21" cx="16" cy="16" r="4.845"/>
	<g>
		<circle id="XMLID_2371_" class="st12" cx="16" cy="16" r="2.873"/>
	</g>
</g>
</svg>
