<?xml version="1.0" encoding="utf-8"?>
<!-- Generator: Adobe Illustrator 21.1.0, SVG Export Plug-In . SVG Version: 6.00 Build 0)  -->
<svg version="1.1" id="Layer_1" xmlns="http://www.w3.org/2000/svg" xmlns:xlink="http://www.w3.org/1999/xlink" x="0px" y="0px"
	 viewBox="0 0 32 32" style="enable-background:new 0 0 32 32;" xml:space="preserve">
<style type="text/css">
	.st0{fill:#FFD83B;}
	.st1{fill:#F2F2F2;}
	.st2{fill:#F3C432;}
	.st3{fill:#DEE4E9;}
	.st4{fill:#E9EFF4;}
	.st5{fill:#6DAFDF;}
	.st6{fill:#5CA3D9;}
	.st7{fill:#4D98D2;}
	.st8{fill:#E8EFF3;}
	.st9{fill:#DDE3E9;}
	.st10{fill:#4CC6E5;}
	.st11{opacity:0.05;fill:#2F3133;}
	.st12{fill:#E14B4B;}
	.st13{fill:#D3D9DD;}
	.st14{fill:#65B1EF;}
	.st15{fill:#8CC63E;}
	.st16{fill:#E84D88;}
	.st17{fill:#A4856D;}
	.st18{fill:#8BC540;}
	.st19{fill:#7FB241;}
	.st20{fill:#8E6D53;}
	.st21{fill:#FFFFFF;}
	.st22{fill:#9A795F;}
	.st23{fill:#E24B4B;}
	.st24{fill:#F2992D;}
	.st25{fill:#DF8726;}
	.st26{fill:#997960;}
	.st27{fill:#FFD93B;}
	.st28{fill:#E8AF2A;}
	.st29{fill:#D23F77;}
	.st30{fill:#D03F3F;}
	.st31{fill:#BF3332;}
	.st32{fill:#D03F3E;}
	.st33{fill:#BF3333;}
	.st34{fill:#F4C534;}
	.st35{fill:#8F6D52;}
	.st36{fill:#E9B02C;}
	.st37{fill:#5A5F63;}
	.st38{fill:#F4F4F4;}
	.st39{fill:#E74C87;}
	.st40{fill:#D24078;}
	.st41{fill:#5B5F63;}
	.st42{fill:#3F4347;}
	.st43{fill:#719C40;}
	.st44{fill:#7B5C45;}
	.st45{fill:#BB3166;}
	.st46{fill:#89664C;}
	.st47{fill:#77589F;}
	.st48{fill:#8066AA;}
	.st49{fill:#8D7FB6;}
	.st50{fill:#88BA40;}
	.st51{fill:#FDE7AA;}
	.st52{fill:#7FB239;}
	.st53{fill:#45CBEA;}
	.st54{fill:#ACB9C1;}
	.st55{fill:#DAE5EF;}
	.st56{fill:#7CA740;}
	.st57{fill:#88BF40;}
	.st58{fill:#85BB40;}
	.st59{fill:#FFF100;}
	.st60{fill:#FFDD00;}
	.st61{fill:#F29A2E;}
	.st62{fill:#3E4347;}
	.st63{fill:#59A5E0;}
	.st64{fill:#2F3133;}
	.st65{fill:#EDEDEF;}
	.st66{fill:#4E99D2;}
	.st67{fill:#A5856D;}
</style>
<g id="XMLID_2891_">
	<path id="XMLID_2951_" class="st19" d="M16.991,21.648c0,3.791-3.073,6.863-6.863,6.863C10.128,24.721,13.201,21.648,16.991,21.648
		z"/>
	<g>
		<path id="XMLID_2987_" class="st46" d="M9.609,31.86h4.141c-2.845-6.207-5.1-12.74-6.101-21.285
			C7.325,7.386,6.965,5.112,9.372,2.85c3.723-3.393,10.337-1.497,10.958,4.806c-0.017-6.732-7.203-9.511-11.921-5.972
			c-3.502,2.687-3.164,6.026-3.061,9.073C5.681,17.596,7.163,25.464,9.609,31.86z"/>
	</g>
	<g id="XMLID_2877_">
		<path id="XMLID_2972_" class="st31" d="M16.095,13.518c4.024,2.477,12.713,4.906,12.713,4.906s-1.159-8.947-3.034-13.284
			L16.095,13.518z"/>
		<path id="XMLID_2958_" class="st12" d="M23.133,20.713c-1.384-9.658,3.741-11.261,2.543-15.329
			c-1.057-3.591-4.83-5.642-8.42-4.582s-5.642,4.83-4.583,8.42C13.733,12.812,23.133,20.713,23.133,20.713z"/>
		<path id="XMLID_2971_" class="st32" d="M31.96,13.071c-9.36-2.753-11.681,2.089-15.535,0.321c-3.403-1.561-4.892-5.588-3.329-8.99
			s5.588-4.892,8.99-3.329C25.488,2.636,31.96,13.071,31.96,13.071z"/>
	</g>
	<path id="XMLID_2956_" class="st19" d="M0.04,18.424c0,5.572,4.517,10.088,10.088,10.088C10.128,22.94,5.611,18.424,0.04,18.424z"
		/>
</g>
</svg>
