<?xml version="1.0" encoding="utf-8"?>
<!-- Generator: Adobe Illustrator 21.1.0, SVG Export Plug-In . SVG Version: 6.00 Build 0)  -->
<svg version="1.1" id="Layer_1" xmlns="http://www.w3.org/2000/svg" xmlns:xlink="http://www.w3.org/1999/xlink" x="0px" y="0px"
	 viewBox="0 0 32 32" style="enable-background:new 0 0 32 32;" xml:space="preserve">
<style type="text/css">
	.st0{fill:#FFD83B;}
	.st1{fill:#F2F2F2;}
	.st2{fill:#F3C432;}
	.st3{fill:#DEE4E9;}
	.st4{fill:#E9EFF4;}
	.st5{fill:#6DAFDF;}
	.st6{fill:#5CA3D9;}
	.st7{fill:#4D98D2;}
	.st8{fill:#E8EFF3;}
	.st9{fill:#DDE3E9;}
	.st10{fill:#4CC6E5;}
	.st11{opacity:0.05;fill:#2F3133;}
	.st12{fill:#E14B4B;}
	.st13{fill:#D3D9DD;}
	.st14{fill:#65B1EF;}
	.st15{fill:#8CC63E;}
	.st16{fill:#E84D88;}
	.st17{fill:#A4856D;}
	.st18{fill:#8BC540;}
	.st19{fill:#7FB241;}
	.st20{fill:#8E6D53;}
	.st21{fill:#FFFFFF;}
	.st22{fill:#9A795F;}
	.st23{fill:#E24B4B;}
	.st24{fill:#F2992D;}
	.st25{fill:#DF8726;}
	.st26{fill:#997960;}
	.st27{fill:#FFD93B;}
	.st28{fill:#E8AF2A;}
	.st29{fill:#D23F77;}
	.st30{fill:#D03F3F;}
	.st31{fill:#BF3332;}
	.st32{fill:#D03F3E;}
	.st33{fill:#BF3333;}
	.st34{fill:#F4C534;}
	.st35{fill:#8F6D52;}
	.st36{fill:#E9B02C;}
	.st37{fill:#5A5F63;}
	.st38{fill:#F4F4F4;}
	.st39{fill:#E74C87;}
	.st40{fill:#D24078;}
	.st41{fill:#5B5F63;}
	.st42{fill:#3F4347;}
	.st43{fill:#719C40;}
	.st44{fill:#7B5C45;}
	.st45{fill:#BB3166;}
	.st46{fill:#89664C;}
	.st47{fill:#77589F;}
	.st48{fill:#8066AA;}
	.st49{fill:#8D7FB6;}
	.st50{fill:#88BA40;}
	.st51{fill:#FDE7AA;}
	.st52{fill:#7FB239;}
	.st53{fill:#45CBEA;}
	.st54{fill:#ACB9C1;}
	.st55{fill:#DAE5EF;}
	.st56{fill:#7CA740;}
	.st57{fill:#88BF40;}
	.st58{fill:#85BB40;}
	.st59{fill:#FFF100;}
	.st60{fill:#FFDD00;}
	.st61{fill:#F29A2E;}
	.st62{fill:#3E4347;}
	.st63{fill:#59A5E0;}
	.st64{fill:#2F3133;}
	.st65{fill:#EDEDEF;}
	.st66{fill:#4E99D2;}
	.st67{fill:#A5856D;}
</style>
<g id="XMLID_2113_">
	<g>
		<rect id="XMLID_2112_" x="14.993" y="8.711" class="st26" width="2.016" height="11.535"/>
	</g>
	<g>
		<path class="st13" d="M23.84,21.669l-2.52,9.3c-0.17,0.61-0.72,1.03-1.35,1.03h-7.94c-0.63,0-1.18-0.42-1.35-1.03l-2.52-9.3H23.84
			z"/>
	</g>
	<g>
		<path class="st3" d="M25.14,21.669c0,0.79-0.64,1.42-1.42,1.42H8.28c-0.78,0-1.42-0.63-1.42-1.42c0-0.79,0.64-1.42,1.42-1.42
			h15.44C24.5,20.248,25.14,20.879,25.14,21.669z"/>
	</g>
	<g id="XMLID_2095_">
		<path id="XMLID_2111_" class="st32" d="M23.652,8.711c0.639-0.479,1.059-1.236,1.059-2.096c0-1.45-1.176-2.626-2.626-2.626
			c-0.646,0-2.017,0.937-3.339,1.976c1.039-1.322,1.976-2.693,1.976-3.339c0-1.45-1.176-2.626-2.626-2.626
			c-0.86,0-1.617,0.419-2.096,1.059c-0.479-0.639-1.236-1.059-2.096-1.059c-1.45,0-2.626,1.176-2.626,2.626
			c0,0.646,0.937,2.017,1.976,3.339C11.933,4.927,10.563,3.99,9.917,3.99c-1.45,0-2.626,1.176-2.626,2.626
			c0,0.86,0.419,1.617,1.059,2.096C7.71,9.19,7.291,9.947,7.291,10.807c0,1.45,1.176,2.626,2.626,2.626
			c0.646,0,2.017-0.937,3.339-1.976c-1.039,1.322-1.976,2.693-1.976,3.339c0,1.45,1.176,2.626,2.626,2.626
			c0.86,0,1.617-0.419,2.096-1.059c0.479,0.639,1.236,1.059,2.096,1.059c1.45,0,2.626-1.176,2.626-2.626
			c0-0.646-0.937-2.017-1.976-3.339c1.322,1.039,2.693,1.976,3.339,1.976c1.45,0,2.626-1.176,2.626-2.626
			C24.71,9.947,24.291,9.19,23.652,8.711z"/>
		<g>
			<path id="XMLID_2109_" class="st0" d="M19.996,8.711c0.334-0.25,0.553-0.645,0.553-1.094c0-0.757-0.614-1.371-1.371-1.371
				c-0.337,0-1.053,0.49-1.744,1.032c0.543-0.691,1.032-1.406,1.032-1.744c0-0.757-0.614-1.371-1.371-1.371
				c-0.449,0-0.844,0.219-1.095,0.553c-0.25-0.334-0.645-0.553-1.094-0.553c-0.757,0-1.371,0.614-1.371,1.371
				c0,0.337,0.49,1.053,1.032,1.744c-0.691-0.543-1.406-1.032-1.744-1.032c-0.757,0-1.371,0.614-1.371,1.371
				c0,0.449,0.219,0.844,0.553,1.094c-0.334,0.25-0.553,0.645-0.553,1.094c0,0.757,0.614,1.371,1.371,1.371
				c0.337,0,1.053-0.49,1.744-1.032c-0.543,0.691-1.032,1.406-1.032,1.744c0,0.757,0.614,1.371,1.371,1.371
				c0.449,0,0.844-0.219,1.094-0.553c0.25,0.334,0.645,0.553,1.095,0.553c0.757,0,1.371-0.614,1.371-1.371
				c0-0.337-0.49-1.053-1.032-1.744c0.691,0.543,1.407,1.032,1.744,1.032c0.757,0,1.371-0.614,1.371-1.371
				C20.549,9.357,20.33,8.961,19.996,8.711z"/>
		</g>
		<g>
			<circle id="XMLID_2100_" class="st21" cx="16.001" cy="8.711" r="2.352"/>
		</g>
	</g>
</g>
</svg>
