<?xml version="1.0" encoding="utf-8"?>
<!-- Generator: Adobe Illustrator 21.1.0, SVG Export Plug-In . SVG Version: 6.00 Build 0)  -->
<svg version="1.1" id="Layer_1" xmlns="http://www.w3.org/2000/svg" xmlns:xlink="http://www.w3.org/1999/xlink" x="0px" y="0px"
	 viewBox="0 0 32 32" style="enable-background:new 0 0 32 32;" xml:space="preserve">
<style type="text/css">
	.st0{fill:#FFD83B;}
	.st1{fill:#F2F2F2;}
	.st2{fill:#F3C432;}
	.st3{fill:#DEE4E9;}
	.st4{fill:#E9EFF4;}
	.st5{fill:#6DAFDF;}
	.st6{fill:#5CA3D9;}
	.st7{fill:#4D98D2;}
	.st8{fill:#E8EFF3;}
	.st9{fill:#DDE3E9;}
	.st10{fill:#4CC6E5;}
	.st11{opacity:0.05;fill:#2F3133;}
	.st12{fill:#E14B4B;}
	.st13{fill:#D3D9DD;}
	.st14{fill:#65B1EF;}
	.st15{fill:#8CC63E;}
	.st16{fill:#E84D88;}
	.st17{fill:#A4856D;}
	.st18{fill:#8BC540;}
	.st19{fill:#7FB241;}
	.st20{fill:#8E6D53;}
	.st21{fill:#FFFFFF;}
	.st22{fill:#9A795F;}
	.st23{fill:#E24B4B;}
	.st24{fill:#F2992D;}
	.st25{fill:#DF8726;}
	.st26{fill:#997960;}
	.st27{fill:#FFD93B;}
	.st28{fill:#E8AF2A;}
	.st29{fill:#D23F77;}
	.st30{fill:#D03F3F;}
	.st31{fill:#BF3332;}
	.st32{fill:#D03F3E;}
	.st33{fill:#BF3333;}
	.st34{fill:#F4C534;}
	.st35{fill:#8F6D52;}
	.st36{fill:#E9B02C;}
	.st37{fill:#5A5F63;}
	.st38{fill:#F4F4F4;}
	.st39{fill:#E74C87;}
	.st40{fill:#D24078;}
	.st41{fill:#5B5F63;}
	.st42{fill:#3F4347;}
	.st43{fill:#719C40;}
	.st44{fill:#7B5C45;}
	.st45{fill:#BB3166;}
	.st46{fill:#89664C;}
	.st47{fill:#77589F;}
	.st48{fill:#8066AA;}
	.st49{fill:#8D7FB6;}
	.st50{fill:#88BA40;}
	.st51{fill:#FDE7AA;}
	.st52{fill:#7FB239;}
	.st53{fill:#45CBEA;}
	.st54{fill:#ACB9C1;}
	.st55{fill:#DAE5EF;}
	.st56{fill:#7CA740;}
	.st57{fill:#88BF40;}
	.st58{fill:#85BB40;}
	.st59{fill:#FFF100;}
	.st60{fill:#FFDD00;}
	.st61{fill:#F29A2E;}
	.st62{fill:#3E4347;}
	.st63{fill:#59A5E0;}
	.st64{fill:#2F3133;}
	.st65{fill:#EDEDEF;}
	.st66{fill:#4E99D2;}
	.st67{fill:#A5856D;}
</style>
<g id="XMLID_2683_">
	<path id="XMLID_2838_" class="st29" d="M16.582,14.026c0,0,4.455-1.351,8.96,2.303c0,0,2.694,2.146,1.802,4.738
		c-0.088,0.256-0.095,0.533-0.01,0.79l0,0c0.115,0.349,0.07,0.732-0.13,1.04c-0.239,0.368-0.53,0.878-0.571,1.236
		c-0.027,0.233-0.097,0.458-0.243,0.641c-0.083,0.104-0.176,0.231-0.271,0.378c-0.258,0.403-0.246,0.923,0.02,1.321
		c0.011,0.016,0.022,0.033,0.033,0.05c0.443,0.666-0.181,1.536-0.949,1.316c-0.219-0.063-0.427-0.05-0.61,0.07
		c-0.309,0.201-0.679,0.284-1.034,0.187c-0.202-0.055-0.422-0.097-0.617-0.095c-0.47,0.006-0.909-0.228-1.13-0.643
		C20.406,24.679,16.743,17.489,16.582,14.026z"/>
	<path id="XMLID_2837_" class="st29" d="M15.418,14.026c0,0-4.455-1.351-8.96,2.303c0,0-2.694,2.146-1.802,4.738
		c0.088,0.256,0.095,0.533,0.01,0.79h0c-0.115,0.349-0.07,0.732,0.13,1.04c0.239,0.368,0.53,0.878,0.571,1.236
		c0.027,0.233,0.097,0.458,0.243,0.641c0.083,0.104,0.176,0.231,0.271,0.378c0.258,0.403,0.246,0.923-0.02,1.321
		c-0.011,0.016-0.022,0.033-0.033,0.05c-0.443,0.666,0.181,1.536,0.949,1.316c0.219-0.063,0.427-0.05,0.61,0.07
		c0.309,0.201,0.679,0.284,1.034,0.187C8.623,28.039,8.843,27.997,9.038,28c0.47,0.006,0.909-0.228,1.13-0.643
		C11.594,24.679,15.257,17.489,15.418,14.026z"/>
	<path id="XMLID_2843_" class="st16" d="M16.582,14.026c0,0,2.803-8.76,14.166-10.161c0,0,1.752,0.25,1.001,1.902l-3.103,7.709
		c0,0-0.263,2.303-4.386,1.852S16.582,14.026,16.582,14.026z"/>
	<path id="XMLID_2842_" class="st16" d="M15.418,14.026c0,0-2.803-8.76-14.166-10.161c0,0-1.752,0.25-1.001,1.902l3.103,7.709
		c0,0,0.263,2.303,4.386,1.852S15.418,14.026,15.418,14.026z"/>
	<g>
		<path class="st42" d="M19.043,4.817c-0.101-0.046-0.219-0.003-0.265,0.097l-2.769,5.98c-0.005,0-0.009-0.003-0.014-0.003
			c-0.004,0-0.008,0.002-0.012,0.002l-2.738-5.979c-0.047-0.101-0.166-0.144-0.265-0.099c-0.1,0.046-0.144,0.165-0.099,0.265
			l2.739,5.981c-0.081,0.09-0.134,0.206-0.134,0.337c0,0.045,0.015,0.086,0.026,0.128c-0.313,0.172-0.528,0.5-0.528,0.882
			c0,0.243,0.089,0.462,0.232,0.636c-0.443,0.202-0.735,0.672-0.679,1.192l0.292,2.708c0.031,0.288,0.167,0.542,0.365,0.728
			l0.388,6.23c0,1.938,0.824,1.938,0.824,0l0.388-6.23c0.198-0.186,0.334-0.439,0.365-0.728l0.292-2.708
			c0.056-0.52-0.235-0.99-0.679-1.192c0.143-0.174,0.232-0.394,0.232-0.636c0-0.382-0.215-0.71-0.528-0.882
			c0.011-0.042,0.026-0.082,0.026-0.128c0-0.13-0.052-0.245-0.133-0.335l2.77-5.982C19.186,4.982,19.143,4.864,19.043,4.817z"/>
	</g>
	<g id="XMLID_2438_">
		<circle id="XMLID_2435_" class="st21" cx="8.04" cy="18.727" r="1.601"/>
		<circle id="XMLID_2623_" class="st21" cx="11.581" cy="20.788" r="0.883"/>
		<circle id="XMLID_2624_" class="st21" cx="8.436" cy="23.933" r="0.883"/>
	</g>
	<g id="XMLID_2626_">
		<g>
			<circle id="XMLID_2629_" class="st21" cx="24.386" cy="18.727" r="1.601"/>
		</g>
		<circle id="XMLID_2628_" class="st21" cx="20.846" cy="20.788" r="0.883"/>
		<circle id="XMLID_2627_" class="st21" cx="23.991" cy="23.933" r="0.883"/>
	</g>
	<g id="XMLID_2625_">
		<g id="XMLID_2689_">
			<circle id="XMLID_2691_" class="st21" cx="22.128" cy="11.632" r="1.127"/>
			<circle id="XMLID_2690_" class="st21" cx="26.142" cy="7.618" r="1.127"/>
		</g>
		<g id="XMLID_2630_">
			<g>
				<circle id="XMLID_2682_" class="st21" cx="10.299" cy="11.632" r="1.127"/>
			</g>
			<circle id="XMLID_2681_" class="st21" cx="6.285" cy="7.618" r="1.127"/>
		</g>
	</g>
</g>
</svg>
