<?xml version="1.0" encoding="utf-8"?>
<!-- Generator: Adobe Illustrator 21.1.0, SVG Export Plug-In . SVG Version: 6.00 Build 0)  -->
<svg version="1.1" id="Layer_1" xmlns="http://www.w3.org/2000/svg" xmlns:xlink="http://www.w3.org/1999/xlink" x="0px" y="0px"
	 viewBox="0 0 32 32" style="enable-background:new 0 0 32 32;" xml:space="preserve">
<style type="text/css">
	.st0{fill:#FFD83B;}
	.st1{fill:#F2F2F2;}
	.st2{fill:#F3C432;}
	.st3{fill:#DEE4E9;}
	.st4{fill:#E9EFF4;}
	.st5{fill:#6DAFDF;}
	.st6{fill:#5CA3D9;}
	.st7{fill:#4D98D2;}
	.st8{fill:#E8EFF3;}
	.st9{fill:#DDE3E9;}
	.st10{fill:#4CC6E5;}
	.st11{opacity:0.05;fill:#2F3133;}
	.st12{fill:#E14B4B;}
	.st13{fill:#D3D9DD;}
	.st14{fill:#65B1EF;}
	.st15{fill:#8CC63E;}
	.st16{fill:#E84D88;}
	.st17{fill:#A4856D;}
	.st18{fill:#8BC540;}
	.st19{fill:#7FB241;}
	.st20{fill:#8E6D53;}
	.st21{fill:#FFFFFF;}
	.st22{fill:#9A795F;}
	.st23{fill:#E24B4B;}
	.st24{fill:#F2992D;}
	.st25{fill:#DF8726;}
	.st26{fill:#997960;}
	.st27{fill:#FFD93B;}
	.st28{fill:#E8AF2A;}
	.st29{fill:#D23F77;}
	.st30{fill:#D03F3F;}
	.st31{fill:#BF3332;}
	.st32{fill:#D03F3E;}
	.st33{fill:#BF3333;}
	.st34{fill:#F4C534;}
	.st35{fill:#8F6D52;}
	.st36{fill:#E9B02C;}
	.st37{fill:#5A5F63;}
	.st38{fill:#F4F4F4;}
	.st39{fill:#E74C87;}
	.st40{fill:#D24078;}
	.st41{fill:#5B5F63;}
	.st42{fill:#3F4347;}
	.st43{fill:#719C40;}
	.st44{fill:#7B5C45;}
	.st45{fill:#BB3166;}
	.st46{fill:#89664C;}
	.st47{fill:#77589F;}
	.st48{fill:#8066AA;}
	.st49{fill:#8D7FB6;}
	.st50{fill:#88BA40;}
	.st51{fill:#FDE7AA;}
	.st52{fill:#7FB239;}
	.st53{fill:#45CBEA;}
	.st54{fill:#ACB9C1;}
	.st55{fill:#DAE5EF;}
	.st56{fill:#7CA740;}
	.st57{fill:#88BF40;}
	.st58{fill:#85BB40;}
	.st59{fill:#FFF100;}
	.st60{fill:#FFDD00;}
	.st61{fill:#F29A2E;}
	.st62{fill:#3E4347;}
	.st63{fill:#59A5E0;}
	.st64{fill:#2F3133;}
	.st65{fill:#EDEDEF;}
	.st66{fill:#4E99D2;}
	.st67{fill:#A5856D;}
</style>
<g id="XMLID_3508_">
	<g id="XMLID_3525_">
		<g id="XMLID_3535_">
			<path id="XMLID_3537_" class="st29" d="M23.065,6.526C22.416,7.967,17.287,16.579,16,16c-1.287-0.579,1.757-10.13,2.406-11.571
				s2.874-3.599,4.16-3.02C23.852,1.988,23.713,5.084,23.065,6.526z"/>
			<path id="XMLID_3536_" class="st29" d="M8.935,25.474C9.584,24.033,14.713,15.421,16,16c1.287,0.579-1.757,10.13-2.406,11.571
				c-0.649,1.441-2.874,3.599-4.16,3.02C8.148,30.012,8.287,26.916,8.935,25.474z"/>
		</g>
		<g id="XMLID_3532_">
			<path id="XMLID_3534_" class="st29" d="M27.695,14.296C26.217,14.857,16.5,17.319,16,16c-0.5-1.319,8.405-5.92,9.883-6.481
				c1.478-0.56,4.577-0.513,5.077,0.806C31.46,11.645,29.173,13.736,27.695,14.296z"/>
			<path id="XMLID_3533_" class="st29" d="M4.305,17.704C5.783,17.143,15.5,14.681,16,16c0.5,1.319-8.405,5.92-9.883,6.481
				S1.54,22.994,1.04,21.674C0.54,20.355,2.827,18.264,4.305,17.704z"/>
		</g>
		<g id="XMLID_3529_">
			<g>
				<path id="XMLID_3531_" class="st29" d="M25.474,23.065C24.033,22.416,15.421,17.287,16,16c0.579-1.287,10.13,1.757,11.571,2.406
					s3.599,2.874,3.02,4.16C30.012,23.852,26.916,23.713,25.474,23.065z"/>
			</g>
			<path id="XMLID_3530_" class="st29" d="M6.526,8.935C7.967,9.584,16.579,14.713,16,16c-0.579,1.287-10.13-1.757-11.571-2.406
				c-1.441-0.649-3.599-2.874-3.02-4.16S5.084,8.287,6.526,8.935z"/>
		</g>
		<g id="XMLID_3526_">
			<path id="XMLID_3528_" class="st29" d="M17.704,27.695C17.143,26.217,14.681,16.5,16,16c1.319-0.5,5.92,8.405,6.481,9.883
				c0.56,1.478,0.513,4.577-0.806,5.077C20.355,31.46,18.264,29.173,17.704,27.695z"/>
			<path id="XMLID_3527_" class="st29" d="M14.296,4.305C14.857,5.783,17.319,15.5,16,16c-1.319,0.5-5.92-8.405-6.481-9.883
				S9.006,1.54,10.326,1.04S13.736,2.827,14.296,4.305z"/>
		</g>
	</g>
	<g id="XMLID_3512_">
		<g id="XMLID_3522_">
			<path id="XMLID_3524_" class="st16" d="M18.555,4.461C18.555,6.041,17.411,16,16,16s-2.555-9.959-2.555-11.539S14.589,0,16,0
				S18.555,2.881,18.555,4.461z"/>
			<path id="XMLID_3523_" class="st16" d="M13.445,27.539C13.445,25.959,14.589,16,16,16s2.555,9.959,2.555,11.539S17.411,32,16,32
				S13.445,29.119,13.445,27.539z"/>
		</g>
		<g id="XMLID_3519_">
			<g id="XMLID_1127_">
				<path id="XMLID_3521_" class="st16" d="M25.966,9.647C24.848,10.764,16.998,16.998,16,16s5.236-8.848,6.353-9.966
					s3.963-2.346,4.961-1.348C28.311,5.684,27.083,8.529,25.966,9.647z"/>
			</g>
			<path id="XMLID_3520_" class="st16" d="M6.034,22.353C7.152,21.236,15.002,15.002,16,16s-5.236,8.848-6.353,9.966
				s-3.963,2.346-4.961,1.348C3.689,26.316,4.917,23.471,6.034,22.353z"/>
		</g>
		<g id="XMLID_3516_">
			<path id="XMLID_3518_" class="st16" d="M27.539,18.555C25.959,18.555,16,17.411,16,16s9.959-2.555,11.539-2.555S32,14.589,32,16
				S29.119,18.555,27.539,18.555z"/>
			<path id="XMLID_3517_" class="st16" d="M4.461,13.445C6.041,13.445,16,14.589,16,16s-9.959,2.555-11.539,2.555S0,17.411,0,16
				C0,14.589,2.881,13.445,4.461,13.445z"/>
		</g>
		<g id="XMLID_3513_">
			<path id="XMLID_3515_" class="st16" d="M22.353,25.966C21.236,24.848,15.002,16.998,16,16s8.848,5.236,9.966,6.353
				s2.346,3.963,1.348,4.961C26.316,28.311,23.471,27.083,22.353,25.966z"/>
			<path id="XMLID_3514_" class="st16" d="M9.647,6.034C10.764,7.152,16.998,15.002,16,16s-8.848-5.236-9.966-6.353
				S3.689,5.684,4.686,4.686S8.529,4.917,9.647,6.034z"/>
		</g>
	</g>
	<g id="XMLID_1130_">
		<circle id="XMLID_3511_" class="st45" cx="16" cy="16" r="5.787"/>
	</g>
	<g id="XMLID_1132_">
		<circle id="XMLID_3510_" class="st27" cx="16" cy="16" r="2.846"/>
	</g>
</g>
</svg>
