<?xml version="1.0" encoding="utf-8"?>
<!-- Generator: Adobe Illustrator 21.1.0, SVG Export Plug-In . SVG Version: 6.00 Build 0)  -->
<svg version="1.1" id="Layer_1" xmlns="http://www.w3.org/2000/svg" xmlns:xlink="http://www.w3.org/1999/xlink" x="0px" y="0px"
	 viewBox="0 0 32 32" style="enable-background:new 0 0 32 32;" xml:space="preserve">
<style type="text/css">
	.st0{fill:#FFD83B;}
	.st1{fill:#F2F2F2;}
	.st2{fill:#F3C432;}
	.st3{fill:#DEE4E9;}
	.st4{fill:#E9EFF4;}
	.st5{fill:#6DAFDF;}
	.st6{fill:#5CA3D9;}
	.st7{fill:#4D98D2;}
	.st8{fill:#E8EFF3;}
	.st9{fill:#DDE3E9;}
	.st10{fill:#4CC6E5;}
	.st11{opacity:0.05;fill:#2F3133;}
	.st12{fill:#E14B4B;}
	.st13{fill:#D3D9DD;}
	.st14{fill:#65B1EF;}
	.st15{fill:#8CC63E;}
	.st16{fill:#E84D88;}
	.st17{fill:#A4856D;}
	.st18{fill:#8BC540;}
	.st19{fill:#7FB241;}
	.st20{fill:#8E6D53;}
	.st21{fill:#FFFFFF;}
	.st22{fill:#9A795F;}
	.st23{fill:#E24B4B;}
	.st24{fill:#F2992D;}
	.st25{fill:#DF8726;}
	.st26{fill:#997960;}
	.st27{fill:#FFD93B;}
	.st28{fill:#E8AF2A;}
	.st29{fill:#D23F77;}
	.st30{fill:#D03F3F;}
	.st31{fill:#BF3332;}
	.st32{fill:#D03F3E;}
	.st33{fill:#BF3333;}
	.st34{fill:#F4C534;}
	.st35{fill:#8F6D52;}
	.st36{fill:#E9B02C;}
	.st37{fill:#5A5F63;}
	.st38{fill:#F4F4F4;}
	.st39{fill:#E74C87;}
	.st40{fill:#D24078;}
	.st41{fill:#5B5F63;}
	.st42{fill:#3F4347;}
	.st43{fill:#719C40;}
	.st44{fill:#7B5C45;}
	.st45{fill:#BB3166;}
	.st46{fill:#89664C;}
	.st47{fill:#77589F;}
	.st48{fill:#8066AA;}
	.st49{fill:#8D7FB6;}
	.st50{fill:#88BA40;}
	.st51{fill:#FDE7AA;}
	.st52{fill:#7FB239;}
	.st53{fill:#45CBEA;}
	.st54{fill:#ACB9C1;}
	.st55{fill:#DAE5EF;}
	.st56{fill:#7CA740;}
	.st57{fill:#88BF40;}
	.st58{fill:#85BB40;}
	.st59{fill:#FFF100;}
	.st60{fill:#FFDD00;}
	.st61{fill:#F29A2E;}
	.st62{fill:#3E4347;}
	.st63{fill:#59A5E0;}
	.st64{fill:#2F3133;}
	.st65{fill:#EDEDEF;}
	.st66{fill:#4E99D2;}
	.st67{fill:#A5856D;}
</style>
<g id="XMLID_3481_">
	<g id="XMLID_3486_">
		<path class="st15" d="M23.346,21.835c0,4.06-3.29,7.35-7.35,7.35C15.997,25.125,19.286,21.835,23.346,21.835z"/>
		<path class="st15" d="M15.997,29.185c-4.06,0-7.35-3.29-7.35-7.35C12.707,21.835,15.997,25.125,15.997,29.185z"/>
	</g>
	<g>
		<rect id="XMLID_3485_" x="15.331" y="11.675" class="st35" width="1.338" height="20.325"/>
	</g>
	<g>
		<path id="XMLID_3484_" class="st12" d="M25.014,8.982c-0.464,0-2.115,0.212-3.878,0.566c1.496-0.997,2.814-2.014,3.142-2.342
			c0.786-0.786,1.03-2.735-0.022-3.786c-1.052-1.052-3-0.808-3.786-0.022c-0.328,0.328-1.345,1.646-2.342,3.142
			c0.353-1.763,0.566-3.414,0.566-3.878C18.693,1.55,17.487,0,16,0c-1.487,0-2.693,1.55-2.693,2.662
			c0,0.464,0.212,2.115,0.566,3.878c-0.997-1.496-2.014-2.814-2.342-3.142c-0.786-0.786-2.735-1.03-3.786,0.022
			c-1.052,1.052-0.808,3-0.022,3.786c0.328,0.328,1.646,1.345,3.142,2.342C9.102,9.195,7.451,8.982,6.986,8.982
			c-1.112,0-2.662,1.206-2.662,2.693c0,1.487,1.55,2.693,2.662,2.693c0.464,0,2.115-0.212,3.878-0.566
			c-1.496,0.997-2.814,2.014-3.142,2.342c-0.786,0.786-1.03,2.735,0.022,3.786c1.052,1.052,3,0.808,3.786,0.022
			c0.328-0.328,1.345-1.646,2.342-3.142c-0.353,1.763-0.566,3.414-0.566,3.878c0,1.112,1.206,2.662,2.693,2.662
			c1.487,0,2.693-1.55,2.693-2.662c0-0.464-0.212-2.115-0.566-3.878c0.997,1.496,2.014,2.814,2.342,3.142
			c0.786,0.786,2.735,1.03,3.786-0.022c1.052-1.052,0.808-3,0.022-3.786c-0.328-0.328-1.646-1.345-3.142-2.342
			c1.763,0.353,3.414,0.566,3.878,0.566c1.112,0,2.662-1.206,2.662-2.693C27.675,10.188,26.125,8.982,25.014,8.982z"/>
	</g>
	<g>
		<circle id="XMLID_3483_" class="st30" cx="16" cy="11.675" r="4.444"/>
	</g>
	<g>
		<circle id="XMLID_3482_" class="st0" cx="16" cy="11.675" r="2.865"/>
	</g>
</g>
</svg>
