<?xml version="1.0" encoding="utf-8"?>
<!-- Generator: Adobe Illustrator 21.1.0, SVG Export Plug-In . SVG Version: 6.00 Build 0)  -->
<svg version="1.1" id="Layer_1" xmlns="http://www.w3.org/2000/svg" xmlns:xlink="http://www.w3.org/1999/xlink" x="0px" y="0px"
	 viewBox="0 0 32 32" style="enable-background:new 0 0 32 32;" xml:space="preserve">
<style type="text/css">
	.st0{fill:#FFD83B;}
	.st1{fill:#F2F2F2;}
	.st2{fill:#F3C432;}
	.st3{fill:#DEE4E9;}
	.st4{fill:#E9EFF4;}
	.st5{fill:#6DAFDF;}
	.st6{fill:#5CA3D9;}
	.st7{fill:#4D98D2;}
	.st8{fill:#E8EFF3;}
	.st9{fill:#DDE3E9;}
	.st10{fill:#4CC6E5;}
	.st11{opacity:0.05;fill:#2F3133;}
	.st12{fill:#E14B4B;}
	.st13{fill:#D3D9DD;}
	.st14{fill:#65B1EF;}
	.st15{fill:#8CC63E;}
	.st16{fill:#E84D88;}
	.st17{fill:#A4856D;}
	.st18{fill:#8BC540;}
	.st19{fill:#7FB241;}
	.st20{fill:#8E6D53;}
	.st21{fill:#FFFFFF;}
	.st22{fill:#9A795F;}
	.st23{fill:#E24B4B;}
	.st24{fill:#F2992D;}
	.st25{fill:#DF8726;}
	.st26{fill:#997960;}
	.st27{fill:#FFD93B;}
	.st28{fill:#E8AF2A;}
	.st29{fill:#D23F77;}
	.st30{fill:#D03F3F;}
	.st31{fill:#BF3332;}
	.st32{fill:#D03F3E;}
	.st33{fill:#BF3333;}
	.st34{fill:#F4C534;}
	.st35{fill:#8F6D52;}
	.st36{fill:#E9B02C;}
	.st37{fill:#5A5F63;}
	.st38{fill:#F4F4F4;}
	.st39{fill:#E74C87;}
	.st40{fill:#D24078;}
	.st41{fill:#5B5F63;}
	.st42{fill:#3F4347;}
	.st43{fill:#719C40;}
	.st44{fill:#7B5C45;}
	.st45{fill:#BB3166;}
	.st46{fill:#89664C;}
	.st47{fill:#77589F;}
	.st48{fill:#8066AA;}
	.st49{fill:#8D7FB6;}
	.st50{fill:#88BA40;}
	.st51{fill:#FDE7AA;}
	.st52{fill:#7FB239;}
	.st53{fill:#45CBEA;}
	.st54{fill:#ACB9C1;}
	.st55{fill:#DAE5EF;}
	.st56{fill:#7CA740;}
	.st57{fill:#88BF40;}
	.st58{fill:#85BB40;}
	.st59{fill:#FFF100;}
	.st60{fill:#FFDD00;}
	.st61{fill:#F29A2E;}
	.st62{fill:#3E4347;}
	.st63{fill:#59A5E0;}
	.st64{fill:#2F3133;}
	.st65{fill:#EDEDEF;}
	.st66{fill:#4E99D2;}
	.st67{fill:#A5856D;}
</style>
<g id="XMLID_1703_">
	<g>
		<path class="st19" d="M16.096,7.781C11.551,8.182,8.2,4.83,8.6,0.286C13.145-0.115,16.496,3.237,16.096,7.781z"/>
	</g>
	<g id="XMLID_1720_">
		<path id="XMLID_1721_" class="st20" d="M16.27,10.947c-0.392-0.098-0.7-0.43-0.747-0.855c-0.215-1.947,0.342-3.86,1.566-5.388
			c1.225-1.528,2.972-2.488,4.918-2.702c0.546-0.059,1.036,0.334,1.095,0.879c0.06,0.545-0.333,1.035-0.878,1.096
			c-1.419,0.156-2.692,0.855-3.585,1.969s-1.298,2.508-1.142,3.927c0.06,0.546-0.333,1.036-0.879,1.097
			C16.498,10.984,16.381,10.975,16.27,10.947z"/>
	</g>
	<g>
		<path id="XMLID_1722_" class="st12" d="M23.633,7.769c-1.084-0.289-2.205-0.229-3.305,0.125c-2.826,0.911-5.831,0.911-8.657,0
			c-1.1-0.354-2.221-0.414-3.305-0.125C4.038,8.922,1.95,15.183,3.701,21.754c1.751,6.571,6.678,10.962,11.006,9.809
			c0.005-0.001,0.009-0.002,0.014-0.004c0.841-0.227,1.717-0.227,2.558,0c0.005,0.001,0.009,0.002,0.014,0.004
			c4.327,1.153,9.255-3.239,11.006-9.809C30.049,15.183,27.96,8.922,23.633,7.769z"/>
	</g>
	<g>
		<path class="st30" d="M28.298,21.753c-1.75,6.57-6.68,10.96-11.01,9.81h-0.01c-0.84-0.23-1.72-0.23-2.56,0h-0.01
			c-1.63,0.43-3.34,0.08-4.93-0.87c8.49-3.28,14.85-11.56,16.18-21.65C28.648,11.453,29.698,16.503,28.298,21.753z"/>
	</g>
</g>
</svg>
