<?xml version="1.0" encoding="utf-8"?>
<!-- Generator: Adobe Illustrator 21.1.0, SVG Export Plug-In . SVG Version: 6.00 Build 0)  -->
<svg version="1.1" id="Layer_1" xmlns="http://www.w3.org/2000/svg" xmlns:xlink="http://www.w3.org/1999/xlink" x="0px" y="0px"
	 viewBox="0 0 32 32" style="enable-background:new 0 0 32 32;" xml:space="preserve">
<style type="text/css">
	.st0{fill:#FFD83B;}
	.st1{fill:#F2F2F2;}
	.st2{fill:#F3C432;}
	.st3{fill:#DEE4E9;}
	.st4{fill:#E9EFF4;}
	.st5{fill:#6DAFDF;}
	.st6{fill:#5CA3D9;}
	.st7{fill:#4D98D2;}
	.st8{fill:#E8EFF3;}
	.st9{fill:#DDE3E9;}
	.st10{fill:#4CC6E5;}
	.st11{opacity:0.05;fill:#2F3133;}
	.st12{fill:#E14B4B;}
	.st13{fill:#D3D9DD;}
	.st14{fill:#65B1EF;}
	.st15{fill:#8CC63E;}
	.st16{fill:#E84D88;}
	.st17{fill:#A4856D;}
	.st18{fill:#8BC540;}
	.st19{fill:#7FB241;}
	.st20{fill:#8E6D53;}
	.st21{fill:#FFFFFF;}
	.st22{fill:#9A795F;}
	.st23{fill:#E24B4B;}
	.st24{fill:#F2992D;}
	.st25{fill:#DF8726;}
	.st26{fill:#997960;}
	.st27{fill:#FFD93B;}
	.st28{fill:#E8AF2A;}
	.st29{fill:#D23F77;}
	.st30{fill:#D03F3F;}
	.st31{fill:#BF3332;}
	.st32{fill:#D03F3E;}
	.st33{fill:#BF3333;}
	.st34{fill:#F4C534;}
	.st35{fill:#8F6D52;}
	.st36{fill:#E9B02C;}
	.st37{fill:#5A5F63;}
	.st38{fill:#F4F4F4;}
	.st39{fill:#E74C87;}
	.st40{fill:#D24078;}
	.st41{fill:#5B5F63;}
	.st42{fill:#3F4347;}
	.st43{fill:#719C40;}
	.st44{fill:#7B5C45;}
	.st45{fill:#BB3166;}
	.st46{fill:#89664C;}
	.st47{fill:#77589F;}
	.st48{fill:#8066AA;}
	.st49{fill:#8D7FB6;}
	.st50{fill:#88BA40;}
	.st51{fill:#FDE7AA;}
	.st52{fill:#7FB239;}
	.st53{fill:#45CBEA;}
	.st54{fill:#ACB9C1;}
	.st55{fill:#DAE5EF;}
	.st56{fill:#7CA740;}
	.st57{fill:#88BF40;}
	.st58{fill:#85BB40;}
	.st59{fill:#FFF100;}
	.st60{fill:#FFDD00;}
	.st61{fill:#F29A2E;}
	.st62{fill:#3E4347;}
	.st63{fill:#59A5E0;}
	.st64{fill:#2F3133;}
	.st65{fill:#EDEDEF;}
	.st66{fill:#4E99D2;}
	.st67{fill:#A5856D;}
</style>
<g>
	<path id="XMLID_2070_" class="st26" d="M16,32L16,32c-3.497,0-6.122-3.195-5.445-6.625l2.209-11.186h6.472l2.209,11.186
		C22.122,28.805,19.497,32,16,32z"/>
	<path id="XMLID_2069_" class="st12" d="M30.114,14.114c0,7.795-28.229,7.795-28.229,0S8.205,0,16,0S30.114,6.319,30.114,14.114z"/>
	<circle id="XMLID_2081_" class="st32" cx="16.593" cy="11.211" r="1.74"/>
	<circle id="XMLID_2079_" class="st32" cx="17.984" cy="4.043" r="1.392"/>
	<circle id="XMLID_2083_" class="st32" cx="9.356" cy="6.444" r="1.74"/>
	<circle id="XMLID_2082_" class="st32" cx="5.833" cy="13.106" r="1.392"/>
	<path id="XMLID_2086_" class="st32" d="M23.153,1.962c1.238,2.099,1.962,4.539,1.962,7.153c0,5.702-15.097,7.228-23.208,4.587
		c-0.004,0.138-0.021,0.273-0.021,0.413c0,7.795,28.229,7.795,28.229,0C30.114,8.933,27.314,4.417,23.153,1.962z"/>
	<circle id="XMLID_2078_" class="st32" cx="21.552" cy="7.971" r="1.74"/>
	<circle id="XMLID_2072_" class="st31" cx="25.727" cy="14.498" r="1.392"/>
	<circle id="XMLID_2085_" class="st31" cx="13.758" cy="16.983" r="1.392"/>
</g>
</svg>
