<?xml version="1.0" encoding="utf-8"?>
<!-- Generator: Adobe Illustrator 21.1.0, SVG Export Plug-In . SVG Version: 6.00 Build 0)  -->
<svg version="1.1" id="Layer_1" xmlns="http://www.w3.org/2000/svg" xmlns:xlink="http://www.w3.org/1999/xlink" x="0px" y="0px"
	 viewBox="0 0 32 32" style="enable-background:new 0 0 32 32;" xml:space="preserve">
<style type="text/css">
	.st0{fill:#FFD83B;}
	.st1{fill:#F2F2F2;}
	.st2{fill:#F3C432;}
	.st3{fill:#DEE4E9;}
	.st4{fill:#E9EFF4;}
	.st5{fill:#6DAFDF;}
	.st6{fill:#5CA3D9;}
	.st7{fill:#4D98D2;}
	.st8{fill:#E8EFF3;}
	.st9{fill:#DDE3E9;}
	.st10{fill:#4CC6E5;}
	.st11{opacity:0.05;fill:#2F3133;}
	.st12{fill:#E14B4B;}
	.st13{fill:#D3D9DD;}
	.st14{fill:#65B1EF;}
	.st15{fill:#8CC63E;}
	.st16{fill:#E84D88;}
	.st17{fill:#A4856D;}
	.st18{fill:#8BC540;}
	.st19{fill:#7FB241;}
	.st20{fill:#8E6D53;}
	.st21{fill:#FFFFFF;}
	.st22{fill:#9A795F;}
	.st23{fill:#E24B4B;}
	.st24{fill:#F2992D;}
	.st25{fill:#DF8726;}
	.st26{fill:#997960;}
	.st27{fill:#FFD93B;}
	.st28{fill:#E8AF2A;}
	.st29{fill:#D23F77;}
	.st30{fill:#D03F3F;}
	.st31{fill:#BF3332;}
	.st32{fill:#D03F3E;}
	.st33{fill:#BF3333;}
	.st34{fill:#F4C534;}
	.st35{fill:#8F6D52;}
	.st36{fill:#E9B02C;}
	.st37{fill:#5A5F63;}
	.st38{fill:#F4F4F4;}
	.st39{fill:#E74C87;}
	.st40{fill:#D24078;}
	.st41{fill:#5B5F63;}
	.st42{fill:#3F4347;}
	.st43{fill:#719C40;}
	.st44{fill:#7B5C45;}
	.st45{fill:#BB3166;}
	.st46{fill:#89664C;}
	.st47{fill:#77589F;}
	.st48{fill:#8066AA;}
	.st49{fill:#8D7FB6;}
	.st50{fill:#88BA40;}
	.st51{fill:#FDE7AA;}
	.st52{fill:#7FB239;}
	.st53{fill:#45CBEA;}
	.st54{fill:#ACB9C1;}
	.st55{fill:#DAE5EF;}
	.st56{fill:#7CA740;}
	.st57{fill:#88BF40;}
	.st58{fill:#85BB40;}
	.st59{fill:#FFF100;}
	.st60{fill:#FFDD00;}
	.st61{fill:#F29A2E;}
	.st62{fill:#3E4347;}
	.st63{fill:#59A5E0;}
	.st64{fill:#2F3133;}
	.st65{fill:#EDEDEF;}
	.st66{fill:#4E99D2;}
	.st67{fill:#A5856D;}
</style>
<g id="XMLID_3729_">
	<g id="XMLID_3728_">
		<path id="XMLID_3726_" class="st19" d="M29.333,2.667L29.333,2.667c-3.678,0-6.66,2.982-6.66,6.66l0,0
			C26.352,9.326,29.333,6.345,29.333,2.667z"/>
		<g id="XMLID_3724_">
			<path id="XMLID_3722_" class="st18" d="M32.07,8.596L32.07,8.596c-2.389,2.796-6.593,3.127-9.389,0.737l0,0
				C25.07,6.537,29.274,6.207,32.07,8.596z"/>
			<path id="XMLID_3727_" class="st18" d="M22.666,9.319L22.666,9.319c2.796-2.389,3.127-6.593,0.737-9.389l0,0
				C20.607,2.319,20.277,6.523,22.666,9.319z"/>
		</g>
	</g>
	<path id="XMLID_3711_" class="st12" d="M0.71,31.29L0.71,31.29c-0.967-0.967-1.044-2.508-0.18-3.567L16.161,8.569
		c1.934-2.37,5.493-2.55,7.657-0.387l0,0c2.163,2.163,1.984,5.722-0.387,7.657L4.277,31.47C3.218,32.334,1.676,32.257,0.71,31.29z"
		/>
	<g id="XMLID_3723_">
		<path id="XMLID_3733_" class="st32" d="M18.351,14.453c-0.238,0.238-0.614,0.238-0.852,0l-3.379-3.379l0.765-0.939l3.466,3.466
			C18.589,13.839,18.582,14.222,18.351,14.453z"/>
		<path id="XMLID_3736_" class="st32" d="M17.694,20.526l-0.939,0.765l-3.004-3.004c-0.231-0.231-0.238-0.614,0-0.852
			c0.238-0.238,0.621-0.231,0.852,0L17.694,20.526z"/>
		<path id="XMLID_3732_" class="st32" d="M10.768,22.035c-0.231,0.231-0.614,0.238-0.852,0l-2.614-2.614l0.765-0.939l2.701,2.701
			C11.007,21.421,11.007,21.797,10.768,22.035z"/>
		<path id="XMLID_3735_" class="st32" d="M9.353,27.335l-0.939,0.765l-2.239-2.239c-0.231-0.231-0.238-0.614,0-0.852
			c0.231-0.231,0.621-0.231,0.852,0L9.353,27.335z"/>
	</g>
</g>
</svg>
