<?xml version="1.0" encoding="utf-8"?>
<!-- Generator: Adobe Illustrator 21.1.0, SVG Export Plug-In . SVG Version: 6.00 Build 0)  -->
<svg version="1.1" id="Layer_1" xmlns="http://www.w3.org/2000/svg" xmlns:xlink="http://www.w3.org/1999/xlink" x="0px" y="0px"
	 viewBox="0 0 32 32" style="enable-background:new 0 0 32 32;" xml:space="preserve">
<style type="text/css">
	.st0{fill:#FFD83B;}
	.st1{fill:#F2F2F2;}
	.st2{fill:#F3C432;}
	.st3{fill:#DEE4E9;}
	.st4{fill:#E9EFF4;}
	.st5{fill:#6DAFDF;}
	.st6{fill:#5CA3D9;}
	.st7{fill:#4D98D2;}
	.st8{fill:#E8EFF3;}
	.st9{fill:#DDE3E9;}
	.st10{fill:#4CC6E5;}
	.st11{opacity:0.05;fill:#2F3133;}
	.st12{fill:#E14B4B;}
	.st13{fill:#D3D9DD;}
	.st14{fill:#65B1EF;}
	.st15{fill:#8CC63E;}
	.st16{fill:#E84D88;}
	.st17{fill:#A4856D;}
	.st18{fill:#8BC540;}
	.st19{fill:#7FB241;}
	.st20{fill:#8E6D53;}
	.st21{fill:#FFFFFF;}
	.st22{fill:#9A795F;}
	.st23{fill:#E24B4B;}
	.st24{fill:#F2992D;}
	.st25{fill:#DF8726;}
	.st26{fill:#997960;}
	.st27{fill:#FFD93B;}
	.st28{fill:#E8AF2A;}
	.st29{fill:#D23F77;}
	.st30{fill:#D03F3F;}
	.st31{fill:#BF3332;}
	.st32{fill:#D03F3E;}
	.st33{fill:#BF3333;}
	.st34{fill:#F4C534;}
	.st35{fill:#8F6D52;}
	.st36{fill:#E9B02C;}
	.st37{fill:#5A5F63;}
	.st38{fill:#F4F4F4;}
	.st39{fill:#E74C87;}
	.st40{fill:#D24078;}
	.st41{fill:#5B5F63;}
	.st42{fill:#3F4347;}
	.st43{fill:#719C40;}
	.st44{fill:#7B5C45;}
	.st45{fill:#BB3166;}
	.st46{fill:#89664C;}
	.st47{fill:#77589F;}
	.st48{fill:#8066AA;}
	.st49{fill:#8D7FB6;}
	.st50{fill:#88BA40;}
	.st51{fill:#FDE7AA;}
	.st52{fill:#7FB239;}
	.st53{fill:#45CBEA;}
	.st54{fill:#ACB9C1;}
	.st55{fill:#DAE5EF;}
	.st56{fill:#7CA740;}
	.st57{fill:#88BF40;}
	.st58{fill:#85BB40;}
	.st59{fill:#FFF100;}
	.st60{fill:#FFDD00;}
	.st61{fill:#F29A2E;}
	.st62{fill:#3E4347;}
	.st63{fill:#59A5E0;}
	.st64{fill:#2F3133;}
	.st65{fill:#EDEDEF;}
	.st66{fill:#4E99D2;}
	.st67{fill:#A5856D;}
</style>
<g id="XMLID_2479_">
	<path id="XMLID_2525_" class="st17" d="M28.617,21.815c-0.179,0.081-0.362,0.156-0.549,0.217c-0.787,0.257-1.972,0.666-2.814,0.664
		c-0.04,0-0.053-0.006-0.079-0.009c-0.006,0.004-0.006,0.005-0.013,0.009c-0.203,0.128-0.411,0.253-0.619,0.373
		c-0.202,0.117-0.41,0.228-0.621,0.335c1.828,1.631,3.159,3.588,3.922,5.653c0.105,0.507,0.605,0.823,1.113,0.737
		c0.435-0.075,0.888-0.112,1.354-0.106c0.536,0.007,1.007-0.372,0.929-0.9c-0.091-0.549-0.192-1.234-0.334-2.093
		C30.497,25.028,29.725,23.364,28.617,21.815z"/>
	<g>
		<path id="XMLID_2489_" class="st9" d="M26.426,22.697c-1.956,0.548-3.96,1.462-4.67,1.8c0,0.002,0,0.004,0,0.006
			c0.018,0.251,0.211,0.456,0.461,0.488c0.147,0.019,0.344,0.028,0.61,0.016c0.491-0.021,0.957-0.226,1.301-0.426
			c0.651-0.379,1.339-0.691,2.037-0.976c1.276-0.521,2.892-1.196,2.892-1.196c2.425-0.909,2.335-1.83,2.335-1.83
			c-0.046-0.071-0.093-0.138-0.141-0.205C30.516,20.847,28.396,22.145,26.426,22.697z"/>
	</g>
	<path id="XMLID_2490_" class="st12" d="M26.426,22.697c1.971-0.552,4.09-1.85,4.824-2.322c-1.836-2.55-5.114-1.377-5.114-1.377
		c-4.292,1.455-4.449,4.508-4.38,5.499C22.466,24.159,24.47,23.244,26.426,22.697z"/>
	<g id="XMLID_2497_">
		<path id="XMLID_2533_" class="st12" d="M24.904,14.766c-1.407,5.222-8.469,6.941-14.396,5.311
			C3.854,18.258-0.473,12.905,0.845,8.119C1.75,4.862,5.021,2.91,8.339,2.396c2.487-0.448,5.522-0.105,7.373,0.531l0.021-0.005
			c2.203,0.683,4.584,1.952,6.377,3.694l0.005,0.021C24.341,8.837,25.681,11.678,24.904,14.766z"/>
		
			<ellipse id="XMLID_2502_" transform="matrix(0.3445 -0.9388 0.9388 0.3445 -4.9602 20.3758)" class="st21" cx="12.111" cy="13.74" rx="4.468" ry="8.755"/>
		<polygon id="XMLID_2501_" class="st9" points="14.887,14.902 19.294,16.376 14.98,14.65 19.419,15.699 14.985,14.37 
			19.321,14.963 14.903,14.071 19.004,14.19 14.736,13.762 18.478,13.403 14.489,13.453 17.759,12.626 14.171,13.152 16.867,11.883 
			13.789,12.869 15.832,11.197 13.357,12.612 14.683,10.588 12.886,12.39 13.456,10.074 12.392,12.209 12.188,9.672 11.89,12.074 
			10.918,9.394 11.394,11.99 9.684,9.247 10.92,11.959 8.524,9.237 10.482,11.982 7.472,9.364 10.094,12.059 6.562,9.624 
			9.767,12.186 5.82,10.009 9.511,12.361 5.27,10.507 9.334,12.578 4.927,11.104 9.242,12.83 4.803,11.78 9.236,13.11 4.9,12.516 
			9.318,13.408 5.217,13.29 9.485,13.717 5.743,14.077 9.732,14.027 6.463,14.853 10.051,14.328 7.354,15.596 10.432,14.611 
			8.39,16.283 10.865,14.867 9.538,16.892 11.335,15.09 10.766,17.405 11.829,15.271 12.033,17.808 12.332,15.406 13.304,18.086 
			12.827,15.49 14.538,18.232 13.301,15.521 15.698,18.242 13.739,15.497 16.749,18.115 14.128,15.421 17.659,17.856 14.454,15.293 
			18.401,17.471 14.71,15.119 18.952,16.972 		"/>
		<path id="XMLID_2500_" class="st17" d="M5.545,23.143l3.5-9.767c0.13-0.364,0.447-0.619,0.831-0.667
			c0.967-0.121,2.889-0.12,4.693,1.305c0.261,0.206,0.398,0.53,0.374,0.862c-0.07,0.951-0.313,2.765-0.407,5.295
			c-0.047,1.25-0.004,2.504,0.135,3.747c0.198,1.769,0.172,5.212-2.894,5.758c0,0-3.951,0.861-5.665-1.804
			C5.206,26.463,4.98,24.721,5.545,23.143z"/>
		<path id="XMLID_2514_" class="st32" d="M22.115,6.636l-0.005-0.021c-1.789-1.739-4.173-3.011-6.377-3.694l-0.021,0.005
			c-2.373-0.814-6.393-1.171-9.717,0.09c2.477-0.435,5.476-0.093,7.318,0.538l0.021-0.005c2.204,0.683,4.584,1.952,6.377,3.694
			l0.005,0.021c2.228,2.202,3.566,5.043,2.79,8.13c-0.681,2.529-2.736,4.192-5.191,5.115c0.011-0.002,0.023-0.003,0.034-0.004
			c3.354-0.525,6.669-2.45,7.555-5.739C25.68,11.683,24.346,8.841,22.115,6.636z"/>
		<path id="XMLID_2516_" class="st26" d="M14.537,20.171c0.094-2.53,0.337-4.344,0.407-5.295c0.025-0.332-0.113-0.656-0.374-0.862
			c-0.218-0.172-0.439-0.322-0.658-0.455c0.025,0.103,0.04,0.208,0.032,0.317c-0.07,0.951-0.313,2.765-0.407,5.295
			c-0.047,1.25-0.004,2.505,0.135,3.748c0.198,1.769,0.172,5.212-2.894,5.758c0,0-2.695,0.582-4.599-0.717
			c1.745,2.552,5.599,1.717,5.599,1.717c3.066-0.547,3.092-3.989,2.894-5.758C14.533,22.676,14.49,21.421,14.537,20.171z"/>
	</g>
</g>
</svg>
