<?xml version="1.0" encoding="utf-8"?>
<!-- Generator: Adobe Illustrator 21.1.0, SVG Export Plug-In . SVG Version: 6.00 Build 0)  -->
<svg version="1.1" id="Layer_1" xmlns="http://www.w3.org/2000/svg" xmlns:xlink="http://www.w3.org/1999/xlink" x="0px" y="0px"
	 viewBox="0 0 32 32" style="enable-background:new 0 0 32 32;" xml:space="preserve">
<style type="text/css">
	.st0{fill:#FFD83B;}
	.st1{fill:#F2F2F2;}
	.st2{fill:#F3C432;}
	.st3{fill:#DEE4E9;}
	.st4{fill:#E9EFF4;}
	.st5{fill:#6DAFDF;}
	.st6{fill:#5CA3D9;}
	.st7{fill:#4D98D2;}
	.st8{fill:#E8EFF3;}
	.st9{fill:#DDE3E9;}
	.st10{fill:#4CC6E5;}
	.st11{opacity:0.05;fill:#2F3133;}
	.st12{fill:#E14B4B;}
	.st13{fill:#D3D9DD;}
	.st14{fill:#65B1EF;}
	.st15{fill:#8CC63E;}
	.st16{fill:#E84D88;}
	.st17{fill:#A4856D;}
	.st18{fill:#8BC540;}
	.st19{fill:#7FB241;}
	.st20{fill:#8E6D53;}
	.st21{fill:#FFFFFF;}
	.st22{fill:#9A795F;}
	.st23{fill:#E24B4B;}
	.st24{fill:#F2992D;}
	.st25{fill:#DF8726;}
	.st26{fill:#997960;}
	.st27{fill:#FFD93B;}
	.st28{fill:#E8AF2A;}
	.st29{fill:#D23F77;}
	.st30{fill:#D03F3F;}
	.st31{fill:#BF3332;}
	.st32{fill:#D03F3E;}
	.st33{fill:#BF3333;}
	.st34{fill:#F4C534;}
	.st35{fill:#8F6D52;}
	.st36{fill:#E9B02C;}
	.st37{fill:#5A5F63;}
	.st38{fill:#F4F4F4;}
	.st39{fill:#E74C87;}
	.st40{fill:#D24078;}
	.st41{fill:#5B5F63;}
	.st42{fill:#3F4347;}
	.st43{fill:#719C40;}
	.st44{fill:#7B5C45;}
	.st45{fill:#BB3166;}
	.st46{fill:#89664C;}
	.st47{fill:#77589F;}
	.st48{fill:#8066AA;}
	.st49{fill:#8D7FB6;}
	.st50{fill:#88BA40;}
	.st51{fill:#FDE7AA;}
	.st52{fill:#7FB239;}
	.st53{fill:#45CBEA;}
	.st54{fill:#ACB9C1;}
	.st55{fill:#DAE5EF;}
	.st56{fill:#7CA740;}
	.st57{fill:#88BF40;}
	.st58{fill:#85BB40;}
	.st59{fill:#FFF100;}
	.st60{fill:#FFDD00;}
	.st61{fill:#F29A2E;}
	.st62{fill:#3E4347;}
	.st63{fill:#59A5E0;}
	.st64{fill:#2F3133;}
	.st65{fill:#EDEDEF;}
	.st66{fill:#4E99D2;}
	.st67{fill:#A5856D;}
</style>
<g id="XMLID_1430_">
	<circle id="XMLID_1427_" class="st28" cx="16" cy="16" r="16"/>
	<g>
		<path id="XMLID_1433_" class="st0" d="M30.513,14.094C29.686,7.578,24.424,2.316,17.908,1.487
			C8.349,0.271,0.272,8.348,1.487,17.907c0.828,6.516,6.089,11.777,12.605,12.606C23.651,31.728,31.728,23.654,30.513,14.094z
			 M5.85,7.696c0.19-0.232,0.545-0.241,0.757-0.03l6.714,6.714c0.321,0.321,0.094,0.87-0.36,0.87H3.462
			c-0.3,0-0.545-0.26-0.515-0.558C3.209,12.052,4.254,9.643,5.85,7.696z M5.85,24.304c-1.596-1.947-2.64-4.355-2.903-6.996
			c-0.03-0.298,0.215-0.558,0.515-0.558h9.497c0.454,0,0.682,0.549,0.36,0.87l-6.713,6.713C6.394,24.545,6.039,24.536,5.85,24.304z
			 M15.25,28.538c0,0.3-0.26,0.544-0.558,0.515c-2.64-0.263-5.048-1.307-6.995-2.902c-0.232-0.19-0.241-0.545-0.029-0.757
			l6.713-6.713c0.321-0.321,0.87-0.094,0.87,0.36V28.538z M15.25,12.958c0,0.454-0.549,0.682-0.87,0.36L7.667,6.606
			C7.455,6.394,7.465,6.039,7.696,5.849c1.947-1.595,4.355-2.639,6.995-2.902c0.298-0.03,0.558,0.215,0.558,0.515V12.958z
			 M16.75,3.462c0-0.3,0.26-0.545,0.558-0.515c2.64,0.263,5.049,1.307,6.996,2.903c0.232,0.19,0.241,0.545,0.029,0.757L17.62,13.32
			c-0.321,0.321-0.87,0.094-0.87-0.36V3.462z M24.304,26.15c-1.947,1.596-4.356,2.64-6.996,2.902
			c-0.298,0.03-0.558-0.215-0.558-0.515V19.04c0-0.454,0.549-0.682,0.87-0.36l6.714,6.714C24.545,25.605,24.536,25.96,24.304,26.15z
			 M26.151,24.304c-0.19,0.232-0.545,0.241-0.757,0.029l-6.713-6.713c-0.321-0.321-0.094-0.87,0.36-0.87h9.496
			c0.3,0,0.545,0.26,0.515,0.558C28.79,19.949,27.746,22.357,26.151,24.304z M28.538,15.25h-9.497c-0.454,0-0.682-0.549-0.36-0.87
			l6.713-6.713c0.212-0.212,0.567-0.202,0.757,0.029c1.596,1.947,2.64,4.356,2.903,6.996C29.083,14.99,28.838,15.25,28.538,15.25z"
			/>
	</g>
</g>
</svg>
