<?xml version="1.0" encoding="utf-8"?>
<!-- Generator: Adobe Illustrator 21.1.0, SVG Export Plug-In . SVG Version: 6.00 Build 0)  -->
<svg version="1.1" id="Layer_1" xmlns="http://www.w3.org/2000/svg" xmlns:xlink="http://www.w3.org/1999/xlink" x="0px" y="0px"
	 viewBox="0 0 32 32" style="enable-background:new 0 0 32 32;" xml:space="preserve">
<style type="text/css">
	.st0{fill:#FFD83B;}
	.st1{fill:#F2F2F2;}
	.st2{fill:#F3C432;}
	.st3{fill:#DEE4E9;}
	.st4{fill:#E9EFF4;}
	.st5{fill:#6DAFDF;}
	.st6{fill:#5CA3D9;}
	.st7{fill:#4D98D2;}
	.st8{fill:#E8EFF3;}
	.st9{fill:#DDE3E9;}
	.st10{fill:#4CC6E5;}
	.st11{opacity:0.05;fill:#2F3133;}
	.st12{fill:#E14B4B;}
	.st13{fill:#D3D9DD;}
	.st14{fill:#65B1EF;}
	.st15{fill:#8CC63E;}
	.st16{fill:#E84D88;}
	.st17{fill:#A4856D;}
	.st18{fill:#8BC540;}
	.st19{fill:#7FB241;}
	.st20{fill:#8E6D53;}
	.st21{fill:#FFFFFF;}
	.st22{fill:#9A795F;}
	.st23{fill:#E24B4B;}
	.st24{fill:#F2992D;}
	.st25{fill:#DF8726;}
	.st26{fill:#997960;}
	.st27{fill:#FFD93B;}
	.st28{fill:#E8AF2A;}
	.st29{fill:#D23F77;}
	.st30{fill:#D03F3F;}
	.st31{fill:#BF3332;}
	.st32{fill:#D03F3E;}
	.st33{fill:#BF3333;}
	.st34{fill:#F4C534;}
	.st35{fill:#8F6D52;}
	.st36{fill:#E9B02C;}
	.st37{fill:#5A5F63;}
	.st38{fill:#F4F4F4;}
	.st39{fill:#E74C87;}
	.st40{fill:#D24078;}
	.st41{fill:#5B5F63;}
	.st42{fill:#3F4347;}
	.st43{fill:#719C40;}
	.st44{fill:#7B5C45;}
	.st45{fill:#BB3166;}
	.st46{fill:#89664C;}
	.st47{fill:#77589F;}
	.st48{fill:#8066AA;}
	.st49{fill:#8D7FB6;}
	.st50{fill:#88BA40;}
	.st51{fill:#FDE7AA;}
	.st52{fill:#7FB239;}
	.st53{fill:#45CBEA;}
	.st54{fill:#ACB9C1;}
	.st55{fill:#DAE5EF;}
	.st56{fill:#7CA740;}
	.st57{fill:#88BF40;}
	.st58{fill:#85BB40;}
	.st59{fill:#FFF100;}
	.st60{fill:#FFDD00;}
	.st61{fill:#F29A2E;}
	.st62{fill:#3E4347;}
	.st63{fill:#59A5E0;}
	.st64{fill:#2F3133;}
	.st65{fill:#EDEDEF;}
	.st66{fill:#4E99D2;}
	.st67{fill:#A5856D;}
</style>
<g id="XMLID_2022_">
	<path id="XMLID_2107_" class="st19" d="M18.783,3.315c-0.907,1.088-4.508-0.141-4.508-0.141v0.322
		c-1.295-0.414-2.383-0.311-2.383-0.311l0.233,0.363c-1.658-0.466-2.513,0-2.513,0C9.794,3.6,9.898,4.04,9.898,4.04
		c-0.958,0-2.046,0.57-2.046,0.57c0.181,0,0.518,0.389,0.518,0.389C7.281,5.18,6.556,5.75,6.556,5.75
		c0.259,0.078,0.415,0.363,0.415,0.363C6.167,6.32,5.494,6.786,5.494,6.786c0.259,0.052,0.13,0.57,0.13,0.57
		C4.976,7.564,4.561,8.03,4.561,8.03l0.285,0.311C4.147,8.859,3.914,9.247,3.914,9.247l0.259,0.181c0,0-0.596,0.259-0.751,0.751
		c-0.155,0.492-1.062,1.606-1.062,1.606c0.019,0.015,0.04,0.028,0.06,0.042c3.347-1.035,11.532-3.898,16.387-8.446
		C18.793,3.339,18.783,3.315,18.783,3.315z"/>
	<path id="XMLID_2108_" class="st18" d="M2.42,11.828c0.808,0.574,2.09,0.502,2.09,0.502l-0.311,0.311
		C5.131,12.9,6.09,12.693,6.09,12.693l-0.414,0.492c1.269,0.285,1.865-0.052,1.865-0.052l-0.337,0.389
		c1.373,0.078,1.658-0.363,1.658-0.363l-0.233,0.363c1.01,0,1.399-0.518,1.399-0.518l0.052,0.285
		c1.399-0.181,2.513-1.243,2.513-1.243l-0.026,0.44c0.699,0,1.036-0.933,1.036-0.933l0.207,0.414c0.518-0.181,1.01-1.295,1.01-1.295
		l0.052,0.414c0.751-0.363,0.958-1.373,0.958-1.373l0.236,0.44c0.495-0.363,0.696-1.373,0.696-1.373l0.389,0.233
		c0.285-0.466,0.311-1.218,0.311-1.218L17.851,7.9c1.42-2.634,1.059-4.192,0.956-4.519C13.952,7.93,5.767,10.793,2.42,11.828z"/>
	<path id="XMLID_2098_" class="st44" d="M20.579,5.394c-0.007-0.021-0.014-0.041-0.02-0.062c-0.434-1.329-0.303-2.779,0.321-4.031
		c0.059-0.118,0.115-0.237,0.166-0.349c0.153-0.335,0.007-0.73-0.325-0.887c-0.324-0.153-0.711-0.027-0.881,0.289
		c0,0-0.499,1.55-0.767,1.876l-0.707,0.859c-0.209,0.171-2.003,2.205-3.668,4.108c-3.18,3.635-5.656,7.833-7.274,12.384
		c-0.072,0.202-0.109,0.313-0.109,0.313c-0.291,0.218,0.4,0.4,1.018,0.327c0.618-0.073,0.436-0.644,0.436-0.644
		c0.836-3.389,3.902-8.172,3.902-8.172c4.214-5.986,6.2-6.956,6.2-6.956c0.472-0.327,0.913,1.417,0.913,1.417l2.659,11.589
		c0.25,1.381,0.349,2.121,0.349,2.121l0.04,1.153l1.458-0.964C23.604,18.655,20.579,5.394,20.579,5.394z"/>
	<path id="XMLID_2025_" class="st32" d="M30.411,22.954c-0.475-2.034-2.016-3.681-4.158-3.681c-0.71,0-1.378,0.179-1.963,0.492
		c-0.345,0.184-0.748,0.184-1.093,0c-0.585-0.313-1.253-0.492-1.963-0.492c-2.142,0-3.683,1.647-4.158,3.681
		c-0.085,0.366-0.192,0.759-0.192,1.314c0,3.788,3.071,7.732,6.86,7.732c3.788,0,6.859-3.943,6.859-7.732
		C30.603,23.713,30.496,23.32,30.411,22.954z"/>
	<path id="XMLID_2030_" class="st32" d="M14.924,22.954c-0.475-2.034-2.016-3.681-4.158-3.681c-0.71,0-1.378,0.179-1.963,0.492
		c-0.345,0.184-0.748,0.184-1.093,0c-0.585-0.313-1.253-0.492-1.963-0.492c-2.142,0-3.683,1.647-4.158,3.681
		c-0.085,0.366-0.192,0.759-0.192,1.314c0,3.788,3.071,7.732,6.86,7.732c3.788,0,6.859-3.943,6.859-7.732
		C15.116,23.713,15.009,23.32,14.924,22.954z"/>
	
		<ellipse id="XMLID_2026_" transform="matrix(0.2848 -0.9586 0.9586 0.2848 -7.893 35.6809)" class="st12" cx="19.965" cy="23.13" rx="1.97" ry="0.861"/>
	
		<ellipse id="XMLID_2096_" transform="matrix(0.2848 -0.9586 0.9586 0.2848 -19.2948 20.3989)" class="st12" cx="4.023" cy="23.13" rx="1.97" ry="0.861"/>
</g>
</svg>
