<?xml version="1.0" encoding="utf-8"?>
<!-- Generator: Adobe Illustrator 21.1.0, SVG Export Plug-In . SVG Version: 6.00 Build 0)  -->
<svg version="1.1" id="Layer_1" xmlns="http://www.w3.org/2000/svg" xmlns:xlink="http://www.w3.org/1999/xlink" x="0px" y="0px"
	 viewBox="0 0 32 32" style="enable-background:new 0 0 32 32;" xml:space="preserve">
<style type="text/css">
	.st0{fill:#FFD83B;}
	.st1{fill:#F2F2F2;}
	.st2{fill:#F3C432;}
	.st3{fill:#DEE4E9;}
	.st4{fill:#E9EFF4;}
	.st5{fill:#6DAFDF;}
	.st6{fill:#5CA3D9;}
	.st7{fill:#4D98D2;}
	.st8{fill:#E8EFF3;}
	.st9{fill:#DDE3E9;}
	.st10{fill:#4CC6E5;}
	.st11{opacity:0.05;fill:#2F3133;}
	.st12{fill:#E14B4B;}
	.st13{fill:#D3D9DD;}
	.st14{fill:#65B1EF;}
	.st15{fill:#8CC63E;}
	.st16{fill:#E84D88;}
	.st17{fill:#A4856D;}
	.st18{fill:#8BC540;}
	.st19{fill:#7FB241;}
	.st20{fill:#8E6D53;}
	.st21{fill:#FFFFFF;}
	.st22{fill:#9A795F;}
	.st23{fill:#E24B4B;}
	.st24{fill:#F2992D;}
	.st25{fill:#DF8726;}
	.st26{fill:#997960;}
	.st27{fill:#FFD93B;}
	.st28{fill:#E8AF2A;}
	.st29{fill:#D23F77;}
	.st30{fill:#D03F3F;}
	.st31{fill:#BF3332;}
	.st32{fill:#D03F3E;}
	.st33{fill:#BF3333;}
	.st34{fill:#F4C534;}
	.st35{fill:#8F6D52;}
	.st36{fill:#E9B02C;}
	.st37{fill:#5A5F63;}
	.st38{fill:#F4F4F4;}
	.st39{fill:#E74C87;}
	.st40{fill:#D24078;}
	.st41{fill:#5B5F63;}
	.st42{fill:#3F4347;}
	.st43{fill:#719C40;}
	.st44{fill:#7B5C45;}
	.st45{fill:#BB3166;}
	.st46{fill:#89664C;}
	.st47{fill:#77589F;}
	.st48{fill:#8066AA;}
	.st49{fill:#8D7FB6;}
	.st50{fill:#88BA40;}
	.st51{fill:#FDE7AA;}
	.st52{fill:#7FB239;}
	.st53{fill:#45CBEA;}
	.st54{fill:#ACB9C1;}
	.st55{fill:#DAE5EF;}
	.st56{fill:#7CA740;}
	.st57{fill:#88BF40;}
	.st58{fill:#85BB40;}
	.st59{fill:#FFF100;}
	.st60{fill:#FFDD00;}
	.st61{fill:#F29A2E;}
	.st62{fill:#3E4347;}
	.st63{fill:#59A5E0;}
	.st64{fill:#2F3133;}
	.st65{fill:#EDEDEF;}
	.st66{fill:#4E99D2;}
	.st67{fill:#A5856D;}
</style>
<g id="XMLID_3594_">
	<path id="XMLID_3664_" class="st43" d="M12.016,8.856c0.71-3.364,3.975-6.819,7.293-7.718C18.6,4.502,15.335,7.957,12.016,8.856z"
		/>
	<path id="XMLID_3673_" class="st43" d="M9.33,27.488c-0.71-3.364-3.975-6.819-7.293-7.718C2.746,23.134,6.011,26.59,9.33,27.488z"
		/>
	<path id="XMLID_3660_" class="st43" d="M22.67,30.518c0.71-3.364,3.975-6.819,7.293-7.718
		C29.254,26.164,25.989,29.619,22.67,30.518z"/>
	<polygon id="XMLID_3661_" class="st18" points="9.368,32 14.929,32 11.748,0 6.187,0 	"/>
	<polygon id="XMLID_3665_" class="st50" points="14.032,22.99 13.932,21.9 12.752,10.11 12.652,9.02 11.752,0 10.021,0 13.314,32 
		14.932,32 	"/>
	<polygon id="XMLID_3581_" class="st18" points="23.136,32 17.575,32 20.756,0.65 26.317,0.65 	"/>
	<polygon id="XMLID_3672_" class="st50" points="26.317,0.65 24.657,0.65 21.469,32 23.136,32 	"/>
	<ellipse id="XMLID_3653_" class="st51" cx="23.536" cy="0.65" rx="2.78" ry="0.65"/>
	<g id="XMLID_3659_">
		<polygon id="XMLID_3671_" class="st43" points="25.682,7.127 25.572,8.217 20.012,8.217 20.122,7.127 		"/>
		<polygon id="XMLID_3670_" class="st43" points="24.802,15.747 24.782,15.967 24.722,16.637 24.702,16.857 19.142,16.857 
			19.162,16.637 19.222,15.967 19.242,15.747 		"/>
		<polygon id="XMLID_3669_" class="st43" points="23.932,24.387 23.822,25.477 18.262,25.477 18.372,24.387 		"/>
	</g>
	<g id="XMLID_3658_">
		<polygon id="XMLID_3677_" class="st43" points="12.752,10.107 7.192,10.107 7.092,9.017 12.652,9.017 		"/>
		<polygon id="XMLID_3676_" class="st43" points="14.032,22.987 8.472,22.987 8.372,21.897 13.932,21.897 		"/>
	</g>
</g>
</svg>
