<?xml version="1.0" encoding="utf-8"?>
<!-- Generator: Adobe Illustrator 21.1.0, SVG Export Plug-In . SVG Version: 6.00 Build 0)  -->
<svg version="1.1" id="Layer_1" xmlns="http://www.w3.org/2000/svg" xmlns:xlink="http://www.w3.org/1999/xlink" x="0px" y="0px"
	 viewBox="0 0 32 32" style="enable-background:new 0 0 32 32;" xml:space="preserve">
<style type="text/css">
	.st0{fill:#FFD83B;}
	.st1{fill:#F2F2F2;}
	.st2{fill:#F3C432;}
	.st3{fill:#DEE4E9;}
	.st4{fill:#E9EFF4;}
	.st5{fill:#6DAFDF;}
	.st6{fill:#5CA3D9;}
	.st7{fill:#4D98D2;}
	.st8{fill:#E8EFF3;}
	.st9{fill:#DDE3E9;}
	.st10{fill:#4CC6E5;}
	.st11{opacity:0.05;fill:#2F3133;}
	.st12{fill:#E14B4B;}
	.st13{fill:#D3D9DD;}
	.st14{fill:#65B1EF;}
	.st15{fill:#8CC63E;}
	.st16{fill:#E84D88;}
	.st17{fill:#A4856D;}
	.st18{fill:#8BC540;}
	.st19{fill:#7FB241;}
	.st20{fill:#8E6D53;}
	.st21{fill:#FFFFFF;}
	.st22{fill:#9A795F;}
	.st23{fill:#E24B4B;}
	.st24{fill:#F2992D;}
	.st25{fill:#DF8726;}
	.st26{fill:#997960;}
	.st27{fill:#FFD93B;}
	.st28{fill:#E8AF2A;}
	.st29{fill:#D23F77;}
	.st30{fill:#D03F3F;}
	.st31{fill:#BF3332;}
	.st32{fill:#D03F3E;}
	.st33{fill:#BF3333;}
	.st34{fill:#F4C534;}
	.st35{fill:#8F6D52;}
	.st36{fill:#E9B02C;}
	.st37{fill:#5A5F63;}
	.st38{fill:#F4F4F4;}
	.st39{fill:#E74C87;}
	.st40{fill:#D24078;}
	.st41{fill:#5B5F63;}
	.st42{fill:#3F4347;}
	.st43{fill:#719C40;}
	.st44{fill:#7B5C45;}
	.st45{fill:#BB3166;}
	.st46{fill:#89664C;}
	.st47{fill:#77589F;}
	.st48{fill:#8066AA;}
	.st49{fill:#8D7FB6;}
	.st50{fill:#88BA40;}
	.st51{fill:#FDE7AA;}
	.st52{fill:#7FB239;}
	.st53{fill:#45CBEA;}
	.st54{fill:#ACB9C1;}
	.st55{fill:#DAE5EF;}
	.st56{fill:#7CA740;}
	.st57{fill:#88BF40;}
	.st58{fill:#85BB40;}
	.st59{fill:#FFF100;}
	.st60{fill:#FFDD00;}
	.st61{fill:#F29A2E;}
	.st62{fill:#3E4347;}
	.st63{fill:#59A5E0;}
	.st64{fill:#2F3133;}
	.st65{fill:#EDEDEF;}
	.st66{fill:#4E99D2;}
	.st67{fill:#A5856D;}
</style>
<g id="XMLID_2049_">
	<path id="XMLID_2059_" class="st18" d="M16.377,25.65c0,0,1.718,2.934,5.741,2.137c0,0-1.341-3.269,4.736-2.514
		c0,0,0.461-2.598,5.071-4.065c0,0-7.166-0.419-6.328-2.389c0,0,0.335-1.509,4.191-3.981c0,0-3.562,1.299-3.059-0.251
		s2.682-2.263,2.682-2.263s-2.892,0.21-0.21-4.568c0,0-3.395,3.185-3.143,1.802c0,0-2.389,2.179-2.682-0.084
		c0,0-2.514,3.562-3.101,2.892c0,0-2.095-0.796,0.21-6.621c0,0-2.682,3.017-2.305-2.389c0,0-1.441-0.545-1.957-2.598
		c0,0-1.647,3.436-1.94,2.85c0,0,0.168,5.197-2.263,1.97c0,0,1.886,5.616,0,6.999c0,0-2.934-2.598-3.143-3.227l-0.377,1.173
		L6.445,9.348c0,0-0.88,1.006-3.311-1.676c0,0,2.64,4.652,0,4.694c0,0,3.017,1.383,2.556,3.059c0,0-1.383,0.419-2.934-0.629
		c0,0,4.484,2.934,4.065,5.155c0,0-4.945,1.257-6.747,1.048c0,0,4.987,1.718,5.406,4.065c0,0,5.616-0.452,4.945,2.288
		C10.426,27.351,13.947,29.086,16.377,25.65z"/>
	<path id="XMLID_2061_" class="st19" d="M21.776,22.388c-1.558,0.337-3.119,0.944-4.398,1.969c0.775-2.298,2.235-4.715,3.213-5.952
		c1.704-2.354,4.036-4.552,6.177-6.469c-2.538,1.76-4.769,3.561-6.767,6.007c-0.888,1-2.232,2.965-3.084,4.872
		c-0.011-2.268-0.033-4.537-0.086-6.806c-0.058-1.996-0.18-6.979-0.407-10.194c-0.221,3.135-0.343,7.998-0.407,10.194
		c-0.061,2.589-0.083,5.178-0.089,7.767c-1.057-2.286-2.215-4.197-3.477-5.966c-2.026-2.918-4.221-4.822-6.62-6.504
		c1.369,1.376,2.85,2.425,5.894,7.002c1.357,2.064,2.459,4.118,3.453,6.254c-1.403-0.987-2.774-1.632-4.014-2
		c-2.265-0.808-4.21-0.687-6.383-0.436c1.852,0.058,4.301,0.243,6.161,1.058c1.376,0.513,3.346,1.651,4.801,3.038v5.021h1.295
		v-3.696v-1.108v-0.321c0.024-0.043,0.039-0.073,0.076-0.133c0.924-1.517,3.09-2.599,4.793-3.106
		c2.072-0.734,4.877-0.815,6.556-0.87C27.336,21.961,24.137,21.752,21.776,22.388z"/>
</g>
</svg>
