<?xml version="1.0" encoding="utf-8"?>
<!-- Generator: Adobe Illustrator 21.1.0, SVG Export Plug-In . SVG Version: 6.00 Build 0)  -->
<svg version="1.1" id="Layer_1" xmlns="http://www.w3.org/2000/svg" xmlns:xlink="http://www.w3.org/1999/xlink" x="0px" y="0px"
	 viewBox="0 0 32 32" style="enable-background:new 0 0 32 32;" xml:space="preserve">
<style type="text/css">
	.st0{fill:#FFD83B;}
	.st1{fill:#F2F2F2;}
	.st2{fill:#F3C432;}
	.st3{fill:#DEE4E9;}
	.st4{fill:#E9EFF4;}
	.st5{fill:#6DAFDF;}
	.st6{fill:#5CA3D9;}
	.st7{fill:#4D98D2;}
	.st8{fill:#E8EFF3;}
	.st9{fill:#DDE3E9;}
	.st10{fill:#4CC6E5;}
	.st11{opacity:0.05;fill:#2F3133;}
	.st12{fill:#E14B4B;}
	.st13{fill:#D3D9DD;}
	.st14{fill:#65B1EF;}
	.st15{fill:#8CC63E;}
	.st16{fill:#E84D88;}
	.st17{fill:#A4856D;}
	.st18{fill:#8BC540;}
	.st19{fill:#7FB241;}
	.st20{fill:#8E6D53;}
	.st21{fill:#FFFFFF;}
	.st22{fill:#9A795F;}
	.st23{fill:#E24B4B;}
	.st24{fill:#F2992D;}
	.st25{fill:#DF8726;}
	.st26{fill:#997960;}
	.st27{fill:#FFD93B;}
	.st28{fill:#E8AF2A;}
	.st29{fill:#D23F77;}
	.st30{fill:#D03F3F;}
	.st31{fill:#BF3332;}
	.st32{fill:#D03F3E;}
	.st33{fill:#BF3333;}
	.st34{fill:#F4C534;}
	.st35{fill:#8F6D52;}
	.st36{fill:#E9B02C;}
	.st37{fill:#5A5F63;}
	.st38{fill:#F4F4F4;}
	.st39{fill:#E74C87;}
	.st40{fill:#D24078;}
	.st41{fill:#5B5F63;}
	.st42{fill:#3F4347;}
	.st43{fill:#719C40;}
	.st44{fill:#7B5C45;}
	.st45{fill:#BB3166;}
	.st46{fill:#89664C;}
	.st47{fill:#77589F;}
	.st48{fill:#8066AA;}
	.st49{fill:#8D7FB6;}
	.st50{fill:#88BA40;}
	.st51{fill:#FDE7AA;}
	.st52{fill:#7FB239;}
	.st53{fill:#45CBEA;}
	.st54{fill:#ACB9C1;}
	.st55{fill:#DAE5EF;}
	.st56{fill:#7CA740;}
	.st57{fill:#88BF40;}
	.st58{fill:#85BB40;}
	.st59{fill:#FFF100;}
	.st60{fill:#FFDD00;}
	.st61{fill:#F29A2E;}
	.st62{fill:#3E4347;}
	.st63{fill:#59A5E0;}
	.st64{fill:#2F3133;}
	.st65{fill:#EDEDEF;}
	.st66{fill:#4E99D2;}
	.st67{fill:#A5856D;}
</style>
<g id="XMLID_4257_">
	<g>
		<path id="XMLID_4254_" class="st26" d="M22.042,25.88c-0.162,1.682-0.27,5.132-0.292,5.877h5.265
			c-0.211-0.525-0.596-1.465-0.84-1.952c-0.35-0.699-0.146-8.742-0.146-8.742c-0.262-2.623,2.652-7.285,2.652-7.285l-3.089-0.117
			l-1.515,1.719v-0.466l-0.73,0.291c0.173,1.195-0.436,4.255-0.436,4.255c-2.448-2.331-4.721-2.535-4.721-2.535
			c-2.506-1.399-5.496-5.304-5.496-5.304h-2.401l4.371,5.566c-3.031-1.195-5.245,0.087-5.245,0.087l0.321-0.495H9.273L8.37,17.362
			c-3.643-1.02-4.109-4.575-4.109-4.575l-0.845-1.166c-0.262,0.569-0.204,1.224-0.204,1.224c-0.117,0.962,0.699,2.739,0.699,2.739
			c0.634,1.005,1.304,1.712,1.953,2.207c1.3,0.991,3.016,1.2,4.573,0.703c1.128-0.36,2.07-0.288,2.672-0.161
			c0.544,0.116,1.094,0.198,1.647,0.257c0.39,0.042,0.816,0.109,1.203,0.178c1.246,0.221,2.443,0.687,3.478,1.415
			c0.075,0.053,0.147,0.105,0.218,0.159C21.367,21.631,22.248,23.747,22.042,25.88z"/>
	</g>
	<path id="XMLID_4270_" class="st18" d="M12.988,3.996c-0.051-2.081-1.746-3.754-3.839-3.754c-1.419,0-2.645,0.776-3.312,1.919
		C5.426,1.98,4.974,1.876,4.497,1.876c-1.837,0-3.326,1.489-3.326,3.326c0,0.127,0.024,0.248,0.037,0.372
		C0.501,6.36,0.059,7.389,0.059,8.529c0,2.451,1.987,4.438,4.438,4.438c0.322,0,0.635-0.038,0.938-0.104
		c0.609,0.78,1.547,1.29,2.612,1.29c1.22,0,2.276-0.665,2.855-1.645c0.391,0.285,0.868,0.458,1.389,0.458
		c1.308,0,2.369-1.06,2.369-2.369c0-0.257-0.051-0.499-0.127-0.731c0.768-0.609,1.269-1.539,1.269-2.595
		C15.802,5.61,14.58,4.245,12.988,3.996z"/>
	<path id="XMLID_4269_" class="st57" d="M11.917,3.897C11.881,2.446,10.7,1.28,9.24,1.28c-0.989,0-1.844,0.541-2.309,1.338
		C6.645,2.491,6.33,2.419,5.997,2.419c-1.281,0-2.319,1.038-2.319,2.319c0,0.089,0.016,0.173,0.026,0.259
		c-0.493,0.548-0.801,1.265-0.801,2.06c0,1.709,1.385,3.094,3.094,3.094c0.225,0,0.443-0.027,0.654-0.072
		c0.424,0.544,1.078,0.899,1.821,0.899c0.851,0,1.587-0.463,1.99-1.147c0.273,0.199,0.606,0.32,0.969,0.32
		c0.912,0,1.652-0.739,1.652-1.652c0-0.179-0.036-0.348-0.088-0.51c0.535-0.425,0.885-1.073,0.885-1.81
		C13.879,5.022,13.027,4.07,11.917,3.897z"/>
	<path id="XMLID_4268_" class="st58" d="M10.846,3.798c-0.02-0.821-0.689-1.481-1.514-1.481c-0.56,0-1.043,0.306-1.307,0.757
		c-0.162-0.072-0.34-0.113-0.529-0.113c-0.725,0-1.312,0.587-1.312,1.312c0,0.05,0.009,0.098,0.015,0.147
		C5.921,4.73,5.746,5.136,5.746,5.586c0,0.967,0.784,1.751,1.751,1.751c0.127,0,0.25-0.015,0.37-0.041
		c0.24,0.308,0.61,0.509,1.031,0.509c0.481,0,0.898-0.262,1.126-0.649c0.154,0.112,0.343,0.181,0.548,0.181
		c0.516,0,0.934-0.418,0.934-0.934c0-0.101-0.02-0.197-0.05-0.288c0.303-0.24,0.501-0.607,0.501-1.024
		C11.956,4.434,11.474,3.896,10.846,3.798z"/>
	<path id="XMLID_693_" class="st18" d="M12.083,15.66c-0.023-0.946-0.794-1.707-1.746-1.707c-0.645,0-1.202,0.353-1.506,0.873
		c-0.187-0.082-0.392-0.13-0.609-0.13c-0.835,0-1.512,0.677-1.512,1.512c0,0.058,0.011,0.113,0.017,0.169
		c-0.321,0.357-0.522,0.825-0.522,1.343c0,1.114,0.903,2.018,2.018,2.018c0.147,0,0.289-0.017,0.426-0.047
		c0.277,0.354,0.703,0.586,1.188,0.586c0.555,0,1.035-0.302,1.298-0.748c0.178,0.13,0.395,0.208,0.632,0.208
		c0.595,0,1.077-0.482,1.077-1.077c0-0.117-0.023-0.227-0.058-0.332c0.349-0.277,0.577-0.7,0.577-1.18
		C13.362,16.393,12.806,15.772,12.083,15.66z"/>
	<path id="XMLID_692_" class="st57" d="M11.596,15.614c-0.016-0.66-0.553-1.19-1.217-1.19c-0.45,0-0.838,0.246-1.05,0.608
		c-0.13-0.058-0.273-0.091-0.425-0.091c-0.582,0-1.055,0.472-1.055,1.054c0,0.04,0.007,0.079,0.012,0.118
		c-0.224,0.249-0.364,0.575-0.364,0.937c0,0.777,0.63,1.407,1.407,1.407c0.102,0,0.201-0.012,0.297-0.033
		c0.193,0.247,0.49,0.409,0.828,0.409c0.387,0,0.722-0.211,0.905-0.521c0.124,0.09,0.275,0.145,0.44,0.145
		c0.415,0,0.751-0.336,0.751-0.751c0-0.081-0.016-0.158-0.04-0.232c0.243-0.193,0.402-0.488,0.402-0.823
		C12.488,16.126,12.1,15.693,11.596,15.614z"/>
	<path id="XMLID_425_" class="st58" d="M11.109,15.569c-0.009-0.373-0.313-0.673-0.689-0.673c-0.254,0-0.474,0.139-0.594,0.344
		c-0.074-0.033-0.155-0.051-0.24-0.051c-0.33,0-0.597,0.267-0.597,0.597c0,0.023,0.004,0.044,0.007,0.067
		c-0.127,0.141-0.206,0.326-0.206,0.53c0,0.44,0.356,0.796,0.796,0.796c0.058,0,0.114-0.007,0.168-0.019
		c0.109,0.14,0.277,0.231,0.469,0.231c0.219,0,0.408-0.119,0.512-0.295c0.07,0.051,0.156,0.082,0.249,0.082
		c0.235,0,0.425-0.19,0.425-0.425c0-0.046-0.009-0.09-0.023-0.131c0.138-0.109,0.228-0.276,0.228-0.466
		C11.613,15.859,11.394,15.614,11.109,15.569z"/>
	<path id="XMLID_4267_" class="st18" d="M31.941,9.606c0-1.784-1.446-3.23-3.23-3.23c-0.745,0-1.422,0.262-1.969,0.686
		c0-0.012,0.003-0.023,0.003-0.035c0-1.421-1.152-2.573-2.573-2.573c-0.837,0-1.574,0.406-2.044,1.025
		c-0.406-0.42-0.972-0.683-1.602-0.683c-1.232,0-2.231,0.999-2.231,2.231c0,0.139,0.017,0.274,0.041,0.406
		c-1.017,0.788-1.683,2.008-1.683,3.395c0,2.38,1.929,4.309,4.309,4.309c0.353,0,0.691-0.054,1.02-0.134
		c0.331,0.78,1.104,1.327,2.005,1.327c0.752,0,1.414-0.381,1.805-0.96c0.478,0.417,1.095,0.678,1.779,0.678
		c1.501,0,2.718-1.217,2.718-2.718c0-0.296-0.059-0.576-0.147-0.843C31.205,11.958,31.941,10.873,31.941,9.606z"/>
	<path id="XMLID_4266_" class="st58" d="M28.48,9.828c0-1.281-1.038-2.319-2.319-2.319c-0.535,0-1.021,0.188-1.413,0.492
		c0-0.008,0.002-0.016,0.002-0.025c0-1.02-0.827-1.847-1.847-1.847c-0.601,0-1.13,0.291-1.467,0.736
		c-0.291-0.301-0.698-0.49-1.15-0.49c-0.885,0-1.602,0.717-1.602,1.602c0,0.1,0.012,0.196,0.029,0.291
		c-0.73,0.566-1.209,1.442-1.209,2.437c0,1.709,1.385,3.094,3.094,3.094c0.254,0,0.496-0.039,0.732-0.096
		c0.238,0.56,0.793,0.953,1.439,0.953c0.54,0,1.015-0.273,1.296-0.689c0.343,0.299,0.786,0.487,1.277,0.487
		c1.078,0,1.951-0.874,1.951-1.951c0-0.213-0.043-0.414-0.105-0.605C27.952,11.516,28.48,10.737,28.48,9.828z"/>
	<path id="XMLID_4265_" class="st19" d="M25.019,10.05c0-0.778-0.63-1.408-1.408-1.408c-0.325,0-0.62,0.114-0.858,0.299l0.002-0.015
		c0-0.619-0.502-1.121-1.121-1.121c-0.365,0-0.686,0.177-0.891,0.447c-0.177-0.183-0.424-0.298-0.698-0.298
		c-0.537,0-0.972,0.435-0.972,0.972c0,0.061,0.007,0.119,0.018,0.177c-0.443,0.343-0.734,0.875-0.734,1.479
		c0,1.037,0.841,1.878,1.878,1.878c0.154,0,0.301-0.024,0.444-0.059c0.144,0.34,0.481,0.578,0.874,0.578
		c0.328,0,0.616-0.166,0.787-0.418c0.208,0.182,0.477,0.296,0.775,0.296c0.654,0,1.184-0.53,1.184-1.184
		c0-0.129-0.026-0.251-0.064-0.367C24.698,11.075,25.019,10.602,25.019,10.05z"/>
</g>
</svg>
