<?xml version="1.0" encoding="utf-8"?>
<!-- Generator: Adobe Illustrator 21.1.0, SVG Export Plug-In . SVG Version: 6.00 Build 0)  -->
<svg version="1.1" id="Layer_1" xmlns="http://www.w3.org/2000/svg" xmlns:xlink="http://www.w3.org/1999/xlink" x="0px" y="0px"
	 viewBox="0 0 32 32" style="enable-background:new 0 0 32 32;" xml:space="preserve">
<style type="text/css">
	.st0{fill:#FFD83B;}
	.st1{fill:#F2F2F2;}
	.st2{fill:#F3C432;}
	.st3{fill:#DEE4E9;}
	.st4{fill:#E9EFF4;}
	.st5{fill:#6DAFDF;}
	.st6{fill:#5CA3D9;}
	.st7{fill:#4D98D2;}
	.st8{fill:#E8EFF3;}
	.st9{fill:#DDE3E9;}
	.st10{fill:#4CC6E5;}
	.st11{opacity:0.05;fill:#2F3133;}
	.st12{fill:#E14B4B;}
	.st13{fill:#D3D9DD;}
	.st14{fill:#65B1EF;}
	.st15{fill:#8CC63E;}
	.st16{fill:#E84D88;}
	.st17{fill:#A4856D;}
	.st18{fill:#8BC540;}
	.st19{fill:#7FB241;}
	.st20{fill:#8E6D53;}
	.st21{fill:#FFFFFF;}
	.st22{fill:#9A795F;}
	.st23{fill:#E24B4B;}
	.st24{fill:#F2992D;}
	.st25{fill:#DF8726;}
	.st26{fill:#997960;}
	.st27{fill:#FFD93B;}
	.st28{fill:#E8AF2A;}
	.st29{fill:#D23F77;}
	.st30{fill:#D03F3F;}
	.st31{fill:#BF3332;}
	.st32{fill:#D03F3E;}
	.st33{fill:#BF3333;}
	.st34{fill:#F4C534;}
	.st35{fill:#8F6D52;}
	.st36{fill:#E9B02C;}
	.st37{fill:#5A5F63;}
	.st38{fill:#F4F4F4;}
	.st39{fill:#E74C87;}
	.st40{fill:#D24078;}
	.st41{fill:#5B5F63;}
	.st42{fill:#3F4347;}
	.st43{fill:#719C40;}
	.st44{fill:#7B5C45;}
	.st45{fill:#BB3166;}
	.st46{fill:#89664C;}
	.st47{fill:#77589F;}
	.st48{fill:#8066AA;}
	.st49{fill:#8D7FB6;}
	.st50{fill:#88BA40;}
	.st51{fill:#FDE7AA;}
	.st52{fill:#7FB239;}
	.st53{fill:#45CBEA;}
	.st54{fill:#ACB9C1;}
	.st55{fill:#DAE5EF;}
	.st56{fill:#7CA740;}
	.st57{fill:#88BF40;}
	.st58{fill:#85BB40;}
	.st59{fill:#FFF100;}
	.st60{fill:#FFDD00;}
	.st61{fill:#F29A2E;}
	.st62{fill:#3E4347;}
	.st63{fill:#59A5E0;}
	.st64{fill:#2F3133;}
	.st65{fill:#EDEDEF;}
	.st66{fill:#4E99D2;}
	.st67{fill:#A5856D;}
</style>
<g id="XMLID_4002_">
	<path id="XMLID_4001_" class="st17" d="M10.781,30.756c0.842-0.781,1.74-2.724,2.716-6.662c0.004-0.015,0.006-0.028,0.009-0.043
		c0.049-0.304,1.27-3.625-0.326-8.24c-0.16-0.464,0.424-0.817,0.755-0.454l0,0c0.277,0.304,0.783,0.108,0.783-0.303V12.24
		c0-0.266,0.229-0.474,0.494-0.448l2.555,0.25c0.231,0.023,0.406,0.216,0.406,0.448v1.976c0,0.408,0.499,0.606,0.779,0.308
		l1.69-1.802c0.247-0.263,0.688-0.143,0.768,0.209l0.219,0.97c0.04,0.175-0.026,0.357-0.172,0.462
		c-1.005,0.718-4.255,3.956-2.8,11.528c0.004,0.022,0.009,0.042,0.016,0.063c0.097,0.288,0.423,2.572,2.375,4.421
		c0.259,0.245,0.151,0.677-0.195,0.764c-0.498,0.125-1.119,0.293-1.58,0.456c-1.339,0.474-3.151-0.657-3.759-1.078
		c-0.132-0.091-0.299-0.105-0.444-0.036c-0.687,0.326-2.689,1.222-3.469,1c-0.266-0.076-0.489-0.152-0.673-0.222
		C10.613,31.388,10.534,30.986,10.781,30.756z"/>
	<g id="XMLID_4000_">
		<path id="XMLID_4023_" class="st43" d="M19.937,12.339c0-0.96-0.779-1.739-1.739-1.739c-0.133,0-0.262,0.016-0.386,0.044
			c0.028-0.124,0.044-0.253,0.044-0.386c0-0.96-0.779-1.739-1.739-1.739c-0.461,0-0.879,0.181-1.191,0.474
			c-0.273-0.603-0.879-1.024-1.584-1.024c-0.383,0-0.736,0.125-1.024,0.336c-0.183-1.352-1.339-2.394-2.74-2.394
			c-1.529,0-2.768,1.239-2.768,2.768c0,0.303,0.05,0.594,0.14,0.867c-0.514,0.37-0.85,0.971-0.85,1.653
			c0,0.39,0.112,0.753,0.302,1.063c-0.492,0.307-0.821,0.852-0.821,1.475c0,0.039,0.003,0.078,0.006,0.117
			c-0.039-0.003-0.077-0.006-0.117-0.006c-0.96,0-1.739,0.779-1.739,1.739c0,0.452,0.174,0.862,0.456,1.171
			c-0.511,0.303-0.855,0.859-0.855,1.496c0,0.961,0.779,1.739,1.739,1.739c0.812,0,1.491-0.557,1.683-1.309
			c0.298,0.238,0.674,0.381,1.085,0.381c0.279,0,0.541-0.067,0.774-0.184c0.499,0.735,1.342,1.219,2.298,1.219
			c0.814,0,1.543-0.352,2.051-0.911c0.231,0.062,0.473,0.099,0.724,0.099c1.187,0,2.197-0.747,2.593-1.796
			c0.537-0.506,0.873-1.221,0.873-2.017c0-0.011-0.001-0.021-0.002-0.032c0.703-0.135,1.253-0.693,1.38-1.398
			C19.332,13.89,19.937,13.185,19.937,12.339z M10.327,11.365c-0.056,0.012-0.11,0.027-0.164,0.042c0.001-0.008,0-0.016,0.001-0.023
			c0.058-0.013,0.116-0.028,0.172-0.044C10.333,11.348,10.331,11.356,10.327,11.365z"/>
		<path id="XMLID_4017_" class="st19" d="M22.714,5.424c0.169-0.236,0.27-0.524,0.27-0.837c0-0.794-0.644-1.438-1.438-1.438
			c-0.166,0-0.325,0.03-0.474,0.081c-0.205-0.543-0.67-0.956-1.244-1.088c-0.025-1.164-0.975-2.101-2.145-2.101
			c-0.937,0-1.731,0.601-2.025,1.437c-0.358-0.344-0.843-0.557-1.379-0.557c-1.099,0-1.99,0.891-1.99,1.99c0,0.003,0,0.007,0,0.01
			c-0.067-0.005-0.134-0.01-0.202-0.01c-1.386,0-2.509,1.123-2.509,2.509c0,1.376,1.109,2.493,2.482,2.508
			c0.272,1.038,1.214,1.805,2.338,1.805c0.801,0,1.51-0.391,1.95-0.991c0.25,0.907,1.079,1.575,2.066,1.575
			c1.185,0,2.145-0.96,2.145-2.145c0-0.007-0.001-0.013-0.001-0.02c0.19,0.093,0.403,0.146,0.628,0.146
			c0.262,0,0.507-0.071,0.719-0.194c0.212,0.123,0.457,0.194,0.719,0.194c0.794,0,1.438-0.644,1.438-1.438
			C24.064,6.094,23.467,5.47,22.714,5.424z"/>
		<path id="XMLID_4014_" class="st19" d="M18.624,17.273c0.242-1.331-0.641-2.606-1.972-2.848c-0.321-0.058-0.639-0.05-0.94,0.013
			c-0.26-0.165-0.554-0.285-0.876-0.343c-1.282-0.233-2.51,0.58-2.814,1.83c-0.683,0.197-1.232,0.763-1.368,1.509
			c-0.011-0.002-0.022-0.002-0.032-0.004c0.001-0.916-0.652-1.73-1.585-1.899c-0.962-0.175-1.885,0.396-2.179,1.301
			C6.742,16.78,6.62,16.74,6.49,16.716c-0.868-0.158-1.7,0.418-1.858,1.287C4.495,18.76,4.915,19.489,5.6,19.768
			c0.02,0.74,0.555,1.389,1.312,1.527c0.749,0.136,1.47-0.274,1.755-0.947c0.278,0.449,0.736,0.785,1.296,0.886
			c0.603,0.11,1.191-0.075,1.619-0.45c0.239,0.375,0.627,0.654,1.099,0.74c0.554,0.101,1.093-0.087,1.464-0.456
			c0.326,0.292,0.731,0.502,1.193,0.586c1.331,0.242,2.606-0.641,2.848-1.972c0.08-0.439,0.035-0.872-0.106-1.264
			C18.35,18.101,18.544,17.712,18.624,17.273z"/>
		<path id="XMLID_4008_" class="st18" d="M27.893,17.389c0.138-0.314,0.196-0.667,0.148-1.031c-0.081-0.608-0.437-1.11-0.925-1.403
			c0.239-0.395,0.35-0.871,0.285-1.364c-0.095-0.715-0.54-1.298-1.139-1.601c0.227-0.358,0.334-0.793,0.274-1.246
			c-0.117-0.879-0.828-1.532-1.675-1.612c0.13-0.282,0.186-0.601,0.142-0.932c-0.124-0.927-0.975-1.578-1.902-1.455
			c-0.499,0.067-0.917,0.345-1.178,0.732c-0.331-0.123-0.696-0.169-1.071-0.119c-0.678,0.09-1.244,0.477-1.587,1.011
			c-0.546-0.364-1.219-0.542-1.921-0.448c-1.531,0.204-2.607,1.611-2.403,3.143c0.148,1.111,0.93,1.979,1.932,2.296
			c-0.196,0.302-0.291,0.672-0.239,1.057c0.003,0.023,0.009,0.045,0.013,0.068c-0.681,0.3-1.113,1.022-1.01,1.797
			c0.093,0.701,0.597,1.245,1.237,1.425c-0.233,0.44-0.338,0.954-0.267,1.485c0.181,1.358,1.429,2.312,2.786,2.13
			c0.328-0.044,0.632-0.152,0.902-0.307c0.297,0.333,0.737,0.528,1.208,0.503c0.352,0.269,0.805,0.405,1.278,0.342
			c0.647-0.086,1.161-0.519,1.383-1.087c0.237,0.098,0.502,0.138,0.775,0.102c0.262-0.035,0.499-0.136,0.698-0.282
			c0.379,0.247,0.845,0.366,1.329,0.302c1.074-0.143,1.828-1.129,1.685-2.203C28.578,18.152,28.294,17.694,27.893,17.389z
			 M22.816,11.067c0,0.011,0.002,0.022,0.003,0.033c-0.005-0.006-0.01-0.012-0.015-0.018C22.808,11.077,22.812,11.072,22.816,11.067
			z"/>
	</g>
</g>
</svg>
