<?xml version="1.0" encoding="utf-8"?>
<!-- Generator: Adobe Illustrator 21.1.0, SVG Export Plug-In . SVG Version: 6.00 Build 0)  -->
<svg version="1.1" id="Layer_1" xmlns="http://www.w3.org/2000/svg" xmlns:xlink="http://www.w3.org/1999/xlink" x="0px" y="0px"
	 viewBox="0 0 32 32" style="enable-background:new 0 0 32 32;" xml:space="preserve">
<style type="text/css">
	.st0{fill:#FFD83B;}
	.st1{fill:#F2F2F2;}
	.st2{fill:#F3C432;}
	.st3{fill:#DEE4E9;}
	.st4{fill:#E9EFF4;}
	.st5{fill:#6DAFDF;}
	.st6{fill:#5CA3D9;}
	.st7{fill:#4D98D2;}
	.st8{fill:#E8EFF3;}
	.st9{fill:#DDE3E9;}
	.st10{fill:#4CC6E5;}
	.st11{opacity:0.05;fill:#2F3133;}
	.st12{fill:#E14B4B;}
	.st13{fill:#D3D9DD;}
	.st14{fill:#65B1EF;}
	.st15{fill:#8CC63E;}
	.st16{fill:#E84D88;}
	.st17{fill:#A4856D;}
	.st18{fill:#8BC540;}
	.st19{fill:#7FB241;}
	.st20{fill:#8E6D53;}
	.st21{fill:#FFFFFF;}
	.st22{fill:#9A795F;}
	.st23{fill:#E24B4B;}
	.st24{fill:#F2992D;}
	.st25{fill:#DF8726;}
	.st26{fill:#997960;}
	.st27{fill:#FFD93B;}
	.st28{fill:#E8AF2A;}
	.st29{fill:#D23F77;}
	.st30{fill:#D03F3F;}
	.st31{fill:#BF3332;}
	.st32{fill:#D03F3E;}
	.st33{fill:#BF3333;}
	.st34{fill:#F4C534;}
	.st35{fill:#8F6D52;}
	.st36{fill:#E9B02C;}
	.st37{fill:#5A5F63;}
	.st38{fill:#F4F4F4;}
	.st39{fill:#E74C87;}
	.st40{fill:#D24078;}
	.st41{fill:#5B5F63;}
	.st42{fill:#3F4347;}
	.st43{fill:#719C40;}
	.st44{fill:#7B5C45;}
	.st45{fill:#BB3166;}
	.st46{fill:#89664C;}
	.st47{fill:#77589F;}
	.st48{fill:#8066AA;}
	.st49{fill:#8D7FB6;}
	.st50{fill:#88BA40;}
	.st51{fill:#FDE7AA;}
	.st52{fill:#7FB239;}
	.st53{fill:#45CBEA;}
	.st54{fill:#ACB9C1;}
	.st55{fill:#DAE5EF;}
	.st56{fill:#7CA740;}
	.st57{fill:#88BF40;}
	.st58{fill:#85BB40;}
	.st59{fill:#FFF100;}
	.st60{fill:#FFDD00;}
	.st61{fill:#F29A2E;}
	.st62{fill:#3E4347;}
	.st63{fill:#59A5E0;}
	.st64{fill:#2F3133;}
	.st65{fill:#EDEDEF;}
	.st66{fill:#4E99D2;}
	.st67{fill:#A5856D;}
</style>
<g id="XMLID_4026_">
	<g id="XMLID_4009_">
		<g>
			<path id="XMLID_4024_" class="st22" d="M24.607,15.148c0,0,0,2.214-2.74,3.867c-0.762,0.459-1.698-0.246-1.478-1.109
				c0.406-1.591,0.881-3.807,0.881-5.465c0-2.896-3.255,1.196-3.255,1.196l0.61,4.344c0,0-0.393,1.423-1.46,2.68
				c-0.52,0.613-1.509,0.392-1.728-0.381c-0.363-1.276-0.562-3.324,0.592-5.762c1.967-4.156-2.755-0.441-2.755-0.441
				s1.292,3.445,0.516,7.171c-0.153,0.735-1.048,1.034-1.62,0.547c-1.264-1.076-3.026-3.254-2.863-6.963
				c0,0-0.109,3.133-0.819,3.652c0,0-2.707-1.385-2.896-2.267c-0.189-0.882,0,1.826,0,1.826s10.137,2.77,4.848,13.222h6.548
				c0,0-4.054-4.33,1.027-8.272c5.081-3.942,5.962-3.061,7.158-6.65C26.37,12.755,24.607,15.148,24.607,15.148z"/>
		</g>
		<g>
			<path id="XMLID_4005_" class="st15" d="M6.808,17.142c0.384-0.058,0.776-0.07,1.163-0.034c-0.113-0.47,0.652-0.827,0.939-0.439
				c0.351,0.474-0.107,1.414,0.45,1.608c0.325,0.113,0.616-0.211,0.898-0.407c0.387-0.268,0.918-0.312,1.344-0.111
				c0.014-0.286,0.028-0.572,0.042-0.858c0.266,0.011,0.533,0.022,0.799,0.033c0.006-0.253,0.011-0.505,0.017-0.758
				c1.32,0.158,2.236,1.857,3.542,1.607c0.173-0.033,0.349-0.102,0.521-0.063c0.159,0.035,0.282,0.155,0.416,0.246
				c0.621,0.424,1.469,0.249,2.158-0.054c0.688-0.303,1.356-0.725,2.108-0.761c0.575-0.028,1.282,0.125,1.622-0.339
				c0.097-0.133,0.147-0.304,0.275-0.407c0.372-0.301,0.836,0.205,1.179,0.539c0.604,0.588,1.516,0.706,2.358,0.725
				c0.437,0.01,0.891-0.002,1.281-0.199s0.693-0.63,0.606-1.057c-0.093-0.452-0.573-0.923-0.284-1.283
				c0.5,0.231,1.143,0.105,1.518-0.299c-0.395-0.813,0.269-1.927,1.172-1.967c0.239-0.01,0.485,0.041,0.715-0.026
				c0.23-0.067,0.432-0.327,0.322-0.539c-0.141-0.271-0.647-0.232-0.703-0.532c-0.041-0.22,0.21-0.368,0.328-0.558
				c0.218-0.352-0.091-0.841-0.489-0.951s-0.82,0.042-1.195,0.216c-0.082-0.804-0.71-1.523-1.496-1.712
				c0.492-0.218,0.709-0.898,0.434-1.36c-0.275-0.462-0.976-0.597-1.402-0.27c0.17-0.454,0.06-1-0.271-1.354
				c-0.331-0.354-0.868-0.499-1.333-0.361c-0.148-0.688-0.296-1.377-0.444-2.065c-0.055-0.257-0.116-0.526-0.286-0.727
				c-0.413-0.488-1.238-0.349-1.734-0.754c-0.128-0.105-0.246-0.251-0.412-0.26c-0.277-0.015-0.435,0.357-0.709,0.398
				c-0.154,0.023-0.299-0.065-0.444-0.122c-0.516-0.206-1.165,0.008-1.458,0.48c-0.111-0.42-0.597-0.632-1.031-0.637
				s-0.86,0.133-1.294,0.142c-0.694,0.014-1.352-0.301-2.042-0.378s-1.537,0.228-1.647,0.914c-0.052,0.32,0.061,0.693-0.147,0.941
				c-0.129,0.154-0.341,0.203-0.522,0.29c-0.371,0.179-0.637,0.558-0.679,0.967c-0.241-0.174-0.49-0.358-0.625-0.623
				s-0.113-0.635,0.129-0.807c0.124-0.088,0.283-0.112,0.417-0.184c0.338-0.181,0.44-0.609,0.507-0.987
				c0.016-0.092,0.032-0.192-0.01-0.276c-0.046-0.092-0.147-0.14-0.241-0.182c-0.466-0.205-0.931-0.409-1.397-0.614
				c-0.451-0.198-1.084-0.347-1.348,0.069c-0.085,0.135-0.108,0.308-0.217,0.425C9.996,1.652,9.589,1.545,9.345,1.739
				C9.073,1.955,9.143,2.428,8.876,2.651c-0.144,0.121-0.348,0.135-0.515,0.22c-0.257,0.132-0.405,0.448-0.34,0.73
				S8.357,4.104,8.647,4.11C8.904,4.115,9.139,3.97,9.391,3.916s0.585,0.044,0.616,0.3c0.029,0.24-0.24,0.418-0.482,0.427
				C9.284,4.651,9.049,4.557,8.808,4.549C8.092,4.527,7.356,5.252,6.751,4.868C6.53,4.728,6.381,4.456,6.123,4.417
				C5.674,4.349,5.48,4.993,5.078,5.204c-0.401,0.21-1.057,0.022-1.218,0.445c-0.038,0.1-0.031,0.21-0.043,0.316
				C3.753,6.542,3.17,6.901,2.639,7.135C2.184,7.336,1.711,7.517,1.325,7.83C0.939,8.142,0.648,8.624,0.709,9.117
				C0.76,9.536,1.056,9.92,1,10.338c-0.298,0.118-0.61,0.244-0.816,0.489s-0.265,0.648-0.038,0.875
				c0.368,0.369,1.003-0.024,1.509,0.097c0.035,0.177,0.069,0.354,0.104,0.531c0.473,0.035,0.947,0.07,1.42,0.105
				c0.026,0.162,0.051,0.325,0.077,0.487c0.375-0.464,1.144-0.144,1.703-0.355c0.294-0.111,0.509-0.364,0.778-0.527
				c0.269-0.163,0.677-0.2,0.85,0.062c-0.546,0.576-1.232,1.017-1.982,1.275c-0.46,0.158-0.957,0.255-1.342,0.553
				c-0.385,0.298-0.602,0.893-0.303,1.276c-0.308-0.017-0.619,0.013-0.918,0.091c-0.038,0.344,0.004,0.696,0.12,1.022
				c0.538-0.09,1.115,0.252,1.296,0.766c0.074,0.21,0.087,0.438,0.169,0.644c0.216,0.546,0.872,0.809,1.457,0.756
				s1.115-0.349,1.625-0.639"/>
		</g>
		<path id="XMLID_4013_" class="st52" d="M14.745,7.085c-0.385-0.308-0.771-0.616-1.156-0.924c-0.107-0.086-0.224-0.175-0.361-0.181
			c-0.113-0.005-0.218,0.049-0.325,0.084c-0.648,0.214-1.312-0.227-1.981-0.36C9.959,5.513,9,5.97,8.125,6.414
			C7.9,6.528,7.646,6.683,7.622,6.934C7.29,6.79,6.933,6.643,6.576,6.704C6.219,6.765,5.892,7.131,6.011,7.473
			C5.638,7.647,5.209,7.293,4.803,7.361C4.392,7.43,4.176,7.893,4.122,8.306C4.068,8.719,4.1,9.162,3.894,9.524l0.011,0.122
			c0.475,0.079,0.98,0.171,1.335,0.496c0.146,0.133,0.258,0.299,0.396,0.441c0.466,0.478,1.236,0.628,1.847,0.36
			c0.407-0.178,0.724-0.511,1.102-0.744c0.378-0.234,0.892-0.356,1.251-0.094c0.442,0.323,0.509,1.119,1.051,1.193
			c0.419,0.058,0.707-0.382,0.99-0.696c0.326-0.362,0.775-0.612,1.255-0.697c0.38-0.068,0.778-0.036,1.146-0.153
			c0.368-0.117,0.714-0.461,0.644-0.841c-0.165,0.213-0.586,0.043-0.557-0.225C14.405,8.313,15,8.288,15.166,7.952
			C15.32,7.639,15.017,7.303,14.745,7.085z"/>
		<path id="XMLID_4015_" class="st52" d="M25.637,5.884c-0.199-0.201-0.501-0.332-0.576-0.605c-0.031-0.112-0.017-0.232-0.012-0.348
			c0.047-1.13-0.975-2.192-2.106-2.188c0.029,0.131,0.057,0.261,0.086,0.392c-0.506-0.134-1.086,0.103-1.353,0.553
			c-0.904-0.287-1.807-0.574-2.711-0.861c-0.11-0.035-0.233-0.069-0.336-0.018c-0.119,0.059-0.161,0.205-0.227,0.32
			c-0.213,0.372-0.701,0.451-1.113,0.57c-0.412,0.119-0.871,0.451-0.772,0.868L16.39,4.927c-0.183,0.746,0.436,1.58,1.203,1.622
			c0.326,0.018,0.644-0.086,0.963-0.149c0.488-0.096,0.993-0.1,1.482-0.011c0.083,0.015,0.172,0.036,0.228,0.1
			c0.217,0.244-0.313,0.6-0.187,0.902c0.05,0.119,0.185,0.174,0.308,0.213c0.787,0.246,1.632,0.305,2.445,0.169
			c0.305-0.051,0.629-0.143,0.822-0.385c0.181-0.227,0.225-0.562,0.461-0.731c0.402-0.287,1.008,0.124,1.444-0.108
			C25.842,6.537,25.836,6.085,25.637,5.884z"/>
		<path id="XMLID_4016_" class="st52" d="M17.766,14.388c-0.141-0.299-0.391-0.531-0.649-0.737
			c-0.685-0.548-1.587-0.988-2.418-0.707c-0.257,0.087-0.491,0.238-0.754,0.303c-0.906,0.221-1.762-0.636-2.693-0.591
			c-0.867,0.042-1.554,0.851-2.421,0.889c-0.417,0.018-0.819-0.147-1.234-0.186C7.18,13.32,6.684,13.47,6.557,13.867
			c-0.086,0.269,0.022,0.588-0.121,0.832c-0.109,0.187-0.332,0.272-0.492,0.419c-0.416,0.381-0.313,1.05-0.177,1.598l0.03-0.128
			c0.183-0.127,0.305,0.213,0.436,0.393c0.136,0.188,0.417,0.219,0.633,0.133c0.216-0.086,0.381-0.262,0.538-0.433
			c0.333-0.363,0.674-0.742,1.124-0.942c0.45-0.201,1.043-0.172,1.363,0.202c0.244,0.285,0.368,0.769,0.743,0.786
			c0.437,0.02,0.551-0.593,0.836-0.925c0.318-0.371,0.879-0.379,1.368-0.358c0.301,0.013,0.611,0.028,0.886,0.15
			c0.257,0.114,0.466,0.313,0.713,0.447c0.247,0.134,0.573,0.192,0.796,0.021c-0.186-0.201-0.288-0.477-0.278-0.751
			c0.44,0.088,0.879,0.175,1.319,0.263c0.505,0.101,1.126,0.162,1.441-0.245C17.917,15.068,17.907,14.687,17.766,14.388z"/>
		<path id="XMLID_4019_" class="st52" d="M29.277,11.059c-0.464,0.247-1.051,0.113-1.49-0.176c-0.439-0.288-0.77-0.709-1.132-1.09
			c-0.143-0.151-0.3-0.301-0.499-0.363c-0.293-0.091-0.604,0.03-0.908,0.066c-0.992,0.118-2.06-0.653-2.934-0.168
			c-0.438,0.243-0.798,0.786-1.286,0.674c-0.212-0.049-0.374-0.218-0.57-0.312c-0.323-0.155-0.707-0.094-1.048,0.015
			c-0.669,0.214-1.281,0.603-1.757,1.119l0.111,0.201c-0.191,0.012-0.37,0.136-0.448,0.311c0.511,0.046,0.915,0.593,0.81,1.095
			c-0.033,0.159-0.109,0.311-0.104,0.473c0.012,0.416,0.496,0.617,0.88,0.775c0.523,0.215,1.005,0.531,1.412,0.924
			c0.091,0.088,0.182,0.186,0.214,0.31c0.076,0.298-0.22,0.576-0.208,0.883c0.013,0.339,0.409,0.552,0.746,0.513
			c0.337-0.038,0.626-0.245,0.917-0.42c0.445-0.268,0.928-0.475,1.429-0.613c0.087-0.024,0.18-0.046,0.266-0.019
			c0.084,0.025,0.149,0.093,0.229,0.128c0.24,0.107,0.495-0.092,0.701-0.254c0.206-0.163,0.533-0.291,0.703-0.09
			c-0.242,0.743,0.505,1.611,1.276,1.48c-0.149-0.303,0.157-0.629,0.447-0.802c0.29-0.173,0.643-0.388,0.631-0.726
			c-0.013-0.37-0.442-0.546-0.737-0.77c-0.421-0.318-0.634-0.889-0.524-1.405c0.021-0.098,0.056-0.199,0.132-0.265
			c0.119-0.101,0.294-0.085,0.449-0.067c0.653,0.075,1.315,0.069,1.967-0.017c0.158-0.021,0.322-0.05,0.447-0.148
			C29.764,12.034,29.533,11.45,29.277,11.059z"/>
	</g>
</g>
</svg>
