<?xml version="1.0" encoding="utf-8"?>
<!-- Generator: Adobe Illustrator 21.1.0, SVG Export Plug-In . SVG Version: 6.00 Build 0)  -->
<svg version="1.1" id="Layer_1" xmlns="http://www.w3.org/2000/svg" xmlns:xlink="http://www.w3.org/1999/xlink" x="0px" y="0px"
	 viewBox="0 0 32 32" style="enable-background:new 0 0 32 32;" xml:space="preserve">
<style type="text/css">
	.st0{fill:#FFD83B;}
	.st1{fill:#F2F2F2;}
	.st2{fill:#F3C432;}
	.st3{fill:#DEE4E9;}
	.st4{fill:#E9EFF4;}
	.st5{fill:#6DAFDF;}
	.st6{fill:#5CA3D9;}
	.st7{fill:#4D98D2;}
	.st8{fill:#E8EFF3;}
	.st9{fill:#DDE3E9;}
	.st10{fill:#4CC6E5;}
	.st11{opacity:0.05;fill:#2F3133;}
	.st12{fill:#E14B4B;}
	.st13{fill:#D3D9DD;}
	.st14{fill:#65B1EF;}
	.st15{fill:#8CC63E;}
	.st16{fill:#E84D88;}
	.st17{fill:#A4856D;}
	.st18{fill:#8BC540;}
	.st19{fill:#7FB241;}
	.st20{fill:#8E6D53;}
	.st21{fill:#FFFFFF;}
	.st22{fill:#9A795F;}
	.st23{fill:#E24B4B;}
	.st24{fill:#F2992D;}
	.st25{fill:#DF8726;}
	.st26{fill:#997960;}
	.st27{fill:#FFD93B;}
	.st28{fill:#E8AF2A;}
	.st29{fill:#D23F77;}
	.st30{fill:#D03F3F;}
	.st31{fill:#BF3332;}
	.st32{fill:#D03F3E;}
	.st33{fill:#BF3333;}
	.st34{fill:#F4C534;}
	.st35{fill:#8F6D52;}
	.st36{fill:#E9B02C;}
	.st37{fill:#5A5F63;}
	.st38{fill:#F4F4F4;}
	.st39{fill:#E74C87;}
	.st40{fill:#D24078;}
	.st41{fill:#5B5F63;}
	.st42{fill:#3F4347;}
	.st43{fill:#719C40;}
	.st44{fill:#7B5C45;}
	.st45{fill:#BB3166;}
	.st46{fill:#89664C;}
	.st47{fill:#77589F;}
	.st48{fill:#8066AA;}
	.st49{fill:#8D7FB6;}
	.st50{fill:#88BA40;}
	.st51{fill:#FDE7AA;}
	.st52{fill:#7FB239;}
	.st53{fill:#45CBEA;}
	.st54{fill:#ACB9C1;}
	.st55{fill:#DAE5EF;}
	.st56{fill:#7CA740;}
	.st57{fill:#88BF40;}
	.st58{fill:#85BB40;}
	.st59{fill:#FFF100;}
	.st60{fill:#FFDD00;}
	.st61{fill:#F29A2E;}
	.st62{fill:#3E4347;}
	.st63{fill:#59A5E0;}
	.st64{fill:#2F3133;}
	.st65{fill:#EDEDEF;}
	.st66{fill:#4E99D2;}
	.st67{fill:#A5856D;}
</style>
<g id="XMLID_4033_">
	<g>
		<rect id="XMLID_4031_" x="14.834" y="24.797" class="st26" width="2.335" height="7.245"/>
	</g>
	<path id="XMLID_4028_" class="st19" d="M7.247,26.648c0.167-0.487-0.335-0.878-0.682-0.328c-0.123,0.196-0.209,0.443-0.422,0.533
		c-0.29,0.122-0.637-0.253-0.494-0.533c0.172-0.338,0.96-0.516,0.55-0.876c-0.342-0.039-0.685-0.078-1.027-0.117
		c-0.419-0.6-0.458-1.443-0.097-2.08c0.221-0.389,0.553-0.933,0.192-1.197c-0.255-0.187-0.64,0.001-0.923-0.14
		c-0.437-0.218-0.22-0.878,0.052-1.283c-0.774-0.427-0.733-0.786-0.44-1.224c0.675-1.009,1.432-2.082,2.583-2.466
		c-0.183-0.02-1.932-0.186-2.089-0.283c-0.245-0.151-0.214-0.586,0.05-0.7c0.154-0.067,0.332-0.03,0.497-0.058
		c0.634-0.107,0.951-1.104,1.58-0.973c-0.196-0.313-0.658-0.94-0.64-1.287c0.012-0.24,0.244-0.481,0.472-0.406
		c-0.682-1.107-0.231-1.005,0.208-1.712c0.249-0.4,0.115-1.024-1.083-1.503c0.49-0.564,1.072-1.047,1.716-1.425
		c0.002-0.584-0.77-1.25-0.129-1.609c0.313-0.175,0.821,0.103,1.012-0.2C8.326,6.481,7.86,6.1,7.981,5.764
		c0.165-0.006,0.33-0.012,0.494-0.018C8.422,4.907,8.394,4.271,9.168,4.161c2.522-0.36,3.626-5.512,6.291-3.886
		c0.195,0.119,0.37,0.284,0.592,0.334c0.41,0.094,0.897-0.217,1.23,0.039c0.136,0.104,0.2,0.278,0.323,0.397
		c0.452,0.436,1.239-0.126,1.821,0.11c0.262,0.106,4.995,6.443,5.191,7.204c0.074,0.29,0.065,0.593,0.074,0.893
		c0.1,3.209,2.566,4.638,1.141,5.964c0.299,0.136,0.669,0.102,0.938-0.085c0.187,0.626,0.175,1.309-0.034,1.928
		c0.61,0.043,1.07,0.756,0.858,1.33c0.754-0.072,0.94,1.896,0.062,2.768c-0.47,0.467-1.335,0.564-1.772,0.066
		c2.221,3.009-1.277,7.038-5.705,5.042c-1.286-0.58-0.984-0.09-1.985,0.097c-0.624,0.117-1.294-0.274-1.883-0.037
		c-2.134,0.861-1.378-1.57-5.731-0.349c-0.545,0.153-1.214,0.293-1.608-0.113c-0.543,0.314-1.087,0.628-1.63,0.941"/>
	<path id="XMLID_4029_" class="st18" d="M15.248,1.248c-0.189,1,0.607,0.361-0.107,1.732c-0.343,0.66,0.055,0.733,0.585,0.878
		c0.718,0.196,1.078,1.086,1.797,1.277c0.737,0.195,0.513,0.153,0.639,0.714c0.291,1.292,3.155-0.19,3.941,2.057
		c0.303,0.867-0.182,1.92-0.603,2.127c-0.315,0.155-0.69-0.222-1.022-0.107c-0.417,0.145-0.267,0.79-0.495,1.168
		c-0.321,0.534-1.222,0.32-1.649,0.773c-0.293,0.312-0.24,0.816-0.075,1.21c1.12,2.678,0.029,2.43-1.697,4.239
		c-0.858,0.9-0.801,1.843-0.483,2.139c0.95,0.887,3.218-0.978,4.218-0.984c0.786-0.005,1.3,1.146,2.341,2.742
		c0.941,1.442,1.953,1.308,2.18,0.632c0.296-0.881-1.138-1.372-1.125-2.237c1.82-0.11,1.949,2.602,1.991-1.404
		c0.029-2.743-0.687-0.69-0.813-3.88c-0.053-1.349-1.966-3.044-0.837-4.268c0.321-0.348,0.515-0.45-0.301-1.272
		c-0.511-0.515-0.682-1.272-1.072-1.884c-0.349-0.547-0.872-0.977-1.156-1.56c-0.341-0.699-0.337-1.605-0.934-2.103
		c-0.289-0.242-0.678-0.341-0.964-0.587c-0.546-0.469-0.306-0.573-1.075-0.822c-0.999-0.325-2.045-0.508-3.095-0.543"/>
	<path id="XMLID_4030_" class="st56" d="M11.554,4.261c0.111,0.711,0.058,1.447-0.153,2.135c-0.508,1.654,1.031,1.203,0.743,2.968
		c0.747,0.159,1.427-0.509,2.189-0.565c0.702-0.051,1.394,0.51,1.488,1.207c-2.683-0.719-4.643,0.986-4.441,1.928
		c1.803,0.523,2.791-1.748,1.728,1.752c1.063,0.096,4.386,0.066,3.772,1.71c-0.373,1-2.283,0.656-1.967,4.563
		c0.219,2.711,3.223,0.43,4.956,0.863c0.61,0.152,1.171,0.67,1.174,1.298c0.003,0.55-0.401,1.112-0.173,1.612
		c0.18,0.395,0.751,0.732,0.372,1.09c-1.216-0.229-2.504-0.061-3.621,0.474c-0.542,0.259-0.459-0.001-0.917-0.286
		c-0.295-0.184-0.676-0.09-1.013-0.004c-4.419,1.127-1.592-1.12-4.465-0.024c-3.365,1.283-4.141-0.503-2.919-1.183
		c0.63-0.351,1.764-0.049,3.739-0.012c0.207-1.073-1.895-1.226-1.819-2.28c-1.653,0.307-2.722,0.676-3.324,0.218
		c-0.657-0.5-0.541-2.25-0.098-2.709c0.349-0.362,1.828-0.425,2.461-0.98c1.558-1.368-1.072-1.964,0.084-2.937
		c0.82-0.69,1.804-1.291,2.875-1.27c0.587-0.694-1.897-1.019-3.124-1.322c-0.153-0.363,0.327-0.455,0.618-0.622
		c0.372-0.213,0.519-0.743,0.31-1.117c-0.56-1-1.152-0.298-1.421-1.707C8.202,6.933,9.53,4.847,11.629,4.314"/>
</g>
</svg>
