<?xml version="1.0" encoding="utf-8"?>
<!-- Generator: Adobe Illustrator 21.1.0, SVG Export Plug-In . SVG Version: 6.00 Build 0)  -->
<svg version="1.1" id="Layer_1" xmlns="http://www.w3.org/2000/svg" xmlns:xlink="http://www.w3.org/1999/xlink" x="0px" y="0px"
	 viewBox="0 0 32 32" style="enable-background:new 0 0 32 32;" xml:space="preserve">
<style type="text/css">
	.st0{fill:#6DAFDF;}
	.st1{fill:#FFD83B;}
	.st2{fill:#E9EFF4;}
	.st3{opacity:0.05;fill:#2F3133;enable-background:new    ;}
</style>
<g id="XMLID_1079_">
	<path id="XMLID_1115_" class="st0" d="M3.436,24.405c0,0-1.079,1.753-1.068,2.366c0.011,0.613,0.516,1.1,1.129,1.089
		s1.1-0.516,1.089-1.129C4.577,26.118,3.436,24.405,3.436,24.405z"/>
	<path id="XMLID_1100_" class="st0" d="M11.411,24.405c0,0-1.079,1.753-1.068,2.366c0.011,0.613,0.516,1.1,1.129,1.089
		c0.613-0.011,1.1-0.516,1.089-1.129C12.552,26.118,11.411,24.405,11.411,24.405z"/>
	<path id="XMLID_1104_" class="st0" d="M19.386,24.405c0,0-1.079,1.753-1.068,2.366c0.011,0.613,0.516,1.1,1.129,1.089
		c0.613-0.011,1.1-0.516,1.089-1.129C20.527,26.118,19.386,24.405,19.386,24.405z"/>
	<path id="XMLID_1116_" class="st0" d="M7.424,28.232c0,0-1.079,1.753-1.068,2.366c0.011,0.613,0.516,1.1,1.129,1.089
		c0.613-0.011,1.1-0.516,1.089-1.129C8.565,29.945,7.424,28.232,7.424,28.232z"/>
	<path id="XMLID_1114_" class="st0" d="M15.399,28.232c0,0-1.079,1.753-1.068,2.366c0.011,0.613,0.516,1.1,1.129,1.089
		c0.613-0.011,1.1-0.516,1.089-1.129C16.539,29.945,15.399,28.232,15.399,28.232z"/>
	<path id="XMLID_1110_" class="st1" d="M27.146,12.723c-4.173,0-7.556-3.383-7.556-7.556c0-1.849,0.666-3.541,1.768-4.854
		c-3.406,1.093-5.873,4.284-5.873,8.054c0,4.673,3.788,8.461,8.461,8.461c3.77,0,6.961-2.467,8.054-5.873
		C30.688,12.057,28.995,12.723,27.146,12.723z"/>
	<path id="XMLID_1105_" class="st2" d="M19.864,13.471c-0.054,0-0.106,0.006-0.158,0.008c-1.115-2.866-3.894-4.901-7.155-4.901
		s-6.04,2.034-7.155,4.901c-0.053-0.002-0.106-0.008-0.158-0.008c-2.892,0-5.236,2.344-5.236,5.236s2.344,5.236,5.236,5.236
		c1.241,0,2.379-0.434,3.276-1.155c1.174,0.728,2.554,1.155,4.037,1.155s2.863-0.428,4.037-1.155
		c0.897,0.722,2.035,1.155,3.276,1.155c2.892,0,5.236-2.344,5.236-5.236S22.755,13.471,19.864,13.471z"/>
	<path id="XMLID_1117_" class="st3" d="M19.705,13.479c0.053-0.002,0.106-0.008,0.158-0.008c2.211,0,4.092,1.375,4.86,3.311
		c0.342-0.033,0.68-0.081,1.01-0.152c-0.804-2.268-2.881-3.937-5.371-4.137c-1.001-2.087-2.761-3.625-4.867-4.382
		c-0.003,0.085-0.01,0.168-0.01,0.254c0,0.282,0.015,0.56,0.042,0.835C17.432,10.008,18.952,11.545,19.705,13.479z"/>
</g>
</svg>
