<?xml version="1.0" encoding="utf-8"?>
<!-- Generator: Adobe Illustrator 21.1.0, SVG Export Plug-In . SVG Version: 6.00 Build 0)  -->
<svg version="1.1" id="Layer_1" xmlns="http://www.w3.org/2000/svg" xmlns:xlink="http://www.w3.org/1999/xlink" x="0px" y="0px"
	 viewBox="0 0 32 32" style="enable-background:new 0 0 32 32;" xml:space="preserve">
<style type="text/css">
	.st0{fill:#FFD83B;}
	.st1{fill:#F2F2F2;}
	.st2{fill:#F3C432;}
	.st3{fill:#DEE4E9;}
	.st4{fill:#E9EFF4;}
	.st5{fill:#6DAFDF;}
	.st6{fill:#5CA3D9;}
	.st7{fill:#4D98D2;}
	.st8{fill:#E8EFF3;}
	.st9{fill:#DDE3E9;}
	.st10{fill:#4CC6E5;}
	.st11{opacity:0.05;fill:#2F3133;}
	.st12{fill:#E14B4B;}
	.st13{fill:#D3D9DD;}
	.st14{fill:#65B1EF;}
	.st15{fill:#8CC63E;}
	.st16{fill:#E84D88;}
	.st17{fill:#A4856D;}
	.st18{fill:#8BC540;}
	.st19{fill:#7FB241;}
	.st20{fill:#8E6D53;}
	.st21{fill:#FFFFFF;}
	.st22{fill:#9A795F;}
	.st23{fill:#E24B4B;}
	.st24{fill:#F2992D;}
	.st25{fill:#DF8726;}
	.st26{fill:#997960;}
	.st27{fill:#FFD93B;}
	.st28{fill:#E8AF2A;}
	.st29{fill:#D23F77;}
	.st30{fill:#D03F3F;}
	.st31{fill:#BF3332;}
	.st32{fill:#D03F3E;}
	.st33{fill:#BF3333;}
	.st34{fill:#F4C534;}
	.st35{fill:#8F6D52;}
	.st36{fill:#E9B02C;}
	.st37{fill:#5A5F63;}
	.st38{fill:#F4F4F4;}
	.st39{fill:#E74C87;}
	.st40{fill:#D24078;}
	.st41{fill:#5B5F63;}
	.st42{fill:#3F4347;}
	.st43{fill:#719C40;}
	.st44{fill:#7B5C45;}
	.st45{fill:#BB3166;}
	.st46{fill:#89664C;}
	.st47{fill:#77589F;}
	.st48{fill:#8066AA;}
	.st49{fill:#8D7FB6;}
	.st50{fill:#88BA40;}
	.st51{fill:#FDE7AA;}
	.st52{fill:#7FB239;}
	.st53{fill:#45CBEA;}
	.st54{fill:#ACB9C1;}
	.st55{fill:#DAE5EF;}
	.st56{fill:#7CA740;}
	.st57{fill:#88BF40;}
	.st58{fill:#85BB40;}
	.st59{fill:#FFF100;}
	.st60{fill:#FFDD00;}
	.st61{fill:#F29A2E;}
	.st62{fill:#3E4347;}
	.st63{fill:#59A5E0;}
	.st64{fill:#2F3133;}
	.st65{fill:#EDEDEF;}
	.st66{fill:#4E99D2;}
	.st67{fill:#A5856D;}
</style>
<g id="XMLID_3999_">
	<path id="XMLID_4011_" class="st22" d="M29.651,15.008c-0.23-2.304,1.086-5.599,2.305-8.08V3.394L32.009,1.4l-5.451,4.605V5.266
		l-1.157,0.462c0.274,1.893-0.69,6.74-0.69,6.74c-3.878-3.693-7.479-4.016-7.479-4.016C13.262,6.236,8.525,0.05,8.525,0.05H4.722
		l6.925,8.818c-4.801-1.893-8.31,0.138-8.31,0.138l0.508-0.785H3.106L1.675,9.144C1.053,8.97,0.501,8.743-0.009,8.488v2.498
		c1.588,0.493,3.327,0.474,4.959-0.047c1.786-0.57,3.28-0.457,4.232-0.255c1.883,0.4,2.427,0.319,4.515,0.69
		c6.519,1.158,10.155,5.895,9.637,11.266c-0.257,2.664-0.428,8.13-0.463,9.311h8.341c-0.334-0.832-0.944-2.321-1.331-3.093
		C29.328,27.749,29.651,15.008,29.651,15.008z"/>
	<path id="XMLID_3985_" class="st0" d="M7.306,27.649L7.306,27.649c-2.797,0-5.085-2.288-5.085-5.085v-5.842
		c0-2.797,2.288-5.085,5.085-5.085h0c2.797,0,5.085,2.288,5.085,5.085v5.842C12.391,25.361,10.103,27.649,7.306,27.649z"/>
	<path id="XMLID_3987_" class="st17" d="M7.306,12.313L7.306,12.313c-0.483,0-0.874-0.391-0.874-0.874l0-2.98
		c0-0.483,0.391-0.874,0.874-0.874h0c0.483,0,0.874,0.391,0.874,0.874l0,2.98C8.18,11.922,7.789,12.313,7.306,12.313z"/>
	<path id="XMLID_3988_" class="st28" d="M11.538,15.051H3.074c-0.471,0-0.853-0.382-0.853-0.853v0c0-0.471,0.382-0.853,0.853-0.853
		h8.465c0.471,0,0.853,0.382,0.853,0.853v0C12.391,14.669,12.009,15.051,11.538,15.051z"/>
	<path id="XMLID_3996_" class="st28" d="M12.196,18.681h-9.78c-0.471,0-0.853-0.382-0.853-0.853v0c0-0.471,0.382-0.853,0.853-0.853
		h9.78c0.471,0,0.853,0.382,0.853,0.853v0C13.049,18.299,12.667,18.681,12.196,18.681z"/>
	<path id="XMLID_3997_" class="st28" d="M12.196,22.311h-9.78c-0.471,0-0.853-0.382-0.853-0.853v0c0-0.471,0.382-0.853,0.853-0.853
		h9.78c0.471,0,0.853,0.382,0.853,0.853v0C13.049,21.929,12.667,22.311,12.196,22.311z"/>
	<path id="XMLID_3998_" class="st28" d="M11.538,25.941H3.074c-0.471,0-0.853-0.382-0.853-0.853v0c0-0.471,0.382-0.853,0.853-0.853
		h8.465c0.471,0,0.853,0.382,0.853,0.853v0C12.391,25.559,12.009,25.941,11.538,25.941z"/>
	<circle id="XMLID_3995_" class="st42" cx="7.306" cy="21.968" r="2.325"/>
</g>
</svg>
