<?xml version="1.0" encoding="utf-8"?>
<!-- Generator: Adobe Illustrator 21.1.0, SVG Export Plug-In . SVG Version: 6.00 Build 0)  -->
<svg version="1.1" id="Layer_1" xmlns="http://www.w3.org/2000/svg" xmlns:xlink="http://www.w3.org/1999/xlink" x="0px" y="0px"
	 viewBox="0 0 32 32" style="enable-background:new 0 0 32 32;" xml:space="preserve">
<style type="text/css">
	.st0{fill:#FFD83B;}
	.st1{fill:#F2F2F2;}
	.st2{fill:#F3C432;}
	.st3{fill:#DEE4E9;}
	.st4{fill:#E9EFF4;}
	.st5{fill:#6DAFDF;}
	.st6{fill:#5CA3D9;}
	.st7{fill:#4D98D2;}
	.st8{fill:#E8EFF3;}
	.st9{fill:#DDE3E9;}
	.st10{fill:#4CC6E5;}
	.st11{opacity:0.05;fill:#2F3133;}
	.st12{fill:#E14B4B;}
	.st13{fill:#D3D9DD;}
	.st14{fill:#65B1EF;}
	.st15{fill:#8CC63E;}
	.st16{fill:#E84D88;}
	.st17{fill:#A4856D;}
	.st18{fill:#8BC540;}
	.st19{fill:#7FB241;}
	.st20{fill:#8E6D53;}
	.st21{fill:#FFFFFF;}
	.st22{fill:#9A795F;}
	.st23{fill:#E24B4B;}
	.st24{fill:#F2992D;}
	.st25{fill:#DF8726;}
	.st26{fill:#997960;}
	.st27{fill:#FFD93B;}
	.st28{fill:#E8AF2A;}
	.st29{fill:#D23F77;}
	.st30{fill:#D03F3F;}
	.st31{fill:#BF3332;}
	.st32{fill:#D03F3E;}
	.st33{fill:#BF3333;}
	.st34{fill:#F4C534;}
	.st35{fill:#8F6D52;}
	.st36{fill:#E9B02C;}
	.st37{fill:#5A5F63;}
	.st38{fill:#F4F4F4;}
	.st39{fill:#E74C87;}
	.st40{fill:#D24078;}
	.st41{fill:#5B5F63;}
	.st42{fill:#3F4347;}
	.st43{fill:#719C40;}
	.st44{fill:#7B5C45;}
	.st45{fill:#BB3166;}
	.st46{fill:#89664C;}
	.st47{fill:#77589F;}
	.st48{fill:#8066AA;}
	.st49{fill:#8D7FB6;}
	.st50{fill:#88BA40;}
	.st51{fill:#FDE7AA;}
	.st52{fill:#7FB239;}
	.st53{fill:#45CBEA;}
	.st54{fill:#ACB9C1;}
	.st55{fill:#DAE5EF;}
	.st56{fill:#7CA740;}
	.st57{fill:#88BF40;}
	.st58{fill:#85BB40;}
	.st59{fill:#FFF100;}
	.st60{fill:#FFDD00;}
	.st61{fill:#F29A2E;}
	.st62{fill:#3E4347;}
	.st63{fill:#59A5E0;}
	.st64{fill:#2F3133;}
	.st65{fill:#EDEDEF;}
	.st66{fill:#4E99D2;}
	.st67{fill:#A5856D;}
</style>
<g id="XMLID_1404_">
	<g>
		<path id="XMLID_2738_" class="st44" d="M18.329,16.324L12.631,16l-2.57,4.197c1.117,1.974,3.352,2.197,3.352,2.197
			C14.084,28.018,12.482,32,12.482,32h5.735c-1.527-5.328-0.447-8-0.447-8l1.899-1.903l1.415-1.229l0.372-1.862L18.329,16.324z
			 M11.63,20.234c0.605-0.25,1.023-1.19,1.023-1.19c0.083,0.104,0.814,2.004,0.814,2.004C12.527,20.881,11.63,20.234,11.63,20.234z
			 M15.074,21.465c-0.605,0.146-1.774-2.338-1.774-2.63c0,0,0.898,0.71,2.63,0.459C15.93,19.294,15.68,21.319,15.074,21.465z
			 M16.995,22.447c-0.292,0.092-0.461-0.214-0.558-0.614c-0.183-0.752-0.064-1.546,0.282-2.237l0.276-0.552l0.647-0.209
			c0,0,0.251,1.503,1.211,2.443C18.853,21.277,17.725,22.217,16.995,22.447z"/>
	</g>
	<path id="XMLID_2737_" class="st18" d="M30.424,14.666c0-1.141-0.389-2.188-1.036-3.026c0.199-0.537,0.313-1.114,0.313-1.72
		c0-2.542-1.913-4.633-4.376-4.923c-0.725-1.84-2.515-3.143-4.612-3.143c-0.885,0-1.713,0.234-2.432,0.64
		C17.424,1.005,15.821,0,13.98,0c-2.465,0-4.504,1.8-4.889,4.155c-0.127-0.01-0.255-0.019-0.384-0.019
		c-2.739,0-4.96,2.221-4.96,4.96c0,0.031,0.004,0.062,0.005,0.093c-1.313,0.892-2.176,2.397-2.176,4.104
		c0,1.524,0.689,2.887,1.771,3.797c-0.001,0.029-0.004,0.058-0.004,0.088c0,2.739,2.221,4.96,4.96,4.96
		c2.13,0,3.942-1.346,4.644-3.232c0.769,0.325,1.614,0.505,2.502,0.505c0.747,0,1.461-0.134,2.128-0.368
		c0.19,2.566,2.327,4.591,4.941,4.591c2.558,0,4.662-1.936,4.93-4.423C29.199,18.445,30.424,16.699,30.424,14.666z"/>
	<g id="XMLID_2700_">
		<path id="XMLID_2734_" class="st19" d="M4.945,10.705c-0.614,0-1.112,0.498-1.112,1.112s0.498,1.112,1.112,1.112
			s1.112-0.498,1.112-1.112S5.559,10.705,4.945,10.705z M4.945,12.183c-0.38,0-0.688-0.308-0.688-0.688
			c0-0.38,0.308-0.688,0.688-0.688c0.38,0,0.688,0.308,0.688,0.688C5.633,11.875,5.325,12.183,4.945,12.183z"/>
		<path id="XMLID_2731_" class="st19" d="M10.75,13.483c-0.614,0-1.112,0.498-1.112,1.112s0.498,1.112,1.112,1.112
			c0.614,0,1.112-0.498,1.112-1.112S11.364,13.483,10.75,13.483z M10.75,14.961c-0.38,0-0.688-0.308-0.688-0.688
			c0-0.38,0.308-0.688,0.688-0.688c0.38,0,0.688,0.308,0.688,0.688C11.438,14.653,11.13,14.961,10.75,14.961z"/>
		<path id="XMLID_2728_" class="st19" d="M9.179,6.07c-0.614,0-1.112,0.498-1.112,1.112s0.498,1.112,1.112,1.112
			c0.614,0,1.112-0.498,1.112-1.112S9.793,6.07,9.179,6.07z M9.179,7.548c-0.38,0-0.688-0.308-0.688-0.688s0.308-0.688,0.688-0.688
			c0.38,0,0.688,0.308,0.688,0.688S9.559,7.548,9.179,7.548z"/>
		<path id="XMLID_2725_" class="st19" d="M14.155,9.366c-0.614,0-1.112,0.498-1.112,1.112s0.498,1.112,1.112,1.112
			s1.112-0.498,1.112-1.112S14.769,9.366,14.155,9.366z M14.155,10.844c-0.38,0-0.688-0.308-0.688-0.688
			c0-0.38,0.308-0.688,0.688-0.688c0.38,0,0.688,0.308,0.688,0.688C14.843,10.536,14.535,10.844,14.155,10.844z"/>
		<path id="XMLID_2722_" class="st19" d="M20.426,15.637c-0.614,0-1.112,0.498-1.112,1.112s0.498,1.112,1.112,1.112
			s1.112-0.498,1.112-1.112S21.04,15.637,20.426,15.637z M20.426,17.115c-0.38,0-0.688-0.308-0.688-0.688
			c0-0.38,0.308-0.688,0.688-0.688c0.38,0,0.688,0.308,0.688,0.688C21.114,16.807,20.806,17.115,20.426,17.115z"/>
		<path id="XMLID_2719_" class="st19" d="M25.428,17.401c-0.614,0-1.112,0.498-1.112,1.112s0.498,1.112,1.112,1.112
			c0.614,0,1.112-0.498,1.112-1.112S26.042,17.401,25.428,17.401z M25.428,18.88c-0.38,0-0.688-0.308-0.688-0.688
			c0-0.38,0.308-0.688,0.688-0.688c0.38,0,0.688,0.308,0.688,0.688C26.116,18.572,25.808,18.88,25.428,18.88z"/>
		<path id="XMLID_2716_" class="st19" d="M24.74,7.181c-0.614,0-1.112,0.498-1.112,1.112s0.498,1.112,1.112,1.112
			c0.614,0,1.112-0.498,1.112-1.112S25.354,7.181,24.74,7.181z M24.74,8.66c-0.38,0-0.688-0.308-0.688-0.688
			s0.308-0.688,0.688-0.688c0.38,0,0.688,0.308,0.688,0.688S25.12,8.66,24.74,8.66z"/>
		<path id="XMLID_2713_" class="st19" d="M13.467,2.62c-0.614,0-1.112,0.498-1.112,1.112s0.498,1.112,1.112,1.112
			c0.614,0,1.112-0.498,1.112-1.112S14.081,2.62,13.467,2.62z M13.467,4.098c-0.38,0-0.688-0.308-0.688-0.688
			s0.308-0.688,0.688-0.688c0.38,0,0.688,0.308,0.688,0.688S13.847,4.098,13.467,4.098z"/>
		<path id="XMLID_2710_" class="st19" d="M20.357,11.043c-0.614,0-1.112,0.498-1.112,1.112s0.498,1.112,1.112,1.112
			s1.112-0.498,1.112-1.112S20.971,11.043,20.357,11.043z M20.357,12.521c-0.38,0-0.688-0.308-0.688-0.688
			c0-0.38,0.308-0.688,0.688-0.688c0.38,0,0.688,0.308,0.688,0.688C21.045,12.213,20.737,12.521,20.357,12.521z"/>
		<path id="XMLID_2707_" class="st19" d="M27.413,11.043c-0.614,0-1.112,0.498-1.112,1.112s0.498,1.112,1.112,1.112
			s1.112-0.498,1.112-1.112S28.027,11.043,27.413,11.043z M27.413,12.521c-0.38,0-0.688-0.308-0.688-0.688
			c0-0.38,0.308-0.688,0.688-0.688c0.38,0,0.688,0.308,0.688,0.688C28.102,12.213,27.793,12.521,27.413,12.521z"/>
		<path id="XMLID_2704_" class="st19" d="M19.474,3.63c-0.614,0-1.112,0.498-1.112,1.112s0.498,1.112,1.112,1.112
			s1.112-0.498,1.112-1.112S20.088,3.63,19.474,3.63z M19.474,5.108c-0.38,0-0.688-0.308-0.688-0.688s0.308-0.688,0.688-0.688
			c0.38,0,0.688,0.308,0.688,0.688S19.854,5.108,19.474,5.108z"/>
		<path id="XMLID_2701_" class="st19" d="M6.744,17.723c-0.614,0-1.112,0.498-1.112,1.112s0.498,1.112,1.112,1.112
			s1.112-0.498,1.112-1.112S7.358,17.723,6.744,17.723z M6.744,19.201c-0.38,0-0.688-0.308-0.688-0.688
			c0-0.38,0.308-0.688,0.688-0.688c0.38,0,0.688,0.308,0.688,0.688C7.433,18.893,7.124,19.201,6.744,19.201z"/>
	</g>
</g>
</svg>
