<?xml version="1.0" encoding="utf-8"?>
<!-- Generator: Adobe Illustrator 21.1.0, SVG Export Plug-In . SVG Version: 6.00 Build 0)  -->
<svg version="1.1" id="Layer_1" xmlns="http://www.w3.org/2000/svg" xmlns:xlink="http://www.w3.org/1999/xlink" x="0px" y="0px"
	 viewBox="0 0 32 32" style="enable-background:new 0 0 32 32;" xml:space="preserve">
<style type="text/css">
	.st0{fill:#FFD83B;}
	.st1{fill:#F2F2F2;}
	.st2{fill:#F3C432;}
	.st3{fill:#DEE4E9;}
	.st4{fill:#E9EFF4;}
	.st5{fill:#6DAFDF;}
	.st6{fill:#5CA3D9;}
	.st7{fill:#4D98D2;}
	.st8{fill:#E8EFF3;}
	.st9{fill:#DDE3E9;}
	.st10{fill:#4CC6E5;}
	.st11{opacity:0.05;fill:#2F3133;}
	.st12{fill:#E14B4B;}
	.st13{fill:#D3D9DD;}
	.st14{fill:#65B1EF;}
	.st15{fill:#8CC63E;}
	.st16{fill:#E84D88;}
	.st17{fill:#A4856D;}
	.st18{fill:#8BC540;}
	.st19{fill:#7FB241;}
	.st20{fill:#8E6D53;}
	.st21{fill:#FFFFFF;}
	.st22{fill:#9A795F;}
	.st23{fill:#E24B4B;}
	.st24{fill:#F2992D;}
	.st25{fill:#DF8726;}
	.st26{fill:#997960;}
	.st27{fill:#FFD93B;}
	.st28{fill:#E8AF2A;}
	.st29{fill:#D23F77;}
	.st30{fill:#D03F3F;}
	.st31{fill:#BF3332;}
	.st32{fill:#D03F3E;}
	.st33{fill:#BF3333;}
	.st34{fill:#F4C534;}
	.st35{fill:#8F6D52;}
	.st36{fill:#E9B02C;}
	.st37{fill:#5A5F63;}
	.st38{fill:#F4F4F4;}
	.st39{fill:#E74C87;}
	.st40{fill:#D24078;}
	.st41{fill:#5B5F63;}
	.st42{fill:#3F4347;}
	.st43{fill:#719C40;}
	.st44{fill:#7B5C45;}
	.st45{fill:#BB3166;}
	.st46{fill:#89664C;}
	.st47{fill:#77589F;}
	.st48{fill:#8066AA;}
	.st49{fill:#8D7FB6;}
	.st50{fill:#88BA40;}
	.st51{fill:#FDE7AA;}
	.st52{fill:#7FB239;}
	.st53{fill:#45CBEA;}
	.st54{fill:#ACB9C1;}
	.st55{fill:#DAE5EF;}
	.st56{fill:#7CA740;}
	.st57{fill:#88BF40;}
	.st58{fill:#85BB40;}
	.st59{fill:#FFF100;}
	.st60{fill:#FFDD00;}
	.st61{fill:#F29A2E;}
	.st62{fill:#3E4347;}
	.st63{fill:#59A5E0;}
	.st64{fill:#2F3133;}
	.st65{fill:#EDEDEF;}
	.st66{fill:#4E99D2;}
	.st67{fill:#A5856D;}
</style>
<g id="XMLID_4917_">
	<g id="XMLID_4965_">
		<polygon id="XMLID_4977_" class="st2" points="26.693,0.952 25.244,0.415 24.626,2.697 25.271,2.938 		"/>
		<polygon id="XMLID_4976_" class="st2" points="27.23,4.146 30.264,1.999 28.922,0.844 26.693,3.636 		"/>
		<polygon id="XMLID_4975_" class="st2" points="27.687,5.274 27.687,6.213 30.452,6.589 30.452,4.898 		"/>
		<polygon id="XMLID_4974_" class="st2" points="27.257,8.039 28.653,9.462 29.244,8.28 27.526,7.26 		"/>
		<polygon id="XMLID_4973_" class="st2" points="25.861,9.462 27.902,12.871 29.069,11.744 26.291,8.898 		"/>
		<polygon id="XMLID_4972_" class="st2" points="24.17,9.65 23.982,12.468 25.485,12.307 24.814,9.65 		"/>
		<polygon id="XMLID_4971_" class="st2" points="21.217,10.884 22.398,11.314 22.774,9.462 21.861,9.086 		"/>
		<polygon id="XMLID_4970_" class="st2" points="17.647,8.898 18.479,10.217 20.975,8.146 20.465,7.395 		"/>
		<polygon id="XMLID_4969_" class="st2" points="20.304,5.744 17.029,5.274 17.029,6.831 20.304,6.428 		"/>
		<polygon id="XMLID_4968_" class="st2" points="20.975,3.556 18.989,1.327 18.291,2.938 20.734,4.146 		"/>
		<polygon id="XMLID_4967_" class="st2" points="23.069,2.737 22.908,0.415 21.432,0.978 22.251,2.737 		"/>
		<circle id="XMLID_4966_" class="st2" cx="23.848" cy="6.052" r="2.98"/>
	</g>
	<g id="XMLID_4942_">
		<rect id="XMLID_4951_" x="6.098" y="23.891" class="st17" width="1.035" height="6.149"/>
		<polygon id="XMLID_4950_" class="st18" points="0.912,10.715 0.912,22.917 6.615,26.21 6.615,7.422 		"/>
		<polygon id="XMLID_4949_" class="st19" points="6.615,7.422 6.615,26.21 12.318,22.917 12.318,10.715 		"/>
		<polygon id="XMLID_4948_" class="st18" points="12.317,11.389 12.317,12.769 6.617,16.899 6.617,15.519 		"/>
		<polygon id="XMLID_4947_" class="st18" points="12.317,15.142 12.317,16.522 6.617,20.652 6.617,19.282 		"/>
		<polygon id="XMLID_4946_" class="st19" points="6.617,15.529 6.617,16.909 0.917,12.769 0.917,11.389 		"/>
		<polygon id="XMLID_4945_" class="st19" points="6.617,19.282 6.617,20.662 0.917,16.522 0.917,15.142 		"/>
		<polygon id="XMLID_4944_" class="st18" points="12.317,18.485 12.317,19.865 6.617,23.995 6.617,22.625 		"/>
		<polygon id="XMLID_4943_" class="st19" points="6.617,22.625 6.617,24.005 0.917,19.865 0.917,18.485 		"/>
	</g>
	<g id="XMLID_4919_">
		<rect id="XMLID_4941_" x="20.224" y="25.027" class="st17" width="0.844" height="5.014"/>
		<polygon id="XMLID_4940_" class="st18" points="15.996,16.283 15.996,24.233 20.646,26.917 20.646,13.599 		"/>
		<polygon id="XMLID_4939_" class="st19" points="20.646,13.599 20.646,26.917 25.296,24.233 25.296,16.283 		"/>
		<polygon id="XMLID_4938_" class="st18" points="25.295,17.502 25.295,18.627 20.647,21.995 20.647,20.878 		"/>
		<polygon id="XMLID_4937_" class="st19" points="20.647,20.878 20.647,22.003 16,18.627 16,17.502 		"/>
		<polygon id="XMLID_4921_" class="st18" points="25.295,20.619 25.295,21.744 20.647,25.112 20.647,23.995 		"/>
		<polygon id="XMLID_4920_" class="st19" points="20.647,23.995 20.647,25.12 16,21.744 16,20.619 		"/>
	</g>
	<rect id="XMLID_4918_" x="0.036" y="29.98" class="st19" width="31.928" height="1.605"/>
</g>
</svg>
