<?xml version="1.0" encoding="utf-8"?>
<!-- Generator: Adobe Illustrator 21.1.0, SVG Export Plug-In . SVG Version: 6.00 Build 0)  -->
<svg version="1.1" id="Layer_1" xmlns="http://www.w3.org/2000/svg" xmlns:xlink="http://www.w3.org/1999/xlink" x="0px" y="0px"
	 viewBox="0 0 32 32" style="enable-background:new 0 0 32 32;" xml:space="preserve">
<style type="text/css">
	.st0{fill:#FFD83B;}
	.st1{fill:#F2F2F2;}
	.st2{fill:#F3C432;}
	.st3{fill:#DEE4E9;}
	.st4{fill:#E9EFF4;}
	.st5{fill:#6DAFDF;}
	.st6{fill:#5CA3D9;}
	.st7{fill:#4D98D2;}
	.st8{fill:#E8EFF3;}
	.st9{fill:#DDE3E9;}
	.st10{fill:#4CC6E5;}
	.st11{opacity:0.05;fill:#2F3133;}
	.st12{fill:#E14B4B;}
	.st13{fill:#D3D9DD;}
	.st14{fill:#65B1EF;}
	.st15{fill:#8CC63E;}
	.st16{fill:#E84D88;}
	.st17{fill:#A4856D;}
	.st18{fill:#8BC540;}
	.st19{fill:#7FB241;}
	.st20{fill:#8E6D53;}
	.st21{fill:#FFFFFF;}
	.st22{fill:#9A795F;}
	.st23{fill:#E24B4B;}
	.st24{fill:#F2992D;}
	.st25{fill:#DF8726;}
	.st26{fill:#997960;}
	.st27{fill:#FFD93B;}
	.st28{fill:#E8AF2A;}
	.st29{fill:#D23F77;}
	.st30{fill:#D03F3F;}
	.st31{fill:#BF3332;}
	.st32{fill:#D03F3E;}
	.st33{fill:#BF3333;}
	.st34{fill:#F4C534;}
	.st35{fill:#8F6D52;}
	.st36{fill:#E9B02C;}
	.st37{fill:#5A5F63;}
	.st38{fill:#F4F4F4;}
	.st39{fill:#E74C87;}
	.st40{fill:#D24078;}
	.st41{fill:#5B5F63;}
	.st42{fill:#3F4347;}
	.st43{fill:#719C40;}
	.st44{fill:#7B5C45;}
	.st45{fill:#BB3166;}
	.st46{fill:#89664C;}
	.st47{fill:#77589F;}
	.st48{fill:#8066AA;}
	.st49{fill:#8D7FB6;}
	.st50{fill:#88BA40;}
	.st51{fill:#FDE7AA;}
	.st52{fill:#7FB239;}
	.st53{fill:#45CBEA;}
	.st54{fill:#ACB9C1;}
	.st55{fill:#DAE5EF;}
	.st56{fill:#7CA740;}
	.st57{fill:#88BF40;}
	.st58{fill:#85BB40;}
	.st59{fill:#FFF100;}
	.st60{fill:#FFDD00;}
	.st61{fill:#F29A2E;}
	.st62{fill:#3E4347;}
	.st63{fill:#59A5E0;}
	.st64{fill:#2F3133;}
	.st65{fill:#EDEDEF;}
	.st66{fill:#4E99D2;}
	.st67{fill:#A5856D;}
</style>
<g id="XMLID_4878_">
	<g id="XMLID_4739_">
		<circle id="XMLID_4898_" class="st59" cx="27.607" cy="3.525" r="2.997"/>
		<g id="XMLID_4896_">
			<path id="XMLID_4897_" class="st4" d="M18.969,8.171c-0.002-0.043-0.013-0.084-0.013-0.128c0-1.351,1.096-2.447,2.447-2.447
				c0.064,0,0.125,0.014,0.188,0.019c0.62-0.949,1.69-1.577,2.908-1.577c1.918,0,3.473,1.555,3.473,3.473
				c0,0.243-0.025,0.481-0.073,0.71c0.797,0.34,1.356,1.13,1.356,2.052c0,1.232-0.998,2.23-2.23,2.23h-7.341
				c-1.232,0-2.23-0.998-2.23-2.23C17.455,9.293,18.091,8.47,18.969,8.171z"/>
		</g>
	</g>
	<g id="XMLID_4904_">
		<path id="XMLID_4916_" class="st19" d="M26.342,30.28l0.693,0.084c-0.088-0.615,0.264-1.713,0.264-1.713
			C26.884,28.915,26.456,29.98,26.342,30.28z"/>
		<path id="XMLID_4915_" class="st19" d="M27.034,27.773c-1.493,0.747-1.449,2.415-1.449,2.415l0.711,0.086
			C26.165,29.681,27.034,27.773,27.034,27.773z"/>
		<path id="XMLID_4914_" class="st19" d="M26.31,30.364c0,0,0.013-0.034,0.032-0.084l-0.045-0.006
			C26.302,30.302,26.299,30.342,26.31,30.364z"/>
		<path id="XMLID_4913_" class="st19" d="M27.411,28.652c0,0,0.351,1.098,0.263,1.713l0.693-0.084
			C28.253,29.98,27.825,28.915,27.411,28.652z"/>
		<path id="XMLID_4912_" class="st19" d="M27.674,27.773c0,0,0.87,1.908,0.738,2.501l0.711-0.086
			C29.123,30.188,29.167,28.52,27.674,27.773z"/>
		<path id="XMLID_4911_" class="st19" d="M28.399,30.364c0.011-0.022,0.007-0.062,0.014-0.09l-0.045,0.006
			C28.386,30.33,28.399,30.364,28.399,30.364z"/>
		<path id="XMLID_4910_" class="st19" d="M29.96,30.364c0,0,0.013-0.034,0.032-0.084l-0.045-0.006
			C29.953,30.302,29.95,30.342,29.96,30.364z"/>
		<path id="XMLID_4909_" class="st19" d="M30.685,27.773c-1.493,0.747-1.449,2.415-1.449,2.415l0.711,0.086
			C29.815,29.681,30.685,27.773,30.685,27.773z"/>
		<path id="XMLID_4908_" class="st19" d="M30.948,28.652c-0.414,0.263-0.842,1.329-0.956,1.629l0.693,0.084
			C30.597,29.749,30.948,28.652,30.948,28.652z"/>
		<path id="XMLID_4907_" class="st19" d="M23.76,28.652c0,0,0.351,1.098,0.264,1.713l0.693-0.084
			C24.602,29.98,24.174,28.915,23.76,28.652z"/>
		<path id="XMLID_4906_" class="st19" d="M24.024,27.773c0,0,0.87,1.908,0.738,2.501l0.711-0.086
			C25.473,30.188,25.517,28.52,24.024,27.773z"/>
		<path id="XMLID_4905_" class="st19" d="M24.748,30.364c0.011-0.022,0.007-0.062,0.014-0.09l-0.045,0.006
			C24.735,30.33,24.748,30.364,24.748,30.364z"/>
	</g>
	<rect id="XMLID_4900_" x="0" y="29.868" class="st19" width="32" height="1.605"/>
	<g id="XMLID_4886_">
		<circle id="XMLID_4890_" class="st43" cx="9.058" cy="20.14" r="7.633"/>
		<circle id="XMLID_4889_" class="st19" cx="9.058" cy="14.381" r="6.111"/>
		<circle id="XMLID_4887_" class="st18" cx="9.058" cy="8.622" r="4.588"/>
	</g>
	<g>
		<polygon id="XMLID_4892_" class="st35" points="13.14,20.121 9.424,23.464 9.058,16.546 8.693,23.464 4.977,20.121 8.653,24.208 
			8.354,29.868 9.763,29.868 9.463,24.208 		"/>
	</g>
</g>
</svg>
