<?xml version="1.0" encoding="utf-8"?>
<!-- Generator: Adobe Illustrator 21.1.0, SVG Export Plug-In . SVG Version: 6.00 Build 0)  -->
<svg version="1.1" id="Layer_1" xmlns="http://www.w3.org/2000/svg" xmlns:xlink="http://www.w3.org/1999/xlink" x="0px" y="0px"
	 viewBox="0 0 32 32" style="enable-background:new 0 0 32 32;" xml:space="preserve">
<style type="text/css">
	.st0{fill:#FFD83B;}
	.st1{fill:#F2F2F2;}
	.st2{fill:#F3C432;}
	.st3{fill:#DEE4E9;}
	.st4{fill:#E9EFF4;}
	.st5{fill:#6DAFDF;}
	.st6{fill:#5CA3D9;}
	.st7{fill:#4D98D2;}
	.st8{fill:#E8EFF3;}
	.st9{fill:#DDE3E9;}
	.st10{fill:#4CC6E5;}
	.st11{opacity:0.05;fill:#2F3133;}
	.st12{fill:#E14B4B;}
	.st13{fill:#D3D9DD;}
	.st14{fill:#65B1EF;}
	.st15{fill:#8CC63E;}
	.st16{fill:#E84D88;}
	.st17{fill:#A4856D;}
	.st18{fill:#8BC540;}
	.st19{fill:#7FB241;}
	.st20{fill:#8E6D53;}
	.st21{fill:#FFFFFF;}
	.st22{fill:#9A795F;}
	.st23{fill:#E24B4B;}
	.st24{fill:#F2992D;}
	.st25{fill:#DF8726;}
	.st26{fill:#997960;}
	.st27{fill:#FFD93B;}
	.st28{fill:#E8AF2A;}
	.st29{fill:#D23F77;}
	.st30{fill:#D03F3F;}
	.st31{fill:#BF3332;}
	.st32{fill:#D03F3E;}
	.st33{fill:#BF3333;}
	.st34{fill:#F4C534;}
	.st35{fill:#8F6D52;}
	.st36{fill:#E9B02C;}
	.st37{fill:#5A5F63;}
	.st38{fill:#F4F4F4;}
	.st39{fill:#E74C87;}
	.st40{fill:#D24078;}
	.st41{fill:#5B5F63;}
	.st42{fill:#3F4347;}
	.st43{fill:#719C40;}
	.st44{fill:#7B5C45;}
	.st45{fill:#BB3166;}
	.st46{fill:#89664C;}
	.st47{fill:#77589F;}
	.st48{fill:#8066AA;}
	.st49{fill:#8D7FB6;}
	.st50{fill:#88BA40;}
	.st51{fill:#FDE7AA;}
	.st52{fill:#7FB239;}
	.st53{fill:#45CBEA;}
	.st54{fill:#ACB9C1;}
	.st55{fill:#DAE5EF;}
	.st56{fill:#7CA740;}
	.st57{fill:#88BF40;}
	.st58{fill:#85BB40;}
	.st59{fill:#FFF100;}
	.st60{fill:#FFDD00;}
	.st61{fill:#F29A2E;}
	.st62{fill:#3E4347;}
	.st63{fill:#59A5E0;}
	.st64{fill:#2F3133;}
	.st65{fill:#EDEDEF;}
	.st66{fill:#4E99D2;}
	.st67{fill:#A5856D;}
</style>
<g id="XMLID_1521_">
	<g id="XMLID_1522_">
		<path id="XMLID_2088_" class="st19" d="M22.755,32c-4.573-4.952-6.565-11.679-5.34-18.413c0.088-0.482-0.232-0.946-0.716-1.034
			c-0.483-0.086-0.946,0.234-1.034,0.717c-1.229,6.757-1.364,13.508,2.842,18.73H22.755z"/>
	</g>
	<g id="XMLID_2037_">
		<path id="XMLID_2047_" class="st19" d="M19.546,0C18.118,0,16.842,0.653,16,1.676v14.288c0,0,8.136-7.677,8.136-11.373
			C24.136,2.055,22.081,0,19.546,0z"/>
		<path id="XMLID_2040_" class="st18" d="M12.454,0C13.882,0,15.158,0.653,16,1.676v14.288c0,0-8.136-7.677-8.136-11.373
			C7.864,2.055,9.919,0,12.454,0z"/>
	</g>
	<path id="XMLID_1535_" class="st18" d="M19.546,0C18.118,0,16.842,0.653,16,1.676C15.158,0.653,13.882,0,12.454,0
		c-2.535,0-4.59,2.055-4.59,4.59C7.864,8.287,16,15.964,16,15.964s8.136-7.677,8.136-11.373C24.136,2.055,22.081,0,19.546,0z"/>
	<path id="XMLID_1524_" class="st18" d="M30.288,15.964c1.023-0.842,1.676-2.118,1.676-3.546c0-2.535-2.055-4.59-4.59-4.59
		C23.677,7.827,16,15.964,16,15.964S23.677,24.1,27.373,24.1c2.535,0,4.59-2.055,4.59-4.59
		C31.964,18.081,31.311,16.806,30.288,15.964z"/>
	<path id="XMLID_2063_" class="st18" d="M4.627,7.827c-2.535,0-4.59,2.055-4.59,4.59c0,1.428,0.653,2.704,1.676,3.546
		c-1.023,0.842-1.676,2.118-1.676,3.546c0,2.535,2.055,4.59,4.59,4.59C8.323,24.1,16,15.964,16,15.964S8.323,7.827,4.627,7.827z"/>
</g>
</svg>
