<?xml version="1.0" encoding="utf-8"?>
<!-- Generator: Adobe Illustrator 21.1.0, SVG Export Plug-In . SVG Version: 6.00 Build 0)  -->
<svg version="1.1" id="Layer_1" xmlns="http://www.w3.org/2000/svg" xmlns:xlink="http://www.w3.org/1999/xlink" x="0px" y="0px"
	 viewBox="0 0 32 32" style="enable-background:new 0 0 32 32;" xml:space="preserve">
<style type="text/css">
	.st0{fill:#FFD83B;}
	.st1{fill:#F2F2F2;}
	.st2{fill:#F3C432;}
	.st3{fill:#DEE4E9;}
	.st4{fill:#E9EFF4;}
	.st5{fill:#6DAFDF;}
	.st6{fill:#5CA3D9;}
	.st7{fill:#4D98D2;}
	.st8{fill:#E8EFF3;}
	.st9{fill:#DDE3E9;}
	.st10{fill:#4CC6E5;}
	.st11{opacity:0.05;fill:#2F3133;}
	.st12{fill:#E14B4B;}
	.st13{fill:#D3D9DD;}
	.st14{fill:#65B1EF;}
	.st15{fill:#8CC63E;}
	.st16{fill:#E84D88;}
	.st17{fill:#A4856D;}
	.st18{fill:#8BC540;}
	.st19{fill:#7FB241;}
	.st20{fill:#8E6D53;}
	.st21{fill:#FFFFFF;}
	.st22{fill:#9A795F;}
	.st23{fill:#E24B4B;}
	.st24{fill:#F2992D;}
	.st25{fill:#DF8726;}
	.st26{fill:#997960;}
	.st27{fill:#FFD93B;}
	.st28{fill:#E8AF2A;}
	.st29{fill:#D23F77;}
	.st30{fill:#D03F3F;}
	.st31{fill:#BF3332;}
	.st32{fill:#D03F3E;}
	.st33{fill:#BF3333;}
	.st34{fill:#F4C534;}
	.st35{fill:#8F6D52;}
	.st36{fill:#E9B02C;}
	.st37{fill:#5A5F63;}
	.st38{fill:#F4F4F4;}
	.st39{fill:#E74C87;}
	.st40{fill:#D24078;}
	.st41{fill:#5B5F63;}
	.st42{fill:#3F4347;}
	.st43{fill:#719C40;}
	.st44{fill:#7B5C45;}
	.st45{fill:#BB3166;}
	.st46{fill:#89664C;}
	.st47{fill:#77589F;}
	.st48{fill:#8066AA;}
	.st49{fill:#8D7FB6;}
	.st50{fill:#88BA40;}
	.st51{fill:#FDE7AA;}
	.st52{fill:#7FB239;}
	.st53{fill:#45CBEA;}
	.st54{fill:#ACB9C1;}
	.st55{fill:#DAE5EF;}
	.st56{fill:#7CA740;}
	.st57{fill:#88BF40;}
	.st58{fill:#85BB40;}
	.st59{fill:#FFF100;}
	.st60{fill:#FFDD00;}
	.st61{fill:#F29A2E;}
	.st62{fill:#3E4347;}
	.st63{fill:#59A5E0;}
	.st64{fill:#2F3133;}
	.st65{fill:#EDEDEF;}
	.st66{fill:#4E99D2;}
	.st67{fill:#A5856D;}
</style>
<g id="XMLID_2281_">
	<path id="XMLID_2284_" class="st18" d="M23.516,7.602c0-0.027,0.004-0.054,0.004-0.082C23.52,3.367,20.153,0,16,0
		c-4.153,0-7.52,3.367-7.52,7.52c0,0.028,0.004,0.054,0.004,0.082c-3.787,0.531-6.672,3.873-6.458,7.854
		c0.213,3.969,3.667,7.172,7.641,7.104c0.676-0.012,1.33-0.113,1.951-0.292c2.847-0.822,5.918-0.822,8.764,0
		c0.621,0.179,1.275,0.281,1.951,0.292c3.974,0.068,7.427-3.135,7.64-7.104C30.188,11.475,27.303,8.133,23.516,7.602z"/>
	<g id="XMLID_1144_">
		<path id="XMLID_2283_" class="st26" d="M19.693,17.037c-0.32-0.32-0.839-0.32-1.159,0l-1.187,1.187l-0.411-5.694
			c-0.035-0.491-0.444-0.871-0.937-0.871s-0.901,0.38-0.937,0.871l-0.293,4.059l-2.608-2.608c-0.32-0.32-0.839-0.32-1.159,0
			c-0.32,0.32-0.32,0.839,0,1.159l3.61,3.61l-0.788,10.914C13.735,30.926,14.735,32,16,32s2.265-1.074,2.174-2.336l-0.67-9.278
			l2.19-2.19C20.013,17.876,20.013,17.357,19.693,17.037z"/>
	</g>
	<circle id="XMLID_2177_" class="st19" cx="6.661" cy="13.058" r="1.4"/>
	<circle id="XMLID_2285_" class="st19" cx="12.959" cy="5.762" r="1.4"/>
	<circle id="XMLID_2301_" class="st19" cx="20.617" cy="8.308" r="1.4"/>
	<circle id="XMLID_2302_" class="st19" cx="22.017" cy="16" r="1.4"/>
</g>
</svg>
